,channel,control,data,name,note,pitch,program,tempo,text,time,type,value,velocity,note_midi_value,note_velocity,note_time,note_seconds
0,,,,,,,,,Copyright (C) 2001 David Butterfield,0,copyright,,,,,0,0.0
1,,,"[65, 16, 66, 18, 64, 0, 127, 0, 65]",,,,,,,0,sysex,,,,,4637976322,12078063.338541666
2,,,"(74, 65, 90, 50, 1, 0, 0, 0, 0, 0, 0, 0, 0, 0, 0, 0, 0, 0, 0, 0)",,,,,,,0,sequencer_specific,,,,,0,0.0
3,,,,,,,,571428.0,,0,set_tempo,,,,,4637976322,12078063.338541666
4,,,"[65, 16, 66, 18, 64, 1, 51, 64, 76]",,,,,,,0,sysex,,,,,4637976544,12078063.916666666
5,,,"[65, 16, 66, 18, 64, 1, 50, 0, 13]",,,,,,,0,sysex,,,,,4637976616,12078064.104166666
6,,,"[65, 16, 66, 18, 64, 1, 54, 0, 9]",,,,,,,0,sysex,,,,,4637976688,12078064.291666666
7,,,"[65, 16, 66, 18, 64, 1, 53, 0, 10]",,,,,,,0,sysex,,,,,4637976760,12078064.479166666
8,,,"[65, 16, 66, 18, 64, 1, 57, 0, 6]",,,,,,,0,sysex,,,,,4637976832,12078064.666666666
9,,,"[65, 16, 66, 18, 64, 1, 49, 4, 10]",,,,,,,0,sysex,,,,,4637976904,12078064.854166666
10,,,"[65, 16, 66, 18, 64, 1, 52, 64, 75]",,,,,,,0,sysex,,,,,4637976976,12078065.041666666
11,,,"[65, 16, 66, 18, 64, 1, 58, 64, 69]",,,,,,,0,sysex,,,,,4637977048,12078065.229166666
12,,,"[65, 16, 66, 18, 64, 1, 59, 8, 124]",,,,,,,0,sysex,,,,,4637977120,12078065.416666666
13,,,"[65, 16, 66, 18, 64, 1, 60, 80, 51]",,,,,,,0,sysex,,,,,4637977192,12078065.604166666
14,,,"[65, 16, 66, 18, 64, 1, 61, 3, 127]",,,,,,,0,sysex,,,,,4637977264,12078065.791666666
15,,,"[65, 16, 66, 18, 64, 1, 62, 18, 111]",,,,,,,0,sysex,,,,,4637977336,12078065.979166666
16,,,"[65, 16, 66, 18, 64, 1, 63, 0, 0]",,,,,,,0,sysex,,,,,4637977408,12078066.166666666
17,,,"[65, 16, 66, 18, 64, 1, 48, 4, 11]",,,,,,,0,sysex,,,,,4637977480,12078066.354166666
18,,,"[65, 16, 66, 18, 64, 1, 56, 2, 5]",,,,,,,0,sysex,,,,,4637977552,12078066.541666666
19,,,,,,,,,,0,end_of_track,,,,,4637977624,12078066.729166666
20,9.0,0.0,,,,,,,,0,control_change,0.0,,,,0,0.0
21,9.0,,,,,,0.0,,,0,program_change,,,,,0,0.0
22,,,"(74, 65, 90, 50, 1, 0, 0, 0, 0, 0, 0, 0, 0, 0, 0, 0, 0, 0, 0, 0)",,,,,,,0,sequencer_specific,,,,,4637977840,12078067.291666666
23,9.0,7.0,,,,,,,,0,control_change,127.0,,,,0,0.0
24,,,,Drums,,,,,,0,track_name,,,,,4637977984,12078067.666666666
25,9.0,10.0,,,,,,,,0,control_change,64.0,,,,0,0.0
26,9.0,93.0,,,,,,,,0,control_change,0.0,,,,0,0.0
27,9.0,91.0,,,,,,,,0,control_change,40.0,,,,0,0.0
28,9.0,,,,42.0,,,,,192,note_on,,112.0,42.0,112.0,192,0.5
29,9.0,,,,42.0,,,,,44,note_on,,0.0,42.0,0.0,236,0.6145833333333333
30,9.0,,,,42.0,,,,,52,note_on,,112.0,42.0,112.0,288,0.75
31,9.0,,,,42.0,,,,,44,note_on,,0.0,42.0,0.0,332,0.8645833333333333
32,9.0,,,,42.0,,,,,52,note_on,,112.0,42.0,112.0,384,1.0
33,9.0,,,,42.0,,,,,44,note_on,,0.0,42.0,0.0,428,1.1145833333333333
34,9.0,,,,42.0,,,,,52,note_on,,112.0,42.0,112.0,480,1.25
35,9.0,,,,42.0,,,,,44,note_on,,0.0,42.0,0.0,524,1.3645833333333333
36,9.0,,,,42.0,,,,,52,note_on,,112.0,42.0,112.0,576,1.5
37,9.0,,,,42.0,,,,,44,note_on,,0.0,42.0,0.0,620,1.6145833333333333
38,9.0,,,,42.0,,,,,52,note_on,,112.0,42.0,112.0,672,1.75
39,9.0,,,,42.0,,,,,44,note_on,,0.0,42.0,0.0,716,1.8645833333333333
40,9.0,,,,42.0,,,,,3124,note_on,,88.0,42.0,88.0,3840,10.0
41,9.0,,,,35.0,,,,,0,note_on,,112.0,35.0,112.0,3840,10.0
42,9.0,,,,42.0,,,,,44,note_on,,0.0,42.0,0.0,3884,10.114583333333332
43,9.0,,,,35.0,,,,,0,note_on,,0.0,35.0,0.0,3884,10.114583333333332
44,9.0,,,,42.0,,,,,52,note_on,,88.0,42.0,88.0,3936,10.25
45,9.0,,,,42.0,,,,,44,note_on,,0.0,42.0,0.0,3980,10.364583333333332
46,9.0,,,,42.0,,,,,52,note_on,,88.0,42.0,88.0,4032,10.5
47,9.0,,,,51.0,,,,,0,note_on,,112.0,51.0,112.0,4032,10.5
48,9.0,,,,40.0,,,,,0,note_on,,112.0,40.0,112.0,4032,10.5
49,9.0,,,,40.0,,,,,44,note_on,,0.0,40.0,0.0,4076,10.614583333333332
50,9.0,,,,51.0,,,,,0,note_on,,0.0,51.0,0.0,4076,10.614583333333332
51,9.0,,,,42.0,,,,,0,note_on,,0.0,42.0,0.0,4076,10.614583333333332
52,9.0,,,,42.0,,,,,52,note_on,,88.0,42.0,88.0,4128,10.75
53,9.0,,,,42.0,,,,,44,note_on,,0.0,42.0,0.0,4172,10.864583333333332
54,9.0,,,,42.0,,,,,52,note_on,,88.0,42.0,88.0,4224,11.0
55,9.0,,,,35.0,,,,,0,note_on,,112.0,35.0,112.0,4224,11.0
56,9.0,,,,35.0,,,,,44,note_on,,0.0,35.0,0.0,4268,11.114583333333332
57,9.0,,,,42.0,,,,,0,note_on,,0.0,42.0,0.0,4268,11.114583333333332
58,9.0,,,,35.0,,,,,52,note_on,,112.0,35.0,112.0,4320,11.25
59,9.0,,,,42.0,,,,,0,note_on,,88.0,42.0,88.0,4320,11.25
60,9.0,,,,42.0,,,,,44,note_on,,0.0,42.0,0.0,4364,11.364583333333332
61,9.0,,,,35.0,,,,,0,note_on,,0.0,35.0,0.0,4364,11.364583333333332
62,9.0,,,,42.0,,,,,52,note_on,,88.0,42.0,88.0,4416,11.5
63,9.0,,,,51.0,,,,,0,note_on,,112.0,51.0,112.0,4416,11.5
64,9.0,,,,40.0,,,,,0,note_on,,112.0,40.0,112.0,4416,11.5
65,9.0,,,,40.0,,,,,44,note_on,,0.0,40.0,0.0,4460,11.614583333333332
66,9.0,,,,42.0,,,,,0,note_on,,0.0,42.0,0.0,4460,11.614583333333332
67,9.0,,,,51.0,,,,,0,note_on,,0.0,51.0,0.0,4460,11.614583333333332
68,9.0,,,,51.0,,,,,52,note_on,,112.0,51.0,112.0,4512,11.75
69,9.0,,,,42.0,,,,,0,note_on,,88.0,42.0,88.0,4512,11.75
70,9.0,,,,42.0,,,,,44,note_on,,0.0,42.0,0.0,4556,11.864583333333332
71,9.0,,,,51.0,,,,,0,note_on,,0.0,51.0,0.0,4556,11.864583333333332
72,9.0,,,,35.0,,,,,4,note_on,,112.0,35.0,112.0,4560,11.875
73,9.0,,,,35.0,,,,,44,note_on,,0.0,35.0,0.0,4604,11.989583333333332
74,9.0,,,,35.0,,,,,4,note_on,,112.0,35.0,112.0,4608,12.0
75,9.0,,,,42.0,,,,,0,note_on,,88.0,42.0,88.0,4608,12.0
76,9.0,,,,35.0,,,,,44,note_on,,0.0,35.0,0.0,4652,12.114583333333332
77,9.0,,,,42.0,,,,,0,note_on,,0.0,42.0,0.0,4652,12.114583333333332
78,9.0,,,,42.0,,,,,52,note_on,,88.0,42.0,88.0,4704,12.25
79,9.0,,,,42.0,,,,,44,note_on,,0.0,42.0,0.0,4748,12.364583333333332
80,9.0,,,,42.0,,,,,52,note_on,,88.0,42.0,88.0,4800,12.5
81,9.0,,,,51.0,,,,,0,note_on,,112.0,51.0,112.0,4800,12.5
82,9.0,,,,40.0,,,,,0,note_on,,112.0,40.0,112.0,4800,12.5
83,9.0,,,,42.0,,,,,44,note_on,,0.0,42.0,0.0,4844,12.614583333333332
84,9.0,,,,40.0,,,,,0,note_on,,0.0,40.0,0.0,4844,12.614583333333332
85,9.0,,,,51.0,,,,,0,note_on,,0.0,51.0,0.0,4844,12.614583333333332
86,9.0,,,,42.0,,,,,52,note_on,,88.0,42.0,88.0,4896,12.75
87,9.0,,,,42.0,,,,,44,note_on,,0.0,42.0,0.0,4940,12.864583333333332
88,9.0,,,,42.0,,,,,52,note_on,,88.0,42.0,88.0,4992,13.0
89,9.0,,,,35.0,,,,,0,note_on,,112.0,35.0,112.0,4992,13.0
90,9.0,,,,42.0,,,,,44,note_on,,0.0,42.0,0.0,5036,13.114583333333332
91,9.0,,,,35.0,,,,,0,note_on,,0.0,35.0,0.0,5036,13.114583333333332
92,9.0,,,,35.0,,,,,52,note_on,,112.0,35.0,112.0,5088,13.25
93,9.0,,,,42.0,,,,,0,note_on,,88.0,42.0,88.0,5088,13.25
94,9.0,,,,35.0,,,,,44,note_on,,0.0,35.0,0.0,5132,13.364583333333332
95,9.0,,,,42.0,,,,,0,note_on,,0.0,42.0,0.0,5132,13.364583333333332
96,9.0,,,,51.0,,,,,52,note_on,,112.0,51.0,112.0,5184,13.5
97,9.0,,,,42.0,,,,,0,note_on,,88.0,42.0,88.0,5184,13.5
98,9.0,,,,40.0,,,,,0,note_on,,112.0,40.0,112.0,5184,13.5
99,9.0,,,,40.0,,,,,44,note_on,,0.0,40.0,0.0,5228,13.614583333333332
100,9.0,,,,42.0,,,,,0,note_on,,0.0,42.0,0.0,5228,13.614583333333332
101,9.0,,,,51.0,,,,,0,note_on,,0.0,51.0,0.0,5228,13.614583333333332
102,9.0,,,,42.0,,,,,52,note_on,,88.0,42.0,88.0,5280,13.75
103,9.0,,,,51.0,,,,,0,note_on,,112.0,51.0,112.0,5280,13.75
104,9.0,,,,42.0,,,,,44,note_on,,0.0,42.0,0.0,5324,13.864583333333332
105,9.0,,,,51.0,,,,,0,note_on,,0.0,51.0,0.0,5324,13.864583333333332
106,9.0,,,,35.0,,,,,4,note_on,,112.0,35.0,112.0,5328,13.875
107,9.0,,,,35.0,,,,,44,note_on,,0.0,35.0,0.0,5372,13.989583333333332
108,9.0,,,,42.0,,,,,4,note_on,,88.0,42.0,88.0,5376,14.0
109,9.0,,,,35.0,,,,,0,note_on,,112.0,35.0,112.0,5376,14.0
110,9.0,,,,42.0,,,,,44,note_on,,0.0,42.0,0.0,5420,14.114583333333332
111,9.0,,,,35.0,,,,,0,note_on,,0.0,35.0,0.0,5420,14.114583333333332
112,9.0,,,,42.0,,,,,52,note_on,,88.0,42.0,88.0,5472,14.25
113,9.0,,,,42.0,,,,,44,note_on,,0.0,42.0,0.0,5516,14.364583333333332
114,9.0,,,,42.0,,,,,52,note_on,,88.0,42.0,88.0,5568,14.5
115,9.0,,,,40.0,,,,,0,note_on,,112.0,40.0,112.0,5568,14.5
116,9.0,,,,51.0,,,,,0,note_on,,112.0,51.0,112.0,5568,14.5
117,9.0,,,,40.0,,,,,44,note_on,,0.0,40.0,0.0,5612,14.614583333333332
118,9.0,,,,51.0,,,,,0,note_on,,0.0,51.0,0.0,5612,14.614583333333332
119,9.0,,,,42.0,,,,,0,note_on,,0.0,42.0,0.0,5612,14.614583333333332
120,9.0,,,,42.0,,,,,52,note_on,,88.0,42.0,88.0,5664,14.75
121,9.0,,,,42.0,,,,,44,note_on,,0.0,42.0,0.0,5708,14.864583333333332
122,9.0,,,,42.0,,,,,52,note_on,,88.0,42.0,88.0,5760,15.0
123,9.0,,,,35.0,,,,,0,note_on,,112.0,35.0,112.0,5760,15.0
124,9.0,,,,42.0,,,,,44,note_on,,0.0,42.0,0.0,5804,15.114583333333332
125,9.0,,,,35.0,,,,,0,note_on,,0.0,35.0,0.0,5804,15.114583333333332
126,9.0,,,,42.0,,,,,52,note_on,,88.0,42.0,88.0,5856,15.25
127,9.0,,,,35.0,,,,,0,note_on,,112.0,35.0,112.0,5856,15.25
128,9.0,,,,35.0,,,,,44,note_on,,0.0,35.0,0.0,5900,15.364583333333332
129,9.0,,,,42.0,,,,,0,note_on,,0.0,42.0,0.0,5900,15.364583333333332
130,9.0,,,,42.0,,,,,52,note_on,,88.0,42.0,88.0,5952,15.5
131,9.0,,,,40.0,,,,,0,note_on,,112.0,40.0,112.0,5952,15.5
132,9.0,,,,51.0,,,,,0,note_on,,112.0,51.0,112.0,5952,15.5
133,9.0,,,,40.0,,,,,44,note_on,,0.0,40.0,0.0,5996,15.614583333333332
134,9.0,,,,51.0,,,,,0,note_on,,0.0,51.0,0.0,5996,15.614583333333332
135,9.0,,,,42.0,,,,,0,note_on,,0.0,42.0,0.0,5996,15.614583333333332
136,9.0,,,,42.0,,,,,52,note_on,,88.0,42.0,88.0,6048,15.75
137,9.0,,,,51.0,,,,,0,note_on,,112.0,51.0,112.0,6048,15.75
138,9.0,,,,51.0,,,,,44,note_on,,0.0,51.0,0.0,6092,15.864583333333332
139,9.0,,,,42.0,,,,,0,note_on,,0.0,42.0,0.0,6092,15.864583333333332
140,9.0,,,,40.0,,,,,436,note_on,,112.0,40.0,112.0,6528,17.0
141,9.0,,,,40.0,,,,,44,note_on,,0.0,40.0,0.0,6572,17.114583333333332
142,9.0,,,,48.0,,,,,4,note_on,,112.0,48.0,112.0,6576,17.125
143,9.0,,,,48.0,,,,,44,note_on,,0.0,48.0,0.0,6620,17.239583333333332
144,9.0,,,,40.0,,,,,52,note_on,,112.0,40.0,112.0,6672,17.375
145,9.0,,,,40.0,,,,,44,note_on,,0.0,40.0,0.0,6716,17.489583333333332
146,9.0,,,,40.0,,,,,4,note_on,,112.0,40.0,112.0,6720,17.5
147,9.0,,,,40.0,,,,,44,note_on,,0.0,40.0,0.0,6764,17.614583333333332
148,9.0,,,,36.0,,,,,52,note_on,,112.0,36.0,112.0,6816,17.75
149,9.0,,,,36.0,,,,,44,note_on,,0.0,36.0,0.0,6860,17.864583333333332
150,9.0,,,,42.0,,,,,52,note_on,,88.0,42.0,88.0,6912,18.0
151,9.0,,,,35.0,,,,,0,note_on,,112.0,35.0,112.0,6912,18.0
152,9.0,,,,35.0,,,,,44,note_on,,0.0,35.0,0.0,6956,18.114583333333332
153,9.0,,,,42.0,,,,,0,note_on,,0.0,42.0,0.0,6956,18.114583333333332
154,9.0,,,,42.0,,,,,52,note_on,,88.0,42.0,88.0,7008,18.25
155,9.0,,,,42.0,,,,,44,note_on,,0.0,42.0,0.0,7052,18.364583333333332
156,9.0,,,,51.0,,,,,52,note_on,,112.0,51.0,112.0,7104,18.5
157,9.0,,,,42.0,,,,,0,note_on,,88.0,42.0,88.0,7104,18.5
158,9.0,,,,40.0,,,,,0,note_on,,112.0,40.0,112.0,7104,18.5
159,9.0,,,,42.0,,,,,44,note_on,,0.0,42.0,0.0,7148,18.614583333333332
160,9.0,,,,40.0,,,,,0,note_on,,0.0,40.0,0.0,7148,18.614583333333332
161,9.0,,,,51.0,,,,,0,note_on,,0.0,51.0,0.0,7148,18.614583333333332
162,9.0,,,,42.0,,,,,52,note_on,,88.0,42.0,88.0,7200,18.75
163,9.0,,,,42.0,,,,,44,note_on,,0.0,42.0,0.0,7244,18.864583333333332
164,9.0,,,,35.0,,,,,52,note_on,,112.0,35.0,112.0,7296,19.0
165,9.0,,,,42.0,,,,,0,note_on,,88.0,42.0,88.0,7296,19.0
166,9.0,,,,42.0,,,,,44,note_on,,0.0,42.0,0.0,7340,19.114583333333332
167,9.0,,,,35.0,,,,,0,note_on,,0.0,35.0,0.0,7340,19.114583333333332
168,9.0,,,,42.0,,,,,52,note_on,,88.0,42.0,88.0,7392,19.25
169,9.0,,,,35.0,,,,,0,note_on,,112.0,35.0,112.0,7392,19.25
170,9.0,,,,42.0,,,,,44,note_on,,0.0,42.0,0.0,7436,19.364583333333332
171,9.0,,,,35.0,,,,,0,note_on,,0.0,35.0,0.0,7436,19.364583333333332
172,9.0,,,,40.0,,,,,52,note_on,,112.0,40.0,112.0,7488,19.5
173,9.0,,,,51.0,,,,,0,note_on,,112.0,51.0,112.0,7488,19.5
174,9.0,,,,42.0,,,,,0,note_on,,88.0,42.0,88.0,7488,19.5
175,9.0,,,,40.0,,,,,44,note_on,,0.0,40.0,0.0,7532,19.614583333333332
176,9.0,,,,42.0,,,,,0,note_on,,0.0,42.0,0.0,7532,19.614583333333332
177,9.0,,,,51.0,,,,,0,note_on,,0.0,51.0,0.0,7532,19.614583333333332
178,9.0,,,,42.0,,,,,52,note_on,,88.0,42.0,88.0,7584,19.75
179,9.0,,,,51.0,,,,,0,note_on,,112.0,51.0,112.0,7584,19.75
180,9.0,,,,51.0,,,,,44,note_on,,0.0,51.0,0.0,7628,19.864583333333332
181,9.0,,,,42.0,,,,,0,note_on,,0.0,42.0,0.0,7628,19.864583333333332
182,9.0,,,,35.0,,,,,4,note_on,,112.0,35.0,112.0,7632,19.875
183,9.0,,,,35.0,,,,,44,note_on,,0.0,35.0,0.0,7676,19.989583333333332
184,9.0,,,,35.0,,,,,4,note_on,,112.0,35.0,112.0,7680,20.0
185,9.0,,,,42.0,,,,,0,note_on,,88.0,42.0,88.0,7680,20.0
186,9.0,,,,35.0,,,,,44,note_on,,0.0,35.0,0.0,7724,20.114583333333332
187,9.0,,,,42.0,,,,,0,note_on,,0.0,42.0,0.0,7724,20.114583333333332
188,9.0,,,,42.0,,,,,52,note_on,,88.0,42.0,88.0,7776,20.25
189,9.0,,,,42.0,,,,,44,note_on,,0.0,42.0,0.0,7820,20.364583333333332
190,9.0,,,,40.0,,,,,52,note_on,,112.0,40.0,112.0,7872,20.5
191,9.0,,,,42.0,,,,,0,note_on,,88.0,42.0,88.0,7872,20.5
192,9.0,,,,51.0,,,,,0,note_on,,112.0,51.0,112.0,7872,20.5
193,9.0,,,,40.0,,,,,44,note_on,,0.0,40.0,0.0,7916,20.614583333333332
194,9.0,,,,42.0,,,,,0,note_on,,0.0,42.0,0.0,7916,20.614583333333332
195,9.0,,,,51.0,,,,,0,note_on,,0.0,51.0,0.0,7916,20.614583333333332
196,9.0,,,,42.0,,,,,52,note_on,,88.0,42.0,88.0,7968,20.75
197,9.0,,,,42.0,,,,,44,note_on,,0.0,42.0,0.0,8012,20.864583333333332
198,9.0,,,,42.0,,,,,52,note_on,,88.0,42.0,88.0,8064,21.0
199,9.0,,,,35.0,,,,,0,note_on,,112.0,35.0,112.0,8064,21.0
200,9.0,,,,42.0,,,,,44,note_on,,0.0,42.0,0.0,8108,21.114583333333332
201,9.0,,,,35.0,,,,,0,note_on,,0.0,35.0,0.0,8108,21.114583333333332
202,9.0,,,,42.0,,,,,52,note_on,,88.0,42.0,88.0,8160,21.25
203,9.0,,,,35.0,,,,,0,note_on,,112.0,35.0,112.0,8160,21.25
204,9.0,,,,42.0,,,,,44,note_on,,0.0,42.0,0.0,8204,21.364583333333332
205,9.0,,,,35.0,,,,,0,note_on,,0.0,35.0,0.0,8204,21.364583333333332
206,9.0,,,,51.0,,,,,52,note_on,,112.0,51.0,112.0,8256,21.5
207,9.0,,,,40.0,,,,,0,note_on,,112.0,40.0,112.0,8256,21.5
208,9.0,,,,42.0,,,,,0,note_on,,88.0,42.0,88.0,8256,21.5
209,9.0,,,,40.0,,,,,44,note_on,,0.0,40.0,0.0,8300,21.614583333333332
210,9.0,,,,51.0,,,,,0,note_on,,0.0,51.0,0.0,8300,21.614583333333332
211,9.0,,,,42.0,,,,,0,note_on,,0.0,42.0,0.0,8300,21.614583333333332
212,9.0,,,,42.0,,,,,52,note_on,,88.0,42.0,88.0,8352,21.75
213,9.0,,,,51.0,,,,,0,note_on,,112.0,51.0,112.0,8352,21.75
214,9.0,,,,42.0,,,,,44,note_on,,0.0,42.0,0.0,8396,21.864583333333332
215,9.0,,,,51.0,,,,,0,note_on,,0.0,51.0,0.0,8396,21.864583333333332
216,9.0,,,,35.0,,,,,4,note_on,,112.0,35.0,112.0,8400,21.875
217,9.0,,,,35.0,,,,,44,note_on,,0.0,35.0,0.0,8444,21.989583333333332
218,9.0,,,,35.0,,,,,4,note_on,,112.0,35.0,112.0,8448,22.0
219,9.0,,,,42.0,,,,,0,note_on,,88.0,42.0,88.0,8448,22.0
220,9.0,,,,35.0,,,,,44,note_on,,0.0,35.0,0.0,8492,22.114583333333332
221,9.0,,,,42.0,,,,,0,note_on,,0.0,42.0,0.0,8492,22.114583333333332
222,9.0,,,,42.0,,,,,52,note_on,,88.0,42.0,88.0,8544,22.25
223,9.0,,,,42.0,,,,,44,note_on,,0.0,42.0,0.0,8588,22.364583333333332
224,9.0,,,,42.0,,,,,52,note_on,,88.0,42.0,88.0,8640,22.5
225,9.0,,,,40.0,,,,,0,note_on,,112.0,40.0,112.0,8640,22.5
226,9.0,,,,51.0,,,,,0,note_on,,112.0,51.0,112.0,8640,22.5
227,9.0,,,,51.0,,,,,44,note_on,,0.0,51.0,0.0,8684,22.614583333333332
228,9.0,,,,42.0,,,,,0,note_on,,0.0,42.0,0.0,8684,22.614583333333332
229,9.0,,,,40.0,,,,,0,note_on,,0.0,40.0,0.0,8684,22.614583333333332
230,9.0,,,,42.0,,,,,52,note_on,,88.0,42.0,88.0,8736,22.75
231,9.0,,,,42.0,,,,,44,note_on,,0.0,42.0,0.0,8780,22.864583333333332
232,9.0,,,,42.0,,,,,52,note_on,,88.0,42.0,88.0,8832,23.0
233,9.0,,,,35.0,,,,,0,note_on,,112.0,35.0,112.0,8832,23.0
234,9.0,,,,42.0,,,,,44,note_on,,0.0,42.0,0.0,8876,23.114583333333332
235,9.0,,,,35.0,,,,,0,note_on,,0.0,35.0,0.0,8876,23.114583333333332
236,9.0,,,,42.0,,,,,52,note_on,,88.0,42.0,88.0,8928,23.25
237,9.0,,,,35.0,,,,,0,note_on,,112.0,35.0,112.0,8928,23.25
238,9.0,,,,35.0,,,,,44,note_on,,0.0,35.0,0.0,8972,23.364583333333332
239,9.0,,,,42.0,,,,,0,note_on,,0.0,42.0,0.0,8972,23.364583333333332
240,9.0,,,,42.0,,,,,52,note_on,,88.0,42.0,88.0,9024,23.5
241,9.0,,,,51.0,,,,,0,note_on,,112.0,51.0,112.0,9024,23.5
242,9.0,,,,40.0,,,,,0,note_on,,112.0,40.0,112.0,9024,23.5
243,9.0,,,,40.0,,,,,44,note_on,,0.0,40.0,0.0,9068,23.614583333333332
244,9.0,,,,51.0,,,,,0,note_on,,0.0,51.0,0.0,9068,23.614583333333332
245,9.0,,,,42.0,,,,,0,note_on,,0.0,42.0,0.0,9068,23.614583333333332
246,9.0,,,,42.0,,,,,52,note_on,,88.0,42.0,88.0,9120,23.75
247,9.0,,,,51.0,,,,,0,note_on,,112.0,51.0,112.0,9120,23.75
248,9.0,,,,51.0,,,,,44,note_on,,0.0,51.0,0.0,9164,23.864583333333332
249,9.0,,,,42.0,,,,,0,note_on,,0.0,42.0,0.0,9164,23.864583333333332
250,9.0,,,,35.0,,,,,4,note_on,,112.0,35.0,112.0,9168,23.875
251,9.0,,,,35.0,,,,,44,note_on,,0.0,35.0,0.0,9212,23.989583333333332
252,9.0,,,,35.0,,,,,4,note_on,,112.0,35.0,112.0,9216,24.0
253,9.0,,,,42.0,,,,,0,note_on,,88.0,42.0,88.0,9216,24.0
254,9.0,,,,42.0,,,,,44,note_on,,0.0,42.0,0.0,9260,24.114583333333332
255,9.0,,,,35.0,,,,,0,note_on,,0.0,35.0,0.0,9260,24.114583333333332
256,9.0,,,,42.0,,,,,52,note_on,,88.0,42.0,88.0,9312,24.25
257,9.0,,,,42.0,,,,,44,note_on,,0.0,42.0,0.0,9356,24.364583333333332
258,9.0,,,,51.0,,,,,52,note_on,,112.0,51.0,112.0,9408,24.5
259,9.0,,,,42.0,,,,,0,note_on,,88.0,42.0,88.0,9408,24.5
260,9.0,,,,40.0,,,,,0,note_on,,112.0,40.0,112.0,9408,24.5
261,9.0,,,,51.0,,,,,44,note_on,,0.0,51.0,0.0,9452,24.614583333333332
262,9.0,,,,40.0,,,,,0,note_on,,0.0,40.0,0.0,9452,24.614583333333332
263,9.0,,,,42.0,,,,,0,note_on,,0.0,42.0,0.0,9452,24.614583333333332
264,9.0,,,,42.0,,,,,52,note_on,,88.0,42.0,88.0,9504,24.75
265,9.0,,,,42.0,,,,,44,note_on,,0.0,42.0,0.0,9548,24.864583333333332
266,9.0,,,,42.0,,,,,52,note_on,,88.0,42.0,88.0,9600,25.0
267,9.0,,,,35.0,,,,,0,note_on,,112.0,35.0,112.0,9600,25.0
268,9.0,,,,42.0,,,,,44,note_on,,0.0,42.0,0.0,9644,25.114583333333332
269,9.0,,,,35.0,,,,,0,note_on,,0.0,35.0,0.0,9644,25.114583333333332
270,9.0,,,,42.0,,,,,52,note_on,,88.0,42.0,88.0,9696,25.25
271,9.0,,,,35.0,,,,,0,note_on,,112.0,35.0,112.0,9696,25.25
272,9.0,,,,42.0,,,,,44,note_on,,0.0,42.0,0.0,9740,25.364583333333332
273,9.0,,,,35.0,,,,,0,note_on,,0.0,35.0,0.0,9740,25.364583333333332
274,9.0,,,,42.0,,,,,52,note_on,,88.0,42.0,88.0,9792,25.5
275,9.0,,,,51.0,,,,,0,note_on,,112.0,51.0,112.0,9792,25.5
276,9.0,,,,40.0,,,,,0,note_on,,112.0,40.0,112.0,9792,25.5
277,9.0,,,,40.0,,,,,44,note_on,,0.0,40.0,0.0,9836,25.614583333333332
278,9.0,,,,51.0,,,,,0,note_on,,0.0,51.0,0.0,9836,25.614583333333332
279,9.0,,,,42.0,,,,,0,note_on,,0.0,42.0,0.0,9836,25.614583333333332
280,9.0,,,,51.0,,,,,52,note_on,,112.0,51.0,112.0,9888,25.75
281,9.0,,,,42.0,,,,,0,note_on,,88.0,42.0,88.0,9888,25.75
282,9.0,,,,42.0,,,,,44,note_on,,0.0,42.0,0.0,9932,25.864583333333332
283,9.0,,,,51.0,,,,,0,note_on,,0.0,51.0,0.0,9932,25.864583333333332
284,9.0,,,,35.0,,,,,4,note_on,,112.0,35.0,112.0,9936,25.875
285,9.0,,,,35.0,,,,,44,note_on,,0.0,35.0,0.0,9980,25.989583333333332
286,9.0,,,,35.0,,,,,4,note_on,,112.0,35.0,112.0,9984,26.0
287,9.0,,,,42.0,,,,,0,note_on,,88.0,42.0,88.0,9984,26.0
288,9.0,,,,35.0,,,,,44,note_on,,0.0,35.0,0.0,10028,26.114583333333332
289,9.0,,,,42.0,,,,,0,note_on,,0.0,42.0,0.0,10028,26.114583333333332
290,9.0,,,,42.0,,,,,52,note_on,,88.0,42.0,88.0,10080,26.25
291,9.0,,,,42.0,,,,,44,note_on,,0.0,42.0,0.0,10124,26.364583333333332
292,9.0,,,,40.0,,,,,52,note_on,,112.0,40.0,112.0,10176,26.5
293,9.0,,,,51.0,,,,,0,note_on,,112.0,51.0,112.0,10176,26.5
294,9.0,,,,42.0,,,,,0,note_on,,88.0,42.0,88.0,10176,26.5
295,9.0,,,,40.0,,,,,44,note_on,,0.0,40.0,0.0,10220,26.614583333333332
296,9.0,,,,51.0,,,,,0,note_on,,0.0,51.0,0.0,10220,26.614583333333332
297,9.0,,,,42.0,,,,,0,note_on,,0.0,42.0,0.0,10220,26.614583333333332
298,9.0,,,,42.0,,,,,52,note_on,,88.0,42.0,88.0,10272,26.75
299,9.0,,,,42.0,,,,,44,note_on,,0.0,42.0,0.0,10316,26.864583333333332
300,9.0,,,,35.0,,,,,52,note_on,,112.0,35.0,112.0,10368,27.0
301,9.0,,,,42.0,,,,,0,note_on,,88.0,42.0,88.0,10368,27.0
302,9.0,,,,42.0,,,,,44,note_on,,0.0,42.0,0.0,10412,27.114583333333332
303,9.0,,,,35.0,,,,,0,note_on,,0.0,35.0,0.0,10412,27.114583333333332
304,9.0,,,,42.0,,,,,52,note_on,,88.0,42.0,88.0,10464,27.25
305,9.0,,,,35.0,,,,,0,note_on,,112.0,35.0,112.0,10464,27.25
306,9.0,,,,42.0,,,,,44,note_on,,0.0,42.0,0.0,10508,27.364583333333332
307,9.0,,,,35.0,,,,,0,note_on,,0.0,35.0,0.0,10508,27.364583333333332
308,9.0,,,,40.0,,,,,52,note_on,,112.0,40.0,112.0,10560,27.5
309,9.0,,,,51.0,,,,,0,note_on,,112.0,51.0,112.0,10560,27.5
310,9.0,,,,42.0,,,,,0,note_on,,88.0,42.0,88.0,10560,27.5
311,9.0,,,,42.0,,,,,44,note_on,,0.0,42.0,0.0,10604,27.614583333333332
312,9.0,,,,51.0,,,,,0,note_on,,0.0,51.0,0.0,10604,27.614583333333332
313,9.0,,,,40.0,,,,,0,note_on,,0.0,40.0,0.0,10604,27.614583333333332
314,9.0,,,,51.0,,,,,52,note_on,,112.0,51.0,112.0,10656,27.75
315,9.0,,,,42.0,,,,,0,note_on,,88.0,42.0,88.0,10656,27.75
316,9.0,,,,42.0,,,,,44,note_on,,0.0,42.0,0.0,10700,27.864583333333332
317,9.0,,,,51.0,,,,,0,note_on,,0.0,51.0,0.0,10700,27.864583333333332
318,9.0,,,,35.0,,,,,4,note_on,,112.0,35.0,112.0,10704,27.875
319,9.0,,,,35.0,,,,,44,note_on,,0.0,35.0,0.0,10748,27.989583333333332
320,9.0,,,,35.0,,,,,4,note_on,,112.0,35.0,112.0,10752,28.0
321,9.0,,,,42.0,,,,,0,note_on,,88.0,42.0,88.0,10752,28.0
322,9.0,,,,42.0,,,,,44,note_on,,0.0,42.0,0.0,10796,28.114583333333332
323,9.0,,,,35.0,,,,,0,note_on,,0.0,35.0,0.0,10796,28.114583333333332
324,9.0,,,,42.0,,,,,52,note_on,,88.0,42.0,88.0,10848,28.25
325,9.0,,,,42.0,,,,,44,note_on,,0.0,42.0,0.0,10892,28.364583333333332
326,9.0,,,,51.0,,,,,52,note_on,,112.0,51.0,112.0,10944,28.5
327,9.0,,,,42.0,,,,,0,note_on,,88.0,42.0,88.0,10944,28.5
328,9.0,,,,40.0,,,,,0,note_on,,112.0,40.0,112.0,10944,28.5
329,9.0,,,,40.0,,,,,44,note_on,,0.0,40.0,0.0,10988,28.614583333333332
330,9.0,,,,42.0,,,,,0,note_on,,0.0,42.0,0.0,10988,28.614583333333332
331,9.0,,,,51.0,,,,,0,note_on,,0.0,51.0,0.0,10988,28.614583333333332
332,9.0,,,,42.0,,,,,52,note_on,,88.0,42.0,88.0,11040,28.75
333,9.0,,,,42.0,,,,,44,note_on,,0.0,42.0,0.0,11084,28.864583333333332
334,9.0,,,,35.0,,,,,52,note_on,,112.0,35.0,112.0,11136,29.0
335,9.0,,,,42.0,,,,,0,note_on,,88.0,42.0,88.0,11136,29.0
336,9.0,,,,35.0,,,,,44,note_on,,0.0,35.0,0.0,11180,29.114583333333332
337,9.0,,,,42.0,,,,,0,note_on,,0.0,42.0,0.0,11180,29.114583333333332
338,9.0,,,,42.0,,,,,52,note_on,,88.0,42.0,88.0,11232,29.25
339,9.0,,,,35.0,,,,,0,note_on,,112.0,35.0,112.0,11232,29.25
340,9.0,,,,35.0,,,,,44,note_on,,0.0,35.0,0.0,11276,29.364583333333332
341,9.0,,,,42.0,,,,,0,note_on,,0.0,42.0,0.0,11276,29.364583333333332
342,9.0,,,,40.0,,,,,52,note_on,,112.0,40.0,112.0,11328,29.5
343,9.0,,,,42.0,,,,,0,note_on,,88.0,42.0,88.0,11328,29.5
344,9.0,,,,51.0,,,,,0,note_on,,112.0,51.0,112.0,11328,29.5
345,9.0,,,,51.0,,,,,44,note_on,,0.0,51.0,0.0,11372,29.614583333333332
346,9.0,,,,40.0,,,,,0,note_on,,0.0,40.0,0.0,11372,29.614583333333332
347,9.0,,,,42.0,,,,,0,note_on,,0.0,42.0,0.0,11372,29.614583333333332
348,9.0,,,,51.0,,,,,52,note_on,,112.0,51.0,112.0,11424,29.75
349,9.0,,,,42.0,,,,,0,note_on,,88.0,42.0,88.0,11424,29.75
350,9.0,,,,51.0,,,,,44,note_on,,0.0,51.0,0.0,11468,29.864583333333332
351,9.0,,,,42.0,,,,,0,note_on,,0.0,42.0,0.0,11468,29.864583333333332
352,9.0,,,,35.0,,,,,4,note_on,,112.0,35.0,112.0,11472,29.875
353,9.0,,,,35.0,,,,,44,note_on,,0.0,35.0,0.0,11516,29.989583333333332
354,9.0,,,,42.0,,,,,4,note_on,,88.0,42.0,88.0,11520,30.0
355,9.0,,,,35.0,,,,,0,note_on,,112.0,35.0,112.0,11520,30.0
356,9.0,,,,35.0,,,,,44,note_on,,0.0,35.0,0.0,11564,30.114583333333332
357,9.0,,,,42.0,,,,,0,note_on,,0.0,42.0,0.0,11564,30.114583333333332
358,9.0,,,,42.0,,,,,52,note_on,,88.0,42.0,88.0,11616,30.25
359,9.0,,,,42.0,,,,,44,note_on,,0.0,42.0,0.0,11660,30.364583333333332
360,9.0,,,,40.0,,,,,52,note_on,,112.0,40.0,112.0,11712,30.5
361,9.0,,,,42.0,,,,,0,note_on,,88.0,42.0,88.0,11712,30.5
362,9.0,,,,51.0,,,,,0,note_on,,112.0,51.0,112.0,11712,30.5
363,9.0,,,,40.0,,,,,44,note_on,,0.0,40.0,0.0,11756,30.614583333333332
364,9.0,,,,42.0,,,,,0,note_on,,0.0,42.0,0.0,11756,30.614583333333332
365,9.0,,,,51.0,,,,,0,note_on,,0.0,51.0,0.0,11756,30.614583333333332
366,9.0,,,,42.0,,,,,52,note_on,,88.0,42.0,88.0,11808,30.75
367,9.0,,,,42.0,,,,,44,note_on,,0.0,42.0,0.0,11852,30.864583333333332
368,9.0,,,,42.0,,,,,52,note_on,,88.0,42.0,88.0,11904,31.0
369,9.0,,,,35.0,,,,,0,note_on,,112.0,35.0,112.0,11904,31.0
370,9.0,,,,42.0,,,,,44,note_on,,0.0,42.0,0.0,11948,31.114583333333332
371,9.0,,,,35.0,,,,,0,note_on,,0.0,35.0,0.0,11948,31.114583333333332
372,9.0,,,,35.0,,,,,52,note_on,,112.0,35.0,112.0,12000,31.25
373,9.0,,,,42.0,,,,,0,note_on,,88.0,42.0,88.0,12000,31.25
374,9.0,,,,42.0,,,,,44,note_on,,0.0,42.0,0.0,12044,31.364583333333332
375,9.0,,,,35.0,,,,,0,note_on,,0.0,35.0,0.0,12044,31.364583333333332
376,9.0,,,,51.0,,,,,52,note_on,,112.0,51.0,112.0,12096,31.5
377,9.0,,,,42.0,,,,,0,note_on,,88.0,42.0,88.0,12096,31.5
378,9.0,,,,40.0,,,,,0,note_on,,112.0,40.0,112.0,12096,31.5
379,9.0,,,,42.0,,,,,44,note_on,,0.0,42.0,0.0,12140,31.614583333333332
380,9.0,,,,40.0,,,,,0,note_on,,0.0,40.0,0.0,12140,31.614583333333332
381,9.0,,,,51.0,,,,,0,note_on,,0.0,51.0,0.0,12140,31.614583333333332
382,9.0,,,,42.0,,,,,52,note_on,,88.0,42.0,88.0,12192,31.75
383,9.0,,,,51.0,,,,,0,note_on,,112.0,51.0,112.0,12192,31.75
384,9.0,,,,42.0,,,,,44,note_on,,0.0,42.0,0.0,12236,31.864583333333332
385,9.0,,,,51.0,,,,,0,note_on,,0.0,51.0,0.0,12236,31.864583333333332
386,9.0,,,,35.0,,,,,4,note_on,,112.0,35.0,112.0,12240,31.875
387,9.0,,,,35.0,,,,,44,note_on,,0.0,35.0,0.0,12284,31.989583333333332
388,9.0,,,,42.0,,,,,4,note_on,,88.0,42.0,88.0,12288,32.0
389,9.0,,,,35.0,,,,,0,note_on,,112.0,35.0,112.0,12288,32.0
390,9.0,,,,35.0,,,,,44,note_on,,0.0,35.0,0.0,12332,32.11458333333333
391,9.0,,,,42.0,,,,,0,note_on,,0.0,42.0,0.0,12332,32.11458333333333
392,9.0,,,,42.0,,,,,52,note_on,,88.0,42.0,88.0,12384,32.25
393,9.0,,,,42.0,,,,,44,note_on,,0.0,42.0,0.0,12428,32.36458333333333
394,9.0,,,,40.0,,,,,52,note_on,,112.0,40.0,112.0,12480,32.5
395,9.0,,,,42.0,,,,,0,note_on,,88.0,42.0,88.0,12480,32.5
396,9.0,,,,51.0,,,,,0,note_on,,112.0,51.0,112.0,12480,32.5
397,9.0,,,,42.0,,,,,44,note_on,,0.0,42.0,0.0,12524,32.61458333333333
398,9.0,,,,40.0,,,,,0,note_on,,0.0,40.0,0.0,12524,32.61458333333333
399,9.0,,,,51.0,,,,,0,note_on,,0.0,51.0,0.0,12524,32.61458333333333
400,9.0,,,,42.0,,,,,52,note_on,,88.0,42.0,88.0,12576,32.75
401,9.0,,,,42.0,,,,,44,note_on,,0.0,42.0,0.0,12620,32.86458333333333
402,9.0,,,,42.0,,,,,52,note_on,,88.0,42.0,88.0,12672,33.0
403,9.0,,,,35.0,,,,,0,note_on,,112.0,35.0,112.0,12672,33.0
404,9.0,,,,42.0,,,,,44,note_on,,0.0,42.0,0.0,12716,33.11458333333333
405,9.0,,,,35.0,,,,,0,note_on,,0.0,35.0,0.0,12716,33.11458333333333
406,9.0,,,,42.0,,,,,52,note_on,,88.0,42.0,88.0,12768,33.25
407,9.0,,,,35.0,,,,,0,note_on,,112.0,35.0,112.0,12768,33.25
408,9.0,,,,42.0,,,,,44,note_on,,0.0,42.0,0.0,12812,33.36458333333333
409,9.0,,,,35.0,,,,,0,note_on,,0.0,35.0,0.0,12812,33.36458333333333
410,9.0,,,,42.0,,,,,52,note_on,,88.0,42.0,88.0,12864,33.5
411,9.0,,,,40.0,,,,,0,note_on,,112.0,40.0,112.0,12864,33.5
412,9.0,,,,51.0,,,,,0,note_on,,112.0,51.0,112.0,12864,33.5
413,9.0,,,,42.0,,,,,44,note_on,,0.0,42.0,0.0,12908,33.61458333333333
414,9.0,,,,40.0,,,,,0,note_on,,0.0,40.0,0.0,12908,33.61458333333333
415,9.0,,,,51.0,,,,,0,note_on,,0.0,51.0,0.0,12908,33.61458333333333
416,9.0,,,,42.0,,,,,52,note_on,,88.0,42.0,88.0,12960,33.75
417,9.0,,,,51.0,,,,,0,note_on,,112.0,51.0,112.0,12960,33.75
418,9.0,,,,51.0,,,,,44,note_on,,0.0,51.0,0.0,13004,33.86458333333333
419,9.0,,,,42.0,,,,,0,note_on,,0.0,42.0,0.0,13004,33.86458333333333
420,9.0,,,,35.0,,,,,4,note_on,,112.0,35.0,112.0,13008,33.875
421,9.0,,,,35.0,,,,,44,note_on,,0.0,35.0,0.0,13052,33.98958333333333
422,9.0,,,,35.0,,,,,4,note_on,,112.0,35.0,112.0,13056,34.0
423,9.0,,,,42.0,,,,,0,note_on,,88.0,42.0,88.0,13056,34.0
424,9.0,,,,49.0,,,,,0,note_on,,112.0,49.0,112.0,13056,34.0
425,9.0,,,,42.0,,,,,44,note_on,,0.0,42.0,0.0,13100,34.11458333333333
426,9.0,,,,35.0,,,,,0,note_on,,0.0,35.0,0.0,13100,34.11458333333333
427,9.0,,,,49.0,,,,,0,note_on,,0.0,49.0,0.0,13100,34.11458333333333
428,9.0,,,,35.0,,,,,52,note_on,,112.0,35.0,112.0,13152,34.25
429,9.0,,,,42.0,,,,,0,note_on,,88.0,42.0,88.0,13152,34.25
430,9.0,,,,35.0,,,,,44,note_on,,0.0,35.0,0.0,13196,34.36458333333333
431,9.0,,,,42.0,,,,,0,note_on,,0.0,42.0,0.0,13196,34.36458333333333
432,9.0,,,,40.0,,,,,52,note_on,,112.0,40.0,112.0,13248,34.5
433,9.0,,,,35.0,,,,,0,note_on,,112.0,35.0,112.0,13248,34.5
434,9.0,,,,42.0,,,,,0,note_on,,88.0,42.0,88.0,13248,34.5
435,9.0,,,,51.0,,,,,0,note_on,,112.0,51.0,112.0,13248,34.5
436,9.0,,,,42.0,,,,,44,note_on,,0.0,42.0,0.0,13292,34.61458333333333
437,9.0,,,,40.0,,,,,0,note_on,,0.0,40.0,0.0,13292,34.61458333333333
438,9.0,,,,35.0,,,,,0,note_on,,0.0,35.0,0.0,13292,34.61458333333333
439,9.0,,,,51.0,,,,,0,note_on,,0.0,51.0,0.0,13292,34.61458333333333
440,9.0,,,,42.0,,,,,52,note_on,,88.0,42.0,88.0,13344,34.75
441,9.0,,,,42.0,,,,,44,note_on,,0.0,42.0,0.0,13388,34.86458333333333
442,9.0,,,,35.0,,,,,52,note_on,,112.0,35.0,112.0,13440,35.0
443,9.0,,,,42.0,,,,,0,note_on,,88.0,42.0,88.0,13440,35.0
444,9.0,,,,42.0,,,,,44,note_on,,0.0,42.0,0.0,13484,35.11458333333333
445,9.0,,,,35.0,,,,,0,note_on,,0.0,35.0,0.0,13484,35.11458333333333
446,9.0,,,,42.0,,,,,52,note_on,,88.0,42.0,88.0,13536,35.25
447,9.0,,,,35.0,,,,,0,note_on,,112.0,35.0,112.0,13536,35.25
448,9.0,,,,35.0,,,,,44,note_on,,0.0,35.0,0.0,13580,35.36458333333333
449,9.0,,,,42.0,,,,,0,note_on,,0.0,42.0,0.0,13580,35.36458333333333
450,9.0,,,,35.0,,,,,52,note_on,,112.0,35.0,112.0,13632,35.5
451,9.0,,,,40.0,,,,,0,note_on,,112.0,40.0,112.0,13632,35.5
452,9.0,,,,42.0,,,,,0,note_on,,88.0,42.0,88.0,13632,35.5
453,9.0,,,,51.0,,,,,0,note_on,,112.0,51.0,112.0,13632,35.5
454,9.0,,,,42.0,,,,,44,note_on,,0.0,42.0,0.0,13676,35.61458333333333
455,9.0,,,,40.0,,,,,0,note_on,,0.0,40.0,0.0,13676,35.61458333333333
456,9.0,,,,51.0,,,,,0,note_on,,0.0,51.0,0.0,13676,35.61458333333333
457,9.0,,,,35.0,,,,,0,note_on,,0.0,35.0,0.0,13676,35.61458333333333
458,9.0,,,,51.0,,,,,52,note_on,,112.0,51.0,112.0,13728,35.75
459,9.0,,,,42.0,,,,,0,note_on,,88.0,42.0,88.0,13728,35.75
460,9.0,,,,42.0,,,,,44,note_on,,0.0,42.0,0.0,13772,35.86458333333333
461,9.0,,,,51.0,,,,,0,note_on,,0.0,51.0,0.0,13772,35.86458333333333
462,9.0,,,,35.0,,,,,4,note_on,,112.0,35.0,112.0,13776,35.875
463,9.0,,,,35.0,,,,,44,note_on,,0.0,35.0,0.0,13820,35.98958333333333
464,9.0,,,,42.0,,,,,4,note_on,,88.0,42.0,88.0,13824,36.0
465,9.0,,,,35.0,,,,,0,note_on,,112.0,35.0,112.0,13824,36.0
466,9.0,,,,42.0,,,,,44,note_on,,0.0,42.0,0.0,13868,36.11458333333333
467,9.0,,,,35.0,,,,,0,note_on,,0.0,35.0,0.0,13868,36.11458333333333
468,9.0,,,,42.0,,,,,52,note_on,,88.0,42.0,88.0,13920,36.25
469,9.0,,,,35.0,,,,,0,note_on,,112.0,35.0,112.0,13920,36.25
470,9.0,,,,42.0,,,,,44,note_on,,0.0,42.0,0.0,13964,36.36458333333333
471,9.0,,,,35.0,,,,,0,note_on,,0.0,35.0,0.0,13964,36.36458333333333
472,9.0,,,,42.0,,,,,52,note_on,,88.0,42.0,88.0,14016,36.5
473,9.0,,,,51.0,,,,,0,note_on,,112.0,51.0,112.0,14016,36.5
474,9.0,,,,35.0,,,,,0,note_on,,112.0,35.0,112.0,14016,36.5
475,9.0,,,,40.0,,,,,0,note_on,,112.0,40.0,112.0,14016,36.5
476,9.0,,,,40.0,,,,,44,note_on,,0.0,40.0,0.0,14060,36.61458333333333
477,9.0,,,,51.0,,,,,0,note_on,,0.0,51.0,0.0,14060,36.61458333333333
478,9.0,,,,42.0,,,,,0,note_on,,0.0,42.0,0.0,14060,36.61458333333333
479,9.0,,,,35.0,,,,,0,note_on,,0.0,35.0,0.0,14060,36.61458333333333
480,9.0,,,,42.0,,,,,52,note_on,,88.0,42.0,88.0,14112,36.75
481,9.0,,,,42.0,,,,,44,note_on,,0.0,42.0,0.0,14156,36.86458333333333
482,9.0,,,,42.0,,,,,52,note_on,,88.0,42.0,88.0,14208,37.0
483,9.0,,,,35.0,,,,,0,note_on,,112.0,35.0,112.0,14208,37.0
484,9.0,,,,35.0,,,,,44,note_on,,0.0,35.0,0.0,14252,37.11458333333333
485,9.0,,,,42.0,,,,,0,note_on,,0.0,42.0,0.0,14252,37.11458333333333
486,9.0,,,,42.0,,,,,52,note_on,,88.0,42.0,88.0,14304,37.25
487,9.0,,,,35.0,,,,,0,note_on,,112.0,35.0,112.0,14304,37.25
488,9.0,,,,35.0,,,,,44,note_on,,0.0,35.0,0.0,14348,37.36458333333333
489,9.0,,,,42.0,,,,,0,note_on,,0.0,42.0,0.0,14348,37.36458333333333
490,9.0,,,,42.0,,,,,52,note_on,,88.0,42.0,88.0,14400,37.5
491,9.0,,,,40.0,,,,,0,note_on,,112.0,40.0,112.0,14400,37.5
492,9.0,,,,51.0,,,,,0,note_on,,112.0,51.0,112.0,14400,37.5
493,9.0,,,,35.0,,,,,0,note_on,,112.0,35.0,112.0,14400,37.5
494,9.0,,,,35.0,,,,,44,note_on,,0.0,35.0,0.0,14444,37.61458333333333
495,9.0,,,,42.0,,,,,0,note_on,,0.0,42.0,0.0,14444,37.61458333333333
496,9.0,,,,40.0,,,,,0,note_on,,0.0,40.0,0.0,14444,37.61458333333333
497,9.0,,,,51.0,,,,,0,note_on,,0.0,51.0,0.0,14444,37.61458333333333
498,9.0,,,,42.0,,,,,52,note_on,,88.0,42.0,88.0,14496,37.75
499,9.0,,,,51.0,,,,,0,note_on,,112.0,51.0,112.0,14496,37.75
500,9.0,,,,42.0,,,,,44,note_on,,0.0,42.0,0.0,14540,37.86458333333333
501,9.0,,,,51.0,,,,,0,note_on,,0.0,51.0,0.0,14540,37.86458333333333
502,9.0,,,,35.0,,,,,4,note_on,,112.0,35.0,112.0,14544,37.875
503,9.0,,,,35.0,,,,,44,note_on,,0.0,35.0,0.0,14588,37.98958333333333
504,9.0,,,,42.0,,,,,4,note_on,,88.0,42.0,88.0,14592,38.0
505,9.0,,,,35.0,,,,,0,note_on,,112.0,35.0,112.0,14592,38.0
506,9.0,,,,35.0,,,,,44,note_on,,0.0,35.0,0.0,14636,38.11458333333333
507,9.0,,,,42.0,,,,,0,note_on,,0.0,42.0,0.0,14636,38.11458333333333
508,9.0,,,,42.0,,,,,52,note_on,,88.0,42.0,88.0,14688,38.25
509,9.0,,,,35.0,,,,,0,note_on,,112.0,35.0,112.0,14688,38.25
510,9.0,,,,35.0,,,,,44,note_on,,0.0,35.0,0.0,14732,38.36458333333333
511,9.0,,,,42.0,,,,,0,note_on,,0.0,42.0,0.0,14732,38.36458333333333
512,9.0,,,,40.0,,,,,52,note_on,,112.0,40.0,112.0,14784,38.5
513,9.0,,,,51.0,,,,,0,note_on,,112.0,51.0,112.0,14784,38.5
514,9.0,,,,35.0,,,,,0,note_on,,112.0,35.0,112.0,14784,38.5
515,9.0,,,,42.0,,,,,0,note_on,,88.0,42.0,88.0,14784,38.5
516,9.0,,,,35.0,,,,,44,note_on,,0.0,35.0,0.0,14828,38.61458333333333
517,9.0,,,,42.0,,,,,0,note_on,,0.0,42.0,0.0,14828,38.61458333333333
518,9.0,,,,51.0,,,,,0,note_on,,0.0,51.0,0.0,14828,38.61458333333333
519,9.0,,,,40.0,,,,,0,note_on,,0.0,40.0,0.0,14828,38.61458333333333
520,9.0,,,,42.0,,,,,52,note_on,,88.0,42.0,88.0,14880,38.75
521,9.0,,,,42.0,,,,,44,note_on,,0.0,42.0,0.0,14924,38.86458333333333
522,9.0,,,,42.0,,,,,52,note_on,,88.0,42.0,88.0,14976,39.0
523,9.0,,,,35.0,,,,,0,note_on,,112.0,35.0,112.0,14976,39.0
524,9.0,,,,35.0,,,,,44,note_on,,0.0,35.0,0.0,15020,39.11458333333333
525,9.0,,,,42.0,,,,,0,note_on,,0.0,42.0,0.0,15020,39.11458333333333
526,9.0,,,,35.0,,,,,52,note_on,,112.0,35.0,112.0,15072,39.25
527,9.0,,,,42.0,,,,,0,note_on,,88.0,42.0,88.0,15072,39.25
528,9.0,,,,35.0,,,,,44,note_on,,0.0,35.0,0.0,15116,39.36458333333333
529,9.0,,,,42.0,,,,,0,note_on,,0.0,42.0,0.0,15116,39.36458333333333
530,9.0,,,,40.0,,,,,52,note_on,,112.0,40.0,112.0,15168,39.5
531,9.0,,,,51.0,,,,,0,note_on,,112.0,51.0,112.0,15168,39.5
532,9.0,,,,42.0,,,,,0,note_on,,88.0,42.0,88.0,15168,39.5
533,9.0,,,,35.0,,,,,0,note_on,,112.0,35.0,112.0,15168,39.5
534,9.0,,,,51.0,,,,,44,note_on,,0.0,51.0,0.0,15212,39.61458333333333
535,9.0,,,,40.0,,,,,0,note_on,,0.0,40.0,0.0,15212,39.61458333333333
536,9.0,,,,35.0,,,,,0,note_on,,0.0,35.0,0.0,15212,39.61458333333333
537,9.0,,,,42.0,,,,,0,note_on,,0.0,42.0,0.0,15212,39.61458333333333
538,9.0,,,,51.0,,,,,52,note_on,,112.0,51.0,112.0,15264,39.75
539,9.0,,,,42.0,,,,,0,note_on,,88.0,42.0,88.0,15264,39.75
540,9.0,,,,51.0,,,,,44,note_on,,0.0,51.0,0.0,15308,39.86458333333333
541,9.0,,,,42.0,,,,,0,note_on,,0.0,42.0,0.0,15308,39.86458333333333
542,9.0,,,,35.0,,,,,4,note_on,,112.0,35.0,112.0,15312,39.875
543,9.0,,,,35.0,,,,,44,note_on,,0.0,35.0,0.0,15356,39.98958333333333
544,9.0,,,,42.0,,,,,4,note_on,,88.0,42.0,88.0,15360,40.0
545,9.0,,,,35.0,,,,,0,note_on,,112.0,35.0,112.0,15360,40.0
546,9.0,,,,42.0,,,,,44,note_on,,0.0,42.0,0.0,15404,40.11458333333333
547,9.0,,,,35.0,,,,,0,note_on,,0.0,35.0,0.0,15404,40.11458333333333
548,9.0,,,,42.0,,,,,52,note_on,,88.0,42.0,88.0,15456,40.25
549,9.0,,,,35.0,,,,,0,note_on,,112.0,35.0,112.0,15456,40.25
550,9.0,,,,35.0,,,,,44,note_on,,0.0,35.0,0.0,15500,40.36458333333333
551,9.0,,,,42.0,,,,,0,note_on,,0.0,42.0,0.0,15500,40.36458333333333
552,9.0,,,,35.0,,,,,52,note_on,,112.0,35.0,112.0,15552,40.5
553,9.0,,,,40.0,,,,,0,note_on,,112.0,40.0,112.0,15552,40.5
554,9.0,,,,51.0,,,,,0,note_on,,112.0,51.0,112.0,15552,40.5
555,9.0,,,,42.0,,,,,0,note_on,,88.0,42.0,88.0,15552,40.5
556,9.0,,,,51.0,,,,,44,note_on,,0.0,51.0,0.0,15596,40.61458333333333
557,9.0,,,,35.0,,,,,0,note_on,,0.0,35.0,0.0,15596,40.61458333333333
558,9.0,,,,42.0,,,,,0,note_on,,0.0,42.0,0.0,15596,40.61458333333333
559,9.0,,,,40.0,,,,,0,note_on,,0.0,40.0,0.0,15596,40.61458333333333
560,9.0,,,,42.0,,,,,52,note_on,,88.0,42.0,88.0,15648,40.75
561,9.0,,,,42.0,,,,,44,note_on,,0.0,42.0,0.0,15692,40.86458333333333
562,9.0,,,,42.0,,,,,52,note_on,,88.0,42.0,88.0,15744,41.0
563,9.0,,,,35.0,,,,,0,note_on,,112.0,35.0,112.0,15744,41.0
564,9.0,,,,35.0,,,,,44,note_on,,0.0,35.0,0.0,15788,41.11458333333333
565,9.0,,,,42.0,,,,,0,note_on,,0.0,42.0,0.0,15788,41.11458333333333
566,9.0,,,,42.0,,,,,52,note_on,,88.0,42.0,88.0,15840,41.25
567,9.0,,,,35.0,,,,,0,note_on,,112.0,35.0,112.0,15840,41.25
568,9.0,,,,35.0,,,,,44,note_on,,0.0,35.0,0.0,15884,41.36458333333333
569,9.0,,,,42.0,,,,,0,note_on,,0.0,42.0,0.0,15884,41.36458333333333
570,9.0,,,,35.0,,,,,52,note_on,,112.0,35.0,112.0,15936,41.5
571,9.0,,,,40.0,,,,,0,note_on,,112.0,40.0,112.0,15936,41.5
572,9.0,,,,42.0,,,,,0,note_on,,88.0,42.0,88.0,15936,41.5
573,9.0,,,,51.0,,,,,0,note_on,,112.0,51.0,112.0,15936,41.5
574,9.0,,,,40.0,,,,,44,note_on,,0.0,40.0,0.0,15980,41.61458333333333
575,9.0,,,,42.0,,,,,0,note_on,,0.0,42.0,0.0,15980,41.61458333333333
576,9.0,,,,51.0,,,,,0,note_on,,0.0,51.0,0.0,15980,41.61458333333333
577,9.0,,,,35.0,,,,,0,note_on,,0.0,35.0,0.0,15980,41.61458333333333
578,9.0,,,,51.0,,,,,52,note_on,,112.0,51.0,112.0,16032,41.75
579,9.0,,,,42.0,,,,,0,note_on,,88.0,42.0,88.0,16032,41.75
580,9.0,,,,51.0,,,,,44,note_on,,0.0,51.0,0.0,16076,41.86458333333333
581,9.0,,,,42.0,,,,,0,note_on,,0.0,42.0,0.0,16076,41.86458333333333
582,9.0,,,,35.0,,,,,4,note_on,,112.0,35.0,112.0,16080,41.875
583,9.0,,,,35.0,,,,,44,note_on,,0.0,35.0,0.0,16124,41.98958333333333
584,9.0,,,,35.0,,,,,4,note_on,,112.0,35.0,112.0,16128,42.0
585,9.0,,,,42.0,,,,,0,note_on,,88.0,42.0,88.0,16128,42.0
586,9.0,,,,42.0,,,,,44,note_on,,0.0,42.0,0.0,16172,42.11458333333333
587,9.0,,,,35.0,,,,,0,note_on,,0.0,35.0,0.0,16172,42.11458333333333
588,9.0,,,,42.0,,,,,52,note_on,,88.0,42.0,88.0,16224,42.25
589,9.0,,,,35.0,,,,,0,note_on,,112.0,35.0,112.0,16224,42.25
590,9.0,,,,42.0,,,,,44,note_on,,0.0,42.0,0.0,16268,42.36458333333333
591,9.0,,,,35.0,,,,,0,note_on,,0.0,35.0,0.0,16268,42.36458333333333
592,9.0,,,,42.0,,,,,52,note_on,,88.0,42.0,88.0,16320,42.5
593,9.0,,,,35.0,,,,,0,note_on,,112.0,35.0,112.0,16320,42.5
594,9.0,,,,51.0,,,,,0,note_on,,112.0,51.0,112.0,16320,42.5
595,9.0,,,,40.0,,,,,0,note_on,,112.0,40.0,112.0,16320,42.5
596,9.0,,,,35.0,,,,,44,note_on,,0.0,35.0,0.0,16364,42.61458333333333
597,9.0,,,,40.0,,,,,0,note_on,,0.0,40.0,0.0,16364,42.61458333333333
598,9.0,,,,51.0,,,,,0,note_on,,0.0,51.0,0.0,16364,42.61458333333333
599,9.0,,,,42.0,,,,,0,note_on,,0.0,42.0,0.0,16364,42.61458333333333
600,9.0,,,,42.0,,,,,52,note_on,,88.0,42.0,88.0,16416,42.75
601,9.0,,,,42.0,,,,,44,note_on,,0.0,42.0,0.0,16460,42.86458333333333
602,9.0,,,,42.0,,,,,52,note_on,,88.0,42.0,88.0,16512,43.0
603,9.0,,,,35.0,,,,,0,note_on,,112.0,35.0,112.0,16512,43.0
604,9.0,,,,42.0,,,,,44,note_on,,0.0,42.0,0.0,16556,43.11458333333333
605,9.0,,,,35.0,,,,,0,note_on,,0.0,35.0,0.0,16556,43.11458333333333
606,9.0,,,,35.0,,,,,52,note_on,,112.0,35.0,112.0,16608,43.25
607,9.0,,,,42.0,,,,,0,note_on,,88.0,42.0,88.0,16608,43.25
608,9.0,,,,42.0,,,,,44,note_on,,0.0,42.0,0.0,16652,43.36458333333333
609,9.0,,,,35.0,,,,,0,note_on,,0.0,35.0,0.0,16652,43.36458333333333
610,9.0,,,,35.0,,,,,52,note_on,,112.0,35.0,112.0,16704,43.5
611,9.0,,,,51.0,,,,,0,note_on,,112.0,51.0,112.0,16704,43.5
612,9.0,,,,40.0,,,,,0,note_on,,112.0,40.0,112.0,16704,43.5
613,9.0,,,,42.0,,,,,0,note_on,,88.0,42.0,88.0,16704,43.5
614,9.0,,,,51.0,,,,,44,note_on,,0.0,51.0,0.0,16748,43.61458333333333
615,9.0,,,,42.0,,,,,0,note_on,,0.0,42.0,0.0,16748,43.61458333333333
616,9.0,,,,35.0,,,,,0,note_on,,0.0,35.0,0.0,16748,43.61458333333333
617,9.0,,,,40.0,,,,,0,note_on,,0.0,40.0,0.0,16748,43.61458333333333
618,9.0,,,,51.0,,,,,52,note_on,,112.0,51.0,112.0,16800,43.75
619,9.0,,,,42.0,,,,,0,note_on,,88.0,42.0,88.0,16800,43.75
620,9.0,,,,42.0,,,,,44,note_on,,0.0,42.0,0.0,16844,43.86458333333333
621,9.0,,,,51.0,,,,,0,note_on,,0.0,51.0,0.0,16844,43.86458333333333
622,9.0,,,,35.0,,,,,4,note_on,,112.0,35.0,112.0,16848,43.875
623,9.0,,,,35.0,,,,,44,note_on,,0.0,35.0,0.0,16892,43.98958333333333
624,9.0,,,,35.0,,,,,4,note_on,,112.0,35.0,112.0,16896,44.0
625,9.0,,,,42.0,,,,,0,note_on,,88.0,42.0,88.0,16896,44.0
626,9.0,,,,42.0,,,,,44,note_on,,0.0,42.0,0.0,16940,44.11458333333333
627,9.0,,,,35.0,,,,,0,note_on,,0.0,35.0,0.0,16940,44.11458333333333
628,9.0,,,,42.0,,,,,52,note_on,,88.0,42.0,88.0,16992,44.25
629,9.0,,,,35.0,,,,,0,note_on,,112.0,35.0,112.0,16992,44.25
630,9.0,,,,42.0,,,,,44,note_on,,0.0,42.0,0.0,17036,44.36458333333333
631,9.0,,,,35.0,,,,,0,note_on,,0.0,35.0,0.0,17036,44.36458333333333
632,9.0,,,,40.0,,,,,52,note_on,,112.0,40.0,112.0,17088,44.5
633,9.0,,,,42.0,,,,,0,note_on,,88.0,42.0,88.0,17088,44.5
634,9.0,,,,35.0,,,,,0,note_on,,112.0,35.0,112.0,17088,44.5
635,9.0,,,,51.0,,,,,0,note_on,,112.0,51.0,112.0,17088,44.5
636,9.0,,,,40.0,,,,,44,note_on,,0.0,40.0,0.0,17132,44.61458333333333
637,9.0,,,,42.0,,,,,0,note_on,,0.0,42.0,0.0,17132,44.61458333333333
638,9.0,,,,51.0,,,,,0,note_on,,0.0,51.0,0.0,17132,44.61458333333333
639,9.0,,,,35.0,,,,,0,note_on,,0.0,35.0,0.0,17132,44.61458333333333
640,9.0,,,,42.0,,,,,52,note_on,,88.0,42.0,88.0,17184,44.75
641,9.0,,,,42.0,,,,,44,note_on,,0.0,42.0,0.0,17228,44.86458333333333
642,9.0,,,,42.0,,,,,52,note_on,,88.0,42.0,88.0,17280,45.0
643,9.0,,,,35.0,,,,,0,note_on,,112.0,35.0,112.0,17280,45.0
644,9.0,,,,35.0,,,,,44,note_on,,0.0,35.0,0.0,17324,45.11458333333333
645,9.0,,,,42.0,,,,,0,note_on,,0.0,42.0,0.0,17324,45.11458333333333
646,9.0,,,,42.0,,,,,52,note_on,,88.0,42.0,88.0,17376,45.25
647,9.0,,,,35.0,,,,,0,note_on,,112.0,35.0,112.0,17376,45.25
648,9.0,,,,35.0,,,,,44,note_on,,0.0,35.0,0.0,17420,45.36458333333333
649,9.0,,,,42.0,,,,,0,note_on,,0.0,42.0,0.0,17420,45.36458333333333
650,9.0,,,,35.0,,,,,52,note_on,,112.0,35.0,112.0,17472,45.5
651,9.0,,,,51.0,,,,,0,note_on,,112.0,51.0,112.0,17472,45.5
652,9.0,,,,40.0,,,,,0,note_on,,112.0,40.0,112.0,17472,45.5
653,9.0,,,,42.0,,,,,0,note_on,,88.0,42.0,88.0,17472,45.5
654,9.0,,,,35.0,,,,,44,note_on,,0.0,35.0,0.0,17516,45.61458333333333
655,9.0,,,,51.0,,,,,0,note_on,,0.0,51.0,0.0,17516,45.61458333333333
656,9.0,,,,42.0,,,,,0,note_on,,0.0,42.0,0.0,17516,45.61458333333333
657,9.0,,,,40.0,,,,,0,note_on,,0.0,40.0,0.0,17516,45.61458333333333
658,9.0,,,,42.0,,,,,52,note_on,,88.0,42.0,88.0,17568,45.75
659,9.0,,,,51.0,,,,,0,note_on,,112.0,51.0,112.0,17568,45.75
660,9.0,,,,51.0,,,,,44,note_on,,0.0,51.0,0.0,17612,45.86458333333333
661,9.0,,,,42.0,,,,,0,note_on,,0.0,42.0,0.0,17612,45.86458333333333
662,9.0,,,,35.0,,,,,4,note_on,,112.0,35.0,112.0,17616,45.875
663,9.0,,,,35.0,,,,,44,note_on,,0.0,35.0,0.0,17660,45.98958333333333
664,9.0,,,,42.0,,,,,4,note_on,,88.0,42.0,88.0,17664,46.0
665,9.0,,,,35.0,,,,,0,note_on,,112.0,35.0,112.0,17664,46.0
666,9.0,,,,42.0,,,,,44,note_on,,0.0,42.0,0.0,17708,46.11458333333333
667,9.0,,,,35.0,,,,,0,note_on,,0.0,35.0,0.0,17708,46.11458333333333
668,9.0,,,,42.0,,,,,52,note_on,,88.0,42.0,88.0,17760,46.25
669,9.0,,,,35.0,,,,,0,note_on,,112.0,35.0,112.0,17760,46.25
670,9.0,,,,42.0,,,,,44,note_on,,0.0,42.0,0.0,17804,46.36458333333333
671,9.0,,,,35.0,,,,,0,note_on,,0.0,35.0,0.0,17804,46.36458333333333
672,9.0,,,,40.0,,,,,52,note_on,,112.0,40.0,112.0,17856,46.5
673,9.0,,,,51.0,,,,,0,note_on,,112.0,51.0,112.0,17856,46.5
674,9.0,,,,42.0,,,,,0,note_on,,88.0,42.0,88.0,17856,46.5
675,9.0,,,,35.0,,,,,0,note_on,,112.0,35.0,112.0,17856,46.5
676,9.0,,,,51.0,,,,,44,note_on,,0.0,51.0,0.0,17900,46.61458333333333
677,9.0,,,,40.0,,,,,0,note_on,,0.0,40.0,0.0,17900,46.61458333333333
678,9.0,,,,35.0,,,,,0,note_on,,0.0,35.0,0.0,17900,46.61458333333333
679,9.0,,,,42.0,,,,,0,note_on,,0.0,42.0,0.0,17900,46.61458333333333
680,9.0,,,,42.0,,,,,52,note_on,,88.0,42.0,88.0,17952,46.75
681,9.0,,,,42.0,,,,,44,note_on,,0.0,42.0,0.0,17996,46.86458333333333
682,9.0,,,,42.0,,,,,52,note_on,,88.0,42.0,88.0,18048,47.0
683,9.0,,,,35.0,,,,,0,note_on,,112.0,35.0,112.0,18048,47.0
684,9.0,,,,35.0,,,,,44,note_on,,0.0,35.0,0.0,18092,47.11458333333333
685,9.0,,,,42.0,,,,,0,note_on,,0.0,42.0,0.0,18092,47.11458333333333
686,9.0,,,,35.0,,,,,52,note_on,,112.0,35.0,112.0,18144,47.25
687,9.0,,,,42.0,,,,,0,note_on,,88.0,42.0,88.0,18144,47.25
688,9.0,,,,35.0,,,,,44,note_on,,0.0,35.0,0.0,18188,47.36458333333333
689,9.0,,,,42.0,,,,,0,note_on,,0.0,42.0,0.0,18188,47.36458333333333
690,9.0,,,,42.0,,,,,52,note_on,,88.0,42.0,88.0,18240,47.5
691,9.0,,,,40.0,,,,,0,note_on,,112.0,40.0,112.0,18240,47.5
692,9.0,,,,35.0,,,,,0,note_on,,112.0,35.0,112.0,18240,47.5
693,9.0,,,,51.0,,,,,0,note_on,,112.0,51.0,112.0,18240,47.5
694,9.0,,,,42.0,,,,,44,note_on,,0.0,42.0,0.0,18284,47.61458333333333
695,9.0,,,,40.0,,,,,0,note_on,,0.0,40.0,0.0,18284,47.61458333333333
696,9.0,,,,35.0,,,,,0,note_on,,0.0,35.0,0.0,18284,47.61458333333333
697,9.0,,,,51.0,,,,,0,note_on,,0.0,51.0,0.0,18284,47.61458333333333
698,9.0,,,,51.0,,,,,52,note_on,,112.0,51.0,112.0,18336,47.75
699,9.0,,,,42.0,,,,,0,note_on,,88.0,42.0,88.0,18336,47.75
700,9.0,,,,51.0,,,,,44,note_on,,0.0,51.0,0.0,18380,47.86458333333333
701,9.0,,,,42.0,,,,,0,note_on,,0.0,42.0,0.0,18380,47.86458333333333
702,9.0,,,,35.0,,,,,4,note_on,,112.0,35.0,112.0,18384,47.875
703,9.0,,,,35.0,,,,,44,note_on,,0.0,35.0,0.0,18428,47.98958333333333
704,9.0,,,,42.0,,,,,4,note_on,,88.0,42.0,88.0,18432,48.0
705,9.0,,,,35.0,,,,,0,note_on,,112.0,35.0,112.0,18432,48.0
706,9.0,,,,42.0,,,,,44,note_on,,0.0,42.0,0.0,18476,48.11458333333333
707,9.0,,,,35.0,,,,,0,note_on,,0.0,35.0,0.0,18476,48.11458333333333
708,9.0,,,,42.0,,,,,52,note_on,,88.0,42.0,88.0,18528,48.25
709,9.0,,,,35.0,,,,,0,note_on,,112.0,35.0,112.0,18528,48.25
710,9.0,,,,35.0,,,,,44,note_on,,0.0,35.0,0.0,18572,48.36458333333333
711,9.0,,,,42.0,,,,,0,note_on,,0.0,42.0,0.0,18572,48.36458333333333
712,9.0,,,,42.0,,,,,52,note_on,,88.0,42.0,88.0,18624,48.5
713,9.0,,,,40.0,,,,,0,note_on,,112.0,40.0,112.0,18624,48.5
714,9.0,,,,35.0,,,,,0,note_on,,112.0,35.0,112.0,18624,48.5
715,9.0,,,,51.0,,,,,0,note_on,,112.0,51.0,112.0,18624,48.5
716,9.0,,,,35.0,,,,,44,note_on,,0.0,35.0,0.0,18668,48.61458333333333
717,9.0,,,,42.0,,,,,0,note_on,,0.0,42.0,0.0,18668,48.61458333333333
718,9.0,,,,51.0,,,,,0,note_on,,0.0,51.0,0.0,18668,48.61458333333333
719,9.0,,,,40.0,,,,,0,note_on,,0.0,40.0,0.0,18668,48.61458333333333
720,9.0,,,,42.0,,,,,52,note_on,,88.0,42.0,88.0,18720,48.75
721,9.0,,,,42.0,,,,,44,note_on,,0.0,42.0,0.0,18764,48.86458333333333
722,9.0,,,,40.0,,,,,52,note_on,,112.0,40.0,112.0,18816,49.0
723,9.0,,,,40.0,,,,,44,note_on,,0.0,40.0,0.0,18860,49.11458333333333
724,9.0,,,,48.0,,,,,4,note_on,,112.0,48.0,112.0,18864,49.125
725,9.0,,,,48.0,,,,,44,note_on,,0.0,48.0,0.0,18908,49.23958333333333
726,9.0,,,,40.0,,,,,52,note_on,,112.0,40.0,112.0,18960,49.375
727,9.0,,,,40.0,,,,,44,note_on,,0.0,40.0,0.0,19004,49.48958333333333
728,9.0,,,,40.0,,,,,4,note_on,,112.0,40.0,112.0,19008,49.5
729,9.0,,,,40.0,,,,,44,note_on,,0.0,40.0,0.0,19052,49.61458333333333
730,9.0,,,,36.0,,,,,52,note_on,,112.0,36.0,112.0,19104,49.75
731,9.0,,,,36.0,,,,,44,note_on,,0.0,36.0,0.0,19148,49.86458333333333
732,9.0,,,,42.0,,,,,52,note_on,,88.0,42.0,88.0,19200,50.0
733,9.0,,,,49.0,,,,,0,note_on,,112.0,49.0,112.0,19200,50.0
734,9.0,,,,35.0,,,,,0,note_on,,112.0,35.0,112.0,19200,50.0
735,9.0,,,,35.0,,,,,44,note_on,,0.0,35.0,0.0,19244,50.11458333333333
736,9.0,,,,49.0,,,,,0,note_on,,0.0,49.0,0.0,19244,50.11458333333333
737,9.0,,,,42.0,,,,,0,note_on,,0.0,42.0,0.0,19244,50.11458333333333
738,9.0,,,,42.0,,,,,52,note_on,,88.0,42.0,88.0,19296,50.25
739,9.0,,,,35.0,,,,,0,note_on,,112.0,35.0,112.0,19296,50.25
740,9.0,,,,42.0,,,,,44,note_on,,0.0,42.0,0.0,19340,50.36458333333333
741,9.0,,,,35.0,,,,,0,note_on,,0.0,35.0,0.0,19340,50.36458333333333
742,9.0,,,,51.0,,,,,52,note_on,,112.0,51.0,112.0,19392,50.5
743,9.0,,,,40.0,,,,,0,note_on,,112.0,40.0,112.0,19392,50.5
744,9.0,,,,35.0,,,,,0,note_on,,112.0,35.0,112.0,19392,50.5
745,9.0,,,,42.0,,,,,0,note_on,,88.0,42.0,88.0,19392,50.5
746,9.0,,,,35.0,,,,,44,note_on,,0.0,35.0,0.0,19436,50.61458333333333
747,9.0,,,,51.0,,,,,0,note_on,,0.0,51.0,0.0,19436,50.61458333333333
748,9.0,,,,42.0,,,,,0,note_on,,0.0,42.0,0.0,19436,50.61458333333333
749,9.0,,,,40.0,,,,,0,note_on,,0.0,40.0,0.0,19436,50.61458333333333
750,9.0,,,,42.0,,,,,52,note_on,,88.0,42.0,88.0,19488,50.75
751,9.0,,,,42.0,,,,,44,note_on,,0.0,42.0,0.0,19532,50.86458333333333
752,9.0,,,,42.0,,,,,52,note_on,,88.0,42.0,88.0,19584,51.0
753,9.0,,,,35.0,,,,,0,note_on,,112.0,35.0,112.0,19584,51.0
754,9.0,,,,35.0,,,,,44,note_on,,0.0,35.0,0.0,19628,51.11458333333333
755,9.0,,,,42.0,,,,,0,note_on,,0.0,42.0,0.0,19628,51.11458333333333
756,9.0,,,,42.0,,,,,52,note_on,,88.0,42.0,88.0,19680,51.25
757,9.0,,,,35.0,,,,,0,note_on,,112.0,35.0,112.0,19680,51.25
758,9.0,,,,42.0,,,,,44,note_on,,0.0,42.0,0.0,19724,51.36458333333333
759,9.0,,,,35.0,,,,,0,note_on,,0.0,35.0,0.0,19724,51.36458333333333
760,9.0,,,,42.0,,,,,52,note_on,,88.0,42.0,88.0,19776,51.5
761,9.0,,,,51.0,,,,,0,note_on,,112.0,51.0,112.0,19776,51.5
762,9.0,,,,40.0,,,,,0,note_on,,112.0,40.0,112.0,19776,51.5
763,9.0,,,,35.0,,,,,0,note_on,,112.0,35.0,112.0,19776,51.5
764,9.0,,,,35.0,,,,,44,note_on,,0.0,35.0,0.0,19820,51.61458333333333
765,9.0,,,,40.0,,,,,0,note_on,,0.0,40.0,0.0,19820,51.61458333333333
766,9.0,,,,51.0,,,,,0,note_on,,0.0,51.0,0.0,19820,51.61458333333333
767,9.0,,,,42.0,,,,,0,note_on,,0.0,42.0,0.0,19820,51.61458333333333
768,9.0,,,,42.0,,,,,52,note_on,,88.0,42.0,88.0,19872,51.75
769,9.0,,,,51.0,,,,,0,note_on,,112.0,51.0,112.0,19872,51.75
770,9.0,,,,51.0,,,,,44,note_on,,0.0,51.0,0.0,19916,51.86458333333333
771,9.0,,,,42.0,,,,,0,note_on,,0.0,42.0,0.0,19916,51.86458333333333
772,9.0,,,,35.0,,,,,4,note_on,,112.0,35.0,112.0,19920,51.875
773,9.0,,,,35.0,,,,,44,note_on,,0.0,35.0,0.0,19964,51.98958333333333
774,9.0,,,,42.0,,,,,4,note_on,,88.0,42.0,88.0,19968,52.0
775,9.0,,,,35.0,,,,,0,note_on,,112.0,35.0,112.0,19968,52.0
776,9.0,,,,42.0,,,,,44,note_on,,0.0,42.0,0.0,20012,52.11458333333333
777,9.0,,,,35.0,,,,,0,note_on,,0.0,35.0,0.0,20012,52.11458333333333
778,9.0,,,,35.0,,,,,52,note_on,,112.0,35.0,112.0,20064,52.25
779,9.0,,,,42.0,,,,,0,note_on,,88.0,42.0,88.0,20064,52.25
780,9.0,,,,42.0,,,,,44,note_on,,0.0,42.0,0.0,20108,52.36458333333333
781,9.0,,,,35.0,,,,,0,note_on,,0.0,35.0,0.0,20108,52.36458333333333
782,9.0,,,,35.0,,,,,52,note_on,,112.0,35.0,112.0,20160,52.5
783,9.0,,,,42.0,,,,,0,note_on,,88.0,42.0,88.0,20160,52.5
784,9.0,,,,40.0,,,,,0,note_on,,112.0,40.0,112.0,20160,52.5
785,9.0,,,,51.0,,,,,0,note_on,,112.0,51.0,112.0,20160,52.5
786,9.0,,,,40.0,,,,,44,note_on,,0.0,40.0,0.0,20204,52.61458333333333
787,9.0,,,,51.0,,,,,0,note_on,,0.0,51.0,0.0,20204,52.61458333333333
788,9.0,,,,35.0,,,,,0,note_on,,0.0,35.0,0.0,20204,52.61458333333333
789,9.0,,,,42.0,,,,,0,note_on,,0.0,42.0,0.0,20204,52.61458333333333
790,9.0,,,,42.0,,,,,52,note_on,,88.0,42.0,88.0,20256,52.75
791,9.0,,,,42.0,,,,,44,note_on,,0.0,42.0,0.0,20300,52.86458333333333
792,9.0,,,,42.0,,,,,52,note_on,,88.0,42.0,88.0,20352,53.0
793,9.0,,,,35.0,,,,,0,note_on,,112.0,35.0,112.0,20352,53.0
794,9.0,,,,35.0,,,,,44,note_on,,0.0,35.0,0.0,20396,53.11458333333333
795,9.0,,,,42.0,,,,,0,note_on,,0.0,42.0,0.0,20396,53.11458333333333
796,9.0,,,,35.0,,,,,52,note_on,,112.0,35.0,112.0,20448,53.25
797,9.0,,,,42.0,,,,,0,note_on,,88.0,42.0,88.0,20448,53.25
798,9.0,,,,42.0,,,,,44,note_on,,0.0,42.0,0.0,20492,53.36458333333333
799,9.0,,,,35.0,,,,,0,note_on,,0.0,35.0,0.0,20492,53.36458333333333
800,9.0,,,,42.0,,,,,52,note_on,,88.0,42.0,88.0,20544,53.5
801,9.0,,,,51.0,,,,,0,note_on,,112.0,51.0,112.0,20544,53.5
802,9.0,,,,35.0,,,,,0,note_on,,112.0,35.0,112.0,20544,53.5
803,9.0,,,,40.0,,,,,0,note_on,,112.0,40.0,112.0,20544,53.5
804,9.0,,,,40.0,,,,,44,note_on,,0.0,40.0,0.0,20588,53.61458333333333
805,9.0,,,,42.0,,,,,0,note_on,,0.0,42.0,0.0,20588,53.61458333333333
806,9.0,,,,51.0,,,,,0,note_on,,0.0,51.0,0.0,20588,53.61458333333333
807,9.0,,,,35.0,,,,,0,note_on,,0.0,35.0,0.0,20588,53.61458333333333
808,9.0,,,,42.0,,,,,52,note_on,,88.0,42.0,88.0,20640,53.75
809,9.0,,,,51.0,,,,,0,note_on,,112.0,51.0,112.0,20640,53.75
810,9.0,,,,51.0,,,,,44,note_on,,0.0,51.0,0.0,20684,53.86458333333333
811,9.0,,,,42.0,,,,,0,note_on,,0.0,42.0,0.0,20684,53.86458333333333
812,9.0,,,,35.0,,,,,4,note_on,,112.0,35.0,112.0,20688,53.875
813,9.0,,,,35.0,,,,,44,note_on,,0.0,35.0,0.0,20732,53.98958333333333
814,9.0,,,,42.0,,,,,4,note_on,,88.0,42.0,88.0,20736,54.0
815,9.0,,,,35.0,,,,,0,note_on,,112.0,35.0,112.0,20736,54.0
816,9.0,,,,35.0,,,,,44,note_on,,0.0,35.0,0.0,20780,54.11458333333333
817,9.0,,,,42.0,,,,,0,note_on,,0.0,42.0,0.0,20780,54.11458333333333
818,9.0,,,,42.0,,,,,52,note_on,,88.0,42.0,88.0,20832,54.25
819,9.0,,,,35.0,,,,,0,note_on,,112.0,35.0,112.0,20832,54.25
820,9.0,,,,42.0,,,,,44,note_on,,0.0,42.0,0.0,20876,54.36458333333333
821,9.0,,,,35.0,,,,,0,note_on,,0.0,35.0,0.0,20876,54.36458333333333
822,9.0,,,,40.0,,,,,52,note_on,,112.0,40.0,112.0,20928,54.5
823,9.0,,,,35.0,,,,,0,note_on,,112.0,35.0,112.0,20928,54.5
824,9.0,,,,42.0,,,,,0,note_on,,88.0,42.0,88.0,20928,54.5
825,9.0,,,,51.0,,,,,0,note_on,,112.0,51.0,112.0,20928,54.5
826,9.0,,,,42.0,,,,,44,note_on,,0.0,42.0,0.0,20972,54.61458333333333
827,9.0,,,,40.0,,,,,0,note_on,,0.0,40.0,0.0,20972,54.61458333333333
828,9.0,,,,35.0,,,,,0,note_on,,0.0,35.0,0.0,20972,54.61458333333333
829,9.0,,,,51.0,,,,,0,note_on,,0.0,51.0,0.0,20972,54.61458333333333
830,9.0,,,,42.0,,,,,52,note_on,,88.0,42.0,88.0,21024,54.75
831,9.0,,,,42.0,,,,,44,note_on,,0.0,42.0,0.0,21068,54.86458333333333
832,9.0,,,,42.0,,,,,52,note_on,,88.0,42.0,88.0,21120,55.0
833,9.0,,,,35.0,,,,,0,note_on,,112.0,35.0,112.0,21120,55.0
834,9.0,,,,42.0,,,,,44,note_on,,0.0,42.0,0.0,21164,55.11458333333333
835,9.0,,,,35.0,,,,,0,note_on,,0.0,35.0,0.0,21164,55.11458333333333
836,9.0,,,,35.0,,,,,52,note_on,,112.0,35.0,112.0,21216,55.25
837,9.0,,,,42.0,,,,,0,note_on,,88.0,42.0,88.0,21216,55.25
838,9.0,,,,42.0,,,,,44,note_on,,0.0,42.0,0.0,21260,55.36458333333333
839,9.0,,,,35.0,,,,,0,note_on,,0.0,35.0,0.0,21260,55.36458333333333
840,9.0,,,,35.0,,,,,52,note_on,,112.0,35.0,112.0,21312,55.5
841,9.0,,,,40.0,,,,,0,note_on,,112.0,40.0,112.0,21312,55.5
842,9.0,,,,42.0,,,,,0,note_on,,88.0,42.0,88.0,21312,55.5
843,9.0,,,,51.0,,,,,0,note_on,,112.0,51.0,112.0,21312,55.5
844,9.0,,,,51.0,,,,,44,note_on,,0.0,51.0,0.0,21356,55.61458333333333
845,9.0,,,,42.0,,,,,0,note_on,,0.0,42.0,0.0,21356,55.61458333333333
846,9.0,,,,40.0,,,,,0,note_on,,0.0,40.0,0.0,21356,55.61458333333333
847,9.0,,,,35.0,,,,,0,note_on,,0.0,35.0,0.0,21356,55.61458333333333
848,9.0,,,,51.0,,,,,52,note_on,,112.0,51.0,112.0,21408,55.75
849,9.0,,,,42.0,,,,,0,note_on,,88.0,42.0,88.0,21408,55.75
850,9.0,,,,42.0,,,,,44,note_on,,0.0,42.0,0.0,21452,55.86458333333333
851,9.0,,,,51.0,,,,,0,note_on,,0.0,51.0,0.0,21452,55.86458333333333
852,9.0,,,,35.0,,,,,4,note_on,,112.0,35.0,112.0,21456,55.875
853,9.0,,,,35.0,,,,,44,note_on,,0.0,35.0,0.0,21500,55.98958333333333
854,9.0,,,,35.0,,,,,4,note_on,,112.0,35.0,112.0,21504,56.0
855,9.0,,,,42.0,,,,,0,note_on,,88.0,42.0,88.0,21504,56.0
856,9.0,,,,42.0,,,,,44,note_on,,0.0,42.0,0.0,21548,56.11458333333333
857,9.0,,,,35.0,,,,,0,note_on,,0.0,35.0,0.0,21548,56.11458333333333
858,9.0,,,,35.0,,,,,52,note_on,,112.0,35.0,112.0,21600,56.25
859,9.0,,,,42.0,,,,,0,note_on,,88.0,42.0,88.0,21600,56.25
860,9.0,,,,35.0,,,,,44,note_on,,0.0,35.0,0.0,21644,56.36458333333333
861,9.0,,,,42.0,,,,,0,note_on,,0.0,42.0,0.0,21644,56.36458333333333
862,9.0,,,,35.0,,,,,52,note_on,,112.0,35.0,112.0,21696,56.5
863,9.0,,,,51.0,,,,,0,note_on,,112.0,51.0,112.0,21696,56.5
864,9.0,,,,42.0,,,,,0,note_on,,88.0,42.0,88.0,21696,56.5
865,9.0,,,,40.0,,,,,0,note_on,,112.0,40.0,112.0,21696,56.5
866,9.0,,,,42.0,,,,,44,note_on,,0.0,42.0,0.0,21740,56.61458333333333
867,9.0,,,,51.0,,,,,0,note_on,,0.0,51.0,0.0,21740,56.61458333333333
868,9.0,,,,35.0,,,,,0,note_on,,0.0,35.0,0.0,21740,56.61458333333333
869,9.0,,,,40.0,,,,,0,note_on,,0.0,40.0,0.0,21740,56.61458333333333
870,9.0,,,,42.0,,,,,52,note_on,,88.0,42.0,88.0,21792,56.75
871,9.0,,,,42.0,,,,,44,note_on,,0.0,42.0,0.0,21836,56.86458333333333
872,9.0,,,,42.0,,,,,52,note_on,,88.0,42.0,88.0,21888,57.0
873,9.0,,,,35.0,,,,,0,note_on,,112.0,35.0,112.0,21888,57.0
874,9.0,,,,42.0,,,,,44,note_on,,0.0,42.0,0.0,21932,57.11458333333333
875,9.0,,,,35.0,,,,,0,note_on,,0.0,35.0,0.0,21932,57.11458333333333
876,9.0,,,,35.0,,,,,52,note_on,,112.0,35.0,112.0,21984,57.25
877,9.0,,,,42.0,,,,,0,note_on,,88.0,42.0,88.0,21984,57.25
878,9.0,,,,35.0,,,,,44,note_on,,0.0,35.0,0.0,22028,57.36458333333333
879,9.0,,,,42.0,,,,,0,note_on,,0.0,42.0,0.0,22028,57.36458333333333
880,9.0,,,,42.0,,,,,52,note_on,,88.0,42.0,88.0,22080,57.5
881,9.0,,,,40.0,,,,,0,note_on,,112.0,40.0,112.0,22080,57.5
882,9.0,,,,51.0,,,,,0,note_on,,112.0,51.0,112.0,22080,57.5
883,9.0,,,,35.0,,,,,0,note_on,,112.0,35.0,112.0,22080,57.5
884,9.0,,,,35.0,,,,,44,note_on,,0.0,35.0,0.0,22124,57.61458333333333
885,9.0,,,,42.0,,,,,0,note_on,,0.0,42.0,0.0,22124,57.61458333333333
886,9.0,,,,40.0,,,,,0,note_on,,0.0,40.0,0.0,22124,57.61458333333333
887,9.0,,,,51.0,,,,,0,note_on,,0.0,51.0,0.0,22124,57.61458333333333
888,9.0,,,,51.0,,,,,52,note_on,,112.0,51.0,112.0,22176,57.75
889,9.0,,,,42.0,,,,,0,note_on,,88.0,42.0,88.0,22176,57.75
890,9.0,,,,51.0,,,,,44,note_on,,0.0,51.0,0.0,22220,57.86458333333333
891,9.0,,,,42.0,,,,,0,note_on,,0.0,42.0,0.0,22220,57.86458333333333
892,9.0,,,,35.0,,,,,4,note_on,,112.0,35.0,112.0,22224,57.875
893,9.0,,,,35.0,,,,,44,note_on,,0.0,35.0,0.0,22268,57.98958333333333
894,9.0,,,,35.0,,,,,4,note_on,,112.0,35.0,112.0,22272,58.0
895,9.0,,,,42.0,,,,,0,note_on,,88.0,42.0,88.0,22272,58.0
896,9.0,,,,35.0,,,,,44,note_on,,0.0,35.0,0.0,22316,58.11458333333333
897,9.0,,,,42.0,,,,,0,note_on,,0.0,42.0,0.0,22316,58.11458333333333
898,9.0,,,,42.0,,,,,52,note_on,,88.0,42.0,88.0,22368,58.25
899,9.0,,,,35.0,,,,,0,note_on,,112.0,35.0,112.0,22368,58.25
900,9.0,,,,42.0,,,,,44,note_on,,0.0,42.0,0.0,22412,58.36458333333333
901,9.0,,,,35.0,,,,,0,note_on,,0.0,35.0,0.0,22412,58.36458333333333
902,9.0,,,,51.0,,,,,52,note_on,,112.0,51.0,112.0,22464,58.5
903,9.0,,,,42.0,,,,,0,note_on,,88.0,42.0,88.0,22464,58.5
904,9.0,,,,35.0,,,,,0,note_on,,112.0,35.0,112.0,22464,58.5
905,9.0,,,,40.0,,,,,0,note_on,,112.0,40.0,112.0,22464,58.5
906,9.0,,,,51.0,,,,,44,note_on,,0.0,51.0,0.0,22508,58.61458333333333
907,9.0,,,,42.0,,,,,0,note_on,,0.0,42.0,0.0,22508,58.61458333333333
908,9.0,,,,40.0,,,,,0,note_on,,0.0,40.0,0.0,22508,58.61458333333333
909,9.0,,,,35.0,,,,,0,note_on,,0.0,35.0,0.0,22508,58.61458333333333
910,9.0,,,,42.0,,,,,52,note_on,,88.0,42.0,88.0,22560,58.75
911,9.0,,,,42.0,,,,,44,note_on,,0.0,42.0,0.0,22604,58.86458333333333
912,9.0,,,,35.0,,,,,52,note_on,,112.0,35.0,112.0,22656,59.0
913,9.0,,,,42.0,,,,,0,note_on,,88.0,42.0,88.0,22656,59.0
914,9.0,,,,35.0,,,,,44,note_on,,0.0,35.0,0.0,22700,59.11458333333333
915,9.0,,,,42.0,,,,,0,note_on,,0.0,42.0,0.0,22700,59.11458333333333
916,9.0,,,,42.0,,,,,52,note_on,,88.0,42.0,88.0,22752,59.25
917,9.0,,,,35.0,,,,,0,note_on,,112.0,35.0,112.0,22752,59.25
918,9.0,,,,42.0,,,,,44,note_on,,0.0,42.0,0.0,22796,59.36458333333333
919,9.0,,,,35.0,,,,,0,note_on,,0.0,35.0,0.0,22796,59.36458333333333
920,9.0,,,,42.0,,,,,52,note_on,,88.0,42.0,88.0,22848,59.5
921,9.0,,,,35.0,,,,,0,note_on,,112.0,35.0,112.0,22848,59.5
922,9.0,,,,40.0,,,,,0,note_on,,112.0,40.0,112.0,22848,59.5
923,9.0,,,,51.0,,,,,0,note_on,,112.0,51.0,112.0,22848,59.5
924,9.0,,,,35.0,,,,,44,note_on,,0.0,35.0,0.0,22892,59.61458333333333
925,9.0,,,,51.0,,,,,0,note_on,,0.0,51.0,0.0,22892,59.61458333333333
926,9.0,,,,40.0,,,,,0,note_on,,0.0,40.0,0.0,22892,59.61458333333333
927,9.0,,,,42.0,,,,,0,note_on,,0.0,42.0,0.0,22892,59.61458333333333
928,9.0,,,,42.0,,,,,52,note_on,,88.0,42.0,88.0,22944,59.75
929,9.0,,,,51.0,,,,,0,note_on,,112.0,51.0,112.0,22944,59.75
930,9.0,,,,51.0,,,,,44,note_on,,0.0,51.0,0.0,22988,59.86458333333333
931,9.0,,,,42.0,,,,,0,note_on,,0.0,42.0,0.0,22988,59.86458333333333
932,9.0,,,,35.0,,,,,4,note_on,,112.0,35.0,112.0,22992,59.875
933,9.0,,,,35.0,,,,,44,note_on,,0.0,35.0,0.0,23036,59.98958333333333
934,9.0,,,,42.0,,,,,4,note_on,,88.0,42.0,88.0,23040,60.0
935,9.0,,,,35.0,,,,,0,note_on,,112.0,35.0,112.0,23040,60.0
936,9.0,,,,42.0,,,,,44,note_on,,0.0,42.0,0.0,23084,60.11458333333333
937,9.0,,,,35.0,,,,,0,note_on,,0.0,35.0,0.0,23084,60.11458333333333
938,9.0,,,,42.0,,,,,52,note_on,,88.0,42.0,88.0,23136,60.25
939,9.0,,,,35.0,,,,,0,note_on,,112.0,35.0,112.0,23136,60.25
940,9.0,,,,42.0,,,,,44,note_on,,0.0,42.0,0.0,23180,60.36458333333333
941,9.0,,,,35.0,,,,,0,note_on,,0.0,35.0,0.0,23180,60.36458333333333
942,9.0,,,,40.0,,,,,52,note_on,,112.0,40.0,112.0,23232,60.5
943,9.0,,,,35.0,,,,,0,note_on,,112.0,35.0,112.0,23232,60.5
944,9.0,,,,51.0,,,,,0,note_on,,112.0,51.0,112.0,23232,60.5
945,9.0,,,,42.0,,,,,0,note_on,,88.0,42.0,88.0,23232,60.5
946,9.0,,,,35.0,,,,,44,note_on,,0.0,35.0,0.0,23276,60.61458333333333
947,9.0,,,,51.0,,,,,0,note_on,,0.0,51.0,0.0,23276,60.61458333333333
948,9.0,,,,40.0,,,,,0,note_on,,0.0,40.0,0.0,23276,60.61458333333333
949,9.0,,,,42.0,,,,,0,note_on,,0.0,42.0,0.0,23276,60.61458333333333
950,9.0,,,,42.0,,,,,52,note_on,,88.0,42.0,88.0,23328,60.75
951,9.0,,,,42.0,,,,,44,note_on,,0.0,42.0,0.0,23372,60.86458333333333
952,9.0,,,,35.0,,,,,52,note_on,,112.0,35.0,112.0,23424,61.0
953,9.0,,,,42.0,,,,,0,note_on,,88.0,42.0,88.0,23424,61.0
954,9.0,,,,42.0,,,,,44,note_on,,0.0,42.0,0.0,23468,61.11458333333333
955,9.0,,,,35.0,,,,,0,note_on,,0.0,35.0,0.0,23468,61.11458333333333
956,9.0,,,,35.0,,,,,52,note_on,,112.0,35.0,112.0,23520,61.25
957,9.0,,,,42.0,,,,,0,note_on,,88.0,42.0,88.0,23520,61.25
958,9.0,,,,42.0,,,,,44,note_on,,0.0,42.0,0.0,23564,61.36458333333333
959,9.0,,,,35.0,,,,,0,note_on,,0.0,35.0,0.0,23564,61.36458333333333
960,9.0,,,,40.0,,,,,52,note_on,,112.0,40.0,112.0,23616,61.5
961,9.0,,,,42.0,,,,,0,note_on,,88.0,42.0,88.0,23616,61.5
962,9.0,,,,51.0,,,,,0,note_on,,112.0,51.0,112.0,23616,61.5
963,9.0,,,,35.0,,,,,0,note_on,,112.0,35.0,112.0,23616,61.5
964,9.0,,,,35.0,,,,,44,note_on,,0.0,35.0,0.0,23660,61.61458333333333
965,9.0,,,,40.0,,,,,0,note_on,,0.0,40.0,0.0,23660,61.61458333333333
966,9.0,,,,51.0,,,,,0,note_on,,0.0,51.0,0.0,23660,61.61458333333333
967,9.0,,,,42.0,,,,,0,note_on,,0.0,42.0,0.0,23660,61.61458333333333
968,9.0,,,,51.0,,,,,52,note_on,,112.0,51.0,112.0,23712,61.75
969,9.0,,,,42.0,,,,,0,note_on,,88.0,42.0,88.0,23712,61.75
970,9.0,,,,51.0,,,,,44,note_on,,0.0,51.0,0.0,23756,61.86458333333333
971,9.0,,,,42.0,,,,,0,note_on,,0.0,42.0,0.0,23756,61.86458333333333
972,9.0,,,,35.0,,,,,4,note_on,,112.0,35.0,112.0,23760,61.875
973,9.0,,,,35.0,,,,,44,note_on,,0.0,35.0,0.0,23804,61.98958333333333
974,9.0,,,,35.0,,,,,4,note_on,,112.0,35.0,112.0,23808,62.0
975,9.0,,,,42.0,,,,,0,note_on,,88.0,42.0,88.0,23808,62.0
976,9.0,,,,35.0,,,,,44,note_on,,0.0,35.0,0.0,23852,62.11458333333333
977,9.0,,,,42.0,,,,,0,note_on,,0.0,42.0,0.0,23852,62.11458333333333
978,9.0,,,,35.0,,,,,52,note_on,,112.0,35.0,112.0,23904,62.25
979,9.0,,,,42.0,,,,,0,note_on,,88.0,42.0,88.0,23904,62.25
980,9.0,,,,35.0,,,,,44,note_on,,0.0,35.0,0.0,23948,62.36458333333333
981,9.0,,,,42.0,,,,,0,note_on,,0.0,42.0,0.0,23948,62.36458333333333
982,9.0,,,,51.0,,,,,52,note_on,,112.0,51.0,112.0,24000,62.5
983,9.0,,,,35.0,,,,,0,note_on,,112.0,35.0,112.0,24000,62.5
984,9.0,,,,40.0,,,,,0,note_on,,112.0,40.0,112.0,24000,62.5
985,9.0,,,,42.0,,,,,0,note_on,,88.0,42.0,88.0,24000,62.5
986,9.0,,,,40.0,,,,,44,note_on,,0.0,40.0,0.0,24044,62.61458333333333
987,9.0,,,,51.0,,,,,0,note_on,,0.0,51.0,0.0,24044,62.61458333333333
988,9.0,,,,35.0,,,,,0,note_on,,0.0,35.0,0.0,24044,62.61458333333333
989,9.0,,,,42.0,,,,,0,note_on,,0.0,42.0,0.0,24044,62.61458333333333
990,9.0,,,,42.0,,,,,52,note_on,,88.0,42.0,88.0,24096,62.75
991,9.0,,,,42.0,,,,,44,note_on,,0.0,42.0,0.0,24140,62.86458333333333
992,9.0,,,,35.0,,,,,52,note_on,,112.0,35.0,112.0,24192,63.0
993,9.0,,,,42.0,,,,,0,note_on,,88.0,42.0,88.0,24192,63.0
994,9.0,,,,42.0,,,,,44,note_on,,0.0,42.0,0.0,24236,63.11458333333333
995,9.0,,,,35.0,,,,,0,note_on,,0.0,35.0,0.0,24236,63.11458333333333
996,9.0,,,,42.0,,,,,52,note_on,,88.0,42.0,88.0,24288,63.25
997,9.0,,,,35.0,,,,,0,note_on,,112.0,35.0,112.0,24288,63.25
998,9.0,,,,42.0,,,,,44,note_on,,0.0,42.0,0.0,24332,63.36458333333333
999,9.0,,,,35.0,,,,,0,note_on,,0.0,35.0,0.0,24332,63.36458333333333
1000,9.0,,,,40.0,,,,,52,note_on,,112.0,40.0,112.0,24384,63.5
1001,9.0,,,,35.0,,,,,0,note_on,,112.0,35.0,112.0,24384,63.5
1002,9.0,,,,51.0,,,,,0,note_on,,112.0,51.0,112.0,24384,63.5
1003,9.0,,,,42.0,,,,,0,note_on,,88.0,42.0,88.0,24384,63.5
1004,9.0,,,,42.0,,,,,44,note_on,,0.0,42.0,0.0,24428,63.61458333333333
1005,9.0,,,,51.0,,,,,0,note_on,,0.0,51.0,0.0,24428,63.61458333333333
1006,9.0,,,,35.0,,,,,0,note_on,,0.0,35.0,0.0,24428,63.61458333333333
1007,9.0,,,,40.0,,,,,0,note_on,,0.0,40.0,0.0,24428,63.61458333333333
1008,9.0,,,,42.0,,,,,52,note_on,,88.0,42.0,88.0,24480,63.75
1009,9.0,,,,51.0,,,,,0,note_on,,112.0,51.0,112.0,24480,63.75
1010,9.0,,,,42.0,,,,,44,note_on,,0.0,42.0,0.0,24524,63.86458333333333
1011,9.0,,,,51.0,,,,,0,note_on,,0.0,51.0,0.0,24524,63.86458333333333
1012,9.0,,,,35.0,,,,,4,note_on,,112.0,35.0,112.0,24528,63.875
1013,9.0,,,,35.0,,,,,44,note_on,,0.0,35.0,0.0,24572,63.98958333333333
1014,9.0,,,,35.0,,,,,4,note_on,,112.0,35.0,112.0,24576,64.0
1015,9.0,,,,42.0,,,,,0,note_on,,88.0,42.0,88.0,24576,64.0
1016,9.0,,,,35.0,,,,,44,note_on,,0.0,35.0,0.0,24620,64.11458333333333
1017,9.0,,,,42.0,,,,,0,note_on,,0.0,42.0,0.0,24620,64.11458333333333
1018,9.0,,,,35.0,,,,,52,note_on,,112.0,35.0,112.0,24672,64.25
1019,9.0,,,,42.0,,,,,0,note_on,,88.0,42.0,88.0,24672,64.25
1020,9.0,,,,42.0,,,,,44,note_on,,0.0,42.0,0.0,24716,64.36458333333333
1021,9.0,,,,35.0,,,,,0,note_on,,0.0,35.0,0.0,24716,64.36458333333333
1022,9.0,,,,42.0,,,,,52,note_on,,88.0,42.0,88.0,24768,64.5
1023,9.0,,,,35.0,,,,,0,note_on,,112.0,35.0,112.0,24768,64.5
1024,9.0,,,,40.0,,,,,0,note_on,,112.0,40.0,112.0,24768,64.5
1025,9.0,,,,51.0,,,,,0,note_on,,112.0,51.0,112.0,24768,64.5
1026,9.0,,,,40.0,,,,,44,note_on,,0.0,40.0,0.0,24812,64.61458333333333
1027,9.0,,,,51.0,,,,,0,note_on,,0.0,51.0,0.0,24812,64.61458333333333
1028,9.0,,,,42.0,,,,,0,note_on,,0.0,42.0,0.0,24812,64.61458333333333
1029,9.0,,,,35.0,,,,,0,note_on,,0.0,35.0,0.0,24812,64.61458333333333
1030,9.0,,,,42.0,,,,,52,note_on,,88.0,42.0,88.0,24864,64.75
1031,9.0,,,,42.0,,,,,44,note_on,,0.0,42.0,0.0,24908,64.86458333333333
1032,9.0,,,,35.0,,,,,52,note_on,,112.0,35.0,112.0,24960,65.0
1033,9.0,,,,42.0,,,,,0,note_on,,88.0,42.0,88.0,24960,65.0
1034,9.0,,,,42.0,,,,,44,note_on,,0.0,42.0,0.0,25004,65.11458333333333
1035,9.0,,,,35.0,,,,,0,note_on,,0.0,35.0,0.0,25004,65.11458333333333
1036,9.0,,,,35.0,,,,,52,note_on,,112.0,35.0,112.0,25056,65.25
1037,9.0,,,,42.0,,,,,0,note_on,,88.0,42.0,88.0,25056,65.25
1038,9.0,,,,42.0,,,,,44,note_on,,0.0,42.0,0.0,25100,65.36458333333333
1039,9.0,,,,35.0,,,,,0,note_on,,0.0,35.0,0.0,25100,65.36458333333333
1040,9.0,,,,42.0,,,,,52,note_on,,88.0,42.0,88.0,25152,65.5
1041,9.0,,,,40.0,,,,,0,note_on,,112.0,40.0,112.0,25152,65.5
1042,9.0,,,,51.0,,,,,0,note_on,,112.0,51.0,112.0,25152,65.5
1043,9.0,,,,35.0,,,,,0,note_on,,112.0,35.0,112.0,25152,65.5
1044,9.0,,,,42.0,,,,,44,note_on,,0.0,42.0,0.0,25196,65.61458333333333
1045,9.0,,,,35.0,,,,,0,note_on,,0.0,35.0,0.0,25196,65.61458333333333
1046,9.0,,,,51.0,,,,,0,note_on,,0.0,51.0,0.0,25196,65.61458333333333
1047,9.0,,,,40.0,,,,,0,note_on,,0.0,40.0,0.0,25196,65.61458333333333
1048,9.0,,,,42.0,,,,,52,note_on,,88.0,42.0,88.0,25248,65.75
1049,9.0,,,,51.0,,,,,0,note_on,,112.0,51.0,112.0,25248,65.75
1050,9.0,,,,42.0,,,,,44,note_on,,0.0,42.0,0.0,25292,65.86458333333333
1051,9.0,,,,51.0,,,,,0,note_on,,0.0,51.0,0.0,25292,65.86458333333333
1052,9.0,,,,35.0,,,,,4,note_on,,112.0,35.0,112.0,25296,65.875
1053,9.0,,,,35.0,,,,,44,note_on,,0.0,35.0,0.0,25340,65.98958333333333
1054,9.0,,,,42.0,,,,,4,note_on,,88.0,42.0,88.0,25344,66.0
1055,9.0,,,,35.0,,,,,0,note_on,,112.0,35.0,112.0,25344,66.0
1056,9.0,,,,35.0,,,,,44,note_on,,0.0,35.0,0.0,25388,66.11458333333333
1057,9.0,,,,42.0,,,,,0,note_on,,0.0,42.0,0.0,25388,66.11458333333333
1058,9.0,,,,42.0,,,,,52,note_on,,88.0,42.0,88.0,25440,66.25
1059,9.0,,,,42.0,,,,,44,note_on,,0.0,42.0,0.0,25484,66.36458333333333
1060,9.0,,,,42.0,,,,,52,note_on,,88.0,42.0,88.0,25536,66.5
1061,9.0,,,,51.0,,,,,0,note_on,,112.0,51.0,112.0,25536,66.5
1062,9.0,,,,40.0,,,,,0,note_on,,112.0,40.0,112.0,25536,66.5
1063,9.0,,,,51.0,,,,,44,note_on,,0.0,51.0,0.0,25580,66.61458333333333
1064,9.0,,,,40.0,,,,,0,note_on,,0.0,40.0,0.0,25580,66.61458333333333
1065,9.0,,,,42.0,,,,,0,note_on,,0.0,42.0,0.0,25580,66.61458333333333
1066,9.0,,,,42.0,,,,,52,note_on,,88.0,42.0,88.0,25632,66.75
1067,9.0,,,,42.0,,,,,44,note_on,,0.0,42.0,0.0,25676,66.86458333333333
1068,9.0,,,,42.0,,,,,52,note_on,,88.0,42.0,88.0,25728,67.0
1069,9.0,,,,35.0,,,,,0,note_on,,112.0,35.0,112.0,25728,67.0
1070,9.0,,,,35.0,,,,,44,note_on,,0.0,35.0,0.0,25772,67.11458333333333
1071,9.0,,,,42.0,,,,,0,note_on,,0.0,42.0,0.0,25772,67.11458333333333
1072,9.0,,,,42.0,,,,,52,note_on,,88.0,42.0,88.0,25824,67.25
1073,9.0,,,,35.0,,,,,0,note_on,,112.0,35.0,112.0,25824,67.25
1074,9.0,,,,42.0,,,,,44,note_on,,0.0,42.0,0.0,25868,67.36458333333333
1075,9.0,,,,35.0,,,,,0,note_on,,0.0,35.0,0.0,25868,67.36458333333333
1076,9.0,,,,40.0,,,,,52,note_on,,112.0,40.0,112.0,25920,67.5
1077,9.0,,,,42.0,,,,,0,note_on,,88.0,42.0,88.0,25920,67.5
1078,9.0,,,,51.0,,,,,0,note_on,,112.0,51.0,112.0,25920,67.5
1079,9.0,,,,51.0,,,,,44,note_on,,0.0,51.0,0.0,25964,67.61458333333333
1080,9.0,,,,42.0,,,,,0,note_on,,0.0,42.0,0.0,25964,67.61458333333333
1081,9.0,,,,40.0,,,,,0,note_on,,0.0,40.0,0.0,25964,67.61458333333333
1082,9.0,,,,42.0,,,,,52,note_on,,88.0,42.0,88.0,26016,67.75
1083,9.0,,,,51.0,,,,,0,note_on,,112.0,51.0,112.0,26016,67.75
1084,9.0,,,,42.0,,,,,44,note_on,,0.0,42.0,0.0,26060,67.86458333333333
1085,9.0,,,,51.0,,,,,0,note_on,,0.0,51.0,0.0,26060,67.86458333333333
1086,9.0,,,,35.0,,,,,4,note_on,,112.0,35.0,112.0,26064,67.875
1087,9.0,,,,35.0,,,,,44,note_on,,0.0,35.0,0.0,26108,67.98958333333333
1088,9.0,,,,35.0,,,,,4,note_on,,112.0,35.0,112.0,26112,68.0
1089,9.0,,,,42.0,,,,,0,note_on,,88.0,42.0,88.0,26112,68.0
1090,9.0,,,,42.0,,,,,44,note_on,,0.0,42.0,0.0,26156,68.11458333333333
1091,9.0,,,,35.0,,,,,0,note_on,,0.0,35.0,0.0,26156,68.11458333333333
1092,9.0,,,,42.0,,,,,52,note_on,,88.0,42.0,88.0,26208,68.25
1093,9.0,,,,42.0,,,,,44,note_on,,0.0,42.0,0.0,26252,68.36458333333333
1094,9.0,,,,51.0,,,,,52,note_on,,112.0,51.0,112.0,26304,68.5
1095,9.0,,,,40.0,,,,,0,note_on,,112.0,40.0,112.0,26304,68.5
1096,9.0,,,,42.0,,,,,0,note_on,,88.0,42.0,88.0,26304,68.5
1097,9.0,,,,40.0,,,,,44,note_on,,0.0,40.0,0.0,26348,68.61458333333333
1098,9.0,,,,42.0,,,,,0,note_on,,0.0,42.0,0.0,26348,68.61458333333333
1099,9.0,,,,51.0,,,,,0,note_on,,0.0,51.0,0.0,26348,68.61458333333333
1100,9.0,,,,42.0,,,,,52,note_on,,88.0,42.0,88.0,26400,68.75
1101,9.0,,,,42.0,,,,,44,note_on,,0.0,42.0,0.0,26444,68.86458333333333
1102,9.0,,,,42.0,,,,,52,note_on,,88.0,42.0,88.0,26496,69.0
1103,9.0,,,,35.0,,,,,0,note_on,,112.0,35.0,112.0,26496,69.0
1104,9.0,,,,35.0,,,,,44,note_on,,0.0,35.0,0.0,26540,69.11458333333333
1105,9.0,,,,42.0,,,,,0,note_on,,0.0,42.0,0.0,26540,69.11458333333333
1106,9.0,,,,35.0,,,,,52,note_on,,112.0,35.0,112.0,26592,69.25
1107,9.0,,,,42.0,,,,,0,note_on,,88.0,42.0,88.0,26592,69.25
1108,9.0,,,,35.0,,,,,44,note_on,,0.0,35.0,0.0,26636,69.36458333333333
1109,9.0,,,,42.0,,,,,0,note_on,,0.0,42.0,0.0,26636,69.36458333333333
1110,9.0,,,,40.0,,,,,52,note_on,,112.0,40.0,112.0,26688,69.5
1111,9.0,,,,42.0,,,,,0,note_on,,88.0,42.0,88.0,26688,69.5
1112,9.0,,,,51.0,,,,,0,note_on,,112.0,51.0,112.0,26688,69.5
1113,9.0,,,,40.0,,,,,44,note_on,,0.0,40.0,0.0,26732,69.61458333333333
1114,9.0,,,,51.0,,,,,0,note_on,,0.0,51.0,0.0,26732,69.61458333333333
1115,9.0,,,,42.0,,,,,0,note_on,,0.0,42.0,0.0,26732,69.61458333333333
1116,9.0,,,,42.0,,,,,52,note_on,,88.0,42.0,88.0,26784,69.75
1117,9.0,,,,51.0,,,,,0,note_on,,112.0,51.0,112.0,26784,69.75
1118,9.0,,,,51.0,,,,,44,note_on,,0.0,51.0,0.0,26828,69.86458333333333
1119,9.0,,,,42.0,,,,,0,note_on,,0.0,42.0,0.0,26828,69.86458333333333
1120,9.0,,,,35.0,,,,,4,note_on,,112.0,35.0,112.0,26832,69.875
1121,9.0,,,,35.0,,,,,44,note_on,,0.0,35.0,0.0,26876,69.98958333333333
1122,9.0,,,,42.0,,,,,4,note_on,,88.0,42.0,88.0,26880,70.0
1123,9.0,,,,35.0,,,,,0,note_on,,112.0,35.0,112.0,26880,70.0
1124,9.0,,,,35.0,,,,,44,note_on,,0.0,35.0,0.0,26924,70.11458333333333
1125,9.0,,,,42.0,,,,,0,note_on,,0.0,42.0,0.0,26924,70.11458333333333
1126,9.0,,,,42.0,,,,,52,note_on,,88.0,42.0,88.0,26976,70.25
1127,9.0,,,,42.0,,,,,44,note_on,,0.0,42.0,0.0,27020,70.36458333333333
1128,9.0,,,,40.0,,,,,52,note_on,,112.0,40.0,112.0,27072,70.5
1129,9.0,,,,42.0,,,,,0,note_on,,88.0,42.0,88.0,27072,70.5
1130,9.0,,,,51.0,,,,,0,note_on,,112.0,51.0,112.0,27072,70.5
1131,9.0,,,,42.0,,,,,44,note_on,,0.0,42.0,0.0,27116,70.61458333333333
1132,9.0,,,,40.0,,,,,0,note_on,,0.0,40.0,0.0,27116,70.61458333333333
1133,9.0,,,,51.0,,,,,0,note_on,,0.0,51.0,0.0,27116,70.61458333333333
1134,9.0,,,,42.0,,,,,52,note_on,,88.0,42.0,88.0,27168,70.75
1135,9.0,,,,42.0,,,,,44,note_on,,0.0,42.0,0.0,27212,70.86458333333333
1136,9.0,,,,35.0,,,,,52,note_on,,112.0,35.0,112.0,27264,71.0
1137,9.0,,,,42.0,,,,,0,note_on,,88.0,42.0,88.0,27264,71.0
1138,9.0,,,,35.0,,,,,44,note_on,,0.0,35.0,0.0,27308,71.11458333333333
1139,9.0,,,,42.0,,,,,0,note_on,,0.0,42.0,0.0,27308,71.11458333333333
1140,9.0,,,,35.0,,,,,52,note_on,,112.0,35.0,112.0,27360,71.25
1141,9.0,,,,42.0,,,,,0,note_on,,88.0,42.0,88.0,27360,71.25
1142,9.0,,,,42.0,,,,,44,note_on,,0.0,42.0,0.0,27404,71.36458333333333
1143,9.0,,,,35.0,,,,,0,note_on,,0.0,35.0,0.0,27404,71.36458333333333
1144,9.0,,,,40.0,,,,,52,note_on,,112.0,40.0,112.0,27456,71.5
1145,9.0,,,,51.0,,,,,0,note_on,,112.0,51.0,112.0,27456,71.5
1146,9.0,,,,42.0,,,,,0,note_on,,88.0,42.0,88.0,27456,71.5
1147,9.0,,,,42.0,,,,,44,note_on,,0.0,42.0,0.0,27500,71.61458333333333
1148,9.0,,,,51.0,,,,,0,note_on,,0.0,51.0,0.0,27500,71.61458333333333
1149,9.0,,,,40.0,,,,,0,note_on,,0.0,40.0,0.0,27500,71.61458333333333
1150,9.0,,,,51.0,,,,,52,note_on,,112.0,51.0,112.0,27552,71.75
1151,9.0,,,,42.0,,,,,0,note_on,,88.0,42.0,88.0,27552,71.75
1152,9.0,,,,42.0,,,,,44,note_on,,0.0,42.0,0.0,27596,71.86458333333333
1153,9.0,,,,51.0,,,,,0,note_on,,0.0,51.0,0.0,27596,71.86458333333333
1154,9.0,,,,35.0,,,,,4,note_on,,112.0,35.0,112.0,27600,71.875
1155,9.0,,,,35.0,,,,,44,note_on,,0.0,35.0,0.0,27644,71.98958333333333
1156,9.0,,,,42.0,,,,,4,note_on,,88.0,42.0,88.0,27648,72.0
1157,9.0,,,,35.0,,,,,0,note_on,,112.0,35.0,112.0,27648,72.0
1158,9.0,,,,42.0,,,,,44,note_on,,0.0,42.0,0.0,27692,72.11458333333333
1159,9.0,,,,35.0,,,,,0,note_on,,0.0,35.0,0.0,27692,72.11458333333333
1160,9.0,,,,42.0,,,,,52,note_on,,88.0,42.0,88.0,27744,72.25
1161,9.0,,,,42.0,,,,,44,note_on,,0.0,42.0,0.0,27788,72.36458333333333
1162,9.0,,,,40.0,,,,,52,note_on,,112.0,40.0,112.0,27840,72.5
1163,9.0,,,,51.0,,,,,0,note_on,,112.0,51.0,112.0,27840,72.5
1164,9.0,,,,42.0,,,,,0,note_on,,88.0,42.0,88.0,27840,72.5
1165,9.0,,,,42.0,,,,,44,note_on,,0.0,42.0,0.0,27884,72.61458333333333
1166,9.0,,,,40.0,,,,,0,note_on,,0.0,40.0,0.0,27884,72.61458333333333
1167,9.0,,,,51.0,,,,,0,note_on,,0.0,51.0,0.0,27884,72.61458333333333
1168,9.0,,,,42.0,,,,,52,note_on,,88.0,42.0,88.0,27936,72.75
1169,9.0,,,,42.0,,,,,44,note_on,,0.0,42.0,0.0,27980,72.86458333333333
1170,9.0,,,,42.0,,,,,52,note_on,,88.0,42.0,88.0,28032,73.0
1171,9.0,,,,35.0,,,,,0,note_on,,112.0,35.0,112.0,28032,73.0
1172,9.0,,,,42.0,,,,,44,note_on,,0.0,42.0,0.0,28076,73.11458333333333
1173,9.0,,,,35.0,,,,,0,note_on,,0.0,35.0,0.0,28076,73.11458333333333
1174,9.0,,,,35.0,,,,,52,note_on,,112.0,35.0,112.0,28128,73.25
1175,9.0,,,,42.0,,,,,0,note_on,,88.0,42.0,88.0,28128,73.25
1176,9.0,,,,42.0,,,,,44,note_on,,0.0,42.0,0.0,28172,73.36458333333333
1177,9.0,,,,35.0,,,,,0,note_on,,0.0,35.0,0.0,28172,73.36458333333333
1178,9.0,,,,42.0,,,,,52,note_on,,88.0,42.0,88.0,28224,73.5
1179,9.0,,,,40.0,,,,,0,note_on,,112.0,40.0,112.0,28224,73.5
1180,9.0,,,,51.0,,,,,0,note_on,,112.0,51.0,112.0,28224,73.5
1181,9.0,,,,42.0,,,,,44,note_on,,0.0,42.0,0.0,28268,73.61458333333333
1182,9.0,,,,51.0,,,,,0,note_on,,0.0,51.0,0.0,28268,73.61458333333333
1183,9.0,,,,40.0,,,,,0,note_on,,0.0,40.0,0.0,28268,73.61458333333333
1184,9.0,,,,51.0,,,,,52,note_on,,112.0,51.0,112.0,28320,73.75
1185,9.0,,,,42.0,,,,,0,note_on,,88.0,42.0,88.0,28320,73.75
1186,9.0,,,,51.0,,,,,44,note_on,,0.0,51.0,0.0,28364,73.86458333333333
1187,9.0,,,,42.0,,,,,0,note_on,,0.0,42.0,0.0,28364,73.86458333333333
1188,9.0,,,,35.0,,,,,4,note_on,,112.0,35.0,112.0,28368,73.875
1189,9.0,,,,35.0,,,,,44,note_on,,0.0,35.0,0.0,28412,73.98958333333333
1190,9.0,,,,42.0,,,,,4,note_on,,88.0,42.0,88.0,28416,74.0
1191,9.0,,,,35.0,,,,,0,note_on,,112.0,35.0,112.0,28416,74.0
1192,9.0,,,,35.0,,,,,44,note_on,,0.0,35.0,0.0,28460,74.11458333333333
1193,9.0,,,,42.0,,,,,0,note_on,,0.0,42.0,0.0,28460,74.11458333333333
1194,9.0,,,,35.0,,,,,52,note_on,,112.0,35.0,112.0,28512,74.25
1195,9.0,,,,42.0,,,,,0,note_on,,88.0,42.0,88.0,28512,74.25
1196,9.0,,,,42.0,,,,,44,note_on,,0.0,42.0,0.0,28556,74.36458333333333
1197,9.0,,,,35.0,,,,,0,note_on,,0.0,35.0,0.0,28556,74.36458333333333
1198,9.0,,,,51.0,,,,,52,note_on,,112.0,51.0,112.0,28608,74.5
1199,9.0,,,,35.0,,,,,0,note_on,,112.0,35.0,112.0,28608,74.5
1200,9.0,,,,40.0,,,,,0,note_on,,112.0,40.0,112.0,28608,74.5
1201,9.0,,,,42.0,,,,,0,note_on,,88.0,42.0,88.0,28608,74.5
1202,9.0,,,,35.0,,,,,44,note_on,,0.0,35.0,0.0,28652,74.61458333333333
1203,9.0,,,,51.0,,,,,0,note_on,,0.0,51.0,0.0,28652,74.61458333333333
1204,9.0,,,,42.0,,,,,0,note_on,,0.0,42.0,0.0,28652,74.61458333333333
1205,9.0,,,,40.0,,,,,0,note_on,,0.0,40.0,0.0,28652,74.61458333333333
1206,9.0,,,,42.0,,,,,52,note_on,,88.0,42.0,88.0,28704,74.75
1207,9.0,,,,42.0,,,,,44,note_on,,0.0,42.0,0.0,28748,74.86458333333333
1208,9.0,,,,42.0,,,,,52,note_on,,88.0,42.0,88.0,28800,75.0
1209,9.0,,,,35.0,,,,,0,note_on,,112.0,35.0,112.0,28800,75.0
1210,9.0,,,,42.0,,,,,44,note_on,,0.0,42.0,0.0,28844,75.11458333333333
1211,9.0,,,,35.0,,,,,0,note_on,,0.0,35.0,0.0,28844,75.11458333333333
1212,9.0,,,,42.0,,,,,52,note_on,,88.0,42.0,88.0,28896,75.25
1213,9.0,,,,35.0,,,,,0,note_on,,112.0,35.0,112.0,28896,75.25
1214,9.0,,,,35.0,,,,,44,note_on,,0.0,35.0,0.0,28940,75.36458333333333
1215,9.0,,,,42.0,,,,,0,note_on,,0.0,42.0,0.0,28940,75.36458333333333
1216,9.0,,,,40.0,,,,,52,note_on,,112.0,40.0,112.0,28992,75.5
1217,9.0,,,,35.0,,,,,0,note_on,,112.0,35.0,112.0,28992,75.5
1218,9.0,,,,42.0,,,,,0,note_on,,88.0,42.0,88.0,28992,75.5
1219,9.0,,,,51.0,,,,,0,note_on,,112.0,51.0,112.0,28992,75.5
1220,9.0,,,,35.0,,,,,44,note_on,,0.0,35.0,0.0,29036,75.61458333333333
1221,9.0,,,,40.0,,,,,0,note_on,,0.0,40.0,0.0,29036,75.61458333333333
1222,9.0,,,,51.0,,,,,0,note_on,,0.0,51.0,0.0,29036,75.61458333333333
1223,9.0,,,,42.0,,,,,0,note_on,,0.0,42.0,0.0,29036,75.61458333333333
1224,9.0,,,,42.0,,,,,52,note_on,,88.0,42.0,88.0,29088,75.75
1225,9.0,,,,51.0,,,,,0,note_on,,112.0,51.0,112.0,29088,75.75
1226,9.0,,,,51.0,,,,,44,note_on,,0.0,51.0,0.0,29132,75.86458333333333
1227,9.0,,,,42.0,,,,,0,note_on,,0.0,42.0,0.0,29132,75.86458333333333
1228,9.0,,,,35.0,,,,,4,note_on,,112.0,35.0,112.0,29136,75.875
1229,9.0,,,,35.0,,,,,44,note_on,,0.0,35.0,0.0,29180,75.98958333333333
1230,9.0,,,,42.0,,,,,4,note_on,,88.0,42.0,88.0,29184,76.0
1231,9.0,,,,35.0,,,,,0,note_on,,112.0,35.0,112.0,29184,76.0
1232,9.0,,,,42.0,,,,,44,note_on,,0.0,42.0,0.0,29228,76.11458333333333
1233,9.0,,,,35.0,,,,,0,note_on,,0.0,35.0,0.0,29228,76.11458333333333
1234,9.0,,,,35.0,,,,,52,note_on,,112.0,35.0,112.0,29280,76.25
1235,9.0,,,,42.0,,,,,0,note_on,,88.0,42.0,88.0,29280,76.25
1236,9.0,,,,42.0,,,,,44,note_on,,0.0,42.0,0.0,29324,76.36458333333333
1237,9.0,,,,35.0,,,,,0,note_on,,0.0,35.0,0.0,29324,76.36458333333333
1238,9.0,,,,51.0,,,,,52,note_on,,112.0,51.0,112.0,29376,76.5
1239,9.0,,,,35.0,,,,,0,note_on,,112.0,35.0,112.0,29376,76.5
1240,9.0,,,,40.0,,,,,0,note_on,,112.0,40.0,112.0,29376,76.5
1241,9.0,,,,42.0,,,,,0,note_on,,88.0,42.0,88.0,29376,76.5
1242,9.0,,,,42.0,,,,,44,note_on,,0.0,42.0,0.0,29420,76.61458333333333
1243,9.0,,,,40.0,,,,,0,note_on,,0.0,40.0,0.0,29420,76.61458333333333
1244,9.0,,,,35.0,,,,,0,note_on,,0.0,35.0,0.0,29420,76.61458333333333
1245,9.0,,,,51.0,,,,,0,note_on,,0.0,51.0,0.0,29420,76.61458333333333
1246,9.0,,,,42.0,,,,,52,note_on,,88.0,42.0,88.0,29472,76.75
1247,9.0,,,,42.0,,,,,44,note_on,,0.0,42.0,0.0,29516,76.86458333333333
1248,9.0,,,,35.0,,,,,52,note_on,,112.0,35.0,112.0,29568,77.0
1249,9.0,,,,42.0,,,,,0,note_on,,88.0,42.0,88.0,29568,77.0
1250,9.0,,,,42.0,,,,,44,note_on,,0.0,42.0,0.0,29612,77.11458333333333
1251,9.0,,,,35.0,,,,,0,note_on,,0.0,35.0,0.0,29612,77.11458333333333
1252,9.0,,,,42.0,,,,,52,note_on,,88.0,42.0,88.0,29664,77.25
1253,9.0,,,,35.0,,,,,0,note_on,,112.0,35.0,112.0,29664,77.25
1254,9.0,,,,35.0,,,,,44,note_on,,0.0,35.0,0.0,29708,77.36458333333333
1255,9.0,,,,42.0,,,,,0,note_on,,0.0,42.0,0.0,29708,77.36458333333333
1256,9.0,,,,51.0,,,,,52,note_on,,112.0,51.0,112.0,29760,77.5
1257,9.0,,,,40.0,,,,,0,note_on,,112.0,40.0,112.0,29760,77.5
1258,9.0,,,,42.0,,,,,0,note_on,,88.0,42.0,88.0,29760,77.5
1259,9.0,,,,35.0,,,,,0,note_on,,112.0,35.0,112.0,29760,77.5
1260,9.0,,,,40.0,,,,,44,note_on,,0.0,40.0,0.0,29804,77.61458333333333
1261,9.0,,,,51.0,,,,,0,note_on,,0.0,51.0,0.0,29804,77.61458333333333
1262,9.0,,,,35.0,,,,,0,note_on,,0.0,35.0,0.0,29804,77.61458333333333
1263,9.0,,,,42.0,,,,,0,note_on,,0.0,42.0,0.0,29804,77.61458333333333
1264,9.0,,,,42.0,,,,,52,note_on,,88.0,42.0,88.0,29856,77.75
1265,9.0,,,,51.0,,,,,0,note_on,,112.0,51.0,112.0,29856,77.75
1266,9.0,,,,42.0,,,,,44,note_on,,0.0,42.0,0.0,29900,77.86458333333333
1267,9.0,,,,51.0,,,,,0,note_on,,0.0,51.0,0.0,29900,77.86458333333333
1268,9.0,,,,35.0,,,,,4,note_on,,112.0,35.0,112.0,29904,77.875
1269,9.0,,,,35.0,,,,,44,note_on,,0.0,35.0,0.0,29948,77.98958333333333
1270,9.0,,,,35.0,,,,,4,note_on,,112.0,35.0,112.0,29952,78.0
1271,9.0,,,,42.0,,,,,0,note_on,,88.0,42.0,88.0,29952,78.0
1272,9.0,,,,35.0,,,,,44,note_on,,0.0,35.0,0.0,29996,78.11458333333333
1273,9.0,,,,42.0,,,,,0,note_on,,0.0,42.0,0.0,29996,78.11458333333333
1274,9.0,,,,42.0,,,,,52,note_on,,88.0,42.0,88.0,30048,78.25
1275,9.0,,,,35.0,,,,,0,note_on,,112.0,35.0,112.0,30048,78.25
1276,9.0,,,,35.0,,,,,44,note_on,,0.0,35.0,0.0,30092,78.36458333333333
1277,9.0,,,,42.0,,,,,0,note_on,,0.0,42.0,0.0,30092,78.36458333333333
1278,9.0,,,,42.0,,,,,52,note_on,,88.0,42.0,88.0,30144,78.5
1279,9.0,,,,40.0,,,,,0,note_on,,112.0,40.0,112.0,30144,78.5
1280,9.0,,,,35.0,,,,,0,note_on,,112.0,35.0,112.0,30144,78.5
1281,9.0,,,,51.0,,,,,0,note_on,,112.0,51.0,112.0,30144,78.5
1282,9.0,,,,40.0,,,,,44,note_on,,0.0,40.0,0.0,30188,78.61458333333333
1283,9.0,,,,42.0,,,,,0,note_on,,0.0,42.0,0.0,30188,78.61458333333333
1284,9.0,,,,51.0,,,,,0,note_on,,0.0,51.0,0.0,30188,78.61458333333333
1285,9.0,,,,35.0,,,,,0,note_on,,0.0,35.0,0.0,30188,78.61458333333333
1286,9.0,,,,42.0,,,,,52,note_on,,88.0,42.0,88.0,30240,78.75
1287,9.0,,,,42.0,,,,,44,note_on,,0.0,42.0,0.0,30284,78.86458333333333
1288,9.0,,,,42.0,,,,,52,note_on,,88.0,42.0,88.0,30336,79.0
1289,9.0,,,,35.0,,,,,0,note_on,,112.0,35.0,112.0,30336,79.0
1290,9.0,,,,42.0,,,,,44,note_on,,0.0,42.0,0.0,30380,79.11458333333333
1291,9.0,,,,35.0,,,,,0,note_on,,0.0,35.0,0.0,30380,79.11458333333333
1292,9.0,,,,42.0,,,,,52,note_on,,88.0,42.0,88.0,30432,79.25
1293,9.0,,,,35.0,,,,,0,note_on,,112.0,35.0,112.0,30432,79.25
1294,9.0,,,,35.0,,,,,44,note_on,,0.0,35.0,0.0,30476,79.36458333333333
1295,9.0,,,,42.0,,,,,0,note_on,,0.0,42.0,0.0,30476,79.36458333333333
1296,9.0,,,,42.0,,,,,52,note_on,,88.0,42.0,88.0,30528,79.5
1297,9.0,,,,40.0,,,,,0,note_on,,112.0,40.0,112.0,30528,79.5
1298,9.0,,,,35.0,,,,,0,note_on,,112.0,35.0,112.0,30528,79.5
1299,9.0,,,,51.0,,,,,0,note_on,,112.0,51.0,112.0,30528,79.5
1300,9.0,,,,51.0,,,,,44,note_on,,0.0,51.0,0.0,30572,79.61458333333333
1301,9.0,,,,35.0,,,,,0,note_on,,0.0,35.0,0.0,30572,79.61458333333333
1302,9.0,,,,40.0,,,,,0,note_on,,0.0,40.0,0.0,30572,79.61458333333333
1303,9.0,,,,42.0,,,,,0,note_on,,0.0,42.0,0.0,30572,79.61458333333333
1304,9.0,,,,51.0,,,,,52,note_on,,112.0,51.0,112.0,30624,79.75
1305,9.0,,,,42.0,,,,,0,note_on,,88.0,42.0,88.0,30624,79.75
1306,9.0,,,,51.0,,,,,44,note_on,,0.0,51.0,0.0,30668,79.86458333333333
1307,9.0,,,,42.0,,,,,0,note_on,,0.0,42.0,0.0,30668,79.86458333333333
1308,9.0,,,,35.0,,,,,4,note_on,,112.0,35.0,112.0,30672,79.875
1309,9.0,,,,35.0,,,,,44,note_on,,0.0,35.0,0.0,30716,79.98958333333333
1310,9.0,,,,35.0,,,,,4,note_on,,112.0,35.0,112.0,30720,80.0
1311,9.0,,,,42.0,,,,,0,note_on,,88.0,42.0,88.0,30720,80.0
1312,9.0,,,,35.0,,,,,44,note_on,,0.0,35.0,0.0,30764,80.11458333333333
1313,9.0,,,,42.0,,,,,0,note_on,,0.0,42.0,0.0,30764,80.11458333333333
1314,9.0,,,,35.0,,,,,52,note_on,,112.0,35.0,112.0,30816,80.25
1315,9.0,,,,42.0,,,,,0,note_on,,88.0,42.0,88.0,30816,80.25
1316,9.0,,,,42.0,,,,,44,note_on,,0.0,42.0,0.0,30860,80.36458333333333
1317,9.0,,,,35.0,,,,,0,note_on,,0.0,35.0,0.0,30860,80.36458333333333
1318,9.0,,,,42.0,,,,,52,note_on,,88.0,42.0,88.0,30912,80.5
1319,9.0,,,,51.0,,,,,0,note_on,,112.0,51.0,112.0,30912,80.5
1320,9.0,,,,40.0,,,,,0,note_on,,112.0,40.0,112.0,30912,80.5
1321,9.0,,,,35.0,,,,,0,note_on,,112.0,35.0,112.0,30912,80.5
1322,9.0,,,,51.0,,,,,44,note_on,,0.0,51.0,0.0,30956,80.61458333333333
1323,9.0,,,,42.0,,,,,0,note_on,,0.0,42.0,0.0,30956,80.61458333333333
1324,9.0,,,,35.0,,,,,0,note_on,,0.0,35.0,0.0,30956,80.61458333333333
1325,9.0,,,,40.0,,,,,0,note_on,,0.0,40.0,0.0,30956,80.61458333333333
1326,9.0,,,,42.0,,,,,52,note_on,,88.0,42.0,88.0,31008,80.75
1327,9.0,,,,42.0,,,,,44,note_on,,0.0,42.0,0.0,31052,80.86458333333333
1328,9.0,,,,40.0,,,,,52,note_on,,112.0,40.0,112.0,31104,81.0
1329,9.0,,,,40.0,,,,,44,note_on,,0.0,40.0,0.0,31148,81.11458333333333
1330,9.0,,,,48.0,,,,,4,note_on,,112.0,48.0,112.0,31152,81.125
1331,9.0,,,,48.0,,,,,44,note_on,,0.0,48.0,0.0,31196,81.23958333333333
1332,9.0,,,,40.0,,,,,52,note_on,,112.0,40.0,112.0,31248,81.375
1333,9.0,,,,40.0,,,,,44,note_on,,0.0,40.0,0.0,31292,81.48958333333333
1334,9.0,,,,40.0,,,,,4,note_on,,112.0,40.0,112.0,31296,81.5
1335,9.0,,,,40.0,,,,,44,note_on,,0.0,40.0,0.0,31340,81.61458333333333
1336,9.0,,,,36.0,,,,,52,note_on,,112.0,36.0,112.0,31392,81.75
1337,9.0,,,,36.0,,,,,44,note_on,,0.0,36.0,0.0,31436,81.86458333333333
1338,9.0,,,,42.0,,,,,52,note_on,,88.0,42.0,88.0,31488,82.0
1339,9.0,,,,35.0,,,,,0,note_on,,112.0,35.0,112.0,31488,82.0
1340,9.0,,,,49.0,,,,,0,note_on,,112.0,49.0,112.0,31488,82.0
1341,9.0,,,,49.0,,,,,44,note_on,,0.0,49.0,0.0,31532,82.11458333333333
1342,9.0,,,,35.0,,,,,0,note_on,,0.0,35.0,0.0,31532,82.11458333333333
1343,9.0,,,,42.0,,,,,0,note_on,,0.0,42.0,0.0,31532,82.11458333333333
1344,9.0,,,,35.0,,,,,52,note_on,,112.0,35.0,112.0,31584,82.25
1345,9.0,,,,42.0,,,,,0,note_on,,88.0,42.0,88.0,31584,82.25
1346,9.0,,,,42.0,,,,,44,note_on,,0.0,42.0,0.0,31628,82.36458333333333
1347,9.0,,,,35.0,,,,,0,note_on,,0.0,35.0,0.0,31628,82.36458333333333
1348,9.0,,,,42.0,,,,,52,note_on,,88.0,42.0,88.0,31680,82.5
1349,9.0,,,,40.0,,,,,0,note_on,,112.0,40.0,112.0,31680,82.5
1350,9.0,,,,35.0,,,,,0,note_on,,112.0,35.0,112.0,31680,82.5
1351,9.0,,,,51.0,,,,,0,note_on,,112.0,51.0,112.0,31680,82.5
1352,9.0,,,,35.0,,,,,44,note_on,,0.0,35.0,0.0,31724,82.61458333333333
1353,9.0,,,,51.0,,,,,0,note_on,,0.0,51.0,0.0,31724,82.61458333333333
1354,9.0,,,,40.0,,,,,0,note_on,,0.0,40.0,0.0,31724,82.61458333333333
1355,9.0,,,,42.0,,,,,0,note_on,,0.0,42.0,0.0,31724,82.61458333333333
1356,9.0,,,,42.0,,,,,52,note_on,,88.0,42.0,88.0,31776,82.75
1357,9.0,,,,42.0,,,,,44,note_on,,0.0,42.0,0.0,31820,82.86458333333333
1358,9.0,,,,35.0,,,,,52,note_on,,112.0,35.0,112.0,31872,83.0
1359,9.0,,,,42.0,,,,,0,note_on,,88.0,42.0,88.0,31872,83.0
1360,9.0,,,,35.0,,,,,44,note_on,,0.0,35.0,0.0,31916,83.11458333333333
1361,9.0,,,,42.0,,,,,0,note_on,,0.0,42.0,0.0,31916,83.11458333333333
1362,9.0,,,,35.0,,,,,52,note_on,,112.0,35.0,112.0,31968,83.25
1363,9.0,,,,42.0,,,,,0,note_on,,88.0,42.0,88.0,31968,83.25
1364,9.0,,,,42.0,,,,,44,note_on,,0.0,42.0,0.0,32012,83.36458333333333
1365,9.0,,,,35.0,,,,,0,note_on,,0.0,35.0,0.0,32012,83.36458333333333
1366,9.0,,,,40.0,,,,,52,note_on,,112.0,40.0,112.0,32064,83.5
1367,9.0,,,,51.0,,,,,0,note_on,,112.0,51.0,112.0,32064,83.5
1368,9.0,,,,35.0,,,,,0,note_on,,112.0,35.0,112.0,32064,83.5
1369,9.0,,,,42.0,,,,,0,note_on,,88.0,42.0,88.0,32064,83.5
1370,9.0,,,,42.0,,,,,44,note_on,,0.0,42.0,0.0,32108,83.61458333333333
1371,9.0,,,,51.0,,,,,0,note_on,,0.0,51.0,0.0,32108,83.61458333333333
1372,9.0,,,,35.0,,,,,0,note_on,,0.0,35.0,0.0,32108,83.61458333333333
1373,9.0,,,,40.0,,,,,0,note_on,,0.0,40.0,0.0,32108,83.61458333333333
1374,9.0,,,,51.0,,,,,52,note_on,,112.0,51.0,112.0,32160,83.75
1375,9.0,,,,42.0,,,,,0,note_on,,88.0,42.0,88.0,32160,83.75
1376,9.0,,,,51.0,,,,,44,note_on,,0.0,51.0,0.0,32204,83.86458333333333
1377,9.0,,,,42.0,,,,,0,note_on,,0.0,42.0,0.0,32204,83.86458333333333
1378,9.0,,,,35.0,,,,,4,note_on,,112.0,35.0,112.0,32208,83.875
1379,9.0,,,,35.0,,,,,44,note_on,,0.0,35.0,0.0,32252,83.98958333333333
1380,9.0,,,,42.0,,,,,4,note_on,,88.0,42.0,88.0,32256,84.0
1381,9.0,,,,35.0,,,,,0,note_on,,112.0,35.0,112.0,32256,84.0
1382,9.0,,,,42.0,,,,,44,note_on,,0.0,42.0,0.0,32300,84.11458333333333
1383,9.0,,,,35.0,,,,,0,note_on,,0.0,35.0,0.0,32300,84.11458333333333
1384,9.0,,,,42.0,,,,,52,note_on,,88.0,42.0,88.0,32352,84.25
1385,9.0,,,,35.0,,,,,0,note_on,,112.0,35.0,112.0,32352,84.25
1386,9.0,,,,42.0,,,,,44,note_on,,0.0,42.0,0.0,32396,84.36458333333333
1387,9.0,,,,35.0,,,,,0,note_on,,0.0,35.0,0.0,32396,84.36458333333333
1388,9.0,,,,35.0,,,,,52,note_on,,112.0,35.0,112.0,32448,84.5
1389,9.0,,,,51.0,,,,,0,note_on,,112.0,51.0,112.0,32448,84.5
1390,9.0,,,,40.0,,,,,0,note_on,,112.0,40.0,112.0,32448,84.5
1391,9.0,,,,42.0,,,,,0,note_on,,88.0,42.0,88.0,32448,84.5
1392,9.0,,,,35.0,,,,,44,note_on,,0.0,35.0,0.0,32492,84.61458333333333
1393,9.0,,,,40.0,,,,,0,note_on,,0.0,40.0,0.0,32492,84.61458333333333
1394,9.0,,,,42.0,,,,,0,note_on,,0.0,42.0,0.0,32492,84.61458333333333
1395,9.0,,,,51.0,,,,,0,note_on,,0.0,51.0,0.0,32492,84.61458333333333
1396,9.0,,,,42.0,,,,,52,note_on,,88.0,42.0,88.0,32544,84.75
1397,9.0,,,,42.0,,,,,44,note_on,,0.0,42.0,0.0,32588,84.86458333333333
1398,9.0,,,,42.0,,,,,52,note_on,,88.0,42.0,88.0,32640,85.0
1399,9.0,,,,35.0,,,,,0,note_on,,112.0,35.0,112.0,32640,85.0
1400,9.0,,,,42.0,,,,,44,note_on,,0.0,42.0,0.0,32684,85.11458333333333
1401,9.0,,,,35.0,,,,,0,note_on,,0.0,35.0,0.0,32684,85.11458333333333
1402,9.0,,,,42.0,,,,,52,note_on,,88.0,42.0,88.0,32736,85.25
1403,9.0,,,,35.0,,,,,0,note_on,,112.0,35.0,112.0,32736,85.25
1404,9.0,,,,42.0,,,,,44,note_on,,0.0,42.0,0.0,32780,85.36458333333333
1405,9.0,,,,35.0,,,,,0,note_on,,0.0,35.0,0.0,32780,85.36458333333333
1406,9.0,,,,40.0,,,,,52,note_on,,112.0,40.0,112.0,32832,85.5
1407,9.0,,,,51.0,,,,,0,note_on,,112.0,51.0,112.0,32832,85.5
1408,9.0,,,,42.0,,,,,0,note_on,,88.0,42.0,88.0,32832,85.5
1409,9.0,,,,35.0,,,,,0,note_on,,112.0,35.0,112.0,32832,85.5
1410,9.0,,,,42.0,,,,,44,note_on,,0.0,42.0,0.0,32876,85.61458333333333
1411,9.0,,,,51.0,,,,,0,note_on,,0.0,51.0,0.0,32876,85.61458333333333
1412,9.0,,,,40.0,,,,,0,note_on,,0.0,40.0,0.0,32876,85.61458333333333
1413,9.0,,,,35.0,,,,,0,note_on,,0.0,35.0,0.0,32876,85.61458333333333
1414,9.0,,,,42.0,,,,,52,note_on,,88.0,42.0,88.0,32928,85.75
1415,9.0,,,,51.0,,,,,0,note_on,,112.0,51.0,112.0,32928,85.75
1416,9.0,,,,51.0,,,,,44,note_on,,0.0,51.0,0.0,32972,85.86458333333333
1417,9.0,,,,42.0,,,,,0,note_on,,0.0,42.0,0.0,32972,85.86458333333333
1418,9.0,,,,35.0,,,,,4,note_on,,112.0,35.0,112.0,32976,85.875
1419,9.0,,,,35.0,,,,,44,note_on,,0.0,35.0,0.0,33020,85.98958333333333
1420,9.0,,,,35.0,,,,,4,note_on,,112.0,35.0,112.0,33024,86.0
1421,9.0,,,,42.0,,,,,0,note_on,,88.0,42.0,88.0,33024,86.0
1422,9.0,,,,42.0,,,,,44,note_on,,0.0,42.0,0.0,33068,86.11458333333333
1423,9.0,,,,35.0,,,,,0,note_on,,0.0,35.0,0.0,33068,86.11458333333333
1424,9.0,,,,35.0,,,,,52,note_on,,112.0,35.0,112.0,33120,86.25
1425,9.0,,,,42.0,,,,,0,note_on,,88.0,42.0,88.0,33120,86.25
1426,9.0,,,,42.0,,,,,44,note_on,,0.0,42.0,0.0,33164,86.36458333333333
1427,9.0,,,,35.0,,,,,0,note_on,,0.0,35.0,0.0,33164,86.36458333333333
1428,9.0,,,,42.0,,,,,52,note_on,,88.0,42.0,88.0,33216,86.5
1429,9.0,,,,35.0,,,,,0,note_on,,112.0,35.0,112.0,33216,86.5
1430,9.0,,,,40.0,,,,,0,note_on,,112.0,40.0,112.0,33216,86.5
1431,9.0,,,,51.0,,,,,0,note_on,,112.0,51.0,112.0,33216,86.5
1432,9.0,,,,40.0,,,,,44,note_on,,0.0,40.0,0.0,33260,86.61458333333333
1433,9.0,,,,51.0,,,,,0,note_on,,0.0,51.0,0.0,33260,86.61458333333333
1434,9.0,,,,35.0,,,,,0,note_on,,0.0,35.0,0.0,33260,86.61458333333333
1435,9.0,,,,42.0,,,,,0,note_on,,0.0,42.0,0.0,33260,86.61458333333333
1436,9.0,,,,42.0,,,,,52,note_on,,88.0,42.0,88.0,33312,86.75
1437,9.0,,,,42.0,,,,,44,note_on,,0.0,42.0,0.0,33356,86.86458333333333
1438,9.0,,,,42.0,,,,,52,note_on,,88.0,42.0,88.0,33408,87.0
1439,9.0,,,,35.0,,,,,0,note_on,,112.0,35.0,112.0,33408,87.0
1440,9.0,,,,42.0,,,,,44,note_on,,0.0,42.0,0.0,33452,87.11458333333333
1441,9.0,,,,35.0,,,,,0,note_on,,0.0,35.0,0.0,33452,87.11458333333333
1442,9.0,,,,42.0,,,,,52,note_on,,88.0,42.0,88.0,33504,87.25
1443,9.0,,,,35.0,,,,,0,note_on,,112.0,35.0,112.0,33504,87.25
1444,9.0,,,,35.0,,,,,44,note_on,,0.0,35.0,0.0,33548,87.36458333333333
1445,9.0,,,,42.0,,,,,0,note_on,,0.0,42.0,0.0,33548,87.36458333333333
1446,9.0,,,,51.0,,,,,52,note_on,,112.0,51.0,112.0,33600,87.5
1447,9.0,,,,42.0,,,,,0,note_on,,88.0,42.0,88.0,33600,87.5
1448,9.0,,,,35.0,,,,,0,note_on,,112.0,35.0,112.0,33600,87.5
1449,9.0,,,,40.0,,,,,0,note_on,,112.0,40.0,112.0,33600,87.5
1450,9.0,,,,51.0,,,,,44,note_on,,0.0,51.0,0.0,33644,87.61458333333333
1451,9.0,,,,40.0,,,,,0,note_on,,0.0,40.0,0.0,33644,87.61458333333333
1452,9.0,,,,35.0,,,,,0,note_on,,0.0,35.0,0.0,33644,87.61458333333333
1453,9.0,,,,42.0,,,,,0,note_on,,0.0,42.0,0.0,33644,87.61458333333333
1454,9.0,,,,51.0,,,,,52,note_on,,112.0,51.0,112.0,33696,87.75
1455,9.0,,,,42.0,,,,,0,note_on,,88.0,42.0,88.0,33696,87.75
1456,9.0,,,,51.0,,,,,44,note_on,,0.0,51.0,0.0,33740,87.86458333333333
1457,9.0,,,,42.0,,,,,0,note_on,,0.0,42.0,0.0,33740,87.86458333333333
1458,9.0,,,,35.0,,,,,4,note_on,,112.0,35.0,112.0,33744,87.875
1459,9.0,,,,35.0,,,,,44,note_on,,0.0,35.0,0.0,33788,87.98958333333333
1460,9.0,,,,42.0,,,,,4,note_on,,88.0,42.0,88.0,33792,88.0
1461,9.0,,,,35.0,,,,,0,note_on,,112.0,35.0,112.0,33792,88.0
1462,9.0,,,,42.0,,,,,44,note_on,,0.0,42.0,0.0,33836,88.11458333333333
1463,9.0,,,,35.0,,,,,0,note_on,,0.0,35.0,0.0,33836,88.11458333333333
1464,9.0,,,,42.0,,,,,52,note_on,,88.0,42.0,88.0,33888,88.25
1465,9.0,,,,35.0,,,,,0,note_on,,112.0,35.0,112.0,33888,88.25
1466,9.0,,,,35.0,,,,,44,note_on,,0.0,35.0,0.0,33932,88.36458333333333
1467,9.0,,,,42.0,,,,,0,note_on,,0.0,42.0,0.0,33932,88.36458333333333
1468,9.0,,,,51.0,,,,,52,note_on,,112.0,51.0,112.0,33984,88.5
1469,9.0,,,,42.0,,,,,0,note_on,,88.0,42.0,88.0,33984,88.5
1470,9.0,,,,40.0,,,,,0,note_on,,112.0,40.0,112.0,33984,88.5
1471,9.0,,,,35.0,,,,,0,note_on,,112.0,35.0,112.0,33984,88.5
1472,9.0,,,,51.0,,,,,44,note_on,,0.0,51.0,0.0,34028,88.61458333333333
1473,9.0,,,,40.0,,,,,0,note_on,,0.0,40.0,0.0,34028,88.61458333333333
1474,9.0,,,,35.0,,,,,0,note_on,,0.0,35.0,0.0,34028,88.61458333333333
1475,9.0,,,,42.0,,,,,0,note_on,,0.0,42.0,0.0,34028,88.61458333333333
1476,9.0,,,,42.0,,,,,52,note_on,,88.0,42.0,88.0,34080,88.75
1477,9.0,,,,42.0,,,,,44,note_on,,0.0,42.0,0.0,34124,88.86458333333333
1478,9.0,,,,35.0,,,,,52,note_on,,112.0,35.0,112.0,34176,89.0
1479,9.0,,,,42.0,,,,,0,note_on,,88.0,42.0,88.0,34176,89.0
1480,9.0,,,,42.0,,,,,44,note_on,,0.0,42.0,0.0,34220,89.11458333333333
1481,9.0,,,,35.0,,,,,0,note_on,,0.0,35.0,0.0,34220,89.11458333333333
1482,9.0,,,,42.0,,,,,52,note_on,,88.0,42.0,88.0,34272,89.25
1483,9.0,,,,35.0,,,,,0,note_on,,112.0,35.0,112.0,34272,89.25
1484,9.0,,,,35.0,,,,,44,note_on,,0.0,35.0,0.0,34316,89.36458333333333
1485,9.0,,,,42.0,,,,,0,note_on,,0.0,42.0,0.0,34316,89.36458333333333
1486,9.0,,,,40.0,,,,,52,note_on,,112.0,40.0,112.0,34368,89.5
1487,9.0,,,,42.0,,,,,0,note_on,,88.0,42.0,88.0,34368,89.5
1488,9.0,,,,51.0,,,,,0,note_on,,112.0,51.0,112.0,34368,89.5
1489,9.0,,,,35.0,,,,,0,note_on,,112.0,35.0,112.0,34368,89.5
1490,9.0,,,,51.0,,,,,44,note_on,,0.0,51.0,0.0,34412,89.61458333333333
1491,9.0,,,,42.0,,,,,0,note_on,,0.0,42.0,0.0,34412,89.61458333333333
1492,9.0,,,,40.0,,,,,0,note_on,,0.0,40.0,0.0,34412,89.61458333333333
1493,9.0,,,,35.0,,,,,0,note_on,,0.0,35.0,0.0,34412,89.61458333333333
1494,9.0,,,,42.0,,,,,52,note_on,,88.0,42.0,88.0,34464,89.75
1495,9.0,,,,51.0,,,,,0,note_on,,112.0,51.0,112.0,34464,89.75
1496,9.0,,,,51.0,,,,,44,note_on,,0.0,51.0,0.0,34508,89.86458333333333
1497,9.0,,,,42.0,,,,,0,note_on,,0.0,42.0,0.0,34508,89.86458333333333
1498,9.0,,,,35.0,,,,,4,note_on,,112.0,35.0,112.0,34512,89.875
1499,9.0,,,,35.0,,,,,44,note_on,,0.0,35.0,0.0,34556,89.98958333333333
1500,9.0,,,,35.0,,,,,4,note_on,,112.0,35.0,112.0,34560,90.0
1501,9.0,,,,42.0,,,,,0,note_on,,88.0,42.0,88.0,34560,90.0
1502,9.0,,,,42.0,,,,,44,note_on,,0.0,42.0,0.0,34604,90.11458333333333
1503,9.0,,,,35.0,,,,,0,note_on,,0.0,35.0,0.0,34604,90.11458333333333
1504,9.0,,,,35.0,,,,,52,note_on,,112.0,35.0,112.0,34656,90.25
1505,9.0,,,,42.0,,,,,0,note_on,,88.0,42.0,88.0,34656,90.25
1506,9.0,,,,42.0,,,,,44,note_on,,0.0,42.0,0.0,34700,90.36458333333333
1507,9.0,,,,35.0,,,,,0,note_on,,0.0,35.0,0.0,34700,90.36458333333333
1508,9.0,,,,42.0,,,,,52,note_on,,88.0,42.0,88.0,34752,90.5
1509,9.0,,,,35.0,,,,,0,note_on,,112.0,35.0,112.0,34752,90.5
1510,9.0,,,,51.0,,,,,0,note_on,,112.0,51.0,112.0,34752,90.5
1511,9.0,,,,40.0,,,,,0,note_on,,112.0,40.0,112.0,34752,90.5
1512,9.0,,,,51.0,,,,,44,note_on,,0.0,51.0,0.0,34796,90.61458333333333
1513,9.0,,,,40.0,,,,,0,note_on,,0.0,40.0,0.0,34796,90.61458333333333
1514,9.0,,,,35.0,,,,,0,note_on,,0.0,35.0,0.0,34796,90.61458333333333
1515,9.0,,,,42.0,,,,,0,note_on,,0.0,42.0,0.0,34796,90.61458333333333
1516,9.0,,,,42.0,,,,,52,note_on,,88.0,42.0,88.0,34848,90.75
1517,9.0,,,,42.0,,,,,44,note_on,,0.0,42.0,0.0,34892,90.86458333333333
1518,9.0,,,,35.0,,,,,52,note_on,,112.0,35.0,112.0,34944,91.0
1519,9.0,,,,42.0,,,,,0,note_on,,88.0,42.0,88.0,34944,91.0
1520,9.0,,,,35.0,,,,,44,note_on,,0.0,35.0,0.0,34988,91.11458333333333
1521,9.0,,,,42.0,,,,,0,note_on,,0.0,42.0,0.0,34988,91.11458333333333
1522,9.0,,,,42.0,,,,,52,note_on,,88.0,42.0,88.0,35040,91.25
1523,9.0,,,,35.0,,,,,0,note_on,,112.0,35.0,112.0,35040,91.25
1524,9.0,,,,35.0,,,,,44,note_on,,0.0,35.0,0.0,35084,91.36458333333333
1525,9.0,,,,42.0,,,,,0,note_on,,0.0,42.0,0.0,35084,91.36458333333333
1526,9.0,,,,42.0,,,,,52,note_on,,88.0,42.0,88.0,35136,91.5
1527,9.0,,,,35.0,,,,,0,note_on,,112.0,35.0,112.0,35136,91.5
1528,9.0,,,,51.0,,,,,0,note_on,,112.0,51.0,112.0,35136,91.5
1529,9.0,,,,40.0,,,,,0,note_on,,112.0,40.0,112.0,35136,91.5
1530,9.0,,,,42.0,,,,,44,note_on,,0.0,42.0,0.0,35180,91.61458333333333
1531,9.0,,,,40.0,,,,,0,note_on,,0.0,40.0,0.0,35180,91.61458333333333
1532,9.0,,,,51.0,,,,,0,note_on,,0.0,51.0,0.0,35180,91.61458333333333
1533,9.0,,,,35.0,,,,,0,note_on,,0.0,35.0,0.0,35180,91.61458333333333
1534,9.0,,,,51.0,,,,,52,note_on,,112.0,51.0,112.0,35232,91.75
1535,9.0,,,,42.0,,,,,0,note_on,,88.0,42.0,88.0,35232,91.75
1536,9.0,,,,51.0,,,,,44,note_on,,0.0,51.0,0.0,35276,91.86458333333333
1537,9.0,,,,42.0,,,,,0,note_on,,0.0,42.0,0.0,35276,91.86458333333333
1538,9.0,,,,35.0,,,,,4,note_on,,112.0,35.0,112.0,35280,91.875
1539,9.0,,,,35.0,,,,,44,note_on,,0.0,35.0,0.0,35324,91.98958333333333
1540,9.0,,,,35.0,,,,,4,note_on,,112.0,35.0,112.0,35328,92.0
1541,9.0,,,,42.0,,,,,0,note_on,,88.0,42.0,88.0,35328,92.0
1542,9.0,,,,35.0,,,,,44,note_on,,0.0,35.0,0.0,35372,92.11458333333333
1543,9.0,,,,42.0,,,,,0,note_on,,0.0,42.0,0.0,35372,92.11458333333333
1544,9.0,,,,42.0,,,,,52,note_on,,88.0,42.0,88.0,35424,92.25
1545,9.0,,,,35.0,,,,,0,note_on,,112.0,35.0,112.0,35424,92.25
1546,9.0,,,,42.0,,,,,44,note_on,,0.0,42.0,0.0,35468,92.36458333333333
1547,9.0,,,,35.0,,,,,0,note_on,,0.0,35.0,0.0,35468,92.36458333333333
1548,9.0,,,,42.0,,,,,52,note_on,,88.0,42.0,88.0,35520,92.5
1549,9.0,,,,51.0,,,,,0,note_on,,112.0,51.0,112.0,35520,92.5
1550,9.0,,,,40.0,,,,,0,note_on,,112.0,40.0,112.0,35520,92.5
1551,9.0,,,,35.0,,,,,0,note_on,,112.0,35.0,112.0,35520,92.5
1552,9.0,,,,42.0,,,,,44,note_on,,0.0,42.0,0.0,35564,92.61458333333333
1553,9.0,,,,40.0,,,,,0,note_on,,0.0,40.0,0.0,35564,92.61458333333333
1554,9.0,,,,35.0,,,,,0,note_on,,0.0,35.0,0.0,35564,92.61458333333333
1555,9.0,,,,51.0,,,,,0,note_on,,0.0,51.0,0.0,35564,92.61458333333333
1556,9.0,,,,42.0,,,,,52,note_on,,88.0,42.0,88.0,35616,92.75
1557,9.0,,,,42.0,,,,,44,note_on,,0.0,42.0,0.0,35660,92.86458333333333
1558,9.0,,,,42.0,,,,,52,note_on,,88.0,42.0,88.0,35712,93.0
1559,9.0,,,,35.0,,,,,0,note_on,,112.0,35.0,112.0,35712,93.0
1560,9.0,,,,42.0,,,,,44,note_on,,0.0,42.0,0.0,35756,93.11458333333333
1561,9.0,,,,35.0,,,,,0,note_on,,0.0,35.0,0.0,35756,93.11458333333333
1562,9.0,,,,35.0,,,,,52,note_on,,112.0,35.0,112.0,35808,93.25
1563,9.0,,,,42.0,,,,,0,note_on,,88.0,42.0,88.0,35808,93.25
1564,9.0,,,,42.0,,,,,44,note_on,,0.0,42.0,0.0,35852,93.36458333333333
1565,9.0,,,,35.0,,,,,0,note_on,,0.0,35.0,0.0,35852,93.36458333333333
1566,9.0,,,,51.0,,,,,52,note_on,,112.0,51.0,112.0,35904,93.5
1567,9.0,,,,35.0,,,,,0,note_on,,112.0,35.0,112.0,35904,93.5
1568,9.0,,,,40.0,,,,,0,note_on,,112.0,40.0,112.0,35904,93.5
1569,9.0,,,,42.0,,,,,0,note_on,,88.0,42.0,88.0,35904,93.5
1570,9.0,,,,40.0,,,,,44,note_on,,0.0,40.0,0.0,35948,93.61458333333333
1571,9.0,,,,35.0,,,,,0,note_on,,0.0,35.0,0.0,35948,93.61458333333333
1572,9.0,,,,51.0,,,,,0,note_on,,0.0,51.0,0.0,35948,93.61458333333333
1573,9.0,,,,42.0,,,,,0,note_on,,0.0,42.0,0.0,35948,93.61458333333333
1574,9.0,,,,42.0,,,,,52,note_on,,88.0,42.0,88.0,36000,93.75
1575,9.0,,,,51.0,,,,,0,note_on,,112.0,51.0,112.0,36000,93.75
1576,9.0,,,,51.0,,,,,44,note_on,,0.0,51.0,0.0,36044,93.86458333333333
1577,9.0,,,,42.0,,,,,0,note_on,,0.0,42.0,0.0,36044,93.86458333333333
1578,9.0,,,,35.0,,,,,4,note_on,,112.0,35.0,112.0,36048,93.875
1579,9.0,,,,35.0,,,,,44,note_on,,0.0,35.0,0.0,36092,93.98958333333333
1580,9.0,,,,42.0,,,,,4,note_on,,88.0,42.0,88.0,36096,94.0
1581,9.0,,,,35.0,,,,,0,note_on,,112.0,35.0,112.0,36096,94.0
1582,9.0,,,,35.0,,,,,44,note_on,,0.0,35.0,0.0,36140,94.11458333333333
1583,9.0,,,,42.0,,,,,0,note_on,,0.0,42.0,0.0,36140,94.11458333333333
1584,9.0,,,,35.0,,,,,52,note_on,,112.0,35.0,112.0,36192,94.25
1585,9.0,,,,42.0,,,,,0,note_on,,88.0,42.0,88.0,36192,94.25
1586,9.0,,,,42.0,,,,,44,note_on,,0.0,42.0,0.0,36236,94.36458333333333
1587,9.0,,,,35.0,,,,,0,note_on,,0.0,35.0,0.0,36236,94.36458333333333
1588,9.0,,,,35.0,,,,,52,note_on,,112.0,35.0,112.0,36288,94.5
1589,9.0,,,,51.0,,,,,0,note_on,,112.0,51.0,112.0,36288,94.5
1590,9.0,,,,42.0,,,,,0,note_on,,88.0,42.0,88.0,36288,94.5
1591,9.0,,,,40.0,,,,,0,note_on,,112.0,40.0,112.0,36288,94.5
1592,9.0,,,,42.0,,,,,44,note_on,,0.0,42.0,0.0,36332,94.61458333333333
1593,9.0,,,,40.0,,,,,0,note_on,,0.0,40.0,0.0,36332,94.61458333333333
1594,9.0,,,,51.0,,,,,0,note_on,,0.0,51.0,0.0,36332,94.61458333333333
1595,9.0,,,,35.0,,,,,0,note_on,,0.0,35.0,0.0,36332,94.61458333333333
1596,9.0,,,,42.0,,,,,52,note_on,,88.0,42.0,88.0,36384,94.75
1597,9.0,,,,42.0,,,,,44,note_on,,0.0,42.0,0.0,36428,94.86458333333333
1598,9.0,,,,42.0,,,,,52,note_on,,88.0,42.0,88.0,36480,95.0
1599,9.0,,,,35.0,,,,,0,note_on,,112.0,35.0,112.0,36480,95.0
1600,9.0,,,,42.0,,,,,44,note_on,,0.0,42.0,0.0,36524,95.11458333333333
1601,9.0,,,,35.0,,,,,0,note_on,,0.0,35.0,0.0,36524,95.11458333333333
1602,9.0,,,,35.0,,,,,52,note_on,,112.0,35.0,112.0,36576,95.25
1603,9.0,,,,42.0,,,,,0,note_on,,88.0,42.0,88.0,36576,95.25
1604,9.0,,,,42.0,,,,,44,note_on,,0.0,42.0,0.0,36620,95.36458333333333
1605,9.0,,,,35.0,,,,,0,note_on,,0.0,35.0,0.0,36620,95.36458333333333
1606,9.0,,,,35.0,,,,,52,note_on,,112.0,35.0,112.0,36672,95.5
1607,9.0,,,,42.0,,,,,0,note_on,,88.0,42.0,88.0,36672,95.5
1608,9.0,,,,40.0,,,,,0,note_on,,112.0,40.0,112.0,36672,95.5
1609,9.0,,,,51.0,,,,,0,note_on,,112.0,51.0,112.0,36672,95.5
1610,9.0,,,,35.0,,,,,44,note_on,,0.0,35.0,0.0,36716,95.61458333333333
1611,9.0,,,,51.0,,,,,0,note_on,,0.0,51.0,0.0,36716,95.61458333333333
1612,9.0,,,,40.0,,,,,0,note_on,,0.0,40.0,0.0,36716,95.61458333333333
1613,9.0,,,,42.0,,,,,0,note_on,,0.0,42.0,0.0,36716,95.61458333333333
1614,9.0,,,,51.0,,,,,52,note_on,,112.0,51.0,112.0,36768,95.75
1615,9.0,,,,42.0,,,,,0,note_on,,88.0,42.0,88.0,36768,95.75
1616,9.0,,,,51.0,,,,,44,note_on,,0.0,51.0,0.0,36812,95.86458333333333
1617,9.0,,,,42.0,,,,,0,note_on,,0.0,42.0,0.0,36812,95.86458333333333
1618,9.0,,,,35.0,,,,,820,note_on,,112.0,35.0,112.0,37632,98.0
1619,9.0,,,,42.0,,,,,0,note_on,,88.0,42.0,88.0,37632,98.0
1620,9.0,,,,49.0,,,,,0,note_on,,112.0,49.0,112.0,37632,98.0
1621,9.0,,,,49.0,,,,,44,note_on,,0.0,49.0,0.0,37676,98.11458333333333
1622,9.0,,,,42.0,,,,,0,note_on,,0.0,42.0,0.0,37676,98.11458333333333
1623,9.0,,,,35.0,,,,,0,note_on,,0.0,35.0,0.0,37676,98.11458333333333
1624,9.0,,,,42.0,,,,,52,note_on,,88.0,42.0,88.0,37728,98.25
1625,9.0,,,,35.0,,,,,0,note_on,,112.0,35.0,112.0,37728,98.25
1626,9.0,,,,42.0,,,,,44,note_on,,0.0,42.0,0.0,37772,98.36458333333333
1627,9.0,,,,35.0,,,,,0,note_on,,0.0,35.0,0.0,37772,98.36458333333333
1628,9.0,,,,40.0,,,,,52,note_on,,112.0,40.0,112.0,37824,98.5
1629,9.0,,,,51.0,,,,,0,note_on,,112.0,51.0,112.0,37824,98.5
1630,9.0,,,,35.0,,,,,0,note_on,,112.0,35.0,112.0,37824,98.5
1631,9.0,,,,42.0,,,,,0,note_on,,88.0,42.0,88.0,37824,98.5
1632,9.0,,,,40.0,,,,,44,note_on,,0.0,40.0,0.0,37868,98.61458333333333
1633,9.0,,,,35.0,,,,,0,note_on,,0.0,35.0,0.0,37868,98.61458333333333
1634,9.0,,,,42.0,,,,,0,note_on,,0.0,42.0,0.0,37868,98.61458333333333
1635,9.0,,,,51.0,,,,,0,note_on,,0.0,51.0,0.0,37868,98.61458333333333
1636,9.0,,,,42.0,,,,,52,note_on,,88.0,42.0,88.0,37920,98.75
1637,9.0,,,,42.0,,,,,44,note_on,,0.0,42.0,0.0,37964,98.86458333333333
1638,9.0,,,,42.0,,,,,52,note_on,,88.0,42.0,88.0,38016,99.0
1639,9.0,,,,35.0,,,,,0,note_on,,112.0,35.0,112.0,38016,99.0
1640,9.0,,,,42.0,,,,,44,note_on,,0.0,42.0,0.0,38060,99.11458333333333
1641,9.0,,,,35.0,,,,,0,note_on,,0.0,35.0,0.0,38060,99.11458333333333
1642,9.0,,,,35.0,,,,,52,note_on,,112.0,35.0,112.0,38112,99.25
1643,9.0,,,,42.0,,,,,0,note_on,,88.0,42.0,88.0,38112,99.25
1644,9.0,,,,42.0,,,,,44,note_on,,0.0,42.0,0.0,38156,99.36458333333333
1645,9.0,,,,35.0,,,,,0,note_on,,0.0,35.0,0.0,38156,99.36458333333333
1646,9.0,,,,40.0,,,,,52,note_on,,112.0,40.0,112.0,38208,99.5
1647,9.0,,,,35.0,,,,,0,note_on,,112.0,35.0,112.0,38208,99.5
1648,9.0,,,,42.0,,,,,0,note_on,,88.0,42.0,88.0,38208,99.5
1649,9.0,,,,51.0,,,,,0,note_on,,112.0,51.0,112.0,38208,99.5
1650,9.0,,,,42.0,,,,,44,note_on,,0.0,42.0,0.0,38252,99.61458333333333
1651,9.0,,,,35.0,,,,,0,note_on,,0.0,35.0,0.0,38252,99.61458333333333
1652,9.0,,,,40.0,,,,,0,note_on,,0.0,40.0,0.0,38252,99.61458333333333
1653,9.0,,,,51.0,,,,,0,note_on,,0.0,51.0,0.0,38252,99.61458333333333
1654,9.0,,,,51.0,,,,,52,note_on,,112.0,51.0,112.0,38304,99.75
1655,9.0,,,,42.0,,,,,0,note_on,,88.0,42.0,88.0,38304,99.75
1656,9.0,,,,42.0,,,,,44,note_on,,0.0,42.0,0.0,38348,99.86458333333333
1657,9.0,,,,51.0,,,,,0,note_on,,0.0,51.0,0.0,38348,99.86458333333333
1658,9.0,,,,35.0,,,,,4,note_on,,112.0,35.0,112.0,38352,99.875
1659,9.0,,,,35.0,,,,,44,note_on,,0.0,35.0,0.0,38396,99.98958333333333
1660,9.0,,,,42.0,,,,,4,note_on,,88.0,42.0,88.0,38400,100.0
1661,9.0,,,,35.0,,,,,0,note_on,,112.0,35.0,112.0,38400,100.0
1662,9.0,,,,42.0,,,,,44,note_on,,0.0,42.0,0.0,38444,100.11458333333333
1663,9.0,,,,35.0,,,,,0,note_on,,0.0,35.0,0.0,38444,100.11458333333333
1664,9.0,,,,42.0,,,,,52,note_on,,88.0,42.0,88.0,38496,100.25
1665,9.0,,,,35.0,,,,,0,note_on,,112.0,35.0,112.0,38496,100.25
1666,9.0,,,,35.0,,,,,44,note_on,,0.0,35.0,0.0,38540,100.36458333333333
1667,9.0,,,,42.0,,,,,0,note_on,,0.0,42.0,0.0,38540,100.36458333333333
1668,9.0,,,,51.0,,,,,52,note_on,,112.0,51.0,112.0,38592,100.5
1669,9.0,,,,35.0,,,,,0,note_on,,112.0,35.0,112.0,38592,100.5
1670,9.0,,,,40.0,,,,,0,note_on,,112.0,40.0,112.0,38592,100.5
1671,9.0,,,,42.0,,,,,0,note_on,,88.0,42.0,88.0,38592,100.5
1672,9.0,,,,35.0,,,,,44,note_on,,0.0,35.0,0.0,38636,100.61458333333333
1673,9.0,,,,40.0,,,,,0,note_on,,0.0,40.0,0.0,38636,100.61458333333333
1674,9.0,,,,51.0,,,,,0,note_on,,0.0,51.0,0.0,38636,100.61458333333333
1675,9.0,,,,42.0,,,,,0,note_on,,0.0,42.0,0.0,38636,100.61458333333333
1676,9.0,,,,42.0,,,,,52,note_on,,88.0,42.0,88.0,38688,100.75
1677,9.0,,,,42.0,,,,,44,note_on,,0.0,42.0,0.0,38732,100.86458333333333
1678,9.0,,,,42.0,,,,,52,note_on,,88.0,42.0,88.0,38784,101.0
1679,9.0,,,,35.0,,,,,0,note_on,,112.0,35.0,112.0,38784,101.0
1680,9.0,,,,42.0,,,,,44,note_on,,0.0,42.0,0.0,38828,101.11458333333333
1681,9.0,,,,35.0,,,,,0,note_on,,0.0,35.0,0.0,38828,101.11458333333333
1682,9.0,,,,42.0,,,,,52,note_on,,88.0,42.0,88.0,38880,101.25
1683,9.0,,,,35.0,,,,,0,note_on,,112.0,35.0,112.0,38880,101.25
1684,9.0,,,,35.0,,,,,44,note_on,,0.0,35.0,0.0,38924,101.36458333333333
1685,9.0,,,,42.0,,,,,0,note_on,,0.0,42.0,0.0,38924,101.36458333333333
1686,9.0,,,,51.0,,,,,52,note_on,,112.0,51.0,112.0,38976,101.5
1687,9.0,,,,42.0,,,,,0,note_on,,88.0,42.0,88.0,38976,101.5
1688,9.0,,,,40.0,,,,,0,note_on,,112.0,40.0,112.0,38976,101.5
1689,9.0,,,,35.0,,,,,0,note_on,,112.0,35.0,112.0,38976,101.5
1690,9.0,,,,51.0,,,,,44,note_on,,0.0,51.0,0.0,39020,101.61458333333333
1691,9.0,,,,35.0,,,,,0,note_on,,0.0,35.0,0.0,39020,101.61458333333333
1692,9.0,,,,40.0,,,,,0,note_on,,0.0,40.0,0.0,39020,101.61458333333333
1693,9.0,,,,42.0,,,,,0,note_on,,0.0,42.0,0.0,39020,101.61458333333333
1694,9.0,,,,51.0,,,,,52,note_on,,112.0,51.0,112.0,39072,101.75
1695,9.0,,,,42.0,,,,,0,note_on,,88.0,42.0,88.0,39072,101.75
1696,9.0,,,,42.0,,,,,44,note_on,,0.0,42.0,0.0,39116,101.86458333333333
1697,9.0,,,,51.0,,,,,0,note_on,,0.0,51.0,0.0,39116,101.86458333333333
1698,9.0,,,,35.0,,,,,4,note_on,,112.0,35.0,112.0,39120,101.875
1699,9.0,,,,35.0,,,,,44,note_on,,0.0,35.0,0.0,39164,101.98958333333333
1700,9.0,,,,35.0,,,,,4,note_on,,112.0,35.0,112.0,39168,102.0
1701,9.0,,,,42.0,,,,,0,note_on,,88.0,42.0,88.0,39168,102.0
1702,9.0,,,,42.0,,,,,44,note_on,,0.0,42.0,0.0,39212,102.11458333333333
1703,9.0,,,,35.0,,,,,0,note_on,,0.0,35.0,0.0,39212,102.11458333333333
1704,9.0,,,,35.0,,,,,52,note_on,,112.0,35.0,112.0,39264,102.25
1705,9.0,,,,42.0,,,,,0,note_on,,88.0,42.0,88.0,39264,102.25
1706,9.0,,,,42.0,,,,,44,note_on,,0.0,42.0,0.0,39308,102.36458333333333
1707,9.0,,,,35.0,,,,,0,note_on,,0.0,35.0,0.0,39308,102.36458333333333
1708,9.0,,,,35.0,,,,,52,note_on,,112.0,35.0,112.0,39360,102.5
1709,9.0,,,,51.0,,,,,0,note_on,,112.0,51.0,112.0,39360,102.5
1710,9.0,,,,42.0,,,,,0,note_on,,88.0,42.0,88.0,39360,102.5
1711,9.0,,,,40.0,,,,,0,note_on,,112.0,40.0,112.0,39360,102.5
1712,9.0,,,,42.0,,,,,44,note_on,,0.0,42.0,0.0,39404,102.61458333333333
1713,9.0,,,,40.0,,,,,0,note_on,,0.0,40.0,0.0,39404,102.61458333333333
1714,9.0,,,,51.0,,,,,0,note_on,,0.0,51.0,0.0,39404,102.61458333333333
1715,9.0,,,,35.0,,,,,0,note_on,,0.0,35.0,0.0,39404,102.61458333333333
1716,9.0,,,,42.0,,,,,52,note_on,,88.0,42.0,88.0,39456,102.75
1717,9.0,,,,42.0,,,,,44,note_on,,0.0,42.0,0.0,39500,102.86458333333333
1718,9.0,,,,35.0,,,,,52,note_on,,112.0,35.0,112.0,39552,103.0
1719,9.0,,,,42.0,,,,,0,note_on,,88.0,42.0,88.0,39552,103.0
1720,9.0,,,,35.0,,,,,44,note_on,,0.0,35.0,0.0,39596,103.11458333333333
1721,9.0,,,,42.0,,,,,0,note_on,,0.0,42.0,0.0,39596,103.11458333333333
1722,9.0,,,,42.0,,,,,52,note_on,,88.0,42.0,88.0,39648,103.25
1723,9.0,,,,35.0,,,,,0,note_on,,112.0,35.0,112.0,39648,103.25
1724,9.0,,,,35.0,,,,,44,note_on,,0.0,35.0,0.0,39692,103.36458333333333
1725,9.0,,,,42.0,,,,,0,note_on,,0.0,42.0,0.0,39692,103.36458333333333
1726,9.0,,,,51.0,,,,,52,note_on,,112.0,51.0,112.0,39744,103.5
1727,9.0,,,,42.0,,,,,0,note_on,,88.0,42.0,88.0,39744,103.5
1728,9.0,,,,35.0,,,,,0,note_on,,112.0,35.0,112.0,39744,103.5
1729,9.0,,,,40.0,,,,,0,note_on,,112.0,40.0,112.0,39744,103.5
1730,9.0,,,,51.0,,,,,44,note_on,,0.0,51.0,0.0,39788,103.61458333333333
1731,9.0,,,,40.0,,,,,0,note_on,,0.0,40.0,0.0,39788,103.61458333333333
1732,9.0,,,,35.0,,,,,0,note_on,,0.0,35.0,0.0,39788,103.61458333333333
1733,9.0,,,,42.0,,,,,0,note_on,,0.0,42.0,0.0,39788,103.61458333333333
1734,9.0,,,,42.0,,,,,52,note_on,,88.0,42.0,88.0,39840,103.75
1735,9.0,,,,51.0,,,,,0,note_on,,112.0,51.0,112.0,39840,103.75
1736,9.0,,,,51.0,,,,,44,note_on,,0.0,51.0,0.0,39884,103.86458333333333
1737,9.0,,,,42.0,,,,,0,note_on,,0.0,42.0,0.0,39884,103.86458333333333
1738,9.0,,,,35.0,,,,,4,note_on,,112.0,35.0,112.0,39888,103.875
1739,9.0,,,,35.0,,,,,44,note_on,,0.0,35.0,0.0,39932,103.98958333333333
1740,9.0,,,,42.0,,,,,4,note_on,,88.0,42.0,88.0,39936,104.0
1741,9.0,,,,35.0,,,,,0,note_on,,112.0,35.0,112.0,39936,104.0
1742,9.0,,,,42.0,,,,,44,note_on,,0.0,42.0,0.0,39980,104.11458333333333
1743,9.0,,,,35.0,,,,,0,note_on,,0.0,35.0,0.0,39980,104.11458333333333
1744,9.0,,,,35.0,,,,,52,note_on,,112.0,35.0,112.0,40032,104.25
1745,9.0,,,,42.0,,,,,0,note_on,,88.0,42.0,88.0,40032,104.25
1746,9.0,,,,35.0,,,,,44,note_on,,0.0,35.0,0.0,40076,104.36458333333333
1747,9.0,,,,42.0,,,,,0,note_on,,0.0,42.0,0.0,40076,104.36458333333333
1748,9.0,,,,51.0,,,,,52,note_on,,112.0,51.0,112.0,40128,104.5
1749,9.0,,,,42.0,,,,,0,note_on,,88.0,42.0,88.0,40128,104.5
1750,9.0,,,,35.0,,,,,0,note_on,,112.0,35.0,112.0,40128,104.5
1751,9.0,,,,40.0,,,,,0,note_on,,112.0,40.0,112.0,40128,104.5
1752,9.0,,,,35.0,,,,,44,note_on,,0.0,35.0,0.0,40172,104.61458333333333
1753,9.0,,,,42.0,,,,,0,note_on,,0.0,42.0,0.0,40172,104.61458333333333
1754,9.0,,,,51.0,,,,,0,note_on,,0.0,51.0,0.0,40172,104.61458333333333
1755,9.0,,,,40.0,,,,,0,note_on,,0.0,40.0,0.0,40172,104.61458333333333
1756,9.0,,,,42.0,,,,,52,note_on,,88.0,42.0,88.0,40224,104.75
1757,9.0,,,,42.0,,,,,44,note_on,,0.0,42.0,0.0,40268,104.86458333333333
1758,9.0,,,,42.0,,,,,52,note_on,,88.0,42.0,88.0,40320,105.0
1759,9.0,,,,35.0,,,,,0,note_on,,112.0,35.0,112.0,40320,105.0
1760,9.0,,,,42.0,,,,,44,note_on,,0.0,42.0,0.0,40364,105.11458333333333
1761,9.0,,,,35.0,,,,,0,note_on,,0.0,35.0,0.0,40364,105.11458333333333
1762,9.0,,,,42.0,,,,,52,note_on,,88.0,42.0,88.0,40416,105.25
1763,9.0,,,,35.0,,,,,0,note_on,,112.0,35.0,112.0,40416,105.25
1764,9.0,,,,35.0,,,,,44,note_on,,0.0,35.0,0.0,40460,105.36458333333333
1765,9.0,,,,42.0,,,,,0,note_on,,0.0,42.0,0.0,40460,105.36458333333333
1766,9.0,,,,40.0,,,,,52,note_on,,112.0,40.0,112.0,40512,105.5
1767,9.0,,,,51.0,,,,,0,note_on,,112.0,51.0,112.0,40512,105.5
1768,9.0,,,,35.0,,,,,0,note_on,,112.0,35.0,112.0,40512,105.5
1769,9.0,,,,42.0,,,,,0,note_on,,88.0,42.0,88.0,40512,105.5
1770,9.0,,,,40.0,,,,,44,note_on,,0.0,40.0,0.0,40556,105.61458333333333
1771,9.0,,,,42.0,,,,,0,note_on,,0.0,42.0,0.0,40556,105.61458333333333
1772,9.0,,,,35.0,,,,,0,note_on,,0.0,35.0,0.0,40556,105.61458333333333
1773,9.0,,,,51.0,,,,,0,note_on,,0.0,51.0,0.0,40556,105.61458333333333
1774,9.0,,,,51.0,,,,,52,note_on,,112.0,51.0,112.0,40608,105.75
1775,9.0,,,,42.0,,,,,0,note_on,,88.0,42.0,88.0,40608,105.75
1776,9.0,,,,42.0,,,,,44,note_on,,0.0,42.0,0.0,40652,105.86458333333333
1777,9.0,,,,51.0,,,,,0,note_on,,0.0,51.0,0.0,40652,105.86458333333333
1778,9.0,,,,35.0,,,,,4,note_on,,112.0,35.0,112.0,40656,105.875
1779,9.0,,,,35.0,,,,,44,note_on,,0.0,35.0,0.0,40700,105.98958333333333
1780,9.0,,,,35.0,,,,,4,note_on,,112.0,35.0,112.0,40704,106.0
1781,9.0,,,,42.0,,,,,0,note_on,,88.0,42.0,88.0,40704,106.0
1782,9.0,,,,42.0,,,,,44,note_on,,0.0,42.0,0.0,40748,106.11458333333333
1783,9.0,,,,35.0,,,,,0,note_on,,0.0,35.0,0.0,40748,106.11458333333333
1784,9.0,,,,35.0,,,,,52,note_on,,112.0,35.0,112.0,40800,106.25
1785,9.0,,,,42.0,,,,,0,note_on,,88.0,42.0,88.0,40800,106.25
1786,9.0,,,,42.0,,,,,44,note_on,,0.0,42.0,0.0,40844,106.36458333333333
1787,9.0,,,,35.0,,,,,0,note_on,,0.0,35.0,0.0,40844,106.36458333333333
1788,9.0,,,,35.0,,,,,52,note_on,,112.0,35.0,112.0,40896,106.5
1789,9.0,,,,40.0,,,,,0,note_on,,112.0,40.0,112.0,40896,106.5
1790,9.0,,,,51.0,,,,,0,note_on,,112.0,51.0,112.0,40896,106.5
1791,9.0,,,,42.0,,,,,0,note_on,,88.0,42.0,88.0,40896,106.5
1792,9.0,,,,51.0,,,,,44,note_on,,0.0,51.0,0.0,40940,106.61458333333333
1793,9.0,,,,42.0,,,,,0,note_on,,0.0,42.0,0.0,40940,106.61458333333333
1794,9.0,,,,40.0,,,,,0,note_on,,0.0,40.0,0.0,40940,106.61458333333333
1795,9.0,,,,35.0,,,,,0,note_on,,0.0,35.0,0.0,40940,106.61458333333333
1796,9.0,,,,42.0,,,,,52,note_on,,88.0,42.0,88.0,40992,106.75
1797,9.0,,,,42.0,,,,,44,note_on,,0.0,42.0,0.0,41036,106.86458333333333
1798,9.0,,,,42.0,,,,,52,note_on,,88.0,42.0,88.0,41088,107.0
1799,9.0,,,,35.0,,,,,0,note_on,,112.0,35.0,112.0,41088,107.0
1800,9.0,,,,42.0,,,,,44,note_on,,0.0,42.0,0.0,41132,107.11458333333333
1801,9.0,,,,35.0,,,,,0,note_on,,0.0,35.0,0.0,41132,107.11458333333333
1802,9.0,,,,42.0,,,,,52,note_on,,88.0,42.0,88.0,41184,107.25
1803,9.0,,,,35.0,,,,,0,note_on,,112.0,35.0,112.0,41184,107.25
1804,9.0,,,,35.0,,,,,44,note_on,,0.0,35.0,0.0,41228,107.36458333333333
1805,9.0,,,,42.0,,,,,0,note_on,,0.0,42.0,0.0,41228,107.36458333333333
1806,9.0,,,,51.0,,,,,52,note_on,,112.0,51.0,112.0,41280,107.5
1807,9.0,,,,40.0,,,,,0,note_on,,112.0,40.0,112.0,41280,107.5
1808,9.0,,,,35.0,,,,,0,note_on,,112.0,35.0,112.0,41280,107.5
1809,9.0,,,,42.0,,,,,0,note_on,,88.0,42.0,88.0,41280,107.5
1810,9.0,,,,51.0,,,,,44,note_on,,0.0,51.0,0.0,41324,107.61458333333333
1811,9.0,,,,42.0,,,,,0,note_on,,0.0,42.0,0.0,41324,107.61458333333333
1812,9.0,,,,35.0,,,,,0,note_on,,0.0,35.0,0.0,41324,107.61458333333333
1813,9.0,,,,40.0,,,,,0,note_on,,0.0,40.0,0.0,41324,107.61458333333333
1814,9.0,,,,42.0,,,,,52,note_on,,88.0,42.0,88.0,41376,107.75
1815,9.0,,,,51.0,,,,,0,note_on,,112.0,51.0,112.0,41376,107.75
1816,9.0,,,,51.0,,,,,44,note_on,,0.0,51.0,0.0,41420,107.86458333333333
1817,9.0,,,,42.0,,,,,0,note_on,,0.0,42.0,0.0,41420,107.86458333333333
1818,9.0,,,,35.0,,,,,4,note_on,,112.0,35.0,112.0,41424,107.875
1819,9.0,,,,35.0,,,,,44,note_on,,0.0,35.0,0.0,41468,107.98958333333333
1820,9.0,,,,42.0,,,,,4,note_on,,88.0,42.0,88.0,41472,108.0
1821,9.0,,,,35.0,,,,,0,note_on,,112.0,35.0,112.0,41472,108.0
1822,9.0,,,,42.0,,,,,44,note_on,,0.0,42.0,0.0,41516,108.11458333333333
1823,9.0,,,,35.0,,,,,0,note_on,,0.0,35.0,0.0,41516,108.11458333333333
1824,9.0,,,,42.0,,,,,52,note_on,,88.0,42.0,88.0,41568,108.25
1825,9.0,,,,35.0,,,,,0,note_on,,112.0,35.0,112.0,41568,108.25
1826,9.0,,,,42.0,,,,,44,note_on,,0.0,42.0,0.0,41612,108.36458333333333
1827,9.0,,,,35.0,,,,,0,note_on,,0.0,35.0,0.0,41612,108.36458333333333
1828,9.0,,,,40.0,,,,,52,note_on,,112.0,40.0,112.0,41664,108.5
1829,9.0,,,,51.0,,,,,0,note_on,,112.0,51.0,112.0,41664,108.5
1830,9.0,,,,35.0,,,,,0,note_on,,112.0,35.0,112.0,41664,108.5
1831,9.0,,,,42.0,,,,,0,note_on,,88.0,42.0,88.0,41664,108.5
1832,9.0,,,,51.0,,,,,44,note_on,,0.0,51.0,0.0,41708,108.61458333333333
1833,9.0,,,,35.0,,,,,0,note_on,,0.0,35.0,0.0,41708,108.61458333333333
1834,9.0,,,,40.0,,,,,0,note_on,,0.0,40.0,0.0,41708,108.61458333333333
1835,9.0,,,,42.0,,,,,0,note_on,,0.0,42.0,0.0,41708,108.61458333333333
1836,9.0,,,,42.0,,,,,52,note_on,,88.0,42.0,88.0,41760,108.75
1837,9.0,,,,42.0,,,,,44,note_on,,0.0,42.0,0.0,41804,108.86458333333333
1838,9.0,,,,35.0,,,,,52,note_on,,112.0,35.0,112.0,41856,109.0
1839,9.0,,,,42.0,,,,,0,note_on,,88.0,42.0,88.0,41856,109.0
1840,9.0,,,,35.0,,,,,44,note_on,,0.0,35.0,0.0,41900,109.11458333333333
1841,9.0,,,,42.0,,,,,0,note_on,,0.0,42.0,0.0,41900,109.11458333333333
1842,9.0,,,,35.0,,,,,52,note_on,,112.0,35.0,112.0,41952,109.25
1843,9.0,,,,42.0,,,,,0,note_on,,88.0,42.0,88.0,41952,109.25
1844,9.0,,,,42.0,,,,,44,note_on,,0.0,42.0,0.0,41996,109.36458333333333
1845,9.0,,,,35.0,,,,,0,note_on,,0.0,35.0,0.0,41996,109.36458333333333
1846,9.0,,,,40.0,,,,,52,note_on,,112.0,40.0,112.0,42048,109.5
1847,9.0,,,,35.0,,,,,0,note_on,,112.0,35.0,112.0,42048,109.5
1848,9.0,,,,42.0,,,,,0,note_on,,88.0,42.0,88.0,42048,109.5
1849,9.0,,,,51.0,,,,,0,note_on,,112.0,51.0,112.0,42048,109.5
1850,9.0,,,,40.0,,,,,44,note_on,,0.0,40.0,0.0,42092,109.61458333333333
1851,9.0,,,,51.0,,,,,0,note_on,,0.0,51.0,0.0,42092,109.61458333333333
1852,9.0,,,,42.0,,,,,0,note_on,,0.0,42.0,0.0,42092,109.61458333333333
1853,9.0,,,,35.0,,,,,0,note_on,,0.0,35.0,0.0,42092,109.61458333333333
1854,9.0,,,,42.0,,,,,52,note_on,,88.0,42.0,88.0,42144,109.75
1855,9.0,,,,51.0,,,,,0,note_on,,112.0,51.0,112.0,42144,109.75
1856,9.0,,,,51.0,,,,,44,note_on,,0.0,51.0,0.0,42188,109.86458333333333
1857,9.0,,,,42.0,,,,,0,note_on,,0.0,42.0,0.0,42188,109.86458333333333
1858,9.0,,,,35.0,,,,,4,note_on,,112.0,35.0,112.0,42192,109.875
1859,9.0,,,,35.0,,,,,44,note_on,,0.0,35.0,0.0,42236,109.98958333333333
1860,9.0,,,,42.0,,,,,4,note_on,,88.0,42.0,88.0,42240,110.0
1861,9.0,,,,35.0,,,,,0,note_on,,112.0,35.0,112.0,42240,110.0
1862,9.0,,,,35.0,,,,,44,note_on,,0.0,35.0,0.0,42284,110.11458333333333
1863,9.0,,,,42.0,,,,,0,note_on,,0.0,42.0,0.0,42284,110.11458333333333
1864,9.0,,,,35.0,,,,,52,note_on,,112.0,35.0,112.0,42336,110.25
1865,9.0,,,,42.0,,,,,0,note_on,,88.0,42.0,88.0,42336,110.25
1866,9.0,,,,42.0,,,,,44,note_on,,0.0,42.0,0.0,42380,110.36458333333333
1867,9.0,,,,35.0,,,,,0,note_on,,0.0,35.0,0.0,42380,110.36458333333333
1868,9.0,,,,42.0,,,,,52,note_on,,88.0,42.0,88.0,42432,110.5
1869,9.0,,,,40.0,,,,,0,note_on,,112.0,40.0,112.0,42432,110.5
1870,9.0,,,,35.0,,,,,0,note_on,,112.0,35.0,112.0,42432,110.5
1871,9.0,,,,51.0,,,,,0,note_on,,112.0,51.0,112.0,42432,110.5
1872,9.0,,,,35.0,,,,,44,note_on,,0.0,35.0,0.0,42476,110.61458333333333
1873,9.0,,,,51.0,,,,,0,note_on,,0.0,51.0,0.0,42476,110.61458333333333
1874,9.0,,,,40.0,,,,,0,note_on,,0.0,40.0,0.0,42476,110.61458333333333
1875,9.0,,,,42.0,,,,,0,note_on,,0.0,42.0,0.0,42476,110.61458333333333
1876,9.0,,,,42.0,,,,,52,note_on,,88.0,42.0,88.0,42528,110.75
1877,9.0,,,,42.0,,,,,44,note_on,,0.0,42.0,0.0,42572,110.86458333333333
1878,9.0,,,,42.0,,,,,52,note_on,,88.0,42.0,88.0,42624,111.0
1879,9.0,,,,35.0,,,,,0,note_on,,112.0,35.0,112.0,42624,111.0
1880,9.0,,,,42.0,,,,,44,note_on,,0.0,42.0,0.0,42668,111.11458333333333
1881,9.0,,,,35.0,,,,,0,note_on,,0.0,35.0,0.0,42668,111.11458333333333
1882,9.0,,,,35.0,,,,,52,note_on,,112.0,35.0,112.0,42720,111.25
1883,9.0,,,,42.0,,,,,0,note_on,,88.0,42.0,88.0,42720,111.25
1884,9.0,,,,42.0,,,,,44,note_on,,0.0,42.0,0.0,42764,111.36458333333333
1885,9.0,,,,35.0,,,,,0,note_on,,0.0,35.0,0.0,42764,111.36458333333333
1886,9.0,,,,35.0,,,,,52,note_on,,112.0,35.0,112.0,42816,111.5
1887,9.0,,,,51.0,,,,,0,note_on,,112.0,51.0,112.0,42816,111.5
1888,9.0,,,,42.0,,,,,0,note_on,,88.0,42.0,88.0,42816,111.5
1889,9.0,,,,40.0,,,,,0,note_on,,112.0,40.0,112.0,42816,111.5
1890,9.0,,,,35.0,,,,,44,note_on,,0.0,35.0,0.0,42860,111.61458333333333
1891,9.0,,,,40.0,,,,,0,note_on,,0.0,40.0,0.0,42860,111.61458333333333
1892,9.0,,,,42.0,,,,,0,note_on,,0.0,42.0,0.0,42860,111.61458333333333
1893,9.0,,,,51.0,,,,,0,note_on,,0.0,51.0,0.0,42860,111.61458333333333
1894,9.0,,,,42.0,,,,,52,note_on,,88.0,42.0,88.0,42912,111.75
1895,9.0,,,,51.0,,,,,0,note_on,,112.0,51.0,112.0,42912,111.75
1896,9.0,,,,51.0,,,,,44,note_on,,0.0,51.0,0.0,42956,111.86458333333333
1897,9.0,,,,42.0,,,,,0,note_on,,0.0,42.0,0.0,42956,111.86458333333333
1898,9.0,,,,35.0,,,,,4,note_on,,112.0,35.0,112.0,42960,111.875
1899,9.0,,,,35.0,,,,,44,note_on,,0.0,35.0,0.0,43004,111.98958333333333
1900,9.0,,,,42.0,,,,,4,note_on,,88.0,42.0,88.0,43008,112.0
1901,9.0,,,,35.0,,,,,0,note_on,,112.0,35.0,112.0,43008,112.0
1902,9.0,,,,42.0,,,,,44,note_on,,0.0,42.0,0.0,43052,112.11458333333333
1903,9.0,,,,35.0,,,,,0,note_on,,0.0,35.0,0.0,43052,112.11458333333333
1904,9.0,,,,42.0,,,,,52,note_on,,88.0,42.0,88.0,43104,112.25
1905,9.0,,,,35.0,,,,,0,note_on,,112.0,35.0,112.0,43104,112.25
1906,9.0,,,,42.0,,,,,44,note_on,,0.0,42.0,0.0,43148,112.36458333333333
1907,9.0,,,,35.0,,,,,0,note_on,,0.0,35.0,0.0,43148,112.36458333333333
1908,9.0,,,,42.0,,,,,52,note_on,,88.0,42.0,88.0,43200,112.5
1909,9.0,,,,35.0,,,,,0,note_on,,112.0,35.0,112.0,43200,112.5
1910,9.0,,,,51.0,,,,,0,note_on,,112.0,51.0,112.0,43200,112.5
1911,9.0,,,,40.0,,,,,0,note_on,,112.0,40.0,112.0,43200,112.5
1912,9.0,,,,51.0,,,,,44,note_on,,0.0,51.0,0.0,43244,112.61458333333333
1913,9.0,,,,35.0,,,,,0,note_on,,0.0,35.0,0.0,43244,112.61458333333333
1914,9.0,,,,42.0,,,,,0,note_on,,0.0,42.0,0.0,43244,112.61458333333333
1915,9.0,,,,40.0,,,,,0,note_on,,0.0,40.0,0.0,43244,112.61458333333333
1916,9.0,,,,42.0,,,,,52,note_on,,88.0,42.0,88.0,43296,112.75
1917,9.0,,,,42.0,,,,,44,note_on,,0.0,42.0,0.0,43340,112.86458333333333
1918,9.0,,,,42.0,,,,,52,note_on,,88.0,42.0,88.0,43392,113.0
1919,9.0,,,,35.0,,,,,0,note_on,,112.0,35.0,112.0,43392,113.0
1920,9.0,,,,42.0,,,,,44,note_on,,0.0,42.0,0.0,43436,113.11458333333333
1921,9.0,,,,35.0,,,,,0,note_on,,0.0,35.0,0.0,43436,113.11458333333333
1922,9.0,,,,35.0,,,,,52,note_on,,112.0,35.0,112.0,43488,113.25
1923,9.0,,,,42.0,,,,,0,note_on,,88.0,42.0,88.0,43488,113.25
1924,9.0,,,,42.0,,,,,44,note_on,,0.0,42.0,0.0,43532,113.36458333333333
1925,9.0,,,,35.0,,,,,0,note_on,,0.0,35.0,0.0,43532,113.36458333333333
1926,9.0,,,,42.0,,,,,52,note_on,,88.0,42.0,88.0,43584,113.5
1927,9.0,,,,35.0,,,,,0,note_on,,112.0,35.0,112.0,43584,113.5
1928,9.0,,,,40.0,,,,,0,note_on,,112.0,40.0,112.0,43584,113.5
1929,9.0,,,,51.0,,,,,0,note_on,,112.0,51.0,112.0,43584,113.5
1930,9.0,,,,42.0,,,,,44,note_on,,0.0,42.0,0.0,43628,113.61458333333333
1931,9.0,,,,51.0,,,,,0,note_on,,0.0,51.0,0.0,43628,113.61458333333333
1932,9.0,,,,40.0,,,,,0,note_on,,0.0,40.0,0.0,43628,113.61458333333333
1933,9.0,,,,35.0,,,,,0,note_on,,0.0,35.0,0.0,43628,113.61458333333333
1934,9.0,,,,42.0,,,,,52,note_on,,88.0,42.0,88.0,43680,113.75
1935,9.0,,,,51.0,,,,,0,note_on,,112.0,51.0,112.0,43680,113.75
1936,9.0,,,,51.0,,,,,44,note_on,,0.0,51.0,0.0,43724,113.86458333333333
1937,9.0,,,,42.0,,,,,0,note_on,,0.0,42.0,0.0,43724,113.86458333333333
1938,9.0,,,,37.0,,,,,532,note_on,,112.0,37.0,112.0,44256,115.25
1939,9.0,,,,37.0,,,,,44,note_on,,0.0,37.0,0.0,44300,115.36458333333333
1940,9.0,,,,37.0,,,,,148,note_on,,112.0,37.0,112.0,44448,115.75
1941,9.0,,,,37.0,,,,,44,note_on,,0.0,37.0,0.0,44492,115.86458333333333
1942,9.0,,,,37.0,,,,,532,note_on,,112.0,37.0,112.0,45024,117.25
1943,9.0,,,,37.0,,,,,44,note_on,,0.0,37.0,0.0,45068,117.36458333333333
1944,9.0,,,,37.0,,,,,148,note_on,,112.0,37.0,112.0,45216,117.75
1945,9.0,,,,37.0,,,,,44,note_on,,0.0,37.0,0.0,45260,117.86458333333333
1946,9.0,,,,37.0,,,,,532,note_on,,112.0,37.0,112.0,45792,119.25
1947,9.0,,,,37.0,,,,,44,note_on,,0.0,37.0,0.0,45836,119.36458333333333
1948,9.0,,,,37.0,,,,,148,note_on,,112.0,37.0,112.0,45984,119.75
1949,9.0,,,,37.0,,,,,44,note_on,,0.0,37.0,0.0,46028,119.86458333333333
1950,9.0,,,,37.0,,,,,532,note_on,,112.0,37.0,112.0,46560,121.25
1951,9.0,,,,37.0,,,,,44,note_on,,0.0,37.0,0.0,46604,121.36458333333333
1952,9.0,,,,37.0,,,,,148,note_on,,112.0,37.0,112.0,46752,121.75
1953,9.0,,,,37.0,,,,,44,note_on,,0.0,37.0,0.0,46796,121.86458333333333
1954,9.0,,,,37.0,,,,,532,note_on,,112.0,37.0,112.0,47328,123.25
1955,9.0,,,,37.0,,,,,44,note_on,,0.0,37.0,0.0,47372,123.36458333333333
1956,9.0,,,,37.0,,,,,148,note_on,,112.0,37.0,112.0,47520,123.75
1957,9.0,,,,37.0,,,,,44,note_on,,0.0,37.0,0.0,47564,123.86458333333333
1958,9.0,,,,37.0,,,,,532,note_on,,112.0,37.0,112.0,48096,125.25
1959,9.0,,,,37.0,,,,,44,note_on,,0.0,37.0,0.0,48140,125.36458333333333
1960,9.0,,,,37.0,,,,,148,note_on,,112.0,37.0,112.0,48288,125.75
1961,9.0,,,,37.0,,,,,44,note_on,,0.0,37.0,0.0,48332,125.86458333333333
1962,9.0,,,,37.0,,,,,532,note_on,,112.0,37.0,112.0,48864,127.25
1963,9.0,,,,37.0,,,,,44,note_on,,0.0,37.0,0.0,48908,127.36458333333333
1964,9.0,,,,37.0,,,,,148,note_on,,112.0,37.0,112.0,49056,127.75
1965,9.0,,,,37.0,,,,,44,note_on,,0.0,37.0,0.0,49100,127.86458333333333
1966,9.0,,,,40.0,,,,,436,note_on,,112.0,40.0,112.0,49536,129.0
1967,9.0,,,,40.0,,,,,44,note_on,,0.0,40.0,0.0,49580,129.11458333333331
1968,9.0,,,,48.0,,,,,4,note_on,,112.0,48.0,112.0,49584,129.125
1969,9.0,,,,48.0,,,,,44,note_on,,0.0,48.0,0.0,49628,129.23958333333331
1970,9.0,,,,40.0,,,,,52,note_on,,112.0,40.0,112.0,49680,129.375
1971,9.0,,,,40.0,,,,,44,note_on,,0.0,40.0,0.0,49724,129.48958333333331
1972,9.0,,,,40.0,,,,,4,note_on,,112.0,40.0,112.0,49728,129.5
1973,9.0,,,,40.0,,,,,44,note_on,,0.0,40.0,0.0,49772,129.61458333333331
1974,9.0,,,,36.0,,,,,52,note_on,,112.0,36.0,112.0,49824,129.75
1975,9.0,,,,36.0,,,,,44,note_on,,0.0,36.0,0.0,49868,129.86458333333331
1976,9.0,,,,35.0,,,,,52,note_on,,112.0,35.0,112.0,49920,130.0
1977,9.0,,,,49.0,,,,,0,note_on,,112.0,49.0,112.0,49920,130.0
1978,9.0,,,,42.0,,,,,0,note_on,,88.0,42.0,88.0,49920,130.0
1979,9.0,,,,42.0,,,,,44,note_on,,0.0,42.0,0.0,49964,130.11458333333331
1980,9.0,,,,49.0,,,,,0,note_on,,0.0,49.0,0.0,49964,130.11458333333331
1981,9.0,,,,35.0,,,,,0,note_on,,0.0,35.0,0.0,49964,130.11458333333331
1982,9.0,,,,42.0,,,,,52,note_on,,88.0,42.0,88.0,50016,130.25
1983,9.0,,,,35.0,,,,,0,note_on,,112.0,35.0,112.0,50016,130.25
1984,9.0,,,,35.0,,,,,44,note_on,,0.0,35.0,0.0,50060,130.36458333333331
1985,9.0,,,,42.0,,,,,0,note_on,,0.0,42.0,0.0,50060,130.36458333333331
1986,9.0,,,,51.0,,,,,52,note_on,,112.0,51.0,112.0,50112,130.5
1987,9.0,,,,35.0,,,,,0,note_on,,112.0,35.0,112.0,50112,130.5
1988,9.0,,,,40.0,,,,,0,note_on,,112.0,40.0,112.0,50112,130.5
1989,9.0,,,,42.0,,,,,0,note_on,,88.0,42.0,88.0,50112,130.5
1990,9.0,,,,35.0,,,,,44,note_on,,0.0,35.0,0.0,50156,130.61458333333331
1991,9.0,,,,51.0,,,,,0,note_on,,0.0,51.0,0.0,50156,130.61458333333331
1992,9.0,,,,40.0,,,,,0,note_on,,0.0,40.0,0.0,50156,130.61458333333331
1993,9.0,,,,42.0,,,,,0,note_on,,0.0,42.0,0.0,50156,130.61458333333331
1994,9.0,,,,42.0,,,,,52,note_on,,88.0,42.0,88.0,50208,130.75
1995,9.0,,,,42.0,,,,,44,note_on,,0.0,42.0,0.0,50252,130.86458333333331
1996,9.0,,,,35.0,,,,,52,note_on,,112.0,35.0,112.0,50304,131.0
1997,9.0,,,,42.0,,,,,0,note_on,,88.0,42.0,88.0,50304,131.0
1998,9.0,,,,35.0,,,,,44,note_on,,0.0,35.0,0.0,50348,131.11458333333331
1999,9.0,,,,42.0,,,,,0,note_on,,0.0,42.0,0.0,50348,131.11458333333331
2000,9.0,,,,42.0,,,,,52,note_on,,88.0,42.0,88.0,50400,131.25
2001,9.0,,,,35.0,,,,,0,note_on,,112.0,35.0,112.0,50400,131.25
2002,9.0,,,,35.0,,,,,44,note_on,,0.0,35.0,0.0,50444,131.36458333333331
2003,9.0,,,,42.0,,,,,0,note_on,,0.0,42.0,0.0,50444,131.36458333333331
2004,9.0,,,,40.0,,,,,52,note_on,,112.0,40.0,112.0,50496,131.5
2005,9.0,,,,51.0,,,,,0,note_on,,112.0,51.0,112.0,50496,131.5
2006,9.0,,,,42.0,,,,,0,note_on,,88.0,42.0,88.0,50496,131.5
2007,9.0,,,,35.0,,,,,0,note_on,,112.0,35.0,112.0,50496,131.5
2008,9.0,,,,35.0,,,,,44,note_on,,0.0,35.0,0.0,50540,131.61458333333331
2009,9.0,,,,42.0,,,,,0,note_on,,0.0,42.0,0.0,50540,131.61458333333331
2010,9.0,,,,51.0,,,,,0,note_on,,0.0,51.0,0.0,50540,131.61458333333331
2011,9.0,,,,40.0,,,,,0,note_on,,0.0,40.0,0.0,50540,131.61458333333331
2012,9.0,,,,51.0,,,,,52,note_on,,112.0,51.0,112.0,50592,131.75
2013,9.0,,,,42.0,,,,,0,note_on,,88.0,42.0,88.0,50592,131.75
2014,9.0,,,,42.0,,,,,44,note_on,,0.0,42.0,0.0,50636,131.86458333333331
2015,9.0,,,,51.0,,,,,0,note_on,,0.0,51.0,0.0,50636,131.86458333333331
2016,9.0,,,,35.0,,,,,4,note_on,,112.0,35.0,112.0,50640,131.875
2017,9.0,,,,35.0,,,,,44,note_on,,0.0,35.0,0.0,50684,131.98958333333331
2018,9.0,,,,35.0,,,,,4,note_on,,112.0,35.0,112.0,50688,132.0
2019,9.0,,,,42.0,,,,,0,note_on,,88.0,42.0,88.0,50688,132.0
2020,9.0,,,,35.0,,,,,44,note_on,,0.0,35.0,0.0,50732,132.11458333333331
2021,9.0,,,,42.0,,,,,0,note_on,,0.0,42.0,0.0,50732,132.11458333333331
2022,9.0,,,,42.0,,,,,52,note_on,,88.0,42.0,88.0,50784,132.25
2023,9.0,,,,35.0,,,,,0,note_on,,112.0,35.0,112.0,50784,132.25
2024,9.0,,,,35.0,,,,,44,note_on,,0.0,35.0,0.0,50828,132.36458333333331
2025,9.0,,,,42.0,,,,,0,note_on,,0.0,42.0,0.0,50828,132.36458333333331
2026,9.0,,,,51.0,,,,,52,note_on,,112.0,51.0,112.0,50880,132.5
2027,9.0,,,,42.0,,,,,0,note_on,,88.0,42.0,88.0,50880,132.5
2028,9.0,,,,40.0,,,,,0,note_on,,112.0,40.0,112.0,50880,132.5
2029,9.0,,,,35.0,,,,,0,note_on,,112.0,35.0,112.0,50880,132.5
2030,9.0,,,,35.0,,,,,44,note_on,,0.0,35.0,0.0,50924,132.61458333333331
2031,9.0,,,,51.0,,,,,0,note_on,,0.0,51.0,0.0,50924,132.61458333333331
2032,9.0,,,,42.0,,,,,0,note_on,,0.0,42.0,0.0,50924,132.61458333333331
2033,9.0,,,,40.0,,,,,0,note_on,,0.0,40.0,0.0,50924,132.61458333333331
2034,9.0,,,,42.0,,,,,52,note_on,,88.0,42.0,88.0,50976,132.75
2035,9.0,,,,42.0,,,,,44,note_on,,0.0,42.0,0.0,51020,132.86458333333331
2036,9.0,,,,35.0,,,,,52,note_on,,112.0,35.0,112.0,51072,133.0
2037,9.0,,,,42.0,,,,,0,note_on,,88.0,42.0,88.0,51072,133.0
2038,9.0,,,,35.0,,,,,44,note_on,,0.0,35.0,0.0,51116,133.11458333333331
2039,9.0,,,,42.0,,,,,0,note_on,,0.0,42.0,0.0,51116,133.11458333333331
2040,9.0,,,,35.0,,,,,52,note_on,,112.0,35.0,112.0,51168,133.25
2041,9.0,,,,42.0,,,,,0,note_on,,88.0,42.0,88.0,51168,133.25
2042,9.0,,,,35.0,,,,,44,note_on,,0.0,35.0,0.0,51212,133.36458333333331
2043,9.0,,,,42.0,,,,,0,note_on,,0.0,42.0,0.0,51212,133.36458333333331
2044,9.0,,,,35.0,,,,,52,note_on,,112.0,35.0,112.0,51264,133.5
2045,9.0,,,,51.0,,,,,0,note_on,,112.0,51.0,112.0,51264,133.5
2046,9.0,,,,40.0,,,,,0,note_on,,112.0,40.0,112.0,51264,133.5
2047,9.0,,,,42.0,,,,,0,note_on,,88.0,42.0,88.0,51264,133.5
2048,9.0,,,,35.0,,,,,44,note_on,,0.0,35.0,0.0,51308,133.61458333333331
2049,9.0,,,,42.0,,,,,0,note_on,,0.0,42.0,0.0,51308,133.61458333333331
2050,9.0,,,,40.0,,,,,0,note_on,,0.0,40.0,0.0,51308,133.61458333333331
2051,9.0,,,,51.0,,,,,0,note_on,,0.0,51.0,0.0,51308,133.61458333333331
2052,9.0,,,,51.0,,,,,52,note_on,,112.0,51.0,112.0,51360,133.75
2053,9.0,,,,42.0,,,,,0,note_on,,88.0,42.0,88.0,51360,133.75
2054,9.0,,,,51.0,,,,,44,note_on,,0.0,51.0,0.0,51404,133.86458333333331
2055,9.0,,,,42.0,,,,,0,note_on,,0.0,42.0,0.0,51404,133.86458333333331
2056,9.0,,,,35.0,,,,,4,note_on,,112.0,35.0,112.0,51408,133.875
2057,9.0,,,,35.0,,,,,44,note_on,,0.0,35.0,0.0,51452,133.98958333333331
2058,9.0,,,,35.0,,,,,4,note_on,,112.0,35.0,112.0,51456,134.0
2059,9.0,,,,42.0,,,,,0,note_on,,88.0,42.0,88.0,51456,134.0
2060,9.0,,,,35.0,,,,,44,note_on,,0.0,35.0,0.0,51500,134.11458333333331
2061,9.0,,,,42.0,,,,,0,note_on,,0.0,42.0,0.0,51500,134.11458333333331
2062,9.0,,,,35.0,,,,,52,note_on,,112.0,35.0,112.0,51552,134.25
2063,9.0,,,,42.0,,,,,0,note_on,,88.0,42.0,88.0,51552,134.25
2064,9.0,,,,42.0,,,,,44,note_on,,0.0,42.0,0.0,51596,134.36458333333331
2065,9.0,,,,35.0,,,,,0,note_on,,0.0,35.0,0.0,51596,134.36458333333331
2066,9.0,,,,40.0,,,,,52,note_on,,112.0,40.0,112.0,51648,134.5
2067,9.0,,,,42.0,,,,,0,note_on,,88.0,42.0,88.0,51648,134.5
2068,9.0,,,,35.0,,,,,0,note_on,,112.0,35.0,112.0,51648,134.5
2069,9.0,,,,51.0,,,,,0,note_on,,112.0,51.0,112.0,51648,134.5
2070,9.0,,,,51.0,,,,,44,note_on,,0.0,51.0,0.0,51692,134.61458333333331
2071,9.0,,,,40.0,,,,,0,note_on,,0.0,40.0,0.0,51692,134.61458333333331
2072,9.0,,,,35.0,,,,,0,note_on,,0.0,35.0,0.0,51692,134.61458333333331
2073,9.0,,,,42.0,,,,,0,note_on,,0.0,42.0,0.0,51692,134.61458333333331
2074,9.0,,,,42.0,,,,,52,note_on,,88.0,42.0,88.0,51744,134.75
2075,9.0,,,,42.0,,,,,44,note_on,,0.0,42.0,0.0,51788,134.86458333333331
2076,9.0,,,,35.0,,,,,52,note_on,,112.0,35.0,112.0,51840,135.0
2077,9.0,,,,42.0,,,,,0,note_on,,88.0,42.0,88.0,51840,135.0
2078,9.0,,,,35.0,,,,,44,note_on,,0.0,35.0,0.0,51884,135.11458333333331
2079,9.0,,,,42.0,,,,,0,note_on,,0.0,42.0,0.0,51884,135.11458333333331
2080,9.0,,,,42.0,,,,,52,note_on,,88.0,42.0,88.0,51936,135.25
2081,9.0,,,,35.0,,,,,0,note_on,,112.0,35.0,112.0,51936,135.25
2082,9.0,,,,35.0,,,,,44,note_on,,0.0,35.0,0.0,51980,135.36458333333331
2083,9.0,,,,42.0,,,,,0,note_on,,0.0,42.0,0.0,51980,135.36458333333331
2084,9.0,,,,35.0,,,,,52,note_on,,112.0,35.0,112.0,52032,135.5
2085,9.0,,,,51.0,,,,,0,note_on,,112.0,51.0,112.0,52032,135.5
2086,9.0,,,,40.0,,,,,0,note_on,,112.0,40.0,112.0,52032,135.5
2087,9.0,,,,42.0,,,,,0,note_on,,88.0,42.0,88.0,52032,135.5
2088,9.0,,,,42.0,,,,,44,note_on,,0.0,42.0,0.0,52076,135.61458333333331
2089,9.0,,,,40.0,,,,,0,note_on,,0.0,40.0,0.0,52076,135.61458333333331
2090,9.0,,,,51.0,,,,,0,note_on,,0.0,51.0,0.0,52076,135.61458333333331
2091,9.0,,,,35.0,,,,,0,note_on,,0.0,35.0,0.0,52076,135.61458333333331
2092,9.0,,,,51.0,,,,,52,note_on,,112.0,51.0,112.0,52128,135.75
2093,9.0,,,,42.0,,,,,0,note_on,,88.0,42.0,88.0,52128,135.75
2094,9.0,,,,42.0,,,,,44,note_on,,0.0,42.0,0.0,52172,135.86458333333331
2095,9.0,,,,51.0,,,,,0,note_on,,0.0,51.0,0.0,52172,135.86458333333331
2096,9.0,,,,35.0,,,,,4,note_on,,112.0,35.0,112.0,52176,135.875
2097,9.0,,,,35.0,,,,,44,note_on,,0.0,35.0,0.0,52220,135.98958333333331
2098,9.0,,,,42.0,,,,,4,note_on,,88.0,42.0,88.0,52224,136.0
2099,9.0,,,,35.0,,,,,0,note_on,,112.0,35.0,112.0,52224,136.0
2100,9.0,,,,42.0,,,,,44,note_on,,0.0,42.0,0.0,52268,136.11458333333331
2101,9.0,,,,35.0,,,,,0,note_on,,0.0,35.0,0.0,52268,136.11458333333331
2102,9.0,,,,35.0,,,,,52,note_on,,112.0,35.0,112.0,52320,136.25
2103,9.0,,,,42.0,,,,,0,note_on,,88.0,42.0,88.0,52320,136.25
2104,9.0,,,,42.0,,,,,44,note_on,,0.0,42.0,0.0,52364,136.36458333333331
2105,9.0,,,,35.0,,,,,0,note_on,,0.0,35.0,0.0,52364,136.36458333333331
2106,9.0,,,,35.0,,,,,52,note_on,,112.0,35.0,112.0,52416,136.5
2107,9.0,,,,51.0,,,,,0,note_on,,112.0,51.0,112.0,52416,136.5
2108,9.0,,,,42.0,,,,,0,note_on,,88.0,42.0,88.0,52416,136.5
2109,9.0,,,,40.0,,,,,0,note_on,,112.0,40.0,112.0,52416,136.5
2110,9.0,,,,40.0,,,,,44,note_on,,0.0,40.0,0.0,52460,136.61458333333331
2111,9.0,,,,35.0,,,,,0,note_on,,0.0,35.0,0.0,52460,136.61458333333331
2112,9.0,,,,51.0,,,,,0,note_on,,0.0,51.0,0.0,52460,136.61458333333331
2113,9.0,,,,42.0,,,,,0,note_on,,0.0,42.0,0.0,52460,136.61458333333331
2114,9.0,,,,42.0,,,,,52,note_on,,88.0,42.0,88.0,52512,136.75
2115,9.0,,,,42.0,,,,,44,note_on,,0.0,42.0,0.0,52556,136.86458333333331
2116,9.0,,,,35.0,,,,,52,note_on,,112.0,35.0,112.0,52608,137.0
2117,9.0,,,,42.0,,,,,0,note_on,,88.0,42.0,88.0,52608,137.0
2118,9.0,,,,35.0,,,,,44,note_on,,0.0,35.0,0.0,52652,137.11458333333331
2119,9.0,,,,42.0,,,,,0,note_on,,0.0,42.0,0.0,52652,137.11458333333331
2120,9.0,,,,42.0,,,,,52,note_on,,88.0,42.0,88.0,52704,137.25
2121,9.0,,,,35.0,,,,,0,note_on,,112.0,35.0,112.0,52704,137.25
2122,9.0,,,,42.0,,,,,44,note_on,,0.0,42.0,0.0,52748,137.36458333333331
2123,9.0,,,,35.0,,,,,0,note_on,,0.0,35.0,0.0,52748,137.36458333333331
2124,9.0,,,,35.0,,,,,52,note_on,,112.0,35.0,112.0,52800,137.5
2125,9.0,,,,51.0,,,,,0,note_on,,112.0,51.0,112.0,52800,137.5
2126,9.0,,,,40.0,,,,,0,note_on,,112.0,40.0,112.0,52800,137.5
2127,9.0,,,,42.0,,,,,0,note_on,,88.0,42.0,88.0,52800,137.5
2128,9.0,,,,35.0,,,,,44,note_on,,0.0,35.0,0.0,52844,137.61458333333331
2129,9.0,,,,42.0,,,,,0,note_on,,0.0,42.0,0.0,52844,137.61458333333331
2130,9.0,,,,40.0,,,,,0,note_on,,0.0,40.0,0.0,52844,137.61458333333331
2131,9.0,,,,51.0,,,,,0,note_on,,0.0,51.0,0.0,52844,137.61458333333331
2132,9.0,,,,51.0,,,,,52,note_on,,112.0,51.0,112.0,52896,137.75
2133,9.0,,,,42.0,,,,,0,note_on,,88.0,42.0,88.0,52896,137.75
2134,9.0,,,,51.0,,,,,44,note_on,,0.0,51.0,0.0,52940,137.86458333333331
2135,9.0,,,,42.0,,,,,0,note_on,,0.0,42.0,0.0,52940,137.86458333333331
2136,9.0,,,,35.0,,,,,4,note_on,,112.0,35.0,112.0,52944,137.875
2137,9.0,,,,35.0,,,,,44,note_on,,0.0,35.0,0.0,52988,137.98958333333331
2138,9.0,,,,42.0,,,,,4,note_on,,88.0,42.0,88.0,52992,138.0
2139,9.0,,,,35.0,,,,,0,note_on,,112.0,35.0,112.0,52992,138.0
2140,9.0,,,,42.0,,,,,44,note_on,,0.0,42.0,0.0,53036,138.11458333333331
2141,9.0,,,,35.0,,,,,0,note_on,,0.0,35.0,0.0,53036,138.11458333333331
2142,9.0,,,,35.0,,,,,52,note_on,,112.0,35.0,112.0,53088,138.25
2143,9.0,,,,42.0,,,,,0,note_on,,88.0,42.0,88.0,53088,138.25
2144,9.0,,,,42.0,,,,,44,note_on,,0.0,42.0,0.0,53132,138.36458333333331
2145,9.0,,,,35.0,,,,,0,note_on,,0.0,35.0,0.0,53132,138.36458333333331
2146,9.0,,,,35.0,,,,,52,note_on,,112.0,35.0,112.0,53184,138.5
2147,9.0,,,,40.0,,,,,0,note_on,,112.0,40.0,112.0,53184,138.5
2148,9.0,,,,51.0,,,,,0,note_on,,112.0,51.0,112.0,53184,138.5
2149,9.0,,,,42.0,,,,,0,note_on,,88.0,42.0,88.0,53184,138.5
2150,9.0,,,,40.0,,,,,44,note_on,,0.0,40.0,0.0,53228,138.61458333333331
2151,9.0,,,,35.0,,,,,0,note_on,,0.0,35.0,0.0,53228,138.61458333333331
2152,9.0,,,,51.0,,,,,0,note_on,,0.0,51.0,0.0,53228,138.61458333333331
2153,9.0,,,,42.0,,,,,0,note_on,,0.0,42.0,0.0,53228,138.61458333333331
2154,9.0,,,,42.0,,,,,52,note_on,,88.0,42.0,88.0,53280,138.75
2155,9.0,,,,42.0,,,,,44,note_on,,0.0,42.0,0.0,53324,138.86458333333331
2156,9.0,,,,42.0,,,,,52,note_on,,88.0,42.0,88.0,53376,139.0
2157,9.0,,,,35.0,,,,,0,note_on,,112.0,35.0,112.0,53376,139.0
2158,9.0,,,,42.0,,,,,44,note_on,,0.0,42.0,0.0,53420,139.11458333333331
2159,9.0,,,,35.0,,,,,0,note_on,,0.0,35.0,0.0,53420,139.11458333333331
2160,9.0,,,,35.0,,,,,52,note_on,,112.0,35.0,112.0,53472,139.25
2161,9.0,,,,42.0,,,,,0,note_on,,88.0,42.0,88.0,53472,139.25
2162,9.0,,,,42.0,,,,,44,note_on,,0.0,42.0,0.0,53516,139.36458333333331
2163,9.0,,,,35.0,,,,,0,note_on,,0.0,35.0,0.0,53516,139.36458333333331
2164,9.0,,,,40.0,,,,,52,note_on,,112.0,40.0,112.0,53568,139.5
2165,9.0,,,,35.0,,,,,0,note_on,,112.0,35.0,112.0,53568,139.5
2166,9.0,,,,42.0,,,,,0,note_on,,88.0,42.0,88.0,53568,139.5
2167,9.0,,,,51.0,,,,,0,note_on,,112.0,51.0,112.0,53568,139.5
2168,9.0,,,,51.0,,,,,44,note_on,,0.0,51.0,0.0,53612,139.61458333333331
2169,9.0,,,,42.0,,,,,0,note_on,,0.0,42.0,0.0,53612,139.61458333333331
2170,9.0,,,,35.0,,,,,0,note_on,,0.0,35.0,0.0,53612,139.61458333333331
2171,9.0,,,,40.0,,,,,0,note_on,,0.0,40.0,0.0,53612,139.61458333333331
2172,9.0,,,,51.0,,,,,52,note_on,,112.0,51.0,112.0,53664,139.75
2173,9.0,,,,42.0,,,,,0,note_on,,88.0,42.0,88.0,53664,139.75
2174,9.0,,,,42.0,,,,,44,note_on,,0.0,42.0,0.0,53708,139.86458333333331
2175,9.0,,,,51.0,,,,,0,note_on,,0.0,51.0,0.0,53708,139.86458333333331
2176,9.0,,,,35.0,,,,,4,note_on,,112.0,35.0,112.0,53712,139.875
2177,9.0,,,,35.0,,,,,44,note_on,,0.0,35.0,0.0,53756,139.98958333333331
2178,9.0,,,,42.0,,,,,4,note_on,,88.0,42.0,88.0,53760,140.0
2179,9.0,,,,35.0,,,,,0,note_on,,112.0,35.0,112.0,53760,140.0
2180,9.0,,,,42.0,,,,,44,note_on,,0.0,42.0,0.0,53804,140.11458333333331
2181,9.0,,,,35.0,,,,,0,note_on,,0.0,35.0,0.0,53804,140.11458333333331
2182,9.0,,,,35.0,,,,,52,note_on,,112.0,35.0,112.0,53856,140.25
2183,9.0,,,,42.0,,,,,0,note_on,,88.0,42.0,88.0,53856,140.25
2184,9.0,,,,42.0,,,,,44,note_on,,0.0,42.0,0.0,53900,140.36458333333331
2185,9.0,,,,35.0,,,,,0,note_on,,0.0,35.0,0.0,53900,140.36458333333331
2186,9.0,,,,51.0,,,,,52,note_on,,112.0,51.0,112.0,53952,140.5
2187,9.0,,,,35.0,,,,,0,note_on,,112.0,35.0,112.0,53952,140.5
2188,9.0,,,,42.0,,,,,0,note_on,,88.0,42.0,88.0,53952,140.5
2189,9.0,,,,40.0,,,,,0,note_on,,112.0,40.0,112.0,53952,140.5
2190,9.0,,,,40.0,,,,,44,note_on,,0.0,40.0,0.0,53996,140.61458333333331
2191,9.0,,,,51.0,,,,,0,note_on,,0.0,51.0,0.0,53996,140.61458333333331
2192,9.0,,,,35.0,,,,,0,note_on,,0.0,35.0,0.0,53996,140.61458333333331
2193,9.0,,,,42.0,,,,,0,note_on,,0.0,42.0,0.0,53996,140.61458333333331
2194,9.0,,,,42.0,,,,,52,note_on,,88.0,42.0,88.0,54048,140.75
2195,9.0,,,,42.0,,,,,44,note_on,,0.0,42.0,0.0,54092,140.86458333333331
2196,9.0,,,,35.0,,,,,52,note_on,,112.0,35.0,112.0,54144,141.0
2197,9.0,,,,42.0,,,,,0,note_on,,88.0,42.0,88.0,54144,141.0
2198,9.0,,,,35.0,,,,,44,note_on,,0.0,35.0,0.0,54188,141.11458333333331
2199,9.0,,,,42.0,,,,,0,note_on,,0.0,42.0,0.0,54188,141.11458333333331
2200,9.0,,,,42.0,,,,,52,note_on,,88.0,42.0,88.0,54240,141.25
2201,9.0,,,,35.0,,,,,0,note_on,,112.0,35.0,112.0,54240,141.25
2202,9.0,,,,42.0,,,,,44,note_on,,0.0,42.0,0.0,54284,141.36458333333331
2203,9.0,,,,35.0,,,,,0,note_on,,0.0,35.0,0.0,54284,141.36458333333331
2204,9.0,,,,42.0,,,,,52,note_on,,88.0,42.0,88.0,54336,141.5
2205,9.0,,,,35.0,,,,,0,note_on,,112.0,35.0,112.0,54336,141.5
2206,9.0,,,,40.0,,,,,0,note_on,,112.0,40.0,112.0,54336,141.5
2207,9.0,,,,51.0,,,,,0,note_on,,112.0,51.0,112.0,54336,141.5
2208,9.0,,,,42.0,,,,,44,note_on,,0.0,42.0,0.0,54380,141.61458333333331
2209,9.0,,,,51.0,,,,,0,note_on,,0.0,51.0,0.0,54380,141.61458333333331
2210,9.0,,,,40.0,,,,,0,note_on,,0.0,40.0,0.0,54380,141.61458333333331
2211,9.0,,,,35.0,,,,,0,note_on,,0.0,35.0,0.0,54380,141.61458333333331
2212,9.0,,,,51.0,,,,,52,note_on,,112.0,51.0,112.0,54432,141.75
2213,9.0,,,,42.0,,,,,0,note_on,,88.0,42.0,88.0,54432,141.75
2214,9.0,,,,51.0,,,,,44,note_on,,0.0,51.0,0.0,54476,141.86458333333331
2215,9.0,,,,42.0,,,,,0,note_on,,0.0,42.0,0.0,54476,141.86458333333331
2216,9.0,,,,35.0,,,,,4,note_on,,112.0,35.0,112.0,54480,141.875
2217,9.0,,,,35.0,,,,,44,note_on,,0.0,35.0,0.0,54524,141.98958333333331
2218,9.0,,,,35.0,,,,,4,note_on,,112.0,35.0,112.0,54528,142.0
2219,9.0,,,,42.0,,,,,0,note_on,,88.0,42.0,88.0,54528,142.0
2220,9.0,,,,35.0,,,,,44,note_on,,0.0,35.0,0.0,54572,142.11458333333331
2221,9.0,,,,42.0,,,,,0,note_on,,0.0,42.0,0.0,54572,142.11458333333331
2222,9.0,,,,35.0,,,,,52,note_on,,112.0,35.0,112.0,54624,142.25
2223,9.0,,,,42.0,,,,,0,note_on,,88.0,42.0,88.0,54624,142.25
2224,9.0,,,,42.0,,,,,44,note_on,,0.0,42.0,0.0,54668,142.36458333333331
2225,9.0,,,,35.0,,,,,0,note_on,,0.0,35.0,0.0,54668,142.36458333333331
2226,9.0,,,,51.0,,,,,52,note_on,,112.0,51.0,112.0,54720,142.5
2227,9.0,,,,42.0,,,,,0,note_on,,88.0,42.0,88.0,54720,142.5
2228,9.0,,,,35.0,,,,,0,note_on,,112.0,35.0,112.0,54720,142.5
2229,9.0,,,,40.0,,,,,0,note_on,,112.0,40.0,112.0,54720,142.5
2230,9.0,,,,40.0,,,,,44,note_on,,0.0,40.0,0.0,54764,142.61458333333331
2231,9.0,,,,51.0,,,,,0,note_on,,0.0,51.0,0.0,54764,142.61458333333331
2232,9.0,,,,35.0,,,,,0,note_on,,0.0,35.0,0.0,54764,142.61458333333331
2233,9.0,,,,42.0,,,,,0,note_on,,0.0,42.0,0.0,54764,142.61458333333331
2234,9.0,,,,42.0,,,,,52,note_on,,88.0,42.0,88.0,54816,142.75
2235,9.0,,,,42.0,,,,,44,note_on,,0.0,42.0,0.0,54860,142.86458333333331
2236,9.0,,,,35.0,,,,,52,note_on,,112.0,35.0,112.0,54912,143.0
2237,9.0,,,,42.0,,,,,0,note_on,,88.0,42.0,88.0,54912,143.0
2238,9.0,,,,35.0,,,,,44,note_on,,0.0,35.0,0.0,54956,143.11458333333331
2239,9.0,,,,42.0,,,,,0,note_on,,0.0,42.0,0.0,54956,143.11458333333331
2240,9.0,,,,35.0,,,,,52,note_on,,112.0,35.0,112.0,55008,143.25
2241,9.0,,,,42.0,,,,,0,note_on,,88.0,42.0,88.0,55008,143.25
2242,9.0,,,,42.0,,,,,44,note_on,,0.0,42.0,0.0,55052,143.36458333333331
2243,9.0,,,,35.0,,,,,0,note_on,,0.0,35.0,0.0,55052,143.36458333333331
2244,9.0,,,,42.0,,,,,52,note_on,,88.0,42.0,88.0,55104,143.5
2245,9.0,,,,40.0,,,,,0,note_on,,112.0,40.0,112.0,55104,143.5
2246,9.0,,,,51.0,,,,,0,note_on,,112.0,51.0,112.0,55104,143.5
2247,9.0,,,,35.0,,,,,0,note_on,,112.0,35.0,112.0,55104,143.5
2248,9.0,,,,35.0,,,,,44,note_on,,0.0,35.0,0.0,55148,143.61458333333331
2249,9.0,,,,51.0,,,,,0,note_on,,0.0,51.0,0.0,55148,143.61458333333331
2250,9.0,,,,40.0,,,,,0,note_on,,0.0,40.0,0.0,55148,143.61458333333331
2251,9.0,,,,42.0,,,,,0,note_on,,0.0,42.0,0.0,55148,143.61458333333331
2252,9.0,,,,42.0,,,,,52,note_on,,88.0,42.0,88.0,55200,143.75
2253,9.0,,,,51.0,,,,,0,note_on,,112.0,51.0,112.0,55200,143.75
2254,9.0,,,,51.0,,,,,44,note_on,,0.0,51.0,0.0,55244,143.86458333333331
2255,9.0,,,,42.0,,,,,0,note_on,,0.0,42.0,0.0,55244,143.86458333333331
2256,9.0,,,,35.0,,,,,4,note_on,,112.0,35.0,112.0,55248,143.875
2257,9.0,,,,35.0,,,,,44,note_on,,0.0,35.0,0.0,55292,143.98958333333331
2258,9.0,,,,42.0,,,,,4,note_on,,88.0,42.0,88.0,55296,144.0
2259,9.0,,,,35.0,,,,,0,note_on,,112.0,35.0,112.0,55296,144.0
2260,9.0,,,,42.0,,,,,44,note_on,,0.0,42.0,0.0,55340,144.11458333333331
2261,9.0,,,,35.0,,,,,0,note_on,,0.0,35.0,0.0,55340,144.11458333333331
2262,9.0,,,,42.0,,,,,52,note_on,,88.0,42.0,88.0,55392,144.25
2263,9.0,,,,35.0,,,,,0,note_on,,112.0,35.0,112.0,55392,144.25
2264,9.0,,,,35.0,,,,,44,note_on,,0.0,35.0,0.0,55436,144.36458333333331
2265,9.0,,,,42.0,,,,,0,note_on,,0.0,42.0,0.0,55436,144.36458333333331
2266,9.0,,,,40.0,,,,,52,note_on,,112.0,40.0,112.0,55488,144.5
2267,9.0,,,,42.0,,,,,0,note_on,,88.0,42.0,88.0,55488,144.5
2268,9.0,,,,51.0,,,,,0,note_on,,112.0,51.0,112.0,55488,144.5
2269,9.0,,,,35.0,,,,,0,note_on,,112.0,35.0,112.0,55488,144.5
2270,9.0,,,,35.0,,,,,44,note_on,,0.0,35.0,0.0,55532,144.61458333333331
2271,9.0,,,,40.0,,,,,0,note_on,,0.0,40.0,0.0,55532,144.61458333333331
2272,9.0,,,,42.0,,,,,0,note_on,,0.0,42.0,0.0,55532,144.61458333333331
2273,9.0,,,,51.0,,,,,0,note_on,,0.0,51.0,0.0,55532,144.61458333333331
2274,9.0,,,,42.0,,,,,52,note_on,,88.0,42.0,88.0,55584,144.75
2275,9.0,,,,42.0,,,,,44,note_on,,0.0,42.0,0.0,55628,144.86458333333331
2276,9.0,,,,42.0,,,,,52,note_on,,88.0,42.0,88.0,55680,145.0
2277,9.0,,,,35.0,,,,,0,note_on,,112.0,35.0,112.0,55680,145.0
2278,9.0,,,,42.0,,,,,44,note_on,,0.0,42.0,0.0,55724,145.11458333333331
2279,9.0,,,,35.0,,,,,0,note_on,,0.0,35.0,0.0,55724,145.11458333333331
2280,9.0,,,,35.0,,,,,52,note_on,,112.0,35.0,112.0,55776,145.25
2281,9.0,,,,42.0,,,,,0,note_on,,88.0,42.0,88.0,55776,145.25
2282,9.0,,,,35.0,,,,,44,note_on,,0.0,35.0,0.0,55820,145.36458333333331
2283,9.0,,,,42.0,,,,,0,note_on,,0.0,42.0,0.0,55820,145.36458333333331
2284,9.0,,,,40.0,,,,,52,note_on,,112.0,40.0,112.0,55872,145.5
2285,9.0,,,,51.0,,,,,0,note_on,,112.0,51.0,112.0,55872,145.5
2286,9.0,,,,35.0,,,,,0,note_on,,112.0,35.0,112.0,55872,145.5
2287,9.0,,,,42.0,,,,,0,note_on,,88.0,42.0,88.0,55872,145.5
2288,9.0,,,,40.0,,,,,44,note_on,,0.0,40.0,0.0,55916,145.61458333333331
2289,9.0,,,,42.0,,,,,0,note_on,,0.0,42.0,0.0,55916,145.61458333333331
2290,9.0,,,,35.0,,,,,0,note_on,,0.0,35.0,0.0,55916,145.61458333333331
2291,9.0,,,,51.0,,,,,0,note_on,,0.0,51.0,0.0,55916,145.61458333333331
2292,9.0,,,,42.0,,,,,52,note_on,,88.0,42.0,88.0,55968,145.75
2293,9.0,,,,51.0,,,,,0,note_on,,112.0,51.0,112.0,55968,145.75
2294,9.0,,,,42.0,,,,,44,note_on,,0.0,42.0,0.0,56012,145.86458333333331
2295,9.0,,,,51.0,,,,,0,note_on,,0.0,51.0,0.0,56012,145.86458333333331
2296,9.0,,,,35.0,,,,,4,note_on,,112.0,35.0,112.0,56016,145.875
2297,9.0,,,,35.0,,,,,44,note_on,,0.0,35.0,0.0,56060,145.98958333333331
2298,9.0,,,,35.0,,,,,4,note_on,,112.0,35.0,112.0,56064,146.0
2299,9.0,,,,49.0,,,,,0,note_on,,112.0,49.0,112.0,56064,146.0
2300,9.0,,,,42.0,,,,,0,note_on,,88.0,42.0,88.0,56064,146.0
2301,9.0,,,,42.0,,,,,44,note_on,,0.0,42.0,0.0,56108,146.11458333333331
2302,9.0,,,,49.0,,,,,0,note_on,,0.0,49.0,0.0,56108,146.11458333333331
2303,9.0,,,,35.0,,,,,0,note_on,,0.0,35.0,0.0,56108,146.11458333333331
2304,9.0,,,,42.0,,,,,52,note_on,,88.0,42.0,88.0,56160,146.25
2305,9.0,,,,35.0,,,,,0,note_on,,112.0,35.0,112.0,56160,146.25
2306,9.0,,,,42.0,,,,,44,note_on,,0.0,42.0,0.0,56204,146.36458333333331
2307,9.0,,,,35.0,,,,,0,note_on,,0.0,35.0,0.0,56204,146.36458333333331
2308,9.0,,,,40.0,,,,,52,note_on,,112.0,40.0,112.0,56256,146.5
2309,9.0,,,,35.0,,,,,0,note_on,,112.0,35.0,112.0,56256,146.5
2310,9.0,,,,42.0,,,,,0,note_on,,88.0,42.0,88.0,56256,146.5
2311,9.0,,,,51.0,,,,,0,note_on,,112.0,51.0,112.0,56256,146.5
2312,9.0,,,,35.0,,,,,44,note_on,,0.0,35.0,0.0,56300,146.61458333333331
2313,9.0,,,,42.0,,,,,0,note_on,,0.0,42.0,0.0,56300,146.61458333333331
2314,9.0,,,,40.0,,,,,0,note_on,,0.0,40.0,0.0,56300,146.61458333333331
2315,9.0,,,,51.0,,,,,0,note_on,,0.0,51.0,0.0,56300,146.61458333333331
2316,9.0,,,,42.0,,,,,52,note_on,,88.0,42.0,88.0,56352,146.75
2317,9.0,,,,42.0,,,,,44,note_on,,0.0,42.0,0.0,56396,146.86458333333331
2318,9.0,,,,42.0,,,,,52,note_on,,88.0,42.0,88.0,56448,147.0
2319,9.0,,,,35.0,,,,,0,note_on,,112.0,35.0,112.0,56448,147.0
2320,9.0,,,,42.0,,,,,44,note_on,,0.0,42.0,0.0,56492,147.11458333333331
2321,9.0,,,,35.0,,,,,0,note_on,,0.0,35.0,0.0,56492,147.11458333333331
2322,9.0,,,,42.0,,,,,52,note_on,,88.0,42.0,88.0,56544,147.25
2323,9.0,,,,35.0,,,,,0,note_on,,112.0,35.0,112.0,56544,147.25
2324,9.0,,,,35.0,,,,,44,note_on,,0.0,35.0,0.0,56588,147.36458333333331
2325,9.0,,,,42.0,,,,,0,note_on,,0.0,42.0,0.0,56588,147.36458333333331
2326,9.0,,,,51.0,,,,,52,note_on,,112.0,51.0,112.0,56640,147.5
2327,9.0,,,,40.0,,,,,0,note_on,,112.0,40.0,112.0,56640,147.5
2328,9.0,,,,35.0,,,,,0,note_on,,112.0,35.0,112.0,56640,147.5
2329,9.0,,,,42.0,,,,,0,note_on,,88.0,42.0,88.0,56640,147.5
2330,9.0,,,,51.0,,,,,44,note_on,,0.0,51.0,0.0,56684,147.61458333333331
2331,9.0,,,,42.0,,,,,0,note_on,,0.0,42.0,0.0,56684,147.61458333333331
2332,9.0,,,,35.0,,,,,0,note_on,,0.0,35.0,0.0,56684,147.61458333333331
2333,9.0,,,,40.0,,,,,0,note_on,,0.0,40.0,0.0,56684,147.61458333333331
2334,9.0,,,,42.0,,,,,52,note_on,,88.0,42.0,88.0,56736,147.75
2335,9.0,,,,51.0,,,,,0,note_on,,112.0,51.0,112.0,56736,147.75
2336,9.0,,,,51.0,,,,,44,note_on,,0.0,51.0,0.0,56780,147.86458333333331
2337,9.0,,,,42.0,,,,,0,note_on,,0.0,42.0,0.0,56780,147.86458333333331
2338,9.0,,,,35.0,,,,,4,note_on,,112.0,35.0,112.0,56784,147.875
2339,9.0,,,,35.0,,,,,44,note_on,,0.0,35.0,0.0,56828,147.98958333333331
2340,9.0,,,,35.0,,,,,4,note_on,,112.0,35.0,112.0,56832,148.0
2341,9.0,,,,42.0,,,,,0,note_on,,88.0,42.0,88.0,56832,148.0
2342,9.0,,,,42.0,,,,,44,note_on,,0.0,42.0,0.0,56876,148.11458333333331
2343,9.0,,,,35.0,,,,,0,note_on,,0.0,35.0,0.0,56876,148.11458333333331
2344,9.0,,,,35.0,,,,,52,note_on,,112.0,35.0,112.0,56928,148.25
2345,9.0,,,,42.0,,,,,0,note_on,,88.0,42.0,88.0,56928,148.25
2346,9.0,,,,42.0,,,,,44,note_on,,0.0,42.0,0.0,56972,148.36458333333331
2347,9.0,,,,35.0,,,,,0,note_on,,0.0,35.0,0.0,56972,148.36458333333331
2348,9.0,,,,51.0,,,,,52,note_on,,112.0,51.0,112.0,57024,148.5
2349,9.0,,,,35.0,,,,,0,note_on,,112.0,35.0,112.0,57024,148.5
2350,9.0,,,,40.0,,,,,0,note_on,,112.0,40.0,112.0,57024,148.5
2351,9.0,,,,42.0,,,,,0,note_on,,88.0,42.0,88.0,57024,148.5
2352,9.0,,,,40.0,,,,,44,note_on,,0.0,40.0,0.0,57068,148.61458333333331
2353,9.0,,,,42.0,,,,,0,note_on,,0.0,42.0,0.0,57068,148.61458333333331
2354,9.0,,,,35.0,,,,,0,note_on,,0.0,35.0,0.0,57068,148.61458333333331
2355,9.0,,,,51.0,,,,,0,note_on,,0.0,51.0,0.0,57068,148.61458333333331
2356,9.0,,,,42.0,,,,,52,note_on,,88.0,42.0,88.0,57120,148.75
2357,9.0,,,,42.0,,,,,44,note_on,,0.0,42.0,0.0,57164,148.86458333333331
2358,9.0,,,,42.0,,,,,52,note_on,,88.0,42.0,88.0,57216,149.0
2359,9.0,,,,35.0,,,,,0,note_on,,112.0,35.0,112.0,57216,149.0
2360,9.0,,,,42.0,,,,,44,note_on,,0.0,42.0,0.0,57260,149.11458333333331
2361,9.0,,,,35.0,,,,,0,note_on,,0.0,35.0,0.0,57260,149.11458333333331
2362,9.0,,,,35.0,,,,,52,note_on,,112.0,35.0,112.0,57312,149.25
2363,9.0,,,,42.0,,,,,0,note_on,,88.0,42.0,88.0,57312,149.25
2364,9.0,,,,42.0,,,,,44,note_on,,0.0,42.0,0.0,57356,149.36458333333331
2365,9.0,,,,35.0,,,,,0,note_on,,0.0,35.0,0.0,57356,149.36458333333331
2366,9.0,,,,42.0,,,,,52,note_on,,88.0,42.0,88.0,57408,149.5
2367,9.0,,,,40.0,,,,,0,note_on,,112.0,40.0,112.0,57408,149.5
2368,9.0,,,,51.0,,,,,0,note_on,,112.0,51.0,112.0,57408,149.5
2369,9.0,,,,35.0,,,,,0,note_on,,112.0,35.0,112.0,57408,149.5
2370,9.0,,,,42.0,,,,,44,note_on,,0.0,42.0,0.0,57452,149.61458333333331
2371,9.0,,,,35.0,,,,,0,note_on,,0.0,35.0,0.0,57452,149.61458333333331
2372,9.0,,,,51.0,,,,,0,note_on,,0.0,51.0,0.0,57452,149.61458333333331
2373,9.0,,,,40.0,,,,,0,note_on,,0.0,40.0,0.0,57452,149.61458333333331
2374,9.0,,,,51.0,,,,,52,note_on,,112.0,51.0,112.0,57504,149.75
2375,9.0,,,,42.0,,,,,0,note_on,,88.0,42.0,88.0,57504,149.75
2376,9.0,,,,42.0,,,,,44,note_on,,0.0,42.0,0.0,57548,149.86458333333331
2377,9.0,,,,51.0,,,,,0,note_on,,0.0,51.0,0.0,57548,149.86458333333331
2378,9.0,,,,35.0,,,,,4,note_on,,112.0,35.0,112.0,57552,149.875
2379,9.0,,,,35.0,,,,,44,note_on,,0.0,35.0,0.0,57596,149.98958333333331
2380,9.0,,,,35.0,,,,,4,note_on,,112.0,35.0,112.0,57600,150.0
2381,9.0,,,,42.0,,,,,0,note_on,,88.0,42.0,88.0,57600,150.0
2382,9.0,,,,35.0,,,,,44,note_on,,0.0,35.0,0.0,57644,150.11458333333331
2383,9.0,,,,42.0,,,,,0,note_on,,0.0,42.0,0.0,57644,150.11458333333331
2384,9.0,,,,42.0,,,,,52,note_on,,88.0,42.0,88.0,57696,150.25
2385,9.0,,,,35.0,,,,,0,note_on,,112.0,35.0,112.0,57696,150.25
2386,9.0,,,,42.0,,,,,44,note_on,,0.0,42.0,0.0,57740,150.36458333333331
2387,9.0,,,,35.0,,,,,0,note_on,,0.0,35.0,0.0,57740,150.36458333333331
2388,9.0,,,,35.0,,,,,52,note_on,,112.0,35.0,112.0,57792,150.5
2389,9.0,,,,40.0,,,,,0,note_on,,112.0,40.0,112.0,57792,150.5
2390,9.0,,,,42.0,,,,,0,note_on,,88.0,42.0,88.0,57792,150.5
2391,9.0,,,,51.0,,,,,0,note_on,,112.0,51.0,112.0,57792,150.5
2392,9.0,,,,42.0,,,,,44,note_on,,0.0,42.0,0.0,57836,150.61458333333331
2393,9.0,,,,40.0,,,,,0,note_on,,0.0,40.0,0.0,57836,150.61458333333331
2394,9.0,,,,35.0,,,,,0,note_on,,0.0,35.0,0.0,57836,150.61458333333331
2395,9.0,,,,51.0,,,,,0,note_on,,0.0,51.0,0.0,57836,150.61458333333331
2396,9.0,,,,42.0,,,,,52,note_on,,88.0,42.0,88.0,57888,150.75
2397,9.0,,,,42.0,,,,,44,note_on,,0.0,42.0,0.0,57932,150.86458333333331
2398,9.0,,,,42.0,,,,,52,note_on,,88.0,42.0,88.0,57984,151.0
2399,9.0,,,,35.0,,,,,0,note_on,,112.0,35.0,112.0,57984,151.0
2400,9.0,,,,42.0,,,,,44,note_on,,0.0,42.0,0.0,58028,151.11458333333331
2401,9.0,,,,35.0,,,,,0,note_on,,0.0,35.0,0.0,58028,151.11458333333331
2402,9.0,,,,35.0,,,,,52,note_on,,112.0,35.0,112.0,58080,151.25
2403,9.0,,,,42.0,,,,,0,note_on,,88.0,42.0,88.0,58080,151.25
2404,9.0,,,,42.0,,,,,44,note_on,,0.0,42.0,0.0,58124,151.36458333333331
2405,9.0,,,,35.0,,,,,0,note_on,,0.0,35.0,0.0,58124,151.36458333333331
2406,9.0,,,,51.0,,,,,52,note_on,,112.0,51.0,112.0,58176,151.5
2407,9.0,,,,40.0,,,,,0,note_on,,112.0,40.0,112.0,58176,151.5
2408,9.0,,,,35.0,,,,,0,note_on,,112.0,35.0,112.0,58176,151.5
2409,9.0,,,,42.0,,,,,0,note_on,,88.0,42.0,88.0,58176,151.5
2410,9.0,,,,51.0,,,,,44,note_on,,0.0,51.0,0.0,58220,151.61458333333331
2411,9.0,,,,42.0,,,,,0,note_on,,0.0,42.0,0.0,58220,151.61458333333331
2412,9.0,,,,35.0,,,,,0,note_on,,0.0,35.0,0.0,58220,151.61458333333331
2413,9.0,,,,40.0,,,,,0,note_on,,0.0,40.0,0.0,58220,151.61458333333331
2414,9.0,,,,51.0,,,,,52,note_on,,112.0,51.0,112.0,58272,151.75
2415,9.0,,,,42.0,,,,,0,note_on,,88.0,42.0,88.0,58272,151.75
2416,9.0,,,,42.0,,,,,44,note_on,,0.0,42.0,0.0,58316,151.86458333333331
2417,9.0,,,,51.0,,,,,0,note_on,,0.0,51.0,0.0,58316,151.86458333333331
2418,9.0,,,,35.0,,,,,4,note_on,,112.0,35.0,112.0,58320,151.875
2419,9.0,,,,35.0,,,,,44,note_on,,0.0,35.0,0.0,58364,151.98958333333331
2420,9.0,,,,42.0,,,,,4,note_on,,88.0,42.0,88.0,58368,152.0
2421,9.0,,,,35.0,,,,,0,note_on,,112.0,35.0,112.0,58368,152.0
2422,9.0,,,,35.0,,,,,44,note_on,,0.0,35.0,0.0,58412,152.11458333333331
2423,9.0,,,,42.0,,,,,0,note_on,,0.0,42.0,0.0,58412,152.11458333333331
2424,9.0,,,,42.0,,,,,52,note_on,,88.0,42.0,88.0,58464,152.25
2425,9.0,,,,35.0,,,,,0,note_on,,112.0,35.0,112.0,58464,152.25
2426,9.0,,,,35.0,,,,,44,note_on,,0.0,35.0,0.0,58508,152.36458333333331
2427,9.0,,,,42.0,,,,,0,note_on,,0.0,42.0,0.0,58508,152.36458333333331
2428,9.0,,,,42.0,,,,,52,note_on,,88.0,42.0,88.0,58560,152.5
2429,9.0,,,,40.0,,,,,0,note_on,,112.0,40.0,112.0,58560,152.5
2430,9.0,,,,51.0,,,,,0,note_on,,112.0,51.0,112.0,58560,152.5
2431,9.0,,,,35.0,,,,,0,note_on,,112.0,35.0,112.0,58560,152.5
2432,9.0,,,,51.0,,,,,44,note_on,,0.0,51.0,0.0,58604,152.61458333333331
2433,9.0,,,,35.0,,,,,0,note_on,,0.0,35.0,0.0,58604,152.61458333333331
2434,9.0,,,,40.0,,,,,0,note_on,,0.0,40.0,0.0,58604,152.61458333333331
2435,9.0,,,,42.0,,,,,0,note_on,,0.0,42.0,0.0,58604,152.61458333333331
2436,9.0,,,,42.0,,,,,52,note_on,,88.0,42.0,88.0,58656,152.75
2437,9.0,,,,42.0,,,,,44,note_on,,0.0,42.0,0.0,58700,152.86458333333331
2438,9.0,,,,42.0,,,,,52,note_on,,88.0,42.0,88.0,58752,153.0
2439,9.0,,,,35.0,,,,,0,note_on,,112.0,35.0,112.0,58752,153.0
2440,9.0,,,,42.0,,,,,44,note_on,,0.0,42.0,0.0,58796,153.11458333333331
2441,9.0,,,,35.0,,,,,0,note_on,,0.0,35.0,0.0,58796,153.11458333333331
2442,9.0,,,,42.0,,,,,52,note_on,,88.0,42.0,88.0,58848,153.25
2443,9.0,,,,35.0,,,,,0,note_on,,112.0,35.0,112.0,58848,153.25
2444,9.0,,,,35.0,,,,,44,note_on,,0.0,35.0,0.0,58892,153.36458333333331
2445,9.0,,,,42.0,,,,,0,note_on,,0.0,42.0,0.0,58892,153.36458333333331
2446,9.0,,,,40.0,,,,,52,note_on,,112.0,40.0,112.0,58944,153.5
2447,9.0,,,,35.0,,,,,0,note_on,,112.0,35.0,112.0,58944,153.5
2448,9.0,,,,51.0,,,,,0,note_on,,112.0,51.0,112.0,58944,153.5
2449,9.0,,,,42.0,,,,,0,note_on,,88.0,42.0,88.0,58944,153.5
2450,9.0,,,,40.0,,,,,44,note_on,,0.0,40.0,0.0,58988,153.61458333333331
2451,9.0,,,,42.0,,,,,0,note_on,,0.0,42.0,0.0,58988,153.61458333333331
2452,9.0,,,,51.0,,,,,0,note_on,,0.0,51.0,0.0,58988,153.61458333333331
2453,9.0,,,,35.0,,,,,0,note_on,,0.0,35.0,0.0,58988,153.61458333333331
2454,9.0,,,,42.0,,,,,52,note_on,,88.0,42.0,88.0,59040,153.75
2455,9.0,,,,51.0,,,,,0,note_on,,112.0,51.0,112.0,59040,153.75
2456,9.0,,,,51.0,,,,,44,note_on,,0.0,51.0,0.0,59084,153.86458333333331
2457,9.0,,,,42.0,,,,,0,note_on,,0.0,42.0,0.0,59084,153.86458333333331
2458,9.0,,,,35.0,,,,,4,note_on,,112.0,35.0,112.0,59088,153.875
2459,9.0,,,,35.0,,,,,44,note_on,,0.0,35.0,0.0,59132,153.98958333333331
2460,9.0,,,,35.0,,,,,4,note_on,,112.0,35.0,112.0,59136,154.0
2461,9.0,,,,42.0,,,,,0,note_on,,88.0,42.0,88.0,59136,154.0
2462,9.0,,,,35.0,,,,,44,note_on,,0.0,35.0,0.0,59180,154.11458333333331
2463,9.0,,,,42.0,,,,,0,note_on,,0.0,42.0,0.0,59180,154.11458333333331
2464,9.0,,,,35.0,,,,,52,note_on,,112.0,35.0,112.0,59232,154.25
2465,9.0,,,,42.0,,,,,0,note_on,,88.0,42.0,88.0,59232,154.25
2466,9.0,,,,35.0,,,,,44,note_on,,0.0,35.0,0.0,59276,154.36458333333331
2467,9.0,,,,42.0,,,,,0,note_on,,0.0,42.0,0.0,59276,154.36458333333331
2468,9.0,,,,51.0,,,,,52,note_on,,112.0,51.0,112.0,59328,154.5
2469,9.0,,,,40.0,,,,,0,note_on,,112.0,40.0,112.0,59328,154.5
2470,9.0,,,,35.0,,,,,0,note_on,,112.0,35.0,112.0,59328,154.5
2471,9.0,,,,42.0,,,,,0,note_on,,88.0,42.0,88.0,59328,154.5
2472,9.0,,,,40.0,,,,,44,note_on,,0.0,40.0,0.0,59372,154.61458333333331
2473,9.0,,,,35.0,,,,,0,note_on,,0.0,35.0,0.0,59372,154.61458333333331
2474,9.0,,,,51.0,,,,,0,note_on,,0.0,51.0,0.0,59372,154.61458333333331
2475,9.0,,,,42.0,,,,,0,note_on,,0.0,42.0,0.0,59372,154.61458333333331
2476,9.0,,,,42.0,,,,,52,note_on,,88.0,42.0,88.0,59424,154.75
2477,9.0,,,,42.0,,,,,44,note_on,,0.0,42.0,0.0,59468,154.86458333333331
2478,9.0,,,,35.0,,,,,52,note_on,,112.0,35.0,112.0,59520,155.0
2479,9.0,,,,42.0,,,,,0,note_on,,88.0,42.0,88.0,59520,155.0
2480,9.0,,,,35.0,,,,,44,note_on,,0.0,35.0,0.0,59564,155.11458333333331
2481,9.0,,,,42.0,,,,,0,note_on,,0.0,42.0,0.0,59564,155.11458333333331
2482,9.0,,,,42.0,,,,,52,note_on,,88.0,42.0,88.0,59616,155.25
2483,9.0,,,,35.0,,,,,0,note_on,,112.0,35.0,112.0,59616,155.25
2484,9.0,,,,35.0,,,,,44,note_on,,0.0,35.0,0.0,59660,155.36458333333331
2485,9.0,,,,42.0,,,,,0,note_on,,0.0,42.0,0.0,59660,155.36458333333331
2486,9.0,,,,51.0,,,,,52,note_on,,112.0,51.0,112.0,59712,155.5
2487,9.0,,,,40.0,,,,,0,note_on,,112.0,40.0,112.0,59712,155.5
2488,9.0,,,,35.0,,,,,0,note_on,,112.0,35.0,112.0,59712,155.5
2489,9.0,,,,42.0,,,,,0,note_on,,88.0,42.0,88.0,59712,155.5
2490,9.0,,,,51.0,,,,,44,note_on,,0.0,51.0,0.0,59756,155.61458333333331
2491,9.0,,,,42.0,,,,,0,note_on,,0.0,42.0,0.0,59756,155.61458333333331
2492,9.0,,,,35.0,,,,,0,note_on,,0.0,35.0,0.0,59756,155.61458333333331
2493,9.0,,,,40.0,,,,,0,note_on,,0.0,40.0,0.0,59756,155.61458333333331
2494,9.0,,,,51.0,,,,,52,note_on,,112.0,51.0,112.0,59808,155.75
2495,9.0,,,,42.0,,,,,0,note_on,,88.0,42.0,88.0,59808,155.75
2496,9.0,,,,42.0,,,,,44,note_on,,0.0,42.0,0.0,59852,155.86458333333331
2497,9.0,,,,51.0,,,,,0,note_on,,0.0,51.0,0.0,59852,155.86458333333331
2498,9.0,,,,35.0,,,,,4,note_on,,112.0,35.0,112.0,59856,155.875
2499,9.0,,,,35.0,,,,,44,note_on,,0.0,35.0,0.0,59900,155.98958333333331
2500,9.0,,,,42.0,,,,,4,note_on,,88.0,42.0,88.0,59904,156.0
2501,9.0,,,,35.0,,,,,0,note_on,,112.0,35.0,112.0,59904,156.0
2502,9.0,,,,35.0,,,,,44,note_on,,0.0,35.0,0.0,59948,156.11458333333331
2503,9.0,,,,42.0,,,,,0,note_on,,0.0,42.0,0.0,59948,156.11458333333331
2504,9.0,,,,42.0,,,,,52,note_on,,88.0,42.0,88.0,60000,156.25
2505,9.0,,,,35.0,,,,,0,note_on,,112.0,35.0,112.0,60000,156.25
2506,9.0,,,,35.0,,,,,44,note_on,,0.0,35.0,0.0,60044,156.36458333333331
2507,9.0,,,,42.0,,,,,0,note_on,,0.0,42.0,0.0,60044,156.36458333333331
2508,9.0,,,,51.0,,,,,52,note_on,,112.0,51.0,112.0,60096,156.5
2509,9.0,,,,42.0,,,,,0,note_on,,88.0,42.0,88.0,60096,156.5
2510,9.0,,,,40.0,,,,,0,note_on,,112.0,40.0,112.0,60096,156.5
2511,9.0,,,,35.0,,,,,0,note_on,,112.0,35.0,112.0,60096,156.5
2512,9.0,,,,40.0,,,,,44,note_on,,0.0,40.0,0.0,60140,156.61458333333331
2513,9.0,,,,35.0,,,,,0,note_on,,0.0,35.0,0.0,60140,156.61458333333331
2514,9.0,,,,42.0,,,,,0,note_on,,0.0,42.0,0.0,60140,156.61458333333331
2515,9.0,,,,51.0,,,,,0,note_on,,0.0,51.0,0.0,60140,156.61458333333331
2516,9.0,,,,42.0,,,,,52,note_on,,88.0,42.0,88.0,60192,156.75
2517,9.0,,,,42.0,,,,,44,note_on,,0.0,42.0,0.0,60236,156.86458333333331
2518,9.0,,,,42.0,,,,,52,note_on,,88.0,42.0,88.0,60288,157.0
2519,9.0,,,,35.0,,,,,0,note_on,,112.0,35.0,112.0,60288,157.0
2520,9.0,,,,42.0,,,,,44,note_on,,0.0,42.0,0.0,60332,157.11458333333331
2521,9.0,,,,35.0,,,,,0,note_on,,0.0,35.0,0.0,60332,157.11458333333331
2522,9.0,,,,35.0,,,,,52,note_on,,112.0,35.0,112.0,60384,157.25
2523,9.0,,,,42.0,,,,,0,note_on,,88.0,42.0,88.0,60384,157.25
2524,9.0,,,,42.0,,,,,44,note_on,,0.0,42.0,0.0,60428,157.36458333333331
2525,9.0,,,,35.0,,,,,0,note_on,,0.0,35.0,0.0,60428,157.36458333333331
2526,9.0,,,,35.0,,,,,52,note_on,,112.0,35.0,112.0,60480,157.5
2527,9.0,,,,51.0,,,,,0,note_on,,112.0,51.0,112.0,60480,157.5
2528,9.0,,,,40.0,,,,,0,note_on,,112.0,40.0,112.0,60480,157.5
2529,9.0,,,,42.0,,,,,0,note_on,,88.0,42.0,88.0,60480,157.5
2530,9.0,,,,35.0,,,,,44,note_on,,0.0,35.0,0.0,60524,157.61458333333331
2531,9.0,,,,42.0,,,,,0,note_on,,0.0,42.0,0.0,60524,157.61458333333331
2532,9.0,,,,40.0,,,,,0,note_on,,0.0,40.0,0.0,60524,157.61458333333331
2533,9.0,,,,51.0,,,,,0,note_on,,0.0,51.0,0.0,60524,157.61458333333331
2534,9.0,,,,42.0,,,,,52,note_on,,88.0,42.0,88.0,60576,157.75
2535,9.0,,,,51.0,,,,,0,note_on,,112.0,51.0,112.0,60576,157.75
2536,9.0,,,,51.0,,,,,44,note_on,,0.0,51.0,0.0,60620,157.86458333333331
2537,9.0,,,,42.0,,,,,0,note_on,,0.0,42.0,0.0,60620,157.86458333333331
2538,9.0,,,,35.0,,,,,4,note_on,,112.0,35.0,112.0,60624,157.875
2539,9.0,,,,35.0,,,,,44,note_on,,0.0,35.0,0.0,60668,157.98958333333331
2540,9.0,,,,42.0,,,,,4,note_on,,88.0,42.0,88.0,60672,158.0
2541,9.0,,,,35.0,,,,,0,note_on,,112.0,35.0,112.0,60672,158.0
2542,9.0,,,,42.0,,,,,44,note_on,,0.0,42.0,0.0,60716,158.11458333333331
2543,9.0,,,,35.0,,,,,0,note_on,,0.0,35.0,0.0,60716,158.11458333333331
2544,9.0,,,,42.0,,,,,52,note_on,,88.0,42.0,88.0,60768,158.25
2545,9.0,,,,35.0,,,,,0,note_on,,112.0,35.0,112.0,60768,158.25
2546,9.0,,,,42.0,,,,,44,note_on,,0.0,42.0,0.0,60812,158.36458333333331
2547,9.0,,,,35.0,,,,,0,note_on,,0.0,35.0,0.0,60812,158.36458333333331
2548,9.0,,,,42.0,,,,,52,note_on,,88.0,42.0,88.0,60864,158.5
2549,9.0,,,,35.0,,,,,0,note_on,,112.0,35.0,112.0,60864,158.5
2550,9.0,,,,51.0,,,,,0,note_on,,112.0,51.0,112.0,60864,158.5
2551,9.0,,,,40.0,,,,,0,note_on,,112.0,40.0,112.0,60864,158.5
2552,9.0,,,,51.0,,,,,44,note_on,,0.0,51.0,0.0,60908,158.61458333333331
2553,9.0,,,,35.0,,,,,0,note_on,,0.0,35.0,0.0,60908,158.61458333333331
2554,9.0,,,,42.0,,,,,0,note_on,,0.0,42.0,0.0,60908,158.61458333333331
2555,9.0,,,,40.0,,,,,0,note_on,,0.0,40.0,0.0,60908,158.61458333333331
2556,9.0,,,,42.0,,,,,52,note_on,,88.0,42.0,88.0,60960,158.75
2557,9.0,,,,42.0,,,,,44,note_on,,0.0,42.0,0.0,61004,158.86458333333331
2558,9.0,,,,42.0,,,,,52,note_on,,88.0,42.0,88.0,61056,159.0
2559,9.0,,,,35.0,,,,,0,note_on,,112.0,35.0,112.0,61056,159.0
2560,9.0,,,,42.0,,,,,44,note_on,,0.0,42.0,0.0,61100,159.11458333333331
2561,9.0,,,,35.0,,,,,0,note_on,,0.0,35.0,0.0,61100,159.11458333333331
2562,9.0,,,,42.0,,,,,52,note_on,,88.0,42.0,88.0,61152,159.25
2563,9.0,,,,35.0,,,,,0,note_on,,112.0,35.0,112.0,61152,159.25
2564,9.0,,,,35.0,,,,,44,note_on,,0.0,35.0,0.0,61196,159.36458333333331
2565,9.0,,,,42.0,,,,,0,note_on,,0.0,42.0,0.0,61196,159.36458333333331
2566,9.0,,,,42.0,,,,,52,note_on,,88.0,42.0,88.0,61248,159.5
2567,9.0,,,,35.0,,,,,0,note_on,,112.0,35.0,112.0,61248,159.5
2568,9.0,,,,40.0,,,,,0,note_on,,112.0,40.0,112.0,61248,159.5
2569,9.0,,,,51.0,,,,,0,note_on,,112.0,51.0,112.0,61248,159.5
2570,9.0,,,,42.0,,,,,44,note_on,,0.0,42.0,0.0,61292,159.61458333333331
2571,9.0,,,,51.0,,,,,0,note_on,,0.0,51.0,0.0,61292,159.61458333333331
2572,9.0,,,,40.0,,,,,0,note_on,,0.0,40.0,0.0,61292,159.61458333333331
2573,9.0,,,,35.0,,,,,0,note_on,,0.0,35.0,0.0,61292,159.61458333333331
2574,9.0,,,,51.0,,,,,52,note_on,,112.0,51.0,112.0,61344,159.75
2575,9.0,,,,42.0,,,,,0,note_on,,88.0,42.0,88.0,61344,159.75
2576,9.0,,,,42.0,,,,,44,note_on,,0.0,42.0,0.0,61388,159.86458333333331
2577,9.0,,,,51.0,,,,,0,note_on,,0.0,51.0,0.0,61388,159.86458333333331
2578,9.0,,,,35.0,,,,,4,note_on,,112.0,35.0,112.0,61392,159.875
2579,9.0,,,,35.0,,,,,44,note_on,,0.0,35.0,0.0,61436,159.98958333333331
2580,9.0,,,,42.0,,,,,4,note_on,,88.0,42.0,88.0,61440,160.0
2581,9.0,,,,35.0,,,,,0,note_on,,112.0,35.0,112.0,61440,160.0
2582,9.0,,,,35.0,,,,,44,note_on,,0.0,35.0,0.0,61484,160.11458333333331
2583,9.0,,,,42.0,,,,,0,note_on,,0.0,42.0,0.0,61484,160.11458333333331
2584,9.0,,,,35.0,,,,,52,note_on,,112.0,35.0,112.0,61536,160.25
2585,9.0,,,,42.0,,,,,0,note_on,,88.0,42.0,88.0,61536,160.25
2586,9.0,,,,42.0,,,,,44,note_on,,0.0,42.0,0.0,61580,160.36458333333331
2587,9.0,,,,35.0,,,,,0,note_on,,0.0,35.0,0.0,61580,160.36458333333331
2588,9.0,,,,42.0,,,,,52,note_on,,88.0,42.0,88.0,61632,160.5
2589,9.0,,,,35.0,,,,,0,note_on,,112.0,35.0,112.0,61632,160.5
2590,9.0,,,,51.0,,,,,0,note_on,,112.0,51.0,112.0,61632,160.5
2591,9.0,,,,40.0,,,,,0,note_on,,112.0,40.0,112.0,61632,160.5
2592,9.0,,,,51.0,,,,,44,note_on,,0.0,51.0,0.0,61676,160.61458333333331
2593,9.0,,,,40.0,,,,,0,note_on,,0.0,40.0,0.0,61676,160.61458333333331
2594,9.0,,,,35.0,,,,,0,note_on,,0.0,35.0,0.0,61676,160.61458333333331
2595,9.0,,,,42.0,,,,,0,note_on,,0.0,42.0,0.0,61676,160.61458333333331
2596,9.0,,,,42.0,,,,,52,note_on,,88.0,42.0,88.0,61728,160.75
2597,9.0,,,,42.0,,,,,44,note_on,,0.0,42.0,0.0,61772,160.86458333333331
2598,9.0,,,,42.0,,,,,52,note_on,,88.0,42.0,88.0,61824,161.0
2599,9.0,,,,35.0,,,,,0,note_on,,112.0,35.0,112.0,61824,161.0
2600,9.0,,,,42.0,,,,,44,note_on,,0.0,42.0,0.0,61868,161.11458333333331
2601,9.0,,,,35.0,,,,,0,note_on,,0.0,35.0,0.0,61868,161.11458333333331
2602,9.0,,,,42.0,,,,,52,note_on,,88.0,42.0,88.0,61920,161.25
2603,9.0,,,,35.0,,,,,0,note_on,,112.0,35.0,112.0,61920,161.25
2604,9.0,,,,35.0,,,,,44,note_on,,0.0,35.0,0.0,61964,161.36458333333331
2605,9.0,,,,42.0,,,,,0,note_on,,0.0,42.0,0.0,61964,161.36458333333331
2606,9.0,,,,40.0,,,,,52,note_on,,112.0,40.0,112.0,62016,161.5
2607,9.0,,,,51.0,,,,,0,note_on,,112.0,51.0,112.0,62016,161.5
2608,9.0,,,,42.0,,,,,0,note_on,,88.0,42.0,88.0,62016,161.5
2609,9.0,,,,35.0,,,,,0,note_on,,112.0,35.0,112.0,62016,161.5
2610,9.0,,,,40.0,,,,,44,note_on,,0.0,40.0,0.0,62060,161.61458333333331
2611,9.0,,,,35.0,,,,,0,note_on,,0.0,35.0,0.0,62060,161.61458333333331
2612,9.0,,,,42.0,,,,,0,note_on,,0.0,42.0,0.0,62060,161.61458333333331
2613,9.0,,,,51.0,,,,,0,note_on,,0.0,51.0,0.0,62060,161.61458333333331
2614,9.0,,,,51.0,,,,,52,note_on,,112.0,51.0,112.0,62112,161.75
2615,9.0,,,,42.0,,,,,0,note_on,,88.0,42.0,88.0,62112,161.75
2616,9.0,,,,42.0,,,,,44,note_on,,0.0,42.0,0.0,62156,161.86458333333331
2617,9.0,,,,51.0,,,,,0,note_on,,0.0,51.0,0.0,62156,161.86458333333331
2618,9.0,,,,35.0,,,,,4,note_on,,112.0,35.0,112.0,62160,161.875
2619,9.0,,,,35.0,,,,,44,note_on,,0.0,35.0,0.0,62204,161.98958333333331
2620,9.0,,,,35.0,,,,,4,note_on,,112.0,35.0,112.0,62208,162.0
2621,9.0,,,,42.0,,,,,0,note_on,,88.0,42.0,88.0,62208,162.0
2622,9.0,,,,35.0,,,,,44,note_on,,0.0,35.0,0.0,62252,162.11458333333331
2623,9.0,,,,42.0,,,,,0,note_on,,0.0,42.0,0.0,62252,162.11458333333331
2624,9.0,,,,42.0,,,,,52,note_on,,88.0,42.0,88.0,62304,162.25
2625,9.0,,,,35.0,,,,,0,note_on,,112.0,35.0,112.0,62304,162.25
2626,9.0,,,,42.0,,,,,44,note_on,,0.0,42.0,0.0,62348,162.36458333333331
2627,9.0,,,,35.0,,,,,0,note_on,,0.0,35.0,0.0,62348,162.36458333333331
2628,9.0,,,,51.0,,,,,52,note_on,,112.0,51.0,112.0,62400,162.5
2629,9.0,,,,35.0,,,,,0,note_on,,112.0,35.0,112.0,62400,162.5
2630,9.0,,,,40.0,,,,,0,note_on,,112.0,40.0,112.0,62400,162.5
2631,9.0,,,,42.0,,,,,0,note_on,,88.0,42.0,88.0,62400,162.5
2632,9.0,,,,35.0,,,,,44,note_on,,0.0,35.0,0.0,62444,162.61458333333331
2633,9.0,,,,40.0,,,,,0,note_on,,0.0,40.0,0.0,62444,162.61458333333331
2634,9.0,,,,51.0,,,,,0,note_on,,0.0,51.0,0.0,62444,162.61458333333331
2635,9.0,,,,42.0,,,,,0,note_on,,0.0,42.0,0.0,62444,162.61458333333331
2636,9.0,,,,42.0,,,,,52,note_on,,88.0,42.0,88.0,62496,162.75
2637,9.0,,,,42.0,,,,,44,note_on,,0.0,42.0,0.0,62540,162.86458333333331
2638,9.0,,,,35.0,,,,,52,note_on,,112.0,35.0,112.0,62592,163.0
2639,9.0,,,,42.0,,,,,0,note_on,,88.0,42.0,88.0,62592,163.0
2640,9.0,,,,35.0,,,,,44,note_on,,0.0,35.0,0.0,62636,163.11458333333331
2641,9.0,,,,42.0,,,,,0,note_on,,0.0,42.0,0.0,62636,163.11458333333331
2642,9.0,,,,35.0,,,,,52,note_on,,112.0,35.0,112.0,62688,163.25
2643,9.0,,,,42.0,,,,,0,note_on,,88.0,42.0,88.0,62688,163.25
2644,9.0,,,,42.0,,,,,44,note_on,,0.0,42.0,0.0,62732,163.36458333333331
2645,9.0,,,,35.0,,,,,0,note_on,,0.0,35.0,0.0,62732,163.36458333333331
2646,9.0,,,,51.0,,,,,52,note_on,,112.0,51.0,112.0,62784,163.5
2647,9.0,,,,40.0,,,,,0,note_on,,112.0,40.0,112.0,62784,163.5
2648,9.0,,,,42.0,,,,,0,note_on,,88.0,42.0,88.0,62784,163.5
2649,9.0,,,,35.0,,,,,0,note_on,,112.0,35.0,112.0,62784,163.5
2650,9.0,,,,51.0,,,,,44,note_on,,0.0,51.0,0.0,62828,163.61458333333331
2651,9.0,,,,35.0,,,,,0,note_on,,0.0,35.0,0.0,62828,163.61458333333331
2652,9.0,,,,42.0,,,,,0,note_on,,0.0,42.0,0.0,62828,163.61458333333331
2653,9.0,,,,40.0,,,,,0,note_on,,0.0,40.0,0.0,62828,163.61458333333331
2654,9.0,,,,42.0,,,,,52,note_on,,88.0,42.0,88.0,62880,163.75
2655,9.0,,,,51.0,,,,,0,note_on,,112.0,51.0,112.0,62880,163.75
2656,9.0,,,,51.0,,,,,44,note_on,,0.0,51.0,0.0,62924,163.86458333333331
2657,9.0,,,,42.0,,,,,0,note_on,,0.0,42.0,0.0,62924,163.86458333333331
2658,9.0,,,,35.0,,,,,4,note_on,,112.0,35.0,112.0,62928,163.875
2659,9.0,,,,35.0,,,,,44,note_on,,0.0,35.0,0.0,62972,163.98958333333331
2660,9.0,,,,35.0,,,,,4,note_on,,112.0,35.0,112.0,62976,164.0
2661,9.0,,,,42.0,,,,,0,note_on,,88.0,42.0,88.0,62976,164.0
2662,9.0,,,,42.0,,,,,44,note_on,,0.0,42.0,0.0,63020,164.11458333333331
2663,9.0,,,,35.0,,,,,0,note_on,,0.0,35.0,0.0,63020,164.11458333333331
2664,9.0,,,,35.0,,,,,52,note_on,,112.0,35.0,112.0,63072,164.25
2665,9.0,,,,42.0,,,,,0,note_on,,88.0,42.0,88.0,63072,164.25
2666,9.0,,,,42.0,,,,,44,note_on,,0.0,42.0,0.0,63116,164.36458333333331
2667,9.0,,,,35.0,,,,,0,note_on,,0.0,35.0,0.0,63116,164.36458333333331
2668,9.0,,,,35.0,,,,,52,note_on,,112.0,35.0,112.0,63168,164.5
2669,9.0,,,,40.0,,,,,0,note_on,,112.0,40.0,112.0,63168,164.5
2670,9.0,,,,51.0,,,,,0,note_on,,112.0,51.0,112.0,63168,164.5
2671,9.0,,,,42.0,,,,,0,note_on,,88.0,42.0,88.0,63168,164.5
2672,9.0,,,,51.0,,,,,44,note_on,,0.0,51.0,0.0,63212,164.61458333333331
2673,9.0,,,,42.0,,,,,0,note_on,,0.0,42.0,0.0,63212,164.61458333333331
2674,9.0,,,,40.0,,,,,0,note_on,,0.0,40.0,0.0,63212,164.61458333333331
2675,9.0,,,,35.0,,,,,0,note_on,,0.0,35.0,0.0,63212,164.61458333333331
2676,9.0,,,,42.0,,,,,52,note_on,,88.0,42.0,88.0,63264,164.75
2677,9.0,,,,42.0,,,,,44,note_on,,0.0,42.0,0.0,63308,164.86458333333331
2678,9.0,,,,42.0,,,,,52,note_on,,88.0,42.0,88.0,63360,165.0
2679,9.0,,,,35.0,,,,,0,note_on,,112.0,35.0,112.0,63360,165.0
2680,9.0,,,,42.0,,,,,44,note_on,,0.0,42.0,0.0,63404,165.11458333333331
2681,9.0,,,,35.0,,,,,0,note_on,,0.0,35.0,0.0,63404,165.11458333333331
2682,9.0,,,,42.0,,,,,52,note_on,,88.0,42.0,88.0,63456,165.25
2683,9.0,,,,35.0,,,,,0,note_on,,112.0,35.0,112.0,63456,165.25
2684,9.0,,,,35.0,,,,,44,note_on,,0.0,35.0,0.0,63500,165.36458333333331
2685,9.0,,,,42.0,,,,,0,note_on,,0.0,42.0,0.0,63500,165.36458333333331
2686,9.0,,,,51.0,,,,,52,note_on,,112.0,51.0,112.0,63552,165.5
2687,9.0,,,,35.0,,,,,0,note_on,,112.0,35.0,112.0,63552,165.5
2688,9.0,,,,42.0,,,,,0,note_on,,88.0,42.0,88.0,63552,165.5
2689,9.0,,,,40.0,,,,,0,note_on,,112.0,40.0,112.0,63552,165.5
2690,9.0,,,,51.0,,,,,44,note_on,,0.0,51.0,0.0,63596,165.61458333333331
2691,9.0,,,,40.0,,,,,0,note_on,,0.0,40.0,0.0,63596,165.61458333333331
2692,9.0,,,,42.0,,,,,0,note_on,,0.0,42.0,0.0,63596,165.61458333333331
2693,9.0,,,,35.0,,,,,0,note_on,,0.0,35.0,0.0,63596,165.61458333333331
2694,9.0,,,,42.0,,,,,52,note_on,,88.0,42.0,88.0,63648,165.75
2695,9.0,,,,51.0,,,,,0,note_on,,112.0,51.0,112.0,63648,165.75
2696,9.0,,,,51.0,,,,,44,note_on,,0.0,51.0,0.0,63692,165.86458333333331
2697,9.0,,,,42.0,,,,,0,note_on,,0.0,42.0,0.0,63692,165.86458333333331
2698,9.0,,,,35.0,,,,,4,note_on,,112.0,35.0,112.0,63696,165.875
2699,9.0,,,,35.0,,,,,44,note_on,,0.0,35.0,0.0,63740,165.98958333333331
2700,9.0,,,,35.0,,,,,4,note_on,,112.0,35.0,112.0,63744,166.0
2701,9.0,,,,42.0,,,,,0,note_on,,88.0,42.0,88.0,63744,166.0
2702,9.0,,,,35.0,,,,,44,note_on,,0.0,35.0,0.0,63788,166.11458333333331
2703,9.0,,,,42.0,,,,,0,note_on,,0.0,42.0,0.0,63788,166.11458333333331
2704,9.0,,,,35.0,,,,,52,note_on,,112.0,35.0,112.0,63840,166.25
2705,9.0,,,,42.0,,,,,0,note_on,,88.0,42.0,88.0,63840,166.25
2706,9.0,,,,35.0,,,,,44,note_on,,0.0,35.0,0.0,63884,166.36458333333331
2707,9.0,,,,42.0,,,,,0,note_on,,0.0,42.0,0.0,63884,166.36458333333331
2708,9.0,,,,42.0,,,,,52,note_on,,88.0,42.0,88.0,63936,166.5
2709,9.0,,,,35.0,,,,,0,note_on,,112.0,35.0,112.0,63936,166.5
2710,9.0,,,,51.0,,,,,0,note_on,,112.0,51.0,112.0,63936,166.5
2711,9.0,,,,40.0,,,,,0,note_on,,112.0,40.0,112.0,63936,166.5
2712,9.0,,,,51.0,,,,,44,note_on,,0.0,51.0,0.0,63980,166.61458333333331
2713,9.0,,,,35.0,,,,,0,note_on,,0.0,35.0,0.0,63980,166.61458333333331
2714,9.0,,,,42.0,,,,,0,note_on,,0.0,42.0,0.0,63980,166.61458333333331
2715,9.0,,,,40.0,,,,,0,note_on,,0.0,40.0,0.0,63980,166.61458333333331
2716,9.0,,,,42.0,,,,,52,note_on,,88.0,42.0,88.0,64032,166.75
2717,9.0,,,,42.0,,,,,44,note_on,,0.0,42.0,0.0,64076,166.86458333333331
2718,9.0,,,,35.0,,,,,52,note_on,,112.0,35.0,112.0,64128,167.0
2719,9.0,,,,42.0,,,,,0,note_on,,88.0,42.0,88.0,64128,167.0
2720,9.0,,,,35.0,,,,,44,note_on,,0.0,35.0,0.0,64172,167.11458333333331
2721,9.0,,,,42.0,,,,,0,note_on,,0.0,42.0,0.0,64172,167.11458333333331
2722,9.0,,,,35.0,,,,,52,note_on,,112.0,35.0,112.0,64224,167.25
2723,9.0,,,,42.0,,,,,0,note_on,,88.0,42.0,88.0,64224,167.25
2724,9.0,,,,42.0,,,,,44,note_on,,0.0,42.0,0.0,64268,167.36458333333331
2725,9.0,,,,35.0,,,,,0,note_on,,0.0,35.0,0.0,64268,167.36458333333331
2726,9.0,,,,40.0,,,,,52,note_on,,112.0,40.0,112.0,64320,167.5
2727,9.0,,,,42.0,,,,,0,note_on,,88.0,42.0,88.0,64320,167.5
2728,9.0,,,,51.0,,,,,0,note_on,,112.0,51.0,112.0,64320,167.5
2729,9.0,,,,35.0,,,,,0,note_on,,112.0,35.0,112.0,64320,167.5
2730,9.0,,,,40.0,,,,,44,note_on,,0.0,40.0,0.0,64364,167.61458333333331
2731,9.0,,,,35.0,,,,,0,note_on,,0.0,35.0,0.0,64364,167.61458333333331
2732,9.0,,,,51.0,,,,,0,note_on,,0.0,51.0,0.0,64364,167.61458333333331
2733,9.0,,,,42.0,,,,,0,note_on,,0.0,42.0,0.0,64364,167.61458333333331
2734,9.0,,,,42.0,,,,,52,note_on,,88.0,42.0,88.0,64416,167.75
2735,9.0,,,,51.0,,,,,0,note_on,,112.0,51.0,112.0,64416,167.75
2736,9.0,,,,51.0,,,,,44,note_on,,0.0,51.0,0.0,64460,167.86458333333331
2737,9.0,,,,42.0,,,,,0,note_on,,0.0,42.0,0.0,64460,167.86458333333331
2738,9.0,,,,35.0,,,,,4,note_on,,112.0,35.0,112.0,64464,167.875
2739,9.0,,,,35.0,,,,,44,note_on,,0.0,35.0,0.0,64508,167.98958333333331
2740,9.0,,,,35.0,,,,,4,note_on,,112.0,35.0,112.0,64512,168.0
2741,9.0,,,,42.0,,,,,0,note_on,,88.0,42.0,88.0,64512,168.0
2742,9.0,,,,42.0,,,,,44,note_on,,0.0,42.0,0.0,64556,168.11458333333331
2743,9.0,,,,35.0,,,,,0,note_on,,0.0,35.0,0.0,64556,168.11458333333331
2744,9.0,,,,35.0,,,,,52,note_on,,112.0,35.0,112.0,64608,168.25
2745,9.0,,,,42.0,,,,,0,note_on,,88.0,42.0,88.0,64608,168.25
2746,9.0,,,,42.0,,,,,44,note_on,,0.0,42.0,0.0,64652,168.36458333333331
2747,9.0,,,,35.0,,,,,0,note_on,,0.0,35.0,0.0,64652,168.36458333333331
2748,9.0,,,,42.0,,,,,52,note_on,,88.0,42.0,88.0,64704,168.5
2749,9.0,,,,51.0,,,,,0,note_on,,112.0,51.0,112.0,64704,168.5
2750,9.0,,,,35.0,,,,,0,note_on,,112.0,35.0,112.0,64704,168.5
2751,9.0,,,,40.0,,,,,0,note_on,,112.0,40.0,112.0,64704,168.5
2752,9.0,,,,35.0,,,,,44,note_on,,0.0,35.0,0.0,64748,168.61458333333331
2753,9.0,,,,40.0,,,,,0,note_on,,0.0,40.0,0.0,64748,168.61458333333331
2754,9.0,,,,51.0,,,,,0,note_on,,0.0,51.0,0.0,64748,168.61458333333331
2755,9.0,,,,42.0,,,,,0,note_on,,0.0,42.0,0.0,64748,168.61458333333331
2756,9.0,,,,42.0,,,,,52,note_on,,88.0,42.0,88.0,64800,168.75
2757,9.0,,,,42.0,,,,,44,note_on,,0.0,42.0,0.0,64844,168.86458333333331
2758,9.0,,,,42.0,,,,,52,note_on,,88.0,42.0,88.0,64896,169.0
2759,9.0,,,,35.0,,,,,0,note_on,,112.0,35.0,112.0,64896,169.0
2760,9.0,,,,42.0,,,,,44,note_on,,0.0,42.0,0.0,64940,169.11458333333331
2761,9.0,,,,35.0,,,,,0,note_on,,0.0,35.0,0.0,64940,169.11458333333331
2762,9.0,,,,35.0,,,,,52,note_on,,112.0,35.0,112.0,64992,169.25
2763,9.0,,,,42.0,,,,,0,note_on,,88.0,42.0,88.0,64992,169.25
2764,9.0,,,,42.0,,,,,44,note_on,,0.0,42.0,0.0,65036,169.36458333333331
2765,9.0,,,,35.0,,,,,0,note_on,,0.0,35.0,0.0,65036,169.36458333333331
2766,9.0,,,,35.0,,,,,52,note_on,,112.0,35.0,112.0,65088,169.5
2767,9.0,,,,42.0,,,,,0,note_on,,88.0,42.0,88.0,65088,169.5
2768,9.0,,,,40.0,,,,,0,note_on,,112.0,40.0,112.0,65088,169.5
2769,9.0,,,,51.0,,,,,0,note_on,,112.0,51.0,112.0,65088,169.5
2770,9.0,,,,35.0,,,,,44,note_on,,0.0,35.0,0.0,65132,169.61458333333331
2771,9.0,,,,51.0,,,,,0,note_on,,0.0,51.0,0.0,65132,169.61458333333331
2772,9.0,,,,40.0,,,,,0,note_on,,0.0,40.0,0.0,65132,169.61458333333331
2773,9.0,,,,42.0,,,,,0,note_on,,0.0,42.0,0.0,65132,169.61458333333331
2774,9.0,,,,51.0,,,,,52,note_on,,112.0,51.0,112.0,65184,169.75
2775,9.0,,,,42.0,,,,,0,note_on,,88.0,42.0,88.0,65184,169.75
2776,9.0,,,,42.0,,,,,44,note_on,,0.0,42.0,0.0,65228,169.86458333333331
2777,9.0,,,,51.0,,,,,0,note_on,,0.0,51.0,0.0,65228,169.86458333333331
2778,9.0,,,,35.0,,,,,4,note_on,,112.0,35.0,112.0,65232,169.875
2779,9.0,,,,35.0,,,,,44,note_on,,0.0,35.0,0.0,65276,169.98958333333331
2780,9.0,,,,42.0,,,,,4,note_on,,112.0,42.0,112.0,65280,170.0
2781,9.0,,,,35.0,,,,,0,note_on,,112.0,35.0,112.0,65280,170.0
2782,9.0,,,,42.0,,,,,44,note_on,,0.0,42.0,0.0,65324,170.11458333333331
2783,9.0,,,,35.0,,,,,0,note_on,,0.0,35.0,0.0,65324,170.11458333333331
2784,9.0,,,,35.0,,,,,52,note_on,,112.0,35.0,112.0,65376,170.25
2785,9.0,,,,42.0,,,,,0,note_on,,107.0,42.0,107.0,65376,170.25
2786,9.0,,,,35.0,,,,,44,note_on,,0.0,35.0,0.0,65420,170.36458333333331
2787,9.0,,,,42.0,,,,,0,note_on,,0.0,42.0,0.0,65420,170.36458333333331
2788,9.0,,,,40.0,,,,,52,note_on,,103.0,40.0,103.0,65472,170.5
2789,9.0,,,,51.0,,,,,0,note_on,,103.0,51.0,103.0,65472,170.5
2790,9.0,,,,35.0,,,,,0,note_on,,103.0,35.0,103.0,65472,170.5
2791,9.0,,,,42.0,,,,,0,note_on,,103.0,42.0,103.0,65472,170.5
2792,9.0,,,,51.0,,,,,44,note_on,,0.0,51.0,0.0,65516,170.61458333333331
2793,9.0,,,,35.0,,,,,0,note_on,,0.0,35.0,0.0,65516,170.61458333333331
2794,9.0,,,,40.0,,,,,0,note_on,,0.0,40.0,0.0,65516,170.61458333333331
2795,9.0,,,,42.0,,,,,0,note_on,,0.0,42.0,0.0,65516,170.61458333333331
2796,9.0,,,,42.0,,,,,52,note_on,,100.0,42.0,100.0,65568,170.75
2797,9.0,,,,42.0,,,,,44,note_on,,0.0,42.0,0.0,65612,170.86458333333331
2798,9.0,,,,42.0,,,,,52,note_on,,97.0,42.0,97.0,65664,171.0
2799,9.0,,,,35.0,,,,,0,note_on,,97.0,35.0,97.0,65664,171.0
2800,9.0,,,,42.0,,,,,44,note_on,,0.0,42.0,0.0,65708,171.11458333333331
2801,9.0,,,,35.0,,,,,0,note_on,,0.0,35.0,0.0,65708,171.11458333333331
2802,9.0,,,,35.0,,,,,52,note_on,,95.0,35.0,95.0,65760,171.25
2803,9.0,,,,42.0,,,,,0,note_on,,95.0,42.0,95.0,65760,171.25
2804,9.0,,,,42.0,,,,,44,note_on,,0.0,42.0,0.0,65804,171.36458333333331
2805,9.0,,,,35.0,,,,,0,note_on,,0.0,35.0,0.0,65804,171.36458333333331
2806,9.0,,,,51.0,,,,,52,note_on,,92.0,51.0,92.0,65856,171.5
2807,9.0,,,,35.0,,,,,0,note_on,,92.0,35.0,92.0,65856,171.5
2808,9.0,,,,40.0,,,,,0,note_on,,92.0,40.0,92.0,65856,171.5
2809,9.0,,,,42.0,,,,,0,note_on,,92.0,42.0,92.0,65856,171.5
2810,9.0,,,,51.0,,,,,44,note_on,,0.0,51.0,0.0,65900,171.61458333333331
2811,9.0,,,,42.0,,,,,0,note_on,,0.0,42.0,0.0,65900,171.61458333333331
2812,9.0,,,,40.0,,,,,0,note_on,,0.0,40.0,0.0,65900,171.61458333333331
2813,9.0,,,,35.0,,,,,0,note_on,,0.0,35.0,0.0,65900,171.61458333333331
2814,9.0,,,,51.0,,,,,52,note_on,,89.0,51.0,89.0,65952,171.75
2815,9.0,,,,42.0,,,,,0,note_on,,89.0,42.0,89.0,65952,171.75
2816,9.0,,,,42.0,,,,,44,note_on,,0.0,42.0,0.0,65996,171.86458333333331
2817,9.0,,,,51.0,,,,,0,note_on,,0.0,51.0,0.0,65996,171.86458333333331
2818,9.0,,,,35.0,,,,,4,note_on,,88.0,35.0,88.0,66000,171.875
2819,9.0,,,,35.0,,,,,44,note_on,,0.0,35.0,0.0,66044,171.98958333333331
2820,9.0,,,,35.0,,,,,4,note_on,,88.0,35.0,88.0,66048,172.0
2821,9.0,,,,42.0,,,,,0,note_on,,87.0,42.0,87.0,66048,172.0
2822,9.0,,,,42.0,,,,,44,note_on,,0.0,42.0,0.0,66092,172.11458333333331
2823,9.0,,,,35.0,,,,,0,note_on,,0.0,35.0,0.0,66092,172.11458333333331
2824,9.0,,,,42.0,,,,,52,note_on,,83.0,42.0,83.0,66144,172.25
2825,9.0,,,,35.0,,,,,0,note_on,,87.0,35.0,87.0,66144,172.25
2826,9.0,,,,35.0,,,,,44,note_on,,0.0,35.0,0.0,66188,172.36458333333331
2827,9.0,,,,42.0,,,,,0,note_on,,0.0,42.0,0.0,66188,172.36458333333331
2828,9.0,,,,40.0,,,,,52,note_on,,78.0,40.0,78.0,66240,172.5
2829,9.0,,,,51.0,,,,,0,note_on,,78.0,51.0,78.0,66240,172.5
2830,9.0,,,,35.0,,,,,0,note_on,,78.0,35.0,78.0,66240,172.5
2831,9.0,,,,42.0,,,,,0,note_on,,78.0,42.0,78.0,66240,172.5
2832,9.0,,,,35.0,,,,,44,note_on,,0.0,35.0,0.0,66284,172.61458333333331
2833,9.0,,,,42.0,,,,,0,note_on,,0.0,42.0,0.0,66284,172.61458333333331
2834,9.0,,,,51.0,,,,,0,note_on,,0.0,51.0,0.0,66284,172.61458333333331
2835,9.0,,,,40.0,,,,,0,note_on,,0.0,40.0,0.0,66284,172.61458333333331
2836,9.0,,,,42.0,,,,,52,note_on,,75.0,42.0,75.0,66336,172.75
2837,9.0,,,,42.0,,,,,44,note_on,,0.0,42.0,0.0,66380,172.86458333333331
2838,9.0,,,,35.0,,,,,52,note_on,,72.0,35.0,72.0,66432,173.0
2839,9.0,,,,42.0,,,,,0,note_on,,72.0,42.0,72.0,66432,173.0
2840,9.0,,,,35.0,,,,,44,note_on,,0.0,35.0,0.0,66476,173.11458333333331
2841,9.0,,,,42.0,,,,,0,note_on,,0.0,42.0,0.0,66476,173.11458333333331
2842,9.0,,,,35.0,,,,,52,note_on,,69.0,35.0,69.0,66528,173.25
2843,9.0,,,,42.0,,,,,0,note_on,,69.0,42.0,69.0,66528,173.25
2844,9.0,,,,42.0,,,,,44,note_on,,0.0,42.0,0.0,66572,173.36458333333331
2845,9.0,,,,35.0,,,,,0,note_on,,0.0,35.0,0.0,66572,173.36458333333331
2846,9.0,,,,42.0,,,,,52,note_on,,67.0,42.0,67.0,66624,173.5
2847,9.0,,,,35.0,,,,,0,note_on,,67.0,35.0,67.0,66624,173.5
2848,9.0,,,,40.0,,,,,0,note_on,,67.0,40.0,67.0,66624,173.5
2849,9.0,,,,51.0,,,,,0,note_on,,67.0,51.0,67.0,66624,173.5
2850,9.0,,,,42.0,,,,,44,note_on,,0.0,42.0,0.0,66668,173.61458333333331
2851,9.0,,,,51.0,,,,,0,note_on,,0.0,51.0,0.0,66668,173.61458333333331
2852,9.0,,,,40.0,,,,,0,note_on,,0.0,40.0,0.0,66668,173.61458333333331
2853,9.0,,,,35.0,,,,,0,note_on,,0.0,35.0,0.0,66668,173.61458333333331
2854,9.0,,,,42.0,,,,,52,note_on,,65.0,42.0,65.0,66720,173.75
2855,9.0,,,,51.0,,,,,0,note_on,,65.0,51.0,65.0,66720,173.75
2856,9.0,,,,51.0,,,,,44,note_on,,0.0,51.0,0.0,66764,173.86458333333331
2857,9.0,,,,42.0,,,,,0,note_on,,0.0,42.0,0.0,66764,173.86458333333331
2858,9.0,,,,35.0,,,,,4,note_on,,63.0,35.0,63.0,66768,173.875
2859,9.0,,,,35.0,,,,,44,note_on,,0.0,35.0,0.0,66812,173.98958333333331
2860,9.0,,,,35.0,,,,,4,note_on,,63.0,35.0,63.0,66816,174.0
2861,9.0,,,,42.0,,,,,0,note_on,,61.0,42.0,61.0,66816,174.0
2862,9.0,,,,35.0,,,,,44,note_on,,0.0,35.0,0.0,66860,174.11458333333331
2863,9.0,,,,42.0,,,,,0,note_on,,0.0,42.0,0.0,66860,174.11458333333331
2864,9.0,,,,35.0,,,,,52,note_on,,61.0,35.0,61.0,66912,174.25
2865,9.0,,,,42.0,,,,,0,note_on,,56.0,42.0,56.0,66912,174.25
2866,9.0,,,,35.0,,,,,44,note_on,,0.0,35.0,0.0,66956,174.36458333333331
2867,9.0,,,,42.0,,,,,0,note_on,,0.0,42.0,0.0,66956,174.36458333333331
2868,9.0,,,,51.0,,,,,52,note_on,,52.0,51.0,52.0,67008,174.5
2869,9.0,,,,42.0,,,,,0,note_on,,52.0,42.0,52.0,67008,174.5
2870,9.0,,,,40.0,,,,,0,note_on,,52.0,40.0,52.0,67008,174.5
2871,9.0,,,,35.0,,,,,0,note_on,,52.0,35.0,52.0,67008,174.5
2872,9.0,,,,40.0,,,,,44,note_on,,0.0,40.0,0.0,67052,174.61458333333331
2873,9.0,,,,42.0,,,,,0,note_on,,0.0,42.0,0.0,67052,174.61458333333331
2874,9.0,,,,51.0,,,,,0,note_on,,0.0,51.0,0.0,67052,174.61458333333331
2875,9.0,,,,35.0,,,,,0,note_on,,0.0,35.0,0.0,67052,174.61458333333331
2876,9.0,,,,42.0,,,,,52,note_on,,48.0,42.0,48.0,67104,174.75
2877,9.0,,,,42.0,,,,,44,note_on,,0.0,42.0,0.0,67148,174.86458333333331
2878,9.0,,,,42.0,,,,,52,note_on,,43.0,42.0,43.0,67200,175.0
2879,9.0,,,,35.0,,,,,0,note_on,,43.0,35.0,43.0,67200,175.0
2880,9.0,,,,42.0,,,,,44,note_on,,0.0,42.0,0.0,67244,175.11458333333331
2881,9.0,,,,35.0,,,,,0,note_on,,0.0,35.0,0.0,67244,175.11458333333331
2882,9.0,,,,35.0,,,,,52,note_on,,40.0,35.0,40.0,67296,175.25
2883,9.0,,,,42.0,,,,,0,note_on,,40.0,42.0,40.0,67296,175.25
2884,9.0,,,,42.0,,,,,44,note_on,,0.0,42.0,0.0,67340,175.36458333333331
2885,9.0,,,,35.0,,,,,0,note_on,,0.0,35.0,0.0,67340,175.36458333333331
2886,9.0,,,,42.0,,,,,52,note_on,,36.0,42.0,36.0,67392,175.5
2887,9.0,,,,40.0,,,,,0,note_on,,36.0,40.0,36.0,67392,175.5
2888,9.0,,,,51.0,,,,,0,note_on,,36.0,51.0,36.0,67392,175.5
2889,9.0,,,,35.0,,,,,0,note_on,,36.0,35.0,36.0,67392,175.5
2890,9.0,,,,42.0,,,,,44,note_on,,0.0,42.0,0.0,67436,175.61458333333331
2891,9.0,,,,35.0,,,,,0,note_on,,0.0,35.0,0.0,67436,175.61458333333331
2892,9.0,,,,51.0,,,,,0,note_on,,0.0,51.0,0.0,67436,175.61458333333331
2893,9.0,,,,40.0,,,,,0,note_on,,0.0,40.0,0.0,67436,175.61458333333331
2894,9.0,,,,51.0,,,,,52,note_on,,32.0,51.0,32.0,67488,175.75
2895,9.0,,,,42.0,,,,,0,note_on,,32.0,42.0,32.0,67488,175.75
2896,9.0,,,,42.0,,,,,44,note_on,,0.0,42.0,0.0,67532,175.86458333333331
2897,9.0,,,,51.0,,,,,0,note_on,,0.0,51.0,0.0,67532,175.86458333333331
2898,9.0,,,,35.0,,,,,4,note_on,,31.0,35.0,31.0,67536,175.875
2899,9.0,,,,35.0,,,,,44,note_on,,0.0,35.0,0.0,67580,175.98958333333331
2900,9.0,,,,42.0,,,,,4,note_on,,29.0,42.0,29.0,67584,176.0
2901,9.0,,,,35.0,,,,,0,note_on,,31.0,35.0,31.0,67584,176.0
2902,9.0,,,,35.0,,,,,44,note_on,,0.0,35.0,0.0,67628,176.11458333333331
2903,9.0,,,,42.0,,,,,0,note_on,,0.0,42.0,0.0,67628,176.11458333333331
2904,9.0,,,,42.0,,,,,52,note_on,,26.0,42.0,26.0,67680,176.25
2905,9.0,,,,35.0,,,,,0,note_on,,29.0,35.0,29.0,67680,176.25
2906,9.0,,,,35.0,,,,,44,note_on,,0.0,35.0,0.0,67724,176.36458333333331
2907,9.0,,,,42.0,,,,,0,note_on,,0.0,42.0,0.0,67724,176.36458333333331
2908,9.0,,,,51.0,,,,,52,note_on,,20.0,51.0,20.0,67776,176.5
2909,9.0,,,,42.0,,,,,0,note_on,,20.0,42.0,20.0,67776,176.5
2910,9.0,,,,40.0,,,,,0,note_on,,20.0,40.0,20.0,67776,176.5
2911,9.0,,,,35.0,,,,,0,note_on,,20.0,35.0,20.0,67776,176.5
2912,9.0,,,,40.0,,,,,44,note_on,,0.0,40.0,0.0,67820,176.61458333333331
2913,9.0,,,,35.0,,,,,0,note_on,,0.0,35.0,0.0,67820,176.61458333333331
2914,9.0,,,,42.0,,,,,0,note_on,,0.0,42.0,0.0,67820,176.61458333333331
2915,9.0,,,,51.0,,,,,0,note_on,,0.0,51.0,0.0,67820,176.61458333333331
2916,9.0,,,,42.0,,,,,52,note_on,,18.0,42.0,18.0,67872,176.75
2917,9.0,,,,42.0,,,,,44,note_on,,0.0,42.0,0.0,67916,176.86458333333331
2918,9.0,,,,35.0,,,,,52,note_on,,14.0,35.0,14.0,67968,177.0
2919,9.0,,,,42.0,,,,,0,note_on,,14.0,42.0,14.0,67968,177.0
2920,9.0,,,,35.0,,,,,44,note_on,,0.0,35.0,0.0,68012,177.11458333333331
2921,9.0,,,,42.0,,,,,0,note_on,,0.0,42.0,0.0,68012,177.11458333333331
2922,9.0,,,,42.0,,,,,52,note_on,,11.0,42.0,11.0,68064,177.25
2923,9.0,,,,35.0,,,,,0,note_on,,11.0,35.0,11.0,68064,177.25
2924,9.0,,,,35.0,,,,,44,note_on,,0.0,35.0,0.0,68108,177.36458333333331
2925,9.0,,,,42.0,,,,,0,note_on,,0.0,42.0,0.0,68108,177.36458333333331
2926,9.0,,,,35.0,,,,,52,note_on,,7.0,35.0,7.0,68160,177.5
2927,9.0,,,,42.0,,,,,0,note_on,,7.0,42.0,7.0,68160,177.5
2928,9.0,,,,51.0,,,,,0,note_on,,7.0,51.0,7.0,68160,177.5
2929,9.0,,,,40.0,,,,,0,note_on,,7.0,40.0,7.0,68160,177.5
2930,9.0,,,,51.0,,,,,44,note_on,,0.0,51.0,0.0,68204,177.61458333333331
2931,9.0,,,,42.0,,,,,0,note_on,,0.0,42.0,0.0,68204,177.61458333333331
2932,9.0,,,,35.0,,,,,0,note_on,,0.0,35.0,0.0,68204,177.61458333333331
2933,9.0,,,,40.0,,,,,0,note_on,,0.0,40.0,0.0,68204,177.61458333333331
2934,9.0,,,,42.0,,,,,52,note_on,,4.0,42.0,4.0,68256,177.75
2935,9.0,,,,51.0,,,,,0,note_on,,4.0,51.0,4.0,68256,177.75
2936,9.0,,,,51.0,,,,,44,note_on,,0.0,51.0,0.0,68300,177.86458333333331
2937,9.0,,,,42.0,,,,,0,note_on,,0.0,42.0,0.0,68300,177.86458333333331
2938,,,,,,,,,,0,end_of_track,,,,,4638690832,12079924.041666666
2939,4.0,0.0,,,,,,,,0,control_change,0.0,,,,0,0.0
2940,4.0,,,,,,119.0,,,0,program_change,,,,,0,0.0
2941,,,"(74, 65, 90, 50, 1, 0, 0, 0, 0, 0, 0, 0, 0, 0, 0, 0, 0, 0, 0, 0)",,,,,,,0,sequencer_specific,,,,,4638691048,12079924.604166666
2942,4.0,7.0,,,,,,,,0,control_change,84.0,,,,0,0.0
2943,,,,Reverse Cymbal,,,,,,0,track_name,,,,,4638691192,12079924.979166666
2944,4.0,10.0,,,,,,,,0,control_change,64.0,,,,0,0.0
2945,4.0,91.0,,,,,,,,0,control_change,40.0,,,,0,0.0
2946,4.0,93.0,,,,,,,,0,control_change,0.0,,,,0,0.0
2947,4.0,,,,43.0,,,,,18624,note_on,,127.0,43.0,127.0,18624,48.5
2948,4.0,,,,,360.0,,,,8,pitchwheel,,,,,18632,48.52083333333333
2949,4.0,,,,,540.0,,,,8,pitchwheel,,,,,18640,48.541666666666664
2950,4.0,,,,,630.0,,,,8,pitchwheel,,,,,18648,48.5625
2951,4.0,,,,,810.0,,,,8,pitchwheel,,,,,18656,48.58333333333333
2952,4.0,,,,,900.0,,,,8,pitchwheel,,,,,18664,48.604166666666664
2953,4.0,,,,,1080.0,,,,8,pitchwheel,,,,,18672,48.625
2954,4.0,,,,44.0,,,,,0,note_on,,127.0,44.0,127.0,18672,48.625
2955,4.0,,,,,1170.0,,,,8,pitchwheel,,,,,18680,48.64583333333333
2956,4.0,,,,,1260.0,,,,8,pitchwheel,,,,,18688,48.666666666666664
2957,4.0,,,,,1350.0,,,,8,pitchwheel,,,,,18696,48.6875
2958,4.0,,,,,1440.0,,,,8,pitchwheel,,,,,18704,48.70833333333333
2959,4.0,,,,,1530.0,,,,8,pitchwheel,,,,,18712,48.729166666666664
2960,4.0,,,,,1620.0,,,,8,pitchwheel,,,,,18720,48.75
2961,4.0,,,,45.0,,,,,0,note_on,,127.0,45.0,127.0,18720,48.75
2962,4.0,,,,,1710.0,,,,8,pitchwheel,,,,,18728,48.77083333333333
2963,4.0,,,,,1890.0,,,,8,pitchwheel,,,,,18736,48.791666666666664
2964,4.0,,,,,2070.0,,,,8,pitchwheel,,,,,18744,48.8125
2965,4.0,,,,,2160.0,,,,8,pitchwheel,,,,,18752,48.83333333333333
2966,4.0,,,,,2340.0,,,,8,pitchwheel,,,,,18760,48.854166666666664
2967,4.0,,,,,2430.0,,,,8,pitchwheel,,,,,18768,48.875
2968,4.0,,,,46.0,,,,,0,note_on,,127.0,46.0,127.0,18768,48.875
2969,4.0,,,,,2610.0,,,,8,pitchwheel,,,,,18776,48.89583333333333
2970,4.0,,,,,2700.0,,,,8,pitchwheel,,,,,18784,48.916666666666664
2971,4.0,,,,,2790.0,,,,8,pitchwheel,,,,,18792,48.9375
2972,4.0,,,,,2880.0,,,,8,pitchwheel,,,,,18800,48.95833333333333
2973,4.0,,,,,2970.0,,,,8,pitchwheel,,,,,18808,48.979166666666664
2974,4.0,,,,,3060.0,,,,8,pitchwheel,,,,,18816,49.0
2975,4.0,,,,47.0,,,,,0,note_on,,127.0,47.0,127.0,18816,49.0
2976,4.0,,,,,3150.0,,,,8,pitchwheel,,,,,18824,49.02083333333333
2977,4.0,,,,,3240.0,,,,8,pitchwheel,,,,,18832,49.041666666666664
2978,4.0,,,,,3330.0,,,,8,pitchwheel,,,,,18840,49.0625
2979,4.0,,,,,3420.0,,,,8,pitchwheel,,,,,18848,49.08333333333333
2980,4.0,,,,,3510.0,,,,8,pitchwheel,,,,,18856,49.104166666666664
2981,4.0,,,,48.0,,,,,8,note_on,,127.0,48.0,127.0,18864,49.125
2982,4.0,,,,,3690.0,,,,0,pitchwheel,,,,,18864,49.125
2983,4.0,,,,,3870.0,,,,8,pitchwheel,,,,,18872,49.14583333333333
2984,4.0,,,,,3960.0,,,,8,pitchwheel,,,,,18880,49.166666666666664
2985,4.0,,,,,4141.0,,,,8,pitchwheel,,,,,18888,49.1875
2986,4.0,,,,,4231.0,,,,8,pitchwheel,,,,,18896,49.20833333333333
2987,4.0,,,,,4321.0,,,,8,pitchwheel,,,,,18904,49.229166666666664
2988,4.0,,,,,4411.0,,,,8,pitchwheel,,,,,18912,49.25
2989,4.0,,,,49.0,,,,,0,note_on,,127.0,49.0,127.0,18912,49.25
2990,4.0,,,,,4501.0,,,,8,pitchwheel,,,,,18920,49.27083333333333
2991,4.0,,,,,4591.0,,,,16,pitchwheel,,,,,18936,49.3125
2992,4.0,,,,,4681.0,,,,8,pitchwheel,,,,,18944,49.33333333333333
2993,4.0,,,,,4771.0,,,,8,pitchwheel,,,,,18952,49.354166666666664
2994,4.0,,,,50.0,,,,,8,note_on,,127.0,50.0,127.0,18960,49.375
2995,4.0,,,,,4951.0,,,,0,pitchwheel,,,,,18960,49.375
2996,4.0,,,,,5131.0,,,,8,pitchwheel,,,,,18968,49.39583333333333
2997,4.0,,,,,5221.0,,,,8,pitchwheel,,,,,18976,49.416666666666664
2998,4.0,,,,,5401.0,,,,8,pitchwheel,,,,,18984,49.4375
2999,4.0,,,,,5491.0,,,,8,pitchwheel,,,,,18992,49.45833333333333
3000,4.0,,,,,5581.0,,,,8,pitchwheel,,,,,19000,49.479166666666664
3001,4.0,,,,,5671.0,,,,8,pitchwheel,,,,,19008,49.5
3002,4.0,,,,51.0,,,,,0,note_on,,127.0,51.0,127.0,19008,49.5
3003,4.0,,,,,5851.0,,,,8,pitchwheel,,,,,19016,49.52083333333333
3004,4.0,,,,,5941.0,,,,8,pitchwheel,,,,,19024,49.541666666666664
3005,4.0,,,,,6121.0,,,,8,pitchwheel,,,,,19032,49.5625
3006,4.0,,,,,6301.0,,,,8,pitchwheel,,,,,19040,49.58333333333333
3007,4.0,,,,,6391.0,,,,8,pitchwheel,,,,,19048,49.604166666666664
3008,4.0,,,,52.0,,,,,8,note_on,,127.0,52.0,127.0,19056,49.625
3009,4.0,,,,,6571.0,,,,0,pitchwheel,,,,,19056,49.625
3010,4.0,,,,,6751.0,,,,8,pitchwheel,,,,,19064,49.64583333333333
3011,4.0,,,,,6931.0,,,,8,pitchwheel,,,,,19072,49.666666666666664
3012,4.0,,,,,7021.0,,,,8,pitchwheel,,,,,19080,49.6875
3013,4.0,,,,,7111.0,,,,8,pitchwheel,,,,,19088,49.70833333333333
3014,4.0,,,,,7291.0,,,,8,pitchwheel,,,,,19096,49.729166666666664
3015,4.0,,,,53.0,,,,,8,note_on,,127.0,53.0,127.0,19104,49.75
3016,4.0,,,,,7381.0,,,,0,pitchwheel,,,,,19104,49.75
3017,4.0,,,,,7471.0,,,,8,pitchwheel,,,,,19112,49.77083333333333
3018,4.0,,,,,7651.0,,,,8,pitchwheel,,,,,19120,49.791666666666664
3019,4.0,,,,,7741.0,,,,8,pitchwheel,,,,,19128,49.8125
3020,4.0,,,,,7831.0,,,,8,pitchwheel,,,,,19136,49.83333333333333
3021,4.0,,,,,8011.0,,,,8,pitchwheel,,,,,19144,49.854166666666664
3022,4.0,,,,,8101.0,,,,8,pitchwheel,,,,,19152,49.875
3023,4.0,,,,54.0,,,,,0,note_on,,127.0,54.0,127.0,19152,49.875
3024,4.0,,,,,8191.0,,,,8,pitchwheel,,,,,19160,49.89583333333333
3025,4.0,,,,54.0,,,,,32,note_on,,0.0,54.0,0.0,19192,49.979166666666664
3026,4.0,,,,,0.0,,,,8,pitchwheel,,,,,19200,50.0
3027,4.0,,,,43.0,,,,,0,note_on,,0.0,43.0,0.0,19200,50.0
3028,4.0,,,,46.0,,,,,0,note_on,,0.0,46.0,0.0,19200,50.0
3029,4.0,,,,49.0,,,,,0,note_on,,0.0,49.0,0.0,19200,50.0
3030,4.0,,,,48.0,,,,,0,note_on,,0.0,48.0,0.0,19200,50.0
3031,4.0,,,,53.0,,,,,0,note_on,,0.0,53.0,0.0,19200,50.0
3032,4.0,,,,52.0,,,,,0,note_on,,0.0,52.0,0.0,19200,50.0
3033,4.0,,,,51.0,,,,,0,note_on,,0.0,51.0,0.0,19200,50.0
3034,4.0,,,,50.0,,,,,0,note_on,,0.0,50.0,0.0,19200,50.0
3035,4.0,,,,45.0,,,,,0,note_on,,0.0,45.0,0.0,19200,50.0
3036,4.0,,,,47.0,,,,,0,note_on,,0.0,47.0,0.0,19200,50.0
3037,4.0,,,,44.0,,,,,8,note_on,,0.0,44.0,0.0,19208,50.02083333333333
3038,4.0,,,,,90.0,,,,16888,pitchwheel,,,,,36096,94.0
3039,4.0,,,,,270.0,,,,16,pitchwheel,,,,,36112,94.04166666666666
3040,4.0,,,,,450.0,,,,16,pitchwheel,,,,,36128,94.08333333333333
3041,4.0,,,,,540.0,,,,16,pitchwheel,,,,,36144,94.125
3042,4.0,,,,,630.0,,,,16,pitchwheel,,,,,36160,94.16666666666666
3043,4.0,,,,,900.0,,,,16,pitchwheel,,,,,36176,94.20833333333333
3044,4.0,,,,,990.0,,,,16,pitchwheel,,,,,36192,94.25
3045,4.0,,,,,1170.0,,,,16,pitchwheel,,,,,36208,94.29166666666666
3046,4.0,,,,,1350.0,,,,16,pitchwheel,,,,,36224,94.33333333333333
3047,4.0,,,,,1530.0,,,,48,pitchwheel,,,,,36272,94.45833333333333
3048,4.0,,,,,1620.0,,,,16,pitchwheel,,,,,36288,94.5
3049,4.0,,,,43.0,,,,,0,note_on,,127.0,43.0,127.0,36288,94.5
3050,4.0,,,,,1710.0,,,,16,pitchwheel,,,,,36304,94.54166666666666
3051,4.0,,,,,1980.0,,,,16,pitchwheel,,,,,36320,94.58333333333333
3052,4.0,,,,44.0,,,,,16,note_on,,127.0,44.0,127.0,36336,94.625
3053,4.0,,,,,2070.0,,,,0,pitchwheel,,,,,36336,94.625
3054,4.0,,,,,2250.0,,,,16,pitchwheel,,,,,36352,94.66666666666666
3055,4.0,,,,,2340.0,,,,16,pitchwheel,,,,,36368,94.70833333333333
3056,4.0,,,,,2520.0,,,,16,pitchwheel,,,,,36384,94.75
3057,4.0,,,,45.0,,,,,0,note_on,,127.0,45.0,127.0,36384,94.75
3058,4.0,,,,,2610.0,,,,16,pitchwheel,,,,,36400,94.79166666666666
3059,4.0,,,,,2700.0,,,,16,pitchwheel,,,,,36416,94.83333333333333
3060,4.0,,,,,2880.0,,,,16,pitchwheel,,,,,36432,94.875
3061,4.0,,,,46.0,,,,,0,note_on,,127.0,46.0,127.0,36432,94.875
3062,4.0,,,,,2970.0,,,,16,pitchwheel,,,,,36448,94.91666666666666
3063,4.0,,,,,3060.0,,,,16,pitchwheel,,,,,36464,94.95833333333333
3064,4.0,,,,,3240.0,,,,16,pitchwheel,,,,,36480,95.0
3065,4.0,,,,47.0,,,,,0,note_on,,127.0,47.0,127.0,36480,95.0
3066,4.0,,,,,3330.0,,,,16,pitchwheel,,,,,36496,95.04166666666666
3067,4.0,,,,,3420.0,,,,16,pitchwheel,,,,,36512,95.08333333333333
3068,4.0,,,,48.0,,,,,16,note_on,,127.0,48.0,127.0,36528,95.125
3069,4.0,,,,,3600.0,,,,0,pitchwheel,,,,,36528,95.125
3070,4.0,,,,,3690.0,,,,16,pitchwheel,,,,,36544,95.16666666666666
3071,4.0,,,,,3780.0,,,,16,pitchwheel,,,,,36560,95.20833333333333
3072,4.0,,,,,3870.0,,,,16,pitchwheel,,,,,36576,95.25
3073,4.0,,,,49.0,,,,,0,note_on,,127.0,49.0,127.0,36576,95.25
3074,4.0,,,,,3960.0,,,,16,pitchwheel,,,,,36592,95.29166666666666
3075,4.0,,,,,4141.0,,,,16,pitchwheel,,,,,36608,95.33333333333333
3076,4.0,,,,50.0,,,,,16,note_on,,127.0,50.0,127.0,36624,95.375
3077,4.0,,,,,4231.0,,,,0,pitchwheel,,,,,36624,95.375
3078,4.0,,,,,4321.0,,,,16,pitchwheel,,,,,36640,95.41666666666666
3079,4.0,,,,,4411.0,,,,16,pitchwheel,,,,,36656,95.45833333333333
3080,4.0,,,,51.0,,,,,16,note_on,,127.0,51.0,127.0,36672,95.5
3081,4.0,,,,,4501.0,,,,0,pitchwheel,,,,,36672,95.5
3082,4.0,,,,,4681.0,,,,16,pitchwheel,,,,,36688,95.54166666666666
3083,4.0,,,,,4861.0,,,,16,pitchwheel,,,,,36704,95.58333333333333
3084,4.0,,,,,4951.0,,,,16,pitchwheel,,,,,36720,95.625
3085,4.0,,,,52.0,,,,,0,note_on,,127.0,52.0,127.0,36720,95.625
3086,4.0,,,,,5131.0,,,,16,pitchwheel,,,,,36736,95.66666666666666
3087,4.0,,,,,5221.0,,,,16,pitchwheel,,,,,36752,95.70833333333333
3088,4.0,,,,53.0,,,,,16,note_on,,127.0,53.0,127.0,36768,95.75
3089,4.0,,,,,5311.0,,,,0,pitchwheel,,,,,36768,95.75
3090,4.0,,,,,5491.0,,,,16,pitchwheel,,,,,36784,95.79166666666666
3091,4.0,,,,,5671.0,,,,16,pitchwheel,,,,,36800,95.83333333333333
3092,4.0,,,,,5761.0,,,,16,pitchwheel,,,,,36816,95.875
3093,4.0,,,,54.0,,,,,0,note_on,,127.0,54.0,127.0,36816,95.875
3094,4.0,,,,,5851.0,,,,16,pitchwheel,,,,,36832,95.91666666666666
3095,4.0,,,,,6031.0,,,,16,pitchwheel,,,,,36848,95.95833333333333
3096,4.0,,,,54.0,,,,,8,note_on,,0.0,54.0,0.0,36856,95.97916666666666
3097,4.0,,,,45.0,,,,,8,note_on,,0.0,45.0,0.0,36864,96.0
3098,4.0,,,,43.0,,,,,0,note_on,,0.0,43.0,0.0,36864,96.0
3099,4.0,,,,53.0,,,,,0,note_on,,0.0,53.0,0.0,36864,96.0
3100,4.0,,,,52.0,,,,,0,note_on,,0.0,52.0,0.0,36864,96.0
3101,4.0,,,,46.0,,,,,0,note_on,,0.0,46.0,0.0,36864,96.0
3102,4.0,,,,47.0,,,,,0,note_on,,0.0,47.0,0.0,36864,96.0
3103,4.0,,,,50.0,,,,,0,note_on,,0.0,50.0,0.0,36864,96.0
3104,4.0,,,,49.0,,,,,0,note_on,,0.0,49.0,0.0,36864,96.0
3105,4.0,,,,51.0,,,,,0,note_on,,0.0,51.0,0.0,36864,96.0
3106,4.0,,,,48.0,,,,,0,note_on,,0.0,48.0,0.0,36864,96.0
3107,4.0,,,,44.0,,,,,8,note_on,,0.0,44.0,0.0,36872,96.02083333333333
3108,4.0,,,,,450.0,,,,11512,pitchwheel,,,,,48384,126.0
3109,4.0,,,,31.0,,,,,0,note_on,,127.0,31.0,127.0,48384,126.0
3110,4.0,,,,,-8010.0,,,,16,pitchwheel,,,,,48400,126.04166666666666
3111,4.0,,,,,-7920.0,,,,16,pitchwheel,,,,,48416,126.08333333333333
3112,4.0,,,,32.0,,,,,16,note_on,,127.0,32.0,127.0,48432,126.125
3113,4.0,,,,,-7830.0,,,,0,pitchwheel,,,,,48432,126.125
3114,4.0,,,,,-7560.0,,,,16,pitchwheel,,,,,48448,126.16666666666666
3115,4.0,,,,,-7470.0,,,,16,pitchwheel,,,,,48464,126.20833333333333
3116,4.0,,,,33.0,,,,,16,note_on,,127.0,33.0,127.0,48480,126.25
3117,4.0,,,,,-7290.0,,,,0,pitchwheel,,,,,48480,126.25
3118,4.0,,,,,-7110.0,,,,16,pitchwheel,,,,,48496,126.29166666666666
3119,4.0,,,,,-7020.0,,,,16,pitchwheel,,,,,48512,126.33333333333333
3120,4.0,,,,,-6930.0,,,,16,pitchwheel,,,,,48528,126.375
3121,4.0,,,,34.0,,,,,0,note_on,,127.0,34.0,127.0,48528,126.375
3122,4.0,,,,,-6660.0,,,,16,pitchwheel,,,,,48544,126.41666666666666
3123,4.0,,,,35.0,,,,,32,note_on,,127.0,35.0,127.0,48576,126.5
3124,4.0,,,,,-6480.0,,,,16,pitchwheel,,,,,48592,126.54166666666666
3125,4.0,,,,,-6300.0,,,,16,pitchwheel,,,,,48608,126.58333333333333
3126,4.0,,,,36.0,,,,,16,note_on,,127.0,36.0,127.0,48624,126.625
3127,4.0,,,,,-6120.0,,,,32,pitchwheel,,,,,48656,126.70833333333333
3128,4.0,,,,37.0,,,,,16,note_on,,127.0,37.0,127.0,48672,126.75
3129,4.0,,,,,-5940.0,,,,32,pitchwheel,,,,,48704,126.83333333333333
3130,4.0,,,,,-5850.0,,,,16,pitchwheel,,,,,48720,126.875
3131,4.0,,,,38.0,,,,,0,note_on,,127.0,38.0,127.0,48720,126.875
3132,4.0,,,,,-5670.0,,,,16,pitchwheel,,,,,48736,126.91666666666666
3133,4.0,,,,,-5580.0,,,,16,pitchwheel,,,,,48752,126.95833333333333
3134,4.0,,,,39.0,,,,,16,note_on,,127.0,39.0,127.0,48768,127.0
3135,4.0,,,,,-5490.0,,,,0,pitchwheel,,,,,48768,127.0
3136,4.0,,,,,-5310.0,,,,16,pitchwheel,,,,,48784,127.04166666666666
3137,4.0,,,,,-5220.0,,,,16,pitchwheel,,,,,48800,127.08333333333333
3138,4.0,,,,40.0,,,,,16,note_on,,127.0,40.0,127.0,48816,127.125
3139,4.0,,,,,-5040.0,,,,0,pitchwheel,,,,,48816,127.125
3140,4.0,,,,,-4860.0,,,,16,pitchwheel,,,,,48832,127.16666666666666
3141,4.0,,,,,-4770.0,,,,16,pitchwheel,,,,,48848,127.20833333333333
3142,4.0,,,,,-4590.0,,,,16,pitchwheel,,,,,48864,127.25
3143,4.0,,,,41.0,,,,,0,note_on,,127.0,41.0,127.0,48864,127.25
3144,4.0,,,,,-4500.0,,,,16,pitchwheel,,,,,48880,127.29166666666666
3145,4.0,,,,,-4140.0,,,,16,pitchwheel,,,,,48896,127.33333333333333
3146,4.0,,,,42.0,,,,,16,note_on,,127.0,42.0,127.0,48912,127.375
3147,4.0,,,,,-4049.0,,,,0,pitchwheel,,,,,48912,127.375
3148,4.0,,,,,-3959.0,,,,16,pitchwheel,,,,,48928,127.41666666666666
3149,4.0,,,,,-3869.0,,,,16,pitchwheel,,,,,48944,127.45833333333333
3150,4.0,,,,31.0,,,,,14,note_on,,0.0,31.0,0.0,48958,127.49479166666666
3151,4.0,,,,43.0,,,,,2,note_on,,127.0,43.0,127.0,48960,127.5
3152,4.0,,,,,-3689.0,,,,0,pitchwheel,,,,,48960,127.5
3153,4.0,,,,,-3509.0,,,,16,pitchwheel,,,,,48976,127.54166666666666
3154,4.0,,,,,-3419.0,,,,16,pitchwheel,,,,,48992,127.58333333333333
3155,4.0,,,,32.0,,,,,14,note_on,,0.0,32.0,0.0,49006,127.61979166666666
3156,4.0,,,,,-3239.0,,,,2,pitchwheel,,,,,49008,127.625
3157,4.0,,,,44.0,,,,,0,note_on,,127.0,44.0,127.0,49008,127.625
3158,4.0,,,,,-3059.0,,,,16,pitchwheel,,,,,49024,127.66666666666666
3159,4.0,,,,,-2969.0,,,,16,pitchwheel,,,,,49040,127.70833333333333
3160,4.0,,,,33.0,,,,,14,note_on,,0.0,33.0,0.0,49054,127.74479166666666
3161,4.0,,,,,-2879.0,,,,2,pitchwheel,,,,,49056,127.75
3162,4.0,,,,45.0,,,,,0,note_on,,127.0,45.0,127.0,49056,127.75
3163,4.0,,,,,-2699.0,,,,16,pitchwheel,,,,,49072,127.79166666666666
3164,4.0,,,,,-2519.0,,,,16,pitchwheel,,,,,49088,127.83333333333333
3165,4.0,,,,34.0,,,,,14,note_on,,0.0,34.0,0.0,49102,127.86979166666666
3166,4.0,,,,46.0,,,,,2,note_on,,127.0,46.0,127.0,49104,127.875
3167,4.0,,,,,-2429.0,,,,0,pitchwheel,,,,,49104,127.875
3168,4.0,,,,,-2249.0,,,,16,pitchwheel,,,,,49120,127.91666666666666
3169,4.0,,,,,-2069.0,,,,16,pitchwheel,,,,,49136,127.95833333333333
3170,4.0,,,,35.0,,,,,14,note_on,,0.0,35.0,0.0,49150,127.99479166666666
3171,4.0,,,,47.0,,,,,2,note_on,,127.0,47.0,127.0,49152,128.0
3172,4.0,,,,,-1889.0,,,,0,pitchwheel,,,,,49152,128.0
3173,4.0,,,,,-1709.0,,,,16,pitchwheel,,,,,49168,128.04166666666666
3174,4.0,,,,,-1619.0,,,,16,pitchwheel,,,,,49184,128.08333333333331
3175,4.0,,,,36.0,,,,,14,note_on,,0.0,36.0,0.0,49198,128.11979166666666
3176,4.0,,,,,-1349.0,,,,2,pitchwheel,,,,,49200,128.125
3177,4.0,,,,48.0,,,,,0,note_on,,127.0,48.0,127.0,49200,128.125
3178,4.0,,,,,-1169.0,,,,16,pitchwheel,,,,,49216,128.16666666666666
3179,4.0,,,,,-899.0,,,,16,pitchwheel,,,,,49232,128.20833333333331
3180,4.0,,,,37.0,,,,,14,note_on,,0.0,37.0,0.0,49246,128.24479166666666
3181,4.0,,,,,-629.0,,,,2,pitchwheel,,,,,49248,128.25
3182,4.0,,,,49.0,,,,,0,note_on,,127.0,49.0,127.0,49248,128.25
3183,4.0,,,,,-359.0,,,,16,pitchwheel,,,,,49264,128.29166666666666
3184,4.0,,,,,0.0,,,,16,pitchwheel,,,,,49280,128.33333333333331
3185,4.0,,,,38.0,,,,,14,note_on,,0.0,38.0,0.0,49294,128.36979166666666
3186,4.0,,,,50.0,,,,,2,note_on,,127.0,50.0,127.0,49296,128.375
3187,4.0,,,,,180.0,,,,0,pitchwheel,,,,,49296,128.375
3188,4.0,,,,,540.0,,,,16,pitchwheel,,,,,49312,128.41666666666666
3189,4.0,,,,,810.0,,,,16,pitchwheel,,,,,49328,128.45833333333331
3190,4.0,,,,39.0,,,,,14,note_on,,0.0,39.0,0.0,49342,128.49479166666666
3191,4.0,,,,51.0,,,,,2,note_on,,127.0,51.0,127.0,49344,128.5
3192,4.0,,,,,1170.0,,,,0,pitchwheel,,,,,49344,128.5
3193,4.0,,,,,1350.0,,,,16,pitchwheel,,,,,49360,128.54166666666666
3194,4.0,,,,,1530.0,,,,16,pitchwheel,,,,,49376,128.58333333333331
3195,4.0,,,,40.0,,,,,14,note_on,,0.0,40.0,0.0,49390,128.61979166666666
3196,4.0,,,,52.0,,,,,2,note_on,,127.0,52.0,127.0,49392,128.625
3197,4.0,,,,,1710.0,,,,0,pitchwheel,,,,,49392,128.625
3198,4.0,,,,,1890.0,,,,16,pitchwheel,,,,,49408,128.66666666666666
3199,4.0,,,,,2160.0,,,,16,pitchwheel,,,,,49424,128.70833333333331
3200,4.0,,,,41.0,,,,,14,note_on,,0.0,41.0,0.0,49438,128.74479166666666
3201,4.0,,,,53.0,,,,,2,note_on,,127.0,53.0,127.0,49440,128.75
3202,4.0,,,,,2250.0,,,,0,pitchwheel,,,,,49440,128.75
3203,4.0,,,,,2430.0,,,,16,pitchwheel,,,,,49456,128.79166666666666
3204,4.0,,,,,2610.0,,,,16,pitchwheel,,,,,49472,128.83333333333331
3205,4.0,,,,42.0,,,,,14,note_on,,0.0,42.0,0.0,49486,128.86979166666666
3206,4.0,,,,,2700.0,,,,2,pitchwheel,,,,,49488,128.875
3207,4.0,,,,54.0,,,,,0,note_on,,127.0,54.0,127.0,49488,128.875
3208,4.0,,,,,2880.0,,,,16,pitchwheel,,,,,49504,128.91666666666666
3209,4.0,,,,,3060.0,,,,16,pitchwheel,,,,,49520,128.95833333333331
3210,4.0,,,,43.0,,,,,14,note_on,,0.0,43.0,0.0,49534,128.99479166666666
3211,4.0,,,,55.0,,,,,2,note_on,,127.0,55.0,127.0,49536,129.0
3212,4.0,,,,,3240.0,,,,0,pitchwheel,,,,,49536,129.0
3213,4.0,,,,,3330.0,,,,16,pitchwheel,,,,,49552,129.04166666666666
3214,4.0,,,,,3510.0,,,,16,pitchwheel,,,,,49568,129.08333333333331
3215,4.0,,,,44.0,,,,,14,note_on,,0.0,44.0,0.0,49582,129.11979166666666
3216,4.0,,,,56.0,,,,,2,note_on,,127.0,56.0,127.0,49584,129.125
3217,4.0,,,,,3690.0,,,,0,pitchwheel,,,,,49584,129.125
3218,4.0,,,,,3780.0,,,,16,pitchwheel,,,,,49600,129.16666666666666
3219,4.0,,,,,3960.0,,,,16,pitchwheel,,,,,49616,129.20833333333331
3220,4.0,,,,45.0,,,,,14,note_on,,0.0,45.0,0.0,49630,129.24479166666666
3221,4.0,,,,,4141.0,,,,2,pitchwheel,,,,,49632,129.25
3222,4.0,,,,57.0,,,,,0,note_on,,127.0,57.0,127.0,49632,129.25
3223,4.0,,,,,4321.0,,,,16,pitchwheel,,,,,49648,129.29166666666666
3224,4.0,,,,,4591.0,,,,16,pitchwheel,,,,,49664,129.33333333333331
3225,4.0,,,,46.0,,,,,14,note_on,,0.0,46.0,0.0,49678,129.36979166666666
3226,4.0,,,,,4861.0,,,,2,pitchwheel,,,,,49680,129.375
3227,4.0,,,,58.0,,,,,0,note_on,,127.0,58.0,127.0,49680,129.375
3228,4.0,,,,,5041.0,,,,16,pitchwheel,,,,,49696,129.41666666666666
3229,4.0,,,,,5311.0,,,,16,pitchwheel,,,,,49712,129.45833333333331
3230,4.0,,,,47.0,,,,,14,note_on,,0.0,47.0,0.0,49726,129.49479166666666
3231,4.0,,,,,5671.0,,,,2,pitchwheel,,,,,49728,129.5
3232,4.0,,,,59.0,,,,,0,note_on,,127.0,59.0,127.0,49728,129.5
3233,4.0,,,,,5941.0,,,,16,pitchwheel,,,,,49744,129.54166666666666
3234,4.0,,,,,6121.0,,,,16,pitchwheel,,,,,49760,129.58333333333331
3235,4.0,,,,48.0,,,,,14,note_on,,0.0,48.0,0.0,49774,129.61979166666666
3236,4.0,,,,,6391.0,,,,2,pitchwheel,,,,,49776,129.625
3237,4.0,,,,60.0,,,,,0,note_on,,127.0,60.0,127.0,49776,129.625
3238,4.0,,,,,6571.0,,,,16,pitchwheel,,,,,49792,129.66666666666666
3239,4.0,,,,,6751.0,,,,16,pitchwheel,,,,,49808,129.70833333333331
3240,4.0,,,,49.0,,,,,14,note_on,,0.0,49.0,0.0,49822,129.74479166666666
3241,4.0,,,,,6841.0,,,,2,pitchwheel,,,,,49824,129.75
3242,4.0,,,,61.0,,,,,0,note_on,,127.0,61.0,127.0,49824,129.75
3243,4.0,,,,,7021.0,,,,16,pitchwheel,,,,,49840,129.79166666666666
3244,4.0,,,,,7201.0,,,,16,pitchwheel,,,,,49856,129.83333333333331
3245,4.0,,,,50.0,,,,,14,note_on,,0.0,50.0,0.0,49870,129.86979166666666
3246,4.0,,,,,7381.0,,,,2,pitchwheel,,,,,49872,129.875
3247,4.0,,,,62.0,,,,,0,note_on,,127.0,62.0,127.0,49872,129.875
3248,4.0,,,,,8101.0,,,,16,pitchwheel,,,,,49888,129.91666666666666
3249,4.0,,,,54.0,,,,,24,note_on,,0.0,54.0,0.0,49912,129.97916666666666
3250,4.0,,,,53.0,,,,,0,note_on,,0.0,53.0,0.0,49912,129.97916666666666
3251,4.0,,,,62.0,,,,,4,note_on,,0.0,62.0,0.0,49916,129.98958333333331
3252,4.0,,,,51.0,,,,,2,note_on,,0.0,51.0,0.0,49918,129.99479166666666
3253,4.0,,,,61.0,,,,,0,note_on,,0.0,61.0,0.0,49918,129.99479166666666
3254,4.0,,,,60.0,,,,,0,note_on,,0.0,60.0,0.0,49918,129.99479166666666
3255,4.0,,,,56.0,,,,,2,note_on,,0.0,56.0,0.0,49920,130.0
3256,4.0,,,,52.0,,,,,0,note_on,,0.0,52.0,0.0,49920,130.0
3257,4.0,,,,,6031.0,,,,0,pitchwheel,,,,,49920,130.0
3258,4.0,,,,59.0,,,,,6,note_on,,0.0,59.0,0.0,49926,130.015625
3259,4.0,,,,58.0,,,,,0,note_on,,0.0,58.0,0.0,49926,130.015625
3260,4.0,,,,55.0,,,,,2,note_on,,0.0,55.0,0.0,49928,130.02083333333331
3261,4.0,,,,57.0,,,,,0,note_on,,0.0,57.0,0.0,49928,130.02083333333331
3262,,,,,,,,,,0,end_of_track,,,,,4638771888,12080135.125
3263,0.0,0.0,,,,,,,,0,control_change,0.0,,,,0,0.0
3264,0.0,,,,,,2.0,,,0,program_change,,,,,0,0.0
3265,,,"(74, 65, 90, 50, 1, 0, 0, 0, 0, 0, 0, 0, 0, 0, 0, 0, 0, 0, 0, 0)",,,,,,,0,sequencer_specific,,,,,4638772104,12080135.6875
3266,,,,Piano,,,,,,0,track_name,,,,,4638772176,12080135.875
3267,0.0,7.0,,,,,,,,0,control_change,74.0,,,,0,0.0
3268,0.0,64.0,,,,,,,,0,control_change,50.0,,,,0,0.0
3269,0.0,91.0,,,,,,,,0,control_change,40.0,,,,0,0.0
3270,0.0,93.0,,,,,,,,0,control_change,0.0,,,,0,0.0
3271,0.0,10.0,,,,,,,,0,control_change,64.0,,,,0,0.0
3272,0.0,,,,62.0,,,,,768,note_on,,100.0,62.0,100.0,768,2.0
3273,0.0,,,,59.0,,,,,0,note_on,,100.0,59.0,100.0,768,2.0
3274,0.0,,,,55.0,,,,,0,note_on,,100.0,55.0,100.0,768,2.0
3275,,,,Piano,,,,,,0,track_name,,,,,4638772824,12080137.5625
3276,0.0,,,,55.0,,,,,44,note_on,,0.0,55.0,0.0,812,2.114583333333333
3277,0.0,,,,59.0,,,,,0,note_on,,0.0,59.0,0.0,812,2.114583333333333
3278,0.0,,,,62.0,,,,,0,note_on,,0.0,62.0,0.0,812,2.114583333333333
3279,0.0,,,,62.0,,,,,52,note_on,,100.0,62.0,100.0,864,2.25
3280,0.0,,,,59.0,,,,,0,note_on,,100.0,59.0,100.0,864,2.25
3281,0.0,,,,55.0,,,,,0,note_on,,100.0,55.0,100.0,864,2.25
3282,0.0,,,,62.0,,,,,44,note_on,,0.0,62.0,0.0,908,2.364583333333333
3283,0.0,,,,59.0,,,,,0,note_on,,0.0,59.0,0.0,908,2.364583333333333
3284,0.0,,,,55.0,,,,,0,note_on,,0.0,55.0,0.0,908,2.364583333333333
3285,0.0,,,,59.0,,,,,52,note_on,,100.0,59.0,100.0,960,2.5
3286,0.0,,,,62.0,,,,,0,note_on,,100.0,62.0,100.0,960,2.5
3287,0.0,,,,55.0,,,,,0,note_on,,100.0,55.0,100.0,960,2.5
3288,0.0,,,,55.0,,,,,44,note_on,,0.0,55.0,0.0,1004,2.614583333333333
3289,0.0,,,,59.0,,,,,0,note_on,,0.0,59.0,0.0,1004,2.614583333333333
3290,0.0,,,,62.0,,,,,0,note_on,,0.0,62.0,0.0,1004,2.614583333333333
3291,0.0,,,,59.0,,,,,52,note_on,,100.0,59.0,100.0,1056,2.75
3292,0.0,,,,62.0,,,,,0,note_on,,100.0,62.0,100.0,1056,2.75
3293,0.0,,,,55.0,,,,,0,note_on,,100.0,55.0,100.0,1056,2.75
3294,0.0,,,,62.0,,,,,44,note_on,,0.0,62.0,0.0,1100,2.864583333333333
3295,0.0,,,,59.0,,,,,0,note_on,,0.0,59.0,0.0,1100,2.864583333333333
3296,0.0,,,,55.0,,,,,0,note_on,,0.0,55.0,0.0,1100,2.864583333333333
3297,0.0,,,,59.0,,,,,52,note_on,,100.0,59.0,100.0,1152,3.0
3298,0.0,,,,55.0,,,,,0,note_on,,100.0,55.0,100.0,1152,3.0
3299,0.0,,,,62.0,,,,,0,note_on,,100.0,62.0,100.0,1152,3.0
3300,0.0,,,,59.0,,,,,44,note_on,,0.0,59.0,0.0,1196,3.114583333333333
3301,0.0,,,,62.0,,,,,0,note_on,,0.0,62.0,0.0,1196,3.114583333333333
3302,0.0,,,,55.0,,,,,0,note_on,,0.0,55.0,0.0,1196,3.114583333333333
3303,0.0,,,,59.0,,,,,52,note_on,,100.0,59.0,100.0,1248,3.25
3304,0.0,,,,62.0,,,,,0,note_on,,100.0,62.0,100.0,1248,3.25
3305,0.0,,,,55.0,,,,,0,note_on,,100.0,55.0,100.0,1248,3.25
3306,0.0,,,,55.0,,,,,44,note_on,,0.0,55.0,0.0,1292,3.364583333333333
3307,0.0,,,,62.0,,,,,0,note_on,,0.0,62.0,0.0,1292,3.364583333333333
3308,0.0,,,,59.0,,,,,0,note_on,,0.0,59.0,0.0,1292,3.364583333333333
3309,0.0,,,,59.0,,,,,52,note_on,,100.0,59.0,100.0,1344,3.5
3310,0.0,,,,62.0,,,,,0,note_on,,100.0,62.0,100.0,1344,3.5
3311,0.0,,,,55.0,,,,,0,note_on,,100.0,55.0,100.0,1344,3.5
3312,0.0,,,,55.0,,,,,44,note_on,,0.0,55.0,0.0,1388,3.614583333333333
3313,0.0,,,,62.0,,,,,0,note_on,,0.0,62.0,0.0,1388,3.614583333333333
3314,0.0,,,,59.0,,,,,0,note_on,,0.0,59.0,0.0,1388,3.614583333333333
3315,0.0,,,,62.0,,,,,52,note_on,,100.0,62.0,100.0,1440,3.75
3316,0.0,,,,55.0,,,,,0,note_on,,100.0,55.0,100.0,1440,3.75
3317,0.0,,,,59.0,,,,,0,note_on,,100.0,59.0,100.0,1440,3.75
3318,0.0,,,,59.0,,,,,44,note_on,,0.0,59.0,0.0,1484,3.864583333333333
3319,0.0,,,,62.0,,,,,0,note_on,,0.0,62.0,0.0,1484,3.864583333333333
3320,0.0,,,,55.0,,,,,0,note_on,,0.0,55.0,0.0,1484,3.864583333333333
3321,0.0,,,,53.0,,,,,52,note_on,,100.0,53.0,100.0,1536,4.0
3322,0.0,,,,60.0,,,,,0,note_on,,100.0,60.0,100.0,1536,4.0
3323,0.0,,,,57.0,,,,,0,note_on,,100.0,57.0,100.0,1536,4.0
3324,0.0,,,,57.0,,,,,44,note_on,,0.0,57.0,0.0,1580,4.114583333333333
3325,0.0,,,,60.0,,,,,0,note_on,,0.0,60.0,0.0,1580,4.114583333333333
3326,0.0,,,,53.0,,,,,0,note_on,,0.0,53.0,0.0,1580,4.114583333333333
3327,0.0,,,,53.0,,,,,52,note_on,,100.0,53.0,100.0,1632,4.25
3328,0.0,,,,60.0,,,,,0,note_on,,100.0,60.0,100.0,1632,4.25
3329,0.0,,,,57.0,,,,,0,note_on,,100.0,57.0,100.0,1632,4.25
3330,0.0,,,,60.0,,,,,44,note_on,,0.0,60.0,0.0,1676,4.364583333333333
3331,0.0,,,,53.0,,,,,0,note_on,,0.0,53.0,0.0,1676,4.364583333333333
3332,0.0,,,,57.0,,,,,0,note_on,,0.0,57.0,0.0,1676,4.364583333333333
3333,0.0,,,,57.0,,,,,52,note_on,,100.0,57.0,100.0,1728,4.5
3334,0.0,,,,53.0,,,,,0,note_on,,100.0,53.0,100.0,1728,4.5
3335,0.0,,,,60.0,,,,,0,note_on,,100.0,60.0,100.0,1728,4.5
3336,0.0,,,,60.0,,,,,44,note_on,,0.0,60.0,0.0,1772,4.614583333333333
3337,0.0,,,,57.0,,,,,0,note_on,,0.0,57.0,0.0,1772,4.614583333333333
3338,0.0,,,,53.0,,,,,0,note_on,,0.0,53.0,0.0,1772,4.614583333333333
3339,0.0,,,,53.0,,,,,52,note_on,,100.0,53.0,100.0,1824,4.75
3340,0.0,,,,57.0,,,,,0,note_on,,100.0,57.0,100.0,1824,4.75
3341,0.0,,,,60.0,,,,,0,note_on,,100.0,60.0,100.0,1824,4.75
3342,0.0,,,,53.0,,,,,44,note_on,,0.0,53.0,0.0,1868,4.864583333333333
3343,0.0,,,,60.0,,,,,0,note_on,,0.0,60.0,0.0,1868,4.864583333333333
3344,0.0,,,,57.0,,,,,0,note_on,,0.0,57.0,0.0,1868,4.864583333333333
3345,0.0,,,,60.0,,,,,52,note_on,,100.0,60.0,100.0,1920,5.0
3346,0.0,,,,57.0,,,,,0,note_on,,100.0,57.0,100.0,1920,5.0
3347,0.0,,,,53.0,,,,,0,note_on,,100.0,53.0,100.0,1920,5.0
3348,0.0,,,,60.0,,,,,44,note_on,,0.0,60.0,0.0,1964,5.114583333333333
3349,0.0,,,,53.0,,,,,0,note_on,,0.0,53.0,0.0,1964,5.114583333333333
3350,0.0,,,,57.0,,,,,0,note_on,,0.0,57.0,0.0,1964,5.114583333333333
3351,0.0,,,,60.0,,,,,52,note_on,,100.0,60.0,100.0,2016,5.25
3352,0.0,,,,57.0,,,,,0,note_on,,100.0,57.0,100.0,2016,5.25
3353,0.0,,,,53.0,,,,,0,note_on,,100.0,53.0,100.0,2016,5.25
3354,0.0,,,,60.0,,,,,44,note_on,,0.0,60.0,0.0,2060,5.364583333333333
3355,0.0,,,,53.0,,,,,0,note_on,,0.0,53.0,0.0,2060,5.364583333333333
3356,0.0,,,,57.0,,,,,0,note_on,,0.0,57.0,0.0,2060,5.364583333333333
3357,0.0,,,,53.0,,,,,52,note_on,,100.0,53.0,100.0,2112,5.5
3358,0.0,,,,60.0,,,,,0,note_on,,100.0,60.0,100.0,2112,5.5
3359,0.0,,,,57.0,,,,,0,note_on,,100.0,57.0,100.0,2112,5.5
3360,0.0,,,,53.0,,,,,44,note_on,,0.0,53.0,0.0,2156,5.614583333333333
3361,0.0,,,,60.0,,,,,0,note_on,,0.0,60.0,0.0,2156,5.614583333333333
3362,0.0,,,,57.0,,,,,0,note_on,,0.0,57.0,0.0,2156,5.614583333333333
3363,0.0,,,,48.0,,,,,52,note_on,,100.0,48.0,100.0,2208,5.75
3364,0.0,,,,48.0,,,,,44,note_on,,0.0,48.0,0.0,2252,5.864583333333333
3365,0.0,,,,60.0,,,,,52,note_on,,100.0,60.0,100.0,2304,6.0
3366,0.0,,,,64.0,,,,,0,note_on,,100.0,64.0,100.0,2304,6.0
3367,0.0,,,,55.0,,,,,0,note_on,,100.0,55.0,100.0,2304,6.0
3368,0.0,,,,64.0,,,,,44,note_on,,0.0,64.0,0.0,2348,6.114583333333333
3369,0.0,,,,55.0,,,,,0,note_on,,0.0,55.0,0.0,2348,6.114583333333333
3370,0.0,,,,60.0,,,,,0,note_on,,0.0,60.0,0.0,2348,6.114583333333333
3371,0.0,,,,64.0,,,,,52,note_on,,100.0,64.0,100.0,2400,6.25
3372,0.0,,,,55.0,,,,,0,note_on,,100.0,55.0,100.0,2400,6.25
3373,0.0,,,,60.0,,,,,0,note_on,,100.0,60.0,100.0,2400,6.25
3374,0.0,,,,55.0,,,,,44,note_on,,0.0,55.0,0.0,2444,6.364583333333333
3375,0.0,,,,60.0,,,,,0,note_on,,0.0,60.0,0.0,2444,6.364583333333333
3376,0.0,,,,64.0,,,,,0,note_on,,0.0,64.0,0.0,2444,6.364583333333333
3377,0.0,,,,64.0,,,,,52,note_on,,100.0,64.0,100.0,2496,6.5
3378,0.0,,,,60.0,,,,,0,note_on,,100.0,60.0,100.0,2496,6.5
3379,0.0,,,,55.0,,,,,0,note_on,,100.0,55.0,100.0,2496,6.5
3380,0.0,,,,64.0,,,,,44,note_on,,0.0,64.0,0.0,2540,6.614583333333333
3381,0.0,,,,55.0,,,,,0,note_on,,0.0,55.0,0.0,2540,6.614583333333333
3382,0.0,,,,60.0,,,,,0,note_on,,0.0,60.0,0.0,2540,6.614583333333333
3383,0.0,,,,55.0,,,,,52,note_on,,100.0,55.0,100.0,2592,6.75
3384,0.0,,,,60.0,,,,,0,note_on,,100.0,60.0,100.0,2592,6.75
3385,0.0,,,,64.0,,,,,0,note_on,,100.0,64.0,100.0,2592,6.75
3386,0.0,,,,55.0,,,,,44,note_on,,0.0,55.0,0.0,2636,6.864583333333333
3387,0.0,,,,64.0,,,,,0,note_on,,0.0,64.0,0.0,2636,6.864583333333333
3388,0.0,,,,60.0,,,,,0,note_on,,0.0,60.0,0.0,2636,6.864583333333333
3389,0.0,,,,55.0,,,,,52,note_on,,100.0,55.0,100.0,2688,7.0
3390,0.0,,,,60.0,,,,,0,note_on,,100.0,60.0,100.0,2688,7.0
3391,0.0,,,,64.0,,,,,0,note_on,,100.0,64.0,100.0,2688,7.0
3392,0.0,,,,64.0,,,,,44,note_on,,0.0,64.0,0.0,2732,7.114583333333333
3393,0.0,,,,60.0,,,,,0,note_on,,0.0,60.0,0.0,2732,7.114583333333333
3394,0.0,,,,55.0,,,,,0,note_on,,0.0,55.0,0.0,2732,7.114583333333333
3395,0.0,,,,60.0,,,,,52,note_on,,100.0,60.0,100.0,2784,7.25
3396,0.0,,,,64.0,,,,,0,note_on,,100.0,64.0,100.0,2784,7.25
3397,0.0,,,,55.0,,,,,0,note_on,,100.0,55.0,100.0,2784,7.25
3398,0.0,,,,55.0,,,,,44,note_on,,0.0,55.0,0.0,2828,7.364583333333333
3399,0.0,,,,64.0,,,,,0,note_on,,0.0,64.0,0.0,2828,7.364583333333333
3400,0.0,,,,60.0,,,,,0,note_on,,0.0,60.0,0.0,2828,7.364583333333333
3401,0.0,,,,55.0,,,,,52,note_on,,100.0,55.0,100.0,2880,7.5
3402,0.0,,,,64.0,,,,,0,note_on,,100.0,64.0,100.0,2880,7.5
3403,0.0,,,,60.0,,,,,0,note_on,,100.0,60.0,100.0,2880,7.5
3404,0.0,,,,64.0,,,,,44,note_on,,0.0,64.0,0.0,2924,7.614583333333333
3405,0.0,,,,60.0,,,,,0,note_on,,0.0,60.0,0.0,2924,7.614583333333333
3406,0.0,,,,55.0,,,,,0,note_on,,0.0,55.0,0.0,2924,7.614583333333333
3407,0.0,,,,60.0,,,,,52,note_on,,100.0,60.0,100.0,2976,7.75
3408,0.0,,,,64.0,,,,,0,note_on,,100.0,64.0,100.0,2976,7.75
3409,0.0,,,,55.0,,,,,0,note_on,,100.0,55.0,100.0,2976,7.75
3410,0.0,,,,60.0,,,,,44,note_on,,0.0,60.0,0.0,3020,7.864583333333333
3411,0.0,,,,64.0,,,,,0,note_on,,0.0,64.0,0.0,3020,7.864583333333333
3412,0.0,,,,55.0,,,,,0,note_on,,0.0,55.0,0.0,3020,7.864583333333333
3413,0.0,,,,62.0,,,,,52,note_on,,100.0,62.0,100.0,3072,8.0
3414,0.0,,,,55.0,,,,,0,note_on,,100.0,55.0,100.0,3072,8.0
3415,0.0,,,,59.0,,,,,0,note_on,,100.0,59.0,100.0,3072,8.0
3416,0.0,,,,55.0,,,,,44,note_on,,0.0,55.0,0.0,3116,8.114583333333332
3417,0.0,,,,62.0,,,,,0,note_on,,0.0,62.0,0.0,3116,8.114583333333332
3418,0.0,,,,59.0,,,,,0,note_on,,0.0,59.0,0.0,3116,8.114583333333332
3419,0.0,,,,62.0,,,,,52,note_on,,100.0,62.0,100.0,3168,8.25
3420,0.0,,,,55.0,,,,,0,note_on,,100.0,55.0,100.0,3168,8.25
3421,0.0,,,,59.0,,,,,0,note_on,,100.0,59.0,100.0,3168,8.25
3422,0.0,,,,62.0,,,,,44,note_on,,0.0,62.0,0.0,3212,8.364583333333332
3423,0.0,,,,59.0,,,,,0,note_on,,0.0,59.0,0.0,3212,8.364583333333332
3424,0.0,,,,55.0,,,,,0,note_on,,0.0,55.0,0.0,3212,8.364583333333332
3425,0.0,,,,55.0,,,,,52,note_on,,100.0,55.0,100.0,3264,8.5
3426,0.0,,,,62.0,,,,,0,note_on,,100.0,62.0,100.0,3264,8.5
3427,0.0,,,,59.0,,,,,0,note_on,,100.0,59.0,100.0,3264,8.5
3428,0.0,,,,59.0,,,,,44,note_on,,0.0,59.0,0.0,3308,8.614583333333332
3429,0.0,,,,55.0,,,,,0,note_on,,0.0,55.0,0.0,3308,8.614583333333332
3430,0.0,,,,62.0,,,,,0,note_on,,0.0,62.0,0.0,3308,8.614583333333332
3431,0.0,,,,59.0,,,,,52,note_on,,100.0,59.0,100.0,3360,8.75
3432,0.0,,,,55.0,,,,,0,note_on,,100.0,55.0,100.0,3360,8.75
3433,0.0,,,,62.0,,,,,0,note_on,,100.0,62.0,100.0,3360,8.75
3434,0.0,,,,59.0,,,,,44,note_on,,0.0,59.0,0.0,3404,8.864583333333332
3435,0.0,,,,55.0,,,,,0,note_on,,0.0,55.0,0.0,3404,8.864583333333332
3436,0.0,,,,62.0,,,,,0,note_on,,0.0,62.0,0.0,3404,8.864583333333332
3437,0.0,,,,62.0,,,,,52,note_on,,100.0,62.0,100.0,3456,9.0
3438,0.0,,,,59.0,,,,,0,note_on,,100.0,59.0,100.0,3456,9.0
3439,0.0,,,,55.0,,,,,0,note_on,,100.0,55.0,100.0,3456,9.0
3440,0.0,,,,62.0,,,,,44,note_on,,0.0,62.0,0.0,3500,9.114583333333332
3441,0.0,,,,59.0,,,,,0,note_on,,0.0,59.0,0.0,3500,9.114583333333332
3442,0.0,,,,55.0,,,,,0,note_on,,0.0,55.0,0.0,3500,9.114583333333332
3443,0.0,,,,62.0,,,,,52,note_on,,100.0,62.0,100.0,3552,9.25
3444,0.0,,,,59.0,,,,,0,note_on,,100.0,59.0,100.0,3552,9.25
3445,0.0,,,,55.0,,,,,0,note_on,,100.0,55.0,100.0,3552,9.25
3446,0.0,,,,55.0,,,,,44,note_on,,0.0,55.0,0.0,3596,9.364583333333332
3447,0.0,,,,62.0,,,,,0,note_on,,0.0,62.0,0.0,3596,9.364583333333332
3448,0.0,,,,59.0,,,,,0,note_on,,0.0,59.0,0.0,3596,9.364583333333332
3449,0.0,,,,59.0,,,,,52,note_on,,100.0,59.0,100.0,3648,9.5
3450,0.0,,,,62.0,,,,,0,note_on,,100.0,62.0,100.0,3648,9.5
3451,0.0,,,,55.0,,,,,0,note_on,,100.0,55.0,100.0,3648,9.5
3452,0.0,,,,62.0,,,,,44,note_on,,0.0,62.0,0.0,3692,9.614583333333332
3453,0.0,,,,59.0,,,,,0,note_on,,0.0,59.0,0.0,3692,9.614583333333332
3454,0.0,,,,55.0,,,,,0,note_on,,0.0,55.0,0.0,3692,9.614583333333332
3455,0.0,,,,62.0,,,,,52,note_on,,100.0,62.0,100.0,3744,9.75
3456,0.0,,,,59.0,,,,,0,note_on,,100.0,59.0,100.0,3744,9.75
3457,0.0,,,,55.0,,,,,0,note_on,,100.0,55.0,100.0,3744,9.75
3458,0.0,,,,55.0,,,,,44,note_on,,0.0,55.0,0.0,3788,9.864583333333332
3459,0.0,,,,62.0,,,,,0,note_on,,0.0,62.0,0.0,3788,9.864583333333332
3460,0.0,,,,59.0,,,,,0,note_on,,0.0,59.0,0.0,3788,9.864583333333332
3461,0.0,,,,55.0,,,,,52,note_on,,100.0,55.0,100.0,3840,10.0
3462,0.0,,,,62.0,,,,,0,note_on,,100.0,62.0,100.0,3840,10.0
3463,0.0,,,,59.0,,,,,0,note_on,,100.0,59.0,100.0,3840,10.0
3464,0.0,,,,59.0,,,,,44,note_on,,0.0,59.0,0.0,3884,10.114583333333332
3465,0.0,,,,55.0,,,,,0,note_on,,0.0,55.0,0.0,3884,10.114583333333332
3466,0.0,,,,62.0,,,,,0,note_on,,0.0,62.0,0.0,3884,10.114583333333332
3467,0.0,,,,55.0,,,,,52,note_on,,100.0,55.0,100.0,3936,10.25
3468,0.0,,,,62.0,,,,,0,note_on,,100.0,62.0,100.0,3936,10.25
3469,0.0,,,,59.0,,,,,0,note_on,,100.0,59.0,100.0,3936,10.25
3470,0.0,,,,59.0,,,,,44,note_on,,0.0,59.0,0.0,3980,10.364583333333332
3471,0.0,,,,62.0,,,,,0,note_on,,0.0,62.0,0.0,3980,10.364583333333332
3472,0.0,,,,55.0,,,,,0,note_on,,0.0,55.0,0.0,3980,10.364583333333332
3473,0.0,,,,59.0,,,,,52,note_on,,100.0,59.0,100.0,4032,10.5
3474,0.0,,,,55.0,,,,,0,note_on,,100.0,55.0,100.0,4032,10.5
3475,0.0,,,,62.0,,,,,0,note_on,,100.0,62.0,100.0,4032,10.5
3476,0.0,,,,59.0,,,,,44,note_on,,0.0,59.0,0.0,4076,10.614583333333332
3477,0.0,,,,62.0,,,,,0,note_on,,0.0,62.0,0.0,4076,10.614583333333332
3478,0.0,,,,55.0,,,,,0,note_on,,0.0,55.0,0.0,4076,10.614583333333332
3479,0.0,,,,59.0,,,,,52,note_on,,100.0,59.0,100.0,4128,10.75
3480,0.0,,,,62.0,,,,,0,note_on,,100.0,62.0,100.0,4128,10.75
3481,0.0,,,,55.0,,,,,0,note_on,,100.0,55.0,100.0,4128,10.75
3482,0.0,,,,59.0,,,,,44,note_on,,0.0,59.0,0.0,4172,10.864583333333332
3483,0.0,,,,62.0,,,,,0,note_on,,0.0,62.0,0.0,4172,10.864583333333332
3484,0.0,,,,55.0,,,,,0,note_on,,0.0,55.0,0.0,4172,10.864583333333332
3485,0.0,,,,59.0,,,,,52,note_on,,100.0,59.0,100.0,4224,11.0
3486,0.0,,,,62.0,,,,,0,note_on,,100.0,62.0,100.0,4224,11.0
3487,0.0,,,,55.0,,,,,0,note_on,,100.0,55.0,100.0,4224,11.0
3488,0.0,,,,55.0,,,,,44,note_on,,0.0,55.0,0.0,4268,11.114583333333332
3489,0.0,,,,62.0,,,,,0,note_on,,0.0,62.0,0.0,4268,11.114583333333332
3490,0.0,,,,59.0,,,,,0,note_on,,0.0,59.0,0.0,4268,11.114583333333332
3491,0.0,,,,62.0,,,,,52,note_on,,100.0,62.0,100.0,4320,11.25
3492,0.0,,,,55.0,,,,,0,note_on,,100.0,55.0,100.0,4320,11.25
3493,0.0,,,,59.0,,,,,0,note_on,,100.0,59.0,100.0,4320,11.25
3494,0.0,,,,59.0,,,,,44,note_on,,0.0,59.0,0.0,4364,11.364583333333332
3495,0.0,,,,62.0,,,,,0,note_on,,0.0,62.0,0.0,4364,11.364583333333332
3496,0.0,,,,55.0,,,,,0,note_on,,0.0,55.0,0.0,4364,11.364583333333332
3497,0.0,,,,59.0,,,,,52,note_on,,100.0,59.0,100.0,4416,11.5
3498,0.0,,,,62.0,,,,,0,note_on,,100.0,62.0,100.0,4416,11.5
3499,0.0,,,,55.0,,,,,0,note_on,,100.0,55.0,100.0,4416,11.5
3500,0.0,,,,55.0,,,,,44,note_on,,0.0,55.0,0.0,4460,11.614583333333332
3501,0.0,,,,59.0,,,,,0,note_on,,0.0,59.0,0.0,4460,11.614583333333332
3502,0.0,,,,62.0,,,,,0,note_on,,0.0,62.0,0.0,4460,11.614583333333332
3503,0.0,,,,59.0,,,,,52,note_on,,100.0,59.0,100.0,4512,11.75
3504,0.0,,,,55.0,,,,,0,note_on,,100.0,55.0,100.0,4512,11.75
3505,0.0,,,,62.0,,,,,0,note_on,,100.0,62.0,100.0,4512,11.75
3506,0.0,,,,55.0,,,,,44,note_on,,0.0,55.0,0.0,4556,11.864583333333332
3507,0.0,,,,59.0,,,,,0,note_on,,0.0,59.0,0.0,4556,11.864583333333332
3508,0.0,,,,62.0,,,,,0,note_on,,0.0,62.0,0.0,4556,11.864583333333332
3509,0.0,,,,60.0,,,,,52,note_on,,100.0,60.0,100.0,4608,12.0
3510,0.0,,,,53.0,,,,,0,note_on,,100.0,53.0,100.0,4608,12.0
3511,0.0,,,,57.0,,,,,0,note_on,,100.0,57.0,100.0,4608,12.0
3512,0.0,,,,53.0,,,,,44,note_on,,0.0,53.0,0.0,4652,12.114583333333332
3513,0.0,,,,57.0,,,,,0,note_on,,0.0,57.0,0.0,4652,12.114583333333332
3514,0.0,,,,60.0,,,,,0,note_on,,0.0,60.0,0.0,4652,12.114583333333332
3515,0.0,,,,53.0,,,,,52,note_on,,100.0,53.0,100.0,4704,12.25
3516,0.0,,,,60.0,,,,,0,note_on,,100.0,60.0,100.0,4704,12.25
3517,0.0,,,,57.0,,,,,0,note_on,,100.0,57.0,100.0,4704,12.25
3518,0.0,,,,60.0,,,,,44,note_on,,0.0,60.0,0.0,4748,12.364583333333332
3519,0.0,,,,53.0,,,,,0,note_on,,0.0,53.0,0.0,4748,12.364583333333332
3520,0.0,,,,57.0,,,,,0,note_on,,0.0,57.0,0.0,4748,12.364583333333332
3521,0.0,,,,60.0,,,,,52,note_on,,100.0,60.0,100.0,4800,12.5
3522,0.0,,,,57.0,,,,,0,note_on,,100.0,57.0,100.0,4800,12.5
3523,0.0,,,,53.0,,,,,0,note_on,,100.0,53.0,100.0,4800,12.5
3524,0.0,,,,60.0,,,,,44,note_on,,0.0,60.0,0.0,4844,12.614583333333332
3525,0.0,,,,53.0,,,,,0,note_on,,0.0,53.0,0.0,4844,12.614583333333332
3526,0.0,,,,57.0,,,,,0,note_on,,0.0,57.0,0.0,4844,12.614583333333332
3527,0.0,,,,60.0,,,,,52,note_on,,100.0,60.0,100.0,4896,12.75
3528,0.0,,,,53.0,,,,,0,note_on,,100.0,53.0,100.0,4896,12.75
3529,0.0,,,,57.0,,,,,0,note_on,,100.0,57.0,100.0,4896,12.75
3530,0.0,,,,57.0,,,,,44,note_on,,0.0,57.0,0.0,4940,12.864583333333332
3531,0.0,,,,60.0,,,,,0,note_on,,0.0,60.0,0.0,4940,12.864583333333332
3532,0.0,,,,53.0,,,,,0,note_on,,0.0,53.0,0.0,4940,12.864583333333332
3533,0.0,,,,60.0,,,,,52,note_on,,100.0,60.0,100.0,4992,13.0
3534,0.0,,,,57.0,,,,,0,note_on,,100.0,57.0,100.0,4992,13.0
3535,0.0,,,,53.0,,,,,0,note_on,,100.0,53.0,100.0,4992,13.0
3536,0.0,,,,60.0,,,,,44,note_on,,0.0,60.0,0.0,5036,13.114583333333332
3537,0.0,,,,53.0,,,,,0,note_on,,0.0,53.0,0.0,5036,13.114583333333332
3538,0.0,,,,57.0,,,,,0,note_on,,0.0,57.0,0.0,5036,13.114583333333332
3539,0.0,,,,57.0,,,,,52,note_on,,100.0,57.0,100.0,5088,13.25
3540,0.0,,,,60.0,,,,,0,note_on,,100.0,60.0,100.0,5088,13.25
3541,0.0,,,,53.0,,,,,0,note_on,,100.0,53.0,100.0,5088,13.25
3542,0.0,,,,57.0,,,,,44,note_on,,0.0,57.0,0.0,5132,13.364583333333332
3543,0.0,,,,60.0,,,,,0,note_on,,0.0,60.0,0.0,5132,13.364583333333332
3544,0.0,,,,53.0,,,,,0,note_on,,0.0,53.0,0.0,5132,13.364583333333332
3545,0.0,,,,60.0,,,,,52,note_on,,100.0,60.0,100.0,5184,13.5
3546,0.0,,,,53.0,,,,,0,note_on,,100.0,53.0,100.0,5184,13.5
3547,0.0,,,,57.0,,,,,0,note_on,,100.0,57.0,100.0,5184,13.5
3548,0.0,,,,53.0,,,,,44,note_on,,0.0,53.0,0.0,5228,13.614583333333332
3549,0.0,,,,60.0,,,,,0,note_on,,0.0,60.0,0.0,5228,13.614583333333332
3550,0.0,,,,57.0,,,,,0,note_on,,0.0,57.0,0.0,5228,13.614583333333332
3551,0.0,,,,48.0,,,,,52,note_on,,100.0,48.0,100.0,5280,13.75
3552,0.0,,,,48.0,,,,,44,note_on,,0.0,48.0,0.0,5324,13.864583333333332
3553,0.0,,,,60.0,,,,,52,note_on,,100.0,60.0,100.0,5376,14.0
3554,0.0,,,,64.0,,,,,0,note_on,,100.0,64.0,100.0,5376,14.0
3555,0.0,,,,55.0,,,,,0,note_on,,100.0,55.0,100.0,5376,14.0
3556,0.0,,,,64.0,,,,,44,note_on,,0.0,64.0,0.0,5420,14.114583333333332
3557,0.0,,,,55.0,,,,,0,note_on,,0.0,55.0,0.0,5420,14.114583333333332
3558,0.0,,,,60.0,,,,,0,note_on,,0.0,60.0,0.0,5420,14.114583333333332
3559,0.0,,,,55.0,,,,,52,note_on,,100.0,55.0,100.0,5472,14.25
3560,0.0,,,,64.0,,,,,0,note_on,,100.0,64.0,100.0,5472,14.25
3561,0.0,,,,60.0,,,,,0,note_on,,100.0,60.0,100.0,5472,14.25
3562,0.0,,,,55.0,,,,,44,note_on,,0.0,55.0,0.0,5516,14.364583333333332
3563,0.0,,,,64.0,,,,,0,note_on,,0.0,64.0,0.0,5516,14.364583333333332
3564,0.0,,,,60.0,,,,,0,note_on,,0.0,60.0,0.0,5516,14.364583333333332
3565,0.0,,,,55.0,,,,,52,note_on,,100.0,55.0,100.0,5568,14.5
3566,0.0,,,,60.0,,,,,0,note_on,,100.0,60.0,100.0,5568,14.5
3567,0.0,,,,64.0,,,,,0,note_on,,100.0,64.0,100.0,5568,14.5
3568,0.0,,,,60.0,,,,,44,note_on,,0.0,60.0,0.0,5612,14.614583333333332
3569,0.0,,,,64.0,,,,,0,note_on,,0.0,64.0,0.0,5612,14.614583333333332
3570,0.0,,,,55.0,,,,,0,note_on,,0.0,55.0,0.0,5612,14.614583333333332
3571,0.0,,,,55.0,,,,,52,note_on,,100.0,55.0,100.0,5664,14.75
3572,0.0,,,,60.0,,,,,0,note_on,,100.0,60.0,100.0,5664,14.75
3573,0.0,,,,64.0,,,,,0,note_on,,100.0,64.0,100.0,5664,14.75
3574,0.0,,,,60.0,,,,,44,note_on,,0.0,60.0,0.0,5708,14.864583333333332
3575,0.0,,,,55.0,,,,,0,note_on,,0.0,55.0,0.0,5708,14.864583333333332
3576,0.0,,,,64.0,,,,,0,note_on,,0.0,64.0,0.0,5708,14.864583333333332
3577,0.0,,,,64.0,,,,,52,note_on,,100.0,64.0,100.0,5760,15.0
3578,0.0,,,,55.0,,,,,0,note_on,,100.0,55.0,100.0,5760,15.0
3579,0.0,,,,60.0,,,,,0,note_on,,100.0,60.0,100.0,5760,15.0
3580,0.0,,,,55.0,,,,,44,note_on,,0.0,55.0,0.0,5804,15.114583333333332
3581,0.0,,,,64.0,,,,,0,note_on,,0.0,64.0,0.0,5804,15.114583333333332
3582,0.0,,,,60.0,,,,,0,note_on,,0.0,60.0,0.0,5804,15.114583333333332
3583,0.0,,,,64.0,,,,,52,note_on,,100.0,64.0,100.0,5856,15.25
3584,0.0,,,,55.0,,,,,0,note_on,,100.0,55.0,100.0,5856,15.25
3585,0.0,,,,60.0,,,,,0,note_on,,100.0,60.0,100.0,5856,15.25
3586,0.0,,,,60.0,,,,,44,note_on,,0.0,60.0,0.0,5900,15.364583333333332
3587,0.0,,,,55.0,,,,,0,note_on,,0.0,55.0,0.0,5900,15.364583333333332
3588,0.0,,,,64.0,,,,,0,note_on,,0.0,64.0,0.0,5900,15.364583333333332
3589,0.0,,,,55.0,,,,,52,note_on,,100.0,55.0,100.0,5952,15.5
3590,0.0,,,,64.0,,,,,0,note_on,,100.0,64.0,100.0,5952,15.5
3591,0.0,,,,60.0,,,,,0,note_on,,100.0,60.0,100.0,5952,15.5
3592,0.0,,,,55.0,,,,,44,note_on,,0.0,55.0,0.0,5996,15.614583333333332
3593,0.0,,,,60.0,,,,,0,note_on,,0.0,60.0,0.0,5996,15.614583333333332
3594,0.0,,,,64.0,,,,,0,note_on,,0.0,64.0,0.0,5996,15.614583333333332
3595,0.0,,,,60.0,,,,,52,note_on,,100.0,60.0,100.0,6048,15.75
3596,0.0,,,,64.0,,,,,0,note_on,,100.0,64.0,100.0,6048,15.75
3597,0.0,,,,55.0,,,,,0,note_on,,100.0,55.0,100.0,6048,15.75
3598,0.0,,,,64.0,,,,,44,note_on,,0.0,64.0,0.0,6092,15.864583333333332
3599,0.0,,,,55.0,,,,,0,note_on,,0.0,55.0,0.0,6092,15.864583333333332
3600,0.0,,,,60.0,,,,,0,note_on,,0.0,60.0,0.0,6092,15.864583333333332
3601,0.0,,,,59.0,,,,,52,note_on,,100.0,59.0,100.0,6144,16.0
3602,0.0,,,,62.0,,,,,0,note_on,,100.0,62.0,100.0,6144,16.0
3603,0.0,,,,55.0,,,,,0,note_on,,100.0,55.0,100.0,6144,16.0
3604,0.0,,,,59.0,,,,,44,note_on,,0.0,59.0,0.0,6188,16.114583333333332
3605,0.0,,,,55.0,,,,,0,note_on,,0.0,55.0,0.0,6188,16.114583333333332
3606,0.0,,,,62.0,,,,,0,note_on,,0.0,62.0,0.0,6188,16.114583333333332
3607,0.0,,,,55.0,,,,,52,note_on,,100.0,55.0,100.0,6240,16.25
3608,0.0,,,,62.0,,,,,0,note_on,,100.0,62.0,100.0,6240,16.25
3609,0.0,,,,59.0,,,,,0,note_on,,100.0,59.0,100.0,6240,16.25
3610,0.0,,,,62.0,,,,,44,note_on,,0.0,62.0,0.0,6284,16.364583333333332
3611,0.0,,,,55.0,,,,,0,note_on,,0.0,55.0,0.0,6284,16.364583333333332
3612,0.0,,,,59.0,,,,,0,note_on,,0.0,59.0,0.0,6284,16.364583333333332
3613,0.0,,,,55.0,,,,,52,note_on,,100.0,55.0,100.0,6336,16.5
3614,0.0,,,,62.0,,,,,0,note_on,,100.0,62.0,100.0,6336,16.5
3615,0.0,,,,59.0,,,,,0,note_on,,100.0,59.0,100.0,6336,16.5
3616,0.0,,,,59.0,,,,,44,note_on,,0.0,59.0,0.0,6380,16.614583333333332
3617,0.0,,,,62.0,,,,,0,note_on,,0.0,62.0,0.0,6380,16.614583333333332
3618,0.0,,,,55.0,,,,,0,note_on,,0.0,55.0,0.0,6380,16.614583333333332
3619,0.0,,,,62.0,,,,,52,note_on,,100.0,62.0,100.0,6432,16.75
3620,0.0,,,,59.0,,,,,0,note_on,,100.0,59.0,100.0,6432,16.75
3621,0.0,,,,55.0,,,,,0,note_on,,100.0,55.0,100.0,6432,16.75
3622,0.0,,,,55.0,,,,,44,note_on,,0.0,55.0,0.0,6476,16.864583333333332
3623,0.0,,,,59.0,,,,,0,note_on,,0.0,59.0,0.0,6476,16.864583333333332
3624,0.0,,,,62.0,,,,,0,note_on,,0.0,62.0,0.0,6476,16.864583333333332
3625,0.0,,,,59.0,,,,,52,note_on,,100.0,59.0,100.0,6528,17.0
3626,0.0,,,,55.0,,,,,0,note_on,,100.0,55.0,100.0,6528,17.0
3627,0.0,,,,62.0,,,,,0,note_on,,100.0,62.0,100.0,6528,17.0
3628,0.0,,,,55.0,,,,,44,note_on,,0.0,55.0,0.0,6572,17.114583333333332
3629,0.0,,,,59.0,,,,,0,note_on,,0.0,59.0,0.0,6572,17.114583333333332
3630,0.0,,,,62.0,,,,,0,note_on,,0.0,62.0,0.0,6572,17.114583333333332
3631,0.0,,,,59.0,,,,,52,note_on,,100.0,59.0,100.0,6624,17.25
3632,0.0,,,,55.0,,,,,0,note_on,,100.0,55.0,100.0,6624,17.25
3633,0.0,,,,62.0,,,,,0,note_on,,100.0,62.0,100.0,6624,17.25
3634,0.0,,,,55.0,,,,,44,note_on,,0.0,55.0,0.0,6668,17.364583333333332
3635,0.0,,,,59.0,,,,,0,note_on,,0.0,59.0,0.0,6668,17.364583333333332
3636,0.0,,,,62.0,,,,,0,note_on,,0.0,62.0,0.0,6668,17.364583333333332
3637,0.0,,,,55.0,,,,,52,note_on,,100.0,55.0,100.0,6720,17.5
3638,0.0,,,,62.0,,,,,0,note_on,,100.0,62.0,100.0,6720,17.5
3639,0.0,,,,59.0,,,,,0,note_on,,100.0,59.0,100.0,6720,17.5
3640,0.0,,,,62.0,,,,,44,note_on,,0.0,62.0,0.0,6764,17.614583333333332
3641,0.0,,,,55.0,,,,,0,note_on,,0.0,55.0,0.0,6764,17.614583333333332
3642,0.0,,,,59.0,,,,,0,note_on,,0.0,59.0,0.0,6764,17.614583333333332
3643,0.0,,,,59.0,,,,,52,note_on,,100.0,59.0,100.0,6816,17.75
3644,0.0,,,,55.0,,,,,0,note_on,,100.0,55.0,100.0,6816,17.75
3645,0.0,,,,62.0,,,,,0,note_on,,100.0,62.0,100.0,6816,17.75
3646,0.0,,,,62.0,,,,,44,note_on,,0.0,62.0,0.0,6860,17.864583333333332
3647,0.0,,,,59.0,,,,,0,note_on,,0.0,59.0,0.0,6860,17.864583333333332
3648,0.0,,,,55.0,,,,,0,note_on,,0.0,55.0,0.0,6860,17.864583333333332
3649,0.0,,,,55.0,,,,,52,note_on,,100.0,55.0,100.0,6912,18.0
3650,0.0,,,,62.0,,,,,0,note_on,,100.0,62.0,100.0,6912,18.0
3651,0.0,,,,59.0,,,,,0,note_on,,100.0,59.0,100.0,6912,18.0
3652,0.0,,,,62.0,,,,,44,note_on,,0.0,62.0,0.0,6956,18.114583333333332
3653,0.0,,,,59.0,,,,,0,note_on,,0.0,59.0,0.0,6956,18.114583333333332
3654,0.0,,,,55.0,,,,,0,note_on,,0.0,55.0,0.0,6956,18.114583333333332
3655,0.0,,,,62.0,,,,,52,note_on,,100.0,62.0,100.0,7008,18.25
3656,0.0,,,,55.0,,,,,0,note_on,,100.0,55.0,100.0,7008,18.25
3657,0.0,,,,59.0,,,,,0,note_on,,100.0,59.0,100.0,7008,18.25
3658,0.0,,,,59.0,,,,,44,note_on,,0.0,59.0,0.0,7052,18.364583333333332
3659,0.0,,,,55.0,,,,,0,note_on,,0.0,55.0,0.0,7052,18.364583333333332
3660,0.0,,,,62.0,,,,,0,note_on,,0.0,62.0,0.0,7052,18.364583333333332
3661,0.0,,,,55.0,,,,,52,note_on,,100.0,55.0,100.0,7104,18.5
3662,0.0,,,,59.0,,,,,0,note_on,,100.0,59.0,100.0,7104,18.5
3663,0.0,,,,62.0,,,,,0,note_on,,100.0,62.0,100.0,7104,18.5
3664,0.0,,,,62.0,,,,,44,note_on,,0.0,62.0,0.0,7148,18.614583333333332
3665,0.0,,,,59.0,,,,,0,note_on,,0.0,59.0,0.0,7148,18.614583333333332
3666,0.0,,,,55.0,,,,,0,note_on,,0.0,55.0,0.0,7148,18.614583333333332
3667,0.0,,,,55.0,,,,,52,note_on,,100.0,55.0,100.0,7200,18.75
3668,0.0,,,,59.0,,,,,0,note_on,,100.0,59.0,100.0,7200,18.75
3669,0.0,,,,62.0,,,,,0,note_on,,100.0,62.0,100.0,7200,18.75
3670,0.0,,,,55.0,,,,,44,note_on,,0.0,55.0,0.0,7244,18.864583333333332
3671,0.0,,,,59.0,,,,,0,note_on,,0.0,59.0,0.0,7244,18.864583333333332
3672,0.0,,,,62.0,,,,,0,note_on,,0.0,62.0,0.0,7244,18.864583333333332
3673,0.0,,,,62.0,,,,,52,note_on,,100.0,62.0,100.0,7296,19.0
3674,0.0,,,,59.0,,,,,0,note_on,,100.0,59.0,100.0,7296,19.0
3675,0.0,,,,55.0,,,,,0,note_on,,100.0,55.0,100.0,7296,19.0
3676,0.0,,,,59.0,,,,,44,note_on,,0.0,59.0,0.0,7340,19.114583333333332
3677,0.0,,,,55.0,,,,,0,note_on,,0.0,55.0,0.0,7340,19.114583333333332
3678,0.0,,,,62.0,,,,,0,note_on,,0.0,62.0,0.0,7340,19.114583333333332
3679,0.0,,,,62.0,,,,,52,note_on,,100.0,62.0,100.0,7392,19.25
3680,0.0,,,,59.0,,,,,0,note_on,,100.0,59.0,100.0,7392,19.25
3681,0.0,,,,55.0,,,,,0,note_on,,100.0,55.0,100.0,7392,19.25
3682,0.0,,,,59.0,,,,,44,note_on,,0.0,59.0,0.0,7436,19.364583333333332
3683,0.0,,,,55.0,,,,,0,note_on,,0.0,55.0,0.0,7436,19.364583333333332
3684,0.0,,,,62.0,,,,,0,note_on,,0.0,62.0,0.0,7436,19.364583333333332
3685,0.0,,,,55.0,,,,,52,note_on,,100.0,55.0,100.0,7488,19.5
3686,0.0,,,,59.0,,,,,0,note_on,,100.0,59.0,100.0,7488,19.5
3687,0.0,,,,62.0,,,,,0,note_on,,100.0,62.0,100.0,7488,19.5
3688,0.0,,,,62.0,,,,,44,note_on,,0.0,62.0,0.0,7532,19.614583333333332
3689,0.0,,,,59.0,,,,,0,note_on,,0.0,59.0,0.0,7532,19.614583333333332
3690,0.0,,,,55.0,,,,,0,note_on,,0.0,55.0,0.0,7532,19.614583333333332
3691,0.0,,,,59.0,,,,,52,note_on,,100.0,59.0,100.0,7584,19.75
3692,0.0,,,,55.0,,,,,0,note_on,,100.0,55.0,100.0,7584,19.75
3693,0.0,,,,62.0,,,,,0,note_on,,100.0,62.0,100.0,7584,19.75
3694,0.0,,,,55.0,,,,,44,note_on,,0.0,55.0,0.0,7628,19.864583333333332
3695,0.0,,,,59.0,,,,,0,note_on,,0.0,59.0,0.0,7628,19.864583333333332
3696,0.0,,,,62.0,,,,,0,note_on,,0.0,62.0,0.0,7628,19.864583333333332
3697,0.0,,,,60.0,,,,,52,note_on,,100.0,60.0,100.0,7680,20.0
3698,0.0,,,,53.0,,,,,0,note_on,,100.0,53.0,100.0,7680,20.0
3699,0.0,,,,57.0,,,,,0,note_on,,100.0,57.0,100.0,7680,20.0
3700,0.0,,,,53.0,,,,,44,note_on,,0.0,53.0,0.0,7724,20.114583333333332
3701,0.0,,,,57.0,,,,,0,note_on,,0.0,57.0,0.0,7724,20.114583333333332
3702,0.0,,,,60.0,,,,,0,note_on,,0.0,60.0,0.0,7724,20.114583333333332
3703,0.0,,,,53.0,,,,,52,note_on,,100.0,53.0,100.0,7776,20.25
3704,0.0,,,,57.0,,,,,0,note_on,,100.0,57.0,100.0,7776,20.25
3705,0.0,,,,60.0,,,,,0,note_on,,100.0,60.0,100.0,7776,20.25
3706,0.0,,,,60.0,,,,,44,note_on,,0.0,60.0,0.0,7820,20.364583333333332
3707,0.0,,,,57.0,,,,,0,note_on,,0.0,57.0,0.0,7820,20.364583333333332
3708,0.0,,,,53.0,,,,,0,note_on,,0.0,53.0,0.0,7820,20.364583333333332
3709,0.0,,,,60.0,,,,,52,note_on,,100.0,60.0,100.0,7872,20.5
3710,0.0,,,,57.0,,,,,0,note_on,,100.0,57.0,100.0,7872,20.5
3711,0.0,,,,53.0,,,,,0,note_on,,100.0,53.0,100.0,7872,20.5
3712,0.0,,,,53.0,,,,,44,note_on,,0.0,53.0,0.0,7916,20.614583333333332
3713,0.0,,,,57.0,,,,,0,note_on,,0.0,57.0,0.0,7916,20.614583333333332
3714,0.0,,,,60.0,,,,,0,note_on,,0.0,60.0,0.0,7916,20.614583333333332
3715,0.0,,,,53.0,,,,,52,note_on,,100.0,53.0,100.0,7968,20.75
3716,0.0,,,,60.0,,,,,0,note_on,,100.0,60.0,100.0,7968,20.75
3717,0.0,,,,57.0,,,,,0,note_on,,100.0,57.0,100.0,7968,20.75
3718,0.0,,,,57.0,,,,,44,note_on,,0.0,57.0,0.0,8012,20.864583333333332
3719,0.0,,,,53.0,,,,,0,note_on,,0.0,53.0,0.0,8012,20.864583333333332
3720,0.0,,,,60.0,,,,,0,note_on,,0.0,60.0,0.0,8012,20.864583333333332
3721,0.0,,,,57.0,,,,,52,note_on,,100.0,57.0,100.0,8064,21.0
3722,0.0,,,,53.0,,,,,0,note_on,,100.0,53.0,100.0,8064,21.0
3723,0.0,,,,60.0,,,,,0,note_on,,100.0,60.0,100.0,8064,21.0
3724,0.0,,,,53.0,,,,,44,note_on,,0.0,53.0,0.0,8108,21.114583333333332
3725,0.0,,,,60.0,,,,,0,note_on,,0.0,60.0,0.0,8108,21.114583333333332
3726,0.0,,,,57.0,,,,,0,note_on,,0.0,57.0,0.0,8108,21.114583333333332
3727,0.0,,,,57.0,,,,,52,note_on,,100.0,57.0,100.0,8160,21.25
3728,0.0,,,,53.0,,,,,0,note_on,,100.0,53.0,100.0,8160,21.25
3729,0.0,,,,60.0,,,,,0,note_on,,100.0,60.0,100.0,8160,21.25
3730,0.0,,,,60.0,,,,,44,note_on,,0.0,60.0,0.0,8204,21.364583333333332
3731,0.0,,,,53.0,,,,,0,note_on,,0.0,53.0,0.0,8204,21.364583333333332
3732,0.0,,,,57.0,,,,,0,note_on,,0.0,57.0,0.0,8204,21.364583333333332
3733,0.0,,,,53.0,,,,,52,note_on,,100.0,53.0,100.0,8256,21.5
3734,0.0,,,,57.0,,,,,0,note_on,,100.0,57.0,100.0,8256,21.5
3735,0.0,,,,60.0,,,,,0,note_on,,100.0,60.0,100.0,8256,21.5
3736,0.0,,,,57.0,,,,,44,note_on,,0.0,57.0,0.0,8300,21.614583333333332
3737,0.0,,,,53.0,,,,,0,note_on,,0.0,53.0,0.0,8300,21.614583333333332
3738,0.0,,,,60.0,,,,,0,note_on,,0.0,60.0,0.0,8300,21.614583333333332
3739,0.0,,,,48.0,,,,,52,note_on,,100.0,48.0,100.0,8352,21.75
3740,0.0,,,,48.0,,,,,44,note_on,,0.0,48.0,0.0,8396,21.864583333333332
3741,0.0,,,,64.0,,,,,52,note_on,,100.0,64.0,100.0,8448,22.0
3742,0.0,,,,60.0,,,,,0,note_on,,100.0,60.0,100.0,8448,22.0
3743,0.0,,,,55.0,,,,,0,note_on,,100.0,55.0,100.0,8448,22.0
3744,0.0,,,,64.0,,,,,44,note_on,,0.0,64.0,0.0,8492,22.114583333333332
3745,0.0,,,,55.0,,,,,0,note_on,,0.0,55.0,0.0,8492,22.114583333333332
3746,0.0,,,,60.0,,,,,0,note_on,,0.0,60.0,0.0,8492,22.114583333333332
3747,0.0,,,,55.0,,,,,52,note_on,,100.0,55.0,100.0,8544,22.25
3748,0.0,,,,60.0,,,,,0,note_on,,100.0,60.0,100.0,8544,22.25
3749,0.0,,,,64.0,,,,,0,note_on,,100.0,64.0,100.0,8544,22.25
3750,0.0,,,,60.0,,,,,44,note_on,,0.0,60.0,0.0,8588,22.364583333333332
3751,0.0,,,,64.0,,,,,0,note_on,,0.0,64.0,0.0,8588,22.364583333333332
3752,0.0,,,,55.0,,,,,0,note_on,,0.0,55.0,0.0,8588,22.364583333333332
3753,0.0,,,,60.0,,,,,52,note_on,,100.0,60.0,100.0,8640,22.5
3754,0.0,,,,64.0,,,,,0,note_on,,100.0,64.0,100.0,8640,22.5
3755,0.0,,,,55.0,,,,,0,note_on,,100.0,55.0,100.0,8640,22.5
3756,0.0,,,,64.0,,,,,44,note_on,,0.0,64.0,0.0,8684,22.614583333333332
3757,0.0,,,,55.0,,,,,0,note_on,,0.0,55.0,0.0,8684,22.614583333333332
3758,0.0,,,,60.0,,,,,0,note_on,,0.0,60.0,0.0,8684,22.614583333333332
3759,0.0,,,,55.0,,,,,52,note_on,,100.0,55.0,100.0,8736,22.75
3760,0.0,,,,64.0,,,,,0,note_on,,100.0,64.0,100.0,8736,22.75
3761,0.0,,,,60.0,,,,,0,note_on,,100.0,60.0,100.0,8736,22.75
3762,0.0,,,,60.0,,,,,44,note_on,,0.0,60.0,0.0,8780,22.864583333333332
3763,0.0,,,,55.0,,,,,0,note_on,,0.0,55.0,0.0,8780,22.864583333333332
3764,0.0,,,,64.0,,,,,0,note_on,,0.0,64.0,0.0,8780,22.864583333333332
3765,0.0,,,,60.0,,,,,52,note_on,,100.0,60.0,100.0,8832,23.0
3766,0.0,,,,64.0,,,,,0,note_on,,100.0,64.0,100.0,8832,23.0
3767,0.0,,,,55.0,,,,,0,note_on,,100.0,55.0,100.0,8832,23.0
3768,0.0,,,,55.0,,,,,44,note_on,,0.0,55.0,0.0,8876,23.114583333333332
3769,0.0,,,,64.0,,,,,0,note_on,,0.0,64.0,0.0,8876,23.114583333333332
3770,0.0,,,,60.0,,,,,0,note_on,,0.0,60.0,0.0,8876,23.114583333333332
3771,0.0,,,,55.0,,,,,52,note_on,,100.0,55.0,100.0,8928,23.25
3772,0.0,,,,64.0,,,,,0,note_on,,100.0,64.0,100.0,8928,23.25
3773,0.0,,,,60.0,,,,,0,note_on,,100.0,60.0,100.0,8928,23.25
3774,0.0,,,,64.0,,,,,44,note_on,,0.0,64.0,0.0,8972,23.364583333333332
3775,0.0,,,,60.0,,,,,0,note_on,,0.0,60.0,0.0,8972,23.364583333333332
3776,0.0,,,,55.0,,,,,0,note_on,,0.0,55.0,0.0,8972,23.364583333333332
3777,0.0,,,,55.0,,,,,52,note_on,,100.0,55.0,100.0,9024,23.5
3778,0.0,,,,64.0,,,,,0,note_on,,100.0,64.0,100.0,9024,23.5
3779,0.0,,,,60.0,,,,,0,note_on,,100.0,60.0,100.0,9024,23.5
3780,0.0,,,,64.0,,,,,44,note_on,,0.0,64.0,0.0,9068,23.614583333333332
3781,0.0,,,,60.0,,,,,0,note_on,,0.0,60.0,0.0,9068,23.614583333333332
3782,0.0,,,,55.0,,,,,0,note_on,,0.0,55.0,0.0,9068,23.614583333333332
3783,0.0,,,,64.0,,,,,52,note_on,,100.0,64.0,100.0,9120,23.75
3784,0.0,,,,60.0,,,,,0,note_on,,100.0,60.0,100.0,9120,23.75
3785,0.0,,,,55.0,,,,,0,note_on,,100.0,55.0,100.0,9120,23.75
3786,0.0,,,,64.0,,,,,44,note_on,,0.0,64.0,0.0,9164,23.864583333333332
3787,0.0,,,,55.0,,,,,0,note_on,,0.0,55.0,0.0,9164,23.864583333333332
3788,0.0,,,,60.0,,,,,0,note_on,,0.0,60.0,0.0,9164,23.864583333333332
3789,0.0,,,,55.0,,,,,52,note_on,,100.0,55.0,100.0,9216,24.0
3790,0.0,,,,62.0,,,,,0,note_on,,100.0,62.0,100.0,9216,24.0
3791,0.0,,,,59.0,,,,,0,note_on,,100.0,59.0,100.0,9216,24.0
3792,0.0,,,,59.0,,,,,44,note_on,,0.0,59.0,0.0,9260,24.114583333333332
3793,0.0,,,,55.0,,,,,0,note_on,,0.0,55.0,0.0,9260,24.114583333333332
3794,0.0,,,,62.0,,,,,0,note_on,,0.0,62.0,0.0,9260,24.114583333333332
3795,0.0,,,,55.0,,,,,52,note_on,,100.0,55.0,100.0,9312,24.25
3796,0.0,,,,62.0,,,,,0,note_on,,100.0,62.0,100.0,9312,24.25
3797,0.0,,,,59.0,,,,,0,note_on,,100.0,59.0,100.0,9312,24.25
3798,0.0,,,,62.0,,,,,44,note_on,,0.0,62.0,0.0,9356,24.364583333333332
3799,0.0,,,,55.0,,,,,0,note_on,,0.0,55.0,0.0,9356,24.364583333333332
3800,0.0,,,,59.0,,,,,0,note_on,,0.0,59.0,0.0,9356,24.364583333333332
3801,0.0,,,,59.0,,,,,52,note_on,,100.0,59.0,100.0,9408,24.5
3802,0.0,,,,62.0,,,,,0,note_on,,100.0,62.0,100.0,9408,24.5
3803,0.0,,,,55.0,,,,,0,note_on,,100.0,55.0,100.0,9408,24.5
3804,0.0,,,,55.0,,,,,44,note_on,,0.0,55.0,0.0,9452,24.614583333333332
3805,0.0,,,,62.0,,,,,0,note_on,,0.0,62.0,0.0,9452,24.614583333333332
3806,0.0,,,,59.0,,,,,0,note_on,,0.0,59.0,0.0,9452,24.614583333333332
3807,0.0,,,,55.0,,,,,52,note_on,,100.0,55.0,100.0,9504,24.75
3808,0.0,,,,62.0,,,,,0,note_on,,100.0,62.0,100.0,9504,24.75
3809,0.0,,,,59.0,,,,,0,note_on,,100.0,59.0,100.0,9504,24.75
3810,0.0,,,,62.0,,,,,44,note_on,,0.0,62.0,0.0,9548,24.864583333333332
3811,0.0,,,,55.0,,,,,0,note_on,,0.0,55.0,0.0,9548,24.864583333333332
3812,0.0,,,,59.0,,,,,0,note_on,,0.0,59.0,0.0,9548,24.864583333333332
3813,0.0,,,,59.0,,,,,52,note_on,,100.0,59.0,100.0,9600,25.0
3814,0.0,,,,55.0,,,,,0,note_on,,100.0,55.0,100.0,9600,25.0
3815,0.0,,,,62.0,,,,,0,note_on,,100.0,62.0,100.0,9600,25.0
3816,0.0,,,,55.0,,,,,44,note_on,,0.0,55.0,0.0,9644,25.114583333333332
3817,0.0,,,,62.0,,,,,0,note_on,,0.0,62.0,0.0,9644,25.114583333333332
3818,0.0,,,,59.0,,,,,0,note_on,,0.0,59.0,0.0,9644,25.114583333333332
3819,0.0,,,,62.0,,,,,52,note_on,,100.0,62.0,100.0,9696,25.25
3820,0.0,,,,55.0,,,,,0,note_on,,100.0,55.0,100.0,9696,25.25
3821,0.0,,,,59.0,,,,,0,note_on,,100.0,59.0,100.0,9696,25.25
3822,0.0,,,,59.0,,,,,44,note_on,,0.0,59.0,0.0,9740,25.364583333333332
3823,0.0,,,,55.0,,,,,0,note_on,,0.0,55.0,0.0,9740,25.364583333333332
3824,0.0,,,,62.0,,,,,0,note_on,,0.0,62.0,0.0,9740,25.364583333333332
3825,0.0,,,,59.0,,,,,52,note_on,,100.0,59.0,100.0,9792,25.5
3826,0.0,,,,55.0,,,,,0,note_on,,100.0,55.0,100.0,9792,25.5
3827,0.0,,,,62.0,,,,,0,note_on,,100.0,62.0,100.0,9792,25.5
3828,0.0,,,,55.0,,,,,44,note_on,,0.0,55.0,0.0,9836,25.614583333333332
3829,0.0,,,,62.0,,,,,0,note_on,,0.0,62.0,0.0,9836,25.614583333333332
3830,0.0,,,,59.0,,,,,0,note_on,,0.0,59.0,0.0,9836,25.614583333333332
3831,0.0,,,,62.0,,,,,52,note_on,,100.0,62.0,100.0,9888,25.75
3832,0.0,,,,55.0,,,,,0,note_on,,100.0,55.0,100.0,9888,25.75
3833,0.0,,,,59.0,,,,,0,note_on,,100.0,59.0,100.0,9888,25.75
3834,0.0,,,,59.0,,,,,44,note_on,,0.0,59.0,0.0,9932,25.864583333333332
3835,0.0,,,,62.0,,,,,0,note_on,,0.0,62.0,0.0,9932,25.864583333333332
3836,0.0,,,,55.0,,,,,0,note_on,,0.0,55.0,0.0,9932,25.864583333333332
3837,0.0,,,,59.0,,,,,52,note_on,,100.0,59.0,100.0,9984,26.0
3838,0.0,,,,55.0,,,,,0,note_on,,100.0,55.0,100.0,9984,26.0
3839,0.0,,,,62.0,,,,,0,note_on,,100.0,62.0,100.0,9984,26.0
3840,0.0,,,,62.0,,,,,44,note_on,,0.0,62.0,0.0,10028,26.114583333333332
3841,0.0,,,,59.0,,,,,0,note_on,,0.0,59.0,0.0,10028,26.114583333333332
3842,0.0,,,,55.0,,,,,0,note_on,,0.0,55.0,0.0,10028,26.114583333333332
3843,0.0,,,,55.0,,,,,52,note_on,,100.0,55.0,100.0,10080,26.25
3844,0.0,,,,62.0,,,,,0,note_on,,100.0,62.0,100.0,10080,26.25
3845,0.0,,,,59.0,,,,,0,note_on,,100.0,59.0,100.0,10080,26.25
3846,0.0,,,,55.0,,,,,44,note_on,,0.0,55.0,0.0,10124,26.364583333333332
3847,0.0,,,,59.0,,,,,0,note_on,,0.0,59.0,0.0,10124,26.364583333333332
3848,0.0,,,,62.0,,,,,0,note_on,,0.0,62.0,0.0,10124,26.364583333333332
3849,0.0,,,,59.0,,,,,52,note_on,,100.0,59.0,100.0,10176,26.5
3850,0.0,,,,62.0,,,,,0,note_on,,100.0,62.0,100.0,10176,26.5
3851,0.0,,,,55.0,,,,,0,note_on,,100.0,55.0,100.0,10176,26.5
3852,0.0,,,,62.0,,,,,44,note_on,,0.0,62.0,0.0,10220,26.614583333333332
3853,0.0,,,,59.0,,,,,0,note_on,,0.0,59.0,0.0,10220,26.614583333333332
3854,0.0,,,,55.0,,,,,0,note_on,,0.0,55.0,0.0,10220,26.614583333333332
3855,0.0,,,,59.0,,,,,52,note_on,,100.0,59.0,100.0,10272,26.75
3856,0.0,,,,62.0,,,,,0,note_on,,100.0,62.0,100.0,10272,26.75
3857,0.0,,,,55.0,,,,,0,note_on,,100.0,55.0,100.0,10272,26.75
3858,0.0,,,,62.0,,,,,44,note_on,,0.0,62.0,0.0,10316,26.864583333333332
3859,0.0,,,,59.0,,,,,0,note_on,,0.0,59.0,0.0,10316,26.864583333333332
3860,0.0,,,,55.0,,,,,0,note_on,,0.0,55.0,0.0,10316,26.864583333333332
3861,0.0,,,,59.0,,,,,52,note_on,,100.0,59.0,100.0,10368,27.0
3862,0.0,,,,62.0,,,,,0,note_on,,100.0,62.0,100.0,10368,27.0
3863,0.0,,,,55.0,,,,,0,note_on,,100.0,55.0,100.0,10368,27.0
3864,0.0,,,,62.0,,,,,44,note_on,,0.0,62.0,0.0,10412,27.114583333333332
3865,0.0,,,,59.0,,,,,0,note_on,,0.0,59.0,0.0,10412,27.114583333333332
3866,0.0,,,,55.0,,,,,0,note_on,,0.0,55.0,0.0,10412,27.114583333333332
3867,0.0,,,,55.0,,,,,52,note_on,,100.0,55.0,100.0,10464,27.25
3868,0.0,,,,59.0,,,,,0,note_on,,100.0,59.0,100.0,10464,27.25
3869,0.0,,,,62.0,,,,,0,note_on,,100.0,62.0,100.0,10464,27.25
3870,0.0,,,,62.0,,,,,44,note_on,,0.0,62.0,0.0,10508,27.364583333333332
3871,0.0,,,,55.0,,,,,0,note_on,,0.0,55.0,0.0,10508,27.364583333333332
3872,0.0,,,,59.0,,,,,0,note_on,,0.0,59.0,0.0,10508,27.364583333333332
3873,0.0,,,,55.0,,,,,52,note_on,,100.0,55.0,100.0,10560,27.5
3874,0.0,,,,59.0,,,,,0,note_on,,100.0,59.0,100.0,10560,27.5
3875,0.0,,,,62.0,,,,,0,note_on,,100.0,62.0,100.0,10560,27.5
3876,0.0,,,,59.0,,,,,44,note_on,,0.0,59.0,0.0,10604,27.614583333333332
3877,0.0,,,,62.0,,,,,0,note_on,,0.0,62.0,0.0,10604,27.614583333333332
3878,0.0,,,,55.0,,,,,0,note_on,,0.0,55.0,0.0,10604,27.614583333333332
3879,0.0,,,,62.0,,,,,52,note_on,,100.0,62.0,100.0,10656,27.75
3880,0.0,,,,55.0,,,,,0,note_on,,100.0,55.0,100.0,10656,27.75
3881,0.0,,,,59.0,,,,,0,note_on,,100.0,59.0,100.0,10656,27.75
3882,0.0,,,,62.0,,,,,44,note_on,,0.0,62.0,0.0,10700,27.864583333333332
3883,0.0,,,,55.0,,,,,0,note_on,,0.0,55.0,0.0,10700,27.864583333333332
3884,0.0,,,,59.0,,,,,0,note_on,,0.0,59.0,0.0,10700,27.864583333333332
3885,0.0,,,,57.0,,,,,52,note_on,,100.0,57.0,100.0,10752,28.0
3886,0.0,,,,53.0,,,,,0,note_on,,100.0,53.0,100.0,10752,28.0
3887,0.0,,,,60.0,,,,,0,note_on,,100.0,60.0,100.0,10752,28.0
3888,0.0,,,,57.0,,,,,44,note_on,,0.0,57.0,0.0,10796,28.114583333333332
3889,0.0,,,,53.0,,,,,0,note_on,,0.0,53.0,0.0,10796,28.114583333333332
3890,0.0,,,,60.0,,,,,0,note_on,,0.0,60.0,0.0,10796,28.114583333333332
3891,0.0,,,,57.0,,,,,52,note_on,,100.0,57.0,100.0,10848,28.25
3892,0.0,,,,53.0,,,,,0,note_on,,100.0,53.0,100.0,10848,28.25
3893,0.0,,,,60.0,,,,,0,note_on,,100.0,60.0,100.0,10848,28.25
3894,0.0,,,,53.0,,,,,44,note_on,,0.0,53.0,0.0,10892,28.364583333333332
3895,0.0,,,,60.0,,,,,0,note_on,,0.0,60.0,0.0,10892,28.364583333333332
3896,0.0,,,,57.0,,,,,0,note_on,,0.0,57.0,0.0,10892,28.364583333333332
3897,0.0,,,,53.0,,,,,52,note_on,,100.0,53.0,100.0,10944,28.5
3898,0.0,,,,57.0,,,,,0,note_on,,100.0,57.0,100.0,10944,28.5
3899,0.0,,,,60.0,,,,,0,note_on,,100.0,60.0,100.0,10944,28.5
3900,0.0,,,,60.0,,,,,44,note_on,,0.0,60.0,0.0,10988,28.614583333333332
3901,0.0,,,,57.0,,,,,0,note_on,,0.0,57.0,0.0,10988,28.614583333333332
3902,0.0,,,,53.0,,,,,0,note_on,,0.0,53.0,0.0,10988,28.614583333333332
3903,0.0,,,,53.0,,,,,52,note_on,,100.0,53.0,100.0,11040,28.75
3904,0.0,,,,60.0,,,,,0,note_on,,100.0,60.0,100.0,11040,28.75
3905,0.0,,,,57.0,,,,,0,note_on,,100.0,57.0,100.0,11040,28.75
3906,0.0,,,,57.0,,,,,44,note_on,,0.0,57.0,0.0,11084,28.864583333333332
3907,0.0,,,,60.0,,,,,0,note_on,,0.0,60.0,0.0,11084,28.864583333333332
3908,0.0,,,,53.0,,,,,0,note_on,,0.0,53.0,0.0,11084,28.864583333333332
3909,0.0,,,,60.0,,,,,52,note_on,,100.0,60.0,100.0,11136,29.0
3910,0.0,,,,57.0,,,,,0,note_on,,100.0,57.0,100.0,11136,29.0
3911,0.0,,,,53.0,,,,,0,note_on,,100.0,53.0,100.0,11136,29.0
3912,0.0,,,,60.0,,,,,44,note_on,,0.0,60.0,0.0,11180,29.114583333333332
3913,0.0,,,,57.0,,,,,0,note_on,,0.0,57.0,0.0,11180,29.114583333333332
3914,0.0,,,,53.0,,,,,0,note_on,,0.0,53.0,0.0,11180,29.114583333333332
3915,0.0,,,,57.0,,,,,52,note_on,,100.0,57.0,100.0,11232,29.25
3916,0.0,,,,53.0,,,,,0,note_on,,100.0,53.0,100.0,11232,29.25
3917,0.0,,,,60.0,,,,,0,note_on,,100.0,60.0,100.0,11232,29.25
3918,0.0,,,,53.0,,,,,44,note_on,,0.0,53.0,0.0,11276,29.364583333333332
3919,0.0,,,,60.0,,,,,0,note_on,,0.0,60.0,0.0,11276,29.364583333333332
3920,0.0,,,,57.0,,,,,0,note_on,,0.0,57.0,0.0,11276,29.364583333333332
3921,0.0,,,,60.0,,,,,52,note_on,,100.0,60.0,100.0,11328,29.5
3922,0.0,,,,57.0,,,,,0,note_on,,100.0,57.0,100.0,11328,29.5
3923,0.0,,,,53.0,,,,,0,note_on,,100.0,53.0,100.0,11328,29.5
3924,0.0,,,,57.0,,,,,44,note_on,,0.0,57.0,0.0,11372,29.614583333333332
3925,0.0,,,,53.0,,,,,0,note_on,,0.0,53.0,0.0,11372,29.614583333333332
3926,0.0,,,,60.0,,,,,0,note_on,,0.0,60.0,0.0,11372,29.614583333333332
3927,0.0,,,,48.0,,,,,52,note_on,,100.0,48.0,100.0,11424,29.75
3928,0.0,,,,48.0,,,,,44,note_on,,0.0,48.0,0.0,11468,29.864583333333332
3929,0.0,,,,60.0,,,,,52,note_on,,100.0,60.0,100.0,11520,30.0
3930,0.0,,,,55.0,,,,,0,note_on,,100.0,55.0,100.0,11520,30.0
3931,0.0,,,,64.0,,,,,0,note_on,,100.0,64.0,100.0,11520,30.0
3932,0.0,,,,55.0,,,,,44,note_on,,0.0,55.0,0.0,11564,30.114583333333332
3933,0.0,,,,60.0,,,,,0,note_on,,0.0,60.0,0.0,11564,30.114583333333332
3934,0.0,,,,64.0,,,,,0,note_on,,0.0,64.0,0.0,11564,30.114583333333332
3935,0.0,,,,60.0,,,,,52,note_on,,100.0,60.0,100.0,11616,30.25
3936,0.0,,,,55.0,,,,,0,note_on,,100.0,55.0,100.0,11616,30.25
3937,0.0,,,,64.0,,,,,0,note_on,,100.0,64.0,100.0,11616,30.25
3938,0.0,,,,55.0,,,,,44,note_on,,0.0,55.0,0.0,11660,30.364583333333332
3939,0.0,,,,64.0,,,,,0,note_on,,0.0,64.0,0.0,11660,30.364583333333332
3940,0.0,,,,60.0,,,,,0,note_on,,0.0,60.0,0.0,11660,30.364583333333332
3941,0.0,,,,64.0,,,,,52,note_on,,100.0,64.0,100.0,11712,30.5
3942,0.0,,,,55.0,,,,,0,note_on,,100.0,55.0,100.0,11712,30.5
3943,0.0,,,,60.0,,,,,0,note_on,,100.0,60.0,100.0,11712,30.5
3944,0.0,,,,60.0,,,,,44,note_on,,0.0,60.0,0.0,11756,30.614583333333332
3945,0.0,,,,55.0,,,,,0,note_on,,0.0,55.0,0.0,11756,30.614583333333332
3946,0.0,,,,64.0,,,,,0,note_on,,0.0,64.0,0.0,11756,30.614583333333332
3947,0.0,,,,60.0,,,,,52,note_on,,100.0,60.0,100.0,11808,30.75
3948,0.0,,,,64.0,,,,,0,note_on,,100.0,64.0,100.0,11808,30.75
3949,0.0,,,,55.0,,,,,0,note_on,,100.0,55.0,100.0,11808,30.75
3950,0.0,,,,60.0,,,,,44,note_on,,0.0,60.0,0.0,11852,30.864583333333332
3951,0.0,,,,55.0,,,,,0,note_on,,0.0,55.0,0.0,11852,30.864583333333332
3952,0.0,,,,64.0,,,,,0,note_on,,0.0,64.0,0.0,11852,30.864583333333332
3953,0.0,,,,55.0,,,,,52,note_on,,100.0,55.0,100.0,11904,31.0
3954,0.0,,,,64.0,,,,,0,note_on,,100.0,64.0,100.0,11904,31.0
3955,0.0,,,,60.0,,,,,0,note_on,,100.0,60.0,100.0,11904,31.0
3956,0.0,,,,60.0,,,,,44,note_on,,0.0,60.0,0.0,11948,31.114583333333332
3957,0.0,,,,64.0,,,,,0,note_on,,0.0,64.0,0.0,11948,31.114583333333332
3958,0.0,,,,55.0,,,,,0,note_on,,0.0,55.0,0.0,11948,31.114583333333332
3959,0.0,,,,60.0,,,,,52,note_on,,100.0,60.0,100.0,12000,31.25
3960,0.0,,,,64.0,,,,,0,note_on,,100.0,64.0,100.0,12000,31.25
3961,0.0,,,,55.0,,,,,0,note_on,,100.0,55.0,100.0,12000,31.25
3962,0.0,,,,60.0,,,,,44,note_on,,0.0,60.0,0.0,12044,31.364583333333332
3963,0.0,,,,55.0,,,,,0,note_on,,0.0,55.0,0.0,12044,31.364583333333332
3964,0.0,,,,64.0,,,,,0,note_on,,0.0,64.0,0.0,12044,31.364583333333332
3965,0.0,,,,55.0,,,,,52,note_on,,100.0,55.0,100.0,12096,31.5
3966,0.0,,,,60.0,,,,,0,note_on,,100.0,60.0,100.0,12096,31.5
3967,0.0,,,,64.0,,,,,0,note_on,,100.0,64.0,100.0,12096,31.5
3968,0.0,,,,64.0,,,,,44,note_on,,0.0,64.0,0.0,12140,31.614583333333332
3969,0.0,,,,55.0,,,,,0,note_on,,0.0,55.0,0.0,12140,31.614583333333332
3970,0.0,,,,60.0,,,,,0,note_on,,0.0,60.0,0.0,12140,31.614583333333332
3971,0.0,,,,55.0,,,,,52,note_on,,100.0,55.0,100.0,12192,31.75
3972,0.0,,,,60.0,,,,,0,note_on,,100.0,60.0,100.0,12192,31.75
3973,0.0,,,,64.0,,,,,0,note_on,,100.0,64.0,100.0,12192,31.75
3974,0.0,,,,55.0,,,,,44,note_on,,0.0,55.0,0.0,12236,31.864583333333332
3975,0.0,,,,64.0,,,,,0,note_on,,0.0,64.0,0.0,12236,31.864583333333332
3976,0.0,,,,60.0,,,,,0,note_on,,0.0,60.0,0.0,12236,31.864583333333332
3977,0.0,,,,62.0,,,,,52,note_on,,100.0,62.0,100.0,12288,32.0
3978,0.0,,,,55.0,,,,,0,note_on,,100.0,55.0,100.0,12288,32.0
3979,0.0,,,,59.0,,,,,0,note_on,,100.0,59.0,100.0,12288,32.0
3980,0.0,,,,55.0,,,,,44,note_on,,0.0,55.0,0.0,12332,32.11458333333333
3981,0.0,,,,62.0,,,,,0,note_on,,0.0,62.0,0.0,12332,32.11458333333333
3982,0.0,,,,59.0,,,,,0,note_on,,0.0,59.0,0.0,12332,32.11458333333333
3983,0.0,,,,62.0,,,,,52,note_on,,100.0,62.0,100.0,12384,32.25
3984,0.0,,,,55.0,,,,,0,note_on,,100.0,55.0,100.0,12384,32.25
3985,0.0,,,,59.0,,,,,0,note_on,,100.0,59.0,100.0,12384,32.25
3986,0.0,,,,62.0,,,,,44,note_on,,0.0,62.0,0.0,12428,32.36458333333333
3987,0.0,,,,55.0,,,,,0,note_on,,0.0,55.0,0.0,12428,32.36458333333333
3988,0.0,,,,59.0,,,,,0,note_on,,0.0,59.0,0.0,12428,32.36458333333333
3989,0.0,,,,59.0,,,,,52,note_on,,100.0,59.0,100.0,12480,32.5
3990,0.0,,,,55.0,,,,,0,note_on,,100.0,55.0,100.0,12480,32.5
3991,0.0,,,,62.0,,,,,0,note_on,,100.0,62.0,100.0,12480,32.5
3992,0.0,,,,62.0,,,,,44,note_on,,0.0,62.0,0.0,12524,32.61458333333333
3993,0.0,,,,55.0,,,,,0,note_on,,0.0,55.0,0.0,12524,32.61458333333333
3994,0.0,,,,59.0,,,,,0,note_on,,0.0,59.0,0.0,12524,32.61458333333333
3995,0.0,,,,62.0,,,,,52,note_on,,100.0,62.0,100.0,12576,32.75
3996,0.0,,,,55.0,,,,,0,note_on,,100.0,55.0,100.0,12576,32.75
3997,0.0,,,,59.0,,,,,0,note_on,,100.0,59.0,100.0,12576,32.75
3998,0.0,,,,55.0,,,,,44,note_on,,0.0,55.0,0.0,12620,32.86458333333333
3999,0.0,,,,62.0,,,,,0,note_on,,0.0,62.0,0.0,12620,32.86458333333333
4000,0.0,,,,59.0,,,,,0,note_on,,0.0,59.0,0.0,12620,32.86458333333333
4001,0.0,,,,59.0,,,,,52,note_on,,100.0,59.0,100.0,12672,33.0
4002,0.0,,,,62.0,,,,,0,note_on,,100.0,62.0,100.0,12672,33.0
4003,0.0,,,,55.0,,,,,0,note_on,,100.0,55.0,100.0,12672,33.0
4004,0.0,,,,55.0,,,,,44,note_on,,0.0,55.0,0.0,12716,33.11458333333333
4005,0.0,,,,62.0,,,,,0,note_on,,0.0,62.0,0.0,12716,33.11458333333333
4006,0.0,,,,59.0,,,,,0,note_on,,0.0,59.0,0.0,12716,33.11458333333333
4007,0.0,,,,59.0,,,,,52,note_on,,100.0,59.0,100.0,12768,33.25
4008,0.0,,,,55.0,,,,,0,note_on,,100.0,55.0,100.0,12768,33.25
4009,0.0,,,,62.0,,,,,0,note_on,,100.0,62.0,100.0,12768,33.25
4010,0.0,,,,59.0,,,,,44,note_on,,0.0,59.0,0.0,12812,33.36458333333333
4011,0.0,,,,55.0,,,,,0,note_on,,0.0,55.0,0.0,12812,33.36458333333333
4012,0.0,,,,62.0,,,,,0,note_on,,0.0,62.0,0.0,12812,33.36458333333333
4013,0.0,,,,59.0,,,,,52,note_on,,100.0,59.0,100.0,12864,33.5
4014,0.0,,,,55.0,,,,,0,note_on,,100.0,55.0,100.0,12864,33.5
4015,0.0,,,,62.0,,,,,0,note_on,,100.0,62.0,100.0,12864,33.5
4016,0.0,,,,59.0,,,,,44,note_on,,0.0,59.0,0.0,12908,33.61458333333333
4017,0.0,,,,62.0,,,,,0,note_on,,0.0,62.0,0.0,12908,33.61458333333333
4018,0.0,,,,55.0,,,,,0,note_on,,0.0,55.0,0.0,12908,33.61458333333333
4019,0.0,,,,62.0,,,,,52,note_on,,100.0,62.0,100.0,12960,33.75
4020,0.0,,,,55.0,,,,,0,note_on,,100.0,55.0,100.0,12960,33.75
4021,0.0,,,,59.0,,,,,0,note_on,,100.0,59.0,100.0,12960,33.75
4022,0.0,,,,59.0,,,,,44,note_on,,0.0,59.0,0.0,13004,33.86458333333333
4023,0.0,,,,55.0,,,,,0,note_on,,0.0,55.0,0.0,13004,33.86458333333333
4024,0.0,,,,62.0,,,,,0,note_on,,0.0,62.0,0.0,13004,33.86458333333333
4025,0.0,,,,62.0,,,,,52,note_on,,100.0,62.0,100.0,13056,34.0
4026,0.0,,,,55.0,,,,,0,note_on,,100.0,55.0,100.0,13056,34.0
4027,0.0,,,,59.0,,,,,0,note_on,,100.0,59.0,100.0,13056,34.0
4028,0.0,,,,59.0,,,,,44,note_on,,0.0,59.0,0.0,13100,34.11458333333333
4029,0.0,,,,55.0,,,,,0,note_on,,0.0,55.0,0.0,13100,34.11458333333333
4030,0.0,,,,62.0,,,,,0,note_on,,0.0,62.0,0.0,13100,34.11458333333333
4031,0.0,,,,59.0,,,,,52,note_on,,100.0,59.0,100.0,13152,34.25
4032,0.0,,,,62.0,,,,,0,note_on,,100.0,62.0,100.0,13152,34.25
4033,0.0,,,,55.0,,,,,0,note_on,,100.0,55.0,100.0,13152,34.25
4034,0.0,,,,62.0,,,,,44,note_on,,0.0,62.0,0.0,13196,34.36458333333333
4035,0.0,,,,55.0,,,,,0,note_on,,0.0,55.0,0.0,13196,34.36458333333333
4036,0.0,,,,59.0,,,,,0,note_on,,0.0,59.0,0.0,13196,34.36458333333333
4037,0.0,,,,59.0,,,,,52,note_on,,100.0,59.0,100.0,13248,34.5
4038,0.0,,,,62.0,,,,,0,note_on,,100.0,62.0,100.0,13248,34.5
4039,0.0,,,,55.0,,,,,0,note_on,,100.0,55.0,100.0,13248,34.5
4040,0.0,,,,62.0,,,,,44,note_on,,0.0,62.0,0.0,13292,34.61458333333333
4041,0.0,,,,55.0,,,,,0,note_on,,0.0,55.0,0.0,13292,34.61458333333333
4042,0.0,,,,59.0,,,,,0,note_on,,0.0,59.0,0.0,13292,34.61458333333333
4043,0.0,,,,62.0,,,,,52,note_on,,100.0,62.0,100.0,13344,34.75
4044,0.0,,,,59.0,,,,,0,note_on,,100.0,59.0,100.0,13344,34.75
4045,0.0,,,,55.0,,,,,0,note_on,,100.0,55.0,100.0,13344,34.75
4046,0.0,,,,62.0,,,,,44,note_on,,0.0,62.0,0.0,13388,34.86458333333333
4047,0.0,,,,55.0,,,,,0,note_on,,0.0,55.0,0.0,13388,34.86458333333333
4048,0.0,,,,59.0,,,,,0,note_on,,0.0,59.0,0.0,13388,34.86458333333333
4049,0.0,,,,55.0,,,,,52,note_on,,100.0,55.0,100.0,13440,35.0
4050,0.0,,,,62.0,,,,,0,note_on,,100.0,62.0,100.0,13440,35.0
4051,0.0,,,,59.0,,,,,0,note_on,,100.0,59.0,100.0,13440,35.0
4052,0.0,,,,59.0,,,,,44,note_on,,0.0,59.0,0.0,13484,35.11458333333333
4053,0.0,,,,62.0,,,,,0,note_on,,0.0,62.0,0.0,13484,35.11458333333333
4054,0.0,,,,55.0,,,,,0,note_on,,0.0,55.0,0.0,13484,35.11458333333333
4055,0.0,,,,59.0,,,,,52,note_on,,100.0,59.0,100.0,13536,35.25
4056,0.0,,,,55.0,,,,,0,note_on,,100.0,55.0,100.0,13536,35.25
4057,0.0,,,,62.0,,,,,0,note_on,,100.0,62.0,100.0,13536,35.25
4058,0.0,,,,55.0,,,,,44,note_on,,0.0,55.0,0.0,13580,35.36458333333333
4059,0.0,,,,59.0,,,,,0,note_on,,0.0,59.0,0.0,13580,35.36458333333333
4060,0.0,,,,62.0,,,,,0,note_on,,0.0,62.0,0.0,13580,35.36458333333333
4061,0.0,,,,55.0,,,,,52,note_on,,100.0,55.0,100.0,13632,35.5
4062,0.0,,,,62.0,,,,,0,note_on,,100.0,62.0,100.0,13632,35.5
4063,0.0,,,,59.0,,,,,0,note_on,,100.0,59.0,100.0,13632,35.5
4064,0.0,,,,55.0,,,,,44,note_on,,0.0,55.0,0.0,13676,35.61458333333333
4065,0.0,,,,59.0,,,,,0,note_on,,0.0,59.0,0.0,13676,35.61458333333333
4066,0.0,,,,62.0,,,,,0,note_on,,0.0,62.0,0.0,13676,35.61458333333333
4067,0.0,,,,62.0,,,,,52,note_on,,100.0,62.0,100.0,13728,35.75
4068,0.0,,,,55.0,,,,,0,note_on,,100.0,55.0,100.0,13728,35.75
4069,0.0,,,,59.0,,,,,0,note_on,,100.0,59.0,100.0,13728,35.75
4070,0.0,,,,55.0,,,,,44,note_on,,0.0,55.0,0.0,13772,35.86458333333333
4071,0.0,,,,62.0,,,,,0,note_on,,0.0,62.0,0.0,13772,35.86458333333333
4072,0.0,,,,59.0,,,,,0,note_on,,0.0,59.0,0.0,13772,35.86458333333333
4073,0.0,,,,53.0,,,,,52,note_on,,100.0,53.0,100.0,13824,36.0
4074,0.0,,,,60.0,,,,,0,note_on,,100.0,60.0,100.0,13824,36.0
4075,0.0,,,,57.0,,,,,0,note_on,,100.0,57.0,100.0,13824,36.0
4076,0.0,,,,60.0,,,,,44,note_on,,0.0,60.0,0.0,13868,36.11458333333333
4077,0.0,,,,53.0,,,,,0,note_on,,0.0,53.0,0.0,13868,36.11458333333333
4078,0.0,,,,57.0,,,,,0,note_on,,0.0,57.0,0.0,13868,36.11458333333333
4079,0.0,,,,60.0,,,,,52,note_on,,100.0,60.0,100.0,13920,36.25
4080,0.0,,,,53.0,,,,,0,note_on,,100.0,53.0,100.0,13920,36.25
4081,0.0,,,,57.0,,,,,0,note_on,,100.0,57.0,100.0,13920,36.25
4082,0.0,,,,60.0,,,,,44,note_on,,0.0,60.0,0.0,13964,36.36458333333333
4083,0.0,,,,57.0,,,,,0,note_on,,0.0,57.0,0.0,13964,36.36458333333333
4084,0.0,,,,53.0,,,,,0,note_on,,0.0,53.0,0.0,13964,36.36458333333333
4085,0.0,,,,53.0,,,,,52,note_on,,100.0,53.0,100.0,14016,36.5
4086,0.0,,,,57.0,,,,,0,note_on,,100.0,57.0,100.0,14016,36.5
4087,0.0,,,,60.0,,,,,0,note_on,,100.0,60.0,100.0,14016,36.5
4088,0.0,,,,60.0,,,,,44,note_on,,0.0,60.0,0.0,14060,36.61458333333333
4089,0.0,,,,57.0,,,,,0,note_on,,0.0,57.0,0.0,14060,36.61458333333333
4090,0.0,,,,53.0,,,,,0,note_on,,0.0,53.0,0.0,14060,36.61458333333333
4091,0.0,,,,60.0,,,,,52,note_on,,100.0,60.0,100.0,14112,36.75
4092,0.0,,,,57.0,,,,,0,note_on,,100.0,57.0,100.0,14112,36.75
4093,0.0,,,,53.0,,,,,0,note_on,,100.0,53.0,100.0,14112,36.75
4094,0.0,,,,60.0,,,,,44,note_on,,0.0,60.0,0.0,14156,36.86458333333333
4095,0.0,,,,57.0,,,,,0,note_on,,0.0,57.0,0.0,14156,36.86458333333333
4096,0.0,,,,53.0,,,,,0,note_on,,0.0,53.0,0.0,14156,36.86458333333333
4097,0.0,,,,60.0,,,,,52,note_on,,100.0,60.0,100.0,14208,37.0
4098,0.0,,,,57.0,,,,,0,note_on,,100.0,57.0,100.0,14208,37.0
4099,0.0,,,,53.0,,,,,0,note_on,,100.0,53.0,100.0,14208,37.0
4100,0.0,,,,53.0,,,,,44,note_on,,0.0,53.0,0.0,14252,37.11458333333333
4101,0.0,,,,60.0,,,,,0,note_on,,0.0,60.0,0.0,14252,37.11458333333333
4102,0.0,,,,57.0,,,,,0,note_on,,0.0,57.0,0.0,14252,37.11458333333333
4103,0.0,,,,60.0,,,,,52,note_on,,100.0,60.0,100.0,14304,37.25
4104,0.0,,,,53.0,,,,,0,note_on,,100.0,53.0,100.0,14304,37.25
4105,0.0,,,,57.0,,,,,0,note_on,,100.0,57.0,100.0,14304,37.25
4106,0.0,,,,57.0,,,,,44,note_on,,0.0,57.0,0.0,14348,37.36458333333333
4107,0.0,,,,60.0,,,,,0,note_on,,0.0,60.0,0.0,14348,37.36458333333333
4108,0.0,,,,53.0,,,,,0,note_on,,0.0,53.0,0.0,14348,37.36458333333333
4109,0.0,,,,60.0,,,,,52,note_on,,100.0,60.0,100.0,14400,37.5
4110,0.0,,,,57.0,,,,,0,note_on,,100.0,57.0,100.0,14400,37.5
4111,0.0,,,,53.0,,,,,0,note_on,,100.0,53.0,100.0,14400,37.5
4112,0.0,,,,53.0,,,,,44,note_on,,0.0,53.0,0.0,14444,37.61458333333333
4113,0.0,,,,60.0,,,,,0,note_on,,0.0,60.0,0.0,14444,37.61458333333333
4114,0.0,,,,57.0,,,,,0,note_on,,0.0,57.0,0.0,14444,37.61458333333333
4115,0.0,,,,48.0,,,,,52,note_on,,100.0,48.0,100.0,14496,37.75
4116,0.0,,,,48.0,,,,,44,note_on,,0.0,48.0,0.0,14540,37.86458333333333
4117,0.0,,,,64.0,,,,,52,note_on,,100.0,64.0,100.0,14592,38.0
4118,0.0,,,,60.0,,,,,0,note_on,,100.0,60.0,100.0,14592,38.0
4119,0.0,,,,55.0,,,,,0,note_on,,100.0,55.0,100.0,14592,38.0
4120,0.0,,,,55.0,,,,,44,note_on,,0.0,55.0,0.0,14636,38.11458333333333
4121,0.0,,,,60.0,,,,,0,note_on,,0.0,60.0,0.0,14636,38.11458333333333
4122,0.0,,,,64.0,,,,,0,note_on,,0.0,64.0,0.0,14636,38.11458333333333
4123,0.0,,,,64.0,,,,,52,note_on,,100.0,64.0,100.0,14688,38.25
4124,0.0,,,,60.0,,,,,0,note_on,,100.0,60.0,100.0,14688,38.25
4125,0.0,,,,55.0,,,,,0,note_on,,100.0,55.0,100.0,14688,38.25
4126,0.0,,,,64.0,,,,,44,note_on,,0.0,64.0,0.0,14732,38.36458333333333
4127,0.0,,,,60.0,,,,,0,note_on,,0.0,60.0,0.0,14732,38.36458333333333
4128,0.0,,,,55.0,,,,,0,note_on,,0.0,55.0,0.0,14732,38.36458333333333
4129,0.0,,,,64.0,,,,,52,note_on,,100.0,64.0,100.0,14784,38.5
4130,0.0,,,,60.0,,,,,0,note_on,,100.0,60.0,100.0,14784,38.5
4131,0.0,,,,55.0,,,,,0,note_on,,100.0,55.0,100.0,14784,38.5
4132,0.0,,,,60.0,,,,,44,note_on,,0.0,60.0,0.0,14828,38.61458333333333
4133,0.0,,,,55.0,,,,,0,note_on,,0.0,55.0,0.0,14828,38.61458333333333
4134,0.0,,,,64.0,,,,,0,note_on,,0.0,64.0,0.0,14828,38.61458333333333
4135,0.0,,,,64.0,,,,,52,note_on,,100.0,64.0,100.0,14880,38.75
4136,0.0,,,,60.0,,,,,0,note_on,,100.0,60.0,100.0,14880,38.75
4137,0.0,,,,55.0,,,,,0,note_on,,100.0,55.0,100.0,14880,38.75
4138,0.0,,,,64.0,,,,,44,note_on,,0.0,64.0,0.0,14924,38.86458333333333
4139,0.0,,,,60.0,,,,,0,note_on,,0.0,60.0,0.0,14924,38.86458333333333
4140,0.0,,,,55.0,,,,,0,note_on,,0.0,55.0,0.0,14924,38.86458333333333
4141,0.0,,,,60.0,,,,,52,note_on,,100.0,60.0,100.0,14976,39.0
4142,0.0,,,,64.0,,,,,0,note_on,,100.0,64.0,100.0,14976,39.0
4143,0.0,,,,55.0,,,,,0,note_on,,100.0,55.0,100.0,14976,39.0
4144,0.0,,,,64.0,,,,,44,note_on,,0.0,64.0,0.0,15020,39.11458333333333
4145,0.0,,,,60.0,,,,,0,note_on,,0.0,60.0,0.0,15020,39.11458333333333
4146,0.0,,,,55.0,,,,,0,note_on,,0.0,55.0,0.0,15020,39.11458333333333
4147,0.0,,,,64.0,,,,,52,note_on,,100.0,64.0,100.0,15072,39.25
4148,0.0,,,,55.0,,,,,0,note_on,,100.0,55.0,100.0,15072,39.25
4149,0.0,,,,60.0,,,,,0,note_on,,100.0,60.0,100.0,15072,39.25
4150,0.0,,,,55.0,,,,,44,note_on,,0.0,55.0,0.0,15116,39.36458333333333
4151,0.0,,,,60.0,,,,,0,note_on,,0.0,60.0,0.0,15116,39.36458333333333
4152,0.0,,,,64.0,,,,,0,note_on,,0.0,64.0,0.0,15116,39.36458333333333
4153,0.0,,,,60.0,,,,,52,note_on,,100.0,60.0,100.0,15168,39.5
4154,0.0,,,,55.0,,,,,0,note_on,,100.0,55.0,100.0,15168,39.5
4155,0.0,,,,64.0,,,,,0,note_on,,100.0,64.0,100.0,15168,39.5
4156,0.0,,,,55.0,,,,,44,note_on,,0.0,55.0,0.0,15212,39.61458333333333
4157,0.0,,,,60.0,,,,,0,note_on,,0.0,60.0,0.0,15212,39.61458333333333
4158,0.0,,,,64.0,,,,,0,note_on,,0.0,64.0,0.0,15212,39.61458333333333
4159,0.0,,,,60.0,,,,,52,note_on,,100.0,60.0,100.0,15264,39.75
4160,0.0,,,,64.0,,,,,0,note_on,,100.0,64.0,100.0,15264,39.75
4161,0.0,,,,55.0,,,,,0,note_on,,100.0,55.0,100.0,15264,39.75
4162,0.0,,,,60.0,,,,,44,note_on,,0.0,60.0,0.0,15308,39.86458333333333
4163,0.0,,,,55.0,,,,,0,note_on,,0.0,55.0,0.0,15308,39.86458333333333
4164,0.0,,,,64.0,,,,,0,note_on,,0.0,64.0,0.0,15308,39.86458333333333
4165,0.0,,,,59.0,,,,,52,note_on,,100.0,59.0,100.0,15360,40.0
4166,0.0,,,,62.0,,,,,0,note_on,,100.0,62.0,100.0,15360,40.0
4167,0.0,,,,55.0,,,,,0,note_on,,100.0,55.0,100.0,15360,40.0
4168,0.0,,,,62.0,,,,,44,note_on,,0.0,62.0,0.0,15404,40.11458333333333
4169,0.0,,,,59.0,,,,,0,note_on,,0.0,59.0,0.0,15404,40.11458333333333
4170,0.0,,,,55.0,,,,,0,note_on,,0.0,55.0,0.0,15404,40.11458333333333
4171,0.0,,,,59.0,,,,,52,note_on,,100.0,59.0,100.0,15456,40.25
4172,0.0,,,,62.0,,,,,0,note_on,,100.0,62.0,100.0,15456,40.25
4173,0.0,,,,55.0,,,,,0,note_on,,100.0,55.0,100.0,15456,40.25
4174,0.0,,,,55.0,,,,,44,note_on,,0.0,55.0,0.0,15500,40.36458333333333
4175,0.0,,,,59.0,,,,,0,note_on,,0.0,59.0,0.0,15500,40.36458333333333
4176,0.0,,,,62.0,,,,,0,note_on,,0.0,62.0,0.0,15500,40.36458333333333
4177,0.0,,,,59.0,,,,,52,note_on,,100.0,59.0,100.0,15552,40.5
4178,0.0,,,,62.0,,,,,0,note_on,,100.0,62.0,100.0,15552,40.5
4179,0.0,,,,55.0,,,,,0,note_on,,100.0,55.0,100.0,15552,40.5
4180,0.0,,,,55.0,,,,,44,note_on,,0.0,55.0,0.0,15596,40.61458333333333
4181,0.0,,,,62.0,,,,,0,note_on,,0.0,62.0,0.0,15596,40.61458333333333
4182,0.0,,,,59.0,,,,,0,note_on,,0.0,59.0,0.0,15596,40.61458333333333
4183,0.0,,,,62.0,,,,,52,note_on,,100.0,62.0,100.0,15648,40.75
4184,0.0,,,,55.0,,,,,0,note_on,,100.0,55.0,100.0,15648,40.75
4185,0.0,,,,59.0,,,,,0,note_on,,100.0,59.0,100.0,15648,40.75
4186,0.0,,,,55.0,,,,,44,note_on,,0.0,55.0,0.0,15692,40.86458333333333
4187,0.0,,,,62.0,,,,,0,note_on,,0.0,62.0,0.0,15692,40.86458333333333
4188,0.0,,,,59.0,,,,,0,note_on,,0.0,59.0,0.0,15692,40.86458333333333
4189,0.0,,,,62.0,,,,,52,note_on,,100.0,62.0,100.0,15744,41.0
4190,0.0,,,,55.0,,,,,0,note_on,,100.0,55.0,100.0,15744,41.0
4191,0.0,,,,59.0,,,,,0,note_on,,100.0,59.0,100.0,15744,41.0
4192,0.0,,,,59.0,,,,,44,note_on,,0.0,59.0,0.0,15788,41.11458333333333
4193,0.0,,,,55.0,,,,,0,note_on,,0.0,55.0,0.0,15788,41.11458333333333
4194,0.0,,,,62.0,,,,,0,note_on,,0.0,62.0,0.0,15788,41.11458333333333
4195,0.0,,,,55.0,,,,,52,note_on,,100.0,55.0,100.0,15840,41.25
4196,0.0,,,,62.0,,,,,0,note_on,,100.0,62.0,100.0,15840,41.25
4197,0.0,,,,59.0,,,,,0,note_on,,100.0,59.0,100.0,15840,41.25
4198,0.0,,,,62.0,,,,,44,note_on,,0.0,62.0,0.0,15884,41.36458333333333
4199,0.0,,,,55.0,,,,,0,note_on,,0.0,55.0,0.0,15884,41.36458333333333
4200,0.0,,,,59.0,,,,,0,note_on,,0.0,59.0,0.0,15884,41.36458333333333
4201,0.0,,,,59.0,,,,,52,note_on,,100.0,59.0,100.0,15936,41.5
4202,0.0,,,,55.0,,,,,0,note_on,,100.0,55.0,100.0,15936,41.5
4203,0.0,,,,62.0,,,,,0,note_on,,100.0,62.0,100.0,15936,41.5
4204,0.0,,,,59.0,,,,,44,note_on,,0.0,59.0,0.0,15980,41.61458333333333
4205,0.0,,,,62.0,,,,,0,note_on,,0.0,62.0,0.0,15980,41.61458333333333
4206,0.0,,,,55.0,,,,,0,note_on,,0.0,55.0,0.0,15980,41.61458333333333
4207,0.0,,,,59.0,,,,,52,note_on,,100.0,59.0,100.0,16032,41.75
4208,0.0,,,,62.0,,,,,0,note_on,,100.0,62.0,100.0,16032,41.75
4209,0.0,,,,55.0,,,,,0,note_on,,100.0,55.0,100.0,16032,41.75
4210,0.0,,,,59.0,,,,,44,note_on,,0.0,59.0,0.0,16076,41.86458333333333
4211,0.0,,,,55.0,,,,,0,note_on,,0.0,55.0,0.0,16076,41.86458333333333
4212,0.0,,,,62.0,,,,,0,note_on,,0.0,62.0,0.0,16076,41.86458333333333
4213,0.0,,,,55.0,,,,,52,note_on,,100.0,55.0,100.0,16128,42.0
4214,0.0,,,,62.0,,,,,0,note_on,,100.0,62.0,100.0,16128,42.0
4215,0.0,,,,59.0,,,,,0,note_on,,100.0,59.0,100.0,16128,42.0
4216,0.0,,,,62.0,,,,,44,note_on,,0.0,62.0,0.0,16172,42.11458333333333
4217,0.0,,,,55.0,,,,,0,note_on,,0.0,55.0,0.0,16172,42.11458333333333
4218,0.0,,,,59.0,,,,,0,note_on,,0.0,59.0,0.0,16172,42.11458333333333
4219,0.0,,,,59.0,,,,,52,note_on,,100.0,59.0,100.0,16224,42.25
4220,0.0,,,,62.0,,,,,0,note_on,,100.0,62.0,100.0,16224,42.25
4221,0.0,,,,55.0,,,,,0,note_on,,100.0,55.0,100.0,16224,42.25
4222,0.0,,,,62.0,,,,,44,note_on,,0.0,62.0,0.0,16268,42.36458333333333
4223,0.0,,,,59.0,,,,,0,note_on,,0.0,59.0,0.0,16268,42.36458333333333
4224,0.0,,,,55.0,,,,,0,note_on,,0.0,55.0,0.0,16268,42.36458333333333
4225,0.0,,,,62.0,,,,,52,note_on,,100.0,62.0,100.0,16320,42.5
4226,0.0,,,,55.0,,,,,0,note_on,,100.0,55.0,100.0,16320,42.5
4227,0.0,,,,59.0,,,,,0,note_on,,100.0,59.0,100.0,16320,42.5
4228,0.0,,,,62.0,,,,,44,note_on,,0.0,62.0,0.0,16364,42.61458333333333
4229,0.0,,,,59.0,,,,,0,note_on,,0.0,59.0,0.0,16364,42.61458333333333
4230,0.0,,,,55.0,,,,,0,note_on,,0.0,55.0,0.0,16364,42.61458333333333
4231,0.0,,,,55.0,,,,,52,note_on,,100.0,55.0,100.0,16416,42.75
4232,0.0,,,,62.0,,,,,0,note_on,,100.0,62.0,100.0,16416,42.75
4233,0.0,,,,59.0,,,,,0,note_on,,100.0,59.0,100.0,16416,42.75
4234,0.0,,,,62.0,,,,,44,note_on,,0.0,62.0,0.0,16460,42.86458333333333
4235,0.0,,,,55.0,,,,,0,note_on,,0.0,55.0,0.0,16460,42.86458333333333
4236,0.0,,,,59.0,,,,,0,note_on,,0.0,59.0,0.0,16460,42.86458333333333
4237,0.0,,,,59.0,,,,,52,note_on,,100.0,59.0,100.0,16512,43.0
4238,0.0,,,,55.0,,,,,0,note_on,,100.0,55.0,100.0,16512,43.0
4239,0.0,,,,62.0,,,,,0,note_on,,100.0,62.0,100.0,16512,43.0
4240,0.0,,,,59.0,,,,,44,note_on,,0.0,59.0,0.0,16556,43.11458333333333
4241,0.0,,,,55.0,,,,,0,note_on,,0.0,55.0,0.0,16556,43.11458333333333
4242,0.0,,,,62.0,,,,,0,note_on,,0.0,62.0,0.0,16556,43.11458333333333
4243,0.0,,,,59.0,,,,,52,note_on,,100.0,59.0,100.0,16608,43.25
4244,0.0,,,,55.0,,,,,0,note_on,,100.0,55.0,100.0,16608,43.25
4245,0.0,,,,62.0,,,,,0,note_on,,100.0,62.0,100.0,16608,43.25
4246,0.0,,,,55.0,,,,,44,note_on,,0.0,55.0,0.0,16652,43.36458333333333
4247,0.0,,,,59.0,,,,,0,note_on,,0.0,59.0,0.0,16652,43.36458333333333
4248,0.0,,,,62.0,,,,,0,note_on,,0.0,62.0,0.0,16652,43.36458333333333
4249,0.0,,,,62.0,,,,,52,note_on,,100.0,62.0,100.0,16704,43.5
4250,0.0,,,,59.0,,,,,0,note_on,,100.0,59.0,100.0,16704,43.5
4251,0.0,,,,55.0,,,,,0,note_on,,100.0,55.0,100.0,16704,43.5
4252,0.0,,,,62.0,,,,,44,note_on,,0.0,62.0,0.0,16748,43.61458333333333
4253,0.0,,,,55.0,,,,,0,note_on,,0.0,55.0,0.0,16748,43.61458333333333
4254,0.0,,,,59.0,,,,,0,note_on,,0.0,59.0,0.0,16748,43.61458333333333
4255,0.0,,,,59.0,,,,,52,note_on,,100.0,59.0,100.0,16800,43.75
4256,0.0,,,,62.0,,,,,0,note_on,,100.0,62.0,100.0,16800,43.75
4257,0.0,,,,55.0,,,,,0,note_on,,100.0,55.0,100.0,16800,43.75
4258,0.0,,,,62.0,,,,,44,note_on,,0.0,62.0,0.0,16844,43.86458333333333
4259,0.0,,,,59.0,,,,,0,note_on,,0.0,59.0,0.0,16844,43.86458333333333
4260,0.0,,,,55.0,,,,,0,note_on,,0.0,55.0,0.0,16844,43.86458333333333
4261,0.0,,,,53.0,,,,,52,note_on,,100.0,53.0,100.0,16896,44.0
4262,0.0,,,,57.0,,,,,0,note_on,,100.0,57.0,100.0,16896,44.0
4263,0.0,,,,60.0,,,,,0,note_on,,100.0,60.0,100.0,16896,44.0
4264,0.0,,,,57.0,,,,,44,note_on,,0.0,57.0,0.0,16940,44.11458333333333
4265,0.0,,,,53.0,,,,,0,note_on,,0.0,53.0,0.0,16940,44.11458333333333
4266,0.0,,,,60.0,,,,,0,note_on,,0.0,60.0,0.0,16940,44.11458333333333
4267,0.0,,,,60.0,,,,,52,note_on,,100.0,60.0,100.0,16992,44.25
4268,0.0,,,,57.0,,,,,0,note_on,,100.0,57.0,100.0,16992,44.25
4269,0.0,,,,53.0,,,,,0,note_on,,100.0,53.0,100.0,16992,44.25
4270,0.0,,,,53.0,,,,,44,note_on,,0.0,53.0,0.0,17036,44.36458333333333
4271,0.0,,,,60.0,,,,,0,note_on,,0.0,60.0,0.0,17036,44.36458333333333
4272,0.0,,,,57.0,,,,,0,note_on,,0.0,57.0,0.0,17036,44.36458333333333
4273,0.0,,,,53.0,,,,,52,note_on,,100.0,53.0,100.0,17088,44.5
4274,0.0,,,,57.0,,,,,0,note_on,,100.0,57.0,100.0,17088,44.5
4275,0.0,,,,60.0,,,,,0,note_on,,100.0,60.0,100.0,17088,44.5
4276,0.0,,,,53.0,,,,,44,note_on,,0.0,53.0,0.0,17132,44.61458333333333
4277,0.0,,,,60.0,,,,,0,note_on,,0.0,60.0,0.0,17132,44.61458333333333
4278,0.0,,,,57.0,,,,,0,note_on,,0.0,57.0,0.0,17132,44.61458333333333
4279,0.0,,,,53.0,,,,,52,note_on,,100.0,53.0,100.0,17184,44.75
4280,0.0,,,,57.0,,,,,0,note_on,,100.0,57.0,100.0,17184,44.75
4281,0.0,,,,60.0,,,,,0,note_on,,100.0,60.0,100.0,17184,44.75
4282,0.0,,,,57.0,,,,,44,note_on,,0.0,57.0,0.0,17228,44.86458333333333
4283,0.0,,,,53.0,,,,,0,note_on,,0.0,53.0,0.0,17228,44.86458333333333
4284,0.0,,,,60.0,,,,,0,note_on,,0.0,60.0,0.0,17228,44.86458333333333
4285,0.0,,,,60.0,,,,,52,note_on,,100.0,60.0,100.0,17280,45.0
4286,0.0,,,,53.0,,,,,0,note_on,,100.0,53.0,100.0,17280,45.0
4287,0.0,,,,57.0,,,,,0,note_on,,100.0,57.0,100.0,17280,45.0
4288,0.0,,,,60.0,,,,,44,note_on,,0.0,60.0,0.0,17324,45.11458333333333
4289,0.0,,,,53.0,,,,,0,note_on,,0.0,53.0,0.0,17324,45.11458333333333
4290,0.0,,,,57.0,,,,,0,note_on,,0.0,57.0,0.0,17324,45.11458333333333
4291,0.0,,,,60.0,,,,,52,note_on,,100.0,60.0,100.0,17376,45.25
4292,0.0,,,,57.0,,,,,0,note_on,,100.0,57.0,100.0,17376,45.25
4293,0.0,,,,53.0,,,,,0,note_on,,100.0,53.0,100.0,17376,45.25
4294,0.0,,,,53.0,,,,,44,note_on,,0.0,53.0,0.0,17420,45.36458333333333
4295,0.0,,,,60.0,,,,,0,note_on,,0.0,60.0,0.0,17420,45.36458333333333
4296,0.0,,,,57.0,,,,,0,note_on,,0.0,57.0,0.0,17420,45.36458333333333
4297,0.0,,,,60.0,,,,,52,note_on,,100.0,60.0,100.0,17472,45.5
4298,0.0,,,,57.0,,,,,0,note_on,,100.0,57.0,100.0,17472,45.5
4299,0.0,,,,53.0,,,,,0,note_on,,100.0,53.0,100.0,17472,45.5
4300,0.0,,,,57.0,,,,,44,note_on,,0.0,57.0,0.0,17516,45.61458333333333
4301,0.0,,,,53.0,,,,,0,note_on,,0.0,53.0,0.0,17516,45.61458333333333
4302,0.0,,,,60.0,,,,,0,note_on,,0.0,60.0,0.0,17516,45.61458333333333
4303,0.0,,,,48.0,,,,,52,note_on,,100.0,48.0,100.0,17568,45.75
4304,0.0,,,,48.0,,,,,44,note_on,,0.0,48.0,0.0,17612,45.86458333333333
4305,0.0,,,,64.0,,,,,52,note_on,,100.0,64.0,100.0,17664,46.0
4306,0.0,,,,60.0,,,,,0,note_on,,100.0,60.0,100.0,17664,46.0
4307,0.0,,,,55.0,,,,,0,note_on,,100.0,55.0,100.0,17664,46.0
4308,0.0,,,,64.0,,,,,44,note_on,,0.0,64.0,0.0,17708,46.11458333333333
4309,0.0,,,,55.0,,,,,0,note_on,,0.0,55.0,0.0,17708,46.11458333333333
4310,0.0,,,,60.0,,,,,0,note_on,,0.0,60.0,0.0,17708,46.11458333333333
4311,0.0,,,,55.0,,,,,52,note_on,,100.0,55.0,100.0,17760,46.25
4312,0.0,,,,64.0,,,,,0,note_on,,100.0,64.0,100.0,17760,46.25
4313,0.0,,,,60.0,,,,,0,note_on,,100.0,60.0,100.0,17760,46.25
4314,0.0,,,,60.0,,,,,44,note_on,,0.0,60.0,0.0,17804,46.36458333333333
4315,0.0,,,,64.0,,,,,0,note_on,,0.0,64.0,0.0,17804,46.36458333333333
4316,0.0,,,,55.0,,,,,0,note_on,,0.0,55.0,0.0,17804,46.36458333333333
4317,0.0,,,,60.0,,,,,52,note_on,,100.0,60.0,100.0,17856,46.5
4318,0.0,,,,55.0,,,,,0,note_on,,100.0,55.0,100.0,17856,46.5
4319,0.0,,,,64.0,,,,,0,note_on,,100.0,64.0,100.0,17856,46.5
4320,0.0,,,,64.0,,,,,44,note_on,,0.0,64.0,0.0,17900,46.61458333333333
4321,0.0,,,,55.0,,,,,0,note_on,,0.0,55.0,0.0,17900,46.61458333333333
4322,0.0,,,,60.0,,,,,0,note_on,,0.0,60.0,0.0,17900,46.61458333333333
4323,0.0,,,,55.0,,,,,52,note_on,,100.0,55.0,100.0,17952,46.75
4324,0.0,,,,60.0,,,,,0,note_on,,100.0,60.0,100.0,17952,46.75
4325,0.0,,,,64.0,,,,,0,note_on,,100.0,64.0,100.0,17952,46.75
4326,0.0,,,,64.0,,,,,44,note_on,,0.0,64.0,0.0,17996,46.86458333333333
4327,0.0,,,,60.0,,,,,0,note_on,,0.0,60.0,0.0,17996,46.86458333333333
4328,0.0,,,,55.0,,,,,0,note_on,,0.0,55.0,0.0,17996,46.86458333333333
4329,0.0,,,,64.0,,,,,52,note_on,,100.0,64.0,100.0,18048,47.0
4330,0.0,,,,60.0,,,,,0,note_on,,100.0,60.0,100.0,18048,47.0
4331,0.0,,,,55.0,,,,,0,note_on,,100.0,55.0,100.0,18048,47.0
4332,0.0,,,,64.0,,,,,44,note_on,,0.0,64.0,0.0,18092,47.11458333333333
4333,0.0,,,,55.0,,,,,0,note_on,,0.0,55.0,0.0,18092,47.11458333333333
4334,0.0,,,,60.0,,,,,0,note_on,,0.0,60.0,0.0,18092,47.11458333333333
4335,0.0,,,,64.0,,,,,52,note_on,,100.0,64.0,100.0,18144,47.25
4336,0.0,,,,60.0,,,,,0,note_on,,100.0,60.0,100.0,18144,47.25
4337,0.0,,,,55.0,,,,,0,note_on,,100.0,55.0,100.0,18144,47.25
4338,0.0,,,,60.0,,,,,44,note_on,,0.0,60.0,0.0,18188,47.36458333333333
4339,0.0,,,,64.0,,,,,0,note_on,,0.0,64.0,0.0,18188,47.36458333333333
4340,0.0,,,,55.0,,,,,0,note_on,,0.0,55.0,0.0,18188,47.36458333333333
4341,0.0,,,,64.0,,,,,52,note_on,,100.0,64.0,100.0,18240,47.5
4342,0.0,,,,55.0,,,,,0,note_on,,100.0,55.0,100.0,18240,47.5
4343,0.0,,,,60.0,,,,,0,note_on,,100.0,60.0,100.0,18240,47.5
4344,0.0,,,,60.0,,,,,44,note_on,,0.0,60.0,0.0,18284,47.61458333333333
4345,0.0,,,,55.0,,,,,0,note_on,,0.0,55.0,0.0,18284,47.61458333333333
4346,0.0,,,,64.0,,,,,0,note_on,,0.0,64.0,0.0,18284,47.61458333333333
4347,0.0,,,,55.0,,,,,52,note_on,,100.0,55.0,100.0,18336,47.75
4348,0.0,,,,60.0,,,,,0,note_on,,100.0,60.0,100.0,18336,47.75
4349,0.0,,,,64.0,,,,,0,note_on,,100.0,64.0,100.0,18336,47.75
4350,0.0,,,,64.0,,,,,44,note_on,,0.0,64.0,0.0,18380,47.86458333333333
4351,0.0,,,,60.0,,,,,0,note_on,,0.0,60.0,0.0,18380,47.86458333333333
4352,0.0,,,,55.0,,,,,0,note_on,,0.0,55.0,0.0,18380,47.86458333333333
4353,0.0,,,,62.0,,,,,52,note_on,,100.0,62.0,100.0,18432,48.0
4354,0.0,,,,55.0,,,,,0,note_on,,100.0,55.0,100.0,18432,48.0
4355,0.0,,,,59.0,,,,,0,note_on,,100.0,59.0,100.0,18432,48.0
4356,0.0,,,,62.0,,,,,44,note_on,,0.0,62.0,0.0,18476,48.11458333333333
4357,0.0,,,,59.0,,,,,0,note_on,,0.0,59.0,0.0,18476,48.11458333333333
4358,0.0,,,,55.0,,,,,0,note_on,,0.0,55.0,0.0,18476,48.11458333333333
4359,0.0,,,,55.0,,,,,52,note_on,,100.0,55.0,100.0,18528,48.25
4360,0.0,,,,62.0,,,,,0,note_on,,100.0,62.0,100.0,18528,48.25
4361,0.0,,,,59.0,,,,,0,note_on,,100.0,59.0,100.0,18528,48.25
4362,0.0,,,,59.0,,,,,44,note_on,,0.0,59.0,0.0,18572,48.36458333333333
4363,0.0,,,,62.0,,,,,0,note_on,,0.0,62.0,0.0,18572,48.36458333333333
4364,0.0,,,,55.0,,,,,0,note_on,,0.0,55.0,0.0,18572,48.36458333333333
4365,0.0,,,,59.0,,,,,52,note_on,,100.0,59.0,100.0,18624,48.5
4366,0.0,,,,55.0,,,,,0,note_on,,100.0,55.0,100.0,18624,48.5
4367,0.0,,,,62.0,,,,,0,note_on,,100.0,62.0,100.0,18624,48.5
4368,0.0,,,,62.0,,,,,44,note_on,,0.0,62.0,0.0,18668,48.61458333333333
4369,0.0,,,,55.0,,,,,0,note_on,,0.0,55.0,0.0,18668,48.61458333333333
4370,0.0,,,,59.0,,,,,0,note_on,,0.0,59.0,0.0,18668,48.61458333333333
4371,0.0,,,,62.0,,,,,52,note_on,,100.0,62.0,100.0,18720,48.75
4372,0.0,,,,59.0,,,,,0,note_on,,100.0,59.0,100.0,18720,48.75
4373,0.0,,,,55.0,,,,,0,note_on,,100.0,55.0,100.0,18720,48.75
4374,0.0,,,,62.0,,,,,44,note_on,,0.0,62.0,0.0,18764,48.86458333333333
4375,0.0,,,,55.0,,,,,0,note_on,,0.0,55.0,0.0,18764,48.86458333333333
4376,0.0,,,,59.0,,,,,0,note_on,,0.0,59.0,0.0,18764,48.86458333333333
4377,0.0,,,,59.0,,,,,52,note_on,,100.0,59.0,100.0,18816,49.0
4378,0.0,,,,55.0,,,,,0,note_on,,100.0,55.0,100.0,18816,49.0
4379,0.0,,,,62.0,,,,,0,note_on,,100.0,62.0,100.0,18816,49.0
4380,0.0,,,,59.0,,,,,44,note_on,,0.0,59.0,0.0,18860,49.11458333333333
4381,0.0,,,,62.0,,,,,0,note_on,,0.0,62.0,0.0,18860,49.11458333333333
4382,0.0,,,,55.0,,,,,0,note_on,,0.0,55.0,0.0,18860,49.11458333333333
4383,0.0,,,,62.0,,,,,52,note_on,,100.0,62.0,100.0,18912,49.25
4384,0.0,,,,55.0,,,,,0,note_on,,100.0,55.0,100.0,18912,49.25
4385,0.0,,,,59.0,,,,,0,note_on,,100.0,59.0,100.0,18912,49.25
4386,0.0,,,,55.0,,,,,44,note_on,,0.0,55.0,0.0,18956,49.36458333333333
4387,0.0,,,,62.0,,,,,0,note_on,,0.0,62.0,0.0,18956,49.36458333333333
4388,0.0,,,,59.0,,,,,0,note_on,,0.0,59.0,0.0,18956,49.36458333333333
4389,0.0,,,,59.0,,,,,52,note_on,,100.0,59.0,100.0,19008,49.5
4390,0.0,,,,55.0,,,,,0,note_on,,100.0,55.0,100.0,19008,49.5
4391,0.0,,,,62.0,,,,,0,note_on,,100.0,62.0,100.0,19008,49.5
4392,0.0,,,,62.0,,,,,44,note_on,,0.0,62.0,0.0,19052,49.61458333333333
4393,0.0,,,,55.0,,,,,0,note_on,,0.0,55.0,0.0,19052,49.61458333333333
4394,0.0,,,,59.0,,,,,0,note_on,,0.0,59.0,0.0,19052,49.61458333333333
4395,0.0,,,,59.0,,,,,52,note_on,,100.0,59.0,100.0,19104,49.75
4396,0.0,,,,62.0,,,,,0,note_on,,100.0,62.0,100.0,19104,49.75
4397,0.0,,,,55.0,,,,,0,note_on,,100.0,55.0,100.0,19104,49.75
4398,0.0,,,,55.0,,,,,44,note_on,,0.0,55.0,0.0,19148,49.86458333333333
4399,0.0,,,,62.0,,,,,0,note_on,,0.0,62.0,0.0,19148,49.86458333333333
4400,0.0,,,,59.0,,,,,0,note_on,,0.0,59.0,0.0,19148,49.86458333333333
4401,0.0,,,,55.0,,,,,52,note_on,,100.0,55.0,100.0,19200,50.0
4402,0.0,,,,62.0,,,,,0,note_on,,100.0,62.0,100.0,19200,50.0
4403,0.0,,,,59.0,,,,,0,note_on,,100.0,59.0,100.0,19200,50.0
4404,0.0,,,,55.0,,,,,44,note_on,,0.0,55.0,0.0,19244,50.11458333333333
4405,0.0,,,,59.0,,,,,0,note_on,,0.0,59.0,0.0,19244,50.11458333333333
4406,0.0,,,,62.0,,,,,0,note_on,,0.0,62.0,0.0,19244,50.11458333333333
4407,0.0,,,,62.0,,,,,52,note_on,,100.0,62.0,100.0,19296,50.25
4408,0.0,,,,59.0,,,,,0,note_on,,100.0,59.0,100.0,19296,50.25
4409,0.0,,,,55.0,,,,,0,note_on,,100.0,55.0,100.0,19296,50.25
4410,0.0,,,,62.0,,,,,44,note_on,,0.0,62.0,0.0,19340,50.36458333333333
4411,0.0,,,,55.0,,,,,0,note_on,,0.0,55.0,0.0,19340,50.36458333333333
4412,0.0,,,,59.0,,,,,0,note_on,,0.0,59.0,0.0,19340,50.36458333333333
4413,0.0,,,,59.0,,,,,52,note_on,,100.0,59.0,100.0,19392,50.5
4414,0.0,,,,62.0,,,,,0,note_on,,100.0,62.0,100.0,19392,50.5
4415,0.0,,,,55.0,,,,,0,note_on,,100.0,55.0,100.0,19392,50.5
4416,0.0,,,,55.0,,,,,44,note_on,,0.0,55.0,0.0,19436,50.61458333333333
4417,0.0,,,,62.0,,,,,0,note_on,,0.0,62.0,0.0,19436,50.61458333333333
4418,0.0,,,,59.0,,,,,0,note_on,,0.0,59.0,0.0,19436,50.61458333333333
4419,0.0,,,,55.0,,,,,52,note_on,,100.0,55.0,100.0,19488,50.75
4420,0.0,,,,59.0,,,,,0,note_on,,100.0,59.0,100.0,19488,50.75
4421,0.0,,,,62.0,,,,,0,note_on,,100.0,62.0,100.0,19488,50.75
4422,0.0,,,,55.0,,,,,44,note_on,,0.0,55.0,0.0,19532,50.86458333333333
4423,0.0,,,,62.0,,,,,0,note_on,,0.0,62.0,0.0,19532,50.86458333333333
4424,0.0,,,,59.0,,,,,0,note_on,,0.0,59.0,0.0,19532,50.86458333333333
4425,0.0,,,,59.0,,,,,52,note_on,,100.0,59.0,100.0,19584,51.0
4426,0.0,,,,62.0,,,,,0,note_on,,100.0,62.0,100.0,19584,51.0
4427,0.0,,,,55.0,,,,,0,note_on,,100.0,55.0,100.0,19584,51.0
4428,0.0,,,,59.0,,,,,44,note_on,,0.0,59.0,0.0,19628,51.11458333333333
4429,0.0,,,,55.0,,,,,0,note_on,,0.0,55.0,0.0,19628,51.11458333333333
4430,0.0,,,,62.0,,,,,0,note_on,,0.0,62.0,0.0,19628,51.11458333333333
4431,0.0,,,,59.0,,,,,52,note_on,,100.0,59.0,100.0,19680,51.25
4432,0.0,,,,55.0,,,,,0,note_on,,100.0,55.0,100.0,19680,51.25
4433,0.0,,,,62.0,,,,,0,note_on,,100.0,62.0,100.0,19680,51.25
4434,0.0,,,,59.0,,,,,44,note_on,,0.0,59.0,0.0,19724,51.36458333333333
4435,0.0,,,,55.0,,,,,0,note_on,,0.0,55.0,0.0,19724,51.36458333333333
4436,0.0,,,,62.0,,,,,0,note_on,,0.0,62.0,0.0,19724,51.36458333333333
4437,0.0,,,,62.0,,,,,52,note_on,,100.0,62.0,100.0,19776,51.5
4438,0.0,,,,55.0,,,,,0,note_on,,100.0,55.0,100.0,19776,51.5
4439,0.0,,,,59.0,,,,,0,note_on,,100.0,59.0,100.0,19776,51.5
4440,0.0,,,,59.0,,,,,44,note_on,,0.0,59.0,0.0,19820,51.61458333333333
4441,0.0,,,,55.0,,,,,0,note_on,,0.0,55.0,0.0,19820,51.61458333333333
4442,0.0,,,,62.0,,,,,0,note_on,,0.0,62.0,0.0,19820,51.61458333333333
4443,0.0,,,,59.0,,,,,52,note_on,,100.0,59.0,100.0,19872,51.75
4444,0.0,,,,55.0,,,,,0,note_on,,100.0,55.0,100.0,19872,51.75
4445,0.0,,,,62.0,,,,,0,note_on,,100.0,62.0,100.0,19872,51.75
4446,0.0,,,,62.0,,,,,44,note_on,,0.0,62.0,0.0,19916,51.86458333333333
4447,0.0,,,,55.0,,,,,0,note_on,,0.0,55.0,0.0,19916,51.86458333333333
4448,0.0,,,,59.0,,,,,0,note_on,,0.0,59.0,0.0,19916,51.86458333333333
4449,0.0,,,,60.0,,,,,52,note_on,,100.0,60.0,100.0,19968,52.0
4450,0.0,,,,57.0,,,,,0,note_on,,100.0,57.0,100.0,19968,52.0
4451,0.0,,,,53.0,,,,,0,note_on,,100.0,53.0,100.0,19968,52.0
4452,0.0,,,,60.0,,,,,44,note_on,,0.0,60.0,0.0,20012,52.11458333333333
4453,0.0,,,,53.0,,,,,0,note_on,,0.0,53.0,0.0,20012,52.11458333333333
4454,0.0,,,,57.0,,,,,0,note_on,,0.0,57.0,0.0,20012,52.11458333333333
4455,0.0,,,,53.0,,,,,52,note_on,,100.0,53.0,100.0,20064,52.25
4456,0.0,,,,60.0,,,,,0,note_on,,100.0,60.0,100.0,20064,52.25
4457,0.0,,,,57.0,,,,,0,note_on,,100.0,57.0,100.0,20064,52.25
4458,0.0,,,,57.0,,,,,44,note_on,,0.0,57.0,0.0,20108,52.36458333333333
4459,0.0,,,,60.0,,,,,0,note_on,,0.0,60.0,0.0,20108,52.36458333333333
4460,0.0,,,,53.0,,,,,0,note_on,,0.0,53.0,0.0,20108,52.36458333333333
4461,0.0,,,,53.0,,,,,52,note_on,,100.0,53.0,100.0,20160,52.5
4462,0.0,,,,60.0,,,,,0,note_on,,100.0,60.0,100.0,20160,52.5
4463,0.0,,,,57.0,,,,,0,note_on,,100.0,57.0,100.0,20160,52.5
4464,0.0,,,,57.0,,,,,44,note_on,,0.0,57.0,0.0,20204,52.61458333333333
4465,0.0,,,,60.0,,,,,0,note_on,,0.0,60.0,0.0,20204,52.61458333333333
4466,0.0,,,,53.0,,,,,0,note_on,,0.0,53.0,0.0,20204,52.61458333333333
4467,0.0,,,,57.0,,,,,52,note_on,,100.0,57.0,100.0,20256,52.75
4468,0.0,,,,53.0,,,,,0,note_on,,100.0,53.0,100.0,20256,52.75
4469,0.0,,,,60.0,,,,,0,note_on,,100.0,60.0,100.0,20256,52.75
4470,0.0,,,,60.0,,,,,44,note_on,,0.0,60.0,0.0,20300,52.86458333333333
4471,0.0,,,,53.0,,,,,0,note_on,,0.0,53.0,0.0,20300,52.86458333333333
4472,0.0,,,,57.0,,,,,0,note_on,,0.0,57.0,0.0,20300,52.86458333333333
4473,0.0,,,,60.0,,,,,52,note_on,,100.0,60.0,100.0,20352,53.0
4474,0.0,,,,53.0,,,,,0,note_on,,100.0,53.0,100.0,20352,53.0
4475,0.0,,,,57.0,,,,,0,note_on,,100.0,57.0,100.0,20352,53.0
4476,0.0,,,,60.0,,,,,44,note_on,,0.0,60.0,0.0,20396,53.11458333333333
4477,0.0,,,,57.0,,,,,0,note_on,,0.0,57.0,0.0,20396,53.11458333333333
4478,0.0,,,,53.0,,,,,0,note_on,,0.0,53.0,0.0,20396,53.11458333333333
4479,0.0,,,,53.0,,,,,52,note_on,,100.0,53.0,100.0,20448,53.25
4480,0.0,,,,57.0,,,,,0,note_on,,100.0,57.0,100.0,20448,53.25
4481,0.0,,,,60.0,,,,,0,note_on,,100.0,60.0,100.0,20448,53.25
4482,0.0,,,,60.0,,,,,44,note_on,,0.0,60.0,0.0,20492,53.36458333333333
4483,0.0,,,,57.0,,,,,0,note_on,,0.0,57.0,0.0,20492,53.36458333333333
4484,0.0,,,,53.0,,,,,0,note_on,,0.0,53.0,0.0,20492,53.36458333333333
4485,0.0,,,,53.0,,,,,52,note_on,,100.0,53.0,100.0,20544,53.5
4486,0.0,,,,60.0,,,,,0,note_on,,100.0,60.0,100.0,20544,53.5
4487,0.0,,,,57.0,,,,,0,note_on,,100.0,57.0,100.0,20544,53.5
4488,0.0,,,,60.0,,,,,44,note_on,,0.0,60.0,0.0,20588,53.61458333333333
4489,0.0,,,,53.0,,,,,0,note_on,,0.0,53.0,0.0,20588,53.61458333333333
4490,0.0,,,,57.0,,,,,0,note_on,,0.0,57.0,0.0,20588,53.61458333333333
4491,0.0,,,,48.0,,,,,52,note_on,,100.0,48.0,100.0,20640,53.75
4492,0.0,,,,48.0,,,,,44,note_on,,0.0,48.0,0.0,20684,53.86458333333333
4493,0.0,,,,55.0,,,,,52,note_on,,100.0,55.0,100.0,20736,54.0
4494,0.0,,,,60.0,,,,,0,note_on,,100.0,60.0,100.0,20736,54.0
4495,0.0,,,,64.0,,,,,0,note_on,,100.0,64.0,100.0,20736,54.0
4496,0.0,,,,64.0,,,,,44,note_on,,0.0,64.0,0.0,20780,54.11458333333333
4497,0.0,,,,60.0,,,,,0,note_on,,0.0,60.0,0.0,20780,54.11458333333333
4498,0.0,,,,55.0,,,,,0,note_on,,0.0,55.0,0.0,20780,54.11458333333333
4499,0.0,,,,64.0,,,,,52,note_on,,100.0,64.0,100.0,20832,54.25
4500,0.0,,,,60.0,,,,,0,note_on,,100.0,60.0,100.0,20832,54.25
4501,0.0,,,,55.0,,,,,0,note_on,,100.0,55.0,100.0,20832,54.25
4502,0.0,,,,60.0,,,,,44,note_on,,0.0,60.0,0.0,20876,54.36458333333333
4503,0.0,,,,55.0,,,,,0,note_on,,0.0,55.0,0.0,20876,54.36458333333333
4504,0.0,,,,64.0,,,,,0,note_on,,0.0,64.0,0.0,20876,54.36458333333333
4505,0.0,,,,55.0,,,,,52,note_on,,100.0,55.0,100.0,20928,54.5
4506,0.0,,,,60.0,,,,,0,note_on,,100.0,60.0,100.0,20928,54.5
4507,0.0,,,,64.0,,,,,0,note_on,,100.0,64.0,100.0,20928,54.5
4508,0.0,,,,60.0,,,,,44,note_on,,0.0,60.0,0.0,20972,54.61458333333333
4509,0.0,,,,55.0,,,,,0,note_on,,0.0,55.0,0.0,20972,54.61458333333333
4510,0.0,,,,64.0,,,,,0,note_on,,0.0,64.0,0.0,20972,54.61458333333333
4511,0.0,,,,55.0,,,,,52,note_on,,100.0,55.0,100.0,21024,54.75
4512,0.0,,,,64.0,,,,,0,note_on,,100.0,64.0,100.0,21024,54.75
4513,0.0,,,,60.0,,,,,0,note_on,,100.0,60.0,100.0,21024,54.75
4514,0.0,,,,64.0,,,,,44,note_on,,0.0,64.0,0.0,21068,54.86458333333333
4515,0.0,,,,55.0,,,,,0,note_on,,0.0,55.0,0.0,21068,54.86458333333333
4516,0.0,,,,60.0,,,,,0,note_on,,0.0,60.0,0.0,21068,54.86458333333333
4517,0.0,,,,64.0,,,,,52,note_on,,100.0,64.0,100.0,21120,55.0
4518,0.0,,,,60.0,,,,,0,note_on,,100.0,60.0,100.0,21120,55.0
4519,0.0,,,,55.0,,,,,0,note_on,,100.0,55.0,100.0,21120,55.0
4520,0.0,,,,55.0,,,,,44,note_on,,0.0,55.0,0.0,21164,55.11458333333333
4521,0.0,,,,60.0,,,,,0,note_on,,0.0,60.0,0.0,21164,55.11458333333333
4522,0.0,,,,64.0,,,,,0,note_on,,0.0,64.0,0.0,21164,55.11458333333333
4523,0.0,,,,60.0,,,,,52,note_on,,100.0,60.0,100.0,21216,55.25
4524,0.0,,,,55.0,,,,,0,note_on,,100.0,55.0,100.0,21216,55.25
4525,0.0,,,,64.0,,,,,0,note_on,,100.0,64.0,100.0,21216,55.25
4526,0.0,,,,55.0,,,,,44,note_on,,0.0,55.0,0.0,21260,55.36458333333333
4527,0.0,,,,64.0,,,,,0,note_on,,0.0,64.0,0.0,21260,55.36458333333333
4528,0.0,,,,60.0,,,,,0,note_on,,0.0,60.0,0.0,21260,55.36458333333333
4529,0.0,,,,64.0,,,,,52,note_on,,100.0,64.0,100.0,21312,55.5
4530,0.0,,,,60.0,,,,,0,note_on,,100.0,60.0,100.0,21312,55.5
4531,0.0,,,,55.0,,,,,0,note_on,,100.0,55.0,100.0,21312,55.5
4532,0.0,,,,60.0,,,,,44,note_on,,0.0,60.0,0.0,21356,55.61458333333333
4533,0.0,,,,64.0,,,,,0,note_on,,0.0,64.0,0.0,21356,55.61458333333333
4534,0.0,,,,55.0,,,,,0,note_on,,0.0,55.0,0.0,21356,55.61458333333333
4535,0.0,,,,60.0,,,,,52,note_on,,100.0,60.0,100.0,21408,55.75
4536,0.0,,,,55.0,,,,,0,note_on,,100.0,55.0,100.0,21408,55.75
4537,0.0,,,,64.0,,,,,0,note_on,,100.0,64.0,100.0,21408,55.75
4538,0.0,,,,60.0,,,,,44,note_on,,0.0,60.0,0.0,21452,55.86458333333333
4539,0.0,,,,64.0,,,,,0,note_on,,0.0,64.0,0.0,21452,55.86458333333333
4540,0.0,,,,55.0,,,,,0,note_on,,0.0,55.0,0.0,21452,55.86458333333333
4541,0.0,,,,59.0,,,,,52,note_on,,100.0,59.0,100.0,21504,56.0
4542,0.0,,,,62.0,,,,,0,note_on,,100.0,62.0,100.0,21504,56.0
4543,0.0,,,,55.0,,,,,0,note_on,,100.0,55.0,100.0,21504,56.0
4544,0.0,,,,62.0,,,,,44,note_on,,0.0,62.0,0.0,21548,56.11458333333333
4545,0.0,,,,55.0,,,,,0,note_on,,0.0,55.0,0.0,21548,56.11458333333333
4546,0.0,,,,59.0,,,,,0,note_on,,0.0,59.0,0.0,21548,56.11458333333333
4547,0.0,,,,62.0,,,,,52,note_on,,100.0,62.0,100.0,21600,56.25
4548,0.0,,,,55.0,,,,,0,note_on,,100.0,55.0,100.0,21600,56.25
4549,0.0,,,,59.0,,,,,0,note_on,,100.0,59.0,100.0,21600,56.25
4550,0.0,,,,59.0,,,,,44,note_on,,0.0,59.0,0.0,21644,56.36458333333333
4551,0.0,,,,55.0,,,,,0,note_on,,0.0,55.0,0.0,21644,56.36458333333333
4552,0.0,,,,62.0,,,,,0,note_on,,0.0,62.0,0.0,21644,56.36458333333333
4553,0.0,,,,62.0,,,,,52,note_on,,100.0,62.0,100.0,21696,56.5
4554,0.0,,,,59.0,,,,,0,note_on,,100.0,59.0,100.0,21696,56.5
4555,0.0,,,,55.0,,,,,0,note_on,,100.0,55.0,100.0,21696,56.5
4556,0.0,,,,59.0,,,,,44,note_on,,0.0,59.0,0.0,21740,56.61458333333333
4557,0.0,,,,55.0,,,,,0,note_on,,0.0,55.0,0.0,21740,56.61458333333333
4558,0.0,,,,62.0,,,,,0,note_on,,0.0,62.0,0.0,21740,56.61458333333333
4559,0.0,,,,62.0,,,,,52,note_on,,100.0,62.0,100.0,21792,56.75
4560,0.0,,,,59.0,,,,,0,note_on,,100.0,59.0,100.0,21792,56.75
4561,0.0,,,,55.0,,,,,0,note_on,,100.0,55.0,100.0,21792,56.75
4562,0.0,,,,59.0,,,,,44,note_on,,0.0,59.0,0.0,21836,56.86458333333333
4563,0.0,,,,62.0,,,,,0,note_on,,0.0,62.0,0.0,21836,56.86458333333333
4564,0.0,,,,55.0,,,,,0,note_on,,0.0,55.0,0.0,21836,56.86458333333333
4565,0.0,,,,59.0,,,,,52,note_on,,100.0,59.0,100.0,21888,57.0
4566,0.0,,,,55.0,,,,,0,note_on,,100.0,55.0,100.0,21888,57.0
4567,0.0,,,,62.0,,,,,0,note_on,,100.0,62.0,100.0,21888,57.0
4568,0.0,,,,55.0,,,,,44,note_on,,0.0,55.0,0.0,21932,57.11458333333333
4569,0.0,,,,62.0,,,,,0,note_on,,0.0,62.0,0.0,21932,57.11458333333333
4570,0.0,,,,59.0,,,,,0,note_on,,0.0,59.0,0.0,21932,57.11458333333333
4571,0.0,,,,59.0,,,,,52,note_on,,100.0,59.0,100.0,21984,57.25
4572,0.0,,,,62.0,,,,,0,note_on,,100.0,62.0,100.0,21984,57.25
4573,0.0,,,,55.0,,,,,0,note_on,,100.0,55.0,100.0,21984,57.25
4574,0.0,,,,59.0,,,,,44,note_on,,0.0,59.0,0.0,22028,57.36458333333333
4575,0.0,,,,62.0,,,,,0,note_on,,0.0,62.0,0.0,22028,57.36458333333333
4576,0.0,,,,55.0,,,,,0,note_on,,0.0,55.0,0.0,22028,57.36458333333333
4577,0.0,,,,55.0,,,,,52,note_on,,100.0,55.0,100.0,22080,57.5
4578,0.0,,,,62.0,,,,,0,note_on,,100.0,62.0,100.0,22080,57.5
4579,0.0,,,,59.0,,,,,0,note_on,,100.0,59.0,100.0,22080,57.5
4580,0.0,,,,59.0,,,,,44,note_on,,0.0,59.0,0.0,22124,57.61458333333333
4581,0.0,,,,62.0,,,,,0,note_on,,0.0,62.0,0.0,22124,57.61458333333333
4582,0.0,,,,55.0,,,,,0,note_on,,0.0,55.0,0.0,22124,57.61458333333333
4583,0.0,,,,59.0,,,,,52,note_on,,100.0,59.0,100.0,22176,57.75
4584,0.0,,,,55.0,,,,,0,note_on,,100.0,55.0,100.0,22176,57.75
4585,0.0,,,,62.0,,,,,0,note_on,,100.0,62.0,100.0,22176,57.75
4586,0.0,,,,55.0,,,,,44,note_on,,0.0,55.0,0.0,22220,57.86458333333333
4587,0.0,,,,59.0,,,,,0,note_on,,0.0,59.0,0.0,22220,57.86458333333333
4588,0.0,,,,62.0,,,,,0,note_on,,0.0,62.0,0.0,22220,57.86458333333333
4589,0.0,,,,55.0,,,,,52,note_on,,100.0,55.0,100.0,22272,58.0
4590,0.0,,,,62.0,,,,,0,note_on,,100.0,62.0,100.0,22272,58.0
4591,0.0,,,,59.0,,,,,0,note_on,,100.0,59.0,100.0,22272,58.0
4592,0.0,,,,55.0,,,,,44,note_on,,0.0,55.0,0.0,22316,58.11458333333333
4593,0.0,,,,59.0,,,,,0,note_on,,0.0,59.0,0.0,22316,58.11458333333333
4594,0.0,,,,62.0,,,,,0,note_on,,0.0,62.0,0.0,22316,58.11458333333333
4595,0.0,,,,59.0,,,,,52,note_on,,100.0,59.0,100.0,22368,58.25
4596,0.0,,,,62.0,,,,,0,note_on,,100.0,62.0,100.0,22368,58.25
4597,0.0,,,,55.0,,,,,0,note_on,,100.0,55.0,100.0,22368,58.25
4598,0.0,,,,55.0,,,,,44,note_on,,0.0,55.0,0.0,22412,58.36458333333333
4599,0.0,,,,62.0,,,,,0,note_on,,0.0,62.0,0.0,22412,58.36458333333333
4600,0.0,,,,59.0,,,,,0,note_on,,0.0,59.0,0.0,22412,58.36458333333333
4601,0.0,,,,62.0,,,,,52,note_on,,100.0,62.0,100.0,22464,58.5
4602,0.0,,,,59.0,,,,,0,note_on,,100.0,59.0,100.0,22464,58.5
4603,0.0,,,,55.0,,,,,0,note_on,,100.0,55.0,100.0,22464,58.5
4604,0.0,,,,59.0,,,,,44,note_on,,0.0,59.0,0.0,22508,58.61458333333333
4605,0.0,,,,62.0,,,,,0,note_on,,0.0,62.0,0.0,22508,58.61458333333333
4606,0.0,,,,55.0,,,,,0,note_on,,0.0,55.0,0.0,22508,58.61458333333333
4607,0.0,,,,62.0,,,,,52,note_on,,100.0,62.0,100.0,22560,58.75
4608,0.0,,,,55.0,,,,,0,note_on,,100.0,55.0,100.0,22560,58.75
4609,0.0,,,,59.0,,,,,0,note_on,,100.0,59.0,100.0,22560,58.75
4610,0.0,,,,55.0,,,,,44,note_on,,0.0,55.0,0.0,22604,58.86458333333333
4611,0.0,,,,62.0,,,,,0,note_on,,0.0,62.0,0.0,22604,58.86458333333333
4612,0.0,,,,59.0,,,,,0,note_on,,0.0,59.0,0.0,22604,58.86458333333333
4613,0.0,,,,62.0,,,,,52,note_on,,100.0,62.0,100.0,22656,59.0
4614,0.0,,,,59.0,,,,,0,note_on,,100.0,59.0,100.0,22656,59.0
4615,0.0,,,,55.0,,,,,0,note_on,,100.0,55.0,100.0,22656,59.0
4616,0.0,,,,59.0,,,,,44,note_on,,0.0,59.0,0.0,22700,59.11458333333333
4617,0.0,,,,55.0,,,,,0,note_on,,0.0,55.0,0.0,22700,59.11458333333333
4618,0.0,,,,62.0,,,,,0,note_on,,0.0,62.0,0.0,22700,59.11458333333333
4619,0.0,,,,55.0,,,,,52,note_on,,100.0,55.0,100.0,22752,59.25
4620,0.0,,,,62.0,,,,,0,note_on,,100.0,62.0,100.0,22752,59.25
4621,0.0,,,,59.0,,,,,0,note_on,,100.0,59.0,100.0,22752,59.25
4622,0.0,,,,55.0,,,,,44,note_on,,0.0,55.0,0.0,22796,59.36458333333333
4623,0.0,,,,62.0,,,,,0,note_on,,0.0,62.0,0.0,22796,59.36458333333333
4624,0.0,,,,59.0,,,,,0,note_on,,0.0,59.0,0.0,22796,59.36458333333333
4625,0.0,,,,55.0,,,,,52,note_on,,100.0,55.0,100.0,22848,59.5
4626,0.0,,,,59.0,,,,,0,note_on,,100.0,59.0,100.0,22848,59.5
4627,0.0,,,,62.0,,,,,0,note_on,,100.0,62.0,100.0,22848,59.5
4628,0.0,,,,62.0,,,,,44,note_on,,0.0,62.0,0.0,22892,59.61458333333333
4629,0.0,,,,59.0,,,,,0,note_on,,0.0,59.0,0.0,22892,59.61458333333333
4630,0.0,,,,55.0,,,,,0,note_on,,0.0,55.0,0.0,22892,59.61458333333333
4631,0.0,,,,59.0,,,,,52,note_on,,100.0,59.0,100.0,22944,59.75
4632,0.0,,,,62.0,,,,,0,note_on,,100.0,62.0,100.0,22944,59.75
4633,0.0,,,,55.0,,,,,0,note_on,,100.0,55.0,100.0,22944,59.75
4634,0.0,,,,59.0,,,,,44,note_on,,0.0,59.0,0.0,22988,59.86458333333333
4635,0.0,,,,62.0,,,,,0,note_on,,0.0,62.0,0.0,22988,59.86458333333333
4636,0.0,,,,55.0,,,,,0,note_on,,0.0,55.0,0.0,22988,59.86458333333333
4637,0.0,,,,60.0,,,,,52,note_on,,100.0,60.0,100.0,23040,60.0
4638,0.0,,,,53.0,,,,,0,note_on,,100.0,53.0,100.0,23040,60.0
4639,0.0,,,,57.0,,,,,0,note_on,,100.0,57.0,100.0,23040,60.0
4640,0.0,,,,60.0,,,,,44,note_on,,0.0,60.0,0.0,23084,60.11458333333333
4641,0.0,,,,53.0,,,,,0,note_on,,0.0,53.0,0.0,23084,60.11458333333333
4642,0.0,,,,57.0,,,,,0,note_on,,0.0,57.0,0.0,23084,60.11458333333333
4643,0.0,,,,60.0,,,,,52,note_on,,100.0,60.0,100.0,23136,60.25
4644,0.0,,,,57.0,,,,,0,note_on,,100.0,57.0,100.0,23136,60.25
4645,0.0,,,,53.0,,,,,0,note_on,,100.0,53.0,100.0,23136,60.25
4646,0.0,,,,57.0,,,,,44,note_on,,0.0,57.0,0.0,23180,60.36458333333333
4647,0.0,,,,53.0,,,,,0,note_on,,0.0,53.0,0.0,23180,60.36458333333333
4648,0.0,,,,60.0,,,,,0,note_on,,0.0,60.0,0.0,23180,60.36458333333333
4649,0.0,,,,60.0,,,,,52,note_on,,100.0,60.0,100.0,23232,60.5
4650,0.0,,,,57.0,,,,,0,note_on,,100.0,57.0,100.0,23232,60.5
4651,0.0,,,,53.0,,,,,0,note_on,,100.0,53.0,100.0,23232,60.5
4652,0.0,,,,60.0,,,,,44,note_on,,0.0,60.0,0.0,23276,60.61458333333333
4653,0.0,,,,57.0,,,,,0,note_on,,0.0,57.0,0.0,23276,60.61458333333333
4654,0.0,,,,53.0,,,,,0,note_on,,0.0,53.0,0.0,23276,60.61458333333333
4655,0.0,,,,57.0,,,,,52,note_on,,100.0,57.0,100.0,23328,60.75
4656,0.0,,,,53.0,,,,,0,note_on,,100.0,53.0,100.0,23328,60.75
4657,0.0,,,,60.0,,,,,0,note_on,,100.0,60.0,100.0,23328,60.75
4658,0.0,,,,57.0,,,,,44,note_on,,0.0,57.0,0.0,23372,60.86458333333333
4659,0.0,,,,53.0,,,,,0,note_on,,0.0,53.0,0.0,23372,60.86458333333333
4660,0.0,,,,60.0,,,,,0,note_on,,0.0,60.0,0.0,23372,60.86458333333333
4661,0.0,,,,53.0,,,,,52,note_on,,100.0,53.0,100.0,23424,61.0
4662,0.0,,,,57.0,,,,,0,note_on,,100.0,57.0,100.0,23424,61.0
4663,0.0,,,,60.0,,,,,0,note_on,,100.0,60.0,100.0,23424,61.0
4664,0.0,,,,57.0,,,,,44,note_on,,0.0,57.0,0.0,23468,61.11458333333333
4665,0.0,,,,53.0,,,,,0,note_on,,0.0,53.0,0.0,23468,61.11458333333333
4666,0.0,,,,60.0,,,,,0,note_on,,0.0,60.0,0.0,23468,61.11458333333333
4667,0.0,,,,53.0,,,,,52,note_on,,100.0,53.0,100.0,23520,61.25
4668,0.0,,,,57.0,,,,,0,note_on,,100.0,57.0,100.0,23520,61.25
4669,0.0,,,,60.0,,,,,0,note_on,,100.0,60.0,100.0,23520,61.25
4670,0.0,,,,57.0,,,,,44,note_on,,0.0,57.0,0.0,23564,61.36458333333333
4671,0.0,,,,60.0,,,,,0,note_on,,0.0,60.0,0.0,23564,61.36458333333333
4672,0.0,,,,53.0,,,,,0,note_on,,0.0,53.0,0.0,23564,61.36458333333333
4673,0.0,,,,53.0,,,,,52,note_on,,100.0,53.0,100.0,23616,61.5
4674,0.0,,,,60.0,,,,,0,note_on,,100.0,60.0,100.0,23616,61.5
4675,0.0,,,,57.0,,,,,0,note_on,,100.0,57.0,100.0,23616,61.5
4676,0.0,,,,60.0,,,,,44,note_on,,0.0,60.0,0.0,23660,61.61458333333333
4677,0.0,,,,57.0,,,,,0,note_on,,0.0,57.0,0.0,23660,61.61458333333333
4678,0.0,,,,53.0,,,,,0,note_on,,0.0,53.0,0.0,23660,61.61458333333333
4679,0.0,,,,48.0,,,,,52,note_on,,100.0,48.0,100.0,23712,61.75
4680,0.0,,,,48.0,,,,,44,note_on,,0.0,48.0,0.0,23756,61.86458333333333
4681,0.0,,,,64.0,,,,,52,note_on,,100.0,64.0,100.0,23808,62.0
4682,0.0,,,,55.0,,,,,0,note_on,,100.0,55.0,100.0,23808,62.0
4683,0.0,,,,60.0,,,,,0,note_on,,100.0,60.0,100.0,23808,62.0
4684,0.0,,,,64.0,,,,,44,note_on,,0.0,64.0,0.0,23852,62.11458333333333
4685,0.0,,,,55.0,,,,,0,note_on,,0.0,55.0,0.0,23852,62.11458333333333
4686,0.0,,,,60.0,,,,,0,note_on,,0.0,60.0,0.0,23852,62.11458333333333
4687,0.0,,,,64.0,,,,,52,note_on,,100.0,64.0,100.0,23904,62.25
4688,0.0,,,,55.0,,,,,0,note_on,,100.0,55.0,100.0,23904,62.25
4689,0.0,,,,60.0,,,,,0,note_on,,100.0,60.0,100.0,23904,62.25
4690,0.0,,,,55.0,,,,,44,note_on,,0.0,55.0,0.0,23948,62.36458333333333
4691,0.0,,,,64.0,,,,,0,note_on,,0.0,64.0,0.0,23948,62.36458333333333
4692,0.0,,,,60.0,,,,,0,note_on,,0.0,60.0,0.0,23948,62.36458333333333
4693,0.0,,,,55.0,,,,,52,note_on,,100.0,55.0,100.0,24000,62.5
4694,0.0,,,,60.0,,,,,0,note_on,,100.0,60.0,100.0,24000,62.5
4695,0.0,,,,64.0,,,,,0,note_on,,100.0,64.0,100.0,24000,62.5
4696,0.0,,,,55.0,,,,,44,note_on,,0.0,55.0,0.0,24044,62.61458333333333
4697,0.0,,,,60.0,,,,,0,note_on,,0.0,60.0,0.0,24044,62.61458333333333
4698,0.0,,,,64.0,,,,,0,note_on,,0.0,64.0,0.0,24044,62.61458333333333
4699,0.0,,,,60.0,,,,,52,note_on,,100.0,60.0,100.0,24096,62.75
4700,0.0,,,,64.0,,,,,0,note_on,,100.0,64.0,100.0,24096,62.75
4701,0.0,,,,55.0,,,,,0,note_on,,100.0,55.0,100.0,24096,62.75
4702,0.0,,,,64.0,,,,,44,note_on,,0.0,64.0,0.0,24140,62.86458333333333
4703,0.0,,,,55.0,,,,,0,note_on,,0.0,55.0,0.0,24140,62.86458333333333
4704,0.0,,,,60.0,,,,,0,note_on,,0.0,60.0,0.0,24140,62.86458333333333
4705,0.0,,,,60.0,,,,,52,note_on,,100.0,60.0,100.0,24192,63.0
4706,0.0,,,,64.0,,,,,0,note_on,,100.0,64.0,100.0,24192,63.0
4707,0.0,,,,55.0,,,,,0,note_on,,100.0,55.0,100.0,24192,63.0
4708,0.0,,,,60.0,,,,,44,note_on,,0.0,60.0,0.0,24236,63.11458333333333
4709,0.0,,,,64.0,,,,,0,note_on,,0.0,64.0,0.0,24236,63.11458333333333
4710,0.0,,,,55.0,,,,,0,note_on,,0.0,55.0,0.0,24236,63.11458333333333
4711,0.0,,,,60.0,,,,,52,note_on,,100.0,60.0,100.0,24288,63.25
4712,0.0,,,,55.0,,,,,0,note_on,,100.0,55.0,100.0,24288,63.25
4713,0.0,,,,64.0,,,,,0,note_on,,100.0,64.0,100.0,24288,63.25
4714,0.0,,,,64.0,,,,,44,note_on,,0.0,64.0,0.0,24332,63.36458333333333
4715,0.0,,,,55.0,,,,,0,note_on,,0.0,55.0,0.0,24332,63.36458333333333
4716,0.0,,,,60.0,,,,,0,note_on,,0.0,60.0,0.0,24332,63.36458333333333
4717,0.0,,,,60.0,,,,,52,note_on,,100.0,60.0,100.0,24384,63.5
4718,0.0,,,,55.0,,,,,0,note_on,,100.0,55.0,100.0,24384,63.5
4719,0.0,,,,64.0,,,,,0,note_on,,100.0,64.0,100.0,24384,63.5
4720,0.0,,,,60.0,,,,,44,note_on,,0.0,60.0,0.0,24428,63.61458333333333
4721,0.0,,,,55.0,,,,,0,note_on,,0.0,55.0,0.0,24428,63.61458333333333
4722,0.0,,,,64.0,,,,,0,note_on,,0.0,64.0,0.0,24428,63.61458333333333
4723,0.0,,,,64.0,,,,,52,note_on,,100.0,64.0,100.0,24480,63.75
4724,0.0,,,,55.0,,,,,0,note_on,,100.0,55.0,100.0,24480,63.75
4725,0.0,,,,60.0,,,,,0,note_on,,100.0,60.0,100.0,24480,63.75
4726,0.0,,,,60.0,,,,,44,note_on,,0.0,60.0,0.0,24524,63.86458333333333
4727,0.0,,,,55.0,,,,,0,note_on,,0.0,55.0,0.0,24524,63.86458333333333
4728,0.0,,,,64.0,,,,,0,note_on,,0.0,64.0,0.0,24524,63.86458333333333
4729,0.0,,,,62.0,,,,,52,note_on,,100.0,62.0,100.0,24576,64.0
4730,0.0,,,,59.0,,,,,0,note_on,,100.0,59.0,100.0,24576,64.0
4731,0.0,,,,55.0,,,,,0,note_on,,100.0,55.0,100.0,24576,64.0
4732,0.0,,,,62.0,,,,,44,note_on,,0.0,62.0,0.0,24620,64.11458333333333
4733,0.0,,,,59.0,,,,,0,note_on,,0.0,59.0,0.0,24620,64.11458333333333
4734,0.0,,,,55.0,,,,,0,note_on,,0.0,55.0,0.0,24620,64.11458333333333
4735,0.0,,,,55.0,,,,,52,note_on,,100.0,55.0,100.0,24672,64.25
4736,0.0,,,,62.0,,,,,0,note_on,,100.0,62.0,100.0,24672,64.25
4737,0.0,,,,59.0,,,,,0,note_on,,100.0,59.0,100.0,24672,64.25
4738,0.0,,,,59.0,,,,,44,note_on,,0.0,59.0,0.0,24716,64.36458333333333
4739,0.0,,,,62.0,,,,,0,note_on,,0.0,62.0,0.0,24716,64.36458333333333
4740,0.0,,,,55.0,,,,,0,note_on,,0.0,55.0,0.0,24716,64.36458333333333
4741,0.0,,,,55.0,,,,,52,note_on,,100.0,55.0,100.0,24768,64.5
4742,0.0,,,,62.0,,,,,0,note_on,,100.0,62.0,100.0,24768,64.5
4743,0.0,,,,59.0,,,,,0,note_on,,100.0,59.0,100.0,24768,64.5
4744,0.0,,,,55.0,,,,,44,note_on,,0.0,55.0,0.0,24812,64.61458333333333
4745,0.0,,,,62.0,,,,,0,note_on,,0.0,62.0,0.0,24812,64.61458333333333
4746,0.0,,,,59.0,,,,,0,note_on,,0.0,59.0,0.0,24812,64.61458333333333
4747,0.0,,,,59.0,,,,,52,note_on,,100.0,59.0,100.0,24864,64.75
4748,0.0,,,,55.0,,,,,0,note_on,,100.0,55.0,100.0,24864,64.75
4749,0.0,,,,62.0,,,,,0,note_on,,100.0,62.0,100.0,24864,64.75
4750,0.0,,,,62.0,,,,,44,note_on,,0.0,62.0,0.0,24908,64.86458333333333
4751,0.0,,,,55.0,,,,,0,note_on,,0.0,55.0,0.0,24908,64.86458333333333
4752,0.0,,,,59.0,,,,,0,note_on,,0.0,59.0,0.0,24908,64.86458333333333
4753,0.0,,,,59.0,,,,,52,note_on,,100.0,59.0,100.0,24960,65.0
4754,0.0,,,,62.0,,,,,0,note_on,,100.0,62.0,100.0,24960,65.0
4755,0.0,,,,55.0,,,,,0,note_on,,100.0,55.0,100.0,24960,65.0
4756,0.0,,,,59.0,,,,,44,note_on,,0.0,59.0,0.0,25004,65.11458333333333
4757,0.0,,,,62.0,,,,,0,note_on,,0.0,62.0,0.0,25004,65.11458333333333
4758,0.0,,,,55.0,,,,,0,note_on,,0.0,55.0,0.0,25004,65.11458333333333
4759,0.0,,,,55.0,,,,,52,note_on,,100.0,55.0,100.0,25056,65.25
4760,0.0,,,,62.0,,,,,0,note_on,,100.0,62.0,100.0,25056,65.25
4761,0.0,,,,59.0,,,,,0,note_on,,100.0,59.0,100.0,25056,65.25
4762,0.0,,,,59.0,,,,,44,note_on,,0.0,59.0,0.0,25100,65.36458333333333
4763,0.0,,,,55.0,,,,,0,note_on,,0.0,55.0,0.0,25100,65.36458333333333
4764,0.0,,,,62.0,,,,,0,note_on,,0.0,62.0,0.0,25100,65.36458333333333
4765,0.0,,,,55.0,,,,,52,note_on,,100.0,55.0,100.0,25152,65.5
4766,0.0,,,,62.0,,,,,0,note_on,,100.0,62.0,100.0,25152,65.5
4767,0.0,,,,59.0,,,,,0,note_on,,100.0,59.0,100.0,25152,65.5
4768,0.0,,,,55.0,,,,,44,note_on,,0.0,55.0,0.0,25196,65.61458333333333
4769,0.0,,,,62.0,,,,,0,note_on,,0.0,62.0,0.0,25196,65.61458333333333
4770,0.0,,,,59.0,,,,,0,note_on,,0.0,59.0,0.0,25196,65.61458333333333
4771,0.0,,,,55.0,,,,,52,note_on,,100.0,55.0,100.0,25248,65.75
4772,0.0,,,,59.0,,,,,0,note_on,,100.0,59.0,100.0,25248,65.75
4773,0.0,,,,62.0,,,,,0,note_on,,100.0,62.0,100.0,25248,65.75
4774,0.0,,,,59.0,,,,,44,note_on,,0.0,59.0,0.0,25292,65.86458333333333
4775,0.0,,,,55.0,,,,,0,note_on,,0.0,55.0,0.0,25292,65.86458333333333
4776,0.0,,,,62.0,,,,,0,note_on,,0.0,62.0,0.0,25292,65.86458333333333
4777,0.0,,,,55.0,,,,,52,note_on,,100.0,55.0,100.0,25344,66.0
4778,0.0,,,,62.0,,,,,0,note_on,,100.0,62.0,100.0,25344,66.0
4779,0.0,,,,59.0,,,,,0,note_on,,100.0,59.0,100.0,25344,66.0
4780,0.0,,,,55.0,,,,,44,note_on,,0.0,55.0,0.0,25388,66.11458333333333
4781,0.0,,,,62.0,,,,,0,note_on,,0.0,62.0,0.0,25388,66.11458333333333
4782,0.0,,,,59.0,,,,,0,note_on,,0.0,59.0,0.0,25388,66.11458333333333
4783,0.0,,,,55.0,,,,,52,note_on,,100.0,55.0,100.0,25440,66.25
4784,0.0,,,,59.0,,,,,0,note_on,,100.0,59.0,100.0,25440,66.25
4785,0.0,,,,62.0,,,,,0,note_on,,100.0,62.0,100.0,25440,66.25
4786,0.0,,,,55.0,,,,,44,note_on,,0.0,55.0,0.0,25484,66.36458333333333
4787,0.0,,,,59.0,,,,,0,note_on,,0.0,59.0,0.0,25484,66.36458333333333
4788,0.0,,,,62.0,,,,,0,note_on,,0.0,62.0,0.0,25484,66.36458333333333
4789,0.0,,,,55.0,,,,,52,note_on,,100.0,55.0,100.0,25536,66.5
4790,0.0,,,,59.0,,,,,0,note_on,,100.0,59.0,100.0,25536,66.5
4791,0.0,,,,62.0,,,,,0,note_on,,100.0,62.0,100.0,25536,66.5
4792,0.0,,,,55.0,,,,,44,note_on,,0.0,55.0,0.0,25580,66.61458333333333
4793,0.0,,,,59.0,,,,,0,note_on,,0.0,59.0,0.0,25580,66.61458333333333
4794,0.0,,,,62.0,,,,,0,note_on,,0.0,62.0,0.0,25580,66.61458333333333
4795,0.0,,,,62.0,,,,,52,note_on,,100.0,62.0,100.0,25632,66.75
4796,0.0,,,,55.0,,,,,0,note_on,,100.0,55.0,100.0,25632,66.75
4797,0.0,,,,59.0,,,,,0,note_on,,100.0,59.0,100.0,25632,66.75
4798,0.0,,,,62.0,,,,,44,note_on,,0.0,62.0,0.0,25676,66.86458333333333
4799,0.0,,,,55.0,,,,,0,note_on,,0.0,55.0,0.0,25676,66.86458333333333
4800,0.0,,,,59.0,,,,,0,note_on,,0.0,59.0,0.0,25676,66.86458333333333
4801,0.0,,,,59.0,,,,,52,note_on,,100.0,59.0,100.0,25728,67.0
4802,0.0,,,,55.0,,,,,0,note_on,,100.0,55.0,100.0,25728,67.0
4803,0.0,,,,62.0,,,,,0,note_on,,100.0,62.0,100.0,25728,67.0
4804,0.0,,,,59.0,,,,,44,note_on,,0.0,59.0,0.0,25772,67.11458333333333
4805,0.0,,,,55.0,,,,,0,note_on,,0.0,55.0,0.0,25772,67.11458333333333
4806,0.0,,,,62.0,,,,,0,note_on,,0.0,62.0,0.0,25772,67.11458333333333
4807,0.0,,,,59.0,,,,,52,note_on,,100.0,59.0,100.0,25824,67.25
4808,0.0,,,,62.0,,,,,0,note_on,,100.0,62.0,100.0,25824,67.25
4809,0.0,,,,55.0,,,,,0,note_on,,100.0,55.0,100.0,25824,67.25
4810,0.0,,,,59.0,,,,,44,note_on,,0.0,59.0,0.0,25868,67.36458333333333
4811,0.0,,,,62.0,,,,,0,note_on,,0.0,62.0,0.0,25868,67.36458333333333
4812,0.0,,,,55.0,,,,,0,note_on,,0.0,55.0,0.0,25868,67.36458333333333
4813,0.0,,,,62.0,,,,,52,note_on,,100.0,62.0,100.0,25920,67.5
4814,0.0,,,,59.0,,,,,0,note_on,,100.0,59.0,100.0,25920,67.5
4815,0.0,,,,55.0,,,,,0,note_on,,100.0,55.0,100.0,25920,67.5
4816,0.0,,,,62.0,,,,,44,note_on,,0.0,62.0,0.0,25964,67.61458333333333
4817,0.0,,,,59.0,,,,,0,note_on,,0.0,59.0,0.0,25964,67.61458333333333
4818,0.0,,,,55.0,,,,,0,note_on,,0.0,55.0,0.0,25964,67.61458333333333
4819,0.0,,,,62.0,,,,,52,note_on,,100.0,62.0,100.0,26016,67.75
4820,0.0,,,,55.0,,,,,0,note_on,,100.0,55.0,100.0,26016,67.75
4821,0.0,,,,59.0,,,,,0,note_on,,100.0,59.0,100.0,26016,67.75
4822,0.0,,,,59.0,,,,,44,note_on,,0.0,59.0,0.0,26060,67.86458333333333
4823,0.0,,,,62.0,,,,,0,note_on,,0.0,62.0,0.0,26060,67.86458333333333
4824,0.0,,,,55.0,,,,,0,note_on,,0.0,55.0,0.0,26060,67.86458333333333
4825,0.0,,,,57.0,,,,,52,note_on,,100.0,57.0,100.0,26112,68.0
4826,0.0,,,,53.0,,,,,0,note_on,,100.0,53.0,100.0,26112,68.0
4827,0.0,,,,60.0,,,,,0,note_on,,100.0,60.0,100.0,26112,68.0
4828,0.0,,,,57.0,,,,,44,note_on,,0.0,57.0,0.0,26156,68.11458333333333
4829,0.0,,,,53.0,,,,,0,note_on,,0.0,53.0,0.0,26156,68.11458333333333
4830,0.0,,,,60.0,,,,,0,note_on,,0.0,60.0,0.0,26156,68.11458333333333
4831,0.0,,,,53.0,,,,,52,note_on,,100.0,53.0,100.0,26208,68.25
4832,0.0,,,,60.0,,,,,0,note_on,,100.0,60.0,100.0,26208,68.25
4833,0.0,,,,57.0,,,,,0,note_on,,100.0,57.0,100.0,26208,68.25
4834,0.0,,,,57.0,,,,,44,note_on,,0.0,57.0,0.0,26252,68.36458333333333
4835,0.0,,,,60.0,,,,,0,note_on,,0.0,60.0,0.0,26252,68.36458333333333
4836,0.0,,,,53.0,,,,,0,note_on,,0.0,53.0,0.0,26252,68.36458333333333
4837,0.0,,,,57.0,,,,,52,note_on,,100.0,57.0,100.0,26304,68.5
4838,0.0,,,,53.0,,,,,0,note_on,,100.0,53.0,100.0,26304,68.5
4839,0.0,,,,60.0,,,,,0,note_on,,100.0,60.0,100.0,26304,68.5
4840,0.0,,,,57.0,,,,,44,note_on,,0.0,57.0,0.0,26348,68.61458333333333
4841,0.0,,,,53.0,,,,,0,note_on,,0.0,53.0,0.0,26348,68.61458333333333
4842,0.0,,,,60.0,,,,,0,note_on,,0.0,60.0,0.0,26348,68.61458333333333
4843,0.0,,,,57.0,,,,,52,note_on,,100.0,57.0,100.0,26400,68.75
4844,0.0,,,,60.0,,,,,0,note_on,,100.0,60.0,100.0,26400,68.75
4845,0.0,,,,53.0,,,,,0,note_on,,100.0,53.0,100.0,26400,68.75
4846,0.0,,,,53.0,,,,,44,note_on,,0.0,53.0,0.0,26444,68.86458333333333
4847,0.0,,,,60.0,,,,,0,note_on,,0.0,60.0,0.0,26444,68.86458333333333
4848,0.0,,,,57.0,,,,,0,note_on,,0.0,57.0,0.0,26444,68.86458333333333
4849,0.0,,,,60.0,,,,,52,note_on,,100.0,60.0,100.0,26496,69.0
4850,0.0,,,,53.0,,,,,0,note_on,,100.0,53.0,100.0,26496,69.0
4851,0.0,,,,57.0,,,,,0,note_on,,100.0,57.0,100.0,26496,69.0
4852,0.0,,,,60.0,,,,,44,note_on,,0.0,60.0,0.0,26540,69.11458333333333
4853,0.0,,,,53.0,,,,,0,note_on,,0.0,53.0,0.0,26540,69.11458333333333
4854,0.0,,,,57.0,,,,,0,note_on,,0.0,57.0,0.0,26540,69.11458333333333
4855,0.0,,,,53.0,,,,,52,note_on,,100.0,53.0,100.0,26592,69.25
4856,0.0,,,,60.0,,,,,0,note_on,,100.0,60.0,100.0,26592,69.25
4857,0.0,,,,57.0,,,,,0,note_on,,100.0,57.0,100.0,26592,69.25
4858,0.0,,,,60.0,,,,,44,note_on,,0.0,60.0,0.0,26636,69.36458333333333
4859,0.0,,,,53.0,,,,,0,note_on,,0.0,53.0,0.0,26636,69.36458333333333
4860,0.0,,,,57.0,,,,,0,note_on,,0.0,57.0,0.0,26636,69.36458333333333
4861,0.0,,,,57.0,,,,,52,note_on,,100.0,57.0,100.0,26688,69.5
4862,0.0,,,,53.0,,,,,0,note_on,,100.0,53.0,100.0,26688,69.5
4863,0.0,,,,60.0,,,,,0,note_on,,100.0,60.0,100.0,26688,69.5
4864,0.0,,,,57.0,,,,,44,note_on,,0.0,57.0,0.0,26732,69.61458333333333
4865,0.0,,,,60.0,,,,,0,note_on,,0.0,60.0,0.0,26732,69.61458333333333
4866,0.0,,,,53.0,,,,,0,note_on,,0.0,53.0,0.0,26732,69.61458333333333
4867,0.0,,,,48.0,,,,,52,note_on,,100.0,48.0,100.0,26784,69.75
4868,0.0,,,,48.0,,,,,44,note_on,,0.0,48.0,0.0,26828,69.86458333333333
4869,0.0,,,,55.0,,,,,52,note_on,,100.0,55.0,100.0,26880,70.0
4870,0.0,,,,60.0,,,,,0,note_on,,100.0,60.0,100.0,26880,70.0
4871,0.0,,,,64.0,,,,,0,note_on,,100.0,64.0,100.0,26880,70.0
4872,0.0,,,,55.0,,,,,44,note_on,,0.0,55.0,0.0,26924,70.11458333333333
4873,0.0,,,,64.0,,,,,0,note_on,,0.0,64.0,0.0,26924,70.11458333333333
4874,0.0,,,,60.0,,,,,0,note_on,,0.0,60.0,0.0,26924,70.11458333333333
4875,0.0,,,,55.0,,,,,52,note_on,,100.0,55.0,100.0,26976,70.25
4876,0.0,,,,64.0,,,,,0,note_on,,100.0,64.0,100.0,26976,70.25
4877,0.0,,,,60.0,,,,,0,note_on,,100.0,60.0,100.0,26976,70.25
4878,0.0,,,,55.0,,,,,44,note_on,,0.0,55.0,0.0,27020,70.36458333333333
4879,0.0,,,,64.0,,,,,0,note_on,,0.0,64.0,0.0,27020,70.36458333333333
4880,0.0,,,,60.0,,,,,0,note_on,,0.0,60.0,0.0,27020,70.36458333333333
4881,0.0,,,,64.0,,,,,52,note_on,,100.0,64.0,100.0,27072,70.5
4882,0.0,,,,60.0,,,,,0,note_on,,100.0,60.0,100.0,27072,70.5
4883,0.0,,,,55.0,,,,,0,note_on,,100.0,55.0,100.0,27072,70.5
4884,0.0,,,,55.0,,,,,44,note_on,,0.0,55.0,0.0,27116,70.61458333333333
4885,0.0,,,,64.0,,,,,0,note_on,,0.0,64.0,0.0,27116,70.61458333333333
4886,0.0,,,,60.0,,,,,0,note_on,,0.0,60.0,0.0,27116,70.61458333333333
4887,0.0,,,,64.0,,,,,52,note_on,,100.0,64.0,100.0,27168,70.75
4888,0.0,,,,60.0,,,,,0,note_on,,100.0,60.0,100.0,27168,70.75
4889,0.0,,,,55.0,,,,,0,note_on,,100.0,55.0,100.0,27168,70.75
4890,0.0,,,,64.0,,,,,44,note_on,,0.0,64.0,0.0,27212,70.86458333333333
4891,0.0,,,,60.0,,,,,0,note_on,,0.0,60.0,0.0,27212,70.86458333333333
4892,0.0,,,,55.0,,,,,0,note_on,,0.0,55.0,0.0,27212,70.86458333333333
4893,0.0,,,,64.0,,,,,52,note_on,,100.0,64.0,100.0,27264,71.0
4894,0.0,,,,60.0,,,,,0,note_on,,100.0,60.0,100.0,27264,71.0
4895,0.0,,,,55.0,,,,,0,note_on,,100.0,55.0,100.0,27264,71.0
4896,0.0,,,,60.0,,,,,44,note_on,,0.0,60.0,0.0,27308,71.11458333333333
4897,0.0,,,,64.0,,,,,0,note_on,,0.0,64.0,0.0,27308,71.11458333333333
4898,0.0,,,,55.0,,,,,0,note_on,,0.0,55.0,0.0,27308,71.11458333333333
4899,0.0,,,,64.0,,,,,52,note_on,,100.0,64.0,100.0,27360,71.25
4900,0.0,,,,60.0,,,,,0,note_on,,100.0,60.0,100.0,27360,71.25
4901,0.0,,,,55.0,,,,,0,note_on,,100.0,55.0,100.0,27360,71.25
4902,0.0,,,,64.0,,,,,44,note_on,,0.0,64.0,0.0,27404,71.36458333333333
4903,0.0,,,,60.0,,,,,0,note_on,,0.0,60.0,0.0,27404,71.36458333333333
4904,0.0,,,,55.0,,,,,0,note_on,,0.0,55.0,0.0,27404,71.36458333333333
4905,0.0,,,,55.0,,,,,52,note_on,,100.0,55.0,100.0,27456,71.5
4906,0.0,,,,60.0,,,,,0,note_on,,100.0,60.0,100.0,27456,71.5
4907,0.0,,,,64.0,,,,,0,note_on,,100.0,64.0,100.0,27456,71.5
4908,0.0,,,,60.0,,,,,44,note_on,,0.0,60.0,0.0,27500,71.61458333333333
4909,0.0,,,,55.0,,,,,0,note_on,,0.0,55.0,0.0,27500,71.61458333333333
4910,0.0,,,,64.0,,,,,0,note_on,,0.0,64.0,0.0,27500,71.61458333333333
4911,0.0,,,,64.0,,,,,52,note_on,,100.0,64.0,100.0,27552,71.75
4912,0.0,,,,60.0,,,,,0,note_on,,100.0,60.0,100.0,27552,71.75
4913,0.0,,,,55.0,,,,,0,note_on,,100.0,55.0,100.0,27552,71.75
4914,0.0,,,,64.0,,,,,44,note_on,,0.0,64.0,0.0,27596,71.86458333333333
4915,0.0,,,,60.0,,,,,0,note_on,,0.0,60.0,0.0,27596,71.86458333333333
4916,0.0,,,,55.0,,,,,0,note_on,,0.0,55.0,0.0,27596,71.86458333333333
4917,0.0,,,,62.0,,,,,52,note_on,,100.0,62.0,100.0,27648,72.0
4918,0.0,,,,59.0,,,,,0,note_on,,100.0,59.0,100.0,27648,72.0
4919,0.0,,,,55.0,,,,,0,note_on,,100.0,55.0,100.0,27648,72.0
4920,0.0,,,,59.0,,,,,44,note_on,,0.0,59.0,0.0,27692,72.11458333333333
4921,0.0,,,,62.0,,,,,0,note_on,,0.0,62.0,0.0,27692,72.11458333333333
4922,0.0,,,,55.0,,,,,0,note_on,,0.0,55.0,0.0,27692,72.11458333333333
4923,0.0,,,,55.0,,,,,52,note_on,,100.0,55.0,100.0,27744,72.25
4924,0.0,,,,59.0,,,,,0,note_on,,100.0,59.0,100.0,27744,72.25
4925,0.0,,,,62.0,,,,,0,note_on,,100.0,62.0,100.0,27744,72.25
4926,0.0,,,,59.0,,,,,44,note_on,,0.0,59.0,0.0,27788,72.36458333333333
4927,0.0,,,,62.0,,,,,0,note_on,,0.0,62.0,0.0,27788,72.36458333333333
4928,0.0,,,,55.0,,,,,0,note_on,,0.0,55.0,0.0,27788,72.36458333333333
4929,0.0,,,,55.0,,,,,52,note_on,,100.0,55.0,100.0,27840,72.5
4930,0.0,,,,59.0,,,,,0,note_on,,100.0,59.0,100.0,27840,72.5
4931,0.0,,,,62.0,,,,,0,note_on,,100.0,62.0,100.0,27840,72.5
4932,0.0,,,,55.0,,,,,44,note_on,,0.0,55.0,0.0,27884,72.61458333333333
4933,0.0,,,,62.0,,,,,0,note_on,,0.0,62.0,0.0,27884,72.61458333333333
4934,0.0,,,,59.0,,,,,0,note_on,,0.0,59.0,0.0,27884,72.61458333333333
4935,0.0,,,,59.0,,,,,52,note_on,,100.0,59.0,100.0,27936,72.75
4936,0.0,,,,62.0,,,,,0,note_on,,100.0,62.0,100.0,27936,72.75
4937,0.0,,,,55.0,,,,,0,note_on,,100.0,55.0,100.0,27936,72.75
4938,0.0,,,,62.0,,,,,44,note_on,,0.0,62.0,0.0,27980,72.86458333333333
4939,0.0,,,,55.0,,,,,0,note_on,,0.0,55.0,0.0,27980,72.86458333333333
4940,0.0,,,,59.0,,,,,0,note_on,,0.0,59.0,0.0,27980,72.86458333333333
4941,0.0,,,,55.0,,,,,52,note_on,,100.0,55.0,100.0,28032,73.0
4942,0.0,,,,59.0,,,,,0,note_on,,100.0,59.0,100.0,28032,73.0
4943,0.0,,,,62.0,,,,,0,note_on,,100.0,62.0,100.0,28032,73.0
4944,0.0,,,,62.0,,,,,44,note_on,,0.0,62.0,0.0,28076,73.11458333333333
4945,0.0,,,,59.0,,,,,0,note_on,,0.0,59.0,0.0,28076,73.11458333333333
4946,0.0,,,,55.0,,,,,0,note_on,,0.0,55.0,0.0,28076,73.11458333333333
4947,0.0,,,,62.0,,,,,52,note_on,,100.0,62.0,100.0,28128,73.25
4948,0.0,,,,59.0,,,,,0,note_on,,100.0,59.0,100.0,28128,73.25
4949,0.0,,,,55.0,,,,,0,note_on,,100.0,55.0,100.0,28128,73.25
4950,0.0,,,,62.0,,,,,44,note_on,,0.0,62.0,0.0,28172,73.36458333333333
4951,0.0,,,,59.0,,,,,0,note_on,,0.0,59.0,0.0,28172,73.36458333333333
4952,0.0,,,,55.0,,,,,0,note_on,,0.0,55.0,0.0,28172,73.36458333333333
4953,0.0,,,,55.0,,,,,52,note_on,,100.0,55.0,100.0,28224,73.5
4954,0.0,,,,59.0,,,,,0,note_on,,100.0,59.0,100.0,28224,73.5
4955,0.0,,,,62.0,,,,,0,note_on,,100.0,62.0,100.0,28224,73.5
4956,0.0,,,,55.0,,,,,44,note_on,,0.0,55.0,0.0,28268,73.61458333333333
4957,0.0,,,,59.0,,,,,0,note_on,,0.0,59.0,0.0,28268,73.61458333333333
4958,0.0,,,,62.0,,,,,0,note_on,,0.0,62.0,0.0,28268,73.61458333333333
4959,0.0,,,,59.0,,,,,52,note_on,,100.0,59.0,100.0,28320,73.75
4960,0.0,,,,55.0,,,,,0,note_on,,100.0,55.0,100.0,28320,73.75
4961,0.0,,,,62.0,,,,,0,note_on,,100.0,62.0,100.0,28320,73.75
4962,0.0,,,,55.0,,,,,44,note_on,,0.0,55.0,0.0,28364,73.86458333333333
4963,0.0,,,,62.0,,,,,0,note_on,,0.0,62.0,0.0,28364,73.86458333333333
4964,0.0,,,,59.0,,,,,0,note_on,,0.0,59.0,0.0,28364,73.86458333333333
4965,0.0,,,,55.0,,,,,52,note_on,,100.0,55.0,100.0,28416,74.0
4966,0.0,,,,59.0,,,,,0,note_on,,100.0,59.0,100.0,28416,74.0
4967,0.0,,,,62.0,,,,,0,note_on,,100.0,62.0,100.0,28416,74.0
4968,0.0,,,,59.0,,,,,44,note_on,,0.0,59.0,0.0,28460,74.11458333333333
4969,0.0,,,,55.0,,,,,0,note_on,,0.0,55.0,0.0,28460,74.11458333333333
4970,0.0,,,,62.0,,,,,0,note_on,,0.0,62.0,0.0,28460,74.11458333333333
4971,0.0,,,,59.0,,,,,52,note_on,,100.0,59.0,100.0,28512,74.25
4972,0.0,,,,55.0,,,,,0,note_on,,100.0,55.0,100.0,28512,74.25
4973,0.0,,,,62.0,,,,,0,note_on,,100.0,62.0,100.0,28512,74.25
4974,0.0,,,,55.0,,,,,44,note_on,,0.0,55.0,0.0,28556,74.36458333333333
4975,0.0,,,,62.0,,,,,0,note_on,,0.0,62.0,0.0,28556,74.36458333333333
4976,0.0,,,,59.0,,,,,0,note_on,,0.0,59.0,0.0,28556,74.36458333333333
4977,0.0,,,,59.0,,,,,52,note_on,,100.0,59.0,100.0,28608,74.5
4978,0.0,,,,55.0,,,,,0,note_on,,100.0,55.0,100.0,28608,74.5
4979,0.0,,,,62.0,,,,,0,note_on,,100.0,62.0,100.0,28608,74.5
4980,0.0,,,,62.0,,,,,44,note_on,,0.0,62.0,0.0,28652,74.61458333333333
4981,0.0,,,,55.0,,,,,0,note_on,,0.0,55.0,0.0,28652,74.61458333333333
4982,0.0,,,,59.0,,,,,0,note_on,,0.0,59.0,0.0,28652,74.61458333333333
4983,0.0,,,,59.0,,,,,52,note_on,,100.0,59.0,100.0,28704,74.75
4984,0.0,,,,62.0,,,,,0,note_on,,100.0,62.0,100.0,28704,74.75
4985,0.0,,,,55.0,,,,,0,note_on,,100.0,55.0,100.0,28704,74.75
4986,0.0,,,,59.0,,,,,44,note_on,,0.0,59.0,0.0,28748,74.86458333333333
4987,0.0,,,,62.0,,,,,0,note_on,,0.0,62.0,0.0,28748,74.86458333333333
4988,0.0,,,,55.0,,,,,0,note_on,,0.0,55.0,0.0,28748,74.86458333333333
4989,0.0,,,,62.0,,,,,52,note_on,,100.0,62.0,100.0,28800,75.0
4990,0.0,,,,59.0,,,,,0,note_on,,100.0,59.0,100.0,28800,75.0
4991,0.0,,,,55.0,,,,,0,note_on,,100.0,55.0,100.0,28800,75.0
4992,0.0,,,,62.0,,,,,44,note_on,,0.0,62.0,0.0,28844,75.11458333333333
4993,0.0,,,,59.0,,,,,0,note_on,,0.0,59.0,0.0,28844,75.11458333333333
4994,0.0,,,,55.0,,,,,0,note_on,,0.0,55.0,0.0,28844,75.11458333333333
4995,0.0,,,,62.0,,,,,52,note_on,,100.0,62.0,100.0,28896,75.25
4996,0.0,,,,59.0,,,,,0,note_on,,100.0,59.0,100.0,28896,75.25
4997,0.0,,,,55.0,,,,,0,note_on,,100.0,55.0,100.0,28896,75.25
4998,0.0,,,,59.0,,,,,44,note_on,,0.0,59.0,0.0,28940,75.36458333333333
4999,0.0,,,,55.0,,,,,0,note_on,,0.0,55.0,0.0,28940,75.36458333333333
5000,0.0,,,,62.0,,,,,0,note_on,,0.0,62.0,0.0,28940,75.36458333333333
5001,0.0,,,,59.0,,,,,52,note_on,,100.0,59.0,100.0,28992,75.5
5002,0.0,,,,55.0,,,,,0,note_on,,100.0,55.0,100.0,28992,75.5
5003,0.0,,,,62.0,,,,,0,note_on,,100.0,62.0,100.0,28992,75.5
5004,0.0,,,,62.0,,,,,44,note_on,,0.0,62.0,0.0,29036,75.61458333333333
5005,0.0,,,,59.0,,,,,0,note_on,,0.0,59.0,0.0,29036,75.61458333333333
5006,0.0,,,,55.0,,,,,0,note_on,,0.0,55.0,0.0,29036,75.61458333333333
5007,0.0,,,,59.0,,,,,52,note_on,,100.0,59.0,100.0,29088,75.75
5008,0.0,,,,55.0,,,,,0,note_on,,100.0,55.0,100.0,29088,75.75
5009,0.0,,,,62.0,,,,,0,note_on,,100.0,62.0,100.0,29088,75.75
5010,0.0,,,,55.0,,,,,44,note_on,,0.0,55.0,0.0,29132,75.86458333333333
5011,0.0,,,,62.0,,,,,0,note_on,,0.0,62.0,0.0,29132,75.86458333333333
5012,0.0,,,,59.0,,,,,0,note_on,,0.0,59.0,0.0,29132,75.86458333333333
5013,0.0,,,,60.0,,,,,52,note_on,,100.0,60.0,100.0,29184,76.0
5014,0.0,,,,53.0,,,,,0,note_on,,100.0,53.0,100.0,29184,76.0
5015,0.0,,,,57.0,,,,,0,note_on,,100.0,57.0,100.0,29184,76.0
5016,0.0,,,,57.0,,,,,44,note_on,,0.0,57.0,0.0,29228,76.11458333333333
5017,0.0,,,,60.0,,,,,0,note_on,,0.0,60.0,0.0,29228,76.11458333333333
5018,0.0,,,,53.0,,,,,0,note_on,,0.0,53.0,0.0,29228,76.11458333333333
5019,0.0,,,,53.0,,,,,52,note_on,,100.0,53.0,100.0,29280,76.25
5020,0.0,,,,60.0,,,,,0,note_on,,100.0,60.0,100.0,29280,76.25
5021,0.0,,,,57.0,,,,,0,note_on,,100.0,57.0,100.0,29280,76.25
5022,0.0,,,,53.0,,,,,44,note_on,,0.0,53.0,0.0,29324,76.36458333333333
5023,0.0,,,,60.0,,,,,0,note_on,,0.0,60.0,0.0,29324,76.36458333333333
5024,0.0,,,,57.0,,,,,0,note_on,,0.0,57.0,0.0,29324,76.36458333333333
5025,0.0,,,,57.0,,,,,52,note_on,,100.0,57.0,100.0,29376,76.5
5026,0.0,,,,60.0,,,,,0,note_on,,100.0,60.0,100.0,29376,76.5
5027,0.0,,,,53.0,,,,,0,note_on,,100.0,53.0,100.0,29376,76.5
5028,0.0,,,,57.0,,,,,44,note_on,,0.0,57.0,0.0,29420,76.61458333333333
5029,0.0,,,,60.0,,,,,0,note_on,,0.0,60.0,0.0,29420,76.61458333333333
5030,0.0,,,,53.0,,,,,0,note_on,,0.0,53.0,0.0,29420,76.61458333333333
5031,0.0,,,,53.0,,,,,52,note_on,,100.0,53.0,100.0,29472,76.75
5032,0.0,,,,57.0,,,,,0,note_on,,100.0,57.0,100.0,29472,76.75
5033,0.0,,,,60.0,,,,,0,note_on,,100.0,60.0,100.0,29472,76.75
5034,0.0,,,,57.0,,,,,44,note_on,,0.0,57.0,0.0,29516,76.86458333333333
5035,0.0,,,,60.0,,,,,0,note_on,,0.0,60.0,0.0,29516,76.86458333333333
5036,0.0,,,,53.0,,,,,0,note_on,,0.0,53.0,0.0,29516,76.86458333333333
5037,0.0,,,,57.0,,,,,52,note_on,,100.0,57.0,100.0,29568,77.0
5038,0.0,,,,60.0,,,,,0,note_on,,100.0,60.0,100.0,29568,77.0
5039,0.0,,,,53.0,,,,,0,note_on,,100.0,53.0,100.0,29568,77.0
5040,0.0,,,,60.0,,,,,44,note_on,,0.0,60.0,0.0,29612,77.11458333333333
5041,0.0,,,,53.0,,,,,0,note_on,,0.0,53.0,0.0,29612,77.11458333333333
5042,0.0,,,,57.0,,,,,0,note_on,,0.0,57.0,0.0,29612,77.11458333333333
5043,0.0,,,,57.0,,,,,52,note_on,,100.0,57.0,100.0,29664,77.25
5044,0.0,,,,53.0,,,,,0,note_on,,100.0,53.0,100.0,29664,77.25
5045,0.0,,,,60.0,,,,,0,note_on,,100.0,60.0,100.0,29664,77.25
5046,0.0,,,,57.0,,,,,44,note_on,,0.0,57.0,0.0,29708,77.36458333333333
5047,0.0,,,,53.0,,,,,0,note_on,,0.0,53.0,0.0,29708,77.36458333333333
5048,0.0,,,,60.0,,,,,0,note_on,,0.0,60.0,0.0,29708,77.36458333333333
5049,0.0,,,,57.0,,,,,52,note_on,,100.0,57.0,100.0,29760,77.5
5050,0.0,,,,53.0,,,,,0,note_on,,100.0,53.0,100.0,29760,77.5
5051,0.0,,,,60.0,,,,,0,note_on,,100.0,60.0,100.0,29760,77.5
5052,0.0,,,,53.0,,,,,44,note_on,,0.0,53.0,0.0,29804,77.61458333333333
5053,0.0,,,,57.0,,,,,0,note_on,,0.0,57.0,0.0,29804,77.61458333333333
5054,0.0,,,,60.0,,,,,0,note_on,,0.0,60.0,0.0,29804,77.61458333333333
5055,0.0,,,,48.0,,,,,52,note_on,,100.0,48.0,100.0,29856,77.75
5056,0.0,,,,48.0,,,,,44,note_on,,0.0,48.0,0.0,29900,77.86458333333333
5057,0.0,,,,60.0,,,,,52,note_on,,100.0,60.0,100.0,29952,78.0
5058,0.0,,,,55.0,,,,,0,note_on,,100.0,55.0,100.0,29952,78.0
5059,0.0,,,,64.0,,,,,0,note_on,,100.0,64.0,100.0,29952,78.0
5060,0.0,,,,60.0,,,,,44,note_on,,0.0,60.0,0.0,29996,78.11458333333333
5061,0.0,,,,55.0,,,,,0,note_on,,0.0,55.0,0.0,29996,78.11458333333333
5062,0.0,,,,64.0,,,,,0,note_on,,0.0,64.0,0.0,29996,78.11458333333333
5063,0.0,,,,64.0,,,,,52,note_on,,100.0,64.0,100.0,30048,78.25
5064,0.0,,,,60.0,,,,,0,note_on,,100.0,60.0,100.0,30048,78.25
5065,0.0,,,,55.0,,,,,0,note_on,,100.0,55.0,100.0,30048,78.25
5066,0.0,,,,64.0,,,,,44,note_on,,0.0,64.0,0.0,30092,78.36458333333333
5067,0.0,,,,60.0,,,,,0,note_on,,0.0,60.0,0.0,30092,78.36458333333333
5068,0.0,,,,55.0,,,,,0,note_on,,0.0,55.0,0.0,30092,78.36458333333333
5069,0.0,,,,64.0,,,,,52,note_on,,100.0,64.0,100.0,30144,78.5
5070,0.0,,,,55.0,,,,,0,note_on,,100.0,55.0,100.0,30144,78.5
5071,0.0,,,,60.0,,,,,0,note_on,,100.0,60.0,100.0,30144,78.5
5072,0.0,,,,64.0,,,,,44,note_on,,0.0,64.0,0.0,30188,78.61458333333333
5073,0.0,,,,55.0,,,,,0,note_on,,0.0,55.0,0.0,30188,78.61458333333333
5074,0.0,,,,60.0,,,,,0,note_on,,0.0,60.0,0.0,30188,78.61458333333333
5075,0.0,,,,64.0,,,,,52,note_on,,100.0,64.0,100.0,30240,78.75
5076,0.0,,,,60.0,,,,,0,note_on,,100.0,60.0,100.0,30240,78.75
5077,0.0,,,,55.0,,,,,0,note_on,,100.0,55.0,100.0,30240,78.75
5078,0.0,,,,64.0,,,,,44,note_on,,0.0,64.0,0.0,30284,78.86458333333333
5079,0.0,,,,55.0,,,,,0,note_on,,0.0,55.0,0.0,30284,78.86458333333333
5080,0.0,,,,60.0,,,,,0,note_on,,0.0,60.0,0.0,30284,78.86458333333333
5081,0.0,,,,60.0,,,,,52,note_on,,100.0,60.0,100.0,30336,79.0
5082,0.0,,,,64.0,,,,,0,note_on,,100.0,64.0,100.0,30336,79.0
5083,0.0,,,,55.0,,,,,0,note_on,,100.0,55.0,100.0,30336,79.0
5084,0.0,,,,60.0,,,,,44,note_on,,0.0,60.0,0.0,30380,79.11458333333333
5085,0.0,,,,64.0,,,,,0,note_on,,0.0,64.0,0.0,30380,79.11458333333333
5086,0.0,,,,55.0,,,,,0,note_on,,0.0,55.0,0.0,30380,79.11458333333333
5087,0.0,,,,55.0,,,,,52,note_on,,100.0,55.0,100.0,30432,79.25
5088,0.0,,,,60.0,,,,,0,note_on,,100.0,60.0,100.0,30432,79.25
5089,0.0,,,,64.0,,,,,0,note_on,,100.0,64.0,100.0,30432,79.25
5090,0.0,,,,55.0,,,,,44,note_on,,0.0,55.0,0.0,30476,79.36458333333333
5091,0.0,,,,60.0,,,,,0,note_on,,0.0,60.0,0.0,30476,79.36458333333333
5092,0.0,,,,64.0,,,,,0,note_on,,0.0,64.0,0.0,30476,79.36458333333333
5093,0.0,,,,64.0,,,,,52,note_on,,100.0,64.0,100.0,30528,79.5
5094,0.0,,,,55.0,,,,,0,note_on,,100.0,55.0,100.0,30528,79.5
5095,0.0,,,,60.0,,,,,0,note_on,,100.0,60.0,100.0,30528,79.5
5096,0.0,,,,64.0,,,,,44,note_on,,0.0,64.0,0.0,30572,79.61458333333333
5097,0.0,,,,55.0,,,,,0,note_on,,0.0,55.0,0.0,30572,79.61458333333333
5098,0.0,,,,60.0,,,,,0,note_on,,0.0,60.0,0.0,30572,79.61458333333333
5099,0.0,,,,60.0,,,,,52,note_on,,100.0,60.0,100.0,30624,79.75
5100,0.0,,,,64.0,,,,,0,note_on,,100.0,64.0,100.0,30624,79.75
5101,0.0,,,,55.0,,,,,0,note_on,,100.0,55.0,100.0,30624,79.75
5102,0.0,,,,60.0,,,,,44,note_on,,0.0,60.0,0.0,30668,79.86458333333333
5103,0.0,,,,55.0,,,,,0,note_on,,0.0,55.0,0.0,30668,79.86458333333333
5104,0.0,,,,64.0,,,,,0,note_on,,0.0,64.0,0.0,30668,79.86458333333333
5105,0.0,,,,62.0,,,,,52,note_on,,100.0,62.0,100.0,30720,80.0
5106,0.0,,,,55.0,,,,,0,note_on,,100.0,55.0,100.0,30720,80.0
5107,0.0,,,,59.0,,,,,0,note_on,,100.0,59.0,100.0,30720,80.0
5108,0.0,,,,62.0,,,,,44,note_on,,0.0,62.0,0.0,30764,80.11458333333333
5109,0.0,,,,55.0,,,,,0,note_on,,0.0,55.0,0.0,30764,80.11458333333333
5110,0.0,,,,59.0,,,,,0,note_on,,0.0,59.0,0.0,30764,80.11458333333333
5111,0.0,,,,55.0,,,,,52,note_on,,100.0,55.0,100.0,30816,80.25
5112,0.0,,,,59.0,,,,,0,note_on,,100.0,59.0,100.0,30816,80.25
5113,0.0,,,,62.0,,,,,0,note_on,,100.0,62.0,100.0,30816,80.25
5114,0.0,,,,55.0,,,,,44,note_on,,0.0,55.0,0.0,30860,80.36458333333333
5115,0.0,,,,59.0,,,,,0,note_on,,0.0,59.0,0.0,30860,80.36458333333333
5116,0.0,,,,62.0,,,,,0,note_on,,0.0,62.0,0.0,30860,80.36458333333333
5117,0.0,,,,59.0,,,,,52,note_on,,100.0,59.0,100.0,30912,80.5
5118,0.0,,,,55.0,,,,,0,note_on,,100.0,55.0,100.0,30912,80.5
5119,0.0,,,,62.0,,,,,0,note_on,,100.0,62.0,100.0,30912,80.5
5120,0.0,,,,59.0,,,,,44,note_on,,0.0,59.0,0.0,30956,80.61458333333333
5121,0.0,,,,55.0,,,,,0,note_on,,0.0,55.0,0.0,30956,80.61458333333333
5122,0.0,,,,62.0,,,,,0,note_on,,0.0,62.0,0.0,30956,80.61458333333333
5123,0.0,,,,55.0,,,,,52,note_on,,100.0,55.0,100.0,31008,80.75
5124,0.0,,,,59.0,,,,,0,note_on,,100.0,59.0,100.0,31008,80.75
5125,0.0,,,,62.0,,,,,0,note_on,,100.0,62.0,100.0,31008,80.75
5126,0.0,,,,62.0,,,,,44,note_on,,0.0,62.0,0.0,31052,80.86458333333333
5127,0.0,,,,59.0,,,,,0,note_on,,0.0,59.0,0.0,31052,80.86458333333333
5128,0.0,,,,55.0,,,,,0,note_on,,0.0,55.0,0.0,31052,80.86458333333333
5129,0.0,,,,62.0,,,,,52,note_on,,100.0,62.0,100.0,31104,81.0
5130,0.0,,,,59.0,,,,,0,note_on,,100.0,59.0,100.0,31104,81.0
5131,0.0,,,,55.0,,,,,0,note_on,,100.0,55.0,100.0,31104,81.0
5132,0.0,,,,62.0,,,,,44,note_on,,0.0,62.0,0.0,31148,81.11458333333333
5133,0.0,,,,59.0,,,,,0,note_on,,0.0,59.0,0.0,31148,81.11458333333333
5134,0.0,,,,55.0,,,,,0,note_on,,0.0,55.0,0.0,31148,81.11458333333333
5135,0.0,,,,62.0,,,,,52,note_on,,100.0,62.0,100.0,31200,81.25
5136,0.0,,,,59.0,,,,,0,note_on,,100.0,59.0,100.0,31200,81.25
5137,0.0,,,,55.0,,,,,0,note_on,,100.0,55.0,100.0,31200,81.25
5138,0.0,,,,62.0,,,,,44,note_on,,0.0,62.0,0.0,31244,81.36458333333333
5139,0.0,,,,59.0,,,,,0,note_on,,0.0,59.0,0.0,31244,81.36458333333333
5140,0.0,,,,55.0,,,,,0,note_on,,0.0,55.0,0.0,31244,81.36458333333333
5141,0.0,,,,62.0,,,,,52,note_on,,100.0,62.0,100.0,31296,81.5
5142,0.0,,,,55.0,,,,,0,note_on,,100.0,55.0,100.0,31296,81.5
5143,0.0,,,,59.0,,,,,0,note_on,,100.0,59.0,100.0,31296,81.5
5144,0.0,,,,62.0,,,,,44,note_on,,0.0,62.0,0.0,31340,81.61458333333333
5145,0.0,,,,55.0,,,,,0,note_on,,0.0,55.0,0.0,31340,81.61458333333333
5146,0.0,,,,59.0,,,,,0,note_on,,0.0,59.0,0.0,31340,81.61458333333333
5147,0.0,,,,55.0,,,,,52,note_on,,100.0,55.0,100.0,31392,81.75
5148,0.0,,,,62.0,,,,,0,note_on,,100.0,62.0,100.0,31392,81.75
5149,0.0,,,,59.0,,,,,0,note_on,,100.0,59.0,100.0,31392,81.75
5150,0.0,,,,59.0,,,,,44,note_on,,0.0,59.0,0.0,31436,81.86458333333333
5151,0.0,,,,62.0,,,,,0,note_on,,0.0,62.0,0.0,31436,81.86458333333333
5152,0.0,,,,55.0,,,,,0,note_on,,0.0,55.0,0.0,31436,81.86458333333333
5153,0.0,,,,59.0,,,,,52,note_on,,100.0,59.0,100.0,31488,82.0
5154,0.0,,,,55.0,,,,,0,note_on,,100.0,55.0,100.0,31488,82.0
5155,0.0,,,,62.0,,,,,0,note_on,,100.0,62.0,100.0,31488,82.0
5156,0.0,,,,59.0,,,,,44,note_on,,0.0,59.0,0.0,31532,82.11458333333333
5157,0.0,,,,55.0,,,,,0,note_on,,0.0,55.0,0.0,31532,82.11458333333333
5158,0.0,,,,62.0,,,,,0,note_on,,0.0,62.0,0.0,31532,82.11458333333333
5159,0.0,,,,59.0,,,,,52,note_on,,100.0,59.0,100.0,31584,82.25
5160,0.0,,,,55.0,,,,,0,note_on,,100.0,55.0,100.0,31584,82.25
5161,0.0,,,,62.0,,,,,0,note_on,,100.0,62.0,100.0,31584,82.25
5162,0.0,,,,59.0,,,,,44,note_on,,0.0,59.0,0.0,31628,82.36458333333333
5163,0.0,,,,55.0,,,,,0,note_on,,0.0,55.0,0.0,31628,82.36458333333333
5164,0.0,,,,62.0,,,,,0,note_on,,0.0,62.0,0.0,31628,82.36458333333333
5165,0.0,,,,59.0,,,,,52,note_on,,100.0,59.0,100.0,31680,82.5
5166,0.0,,,,55.0,,,,,0,note_on,,100.0,55.0,100.0,31680,82.5
5167,0.0,,,,62.0,,,,,0,note_on,,100.0,62.0,100.0,31680,82.5
5168,0.0,,,,59.0,,,,,44,note_on,,0.0,59.0,0.0,31724,82.61458333333333
5169,0.0,,,,55.0,,,,,0,note_on,,0.0,55.0,0.0,31724,82.61458333333333
5170,0.0,,,,62.0,,,,,0,note_on,,0.0,62.0,0.0,31724,82.61458333333333
5171,0.0,,,,62.0,,,,,52,note_on,,100.0,62.0,100.0,31776,82.75
5172,0.0,,,,55.0,,,,,0,note_on,,100.0,55.0,100.0,31776,82.75
5173,0.0,,,,59.0,,,,,0,note_on,,100.0,59.0,100.0,31776,82.75
5174,0.0,,,,55.0,,,,,44,note_on,,0.0,55.0,0.0,31820,82.86458333333333
5175,0.0,,,,59.0,,,,,0,note_on,,0.0,59.0,0.0,31820,82.86458333333333
5176,0.0,,,,62.0,,,,,0,note_on,,0.0,62.0,0.0,31820,82.86458333333333
5177,0.0,,,,55.0,,,,,52,note_on,,100.0,55.0,100.0,31872,83.0
5178,0.0,,,,59.0,,,,,0,note_on,,100.0,59.0,100.0,31872,83.0
5179,0.0,,,,62.0,,,,,0,note_on,,100.0,62.0,100.0,31872,83.0
5180,0.0,,,,55.0,,,,,44,note_on,,0.0,55.0,0.0,31916,83.11458333333333
5181,0.0,,,,59.0,,,,,0,note_on,,0.0,59.0,0.0,31916,83.11458333333333
5182,0.0,,,,62.0,,,,,0,note_on,,0.0,62.0,0.0,31916,83.11458333333333
5183,0.0,,,,59.0,,,,,52,note_on,,100.0,59.0,100.0,31968,83.25
5184,0.0,,,,62.0,,,,,0,note_on,,100.0,62.0,100.0,31968,83.25
5185,0.0,,,,55.0,,,,,0,note_on,,100.0,55.0,100.0,31968,83.25
5186,0.0,,,,59.0,,,,,44,note_on,,0.0,59.0,0.0,32012,83.36458333333333
5187,0.0,,,,62.0,,,,,0,note_on,,0.0,62.0,0.0,32012,83.36458333333333
5188,0.0,,,,55.0,,,,,0,note_on,,0.0,55.0,0.0,32012,83.36458333333333
5189,0.0,,,,55.0,,,,,52,note_on,,100.0,55.0,100.0,32064,83.5
5190,0.0,,,,59.0,,,,,0,note_on,,100.0,59.0,100.0,32064,83.5
5191,0.0,,,,62.0,,,,,0,note_on,,100.0,62.0,100.0,32064,83.5
5192,0.0,,,,55.0,,,,,44,note_on,,0.0,55.0,0.0,32108,83.61458333333333
5193,0.0,,,,59.0,,,,,0,note_on,,0.0,59.0,0.0,32108,83.61458333333333
5194,0.0,,,,62.0,,,,,0,note_on,,0.0,62.0,0.0,32108,83.61458333333333
5195,0.0,,,,62.0,,,,,52,note_on,,100.0,62.0,100.0,32160,83.75
5196,0.0,,,,55.0,,,,,0,note_on,,100.0,55.0,100.0,32160,83.75
5197,0.0,,,,59.0,,,,,0,note_on,,100.0,59.0,100.0,32160,83.75
5198,0.0,,,,55.0,,,,,44,note_on,,0.0,55.0,0.0,32204,83.86458333333333
5199,0.0,,,,59.0,,,,,0,note_on,,0.0,59.0,0.0,32204,83.86458333333333
5200,0.0,,,,62.0,,,,,0,note_on,,0.0,62.0,0.0,32204,83.86458333333333
5201,0.0,,,,57.0,,,,,52,note_on,,100.0,57.0,100.0,32256,84.0
5202,0.0,,,,53.0,,,,,0,note_on,,100.0,53.0,100.0,32256,84.0
5203,0.0,,,,60.0,,,,,0,note_on,,100.0,60.0,100.0,32256,84.0
5204,0.0,,,,57.0,,,,,44,note_on,,0.0,57.0,0.0,32300,84.11458333333333
5205,0.0,,,,53.0,,,,,0,note_on,,0.0,53.0,0.0,32300,84.11458333333333
5206,0.0,,,,60.0,,,,,0,note_on,,0.0,60.0,0.0,32300,84.11458333333333
5207,0.0,,,,60.0,,,,,52,note_on,,100.0,60.0,100.0,32352,84.25
5208,0.0,,,,57.0,,,,,0,note_on,,100.0,57.0,100.0,32352,84.25
5209,0.0,,,,53.0,,,,,0,note_on,,100.0,53.0,100.0,32352,84.25
5210,0.0,,,,60.0,,,,,44,note_on,,0.0,60.0,0.0,32396,84.36458333333333
5211,0.0,,,,57.0,,,,,0,note_on,,0.0,57.0,0.0,32396,84.36458333333333
5212,0.0,,,,53.0,,,,,0,note_on,,0.0,53.0,0.0,32396,84.36458333333333
5213,0.0,,,,57.0,,,,,52,note_on,,100.0,57.0,100.0,32448,84.5
5214,0.0,,,,60.0,,,,,0,note_on,,100.0,60.0,100.0,32448,84.5
5215,0.0,,,,53.0,,,,,0,note_on,,100.0,53.0,100.0,32448,84.5
5216,0.0,,,,57.0,,,,,44,note_on,,0.0,57.0,0.0,32492,84.61458333333333
5217,0.0,,,,60.0,,,,,0,note_on,,0.0,60.0,0.0,32492,84.61458333333333
5218,0.0,,,,53.0,,,,,0,note_on,,0.0,53.0,0.0,32492,84.61458333333333
5219,0.0,,,,53.0,,,,,52,note_on,,100.0,53.0,100.0,32544,84.75
5220,0.0,,,,60.0,,,,,0,note_on,,100.0,60.0,100.0,32544,84.75
5221,0.0,,,,57.0,,,,,0,note_on,,100.0,57.0,100.0,32544,84.75
5222,0.0,,,,57.0,,,,,44,note_on,,0.0,57.0,0.0,32588,84.86458333333333
5223,0.0,,,,53.0,,,,,0,note_on,,0.0,53.0,0.0,32588,84.86458333333333
5224,0.0,,,,60.0,,,,,0,note_on,,0.0,60.0,0.0,32588,84.86458333333333
5225,0.0,,,,60.0,,,,,52,note_on,,100.0,60.0,100.0,32640,85.0
5226,0.0,,,,53.0,,,,,0,note_on,,100.0,53.0,100.0,32640,85.0
5227,0.0,,,,57.0,,,,,0,note_on,,100.0,57.0,100.0,32640,85.0
5228,0.0,,,,60.0,,,,,44,note_on,,0.0,60.0,0.0,32684,85.11458333333333
5229,0.0,,,,53.0,,,,,0,note_on,,0.0,53.0,0.0,32684,85.11458333333333
5230,0.0,,,,57.0,,,,,0,note_on,,0.0,57.0,0.0,32684,85.11458333333333
5231,0.0,,,,57.0,,,,,52,note_on,,100.0,57.0,100.0,32736,85.25
5232,0.0,,,,60.0,,,,,0,note_on,,100.0,60.0,100.0,32736,85.25
5233,0.0,,,,53.0,,,,,0,note_on,,100.0,53.0,100.0,32736,85.25
5234,0.0,,,,57.0,,,,,44,note_on,,0.0,57.0,0.0,32780,85.36458333333333
5235,0.0,,,,60.0,,,,,0,note_on,,0.0,60.0,0.0,32780,85.36458333333333
5236,0.0,,,,53.0,,,,,0,note_on,,0.0,53.0,0.0,32780,85.36458333333333
5237,0.0,,,,60.0,,,,,52,note_on,,100.0,60.0,100.0,32832,85.5
5238,0.0,,,,53.0,,,,,0,note_on,,100.0,53.0,100.0,32832,85.5
5239,0.0,,,,57.0,,,,,0,note_on,,100.0,57.0,100.0,32832,85.5
5240,0.0,,,,57.0,,,,,44,note_on,,0.0,57.0,0.0,32876,85.61458333333333
5241,0.0,,,,53.0,,,,,0,note_on,,0.0,53.0,0.0,32876,85.61458333333333
5242,0.0,,,,60.0,,,,,0,note_on,,0.0,60.0,0.0,32876,85.61458333333333
5243,0.0,,,,48.0,,,,,52,note_on,,100.0,48.0,100.0,32928,85.75
5244,0.0,,,,48.0,,,,,44,note_on,,0.0,48.0,0.0,32972,85.86458333333333
5245,0.0,,,,60.0,,,,,52,note_on,,100.0,60.0,100.0,33024,86.0
5246,0.0,,,,64.0,,,,,0,note_on,,100.0,64.0,100.0,33024,86.0
5247,0.0,,,,55.0,,,,,0,note_on,,100.0,55.0,100.0,33024,86.0
5248,0.0,,,,60.0,,,,,44,note_on,,0.0,60.0,0.0,33068,86.11458333333333
5249,0.0,,,,64.0,,,,,0,note_on,,0.0,64.0,0.0,33068,86.11458333333333
5250,0.0,,,,55.0,,,,,0,note_on,,0.0,55.0,0.0,33068,86.11458333333333
5251,0.0,,,,60.0,,,,,52,note_on,,100.0,60.0,100.0,33120,86.25
5252,0.0,,,,55.0,,,,,0,note_on,,100.0,55.0,100.0,33120,86.25
5253,0.0,,,,64.0,,,,,0,note_on,,100.0,64.0,100.0,33120,86.25
5254,0.0,,,,64.0,,,,,44,note_on,,0.0,64.0,0.0,33164,86.36458333333333
5255,0.0,,,,60.0,,,,,0,note_on,,0.0,60.0,0.0,33164,86.36458333333333
5256,0.0,,,,55.0,,,,,0,note_on,,0.0,55.0,0.0,33164,86.36458333333333
5257,0.0,,,,64.0,,,,,52,note_on,,100.0,64.0,100.0,33216,86.5
5258,0.0,,,,60.0,,,,,0,note_on,,100.0,60.0,100.0,33216,86.5
5259,0.0,,,,55.0,,,,,0,note_on,,100.0,55.0,100.0,33216,86.5
5260,0.0,,,,64.0,,,,,44,note_on,,0.0,64.0,0.0,33260,86.61458333333333
5261,0.0,,,,60.0,,,,,0,note_on,,0.0,60.0,0.0,33260,86.61458333333333
5262,0.0,,,,55.0,,,,,0,note_on,,0.0,55.0,0.0,33260,86.61458333333333
5263,0.0,,,,64.0,,,,,52,note_on,,100.0,64.0,100.0,33312,86.75
5264,0.0,,,,55.0,,,,,0,note_on,,100.0,55.0,100.0,33312,86.75
5265,0.0,,,,60.0,,,,,0,note_on,,100.0,60.0,100.0,33312,86.75
5266,0.0,,,,60.0,,,,,44,note_on,,0.0,60.0,0.0,33356,86.86458333333333
5267,0.0,,,,64.0,,,,,0,note_on,,0.0,64.0,0.0,33356,86.86458333333333
5268,0.0,,,,55.0,,,,,0,note_on,,0.0,55.0,0.0,33356,86.86458333333333
5269,0.0,,,,55.0,,,,,52,note_on,,100.0,55.0,100.0,33408,87.0
5270,0.0,,,,60.0,,,,,0,note_on,,100.0,60.0,100.0,33408,87.0
5271,0.0,,,,64.0,,,,,0,note_on,,100.0,64.0,100.0,33408,87.0
5272,0.0,,,,55.0,,,,,44,note_on,,0.0,55.0,0.0,33452,87.11458333333333
5273,0.0,,,,60.0,,,,,0,note_on,,0.0,60.0,0.0,33452,87.11458333333333
5274,0.0,,,,64.0,,,,,0,note_on,,0.0,64.0,0.0,33452,87.11458333333333
5275,0.0,,,,64.0,,,,,52,note_on,,100.0,64.0,100.0,33504,87.25
5276,0.0,,,,60.0,,,,,0,note_on,,100.0,60.0,100.0,33504,87.25
5277,0.0,,,,55.0,,,,,0,note_on,,100.0,55.0,100.0,33504,87.25
5278,0.0,,,,55.0,,,,,44,note_on,,0.0,55.0,0.0,33548,87.36458333333333
5279,0.0,,,,64.0,,,,,0,note_on,,0.0,64.0,0.0,33548,87.36458333333333
5280,0.0,,,,60.0,,,,,0,note_on,,0.0,60.0,0.0,33548,87.36458333333333
5281,0.0,,,,60.0,,,,,52,note_on,,100.0,60.0,100.0,33600,87.5
5282,0.0,,,,64.0,,,,,0,note_on,,100.0,64.0,100.0,33600,87.5
5283,0.0,,,,55.0,,,,,0,note_on,,100.0,55.0,100.0,33600,87.5
5284,0.0,,,,60.0,,,,,44,note_on,,0.0,60.0,0.0,33644,87.61458333333333
5285,0.0,,,,64.0,,,,,0,note_on,,0.0,64.0,0.0,33644,87.61458333333333
5286,0.0,,,,55.0,,,,,0,note_on,,0.0,55.0,0.0,33644,87.61458333333333
5287,0.0,,,,55.0,,,,,52,note_on,,100.0,55.0,100.0,33696,87.75
5288,0.0,,,,64.0,,,,,0,note_on,,100.0,64.0,100.0,33696,87.75
5289,0.0,,,,60.0,,,,,0,note_on,,100.0,60.0,100.0,33696,87.75
5290,0.0,,,,55.0,,,,,44,note_on,,0.0,55.0,0.0,33740,87.86458333333333
5291,0.0,,,,64.0,,,,,0,note_on,,0.0,64.0,0.0,33740,87.86458333333333
5292,0.0,,,,60.0,,,,,0,note_on,,0.0,60.0,0.0,33740,87.86458333333333
5293,0.0,,,,62.0,,,,,52,note_on,,100.0,62.0,100.0,33792,88.0
5294,0.0,,,,59.0,,,,,0,note_on,,100.0,59.0,100.0,33792,88.0
5295,0.0,,,,55.0,,,,,0,note_on,,100.0,55.0,100.0,33792,88.0
5296,0.0,,,,59.0,,,,,44,note_on,,0.0,59.0,0.0,33836,88.11458333333333
5297,0.0,,,,55.0,,,,,0,note_on,,0.0,55.0,0.0,33836,88.11458333333333
5298,0.0,,,,62.0,,,,,0,note_on,,0.0,62.0,0.0,33836,88.11458333333333
5299,0.0,,,,59.0,,,,,52,note_on,,100.0,59.0,100.0,33888,88.25
5300,0.0,,,,55.0,,,,,0,note_on,,100.0,55.0,100.0,33888,88.25
5301,0.0,,,,62.0,,,,,0,note_on,,100.0,62.0,100.0,33888,88.25
5302,0.0,,,,59.0,,,,,44,note_on,,0.0,59.0,0.0,33932,88.36458333333333
5303,0.0,,,,55.0,,,,,0,note_on,,0.0,55.0,0.0,33932,88.36458333333333
5304,0.0,,,,62.0,,,,,0,note_on,,0.0,62.0,0.0,33932,88.36458333333333
5305,0.0,,,,62.0,,,,,52,note_on,,100.0,62.0,100.0,33984,88.5
5306,0.0,,,,55.0,,,,,0,note_on,,100.0,55.0,100.0,33984,88.5
5307,0.0,,,,59.0,,,,,0,note_on,,100.0,59.0,100.0,33984,88.5
5308,0.0,,,,55.0,,,,,44,note_on,,0.0,55.0,0.0,34028,88.61458333333333
5309,0.0,,,,59.0,,,,,0,note_on,,0.0,59.0,0.0,34028,88.61458333333333
5310,0.0,,,,62.0,,,,,0,note_on,,0.0,62.0,0.0,34028,88.61458333333333
5311,0.0,,,,55.0,,,,,52,note_on,,100.0,55.0,100.0,34080,88.75
5312,0.0,,,,62.0,,,,,0,note_on,,100.0,62.0,100.0,34080,88.75
5313,0.0,,,,59.0,,,,,0,note_on,,100.0,59.0,100.0,34080,88.75
5314,0.0,,,,55.0,,,,,44,note_on,,0.0,55.0,0.0,34124,88.86458333333333
5315,0.0,,,,62.0,,,,,0,note_on,,0.0,62.0,0.0,34124,88.86458333333333
5316,0.0,,,,59.0,,,,,0,note_on,,0.0,59.0,0.0,34124,88.86458333333333
5317,0.0,,,,62.0,,,,,52,note_on,,100.0,62.0,100.0,34176,89.0
5318,0.0,,,,55.0,,,,,0,note_on,,100.0,55.0,100.0,34176,89.0
5319,0.0,,,,59.0,,,,,0,note_on,,100.0,59.0,100.0,34176,89.0
5320,0.0,,,,55.0,,,,,44,note_on,,0.0,55.0,0.0,34220,89.11458333333333
5321,0.0,,,,59.0,,,,,0,note_on,,0.0,59.0,0.0,34220,89.11458333333333
5322,0.0,,,,62.0,,,,,0,note_on,,0.0,62.0,0.0,34220,89.11458333333333
5323,0.0,,,,62.0,,,,,52,note_on,,100.0,62.0,100.0,34272,89.25
5324,0.0,,,,55.0,,,,,0,note_on,,100.0,55.0,100.0,34272,89.25
5325,0.0,,,,59.0,,,,,0,note_on,,100.0,59.0,100.0,34272,89.25
5326,0.0,,,,62.0,,,,,44,note_on,,0.0,62.0,0.0,34316,89.36458333333333
5327,0.0,,,,55.0,,,,,0,note_on,,0.0,55.0,0.0,34316,89.36458333333333
5328,0.0,,,,59.0,,,,,0,note_on,,0.0,59.0,0.0,34316,89.36458333333333
5329,0.0,,,,62.0,,,,,52,note_on,,100.0,62.0,100.0,34368,89.5
5330,0.0,,,,55.0,,,,,0,note_on,,100.0,55.0,100.0,34368,89.5
5331,0.0,,,,59.0,,,,,0,note_on,,100.0,59.0,100.0,34368,89.5
5332,0.0,,,,55.0,,,,,44,note_on,,0.0,55.0,0.0,34412,89.61458333333333
5333,0.0,,,,59.0,,,,,0,note_on,,0.0,59.0,0.0,34412,89.61458333333333
5334,0.0,,,,62.0,,,,,0,note_on,,0.0,62.0,0.0,34412,89.61458333333333
5335,0.0,,,,59.0,,,,,52,note_on,,100.0,59.0,100.0,34464,89.75
5336,0.0,,,,55.0,,,,,0,note_on,,100.0,55.0,100.0,34464,89.75
5337,0.0,,,,62.0,,,,,0,note_on,,100.0,62.0,100.0,34464,89.75
5338,0.0,,,,59.0,,,,,44,note_on,,0.0,59.0,0.0,34508,89.86458333333333
5339,0.0,,,,55.0,,,,,0,note_on,,0.0,55.0,0.0,34508,89.86458333333333
5340,0.0,,,,62.0,,,,,0,note_on,,0.0,62.0,0.0,34508,89.86458333333333
5341,0.0,,,,62.0,,,,,52,note_on,,100.0,62.0,100.0,34560,90.0
5342,0.0,,,,55.0,,,,,0,note_on,,100.0,55.0,100.0,34560,90.0
5343,0.0,,,,59.0,,,,,0,note_on,,100.0,59.0,100.0,34560,90.0
5344,0.0,,,,55.0,,,,,44,note_on,,0.0,55.0,0.0,34604,90.11458333333333
5345,0.0,,,,59.0,,,,,0,note_on,,0.0,59.0,0.0,34604,90.11458333333333
5346,0.0,,,,62.0,,,,,0,note_on,,0.0,62.0,0.0,34604,90.11458333333333
5347,0.0,,,,59.0,,,,,52,note_on,,100.0,59.0,100.0,34656,90.25
5348,0.0,,,,62.0,,,,,0,note_on,,100.0,62.0,100.0,34656,90.25
5349,0.0,,,,55.0,,,,,0,note_on,,100.0,55.0,100.0,34656,90.25
5350,0.0,,,,59.0,,,,,44,note_on,,0.0,59.0,0.0,34700,90.36458333333333
5351,0.0,,,,62.0,,,,,0,note_on,,0.0,62.0,0.0,34700,90.36458333333333
5352,0.0,,,,55.0,,,,,0,note_on,,0.0,55.0,0.0,34700,90.36458333333333
5353,0.0,,,,55.0,,,,,52,note_on,,100.0,55.0,100.0,34752,90.5
5354,0.0,,,,62.0,,,,,0,note_on,,100.0,62.0,100.0,34752,90.5
5355,0.0,,,,59.0,,,,,0,note_on,,100.0,59.0,100.0,34752,90.5
5356,0.0,,,,62.0,,,,,44,note_on,,0.0,62.0,0.0,34796,90.61458333333333
5357,0.0,,,,59.0,,,,,0,note_on,,0.0,59.0,0.0,34796,90.61458333333333
5358,0.0,,,,55.0,,,,,0,note_on,,0.0,55.0,0.0,34796,90.61458333333333
5359,0.0,,,,62.0,,,,,52,note_on,,100.0,62.0,100.0,34848,90.75
5360,0.0,,,,59.0,,,,,0,note_on,,100.0,59.0,100.0,34848,90.75
5361,0.0,,,,55.0,,,,,0,note_on,,100.0,55.0,100.0,34848,90.75
5362,0.0,,,,62.0,,,,,44,note_on,,0.0,62.0,0.0,34892,90.86458333333333
5363,0.0,,,,59.0,,,,,0,note_on,,0.0,59.0,0.0,34892,90.86458333333333
5364,0.0,,,,55.0,,,,,0,note_on,,0.0,55.0,0.0,34892,90.86458333333333
5365,0.0,,,,62.0,,,,,52,note_on,,100.0,62.0,100.0,34944,91.0
5366,0.0,,,,55.0,,,,,0,note_on,,100.0,55.0,100.0,34944,91.0
5367,0.0,,,,59.0,,,,,0,note_on,,100.0,59.0,100.0,34944,91.0
5368,0.0,,,,55.0,,,,,44,note_on,,0.0,55.0,0.0,34988,91.11458333333333
5369,0.0,,,,59.0,,,,,0,note_on,,0.0,59.0,0.0,34988,91.11458333333333
5370,0.0,,,,62.0,,,,,0,note_on,,0.0,62.0,0.0,34988,91.11458333333333
5371,0.0,,,,55.0,,,,,52,note_on,,100.0,55.0,100.0,35040,91.25
5372,0.0,,,,62.0,,,,,0,note_on,,100.0,62.0,100.0,35040,91.25
5373,0.0,,,,59.0,,,,,0,note_on,,100.0,59.0,100.0,35040,91.25
5374,0.0,,,,55.0,,,,,44,note_on,,0.0,55.0,0.0,35084,91.36458333333333
5375,0.0,,,,62.0,,,,,0,note_on,,0.0,62.0,0.0,35084,91.36458333333333
5376,0.0,,,,59.0,,,,,0,note_on,,0.0,59.0,0.0,35084,91.36458333333333
5377,0.0,,,,59.0,,,,,52,note_on,,100.0,59.0,100.0,35136,91.5
5378,0.0,,,,62.0,,,,,0,note_on,,100.0,62.0,100.0,35136,91.5
5379,0.0,,,,55.0,,,,,0,note_on,,100.0,55.0,100.0,35136,91.5
5380,0.0,,,,62.0,,,,,44,note_on,,0.0,62.0,0.0,35180,91.61458333333333
5381,0.0,,,,55.0,,,,,0,note_on,,0.0,55.0,0.0,35180,91.61458333333333
5382,0.0,,,,59.0,,,,,0,note_on,,0.0,59.0,0.0,35180,91.61458333333333
5383,0.0,,,,59.0,,,,,52,note_on,,100.0,59.0,100.0,35232,91.75
5384,0.0,,,,55.0,,,,,0,note_on,,100.0,55.0,100.0,35232,91.75
5385,0.0,,,,62.0,,,,,0,note_on,,100.0,62.0,100.0,35232,91.75
5386,0.0,,,,59.0,,,,,44,note_on,,0.0,59.0,0.0,35276,91.86458333333333
5387,0.0,,,,55.0,,,,,0,note_on,,0.0,55.0,0.0,35276,91.86458333333333
5388,0.0,,,,62.0,,,,,0,note_on,,0.0,62.0,0.0,35276,91.86458333333333
5389,0.0,,,,53.0,,,,,52,note_on,,100.0,53.0,100.0,35328,92.0
5390,0.0,,,,57.0,,,,,0,note_on,,100.0,57.0,100.0,35328,92.0
5391,0.0,,,,60.0,,,,,0,note_on,,100.0,60.0,100.0,35328,92.0
5392,0.0,,,,57.0,,,,,44,note_on,,0.0,57.0,0.0,35372,92.11458333333333
5393,0.0,,,,60.0,,,,,0,note_on,,0.0,60.0,0.0,35372,92.11458333333333
5394,0.0,,,,53.0,,,,,0,note_on,,0.0,53.0,0.0,35372,92.11458333333333
5395,0.0,,,,53.0,,,,,52,note_on,,100.0,53.0,100.0,35424,92.25
5396,0.0,,,,57.0,,,,,0,note_on,,100.0,57.0,100.0,35424,92.25
5397,0.0,,,,60.0,,,,,0,note_on,,100.0,60.0,100.0,35424,92.25
5398,0.0,,,,53.0,,,,,44,note_on,,0.0,53.0,0.0,35468,92.36458333333333
5399,0.0,,,,57.0,,,,,0,note_on,,0.0,57.0,0.0,35468,92.36458333333333
5400,0.0,,,,60.0,,,,,0,note_on,,0.0,60.0,0.0,35468,92.36458333333333
5401,0.0,,,,60.0,,,,,52,note_on,,100.0,60.0,100.0,35520,92.5
5402,0.0,,,,57.0,,,,,0,note_on,,100.0,57.0,100.0,35520,92.5
5403,0.0,,,,53.0,,,,,0,note_on,,100.0,53.0,100.0,35520,92.5
5404,0.0,,,,57.0,,,,,44,note_on,,0.0,57.0,0.0,35564,92.61458333333333
5405,0.0,,,,53.0,,,,,0,note_on,,0.0,53.0,0.0,35564,92.61458333333333
5406,0.0,,,,60.0,,,,,0,note_on,,0.0,60.0,0.0,35564,92.61458333333333
5407,0.0,,,,53.0,,,,,52,note_on,,100.0,53.0,100.0,35616,92.75
5408,0.0,,,,60.0,,,,,0,note_on,,100.0,60.0,100.0,35616,92.75
5409,0.0,,,,57.0,,,,,0,note_on,,100.0,57.0,100.0,35616,92.75
5410,0.0,,,,53.0,,,,,44,note_on,,0.0,53.0,0.0,35660,92.86458333333333
5411,0.0,,,,60.0,,,,,0,note_on,,0.0,60.0,0.0,35660,92.86458333333333
5412,0.0,,,,57.0,,,,,0,note_on,,0.0,57.0,0.0,35660,92.86458333333333
5413,0.0,,,,60.0,,,,,52,note_on,,100.0,60.0,100.0,35712,93.0
5414,0.0,,,,53.0,,,,,0,note_on,,100.0,53.0,100.0,35712,93.0
5415,0.0,,,,57.0,,,,,0,note_on,,100.0,57.0,100.0,35712,93.0
5416,0.0,,,,53.0,,,,,44,note_on,,0.0,53.0,0.0,35756,93.11458333333333
5417,0.0,,,,57.0,,,,,0,note_on,,0.0,57.0,0.0,35756,93.11458333333333
5418,0.0,,,,60.0,,,,,0,note_on,,0.0,60.0,0.0,35756,93.11458333333333
5419,0.0,,,,57.0,,,,,52,note_on,,100.0,57.0,100.0,35808,93.25
5420,0.0,,,,53.0,,,,,0,note_on,,100.0,53.0,100.0,35808,93.25
5421,0.0,,,,60.0,,,,,0,note_on,,100.0,60.0,100.0,35808,93.25
5422,0.0,,,,57.0,,,,,44,note_on,,0.0,57.0,0.0,35852,93.36458333333333
5423,0.0,,,,53.0,,,,,0,note_on,,0.0,53.0,0.0,35852,93.36458333333333
5424,0.0,,,,60.0,,,,,0,note_on,,0.0,60.0,0.0,35852,93.36458333333333
5425,0.0,,,,57.0,,,,,52,note_on,,100.0,57.0,100.0,35904,93.5
5426,0.0,,,,60.0,,,,,0,note_on,,100.0,60.0,100.0,35904,93.5
5427,0.0,,,,53.0,,,,,0,note_on,,100.0,53.0,100.0,35904,93.5
5428,0.0,,,,60.0,,,,,44,note_on,,0.0,60.0,0.0,35948,93.61458333333333
5429,0.0,,,,57.0,,,,,0,note_on,,0.0,57.0,0.0,35948,93.61458333333333
5430,0.0,,,,53.0,,,,,0,note_on,,0.0,53.0,0.0,35948,93.61458333333333
5431,0.0,,,,48.0,,,,,52,note_on,,100.0,48.0,100.0,36000,93.75
5432,0.0,,,,48.0,,,,,44,note_on,,0.0,48.0,0.0,36044,93.86458333333333
5433,0.0,,,,55.0,,,,,52,note_on,,100.0,55.0,100.0,36096,94.0
5434,0.0,,,,60.0,,,,,0,note_on,,100.0,60.0,100.0,36096,94.0
5435,0.0,,,,64.0,,,,,0,note_on,,100.0,64.0,100.0,36096,94.0
5436,0.0,,,,55.0,,,,,44,note_on,,0.0,55.0,0.0,36140,94.11458333333333
5437,0.0,,,,60.0,,,,,0,note_on,,0.0,60.0,0.0,36140,94.11458333333333
5438,0.0,,,,64.0,,,,,0,note_on,,0.0,64.0,0.0,36140,94.11458333333333
5439,0.0,,,,55.0,,,,,52,note_on,,100.0,55.0,100.0,36192,94.25
5440,0.0,,,,64.0,,,,,0,note_on,,100.0,64.0,100.0,36192,94.25
5441,0.0,,,,60.0,,,,,0,note_on,,100.0,60.0,100.0,36192,94.25
5442,0.0,,,,55.0,,,,,44,note_on,,0.0,55.0,0.0,36236,94.36458333333333
5443,0.0,,,,64.0,,,,,0,note_on,,0.0,64.0,0.0,36236,94.36458333333333
5444,0.0,,,,60.0,,,,,0,note_on,,0.0,60.0,0.0,36236,94.36458333333333
5445,0.0,,,,64.0,,,,,52,note_on,,100.0,64.0,100.0,36288,94.5
5446,0.0,,,,55.0,,,,,0,note_on,,100.0,55.0,100.0,36288,94.5
5447,0.0,,,,60.0,,,,,0,note_on,,100.0,60.0,100.0,36288,94.5
5448,0.0,,,,64.0,,,,,44,note_on,,0.0,64.0,0.0,36332,94.61458333333333
5449,0.0,,,,55.0,,,,,0,note_on,,0.0,55.0,0.0,36332,94.61458333333333
5450,0.0,,,,60.0,,,,,0,note_on,,0.0,60.0,0.0,36332,94.61458333333333
5451,0.0,,,,64.0,,,,,52,note_on,,100.0,64.0,100.0,36384,94.75
5452,0.0,,,,55.0,,,,,0,note_on,,100.0,55.0,100.0,36384,94.75
5453,0.0,,,,60.0,,,,,0,note_on,,100.0,60.0,100.0,36384,94.75
5454,0.0,,,,64.0,,,,,44,note_on,,0.0,64.0,0.0,36428,94.86458333333333
5455,0.0,,,,55.0,,,,,0,note_on,,0.0,55.0,0.0,36428,94.86458333333333
5456,0.0,,,,60.0,,,,,0,note_on,,0.0,60.0,0.0,36428,94.86458333333333
5457,0.0,,,,64.0,,,,,52,note_on,,100.0,64.0,100.0,36480,95.0
5458,0.0,,,,60.0,,,,,0,note_on,,100.0,60.0,100.0,36480,95.0
5459,0.0,,,,55.0,,,,,0,note_on,,100.0,55.0,100.0,36480,95.0
5460,0.0,,,,64.0,,,,,44,note_on,,0.0,64.0,0.0,36524,95.11458333333333
5461,0.0,,,,60.0,,,,,0,note_on,,0.0,60.0,0.0,36524,95.11458333333333
5462,0.0,,,,55.0,,,,,0,note_on,,0.0,55.0,0.0,36524,95.11458333333333
5463,0.0,,,,64.0,,,,,52,note_on,,100.0,64.0,100.0,36576,95.25
5464,0.0,,,,60.0,,,,,0,note_on,,100.0,60.0,100.0,36576,95.25
5465,0.0,,,,55.0,,,,,0,note_on,,100.0,55.0,100.0,36576,95.25
5466,0.0,,,,64.0,,,,,44,note_on,,0.0,64.0,0.0,36620,95.36458333333333
5467,0.0,,,,60.0,,,,,0,note_on,,0.0,60.0,0.0,36620,95.36458333333333
5468,0.0,,,,55.0,,,,,0,note_on,,0.0,55.0,0.0,36620,95.36458333333333
5469,0.0,,,,55.0,,,,,52,note_on,,100.0,55.0,100.0,36672,95.5
5470,0.0,,,,60.0,,,,,0,note_on,,100.0,60.0,100.0,36672,95.5
5471,0.0,,,,64.0,,,,,0,note_on,,100.0,64.0,100.0,36672,95.5
5472,0.0,,,,55.0,,,,,44,note_on,,0.0,55.0,0.0,36716,95.61458333333333
5473,0.0,,,,60.0,,,,,0,note_on,,0.0,60.0,0.0,36716,95.61458333333333
5474,0.0,,,,64.0,,,,,0,note_on,,0.0,64.0,0.0,36716,95.61458333333333
5475,0.0,,,,55.0,,,,,52,note_on,,100.0,55.0,100.0,36768,95.75
5476,0.0,,,,60.0,,,,,0,note_on,,100.0,60.0,100.0,36768,95.75
5477,0.0,,,,64.0,,,,,0,note_on,,100.0,64.0,100.0,36768,95.75
5478,0.0,,,,55.0,,,,,44,note_on,,0.0,55.0,0.0,36812,95.86458333333333
5479,0.0,,,,60.0,,,,,0,note_on,,0.0,60.0,0.0,36812,95.86458333333333
5480,0.0,,,,64.0,,,,,0,note_on,,0.0,64.0,0.0,36812,95.86458333333333
5481,0.0,,,,55.0,,,,,820,note_on,,100.0,55.0,100.0,37632,98.0
5482,0.0,,,,62.0,,,,,0,note_on,,100.0,62.0,100.0,37632,98.0
5483,0.0,,,,59.0,,,,,0,note_on,,100.0,59.0,100.0,37632,98.0
5484,0.0,,,,55.0,,,,,44,note_on,,0.0,55.0,0.0,37676,98.11458333333333
5485,0.0,,,,62.0,,,,,0,note_on,,0.0,62.0,0.0,37676,98.11458333333333
5486,0.0,,,,59.0,,,,,0,note_on,,0.0,59.0,0.0,37676,98.11458333333333
5487,0.0,,,,55.0,,,,,52,note_on,,100.0,55.0,100.0,37728,98.25
5488,0.0,,,,59.0,,,,,0,note_on,,100.0,59.0,100.0,37728,98.25
5489,0.0,,,,62.0,,,,,0,note_on,,100.0,62.0,100.0,37728,98.25
5490,0.0,,,,55.0,,,,,44,note_on,,0.0,55.0,0.0,37772,98.36458333333333
5491,0.0,,,,59.0,,,,,0,note_on,,0.0,59.0,0.0,37772,98.36458333333333
5492,0.0,,,,62.0,,,,,0,note_on,,0.0,62.0,0.0,37772,98.36458333333333
5493,0.0,,,,59.0,,,,,52,note_on,,100.0,59.0,100.0,37824,98.5
5494,0.0,,,,62.0,,,,,0,note_on,,100.0,62.0,100.0,37824,98.5
5495,0.0,,,,55.0,,,,,0,note_on,,100.0,55.0,100.0,37824,98.5
5496,0.0,,,,59.0,,,,,44,note_on,,0.0,59.0,0.0,37868,98.61458333333333
5497,0.0,,,,62.0,,,,,0,note_on,,0.0,62.0,0.0,37868,98.61458333333333
5498,0.0,,,,55.0,,,,,0,note_on,,0.0,55.0,0.0,37868,98.61458333333333
5499,0.0,,,,59.0,,,,,52,note_on,,100.0,59.0,100.0,37920,98.75
5500,0.0,,,,62.0,,,,,0,note_on,,100.0,62.0,100.0,37920,98.75
5501,0.0,,,,55.0,,,,,0,note_on,,100.0,55.0,100.0,37920,98.75
5502,0.0,,,,59.0,,,,,44,note_on,,0.0,59.0,0.0,37964,98.86458333333333
5503,0.0,,,,62.0,,,,,0,note_on,,0.0,62.0,0.0,37964,98.86458333333333
5504,0.0,,,,55.0,,,,,0,note_on,,0.0,55.0,0.0,37964,98.86458333333333
5505,0.0,,,,62.0,,,,,52,note_on,,100.0,62.0,100.0,38016,99.0
5506,0.0,,,,55.0,,,,,0,note_on,,100.0,55.0,100.0,38016,99.0
5507,0.0,,,,59.0,,,,,0,note_on,,100.0,59.0,100.0,38016,99.0
5508,0.0,,,,62.0,,,,,44,note_on,,0.0,62.0,0.0,38060,99.11458333333333
5509,0.0,,,,55.0,,,,,0,note_on,,0.0,55.0,0.0,38060,99.11458333333333
5510,0.0,,,,59.0,,,,,0,note_on,,0.0,59.0,0.0,38060,99.11458333333333
5511,0.0,,,,62.0,,,,,52,note_on,,100.0,62.0,100.0,38112,99.25
5512,0.0,,,,59.0,,,,,0,note_on,,100.0,59.0,100.0,38112,99.25
5513,0.0,,,,55.0,,,,,0,note_on,,100.0,55.0,100.0,38112,99.25
5514,0.0,,,,62.0,,,,,44,note_on,,0.0,62.0,0.0,38156,99.36458333333333
5515,0.0,,,,59.0,,,,,0,note_on,,0.0,59.0,0.0,38156,99.36458333333333
5516,0.0,,,,55.0,,,,,0,note_on,,0.0,55.0,0.0,38156,99.36458333333333
5517,0.0,,,,59.0,,,,,52,note_on,,100.0,59.0,100.0,38208,99.5
5518,0.0,,,,62.0,,,,,0,note_on,,100.0,62.0,100.0,38208,99.5
5519,0.0,,,,55.0,,,,,0,note_on,,100.0,55.0,100.0,38208,99.5
5520,0.0,,,,59.0,,,,,44,note_on,,0.0,59.0,0.0,38252,99.61458333333333
5521,0.0,,,,62.0,,,,,0,note_on,,0.0,62.0,0.0,38252,99.61458333333333
5522,0.0,,,,55.0,,,,,0,note_on,,0.0,55.0,0.0,38252,99.61458333333333
5523,0.0,,,,55.0,,,,,52,note_on,,100.0,55.0,100.0,38304,99.75
5524,0.0,,,,59.0,,,,,0,note_on,,100.0,59.0,100.0,38304,99.75
5525,0.0,,,,62.0,,,,,0,note_on,,100.0,62.0,100.0,38304,99.75
5526,0.0,,,,55.0,,,,,44,note_on,,0.0,55.0,0.0,38348,99.86458333333333
5527,0.0,,,,59.0,,,,,0,note_on,,0.0,59.0,0.0,38348,99.86458333333333
5528,0.0,,,,62.0,,,,,0,note_on,,0.0,62.0,0.0,38348,99.86458333333333
5529,0.0,,,,60.0,,,,,52,note_on,,100.0,60.0,100.0,38400,100.0
5530,0.0,,,,57.0,,,,,0,note_on,,100.0,57.0,100.0,38400,100.0
5531,0.0,,,,53.0,,,,,0,note_on,,100.0,53.0,100.0,38400,100.0
5532,0.0,,,,60.0,,,,,44,note_on,,0.0,60.0,0.0,38444,100.11458333333333
5533,0.0,,,,57.0,,,,,0,note_on,,0.0,57.0,0.0,38444,100.11458333333333
5534,0.0,,,,53.0,,,,,0,note_on,,0.0,53.0,0.0,38444,100.11458333333333
5535,0.0,,,,53.0,,,,,52,note_on,,100.0,53.0,100.0,38496,100.25
5536,0.0,,,,60.0,,,,,0,note_on,,100.0,60.0,100.0,38496,100.25
5537,0.0,,,,57.0,,,,,0,note_on,,100.0,57.0,100.0,38496,100.25
5538,0.0,,,,53.0,,,,,44,note_on,,0.0,53.0,0.0,38540,100.36458333333333
5539,0.0,,,,60.0,,,,,0,note_on,,0.0,60.0,0.0,38540,100.36458333333333
5540,0.0,,,,57.0,,,,,0,note_on,,0.0,57.0,0.0,38540,100.36458333333333
5541,0.0,,,,60.0,,,,,52,note_on,,100.0,60.0,100.0,38592,100.5
5542,0.0,,,,57.0,,,,,0,note_on,,100.0,57.0,100.0,38592,100.5
5543,0.0,,,,53.0,,,,,0,note_on,,100.0,53.0,100.0,38592,100.5
5544,0.0,,,,60.0,,,,,44,note_on,,0.0,60.0,0.0,38636,100.61458333333333
5545,0.0,,,,57.0,,,,,0,note_on,,0.0,57.0,0.0,38636,100.61458333333333
5546,0.0,,,,53.0,,,,,0,note_on,,0.0,53.0,0.0,38636,100.61458333333333
5547,0.0,,,,60.0,,,,,52,note_on,,100.0,60.0,100.0,38688,100.75
5548,0.0,,,,53.0,,,,,0,note_on,,100.0,53.0,100.0,38688,100.75
5549,0.0,,,,57.0,,,,,0,note_on,,100.0,57.0,100.0,38688,100.75
5550,0.0,,,,60.0,,,,,44,note_on,,0.0,60.0,0.0,38732,100.86458333333333
5551,0.0,,,,53.0,,,,,0,note_on,,0.0,53.0,0.0,38732,100.86458333333333
5552,0.0,,,,57.0,,,,,0,note_on,,0.0,57.0,0.0,38732,100.86458333333333
5553,0.0,,,,60.0,,,,,52,note_on,,100.0,60.0,100.0,38784,101.0
5554,0.0,,,,53.0,,,,,0,note_on,,100.0,53.0,100.0,38784,101.0
5555,0.0,,,,57.0,,,,,0,note_on,,100.0,57.0,100.0,38784,101.0
5556,0.0,,,,60.0,,,,,44,note_on,,0.0,60.0,0.0,38828,101.11458333333333
5557,0.0,,,,53.0,,,,,0,note_on,,0.0,53.0,0.0,38828,101.11458333333333
5558,0.0,,,,57.0,,,,,0,note_on,,0.0,57.0,0.0,38828,101.11458333333333
5559,0.0,,,,57.0,,,,,52,note_on,,100.0,57.0,100.0,38880,101.25
5560,0.0,,,,53.0,,,,,0,note_on,,100.0,53.0,100.0,38880,101.25
5561,0.0,,,,60.0,,,,,0,note_on,,100.0,60.0,100.0,38880,101.25
5562,0.0,,,,57.0,,,,,44,note_on,,0.0,57.0,0.0,38924,101.36458333333333
5563,0.0,,,,53.0,,,,,0,note_on,,0.0,53.0,0.0,38924,101.36458333333333
5564,0.0,,,,60.0,,,,,0,note_on,,0.0,60.0,0.0,38924,101.36458333333333
5565,0.0,,,,60.0,,,,,52,note_on,,100.0,60.0,100.0,38976,101.5
5566,0.0,,,,53.0,,,,,0,note_on,,100.0,53.0,100.0,38976,101.5
5567,0.0,,,,57.0,,,,,0,note_on,,100.0,57.0,100.0,38976,101.5
5568,0.0,,,,60.0,,,,,44,note_on,,0.0,60.0,0.0,39020,101.61458333333333
5569,0.0,,,,57.0,,,,,0,note_on,,0.0,57.0,0.0,39020,101.61458333333333
5570,0.0,,,,53.0,,,,,0,note_on,,0.0,53.0,0.0,39020,101.61458333333333
5571,0.0,,,,48.0,,,,,52,note_on,,100.0,48.0,100.0,39072,101.75
5572,0.0,,,,48.0,,,,,44,note_on,,0.0,48.0,0.0,39116,101.86458333333333
5573,0.0,,,,60.0,,,,,52,note_on,,100.0,60.0,100.0,39168,102.0
5574,0.0,,,,64.0,,,,,0,note_on,,100.0,64.0,100.0,39168,102.0
5575,0.0,,,,55.0,,,,,0,note_on,,100.0,55.0,100.0,39168,102.0
5576,0.0,,,,60.0,,,,,44,note_on,,0.0,60.0,0.0,39212,102.11458333333333
5577,0.0,,,,64.0,,,,,0,note_on,,0.0,64.0,0.0,39212,102.11458333333333
5578,0.0,,,,55.0,,,,,0,note_on,,0.0,55.0,0.0,39212,102.11458333333333
5579,0.0,,,,60.0,,,,,52,note_on,,100.0,60.0,100.0,39264,102.25
5580,0.0,,,,64.0,,,,,0,note_on,,100.0,64.0,100.0,39264,102.25
5581,0.0,,,,55.0,,,,,0,note_on,,100.0,55.0,100.0,39264,102.25
5582,0.0,,,,55.0,,,,,44,note_on,,0.0,55.0,0.0,39308,102.36458333333333
5583,0.0,,,,60.0,,,,,0,note_on,,0.0,60.0,0.0,39308,102.36458333333333
5584,0.0,,,,64.0,,,,,0,note_on,,0.0,64.0,0.0,39308,102.36458333333333
5585,0.0,,,,55.0,,,,,52,note_on,,100.0,55.0,100.0,39360,102.5
5586,0.0,,,,60.0,,,,,0,note_on,,100.0,60.0,100.0,39360,102.5
5587,0.0,,,,64.0,,,,,0,note_on,,100.0,64.0,100.0,39360,102.5
5588,0.0,,,,55.0,,,,,44,note_on,,0.0,55.0,0.0,39404,102.61458333333333
5589,0.0,,,,60.0,,,,,0,note_on,,0.0,60.0,0.0,39404,102.61458333333333
5590,0.0,,,,64.0,,,,,0,note_on,,0.0,64.0,0.0,39404,102.61458333333333
5591,0.0,,,,60.0,,,,,52,note_on,,100.0,60.0,100.0,39456,102.75
5592,0.0,,,,55.0,,,,,0,note_on,,100.0,55.0,100.0,39456,102.75
5593,0.0,,,,64.0,,,,,0,note_on,,100.0,64.0,100.0,39456,102.75
5594,0.0,,,,64.0,,,,,44,note_on,,0.0,64.0,0.0,39500,102.86458333333333
5595,0.0,,,,60.0,,,,,0,note_on,,0.0,60.0,0.0,39500,102.86458333333333
5596,0.0,,,,55.0,,,,,0,note_on,,0.0,55.0,0.0,39500,102.86458333333333
5597,0.0,,,,64.0,,,,,52,note_on,,100.0,64.0,100.0,39552,103.0
5598,0.0,,,,60.0,,,,,0,note_on,,100.0,60.0,100.0,39552,103.0
5599,0.0,,,,55.0,,,,,0,note_on,,100.0,55.0,100.0,39552,103.0
5600,0.0,,,,64.0,,,,,44,note_on,,0.0,64.0,0.0,39596,103.11458333333333
5601,0.0,,,,60.0,,,,,0,note_on,,0.0,60.0,0.0,39596,103.11458333333333
5602,0.0,,,,55.0,,,,,0,note_on,,0.0,55.0,0.0,39596,103.11458333333333
5603,0.0,,,,64.0,,,,,52,note_on,,100.0,64.0,100.0,39648,103.25
5604,0.0,,,,60.0,,,,,0,note_on,,100.0,60.0,100.0,39648,103.25
5605,0.0,,,,55.0,,,,,0,note_on,,100.0,55.0,100.0,39648,103.25
5606,0.0,,,,55.0,,,,,44,note_on,,0.0,55.0,0.0,39692,103.36458333333333
5607,0.0,,,,64.0,,,,,0,note_on,,0.0,64.0,0.0,39692,103.36458333333333
5608,0.0,,,,60.0,,,,,0,note_on,,0.0,60.0,0.0,39692,103.36458333333333
5609,0.0,,,,64.0,,,,,52,note_on,,100.0,64.0,100.0,39744,103.5
5610,0.0,,,,55.0,,,,,0,note_on,,100.0,55.0,100.0,39744,103.5
5611,0.0,,,,60.0,,,,,0,note_on,,100.0,60.0,100.0,39744,103.5
5612,0.0,,,,64.0,,,,,44,note_on,,0.0,64.0,0.0,39788,103.61458333333333
5613,0.0,,,,55.0,,,,,0,note_on,,0.0,55.0,0.0,39788,103.61458333333333
5614,0.0,,,,60.0,,,,,0,note_on,,0.0,60.0,0.0,39788,103.61458333333333
5615,0.0,,,,60.0,,,,,52,note_on,,100.0,60.0,100.0,39840,103.75
5616,0.0,,,,64.0,,,,,0,note_on,,100.0,64.0,100.0,39840,103.75
5617,0.0,,,,55.0,,,,,0,note_on,,100.0,55.0,100.0,39840,103.75
5618,0.0,,,,55.0,,,,,44,note_on,,0.0,55.0,0.0,39884,103.86458333333333
5619,0.0,,,,60.0,,,,,0,note_on,,0.0,60.0,0.0,39884,103.86458333333333
5620,0.0,,,,64.0,,,,,0,note_on,,0.0,64.0,0.0,39884,103.86458333333333
5621,0.0,,,,62.0,,,,,52,note_on,,100.0,62.0,100.0,39936,104.0
5622,0.0,,,,55.0,,,,,0,note_on,,100.0,55.0,100.0,39936,104.0
5623,0.0,,,,59.0,,,,,0,note_on,,100.0,59.0,100.0,39936,104.0
5624,0.0,,,,62.0,,,,,44,note_on,,0.0,62.0,0.0,39980,104.11458333333333
5625,0.0,,,,55.0,,,,,0,note_on,,0.0,55.0,0.0,39980,104.11458333333333
5626,0.0,,,,59.0,,,,,0,note_on,,0.0,59.0,0.0,39980,104.11458333333333
5627,0.0,,,,55.0,,,,,52,note_on,,100.0,55.0,100.0,40032,104.25
5628,0.0,,,,62.0,,,,,0,note_on,,100.0,62.0,100.0,40032,104.25
5629,0.0,,,,59.0,,,,,0,note_on,,100.0,59.0,100.0,40032,104.25
5630,0.0,,,,59.0,,,,,44,note_on,,0.0,59.0,0.0,40076,104.36458333333333
5631,0.0,,,,55.0,,,,,0,note_on,,0.0,55.0,0.0,40076,104.36458333333333
5632,0.0,,,,62.0,,,,,0,note_on,,0.0,62.0,0.0,40076,104.36458333333333
5633,0.0,,,,62.0,,,,,52,note_on,,100.0,62.0,100.0,40128,104.5
5634,0.0,,,,59.0,,,,,0,note_on,,100.0,59.0,100.0,40128,104.5
5635,0.0,,,,55.0,,,,,0,note_on,,100.0,55.0,100.0,40128,104.5
5636,0.0,,,,62.0,,,,,44,note_on,,0.0,62.0,0.0,40172,104.61458333333333
5637,0.0,,,,59.0,,,,,0,note_on,,0.0,59.0,0.0,40172,104.61458333333333
5638,0.0,,,,55.0,,,,,0,note_on,,0.0,55.0,0.0,40172,104.61458333333333
5639,0.0,,,,62.0,,,,,52,note_on,,100.0,62.0,100.0,40224,104.75
5640,0.0,,,,55.0,,,,,0,note_on,,100.0,55.0,100.0,40224,104.75
5641,0.0,,,,59.0,,,,,0,note_on,,100.0,59.0,100.0,40224,104.75
5642,0.0,,,,59.0,,,,,44,note_on,,0.0,59.0,0.0,40268,104.86458333333333
5643,0.0,,,,62.0,,,,,0,note_on,,0.0,62.0,0.0,40268,104.86458333333333
5644,0.0,,,,55.0,,,,,0,note_on,,0.0,55.0,0.0,40268,104.86458333333333
5645,0.0,,,,62.0,,,,,52,note_on,,100.0,62.0,100.0,40320,105.0
5646,0.0,,,,55.0,,,,,0,note_on,,100.0,55.0,100.0,40320,105.0
5647,0.0,,,,59.0,,,,,0,note_on,,100.0,59.0,100.0,40320,105.0
5648,0.0,,,,62.0,,,,,44,note_on,,0.0,62.0,0.0,40364,105.11458333333333
5649,0.0,,,,55.0,,,,,0,note_on,,0.0,55.0,0.0,40364,105.11458333333333
5650,0.0,,,,59.0,,,,,0,note_on,,0.0,59.0,0.0,40364,105.11458333333333
5651,0.0,,,,62.0,,,,,52,note_on,,100.0,62.0,100.0,40416,105.25
5652,0.0,,,,55.0,,,,,0,note_on,,100.0,55.0,100.0,40416,105.25
5653,0.0,,,,59.0,,,,,0,note_on,,100.0,59.0,100.0,40416,105.25
5654,0.0,,,,59.0,,,,,44,note_on,,0.0,59.0,0.0,40460,105.36458333333333
5655,0.0,,,,62.0,,,,,0,note_on,,0.0,62.0,0.0,40460,105.36458333333333
5656,0.0,,,,55.0,,,,,0,note_on,,0.0,55.0,0.0,40460,105.36458333333333
5657,0.0,,,,55.0,,,,,52,note_on,,100.0,55.0,100.0,40512,105.5
5658,0.0,,,,59.0,,,,,0,note_on,,100.0,59.0,100.0,40512,105.5
5659,0.0,,,,62.0,,,,,0,note_on,,100.0,62.0,100.0,40512,105.5
5660,0.0,,,,55.0,,,,,44,note_on,,0.0,55.0,0.0,40556,105.61458333333333
5661,0.0,,,,59.0,,,,,0,note_on,,0.0,59.0,0.0,40556,105.61458333333333
5662,0.0,,,,62.0,,,,,0,note_on,,0.0,62.0,0.0,40556,105.61458333333333
5663,0.0,,,,55.0,,,,,52,note_on,,100.0,55.0,100.0,40608,105.75
5664,0.0,,,,59.0,,,,,0,note_on,,100.0,59.0,100.0,40608,105.75
5665,0.0,,,,62.0,,,,,0,note_on,,100.0,62.0,100.0,40608,105.75
5666,0.0,,,,55.0,,,,,44,note_on,,0.0,55.0,0.0,40652,105.86458333333333
5667,0.0,,,,59.0,,,,,0,note_on,,0.0,59.0,0.0,40652,105.86458333333333
5668,0.0,,,,62.0,,,,,0,note_on,,0.0,62.0,0.0,40652,105.86458333333333
5669,0.0,,,,59.0,,,,,52,note_on,,100.0,59.0,100.0,40704,106.0
5670,0.0,,,,62.0,,,,,0,note_on,,100.0,62.0,100.0,40704,106.0
5671,0.0,,,,55.0,,,,,0,note_on,,100.0,55.0,100.0,40704,106.0
5672,0.0,,,,62.0,,,,,44,note_on,,0.0,62.0,0.0,40748,106.11458333333333
5673,0.0,,,,55.0,,,,,0,note_on,,0.0,55.0,0.0,40748,106.11458333333333
5674,0.0,,,,59.0,,,,,0,note_on,,0.0,59.0,0.0,40748,106.11458333333333
5675,0.0,,,,59.0,,,,,52,note_on,,100.0,59.0,100.0,40800,106.25
5676,0.0,,,,62.0,,,,,0,note_on,,100.0,62.0,100.0,40800,106.25
5677,0.0,,,,55.0,,,,,0,note_on,,100.0,55.0,100.0,40800,106.25
5678,0.0,,,,59.0,,,,,44,note_on,,0.0,59.0,0.0,40844,106.36458333333333
5679,0.0,,,,62.0,,,,,0,note_on,,0.0,62.0,0.0,40844,106.36458333333333
5680,0.0,,,,55.0,,,,,0,note_on,,0.0,55.0,0.0,40844,106.36458333333333
5681,0.0,,,,59.0,,,,,52,note_on,,100.0,59.0,100.0,40896,106.5
5682,0.0,,,,62.0,,,,,0,note_on,,100.0,62.0,100.0,40896,106.5
5683,0.0,,,,55.0,,,,,0,note_on,,100.0,55.0,100.0,40896,106.5
5684,0.0,,,,62.0,,,,,44,note_on,,0.0,62.0,0.0,40940,106.61458333333333
5685,0.0,,,,55.0,,,,,0,note_on,,0.0,55.0,0.0,40940,106.61458333333333
5686,0.0,,,,59.0,,,,,0,note_on,,0.0,59.0,0.0,40940,106.61458333333333
5687,0.0,,,,55.0,,,,,52,note_on,,100.0,55.0,100.0,40992,106.75
5688,0.0,,,,59.0,,,,,0,note_on,,100.0,59.0,100.0,40992,106.75
5689,0.0,,,,62.0,,,,,0,note_on,,100.0,62.0,100.0,40992,106.75
5690,0.0,,,,55.0,,,,,44,note_on,,0.0,55.0,0.0,41036,106.86458333333333
5691,0.0,,,,59.0,,,,,0,note_on,,0.0,59.0,0.0,41036,106.86458333333333
5692,0.0,,,,62.0,,,,,0,note_on,,0.0,62.0,0.0,41036,106.86458333333333
5693,0.0,,,,55.0,,,,,52,note_on,,100.0,55.0,100.0,41088,107.0
5694,0.0,,,,59.0,,,,,0,note_on,,100.0,59.0,100.0,41088,107.0
5695,0.0,,,,62.0,,,,,0,note_on,,100.0,62.0,100.0,41088,107.0
5696,0.0,,,,59.0,,,,,44,note_on,,0.0,59.0,0.0,41132,107.11458333333333
5697,0.0,,,,62.0,,,,,0,note_on,,0.0,62.0,0.0,41132,107.11458333333333
5698,0.0,,,,55.0,,,,,0,note_on,,0.0,55.0,0.0,41132,107.11458333333333
5699,0.0,,,,59.0,,,,,52,note_on,,100.0,59.0,100.0,41184,107.25
5700,0.0,,,,62.0,,,,,0,note_on,,100.0,62.0,100.0,41184,107.25
5701,0.0,,,,55.0,,,,,0,note_on,,100.0,55.0,100.0,41184,107.25
5702,0.0,,,,59.0,,,,,44,note_on,,0.0,59.0,0.0,41228,107.36458333333333
5703,0.0,,,,62.0,,,,,0,note_on,,0.0,62.0,0.0,41228,107.36458333333333
5704,0.0,,,,55.0,,,,,0,note_on,,0.0,55.0,0.0,41228,107.36458333333333
5705,0.0,,,,62.0,,,,,52,note_on,,100.0,62.0,100.0,41280,107.5
5706,0.0,,,,59.0,,,,,0,note_on,,100.0,59.0,100.0,41280,107.5
5707,0.0,,,,55.0,,,,,0,note_on,,100.0,55.0,100.0,41280,107.5
5708,0.0,,,,59.0,,,,,44,note_on,,0.0,59.0,0.0,41324,107.61458333333333
5709,0.0,,,,55.0,,,,,0,note_on,,0.0,55.0,0.0,41324,107.61458333333333
5710,0.0,,,,62.0,,,,,0,note_on,,0.0,62.0,0.0,41324,107.61458333333333
5711,0.0,,,,62.0,,,,,52,note_on,,100.0,62.0,100.0,41376,107.75
5712,0.0,,,,59.0,,,,,0,note_on,,100.0,59.0,100.0,41376,107.75
5713,0.0,,,,55.0,,,,,0,note_on,,100.0,55.0,100.0,41376,107.75
5714,0.0,,,,62.0,,,,,44,note_on,,0.0,62.0,0.0,41420,107.86458333333333
5715,0.0,,,,59.0,,,,,0,note_on,,0.0,59.0,0.0,41420,107.86458333333333
5716,0.0,,,,55.0,,,,,0,note_on,,0.0,55.0,0.0,41420,107.86458333333333
5717,0.0,,,,60.0,,,,,52,note_on,,100.0,60.0,100.0,41472,108.0
5718,0.0,,,,57.0,,,,,0,note_on,,100.0,57.0,100.0,41472,108.0
5719,0.0,,,,53.0,,,,,0,note_on,,100.0,53.0,100.0,41472,108.0
5720,0.0,,,,57.0,,,,,44,note_on,,0.0,57.0,0.0,41516,108.11458333333333
5721,0.0,,,,53.0,,,,,0,note_on,,0.0,53.0,0.0,41516,108.11458333333333
5722,0.0,,,,60.0,,,,,0,note_on,,0.0,60.0,0.0,41516,108.11458333333333
5723,0.0,,,,53.0,,,,,52,note_on,,100.0,53.0,100.0,41568,108.25
5724,0.0,,,,60.0,,,,,0,note_on,,100.0,60.0,100.0,41568,108.25
5725,0.0,,,,57.0,,,,,0,note_on,,100.0,57.0,100.0,41568,108.25
5726,0.0,,,,53.0,,,,,44,note_on,,0.0,53.0,0.0,41612,108.36458333333333
5727,0.0,,,,60.0,,,,,0,note_on,,0.0,60.0,0.0,41612,108.36458333333333
5728,0.0,,,,57.0,,,,,0,note_on,,0.0,57.0,0.0,41612,108.36458333333333
5729,0.0,,,,53.0,,,,,52,note_on,,100.0,53.0,100.0,41664,108.5
5730,0.0,,,,60.0,,,,,0,note_on,,100.0,60.0,100.0,41664,108.5
5731,0.0,,,,57.0,,,,,0,note_on,,100.0,57.0,100.0,41664,108.5
5732,0.0,,,,60.0,,,,,44,note_on,,0.0,60.0,0.0,41708,108.61458333333333
5733,0.0,,,,57.0,,,,,0,note_on,,0.0,57.0,0.0,41708,108.61458333333333
5734,0.0,,,,53.0,,,,,0,note_on,,0.0,53.0,0.0,41708,108.61458333333333
5735,0.0,,,,60.0,,,,,52,note_on,,100.0,60.0,100.0,41760,108.75
5736,0.0,,,,53.0,,,,,0,note_on,,100.0,53.0,100.0,41760,108.75
5737,0.0,,,,57.0,,,,,0,note_on,,100.0,57.0,100.0,41760,108.75
5738,0.0,,,,60.0,,,,,44,note_on,,0.0,60.0,0.0,41804,108.86458333333333
5739,0.0,,,,53.0,,,,,0,note_on,,0.0,53.0,0.0,41804,108.86458333333333
5740,0.0,,,,57.0,,,,,0,note_on,,0.0,57.0,0.0,41804,108.86458333333333
5741,0.0,,,,53.0,,,,,52,note_on,,100.0,53.0,100.0,41856,109.0
5742,0.0,,,,60.0,,,,,0,note_on,,100.0,60.0,100.0,41856,109.0
5743,0.0,,,,57.0,,,,,0,note_on,,100.0,57.0,100.0,41856,109.0
5744,0.0,,,,60.0,,,,,44,note_on,,0.0,60.0,0.0,41900,109.11458333333333
5745,0.0,,,,57.0,,,,,0,note_on,,0.0,57.0,0.0,41900,109.11458333333333
5746,0.0,,,,53.0,,,,,0,note_on,,0.0,53.0,0.0,41900,109.11458333333333
5747,0.0,,,,53.0,,,,,52,note_on,,100.0,53.0,100.0,41952,109.25
5748,0.0,,,,57.0,,,,,0,note_on,,100.0,57.0,100.0,41952,109.25
5749,0.0,,,,60.0,,,,,0,note_on,,100.0,60.0,100.0,41952,109.25
5750,0.0,,,,53.0,,,,,44,note_on,,0.0,53.0,0.0,41996,109.36458333333333
5751,0.0,,,,57.0,,,,,0,note_on,,0.0,57.0,0.0,41996,109.36458333333333
5752,0.0,,,,60.0,,,,,0,note_on,,0.0,60.0,0.0,41996,109.36458333333333
5753,0.0,,,,53.0,,,,,52,note_on,,100.0,53.0,100.0,42048,109.5
5754,0.0,,,,60.0,,,,,0,note_on,,100.0,60.0,100.0,42048,109.5
5755,0.0,,,,57.0,,,,,0,note_on,,100.0,57.0,100.0,42048,109.5
5756,0.0,,,,60.0,,,,,44,note_on,,0.0,60.0,0.0,42092,109.61458333333333
5757,0.0,,,,53.0,,,,,0,note_on,,0.0,53.0,0.0,42092,109.61458333333333
5758,0.0,,,,57.0,,,,,0,note_on,,0.0,57.0,0.0,42092,109.61458333333333
5759,0.0,,,,48.0,,,,,52,note_on,,100.0,48.0,100.0,42144,109.75
5760,0.0,,,,48.0,,,,,44,note_on,,0.0,48.0,0.0,42188,109.86458333333333
5761,0.0,,,,55.0,,,,,52,note_on,,100.0,55.0,100.0,42240,110.0
5762,0.0,,,,60.0,,,,,0,note_on,,100.0,60.0,100.0,42240,110.0
5763,0.0,,,,64.0,,,,,0,note_on,,100.0,64.0,100.0,42240,110.0
5764,0.0,,,,55.0,,,,,44,note_on,,0.0,55.0,0.0,42284,110.11458333333333
5765,0.0,,,,60.0,,,,,0,note_on,,0.0,60.0,0.0,42284,110.11458333333333
5766,0.0,,,,64.0,,,,,0,note_on,,0.0,64.0,0.0,42284,110.11458333333333
5767,0.0,,,,64.0,,,,,52,note_on,,100.0,64.0,100.0,42336,110.25
5768,0.0,,,,60.0,,,,,0,note_on,,100.0,60.0,100.0,42336,110.25
5769,0.0,,,,55.0,,,,,0,note_on,,100.0,55.0,100.0,42336,110.25
5770,0.0,,,,64.0,,,,,44,note_on,,0.0,64.0,0.0,42380,110.36458333333333
5771,0.0,,,,60.0,,,,,0,note_on,,0.0,60.0,0.0,42380,110.36458333333333
5772,0.0,,,,55.0,,,,,0,note_on,,0.0,55.0,0.0,42380,110.36458333333333
5773,0.0,,,,55.0,,,,,52,note_on,,100.0,55.0,100.0,42432,110.5
5774,0.0,,,,60.0,,,,,0,note_on,,100.0,60.0,100.0,42432,110.5
5775,0.0,,,,64.0,,,,,0,note_on,,100.0,64.0,100.0,42432,110.5
5776,0.0,,,,55.0,,,,,44,note_on,,0.0,55.0,0.0,42476,110.61458333333333
5777,0.0,,,,60.0,,,,,0,note_on,,0.0,60.0,0.0,42476,110.61458333333333
5778,0.0,,,,64.0,,,,,0,note_on,,0.0,64.0,0.0,42476,110.61458333333333
5779,0.0,,,,64.0,,,,,52,note_on,,100.0,64.0,100.0,42528,110.75
5780,0.0,,,,55.0,,,,,0,note_on,,100.0,55.0,100.0,42528,110.75
5781,0.0,,,,60.0,,,,,0,note_on,,100.0,60.0,100.0,42528,110.75
5782,0.0,,,,64.0,,,,,44,note_on,,0.0,64.0,0.0,42572,110.86458333333333
5783,0.0,,,,55.0,,,,,0,note_on,,0.0,55.0,0.0,42572,110.86458333333333
5784,0.0,,,,60.0,,,,,0,note_on,,0.0,60.0,0.0,42572,110.86458333333333
5785,0.0,,,,60.0,,,,,52,note_on,,100.0,60.0,100.0,42624,111.0
5786,0.0,,,,55.0,,,,,0,note_on,,100.0,55.0,100.0,42624,111.0
5787,0.0,,,,64.0,,,,,0,note_on,,100.0,64.0,100.0,42624,111.0
5788,0.0,,,,60.0,,,,,44,note_on,,0.0,60.0,0.0,42668,111.11458333333333
5789,0.0,,,,55.0,,,,,0,note_on,,0.0,55.0,0.0,42668,111.11458333333333
5790,0.0,,,,64.0,,,,,0,note_on,,0.0,64.0,0.0,42668,111.11458333333333
5791,0.0,,,,60.0,,,,,52,note_on,,100.0,60.0,100.0,42720,111.25
5792,0.0,,,,64.0,,,,,0,note_on,,100.0,64.0,100.0,42720,111.25
5793,0.0,,,,55.0,,,,,0,note_on,,100.0,55.0,100.0,42720,111.25
5794,0.0,,,,60.0,,,,,44,note_on,,0.0,60.0,0.0,42764,111.36458333333333
5795,0.0,,,,64.0,,,,,0,note_on,,0.0,64.0,0.0,42764,111.36458333333333
5796,0.0,,,,55.0,,,,,0,note_on,,0.0,55.0,0.0,42764,111.36458333333333
5797,0.0,,,,64.0,,,,,52,note_on,,100.0,64.0,100.0,42816,111.5
5798,0.0,,,,60.0,,,,,0,note_on,,100.0,60.0,100.0,42816,111.5
5799,0.0,,,,55.0,,,,,0,note_on,,100.0,55.0,100.0,42816,111.5
5800,0.0,,,,64.0,,,,,44,note_on,,0.0,64.0,0.0,42860,111.61458333333333
5801,0.0,,,,60.0,,,,,0,note_on,,0.0,60.0,0.0,42860,111.61458333333333
5802,0.0,,,,55.0,,,,,0,note_on,,0.0,55.0,0.0,42860,111.61458333333333
5803,0.0,,,,55.0,,,,,52,note_on,,100.0,55.0,100.0,42912,111.75
5804,0.0,,,,60.0,,,,,0,note_on,,100.0,60.0,100.0,42912,111.75
5805,0.0,,,,64.0,,,,,0,note_on,,100.0,64.0,100.0,42912,111.75
5806,0.0,,,,55.0,,,,,44,note_on,,0.0,55.0,0.0,42956,111.86458333333333
5807,0.0,,,,60.0,,,,,0,note_on,,0.0,60.0,0.0,42956,111.86458333333333
5808,0.0,,,,64.0,,,,,0,note_on,,0.0,64.0,0.0,42956,111.86458333333333
5809,0.0,,,,62.0,,,,,52,note_on,,100.0,62.0,100.0,43008,112.0
5810,0.0,,,,55.0,,,,,0,note_on,,100.0,55.0,100.0,43008,112.0
5811,0.0,,,,59.0,,,,,0,note_on,,100.0,59.0,100.0,43008,112.0
5812,0.0,,,,62.0,,,,,44,note_on,,0.0,62.0,0.0,43052,112.11458333333333
5813,0.0,,,,55.0,,,,,0,note_on,,0.0,55.0,0.0,43052,112.11458333333333
5814,0.0,,,,59.0,,,,,0,note_on,,0.0,59.0,0.0,43052,112.11458333333333
5815,0.0,,,,59.0,,,,,52,note_on,,100.0,59.0,100.0,43104,112.25
5816,0.0,,,,62.0,,,,,0,note_on,,100.0,62.0,100.0,43104,112.25
5817,0.0,,,,55.0,,,,,0,note_on,,100.0,55.0,100.0,43104,112.25
5818,0.0,,,,59.0,,,,,44,note_on,,0.0,59.0,0.0,43148,112.36458333333333
5819,0.0,,,,62.0,,,,,0,note_on,,0.0,62.0,0.0,43148,112.36458333333333
5820,0.0,,,,55.0,,,,,0,note_on,,0.0,55.0,0.0,43148,112.36458333333333
5821,0.0,,,,59.0,,,,,52,note_on,,100.0,59.0,100.0,43200,112.5
5822,0.0,,,,62.0,,,,,0,note_on,,100.0,62.0,100.0,43200,112.5
5823,0.0,,,,55.0,,,,,0,note_on,,100.0,55.0,100.0,43200,112.5
5824,0.0,,,,59.0,,,,,44,note_on,,0.0,59.0,0.0,43244,112.61458333333333
5825,0.0,,,,62.0,,,,,0,note_on,,0.0,62.0,0.0,43244,112.61458333333333
5826,0.0,,,,55.0,,,,,0,note_on,,0.0,55.0,0.0,43244,112.61458333333333
5827,0.0,,,,59.0,,,,,52,note_on,,100.0,59.0,100.0,43296,112.75
5828,0.0,,,,62.0,,,,,0,note_on,,100.0,62.0,100.0,43296,112.75
5829,0.0,,,,55.0,,,,,0,note_on,,100.0,55.0,100.0,43296,112.75
5830,0.0,,,,59.0,,,,,44,note_on,,0.0,59.0,0.0,43340,112.86458333333333
5831,0.0,,,,62.0,,,,,0,note_on,,0.0,62.0,0.0,43340,112.86458333333333
5832,0.0,,,,55.0,,,,,0,note_on,,0.0,55.0,0.0,43340,112.86458333333333
5833,0.0,,,,55.0,,,,,52,note_on,,100.0,55.0,100.0,43392,113.0
5834,0.0,,,,59.0,,,,,0,note_on,,100.0,59.0,100.0,43392,113.0
5835,0.0,,,,62.0,,,,,0,note_on,,100.0,62.0,100.0,43392,113.0
5836,0.0,,,,55.0,,,,,44,note_on,,0.0,55.0,0.0,43436,113.11458333333333
5837,0.0,,,,59.0,,,,,0,note_on,,0.0,59.0,0.0,43436,113.11458333333333
5838,0.0,,,,62.0,,,,,0,note_on,,0.0,62.0,0.0,43436,113.11458333333333
5839,0.0,,,,62.0,,,,,52,note_on,,100.0,62.0,100.0,43488,113.25
5840,0.0,,,,55.0,,,,,0,note_on,,100.0,55.0,100.0,43488,113.25
5841,0.0,,,,59.0,,,,,0,note_on,,100.0,59.0,100.0,43488,113.25
5842,0.0,,,,62.0,,,,,44,note_on,,0.0,62.0,0.0,43532,113.36458333333333
5843,0.0,,,,55.0,,,,,0,note_on,,0.0,55.0,0.0,43532,113.36458333333333
5844,0.0,,,,59.0,,,,,0,note_on,,0.0,59.0,0.0,43532,113.36458333333333
5845,0.0,,,,59.0,,,,,52,note_on,,100.0,59.0,100.0,43584,113.5
5846,0.0,,,,62.0,,,,,0,note_on,,100.0,62.0,100.0,43584,113.5
5847,0.0,,,,55.0,,,,,0,note_on,,100.0,55.0,100.0,43584,113.5
5848,0.0,,,,59.0,,,,,44,note_on,,0.0,59.0,0.0,43628,113.61458333333333
5849,0.0,,,,62.0,,,,,0,note_on,,0.0,62.0,0.0,43628,113.61458333333333
5850,0.0,,,,55.0,,,,,0,note_on,,0.0,55.0,0.0,43628,113.61458333333333
5851,0.0,,,,62.0,,,,,52,note_on,,100.0,62.0,100.0,43680,113.75
5852,0.0,,,,55.0,,,,,0,note_on,,100.0,55.0,100.0,43680,113.75
5853,0.0,,,,59.0,,,,,0,note_on,,100.0,59.0,100.0,43680,113.75
5854,0.0,,,,62.0,,,,,44,note_on,,0.0,62.0,0.0,43724,113.86458333333333
5855,0.0,,,,55.0,,,,,0,note_on,,0.0,55.0,0.0,43724,113.86458333333333
5856,0.0,,,,59.0,,,,,0,note_on,,0.0,59.0,0.0,43724,113.86458333333333
5857,0.0,,,,62.0,,,,,52,note_on,,100.0,62.0,100.0,43776,114.0
5858,0.0,,,,59.0,,,,,0,note_on,,100.0,59.0,100.0,43776,114.0
5859,0.0,,,,55.0,,,,,0,note_on,,100.0,55.0,100.0,43776,114.0
5860,0.0,,,,62.0,,,,,44,note_on,,0.0,62.0,0.0,43820,114.11458333333333
5861,0.0,,,,59.0,,,,,0,note_on,,0.0,59.0,0.0,43820,114.11458333333333
5862,0.0,,,,55.0,,,,,0,note_on,,0.0,55.0,0.0,43820,114.11458333333333
5863,0.0,,,,59.0,,,,,52,note_on,,100.0,59.0,100.0,43872,114.25
5864,0.0,,,,62.0,,,,,0,note_on,,100.0,62.0,100.0,43872,114.25
5865,0.0,,,,55.0,,,,,0,note_on,,100.0,55.0,100.0,43872,114.25
5866,0.0,,,,59.0,,,,,44,note_on,,0.0,59.0,0.0,43916,114.36458333333333
5867,0.0,,,,62.0,,,,,0,note_on,,0.0,62.0,0.0,43916,114.36458333333333
5868,0.0,,,,55.0,,,,,0,note_on,,0.0,55.0,0.0,43916,114.36458333333333
5869,0.0,,,,55.0,,,,,52,note_on,,100.0,55.0,100.0,43968,114.5
5870,0.0,,,,59.0,,,,,0,note_on,,100.0,59.0,100.0,43968,114.5
5871,0.0,,,,62.0,,,,,0,note_on,,100.0,62.0,100.0,43968,114.5
5872,0.0,,,,55.0,,,,,44,note_on,,0.0,55.0,0.0,44012,114.61458333333333
5873,0.0,,,,59.0,,,,,0,note_on,,0.0,59.0,0.0,44012,114.61458333333333
5874,0.0,,,,62.0,,,,,0,note_on,,0.0,62.0,0.0,44012,114.61458333333333
5875,0.0,,,,59.0,,,,,52,note_on,,100.0,59.0,100.0,44064,114.75
5876,0.0,,,,55.0,,,,,0,note_on,,100.0,55.0,100.0,44064,114.75
5877,0.0,,,,62.0,,,,,0,note_on,,100.0,62.0,100.0,44064,114.75
5878,0.0,,,,59.0,,,,,44,note_on,,0.0,59.0,0.0,44108,114.86458333333333
5879,0.0,,,,55.0,,,,,0,note_on,,0.0,55.0,0.0,44108,114.86458333333333
5880,0.0,,,,62.0,,,,,0,note_on,,0.0,62.0,0.0,44108,114.86458333333333
5881,0.0,,,,55.0,,,,,52,note_on,,100.0,55.0,100.0,44160,115.0
5882,0.0,,,,59.0,,,,,0,note_on,,100.0,59.0,100.0,44160,115.0
5883,0.0,,,,62.0,,,,,0,note_on,,100.0,62.0,100.0,44160,115.0
5884,0.0,,,,55.0,,,,,44,note_on,,0.0,55.0,0.0,44204,115.11458333333333
5885,0.0,,,,59.0,,,,,0,note_on,,0.0,59.0,0.0,44204,115.11458333333333
5886,0.0,,,,62.0,,,,,0,note_on,,0.0,62.0,0.0,44204,115.11458333333333
5887,0.0,,,,62.0,,,,,52,note_on,,100.0,62.0,100.0,44256,115.25
5888,0.0,,,,55.0,,,,,0,note_on,,100.0,55.0,100.0,44256,115.25
5889,0.0,,,,59.0,,,,,0,note_on,,100.0,59.0,100.0,44256,115.25
5890,0.0,,,,62.0,,,,,44,note_on,,0.0,62.0,0.0,44300,115.36458333333333
5891,0.0,,,,55.0,,,,,0,note_on,,0.0,55.0,0.0,44300,115.36458333333333
5892,0.0,,,,59.0,,,,,0,note_on,,0.0,59.0,0.0,44300,115.36458333333333
5893,0.0,,,,55.0,,,,,52,note_on,,100.0,55.0,100.0,44352,115.5
5894,0.0,,,,62.0,,,,,0,note_on,,100.0,62.0,100.0,44352,115.5
5895,0.0,,,,59.0,,,,,0,note_on,,100.0,59.0,100.0,44352,115.5
5896,0.0,,,,55.0,,,,,44,note_on,,0.0,55.0,0.0,44396,115.61458333333333
5897,0.0,,,,62.0,,,,,0,note_on,,0.0,62.0,0.0,44396,115.61458333333333
5898,0.0,,,,59.0,,,,,0,note_on,,0.0,59.0,0.0,44396,115.61458333333333
5899,0.0,,,,59.0,,,,,52,note_on,,100.0,59.0,100.0,44448,115.75
5900,0.0,,,,55.0,,,,,0,note_on,,100.0,55.0,100.0,44448,115.75
5901,0.0,,,,62.0,,,,,0,note_on,,100.0,62.0,100.0,44448,115.75
5902,0.0,,,,59.0,,,,,44,note_on,,0.0,59.0,0.0,44492,115.86458333333333
5903,0.0,,,,55.0,,,,,0,note_on,,0.0,55.0,0.0,44492,115.86458333333333
5904,0.0,,,,62.0,,,,,0,note_on,,0.0,62.0,0.0,44492,115.86458333333333
5905,0.0,,,,60.0,,,,,52,note_on,,100.0,60.0,100.0,44544,116.0
5906,0.0,,,,57.0,,,,,0,note_on,,100.0,57.0,100.0,44544,116.0
5907,0.0,,,,53.0,,,,,0,note_on,,100.0,53.0,100.0,44544,116.0
5908,0.0,,,,60.0,,,,,44,note_on,,0.0,60.0,0.0,44588,116.11458333333333
5909,0.0,,,,57.0,,,,,0,note_on,,0.0,57.0,0.0,44588,116.11458333333333
5910,0.0,,,,53.0,,,,,0,note_on,,0.0,53.0,0.0,44588,116.11458333333333
5911,0.0,,,,53.0,,,,,52,note_on,,100.0,53.0,100.0,44640,116.25
5912,0.0,,,,57.0,,,,,0,note_on,,100.0,57.0,100.0,44640,116.25
5913,0.0,,,,60.0,,,,,0,note_on,,100.0,60.0,100.0,44640,116.25
5914,0.0,,,,53.0,,,,,44,note_on,,0.0,53.0,0.0,44684,116.36458333333333
5915,0.0,,,,57.0,,,,,0,note_on,,0.0,57.0,0.0,44684,116.36458333333333
5916,0.0,,,,60.0,,,,,0,note_on,,0.0,60.0,0.0,44684,116.36458333333333
5917,0.0,,,,60.0,,,,,52,note_on,,100.0,60.0,100.0,44736,116.5
5918,0.0,,,,57.0,,,,,0,note_on,,100.0,57.0,100.0,44736,116.5
5919,0.0,,,,53.0,,,,,0,note_on,,100.0,53.0,100.0,44736,116.5
5920,0.0,,,,60.0,,,,,44,note_on,,0.0,60.0,0.0,44780,116.61458333333333
5921,0.0,,,,57.0,,,,,0,note_on,,0.0,57.0,0.0,44780,116.61458333333333
5922,0.0,,,,53.0,,,,,0,note_on,,0.0,53.0,0.0,44780,116.61458333333333
5923,0.0,,,,57.0,,,,,52,note_on,,100.0,57.0,100.0,44832,116.75
5924,0.0,,,,60.0,,,,,0,note_on,,100.0,60.0,100.0,44832,116.75
5925,0.0,,,,53.0,,,,,0,note_on,,100.0,53.0,100.0,44832,116.75
5926,0.0,,,,57.0,,,,,44,note_on,,0.0,57.0,0.0,44876,116.86458333333333
5927,0.0,,,,60.0,,,,,0,note_on,,0.0,60.0,0.0,44876,116.86458333333333
5928,0.0,,,,53.0,,,,,0,note_on,,0.0,53.0,0.0,44876,116.86458333333333
5929,0.0,,,,57.0,,,,,52,note_on,,100.0,57.0,100.0,44928,117.0
5930,0.0,,,,60.0,,,,,0,note_on,,100.0,60.0,100.0,44928,117.0
5931,0.0,,,,53.0,,,,,0,note_on,,100.0,53.0,100.0,44928,117.0
5932,0.0,,,,57.0,,,,,44,note_on,,0.0,57.0,0.0,44972,117.11458333333333
5933,0.0,,,,60.0,,,,,0,note_on,,0.0,60.0,0.0,44972,117.11458333333333
5934,0.0,,,,53.0,,,,,0,note_on,,0.0,53.0,0.0,44972,117.11458333333333
5935,0.0,,,,53.0,,,,,52,note_on,,100.0,53.0,100.0,45024,117.25
5936,0.0,,,,57.0,,,,,0,note_on,,100.0,57.0,100.0,45024,117.25
5937,0.0,,,,60.0,,,,,0,note_on,,100.0,60.0,100.0,45024,117.25
5938,0.0,,,,53.0,,,,,44,note_on,,0.0,53.0,0.0,45068,117.36458333333333
5939,0.0,,,,57.0,,,,,0,note_on,,0.0,57.0,0.0,45068,117.36458333333333
5940,0.0,,,,60.0,,,,,0,note_on,,0.0,60.0,0.0,45068,117.36458333333333
5941,0.0,,,,57.0,,,,,52,note_on,,100.0,57.0,100.0,45120,117.5
5942,0.0,,,,60.0,,,,,0,note_on,,100.0,60.0,100.0,45120,117.5
5943,0.0,,,,53.0,,,,,0,note_on,,100.0,53.0,100.0,45120,117.5
5944,0.0,,,,57.0,,,,,44,note_on,,0.0,57.0,0.0,45164,117.61458333333333
5945,0.0,,,,53.0,,,,,0,note_on,,0.0,53.0,0.0,45164,117.61458333333333
5946,0.0,,,,60.0,,,,,0,note_on,,0.0,60.0,0.0,45164,117.61458333333333
5947,0.0,,,,48.0,,,,,52,note_on,,100.0,48.0,100.0,45216,117.75
5948,0.0,,,,48.0,,,,,44,note_on,,0.0,48.0,0.0,45260,117.86458333333333
5949,0.0,,,,64.0,,,,,52,note_on,,100.0,64.0,100.0,45312,118.0
5950,0.0,,,,60.0,,,,,0,note_on,,100.0,60.0,100.0,45312,118.0
5951,0.0,,,,55.0,,,,,0,note_on,,100.0,55.0,100.0,45312,118.0
5952,0.0,,,,64.0,,,,,44,note_on,,0.0,64.0,0.0,45356,118.11458333333333
5953,0.0,,,,60.0,,,,,0,note_on,,0.0,60.0,0.0,45356,118.11458333333333
5954,0.0,,,,55.0,,,,,0,note_on,,0.0,55.0,0.0,45356,118.11458333333333
5955,0.0,,,,64.0,,,,,52,note_on,,100.0,64.0,100.0,45408,118.25
5956,0.0,,,,60.0,,,,,0,note_on,,100.0,60.0,100.0,45408,118.25
5957,0.0,,,,55.0,,,,,0,note_on,,100.0,55.0,100.0,45408,118.25
5958,0.0,,,,55.0,,,,,44,note_on,,0.0,55.0,0.0,45452,118.36458333333333
5959,0.0,,,,64.0,,,,,0,note_on,,0.0,64.0,0.0,45452,118.36458333333333
5960,0.0,,,,60.0,,,,,0,note_on,,0.0,60.0,0.0,45452,118.36458333333333
5961,0.0,,,,64.0,,,,,52,note_on,,100.0,64.0,100.0,45504,118.5
5962,0.0,,,,55.0,,,,,0,note_on,,100.0,55.0,100.0,45504,118.5
5963,0.0,,,,60.0,,,,,0,note_on,,100.0,60.0,100.0,45504,118.5
5964,0.0,,,,64.0,,,,,44,note_on,,0.0,64.0,0.0,45548,118.61458333333333
5965,0.0,,,,55.0,,,,,0,note_on,,0.0,55.0,0.0,45548,118.61458333333333
5966,0.0,,,,60.0,,,,,0,note_on,,0.0,60.0,0.0,45548,118.61458333333333
5967,0.0,,,,60.0,,,,,52,note_on,,100.0,60.0,100.0,45600,118.75
5968,0.0,,,,55.0,,,,,0,note_on,,100.0,55.0,100.0,45600,118.75
5969,0.0,,,,64.0,,,,,0,note_on,,100.0,64.0,100.0,45600,118.75
5970,0.0,,,,64.0,,,,,44,note_on,,0.0,64.0,0.0,45644,118.86458333333333
5971,0.0,,,,60.0,,,,,0,note_on,,0.0,60.0,0.0,45644,118.86458333333333
5972,0.0,,,,55.0,,,,,0,note_on,,0.0,55.0,0.0,45644,118.86458333333333
5973,0.0,,,,55.0,,,,,52,note_on,,100.0,55.0,100.0,45696,119.0
5974,0.0,,,,64.0,,,,,0,note_on,,100.0,64.0,100.0,45696,119.0
5975,0.0,,,,60.0,,,,,0,note_on,,100.0,60.0,100.0,45696,119.0
5976,0.0,,,,55.0,,,,,44,note_on,,0.0,55.0,0.0,45740,119.11458333333333
5977,0.0,,,,64.0,,,,,0,note_on,,0.0,64.0,0.0,45740,119.11458333333333
5978,0.0,,,,60.0,,,,,0,note_on,,0.0,60.0,0.0,45740,119.11458333333333
5979,0.0,,,,55.0,,,,,52,note_on,,100.0,55.0,100.0,45792,119.25
5980,0.0,,,,64.0,,,,,0,note_on,,100.0,64.0,100.0,45792,119.25
5981,0.0,,,,60.0,,,,,0,note_on,,100.0,60.0,100.0,45792,119.25
5982,0.0,,,,60.0,,,,,44,note_on,,0.0,60.0,0.0,45836,119.36458333333333
5983,0.0,,,,55.0,,,,,0,note_on,,0.0,55.0,0.0,45836,119.36458333333333
5984,0.0,,,,64.0,,,,,0,note_on,,0.0,64.0,0.0,45836,119.36458333333333
5985,0.0,,,,55.0,,,,,52,note_on,,100.0,55.0,100.0,45888,119.5
5986,0.0,,,,60.0,,,,,0,note_on,,100.0,60.0,100.0,45888,119.5
5987,0.0,,,,64.0,,,,,0,note_on,,100.0,64.0,100.0,45888,119.5
5988,0.0,,,,55.0,,,,,44,note_on,,0.0,55.0,0.0,45932,119.61458333333333
5989,0.0,,,,60.0,,,,,0,note_on,,0.0,60.0,0.0,45932,119.61458333333333
5990,0.0,,,,64.0,,,,,0,note_on,,0.0,64.0,0.0,45932,119.61458333333333
5991,0.0,,,,64.0,,,,,52,note_on,,100.0,64.0,100.0,45984,119.75
5992,0.0,,,,55.0,,,,,0,note_on,,100.0,55.0,100.0,45984,119.75
5993,0.0,,,,60.0,,,,,0,note_on,,100.0,60.0,100.0,45984,119.75
5994,0.0,,,,60.0,,,,,44,note_on,,0.0,60.0,0.0,46028,119.86458333333333
5995,0.0,,,,64.0,,,,,0,note_on,,0.0,64.0,0.0,46028,119.86458333333333
5996,0.0,,,,55.0,,,,,0,note_on,,0.0,55.0,0.0,46028,119.86458333333333
5997,0.0,,,,62.0,,,,,52,note_on,,100.0,62.0,100.0,46080,120.0
5998,0.0,,,,55.0,,,,,0,note_on,,100.0,55.0,100.0,46080,120.0
5999,0.0,,,,59.0,,,,,0,note_on,,100.0,59.0,100.0,46080,120.0
6000,0.0,,,,62.0,,,,,44,note_on,,0.0,62.0,0.0,46124,120.11458333333333
6001,0.0,,,,55.0,,,,,0,note_on,,0.0,55.0,0.0,46124,120.11458333333333
6002,0.0,,,,59.0,,,,,0,note_on,,0.0,59.0,0.0,46124,120.11458333333333
6003,0.0,,,,55.0,,,,,52,note_on,,100.0,55.0,100.0,46176,120.25
6004,0.0,,,,62.0,,,,,0,note_on,,100.0,62.0,100.0,46176,120.25
6005,0.0,,,,59.0,,,,,0,note_on,,100.0,59.0,100.0,46176,120.25
6006,0.0,,,,59.0,,,,,44,note_on,,0.0,59.0,0.0,46220,120.36458333333333
6007,0.0,,,,55.0,,,,,0,note_on,,0.0,55.0,0.0,46220,120.36458333333333
6008,0.0,,,,62.0,,,,,0,note_on,,0.0,62.0,0.0,46220,120.36458333333333
6009,0.0,,,,55.0,,,,,52,note_on,,100.0,55.0,100.0,46272,120.5
6010,0.0,,,,62.0,,,,,0,note_on,,100.0,62.0,100.0,46272,120.5
6011,0.0,,,,59.0,,,,,0,note_on,,100.0,59.0,100.0,46272,120.5
6012,0.0,,,,55.0,,,,,44,note_on,,0.0,55.0,0.0,46316,120.61458333333333
6013,0.0,,,,62.0,,,,,0,note_on,,0.0,62.0,0.0,46316,120.61458333333333
6014,0.0,,,,59.0,,,,,0,note_on,,0.0,59.0,0.0,46316,120.61458333333333
6015,0.0,,,,55.0,,,,,52,note_on,,100.0,55.0,100.0,46368,120.75
6016,0.0,,,,62.0,,,,,0,note_on,,100.0,62.0,100.0,46368,120.75
6017,0.0,,,,59.0,,,,,0,note_on,,100.0,59.0,100.0,46368,120.75
6018,0.0,,,,59.0,,,,,44,note_on,,0.0,59.0,0.0,46412,120.86458333333333
6019,0.0,,,,55.0,,,,,0,note_on,,0.0,55.0,0.0,46412,120.86458333333333
6020,0.0,,,,62.0,,,,,0,note_on,,0.0,62.0,0.0,46412,120.86458333333333
6021,0.0,,,,59.0,,,,,52,note_on,,100.0,59.0,100.0,46464,121.0
6022,0.0,,,,62.0,,,,,0,note_on,,100.0,62.0,100.0,46464,121.0
6023,0.0,,,,55.0,,,,,0,note_on,,100.0,55.0,100.0,46464,121.0
6024,0.0,,,,59.0,,,,,44,note_on,,0.0,59.0,0.0,46508,121.11458333333333
6025,0.0,,,,62.0,,,,,0,note_on,,0.0,62.0,0.0,46508,121.11458333333333
6026,0.0,,,,55.0,,,,,0,note_on,,0.0,55.0,0.0,46508,121.11458333333333
6027,0.0,,,,55.0,,,,,52,note_on,,100.0,55.0,100.0,46560,121.25
6028,0.0,,,,59.0,,,,,0,note_on,,100.0,59.0,100.0,46560,121.25
6029,0.0,,,,62.0,,,,,0,note_on,,100.0,62.0,100.0,46560,121.25
6030,0.0,,,,62.0,,,,,44,note_on,,0.0,62.0,0.0,46604,121.36458333333333
6031,0.0,,,,55.0,,,,,0,note_on,,0.0,55.0,0.0,46604,121.36458333333333
6032,0.0,,,,59.0,,,,,0,note_on,,0.0,59.0,0.0,46604,121.36458333333333
6033,0.0,,,,62.0,,,,,52,note_on,,100.0,62.0,100.0,46656,121.5
6034,0.0,,,,55.0,,,,,0,note_on,,100.0,55.0,100.0,46656,121.5
6035,0.0,,,,59.0,,,,,0,note_on,,100.0,59.0,100.0,46656,121.5
6036,0.0,,,,62.0,,,,,44,note_on,,0.0,62.0,0.0,46700,121.61458333333333
6037,0.0,,,,55.0,,,,,0,note_on,,0.0,55.0,0.0,46700,121.61458333333333
6038,0.0,,,,59.0,,,,,0,note_on,,0.0,59.0,0.0,46700,121.61458333333333
6039,0.0,,,,55.0,,,,,52,note_on,,100.0,55.0,100.0,46752,121.75
6040,0.0,,,,62.0,,,,,0,note_on,,100.0,62.0,100.0,46752,121.75
6041,0.0,,,,59.0,,,,,0,note_on,,100.0,59.0,100.0,46752,121.75
6042,0.0,,,,55.0,,,,,44,note_on,,0.0,55.0,0.0,46796,121.86458333333333
6043,0.0,,,,62.0,,,,,0,note_on,,0.0,62.0,0.0,46796,121.86458333333333
6044,0.0,,,,59.0,,,,,0,note_on,,0.0,59.0,0.0,46796,121.86458333333333
6045,0.0,,,,55.0,,,,,52,note_on,,100.0,55.0,100.0,46848,122.0
6046,0.0,,,,59.0,,,,,0,note_on,,100.0,59.0,100.0,46848,122.0
6047,0.0,,,,62.0,,,,,0,note_on,,100.0,62.0,100.0,46848,122.0
6048,0.0,,,,59.0,,,,,44,note_on,,0.0,59.0,0.0,46892,122.11458333333333
6049,0.0,,,,62.0,,,,,0,note_on,,0.0,62.0,0.0,46892,122.11458333333333
6050,0.0,,,,55.0,,,,,0,note_on,,0.0,55.0,0.0,46892,122.11458333333333
6051,0.0,,,,59.0,,,,,52,note_on,,100.0,59.0,100.0,46944,122.25
6052,0.0,,,,55.0,,,,,0,note_on,,100.0,55.0,100.0,46944,122.25
6053,0.0,,,,62.0,,,,,0,note_on,,100.0,62.0,100.0,46944,122.25
6054,0.0,,,,59.0,,,,,44,note_on,,0.0,59.0,0.0,46988,122.36458333333333
6055,0.0,,,,55.0,,,,,0,note_on,,0.0,55.0,0.0,46988,122.36458333333333
6056,0.0,,,,62.0,,,,,0,note_on,,0.0,62.0,0.0,46988,122.36458333333333
6057,0.0,,,,62.0,,,,,52,note_on,,100.0,62.0,100.0,47040,122.5
6058,0.0,,,,59.0,,,,,0,note_on,,100.0,59.0,100.0,47040,122.5
6059,0.0,,,,55.0,,,,,0,note_on,,100.0,55.0,100.0,47040,122.5
6060,0.0,,,,59.0,,,,,44,note_on,,0.0,59.0,0.0,47084,122.61458333333333
6061,0.0,,,,55.0,,,,,0,note_on,,0.0,55.0,0.0,47084,122.61458333333333
6062,0.0,,,,62.0,,,,,0,note_on,,0.0,62.0,0.0,47084,122.61458333333333
6063,0.0,,,,55.0,,,,,52,note_on,,100.0,55.0,100.0,47136,122.75
6064,0.0,,,,59.0,,,,,0,note_on,,100.0,59.0,100.0,47136,122.75
6065,0.0,,,,62.0,,,,,0,note_on,,100.0,62.0,100.0,47136,122.75
6066,0.0,,,,55.0,,,,,44,note_on,,0.0,55.0,0.0,47180,122.86458333333333
6067,0.0,,,,59.0,,,,,0,note_on,,0.0,59.0,0.0,47180,122.86458333333333
6068,0.0,,,,62.0,,,,,0,note_on,,0.0,62.0,0.0,47180,122.86458333333333
6069,0.0,,,,62.0,,,,,52,note_on,,100.0,62.0,100.0,47232,123.0
6070,0.0,,,,55.0,,,,,0,note_on,,100.0,55.0,100.0,47232,123.0
6071,0.0,,,,59.0,,,,,0,note_on,,100.0,59.0,100.0,47232,123.0
6072,0.0,,,,55.0,,,,,44,note_on,,0.0,55.0,0.0,47276,123.11458333333333
6073,0.0,,,,59.0,,,,,0,note_on,,0.0,59.0,0.0,47276,123.11458333333333
6074,0.0,,,,62.0,,,,,0,note_on,,0.0,62.0,0.0,47276,123.11458333333333
6075,0.0,,,,62.0,,,,,52,note_on,,100.0,62.0,100.0,47328,123.25
6076,0.0,,,,59.0,,,,,0,note_on,,100.0,59.0,100.0,47328,123.25
6077,0.0,,,,55.0,,,,,0,note_on,,100.0,55.0,100.0,47328,123.25
6078,0.0,,,,62.0,,,,,44,note_on,,0.0,62.0,0.0,47372,123.36458333333333
6079,0.0,,,,59.0,,,,,0,note_on,,0.0,59.0,0.0,47372,123.36458333333333
6080,0.0,,,,55.0,,,,,0,note_on,,0.0,55.0,0.0,47372,123.36458333333333
6081,0.0,,,,59.0,,,,,52,note_on,,100.0,59.0,100.0,47424,123.5
6082,0.0,,,,55.0,,,,,0,note_on,,100.0,55.0,100.0,47424,123.5
6083,0.0,,,,62.0,,,,,0,note_on,,100.0,62.0,100.0,47424,123.5
6084,0.0,,,,55.0,,,,,44,note_on,,0.0,55.0,0.0,47468,123.61458333333333
6085,0.0,,,,62.0,,,,,0,note_on,,0.0,62.0,0.0,47468,123.61458333333333
6086,0.0,,,,59.0,,,,,0,note_on,,0.0,59.0,0.0,47468,123.61458333333333
6087,0.0,,,,59.0,,,,,52,note_on,,100.0,59.0,100.0,47520,123.75
6088,0.0,,,,62.0,,,,,0,note_on,,100.0,62.0,100.0,47520,123.75
6089,0.0,,,,55.0,,,,,0,note_on,,100.0,55.0,100.0,47520,123.75
6090,0.0,,,,59.0,,,,,44,note_on,,0.0,59.0,0.0,47564,123.86458333333333
6091,0.0,,,,62.0,,,,,0,note_on,,0.0,62.0,0.0,47564,123.86458333333333
6092,0.0,,,,55.0,,,,,0,note_on,,0.0,55.0,0.0,47564,123.86458333333333
6093,0.0,,,,53.0,,,,,52,note_on,,100.0,53.0,100.0,47616,124.0
6094,0.0,,,,60.0,,,,,0,note_on,,100.0,60.0,100.0,47616,124.0
6095,0.0,,,,57.0,,,,,0,note_on,,100.0,57.0,100.0,47616,124.0
6096,0.0,,,,60.0,,,,,44,note_on,,0.0,60.0,0.0,47660,124.11458333333333
6097,0.0,,,,57.0,,,,,0,note_on,,0.0,57.0,0.0,47660,124.11458333333333
6098,0.0,,,,53.0,,,,,0,note_on,,0.0,53.0,0.0,47660,124.11458333333333
6099,0.0,,,,53.0,,,,,52,note_on,,100.0,53.0,100.0,47712,124.25
6100,0.0,,,,57.0,,,,,0,note_on,,100.0,57.0,100.0,47712,124.25
6101,0.0,,,,60.0,,,,,0,note_on,,100.0,60.0,100.0,47712,124.25
6102,0.0,,,,53.0,,,,,44,note_on,,0.0,53.0,0.0,47756,124.36458333333333
6103,0.0,,,,57.0,,,,,0,note_on,,0.0,57.0,0.0,47756,124.36458333333333
6104,0.0,,,,60.0,,,,,0,note_on,,0.0,60.0,0.0,47756,124.36458333333333
6105,0.0,,,,53.0,,,,,52,note_on,,100.0,53.0,100.0,47808,124.5
6106,0.0,,,,57.0,,,,,0,note_on,,100.0,57.0,100.0,47808,124.5
6107,0.0,,,,60.0,,,,,0,note_on,,100.0,60.0,100.0,47808,124.5
6108,0.0,,,,57.0,,,,,44,note_on,,0.0,57.0,0.0,47852,124.61458333333333
6109,0.0,,,,60.0,,,,,0,note_on,,0.0,60.0,0.0,47852,124.61458333333333
6110,0.0,,,,53.0,,,,,0,note_on,,0.0,53.0,0.0,47852,124.61458333333333
6111,0.0,,,,57.0,,,,,52,note_on,,100.0,57.0,100.0,47904,124.75
6112,0.0,,,,53.0,,,,,0,note_on,,100.0,53.0,100.0,47904,124.75
6113,0.0,,,,60.0,,,,,0,note_on,,100.0,60.0,100.0,47904,124.75
6114,0.0,,,,57.0,,,,,44,note_on,,0.0,57.0,0.0,47948,124.86458333333333
6115,0.0,,,,53.0,,,,,0,note_on,,0.0,53.0,0.0,47948,124.86458333333333
6116,0.0,,,,60.0,,,,,0,note_on,,0.0,60.0,0.0,47948,124.86458333333333
6117,0.0,,,,53.0,,,,,52,note_on,,100.0,53.0,100.0,48000,125.0
6118,0.0,,,,57.0,,,,,0,note_on,,100.0,57.0,100.0,48000,125.0
6119,0.0,,,,60.0,,,,,0,note_on,,100.0,60.0,100.0,48000,125.0
6120,0.0,,,,57.0,,,,,44,note_on,,0.0,57.0,0.0,48044,125.11458333333333
6121,0.0,,,,60.0,,,,,0,note_on,,0.0,60.0,0.0,48044,125.11458333333333
6122,0.0,,,,53.0,,,,,0,note_on,,0.0,53.0,0.0,48044,125.11458333333333
6123,0.0,,,,53.0,,,,,52,note_on,,100.0,53.0,100.0,48096,125.25
6124,0.0,,,,60.0,,,,,0,note_on,,100.0,60.0,100.0,48096,125.25
6125,0.0,,,,57.0,,,,,0,note_on,,100.0,57.0,100.0,48096,125.25
6126,0.0,,,,53.0,,,,,44,note_on,,0.0,53.0,0.0,48140,125.36458333333333
6127,0.0,,,,60.0,,,,,0,note_on,,0.0,60.0,0.0,48140,125.36458333333333
6128,0.0,,,,57.0,,,,,0,note_on,,0.0,57.0,0.0,48140,125.36458333333333
6129,0.0,,,,53.0,,,,,52,note_on,,100.0,53.0,100.0,48192,125.5
6130,0.0,,,,57.0,,,,,0,note_on,,100.0,57.0,100.0,48192,125.5
6131,0.0,,,,60.0,,,,,0,note_on,,100.0,60.0,100.0,48192,125.5
6132,0.0,,,,57.0,,,,,44,note_on,,0.0,57.0,0.0,48236,125.61458333333333
6133,0.0,,,,53.0,,,,,0,note_on,,0.0,53.0,0.0,48236,125.61458333333333
6134,0.0,,,,60.0,,,,,0,note_on,,0.0,60.0,0.0,48236,125.61458333333333
6135,0.0,,,,48.0,,,,,52,note_on,,100.0,48.0,100.0,48288,125.75
6136,0.0,,,,48.0,,,,,44,note_on,,0.0,48.0,0.0,48332,125.86458333333333
6137,0.0,,,,64.0,,,,,52,note_on,,100.0,64.0,100.0,48384,126.0
6138,0.0,,,,60.0,,,,,0,note_on,,100.0,60.0,100.0,48384,126.0
6139,0.0,,,,55.0,,,,,0,note_on,,100.0,55.0,100.0,48384,126.0
6140,0.0,,,,64.0,,,,,44,note_on,,0.0,64.0,0.0,48428,126.11458333333333
6141,0.0,,,,60.0,,,,,0,note_on,,0.0,60.0,0.0,48428,126.11458333333333
6142,0.0,,,,55.0,,,,,0,note_on,,0.0,55.0,0.0,48428,126.11458333333333
6143,0.0,,,,60.0,,,,,52,note_on,,100.0,60.0,100.0,48480,126.25
6144,0.0,,,,55.0,,,,,0,note_on,,100.0,55.0,100.0,48480,126.25
6145,0.0,,,,64.0,,,,,0,note_on,,100.0,64.0,100.0,48480,126.25
6146,0.0,,,,60.0,,,,,44,note_on,,0.0,60.0,0.0,48524,126.36458333333333
6147,0.0,,,,55.0,,,,,0,note_on,,0.0,55.0,0.0,48524,126.36458333333333
6148,0.0,,,,64.0,,,,,0,note_on,,0.0,64.0,0.0,48524,126.36458333333333
6149,0.0,,,,60.0,,,,,52,note_on,,100.0,60.0,100.0,48576,126.5
6150,0.0,,,,64.0,,,,,0,note_on,,100.0,64.0,100.0,48576,126.5
6151,0.0,,,,55.0,,,,,0,note_on,,100.0,55.0,100.0,48576,126.5
6152,0.0,,,,60.0,,,,,44,note_on,,0.0,60.0,0.0,48620,126.61458333333333
6153,0.0,,,,64.0,,,,,0,note_on,,0.0,64.0,0.0,48620,126.61458333333333
6154,0.0,,,,55.0,,,,,0,note_on,,0.0,55.0,0.0,48620,126.61458333333333
6155,0.0,,,,64.0,,,,,52,note_on,,100.0,64.0,100.0,48672,126.75
6156,0.0,,,,55.0,,,,,0,note_on,,100.0,55.0,100.0,48672,126.75
6157,0.0,,,,60.0,,,,,0,note_on,,100.0,60.0,100.0,48672,126.75
6158,0.0,,,,64.0,,,,,44,note_on,,0.0,64.0,0.0,48716,126.86458333333333
6159,0.0,,,,55.0,,,,,0,note_on,,0.0,55.0,0.0,48716,126.86458333333333
6160,0.0,,,,60.0,,,,,0,note_on,,0.0,60.0,0.0,48716,126.86458333333333
6161,0.0,,,,60.0,,,,,52,note_on,,100.0,60.0,100.0,48768,127.0
6162,0.0,,,,55.0,,,,,0,note_on,,100.0,55.0,100.0,48768,127.0
6163,0.0,,,,64.0,,,,,0,note_on,,100.0,64.0,100.0,48768,127.0
6164,0.0,,,,60.0,,,,,44,note_on,,0.0,60.0,0.0,48812,127.11458333333333
6165,0.0,,,,55.0,,,,,0,note_on,,0.0,55.0,0.0,48812,127.11458333333333
6166,0.0,,,,64.0,,,,,0,note_on,,0.0,64.0,0.0,48812,127.11458333333333
6167,0.0,,,,55.0,,,,,52,note_on,,100.0,55.0,100.0,48864,127.25
6168,0.0,,,,60.0,,,,,0,note_on,,100.0,60.0,100.0,48864,127.25
6169,0.0,,,,64.0,,,,,0,note_on,,100.0,64.0,100.0,48864,127.25
6170,0.0,,,,55.0,,,,,44,note_on,,0.0,55.0,0.0,48908,127.36458333333333
6171,0.0,,,,60.0,,,,,0,note_on,,0.0,60.0,0.0,48908,127.36458333333333
6172,0.0,,,,64.0,,,,,0,note_on,,0.0,64.0,0.0,48908,127.36458333333333
6173,0.0,,,,55.0,,,,,52,note_on,,100.0,55.0,100.0,48960,127.5
6174,0.0,,,,64.0,,,,,0,note_on,,100.0,64.0,100.0,48960,127.5
6175,0.0,,,,60.0,,,,,0,note_on,,100.0,60.0,100.0,48960,127.5
6176,0.0,,,,55.0,,,,,44,note_on,,0.0,55.0,0.0,49004,127.61458333333333
6177,0.0,,,,64.0,,,,,0,note_on,,0.0,64.0,0.0,49004,127.61458333333333
6178,0.0,,,,60.0,,,,,0,note_on,,0.0,60.0,0.0,49004,127.61458333333333
6179,0.0,,,,64.0,,,,,52,note_on,,100.0,64.0,100.0,49056,127.75
6180,0.0,,,,60.0,,,,,0,note_on,,100.0,60.0,100.0,49056,127.75
6181,0.0,,,,55.0,,,,,0,note_on,,100.0,55.0,100.0,49056,127.75
6182,0.0,,,,64.0,,,,,44,note_on,,0.0,64.0,0.0,49100,127.86458333333333
6183,0.0,,,,60.0,,,,,0,note_on,,0.0,60.0,0.0,49100,127.86458333333333
6184,0.0,,,,55.0,,,,,0,note_on,,0.0,55.0,0.0,49100,127.86458333333333
6185,0.0,,,,62.0,,,,,52,note_on,,100.0,62.0,100.0,49152,128.0
6186,0.0,,,,55.0,,,,,0,note_on,,100.0,55.0,100.0,49152,128.0
6187,0.0,,,,59.0,,,,,0,note_on,,100.0,59.0,100.0,49152,128.0
6188,0.0,,,,62.0,,,,,44,note_on,,0.0,62.0,0.0,49196,128.11458333333331
6189,0.0,,,,55.0,,,,,0,note_on,,0.0,55.0,0.0,49196,128.11458333333331
6190,0.0,,,,59.0,,,,,0,note_on,,0.0,59.0,0.0,49196,128.11458333333331
6191,0.0,,,,62.0,,,,,52,note_on,,100.0,62.0,100.0,49248,128.25
6192,0.0,,,,59.0,,,,,0,note_on,,100.0,59.0,100.0,49248,128.25
6193,0.0,,,,55.0,,,,,0,note_on,,100.0,55.0,100.0,49248,128.25
6194,0.0,,,,62.0,,,,,44,note_on,,0.0,62.0,0.0,49292,128.36458333333331
6195,0.0,,,,59.0,,,,,0,note_on,,0.0,59.0,0.0,49292,128.36458333333331
6196,0.0,,,,55.0,,,,,0,note_on,,0.0,55.0,0.0,49292,128.36458333333331
6197,0.0,,,,62.0,,,,,52,note_on,,100.0,62.0,100.0,49344,128.5
6198,0.0,,,,55.0,,,,,0,note_on,,100.0,55.0,100.0,49344,128.5
6199,0.0,,,,59.0,,,,,0,note_on,,100.0,59.0,100.0,49344,128.5
6200,0.0,,,,62.0,,,,,44,note_on,,0.0,62.0,0.0,49388,128.61458333333331
6201,0.0,,,,55.0,,,,,0,note_on,,0.0,55.0,0.0,49388,128.61458333333331
6202,0.0,,,,59.0,,,,,0,note_on,,0.0,59.0,0.0,49388,128.61458333333331
6203,0.0,,,,62.0,,,,,52,note_on,,100.0,62.0,100.0,49440,128.75
6204,0.0,,,,55.0,,,,,0,note_on,,100.0,55.0,100.0,49440,128.75
6205,0.0,,,,59.0,,,,,0,note_on,,100.0,59.0,100.0,49440,128.75
6206,0.0,,,,62.0,,,,,44,note_on,,0.0,62.0,0.0,49484,128.86458333333331
6207,0.0,,,,55.0,,,,,0,note_on,,0.0,55.0,0.0,49484,128.86458333333331
6208,0.0,,,,59.0,,,,,0,note_on,,0.0,59.0,0.0,49484,128.86458333333331
6209,0.0,,,,59.0,,,,,52,note_on,,100.0,59.0,100.0,49536,129.0
6210,0.0,,,,55.0,,,,,0,note_on,,100.0,55.0,100.0,49536,129.0
6211,0.0,,,,62.0,,,,,0,note_on,,100.0,62.0,100.0,49536,129.0
6212,0.0,,,,59.0,,,,,44,note_on,,0.0,59.0,0.0,49580,129.11458333333331
6213,0.0,,,,55.0,,,,,0,note_on,,0.0,55.0,0.0,49580,129.11458333333331
6214,0.0,,,,62.0,,,,,0,note_on,,0.0,62.0,0.0,49580,129.11458333333331
6215,0.0,,,,59.0,,,,,52,note_on,,100.0,59.0,100.0,49632,129.25
6216,0.0,,,,55.0,,,,,0,note_on,,100.0,55.0,100.0,49632,129.25
6217,0.0,,,,62.0,,,,,0,note_on,,100.0,62.0,100.0,49632,129.25
6218,0.0,,,,59.0,,,,,44,note_on,,0.0,59.0,0.0,49676,129.36458333333331
6219,0.0,,,,55.0,,,,,0,note_on,,0.0,55.0,0.0,49676,129.36458333333331
6220,0.0,,,,62.0,,,,,0,note_on,,0.0,62.0,0.0,49676,129.36458333333331
6221,0.0,,,,55.0,,,,,52,note_on,,100.0,55.0,100.0,49728,129.5
6222,0.0,,,,59.0,,,,,0,note_on,,100.0,59.0,100.0,49728,129.5
6223,0.0,,,,62.0,,,,,0,note_on,,100.0,62.0,100.0,49728,129.5
6224,0.0,,,,55.0,,,,,44,note_on,,0.0,55.0,0.0,49772,129.61458333333331
6225,0.0,,,,59.0,,,,,0,note_on,,0.0,59.0,0.0,49772,129.61458333333331
6226,0.0,,,,62.0,,,,,0,note_on,,0.0,62.0,0.0,49772,129.61458333333331
6227,0.0,,,,62.0,,,,,52,note_on,,100.0,62.0,100.0,49824,129.75
6228,0.0,,,,55.0,,,,,0,note_on,,100.0,55.0,100.0,49824,129.75
6229,0.0,,,,59.0,,,,,0,note_on,,100.0,59.0,100.0,49824,129.75
6230,0.0,,,,62.0,,,,,44,note_on,,0.0,62.0,0.0,49868,129.86458333333331
6231,0.0,,,,55.0,,,,,0,note_on,,0.0,55.0,0.0,49868,129.86458333333331
6232,0.0,,,,59.0,,,,,0,note_on,,0.0,59.0,0.0,49868,129.86458333333331
6233,0.0,,,,59.0,,,,,52,note_on,,100.0,59.0,100.0,49920,130.0
6234,0.0,,,,55.0,,,,,0,note_on,,100.0,55.0,100.0,49920,130.0
6235,0.0,,,,62.0,,,,,0,note_on,,100.0,62.0,100.0,49920,130.0
6236,0.0,,,,59.0,,,,,44,note_on,,0.0,59.0,0.0,49964,130.11458333333331
6237,0.0,,,,55.0,,,,,0,note_on,,0.0,55.0,0.0,49964,130.11458333333331
6238,0.0,,,,62.0,,,,,0,note_on,,0.0,62.0,0.0,49964,130.11458333333331
6239,0.0,,,,55.0,,,,,52,note_on,,100.0,55.0,100.0,50016,130.25
6240,0.0,,,,62.0,,,,,0,note_on,,100.0,62.0,100.0,50016,130.25
6241,0.0,,,,59.0,,,,,0,note_on,,100.0,59.0,100.0,50016,130.25
6242,0.0,,,,55.0,,,,,44,note_on,,0.0,55.0,0.0,50060,130.36458333333331
6243,0.0,,,,62.0,,,,,0,note_on,,0.0,62.0,0.0,50060,130.36458333333331
6244,0.0,,,,59.0,,,,,0,note_on,,0.0,59.0,0.0,50060,130.36458333333331
6245,0.0,,,,59.0,,,,,52,note_on,,100.0,59.0,100.0,50112,130.5
6246,0.0,,,,55.0,,,,,0,note_on,,100.0,55.0,100.0,50112,130.5
6247,0.0,,,,62.0,,,,,0,note_on,,100.0,62.0,100.0,50112,130.5
6248,0.0,,,,59.0,,,,,44,note_on,,0.0,59.0,0.0,50156,130.61458333333331
6249,0.0,,,,55.0,,,,,0,note_on,,0.0,55.0,0.0,50156,130.61458333333331
6250,0.0,,,,62.0,,,,,0,note_on,,0.0,62.0,0.0,50156,130.61458333333331
6251,0.0,,,,62.0,,,,,52,note_on,,100.0,62.0,100.0,50208,130.75
6252,0.0,,,,59.0,,,,,0,note_on,,100.0,59.0,100.0,50208,130.75
6253,0.0,,,,55.0,,,,,0,note_on,,100.0,55.0,100.0,50208,130.75
6254,0.0,,,,62.0,,,,,44,note_on,,0.0,62.0,0.0,50252,130.86458333333331
6255,0.0,,,,59.0,,,,,0,note_on,,0.0,59.0,0.0,50252,130.86458333333331
6256,0.0,,,,55.0,,,,,0,note_on,,0.0,55.0,0.0,50252,130.86458333333331
6257,0.0,,,,55.0,,,,,52,note_on,,100.0,55.0,100.0,50304,131.0
6258,0.0,,,,62.0,,,,,0,note_on,,100.0,62.0,100.0,50304,131.0
6259,0.0,,,,59.0,,,,,0,note_on,,100.0,59.0,100.0,50304,131.0
6260,0.0,,,,55.0,,,,,44,note_on,,0.0,55.0,0.0,50348,131.11458333333331
6261,0.0,,,,62.0,,,,,0,note_on,,0.0,62.0,0.0,50348,131.11458333333331
6262,0.0,,,,59.0,,,,,0,note_on,,0.0,59.0,0.0,50348,131.11458333333331
6263,0.0,,,,55.0,,,,,52,note_on,,100.0,55.0,100.0,50400,131.25
6264,0.0,,,,62.0,,,,,0,note_on,,100.0,62.0,100.0,50400,131.25
6265,0.0,,,,59.0,,,,,0,note_on,,100.0,59.0,100.0,50400,131.25
6266,0.0,,,,55.0,,,,,44,note_on,,0.0,55.0,0.0,50444,131.36458333333331
6267,0.0,,,,62.0,,,,,0,note_on,,0.0,62.0,0.0,50444,131.36458333333331
6268,0.0,,,,59.0,,,,,0,note_on,,0.0,59.0,0.0,50444,131.36458333333331
6269,0.0,,,,59.0,,,,,52,note_on,,100.0,59.0,100.0,50496,131.5
6270,0.0,,,,55.0,,,,,0,note_on,,100.0,55.0,100.0,50496,131.5
6271,0.0,,,,62.0,,,,,0,note_on,,100.0,62.0,100.0,50496,131.5
6272,0.0,,,,59.0,,,,,44,note_on,,0.0,59.0,0.0,50540,131.61458333333331
6273,0.0,,,,55.0,,,,,0,note_on,,0.0,55.0,0.0,50540,131.61458333333331
6274,0.0,,,,62.0,,,,,0,note_on,,0.0,62.0,0.0,50540,131.61458333333331
6275,0.0,,,,55.0,,,,,52,note_on,,100.0,55.0,100.0,50592,131.75
6276,0.0,,,,59.0,,,,,0,note_on,,100.0,59.0,100.0,50592,131.75
6277,0.0,,,,62.0,,,,,0,note_on,,100.0,62.0,100.0,50592,131.75
6278,0.0,,,,55.0,,,,,44,note_on,,0.0,55.0,0.0,50636,131.86458333333331
6279,0.0,,,,59.0,,,,,0,note_on,,0.0,59.0,0.0,50636,131.86458333333331
6280,0.0,,,,62.0,,,,,0,note_on,,0.0,62.0,0.0,50636,131.86458333333331
6281,0.0,,,,53.0,,,,,52,note_on,,100.0,53.0,100.0,50688,132.0
6282,0.0,,,,60.0,,,,,0,note_on,,100.0,60.0,100.0,50688,132.0
6283,0.0,,,,57.0,,,,,0,note_on,,100.0,57.0,100.0,50688,132.0
6284,0.0,,,,53.0,,,,,44,note_on,,0.0,53.0,0.0,50732,132.11458333333331
6285,0.0,,,,60.0,,,,,0,note_on,,0.0,60.0,0.0,50732,132.11458333333331
6286,0.0,,,,57.0,,,,,0,note_on,,0.0,57.0,0.0,50732,132.11458333333331
6287,0.0,,,,57.0,,,,,52,note_on,,100.0,57.0,100.0,50784,132.25
6288,0.0,,,,60.0,,,,,0,note_on,,100.0,60.0,100.0,50784,132.25
6289,0.0,,,,53.0,,,,,0,note_on,,100.0,53.0,100.0,50784,132.25
6290,0.0,,,,57.0,,,,,44,note_on,,0.0,57.0,0.0,50828,132.36458333333331
6291,0.0,,,,60.0,,,,,0,note_on,,0.0,60.0,0.0,50828,132.36458333333331
6292,0.0,,,,53.0,,,,,0,note_on,,0.0,53.0,0.0,50828,132.36458333333331
6293,0.0,,,,53.0,,,,,52,note_on,,100.0,53.0,100.0,50880,132.5
6294,0.0,,,,57.0,,,,,0,note_on,,100.0,57.0,100.0,50880,132.5
6295,0.0,,,,60.0,,,,,0,note_on,,100.0,60.0,100.0,50880,132.5
6296,0.0,,,,53.0,,,,,44,note_on,,0.0,53.0,0.0,50924,132.61458333333331
6297,0.0,,,,57.0,,,,,0,note_on,,0.0,57.0,0.0,50924,132.61458333333331
6298,0.0,,,,60.0,,,,,0,note_on,,0.0,60.0,0.0,50924,132.61458333333331
6299,0.0,,,,60.0,,,,,52,note_on,,100.0,60.0,100.0,50976,132.75
6300,0.0,,,,57.0,,,,,0,note_on,,100.0,57.0,100.0,50976,132.75
6301,0.0,,,,53.0,,,,,0,note_on,,100.0,53.0,100.0,50976,132.75
6302,0.0,,,,60.0,,,,,44,note_on,,0.0,60.0,0.0,51020,132.86458333333331
6303,0.0,,,,57.0,,,,,0,note_on,,0.0,57.0,0.0,51020,132.86458333333331
6304,0.0,,,,53.0,,,,,0,note_on,,0.0,53.0,0.0,51020,132.86458333333331
6305,0.0,,,,60.0,,,,,52,note_on,,100.0,60.0,100.0,51072,133.0
6306,0.0,,,,57.0,,,,,0,note_on,,100.0,57.0,100.0,51072,133.0
6307,0.0,,,,53.0,,,,,0,note_on,,100.0,53.0,100.0,51072,133.0
6308,0.0,,,,60.0,,,,,44,note_on,,0.0,60.0,0.0,51116,133.11458333333331
6309,0.0,,,,57.0,,,,,0,note_on,,0.0,57.0,0.0,51116,133.11458333333331
6310,0.0,,,,53.0,,,,,0,note_on,,0.0,53.0,0.0,51116,133.11458333333331
6311,0.0,,,,60.0,,,,,52,note_on,,100.0,60.0,100.0,51168,133.25
6312,0.0,,,,57.0,,,,,0,note_on,,100.0,57.0,100.0,51168,133.25
6313,0.0,,,,53.0,,,,,0,note_on,,100.0,53.0,100.0,51168,133.25
6314,0.0,,,,60.0,,,,,44,note_on,,0.0,60.0,0.0,51212,133.36458333333331
6315,0.0,,,,57.0,,,,,0,note_on,,0.0,57.0,0.0,51212,133.36458333333331
6316,0.0,,,,53.0,,,,,0,note_on,,0.0,53.0,0.0,51212,133.36458333333331
6317,0.0,,,,60.0,,,,,52,note_on,,100.0,60.0,100.0,51264,133.5
6318,0.0,,,,57.0,,,,,0,note_on,,100.0,57.0,100.0,51264,133.5
6319,0.0,,,,53.0,,,,,0,note_on,,100.0,53.0,100.0,51264,133.5
6320,0.0,,,,60.0,,,,,44,note_on,,0.0,60.0,0.0,51308,133.61458333333331
6321,0.0,,,,53.0,,,,,0,note_on,,0.0,53.0,0.0,51308,133.61458333333331
6322,0.0,,,,57.0,,,,,0,note_on,,0.0,57.0,0.0,51308,133.61458333333331
6323,0.0,,,,48.0,,,,,52,note_on,,100.0,48.0,100.0,51360,133.75
6324,0.0,,,,48.0,,,,,44,note_on,,0.0,48.0,0.0,51404,133.86458333333331
6325,0.0,,,,60.0,,,,,52,note_on,,100.0,60.0,100.0,51456,134.0
6326,0.0,,,,55.0,,,,,0,note_on,,100.0,55.0,100.0,51456,134.0
6327,0.0,,,,64.0,,,,,0,note_on,,100.0,64.0,100.0,51456,134.0
6328,0.0,,,,60.0,,,,,44,note_on,,0.0,60.0,0.0,51500,134.11458333333331
6329,0.0,,,,55.0,,,,,0,note_on,,0.0,55.0,0.0,51500,134.11458333333331
6330,0.0,,,,64.0,,,,,0,note_on,,0.0,64.0,0.0,51500,134.11458333333331
6331,0.0,,,,60.0,,,,,52,note_on,,100.0,60.0,100.0,51552,134.25
6332,0.0,,,,64.0,,,,,0,note_on,,100.0,64.0,100.0,51552,134.25
6333,0.0,,,,55.0,,,,,0,note_on,,100.0,55.0,100.0,51552,134.25
6334,0.0,,,,55.0,,,,,44,note_on,,0.0,55.0,0.0,51596,134.36458333333331
6335,0.0,,,,60.0,,,,,0,note_on,,0.0,60.0,0.0,51596,134.36458333333331
6336,0.0,,,,64.0,,,,,0,note_on,,0.0,64.0,0.0,51596,134.36458333333331
6337,0.0,,,,55.0,,,,,52,note_on,,100.0,55.0,100.0,51648,134.5
6338,0.0,,,,60.0,,,,,0,note_on,,100.0,60.0,100.0,51648,134.5
6339,0.0,,,,64.0,,,,,0,note_on,,100.0,64.0,100.0,51648,134.5
6340,0.0,,,,55.0,,,,,44,note_on,,0.0,55.0,0.0,51692,134.61458333333331
6341,0.0,,,,60.0,,,,,0,note_on,,0.0,60.0,0.0,51692,134.61458333333331
6342,0.0,,,,64.0,,,,,0,note_on,,0.0,64.0,0.0,51692,134.61458333333331
6343,0.0,,,,55.0,,,,,52,note_on,,100.0,55.0,100.0,51744,134.75
6344,0.0,,,,60.0,,,,,0,note_on,,100.0,60.0,100.0,51744,134.75
6345,0.0,,,,64.0,,,,,0,note_on,,100.0,64.0,100.0,51744,134.75
6346,0.0,,,,64.0,,,,,44,note_on,,0.0,64.0,0.0,51788,134.86458333333331
6347,0.0,,,,55.0,,,,,0,note_on,,0.0,55.0,0.0,51788,134.86458333333331
6348,0.0,,,,60.0,,,,,0,note_on,,0.0,60.0,0.0,51788,134.86458333333331
6349,0.0,,,,55.0,,,,,52,note_on,,100.0,55.0,100.0,51840,135.0
6350,0.0,,,,60.0,,,,,0,note_on,,100.0,60.0,100.0,51840,135.0
6351,0.0,,,,64.0,,,,,0,note_on,,100.0,64.0,100.0,51840,135.0
6352,0.0,,,,55.0,,,,,44,note_on,,0.0,55.0,0.0,51884,135.11458333333331
6353,0.0,,,,60.0,,,,,0,note_on,,0.0,60.0,0.0,51884,135.11458333333331
6354,0.0,,,,64.0,,,,,0,note_on,,0.0,64.0,0.0,51884,135.11458333333331
6355,0.0,,,,55.0,,,,,52,note_on,,100.0,55.0,100.0,51936,135.25
6356,0.0,,,,64.0,,,,,0,note_on,,100.0,64.0,100.0,51936,135.25
6357,0.0,,,,60.0,,,,,0,note_on,,100.0,60.0,100.0,51936,135.25
6358,0.0,,,,60.0,,,,,44,note_on,,0.0,60.0,0.0,51980,135.36458333333331
6359,0.0,,,,55.0,,,,,0,note_on,,0.0,55.0,0.0,51980,135.36458333333331
6360,0.0,,,,64.0,,,,,0,note_on,,0.0,64.0,0.0,51980,135.36458333333331
6361,0.0,,,,60.0,,,,,52,note_on,,100.0,60.0,100.0,52032,135.5
6362,0.0,,,,55.0,,,,,0,note_on,,100.0,55.0,100.0,52032,135.5
6363,0.0,,,,64.0,,,,,0,note_on,,100.0,64.0,100.0,52032,135.5
6364,0.0,,,,60.0,,,,,44,note_on,,0.0,60.0,0.0,52076,135.61458333333331
6365,0.0,,,,55.0,,,,,0,note_on,,0.0,55.0,0.0,52076,135.61458333333331
6366,0.0,,,,64.0,,,,,0,note_on,,0.0,64.0,0.0,52076,135.61458333333331
6367,0.0,,,,60.0,,,,,52,note_on,,100.0,60.0,100.0,52128,135.75
6368,0.0,,,,55.0,,,,,0,note_on,,100.0,55.0,100.0,52128,135.75
6369,0.0,,,,64.0,,,,,0,note_on,,100.0,64.0,100.0,52128,135.75
6370,0.0,,,,64.0,,,,,44,note_on,,0.0,64.0,0.0,52172,135.86458333333331
6371,0.0,,,,60.0,,,,,0,note_on,,0.0,60.0,0.0,52172,135.86458333333331
6372,0.0,,,,55.0,,,,,0,note_on,,0.0,55.0,0.0,52172,135.86458333333331
6373,0.0,,,,55.0,,,,,52,note_on,,100.0,55.0,100.0,52224,136.0
6374,0.0,,,,62.0,,,,,0,note_on,,100.0,62.0,100.0,52224,136.0
6375,0.0,,,,59.0,,,,,0,note_on,,100.0,59.0,100.0,52224,136.0
6376,0.0,,,,55.0,,,,,44,note_on,,0.0,55.0,0.0,52268,136.11458333333331
6377,0.0,,,,62.0,,,,,0,note_on,,0.0,62.0,0.0,52268,136.11458333333331
6378,0.0,,,,59.0,,,,,0,note_on,,0.0,59.0,0.0,52268,136.11458333333331
6379,0.0,,,,55.0,,,,,52,note_on,,100.0,55.0,100.0,52320,136.25
6380,0.0,,,,62.0,,,,,0,note_on,,100.0,62.0,100.0,52320,136.25
6381,0.0,,,,59.0,,,,,0,note_on,,100.0,59.0,100.0,52320,136.25
6382,0.0,,,,59.0,,,,,44,note_on,,0.0,59.0,0.0,52364,136.36458333333331
6383,0.0,,,,55.0,,,,,0,note_on,,0.0,55.0,0.0,52364,136.36458333333331
6384,0.0,,,,62.0,,,,,0,note_on,,0.0,62.0,0.0,52364,136.36458333333331
6385,0.0,,,,59.0,,,,,52,note_on,,100.0,59.0,100.0,52416,136.5
6386,0.0,,,,62.0,,,,,0,note_on,,100.0,62.0,100.0,52416,136.5
6387,0.0,,,,55.0,,,,,0,note_on,,100.0,55.0,100.0,52416,136.5
6388,0.0,,,,59.0,,,,,44,note_on,,0.0,59.0,0.0,52460,136.61458333333331
6389,0.0,,,,62.0,,,,,0,note_on,,0.0,62.0,0.0,52460,136.61458333333331
6390,0.0,,,,55.0,,,,,0,note_on,,0.0,55.0,0.0,52460,136.61458333333331
6391,0.0,,,,59.0,,,,,52,note_on,,100.0,59.0,100.0,52512,136.75
6392,0.0,,,,62.0,,,,,0,note_on,,100.0,62.0,100.0,52512,136.75
6393,0.0,,,,55.0,,,,,0,note_on,,100.0,55.0,100.0,52512,136.75
6394,0.0,,,,55.0,,,,,44,note_on,,0.0,55.0,0.0,52556,136.86458333333331
6395,0.0,,,,59.0,,,,,0,note_on,,0.0,59.0,0.0,52556,136.86458333333331
6396,0.0,,,,62.0,,,,,0,note_on,,0.0,62.0,0.0,52556,136.86458333333331
6397,0.0,,,,62.0,,,,,52,note_on,,100.0,62.0,100.0,52608,137.0
6398,0.0,,,,55.0,,,,,0,note_on,,100.0,55.0,100.0,52608,137.0
6399,0.0,,,,59.0,,,,,0,note_on,,100.0,59.0,100.0,52608,137.0
6400,0.0,,,,62.0,,,,,44,note_on,,0.0,62.0,0.0,52652,137.11458333333331
6401,0.0,,,,55.0,,,,,0,note_on,,0.0,55.0,0.0,52652,137.11458333333331
6402,0.0,,,,59.0,,,,,0,note_on,,0.0,59.0,0.0,52652,137.11458333333331
6403,0.0,,,,55.0,,,,,52,note_on,,100.0,55.0,100.0,52704,137.25
6404,0.0,,,,62.0,,,,,0,note_on,,100.0,62.0,100.0,52704,137.25
6405,0.0,,,,59.0,,,,,0,note_on,,100.0,59.0,100.0,52704,137.25
6406,0.0,,,,59.0,,,,,44,note_on,,0.0,59.0,0.0,52748,137.36458333333331
6407,0.0,,,,55.0,,,,,0,note_on,,0.0,55.0,0.0,52748,137.36458333333331
6408,0.0,,,,62.0,,,,,0,note_on,,0.0,62.0,0.0,52748,137.36458333333331
6409,0.0,,,,59.0,,,,,52,note_on,,100.0,59.0,100.0,52800,137.5
6410,0.0,,,,62.0,,,,,0,note_on,,100.0,62.0,100.0,52800,137.5
6411,0.0,,,,55.0,,,,,0,note_on,,100.0,55.0,100.0,52800,137.5
6412,0.0,,,,59.0,,,,,44,note_on,,0.0,59.0,0.0,52844,137.61458333333331
6413,0.0,,,,62.0,,,,,0,note_on,,0.0,62.0,0.0,52844,137.61458333333331
6414,0.0,,,,55.0,,,,,0,note_on,,0.0,55.0,0.0,52844,137.61458333333331
6415,0.0,,,,62.0,,,,,52,note_on,,100.0,62.0,100.0,52896,137.75
6416,0.0,,,,55.0,,,,,0,note_on,,100.0,55.0,100.0,52896,137.75
6417,0.0,,,,59.0,,,,,0,note_on,,100.0,59.0,100.0,52896,137.75
6418,0.0,,,,62.0,,,,,44,note_on,,0.0,62.0,0.0,52940,137.86458333333331
6419,0.0,,,,55.0,,,,,0,note_on,,0.0,55.0,0.0,52940,137.86458333333331
6420,0.0,,,,59.0,,,,,0,note_on,,0.0,59.0,0.0,52940,137.86458333333331
6421,0.0,,,,59.0,,,,,52,note_on,,100.0,59.0,100.0,52992,138.0
6422,0.0,,,,62.0,,,,,0,note_on,,100.0,62.0,100.0,52992,138.0
6423,0.0,,,,55.0,,,,,0,note_on,,100.0,55.0,100.0,52992,138.0
6424,0.0,,,,62.0,,,,,44,note_on,,0.0,62.0,0.0,53036,138.11458333333331
6425,0.0,,,,55.0,,,,,0,note_on,,0.0,55.0,0.0,53036,138.11458333333331
6426,0.0,,,,59.0,,,,,0,note_on,,0.0,59.0,0.0,53036,138.11458333333331
6427,0.0,,,,62.0,,,,,52,note_on,,100.0,62.0,100.0,53088,138.25
6428,0.0,,,,59.0,,,,,0,note_on,,100.0,59.0,100.0,53088,138.25
6429,0.0,,,,55.0,,,,,0,note_on,,100.0,55.0,100.0,53088,138.25
6430,0.0,,,,62.0,,,,,44,note_on,,0.0,62.0,0.0,53132,138.36458333333331
6431,0.0,,,,59.0,,,,,0,note_on,,0.0,59.0,0.0,53132,138.36458333333331
6432,0.0,,,,55.0,,,,,0,note_on,,0.0,55.0,0.0,53132,138.36458333333331
6433,0.0,,,,55.0,,,,,52,note_on,,100.0,55.0,100.0,53184,138.5
6434,0.0,,,,62.0,,,,,0,note_on,,100.0,62.0,100.0,53184,138.5
6435,0.0,,,,59.0,,,,,0,note_on,,100.0,59.0,100.0,53184,138.5
6436,0.0,,,,62.0,,,,,44,note_on,,0.0,62.0,0.0,53228,138.61458333333331
6437,0.0,,,,59.0,,,,,0,note_on,,0.0,59.0,0.0,53228,138.61458333333331
6438,0.0,,,,55.0,,,,,0,note_on,,0.0,55.0,0.0,53228,138.61458333333331
6439,0.0,,,,59.0,,,,,52,note_on,,100.0,59.0,100.0,53280,138.75
6440,0.0,,,,62.0,,,,,0,note_on,,100.0,62.0,100.0,53280,138.75
6441,0.0,,,,55.0,,,,,0,note_on,,100.0,55.0,100.0,53280,138.75
6442,0.0,,,,59.0,,,,,44,note_on,,0.0,59.0,0.0,53324,138.86458333333331
6443,0.0,,,,62.0,,,,,0,note_on,,0.0,62.0,0.0,53324,138.86458333333331
6444,0.0,,,,55.0,,,,,0,note_on,,0.0,55.0,0.0,53324,138.86458333333331
6445,0.0,,,,55.0,,,,,52,note_on,,100.0,55.0,100.0,53376,139.0
6446,0.0,,,,59.0,,,,,0,note_on,,100.0,59.0,100.0,53376,139.0
6447,0.0,,,,62.0,,,,,0,note_on,,100.0,62.0,100.0,53376,139.0
6448,0.0,,,,59.0,,,,,44,note_on,,0.0,59.0,0.0,53420,139.11458333333331
6449,0.0,,,,62.0,,,,,0,note_on,,0.0,62.0,0.0,53420,139.11458333333331
6450,0.0,,,,55.0,,,,,0,note_on,,0.0,55.0,0.0,53420,139.11458333333331
6451,0.0,,,,55.0,,,,,52,note_on,,100.0,55.0,100.0,53472,139.25
6452,0.0,,,,59.0,,,,,0,note_on,,100.0,59.0,100.0,53472,139.25
6453,0.0,,,,62.0,,,,,0,note_on,,100.0,62.0,100.0,53472,139.25
6454,0.0,,,,55.0,,,,,44,note_on,,0.0,55.0,0.0,53516,139.36458333333331
6455,0.0,,,,59.0,,,,,0,note_on,,0.0,59.0,0.0,53516,139.36458333333331
6456,0.0,,,,62.0,,,,,0,note_on,,0.0,62.0,0.0,53516,139.36458333333331
6457,0.0,,,,55.0,,,,,52,note_on,,100.0,55.0,100.0,53568,139.5
6458,0.0,,,,59.0,,,,,0,note_on,,100.0,59.0,100.0,53568,139.5
6459,0.0,,,,62.0,,,,,0,note_on,,100.0,62.0,100.0,53568,139.5
6460,0.0,,,,59.0,,,,,44,note_on,,0.0,59.0,0.0,53612,139.61458333333331
6461,0.0,,,,62.0,,,,,0,note_on,,0.0,62.0,0.0,53612,139.61458333333331
6462,0.0,,,,55.0,,,,,0,note_on,,0.0,55.0,0.0,53612,139.61458333333331
6463,0.0,,,,55.0,,,,,52,note_on,,100.0,55.0,100.0,53664,139.75
6464,0.0,,,,62.0,,,,,0,note_on,,100.0,62.0,100.0,53664,139.75
6465,0.0,,,,59.0,,,,,0,note_on,,100.0,59.0,100.0,53664,139.75
6466,0.0,,,,55.0,,,,,44,note_on,,0.0,55.0,0.0,53708,139.86458333333331
6467,0.0,,,,62.0,,,,,0,note_on,,0.0,62.0,0.0,53708,139.86458333333331
6468,0.0,,,,59.0,,,,,0,note_on,,0.0,59.0,0.0,53708,139.86458333333331
6469,0.0,,,,53.0,,,,,52,note_on,,100.0,53.0,100.0,53760,140.0
6470,0.0,,,,57.0,,,,,0,note_on,,100.0,57.0,100.0,53760,140.0
6471,0.0,,,,60.0,,,,,0,note_on,,100.0,60.0,100.0,53760,140.0
6472,0.0,,,,57.0,,,,,44,note_on,,0.0,57.0,0.0,53804,140.11458333333331
6473,0.0,,,,60.0,,,,,0,note_on,,0.0,60.0,0.0,53804,140.11458333333331
6474,0.0,,,,53.0,,,,,0,note_on,,0.0,53.0,0.0,53804,140.11458333333331
6475,0.0,,,,60.0,,,,,52,note_on,,100.0,60.0,100.0,53856,140.25
6476,0.0,,,,53.0,,,,,0,note_on,,100.0,53.0,100.0,53856,140.25
6477,0.0,,,,57.0,,,,,0,note_on,,100.0,57.0,100.0,53856,140.25
6478,0.0,,,,60.0,,,,,44,note_on,,0.0,60.0,0.0,53900,140.36458333333331
6479,0.0,,,,53.0,,,,,0,note_on,,0.0,53.0,0.0,53900,140.36458333333331
6480,0.0,,,,57.0,,,,,0,note_on,,0.0,57.0,0.0,53900,140.36458333333331
6481,0.0,,,,60.0,,,,,52,note_on,,100.0,60.0,100.0,53952,140.5
6482,0.0,,,,53.0,,,,,0,note_on,,100.0,53.0,100.0,53952,140.5
6483,0.0,,,,57.0,,,,,0,note_on,,100.0,57.0,100.0,53952,140.5
6484,0.0,,,,53.0,,,,,44,note_on,,0.0,53.0,0.0,53996,140.61458333333331
6485,0.0,,,,57.0,,,,,0,note_on,,0.0,57.0,0.0,53996,140.61458333333331
6486,0.0,,,,60.0,,,,,0,note_on,,0.0,60.0,0.0,53996,140.61458333333331
6487,0.0,,,,60.0,,,,,52,note_on,,100.0,60.0,100.0,54048,140.75
6488,0.0,,,,57.0,,,,,0,note_on,,100.0,57.0,100.0,54048,140.75
6489,0.0,,,,53.0,,,,,0,note_on,,100.0,53.0,100.0,54048,140.75
6490,0.0,,,,60.0,,,,,44,note_on,,0.0,60.0,0.0,54092,140.86458333333331
6491,0.0,,,,57.0,,,,,0,note_on,,0.0,57.0,0.0,54092,140.86458333333331
6492,0.0,,,,53.0,,,,,0,note_on,,0.0,53.0,0.0,54092,140.86458333333331
6493,0.0,,,,57.0,,,,,52,note_on,,100.0,57.0,100.0,54144,141.0
6494,0.0,,,,53.0,,,,,0,note_on,,100.0,53.0,100.0,54144,141.0
6495,0.0,,,,60.0,,,,,0,note_on,,100.0,60.0,100.0,54144,141.0
6496,0.0,,,,53.0,,,,,44,note_on,,0.0,53.0,0.0,54188,141.11458333333331
6497,0.0,,,,60.0,,,,,0,note_on,,0.0,60.0,0.0,54188,141.11458333333331
6498,0.0,,,,57.0,,,,,0,note_on,,0.0,57.0,0.0,54188,141.11458333333331
6499,0.0,,,,53.0,,,,,52,note_on,,100.0,53.0,100.0,54240,141.25
6500,0.0,,,,60.0,,,,,0,note_on,,100.0,60.0,100.0,54240,141.25
6501,0.0,,,,57.0,,,,,0,note_on,,100.0,57.0,100.0,54240,141.25
6502,0.0,,,,53.0,,,,,44,note_on,,0.0,53.0,0.0,54284,141.36458333333331
6503,0.0,,,,60.0,,,,,0,note_on,,0.0,60.0,0.0,54284,141.36458333333331
6504,0.0,,,,57.0,,,,,0,note_on,,0.0,57.0,0.0,54284,141.36458333333331
6505,0.0,,,,60.0,,,,,52,note_on,,100.0,60.0,100.0,54336,141.5
6506,0.0,,,,57.0,,,,,0,note_on,,100.0,57.0,100.0,54336,141.5
6507,0.0,,,,53.0,,,,,0,note_on,,100.0,53.0,100.0,54336,141.5
6508,0.0,,,,57.0,,,,,44,note_on,,0.0,57.0,0.0,54380,141.61458333333331
6509,0.0,,,,60.0,,,,,0,note_on,,0.0,60.0,0.0,54380,141.61458333333331
6510,0.0,,,,53.0,,,,,0,note_on,,0.0,53.0,0.0,54380,141.61458333333331
6511,0.0,,,,48.0,,,,,52,note_on,,100.0,48.0,100.0,54432,141.75
6512,0.0,,,,48.0,,,,,44,note_on,,0.0,48.0,0.0,54476,141.86458333333331
6513,0.0,,,,64.0,,,,,52,note_on,,100.0,64.0,100.0,54528,142.0
6514,0.0,,,,55.0,,,,,0,note_on,,100.0,55.0,100.0,54528,142.0
6515,0.0,,,,60.0,,,,,0,note_on,,100.0,60.0,100.0,54528,142.0
6516,0.0,,,,64.0,,,,,44,note_on,,0.0,64.0,0.0,54572,142.11458333333331
6517,0.0,,,,55.0,,,,,0,note_on,,0.0,55.0,0.0,54572,142.11458333333331
6518,0.0,,,,60.0,,,,,0,note_on,,0.0,60.0,0.0,54572,142.11458333333331
6519,0.0,,,,60.0,,,,,52,note_on,,100.0,60.0,100.0,54624,142.25
6520,0.0,,,,55.0,,,,,0,note_on,,100.0,55.0,100.0,54624,142.25
6521,0.0,,,,64.0,,,,,0,note_on,,100.0,64.0,100.0,54624,142.25
6522,0.0,,,,60.0,,,,,44,note_on,,0.0,60.0,0.0,54668,142.36458333333331
6523,0.0,,,,55.0,,,,,0,note_on,,0.0,55.0,0.0,54668,142.36458333333331
6524,0.0,,,,64.0,,,,,0,note_on,,0.0,64.0,0.0,54668,142.36458333333331
6525,0.0,,,,64.0,,,,,52,note_on,,100.0,64.0,100.0,54720,142.5
6526,0.0,,,,55.0,,,,,0,note_on,,100.0,55.0,100.0,54720,142.5
6527,0.0,,,,60.0,,,,,0,note_on,,100.0,60.0,100.0,54720,142.5
6528,0.0,,,,64.0,,,,,44,note_on,,0.0,64.0,0.0,54764,142.61458333333331
6529,0.0,,,,55.0,,,,,0,note_on,,0.0,55.0,0.0,54764,142.61458333333331
6530,0.0,,,,60.0,,,,,0,note_on,,0.0,60.0,0.0,54764,142.61458333333331
6531,0.0,,,,64.0,,,,,52,note_on,,100.0,64.0,100.0,54816,142.75
6532,0.0,,,,55.0,,,,,0,note_on,,100.0,55.0,100.0,54816,142.75
6533,0.0,,,,60.0,,,,,0,note_on,,100.0,60.0,100.0,54816,142.75
6534,0.0,,,,64.0,,,,,44,note_on,,0.0,64.0,0.0,54860,142.86458333333331
6535,0.0,,,,55.0,,,,,0,note_on,,0.0,55.0,0.0,54860,142.86458333333331
6536,0.0,,,,60.0,,,,,0,note_on,,0.0,60.0,0.0,54860,142.86458333333331
6537,0.0,,,,60.0,,,,,52,note_on,,100.0,60.0,100.0,54912,143.0
6538,0.0,,,,64.0,,,,,0,note_on,,100.0,64.0,100.0,54912,143.0
6539,0.0,,,,55.0,,,,,0,note_on,,100.0,55.0,100.0,54912,143.0
6540,0.0,,,,60.0,,,,,44,note_on,,0.0,60.0,0.0,54956,143.11458333333331
6541,0.0,,,,64.0,,,,,0,note_on,,0.0,64.0,0.0,54956,143.11458333333331
6542,0.0,,,,55.0,,,,,0,note_on,,0.0,55.0,0.0,54956,143.11458333333331
6543,0.0,,,,60.0,,,,,52,note_on,,100.0,60.0,100.0,55008,143.25
6544,0.0,,,,64.0,,,,,0,note_on,,100.0,64.0,100.0,55008,143.25
6545,0.0,,,,55.0,,,,,0,note_on,,100.0,55.0,100.0,55008,143.25
6546,0.0,,,,60.0,,,,,44,note_on,,0.0,60.0,0.0,55052,143.36458333333331
6547,0.0,,,,64.0,,,,,0,note_on,,0.0,64.0,0.0,55052,143.36458333333331
6548,0.0,,,,55.0,,,,,0,note_on,,0.0,55.0,0.0,55052,143.36458333333331
6549,0.0,,,,60.0,,,,,52,note_on,,100.0,60.0,100.0,55104,143.5
6550,0.0,,,,64.0,,,,,0,note_on,,100.0,64.0,100.0,55104,143.5
6551,0.0,,,,55.0,,,,,0,note_on,,100.0,55.0,100.0,55104,143.5
6552,0.0,,,,60.0,,,,,44,note_on,,0.0,60.0,0.0,55148,143.61458333333331
6553,0.0,,,,64.0,,,,,0,note_on,,0.0,64.0,0.0,55148,143.61458333333331
6554,0.0,,,,55.0,,,,,0,note_on,,0.0,55.0,0.0,55148,143.61458333333331
6555,0.0,,,,55.0,,,,,52,note_on,,100.0,55.0,100.0,55200,143.75
6556,0.0,,,,60.0,,,,,0,note_on,,100.0,60.0,100.0,55200,143.75
6557,0.0,,,,64.0,,,,,0,note_on,,100.0,64.0,100.0,55200,143.75
6558,0.0,,,,55.0,,,,,44,note_on,,0.0,55.0,0.0,55244,143.86458333333331
6559,0.0,,,,60.0,,,,,0,note_on,,0.0,60.0,0.0,55244,143.86458333333331
6560,0.0,,,,64.0,,,,,0,note_on,,0.0,64.0,0.0,55244,143.86458333333331
6561,0.0,,,,59.0,,,,,52,note_on,,100.0,59.0,100.0,55296,144.0
6562,0.0,,,,62.0,,,,,0,note_on,,100.0,62.0,100.0,55296,144.0
6563,0.0,,,,55.0,,,,,0,note_on,,100.0,55.0,100.0,55296,144.0
6564,0.0,,,,59.0,,,,,44,note_on,,0.0,59.0,0.0,55340,144.11458333333331
6565,0.0,,,,62.0,,,,,0,note_on,,0.0,62.0,0.0,55340,144.11458333333331
6566,0.0,,,,55.0,,,,,0,note_on,,0.0,55.0,0.0,55340,144.11458333333331
6567,0.0,,,,59.0,,,,,52,note_on,,100.0,59.0,100.0,55392,144.25
6568,0.0,,,,62.0,,,,,0,note_on,,100.0,62.0,100.0,55392,144.25
6569,0.0,,,,55.0,,,,,0,note_on,,100.0,55.0,100.0,55392,144.25
6570,0.0,,,,59.0,,,,,44,note_on,,0.0,59.0,0.0,55436,144.36458333333331
6571,0.0,,,,62.0,,,,,0,note_on,,0.0,62.0,0.0,55436,144.36458333333331
6572,0.0,,,,55.0,,,,,0,note_on,,0.0,55.0,0.0,55436,144.36458333333331
6573,0.0,,,,59.0,,,,,52,note_on,,100.0,59.0,100.0,55488,144.5
6574,0.0,,,,55.0,,,,,0,note_on,,100.0,55.0,100.0,55488,144.5
6575,0.0,,,,62.0,,,,,0,note_on,,100.0,62.0,100.0,55488,144.5
6576,0.0,,,,59.0,,,,,44,note_on,,0.0,59.0,0.0,55532,144.61458333333331
6577,0.0,,,,55.0,,,,,0,note_on,,0.0,55.0,0.0,55532,144.61458333333331
6578,0.0,,,,62.0,,,,,0,note_on,,0.0,62.0,0.0,55532,144.61458333333331
6579,0.0,,,,59.0,,,,,52,note_on,,100.0,59.0,100.0,55584,144.75
6580,0.0,,,,62.0,,,,,0,note_on,,100.0,62.0,100.0,55584,144.75
6581,0.0,,,,55.0,,,,,0,note_on,,100.0,55.0,100.0,55584,144.75
6582,0.0,,,,59.0,,,,,44,note_on,,0.0,59.0,0.0,55628,144.86458333333331
6583,0.0,,,,62.0,,,,,0,note_on,,0.0,62.0,0.0,55628,144.86458333333331
6584,0.0,,,,55.0,,,,,0,note_on,,0.0,55.0,0.0,55628,144.86458333333331
6585,0.0,,,,55.0,,,,,52,note_on,,100.0,55.0,100.0,55680,145.0
6586,0.0,,,,62.0,,,,,0,note_on,,100.0,62.0,100.0,55680,145.0
6587,0.0,,,,59.0,,,,,0,note_on,,100.0,59.0,100.0,55680,145.0
6588,0.0,,,,55.0,,,,,44,note_on,,0.0,55.0,0.0,55724,145.11458333333331
6589,0.0,,,,62.0,,,,,0,note_on,,0.0,62.0,0.0,55724,145.11458333333331
6590,0.0,,,,59.0,,,,,0,note_on,,0.0,59.0,0.0,55724,145.11458333333331
6591,0.0,,,,59.0,,,,,52,note_on,,100.0,59.0,100.0,55776,145.25
6592,0.0,,,,55.0,,,,,0,note_on,,100.0,55.0,100.0,55776,145.25
6593,0.0,,,,62.0,,,,,0,note_on,,100.0,62.0,100.0,55776,145.25
6594,0.0,,,,59.0,,,,,44,note_on,,0.0,59.0,0.0,55820,145.36458333333331
6595,0.0,,,,55.0,,,,,0,note_on,,0.0,55.0,0.0,55820,145.36458333333331
6596,0.0,,,,62.0,,,,,0,note_on,,0.0,62.0,0.0,55820,145.36458333333331
6597,0.0,,,,62.0,,,,,52,note_on,,100.0,62.0,100.0,55872,145.5
6598,0.0,,,,55.0,,,,,0,note_on,,100.0,55.0,100.0,55872,145.5
6599,0.0,,,,59.0,,,,,0,note_on,,100.0,59.0,100.0,55872,145.5
6600,0.0,,,,62.0,,,,,44,note_on,,0.0,62.0,0.0,55916,145.61458333333331
6601,0.0,,,,55.0,,,,,0,note_on,,0.0,55.0,0.0,55916,145.61458333333331
6602,0.0,,,,59.0,,,,,0,note_on,,0.0,59.0,0.0,55916,145.61458333333331
6603,0.0,,,,59.0,,,,,52,note_on,,100.0,59.0,100.0,55968,145.75
6604,0.0,,,,55.0,,,,,0,note_on,,100.0,55.0,100.0,55968,145.75
6605,0.0,,,,62.0,,,,,0,note_on,,100.0,62.0,100.0,55968,145.75
6606,0.0,,,,59.0,,,,,44,note_on,,0.0,59.0,0.0,56012,145.86458333333331
6607,0.0,,,,55.0,,,,,0,note_on,,0.0,55.0,0.0,56012,145.86458333333331
6608,0.0,,,,62.0,,,,,0,note_on,,0.0,62.0,0.0,56012,145.86458333333331
6609,0.0,,,,59.0,,,,,52,note_on,,100.0,59.0,100.0,56064,146.0
6610,0.0,,,,62.0,,,,,0,note_on,,100.0,62.0,100.0,56064,146.0
6611,0.0,,,,55.0,,,,,0,note_on,,100.0,55.0,100.0,56064,146.0
6612,0.0,,,,59.0,,,,,44,note_on,,0.0,59.0,0.0,56108,146.11458333333331
6613,0.0,,,,62.0,,,,,0,note_on,,0.0,62.0,0.0,56108,146.11458333333331
6614,0.0,,,,55.0,,,,,0,note_on,,0.0,55.0,0.0,56108,146.11458333333331
6615,0.0,,,,62.0,,,,,52,note_on,,100.0,62.0,100.0,56160,146.25
6616,0.0,,,,55.0,,,,,0,note_on,,100.0,55.0,100.0,56160,146.25
6617,0.0,,,,59.0,,,,,0,note_on,,100.0,59.0,100.0,56160,146.25
6618,0.0,,,,62.0,,,,,44,note_on,,0.0,62.0,0.0,56204,146.36458333333331
6619,0.0,,,,55.0,,,,,0,note_on,,0.0,55.0,0.0,56204,146.36458333333331
6620,0.0,,,,59.0,,,,,0,note_on,,0.0,59.0,0.0,56204,146.36458333333331
6621,0.0,,,,62.0,,,,,52,note_on,,100.0,62.0,100.0,56256,146.5
6622,0.0,,,,55.0,,,,,0,note_on,,100.0,55.0,100.0,56256,146.5
6623,0.0,,,,59.0,,,,,0,note_on,,100.0,59.0,100.0,56256,146.5
6624,0.0,,,,62.0,,,,,44,note_on,,0.0,62.0,0.0,56300,146.61458333333331
6625,0.0,,,,55.0,,,,,0,note_on,,0.0,55.0,0.0,56300,146.61458333333331
6626,0.0,,,,59.0,,,,,0,note_on,,0.0,59.0,0.0,56300,146.61458333333331
6627,0.0,,,,62.0,,,,,52,note_on,,100.0,62.0,100.0,56352,146.75
6628,0.0,,,,59.0,,,,,0,note_on,,100.0,59.0,100.0,56352,146.75
6629,0.0,,,,55.0,,,,,0,note_on,,100.0,55.0,100.0,56352,146.75
6630,0.0,,,,62.0,,,,,44,note_on,,0.0,62.0,0.0,56396,146.86458333333331
6631,0.0,,,,59.0,,,,,0,note_on,,0.0,59.0,0.0,56396,146.86458333333331
6632,0.0,,,,55.0,,,,,0,note_on,,0.0,55.0,0.0,56396,146.86458333333331
6633,0.0,,,,59.0,,,,,52,note_on,,100.0,59.0,100.0,56448,147.0
6634,0.0,,,,55.0,,,,,0,note_on,,100.0,55.0,100.0,56448,147.0
6635,0.0,,,,62.0,,,,,0,note_on,,100.0,62.0,100.0,56448,147.0
6636,0.0,,,,59.0,,,,,44,note_on,,0.0,59.0,0.0,56492,147.11458333333331
6637,0.0,,,,55.0,,,,,0,note_on,,0.0,55.0,0.0,56492,147.11458333333331
6638,0.0,,,,62.0,,,,,0,note_on,,0.0,62.0,0.0,56492,147.11458333333331
6639,0.0,,,,59.0,,,,,52,note_on,,100.0,59.0,100.0,56544,147.25
6640,0.0,,,,55.0,,,,,0,note_on,,100.0,55.0,100.0,56544,147.25
6641,0.0,,,,62.0,,,,,0,note_on,,100.0,62.0,100.0,56544,147.25
6642,0.0,,,,59.0,,,,,44,note_on,,0.0,59.0,0.0,56588,147.36458333333331
6643,0.0,,,,55.0,,,,,0,note_on,,0.0,55.0,0.0,56588,147.36458333333331
6644,0.0,,,,62.0,,,,,0,note_on,,0.0,62.0,0.0,56588,147.36458333333331
6645,0.0,,,,62.0,,,,,52,note_on,,100.0,62.0,100.0,56640,147.5
6646,0.0,,,,59.0,,,,,0,note_on,,100.0,59.0,100.0,56640,147.5
6647,0.0,,,,55.0,,,,,0,note_on,,100.0,55.0,100.0,56640,147.5
6648,0.0,,,,62.0,,,,,44,note_on,,0.0,62.0,0.0,56684,147.61458333333331
6649,0.0,,,,59.0,,,,,0,note_on,,0.0,59.0,0.0,56684,147.61458333333331
6650,0.0,,,,55.0,,,,,0,note_on,,0.0,55.0,0.0,56684,147.61458333333331
6651,0.0,,,,62.0,,,,,52,note_on,,100.0,62.0,100.0,56736,147.75
6652,0.0,,,,55.0,,,,,0,note_on,,100.0,55.0,100.0,56736,147.75
6653,0.0,,,,59.0,,,,,0,note_on,,100.0,59.0,100.0,56736,147.75
6654,0.0,,,,62.0,,,,,44,note_on,,0.0,62.0,0.0,56780,147.86458333333331
6655,0.0,,,,55.0,,,,,0,note_on,,0.0,55.0,0.0,56780,147.86458333333331
6656,0.0,,,,59.0,,,,,0,note_on,,0.0,59.0,0.0,56780,147.86458333333331
6657,0.0,,,,57.0,,,,,52,note_on,,100.0,57.0,100.0,56832,148.0
6658,0.0,,,,60.0,,,,,0,note_on,,100.0,60.0,100.0,56832,148.0
6659,0.0,,,,53.0,,,,,0,note_on,,100.0,53.0,100.0,56832,148.0
6660,0.0,,,,57.0,,,,,44,note_on,,0.0,57.0,0.0,56876,148.11458333333331
6661,0.0,,,,60.0,,,,,0,note_on,,0.0,60.0,0.0,56876,148.11458333333331
6662,0.0,,,,53.0,,,,,0,note_on,,0.0,53.0,0.0,56876,148.11458333333331
6663,0.0,,,,53.0,,,,,52,note_on,,100.0,53.0,100.0,56928,148.25
6664,0.0,,,,57.0,,,,,0,note_on,,100.0,57.0,100.0,56928,148.25
6665,0.0,,,,60.0,,,,,0,note_on,,100.0,60.0,100.0,56928,148.25
6666,0.0,,,,53.0,,,,,44,note_on,,0.0,53.0,0.0,56972,148.36458333333331
6667,0.0,,,,57.0,,,,,0,note_on,,0.0,57.0,0.0,56972,148.36458333333331
6668,0.0,,,,60.0,,,,,0,note_on,,0.0,60.0,0.0,56972,148.36458333333331
6669,0.0,,,,60.0,,,,,52,note_on,,100.0,60.0,100.0,57024,148.5
6670,0.0,,,,53.0,,,,,0,note_on,,100.0,53.0,100.0,57024,148.5
6671,0.0,,,,57.0,,,,,0,note_on,,100.0,57.0,100.0,57024,148.5
6672,0.0,,,,60.0,,,,,44,note_on,,0.0,60.0,0.0,57068,148.61458333333331
6673,0.0,,,,53.0,,,,,0,note_on,,0.0,53.0,0.0,57068,148.61458333333331
6674,0.0,,,,57.0,,,,,0,note_on,,0.0,57.0,0.0,57068,148.61458333333331
6675,0.0,,,,60.0,,,,,52,note_on,,100.0,60.0,100.0,57120,148.75
6676,0.0,,,,53.0,,,,,0,note_on,,100.0,53.0,100.0,57120,148.75
6677,0.0,,,,57.0,,,,,0,note_on,,100.0,57.0,100.0,57120,148.75
6678,0.0,,,,60.0,,,,,44,note_on,,0.0,60.0,0.0,57164,148.86458333333331
6679,0.0,,,,53.0,,,,,0,note_on,,0.0,53.0,0.0,57164,148.86458333333331
6680,0.0,,,,57.0,,,,,0,note_on,,0.0,57.0,0.0,57164,148.86458333333331
6681,0.0,,,,57.0,,,,,52,note_on,,100.0,57.0,100.0,57216,149.0
6682,0.0,,,,60.0,,,,,0,note_on,,100.0,60.0,100.0,57216,149.0
6683,0.0,,,,53.0,,,,,0,note_on,,100.0,53.0,100.0,57216,149.0
6684,0.0,,,,57.0,,,,,44,note_on,,0.0,57.0,0.0,57260,149.11458333333331
6685,0.0,,,,60.0,,,,,0,note_on,,0.0,60.0,0.0,57260,149.11458333333331
6686,0.0,,,,53.0,,,,,0,note_on,,0.0,53.0,0.0,57260,149.11458333333331
6687,0.0,,,,57.0,,,,,52,note_on,,100.0,57.0,100.0,57312,149.25
6688,0.0,,,,53.0,,,,,0,note_on,,100.0,53.0,100.0,57312,149.25
6689,0.0,,,,60.0,,,,,0,note_on,,100.0,60.0,100.0,57312,149.25
6690,0.0,,,,57.0,,,,,44,note_on,,0.0,57.0,0.0,57356,149.36458333333331
6691,0.0,,,,53.0,,,,,0,note_on,,0.0,53.0,0.0,57356,149.36458333333331
6692,0.0,,,,60.0,,,,,0,note_on,,0.0,60.0,0.0,57356,149.36458333333331
6693,0.0,,,,60.0,,,,,52,note_on,,100.0,60.0,100.0,57408,149.5
6694,0.0,,,,57.0,,,,,0,note_on,,100.0,57.0,100.0,57408,149.5
6695,0.0,,,,53.0,,,,,0,note_on,,100.0,53.0,100.0,57408,149.5
6696,0.0,,,,60.0,,,,,44,note_on,,0.0,60.0,0.0,57452,149.61458333333331
6697,0.0,,,,53.0,,,,,0,note_on,,0.0,53.0,0.0,57452,149.61458333333331
6698,0.0,,,,57.0,,,,,0,note_on,,0.0,57.0,0.0,57452,149.61458333333331
6699,0.0,,,,48.0,,,,,52,note_on,,100.0,48.0,100.0,57504,149.75
6700,0.0,,,,48.0,,,,,44,note_on,,0.0,48.0,0.0,57548,149.86458333333331
6701,0.0,,,,64.0,,,,,52,note_on,,100.0,64.0,100.0,57600,150.0
6702,0.0,,,,55.0,,,,,0,note_on,,100.0,55.0,100.0,57600,150.0
6703,0.0,,,,60.0,,,,,0,note_on,,100.0,60.0,100.0,57600,150.0
6704,0.0,,,,64.0,,,,,44,note_on,,0.0,64.0,0.0,57644,150.11458333333331
6705,0.0,,,,55.0,,,,,0,note_on,,0.0,55.0,0.0,57644,150.11458333333331
6706,0.0,,,,60.0,,,,,0,note_on,,0.0,60.0,0.0,57644,150.11458333333331
6707,0.0,,,,55.0,,,,,52,note_on,,100.0,55.0,100.0,57696,150.25
6708,0.0,,,,64.0,,,,,0,note_on,,100.0,64.0,100.0,57696,150.25
6709,0.0,,,,60.0,,,,,0,note_on,,100.0,60.0,100.0,57696,150.25
6710,0.0,,,,60.0,,,,,44,note_on,,0.0,60.0,0.0,57740,150.36458333333331
6711,0.0,,,,55.0,,,,,0,note_on,,0.0,55.0,0.0,57740,150.36458333333331
6712,0.0,,,,64.0,,,,,0,note_on,,0.0,64.0,0.0,57740,150.36458333333331
6713,0.0,,,,60.0,,,,,52,note_on,,100.0,60.0,100.0,57792,150.5
6714,0.0,,,,55.0,,,,,0,note_on,,100.0,55.0,100.0,57792,150.5
6715,0.0,,,,64.0,,,,,0,note_on,,100.0,64.0,100.0,57792,150.5
6716,0.0,,,,60.0,,,,,44,note_on,,0.0,60.0,0.0,57836,150.61458333333331
6717,0.0,,,,55.0,,,,,0,note_on,,0.0,55.0,0.0,57836,150.61458333333331
6718,0.0,,,,64.0,,,,,0,note_on,,0.0,64.0,0.0,57836,150.61458333333331
6719,0.0,,,,60.0,,,,,52,note_on,,100.0,60.0,100.0,57888,150.75
6720,0.0,,,,55.0,,,,,0,note_on,,100.0,55.0,100.0,57888,150.75
6721,0.0,,,,64.0,,,,,0,note_on,,100.0,64.0,100.0,57888,150.75
6722,0.0,,,,64.0,,,,,44,note_on,,0.0,64.0,0.0,57932,150.86458333333331
6723,0.0,,,,60.0,,,,,0,note_on,,0.0,60.0,0.0,57932,150.86458333333331
6724,0.0,,,,55.0,,,,,0,note_on,,0.0,55.0,0.0,57932,150.86458333333331
6725,0.0,,,,64.0,,,,,52,note_on,,100.0,64.0,100.0,57984,151.0
6726,0.0,,,,60.0,,,,,0,note_on,,100.0,60.0,100.0,57984,151.0
6727,0.0,,,,55.0,,,,,0,note_on,,100.0,55.0,100.0,57984,151.0
6728,0.0,,,,64.0,,,,,44,note_on,,0.0,64.0,0.0,58028,151.11458333333331
6729,0.0,,,,60.0,,,,,0,note_on,,0.0,60.0,0.0,58028,151.11458333333331
6730,0.0,,,,55.0,,,,,0,note_on,,0.0,55.0,0.0,58028,151.11458333333331
6731,0.0,,,,64.0,,,,,52,note_on,,100.0,64.0,100.0,58080,151.25
6732,0.0,,,,60.0,,,,,0,note_on,,100.0,60.0,100.0,58080,151.25
6733,0.0,,,,55.0,,,,,0,note_on,,100.0,55.0,100.0,58080,151.25
6734,0.0,,,,55.0,,,,,44,note_on,,0.0,55.0,0.0,58124,151.36458333333331
6735,0.0,,,,64.0,,,,,0,note_on,,0.0,64.0,0.0,58124,151.36458333333331
6736,0.0,,,,60.0,,,,,0,note_on,,0.0,60.0,0.0,58124,151.36458333333331
6737,0.0,,,,55.0,,,,,52,note_on,,100.0,55.0,100.0,58176,151.5
6738,0.0,,,,60.0,,,,,0,note_on,,100.0,60.0,100.0,58176,151.5
6739,0.0,,,,64.0,,,,,0,note_on,,100.0,64.0,100.0,58176,151.5
6740,0.0,,,,55.0,,,,,44,note_on,,0.0,55.0,0.0,58220,151.61458333333331
6741,0.0,,,,60.0,,,,,0,note_on,,0.0,60.0,0.0,58220,151.61458333333331
6742,0.0,,,,64.0,,,,,0,note_on,,0.0,64.0,0.0,58220,151.61458333333331
6743,0.0,,,,55.0,,,,,52,note_on,,100.0,55.0,100.0,58272,151.75
6744,0.0,,,,64.0,,,,,0,note_on,,100.0,64.0,100.0,58272,151.75
6745,0.0,,,,60.0,,,,,0,note_on,,100.0,60.0,100.0,58272,151.75
6746,0.0,,,,60.0,,,,,44,note_on,,0.0,60.0,0.0,58316,151.86458333333331
6747,0.0,,,,55.0,,,,,0,note_on,,0.0,55.0,0.0,58316,151.86458333333331
6748,0.0,,,,64.0,,,,,0,note_on,,0.0,64.0,0.0,58316,151.86458333333331
6749,0.0,,,,62.0,,,,,52,note_on,,100.0,62.0,100.0,58368,152.0
6750,0.0,,,,55.0,,,,,0,note_on,,100.0,55.0,100.0,58368,152.0
6751,0.0,,,,59.0,,,,,0,note_on,,100.0,59.0,100.0,58368,152.0
6752,0.0,,,,62.0,,,,,44,note_on,,0.0,62.0,0.0,58412,152.11458333333331
6753,0.0,,,,55.0,,,,,0,note_on,,0.0,55.0,0.0,58412,152.11458333333331
6754,0.0,,,,59.0,,,,,0,note_on,,0.0,59.0,0.0,58412,152.11458333333331
6755,0.0,,,,55.0,,,,,52,note_on,,100.0,55.0,100.0,58464,152.25
6756,0.0,,,,59.0,,,,,0,note_on,,100.0,59.0,100.0,58464,152.25
6757,0.0,,,,62.0,,,,,0,note_on,,100.0,62.0,100.0,58464,152.25
6758,0.0,,,,62.0,,,,,44,note_on,,0.0,62.0,0.0,58508,152.36458333333331
6759,0.0,,,,55.0,,,,,0,note_on,,0.0,55.0,0.0,58508,152.36458333333331
6760,0.0,,,,59.0,,,,,0,note_on,,0.0,59.0,0.0,58508,152.36458333333331
6761,0.0,,,,55.0,,,,,52,note_on,,100.0,55.0,100.0,58560,152.5
6762,0.0,,,,59.0,,,,,0,note_on,,100.0,59.0,100.0,58560,152.5
6763,0.0,,,,62.0,,,,,0,note_on,,100.0,62.0,100.0,58560,152.5
6764,0.0,,,,55.0,,,,,44,note_on,,0.0,55.0,0.0,58604,152.61458333333331
6765,0.0,,,,59.0,,,,,0,note_on,,0.0,59.0,0.0,58604,152.61458333333331
6766,0.0,,,,62.0,,,,,0,note_on,,0.0,62.0,0.0,58604,152.61458333333331
6767,0.0,,,,59.0,,,,,52,note_on,,100.0,59.0,100.0,58656,152.75
6768,0.0,,,,55.0,,,,,0,note_on,,100.0,55.0,100.0,58656,152.75
6769,0.0,,,,62.0,,,,,0,note_on,,100.0,62.0,100.0,58656,152.75
6770,0.0,,,,62.0,,,,,44,note_on,,0.0,62.0,0.0,58700,152.86458333333331
6771,0.0,,,,59.0,,,,,0,note_on,,0.0,59.0,0.0,58700,152.86458333333331
6772,0.0,,,,55.0,,,,,0,note_on,,0.0,55.0,0.0,58700,152.86458333333331
6773,0.0,,,,55.0,,,,,52,note_on,,100.0,55.0,100.0,58752,153.0
6774,0.0,,,,62.0,,,,,0,note_on,,100.0,62.0,100.0,58752,153.0
6775,0.0,,,,59.0,,,,,0,note_on,,100.0,59.0,100.0,58752,153.0
6776,0.0,,,,55.0,,,,,44,note_on,,0.0,55.0,0.0,58796,153.11458333333331
6777,0.0,,,,62.0,,,,,0,note_on,,0.0,62.0,0.0,58796,153.11458333333331
6778,0.0,,,,59.0,,,,,0,note_on,,0.0,59.0,0.0,58796,153.11458333333331
6779,0.0,,,,62.0,,,,,52,note_on,,100.0,62.0,100.0,58848,153.25
6780,0.0,,,,55.0,,,,,0,note_on,,100.0,55.0,100.0,58848,153.25
6781,0.0,,,,59.0,,,,,0,note_on,,100.0,59.0,100.0,58848,153.25
6782,0.0,,,,59.0,,,,,44,note_on,,0.0,59.0,0.0,58892,153.36458333333331
6783,0.0,,,,62.0,,,,,0,note_on,,0.0,62.0,0.0,58892,153.36458333333331
6784,0.0,,,,55.0,,,,,0,note_on,,0.0,55.0,0.0,58892,153.36458333333331
6785,0.0,,,,59.0,,,,,52,note_on,,100.0,59.0,100.0,58944,153.5
6786,0.0,,,,55.0,,,,,0,note_on,,100.0,55.0,100.0,58944,153.5
6787,0.0,,,,62.0,,,,,0,note_on,,100.0,62.0,100.0,58944,153.5
6788,0.0,,,,59.0,,,,,44,note_on,,0.0,59.0,0.0,58988,153.61458333333331
6789,0.0,,,,55.0,,,,,0,note_on,,0.0,55.0,0.0,58988,153.61458333333331
6790,0.0,,,,62.0,,,,,0,note_on,,0.0,62.0,0.0,58988,153.61458333333331
6791,0.0,,,,55.0,,,,,52,note_on,,100.0,55.0,100.0,59040,153.75
6792,0.0,,,,59.0,,,,,0,note_on,,100.0,59.0,100.0,59040,153.75
6793,0.0,,,,62.0,,,,,0,note_on,,100.0,62.0,100.0,59040,153.75
6794,0.0,,,,55.0,,,,,44,note_on,,0.0,55.0,0.0,59084,153.86458333333331
6795,0.0,,,,59.0,,,,,0,note_on,,0.0,59.0,0.0,59084,153.86458333333331
6796,0.0,,,,62.0,,,,,0,note_on,,0.0,62.0,0.0,59084,153.86458333333331
6797,0.0,,,,59.0,,,,,52,note_on,,100.0,59.0,100.0,59136,154.0
6798,0.0,,,,62.0,,,,,0,note_on,,100.0,62.0,100.0,59136,154.0
6799,0.0,,,,55.0,,,,,0,note_on,,100.0,55.0,100.0,59136,154.0
6800,0.0,,,,62.0,,,,,44,note_on,,0.0,62.0,0.0,59180,154.11458333333331
6801,0.0,,,,55.0,,,,,0,note_on,,0.0,55.0,0.0,59180,154.11458333333331
6802,0.0,,,,59.0,,,,,0,note_on,,0.0,59.0,0.0,59180,154.11458333333331
6803,0.0,,,,59.0,,,,,52,note_on,,100.0,59.0,100.0,59232,154.25
6804,0.0,,,,62.0,,,,,0,note_on,,100.0,62.0,100.0,59232,154.25
6805,0.0,,,,55.0,,,,,0,note_on,,100.0,55.0,100.0,59232,154.25
6806,0.0,,,,59.0,,,,,44,note_on,,0.0,59.0,0.0,59276,154.36458333333331
6807,0.0,,,,62.0,,,,,0,note_on,,0.0,62.0,0.0,59276,154.36458333333331
6808,0.0,,,,55.0,,,,,0,note_on,,0.0,55.0,0.0,59276,154.36458333333331
6809,0.0,,,,55.0,,,,,52,note_on,,100.0,55.0,100.0,59328,154.5
6810,0.0,,,,62.0,,,,,0,note_on,,100.0,62.0,100.0,59328,154.5
6811,0.0,,,,59.0,,,,,0,note_on,,100.0,59.0,100.0,59328,154.5
6812,0.0,,,,62.0,,,,,44,note_on,,0.0,62.0,0.0,59372,154.61458333333331
6813,0.0,,,,59.0,,,,,0,note_on,,0.0,59.0,0.0,59372,154.61458333333331
6814,0.0,,,,55.0,,,,,0,note_on,,0.0,55.0,0.0,59372,154.61458333333331
6815,0.0,,,,55.0,,,,,52,note_on,,100.0,55.0,100.0,59424,154.75
6816,0.0,,,,59.0,,,,,0,note_on,,100.0,59.0,100.0,59424,154.75
6817,0.0,,,,62.0,,,,,0,note_on,,100.0,62.0,100.0,59424,154.75
6818,0.0,,,,55.0,,,,,44,note_on,,0.0,55.0,0.0,59468,154.86458333333331
6819,0.0,,,,59.0,,,,,0,note_on,,0.0,59.0,0.0,59468,154.86458333333331
6820,0.0,,,,62.0,,,,,0,note_on,,0.0,62.0,0.0,59468,154.86458333333331
6821,0.0,,,,59.0,,,,,52,note_on,,100.0,59.0,100.0,59520,155.0
6822,0.0,,,,62.0,,,,,0,note_on,,100.0,62.0,100.0,59520,155.0
6823,0.0,,,,55.0,,,,,0,note_on,,100.0,55.0,100.0,59520,155.0
6824,0.0,,,,62.0,,,,,44,note_on,,0.0,62.0,0.0,59564,155.11458333333331
6825,0.0,,,,55.0,,,,,0,note_on,,0.0,55.0,0.0,59564,155.11458333333331
6826,0.0,,,,59.0,,,,,0,note_on,,0.0,59.0,0.0,59564,155.11458333333331
6827,0.0,,,,59.0,,,,,52,note_on,,100.0,59.0,100.0,59616,155.25
6828,0.0,,,,62.0,,,,,0,note_on,,100.0,62.0,100.0,59616,155.25
6829,0.0,,,,55.0,,,,,0,note_on,,100.0,55.0,100.0,59616,155.25
6830,0.0,,,,59.0,,,,,44,note_on,,0.0,59.0,0.0,59660,155.36458333333331
6831,0.0,,,,62.0,,,,,0,note_on,,0.0,62.0,0.0,59660,155.36458333333331
6832,0.0,,,,55.0,,,,,0,note_on,,0.0,55.0,0.0,59660,155.36458333333331
6833,0.0,,,,55.0,,,,,52,note_on,,100.0,55.0,100.0,59712,155.5
6834,0.0,,,,59.0,,,,,0,note_on,,100.0,59.0,100.0,59712,155.5
6835,0.0,,,,62.0,,,,,0,note_on,,100.0,62.0,100.0,59712,155.5
6836,0.0,,,,59.0,,,,,44,note_on,,0.0,59.0,0.0,59756,155.61458333333331
6837,0.0,,,,62.0,,,,,0,note_on,,0.0,62.0,0.0,59756,155.61458333333331
6838,0.0,,,,55.0,,,,,0,note_on,,0.0,55.0,0.0,59756,155.61458333333331
6839,0.0,,,,55.0,,,,,52,note_on,,100.0,55.0,100.0,59808,155.75
6840,0.0,,,,59.0,,,,,0,note_on,,100.0,59.0,100.0,59808,155.75
6841,0.0,,,,62.0,,,,,0,note_on,,100.0,62.0,100.0,59808,155.75
6842,0.0,,,,55.0,,,,,44,note_on,,0.0,55.0,0.0,59852,155.86458333333331
6843,0.0,,,,59.0,,,,,0,note_on,,0.0,59.0,0.0,59852,155.86458333333331
6844,0.0,,,,62.0,,,,,0,note_on,,0.0,62.0,0.0,59852,155.86458333333331
6845,0.0,,,,57.0,,,,,52,note_on,,100.0,57.0,100.0,59904,156.0
6846,0.0,,,,53.0,,,,,0,note_on,,100.0,53.0,100.0,59904,156.0
6847,0.0,,,,60.0,,,,,0,note_on,,100.0,60.0,100.0,59904,156.0
6848,0.0,,,,53.0,,,,,44,note_on,,0.0,53.0,0.0,59948,156.11458333333331
6849,0.0,,,,60.0,,,,,0,note_on,,0.0,60.0,0.0,59948,156.11458333333331
6850,0.0,,,,57.0,,,,,0,note_on,,0.0,57.0,0.0,59948,156.11458333333331
6851,0.0,,,,60.0,,,,,52,note_on,,100.0,60.0,100.0,60000,156.25
6852,0.0,,,,53.0,,,,,0,note_on,,100.0,53.0,100.0,60000,156.25
6853,0.0,,,,57.0,,,,,0,note_on,,100.0,57.0,100.0,60000,156.25
6854,0.0,,,,60.0,,,,,44,note_on,,0.0,60.0,0.0,60044,156.36458333333331
6855,0.0,,,,53.0,,,,,0,note_on,,0.0,53.0,0.0,60044,156.36458333333331
6856,0.0,,,,57.0,,,,,0,note_on,,0.0,57.0,0.0,60044,156.36458333333331
6857,0.0,,,,53.0,,,,,52,note_on,,100.0,53.0,100.0,60096,156.5
6858,0.0,,,,60.0,,,,,0,note_on,,100.0,60.0,100.0,60096,156.5
6859,0.0,,,,57.0,,,,,0,note_on,,100.0,57.0,100.0,60096,156.5
6860,0.0,,,,60.0,,,,,44,note_on,,0.0,60.0,0.0,60140,156.61458333333331
6861,0.0,,,,57.0,,,,,0,note_on,,0.0,57.0,0.0,60140,156.61458333333331
6862,0.0,,,,53.0,,,,,0,note_on,,0.0,53.0,0.0,60140,156.61458333333331
6863,0.0,,,,57.0,,,,,52,note_on,,100.0,57.0,100.0,60192,156.75
6864,0.0,,,,60.0,,,,,0,note_on,,100.0,60.0,100.0,60192,156.75
6865,0.0,,,,53.0,,,,,0,note_on,,100.0,53.0,100.0,60192,156.75
6866,0.0,,,,57.0,,,,,44,note_on,,0.0,57.0,0.0,60236,156.86458333333331
6867,0.0,,,,60.0,,,,,0,note_on,,0.0,60.0,0.0,60236,156.86458333333331
6868,0.0,,,,53.0,,,,,0,note_on,,0.0,53.0,0.0,60236,156.86458333333331
6869,0.0,,,,53.0,,,,,52,note_on,,100.0,53.0,100.0,60288,157.0
6870,0.0,,,,60.0,,,,,0,note_on,,100.0,60.0,100.0,60288,157.0
6871,0.0,,,,57.0,,,,,0,note_on,,100.0,57.0,100.0,60288,157.0
6872,0.0,,,,60.0,,,,,44,note_on,,0.0,60.0,0.0,60332,157.11458333333331
6873,0.0,,,,57.0,,,,,0,note_on,,0.0,57.0,0.0,60332,157.11458333333331
6874,0.0,,,,53.0,,,,,0,note_on,,0.0,53.0,0.0,60332,157.11458333333331
6875,0.0,,,,60.0,,,,,52,note_on,,100.0,60.0,100.0,60384,157.25
6876,0.0,,,,57.0,,,,,0,note_on,,100.0,57.0,100.0,60384,157.25
6877,0.0,,,,53.0,,,,,0,note_on,,100.0,53.0,100.0,60384,157.25
6878,0.0,,,,60.0,,,,,44,note_on,,0.0,60.0,0.0,60428,157.36458333333331
6879,0.0,,,,57.0,,,,,0,note_on,,0.0,57.0,0.0,60428,157.36458333333331
6880,0.0,,,,53.0,,,,,0,note_on,,0.0,53.0,0.0,60428,157.36458333333331
6881,0.0,,,,60.0,,,,,52,note_on,,100.0,60.0,100.0,60480,157.5
6882,0.0,,,,53.0,,,,,0,note_on,,100.0,53.0,100.0,60480,157.5
6883,0.0,,,,57.0,,,,,0,note_on,,100.0,57.0,100.0,60480,157.5
6884,0.0,,,,53.0,,,,,44,note_on,,0.0,53.0,0.0,60524,157.61458333333331
6885,0.0,,,,60.0,,,,,0,note_on,,0.0,60.0,0.0,60524,157.61458333333331
6886,0.0,,,,57.0,,,,,0,note_on,,0.0,57.0,0.0,60524,157.61458333333331
6887,0.0,,,,48.0,,,,,52,note_on,,100.0,48.0,100.0,60576,157.75
6888,0.0,,,,48.0,,,,,44,note_on,,0.0,48.0,0.0,60620,157.86458333333331
6889,0.0,,,,64.0,,,,,52,note_on,,100.0,64.0,100.0,60672,158.0
6890,0.0,,,,55.0,,,,,0,note_on,,100.0,55.0,100.0,60672,158.0
6891,0.0,,,,60.0,,,,,0,note_on,,100.0,60.0,100.0,60672,158.0
6892,0.0,,,,64.0,,,,,44,note_on,,0.0,64.0,0.0,60716,158.11458333333331
6893,0.0,,,,55.0,,,,,0,note_on,,0.0,55.0,0.0,60716,158.11458333333331
6894,0.0,,,,60.0,,,,,0,note_on,,0.0,60.0,0.0,60716,158.11458333333331
6895,0.0,,,,64.0,,,,,52,note_on,,100.0,64.0,100.0,60768,158.25
6896,0.0,,,,60.0,,,,,0,note_on,,100.0,60.0,100.0,60768,158.25
6897,0.0,,,,55.0,,,,,0,note_on,,100.0,55.0,100.0,60768,158.25
6898,0.0,,,,64.0,,,,,44,note_on,,0.0,64.0,0.0,60812,158.36458333333331
6899,0.0,,,,60.0,,,,,0,note_on,,0.0,60.0,0.0,60812,158.36458333333331
6900,0.0,,,,55.0,,,,,0,note_on,,0.0,55.0,0.0,60812,158.36458333333331
6901,0.0,,,,64.0,,,,,52,note_on,,100.0,64.0,100.0,60864,158.5
6902,0.0,,,,60.0,,,,,0,note_on,,100.0,60.0,100.0,60864,158.5
6903,0.0,,,,55.0,,,,,0,note_on,,100.0,55.0,100.0,60864,158.5
6904,0.0,,,,64.0,,,,,44,note_on,,0.0,64.0,0.0,60908,158.61458333333331
6905,0.0,,,,60.0,,,,,0,note_on,,0.0,60.0,0.0,60908,158.61458333333331
6906,0.0,,,,55.0,,,,,0,note_on,,0.0,55.0,0.0,60908,158.61458333333331
6907,0.0,,,,60.0,,,,,52,note_on,,100.0,60.0,100.0,60960,158.75
6908,0.0,,,,55.0,,,,,0,note_on,,100.0,55.0,100.0,60960,158.75
6909,0.0,,,,64.0,,,,,0,note_on,,100.0,64.0,100.0,60960,158.75
6910,0.0,,,,60.0,,,,,44,note_on,,0.0,60.0,0.0,61004,158.86458333333331
6911,0.0,,,,55.0,,,,,0,note_on,,0.0,55.0,0.0,61004,158.86458333333331
6912,0.0,,,,64.0,,,,,0,note_on,,0.0,64.0,0.0,61004,158.86458333333331
6913,0.0,,,,55.0,,,,,52,note_on,,100.0,55.0,100.0,61056,159.0
6914,0.0,,,,60.0,,,,,0,note_on,,100.0,60.0,100.0,61056,159.0
6915,0.0,,,,64.0,,,,,0,note_on,,100.0,64.0,100.0,61056,159.0
6916,0.0,,,,55.0,,,,,44,note_on,,0.0,55.0,0.0,61100,159.11458333333331
6917,0.0,,,,60.0,,,,,0,note_on,,0.0,60.0,0.0,61100,159.11458333333331
6918,0.0,,,,64.0,,,,,0,note_on,,0.0,64.0,0.0,61100,159.11458333333331
6919,0.0,,,,64.0,,,,,52,note_on,,100.0,64.0,100.0,61152,159.25
6920,0.0,,,,60.0,,,,,0,note_on,,100.0,60.0,100.0,61152,159.25
6921,0.0,,,,55.0,,,,,0,note_on,,100.0,55.0,100.0,61152,159.25
6922,0.0,,,,64.0,,,,,44,note_on,,0.0,64.0,0.0,61196,159.36458333333331
6923,0.0,,,,60.0,,,,,0,note_on,,0.0,60.0,0.0,61196,159.36458333333331
6924,0.0,,,,55.0,,,,,0,note_on,,0.0,55.0,0.0,61196,159.36458333333331
6925,0.0,,,,60.0,,,,,52,note_on,,100.0,60.0,100.0,61248,159.5
6926,0.0,,,,55.0,,,,,0,note_on,,100.0,55.0,100.0,61248,159.5
6927,0.0,,,,64.0,,,,,0,note_on,,100.0,64.0,100.0,61248,159.5
6928,0.0,,,,60.0,,,,,44,note_on,,0.0,60.0,0.0,61292,159.61458333333331
6929,0.0,,,,55.0,,,,,0,note_on,,0.0,55.0,0.0,61292,159.61458333333331
6930,0.0,,,,64.0,,,,,0,note_on,,0.0,64.0,0.0,61292,159.61458333333331
6931,0.0,,,,60.0,,,,,52,note_on,,100.0,60.0,100.0,61344,159.75
6932,0.0,,,,55.0,,,,,0,note_on,,100.0,55.0,100.0,61344,159.75
6933,0.0,,,,64.0,,,,,0,note_on,,100.0,64.0,100.0,61344,159.75
6934,0.0,,,,60.0,,,,,44,note_on,,0.0,60.0,0.0,61388,159.86458333333331
6935,0.0,,,,55.0,,,,,0,note_on,,0.0,55.0,0.0,61388,159.86458333333331
6936,0.0,,,,64.0,,,,,0,note_on,,0.0,64.0,0.0,61388,159.86458333333331
6937,0.0,,,,62.0,,,,,52,note_on,,100.0,62.0,100.0,61440,160.0
6938,0.0,,,,59.0,,,,,0,note_on,,100.0,59.0,100.0,61440,160.0
6939,0.0,,,,55.0,,,,,0,note_on,,100.0,55.0,100.0,61440,160.0
6940,0.0,,,,62.0,,,,,44,note_on,,0.0,62.0,0.0,61484,160.11458333333331
6941,0.0,,,,59.0,,,,,0,note_on,,0.0,59.0,0.0,61484,160.11458333333331
6942,0.0,,,,55.0,,,,,0,note_on,,0.0,55.0,0.0,61484,160.11458333333331
6943,0.0,,,,62.0,,,,,52,note_on,,100.0,62.0,100.0,61536,160.25
6944,0.0,,,,55.0,,,,,0,note_on,,100.0,55.0,100.0,61536,160.25
6945,0.0,,,,59.0,,,,,0,note_on,,100.0,59.0,100.0,61536,160.25
6946,0.0,,,,62.0,,,,,44,note_on,,0.0,62.0,0.0,61580,160.36458333333331
6947,0.0,,,,55.0,,,,,0,note_on,,0.0,55.0,0.0,61580,160.36458333333331
6948,0.0,,,,59.0,,,,,0,note_on,,0.0,59.0,0.0,61580,160.36458333333331
6949,0.0,,,,55.0,,,,,52,note_on,,100.0,55.0,100.0,61632,160.5
6950,0.0,,,,62.0,,,,,0,note_on,,100.0,62.0,100.0,61632,160.5
6951,0.0,,,,59.0,,,,,0,note_on,,100.0,59.0,100.0,61632,160.5
6952,0.0,,,,55.0,,,,,44,note_on,,0.0,55.0,0.0,61676,160.61458333333331
6953,0.0,,,,62.0,,,,,0,note_on,,0.0,62.0,0.0,61676,160.61458333333331
6954,0.0,,,,59.0,,,,,0,note_on,,0.0,59.0,0.0,61676,160.61458333333331
6955,0.0,,,,59.0,,,,,52,note_on,,100.0,59.0,100.0,61728,160.75
6956,0.0,,,,62.0,,,,,0,note_on,,100.0,62.0,100.0,61728,160.75
6957,0.0,,,,55.0,,,,,0,note_on,,100.0,55.0,100.0,61728,160.75
6958,0.0,,,,59.0,,,,,44,note_on,,0.0,59.0,0.0,61772,160.86458333333331
6959,0.0,,,,62.0,,,,,0,note_on,,0.0,62.0,0.0,61772,160.86458333333331
6960,0.0,,,,55.0,,,,,0,note_on,,0.0,55.0,0.0,61772,160.86458333333331
6961,0.0,,,,55.0,,,,,52,note_on,,100.0,55.0,100.0,61824,161.0
6962,0.0,,,,59.0,,,,,0,note_on,,100.0,59.0,100.0,61824,161.0
6963,0.0,,,,62.0,,,,,0,note_on,,100.0,62.0,100.0,61824,161.0
6964,0.0,,,,55.0,,,,,44,note_on,,0.0,55.0,0.0,61868,161.11458333333331
6965,0.0,,,,59.0,,,,,0,note_on,,0.0,59.0,0.0,61868,161.11458333333331
6966,0.0,,,,62.0,,,,,0,note_on,,0.0,62.0,0.0,61868,161.11458333333331
6967,0.0,,,,59.0,,,,,52,note_on,,100.0,59.0,100.0,61920,161.25
6968,0.0,,,,62.0,,,,,0,note_on,,100.0,62.0,100.0,61920,161.25
6969,0.0,,,,55.0,,,,,0,note_on,,100.0,55.0,100.0,61920,161.25
6970,0.0,,,,59.0,,,,,44,note_on,,0.0,59.0,0.0,61964,161.36458333333331
6971,0.0,,,,62.0,,,,,0,note_on,,0.0,62.0,0.0,61964,161.36458333333331
6972,0.0,,,,55.0,,,,,0,note_on,,0.0,55.0,0.0,61964,161.36458333333331
6973,0.0,,,,55.0,,,,,52,note_on,,100.0,55.0,100.0,62016,161.5
6974,0.0,,,,62.0,,,,,0,note_on,,100.0,62.0,100.0,62016,161.5
6975,0.0,,,,59.0,,,,,0,note_on,,100.0,59.0,100.0,62016,161.5
6976,0.0,,,,55.0,,,,,44,note_on,,0.0,55.0,0.0,62060,161.61458333333331
6977,0.0,,,,62.0,,,,,0,note_on,,0.0,62.0,0.0,62060,161.61458333333331
6978,0.0,,,,59.0,,,,,0,note_on,,0.0,59.0,0.0,62060,161.61458333333331
6979,0.0,,,,62.0,,,,,52,note_on,,100.0,62.0,100.0,62112,161.75
6980,0.0,,,,59.0,,,,,0,note_on,,100.0,59.0,100.0,62112,161.75
6981,0.0,,,,55.0,,,,,0,note_on,,100.0,55.0,100.0,62112,161.75
6982,0.0,,,,62.0,,,,,44,note_on,,0.0,62.0,0.0,62156,161.86458333333331
6983,0.0,,,,59.0,,,,,0,note_on,,0.0,59.0,0.0,62156,161.86458333333331
6984,0.0,,,,55.0,,,,,0,note_on,,0.0,55.0,0.0,62156,161.86458333333331
6985,0.0,,,,62.0,,,,,52,note_on,,100.0,62.0,100.0,62208,162.0
6986,0.0,,,,55.0,,,,,0,note_on,,100.0,55.0,100.0,62208,162.0
6987,0.0,,,,59.0,,,,,0,note_on,,100.0,59.0,100.0,62208,162.0
6988,0.0,,,,62.0,,,,,44,note_on,,0.0,62.0,0.0,62252,162.11458333333331
6989,0.0,,,,55.0,,,,,0,note_on,,0.0,55.0,0.0,62252,162.11458333333331
6990,0.0,,,,59.0,,,,,0,note_on,,0.0,59.0,0.0,62252,162.11458333333331
6991,0.0,,,,59.0,,,,,52,note_on,,100.0,59.0,100.0,62304,162.25
6992,0.0,,,,62.0,,,,,0,note_on,,100.0,62.0,100.0,62304,162.25
6993,0.0,,,,55.0,,,,,0,note_on,,100.0,55.0,100.0,62304,162.25
6994,0.0,,,,59.0,,,,,44,note_on,,0.0,59.0,0.0,62348,162.36458333333331
6995,0.0,,,,62.0,,,,,0,note_on,,0.0,62.0,0.0,62348,162.36458333333331
6996,0.0,,,,55.0,,,,,0,note_on,,0.0,55.0,0.0,62348,162.36458333333331
6997,0.0,,,,55.0,,,,,52,note_on,,100.0,55.0,100.0,62400,162.5
6998,0.0,,,,59.0,,,,,0,note_on,,100.0,59.0,100.0,62400,162.5
6999,0.0,,,,62.0,,,,,0,note_on,,100.0,62.0,100.0,62400,162.5
7000,0.0,,,,55.0,,,,,44,note_on,,0.0,55.0,0.0,62444,162.61458333333331
7001,0.0,,,,59.0,,,,,0,note_on,,0.0,59.0,0.0,62444,162.61458333333331
7002,0.0,,,,62.0,,,,,0,note_on,,0.0,62.0,0.0,62444,162.61458333333331
7003,0.0,,,,55.0,,,,,52,note_on,,100.0,55.0,100.0,62496,162.75
7004,0.0,,,,59.0,,,,,0,note_on,,100.0,59.0,100.0,62496,162.75
7005,0.0,,,,62.0,,,,,0,note_on,,100.0,62.0,100.0,62496,162.75
7006,0.0,,,,55.0,,,,,44,note_on,,0.0,55.0,0.0,62540,162.86458333333331
7007,0.0,,,,59.0,,,,,0,note_on,,0.0,59.0,0.0,62540,162.86458333333331
7008,0.0,,,,62.0,,,,,0,note_on,,0.0,62.0,0.0,62540,162.86458333333331
7009,0.0,,,,59.0,,,,,52,note_on,,100.0,59.0,100.0,62592,163.0
7010,0.0,,,,55.0,,,,,0,note_on,,100.0,55.0,100.0,62592,163.0
7011,0.0,,,,62.0,,,,,0,note_on,,100.0,62.0,100.0,62592,163.0
7012,0.0,,,,59.0,,,,,44,note_on,,0.0,59.0,0.0,62636,163.11458333333331
7013,0.0,,,,55.0,,,,,0,note_on,,0.0,55.0,0.0,62636,163.11458333333331
7014,0.0,,,,62.0,,,,,0,note_on,,0.0,62.0,0.0,62636,163.11458333333331
7015,0.0,,,,59.0,,,,,52,note_on,,100.0,59.0,100.0,62688,163.25
7016,0.0,,,,55.0,,,,,0,note_on,,100.0,55.0,100.0,62688,163.25
7017,0.0,,,,62.0,,,,,0,note_on,,100.0,62.0,100.0,62688,163.25
7018,0.0,,,,59.0,,,,,44,note_on,,0.0,59.0,0.0,62732,163.36458333333331
7019,0.0,,,,55.0,,,,,0,note_on,,0.0,55.0,0.0,62732,163.36458333333331
7020,0.0,,,,62.0,,,,,0,note_on,,0.0,62.0,0.0,62732,163.36458333333331
7021,0.0,,,,55.0,,,,,52,note_on,,100.0,55.0,100.0,62784,163.5
7022,0.0,,,,62.0,,,,,0,note_on,,100.0,62.0,100.0,62784,163.5
7023,0.0,,,,59.0,,,,,0,note_on,,100.0,59.0,100.0,62784,163.5
7024,0.0,,,,55.0,,,,,44,note_on,,0.0,55.0,0.0,62828,163.61458333333331
7025,0.0,,,,62.0,,,,,0,note_on,,0.0,62.0,0.0,62828,163.61458333333331
7026,0.0,,,,59.0,,,,,0,note_on,,0.0,59.0,0.0,62828,163.61458333333331
7027,0.0,,,,55.0,,,,,52,note_on,,100.0,55.0,100.0,62880,163.75
7028,0.0,,,,62.0,,,,,0,note_on,,100.0,62.0,100.0,62880,163.75
7029,0.0,,,,59.0,,,,,0,note_on,,100.0,59.0,100.0,62880,163.75
7030,0.0,,,,55.0,,,,,44,note_on,,0.0,55.0,0.0,62924,163.86458333333331
7031,0.0,,,,62.0,,,,,0,note_on,,0.0,62.0,0.0,62924,163.86458333333331
7032,0.0,,,,59.0,,,,,0,note_on,,0.0,59.0,0.0,62924,163.86458333333331
7033,0.0,,,,60.0,,,,,52,note_on,,100.0,60.0,100.0,62976,164.0
7034,0.0,,,,57.0,,,,,0,note_on,,100.0,57.0,100.0,62976,164.0
7035,0.0,,,,53.0,,,,,0,note_on,,100.0,53.0,100.0,62976,164.0
7036,0.0,,,,60.0,,,,,44,note_on,,0.0,60.0,0.0,63020,164.11458333333331
7037,0.0,,,,57.0,,,,,0,note_on,,0.0,57.0,0.0,63020,164.11458333333331
7038,0.0,,,,53.0,,,,,0,note_on,,0.0,53.0,0.0,63020,164.11458333333331
7039,0.0,,,,57.0,,,,,52,note_on,,100.0,57.0,100.0,63072,164.25
7040,0.0,,,,53.0,,,,,0,note_on,,100.0,53.0,100.0,63072,164.25
7041,0.0,,,,60.0,,,,,0,note_on,,100.0,60.0,100.0,63072,164.25
7042,0.0,,,,57.0,,,,,44,note_on,,0.0,57.0,0.0,63116,164.36458333333331
7043,0.0,,,,53.0,,,,,0,note_on,,0.0,53.0,0.0,63116,164.36458333333331
7044,0.0,,,,60.0,,,,,0,note_on,,0.0,60.0,0.0,63116,164.36458333333331
7045,0.0,,,,57.0,,,,,52,note_on,,100.0,57.0,100.0,63168,164.5
7046,0.0,,,,60.0,,,,,0,note_on,,100.0,60.0,100.0,63168,164.5
7047,0.0,,,,53.0,,,,,0,note_on,,100.0,53.0,100.0,63168,164.5
7048,0.0,,,,57.0,,,,,44,note_on,,0.0,57.0,0.0,63212,164.61458333333331
7049,0.0,,,,60.0,,,,,0,note_on,,0.0,60.0,0.0,63212,164.61458333333331
7050,0.0,,,,53.0,,,,,0,note_on,,0.0,53.0,0.0,63212,164.61458333333331
7051,0.0,,,,53.0,,,,,52,note_on,,100.0,53.0,100.0,63264,164.75
7052,0.0,,,,60.0,,,,,0,note_on,,100.0,60.0,100.0,63264,164.75
7053,0.0,,,,57.0,,,,,0,note_on,,100.0,57.0,100.0,63264,164.75
7054,0.0,,,,53.0,,,,,44,note_on,,0.0,53.0,0.0,63308,164.86458333333331
7055,0.0,,,,60.0,,,,,0,note_on,,0.0,60.0,0.0,63308,164.86458333333331
7056,0.0,,,,57.0,,,,,0,note_on,,0.0,57.0,0.0,63308,164.86458333333331
7057,0.0,,,,53.0,,,,,52,note_on,,100.0,53.0,100.0,63360,165.0
7058,0.0,,,,60.0,,,,,0,note_on,,100.0,60.0,100.0,63360,165.0
7059,0.0,,,,57.0,,,,,0,note_on,,100.0,57.0,100.0,63360,165.0
7060,0.0,,,,53.0,,,,,44,note_on,,0.0,53.0,0.0,63404,165.11458333333331
7061,0.0,,,,60.0,,,,,0,note_on,,0.0,60.0,0.0,63404,165.11458333333331
7062,0.0,,,,57.0,,,,,0,note_on,,0.0,57.0,0.0,63404,165.11458333333331
7063,0.0,,,,57.0,,,,,52,note_on,,100.0,57.0,100.0,63456,165.25
7064,0.0,,,,60.0,,,,,0,note_on,,100.0,60.0,100.0,63456,165.25
7065,0.0,,,,53.0,,,,,0,note_on,,100.0,53.0,100.0,63456,165.25
7066,0.0,,,,57.0,,,,,44,note_on,,0.0,57.0,0.0,63500,165.36458333333331
7067,0.0,,,,60.0,,,,,0,note_on,,0.0,60.0,0.0,63500,165.36458333333331
7068,0.0,,,,53.0,,,,,0,note_on,,0.0,53.0,0.0,63500,165.36458333333331
7069,0.0,,,,57.0,,,,,52,note_on,,100.0,57.0,100.0,63552,165.5
7070,0.0,,,,53.0,,,,,0,note_on,,100.0,53.0,100.0,63552,165.5
7071,0.0,,,,60.0,,,,,0,note_on,,100.0,60.0,100.0,63552,165.5
7072,0.0,,,,57.0,,,,,44,note_on,,0.0,57.0,0.0,63596,165.61458333333331
7073,0.0,,,,60.0,,,,,0,note_on,,0.0,60.0,0.0,63596,165.61458333333331
7074,0.0,,,,53.0,,,,,0,note_on,,0.0,53.0,0.0,63596,165.61458333333331
7075,0.0,,,,48.0,,,,,52,note_on,,100.0,48.0,100.0,63648,165.75
7076,0.0,,,,48.0,,,,,44,note_on,,0.0,48.0,0.0,63692,165.86458333333331
7077,0.0,,,,64.0,,,,,52,note_on,,100.0,64.0,100.0,63744,166.0
7078,0.0,,,,55.0,,,,,0,note_on,,100.0,55.0,100.0,63744,166.0
7079,0.0,,,,60.0,,,,,0,note_on,,100.0,60.0,100.0,63744,166.0
7080,0.0,,,,64.0,,,,,44,note_on,,0.0,64.0,0.0,63788,166.11458333333331
7081,0.0,,,,55.0,,,,,0,note_on,,0.0,55.0,0.0,63788,166.11458333333331
7082,0.0,,,,60.0,,,,,0,note_on,,0.0,60.0,0.0,63788,166.11458333333331
7083,0.0,,,,64.0,,,,,52,note_on,,100.0,64.0,100.0,63840,166.25
7084,0.0,,,,55.0,,,,,0,note_on,,100.0,55.0,100.0,63840,166.25
7085,0.0,,,,60.0,,,,,0,note_on,,100.0,60.0,100.0,63840,166.25
7086,0.0,,,,60.0,,,,,44,note_on,,0.0,60.0,0.0,63884,166.36458333333331
7087,0.0,,,,64.0,,,,,0,note_on,,0.0,64.0,0.0,63884,166.36458333333331
7088,0.0,,,,55.0,,,,,0,note_on,,0.0,55.0,0.0,63884,166.36458333333331
7089,0.0,,,,60.0,,,,,52,note_on,,100.0,60.0,100.0,63936,166.5
7090,0.0,,,,55.0,,,,,0,note_on,,100.0,55.0,100.0,63936,166.5
7091,0.0,,,,64.0,,,,,0,note_on,,100.0,64.0,100.0,63936,166.5
7092,0.0,,,,60.0,,,,,44,note_on,,0.0,60.0,0.0,63980,166.61458333333331
7093,0.0,,,,55.0,,,,,0,note_on,,0.0,55.0,0.0,63980,166.61458333333331
7094,0.0,,,,64.0,,,,,0,note_on,,0.0,64.0,0.0,63980,166.61458333333331
7095,0.0,,,,64.0,,,,,52,note_on,,100.0,64.0,100.0,64032,166.75
7096,0.0,,,,55.0,,,,,0,note_on,,100.0,55.0,100.0,64032,166.75
7097,0.0,,,,60.0,,,,,0,note_on,,100.0,60.0,100.0,64032,166.75
7098,0.0,,,,60.0,,,,,44,note_on,,0.0,60.0,0.0,64076,166.86458333333331
7099,0.0,,,,64.0,,,,,0,note_on,,0.0,64.0,0.0,64076,166.86458333333331
7100,0.0,,,,55.0,,,,,0,note_on,,0.0,55.0,0.0,64076,166.86458333333331
7101,0.0,,,,55.0,,,,,52,note_on,,100.0,55.0,100.0,64128,167.0
7102,0.0,,,,60.0,,,,,0,note_on,,100.0,60.0,100.0,64128,167.0
7103,0.0,,,,64.0,,,,,0,note_on,,100.0,64.0,100.0,64128,167.0
7104,0.0,,,,55.0,,,,,44,note_on,,0.0,55.0,0.0,64172,167.11458333333331
7105,0.0,,,,60.0,,,,,0,note_on,,0.0,60.0,0.0,64172,167.11458333333331
7106,0.0,,,,64.0,,,,,0,note_on,,0.0,64.0,0.0,64172,167.11458333333331
7107,0.0,,,,55.0,,,,,52,note_on,,100.0,55.0,100.0,64224,167.25
7108,0.0,,,,60.0,,,,,0,note_on,,100.0,60.0,100.0,64224,167.25
7109,0.0,,,,64.0,,,,,0,note_on,,100.0,64.0,100.0,64224,167.25
7110,0.0,,,,64.0,,,,,44,note_on,,0.0,64.0,0.0,64268,167.36458333333331
7111,0.0,,,,55.0,,,,,0,note_on,,0.0,55.0,0.0,64268,167.36458333333331
7112,0.0,,,,60.0,,,,,0,note_on,,0.0,60.0,0.0,64268,167.36458333333331
7113,0.0,,,,60.0,,,,,52,note_on,,100.0,60.0,100.0,64320,167.5
7114,0.0,,,,55.0,,,,,0,note_on,,100.0,55.0,100.0,64320,167.5
7115,0.0,,,,64.0,,,,,0,note_on,,100.0,64.0,100.0,64320,167.5
7116,0.0,,,,60.0,,,,,44,note_on,,0.0,60.0,0.0,64364,167.61458333333331
7117,0.0,,,,55.0,,,,,0,note_on,,0.0,55.0,0.0,64364,167.61458333333331
7118,0.0,,,,64.0,,,,,0,note_on,,0.0,64.0,0.0,64364,167.61458333333331
7119,0.0,,,,55.0,,,,,52,note_on,,100.0,55.0,100.0,64416,167.75
7120,0.0,,,,64.0,,,,,0,note_on,,100.0,64.0,100.0,64416,167.75
7121,0.0,,,,60.0,,,,,0,note_on,,100.0,60.0,100.0,64416,167.75
7122,0.0,,,,60.0,,,,,44,note_on,,0.0,60.0,0.0,64460,167.86458333333331
7123,0.0,,,,55.0,,,,,0,note_on,,0.0,55.0,0.0,64460,167.86458333333331
7124,0.0,,,,64.0,,,,,0,note_on,,0.0,64.0,0.0,64460,167.86458333333331
7125,0.0,,,,62.0,,,,,52,note_on,,100.0,62.0,100.0,64512,168.0
7126,0.0,,,,55.0,,,,,0,note_on,,100.0,55.0,100.0,64512,168.0
7127,0.0,,,,59.0,,,,,0,note_on,,100.0,59.0,100.0,64512,168.0
7128,0.0,,,,62.0,,,,,44,note_on,,0.0,62.0,0.0,64556,168.11458333333331
7129,0.0,,,,55.0,,,,,0,note_on,,0.0,55.0,0.0,64556,168.11458333333331
7130,0.0,,,,59.0,,,,,0,note_on,,0.0,59.0,0.0,64556,168.11458333333331
7131,0.0,,,,62.0,,,,,52,note_on,,100.0,62.0,100.0,64608,168.25
7132,0.0,,,,55.0,,,,,0,note_on,,100.0,55.0,100.0,64608,168.25
7133,0.0,,,,59.0,,,,,0,note_on,,100.0,59.0,100.0,64608,168.25
7134,0.0,,,,59.0,,,,,44,note_on,,0.0,59.0,0.0,64652,168.36458333333331
7135,0.0,,,,62.0,,,,,0,note_on,,0.0,62.0,0.0,64652,168.36458333333331
7136,0.0,,,,55.0,,,,,0,note_on,,0.0,55.0,0.0,64652,168.36458333333331
7137,0.0,,,,55.0,,,,,52,note_on,,100.0,55.0,100.0,64704,168.5
7138,0.0,,,,62.0,,,,,0,note_on,,100.0,62.0,100.0,64704,168.5
7139,0.0,,,,59.0,,,,,0,note_on,,100.0,59.0,100.0,64704,168.5
7140,0.0,,,,55.0,,,,,44,note_on,,0.0,55.0,0.0,64748,168.61458333333331
7141,0.0,,,,62.0,,,,,0,note_on,,0.0,62.0,0.0,64748,168.61458333333331
7142,0.0,,,,59.0,,,,,0,note_on,,0.0,59.0,0.0,64748,168.61458333333331
7143,0.0,,,,55.0,,,,,52,note_on,,100.0,55.0,100.0,64800,168.75
7144,0.0,,,,59.0,,,,,0,note_on,,100.0,59.0,100.0,64800,168.75
7145,0.0,,,,62.0,,,,,0,note_on,,100.0,62.0,100.0,64800,168.75
7146,0.0,,,,62.0,,,,,44,note_on,,0.0,62.0,0.0,64844,168.86458333333331
7147,0.0,,,,55.0,,,,,0,note_on,,0.0,55.0,0.0,64844,168.86458333333331
7148,0.0,,,,59.0,,,,,0,note_on,,0.0,59.0,0.0,64844,168.86458333333331
7149,0.0,,,,62.0,,,,,52,note_on,,100.0,62.0,100.0,64896,169.0
7150,0.0,,,,55.0,,,,,0,note_on,,100.0,55.0,100.0,64896,169.0
7151,0.0,,,,59.0,,,,,0,note_on,,100.0,59.0,100.0,64896,169.0
7152,0.0,,,,62.0,,,,,44,note_on,,0.0,62.0,0.0,64940,169.11458333333331
7153,0.0,,,,55.0,,,,,0,note_on,,0.0,55.0,0.0,64940,169.11458333333331
7154,0.0,,,,59.0,,,,,0,note_on,,0.0,59.0,0.0,64940,169.11458333333331
7155,0.0,,,,55.0,,,,,52,note_on,,100.0,55.0,100.0,64992,169.25
7156,0.0,,,,62.0,,,,,0,note_on,,100.0,62.0,100.0,64992,169.25
7157,0.0,,,,59.0,,,,,0,note_on,,100.0,59.0,100.0,64992,169.25
7158,0.0,,,,59.0,,,,,44,note_on,,0.0,59.0,0.0,65036,169.36458333333331
7159,0.0,,,,55.0,,,,,0,note_on,,0.0,55.0,0.0,65036,169.36458333333331
7160,0.0,,,,62.0,,,,,0,note_on,,0.0,62.0,0.0,65036,169.36458333333331
7161,0.0,,,,62.0,,,,,52,note_on,,100.0,62.0,100.0,65088,169.5
7162,0.0,,,,55.0,,,,,0,note_on,,100.0,55.0,100.0,65088,169.5
7163,0.0,,,,59.0,,,,,0,note_on,,100.0,59.0,100.0,65088,169.5
7164,0.0,,,,62.0,,,,,44,note_on,,0.0,62.0,0.0,65132,169.61458333333331
7165,0.0,,,,55.0,,,,,0,note_on,,0.0,55.0,0.0,65132,169.61458333333331
7166,0.0,,,,59.0,,,,,0,note_on,,0.0,59.0,0.0,65132,169.61458333333331
7167,0.0,,,,55.0,,,,,52,note_on,,100.0,55.0,100.0,65184,169.75
7168,0.0,,,,59.0,,,,,0,note_on,,100.0,59.0,100.0,65184,169.75
7169,0.0,,,,62.0,,,,,0,note_on,,100.0,62.0,100.0,65184,169.75
7170,0.0,,,,55.0,,,,,44,note_on,,0.0,55.0,0.0,65228,169.86458333333331
7171,0.0,,,,59.0,,,,,0,note_on,,0.0,59.0,0.0,65228,169.86458333333331
7172,0.0,,,,62.0,,,,,0,note_on,,0.0,62.0,0.0,65228,169.86458333333331
7173,0.0,,,,55.0,,,,,52,note_on,,101.0,55.0,101.0,65280,170.0
7174,0.0,,,,59.0,,,,,0,note_on,,101.0,59.0,101.0,65280,170.0
7175,0.0,,,,62.0,,,,,0,note_on,,101.0,62.0,101.0,65280,170.0
7176,0.0,,,,59.0,,,,,44,note_on,,0.0,59.0,0.0,65324,170.11458333333331
7177,0.0,,,,62.0,,,,,0,note_on,,0.0,62.0,0.0,65324,170.11458333333331
7178,0.0,,,,55.0,,,,,0,note_on,,0.0,55.0,0.0,65324,170.11458333333331
7179,0.0,,,,55.0,,,,,52,note_on,,99.0,55.0,99.0,65376,170.25
7180,0.0,,,,59.0,,,,,0,note_on,,99.0,59.0,99.0,65376,170.25
7181,0.0,,,,62.0,,,,,0,note_on,,99.0,62.0,99.0,65376,170.25
7182,0.0,,,,55.0,,,,,44,note_on,,0.0,55.0,0.0,65420,170.36458333333331
7183,0.0,,,,59.0,,,,,0,note_on,,0.0,59.0,0.0,65420,170.36458333333331
7184,0.0,,,,62.0,,,,,0,note_on,,0.0,62.0,0.0,65420,170.36458333333331
7185,0.0,,,,62.0,,,,,52,note_on,,97.0,62.0,97.0,65472,170.5
7186,0.0,,,,55.0,,,,,0,note_on,,97.0,55.0,97.0,65472,170.5
7187,0.0,,,,59.0,,,,,0,note_on,,97.0,59.0,97.0,65472,170.5
7188,0.0,,,,55.0,,,,,44,note_on,,0.0,55.0,0.0,65516,170.61458333333331
7189,0.0,,,,59.0,,,,,0,note_on,,0.0,59.0,0.0,65516,170.61458333333331
7190,0.0,,,,62.0,,,,,0,note_on,,0.0,62.0,0.0,65516,170.61458333333331
7191,0.0,,,,55.0,,,,,52,note_on,,95.0,55.0,95.0,65568,170.75
7192,0.0,,,,62.0,,,,,0,note_on,,95.0,62.0,95.0,65568,170.75
7193,0.0,,,,59.0,,,,,0,note_on,,95.0,59.0,95.0,65568,170.75
7194,0.0,,,,55.0,,,,,44,note_on,,0.0,55.0,0.0,65612,170.86458333333331
7195,0.0,,,,62.0,,,,,0,note_on,,0.0,62.0,0.0,65612,170.86458333333331
7196,0.0,,,,59.0,,,,,0,note_on,,0.0,59.0,0.0,65612,170.86458333333331
7197,0.0,,,,59.0,,,,,52,note_on,,91.0,59.0,91.0,65664,171.0
7198,0.0,,,,62.0,,,,,0,note_on,,91.0,62.0,91.0,65664,171.0
7199,0.0,,,,55.0,,,,,0,note_on,,91.0,55.0,91.0,65664,171.0
7200,0.0,,,,62.0,,,,,44,note_on,,0.0,62.0,0.0,65708,171.11458333333331
7201,0.0,,,,55.0,,,,,0,note_on,,0.0,55.0,0.0,65708,171.11458333333331
7202,0.0,,,,59.0,,,,,0,note_on,,0.0,59.0,0.0,65708,171.11458333333331
7203,0.0,,,,55.0,,,,,52,note_on,,87.0,55.0,87.0,65760,171.25
7204,0.0,,,,59.0,,,,,0,note_on,,87.0,59.0,87.0,65760,171.25
7205,0.0,,,,62.0,,,,,0,note_on,,87.0,62.0,87.0,65760,171.25
7206,0.0,,,,55.0,,,,,44,note_on,,0.0,55.0,0.0,65804,171.36458333333331
7207,0.0,,,,59.0,,,,,0,note_on,,0.0,59.0,0.0,65804,171.36458333333331
7208,0.0,,,,62.0,,,,,0,note_on,,0.0,62.0,0.0,65804,171.36458333333331
7209,0.0,,,,55.0,,,,,52,note_on,,83.0,55.0,83.0,65856,171.5
7210,0.0,,,,62.0,,,,,0,note_on,,83.0,62.0,83.0,65856,171.5
7211,0.0,,,,59.0,,,,,0,note_on,,83.0,59.0,83.0,65856,171.5
7212,0.0,,,,62.0,,,,,44,note_on,,0.0,62.0,0.0,65900,171.61458333333331
7213,0.0,,,,59.0,,,,,0,note_on,,0.0,59.0,0.0,65900,171.61458333333331
7214,0.0,,,,55.0,,,,,0,note_on,,0.0,55.0,0.0,65900,171.61458333333331
7215,0.0,,,,55.0,,,,,52,note_on,,77.0,55.0,77.0,65952,171.75
7216,0.0,,,,62.0,,,,,0,note_on,,77.0,62.0,77.0,65952,171.75
7217,0.0,,,,59.0,,,,,0,note_on,,77.0,59.0,77.0,65952,171.75
7218,0.0,,,,55.0,,,,,44,note_on,,0.0,55.0,0.0,65996,171.86458333333331
7219,0.0,,,,62.0,,,,,0,note_on,,0.0,62.0,0.0,65996,171.86458333333331
7220,0.0,,,,59.0,,,,,0,note_on,,0.0,59.0,0.0,65996,171.86458333333331
7221,0.0,,,,53.0,,,,,52,note_on,,76.0,53.0,76.0,66048,172.0
7222,0.0,,,,60.0,,,,,0,note_on,,76.0,60.0,76.0,66048,172.0
7223,0.0,,,,57.0,,,,,0,note_on,,76.0,57.0,76.0,66048,172.0
7224,0.0,,,,60.0,,,,,44,note_on,,0.0,60.0,0.0,66092,172.11458333333331
7225,0.0,,,,57.0,,,,,0,note_on,,0.0,57.0,0.0,66092,172.11458333333331
7226,0.0,,,,53.0,,,,,0,note_on,,0.0,53.0,0.0,66092,172.11458333333331
7227,0.0,,,,57.0,,,,,52,note_on,,72.0,57.0,72.0,66144,172.25
7228,0.0,,,,60.0,,,,,0,note_on,,72.0,60.0,72.0,66144,172.25
7229,0.0,,,,53.0,,,,,0,note_on,,72.0,53.0,72.0,66144,172.25
7230,0.0,,,,57.0,,,,,44,note_on,,0.0,57.0,0.0,66188,172.36458333333331
7231,0.0,,,,60.0,,,,,0,note_on,,0.0,60.0,0.0,66188,172.36458333333331
7232,0.0,,,,53.0,,,,,0,note_on,,0.0,53.0,0.0,66188,172.36458333333331
7233,0.0,,,,53.0,,,,,52,note_on,,70.0,53.0,70.0,66240,172.5
7234,0.0,,,,57.0,,,,,0,note_on,,70.0,57.0,70.0,66240,172.5
7235,0.0,,,,60.0,,,,,0,note_on,,70.0,60.0,70.0,66240,172.5
7236,0.0,,,,57.0,,,,,44,note_on,,0.0,57.0,0.0,66284,172.61458333333331
7237,0.0,,,,60.0,,,,,0,note_on,,0.0,60.0,0.0,66284,172.61458333333331
7238,0.0,,,,53.0,,,,,0,note_on,,0.0,53.0,0.0,66284,172.61458333333331
7239,0.0,,,,57.0,,,,,52,note_on,,65.0,57.0,65.0,66336,172.75
7240,0.0,,,,60.0,,,,,0,note_on,,65.0,60.0,65.0,66336,172.75
7241,0.0,,,,53.0,,,,,0,note_on,,65.0,53.0,65.0,66336,172.75
7242,0.0,,,,57.0,,,,,44,note_on,,0.0,57.0,0.0,66380,172.86458333333331
7243,0.0,,,,60.0,,,,,0,note_on,,0.0,60.0,0.0,66380,172.86458333333331
7244,0.0,,,,53.0,,,,,0,note_on,,0.0,53.0,0.0,66380,172.86458333333331
7245,0.0,,,,57.0,,,,,52,note_on,,63.0,57.0,63.0,66432,173.0
7246,0.0,,,,60.0,,,,,0,note_on,,63.0,60.0,63.0,66432,173.0
7247,0.0,,,,53.0,,,,,0,note_on,,63.0,53.0,63.0,66432,173.0
7248,0.0,,,,60.0,,,,,44,note_on,,0.0,60.0,0.0,66476,173.11458333333331
7249,0.0,,,,53.0,,,,,0,note_on,,0.0,53.0,0.0,66476,173.11458333333331
7250,0.0,,,,57.0,,,,,0,note_on,,0.0,57.0,0.0,66476,173.11458333333331
7251,0.0,,,,53.0,,,,,52,note_on,,59.0,53.0,59.0,66528,173.25
7252,0.0,,,,57.0,,,,,0,note_on,,59.0,57.0,59.0,66528,173.25
7253,0.0,,,,60.0,,,,,0,note_on,,59.0,60.0,59.0,66528,173.25
7254,0.0,,,,53.0,,,,,44,note_on,,0.0,53.0,0.0,66572,173.36458333333331
7255,0.0,,,,57.0,,,,,0,note_on,,0.0,57.0,0.0,66572,173.36458333333331
7256,0.0,,,,60.0,,,,,0,note_on,,0.0,60.0,0.0,66572,173.36458333333331
7257,0.0,,,,60.0,,,,,52,note_on,,55.0,60.0,55.0,66624,173.5
7258,0.0,,,,57.0,,,,,0,note_on,,55.0,57.0,55.0,66624,173.5
7259,0.0,,,,53.0,,,,,0,note_on,,55.0,53.0,55.0,66624,173.5
7260,0.0,,,,57.0,,,,,44,note_on,,0.0,57.0,0.0,66668,173.61458333333331
7261,0.0,,,,60.0,,,,,0,note_on,,0.0,60.0,0.0,66668,173.61458333333331
7262,0.0,,,,53.0,,,,,0,note_on,,0.0,53.0,0.0,66668,173.61458333333331
7263,0.0,,,,48.0,,,,,52,note_on,,51.0,48.0,51.0,66720,173.75
7264,0.0,,,,48.0,,,,,44,note_on,,0.0,48.0,0.0,66764,173.86458333333331
7265,0.0,,,,64.0,,,,,52,note_on,,49.0,64.0,49.0,66816,174.0
7266,0.0,,,,60.0,,,,,0,note_on,,49.0,60.0,49.0,66816,174.0
7267,0.0,,,,55.0,,,,,0,note_on,,49.0,55.0,49.0,66816,174.0
7268,0.0,,,,64.0,,,,,44,note_on,,0.0,64.0,0.0,66860,174.11458333333331
7269,0.0,,,,60.0,,,,,0,note_on,,0.0,60.0,0.0,66860,174.11458333333331
7270,0.0,,,,55.0,,,,,0,note_on,,0.0,55.0,0.0,66860,174.11458333333331
7271,0.0,,,,60.0,,,,,52,note_on,,46.0,60.0,46.0,66912,174.25
7272,0.0,,,,64.0,,,,,0,note_on,,46.0,64.0,46.0,66912,174.25
7273,0.0,,,,55.0,,,,,0,note_on,,46.0,55.0,46.0,66912,174.25
7274,0.0,,,,60.0,,,,,44,note_on,,0.0,60.0,0.0,66956,174.36458333333331
7275,0.0,,,,64.0,,,,,0,note_on,,0.0,64.0,0.0,66956,174.36458333333331
7276,0.0,,,,55.0,,,,,0,note_on,,0.0,55.0,0.0,66956,174.36458333333331
7277,0.0,,,,55.0,,,,,52,note_on,,40.0,55.0,40.0,67008,174.5
7278,0.0,,,,64.0,,,,,0,note_on,,40.0,64.0,40.0,67008,174.5
7279,0.0,,,,60.0,,,,,0,note_on,,40.0,60.0,40.0,67008,174.5
7280,0.0,,,,55.0,,,,,44,note_on,,0.0,55.0,0.0,67052,174.61458333333331
7281,0.0,,,,64.0,,,,,0,note_on,,0.0,64.0,0.0,67052,174.61458333333331
7282,0.0,,,,60.0,,,,,0,note_on,,0.0,60.0,0.0,67052,174.61458333333331
7283,0.0,,,,55.0,,,,,52,note_on,,36.0,55.0,36.0,67104,174.75
7284,0.0,,,,64.0,,,,,0,note_on,,36.0,64.0,36.0,67104,174.75
7285,0.0,,,,60.0,,,,,0,note_on,,36.0,60.0,36.0,67104,174.75
7286,0.0,,,,55.0,,,,,44,note_on,,0.0,55.0,0.0,67148,174.86458333333331
7287,0.0,,,,64.0,,,,,0,note_on,,0.0,64.0,0.0,67148,174.86458333333331
7288,0.0,,,,60.0,,,,,0,note_on,,0.0,60.0,0.0,67148,174.86458333333331
7289,0.0,,,,60.0,,,,,52,note_on,,35.0,60.0,35.0,67200,175.0
7290,0.0,,,,64.0,,,,,0,note_on,,35.0,64.0,35.0,67200,175.0
7291,0.0,,,,55.0,,,,,0,note_on,,35.0,55.0,35.0,67200,175.0
7292,0.0,,,,60.0,,,,,44,note_on,,0.0,60.0,0.0,67244,175.11458333333331
7293,0.0,,,,64.0,,,,,0,note_on,,0.0,64.0,0.0,67244,175.11458333333331
7294,0.0,,,,55.0,,,,,0,note_on,,0.0,55.0,0.0,67244,175.11458333333331
7295,0.0,,,,55.0,,,,,52,note_on,,31.0,55.0,31.0,67296,175.25
7296,0.0,,,,60.0,,,,,0,note_on,,31.0,60.0,31.0,67296,175.25
7297,0.0,,,,64.0,,,,,0,note_on,,31.0,64.0,31.0,67296,175.25
7298,0.0,,,,55.0,,,,,44,note_on,,0.0,55.0,0.0,67340,175.36458333333331
7299,0.0,,,,60.0,,,,,0,note_on,,0.0,60.0,0.0,67340,175.36458333333331
7300,0.0,,,,64.0,,,,,0,note_on,,0.0,64.0,0.0,67340,175.36458333333331
7301,0.0,,,,55.0,,,,,52,note_on,,27.0,55.0,27.0,67392,175.5
7302,0.0,,,,64.0,,,,,0,note_on,,27.0,64.0,27.0,67392,175.5
7303,0.0,,,,60.0,,,,,0,note_on,,27.0,60.0,27.0,67392,175.5
7304,0.0,,,,55.0,,,,,44,note_on,,0.0,55.0,0.0,67436,175.61458333333331
7305,0.0,,,,64.0,,,,,0,note_on,,0.0,64.0,0.0,67436,175.61458333333331
7306,0.0,,,,60.0,,,,,0,note_on,,0.0,60.0,0.0,67436,175.61458333333331
7307,0.0,,,,64.0,,,,,52,note_on,,25.0,64.0,25.0,67488,175.75
7308,0.0,,,,60.0,,,,,0,note_on,,25.0,60.0,25.0,67488,175.75
7309,0.0,,,,55.0,,,,,0,note_on,,25.0,55.0,25.0,67488,175.75
7310,0.0,,,,64.0,,,,,44,note_on,,0.0,64.0,0.0,67532,175.86458333333331
7311,0.0,,,,60.0,,,,,0,note_on,,0.0,60.0,0.0,67532,175.86458333333331
7312,0.0,,,,55.0,,,,,0,note_on,,0.0,55.0,0.0,67532,175.86458333333331
7313,0.0,,,,55.0,,,,,52,note_on,,24.0,55.0,24.0,67584,176.0
7314,0.0,,,,59.0,,,,,0,note_on,,24.0,59.0,24.0,67584,176.0
7315,0.0,,,,62.0,,,,,0,note_on,,24.0,62.0,24.0,67584,176.0
7316,0.0,,,,55.0,,,,,44,note_on,,0.0,55.0,0.0,67628,176.11458333333331
7317,0.0,,,,59.0,,,,,0,note_on,,0.0,59.0,0.0,67628,176.11458333333331
7318,0.0,,,,62.0,,,,,0,note_on,,0.0,62.0,0.0,67628,176.11458333333331
7319,0.0,,,,62.0,,,,,52,note_on,,22.0,62.0,22.0,67680,176.25
7320,0.0,,,,55.0,,,,,0,note_on,,22.0,55.0,22.0,67680,176.25
7321,0.0,,,,59.0,,,,,0,note_on,,22.0,59.0,22.0,67680,176.25
7322,0.0,,,,62.0,,,,,44,note_on,,0.0,62.0,0.0,67724,176.36458333333331
7323,0.0,,,,55.0,,,,,0,note_on,,0.0,55.0,0.0,67724,176.36458333333331
7324,0.0,,,,59.0,,,,,0,note_on,,0.0,59.0,0.0,67724,176.36458333333331
7325,0.0,,,,62.0,,,,,52,note_on,,19.0,62.0,19.0,67776,176.5
7326,0.0,,,,55.0,,,,,0,note_on,,19.0,55.0,19.0,67776,176.5
7327,0.0,,,,59.0,,,,,0,note_on,,19.0,59.0,19.0,67776,176.5
7328,0.0,,,,62.0,,,,,44,note_on,,0.0,62.0,0.0,67820,176.61458333333331
7329,0.0,,,,55.0,,,,,0,note_on,,0.0,55.0,0.0,67820,176.61458333333331
7330,0.0,,,,59.0,,,,,0,note_on,,0.0,59.0,0.0,67820,176.61458333333331
7331,0.0,,,,55.0,,,,,52,note_on,,15.0,55.0,15.0,67872,176.75
7332,0.0,,,,59.0,,,,,0,note_on,,15.0,59.0,15.0,67872,176.75
7333,0.0,,,,62.0,,,,,0,note_on,,15.0,62.0,15.0,67872,176.75
7334,0.0,,,,55.0,,,,,44,note_on,,0.0,55.0,0.0,67916,176.86458333333331
7335,0.0,,,,59.0,,,,,0,note_on,,0.0,59.0,0.0,67916,176.86458333333331
7336,0.0,,,,62.0,,,,,0,note_on,,0.0,62.0,0.0,67916,176.86458333333331
7337,0.0,,,,62.0,,,,,52,note_on,,13.0,62.0,13.0,67968,177.0
7338,0.0,,,,55.0,,,,,0,note_on,,13.0,55.0,13.0,67968,177.0
7339,0.0,,,,59.0,,,,,0,note_on,,13.0,59.0,13.0,67968,177.0
7340,0.0,,,,62.0,,,,,44,note_on,,0.0,62.0,0.0,68012,177.11458333333331
7341,0.0,,,,55.0,,,,,0,note_on,,0.0,55.0,0.0,68012,177.11458333333331
7342,0.0,,,,59.0,,,,,0,note_on,,0.0,59.0,0.0,68012,177.11458333333331
7343,0.0,,,,62.0,,,,,52,note_on,,10.0,62.0,10.0,68064,177.25
7344,0.0,,,,59.0,,,,,0,note_on,,10.0,59.0,10.0,68064,177.25
7345,0.0,,,,55.0,,,,,0,note_on,,10.0,55.0,10.0,68064,177.25
7346,0.0,,,,62.0,,,,,44,note_on,,0.0,62.0,0.0,68108,177.36458333333331
7347,0.0,,,,59.0,,,,,0,note_on,,0.0,59.0,0.0,68108,177.36458333333331
7348,0.0,,,,55.0,,,,,0,note_on,,0.0,55.0,0.0,68108,177.36458333333331
7349,0.0,,,,62.0,,,,,52,note_on,,7.0,62.0,7.0,68160,177.5
7350,0.0,,,,59.0,,,,,0,note_on,,7.0,59.0,7.0,68160,177.5
7351,0.0,,,,55.0,,,,,0,note_on,,7.0,55.0,7.0,68160,177.5
7352,0.0,,,,59.0,,,,,44,note_on,,0.0,59.0,0.0,68204,177.61458333333331
7353,0.0,,,,62.0,,,,,0,note_on,,0.0,62.0,0.0,68204,177.61458333333331
7354,0.0,,,,55.0,,,,,0,note_on,,0.0,55.0,0.0,68204,177.61458333333331
7355,0.0,,,,55.0,,,,,52,note_on,,4.0,55.0,4.0,68256,177.75
7356,0.0,,,,59.0,,,,,0,note_on,,4.0,59.0,4.0,68256,177.75
7357,0.0,,,,62.0,,,,,0,note_on,,4.0,62.0,4.0,68256,177.75
7358,0.0,,,,62.0,,,,,44,note_on,,0.0,62.0,0.0,68300,177.86458333333331
7359,0.0,,,,55.0,,,,,0,note_on,,0.0,55.0,0.0,68300,177.86458333333331
7360,0.0,,,,59.0,,,,,0,note_on,,0.0,59.0,0.0,68300,177.86458333333331
7361,,,,,,,,,,0,end_of_track,,,,,4637840008,12077708.354166666
7362,10.0,0.0,,,,,,,,0,control_change,0.0,,,,0,0.0
7363,10.0,,,,,,78.0,,,0,program_change,,,,,0,0.0
7364,,,"(74, 65, 90, 50, 1, 0, 0, 0, 0, 0, 0, 0, 0, 0, 0, 0, 0, 0, 0, 0)",,,,,,,0,sequencer_specific,,,,,4637840224,12077708.916666666
7365,,,,Whistle,,,,,,0,track_name,,,,,4637840296,12077709.104166666
7366,10.0,93.0,,,,,,,,0,control_change,0.0,,,,0,0.0
7367,10.0,10.0,,,,,,,,0,control_change,64.0,,,,0,0.0
7368,10.0,91.0,,,,,,,,0,control_change,40.0,,,,0,0.0
7369,10.0,7.0,,,,,,,,0,control_change,49.0,,,,0,0.0
7370,10.0,,,,103.0,,,,,19728,note_on,,112.0,103.0,112.0,19728,51.375
7371,10.0,,,,103.0,,,,,232,note_on,,0.0,103.0,0.0,19960,51.979166666666664
7372,10.0,,,,103.0,,,,,584,note_on,,112.0,103.0,112.0,20544,53.5
7373,10.0,,,,103.0,,,,,232,note_on,,0.0,103.0,0.0,20776,54.104166666666664
7374,10.0,,,,103.0,,,,,488,note_on,,112.0,103.0,112.0,21264,55.375
7375,10.0,,,,103.0,,,,,232,note_on,,0.0,103.0,0.0,21496,55.979166666666664
7376,10.0,,,,103.0,,,,,584,note_on,,112.0,103.0,112.0,22080,57.5
7377,10.0,,,,103.0,,,,,232,note_on,,0.0,103.0,0.0,22312,58.104166666666664
7378,10.0,,,,103.0,,,,,488,note_on,,112.0,103.0,112.0,22800,59.375
7379,10.0,,,,103.0,,,,,232,note_on,,0.0,103.0,0.0,23032,59.979166666666664
7380,10.0,,,,103.0,,,,,584,note_on,,112.0,103.0,112.0,23616,61.5
7381,10.0,,,,103.0,,,,,232,note_on,,0.0,103.0,0.0,23848,62.104166666666664
7382,10.0,,,,103.0,,,,,488,note_on,,112.0,103.0,112.0,24336,63.375
7383,10.0,,,,103.0,,,,,232,note_on,,0.0,103.0,0.0,24568,63.979166666666664
7384,10.0,,,,103.0,,,,,584,note_on,,112.0,103.0,112.0,25152,65.5
7385,10.0,,,,103.0,,,,,232,note_on,,0.0,103.0,0.0,25384,66.10416666666666
7386,10.0,,,,103.0,,,,,12776,note_on,,112.0,103.0,112.0,38160,99.375
7387,10.0,,,,103.0,,,,,232,note_on,,0.0,103.0,0.0,38392,99.97916666666666
7388,10.0,,,,103.0,,,,,584,note_on,,112.0,103.0,112.0,38976,101.5
7389,10.0,,,,103.0,,,,,232,note_on,,0.0,103.0,0.0,39208,102.10416666666666
7390,10.0,,,,103.0,,,,,488,note_on,,112.0,103.0,112.0,39696,103.375
7391,10.0,,,,103.0,,,,,232,note_on,,0.0,103.0,0.0,39928,103.97916666666666
7392,10.0,,,,103.0,,,,,584,note_on,,112.0,103.0,112.0,40512,105.5
7393,10.0,,,,103.0,,,,,232,note_on,,0.0,103.0,0.0,40744,106.10416666666666
7394,10.0,,,,103.0,,,,,488,note_on,,112.0,103.0,112.0,41232,107.375
7395,10.0,,,,103.0,,,,,232,note_on,,0.0,103.0,0.0,41464,107.97916666666666
7396,10.0,,,,103.0,,,,,584,note_on,,112.0,103.0,112.0,42048,109.5
7397,10.0,,,,103.0,,,,,232,note_on,,0.0,103.0,0.0,42280,110.10416666666666
7398,10.0,,,,103.0,,,,,488,note_on,,112.0,103.0,112.0,42768,111.375
7399,10.0,,,,103.0,,,,,232,note_on,,0.0,103.0,0.0,43000,111.97916666666666
7400,10.0,,,,103.0,,,,,584,note_on,,112.0,103.0,112.0,43584,113.5
7401,10.0,,,,103.0,,,,,232,note_on,,0.0,103.0,0.0,43816,114.10416666666666
7402,10.0,,,,103.0,,,,,6632,note_on,,112.0,103.0,112.0,50448,131.375
7403,10.0,,,,103.0,,,,,232,note_on,,0.0,103.0,0.0,50680,131.97916666666666
7404,10.0,,,,103.0,,,,,584,note_on,,112.0,103.0,112.0,51264,133.5
7405,10.0,,,,103.0,,,,,232,note_on,,0.0,103.0,0.0,51496,134.10416666666666
7406,10.0,,,,103.0,,,,,488,note_on,,112.0,103.0,112.0,51984,135.375
7407,10.0,,,,103.0,,,,,232,note_on,,0.0,103.0,0.0,52216,135.97916666666666
7408,10.0,,,,103.0,,,,,584,note_on,,112.0,103.0,112.0,52800,137.5
7409,10.0,,,,103.0,,,,,232,note_on,,0.0,103.0,0.0,53032,138.10416666666666
7410,10.0,,,,103.0,,,,,488,note_on,,112.0,103.0,112.0,53520,139.375
7411,10.0,,,,103.0,,,,,232,note_on,,0.0,103.0,0.0,53752,139.97916666666666
7412,10.0,,,,103.0,,,,,584,note_on,,112.0,103.0,112.0,54336,141.5
7413,10.0,,,,103.0,,,,,232,note_on,,0.0,103.0,0.0,54568,142.10416666666666
7414,10.0,,,,103.0,,,,,488,note_on,,112.0,103.0,112.0,55056,143.375
7415,10.0,,,,103.0,,,,,232,note_on,,0.0,103.0,0.0,55288,143.97916666666666
7416,10.0,,,,103.0,,,,,584,note_on,,112.0,103.0,112.0,55872,145.5
7417,10.0,,,,103.0,,,,,232,note_on,,0.0,103.0,0.0,56104,146.10416666666666
7418,10.0,,,,103.0,,,,,488,note_on,,112.0,103.0,112.0,56592,147.375
7419,10.0,,,,103.0,,,,,232,note_on,,0.0,103.0,0.0,56824,147.97916666666666
7420,10.0,,,,103.0,,,,,584,note_on,,112.0,103.0,112.0,57408,149.5
7421,10.0,,,,103.0,,,,,232,note_on,,0.0,103.0,0.0,57640,150.10416666666666
7422,10.0,,,,103.0,,,,,488,note_on,,112.0,103.0,112.0,58128,151.375
7423,10.0,,,,103.0,,,,,232,note_on,,0.0,103.0,0.0,58360,151.97916666666666
7424,10.0,,,,103.0,,,,,584,note_on,,112.0,103.0,112.0,58944,153.5
7425,10.0,,,,103.0,,,,,232,note_on,,0.0,103.0,0.0,59176,154.10416666666666
7426,10.0,,,,103.0,,,,,488,note_on,,112.0,103.0,112.0,59664,155.375
7427,10.0,,,,103.0,,,,,232,note_on,,0.0,103.0,0.0,59896,155.97916666666666
7428,10.0,,,,103.0,,,,,584,note_on,,112.0,103.0,112.0,60480,157.5
7429,10.0,,,,103.0,,,,,232,note_on,,0.0,103.0,0.0,60712,158.10416666666666
7430,10.0,,,,103.0,,,,,488,note_on,,112.0,103.0,112.0,61200,159.375
7431,10.0,,,,103.0,,,,,232,note_on,,0.0,103.0,0.0,61432,159.97916666666666
7432,10.0,,,,103.0,,,,,584,note_on,,112.0,103.0,112.0,62016,161.5
7433,10.0,,,,103.0,,,,,232,note_on,,0.0,103.0,0.0,62248,162.10416666666666
7434,10.0,,,,103.0,,,,,488,note_on,,112.0,103.0,112.0,62736,163.375
7435,10.0,,,,103.0,,,,,232,note_on,,0.0,103.0,0.0,62968,163.97916666666666
7436,10.0,,,,103.0,,,,,584,note_on,,112.0,103.0,112.0,63552,165.5
7437,10.0,,,,103.0,,,,,232,note_on,,0.0,103.0,0.0,63784,166.10416666666666
7438,10.0,,,,103.0,,,,,488,note_on,,112.0,103.0,112.0,64272,167.375
7439,10.0,,,,103.0,,,,,232,note_on,,0.0,103.0,0.0,64504,167.97916666666666
7440,10.0,,,,103.0,,,,,584,note_on,,112.0,103.0,112.0,65088,169.5
7441,10.0,,,,103.0,,,,,232,note_on,,0.0,103.0,0.0,65320,170.10416666666666
7442,10.0,,,,103.0,,,,,488,note_on,,112.0,103.0,112.0,65808,171.375
7443,10.0,,,,103.0,,,,,232,note_on,,0.0,103.0,0.0,66040,171.97916666666666
7444,10.0,,,,103.0,,,,,584,note_on,,77.0,103.0,77.0,66624,173.5
7445,10.0,,,,103.0,,,,,232,note_on,,0.0,103.0,0.0,66856,174.10416666666666
7446,10.0,,,,103.0,,,,,488,note_on,,43.0,103.0,43.0,67344,175.375
7447,10.0,,,,103.0,,,,,232,note_on,,0.0,103.0,0.0,67576,175.97916666666666
7448,10.0,,,,103.0,,,,,584,note_on,,8.0,103.0,8.0,68160,177.5
7449,10.0,,,,103.0,,,,,232,note_on,,0.0,103.0,0.0,68392,178.10416666666666
7450,,,,,,,,,,0,end_of_track,,,,,4637854672,12077746.541666666
7451,1.0,0.0,,,,,,,,0,control_change,8.0,,,,0,0.0
7452,1.0,,,,,,38.0,,,0,program_change,,,,,0,0.0
7453,,,"(74, 65, 90, 50, 1, 0, 0, 0, 0, 0, 0, 0, 0, 0, 0, 0, 0, 0, 0, 0)",,,,,,,0,sequencer_specific,,,,,4637854888,12077747.104166666
7454,1.0,7.0,,,,,,,,0,control_change,114.0,,,,0,0.0
7455,,,,Bass,,,,,,0,track_name,,,,,4637855032,12077747.479166666
7456,1.0,10.0,,,,,,,,0,control_change,64.0,,,,0,0.0
7457,1.0,91.0,,,,,,,,0,control_change,40.0,,,,0,0.0
7458,1.0,93.0,,,,,,,,0,control_change,0.0,,,,0,0.0
7459,1.0,,,,31.0,,,,,13056,note_on,,112.0,31.0,112.0,13056,34.0
7460,1.0,,,,31.0,,,,,92,note_on,,0.0,31.0,0.0,13148,34.23958333333333
7461,1.0,,,,31.0,,,,,4,note_on,,112.0,31.0,112.0,13152,34.25
7462,1.0,,,,31.0,,,,,92,note_on,,0.0,31.0,0.0,13244,34.48958333333333
7463,1.0,,,,43.0,,,,,4,note_on,,112.0,43.0,112.0,13248,34.5
7464,1.0,,,,43.0,,,,,236,note_on,,0.0,43.0,0.0,13484,35.11458333333333
7465,1.0,,,,31.0,,,,,4,note_on,,112.0,31.0,112.0,13488,35.125
7466,1.0,,,,31.0,,,,,88,note_on,,0.0,31.0,0.0,13576,35.354166666666664
7467,1.0,,,,31.0,,,,,8,note_on,,112.0,31.0,112.0,13584,35.375
7468,1.0,,,,31.0,,,,,88,note_on,,0.0,31.0,0.0,13672,35.604166666666664
7469,1.0,,,,31.0,,,,,8,note_on,,112.0,31.0,112.0,13680,35.625
7470,1.0,,,,31.0,,,,,88,note_on,,0.0,31.0,0.0,13768,35.854166666666664
7471,1.0,,,,31.0,,,,,8,note_on,,112.0,31.0,112.0,13776,35.875
7472,1.0,,,,31.0,,,,,44,note_on,,0.0,31.0,0.0,13820,35.98958333333333
7473,1.0,,,,29.0,,,,,4,note_on,,112.0,29.0,112.0,13824,36.0
7474,1.0,,,,29.0,,,,,88,note_on,,0.0,29.0,0.0,13912,36.229166666666664
7475,1.0,,,,29.0,,,,,8,note_on,,112.0,29.0,112.0,13920,36.25
7476,1.0,,,,29.0,,,,,88,note_on,,0.0,29.0,0.0,14008,36.479166666666664
7477,1.0,,,,29.0,,,,,8,note_on,,112.0,29.0,112.0,14016,36.5
7478,1.0,,,,29.0,,,,,232,note_on,,0.0,29.0,0.0,14248,37.104166666666664
7479,1.0,,,,29.0,,,,,8,note_on,,112.0,29.0,112.0,14256,37.125
7480,1.0,,,,29.0,,,,,88,note_on,,0.0,29.0,0.0,14344,37.354166666666664
7481,1.0,,,,29.0,,,,,8,note_on,,112.0,29.0,112.0,14352,37.375
7482,1.0,,,,29.0,,,,,88,note_on,,0.0,29.0,0.0,14440,37.604166666666664
7483,1.0,,,,29.0,,,,,8,note_on,,112.0,29.0,112.0,14448,37.625
7484,1.0,,,,29.0,,,,,88,note_on,,0.0,29.0,0.0,14536,37.854166666666664
7485,1.0,,,,29.0,,,,,8,note_on,,112.0,29.0,112.0,14544,37.875
7486,1.0,,,,29.0,,,,,44,note_on,,0.0,29.0,0.0,14588,37.98958333333333
7487,1.0,,,,36.0,,,,,4,note_on,,112.0,36.0,112.0,14592,38.0
7488,1.0,,,,36.0,,,,,88,note_on,,0.0,36.0,0.0,14680,38.229166666666664
7489,1.0,,,,36.0,,,,,8,note_on,,112.0,36.0,112.0,14688,38.25
7490,1.0,,,,36.0,,,,,88,note_on,,0.0,36.0,0.0,14776,38.479166666666664
7491,1.0,,,,36.0,,,,,8,note_on,,112.0,36.0,112.0,14784,38.5
7492,1.0,,,,36.0,,,,,232,note_on,,0.0,36.0,0.0,15016,39.104166666666664
7493,1.0,,,,36.0,,,,,8,note_on,,112.0,36.0,112.0,15024,39.125
7494,1.0,,,,36.0,,,,,88,note_on,,0.0,36.0,0.0,15112,39.354166666666664
7495,1.0,,,,36.0,,,,,8,note_on,,112.0,36.0,112.0,15120,39.375
7496,1.0,,,,36.0,,,,,88,note_on,,0.0,36.0,0.0,15208,39.604166666666664
7497,1.0,,,,36.0,,,,,8,note_on,,112.0,36.0,112.0,15216,39.625
7498,1.0,,,,36.0,,,,,88,note_on,,0.0,36.0,0.0,15304,39.854166666666664
7499,1.0,,,,34.0,,,,,8,note_on,,112.0,34.0,112.0,15312,39.875
7500,1.0,,,,34.0,,,,,44,note_on,,0.0,34.0,0.0,15356,39.98958333333333
7501,1.0,,,,31.0,,,,,4,note_on,,112.0,31.0,112.0,15360,40.0
7502,1.0,,,,31.0,,,,,88,note_on,,0.0,31.0,0.0,15448,40.229166666666664
7503,1.0,,,,31.0,,,,,8,note_on,,112.0,31.0,112.0,15456,40.25
7504,1.0,,,,31.0,,,,,88,note_on,,0.0,31.0,0.0,15544,40.479166666666664
7505,1.0,,,,31.0,,,,,8,note_on,,112.0,31.0,112.0,15552,40.5
7506,1.0,,,,31.0,,,,,232,note_on,,0.0,31.0,0.0,15784,41.104166666666664
7507,1.0,,,,31.0,,,,,8,note_on,,112.0,31.0,112.0,15792,41.125
7508,1.0,,,,31.0,,,,,88,note_on,,0.0,31.0,0.0,15880,41.354166666666664
7509,1.0,,,,31.0,,,,,8,note_on,,112.0,31.0,112.0,15888,41.375
7510,1.0,,,,31.0,,,,,88,note_on,,0.0,31.0,0.0,15976,41.604166666666664
7511,1.0,,,,31.0,,,,,8,note_on,,112.0,31.0,112.0,15984,41.625
7512,1.0,,,,31.0,,,,,88,note_on,,0.0,31.0,0.0,16072,41.854166666666664
7513,1.0,,,,31.0,,,,,8,note_on,,112.0,31.0,112.0,16080,41.875
7514,1.0,,,,31.0,,,,,44,note_on,,0.0,31.0,0.0,16124,41.98958333333333
7515,1.0,,,,31.0,,,,,4,note_on,,112.0,31.0,112.0,16128,42.0
7516,1.0,,,,31.0,,,,,92,note_on,,0.0,31.0,0.0,16220,42.23958333333333
7517,1.0,,,,31.0,,,,,4,note_on,,112.0,31.0,112.0,16224,42.25
7518,1.0,,,,31.0,,,,,92,note_on,,0.0,31.0,0.0,16316,42.48958333333333
7519,1.0,,,,31.0,,,,,4,note_on,,112.0,31.0,112.0,16320,42.5
7520,1.0,,,,31.0,,,,,236,note_on,,0.0,31.0,0.0,16556,43.11458333333333
7521,1.0,,,,31.0,,,,,4,note_on,,112.0,31.0,112.0,16560,43.125
7522,1.0,,,,31.0,,,,,88,note_on,,0.0,31.0,0.0,16648,43.354166666666664
7523,1.0,,,,31.0,,,,,8,note_on,,112.0,31.0,112.0,16656,43.375
7524,1.0,,,,31.0,,,,,88,note_on,,0.0,31.0,0.0,16744,43.604166666666664
7525,1.0,,,,31.0,,,,,8,note_on,,112.0,31.0,112.0,16752,43.625
7526,1.0,,,,31.0,,,,,88,note_on,,0.0,31.0,0.0,16840,43.854166666666664
7527,1.0,,,,31.0,,,,,8,note_on,,112.0,31.0,112.0,16848,43.875
7528,1.0,,,,31.0,,,,,44,note_on,,0.0,31.0,0.0,16892,43.98958333333333
7529,1.0,,,,29.0,,,,,4,note_on,,112.0,29.0,112.0,16896,44.0
7530,1.0,,,,29.0,,,,,88,note_on,,0.0,29.0,0.0,16984,44.229166666666664
7531,1.0,,,,29.0,,,,,8,note_on,,112.0,29.0,112.0,16992,44.25
7532,1.0,,,,29.0,,,,,88,note_on,,0.0,29.0,0.0,17080,44.479166666666664
7533,1.0,,,,29.0,,,,,8,note_on,,112.0,29.0,112.0,17088,44.5
7534,1.0,,,,29.0,,,,,232,note_on,,0.0,29.0,0.0,17320,45.104166666666664
7535,1.0,,,,29.0,,,,,8,note_on,,112.0,29.0,112.0,17328,45.125
7536,1.0,,,,29.0,,,,,88,note_on,,0.0,29.0,0.0,17416,45.354166666666664
7537,1.0,,,,29.0,,,,,8,note_on,,112.0,29.0,112.0,17424,45.375
7538,1.0,,,,29.0,,,,,88,note_on,,0.0,29.0,0.0,17512,45.604166666666664
7539,1.0,,,,29.0,,,,,8,note_on,,112.0,29.0,112.0,17520,45.625
7540,1.0,,,,29.0,,,,,88,note_on,,0.0,29.0,0.0,17608,45.854166666666664
7541,1.0,,,,29.0,,,,,8,note_on,,112.0,29.0,112.0,17616,45.875
7542,1.0,,,,29.0,,,,,44,note_on,,0.0,29.0,0.0,17660,45.98958333333333
7543,1.0,,,,36.0,,,,,4,note_on,,112.0,36.0,112.0,17664,46.0
7544,1.0,,,,36.0,,,,,88,note_on,,0.0,36.0,0.0,17752,46.229166666666664
7545,1.0,,,,36.0,,,,,8,note_on,,112.0,36.0,112.0,17760,46.25
7546,1.0,,,,36.0,,,,,88,note_on,,0.0,36.0,0.0,17848,46.479166666666664
7547,1.0,,,,36.0,,,,,8,note_on,,112.0,36.0,112.0,17856,46.5
7548,1.0,,,,36.0,,,,,232,note_on,,0.0,36.0,0.0,18088,47.104166666666664
7549,1.0,,,,36.0,,,,,8,note_on,,112.0,36.0,112.0,18096,47.125
7550,1.0,,,,36.0,,,,,88,note_on,,0.0,36.0,0.0,18184,47.354166666666664
7551,1.0,,,,36.0,,,,,8,note_on,,112.0,36.0,112.0,18192,47.375
7552,1.0,,,,36.0,,,,,88,note_on,,0.0,36.0,0.0,18280,47.604166666666664
7553,1.0,,,,36.0,,,,,8,note_on,,112.0,36.0,112.0,18288,47.625
7554,1.0,,,,36.0,,,,,88,note_on,,0.0,36.0,0.0,18376,47.854166666666664
7555,1.0,,,,34.0,,,,,8,note_on,,112.0,34.0,112.0,18384,47.875
7556,1.0,,,,34.0,,,,,44,note_on,,0.0,34.0,0.0,18428,47.98958333333333
7557,1.0,,,,31.0,,,,,4,note_on,,112.0,31.0,112.0,18432,48.0
7558,1.0,,,,31.0,,,,,88,note_on,,0.0,31.0,0.0,18520,48.229166666666664
7559,1.0,,,,31.0,,,,,8,note_on,,112.0,31.0,112.0,18528,48.25
7560,1.0,,,,31.0,,,,,88,note_on,,0.0,31.0,0.0,18616,48.479166666666664
7561,1.0,,,,31.0,,,,,8,note_on,,112.0,31.0,112.0,18624,48.5
7562,1.0,,,,31.0,,,,,232,note_on,,0.0,31.0,0.0,18856,49.104166666666664
7563,1.0,,,,31.0,,,,,8,note_on,,112.0,31.0,112.0,18864,49.125
7564,1.0,,,,31.0,,,,,88,note_on,,0.0,31.0,0.0,18952,49.354166666666664
7565,1.0,,,,31.0,,,,,8,note_on,,112.0,31.0,112.0,18960,49.375
7566,1.0,,,,31.0,,,,,88,note_on,,0.0,31.0,0.0,19048,49.604166666666664
7567,1.0,,,,31.0,,,,,8,note_on,,112.0,31.0,112.0,19056,49.625
7568,1.0,,,,31.0,,,,,88,note_on,,0.0,31.0,0.0,19144,49.854166666666664
7569,1.0,,,,31.0,,,,,8,note_on,,112.0,31.0,112.0,19152,49.875
7570,1.0,,,,31.0,,,,,44,note_on,,0.0,31.0,0.0,19196,49.98958333333333
7571,1.0,,,,31.0,,,,,4,note_on,,112.0,31.0,112.0,19200,50.0
7572,1.0,,,,31.0,,,,,92,note_on,,0.0,31.0,0.0,19292,50.23958333333333
7573,1.0,,,,31.0,,,,,4,note_on,,112.0,31.0,112.0,19296,50.25
7574,1.0,,,,31.0,,,,,92,note_on,,0.0,31.0,0.0,19388,50.48958333333333
7575,1.0,,,,31.0,,,,,4,note_on,,112.0,31.0,112.0,19392,50.5
7576,1.0,,,,31.0,,,,,236,note_on,,0.0,31.0,0.0,19628,51.11458333333333
7577,1.0,,,,31.0,,,,,4,note_on,,112.0,31.0,112.0,19632,51.125
7578,1.0,,,,31.0,,,,,88,note_on,,0.0,31.0,0.0,19720,51.354166666666664
7579,1.0,,,,31.0,,,,,8,note_on,,112.0,31.0,112.0,19728,51.375
7580,1.0,,,,31.0,,,,,88,note_on,,0.0,31.0,0.0,19816,51.604166666666664
7581,1.0,,,,31.0,,,,,8,note_on,,112.0,31.0,112.0,19824,51.625
7582,1.0,,,,31.0,,,,,88,note_on,,0.0,31.0,0.0,19912,51.854166666666664
7583,1.0,,,,31.0,,,,,8,note_on,,112.0,31.0,112.0,19920,51.875
7584,1.0,,,,31.0,,,,,44,note_on,,0.0,31.0,0.0,19964,51.98958333333333
7585,1.0,,,,29.0,,,,,4,note_on,,112.0,29.0,112.0,19968,52.0
7586,1.0,,,,29.0,,,,,88,note_on,,0.0,29.0,0.0,20056,52.229166666666664
7587,1.0,,,,29.0,,,,,8,note_on,,112.0,29.0,112.0,20064,52.25
7588,1.0,,,,29.0,,,,,88,note_on,,0.0,29.0,0.0,20152,52.479166666666664
7589,1.0,,,,29.0,,,,,8,note_on,,112.0,29.0,112.0,20160,52.5
7590,1.0,,,,29.0,,,,,232,note_on,,0.0,29.0,0.0,20392,53.104166666666664
7591,1.0,,,,29.0,,,,,8,note_on,,112.0,29.0,112.0,20400,53.125
7592,1.0,,,,29.0,,,,,88,note_on,,0.0,29.0,0.0,20488,53.354166666666664
7593,1.0,,,,29.0,,,,,8,note_on,,112.0,29.0,112.0,20496,53.375
7594,1.0,,,,29.0,,,,,88,note_on,,0.0,29.0,0.0,20584,53.604166666666664
7595,1.0,,,,29.0,,,,,8,note_on,,112.0,29.0,112.0,20592,53.625
7596,1.0,,,,29.0,,,,,88,note_on,,0.0,29.0,0.0,20680,53.854166666666664
7597,1.0,,,,29.0,,,,,8,note_on,,112.0,29.0,112.0,20688,53.875
7598,1.0,,,,29.0,,,,,44,note_on,,0.0,29.0,0.0,20732,53.98958333333333
7599,1.0,,,,36.0,,,,,4,note_on,,112.0,36.0,112.0,20736,54.0
7600,1.0,,,,36.0,,,,,88,note_on,,0.0,36.0,0.0,20824,54.229166666666664
7601,1.0,,,,36.0,,,,,8,note_on,,112.0,36.0,112.0,20832,54.25
7602,1.0,,,,36.0,,,,,88,note_on,,0.0,36.0,0.0,20920,54.479166666666664
7603,1.0,,,,36.0,,,,,8,note_on,,112.0,36.0,112.0,20928,54.5
7604,1.0,,,,36.0,,,,,232,note_on,,0.0,36.0,0.0,21160,55.104166666666664
7605,1.0,,,,36.0,,,,,8,note_on,,112.0,36.0,112.0,21168,55.125
7606,1.0,,,,36.0,,,,,88,note_on,,0.0,36.0,0.0,21256,55.354166666666664
7607,1.0,,,,36.0,,,,,8,note_on,,112.0,36.0,112.0,21264,55.375
7608,1.0,,,,36.0,,,,,88,note_on,,0.0,36.0,0.0,21352,55.604166666666664
7609,1.0,,,,36.0,,,,,8,note_on,,112.0,36.0,112.0,21360,55.625
7610,1.0,,,,36.0,,,,,88,note_on,,0.0,36.0,0.0,21448,55.854166666666664
7611,1.0,,,,34.0,,,,,8,note_on,,112.0,34.0,112.0,21456,55.875
7612,1.0,,,,34.0,,,,,44,note_on,,0.0,34.0,0.0,21500,55.98958333333333
7613,1.0,,,,31.0,,,,,4,note_on,,112.0,31.0,112.0,21504,56.0
7614,1.0,,,,31.0,,,,,88,note_on,,0.0,31.0,0.0,21592,56.229166666666664
7615,1.0,,,,31.0,,,,,8,note_on,,112.0,31.0,112.0,21600,56.25
7616,1.0,,,,31.0,,,,,88,note_on,,0.0,31.0,0.0,21688,56.479166666666664
7617,1.0,,,,31.0,,,,,8,note_on,,112.0,31.0,112.0,21696,56.5
7618,1.0,,,,31.0,,,,,232,note_on,,0.0,31.0,0.0,21928,57.104166666666664
7619,1.0,,,,31.0,,,,,8,note_on,,112.0,31.0,112.0,21936,57.125
7620,1.0,,,,31.0,,,,,88,note_on,,0.0,31.0,0.0,22024,57.354166666666664
7621,1.0,,,,31.0,,,,,8,note_on,,112.0,31.0,112.0,22032,57.375
7622,1.0,,,,31.0,,,,,88,note_on,,0.0,31.0,0.0,22120,57.604166666666664
7623,1.0,,,,31.0,,,,,8,note_on,,112.0,31.0,112.0,22128,57.625
7624,1.0,,,,31.0,,,,,88,note_on,,0.0,31.0,0.0,22216,57.854166666666664
7625,1.0,,,,31.0,,,,,8,note_on,,112.0,31.0,112.0,22224,57.875
7626,1.0,,,,31.0,,,,,44,note_on,,0.0,31.0,0.0,22268,57.98958333333333
7627,1.0,,,,31.0,,,,,4,note_on,,112.0,31.0,112.0,22272,58.0
7628,1.0,,,,31.0,,,,,92,note_on,,0.0,31.0,0.0,22364,58.23958333333333
7629,1.0,,,,31.0,,,,,4,note_on,,112.0,31.0,112.0,22368,58.25
7630,1.0,,,,31.0,,,,,92,note_on,,0.0,31.0,0.0,22460,58.48958333333333
7631,1.0,,,,31.0,,,,,4,note_on,,112.0,31.0,112.0,22464,58.5
7632,1.0,,,,31.0,,,,,236,note_on,,0.0,31.0,0.0,22700,59.11458333333333
7633,1.0,,,,31.0,,,,,4,note_on,,112.0,31.0,112.0,22704,59.125
7634,1.0,,,,31.0,,,,,88,note_on,,0.0,31.0,0.0,22792,59.354166666666664
7635,1.0,,,,31.0,,,,,8,note_on,,112.0,31.0,112.0,22800,59.375
7636,1.0,,,,31.0,,,,,88,note_on,,0.0,31.0,0.0,22888,59.604166666666664
7637,1.0,,,,31.0,,,,,8,note_on,,112.0,31.0,112.0,22896,59.625
7638,1.0,,,,31.0,,,,,88,note_on,,0.0,31.0,0.0,22984,59.854166666666664
7639,1.0,,,,31.0,,,,,8,note_on,,112.0,31.0,112.0,22992,59.875
7640,1.0,,,,31.0,,,,,44,note_on,,0.0,31.0,0.0,23036,59.98958333333333
7641,1.0,,,,29.0,,,,,4,note_on,,112.0,29.0,112.0,23040,60.0
7642,1.0,,,,29.0,,,,,88,note_on,,0.0,29.0,0.0,23128,60.229166666666664
7643,1.0,,,,29.0,,,,,8,note_on,,112.0,29.0,112.0,23136,60.25
7644,1.0,,,,29.0,,,,,88,note_on,,0.0,29.0,0.0,23224,60.479166666666664
7645,1.0,,,,29.0,,,,,8,note_on,,112.0,29.0,112.0,23232,60.5
7646,1.0,,,,29.0,,,,,232,note_on,,0.0,29.0,0.0,23464,61.104166666666664
7647,1.0,,,,29.0,,,,,8,note_on,,112.0,29.0,112.0,23472,61.125
7648,1.0,,,,29.0,,,,,88,note_on,,0.0,29.0,0.0,23560,61.354166666666664
7649,1.0,,,,29.0,,,,,8,note_on,,112.0,29.0,112.0,23568,61.375
7650,1.0,,,,29.0,,,,,88,note_on,,0.0,29.0,0.0,23656,61.604166666666664
7651,1.0,,,,29.0,,,,,8,note_on,,112.0,29.0,112.0,23664,61.625
7652,1.0,,,,29.0,,,,,88,note_on,,0.0,29.0,0.0,23752,61.854166666666664
7653,1.0,,,,29.0,,,,,8,note_on,,112.0,29.0,112.0,23760,61.875
7654,1.0,,,,29.0,,,,,44,note_on,,0.0,29.0,0.0,23804,61.98958333333333
7655,1.0,,,,36.0,,,,,4,note_on,,112.0,36.0,112.0,23808,62.0
7656,1.0,,,,36.0,,,,,88,note_on,,0.0,36.0,0.0,23896,62.229166666666664
7657,1.0,,,,36.0,,,,,8,note_on,,112.0,36.0,112.0,23904,62.25
7658,1.0,,,,36.0,,,,,88,note_on,,0.0,36.0,0.0,23992,62.479166666666664
7659,1.0,,,,36.0,,,,,8,note_on,,112.0,36.0,112.0,24000,62.5
7660,1.0,,,,36.0,,,,,232,note_on,,0.0,36.0,0.0,24232,63.104166666666664
7661,1.0,,,,36.0,,,,,8,note_on,,112.0,36.0,112.0,24240,63.125
7662,1.0,,,,36.0,,,,,88,note_on,,0.0,36.0,0.0,24328,63.354166666666664
7663,1.0,,,,36.0,,,,,8,note_on,,112.0,36.0,112.0,24336,63.375
7664,1.0,,,,36.0,,,,,88,note_on,,0.0,36.0,0.0,24424,63.604166666666664
7665,1.0,,,,36.0,,,,,8,note_on,,112.0,36.0,112.0,24432,63.625
7666,1.0,,,,36.0,,,,,88,note_on,,0.0,36.0,0.0,24520,63.854166666666664
7667,1.0,,,,34.0,,,,,8,note_on,,112.0,34.0,112.0,24528,63.875
7668,1.0,,,,34.0,,,,,44,note_on,,0.0,34.0,0.0,24572,63.98958333333333
7669,1.0,,,,31.0,,,,,4,note_on,,112.0,31.0,112.0,24576,64.0
7670,1.0,,,,31.0,,,,,88,note_on,,0.0,31.0,0.0,24664,64.22916666666666
7671,1.0,,,,31.0,,,,,8,note_on,,112.0,31.0,112.0,24672,64.25
7672,1.0,,,,31.0,,,,,88,note_on,,0.0,31.0,0.0,24760,64.47916666666666
7673,1.0,,,,31.0,,,,,8,note_on,,112.0,31.0,112.0,24768,64.5
7674,1.0,,,,31.0,,,,,232,note_on,,0.0,31.0,0.0,25000,65.10416666666666
7675,1.0,,,,31.0,,,,,8,note_on,,112.0,31.0,112.0,25008,65.125
7676,1.0,,,,31.0,,,,,88,note_on,,0.0,31.0,0.0,25096,65.35416666666666
7677,1.0,,,,31.0,,,,,8,note_on,,112.0,31.0,112.0,25104,65.375
7678,1.0,,,,31.0,,,,,88,note_on,,0.0,31.0,0.0,25192,65.60416666666666
7679,1.0,,,,31.0,,,,,8,note_on,,112.0,31.0,112.0,25200,65.625
7680,1.0,,,,31.0,,,,,88,note_on,,0.0,31.0,0.0,25288,65.85416666666666
7681,1.0,,,,31.0,,,,,8,note_on,,112.0,31.0,112.0,25296,65.875
7682,1.0,,,,31.0,,,,,44,note_on,,0.0,31.0,0.0,25340,65.98958333333333
7683,1.0,,,,31.0,,,,,3076,note_on,,112.0,31.0,112.0,28416,74.0
7684,1.0,,,,31.0,,,,,92,note_on,,0.0,31.0,0.0,28508,74.23958333333333
7685,1.0,,,,31.0,,,,,4,note_on,,112.0,31.0,112.0,28512,74.25
7686,1.0,,,,31.0,,,,,92,note_on,,0.0,31.0,0.0,28604,74.48958333333333
7687,1.0,,,,43.0,,,,,4,note_on,,112.0,43.0,112.0,28608,74.5
7688,1.0,,,,43.0,,,,,236,note_on,,0.0,43.0,0.0,28844,75.11458333333333
7689,1.0,,,,31.0,,,,,4,note_on,,112.0,31.0,112.0,28848,75.125
7690,1.0,,,,31.0,,,,,88,note_on,,0.0,31.0,0.0,28936,75.35416666666666
7691,1.0,,,,31.0,,,,,8,note_on,,112.0,31.0,112.0,28944,75.375
7692,1.0,,,,31.0,,,,,88,note_on,,0.0,31.0,0.0,29032,75.60416666666666
7693,1.0,,,,31.0,,,,,8,note_on,,112.0,31.0,112.0,29040,75.625
7694,1.0,,,,31.0,,,,,88,note_on,,0.0,31.0,0.0,29128,75.85416666666666
7695,1.0,,,,31.0,,,,,8,note_on,,112.0,31.0,112.0,29136,75.875
7696,1.0,,,,31.0,,,,,44,note_on,,0.0,31.0,0.0,29180,75.98958333333333
7697,1.0,,,,29.0,,,,,4,note_on,,112.0,29.0,112.0,29184,76.0
7698,1.0,,,,29.0,,,,,88,note_on,,0.0,29.0,0.0,29272,76.22916666666666
7699,1.0,,,,29.0,,,,,8,note_on,,112.0,29.0,112.0,29280,76.25
7700,1.0,,,,29.0,,,,,88,note_on,,0.0,29.0,0.0,29368,76.47916666666666
7701,1.0,,,,29.0,,,,,8,note_on,,112.0,29.0,112.0,29376,76.5
7702,1.0,,,,29.0,,,,,232,note_on,,0.0,29.0,0.0,29608,77.10416666666666
7703,1.0,,,,29.0,,,,,8,note_on,,112.0,29.0,112.0,29616,77.125
7704,1.0,,,,29.0,,,,,88,note_on,,0.0,29.0,0.0,29704,77.35416666666666
7705,1.0,,,,29.0,,,,,8,note_on,,112.0,29.0,112.0,29712,77.375
7706,1.0,,,,29.0,,,,,88,note_on,,0.0,29.0,0.0,29800,77.60416666666666
7707,1.0,,,,29.0,,,,,8,note_on,,112.0,29.0,112.0,29808,77.625
7708,1.0,,,,29.0,,,,,88,note_on,,0.0,29.0,0.0,29896,77.85416666666666
7709,1.0,,,,29.0,,,,,8,note_on,,112.0,29.0,112.0,29904,77.875
7710,1.0,,,,29.0,,,,,44,note_on,,0.0,29.0,0.0,29948,77.98958333333333
7711,1.0,,,,36.0,,,,,4,note_on,,112.0,36.0,112.0,29952,78.0
7712,1.0,,,,36.0,,,,,88,note_on,,0.0,36.0,0.0,30040,78.22916666666666
7713,1.0,,,,36.0,,,,,8,note_on,,112.0,36.0,112.0,30048,78.25
7714,1.0,,,,36.0,,,,,88,note_on,,0.0,36.0,0.0,30136,78.47916666666666
7715,1.0,,,,36.0,,,,,8,note_on,,112.0,36.0,112.0,30144,78.5
7716,1.0,,,,36.0,,,,,232,note_on,,0.0,36.0,0.0,30376,79.10416666666666
7717,1.0,,,,36.0,,,,,8,note_on,,112.0,36.0,112.0,30384,79.125
7718,1.0,,,,36.0,,,,,88,note_on,,0.0,36.0,0.0,30472,79.35416666666666
7719,1.0,,,,36.0,,,,,8,note_on,,112.0,36.0,112.0,30480,79.375
7720,1.0,,,,36.0,,,,,88,note_on,,0.0,36.0,0.0,30568,79.60416666666666
7721,1.0,,,,36.0,,,,,8,note_on,,112.0,36.0,112.0,30576,79.625
7722,1.0,,,,36.0,,,,,88,note_on,,0.0,36.0,0.0,30664,79.85416666666666
7723,1.0,,,,34.0,,,,,8,note_on,,112.0,34.0,112.0,30672,79.875
7724,1.0,,,,34.0,,,,,44,note_on,,0.0,34.0,0.0,30716,79.98958333333333
7725,1.0,,,,31.0,,,,,4,note_on,,112.0,31.0,112.0,30720,80.0
7726,1.0,,,,31.0,,,,,88,note_on,,0.0,31.0,0.0,30808,80.22916666666666
7727,1.0,,,,31.0,,,,,8,note_on,,112.0,31.0,112.0,30816,80.25
7728,1.0,,,,31.0,,,,,88,note_on,,0.0,31.0,0.0,30904,80.47916666666666
7729,1.0,,,,31.0,,,,,8,note_on,,112.0,31.0,112.0,30912,80.5
7730,1.0,,,,31.0,,,,,232,note_on,,0.0,31.0,0.0,31144,81.10416666666666
7731,1.0,,,,31.0,,,,,8,note_on,,112.0,31.0,112.0,31152,81.125
7732,1.0,,,,31.0,,,,,88,note_on,,0.0,31.0,0.0,31240,81.35416666666666
7733,1.0,,,,31.0,,,,,8,note_on,,112.0,31.0,112.0,31248,81.375
7734,1.0,,,,31.0,,,,,88,note_on,,0.0,31.0,0.0,31336,81.60416666666666
7735,1.0,,,,31.0,,,,,8,note_on,,112.0,31.0,112.0,31344,81.625
7736,1.0,,,,31.0,,,,,88,note_on,,0.0,31.0,0.0,31432,81.85416666666666
7737,1.0,,,,31.0,,,,,8,note_on,,112.0,31.0,112.0,31440,81.875
7738,1.0,,,,31.0,,,,,44,note_on,,0.0,31.0,0.0,31484,81.98958333333333
7739,1.0,,,,31.0,,,,,4,note_on,,112.0,31.0,112.0,31488,82.0
7740,1.0,,,,31.0,,,,,92,note_on,,0.0,31.0,0.0,31580,82.23958333333333
7741,1.0,,,,31.0,,,,,4,note_on,,112.0,31.0,112.0,31584,82.25
7742,1.0,,,,31.0,,,,,92,note_on,,0.0,31.0,0.0,31676,82.48958333333333
7743,1.0,,,,31.0,,,,,4,note_on,,112.0,31.0,112.0,31680,82.5
7744,1.0,,,,31.0,,,,,236,note_on,,0.0,31.0,0.0,31916,83.11458333333333
7745,1.0,,,,31.0,,,,,4,note_on,,112.0,31.0,112.0,31920,83.125
7746,1.0,,,,31.0,,,,,88,note_on,,0.0,31.0,0.0,32008,83.35416666666666
7747,1.0,,,,31.0,,,,,8,note_on,,112.0,31.0,112.0,32016,83.375
7748,1.0,,,,31.0,,,,,88,note_on,,0.0,31.0,0.0,32104,83.60416666666666
7749,1.0,,,,31.0,,,,,8,note_on,,112.0,31.0,112.0,32112,83.625
7750,1.0,,,,31.0,,,,,88,note_on,,0.0,31.0,0.0,32200,83.85416666666666
7751,1.0,,,,31.0,,,,,8,note_on,,112.0,31.0,112.0,32208,83.875
7752,1.0,,,,31.0,,,,,44,note_on,,0.0,31.0,0.0,32252,83.98958333333333
7753,1.0,,,,29.0,,,,,4,note_on,,112.0,29.0,112.0,32256,84.0
7754,1.0,,,,29.0,,,,,88,note_on,,0.0,29.0,0.0,32344,84.22916666666666
7755,1.0,,,,29.0,,,,,8,note_on,,112.0,29.0,112.0,32352,84.25
7756,1.0,,,,29.0,,,,,88,note_on,,0.0,29.0,0.0,32440,84.47916666666666
7757,1.0,,,,29.0,,,,,8,note_on,,112.0,29.0,112.0,32448,84.5
7758,1.0,,,,29.0,,,,,232,note_on,,0.0,29.0,0.0,32680,85.10416666666666
7759,1.0,,,,29.0,,,,,8,note_on,,112.0,29.0,112.0,32688,85.125
7760,1.0,,,,29.0,,,,,88,note_on,,0.0,29.0,0.0,32776,85.35416666666666
7761,1.0,,,,29.0,,,,,8,note_on,,112.0,29.0,112.0,32784,85.375
7762,1.0,,,,29.0,,,,,88,note_on,,0.0,29.0,0.0,32872,85.60416666666666
7763,1.0,,,,29.0,,,,,8,note_on,,112.0,29.0,112.0,32880,85.625
7764,1.0,,,,29.0,,,,,88,note_on,,0.0,29.0,0.0,32968,85.85416666666666
7765,1.0,,,,29.0,,,,,8,note_on,,112.0,29.0,112.0,32976,85.875
7766,1.0,,,,29.0,,,,,44,note_on,,0.0,29.0,0.0,33020,85.98958333333333
7767,1.0,,,,36.0,,,,,4,note_on,,112.0,36.0,112.0,33024,86.0
7768,1.0,,,,36.0,,,,,88,note_on,,0.0,36.0,0.0,33112,86.22916666666666
7769,1.0,,,,36.0,,,,,8,note_on,,112.0,36.0,112.0,33120,86.25
7770,1.0,,,,36.0,,,,,88,note_on,,0.0,36.0,0.0,33208,86.47916666666666
7771,1.0,,,,36.0,,,,,8,note_on,,112.0,36.0,112.0,33216,86.5
7772,1.0,,,,36.0,,,,,232,note_on,,0.0,36.0,0.0,33448,87.10416666666666
7773,1.0,,,,36.0,,,,,8,note_on,,112.0,36.0,112.0,33456,87.125
7774,1.0,,,,36.0,,,,,88,note_on,,0.0,36.0,0.0,33544,87.35416666666666
7775,1.0,,,,36.0,,,,,8,note_on,,112.0,36.0,112.0,33552,87.375
7776,1.0,,,,36.0,,,,,88,note_on,,0.0,36.0,0.0,33640,87.60416666666666
7777,1.0,,,,36.0,,,,,8,note_on,,112.0,36.0,112.0,33648,87.625
7778,1.0,,,,36.0,,,,,88,note_on,,0.0,36.0,0.0,33736,87.85416666666666
7779,1.0,,,,34.0,,,,,8,note_on,,112.0,34.0,112.0,33744,87.875
7780,1.0,,,,34.0,,,,,44,note_on,,0.0,34.0,0.0,33788,87.98958333333333
7781,1.0,,,,31.0,,,,,4,note_on,,112.0,31.0,112.0,33792,88.0
7782,1.0,,,,31.0,,,,,88,note_on,,0.0,31.0,0.0,33880,88.22916666666666
7783,1.0,,,,31.0,,,,,8,note_on,,112.0,31.0,112.0,33888,88.25
7784,1.0,,,,31.0,,,,,88,note_on,,0.0,31.0,0.0,33976,88.47916666666666
7785,1.0,,,,31.0,,,,,8,note_on,,112.0,31.0,112.0,33984,88.5
7786,1.0,,,,31.0,,,,,232,note_on,,0.0,31.0,0.0,34216,89.10416666666666
7787,1.0,,,,31.0,,,,,8,note_on,,112.0,31.0,112.0,34224,89.125
7788,1.0,,,,31.0,,,,,88,note_on,,0.0,31.0,0.0,34312,89.35416666666666
7789,1.0,,,,31.0,,,,,8,note_on,,112.0,31.0,112.0,34320,89.375
7790,1.0,,,,31.0,,,,,88,note_on,,0.0,31.0,0.0,34408,89.60416666666666
7791,1.0,,,,31.0,,,,,8,note_on,,112.0,31.0,112.0,34416,89.625
7792,1.0,,,,31.0,,,,,88,note_on,,0.0,31.0,0.0,34504,89.85416666666666
7793,1.0,,,,31.0,,,,,8,note_on,,112.0,31.0,112.0,34512,89.875
7794,1.0,,,,31.0,,,,,44,note_on,,0.0,31.0,0.0,34556,89.98958333333333
7795,1.0,,,,31.0,,,,,4,note_on,,112.0,31.0,112.0,34560,90.0
7796,1.0,,,,31.0,,,,,92,note_on,,0.0,31.0,0.0,34652,90.23958333333333
7797,1.0,,,,31.0,,,,,4,note_on,,112.0,31.0,112.0,34656,90.25
7798,1.0,,,,31.0,,,,,92,note_on,,0.0,31.0,0.0,34748,90.48958333333333
7799,1.0,,,,31.0,,,,,4,note_on,,112.0,31.0,112.0,34752,90.5
7800,1.0,,,,31.0,,,,,236,note_on,,0.0,31.0,0.0,34988,91.11458333333333
7801,1.0,,,,31.0,,,,,4,note_on,,112.0,31.0,112.0,34992,91.125
7802,1.0,,,,31.0,,,,,88,note_on,,0.0,31.0,0.0,35080,91.35416666666666
7803,1.0,,,,31.0,,,,,8,note_on,,112.0,31.0,112.0,35088,91.375
7804,1.0,,,,31.0,,,,,88,note_on,,0.0,31.0,0.0,35176,91.60416666666666
7805,1.0,,,,31.0,,,,,8,note_on,,112.0,31.0,112.0,35184,91.625
7806,1.0,,,,31.0,,,,,88,note_on,,0.0,31.0,0.0,35272,91.85416666666666
7807,1.0,,,,31.0,,,,,8,note_on,,112.0,31.0,112.0,35280,91.875
7808,1.0,,,,31.0,,,,,44,note_on,,0.0,31.0,0.0,35324,91.98958333333333
7809,1.0,,,,29.0,,,,,4,note_on,,112.0,29.0,112.0,35328,92.0
7810,1.0,,,,29.0,,,,,88,note_on,,0.0,29.0,0.0,35416,92.22916666666666
7811,1.0,,,,29.0,,,,,8,note_on,,112.0,29.0,112.0,35424,92.25
7812,1.0,,,,29.0,,,,,88,note_on,,0.0,29.0,0.0,35512,92.47916666666666
7813,1.0,,,,29.0,,,,,8,note_on,,112.0,29.0,112.0,35520,92.5
7814,1.0,,,,29.0,,,,,232,note_on,,0.0,29.0,0.0,35752,93.10416666666666
7815,1.0,,,,29.0,,,,,8,note_on,,112.0,29.0,112.0,35760,93.125
7816,1.0,,,,29.0,,,,,88,note_on,,0.0,29.0,0.0,35848,93.35416666666666
7817,1.0,,,,29.0,,,,,8,note_on,,112.0,29.0,112.0,35856,93.375
7818,1.0,,,,29.0,,,,,88,note_on,,0.0,29.0,0.0,35944,93.60416666666666
7819,1.0,,,,29.0,,,,,8,note_on,,112.0,29.0,112.0,35952,93.625
7820,1.0,,,,29.0,,,,,88,note_on,,0.0,29.0,0.0,36040,93.85416666666666
7821,1.0,,,,29.0,,,,,8,note_on,,112.0,29.0,112.0,36048,93.875
7822,1.0,,,,29.0,,,,,44,note_on,,0.0,29.0,0.0,36092,93.98958333333333
7823,1.0,,,,36.0,,,,,4,note_on,,112.0,36.0,112.0,36096,94.0
7824,1.0,,,,36.0,,,,,88,note_on,,0.0,36.0,0.0,36184,94.22916666666666
7825,1.0,,,,36.0,,,,,8,note_on,,112.0,36.0,112.0,36192,94.25
7826,1.0,,,,36.0,,,,,88,note_on,,0.0,36.0,0.0,36280,94.47916666666666
7827,1.0,,,,36.0,,,,,8,note_on,,112.0,36.0,112.0,36288,94.5
7828,1.0,,,,36.0,,,,,232,note_on,,0.0,36.0,0.0,36520,95.10416666666666
7829,1.0,,,,36.0,,,,,8,note_on,,112.0,36.0,112.0,36528,95.125
7830,1.0,,,,36.0,,,,,88,note_on,,0.0,36.0,0.0,36616,95.35416666666666
7831,1.0,,,,36.0,,,,,8,note_on,,112.0,36.0,112.0,36624,95.375
7832,1.0,,,,36.0,,,,,88,note_on,,0.0,36.0,0.0,36712,95.60416666666666
7833,1.0,,,,36.0,,,,,8,note_on,,112.0,36.0,112.0,36720,95.625
7834,1.0,,,,36.0,,,,,88,note_on,,0.0,36.0,0.0,36808,95.85416666666666
7835,1.0,,,,34.0,,,,,8,note_on,,112.0,34.0,112.0,36816,95.875
7836,1.0,,,,34.0,,,,,44,note_on,,0.0,34.0,0.0,36860,95.98958333333333
7837,1.0,,,,31.0,,,,,772,note_on,,112.0,31.0,112.0,37632,98.0
7838,1.0,,,,31.0,,,,,92,note_on,,0.0,31.0,0.0,37724,98.23958333333333
7839,1.0,,,,31.0,,,,,4,note_on,,112.0,31.0,112.0,37728,98.25
7840,1.0,,,,31.0,,,,,92,note_on,,0.0,31.0,0.0,37820,98.48958333333333
7841,1.0,,,,31.0,,,,,4,note_on,,112.0,31.0,112.0,37824,98.5
7842,1.0,,,,31.0,,,,,236,note_on,,0.0,31.0,0.0,38060,99.11458333333333
7843,1.0,,,,31.0,,,,,4,note_on,,112.0,31.0,112.0,38064,99.125
7844,1.0,,,,31.0,,,,,88,note_on,,0.0,31.0,0.0,38152,99.35416666666666
7845,1.0,,,,31.0,,,,,8,note_on,,112.0,31.0,112.0,38160,99.375
7846,1.0,,,,31.0,,,,,88,note_on,,0.0,31.0,0.0,38248,99.60416666666666
7847,1.0,,,,31.0,,,,,8,note_on,,112.0,31.0,112.0,38256,99.625
7848,1.0,,,,31.0,,,,,88,note_on,,0.0,31.0,0.0,38344,99.85416666666666
7849,1.0,,,,31.0,,,,,8,note_on,,112.0,31.0,112.0,38352,99.875
7850,1.0,,,,31.0,,,,,44,note_on,,0.0,31.0,0.0,38396,99.98958333333333
7851,1.0,,,,29.0,,,,,4,note_on,,112.0,29.0,112.0,38400,100.0
7852,1.0,,,,29.0,,,,,88,note_on,,0.0,29.0,0.0,38488,100.22916666666666
7853,1.0,,,,29.0,,,,,8,note_on,,112.0,29.0,112.0,38496,100.25
7854,1.0,,,,29.0,,,,,88,note_on,,0.0,29.0,0.0,38584,100.47916666666666
7855,1.0,,,,29.0,,,,,8,note_on,,112.0,29.0,112.0,38592,100.5
7856,1.0,,,,29.0,,,,,232,note_on,,0.0,29.0,0.0,38824,101.10416666666666
7857,1.0,,,,29.0,,,,,8,note_on,,112.0,29.0,112.0,38832,101.125
7858,1.0,,,,29.0,,,,,88,note_on,,0.0,29.0,0.0,38920,101.35416666666666
7859,1.0,,,,29.0,,,,,8,note_on,,112.0,29.0,112.0,38928,101.375
7860,1.0,,,,29.0,,,,,88,note_on,,0.0,29.0,0.0,39016,101.60416666666666
7861,1.0,,,,29.0,,,,,8,note_on,,112.0,29.0,112.0,39024,101.625
7862,1.0,,,,29.0,,,,,88,note_on,,0.0,29.0,0.0,39112,101.85416666666666
7863,1.0,,,,29.0,,,,,8,note_on,,112.0,29.0,112.0,39120,101.875
7864,1.0,,,,29.0,,,,,44,note_on,,0.0,29.0,0.0,39164,101.98958333333333
7865,1.0,,,,36.0,,,,,4,note_on,,112.0,36.0,112.0,39168,102.0
7866,1.0,,,,36.0,,,,,88,note_on,,0.0,36.0,0.0,39256,102.22916666666666
7867,1.0,,,,36.0,,,,,8,note_on,,112.0,36.0,112.0,39264,102.25
7868,1.0,,,,36.0,,,,,88,note_on,,0.0,36.0,0.0,39352,102.47916666666666
7869,1.0,,,,36.0,,,,,8,note_on,,112.0,36.0,112.0,39360,102.5
7870,1.0,,,,36.0,,,,,232,note_on,,0.0,36.0,0.0,39592,103.10416666666666
7871,1.0,,,,36.0,,,,,8,note_on,,112.0,36.0,112.0,39600,103.125
7872,1.0,,,,36.0,,,,,88,note_on,,0.0,36.0,0.0,39688,103.35416666666666
7873,1.0,,,,36.0,,,,,8,note_on,,112.0,36.0,112.0,39696,103.375
7874,1.0,,,,36.0,,,,,88,note_on,,0.0,36.0,0.0,39784,103.60416666666666
7875,1.0,,,,36.0,,,,,8,note_on,,112.0,36.0,112.0,39792,103.625
7876,1.0,,,,36.0,,,,,88,note_on,,0.0,36.0,0.0,39880,103.85416666666666
7877,1.0,,,,34.0,,,,,8,note_on,,112.0,34.0,112.0,39888,103.875
7878,1.0,,,,34.0,,,,,44,note_on,,0.0,34.0,0.0,39932,103.98958333333333
7879,1.0,,,,31.0,,,,,4,note_on,,112.0,31.0,112.0,39936,104.0
7880,1.0,,,,31.0,,,,,88,note_on,,0.0,31.0,0.0,40024,104.22916666666666
7881,1.0,,,,31.0,,,,,8,note_on,,112.0,31.0,112.0,40032,104.25
7882,1.0,,,,31.0,,,,,88,note_on,,0.0,31.0,0.0,40120,104.47916666666666
7883,1.0,,,,31.0,,,,,8,note_on,,112.0,31.0,112.0,40128,104.5
7884,1.0,,,,31.0,,,,,232,note_on,,0.0,31.0,0.0,40360,105.10416666666666
7885,1.0,,,,31.0,,,,,8,note_on,,112.0,31.0,112.0,40368,105.125
7886,1.0,,,,31.0,,,,,88,note_on,,0.0,31.0,0.0,40456,105.35416666666666
7887,1.0,,,,31.0,,,,,8,note_on,,112.0,31.0,112.0,40464,105.375
7888,1.0,,,,31.0,,,,,88,note_on,,0.0,31.0,0.0,40552,105.60416666666666
7889,1.0,,,,31.0,,,,,8,note_on,,112.0,31.0,112.0,40560,105.625
7890,1.0,,,,31.0,,,,,88,note_on,,0.0,31.0,0.0,40648,105.85416666666666
7891,1.0,,,,31.0,,,,,8,note_on,,112.0,31.0,112.0,40656,105.875
7892,1.0,,,,31.0,,,,,44,note_on,,0.0,31.0,0.0,40700,105.98958333333333
7893,1.0,,,,31.0,,,,,4,note_on,,112.0,31.0,112.0,40704,106.0
7894,1.0,,,,31.0,,,,,92,note_on,,0.0,31.0,0.0,40796,106.23958333333333
7895,1.0,,,,31.0,,,,,4,note_on,,112.0,31.0,112.0,40800,106.25
7896,1.0,,,,31.0,,,,,92,note_on,,0.0,31.0,0.0,40892,106.48958333333333
7897,1.0,,,,31.0,,,,,4,note_on,,112.0,31.0,112.0,40896,106.5
7898,1.0,,,,31.0,,,,,236,note_on,,0.0,31.0,0.0,41132,107.11458333333333
7899,1.0,,,,31.0,,,,,4,note_on,,112.0,31.0,112.0,41136,107.125
7900,1.0,,,,31.0,,,,,88,note_on,,0.0,31.0,0.0,41224,107.35416666666666
7901,1.0,,,,31.0,,,,,8,note_on,,112.0,31.0,112.0,41232,107.375
7902,1.0,,,,31.0,,,,,88,note_on,,0.0,31.0,0.0,41320,107.60416666666666
7903,1.0,,,,31.0,,,,,8,note_on,,112.0,31.0,112.0,41328,107.625
7904,1.0,,,,31.0,,,,,88,note_on,,0.0,31.0,0.0,41416,107.85416666666666
7905,1.0,,,,31.0,,,,,8,note_on,,112.0,31.0,112.0,41424,107.875
7906,1.0,,,,31.0,,,,,44,note_on,,0.0,31.0,0.0,41468,107.98958333333333
7907,1.0,,,,29.0,,,,,4,note_on,,112.0,29.0,112.0,41472,108.0
7908,1.0,,,,29.0,,,,,88,note_on,,0.0,29.0,0.0,41560,108.22916666666666
7909,1.0,,,,29.0,,,,,8,note_on,,112.0,29.0,112.0,41568,108.25
7910,1.0,,,,29.0,,,,,88,note_on,,0.0,29.0,0.0,41656,108.47916666666666
7911,1.0,,,,29.0,,,,,8,note_on,,112.0,29.0,112.0,41664,108.5
7912,1.0,,,,29.0,,,,,232,note_on,,0.0,29.0,0.0,41896,109.10416666666666
7913,1.0,,,,29.0,,,,,8,note_on,,112.0,29.0,112.0,41904,109.125
7914,1.0,,,,29.0,,,,,88,note_on,,0.0,29.0,0.0,41992,109.35416666666666
7915,1.0,,,,29.0,,,,,8,note_on,,112.0,29.0,112.0,42000,109.375
7916,1.0,,,,29.0,,,,,88,note_on,,0.0,29.0,0.0,42088,109.60416666666666
7917,1.0,,,,29.0,,,,,8,note_on,,112.0,29.0,112.0,42096,109.625
7918,1.0,,,,29.0,,,,,88,note_on,,0.0,29.0,0.0,42184,109.85416666666666
7919,1.0,,,,29.0,,,,,8,note_on,,112.0,29.0,112.0,42192,109.875
7920,1.0,,,,29.0,,,,,44,note_on,,0.0,29.0,0.0,42236,109.98958333333333
7921,1.0,,,,36.0,,,,,4,note_on,,112.0,36.0,112.0,42240,110.0
7922,1.0,,,,36.0,,,,,88,note_on,,0.0,36.0,0.0,42328,110.22916666666666
7923,1.0,,,,36.0,,,,,8,note_on,,112.0,36.0,112.0,42336,110.25
7924,1.0,,,,36.0,,,,,88,note_on,,0.0,36.0,0.0,42424,110.47916666666666
7925,1.0,,,,36.0,,,,,8,note_on,,112.0,36.0,112.0,42432,110.5
7926,1.0,,,,36.0,,,,,232,note_on,,0.0,36.0,0.0,42664,111.10416666666666
7927,1.0,,,,36.0,,,,,8,note_on,,112.0,36.0,112.0,42672,111.125
7928,1.0,,,,36.0,,,,,88,note_on,,0.0,36.0,0.0,42760,111.35416666666666
7929,1.0,,,,36.0,,,,,8,note_on,,112.0,36.0,112.0,42768,111.375
7930,1.0,,,,36.0,,,,,88,note_on,,0.0,36.0,0.0,42856,111.60416666666666
7931,1.0,,,,36.0,,,,,8,note_on,,112.0,36.0,112.0,42864,111.625
7932,1.0,,,,36.0,,,,,88,note_on,,0.0,36.0,0.0,42952,111.85416666666666
7933,1.0,,,,34.0,,,,,8,note_on,,112.0,34.0,112.0,42960,111.875
7934,1.0,,,,34.0,,,,,44,note_on,,0.0,34.0,0.0,43004,111.98958333333333
7935,1.0,,,,31.0,,,,,4,note_on,,112.0,31.0,112.0,43008,112.0
7936,1.0,,,,31.0,,,,,88,note_on,,0.0,31.0,0.0,43096,112.22916666666666
7937,1.0,,,,31.0,,,,,8,note_on,,112.0,31.0,112.0,43104,112.25
7938,1.0,,,,31.0,,,,,88,note_on,,0.0,31.0,0.0,43192,112.47916666666666
7939,1.0,,,,31.0,,,,,8,note_on,,112.0,31.0,112.0,43200,112.5
7940,1.0,,,,31.0,,,,,232,note_on,,0.0,31.0,0.0,43432,113.10416666666666
7941,1.0,,,,31.0,,,,,8,note_on,,112.0,31.0,112.0,43440,113.125
7942,1.0,,,,31.0,,,,,88,note_on,,0.0,31.0,0.0,43528,113.35416666666666
7943,1.0,,,,31.0,,,,,8,note_on,,112.0,31.0,112.0,43536,113.375
7944,1.0,,,,31.0,,,,,88,note_on,,0.0,31.0,0.0,43624,113.60416666666666
7945,1.0,,,,31.0,,,,,8,note_on,,112.0,31.0,112.0,43632,113.625
7946,1.0,,,,31.0,,,,,88,note_on,,0.0,31.0,0.0,43720,113.85416666666666
7947,1.0,,,,31.0,,,,,8,note_on,,112.0,31.0,112.0,43728,113.875
7948,1.0,,,,31.0,,,,,44,note_on,,0.0,31.0,0.0,43772,113.98958333333333
7949,1.0,,,,31.0,,,,,6148,note_on,,112.0,31.0,112.0,49920,130.0
7950,1.0,,,,31.0,,,,,92,note_on,,0.0,31.0,0.0,50012,130.23958333333331
7951,1.0,,,,31.0,,,,,4,note_on,,112.0,31.0,112.0,50016,130.25
7952,1.0,,,,31.0,,,,,92,note_on,,0.0,31.0,0.0,50108,130.48958333333331
7953,1.0,,,,43.0,,,,,4,note_on,,112.0,43.0,112.0,50112,130.5
7954,1.0,,,,43.0,,,,,236,note_on,,0.0,43.0,0.0,50348,131.11458333333331
7955,1.0,,,,31.0,,,,,4,note_on,,112.0,31.0,112.0,50352,131.125
7956,1.0,,,,31.0,,,,,88,note_on,,0.0,31.0,0.0,50440,131.35416666666666
7957,1.0,,,,31.0,,,,,8,note_on,,112.0,31.0,112.0,50448,131.375
7958,1.0,,,,31.0,,,,,88,note_on,,0.0,31.0,0.0,50536,131.60416666666666
7959,1.0,,,,31.0,,,,,8,note_on,,112.0,31.0,112.0,50544,131.625
7960,1.0,,,,31.0,,,,,88,note_on,,0.0,31.0,0.0,50632,131.85416666666666
7961,1.0,,,,31.0,,,,,8,note_on,,112.0,31.0,112.0,50640,131.875
7962,1.0,,,,31.0,,,,,44,note_on,,0.0,31.0,0.0,50684,131.98958333333331
7963,1.0,,,,29.0,,,,,4,note_on,,112.0,29.0,112.0,50688,132.0
7964,1.0,,,,29.0,,,,,88,note_on,,0.0,29.0,0.0,50776,132.22916666666666
7965,1.0,,,,29.0,,,,,8,note_on,,112.0,29.0,112.0,50784,132.25
7966,1.0,,,,29.0,,,,,88,note_on,,0.0,29.0,0.0,50872,132.47916666666666
7967,1.0,,,,29.0,,,,,8,note_on,,112.0,29.0,112.0,50880,132.5
7968,1.0,,,,29.0,,,,,232,note_on,,0.0,29.0,0.0,51112,133.10416666666666
7969,1.0,,,,29.0,,,,,8,note_on,,112.0,29.0,112.0,51120,133.125
7970,1.0,,,,29.0,,,,,88,note_on,,0.0,29.0,0.0,51208,133.35416666666666
7971,1.0,,,,29.0,,,,,8,note_on,,112.0,29.0,112.0,51216,133.375
7972,1.0,,,,29.0,,,,,88,note_on,,0.0,29.0,0.0,51304,133.60416666666666
7973,1.0,,,,29.0,,,,,8,note_on,,112.0,29.0,112.0,51312,133.625
7974,1.0,,,,29.0,,,,,88,note_on,,0.0,29.0,0.0,51400,133.85416666666666
7975,1.0,,,,29.0,,,,,8,note_on,,112.0,29.0,112.0,51408,133.875
7976,1.0,,,,29.0,,,,,44,note_on,,0.0,29.0,0.0,51452,133.98958333333331
7977,1.0,,,,36.0,,,,,4,note_on,,112.0,36.0,112.0,51456,134.0
7978,1.0,,,,36.0,,,,,88,note_on,,0.0,36.0,0.0,51544,134.22916666666666
7979,1.0,,,,36.0,,,,,8,note_on,,112.0,36.0,112.0,51552,134.25
7980,1.0,,,,36.0,,,,,88,note_on,,0.0,36.0,0.0,51640,134.47916666666666
7981,1.0,,,,36.0,,,,,8,note_on,,112.0,36.0,112.0,51648,134.5
7982,1.0,,,,36.0,,,,,232,note_on,,0.0,36.0,0.0,51880,135.10416666666666
7983,1.0,,,,36.0,,,,,8,note_on,,112.0,36.0,112.0,51888,135.125
7984,1.0,,,,36.0,,,,,88,note_on,,0.0,36.0,0.0,51976,135.35416666666666
7985,1.0,,,,36.0,,,,,8,note_on,,112.0,36.0,112.0,51984,135.375
7986,1.0,,,,36.0,,,,,88,note_on,,0.0,36.0,0.0,52072,135.60416666666666
7987,1.0,,,,36.0,,,,,8,note_on,,112.0,36.0,112.0,52080,135.625
7988,1.0,,,,36.0,,,,,88,note_on,,0.0,36.0,0.0,52168,135.85416666666666
7989,1.0,,,,34.0,,,,,8,note_on,,112.0,34.0,112.0,52176,135.875
7990,1.0,,,,34.0,,,,,44,note_on,,0.0,34.0,0.0,52220,135.98958333333331
7991,1.0,,,,31.0,,,,,4,note_on,,112.0,31.0,112.0,52224,136.0
7992,1.0,,,,31.0,,,,,88,note_on,,0.0,31.0,0.0,52312,136.22916666666666
7993,1.0,,,,31.0,,,,,8,note_on,,112.0,31.0,112.0,52320,136.25
7994,1.0,,,,31.0,,,,,88,note_on,,0.0,31.0,0.0,52408,136.47916666666666
7995,1.0,,,,31.0,,,,,8,note_on,,112.0,31.0,112.0,52416,136.5
7996,1.0,,,,31.0,,,,,232,note_on,,0.0,31.0,0.0,52648,137.10416666666666
7997,1.0,,,,31.0,,,,,8,note_on,,112.0,31.0,112.0,52656,137.125
7998,1.0,,,,31.0,,,,,88,note_on,,0.0,31.0,0.0,52744,137.35416666666666
7999,1.0,,,,31.0,,,,,8,note_on,,112.0,31.0,112.0,52752,137.375
8000,1.0,,,,31.0,,,,,88,note_on,,0.0,31.0,0.0,52840,137.60416666666666
8001,1.0,,,,31.0,,,,,8,note_on,,112.0,31.0,112.0,52848,137.625
8002,1.0,,,,31.0,,,,,88,note_on,,0.0,31.0,0.0,52936,137.85416666666666
8003,1.0,,,,31.0,,,,,8,note_on,,112.0,31.0,112.0,52944,137.875
8004,1.0,,,,31.0,,,,,44,note_on,,0.0,31.0,0.0,52988,137.98958333333331
8005,1.0,,,,31.0,,,,,4,note_on,,112.0,31.0,112.0,52992,138.0
8006,1.0,,,,31.0,,,,,92,note_on,,0.0,31.0,0.0,53084,138.23958333333331
8007,1.0,,,,31.0,,,,,4,note_on,,112.0,31.0,112.0,53088,138.25
8008,1.0,,,,31.0,,,,,92,note_on,,0.0,31.0,0.0,53180,138.48958333333331
8009,1.0,,,,31.0,,,,,4,note_on,,112.0,31.0,112.0,53184,138.5
8010,1.0,,,,31.0,,,,,236,note_on,,0.0,31.0,0.0,53420,139.11458333333331
8011,1.0,,,,31.0,,,,,4,note_on,,112.0,31.0,112.0,53424,139.125
8012,1.0,,,,31.0,,,,,88,note_on,,0.0,31.0,0.0,53512,139.35416666666666
8013,1.0,,,,31.0,,,,,8,note_on,,112.0,31.0,112.0,53520,139.375
8014,1.0,,,,31.0,,,,,88,note_on,,0.0,31.0,0.0,53608,139.60416666666666
8015,1.0,,,,31.0,,,,,8,note_on,,112.0,31.0,112.0,53616,139.625
8016,1.0,,,,31.0,,,,,88,note_on,,0.0,31.0,0.0,53704,139.85416666666666
8017,1.0,,,,31.0,,,,,8,note_on,,112.0,31.0,112.0,53712,139.875
8018,1.0,,,,31.0,,,,,44,note_on,,0.0,31.0,0.0,53756,139.98958333333331
8019,1.0,,,,29.0,,,,,4,note_on,,112.0,29.0,112.0,53760,140.0
8020,1.0,,,,29.0,,,,,88,note_on,,0.0,29.0,0.0,53848,140.22916666666666
8021,1.0,,,,29.0,,,,,8,note_on,,112.0,29.0,112.0,53856,140.25
8022,1.0,,,,29.0,,,,,88,note_on,,0.0,29.0,0.0,53944,140.47916666666666
8023,1.0,,,,29.0,,,,,8,note_on,,112.0,29.0,112.0,53952,140.5
8024,1.0,,,,29.0,,,,,232,note_on,,0.0,29.0,0.0,54184,141.10416666666666
8025,1.0,,,,29.0,,,,,8,note_on,,112.0,29.0,112.0,54192,141.125
8026,1.0,,,,29.0,,,,,88,note_on,,0.0,29.0,0.0,54280,141.35416666666666
8027,1.0,,,,29.0,,,,,8,note_on,,112.0,29.0,112.0,54288,141.375
8028,1.0,,,,29.0,,,,,88,note_on,,0.0,29.0,0.0,54376,141.60416666666666
8029,1.0,,,,29.0,,,,,8,note_on,,112.0,29.0,112.0,54384,141.625
8030,1.0,,,,29.0,,,,,88,note_on,,0.0,29.0,0.0,54472,141.85416666666666
8031,1.0,,,,29.0,,,,,8,note_on,,112.0,29.0,112.0,54480,141.875
8032,1.0,,,,29.0,,,,,44,note_on,,0.0,29.0,0.0,54524,141.98958333333331
8033,1.0,,,,36.0,,,,,4,note_on,,112.0,36.0,112.0,54528,142.0
8034,1.0,,,,36.0,,,,,88,note_on,,0.0,36.0,0.0,54616,142.22916666666666
8035,1.0,,,,36.0,,,,,8,note_on,,112.0,36.0,112.0,54624,142.25
8036,1.0,,,,36.0,,,,,88,note_on,,0.0,36.0,0.0,54712,142.47916666666666
8037,1.0,,,,36.0,,,,,8,note_on,,112.0,36.0,112.0,54720,142.5
8038,1.0,,,,36.0,,,,,232,note_on,,0.0,36.0,0.0,54952,143.10416666666666
8039,1.0,,,,36.0,,,,,8,note_on,,112.0,36.0,112.0,54960,143.125
8040,1.0,,,,36.0,,,,,88,note_on,,0.0,36.0,0.0,55048,143.35416666666666
8041,1.0,,,,36.0,,,,,8,note_on,,112.0,36.0,112.0,55056,143.375
8042,1.0,,,,36.0,,,,,88,note_on,,0.0,36.0,0.0,55144,143.60416666666666
8043,1.0,,,,36.0,,,,,8,note_on,,112.0,36.0,112.0,55152,143.625
8044,1.0,,,,36.0,,,,,88,note_on,,0.0,36.0,0.0,55240,143.85416666666666
8045,1.0,,,,34.0,,,,,8,note_on,,112.0,34.0,112.0,55248,143.875
8046,1.0,,,,34.0,,,,,44,note_on,,0.0,34.0,0.0,55292,143.98958333333331
8047,1.0,,,,31.0,,,,,4,note_on,,112.0,31.0,112.0,55296,144.0
8048,1.0,,,,31.0,,,,,88,note_on,,0.0,31.0,0.0,55384,144.22916666666666
8049,1.0,,,,31.0,,,,,8,note_on,,112.0,31.0,112.0,55392,144.25
8050,1.0,,,,31.0,,,,,88,note_on,,0.0,31.0,0.0,55480,144.47916666666666
8051,1.0,,,,31.0,,,,,8,note_on,,112.0,31.0,112.0,55488,144.5
8052,1.0,,,,31.0,,,,,232,note_on,,0.0,31.0,0.0,55720,145.10416666666666
8053,1.0,,,,31.0,,,,,8,note_on,,112.0,31.0,112.0,55728,145.125
8054,1.0,,,,31.0,,,,,88,note_on,,0.0,31.0,0.0,55816,145.35416666666666
8055,1.0,,,,31.0,,,,,8,note_on,,112.0,31.0,112.0,55824,145.375
8056,1.0,,,,31.0,,,,,88,note_on,,0.0,31.0,0.0,55912,145.60416666666666
8057,1.0,,,,31.0,,,,,8,note_on,,112.0,31.0,112.0,55920,145.625
8058,1.0,,,,31.0,,,,,88,note_on,,0.0,31.0,0.0,56008,145.85416666666666
8059,1.0,,,,31.0,,,,,8,note_on,,112.0,31.0,112.0,56016,145.875
8060,1.0,,,,31.0,,,,,44,note_on,,0.0,31.0,0.0,56060,145.98958333333331
8061,1.0,,,,31.0,,,,,4,note_on,,112.0,31.0,112.0,56064,146.0
8062,1.0,,,,31.0,,,,,92,note_on,,0.0,31.0,0.0,56156,146.23958333333331
8063,1.0,,,,31.0,,,,,4,note_on,,112.0,31.0,112.0,56160,146.25
8064,1.0,,,,31.0,,,,,92,note_on,,0.0,31.0,0.0,56252,146.48958333333331
8065,1.0,,,,43.0,,,,,4,note_on,,112.0,43.0,112.0,56256,146.5
8066,1.0,,,,43.0,,,,,236,note_on,,0.0,43.0,0.0,56492,147.11458333333331
8067,1.0,,,,31.0,,,,,4,note_on,,112.0,31.0,112.0,56496,147.125
8068,1.0,,,,31.0,,,,,88,note_on,,0.0,31.0,0.0,56584,147.35416666666666
8069,1.0,,,,31.0,,,,,8,note_on,,112.0,31.0,112.0,56592,147.375
8070,1.0,,,,31.0,,,,,88,note_on,,0.0,31.0,0.0,56680,147.60416666666666
8071,1.0,,,,31.0,,,,,8,note_on,,112.0,31.0,112.0,56688,147.625
8072,1.0,,,,31.0,,,,,88,note_on,,0.0,31.0,0.0,56776,147.85416666666666
8073,1.0,,,,31.0,,,,,8,note_on,,112.0,31.0,112.0,56784,147.875
8074,1.0,,,,31.0,,,,,44,note_on,,0.0,31.0,0.0,56828,147.98958333333331
8075,1.0,,,,29.0,,,,,4,note_on,,112.0,29.0,112.0,56832,148.0
8076,1.0,,,,29.0,,,,,88,note_on,,0.0,29.0,0.0,56920,148.22916666666666
8077,1.0,,,,29.0,,,,,8,note_on,,112.0,29.0,112.0,56928,148.25
8078,1.0,,,,29.0,,,,,88,note_on,,0.0,29.0,0.0,57016,148.47916666666666
8079,1.0,,,,29.0,,,,,8,note_on,,112.0,29.0,112.0,57024,148.5
8080,1.0,,,,29.0,,,,,232,note_on,,0.0,29.0,0.0,57256,149.10416666666666
8081,1.0,,,,29.0,,,,,8,note_on,,112.0,29.0,112.0,57264,149.125
8082,1.0,,,,29.0,,,,,88,note_on,,0.0,29.0,0.0,57352,149.35416666666666
8083,1.0,,,,29.0,,,,,8,note_on,,112.0,29.0,112.0,57360,149.375
8084,1.0,,,,29.0,,,,,88,note_on,,0.0,29.0,0.0,57448,149.60416666666666
8085,1.0,,,,29.0,,,,,8,note_on,,112.0,29.0,112.0,57456,149.625
8086,1.0,,,,29.0,,,,,88,note_on,,0.0,29.0,0.0,57544,149.85416666666666
8087,1.0,,,,29.0,,,,,8,note_on,,112.0,29.0,112.0,57552,149.875
8088,1.0,,,,29.0,,,,,44,note_on,,0.0,29.0,0.0,57596,149.98958333333331
8089,1.0,,,,36.0,,,,,4,note_on,,112.0,36.0,112.0,57600,150.0
8090,1.0,,,,36.0,,,,,88,note_on,,0.0,36.0,0.0,57688,150.22916666666666
8091,1.0,,,,36.0,,,,,8,note_on,,112.0,36.0,112.0,57696,150.25
8092,1.0,,,,36.0,,,,,88,note_on,,0.0,36.0,0.0,57784,150.47916666666666
8093,1.0,,,,36.0,,,,,8,note_on,,112.0,36.0,112.0,57792,150.5
8094,1.0,,,,36.0,,,,,232,note_on,,0.0,36.0,0.0,58024,151.10416666666666
8095,1.0,,,,36.0,,,,,8,note_on,,112.0,36.0,112.0,58032,151.125
8096,1.0,,,,36.0,,,,,88,note_on,,0.0,36.0,0.0,58120,151.35416666666666
8097,1.0,,,,36.0,,,,,8,note_on,,112.0,36.0,112.0,58128,151.375
8098,1.0,,,,36.0,,,,,88,note_on,,0.0,36.0,0.0,58216,151.60416666666666
8099,1.0,,,,36.0,,,,,8,note_on,,112.0,36.0,112.0,58224,151.625
8100,1.0,,,,36.0,,,,,88,note_on,,0.0,36.0,0.0,58312,151.85416666666666
8101,1.0,,,,34.0,,,,,8,note_on,,112.0,34.0,112.0,58320,151.875
8102,1.0,,,,34.0,,,,,44,note_on,,0.0,34.0,0.0,58364,151.98958333333331
8103,1.0,,,,31.0,,,,,4,note_on,,112.0,31.0,112.0,58368,152.0
8104,1.0,,,,31.0,,,,,88,note_on,,0.0,31.0,0.0,58456,152.22916666666666
8105,1.0,,,,31.0,,,,,8,note_on,,112.0,31.0,112.0,58464,152.25
8106,1.0,,,,31.0,,,,,88,note_on,,0.0,31.0,0.0,58552,152.47916666666666
8107,1.0,,,,31.0,,,,,8,note_on,,112.0,31.0,112.0,58560,152.5
8108,1.0,,,,31.0,,,,,232,note_on,,0.0,31.0,0.0,58792,153.10416666666666
8109,1.0,,,,31.0,,,,,8,note_on,,112.0,31.0,112.0,58800,153.125
8110,1.0,,,,31.0,,,,,88,note_on,,0.0,31.0,0.0,58888,153.35416666666666
8111,1.0,,,,31.0,,,,,8,note_on,,112.0,31.0,112.0,58896,153.375
8112,1.0,,,,31.0,,,,,88,note_on,,0.0,31.0,0.0,58984,153.60416666666666
8113,1.0,,,,31.0,,,,,8,note_on,,112.0,31.0,112.0,58992,153.625
8114,1.0,,,,31.0,,,,,88,note_on,,0.0,31.0,0.0,59080,153.85416666666666
8115,1.0,,,,31.0,,,,,8,note_on,,112.0,31.0,112.0,59088,153.875
8116,1.0,,,,31.0,,,,,44,note_on,,0.0,31.0,0.0,59132,153.98958333333331
8117,1.0,,,,31.0,,,,,4,note_on,,112.0,31.0,112.0,59136,154.0
8118,1.0,,,,31.0,,,,,92,note_on,,0.0,31.0,0.0,59228,154.23958333333331
8119,1.0,,,,31.0,,,,,4,note_on,,112.0,31.0,112.0,59232,154.25
8120,1.0,,,,31.0,,,,,92,note_on,,0.0,31.0,0.0,59324,154.48958333333331
8121,1.0,,,,31.0,,,,,4,note_on,,112.0,31.0,112.0,59328,154.5
8122,1.0,,,,31.0,,,,,236,note_on,,0.0,31.0,0.0,59564,155.11458333333331
8123,1.0,,,,31.0,,,,,4,note_on,,112.0,31.0,112.0,59568,155.125
8124,1.0,,,,31.0,,,,,88,note_on,,0.0,31.0,0.0,59656,155.35416666666666
8125,1.0,,,,31.0,,,,,8,note_on,,112.0,31.0,112.0,59664,155.375
8126,1.0,,,,31.0,,,,,88,note_on,,0.0,31.0,0.0,59752,155.60416666666666
8127,1.0,,,,31.0,,,,,8,note_on,,112.0,31.0,112.0,59760,155.625
8128,1.0,,,,31.0,,,,,88,note_on,,0.0,31.0,0.0,59848,155.85416666666666
8129,1.0,,,,31.0,,,,,8,note_on,,112.0,31.0,112.0,59856,155.875
8130,1.0,,,,31.0,,,,,44,note_on,,0.0,31.0,0.0,59900,155.98958333333331
8131,1.0,,,,29.0,,,,,4,note_on,,112.0,29.0,112.0,59904,156.0
8132,1.0,,,,29.0,,,,,88,note_on,,0.0,29.0,0.0,59992,156.22916666666666
8133,1.0,,,,29.0,,,,,8,note_on,,112.0,29.0,112.0,60000,156.25
8134,1.0,,,,29.0,,,,,88,note_on,,0.0,29.0,0.0,60088,156.47916666666666
8135,1.0,,,,29.0,,,,,8,note_on,,112.0,29.0,112.0,60096,156.5
8136,1.0,,,,29.0,,,,,232,note_on,,0.0,29.0,0.0,60328,157.10416666666666
8137,1.0,,,,29.0,,,,,8,note_on,,112.0,29.0,112.0,60336,157.125
8138,1.0,,,,29.0,,,,,88,note_on,,0.0,29.0,0.0,60424,157.35416666666666
8139,1.0,,,,29.0,,,,,8,note_on,,112.0,29.0,112.0,60432,157.375
8140,1.0,,,,29.0,,,,,88,note_on,,0.0,29.0,0.0,60520,157.60416666666666
8141,1.0,,,,29.0,,,,,8,note_on,,112.0,29.0,112.0,60528,157.625
8142,1.0,,,,29.0,,,,,88,note_on,,0.0,29.0,0.0,60616,157.85416666666666
8143,1.0,,,,29.0,,,,,8,note_on,,112.0,29.0,112.0,60624,157.875
8144,1.0,,,,29.0,,,,,44,note_on,,0.0,29.0,0.0,60668,157.98958333333331
8145,1.0,,,,36.0,,,,,4,note_on,,112.0,36.0,112.0,60672,158.0
8146,1.0,,,,36.0,,,,,88,note_on,,0.0,36.0,0.0,60760,158.22916666666666
8147,1.0,,,,36.0,,,,,8,note_on,,112.0,36.0,112.0,60768,158.25
8148,1.0,,,,36.0,,,,,88,note_on,,0.0,36.0,0.0,60856,158.47916666666666
8149,1.0,,,,36.0,,,,,8,note_on,,112.0,36.0,112.0,60864,158.5
8150,1.0,,,,36.0,,,,,232,note_on,,0.0,36.0,0.0,61096,159.10416666666666
8151,1.0,,,,36.0,,,,,8,note_on,,112.0,36.0,112.0,61104,159.125
8152,1.0,,,,36.0,,,,,88,note_on,,0.0,36.0,0.0,61192,159.35416666666666
8153,1.0,,,,36.0,,,,,8,note_on,,112.0,36.0,112.0,61200,159.375
8154,1.0,,,,36.0,,,,,88,note_on,,0.0,36.0,0.0,61288,159.60416666666666
8155,1.0,,,,36.0,,,,,8,note_on,,112.0,36.0,112.0,61296,159.625
8156,1.0,,,,36.0,,,,,88,note_on,,0.0,36.0,0.0,61384,159.85416666666666
8157,1.0,,,,34.0,,,,,8,note_on,,112.0,34.0,112.0,61392,159.875
8158,1.0,,,,34.0,,,,,44,note_on,,0.0,34.0,0.0,61436,159.98958333333331
8159,1.0,,,,31.0,,,,,4,note_on,,112.0,31.0,112.0,61440,160.0
8160,1.0,,,,31.0,,,,,88,note_on,,0.0,31.0,0.0,61528,160.22916666666666
8161,1.0,,,,31.0,,,,,8,note_on,,112.0,31.0,112.0,61536,160.25
8162,1.0,,,,31.0,,,,,88,note_on,,0.0,31.0,0.0,61624,160.47916666666666
8163,1.0,,,,31.0,,,,,8,note_on,,112.0,31.0,112.0,61632,160.5
8164,1.0,,,,31.0,,,,,232,note_on,,0.0,31.0,0.0,61864,161.10416666666666
8165,1.0,,,,31.0,,,,,8,note_on,,112.0,31.0,112.0,61872,161.125
8166,1.0,,,,31.0,,,,,88,note_on,,0.0,31.0,0.0,61960,161.35416666666666
8167,1.0,,,,31.0,,,,,8,note_on,,112.0,31.0,112.0,61968,161.375
8168,1.0,,,,31.0,,,,,88,note_on,,0.0,31.0,0.0,62056,161.60416666666666
8169,1.0,,,,31.0,,,,,8,note_on,,112.0,31.0,112.0,62064,161.625
8170,1.0,,,,31.0,,,,,88,note_on,,0.0,31.0,0.0,62152,161.85416666666666
8171,1.0,,,,31.0,,,,,8,note_on,,112.0,31.0,112.0,62160,161.875
8172,1.0,,,,31.0,,,,,44,note_on,,0.0,31.0,0.0,62204,161.98958333333331
8173,1.0,,,,31.0,,,,,4,note_on,,112.0,31.0,112.0,62208,162.0
8174,1.0,,,,31.0,,,,,92,note_on,,0.0,31.0,0.0,62300,162.23958333333331
8175,1.0,,,,31.0,,,,,4,note_on,,112.0,31.0,112.0,62304,162.25
8176,1.0,,,,31.0,,,,,92,note_on,,0.0,31.0,0.0,62396,162.48958333333331
8177,1.0,,,,43.0,,,,,4,note_on,,112.0,43.0,112.0,62400,162.5
8178,1.0,,,,43.0,,,,,236,note_on,,0.0,43.0,0.0,62636,163.11458333333331
8179,1.0,,,,31.0,,,,,4,note_on,,112.0,31.0,112.0,62640,163.125
8180,1.0,,,,31.0,,,,,88,note_on,,0.0,31.0,0.0,62728,163.35416666666666
8181,1.0,,,,31.0,,,,,8,note_on,,112.0,31.0,112.0,62736,163.375
8182,1.0,,,,31.0,,,,,88,note_on,,0.0,31.0,0.0,62824,163.60416666666666
8183,1.0,,,,31.0,,,,,8,note_on,,112.0,31.0,112.0,62832,163.625
8184,1.0,,,,31.0,,,,,88,note_on,,0.0,31.0,0.0,62920,163.85416666666666
8185,1.0,,,,31.0,,,,,8,note_on,,112.0,31.0,112.0,62928,163.875
8186,1.0,,,,31.0,,,,,44,note_on,,0.0,31.0,0.0,62972,163.98958333333331
8187,1.0,,,,29.0,,,,,4,note_on,,112.0,29.0,112.0,62976,164.0
8188,1.0,,,,29.0,,,,,88,note_on,,0.0,29.0,0.0,63064,164.22916666666666
8189,1.0,,,,29.0,,,,,8,note_on,,112.0,29.0,112.0,63072,164.25
8190,1.0,,,,29.0,,,,,88,note_on,,0.0,29.0,0.0,63160,164.47916666666666
8191,1.0,,,,29.0,,,,,8,note_on,,112.0,29.0,112.0,63168,164.5
8192,1.0,,,,29.0,,,,,232,note_on,,0.0,29.0,0.0,63400,165.10416666666666
8193,1.0,,,,29.0,,,,,8,note_on,,112.0,29.0,112.0,63408,165.125
8194,1.0,,,,29.0,,,,,88,note_on,,0.0,29.0,0.0,63496,165.35416666666666
8195,1.0,,,,29.0,,,,,8,note_on,,112.0,29.0,112.0,63504,165.375
8196,1.0,,,,29.0,,,,,88,note_on,,0.0,29.0,0.0,63592,165.60416666666666
8197,1.0,,,,29.0,,,,,8,note_on,,112.0,29.0,112.0,63600,165.625
8198,1.0,,,,29.0,,,,,88,note_on,,0.0,29.0,0.0,63688,165.85416666666666
8199,1.0,,,,29.0,,,,,8,note_on,,112.0,29.0,112.0,63696,165.875
8200,1.0,,,,29.0,,,,,44,note_on,,0.0,29.0,0.0,63740,165.98958333333331
8201,1.0,,,,36.0,,,,,4,note_on,,112.0,36.0,112.0,63744,166.0
8202,1.0,,,,36.0,,,,,88,note_on,,0.0,36.0,0.0,63832,166.22916666666666
8203,1.0,,,,36.0,,,,,8,note_on,,112.0,36.0,112.0,63840,166.25
8204,1.0,,,,36.0,,,,,88,note_on,,0.0,36.0,0.0,63928,166.47916666666666
8205,1.0,,,,36.0,,,,,8,note_on,,112.0,36.0,112.0,63936,166.5
8206,1.0,,,,36.0,,,,,232,note_on,,0.0,36.0,0.0,64168,167.10416666666666
8207,1.0,,,,36.0,,,,,8,note_on,,112.0,36.0,112.0,64176,167.125
8208,1.0,,,,36.0,,,,,88,note_on,,0.0,36.0,0.0,64264,167.35416666666666
8209,1.0,,,,36.0,,,,,8,note_on,,112.0,36.0,112.0,64272,167.375
8210,1.0,,,,36.0,,,,,88,note_on,,0.0,36.0,0.0,64360,167.60416666666666
8211,1.0,,,,36.0,,,,,8,note_on,,112.0,36.0,112.0,64368,167.625
8212,1.0,,,,36.0,,,,,88,note_on,,0.0,36.0,0.0,64456,167.85416666666666
8213,1.0,,,,34.0,,,,,8,note_on,,112.0,34.0,112.0,64464,167.875
8214,1.0,,,,34.0,,,,,44,note_on,,0.0,34.0,0.0,64508,167.98958333333331
8215,1.0,,,,31.0,,,,,4,note_on,,112.0,31.0,112.0,64512,168.0
8216,1.0,,,,31.0,,,,,88,note_on,,0.0,31.0,0.0,64600,168.22916666666666
8217,1.0,,,,31.0,,,,,8,note_on,,112.0,31.0,112.0,64608,168.25
8218,1.0,,,,31.0,,,,,88,note_on,,0.0,31.0,0.0,64696,168.47916666666666
8219,1.0,,,,31.0,,,,,8,note_on,,112.0,31.0,112.0,64704,168.5
8220,1.0,,,,31.0,,,,,232,note_on,,0.0,31.0,0.0,64936,169.10416666666666
8221,1.0,,,,31.0,,,,,8,note_on,,112.0,31.0,112.0,64944,169.125
8222,1.0,,,,31.0,,,,,88,note_on,,0.0,31.0,0.0,65032,169.35416666666666
8223,1.0,,,,31.0,,,,,8,note_on,,112.0,31.0,112.0,65040,169.375
8224,1.0,,,,31.0,,,,,88,note_on,,0.0,31.0,0.0,65128,169.60416666666666
8225,1.0,,,,31.0,,,,,8,note_on,,112.0,31.0,112.0,65136,169.625
8226,1.0,,,,31.0,,,,,88,note_on,,0.0,31.0,0.0,65224,169.85416666666666
8227,1.0,,,,31.0,,,,,8,note_on,,112.0,31.0,112.0,65232,169.875
8228,1.0,,,,31.0,,,,,44,note_on,,0.0,31.0,0.0,65276,169.98958333333331
8229,1.0,,,,31.0,,,,,4,note_on,,110.0,31.0,110.0,65280,170.0
8230,1.0,,,,31.0,,,,,92,note_on,,0.0,31.0,0.0,65372,170.23958333333331
8231,1.0,,,,31.0,,,,,4,note_on,,106.0,31.0,106.0,65376,170.25
8232,1.0,,,,31.0,,,,,92,note_on,,0.0,31.0,0.0,65468,170.48958333333331
8233,1.0,,,,31.0,,,,,4,note_on,,102.0,31.0,102.0,65472,170.5
8234,1.0,,,,31.0,,,,,236,note_on,,0.0,31.0,0.0,65708,171.11458333333331
8235,1.0,,,,31.0,,,,,4,note_on,,92.0,31.0,92.0,65712,171.125
8236,1.0,,,,31.0,,,,,88,note_on,,0.0,31.0,0.0,65800,171.35416666666666
8237,1.0,,,,31.0,,,,,8,note_on,,88.0,31.0,88.0,65808,171.375
8238,1.0,,,,31.0,,,,,88,note_on,,0.0,31.0,0.0,65896,171.60416666666666
8239,1.0,,,,31.0,,,,,8,note_on,,85.0,31.0,85.0,65904,171.625
8240,1.0,,,,31.0,,,,,88,note_on,,0.0,31.0,0.0,65992,171.85416666666666
8241,1.0,,,,31.0,,,,,8,note_on,,81.0,31.0,81.0,66000,171.875
8242,1.0,,,,31.0,,,,,44,note_on,,0.0,31.0,0.0,66044,171.98958333333331
8243,1.0,,,,29.0,,,,,4,note_on,,79.0,29.0,79.0,66048,172.0
8244,1.0,,,,29.0,,,,,88,note_on,,0.0,29.0,0.0,66136,172.22916666666666
8245,1.0,,,,29.0,,,,,8,note_on,,76.0,29.0,76.0,66144,172.25
8246,1.0,,,,29.0,,,,,88,note_on,,0.0,29.0,0.0,66232,172.47916666666666
8247,1.0,,,,29.0,,,,,8,note_on,,73.0,29.0,73.0,66240,172.5
8248,1.0,,,,29.0,,,,,232,note_on,,0.0,29.0,0.0,66472,173.10416666666666
8249,1.0,,,,29.0,,,,,8,note_on,,63.0,29.0,63.0,66480,173.125
8250,1.0,,,,29.0,,,,,88,note_on,,0.0,29.0,0.0,66568,173.35416666666666
8251,1.0,,,,29.0,,,,,8,note_on,,59.0,29.0,59.0,66576,173.375
8252,1.0,,,,29.0,,,,,88,note_on,,0.0,29.0,0.0,66664,173.60416666666666
8253,1.0,,,,29.0,,,,,8,note_on,,56.0,29.0,56.0,66672,173.625
8254,1.0,,,,29.0,,,,,88,note_on,,0.0,29.0,0.0,66760,173.85416666666666
8255,1.0,,,,29.0,,,,,8,note_on,,53.0,29.0,53.0,66768,173.875
8256,1.0,,,,29.0,,,,,44,note_on,,0.0,29.0,0.0,66812,173.98958333333331
8257,1.0,,,,36.0,,,,,4,note_on,,51.0,36.0,51.0,66816,174.0
8258,1.0,,,,36.0,,,,,88,note_on,,0.0,36.0,0.0,66904,174.22916666666666
8259,1.0,,,,36.0,,,,,8,note_on,,48.0,36.0,48.0,66912,174.25
8260,1.0,,,,36.0,,,,,88,note_on,,0.0,36.0,0.0,67000,174.47916666666666
8261,1.0,,,,36.0,,,,,8,note_on,,45.0,36.0,45.0,67008,174.5
8262,1.0,,,,36.0,,,,,232,note_on,,0.0,36.0,0.0,67240,175.10416666666666
8263,1.0,,,,36.0,,,,,8,note_on,,38.0,36.0,38.0,67248,175.125
8264,1.0,,,,36.0,,,,,88,note_on,,0.0,36.0,0.0,67336,175.35416666666666
8265,1.0,,,,36.0,,,,,8,note_on,,35.0,36.0,35.0,67344,175.375
8266,1.0,,,,36.0,,,,,88,note_on,,0.0,36.0,0.0,67432,175.60416666666666
8267,1.0,,,,36.0,,,,,8,note_on,,30.0,36.0,30.0,67440,175.625
8268,1.0,,,,36.0,,,,,88,note_on,,0.0,36.0,0.0,67528,175.85416666666666
8269,1.0,,,,34.0,,,,,8,note_on,,26.0,34.0,26.0,67536,175.875
8270,1.0,,,,34.0,,,,,44,note_on,,0.0,34.0,0.0,67580,175.98958333333331
8271,1.0,,,,31.0,,,,,4,note_on,,25.0,31.0,25.0,67584,176.0
8272,1.0,,,,31.0,,,,,88,note_on,,0.0,31.0,0.0,67672,176.22916666666666
8273,1.0,,,,31.0,,,,,8,note_on,,22.0,31.0,22.0,67680,176.25
8274,1.0,,,,31.0,,,,,88,note_on,,0.0,31.0,0.0,67768,176.47916666666666
8275,1.0,,,,31.0,,,,,8,note_on,,19.0,31.0,19.0,67776,176.5
8276,1.0,,,,31.0,,,,,232,note_on,,0.0,31.0,0.0,68008,177.10416666666666
8277,1.0,,,,31.0,,,,,8,note_on,,11.0,31.0,11.0,68016,177.125
8278,1.0,,,,31.0,,,,,88,note_on,,0.0,31.0,0.0,68104,177.35416666666666
8279,1.0,,,,31.0,,,,,8,note_on,,9.0,31.0,9.0,68112,177.375
8280,1.0,,,,31.0,,,,,88,note_on,,0.0,31.0,0.0,68200,177.60416666666666
8281,1.0,,,,31.0,,,,,8,note_on,,6.0,31.0,6.0,68208,177.625
8282,1.0,,,,31.0,,,,,88,note_on,,0.0,31.0,0.0,68296,177.85416666666666
8283,1.0,,,,31.0,,,,,8,note_on,,3.0,31.0,3.0,68304,177.875
8284,1.0,,,,31.0,,,,,44,note_on,,0.0,31.0,0.0,68348,177.98958333333331
8285,,,,,,,,,,0,end_of_track,,,,,4638059112,12078278.9375
8286,7.0,0.0,,,,,,,,0,control_change,0.0,,,,0,0.0
8287,7.0,,,,,,53.0,,,0,program_change,,,,,0,0.0
8288,,,"(74, 65, 90, 50, 1, 0, 0, 0, 0, 0, 0, 0, 0, 0, 0, 0, 0, 0, 0, 0)",,,,,,,0,sequencer_specific,,,,,4638059328,12078279.5
8289,7.0,91.0,,,,,,,,0,control_change,40.0,,,,0,0.0
8290,7.0,7.0,,,,,,,,0,control_change,59.0,,,,0,0.0
8291,,,,Voice Oohs,,,,,,0,track_name,,,,,4638059544,12078280.0625
8292,7.0,10.0,,,,,,,,0,control_change,127.0,,,,0,0.0
8293,7.0,93.0,,,,,,,,0,control_change,0.0,,,,0,0.0
8294,2.0,,,,70.0,,,,,3552,note_on,,127.0,70.0,127.0,3552,9.25
8295,2.0,,,,70.0,,,,,40,note_on,,0.0,70.0,0.0,3592,9.354166666666666
8296,2.0,,,,72.0,,,,,8,note_on,,127.0,72.0,127.0,3600,9.375
8297,2.0,,,,72.0,,,,,40,note_on,,0.0,72.0,0.0,3640,9.479166666666666
8298,2.0,,,,70.0,,,,,8,note_on,,127.0,70.0,127.0,3648,9.5
8299,2.0,,,,70.0,,,,,40,note_on,,0.0,70.0,0.0,3688,9.604166666666666
8300,2.0,,,,67.0,,,,,56,note_on,,127.0,67.0,127.0,3744,9.75
8301,2.0,,,,67.0,,,,,40,note_on,,0.0,67.0,0.0,3784,9.854166666666666
8302,2.0,,,,70.0,,,,,5912,note_on,,127.0,70.0,127.0,9696,25.25
8303,2.0,,,,70.0,,,,,40,note_on,,0.0,70.0,0.0,9736,25.354166666666664
8304,2.0,,,,72.0,,,,,8,note_on,,127.0,72.0,127.0,9744,25.375
8305,2.0,,,,72.0,,,,,40,note_on,,0.0,72.0,0.0,9784,25.479166666666664
8306,2.0,,,,70.0,,,,,8,note_on,,127.0,70.0,127.0,9792,25.5
8307,2.0,,,,70.0,,,,,40,note_on,,0.0,70.0,0.0,9832,25.604166666666664
8308,2.0,,,,67.0,,,,,56,note_on,,127.0,67.0,127.0,9888,25.75
8309,2.0,,,,67.0,,,,,40,note_on,,0.0,67.0,0.0,9928,25.854166666666664
8310,2.0,,,,70.0,,,,,2840,note_on,,127.0,70.0,127.0,12768,33.25
8311,2.0,,,,70.0,,,,,40,note_on,,0.0,70.0,0.0,12808,33.354166666666664
8312,2.0,,,,72.0,,,,,8,note_on,,127.0,72.0,127.0,12816,33.375
8313,2.0,,,,72.0,,,,,40,note_on,,0.0,72.0,0.0,12856,33.479166666666664
8314,2.0,,,,70.0,,,,,8,note_on,,127.0,70.0,127.0,12864,33.5
8315,2.0,,,,70.0,,,,,40,note_on,,0.0,70.0,0.0,12904,33.604166666666664
8316,2.0,,,,67.0,,,,,56,note_on,,127.0,67.0,127.0,12960,33.75
8317,2.0,,,,67.0,,,,,40,note_on,,0.0,67.0,0.0,13000,33.854166666666664
8318,7.0,,,,83.0,,,,,6392,note_on,,112.0,83.0,112.0,6392,16.645833333333332
8319,7.0,,,,79.0,,,,,32,note_on,,112.0,79.0,112.0,6424,16.729166666666664
8320,7.0,,,,83.0,,,,,8,note_on,,0.0,83.0,0.0,6432,16.75
8321,7.0,,,,79.0,,,,,80,note_on,,0.0,79.0,0.0,6512,16.958333333333332
8322,7.0,,,,83.0,,,,,24,note_on,,112.0,83.0,112.0,6536,17.020833333333332
8323,7.0,,,,83.0,,,,,88,note_on,,0.0,83.0,0.0,6624,17.25
8324,7.0,,,,79.0,,,,,8,note_on,,112.0,79.0,112.0,6632,17.270833333333332
8325,7.0,,,,79.0,,,,,88,note_on,,0.0,79.0,0.0,6720,17.5
8326,7.0,,,,83.0,,,,,8,note_on,,112.0,83.0,112.0,6728,17.520833333333332
8327,7.0,,,,83.0,,,,,88,note_on,,0.0,83.0,0.0,6816,17.75
8328,7.0,,,,79.0,,,,,8,note_on,,112.0,79.0,112.0,6824,17.770833333333332
8329,7.0,,,,79.0,,,,,88,note_on,,0.0,79.0,0.0,6912,18.0
8330,7.0,,,,83.0,,,,,248,note_on,,112.0,83.0,112.0,7160,18.645833333333332
8331,7.0,,,,79.0,,,,,32,note_on,,112.0,79.0,112.0,7192,18.729166666666664
8332,7.0,,,,83.0,,,,,8,note_on,,0.0,83.0,0.0,7200,18.75
8333,7.0,,,,79.0,,,,,80,note_on,,0.0,79.0,0.0,7280,18.958333333333332
8334,7.0,,,,83.0,,,,,24,note_on,,112.0,83.0,112.0,7304,19.020833333333332
8335,7.0,,,,83.0,,,,,88,note_on,,0.0,83.0,0.0,7392,19.25
8336,7.0,,,,79.0,,,,,8,note_on,,112.0,79.0,112.0,7400,19.270833333333332
8337,7.0,,,,79.0,,,,,88,note_on,,0.0,79.0,0.0,7488,19.5
8338,7.0,,,,83.0,,,,,8,note_on,,112.0,83.0,112.0,7496,19.520833333333332
8339,7.0,,,,83.0,,,,,236,note_on,,0.0,83.0,0.0,7732,20.135416666666664
8340,7.0,,,,84.0,,,,,196,note_on,,112.0,84.0,112.0,7928,20.645833333333332
8341,7.0,,,,81.0,,,,,32,note_on,,112.0,81.0,112.0,7960,20.729166666666664
8342,7.0,,,,84.0,,,,,8,note_on,,0.0,84.0,0.0,7968,20.75
8343,7.0,,,,81.0,,,,,80,note_on,,0.0,81.0,0.0,8048,20.958333333333332
8344,7.0,,,,84.0,,,,,24,note_on,,112.0,84.0,112.0,8072,21.020833333333332
8345,7.0,,,,84.0,,,,,88,note_on,,0.0,84.0,0.0,8160,21.25
8346,7.0,,,,81.0,,,,,8,note_on,,112.0,81.0,112.0,8168,21.270833333333332
8347,7.0,,,,81.0,,,,,88,note_on,,0.0,81.0,0.0,8256,21.5
8348,7.0,,,,84.0,,,,,8,note_on,,112.0,84.0,112.0,8264,21.520833333333332
8349,7.0,,,,84.0,,,,,88,note_on,,0.0,84.0,0.0,8352,21.75
8350,7.0,,,,81.0,,,,,8,note_on,,112.0,81.0,112.0,8360,21.770833333333332
8351,7.0,,,,81.0,,,,,88,note_on,,0.0,81.0,0.0,8448,22.0
8352,7.0,,,,83.0,,,,,248,note_on,,112.0,83.0,112.0,8696,22.645833333333332
8353,7.0,,,,79.0,,,,,32,note_on,,112.0,79.0,112.0,8728,22.729166666666664
8354,7.0,,,,83.0,,,,,8,note_on,,0.0,83.0,0.0,8736,22.75
8355,7.0,,,,79.0,,,,,80,note_on,,0.0,79.0,0.0,8816,22.958333333333332
8356,7.0,,,,83.0,,,,,24,note_on,,112.0,83.0,112.0,8840,23.020833333333332
8357,7.0,,,,83.0,,,,,88,note_on,,0.0,83.0,0.0,8928,23.25
8358,7.0,,,,79.0,,,,,8,note_on,,112.0,79.0,112.0,8936,23.270833333333332
8359,7.0,,,,79.0,,,,,88,note_on,,0.0,79.0,0.0,9024,23.5
8360,7.0,,,,83.0,,,,,8,note_on,,112.0,83.0,112.0,9032,23.520833333333332
8361,7.0,,,,83.0,,,,,236,note_on,,0.0,83.0,0.0,9268,24.135416666666664
8362,7.0,,,,83.0,,,,,196,note_on,,112.0,83.0,112.0,9464,24.645833333333332
8363,7.0,,,,79.0,,,,,32,note_on,,112.0,79.0,112.0,9496,24.729166666666664
8364,7.0,,,,83.0,,,,,8,note_on,,0.0,83.0,0.0,9504,24.75
8365,7.0,,,,79.0,,,,,80,note_on,,0.0,79.0,0.0,9584,24.958333333333332
8366,7.0,,,,83.0,,,,,24,note_on,,112.0,83.0,112.0,9608,25.020833333333332
8367,7.0,,,,83.0,,,,,88,note_on,,0.0,83.0,0.0,9696,25.25
8368,7.0,,,,79.0,,,,,8,note_on,,112.0,79.0,112.0,9704,25.270833333333332
8369,7.0,,,,79.0,,,,,88,note_on,,0.0,79.0,0.0,9792,25.5
8370,7.0,,,,83.0,,,,,8,note_on,,112.0,83.0,112.0,9800,25.520833333333332
8371,7.0,,,,83.0,,,,,88,note_on,,0.0,83.0,0.0,9888,25.75
8372,7.0,,,,79.0,,,,,8,note_on,,112.0,79.0,112.0,9896,25.770833333333332
8373,7.0,,,,79.0,,,,,88,note_on,,0.0,79.0,0.0,9984,26.0
8374,7.0,,,,83.0,,,,,248,note_on,,112.0,83.0,112.0,10232,26.645833333333332
8375,7.0,,,,79.0,,,,,32,note_on,,112.0,79.0,112.0,10264,26.729166666666664
8376,7.0,,,,83.0,,,,,8,note_on,,0.0,83.0,0.0,10272,26.75
8377,7.0,,,,79.0,,,,,80,note_on,,0.0,79.0,0.0,10352,26.958333333333332
8378,7.0,,,,83.0,,,,,24,note_on,,112.0,83.0,112.0,10376,27.020833333333332
8379,7.0,,,,83.0,,,,,88,note_on,,0.0,83.0,0.0,10464,27.25
8380,7.0,,,,79.0,,,,,8,note_on,,112.0,79.0,112.0,10472,27.270833333333332
8381,7.0,,,,79.0,,,,,88,note_on,,0.0,79.0,0.0,10560,27.5
8382,7.0,,,,83.0,,,,,8,note_on,,112.0,83.0,112.0,10568,27.520833333333332
8383,7.0,,,,83.0,,,,,236,note_on,,0.0,83.0,0.0,10804,28.135416666666664
8384,7.0,,,,84.0,,,,,196,note_on,,112.0,84.0,112.0,11000,28.645833333333332
8385,7.0,,,,81.0,,,,,32,note_on,,112.0,81.0,112.0,11032,28.729166666666664
8386,7.0,,,,84.0,,,,,8,note_on,,0.0,84.0,0.0,11040,28.75
8387,7.0,,,,81.0,,,,,80,note_on,,0.0,81.0,0.0,11120,28.958333333333332
8388,7.0,,,,84.0,,,,,24,note_on,,112.0,84.0,112.0,11144,29.020833333333332
8389,7.0,,,,84.0,,,,,88,note_on,,0.0,84.0,0.0,11232,29.25
8390,7.0,,,,81.0,,,,,8,note_on,,112.0,81.0,112.0,11240,29.270833333333332
8391,7.0,,,,81.0,,,,,88,note_on,,0.0,81.0,0.0,11328,29.5
8392,7.0,,,,84.0,,,,,8,note_on,,112.0,84.0,112.0,11336,29.520833333333332
8393,7.0,,,,84.0,,,,,88,note_on,,0.0,84.0,0.0,11424,29.75
8394,7.0,,,,81.0,,,,,8,note_on,,112.0,81.0,112.0,11432,29.770833333333332
8395,7.0,,,,81.0,,,,,88,note_on,,0.0,81.0,0.0,11520,30.0
8396,7.0,,,,83.0,,,,,248,note_on,,112.0,83.0,112.0,11768,30.645833333333332
8397,7.0,,,,79.0,,,,,32,note_on,,112.0,79.0,112.0,11800,30.729166666666664
8398,7.0,,,,83.0,,,,,8,note_on,,0.0,83.0,0.0,11808,30.75
8399,7.0,,,,79.0,,,,,80,note_on,,0.0,79.0,0.0,11888,30.958333333333332
8400,7.0,,,,83.0,,,,,24,note_on,,112.0,83.0,112.0,11912,31.020833333333332
8401,7.0,,,,83.0,,,,,88,note_on,,0.0,83.0,0.0,12000,31.25
8402,7.0,,,,79.0,,,,,8,note_on,,112.0,79.0,112.0,12008,31.270833333333332
8403,7.0,,,,79.0,,,,,88,note_on,,0.0,79.0,0.0,12096,31.5
8404,7.0,,,,83.0,,,,,8,note_on,,112.0,83.0,112.0,12104,31.520833333333332
8405,7.0,,,,83.0,,,,,236,note_on,,0.0,83.0,0.0,12340,32.135416666666664
8406,2.0,,,,70.0,,,,,2788,note_on,,127.0,70.0,127.0,15788,41.11458333333333
8407,2.0,,,,70.0,,,,,40,note_on,,0.0,70.0,0.0,15828,41.21875
8408,2.0,,,,72.0,,,,,8,note_on,,127.0,72.0,127.0,15836,41.23958333333333
8409,2.0,,,,72.0,,,,,40,note_on,,0.0,72.0,0.0,15876,41.34375
8410,2.0,,,,70.0,,,,,8,note_on,,127.0,70.0,127.0,15884,41.36458333333333
8411,2.0,,,,70.0,,,,,40,note_on,,0.0,70.0,0.0,15924,41.46875
8412,2.0,,,,67.0,,,,,56,note_on,,127.0,67.0,127.0,15980,41.61458333333333
8413,2.0,,,,67.0,,,,,40,note_on,,0.0,67.0,0.0,16020,41.71875
8414,2.0,,,,70.0,,,,,2840,note_on,,127.0,70.0,127.0,18860,49.11458333333333
8415,2.0,,,,70.0,,,,,40,note_on,,0.0,70.0,0.0,18900,49.21875
8416,2.0,,,,72.0,,,,,8,note_on,,127.0,72.0,127.0,18908,49.23958333333333
8417,2.0,,,,72.0,,,,,40,note_on,,0.0,72.0,0.0,18948,49.34375
8418,2.0,,,,70.0,,,,,8,note_on,,127.0,70.0,127.0,18956,49.36458333333333
8419,2.0,,,,70.0,,,,,40,note_on,,0.0,70.0,0.0,18996,49.46875
8420,2.0,,,,67.0,,,,,56,note_on,,127.0,67.0,127.0,19052,49.61458333333333
8421,2.0,,,,67.0,,,,,40,note_on,,0.0,67.0,0.0,19092,49.71875
8422,2.0,,,,70.0,,,,,2840,note_on,,127.0,70.0,127.0,21932,57.11458333333333
8423,2.0,,,,70.0,,,,,40,note_on,,0.0,70.0,0.0,21972,57.21875
8424,2.0,,,,72.0,,,,,8,note_on,,127.0,72.0,127.0,21980,57.23958333333333
8425,2.0,,,,72.0,,,,,40,note_on,,0.0,72.0,0.0,22020,57.34375
8426,2.0,,,,70.0,,,,,8,note_on,,127.0,70.0,127.0,22028,57.36458333333333
8427,2.0,,,,70.0,,,,,40,note_on,,0.0,70.0,0.0,22068,57.46875
8428,2.0,,,,67.0,,,,,56,note_on,,127.0,67.0,127.0,22124,57.61458333333333
8429,2.0,,,,67.0,,,,,40,note_on,,0.0,67.0,0.0,22164,57.71875
8430,7.0,,,,83.0,,,,,3320,note_on,,112.0,83.0,112.0,15660,40.78125
8431,7.0,,,,79.0,,,,,32,note_on,,112.0,79.0,112.0,15692,40.86458333333333
8432,7.0,,,,83.0,,,,,8,note_on,,0.0,83.0,0.0,15700,40.885416666666664
8433,7.0,,,,79.0,,,,,80,note_on,,0.0,79.0,0.0,15780,41.09375
8434,7.0,,,,83.0,,,,,24,note_on,,112.0,83.0,112.0,15804,41.15625
8435,7.0,,,,83.0,,,,,88,note_on,,0.0,83.0,0.0,15892,41.385416666666664
8436,7.0,,,,79.0,,,,,8,note_on,,112.0,79.0,112.0,15900,41.40625
8437,7.0,,,,79.0,,,,,88,note_on,,0.0,79.0,0.0,15988,41.635416666666664
8438,7.0,,,,83.0,,,,,8,note_on,,112.0,83.0,112.0,15996,41.65625
8439,7.0,,,,83.0,,,,,88,note_on,,0.0,83.0,0.0,16084,41.885416666666664
8440,7.0,,,,79.0,,,,,8,note_on,,112.0,79.0,112.0,16092,41.90625
8441,7.0,,,,79.0,,,,,88,note_on,,0.0,79.0,0.0,16180,42.135416666666664
8442,7.0,,,,83.0,,,,,248,note_on,,112.0,83.0,112.0,16428,42.78125
8443,7.0,,,,79.0,,,,,32,note_on,,112.0,79.0,112.0,16460,42.86458333333333
8444,7.0,,,,83.0,,,,,8,note_on,,0.0,83.0,0.0,16468,42.885416666666664
8445,7.0,,,,79.0,,,,,80,note_on,,0.0,79.0,0.0,16548,43.09375
8446,7.0,,,,83.0,,,,,24,note_on,,112.0,83.0,112.0,16572,43.15625
8447,7.0,,,,83.0,,,,,88,note_on,,0.0,83.0,0.0,16660,43.385416666666664
8448,7.0,,,,79.0,,,,,8,note_on,,112.0,79.0,112.0,16668,43.40625
8449,7.0,,,,79.0,,,,,88,note_on,,0.0,79.0,0.0,16756,43.635416666666664
8450,7.0,,,,83.0,,,,,8,note_on,,112.0,83.0,112.0,16764,43.65625
8451,7.0,,,,83.0,,,,,236,note_on,,0.0,83.0,0.0,17000,44.27083333333333
8452,7.0,,,,84.0,,,,,196,note_on,,112.0,84.0,112.0,17196,44.78125
8453,7.0,,,,81.0,,,,,32,note_on,,112.0,81.0,112.0,17228,44.86458333333333
8454,7.0,,,,84.0,,,,,8,note_on,,0.0,84.0,0.0,17236,44.885416666666664
8455,7.0,,,,81.0,,,,,80,note_on,,0.0,81.0,0.0,17316,45.09375
8456,7.0,,,,84.0,,,,,24,note_on,,112.0,84.0,112.0,17340,45.15625
8457,7.0,,,,84.0,,,,,88,note_on,,0.0,84.0,0.0,17428,45.385416666666664
8458,7.0,,,,81.0,,,,,8,note_on,,112.0,81.0,112.0,17436,45.40625
8459,7.0,,,,81.0,,,,,88,note_on,,0.0,81.0,0.0,17524,45.635416666666664
8460,7.0,,,,84.0,,,,,8,note_on,,112.0,84.0,112.0,17532,45.65625
8461,7.0,,,,84.0,,,,,88,note_on,,0.0,84.0,0.0,17620,45.885416666666664
8462,7.0,,,,81.0,,,,,8,note_on,,112.0,81.0,112.0,17628,45.90625
8463,7.0,,,,81.0,,,,,88,note_on,,0.0,81.0,0.0,17716,46.135416666666664
8464,7.0,,,,83.0,,,,,248,note_on,,112.0,83.0,112.0,17964,46.78125
8465,7.0,,,,79.0,,,,,32,note_on,,112.0,79.0,112.0,17996,46.86458333333333
8466,7.0,,,,83.0,,,,,8,note_on,,0.0,83.0,0.0,18004,46.885416666666664
8467,7.0,,,,79.0,,,,,80,note_on,,0.0,79.0,0.0,18084,47.09375
8468,7.0,,,,83.0,,,,,24,note_on,,112.0,83.0,112.0,18108,47.15625
8469,7.0,,,,83.0,,,,,88,note_on,,0.0,83.0,0.0,18196,47.385416666666664
8470,7.0,,,,79.0,,,,,8,note_on,,112.0,79.0,112.0,18204,47.40625
8471,7.0,,,,79.0,,,,,88,note_on,,0.0,79.0,0.0,18292,47.635416666666664
8472,7.0,,,,83.0,,,,,8,note_on,,112.0,83.0,112.0,18300,47.65625
8473,7.0,,,,83.0,,,,,236,note_on,,0.0,83.0,0.0,18536,48.27083333333333
8474,7.0,,,,83.0,,,,,196,note_on,,112.0,83.0,112.0,18732,48.78125
8475,7.0,,,,79.0,,,,,32,note_on,,112.0,79.0,112.0,18764,48.86458333333333
8476,7.0,,,,83.0,,,,,8,note_on,,0.0,83.0,0.0,18772,48.885416666666664
8477,7.0,,,,79.0,,,,,80,note_on,,0.0,79.0,0.0,18852,49.09375
8478,7.0,,,,83.0,,,,,24,note_on,,112.0,83.0,112.0,18876,49.15625
8479,7.0,,,,83.0,,,,,88,note_on,,0.0,83.0,0.0,18964,49.385416666666664
8480,7.0,,,,79.0,,,,,8,note_on,,112.0,79.0,112.0,18972,49.40625
8481,7.0,,,,79.0,,,,,88,note_on,,0.0,79.0,0.0,19060,49.635416666666664
8482,7.0,,,,83.0,,,,,8,note_on,,112.0,83.0,112.0,19068,49.65625
8483,7.0,,,,83.0,,,,,88,note_on,,0.0,83.0,0.0,19156,49.885416666666664
8484,7.0,,,,79.0,,,,,8,note_on,,112.0,79.0,112.0,19164,49.90625
8485,7.0,,,,79.0,,,,,88,note_on,,0.0,79.0,0.0,19252,50.135416666666664
8486,7.0,,,,83.0,,,,,248,note_on,,112.0,83.0,112.0,19500,50.78125
8487,7.0,,,,79.0,,,,,32,note_on,,112.0,79.0,112.0,19532,50.86458333333333
8488,7.0,,,,83.0,,,,,8,note_on,,0.0,83.0,0.0,19540,50.885416666666664
8489,7.0,,,,79.0,,,,,80,note_on,,0.0,79.0,0.0,19620,51.09375
8490,7.0,,,,83.0,,,,,24,note_on,,112.0,83.0,112.0,19644,51.15625
8491,7.0,,,,83.0,,,,,88,note_on,,0.0,83.0,0.0,19732,51.385416666666664
8492,7.0,,,,79.0,,,,,8,note_on,,112.0,79.0,112.0,19740,51.40625
8493,7.0,,,,79.0,,,,,88,note_on,,0.0,79.0,0.0,19828,51.635416666666664
8494,7.0,,,,83.0,,,,,8,note_on,,112.0,83.0,112.0,19836,51.65625
8495,7.0,,,,83.0,,,,,236,note_on,,0.0,83.0,0.0,20072,52.27083333333333
8496,7.0,,,,84.0,,,,,196,note_on,,112.0,84.0,112.0,20268,52.78125
8497,7.0,,,,81.0,,,,,32,note_on,,112.0,81.0,112.0,20300,52.86458333333333
8498,7.0,,,,84.0,,,,,8,note_on,,0.0,84.0,0.0,20308,52.885416666666664
8499,7.0,,,,81.0,,,,,80,note_on,,0.0,81.0,0.0,20388,53.09375
8500,7.0,,,,84.0,,,,,24,note_on,,112.0,84.0,112.0,20412,53.15625
8501,7.0,,,,84.0,,,,,88,note_on,,0.0,84.0,0.0,20500,53.385416666666664
8502,7.0,,,,81.0,,,,,8,note_on,,112.0,81.0,112.0,20508,53.40625
8503,7.0,,,,81.0,,,,,88,note_on,,0.0,81.0,0.0,20596,53.635416666666664
8504,7.0,,,,84.0,,,,,8,note_on,,112.0,84.0,112.0,20604,53.65625
8505,7.0,,,,84.0,,,,,88,note_on,,0.0,84.0,0.0,20692,53.885416666666664
8506,7.0,,,,81.0,,,,,8,note_on,,112.0,81.0,112.0,20700,53.90625
8507,7.0,,,,81.0,,,,,88,note_on,,0.0,81.0,0.0,20788,54.135416666666664
8508,7.0,,,,83.0,,,,,248,note_on,,112.0,83.0,112.0,21036,54.78125
8509,7.0,,,,79.0,,,,,32,note_on,,112.0,79.0,112.0,21068,54.86458333333333
8510,7.0,,,,83.0,,,,,8,note_on,,0.0,83.0,0.0,21076,54.885416666666664
8511,7.0,,,,79.0,,,,,80,note_on,,0.0,79.0,0.0,21156,55.09375
8512,7.0,,,,83.0,,,,,24,note_on,,112.0,83.0,112.0,21180,55.15625
8513,7.0,,,,83.0,,,,,88,note_on,,0.0,83.0,0.0,21268,55.385416666666664
8514,7.0,,,,79.0,,,,,8,note_on,,112.0,79.0,112.0,21276,55.40625
8515,7.0,,,,79.0,,,,,88,note_on,,0.0,79.0,0.0,21364,55.635416666666664
8516,7.0,,,,83.0,,,,,8,note_on,,112.0,83.0,112.0,21372,55.65625
8517,7.0,,,,83.0,,,,,236,note_on,,0.0,83.0,0.0,21608,56.27083333333333
8518,2.0,,,,70.0,,,,,2788,note_on,,127.0,70.0,127.0,24952,64.97916666666666
8519,2.0,,,,70.0,,,,,40,note_on,,0.0,70.0,0.0,24992,65.08333333333333
8520,2.0,,,,72.0,,,,,8,note_on,,127.0,72.0,127.0,25000,65.10416666666666
8521,2.0,,,,72.0,,,,,40,note_on,,0.0,72.0,0.0,25040,65.20833333333333
8522,2.0,,,,70.0,,,,,8,note_on,,127.0,70.0,127.0,25048,65.22916666666666
8523,2.0,,,,70.0,,,,,40,note_on,,0.0,70.0,0.0,25088,65.33333333333333
8524,2.0,,,,67.0,,,,,56,note_on,,127.0,67.0,127.0,25144,65.47916666666666
8525,2.0,,,,67.0,,,,,40,note_on,,0.0,67.0,0.0,25184,65.58333333333333
8526,7.0,,,,83.0,,,,,3320,note_on,,112.0,83.0,112.0,24928,64.91666666666666
8527,7.0,,,,79.0,,,,,32,note_on,,112.0,79.0,112.0,24960,65.0
8528,7.0,,,,83.0,,,,,8,note_on,,0.0,83.0,0.0,24968,65.02083333333333
8529,7.0,,,,79.0,,,,,80,note_on,,0.0,79.0,0.0,25048,65.22916666666666
8530,7.0,,,,83.0,,,,,24,note_on,,112.0,83.0,112.0,25072,65.29166666666666
8531,7.0,,,,83.0,,,,,88,note_on,,0.0,83.0,0.0,25160,65.52083333333333
8532,7.0,,,,79.0,,,,,8,note_on,,112.0,79.0,112.0,25168,65.54166666666666
8533,7.0,,,,79.0,,,,,88,note_on,,0.0,79.0,0.0,25256,65.77083333333333
8534,7.0,,,,83.0,,,,,8,note_on,,112.0,83.0,112.0,25264,65.79166666666666
8535,7.0,,,,83.0,,,,,88,note_on,,0.0,83.0,0.0,25352,66.02083333333333
8536,7.0,,,,79.0,,,,,8,note_on,,112.0,79.0,112.0,25360,66.04166666666666
8537,7.0,,,,79.0,,,,,88,note_on,,0.0,79.0,0.0,25448,66.27083333333333
8538,7.0,,,,83.0,,,,,248,note_on,,112.0,83.0,112.0,25696,66.91666666666666
8539,7.0,,,,79.0,,,,,32,note_on,,112.0,79.0,112.0,25728,67.0
8540,7.0,,,,83.0,,,,,8,note_on,,0.0,83.0,0.0,25736,67.02083333333333
8541,7.0,,,,79.0,,,,,80,note_on,,0.0,79.0,0.0,25816,67.22916666666666
8542,7.0,,,,83.0,,,,,24,note_on,,112.0,83.0,112.0,25840,67.29166666666666
8543,7.0,,,,83.0,,,,,88,note_on,,0.0,83.0,0.0,25928,67.52083333333333
8544,7.0,,,,79.0,,,,,8,note_on,,112.0,79.0,112.0,25936,67.54166666666666
8545,7.0,,,,79.0,,,,,88,note_on,,0.0,79.0,0.0,26024,67.77083333333333
8546,7.0,,,,83.0,,,,,8,note_on,,112.0,83.0,112.0,26032,67.79166666666666
8547,7.0,,,,83.0,,,,,236,note_on,,0.0,83.0,0.0,26268,68.40625
8548,7.0,,,,84.0,,,,,196,note_on,,112.0,84.0,112.0,26464,68.91666666666666
8549,7.0,,,,81.0,,,,,32,note_on,,112.0,81.0,112.0,26496,69.0
8550,7.0,,,,84.0,,,,,8,note_on,,0.0,84.0,0.0,26504,69.02083333333333
8551,7.0,,,,81.0,,,,,80,note_on,,0.0,81.0,0.0,26584,69.22916666666666
8552,7.0,,,,84.0,,,,,24,note_on,,112.0,84.0,112.0,26608,69.29166666666666
8553,7.0,,,,84.0,,,,,88,note_on,,0.0,84.0,0.0,26696,69.52083333333333
8554,7.0,,,,81.0,,,,,8,note_on,,112.0,81.0,112.0,26704,69.54166666666666
8555,7.0,,,,81.0,,,,,88,note_on,,0.0,81.0,0.0,26792,69.77083333333333
8556,7.0,,,,84.0,,,,,8,note_on,,112.0,84.0,112.0,26800,69.79166666666666
8557,7.0,,,,84.0,,,,,88,note_on,,0.0,84.0,0.0,26888,70.02083333333333
8558,7.0,,,,81.0,,,,,8,note_on,,112.0,81.0,112.0,26896,70.04166666666666
8559,7.0,,,,81.0,,,,,88,note_on,,0.0,81.0,0.0,26984,70.27083333333333
8560,7.0,,,,83.0,,,,,248,note_on,,112.0,83.0,112.0,27232,70.91666666666666
8561,7.0,,,,79.0,,,,,32,note_on,,112.0,79.0,112.0,27264,71.0
8562,7.0,,,,83.0,,,,,8,note_on,,0.0,83.0,0.0,27272,71.02083333333333
8563,7.0,,,,79.0,,,,,80,note_on,,0.0,79.0,0.0,27352,71.22916666666666
8564,7.0,,,,83.0,,,,,24,note_on,,112.0,83.0,112.0,27376,71.29166666666666
8565,7.0,,,,83.0,,,,,88,note_on,,0.0,83.0,0.0,27464,71.52083333333333
8566,7.0,,,,79.0,,,,,8,note_on,,112.0,79.0,112.0,27472,71.54166666666666
8567,7.0,,,,79.0,,,,,88,note_on,,0.0,79.0,0.0,27560,71.77083333333333
8568,7.0,,,,83.0,,,,,8,note_on,,112.0,83.0,112.0,27568,71.79166666666666
8569,7.0,,,,83.0,,,,,236,note_on,,0.0,83.0,0.0,27804,72.40625
8570,7.0,,,,83.0,,,,,196,note_on,,112.0,83.0,112.0,28000,72.91666666666666
8571,7.0,,,,79.0,,,,,32,note_on,,112.0,79.0,112.0,28032,73.0
8572,7.0,,,,83.0,,,,,8,note_on,,0.0,83.0,0.0,28040,73.02083333333333
8573,7.0,,,,79.0,,,,,80,note_on,,0.0,79.0,0.0,28120,73.22916666666666
8574,7.0,,,,83.0,,,,,24,note_on,,112.0,83.0,112.0,28144,73.29166666666666
8575,7.0,,,,83.0,,,,,88,note_on,,0.0,83.0,0.0,28232,73.52083333333333
8576,7.0,,,,79.0,,,,,8,note_on,,112.0,79.0,112.0,28240,73.54166666666666
8577,7.0,,,,79.0,,,,,88,note_on,,0.0,79.0,0.0,28328,73.77083333333333
8578,7.0,,,,83.0,,,,,8,note_on,,112.0,83.0,112.0,28336,73.79166666666666
8579,7.0,,,,83.0,,,,,88,note_on,,0.0,83.0,0.0,28424,74.02083333333333
8580,7.0,,,,79.0,,,,,8,note_on,,112.0,79.0,112.0,28432,74.04166666666666
8581,7.0,,,,79.0,,,,,88,note_on,,0.0,79.0,0.0,28520,74.27083333333333
8582,7.0,,,,83.0,,,,,248,note_on,,112.0,83.0,112.0,28768,74.91666666666666
8583,7.0,,,,79.0,,,,,32,note_on,,112.0,79.0,112.0,28800,75.0
8584,7.0,,,,83.0,,,,,8,note_on,,0.0,83.0,0.0,28808,75.02083333333333
8585,7.0,,,,79.0,,,,,80,note_on,,0.0,79.0,0.0,28888,75.22916666666666
8586,7.0,,,,83.0,,,,,24,note_on,,112.0,83.0,112.0,28912,75.29166666666666
8587,7.0,,,,83.0,,,,,88,note_on,,0.0,83.0,0.0,29000,75.52083333333333
8588,7.0,,,,79.0,,,,,8,note_on,,112.0,79.0,112.0,29008,75.54166666666666
8589,7.0,,,,79.0,,,,,88,note_on,,0.0,79.0,0.0,29096,75.77083333333333
8590,7.0,,,,83.0,,,,,8,note_on,,112.0,83.0,112.0,29104,75.79166666666666
8591,7.0,,,,83.0,,,,,236,note_on,,0.0,83.0,0.0,29340,76.40625
8592,7.0,,,,84.0,,,,,196,note_on,,112.0,84.0,112.0,29536,76.91666666666666
8593,7.0,,,,81.0,,,,,32,note_on,,112.0,81.0,112.0,29568,77.0
8594,7.0,,,,84.0,,,,,8,note_on,,0.0,84.0,0.0,29576,77.02083333333333
8595,7.0,,,,81.0,,,,,80,note_on,,0.0,81.0,0.0,29656,77.22916666666666
8596,7.0,,,,84.0,,,,,24,note_on,,112.0,84.0,112.0,29680,77.29166666666666
8597,7.0,,,,84.0,,,,,88,note_on,,0.0,84.0,0.0,29768,77.52083333333333
8598,7.0,,,,81.0,,,,,8,note_on,,112.0,81.0,112.0,29776,77.54166666666666
8599,7.0,,,,81.0,,,,,88,note_on,,0.0,81.0,0.0,29864,77.77083333333333
8600,7.0,,,,84.0,,,,,8,note_on,,112.0,84.0,112.0,29872,77.79166666666666
8601,7.0,,,,84.0,,,,,88,note_on,,0.0,84.0,0.0,29960,78.02083333333333
8602,7.0,,,,81.0,,,,,8,note_on,,112.0,81.0,112.0,29968,78.04166666666666
8603,7.0,,,,81.0,,,,,88,note_on,,0.0,81.0,0.0,30056,78.27083333333333
8604,7.0,,,,83.0,,,,,248,note_on,,112.0,83.0,112.0,30304,78.91666666666666
8605,7.0,,,,79.0,,,,,32,note_on,,112.0,79.0,112.0,30336,79.0
8606,7.0,,,,83.0,,,,,8,note_on,,0.0,83.0,0.0,30344,79.02083333333333
8607,7.0,,,,79.0,,,,,80,note_on,,0.0,79.0,0.0,30424,79.22916666666666
8608,7.0,,,,83.0,,,,,24,note_on,,112.0,83.0,112.0,30448,79.29166666666666
8609,7.0,,,,83.0,,,,,88,note_on,,0.0,83.0,0.0,30536,79.52083333333333
8610,7.0,,,,79.0,,,,,8,note_on,,112.0,79.0,112.0,30544,79.54166666666666
8611,7.0,,,,79.0,,,,,88,note_on,,0.0,79.0,0.0,30632,79.77083333333333
8612,7.0,,,,83.0,,,,,8,note_on,,112.0,83.0,112.0,30640,79.79166666666666
8613,7.0,,,,83.0,,,,,236,note_on,,0.0,83.0,0.0,30876,80.40625
8614,7.0,,,,83.0,,,,,196,note_on,,112.0,83.0,112.0,31072,80.91666666666666
8615,7.0,,,,79.0,,,,,32,note_on,,112.0,79.0,112.0,31104,81.0
8616,7.0,,,,83.0,,,,,8,note_on,,0.0,83.0,0.0,31112,81.02083333333333
8617,7.0,,,,79.0,,,,,80,note_on,,0.0,79.0,0.0,31192,81.22916666666666
8618,7.0,,,,83.0,,,,,24,note_on,,112.0,83.0,112.0,31216,81.29166666666666
8619,7.0,,,,83.0,,,,,88,note_on,,0.0,83.0,0.0,31304,81.52083333333333
8620,7.0,,,,79.0,,,,,8,note_on,,112.0,79.0,112.0,31312,81.54166666666666
8621,7.0,,,,79.0,,,,,88,note_on,,0.0,79.0,0.0,31400,81.77083333333333
8622,7.0,,,,83.0,,,,,8,note_on,,112.0,83.0,112.0,31408,81.79166666666666
8623,7.0,,,,83.0,,,,,88,note_on,,0.0,83.0,0.0,31496,82.02083333333333
8624,7.0,,,,79.0,,,,,8,note_on,,112.0,79.0,112.0,31504,82.04166666666666
8625,7.0,,,,79.0,,,,,88,note_on,,0.0,79.0,0.0,31592,82.27083333333333
8626,7.0,,,,83.0,,,,,248,note_on,,112.0,83.0,112.0,31840,82.91666666666666
8627,7.0,,,,79.0,,,,,32,note_on,,112.0,79.0,112.0,31872,83.0
8628,7.0,,,,83.0,,,,,8,note_on,,0.0,83.0,0.0,31880,83.02083333333333
8629,7.0,,,,79.0,,,,,80,note_on,,0.0,79.0,0.0,31960,83.22916666666666
8630,7.0,,,,83.0,,,,,24,note_on,,112.0,83.0,112.0,31984,83.29166666666666
8631,7.0,,,,83.0,,,,,88,note_on,,0.0,83.0,0.0,32072,83.52083333333333
8632,7.0,,,,79.0,,,,,8,note_on,,112.0,79.0,112.0,32080,83.54166666666666
8633,7.0,,,,79.0,,,,,88,note_on,,0.0,79.0,0.0,32168,83.77083333333333
8634,7.0,,,,83.0,,,,,8,note_on,,112.0,83.0,112.0,32176,83.79166666666666
8635,7.0,,,,83.0,,,,,236,note_on,,0.0,83.0,0.0,32412,84.40625
8636,7.0,,,,84.0,,,,,196,note_on,,112.0,84.0,112.0,32608,84.91666666666666
8637,7.0,,,,81.0,,,,,32,note_on,,112.0,81.0,112.0,32640,85.0
8638,7.0,,,,84.0,,,,,8,note_on,,0.0,84.0,0.0,32648,85.02083333333333
8639,7.0,,,,81.0,,,,,80,note_on,,0.0,81.0,0.0,32728,85.22916666666666
8640,7.0,,,,84.0,,,,,24,note_on,,112.0,84.0,112.0,32752,85.29166666666666
8641,7.0,,,,84.0,,,,,88,note_on,,0.0,84.0,0.0,32840,85.52083333333333
8642,7.0,,,,81.0,,,,,8,note_on,,112.0,81.0,112.0,32848,85.54166666666666
8643,7.0,,,,81.0,,,,,88,note_on,,0.0,81.0,0.0,32936,85.77083333333333
8644,7.0,,,,84.0,,,,,8,note_on,,112.0,84.0,112.0,32944,85.79166666666666
8645,7.0,,,,84.0,,,,,88,note_on,,0.0,84.0,0.0,33032,86.02083333333333
8646,7.0,,,,81.0,,,,,8,note_on,,112.0,81.0,112.0,33040,86.04166666666666
8647,7.0,,,,81.0,,,,,88,note_on,,0.0,81.0,0.0,33128,86.27083333333333
8648,7.0,,,,83.0,,,,,248,note_on,,112.0,83.0,112.0,33376,86.91666666666666
8649,7.0,,,,79.0,,,,,32,note_on,,112.0,79.0,112.0,33408,87.0
8650,7.0,,,,83.0,,,,,8,note_on,,0.0,83.0,0.0,33416,87.02083333333333
8651,7.0,,,,79.0,,,,,80,note_on,,0.0,79.0,0.0,33496,87.22916666666666
8652,7.0,,,,83.0,,,,,24,note_on,,112.0,83.0,112.0,33520,87.29166666666666
8653,7.0,,,,83.0,,,,,88,note_on,,0.0,83.0,0.0,33608,87.52083333333333
8654,7.0,,,,79.0,,,,,8,note_on,,112.0,79.0,112.0,33616,87.54166666666666
8655,7.0,,,,79.0,,,,,88,note_on,,0.0,79.0,0.0,33704,87.77083333333333
8656,7.0,,,,83.0,,,,,8,note_on,,112.0,83.0,112.0,33712,87.79166666666666
8657,7.0,,,,83.0,,,,,236,note_on,,0.0,83.0,0.0,33948,88.40625
8658,7.0,,,,83.0,,,,,196,note_on,,112.0,83.0,112.0,34144,88.91666666666666
8659,7.0,,,,79.0,,,,,32,note_on,,112.0,79.0,112.0,34176,89.0
8660,7.0,,,,83.0,,,,,8,note_on,,0.0,83.0,0.0,34184,89.02083333333333
8661,7.0,,,,79.0,,,,,80,note_on,,0.0,79.0,0.0,34264,89.22916666666666
8662,7.0,,,,83.0,,,,,24,note_on,,112.0,83.0,112.0,34288,89.29166666666666
8663,7.0,,,,83.0,,,,,88,note_on,,0.0,83.0,0.0,34376,89.52083333333333
8664,7.0,,,,79.0,,,,,8,note_on,,112.0,79.0,112.0,34384,89.54166666666666
8665,7.0,,,,79.0,,,,,88,note_on,,0.0,79.0,0.0,34472,89.77083333333333
8666,7.0,,,,83.0,,,,,8,note_on,,112.0,83.0,112.0,34480,89.79166666666666
8667,7.0,,,,83.0,,,,,88,note_on,,0.0,83.0,0.0,34568,90.02083333333333
8668,7.0,,,,79.0,,,,,8,note_on,,112.0,79.0,112.0,34576,90.04166666666666
8669,7.0,,,,79.0,,,,,88,note_on,,0.0,79.0,0.0,34664,90.27083333333333
8670,7.0,,,,83.0,,,,,248,note_on,,112.0,83.0,112.0,34912,90.91666666666666
8671,7.0,,,,79.0,,,,,32,note_on,,112.0,79.0,112.0,34944,91.0
8672,7.0,,,,83.0,,,,,8,note_on,,0.0,83.0,0.0,34952,91.02083333333333
8673,7.0,,,,79.0,,,,,80,note_on,,0.0,79.0,0.0,35032,91.22916666666666
8674,7.0,,,,83.0,,,,,24,note_on,,112.0,83.0,112.0,35056,91.29166666666666
8675,7.0,,,,83.0,,,,,88,note_on,,0.0,83.0,0.0,35144,91.52083333333333
8676,7.0,,,,79.0,,,,,8,note_on,,112.0,79.0,112.0,35152,91.54166666666666
8677,7.0,,,,79.0,,,,,88,note_on,,0.0,79.0,0.0,35240,91.77083333333333
8678,7.0,,,,83.0,,,,,8,note_on,,112.0,83.0,112.0,35248,91.79166666666666
8679,7.0,,,,83.0,,,,,236,note_on,,0.0,83.0,0.0,35484,92.40625
8680,7.0,,,,84.0,,,,,196,note_on,,112.0,84.0,112.0,35680,92.91666666666666
8681,7.0,,,,81.0,,,,,32,note_on,,112.0,81.0,112.0,35712,93.0
8682,7.0,,,,84.0,,,,,8,note_on,,0.0,84.0,0.0,35720,93.02083333333333
8683,7.0,,,,81.0,,,,,80,note_on,,0.0,81.0,0.0,35800,93.22916666666666
8684,7.0,,,,84.0,,,,,24,note_on,,112.0,84.0,112.0,35824,93.29166666666666
8685,7.0,,,,84.0,,,,,88,note_on,,0.0,84.0,0.0,35912,93.52083333333333
8686,7.0,,,,81.0,,,,,8,note_on,,112.0,81.0,112.0,35920,93.54166666666666
8687,7.0,,,,81.0,,,,,88,note_on,,0.0,81.0,0.0,36008,93.77083333333333
8688,7.0,,,,84.0,,,,,8,note_on,,112.0,84.0,112.0,36016,93.79166666666666
8689,7.0,,,,84.0,,,,,88,note_on,,0.0,84.0,0.0,36104,94.02083333333333
8690,7.0,,,,81.0,,,,,8,note_on,,112.0,81.0,112.0,36112,94.04166666666666
8691,7.0,,,,81.0,,,,,88,note_on,,0.0,81.0,0.0,36200,94.27083333333333
8692,7.0,,,,83.0,,,,,248,note_on,,112.0,83.0,112.0,36448,94.91666666666666
8693,7.0,,,,79.0,,,,,32,note_on,,112.0,79.0,112.0,36480,95.0
8694,7.0,,,,83.0,,,,,8,note_on,,0.0,83.0,0.0,36488,95.02083333333333
8695,7.0,,,,79.0,,,,,80,note_on,,0.0,79.0,0.0,36568,95.22916666666666
8696,7.0,,,,83.0,,,,,24,note_on,,112.0,83.0,112.0,36592,95.29166666666666
8697,7.0,,,,83.0,,,,,88,note_on,,0.0,83.0,0.0,36680,95.52083333333333
8698,7.0,,,,79.0,,,,,8,note_on,,112.0,79.0,112.0,36688,95.54166666666666
8699,7.0,,,,79.0,,,,,88,note_on,,0.0,79.0,0.0,36776,95.77083333333333
8700,7.0,,,,83.0,,,,,8,note_on,,112.0,83.0,112.0,36784,95.79166666666666
8701,7.0,,,,83.0,,,,,236,note_on,,0.0,83.0,0.0,37020,96.40625
8702,7.0,,,,83.0,,,,,196,note_on,,112.0,83.0,112.0,37216,96.91666666666666
8703,7.0,,,,79.0,,,,,32,note_on,,112.0,79.0,112.0,37248,97.0
8704,7.0,,,,83.0,,,,,8,note_on,,0.0,83.0,0.0,37256,97.02083333333333
8705,7.0,,,,79.0,,,,,80,note_on,,0.0,79.0,0.0,37336,97.22916666666666
8706,7.0,,,,83.0,,,,,24,note_on,,112.0,83.0,112.0,37360,97.29166666666666
8707,7.0,,,,83.0,,,,,88,note_on,,0.0,83.0,0.0,37448,97.52083333333333
8708,7.0,,,,79.0,,,,,8,note_on,,112.0,79.0,112.0,37456,97.54166666666666
8709,7.0,,,,79.0,,,,,88,note_on,,0.0,79.0,0.0,37544,97.77083333333333
8710,7.0,,,,83.0,,,,,8,note_on,,112.0,83.0,112.0,37552,97.79166666666666
8711,7.0,,,,83.0,,,,,88,note_on,,0.0,83.0,0.0,37640,98.02083333333333
8712,7.0,,,,79.0,,,,,8,note_on,,112.0,79.0,112.0,37648,98.04166666666666
8713,7.0,,,,79.0,,,,,88,note_on,,0.0,79.0,0.0,37736,98.27083333333333
8714,7.0,,,,83.0,,,,,248,note_on,,112.0,83.0,112.0,37984,98.91666666666666
8715,7.0,,,,79.0,,,,,32,note_on,,112.0,79.0,112.0,38016,99.0
8716,7.0,,,,83.0,,,,,8,note_on,,0.0,83.0,0.0,38024,99.02083333333333
8717,7.0,,,,79.0,,,,,80,note_on,,0.0,79.0,0.0,38104,99.22916666666666
8718,7.0,,,,83.0,,,,,24,note_on,,112.0,83.0,112.0,38128,99.29166666666666
8719,7.0,,,,83.0,,,,,88,note_on,,0.0,83.0,0.0,38216,99.52083333333333
8720,7.0,,,,79.0,,,,,8,note_on,,112.0,79.0,112.0,38224,99.54166666666666
8721,7.0,,,,79.0,,,,,88,note_on,,0.0,79.0,0.0,38312,99.77083333333333
8722,7.0,,,,83.0,,,,,8,note_on,,112.0,83.0,112.0,38320,99.79166666666666
8723,7.0,,,,83.0,,,,,236,note_on,,0.0,83.0,0.0,38556,100.40625
8724,7.0,,,,84.0,,,,,196,note_on,,112.0,84.0,112.0,38752,100.91666666666666
8725,7.0,,,,81.0,,,,,32,note_on,,112.0,81.0,112.0,38784,101.0
8726,7.0,,,,84.0,,,,,8,note_on,,0.0,84.0,0.0,38792,101.02083333333333
8727,7.0,,,,81.0,,,,,80,note_on,,0.0,81.0,0.0,38872,101.22916666666666
8728,7.0,,,,84.0,,,,,24,note_on,,112.0,84.0,112.0,38896,101.29166666666666
8729,7.0,,,,84.0,,,,,88,note_on,,0.0,84.0,0.0,38984,101.52083333333333
8730,7.0,,,,81.0,,,,,8,note_on,,112.0,81.0,112.0,38992,101.54166666666666
8731,7.0,,,,81.0,,,,,88,note_on,,0.0,81.0,0.0,39080,101.77083333333333
8732,7.0,,,,84.0,,,,,8,note_on,,112.0,84.0,112.0,39088,101.79166666666666
8733,7.0,,,,84.0,,,,,88,note_on,,0.0,84.0,0.0,39176,102.02083333333333
8734,7.0,,,,81.0,,,,,8,note_on,,112.0,81.0,112.0,39184,102.04166666666666
8735,7.0,,,,81.0,,,,,88,note_on,,0.0,81.0,0.0,39272,102.27083333333333
8736,7.0,,,,83.0,,,,,248,note_on,,112.0,83.0,112.0,39520,102.91666666666666
8737,7.0,,,,79.0,,,,,32,note_on,,112.0,79.0,112.0,39552,103.0
8738,7.0,,,,83.0,,,,,8,note_on,,0.0,83.0,0.0,39560,103.02083333333333
8739,7.0,,,,79.0,,,,,80,note_on,,0.0,79.0,0.0,39640,103.22916666666666
8740,7.0,,,,83.0,,,,,24,note_on,,112.0,83.0,112.0,39664,103.29166666666666
8741,7.0,,,,83.0,,,,,88,note_on,,0.0,83.0,0.0,39752,103.52083333333333
8742,7.0,,,,79.0,,,,,8,note_on,,112.0,79.0,112.0,39760,103.54166666666666
8743,7.0,,,,79.0,,,,,88,note_on,,0.0,79.0,0.0,39848,103.77083333333333
8744,7.0,,,,83.0,,,,,8,note_on,,112.0,83.0,112.0,39856,103.79166666666666
8745,7.0,,,,83.0,,,,,236,note_on,,0.0,83.0,0.0,40092,104.40625
8746,7.0,,,,83.0,,,,,196,note_on,,110.0,83.0,110.0,40288,104.91666666666666
8747,7.0,,,,79.0,,,,,32,note_on,,104.0,79.0,104.0,40320,105.0
8748,7.0,,,,83.0,,,,,8,note_on,,0.0,83.0,0.0,40328,105.02083333333333
8749,7.0,,,,79.0,,,,,80,note_on,,0.0,79.0,0.0,40408,105.22916666666666
8750,7.0,,,,83.0,,,,,24,note_on,,100.0,83.0,100.0,40432,105.29166666666666
8751,7.0,,,,83.0,,,,,88,note_on,,0.0,83.0,0.0,40520,105.52083333333333
8752,7.0,,,,79.0,,,,,8,note_on,,96.0,79.0,96.0,40528,105.54166666666666
8753,7.0,,,,79.0,,,,,88,note_on,,0.0,79.0,0.0,40616,105.77083333333333
8754,7.0,,,,83.0,,,,,8,note_on,,92.0,83.0,92.0,40624,105.79166666666666
8755,7.0,,,,83.0,,,,,88,note_on,,0.0,83.0,0.0,40712,106.02083333333333
8756,7.0,,,,79.0,,,,,8,note_on,,85.0,79.0,85.0,40720,106.04166666666666
8757,7.0,,,,79.0,,,,,88,note_on,,0.0,79.0,0.0,40808,106.27083333333333
8758,7.0,,,,83.0,,,,,248,note_on,,74.0,83.0,74.0,41056,106.91666666666666
8759,7.0,,,,79.0,,,,,32,note_on,,73.0,79.0,73.0,41088,107.0
8760,7.0,,,,83.0,,,,,8,note_on,,0.0,83.0,0.0,41096,107.02083333333333
8761,7.0,,,,79.0,,,,,80,note_on,,0.0,79.0,0.0,41176,107.22916666666666
8762,7.0,,,,83.0,,,,,24,note_on,,72.0,83.0,72.0,41200,107.29166666666666
8763,7.0,,,,83.0,,,,,88,note_on,,0.0,83.0,0.0,41288,107.52083333333333
8764,7.0,,,,79.0,,,,,8,note_on,,69.0,79.0,69.0,41296,107.54166666666666
8765,7.0,,,,79.0,,,,,88,note_on,,0.0,79.0,0.0,41384,107.77083333333333
8766,7.0,,,,83.0,,,,,8,note_on,,67.0,83.0,67.0,41392,107.79166666666666
8767,7.0,,,,83.0,,,,,236,note_on,,0.0,83.0,0.0,41628,108.40625
8768,7.0,,,,84.0,,,,,196,note_on,,52.0,84.0,52.0,41824,108.91666666666666
8769,7.0,,,,81.0,,,,,32,note_on,,52.0,81.0,52.0,41856,109.0
8770,7.0,,,,84.0,,,,,8,note_on,,0.0,84.0,0.0,41864,109.02083333333333
8771,7.0,,,,81.0,,,,,80,note_on,,0.0,81.0,0.0,41944,109.22916666666666
8772,7.0,,,,84.0,,,,,24,note_on,,46.0,84.0,46.0,41968,109.29166666666666
8773,7.0,,,,84.0,,,,,88,note_on,,0.0,84.0,0.0,42056,109.52083333333333
8774,7.0,,,,81.0,,,,,8,note_on,,42.0,81.0,42.0,42064,109.54166666666666
8775,7.0,,,,81.0,,,,,88,note_on,,0.0,81.0,0.0,42152,109.77083333333333
8776,7.0,,,,84.0,,,,,8,note_on,,36.0,84.0,36.0,42160,109.79166666666666
8777,7.0,,,,84.0,,,,,88,note_on,,0.0,84.0,0.0,42248,110.02083333333333
8778,7.0,,,,81.0,,,,,8,note_on,,32.0,81.0,32.0,42256,110.04166666666666
8779,7.0,,,,81.0,,,,,88,note_on,,0.0,81.0,0.0,42344,110.27083333333333
8780,7.0,,,,83.0,,,,,248,note_on,,17.0,83.0,17.0,42592,110.91666666666666
8781,7.0,,,,79.0,,,,,32,note_on,,15.0,79.0,15.0,42624,111.0
8782,7.0,,,,83.0,,,,,8,note_on,,0.0,83.0,0.0,42632,111.02083333333333
8783,7.0,,,,79.0,,,,,80,note_on,,0.0,79.0,0.0,42712,111.22916666666666
8784,7.0,,,,83.0,,,,,24,note_on,,10.0,83.0,10.0,42736,111.29166666666666
8785,7.0,,,,83.0,,,,,88,note_on,,0.0,83.0,0.0,42824,111.52083333333333
8786,7.0,,,,79.0,,,,,8,note_on,,7.0,79.0,7.0,42832,111.54166666666666
8787,7.0,,,,79.0,,,,,88,note_on,,0.0,79.0,0.0,42920,111.77083333333333
8788,7.0,,,,83.0,,,,,8,note_on,,3.0,83.0,3.0,42928,111.79166666666666
8789,7.0,,,,83.0,,,,,236,note_on,,0.0,83.0,0.0,43164,112.40625
8790,,,,,,,,,,0,end_of_track,,,,,4638182064,12078599.125
8791,2.0,0.0,,,,,,,,0,control_change,0.0,,,,25184,65.58333333333333
8792,2.0,,,,,,53.0,,,0,program_change,,,,,25184,65.58333333333333
8793,,,"(74, 65, 90, 50, 1, 0, 0, 0, 0, 0, 0, 0, 0, 0, 0, 0, 0, 0, 0, 0)",,,,,,,0,sequencer_specific,,,,,4638182280,12078599.6875
8794,2.0,10.0,,,,,,,,0,control_change,64.0,,,,25184,65.58333333333333
8795,2.0,91.0,,,,,,,,0,control_change,40.0,,,,25184,65.58333333333333
8796,2.0,93.0,,,,,,,,0,control_change,0.0,,,,25184,65.58333333333333
8797,2.0,7.0,,,,,,,,0,control_change,104.0,,,,25184,65.58333333333333
8798,,,,Voice Oohs,,,,,,0,track_name,,,,,4638182640,12078600.625
8799,2.0,,,,58.0,,,,,3552,note_on,,127.0,58.0,127.0,28736,74.83333333333333
8800,2.0,,,,58.0,,,,,40,note_on,,0.0,58.0,0.0,28776,74.9375
8801,2.0,,,,60.0,,,,,8,note_on,,127.0,60.0,127.0,28784,74.95833333333333
8802,2.0,,,,60.0,,,,,40,note_on,,0.0,60.0,0.0,28824,75.0625
8803,2.0,,,,58.0,,,,,8,note_on,,127.0,58.0,127.0,28832,75.08333333333333
8804,2.0,,,,58.0,,,,,40,note_on,,0.0,58.0,0.0,28872,75.1875
8805,2.0,,,,55.0,,,,,56,note_on,,127.0,55.0,127.0,28928,75.33333333333333
8806,2.0,,,,55.0,,,,,40,note_on,,0.0,55.0,0.0,28968,75.4375
8807,2.0,,,,58.0,,,,,5912,note_on,,127.0,58.0,127.0,34880,90.83333333333333
8808,2.0,,,,58.0,,,,,40,note_on,,0.0,58.0,0.0,34920,90.9375
8809,2.0,,,,60.0,,,,,8,note_on,,127.0,60.0,127.0,34928,90.95833333333333
8810,2.0,,,,60.0,,,,,40,note_on,,0.0,60.0,0.0,34968,91.0625
8811,2.0,,,,58.0,,,,,8,note_on,,127.0,58.0,127.0,34976,91.08333333333333
8812,2.0,,,,58.0,,,,,40,note_on,,0.0,58.0,0.0,35016,91.1875
8813,2.0,,,,55.0,,,,,56,note_on,,127.0,55.0,127.0,35072,91.33333333333333
8814,2.0,,,,55.0,,,,,40,note_on,,0.0,55.0,0.0,35112,91.4375
8815,2.0,,,,58.0,,,,,2840,note_on,,127.0,58.0,127.0,37952,98.83333333333333
8816,2.0,,,,58.0,,,,,40,note_on,,0.0,58.0,0.0,37992,98.9375
8817,2.0,,,,60.0,,,,,8,note_on,,127.0,60.0,127.0,38000,98.95833333333333
8818,2.0,,,,60.0,,,,,40,note_on,,0.0,60.0,0.0,38040,99.0625
8819,2.0,,,,58.0,,,,,8,note_on,,127.0,58.0,127.0,38048,99.08333333333333
8820,2.0,,,,58.0,,,,,40,note_on,,0.0,58.0,0.0,38088,99.1875
8821,2.0,,,,55.0,,,,,56,note_on,,127.0,55.0,127.0,38144,99.33333333333333
8822,2.0,,,,55.0,,,,,40,note_on,,0.0,55.0,0.0,38184,99.4375
8823,2.0,,,,67.0,,,,,56,note_on,,127.0,67.0,127.0,38240,99.58333333333333
8824,2.0,,,,67.0,,,,,135,note_on,,0.0,67.0,0.0,38375,99.93489583333333
8825,2.0,,,,65.0,,,,,25,note_on,,127.0,65.0,127.0,38400,100.0
8826,2.0,,,,65.0,,,,,46,note_on,,0.0,65.0,0.0,38446,100.11979166666666
8827,2.0,,,,62.0,,,,,18,note_on,,127.0,62.0,127.0,38464,100.16666666666666
8828,2.0,,,,67.0,,,,,64,note_on,,127.0,67.0,127.0,38528,100.33333333333333
8829,2.0,,,,62.0,,,,,8,note_on,,0.0,62.0,0.0,38536,100.35416666666666
8830,2.0,,,,67.0,,,,,32,note_on,,0.0,67.0,0.0,38568,100.4375
8831,2.0,,,,67.0,,,,,440,note_on,,127.0,67.0,127.0,39008,101.58333333333333
8832,2.0,,,,67.0,,,,,135,note_on,,0.0,67.0,0.0,39143,101.93489583333333
8833,2.0,,,,65.0,,,,,25,note_on,,127.0,65.0,127.0,39168,102.0
8834,2.0,,,,65.0,,,,,46,note_on,,0.0,65.0,0.0,39214,102.11979166666666
8835,2.0,,,,62.0,,,,,18,note_on,,127.0,62.0,127.0,39232,102.16666666666666
8836,2.0,,,,67.0,,,,,64,note_on,,127.0,67.0,127.0,39296,102.33333333333333
8837,2.0,,,,62.0,,,,,8,note_on,,0.0,62.0,0.0,39304,102.35416666666666
8838,2.0,,,,67.0,,,,,32,note_on,,0.0,67.0,0.0,39336,102.4375
8839,2.0,,,,67.0,,,,,440,note_on,,127.0,67.0,127.0,39776,103.58333333333333
8840,2.0,,,,67.0,,,,,135,note_on,,0.0,67.0,0.0,39911,103.93489583333333
8841,2.0,,,,65.0,,,,,25,note_on,,127.0,65.0,127.0,39936,104.0
8842,2.0,,,,65.0,,,,,46,note_on,,0.0,65.0,0.0,39982,104.11979166666666
8843,2.0,,,,62.0,,,,,18,note_on,,127.0,62.0,127.0,40000,104.16666666666666
8844,2.0,,,,67.0,,,,,64,note_on,,127.0,67.0,127.0,40064,104.33333333333333
8845,2.0,,,,62.0,,,,,8,note_on,,0.0,62.0,0.0,40072,104.35416666666666
8846,2.0,,,,67.0,,,,,32,note_on,,0.0,67.0,0.0,40104,104.4375
8847,2.0,,,,67.0,,,,,440,note_on,,127.0,67.0,127.0,40544,105.58333333333333
8848,2.0,,,,67.0,,,,,135,note_on,,0.0,67.0,0.0,40679,105.93489583333333
8849,2.0,,,,65.0,,,,,25,note_on,,127.0,65.0,127.0,40704,106.0
8850,2.0,,,,65.0,,,,,46,note_on,,0.0,65.0,0.0,40750,106.11979166666666
8851,2.0,,,,62.0,,,,,18,note_on,,127.0,62.0,127.0,40768,106.16666666666666
8852,2.0,,,,67.0,,,,,64,note_on,,127.0,67.0,127.0,40832,106.33333333333333
8853,2.0,,,,62.0,,,,,8,note_on,,0.0,62.0,0.0,40840,106.35416666666666
8854,2.0,,,,67.0,,,,,32,note_on,,0.0,67.0,0.0,40872,106.4375
8855,2.0,,,,67.0,,,,,440,note_on,,127.0,67.0,127.0,41312,107.58333333333333
8856,2.0,,,,67.0,,,,,135,note_on,,0.0,67.0,0.0,41447,107.93489583333333
8857,2.0,,,,65.0,,,,,25,note_on,,127.0,65.0,127.0,41472,108.0
8858,2.0,,,,65.0,,,,,46,note_on,,0.0,65.0,0.0,41518,108.11979166666666
8859,2.0,,,,62.0,,,,,18,note_on,,127.0,62.0,127.0,41536,108.16666666666666
8860,2.0,,,,67.0,,,,,64,note_on,,127.0,67.0,127.0,41600,108.33333333333333
8861,2.0,,,,62.0,,,,,8,note_on,,0.0,62.0,0.0,41608,108.35416666666666
8862,2.0,,,,67.0,,,,,32,note_on,,0.0,67.0,0.0,41640,108.4375
8863,2.0,,,,67.0,,,,,440,note_on,,127.0,67.0,127.0,42080,109.58333333333333
8864,2.0,,,,67.0,,,,,135,note_on,,0.0,67.0,0.0,42215,109.93489583333333
8865,2.0,,,,65.0,,,,,25,note_on,,127.0,65.0,127.0,42240,110.0
8866,2.0,,,,65.0,,,,,46,note_on,,0.0,65.0,0.0,42286,110.11979166666666
8867,2.0,,,,62.0,,,,,18,note_on,,127.0,62.0,127.0,42304,110.16666666666666
8868,2.0,,,,67.0,,,,,64,note_on,,127.0,67.0,127.0,42368,110.33333333333333
8869,2.0,,,,62.0,,,,,8,note_on,,0.0,62.0,0.0,42376,110.35416666666666
8870,2.0,,,,67.0,,,,,32,note_on,,0.0,67.0,0.0,42408,110.4375
8871,2.0,,,,67.0,,,,,440,note_on,,127.0,67.0,127.0,42848,111.58333333333333
8872,2.0,,,,67.0,,,,,135,note_on,,0.0,67.0,0.0,42983,111.93489583333333
8873,2.0,,,,65.0,,,,,25,note_on,,127.0,65.0,127.0,43008,112.0
8874,2.0,,,,65.0,,,,,46,note_on,,0.0,65.0,0.0,43054,112.11979166666666
8875,2.0,,,,62.0,,,,,18,note_on,,127.0,62.0,127.0,43072,112.16666666666666
8876,2.0,,,,67.0,,,,,64,note_on,,127.0,67.0,127.0,43136,112.33333333333333
8877,2.0,,,,62.0,,,,,8,note_on,,0.0,62.0,0.0,43144,112.35416666666666
8878,2.0,,,,67.0,,,,,32,note_on,,0.0,67.0,0.0,43176,112.4375
8879,2.0,,,,67.0,,,,,440,note_on,,127.0,67.0,127.0,43616,113.58333333333333
8880,2.0,,,,67.0,,,,,135,note_on,,0.0,67.0,0.0,43751,113.93489583333333
8881,2.0,,,,65.0,,,,,25,note_on,,127.0,65.0,127.0,43776,114.0
8882,2.0,,,,65.0,,,,,46,note_on,,0.0,65.0,0.0,43822,114.11979166666666
8883,2.0,,,,62.0,,,,,18,note_on,,127.0,62.0,127.0,43840,114.16666666666666
8884,2.0,,,,67.0,,,,,64,note_on,,127.0,67.0,127.0,43904,114.33333333333333
8885,2.0,,,,62.0,,,,,8,note_on,,0.0,62.0,0.0,43912,114.35416666666666
8886,2.0,,,,67.0,,,,,32,note_on,,0.0,67.0,0.0,43944,114.4375
8887,2.0,,,,71.0,,,,,632,note_on,,112.0,71.0,112.0,44576,116.08333333333333
8888,2.0,,,,67.0,,,,,32,note_on,,112.0,67.0,112.0,44608,116.16666666666666
8889,2.0,,,,71.0,,,,,8,note_on,,0.0,71.0,0.0,44616,116.1875
8890,2.0,,,,67.0,,,,,80,note_on,,0.0,67.0,0.0,44696,116.39583333333333
8891,2.0,,,,71.0,,,,,24,note_on,,112.0,71.0,112.0,44720,116.45833333333333
8892,2.0,,,,71.0,,,,,88,note_on,,0.0,71.0,0.0,44808,116.6875
8893,2.0,,,,67.0,,,,,8,note_on,,112.0,67.0,112.0,44816,116.70833333333333
8894,2.0,,,,67.0,,,,,88,note_on,,0.0,67.0,0.0,44904,116.9375
8895,2.0,,,,71.0,,,,,8,note_on,,112.0,71.0,112.0,44912,116.95833333333333
8896,2.0,,,,71.0,,,,,88,note_on,,0.0,71.0,0.0,45000,117.1875
8897,2.0,,,,67.0,,,,,8,note_on,,112.0,67.0,112.0,45008,117.20833333333333
8898,2.0,,,,67.0,,,,,88,note_on,,0.0,67.0,0.0,45096,117.4375
8899,2.0,,,,71.0,,,,,248,note_on,,112.0,71.0,112.0,45344,118.08333333333333
8900,2.0,,,,67.0,,,,,32,note_on,,112.0,67.0,112.0,45376,118.16666666666666
8901,2.0,,,,71.0,,,,,8,note_on,,0.0,71.0,0.0,45384,118.1875
8902,2.0,,,,67.0,,,,,80,note_on,,0.0,67.0,0.0,45464,118.39583333333333
8903,2.0,,,,71.0,,,,,24,note_on,,112.0,71.0,112.0,45488,118.45833333333333
8904,2.0,,,,71.0,,,,,88,note_on,,0.0,71.0,0.0,45576,118.6875
8905,2.0,,,,67.0,,,,,8,note_on,,112.0,67.0,112.0,45584,118.70833333333333
8906,2.0,,,,67.0,,,,,88,note_on,,0.0,67.0,0.0,45672,118.9375
8907,2.0,,,,71.0,,,,,8,note_on,,112.0,71.0,112.0,45680,118.95833333333333
8908,2.0,,,,71.0,,,,,236,note_on,,0.0,71.0,0.0,45916,119.57291666666666
8909,2.0,,,,72.0,,,,,196,note_on,,112.0,72.0,112.0,46112,120.08333333333333
8910,2.0,,,,69.0,,,,,32,note_on,,112.0,69.0,112.0,46144,120.16666666666666
8911,2.0,,,,72.0,,,,,8,note_on,,0.0,72.0,0.0,46152,120.1875
8912,2.0,,,,69.0,,,,,80,note_on,,0.0,69.0,0.0,46232,120.39583333333333
8913,2.0,,,,72.0,,,,,24,note_on,,112.0,72.0,112.0,46256,120.45833333333333
8914,2.0,,,,72.0,,,,,88,note_on,,0.0,72.0,0.0,46344,120.6875
8915,2.0,,,,69.0,,,,,8,note_on,,112.0,69.0,112.0,46352,120.70833333333333
8916,2.0,,,,69.0,,,,,88,note_on,,0.0,69.0,0.0,46440,120.9375
8917,2.0,,,,72.0,,,,,8,note_on,,112.0,72.0,112.0,46448,120.95833333333333
8918,2.0,,,,72.0,,,,,88,note_on,,0.0,72.0,0.0,46536,121.1875
8919,2.0,,,,69.0,,,,,8,note_on,,112.0,69.0,112.0,46544,121.20833333333333
8920,2.0,,,,69.0,,,,,88,note_on,,0.0,69.0,0.0,46632,121.4375
8921,2.0,,,,71.0,,,,,248,note_on,,112.0,71.0,112.0,46880,122.08333333333333
8922,2.0,,,,67.0,,,,,32,note_on,,112.0,67.0,112.0,46912,122.16666666666666
8923,2.0,,,,71.0,,,,,8,note_on,,0.0,71.0,0.0,46920,122.1875
8924,2.0,,,,67.0,,,,,80,note_on,,0.0,67.0,0.0,47000,122.39583333333333
8925,2.0,,,,71.0,,,,,24,note_on,,112.0,71.0,112.0,47024,122.45833333333333
8926,2.0,,,,71.0,,,,,88,note_on,,0.0,71.0,0.0,47112,122.6875
8927,2.0,,,,67.0,,,,,8,note_on,,112.0,67.0,112.0,47120,122.70833333333333
8928,2.0,,,,67.0,,,,,88,note_on,,0.0,67.0,0.0,47208,122.9375
8929,2.0,,,,71.0,,,,,8,note_on,,112.0,71.0,112.0,47216,122.95833333333333
8930,2.0,,,,71.0,,,,,236,note_on,,0.0,71.0,0.0,47452,123.57291666666666
8931,2.0,,,,71.0,,,,,196,note_on,,112.0,71.0,112.0,47648,124.08333333333333
8932,2.0,,,,67.0,,,,,32,note_on,,112.0,67.0,112.0,47680,124.16666666666666
8933,2.0,,,,71.0,,,,,8,note_on,,0.0,71.0,0.0,47688,124.1875
8934,2.0,,,,67.0,,,,,80,note_on,,0.0,67.0,0.0,47768,124.39583333333333
8935,2.0,,,,71.0,,,,,24,note_on,,112.0,71.0,112.0,47792,124.45833333333333
8936,2.0,,,,71.0,,,,,88,note_on,,0.0,71.0,0.0,47880,124.6875
8937,2.0,,,,67.0,,,,,8,note_on,,112.0,67.0,112.0,47888,124.70833333333333
8938,2.0,,,,67.0,,,,,88,note_on,,0.0,67.0,0.0,47976,124.9375
8939,2.0,,,,71.0,,,,,8,note_on,,112.0,71.0,112.0,47984,124.95833333333333
8940,2.0,,,,71.0,,,,,88,note_on,,0.0,71.0,0.0,48072,125.1875
8941,2.0,,,,67.0,,,,,8,note_on,,112.0,67.0,112.0,48080,125.20833333333333
8942,2.0,,,,67.0,,,,,88,note_on,,0.0,67.0,0.0,48168,125.4375
8943,2.0,,,,71.0,,,,,248,note_on,,112.0,71.0,112.0,48416,126.08333333333333
8944,2.0,,,,67.0,,,,,32,note_on,,112.0,67.0,112.0,48448,126.16666666666666
8945,2.0,,,,71.0,,,,,8,note_on,,0.0,71.0,0.0,48456,126.1875
8946,2.0,,,,67.0,,,,,80,note_on,,0.0,67.0,0.0,48536,126.39583333333333
8947,2.0,,,,71.0,,,,,24,note_on,,112.0,71.0,112.0,48560,126.45833333333333
8948,2.0,,,,71.0,,,,,88,note_on,,0.0,71.0,0.0,48648,126.6875
8949,2.0,,,,67.0,,,,,8,note_on,,112.0,67.0,112.0,48656,126.70833333333333
8950,2.0,,,,67.0,,,,,88,note_on,,0.0,67.0,0.0,48744,126.9375
8951,2.0,,,,71.0,,,,,8,note_on,,112.0,71.0,112.0,48752,126.95833333333333
8952,2.0,,,,71.0,,,,,236,note_on,,0.0,71.0,0.0,48988,127.57291666666666
8953,2.0,,,,72.0,,,,,196,note_on,,112.0,72.0,112.0,49184,128.08333333333331
8954,2.0,,,,69.0,,,,,32,note_on,,112.0,69.0,112.0,49216,128.16666666666666
8955,2.0,,,,72.0,,,,,8,note_on,,0.0,72.0,0.0,49224,128.1875
8956,2.0,,,,69.0,,,,,80,note_on,,0.0,69.0,0.0,49304,128.39583333333331
8957,2.0,,,,72.0,,,,,24,note_on,,112.0,72.0,112.0,49328,128.45833333333331
8958,2.0,,,,72.0,,,,,88,note_on,,0.0,72.0,0.0,49416,128.6875
8959,2.0,,,,69.0,,,,,8,note_on,,112.0,69.0,112.0,49424,128.70833333333331
8960,2.0,,,,69.0,,,,,88,note_on,,0.0,69.0,0.0,49512,128.9375
8961,2.0,,,,72.0,,,,,8,note_on,,112.0,72.0,112.0,49520,128.95833333333331
8962,2.0,,,,72.0,,,,,88,note_on,,0.0,72.0,0.0,49608,129.1875
8963,2.0,,,,69.0,,,,,8,note_on,,112.0,69.0,112.0,49616,129.20833333333331
8964,2.0,,,,69.0,,,,,88,note_on,,0.0,69.0,0.0,49704,129.4375
8965,2.0,,,,71.0,,,,,248,note_on,,112.0,71.0,112.0,49952,130.08333333333331
8966,2.0,,,,67.0,,,,,32,note_on,,112.0,67.0,112.0,49984,130.16666666666666
8967,2.0,,,,71.0,,,,,8,note_on,,0.0,71.0,0.0,49992,130.1875
8968,2.0,,,,67.0,,,,,80,note_on,,0.0,67.0,0.0,50072,130.39583333333331
8969,2.0,,,,71.0,,,,,24,note_on,,112.0,71.0,112.0,50096,130.45833333333331
8970,2.0,,,,71.0,,,,,88,note_on,,0.0,71.0,0.0,50184,130.6875
8971,2.0,,,,67.0,,,,,8,note_on,,112.0,67.0,112.0,50192,130.70833333333331
8972,2.0,,,,67.0,,,,,88,note_on,,0.0,67.0,0.0,50280,130.9375
8973,2.0,,,,71.0,,,,,8,note_on,,112.0,71.0,112.0,50288,130.95833333333331
8974,2.0,,,,71.0,,,,,236,note_on,,0.0,71.0,0.0,50524,131.57291666666666
8975,2.0,,,,58.0,,,,,2788,note_on,,127.0,58.0,127.0,53312,138.83333333333331
8976,2.0,,,,58.0,,,,,40,note_on,,0.0,58.0,0.0,53352,138.9375
8977,2.0,,,,60.0,,,,,8,note_on,,127.0,60.0,127.0,53360,138.95833333333331
8978,2.0,,,,60.0,,,,,40,note_on,,0.0,60.0,0.0,53400,139.0625
8979,2.0,,,,58.0,,,,,8,note_on,,127.0,58.0,127.0,53408,139.08333333333331
8980,2.0,,,,58.0,,,,,40,note_on,,0.0,58.0,0.0,53448,139.1875
8981,2.0,,,,55.0,,,,,56,note_on,,127.0,55.0,127.0,53504,139.33333333333331
8982,2.0,,,,55.0,,,,,40,note_on,,0.0,55.0,0.0,53544,139.4375
8983,2.0,,,,58.0,,,,,2840,note_on,,127.0,58.0,127.0,56384,146.83333333333331
8984,2.0,,,,58.0,,,,,40,note_on,,0.0,58.0,0.0,56424,146.9375
8985,2.0,,,,60.0,,,,,8,note_on,,127.0,60.0,127.0,56432,146.95833333333331
8986,2.0,,,,60.0,,,,,40,note_on,,0.0,60.0,0.0,56472,147.0625
8987,2.0,,,,58.0,,,,,8,note_on,,127.0,58.0,127.0,56480,147.08333333333331
8988,2.0,,,,58.0,,,,,40,note_on,,0.0,58.0,0.0,56520,147.1875
8989,2.0,,,,55.0,,,,,56,note_on,,127.0,55.0,127.0,56576,147.33333333333331
8990,2.0,,,,55.0,,,,,40,note_on,,0.0,55.0,0.0,56616,147.4375
8991,2.0,,,,67.0,,,,,56,note_on,,127.0,67.0,127.0,56672,147.58333333333331
8992,2.0,,,,67.0,,,,,135,note_on,,0.0,67.0,0.0,56807,147.93489583333331
8993,2.0,,,,65.0,,,,,25,note_on,,127.0,65.0,127.0,56832,148.0
8994,2.0,,,,65.0,,,,,46,note_on,,0.0,65.0,0.0,56878,148.11979166666666
8995,2.0,,,,62.0,,,,,18,note_on,,127.0,62.0,127.0,56896,148.16666666666666
8996,2.0,,,,67.0,,,,,64,note_on,,127.0,67.0,127.0,56960,148.33333333333331
8997,2.0,,,,62.0,,,,,8,note_on,,0.0,62.0,0.0,56968,148.35416666666666
8998,2.0,,,,67.0,,,,,32,note_on,,0.0,67.0,0.0,57000,148.4375
8999,2.0,,,,67.0,,,,,440,note_on,,127.0,67.0,127.0,57440,149.58333333333331
9000,2.0,,,,67.0,,,,,135,note_on,,0.0,67.0,0.0,57575,149.93489583333331
9001,2.0,,,,65.0,,,,,25,note_on,,127.0,65.0,127.0,57600,150.0
9002,2.0,,,,65.0,,,,,46,note_on,,0.0,65.0,0.0,57646,150.11979166666666
9003,2.0,,,,62.0,,,,,18,note_on,,127.0,62.0,127.0,57664,150.16666666666666
9004,2.0,,,,67.0,,,,,64,note_on,,127.0,67.0,127.0,57728,150.33333333333331
9005,2.0,,,,62.0,,,,,8,note_on,,0.0,62.0,0.0,57736,150.35416666666666
9006,2.0,,,,67.0,,,,,32,note_on,,0.0,67.0,0.0,57768,150.4375
9007,2.0,,,,67.0,,,,,440,note_on,,127.0,67.0,127.0,58208,151.58333333333331
9008,2.0,,,,67.0,,,,,135,note_on,,0.0,67.0,0.0,58343,151.93489583333331
9009,2.0,,,,65.0,,,,,25,note_on,,127.0,65.0,127.0,58368,152.0
9010,2.0,,,,65.0,,,,,46,note_on,,0.0,65.0,0.0,58414,152.11979166666666
9011,2.0,,,,62.0,,,,,18,note_on,,127.0,62.0,127.0,58432,152.16666666666666
9012,2.0,,,,67.0,,,,,64,note_on,,127.0,67.0,127.0,58496,152.33333333333331
9013,2.0,,,,62.0,,,,,8,note_on,,0.0,62.0,0.0,58504,152.35416666666666
9014,2.0,,,,67.0,,,,,32,note_on,,0.0,67.0,0.0,58536,152.4375
9015,2.0,,,,67.0,,,,,440,note_on,,127.0,67.0,127.0,58976,153.58333333333331
9016,2.0,,,,67.0,,,,,135,note_on,,0.0,67.0,0.0,59111,153.93489583333331
9017,2.0,,,,65.0,,,,,25,note_on,,127.0,65.0,127.0,59136,154.0
9018,2.0,,,,65.0,,,,,46,note_on,,0.0,65.0,0.0,59182,154.11979166666666
9019,2.0,,,,62.0,,,,,18,note_on,,127.0,62.0,127.0,59200,154.16666666666666
9020,2.0,,,,67.0,,,,,64,note_on,,127.0,67.0,127.0,59264,154.33333333333331
9021,2.0,,,,62.0,,,,,8,note_on,,0.0,62.0,0.0,59272,154.35416666666666
9022,2.0,,,,67.0,,,,,32,note_on,,0.0,67.0,0.0,59304,154.4375
9023,2.0,,,,58.0,,,,,152,note_on,,127.0,58.0,127.0,59456,154.83333333333331
9024,2.0,,,,58.0,,,,,40,note_on,,0.0,58.0,0.0,59496,154.9375
9025,2.0,,,,60.0,,,,,8,note_on,,127.0,60.0,127.0,59504,154.95833333333331
9026,2.0,,,,60.0,,,,,40,note_on,,0.0,60.0,0.0,59544,155.0625
9027,2.0,,,,58.0,,,,,8,note_on,,127.0,58.0,127.0,59552,155.08333333333331
9028,2.0,,,,58.0,,,,,40,note_on,,0.0,58.0,0.0,59592,155.1875
9029,2.0,,,,55.0,,,,,56,note_on,,127.0,55.0,127.0,59648,155.33333333333331
9030,2.0,,,,55.0,,,,,40,note_on,,0.0,55.0,0.0,59688,155.4375
9031,2.0,,,,67.0,,,,,56,note_on,,127.0,67.0,127.0,59744,155.58333333333331
9032,2.0,,,,67.0,,,,,135,note_on,,0.0,67.0,0.0,59879,155.93489583333331
9033,2.0,,,,65.0,,,,,25,note_on,,127.0,65.0,127.0,59904,156.0
9034,2.0,,,,65.0,,,,,46,note_on,,0.0,65.0,0.0,59950,156.11979166666666
9035,2.0,,,,62.0,,,,,18,note_on,,127.0,62.0,127.0,59968,156.16666666666666
9036,2.0,,,,67.0,,,,,64,note_on,,127.0,67.0,127.0,60032,156.33333333333331
9037,2.0,,,,62.0,,,,,8,note_on,,0.0,62.0,0.0,60040,156.35416666666666
9038,2.0,,,,67.0,,,,,32,note_on,,0.0,67.0,0.0,60072,156.4375
9039,2.0,,,,67.0,,,,,440,note_on,,127.0,67.0,127.0,60512,157.58333333333331
9040,2.0,,,,67.0,,,,,135,note_on,,0.0,67.0,0.0,60647,157.93489583333331
9041,2.0,,,,65.0,,,,,25,note_on,,127.0,65.0,127.0,60672,158.0
9042,2.0,,,,65.0,,,,,46,note_on,,0.0,65.0,0.0,60718,158.11979166666666
9043,2.0,,,,62.0,,,,,18,note_on,,127.0,62.0,127.0,60736,158.16666666666666
9044,2.0,,,,67.0,,,,,64,note_on,,127.0,67.0,127.0,60800,158.33333333333331
9045,2.0,,,,62.0,,,,,8,note_on,,0.0,62.0,0.0,60808,158.35416666666666
9046,2.0,,,,67.0,,,,,32,note_on,,0.0,67.0,0.0,60840,158.4375
9047,2.0,,,,67.0,,,,,440,note_on,,127.0,67.0,127.0,61280,159.58333333333331
9048,2.0,,,,67.0,,,,,135,note_on,,0.0,67.0,0.0,61415,159.93489583333331
9049,2.0,,,,65.0,,,,,25,note_on,,127.0,65.0,127.0,61440,160.0
9050,2.0,,,,65.0,,,,,46,note_on,,0.0,65.0,0.0,61486,160.11979166666666
9051,2.0,,,,62.0,,,,,18,note_on,,127.0,62.0,127.0,61504,160.16666666666666
9052,2.0,,,,67.0,,,,,64,note_on,,127.0,67.0,127.0,61568,160.33333333333331
9053,2.0,,,,62.0,,,,,8,note_on,,0.0,62.0,0.0,61576,160.35416666666666
9054,2.0,,,,67.0,,,,,32,note_on,,0.0,67.0,0.0,61608,160.4375
9055,2.0,,,,71.0,,,,,1400,note_on,,112.0,71.0,112.0,63008,164.08333333333331
9056,2.0,,,,67.0,,,,,32,note_on,,112.0,67.0,112.0,63040,164.16666666666666
9057,2.0,,,,71.0,,,,,8,note_on,,0.0,71.0,0.0,63048,164.1875
9058,2.0,,,,67.0,,,,,80,note_on,,0.0,67.0,0.0,63128,164.39583333333331
9059,2.0,,,,71.0,,,,,24,note_on,,112.0,71.0,112.0,63152,164.45833333333331
9060,2.0,,,,71.0,,,,,88,note_on,,0.0,71.0,0.0,63240,164.6875
9061,2.0,,,,67.0,,,,,8,note_on,,112.0,67.0,112.0,63248,164.70833333333331
9062,2.0,,,,67.0,,,,,88,note_on,,0.0,67.0,0.0,63336,164.9375
9063,2.0,,,,71.0,,,,,8,note_on,,112.0,71.0,112.0,63344,164.95833333333331
9064,2.0,,,,71.0,,,,,88,note_on,,0.0,71.0,0.0,63432,165.1875
9065,2.0,,,,67.0,,,,,8,note_on,,112.0,67.0,112.0,63440,165.20833333333331
9066,2.0,,,,67.0,,,,,88,note_on,,0.0,67.0,0.0,63528,165.4375
9067,2.0,,,,71.0,,,,,248,note_on,,112.0,71.0,112.0,63776,166.08333333333331
9068,2.0,,,,67.0,,,,,32,note_on,,112.0,67.0,112.0,63808,166.16666666666666
9069,2.0,,,,71.0,,,,,8,note_on,,0.0,71.0,0.0,63816,166.1875
9070,2.0,,,,67.0,,,,,80,note_on,,0.0,67.0,0.0,63896,166.39583333333331
9071,2.0,,,,71.0,,,,,24,note_on,,112.0,71.0,112.0,63920,166.45833333333331
9072,2.0,,,,71.0,,,,,88,note_on,,0.0,71.0,0.0,64008,166.6875
9073,2.0,,,,67.0,,,,,8,note_on,,112.0,67.0,112.0,64016,166.70833333333331
9074,2.0,,,,67.0,,,,,88,note_on,,0.0,67.0,0.0,64104,166.9375
9075,2.0,,,,71.0,,,,,8,note_on,,112.0,71.0,112.0,64112,166.95833333333331
9076,2.0,,,,71.0,,,,,236,note_on,,0.0,71.0,0.0,64348,167.57291666666666
9077,2.0,,,,72.0,,,,,196,note_on,,112.0,72.0,112.0,64544,168.08333333333331
9078,2.0,,,,69.0,,,,,32,note_on,,112.0,69.0,112.0,64576,168.16666666666666
9079,2.0,,,,72.0,,,,,8,note_on,,0.0,72.0,0.0,64584,168.1875
9080,2.0,,,,69.0,,,,,80,note_on,,0.0,69.0,0.0,64664,168.39583333333331
9081,2.0,,,,72.0,,,,,24,note_on,,112.0,72.0,112.0,64688,168.45833333333331
9082,2.0,,,,72.0,,,,,88,note_on,,0.0,72.0,0.0,64776,168.6875
9083,2.0,,,,69.0,,,,,8,note_on,,112.0,69.0,112.0,64784,168.70833333333331
9084,2.0,,,,69.0,,,,,88,note_on,,0.0,69.0,0.0,64872,168.9375
9085,2.0,,,,72.0,,,,,8,note_on,,112.0,72.0,112.0,64880,168.95833333333331
9086,2.0,,,,72.0,,,,,88,note_on,,0.0,72.0,0.0,64968,169.1875
9087,2.0,,,,69.0,,,,,8,note_on,,112.0,69.0,112.0,64976,169.20833333333331
9088,2.0,,,,69.0,,,,,88,note_on,,0.0,69.0,0.0,65064,169.4375
9089,2.0,,,,71.0,,,,,248,note_on,,112.0,71.0,112.0,65312,170.08333333333331
9090,2.0,,,,67.0,,,,,32,note_on,,112.0,67.0,112.0,65344,170.16666666666666
9091,2.0,,,,71.0,,,,,8,note_on,,0.0,71.0,0.0,65352,170.1875
9092,2.0,,,,67.0,,,,,80,note_on,,0.0,67.0,0.0,65432,170.39583333333331
9093,2.0,,,,71.0,,,,,24,note_on,,112.0,71.0,112.0,65456,170.45833333333331
9094,2.0,,,,71.0,,,,,88,note_on,,0.0,71.0,0.0,65544,170.6875
9095,2.0,,,,67.0,,,,,8,note_on,,112.0,67.0,112.0,65552,170.70833333333331
9096,2.0,,,,67.0,,,,,88,note_on,,0.0,67.0,0.0,65640,170.9375
9097,2.0,,,,71.0,,,,,8,note_on,,112.0,71.0,112.0,65648,170.95833333333331
9098,2.0,,,,71.0,,,,,236,note_on,,0.0,71.0,0.0,65884,171.57291666666666
9099,2.0,,,,71.0,,,,,196,note_on,,112.0,71.0,112.0,66080,172.08333333333331
9100,2.0,,,,67.0,,,,,32,note_on,,112.0,67.0,112.0,66112,172.16666666666666
9101,2.0,,,,71.0,,,,,8,note_on,,0.0,71.0,0.0,66120,172.1875
9102,2.0,,,,67.0,,,,,80,note_on,,0.0,67.0,0.0,66200,172.39583333333331
9103,2.0,,,,71.0,,,,,24,note_on,,112.0,71.0,112.0,66224,172.45833333333331
9104,2.0,,,,71.0,,,,,88,note_on,,0.0,71.0,0.0,66312,172.6875
9105,2.0,,,,67.0,,,,,8,note_on,,112.0,67.0,112.0,66320,172.70833333333331
9106,2.0,,,,67.0,,,,,88,note_on,,0.0,67.0,0.0,66408,172.9375
9107,2.0,,,,71.0,,,,,8,note_on,,112.0,71.0,112.0,66416,172.95833333333331
9108,2.0,,,,71.0,,,,,88,note_on,,0.0,71.0,0.0,66504,173.1875
9109,2.0,,,,67.0,,,,,8,note_on,,112.0,67.0,112.0,66512,173.20833333333331
9110,2.0,,,,67.0,,,,,88,note_on,,0.0,67.0,0.0,66600,173.4375
9111,2.0,,,,71.0,,,,,248,note_on,,112.0,71.0,112.0,66848,174.08333333333331
9112,2.0,,,,67.0,,,,,32,note_on,,112.0,67.0,112.0,66880,174.16666666666666
9113,2.0,,,,71.0,,,,,8,note_on,,0.0,71.0,0.0,66888,174.1875
9114,2.0,,,,67.0,,,,,80,note_on,,0.0,67.0,0.0,66968,174.39583333333331
9115,2.0,,,,71.0,,,,,24,note_on,,112.0,71.0,112.0,66992,174.45833333333331
9116,2.0,,,,71.0,,,,,88,note_on,,0.0,71.0,0.0,67080,174.6875
9117,2.0,,,,67.0,,,,,8,note_on,,112.0,67.0,112.0,67088,174.70833333333331
9118,2.0,,,,67.0,,,,,88,note_on,,0.0,67.0,0.0,67176,174.9375
9119,2.0,,,,71.0,,,,,8,note_on,,112.0,71.0,112.0,67184,174.95833333333331
9120,2.0,,,,71.0,,,,,236,note_on,,0.0,71.0,0.0,67420,175.57291666666666
9121,2.0,,,,72.0,,,,,196,note_on,,112.0,72.0,112.0,67616,176.08333333333331
9122,2.0,,,,69.0,,,,,32,note_on,,112.0,69.0,112.0,67648,176.16666666666666
9123,2.0,,,,72.0,,,,,8,note_on,,0.0,72.0,0.0,67656,176.1875
9124,2.0,,,,69.0,,,,,80,note_on,,0.0,69.0,0.0,67736,176.39583333333331
9125,2.0,,,,72.0,,,,,24,note_on,,112.0,72.0,112.0,67760,176.45833333333331
9126,2.0,,,,72.0,,,,,88,note_on,,0.0,72.0,0.0,67848,176.6875
9127,2.0,,,,69.0,,,,,8,note_on,,112.0,69.0,112.0,67856,176.70833333333331
9128,2.0,,,,69.0,,,,,88,note_on,,0.0,69.0,0.0,67944,176.9375
9129,2.0,,,,72.0,,,,,8,note_on,,112.0,72.0,112.0,67952,176.95833333333331
9130,2.0,,,,72.0,,,,,88,note_on,,0.0,72.0,0.0,68040,177.1875
9131,2.0,,,,69.0,,,,,8,note_on,,112.0,69.0,112.0,68048,177.20833333333331
9132,2.0,,,,69.0,,,,,88,note_on,,0.0,69.0,0.0,68136,177.4375
9133,2.0,,,,71.0,,,,,248,note_on,,112.0,71.0,112.0,68384,178.08333333333331
9134,2.0,,,,67.0,,,,,32,note_on,,112.0,67.0,112.0,68416,178.16666666666666
9135,2.0,,,,71.0,,,,,8,note_on,,0.0,71.0,0.0,68424,178.1875
9136,2.0,,,,67.0,,,,,80,note_on,,0.0,67.0,0.0,68504,178.39583333333331
9137,2.0,,,,71.0,,,,,24,note_on,,112.0,71.0,112.0,68528,178.45833333333331
9138,2.0,,,,71.0,,,,,88,note_on,,0.0,71.0,0.0,68616,178.6875
9139,2.0,,,,67.0,,,,,8,note_on,,112.0,67.0,112.0,68624,178.70833333333331
9140,2.0,,,,67.0,,,,,88,note_on,,0.0,67.0,0.0,68712,178.9375
9141,2.0,,,,71.0,,,,,8,note_on,,112.0,71.0,112.0,68720,178.95833333333331
9142,2.0,,,,71.0,,,,,236,note_on,,0.0,71.0,0.0,68956,179.57291666666666
9143,2.0,,,,67.0,,,,,4,note_on,,127.0,67.0,127.0,68960,179.58333333333331
9144,2.0,,,,67.0,,,,,135,note_on,,0.0,67.0,0.0,69095,179.93489583333331
9145,2.0,,,,65.0,,,,,25,note_on,,127.0,65.0,127.0,69120,180.0
9146,2.0,,,,65.0,,,,,46,note_on,,0.0,65.0,0.0,69166,180.11979166666666
9147,2.0,,,,62.0,,,,,18,note_on,,127.0,62.0,127.0,69184,180.16666666666666
9148,2.0,,,,67.0,,,,,64,note_on,,127.0,67.0,127.0,69248,180.33333333333331
9149,2.0,,,,62.0,,,,,8,note_on,,0.0,62.0,0.0,69256,180.35416666666666
9150,2.0,,,,67.0,,,,,32,note_on,,0.0,67.0,0.0,69288,180.4375
9151,2.0,,,,67.0,,,,,440,note_on,,127.0,67.0,127.0,69728,181.58333333333331
9152,2.0,,,,67.0,,,,,135,note_on,,0.0,67.0,0.0,69863,181.93489583333331
9153,2.0,,,,65.0,,,,,25,note_on,,127.0,65.0,127.0,69888,182.0
9154,2.0,,,,65.0,,,,,46,note_on,,0.0,65.0,0.0,69934,182.11979166666666
9155,2.0,,,,62.0,,,,,18,note_on,,127.0,62.0,127.0,69952,182.16666666666666
9156,2.0,,,,67.0,,,,,64,note_on,,127.0,67.0,127.0,70016,182.33333333333331
9157,2.0,,,,62.0,,,,,8,note_on,,0.0,62.0,0.0,70024,182.35416666666666
9158,2.0,,,,67.0,,,,,32,note_on,,0.0,67.0,0.0,70056,182.4375
9159,2.0,,,,67.0,,,,,440,note_on,,127.0,67.0,127.0,70496,183.58333333333331
9160,2.0,,,,67.0,,,,,135,note_on,,0.0,67.0,0.0,70631,183.93489583333331
9161,2.0,,,,65.0,,,,,25,note_on,,127.0,65.0,127.0,70656,184.0
9162,2.0,,,,65.0,,,,,46,note_on,,0.0,65.0,0.0,70702,184.11979166666666
9163,2.0,,,,62.0,,,,,18,note_on,,127.0,62.0,127.0,70720,184.16666666666666
9164,2.0,,,,67.0,,,,,64,note_on,,127.0,67.0,127.0,70784,184.33333333333331
9165,2.0,,,,62.0,,,,,8,note_on,,0.0,62.0,0.0,70792,184.35416666666666
9166,2.0,,,,67.0,,,,,32,note_on,,0.0,67.0,0.0,70824,184.4375
9167,2.0,,,,67.0,,,,,440,note_on,,127.0,67.0,127.0,71264,185.58333333333331
9168,2.0,,,,67.0,,,,,135,note_on,,0.0,67.0,0.0,71399,185.93489583333331
9169,2.0,,,,65.0,,,,,25,note_on,,127.0,65.0,127.0,71424,186.0
9170,2.0,,,,65.0,,,,,46,note_on,,0.0,65.0,0.0,71470,186.11979166666666
9171,2.0,,,,62.0,,,,,18,note_on,,127.0,62.0,127.0,71488,186.16666666666666
9172,2.0,,,,67.0,,,,,64,note_on,,127.0,67.0,127.0,71552,186.33333333333331
9173,2.0,,,,62.0,,,,,8,note_on,,0.0,62.0,0.0,71560,186.35416666666666
9174,2.0,,,,67.0,,,,,32,note_on,,0.0,67.0,0.0,71592,186.4375
9175,2.0,,,,58.0,,,,,152,note_on,,127.0,58.0,127.0,71744,186.83333333333331
9176,2.0,,,,58.0,,,,,40,note_on,,0.0,58.0,0.0,71784,186.9375
9177,2.0,,,,60.0,,,,,8,note_on,,127.0,60.0,127.0,71792,186.95833333333331
9178,2.0,,,,60.0,,,,,40,note_on,,0.0,60.0,0.0,71832,187.0625
9179,2.0,,,,58.0,,,,,8,note_on,,127.0,58.0,127.0,71840,187.08333333333331
9180,2.0,,,,58.0,,,,,40,note_on,,0.0,58.0,0.0,71880,187.1875
9181,2.0,,,,55.0,,,,,56,note_on,,127.0,55.0,127.0,71936,187.33333333333331
9182,2.0,,,,55.0,,,,,40,note_on,,0.0,55.0,0.0,71976,187.4375
9183,2.0,,,,67.0,,,,,56,note_on,,127.0,67.0,127.0,72032,187.58333333333331
9184,2.0,,,,67.0,,,,,135,note_on,,0.0,67.0,0.0,72167,187.93489583333331
9185,2.0,,,,65.0,,,,,25,note_on,,127.0,65.0,127.0,72192,188.0
9186,2.0,,,,65.0,,,,,46,note_on,,0.0,65.0,0.0,72238,188.11979166666666
9187,2.0,,,,62.0,,,,,18,note_on,,127.0,62.0,127.0,72256,188.16666666666666
9188,2.0,,,,67.0,,,,,64,note_on,,127.0,67.0,127.0,72320,188.33333333333331
9189,2.0,,,,62.0,,,,,8,note_on,,0.0,62.0,0.0,72328,188.35416666666666
9190,2.0,,,,67.0,,,,,32,note_on,,0.0,67.0,0.0,72360,188.4375
9191,2.0,,,,67.0,,,,,440,note_on,,127.0,67.0,127.0,72800,189.58333333333331
9192,2.0,,,,67.0,,,,,135,note_on,,0.0,67.0,0.0,72935,189.93489583333331
9193,2.0,,,,65.0,,,,,25,note_on,,127.0,65.0,127.0,72960,190.0
9194,2.0,,,,65.0,,,,,46,note_on,,0.0,65.0,0.0,73006,190.11979166666666
9195,2.0,,,,62.0,,,,,18,note_on,,127.0,62.0,127.0,73024,190.16666666666666
9196,2.0,,,,67.0,,,,,64,note_on,,127.0,67.0,127.0,73088,190.33333333333331
9197,2.0,,,,62.0,,,,,8,note_on,,0.0,62.0,0.0,73096,190.35416666666666
9198,2.0,,,,67.0,,,,,32,note_on,,0.0,67.0,0.0,73128,190.4375
9199,2.0,,,,67.0,,,,,440,note_on,,127.0,67.0,127.0,73568,191.58333333333331
9200,2.0,,,,67.0,,,,,135,note_on,,0.0,67.0,0.0,73703,191.93489583333331
9201,2.0,,,,65.0,,,,,25,note_on,,127.0,65.0,127.0,73728,192.0
9202,2.0,,,,65.0,,,,,46,note_on,,0.0,65.0,0.0,73774,192.11979166666666
9203,2.0,,,,62.0,,,,,18,note_on,,127.0,62.0,127.0,73792,192.16666666666666
9204,2.0,,,,67.0,,,,,64,note_on,,127.0,67.0,127.0,73856,192.33333333333331
9205,2.0,,,,62.0,,,,,8,note_on,,0.0,62.0,0.0,73864,192.35416666666666
9206,2.0,,,,67.0,,,,,32,note_on,,0.0,67.0,0.0,73896,192.4375
9207,2.0,,,,67.0,,,,,440,note_on,,127.0,67.0,127.0,74336,193.58333333333331
9208,2.0,,,,67.0,,,,,135,note_on,,0.0,67.0,0.0,74471,193.93489583333331
9209,2.0,,,,65.0,,,,,25,note_on,,127.0,65.0,127.0,74496,194.0
9210,2.0,,,,65.0,,,,,46,note_on,,0.0,65.0,0.0,74542,194.11979166666666
9211,2.0,,,,62.0,,,,,18,note_on,,127.0,62.0,127.0,74560,194.16666666666666
9212,2.0,,,,67.0,,,,,64,note_on,,127.0,67.0,127.0,74624,194.33333333333331
9213,2.0,,,,62.0,,,,,8,note_on,,0.0,62.0,0.0,74632,194.35416666666666
9214,2.0,,,,67.0,,,,,32,note_on,,0.0,67.0,0.0,74664,194.4375
9215,2.0,,,,71.0,,,,,632,note_on,,112.0,71.0,112.0,75296,196.08333333333331
9216,2.0,,,,67.0,,,,,32,note_on,,112.0,67.0,112.0,75328,196.16666666666666
9217,2.0,,,,71.0,,,,,8,note_on,,0.0,71.0,0.0,75336,196.1875
9218,2.0,,,,67.0,,,,,80,note_on,,0.0,67.0,0.0,75416,196.39583333333331
9219,2.0,,,,71.0,,,,,24,note_on,,112.0,71.0,112.0,75440,196.45833333333331
9220,2.0,,,,71.0,,,,,88,note_on,,0.0,71.0,0.0,75528,196.6875
9221,2.0,,,,67.0,,,,,8,note_on,,112.0,67.0,112.0,75536,196.70833333333331
9222,2.0,,,,67.0,,,,,88,note_on,,0.0,67.0,0.0,75624,196.9375
9223,2.0,,,,71.0,,,,,8,note_on,,112.0,71.0,112.0,75632,196.95833333333331
9224,2.0,,,,71.0,,,,,88,note_on,,0.0,71.0,0.0,75720,197.1875
9225,2.0,,,,67.0,,,,,8,note_on,,112.0,67.0,112.0,75728,197.20833333333331
9226,2.0,,,,67.0,,,,,88,note_on,,0.0,67.0,0.0,75816,197.4375
9227,2.0,,,,71.0,,,,,248,note_on,,112.0,71.0,112.0,76064,198.08333333333331
9228,2.0,,,,67.0,,,,,32,note_on,,112.0,67.0,112.0,76096,198.16666666666666
9229,2.0,,,,71.0,,,,,8,note_on,,0.0,71.0,0.0,76104,198.1875
9230,2.0,,,,67.0,,,,,80,note_on,,0.0,67.0,0.0,76184,198.39583333333331
9231,2.0,,,,71.0,,,,,24,note_on,,112.0,71.0,112.0,76208,198.45833333333331
9232,2.0,,,,71.0,,,,,88,note_on,,0.0,71.0,0.0,76296,198.6875
9233,2.0,,,,67.0,,,,,8,note_on,,112.0,67.0,112.0,76304,198.70833333333331
9234,2.0,,,,67.0,,,,,88,note_on,,0.0,67.0,0.0,76392,198.9375
9235,2.0,,,,71.0,,,,,8,note_on,,112.0,71.0,112.0,76400,198.95833333333331
9236,2.0,,,,71.0,,,,,236,note_on,,0.0,71.0,0.0,76636,199.57291666666666
9237,2.0,,,,72.0,,,,,196,note_on,,112.0,72.0,112.0,76832,200.08333333333331
9238,2.0,,,,69.0,,,,,32,note_on,,112.0,69.0,112.0,76864,200.16666666666666
9239,2.0,,,,72.0,,,,,8,note_on,,0.0,72.0,0.0,76872,200.1875
9240,2.0,,,,69.0,,,,,80,note_on,,0.0,69.0,0.0,76952,200.39583333333331
9241,2.0,,,,72.0,,,,,24,note_on,,112.0,72.0,112.0,76976,200.45833333333331
9242,2.0,,,,72.0,,,,,88,note_on,,0.0,72.0,0.0,77064,200.6875
9243,2.0,,,,69.0,,,,,8,note_on,,112.0,69.0,112.0,77072,200.70833333333331
9244,2.0,,,,69.0,,,,,88,note_on,,0.0,69.0,0.0,77160,200.9375
9245,2.0,,,,72.0,,,,,8,note_on,,112.0,72.0,112.0,77168,200.95833333333331
9246,2.0,,,,72.0,,,,,88,note_on,,0.0,72.0,0.0,77256,201.1875
9247,2.0,,,,69.0,,,,,8,note_on,,112.0,69.0,112.0,77264,201.20833333333331
9248,2.0,,,,69.0,,,,,88,note_on,,0.0,69.0,0.0,77352,201.4375
9249,2.0,,,,71.0,,,,,248,note_on,,112.0,71.0,112.0,77600,202.08333333333331
9250,2.0,,,,67.0,,,,,32,note_on,,112.0,67.0,112.0,77632,202.16666666666666
9251,2.0,,,,71.0,,,,,8,note_on,,0.0,71.0,0.0,77640,202.1875
9252,2.0,,,,67.0,,,,,80,note_on,,0.0,67.0,0.0,77720,202.39583333333331
9253,2.0,,,,71.0,,,,,24,note_on,,112.0,71.0,112.0,77744,202.45833333333331
9254,2.0,,,,71.0,,,,,88,note_on,,0.0,71.0,0.0,77832,202.6875
9255,2.0,,,,67.0,,,,,8,note_on,,112.0,67.0,112.0,77840,202.70833333333331
9256,2.0,,,,67.0,,,,,88,note_on,,0.0,67.0,0.0,77928,202.9375
9257,2.0,,,,71.0,,,,,8,note_on,,112.0,71.0,112.0,77936,202.95833333333331
9258,2.0,,,,71.0,,,,,236,note_on,,0.0,71.0,0.0,78172,203.57291666666666
9259,2.0,,,,71.0,,,,,196,note_on,,112.0,71.0,112.0,78368,204.08333333333331
9260,2.0,,,,67.0,,,,,32,note_on,,112.0,67.0,112.0,78400,204.16666666666666
9261,2.0,,,,71.0,,,,,8,note_on,,0.0,71.0,0.0,78408,204.1875
9262,2.0,,,,67.0,,,,,80,note_on,,0.0,67.0,0.0,78488,204.39583333333331
9263,2.0,,,,71.0,,,,,24,note_on,,112.0,71.0,112.0,78512,204.45833333333331
9264,2.0,,,,71.0,,,,,88,note_on,,0.0,71.0,0.0,78600,204.6875
9265,2.0,,,,67.0,,,,,8,note_on,,112.0,67.0,112.0,78608,204.70833333333331
9266,2.0,,,,67.0,,,,,88,note_on,,0.0,67.0,0.0,78696,204.9375
9267,2.0,,,,71.0,,,,,8,note_on,,112.0,71.0,112.0,78704,204.95833333333331
9268,2.0,,,,71.0,,,,,88,note_on,,0.0,71.0,0.0,78792,205.1875
9269,2.0,,,,67.0,,,,,8,note_on,,112.0,67.0,112.0,78800,205.20833333333331
9270,2.0,,,,67.0,,,,,88,note_on,,0.0,67.0,0.0,78888,205.4375
9271,2.0,,,,71.0,,,,,248,note_on,,112.0,71.0,112.0,79136,206.08333333333331
9272,2.0,,,,67.0,,,,,32,note_on,,112.0,67.0,112.0,79168,206.16666666666666
9273,2.0,,,,71.0,,,,,8,note_on,,0.0,71.0,0.0,79176,206.1875
9274,2.0,,,,67.0,,,,,80,note_on,,0.0,67.0,0.0,79256,206.39583333333331
9275,2.0,,,,71.0,,,,,24,note_on,,112.0,71.0,112.0,79280,206.45833333333331
9276,2.0,,,,71.0,,,,,88,note_on,,0.0,71.0,0.0,79368,206.6875
9277,2.0,,,,67.0,,,,,8,note_on,,112.0,67.0,112.0,79376,206.70833333333331
9278,2.0,,,,67.0,,,,,88,note_on,,0.0,67.0,0.0,79464,206.9375
9279,2.0,,,,71.0,,,,,8,note_on,,112.0,71.0,112.0,79472,206.95833333333331
9280,2.0,,,,71.0,,,,,236,note_on,,0.0,71.0,0.0,79708,207.57291666666666
9281,2.0,,,,72.0,,,,,196,note_on,,112.0,72.0,112.0,79904,208.08333333333331
9282,2.0,,,,69.0,,,,,32,note_on,,112.0,69.0,112.0,79936,208.16666666666666
9283,2.0,,,,72.0,,,,,8,note_on,,0.0,72.0,0.0,79944,208.1875
9284,2.0,,,,69.0,,,,,80,note_on,,0.0,69.0,0.0,80024,208.39583333333331
9285,2.0,,,,72.0,,,,,24,note_on,,112.0,72.0,112.0,80048,208.45833333333331
9286,2.0,,,,72.0,,,,,88,note_on,,0.0,72.0,0.0,80136,208.6875
9287,2.0,,,,69.0,,,,,8,note_on,,112.0,69.0,112.0,80144,208.70833333333331
9288,2.0,,,,69.0,,,,,88,note_on,,0.0,69.0,0.0,80232,208.9375
9289,2.0,,,,72.0,,,,,8,note_on,,112.0,72.0,112.0,80240,208.95833333333331
9290,2.0,,,,72.0,,,,,88,note_on,,0.0,72.0,0.0,80328,209.1875
9291,2.0,,,,69.0,,,,,8,note_on,,112.0,69.0,112.0,80336,209.20833333333331
9292,2.0,,,,69.0,,,,,88,note_on,,0.0,69.0,0.0,80424,209.4375
9293,2.0,,,,71.0,,,,,248,note_on,,112.0,71.0,112.0,80672,210.08333333333331
9294,2.0,,,,67.0,,,,,32,note_on,,112.0,67.0,112.0,80704,210.16666666666666
9295,2.0,,,,71.0,,,,,8,note_on,,0.0,71.0,0.0,80712,210.1875
9296,2.0,,,,67.0,,,,,80,note_on,,0.0,67.0,0.0,80792,210.39583333333331
9297,2.0,,,,71.0,,,,,24,note_on,,112.0,71.0,112.0,80816,210.45833333333331
9298,2.0,,,,71.0,,,,,88,note_on,,0.0,71.0,0.0,80904,210.6875
9299,2.0,,,,67.0,,,,,8,note_on,,112.0,67.0,112.0,80912,210.70833333333331
9300,2.0,,,,67.0,,,,,88,note_on,,0.0,67.0,0.0,81000,210.9375
9301,2.0,,,,71.0,,,,,8,note_on,,112.0,71.0,112.0,81008,210.95833333333331
9302,2.0,,,,71.0,,,,,236,note_on,,0.0,71.0,0.0,81244,211.57291666666666
9303,2.0,,,,71.0,,,,,196,note_on,,112.0,71.0,112.0,81440,212.08333333333331
9304,2.0,,,,67.0,,,,,32,note_on,,112.0,67.0,112.0,81472,212.16666666666666
9305,2.0,,,,71.0,,,,,8,note_on,,0.0,71.0,0.0,81480,212.1875
9306,2.0,,,,67.0,,,,,80,note_on,,0.0,67.0,0.0,81560,212.39583333333331
9307,2.0,,,,71.0,,,,,24,note_on,,112.0,71.0,112.0,81584,212.45833333333331
9308,2.0,,,,71.0,,,,,88,note_on,,0.0,71.0,0.0,81672,212.6875
9309,2.0,,,,67.0,,,,,8,note_on,,112.0,67.0,112.0,81680,212.70833333333331
9310,2.0,,,,67.0,,,,,88,note_on,,0.0,67.0,0.0,81768,212.9375
9311,2.0,,,,71.0,,,,,8,note_on,,112.0,71.0,112.0,81776,212.95833333333331
9312,2.0,,,,71.0,,,,,88,note_on,,0.0,71.0,0.0,81864,213.1875
9313,2.0,,,,67.0,,,,,8,note_on,,112.0,67.0,112.0,81872,213.20833333333331
9314,2.0,,,,67.0,,,,,88,note_on,,0.0,67.0,0.0,81960,213.4375
9315,2.0,,,,71.0,,,,,248,note_on,,112.0,71.0,112.0,82208,214.08333333333331
9316,2.0,,,,67.0,,,,,32,note_on,,112.0,67.0,112.0,82240,214.16666666666666
9317,2.0,,,,71.0,,,,,8,note_on,,0.0,71.0,0.0,82248,214.1875
9318,2.0,,,,67.0,,,,,80,note_on,,0.0,67.0,0.0,82328,214.39583333333331
9319,2.0,,,,71.0,,,,,24,note_on,,112.0,71.0,112.0,82352,214.45833333333331
9320,2.0,,,,71.0,,,,,88,note_on,,0.0,71.0,0.0,82440,214.6875
9321,2.0,,,,67.0,,,,,8,note_on,,112.0,67.0,112.0,82448,214.70833333333331
9322,2.0,,,,67.0,,,,,88,note_on,,0.0,67.0,0.0,82536,214.9375
9323,2.0,,,,71.0,,,,,8,note_on,,112.0,71.0,112.0,82544,214.95833333333331
9324,2.0,,,,71.0,,,,,236,note_on,,0.0,71.0,0.0,82780,215.57291666666666
9325,2.0,,,,72.0,,,,,196,note_on,,112.0,72.0,112.0,82976,216.08333333333331
9326,2.0,,,,69.0,,,,,32,note_on,,112.0,69.0,112.0,83008,216.16666666666666
9327,2.0,,,,72.0,,,,,8,note_on,,0.0,72.0,0.0,83016,216.1875
9328,2.0,,,,69.0,,,,,80,note_on,,0.0,69.0,0.0,83096,216.39583333333331
9329,2.0,,,,72.0,,,,,24,note_on,,112.0,72.0,112.0,83120,216.45833333333331
9330,2.0,,,,72.0,,,,,88,note_on,,0.0,72.0,0.0,83208,216.6875
9331,2.0,,,,69.0,,,,,8,note_on,,112.0,69.0,112.0,83216,216.70833333333331
9332,2.0,,,,69.0,,,,,88,note_on,,0.0,69.0,0.0,83304,216.9375
9333,2.0,,,,72.0,,,,,8,note_on,,112.0,72.0,112.0,83312,216.95833333333331
9334,2.0,,,,72.0,,,,,88,note_on,,0.0,72.0,0.0,83400,217.1875
9335,2.0,,,,69.0,,,,,8,note_on,,112.0,69.0,112.0,83408,217.20833333333331
9336,2.0,,,,69.0,,,,,88,note_on,,0.0,69.0,0.0,83496,217.4375
9337,2.0,,,,71.0,,,,,248,note_on,,112.0,71.0,112.0,83744,218.08333333333331
9338,2.0,,,,67.0,,,,,32,note_on,,112.0,67.0,112.0,83776,218.16666666666666
9339,2.0,,,,71.0,,,,,8,note_on,,0.0,71.0,0.0,83784,218.1875
9340,2.0,,,,67.0,,,,,80,note_on,,0.0,67.0,0.0,83864,218.39583333333331
9341,2.0,,,,71.0,,,,,24,note_on,,112.0,71.0,112.0,83888,218.45833333333331
9342,2.0,,,,71.0,,,,,88,note_on,,0.0,71.0,0.0,83976,218.6875
9343,2.0,,,,67.0,,,,,8,note_on,,112.0,67.0,112.0,83984,218.70833333333331
9344,2.0,,,,67.0,,,,,88,note_on,,0.0,67.0,0.0,84072,218.9375
9345,2.0,,,,71.0,,,,,8,note_on,,112.0,71.0,112.0,84080,218.95833333333331
9346,2.0,,,,71.0,,,,,236,note_on,,0.0,71.0,0.0,84316,219.57291666666666
9347,2.0,,,,71.0,,,,,196,note_on,,112.0,71.0,112.0,84512,220.08333333333331
9348,2.0,,,,67.0,,,,,32,note_on,,112.0,67.0,112.0,84544,220.16666666666666
9349,2.0,,,,71.0,,,,,8,note_on,,0.0,71.0,0.0,84552,220.1875
9350,2.0,,,,67.0,,,,,80,note_on,,0.0,67.0,0.0,84632,220.39583333333331
9351,2.0,,,,71.0,,,,,24,note_on,,112.0,71.0,112.0,84656,220.45833333333331
9352,2.0,,,,71.0,,,,,88,note_on,,0.0,71.0,0.0,84744,220.6875
9353,2.0,,,,67.0,,,,,8,note_on,,112.0,67.0,112.0,84752,220.70833333333331
9354,2.0,,,,67.0,,,,,88,note_on,,0.0,67.0,0.0,84840,220.9375
9355,2.0,,,,71.0,,,,,8,note_on,,112.0,71.0,112.0,84848,220.95833333333331
9356,2.0,,,,71.0,,,,,88,note_on,,0.0,71.0,0.0,84936,221.1875
9357,2.0,,,,67.0,,,,,8,note_on,,112.0,67.0,112.0,84944,221.20833333333331
9358,2.0,,,,67.0,,,,,88,note_on,,0.0,67.0,0.0,85032,221.4375
9359,2.0,,,,71.0,,,,,248,note_on,,112.0,71.0,112.0,85280,222.08333333333331
9360,2.0,,,,67.0,,,,,32,note_on,,112.0,67.0,112.0,85312,222.16666666666666
9361,2.0,,,,71.0,,,,,8,note_on,,0.0,71.0,0.0,85320,222.1875
9362,2.0,,,,67.0,,,,,80,note_on,,0.0,67.0,0.0,85400,222.39583333333331
9363,2.0,,,,71.0,,,,,24,note_on,,112.0,71.0,112.0,85424,222.45833333333331
9364,2.0,,,,71.0,,,,,88,note_on,,0.0,71.0,0.0,85512,222.6875
9365,2.0,,,,67.0,,,,,8,note_on,,112.0,67.0,112.0,85520,222.70833333333331
9366,2.0,,,,67.0,,,,,88,note_on,,0.0,67.0,0.0,85608,222.9375
9367,2.0,,,,71.0,,,,,8,note_on,,112.0,71.0,112.0,85616,222.95833333333331
9368,2.0,,,,71.0,,,,,236,note_on,,0.0,71.0,0.0,85852,223.57291666666666
9369,2.0,,,,72.0,,,,,196,note_on,,112.0,72.0,112.0,86048,224.08333333333331
9370,2.0,,,,69.0,,,,,32,note_on,,112.0,69.0,112.0,86080,224.16666666666666
9371,2.0,,,,72.0,,,,,8,note_on,,0.0,72.0,0.0,86088,224.1875
9372,2.0,,,,69.0,,,,,80,note_on,,0.0,69.0,0.0,86168,224.39583333333331
9373,2.0,,,,72.0,,,,,24,note_on,,112.0,72.0,112.0,86192,224.45833333333331
9374,2.0,,,,72.0,,,,,88,note_on,,0.0,72.0,0.0,86280,224.6875
9375,2.0,,,,69.0,,,,,8,note_on,,112.0,69.0,112.0,86288,224.70833333333331
9376,2.0,,,,69.0,,,,,88,note_on,,0.0,69.0,0.0,86376,224.9375
9377,2.0,,,,72.0,,,,,8,note_on,,112.0,72.0,112.0,86384,224.95833333333331
9378,2.0,,,,72.0,,,,,88,note_on,,0.0,72.0,0.0,86472,225.1875
9379,2.0,,,,69.0,,,,,8,note_on,,112.0,69.0,112.0,86480,225.20833333333331
9380,2.0,,,,69.0,,,,,88,note_on,,0.0,69.0,0.0,86568,225.4375
9381,2.0,,,,71.0,,,,,248,note_on,,112.0,71.0,112.0,86816,226.08333333333331
9382,2.0,,,,67.0,,,,,32,note_on,,112.0,67.0,112.0,86848,226.16666666666666
9383,2.0,,,,71.0,,,,,8,note_on,,0.0,71.0,0.0,86856,226.1875
9384,2.0,,,,67.0,,,,,80,note_on,,0.0,67.0,0.0,86936,226.39583333333331
9385,2.0,,,,71.0,,,,,24,note_on,,112.0,71.0,112.0,86960,226.45833333333331
9386,2.0,,,,71.0,,,,,88,note_on,,0.0,71.0,0.0,87048,226.6875
9387,2.0,,,,67.0,,,,,8,note_on,,112.0,67.0,112.0,87056,226.70833333333331
9388,2.0,,,,67.0,,,,,88,note_on,,0.0,67.0,0.0,87144,226.9375
9389,2.0,,,,71.0,,,,,8,note_on,,112.0,71.0,112.0,87152,226.95833333333331
9390,2.0,,,,71.0,,,,,236,note_on,,0.0,71.0,0.0,87388,227.57291666666666
9391,2.0,,,,71.0,,,,,196,note_on,,112.0,71.0,112.0,87584,228.08333333333331
9392,2.0,,,,67.0,,,,,32,note_on,,112.0,67.0,112.0,87616,228.16666666666666
9393,2.0,,,,71.0,,,,,8,note_on,,0.0,71.0,0.0,87624,228.1875
9394,2.0,,,,67.0,,,,,80,note_on,,0.0,67.0,0.0,87704,228.39583333333331
9395,2.0,,,,71.0,,,,,24,note_on,,112.0,71.0,112.0,87728,228.45833333333331
9396,2.0,,,,71.0,,,,,88,note_on,,0.0,71.0,0.0,87816,228.6875
9397,2.0,,,,67.0,,,,,8,note_on,,112.0,67.0,112.0,87824,228.70833333333331
9398,2.0,,,,67.0,,,,,88,note_on,,0.0,67.0,0.0,87912,228.9375
9399,2.0,,,,71.0,,,,,8,note_on,,112.0,71.0,112.0,87920,228.95833333333331
9400,2.0,,,,71.0,,,,,88,note_on,,0.0,71.0,0.0,88008,229.1875
9401,2.0,,,,67.0,,,,,8,note_on,,112.0,67.0,112.0,88016,229.20833333333331
9402,2.0,,,,67.0,,,,,88,note_on,,0.0,67.0,0.0,88104,229.4375
9403,2.0,,,,71.0,,,,,248,note_on,,112.0,71.0,112.0,88352,230.08333333333331
9404,2.0,,,,67.0,,,,,32,note_on,,112.0,67.0,112.0,88384,230.16666666666666
9405,2.0,,,,71.0,,,,,8,note_on,,0.0,71.0,0.0,88392,230.1875
9406,2.0,,,,67.0,,,,,80,note_on,,0.0,67.0,0.0,88472,230.39583333333331
9407,2.0,,,,71.0,,,,,24,note_on,,112.0,71.0,112.0,88496,230.45833333333331
9408,2.0,,,,71.0,,,,,88,note_on,,0.0,71.0,0.0,88584,230.6875
9409,2.0,,,,67.0,,,,,8,note_on,,112.0,67.0,112.0,88592,230.70833333333331
9410,2.0,,,,67.0,,,,,88,note_on,,0.0,67.0,0.0,88680,230.9375
9411,2.0,,,,71.0,,,,,8,note_on,,112.0,71.0,112.0,88688,230.95833333333331
9412,2.0,,,,71.0,,,,,236,note_on,,0.0,71.0,0.0,88924,231.57291666666666
9413,2.0,,,,72.0,,,,,196,note_on,,112.0,72.0,112.0,89120,232.08333333333331
9414,2.0,,,,69.0,,,,,32,note_on,,112.0,69.0,112.0,89152,232.16666666666666
9415,2.0,,,,72.0,,,,,8,note_on,,0.0,72.0,0.0,89160,232.1875
9416,2.0,,,,69.0,,,,,80,note_on,,0.0,69.0,0.0,89240,232.39583333333331
9417,2.0,,,,72.0,,,,,24,note_on,,112.0,72.0,112.0,89264,232.45833333333331
9418,2.0,,,,72.0,,,,,88,note_on,,0.0,72.0,0.0,89352,232.6875
9419,2.0,,,,69.0,,,,,8,note_on,,112.0,69.0,112.0,89360,232.70833333333331
9420,2.0,,,,69.0,,,,,88,note_on,,0.0,69.0,0.0,89448,232.9375
9421,2.0,,,,72.0,,,,,8,note_on,,112.0,72.0,112.0,89456,232.95833333333331
9422,2.0,,,,72.0,,,,,88,note_on,,0.0,72.0,0.0,89544,233.1875
9423,2.0,,,,69.0,,,,,8,note_on,,112.0,69.0,112.0,89552,233.20833333333331
9424,2.0,,,,69.0,,,,,88,note_on,,0.0,69.0,0.0,89640,233.4375
9425,2.0,,,,71.0,,,,,248,note_on,,112.0,71.0,112.0,89888,234.08333333333331
9426,2.0,,,,67.0,,,,,32,note_on,,112.0,67.0,112.0,89920,234.16666666666666
9427,2.0,,,,71.0,,,,,8,note_on,,0.0,71.0,0.0,89928,234.1875
9428,2.0,,,,67.0,,,,,80,note_on,,0.0,67.0,0.0,90008,234.39583333333331
9429,2.0,,,,71.0,,,,,24,note_on,,112.0,71.0,112.0,90032,234.45833333333331
9430,2.0,,,,71.0,,,,,88,note_on,,0.0,71.0,0.0,90120,234.6875
9431,2.0,,,,67.0,,,,,8,note_on,,112.0,67.0,112.0,90128,234.70833333333331
9432,2.0,,,,67.0,,,,,88,note_on,,0.0,67.0,0.0,90216,234.9375
9433,2.0,,,,71.0,,,,,8,note_on,,112.0,71.0,112.0,90224,234.95833333333331
9434,2.0,,,,71.0,,,,,236,note_on,,0.0,71.0,0.0,90460,235.57291666666666
9435,2.0,,,,71.0,,,,,196,note_on,,112.0,71.0,112.0,90656,236.08333333333331
9436,2.0,,,,67.0,,,,,32,note_on,,110.0,67.0,110.0,90688,236.16666666666666
9437,2.0,,,,71.0,,,,,8,note_on,,0.0,71.0,0.0,90696,236.1875
9438,2.0,,,,67.0,,,,,80,note_on,,0.0,67.0,0.0,90776,236.39583333333331
9439,2.0,,,,71.0,,,,,24,note_on,,106.0,71.0,106.0,90800,236.45833333333331
9440,2.0,,,,71.0,,,,,88,note_on,,0.0,71.0,0.0,90888,236.6875
9441,2.0,,,,67.0,,,,,8,note_on,,103.0,67.0,103.0,90896,236.70833333333331
9442,2.0,,,,67.0,,,,,88,note_on,,0.0,67.0,0.0,90984,236.9375
9443,2.0,,,,71.0,,,,,8,note_on,,99.0,71.0,99.0,90992,236.95833333333331
9444,2.0,,,,71.0,,,,,88,note_on,,0.0,71.0,0.0,91080,237.1875
9445,2.0,,,,67.0,,,,,8,note_on,,93.0,67.0,93.0,91088,237.20833333333331
9446,2.0,,,,67.0,,,,,88,note_on,,0.0,67.0,0.0,91176,237.4375
9447,2.0,,,,71.0,,,,,248,note_on,,79.0,71.0,79.0,91424,238.08333333333331
9448,2.0,,,,67.0,,,,,32,note_on,,78.0,67.0,78.0,91456,238.16666666666666
9449,2.0,,,,71.0,,,,,8,note_on,,0.0,71.0,0.0,91464,238.1875
9450,2.0,,,,67.0,,,,,80,note_on,,0.0,67.0,0.0,91544,238.39583333333331
9451,2.0,,,,71.0,,,,,24,note_on,,74.0,71.0,74.0,91568,238.45833333333331
9452,2.0,,,,71.0,,,,,88,note_on,,0.0,71.0,0.0,91656,238.6875
9453,2.0,,,,67.0,,,,,8,note_on,,69.0,67.0,69.0,91664,238.70833333333331
9454,2.0,,,,67.0,,,,,88,note_on,,0.0,67.0,0.0,91752,238.9375
9455,2.0,,,,71.0,,,,,8,note_on,,64.0,71.0,64.0,91760,238.95833333333331
9456,2.0,,,,71.0,,,,,236,note_on,,0.0,71.0,0.0,91996,239.57291666666666
9457,2.0,,,,72.0,,,,,196,note_on,,41.0,72.0,41.0,92192,240.08333333333331
9458,2.0,,,,69.0,,,,,32,note_on,,39.0,69.0,39.0,92224,240.16666666666666
9459,2.0,,,,72.0,,,,,8,note_on,,0.0,72.0,0.0,92232,240.1875
9460,2.0,,,,69.0,,,,,80,note_on,,0.0,69.0,0.0,92312,240.39583333333331
9461,2.0,,,,72.0,,,,,24,note_on,,36.0,72.0,36.0,92336,240.45833333333331
9462,2.0,,,,72.0,,,,,88,note_on,,0.0,72.0,0.0,92424,240.6875
9463,2.0,,,,69.0,,,,,8,note_on,,34.0,69.0,34.0,92432,240.70833333333331
9464,2.0,,,,69.0,,,,,88,note_on,,0.0,69.0,0.0,92520,240.9375
9465,2.0,,,,72.0,,,,,8,note_on,,29.0,72.0,29.0,92528,240.95833333333331
9466,2.0,,,,72.0,,,,,88,note_on,,0.0,72.0,0.0,92616,241.1875
9467,2.0,,,,69.0,,,,,8,note_on,,26.0,69.0,26.0,92624,241.20833333333331
9468,2.0,,,,69.0,,,,,88,note_on,,0.0,69.0,0.0,92712,241.4375
9469,2.0,,,,71.0,,,,,248,note_on,,14.0,71.0,14.0,92960,242.08333333333331
9470,2.0,,,,67.0,,,,,32,note_on,,13.0,67.0,13.0,92992,242.16666666666666
9471,2.0,,,,71.0,,,,,8,note_on,,0.0,71.0,0.0,93000,242.1875
9472,2.0,,,,67.0,,,,,80,note_on,,0.0,67.0,0.0,93080,242.39583333333331
9473,2.0,,,,71.0,,,,,24,note_on,,10.0,71.0,10.0,93104,242.45833333333331
9474,2.0,,,,71.0,,,,,88,note_on,,0.0,71.0,0.0,93192,242.6875
9475,2.0,,,,67.0,,,,,8,note_on,,6.0,67.0,6.0,93200,242.70833333333331
9476,2.0,,,,67.0,,,,,88,note_on,,0.0,67.0,0.0,93288,242.9375
9477,2.0,,,,71.0,,,,,8,note_on,,1.0,71.0,1.0,93296,242.95833333333331
9478,2.0,,,,71.0,,,,,236,note_on,,0.0,71.0,0.0,93532,243.57291666666666
9479,,,,,,,,,,0,end_of_track,,,,,4638347128,12079028.979166666
9480,6.0,0.0,,,,,,,,0,control_change,0.0,,,,0,0.0
9481,6.0,,,,,,53.0,,,0,program_change,,,,,0,0.0
9482,,,"(74, 65, 90, 50, 1, 0, 0, 0, 0, 0, 0, 0, 0, 0, 0, 0, 0, 0, 0, 0)",,,,,,,0,sequencer_specific,,,,,4638359696,12079061.708333332
9483,6.0,10.0,,,,,,,,0,control_change,1.0,,,,0,0.0
9484,6.0,7.0,,,,,,,,0,control_change,59.0,,,,0,0.0
9485,,,,Voice Oohs,,,,,,0,track_name,,,,,4638359912,12079062.270833332
9486,6.0,91.0,,,,,,,,0,control_change,40.0,,,,0,0.0
9487,6.0,93.0,,,,,,,,0,control_change,0.0,,,,0,0.0
9488,6.0,,,,59.0,,,,,19380,note_on,,112.0,59.0,112.0,19380,50.46875
9489,6.0,,,,59.0,,,,,40,note_on,,0.0,59.0,0.0,19420,50.572916666666664
9490,6.0,,,,55.0,,,,,4,note_on,,112.0,55.0,112.0,19424,50.58333333333333
9491,6.0,,,,55.0,,,,,88,note_on,,0.0,55.0,0.0,19512,50.8125
9492,6.0,,,,59.0,,,,,24,note_on,,112.0,59.0,112.0,19536,50.875
9493,6.0,,,,59.0,,,,,88,note_on,,0.0,59.0,0.0,19624,51.104166666666664
9494,6.0,,,,55.0,,,,,8,note_on,,112.0,55.0,112.0,19632,51.125
9495,6.0,,,,55.0,,,,,88,note_on,,0.0,55.0,0.0,19720,51.354166666666664
9496,6.0,,,,59.0,,,,,8,note_on,,112.0,59.0,112.0,19728,51.375
9497,6.0,,,,59.0,,,,,88,note_on,,0.0,59.0,0.0,19816,51.604166666666664
9498,6.0,,,,55.0,,,,,8,note_on,,112.0,55.0,112.0,19824,51.625
9499,6.0,,,,55.0,,,,,88,note_on,,0.0,55.0,0.0,19912,51.854166666666664
9500,6.0,,,,59.0,,,,,236,note_on,,112.0,59.0,112.0,20148,52.46875
9501,6.0,,,,59.0,,,,,40,note_on,,0.0,59.0,0.0,20188,52.572916666666664
9502,6.0,,,,55.0,,,,,4,note_on,,112.0,55.0,112.0,20192,52.58333333333333
9503,6.0,,,,55.0,,,,,88,note_on,,0.0,55.0,0.0,20280,52.8125
9504,6.0,,,,59.0,,,,,24,note_on,,112.0,59.0,112.0,20304,52.875
9505,6.0,,,,59.0,,,,,88,note_on,,0.0,59.0,0.0,20392,53.104166666666664
9506,6.0,,,,55.0,,,,,8,note_on,,112.0,55.0,112.0,20400,53.125
9507,6.0,,,,55.0,,,,,88,note_on,,0.0,55.0,0.0,20488,53.354166666666664
9508,6.0,,,,59.0,,,,,8,note_on,,112.0,59.0,112.0,20496,53.375
9509,6.0,,,,59.0,,,,,236,note_on,,0.0,59.0,0.0,20732,53.98958333333333
9510,6.0,,,,60.0,,,,,184,note_on,,112.0,60.0,112.0,20916,54.46875
9511,6.0,,,,60.0,,,,,40,note_on,,0.0,60.0,0.0,20956,54.572916666666664
9512,6.0,,,,57.0,,,,,4,note_on,,112.0,57.0,112.0,20960,54.58333333333333
9513,6.0,,,,57.0,,,,,88,note_on,,0.0,57.0,0.0,21048,54.8125
9514,6.0,,,,60.0,,,,,24,note_on,,112.0,60.0,112.0,21072,54.875
9515,6.0,,,,60.0,,,,,88,note_on,,0.0,60.0,0.0,21160,55.104166666666664
9516,6.0,,,,57.0,,,,,8,note_on,,112.0,57.0,112.0,21168,55.125
9517,6.0,,,,57.0,,,,,88,note_on,,0.0,57.0,0.0,21256,55.354166666666664
9518,6.0,,,,60.0,,,,,8,note_on,,112.0,60.0,112.0,21264,55.375
9519,6.0,,,,60.0,,,,,88,note_on,,0.0,60.0,0.0,21352,55.604166666666664
9520,6.0,,,,57.0,,,,,8,note_on,,112.0,57.0,112.0,21360,55.625
9521,6.0,,,,57.0,,,,,88,note_on,,0.0,57.0,0.0,21448,55.854166666666664
9522,6.0,,,,59.0,,,,,236,note_on,,112.0,59.0,112.0,21684,56.46875
9523,6.0,,,,59.0,,,,,40,note_on,,0.0,59.0,0.0,21724,56.572916666666664
9524,6.0,,,,55.0,,,,,4,note_on,,112.0,55.0,112.0,21728,56.58333333333333
9525,6.0,,,,55.0,,,,,88,note_on,,0.0,55.0,0.0,21816,56.8125
9526,6.0,,,,59.0,,,,,24,note_on,,112.0,59.0,112.0,21840,56.875
9527,6.0,,,,59.0,,,,,88,note_on,,0.0,59.0,0.0,21928,57.104166666666664
9528,6.0,,,,55.0,,,,,8,note_on,,112.0,55.0,112.0,21936,57.125
9529,6.0,,,,55.0,,,,,88,note_on,,0.0,55.0,0.0,22024,57.354166666666664
9530,6.0,,,,59.0,,,,,8,note_on,,112.0,59.0,112.0,22032,57.375
9531,6.0,,,,59.0,,,,,236,note_on,,0.0,59.0,0.0,22268,57.98958333333333
9532,6.0,,,,59.0,,,,,184,note_on,,112.0,59.0,112.0,22452,58.46875
9533,6.0,,,,59.0,,,,,40,note_on,,0.0,59.0,0.0,22492,58.572916666666664
9534,6.0,,,,55.0,,,,,4,note_on,,112.0,55.0,112.0,22496,58.58333333333333
9535,6.0,,,,55.0,,,,,88,note_on,,0.0,55.0,0.0,22584,58.8125
9536,6.0,,,,59.0,,,,,24,note_on,,112.0,59.0,112.0,22608,58.875
9537,6.0,,,,59.0,,,,,88,note_on,,0.0,59.0,0.0,22696,59.104166666666664
9538,6.0,,,,55.0,,,,,8,note_on,,112.0,55.0,112.0,22704,59.125
9539,6.0,,,,55.0,,,,,88,note_on,,0.0,55.0,0.0,22792,59.354166666666664
9540,6.0,,,,59.0,,,,,8,note_on,,112.0,59.0,112.0,22800,59.375
9541,6.0,,,,59.0,,,,,88,note_on,,0.0,59.0,0.0,22888,59.604166666666664
9542,6.0,,,,55.0,,,,,8,note_on,,112.0,55.0,112.0,22896,59.625
9543,6.0,,,,55.0,,,,,88,note_on,,0.0,55.0,0.0,22984,59.854166666666664
9544,6.0,,,,59.0,,,,,236,note_on,,112.0,59.0,112.0,23220,60.46875
9545,6.0,,,,59.0,,,,,40,note_on,,0.0,59.0,0.0,23260,60.572916666666664
9546,6.0,,,,55.0,,,,,4,note_on,,112.0,55.0,112.0,23264,60.58333333333333
9547,6.0,,,,55.0,,,,,88,note_on,,0.0,55.0,0.0,23352,60.8125
9548,6.0,,,,59.0,,,,,24,note_on,,112.0,59.0,112.0,23376,60.875
9549,6.0,,,,59.0,,,,,88,note_on,,0.0,59.0,0.0,23464,61.104166666666664
9550,6.0,,,,55.0,,,,,8,note_on,,112.0,55.0,112.0,23472,61.125
9551,6.0,,,,55.0,,,,,88,note_on,,0.0,55.0,0.0,23560,61.354166666666664
9552,6.0,,,,59.0,,,,,8,note_on,,112.0,59.0,112.0,23568,61.375
9553,6.0,,,,59.0,,,,,236,note_on,,0.0,59.0,0.0,23804,61.98958333333333
9554,6.0,,,,60.0,,,,,184,note_on,,112.0,60.0,112.0,23988,62.46875
9555,6.0,,,,60.0,,,,,40,note_on,,0.0,60.0,0.0,24028,62.572916666666664
9556,6.0,,,,57.0,,,,,4,note_on,,112.0,57.0,112.0,24032,62.58333333333333
9557,6.0,,,,57.0,,,,,88,note_on,,0.0,57.0,0.0,24120,62.8125
9558,6.0,,,,60.0,,,,,24,note_on,,112.0,60.0,112.0,24144,62.875
9559,6.0,,,,60.0,,,,,88,note_on,,0.0,60.0,0.0,24232,63.104166666666664
9560,6.0,,,,57.0,,,,,8,note_on,,112.0,57.0,112.0,24240,63.125
9561,6.0,,,,57.0,,,,,88,note_on,,0.0,57.0,0.0,24328,63.354166666666664
9562,6.0,,,,60.0,,,,,8,note_on,,112.0,60.0,112.0,24336,63.375
9563,6.0,,,,60.0,,,,,88,note_on,,0.0,60.0,0.0,24424,63.604166666666664
9564,6.0,,,,57.0,,,,,8,note_on,,112.0,57.0,112.0,24432,63.625
9565,6.0,,,,57.0,,,,,88,note_on,,0.0,57.0,0.0,24520,63.854166666666664
9566,6.0,,,,59.0,,,,,236,note_on,,112.0,59.0,112.0,24756,64.46875
9567,6.0,,,,59.0,,,,,40,note_on,,0.0,59.0,0.0,24796,64.57291666666666
9568,6.0,,,,55.0,,,,,4,note_on,,112.0,55.0,112.0,24800,64.58333333333333
9569,6.0,,,,55.0,,,,,88,note_on,,0.0,55.0,0.0,24888,64.8125
9570,6.0,,,,59.0,,,,,24,note_on,,112.0,59.0,112.0,24912,64.875
9571,6.0,,,,59.0,,,,,88,note_on,,0.0,59.0,0.0,25000,65.10416666666666
9572,6.0,,,,55.0,,,,,8,note_on,,112.0,55.0,112.0,25008,65.125
9573,6.0,,,,55.0,,,,,88,note_on,,0.0,55.0,0.0,25096,65.35416666666666
9574,6.0,,,,59.0,,,,,8,note_on,,112.0,59.0,112.0,25104,65.375
9575,6.0,,,,59.0,,,,,236,note_on,,0.0,59.0,0.0,25340,65.98958333333333
9576,6.0,,,,59.0,,,,,12472,note_on,,112.0,59.0,112.0,37812,98.46875
9577,6.0,,,,59.0,,,,,40,note_on,,0.0,59.0,0.0,37852,98.57291666666666
9578,6.0,,,,55.0,,,,,4,note_on,,112.0,55.0,112.0,37856,98.58333333333333
9579,6.0,,,,55.0,,,,,88,note_on,,0.0,55.0,0.0,37944,98.8125
9580,6.0,,,,59.0,,,,,24,note_on,,112.0,59.0,112.0,37968,98.875
9581,6.0,,,,59.0,,,,,88,note_on,,0.0,59.0,0.0,38056,99.10416666666666
9582,6.0,,,,55.0,,,,,8,note_on,,112.0,55.0,112.0,38064,99.125
9583,6.0,,,,55.0,,,,,88,note_on,,0.0,55.0,0.0,38152,99.35416666666666
9584,6.0,,,,59.0,,,,,8,note_on,,112.0,59.0,112.0,38160,99.375
9585,6.0,,,,59.0,,,,,88,note_on,,0.0,59.0,0.0,38248,99.60416666666666
9586,6.0,,,,55.0,,,,,8,note_on,,112.0,55.0,112.0,38256,99.625
9587,6.0,,,,55.0,,,,,88,note_on,,0.0,55.0,0.0,38344,99.85416666666666
9588,6.0,,,,59.0,,,,,236,note_on,,112.0,59.0,112.0,38580,100.46875
9589,6.0,,,,59.0,,,,,40,note_on,,0.0,59.0,0.0,38620,100.57291666666666
9590,6.0,,,,55.0,,,,,4,note_on,,112.0,55.0,112.0,38624,100.58333333333333
9591,6.0,,,,55.0,,,,,88,note_on,,0.0,55.0,0.0,38712,100.8125
9592,6.0,,,,59.0,,,,,24,note_on,,112.0,59.0,112.0,38736,100.875
9593,6.0,,,,59.0,,,,,88,note_on,,0.0,59.0,0.0,38824,101.10416666666666
9594,6.0,,,,55.0,,,,,8,note_on,,112.0,55.0,112.0,38832,101.125
9595,6.0,,,,55.0,,,,,88,note_on,,0.0,55.0,0.0,38920,101.35416666666666
9596,6.0,,,,59.0,,,,,8,note_on,,112.0,59.0,112.0,38928,101.375
9597,6.0,,,,59.0,,,,,236,note_on,,0.0,59.0,0.0,39164,101.98958333333333
9598,6.0,,,,60.0,,,,,184,note_on,,112.0,60.0,112.0,39348,102.46875
9599,6.0,,,,60.0,,,,,40,note_on,,0.0,60.0,0.0,39388,102.57291666666666
9600,6.0,,,,57.0,,,,,4,note_on,,112.0,57.0,112.0,39392,102.58333333333333
9601,6.0,,,,57.0,,,,,88,note_on,,0.0,57.0,0.0,39480,102.8125
9602,6.0,,,,60.0,,,,,24,note_on,,112.0,60.0,112.0,39504,102.875
9603,6.0,,,,60.0,,,,,88,note_on,,0.0,60.0,0.0,39592,103.10416666666666
9604,6.0,,,,57.0,,,,,8,note_on,,112.0,57.0,112.0,39600,103.125
9605,6.0,,,,57.0,,,,,88,note_on,,0.0,57.0,0.0,39688,103.35416666666666
9606,6.0,,,,60.0,,,,,8,note_on,,112.0,60.0,112.0,39696,103.375
9607,6.0,,,,60.0,,,,,88,note_on,,0.0,60.0,0.0,39784,103.60416666666666
9608,6.0,,,,57.0,,,,,8,note_on,,112.0,57.0,112.0,39792,103.625
9609,6.0,,,,57.0,,,,,88,note_on,,0.0,57.0,0.0,39880,103.85416666666666
9610,6.0,,,,59.0,,,,,236,note_on,,112.0,59.0,112.0,40116,104.46875
9611,6.0,,,,59.0,,,,,40,note_on,,0.0,59.0,0.0,40156,104.57291666666666
9612,6.0,,,,55.0,,,,,4,note_on,,112.0,55.0,112.0,40160,104.58333333333333
9613,6.0,,,,55.0,,,,,88,note_on,,0.0,55.0,0.0,40248,104.8125
9614,6.0,,,,59.0,,,,,24,note_on,,112.0,59.0,112.0,40272,104.875
9615,6.0,,,,59.0,,,,,88,note_on,,0.0,59.0,0.0,40360,105.10416666666666
9616,6.0,,,,55.0,,,,,8,note_on,,112.0,55.0,112.0,40368,105.125
9617,6.0,,,,55.0,,,,,88,note_on,,0.0,55.0,0.0,40456,105.35416666666666
9618,6.0,,,,59.0,,,,,8,note_on,,112.0,59.0,112.0,40464,105.375
9619,6.0,,,,59.0,,,,,236,note_on,,0.0,59.0,0.0,40700,105.98958333333333
9620,6.0,,,,59.0,,,,,184,note_on,,112.0,59.0,112.0,40884,106.46875
9621,6.0,,,,59.0,,,,,40,note_on,,0.0,59.0,0.0,40924,106.57291666666666
9622,6.0,,,,55.0,,,,,4,note_on,,112.0,55.0,112.0,40928,106.58333333333333
9623,6.0,,,,55.0,,,,,88,note_on,,0.0,55.0,0.0,41016,106.8125
9624,6.0,,,,59.0,,,,,24,note_on,,112.0,59.0,112.0,41040,106.875
9625,6.0,,,,59.0,,,,,88,note_on,,0.0,59.0,0.0,41128,107.10416666666666
9626,6.0,,,,55.0,,,,,8,note_on,,112.0,55.0,112.0,41136,107.125
9627,6.0,,,,55.0,,,,,88,note_on,,0.0,55.0,0.0,41224,107.35416666666666
9628,6.0,,,,59.0,,,,,8,note_on,,112.0,59.0,112.0,41232,107.375
9629,6.0,,,,59.0,,,,,88,note_on,,0.0,59.0,0.0,41320,107.60416666666666
9630,6.0,,,,55.0,,,,,8,note_on,,112.0,55.0,112.0,41328,107.625
9631,6.0,,,,55.0,,,,,88,note_on,,0.0,55.0,0.0,41416,107.85416666666666
9632,6.0,,,,59.0,,,,,236,note_on,,112.0,59.0,112.0,41652,108.46875
9633,6.0,,,,59.0,,,,,40,note_on,,0.0,59.0,0.0,41692,108.57291666666666
9634,6.0,,,,55.0,,,,,4,note_on,,112.0,55.0,112.0,41696,108.58333333333333
9635,6.0,,,,55.0,,,,,88,note_on,,0.0,55.0,0.0,41784,108.8125
9636,6.0,,,,59.0,,,,,24,note_on,,112.0,59.0,112.0,41808,108.875
9637,6.0,,,,59.0,,,,,88,note_on,,0.0,59.0,0.0,41896,109.10416666666666
9638,6.0,,,,55.0,,,,,8,note_on,,112.0,55.0,112.0,41904,109.125
9639,6.0,,,,55.0,,,,,88,note_on,,0.0,55.0,0.0,41992,109.35416666666666
9640,6.0,,,,59.0,,,,,8,note_on,,112.0,59.0,112.0,42000,109.375
9641,6.0,,,,59.0,,,,,236,note_on,,0.0,59.0,0.0,42236,109.98958333333333
9642,6.0,,,,60.0,,,,,184,note_on,,112.0,60.0,112.0,42420,110.46875
9643,6.0,,,,60.0,,,,,40,note_on,,0.0,60.0,0.0,42460,110.57291666666666
9644,6.0,,,,57.0,,,,,4,note_on,,112.0,57.0,112.0,42464,110.58333333333333
9645,6.0,,,,57.0,,,,,88,note_on,,0.0,57.0,0.0,42552,110.8125
9646,6.0,,,,60.0,,,,,24,note_on,,112.0,60.0,112.0,42576,110.875
9647,6.0,,,,60.0,,,,,88,note_on,,0.0,60.0,0.0,42664,111.10416666666666
9648,6.0,,,,57.0,,,,,8,note_on,,112.0,57.0,112.0,42672,111.125
9649,6.0,,,,57.0,,,,,88,note_on,,0.0,57.0,0.0,42760,111.35416666666666
9650,6.0,,,,60.0,,,,,8,note_on,,112.0,60.0,112.0,42768,111.375
9651,6.0,,,,60.0,,,,,88,note_on,,0.0,60.0,0.0,42856,111.60416666666666
9652,6.0,,,,57.0,,,,,8,note_on,,112.0,57.0,112.0,42864,111.625
9653,6.0,,,,57.0,,,,,88,note_on,,0.0,57.0,0.0,42952,111.85416666666666
9654,6.0,,,,59.0,,,,,236,note_on,,112.0,59.0,112.0,43188,112.46875
9655,6.0,,,,59.0,,,,,40,note_on,,0.0,59.0,0.0,43228,112.57291666666666
9656,6.0,,,,55.0,,,,,4,note_on,,112.0,55.0,112.0,43232,112.58333333333333
9657,6.0,,,,55.0,,,,,88,note_on,,0.0,55.0,0.0,43320,112.8125
9658,6.0,,,,59.0,,,,,24,note_on,,112.0,59.0,112.0,43344,112.875
9659,6.0,,,,59.0,,,,,88,note_on,,0.0,59.0,0.0,43432,113.10416666666666
9660,6.0,,,,55.0,,,,,8,note_on,,112.0,55.0,112.0,43440,113.125
9661,6.0,,,,55.0,,,,,88,note_on,,0.0,55.0,0.0,43528,113.35416666666666
9662,6.0,,,,59.0,,,,,8,note_on,,112.0,59.0,112.0,43536,113.375
9663,6.0,,,,59.0,,,,,236,note_on,,0.0,59.0,0.0,43772,113.98958333333333
9664,6.0,,,,59.0,,,,,6328,note_on,,112.0,59.0,112.0,50100,130.46875
9665,6.0,,,,59.0,,,,,40,note_on,,0.0,59.0,0.0,50140,130.57291666666666
9666,6.0,,,,55.0,,,,,4,note_on,,112.0,55.0,112.0,50144,130.58333333333331
9667,6.0,,,,55.0,,,,,88,note_on,,0.0,55.0,0.0,50232,130.8125
9668,6.0,,,,59.0,,,,,24,note_on,,112.0,59.0,112.0,50256,130.875
9669,6.0,,,,59.0,,,,,88,note_on,,0.0,59.0,0.0,50344,131.10416666666666
9670,6.0,,,,55.0,,,,,8,note_on,,112.0,55.0,112.0,50352,131.125
9671,6.0,,,,55.0,,,,,88,note_on,,0.0,55.0,0.0,50440,131.35416666666666
9672,6.0,,,,59.0,,,,,8,note_on,,112.0,59.0,112.0,50448,131.375
9673,6.0,,,,59.0,,,,,88,note_on,,0.0,59.0,0.0,50536,131.60416666666666
9674,6.0,,,,55.0,,,,,8,note_on,,112.0,55.0,112.0,50544,131.625
9675,6.0,,,,55.0,,,,,88,note_on,,0.0,55.0,0.0,50632,131.85416666666666
9676,6.0,,,,59.0,,,,,236,note_on,,112.0,59.0,112.0,50868,132.46875
9677,6.0,,,,59.0,,,,,40,note_on,,0.0,59.0,0.0,50908,132.57291666666666
9678,6.0,,,,55.0,,,,,4,note_on,,112.0,55.0,112.0,50912,132.58333333333331
9679,6.0,,,,55.0,,,,,88,note_on,,0.0,55.0,0.0,51000,132.8125
9680,6.0,,,,59.0,,,,,24,note_on,,112.0,59.0,112.0,51024,132.875
9681,6.0,,,,59.0,,,,,88,note_on,,0.0,59.0,0.0,51112,133.10416666666666
9682,6.0,,,,55.0,,,,,8,note_on,,112.0,55.0,112.0,51120,133.125
9683,6.0,,,,55.0,,,,,88,note_on,,0.0,55.0,0.0,51208,133.35416666666666
9684,6.0,,,,59.0,,,,,8,note_on,,112.0,59.0,112.0,51216,133.375
9685,6.0,,,,59.0,,,,,236,note_on,,0.0,59.0,0.0,51452,133.98958333333331
9686,6.0,,,,60.0,,,,,184,note_on,,112.0,60.0,112.0,51636,134.46875
9687,6.0,,,,60.0,,,,,40,note_on,,0.0,60.0,0.0,51676,134.57291666666666
9688,6.0,,,,57.0,,,,,4,note_on,,112.0,57.0,112.0,51680,134.58333333333331
9689,6.0,,,,57.0,,,,,88,note_on,,0.0,57.0,0.0,51768,134.8125
9690,6.0,,,,60.0,,,,,24,note_on,,112.0,60.0,112.0,51792,134.875
9691,6.0,,,,60.0,,,,,88,note_on,,0.0,60.0,0.0,51880,135.10416666666666
9692,6.0,,,,57.0,,,,,8,note_on,,112.0,57.0,112.0,51888,135.125
9693,6.0,,,,57.0,,,,,88,note_on,,0.0,57.0,0.0,51976,135.35416666666666
9694,6.0,,,,60.0,,,,,8,note_on,,112.0,60.0,112.0,51984,135.375
9695,6.0,,,,60.0,,,,,88,note_on,,0.0,60.0,0.0,52072,135.60416666666666
9696,6.0,,,,57.0,,,,,8,note_on,,112.0,57.0,112.0,52080,135.625
9697,6.0,,,,57.0,,,,,88,note_on,,0.0,57.0,0.0,52168,135.85416666666666
9698,6.0,,,,59.0,,,,,236,note_on,,112.0,59.0,112.0,52404,136.46875
9699,6.0,,,,59.0,,,,,40,note_on,,0.0,59.0,0.0,52444,136.57291666666666
9700,6.0,,,,55.0,,,,,4,note_on,,112.0,55.0,112.0,52448,136.58333333333331
9701,6.0,,,,55.0,,,,,88,note_on,,0.0,55.0,0.0,52536,136.8125
9702,6.0,,,,59.0,,,,,24,note_on,,112.0,59.0,112.0,52560,136.875
9703,6.0,,,,59.0,,,,,88,note_on,,0.0,59.0,0.0,52648,137.10416666666666
9704,6.0,,,,55.0,,,,,8,note_on,,112.0,55.0,112.0,52656,137.125
9705,6.0,,,,55.0,,,,,88,note_on,,0.0,55.0,0.0,52744,137.35416666666666
9706,6.0,,,,59.0,,,,,8,note_on,,112.0,59.0,112.0,52752,137.375
9707,6.0,,,,59.0,,,,,236,note_on,,0.0,59.0,0.0,52988,137.98958333333331
9708,6.0,,,,59.0,,,,,184,note_on,,112.0,59.0,112.0,53172,138.46875
9709,6.0,,,,59.0,,,,,40,note_on,,0.0,59.0,0.0,53212,138.57291666666666
9710,6.0,,,,55.0,,,,,4,note_on,,112.0,55.0,112.0,53216,138.58333333333331
9711,6.0,,,,55.0,,,,,88,note_on,,0.0,55.0,0.0,53304,138.8125
9712,6.0,,,,59.0,,,,,24,note_on,,112.0,59.0,112.0,53328,138.875
9713,6.0,,,,59.0,,,,,88,note_on,,0.0,59.0,0.0,53416,139.10416666666666
9714,6.0,,,,55.0,,,,,8,note_on,,112.0,55.0,112.0,53424,139.125
9715,6.0,,,,55.0,,,,,88,note_on,,0.0,55.0,0.0,53512,139.35416666666666
9716,6.0,,,,59.0,,,,,8,note_on,,112.0,59.0,112.0,53520,139.375
9717,6.0,,,,59.0,,,,,88,note_on,,0.0,59.0,0.0,53608,139.60416666666666
9718,6.0,,,,55.0,,,,,8,note_on,,112.0,55.0,112.0,53616,139.625
9719,6.0,,,,55.0,,,,,88,note_on,,0.0,55.0,0.0,53704,139.85416666666666
9720,6.0,,,,59.0,,,,,236,note_on,,112.0,59.0,112.0,53940,140.46875
9721,6.0,,,,59.0,,,,,40,note_on,,0.0,59.0,0.0,53980,140.57291666666666
9722,6.0,,,,55.0,,,,,4,note_on,,112.0,55.0,112.0,53984,140.58333333333331
9723,6.0,,,,55.0,,,,,88,note_on,,0.0,55.0,0.0,54072,140.8125
9724,6.0,,,,59.0,,,,,24,note_on,,112.0,59.0,112.0,54096,140.875
9725,6.0,,,,59.0,,,,,88,note_on,,0.0,59.0,0.0,54184,141.10416666666666
9726,6.0,,,,55.0,,,,,8,note_on,,112.0,55.0,112.0,54192,141.125
9727,6.0,,,,55.0,,,,,88,note_on,,0.0,55.0,0.0,54280,141.35416666666666
9728,6.0,,,,59.0,,,,,8,note_on,,112.0,59.0,112.0,54288,141.375
9729,6.0,,,,59.0,,,,,236,note_on,,0.0,59.0,0.0,54524,141.98958333333331
9730,6.0,,,,60.0,,,,,184,note_on,,112.0,60.0,112.0,54708,142.46875
9731,6.0,,,,60.0,,,,,40,note_on,,0.0,60.0,0.0,54748,142.57291666666666
9732,6.0,,,,57.0,,,,,4,note_on,,112.0,57.0,112.0,54752,142.58333333333331
9733,6.0,,,,57.0,,,,,88,note_on,,0.0,57.0,0.0,54840,142.8125
9734,6.0,,,,60.0,,,,,24,note_on,,112.0,60.0,112.0,54864,142.875
9735,6.0,,,,60.0,,,,,88,note_on,,0.0,60.0,0.0,54952,143.10416666666666
9736,6.0,,,,57.0,,,,,8,note_on,,112.0,57.0,112.0,54960,143.125
9737,6.0,,,,57.0,,,,,88,note_on,,0.0,57.0,0.0,55048,143.35416666666666
9738,6.0,,,,60.0,,,,,8,note_on,,112.0,60.0,112.0,55056,143.375
9739,6.0,,,,60.0,,,,,88,note_on,,0.0,60.0,0.0,55144,143.60416666666666
9740,6.0,,,,57.0,,,,,8,note_on,,112.0,57.0,112.0,55152,143.625
9741,6.0,,,,57.0,,,,,88,note_on,,0.0,57.0,0.0,55240,143.85416666666666
9742,6.0,,,,59.0,,,,,236,note_on,,112.0,59.0,112.0,55476,144.46875
9743,6.0,,,,59.0,,,,,40,note_on,,0.0,59.0,0.0,55516,144.57291666666666
9744,6.0,,,,55.0,,,,,4,note_on,,112.0,55.0,112.0,55520,144.58333333333331
9745,6.0,,,,55.0,,,,,88,note_on,,0.0,55.0,0.0,55608,144.8125
9746,6.0,,,,59.0,,,,,24,note_on,,112.0,59.0,112.0,55632,144.875
9747,6.0,,,,59.0,,,,,88,note_on,,0.0,59.0,0.0,55720,145.10416666666666
9748,6.0,,,,55.0,,,,,8,note_on,,112.0,55.0,112.0,55728,145.125
9749,6.0,,,,55.0,,,,,88,note_on,,0.0,55.0,0.0,55816,145.35416666666666
9750,6.0,,,,59.0,,,,,8,note_on,,112.0,59.0,112.0,55824,145.375
9751,6.0,,,,59.0,,,,,236,note_on,,0.0,59.0,0.0,56060,145.98958333333331
9752,6.0,,,,59.0,,,,,184,note_on,,112.0,59.0,112.0,56244,146.46875
9753,6.0,,,,59.0,,,,,40,note_on,,0.0,59.0,0.0,56284,146.57291666666666
9754,6.0,,,,55.0,,,,,4,note_on,,112.0,55.0,112.0,56288,146.58333333333331
9755,6.0,,,,55.0,,,,,88,note_on,,0.0,55.0,0.0,56376,146.8125
9756,6.0,,,,59.0,,,,,24,note_on,,112.0,59.0,112.0,56400,146.875
9757,6.0,,,,59.0,,,,,88,note_on,,0.0,59.0,0.0,56488,147.10416666666666
9758,6.0,,,,55.0,,,,,8,note_on,,112.0,55.0,112.0,56496,147.125
9759,6.0,,,,55.0,,,,,88,note_on,,0.0,55.0,0.0,56584,147.35416666666666
9760,6.0,,,,59.0,,,,,8,note_on,,112.0,59.0,112.0,56592,147.375
9761,6.0,,,,59.0,,,,,88,note_on,,0.0,59.0,0.0,56680,147.60416666666666
9762,6.0,,,,55.0,,,,,8,note_on,,112.0,55.0,112.0,56688,147.625
9763,6.0,,,,55.0,,,,,88,note_on,,0.0,55.0,0.0,56776,147.85416666666666
9764,6.0,,,,59.0,,,,,236,note_on,,112.0,59.0,112.0,57012,148.46875
9765,6.0,,,,59.0,,,,,40,note_on,,0.0,59.0,0.0,57052,148.57291666666666
9766,6.0,,,,55.0,,,,,4,note_on,,112.0,55.0,112.0,57056,148.58333333333331
9767,6.0,,,,55.0,,,,,88,note_on,,0.0,55.0,0.0,57144,148.8125
9768,6.0,,,,59.0,,,,,24,note_on,,112.0,59.0,112.0,57168,148.875
9769,6.0,,,,59.0,,,,,88,note_on,,0.0,59.0,0.0,57256,149.10416666666666
9770,6.0,,,,55.0,,,,,8,note_on,,112.0,55.0,112.0,57264,149.125
9771,6.0,,,,55.0,,,,,88,note_on,,0.0,55.0,0.0,57352,149.35416666666666
9772,6.0,,,,59.0,,,,,8,note_on,,112.0,59.0,112.0,57360,149.375
9773,6.0,,,,59.0,,,,,236,note_on,,0.0,59.0,0.0,57596,149.98958333333331
9774,6.0,,,,60.0,,,,,184,note_on,,112.0,60.0,112.0,57780,150.46875
9775,6.0,,,,60.0,,,,,40,note_on,,0.0,60.0,0.0,57820,150.57291666666666
9776,6.0,,,,57.0,,,,,4,note_on,,112.0,57.0,112.0,57824,150.58333333333331
9777,6.0,,,,57.0,,,,,88,note_on,,0.0,57.0,0.0,57912,150.8125
9778,6.0,,,,60.0,,,,,24,note_on,,112.0,60.0,112.0,57936,150.875
9779,6.0,,,,60.0,,,,,88,note_on,,0.0,60.0,0.0,58024,151.10416666666666
9780,6.0,,,,57.0,,,,,8,note_on,,112.0,57.0,112.0,58032,151.125
9781,6.0,,,,57.0,,,,,88,note_on,,0.0,57.0,0.0,58120,151.35416666666666
9782,6.0,,,,60.0,,,,,8,note_on,,112.0,60.0,112.0,58128,151.375
9783,6.0,,,,60.0,,,,,88,note_on,,0.0,60.0,0.0,58216,151.60416666666666
9784,6.0,,,,57.0,,,,,8,note_on,,112.0,57.0,112.0,58224,151.625
9785,6.0,,,,57.0,,,,,88,note_on,,0.0,57.0,0.0,58312,151.85416666666666
9786,6.0,,,,59.0,,,,,236,note_on,,112.0,59.0,112.0,58548,152.46875
9787,6.0,,,,59.0,,,,,40,note_on,,0.0,59.0,0.0,58588,152.57291666666666
9788,6.0,,,,55.0,,,,,4,note_on,,112.0,55.0,112.0,58592,152.58333333333331
9789,6.0,,,,55.0,,,,,88,note_on,,0.0,55.0,0.0,58680,152.8125
9790,6.0,,,,59.0,,,,,24,note_on,,112.0,59.0,112.0,58704,152.875
9791,6.0,,,,59.0,,,,,88,note_on,,0.0,59.0,0.0,58792,153.10416666666666
9792,6.0,,,,55.0,,,,,8,note_on,,112.0,55.0,112.0,58800,153.125
9793,6.0,,,,55.0,,,,,88,note_on,,0.0,55.0,0.0,58888,153.35416666666666
9794,6.0,,,,59.0,,,,,8,note_on,,112.0,59.0,112.0,58896,153.375
9795,6.0,,,,59.0,,,,,236,note_on,,0.0,59.0,0.0,59132,153.98958333333331
9796,6.0,,,,59.0,,,,,184,note_on,,112.0,59.0,112.0,59316,154.46875
9797,6.0,,,,59.0,,,,,40,note_on,,0.0,59.0,0.0,59356,154.57291666666666
9798,6.0,,,,55.0,,,,,4,note_on,,112.0,55.0,112.0,59360,154.58333333333331
9799,6.0,,,,55.0,,,,,88,note_on,,0.0,55.0,0.0,59448,154.8125
9800,6.0,,,,59.0,,,,,24,note_on,,112.0,59.0,112.0,59472,154.875
9801,6.0,,,,59.0,,,,,88,note_on,,0.0,59.0,0.0,59560,155.10416666666666
9802,6.0,,,,55.0,,,,,8,note_on,,112.0,55.0,112.0,59568,155.125
9803,6.0,,,,55.0,,,,,88,note_on,,0.0,55.0,0.0,59656,155.35416666666666
9804,6.0,,,,59.0,,,,,8,note_on,,112.0,59.0,112.0,59664,155.375
9805,6.0,,,,59.0,,,,,88,note_on,,0.0,59.0,0.0,59752,155.60416666666666
9806,6.0,,,,55.0,,,,,8,note_on,,112.0,55.0,112.0,59760,155.625
9807,6.0,,,,55.0,,,,,88,note_on,,0.0,55.0,0.0,59848,155.85416666666666
9808,6.0,,,,59.0,,,,,236,note_on,,112.0,59.0,112.0,60084,156.46875
9809,6.0,,,,59.0,,,,,40,note_on,,0.0,59.0,0.0,60124,156.57291666666666
9810,6.0,,,,55.0,,,,,4,note_on,,112.0,55.0,112.0,60128,156.58333333333331
9811,6.0,,,,55.0,,,,,88,note_on,,0.0,55.0,0.0,60216,156.8125
9812,6.0,,,,59.0,,,,,24,note_on,,112.0,59.0,112.0,60240,156.875
9813,6.0,,,,59.0,,,,,88,note_on,,0.0,59.0,0.0,60328,157.10416666666666
9814,6.0,,,,55.0,,,,,8,note_on,,112.0,55.0,112.0,60336,157.125
9815,6.0,,,,55.0,,,,,88,note_on,,0.0,55.0,0.0,60424,157.35416666666666
9816,6.0,,,,59.0,,,,,8,note_on,,112.0,59.0,112.0,60432,157.375
9817,6.0,,,,59.0,,,,,236,note_on,,0.0,59.0,0.0,60668,157.98958333333331
9818,6.0,,,,60.0,,,,,184,note_on,,112.0,60.0,112.0,60852,158.46875
9819,6.0,,,,60.0,,,,,40,note_on,,0.0,60.0,0.0,60892,158.57291666666666
9820,6.0,,,,57.0,,,,,4,note_on,,112.0,57.0,112.0,60896,158.58333333333331
9821,6.0,,,,57.0,,,,,88,note_on,,0.0,57.0,0.0,60984,158.8125
9822,6.0,,,,60.0,,,,,24,note_on,,112.0,60.0,112.0,61008,158.875
9823,6.0,,,,60.0,,,,,88,note_on,,0.0,60.0,0.0,61096,159.10416666666666
9824,6.0,,,,57.0,,,,,8,note_on,,112.0,57.0,112.0,61104,159.125
9825,6.0,,,,57.0,,,,,88,note_on,,0.0,57.0,0.0,61192,159.35416666666666
9826,6.0,,,,60.0,,,,,8,note_on,,112.0,60.0,112.0,61200,159.375
9827,6.0,,,,60.0,,,,,88,note_on,,0.0,60.0,0.0,61288,159.60416666666666
9828,6.0,,,,57.0,,,,,8,note_on,,112.0,57.0,112.0,61296,159.625
9829,6.0,,,,57.0,,,,,88,note_on,,0.0,57.0,0.0,61384,159.85416666666666
9830,6.0,,,,59.0,,,,,236,note_on,,112.0,59.0,112.0,61620,160.46875
9831,6.0,,,,59.0,,,,,40,note_on,,0.0,59.0,0.0,61660,160.57291666666666
9832,6.0,,,,55.0,,,,,4,note_on,,112.0,55.0,112.0,61664,160.58333333333331
9833,6.0,,,,55.0,,,,,88,note_on,,0.0,55.0,0.0,61752,160.8125
9834,6.0,,,,59.0,,,,,24,note_on,,112.0,59.0,112.0,61776,160.875
9835,6.0,,,,59.0,,,,,88,note_on,,0.0,59.0,0.0,61864,161.10416666666666
9836,6.0,,,,55.0,,,,,8,note_on,,112.0,55.0,112.0,61872,161.125
9837,6.0,,,,55.0,,,,,88,note_on,,0.0,55.0,0.0,61960,161.35416666666666
9838,6.0,,,,59.0,,,,,8,note_on,,112.0,59.0,112.0,61968,161.375
9839,6.0,,,,59.0,,,,,236,note_on,,0.0,59.0,0.0,62204,161.98958333333331
9840,6.0,,,,59.0,,,,,184,note_on,,112.0,59.0,112.0,62388,162.46875
9841,6.0,,,,59.0,,,,,40,note_on,,0.0,59.0,0.0,62428,162.57291666666666
9842,6.0,,,,55.0,,,,,4,note_on,,112.0,55.0,112.0,62432,162.58333333333331
9843,6.0,,,,55.0,,,,,88,note_on,,0.0,55.0,0.0,62520,162.8125
9844,6.0,,,,59.0,,,,,24,note_on,,112.0,59.0,112.0,62544,162.875
9845,6.0,,,,59.0,,,,,88,note_on,,0.0,59.0,0.0,62632,163.10416666666666
9846,6.0,,,,55.0,,,,,8,note_on,,112.0,55.0,112.0,62640,163.125
9847,6.0,,,,55.0,,,,,88,note_on,,0.0,55.0,0.0,62728,163.35416666666666
9848,6.0,,,,59.0,,,,,8,note_on,,112.0,59.0,112.0,62736,163.375
9849,6.0,,,,59.0,,,,,88,note_on,,0.0,59.0,0.0,62824,163.60416666666666
9850,6.0,,,,55.0,,,,,8,note_on,,112.0,55.0,112.0,62832,163.625
9851,6.0,,,,55.0,,,,,88,note_on,,0.0,55.0,0.0,62920,163.85416666666666
9852,6.0,,,,59.0,,,,,236,note_on,,112.0,59.0,112.0,63156,164.46875
9853,6.0,,,,59.0,,,,,40,note_on,,0.0,59.0,0.0,63196,164.57291666666666
9854,6.0,,,,55.0,,,,,4,note_on,,112.0,55.0,112.0,63200,164.58333333333331
9855,6.0,,,,55.0,,,,,88,note_on,,0.0,55.0,0.0,63288,164.8125
9856,6.0,,,,59.0,,,,,24,note_on,,112.0,59.0,112.0,63312,164.875
9857,6.0,,,,59.0,,,,,88,note_on,,0.0,59.0,0.0,63400,165.10416666666666
9858,6.0,,,,55.0,,,,,8,note_on,,112.0,55.0,112.0,63408,165.125
9859,6.0,,,,55.0,,,,,88,note_on,,0.0,55.0,0.0,63496,165.35416666666666
9860,6.0,,,,59.0,,,,,8,note_on,,112.0,59.0,112.0,63504,165.375
9861,6.0,,,,59.0,,,,,236,note_on,,0.0,59.0,0.0,63740,165.98958333333331
9862,6.0,,,,60.0,,,,,184,note_on,,112.0,60.0,112.0,63924,166.46875
9863,6.0,,,,60.0,,,,,40,note_on,,0.0,60.0,0.0,63964,166.57291666666666
9864,6.0,,,,57.0,,,,,4,note_on,,112.0,57.0,112.0,63968,166.58333333333331
9865,6.0,,,,57.0,,,,,88,note_on,,0.0,57.0,0.0,64056,166.8125
9866,6.0,,,,60.0,,,,,24,note_on,,112.0,60.0,112.0,64080,166.875
9867,6.0,,,,60.0,,,,,88,note_on,,0.0,60.0,0.0,64168,167.10416666666666
9868,6.0,,,,57.0,,,,,8,note_on,,112.0,57.0,112.0,64176,167.125
9869,6.0,,,,57.0,,,,,88,note_on,,0.0,57.0,0.0,64264,167.35416666666666
9870,6.0,,,,60.0,,,,,8,note_on,,112.0,60.0,112.0,64272,167.375
9871,6.0,,,,60.0,,,,,88,note_on,,0.0,60.0,0.0,64360,167.60416666666666
9872,6.0,,,,57.0,,,,,8,note_on,,112.0,57.0,112.0,64368,167.625
9873,6.0,,,,57.0,,,,,88,note_on,,0.0,57.0,0.0,64456,167.85416666666666
9874,6.0,,,,59.0,,,,,236,note_on,,112.0,59.0,112.0,64692,168.46875
9875,6.0,,,,59.0,,,,,40,note_on,,0.0,59.0,0.0,64732,168.57291666666666
9876,6.0,,,,55.0,,,,,4,note_on,,112.0,55.0,112.0,64736,168.58333333333331
9877,6.0,,,,55.0,,,,,88,note_on,,0.0,55.0,0.0,64824,168.8125
9878,6.0,,,,59.0,,,,,24,note_on,,112.0,59.0,112.0,64848,168.875
9879,6.0,,,,59.0,,,,,88,note_on,,0.0,59.0,0.0,64936,169.10416666666666
9880,6.0,,,,55.0,,,,,8,note_on,,112.0,55.0,112.0,64944,169.125
9881,6.0,,,,55.0,,,,,88,note_on,,0.0,55.0,0.0,65032,169.35416666666666
9882,6.0,,,,59.0,,,,,8,note_on,,112.0,59.0,112.0,65040,169.375
9883,6.0,,,,59.0,,,,,236,note_on,,0.0,59.0,0.0,65276,169.98958333333331
9884,6.0,,,,59.0,,,,,184,note_on,,112.0,59.0,112.0,65460,170.46875
9885,6.0,,,,59.0,,,,,40,note_on,,0.0,59.0,0.0,65500,170.57291666666666
9886,6.0,,,,55.0,,,,,4,note_on,,105.0,55.0,105.0,65504,170.58333333333331
9887,6.0,,,,55.0,,,,,88,note_on,,0.0,55.0,0.0,65592,170.8125
9888,6.0,,,,59.0,,,,,24,note_on,,101.0,59.0,101.0,65616,170.875
9889,6.0,,,,59.0,,,,,88,note_on,,0.0,59.0,0.0,65704,171.10416666666666
9890,6.0,,,,55.0,,,,,8,note_on,,95.0,55.0,95.0,65712,171.125
9891,6.0,,,,55.0,,,,,88,note_on,,0.0,55.0,0.0,65800,171.35416666666666
9892,6.0,,,,59.0,,,,,8,note_on,,91.0,59.0,91.0,65808,171.375
9893,6.0,,,,59.0,,,,,88,note_on,,0.0,59.0,0.0,65896,171.60416666666666
9894,6.0,,,,55.0,,,,,8,note_on,,81.0,55.0,81.0,65904,171.625
9895,6.0,,,,55.0,,,,,88,note_on,,0.0,55.0,0.0,65992,171.85416666666666
9896,6.0,,,,59.0,,,,,236,note_on,,72.0,59.0,72.0,66228,172.46875
9897,6.0,,,,59.0,,,,,40,note_on,,0.0,59.0,0.0,66268,172.57291666666666
9898,6.0,,,,55.0,,,,,4,note_on,,69.0,55.0,69.0,66272,172.58333333333331
9899,6.0,,,,55.0,,,,,88,note_on,,0.0,55.0,0.0,66360,172.8125
9900,6.0,,,,59.0,,,,,24,note_on,,66.0,59.0,66.0,66384,172.875
9901,6.0,,,,59.0,,,,,88,note_on,,0.0,59.0,0.0,66472,173.10416666666666
9902,6.0,,,,55.0,,,,,8,note_on,,64.0,55.0,64.0,66480,173.125
9903,6.0,,,,55.0,,,,,88,note_on,,0.0,55.0,0.0,66568,173.35416666666666
9904,6.0,,,,59.0,,,,,8,note_on,,61.0,59.0,61.0,66576,173.375
9905,6.0,,,,59.0,,,,,236,note_on,,0.0,59.0,0.0,66812,173.98958333333331
9906,6.0,,,,60.0,,,,,184,note_on,,49.0,60.0,49.0,66996,174.46875
9907,6.0,,,,60.0,,,,,40,note_on,,0.0,60.0,0.0,67036,174.57291666666666
9908,6.0,,,,57.0,,,,,4,note_on,,47.0,57.0,47.0,67040,174.58333333333331
9909,6.0,,,,57.0,,,,,88,note_on,,0.0,57.0,0.0,67128,174.8125
9910,6.0,,,,60.0,,,,,24,note_on,,41.0,60.0,41.0,67152,174.875
9911,6.0,,,,60.0,,,,,88,note_on,,0.0,60.0,0.0,67240,175.10416666666666
9912,6.0,,,,57.0,,,,,8,note_on,,36.0,57.0,36.0,67248,175.125
9913,6.0,,,,57.0,,,,,88,note_on,,0.0,57.0,0.0,67336,175.35416666666666
9914,6.0,,,,60.0,,,,,8,note_on,,31.0,60.0,31.0,67344,175.375
9915,6.0,,,,60.0,,,,,88,note_on,,0.0,60.0,0.0,67432,175.60416666666666
9916,6.0,,,,57.0,,,,,8,note_on,,27.0,57.0,27.0,67440,175.625
9917,6.0,,,,57.0,,,,,88,note_on,,0.0,57.0,0.0,67528,175.85416666666666
9918,6.0,,,,59.0,,,,,236,note_on,,16.0,59.0,16.0,67764,176.46875
9919,6.0,,,,59.0,,,,,40,note_on,,0.0,59.0,0.0,67804,176.57291666666666
9920,6.0,,,,55.0,,,,,4,note_on,,15.0,55.0,15.0,67808,176.58333333333331
9921,6.0,,,,55.0,,,,,88,note_on,,0.0,55.0,0.0,67896,176.8125
9922,6.0,,,,59.0,,,,,24,note_on,,11.0,59.0,11.0,67920,176.875
9923,6.0,,,,59.0,,,,,88,note_on,,0.0,59.0,0.0,68008,177.10416666666666
9924,6.0,,,,55.0,,,,,8,note_on,,7.0,55.0,7.0,68016,177.125
9925,6.0,,,,55.0,,,,,88,note_on,,0.0,55.0,0.0,68104,177.35416666666666
9926,6.0,,,,59.0,,,,,8,note_on,,3.0,59.0,3.0,68112,177.375
9927,6.0,,,,59.0,,,,,236,note_on,,0.0,59.0,0.0,68348,177.98958333333331
9928,,,,,,,,,,0,end_of_track,,,,,4638457792,12079317.166666666
9929,3.0,0.0,,,,,,,,0,control_change,0.0,,,,0,0.0
9930,3.0,,,,,,87.0,,,0,program_change,,,,,0,0.0
9931,,,"(74, 65, 90, 50, 1, 0, 0, 0, 0, 0, 0, 0, 0, 0, 0, 0, 0, 0, 0, 0)",,,,,,,0,sequencer_specific,,,,,4638466264,12079339.229166666
9932,3.0,93.0,,,,,,,,0,control_change,0.0,,,,0,0.0
9933,3.0,64.0,,,,,,,,0,control_change,60.0,,,,0,0.0
9934,3.0,91.0,,,,,,,,0,control_change,40.0,,,,0,0.0
9935,3.0,10.0,,,,,,,,0,control_change,114.0,,,,0,0.0
9936,,,,Bass And Lead,,,,,,0,track_name,,,,,4638466624,12079340.166666666
9937,3.0,7.0,,,,,,,,0,control_change,74.0,,,,0,0.0
9938,3.0,,,,71.0,,,,,960,note_on,,88.0,71.0,88.0,960,2.5
9939,3.0,,,,71.0,,,,,44,note_on,,0.0,71.0,0.0,1004,2.614583333333333
9940,3.0,,,,67.0,,,,,4,note_on,,88.0,67.0,88.0,1008,2.625
9941,3.0,,,,67.0,,,,,44,note_on,,0.0,67.0,0.0,1052,2.739583333333333
9942,3.0,,,,79.0,,,,,52,note_on,,88.0,79.0,88.0,1104,2.875
9943,3.0,,,,79.0,,,,,44,note_on,,0.0,79.0,0.0,1148,2.989583333333333
9944,3.0,,,,74.0,,,,,52,note_on,,88.0,74.0,88.0,1200,3.125
9945,3.0,,,,74.0,,,,,44,note_on,,0.0,74.0,0.0,1244,3.239583333333333
9946,3.0,,,,79.0,,,,,52,note_on,,44.0,79.0,44.0,1296,3.375
9947,3.0,,,,79.0,,,,,44,note_on,,0.0,79.0,0.0,1340,3.489583333333333
9948,3.0,,,,74.0,,,,,52,note_on,,44.0,74.0,44.0,1392,3.625
9949,3.0,,,,74.0,,,,,44,note_on,,0.0,74.0,0.0,1436,3.739583333333333
9950,3.0,,,,79.0,,,,,52,note_on,,22.0,79.0,22.0,1488,3.875
9951,3.0,,,,79.0,,,,,44,note_on,,0.0,79.0,0.0,1532,3.989583333333333
9952,3.0,,,,74.0,,,,,52,note_on,,22.0,74.0,22.0,1584,4.125
9953,3.0,,,,74.0,,,,,44,note_on,,0.0,74.0,0.0,1628,4.239583333333333
9954,3.0,,,,69.0,,,,,100,note_on,,88.0,69.0,88.0,1728,4.5
9955,3.0,,,,69.0,,,,,44,note_on,,0.0,69.0,0.0,1772,4.614583333333333
9956,3.0,,,,65.0,,,,,4,note_on,,88.0,65.0,88.0,1776,4.625
9957,3.0,,,,65.0,,,,,44,note_on,,0.0,65.0,0.0,1820,4.739583333333333
9958,3.0,,,,77.0,,,,,52,note_on,,88.0,77.0,88.0,1872,4.875
9959,3.0,,,,77.0,,,,,44,note_on,,0.0,77.0,0.0,1916,4.989583333333333
9960,3.0,,,,72.0,,,,,52,note_on,,88.0,72.0,88.0,1968,5.125
9961,3.0,,,,72.0,,,,,44,note_on,,0.0,72.0,0.0,2012,5.239583333333333
9962,3.0,,,,77.0,,,,,52,note_on,,44.0,77.0,44.0,2064,5.375
9963,3.0,,,,77.0,,,,,44,note_on,,0.0,77.0,0.0,2108,5.489583333333333
9964,3.0,,,,72.0,,,,,52,note_on,,44.0,72.0,44.0,2160,5.625
9965,3.0,,,,72.0,,,,,44,note_on,,0.0,72.0,0.0,2204,5.739583333333333
9966,3.0,,,,77.0,,,,,52,note_on,,22.0,77.0,22.0,2256,5.875
9967,3.0,,,,77.0,,,,,44,note_on,,0.0,77.0,0.0,2300,5.989583333333333
9968,3.0,,,,72.0,,,,,52,note_on,,22.0,72.0,22.0,2352,6.125
9969,3.0,,,,72.0,,,,,44,note_on,,0.0,72.0,0.0,2396,6.239583333333333
9970,3.0,,,,67.0,,,,,100,note_on,,88.0,67.0,88.0,2496,6.5
9971,3.0,,,,67.0,,,,,44,note_on,,0.0,67.0,0.0,2540,6.614583333333333
9972,3.0,,,,64.0,,,,,4,note_on,,88.0,64.0,88.0,2544,6.625
9973,3.0,,,,64.0,,,,,44,note_on,,0.0,64.0,0.0,2588,6.739583333333333
9974,3.0,,,,72.0,,,,,52,note_on,,88.0,72.0,88.0,2640,6.875
9975,3.0,,,,72.0,,,,,44,note_on,,0.0,72.0,0.0,2684,6.989583333333333
9976,3.0,,,,67.0,,,,,52,note_on,,88.0,67.0,88.0,2736,7.125
9977,3.0,,,,67.0,,,,,44,note_on,,0.0,67.0,0.0,2780,7.239583333333333
9978,3.0,,,,72.0,,,,,52,note_on,,44.0,72.0,44.0,2832,7.375
9979,3.0,,,,72.0,,,,,44,note_on,,0.0,72.0,0.0,2876,7.489583333333333
9980,3.0,,,,67.0,,,,,52,note_on,,44.0,67.0,44.0,2928,7.625
9981,3.0,,,,67.0,,,,,44,note_on,,0.0,67.0,0.0,2972,7.739583333333333
9982,3.0,,,,72.0,,,,,52,note_on,,22.0,72.0,22.0,3024,7.875
9983,3.0,,,,72.0,,,,,44,note_on,,0.0,72.0,0.0,3068,7.989583333333333
9984,3.0,,,,67.0,,,,,52,note_on,,22.0,67.0,22.0,3120,8.125
9985,3.0,,,,67.0,,,,,44,note_on,,0.0,67.0,0.0,3164,8.239583333333332
9986,3.0,,,,71.0,,,,,100,note_on,,88.0,71.0,88.0,3264,8.5
9987,3.0,,,,71.0,,,,,44,note_on,,0.0,71.0,0.0,3308,8.614583333333332
9988,3.0,,,,67.0,,,,,4,note_on,,88.0,67.0,88.0,3312,8.625
9989,3.0,,,,67.0,,,,,44,note_on,,0.0,67.0,0.0,3356,8.739583333333332
9990,3.0,,,,79.0,,,,,52,note_on,,88.0,79.0,88.0,3408,8.875
9991,3.0,,,,79.0,,,,,44,note_on,,0.0,79.0,0.0,3452,8.989583333333332
9992,3.0,,,,74.0,,,,,52,note_on,,88.0,74.0,88.0,3504,9.125
9993,3.0,,,,74.0,,,,,44,note_on,,0.0,74.0,0.0,3548,9.239583333333332
9994,3.0,,,,79.0,,,,,52,note_on,,44.0,79.0,44.0,3600,9.375
9995,3.0,,,,79.0,,,,,44,note_on,,0.0,79.0,0.0,3644,9.489583333333332
9996,3.0,,,,74.0,,,,,52,note_on,,44.0,74.0,44.0,3696,9.625
9997,3.0,,,,74.0,,,,,44,note_on,,0.0,74.0,0.0,3740,9.739583333333332
9998,3.0,,,,79.0,,,,,52,note_on,,22.0,79.0,22.0,3792,9.875
9999,3.0,,,,79.0,,,,,44,note_on,,0.0,79.0,0.0,3836,9.989583333333332
10000,3.0,,,,74.0,,,,,52,note_on,,22.0,74.0,22.0,3888,10.125
10001,3.0,,,,74.0,,,,,44,note_on,,0.0,74.0,0.0,3932,10.239583333333332
10002,3.0,,,,71.0,,,,,100,note_on,,88.0,71.0,88.0,4032,10.5
10003,3.0,,,,71.0,,,,,44,note_on,,0.0,71.0,0.0,4076,10.614583333333332
10004,3.0,,,,67.0,,,,,4,note_on,,88.0,67.0,88.0,4080,10.625
10005,3.0,,,,67.0,,,,,44,note_on,,0.0,67.0,0.0,4124,10.739583333333332
10006,3.0,,,,79.0,,,,,52,note_on,,88.0,79.0,88.0,4176,10.875
10007,3.0,,,,79.0,,,,,44,note_on,,0.0,79.0,0.0,4220,10.989583333333332
10008,3.0,,,,74.0,,,,,52,note_on,,88.0,74.0,88.0,4272,11.125
10009,3.0,,,,74.0,,,,,44,note_on,,0.0,74.0,0.0,4316,11.239583333333332
10010,3.0,,,,79.0,,,,,52,note_on,,44.0,79.0,44.0,4368,11.375
10011,3.0,,,,79.0,,,,,44,note_on,,0.0,79.0,0.0,4412,11.489583333333332
10012,3.0,,,,74.0,,,,,52,note_on,,44.0,74.0,44.0,4464,11.625
10013,3.0,,,,74.0,,,,,44,note_on,,0.0,74.0,0.0,4508,11.739583333333332
10014,3.0,,,,79.0,,,,,52,note_on,,22.0,79.0,22.0,4560,11.875
10015,3.0,,,,79.0,,,,,44,note_on,,0.0,79.0,0.0,4604,11.989583333333332
10016,3.0,,,,74.0,,,,,52,note_on,,22.0,74.0,22.0,4656,12.125
10017,3.0,,,,74.0,,,,,44,note_on,,0.0,74.0,0.0,4700,12.239583333333332
10018,3.0,,,,69.0,,,,,100,note_on,,88.0,69.0,88.0,4800,12.5
10019,3.0,,,,69.0,,,,,44,note_on,,0.0,69.0,0.0,4844,12.614583333333332
10020,3.0,,,,65.0,,,,,4,note_on,,88.0,65.0,88.0,4848,12.625
10021,3.0,,,,65.0,,,,,44,note_on,,0.0,65.0,0.0,4892,12.739583333333332
10022,3.0,,,,77.0,,,,,52,note_on,,88.0,77.0,88.0,4944,12.875
10023,3.0,,,,77.0,,,,,44,note_on,,0.0,77.0,0.0,4988,12.989583333333332
10024,3.0,,,,72.0,,,,,52,note_on,,88.0,72.0,88.0,5040,13.125
10025,3.0,,,,72.0,,,,,44,note_on,,0.0,72.0,0.0,5084,13.239583333333332
10026,3.0,,,,77.0,,,,,52,note_on,,44.0,77.0,44.0,5136,13.375
10027,3.0,,,,77.0,,,,,44,note_on,,0.0,77.0,0.0,5180,13.489583333333332
10028,3.0,,,,72.0,,,,,52,note_on,,44.0,72.0,44.0,5232,13.625
10029,3.0,,,,72.0,,,,,44,note_on,,0.0,72.0,0.0,5276,13.739583333333332
10030,3.0,,,,77.0,,,,,52,note_on,,22.0,77.0,22.0,5328,13.875
10031,3.0,,,,77.0,,,,,44,note_on,,0.0,77.0,0.0,5372,13.989583333333332
10032,3.0,,,,72.0,,,,,52,note_on,,22.0,72.0,22.0,5424,14.125
10033,3.0,,,,72.0,,,,,44,note_on,,0.0,72.0,0.0,5468,14.239583333333332
10034,3.0,,,,67.0,,,,,100,note_on,,88.0,67.0,88.0,5568,14.5
10035,3.0,,,,67.0,,,,,44,note_on,,0.0,67.0,0.0,5612,14.614583333333332
10036,3.0,,,,64.0,,,,,4,note_on,,88.0,64.0,88.0,5616,14.625
10037,3.0,,,,64.0,,,,,44,note_on,,0.0,64.0,0.0,5660,14.739583333333332
10038,3.0,,,,72.0,,,,,52,note_on,,88.0,72.0,88.0,5712,14.875
10039,3.0,,,,72.0,,,,,44,note_on,,0.0,72.0,0.0,5756,14.989583333333332
10040,3.0,,,,67.0,,,,,52,note_on,,88.0,67.0,88.0,5808,15.125
10041,3.0,,,,67.0,,,,,44,note_on,,0.0,67.0,0.0,5852,15.239583333333332
10042,3.0,,,,72.0,,,,,52,note_on,,44.0,72.0,44.0,5904,15.375
10043,3.0,,,,72.0,,,,,44,note_on,,0.0,72.0,0.0,5948,15.489583333333332
10044,3.0,,,,67.0,,,,,52,note_on,,44.0,67.0,44.0,6000,15.625
10045,3.0,,,,67.0,,,,,44,note_on,,0.0,67.0,0.0,6044,15.739583333333332
10046,3.0,,,,72.0,,,,,52,note_on,,22.0,72.0,22.0,6096,15.875
10047,3.0,,,,72.0,,,,,44,note_on,,0.0,72.0,0.0,6140,15.989583333333332
10048,3.0,,,,67.0,,,,,52,note_on,,22.0,67.0,22.0,6192,16.125
10049,3.0,,,,67.0,,,,,44,note_on,,0.0,67.0,0.0,6236,16.239583333333332
10050,3.0,,,,71.0,,,,,868,note_on,,88.0,71.0,88.0,7104,18.5
10051,3.0,,,,71.0,,,,,44,note_on,,0.0,71.0,0.0,7148,18.614583333333332
10052,3.0,,,,67.0,,,,,4,note_on,,88.0,67.0,88.0,7152,18.625
10053,3.0,,,,67.0,,,,,44,note_on,,0.0,67.0,0.0,7196,18.739583333333332
10054,3.0,,,,79.0,,,,,52,note_on,,88.0,79.0,88.0,7248,18.875
10055,3.0,,,,79.0,,,,,44,note_on,,0.0,79.0,0.0,7292,18.989583333333332
10056,3.0,,,,74.0,,,,,52,note_on,,88.0,74.0,88.0,7344,19.125
10057,3.0,,,,74.0,,,,,44,note_on,,0.0,74.0,0.0,7388,19.239583333333332
10058,3.0,,,,79.0,,,,,52,note_on,,44.0,79.0,44.0,7440,19.375
10059,3.0,,,,79.0,,,,,44,note_on,,0.0,79.0,0.0,7484,19.489583333333332
10060,3.0,,,,74.0,,,,,52,note_on,,44.0,74.0,44.0,7536,19.625
10061,3.0,,,,74.0,,,,,44,note_on,,0.0,74.0,0.0,7580,19.739583333333332
10062,3.0,,,,79.0,,,,,52,note_on,,22.0,79.0,22.0,7632,19.875
10063,3.0,,,,79.0,,,,,44,note_on,,0.0,79.0,0.0,7676,19.989583333333332
10064,3.0,,,,74.0,,,,,52,note_on,,22.0,74.0,22.0,7728,20.125
10065,3.0,,,,74.0,,,,,44,note_on,,0.0,74.0,0.0,7772,20.239583333333332
10066,3.0,,,,69.0,,,,,100,note_on,,88.0,69.0,88.0,7872,20.5
10067,3.0,,,,69.0,,,,,44,note_on,,0.0,69.0,0.0,7916,20.614583333333332
10068,3.0,,,,65.0,,,,,4,note_on,,88.0,65.0,88.0,7920,20.625
10069,3.0,,,,65.0,,,,,44,note_on,,0.0,65.0,0.0,7964,20.739583333333332
10070,3.0,,,,77.0,,,,,52,note_on,,88.0,77.0,88.0,8016,20.875
10071,3.0,,,,77.0,,,,,44,note_on,,0.0,77.0,0.0,8060,20.989583333333332
10072,3.0,,,,72.0,,,,,52,note_on,,88.0,72.0,88.0,8112,21.125
10073,3.0,,,,72.0,,,,,44,note_on,,0.0,72.0,0.0,8156,21.239583333333332
10074,3.0,,,,77.0,,,,,52,note_on,,44.0,77.0,44.0,8208,21.375
10075,3.0,,,,77.0,,,,,44,note_on,,0.0,77.0,0.0,8252,21.489583333333332
10076,3.0,,,,72.0,,,,,52,note_on,,44.0,72.0,44.0,8304,21.625
10077,3.0,,,,72.0,,,,,44,note_on,,0.0,72.0,0.0,8348,21.739583333333332
10078,3.0,,,,77.0,,,,,52,note_on,,22.0,77.0,22.0,8400,21.875
10079,3.0,,,,77.0,,,,,44,note_on,,0.0,77.0,0.0,8444,21.989583333333332
10080,3.0,,,,72.0,,,,,52,note_on,,22.0,72.0,22.0,8496,22.125
10081,3.0,,,,72.0,,,,,44,note_on,,0.0,72.0,0.0,8540,22.239583333333332
10082,3.0,,,,67.0,,,,,100,note_on,,88.0,67.0,88.0,8640,22.5
10083,3.0,,,,67.0,,,,,44,note_on,,0.0,67.0,0.0,8684,22.614583333333332
10084,3.0,,,,64.0,,,,,4,note_on,,88.0,64.0,88.0,8688,22.625
10085,3.0,,,,64.0,,,,,44,note_on,,0.0,64.0,0.0,8732,22.739583333333332
10086,3.0,,,,72.0,,,,,52,note_on,,88.0,72.0,88.0,8784,22.875
10087,3.0,,,,72.0,,,,,44,note_on,,0.0,72.0,0.0,8828,22.989583333333332
10088,3.0,,,,67.0,,,,,52,note_on,,88.0,67.0,88.0,8880,23.125
10089,3.0,,,,67.0,,,,,44,note_on,,0.0,67.0,0.0,8924,23.239583333333332
10090,3.0,,,,72.0,,,,,52,note_on,,44.0,72.0,44.0,8976,23.375
10091,3.0,,,,72.0,,,,,44,note_on,,0.0,72.0,0.0,9020,23.489583333333332
10092,3.0,,,,67.0,,,,,52,note_on,,44.0,67.0,44.0,9072,23.625
10093,3.0,,,,67.0,,,,,44,note_on,,0.0,67.0,0.0,9116,23.739583333333332
10094,3.0,,,,72.0,,,,,52,note_on,,22.0,72.0,22.0,9168,23.875
10095,3.0,,,,72.0,,,,,44,note_on,,0.0,72.0,0.0,9212,23.989583333333332
10096,3.0,,,,67.0,,,,,52,note_on,,22.0,67.0,22.0,9264,24.125
10097,3.0,,,,67.0,,,,,44,note_on,,0.0,67.0,0.0,9308,24.239583333333332
10098,3.0,,,,71.0,,,,,100,note_on,,88.0,71.0,88.0,9408,24.5
10099,3.0,,,,71.0,,,,,44,note_on,,0.0,71.0,0.0,9452,24.614583333333332
10100,3.0,,,,67.0,,,,,4,note_on,,88.0,67.0,88.0,9456,24.625
10101,3.0,,,,67.0,,,,,44,note_on,,0.0,67.0,0.0,9500,24.739583333333332
10102,3.0,,,,79.0,,,,,52,note_on,,88.0,79.0,88.0,9552,24.875
10103,3.0,,,,79.0,,,,,44,note_on,,0.0,79.0,0.0,9596,24.989583333333332
10104,3.0,,,,74.0,,,,,52,note_on,,88.0,74.0,88.0,9648,25.125
10105,3.0,,,,74.0,,,,,44,note_on,,0.0,74.0,0.0,9692,25.239583333333332
10106,3.0,,,,79.0,,,,,52,note_on,,44.0,79.0,44.0,9744,25.375
10107,3.0,,,,79.0,,,,,44,note_on,,0.0,79.0,0.0,9788,25.489583333333332
10108,3.0,,,,74.0,,,,,52,note_on,,44.0,74.0,44.0,9840,25.625
10109,3.0,,,,74.0,,,,,44,note_on,,0.0,74.0,0.0,9884,25.739583333333332
10110,3.0,,,,79.0,,,,,52,note_on,,22.0,79.0,22.0,9936,25.875
10111,3.0,,,,79.0,,,,,44,note_on,,0.0,79.0,0.0,9980,25.989583333333332
10112,3.0,,,,74.0,,,,,52,note_on,,22.0,74.0,22.0,10032,26.125
10113,3.0,,,,74.0,,,,,44,note_on,,0.0,74.0,0.0,10076,26.239583333333332
10114,3.0,,,,71.0,,,,,100,note_on,,88.0,71.0,88.0,10176,26.5
10115,3.0,,,,71.0,,,,,44,note_on,,0.0,71.0,0.0,10220,26.614583333333332
10116,3.0,,,,67.0,,,,,4,note_on,,88.0,67.0,88.0,10224,26.625
10117,3.0,,,,67.0,,,,,44,note_on,,0.0,67.0,0.0,10268,26.739583333333332
10118,3.0,,,,79.0,,,,,52,note_on,,88.0,79.0,88.0,10320,26.875
10119,3.0,,,,79.0,,,,,44,note_on,,0.0,79.0,0.0,10364,26.989583333333332
10120,3.0,,,,74.0,,,,,52,note_on,,88.0,74.0,88.0,10416,27.125
10121,3.0,,,,74.0,,,,,44,note_on,,0.0,74.0,0.0,10460,27.239583333333332
10122,3.0,,,,79.0,,,,,52,note_on,,44.0,79.0,44.0,10512,27.375
10123,3.0,,,,79.0,,,,,44,note_on,,0.0,79.0,0.0,10556,27.489583333333332
10124,3.0,,,,74.0,,,,,52,note_on,,44.0,74.0,44.0,10608,27.625
10125,3.0,,,,74.0,,,,,44,note_on,,0.0,74.0,0.0,10652,27.739583333333332
10126,3.0,,,,79.0,,,,,52,note_on,,22.0,79.0,22.0,10704,27.875
10127,3.0,,,,79.0,,,,,44,note_on,,0.0,79.0,0.0,10748,27.989583333333332
10128,3.0,,,,74.0,,,,,52,note_on,,22.0,74.0,22.0,10800,28.125
10129,3.0,,,,74.0,,,,,44,note_on,,0.0,74.0,0.0,10844,28.239583333333332
10130,3.0,,,,69.0,,,,,100,note_on,,88.0,69.0,88.0,10944,28.5
10131,3.0,,,,69.0,,,,,44,note_on,,0.0,69.0,0.0,10988,28.614583333333332
10132,3.0,,,,65.0,,,,,4,note_on,,88.0,65.0,88.0,10992,28.625
10133,3.0,,,,65.0,,,,,44,note_on,,0.0,65.0,0.0,11036,28.739583333333332
10134,3.0,,,,77.0,,,,,52,note_on,,88.0,77.0,88.0,11088,28.875
10135,3.0,,,,77.0,,,,,44,note_on,,0.0,77.0,0.0,11132,28.989583333333332
10136,3.0,,,,72.0,,,,,52,note_on,,88.0,72.0,88.0,11184,29.125
10137,3.0,,,,72.0,,,,,44,note_on,,0.0,72.0,0.0,11228,29.239583333333332
10138,3.0,,,,77.0,,,,,52,note_on,,44.0,77.0,44.0,11280,29.375
10139,3.0,,,,77.0,,,,,44,note_on,,0.0,77.0,0.0,11324,29.489583333333332
10140,3.0,,,,72.0,,,,,52,note_on,,44.0,72.0,44.0,11376,29.625
10141,3.0,,,,72.0,,,,,44,note_on,,0.0,72.0,0.0,11420,29.739583333333332
10142,3.0,,,,77.0,,,,,52,note_on,,22.0,77.0,22.0,11472,29.875
10143,3.0,,,,77.0,,,,,44,note_on,,0.0,77.0,0.0,11516,29.989583333333332
10144,3.0,,,,72.0,,,,,52,note_on,,22.0,72.0,22.0,11568,30.125
10145,3.0,,,,72.0,,,,,44,note_on,,0.0,72.0,0.0,11612,30.239583333333332
10146,3.0,,,,67.0,,,,,100,note_on,,88.0,67.0,88.0,11712,30.5
10147,3.0,,,,67.0,,,,,44,note_on,,0.0,67.0,0.0,11756,30.614583333333332
10148,3.0,,,,64.0,,,,,4,note_on,,88.0,64.0,88.0,11760,30.625
10149,3.0,,,,64.0,,,,,44,note_on,,0.0,64.0,0.0,11804,30.739583333333332
10150,3.0,,,,72.0,,,,,52,note_on,,88.0,72.0,88.0,11856,30.875
10151,3.0,,,,72.0,,,,,44,note_on,,0.0,72.0,0.0,11900,30.989583333333332
10152,3.0,,,,67.0,,,,,52,note_on,,88.0,67.0,88.0,11952,31.125
10153,3.0,,,,67.0,,,,,44,note_on,,0.0,67.0,0.0,11996,31.239583333333332
10154,3.0,,,,72.0,,,,,52,note_on,,44.0,72.0,44.0,12048,31.375
10155,3.0,,,,72.0,,,,,44,note_on,,0.0,72.0,0.0,12092,31.489583333333332
10156,3.0,,,,67.0,,,,,52,note_on,,44.0,67.0,44.0,12144,31.625
10157,3.0,,,,67.0,,,,,44,note_on,,0.0,67.0,0.0,12188,31.739583333333332
10158,3.0,,,,72.0,,,,,52,note_on,,22.0,72.0,22.0,12240,31.875
10159,3.0,,,,72.0,,,,,44,note_on,,0.0,72.0,0.0,12284,31.989583333333332
10160,3.0,,,,67.0,,,,,52,note_on,,22.0,67.0,22.0,12336,32.125
10161,3.0,,,,67.0,,,,,44,note_on,,0.0,67.0,0.0,12380,32.23958333333333
10162,3.0,,,,71.0,,,,,100,note_on,,88.0,71.0,88.0,12480,32.5
10163,3.0,,,,71.0,,,,,44,note_on,,0.0,71.0,0.0,12524,32.61458333333333
10164,3.0,,,,67.0,,,,,4,note_on,,88.0,67.0,88.0,12528,32.625
10165,3.0,,,,67.0,,,,,44,note_on,,0.0,67.0,0.0,12572,32.73958333333333
10166,3.0,,,,79.0,,,,,52,note_on,,88.0,79.0,88.0,12624,32.875
10167,3.0,,,,79.0,,,,,44,note_on,,0.0,79.0,0.0,12668,32.98958333333333
10168,3.0,,,,74.0,,,,,52,note_on,,88.0,74.0,88.0,12720,33.125
10169,3.0,,,,74.0,,,,,44,note_on,,0.0,74.0,0.0,12764,33.23958333333333
10170,3.0,,,,79.0,,,,,52,note_on,,44.0,79.0,44.0,12816,33.375
10171,3.0,,,,79.0,,,,,44,note_on,,0.0,79.0,0.0,12860,33.48958333333333
10172,3.0,,,,74.0,,,,,52,note_on,,44.0,74.0,44.0,12912,33.625
10173,3.0,,,,74.0,,,,,44,note_on,,0.0,74.0,0.0,12956,33.73958333333333
10174,3.0,,,,79.0,,,,,52,note_on,,22.0,79.0,22.0,13008,33.875
10175,3.0,,,,79.0,,,,,44,note_on,,0.0,79.0,0.0,13052,33.98958333333333
10176,3.0,,,,74.0,,,,,52,note_on,,22.0,74.0,22.0,13104,34.125
10177,3.0,,,,74.0,,,,,44,note_on,,0.0,74.0,0.0,13148,34.23958333333333
10178,3.0,,,,71.0,,,,,12388,note_on,,88.0,71.0,88.0,25536,66.5
10179,3.0,,,,71.0,,,,,44,note_on,,0.0,71.0,0.0,25580,66.61458333333333
10180,3.0,,,,67.0,,,,,4,note_on,,88.0,67.0,88.0,25584,66.625
10181,3.0,,,,67.0,,,,,44,note_on,,0.0,67.0,0.0,25628,66.73958333333333
10182,3.0,,,,79.0,,,,,52,note_on,,88.0,79.0,88.0,25680,66.875
10183,3.0,,,,79.0,,,,,44,note_on,,0.0,79.0,0.0,25724,66.98958333333333
10184,3.0,,,,74.0,,,,,52,note_on,,88.0,74.0,88.0,25776,67.125
10185,3.0,,,,74.0,,,,,44,note_on,,0.0,74.0,0.0,25820,67.23958333333333
10186,3.0,,,,79.0,,,,,52,note_on,,44.0,79.0,44.0,25872,67.375
10187,3.0,,,,79.0,,,,,44,note_on,,0.0,79.0,0.0,25916,67.48958333333333
10188,3.0,,,,74.0,,,,,52,note_on,,44.0,74.0,44.0,25968,67.625
10189,3.0,,,,74.0,,,,,44,note_on,,0.0,74.0,0.0,26012,67.73958333333333
10190,3.0,,,,79.0,,,,,52,note_on,,22.0,79.0,22.0,26064,67.875
10191,3.0,,,,79.0,,,,,44,note_on,,0.0,79.0,0.0,26108,67.98958333333333
10192,3.0,,,,74.0,,,,,52,note_on,,22.0,74.0,22.0,26160,68.125
10193,3.0,,,,74.0,,,,,44,note_on,,0.0,74.0,0.0,26204,68.23958333333333
10194,3.0,,,,69.0,,,,,100,note_on,,88.0,69.0,88.0,26304,68.5
10195,3.0,,,,69.0,,,,,44,note_on,,0.0,69.0,0.0,26348,68.61458333333333
10196,3.0,,,,65.0,,,,,4,note_on,,88.0,65.0,88.0,26352,68.625
10197,3.0,,,,65.0,,,,,44,note_on,,0.0,65.0,0.0,26396,68.73958333333333
10198,3.0,,,,77.0,,,,,52,note_on,,88.0,77.0,88.0,26448,68.875
10199,3.0,,,,77.0,,,,,44,note_on,,0.0,77.0,0.0,26492,68.98958333333333
10200,3.0,,,,72.0,,,,,52,note_on,,88.0,72.0,88.0,26544,69.125
10201,3.0,,,,72.0,,,,,44,note_on,,0.0,72.0,0.0,26588,69.23958333333333
10202,3.0,,,,77.0,,,,,52,note_on,,44.0,77.0,44.0,26640,69.375
10203,3.0,,,,77.0,,,,,44,note_on,,0.0,77.0,0.0,26684,69.48958333333333
10204,3.0,,,,72.0,,,,,52,note_on,,44.0,72.0,44.0,26736,69.625
10205,3.0,,,,72.0,,,,,44,note_on,,0.0,72.0,0.0,26780,69.73958333333333
10206,3.0,,,,77.0,,,,,52,note_on,,22.0,77.0,22.0,26832,69.875
10207,3.0,,,,77.0,,,,,44,note_on,,0.0,77.0,0.0,26876,69.98958333333333
10208,3.0,,,,72.0,,,,,52,note_on,,22.0,72.0,22.0,26928,70.125
10209,3.0,,,,72.0,,,,,44,note_on,,0.0,72.0,0.0,26972,70.23958333333333
10210,3.0,,,,67.0,,,,,100,note_on,,88.0,67.0,88.0,27072,70.5
10211,3.0,,,,67.0,,,,,44,note_on,,0.0,67.0,0.0,27116,70.61458333333333
10212,3.0,,,,64.0,,,,,4,note_on,,88.0,64.0,88.0,27120,70.625
10213,3.0,,,,64.0,,,,,44,note_on,,0.0,64.0,0.0,27164,70.73958333333333
10214,3.0,,,,72.0,,,,,52,note_on,,88.0,72.0,88.0,27216,70.875
10215,3.0,,,,72.0,,,,,44,note_on,,0.0,72.0,0.0,27260,70.98958333333333
10216,3.0,,,,67.0,,,,,52,note_on,,88.0,67.0,88.0,27312,71.125
10217,3.0,,,,67.0,,,,,44,note_on,,0.0,67.0,0.0,27356,71.23958333333333
10218,3.0,,,,72.0,,,,,52,note_on,,44.0,72.0,44.0,27408,71.375
10219,3.0,,,,72.0,,,,,44,note_on,,0.0,72.0,0.0,27452,71.48958333333333
10220,3.0,,,,67.0,,,,,52,note_on,,44.0,67.0,44.0,27504,71.625
10221,3.0,,,,67.0,,,,,44,note_on,,0.0,67.0,0.0,27548,71.73958333333333
10222,3.0,,,,72.0,,,,,52,note_on,,22.0,72.0,22.0,27600,71.875
10223,3.0,,,,72.0,,,,,44,note_on,,0.0,72.0,0.0,27644,71.98958333333333
10224,3.0,,,,67.0,,,,,52,note_on,,22.0,67.0,22.0,27696,72.125
10225,3.0,,,,67.0,,,,,44,note_on,,0.0,67.0,0.0,27740,72.23958333333333
10226,3.0,,,,71.0,,,,,100,note_on,,88.0,71.0,88.0,27840,72.5
10227,3.0,,,,71.0,,,,,44,note_on,,0.0,71.0,0.0,27884,72.61458333333333
10228,3.0,,,,67.0,,,,,4,note_on,,88.0,67.0,88.0,27888,72.625
10229,3.0,,,,67.0,,,,,44,note_on,,0.0,67.0,0.0,27932,72.73958333333333
10230,3.0,,,,79.0,,,,,52,note_on,,88.0,79.0,88.0,27984,72.875
10231,3.0,,,,79.0,,,,,44,note_on,,0.0,79.0,0.0,28028,72.98958333333333
10232,3.0,,,,74.0,,,,,52,note_on,,88.0,74.0,88.0,28080,73.125
10233,3.0,,,,74.0,,,,,44,note_on,,0.0,74.0,0.0,28124,73.23958333333333
10234,3.0,,,,79.0,,,,,52,note_on,,44.0,79.0,44.0,28176,73.375
10235,3.0,,,,79.0,,,,,44,note_on,,0.0,79.0,0.0,28220,73.48958333333333
10236,3.0,,,,74.0,,,,,52,note_on,,44.0,74.0,44.0,28272,73.625
10237,3.0,,,,74.0,,,,,44,note_on,,0.0,74.0,0.0,28316,73.73958333333333
10238,3.0,,,,79.0,,,,,52,note_on,,22.0,79.0,22.0,28368,73.875
10239,3.0,,,,79.0,,,,,44,note_on,,0.0,79.0,0.0,28412,73.98958333333333
10240,3.0,,,,74.0,,,,,52,note_on,,22.0,74.0,22.0,28464,74.125
10241,3.0,,,,74.0,,,,,44,note_on,,0.0,74.0,0.0,28508,74.23958333333333
10242,3.0,,,,71.0,,,,,100,note_on,,88.0,71.0,88.0,28608,74.5
10243,3.0,,,,71.0,,,,,44,note_on,,0.0,71.0,0.0,28652,74.61458333333333
10244,3.0,,,,67.0,,,,,4,note_on,,88.0,67.0,88.0,28656,74.625
10245,3.0,,,,67.0,,,,,44,note_on,,0.0,67.0,0.0,28700,74.73958333333333
10246,3.0,,,,79.0,,,,,52,note_on,,88.0,79.0,88.0,28752,74.875
10247,3.0,,,,79.0,,,,,44,note_on,,0.0,79.0,0.0,28796,74.98958333333333
10248,3.0,,,,74.0,,,,,52,note_on,,88.0,74.0,88.0,28848,75.125
10249,3.0,,,,74.0,,,,,44,note_on,,0.0,74.0,0.0,28892,75.23958333333333
10250,3.0,,,,79.0,,,,,52,note_on,,44.0,79.0,44.0,28944,75.375
10251,3.0,,,,79.0,,,,,44,note_on,,0.0,79.0,0.0,28988,75.48958333333333
10252,3.0,,,,74.0,,,,,52,note_on,,44.0,74.0,44.0,29040,75.625
10253,3.0,,,,74.0,,,,,44,note_on,,0.0,74.0,0.0,29084,75.73958333333333
10254,3.0,,,,79.0,,,,,52,note_on,,22.0,79.0,22.0,29136,75.875
10255,3.0,,,,79.0,,,,,44,note_on,,0.0,79.0,0.0,29180,75.98958333333333
10256,3.0,,,,74.0,,,,,52,note_on,,22.0,74.0,22.0,29232,76.125
10257,3.0,,,,74.0,,,,,44,note_on,,0.0,74.0,0.0,29276,76.23958333333333
10258,3.0,,,,69.0,,,,,100,note_on,,88.0,69.0,88.0,29376,76.5
10259,3.0,,,,69.0,,,,,44,note_on,,0.0,69.0,0.0,29420,76.61458333333333
10260,3.0,,,,65.0,,,,,4,note_on,,88.0,65.0,88.0,29424,76.625
10261,3.0,,,,65.0,,,,,44,note_on,,0.0,65.0,0.0,29468,76.73958333333333
10262,3.0,,,,77.0,,,,,52,note_on,,88.0,77.0,88.0,29520,76.875
10263,3.0,,,,77.0,,,,,44,note_on,,0.0,77.0,0.0,29564,76.98958333333333
10264,3.0,,,,72.0,,,,,52,note_on,,88.0,72.0,88.0,29616,77.125
10265,3.0,,,,72.0,,,,,44,note_on,,0.0,72.0,0.0,29660,77.23958333333333
10266,3.0,,,,77.0,,,,,52,note_on,,44.0,77.0,44.0,29712,77.375
10267,3.0,,,,77.0,,,,,44,note_on,,0.0,77.0,0.0,29756,77.48958333333333
10268,3.0,,,,72.0,,,,,52,note_on,,44.0,72.0,44.0,29808,77.625
10269,3.0,,,,72.0,,,,,44,note_on,,0.0,72.0,0.0,29852,77.73958333333333
10270,3.0,,,,77.0,,,,,52,note_on,,22.0,77.0,22.0,29904,77.875
10271,3.0,,,,77.0,,,,,44,note_on,,0.0,77.0,0.0,29948,77.98958333333333
10272,3.0,,,,72.0,,,,,52,note_on,,22.0,72.0,22.0,30000,78.125
10273,3.0,,,,72.0,,,,,44,note_on,,0.0,72.0,0.0,30044,78.23958333333333
10274,3.0,,,,67.0,,,,,100,note_on,,88.0,67.0,88.0,30144,78.5
10275,3.0,,,,67.0,,,,,44,note_on,,0.0,67.0,0.0,30188,78.61458333333333
10276,3.0,,,,64.0,,,,,4,note_on,,88.0,64.0,88.0,30192,78.625
10277,3.0,,,,64.0,,,,,44,note_on,,0.0,64.0,0.0,30236,78.73958333333333
10278,3.0,,,,72.0,,,,,52,note_on,,88.0,72.0,88.0,30288,78.875
10279,3.0,,,,72.0,,,,,44,note_on,,0.0,72.0,0.0,30332,78.98958333333333
10280,3.0,,,,67.0,,,,,52,note_on,,88.0,67.0,88.0,30384,79.125
10281,3.0,,,,67.0,,,,,44,note_on,,0.0,67.0,0.0,30428,79.23958333333333
10282,3.0,,,,72.0,,,,,52,note_on,,44.0,72.0,44.0,30480,79.375
10283,3.0,,,,72.0,,,,,44,note_on,,0.0,72.0,0.0,30524,79.48958333333333
10284,3.0,,,,67.0,,,,,52,note_on,,44.0,67.0,44.0,30576,79.625
10285,3.0,,,,67.0,,,,,44,note_on,,0.0,67.0,0.0,30620,79.73958333333333
10286,3.0,,,,72.0,,,,,52,note_on,,22.0,72.0,22.0,30672,79.875
10287,3.0,,,,72.0,,,,,44,note_on,,0.0,72.0,0.0,30716,79.98958333333333
10288,3.0,,,,67.0,,,,,52,note_on,,22.0,67.0,22.0,30768,80.125
10289,3.0,,,,67.0,,,,,44,note_on,,0.0,67.0,0.0,30812,80.23958333333333
10290,3.0,,,,71.0,,,,,100,note_on,,88.0,71.0,88.0,30912,80.5
10291,3.0,,,,71.0,,,,,44,note_on,,0.0,71.0,0.0,30956,80.61458333333333
10292,3.0,,,,67.0,,,,,4,note_on,,88.0,67.0,88.0,30960,80.625
10293,3.0,,,,67.0,,,,,44,note_on,,0.0,67.0,0.0,31004,80.73958333333333
10294,3.0,,,,79.0,,,,,52,note_on,,88.0,79.0,88.0,31056,80.875
10295,3.0,,,,79.0,,,,,44,note_on,,0.0,79.0,0.0,31100,80.98958333333333
10296,3.0,,,,74.0,,,,,52,note_on,,88.0,74.0,88.0,31152,81.125
10297,3.0,,,,74.0,,,,,44,note_on,,0.0,74.0,0.0,31196,81.23958333333333
10298,3.0,,,,79.0,,,,,52,note_on,,44.0,79.0,44.0,31248,81.375
10299,3.0,,,,79.0,,,,,44,note_on,,0.0,79.0,0.0,31292,81.48958333333333
10300,3.0,,,,74.0,,,,,52,note_on,,44.0,74.0,44.0,31344,81.625
10301,3.0,,,,74.0,,,,,44,note_on,,0.0,74.0,0.0,31388,81.73958333333333
10302,3.0,,,,79.0,,,,,52,note_on,,22.0,79.0,22.0,31440,81.875
10303,3.0,,,,79.0,,,,,44,note_on,,0.0,79.0,0.0,31484,81.98958333333333
10304,3.0,,,,74.0,,,,,52,note_on,,22.0,74.0,22.0,31536,82.125
10305,3.0,,,,74.0,,,,,44,note_on,,0.0,74.0,0.0,31580,82.23958333333333
10306,,,,,,,,,,0,end_of_track,,,,,4638550992,12079559.875
10307,8.0,0.0,,,,,,,,0,control_change,0.0,,,,0,0.0
10308,8.0,,,,,,87.0,,,0,program_change,,,,,0,0.0
10309,,,"(74, 65, 90, 50, 1, 0, 0, 0, 0, 0, 0, 0, 0, 0, 0, 0, 0, 0, 0, 0)",,,,,,,0,sequencer_specific,,,,,4638551208,12079560.4375
10310,8.0,10.0,,,,,,,,0,control_change,14.0,,,,0,0.0
10311,8.0,91.0,,,,,,,,0,control_change,40.0,,,,0,0.0
10312,8.0,64.0,,,,,,,,0,control_change,60.0,,,,0,0.0
10313,8.0,93.0,,,,,,,,0,control_change,0.0,,,,0,0.0
10314,8.0,7.0,,,,,,,,0,control_change,74.0,,,,0,0.0
10315,,,,Bass And Lead,,,,,,0,track_name,,,,,4638551640,12079561.5625
10316,8.0,,,,71.0,,,,,960,note_on,,88.0,71.0,88.0,960,2.5
10317,8.0,,,,71.0,,,,,44,note_on,,0.0,71.0,0.0,1004,2.614583333333333
10318,8.0,,,,67.0,,,,,4,note_on,,88.0,67.0,88.0,1008,2.625
10319,8.0,,,,67.0,,,,,44,note_on,,0.0,67.0,0.0,1052,2.739583333333333
10320,8.0,,,,79.0,,,,,52,note_on,,88.0,79.0,88.0,1104,2.875
10321,8.0,,,,79.0,,,,,44,note_on,,0.0,79.0,0.0,1148,2.989583333333333
10322,8.0,,,,74.0,,,,,52,note_on,,88.0,74.0,88.0,1200,3.125
10323,8.0,,,,74.0,,,,,44,note_on,,0.0,74.0,0.0,1244,3.239583333333333
10324,8.0,,,,79.0,,,,,52,note_on,,44.0,79.0,44.0,1296,3.375
10325,8.0,,,,79.0,,,,,44,note_on,,0.0,79.0,0.0,1340,3.489583333333333
10326,8.0,,,,74.0,,,,,52,note_on,,44.0,74.0,44.0,1392,3.625
10327,8.0,,,,74.0,,,,,44,note_on,,0.0,74.0,0.0,1436,3.739583333333333
10328,8.0,,,,79.0,,,,,52,note_on,,22.0,79.0,22.0,1488,3.875
10329,8.0,,,,79.0,,,,,44,note_on,,0.0,79.0,0.0,1532,3.989583333333333
10330,8.0,,,,74.0,,,,,52,note_on,,22.0,74.0,22.0,1584,4.125
10331,8.0,,,,74.0,,,,,44,note_on,,0.0,74.0,0.0,1628,4.239583333333333
10332,8.0,,,,69.0,,,,,100,note_on,,88.0,69.0,88.0,1728,4.5
10333,8.0,,,,69.0,,,,,44,note_on,,0.0,69.0,0.0,1772,4.614583333333333
10334,8.0,,,,65.0,,,,,4,note_on,,88.0,65.0,88.0,1776,4.625
10335,8.0,,,,65.0,,,,,44,note_on,,0.0,65.0,0.0,1820,4.739583333333333
10336,8.0,,,,77.0,,,,,52,note_on,,88.0,77.0,88.0,1872,4.875
10337,8.0,,,,77.0,,,,,44,note_on,,0.0,77.0,0.0,1916,4.989583333333333
10338,8.0,,,,72.0,,,,,52,note_on,,88.0,72.0,88.0,1968,5.125
10339,8.0,,,,72.0,,,,,44,note_on,,0.0,72.0,0.0,2012,5.239583333333333
10340,8.0,,,,77.0,,,,,52,note_on,,44.0,77.0,44.0,2064,5.375
10341,8.0,,,,77.0,,,,,44,note_on,,0.0,77.0,0.0,2108,5.489583333333333
10342,8.0,,,,72.0,,,,,52,note_on,,44.0,72.0,44.0,2160,5.625
10343,8.0,,,,72.0,,,,,44,note_on,,0.0,72.0,0.0,2204,5.739583333333333
10344,8.0,,,,77.0,,,,,52,note_on,,22.0,77.0,22.0,2256,5.875
10345,8.0,,,,77.0,,,,,44,note_on,,0.0,77.0,0.0,2300,5.989583333333333
10346,8.0,,,,72.0,,,,,52,note_on,,22.0,72.0,22.0,2352,6.125
10347,8.0,,,,72.0,,,,,44,note_on,,0.0,72.0,0.0,2396,6.239583333333333
10348,8.0,,,,67.0,,,,,100,note_on,,88.0,67.0,88.0,2496,6.5
10349,8.0,,,,67.0,,,,,44,note_on,,0.0,67.0,0.0,2540,6.614583333333333
10350,8.0,,,,64.0,,,,,4,note_on,,88.0,64.0,88.0,2544,6.625
10351,8.0,,,,64.0,,,,,44,note_on,,0.0,64.0,0.0,2588,6.739583333333333
10352,8.0,,,,72.0,,,,,52,note_on,,88.0,72.0,88.0,2640,6.875
10353,8.0,,,,72.0,,,,,44,note_on,,0.0,72.0,0.0,2684,6.989583333333333
10354,8.0,,,,67.0,,,,,52,note_on,,88.0,67.0,88.0,2736,7.125
10355,8.0,,,,67.0,,,,,44,note_on,,0.0,67.0,0.0,2780,7.239583333333333
10356,8.0,,,,72.0,,,,,52,note_on,,44.0,72.0,44.0,2832,7.375
10357,8.0,,,,72.0,,,,,44,note_on,,0.0,72.0,0.0,2876,7.489583333333333
10358,8.0,,,,67.0,,,,,52,note_on,,44.0,67.0,44.0,2928,7.625
10359,8.0,,,,67.0,,,,,44,note_on,,0.0,67.0,0.0,2972,7.739583333333333
10360,8.0,,,,72.0,,,,,52,note_on,,22.0,72.0,22.0,3024,7.875
10361,8.0,,,,72.0,,,,,44,note_on,,0.0,72.0,0.0,3068,7.989583333333333
10362,8.0,,,,67.0,,,,,52,note_on,,22.0,67.0,22.0,3120,8.125
10363,8.0,,,,67.0,,,,,44,note_on,,0.0,67.0,0.0,3164,8.239583333333332
10364,8.0,,,,71.0,,,,,100,note_on,,88.0,71.0,88.0,3264,8.5
10365,8.0,,,,71.0,,,,,44,note_on,,0.0,71.0,0.0,3308,8.614583333333332
10366,8.0,,,,67.0,,,,,4,note_on,,88.0,67.0,88.0,3312,8.625
10367,8.0,,,,67.0,,,,,44,note_on,,0.0,67.0,0.0,3356,8.739583333333332
10368,8.0,,,,79.0,,,,,52,note_on,,88.0,79.0,88.0,3408,8.875
10369,8.0,,,,79.0,,,,,44,note_on,,0.0,79.0,0.0,3452,8.989583333333332
10370,8.0,,,,74.0,,,,,52,note_on,,88.0,74.0,88.0,3504,9.125
10371,8.0,,,,74.0,,,,,44,note_on,,0.0,74.0,0.0,3548,9.239583333333332
10372,8.0,,,,79.0,,,,,52,note_on,,44.0,79.0,44.0,3600,9.375
10373,8.0,,,,79.0,,,,,44,note_on,,0.0,79.0,0.0,3644,9.489583333333332
10374,8.0,,,,74.0,,,,,52,note_on,,44.0,74.0,44.0,3696,9.625
10375,8.0,,,,74.0,,,,,44,note_on,,0.0,74.0,0.0,3740,9.739583333333332
10376,8.0,,,,79.0,,,,,52,note_on,,22.0,79.0,22.0,3792,9.875
10377,8.0,,,,79.0,,,,,44,note_on,,0.0,79.0,0.0,3836,9.989583333333332
10378,8.0,,,,74.0,,,,,52,note_on,,22.0,74.0,22.0,3888,10.125
10379,8.0,,,,74.0,,,,,44,note_on,,0.0,74.0,0.0,3932,10.239583333333332
10380,8.0,,,,71.0,,,,,100,note_on,,88.0,71.0,88.0,4032,10.5
10381,8.0,,,,71.0,,,,,44,note_on,,0.0,71.0,0.0,4076,10.614583333333332
10382,8.0,,,,67.0,,,,,4,note_on,,88.0,67.0,88.0,4080,10.625
10383,8.0,,,,67.0,,,,,44,note_on,,0.0,67.0,0.0,4124,10.739583333333332
10384,8.0,,,,79.0,,,,,52,note_on,,88.0,79.0,88.0,4176,10.875
10385,8.0,,,,79.0,,,,,44,note_on,,0.0,79.0,0.0,4220,10.989583333333332
10386,8.0,,,,74.0,,,,,52,note_on,,88.0,74.0,88.0,4272,11.125
10387,8.0,,,,74.0,,,,,44,note_on,,0.0,74.0,0.0,4316,11.239583333333332
10388,8.0,,,,79.0,,,,,52,note_on,,44.0,79.0,44.0,4368,11.375
10389,8.0,,,,79.0,,,,,44,note_on,,0.0,79.0,0.0,4412,11.489583333333332
10390,8.0,,,,74.0,,,,,52,note_on,,44.0,74.0,44.0,4464,11.625
10391,8.0,,,,74.0,,,,,44,note_on,,0.0,74.0,0.0,4508,11.739583333333332
10392,8.0,,,,79.0,,,,,52,note_on,,22.0,79.0,22.0,4560,11.875
10393,8.0,,,,79.0,,,,,44,note_on,,0.0,79.0,0.0,4604,11.989583333333332
10394,8.0,,,,74.0,,,,,52,note_on,,22.0,74.0,22.0,4656,12.125
10395,8.0,,,,74.0,,,,,44,note_on,,0.0,74.0,0.0,4700,12.239583333333332
10396,8.0,,,,69.0,,,,,100,note_on,,88.0,69.0,88.0,4800,12.5
10397,8.0,,,,69.0,,,,,44,note_on,,0.0,69.0,0.0,4844,12.614583333333332
10398,8.0,,,,65.0,,,,,4,note_on,,88.0,65.0,88.0,4848,12.625
10399,8.0,,,,65.0,,,,,44,note_on,,0.0,65.0,0.0,4892,12.739583333333332
10400,8.0,,,,77.0,,,,,52,note_on,,88.0,77.0,88.0,4944,12.875
10401,8.0,,,,77.0,,,,,44,note_on,,0.0,77.0,0.0,4988,12.989583333333332
10402,8.0,,,,72.0,,,,,52,note_on,,88.0,72.0,88.0,5040,13.125
10403,8.0,,,,72.0,,,,,44,note_on,,0.0,72.0,0.0,5084,13.239583333333332
10404,8.0,,,,77.0,,,,,52,note_on,,44.0,77.0,44.0,5136,13.375
10405,8.0,,,,77.0,,,,,44,note_on,,0.0,77.0,0.0,5180,13.489583333333332
10406,8.0,,,,72.0,,,,,52,note_on,,44.0,72.0,44.0,5232,13.625
10407,8.0,,,,72.0,,,,,44,note_on,,0.0,72.0,0.0,5276,13.739583333333332
10408,8.0,,,,77.0,,,,,52,note_on,,22.0,77.0,22.0,5328,13.875
10409,8.0,,,,77.0,,,,,44,note_on,,0.0,77.0,0.0,5372,13.989583333333332
10410,8.0,,,,72.0,,,,,52,note_on,,22.0,72.0,22.0,5424,14.125
10411,8.0,,,,72.0,,,,,44,note_on,,0.0,72.0,0.0,5468,14.239583333333332
10412,8.0,,,,67.0,,,,,100,note_on,,88.0,67.0,88.0,5568,14.5
10413,8.0,,,,67.0,,,,,44,note_on,,0.0,67.0,0.0,5612,14.614583333333332
10414,8.0,,,,64.0,,,,,4,note_on,,88.0,64.0,88.0,5616,14.625
10415,8.0,,,,64.0,,,,,44,note_on,,0.0,64.0,0.0,5660,14.739583333333332
10416,8.0,,,,72.0,,,,,52,note_on,,88.0,72.0,88.0,5712,14.875
10417,8.0,,,,72.0,,,,,44,note_on,,0.0,72.0,0.0,5756,14.989583333333332
10418,8.0,,,,67.0,,,,,52,note_on,,88.0,67.0,88.0,5808,15.125
10419,8.0,,,,67.0,,,,,44,note_on,,0.0,67.0,0.0,5852,15.239583333333332
10420,8.0,,,,72.0,,,,,52,note_on,,44.0,72.0,44.0,5904,15.375
10421,8.0,,,,72.0,,,,,44,note_on,,0.0,72.0,0.0,5948,15.489583333333332
10422,8.0,,,,67.0,,,,,52,note_on,,44.0,67.0,44.0,6000,15.625
10423,8.0,,,,67.0,,,,,44,note_on,,0.0,67.0,0.0,6044,15.739583333333332
10424,8.0,,,,72.0,,,,,52,note_on,,22.0,72.0,22.0,6096,15.875
10425,8.0,,,,72.0,,,,,44,note_on,,0.0,72.0,0.0,6140,15.989583333333332
10426,8.0,,,,67.0,,,,,52,note_on,,22.0,67.0,22.0,6192,16.125
10427,8.0,,,,67.0,,,,,44,note_on,,0.0,67.0,0.0,6236,16.239583333333332
10428,8.0,,,,71.0,,,,,868,note_on,,88.0,71.0,88.0,7104,18.5
10429,8.0,,,,71.0,,,,,44,note_on,,0.0,71.0,0.0,7148,18.614583333333332
10430,8.0,,,,67.0,,,,,4,note_on,,88.0,67.0,88.0,7152,18.625
10431,8.0,,,,67.0,,,,,44,note_on,,0.0,67.0,0.0,7196,18.739583333333332
10432,8.0,,,,79.0,,,,,52,note_on,,88.0,79.0,88.0,7248,18.875
10433,8.0,,,,79.0,,,,,44,note_on,,0.0,79.0,0.0,7292,18.989583333333332
10434,8.0,,,,74.0,,,,,52,note_on,,88.0,74.0,88.0,7344,19.125
10435,8.0,,,,74.0,,,,,44,note_on,,0.0,74.0,0.0,7388,19.239583333333332
10436,8.0,,,,79.0,,,,,52,note_on,,44.0,79.0,44.0,7440,19.375
10437,8.0,,,,79.0,,,,,44,note_on,,0.0,79.0,0.0,7484,19.489583333333332
10438,8.0,,,,74.0,,,,,52,note_on,,44.0,74.0,44.0,7536,19.625
10439,8.0,,,,74.0,,,,,44,note_on,,0.0,74.0,0.0,7580,19.739583333333332
10440,8.0,,,,79.0,,,,,52,note_on,,22.0,79.0,22.0,7632,19.875
10441,8.0,,,,79.0,,,,,44,note_on,,0.0,79.0,0.0,7676,19.989583333333332
10442,8.0,,,,74.0,,,,,52,note_on,,22.0,74.0,22.0,7728,20.125
10443,8.0,,,,74.0,,,,,44,note_on,,0.0,74.0,0.0,7772,20.239583333333332
10444,8.0,,,,69.0,,,,,100,note_on,,88.0,69.0,88.0,7872,20.5
10445,8.0,,,,69.0,,,,,44,note_on,,0.0,69.0,0.0,7916,20.614583333333332
10446,8.0,,,,65.0,,,,,4,note_on,,88.0,65.0,88.0,7920,20.625
10447,8.0,,,,65.0,,,,,44,note_on,,0.0,65.0,0.0,7964,20.739583333333332
10448,8.0,,,,77.0,,,,,52,note_on,,88.0,77.0,88.0,8016,20.875
10449,8.0,,,,77.0,,,,,44,note_on,,0.0,77.0,0.0,8060,20.989583333333332
10450,8.0,,,,72.0,,,,,52,note_on,,88.0,72.0,88.0,8112,21.125
10451,8.0,,,,72.0,,,,,44,note_on,,0.0,72.0,0.0,8156,21.239583333333332
10452,8.0,,,,77.0,,,,,52,note_on,,44.0,77.0,44.0,8208,21.375
10453,8.0,,,,77.0,,,,,44,note_on,,0.0,77.0,0.0,8252,21.489583333333332
10454,8.0,,,,72.0,,,,,52,note_on,,44.0,72.0,44.0,8304,21.625
10455,8.0,,,,72.0,,,,,44,note_on,,0.0,72.0,0.0,8348,21.739583333333332
10456,8.0,,,,77.0,,,,,52,note_on,,22.0,77.0,22.0,8400,21.875
10457,8.0,,,,77.0,,,,,44,note_on,,0.0,77.0,0.0,8444,21.989583333333332
10458,8.0,,,,72.0,,,,,52,note_on,,22.0,72.0,22.0,8496,22.125
10459,8.0,,,,72.0,,,,,44,note_on,,0.0,72.0,0.0,8540,22.239583333333332
10460,8.0,,,,67.0,,,,,100,note_on,,88.0,67.0,88.0,8640,22.5
10461,8.0,,,,67.0,,,,,44,note_on,,0.0,67.0,0.0,8684,22.614583333333332
10462,8.0,,,,64.0,,,,,4,note_on,,88.0,64.0,88.0,8688,22.625
10463,8.0,,,,64.0,,,,,44,note_on,,0.0,64.0,0.0,8732,22.739583333333332
10464,8.0,,,,72.0,,,,,52,note_on,,88.0,72.0,88.0,8784,22.875
10465,8.0,,,,72.0,,,,,44,note_on,,0.0,72.0,0.0,8828,22.989583333333332
10466,8.0,,,,67.0,,,,,52,note_on,,88.0,67.0,88.0,8880,23.125
10467,8.0,,,,67.0,,,,,44,note_on,,0.0,67.0,0.0,8924,23.239583333333332
10468,8.0,,,,72.0,,,,,52,note_on,,44.0,72.0,44.0,8976,23.375
10469,8.0,,,,72.0,,,,,44,note_on,,0.0,72.0,0.0,9020,23.489583333333332
10470,8.0,,,,67.0,,,,,52,note_on,,44.0,67.0,44.0,9072,23.625
10471,8.0,,,,67.0,,,,,44,note_on,,0.0,67.0,0.0,9116,23.739583333333332
10472,8.0,,,,72.0,,,,,52,note_on,,22.0,72.0,22.0,9168,23.875
10473,8.0,,,,72.0,,,,,44,note_on,,0.0,72.0,0.0,9212,23.989583333333332
10474,8.0,,,,67.0,,,,,52,note_on,,22.0,67.0,22.0,9264,24.125
10475,8.0,,,,67.0,,,,,44,note_on,,0.0,67.0,0.0,9308,24.239583333333332
10476,8.0,,,,71.0,,,,,100,note_on,,88.0,71.0,88.0,9408,24.5
10477,8.0,,,,71.0,,,,,44,note_on,,0.0,71.0,0.0,9452,24.614583333333332
10478,8.0,,,,67.0,,,,,4,note_on,,88.0,67.0,88.0,9456,24.625
10479,8.0,,,,67.0,,,,,44,note_on,,0.0,67.0,0.0,9500,24.739583333333332
10480,8.0,,,,79.0,,,,,52,note_on,,88.0,79.0,88.0,9552,24.875
10481,8.0,,,,79.0,,,,,44,note_on,,0.0,79.0,0.0,9596,24.989583333333332
10482,8.0,,,,74.0,,,,,52,note_on,,88.0,74.0,88.0,9648,25.125
10483,8.0,,,,74.0,,,,,44,note_on,,0.0,74.0,0.0,9692,25.239583333333332
10484,8.0,,,,79.0,,,,,52,note_on,,44.0,79.0,44.0,9744,25.375
10485,8.0,,,,79.0,,,,,44,note_on,,0.0,79.0,0.0,9788,25.489583333333332
10486,8.0,,,,74.0,,,,,52,note_on,,44.0,74.0,44.0,9840,25.625
10487,8.0,,,,74.0,,,,,44,note_on,,0.0,74.0,0.0,9884,25.739583333333332
10488,8.0,,,,79.0,,,,,52,note_on,,22.0,79.0,22.0,9936,25.875
10489,8.0,,,,79.0,,,,,44,note_on,,0.0,79.0,0.0,9980,25.989583333333332
10490,8.0,,,,74.0,,,,,52,note_on,,22.0,74.0,22.0,10032,26.125
10491,8.0,,,,74.0,,,,,44,note_on,,0.0,74.0,0.0,10076,26.239583333333332
10492,8.0,,,,71.0,,,,,100,note_on,,88.0,71.0,88.0,10176,26.5
10493,8.0,,,,71.0,,,,,44,note_on,,0.0,71.0,0.0,10220,26.614583333333332
10494,8.0,,,,67.0,,,,,4,note_on,,88.0,67.0,88.0,10224,26.625
10495,8.0,,,,67.0,,,,,44,note_on,,0.0,67.0,0.0,10268,26.739583333333332
10496,8.0,,,,79.0,,,,,52,note_on,,88.0,79.0,88.0,10320,26.875
10497,8.0,,,,79.0,,,,,44,note_on,,0.0,79.0,0.0,10364,26.989583333333332
10498,8.0,,,,74.0,,,,,52,note_on,,88.0,74.0,88.0,10416,27.125
10499,8.0,,,,74.0,,,,,44,note_on,,0.0,74.0,0.0,10460,27.239583333333332
10500,8.0,,,,79.0,,,,,52,note_on,,44.0,79.0,44.0,10512,27.375
10501,8.0,,,,79.0,,,,,44,note_on,,0.0,79.0,0.0,10556,27.489583333333332
10502,8.0,,,,74.0,,,,,52,note_on,,44.0,74.0,44.0,10608,27.625
10503,8.0,,,,74.0,,,,,44,note_on,,0.0,74.0,0.0,10652,27.739583333333332
10504,8.0,,,,79.0,,,,,52,note_on,,22.0,79.0,22.0,10704,27.875
10505,8.0,,,,79.0,,,,,44,note_on,,0.0,79.0,0.0,10748,27.989583333333332
10506,8.0,,,,74.0,,,,,52,note_on,,22.0,74.0,22.0,10800,28.125
10507,8.0,,,,74.0,,,,,44,note_on,,0.0,74.0,0.0,10844,28.239583333333332
10508,8.0,,,,69.0,,,,,100,note_on,,88.0,69.0,88.0,10944,28.5
10509,8.0,,,,69.0,,,,,44,note_on,,0.0,69.0,0.0,10988,28.614583333333332
10510,8.0,,,,65.0,,,,,4,note_on,,88.0,65.0,88.0,10992,28.625
10511,8.0,,,,65.0,,,,,44,note_on,,0.0,65.0,0.0,11036,28.739583333333332
10512,8.0,,,,77.0,,,,,52,note_on,,88.0,77.0,88.0,11088,28.875
10513,8.0,,,,77.0,,,,,44,note_on,,0.0,77.0,0.0,11132,28.989583333333332
10514,8.0,,,,72.0,,,,,52,note_on,,88.0,72.0,88.0,11184,29.125
10515,8.0,,,,72.0,,,,,44,note_on,,0.0,72.0,0.0,11228,29.239583333333332
10516,8.0,,,,77.0,,,,,52,note_on,,44.0,77.0,44.0,11280,29.375
10517,8.0,,,,77.0,,,,,44,note_on,,0.0,77.0,0.0,11324,29.489583333333332
10518,8.0,,,,72.0,,,,,52,note_on,,44.0,72.0,44.0,11376,29.625
10519,8.0,,,,72.0,,,,,44,note_on,,0.0,72.0,0.0,11420,29.739583333333332
10520,8.0,,,,77.0,,,,,52,note_on,,22.0,77.0,22.0,11472,29.875
10521,8.0,,,,77.0,,,,,44,note_on,,0.0,77.0,0.0,11516,29.989583333333332
10522,8.0,,,,72.0,,,,,52,note_on,,22.0,72.0,22.0,11568,30.125
10523,8.0,,,,72.0,,,,,44,note_on,,0.0,72.0,0.0,11612,30.239583333333332
10524,8.0,,,,67.0,,,,,100,note_on,,88.0,67.0,88.0,11712,30.5
10525,8.0,,,,67.0,,,,,44,note_on,,0.0,67.0,0.0,11756,30.614583333333332
10526,8.0,,,,64.0,,,,,4,note_on,,88.0,64.0,88.0,11760,30.625
10527,8.0,,,,64.0,,,,,44,note_on,,0.0,64.0,0.0,11804,30.739583333333332
10528,8.0,,,,72.0,,,,,52,note_on,,88.0,72.0,88.0,11856,30.875
10529,8.0,,,,72.0,,,,,44,note_on,,0.0,72.0,0.0,11900,30.989583333333332
10530,8.0,,,,67.0,,,,,52,note_on,,88.0,67.0,88.0,11952,31.125
10531,8.0,,,,67.0,,,,,44,note_on,,0.0,67.0,0.0,11996,31.239583333333332
10532,8.0,,,,72.0,,,,,52,note_on,,44.0,72.0,44.0,12048,31.375
10533,8.0,,,,72.0,,,,,44,note_on,,0.0,72.0,0.0,12092,31.489583333333332
10534,8.0,,,,67.0,,,,,52,note_on,,44.0,67.0,44.0,12144,31.625
10535,8.0,,,,67.0,,,,,44,note_on,,0.0,67.0,0.0,12188,31.739583333333332
10536,8.0,,,,72.0,,,,,52,note_on,,22.0,72.0,22.0,12240,31.875
10537,8.0,,,,72.0,,,,,44,note_on,,0.0,72.0,0.0,12284,31.989583333333332
10538,8.0,,,,67.0,,,,,52,note_on,,22.0,67.0,22.0,12336,32.125
10539,8.0,,,,67.0,,,,,44,note_on,,0.0,67.0,0.0,12380,32.23958333333333
10540,8.0,,,,71.0,,,,,100,note_on,,88.0,71.0,88.0,12480,32.5
10541,8.0,,,,71.0,,,,,44,note_on,,0.0,71.0,0.0,12524,32.61458333333333
10542,8.0,,,,67.0,,,,,4,note_on,,88.0,67.0,88.0,12528,32.625
10543,8.0,,,,67.0,,,,,44,note_on,,0.0,67.0,0.0,12572,32.73958333333333
10544,8.0,,,,79.0,,,,,52,note_on,,88.0,79.0,88.0,12624,32.875
10545,8.0,,,,79.0,,,,,44,note_on,,0.0,79.0,0.0,12668,32.98958333333333
10546,8.0,,,,74.0,,,,,52,note_on,,88.0,74.0,88.0,12720,33.125
10547,8.0,,,,74.0,,,,,44,note_on,,0.0,74.0,0.0,12764,33.23958333333333
10548,8.0,,,,79.0,,,,,52,note_on,,44.0,79.0,44.0,12816,33.375
10549,8.0,,,,79.0,,,,,44,note_on,,0.0,79.0,0.0,12860,33.48958333333333
10550,8.0,,,,74.0,,,,,52,note_on,,44.0,74.0,44.0,12912,33.625
10551,8.0,,,,74.0,,,,,44,note_on,,0.0,74.0,0.0,12956,33.73958333333333
10552,8.0,,,,79.0,,,,,52,note_on,,22.0,79.0,22.0,13008,33.875
10553,8.0,,,,79.0,,,,,44,note_on,,0.0,79.0,0.0,13052,33.98958333333333
10554,8.0,,,,74.0,,,,,52,note_on,,22.0,74.0,22.0,13104,34.125
10555,8.0,,,,74.0,,,,,44,note_on,,0.0,74.0,0.0,13148,34.23958333333333
10556,8.0,,,,71.0,,,,,12388,note_on,,88.0,71.0,88.0,25536,66.5
10557,8.0,,,,71.0,,,,,44,note_on,,0.0,71.0,0.0,25580,66.61458333333333
10558,8.0,,,,67.0,,,,,4,note_on,,88.0,67.0,88.0,25584,66.625
10559,8.0,,,,67.0,,,,,44,note_on,,0.0,67.0,0.0,25628,66.73958333333333
10560,8.0,,,,79.0,,,,,52,note_on,,88.0,79.0,88.0,25680,66.875
10561,8.0,,,,79.0,,,,,44,note_on,,0.0,79.0,0.0,25724,66.98958333333333
10562,8.0,,,,74.0,,,,,52,note_on,,88.0,74.0,88.0,25776,67.125
10563,8.0,,,,74.0,,,,,44,note_on,,0.0,74.0,0.0,25820,67.23958333333333
10564,8.0,,,,79.0,,,,,52,note_on,,44.0,79.0,44.0,25872,67.375
10565,8.0,,,,79.0,,,,,44,note_on,,0.0,79.0,0.0,25916,67.48958333333333
10566,8.0,,,,74.0,,,,,52,note_on,,44.0,74.0,44.0,25968,67.625
10567,8.0,,,,74.0,,,,,44,note_on,,0.0,74.0,0.0,26012,67.73958333333333
10568,8.0,,,,79.0,,,,,52,note_on,,22.0,79.0,22.0,26064,67.875
10569,8.0,,,,79.0,,,,,44,note_on,,0.0,79.0,0.0,26108,67.98958333333333
10570,8.0,,,,74.0,,,,,52,note_on,,22.0,74.0,22.0,26160,68.125
10571,8.0,,,,74.0,,,,,44,note_on,,0.0,74.0,0.0,26204,68.23958333333333
10572,8.0,,,,69.0,,,,,100,note_on,,88.0,69.0,88.0,26304,68.5
10573,8.0,,,,69.0,,,,,44,note_on,,0.0,69.0,0.0,26348,68.61458333333333
10574,8.0,,,,65.0,,,,,4,note_on,,88.0,65.0,88.0,26352,68.625
10575,8.0,,,,65.0,,,,,44,note_on,,0.0,65.0,0.0,26396,68.73958333333333
10576,8.0,,,,77.0,,,,,52,note_on,,88.0,77.0,88.0,26448,68.875
10577,8.0,,,,77.0,,,,,44,note_on,,0.0,77.0,0.0,26492,68.98958333333333
10578,8.0,,,,72.0,,,,,52,note_on,,88.0,72.0,88.0,26544,69.125
10579,8.0,,,,72.0,,,,,44,note_on,,0.0,72.0,0.0,26588,69.23958333333333
10580,8.0,,,,77.0,,,,,52,note_on,,44.0,77.0,44.0,26640,69.375
10581,8.0,,,,77.0,,,,,44,note_on,,0.0,77.0,0.0,26684,69.48958333333333
10582,8.0,,,,72.0,,,,,52,note_on,,44.0,72.0,44.0,26736,69.625
10583,8.0,,,,72.0,,,,,44,note_on,,0.0,72.0,0.0,26780,69.73958333333333
10584,8.0,,,,77.0,,,,,52,note_on,,22.0,77.0,22.0,26832,69.875
10585,8.0,,,,77.0,,,,,44,note_on,,0.0,77.0,0.0,26876,69.98958333333333
10586,8.0,,,,72.0,,,,,52,note_on,,22.0,72.0,22.0,26928,70.125
10587,8.0,,,,72.0,,,,,44,note_on,,0.0,72.0,0.0,26972,70.23958333333333
10588,8.0,,,,67.0,,,,,100,note_on,,88.0,67.0,88.0,27072,70.5
10589,8.0,,,,67.0,,,,,44,note_on,,0.0,67.0,0.0,27116,70.61458333333333
10590,8.0,,,,64.0,,,,,4,note_on,,88.0,64.0,88.0,27120,70.625
10591,8.0,,,,64.0,,,,,44,note_on,,0.0,64.0,0.0,27164,70.73958333333333
10592,8.0,,,,72.0,,,,,52,note_on,,88.0,72.0,88.0,27216,70.875
10593,8.0,,,,72.0,,,,,44,note_on,,0.0,72.0,0.0,27260,70.98958333333333
10594,8.0,,,,67.0,,,,,52,note_on,,88.0,67.0,88.0,27312,71.125
10595,8.0,,,,67.0,,,,,44,note_on,,0.0,67.0,0.0,27356,71.23958333333333
10596,8.0,,,,72.0,,,,,52,note_on,,44.0,72.0,44.0,27408,71.375
10597,8.0,,,,72.0,,,,,44,note_on,,0.0,72.0,0.0,27452,71.48958333333333
10598,8.0,,,,67.0,,,,,52,note_on,,44.0,67.0,44.0,27504,71.625
10599,8.0,,,,67.0,,,,,44,note_on,,0.0,67.0,0.0,27548,71.73958333333333
10600,8.0,,,,72.0,,,,,52,note_on,,22.0,72.0,22.0,27600,71.875
10601,8.0,,,,72.0,,,,,44,note_on,,0.0,72.0,0.0,27644,71.98958333333333
10602,8.0,,,,67.0,,,,,52,note_on,,22.0,67.0,22.0,27696,72.125
10603,8.0,,,,67.0,,,,,44,note_on,,0.0,67.0,0.0,27740,72.23958333333333
10604,8.0,,,,71.0,,,,,100,note_on,,88.0,71.0,88.0,27840,72.5
10605,8.0,,,,71.0,,,,,44,note_on,,0.0,71.0,0.0,27884,72.61458333333333
10606,8.0,,,,67.0,,,,,4,note_on,,88.0,67.0,88.0,27888,72.625
10607,8.0,,,,67.0,,,,,44,note_on,,0.0,67.0,0.0,27932,72.73958333333333
10608,8.0,,,,79.0,,,,,52,note_on,,88.0,79.0,88.0,27984,72.875
10609,8.0,,,,79.0,,,,,44,note_on,,0.0,79.0,0.0,28028,72.98958333333333
10610,8.0,,,,74.0,,,,,52,note_on,,88.0,74.0,88.0,28080,73.125
10611,8.0,,,,74.0,,,,,44,note_on,,0.0,74.0,0.0,28124,73.23958333333333
10612,8.0,,,,79.0,,,,,52,note_on,,44.0,79.0,44.0,28176,73.375
10613,8.0,,,,79.0,,,,,44,note_on,,0.0,79.0,0.0,28220,73.48958333333333
10614,8.0,,,,74.0,,,,,52,note_on,,44.0,74.0,44.0,28272,73.625
10615,8.0,,,,74.0,,,,,44,note_on,,0.0,74.0,0.0,28316,73.73958333333333
10616,8.0,,,,79.0,,,,,52,note_on,,22.0,79.0,22.0,28368,73.875
10617,8.0,,,,79.0,,,,,44,note_on,,0.0,79.0,0.0,28412,73.98958333333333
10618,8.0,,,,74.0,,,,,52,note_on,,22.0,74.0,22.0,28464,74.125
10619,8.0,,,,74.0,,,,,44,note_on,,0.0,74.0,0.0,28508,74.23958333333333
10620,8.0,,,,71.0,,,,,100,note_on,,88.0,71.0,88.0,28608,74.5
10621,8.0,,,,71.0,,,,,44,note_on,,0.0,71.0,0.0,28652,74.61458333333333
10622,8.0,,,,67.0,,,,,4,note_on,,88.0,67.0,88.0,28656,74.625
10623,8.0,,,,67.0,,,,,44,note_on,,0.0,67.0,0.0,28700,74.73958333333333
10624,8.0,,,,79.0,,,,,52,note_on,,88.0,79.0,88.0,28752,74.875
10625,8.0,,,,79.0,,,,,44,note_on,,0.0,79.0,0.0,28796,74.98958333333333
10626,8.0,,,,74.0,,,,,52,note_on,,88.0,74.0,88.0,28848,75.125
10627,8.0,,,,74.0,,,,,44,note_on,,0.0,74.0,0.0,28892,75.23958333333333
10628,8.0,,,,79.0,,,,,52,note_on,,44.0,79.0,44.0,28944,75.375
10629,8.0,,,,79.0,,,,,44,note_on,,0.0,79.0,0.0,28988,75.48958333333333
10630,8.0,,,,74.0,,,,,52,note_on,,44.0,74.0,44.0,29040,75.625
10631,8.0,,,,74.0,,,,,44,note_on,,0.0,74.0,0.0,29084,75.73958333333333
10632,8.0,,,,79.0,,,,,52,note_on,,22.0,79.0,22.0,29136,75.875
10633,8.0,,,,79.0,,,,,44,note_on,,0.0,79.0,0.0,29180,75.98958333333333
10634,8.0,,,,74.0,,,,,52,note_on,,22.0,74.0,22.0,29232,76.125
10635,8.0,,,,74.0,,,,,44,note_on,,0.0,74.0,0.0,29276,76.23958333333333
10636,8.0,,,,69.0,,,,,100,note_on,,88.0,69.0,88.0,29376,76.5
10637,8.0,,,,69.0,,,,,44,note_on,,0.0,69.0,0.0,29420,76.61458333333333
10638,8.0,,,,65.0,,,,,4,note_on,,88.0,65.0,88.0,29424,76.625
10639,8.0,,,,65.0,,,,,44,note_on,,0.0,65.0,0.0,29468,76.73958333333333
10640,8.0,,,,77.0,,,,,52,note_on,,88.0,77.0,88.0,29520,76.875
10641,8.0,,,,77.0,,,,,44,note_on,,0.0,77.0,0.0,29564,76.98958333333333
10642,8.0,,,,72.0,,,,,52,note_on,,88.0,72.0,88.0,29616,77.125
10643,8.0,,,,72.0,,,,,44,note_on,,0.0,72.0,0.0,29660,77.23958333333333
10644,8.0,,,,77.0,,,,,52,note_on,,44.0,77.0,44.0,29712,77.375
10645,8.0,,,,77.0,,,,,44,note_on,,0.0,77.0,0.0,29756,77.48958333333333
10646,8.0,,,,72.0,,,,,52,note_on,,44.0,72.0,44.0,29808,77.625
10647,8.0,,,,72.0,,,,,44,note_on,,0.0,72.0,0.0,29852,77.73958333333333
10648,8.0,,,,77.0,,,,,52,note_on,,22.0,77.0,22.0,29904,77.875
10649,8.0,,,,77.0,,,,,44,note_on,,0.0,77.0,0.0,29948,77.98958333333333
10650,8.0,,,,72.0,,,,,52,note_on,,22.0,72.0,22.0,30000,78.125
10651,8.0,,,,72.0,,,,,44,note_on,,0.0,72.0,0.0,30044,78.23958333333333
10652,8.0,,,,67.0,,,,,100,note_on,,88.0,67.0,88.0,30144,78.5
10653,8.0,,,,67.0,,,,,44,note_on,,0.0,67.0,0.0,30188,78.61458333333333
10654,8.0,,,,64.0,,,,,4,note_on,,88.0,64.0,88.0,30192,78.625
10655,8.0,,,,64.0,,,,,44,note_on,,0.0,64.0,0.0,30236,78.73958333333333
10656,8.0,,,,72.0,,,,,52,note_on,,88.0,72.0,88.0,30288,78.875
10657,8.0,,,,72.0,,,,,44,note_on,,0.0,72.0,0.0,30332,78.98958333333333
10658,8.0,,,,67.0,,,,,52,note_on,,88.0,67.0,88.0,30384,79.125
10659,8.0,,,,67.0,,,,,44,note_on,,0.0,67.0,0.0,30428,79.23958333333333
10660,8.0,,,,72.0,,,,,52,note_on,,44.0,72.0,44.0,30480,79.375
10661,8.0,,,,72.0,,,,,44,note_on,,0.0,72.0,0.0,30524,79.48958333333333
10662,8.0,,,,67.0,,,,,52,note_on,,44.0,67.0,44.0,30576,79.625
10663,8.0,,,,67.0,,,,,44,note_on,,0.0,67.0,0.0,30620,79.73958333333333
10664,8.0,,,,72.0,,,,,52,note_on,,22.0,72.0,22.0,30672,79.875
10665,8.0,,,,72.0,,,,,44,note_on,,0.0,72.0,0.0,30716,79.98958333333333
10666,8.0,,,,67.0,,,,,52,note_on,,22.0,67.0,22.0,30768,80.125
10667,8.0,,,,67.0,,,,,44,note_on,,0.0,67.0,0.0,30812,80.23958333333333
10668,8.0,,,,71.0,,,,,100,note_on,,88.0,71.0,88.0,30912,80.5
10669,8.0,,,,71.0,,,,,44,note_on,,0.0,71.0,0.0,30956,80.61458333333333
10670,8.0,,,,67.0,,,,,4,note_on,,88.0,67.0,88.0,30960,80.625
10671,8.0,,,,67.0,,,,,44,note_on,,0.0,67.0,0.0,31004,80.73958333333333
10672,8.0,,,,79.0,,,,,52,note_on,,88.0,79.0,88.0,31056,80.875
10673,8.0,,,,79.0,,,,,44,note_on,,0.0,79.0,0.0,31100,80.98958333333333
10674,8.0,,,,74.0,,,,,52,note_on,,88.0,74.0,88.0,31152,81.125
10675,8.0,,,,74.0,,,,,44,note_on,,0.0,74.0,0.0,31196,81.23958333333333
10676,8.0,,,,79.0,,,,,52,note_on,,44.0,79.0,44.0,31248,81.375
10677,8.0,,,,79.0,,,,,44,note_on,,0.0,79.0,0.0,31292,81.48958333333333
10678,8.0,,,,74.0,,,,,52,note_on,,44.0,74.0,44.0,31344,81.625
10679,8.0,,,,74.0,,,,,44,note_on,,0.0,74.0,0.0,31388,81.73958333333333
10680,8.0,,,,79.0,,,,,52,note_on,,22.0,79.0,22.0,31440,81.875
10681,8.0,,,,79.0,,,,,44,note_on,,0.0,79.0,0.0,31484,81.98958333333333
10682,8.0,,,,74.0,,,,,52,note_on,,22.0,74.0,22.0,31536,82.125
10683,8.0,,,,74.0,,,,,44,note_on,,0.0,74.0,0.0,31580,82.23958333333333
10684,,,,,,,,,,0,end_of_track,,,,,4638648288,12079813.25
10685,5.0,0.0,,,,,,,,0,control_change,0.0,,,,0,0.0
10686,5.0,,,,,,28.0,,,0,program_change,,,,,0,0.0
10687,,,"(74, 65, 90, 50, 1, 0, 0, 0, 0, 0, 0, 0, 0, 0, 0, 0, 0, 0, 0, 0)",,,,,,,0,sequencer_specific,,,,,4638648504,12079813.8125
10688,5.0,91.0,,,,,,,,0,control_change,40.0,,,,0,0.0
10689,5.0,93.0,,,,,,,,0,control_change,0.0,,,,0,0.0
10690,,,,Muted Guitar,,,,,,0,track_name,,,,,4638648720,12079814.375
10691,5.0,7.0,,,,,,,,0,control_change,49.0,,,,0,0.0
10692,5.0,10.0,,,,,,,,0,control_change,127.0,,,,0,0.0
10693,5.0,,,,55.0,,,,,13056,note_on,,112.0,55.0,112.0,13056,34.0
10694,5.0,,,,55.0,,,,,44,note_on,,0.0,55.0,0.0,13100,34.11458333333333
10695,5.0,,,,53.0,,,,,4,note_on,,112.0,53.0,112.0,13104,34.125
10696,5.0,,,,53.0,,,,,44,note_on,,0.0,53.0,0.0,13148,34.23958333333333
10697,5.0,,,,55.0,,,,,4,note_on,,112.0,55.0,112.0,13152,34.25
10698,5.0,,,,55.0,,,,,44,note_on,,0.0,55.0,0.0,13196,34.36458333333333
10699,5.0,,,,53.0,,,,,4,note_on,,112.0,53.0,112.0,13200,34.375
10700,5.0,,,,53.0,,,,,44,note_on,,0.0,53.0,0.0,13244,34.48958333333333
10701,5.0,,,,55.0,,,,,4,note_on,,112.0,55.0,112.0,13248,34.5
10702,5.0,,,,55.0,,,,,44,note_on,,0.0,55.0,0.0,13292,34.61458333333333
10703,5.0,,,,53.0,,,,,4,note_on,,112.0,53.0,112.0,13296,34.625
10704,5.0,,,,53.0,,,,,44,note_on,,0.0,53.0,0.0,13340,34.73958333333333
10705,5.0,,,,55.0,,,,,4,note_on,,112.0,55.0,112.0,13344,34.75
10706,5.0,,,,55.0,,,,,44,note_on,,0.0,55.0,0.0,13388,34.86458333333333
10707,5.0,,,,53.0,,,,,4,note_on,,112.0,53.0,112.0,13392,34.875
10708,5.0,,,,53.0,,,,,44,note_on,,0.0,53.0,0.0,13436,34.98958333333333
10709,5.0,,,,55.0,,,,,52,note_on,,112.0,55.0,112.0,13488,35.125
10710,5.0,,,,55.0,,,,,44,note_on,,0.0,55.0,0.0,13532,35.23958333333333
10711,5.0,,,,55.0,,,,,4,note_on,,112.0,55.0,112.0,13536,35.25
10712,5.0,,,,55.0,,,,,44,note_on,,0.0,55.0,0.0,13580,35.36458333333333
10713,5.0,,,,53.0,,,,,4,note_on,,112.0,53.0,112.0,13584,35.375
10714,5.0,,,,53.0,,,,,44,note_on,,0.0,53.0,0.0,13628,35.48958333333333
10715,5.0,,,,55.0,,,,,4,note_on,,112.0,55.0,112.0,13632,35.5
10716,5.0,,,,55.0,,,,,44,note_on,,0.0,55.0,0.0,13676,35.61458333333333
10717,5.0,,,,53.0,,,,,4,note_on,,112.0,53.0,112.0,13680,35.625
10718,5.0,,,,53.0,,,,,44,note_on,,0.0,53.0,0.0,13724,35.73958333333333
10719,5.0,,,,55.0,,,,,4,note_on,,112.0,55.0,112.0,13728,35.75
10720,5.0,,,,55.0,,,,,44,note_on,,0.0,55.0,0.0,13772,35.86458333333333
10721,5.0,,,,53.0,,,,,4,note_on,,112.0,53.0,112.0,13776,35.875
10722,5.0,,,,53.0,,,,,44,note_on,,0.0,53.0,0.0,13820,35.98958333333333
10723,5.0,,,,55.0,,,,,4,note_on,,112.0,55.0,112.0,13824,36.0
10724,5.0,,,,55.0,,,,,44,note_on,,0.0,55.0,0.0,13868,36.11458333333333
10725,5.0,,,,53.0,,,,,4,note_on,,112.0,53.0,112.0,13872,36.125
10726,5.0,,,,53.0,,,,,44,note_on,,0.0,53.0,0.0,13916,36.23958333333333
10727,5.0,,,,55.0,,,,,4,note_on,,112.0,55.0,112.0,13920,36.25
10728,5.0,,,,55.0,,,,,44,note_on,,0.0,55.0,0.0,13964,36.36458333333333
10729,5.0,,,,53.0,,,,,4,note_on,,112.0,53.0,112.0,13968,36.375
10730,5.0,,,,53.0,,,,,44,note_on,,0.0,53.0,0.0,14012,36.48958333333333
10731,5.0,,,,55.0,,,,,4,note_on,,112.0,55.0,112.0,14016,36.5
10732,5.0,,,,55.0,,,,,44,note_on,,0.0,55.0,0.0,14060,36.61458333333333
10733,5.0,,,,53.0,,,,,4,note_on,,112.0,53.0,112.0,14064,36.625
10734,5.0,,,,53.0,,,,,44,note_on,,0.0,53.0,0.0,14108,36.73958333333333
10735,5.0,,,,55.0,,,,,4,note_on,,112.0,55.0,112.0,14112,36.75
10736,5.0,,,,55.0,,,,,44,note_on,,0.0,55.0,0.0,14156,36.86458333333333
10737,5.0,,,,53.0,,,,,4,note_on,,112.0,53.0,112.0,14160,36.875
10738,5.0,,,,53.0,,,,,44,note_on,,0.0,53.0,0.0,14204,36.98958333333333
10739,5.0,,,,55.0,,,,,52,note_on,,112.0,55.0,112.0,14256,37.125
10740,5.0,,,,55.0,,,,,44,note_on,,0.0,55.0,0.0,14300,37.23958333333333
10741,5.0,,,,55.0,,,,,4,note_on,,112.0,55.0,112.0,14304,37.25
10742,5.0,,,,55.0,,,,,44,note_on,,0.0,55.0,0.0,14348,37.36458333333333
10743,5.0,,,,53.0,,,,,4,note_on,,112.0,53.0,112.0,14352,37.375
10744,5.0,,,,53.0,,,,,44,note_on,,0.0,53.0,0.0,14396,37.48958333333333
10745,5.0,,,,55.0,,,,,4,note_on,,112.0,55.0,112.0,14400,37.5
10746,5.0,,,,55.0,,,,,44,note_on,,0.0,55.0,0.0,14444,37.61458333333333
10747,5.0,,,,53.0,,,,,4,note_on,,112.0,53.0,112.0,14448,37.625
10748,5.0,,,,53.0,,,,,44,note_on,,0.0,53.0,0.0,14492,37.73958333333333
10749,5.0,,,,55.0,,,,,4,note_on,,112.0,55.0,112.0,14496,37.75
10750,5.0,,,,55.0,,,,,44,note_on,,0.0,55.0,0.0,14540,37.86458333333333
10751,5.0,,,,53.0,,,,,4,note_on,,112.0,53.0,112.0,14544,37.875
10752,5.0,,,,53.0,,,,,44,note_on,,0.0,53.0,0.0,14588,37.98958333333333
10753,5.0,,,,55.0,,,,,4,note_on,,112.0,55.0,112.0,14592,38.0
10754,5.0,,,,55.0,,,,,44,note_on,,0.0,55.0,0.0,14636,38.11458333333333
10755,5.0,,,,53.0,,,,,4,note_on,,112.0,53.0,112.0,14640,38.125
10756,5.0,,,,53.0,,,,,44,note_on,,0.0,53.0,0.0,14684,38.23958333333333
10757,5.0,,,,55.0,,,,,4,note_on,,112.0,55.0,112.0,14688,38.25
10758,5.0,,,,55.0,,,,,44,note_on,,0.0,55.0,0.0,14732,38.36458333333333
10759,5.0,,,,53.0,,,,,4,note_on,,112.0,53.0,112.0,14736,38.375
10760,5.0,,,,53.0,,,,,44,note_on,,0.0,53.0,0.0,14780,38.48958333333333
10761,5.0,,,,55.0,,,,,4,note_on,,112.0,55.0,112.0,14784,38.5
10762,5.0,,,,55.0,,,,,44,note_on,,0.0,55.0,0.0,14828,38.61458333333333
10763,5.0,,,,53.0,,,,,4,note_on,,112.0,53.0,112.0,14832,38.625
10764,5.0,,,,53.0,,,,,44,note_on,,0.0,53.0,0.0,14876,38.73958333333333
10765,5.0,,,,55.0,,,,,4,note_on,,112.0,55.0,112.0,14880,38.75
10766,5.0,,,,55.0,,,,,44,note_on,,0.0,55.0,0.0,14924,38.86458333333333
10767,5.0,,,,53.0,,,,,4,note_on,,112.0,53.0,112.0,14928,38.875
10768,5.0,,,,53.0,,,,,44,note_on,,0.0,53.0,0.0,14972,38.98958333333333
10769,5.0,,,,55.0,,,,,52,note_on,,112.0,55.0,112.0,15024,39.125
10770,5.0,,,,55.0,,,,,44,note_on,,0.0,55.0,0.0,15068,39.23958333333333
10771,5.0,,,,55.0,,,,,4,note_on,,112.0,55.0,112.0,15072,39.25
10772,5.0,,,,55.0,,,,,44,note_on,,0.0,55.0,0.0,15116,39.36458333333333
10773,5.0,,,,53.0,,,,,4,note_on,,112.0,53.0,112.0,15120,39.375
10774,5.0,,,,53.0,,,,,44,note_on,,0.0,53.0,0.0,15164,39.48958333333333
10775,5.0,,,,55.0,,,,,4,note_on,,112.0,55.0,112.0,15168,39.5
10776,5.0,,,,55.0,,,,,44,note_on,,0.0,55.0,0.0,15212,39.61458333333333
10777,5.0,,,,53.0,,,,,4,note_on,,112.0,53.0,112.0,15216,39.625
10778,5.0,,,,53.0,,,,,44,note_on,,0.0,53.0,0.0,15260,39.73958333333333
10779,5.0,,,,55.0,,,,,4,note_on,,112.0,55.0,112.0,15264,39.75
10780,5.0,,,,55.0,,,,,44,note_on,,0.0,55.0,0.0,15308,39.86458333333333
10781,5.0,,,,53.0,,,,,4,note_on,,112.0,53.0,112.0,15312,39.875
10782,5.0,,,,53.0,,,,,44,note_on,,0.0,53.0,0.0,15356,39.98958333333333
10783,5.0,,,,55.0,,,,,4,note_on,,112.0,55.0,112.0,15360,40.0
10784,5.0,,,,55.0,,,,,44,note_on,,0.0,55.0,0.0,15404,40.11458333333333
10785,5.0,,,,53.0,,,,,4,note_on,,112.0,53.0,112.0,15408,40.125
10786,5.0,,,,53.0,,,,,44,note_on,,0.0,53.0,0.0,15452,40.23958333333333
10787,5.0,,,,55.0,,,,,4,note_on,,112.0,55.0,112.0,15456,40.25
10788,5.0,,,,55.0,,,,,44,note_on,,0.0,55.0,0.0,15500,40.36458333333333
10789,5.0,,,,53.0,,,,,4,note_on,,112.0,53.0,112.0,15504,40.375
10790,5.0,,,,53.0,,,,,44,note_on,,0.0,53.0,0.0,15548,40.48958333333333
10791,5.0,,,,55.0,,,,,4,note_on,,112.0,55.0,112.0,15552,40.5
10792,5.0,,,,55.0,,,,,44,note_on,,0.0,55.0,0.0,15596,40.61458333333333
10793,5.0,,,,53.0,,,,,4,note_on,,112.0,53.0,112.0,15600,40.625
10794,5.0,,,,53.0,,,,,44,note_on,,0.0,53.0,0.0,15644,40.73958333333333
10795,5.0,,,,55.0,,,,,4,note_on,,112.0,55.0,112.0,15648,40.75
10796,5.0,,,,55.0,,,,,44,note_on,,0.0,55.0,0.0,15692,40.86458333333333
10797,5.0,,,,53.0,,,,,4,note_on,,112.0,53.0,112.0,15696,40.875
10798,5.0,,,,53.0,,,,,44,note_on,,0.0,53.0,0.0,15740,40.98958333333333
10799,5.0,,,,55.0,,,,,52,note_on,,112.0,55.0,112.0,15792,41.125
10800,5.0,,,,55.0,,,,,44,note_on,,0.0,55.0,0.0,15836,41.23958333333333
10801,5.0,,,,55.0,,,,,4,note_on,,112.0,55.0,112.0,15840,41.25
10802,5.0,,,,55.0,,,,,44,note_on,,0.0,55.0,0.0,15884,41.36458333333333
10803,5.0,,,,53.0,,,,,4,note_on,,112.0,53.0,112.0,15888,41.375
10804,5.0,,,,53.0,,,,,44,note_on,,0.0,53.0,0.0,15932,41.48958333333333
10805,5.0,,,,55.0,,,,,4,note_on,,112.0,55.0,112.0,15936,41.5
10806,5.0,,,,55.0,,,,,44,note_on,,0.0,55.0,0.0,15980,41.61458333333333
10807,5.0,,,,53.0,,,,,4,note_on,,112.0,53.0,112.0,15984,41.625
10808,5.0,,,,53.0,,,,,44,note_on,,0.0,53.0,0.0,16028,41.73958333333333
10809,5.0,,,,55.0,,,,,4,note_on,,112.0,55.0,112.0,16032,41.75
10810,5.0,,,,55.0,,,,,44,note_on,,0.0,55.0,0.0,16076,41.86458333333333
10811,5.0,,,,53.0,,,,,4,note_on,,112.0,53.0,112.0,16080,41.875
10812,5.0,,,,53.0,,,,,44,note_on,,0.0,53.0,0.0,16124,41.98958333333333
10813,5.0,,,,55.0,,,,,4,note_on,,112.0,55.0,112.0,16128,42.0
10814,5.0,,,,55.0,,,,,44,note_on,,0.0,55.0,0.0,16172,42.11458333333333
10815,5.0,,,,53.0,,,,,4,note_on,,112.0,53.0,112.0,16176,42.125
10816,5.0,,,,53.0,,,,,44,note_on,,0.0,53.0,0.0,16220,42.23958333333333
10817,5.0,,,,55.0,,,,,4,note_on,,112.0,55.0,112.0,16224,42.25
10818,5.0,,,,55.0,,,,,44,note_on,,0.0,55.0,0.0,16268,42.36458333333333
10819,5.0,,,,53.0,,,,,4,note_on,,112.0,53.0,112.0,16272,42.375
10820,5.0,,,,53.0,,,,,44,note_on,,0.0,53.0,0.0,16316,42.48958333333333
10821,5.0,,,,55.0,,,,,4,note_on,,112.0,55.0,112.0,16320,42.5
10822,5.0,,,,55.0,,,,,44,note_on,,0.0,55.0,0.0,16364,42.61458333333333
10823,5.0,,,,53.0,,,,,4,note_on,,112.0,53.0,112.0,16368,42.625
10824,5.0,,,,53.0,,,,,44,note_on,,0.0,53.0,0.0,16412,42.73958333333333
10825,5.0,,,,55.0,,,,,4,note_on,,112.0,55.0,112.0,16416,42.75
10826,5.0,,,,55.0,,,,,44,note_on,,0.0,55.0,0.0,16460,42.86458333333333
10827,5.0,,,,53.0,,,,,4,note_on,,112.0,53.0,112.0,16464,42.875
10828,5.0,,,,53.0,,,,,44,note_on,,0.0,53.0,0.0,16508,42.98958333333333
10829,5.0,,,,55.0,,,,,52,note_on,,112.0,55.0,112.0,16560,43.125
10830,5.0,,,,55.0,,,,,44,note_on,,0.0,55.0,0.0,16604,43.23958333333333
10831,5.0,,,,55.0,,,,,4,note_on,,112.0,55.0,112.0,16608,43.25
10832,5.0,,,,55.0,,,,,44,note_on,,0.0,55.0,0.0,16652,43.36458333333333
10833,5.0,,,,53.0,,,,,4,note_on,,112.0,53.0,112.0,16656,43.375
10834,5.0,,,,53.0,,,,,44,note_on,,0.0,53.0,0.0,16700,43.48958333333333
10835,5.0,,,,55.0,,,,,4,note_on,,112.0,55.0,112.0,16704,43.5
10836,5.0,,,,55.0,,,,,44,note_on,,0.0,55.0,0.0,16748,43.61458333333333
10837,5.0,,,,53.0,,,,,4,note_on,,112.0,53.0,112.0,16752,43.625
10838,5.0,,,,53.0,,,,,44,note_on,,0.0,53.0,0.0,16796,43.73958333333333
10839,5.0,,,,55.0,,,,,4,note_on,,112.0,55.0,112.0,16800,43.75
10840,5.0,,,,55.0,,,,,44,note_on,,0.0,55.0,0.0,16844,43.86458333333333
10841,5.0,,,,53.0,,,,,4,note_on,,112.0,53.0,112.0,16848,43.875
10842,5.0,,,,53.0,,,,,44,note_on,,0.0,53.0,0.0,16892,43.98958333333333
10843,5.0,,,,55.0,,,,,4,note_on,,112.0,55.0,112.0,16896,44.0
10844,5.0,,,,55.0,,,,,44,note_on,,0.0,55.0,0.0,16940,44.11458333333333
10845,5.0,,,,53.0,,,,,4,note_on,,112.0,53.0,112.0,16944,44.125
10846,5.0,,,,53.0,,,,,44,note_on,,0.0,53.0,0.0,16988,44.23958333333333
10847,5.0,,,,55.0,,,,,4,note_on,,112.0,55.0,112.0,16992,44.25
10848,5.0,,,,55.0,,,,,44,note_on,,0.0,55.0,0.0,17036,44.36458333333333
10849,5.0,,,,53.0,,,,,4,note_on,,112.0,53.0,112.0,17040,44.375
10850,5.0,,,,53.0,,,,,44,note_on,,0.0,53.0,0.0,17084,44.48958333333333
10851,5.0,,,,55.0,,,,,4,note_on,,112.0,55.0,112.0,17088,44.5
10852,5.0,,,,55.0,,,,,44,note_on,,0.0,55.0,0.0,17132,44.61458333333333
10853,5.0,,,,53.0,,,,,4,note_on,,112.0,53.0,112.0,17136,44.625
10854,5.0,,,,53.0,,,,,44,note_on,,0.0,53.0,0.0,17180,44.73958333333333
10855,5.0,,,,55.0,,,,,4,note_on,,112.0,55.0,112.0,17184,44.75
10856,5.0,,,,55.0,,,,,44,note_on,,0.0,55.0,0.0,17228,44.86458333333333
10857,5.0,,,,53.0,,,,,4,note_on,,112.0,53.0,112.0,17232,44.875
10858,5.0,,,,53.0,,,,,44,note_on,,0.0,53.0,0.0,17276,44.98958333333333
10859,5.0,,,,55.0,,,,,52,note_on,,112.0,55.0,112.0,17328,45.125
10860,5.0,,,,55.0,,,,,44,note_on,,0.0,55.0,0.0,17372,45.23958333333333
10861,5.0,,,,55.0,,,,,4,note_on,,112.0,55.0,112.0,17376,45.25
10862,5.0,,,,55.0,,,,,44,note_on,,0.0,55.0,0.0,17420,45.36458333333333
10863,5.0,,,,53.0,,,,,4,note_on,,112.0,53.0,112.0,17424,45.375
10864,5.0,,,,53.0,,,,,44,note_on,,0.0,53.0,0.0,17468,45.48958333333333
10865,5.0,,,,55.0,,,,,4,note_on,,112.0,55.0,112.0,17472,45.5
10866,5.0,,,,55.0,,,,,44,note_on,,0.0,55.0,0.0,17516,45.61458333333333
10867,5.0,,,,53.0,,,,,4,note_on,,112.0,53.0,112.0,17520,45.625
10868,5.0,,,,53.0,,,,,44,note_on,,0.0,53.0,0.0,17564,45.73958333333333
10869,5.0,,,,55.0,,,,,4,note_on,,112.0,55.0,112.0,17568,45.75
10870,5.0,,,,55.0,,,,,44,note_on,,0.0,55.0,0.0,17612,45.86458333333333
10871,5.0,,,,53.0,,,,,4,note_on,,112.0,53.0,112.0,17616,45.875
10872,5.0,,,,53.0,,,,,44,note_on,,0.0,53.0,0.0,17660,45.98958333333333
10873,5.0,,,,55.0,,,,,4,note_on,,112.0,55.0,112.0,17664,46.0
10874,5.0,,,,55.0,,,,,44,note_on,,0.0,55.0,0.0,17708,46.11458333333333
10875,5.0,,,,53.0,,,,,4,note_on,,112.0,53.0,112.0,17712,46.125
10876,5.0,,,,53.0,,,,,44,note_on,,0.0,53.0,0.0,17756,46.23958333333333
10877,5.0,,,,55.0,,,,,4,note_on,,112.0,55.0,112.0,17760,46.25
10878,5.0,,,,55.0,,,,,44,note_on,,0.0,55.0,0.0,17804,46.36458333333333
10879,5.0,,,,53.0,,,,,4,note_on,,112.0,53.0,112.0,17808,46.375
10880,5.0,,,,53.0,,,,,44,note_on,,0.0,53.0,0.0,17852,46.48958333333333
10881,5.0,,,,55.0,,,,,4,note_on,,112.0,55.0,112.0,17856,46.5
10882,5.0,,,,55.0,,,,,44,note_on,,0.0,55.0,0.0,17900,46.61458333333333
10883,5.0,,,,53.0,,,,,4,note_on,,112.0,53.0,112.0,17904,46.625
10884,5.0,,,,53.0,,,,,44,note_on,,0.0,53.0,0.0,17948,46.73958333333333
10885,5.0,,,,55.0,,,,,4,note_on,,112.0,55.0,112.0,17952,46.75
10886,5.0,,,,55.0,,,,,44,note_on,,0.0,55.0,0.0,17996,46.86458333333333
10887,5.0,,,,53.0,,,,,4,note_on,,112.0,53.0,112.0,18000,46.875
10888,5.0,,,,53.0,,,,,44,note_on,,0.0,53.0,0.0,18044,46.98958333333333
10889,5.0,,,,55.0,,,,,52,note_on,,112.0,55.0,112.0,18096,47.125
10890,5.0,,,,55.0,,,,,44,note_on,,0.0,55.0,0.0,18140,47.23958333333333
10891,5.0,,,,55.0,,,,,4,note_on,,112.0,55.0,112.0,18144,47.25
10892,5.0,,,,55.0,,,,,44,note_on,,0.0,55.0,0.0,18188,47.36458333333333
10893,5.0,,,,53.0,,,,,4,note_on,,112.0,53.0,112.0,18192,47.375
10894,5.0,,,,53.0,,,,,44,note_on,,0.0,53.0,0.0,18236,47.48958333333333
10895,5.0,,,,55.0,,,,,4,note_on,,112.0,55.0,112.0,18240,47.5
10896,5.0,,,,55.0,,,,,44,note_on,,0.0,55.0,0.0,18284,47.61458333333333
10897,5.0,,,,53.0,,,,,4,note_on,,112.0,53.0,112.0,18288,47.625
10898,5.0,,,,53.0,,,,,44,note_on,,0.0,53.0,0.0,18332,47.73958333333333
10899,5.0,,,,55.0,,,,,4,note_on,,112.0,55.0,112.0,18336,47.75
10900,5.0,,,,55.0,,,,,44,note_on,,0.0,55.0,0.0,18380,47.86458333333333
10901,5.0,,,,53.0,,,,,4,note_on,,112.0,53.0,112.0,18384,47.875
10902,5.0,,,,53.0,,,,,44,note_on,,0.0,53.0,0.0,18428,47.98958333333333
10903,5.0,,,,55.0,,,,,4,note_on,,112.0,55.0,112.0,18432,48.0
10904,5.0,,,,55.0,,,,,44,note_on,,0.0,55.0,0.0,18476,48.11458333333333
10905,5.0,,,,53.0,,,,,4,note_on,,112.0,53.0,112.0,18480,48.125
10906,5.0,,,,53.0,,,,,44,note_on,,0.0,53.0,0.0,18524,48.23958333333333
10907,5.0,,,,55.0,,,,,4,note_on,,112.0,55.0,112.0,18528,48.25
10908,5.0,,,,55.0,,,,,44,note_on,,0.0,55.0,0.0,18572,48.36458333333333
10909,5.0,,,,53.0,,,,,4,note_on,,112.0,53.0,112.0,18576,48.375
10910,5.0,,,,53.0,,,,,44,note_on,,0.0,53.0,0.0,18620,48.48958333333333
10911,5.0,,,,55.0,,,,,4,note_on,,112.0,55.0,112.0,18624,48.5
10912,5.0,,,,55.0,,,,,44,note_on,,0.0,55.0,0.0,18668,48.61458333333333
10913,5.0,,,,53.0,,,,,4,note_on,,112.0,53.0,112.0,18672,48.625
10914,5.0,,,,53.0,,,,,44,note_on,,0.0,53.0,0.0,18716,48.73958333333333
10915,5.0,,,,55.0,,,,,4,note_on,,112.0,55.0,112.0,18720,48.75
10916,5.0,,,,55.0,,,,,44,note_on,,0.0,55.0,0.0,18764,48.86458333333333
10917,5.0,,,,53.0,,,,,4,note_on,,112.0,53.0,112.0,18768,48.875
10918,5.0,,,,53.0,,,,,44,note_on,,0.0,53.0,0.0,18812,48.98958333333333
10919,5.0,,,,55.0,,,,,52,note_on,,112.0,55.0,112.0,18864,49.125
10920,5.0,,,,55.0,,,,,44,note_on,,0.0,55.0,0.0,18908,49.23958333333333
10921,5.0,,,,55.0,,,,,4,note_on,,112.0,55.0,112.0,18912,49.25
10922,5.0,,,,55.0,,,,,44,note_on,,0.0,55.0,0.0,18956,49.36458333333333
10923,5.0,,,,53.0,,,,,4,note_on,,112.0,53.0,112.0,18960,49.375
10924,5.0,,,,53.0,,,,,44,note_on,,0.0,53.0,0.0,19004,49.48958333333333
10925,5.0,,,,55.0,,,,,4,note_on,,112.0,55.0,112.0,19008,49.5
10926,5.0,,,,55.0,,,,,44,note_on,,0.0,55.0,0.0,19052,49.61458333333333
10927,5.0,,,,53.0,,,,,4,note_on,,112.0,53.0,112.0,19056,49.625
10928,5.0,,,,53.0,,,,,44,note_on,,0.0,53.0,0.0,19100,49.73958333333333
10929,5.0,,,,55.0,,,,,4,note_on,,112.0,55.0,112.0,19104,49.75
10930,5.0,,,,55.0,,,,,44,note_on,,0.0,55.0,0.0,19148,49.86458333333333
10931,5.0,,,,53.0,,,,,4,note_on,,112.0,53.0,112.0,19152,49.875
10932,5.0,,,,53.0,,,,,44,note_on,,0.0,53.0,0.0,19196,49.98958333333333
10933,5.0,,,,55.0,,,,,4,note_on,,112.0,55.0,112.0,19200,50.0
10934,5.0,,,,55.0,,,,,44,note_on,,0.0,55.0,0.0,19244,50.11458333333333
10935,5.0,,,,53.0,,,,,4,note_on,,112.0,53.0,112.0,19248,50.125
10936,5.0,,,,53.0,,,,,44,note_on,,0.0,53.0,0.0,19292,50.23958333333333
10937,5.0,,,,55.0,,,,,4,note_on,,112.0,55.0,112.0,19296,50.25
10938,5.0,,,,55.0,,,,,44,note_on,,0.0,55.0,0.0,19340,50.36458333333333
10939,5.0,,,,53.0,,,,,4,note_on,,112.0,53.0,112.0,19344,50.375
10940,5.0,,,,53.0,,,,,44,note_on,,0.0,53.0,0.0,19388,50.48958333333333
10941,5.0,,,,55.0,,,,,4,note_on,,112.0,55.0,112.0,19392,50.5
10942,5.0,,,,55.0,,,,,44,note_on,,0.0,55.0,0.0,19436,50.61458333333333
10943,5.0,,,,53.0,,,,,4,note_on,,112.0,53.0,112.0,19440,50.625
10944,5.0,,,,53.0,,,,,44,note_on,,0.0,53.0,0.0,19484,50.73958333333333
10945,5.0,,,,55.0,,,,,4,note_on,,112.0,55.0,112.0,19488,50.75
10946,5.0,,,,55.0,,,,,44,note_on,,0.0,55.0,0.0,19532,50.86458333333333
10947,5.0,,,,53.0,,,,,4,note_on,,112.0,53.0,112.0,19536,50.875
10948,5.0,,,,53.0,,,,,44,note_on,,0.0,53.0,0.0,19580,50.98958333333333
10949,5.0,,,,55.0,,,,,52,note_on,,112.0,55.0,112.0,19632,51.125
10950,5.0,,,,55.0,,,,,44,note_on,,0.0,55.0,0.0,19676,51.23958333333333
10951,5.0,,,,55.0,,,,,4,note_on,,112.0,55.0,112.0,19680,51.25
10952,5.0,,,,55.0,,,,,44,note_on,,0.0,55.0,0.0,19724,51.36458333333333
10953,5.0,,,,53.0,,,,,4,note_on,,112.0,53.0,112.0,19728,51.375
10954,5.0,,,,53.0,,,,,44,note_on,,0.0,53.0,0.0,19772,51.48958333333333
10955,5.0,,,,55.0,,,,,4,note_on,,112.0,55.0,112.0,19776,51.5
10956,5.0,,,,55.0,,,,,44,note_on,,0.0,55.0,0.0,19820,51.61458333333333
10957,5.0,,,,53.0,,,,,4,note_on,,112.0,53.0,112.0,19824,51.625
10958,5.0,,,,53.0,,,,,44,note_on,,0.0,53.0,0.0,19868,51.73958333333333
10959,5.0,,,,55.0,,,,,4,note_on,,112.0,55.0,112.0,19872,51.75
10960,5.0,,,,55.0,,,,,44,note_on,,0.0,55.0,0.0,19916,51.86458333333333
10961,5.0,,,,53.0,,,,,4,note_on,,112.0,53.0,112.0,19920,51.875
10962,5.0,,,,53.0,,,,,44,note_on,,0.0,53.0,0.0,19964,51.98958333333333
10963,5.0,,,,55.0,,,,,4,note_on,,112.0,55.0,112.0,19968,52.0
10964,5.0,,,,55.0,,,,,44,note_on,,0.0,55.0,0.0,20012,52.11458333333333
10965,5.0,,,,53.0,,,,,4,note_on,,112.0,53.0,112.0,20016,52.125
10966,5.0,,,,53.0,,,,,44,note_on,,0.0,53.0,0.0,20060,52.23958333333333
10967,5.0,,,,55.0,,,,,4,note_on,,112.0,55.0,112.0,20064,52.25
10968,5.0,,,,55.0,,,,,44,note_on,,0.0,55.0,0.0,20108,52.36458333333333
10969,5.0,,,,53.0,,,,,4,note_on,,112.0,53.0,112.0,20112,52.375
10970,5.0,,,,53.0,,,,,44,note_on,,0.0,53.0,0.0,20156,52.48958333333333
10971,5.0,,,,55.0,,,,,4,note_on,,112.0,55.0,112.0,20160,52.5
10972,5.0,,,,55.0,,,,,44,note_on,,0.0,55.0,0.0,20204,52.61458333333333
10973,5.0,,,,53.0,,,,,4,note_on,,112.0,53.0,112.0,20208,52.625
10974,5.0,,,,53.0,,,,,44,note_on,,0.0,53.0,0.0,20252,52.73958333333333
10975,5.0,,,,55.0,,,,,4,note_on,,112.0,55.0,112.0,20256,52.75
10976,5.0,,,,55.0,,,,,44,note_on,,0.0,55.0,0.0,20300,52.86458333333333
10977,5.0,,,,53.0,,,,,4,note_on,,112.0,53.0,112.0,20304,52.875
10978,5.0,,,,53.0,,,,,44,note_on,,0.0,53.0,0.0,20348,52.98958333333333
10979,5.0,,,,55.0,,,,,52,note_on,,112.0,55.0,112.0,20400,53.125
10980,5.0,,,,55.0,,,,,44,note_on,,0.0,55.0,0.0,20444,53.23958333333333
10981,5.0,,,,55.0,,,,,4,note_on,,112.0,55.0,112.0,20448,53.25
10982,5.0,,,,55.0,,,,,44,note_on,,0.0,55.0,0.0,20492,53.36458333333333
10983,5.0,,,,53.0,,,,,4,note_on,,112.0,53.0,112.0,20496,53.375
10984,5.0,,,,53.0,,,,,44,note_on,,0.0,53.0,0.0,20540,53.48958333333333
10985,5.0,,,,55.0,,,,,4,note_on,,112.0,55.0,112.0,20544,53.5
10986,5.0,,,,55.0,,,,,44,note_on,,0.0,55.0,0.0,20588,53.61458333333333
10987,5.0,,,,53.0,,,,,4,note_on,,112.0,53.0,112.0,20592,53.625
10988,5.0,,,,53.0,,,,,44,note_on,,0.0,53.0,0.0,20636,53.73958333333333
10989,5.0,,,,55.0,,,,,4,note_on,,112.0,55.0,112.0,20640,53.75
10990,5.0,,,,55.0,,,,,44,note_on,,0.0,55.0,0.0,20684,53.86458333333333
10991,5.0,,,,53.0,,,,,4,note_on,,112.0,53.0,112.0,20688,53.875
10992,5.0,,,,53.0,,,,,44,note_on,,0.0,53.0,0.0,20732,53.98958333333333
10993,5.0,,,,55.0,,,,,4,note_on,,112.0,55.0,112.0,20736,54.0
10994,5.0,,,,55.0,,,,,44,note_on,,0.0,55.0,0.0,20780,54.11458333333333
10995,5.0,,,,53.0,,,,,4,note_on,,112.0,53.0,112.0,20784,54.125
10996,5.0,,,,53.0,,,,,44,note_on,,0.0,53.0,0.0,20828,54.23958333333333
10997,5.0,,,,55.0,,,,,4,note_on,,112.0,55.0,112.0,20832,54.25
10998,5.0,,,,55.0,,,,,44,note_on,,0.0,55.0,0.0,20876,54.36458333333333
10999,5.0,,,,53.0,,,,,4,note_on,,112.0,53.0,112.0,20880,54.375
11000,5.0,,,,53.0,,,,,44,note_on,,0.0,53.0,0.0,20924,54.48958333333333
11001,5.0,,,,55.0,,,,,4,note_on,,112.0,55.0,112.0,20928,54.5
11002,5.0,,,,55.0,,,,,44,note_on,,0.0,55.0,0.0,20972,54.61458333333333
11003,5.0,,,,53.0,,,,,4,note_on,,112.0,53.0,112.0,20976,54.625
11004,5.0,,,,53.0,,,,,44,note_on,,0.0,53.0,0.0,21020,54.73958333333333
11005,5.0,,,,55.0,,,,,4,note_on,,112.0,55.0,112.0,21024,54.75
11006,5.0,,,,55.0,,,,,44,note_on,,0.0,55.0,0.0,21068,54.86458333333333
11007,5.0,,,,53.0,,,,,4,note_on,,112.0,53.0,112.0,21072,54.875
11008,5.0,,,,53.0,,,,,44,note_on,,0.0,53.0,0.0,21116,54.98958333333333
11009,5.0,,,,55.0,,,,,52,note_on,,112.0,55.0,112.0,21168,55.125
11010,5.0,,,,55.0,,,,,44,note_on,,0.0,55.0,0.0,21212,55.23958333333333
11011,5.0,,,,55.0,,,,,4,note_on,,112.0,55.0,112.0,21216,55.25
11012,5.0,,,,55.0,,,,,44,note_on,,0.0,55.0,0.0,21260,55.36458333333333
11013,5.0,,,,53.0,,,,,4,note_on,,112.0,53.0,112.0,21264,55.375
11014,5.0,,,,53.0,,,,,44,note_on,,0.0,53.0,0.0,21308,55.48958333333333
11015,5.0,,,,55.0,,,,,4,note_on,,112.0,55.0,112.0,21312,55.5
11016,5.0,,,,55.0,,,,,44,note_on,,0.0,55.0,0.0,21356,55.61458333333333
11017,5.0,,,,53.0,,,,,4,note_on,,112.0,53.0,112.0,21360,55.625
11018,5.0,,,,53.0,,,,,44,note_on,,0.0,53.0,0.0,21404,55.73958333333333
11019,5.0,,,,55.0,,,,,4,note_on,,112.0,55.0,112.0,21408,55.75
11020,5.0,,,,55.0,,,,,44,note_on,,0.0,55.0,0.0,21452,55.86458333333333
11021,5.0,,,,53.0,,,,,4,note_on,,112.0,53.0,112.0,21456,55.875
11022,5.0,,,,53.0,,,,,44,note_on,,0.0,53.0,0.0,21500,55.98958333333333
11023,5.0,,,,55.0,,,,,4,note_on,,112.0,55.0,112.0,21504,56.0
11024,5.0,,,,55.0,,,,,44,note_on,,0.0,55.0,0.0,21548,56.11458333333333
11025,5.0,,,,53.0,,,,,4,note_on,,112.0,53.0,112.0,21552,56.125
11026,5.0,,,,53.0,,,,,44,note_on,,0.0,53.0,0.0,21596,56.23958333333333
11027,5.0,,,,55.0,,,,,4,note_on,,112.0,55.0,112.0,21600,56.25
11028,5.0,,,,55.0,,,,,44,note_on,,0.0,55.0,0.0,21644,56.36458333333333
11029,5.0,,,,53.0,,,,,4,note_on,,112.0,53.0,112.0,21648,56.375
11030,5.0,,,,53.0,,,,,44,note_on,,0.0,53.0,0.0,21692,56.48958333333333
11031,5.0,,,,55.0,,,,,4,note_on,,112.0,55.0,112.0,21696,56.5
11032,5.0,,,,55.0,,,,,44,note_on,,0.0,55.0,0.0,21740,56.61458333333333
11033,5.0,,,,53.0,,,,,4,note_on,,112.0,53.0,112.0,21744,56.625
11034,5.0,,,,53.0,,,,,44,note_on,,0.0,53.0,0.0,21788,56.73958333333333
11035,5.0,,,,55.0,,,,,4,note_on,,112.0,55.0,112.0,21792,56.75
11036,5.0,,,,55.0,,,,,44,note_on,,0.0,55.0,0.0,21836,56.86458333333333
11037,5.0,,,,53.0,,,,,4,note_on,,112.0,53.0,112.0,21840,56.875
11038,5.0,,,,53.0,,,,,44,note_on,,0.0,53.0,0.0,21884,56.98958333333333
11039,5.0,,,,55.0,,,,,52,note_on,,112.0,55.0,112.0,21936,57.125
11040,5.0,,,,55.0,,,,,44,note_on,,0.0,55.0,0.0,21980,57.23958333333333
11041,5.0,,,,55.0,,,,,4,note_on,,112.0,55.0,112.0,21984,57.25
11042,5.0,,,,55.0,,,,,44,note_on,,0.0,55.0,0.0,22028,57.36458333333333
11043,5.0,,,,53.0,,,,,4,note_on,,112.0,53.0,112.0,22032,57.375
11044,5.0,,,,53.0,,,,,44,note_on,,0.0,53.0,0.0,22076,57.48958333333333
11045,5.0,,,,55.0,,,,,4,note_on,,112.0,55.0,112.0,22080,57.5
11046,5.0,,,,55.0,,,,,44,note_on,,0.0,55.0,0.0,22124,57.61458333333333
11047,5.0,,,,53.0,,,,,4,note_on,,112.0,53.0,112.0,22128,57.625
11048,5.0,,,,53.0,,,,,44,note_on,,0.0,53.0,0.0,22172,57.73958333333333
11049,5.0,,,,55.0,,,,,4,note_on,,112.0,55.0,112.0,22176,57.75
11050,5.0,,,,55.0,,,,,44,note_on,,0.0,55.0,0.0,22220,57.86458333333333
11051,5.0,,,,53.0,,,,,4,note_on,,112.0,53.0,112.0,22224,57.875
11052,5.0,,,,53.0,,,,,44,note_on,,0.0,53.0,0.0,22268,57.98958333333333
11053,5.0,,,,55.0,,,,,4,note_on,,112.0,55.0,112.0,22272,58.0
11054,5.0,,,,55.0,,,,,44,note_on,,0.0,55.0,0.0,22316,58.11458333333333
11055,5.0,,,,53.0,,,,,4,note_on,,112.0,53.0,112.0,22320,58.125
11056,5.0,,,,53.0,,,,,44,note_on,,0.0,53.0,0.0,22364,58.23958333333333
11057,5.0,,,,55.0,,,,,4,note_on,,112.0,55.0,112.0,22368,58.25
11058,5.0,,,,55.0,,,,,44,note_on,,0.0,55.0,0.0,22412,58.36458333333333
11059,5.0,,,,53.0,,,,,4,note_on,,112.0,53.0,112.0,22416,58.375
11060,5.0,,,,53.0,,,,,44,note_on,,0.0,53.0,0.0,22460,58.48958333333333
11061,5.0,,,,55.0,,,,,4,note_on,,112.0,55.0,112.0,22464,58.5
11062,5.0,,,,55.0,,,,,44,note_on,,0.0,55.0,0.0,22508,58.61458333333333
11063,5.0,,,,53.0,,,,,4,note_on,,112.0,53.0,112.0,22512,58.625
11064,5.0,,,,53.0,,,,,44,note_on,,0.0,53.0,0.0,22556,58.73958333333333
11065,5.0,,,,55.0,,,,,4,note_on,,112.0,55.0,112.0,22560,58.75
11066,5.0,,,,55.0,,,,,44,note_on,,0.0,55.0,0.0,22604,58.86458333333333
11067,5.0,,,,53.0,,,,,4,note_on,,112.0,53.0,112.0,22608,58.875
11068,5.0,,,,53.0,,,,,44,note_on,,0.0,53.0,0.0,22652,58.98958333333333
11069,5.0,,,,55.0,,,,,52,note_on,,112.0,55.0,112.0,22704,59.125
11070,5.0,,,,55.0,,,,,44,note_on,,0.0,55.0,0.0,22748,59.23958333333333
11071,5.0,,,,55.0,,,,,4,note_on,,112.0,55.0,112.0,22752,59.25
11072,5.0,,,,55.0,,,,,44,note_on,,0.0,55.0,0.0,22796,59.36458333333333
11073,5.0,,,,53.0,,,,,4,note_on,,112.0,53.0,112.0,22800,59.375
11074,5.0,,,,53.0,,,,,44,note_on,,0.0,53.0,0.0,22844,59.48958333333333
11075,5.0,,,,55.0,,,,,4,note_on,,112.0,55.0,112.0,22848,59.5
11076,5.0,,,,55.0,,,,,44,note_on,,0.0,55.0,0.0,22892,59.61458333333333
11077,5.0,,,,53.0,,,,,4,note_on,,112.0,53.0,112.0,22896,59.625
11078,5.0,,,,53.0,,,,,44,note_on,,0.0,53.0,0.0,22940,59.73958333333333
11079,5.0,,,,55.0,,,,,4,note_on,,112.0,55.0,112.0,22944,59.75
11080,5.0,,,,55.0,,,,,44,note_on,,0.0,55.0,0.0,22988,59.86458333333333
11081,5.0,,,,53.0,,,,,4,note_on,,112.0,53.0,112.0,22992,59.875
11082,5.0,,,,53.0,,,,,44,note_on,,0.0,53.0,0.0,23036,59.98958333333333
11083,5.0,,,,55.0,,,,,4,note_on,,112.0,55.0,112.0,23040,60.0
11084,5.0,,,,55.0,,,,,44,note_on,,0.0,55.0,0.0,23084,60.11458333333333
11085,5.0,,,,53.0,,,,,4,note_on,,112.0,53.0,112.0,23088,60.125
11086,5.0,,,,53.0,,,,,44,note_on,,0.0,53.0,0.0,23132,60.23958333333333
11087,5.0,,,,55.0,,,,,4,note_on,,112.0,55.0,112.0,23136,60.25
11088,5.0,,,,55.0,,,,,44,note_on,,0.0,55.0,0.0,23180,60.36458333333333
11089,5.0,,,,53.0,,,,,4,note_on,,112.0,53.0,112.0,23184,60.375
11090,5.0,,,,53.0,,,,,44,note_on,,0.0,53.0,0.0,23228,60.48958333333333
11091,5.0,,,,55.0,,,,,4,note_on,,112.0,55.0,112.0,23232,60.5
11092,5.0,,,,55.0,,,,,44,note_on,,0.0,55.0,0.0,23276,60.61458333333333
11093,5.0,,,,53.0,,,,,4,note_on,,112.0,53.0,112.0,23280,60.625
11094,5.0,,,,53.0,,,,,44,note_on,,0.0,53.0,0.0,23324,60.73958333333333
11095,5.0,,,,55.0,,,,,4,note_on,,112.0,55.0,112.0,23328,60.75
11096,5.0,,,,55.0,,,,,44,note_on,,0.0,55.0,0.0,23372,60.86458333333333
11097,5.0,,,,53.0,,,,,4,note_on,,112.0,53.0,112.0,23376,60.875
11098,5.0,,,,53.0,,,,,44,note_on,,0.0,53.0,0.0,23420,60.98958333333333
11099,5.0,,,,55.0,,,,,52,note_on,,112.0,55.0,112.0,23472,61.125
11100,5.0,,,,55.0,,,,,44,note_on,,0.0,55.0,0.0,23516,61.23958333333333
11101,5.0,,,,55.0,,,,,4,note_on,,112.0,55.0,112.0,23520,61.25
11102,5.0,,,,55.0,,,,,44,note_on,,0.0,55.0,0.0,23564,61.36458333333333
11103,5.0,,,,53.0,,,,,4,note_on,,112.0,53.0,112.0,23568,61.375
11104,5.0,,,,53.0,,,,,44,note_on,,0.0,53.0,0.0,23612,61.48958333333333
11105,5.0,,,,55.0,,,,,4,note_on,,112.0,55.0,112.0,23616,61.5
11106,5.0,,,,55.0,,,,,44,note_on,,0.0,55.0,0.0,23660,61.61458333333333
11107,5.0,,,,53.0,,,,,4,note_on,,112.0,53.0,112.0,23664,61.625
11108,5.0,,,,53.0,,,,,44,note_on,,0.0,53.0,0.0,23708,61.73958333333333
11109,5.0,,,,55.0,,,,,4,note_on,,112.0,55.0,112.0,23712,61.75
11110,5.0,,,,55.0,,,,,44,note_on,,0.0,55.0,0.0,23756,61.86458333333333
11111,5.0,,,,53.0,,,,,4,note_on,,112.0,53.0,112.0,23760,61.875
11112,5.0,,,,53.0,,,,,44,note_on,,0.0,53.0,0.0,23804,61.98958333333333
11113,5.0,,,,55.0,,,,,4,note_on,,112.0,55.0,112.0,23808,62.0
11114,5.0,,,,55.0,,,,,44,note_on,,0.0,55.0,0.0,23852,62.11458333333333
11115,5.0,,,,53.0,,,,,4,note_on,,112.0,53.0,112.0,23856,62.125
11116,5.0,,,,53.0,,,,,44,note_on,,0.0,53.0,0.0,23900,62.23958333333333
11117,5.0,,,,55.0,,,,,4,note_on,,112.0,55.0,112.0,23904,62.25
11118,5.0,,,,55.0,,,,,44,note_on,,0.0,55.0,0.0,23948,62.36458333333333
11119,5.0,,,,53.0,,,,,4,note_on,,112.0,53.0,112.0,23952,62.375
11120,5.0,,,,53.0,,,,,44,note_on,,0.0,53.0,0.0,23996,62.48958333333333
11121,5.0,,,,55.0,,,,,4,note_on,,112.0,55.0,112.0,24000,62.5
11122,5.0,,,,55.0,,,,,44,note_on,,0.0,55.0,0.0,24044,62.61458333333333
11123,5.0,,,,53.0,,,,,4,note_on,,112.0,53.0,112.0,24048,62.625
11124,5.0,,,,53.0,,,,,44,note_on,,0.0,53.0,0.0,24092,62.73958333333333
11125,5.0,,,,55.0,,,,,4,note_on,,112.0,55.0,112.0,24096,62.75
11126,5.0,,,,55.0,,,,,44,note_on,,0.0,55.0,0.0,24140,62.86458333333333
11127,5.0,,,,53.0,,,,,4,note_on,,112.0,53.0,112.0,24144,62.875
11128,5.0,,,,53.0,,,,,44,note_on,,0.0,53.0,0.0,24188,62.98958333333333
11129,5.0,,,,55.0,,,,,52,note_on,,112.0,55.0,112.0,24240,63.125
11130,5.0,,,,55.0,,,,,44,note_on,,0.0,55.0,0.0,24284,63.23958333333333
11131,5.0,,,,55.0,,,,,4,note_on,,112.0,55.0,112.0,24288,63.25
11132,5.0,,,,55.0,,,,,44,note_on,,0.0,55.0,0.0,24332,63.36458333333333
11133,5.0,,,,53.0,,,,,4,note_on,,112.0,53.0,112.0,24336,63.375
11134,5.0,,,,53.0,,,,,44,note_on,,0.0,53.0,0.0,24380,63.48958333333333
11135,5.0,,,,55.0,,,,,4,note_on,,112.0,55.0,112.0,24384,63.5
11136,5.0,,,,55.0,,,,,44,note_on,,0.0,55.0,0.0,24428,63.61458333333333
11137,5.0,,,,53.0,,,,,4,note_on,,112.0,53.0,112.0,24432,63.625
11138,5.0,,,,53.0,,,,,44,note_on,,0.0,53.0,0.0,24476,63.73958333333333
11139,5.0,,,,55.0,,,,,4,note_on,,112.0,55.0,112.0,24480,63.75
11140,5.0,,,,55.0,,,,,44,note_on,,0.0,55.0,0.0,24524,63.86458333333333
11141,5.0,,,,53.0,,,,,4,note_on,,112.0,53.0,112.0,24528,63.875
11142,5.0,,,,53.0,,,,,44,note_on,,0.0,53.0,0.0,24572,63.98958333333333
11143,5.0,,,,55.0,,,,,4,note_on,,112.0,55.0,112.0,24576,64.0
11144,5.0,,,,55.0,,,,,44,note_on,,0.0,55.0,0.0,24620,64.11458333333333
11145,5.0,,,,53.0,,,,,4,note_on,,112.0,53.0,112.0,24624,64.125
11146,5.0,,,,53.0,,,,,44,note_on,,0.0,53.0,0.0,24668,64.23958333333333
11147,5.0,,,,55.0,,,,,4,note_on,,112.0,55.0,112.0,24672,64.25
11148,5.0,,,,55.0,,,,,44,note_on,,0.0,55.0,0.0,24716,64.36458333333333
11149,5.0,,,,53.0,,,,,4,note_on,,112.0,53.0,112.0,24720,64.375
11150,5.0,,,,53.0,,,,,44,note_on,,0.0,53.0,0.0,24764,64.48958333333333
11151,5.0,,,,55.0,,,,,4,note_on,,112.0,55.0,112.0,24768,64.5
11152,5.0,,,,55.0,,,,,44,note_on,,0.0,55.0,0.0,24812,64.61458333333333
11153,5.0,,,,53.0,,,,,4,note_on,,112.0,53.0,112.0,24816,64.625
11154,5.0,,,,53.0,,,,,44,note_on,,0.0,53.0,0.0,24860,64.73958333333333
11155,5.0,,,,55.0,,,,,4,note_on,,112.0,55.0,112.0,24864,64.75
11156,5.0,,,,55.0,,,,,44,note_on,,0.0,55.0,0.0,24908,64.86458333333333
11157,5.0,,,,53.0,,,,,4,note_on,,112.0,53.0,112.0,24912,64.875
11158,5.0,,,,53.0,,,,,44,note_on,,0.0,53.0,0.0,24956,64.98958333333333
11159,5.0,,,,55.0,,,,,52,note_on,,112.0,55.0,112.0,25008,65.125
11160,5.0,,,,55.0,,,,,44,note_on,,0.0,55.0,0.0,25052,65.23958333333333
11161,5.0,,,,55.0,,,,,4,note_on,,112.0,55.0,112.0,25056,65.25
11162,5.0,,,,55.0,,,,,44,note_on,,0.0,55.0,0.0,25100,65.36458333333333
11163,5.0,,,,53.0,,,,,4,note_on,,112.0,53.0,112.0,25104,65.375
11164,5.0,,,,53.0,,,,,44,note_on,,0.0,53.0,0.0,25148,65.48958333333333
11165,5.0,,,,55.0,,,,,4,note_on,,112.0,55.0,112.0,25152,65.5
11166,5.0,,,,55.0,,,,,44,note_on,,0.0,55.0,0.0,25196,65.61458333333333
11167,5.0,,,,53.0,,,,,4,note_on,,112.0,53.0,112.0,25200,65.625
11168,5.0,,,,53.0,,,,,44,note_on,,0.0,53.0,0.0,25244,65.73958333333333
11169,5.0,,,,55.0,,,,,4,note_on,,112.0,55.0,112.0,25248,65.75
11170,5.0,,,,55.0,,,,,44,note_on,,0.0,55.0,0.0,25292,65.86458333333333
11171,5.0,,,,53.0,,,,,4,note_on,,112.0,53.0,112.0,25296,65.875
11172,5.0,,,,53.0,,,,,44,note_on,,0.0,53.0,0.0,25340,65.98958333333333
11173,5.0,,,,55.0,,,,,3076,note_on,,112.0,55.0,112.0,28416,74.0
11174,5.0,,,,55.0,,,,,44,note_on,,0.0,55.0,0.0,28460,74.11458333333333
11175,5.0,,,,53.0,,,,,4,note_on,,112.0,53.0,112.0,28464,74.125
11176,5.0,,,,53.0,,,,,44,note_on,,0.0,53.0,0.0,28508,74.23958333333333
11177,5.0,,,,55.0,,,,,4,note_on,,112.0,55.0,112.0,28512,74.25
11178,5.0,,,,55.0,,,,,44,note_on,,0.0,55.0,0.0,28556,74.36458333333333
11179,5.0,,,,53.0,,,,,4,note_on,,112.0,53.0,112.0,28560,74.375
11180,5.0,,,,53.0,,,,,44,note_on,,0.0,53.0,0.0,28604,74.48958333333333
11181,5.0,,,,55.0,,,,,4,note_on,,112.0,55.0,112.0,28608,74.5
11182,5.0,,,,55.0,,,,,44,note_on,,0.0,55.0,0.0,28652,74.61458333333333
11183,5.0,,,,53.0,,,,,4,note_on,,112.0,53.0,112.0,28656,74.625
11184,5.0,,,,53.0,,,,,44,note_on,,0.0,53.0,0.0,28700,74.73958333333333
11185,5.0,,,,55.0,,,,,4,note_on,,112.0,55.0,112.0,28704,74.75
11186,5.0,,,,55.0,,,,,44,note_on,,0.0,55.0,0.0,28748,74.86458333333333
11187,5.0,,,,53.0,,,,,4,note_on,,112.0,53.0,112.0,28752,74.875
11188,5.0,,,,53.0,,,,,44,note_on,,0.0,53.0,0.0,28796,74.98958333333333
11189,5.0,,,,55.0,,,,,52,note_on,,112.0,55.0,112.0,28848,75.125
11190,5.0,,,,55.0,,,,,44,note_on,,0.0,55.0,0.0,28892,75.23958333333333
11191,5.0,,,,55.0,,,,,4,note_on,,112.0,55.0,112.0,28896,75.25
11192,5.0,,,,55.0,,,,,44,note_on,,0.0,55.0,0.0,28940,75.36458333333333
11193,5.0,,,,53.0,,,,,4,note_on,,112.0,53.0,112.0,28944,75.375
11194,5.0,,,,53.0,,,,,44,note_on,,0.0,53.0,0.0,28988,75.48958333333333
11195,5.0,,,,55.0,,,,,4,note_on,,112.0,55.0,112.0,28992,75.5
11196,5.0,,,,55.0,,,,,44,note_on,,0.0,55.0,0.0,29036,75.61458333333333
11197,5.0,,,,53.0,,,,,4,note_on,,112.0,53.0,112.0,29040,75.625
11198,5.0,,,,53.0,,,,,44,note_on,,0.0,53.0,0.0,29084,75.73958333333333
11199,5.0,,,,55.0,,,,,4,note_on,,112.0,55.0,112.0,29088,75.75
11200,5.0,,,,55.0,,,,,44,note_on,,0.0,55.0,0.0,29132,75.86458333333333
11201,5.0,,,,53.0,,,,,4,note_on,,112.0,53.0,112.0,29136,75.875
11202,5.0,,,,53.0,,,,,44,note_on,,0.0,53.0,0.0,29180,75.98958333333333
11203,5.0,,,,55.0,,,,,4,note_on,,112.0,55.0,112.0,29184,76.0
11204,5.0,,,,55.0,,,,,44,note_on,,0.0,55.0,0.0,29228,76.11458333333333
11205,5.0,,,,53.0,,,,,4,note_on,,112.0,53.0,112.0,29232,76.125
11206,5.0,,,,53.0,,,,,44,note_on,,0.0,53.0,0.0,29276,76.23958333333333
11207,5.0,,,,55.0,,,,,4,note_on,,112.0,55.0,112.0,29280,76.25
11208,5.0,,,,55.0,,,,,44,note_on,,0.0,55.0,0.0,29324,76.36458333333333
11209,5.0,,,,53.0,,,,,4,note_on,,112.0,53.0,112.0,29328,76.375
11210,5.0,,,,53.0,,,,,44,note_on,,0.0,53.0,0.0,29372,76.48958333333333
11211,5.0,,,,55.0,,,,,4,note_on,,112.0,55.0,112.0,29376,76.5
11212,5.0,,,,55.0,,,,,44,note_on,,0.0,55.0,0.0,29420,76.61458333333333
11213,5.0,,,,53.0,,,,,4,note_on,,112.0,53.0,112.0,29424,76.625
11214,5.0,,,,53.0,,,,,44,note_on,,0.0,53.0,0.0,29468,76.73958333333333
11215,5.0,,,,55.0,,,,,4,note_on,,112.0,55.0,112.0,29472,76.75
11216,5.0,,,,55.0,,,,,44,note_on,,0.0,55.0,0.0,29516,76.86458333333333
11217,5.0,,,,53.0,,,,,4,note_on,,112.0,53.0,112.0,29520,76.875
11218,5.0,,,,53.0,,,,,44,note_on,,0.0,53.0,0.0,29564,76.98958333333333
11219,5.0,,,,55.0,,,,,52,note_on,,112.0,55.0,112.0,29616,77.125
11220,5.0,,,,55.0,,,,,44,note_on,,0.0,55.0,0.0,29660,77.23958333333333
11221,5.0,,,,55.0,,,,,4,note_on,,112.0,55.0,112.0,29664,77.25
11222,5.0,,,,55.0,,,,,44,note_on,,0.0,55.0,0.0,29708,77.36458333333333
11223,5.0,,,,53.0,,,,,4,note_on,,112.0,53.0,112.0,29712,77.375
11224,5.0,,,,53.0,,,,,44,note_on,,0.0,53.0,0.0,29756,77.48958333333333
11225,5.0,,,,55.0,,,,,4,note_on,,112.0,55.0,112.0,29760,77.5
11226,5.0,,,,55.0,,,,,44,note_on,,0.0,55.0,0.0,29804,77.61458333333333
11227,5.0,,,,53.0,,,,,4,note_on,,112.0,53.0,112.0,29808,77.625
11228,5.0,,,,53.0,,,,,44,note_on,,0.0,53.0,0.0,29852,77.73958333333333
11229,5.0,,,,55.0,,,,,4,note_on,,112.0,55.0,112.0,29856,77.75
11230,5.0,,,,55.0,,,,,44,note_on,,0.0,55.0,0.0,29900,77.86458333333333
11231,5.0,,,,53.0,,,,,4,note_on,,112.0,53.0,112.0,29904,77.875
11232,5.0,,,,53.0,,,,,44,note_on,,0.0,53.0,0.0,29948,77.98958333333333
11233,5.0,,,,55.0,,,,,4,note_on,,112.0,55.0,112.0,29952,78.0
11234,5.0,,,,55.0,,,,,44,note_on,,0.0,55.0,0.0,29996,78.11458333333333
11235,5.0,,,,53.0,,,,,4,note_on,,112.0,53.0,112.0,30000,78.125
11236,5.0,,,,53.0,,,,,44,note_on,,0.0,53.0,0.0,30044,78.23958333333333
11237,5.0,,,,55.0,,,,,4,note_on,,112.0,55.0,112.0,30048,78.25
11238,5.0,,,,55.0,,,,,44,note_on,,0.0,55.0,0.0,30092,78.36458333333333
11239,5.0,,,,53.0,,,,,4,note_on,,112.0,53.0,112.0,30096,78.375
11240,5.0,,,,53.0,,,,,44,note_on,,0.0,53.0,0.0,30140,78.48958333333333
11241,5.0,,,,55.0,,,,,4,note_on,,112.0,55.0,112.0,30144,78.5
11242,5.0,,,,55.0,,,,,44,note_on,,0.0,55.0,0.0,30188,78.61458333333333
11243,5.0,,,,53.0,,,,,4,note_on,,112.0,53.0,112.0,30192,78.625
11244,5.0,,,,53.0,,,,,44,note_on,,0.0,53.0,0.0,30236,78.73958333333333
11245,5.0,,,,55.0,,,,,4,note_on,,112.0,55.0,112.0,30240,78.75
11246,5.0,,,,55.0,,,,,44,note_on,,0.0,55.0,0.0,30284,78.86458333333333
11247,5.0,,,,53.0,,,,,4,note_on,,112.0,53.0,112.0,30288,78.875
11248,5.0,,,,53.0,,,,,44,note_on,,0.0,53.0,0.0,30332,78.98958333333333
11249,5.0,,,,55.0,,,,,52,note_on,,112.0,55.0,112.0,30384,79.125
11250,5.0,,,,55.0,,,,,44,note_on,,0.0,55.0,0.0,30428,79.23958333333333
11251,5.0,,,,55.0,,,,,4,note_on,,112.0,55.0,112.0,30432,79.25
11252,5.0,,,,55.0,,,,,44,note_on,,0.0,55.0,0.0,30476,79.36458333333333
11253,5.0,,,,53.0,,,,,4,note_on,,112.0,53.0,112.0,30480,79.375
11254,5.0,,,,53.0,,,,,44,note_on,,0.0,53.0,0.0,30524,79.48958333333333
11255,5.0,,,,55.0,,,,,4,note_on,,112.0,55.0,112.0,30528,79.5
11256,5.0,,,,55.0,,,,,44,note_on,,0.0,55.0,0.0,30572,79.61458333333333
11257,5.0,,,,53.0,,,,,4,note_on,,112.0,53.0,112.0,30576,79.625
11258,5.0,,,,53.0,,,,,44,note_on,,0.0,53.0,0.0,30620,79.73958333333333
11259,5.0,,,,55.0,,,,,4,note_on,,112.0,55.0,112.0,30624,79.75
11260,5.0,,,,55.0,,,,,44,note_on,,0.0,55.0,0.0,30668,79.86458333333333
11261,5.0,,,,53.0,,,,,4,note_on,,112.0,53.0,112.0,30672,79.875
11262,5.0,,,,53.0,,,,,44,note_on,,0.0,53.0,0.0,30716,79.98958333333333
11263,5.0,,,,55.0,,,,,4,note_on,,112.0,55.0,112.0,30720,80.0
11264,5.0,,,,55.0,,,,,44,note_on,,0.0,55.0,0.0,30764,80.11458333333333
11265,5.0,,,,53.0,,,,,4,note_on,,112.0,53.0,112.0,30768,80.125
11266,5.0,,,,53.0,,,,,44,note_on,,0.0,53.0,0.0,30812,80.23958333333333
11267,5.0,,,,55.0,,,,,4,note_on,,112.0,55.0,112.0,30816,80.25
11268,5.0,,,,55.0,,,,,44,note_on,,0.0,55.0,0.0,30860,80.36458333333333
11269,5.0,,,,53.0,,,,,4,note_on,,112.0,53.0,112.0,30864,80.375
11270,5.0,,,,53.0,,,,,44,note_on,,0.0,53.0,0.0,30908,80.48958333333333
11271,5.0,,,,55.0,,,,,4,note_on,,112.0,55.0,112.0,30912,80.5
11272,5.0,,,,55.0,,,,,44,note_on,,0.0,55.0,0.0,30956,80.61458333333333
11273,5.0,,,,53.0,,,,,4,note_on,,112.0,53.0,112.0,30960,80.625
11274,5.0,,,,53.0,,,,,44,note_on,,0.0,53.0,0.0,31004,80.73958333333333
11275,5.0,,,,55.0,,,,,4,note_on,,112.0,55.0,112.0,31008,80.75
11276,5.0,,,,55.0,,,,,44,note_on,,0.0,55.0,0.0,31052,80.86458333333333
11277,5.0,,,,53.0,,,,,4,note_on,,112.0,53.0,112.0,31056,80.875
11278,5.0,,,,53.0,,,,,44,note_on,,0.0,53.0,0.0,31100,80.98958333333333
11279,5.0,,,,55.0,,,,,52,note_on,,112.0,55.0,112.0,31152,81.125
11280,5.0,,,,55.0,,,,,44,note_on,,0.0,55.0,0.0,31196,81.23958333333333
11281,5.0,,,,55.0,,,,,4,note_on,,112.0,55.0,112.0,31200,81.25
11282,5.0,,,,55.0,,,,,44,note_on,,0.0,55.0,0.0,31244,81.36458333333333
11283,5.0,,,,53.0,,,,,4,note_on,,112.0,53.0,112.0,31248,81.375
11284,5.0,,,,53.0,,,,,44,note_on,,0.0,53.0,0.0,31292,81.48958333333333
11285,5.0,,,,55.0,,,,,4,note_on,,112.0,55.0,112.0,31296,81.5
11286,5.0,,,,55.0,,,,,44,note_on,,0.0,55.0,0.0,31340,81.61458333333333
11287,5.0,,,,53.0,,,,,4,note_on,,112.0,53.0,112.0,31344,81.625
11288,5.0,,,,53.0,,,,,44,note_on,,0.0,53.0,0.0,31388,81.73958333333333
11289,5.0,,,,55.0,,,,,4,note_on,,112.0,55.0,112.0,31392,81.75
11290,5.0,,,,55.0,,,,,44,note_on,,0.0,55.0,0.0,31436,81.86458333333333
11291,5.0,,,,53.0,,,,,4,note_on,,112.0,53.0,112.0,31440,81.875
11292,5.0,,,,53.0,,,,,44,note_on,,0.0,53.0,0.0,31484,81.98958333333333
11293,5.0,,,,55.0,,,,,4,note_on,,112.0,55.0,112.0,31488,82.0
11294,5.0,,,,55.0,,,,,44,note_on,,0.0,55.0,0.0,31532,82.11458333333333
11295,5.0,,,,53.0,,,,,4,note_on,,112.0,53.0,112.0,31536,82.125
11296,5.0,,,,53.0,,,,,44,note_on,,0.0,53.0,0.0,31580,82.23958333333333
11297,5.0,,,,55.0,,,,,4,note_on,,112.0,55.0,112.0,31584,82.25
11298,5.0,,,,55.0,,,,,44,note_on,,0.0,55.0,0.0,31628,82.36458333333333
11299,5.0,,,,53.0,,,,,4,note_on,,112.0,53.0,112.0,31632,82.375
11300,5.0,,,,53.0,,,,,44,note_on,,0.0,53.0,0.0,31676,82.48958333333333
11301,5.0,,,,55.0,,,,,4,note_on,,112.0,55.0,112.0,31680,82.5
11302,5.0,,,,55.0,,,,,44,note_on,,0.0,55.0,0.0,31724,82.61458333333333
11303,5.0,,,,53.0,,,,,4,note_on,,112.0,53.0,112.0,31728,82.625
11304,5.0,,,,53.0,,,,,44,note_on,,0.0,53.0,0.0,31772,82.73958333333333
11305,5.0,,,,55.0,,,,,4,note_on,,112.0,55.0,112.0,31776,82.75
11306,5.0,,,,55.0,,,,,44,note_on,,0.0,55.0,0.0,31820,82.86458333333333
11307,5.0,,,,53.0,,,,,4,note_on,,112.0,53.0,112.0,31824,82.875
11308,5.0,,,,53.0,,,,,44,note_on,,0.0,53.0,0.0,31868,82.98958333333333
11309,5.0,,,,55.0,,,,,52,note_on,,112.0,55.0,112.0,31920,83.125
11310,5.0,,,,55.0,,,,,44,note_on,,0.0,55.0,0.0,31964,83.23958333333333
11311,5.0,,,,55.0,,,,,4,note_on,,112.0,55.0,112.0,31968,83.25
11312,5.0,,,,55.0,,,,,44,note_on,,0.0,55.0,0.0,32012,83.36458333333333
11313,5.0,,,,53.0,,,,,4,note_on,,112.0,53.0,112.0,32016,83.375
11314,5.0,,,,53.0,,,,,44,note_on,,0.0,53.0,0.0,32060,83.48958333333333
11315,5.0,,,,55.0,,,,,4,note_on,,112.0,55.0,112.0,32064,83.5
11316,5.0,,,,55.0,,,,,44,note_on,,0.0,55.0,0.0,32108,83.61458333333333
11317,5.0,,,,53.0,,,,,4,note_on,,112.0,53.0,112.0,32112,83.625
11318,5.0,,,,53.0,,,,,44,note_on,,0.0,53.0,0.0,32156,83.73958333333333
11319,5.0,,,,55.0,,,,,4,note_on,,112.0,55.0,112.0,32160,83.75
11320,5.0,,,,55.0,,,,,44,note_on,,0.0,55.0,0.0,32204,83.86458333333333
11321,5.0,,,,53.0,,,,,4,note_on,,112.0,53.0,112.0,32208,83.875
11322,5.0,,,,53.0,,,,,44,note_on,,0.0,53.0,0.0,32252,83.98958333333333
11323,5.0,,,,55.0,,,,,4,note_on,,112.0,55.0,112.0,32256,84.0
11324,5.0,,,,55.0,,,,,44,note_on,,0.0,55.0,0.0,32300,84.11458333333333
11325,5.0,,,,53.0,,,,,4,note_on,,112.0,53.0,112.0,32304,84.125
11326,5.0,,,,53.0,,,,,44,note_on,,0.0,53.0,0.0,32348,84.23958333333333
11327,5.0,,,,55.0,,,,,4,note_on,,112.0,55.0,112.0,32352,84.25
11328,5.0,,,,55.0,,,,,44,note_on,,0.0,55.0,0.0,32396,84.36458333333333
11329,5.0,,,,53.0,,,,,4,note_on,,112.0,53.0,112.0,32400,84.375
11330,5.0,,,,53.0,,,,,44,note_on,,0.0,53.0,0.0,32444,84.48958333333333
11331,5.0,,,,55.0,,,,,4,note_on,,112.0,55.0,112.0,32448,84.5
11332,5.0,,,,55.0,,,,,44,note_on,,0.0,55.0,0.0,32492,84.61458333333333
11333,5.0,,,,53.0,,,,,4,note_on,,112.0,53.0,112.0,32496,84.625
11334,5.0,,,,53.0,,,,,44,note_on,,0.0,53.0,0.0,32540,84.73958333333333
11335,5.0,,,,55.0,,,,,4,note_on,,112.0,55.0,112.0,32544,84.75
11336,5.0,,,,55.0,,,,,44,note_on,,0.0,55.0,0.0,32588,84.86458333333333
11337,5.0,,,,53.0,,,,,4,note_on,,112.0,53.0,112.0,32592,84.875
11338,5.0,,,,53.0,,,,,44,note_on,,0.0,53.0,0.0,32636,84.98958333333333
11339,5.0,,,,55.0,,,,,52,note_on,,112.0,55.0,112.0,32688,85.125
11340,5.0,,,,55.0,,,,,44,note_on,,0.0,55.0,0.0,32732,85.23958333333333
11341,5.0,,,,55.0,,,,,4,note_on,,112.0,55.0,112.0,32736,85.25
11342,5.0,,,,55.0,,,,,44,note_on,,0.0,55.0,0.0,32780,85.36458333333333
11343,5.0,,,,53.0,,,,,4,note_on,,112.0,53.0,112.0,32784,85.375
11344,5.0,,,,53.0,,,,,44,note_on,,0.0,53.0,0.0,32828,85.48958333333333
11345,5.0,,,,55.0,,,,,4,note_on,,112.0,55.0,112.0,32832,85.5
11346,5.0,,,,55.0,,,,,44,note_on,,0.0,55.0,0.0,32876,85.61458333333333
11347,5.0,,,,53.0,,,,,4,note_on,,112.0,53.0,112.0,32880,85.625
11348,5.0,,,,53.0,,,,,44,note_on,,0.0,53.0,0.0,32924,85.73958333333333
11349,5.0,,,,55.0,,,,,4,note_on,,112.0,55.0,112.0,32928,85.75
11350,5.0,,,,55.0,,,,,44,note_on,,0.0,55.0,0.0,32972,85.86458333333333
11351,5.0,,,,53.0,,,,,4,note_on,,112.0,53.0,112.0,32976,85.875
11352,5.0,,,,53.0,,,,,44,note_on,,0.0,53.0,0.0,33020,85.98958333333333
11353,5.0,,,,55.0,,,,,4,note_on,,112.0,55.0,112.0,33024,86.0
11354,5.0,,,,55.0,,,,,44,note_on,,0.0,55.0,0.0,33068,86.11458333333333
11355,5.0,,,,53.0,,,,,4,note_on,,112.0,53.0,112.0,33072,86.125
11356,5.0,,,,53.0,,,,,44,note_on,,0.0,53.0,0.0,33116,86.23958333333333
11357,5.0,,,,55.0,,,,,4,note_on,,112.0,55.0,112.0,33120,86.25
11358,5.0,,,,55.0,,,,,44,note_on,,0.0,55.0,0.0,33164,86.36458333333333
11359,5.0,,,,53.0,,,,,4,note_on,,112.0,53.0,112.0,33168,86.375
11360,5.0,,,,53.0,,,,,44,note_on,,0.0,53.0,0.0,33212,86.48958333333333
11361,5.0,,,,55.0,,,,,4,note_on,,112.0,55.0,112.0,33216,86.5
11362,5.0,,,,55.0,,,,,44,note_on,,0.0,55.0,0.0,33260,86.61458333333333
11363,5.0,,,,53.0,,,,,4,note_on,,112.0,53.0,112.0,33264,86.625
11364,5.0,,,,53.0,,,,,44,note_on,,0.0,53.0,0.0,33308,86.73958333333333
11365,5.0,,,,55.0,,,,,4,note_on,,112.0,55.0,112.0,33312,86.75
11366,5.0,,,,55.0,,,,,44,note_on,,0.0,55.0,0.0,33356,86.86458333333333
11367,5.0,,,,53.0,,,,,4,note_on,,112.0,53.0,112.0,33360,86.875
11368,5.0,,,,53.0,,,,,44,note_on,,0.0,53.0,0.0,33404,86.98958333333333
11369,5.0,,,,55.0,,,,,52,note_on,,112.0,55.0,112.0,33456,87.125
11370,5.0,,,,55.0,,,,,44,note_on,,0.0,55.0,0.0,33500,87.23958333333333
11371,5.0,,,,55.0,,,,,4,note_on,,112.0,55.0,112.0,33504,87.25
11372,5.0,,,,55.0,,,,,44,note_on,,0.0,55.0,0.0,33548,87.36458333333333
11373,5.0,,,,53.0,,,,,4,note_on,,112.0,53.0,112.0,33552,87.375
11374,5.0,,,,53.0,,,,,44,note_on,,0.0,53.0,0.0,33596,87.48958333333333
11375,5.0,,,,55.0,,,,,4,note_on,,112.0,55.0,112.0,33600,87.5
11376,5.0,,,,55.0,,,,,44,note_on,,0.0,55.0,0.0,33644,87.61458333333333
11377,5.0,,,,53.0,,,,,4,note_on,,112.0,53.0,112.0,33648,87.625
11378,5.0,,,,53.0,,,,,44,note_on,,0.0,53.0,0.0,33692,87.73958333333333
11379,5.0,,,,55.0,,,,,4,note_on,,112.0,55.0,112.0,33696,87.75
11380,5.0,,,,55.0,,,,,44,note_on,,0.0,55.0,0.0,33740,87.86458333333333
11381,5.0,,,,53.0,,,,,4,note_on,,112.0,53.0,112.0,33744,87.875
11382,5.0,,,,53.0,,,,,44,note_on,,0.0,53.0,0.0,33788,87.98958333333333
11383,5.0,,,,55.0,,,,,4,note_on,,112.0,55.0,112.0,33792,88.0
11384,5.0,,,,55.0,,,,,44,note_on,,0.0,55.0,0.0,33836,88.11458333333333
11385,5.0,,,,53.0,,,,,4,note_on,,112.0,53.0,112.0,33840,88.125
11386,5.0,,,,53.0,,,,,44,note_on,,0.0,53.0,0.0,33884,88.23958333333333
11387,5.0,,,,55.0,,,,,4,note_on,,112.0,55.0,112.0,33888,88.25
11388,5.0,,,,55.0,,,,,44,note_on,,0.0,55.0,0.0,33932,88.36458333333333
11389,5.0,,,,53.0,,,,,4,note_on,,112.0,53.0,112.0,33936,88.375
11390,5.0,,,,53.0,,,,,44,note_on,,0.0,53.0,0.0,33980,88.48958333333333
11391,5.0,,,,55.0,,,,,4,note_on,,112.0,55.0,112.0,33984,88.5
11392,5.0,,,,55.0,,,,,44,note_on,,0.0,55.0,0.0,34028,88.61458333333333
11393,5.0,,,,53.0,,,,,4,note_on,,112.0,53.0,112.0,34032,88.625
11394,5.0,,,,53.0,,,,,44,note_on,,0.0,53.0,0.0,34076,88.73958333333333
11395,5.0,,,,55.0,,,,,4,note_on,,112.0,55.0,112.0,34080,88.75
11396,5.0,,,,55.0,,,,,44,note_on,,0.0,55.0,0.0,34124,88.86458333333333
11397,5.0,,,,53.0,,,,,4,note_on,,112.0,53.0,112.0,34128,88.875
11398,5.0,,,,53.0,,,,,44,note_on,,0.0,53.0,0.0,34172,88.98958333333333
11399,5.0,,,,55.0,,,,,52,note_on,,112.0,55.0,112.0,34224,89.125
11400,5.0,,,,55.0,,,,,44,note_on,,0.0,55.0,0.0,34268,89.23958333333333
11401,5.0,,,,55.0,,,,,4,note_on,,112.0,55.0,112.0,34272,89.25
11402,5.0,,,,55.0,,,,,44,note_on,,0.0,55.0,0.0,34316,89.36458333333333
11403,5.0,,,,53.0,,,,,4,note_on,,112.0,53.0,112.0,34320,89.375
11404,5.0,,,,53.0,,,,,44,note_on,,0.0,53.0,0.0,34364,89.48958333333333
11405,5.0,,,,55.0,,,,,4,note_on,,112.0,55.0,112.0,34368,89.5
11406,5.0,,,,55.0,,,,,44,note_on,,0.0,55.0,0.0,34412,89.61458333333333
11407,5.0,,,,53.0,,,,,4,note_on,,112.0,53.0,112.0,34416,89.625
11408,5.0,,,,53.0,,,,,44,note_on,,0.0,53.0,0.0,34460,89.73958333333333
11409,5.0,,,,55.0,,,,,4,note_on,,112.0,55.0,112.0,34464,89.75
11410,5.0,,,,55.0,,,,,44,note_on,,0.0,55.0,0.0,34508,89.86458333333333
11411,5.0,,,,53.0,,,,,4,note_on,,112.0,53.0,112.0,34512,89.875
11412,5.0,,,,53.0,,,,,44,note_on,,0.0,53.0,0.0,34556,89.98958333333333
11413,5.0,,,,55.0,,,,,4,note_on,,112.0,55.0,112.0,34560,90.0
11414,5.0,,,,55.0,,,,,44,note_on,,0.0,55.0,0.0,34604,90.11458333333333
11415,5.0,,,,53.0,,,,,4,note_on,,112.0,53.0,112.0,34608,90.125
11416,5.0,,,,53.0,,,,,44,note_on,,0.0,53.0,0.0,34652,90.23958333333333
11417,5.0,,,,55.0,,,,,4,note_on,,112.0,55.0,112.0,34656,90.25
11418,5.0,,,,55.0,,,,,44,note_on,,0.0,55.0,0.0,34700,90.36458333333333
11419,5.0,,,,53.0,,,,,4,note_on,,112.0,53.0,112.0,34704,90.375
11420,5.0,,,,53.0,,,,,44,note_on,,0.0,53.0,0.0,34748,90.48958333333333
11421,5.0,,,,55.0,,,,,4,note_on,,112.0,55.0,112.0,34752,90.5
11422,5.0,,,,55.0,,,,,44,note_on,,0.0,55.0,0.0,34796,90.61458333333333
11423,5.0,,,,53.0,,,,,4,note_on,,112.0,53.0,112.0,34800,90.625
11424,5.0,,,,53.0,,,,,44,note_on,,0.0,53.0,0.0,34844,90.73958333333333
11425,5.0,,,,55.0,,,,,4,note_on,,112.0,55.0,112.0,34848,90.75
11426,5.0,,,,55.0,,,,,44,note_on,,0.0,55.0,0.0,34892,90.86458333333333
11427,5.0,,,,53.0,,,,,4,note_on,,112.0,53.0,112.0,34896,90.875
11428,5.0,,,,53.0,,,,,44,note_on,,0.0,53.0,0.0,34940,90.98958333333333
11429,5.0,,,,55.0,,,,,52,note_on,,112.0,55.0,112.0,34992,91.125
11430,5.0,,,,55.0,,,,,44,note_on,,0.0,55.0,0.0,35036,91.23958333333333
11431,5.0,,,,55.0,,,,,4,note_on,,112.0,55.0,112.0,35040,91.25
11432,5.0,,,,55.0,,,,,44,note_on,,0.0,55.0,0.0,35084,91.36458333333333
11433,5.0,,,,53.0,,,,,4,note_on,,112.0,53.0,112.0,35088,91.375
11434,5.0,,,,53.0,,,,,44,note_on,,0.0,53.0,0.0,35132,91.48958333333333
11435,5.0,,,,55.0,,,,,4,note_on,,112.0,55.0,112.0,35136,91.5
11436,5.0,,,,55.0,,,,,44,note_on,,0.0,55.0,0.0,35180,91.61458333333333
11437,5.0,,,,53.0,,,,,4,note_on,,112.0,53.0,112.0,35184,91.625
11438,5.0,,,,53.0,,,,,44,note_on,,0.0,53.0,0.0,35228,91.73958333333333
11439,5.0,,,,55.0,,,,,4,note_on,,112.0,55.0,112.0,35232,91.75
11440,5.0,,,,55.0,,,,,44,note_on,,0.0,55.0,0.0,35276,91.86458333333333
11441,5.0,,,,53.0,,,,,4,note_on,,112.0,53.0,112.0,35280,91.875
11442,5.0,,,,53.0,,,,,44,note_on,,0.0,53.0,0.0,35324,91.98958333333333
11443,5.0,,,,55.0,,,,,4,note_on,,112.0,55.0,112.0,35328,92.0
11444,5.0,,,,55.0,,,,,44,note_on,,0.0,55.0,0.0,35372,92.11458333333333
11445,5.0,,,,53.0,,,,,4,note_on,,112.0,53.0,112.0,35376,92.125
11446,5.0,,,,53.0,,,,,44,note_on,,0.0,53.0,0.0,35420,92.23958333333333
11447,5.0,,,,55.0,,,,,4,note_on,,112.0,55.0,112.0,35424,92.25
11448,5.0,,,,55.0,,,,,44,note_on,,0.0,55.0,0.0,35468,92.36458333333333
11449,5.0,,,,53.0,,,,,4,note_on,,112.0,53.0,112.0,35472,92.375
11450,5.0,,,,53.0,,,,,44,note_on,,0.0,53.0,0.0,35516,92.48958333333333
11451,5.0,,,,55.0,,,,,4,note_on,,112.0,55.0,112.0,35520,92.5
11452,5.0,,,,55.0,,,,,44,note_on,,0.0,55.0,0.0,35564,92.61458333333333
11453,5.0,,,,53.0,,,,,4,note_on,,112.0,53.0,112.0,35568,92.625
11454,5.0,,,,53.0,,,,,44,note_on,,0.0,53.0,0.0,35612,92.73958333333333
11455,5.0,,,,55.0,,,,,4,note_on,,112.0,55.0,112.0,35616,92.75
11456,5.0,,,,55.0,,,,,44,note_on,,0.0,55.0,0.0,35660,92.86458333333333
11457,5.0,,,,53.0,,,,,4,note_on,,112.0,53.0,112.0,35664,92.875
11458,5.0,,,,53.0,,,,,44,note_on,,0.0,53.0,0.0,35708,92.98958333333333
11459,5.0,,,,55.0,,,,,52,note_on,,112.0,55.0,112.0,35760,93.125
11460,5.0,,,,55.0,,,,,44,note_on,,0.0,55.0,0.0,35804,93.23958333333333
11461,5.0,,,,55.0,,,,,4,note_on,,112.0,55.0,112.0,35808,93.25
11462,5.0,,,,55.0,,,,,44,note_on,,0.0,55.0,0.0,35852,93.36458333333333
11463,5.0,,,,53.0,,,,,4,note_on,,112.0,53.0,112.0,35856,93.375
11464,5.0,,,,53.0,,,,,44,note_on,,0.0,53.0,0.0,35900,93.48958333333333
11465,5.0,,,,55.0,,,,,4,note_on,,112.0,55.0,112.0,35904,93.5
11466,5.0,,,,55.0,,,,,44,note_on,,0.0,55.0,0.0,35948,93.61458333333333
11467,5.0,,,,53.0,,,,,4,note_on,,112.0,53.0,112.0,35952,93.625
11468,5.0,,,,53.0,,,,,44,note_on,,0.0,53.0,0.0,35996,93.73958333333333
11469,5.0,,,,55.0,,,,,4,note_on,,112.0,55.0,112.0,36000,93.75
11470,5.0,,,,55.0,,,,,44,note_on,,0.0,55.0,0.0,36044,93.86458333333333
11471,5.0,,,,53.0,,,,,4,note_on,,112.0,53.0,112.0,36048,93.875
11472,5.0,,,,53.0,,,,,44,note_on,,0.0,53.0,0.0,36092,93.98958333333333
11473,5.0,,,,55.0,,,,,4,note_on,,112.0,55.0,112.0,36096,94.0
11474,5.0,,,,55.0,,,,,44,note_on,,0.0,55.0,0.0,36140,94.11458333333333
11475,5.0,,,,53.0,,,,,4,note_on,,112.0,53.0,112.0,36144,94.125
11476,5.0,,,,53.0,,,,,44,note_on,,0.0,53.0,0.0,36188,94.23958333333333
11477,5.0,,,,55.0,,,,,4,note_on,,112.0,55.0,112.0,36192,94.25
11478,5.0,,,,55.0,,,,,44,note_on,,0.0,55.0,0.0,36236,94.36458333333333
11479,5.0,,,,53.0,,,,,4,note_on,,112.0,53.0,112.0,36240,94.375
11480,5.0,,,,53.0,,,,,44,note_on,,0.0,53.0,0.0,36284,94.48958333333333
11481,5.0,,,,55.0,,,,,4,note_on,,112.0,55.0,112.0,36288,94.5
11482,5.0,,,,55.0,,,,,44,note_on,,0.0,55.0,0.0,36332,94.61458333333333
11483,5.0,,,,53.0,,,,,4,note_on,,112.0,53.0,112.0,36336,94.625
11484,5.0,,,,53.0,,,,,44,note_on,,0.0,53.0,0.0,36380,94.73958333333333
11485,5.0,,,,55.0,,,,,4,note_on,,112.0,55.0,112.0,36384,94.75
11486,5.0,,,,55.0,,,,,44,note_on,,0.0,55.0,0.0,36428,94.86458333333333
11487,5.0,,,,53.0,,,,,4,note_on,,112.0,53.0,112.0,36432,94.875
11488,5.0,,,,53.0,,,,,44,note_on,,0.0,53.0,0.0,36476,94.98958333333333
11489,5.0,,,,55.0,,,,,52,note_on,,112.0,55.0,112.0,36528,95.125
11490,5.0,,,,55.0,,,,,44,note_on,,0.0,55.0,0.0,36572,95.23958333333333
11491,5.0,,,,55.0,,,,,4,note_on,,112.0,55.0,112.0,36576,95.25
11492,5.0,,,,55.0,,,,,44,note_on,,0.0,55.0,0.0,36620,95.36458333333333
11493,5.0,,,,53.0,,,,,4,note_on,,112.0,53.0,112.0,36624,95.375
11494,5.0,,,,53.0,,,,,44,note_on,,0.0,53.0,0.0,36668,95.48958333333333
11495,5.0,,,,55.0,,,,,4,note_on,,112.0,55.0,112.0,36672,95.5
11496,5.0,,,,55.0,,,,,44,note_on,,0.0,55.0,0.0,36716,95.61458333333333
11497,5.0,,,,53.0,,,,,4,note_on,,112.0,53.0,112.0,36720,95.625
11498,5.0,,,,53.0,,,,,44,note_on,,0.0,53.0,0.0,36764,95.73958333333333
11499,5.0,,,,55.0,,,,,4,note_on,,112.0,55.0,112.0,36768,95.75
11500,5.0,,,,55.0,,,,,44,note_on,,0.0,55.0,0.0,36812,95.86458333333333
11501,5.0,,,,53.0,,,,,4,note_on,,112.0,53.0,112.0,36816,95.875
11502,5.0,,,,53.0,,,,,44,note_on,,0.0,53.0,0.0,36860,95.98958333333333
11503,5.0,,,,55.0,,,,,772,note_on,,112.0,55.0,112.0,37632,98.0
11504,5.0,,,,55.0,,,,,44,note_on,,0.0,55.0,0.0,37676,98.11458333333333
11505,5.0,,,,53.0,,,,,4,note_on,,112.0,53.0,112.0,37680,98.125
11506,5.0,,,,53.0,,,,,44,note_on,,0.0,53.0,0.0,37724,98.23958333333333
11507,5.0,,,,55.0,,,,,4,note_on,,112.0,55.0,112.0,37728,98.25
11508,5.0,,,,55.0,,,,,44,note_on,,0.0,55.0,0.0,37772,98.36458333333333
11509,5.0,,,,53.0,,,,,4,note_on,,112.0,53.0,112.0,37776,98.375
11510,5.0,,,,53.0,,,,,44,note_on,,0.0,53.0,0.0,37820,98.48958333333333
11511,5.0,,,,55.0,,,,,4,note_on,,112.0,55.0,112.0,37824,98.5
11512,5.0,,,,55.0,,,,,44,note_on,,0.0,55.0,0.0,37868,98.61458333333333
11513,5.0,,,,53.0,,,,,4,note_on,,112.0,53.0,112.0,37872,98.625
11514,5.0,,,,53.0,,,,,44,note_on,,0.0,53.0,0.0,37916,98.73958333333333
11515,5.0,,,,55.0,,,,,4,note_on,,112.0,55.0,112.0,37920,98.75
11516,5.0,,,,55.0,,,,,44,note_on,,0.0,55.0,0.0,37964,98.86458333333333
11517,5.0,,,,53.0,,,,,4,note_on,,112.0,53.0,112.0,37968,98.875
11518,5.0,,,,53.0,,,,,44,note_on,,0.0,53.0,0.0,38012,98.98958333333333
11519,5.0,,,,55.0,,,,,52,note_on,,112.0,55.0,112.0,38064,99.125
11520,5.0,,,,55.0,,,,,44,note_on,,0.0,55.0,0.0,38108,99.23958333333333
11521,5.0,,,,55.0,,,,,4,note_on,,112.0,55.0,112.0,38112,99.25
11522,5.0,,,,55.0,,,,,44,note_on,,0.0,55.0,0.0,38156,99.36458333333333
11523,5.0,,,,53.0,,,,,4,note_on,,112.0,53.0,112.0,38160,99.375
11524,5.0,,,,53.0,,,,,44,note_on,,0.0,53.0,0.0,38204,99.48958333333333
11525,5.0,,,,55.0,,,,,4,note_on,,112.0,55.0,112.0,38208,99.5
11526,5.0,,,,55.0,,,,,44,note_on,,0.0,55.0,0.0,38252,99.61458333333333
11527,5.0,,,,53.0,,,,,4,note_on,,112.0,53.0,112.0,38256,99.625
11528,5.0,,,,53.0,,,,,44,note_on,,0.0,53.0,0.0,38300,99.73958333333333
11529,5.0,,,,55.0,,,,,4,note_on,,112.0,55.0,112.0,38304,99.75
11530,5.0,,,,55.0,,,,,44,note_on,,0.0,55.0,0.0,38348,99.86458333333333
11531,5.0,,,,53.0,,,,,4,note_on,,112.0,53.0,112.0,38352,99.875
11532,5.0,,,,53.0,,,,,44,note_on,,0.0,53.0,0.0,38396,99.98958333333333
11533,5.0,,,,55.0,,,,,4,note_on,,112.0,55.0,112.0,38400,100.0
11534,5.0,,,,55.0,,,,,44,note_on,,0.0,55.0,0.0,38444,100.11458333333333
11535,5.0,,,,53.0,,,,,4,note_on,,112.0,53.0,112.0,38448,100.125
11536,5.0,,,,53.0,,,,,44,note_on,,0.0,53.0,0.0,38492,100.23958333333333
11537,5.0,,,,55.0,,,,,4,note_on,,112.0,55.0,112.0,38496,100.25
11538,5.0,,,,55.0,,,,,44,note_on,,0.0,55.0,0.0,38540,100.36458333333333
11539,5.0,,,,53.0,,,,,4,note_on,,112.0,53.0,112.0,38544,100.375
11540,5.0,,,,53.0,,,,,44,note_on,,0.0,53.0,0.0,38588,100.48958333333333
11541,5.0,,,,55.0,,,,,4,note_on,,112.0,55.0,112.0,38592,100.5
11542,5.0,,,,55.0,,,,,44,note_on,,0.0,55.0,0.0,38636,100.61458333333333
11543,5.0,,,,53.0,,,,,4,note_on,,112.0,53.0,112.0,38640,100.625
11544,5.0,,,,53.0,,,,,44,note_on,,0.0,53.0,0.0,38684,100.73958333333333
11545,5.0,,,,55.0,,,,,4,note_on,,112.0,55.0,112.0,38688,100.75
11546,5.0,,,,55.0,,,,,44,note_on,,0.0,55.0,0.0,38732,100.86458333333333
11547,5.0,,,,53.0,,,,,4,note_on,,112.0,53.0,112.0,38736,100.875
11548,5.0,,,,53.0,,,,,44,note_on,,0.0,53.0,0.0,38780,100.98958333333333
11549,5.0,,,,55.0,,,,,52,note_on,,112.0,55.0,112.0,38832,101.125
11550,5.0,,,,55.0,,,,,44,note_on,,0.0,55.0,0.0,38876,101.23958333333333
11551,5.0,,,,55.0,,,,,4,note_on,,112.0,55.0,112.0,38880,101.25
11552,5.0,,,,55.0,,,,,44,note_on,,0.0,55.0,0.0,38924,101.36458333333333
11553,5.0,,,,53.0,,,,,4,note_on,,112.0,53.0,112.0,38928,101.375
11554,5.0,,,,53.0,,,,,44,note_on,,0.0,53.0,0.0,38972,101.48958333333333
11555,5.0,,,,55.0,,,,,4,note_on,,112.0,55.0,112.0,38976,101.5
11556,5.0,,,,55.0,,,,,44,note_on,,0.0,55.0,0.0,39020,101.61458333333333
11557,5.0,,,,53.0,,,,,4,note_on,,112.0,53.0,112.0,39024,101.625
11558,5.0,,,,53.0,,,,,44,note_on,,0.0,53.0,0.0,39068,101.73958333333333
11559,5.0,,,,55.0,,,,,4,note_on,,112.0,55.0,112.0,39072,101.75
11560,5.0,,,,55.0,,,,,44,note_on,,0.0,55.0,0.0,39116,101.86458333333333
11561,5.0,,,,53.0,,,,,4,note_on,,112.0,53.0,112.0,39120,101.875
11562,5.0,,,,53.0,,,,,44,note_on,,0.0,53.0,0.0,39164,101.98958333333333
11563,5.0,,,,55.0,,,,,4,note_on,,112.0,55.0,112.0,39168,102.0
11564,5.0,,,,55.0,,,,,44,note_on,,0.0,55.0,0.0,39212,102.11458333333333
11565,5.0,,,,53.0,,,,,4,note_on,,112.0,53.0,112.0,39216,102.125
11566,5.0,,,,53.0,,,,,44,note_on,,0.0,53.0,0.0,39260,102.23958333333333
11567,5.0,,,,55.0,,,,,4,note_on,,112.0,55.0,112.0,39264,102.25
11568,5.0,,,,55.0,,,,,44,note_on,,0.0,55.0,0.0,39308,102.36458333333333
11569,5.0,,,,53.0,,,,,4,note_on,,112.0,53.0,112.0,39312,102.375
11570,5.0,,,,53.0,,,,,44,note_on,,0.0,53.0,0.0,39356,102.48958333333333
11571,5.0,,,,55.0,,,,,4,note_on,,112.0,55.0,112.0,39360,102.5
11572,5.0,,,,55.0,,,,,44,note_on,,0.0,55.0,0.0,39404,102.61458333333333
11573,5.0,,,,53.0,,,,,4,note_on,,112.0,53.0,112.0,39408,102.625
11574,5.0,,,,53.0,,,,,44,note_on,,0.0,53.0,0.0,39452,102.73958333333333
11575,5.0,,,,55.0,,,,,4,note_on,,112.0,55.0,112.0,39456,102.75
11576,5.0,,,,55.0,,,,,44,note_on,,0.0,55.0,0.0,39500,102.86458333333333
11577,5.0,,,,53.0,,,,,4,note_on,,112.0,53.0,112.0,39504,102.875
11578,5.0,,,,53.0,,,,,44,note_on,,0.0,53.0,0.0,39548,102.98958333333333
11579,5.0,,,,55.0,,,,,52,note_on,,112.0,55.0,112.0,39600,103.125
11580,5.0,,,,55.0,,,,,44,note_on,,0.0,55.0,0.0,39644,103.23958333333333
11581,5.0,,,,55.0,,,,,4,note_on,,112.0,55.0,112.0,39648,103.25
11582,5.0,,,,55.0,,,,,44,note_on,,0.0,55.0,0.0,39692,103.36458333333333
11583,5.0,,,,53.0,,,,,4,note_on,,112.0,53.0,112.0,39696,103.375
11584,5.0,,,,53.0,,,,,44,note_on,,0.0,53.0,0.0,39740,103.48958333333333
11585,5.0,,,,55.0,,,,,4,note_on,,112.0,55.0,112.0,39744,103.5
11586,5.0,,,,55.0,,,,,44,note_on,,0.0,55.0,0.0,39788,103.61458333333333
11587,5.0,,,,53.0,,,,,4,note_on,,112.0,53.0,112.0,39792,103.625
11588,5.0,,,,53.0,,,,,44,note_on,,0.0,53.0,0.0,39836,103.73958333333333
11589,5.0,,,,55.0,,,,,4,note_on,,112.0,55.0,112.0,39840,103.75
11590,5.0,,,,55.0,,,,,44,note_on,,0.0,55.0,0.0,39884,103.86458333333333
11591,5.0,,,,53.0,,,,,4,note_on,,112.0,53.0,112.0,39888,103.875
11592,5.0,,,,53.0,,,,,44,note_on,,0.0,53.0,0.0,39932,103.98958333333333
11593,5.0,,,,55.0,,,,,4,note_on,,112.0,55.0,112.0,39936,104.0
11594,5.0,,,,55.0,,,,,44,note_on,,0.0,55.0,0.0,39980,104.11458333333333
11595,5.0,,,,53.0,,,,,4,note_on,,112.0,53.0,112.0,39984,104.125
11596,5.0,,,,53.0,,,,,44,note_on,,0.0,53.0,0.0,40028,104.23958333333333
11597,5.0,,,,55.0,,,,,4,note_on,,112.0,55.0,112.0,40032,104.25
11598,5.0,,,,55.0,,,,,44,note_on,,0.0,55.0,0.0,40076,104.36458333333333
11599,5.0,,,,53.0,,,,,4,note_on,,112.0,53.0,112.0,40080,104.375
11600,5.0,,,,53.0,,,,,44,note_on,,0.0,53.0,0.0,40124,104.48958333333333
11601,5.0,,,,55.0,,,,,4,note_on,,112.0,55.0,112.0,40128,104.5
11602,5.0,,,,55.0,,,,,44,note_on,,0.0,55.0,0.0,40172,104.61458333333333
11603,5.0,,,,53.0,,,,,4,note_on,,112.0,53.0,112.0,40176,104.625
11604,5.0,,,,53.0,,,,,44,note_on,,0.0,53.0,0.0,40220,104.73958333333333
11605,5.0,,,,55.0,,,,,4,note_on,,112.0,55.0,112.0,40224,104.75
11606,5.0,,,,55.0,,,,,44,note_on,,0.0,55.0,0.0,40268,104.86458333333333
11607,5.0,,,,53.0,,,,,4,note_on,,112.0,53.0,112.0,40272,104.875
11608,5.0,,,,53.0,,,,,44,note_on,,0.0,53.0,0.0,40316,104.98958333333333
11609,5.0,,,,55.0,,,,,52,note_on,,112.0,55.0,112.0,40368,105.125
11610,5.0,,,,55.0,,,,,44,note_on,,0.0,55.0,0.0,40412,105.23958333333333
11611,5.0,,,,55.0,,,,,4,note_on,,112.0,55.0,112.0,40416,105.25
11612,5.0,,,,55.0,,,,,44,note_on,,0.0,55.0,0.0,40460,105.36458333333333
11613,5.0,,,,53.0,,,,,4,note_on,,112.0,53.0,112.0,40464,105.375
11614,5.0,,,,53.0,,,,,44,note_on,,0.0,53.0,0.0,40508,105.48958333333333
11615,5.0,,,,55.0,,,,,4,note_on,,112.0,55.0,112.0,40512,105.5
11616,5.0,,,,55.0,,,,,44,note_on,,0.0,55.0,0.0,40556,105.61458333333333
11617,5.0,,,,53.0,,,,,4,note_on,,112.0,53.0,112.0,40560,105.625
11618,5.0,,,,53.0,,,,,44,note_on,,0.0,53.0,0.0,40604,105.73958333333333
11619,5.0,,,,55.0,,,,,4,note_on,,112.0,55.0,112.0,40608,105.75
11620,5.0,,,,55.0,,,,,44,note_on,,0.0,55.0,0.0,40652,105.86458333333333
11621,5.0,,,,53.0,,,,,4,note_on,,112.0,53.0,112.0,40656,105.875
11622,5.0,,,,53.0,,,,,44,note_on,,0.0,53.0,0.0,40700,105.98958333333333
11623,5.0,,,,55.0,,,,,4,note_on,,112.0,55.0,112.0,40704,106.0
11624,5.0,,,,55.0,,,,,44,note_on,,0.0,55.0,0.0,40748,106.11458333333333
11625,5.0,,,,53.0,,,,,4,note_on,,112.0,53.0,112.0,40752,106.125
11626,5.0,,,,53.0,,,,,44,note_on,,0.0,53.0,0.0,40796,106.23958333333333
11627,5.0,,,,55.0,,,,,4,note_on,,112.0,55.0,112.0,40800,106.25
11628,5.0,,,,55.0,,,,,44,note_on,,0.0,55.0,0.0,40844,106.36458333333333
11629,5.0,,,,53.0,,,,,4,note_on,,112.0,53.0,112.0,40848,106.375
11630,5.0,,,,53.0,,,,,44,note_on,,0.0,53.0,0.0,40892,106.48958333333333
11631,5.0,,,,55.0,,,,,4,note_on,,112.0,55.0,112.0,40896,106.5
11632,5.0,,,,55.0,,,,,44,note_on,,0.0,55.0,0.0,40940,106.61458333333333
11633,5.0,,,,53.0,,,,,4,note_on,,112.0,53.0,112.0,40944,106.625
11634,5.0,,,,53.0,,,,,44,note_on,,0.0,53.0,0.0,40988,106.73958333333333
11635,5.0,,,,55.0,,,,,4,note_on,,112.0,55.0,112.0,40992,106.75
11636,5.0,,,,55.0,,,,,44,note_on,,0.0,55.0,0.0,41036,106.86458333333333
11637,5.0,,,,53.0,,,,,4,note_on,,112.0,53.0,112.0,41040,106.875
11638,5.0,,,,53.0,,,,,44,note_on,,0.0,53.0,0.0,41084,106.98958333333333
11639,5.0,,,,55.0,,,,,52,note_on,,112.0,55.0,112.0,41136,107.125
11640,5.0,,,,55.0,,,,,44,note_on,,0.0,55.0,0.0,41180,107.23958333333333
11641,5.0,,,,55.0,,,,,4,note_on,,112.0,55.0,112.0,41184,107.25
11642,5.0,,,,55.0,,,,,44,note_on,,0.0,55.0,0.0,41228,107.36458333333333
11643,5.0,,,,53.0,,,,,4,note_on,,112.0,53.0,112.0,41232,107.375
11644,5.0,,,,53.0,,,,,44,note_on,,0.0,53.0,0.0,41276,107.48958333333333
11645,5.0,,,,55.0,,,,,4,note_on,,112.0,55.0,112.0,41280,107.5
11646,5.0,,,,55.0,,,,,44,note_on,,0.0,55.0,0.0,41324,107.61458333333333
11647,5.0,,,,53.0,,,,,4,note_on,,112.0,53.0,112.0,41328,107.625
11648,5.0,,,,53.0,,,,,44,note_on,,0.0,53.0,0.0,41372,107.73958333333333
11649,5.0,,,,55.0,,,,,4,note_on,,112.0,55.0,112.0,41376,107.75
11650,5.0,,,,55.0,,,,,44,note_on,,0.0,55.0,0.0,41420,107.86458333333333
11651,5.0,,,,53.0,,,,,4,note_on,,112.0,53.0,112.0,41424,107.875
11652,5.0,,,,53.0,,,,,44,note_on,,0.0,53.0,0.0,41468,107.98958333333333
11653,5.0,,,,55.0,,,,,4,note_on,,112.0,55.0,112.0,41472,108.0
11654,5.0,,,,55.0,,,,,44,note_on,,0.0,55.0,0.0,41516,108.11458333333333
11655,5.0,,,,53.0,,,,,4,note_on,,112.0,53.0,112.0,41520,108.125
11656,5.0,,,,53.0,,,,,44,note_on,,0.0,53.0,0.0,41564,108.23958333333333
11657,5.0,,,,55.0,,,,,4,note_on,,112.0,55.0,112.0,41568,108.25
11658,5.0,,,,55.0,,,,,44,note_on,,0.0,55.0,0.0,41612,108.36458333333333
11659,5.0,,,,53.0,,,,,4,note_on,,112.0,53.0,112.0,41616,108.375
11660,5.0,,,,53.0,,,,,44,note_on,,0.0,53.0,0.0,41660,108.48958333333333
11661,5.0,,,,55.0,,,,,4,note_on,,112.0,55.0,112.0,41664,108.5
11662,5.0,,,,55.0,,,,,44,note_on,,0.0,55.0,0.0,41708,108.61458333333333
11663,5.0,,,,53.0,,,,,4,note_on,,112.0,53.0,112.0,41712,108.625
11664,5.0,,,,53.0,,,,,44,note_on,,0.0,53.0,0.0,41756,108.73958333333333
11665,5.0,,,,55.0,,,,,4,note_on,,112.0,55.0,112.0,41760,108.75
11666,5.0,,,,55.0,,,,,44,note_on,,0.0,55.0,0.0,41804,108.86458333333333
11667,5.0,,,,53.0,,,,,4,note_on,,112.0,53.0,112.0,41808,108.875
11668,5.0,,,,53.0,,,,,44,note_on,,0.0,53.0,0.0,41852,108.98958333333333
11669,5.0,,,,55.0,,,,,52,note_on,,112.0,55.0,112.0,41904,109.125
11670,5.0,,,,55.0,,,,,44,note_on,,0.0,55.0,0.0,41948,109.23958333333333
11671,5.0,,,,55.0,,,,,4,note_on,,112.0,55.0,112.0,41952,109.25
11672,5.0,,,,55.0,,,,,44,note_on,,0.0,55.0,0.0,41996,109.36458333333333
11673,5.0,,,,53.0,,,,,4,note_on,,112.0,53.0,112.0,42000,109.375
11674,5.0,,,,53.0,,,,,44,note_on,,0.0,53.0,0.0,42044,109.48958333333333
11675,5.0,,,,55.0,,,,,4,note_on,,112.0,55.0,112.0,42048,109.5
11676,5.0,,,,55.0,,,,,44,note_on,,0.0,55.0,0.0,42092,109.61458333333333
11677,5.0,,,,53.0,,,,,4,note_on,,112.0,53.0,112.0,42096,109.625
11678,5.0,,,,53.0,,,,,44,note_on,,0.0,53.0,0.0,42140,109.73958333333333
11679,5.0,,,,55.0,,,,,4,note_on,,112.0,55.0,112.0,42144,109.75
11680,5.0,,,,55.0,,,,,44,note_on,,0.0,55.0,0.0,42188,109.86458333333333
11681,5.0,,,,53.0,,,,,4,note_on,,112.0,53.0,112.0,42192,109.875
11682,5.0,,,,53.0,,,,,44,note_on,,0.0,53.0,0.0,42236,109.98958333333333
11683,5.0,,,,55.0,,,,,4,note_on,,112.0,55.0,112.0,42240,110.0
11684,5.0,,,,55.0,,,,,44,note_on,,0.0,55.0,0.0,42284,110.11458333333333
11685,5.0,,,,53.0,,,,,4,note_on,,112.0,53.0,112.0,42288,110.125
11686,5.0,,,,53.0,,,,,44,note_on,,0.0,53.0,0.0,42332,110.23958333333333
11687,5.0,,,,55.0,,,,,4,note_on,,112.0,55.0,112.0,42336,110.25
11688,5.0,,,,55.0,,,,,44,note_on,,0.0,55.0,0.0,42380,110.36458333333333
11689,5.0,,,,53.0,,,,,4,note_on,,112.0,53.0,112.0,42384,110.375
11690,5.0,,,,53.0,,,,,44,note_on,,0.0,53.0,0.0,42428,110.48958333333333
11691,5.0,,,,55.0,,,,,4,note_on,,112.0,55.0,112.0,42432,110.5
11692,5.0,,,,55.0,,,,,44,note_on,,0.0,55.0,0.0,42476,110.61458333333333
11693,5.0,,,,53.0,,,,,4,note_on,,112.0,53.0,112.0,42480,110.625
11694,5.0,,,,53.0,,,,,44,note_on,,0.0,53.0,0.0,42524,110.73958333333333
11695,5.0,,,,55.0,,,,,4,note_on,,112.0,55.0,112.0,42528,110.75
11696,5.0,,,,55.0,,,,,44,note_on,,0.0,55.0,0.0,42572,110.86458333333333
11697,5.0,,,,53.0,,,,,4,note_on,,112.0,53.0,112.0,42576,110.875
11698,5.0,,,,53.0,,,,,44,note_on,,0.0,53.0,0.0,42620,110.98958333333333
11699,5.0,,,,55.0,,,,,52,note_on,,112.0,55.0,112.0,42672,111.125
11700,5.0,,,,55.0,,,,,44,note_on,,0.0,55.0,0.0,42716,111.23958333333333
11701,5.0,,,,55.0,,,,,4,note_on,,112.0,55.0,112.0,42720,111.25
11702,5.0,,,,55.0,,,,,44,note_on,,0.0,55.0,0.0,42764,111.36458333333333
11703,5.0,,,,53.0,,,,,4,note_on,,112.0,53.0,112.0,42768,111.375
11704,5.0,,,,53.0,,,,,44,note_on,,0.0,53.0,0.0,42812,111.48958333333333
11705,5.0,,,,55.0,,,,,4,note_on,,112.0,55.0,112.0,42816,111.5
11706,5.0,,,,55.0,,,,,44,note_on,,0.0,55.0,0.0,42860,111.61458333333333
11707,5.0,,,,53.0,,,,,4,note_on,,112.0,53.0,112.0,42864,111.625
11708,5.0,,,,53.0,,,,,44,note_on,,0.0,53.0,0.0,42908,111.73958333333333
11709,5.0,,,,55.0,,,,,4,note_on,,112.0,55.0,112.0,42912,111.75
11710,5.0,,,,55.0,,,,,44,note_on,,0.0,55.0,0.0,42956,111.86458333333333
11711,5.0,,,,53.0,,,,,4,note_on,,112.0,53.0,112.0,42960,111.875
11712,5.0,,,,53.0,,,,,44,note_on,,0.0,53.0,0.0,43004,111.98958333333333
11713,5.0,,,,55.0,,,,,4,note_on,,112.0,55.0,112.0,43008,112.0
11714,5.0,,,,55.0,,,,,44,note_on,,0.0,55.0,0.0,43052,112.11458333333333
11715,5.0,,,,53.0,,,,,4,note_on,,112.0,53.0,112.0,43056,112.125
11716,5.0,,,,53.0,,,,,44,note_on,,0.0,53.0,0.0,43100,112.23958333333333
11717,5.0,,,,55.0,,,,,4,note_on,,112.0,55.0,112.0,43104,112.25
11718,5.0,,,,55.0,,,,,44,note_on,,0.0,55.0,0.0,43148,112.36458333333333
11719,5.0,,,,53.0,,,,,4,note_on,,112.0,53.0,112.0,43152,112.375
11720,5.0,,,,53.0,,,,,44,note_on,,0.0,53.0,0.0,43196,112.48958333333333
11721,5.0,,,,55.0,,,,,4,note_on,,112.0,55.0,112.0,43200,112.5
11722,5.0,,,,55.0,,,,,44,note_on,,0.0,55.0,0.0,43244,112.61458333333333
11723,5.0,,,,53.0,,,,,4,note_on,,112.0,53.0,112.0,43248,112.625
11724,5.0,,,,53.0,,,,,44,note_on,,0.0,53.0,0.0,43292,112.73958333333333
11725,5.0,,,,55.0,,,,,4,note_on,,112.0,55.0,112.0,43296,112.75
11726,5.0,,,,55.0,,,,,44,note_on,,0.0,55.0,0.0,43340,112.86458333333333
11727,5.0,,,,53.0,,,,,4,note_on,,112.0,53.0,112.0,43344,112.875
11728,5.0,,,,53.0,,,,,44,note_on,,0.0,53.0,0.0,43388,112.98958333333333
11729,5.0,,,,55.0,,,,,52,note_on,,112.0,55.0,112.0,43440,113.125
11730,5.0,,,,55.0,,,,,44,note_on,,0.0,55.0,0.0,43484,113.23958333333333
11731,5.0,,,,55.0,,,,,4,note_on,,112.0,55.0,112.0,43488,113.25
11732,5.0,,,,55.0,,,,,44,note_on,,0.0,55.0,0.0,43532,113.36458333333333
11733,5.0,,,,53.0,,,,,4,note_on,,112.0,53.0,112.0,43536,113.375
11734,5.0,,,,53.0,,,,,44,note_on,,0.0,53.0,0.0,43580,113.48958333333333
11735,5.0,,,,55.0,,,,,4,note_on,,112.0,55.0,112.0,43584,113.5
11736,5.0,,,,55.0,,,,,44,note_on,,0.0,55.0,0.0,43628,113.61458333333333
11737,5.0,,,,53.0,,,,,4,note_on,,112.0,53.0,112.0,43632,113.625
11738,5.0,,,,53.0,,,,,44,note_on,,0.0,53.0,0.0,43676,113.73958333333333
11739,5.0,,,,55.0,,,,,4,note_on,,112.0,55.0,112.0,43680,113.75
11740,5.0,,,,55.0,,,,,44,note_on,,0.0,55.0,0.0,43724,113.86458333333333
11741,5.0,,,,53.0,,,,,4,note_on,,112.0,53.0,112.0,43728,113.875
11742,5.0,,,,53.0,,,,,44,note_on,,0.0,53.0,0.0,43772,113.98958333333333
11743,5.0,,,,55.0,,,,,6148,note_on,,112.0,55.0,112.0,49920,130.0
11744,5.0,,,,55.0,,,,,44,note_on,,0.0,55.0,0.0,49964,130.11458333333331
11745,5.0,,,,53.0,,,,,4,note_on,,112.0,53.0,112.0,49968,130.125
11746,5.0,,,,53.0,,,,,44,note_on,,0.0,53.0,0.0,50012,130.23958333333331
11747,5.0,,,,55.0,,,,,4,note_on,,112.0,55.0,112.0,50016,130.25
11748,5.0,,,,55.0,,,,,44,note_on,,0.0,55.0,0.0,50060,130.36458333333331
11749,5.0,,,,53.0,,,,,4,note_on,,112.0,53.0,112.0,50064,130.375
11750,5.0,,,,53.0,,,,,44,note_on,,0.0,53.0,0.0,50108,130.48958333333331
11751,5.0,,,,55.0,,,,,4,note_on,,112.0,55.0,112.0,50112,130.5
11752,5.0,,,,55.0,,,,,44,note_on,,0.0,55.0,0.0,50156,130.61458333333331
11753,5.0,,,,53.0,,,,,4,note_on,,112.0,53.0,112.0,50160,130.625
11754,5.0,,,,53.0,,,,,44,note_on,,0.0,53.0,0.0,50204,130.73958333333331
11755,5.0,,,,55.0,,,,,4,note_on,,112.0,55.0,112.0,50208,130.75
11756,5.0,,,,55.0,,,,,44,note_on,,0.0,55.0,0.0,50252,130.86458333333331
11757,5.0,,,,53.0,,,,,4,note_on,,112.0,53.0,112.0,50256,130.875
11758,5.0,,,,53.0,,,,,44,note_on,,0.0,53.0,0.0,50300,130.98958333333331
11759,5.0,,,,55.0,,,,,52,note_on,,112.0,55.0,112.0,50352,131.125
11760,5.0,,,,55.0,,,,,44,note_on,,0.0,55.0,0.0,50396,131.23958333333331
11761,5.0,,,,55.0,,,,,4,note_on,,112.0,55.0,112.0,50400,131.25
11762,5.0,,,,55.0,,,,,44,note_on,,0.0,55.0,0.0,50444,131.36458333333331
11763,5.0,,,,53.0,,,,,4,note_on,,112.0,53.0,112.0,50448,131.375
11764,5.0,,,,53.0,,,,,44,note_on,,0.0,53.0,0.0,50492,131.48958333333331
11765,5.0,,,,55.0,,,,,4,note_on,,112.0,55.0,112.0,50496,131.5
11766,5.0,,,,55.0,,,,,44,note_on,,0.0,55.0,0.0,50540,131.61458333333331
11767,5.0,,,,53.0,,,,,4,note_on,,112.0,53.0,112.0,50544,131.625
11768,5.0,,,,53.0,,,,,44,note_on,,0.0,53.0,0.0,50588,131.73958333333331
11769,5.0,,,,55.0,,,,,4,note_on,,112.0,55.0,112.0,50592,131.75
11770,5.0,,,,55.0,,,,,44,note_on,,0.0,55.0,0.0,50636,131.86458333333331
11771,5.0,,,,53.0,,,,,4,note_on,,112.0,53.0,112.0,50640,131.875
11772,5.0,,,,53.0,,,,,44,note_on,,0.0,53.0,0.0,50684,131.98958333333331
11773,5.0,,,,55.0,,,,,4,note_on,,112.0,55.0,112.0,50688,132.0
11774,5.0,,,,55.0,,,,,44,note_on,,0.0,55.0,0.0,50732,132.11458333333331
11775,5.0,,,,53.0,,,,,4,note_on,,112.0,53.0,112.0,50736,132.125
11776,5.0,,,,53.0,,,,,44,note_on,,0.0,53.0,0.0,50780,132.23958333333331
11777,5.0,,,,55.0,,,,,4,note_on,,112.0,55.0,112.0,50784,132.25
11778,5.0,,,,55.0,,,,,44,note_on,,0.0,55.0,0.0,50828,132.36458333333331
11779,5.0,,,,53.0,,,,,4,note_on,,112.0,53.0,112.0,50832,132.375
11780,5.0,,,,53.0,,,,,44,note_on,,0.0,53.0,0.0,50876,132.48958333333331
11781,5.0,,,,55.0,,,,,4,note_on,,112.0,55.0,112.0,50880,132.5
11782,5.0,,,,55.0,,,,,44,note_on,,0.0,55.0,0.0,50924,132.61458333333331
11783,5.0,,,,53.0,,,,,4,note_on,,112.0,53.0,112.0,50928,132.625
11784,5.0,,,,53.0,,,,,44,note_on,,0.0,53.0,0.0,50972,132.73958333333331
11785,5.0,,,,55.0,,,,,4,note_on,,112.0,55.0,112.0,50976,132.75
11786,5.0,,,,55.0,,,,,44,note_on,,0.0,55.0,0.0,51020,132.86458333333331
11787,5.0,,,,53.0,,,,,4,note_on,,112.0,53.0,112.0,51024,132.875
11788,5.0,,,,53.0,,,,,44,note_on,,0.0,53.0,0.0,51068,132.98958333333331
11789,5.0,,,,55.0,,,,,52,note_on,,112.0,55.0,112.0,51120,133.125
11790,5.0,,,,55.0,,,,,44,note_on,,0.0,55.0,0.0,51164,133.23958333333331
11791,5.0,,,,55.0,,,,,4,note_on,,112.0,55.0,112.0,51168,133.25
11792,5.0,,,,55.0,,,,,44,note_on,,0.0,55.0,0.0,51212,133.36458333333331
11793,5.0,,,,53.0,,,,,4,note_on,,112.0,53.0,112.0,51216,133.375
11794,5.0,,,,53.0,,,,,44,note_on,,0.0,53.0,0.0,51260,133.48958333333331
11795,5.0,,,,55.0,,,,,4,note_on,,112.0,55.0,112.0,51264,133.5
11796,5.0,,,,55.0,,,,,44,note_on,,0.0,55.0,0.0,51308,133.61458333333331
11797,5.0,,,,53.0,,,,,4,note_on,,112.0,53.0,112.0,51312,133.625
11798,5.0,,,,53.0,,,,,44,note_on,,0.0,53.0,0.0,51356,133.73958333333331
11799,5.0,,,,55.0,,,,,4,note_on,,112.0,55.0,112.0,51360,133.75
11800,5.0,,,,55.0,,,,,44,note_on,,0.0,55.0,0.0,51404,133.86458333333331
11801,5.0,,,,53.0,,,,,4,note_on,,112.0,53.0,112.0,51408,133.875
11802,5.0,,,,53.0,,,,,44,note_on,,0.0,53.0,0.0,51452,133.98958333333331
11803,5.0,,,,55.0,,,,,4,note_on,,112.0,55.0,112.0,51456,134.0
11804,5.0,,,,55.0,,,,,44,note_on,,0.0,55.0,0.0,51500,134.11458333333331
11805,5.0,,,,53.0,,,,,4,note_on,,112.0,53.0,112.0,51504,134.125
11806,5.0,,,,53.0,,,,,44,note_on,,0.0,53.0,0.0,51548,134.23958333333331
11807,5.0,,,,55.0,,,,,4,note_on,,112.0,55.0,112.0,51552,134.25
11808,5.0,,,,55.0,,,,,44,note_on,,0.0,55.0,0.0,51596,134.36458333333331
11809,5.0,,,,53.0,,,,,4,note_on,,112.0,53.0,112.0,51600,134.375
11810,5.0,,,,53.0,,,,,44,note_on,,0.0,53.0,0.0,51644,134.48958333333331
11811,5.0,,,,55.0,,,,,4,note_on,,112.0,55.0,112.0,51648,134.5
11812,5.0,,,,55.0,,,,,44,note_on,,0.0,55.0,0.0,51692,134.61458333333331
11813,5.0,,,,53.0,,,,,4,note_on,,112.0,53.0,112.0,51696,134.625
11814,5.0,,,,53.0,,,,,44,note_on,,0.0,53.0,0.0,51740,134.73958333333331
11815,5.0,,,,55.0,,,,,4,note_on,,112.0,55.0,112.0,51744,134.75
11816,5.0,,,,55.0,,,,,44,note_on,,0.0,55.0,0.0,51788,134.86458333333331
11817,5.0,,,,53.0,,,,,4,note_on,,112.0,53.0,112.0,51792,134.875
11818,5.0,,,,53.0,,,,,44,note_on,,0.0,53.0,0.0,51836,134.98958333333331
11819,5.0,,,,55.0,,,,,52,note_on,,112.0,55.0,112.0,51888,135.125
11820,5.0,,,,55.0,,,,,44,note_on,,0.0,55.0,0.0,51932,135.23958333333331
11821,5.0,,,,55.0,,,,,4,note_on,,112.0,55.0,112.0,51936,135.25
11822,5.0,,,,55.0,,,,,44,note_on,,0.0,55.0,0.0,51980,135.36458333333331
11823,5.0,,,,53.0,,,,,4,note_on,,112.0,53.0,112.0,51984,135.375
11824,5.0,,,,53.0,,,,,44,note_on,,0.0,53.0,0.0,52028,135.48958333333331
11825,5.0,,,,55.0,,,,,4,note_on,,112.0,55.0,112.0,52032,135.5
11826,5.0,,,,55.0,,,,,44,note_on,,0.0,55.0,0.0,52076,135.61458333333331
11827,5.0,,,,53.0,,,,,4,note_on,,112.0,53.0,112.0,52080,135.625
11828,5.0,,,,53.0,,,,,44,note_on,,0.0,53.0,0.0,52124,135.73958333333331
11829,5.0,,,,55.0,,,,,4,note_on,,112.0,55.0,112.0,52128,135.75
11830,5.0,,,,55.0,,,,,44,note_on,,0.0,55.0,0.0,52172,135.86458333333331
11831,5.0,,,,53.0,,,,,4,note_on,,112.0,53.0,112.0,52176,135.875
11832,5.0,,,,53.0,,,,,44,note_on,,0.0,53.0,0.0,52220,135.98958333333331
11833,5.0,,,,55.0,,,,,4,note_on,,112.0,55.0,112.0,52224,136.0
11834,5.0,,,,55.0,,,,,44,note_on,,0.0,55.0,0.0,52268,136.11458333333331
11835,5.0,,,,53.0,,,,,4,note_on,,112.0,53.0,112.0,52272,136.125
11836,5.0,,,,53.0,,,,,44,note_on,,0.0,53.0,0.0,52316,136.23958333333331
11837,5.0,,,,55.0,,,,,4,note_on,,112.0,55.0,112.0,52320,136.25
11838,5.0,,,,55.0,,,,,44,note_on,,0.0,55.0,0.0,52364,136.36458333333331
11839,5.0,,,,53.0,,,,,4,note_on,,112.0,53.0,112.0,52368,136.375
11840,5.0,,,,53.0,,,,,44,note_on,,0.0,53.0,0.0,52412,136.48958333333331
11841,5.0,,,,55.0,,,,,4,note_on,,112.0,55.0,112.0,52416,136.5
11842,5.0,,,,55.0,,,,,44,note_on,,0.0,55.0,0.0,52460,136.61458333333331
11843,5.0,,,,53.0,,,,,4,note_on,,112.0,53.0,112.0,52464,136.625
11844,5.0,,,,53.0,,,,,44,note_on,,0.0,53.0,0.0,52508,136.73958333333331
11845,5.0,,,,55.0,,,,,4,note_on,,112.0,55.0,112.0,52512,136.75
11846,5.0,,,,55.0,,,,,44,note_on,,0.0,55.0,0.0,52556,136.86458333333331
11847,5.0,,,,53.0,,,,,4,note_on,,112.0,53.0,112.0,52560,136.875
11848,5.0,,,,53.0,,,,,44,note_on,,0.0,53.0,0.0,52604,136.98958333333331
11849,5.0,,,,55.0,,,,,52,note_on,,112.0,55.0,112.0,52656,137.125
11850,5.0,,,,55.0,,,,,44,note_on,,0.0,55.0,0.0,52700,137.23958333333331
11851,5.0,,,,55.0,,,,,4,note_on,,112.0,55.0,112.0,52704,137.25
11852,5.0,,,,55.0,,,,,44,note_on,,0.0,55.0,0.0,52748,137.36458333333331
11853,5.0,,,,53.0,,,,,4,note_on,,112.0,53.0,112.0,52752,137.375
11854,5.0,,,,53.0,,,,,44,note_on,,0.0,53.0,0.0,52796,137.48958333333331
11855,5.0,,,,55.0,,,,,4,note_on,,112.0,55.0,112.0,52800,137.5
11856,5.0,,,,55.0,,,,,44,note_on,,0.0,55.0,0.0,52844,137.61458333333331
11857,5.0,,,,53.0,,,,,4,note_on,,112.0,53.0,112.0,52848,137.625
11858,5.0,,,,53.0,,,,,44,note_on,,0.0,53.0,0.0,52892,137.73958333333331
11859,5.0,,,,55.0,,,,,4,note_on,,112.0,55.0,112.0,52896,137.75
11860,5.0,,,,55.0,,,,,44,note_on,,0.0,55.0,0.0,52940,137.86458333333331
11861,5.0,,,,53.0,,,,,4,note_on,,112.0,53.0,112.0,52944,137.875
11862,5.0,,,,53.0,,,,,44,note_on,,0.0,53.0,0.0,52988,137.98958333333331
11863,5.0,,,,55.0,,,,,4,note_on,,112.0,55.0,112.0,52992,138.0
11864,5.0,,,,55.0,,,,,44,note_on,,0.0,55.0,0.0,53036,138.11458333333331
11865,5.0,,,,53.0,,,,,4,note_on,,112.0,53.0,112.0,53040,138.125
11866,5.0,,,,53.0,,,,,44,note_on,,0.0,53.0,0.0,53084,138.23958333333331
11867,5.0,,,,55.0,,,,,4,note_on,,112.0,55.0,112.0,53088,138.25
11868,5.0,,,,55.0,,,,,44,note_on,,0.0,55.0,0.0,53132,138.36458333333331
11869,5.0,,,,53.0,,,,,4,note_on,,112.0,53.0,112.0,53136,138.375
11870,5.0,,,,53.0,,,,,44,note_on,,0.0,53.0,0.0,53180,138.48958333333331
11871,5.0,,,,55.0,,,,,4,note_on,,112.0,55.0,112.0,53184,138.5
11872,5.0,,,,55.0,,,,,44,note_on,,0.0,55.0,0.0,53228,138.61458333333331
11873,5.0,,,,53.0,,,,,4,note_on,,112.0,53.0,112.0,53232,138.625
11874,5.0,,,,53.0,,,,,44,note_on,,0.0,53.0,0.0,53276,138.73958333333331
11875,5.0,,,,55.0,,,,,4,note_on,,112.0,55.0,112.0,53280,138.75
11876,5.0,,,,55.0,,,,,44,note_on,,0.0,55.0,0.0,53324,138.86458333333331
11877,5.0,,,,53.0,,,,,4,note_on,,112.0,53.0,112.0,53328,138.875
11878,5.0,,,,53.0,,,,,44,note_on,,0.0,53.0,0.0,53372,138.98958333333331
11879,5.0,,,,55.0,,,,,52,note_on,,112.0,55.0,112.0,53424,139.125
11880,5.0,,,,55.0,,,,,44,note_on,,0.0,55.0,0.0,53468,139.23958333333331
11881,5.0,,,,55.0,,,,,4,note_on,,112.0,55.0,112.0,53472,139.25
11882,5.0,,,,55.0,,,,,44,note_on,,0.0,55.0,0.0,53516,139.36458333333331
11883,5.0,,,,53.0,,,,,4,note_on,,112.0,53.0,112.0,53520,139.375
11884,5.0,,,,53.0,,,,,44,note_on,,0.0,53.0,0.0,53564,139.48958333333331
11885,5.0,,,,55.0,,,,,4,note_on,,112.0,55.0,112.0,53568,139.5
11886,5.0,,,,55.0,,,,,44,note_on,,0.0,55.0,0.0,53612,139.61458333333331
11887,5.0,,,,53.0,,,,,4,note_on,,112.0,53.0,112.0,53616,139.625
11888,5.0,,,,53.0,,,,,44,note_on,,0.0,53.0,0.0,53660,139.73958333333331
11889,5.0,,,,55.0,,,,,4,note_on,,112.0,55.0,112.0,53664,139.75
11890,5.0,,,,55.0,,,,,44,note_on,,0.0,55.0,0.0,53708,139.86458333333331
11891,5.0,,,,53.0,,,,,4,note_on,,112.0,53.0,112.0,53712,139.875
11892,5.0,,,,53.0,,,,,44,note_on,,0.0,53.0,0.0,53756,139.98958333333331
11893,5.0,,,,55.0,,,,,4,note_on,,112.0,55.0,112.0,53760,140.0
11894,5.0,,,,55.0,,,,,44,note_on,,0.0,55.0,0.0,53804,140.11458333333331
11895,5.0,,,,53.0,,,,,4,note_on,,112.0,53.0,112.0,53808,140.125
11896,5.0,,,,53.0,,,,,44,note_on,,0.0,53.0,0.0,53852,140.23958333333331
11897,5.0,,,,55.0,,,,,4,note_on,,112.0,55.0,112.0,53856,140.25
11898,5.0,,,,55.0,,,,,44,note_on,,0.0,55.0,0.0,53900,140.36458333333331
11899,5.0,,,,53.0,,,,,4,note_on,,112.0,53.0,112.0,53904,140.375
11900,5.0,,,,53.0,,,,,44,note_on,,0.0,53.0,0.0,53948,140.48958333333331
11901,5.0,,,,55.0,,,,,4,note_on,,112.0,55.0,112.0,53952,140.5
11902,5.0,,,,55.0,,,,,44,note_on,,0.0,55.0,0.0,53996,140.61458333333331
11903,5.0,,,,53.0,,,,,4,note_on,,112.0,53.0,112.0,54000,140.625
11904,5.0,,,,53.0,,,,,44,note_on,,0.0,53.0,0.0,54044,140.73958333333331
11905,5.0,,,,55.0,,,,,4,note_on,,112.0,55.0,112.0,54048,140.75
11906,5.0,,,,55.0,,,,,44,note_on,,0.0,55.0,0.0,54092,140.86458333333331
11907,5.0,,,,53.0,,,,,4,note_on,,112.0,53.0,112.0,54096,140.875
11908,5.0,,,,53.0,,,,,44,note_on,,0.0,53.0,0.0,54140,140.98958333333331
11909,5.0,,,,55.0,,,,,52,note_on,,112.0,55.0,112.0,54192,141.125
11910,5.0,,,,55.0,,,,,44,note_on,,0.0,55.0,0.0,54236,141.23958333333331
11911,5.0,,,,55.0,,,,,4,note_on,,112.0,55.0,112.0,54240,141.25
11912,5.0,,,,55.0,,,,,44,note_on,,0.0,55.0,0.0,54284,141.36458333333331
11913,5.0,,,,53.0,,,,,4,note_on,,112.0,53.0,112.0,54288,141.375
11914,5.0,,,,53.0,,,,,44,note_on,,0.0,53.0,0.0,54332,141.48958333333331
11915,5.0,,,,55.0,,,,,4,note_on,,112.0,55.0,112.0,54336,141.5
11916,5.0,,,,55.0,,,,,44,note_on,,0.0,55.0,0.0,54380,141.61458333333331
11917,5.0,,,,53.0,,,,,4,note_on,,112.0,53.0,112.0,54384,141.625
11918,5.0,,,,53.0,,,,,44,note_on,,0.0,53.0,0.0,54428,141.73958333333331
11919,5.0,,,,55.0,,,,,4,note_on,,112.0,55.0,112.0,54432,141.75
11920,5.0,,,,55.0,,,,,44,note_on,,0.0,55.0,0.0,54476,141.86458333333331
11921,5.0,,,,53.0,,,,,4,note_on,,112.0,53.0,112.0,54480,141.875
11922,5.0,,,,53.0,,,,,44,note_on,,0.0,53.0,0.0,54524,141.98958333333331
11923,5.0,,,,55.0,,,,,4,note_on,,112.0,55.0,112.0,54528,142.0
11924,5.0,,,,55.0,,,,,44,note_on,,0.0,55.0,0.0,54572,142.11458333333331
11925,5.0,,,,53.0,,,,,4,note_on,,112.0,53.0,112.0,54576,142.125
11926,5.0,,,,53.0,,,,,44,note_on,,0.0,53.0,0.0,54620,142.23958333333331
11927,5.0,,,,55.0,,,,,4,note_on,,112.0,55.0,112.0,54624,142.25
11928,5.0,,,,55.0,,,,,44,note_on,,0.0,55.0,0.0,54668,142.36458333333331
11929,5.0,,,,53.0,,,,,4,note_on,,112.0,53.0,112.0,54672,142.375
11930,5.0,,,,53.0,,,,,44,note_on,,0.0,53.0,0.0,54716,142.48958333333331
11931,5.0,,,,55.0,,,,,4,note_on,,112.0,55.0,112.0,54720,142.5
11932,5.0,,,,55.0,,,,,44,note_on,,0.0,55.0,0.0,54764,142.61458333333331
11933,5.0,,,,53.0,,,,,4,note_on,,112.0,53.0,112.0,54768,142.625
11934,5.0,,,,53.0,,,,,44,note_on,,0.0,53.0,0.0,54812,142.73958333333331
11935,5.0,,,,55.0,,,,,4,note_on,,112.0,55.0,112.0,54816,142.75
11936,5.0,,,,55.0,,,,,44,note_on,,0.0,55.0,0.0,54860,142.86458333333331
11937,5.0,,,,53.0,,,,,4,note_on,,112.0,53.0,112.0,54864,142.875
11938,5.0,,,,53.0,,,,,44,note_on,,0.0,53.0,0.0,54908,142.98958333333331
11939,5.0,,,,55.0,,,,,52,note_on,,112.0,55.0,112.0,54960,143.125
11940,5.0,,,,55.0,,,,,44,note_on,,0.0,55.0,0.0,55004,143.23958333333331
11941,5.0,,,,55.0,,,,,4,note_on,,112.0,55.0,112.0,55008,143.25
11942,5.0,,,,55.0,,,,,44,note_on,,0.0,55.0,0.0,55052,143.36458333333331
11943,5.0,,,,53.0,,,,,4,note_on,,112.0,53.0,112.0,55056,143.375
11944,5.0,,,,53.0,,,,,44,note_on,,0.0,53.0,0.0,55100,143.48958333333331
11945,5.0,,,,55.0,,,,,4,note_on,,112.0,55.0,112.0,55104,143.5
11946,5.0,,,,55.0,,,,,44,note_on,,0.0,55.0,0.0,55148,143.61458333333331
11947,5.0,,,,53.0,,,,,4,note_on,,112.0,53.0,112.0,55152,143.625
11948,5.0,,,,53.0,,,,,44,note_on,,0.0,53.0,0.0,55196,143.73958333333331
11949,5.0,,,,55.0,,,,,4,note_on,,112.0,55.0,112.0,55200,143.75
11950,5.0,,,,55.0,,,,,44,note_on,,0.0,55.0,0.0,55244,143.86458333333331
11951,5.0,,,,53.0,,,,,4,note_on,,112.0,53.0,112.0,55248,143.875
11952,5.0,,,,53.0,,,,,44,note_on,,0.0,53.0,0.0,55292,143.98958333333331
11953,5.0,,,,55.0,,,,,4,note_on,,112.0,55.0,112.0,55296,144.0
11954,5.0,,,,55.0,,,,,44,note_on,,0.0,55.0,0.0,55340,144.11458333333331
11955,5.0,,,,53.0,,,,,4,note_on,,112.0,53.0,112.0,55344,144.125
11956,5.0,,,,53.0,,,,,44,note_on,,0.0,53.0,0.0,55388,144.23958333333331
11957,5.0,,,,55.0,,,,,4,note_on,,112.0,55.0,112.0,55392,144.25
11958,5.0,,,,55.0,,,,,44,note_on,,0.0,55.0,0.0,55436,144.36458333333331
11959,5.0,,,,53.0,,,,,4,note_on,,112.0,53.0,112.0,55440,144.375
11960,5.0,,,,53.0,,,,,44,note_on,,0.0,53.0,0.0,55484,144.48958333333331
11961,5.0,,,,55.0,,,,,4,note_on,,112.0,55.0,112.0,55488,144.5
11962,5.0,,,,55.0,,,,,44,note_on,,0.0,55.0,0.0,55532,144.61458333333331
11963,5.0,,,,53.0,,,,,4,note_on,,112.0,53.0,112.0,55536,144.625
11964,5.0,,,,53.0,,,,,44,note_on,,0.0,53.0,0.0,55580,144.73958333333331
11965,5.0,,,,55.0,,,,,4,note_on,,112.0,55.0,112.0,55584,144.75
11966,5.0,,,,55.0,,,,,44,note_on,,0.0,55.0,0.0,55628,144.86458333333331
11967,5.0,,,,53.0,,,,,4,note_on,,112.0,53.0,112.0,55632,144.875
11968,5.0,,,,53.0,,,,,44,note_on,,0.0,53.0,0.0,55676,144.98958333333331
11969,5.0,,,,55.0,,,,,52,note_on,,112.0,55.0,112.0,55728,145.125
11970,5.0,,,,55.0,,,,,44,note_on,,0.0,55.0,0.0,55772,145.23958333333331
11971,5.0,,,,55.0,,,,,4,note_on,,112.0,55.0,112.0,55776,145.25
11972,5.0,,,,55.0,,,,,44,note_on,,0.0,55.0,0.0,55820,145.36458333333331
11973,5.0,,,,53.0,,,,,4,note_on,,112.0,53.0,112.0,55824,145.375
11974,5.0,,,,53.0,,,,,44,note_on,,0.0,53.0,0.0,55868,145.48958333333331
11975,5.0,,,,55.0,,,,,4,note_on,,112.0,55.0,112.0,55872,145.5
11976,5.0,,,,55.0,,,,,44,note_on,,0.0,55.0,0.0,55916,145.61458333333331
11977,5.0,,,,53.0,,,,,4,note_on,,112.0,53.0,112.0,55920,145.625
11978,5.0,,,,53.0,,,,,44,note_on,,0.0,53.0,0.0,55964,145.73958333333331
11979,5.0,,,,55.0,,,,,4,note_on,,112.0,55.0,112.0,55968,145.75
11980,5.0,,,,55.0,,,,,44,note_on,,0.0,55.0,0.0,56012,145.86458333333331
11981,5.0,,,,53.0,,,,,4,note_on,,112.0,53.0,112.0,56016,145.875
11982,5.0,,,,53.0,,,,,44,note_on,,0.0,53.0,0.0,56060,145.98958333333331
11983,5.0,,,,55.0,,,,,4,note_on,,112.0,55.0,112.0,56064,146.0
11984,5.0,,,,55.0,,,,,44,note_on,,0.0,55.0,0.0,56108,146.11458333333331
11985,5.0,,,,53.0,,,,,4,note_on,,112.0,53.0,112.0,56112,146.125
11986,5.0,,,,53.0,,,,,44,note_on,,0.0,53.0,0.0,56156,146.23958333333331
11987,5.0,,,,55.0,,,,,4,note_on,,112.0,55.0,112.0,56160,146.25
11988,5.0,,,,55.0,,,,,44,note_on,,0.0,55.0,0.0,56204,146.36458333333331
11989,5.0,,,,53.0,,,,,4,note_on,,112.0,53.0,112.0,56208,146.375
11990,5.0,,,,53.0,,,,,44,note_on,,0.0,53.0,0.0,56252,146.48958333333331
11991,5.0,,,,55.0,,,,,4,note_on,,112.0,55.0,112.0,56256,146.5
11992,5.0,,,,55.0,,,,,44,note_on,,0.0,55.0,0.0,56300,146.61458333333331
11993,5.0,,,,53.0,,,,,4,note_on,,112.0,53.0,112.0,56304,146.625
11994,5.0,,,,53.0,,,,,44,note_on,,0.0,53.0,0.0,56348,146.73958333333331
11995,5.0,,,,55.0,,,,,4,note_on,,112.0,55.0,112.0,56352,146.75
11996,5.0,,,,55.0,,,,,44,note_on,,0.0,55.0,0.0,56396,146.86458333333331
11997,5.0,,,,53.0,,,,,4,note_on,,112.0,53.0,112.0,56400,146.875
11998,5.0,,,,53.0,,,,,44,note_on,,0.0,53.0,0.0,56444,146.98958333333331
11999,5.0,,,,55.0,,,,,52,note_on,,112.0,55.0,112.0,56496,147.125
12000,5.0,,,,55.0,,,,,44,note_on,,0.0,55.0,0.0,56540,147.23958333333331
12001,5.0,,,,55.0,,,,,4,note_on,,112.0,55.0,112.0,56544,147.25
12002,5.0,,,,55.0,,,,,44,note_on,,0.0,55.0,0.0,56588,147.36458333333331
12003,5.0,,,,53.0,,,,,4,note_on,,112.0,53.0,112.0,56592,147.375
12004,5.0,,,,53.0,,,,,44,note_on,,0.0,53.0,0.0,56636,147.48958333333331
12005,5.0,,,,55.0,,,,,4,note_on,,112.0,55.0,112.0,56640,147.5
12006,5.0,,,,55.0,,,,,44,note_on,,0.0,55.0,0.0,56684,147.61458333333331
12007,5.0,,,,53.0,,,,,4,note_on,,112.0,53.0,112.0,56688,147.625
12008,5.0,,,,53.0,,,,,44,note_on,,0.0,53.0,0.0,56732,147.73958333333331
12009,5.0,,,,55.0,,,,,4,note_on,,112.0,55.0,112.0,56736,147.75
12010,5.0,,,,55.0,,,,,44,note_on,,0.0,55.0,0.0,56780,147.86458333333331
12011,5.0,,,,53.0,,,,,4,note_on,,112.0,53.0,112.0,56784,147.875
12012,5.0,,,,53.0,,,,,44,note_on,,0.0,53.0,0.0,56828,147.98958333333331
12013,5.0,,,,55.0,,,,,4,note_on,,112.0,55.0,112.0,56832,148.0
12014,5.0,,,,55.0,,,,,44,note_on,,0.0,55.0,0.0,56876,148.11458333333331
12015,5.0,,,,53.0,,,,,4,note_on,,112.0,53.0,112.0,56880,148.125
12016,5.0,,,,53.0,,,,,44,note_on,,0.0,53.0,0.0,56924,148.23958333333331
12017,5.0,,,,55.0,,,,,4,note_on,,112.0,55.0,112.0,56928,148.25
12018,5.0,,,,55.0,,,,,44,note_on,,0.0,55.0,0.0,56972,148.36458333333331
12019,5.0,,,,53.0,,,,,4,note_on,,112.0,53.0,112.0,56976,148.375
12020,5.0,,,,53.0,,,,,44,note_on,,0.0,53.0,0.0,57020,148.48958333333331
12021,5.0,,,,55.0,,,,,4,note_on,,112.0,55.0,112.0,57024,148.5
12022,5.0,,,,55.0,,,,,44,note_on,,0.0,55.0,0.0,57068,148.61458333333331
12023,5.0,,,,53.0,,,,,4,note_on,,112.0,53.0,112.0,57072,148.625
12024,5.0,,,,53.0,,,,,44,note_on,,0.0,53.0,0.0,57116,148.73958333333331
12025,5.0,,,,55.0,,,,,4,note_on,,112.0,55.0,112.0,57120,148.75
12026,5.0,,,,55.0,,,,,44,note_on,,0.0,55.0,0.0,57164,148.86458333333331
12027,5.0,,,,53.0,,,,,4,note_on,,112.0,53.0,112.0,57168,148.875
12028,5.0,,,,53.0,,,,,44,note_on,,0.0,53.0,0.0,57212,148.98958333333331
12029,5.0,,,,55.0,,,,,52,note_on,,112.0,55.0,112.0,57264,149.125
12030,5.0,,,,55.0,,,,,44,note_on,,0.0,55.0,0.0,57308,149.23958333333331
12031,5.0,,,,55.0,,,,,4,note_on,,112.0,55.0,112.0,57312,149.25
12032,5.0,,,,55.0,,,,,44,note_on,,0.0,55.0,0.0,57356,149.36458333333331
12033,5.0,,,,53.0,,,,,4,note_on,,112.0,53.0,112.0,57360,149.375
12034,5.0,,,,53.0,,,,,44,note_on,,0.0,53.0,0.0,57404,149.48958333333331
12035,5.0,,,,55.0,,,,,4,note_on,,112.0,55.0,112.0,57408,149.5
12036,5.0,,,,55.0,,,,,44,note_on,,0.0,55.0,0.0,57452,149.61458333333331
12037,5.0,,,,53.0,,,,,4,note_on,,112.0,53.0,112.0,57456,149.625
12038,5.0,,,,53.0,,,,,44,note_on,,0.0,53.0,0.0,57500,149.73958333333331
12039,5.0,,,,55.0,,,,,4,note_on,,112.0,55.0,112.0,57504,149.75
12040,5.0,,,,55.0,,,,,44,note_on,,0.0,55.0,0.0,57548,149.86458333333331
12041,5.0,,,,53.0,,,,,4,note_on,,112.0,53.0,112.0,57552,149.875
12042,5.0,,,,53.0,,,,,44,note_on,,0.0,53.0,0.0,57596,149.98958333333331
12043,5.0,,,,55.0,,,,,4,note_on,,112.0,55.0,112.0,57600,150.0
12044,5.0,,,,55.0,,,,,44,note_on,,0.0,55.0,0.0,57644,150.11458333333331
12045,5.0,,,,53.0,,,,,4,note_on,,112.0,53.0,112.0,57648,150.125
12046,5.0,,,,53.0,,,,,44,note_on,,0.0,53.0,0.0,57692,150.23958333333331
12047,5.0,,,,55.0,,,,,4,note_on,,112.0,55.0,112.0,57696,150.25
12048,5.0,,,,55.0,,,,,44,note_on,,0.0,55.0,0.0,57740,150.36458333333331
12049,5.0,,,,53.0,,,,,4,note_on,,112.0,53.0,112.0,57744,150.375
12050,5.0,,,,53.0,,,,,44,note_on,,0.0,53.0,0.0,57788,150.48958333333331
12051,5.0,,,,55.0,,,,,4,note_on,,112.0,55.0,112.0,57792,150.5
12052,5.0,,,,55.0,,,,,44,note_on,,0.0,55.0,0.0,57836,150.61458333333331
12053,5.0,,,,53.0,,,,,4,note_on,,112.0,53.0,112.0,57840,150.625
12054,5.0,,,,53.0,,,,,44,note_on,,0.0,53.0,0.0,57884,150.73958333333331
12055,5.0,,,,55.0,,,,,4,note_on,,112.0,55.0,112.0,57888,150.75
12056,5.0,,,,55.0,,,,,44,note_on,,0.0,55.0,0.0,57932,150.86458333333331
12057,5.0,,,,53.0,,,,,4,note_on,,112.0,53.0,112.0,57936,150.875
12058,5.0,,,,53.0,,,,,44,note_on,,0.0,53.0,0.0,57980,150.98958333333331
12059,5.0,,,,55.0,,,,,52,note_on,,112.0,55.0,112.0,58032,151.125
12060,5.0,,,,55.0,,,,,44,note_on,,0.0,55.0,0.0,58076,151.23958333333331
12061,5.0,,,,55.0,,,,,4,note_on,,112.0,55.0,112.0,58080,151.25
12062,5.0,,,,55.0,,,,,44,note_on,,0.0,55.0,0.0,58124,151.36458333333331
12063,5.0,,,,53.0,,,,,4,note_on,,112.0,53.0,112.0,58128,151.375
12064,5.0,,,,53.0,,,,,44,note_on,,0.0,53.0,0.0,58172,151.48958333333331
12065,5.0,,,,55.0,,,,,4,note_on,,112.0,55.0,112.0,58176,151.5
12066,5.0,,,,55.0,,,,,44,note_on,,0.0,55.0,0.0,58220,151.61458333333331
12067,5.0,,,,53.0,,,,,4,note_on,,112.0,53.0,112.0,58224,151.625
12068,5.0,,,,53.0,,,,,44,note_on,,0.0,53.0,0.0,58268,151.73958333333331
12069,5.0,,,,55.0,,,,,4,note_on,,112.0,55.0,112.0,58272,151.75
12070,5.0,,,,55.0,,,,,44,note_on,,0.0,55.0,0.0,58316,151.86458333333331
12071,5.0,,,,53.0,,,,,4,note_on,,112.0,53.0,112.0,58320,151.875
12072,5.0,,,,53.0,,,,,44,note_on,,0.0,53.0,0.0,58364,151.98958333333331
12073,5.0,,,,55.0,,,,,4,note_on,,112.0,55.0,112.0,58368,152.0
12074,5.0,,,,55.0,,,,,44,note_on,,0.0,55.0,0.0,58412,152.11458333333331
12075,5.0,,,,53.0,,,,,4,note_on,,112.0,53.0,112.0,58416,152.125
12076,5.0,,,,53.0,,,,,44,note_on,,0.0,53.0,0.0,58460,152.23958333333331
12077,5.0,,,,55.0,,,,,4,note_on,,112.0,55.0,112.0,58464,152.25
12078,5.0,,,,55.0,,,,,44,note_on,,0.0,55.0,0.0,58508,152.36458333333331
12079,5.0,,,,53.0,,,,,4,note_on,,112.0,53.0,112.0,58512,152.375
12080,5.0,,,,53.0,,,,,44,note_on,,0.0,53.0,0.0,58556,152.48958333333331
12081,5.0,,,,55.0,,,,,4,note_on,,112.0,55.0,112.0,58560,152.5
12082,5.0,,,,55.0,,,,,44,note_on,,0.0,55.0,0.0,58604,152.61458333333331
12083,5.0,,,,53.0,,,,,4,note_on,,112.0,53.0,112.0,58608,152.625
12084,5.0,,,,53.0,,,,,44,note_on,,0.0,53.0,0.0,58652,152.73958333333331
12085,5.0,,,,55.0,,,,,4,note_on,,112.0,55.0,112.0,58656,152.75
12086,5.0,,,,55.0,,,,,44,note_on,,0.0,55.0,0.0,58700,152.86458333333331
12087,5.0,,,,53.0,,,,,4,note_on,,112.0,53.0,112.0,58704,152.875
12088,5.0,,,,53.0,,,,,44,note_on,,0.0,53.0,0.0,58748,152.98958333333331
12089,5.0,,,,55.0,,,,,52,note_on,,112.0,55.0,112.0,58800,153.125
12090,5.0,,,,55.0,,,,,44,note_on,,0.0,55.0,0.0,58844,153.23958333333331
12091,5.0,,,,55.0,,,,,4,note_on,,112.0,55.0,112.0,58848,153.25
12092,5.0,,,,55.0,,,,,44,note_on,,0.0,55.0,0.0,58892,153.36458333333331
12093,5.0,,,,53.0,,,,,4,note_on,,112.0,53.0,112.0,58896,153.375
12094,5.0,,,,53.0,,,,,44,note_on,,0.0,53.0,0.0,58940,153.48958333333331
12095,5.0,,,,55.0,,,,,4,note_on,,112.0,55.0,112.0,58944,153.5
12096,5.0,,,,55.0,,,,,44,note_on,,0.0,55.0,0.0,58988,153.61458333333331
12097,5.0,,,,53.0,,,,,4,note_on,,112.0,53.0,112.0,58992,153.625
12098,5.0,,,,53.0,,,,,44,note_on,,0.0,53.0,0.0,59036,153.73958333333331
12099,5.0,,,,55.0,,,,,4,note_on,,112.0,55.0,112.0,59040,153.75
12100,5.0,,,,55.0,,,,,44,note_on,,0.0,55.0,0.0,59084,153.86458333333331
12101,5.0,,,,53.0,,,,,4,note_on,,112.0,53.0,112.0,59088,153.875
12102,5.0,,,,53.0,,,,,44,note_on,,0.0,53.0,0.0,59132,153.98958333333331
12103,5.0,,,,55.0,,,,,4,note_on,,112.0,55.0,112.0,59136,154.0
12104,5.0,,,,55.0,,,,,44,note_on,,0.0,55.0,0.0,59180,154.11458333333331
12105,5.0,,,,53.0,,,,,4,note_on,,112.0,53.0,112.0,59184,154.125
12106,5.0,,,,53.0,,,,,44,note_on,,0.0,53.0,0.0,59228,154.23958333333331
12107,5.0,,,,55.0,,,,,4,note_on,,112.0,55.0,112.0,59232,154.25
12108,5.0,,,,55.0,,,,,44,note_on,,0.0,55.0,0.0,59276,154.36458333333331
12109,5.0,,,,53.0,,,,,4,note_on,,112.0,53.0,112.0,59280,154.375
12110,5.0,,,,53.0,,,,,44,note_on,,0.0,53.0,0.0,59324,154.48958333333331
12111,5.0,,,,55.0,,,,,4,note_on,,112.0,55.0,112.0,59328,154.5
12112,5.0,,,,55.0,,,,,44,note_on,,0.0,55.0,0.0,59372,154.61458333333331
12113,5.0,,,,53.0,,,,,4,note_on,,112.0,53.0,112.0,59376,154.625
12114,5.0,,,,53.0,,,,,44,note_on,,0.0,53.0,0.0,59420,154.73958333333331
12115,5.0,,,,55.0,,,,,4,note_on,,112.0,55.0,112.0,59424,154.75
12116,5.0,,,,55.0,,,,,44,note_on,,0.0,55.0,0.0,59468,154.86458333333331
12117,5.0,,,,53.0,,,,,4,note_on,,112.0,53.0,112.0,59472,154.875
12118,5.0,,,,53.0,,,,,44,note_on,,0.0,53.0,0.0,59516,154.98958333333331
12119,5.0,,,,55.0,,,,,52,note_on,,112.0,55.0,112.0,59568,155.125
12120,5.0,,,,55.0,,,,,44,note_on,,0.0,55.0,0.0,59612,155.23958333333331
12121,5.0,,,,55.0,,,,,4,note_on,,112.0,55.0,112.0,59616,155.25
12122,5.0,,,,55.0,,,,,44,note_on,,0.0,55.0,0.0,59660,155.36458333333331
12123,5.0,,,,53.0,,,,,4,note_on,,112.0,53.0,112.0,59664,155.375
12124,5.0,,,,53.0,,,,,44,note_on,,0.0,53.0,0.0,59708,155.48958333333331
12125,5.0,,,,55.0,,,,,4,note_on,,112.0,55.0,112.0,59712,155.5
12126,5.0,,,,55.0,,,,,44,note_on,,0.0,55.0,0.0,59756,155.61458333333331
12127,5.0,,,,53.0,,,,,4,note_on,,112.0,53.0,112.0,59760,155.625
12128,5.0,,,,53.0,,,,,44,note_on,,0.0,53.0,0.0,59804,155.73958333333331
12129,5.0,,,,55.0,,,,,4,note_on,,112.0,55.0,112.0,59808,155.75
12130,5.0,,,,55.0,,,,,44,note_on,,0.0,55.0,0.0,59852,155.86458333333331
12131,5.0,,,,53.0,,,,,4,note_on,,112.0,53.0,112.0,59856,155.875
12132,5.0,,,,53.0,,,,,44,note_on,,0.0,53.0,0.0,59900,155.98958333333331
12133,5.0,,,,55.0,,,,,4,note_on,,112.0,55.0,112.0,59904,156.0
12134,5.0,,,,55.0,,,,,44,note_on,,0.0,55.0,0.0,59948,156.11458333333331
12135,5.0,,,,53.0,,,,,4,note_on,,112.0,53.0,112.0,59952,156.125
12136,5.0,,,,53.0,,,,,44,note_on,,0.0,53.0,0.0,59996,156.23958333333331
12137,5.0,,,,55.0,,,,,4,note_on,,112.0,55.0,112.0,60000,156.25
12138,5.0,,,,55.0,,,,,44,note_on,,0.0,55.0,0.0,60044,156.36458333333331
12139,5.0,,,,53.0,,,,,4,note_on,,112.0,53.0,112.0,60048,156.375
12140,5.0,,,,53.0,,,,,44,note_on,,0.0,53.0,0.0,60092,156.48958333333331
12141,5.0,,,,55.0,,,,,4,note_on,,112.0,55.0,112.0,60096,156.5
12142,5.0,,,,55.0,,,,,44,note_on,,0.0,55.0,0.0,60140,156.61458333333331
12143,5.0,,,,53.0,,,,,4,note_on,,112.0,53.0,112.0,60144,156.625
12144,5.0,,,,53.0,,,,,44,note_on,,0.0,53.0,0.0,60188,156.73958333333331
12145,5.0,,,,55.0,,,,,4,note_on,,112.0,55.0,112.0,60192,156.75
12146,5.0,,,,55.0,,,,,44,note_on,,0.0,55.0,0.0,60236,156.86458333333331
12147,5.0,,,,53.0,,,,,4,note_on,,112.0,53.0,112.0,60240,156.875
12148,5.0,,,,53.0,,,,,44,note_on,,0.0,53.0,0.0,60284,156.98958333333331
12149,5.0,,,,55.0,,,,,52,note_on,,112.0,55.0,112.0,60336,157.125
12150,5.0,,,,55.0,,,,,44,note_on,,0.0,55.0,0.0,60380,157.23958333333331
12151,5.0,,,,55.0,,,,,4,note_on,,112.0,55.0,112.0,60384,157.25
12152,5.0,,,,55.0,,,,,44,note_on,,0.0,55.0,0.0,60428,157.36458333333331
12153,5.0,,,,53.0,,,,,4,note_on,,112.0,53.0,112.0,60432,157.375
12154,5.0,,,,53.0,,,,,44,note_on,,0.0,53.0,0.0,60476,157.48958333333331
12155,5.0,,,,55.0,,,,,4,note_on,,112.0,55.0,112.0,60480,157.5
12156,5.0,,,,55.0,,,,,44,note_on,,0.0,55.0,0.0,60524,157.61458333333331
12157,5.0,,,,53.0,,,,,4,note_on,,112.0,53.0,112.0,60528,157.625
12158,5.0,,,,53.0,,,,,44,note_on,,0.0,53.0,0.0,60572,157.73958333333331
12159,5.0,,,,55.0,,,,,4,note_on,,112.0,55.0,112.0,60576,157.75
12160,5.0,,,,55.0,,,,,44,note_on,,0.0,55.0,0.0,60620,157.86458333333331
12161,5.0,,,,53.0,,,,,4,note_on,,112.0,53.0,112.0,60624,157.875
12162,5.0,,,,53.0,,,,,44,note_on,,0.0,53.0,0.0,60668,157.98958333333331
12163,5.0,,,,55.0,,,,,4,note_on,,112.0,55.0,112.0,60672,158.0
12164,5.0,,,,55.0,,,,,44,note_on,,0.0,55.0,0.0,60716,158.11458333333331
12165,5.0,,,,53.0,,,,,4,note_on,,112.0,53.0,112.0,60720,158.125
12166,5.0,,,,53.0,,,,,44,note_on,,0.0,53.0,0.0,60764,158.23958333333331
12167,5.0,,,,55.0,,,,,4,note_on,,112.0,55.0,112.0,60768,158.25
12168,5.0,,,,55.0,,,,,44,note_on,,0.0,55.0,0.0,60812,158.36458333333331
12169,5.0,,,,53.0,,,,,4,note_on,,112.0,53.0,112.0,60816,158.375
12170,5.0,,,,53.0,,,,,44,note_on,,0.0,53.0,0.0,60860,158.48958333333331
12171,5.0,,,,55.0,,,,,4,note_on,,112.0,55.0,112.0,60864,158.5
12172,5.0,,,,55.0,,,,,44,note_on,,0.0,55.0,0.0,60908,158.61458333333331
12173,5.0,,,,53.0,,,,,4,note_on,,112.0,53.0,112.0,60912,158.625
12174,5.0,,,,53.0,,,,,44,note_on,,0.0,53.0,0.0,60956,158.73958333333331
12175,5.0,,,,55.0,,,,,4,note_on,,112.0,55.0,112.0,60960,158.75
12176,5.0,,,,55.0,,,,,44,note_on,,0.0,55.0,0.0,61004,158.86458333333331
12177,5.0,,,,53.0,,,,,4,note_on,,112.0,53.0,112.0,61008,158.875
12178,5.0,,,,53.0,,,,,44,note_on,,0.0,53.0,0.0,61052,158.98958333333331
12179,5.0,,,,55.0,,,,,52,note_on,,112.0,55.0,112.0,61104,159.125
12180,5.0,,,,55.0,,,,,44,note_on,,0.0,55.0,0.0,61148,159.23958333333331
12181,5.0,,,,55.0,,,,,4,note_on,,112.0,55.0,112.0,61152,159.25
12182,5.0,,,,55.0,,,,,44,note_on,,0.0,55.0,0.0,61196,159.36458333333331
12183,5.0,,,,53.0,,,,,4,note_on,,112.0,53.0,112.0,61200,159.375
12184,5.0,,,,53.0,,,,,44,note_on,,0.0,53.0,0.0,61244,159.48958333333331
12185,5.0,,,,55.0,,,,,4,note_on,,112.0,55.0,112.0,61248,159.5
12186,5.0,,,,55.0,,,,,44,note_on,,0.0,55.0,0.0,61292,159.61458333333331
12187,5.0,,,,53.0,,,,,4,note_on,,112.0,53.0,112.0,61296,159.625
12188,5.0,,,,53.0,,,,,44,note_on,,0.0,53.0,0.0,61340,159.73958333333331
12189,5.0,,,,55.0,,,,,4,note_on,,112.0,55.0,112.0,61344,159.75
12190,5.0,,,,55.0,,,,,44,note_on,,0.0,55.0,0.0,61388,159.86458333333331
12191,5.0,,,,53.0,,,,,4,note_on,,112.0,53.0,112.0,61392,159.875
12192,5.0,,,,53.0,,,,,44,note_on,,0.0,53.0,0.0,61436,159.98958333333331
12193,5.0,,,,55.0,,,,,4,note_on,,112.0,55.0,112.0,61440,160.0
12194,5.0,,,,55.0,,,,,44,note_on,,0.0,55.0,0.0,61484,160.11458333333331
12195,5.0,,,,53.0,,,,,4,note_on,,112.0,53.0,112.0,61488,160.125
12196,5.0,,,,53.0,,,,,44,note_on,,0.0,53.0,0.0,61532,160.23958333333331
12197,5.0,,,,55.0,,,,,4,note_on,,112.0,55.0,112.0,61536,160.25
12198,5.0,,,,55.0,,,,,44,note_on,,0.0,55.0,0.0,61580,160.36458333333331
12199,5.0,,,,53.0,,,,,4,note_on,,112.0,53.0,112.0,61584,160.375
12200,5.0,,,,53.0,,,,,44,note_on,,0.0,53.0,0.0,61628,160.48958333333331
12201,5.0,,,,55.0,,,,,4,note_on,,112.0,55.0,112.0,61632,160.5
12202,5.0,,,,55.0,,,,,44,note_on,,0.0,55.0,0.0,61676,160.61458333333331
12203,5.0,,,,53.0,,,,,4,note_on,,112.0,53.0,112.0,61680,160.625
12204,5.0,,,,53.0,,,,,44,note_on,,0.0,53.0,0.0,61724,160.73958333333331
12205,5.0,,,,55.0,,,,,4,note_on,,112.0,55.0,112.0,61728,160.75
12206,5.0,,,,55.0,,,,,44,note_on,,0.0,55.0,0.0,61772,160.86458333333331
12207,5.0,,,,53.0,,,,,4,note_on,,112.0,53.0,112.0,61776,160.875
12208,5.0,,,,53.0,,,,,44,note_on,,0.0,53.0,0.0,61820,160.98958333333331
12209,5.0,,,,55.0,,,,,52,note_on,,112.0,55.0,112.0,61872,161.125
12210,5.0,,,,55.0,,,,,44,note_on,,0.0,55.0,0.0,61916,161.23958333333331
12211,5.0,,,,55.0,,,,,4,note_on,,112.0,55.0,112.0,61920,161.25
12212,5.0,,,,55.0,,,,,44,note_on,,0.0,55.0,0.0,61964,161.36458333333331
12213,5.0,,,,53.0,,,,,4,note_on,,112.0,53.0,112.0,61968,161.375
12214,5.0,,,,53.0,,,,,44,note_on,,0.0,53.0,0.0,62012,161.48958333333331
12215,5.0,,,,55.0,,,,,4,note_on,,112.0,55.0,112.0,62016,161.5
12216,5.0,,,,55.0,,,,,44,note_on,,0.0,55.0,0.0,62060,161.61458333333331
12217,5.0,,,,53.0,,,,,4,note_on,,112.0,53.0,112.0,62064,161.625
12218,5.0,,,,53.0,,,,,44,note_on,,0.0,53.0,0.0,62108,161.73958333333331
12219,5.0,,,,55.0,,,,,4,note_on,,112.0,55.0,112.0,62112,161.75
12220,5.0,,,,55.0,,,,,44,note_on,,0.0,55.0,0.0,62156,161.86458333333331
12221,5.0,,,,53.0,,,,,4,note_on,,112.0,53.0,112.0,62160,161.875
12222,5.0,,,,53.0,,,,,44,note_on,,0.0,53.0,0.0,62204,161.98958333333331
12223,5.0,,,,55.0,,,,,4,note_on,,112.0,55.0,112.0,62208,162.0
12224,5.0,,,,55.0,,,,,44,note_on,,0.0,55.0,0.0,62252,162.11458333333331
12225,5.0,,,,53.0,,,,,4,note_on,,112.0,53.0,112.0,62256,162.125
12226,5.0,,,,53.0,,,,,44,note_on,,0.0,53.0,0.0,62300,162.23958333333331
12227,5.0,,,,55.0,,,,,4,note_on,,112.0,55.0,112.0,62304,162.25
12228,5.0,,,,55.0,,,,,44,note_on,,0.0,55.0,0.0,62348,162.36458333333331
12229,5.0,,,,53.0,,,,,4,note_on,,112.0,53.0,112.0,62352,162.375
12230,5.0,,,,53.0,,,,,44,note_on,,0.0,53.0,0.0,62396,162.48958333333331
12231,5.0,,,,55.0,,,,,4,note_on,,112.0,55.0,112.0,62400,162.5
12232,5.0,,,,55.0,,,,,44,note_on,,0.0,55.0,0.0,62444,162.61458333333331
12233,5.0,,,,53.0,,,,,4,note_on,,112.0,53.0,112.0,62448,162.625
12234,5.0,,,,53.0,,,,,44,note_on,,0.0,53.0,0.0,62492,162.73958333333331
12235,5.0,,,,55.0,,,,,4,note_on,,112.0,55.0,112.0,62496,162.75
12236,5.0,,,,55.0,,,,,44,note_on,,0.0,55.0,0.0,62540,162.86458333333331
12237,5.0,,,,53.0,,,,,4,note_on,,112.0,53.0,112.0,62544,162.875
12238,5.0,,,,53.0,,,,,44,note_on,,0.0,53.0,0.0,62588,162.98958333333331
12239,5.0,,,,55.0,,,,,52,note_on,,112.0,55.0,112.0,62640,163.125
12240,5.0,,,,55.0,,,,,44,note_on,,0.0,55.0,0.0,62684,163.23958333333331
12241,5.0,,,,55.0,,,,,4,note_on,,112.0,55.0,112.0,62688,163.25
12242,5.0,,,,55.0,,,,,44,note_on,,0.0,55.0,0.0,62732,163.36458333333331
12243,5.0,,,,53.0,,,,,4,note_on,,112.0,53.0,112.0,62736,163.375
12244,5.0,,,,53.0,,,,,44,note_on,,0.0,53.0,0.0,62780,163.48958333333331
12245,5.0,,,,55.0,,,,,4,note_on,,112.0,55.0,112.0,62784,163.5
12246,5.0,,,,55.0,,,,,44,note_on,,0.0,55.0,0.0,62828,163.61458333333331
12247,5.0,,,,53.0,,,,,4,note_on,,112.0,53.0,112.0,62832,163.625
12248,5.0,,,,53.0,,,,,44,note_on,,0.0,53.0,0.0,62876,163.73958333333331
12249,5.0,,,,55.0,,,,,4,note_on,,112.0,55.0,112.0,62880,163.75
12250,5.0,,,,55.0,,,,,44,note_on,,0.0,55.0,0.0,62924,163.86458333333331
12251,5.0,,,,53.0,,,,,4,note_on,,112.0,53.0,112.0,62928,163.875
12252,5.0,,,,53.0,,,,,44,note_on,,0.0,53.0,0.0,62972,163.98958333333331
12253,5.0,,,,55.0,,,,,4,note_on,,112.0,55.0,112.0,62976,164.0
12254,5.0,,,,55.0,,,,,44,note_on,,0.0,55.0,0.0,63020,164.11458333333331
12255,5.0,,,,53.0,,,,,4,note_on,,112.0,53.0,112.0,63024,164.125
12256,5.0,,,,53.0,,,,,44,note_on,,0.0,53.0,0.0,63068,164.23958333333331
12257,5.0,,,,55.0,,,,,4,note_on,,112.0,55.0,112.0,63072,164.25
12258,5.0,,,,55.0,,,,,44,note_on,,0.0,55.0,0.0,63116,164.36458333333331
12259,5.0,,,,53.0,,,,,4,note_on,,112.0,53.0,112.0,63120,164.375
12260,5.0,,,,53.0,,,,,44,note_on,,0.0,53.0,0.0,63164,164.48958333333331
12261,5.0,,,,55.0,,,,,4,note_on,,112.0,55.0,112.0,63168,164.5
12262,5.0,,,,55.0,,,,,44,note_on,,0.0,55.0,0.0,63212,164.61458333333331
12263,5.0,,,,53.0,,,,,4,note_on,,112.0,53.0,112.0,63216,164.625
12264,5.0,,,,53.0,,,,,44,note_on,,0.0,53.0,0.0,63260,164.73958333333331
12265,5.0,,,,55.0,,,,,4,note_on,,112.0,55.0,112.0,63264,164.75
12266,5.0,,,,55.0,,,,,44,note_on,,0.0,55.0,0.0,63308,164.86458333333331
12267,5.0,,,,53.0,,,,,4,note_on,,112.0,53.0,112.0,63312,164.875
12268,5.0,,,,53.0,,,,,44,note_on,,0.0,53.0,0.0,63356,164.98958333333331
12269,5.0,,,,55.0,,,,,52,note_on,,112.0,55.0,112.0,63408,165.125
12270,5.0,,,,55.0,,,,,44,note_on,,0.0,55.0,0.0,63452,165.23958333333331
12271,5.0,,,,55.0,,,,,4,note_on,,112.0,55.0,112.0,63456,165.25
12272,5.0,,,,55.0,,,,,44,note_on,,0.0,55.0,0.0,63500,165.36458333333331
12273,5.0,,,,53.0,,,,,4,note_on,,112.0,53.0,112.0,63504,165.375
12274,5.0,,,,53.0,,,,,44,note_on,,0.0,53.0,0.0,63548,165.48958333333331
12275,5.0,,,,55.0,,,,,4,note_on,,112.0,55.0,112.0,63552,165.5
12276,5.0,,,,55.0,,,,,44,note_on,,0.0,55.0,0.0,63596,165.61458333333331
12277,5.0,,,,53.0,,,,,4,note_on,,112.0,53.0,112.0,63600,165.625
12278,5.0,,,,53.0,,,,,44,note_on,,0.0,53.0,0.0,63644,165.73958333333331
12279,5.0,,,,55.0,,,,,4,note_on,,112.0,55.0,112.0,63648,165.75
12280,5.0,,,,55.0,,,,,44,note_on,,0.0,55.0,0.0,63692,165.86458333333331
12281,5.0,,,,53.0,,,,,4,note_on,,112.0,53.0,112.0,63696,165.875
12282,5.0,,,,53.0,,,,,44,note_on,,0.0,53.0,0.0,63740,165.98958333333331
12283,5.0,,,,55.0,,,,,4,note_on,,112.0,55.0,112.0,63744,166.0
12284,5.0,,,,55.0,,,,,44,note_on,,0.0,55.0,0.0,63788,166.11458333333331
12285,5.0,,,,53.0,,,,,4,note_on,,112.0,53.0,112.0,63792,166.125
12286,5.0,,,,53.0,,,,,44,note_on,,0.0,53.0,0.0,63836,166.23958333333331
12287,5.0,,,,55.0,,,,,4,note_on,,112.0,55.0,112.0,63840,166.25
12288,5.0,,,,55.0,,,,,44,note_on,,0.0,55.0,0.0,63884,166.36458333333331
12289,5.0,,,,53.0,,,,,4,note_on,,112.0,53.0,112.0,63888,166.375
12290,5.0,,,,53.0,,,,,44,note_on,,0.0,53.0,0.0,63932,166.48958333333331
12291,5.0,,,,55.0,,,,,4,note_on,,112.0,55.0,112.0,63936,166.5
12292,5.0,,,,55.0,,,,,44,note_on,,0.0,55.0,0.0,63980,166.61458333333331
12293,5.0,,,,53.0,,,,,4,note_on,,112.0,53.0,112.0,63984,166.625
12294,5.0,,,,53.0,,,,,44,note_on,,0.0,53.0,0.0,64028,166.73958333333331
12295,5.0,,,,55.0,,,,,4,note_on,,112.0,55.0,112.0,64032,166.75
12296,5.0,,,,55.0,,,,,44,note_on,,0.0,55.0,0.0,64076,166.86458333333331
12297,5.0,,,,53.0,,,,,4,note_on,,112.0,53.0,112.0,64080,166.875
12298,5.0,,,,53.0,,,,,44,note_on,,0.0,53.0,0.0,64124,166.98958333333331
12299,5.0,,,,55.0,,,,,52,note_on,,112.0,55.0,112.0,64176,167.125
12300,5.0,,,,55.0,,,,,44,note_on,,0.0,55.0,0.0,64220,167.23958333333331
12301,5.0,,,,55.0,,,,,4,note_on,,112.0,55.0,112.0,64224,167.25
12302,5.0,,,,55.0,,,,,44,note_on,,0.0,55.0,0.0,64268,167.36458333333331
12303,5.0,,,,53.0,,,,,4,note_on,,112.0,53.0,112.0,64272,167.375
12304,5.0,,,,53.0,,,,,44,note_on,,0.0,53.0,0.0,64316,167.48958333333331
12305,5.0,,,,55.0,,,,,4,note_on,,112.0,55.0,112.0,64320,167.5
12306,5.0,,,,55.0,,,,,44,note_on,,0.0,55.0,0.0,64364,167.61458333333331
12307,5.0,,,,53.0,,,,,4,note_on,,112.0,53.0,112.0,64368,167.625
12308,5.0,,,,53.0,,,,,44,note_on,,0.0,53.0,0.0,64412,167.73958333333331
12309,5.0,,,,55.0,,,,,4,note_on,,112.0,55.0,112.0,64416,167.75
12310,5.0,,,,55.0,,,,,44,note_on,,0.0,55.0,0.0,64460,167.86458333333331
12311,5.0,,,,53.0,,,,,4,note_on,,112.0,53.0,112.0,64464,167.875
12312,5.0,,,,53.0,,,,,44,note_on,,0.0,53.0,0.0,64508,167.98958333333331
12313,5.0,,,,55.0,,,,,4,note_on,,112.0,55.0,112.0,64512,168.0
12314,5.0,,,,55.0,,,,,44,note_on,,0.0,55.0,0.0,64556,168.11458333333331
12315,5.0,,,,53.0,,,,,4,note_on,,112.0,53.0,112.0,64560,168.125
12316,5.0,,,,53.0,,,,,44,note_on,,0.0,53.0,0.0,64604,168.23958333333331
12317,5.0,,,,55.0,,,,,4,note_on,,112.0,55.0,112.0,64608,168.25
12318,5.0,,,,55.0,,,,,44,note_on,,0.0,55.0,0.0,64652,168.36458333333331
12319,5.0,,,,53.0,,,,,4,note_on,,112.0,53.0,112.0,64656,168.375
12320,5.0,,,,53.0,,,,,44,note_on,,0.0,53.0,0.0,64700,168.48958333333331
12321,5.0,,,,55.0,,,,,4,note_on,,112.0,55.0,112.0,64704,168.5
12322,5.0,,,,55.0,,,,,44,note_on,,0.0,55.0,0.0,64748,168.61458333333331
12323,5.0,,,,53.0,,,,,4,note_on,,112.0,53.0,112.0,64752,168.625
12324,5.0,,,,53.0,,,,,44,note_on,,0.0,53.0,0.0,64796,168.73958333333331
12325,5.0,,,,55.0,,,,,4,note_on,,112.0,55.0,112.0,64800,168.75
12326,5.0,,,,55.0,,,,,44,note_on,,0.0,55.0,0.0,64844,168.86458333333331
12327,5.0,,,,53.0,,,,,4,note_on,,112.0,53.0,112.0,64848,168.875
12328,5.0,,,,53.0,,,,,44,note_on,,0.0,53.0,0.0,64892,168.98958333333331
12329,5.0,,,,55.0,,,,,52,note_on,,112.0,55.0,112.0,64944,169.125
12330,5.0,,,,55.0,,,,,44,note_on,,0.0,55.0,0.0,64988,169.23958333333331
12331,5.0,,,,55.0,,,,,4,note_on,,112.0,55.0,112.0,64992,169.25
12332,5.0,,,,55.0,,,,,44,note_on,,0.0,55.0,0.0,65036,169.36458333333331
12333,5.0,,,,53.0,,,,,4,note_on,,112.0,53.0,112.0,65040,169.375
12334,5.0,,,,53.0,,,,,44,note_on,,0.0,53.0,0.0,65084,169.48958333333331
12335,5.0,,,,55.0,,,,,4,note_on,,112.0,55.0,112.0,65088,169.5
12336,5.0,,,,55.0,,,,,44,note_on,,0.0,55.0,0.0,65132,169.61458333333331
12337,5.0,,,,53.0,,,,,4,note_on,,112.0,53.0,112.0,65136,169.625
12338,5.0,,,,53.0,,,,,44,note_on,,0.0,53.0,0.0,65180,169.73958333333331
12339,5.0,,,,55.0,,,,,4,note_on,,112.0,55.0,112.0,65184,169.75
12340,5.0,,,,55.0,,,,,44,note_on,,0.0,55.0,0.0,65228,169.86458333333331
12341,5.0,,,,53.0,,,,,4,note_on,,112.0,53.0,112.0,65232,169.875
12342,5.0,,,,53.0,,,,,44,note_on,,0.0,53.0,0.0,65276,169.98958333333331
12343,5.0,,,,55.0,,,,,4,note_on,,112.0,55.0,112.0,65280,170.0
12344,5.0,,,,55.0,,,,,44,note_on,,0.0,55.0,0.0,65324,170.11458333333331
12345,5.0,,,,53.0,,,,,4,note_on,,108.0,53.0,108.0,65328,170.125
12346,5.0,,,,53.0,,,,,44,note_on,,0.0,53.0,0.0,65372,170.23958333333331
12347,5.0,,,,55.0,,,,,4,note_on,,106.0,55.0,106.0,65376,170.25
12348,5.0,,,,55.0,,,,,44,note_on,,0.0,55.0,0.0,65420,170.36458333333331
12349,5.0,,,,53.0,,,,,4,note_on,,103.0,53.0,103.0,65424,170.375
12350,5.0,,,,53.0,,,,,44,note_on,,0.0,53.0,0.0,65468,170.48958333333331
12351,5.0,,,,55.0,,,,,4,note_on,,101.0,55.0,101.0,65472,170.5
12352,5.0,,,,55.0,,,,,44,note_on,,0.0,55.0,0.0,65516,170.61458333333331
12353,5.0,,,,53.0,,,,,4,note_on,,100.0,53.0,100.0,65520,170.625
12354,5.0,,,,53.0,,,,,44,note_on,,0.0,53.0,0.0,65564,170.73958333333331
12355,5.0,,,,55.0,,,,,4,note_on,,99.0,55.0,99.0,65568,170.75
12356,5.0,,,,55.0,,,,,44,note_on,,0.0,55.0,0.0,65612,170.86458333333331
12357,5.0,,,,53.0,,,,,4,note_on,,97.0,53.0,97.0,65616,170.875
12358,5.0,,,,53.0,,,,,44,note_on,,0.0,53.0,0.0,65660,170.98958333333331
12359,5.0,,,,55.0,,,,,52,note_on,,93.0,55.0,93.0,65712,171.125
12360,5.0,,,,55.0,,,,,44,note_on,,0.0,55.0,0.0,65756,171.23958333333331
12361,5.0,,,,55.0,,,,,4,note_on,,92.0,55.0,92.0,65760,171.25
12362,5.0,,,,55.0,,,,,44,note_on,,0.0,55.0,0.0,65804,171.36458333333331
12363,5.0,,,,53.0,,,,,4,note_on,,91.0,53.0,91.0,65808,171.375
12364,5.0,,,,53.0,,,,,44,note_on,,0.0,53.0,0.0,65852,171.48958333333331
12365,5.0,,,,55.0,,,,,4,note_on,,88.0,55.0,88.0,65856,171.5
12366,5.0,,,,55.0,,,,,44,note_on,,0.0,55.0,0.0,65900,171.61458333333331
12367,5.0,,,,53.0,,,,,4,note_on,,86.0,53.0,86.0,65904,171.625
12368,5.0,,,,53.0,,,,,44,note_on,,0.0,53.0,0.0,65948,171.73958333333331
12369,5.0,,,,55.0,,,,,4,note_on,,84.0,55.0,84.0,65952,171.75
12370,5.0,,,,55.0,,,,,44,note_on,,0.0,55.0,0.0,65996,171.86458333333331
12371,5.0,,,,53.0,,,,,4,note_on,,83.0,53.0,83.0,66000,171.875
12372,5.0,,,,53.0,,,,,44,note_on,,0.0,53.0,0.0,66044,171.98958333333331
12373,5.0,,,,55.0,,,,,4,note_on,,79.0,55.0,79.0,66048,172.0
12374,5.0,,,,55.0,,,,,44,note_on,,0.0,55.0,0.0,66092,172.11458333333331
12375,5.0,,,,53.0,,,,,4,note_on,,77.0,53.0,77.0,66096,172.125
12376,5.0,,,,53.0,,,,,44,note_on,,0.0,53.0,0.0,66140,172.23958333333331
12377,5.0,,,,55.0,,,,,4,note_on,,75.0,55.0,75.0,66144,172.25
12378,5.0,,,,55.0,,,,,44,note_on,,0.0,55.0,0.0,66188,172.36458333333331
12379,5.0,,,,53.0,,,,,4,note_on,,73.0,53.0,73.0,66192,172.375
12380,5.0,,,,53.0,,,,,44,note_on,,0.0,53.0,0.0,66236,172.48958333333331
12381,5.0,,,,55.0,,,,,4,note_on,,70.0,55.0,70.0,66240,172.5
12382,5.0,,,,55.0,,,,,44,note_on,,0.0,55.0,0.0,66284,172.61458333333331
12383,5.0,,,,53.0,,,,,4,note_on,,67.0,53.0,67.0,66288,172.625
12384,5.0,,,,53.0,,,,,44,note_on,,0.0,53.0,0.0,66332,172.73958333333331
12385,5.0,,,,55.0,,,,,4,note_on,,65.0,55.0,65.0,66336,172.75
12386,5.0,,,,55.0,,,,,44,note_on,,0.0,55.0,0.0,66380,172.86458333333331
12387,5.0,,,,53.0,,,,,4,note_on,,63.0,53.0,63.0,66384,172.875
12388,5.0,,,,53.0,,,,,44,note_on,,0.0,53.0,0.0,66428,172.98958333333331
12389,5.0,,,,55.0,,,,,52,note_on,,59.0,55.0,59.0,66480,173.125
12390,5.0,,,,55.0,,,,,44,note_on,,0.0,55.0,0.0,66524,173.23958333333331
12391,5.0,,,,55.0,,,,,4,note_on,,58.0,55.0,58.0,66528,173.25
12392,5.0,,,,55.0,,,,,44,note_on,,0.0,55.0,0.0,66572,173.36458333333331
12393,5.0,,,,53.0,,,,,4,note_on,,56.0,53.0,56.0,66576,173.375
12394,5.0,,,,53.0,,,,,44,note_on,,0.0,53.0,0.0,66620,173.48958333333331
12395,5.0,,,,55.0,,,,,4,note_on,,54.0,55.0,54.0,66624,173.5
12396,5.0,,,,55.0,,,,,44,note_on,,0.0,55.0,0.0,66668,173.61458333333331
12397,5.0,,,,53.0,,,,,4,note_on,,52.0,53.0,52.0,66672,173.625
12398,5.0,,,,53.0,,,,,44,note_on,,0.0,53.0,0.0,66716,173.73958333333331
12399,5.0,,,,55.0,,,,,4,note_on,,50.0,55.0,50.0,66720,173.75
12400,5.0,,,,55.0,,,,,44,note_on,,0.0,55.0,0.0,66764,173.86458333333331
12401,5.0,,,,53.0,,,,,4,note_on,,49.0,53.0,49.0,66768,173.875
12402,5.0,,,,53.0,,,,,44,note_on,,0.0,53.0,0.0,66812,173.98958333333331
12403,5.0,,,,55.0,,,,,4,note_on,,47.0,55.0,47.0,66816,174.0
12404,5.0,,,,55.0,,,,,44,note_on,,0.0,55.0,0.0,66860,174.11458333333331
12405,5.0,,,,53.0,,,,,4,note_on,,46.0,53.0,46.0,66864,174.125
12406,5.0,,,,53.0,,,,,44,note_on,,0.0,53.0,0.0,66908,174.23958333333331
12407,5.0,,,,55.0,,,,,4,note_on,,45.0,55.0,45.0,66912,174.25
12408,5.0,,,,55.0,,,,,44,note_on,,0.0,55.0,0.0,66956,174.36458333333331
12409,5.0,,,,53.0,,,,,4,note_on,,43.0,53.0,43.0,66960,174.375
12410,5.0,,,,53.0,,,,,44,note_on,,0.0,53.0,0.0,67004,174.48958333333331
12411,5.0,,,,55.0,,,,,4,note_on,,43.0,55.0,43.0,67008,174.5
12412,5.0,,,,55.0,,,,,44,note_on,,0.0,55.0,0.0,67052,174.61458333333331
12413,5.0,,,,53.0,,,,,4,note_on,,41.0,53.0,41.0,67056,174.625
12414,5.0,,,,53.0,,,,,44,note_on,,0.0,53.0,0.0,67100,174.73958333333331
12415,5.0,,,,55.0,,,,,4,note_on,,40.0,55.0,40.0,67104,174.75
12416,5.0,,,,55.0,,,,,44,note_on,,0.0,55.0,0.0,67148,174.86458333333331
12417,5.0,,,,53.0,,,,,4,note_on,,40.0,53.0,40.0,67152,174.875
12418,5.0,,,,53.0,,,,,44,note_on,,0.0,53.0,0.0,67196,174.98958333333331
12419,5.0,,,,55.0,,,,,52,note_on,,37.0,55.0,37.0,67248,175.125
12420,5.0,,,,55.0,,,,,44,note_on,,0.0,55.0,0.0,67292,175.23958333333331
12421,5.0,,,,55.0,,,,,4,note_on,,36.0,55.0,36.0,67296,175.25
12422,5.0,,,,55.0,,,,,44,note_on,,0.0,55.0,0.0,67340,175.36458333333331
12423,5.0,,,,53.0,,,,,4,note_on,,33.0,53.0,33.0,67344,175.375
12424,5.0,,,,53.0,,,,,44,note_on,,0.0,53.0,0.0,67388,175.48958333333331
12425,5.0,,,,55.0,,,,,4,note_on,,31.0,55.0,31.0,67392,175.5
12426,5.0,,,,55.0,,,,,44,note_on,,0.0,55.0,0.0,67436,175.61458333333331
12427,5.0,,,,53.0,,,,,4,note_on,,29.0,53.0,29.0,67440,175.625
12428,5.0,,,,53.0,,,,,44,note_on,,0.0,53.0,0.0,67484,175.73958333333331
12429,5.0,,,,55.0,,,,,4,note_on,,27.0,55.0,27.0,67488,175.75
12430,5.0,,,,55.0,,,,,44,note_on,,0.0,55.0,0.0,67532,175.86458333333331
12431,5.0,,,,53.0,,,,,4,note_on,,25.0,53.0,25.0,67536,175.875
12432,5.0,,,,53.0,,,,,44,note_on,,0.0,53.0,0.0,67580,175.98958333333331
12433,5.0,,,,55.0,,,,,4,note_on,,24.0,55.0,24.0,67584,176.0
12434,5.0,,,,55.0,,,,,44,note_on,,0.0,55.0,0.0,67628,176.11458333333331
12435,5.0,,,,53.0,,,,,4,note_on,,22.0,53.0,22.0,67632,176.125
12436,5.0,,,,53.0,,,,,44,note_on,,0.0,53.0,0.0,67676,176.23958333333331
12437,5.0,,,,55.0,,,,,4,note_on,,21.0,55.0,21.0,67680,176.25
12438,5.0,,,,55.0,,,,,44,note_on,,0.0,55.0,0.0,67724,176.36458333333331
12439,5.0,,,,53.0,,,,,4,note_on,,20.0,53.0,20.0,67728,176.375
12440,5.0,,,,53.0,,,,,44,note_on,,0.0,53.0,0.0,67772,176.48958333333331
12441,5.0,,,,55.0,,,,,4,note_on,,18.0,55.0,18.0,67776,176.5
12442,5.0,,,,55.0,,,,,44,note_on,,0.0,55.0,0.0,67820,176.61458333333331
12443,5.0,,,,53.0,,,,,4,note_on,,17.0,53.0,17.0,67824,176.625
12444,5.0,,,,53.0,,,,,44,note_on,,0.0,53.0,0.0,67868,176.73958333333331
12445,5.0,,,,55.0,,,,,4,note_on,,15.0,55.0,15.0,67872,176.75
12446,5.0,,,,55.0,,,,,44,note_on,,0.0,55.0,0.0,67916,176.86458333333331
12447,5.0,,,,53.0,,,,,4,note_on,,13.0,53.0,13.0,67920,176.875
12448,5.0,,,,53.0,,,,,44,note_on,,0.0,53.0,0.0,67964,176.98958333333331
12449,5.0,,,,55.0,,,,,52,note_on,,11.0,55.0,11.0,68016,177.125
12450,5.0,,,,55.0,,,,,44,note_on,,0.0,55.0,0.0,68060,177.23958333333331
12451,5.0,,,,55.0,,,,,4,note_on,,10.0,55.0,10.0,68064,177.25
12452,5.0,,,,55.0,,,,,44,note_on,,0.0,55.0,0.0,68108,177.36458333333331
12453,5.0,,,,53.0,,,,,4,note_on,,9.0,53.0,9.0,68112,177.375
12454,5.0,,,,53.0,,,,,44,note_on,,0.0,53.0,0.0,68156,177.48958333333331
12455,5.0,,,,55.0,,,,,4,note_on,,7.0,55.0,7.0,68160,177.5
12456,5.0,,,,55.0,,,,,44,note_on,,0.0,55.0,0.0,68204,177.61458333333331
12457,5.0,,,,53.0,,,,,4,note_on,,5.0,53.0,5.0,68208,177.625
12458,5.0,,,,53.0,,,,,44,note_on,,0.0,53.0,0.0,68252,177.73958333333331
12459,5.0,,,,55.0,,,,,4,note_on,,4.0,55.0,4.0,68256,177.75
12460,5.0,,,,55.0,,,,,44,note_on,,0.0,55.0,0.0,68300,177.86458333333331
12461,5.0,,,,53.0,,,,,4,note_on,,2.0,53.0,2.0,68304,177.875
12462,5.0,,,,53.0,,,,,44,note_on,,0.0,53.0,0.0,68348,177.98958333333331
12463,,,,,,,,,,0,end_of_track,,,,,4639081528,12080941.479166666
12464,11.0,0.0,,,,,,,,0,control_change,0.0,,,,0,0.0
12465,11.0,,,,,,119.0,,,0,program_change,,,,,0,0.0
12466,,,"(74, 65, 90, 50, 1, 0, 0, 0, 0, 0, 0, 0, 0, 0, 0, 0, 0, 0, 0, 0)",,,,,,,0,sequencer_specific,,,,,4639081744,12080942.041666666
12467,11.0,7.0,,,,,,,,0,control_change,99.0,,,,0,0.0
12468,11.0,10.0,,,,,,,,0,control_change,64.0,,,,0,0.0
12469,11.0,91.0,,,,,,,,0,control_change,40.0,,,,0,0.0
12470,11.0,93.0,,,,,,,,0,control_change,0.0,,,,0,0.0
12471,,,,Reverse Cymbal,,,,,,0,track_name,,,,,4639082104,12080942.979166666
12472,11.0,,,,,270.0,,,,49536,pitchwheel,,,,,49536,129.0
12473,11.0,,,,67.0,,,,,0,note_on,,112.0,67.0,112.0,49536,129.0
12474,11.0,,,,,810.0,,,,8,pitchwheel,,,,,49544,129.02083333333331
12475,11.0,,,,,900.0,,,,8,pitchwheel,,,,,49552,129.04166666666666
12476,11.0,,,,,1080.0,,,,8,pitchwheel,,,,,49560,129.0625
12477,11.0,,,,,1260.0,,,,8,pitchwheel,,,,,49568,129.08333333333331
12478,11.0,,,,68.0,,,,,0,note_on,,112.0,68.0,112.0,49568,129.08333333333331
12479,11.0,,,,,1530.0,,,,8,pitchwheel,,,,,49576,129.10416666666666
12480,11.0,,,,,1890.0,,,,8,pitchwheel,,,,,49584,129.125
12481,11.0,,,,,2070.0,,,,8,pitchwheel,,,,,49592,129.14583333333331
12482,11.0,,,,,2520.0,,,,8,pitchwheel,,,,,49600,129.16666666666666
12483,11.0,,,,69.0,,,,,0,note_on,,112.0,69.0,112.0,49600,129.16666666666666
12484,11.0,,,,,2790.0,,,,8,pitchwheel,,,,,49608,129.1875
12485,11.0,,,,,3060.0,,,,8,pitchwheel,,,,,49616,129.20833333333331
12486,11.0,,,,,3240.0,,,,8,pitchwheel,,,,,49624,129.22916666666666
12487,11.0,,,,70.0,,,,,8,note_on,,112.0,70.0,112.0,49632,129.25
12488,11.0,,,,,3420.0,,,,0,pitchwheel,,,,,49632,129.25
12489,11.0,,,,,3510.0,,,,8,pitchwheel,,,,,49640,129.27083333333331
12490,11.0,,,,,3690.0,,,,8,pitchwheel,,,,,49648,129.29166666666666
12491,11.0,,,,,3870.0,,,,8,pitchwheel,,,,,49656,129.3125
12492,11.0,,,,71.0,,,,,8,note_on,,112.0,71.0,112.0,49664,129.33333333333331
12493,11.0,,,,,4050.0,,,,8,pitchwheel,,,,,49672,129.35416666666666
12494,11.0,,,,,4231.0,,,,8,pitchwheel,,,,,49680,129.375
12495,11.0,,,,,4411.0,,,,8,pitchwheel,,,,,49688,129.39583333333331
12496,11.0,,,,72.0,,,,,8,note_on,,112.0,72.0,112.0,49696,129.41666666666666
12497,11.0,,,,,4501.0,,,,0,pitchwheel,,,,,49696,129.41666666666666
12498,11.0,,,,,4591.0,,,,8,pitchwheel,,,,,49704,129.4375
12499,11.0,,,,,4771.0,,,,8,pitchwheel,,,,,49712,129.45833333333331
12500,11.0,,,,,5041.0,,,,8,pitchwheel,,,,,49720,129.47916666666666
12501,11.0,,,,73.0,,,,,8,note_on,,112.0,73.0,112.0,49728,129.5
12502,11.0,,,,,5221.0,,,,0,pitchwheel,,,,,49728,129.5
12503,11.0,,,,,5401.0,,,,8,pitchwheel,,,,,49736,129.52083333333331
12504,11.0,,,,,5581.0,,,,8,pitchwheel,,,,,49744,129.54166666666666
12505,11.0,,,,,5761.0,,,,8,pitchwheel,,,,,49752,129.5625
12506,11.0,,,,74.0,,,,,8,note_on,,112.0,74.0,112.0,49760,129.58333333333331
12507,11.0,,,,,5941.0,,,,0,pitchwheel,,,,,49760,129.58333333333331
12508,11.0,,,,,6121.0,,,,16,pitchwheel,,,,,49776,129.625
12509,11.0,,,,,6211.0,,,,8,pitchwheel,,,,,49784,129.64583333333331
12510,11.0,,,,,6391.0,,,,8,pitchwheel,,,,,49792,129.66666666666666
12511,11.0,,,,75.0,,,,,0,note_on,,112.0,75.0,112.0,49792,129.66666666666666
12512,11.0,,,,,6571.0,,,,8,pitchwheel,,,,,49800,129.6875
12513,11.0,,,,,6751.0,,,,8,pitchwheel,,,,,49808,129.70833333333331
12514,11.0,,,,,6841.0,,,,8,pitchwheel,,,,,49816,129.72916666666666
12515,11.0,,,,76.0,,,,,8,note_on,,112.0,76.0,112.0,49824,129.75
12516,11.0,,,,,7021.0,,,,0,pitchwheel,,,,,49824,129.75
12517,11.0,,,,,7111.0,,,,8,pitchwheel,,,,,49832,129.77083333333331
12518,11.0,,,,,7381.0,,,,8,pitchwheel,,,,,49840,129.79166666666666
12519,11.0,,,,,7471.0,,,,8,pitchwheel,,,,,49848,129.8125
12520,11.0,,,,,7651.0,,,,8,pitchwheel,,,,,49856,129.83333333333331
12521,11.0,,,,77.0,,,,,0,note_on,,112.0,77.0,112.0,49856,129.83333333333331
12522,11.0,,,,,7741.0,,,,8,pitchwheel,,,,,49864,129.85416666666666
12523,11.0,,,,,7921.0,,,,8,pitchwheel,,,,,49872,129.875
12524,11.0,,,,,8011.0,,,,8,pitchwheel,,,,,49880,129.89583333333331
12525,11.0,,,,,8101.0,,,,8,pitchwheel,,,,,49888,129.91666666666666
12526,11.0,,,,78.0,,,,,0,note_on,,112.0,78.0,112.0,49888,129.91666666666666
12527,11.0,,,,78.0,,,,,28,note_on,,0.0,78.0,0.0,49916,129.98958333333331
12528,11.0,,,,67.0,,,,,0,note_on,,0.0,67.0,0.0,49916,129.98958333333331
12529,11.0,,,,68.0,,,,,0,note_on,,0.0,68.0,0.0,49916,129.98958333333331
12530,11.0,,,,69.0,,,,,0,note_on,,0.0,69.0,0.0,49916,129.98958333333331
12531,11.0,,,,71.0,,,,,0,note_on,,0.0,71.0,0.0,49916,129.98958333333331
12532,11.0,,,,72.0,,,,,0,note_on,,0.0,72.0,0.0,49916,129.98958333333331
12533,11.0,,,,75.0,,,,,0,note_on,,0.0,75.0,0.0,49916,129.98958333333331
12534,11.0,,,,74.0,,,,,0,note_on,,0.0,74.0,0.0,49916,129.98958333333331
12535,11.0,,,,76.0,,,,,0,note_on,,0.0,76.0,0.0,49916,129.98958333333331
12536,11.0,,,,73.0,,,,,4,note_on,,0.0,73.0,0.0,49920,130.0
12537,11.0,,,,77.0,,,,,0,note_on,,0.0,77.0,0.0,49920,130.0
12538,11.0,,,,,0.0,,,,0,pitchwheel,,,,,49920,130.0
12539,11.0,,,,70.0,,,,,0,note_on,,0.0,70.0,0.0,49920,130.0
12540,,,,,,,,,,0,end_of_track,,,,,4639099424,12080988.083333332
12541,,,"(74, 65, 90, 50, 1, 0, 0, 0, 0, 0, 0, 0, 0, 0, 0, 0, 0, 0, 0, 0)",,,,,,,0,sequencer_specific,,,,,4639099496,12080988.270833332
12542,,,,,,,,,,0,end_of_track,,,,,4639099568,12080988.458333332
12543,0.0,0.0,,,,,,,,0,control_change,0.0,,,,68300,177.86458333333331
12544,,,"(74, 65, 90, 50, 1, 0, 0, 0, 0, 0, 0, 0, 0, 0, 0, 0, 0, 0, 0, 0)",,,,,,,0,sequencer_specific,,,,,4639099712,12080988.833333332
12545,,,,Sequenced by:,,,,,,0,track_name,,,,,4639099784,12080989.020833332
12546,,,,,,,,,,0,end_of_track,,,,,4639099856,12080989.208333332
12547,0.0,0.0,,,,,,,,0,control_change,0.0,,,,68300,177.86458333333331
12548,,,"(74, 65, 90, 50, 1, 0, 0, 0, 0, 0, 0, 0, 0, 0, 0, 0, 0, 0, 0, 0)",,,,,,,0,sequencer_specific,,,,,4639100000,12080989.583333332
12549,,,,David Butterfield,,,,,,0,track_name,,,,,4639100072,12080989.770833332
12550,,,,,,,,,,0,end_of_track,,,,,4639100144,12080989.958333332
12551,0.0,0.0,,,,,,,,0,control_change,0.0,,,,68300,177.86458333333331
12552,,,"(74, 65, 90, 50, 1, 0, 0, 0, 0, 0, 0, 0, 0, 0, 0, 0, 0, 0, 0, 0)",,,,,,,0,sequencer_specific,,,,,4639100288,12080990.333333332
12553,,,,Oct 27th 2001,,,,,,0,track_name,,,,,4639100360,12080990.520833332
12554,,,,,,,,,,0,end_of_track,,,,,4639100432,12080990.708333332
12555,0.0,0.0,,,,,,,,0,control_change,0.0,,,,68300,177.86458333333331
12556,,,"(74, 65, 90, 50, 1, 0, 0, 0, 0, 0, 0, 0, 0, 0, 0, 0, 0, 0, 0, 0)",,,,,,,0,sequencer_specific,,,,,4639100576,12080991.083333332
12557,,,,Email me at:,,,,,,0,track_name,,,,,4639100648,12080991.270833332
12558,,,,,,,,,,0,end_of_track,,,,,4639100720,12080991.458333332
12559,0.0,0.0,,,,,,,,0,control_change,0.0,,,,68300,177.86458333333331
12560,,,"(74, 65, 90, 50, 1, 0, 0, 0, 0, 0, 0, 0, 0, 0, 0, 0, 0, 0, 0, 0)",,,,,,,0,sequencer_specific,,,,,4639100864,12080991.833333332
12561,,,,chopcloud@hotmail.com,,,,,,0,track_name,,,,,4639109192,12081013.520833332
12562,,,,,,,,,,0,end_of_track,,,,,4639109264,12081013.708333332
12563,,,"(74, 65, 90, 50, 1, 0, 0, 0, 0, 0, 0, 0, 0, 0, 0, 0, 0, 0, 0, 0)",,,,,,,0,sequencer_specific,,,,,4639109336,12081013.895833332
12564,,,,,,,,,,0,end_of_track,,,,,4639109408,12081014.083333332
12565,0.0,0.0,,,,,,,,0,control_change,0.0,,,,68300,177.86458333333331
12566,,,"(74, 65, 90, 50, 1, 0, 0, 0, 0, 0, 0, 0, 0, 0, 0, 0, 0, 0, 0, 0)",,,,,,,0,sequencer_specific,,,,,4639109552,12081014.458333332
12567,,,,I did this using ,,,,,,0,track_name,,,,,4639109624,12081014.645833332
12568,,,,,,,,,,0,end_of_track,,,,,4639109696,12081014.833333332
12569,0.0,0.0,,,,,,,,0,control_change,0.0,,,,68300,177.86458333333331
12570,,,"(74, 65, 90, 50, 1, 0, 0, 0, 0, 0, 0, 0, 0, 0, 0, 0, 0, 0, 0, 0)",,,,,,,0,sequencer_specific,,,,,4639109840,12081015.208333332
12571,,,,a SBLive! sound,,,,,,0,track_name,,,,,4639109912,12081015.395833332
12572,,,,,,,,,,0,end_of_track,,,,,4639109984,12081015.583333332
12573,0.0,0.0,,,,,,,,0,control_change,0.0,,,,68300,177.86458333333331
12574,,,"(74, 65, 90, 50, 1, 0, 0, 0, 0, 0, 0, 0, 0, 0, 0, 0, 0, 0, 0, 0)",,,,,,,0,sequencer_specific,,,,,4639110128,12081015.958333332
12575,,,,"card, so it will",,,,,,0,track_name,,,,,4639110200,12081016.145833332
12576,,,,,,,,,,0,end_of_track,,,,,4639110272,12081016.333333332
12577,0.0,0.0,,,,,,,,0,control_change,0.0,,,,68300,177.86458333333331
12578,,,"(74, 65, 90, 50, 1, 0, 0, 0, 0, 0, 0, 0, 0, 0, 0, 0, 0, 0, 0, 0)",,,,,,,0,sequencer_specific,,,,,4639110416,12081016.708333332
12579,,,,sound best with,,,,,,0,track_name,,,,,4639110488,12081016.895833332
12580,,,,,,,,,,0,end_of_track,,,,,4639110560,12081017.083333332
12581,0.0,0.0,,,,,,,,0,control_change,0.0,,,,68300,177.86458333333331
12582,,,"(74, 65, 90, 50, 1, 0, 0, 0, 0, 0, 0, 0, 0, 0, 0, 0, 0, 0, 0, 0)",,,,,,,0,sequencer_specific,,,,,4639110704,12081017.458333332
12583,,,,one of them .. ,,,,,,0,track_name,,,,,4639110776,12081017.645833332
12584,,,,,,,,,,0,end_of_track,,,,,4639110848,12081017.833333332
12585,0.0,0.0,,,,,,,,0,control_change,0.0,,,,68300,177.86458333333331
12586,,,"(74, 65, 90, 50, 1, 0, 0, 0, 0, 0, 0, 0, 0, 0, 0, 0, 0, 0, 0, 0)",,,,,,,0,sequencer_specific,,,,,4639110992,12081018.208333332
12587,,,,as well as some,,,,,,0,track_name,,,,,4639111064,12081018.395833332
12588,,,,,,,,,,0,end_of_track,,,,,4639111136,12081018.583333332
12589,0.0,0.0,,,,,,,,0,control_change,0.0,,,,68300,177.86458333333331
12590,,,"(74, 65, 90, 50, 1, 0, 0, 0, 0, 0, 0, 0, 0, 0, 0, 0, 0, 0, 0, 0)",,,,,,,0,sequencer_specific,,,,,4639111280,12081018.958333332
12591,,,,kickass sound,,,,,,0,track_name,,,,,4639111352,12081019.145833332
12592,,,,,,,,,,0,end_of_track,,,,,4639111424,12081019.333333332
12593,0.0,0.0,,,,,,,,0,control_change,0.0,,,,68300,177.86458333333331
12594,,,"(74, 65, 90, 50, 1, 0, 0, 0, 0, 0, 0, 0, 0, 0, 0, 0, 0, 0, 0, 0)",,,,,,,0,sequencer_specific,,,,,4639111568,12081019.708333332
12595,,,,fonts!,,,,,,0,track_name,,,,,4639111640,12081019.895833332
12596,,,,,,,,,,0,end_of_track,,,,,4639111712,12081020.083333332
