,channel,clocks_per_click,control,denominator,key,name,notated_32nd_notes_per_beat,note,numerator,pitch,program,tempo,text,time,type,value,velocity,note_midi_value,note_velocity,note_time,note_seconds
0,,,,,,teddy_music@yahoo.com,,,,,,,,0,track_name,,,,,0,0.0
1,,,,,,baby@justin bieber,,,,,,,,0,track_name,,,,,2,0.0010416666666666667
2,,,,,,,,,,,,,Copyright © 2010 @ teddy_music@yahoo.com,0,copyright,,,,,140465019921408,73158864542.4
3,,,,,,,,,,,,,"Teddy Music Entertainment Indonesia 
",0,text,,,,,9,0.0046875
4,,,,,,,,,,,,,"Teddy Ernawan 
",0,text,,,,,0,0.0
5,,,,,,,,,,,,,"BABY_JUSTIN_BIEBER
",0,text,,,,,0,0.0
6,,,,,,,,,,,,,"midi_seq_by;F_Teddy_Ernawan
",0,text,,,,,0,0.0
7,,,,,,,,,,,,,"teddy_music@yahoo.com
",0,text,,,,,0,0.0
8,,,,,,,,,,,,,"teddymusic4u.webs.com
",0,text,,,,,0,0.0
9,,,,,,,,,,,,,"+6281_575_664433
",0,text,,,,,0,0.0
10,,,,,,,,,,,,,"I N D O N E S I A 
",0,text,,,,,0,0.0
11,,,,,,,,,,,,," 
",0,text,,,,,0,0.0
12,,24.0,,4.0,,,8.0,,4.0,,,,,0,time_signature,,,,,0,0.0
13,,,,,C,,,,,,,,,0,key_signature,,,,,0,0.0
14,,,,,,,,,,,,461538.0,,0,set_tempo,,,,,0,0.0
15,,,,,,,,,,,,,teddy_music@yahoo.com       081575 664433,0,marker,,,,,0,0.0
16,0.0,,91.0,,,,,,,,,,,0,control_change,27.0,,,,0,0.0
17,0.0,,0.0,,,,,,,,,,,0,control_change,121.0,,,,0,0.0
18,1.0,,7.0,,,,,,,,,,,0,control_change,101.0,,,,0,0.0
19,1.0,,91.0,,,,,,,,,,,0,control_change,4.0,,,,0,0.0
20,0.0,,0.0,,,,,,,,,,,0,control_change,121.0,,,,0,0.0
21,1.0,,0.0,,,,,,,,,,,0,control_change,121.0,,,,0,0.0
22,3.0,,0.0,,,,,,,,,,,0,control_change,121.0,,,,0,0.0
23,3.0,,32.0,,,,,,,,,,,0,control_change,0.0,,,,0,0.0
24,3.0,,,,,,,,,,82.0,,,0,program_change,,,,,0,0.0
25,3.0,,7.0,,,,,,,,,,,0,control_change,105.0,,,,0,0.0
26,3.0,,91.0,,,,,,,,,,,0,control_change,110.0,,,,0,0.0
27,1.0,,0.0,,,,,,,,,,,0,control_change,121.0,,,,0,0.0
28,3.0,,0.0,,,,,,,,,,,0,control_change,121.0,,,,0,0.0
29,3.0,,,,,,,3.0,,,,,,0,note_on,,1.0,3.0,1.0,0,0.0
30,3.0,,0.0,,,,,,,,,,,0,control_change,121.0,,,,0,0.0
31,5.0,,0.0,,,,,,,,,,,0,control_change,121.0,,,,0,0.0
32,5.0,,7.0,,,,,,,,,,,0,control_change,70.0,,,,0,0.0
33,5.0,,91.0,,,,,,,,,,,0,control_change,88.0,,,,0,0.0
34,5.0,,0.0,,,,,,,,,,,0,control_change,121.0,,,,0,0.0
35,6.0,,0.0,,,,,,,,,,,0,control_change,121.0,,,,0,0.0
36,6.0,,91.0,,,,,,,,,,,0,control_change,90.0,,,,0,0.0
37,6.0,,93.0,,,,,,,,,,,0,control_change,0.0,,,,0,0.0
38,6.0,,0.0,,,,,,,,,,,0,control_change,121.0,,,,0,0.0
39,7.0,,0.0,,,,,,,,,,,0,control_change,121.0,,,,0,0.0
40,7.0,,7.0,,,,,,,,,,,0,control_change,90.0,,,,0,0.0
41,7.0,,10.0,,,,,,,,,,,0,control_change,6.0,,,,0,0.0
42,7.0,,91.0,,,,,,,,,,,0,control_change,100.0,,,,0,0.0
43,7.0,,0.0,,,,,,,,,,,0,control_change,121.0,,,,0,0.0
44,8.0,,0.0,,,,,,,,,,,0,control_change,121.0,,,,0,0.0
45,8.0,,7.0,,,,,,,,,,,0,control_change,90.0,,,,0,0.0
46,8.0,,10.0,,,,,,,,,,,0,control_change,121.0,,,,0,0.0
47,8.0,,91.0,,,,,,,,,,,0,control_change,100.0,,,,0,0.0
48,8.0,,0.0,,,,,,,,,,,0,control_change,121.0,,,,0,0.0
49,9.0,,0.0,,,,,,,,,,,0,control_change,120.0,,,,0,0.0
50,9.0,,7.0,,,,,,,,,,,0,control_change,127.0,,,,0,0.0
51,9.0,,91.0,,,,,,,,,,,0,control_change,40.0,,,,0,0.0
52,9.0,,0.0,,,,,,,,,,,0,control_change,120.0,,,,0,0.0
53,9.0,,0.0,,,,,,,,,,,0,control_change,120.0,,,,0,0.0
54,9.0,,0.0,,,,,,,,,,,0,control_change,120.0,,,,0,0.0
55,10.0,,0.0,,,,,,,,,,,0,control_change,121.0,,,,0,0.0
56,10.0,,7.0,,,,,,,,,,,0,control_change,50.0,,,,0,0.0
57,10.0,,10.0,,,,,,,,,,,0,control_change,0.0,,,,0,0.0
58,10.0,,91.0,,,,,,,,,,,0,control_change,101.0,,,,0,0.0
59,10.0,,0.0,,,,,,,,,,,0,control_change,121.0,,,,0,0.0
60,11.0,,0.0,,,,,,,,,,,0,control_change,121.0,,,,0,0.0
61,11.0,,7.0,,,,,,,,,,,0,control_change,108.0,,,,0,0.0
62,11.0,,91.0,,,,,,,,,,,0,control_change,70.0,,,,0,0.0
63,11.0,,0.0,,,,,,,,,,,0,control_change,121.0,,,,0,0.0
64,12.0,,0.0,,,,,,,,,,,0,control_change,121.0,,,,0,0.0
65,12.0,,7.0,,,,,,,,,,,0,control_change,30.0,,,,0,0.0
66,12.0,,10.0,,,,,,,,,,,0,control_change,127.0,,,,0,0.0
67,,,,,,,,,,,,,BABY JUSTIN BIEBER ,0,lyrics,,,,,0,0.0
68,,,,,,,,,,,,,,0,lyrics,,,,,0,0.0
69,0.0,,32.0,,,,,,,,,,,1,control_change,0.0,,,,1,0.0005208333333333333
70,6.0,,32.0,,,,,,,,,,,0,control_change,0.0,,,,0,0.0
71,1.0,,32.0,,,,,,,,,,,0,control_change,0.0,,,,0,0.0
72,1.0,,32.0,,,,,,,,,,,0,control_change,0.0,,,,0,0.0
73,7.0,,32.0,,,,,,,,,,,0,control_change,0.0,,,,0,0.0
74,7.0,,32.0,,,,,,,,,,,0,control_change,0.0,,,,0,0.0
75,5.0,,32.0,,,,,,,,,,,0,control_change,0.0,,,,0,0.0
76,8.0,,32.0,,,,,,,,,,,0,control_change,0.0,,,,0,0.0
77,8.0,,32.0,,,,,,,,,,,0,control_change,0.0,,,,0,0.0
78,6.0,,32.0,,,,,,,,,,,0,control_change,0.0,,,,0,0.0
79,9.0,,32.0,,,,,,,,,,,0,control_change,0.0,,,,0,0.0
80,9.0,,32.0,,,,,,,,,,,0,control_change,0.0,,,,0,0.0
81,9.0,,32.0,,,,,,,,,,,0,control_change,0.0,,,,0,0.0
82,9.0,,32.0,,,,,,,,,,,0,control_change,0.0,,,,0,0.0
83,3.0,,32.0,,,,,,,,,,,0,control_change,0.0,,,,0,0.0
84,5.0,,32.0,,,,,,,,,,,0,control_change,0.0,,,,0,0.0
85,10.0,,32.0,,,,,,,,,,,0,control_change,0.0,,,,0,0.0
86,3.0,,32.0,,,,,,,,,,,0,control_change,0.0,,,,0,0.0
87,10.0,,32.0,,,,,,,,,,,0,control_change,0.0,,,,0,0.0
88,11.0,,32.0,,,,,,,,,,,0,control_change,0.0,,,,0,0.0
89,0.0,,32.0,,,,,,,,,,,0,control_change,0.0,,,,1,0.0005208333333333333
90,11.0,,32.0,,,,,,,,,,,0,control_change,0.0,,,,0,0.0
91,12.0,,32.0,,,,,,,,,,,0,control_change,0.0,,,,0,0.0
92,5.0,,,,,,,,,,50.0,,,1,program_change,,,,,1,0.0005208333333333333
93,8.0,,,,,,,,,,90.0,,,0,program_change,,,,,0,0.0
94,1.0,,,,,,,,,,35.0,,,0,program_change,,,,,0,0.0
95,3.0,,,,,,,,,,82.0,,,0,program_change,,,,,0,0.0
96,9.0,,,,,,,,,,25.0,,,0,program_change,,,,,0,0.0
97,0.0,,,,,,,,,,0.0,,,0,program_change,,,,,1,0.0005208333333333333
98,7.0,,,,,,,,,,90.0,,,0,program_change,,,,,0,0.0
99,10.0,,,,,,,,,,24.0,,,0,program_change,,,,,0,0.0
100,9.0,,,,,,,,,,25.0,,,0,program_change,,,,,0,0.0
101,6.0,,,,,,,,,,53.0,,,0,program_change,,,,,0,0.0
102,11.0,,,,,,,,,,24.0,,,0,program_change,,,,,0,0.0
103,12.0,,0.0,,,,,,,,,,,0,control_change,121.0,,,,0,0.0
104,12.0,,32.0,,,,,,,,,,,0,control_change,0.0,,,,0,0.0
105,12.0,,,,,,,,,,24.0,,,0,program_change,,,,,0,0.0
106,3.0,,,,,,,3.0,,,,,,238,note_on,,0.0,3.0,0.0,238,0.12395833333333334
107,3.0,,,,,,,3.0,,,,,,1680,note_on,,1.0,3.0,1.0,1918,0.9989583333333333
108,,,,,,,,,,,,,midi seq by;F Teddy Ernawan ,0,lyrics,,,,,0,0.0
109,,,,,,,,,,,,,,0,lyrics,,,,,0,0.0
110,3.0,,,,,,,3.0,,,,,,240,note_on,,0.0,3.0,0.0,2158,1.1239583333333334
111,11.0,,0.0,,,,,,,,,,,1678,control_change,121.0,,,,1678,0.8739583333333333
112,11.0,,0.0,,,,,,,,,,,0,control_change,121.0,,,,1678,0.8739583333333333
113,11.0,,32.0,,,,,,,,,,,1,control_change,0.0,,,,1679,0.8744791666666667
114,11.0,,32.0,,,,,,,,,,,0,control_change,0.0,,,,1679,0.8744791666666667
115,3.0,,,,,,,3.0,,,,,,1,note_on,,1.0,3.0,1.0,2159,1.1244791666666667
116,11.0,,,,,,,67.0,,,,,,0,note_on,,127.0,67.0,127.0,1679,0.8744791666666667
117,11.0,,,,,,,63.0,,,,,,0,note_on,,127.0,63.0,127.0,1679,0.8744791666666667
118,11.0,,,,,,,70.0,,,,,,0,note_on,,126.0,70.0,126.0,1679,0.8744791666666667
119,11.0,,,,,,,,,,24.0,,,0,program_change,,,,,1679,0.8744791666666667
120,,,,,,,,,,,,,teddy music@yahoo.com ,0,lyrics,,,,,0,0.0
121,,,,,,,,,,,,,,0,lyrics,,,,,0,0.0
122,3.0,,,,,,,3.0,,,,,,240,note_on,,0.0,3.0,0.0,2399,1.2494791666666667
123,11.0,,,,,,,63.0,,,,,,157,note_on,,0.0,63.0,0.0,1836,0.9562499999999999
124,11.0,,,,,,,67.0,,,,,,10,note_on,,0.0,67.0,0.0,1846,0.9614583333333333
125,11.0,,,,,,,70.0,,,,,,52,note_on,,0.0,70.0,0.0,1898,0.9885416666666667
126,10.0,,0.0,,,,,,,,,,,19,control_change,121.0,,,,19,0.009895833333333333
127,10.0,,32.0,,,,,,,,,,,1,control_change,0.0,,,,20,0.010416666666666666
128,10.0,,,,,,,,,,24.0,,,1,program_change,,,,,21,0.0109375
129,10.0,,,,,,,67.0,,,,,,0,note_on,,127.0,67.0,127.0,21,0.0109375
130,10.0,,,,,,,63.0,,,,,,0,note_on,,127.0,63.0,127.0,21,0.0109375
131,10.0,,,,,,,70.0,,,,,,0,note_on,,126.0,70.0,126.0,21,0.0109375
132,10.0,,,,,,,63.0,,,,,,397,note_on,,0.0,63.0,0.0,418,0.21770833333333334
133,10.0,,,,,,,67.0,,,,,,10,note_on,,0.0,67.0,0.0,428,0.22291666666666665
134,10.0,,,,,,,70.0,,,,,,52,note_on,,0.0,70.0,0.0,480,0.25
135,12.0,,0.0,,,,,,,,,,,19,control_change,121.0,,,,19,0.009895833333333333
136,12.0,,32.0,,,,,,,,,,,1,control_change,0.0,,,,20,0.010416666666666666
137,12.0,,,,,,,,,,24.0,,,1,program_change,,,,,21,0.0109375
138,12.0,,,,,,,67.0,,,,,,0,note_on,,127.0,67.0,127.0,21,0.0109375
139,12.0,,,,,,,63.0,,,,,,0,note_on,,127.0,63.0,127.0,21,0.0109375
140,12.0,,,,,,,70.0,,,,,,0,note_on,,126.0,70.0,126.0,21,0.0109375
141,12.0,,,,,,,63.0,,,,,,397,note_on,,0.0,63.0,0.0,418,0.21770833333333334
142,12.0,,,,,,,67.0,,,,,,10,note_on,,0.0,67.0,0.0,428,0.22291666666666665
143,12.0,,,,,,,70.0,,,,,,52,note_on,,0.0,70.0,0.0,480,0.25
144,3.0,,,,,,,3.0,,,,,,501,note_on,,1.0,3.0,1.0,2900,1.5104166666666667
145,,,,,,,,,,,,,teddymusic4u.webs.com ,0,lyrics,,,,,0,0.0
146,,,,,,,,,,,,,,0,lyrics,,,,,0,0.0
147,3.0,,,,,,,3.0,,,,,,240,note_on,,0.0,3.0,0.0,3140,1.6354166666666667
148,11.0,,,,,,,67.0,,,,,,720,note_on,,127.0,67.0,127.0,2618,1.3635416666666667
149,11.0,,,,,,,72.0,,,,,,0,note_on,,127.0,72.0,127.0,2618,1.3635416666666667
150,11.0,,,,,,,63.0,,,,,,0,note_on,,127.0,63.0,127.0,2618,1.3635416666666667
151,11.0,,,,,,,63.0,,,,,,365,note_on,,0.0,63.0,0.0,2983,1.5536458333333334
152,11.0,,,,,,,72.0,,,,,,15,note_on,,0.0,72.0,0.0,2998,1.5614583333333334
153,11.0,,,,,,,67.0,,,,,,8,note_on,,0.0,67.0,0.0,3006,1.565625
154,10.0,,,,,,,67.0,,,,,,92,note_on,,127.0,67.0,127.0,572,0.29791666666666666
155,10.0,,,,,,,72.0,,,,,,0,note_on,,127.0,72.0,127.0,572,0.29791666666666666
156,10.0,,,,,,,63.0,,,,,,0,note_on,,127.0,63.0,127.0,572,0.29791666666666666
157,11.0,,,,,,,67.0,,,,,,0,note_on,,127.0,67.0,127.0,3006,1.565625
158,11.0,,,,,,,70.0,,,,,,0,note_on,,118.0,70.0,118.0,3006,1.565625
159,11.0,,,,,,,63.0,,,,,,0,note_on,,127.0,63.0,127.0,3006,1.565625
160,10.0,,,,,,,63.0,,,,,,365,note_on,,0.0,63.0,0.0,937,0.48802083333333335
161,10.0,,,,,,,72.0,,,,,,15,note_on,,0.0,72.0,0.0,952,0.49583333333333335
162,10.0,,,,,,,67.0,,,,,,8,note_on,,0.0,67.0,0.0,960,0.5
163,11.0,,,,,,,70.0,,,,,,38,note_on,,0.0,70.0,0.0,3044,1.5854166666666667
164,11.0,,,,,,,63.0,,,,,,0,note_on,,0.0,63.0,0.0,3044,1.5854166666666667
165,11.0,,,,,,,67.0,,,,,,3,note_on,,0.0,67.0,0.0,3047,1.5869791666666666
166,3.0,,,,,,,3.0,,,,,,51,note_on,,1.0,3.0,1.0,3191,1.6619791666666666
167,10.0,,,,,,,67.0,,,,,,0,note_on,,127.0,67.0,127.0,960,0.5
168,10.0,,,,,,,70.0,,,,,,0,note_on,,118.0,70.0,118.0,960,0.5
169,10.0,,,,,,,63.0,,,,,,0,note_on,,127.0,63.0,127.0,960,0.5
170,12.0,,,,,,,67.0,,,,,,0,note_on,,127.0,67.0,127.0,480,0.25
171,12.0,,,,,,,72.0,,,,,,0,note_on,,127.0,72.0,127.0,480,0.25
172,12.0,,,,,,,63.0,,,,,,0,note_on,,127.0,63.0,127.0,480,0.25
173,,,,,,,,,,,,,+6281 575 664433 ,0,lyrics,,,,,0,0.0
174,,,,,,,,,,,,,,0,lyrics,,,,,0,0.0
175,3.0,,,,,,,3.0,,,,,,240,note_on,,0.0,3.0,0.0,3431,1.7869791666666666
176,12.0,,,,,,,63.0,,,,,,125,note_on,,0.0,63.0,0.0,605,0.3151041666666667
177,12.0,,,,,,,72.0,,,,,,15,note_on,,0.0,72.0,0.0,620,0.3229166666666667
178,12.0,,,,,,,67.0,,,,,,8,note_on,,0.0,67.0,0.0,628,0.32708333333333334
179,10.0,,,,,,,63.0,,,,,,38,note_on,,0.0,63.0,0.0,998,0.5197916666666667
180,10.0,,,,,,,70.0,,,,,,0,note_on,,0.0,70.0,0.0,998,0.5197916666666667
181,10.0,,,,,,,67.0,,,,,,3,note_on,,0.0,67.0,0.0,1001,0.5213541666666667
182,12.0,,,,,,,67.0,,,,,,51,note_on,,127.0,67.0,127.0,679,0.3536458333333333
183,12.0,,,,,,,70.0,,,,,,0,note_on,,118.0,70.0,118.0,679,0.3536458333333333
184,12.0,,,,,,,63.0,,,,,,0,note_on,,127.0,63.0,127.0,679,0.3536458333333333
185,12.0,,,,,,,63.0,,,,,,426,note_on,,0.0,63.0,0.0,1105,0.5755208333333334
186,12.0,,,,,,,70.0,,,,,,0,note_on,,0.0,70.0,0.0,1105,0.5755208333333334
187,12.0,,,,,,,67.0,,,,,,3,note_on,,0.0,67.0,0.0,1108,0.5770833333333333
188,3.0,,,,,,,75.0,,,,,,51,note_on,,127.0,75.0,127.0,3482,1.8135416666666666
189,,,,,,,,,,,,,O ,0,lyrics,,,,,0,0.0
190,3.0,,,,,,,77.0,,,,,,480,note_on,,113.0,77.0,113.0,3962,2.0635416666666666
191,,,,,,,,,,,,,u ,0,lyrics,,,,,0,0.0
192,3.0,,,,,,,75.0,,,,,,60,note_on,,0.0,75.0,0.0,4022,2.0947916666666666
193,3.0,,,,,,,79.0,,,,,,420,note_on,,116.0,79.0,116.0,4442,2.3135416666666666
194,,,,,,,,,,,,,o ,0,lyrics,,,,,0,0.0
195,3.0,,,,,,,77.0,,,,,,89,note_on,,0.0,77.0,0.0,4531,2.3598958333333333
196,3.0,,,,,,,77.0,,,,,,391,note_on,,99.0,77.0,99.0,4922,2.5635416666666666
197,,,,,,,,,,,,,u ,0,lyrics,,,,,0,0.0
198,3.0,,,,,,,79.0,,,,,,136,note_on,,0.0,79.0,0.0,5058,2.634375
199,3.0,,,,,,,75.0,,,,,,344,note_on,,127.0,75.0,127.0,5402,2.8135416666666666
200,,,,,,,,,,,,,o ,0,lyrics,,,,,0,0.0
201,3.0,,,,,,,77.0,,,,,,146,note_on,,0.0,77.0,0.0,5548,2.8895833333333334
202,3.0,,,,,,,74.0,,,,,,334,note_on,,94.0,74.0,94.0,5882,3.0635416666666666
203,,,,,,,,,,,,,u ,0,lyrics,,,,,0,0.0
204,3.0,,,,,,,75.0,,,,,,22,note_on,,0.0,75.0,0.0,5904,3.075
205,3.0,,,,,,,72.0,,,,,,458,note_on,,127.0,72.0,127.0,6362,3.3135416666666666
206,11.0,,,,,,,63.0,,,,,,0,note_on,,127.0,63.0,127.0,3047,1.5869791666666666
207,11.0,,,,,,,60.0,,,,,,0,note_on,,127.0,60.0,127.0,3047,1.5869791666666666
208,11.0,,,,,,,67.0,,,,,,0,note_on,,127.0,67.0,127.0,3047,1.5869791666666666
209,,,,,,,,,,,,,a ,0,lyrics,,,,,0,0.0
210,3.0,,,,,,,74.0,,,,,,97,note_on,,0.0,74.0,0.0,6459,3.3640624999999997
211,11.0,,,,,,,60.0,,,,,,307,note_on,,0.0,60.0,0.0,3354,1.746875
212,11.0,,,,,,,63.0,,,,,,32,note_on,,0.0,63.0,0.0,3386,1.7635416666666666
213,11.0,,,,,,,67.0,,,,,,6,note_on,,0.0,67.0,0.0,3392,1.7666666666666666
214,10.0,,,,,,,63.0,,,,,,38,note_on,,127.0,63.0,127.0,1039,0.5411458333333333
215,10.0,,,,,,,60.0,,,,,,0,note_on,,127.0,60.0,127.0,1039,0.5411458333333333
216,10.0,,,,,,,67.0,,,,,,0,note_on,,127.0,67.0,127.0,1039,0.5411458333333333
217,3.0,,,,,,,72.0,,,,,,315,note_on,,0.0,72.0,0.0,6774,3.5281249999999997
218,10.0,,,,,,,60.0,,,,,,89,note_on,,0.0,60.0,0.0,1128,0.5875
219,10.0,,,,,,,63.0,,,,,,32,note_on,,0.0,63.0,0.0,1160,0.6041666666666666
220,10.0,,,,,,,67.0,,,,,,6,note_on,,0.0,67.0,0.0,1166,0.6072916666666667
221,12.0,,,,,,,63.0,,,,,,38,note_on,,127.0,63.0,127.0,1146,0.596875
222,12.0,,,,,,,60.0,,,,,,0,note_on,,127.0,60.0,127.0,1146,0.596875
223,12.0,,,,,,,67.0,,,,,,0,note_on,,127.0,67.0,127.0,1146,0.596875
224,12.0,,,,,,,60.0,,,,,,404,note_on,,0.0,60.0,0.0,1550,0.8072916666666666
225,12.0,,,,,,,63.0,,,,,,32,note_on,,0.0,63.0,0.0,1582,0.8239583333333333
226,12.0,,,,,,,67.0,,,,,,6,note_on,,0.0,67.0,0.0,1588,0.8270833333333333
227,11.0,,,,,,,68.0,,,,,,1478,note_on,,127.0,68.0,127.0,4870,2.5364583333333335
228,11.0,,,,,,,60.0,,,,,,0,note_on,,127.0,60.0,127.0,4870,2.5364583333333335
229,11.0,,,,,,,63.0,,,,,,0,note_on,,127.0,63.0,127.0,4870,2.5364583333333335
230,11.0,,,,,,,68.0,,,,,,385,note_on,,0.0,68.0,0.0,5255,2.7369791666666665
231,11.0,,,,,,,60.0,,,,,,4,note_on,,0.0,60.0,0.0,5259,2.7390625
232,11.0,,,,,,,63.0,,,,,,19,note_on,,0.0,63.0,0.0,5278,2.7489583333333334
233,10.0,,,,,,,68.0,,,,,,72,note_on,,127.0,68.0,127.0,1238,0.6447916666666667
234,10.0,,,,,,,60.0,,,,,,0,note_on,,127.0,60.0,127.0,1238,0.6447916666666667
235,10.0,,,,,,,63.0,,,,,,0,note_on,,127.0,63.0,127.0,1238,0.6447916666666667
236,11.0,,,,,,,63.0,,,,,,0,note_on,,127.0,63.0,127.0,5278,2.7489583333333334
237,11.0,,,,,,,60.0,,,,,,0,note_on,,127.0,60.0,127.0,5278,2.7489583333333334
238,11.0,,,,,,,67.0,,,,,,0,note_on,,127.0,67.0,127.0,5278,2.7489583333333334
239,11.0,,,,,,,60.0,,,,,,371,note_on,,0.0,60.0,0.0,5649,2.9421875
240,11.0,,,,,,,67.0,,,,,,11,note_on,,0.0,67.0,0.0,5660,2.9479166666666665
241,10.0,,,,,,,68.0,,,,,,3,note_on,,0.0,68.0,0.0,1241,0.6463541666666667
242,10.0,,,,,,,60.0,,,,,,4,note_on,,0.0,60.0,0.0,1245,0.6484375
243,10.0,,,,,,,63.0,,,,,,19,note_on,,0.0,63.0,0.0,1264,0.6583333333333333
244,11.0,,,,,,,63.0,,,,,,18,note_on,,0.0,63.0,0.0,5678,2.9572916666666664
245,10.0,,,,,,,63.0,,,,,,54,note_on,,127.0,63.0,127.0,1318,0.6864583333333333
246,10.0,,,,,,,60.0,,,,,,0,note_on,,127.0,60.0,127.0,1318,0.6864583333333333
247,10.0,,,,,,,67.0,,,,,,0,note_on,,127.0,67.0,127.0,1318,0.6864583333333333
248,12.0,,,,,,,68.0,,,,,,0,note_on,,127.0,68.0,127.0,1588,0.8270833333333333
249,12.0,,,,,,,60.0,,,,,,0,note_on,,127.0,60.0,127.0,1588,0.8270833333333333
250,12.0,,,,,,,63.0,,,,,,0,note_on,,127.0,63.0,127.0,1588,0.8270833333333333
251,10.0,,,,,,,60.0,,,,,,371,note_on,,0.0,60.0,0.0,1689,0.8796875
252,10.0,,,,,,,67.0,,,,,,11,note_on,,0.0,67.0,0.0,1700,0.8854166666666666
253,12.0,,,,,,,68.0,,,,,,3,note_on,,0.0,68.0,0.0,1591,0.8286458333333333
254,12.0,,,,,,,60.0,,,,,,4,note_on,,0.0,60.0,0.0,1595,0.8307291666666666
255,12.0,,,,,,,63.0,,,,,,19,note_on,,0.0,63.0,0.0,1614,0.840625
256,10.0,,,,,,,63.0,,,,,,18,note_on,,0.0,63.0,0.0,1718,0.8947916666666667
257,12.0,,,,,,,63.0,,,,,,54,note_on,,127.0,63.0,127.0,1668,0.86875
258,12.0,,,,,,,60.0,,,,,,0,note_on,,127.0,60.0,127.0,1668,0.86875
259,12.0,,,,,,,67.0,,,,,,0,note_on,,127.0,67.0,127.0,1668,0.86875
260,12.0,,,,,,,60.0,,,,,,371,note_on,,0.0,60.0,0.0,2039,1.0619791666666667
261,12.0,,,,,,,67.0,,,,,,11,note_on,,0.0,67.0,0.0,2050,1.0677083333333333
262,12.0,,,,,,,63.0,,,,,,44,note_on,,0.0,63.0,0.0,2094,1.090625
263,3.0,,,,,,,75.0,,,,,,54,note_on,,127.0,75.0,127.0,6828,3.55625
264,,,,,,,,,,,,,O ,0,lyrics,,,,,0,0.0
265,3.0,,,,,,,77.0,,,,,,480,note_on,,118.0,77.0,118.0,7308,3.80625
266,,,,,,,,,,,,,u ,0,lyrics,,,,,0,0.0
267,3.0,,,,,,,75.0,,,,,,1,note_on,,0.0,75.0,0.0,7309,3.806770833333333
268,3.0,,,,,,,79.0,,,,,,479,note_on,,111.0,79.0,111.0,7788,4.05625
269,,,,,,,,,,,,,o ,0,lyrics,,,,,0,0.0
270,3.0,,,,,,,77.0,,,,,,87,note_on,,0.0,77.0,0.0,7875,4.1015625
271,3.0,,,,,,,77.0,,,,,,393,note_on,,105.0,77.0,105.0,8268,4.30625
272,,,,,,,,,,,,,u ,0,lyrics,,,,,0,0.0
273,3.0,,,,,,,79.0,,,,,,90,note_on,,0.0,79.0,0.0,8358,4.353125
274,3.0,,,,,,,75.0,,,,,,390,note_on,,127.0,75.0,127.0,8748,4.55625
275,,,,,,,,,,,,,o ,0,lyrics,,,,,0,0.0
276,3.0,,,,,,,77.0,,,,,,20,note_on,,0.0,77.0,0.0,8768,4.566666666666666
277,3.0,,,,,,,77.0,,,,,,460,note_on,,116.0,77.0,116.0,9228,4.80625
278,,,,,,,,,,,,,u ,0,lyrics,,,,,0,0.0
279,3.0,,,,,,,75.0,,,,,,16,note_on,,0.0,75.0,0.0,9244,4.814583333333333
280,3.0,,,,,,,75.0,,,,,,464,note_on,,127.0,75.0,127.0,9708,5.05625
281,11.0,,,,,,,60.0,,,,,,0,note_on,,127.0,60.0,127.0,5678,2.9572916666666664
282,11.0,,,,,,,56.0,,,,,,0,note_on,,127.0,56.0,127.0,5678,2.9572916666666664
283,11.0,,,,,,,63.0,,,,,,0,note_on,,127.0,63.0,127.0,5678,2.9572916666666664
284,,,,,,,,,,,,,o ,0,lyrics,,,,,0,0.0
285,3.0,,,,,,,77.0,,,,,,99,note_on,,0.0,77.0,0.0,9807,5.1078125
286,11.0,,,,,,,56.0,,,,,,332,note_on,,0.0,56.0,0.0,6010,3.1302083333333335
287,11.0,,,,,,,60.0,,,,,,25,note_on,,0.0,60.0,0.0,6035,3.1432291666666665
288,10.0,,,,,,,60.0,,,,,,24,note_on,,127.0,60.0,127.0,1742,0.9072916666666666
289,10.0,,,,,,,56.0,,,,,,0,note_on,,127.0,56.0,127.0,1742,0.9072916666666666
290,10.0,,,,,,,63.0,,,,,,0,note_on,,127.0,63.0,127.0,1742,0.9072916666666666
291,11.0,,,,,,,63.0,,,,,,9,note_on,,0.0,63.0,0.0,6044,3.1479166666666667
292,10.0,,,,,,,56.0,,,,,,422,note_on,,0.0,56.0,0.0,2164,1.1270833333333332
293,10.0,,,,,,,60.0,,,,,,25,note_on,,0.0,60.0,0.0,2189,1.1401041666666667
294,3.0,,,,,,,72.0,,,,,,24,note_on,,125.0,72.0,125.0,9831,5.1203125
295,12.0,,,,,,,60.0,,,,,,0,note_on,,127.0,60.0,127.0,2094,1.090625
296,12.0,,,,,,,56.0,,,,,,0,note_on,,127.0,56.0,127.0,2094,1.090625
297,12.0,,,,,,,63.0,,,,,,0,note_on,,127.0,63.0,127.0,2094,1.090625
298,,,,,,,,,,,,,a ,0,lyrics,,,,,0,0.0
299,3.0,,,,,,,75.0,,,,,,3,note_on,,0.0,75.0,0.0,9834,5.121875
300,10.0,,,,,,,63.0,,,,,,6,note_on,,0.0,63.0,0.0,2195,1.1432291666666667
301,12.0,,,,,,,56.0,,,,,,422,note_on,,0.0,56.0,0.0,2516,1.3104166666666666
302,12.0,,,,,,,60.0,,,,,,25,note_on,,0.0,60.0,0.0,2541,1.3234375
303,12.0,,,,,,,63.0,,,,,,33,note_on,,0.0,63.0,0.0,2574,1.340625
304,3.0,,,,,,,72.0,,,,,,242,note_on,,0.0,72.0,0.0,10076,5.247916666666667
305,11.0,,,,,,,60.0,,,,,,1189,note_on,,127.0,60.0,127.0,7233,3.7671875
306,11.0,,,,,,,65.0,,,,,,0,note_on,,127.0,65.0,127.0,7233,3.7671875
307,11.0,,,,,,,56.0,,,,,,0,note_on,,127.0,56.0,127.0,7233,3.7671875
308,11.0,,,,,,,65.0,,,,,,384,note_on,,0.0,65.0,0.0,7617,3.9671875
309,11.0,,,,,,,56.0,,,,,,10,note_on,,0.0,56.0,0.0,7627,3.972395833333333
310,11.0,,,,,,,60.0,,,,,,21,note_on,,0.0,60.0,0.0,7648,3.9833333333333334
311,10.0,,,,,,,60.0,,,,,,65,note_on,,127.0,60.0,127.0,2260,1.1770833333333333
312,10.0,,,,,,,65.0,,,,,,0,note_on,,127.0,65.0,127.0,2260,1.1770833333333333
313,10.0,,,,,,,56.0,,,,,,0,note_on,,127.0,56.0,127.0,2260,1.1770833333333333
314,11.0,,,,,,,60.0,,,,,,0,note_on,,127.0,60.0,127.0,7648,3.9833333333333334
315,11.0,,,,,,,56.0,,,,,,0,note_on,,124.0,56.0,124.0,7648,3.9833333333333334
316,11.0,,,,,,,63.0,,,,,,0,note_on,,127.0,63.0,127.0,7648,3.9833333333333334
317,10.0,,,,,,,65.0,,,,,,384,note_on,,0.0,65.0,0.0,2644,1.3770833333333332
318,10.0,,,,,,,56.0,,,,,,10,note_on,,0.0,56.0,0.0,2654,1.3822916666666667
319,10.0,,,,,,,60.0,,,,,,21,note_on,,0.0,60.0,0.0,2675,1.3932291666666667
320,11.0,,,,,,,56.0,,,,,,46,note_on,,0.0,56.0,0.0,7694,4.007291666666666
321,10.0,,,,,,,60.0,,,,,,19,note_on,,127.0,60.0,127.0,2694,1.403125
322,10.0,,,,,,,56.0,,,,,,0,note_on,,124.0,56.0,124.0,2694,1.403125
323,10.0,,,,,,,63.0,,,,,,0,note_on,,127.0,63.0,127.0,2694,1.403125
324,12.0,,,,,,,60.0,,,,,,0,note_on,,127.0,60.0,127.0,2574,1.340625
325,12.0,,,,,,,65.0,,,,,,0,note_on,,127.0,65.0,127.0,2574,1.340625
326,12.0,,,,,,,56.0,,,,,,0,note_on,,127.0,56.0,127.0,2574,1.340625
327,11.0,,,,,,,63.0,,,,,,14,note_on,,0.0,63.0,0.0,7708,4.014583333333333
328,11.0,,,,,,,60.0,,,,,,6,note_on,,0.0,60.0,0.0,7714,4.017708333333333
329,12.0,,,,,,,65.0,,,,,,364,note_on,,0.0,65.0,0.0,2938,1.5302083333333334
330,12.0,,,,,,,56.0,,,,,,10,note_on,,0.0,56.0,0.0,2948,1.5354166666666667
331,12.0,,,,,,,60.0,,,,,,21,note_on,,0.0,60.0,0.0,2969,1.5463541666666667
332,10.0,,,,,,,56.0,,,,,,46,note_on,,0.0,56.0,0.0,2740,1.4270833333333333
333,12.0,,,,,,,60.0,,,,,,19,note_on,,127.0,60.0,127.0,2988,1.55625
334,12.0,,,,,,,56.0,,,,,,0,note_on,,124.0,56.0,124.0,2988,1.55625
335,12.0,,,,,,,63.0,,,,,,0,note_on,,127.0,63.0,127.0,2988,1.55625
336,10.0,,,,,,,63.0,,,,,,14,note_on,,0.0,63.0,0.0,2754,1.434375
337,10.0,,,,,,,60.0,,,,,,6,note_on,,0.0,60.0,0.0,2760,1.4375
338,12.0,,,,,,,56.0,,,,,,441,note_on,,0.0,56.0,0.0,3429,1.7859375
339,3.0,,,,,,,75.0,,,,,,12,note_on,,127.0,75.0,127.0,10088,5.254166666666666
340,,,,,,,,,,,,,O ,0,lyrics,,,,,0,0.0
341,12.0,,,,,,,63.0,,,,,,21,note_on,,0.0,63.0,0.0,3450,1.796875
342,12.0,,,,,,,60.0,,,,,,6,note_on,,0.0,60.0,0.0,3456,1.8
343,3.0,,,,,,,77.0,,,,,,469,note_on,,108.0,77.0,108.0,10557,5.4984375
344,,,,,,,,,,,,,u ,0,lyrics,,,,,0,0.0
345,3.0,,,,,,,75.0,,,,,,68,note_on,,0.0,75.0,0.0,10625,5.533854166666667
346,3.0,,,,,,,77.0,,,,,,349,note_on,,0.0,77.0,0.0,10974,5.715625
347,3.0,,,,,,,79.0,,,,,,22,note_on,,110.0,79.0,110.0,10996,5.727083333333333
348,,,,,,,,,,,,,o ,0,lyrics,,,,,0,0.0
349,3.0,,,,,,,77.0,,,,,,484,note_on,,104.0,77.0,104.0,11480,5.979166666666667
350,,,,,,,,,,,,,u ,0,lyrics,,,,,0,0.0
351,3.0,,,,,,,79.0,,,,,,100,note_on,,0.0,79.0,0.0,11580,6.03125
352,3.0,,,,,,,75.0,,,,,,467,note_on,,125.0,75.0,125.0,12047,6.274479166666667
353,,,,,,,,,,,,,o ,0,lyrics,,,,,0,0.0
354,3.0,,,,,,,77.0,,,,,,76,note_on,,0.0,77.0,0.0,12123,6.3140625
355,3.0,,,,,,,77.0,,,,,,392,note_on,,108.0,77.0,108.0,12515,6.518229166666667
356,,,,,,,,,,,,,u ,0,lyrics,,,,,0,0.0
357,3.0,,,,,,,75.0,,,,,,69,note_on,,0.0,75.0,0.0,12584,6.554166666666666
358,11.0,,,,,,,62.0,,,,,,364,note_on,,127.0,62.0,127.0,8078,4.207291666666666
359,11.0,,,,,,,58.0,,,,,,0,note_on,,127.0,58.0,127.0,8078,4.207291666666666
360,11.0,,,,,,,65.0,,,,,,0,note_on,,127.0,65.0,127.0,8078,4.207291666666666
361,3.0,,,,,,,75.0,,,,,,84,note_on,,120.0,75.0,120.0,12668,6.597916666666666
362,,,,,,,,,,,,,o ,0,lyrics,,,,,0,0.0
363,3.0,,,,,,,77.0,,,,,,73,note_on,,0.0,77.0,0.0,12741,6.6359375
364,11.0,,,,,,,58.0,,,,,,317,note_on,,0.0,58.0,0.0,8395,4.372395833333333
365,10.0,,,,,,,62.0,,,,,,6,note_on,,127.0,62.0,127.0,2766,1.440625
366,10.0,,,,,,,58.0,,,,,,0,note_on,,127.0,58.0,127.0,2766,1.440625
367,10.0,,,,,,,65.0,,,,,,0,note_on,,127.0,65.0,127.0,2766,1.440625
368,11.0,,,,,,,65.0,,,,,,47,note_on,,0.0,65.0,0.0,8442,4.396875
369,11.0,,,,,,,62.0,,,,,,2,note_on,,0.0,62.0,0.0,8444,4.397916666666666
370,3.0,,,,,,,74.0,,,,,,242,note_on,,93.0,74.0,93.0,12983,6.761979166666666
371,,,,,,,,,,,,,a ,0,lyrics,,,,,0,0.0
372,3.0,,,,,,,75.0,,,,,,23,note_on,,0.0,75.0,0.0,13006,6.773958333333333
373,10.0,,,,,,,58.0,,,,,,160,note_on,,0.0,58.0,0.0,2926,1.5239583333333333
374,12.0,,,,,,,62.0,,,,,,6,note_on,,127.0,62.0,127.0,3462,1.8031249999999999
375,12.0,,,,,,,58.0,,,,,,0,note_on,,127.0,58.0,127.0,3462,1.8031249999999999
376,12.0,,,,,,,65.0,,,,,,0,note_on,,127.0,65.0,127.0,3462,1.8031249999999999
377,10.0,,,,,,,65.0,,,,,,47,note_on,,0.0,65.0,0.0,2973,1.5484375
378,10.0,,,,,,,62.0,,,,,,2,note_on,,0.0,62.0,0.0,2975,1.5494791666666667
379,12.0,,,,,,,58.0,,,,,,425,note_on,,0.0,58.0,0.0,3887,2.0244791666666666
380,12.0,,,,,,,65.0,,,,,,53,note_on,,0.0,65.0,0.0,3940,2.0520833333333335
381,12.0,,,,,,,62.0,,,,,,2,note_on,,0.0,62.0,0.0,3942,2.053125
382,3.0,,,,,,,72.0,,,,,,40,note_on,,116.0,72.0,116.0,13046,6.794791666666667
383,,,,,,,,,,,,,a ,0,lyrics,,,,,0,0.0
384,3.0,,,,,,,74.0,,,,,,29,note_on,,0.0,74.0,0.0,13075,6.809895833333333
385,3.0,,,,,,,74.0,,,,,,770,note_on,,102.0,74.0,102.0,13845,7.2109375
386,,,,,,,,,,,,,a ,0,lyrics,,,,,0,0.0
387,3.0,,,,,,,72.0,,,,,,70,note_on,,0.0,72.0,0.0,13915,7.247395833333333
388,11.0,,,,,,,62.0,,,,,,482,note_on,,127.0,62.0,127.0,8926,4.648958333333333
389,11.0,,,,,,,67.0,,,,,,0,note_on,,127.0,67.0,127.0,8926,4.648958333333333
390,11.0,,,,,,,58.0,,,,,,0,note_on,,127.0,58.0,127.0,8926,4.648958333333333
391,3.0,,,,,,,72.0,,,,,,220,note_on,,103.0,72.0,103.0,14135,7.361979166666667
392,,,,,,,,,,,,,a ,0,lyrics,,,,,0,0.0
393,3.0,,,,,,,74.0,,,,,,104,note_on,,0.0,74.0,0.0,14239,7.416145833333333
394,11.0,,,,,,,67.0,,,,,,43,note_on,,0.0,67.0,0.0,8969,4.671354166666666
395,11.0,,,,,,,58.0,,,,,,11,note_on,,0.0,58.0,0.0,8980,4.677083333333333
396,11.0,,,,,,,62.0,,,,,,36,note_on,,0.0,62.0,0.0,9016,4.695833333333333
397,10.0,,,,,,,62.0,,,,,,66,note_on,,127.0,62.0,127.0,3041,1.5838541666666666
398,10.0,,,,,,,67.0,,,,,,0,note_on,,127.0,67.0,127.0,3041,1.5838541666666666
399,10.0,,,,,,,58.0,,,,,,0,note_on,,127.0,58.0,127.0,3041,1.5838541666666666
400,11.0,,,,,,,62.0,,,,,,0,note_on,,127.0,62.0,127.0,9016,4.695833333333333
401,11.0,,,,,,,58.0,,,,,,0,note_on,,118.0,58.0,118.0,9016,4.695833333333333
402,11.0,,,,,,,65.0,,,,,,0,note_on,,127.0,65.0,127.0,9016,4.695833333333333
403,3.0,,,,,,,70.0,,,,,,363,note_on,,105.0,70.0,105.0,14602,7.605208333333334
404,,,,,,,,,,,,,a ,0,lyrics,,,,,0,0.0
405,10.0,,,,,,,67.0,,,,,,4,note_on,,0.0,67.0,0.0,3045,1.5859375
406,10.0,,,,,,,58.0,,,,,,11,note_on,,0.0,58.0,0.0,3056,1.5916666666666666
407,11.0,,,,,,,58.0,,,,,,7,note_on,,0.0,58.0,0.0,9023,4.699479166666666
408,3.0,,,,,,,72.0,,,,,,13,note_on,,0.0,72.0,0.0,14615,7.611979166666667
409,11.0,,,,,,,65.0,,,,,,10,note_on,,0.0,65.0,0.0,9033,4.7046875
410,10.0,,,,,,,62.0,,,,,,6,note_on,,0.0,62.0,0.0,3062,1.5947916666666666
411,11.0,,,,,,,62.0,,,,,,13,note_on,,0.0,62.0,0.0,9046,4.711458333333333
412,10.0,,,,,,,62.0,,,,,,53,note_on,,127.0,62.0,127.0,3115,1.6223958333333333
413,10.0,,,,,,,58.0,,,,,,0,note_on,,118.0,58.0,118.0,3115,1.6223958333333333
414,10.0,,,,,,,65.0,,,,,,0,note_on,,127.0,65.0,127.0,3115,1.6223958333333333
415,12.0,,,,,,,62.0,,,,,,0,note_on,,127.0,62.0,127.0,3942,2.053125
416,12.0,,,,,,,67.0,,,,,,0,note_on,,127.0,67.0,127.0,3942,2.053125
417,12.0,,,,,,,58.0,,,,,,0,note_on,,127.0,58.0,127.0,3942,2.053125
418,12.0,,,,,,,67.0,,,,,,367,note_on,,0.0,67.0,0.0,4309,2.244270833333333
419,12.0,,,,,,,58.0,,,,,,11,note_on,,0.0,58.0,0.0,4320,2.25
420,10.0,,,,,,,58.0,,,,,,7,note_on,,0.0,58.0,0.0,3122,1.6260416666666666
421,10.0,,,,,,,65.0,,,,,,23,note_on,,0.0,65.0,0.0,3145,1.6380208333333333
422,12.0,,,,,,,62.0,,,,,,6,note_on,,0.0,62.0,0.0,4326,2.253125
423,10.0,,,,,,,62.0,,,,,,13,note_on,,0.0,62.0,0.0,3158,1.6447916666666667
424,12.0,,,,,,,62.0,,,,,,53,note_on,,127.0,62.0,127.0,4379,2.2807291666666667
425,12.0,,,,,,,58.0,,,,,,0,note_on,,118.0,58.0,118.0,4379,2.2807291666666667
426,12.0,,,,,,,65.0,,,,,,0,note_on,,127.0,65.0,127.0,4379,2.2807291666666667
427,12.0,,,,,,,58.0,,,,,,385,note_on,,0.0,58.0,0.0,4764,2.48125
428,12.0,,,,,,,65.0,,,,,,23,note_on,,0.0,65.0,0.0,4787,2.4932291666666666
429,12.0,,,,,,,62.0,,,,,,19,note_on,,0.0,62.0,0.0,4806,2.503125
430,11.0,,,,,,,63.0,,,,,,53,note_on,,100.0,63.0,100.0,9099,4.7390625
431,11.0,,,,,,,56.0,,,,,,0,note_on,,127.0,56.0,127.0,9099,4.7390625
432,11.0,,,,,,,62.0,,,,,,0,note_on,,126.0,62.0,126.0,9099,4.7390625
433,11.0,,,,,,,53.0,,,,,,0,note_on,,127.0,53.0,127.0,9099,4.7390625
434,11.0,,,,,,,58.0,,,,,,0,note_on,,127.0,58.0,127.0,9099,4.7390625
435,3.0,,,,,,,70.0,,,,,,219,note_on,,0.0,70.0,0.0,14834,7.726041666666666
436,10.0,,,,,,,63.0,,,,,,261,note_on,,100.0,63.0,100.0,3419,1.7807291666666667
437,10.0,,,,,,,56.0,,,,,,0,note_on,,127.0,56.0,127.0,3419,1.7807291666666667
438,10.0,,,,,,,62.0,,,,,,0,note_on,,126.0,62.0,126.0,3419,1.7807291666666667
439,10.0,,,,,,,53.0,,,,,,0,note_on,,127.0,53.0,127.0,3419,1.7807291666666667
440,10.0,,,,,,,58.0,,,,,,0,note_on,,127.0,58.0,127.0,3419,1.7807291666666667
441,12.0,,,,,,,63.0,,,,,,480,note_on,,100.0,63.0,100.0,5286,2.753125
442,12.0,,,,,,,56.0,,,,,,0,note_on,,127.0,56.0,127.0,5286,2.753125
443,12.0,,,,,,,62.0,,,,,,0,note_on,,126.0,62.0,126.0,5286,2.753125
444,12.0,,,,,,,53.0,,,,,,0,note_on,,127.0,53.0,127.0,5286,2.753125
445,12.0,,,,,,,58.0,,,,,,0,note_on,,127.0,58.0,127.0,5286,2.753125
446,11.0,,,,,,,63.0,,,,,,480,note_on,,0.0,63.0,0.0,9579,4.9890625
447,3.0,,,,,,,75.0,,,,,,0,note_on,,127.0,75.0,127.0,14834,7.726041666666666
448,11.0,,,,,,,63.0,,,,,,0,note_on,,127.0,63.0,127.0,9579,4.9890625
449,,,,,,,,,,,,,You ,0,lyrics,,,,,0,0.0
450,3.0,,,,,,,75.0,,,,,,425,note_on,,0.0,75.0,0.0,15259,7.947395833333333
451,9.0,,0.0,,,,,,,,,,,53,control_change,120.0,,,,53,0.027604166666666666
452,9.0,,0.0,,,,,,,,,,,0,control_change,120.0,,,,53,0.027604166666666666
453,9.0,,32.0,,,,,,,,,,,1,control_change,0.0,,,,54,0.028125
454,9.0,,32.0,,,,,,,,,,,0,control_change,0.0,,,,54,0.028125
455,10.0,,,,,,,63.0,,,,,,1,note_on,,0.0,63.0,0.0,3420,1.78125
456,3.0,,,,,,,82.0,,,,,,0,note_on,,127.0,82.0,127.0,15259,7.947395833333333
457,9.0,,,,,,,46.0,,,,,,0,note_on,,127.0,46.0,127.0,54,0.028125
458,9.0,,,,,,,,,,25.0,,,0,program_change,,,,,54,0.028125
459,10.0,,,,,,,63.0,,,,,,0,note_on,,127.0,63.0,127.0,3420,1.78125
460,,,,,,,,,,,,,know ,0,lyrics,,,,,0,0.0
461,9.0,,,,,,,46.0,,,,,,101,note_on,,0.0,46.0,0.0,155,0.08072916666666667
462,3.0,,,,,,,82.0,,,,,,137,note_on,,0.0,82.0,0.0,15396,8.01875
463,12.0,,,,,,,63.0,,,,,,242,note_on,,0.0,63.0,0.0,5528,2.8791666666666664
464,3.0,,,,,,,79.0,,,,,,0,note_on,,127.0,79.0,127.0,15396,8.01875
465,12.0,,,,,,,63.0,,,,,,0,note_on,,127.0,63.0,127.0,5528,2.8791666666666664
466,,,,,,,,,,,,,you ,0,lyrics,,,,,0,0.0
467,3.0,,,,,,,79.0,,,,,,175,note_on,,0.0,79.0,0.0,15571,8.109895833333333
468,11.0,,,,,,,56.0,,,,,,58,note_on,,0.0,56.0,0.0,9637,5.019270833333334
469,11.0,,,,,,,62.0,,,,,,4,note_on,,0.0,62.0,0.0,9641,5.021354166666667
470,11.0,,,,,,,53.0,,,,,,201,note_on,,0.0,53.0,0.0,9842,5.126041666666667
471,11.0,,,,,,,58.0,,,,,,31,note_on,,0.0,58.0,0.0,9873,5.1421875
472,11.0,,0.0,,,,,,,,,,,9,control_change,121.0,,,,9882,5.146875
473,11.0,,0.0,,,,,,,,,,,0,control_change,121.0,,,,9882,5.146875
474,11.0,,32.0,,,,,,,,,,,1,control_change,0.0,,,,9883,5.147395833333333
475,11.0,,32.0,,,,,,,,,,,0,control_change,0.0,,,,9883,5.147395833333333
476,9.0,,,,,,,57.0,,,,,,1,note_on,,100.0,57.0,100.0,156,0.08125
477,3.0,,,,,,,77.0,,,,,,0,note_on,,127.0,77.0,127.0,15571,8.109895833333333
478,9.0,,,,,,,70.0,,,,,,0,note_on,,40.0,70.0,40.0,156,0.08125
479,9.0,,,,,,,35.0,,,,,,0,note_on,,60.0,35.0,60.0,156,0.08125
480,11.0,,,,,,,67.0,,,,,,0,note_on,,127.0,67.0,127.0,9883,5.147395833333333
481,11.0,,,,,,,63.0,,,,,,0,note_on,,127.0,63.0,127.0,9883,5.147395833333333
482,11.0,,,,,,,70.0,,,,,,0,note_on,,126.0,70.0,126.0,9883,5.147395833333333
483,9.0,,,,,,,36.0,,,,,,0,note_on,,126.0,36.0,126.0,156,0.08125
484,9.0,,,,,,,42.0,,,,,,0,note_on,,85.0,42.0,85.0,156,0.08125
485,11.0,,,,,,,,,,24.0,,,0,program_change,,,,,9883,5.147395833333333
486,,,,,,,,,,,,,love ,0,lyrics,,,,,0,0.0
487,11.0,,,,,,,63.0,,,,,,15,note_on,,0.0,63.0,0.0,9898,5.155208333333333
488,9.0,,,,,,,57.0,,,,,,99,note_on,,0.0,57.0,0.0,255,0.1328125
489,9.0,,,,,,,36.0,,,,,,58,note_on,,0.0,36.0,0.0,313,0.16302083333333334
490,9.0,,,,,,,35.0,,,,,,0,note_on,,0.0,35.0,0.0,313,0.16302083333333334
491,9.0,,,,,,,42.0,,,,,,52,note_on,,0.0,42.0,0.0,365,0.19010416666666666
492,9.0,,,,,,,70.0,,,,,,0,note_on,,0.0,70.0,0.0,365,0.19010416666666666
493,10.0,,,,,,,56.0,,,,,,9,note_on,,0.0,56.0,0.0,3429,1.7859375
494,10.0,,,,,,,62.0,,,,,,4,note_on,,0.0,62.0,0.0,3433,1.7880208333333334
495,11.0,,,,,,,63.0,,,,,,160,note_on,,0.0,63.0,0.0,10058,5.238541666666666
496,11.0,,,,,,,67.0,,,,,,10,note_on,,0.0,67.0,0.0,10068,5.24375
497,3.0,,,,,,,77.0,,,,,,29,note_on,,0.0,77.0,0.0,15600,8.125
498,10.0,,,,,,,53.0,,,,,,2,note_on,,0.0,53.0,0.0,3435,1.7890625
499,11.0,,,,,,,70.0,,,,,,21,note_on,,0.0,70.0,0.0,10089,5.2546875
500,10.0,,,,,,,58.0,,,,,,10,note_on,,0.0,58.0,0.0,3445,1.7942708333333333
501,10.0,,0.0,,,,,,,,,,,9,control_change,121.0,,,,3454,1.7989583333333332
502,10.0,,0.0,,,,,,,,,,,0,control_change,121.0,,,,3454,1.7989583333333332
503,10.0,,32.0,,,,,,,,,,,1,control_change,0.0,,,,3455,1.7994791666666667
504,10.0,,32.0,,,,,,,,,,,0,control_change,0.0,,,,3455,1.7994791666666667
505,10.0,,,,,,,70.0,,,,,,1,note_on,,126.0,70.0,126.0,3456,1.8
506,9.0,,,,,,,70.0,,,,,,0,note_on,,40.0,70.0,40.0,365,0.19010416666666666
507,10.0,,,,,,,63.0,,,,,,0,note_on,,127.0,63.0,127.0,3456,1.8
508,10.0,,,,,,,,,,24.0,,,0,program_change,,,,,3456,1.8
509,10.0,,,,,,,67.0,,,,,,0,note_on,,127.0,67.0,127.0,3456,1.8
510,10.0,,,,,,,63.0,,,,,,15,note_on,,0.0,63.0,0.0,3471,1.8078125
511,9.0,,,,,,,70.0,,,,,,209,note_on,,0.0,70.0,0.0,574,0.2989583333333333
512,12.0,,,,,,,56.0,,,,,,9,note_on,,0.0,56.0,0.0,5537,2.8838541666666666
513,12.0,,,,,,,62.0,,,,,,4,note_on,,0.0,62.0,0.0,5541,2.8859375
514,3.0,,,,,,,79.0,,,,,,3,note_on,,127.0,79.0,127.0,15603,8.1265625
515,9.0,,,,,,,36.0,,,,,,0,note_on,,126.0,36.0,126.0,574,0.2989583333333333
516,9.0,,,,,,,35.0,,,,,,0,note_on,,60.0,35.0,60.0,574,0.2989583333333333
517,,,,,,,,,,,,,"me, ",0,lyrics,,,,,0,0.0
518,10.0,,,,,,,63.0,,,,,,157,note_on,,0.0,63.0,0.0,3628,1.8895833333333334
519,10.0,,,,,,,67.0,,,,,,10,note_on,,0.0,67.0,0.0,3638,1.8947916666666667
520,12.0,,,,,,,53.0,,,,,,31,note_on,,0.0,53.0,0.0,5572,2.902083333333333
521,10.0,,,,,,,70.0,,,,,,21,note_on,,0.0,70.0,0.0,3659,1.9057291666666667
522,9.0,,,,,,,35.0,,,,,,5,note_on,,0.0,35.0,0.0,579,0.3015625
523,9.0,,,,,,,36.0,,,,,,0,note_on,,0.0,36.0,0.0,579,0.3015625
524,12.0,,,,,,,58.0,,,,,,5,note_on,,0.0,58.0,0.0,5577,2.9046875
525,12.0,,0.0,,,,,,,,,,,9,control_change,121.0,,,,5586,2.909375
526,12.0,,32.0,,,,,,,,,,,1,control_change,0.0,,,,5587,2.909895833333333
527,9.0,,,,,,,70.0,,,,,,1,note_on,,40.0,70.0,40.0,580,0.3020833333333333
528,9.0,,,,,,,42.0,,,,,,0,note_on,,85.0,42.0,85.0,580,0.3020833333333333
529,9.0,,,,,,,39.0,,,,,,0,note_on,,125.0,39.0,125.0,580,0.3020833333333333
530,9.0,,,,,,,28.0,,,,,,0,note_on,,127.0,28.0,127.0,580,0.3020833333333333
531,12.0,,,,,,,67.0,,,,,,0,note_on,,127.0,67.0,127.0,5587,2.909895833333333
532,12.0,,,,,,,63.0,,,,,,0,note_on,,127.0,63.0,127.0,5587,2.909895833333333
533,12.0,,,,,,,70.0,,,,,,0,note_on,,126.0,70.0,126.0,5587,2.909895833333333
534,12.0,,0.0,,,,,,,,,,,0,control_change,121.0,,,,5587,2.909895833333333
535,12.0,,32.0,,,,,,,,,,,0,control_change,0.0,,,,5587,2.909895833333333
536,12.0,,,,,,,,,,24.0,,,0,program_change,,,,,5587,2.909895833333333
537,12.0,,,,,,,63.0,,,,,,15,note_on,,0.0,63.0,0.0,5602,2.917708333333333
538,3.0,,,,,,,79.0,,,,,,95,note_on,,0.0,79.0,0.0,15698,8.176041666666666
539,9.0,,,,,,,28.0,,,,,,7,note_on,,0.0,28.0,0.0,587,0.30572916666666666
540,9.0,,,,,,,39.0,,,,,,34,note_on,,0.0,39.0,0.0,621,0.3234375
541,9.0,,,,,,,42.0,,,,,,73,note_on,,0.0,42.0,0.0,694,0.3614583333333333
542,9.0,,,,,,,70.0,,,,,,0,note_on,,0.0,70.0,0.0,694,0.3614583333333333
543,12.0,,,,,,,63.0,,,,,,173,note_on,,0.0,63.0,0.0,5775,3.0078125
544,12.0,,,,,,,67.0,,,,,,10,note_on,,0.0,67.0,0.0,5785,3.0130208333333335
545,12.0,,,,,,,70.0,,,,,,52,note_on,,0.0,70.0,0.0,5837,3.0401041666666666
546,9.0,,,,,,,70.0,,,,,,21,note_on,,40.0,70.0,40.0,715,0.3723958333333333
547,9.0,,,,,,,36.0,,,,,,0,note_on,,126.0,36.0,126.0,715,0.3723958333333333
548,9.0,,,,,,,35.0,,,,,,0,note_on,,60.0,35.0,60.0,715,0.3723958333333333
549,9.0,,,,,,,35.0,,,,,,166,note_on,,0.0,35.0,0.0,881,0.4588541666666667
550,9.0,,,,,,,36.0,,,,,,0,note_on,,0.0,36.0,0.0,881,0.4588541666666667
551,9.0,,,,,,,70.0,,,,,,58,note_on,,0.0,70.0,0.0,939,0.4890625
552,6.0,,0.0,,,,,,,,,,,254,control_change,121.0,,,,254,0.13229166666666667
553,6.0,,32.0,,,,,,,,,,,1,control_change,0.0,,,,255,0.1328125
554,6.0,,,,,,,,,,53.0,,,1,program_change,,,,,256,0.13333333333333333
555,6.0,,,,,,,70.0,,,,,,0,note_on,,127.0,70.0,127.0,256,0.13333333333333333
556,6.0,,,,,,,75.0,,,,,,0,note_on,,127.0,75.0,127.0,256,0.13333333333333333
557,6.0,,,,,,,67.0,,,,,,0,note_on,,127.0,67.0,127.0,256,0.13333333333333333
558,9.0,,,,,,,42.0,,,,,,0,note_on,,85.0,42.0,85.0,939,0.4890625
559,9.0,,,,,,,70.0,,,,,,0,note_on,,40.0,70.0,40.0,939,0.4890625
560,9.0,,,,,,,70.0,,,,,,224,note_on,,0.0,70.0,0.0,1163,0.6057291666666667
561,9.0,,,,,,,42.0,,,,,,0,note_on,,0.0,42.0,0.0,1163,0.6057291666666667
562,6.0,,,,,,,67.0,,,,,,227,note_on,,0.0,67.0,0.0,483,0.2515625
563,3.0,,,,,,,75.0,,,,,,29,note_on,,127.0,75.0,127.0,15727,8.191145833333334
564,9.0,,,,,,,70.0,,,,,,0,note_on,,40.0,70.0,40.0,1163,0.6057291666666667
565,9.0,,,,,,,36.0,,,,,,0,note_on,,126.0,36.0,126.0,1163,0.6057291666666667
566,9.0,,,,,,,35.0,,,,,,0,note_on,,60.0,35.0,60.0,1163,0.6057291666666667
567,,,,,,,,,,,,,I ,0,lyrics,,,,,0,0.0
568,6.0,,,,,,,70.0,,,,,,60,note_on,,0.0,70.0,0.0,543,0.2828125
569,6.0,,,,,,,75.0,,,,,,17,note_on,,0.0,75.0,0.0,560,0.2916666666666667
570,9.0,,,,,,,36.0,,,,,,77,note_on,,0.0,36.0,0.0,1240,0.6458333333333334
571,9.0,,,,,,,35.0,,,,,,0,note_on,,0.0,35.0,0.0,1240,0.6458333333333334
572,3.0,,,,,,,75.0,,,,,,47,note_on,,0.0,75.0,0.0,15774,8.215625
573,9.0,,,,,,,70.0,,,,,,23,note_on,,0.0,70.0,0.0,1263,0.6578125
574,3.0,,,,,,,82.0,,,,,,256,note_on,,119.0,82.0,119.0,16030,8.348958333333334
575,9.0,,,,,,,42.0,,,,,,0,note_on,,85.0,42.0,85.0,1263,0.6578125
576,9.0,,,,,,,70.0,,,,,,0,note_on,,40.0,70.0,40.0,1263,0.6578125
577,9.0,,,,,,,39.0,,,,,,0,note_on,,127.0,39.0,127.0,1263,0.6578125
578,9.0,,,,,,,28.0,,,,,,0,note_on,,127.0,28.0,127.0,1263,0.6578125
579,11.0,,,,,,,67.0,,,,,,0,note_on,,127.0,67.0,127.0,10089,5.2546875
580,11.0,,,,,,,72.0,,,,,,0,note_on,,127.0,72.0,127.0,10089,5.2546875
581,11.0,,,,,,,63.0,,,,,,0,note_on,,127.0,63.0,127.0,10089,5.2546875
582,,,,,,,,,,,,,know ,0,lyrics,,,,,0,0.0
583,9.0,,,,,,,39.0,,,,,,123,note_on,,0.0,39.0,0.0,1386,0.721875
584,9.0,,,,,,,28.0,,,,,,2,note_on,,0.0,28.0,0.0,1388,0.7229166666666667
585,9.0,,,,,,,70.0,,,,,,99,note_on,,0.0,70.0,0.0,1487,0.7744791666666666
586,9.0,,,,,,,42.0,,,,,,0,note_on,,0.0,42.0,0.0,1487,0.7744791666666666
587,3.0,,,,,,,82.0,,,,,,16,note_on,,0.0,82.0,0.0,16046,8.357291666666667
588,11.0,,,,,,,63.0,,,,,,125,note_on,,0.0,63.0,0.0,10214,5.319791666666666
589,11.0,,,,,,,72.0,,,,,,15,note_on,,0.0,72.0,0.0,10229,5.327604166666666
590,11.0,,,,,,,67.0,,,,,,8,note_on,,0.0,67.0,0.0,10237,5.331770833333334
591,3.0,,,,,,,79.0,,,,,,92,note_on,,127.0,79.0,127.0,16138,8.405208333333333
592,9.0,,,,,,,70.0,,,,,,0,note_on,,40.0,70.0,40.0,1487,0.7744791666666666
593,10.0,,,,,,,67.0,,,,,,0,note_on,,127.0,67.0,127.0,3659,1.9057291666666667
594,10.0,,,,,,,72.0,,,,,,0,note_on,,127.0,72.0,127.0,3659,1.9057291666666667
595,10.0,,,,,,,63.0,,,,,,0,note_on,,127.0,63.0,127.0,3659,1.9057291666666667
596,11.0,,,,,,,67.0,,,,,,0,note_on,,127.0,67.0,127.0,10237,5.331770833333334
597,11.0,,,,,,,70.0,,,,,,0,note_on,,118.0,70.0,118.0,10237,5.331770833333334
598,11.0,,,,,,,63.0,,,,,,0,note_on,,127.0,63.0,127.0,10237,5.331770833333334
599,,,,,,,,,,,,,you ,0,lyrics,,,,,0,0.0
600,3.0,,,,,,,79.0,,,,,,203,note_on,,0.0,79.0,0.0,16341,8.5109375
601,9.0,,,,,,,70.0,,,,,,21,note_on,,0.0,70.0,0.0,1508,0.7854166666666667
602,10.0,,,,,,,63.0,,,,,,141,note_on,,0.0,63.0,0.0,3800,1.9791666666666667
603,10.0,,,,,,,72.0,,,,,,15,note_on,,0.0,72.0,0.0,3815,1.9869791666666667
604,10.0,,,,,,,67.0,,,,,,8,note_on,,0.0,67.0,0.0,3823,1.9911458333333334
605,11.0,,,,,,,70.0,,,,,,38,note_on,,0.0,70.0,0.0,10275,5.3515625
606,11.0,,,,,,,63.0,,,,,,0,note_on,,0.0,63.0,0.0,10275,5.3515625
607,11.0,,,,,,,67.0,,,,,,3,note_on,,0.0,67.0,0.0,10278,5.353125
608,3.0,,,,,,,77.0,,,,,,51,note_on,,127.0,77.0,127.0,16392,8.5375
609,9.0,,,,,,,42.0,,,,,,0,note_on,,85.0,42.0,85.0,1508,0.7854166666666667
610,9.0,,,,,,,70.0,,,,,,0,note_on,,40.0,70.0,40.0,1508,0.7854166666666667
611,9.0,,,,,,,36.0,,,,,,0,note_on,,126.0,36.0,126.0,1508,0.7854166666666667
612,9.0,,,,,,,35.0,,,,,,0,note_on,,60.0,35.0,60.0,1508,0.7854166666666667
613,10.0,,,,,,,67.0,,,,,,0,note_on,,127.0,67.0,127.0,3823,1.9911458333333334
614,10.0,,,,,,,70.0,,,,,,0,note_on,,118.0,70.0,118.0,3823,1.9911458333333334
615,10.0,,,,,,,63.0,,,,,,0,note_on,,127.0,63.0,127.0,3823,1.9911458333333334
616,12.0,,,,,,,67.0,,,,,,0,note_on,,127.0,67.0,127.0,5837,3.0401041666666666
617,12.0,,,,,,,72.0,,,,,,0,note_on,,127.0,72.0,127.0,5837,3.0401041666666666
618,12.0,,,,,,,63.0,,,,,,0,note_on,,127.0,63.0,127.0,5837,3.0401041666666666
619,,,,,,,,,,,,,care ,0,lyrics,,,,,0,0.0
620,9.0,,,,,,,35.0,,,,,,172,note_on,,0.0,35.0,0.0,1680,0.875
621,9.0,,,,,,,36.0,,,,,,0,note_on,,0.0,36.0,0.0,1680,0.875
622,9.0,,,,,,,70.0,,,,,,52,note_on,,0.0,70.0,0.0,1732,0.9020833333333333
623,9.0,,,,,,,42.0,,,,,,0,note_on,,0.0,42.0,0.0,1732,0.9020833333333333
624,12.0,,,,,,,63.0,,,,,,141,note_on,,0.0,63.0,0.0,5978,3.1135416666666664
625,12.0,,,,,,,72.0,,,,,,15,note_on,,0.0,72.0,0.0,5993,3.1213541666666664
626,12.0,,,,,,,67.0,,,,,,8,note_on,,0.0,67.0,0.0,6001,3.1255208333333333
627,10.0,,,,,,,70.0,,,,,,38,note_on,,0.0,70.0,0.0,3861,2.0109375
628,10.0,,,,,,,63.0,,,,,,0,note_on,,0.0,63.0,0.0,3861,2.0109375
629,10.0,,,,,,,67.0,,,,,,3,note_on,,0.0,67.0,0.0,3864,2.0125
630,9.0,,,,,,,70.0,,,,,,51,note_on,,40.0,70.0,40.0,1783,0.9286458333333333
631,12.0,,,,,,,67.0,,,,,,0,note_on,,127.0,67.0,127.0,6001,3.1255208333333333
632,12.0,,,,,,,70.0,,,,,,0,note_on,,118.0,70.0,118.0,6001,3.1255208333333333
633,12.0,,,,,,,63.0,,,,,,0,note_on,,127.0,63.0,127.0,6001,3.1255208333333333
634,9.0,,,,,,,70.0,,,,,,224,note_on,,0.0,70.0,0.0,2007,1.0453125
635,9.0,,,,,,,36.0,,,,,,16,note_on,,126.0,36.0,126.0,2023,1.0536458333333334
636,9.0,,,,,,,35.0,,,,,,0,note_on,,60.0,35.0,60.0,2023,1.0536458333333334
637,3.0,,,,,,,77.0,,,,,,23,note_on,,0.0,77.0,0.0,16415,8.549479166666666
638,12.0,,,,,,,63.0,,,,,,163,note_on,,0.0,63.0,0.0,6164,3.2104166666666667
639,12.0,,,,,,,70.0,,,,,,0,note_on,,0.0,70.0,0.0,6164,3.2104166666666667
640,12.0,,,,,,,67.0,,,,,,3,note_on,,0.0,67.0,0.0,6167,3.2119791666666666
641,9.0,,,,,,,35.0,,,,,,35,note_on,,0.0,35.0,0.0,2058,1.071875
642,9.0,,,,,,,36.0,,,,,,0,note_on,,0.0,36.0,0.0,2058,1.071875
643,9.0,,,,,,,42.0,,,,,,16,note_on,,85.0,42.0,85.0,2074,1.0802083333333332
644,9.0,,,,,,,70.0,,,,,,0,note_on,,40.0,70.0,40.0,2074,1.0802083333333332
645,9.0,,,,,,,39.0,,,,,,0,note_on,,125.0,39.0,125.0,2074,1.0802083333333332
646,9.0,,,,,,,28.0,,,,,,0,note_on,,127.0,28.0,127.0,2074,1.0802083333333332
647,9.0,,,,,,,28.0,,,,,,117,note_on,,0.0,28.0,0.0,2191,1.1411458333333333
648,9.0,,,,,,,39.0,,,,,,34,note_on,,0.0,39.0,0.0,2225,1.1588541666666667
649,9.0,,,,,,,70.0,,,,,,73,note_on,,0.0,70.0,0.0,2298,1.196875
650,9.0,,,,,,,42.0,,,,,,0,note_on,,0.0,42.0,0.0,2298,1.196875
651,6.0,,,,,,,70.0,,,,,,256,note_on,,127.0,70.0,127.0,816,0.425
652,6.0,,,,,,,75.0,,,,,,0,note_on,,127.0,75.0,127.0,816,0.425
653,6.0,,,,,,,67.0,,,,,,0,note_on,,127.0,67.0,127.0,816,0.425
654,9.0,,,,,,,46.0,,,,,,0,note_on,,100.0,46.0,100.0,2298,1.196875
655,9.0,,,,,,,70.0,,,,,,0,note_on,,40.0,70.0,40.0,2298,1.196875
656,9.0,,,,,,,36.0,,,,,,0,note_on,,126.0,36.0,126.0,2298,1.196875
657,9.0,,,,,,,35.0,,,,,,0,note_on,,60.0,35.0,60.0,2298,1.196875
658,9.0,,,,,,,35.0,,,,,,166,note_on,,0.0,35.0,0.0,2464,1.2833333333333332
659,9.0,,,,,,,36.0,,,,,,0,note_on,,0.0,36.0,0.0,2464,1.2833333333333332
660,9.0,,,,,,,46.0,,,,,,58,note_on,,0.0,46.0,0.0,2522,1.3135416666666666
661,9.0,,,,,,,70.0,,,,,,0,note_on,,0.0,70.0,0.0,2522,1.3135416666666666
662,6.0,,,,,,,,,-464.0,,,,205,pitchwheel,,,,,1021,0.5317708333333333
663,6.0,,,,,,,,,-979.0,,,,8,pitchwheel,,,,,1029,0.5359375
664,6.0,,,,,,,,,-1572.0,,,,13,pitchwheel,,,,,1042,0.5427083333333333
665,6.0,,,,,,,,,-2010.0,,,,6,pitchwheel,,,,,1048,0.5458333333333333
666,6.0,,,,,,,,,-2499.0,,,,6,pitchwheel,,,,,1054,0.5489583333333333
667,6.0,,,,,,,,,-3221.0,,,,10,pitchwheel,,,,,1064,0.5541666666666667
668,9.0,,,,,,,46.0,,,,,,8,note_on,,100.0,46.0,100.0,2530,1.3177083333333333
669,9.0,,,,,,,70.0,,,,,,0,note_on,,40.0,70.0,40.0,2530,1.3177083333333333
670,6.0,,,,,,,,,-3556.0,,,,1,pitchwheel,,,,,1065,0.5546875
671,6.0,,,,,,,,,-4148.0,,,,6,pitchwheel,,,,,1071,0.5578125
672,6.0,,,,,,,,,-4637.0,,,,10,pitchwheel,,,,,1081,0.5630208333333333
673,6.0,,,,,,,,,-4998.0,,,,9,pitchwheel,,,,,1090,0.5677083333333334
674,6.0,,,,,,,,,-5462.0,,,,8,pitchwheel,,,,,1098,0.571875
675,6.0,,,,,,,,,-5616.0,,,,10,pitchwheel,,,,,1108,0.5770833333333333
676,6.0,,,,,,,,,-5848.0,,,,9,pitchwheel,,,,,1117,0.5817708333333333
677,6.0,,,,,,,,,-6003.0,,,,10,pitchwheel,,,,,1127,0.5869791666666666
678,6.0,,,,,,,,,-6132.0,,,,19,pitchwheel,,,,,1146,0.596875
679,6.0,,,,,,,,,-6209.0,,,,8,pitchwheel,,,,,1154,0.6010416666666667
680,6.0,,,,,,,,,-6286.0,,,,17,pitchwheel,,,,,1171,0.6098958333333333
681,6.0,,,,,,,,,-6054.0,,,,16,pitchwheel,,,,,1187,0.6182291666666666
682,6.0,,,,,,,,,-5926.0,,,,17,pitchwheel,,,,,1204,0.6270833333333333
683,6.0,,,,,,,,,-5668.0,,,,8,pitchwheel,,,,,1212,0.63125
684,6.0,,,,,,,,,-5282.0,,,,9,pitchwheel,,,,,1221,0.6359375
685,6.0,,,,,,,,,-4741.0,,,,8,pitchwheel,,,,,1229,0.6401041666666667
686,6.0,,,,,,,,,-4148.0,,,,10,pitchwheel,,,,,1239,0.6453125
687,6.0,,,,,,,,,-3787.0,,,,7,pitchwheel,,,,,1246,0.6489583333333333
688,6.0,,,,,,,,,-3298.0,,,,8,pitchwheel,,,,,1254,0.653125
689,6.0,,,,,,,,,-2577.0,,,,8,pitchwheel,,,,,1262,0.6572916666666666
690,6.0,,,,,,,,,-2113.0,,,,11,pitchwheel,,,,,1273,0.6630208333333333
691,6.0,,,,,,,,,-1495.0,,,,12,pitchwheel,,,,,1285,0.6692708333333334
692,9.0,,,,,,,70.0,,,,,,3,note_on,,0.0,70.0,0.0,2533,1.3192708333333334
693,9.0,,,,,,,46.0,,,,,,0,note_on,,0.0,46.0,0.0,2533,1.3192708333333334
694,6.0,,,,,,,,,-902.0,,,,1,pitchwheel,,,,,1286,0.6697916666666667
695,6.0,,,,,,,,,-361.0,,,,9,pitchwheel,,,,,1295,0.6744791666666666
696,6.0,,,,,,,,,0.0,,,,8,pitchwheel,,,,,1303,0.6786458333333333
697,3.0,,,,,,,75.0,,,,,,238,note_on,,127.0,75.0,127.0,16653,8.6734375
698,9.0,,,,,,,70.0,,,,,,0,note_on,,40.0,70.0,40.0,2533,1.3192708333333334
699,9.0,,,,,,,36.0,,,,,,0,note_on,,126.0,36.0,126.0,2533,1.3192708333333334
700,9.0,,,,,,,35.0,,,,,,0,note_on,,60.0,35.0,60.0,2533,1.3192708333333334
701,,,,,,,,,,,,,Just ,0,lyrics,,,,,0,0.0
702,6.0,,,,,,,67.0,,,,,,36,note_on,,0.0,67.0,0.0,1339,0.6973958333333333
703,9.0,,,,,,,36.0,,,,,,118,note_on,,0.0,36.0,0.0,2651,1.3807291666666666
704,9.0,,,,,,,35.0,,,,,,0,note_on,,0.0,35.0,0.0,2651,1.3807291666666666
705,9.0,,,,,,,70.0,,,,,,70,note_on,,0.0,70.0,0.0,2721,1.4171875
706,6.0,,,,,,,70.0,,,,,,16,note_on,,0.0,70.0,0.0,1355,0.7057291666666666
707,6.0,,,,,,,75.0,,,,,,0,note_on,,0.0,75.0,0.0,1355,0.7057291666666666
708,3.0,,,,,,,75.0,,,,,,6,note_on,,0.0,75.0,0.0,16659,8.6765625
709,3.0,,,,,,,82.0,,,,,,234,note_on,,127.0,82.0,127.0,16893,8.7984375
710,9.0,,,,,,,42.0,,,,,,0,note_on,,85.0,42.0,85.0,2721,1.4171875
711,9.0,,,,,,,70.0,,,,,,0,note_on,,40.0,70.0,40.0,2721,1.4171875
712,9.0,,,,,,,39.0,,,,,,0,note_on,,127.0,39.0,127.0,2721,1.4171875
713,9.0,,,,,,,28.0,,,,,,0,note_on,,127.0,28.0,127.0,2721,1.4171875
714,,,,,,,,,,,,,shout ,0,lyrics,,,,,0,0.0
715,9.0,,,,,,,39.0,,,,,,123,note_on,,0.0,39.0,0.0,2844,1.48125
716,9.0,,,,,,,28.0,,,,,,2,note_on,,0.0,28.0,0.0,2846,1.4822916666666666
717,3.0,,,,,,,82.0,,,,,,79,note_on,,0.0,82.0,0.0,16972,8.839583333333334
718,9.0,,,,,,,70.0,,,,,,20,note_on,,0.0,70.0,0.0,2866,1.4927083333333333
719,9.0,,,,,,,42.0,,,,,,0,note_on,,0.0,42.0,0.0,2866,1.4927083333333333
720,3.0,,,,,,,79.0,,,,,,256,note_on,,127.0,79.0,127.0,17228,8.972916666666666
721,9.0,,,,,,,61.0,,,,,,0,note_on,,100.0,61.0,100.0,2866,1.4927083333333333
722,9.0,,,,,,,70.0,,,,,,0,note_on,,40.0,70.0,40.0,2866,1.4927083333333333
723,,,,,,,,,,,,,when ,0,lyrics,,,,,0,0.0
724,9.0,,,,,,,61.0,,,,,,114,note_on,,0.0,61.0,0.0,2980,1.5520833333333333
725,9.0,,,,,,,61.0,,,,,,6,note_on,,100.0,61.0,100.0,2986,1.5552083333333333
726,3.0,,,,,,,79.0,,,,,,55,note_on,,0.0,79.0,0.0,17283,9.0015625
727,9.0,,,,,,,70.0,,,,,,49,note_on,,0.0,70.0,0.0,3035,1.5807291666666667
728,9.0,,,,,,,61.0,,,,,,10,note_on,,0.0,61.0,0.0,3045,1.5859375
729,9.0,,,,,,,61.0,,,,,,6,note_on,,100.0,61.0,100.0,3051,1.5890625
730,9.0,,,,,,,61.0,,,,,,114,note_on,,0.0,61.0,0.0,3165,1.6484375
731,9.0,,,,,,,61.0,,,,,,6,note_on,,100.0,61.0,100.0,3171,1.6515625
732,9.0,,,,,,,61.0,,,,,,114,note_on,,0.0,61.0,0.0,3285,1.7109375
733,3.0,,,,,,,77.0,,,,,,6,note_on,,127.0,77.0,127.0,17289,9.0046875
734,9.0,,,,,,,61.0,,,,,,0,note_on,,100.0,61.0,100.0,3285,1.7109375
735,9.0,,,,,,,42.0,,,,,,0,note_on,,85.0,42.0,85.0,3285,1.7109375
736,9.0,,,,,,,70.0,,,,,,0,note_on,,40.0,70.0,40.0,3285,1.7109375
737,9.0,,,,,,,36.0,,,,,,0,note_on,,126.0,36.0,126.0,3285,1.7109375
738,9.0,,,,,,,35.0,,,,,,0,note_on,,60.0,35.0,60.0,3285,1.7109375
739,11.0,,,,,,,63.0,,,,,,0,note_on,,127.0,63.0,127.0,10278,5.353125
740,11.0,,,,,,,60.0,,,,,,0,note_on,,127.0,60.0,127.0,10278,5.353125
741,11.0,,,,,,,67.0,,,,,,0,note_on,,127.0,67.0,127.0,10278,5.353125
742,,,,,,,,,,,,,e ,0,lyrics,,,,,0,0.0
743,9.0,,,,,,,61.0,,,,,,114,note_on,,0.0,61.0,0.0,3399,1.7703125
744,9.0,,,,,,,36.0,,,,,,58,note_on,,0.0,36.0,0.0,3457,1.8005208333333333
745,9.0,,,,,,,35.0,,,,,,0,note_on,,0.0,35.0,0.0,3457,1.8005208333333333
746,9.0,,,,,,,70.0,,,,,,52,note_on,,0.0,70.0,0.0,3509,1.8276041666666667
747,9.0,,,,,,,42.0,,,,,,0,note_on,,0.0,42.0,0.0,3509,1.8276041666666667
748,11.0,,,,,,,60.0,,,,,,180,note_on,,0.0,60.0,0.0,10458,5.446875
749,11.0,,,,,,,63.0,,,,,,32,note_on,,0.0,63.0,0.0,10490,5.463541666666667
750,11.0,,,,,,,67.0,,,,,,6,note_on,,0.0,67.0,0.0,10496,5.466666666666667
751,9.0,,,,,,,70.0,,,,,,38,note_on,,40.0,70.0,40.0,3547,1.8473958333333333
752,10.0,,,,,,,63.0,,,,,,0,note_on,,127.0,63.0,127.0,3864,2.0125
753,10.0,,,,,,,60.0,,,,,,0,note_on,,127.0,60.0,127.0,3864,2.0125
754,10.0,,,,,,,67.0,,,,,,0,note_on,,127.0,67.0,127.0,3864,2.0125
755,3.0,,,,,,,77.0,,,,,,138,note_on,,0.0,77.0,0.0,17427,9.0765625
756,9.0,,,,,,,70.0,,,,,,86,note_on,,0.0,70.0,0.0,3633,1.8921875
757,3.0,,,,,,,79.0,,,,,,16,note_on,,127.0,79.0,127.0,17443,9.084895833333333
758,9.0,,,,,,,36.0,,,,,,0,note_on,,126.0,36.0,126.0,3633,1.8921875
759,9.0,,,,,,,35.0,,,,,,0,note_on,,60.0,35.0,60.0,3633,1.8921875
760,,,,,,,,,,,,,"ver, ",0,lyrics,,,,,0,0.0
761,10.0,,,,,,,60.0,,,,,,164,note_on,,0.0,60.0,0.0,4028,2.0979166666666664
762,10.0,,,,,,,63.0,,,,,,32,note_on,,0.0,63.0,0.0,4060,2.1145833333333335
763,10.0,,,,,,,67.0,,,,,,6,note_on,,0.0,67.0,0.0,4066,2.1177083333333333
764,9.0,,,,,,,36.0,,,,,,22,note_on,,0.0,36.0,0.0,3655,1.9036458333333333
765,9.0,,,,,,,35.0,,,,,,0,note_on,,0.0,35.0,0.0,3655,1.9036458333333333
766,9.0,,,,,,,42.0,,,,,,16,note_on,,85.0,42.0,85.0,3671,1.9119791666666666
767,9.0,,,,,,,70.0,,,,,,0,note_on,,40.0,70.0,40.0,3671,1.9119791666666666
768,9.0,,,,,,,39.0,,,,,,0,note_on,,125.0,39.0,125.0,3671,1.9119791666666666
769,9.0,,,,,,,28.0,,,,,,0,note_on,,127.0,28.0,127.0,3671,1.9119791666666666
770,12.0,,,,,,,63.0,,,,,,0,note_on,,127.0,63.0,127.0,6167,3.2119791666666666
771,12.0,,,,,,,60.0,,,,,,0,note_on,,127.0,60.0,127.0,6167,3.2119791666666666
772,12.0,,,,,,,67.0,,,,,,0,note_on,,127.0,67.0,127.0,6167,3.2119791666666666
773,9.0,,,,,,,28.0,,,,,,117,note_on,,0.0,28.0,0.0,3788,1.9729166666666667
774,9.0,,,,,,,39.0,,,,,,34,note_on,,0.0,39.0,0.0,3822,1.9906249999999999
775,3.0,,,,,,,79.0,,,,,,9,note_on,,0.0,79.0,0.0,17452,9.089583333333334
776,9.0,,,,,,,42.0,,,,,,64,note_on,,0.0,42.0,0.0,3886,2.0239583333333333
777,9.0,,,,,,,70.0,,,,,,0,note_on,,0.0,70.0,0.0,3886,2.0239583333333333
778,12.0,,,,,,,60.0,,,,,,180,note_on,,0.0,60.0,0.0,6347,3.3057291666666666
779,12.0,,,,,,,63.0,,,,,,32,note_on,,0.0,63.0,0.0,6379,3.322395833333333
780,12.0,,,,,,,67.0,,,,,,6,note_on,,0.0,67.0,0.0,6385,3.3255208333333335
781,9.0,,,,,,,70.0,,,,,,38,note_on,,40.0,70.0,40.0,3924,2.04375
782,9.0,,,,,,,36.0,,,,,,0,note_on,,126.0,36.0,126.0,3924,2.04375
783,9.0,,,,,,,35.0,,,,,,0,note_on,,60.0,35.0,60.0,3924,2.04375
784,9.0,,,,,,,35.0,,,,,,166,note_on,,0.0,35.0,0.0,4090,2.1302083333333335
785,9.0,,,,,,,36.0,,,,,,0,note_on,,0.0,36.0,0.0,4090,2.1302083333333335
786,9.0,,,,,,,70.0,,,,,,58,note_on,,0.0,70.0,0.0,4148,2.1604166666666664
787,6.0,,,,,,,67.0,,,,,,256,note_on,,127.0,67.0,127.0,1611,0.8390624999999999
788,6.0,,,,,,,72.0,,,,,,0,note_on,,127.0,72.0,127.0,1611,0.8390624999999999
789,6.0,,,,,,,75.0,,,,,,0,note_on,,127.0,75.0,127.0,1611,0.8390624999999999
790,9.0,,,,,,,42.0,,,,,,0,note_on,,85.0,42.0,85.0,4148,2.1604166666666664
791,9.0,,,,,,,70.0,,,,,,0,note_on,,40.0,70.0,40.0,4148,2.1604166666666664
792,9.0,,,,,,,70.0,,,,,,224,note_on,,0.0,70.0,0.0,4372,2.277083333333333
793,9.0,,,,,,,42.0,,,,,,0,note_on,,0.0,42.0,0.0,4372,2.277083333333333
794,3.0,,,,,,,75.0,,,,,,256,note_on,,127.0,75.0,127.0,17708,9.222916666666666
795,9.0,,,,,,,70.0,,,,,,0,note_on,,40.0,70.0,40.0,4372,2.277083333333333
796,9.0,,,,,,,36.0,,,,,,0,note_on,,126.0,36.0,126.0,4372,2.277083333333333
797,9.0,,,,,,,35.0,,,,,,0,note_on,,60.0,35.0,60.0,4372,2.277083333333333
798,,,,,,,,,,,,,And ,0,lyrics,,,,,0,0.0
799,6.0,,,,,,,67.0,,,,,,4,note_on,,0.0,67.0,0.0,1615,0.8411458333333334
800,6.0,,,,,,,72.0,,,,,,35,note_on,,0.0,72.0,0.0,1650,0.859375
801,6.0,,,,,,,75.0,,,,,,4,note_on,,0.0,75.0,0.0,1654,0.8614583333333333
802,9.0,,,,,,,35.0,,,,,,111,note_on,,0.0,35.0,0.0,4483,2.3348958333333334
803,9.0,,,,,,,36.0,,,,,,0,note_on,,0.0,36.0,0.0,4483,2.3348958333333334
804,3.0,,,,,,,75.0,,,,,,54,note_on,,0.0,75.0,0.0,17762,9.251041666666666
805,9.0,,,,,,,70.0,,,,,,16,note_on,,0.0,70.0,0.0,4499,2.3432291666666667
806,3.0,,,,,,,82.0,,,,,,256,note_on,,127.0,82.0,127.0,18018,9.384375
807,9.0,,,,,,,42.0,,,,,,0,note_on,,85.0,42.0,85.0,4499,2.3432291666666667
808,9.0,,,,,,,70.0,,,,,,0,note_on,,40.0,70.0,40.0,4499,2.3432291666666667
809,9.0,,,,,,,39.0,,,,,,0,note_on,,127.0,39.0,127.0,4499,2.3432291666666667
810,9.0,,,,,,,28.0,,,,,,0,note_on,,127.0,28.0,127.0,4499,2.3432291666666667
811,11.0,,,,,,,68.0,,,,,,0,note_on,,127.0,68.0,127.0,10496,5.466666666666667
812,11.0,,,,,,,60.0,,,,,,0,note_on,,127.0,60.0,127.0,10496,5.466666666666667
813,11.0,,,,,,,63.0,,,,,,0,note_on,,127.0,63.0,127.0,10496,5.466666666666667
814,,,,,,,,,,,,,I'll ,0,lyrics,,,,,0,0.0
815,9.0,,,,,,,39.0,,,,,,123,note_on,,0.0,39.0,0.0,4622,2.4072916666666666
816,9.0,,,,,,,28.0,,,,,,2,note_on,,0.0,28.0,0.0,4624,2.408333333333333
817,3.0,,,,,,,82.0,,,,,,83,note_on,,0.0,82.0,0.0,18101,9.427604166666667
818,9.0,,,,,,,42.0,,,,,,16,note_on,,0.0,42.0,0.0,4640,2.4166666666666665
819,9.0,,,,,,,70.0,,,,,,0,note_on,,0.0,70.0,0.0,4640,2.4166666666666665
820,11.0,,,,,,,68.0,,,,,,161,note_on,,0.0,68.0,0.0,10657,5.550520833333334
821,11.0,,,,,,,60.0,,,,,,4,note_on,,0.0,60.0,0.0,10661,5.552604166666667
822,11.0,,,,,,,63.0,,,,,,19,note_on,,0.0,63.0,0.0,10680,5.5625
823,3.0,,,,,,,79.0,,,,,,72,note_on,,127.0,79.0,127.0,18173,9.465104166666666
824,9.0,,,,,,,70.0,,,,,,0,note_on,,40.0,70.0,40.0,4640,2.4166666666666665
825,10.0,,,,,,,68.0,,,,,,0,note_on,,127.0,68.0,127.0,4066,2.1177083333333333
826,10.0,,,,,,,60.0,,,,,,0,note_on,,127.0,60.0,127.0,4066,2.1177083333333333
827,10.0,,,,,,,63.0,,,,,,0,note_on,,127.0,63.0,127.0,4066,2.1177083333333333
828,11.0,,,,,,,63.0,,,,,,0,note_on,,127.0,63.0,127.0,10680,5.5625
829,11.0,,,,,,,60.0,,,,,,0,note_on,,127.0,60.0,127.0,10680,5.5625
830,11.0,,,,,,,67.0,,,,,,0,note_on,,127.0,67.0,127.0,10680,5.5625
831,,,,,,,,,,,,,be ,0,lyrics,,,,,0,0.0
832,3.0,,,,,,,79.0,,,,,,171,note_on,,0.0,79.0,0.0,18344,9.554166666666667
833,9.0,,,,,,,70.0,,,,,,53,note_on,,0.0,70.0,0.0,4693,2.4442708333333334
834,11.0,,,,,,,60.0,,,,,,147,note_on,,0.0,60.0,0.0,10827,5.6390625
835,11.0,,,,,,,67.0,,,,,,11,note_on,,0.0,67.0,0.0,10838,5.644791666666666
836,10.0,,,,,,,68.0,,,,,,3,note_on,,0.0,68.0,0.0,4069,2.119270833333333
837,10.0,,,,,,,60.0,,,,,,4,note_on,,0.0,60.0,0.0,4073,2.1213541666666664
838,10.0,,,,,,,63.0,,,,,,19,note_on,,0.0,63.0,0.0,4092,2.13125
839,11.0,,,,,,,63.0,,,,,,18,note_on,,0.0,63.0,0.0,10856,5.654166666666667
840,3.0,,,,,,,77.0,,,,,,54,note_on,,127.0,77.0,127.0,18398,9.582291666666666
841,9.0,,,,,,,42.0,,,,,,0,note_on,,85.0,42.0,85.0,4693,2.4442708333333334
842,9.0,,,,,,,70.0,,,,,,0,note_on,,40.0,70.0,40.0,4693,2.4442708333333334
843,9.0,,,,,,,36.0,,,,,,0,note_on,,126.0,36.0,126.0,4693,2.4442708333333334
844,9.0,,,,,,,35.0,,,,,,0,note_on,,60.0,35.0,60.0,4693,2.4442708333333334
845,10.0,,,,,,,63.0,,,,,,0,note_on,,127.0,63.0,127.0,4092,2.13125
846,10.0,,,,,,,60.0,,,,,,0,note_on,,127.0,60.0,127.0,4092,2.13125
847,10.0,,,,,,,67.0,,,,,,0,note_on,,127.0,67.0,127.0,4092,2.13125
848,12.0,,,,,,,68.0,,,,,,0,note_on,,127.0,68.0,127.0,6385,3.3255208333333335
849,12.0,,,,,,,60.0,,,,,,0,note_on,,127.0,60.0,127.0,6385,3.3255208333333335
850,12.0,,,,,,,63.0,,,,,,0,note_on,,127.0,63.0,127.0,6385,3.3255208333333335
851,,,,,,,,,,,,,there ,0,lyrics,,,,,0,0.0
852,9.0,,,,,,,35.0,,,,,,172,note_on,,0.0,35.0,0.0,4865,2.5338541666666665
853,9.0,,,,,,,36.0,,,,,,0,note_on,,0.0,36.0,0.0,4865,2.5338541666666665
854,9.0,,,,,,,70.0,,,,,,52,note_on,,0.0,70.0,0.0,4917,2.5609375
855,9.0,,,,,,,42.0,,,,,,0,note_on,,0.0,42.0,0.0,4917,2.5609375
856,10.0,,,,,,,60.0,,,,,,147,note_on,,0.0,60.0,0.0,4239,2.2078125
857,10.0,,,,,,,67.0,,,,,,11,note_on,,0.0,67.0,0.0,4250,2.2135416666666665
858,12.0,,,,,,,68.0,,,,,,3,note_on,,0.0,68.0,0.0,6388,3.3270833333333334
859,12.0,,,,,,,60.0,,,,,,4,note_on,,0.0,60.0,0.0,6392,3.3291666666666666
860,12.0,,,,,,,63.0,,,,,,19,note_on,,0.0,63.0,0.0,6411,3.3390625
861,10.0,,,,,,,63.0,,,,,,18,note_on,,0.0,63.0,0.0,4268,2.2229166666666664
862,9.0,,,,,,,70.0,,,,,,54,note_on,,40.0,70.0,40.0,4971,2.5890625
863,12.0,,,,,,,63.0,,,,,,0,note_on,,127.0,63.0,127.0,6411,3.3390625
864,12.0,,,,,,,60.0,,,,,,0,note_on,,127.0,60.0,127.0,6411,3.3390625
865,12.0,,,,,,,67.0,,,,,,0,note_on,,127.0,67.0,127.0,6411,3.3390625
866,3.0,,1.0,,,,,,,,,,,100,control_change,22.0,,,,18498,9.634375
867,9.0,,,,,,,70.0,,,,,,124,note_on,,0.0,70.0,0.0,5095,2.6536458333333335
868,9.0,,,,,,,36.0,,,,,,16,note_on,,126.0,36.0,126.0,5111,2.661979166666667
869,9.0,,,,,,,35.0,,,,,,0,note_on,,60.0,35.0,60.0,5111,2.661979166666667
870,12.0,,,,,,,60.0,,,,,,131,note_on,,0.0,60.0,0.0,6542,3.4072916666666666
871,12.0,,,,,,,67.0,,,,,,11,note_on,,0.0,67.0,0.0,6553,3.4130208333333334
872,12.0,,,,,,,63.0,,,,,,44,note_on,,0.0,63.0,0.0,6597,3.4359375
873,3.0,,,,,,,,,-335.0,,,,6,pitchwheel,,,,,18504,9.6375
874,3.0,,,,,,,,,-464.0,,,,9,pitchwheel,,,,,18513,9.6421875
875,3.0,,,,,,,,,-902.0,,,,10,pitchwheel,,,,,18523,9.647395833333333
876,3.0,,,,,,,,,-1160.0,,,,6,pitchwheel,,,,,18529,9.650520833333333
877,9.0,,,,,,,35.0,,,,,,7,note_on,,0.0,35.0,0.0,5118,2.665625
878,9.0,,,,,,,36.0,,,,,,0,note_on,,0.0,36.0,0.0,5118,2.665625
879,3.0,,,,,,,,,-1598.0,,,,2,pitchwheel,,,,,18531,9.6515625
880,3.0,,,,,,,,,-2010.0,,,,8,pitchwheel,,,,,18539,9.655729166666667
881,9.0,,,,,,,42.0,,,,,,6,note_on,,85.0,42.0,85.0,5124,2.66875
882,9.0,,,,,,,70.0,,,,,,0,note_on,,40.0,70.0,40.0,5124,2.66875
883,9.0,,,,,,,39.0,,,,,,0,note_on,,125.0,39.0,125.0,5124,2.66875
884,9.0,,,,,,,28.0,,,,,,0,note_on,,127.0,28.0,127.0,5124,2.66875
885,3.0,,,,,,,,,-2422.0,,,,2,pitchwheel,,,,,18541,9.656770833333333
886,3.0,,,,,,,,,-2216.0,,,,11,pitchwheel,,,,,18552,9.6625
887,3.0,,,,,,,,,-3246.0,,,,6,pitchwheel,,,,,18558,9.665625
888,3.0,,,,,,,,,-3530.0,,,,8,pitchwheel,,,,,18566,9.669791666666667
889,3.0,,,,,,,,,-3684.0,,,,11,pitchwheel,,,,,18577,9.675520833333334
890,3.0,,,,,,,,,-3916.0,,,,6,pitchwheel,,,,,18583,9.678645833333333
891,3.0,,,,,,,,,-4328.0,,,,8,pitchwheel,,,,,18591,9.6828125
892,3.0,,,,,,,,,-5127.0,,,,7,pitchwheel,,,,,18598,9.686458333333333
893,3.0,,,,,,,,,-4895.0,,,,21,pitchwheel,,,,,18619,9.697395833333333
894,3.0,,,,,,,,,-6106.0,,,,15,pitchwheel,,,,,18634,9.705208333333333
895,3.0,,,,,,,,,-6621.0,,,,8,pitchwheel,,,,,18642,9.709375
896,3.0,,,,,,,,,-6467.0,,,,8,pitchwheel,,,,,18650,9.713541666666666
897,9.0,,,,,,,28.0,,,,,,6,note_on,,0.0,28.0,0.0,5130,2.671875
898,3.0,,,,,,,,,-5900.0,,,,5,pitchwheel,,,,,18655,9.716145833333334
899,3.0,,,,,,,,,-7471.0,,,,10,pitchwheel,,,,,18665,9.721354166666666
900,3.0,,,,,,,,,-6750.0,,,,8,pitchwheel,,,,,18673,9.725520833333333
901,3.0,,,,,,,,,-7368.0,,,,9,pitchwheel,,,,,18682,9.730208333333334
902,9.0,,,,,,,39.0,,,,,,2,note_on,,0.0,39.0,0.0,5132,2.6729166666666666
903,3.0,,,,,,,,,-8192.0,,,,21,pitchwheel,,,,,18703,9.741145833333333
904,3.0,,,,,,,,,-7755.0,,,,8,pitchwheel,,,,,18711,9.7453125
905,3.0,,,,,,,,,-7265.0,,,,10,pitchwheel,,,,,18721,9.750520833333333
906,3.0,,,,,,,,,-7368.0,,,,9,pitchwheel,,,,,18730,9.755208333333334
907,3.0,,,,,,,,,-8192.0,,,,4,pitchwheel,,,,,18734,9.757291666666667
908,3.0,,,,,,,,,-8141.0,,,,10,pitchwheel,,,,,18744,9.7625
909,9.0,,,,,,,70.0,,,,,,11,note_on,,0.0,70.0,0.0,5143,2.6786458333333334
910,9.0,,,,,,,42.0,,,,,,0,note_on,,0.0,42.0,0.0,5143,2.6786458333333334
911,3.0,,,,,,,,,-8192.0,,,,0,pitchwheel,,,,,18744,9.7625
912,6.0,,,,,,,67.0,,,,,,256,note_on,,127.0,67.0,127.0,1910,0.9947916666666666
913,6.0,,,,,,,72.0,,,,,,0,note_on,,127.0,72.0,127.0,1910,0.9947916666666666
914,6.0,,,,,,,75.0,,,,,,0,note_on,,127.0,75.0,127.0,1910,0.9947916666666666
915,9.0,,,,,,,46.0,,,,,,0,note_on,,100.0,46.0,100.0,5143,2.6786458333333334
916,9.0,,,,,,,70.0,,,,,,0,note_on,,40.0,70.0,40.0,5143,2.6786458333333334
917,9.0,,,,,,,36.0,,,,,,0,note_on,,126.0,36.0,126.0,5143,2.6786458333333334
918,9.0,,,,,,,35.0,,,,,,0,note_on,,60.0,35.0,60.0,5143,2.6786458333333334
919,9.0,,,,,,,35.0,,,,,,166,note_on,,0.0,35.0,0.0,5309,2.7651041666666667
920,9.0,,,,,,,36.0,,,,,,0,note_on,,0.0,36.0,0.0,5309,2.7651041666666667
921,9.0,,,,,,,46.0,,,,,,58,note_on,,0.0,46.0,0.0,5367,2.7953125
922,9.0,,,,,,,70.0,,,,,,0,note_on,,0.0,70.0,0.0,5367,2.7953125
923,3.0,,,,,,,77.0,,,,,,206,note_on,,0.0,77.0,0.0,18950,9.869791666666666
924,3.0,,,,,,,,,-8038.0,,,,30,pitchwheel,,,,,18980,9.885416666666666
925,3.0,,,,,,,,,-7806.0,,,,8,pitchwheel,,,,,18988,9.889583333333333
926,6.0,,,,,,,,,-387.0,,,,6,pitchwheel,,,,,1916,0.9979166666666667
927,3.0,,,,,,,,,-8192.0,,,,1,pitchwheel,,,,,18989,9.890104166666667
928,9.0,,,,,,,46.0,,,,,,5,note_on,,100.0,46.0,100.0,5372,2.7979166666666666
929,9.0,,,,,,,70.0,,,,,,0,note_on,,40.0,70.0,40.0,5372,2.7979166666666666
930,3.0,,,,,,,,,-7214.0,,,,1,pitchwheel,,,,,18990,9.890625
931,6.0,,,,,,,,,-1031.0,,,,3,pitchwheel,,,,,1919,0.9994791666666667
932,3.0,,,,,,,,,-7368.0,,,,5,pitchwheel,,,,,18995,9.893229166666666
933,6.0,,,,,,,,,-1572.0,,,,3,pitchwheel,,,,,1922,1.0010416666666666
934,3.0,,,,,,,,,-6544.0,,,,5,pitchwheel,,,,,19000,9.895833333333334
935,6.0,,,,,,,,,-2087.0,,,,4,pitchwheel,,,,,1926,1.003125
936,3.0,,,,,,,,,-7188.0,,,,7,pitchwheel,,,,,19007,9.899479166666666
937,6.0,,,,,,,,,-2525.0,,,,3,pitchwheel,,,,,1929,1.0046875
938,3.0,,,,,,,,,-6776.0,,,,5,pitchwheel,,,,,19012,9.902083333333334
939,6.0,,,,,,,,,-3169.0,,,,1,pitchwheel,,,,,1930,1.0052083333333333
940,3.0,,,,,,,,,-5204.0,,,,8,pitchwheel,,,,,19020,9.90625
941,6.0,,,,,,,,,-3581.0,,,,1,pitchwheel,,,,,1931,1.0057291666666666
942,3.0,,,,,,,,,-4715.0,,,,7,pitchwheel,,,,,19027,9.909895833333334
943,6.0,,,,,,,,,-4148.0,,,,1,pitchwheel,,,,,1932,1.00625
944,3.0,,,,,,,,,-2216.0,,,,7,pitchwheel,,,,,19034,9.913541666666667
945,6.0,,,,,,,,,-4715.0,,,,3,pitchwheel,,,,,1935,1.0078125
946,3.0,,,,,,,,,0.0,,,,3,pitchwheel,,,,,19037,9.915104166666666
947,6.0,,,,,,,,,-5307.0,,,,6,pitchwheel,,,,,1941,1.0109375
948,6.0,,,,,,,,,-5591.0,,,,8,pitchwheel,,,,,1949,1.0151041666666667
949,3.0,,,,,,,,,1854.0,,,,1,pitchwheel,,,,,19038,9.915625
950,6.0,,,,,,,,,-5874.0,,,,7,pitchwheel,,,,,1956,1.01875
951,3.0,,,,,,,,,1210.0,,,,3,pitchwheel,,,,,19041,9.9171875
952,6.0,,,,,,,,,-6235.0,,,,6,pitchwheel,,,,,1962,1.021875
953,3.0,,,,,,,,,25.0,,,,3,pitchwheel,,,,,19044,9.91875
954,6.0,,,,,,,,,-6776.0,,,,7,pitchwheel,,,,,1969,1.0255208333333332
955,3.0,,,,,,,,,0.0,,,,1,pitchwheel,,,,,19045,9.919270833333334
956,6.0,,,,,,,,,-6956.0,,,,7,pitchwheel,,,,,1976,1.0291666666666666
957,6.0,,,,,,,,,-7188.0,,,,9,pitchwheel,,,,,1985,1.0338541666666667
958,6.0,,,,,,,,,-7652.0,,,,8,pitchwheel,,,,,1993,1.0380208333333334
959,6.0,,,,,,,,,-7780.0,,,,17,pitchwheel,,,,,2010,1.046875
960,6.0,,,,,,,,,-7883.0,,,,8,pitchwheel,,,,,2018,1.0510416666666667
961,6.0,,,,,,,,,-7935.0,,,,10,pitchwheel,,,,,2028,1.05625
962,6.0,,,,,,,,,-8012.0,,,,9,pitchwheel,,,,,2037,1.0609375
963,6.0,,,,,,,,,-7780.0,,,,10,pitchwheel,,,,,2047,1.0661458333333333
964,6.0,,,,,,,,,-7626.0,,,,8,pitchwheel,,,,,2055,1.0703125
965,6.0,,,,,,,,,-7317.0,,,,9,pitchwheel,,,,,2064,1.075
966,6.0,,,,,,,,,-7111.0,,,,10,pitchwheel,,,,,2074,1.0802083333333332
967,6.0,,,,,,,,,-6776.0,,,,8,pitchwheel,,,,,2082,1.084375
968,9.0,,,,,,,70.0,,,,,,2,note_on,,0.0,70.0,0.0,5374,2.798958333333333
969,9.0,,,,,,,46.0,,,,,,0,note_on,,0.0,46.0,0.0,5374,2.798958333333333
970,6.0,,,,,,,,,-6003.0,,,,7,pitchwheel,,,,,2089,1.0880208333333332
971,6.0,,,,,,,,,-5410.0,,,,8,pitchwheel,,,,,2097,1.0921875
972,6.0,,,,,,,,,-4766.0,,,,8,pitchwheel,,,,,2105,1.0963541666666667
973,6.0,,,,,,,,,-4071.0,,,,9,pitchwheel,,,,,2114,1.1010416666666667
974,6.0,,,,,,,,,-3452.0,,,,8,pitchwheel,,,,,2122,1.1052083333333333
975,6.0,,,,,,,,,-2808.0,,,,8,pitchwheel,,,,,2130,1.109375
976,6.0,,,,,,,,,-1933.0,,,,13,pitchwheel,,,,,2143,1.1161458333333334
977,6.0,,,,,,,,,-1392.0,,,,8,pitchwheel,,,,,2151,1.1203125
978,6.0,,,,,,,,,-670.0,,,,9,pitchwheel,,,,,2160,1.125
979,6.0,,,,,,,,,0.0,,,,8,pitchwheel,,,,,2168,1.1291666666666667
980,3.0,,,,,,,82.0,,,,,,170,note_on,,127.0,82.0,127.0,19215,10.0078125
981,9.0,,,,,,,70.0,,,,,,0,note_on,,40.0,70.0,40.0,5374,2.798958333333333
982,9.0,,,,,,,36.0,,,,,,0,note_on,,126.0,36.0,126.0,5374,2.798958333333333
983,9.0,,,,,,,35.0,,,,,,0,note_on,,60.0,35.0,60.0,5374,2.798958333333333
984,,,,,,,,,,,,,You ,0,lyrics,,,,,0,0.0
985,3.0,,,,,,,82.0,,,,,,145,note_on,,0.0,82.0,0.0,19360,10.083333333333334
986,9.0,,,,,,,36.0,,,,,,9,note_on,,0.0,36.0,0.0,5383,2.8036458333333334
987,9.0,,,,,,,35.0,,,,,,0,note_on,,0.0,35.0,0.0,5383,2.8036458333333334
988,9.0,,,,,,,70.0,,,,,,70,note_on,,0.0,70.0,0.0,5453,2.8401041666666664
989,6.0,,,,,,,75.0,,,,,,16,note_on,,0.0,75.0,0.0,2184,1.1375
990,6.0,,,,,,,72.0,,,,,,0,note_on,,0.0,72.0,0.0,2184,1.1375
991,6.0,,,,,,,67.0,,,,,,12,note_on,,0.0,67.0,0.0,2196,1.14375
992,3.0,,,,,,,82.0,,,,,,228,note_on,,127.0,82.0,127.0,19588,10.202083333333333
993,9.0,,,,,,,42.0,,,,,,0,note_on,,85.0,42.0,85.0,5453,2.8401041666666664
994,9.0,,,,,,,70.0,,,,,,0,note_on,,40.0,70.0,40.0,5453,2.8401041666666664
995,9.0,,,,,,,39.0,,,,,,0,note_on,,127.0,39.0,127.0,5453,2.8401041666666664
996,9.0,,,,,,,28.0,,,,,,0,note_on,,127.0,28.0,127.0,5453,2.8401041666666664
997,,,,,,,,,,,,,want ,0,lyrics,,,,,0,0.0
998,9.0,,,,,,,39.0,,,,,,123,note_on,,0.0,39.0,0.0,5576,2.904166666666667
999,9.0,,,,,,,28.0,,,,,,2,note_on,,0.0,28.0,0.0,5578,2.9052083333333334
1000,9.0,,,,,,,70.0,,,,,,99,note_on,,0.0,70.0,0.0,5677,2.956770833333333
1001,9.0,,,,,,,42.0,,,,,,0,note_on,,0.0,42.0,0.0,5677,2.956770833333333
1002,3.0,,,,,,,82.0,,,,,,1,note_on,,0.0,82.0,0.0,19589,10.202604166666667
1003,3.0,,,,,,,79.0,,,,,,255,note_on,,127.0,79.0,127.0,19844,10.335416666666667
1004,9.0,,,,,,,61.0,,,,,,0,note_on,,100.0,61.0,100.0,5677,2.956770833333333
1005,9.0,,,,,,,70.0,,,,,,0,note_on,,40.0,70.0,40.0,5677,2.956770833333333
1006,,,,,,,,,,,,,my ,0,lyrics,,,,,0,0.0
1007,9.0,,,,,,,61.0,,,,,,114,note_on,,0.0,61.0,0.0,5791,3.0161458333333333
1008,9.0,,,,,,,61.0,,,,,,6,note_on,,100.0,61.0,100.0,5797,3.019270833333333
1009,3.0,,,,,,,79.0,,,,,,59,note_on,,0.0,79.0,0.0,19903,10.366145833333333
1010,9.0,,,,,,,70.0,,,,,,45,note_on,,0.0,70.0,0.0,5842,3.042708333333333
1011,9.0,,,,,,,61.0,,,,,,10,note_on,,0.0,61.0,0.0,5852,3.0479166666666666
1012,9.0,,,,,,,61.0,,,,,,6,note_on,,100.0,61.0,100.0,5858,3.0510416666666664
1013,9.0,,,,,,,61.0,,,,,,114,note_on,,0.0,61.0,0.0,5972,3.1104166666666666
1014,9.0,,,,,,,61.0,,,,,,6,note_on,,100.0,61.0,100.0,5978,3.1135416666666664
1015,9.0,,,,,,,61.0,,,,,,114,note_on,,0.0,61.0,0.0,6092,3.1729166666666666
1016,3.0,,,,,,,77.0,,,,,,6,note_on,,127.0,77.0,127.0,19909,10.369270833333333
1017,9.0,,,,,,,61.0,,,,,,0,note_on,,100.0,61.0,100.0,6092,3.1729166666666666
1018,9.0,,,,,,,42.0,,,,,,0,note_on,,85.0,42.0,85.0,6092,3.1729166666666666
1019,9.0,,,,,,,70.0,,,,,,0,note_on,,40.0,70.0,40.0,6092,3.1729166666666666
1020,9.0,,,,,,,36.0,,,,,,0,note_on,,126.0,36.0,126.0,6092,3.1729166666666666
1021,9.0,,,,,,,35.0,,,,,,0,note_on,,60.0,35.0,60.0,6092,3.1729166666666666
1022,11.0,,,,,,,60.0,,,,,,0,note_on,,127.0,60.0,127.0,10856,5.654166666666667
1023,11.0,,,,,,,56.0,,,,,,0,note_on,,127.0,56.0,127.0,10856,5.654166666666667
1024,11.0,,,,,,,63.0,,,,,,0,note_on,,127.0,63.0,127.0,10856,5.654166666666667
1025,,,,,,,,,,,,,"love, ",0,lyrics,,,,,0,0.0
1026,9.0,,,,,,,61.0,,,,,,114,note_on,,0.0,61.0,0.0,6206,3.232291666666667
1027,9.0,,,,,,,36.0,,,,,,58,note_on,,0.0,36.0,0.0,6264,3.2624999999999997
1028,9.0,,,,,,,35.0,,,,,,0,note_on,,0.0,35.0,0.0,6264,3.2624999999999997
1029,9.0,,,,,,,70.0,,,,,,52,note_on,,0.0,70.0,0.0,6316,3.2895833333333333
1030,9.0,,,,,,,42.0,,,,,,0,note_on,,0.0,42.0,0.0,6316,3.2895833333333333
1031,11.0,,,,,,,56.0,,,,,,207,note_on,,0.0,56.0,0.0,11063,5.761979166666666
1032,3.0,,,,,,,,,-310.0,,,,5,pitchwheel,,,,,19914,10.371875
1033,3.0,,,,,,,,,-696.0,,,,11,pitchwheel,,,,,19925,10.377604166666666
1034,3.0,,,,,,,,,-1005.0,,,,8,pitchwheel,,,,,19933,10.381770833333333
1035,11.0,,,,,,,60.0,,,,,,1,note_on,,0.0,60.0,0.0,11064,5.7625
1036,3.0,,,,,,,,,-1366.0,,,,5,pitchwheel,,,,,19938,10.384375
1037,3.0,,,,,,,,,-1830.0,,,,9,pitchwheel,,,,,19947,10.3890625
1038,3.0,,,,,,,,,-2190.0,,,,8,pitchwheel,,,,,19955,10.393229166666666
1039,9.0,,,,,,,70.0,,,,,,2,note_on,,40.0,70.0,40.0,6318,3.290625
1040,10.0,,,,,,,60.0,,,,,,0,note_on,,127.0,60.0,127.0,4268,2.2229166666666664
1041,10.0,,,,,,,56.0,,,,,,0,note_on,,127.0,56.0,127.0,4268,2.2229166666666664
1042,10.0,,,,,,,63.0,,,,,,0,note_on,,127.0,63.0,127.0,4268,2.2229166666666664
1043,3.0,,,,,,,,,-2680.0,,,,6,pitchwheel,,,,,19961,10.396354166666667
1044,11.0,,,,,,,63.0,,,,,,3,note_on,,0.0,63.0,0.0,11067,5.7640625
1045,3.0,,,,,,,,,-3427.0,,,,6,pitchwheel,,,,,19967,10.399479166666666
1046,3.0,,,,,,,,,-3865.0,,,,10,pitchwheel,,,,,19977,10.4046875
1047,3.0,,,,,,,,,-4200.0,,,,6,pitchwheel,,,,,19983,10.4078125
1048,3.0,,,,,,,,,-4947.0,,,,9,pitchwheel,,,,,19992,10.4125
1049,3.0,,,,,,,,,-5591.0,,,,10,pitchwheel,,,,,20002,10.417708333333334
1050,3.0,,,,,,,,,-5668.0,,,,10,pitchwheel,,,,,20012,10.422916666666666
1051,3.0,,,,,,,,,-6673.0,,,,11,pitchwheel,,,,,20023,10.428645833333333
1052,3.0,,,,,,,,,-7085.0,,,,8,pitchwheel,,,,,20031,10.4328125
1053,3.0,,,,,,,,,-7600.0,,,,8,pitchwheel,,,,,20039,10.436979166666667
1054,3.0,,,,,,,,,-7703.0,,,,9,pitchwheel,,,,,20048,10.441666666666666
1055,3.0,,,,,,,,,-7935.0,,,,8,pitchwheel,,,,,20056,10.445833333333333
1056,3.0,,,,,,,,,-8192.0,,,,10,pitchwheel,,,,,20066,10.451041666666667
1057,9.0,,,,,,,70.0,,,,,,110,note_on,,0.0,70.0,0.0,6428,3.3479166666666664
1058,9.0,,,,,,,36.0,,,,,,16,note_on,,126.0,36.0,126.0,6444,3.3562499999999997
1059,9.0,,,,,,,35.0,,,,,,0,note_on,,60.0,35.0,60.0,6444,3.3562499999999997
1060,10.0,,,,,,,56.0,,,,,,191,note_on,,0.0,56.0,0.0,4459,2.322395833333333
1061,10.0,,,,,,,60.0,,,,,,25,note_on,,0.0,60.0,0.0,4484,2.3354166666666667
1062,9.0,,,,,,,36.0,,,,,,8,note_on,,0.0,36.0,0.0,6452,3.3604166666666666
1063,9.0,,,,,,,35.0,,,,,,0,note_on,,0.0,35.0,0.0,6452,3.3604166666666666
1064,9.0,,,,,,,42.0,,,,,,16,note_on,,85.0,42.0,85.0,6468,3.36875
1065,9.0,,,,,,,70.0,,,,,,0,note_on,,40.0,70.0,40.0,6468,3.36875
1066,9.0,,,,,,,39.0,,,,,,0,note_on,,125.0,39.0,125.0,6468,3.36875
1067,9.0,,,,,,,28.0,,,,,,0,note_on,,127.0,28.0,127.0,6468,3.36875
1068,12.0,,,,,,,60.0,,,,,,0,note_on,,127.0,60.0,127.0,6597,3.4359375
1069,12.0,,,,,,,56.0,,,,,,0,note_on,,127.0,56.0,127.0,6597,3.4359375
1070,12.0,,,,,,,63.0,,,,,,0,note_on,,127.0,63.0,127.0,6597,3.4359375
1071,10.0,,,,,,,63.0,,,,,,9,note_on,,0.0,63.0,0.0,4493,2.3401041666666664
1072,9.0,,,,,,,28.0,,,,,,108,note_on,,0.0,28.0,0.0,6576,3.425
1073,9.0,,,,,,,39.0,,,,,,34,note_on,,0.0,39.0,0.0,6610,3.4427083333333335
1074,9.0,,,,,,,70.0,,,,,,73,note_on,,0.0,70.0,0.0,6683,3.4807291666666664
1075,9.0,,,,,,,42.0,,,,,,0,note_on,,0.0,42.0,0.0,6683,3.4807291666666664
1076,12.0,,,,,,,56.0,,,,,,207,note_on,,0.0,56.0,0.0,6804,3.5437499999999997
1077,12.0,,,,,,,60.0,,,,,,25,note_on,,0.0,60.0,0.0,6829,3.556770833333333
1078,9.0,,,,,,,70.0,,,,,,24,note_on,,40.0,70.0,40.0,6707,3.4932291666666666
1079,9.0,,,,,,,36.0,,,,,,0,note_on,,126.0,36.0,126.0,6707,3.4932291666666666
1080,9.0,,,,,,,35.0,,,,,,0,note_on,,60.0,35.0,60.0,6707,3.4932291666666666
1081,12.0,,,,,,,63.0,,,,,,9,note_on,,0.0,63.0,0.0,6838,3.5614583333333334
1082,3.0,,,,,,,77.0,,,,,,84,note_on,,0.0,77.0,0.0,20150,10.494791666666666
1083,3.0,,,,,,,,,-7677.0,,,,18,pitchwheel,,,,,20168,10.504166666666666
1084,3.0,,,,,,,,,-7523.0,,,,8,pitchwheel,,,,,20176,10.508333333333333
1085,3.0,,,,,,,,,-8192.0,,,,9,pitchwheel,,,,,20185,10.513020833333334
1086,3.0,,,,,,,,,-7986.0,,,,8,pitchwheel,,,,,20193,10.5171875
1087,3.0,,,,,,,,,-7832.0,,,,4,pitchwheel,,,,,20197,10.519270833333334
1088,3.0,,,,,,,,,-7471.0,,,,13,pitchwheel,,,,,20210,10.526041666666666
1089,3.0,,,,,,,,,-7188.0,,,,10,pitchwheel,,,,,20220,10.53125
1090,9.0,,,,,,,36.0,,,,,,3,note_on,,0.0,36.0,0.0,6710,3.4947916666666665
1091,9.0,,,,,,,35.0,,,,,,0,note_on,,0.0,35.0,0.0,6710,3.4947916666666665
1092,3.0,,,,,,,,,-6776.0,,,,5,pitchwheel,,,,,20225,10.533854166666666
1093,3.0,,,,,,,,,-4328.0,,,,9,pitchwheel,,,,,20234,10.538541666666667
1094,3.0,,,,,,,,,-2036.0,,,,8,pitchwheel,,,,,20242,10.542708333333334
1095,3.0,,,,,,,,,0.0,,,,8,pitchwheel,,,,,20250,10.546875
1096,3.0,,,,,,,,,1596.0,,,,11,pitchwheel,,,,,20261,10.552604166666667
1097,3.0,,,,,,,,,1313.0,,,,8,pitchwheel,,,,,20269,10.556770833333333
1098,3.0,,,,,,,,,334.0,,,,8,pitchwheel,,,,,20277,10.5609375
1099,9.0,,,,,,,70.0,,,,,,1,note_on,,0.0,70.0,0.0,6711,3.4953125
1100,3.0,,,,,,,,,0.0,,,,8,pitchwheel,,,,,20285,10.565104166666666
1101,6.0,,,,,,,68.0,,,,,,248,note_on,,127.0,68.0,127.0,2444,1.2729166666666667
1102,6.0,,,,,,,72.0,,,,,,0,note_on,,127.0,72.0,127.0,2444,1.2729166666666667
1103,6.0,,,,,,,75.0,,,,,,0,note_on,,127.0,75.0,127.0,2444,1.2729166666666667
1104,9.0,,,,,,,42.0,,,,,,0,note_on,,85.0,42.0,85.0,6711,3.4953125
1105,9.0,,,,,,,70.0,,,,,,0,note_on,,40.0,70.0,40.0,6711,3.4953125
1106,9.0,,,,,,,70.0,,,,,,224,note_on,,0.0,70.0,0.0,6935,3.6119791666666665
1107,9.0,,,,,,,42.0,,,,,,0,note_on,,0.0,42.0,0.0,6935,3.6119791666666665
1108,6.0,,,,,,,68.0,,,,,,183,note_on,,0.0,68.0,0.0,2627,1.3682291666666666
1109,6.0,,,,,,,72.0,,,,,,14,note_on,,0.0,72.0,0.0,2641,1.3755208333333333
1110,6.0,,,,,,,75.0,,,,,,12,note_on,,0.0,75.0,0.0,2653,1.3817708333333334
1111,3.0,,,,,,,82.0,,,,,,47,note_on,,127.0,82.0,127.0,20332,10.589583333333334
1112,9.0,,,,,,,70.0,,,,,,0,note_on,,40.0,70.0,40.0,6935,3.6119791666666665
1113,9.0,,,,,,,36.0,,,,,,0,note_on,,126.0,36.0,126.0,6935,3.6119791666666665
1114,9.0,,,,,,,35.0,,,,,,0,note_on,,60.0,35.0,60.0,6935,3.6119791666666665
1115,,,,,,,,,,,,,You ,0,lyrics,,,,,0,0.0
1116,3.0,,,,,,,82.0,,,,,,144,note_on,,0.0,82.0,0.0,20476,10.664583333333333
1117,9.0,,,,,,,35.0,,,,,,10,note_on,,0.0,35.0,0.0,6945,3.6171875
1118,9.0,,,,,,,36.0,,,,,,0,note_on,,0.0,36.0,0.0,6945,3.6171875
1119,9.0,,,,,,,70.0,,,,,,70,note_on,,0.0,70.0,0.0,7015,3.6536458333333335
1120,3.0,,,,,,,82.0,,,,,,256,note_on,,127.0,82.0,127.0,20732,10.797916666666666
1121,9.0,,,,,,,42.0,,,,,,0,note_on,,85.0,42.0,85.0,7015,3.6536458333333335
1122,9.0,,,,,,,70.0,,,,,,0,note_on,,40.0,70.0,40.0,7015,3.6536458333333335
1123,9.0,,,,,,,39.0,,,,,,0,note_on,,127.0,39.0,127.0,7015,3.6536458333333335
1124,9.0,,,,,,,28.0,,,,,,0,note_on,,127.0,28.0,127.0,7015,3.6536458333333335
1125,11.0,,,,,,,60.0,,,,,,0,note_on,,127.0,60.0,127.0,11067,5.7640625
1126,11.0,,,,,,,65.0,,,,,,0,note_on,,127.0,65.0,127.0,11067,5.7640625
1127,11.0,,,,,,,56.0,,,,,,0,note_on,,127.0,56.0,127.0,11067,5.7640625
1128,,,,,,,,,,,,,want ,0,lyrics,,,,,0,0.0
1129,9.0,,,,,,,39.0,,,,,,123,note_on,,0.0,39.0,0.0,7138,3.7177083333333334
1130,9.0,,,,,,,28.0,,,,,,2,note_on,,0.0,28.0,0.0,7140,3.71875
1131,3.0,,,,,,,82.0,,,,,,72,note_on,,0.0,82.0,0.0,20804,10.835416666666667
1132,9.0,,,,,,,42.0,,,,,,27,note_on,,0.0,42.0,0.0,7167,3.7328125
1133,9.0,,,,,,,70.0,,,,,,0,note_on,,0.0,70.0,0.0,7167,3.7328125
1134,11.0,,,,,,,65.0,,,,,,160,note_on,,0.0,65.0,0.0,11227,5.847395833333334
1135,11.0,,,,,,,56.0,,,,,,10,note_on,,0.0,56.0,0.0,11237,5.852604166666667
1136,11.0,,,,,,,60.0,,,,,,21,note_on,,0.0,60.0,0.0,11258,5.863541666666666
1137,3.0,,,,,,,79.0,,,,,,65,note_on,,127.0,79.0,127.0,20869,10.869270833333333
1138,9.0,,,,,,,70.0,,,,,,0,note_on,,40.0,70.0,40.0,7167,3.7328125
1139,10.0,,,,,,,60.0,,,,,,0,note_on,,127.0,60.0,127.0,4493,2.3401041666666664
1140,10.0,,,,,,,65.0,,,,,,0,note_on,,127.0,65.0,127.0,4493,2.3401041666666664
1141,10.0,,,,,,,56.0,,,,,,0,note_on,,127.0,56.0,127.0,4493,2.3401041666666664
1142,11.0,,,,,,,60.0,,,,,,0,note_on,,127.0,60.0,127.0,11258,5.863541666666666
1143,11.0,,,,,,,56.0,,,,,,0,note_on,,124.0,56.0,124.0,11258,5.863541666666666
1144,11.0,,,,,,,63.0,,,,,,0,note_on,,127.0,63.0,127.0,11258,5.863541666666666
1145,,,,,,,,,,,,,my ,0,lyrics,,,,,0,0.0
1146,3.0,,,,,,,79.0,,,,,,185,note_on,,0.0,79.0,0.0,21054,10.965625
1147,9.0,,,,,,,70.0,,,,,,39,note_on,,0.0,70.0,0.0,7206,3.753125
1148,10.0,,,,,,,65.0,,,,,,160,note_on,,0.0,65.0,0.0,4653,2.4234375
1149,10.0,,,,,,,56.0,,,,,,10,note_on,,0.0,56.0,0.0,4663,2.4286458333333334
1150,10.0,,,,,,,60.0,,,,,,21,note_on,,0.0,60.0,0.0,4684,2.439583333333333
1151,11.0,,,,,,,56.0,,,,,,46,note_on,,0.0,56.0,0.0,11304,5.8875
1152,3.0,,,,,,,77.0,,,,,,19,note_on,,127.0,77.0,127.0,21073,10.975520833333333
1153,9.0,,,,,,,42.0,,,,,,0,note_on,,85.0,42.0,85.0,7206,3.753125
1154,9.0,,,,,,,70.0,,,,,,0,note_on,,40.0,70.0,40.0,7206,3.753125
1155,9.0,,,,,,,36.0,,,,,,0,note_on,,126.0,36.0,126.0,7206,3.753125
1156,9.0,,,,,,,35.0,,,,,,0,note_on,,60.0,35.0,60.0,7206,3.753125
1157,10.0,,,,,,,60.0,,,,,,0,note_on,,127.0,60.0,127.0,4684,2.439583333333333
1158,10.0,,,,,,,56.0,,,,,,0,note_on,,124.0,56.0,124.0,4684,2.439583333333333
1159,10.0,,,,,,,63.0,,,,,,0,note_on,,127.0,63.0,127.0,4684,2.439583333333333
1160,12.0,,,,,,,60.0,,,,,,0,note_on,,127.0,60.0,127.0,6838,3.5614583333333334
1161,12.0,,,,,,,65.0,,,,,,0,note_on,,127.0,65.0,127.0,6838,3.5614583333333334
1162,12.0,,,,,,,56.0,,,,,,0,note_on,,127.0,56.0,127.0,6838,3.5614583333333334
1163,,,,,,,,,,,,,heart ,0,lyrics,,,,,0,0.0
1164,11.0,,,,,,,63.0,,,,,,14,note_on,,0.0,63.0,0.0,11318,5.894791666666666
1165,11.0,,,,,,,60.0,,,,,,6,note_on,,0.0,60.0,0.0,11324,5.897916666666666
1166,9.0,,,,,,,35.0,,,,,,152,note_on,,0.0,35.0,0.0,7358,3.8322916666666664
1167,9.0,,,,,,,36.0,,,,,,0,note_on,,0.0,36.0,0.0,7358,3.8322916666666664
1168,9.0,,,,,,,42.0,,,,,,52,note_on,,0.0,42.0,0.0,7410,3.859375
1169,9.0,,,,,,,70.0,,,,,,0,note_on,,0.0,70.0,0.0,7410,3.859375
1170,12.0,,,,,,,65.0,,,,,,160,note_on,,0.0,65.0,0.0,6998,3.6447916666666664
1171,12.0,,,,,,,56.0,,,,,,10,note_on,,0.0,56.0,0.0,7008,3.65
1172,12.0,,,,,,,60.0,,,,,,21,note_on,,0.0,60.0,0.0,7029,3.6609374999999997
1173,10.0,,,,,,,56.0,,,,,,46,note_on,,0.0,56.0,0.0,4730,2.4635416666666665
1174,9.0,,,,,,,70.0,,,,,,19,note_on,,40.0,70.0,40.0,7429,3.869270833333333
1175,12.0,,,,,,,60.0,,,,,,0,note_on,,127.0,60.0,127.0,7029,3.6609374999999997
1176,12.0,,,,,,,56.0,,,,,,0,note_on,,124.0,56.0,124.0,7029,3.6609374999999997
1177,12.0,,,,,,,63.0,,,,,,0,note_on,,127.0,63.0,127.0,7029,3.6609374999999997
1178,10.0,,,,,,,63.0,,,,,,14,note_on,,0.0,63.0,0.0,4744,2.470833333333333
1179,10.0,,,,,,,60.0,,,,,,6,note_on,,0.0,60.0,0.0,4750,2.4739583333333335
1180,9.0,,,,,,,70.0,,,,,,204,note_on,,0.0,70.0,0.0,7633,3.9755208333333334
1181,9.0,,,,,,,36.0,,,,,,16,note_on,,126.0,36.0,126.0,7649,3.9838541666666667
1182,9.0,,,,,,,35.0,,,,,,0,note_on,,60.0,35.0,60.0,7649,3.9838541666666667
1183,12.0,,,,,,,56.0,,,,,,221,note_on,,0.0,56.0,0.0,7250,3.7760416666666665
1184,9.0,,,,,,,36.0,,,,,,3,note_on,,0.0,36.0,0.0,7652,3.9854166666666666
1185,9.0,,,,,,,35.0,,,,,,0,note_on,,0.0,35.0,0.0,7652,3.9854166666666666
1186,9.0,,,,,,,42.0,,,,,,16,note_on,,85.0,42.0,85.0,7668,3.99375
1187,9.0,,,,,,,70.0,,,,,,0,note_on,,40.0,70.0,40.0,7668,3.99375
1188,9.0,,,,,,,39.0,,,,,,0,note_on,,125.0,39.0,125.0,7668,3.99375
1189,9.0,,,,,,,28.0,,,,,,0,note_on,,127.0,28.0,127.0,7668,3.99375
1190,12.0,,,,,,,63.0,,,,,,14,note_on,,0.0,63.0,0.0,7264,3.783333333333333
1191,12.0,,,,,,,60.0,,,,,,6,note_on,,0.0,60.0,0.0,7270,3.7864583333333335
1192,9.0,,,,,,,28.0,,,,,,97,note_on,,0.0,28.0,0.0,7765,4.044270833333333
1193,3.0,,,,,,,77.0,,,,,,16,note_on,,0.0,77.0,0.0,21089,10.983854166666667
1194,9.0,,,,,,,39.0,,,,,,18,note_on,,0.0,39.0,0.0,7783,4.053645833333333
1195,9.0,,,,,,,42.0,,,,,,73,note_on,,0.0,42.0,0.0,7856,4.091666666666667
1196,9.0,,,,,,,70.0,,,,,,0,note_on,,0.0,70.0,0.0,7856,4.091666666666667
1197,6.0,,,,,,,72.0,,,,,,256,note_on,,127.0,72.0,127.0,2909,1.5151041666666667
1198,6.0,,,,,,,75.0,,,,,,0,note_on,,127.0,75.0,127.0,2909,1.5151041666666667
1199,6.0,,,,,,,68.0,,,,,,0,note_on,,127.0,68.0,127.0,2909,1.5151041666666667
1200,9.0,,,,,,,46.0,,,,,,0,note_on,,100.0,46.0,100.0,7856,4.091666666666667
1201,9.0,,,,,,,70.0,,,,,,0,note_on,,40.0,70.0,40.0,7856,4.091666666666667
1202,9.0,,,,,,,36.0,,,,,,0,note_on,,126.0,36.0,126.0,7856,4.091666666666667
1203,9.0,,,,,,,35.0,,,,,,0,note_on,,60.0,35.0,60.0,7856,4.091666666666667
1204,9.0,,,,,,,35.0,,,,,,166,note_on,,0.0,35.0,0.0,8022,4.178125
1205,9.0,,,,,,,36.0,,,,,,0,note_on,,0.0,36.0,0.0,8022,4.178125
1206,9.0,,,,,,,46.0,,,,,,58,note_on,,0.0,46.0,0.0,8080,4.208333333333333
1207,9.0,,,,,,,70.0,,,,,,0,note_on,,0.0,70.0,0.0,8080,4.208333333333333
1208,6.0,,,,,,,,,-413.0,,,,219,pitchwheel,,,,,3128,1.6291666666666667
1209,6.0,,,,,,,,,-1005.0,,,,9,pitchwheel,,,,,3137,1.6338541666666666
1210,6.0,,,,,,,,,-1623.0,,,,10,pitchwheel,,,,,3147,1.6390624999999999
1211,6.0,,,,,,,,,-2293.0,,,,6,pitchwheel,,,,,3153,1.6421875
1212,6.0,,,,,,,,,-2808.0,,,,9,pitchwheel,,,,,3162,1.6468749999999999
1213,9.0,,,,,,,46.0,,,,,,3,note_on,,100.0,46.0,100.0,8083,4.209895833333333
1214,9.0,,,,,,,70.0,,,,,,0,note_on,,40.0,70.0,40.0,8083,4.209895833333333
1215,6.0,,,,,,,,,-3427.0,,,,5,pitchwheel,,,,,3167,1.6494791666666666
1216,6.0,,,,,,,,,-3916.0,,,,8,pitchwheel,,,,,3175,1.6536458333333333
1217,6.0,,,,,,,,,-4354.0,,,,9,pitchwheel,,,,,3184,1.6583333333333332
1218,6.0,,,,,,,,,-4792.0,,,,8,pitchwheel,,,,,3192,1.6624999999999999
1219,6.0,,,,,,,,,-5333.0,,,,13,pitchwheel,,,,,3205,1.6692708333333333
1220,6.0,,,,,,,,,-5539.0,,,,6,pitchwheel,,,,,3211,1.6723958333333333
1221,6.0,,,,,,,,,-5797.0,,,,6,pitchwheel,,,,,3217,1.6755208333333333
1222,6.0,,,,,,,,,-6209.0,,,,10,pitchwheel,,,,,3227,1.6807291666666666
1223,6.0,,,,,,,,,-6698.0,,,,9,pitchwheel,,,,,3236,1.6854166666666666
1224,6.0,,,,,,,,,-6801.0,,,,8,pitchwheel,,,,,3244,1.6895833333333332
1225,6.0,,,,,,,,,-6982.0,,,,8,pitchwheel,,,,,3252,1.6937499999999999
1226,6.0,,,,,,,,,-7085.0,,,,9,pitchwheel,,,,,3261,1.6984375
1227,6.0,,,,,,,,,-7136.0,,,,8,pitchwheel,,,,,3269,1.7026041666666667
1228,6.0,,,,,,,,,-7239.0,,,,8,pitchwheel,,,,,3277,1.7067708333333333
1229,6.0,,,,,,,,,-7265.0,,,,9,pitchwheel,,,,,3286,1.7114583333333333
1230,6.0,,,,,,,,,-7291.0,,,,10,pitchwheel,,,,,3296,1.7166666666666666
1231,6.0,,,,,,,,,-7111.0,,,,10,pitchwheel,,,,,3306,1.721875
1232,6.0,,,,,,,,,-6982.0,,,,9,pitchwheel,,,,,3315,1.7265625
1233,6.0,,,,,,,,,-6879.0,,,,8,pitchwheel,,,,,3323,1.7307291666666667
1234,6.0,,,,,,,,,-6544.0,,,,8,pitchwheel,,,,,3331,1.7348958333333333
1235,6.0,,,,,,,,,-5719.0,,,,9,pitchwheel,,,,,3340,1.7395833333333333
1236,6.0,,,,,,,,,-3968.0,,,,8,pitchwheel,,,,,3348,1.74375
1237,6.0,,,,,,,,,-1778.0,,,,8,pitchwheel,,,,,3356,1.7479166666666666
1238,6.0,,,,,,,,,0.0,,,,9,pitchwheel,,,,,3365,1.7526041666666667
1239,6.0,,,,,,,,,1287.0,,,,10,pitchwheel,,,,,3375,1.7578125
1240,9.0,,,,,,,70.0,,,,,,11,note_on,,0.0,70.0,0.0,8094,4.215625
1241,9.0,,,,,,,46.0,,,,,,0,note_on,,0.0,46.0,0.0,8094,4.215625
1242,6.0,,,,,,,,,463.0,,,,4,pitchwheel,,,,,3379,1.7598958333333332
1243,6.0,,,,,,,,,0.0,,,,8,pitchwheel,,,,,3387,1.7640624999999999
1244,3.0,,,,,,,75.0,,,,,,244,note_on,,127.0,75.0,127.0,21333,11.1109375
1245,9.0,,,,,,,70.0,,,,,,0,note_on,,40.0,70.0,40.0,8094,4.215625
1246,9.0,,,,,,,36.0,,,,,,0,note_on,,126.0,36.0,126.0,8094,4.215625
1247,9.0,,,,,,,35.0,,,,,,0,note_on,,60.0,35.0,60.0,8094,4.215625
1248,,,,,,,,,,,,,And ,0,lyrics,,,,,0,0.0
1249,3.0,,,,,,,75.0,,,,,,145,note_on,,0.0,75.0,0.0,21478,11.186458333333333
1250,9.0,,,,,,,36.0,,,,,,9,note_on,,0.0,36.0,0.0,8103,4.2203125
1251,9.0,,,,,,,35.0,,,,,,0,note_on,,0.0,35.0,0.0,8103,4.2203125
1252,9.0,,,,,,,70.0,,,,,,70,note_on,,0.0,70.0,0.0,8173,4.256770833333333
1253,3.0,,,,,,,75.0,,,,,,256,note_on,,127.0,75.0,127.0,21734,11.319791666666667
1254,9.0,,,,,,,42.0,,,,,,0,note_on,,85.0,42.0,85.0,8173,4.256770833333333
1255,9.0,,,,,,,70.0,,,,,,0,note_on,,40.0,70.0,40.0,8173,4.256770833333333
1256,9.0,,,,,,,39.0,,,,,,0,note_on,,127.0,39.0,127.0,8173,4.256770833333333
1257,9.0,,,,,,,28.0,,,,,,0,note_on,,127.0,28.0,127.0,8173,4.256770833333333
1258,,,,,,,,,,,,,we ,0,lyrics,,,,,0,0.0
1259,6.0,,,,,,,68.0,,,,,,77,note_on,,0.0,68.0,0.0,3464,1.8041666666666667
1260,6.0,,,,,,,72.0,,,,,,14,note_on,,0.0,72.0,0.0,3478,1.8114583333333334
1261,6.0,,,,,,,75.0,,,,,,17,note_on,,0.0,75.0,0.0,3495,1.8203125
1262,9.0,,,,,,,39.0,,,,,,15,note_on,,0.0,39.0,0.0,8188,4.264583333333333
1263,9.0,,,,,,,28.0,,,,,,2,note_on,,0.0,28.0,0.0,8190,4.265625
1264,3.0,,,,,,,75.0,,,,,,77,note_on,,0.0,75.0,0.0,21811,11.359895833333333
1265,9.0,,,,,,,70.0,,,,,,22,note_on,,0.0,70.0,0.0,8212,4.277083333333334
1266,9.0,,,,,,,42.0,,,,,,0,note_on,,0.0,42.0,0.0,8212,4.277083333333334
1267,3.0,,,,,,,77.0,,,,,,256,note_on,,127.0,77.0,127.0,22067,11.493229166666666
1268,9.0,,,,,,,61.0,,,,,,0,note_on,,100.0,61.0,100.0,8212,4.277083333333334
1269,9.0,,,,,,,70.0,,,,,,0,note_on,,40.0,70.0,40.0,8212,4.277083333333334
1270,,,,,,,,,,,,,will ,0,lyrics,,,,,0,0.0
1271,9.0,,,,,,,61.0,,,,,,114,note_on,,0.0,61.0,0.0,8326,4.336458333333333
1272,9.0,,,,,,,61.0,,,,,,6,note_on,,100.0,61.0,100.0,8332,4.339583333333334
1273,3.0,,,,,,,77.0,,,,,,25,note_on,,0.0,77.0,0.0,22092,11.50625
1274,9.0,,,,,,,70.0,,,,,,79,note_on,,0.0,70.0,0.0,8411,4.380729166666667
1275,9.0,,,,,,,61.0,,,,,,10,note_on,,0.0,61.0,0.0,8421,4.3859375
1276,9.0,,,,,,,61.0,,,,,,6,note_on,,100.0,61.0,100.0,8427,4.3890625
1277,9.0,,,,,,,61.0,,,,,,114,note_on,,0.0,61.0,0.0,8541,4.4484375
1278,9.0,,,,,,,61.0,,,,,,6,note_on,,100.0,61.0,100.0,8547,4.4515625
1279,9.0,,,,,,,61.0,,,,,,114,note_on,,0.0,61.0,0.0,8661,4.5109375
1280,3.0,,,,,,,77.0,,,,,,6,note_on,,127.0,77.0,127.0,22098,11.509375
1281,9.0,,,,,,,61.0,,,,,,0,note_on,,100.0,61.0,100.0,8661,4.5109375
1282,9.0,,,,,,,42.0,,,,,,0,note_on,,85.0,42.0,85.0,8661,4.5109375
1283,9.0,,,,,,,70.0,,,,,,0,note_on,,40.0,70.0,40.0,8661,4.5109375
1284,9.0,,,,,,,36.0,,,,,,0,note_on,,126.0,36.0,126.0,8661,4.5109375
1285,9.0,,,,,,,35.0,,,,,,0,note_on,,60.0,35.0,60.0,8661,4.5109375
1286,11.0,,,,,,,62.0,,,,,,0,note_on,,127.0,62.0,127.0,11324,5.897916666666666
1287,11.0,,,,,,,58.0,,,,,,0,note_on,,127.0,58.0,127.0,11324,5.897916666666666
1288,11.0,,,,,,,65.0,,,,,,0,note_on,,127.0,65.0,127.0,11324,5.897916666666666
1289,,,,,,,,,,,,,ne ,0,lyrics,,,,,0,0.0
1290,9.0,,,,,,,61.0,,,,,,114,note_on,,0.0,61.0,0.0,8775,4.5703125
1291,9.0,,,,,,,36.0,,,,,,58,note_on,,0.0,36.0,0.0,8833,4.600520833333333
1292,9.0,,,,,,,35.0,,,,,,0,note_on,,0.0,35.0,0.0,8833,4.600520833333333
1293,3.0,,,,,,,77.0,,,,,,30,note_on,,0.0,77.0,0.0,22128,11.525
1294,9.0,,,,,,,70.0,,,,,,22,note_on,,0.0,70.0,0.0,8855,4.611979166666667
1295,9.0,,,,,,,42.0,,,,,,0,note_on,,0.0,42.0,0.0,8855,4.611979166666667
1296,11.0,,,,,,,58.0,,,,,,250,note_on,,0.0,58.0,0.0,11574,6.028125
1297,3.0,,,,,,,79.0,,,,,,6,note_on,,127.0,79.0,127.0,22134,11.528125
1298,9.0,,,,,,,70.0,,,,,,0,note_on,,40.0,70.0,40.0,8855,4.611979166666667
1299,10.0,,,,,,,62.0,,,,,,0,note_on,,127.0,62.0,127.0,4750,2.4739583333333335
1300,10.0,,,,,,,58.0,,,,,,0,note_on,,127.0,58.0,127.0,4750,2.4739583333333335
1301,10.0,,,,,,,65.0,,,,,,0,note_on,,127.0,65.0,127.0,4750,2.4739583333333335
1302,,,,,,,,,,,,,ver ,0,lyrics,,,,,0,0.0
1303,11.0,,,,,,,65.0,,,,,,47,note_on,,0.0,65.0,0.0,11621,6.052604166666667
1304,11.0,,,,,,,62.0,,,,,,2,note_on,,0.0,62.0,0.0,11623,6.053645833333333
1305,3.0,,,,,,,79.0,,,,,,130,note_on,,0.0,79.0,0.0,22264,11.595833333333333
1306,9.0,,,,,,,70.0,,,,,,45,note_on,,0.0,70.0,0.0,8900,4.635416666666667
1307,9.0,,,,,,,36.0,,,,,,16,note_on,,126.0,36.0,126.0,8916,4.64375
1308,9.0,,,,,,,35.0,,,,,,0,note_on,,60.0,35.0,60.0,8916,4.64375
1309,9.0,,,,,,,35.0,,,,,,224,note_on,,0.0,35.0,0.0,9140,4.760416666666667
1310,9.0,,,,,,,36.0,,,,,,0,note_on,,0.0,36.0,0.0,9140,4.760416666666667
1311,10.0,,,,,,,58.0,,,,,,10,note_on,,0.0,58.0,0.0,4760,2.4791666666666665
1312,3.0,,,,,,,77.0,,,,,,6,note_on,,127.0,77.0,127.0,22270,11.598958333333334
1313,9.0,,,,,,,42.0,,,,,,0,note_on,,85.0,42.0,85.0,9140,4.760416666666667
1314,9.0,,,,,,,70.0,,,,,,0,note_on,,40.0,70.0,40.0,9140,4.760416666666667
1315,9.0,,,,,,,39.0,,,,,,0,note_on,,125.0,39.0,125.0,9140,4.760416666666667
1316,9.0,,,,,,,28.0,,,,,,0,note_on,,127.0,28.0,127.0,9140,4.760416666666667
1317,12.0,,,,,,,62.0,,,,,,0,note_on,,127.0,62.0,127.0,7270,3.7864583333333335
1318,12.0,,,,,,,58.0,,,,,,0,note_on,,127.0,58.0,127.0,7270,3.7864583333333335
1319,12.0,,,,,,,65.0,,,,,,0,note_on,,127.0,65.0,127.0,7270,3.7864583333333335
1320,,,,,,,,,,,,,e ,0,lyrics,,,,,0,0.0
1321,10.0,,,,,,,65.0,,,,,,47,note_on,,0.0,65.0,0.0,4807,2.503645833333333
1322,10.0,,,,,,,62.0,,,,,,2,note_on,,0.0,62.0,0.0,4809,2.5046875
1323,9.0,,,,,,,28.0,,,,,,68,note_on,,0.0,28.0,0.0,9208,4.795833333333333
1324,9.0,,,,,,,39.0,,,,,,34,note_on,,0.0,39.0,0.0,9242,4.813541666666667
1325,3.0,,,,,,,77.0,,,,,,23,note_on,,0.0,77.0,0.0,22293,11.6109375
1326,9.0,,,,,,,42.0,,,,,,50,note_on,,0.0,42.0,0.0,9292,4.839583333333334
1327,9.0,,,,,,,70.0,,,,,,0,note_on,,0.0,70.0,0.0,9292,4.839583333333334
1328,12.0,,,,,,,58.0,,,,,,250,note_on,,0.0,58.0,0.0,7520,3.9166666666666665
1329,3.0,,,,,,,79.0,,,,,,6,note_on,,127.0,79.0,127.0,22299,11.6140625
1330,9.0,,,,,,,70.0,,,,,,0,note_on,,40.0,70.0,40.0,9292,4.839583333333334
1331,9.0,,,,,,,36.0,,,,,,0,note_on,,126.0,36.0,126.0,9292,4.839583333333334
1332,9.0,,,,,,,35.0,,,,,,0,note_on,,60.0,35.0,60.0,9292,4.839583333333334
1333,,,,,,,,,,,,,ver ,0,lyrics,,,,,0,0.0
1334,12.0,,,,,,,65.0,,,,,,47,note_on,,0.0,65.0,0.0,7567,3.941145833333333
1335,12.0,,,,,,,62.0,,,,,,2,note_on,,0.0,62.0,0.0,7569,3.9421874999999997
1336,9.0,,,,,,,36.0,,,,,,117,note_on,,0.0,36.0,0.0,9409,4.900520833333333
1337,9.0,,,,,,,35.0,,,,,,0,note_on,,0.0,35.0,0.0,9409,4.900520833333333
1338,3.0,,,,,,,79.0,,,,,,11,note_on,,0.0,79.0,0.0,22310,11.619791666666666
1339,9.0,,,,,,,70.0,,,,,,47,note_on,,0.0,70.0,0.0,9456,4.925
1340,3.0,,,,,,,77.0,,,,,,256,note_on,,127.0,77.0,127.0,22566,11.753125
1341,6.0,,,,,,,70.0,,,,,,0,note_on,,127.0,70.0,127.0,3495,1.8203125
1342,6.0,,,,,,,75.0,,,,,,0,note_on,,127.0,75.0,127.0,3495,1.8203125
1343,6.0,,,,,,,65.0,,,,,,0,note_on,,106.0,65.0,106.0,3495,1.8203125
1344,9.0,,,,,,,42.0,,,,,,0,note_on,,85.0,42.0,85.0,9456,4.925
1345,9.0,,,,,,,70.0,,,,,,0,note_on,,40.0,70.0,40.0,9456,4.925
1346,,,,,,,,,,,,,e ,0,lyrics,,,,,0,0.0
1347,3.0,,,,,,,77.0,,,,,,163,note_on,,0.0,77.0,0.0,22729,11.838020833333333
1348,9.0,,,,,,,42.0,,,,,,61,note_on,,0.0,42.0,0.0,9517,4.956770833333334
1349,9.0,,,,,,,70.0,,,,,,0,note_on,,0.0,70.0,0.0,9517,4.956770833333334
1350,6.0,,,,,,,65.0,,,,,,38,note_on,,0.0,65.0,0.0,3533,1.8401041666666667
1351,6.0,,,,,,,70.0,,,,,,126,note_on,,0.0,70.0,0.0,3659,1.9057291666666667
1352,6.0,,,,,,,75.0,,,,,,8,note_on,,0.0,75.0,0.0,3667,1.9098958333333333
1353,3.0,,,,,,,79.0,,,,,,84,note_on,,127.0,79.0,127.0,22813,11.881770833333333
1354,9.0,,,,,,,70.0,,,,,,0,note_on,,40.0,70.0,40.0,9517,4.956770833333334
1355,9.0,,,,,,,36.0,,,,,,0,note_on,,126.0,36.0,126.0,9517,4.956770833333334
1356,9.0,,,,,,,35.0,,,,,,0,note_on,,60.0,35.0,60.0,9517,4.956770833333334
1357,,,,,,,,,,,,,ver ,0,lyrics,,,,,0,0.0
1358,9.0,,,,,,,35.0,,,,,,154,note_on,,0.0,35.0,0.0,9671,5.036979166666667
1359,9.0,,,,,,,36.0,,,,,,0,note_on,,0.0,36.0,0.0,9671,5.036979166666667
1360,3.0,,,,,,,79.0,,,,,,18,note_on,,0.0,79.0,0.0,22831,11.891145833333333
1361,9.0,,,,,,,70.0,,,,,,52,note_on,,0.0,70.0,0.0,9723,5.0640625
1362,3.0,,,,,,,77.0,,,,,,256,note_on,,127.0,77.0,127.0,23087,12.024479166666666
1363,9.0,,,,,,,42.0,,,,,,0,note_on,,85.0,42.0,85.0,9723,5.0640625
1364,9.0,,,,,,,70.0,,,,,,0,note_on,,40.0,70.0,40.0,9723,5.0640625
1365,9.0,,,,,,,39.0,,,,,,0,note_on,,127.0,39.0,127.0,9723,5.0640625
1366,9.0,,,,,,,28.0,,,,,,0,note_on,,127.0,28.0,127.0,9723,5.0640625
1367,11.0,,,,,,,62.0,,,,,,0,note_on,,127.0,62.0,127.0,11623,6.053645833333333
1368,11.0,,,,,,,67.0,,,,,,0,note_on,,127.0,67.0,127.0,11623,6.053645833333333
1369,11.0,,,,,,,58.0,,,,,,0,note_on,,127.0,58.0,127.0,11623,6.053645833333333
1370,,,,,,,,,,,,,be ,0,lyrics,,,,,0,0.0
1371,9.0,,,,,,,39.0,,,,,,123,note_on,,0.0,39.0,0.0,9846,5.128125
1372,9.0,,,,,,,28.0,,,,,,2,note_on,,0.0,28.0,0.0,9848,5.129166666666666
1373,3.0,,,,,,,77.0,,,,,,40,note_on,,0.0,77.0,0.0,23127,12.0453125
1374,9.0,,,,,,,42.0,,,,,,59,note_on,,0.0,42.0,0.0,9907,5.159895833333334
1375,9.0,,,,,,,70.0,,,,,,0,note_on,,0.0,70.0,0.0,9907,5.159895833333334
1376,11.0,,,,,,,67.0,,,,,,143,note_on,,0.0,67.0,0.0,11766,6.128125
1377,11.0,,,,,,,58.0,,,,,,11,note_on,,0.0,58.0,0.0,11777,6.133854166666667
1378,11.0,,,,,,,62.0,,,,,,36,note_on,,0.0,62.0,0.0,11813,6.152604166666666
1379,3.0,,,,,,,79.0,,,,,,66,note_on,,127.0,79.0,127.0,23193,12.0796875
1380,9.0,,,,,,,70.0,,,,,,0,note_on,,40.0,70.0,40.0,9907,5.159895833333334
1381,10.0,,,,,,,62.0,,,,,,0,note_on,,127.0,62.0,127.0,4809,2.5046875
1382,10.0,,,,,,,67.0,,,,,,0,note_on,,127.0,67.0,127.0,4809,2.5046875
1383,10.0,,,,,,,58.0,,,,,,0,note_on,,127.0,58.0,127.0,4809,2.5046875
1384,11.0,,,,,,,62.0,,,,,,0,note_on,,127.0,62.0,127.0,11813,6.152604166666666
1385,11.0,,,,,,,58.0,,,,,,0,note_on,,118.0,58.0,118.0,11813,6.152604166666666
1386,11.0,,,,,,,65.0,,,,,,0,note_on,,127.0,65.0,127.0,11813,6.152604166666666
1387,,,,,,,,,,,,,a ,0,lyrics,,,,,0,0.0
1388,3.0,,,,,,,79.0,,,,,,174,note_on,,0.0,79.0,0.0,23367,12.1703125
1389,9.0,,,,,,,70.0,,,,,,50,note_on,,0.0,70.0,0.0,9957,5.1859375
1390,10.0,,,,,,,67.0,,,,,,143,note_on,,0.0,67.0,0.0,4952,2.5791666666666666
1391,10.0,,,,,,,58.0,,,,,,11,note_on,,0.0,58.0,0.0,4963,2.5848958333333334
1392,11.0,,,,,,,58.0,,,,,,7,note_on,,0.0,58.0,0.0,11820,6.15625
1393,11.0,,,,,,,65.0,,,,,,23,note_on,,0.0,65.0,0.0,11843,6.168229166666666
1394,10.0,,,,,,,62.0,,,,,,6,note_on,,0.0,62.0,0.0,4969,2.588020833333333
1395,11.0,,,,,,,62.0,,,,,,13,note_on,,0.0,62.0,0.0,11856,6.175
1396,3.0,,,,,,,77.0,,,,,,53,note_on,,127.0,77.0,127.0,23420,12.197916666666666
1397,9.0,,,,,,,42.0,,,,,,0,note_on,,85.0,42.0,85.0,9957,5.1859375
1398,9.0,,,,,,,70.0,,,,,,0,note_on,,40.0,70.0,40.0,9957,5.1859375
1399,9.0,,,,,,,36.0,,,,,,0,note_on,,126.0,36.0,126.0,9957,5.1859375
1400,9.0,,,,,,,35.0,,,,,,0,note_on,,60.0,35.0,60.0,9957,5.1859375
1401,10.0,,,,,,,62.0,,,,,,0,note_on,,127.0,62.0,127.0,4969,2.588020833333333
1402,10.0,,,,,,,58.0,,,,,,0,note_on,,118.0,58.0,118.0,4969,2.588020833333333
1403,10.0,,,,,,,65.0,,,,,,0,note_on,,127.0,65.0,127.0,4969,2.588020833333333
1404,12.0,,,,,,,62.0,,,,,,0,note_on,,127.0,62.0,127.0,7569,3.9421874999999997
1405,12.0,,,,,,,67.0,,,,,,0,note_on,,127.0,67.0,127.0,7569,3.9421874999999997
1406,12.0,,,,,,,58.0,,,,,,0,note_on,,127.0,58.0,127.0,7569,3.9421874999999997
1407,,,,,,,,,,,,,part ,0,lyrics,,,,,0,0.0
1408,9.0,,,,,,,35.0,,,,,,172,note_on,,0.0,35.0,0.0,10129,5.275520833333333
1409,9.0,,,,,,,36.0,,,,,,0,note_on,,0.0,36.0,0.0,10129,5.275520833333333
1410,9.0,,,,,,,70.0,,,,,,52,note_on,,0.0,70.0,0.0,10181,5.302604166666667
1411,9.0,,,,,,,42.0,,,,,,0,note_on,,0.0,42.0,0.0,10181,5.302604166666667
1412,12.0,,,,,,,67.0,,,,,,143,note_on,,0.0,67.0,0.0,7712,4.016666666666667
1413,12.0,,,,,,,58.0,,,,,,11,note_on,,0.0,58.0,0.0,7723,4.022395833333333
1414,10.0,,,,,,,58.0,,,,,,7,note_on,,0.0,58.0,0.0,4976,2.591666666666667
1415,10.0,,,,,,,65.0,,,,,,23,note_on,,0.0,65.0,0.0,4999,2.603645833333333
1416,12.0,,,,,,,62.0,,,,,,6,note_on,,0.0,62.0,0.0,7729,4.025520833333333
1417,10.0,,,,,,,62.0,,,,,,13,note_on,,0.0,62.0,0.0,5012,2.6104166666666666
1418,9.0,,,,,,,70.0,,,,,,53,note_on,,40.0,70.0,40.0,10234,5.330208333333333
1419,12.0,,,,,,,62.0,,,,,,0,note_on,,127.0,62.0,127.0,7729,4.025520833333333
1420,12.0,,,,,,,58.0,,,,,,0,note_on,,118.0,58.0,118.0,7729,4.025520833333333
1421,12.0,,,,,,,65.0,,,,,,0,note_on,,127.0,65.0,127.0,7729,4.025520833333333
1422,9.0,,,,,,,70.0,,,,,,224,note_on,,0.0,70.0,0.0,10458,5.446875
1423,9.0,,,,,,,36.0,,,,,,16,note_on,,126.0,36.0,126.0,10474,5.455208333333333
1424,9.0,,,,,,,35.0,,,,,,0,note_on,,60.0,35.0,60.0,10474,5.455208333333333
1425,12.0,,,,,,,58.0,,,,,,145,note_on,,0.0,58.0,0.0,7874,4.101041666666666
1426,12.0,,,,,,,65.0,,,,,,23,note_on,,0.0,65.0,0.0,7897,4.113020833333334
1427,12.0,,,,,,,62.0,,,,,,19,note_on,,0.0,62.0,0.0,7916,4.122916666666667
1428,9.0,,,,,,,35.0,,,,,,37,note_on,,0.0,35.0,0.0,10511,5.474479166666667
1429,9.0,,,,,,,36.0,,,,,,0,note_on,,0.0,36.0,0.0,10511,5.474479166666667
1430,9.0,,,,,,,42.0,,,,,,16,note_on,,85.0,42.0,85.0,10527,5.4828125
1431,9.0,,,,,,,70.0,,,,,,0,note_on,,40.0,70.0,40.0,10527,5.4828125
1432,9.0,,,,,,,39.0,,,,,,0,note_on,,125.0,39.0,125.0,10527,5.4828125
1433,9.0,,,,,,,28.0,,,,,,0,note_on,,127.0,28.0,127.0,10527,5.4828125
1434,11.0,,,,,,,63.0,,,,,,0,note_on,,100.0,63.0,100.0,11856,6.175
1435,11.0,,,,,,,56.0,,,,,,0,note_on,,127.0,56.0,127.0,11856,6.175
1436,11.0,,,,,,,62.0,,,,,,0,note_on,,126.0,62.0,126.0,11856,6.175
1437,11.0,,,,,,,53.0,,,,,,0,note_on,,127.0,53.0,127.0,11856,6.175
1438,11.0,,,,,,,58.0,,,,,,0,note_on,,127.0,58.0,127.0,11856,6.175
1439,9.0,,,,,,,28.0,,,,,,117,note_on,,0.0,28.0,0.0,10644,5.54375
1440,9.0,,,,,,,39.0,,,,,,34,note_on,,0.0,39.0,0.0,10678,5.561458333333333
1441,9.0,,,,,,,70.0,,,,,,73,note_on,,0.0,70.0,0.0,10751,5.599479166666667
1442,9.0,,,,,,,42.0,,,,,,0,note_on,,0.0,42.0,0.0,10751,5.599479166666667
1443,3.0,,,,,,,77.0,,,,,,70,note_on,,0.0,77.0,0.0,23490,12.234375
1444,6.0,,,,,,,70.0,,,,,,186,note_on,,127.0,70.0,127.0,3853,2.0067708333333334
1445,6.0,,,,,,,75.0,,,,,,0,note_on,,127.0,75.0,127.0,3853,2.0067708333333334
1446,6.0,,,,,,,65.0,,,,,,0,note_on,,91.0,65.0,91.0,3853,2.0067708333333334
1447,9.0,,,,,,,70.0,,,,,,0,note_on,,40.0,70.0,40.0,10751,5.599479166666667
1448,9.0,,,,,,,36.0,,,,,,0,note_on,,126.0,36.0,126.0,10751,5.599479166666667
1449,9.0,,,,,,,35.0,,,,,,0,note_on,,60.0,35.0,60.0,10751,5.599479166666667
1450,10.0,,,,,,,63.0,,,,,,0,note_on,,100.0,63.0,100.0,5012,2.6104166666666666
1451,10.0,,,,,,,56.0,,,,,,0,note_on,,127.0,56.0,127.0,5012,2.6104166666666666
1452,10.0,,,,,,,62.0,,,,,,0,note_on,,126.0,62.0,126.0,5012,2.6104166666666666
1453,10.0,,,,,,,53.0,,,,,,0,note_on,,127.0,53.0,127.0,5012,2.6104166666666666
1454,10.0,,,,,,,58.0,,,,,,0,note_on,,127.0,58.0,127.0,5012,2.6104166666666666
1455,9.0,,,,,,,35.0,,,,,,166,note_on,,0.0,35.0,0.0,10917,5.6859375
1456,9.0,,,,,,,36.0,,,,,,0,note_on,,0.0,36.0,0.0,10917,5.6859375
1457,9.0,,,,,,,70.0,,,,,,58,note_on,,0.0,70.0,0.0,10975,5.716145833333333
1458,6.0,,,,,,,,,-387.0,,,,192,pitchwheel,,,,,4045,2.1067708333333335
1459,6.0,,,,,,,,,-1057.0,,,,8,pitchwheel,,,,,4053,2.1109375
1460,6.0,,,,,,,,,-1572.0,,,,9,pitchwheel,,,,,4062,2.115625
1461,6.0,,,,,,,,,-2036.0,,,,8,pitchwheel,,,,,4070,2.1197916666666665
1462,6.0,,,,,,,,,-2705.0,,,,8,pitchwheel,,,,,4078,2.1239583333333334
1463,6.0,,,,,,,,,-3401.0,,,,9,pitchwheel,,,,,4087,2.128645833333333
1464,6.0,,,,,,,,,-3762.0,,,,8,pitchwheel,,,,,4095,2.1328125
1465,6.0,,,,,,,,,-4303.0,,,,8,pitchwheel,,,,,4103,2.1369791666666664
1466,9.0,,,,,,,70.0,,,,,,6,note_on,,40.0,70.0,40.0,10981,5.719270833333333
1467,12.0,,,,,,,63.0,,,,,,0,note_on,,100.0,63.0,100.0,7916,4.122916666666667
1468,12.0,,,,,,,56.0,,,,,,0,note_on,,127.0,56.0,127.0,7916,4.122916666666667
1469,12.0,,,,,,,62.0,,,,,,0,note_on,,126.0,62.0,126.0,7916,4.122916666666667
1470,12.0,,,,,,,53.0,,,,,,0,note_on,,127.0,53.0,127.0,7916,4.122916666666667
1471,12.0,,,,,,,58.0,,,,,,0,note_on,,127.0,58.0,127.0,7916,4.122916666666667
1472,6.0,,,,,,,,,-5075.0,,,,3,pitchwheel,,,,,4106,2.138541666666667
1473,6.0,,,,,,,,,-5591.0,,,,8,pitchwheel,,,,,4114,2.142708333333333
1474,6.0,,,,,,,,,-5951.0,,,,8,pitchwheel,,,,,4122,2.146875
1475,6.0,,,,,,,,,-6647.0,,,,11,pitchwheel,,,,,4133,2.1526041666666664
1476,6.0,,,,,,,,,-6904.0,,,,6,pitchwheel,,,,,4139,2.1557291666666667
1477,6.0,,,,,,,,,-7188.0,,,,8,pitchwheel,,,,,4147,2.159895833333333
1478,6.0,,,,,,,,,-7626.0,,,,11,pitchwheel,,,,,4158,2.165625
1479,6.0,,,,,,,,,-7729.0,,,,10,pitchwheel,,,,,4168,2.1708333333333334
1480,6.0,,,,,,,,,-7909.0,,,,6,pitchwheel,,,,,4174,2.173958333333333
1481,6.0,,,,,,,,,-8038.0,,,,9,pitchwheel,,,,,4183,2.1786458333333334
1482,6.0,,,,,,,,,-8167.0,,,,6,pitchwheel,,,,,4189,2.181770833333333
1483,6.0,,,,,,,,,-8192.0,,,,8,pitchwheel,,,,,4197,2.1859375
1484,6.0,,,,,,,,,-8089.0,,,,33,pitchwheel,,,,,4230,2.203125
1485,6.0,,,,,,,,,-7780.0,,,,11,pitchwheel,,,,,4241,2.208854166666667
1486,6.0,,,,,,,,,-7548.0,,,,10,pitchwheel,,,,,4251,2.2140625
1487,6.0,,,,,,,,,-7111.0,,,,9,pitchwheel,,,,,4260,2.21875
1488,6.0,,,,,,,,,-6570.0,,,,6,pitchwheel,,,,,4266,2.221875
1489,6.0,,,,,,,,,-5848.0,,,,8,pitchwheel,,,,,4274,2.2260416666666667
1490,6.0,,,,,,,,,-3968.0,,,,10,pitchwheel,,,,,4284,2.23125
1491,6.0,,,,,,,,,-1752.0,,,,8,pitchwheel,,,,,4292,2.2354166666666666
1492,6.0,,,,,,,,,0.0,,,,10,pitchwheel,,,,,4302,2.240625
1493,6.0,,,,,,,,,1416.0,,,,9,pitchwheel,,,,,4311,2.2453125
1494,6.0,,,,,,,,,1159.0,,,,8,pitchwheel,,,,,4319,2.2494791666666667
1495,9.0,,,,,,,70.0,,,,,,8,note_on,,0.0,70.0,0.0,10989,5.7234375
1496,6.0,,,,,,,,,77.0,,,,0,pitchwheel,,,,,4319,2.2494791666666667
1497,6.0,,,,,,,,,0.0,,,,11,pitchwheel,,,,,4330,2.2552083333333335
1498,11.0,,,,,,,63.0,,,,,,245,note_on,,0.0,63.0,0.0,12101,6.302604166666667
1499,3.0,,,,,,,75.0,,,,,,0,note_on,,127.0,75.0,127.0,23490,12.234375
1500,9.0,,,,,,,70.0,,,,,,0,note_on,,40.0,70.0,40.0,10989,5.7234375
1501,11.0,,,,,,,63.0,,,,,,0,note_on,,127.0,63.0,127.0,12101,6.302604166666667
1502,,,,,,,,,,,,,Are ,0,lyrics,,,,,0,0.0
1503,6.0,,,,,,,65.0,,,,,,115,note_on,,0.0,65.0,0.0,4445,2.3151041666666665
1504,3.0,,,,,,,75.0,,,,,,74,note_on,,0.0,75.0,0.0,23564,12.272916666666667
1505,9.0,,,,,,,70.0,,,,,,35,note_on,,0.0,70.0,0.0,11024,5.741666666666666
1506,6.0,,,,,,,70.0,,,,,,248,note_on,,0.0,70.0,0.0,4693,2.4442708333333334
1507,10.0,,,,,,,63.0,,,,,,8,note_on,,0.0,63.0,0.0,5020,2.6145833333333335
1508,3.0,,,,,,,82.0,,,,,,0,note_on,,127.0,82.0,127.0,23564,12.272916666666667
1509,9.0,,,,,,,42.0,,,,,,0,note_on,,85.0,42.0,85.0,11024,5.741666666666666
1510,9.0,,,,,,,70.0,,,,,,0,note_on,,40.0,70.0,40.0,11024,5.741666666666666
1511,9.0,,,,,,,39.0,,,,,,0,note_on,,127.0,39.0,127.0,11024,5.741666666666666
1512,9.0,,,,,,,28.0,,,,,,0,note_on,,127.0,28.0,127.0,11024,5.741666666666666
1513,10.0,,,,,,,63.0,,,,,,0,note_on,,127.0,63.0,127.0,5020,2.6145833333333335
1514,,,,,,,,,,,,,we ,0,lyrics,,,,,0,0.0
1515,6.0,,,,,,,75.0,,,,,,4,note_on,,0.0,75.0,0.0,4697,2.4463541666666666
1516,9.0,,,,,,,39.0,,,,,,119,note_on,,0.0,39.0,0.0,11143,5.803645833333333
1517,9.0,,,,,,,28.0,,,,,,2,note_on,,0.0,28.0,0.0,11145,5.8046875
1518,3.0,,,,,,,82.0,,,,,,56,note_on,,0.0,82.0,0.0,23620,12.302083333333334
1519,9.0,,,,,,,70.0,,,,,,43,note_on,,0.0,70.0,0.0,11188,5.827083333333333
1520,9.0,,,,,,,42.0,,,,,,0,note_on,,0.0,42.0,0.0,11188,5.827083333333333
1521,12.0,,,,,,,63.0,,,,,,256,note_on,,0.0,63.0,0.0,8172,4.25625
1522,3.0,,,,,,,79.0,,,,,,0,note_on,,127.0,79.0,127.0,23620,12.302083333333334
1523,9.0,,,,,,,70.0,,,,,,0,note_on,,40.0,70.0,40.0,11188,5.827083333333333
1524,12.0,,,,,,,63.0,,,,,,0,note_on,,127.0,63.0,127.0,8172,4.25625
1525,,,,,,,,,,,,,an ,0,lyrics,,,,,0,0.0
1526,3.0,,,,,,,79.0,,,,,,156,note_on,,0.0,79.0,0.0,23776,12.383333333333333
1527,9.0,,,,,,,70.0,,,,,,68,note_on,,0.0,70.0,0.0,11256,5.8625
1528,11.0,,,,,,,56.0,,,,,,9,note_on,,0.0,56.0,0.0,12110,6.307291666666667
1529,11.0,,,,,,,62.0,,,,,,4,note_on,,0.0,62.0,0.0,12114,6.309375
1530,11.0,,,,,,,53.0,,,,,,201,note_on,,0.0,53.0,0.0,12315,6.4140625
1531,11.0,,,,,,,58.0,,,,,,31,note_on,,0.0,58.0,0.0,12346,6.430208333333333
1532,11.0,,0.0,,,,,,,,,,,9,control_change,121.0,,,,12355,6.434895833333333
1533,11.0,,0.0,,,,,,,,,,,0,control_change,121.0,,,,12355,6.434895833333333
1534,11.0,,32.0,,,,,,,,,,,1,control_change,0.0,,,,12356,6.435416666666667
1535,11.0,,32.0,,,,,,,,,,,0,control_change,0.0,,,,12356,6.435416666666667
1536,9.0,,,,,,,57.0,,,,,,1,note_on,,100.0,57.0,100.0,11257,5.863020833333334
1537,3.0,,,,,,,77.0,,,,,,0,note_on,,127.0,77.0,127.0,23776,12.383333333333333
1538,9.0,,,,,,,70.0,,,,,,0,note_on,,40.0,70.0,40.0,11257,5.863020833333334
1539,9.0,,,,,,,35.0,,,,,,0,note_on,,60.0,35.0,60.0,11257,5.863020833333334
1540,11.0,,,,,,,67.0,,,,,,0,note_on,,127.0,67.0,127.0,12356,6.435416666666667
1541,11.0,,,,,,,63.0,,,,,,0,note_on,,127.0,63.0,127.0,12356,6.435416666666667
1542,11.0,,,,,,,70.0,,,,,,0,note_on,,126.0,70.0,126.0,12356,6.435416666666667
1543,9.0,,,,,,,36.0,,,,,,0,note_on,,126.0,36.0,126.0,11257,5.863020833333334
1544,9.0,,,,,,,42.0,,,,,,0,note_on,,85.0,42.0,85.0,11257,5.863020833333334
1545,11.0,,,,,,,,,,24.0,,,0,program_change,,,,,12356,6.435416666666667
1546,,,,,,,,,,,,,i ,0,lyrics,,,,,0,0.0
1547,11.0,,,,,,,63.0,,,,,,15,note_on,,0.0,63.0,0.0,12371,6.443229166666667
1548,9.0,,,,,,,57.0,,,,,,99,note_on,,0.0,57.0,0.0,11356,5.914583333333333
1549,9.0,,,,,,,36.0,,,,,,58,note_on,,0.0,36.0,0.0,11414,5.944791666666666
1550,9.0,,,,,,,35.0,,,,,,0,note_on,,0.0,35.0,0.0,11414,5.944791666666666
1551,9.0,,,,,,,42.0,,,,,,52,note_on,,0.0,42.0,0.0,11466,5.971875
1552,9.0,,,,,,,70.0,,,,,,0,note_on,,0.0,70.0,0.0,11466,5.971875
1553,10.0,,,,,,,56.0,,,,,,9,note_on,,0.0,56.0,0.0,5029,2.619270833333333
1554,10.0,,,,,,,62.0,,,,,,4,note_on,,0.0,62.0,0.0,5033,2.6213541666666664
1555,11.0,,,,,,,63.0,,,,,,160,note_on,,0.0,63.0,0.0,12531,6.5265625
1556,11.0,,,,,,,67.0,,,,,,10,note_on,,0.0,67.0,0.0,12541,6.531770833333333
1557,10.0,,,,,,,53.0,,,,,,31,note_on,,0.0,53.0,0.0,5064,2.6375
1558,11.0,,,,,,,70.0,,,,,,21,note_on,,0.0,70.0,0.0,12562,6.542708333333334
1559,10.0,,,,,,,58.0,,,,,,10,note_on,,0.0,58.0,0.0,5074,2.642708333333333
1560,10.0,,0.0,,,,,,,,,,,9,control_change,121.0,,,,5083,2.6473958333333334
1561,10.0,,0.0,,,,,,,,,,,0,control_change,121.0,,,,5083,2.6473958333333334
1562,10.0,,32.0,,,,,,,,,,,1,control_change,0.0,,,,5084,2.6479166666666667
1563,10.0,,32.0,,,,,,,,,,,0,control_change,0.0,,,,5084,2.6479166666666667
1564,9.0,,,,,,,70.0,,,,,,1,note_on,,40.0,70.0,40.0,11467,5.972395833333334
1565,10.0,,,,,,,67.0,,,,,,0,note_on,,127.0,67.0,127.0,5084,2.6479166666666667
1566,10.0,,,,,,,70.0,,,,,,0,note_on,,126.0,70.0,126.0,5084,2.6479166666666667
1567,10.0,,,,,,,63.0,,,,,,0,note_on,,127.0,63.0,127.0,5084,2.6479166666666667
1568,10.0,,,,,,,,,,24.0,,,0,program_change,,,,,5084,2.6479166666666667
1569,10.0,,,,,,,63.0,,,,,,15,note_on,,0.0,63.0,0.0,5099,2.6557291666666667
1570,3.0,,,,,,,77.0,,,,,,40,note_on,,0.0,77.0,0.0,23816,12.404166666666667
1571,9.0,,,,,,,70.0,,,,,,169,note_on,,0.0,70.0,0.0,11636,6.060416666666667
1572,12.0,,,,,,,56.0,,,,,,9,note_on,,0.0,56.0,0.0,8181,4.2609375
1573,12.0,,,,,,,62.0,,,,,,4,note_on,,0.0,62.0,0.0,8185,4.263020833333333
1574,3.0,,,,,,,79.0,,,,,,3,note_on,,127.0,79.0,127.0,23819,12.405729166666667
1575,9.0,,,,,,,36.0,,,,,,0,note_on,,126.0,36.0,126.0,11636,6.060416666666667
1576,9.0,,,,,,,35.0,,,,,,0,note_on,,60.0,35.0,60.0,11636,6.060416666666667
1577,,,,,,,,,,,,,tem? ,0,lyrics,,,,,0,0.0
1578,10.0,,,,,,,63.0,,,,,,157,note_on,,0.0,63.0,0.0,5256,2.7375
1579,10.0,,,,,,,67.0,,,,,,10,note_on,,0.0,67.0,0.0,5266,2.7427083333333333
1580,12.0,,,,,,,53.0,,,,,,31,note_on,,0.0,53.0,0.0,8216,4.279166666666667
1581,10.0,,,,,,,70.0,,,,,,21,note_on,,0.0,70.0,0.0,5287,2.753645833333333
1582,9.0,,,,,,,36.0,,,,,,5,note_on,,0.0,36.0,0.0,11641,6.063020833333333
1583,9.0,,,,,,,35.0,,,,,,0,note_on,,0.0,35.0,0.0,11641,6.063020833333333
1584,12.0,,,,,,,58.0,,,,,,5,note_on,,0.0,58.0,0.0,8221,4.281770833333333
1585,12.0,,0.0,,,,,,,,,,,9,control_change,121.0,,,,8230,4.286458333333333
1586,12.0,,32.0,,,,,,,,,,,1,control_change,0.0,,,,8231,4.286979166666667
1587,9.0,,,,,,,39.0,,,,,,1,note_on,,125.0,39.0,125.0,11642,6.063541666666667
1588,9.0,,,,,,,28.0,,,,,,0,note_on,,127.0,28.0,127.0,11642,6.063541666666667
1589,9.0,,,,,,,42.0,,,,,,0,note_on,,85.0,42.0,85.0,11642,6.063541666666667
1590,9.0,,,,,,,70.0,,,,,,0,note_on,,40.0,70.0,40.0,11642,6.063541666666667
1591,12.0,,,,,,,67.0,,,,,,0,note_on,,127.0,67.0,127.0,8231,4.286979166666667
1592,12.0,,,,,,,63.0,,,,,,0,note_on,,127.0,63.0,127.0,8231,4.286979166666667
1593,12.0,,,,,,,70.0,,,,,,0,note_on,,126.0,70.0,126.0,8231,4.286979166666667
1594,12.0,,0.0,,,,,,,,,,,0,control_change,121.0,,,,8231,4.286979166666667
1595,12.0,,32.0,,,,,,,,,,,0,control_change,0.0,,,,8231,4.286979166666667
1596,12.0,,,,,,,,,,24.0,,,0,program_change,,,,,8231,4.286979166666667
1597,12.0,,,,,,,63.0,,,,,,15,note_on,,0.0,63.0,0.0,8246,4.294791666666667
1598,9.0,,,,,,,28.0,,,,,,102,note_on,,0.0,28.0,0.0,11744,6.116666666666666
1599,3.0,,,,,,,79.0,,,,,,31,note_on,,0.0,79.0,0.0,23850,12.421875
1600,9.0,,,,,,,39.0,,,,,,3,note_on,,0.0,39.0,0.0,11747,6.118229166666667
1601,9.0,,,,,,,42.0,,,,,,73,note_on,,0.0,42.0,0.0,11820,6.15625
1602,9.0,,,,,,,70.0,,,,,,0,note_on,,0.0,70.0,0.0,11820,6.15625
1603,12.0,,,,,,,63.0,,,,,,173,note_on,,0.0,63.0,0.0,8419,4.384895833333333
1604,12.0,,,,,,,67.0,,,,,,10,note_on,,0.0,67.0,0.0,8429,4.390104166666666
1605,12.0,,,,,,,70.0,,,,,,52,note_on,,0.0,70.0,0.0,8481,4.4171875
1606,9.0,,,,,,,70.0,,,,,,21,note_on,,40.0,70.0,40.0,11841,6.1671875
1607,9.0,,,,,,,36.0,,,,,,0,note_on,,126.0,36.0,126.0,11841,6.1671875
1608,9.0,,,,,,,35.0,,,,,,0,note_on,,60.0,35.0,60.0,11841,6.1671875
1609,9.0,,,,,,,35.0,,,,,,166,note_on,,0.0,35.0,0.0,12007,6.253645833333334
1610,9.0,,,,,,,36.0,,,,,,0,note_on,,0.0,36.0,0.0,12007,6.253645833333334
1611,9.0,,,,,,,70.0,,,,,,58,note_on,,0.0,70.0,0.0,12065,6.283854166666667
1612,6.0,,,,,,,70.0,,,,,,256,note_on,,127.0,70.0,127.0,4953,2.5796875
1613,6.0,,,,,,,75.0,,,,,,0,note_on,,127.0,75.0,127.0,4953,2.5796875
1614,6.0,,,,,,,67.0,,,,,,0,note_on,,127.0,67.0,127.0,4953,2.5796875
1615,9.0,,,,,,,42.0,,,,,,0,note_on,,85.0,42.0,85.0,12065,6.283854166666667
1616,9.0,,,,,,,70.0,,,,,,0,note_on,,40.0,70.0,40.0,12065,6.283854166666667
1617,9.0,,,,,,,70.0,,,,,,224,note_on,,0.0,70.0,0.0,12289,6.400520833333333
1618,9.0,,,,,,,42.0,,,,,,0,note_on,,0.0,42.0,0.0,12289,6.400520833333333
1619,6.0,,,,,,,67.0,,,,,,227,note_on,,0.0,67.0,0.0,5180,2.6979166666666665
1620,9.0,,,,,,,70.0,,,,,,29,note_on,,40.0,70.0,40.0,12318,6.4156249999999995
1621,9.0,,,,,,,36.0,,,,,,0,note_on,,126.0,36.0,126.0,12318,6.4156249999999995
1622,9.0,,,,,,,35.0,,,,,,0,note_on,,60.0,35.0,60.0,12318,6.4156249999999995
1623,6.0,,,,,,,70.0,,,,,,60,note_on,,0.0,70.0,0.0,5240,2.7291666666666665
1624,6.0,,,,,,,75.0,,,,,,17,note_on,,0.0,75.0,0.0,5257,2.738020833333333
1625,9.0,,,,,,,36.0,,,,,,77,note_on,,0.0,36.0,0.0,12395,6.455729166666667
1626,9.0,,,,,,,35.0,,,,,,0,note_on,,0.0,35.0,0.0,12395,6.455729166666667
1627,9.0,,,,,,,70.0,,,,,,70,note_on,,0.0,70.0,0.0,12465,6.4921875
1628,3.0,,,,,,,82.0,,,,,,256,note_on,,127.0,82.0,127.0,24106,12.555208333333333
1629,9.0,,,,,,,42.0,,,,,,0,note_on,,85.0,42.0,85.0,12465,6.4921875
1630,9.0,,,,,,,70.0,,,,,,0,note_on,,40.0,70.0,40.0,12465,6.4921875
1631,9.0,,,,,,,39.0,,,,,,0,note_on,,127.0,39.0,127.0,12465,6.4921875
1632,9.0,,,,,,,28.0,,,,,,0,note_on,,127.0,28.0,127.0,12465,6.4921875
1633,11.0,,,,,,,67.0,,,,,,0,note_on,,127.0,67.0,127.0,12562,6.542708333333334
1634,11.0,,,,,,,72.0,,,,,,0,note_on,,127.0,72.0,127.0,12562,6.542708333333334
1635,11.0,,,,,,,63.0,,,,,,0,note_on,,127.0,63.0,127.0,12562,6.542708333333334
1636,,,,,,,,,,,,,Girl ,0,lyrics,,,,,0,0.0
1637,9.0,,,,,,,39.0,,,,,,123,note_on,,0.0,39.0,0.0,12588,6.5562499999999995
1638,9.0,,,,,,,28.0,,,,,,2,note_on,,0.0,28.0,0.0,12590,6.557291666666667
1639,3.0,,,,,,,82.0,,,,,,60,note_on,,0.0,82.0,0.0,24166,12.586458333333333
1640,9.0,,,,,,,42.0,,,,,,39,note_on,,0.0,42.0,0.0,12629,6.577604166666666
1641,9.0,,,,,,,70.0,,,,,,0,note_on,,0.0,70.0,0.0,12629,6.577604166666666
1642,11.0,,,,,,,63.0,,,,,,141,note_on,,0.0,63.0,0.0,12703,6.616145833333333
1643,11.0,,,,,,,72.0,,,,,,15,note_on,,0.0,72.0,0.0,12718,6.623958333333333
1644,11.0,,,,,,,67.0,,,,,,8,note_on,,0.0,67.0,0.0,12726,6.628125
1645,3.0,,,,,,,79.0,,,,,,92,note_on,,127.0,79.0,127.0,24258,12.634375
1646,9.0,,,,,,,70.0,,,,,,0,note_on,,40.0,70.0,40.0,12629,6.577604166666666
1647,10.0,,,,,,,67.0,,,,,,0,note_on,,127.0,67.0,127.0,5287,2.753645833333333
1648,10.0,,,,,,,72.0,,,,,,0,note_on,,127.0,72.0,127.0,5287,2.753645833333333
1649,10.0,,,,,,,63.0,,,,,,0,note_on,,127.0,63.0,127.0,5287,2.753645833333333
1650,11.0,,,,,,,67.0,,,,,,0,note_on,,127.0,67.0,127.0,12726,6.628125
1651,11.0,,,,,,,70.0,,,,,,0,note_on,,118.0,70.0,118.0,12726,6.628125
1652,11.0,,,,,,,63.0,,,,,,0,note_on,,127.0,63.0,127.0,12726,6.628125
1653,,,,,,,,,,,,,quit ,0,lyrics,,,,,0,0.0
1654,3.0,,,,,,,79.0,,,,,,156,note_on,,0.0,79.0,0.0,24414,12.715625
1655,9.0,,,,,,,70.0,,,,,,68,note_on,,0.0,70.0,0.0,12697,6.613020833333334
1656,10.0,,,,,,,63.0,,,,,,141,note_on,,0.0,63.0,0.0,5428,2.8270833333333334
1657,10.0,,,,,,,72.0,,,,,,15,note_on,,0.0,72.0,0.0,5443,2.8348958333333334
1658,10.0,,,,,,,67.0,,,,,,8,note_on,,0.0,67.0,0.0,5451,2.8390625
1659,11.0,,,,,,,70.0,,,,,,38,note_on,,0.0,70.0,0.0,12764,6.647916666666666
1660,11.0,,,,,,,63.0,,,,,,0,note_on,,0.0,63.0,0.0,12764,6.647916666666666
1661,11.0,,,,,,,67.0,,,,,,3,note_on,,0.0,67.0,0.0,12767,6.649479166666667
1662,3.0,,,,,,,77.0,,,,,,51,note_on,,127.0,77.0,127.0,24465,12.7421875
1663,9.0,,,,,,,42.0,,,,,,0,note_on,,85.0,42.0,85.0,12697,6.613020833333334
1664,9.0,,,,,,,70.0,,,,,,0,note_on,,40.0,70.0,40.0,12697,6.613020833333334
1665,9.0,,,,,,,36.0,,,,,,0,note_on,,126.0,36.0,126.0,12697,6.613020833333334
1666,9.0,,,,,,,35.0,,,,,,0,note_on,,60.0,35.0,60.0,12697,6.613020833333334
1667,10.0,,,,,,,67.0,,,,,,0,note_on,,127.0,67.0,127.0,5451,2.8390625
1668,10.0,,,,,,,70.0,,,,,,0,note_on,,118.0,70.0,118.0,5451,2.8390625
1669,10.0,,,,,,,63.0,,,,,,0,note_on,,127.0,63.0,127.0,5451,2.8390625
1670,12.0,,,,,,,67.0,,,,,,0,note_on,,127.0,67.0,127.0,8481,4.4171875
1671,12.0,,,,,,,72.0,,,,,,0,note_on,,127.0,72.0,127.0,8481,4.4171875
1672,12.0,,,,,,,63.0,,,,,,0,note_on,,127.0,63.0,127.0,8481,4.4171875
1673,,,,,,,,,,,,,play ,0,lyrics,,,,,0,0.0
1674,9.0,,,,,,,35.0,,,,,,172,note_on,,0.0,35.0,0.0,12869,6.702604166666666
1675,9.0,,,,,,,36.0,,,,,,0,note_on,,0.0,36.0,0.0,12869,6.702604166666666
1676,9.0,,,,,,,70.0,,,,,,52,note_on,,0.0,70.0,0.0,12921,6.7296875
1677,9.0,,,,,,,42.0,,,,,,0,note_on,,0.0,42.0,0.0,12921,6.7296875
1678,12.0,,,,,,,63.0,,,,,,141,note_on,,0.0,63.0,0.0,8622,4.490625
1679,12.0,,,,,,,72.0,,,,,,15,note_on,,0.0,72.0,0.0,8637,4.4984375
1680,12.0,,,,,,,67.0,,,,,,8,note_on,,0.0,67.0,0.0,8645,4.502604166666667
1681,10.0,,,,,,,70.0,,,,,,38,note_on,,0.0,70.0,0.0,5489,2.8588541666666667
1682,10.0,,,,,,,63.0,,,,,,0,note_on,,0.0,63.0,0.0,5489,2.8588541666666667
1683,10.0,,,,,,,67.0,,,,,,3,note_on,,0.0,67.0,0.0,5492,2.8604166666666666
1684,9.0,,,,,,,70.0,,,,,,51,note_on,,40.0,70.0,40.0,12972,6.75625
1685,12.0,,,,,,,67.0,,,,,,0,note_on,,127.0,67.0,127.0,8645,4.502604166666667
1686,12.0,,,,,,,70.0,,,,,,0,note_on,,118.0,70.0,118.0,8645,4.502604166666667
1687,12.0,,,,,,,63.0,,,,,,0,note_on,,127.0,63.0,127.0,8645,4.502604166666667
1688,3.0,,,,,,,77.0,,,,,,173,note_on,,0.0,77.0,0.0,24638,12.832291666666666
1689,9.0,,,,,,,70.0,,,,,,51,note_on,,0.0,70.0,0.0,13023,6.7828124999999995
1690,3.0,,,,,,,75.0,,,,,,16,note_on,,127.0,75.0,127.0,24654,12.840625
1691,9.0,,,,,,,36.0,,,,,,0,note_on,,126.0,36.0,126.0,13023,6.7828124999999995
1692,9.0,,,,,,,35.0,,,,,,0,note_on,,60.0,35.0,60.0,13023,6.7828124999999995
1693,,,,,,,,,,,,,ing ,0,lyrics,,,,,0,0.0
1694,12.0,,,,,,,70.0,,,,,,186,note_on,,0.0,70.0,0.0,8831,4.599479166666667
1695,12.0,,,,,,,63.0,,,,,,0,note_on,,0.0,63.0,0.0,8831,4.599479166666667
1696,12.0,,,,,,,67.0,,,,,,3,note_on,,0.0,67.0,0.0,8834,4.601041666666666
1697,9.0,,,,,,,35.0,,,,,,35,note_on,,0.0,35.0,0.0,13058,6.801041666666666
1698,9.0,,,,,,,36.0,,,,,,0,note_on,,0.0,36.0,0.0,13058,6.801041666666666
1699,9.0,,,,,,,42.0,,,,,,16,note_on,,85.0,42.0,85.0,13074,6.809375
1700,9.0,,,,,,,70.0,,,,,,0,note_on,,40.0,70.0,40.0,13074,6.809375
1701,9.0,,,,,,,39.0,,,,,,0,note_on,,125.0,39.0,125.0,13074,6.809375
1702,9.0,,,,,,,28.0,,,,,,0,note_on,,127.0,28.0,127.0,13074,6.809375
1703,9.0,,,,,,,28.0,,,,,,117,note_on,,0.0,28.0,0.0,13191,6.8703125
1704,9.0,,,,,,,39.0,,,,,,34,note_on,,0.0,39.0,0.0,13225,6.888020833333333
1705,9.0,,,,,,,70.0,,,,,,73,note_on,,0.0,70.0,0.0,13298,6.926041666666666
1706,9.0,,,,,,,42.0,,,,,,0,note_on,,0.0,42.0,0.0,13298,6.926041666666666
1707,6.0,,,,,,,70.0,,,,,,256,note_on,,127.0,70.0,127.0,5513,2.8713541666666664
1708,6.0,,,,,,,75.0,,,,,,0,note_on,,127.0,75.0,127.0,5513,2.8713541666666664
1709,6.0,,,,,,,67.0,,,,,,0,note_on,,127.0,67.0,127.0,5513,2.8713541666666664
1710,9.0,,,,,,,46.0,,,,,,0,note_on,,100.0,46.0,100.0,13298,6.926041666666666
1711,9.0,,,,,,,70.0,,,,,,0,note_on,,40.0,70.0,40.0,13298,6.926041666666666
1712,9.0,,,,,,,36.0,,,,,,0,note_on,,126.0,36.0,126.0,13298,6.926041666666666
1713,9.0,,,,,,,35.0,,,,,,0,note_on,,60.0,35.0,60.0,13298,6.926041666666666
1714,3.0,,,,,,,75.0,,,,,,13,note_on,,0.0,75.0,0.0,24667,12.847395833333334
1715,9.0,,,,,,,35.0,,,,,,153,note_on,,0.0,35.0,0.0,13451,7.005729166666667
1716,9.0,,,,,,,36.0,,,,,,0,note_on,,0.0,36.0,0.0,13451,7.005729166666667
1717,9.0,,,,,,,46.0,,,,,,58,note_on,,0.0,46.0,0.0,13509,7.0359375
1718,9.0,,,,,,,70.0,,,,,,0,note_on,,0.0,70.0,0.0,13509,7.0359375
1719,6.0,,,,,,,,,-464.0,,,,205,pitchwheel,,,,,5718,2.978125
1720,6.0,,,,,,,,,-979.0,,,,8,pitchwheel,,,,,5726,2.982291666666667
1721,6.0,,,,,,,,,-1572.0,,,,13,pitchwheel,,,,,5739,2.9890625
1722,6.0,,,,,,,,,-2010.0,,,,6,pitchwheel,,,,,5745,2.9921875
1723,6.0,,,,,,,,,-2499.0,,,,6,pitchwheel,,,,,5751,2.9953125
1724,6.0,,,,,,,,,-3221.0,,,,10,pitchwheel,,,,,5761,3.0005208333333333
1725,9.0,,,,,,,46.0,,,,,,8,note_on,,100.0,46.0,100.0,13517,7.040104166666667
1726,9.0,,,,,,,70.0,,,,,,0,note_on,,40.0,70.0,40.0,13517,7.040104166666667
1727,6.0,,,,,,,,,-3556.0,,,,1,pitchwheel,,,,,5762,3.0010416666666666
1728,6.0,,,,,,,,,-4148.0,,,,6,pitchwheel,,,,,5768,3.0041666666666664
1729,6.0,,,,,,,,,-4637.0,,,,10,pitchwheel,,,,,5778,3.009375
1730,6.0,,,,,,,,,-4998.0,,,,9,pitchwheel,,,,,5787,3.0140625
1731,6.0,,,,,,,,,-5462.0,,,,8,pitchwheel,,,,,5795,3.0182291666666665
1732,6.0,,,,,,,,,-5616.0,,,,10,pitchwheel,,,,,5805,3.0234375
1733,6.0,,,,,,,,,-5848.0,,,,9,pitchwheel,,,,,5814,3.028125
1734,6.0,,,,,,,,,-6003.0,,,,10,pitchwheel,,,,,5824,3.033333333333333
1735,6.0,,,,,,,,,-6132.0,,,,19,pitchwheel,,,,,5843,3.0432291666666664
1736,6.0,,,,,,,,,-6209.0,,,,8,pitchwheel,,,,,5851,3.0473958333333333
1737,6.0,,,,,,,,,-6286.0,,,,17,pitchwheel,,,,,5868,3.05625
1738,6.0,,,,,,,,,-6054.0,,,,16,pitchwheel,,,,,5884,3.064583333333333
1739,6.0,,,,,,,,,-5926.0,,,,17,pitchwheel,,,,,5901,3.0734375
1740,6.0,,,,,,,,,-5668.0,,,,8,pitchwheel,,,,,5909,3.0776041666666667
1741,6.0,,,,,,,,,-5282.0,,,,9,pitchwheel,,,,,5918,3.0822916666666664
1742,6.0,,,,,,,,,-4741.0,,,,8,pitchwheel,,,,,5926,3.0864583333333333
1743,6.0,,,,,,,,,-4148.0,,,,10,pitchwheel,,,,,5936,3.091666666666667
1744,6.0,,,,,,,,,-3787.0,,,,7,pitchwheel,,,,,5943,3.0953125
1745,6.0,,,,,,,,,-3298.0,,,,8,pitchwheel,,,,,5951,3.099479166666667
1746,6.0,,,,,,,,,-2577.0,,,,8,pitchwheel,,,,,5959,3.103645833333333
1747,6.0,,,,,,,,,-2113.0,,,,11,pitchwheel,,,,,5970,3.109375
1748,6.0,,,,,,,,,-1495.0,,,,12,pitchwheel,,,,,5982,3.115625
1749,9.0,,,,,,,70.0,,,,,,3,note_on,,0.0,70.0,0.0,13520,7.041666666666667
1750,9.0,,,,,,,46.0,,,,,,0,note_on,,0.0,46.0,0.0,13520,7.041666666666667
1751,6.0,,,,,,,,,-902.0,,,,1,pitchwheel,,,,,5983,3.1161458333333334
1752,6.0,,,,,,,,,-361.0,,,,9,pitchwheel,,,,,5992,3.120833333333333
1753,6.0,,,,,,,,,0.0,,,,8,pitchwheel,,,,,6000,3.125
1754,9.0,,,,,,,70.0,,,,,,238,note_on,,40.0,70.0,40.0,13758,7.1656249999999995
1755,9.0,,,,,,,36.0,,,,,,0,note_on,,126.0,36.0,126.0,13758,7.1656249999999995
1756,9.0,,,,,,,35.0,,,,,,0,note_on,,60.0,35.0,60.0,13758,7.1656249999999995
1757,6.0,,,,,,,67.0,,,,,,36,note_on,,0.0,67.0,0.0,6036,3.14375
1758,9.0,,,,,,,36.0,,,,,,118,note_on,,0.0,36.0,0.0,13876,7.227083333333333
1759,9.0,,,,,,,35.0,,,,,,0,note_on,,0.0,35.0,0.0,13876,7.227083333333333
1760,9.0,,,,,,,70.0,,,,,,70,note_on,,0.0,70.0,0.0,13946,7.263541666666667
1761,6.0,,,,,,,75.0,,,,,,16,note_on,,0.0,75.0,0.0,6052,3.152083333333333
1762,6.0,,,,,,,70.0,,,,,,0,note_on,,0.0,70.0,0.0,6052,3.152083333333333
1763,9.0,,,,,,,42.0,,,,,,240,note_on,,85.0,42.0,85.0,14186,7.388541666666667
1764,9.0,,,,,,,70.0,,,,,,0,note_on,,40.0,70.0,40.0,14186,7.388541666666667
1765,9.0,,,,,,,39.0,,,,,,0,note_on,,127.0,39.0,127.0,14186,7.388541666666667
1766,9.0,,,,,,,28.0,,,,,,0,note_on,,127.0,28.0,127.0,14186,7.388541666666667
1767,9.0,,,,,,,39.0,,,,,,123,note_on,,0.0,39.0,0.0,14309,7.452604166666666
1768,9.0,,,,,,,28.0,,,,,,2,note_on,,0.0,28.0,0.0,14311,7.453645833333333
1769,9.0,,,,,,,70.0,,,,,,99,note_on,,0.0,70.0,0.0,14410,7.505208333333333
1770,9.0,,,,,,,42.0,,,,,,0,note_on,,0.0,42.0,0.0,14410,7.505208333333333
1771,3.0,,,,,,,82.0,,,,,,256,note_on,,127.0,82.0,127.0,24923,12.980729166666666
1772,9.0,,,,,,,61.0,,,,,,0,note_on,,100.0,61.0,100.0,14410,7.505208333333333
1773,9.0,,,,,,,70.0,,,,,,0,note_on,,40.0,70.0,40.0,14410,7.505208333333333
1774,,,,,,,,,,,,,Were ,0,lyrics,,,,,0,0.0
1775,9.0,,,,,,,61.0,,,,,,114,note_on,,0.0,61.0,0.0,14524,7.564583333333333
1776,9.0,,,,,,,61.0,,,,,,6,note_on,,100.0,61.0,100.0,14530,7.567708333333333
1777,9.0,,,,,,,70.0,,,,,,104,note_on,,0.0,70.0,0.0,14634,7.621875
1778,9.0,,,,,,,61.0,,,,,,10,note_on,,0.0,61.0,0.0,14644,7.627083333333333
1779,9.0,,,,,,,61.0,,,,,,6,note_on,,100.0,61.0,100.0,14650,7.630208333333333
1780,3.0,,,,,,,82.0,,,,,,86,note_on,,0.0,82.0,0.0,25009,13.025520833333333
1781,9.0,,,,,,,61.0,,,,,,28,note_on,,0.0,61.0,0.0,14678,7.644791666666666
1782,9.0,,,,,,,61.0,,,,,,6,note_on,,100.0,61.0,100.0,14684,7.647916666666666
1783,9.0,,,,,,,61.0,,,,,,114,note_on,,0.0,61.0,0.0,14798,7.707291666666666
1784,3.0,,,,,,,77.0,,,,,,6,note_on,,127.0,77.0,127.0,25015,13.028645833333334
1785,9.0,,,,,,,61.0,,,,,,0,note_on,,100.0,61.0,100.0,14798,7.707291666666666
1786,9.0,,,,,,,42.0,,,,,,0,note_on,,85.0,42.0,85.0,14798,7.707291666666666
1787,9.0,,,,,,,70.0,,,,,,0,note_on,,40.0,70.0,40.0,14798,7.707291666666666
1788,9.0,,,,,,,36.0,,,,,,0,note_on,,126.0,36.0,126.0,14798,7.707291666666666
1789,9.0,,,,,,,35.0,,,,,,0,note_on,,60.0,35.0,60.0,14798,7.707291666666666
1790,11.0,,,,,,,63.0,,,,,,0,note_on,,127.0,63.0,127.0,12767,6.649479166666667
1791,11.0,,,,,,,60.0,,,,,,0,note_on,,127.0,60.0,127.0,12767,6.649479166666667
1792,11.0,,,,,,,67.0,,,,,,0,note_on,,127.0,67.0,127.0,12767,6.649479166666667
1793,,,,,,,,,,,,,just ,0,lyrics,,,,,0,0.0
1794,9.0,,,,,,,61.0,,,,,,114,note_on,,0.0,61.0,0.0,14912,7.766666666666667
1795,9.0,,,,,,,36.0,,,,,,58,note_on,,0.0,36.0,0.0,14970,7.796875
1796,9.0,,,,,,,35.0,,,,,,0,note_on,,0.0,35.0,0.0,14970,7.796875
1797,9.0,,,,,,,70.0,,,,,,52,note_on,,0.0,70.0,0.0,15022,7.823958333333334
1798,9.0,,,,,,,42.0,,,,,,0,note_on,,0.0,42.0,0.0,15022,7.823958333333334
1799,11.0,,,,,,,60.0,,,,,,180,note_on,,0.0,60.0,0.0,12947,6.743229166666667
1800,11.0,,,,,,,63.0,,,,,,32,note_on,,0.0,63.0,0.0,12979,6.759895833333333
1801,11.0,,,,,,,67.0,,,,,,6,note_on,,0.0,67.0,0.0,12985,6.763020833333333
1802,9.0,,,,,,,70.0,,,,,,38,note_on,,40.0,70.0,40.0,15060,7.84375
1803,10.0,,,,,,,63.0,,,,,,0,note_on,,127.0,63.0,127.0,5492,2.8604166666666666
1804,10.0,,,,,,,60.0,,,,,,0,note_on,,127.0,60.0,127.0,5492,2.8604166666666666
1805,10.0,,,,,,,67.0,,,,,,0,note_on,,127.0,67.0,127.0,5492,2.8604166666666666
1806,9.0,,,,,,,70.0,,,,,,224,note_on,,0.0,70.0,0.0,15284,7.960416666666666
1807,9.0,,,,,,,36.0,,,,,,16,note_on,,126.0,36.0,126.0,15300,7.96875
1808,9.0,,,,,,,35.0,,,,,,0,note_on,,60.0,35.0,60.0,15300,7.96875
1809,3.0,,,,,,,77.0,,,,,,11,note_on,,0.0,77.0,0.0,25026,13.034374999999999
1810,10.0,,,,,,,60.0,,,,,,153,note_on,,0.0,60.0,0.0,5645,2.9401041666666665
1811,10.0,,,,,,,63.0,,,,,,32,note_on,,0.0,63.0,0.0,5677,2.956770833333333
1812,10.0,,,,,,,67.0,,,,,,6,note_on,,0.0,67.0,0.0,5683,2.9598958333333334
1813,9.0,,,,,,,36.0,,,,,,22,note_on,,0.0,36.0,0.0,15322,7.980208333333334
1814,9.0,,,,,,,35.0,,,,,,0,note_on,,0.0,35.0,0.0,15322,7.980208333333334
1815,3.0,,,,,,,79.0,,,,,,16,note_on,,127.0,79.0,127.0,25042,13.042708333333334
1816,9.0,,,,,,,42.0,,,,,,0,note_on,,85.0,42.0,85.0,15322,7.980208333333334
1817,9.0,,,,,,,70.0,,,,,,0,note_on,,40.0,70.0,40.0,15322,7.980208333333334
1818,9.0,,,,,,,39.0,,,,,,0,note_on,,125.0,39.0,125.0,15322,7.980208333333334
1819,9.0,,,,,,,28.0,,,,,,0,note_on,,127.0,28.0,127.0,15322,7.980208333333334
1820,12.0,,,,,,,63.0,,,,,,0,note_on,,127.0,63.0,127.0,8834,4.601041666666666
1821,12.0,,,,,,,60.0,,,,,,0,note_on,,127.0,60.0,127.0,8834,4.601041666666666
1822,12.0,,,,,,,67.0,,,,,,0,note_on,,127.0,67.0,127.0,8834,4.601041666666666
1823,,,,,,,,,,,,,"friends, ",0,lyrics,,,,,0,0.0
1824,9.0,,,,,,,28.0,,,,,,117,note_on,,0.0,28.0,0.0,15439,8.041145833333333
1825,9.0,,,,,,,39.0,,,,,,34,note_on,,0.0,39.0,0.0,15473,8.058854166666666
1826,9.0,,,,,,,70.0,,,,,,73,note_on,,0.0,70.0,0.0,15546,8.096875
1827,9.0,,,,,,,42.0,,,,,,0,note_on,,0.0,42.0,0.0,15546,8.096875
1828,12.0,,,,,,,60.0,,,,,,180,note_on,,0.0,60.0,0.0,9014,4.694791666666666
1829,12.0,,,,,,,63.0,,,,,,32,note_on,,0.0,63.0,0.0,9046,4.711458333333333
1830,12.0,,,,,,,67.0,,,,,,6,note_on,,0.0,67.0,0.0,9052,4.714583333333334
1831,9.0,,,,,,,70.0,,,,,,38,note_on,,40.0,70.0,40.0,15584,8.116666666666667
1832,9.0,,,,,,,36.0,,,,,,0,note_on,,126.0,36.0,126.0,15584,8.116666666666667
1833,9.0,,,,,,,35.0,,,,,,0,note_on,,60.0,35.0,60.0,15584,8.116666666666667
1834,9.0,,,,,,,35.0,,,,,,166,note_on,,0.0,35.0,0.0,15750,8.203125
1835,9.0,,,,,,,36.0,,,,,,0,note_on,,0.0,36.0,0.0,15750,8.203125
1836,3.0,,,,,,,79.0,,,,,,20,note_on,,0.0,79.0,0.0,25062,13.053125
1837,9.0,,,,,,,70.0,,,,,,38,note_on,,0.0,70.0,0.0,15788,8.222916666666666
1838,6.0,,,,,,,67.0,,,,,,256,note_on,,127.0,67.0,127.0,6308,3.2854166666666664
1839,6.0,,,,,,,72.0,,,,,,0,note_on,,127.0,72.0,127.0,6308,3.2854166666666664
1840,6.0,,,,,,,75.0,,,,,,0,note_on,,127.0,75.0,127.0,6308,3.2854166666666664
1841,9.0,,,,,,,42.0,,,,,,0,note_on,,85.0,42.0,85.0,15788,8.222916666666666
1842,9.0,,,,,,,70.0,,,,,,0,note_on,,40.0,70.0,40.0,15788,8.222916666666666
1843,9.0,,,,,,,70.0,,,,,,224,note_on,,0.0,70.0,0.0,16012,8.339583333333334
1844,9.0,,,,,,,42.0,,,,,,0,note_on,,0.0,42.0,0.0,16012,8.339583333333334
1845,3.0,,,,,,,75.0,,,,,,256,note_on,,127.0,75.0,127.0,25318,13.186458333333333
1846,9.0,,,,,,,70.0,,,,,,0,note_on,,40.0,70.0,40.0,16012,8.339583333333334
1847,9.0,,,,,,,36.0,,,,,,0,note_on,,126.0,36.0,126.0,16012,8.339583333333334
1848,9.0,,,,,,,35.0,,,,,,0,note_on,,60.0,35.0,60.0,16012,8.339583333333334
1849,,,,,,,,,,,,,What ,0,lyrics,,,,,0,0.0
1850,6.0,,,,,,,67.0,,,,,,4,note_on,,0.0,67.0,0.0,6312,3.2875
1851,6.0,,,,,,,72.0,,,,,,35,note_on,,0.0,72.0,0.0,6347,3.3057291666666666
1852,6.0,,,,,,,75.0,,,,,,4,note_on,,0.0,75.0,0.0,6351,3.3078125
1853,3.0,,,,,,,75.0,,,,,,96,note_on,,0.0,75.0,0.0,25414,13.236458333333333
1854,9.0,,,,,,,35.0,,,,,,15,note_on,,0.0,35.0,0.0,16027,8.347395833333334
1855,9.0,,,,,,,36.0,,,,,,0,note_on,,0.0,36.0,0.0,16027,8.347395833333334
1856,9.0,,,,,,,70.0,,,,,,70,note_on,,0.0,70.0,0.0,16097,8.383854166666666
1857,3.0,,,,,,,75.0,,,,,,256,note_on,,127.0,75.0,127.0,25670,13.369791666666666
1858,9.0,,,,,,,42.0,,,,,,0,note_on,,85.0,42.0,85.0,16097,8.383854166666666
1859,9.0,,,,,,,70.0,,,,,,0,note_on,,40.0,70.0,40.0,16097,8.383854166666666
1860,9.0,,,,,,,39.0,,,,,,0,note_on,,127.0,39.0,127.0,16097,8.383854166666666
1861,9.0,,,,,,,28.0,,,,,,0,note_on,,127.0,28.0,127.0,16097,8.383854166666666
1862,11.0,,,,,,,68.0,,,,,,0,note_on,,127.0,68.0,127.0,12985,6.763020833333333
1863,11.0,,,,,,,60.0,,,,,,0,note_on,,127.0,60.0,127.0,12985,6.763020833333333
1864,11.0,,,,,,,63.0,,,,,,0,note_on,,127.0,63.0,127.0,12985,6.763020833333333
1865,,,,,,,,,,,,,are ,0,lyrics,,,,,0,0.0
1866,9.0,,,,,,,39.0,,,,,,123,note_on,,0.0,39.0,0.0,16220,8.447916666666666
1867,9.0,,,,,,,28.0,,,,,,2,note_on,,0.0,28.0,0.0,16222,8.448958333333334
1868,3.0,,,,,,,75.0,,,,,,21,note_on,,0.0,75.0,0.0,25691,13.380729166666667
1869,9.0,,,,,,,42.0,,,,,,78,note_on,,0.0,42.0,0.0,16300,8.489583333333334
1870,9.0,,,,,,,70.0,,,,,,0,note_on,,0.0,70.0,0.0,16300,8.489583333333334
1871,11.0,,,,,,,68.0,,,,,,161,note_on,,0.0,68.0,0.0,13146,6.846875
1872,11.0,,,,,,,60.0,,,,,,4,note_on,,0.0,60.0,0.0,13150,6.848958333333333
1873,11.0,,,,,,,63.0,,,,,,19,note_on,,0.0,63.0,0.0,13169,6.858854166666666
1874,3.0,,,,,,,75.0,,,,,,72,note_on,,127.0,75.0,127.0,25763,13.418229166666666
1875,9.0,,,,,,,70.0,,,,,,0,note_on,,40.0,70.0,40.0,16300,8.489583333333334
1876,10.0,,,,,,,68.0,,,,,,0,note_on,,127.0,68.0,127.0,5683,2.9598958333333334
1877,10.0,,,,,,,60.0,,,,,,0,note_on,,127.0,60.0,127.0,5683,2.9598958333333334
1878,10.0,,,,,,,63.0,,,,,,0,note_on,,127.0,63.0,127.0,5683,2.9598958333333334
1879,11.0,,,,,,,63.0,,,,,,0,note_on,,127.0,63.0,127.0,13169,6.858854166666666
1880,11.0,,,,,,,60.0,,,,,,0,note_on,,127.0,60.0,127.0,13169,6.858854166666666
1881,11.0,,,,,,,67.0,,,,,,0,note_on,,127.0,67.0,127.0,13169,6.858854166666666
1882,,,,,,,,,,,,,you ,0,lyrics,,,,,0,0.0
1883,3.0,,,,,,,75.0,,,,,,165,note_on,,0.0,75.0,0.0,25928,13.504166666666666
1884,9.0,,,,,,,70.0,,,,,,59,note_on,,0.0,70.0,0.0,16359,8.5203125
1885,11.0,,,,,,,60.0,,,,,,147,note_on,,0.0,60.0,0.0,13316,6.935416666666667
1886,11.0,,,,,,,67.0,,,,,,11,note_on,,0.0,67.0,0.0,13327,6.941145833333334
1887,10.0,,,,,,,68.0,,,,,,3,note_on,,0.0,68.0,0.0,5686,2.9614583333333333
1888,10.0,,,,,,,60.0,,,,,,4,note_on,,0.0,60.0,0.0,5690,2.9635416666666665
1889,10.0,,,,,,,63.0,,,,,,19,note_on,,0.0,63.0,0.0,5709,2.9734375
1890,11.0,,,,,,,63.0,,,,,,18,note_on,,0.0,63.0,0.0,13345,6.950520833333333
1891,3.0,,,,,,,77.0,,,,,,54,note_on,,127.0,77.0,127.0,25982,13.532291666666666
1892,9.0,,,,,,,42.0,,,,,,0,note_on,,85.0,42.0,85.0,16359,8.5203125
1893,9.0,,,,,,,70.0,,,,,,0,note_on,,40.0,70.0,40.0,16359,8.5203125
1894,9.0,,,,,,,36.0,,,,,,0,note_on,,126.0,36.0,126.0,16359,8.5203125
1895,9.0,,,,,,,35.0,,,,,,0,note_on,,60.0,35.0,60.0,16359,8.5203125
1896,10.0,,,,,,,63.0,,,,,,0,note_on,,127.0,63.0,127.0,5709,2.9734375
1897,10.0,,,,,,,60.0,,,,,,0,note_on,,127.0,60.0,127.0,5709,2.9734375
1898,10.0,,,,,,,67.0,,,,,,0,note_on,,127.0,67.0,127.0,5709,2.9734375
1899,12.0,,,,,,,68.0,,,,,,0,note_on,,127.0,68.0,127.0,9052,4.714583333333334
1900,12.0,,,,,,,60.0,,,,,,0,note_on,,127.0,60.0,127.0,9052,4.714583333333334
1901,12.0,,,,,,,63.0,,,,,,0,note_on,,127.0,63.0,127.0,9052,4.714583333333334
1902,,,,,,,,,,,,,say ,0,lyrics,,,,,0,0.0
1903,9.0,,,,,,,35.0,,,,,,172,note_on,,0.0,35.0,0.0,16531,8.609895833333333
1904,9.0,,,,,,,36.0,,,,,,0,note_on,,0.0,36.0,0.0,16531,8.609895833333333
1905,9.0,,,,,,,70.0,,,,,,52,note_on,,0.0,70.0,0.0,16583,8.636979166666666
1906,9.0,,,,,,,42.0,,,,,,0,note_on,,0.0,42.0,0.0,16583,8.636979166666666
1907,10.0,,,,,,,60.0,,,,,,147,note_on,,0.0,60.0,0.0,5856,3.05
1908,10.0,,,,,,,67.0,,,,,,11,note_on,,0.0,67.0,0.0,5867,3.0557291666666666
1909,12.0,,,,,,,68.0,,,,,,3,note_on,,0.0,68.0,0.0,9055,4.716145833333333
1910,12.0,,,,,,,60.0,,,,,,4,note_on,,0.0,60.0,0.0,9059,4.718229166666666
1911,12.0,,,,,,,63.0,,,,,,19,note_on,,0.0,63.0,0.0,9078,4.728125
1912,10.0,,,,,,,63.0,,,,,,18,note_on,,0.0,63.0,0.0,5885,3.0651041666666665
1913,9.0,,,,,,,70.0,,,,,,54,note_on,,40.0,70.0,40.0,16637,8.665104166666666
1914,12.0,,,,,,,63.0,,,,,,0,note_on,,127.0,63.0,127.0,9078,4.728125
1915,12.0,,,,,,,60.0,,,,,,0,note_on,,127.0,60.0,127.0,9078,4.728125
1916,12.0,,,,,,,67.0,,,,,,0,note_on,,127.0,67.0,127.0,9078,4.728125
1917,3.0,,,,,,,77.0,,,,,,173,note_on,,0.0,77.0,0.0,26155,13.622395833333334
1918,9.0,,,,,,,70.0,,,,,,51,note_on,,0.0,70.0,0.0,16688,8.691666666666666
1919,9.0,,,,,,,36.0,,,,,,16,note_on,,126.0,36.0,126.0,16704,8.7
1920,9.0,,,,,,,35.0,,,,,,0,note_on,,60.0,35.0,60.0,16704,8.7
1921,12.0,,,,,,,60.0,,,,,,131,note_on,,0.0,60.0,0.0,9209,4.796354166666666
1922,12.0,,,,,,,67.0,,,,,,11,note_on,,0.0,67.0,0.0,9220,4.802083333333333
1923,12.0,,,,,,,63.0,,,,,,44,note_on,,0.0,63.0,0.0,9264,4.825
1924,9.0,,,,,,,36.0,,,,,,38,note_on,,0.0,36.0,0.0,16742,8.719791666666666
1925,9.0,,,,,,,35.0,,,,,,0,note_on,,0.0,35.0,0.0,16742,8.719791666666666
1926,3.0,,,,,,,75.0,,,,,,16,note_on,,127.0,75.0,127.0,26171,13.630729166666667
1927,9.0,,,,,,,42.0,,,,,,0,note_on,,85.0,42.0,85.0,16742,8.719791666666666
1928,9.0,,,,,,,70.0,,,,,,0,note_on,,40.0,70.0,40.0,16742,8.719791666666666
1929,9.0,,,,,,,39.0,,,,,,0,note_on,,125.0,39.0,125.0,16742,8.719791666666666
1930,9.0,,,,,,,28.0,,,,,,0,note_on,,127.0,28.0,127.0,16742,8.719791666666666
1931,,,,,,,,,,,,,ing ,0,lyrics,,,,,0,0.0
1932,9.0,,,,,,,28.0,,,,,,117,note_on,,0.0,28.0,0.0,16859,8.780729166666667
1933,9.0,,,,,,,39.0,,,,,,34,note_on,,0.0,39.0,0.0,16893,8.7984375
1934,9.0,,,,,,,70.0,,,,,,73,note_on,,0.0,70.0,0.0,16966,8.836458333333333
1935,9.0,,,,,,,42.0,,,,,,0,note_on,,0.0,42.0,0.0,16966,8.836458333333333
1936,6.0,,,,,,,67.0,,,,,,256,note_on,,127.0,67.0,127.0,6607,3.441145833333333
1937,6.0,,,,,,,72.0,,,,,,0,note_on,,127.0,72.0,127.0,6607,3.441145833333333
1938,6.0,,,,,,,75.0,,,,,,0,note_on,,127.0,75.0,127.0,6607,3.441145833333333
1939,9.0,,,,,,,46.0,,,,,,0,note_on,,100.0,46.0,100.0,16966,8.836458333333333
1940,9.0,,,,,,,70.0,,,,,,0,note_on,,40.0,70.0,40.0,16966,8.836458333333333
1941,9.0,,,,,,,36.0,,,,,,0,note_on,,126.0,36.0,126.0,16966,8.836458333333333
1942,9.0,,,,,,,35.0,,,,,,0,note_on,,60.0,35.0,60.0,16966,8.836458333333333
1943,9.0,,,,,,,35.0,,,,,,166,note_on,,0.0,35.0,0.0,17132,8.922916666666666
1944,9.0,,,,,,,36.0,,,,,,0,note_on,,0.0,36.0,0.0,17132,8.922916666666666
1945,9.0,,,,,,,46.0,,,,,,58,note_on,,0.0,46.0,0.0,17190,8.953125
1946,9.0,,,,,,,70.0,,,,,,0,note_on,,0.0,70.0,0.0,17190,8.953125
1947,3.0,,,,,,,75.0,,,,,,226,note_on,,0.0,75.0,0.0,26397,13.7484375
1948,6.0,,,,,,,,,-387.0,,,,24,pitchwheel,,,,,6631,3.4536458333333333
1949,9.0,,,,,,,46.0,,,,,,6,note_on,,100.0,46.0,100.0,17196,8.95625
1950,9.0,,,,,,,70.0,,,,,,0,note_on,,40.0,70.0,40.0,17196,8.95625
1951,6.0,,,,,,,,,-1031.0,,,,4,pitchwheel,,,,,6635,3.4557291666666665
1952,6.0,,,,,,,,,-1572.0,,,,8,pitchwheel,,,,,6643,3.4598958333333334
1953,6.0,,,,,,,,,-2087.0,,,,9,pitchwheel,,,,,6652,3.464583333333333
1954,6.0,,,,,,,,,-2525.0,,,,10,pitchwheel,,,,,6662,3.4697916666666666
1955,6.0,,,,,,,,,-3169.0,,,,6,pitchwheel,,,,,6668,3.4729166666666664
1956,6.0,,,,,,,,,-3581.0,,,,9,pitchwheel,,,,,6677,3.4776041666666666
1957,6.0,,,,,,,,,-4148.0,,,,8,pitchwheel,,,,,6685,3.4817708333333335
1958,6.0,,,,,,,,,-4715.0,,,,10,pitchwheel,,,,,6695,3.4869791666666665
1959,6.0,,,,,,,,,-5307.0,,,,9,pitchwheel,,,,,6704,3.4916666666666667
1960,6.0,,,,,,,,,-5591.0,,,,8,pitchwheel,,,,,6712,3.495833333333333
1961,6.0,,,,,,,,,-5874.0,,,,8,pitchwheel,,,,,6720,3.5
1962,6.0,,,,,,,,,-6235.0,,,,9,pitchwheel,,,,,6729,3.5046874999999997
1963,6.0,,,,,,,,,-6776.0,,,,10,pitchwheel,,,,,6739,3.509895833333333
1964,6.0,,,,,,,,,-6956.0,,,,8,pitchwheel,,,,,6747,3.5140625
1965,6.0,,,,,,,,,-7188.0,,,,9,pitchwheel,,,,,6756,3.51875
1966,6.0,,,,,,,,,-7652.0,,,,8,pitchwheel,,,,,6764,3.5229166666666667
1967,6.0,,,,,,,,,-7780.0,,,,17,pitchwheel,,,,,6781,3.5317708333333333
1968,6.0,,,,,,,,,-7883.0,,,,8,pitchwheel,,,,,6789,3.5359374999999997
1969,6.0,,,,,,,,,-7935.0,,,,10,pitchwheel,,,,,6799,3.541145833333333
1970,6.0,,,,,,,,,-8012.0,,,,9,pitchwheel,,,,,6808,3.5458333333333334
1971,6.0,,,,,,,,,-7780.0,,,,10,pitchwheel,,,,,6818,3.5510416666666664
1972,6.0,,,,,,,,,-7626.0,,,,8,pitchwheel,,,,,6826,3.5552083333333333
1973,6.0,,,,,,,,,-7317.0,,,,9,pitchwheel,,,,,6835,3.5598958333333335
1974,6.0,,,,,,,,,-7111.0,,,,10,pitchwheel,,,,,6845,3.5651041666666665
1975,6.0,,,,,,,,,-6776.0,,,,8,pitchwheel,,,,,6853,3.5692708333333334
1976,9.0,,,,,,,70.0,,,,,,2,note_on,,0.0,70.0,0.0,17198,8.957291666666666
1977,9.0,,,,,,,46.0,,,,,,0,note_on,,0.0,46.0,0.0,17198,8.957291666666666
1978,6.0,,,,,,,,,-6003.0,,,,7,pitchwheel,,,,,6860,3.5729166666666665
1979,6.0,,,,,,,,,-5410.0,,,,8,pitchwheel,,,,,6868,3.5770833333333334
1980,6.0,,,,,,,,,-4766.0,,,,8,pitchwheel,,,,,6876,3.58125
1981,6.0,,,,,,,,,-4071.0,,,,9,pitchwheel,,,,,6885,3.5859375
1982,6.0,,,,,,,,,-3452.0,,,,8,pitchwheel,,,,,6893,3.5901041666666664
1983,6.0,,,,,,,,,-2808.0,,,,8,pitchwheel,,,,,6901,3.5942708333333333
1984,6.0,,,,,,,,,-1933.0,,,,13,pitchwheel,,,,,6914,3.6010416666666667
1985,6.0,,,,,,,,,-1392.0,,,,8,pitchwheel,,,,,6922,3.605208333333333
1986,6.0,,,,,,,,,-670.0,,,,9,pitchwheel,,,,,6931,3.6098958333333333
1987,6.0,,,,,,,,,0.0,,,,8,pitchwheel,,,,,6939,3.6140624999999997
1988,3.0,,,,,,,75.0,,,,,,170,note_on,,127.0,75.0,127.0,26567,13.836979166666666
1989,9.0,,,,,,,70.0,,,,,,0,note_on,,40.0,70.0,40.0,17198,8.957291666666666
1990,9.0,,,,,,,36.0,,,,,,0,note_on,,126.0,36.0,126.0,17198,8.957291666666666
1991,9.0,,,,,,,35.0,,,,,,0,note_on,,60.0,35.0,60.0,17198,8.957291666666666
1992,,,,,,,,,,,,,Said ,0,lyrics,,,,,0,0.0
1993,3.0,,,,,,,75.0,,,,,,127,note_on,,0.0,75.0,0.0,26694,13.903125
1994,9.0,,,,,,,36.0,,,,,,27,note_on,,0.0,36.0,0.0,17225,8.971354166666666
1995,9.0,,,,,,,35.0,,,,,,0,note_on,,0.0,35.0,0.0,17225,8.971354166666666
1996,9.0,,,,,,,70.0,,,,,,70,note_on,,0.0,70.0,0.0,17295,9.0078125
1997,6.0,,,,,,,75.0,,,,,,16,note_on,,0.0,75.0,0.0,6955,3.6223958333333335
1998,6.0,,,,,,,72.0,,,,,,0,note_on,,0.0,72.0,0.0,6955,3.6223958333333335
1999,6.0,,,,,,,67.0,,,,,,12,note_on,,0.0,67.0,0.0,6967,3.628645833333333
2000,3.0,,,,,,,75.0,,,,,,228,note_on,,127.0,75.0,127.0,26922,14.021875
2001,9.0,,,,,,,42.0,,,,,,0,note_on,,85.0,42.0,85.0,17295,9.0078125
2002,9.0,,,,,,,70.0,,,,,,0,note_on,,40.0,70.0,40.0,17295,9.0078125
2003,9.0,,,,,,,39.0,,,,,,0,note_on,,127.0,39.0,127.0,17295,9.0078125
2004,9.0,,,,,,,28.0,,,,,,0,note_on,,127.0,28.0,127.0,17295,9.0078125
2005,,,,,,,,,,,,,theres ,0,lyrics,,,,,0,0.0
2006,9.0,,,,,,,39.0,,,,,,123,note_on,,0.0,39.0,0.0,17418,9.071875
2007,9.0,,,,,,,28.0,,,,,,2,note_on,,0.0,28.0,0.0,17420,9.072916666666666
2008,3.0,,,,,,,75.0,,,,,,31,note_on,,0.0,75.0,0.0,26953,14.038020833333333
2009,9.0,,,,,,,70.0,,,,,,68,note_on,,0.0,70.0,0.0,17488,9.108333333333333
2010,9.0,,,,,,,42.0,,,,,,0,note_on,,0.0,42.0,0.0,17488,9.108333333333333
2011,3.0,,,,,,,75.0,,,,,,256,note_on,,127.0,75.0,127.0,27209,14.171354166666667
2012,9.0,,,,,,,61.0,,,,,,0,note_on,,100.0,61.0,100.0,17488,9.108333333333333
2013,9.0,,,,,,,70.0,,,,,,0,note_on,,40.0,70.0,40.0,17488,9.108333333333333
2014,,,,,,,,,,,,,a ,0,lyrics,,,,,0,0.0
2015,9.0,,,,,,,61.0,,,,,,114,note_on,,0.0,61.0,0.0,17602,9.167708333333334
2016,9.0,,,,,,,61.0,,,,,,6,note_on,,100.0,61.0,100.0,17608,9.170833333333333
2017,3.0,,,,,,,75.0,,,,,,70,note_on,,0.0,75.0,0.0,27279,14.2078125
2018,9.0,,,,,,,70.0,,,,,,34,note_on,,0.0,70.0,0.0,17642,9.188541666666666
2019,9.0,,,,,,,61.0,,,,,,10,note_on,,0.0,61.0,0.0,17652,9.19375
2020,9.0,,,,,,,61.0,,,,,,6,note_on,,100.0,61.0,100.0,17658,9.196875
2021,9.0,,,,,,,61.0,,,,,,114,note_on,,0.0,61.0,0.0,17772,9.25625
2022,9.0,,,,,,,61.0,,,,,,6,note_on,,100.0,61.0,100.0,17778,9.259375
2023,9.0,,,,,,,61.0,,,,,,114,note_on,,0.0,61.0,0.0,17892,9.31875
2024,3.0,,,,,,,80.0,,,,,,6,note_on,,127.0,80.0,127.0,27285,14.2109375
2025,9.0,,,,,,,61.0,,,,,,0,note_on,,100.0,61.0,100.0,17892,9.31875
2026,9.0,,,,,,,42.0,,,,,,0,note_on,,85.0,42.0,85.0,17892,9.31875
2027,9.0,,,,,,,70.0,,,,,,0,note_on,,40.0,70.0,40.0,17892,9.31875
2028,9.0,,,,,,,36.0,,,,,,0,note_on,,126.0,36.0,126.0,17892,9.31875
2029,9.0,,,,,,,35.0,,,,,,0,note_on,,60.0,35.0,60.0,17892,9.31875
2030,11.0,,,,,,,60.0,,,,,,0,note_on,,127.0,60.0,127.0,13345,6.950520833333333
2031,11.0,,,,,,,56.0,,,,,,0,note_on,,127.0,56.0,127.0,13345,6.950520833333333
2032,11.0,,,,,,,63.0,,,,,,0,note_on,,127.0,63.0,127.0,13345,6.950520833333333
2033,,,,,,,,,,,,,no ,0,lyrics,,,,,0,0.0
2034,9.0,,,,,,,61.0,,,,,,114,note_on,,0.0,61.0,0.0,18006,9.378125
2035,9.0,,,,,,,36.0,,,,,,58,note_on,,0.0,36.0,0.0,18064,9.408333333333333
2036,9.0,,,,,,,35.0,,,,,,0,note_on,,0.0,35.0,0.0,18064,9.408333333333333
2037,9.0,,,,,,,70.0,,,,,,52,note_on,,0.0,70.0,0.0,18116,9.435416666666667
2038,9.0,,,,,,,42.0,,,,,,0,note_on,,0.0,42.0,0.0,18116,9.435416666666667
2039,11.0,,,,,,,56.0,,,,,,207,note_on,,0.0,56.0,0.0,13552,7.058333333333334
2040,11.0,,,,,,,60.0,,,,,,25,note_on,,0.0,60.0,0.0,13577,7.071354166666667
2041,9.0,,,,,,,70.0,,,,,,24,note_on,,40.0,70.0,40.0,18140,9.447916666666666
2042,10.0,,,,,,,60.0,,,,,,0,note_on,,127.0,60.0,127.0,5885,3.0651041666666665
2043,10.0,,,,,,,56.0,,,,,,0,note_on,,127.0,56.0,127.0,5885,3.0651041666666665
2044,10.0,,,,,,,63.0,,,,,,0,note_on,,127.0,63.0,127.0,5885,3.0651041666666665
2045,11.0,,,,,,,63.0,,,,,,9,note_on,,0.0,63.0,0.0,13586,7.076041666666667
2046,9.0,,,,,,,70.0,,,,,,215,note_on,,0.0,70.0,0.0,18355,9.559895833333334
2047,9.0,,,,,,,36.0,,,,,,16,note_on,,126.0,36.0,126.0,18371,9.568229166666667
2048,9.0,,,,,,,35.0,,,,,,0,note_on,,60.0,35.0,60.0,18371,9.568229166666667
2049,3.0,,,,,,,80.0,,,,,,47,note_on,,0.0,80.0,0.0,27332,14.235416666666666
2050,10.0,,,,,,,56.0,,,,,,144,note_on,,0.0,56.0,0.0,6029,3.1401041666666667
2051,10.0,,,,,,,60.0,,,,,,25,note_on,,0.0,60.0,0.0,6054,3.153125
2052,9.0,,,,,,,36.0,,,,,,8,note_on,,0.0,36.0,0.0,18379,9.572395833333333
2053,9.0,,,,,,,35.0,,,,,,0,note_on,,0.0,35.0,0.0,18379,9.572395833333333
2054,3.0,,,,,,,79.0,,,,,,16,note_on,,127.0,79.0,127.0,27348,14.24375
2055,9.0,,,,,,,42.0,,,,,,0,note_on,,85.0,42.0,85.0,18379,9.572395833333333
2056,9.0,,,,,,,70.0,,,,,,0,note_on,,40.0,70.0,40.0,18379,9.572395833333333
2057,9.0,,,,,,,39.0,,,,,,0,note_on,,125.0,39.0,125.0,18379,9.572395833333333
2058,9.0,,,,,,,28.0,,,,,,0,note_on,,127.0,28.0,127.0,18379,9.572395833333333
2059,12.0,,,,,,,60.0,,,,,,0,note_on,,127.0,60.0,127.0,9264,4.825
2060,12.0,,,,,,,56.0,,,,,,0,note_on,,127.0,56.0,127.0,9264,4.825
2061,12.0,,,,,,,63.0,,,,,,0,note_on,,127.0,63.0,127.0,9264,4.825
2062,,,,,,,,,,,,,"ther, ",0,lyrics,,,,,1,0.0005208333333333333
2063,10.0,,,,,,,63.0,,,,,,9,note_on,,0.0,63.0,0.0,6063,3.1578125
2064,9.0,,,,,,,28.0,,,,,,108,note_on,,0.0,28.0,0.0,18487,9.628645833333334
2065,9.0,,,,,,,39.0,,,,,,34,note_on,,0.0,39.0,0.0,18521,9.646354166666667
2066,9.0,,,,,,,70.0,,,,,,73,note_on,,0.0,70.0,0.0,18594,9.684375
2067,9.0,,,,,,,42.0,,,,,,0,note_on,,0.0,42.0,0.0,18594,9.684375
2068,12.0,,,,,,,56.0,,,,,,207,note_on,,0.0,56.0,0.0,9471,4.9328125
2069,12.0,,,,,,,60.0,,,,,,25,note_on,,0.0,60.0,0.0,9496,4.945833333333333
2070,9.0,,,,,,,70.0,,,,,,24,note_on,,40.0,70.0,40.0,18618,9.696875
2071,9.0,,,,,,,36.0,,,,,,0,note_on,,126.0,36.0,126.0,18618,9.696875
2072,9.0,,,,,,,35.0,,,,,,0,note_on,,60.0,35.0,60.0,18618,9.696875
2073,12.0,,,,,,,63.0,,,,,,9,note_on,,0.0,63.0,0.0,9505,4.950520833333333
2074,9.0,,,,,,,36.0,,,,,,157,note_on,,0.0,36.0,0.0,18775,9.778645833333334
2075,9.0,,,,,,,35.0,,,,,,0,note_on,,0.0,35.0,0.0,18775,9.778645833333334
2076,9.0,,,,,,,70.0,,,,,,58,note_on,,0.0,70.0,0.0,18833,9.808854166666666
2077,6.0,,,,,,,68.0,,,,,,256,note_on,,127.0,68.0,127.0,7223,3.7619791666666664
2078,6.0,,,,,,,72.0,,,,,,0,note_on,,127.0,72.0,127.0,7223,3.7619791666666664
2079,6.0,,,,,,,75.0,,,,,,0,note_on,,127.0,75.0,127.0,7223,3.7619791666666664
2080,9.0,,,,,,,42.0,,,,,,0,note_on,,85.0,42.0,85.0,18833,9.808854166666666
2081,9.0,,,,,,,70.0,,,,,,0,note_on,,40.0,70.0,40.0,18833,9.808854166666666
2082,3.0,,,,,,,79.0,,,,,,173,note_on,,0.0,79.0,0.0,27521,14.333854166666667
2083,9.0,,,,,,,42.0,,,,,,51,note_on,,0.0,42.0,0.0,18884,9.835416666666667
2084,9.0,,,,,,,70.0,,,,,,0,note_on,,0.0,70.0,0.0,18884,9.835416666666667
2085,6.0,,,,,,,68.0,,,,,,183,note_on,,0.0,68.0,0.0,7406,3.857291666666667
2086,6.0,,,,,,,72.0,,,,,,14,note_on,,0.0,72.0,0.0,7420,3.8645833333333335
2087,6.0,,,,,,,75.0,,,,,,12,note_on,,0.0,75.0,0.0,7432,3.870833333333333
2088,3.0,,,,,,,75.0,,,,,,47,note_on,,127.0,75.0,127.0,27568,14.358333333333333
2089,9.0,,,,,,,70.0,,,,,,0,note_on,,40.0,70.0,40.0,18884,9.835416666666667
2090,9.0,,,,,,,36.0,,,,,,0,note_on,,126.0,36.0,126.0,18884,9.835416666666667
2091,9.0,,,,,,,35.0,,,,,,0,note_on,,60.0,35.0,60.0,18884,9.835416666666667
2092,,,,,,,,,,,,,Look ,0,lyrics,,,,,1,0.0005208333333333333
2093,3.0,,,,,,,75.0,,,,,,152,note_on,,0.0,75.0,0.0,27720,14.4375
2094,9.0,,,,,,,35.0,,,,,,2,note_on,,0.0,35.0,0.0,18886,9.836458333333333
2095,9.0,,,,,,,36.0,,,,,,0,note_on,,0.0,36.0,0.0,18886,9.836458333333333
2096,9.0,,,,,,,70.0,,,,,,70,note_on,,0.0,70.0,0.0,18956,9.872916666666667
2097,3.0,,,,,,,75.0,,,,,,256,note_on,,127.0,75.0,127.0,27976,14.570833333333333
2098,9.0,,,,,,,42.0,,,,,,0,note_on,,85.0,42.0,85.0,18956,9.872916666666667
2099,9.0,,,,,,,70.0,,,,,,0,note_on,,40.0,70.0,40.0,18956,9.872916666666667
2100,9.0,,,,,,,39.0,,,,,,0,note_on,,127.0,39.0,127.0,18956,9.872916666666667
2101,9.0,,,,,,,28.0,,,,,,0,note_on,,127.0,28.0,127.0,18956,9.872916666666667
2102,11.0,,,,,,,60.0,,,,,,0,note_on,,127.0,60.0,127.0,13586,7.076041666666667
2103,11.0,,,,,,,65.0,,,,,,0,note_on,,127.0,65.0,127.0,13586,7.076041666666667
2104,11.0,,,,,,,56.0,,,,,,0,note_on,,127.0,56.0,127.0,13586,7.076041666666667
2105,,,,,,,,,,,,,right ,0,lyrics,,,,,1,0.0005208333333333333
2106,9.0,,,,,,,39.0,,,,,,123,note_on,,0.0,39.0,0.0,19079,9.936979166666667
2107,9.0,,,,,,,28.0,,,,,,2,note_on,,0.0,28.0,0.0,19081,9.938020833333333
2108,3.0,,,,,,,75.0,,,,,,29,note_on,,0.0,75.0,0.0,28005,14.5859375
2109,9.0,,,,,,,42.0,,,,,,70,note_on,,0.0,42.0,0.0,19151,9.974479166666667
2110,9.0,,,,,,,70.0,,,,,,0,note_on,,0.0,70.0,0.0,19151,9.974479166666667
2111,11.0,,,,,,,65.0,,,,,,160,note_on,,0.0,65.0,0.0,13746,7.159375
2112,11.0,,,,,,,56.0,,,,,,10,note_on,,0.0,56.0,0.0,13756,7.164583333333333
2113,11.0,,,,,,,60.0,,,,,,21,note_on,,0.0,60.0,0.0,13777,7.175520833333334
2114,3.0,,,,,,,75.0,,,,,,65,note_on,,127.0,75.0,127.0,28070,14.619791666666666
2115,9.0,,,,,,,70.0,,,,,,0,note_on,,40.0,70.0,40.0,19151,9.974479166666667
2116,10.0,,,,,,,60.0,,,,,,0,note_on,,127.0,60.0,127.0,6063,3.1578125
2117,10.0,,,,,,,65.0,,,,,,0,note_on,,127.0,65.0,127.0,6063,3.1578125
2118,10.0,,,,,,,56.0,,,,,,0,note_on,,127.0,56.0,127.0,6063,3.1578125
2119,11.0,,,,,,,60.0,,,,,,0,note_on,,127.0,60.0,127.0,13777,7.175520833333334
2120,11.0,,,,,,,56.0,,,,,,0,note_on,,124.0,56.0,124.0,13777,7.175520833333334
2121,11.0,,,,,,,63.0,,,,,,0,note_on,,127.0,63.0,127.0,13777,7.175520833333334
2122,,,,,,,,,,,,,in ,0,lyrics,,,,,1,0.0005208333333333333
2123,3.0,,,,,,,75.0,,,,,,194,note_on,,0.0,75.0,0.0,28264,14.720833333333333
2124,9.0,,,,,,,70.0,,,,,,30,note_on,,0.0,70.0,0.0,19181,9.990104166666667
2125,10.0,,,,,,,65.0,,,,,,160,note_on,,0.0,65.0,0.0,6223,3.2411458333333334
2126,10.0,,,,,,,56.0,,,,,,10,note_on,,0.0,56.0,0.0,6233,3.2463541666666664
2127,10.0,,,,,,,60.0,,,,,,21,note_on,,0.0,60.0,0.0,6254,3.2572916666666667
2128,11.0,,,,,,,56.0,,,,,,46,note_on,,0.0,56.0,0.0,13823,7.199479166666666
2129,3.0,,,,,,,77.0,,,,,,19,note_on,,127.0,77.0,127.0,28283,14.730729166666666
2130,9.0,,,,,,,42.0,,,,,,0,note_on,,85.0,42.0,85.0,19181,9.990104166666667
2131,9.0,,,,,,,70.0,,,,,,0,note_on,,40.0,70.0,40.0,19181,9.990104166666667
2132,9.0,,,,,,,36.0,,,,,,0,note_on,,126.0,36.0,126.0,19181,9.990104166666667
2133,9.0,,,,,,,35.0,,,,,,0,note_on,,60.0,35.0,60.0,19181,9.990104166666667
2134,10.0,,,,,,,60.0,,,,,,0,note_on,,127.0,60.0,127.0,6254,3.2572916666666667
2135,10.0,,,,,,,56.0,,,,,,0,note_on,,124.0,56.0,124.0,6254,3.2572916666666667
2136,10.0,,,,,,,63.0,,,,,,0,note_on,,127.0,63.0,127.0,6254,3.2572916666666667
2137,12.0,,,,,,,60.0,,,,,,0,note_on,,127.0,60.0,127.0,9505,4.950520833333333
2138,12.0,,,,,,,65.0,,,,,,0,note_on,,127.0,65.0,127.0,9505,4.950520833333333
2139,12.0,,,,,,,56.0,,,,,,0,note_on,,127.0,56.0,127.0,9505,4.950520833333333
2140,,,,,,,,,,,,,my ,0,lyrics,,,,,1,0.0005208333333333333
2141,11.0,,,,,,,63.0,,,,,,14,note_on,,0.0,63.0,0.0,13837,7.206770833333334
2142,11.0,,,,,,,60.0,,,,,,6,note_on,,0.0,60.0,0.0,13843,7.209895833333333
2143,9.0,,,,,,,35.0,,,,,,152,note_on,,0.0,35.0,0.0,19333,10.069270833333333
2144,9.0,,,,,,,36.0,,,,,,0,note_on,,0.0,36.0,0.0,19333,10.069270833333333
2145,9.0,,,,,,,42.0,,,,,,52,note_on,,0.0,42.0,0.0,19385,10.096354166666666
2146,9.0,,,,,,,70.0,,,,,,0,note_on,,0.0,70.0,0.0,19385,10.096354166666666
2147,12.0,,,,,,,65.0,,,,,,160,note_on,,0.0,65.0,0.0,9665,5.033854166666667
2148,12.0,,,,,,,56.0,,,,,,10,note_on,,0.0,56.0,0.0,9675,5.0390625
2149,12.0,,,,,,,60.0,,,,,,21,note_on,,0.0,60.0,0.0,9696,5.05
2150,10.0,,,,,,,56.0,,,,,,46,note_on,,0.0,56.0,0.0,6300,3.28125
2151,9.0,,,,,,,70.0,,,,,,19,note_on,,40.0,70.0,40.0,19404,10.10625
2152,12.0,,,,,,,60.0,,,,,,0,note_on,,127.0,60.0,127.0,9696,5.05
2153,12.0,,,,,,,56.0,,,,,,0,note_on,,124.0,56.0,124.0,9696,5.05
2154,12.0,,,,,,,63.0,,,,,,0,note_on,,127.0,63.0,127.0,9696,5.05
2155,10.0,,,,,,,63.0,,,,,,14,note_on,,0.0,63.0,0.0,6314,3.2885416666666667
2156,10.0,,,,,,,60.0,,,,,,6,note_on,,0.0,60.0,0.0,6320,3.2916666666666665
2157,9.0,,,,,,,70.0,,,,,,204,note_on,,0.0,70.0,0.0,19608,10.2125
2158,9.0,,,,,,,36.0,,,,,,16,note_on,,126.0,36.0,126.0,19624,10.220833333333333
2159,9.0,,,,,,,35.0,,,,,,0,note_on,,60.0,35.0,60.0,19624,10.220833333333333
2160,12.0,,,,,,,56.0,,,,,,221,note_on,,0.0,56.0,0.0,9917,5.165104166666667
2161,9.0,,,,,,,36.0,,,,,,3,note_on,,0.0,36.0,0.0,19627,10.222395833333334
2162,9.0,,,,,,,35.0,,,,,,0,note_on,,0.0,35.0,0.0,19627,10.222395833333334
2163,3.0,,,,,,,77.0,,,,,,16,note_on,,0.0,77.0,0.0,28299,14.7390625
2164,3.0,,,,,,,75.0,,,,,,0,note_on,,100.0,75.0,100.0,28299,14.7390625
2165,9.0,,,,,,,42.0,,,,,,0,note_on,,85.0,42.0,85.0,19627,10.222395833333334
2166,9.0,,,,,,,70.0,,,,,,0,note_on,,40.0,70.0,40.0,19627,10.222395833333334
2167,9.0,,,,,,,39.0,,,,,,0,note_on,,125.0,39.0,125.0,19627,10.222395833333334
2168,9.0,,,,,,,28.0,,,,,,0,note_on,,127.0,28.0,127.0,19627,10.222395833333334
2169,,,,,,,,,,,,,eyes ,0,lyrics,,,,,1,0.0005208333333333333
2170,12.0,,,,,,,63.0,,,,,,14,note_on,,0.0,63.0,0.0,9931,5.172395833333333
2171,12.0,,,,,,,60.0,,,,,,6,note_on,,0.0,60.0,0.0,9937,5.175520833333334
2172,9.0,,,,,,,28.0,,,,,,97,note_on,,0.0,28.0,0.0,19724,10.272916666666667
2173,9.0,,,,,,,39.0,,,,,,34,note_on,,0.0,39.0,0.0,19758,10.290625
2174,9.0,,,,,,,42.0,,,,,,73,note_on,,0.0,42.0,0.0,19831,10.328645833333333
2175,9.0,,,,,,,70.0,,,,,,0,note_on,,0.0,70.0,0.0,19831,10.328645833333333
2176,6.0,,,,,,,72.0,,,,,,256,note_on,,127.0,72.0,127.0,7688,4.004166666666666
2177,6.0,,,,,,,75.0,,,,,,0,note_on,,127.0,75.0,127.0,7688,4.004166666666666
2178,6.0,,,,,,,68.0,,,,,,0,note_on,,127.0,68.0,127.0,7688,4.004166666666666
2179,9.0,,,,,,,46.0,,,,,,0,note_on,,100.0,46.0,100.0,19831,10.328645833333333
2180,9.0,,,,,,,70.0,,,,,,0,note_on,,40.0,70.0,40.0,19831,10.328645833333333
2181,9.0,,,,,,,36.0,,,,,,0,note_on,,126.0,36.0,126.0,19831,10.328645833333333
2182,9.0,,,,,,,35.0,,,,,,0,note_on,,60.0,35.0,60.0,19831,10.328645833333333
2183,9.0,,,,,,,35.0,,,,,,166,note_on,,0.0,35.0,0.0,19997,10.415104166666666
2184,9.0,,,,,,,36.0,,,,,,0,note_on,,0.0,36.0,0.0,19997,10.415104166666666
2185,9.0,,,,,,,46.0,,,,,,58,note_on,,0.0,46.0,0.0,20055,10.4453125
2186,9.0,,,,,,,70.0,,,,,,0,note_on,,0.0,70.0,0.0,20055,10.4453125
2187,6.0,,,,,,,,,-413.0,,,,219,pitchwheel,,,,,7907,4.118229166666667
2188,6.0,,,,,,,,,-1005.0,,,,9,pitchwheel,,,,,7916,4.122916666666667
2189,6.0,,,,,,,,,-1623.0,,,,10,pitchwheel,,,,,7926,4.128125
2190,6.0,,,,,,,,,-2293.0,,,,6,pitchwheel,,,,,7932,4.13125
2191,6.0,,,,,,,,,-2808.0,,,,9,pitchwheel,,,,,7941,4.1359375
2192,3.0,,,,,,,75.0,,,,,,3,note_on,,0.0,75.0,0.0,28302,14.740625
2193,9.0,,,,,,,46.0,,,,,,0,note_on,,100.0,46.0,100.0,20055,10.4453125
2194,9.0,,,,,,,70.0,,,,,,0,note_on,,40.0,70.0,40.0,20055,10.4453125
2195,6.0,,,,,,,,,-3427.0,,,,5,pitchwheel,,,,,7946,4.138541666666667
2196,6.0,,,,,,,,,-3916.0,,,,8,pitchwheel,,,,,7954,4.142708333333333
2197,6.0,,,,,,,,,-4354.0,,,,9,pitchwheel,,,,,7963,4.147395833333333
2198,6.0,,,,,,,,,-4792.0,,,,8,pitchwheel,,,,,7971,4.1515625
2199,6.0,,,,,,,,,-5333.0,,,,13,pitchwheel,,,,,7984,4.158333333333333
2200,6.0,,,,,,,,,-5539.0,,,,6,pitchwheel,,,,,7990,4.161458333333333
2201,6.0,,,,,,,,,-5797.0,,,,6,pitchwheel,,,,,7996,4.164583333333333
2202,6.0,,,,,,,,,-6209.0,,,,10,pitchwheel,,,,,8006,4.169791666666667
2203,6.0,,,,,,,,,-6698.0,,,,9,pitchwheel,,,,,8015,4.174479166666667
2204,6.0,,,,,,,,,-6801.0,,,,8,pitchwheel,,,,,8023,4.178645833333333
2205,6.0,,,,,,,,,-6982.0,,,,8,pitchwheel,,,,,8031,4.1828125
2206,6.0,,,,,,,,,-7085.0,,,,9,pitchwheel,,,,,8040,4.1875
2207,6.0,,,,,,,,,-7136.0,,,,8,pitchwheel,,,,,8048,4.191666666666666
2208,6.0,,,,,,,,,-7239.0,,,,8,pitchwheel,,,,,8056,4.195833333333333
2209,6.0,,,,,,,,,-7265.0,,,,9,pitchwheel,,,,,8065,4.200520833333333
2210,6.0,,,,,,,,,-7291.0,,,,10,pitchwheel,,,,,8075,4.205729166666667
2211,6.0,,,,,,,,,-7111.0,,,,10,pitchwheel,,,,,8085,4.2109375
2212,6.0,,,,,,,,,-6982.0,,,,9,pitchwheel,,,,,8094,4.215625
2213,6.0,,,,,,,,,-6879.0,,,,8,pitchwheel,,,,,8102,4.219791666666667
2214,6.0,,,,,,,,,-6544.0,,,,8,pitchwheel,,,,,8110,4.223958333333333
2215,6.0,,,,,,,,,-5719.0,,,,9,pitchwheel,,,,,8119,4.228645833333333
2216,6.0,,,,,,,,,-3968.0,,,,8,pitchwheel,,,,,8127,4.2328125
2217,6.0,,,,,,,,,-1778.0,,,,8,pitchwheel,,,,,8135,4.236979166666667
2218,6.0,,,,,,,,,0.0,,,,9,pitchwheel,,,,,8144,4.241666666666666
2219,6.0,,,,,,,,,1287.0,,,,10,pitchwheel,,,,,8154,4.246875
2220,9.0,,,,,,,70.0,,,,,,11,note_on,,0.0,70.0,0.0,20066,10.451041666666667
2221,9.0,,,,,,,46.0,,,,,,0,note_on,,0.0,46.0,0.0,20066,10.451041666666667
2222,6.0,,,,,,,,,463.0,,,,4,pitchwheel,,,,,8158,4.248958333333333
2223,6.0,,,,,,,,,0.0,,,,8,pitchwheel,,,,,8166,4.253125
2224,3.0,,,,,,,75.0,,,,,,244,note_on,,127.0,75.0,127.0,28546,14.867708333333333
2225,9.0,,,,,,,70.0,,,,,,0,note_on,,40.0,70.0,40.0,20066,10.451041666666667
2226,9.0,,,,,,,36.0,,,,,,0,note_on,,126.0,36.0,126.0,20066,10.451041666666667
2227,9.0,,,,,,,35.0,,,,,,0,note_on,,60.0,35.0,60.0,20066,10.451041666666667
2228,,,,,,,,,,,,,My ,0,lyrics,,,,,1,0.0005208333333333333
2229,9.0,,,,,,,35.0,,,,,,154,note_on,,0.0,35.0,0.0,20220,10.53125
2230,9.0,,,,,,,36.0,,,,,,0,note_on,,0.0,36.0,0.0,20220,10.53125
2231,9.0,,,,,,,70.0,,,,,,70,note_on,,0.0,70.0,0.0,20290,10.567708333333334
2232,3.0,,,,,,,75.0,,,,,,29,note_on,,0.0,75.0,0.0,28575,14.8828125
2233,3.0,,,,,,,77.0,,,,,,227,note_on,,127.0,77.0,127.0,28802,15.001041666666666
2234,9.0,,,,,,,42.0,,,,,,0,note_on,,85.0,42.0,85.0,20290,10.567708333333334
2235,9.0,,,,,,,70.0,,,,,,0,note_on,,40.0,70.0,40.0,20290,10.567708333333334
2236,9.0,,,,,,,39.0,,,,,,0,note_on,,127.0,39.0,127.0,20290,10.567708333333334
2237,9.0,,,,,,,28.0,,,,,,0,note_on,,127.0,28.0,127.0,20290,10.567708333333334
2238,,,,,,,,,,,,,first ,0,lyrics,,,,,1,0.0005208333333333333
2239,6.0,,,,,,,68.0,,,,,,77,note_on,,0.0,68.0,0.0,8243,4.293229166666666
2240,6.0,,,,,,,72.0,,,,,,14,note_on,,0.0,72.0,0.0,8257,4.300520833333334
2241,6.0,,,,,,,75.0,,,,,,17,note_on,,0.0,75.0,0.0,8274,4.309375
2242,9.0,,,,,,,39.0,,,,,,15,note_on,,0.0,39.0,0.0,20305,10.575520833333334
2243,9.0,,,,,,,28.0,,,,,,2,note_on,,0.0,28.0,0.0,20307,10.5765625
2244,9.0,,,,,,,42.0,,,,,,99,note_on,,0.0,42.0,0.0,20406,10.628125
2245,9.0,,,,,,,70.0,,,,,,0,note_on,,0.0,70.0,0.0,20406,10.628125
2246,9.0,,,,,,,61.0,,,,,,256,note_on,,100.0,61.0,100.0,20662,10.761458333333334
2247,9.0,,,,,,,70.0,,,,,,0,note_on,,40.0,70.0,40.0,20662,10.761458333333334
2248,9.0,,,,,,,61.0,,,,,,114,note_on,,0.0,61.0,0.0,20776,10.820833333333333
2249,9.0,,,,,,,61.0,,,,,,6,note_on,,100.0,61.0,100.0,20782,10.823958333333334
2250,3.0,,,,,,,77.0,,,,,,87,note_on,,0.0,77.0,0.0,28889,15.046354166666667
2251,9.0,,,,,,,70.0,,,,,,17,note_on,,0.0,70.0,0.0,20799,10.8328125
2252,9.0,,,,,,,61.0,,,,,,10,note_on,,0.0,61.0,0.0,20809,10.838020833333333
2253,9.0,,,,,,,61.0,,,,,,6,note_on,,100.0,61.0,100.0,20815,10.841145833333334
2254,9.0,,,,,,,61.0,,,,,,114,note_on,,0.0,61.0,0.0,20929,10.900520833333333
2255,9.0,,,,,,,61.0,,,,,,6,note_on,,100.0,61.0,100.0,20935,10.903645833333334
2256,9.0,,,,,,,61.0,,,,,,114,note_on,,0.0,61.0,0.0,21049,10.963020833333333
2257,3.0,,,,,,,77.0,,,,,,6,note_on,,127.0,77.0,127.0,28895,15.049479166666666
2258,9.0,,,,,,,61.0,,,,,,0,note_on,,100.0,61.0,100.0,21049,10.963020833333333
2259,9.0,,,,,,,42.0,,,,,,0,note_on,,85.0,42.0,85.0,21049,10.963020833333333
2260,9.0,,,,,,,70.0,,,,,,0,note_on,,40.0,70.0,40.0,21049,10.963020833333333
2261,9.0,,,,,,,36.0,,,,,,0,note_on,,126.0,36.0,126.0,21049,10.963020833333333
2262,9.0,,,,,,,35.0,,,,,,0,note_on,,60.0,35.0,60.0,21049,10.963020833333333
2263,11.0,,,,,,,62.0,,,,,,0,note_on,,127.0,62.0,127.0,13843,7.209895833333333
2264,11.0,,,,,,,58.0,,,,,,0,note_on,,127.0,58.0,127.0,13843,7.209895833333333
2265,11.0,,,,,,,65.0,,,,,,0,note_on,,127.0,65.0,127.0,13843,7.209895833333333
2266,,,,,,,,,,,,,love ,0,lyrics,,,,,1,0.0005208333333333333
2267,9.0,,,,,,,61.0,,,,,,114,note_on,,0.0,61.0,0.0,21163,11.022395833333333
2268,9.0,,,,,,,36.0,,,,,,58,note_on,,0.0,36.0,0.0,21221,11.052604166666667
2269,9.0,,,,,,,35.0,,,,,,0,note_on,,0.0,35.0,0.0,21221,11.052604166666667
2270,9.0,,,,,,,70.0,,,,,,52,note_on,,0.0,70.0,0.0,21273,11.0796875
2271,9.0,,,,,,,42.0,,,,,,0,note_on,,0.0,42.0,0.0,21273,11.0796875
2272,11.0,,,,,,,58.0,,,,,,250,note_on,,0.0,58.0,0.0,14093,7.340104166666666
2273,9.0,,,,,,,70.0,,,,,,6,note_on,,40.0,70.0,40.0,21279,11.0828125
2274,10.0,,,,,,,62.0,,,,,,0,note_on,,127.0,62.0,127.0,6320,3.2916666666666665
2275,10.0,,,,,,,58.0,,,,,,0,note_on,,127.0,58.0,127.0,6320,3.2916666666666665
2276,10.0,,,,,,,65.0,,,,,,0,note_on,,127.0,65.0,127.0,6320,3.2916666666666665
2277,11.0,,,,,,,65.0,,,,,,47,note_on,,0.0,65.0,0.0,14140,7.364583333333333
2278,11.0,,,,,,,62.0,,,,,,2,note_on,,0.0,62.0,0.0,14142,7.365625
2279,9.0,,,,,,,70.0,,,,,,175,note_on,,0.0,70.0,0.0,21454,11.173958333333333
2280,9.0,,,,,,,36.0,,,,,,16,note_on,,126.0,36.0,126.0,21470,11.182291666666666
2281,9.0,,,,,,,35.0,,,,,,0,note_on,,60.0,35.0,60.0,21470,11.182291666666666
2282,3.0,,,,,,,77.0,,,,,,26,note_on,,0.0,77.0,0.0,28921,15.063020833333333
2283,9.0,,,,,,,36.0,,,,,,198,note_on,,0.0,36.0,0.0,21668,11.285416666666666
2284,9.0,,,,,,,35.0,,,,,,0,note_on,,0.0,35.0,0.0,21668,11.285416666666666
2285,10.0,,,,,,,58.0,,,,,,10,note_on,,0.0,58.0,0.0,6330,3.296875
2286,3.0,,,,,,,77.0,,,,,,6,note_on,,127.0,77.0,127.0,28927,15.066145833333334
2287,9.0,,,,,,,42.0,,,,,,0,note_on,,85.0,42.0,85.0,21668,11.285416666666666
2288,9.0,,,,,,,70.0,,,,,,0,note_on,,40.0,70.0,40.0,21668,11.285416666666666
2289,9.0,,,,,,,39.0,,,,,,0,note_on,,125.0,39.0,125.0,21668,11.285416666666666
2290,9.0,,,,,,,28.0,,,,,,0,note_on,,127.0,28.0,127.0,21668,11.285416666666666
2291,12.0,,,,,,,62.0,,,,,,0,note_on,,127.0,62.0,127.0,9937,5.175520833333334
2292,12.0,,,,,,,58.0,,,,,,0,note_on,,127.0,58.0,127.0,9937,5.175520833333334
2293,12.0,,,,,,,65.0,,,,,,0,note_on,,127.0,65.0,127.0,9937,5.175520833333334
2294,,,,,,,,,,,,,broke ,0,lyrics,,,,,1,0.0005208333333333333
2295,10.0,,,,,,,65.0,,,,,,47,note_on,,0.0,65.0,0.0,6377,3.3213541666666666
2296,10.0,,,,,,,62.0,,,,,,2,note_on,,0.0,62.0,0.0,6379,3.322395833333333
2297,9.0,,,,,,,28.0,,,,,,68,note_on,,0.0,28.0,0.0,21736,11.320833333333333
2298,9.0,,,,,,,39.0,,,,,,34,note_on,,0.0,39.0,0.0,21770,11.338541666666666
2299,3.0,,,,,,,77.0,,,,,,24,note_on,,0.0,77.0,0.0,28951,15.078645833333333
2300,9.0,,,,,,,42.0,,,,,,49,note_on,,0.0,42.0,0.0,21819,11.3640625
2301,9.0,,,,,,,70.0,,,,,,0,note_on,,0.0,70.0,0.0,21819,11.3640625
2302,12.0,,,,,,,58.0,,,,,,250,note_on,,0.0,58.0,0.0,10187,5.305729166666667
2303,3.0,,,,,,,77.0,,,,,,6,note_on,,127.0,77.0,127.0,28957,15.081770833333334
2304,9.0,,,,,,,70.0,,,,,,0,note_on,,40.0,70.0,40.0,21819,11.3640625
2305,9.0,,,,,,,36.0,,,,,,0,note_on,,126.0,36.0,126.0,21819,11.3640625
2306,9.0,,,,,,,35.0,,,,,,0,note_on,,60.0,35.0,60.0,21819,11.3640625
2307,,,,,,,,,,,,,my ,0,lyrics,,,,,1,0.0005208333333333333
2308,12.0,,,,,,,65.0,,,,,,47,note_on,,0.0,65.0,0.0,10234,5.330208333333333
2309,12.0,,,,,,,62.0,,,,,,2,note_on,,0.0,62.0,0.0,10236,5.33125
2310,9.0,,,,,,,36.0,,,,,,117,note_on,,0.0,36.0,0.0,21936,11.425
2311,9.0,,,,,,,35.0,,,,,,0,note_on,,0.0,35.0,0.0,21936,11.425
2312,3.0,,,,,,,77.0,,,,,,9,note_on,,0.0,77.0,0.0,28966,15.086458333333333
2313,9.0,,,,,,,70.0,,,,,,49,note_on,,0.0,70.0,0.0,21985,11.450520833333334
2314,3.0,,,,,,,77.0,,,,,,256,note_on,,127.0,77.0,127.0,29222,15.219791666666666
2315,6.0,,,,,,,70.0,,,,,,0,note_on,,127.0,70.0,127.0,8274,4.309375
2316,6.0,,,,,,,75.0,,,,,,0,note_on,,127.0,75.0,127.0,8274,4.309375
2317,6.0,,,,,,,65.0,,,,,,0,note_on,,106.0,65.0,106.0,8274,4.309375
2318,9.0,,,,,,,42.0,,,,,,0,note_on,,85.0,42.0,85.0,21985,11.450520833333334
2319,9.0,,,,,,,70.0,,,,,,0,note_on,,40.0,70.0,40.0,21985,11.450520833333334
2320,,,,,,,,,,,,,heart ,0,lyrics,,,,,1,0.0005208333333333333
2321,3.0,,,,,,,77.0,,,,,,182,note_on,,0.0,77.0,0.0,29404,15.314583333333333
2322,9.0,,,,,,,42.0,,,,,,42,note_on,,0.0,42.0,0.0,22027,11.472395833333334
2323,9.0,,,,,,,70.0,,,,,,0,note_on,,0.0,70.0,0.0,22027,11.472395833333334
2324,6.0,,,,,,,65.0,,,,,,38,note_on,,0.0,65.0,0.0,8312,4.329166666666667
2325,6.0,,,,,,,70.0,,,,,,126,note_on,,0.0,70.0,0.0,8438,4.394791666666666
2326,6.0,,,,,,,75.0,,,,,,8,note_on,,0.0,75.0,0.0,8446,4.398958333333333
2327,3.0,,,,,,,77.0,,,,,,84,note_on,,127.0,77.0,127.0,29488,15.358333333333333
2328,9.0,,,,,,,70.0,,,,,,0,note_on,,40.0,70.0,40.0,22027,11.472395833333334
2329,9.0,,,,,,,36.0,,,,,,0,note_on,,126.0,36.0,126.0,22027,11.472395833333334
2330,9.0,,,,,,,35.0,,,,,,0,note_on,,60.0,35.0,60.0,22027,11.472395833333334
2331,,,,,,,,,,,,,for ,0,lyrics,,,,,1,0.0005208333333333333
2332,9.0,,,,,,,35.0,,,,,,154,note_on,,0.0,35.0,0.0,22181,11.552604166666667
2333,9.0,,,,,,,36.0,,,,,,0,note_on,,0.0,36.0,0.0,22181,11.552604166666667
2334,3.0,,,,,,,77.0,,,,,,32,note_on,,0.0,77.0,0.0,29520,15.375
2335,9.0,,,,,,,70.0,,,,,,38,note_on,,0.0,70.0,0.0,22219,11.572395833333333
2336,3.0,,,,,,,77.0,,,,,,256,note_on,,127.0,77.0,127.0,29776,15.508333333333333
2337,9.0,,,,,,,42.0,,,,,,0,note_on,,85.0,42.0,85.0,22219,11.572395833333333
2338,9.0,,,,,,,70.0,,,,,,0,note_on,,40.0,70.0,40.0,22219,11.572395833333333
2339,9.0,,,,,,,39.0,,,,,,0,note_on,,127.0,39.0,127.0,22219,11.572395833333333
2340,9.0,,,,,,,28.0,,,,,,0,note_on,,127.0,28.0,127.0,22219,11.572395833333333
2341,11.0,,,,,,,62.0,,,,,,0,note_on,,127.0,62.0,127.0,14142,7.365625
2342,11.0,,,,,,,67.0,,,,,,0,note_on,,127.0,67.0,127.0,14142,7.365625
2343,11.0,,,,,,,58.0,,,,,,0,note_on,,127.0,58.0,127.0,14142,7.365625
2344,,,,,,,,,,,,,the ,0,lyrics,,,,,1,0.0005208333333333333
2345,9.0,,,,,,,39.0,,,,,,123,note_on,,0.0,39.0,0.0,22342,11.636458333333334
2346,9.0,,,,,,,28.0,,,,,,2,note_on,,0.0,28.0,0.0,22344,11.6375
2347,3.0,,,,,,,77.0,,,,,,61,note_on,,0.0,77.0,0.0,29837,15.540104166666666
2348,9.0,,,,,,,42.0,,,,,,38,note_on,,0.0,42.0,0.0,22382,11.657291666666666
2349,9.0,,,,,,,70.0,,,,,,0,note_on,,0.0,70.0,0.0,22382,11.657291666666666
2350,11.0,,,,,,,67.0,,,,,,143,note_on,,0.0,67.0,0.0,14285,7.440104166666667
2351,11.0,,,,,,,58.0,,,,,,11,note_on,,0.0,58.0,0.0,14296,7.445833333333333
2352,11.0,,,,,,,62.0,,,,,,36,note_on,,0.0,62.0,0.0,14332,7.464583333333334
2353,3.0,,,,,,,79.0,,,,,,66,note_on,,127.0,79.0,127.0,29903,15.574479166666666
2354,9.0,,,,,,,70.0,,,,,,0,note_on,,40.0,70.0,40.0,22382,11.657291666666666
2355,10.0,,,,,,,62.0,,,,,,0,note_on,,127.0,62.0,127.0,6379,3.322395833333333
2356,10.0,,,,,,,67.0,,,,,,0,note_on,,127.0,67.0,127.0,6379,3.322395833333333
2357,10.0,,,,,,,58.0,,,,,,0,note_on,,127.0,58.0,127.0,6379,3.322395833333333
2358,11.0,,,,,,,62.0,,,,,,0,note_on,,127.0,62.0,127.0,14332,7.464583333333334
2359,11.0,,,,,,,58.0,,,,,,0,note_on,,118.0,58.0,118.0,14332,7.464583333333334
2360,11.0,,,,,,,65.0,,,,,,0,note_on,,127.0,65.0,127.0,14332,7.464583333333334
2361,,,,,,,,,,,,,first ,0,lyrics,,,,,1,0.0005208333333333333
2362,9.0,,,,,,,70.0,,,,,,224,note_on,,0.0,70.0,0.0,22606,11.773958333333333
2363,10.0,,,,,,,67.0,,,,,,143,note_on,,0.0,67.0,0.0,6522,3.396875
2364,10.0,,,,,,,58.0,,,,,,11,note_on,,0.0,58.0,0.0,6533,3.4026041666666664
2365,11.0,,,,,,,58.0,,,,,,7,note_on,,0.0,58.0,0.0,14339,7.468229166666666
2366,11.0,,,,,,,65.0,,,,,,23,note_on,,0.0,65.0,0.0,14362,7.480208333333334
2367,10.0,,,,,,,62.0,,,,,,6,note_on,,0.0,62.0,0.0,6539,3.4057291666666667
2368,11.0,,,,,,,62.0,,,,,,13,note_on,,0.0,62.0,0.0,14375,7.486979166666667
2369,9.0,,,,,,,42.0,,,,,,53,note_on,,85.0,42.0,85.0,22659,11.8015625
2370,9.0,,,,,,,70.0,,,,,,0,note_on,,40.0,70.0,40.0,22659,11.8015625
2371,9.0,,,,,,,36.0,,,,,,0,note_on,,126.0,36.0,126.0,22659,11.8015625
2372,9.0,,,,,,,35.0,,,,,,0,note_on,,60.0,35.0,60.0,22659,11.8015625
2373,10.0,,,,,,,62.0,,,,,,0,note_on,,127.0,62.0,127.0,6539,3.4057291666666667
2374,10.0,,,,,,,58.0,,,,,,0,note_on,,118.0,58.0,118.0,6539,3.4057291666666667
2375,10.0,,,,,,,65.0,,,,,,0,note_on,,127.0,65.0,127.0,6539,3.4057291666666667
2376,12.0,,,,,,,62.0,,,,,,0,note_on,,127.0,62.0,127.0,10236,5.33125
2377,12.0,,,,,,,67.0,,,,,,0,note_on,,127.0,67.0,127.0,10236,5.33125
2378,12.0,,,,,,,58.0,,,,,,0,note_on,,127.0,58.0,127.0,10236,5.33125
2379,9.0,,,,,,,35.0,,,,,,172,note_on,,0.0,35.0,0.0,22831,11.891145833333333
2380,9.0,,,,,,,36.0,,,,,,0,note_on,,0.0,36.0,0.0,22831,11.891145833333333
2381,3.0,,,,,,,79.0,,,,,,15,note_on,,0.0,79.0,0.0,29918,15.582291666666666
2382,9.0,,,,,,,42.0,,,,,,37,note_on,,0.0,42.0,0.0,22868,11.910416666666666
2383,9.0,,,,,,,70.0,,,,,,0,note_on,,0.0,70.0,0.0,22868,11.910416666666666
2384,12.0,,,,,,,67.0,,,,,,143,note_on,,0.0,67.0,0.0,10379,5.405729166666666
2385,12.0,,,,,,,58.0,,,,,,11,note_on,,0.0,58.0,0.0,10390,5.411458333333333
2386,10.0,,,,,,,58.0,,,,,,7,note_on,,0.0,58.0,0.0,6546,3.409375
2387,10.0,,,,,,,65.0,,,,,,23,note_on,,0.0,65.0,0.0,6569,3.4213541666666667
2388,12.0,,,,,,,62.0,,,,,,6,note_on,,0.0,62.0,0.0,10396,5.414583333333333
2389,10.0,,,,,,,62.0,,,,,,13,note_on,,0.0,62.0,0.0,6582,3.428125
2390,3.0,,,,,,,77.0,,,,,,53,note_on,,127.0,77.0,127.0,29971,15.609895833333333
2391,9.0,,,,,,,70.0,,,,,,0,note_on,,40.0,70.0,40.0,22868,11.910416666666666
2392,12.0,,,,,,,62.0,,,,,,0,note_on,,127.0,62.0,127.0,10396,5.414583333333333
2393,12.0,,,,,,,58.0,,,,,,0,note_on,,118.0,58.0,118.0,10396,5.414583333333333
2394,12.0,,,,,,,65.0,,,,,,0,note_on,,127.0,65.0,127.0,10396,5.414583333333333
2395,,,,,,,,,,,,,time ,0,lyrics,,,,,1,0.0005208333333333333
2396,9.0,,,,,,,70.0,,,,,,224,note_on,,0.0,70.0,0.0,23092,12.027083333333334
2397,9.0,,,,,,,36.0,,,,,,16,note_on,,126.0,36.0,126.0,23108,12.035416666666666
2398,9.0,,,,,,,35.0,,,,,,0,note_on,,60.0,35.0,60.0,23108,12.035416666666666
2399,12.0,,,,,,,58.0,,,,,,145,note_on,,0.0,58.0,0.0,10541,5.490104166666667
2400,12.0,,,,,,,65.0,,,,,,23,note_on,,0.0,65.0,0.0,10564,5.502083333333333
2401,12.0,,,,,,,62.0,,,,,,19,note_on,,0.0,62.0,0.0,10583,5.511979166666666
2402,9.0,,,,,,,35.0,,,,,,37,note_on,,0.0,35.0,0.0,23145,12.0546875
2403,9.0,,,,,,,36.0,,,,,,0,note_on,,0.0,36.0,0.0,23145,12.0546875
2404,9.0,,,,,,,42.0,,,,,,16,note_on,,85.0,42.0,85.0,23161,12.063020833333333
2405,9.0,,,,,,,70.0,,,,,,0,note_on,,40.0,70.0,40.0,23161,12.063020833333333
2406,9.0,,,,,,,39.0,,,,,,0,note_on,,125.0,39.0,125.0,23161,12.063020833333333
2407,9.0,,,,,,,28.0,,,,,,0,note_on,,127.0,28.0,127.0,23161,12.063020833333333
2408,11.0,,,,,,,63.0,,,,,,0,note_on,,100.0,63.0,100.0,14375,7.486979166666667
2409,11.0,,,,,,,56.0,,,,,,0,note_on,,127.0,56.0,127.0,14375,7.486979166666667
2410,11.0,,,,,,,62.0,,,,,,0,note_on,,126.0,62.0,126.0,14375,7.486979166666667
2411,11.0,,,,,,,53.0,,,,,,0,note_on,,127.0,53.0,127.0,14375,7.486979166666667
2412,11.0,,,,,,,58.0,,,,,,0,note_on,,127.0,58.0,127.0,14375,7.486979166666667
2413,9.0,,,,,,,28.0,,,,,,117,note_on,,0.0,28.0,0.0,23278,12.123958333333333
2414,9.0,,,,,,,39.0,,,,,,34,note_on,,0.0,39.0,0.0,23312,12.141666666666666
2415,9.0,,,,,,,70.0,,,,,,73,note_on,,0.0,70.0,0.0,23385,12.1796875
2416,9.0,,,,,,,42.0,,,,,,0,note_on,,0.0,42.0,0.0,23385,12.1796875
2417,3.0,,,,,,,77.0,,,,,,256,note_on,,0.0,77.0,0.0,30227,15.743229166666666
2418,3.0,,,,,,,75.0,,,,,,0,note_on,,127.0,75.0,127.0,30227,15.743229166666666
2419,6.0,,,,,,,70.0,,,,,,0,note_on,,127.0,70.0,127.0,8446,4.398958333333333
2420,6.0,,,,,,,75.0,,,,,,0,note_on,,127.0,75.0,127.0,8446,4.398958333333333
2421,6.0,,,,,,,65.0,,,,,,0,note_on,,91.0,65.0,91.0,8446,4.398958333333333
2422,9.0,,,,,,,70.0,,,,,,0,note_on,,40.0,70.0,40.0,23385,12.1796875
2423,9.0,,,,,,,36.0,,,,,,0,note_on,,126.0,36.0,126.0,23385,12.1796875
2424,9.0,,,,,,,35.0,,,,,,0,note_on,,60.0,35.0,60.0,23385,12.1796875
2425,10.0,,,,,,,63.0,,,,,,0,note_on,,100.0,63.0,100.0,6582,3.428125
2426,10.0,,,,,,,56.0,,,,,,0,note_on,,127.0,56.0,127.0,6582,3.428125
2427,10.0,,,,,,,62.0,,,,,,0,note_on,,126.0,62.0,126.0,6582,3.428125
2428,10.0,,,,,,,53.0,,,,,,0,note_on,,127.0,53.0,127.0,6582,3.428125
2429,10.0,,,,,,,58.0,,,,,,0,note_on,,127.0,58.0,127.0,6582,3.428125
2430,,,,,,,,,,,,,And ,0,lyrics,,,,,1,0.0005208333333333333
2431,3.0,,,,,,,75.0,,,,,,156,note_on,,0.0,75.0,0.0,30383,15.824479166666666
2432,9.0,,,,,,,36.0,,,,,,10,note_on,,0.0,36.0,0.0,23395,12.184895833333334
2433,9.0,,,,,,,35.0,,,,,,0,note_on,,0.0,35.0,0.0,23395,12.184895833333334
2434,9.0,,,,,,,70.0,,,,,,58,note_on,,0.0,70.0,0.0,23453,12.215104166666666
2435,6.0,,,,,,,,,-387.0,,,,192,pitchwheel,,,,,8638,4.498958333333333
2436,6.0,,,,,,,,,-1057.0,,,,8,pitchwheel,,,,,8646,4.503125
2437,6.0,,,,,,,,,-1572.0,,,,9,pitchwheel,,,,,8655,4.5078125
2438,6.0,,,,,,,,,-2036.0,,,,8,pitchwheel,,,,,8663,4.511979166666666
2439,6.0,,,,,,,,,-2705.0,,,,8,pitchwheel,,,,,8671,4.516145833333333
2440,6.0,,,,,,,,,-3401.0,,,,9,pitchwheel,,,,,8680,4.520833333333333
2441,6.0,,,,,,,,,-3762.0,,,,8,pitchwheel,,,,,8688,4.525
2442,6.0,,,,,,,,,-4303.0,,,,8,pitchwheel,,,,,8696,4.529166666666667
2443,3.0,,,,,,,75.0,,,,,,6,note_on,,127.0,75.0,127.0,30389,15.827604166666667
2444,9.0,,,,,,,70.0,,,,,,0,note_on,,40.0,70.0,40.0,23453,12.215104166666666
2445,12.0,,,,,,,63.0,,,,,,0,note_on,,100.0,63.0,100.0,10583,5.511979166666666
2446,12.0,,,,,,,56.0,,,,,,0,note_on,,127.0,56.0,127.0,10583,5.511979166666666
2447,12.0,,,,,,,62.0,,,,,,0,note_on,,126.0,62.0,126.0,10583,5.511979166666666
2448,12.0,,,,,,,53.0,,,,,,0,note_on,,127.0,53.0,127.0,10583,5.511979166666666
2449,12.0,,,,,,,58.0,,,,,,0,note_on,,127.0,58.0,127.0,10583,5.511979166666666
2450,,,,,,,,,,,,,I ,0,lyrics,,,,,1,0.0005208333333333333
2451,6.0,,,,,,,,,-5075.0,,,,3,pitchwheel,,,,,8699,4.530729166666666
2452,6.0,,,,,,,,,-5591.0,,,,8,pitchwheel,,,,,8707,4.534895833333334
2453,6.0,,,,,,,,,-5951.0,,,,8,pitchwheel,,,,,8715,4.5390625
2454,6.0,,,,,,,,,-6647.0,,,,11,pitchwheel,,,,,8726,4.544791666666667
2455,6.0,,,,,,,,,-6904.0,,,,6,pitchwheel,,,,,8732,4.547916666666667
2456,6.0,,,,,,,,,-7188.0,,,,8,pitchwheel,,,,,8740,4.552083333333333
2457,6.0,,,,,,,,,-7626.0,,,,11,pitchwheel,,,,,8751,4.5578125
2458,6.0,,,,,,,,,-7729.0,,,,10,pitchwheel,,,,,8761,4.563020833333333
2459,6.0,,,,,,,,,-7909.0,,,,6,pitchwheel,,,,,8767,4.566145833333334
2460,6.0,,,,,,,,,-8038.0,,,,9,pitchwheel,,,,,8776,4.570833333333333
2461,6.0,,,,,,,,,-8167.0,,,,6,pitchwheel,,,,,8782,4.573958333333334
2462,6.0,,,,,,,,,-8192.0,,,,8,pitchwheel,,,,,8790,4.578125
2463,6.0,,,,,,,,,-8089.0,,,,33,pitchwheel,,,,,8823,4.5953125
2464,6.0,,,,,,,,,-7780.0,,,,11,pitchwheel,,,,,8834,4.601041666666666
2465,6.0,,,,,,,,,-7548.0,,,,10,pitchwheel,,,,,8844,4.60625
2466,6.0,,,,,,,,,-7111.0,,,,9,pitchwheel,,,,,8853,4.6109375
2467,6.0,,,,,,,,,-6570.0,,,,6,pitchwheel,,,,,8859,4.6140625
2468,6.0,,,,,,,,,-5848.0,,,,8,pitchwheel,,,,,8867,4.618229166666667
2469,6.0,,,,,,,,,-3968.0,,,,10,pitchwheel,,,,,8877,4.6234375
2470,6.0,,,,,,,,,-1752.0,,,,8,pitchwheel,,,,,8885,4.627604166666667
2471,3.0,,,,,,,75.0,,,,,,1,note_on,,0.0,75.0,0.0,30390,15.828125
2472,6.0,,,,,,,,,0.0,,,,9,pitchwheel,,,,,8894,4.632291666666666
2473,6.0,,,,,,,,,1416.0,,,,9,pitchwheel,,,,,8903,4.636979166666666
2474,6.0,,,,,,,,,1159.0,,,,8,pitchwheel,,,,,8911,4.641145833333333
2475,9.0,,,,,,,70.0,,,,,,8,note_on,,0.0,70.0,0.0,23461,12.219270833333333
2476,6.0,,,,,,,,,77.0,,,,0,pitchwheel,,,,,8911,4.641145833333333
2477,6.0,,,,,,,,,0.0,,,,11,pitchwheel,,,,,8922,4.646875
2478,1.0,,0.0,,,,,,,,,,,243,control_change,121.0,,,,243,0.1265625
2479,1.0,,0.0,,,,,,,,,,,0,control_change,121.0,,,,243,0.1265625
2480,1.0,,32.0,,,,,,,,,,,1,control_change,0.0,,,,244,0.12708333333333333
2481,1.0,,32.0,,,,,,,,,,,0,control_change,0.0,,,,244,0.12708333333333333
2482,11.0,,,,,,,63.0,,,,,,1,note_on,,0.0,63.0,0.0,14376,7.4875
2483,1.0,,,,,,,,,,35.0,,,0,program_change,,,,,244,0.12708333333333333
2484,1.0,,,,,,,19.0,,,,,,0,note_on,,126.0,19.0,126.0,244,0.12708333333333333
2485,3.0,,,,,,,77.0,,,,,,0,note_on,,127.0,77.0,127.0,30390,15.828125
2486,9.0,,,,,,,70.0,,,,,,0,note_on,,40.0,70.0,40.0,23461,12.219270833333333
2487,11.0,,,,,,,63.0,,,,,,0,note_on,,127.0,63.0,127.0,14376,7.4875
2488,,,,,,,,,,,,,was ,0,lyrics,,,,,2,0.0010416666666666667
2489,6.0,,,,,,,65.0,,,,,,115,note_on,,0.0,65.0,0.0,9037,4.706770833333334
2490,3.0,,,,,,,77.0,,,,,,61,note_on,,0.0,77.0,0.0,30451,15.859895833333333
2491,9.0,,,,,,,70.0,,,,,,48,note_on,,0.0,70.0,0.0,23509,12.244270833333333
2492,1.0,,,,,,,20.0,,,,,,16,note_on,,127.0,20.0,127.0,260,0.13541666666666666
2493,1.0,,,,,,,19.0,,,,,,144,note_on,,0.0,19.0,0.0,404,0.21041666666666667
2494,6.0,,,,,,,70.0,,,,,,88,note_on,,0.0,70.0,0.0,9125,4.752604166666667
2495,10.0,,,,,,,63.0,,,,,,8,note_on,,0.0,63.0,0.0,6590,3.4322916666666665
2496,1.0,,,,,,,22.0,,,,,,0,note_on,,127.0,22.0,127.0,404,0.21041666666666667
2497,3.0,,,,,,,75.0,,,,,,0,note_on,,127.0,75.0,127.0,30451,15.859895833333333
2498,9.0,,,,,,,42.0,,,,,,0,note_on,,85.0,42.0,85.0,23509,12.244270833333333
2499,9.0,,,,,,,70.0,,,,,,0,note_on,,40.0,70.0,40.0,23509,12.244270833333333
2500,9.0,,,,,,,39.0,,,,,,0,note_on,,127.0,39.0,127.0,23509,12.244270833333333
2501,9.0,,,,,,,28.0,,,,,,0,note_on,,127.0,28.0,127.0,23509,12.244270833333333
2502,10.0,,,,,,,63.0,,,,,,0,note_on,,127.0,63.0,127.0,6590,3.4322916666666665
2503,,,,,,,,,,,,,like ,0,lyrics,,,,,2,0.0010416666666666667
2504,6.0,,,,,,,75.0,,,,,,4,note_on,,0.0,75.0,0.0,9129,4.7546875
2505,1.0,,,,,,,20.0,,,,,,71,note_on,,0.0,20.0,0.0,475,0.24739583333333334
2506,9.0,,,,,,,39.0,,,,,,48,note_on,,0.0,39.0,0.0,23557,12.269270833333334
2507,9.0,,,,,,,28.0,,,,,,2,note_on,,0.0,28.0,0.0,23559,12.2703125
2508,1.0,,,,,,,,,-284.0,,,,41,pitchwheel,,,,,516,0.26875
2509,1.0,,,,,,,,,-773.0,,,,8,pitchwheel,,,,,524,0.27291666666666664
2510,1.0,,,,,,,,,-1340.0,,,,8,pitchwheel,,,,,532,0.27708333333333335
2511,1.0,,,,,,,,,-1907.0,,,,9,pitchwheel,,,,,541,0.2817708333333333
2512,1.0,,,,,,,,,-2396.0,,,,8,pitchwheel,,,,,549,0.2859375
2513,1.0,,,,,,,,,-2989.0,,,,6,pitchwheel,,,,,555,0.2890625
2514,1.0,,,,,,,,,-3556.0,,,,9,pitchwheel,,,,,564,0.29375
2515,9.0,,,,,,,42.0,,,,,,10,note_on,,0.0,42.0,0.0,23569,12.275520833333333
2516,9.0,,,,,,,70.0,,,,,,0,note_on,,0.0,70.0,0.0,23569,12.275520833333333
2517,1.0,,,,,,,,,-3890.0,,,,4,pitchwheel,,,,,568,0.29583333333333334
2518,1.0,,,,,,,,,-4715.0,,,,4,pitchwheel,,,,,572,0.29791666666666666
2519,1.0,,,,,,,,,-5539.0,,,,6,pitchwheel,,,,,578,0.30104166666666665
2520,1.0,,,,,,,,,-5900.0,,,,11,pitchwheel,,,,,589,0.3067708333333333
2521,1.0,,,,,,,,,-6673.0,,,,8,pitchwheel,,,,,597,0.3109375
2522,1.0,,,,,,,,,-7111.0,,,,6,pitchwheel,,,,,603,0.3140625
2523,1.0,,,,,,,,,-7806.0,,,,9,pitchwheel,,,,,612,0.31875
2524,1.0,,,,,,,,,-8115.0,,,,10,pitchwheel,,,,,622,0.32395833333333335
2525,1.0,,,,,,,,,-8192.0,,,,8,pitchwheel,,,,,630,0.328125
2526,1.0,,,,,,,,,-8141.0,,,,166,pitchwheel,,,,,796,0.4145833333333333
2527,1.0,,,,,,,,,-8038.0,,,,12,pitchwheel,,,,,808,0.42083333333333334
2528,12.0,,,,,,,63.0,,,,,,12,note_on,,0.0,63.0,0.0,10595,5.518229166666667
2529,9.0,,,,,,,70.0,,,,,,0,note_on,,40.0,70.0,40.0,23569,12.275520833333333
2530,12.0,,,,,,,63.0,,,,,,0,note_on,,127.0,63.0,127.0,10595,5.518229166666667
2531,1.0,,,,,,,,,-8064.0,,,,13,pitchwheel,,,,,821,0.4276041666666667
2532,1.0,,,,,,,,,-8115.0,,,,13,pitchwheel,,,,,834,0.434375
2533,1.0,,,,,,,,,-8038.0,,,,41,pitchwheel,,,,,875,0.4557291666666667
2534,1.0,,,,,,,,,-7986.0,,,,9,pitchwheel,,,,,884,0.46041666666666664
2535,1.0,,,,,,,,,-7883.0,,,,8,pitchwheel,,,,,892,0.46458333333333335
2536,1.0,,,,,,,,,-7780.0,,,,10,pitchwheel,,,,,902,0.46979166666666666
2537,1.0,,,,,,,,,-7677.0,,,,11,pitchwheel,,,,,913,0.47552083333333334
2538,1.0,,,,,,,,,-7420.0,,,,10,pitchwheel,,,,,923,0.48072916666666665
2539,1.0,,,,,,,,,-7317.0,,,,8,pitchwheel,,,,,931,0.4848958333333333
2540,1.0,,,,,,,,,-7033.0,,,,9,pitchwheel,,,,,940,0.4895833333333333
2541,1.0,,,,,,,,,-6879.0,,,,8,pitchwheel,,,,,948,0.49374999999999997
2542,3.0,,,,,,,75.0,,,,,,7,note_on,,0.0,75.0,0.0,30458,15.863541666666666
2543,1.0,,,,,,,,,-6673.0,,,,3,pitchwheel,,,,,951,0.4953125
2544,1.0,,,,,,,,,-6235.0,,,,9,pitchwheel,,,,,960,0.5
2545,1.0,,,,,,,,,-6029.0,,,,10,pitchwheel,,,,,970,0.5052083333333334
2546,1.0,,,,,,,,,-5642.0,,,,8,pitchwheel,,,,,978,0.509375
2547,1.0,,,,,,,,,-5256.0,,,,9,pitchwheel,,,,,987,0.5140625
2548,1.0,,,,,,,,,-4844.0,,,,6,pitchwheel,,,,,993,0.5171875
2549,1.0,,,,,,,,,-4431.0,,,,8,pitchwheel,,,,,1001,0.5213541666666667
2550,1.0,,,,,,,,,-3556.0,,,,11,pitchwheel,,,,,1012,0.5270833333333333
2551,1.0,,,,,,,,,-2474.0,,,,8,pitchwheel,,,,,1020,0.53125
2552,9.0,,,,,,,70.0,,,,,,5,note_on,,0.0,70.0,0.0,23574,12.278125
2553,1.0,,,,,,,,,-593.0,,,,3,pitchwheel,,,,,1023,0.5328125
2554,11.0,,,,,,,56.0,,,,,,6,note_on,,0.0,56.0,0.0,14382,7.490625
2555,1.0,,,,,,,,,25.0,,,,3,pitchwheel,,,,,1026,0.534375
2556,11.0,,,,,,,62.0,,,,,,1,note_on,,0.0,62.0,0.0,14383,7.491145833333333
2557,1.0,,,,,,,,,721.0,,,,7,pitchwheel,,,,,1033,0.5380208333333333
2558,1.0,,,,,,,,,283.0,,,,8,pitchwheel,,,,,1041,0.5421875
2559,1.0,,,,,,,,,0.0,,,,9,pitchwheel,,,,,1050,0.546875
2560,1.0,,,,,,,22.0,,,,,,167,note_on,,0.0,22.0,0.0,1217,0.6338541666666666
2561,11.0,,,,,,,53.0,,,,,,10,note_on,,0.0,53.0,0.0,14393,7.496354166666666
2562,11.0,,,,,,,58.0,,,,,,31,note_on,,0.0,58.0,0.0,14424,7.5125
2563,5.0,,0.0,,,,,,,,,,,7,control_change,121.0,,,,8,0.004166666666666667
2564,5.0,,0.0,,,,,,,,,,,0,control_change,121.0,,,,8,0.004166666666666667
2565,5.0,,32.0,,,,,,,,,,,1,control_change,0.0,,,,9,0.0046875
2566,5.0,,32.0,,,,,,,,,,,0,control_change,0.0,,,,9,0.0046875
2567,5.0,,,,,,,,,,50.0,,,1,program_change,,,,,10,0.005208333333333333
2568,5.0,,,,,,,58.0,,,,,,0,note_on,,73.0,58.0,73.0,10,0.005208333333333333
2569,7.0,,0.0,,,,,,,,,,,0,control_change,121.0,,,,0,0.0
2570,7.0,,0.0,,,,,,,,,,,0,control_change,121.0,,,,0,0.0
2571,8.0,,0.0,,,,,,,,,,,0,control_change,121.0,,,,0,0.0
2572,8.0,,0.0,,,,,,,,,,,0,control_change,121.0,,,,0,0.0
2573,11.0,,0.0,,,,,,,,,,,0,control_change,121.0,,,,14424,7.5125
2574,11.0,,0.0,,,,,,,,,,,0,control_change,121.0,,,,14424,7.5125
2575,7.0,,32.0,,,,,,,,,,,1,control_change,0.0,,,,1,0.0005208333333333333
2576,8.0,,32.0,,,,,,,,,,,0,control_change,0.0,,,,0,0.0
2577,7.0,,32.0,,,,,,,,,,,0,control_change,0.0,,,,1,0.0005208333333333333
2578,11.0,,32.0,,,,,,,,,,,0,control_change,0.0,,,,14424,7.5125
2579,8.0,,32.0,,,,,,,,,,,0,control_change,0.0,,,,0,0.0
2580,11.0,,32.0,,,,,,,,,,,0,control_change,0.0,,,,14424,7.5125
2581,1.0,,,,,,,27.0,,,,,,1,note_on,,127.0,27.0,127.0,1218,0.634375
2582,3.0,,,,,,,79.0,,,,,,0,note_on,,127.0,79.0,127.0,30458,15.863541666666666
2583,8.0,,,,,,,87.0,,,,,,0,note_on,,45.0,87.0,45.0,0,0.0
2584,7.0,,,,,,,,,,90.0,,,0,program_change,,,,,1,0.0005208333333333333
2585,7.0,,,,,,,82.0,,,,,,0,note_on,,127.0,82.0,127.0,1,0.0005208333333333333
2586,8.0,,,,,,,,,,90.0,,,0,program_change,,,,,0,0.0
2587,9.0,,,,,,,57.0,,,,,,0,note_on,,100.0,57.0,100.0,23574,12.278125
2588,9.0,,,,,,,42.0,,,,,,0,note_on,,85.0,42.0,85.0,23574,12.278125
2589,9.0,,,,,,,70.0,,,,,,0,note_on,,40.0,70.0,40.0,23574,12.278125
2590,9.0,,,,,,,36.0,,,,,,0,note_on,,126.0,36.0,126.0,23574,12.278125
2591,9.0,,,,,,,35.0,,,,,,0,note_on,,60.0,35.0,60.0,23574,12.278125
2592,11.0,,,,,,,67.0,,,,,,0,note_on,,127.0,67.0,127.0,14424,7.5125
2593,11.0,,,,,,,63.0,,,,,,0,note_on,,127.0,63.0,127.0,14424,7.5125
2594,11.0,,,,,,,70.0,,,,,,0,note_on,,126.0,70.0,126.0,14424,7.5125
2595,8.0,,,,,,,70.0,,,,,,0,note_on,,127.0,70.0,127.0,0,0.0
2596,8.0,,,,,,,39.0,,,,,,0,note_on,,115.0,39.0,115.0,0,0.0
2597,11.0,,,,,,,,,,24.0,,,0,program_change,,,,,14424,7.5125
2598,,,,,,,,,,,,,Ba ,0,lyrics,,,,,2,0.0010416666666666667
2599,11.0,,,,,,,63.0,,,,,,15,note_on,,0.0,63.0,0.0,14439,7.5203125
2600,5.0,,,,,,,55.0,,,,,,0,note_on,,52.0,55.0,52.0,10,0.005208333333333333
2601,5.0,,,,,,,63.0,,,,,,0,note_on,,77.0,63.0,77.0,10,0.005208333333333333
2602,9.0,,,,,,,57.0,,,,,,99,note_on,,0.0,57.0,0.0,23673,12.3296875
2603,8.0,,,,,,,87.0,,,,,,8,note_on,,0.0,87.0,0.0,8,0.004166666666666667
2604,9.0,,,,,,,35.0,,,,,,50,note_on,,0.0,35.0,0.0,23723,12.355729166666666
2605,9.0,,,,,,,36.0,,,,,,0,note_on,,0.0,36.0,0.0,23723,12.355729166666666
2606,9.0,,,,,,,70.0,,,,,,52,note_on,,0.0,70.0,0.0,23775,12.3828125
2607,9.0,,,,,,,42.0,,,,,,0,note_on,,0.0,42.0,0.0,23775,12.3828125
2608,10.0,,,,,,,56.0,,,,,,9,note_on,,0.0,56.0,0.0,6599,3.4369791666666667
2609,10.0,,,,,,,62.0,,,,,,4,note_on,,0.0,62.0,0.0,6603,3.4390625
2610,9.0,,,,,,,44.0,,,,,,3,note_on,,75.0,44.0,75.0,23778,12.384375
2611,11.0,,,,,,,63.0,,,,,,157,note_on,,0.0,63.0,0.0,14596,7.602083333333333
2612,11.0,,,,,,,67.0,,,,,,10,note_on,,0.0,67.0,0.0,14606,7.607291666666667
2613,10.0,,,,,,,53.0,,,,,,31,note_on,,0.0,53.0,0.0,6634,3.455208333333333
2614,11.0,,,,,,,70.0,,,,,,21,note_on,,0.0,70.0,0.0,14627,7.618229166666667
2615,10.0,,,,,,,58.0,,,,,,10,note_on,,0.0,58.0,0.0,6644,3.4604166666666667
2616,7.0,,,,,,,82.0,,,,,,3,note_on,,0.0,82.0,0.0,4,0.0020833333333333333
2617,8.0,,,,,,,70.0,,,,,,0,note_on,,0.0,70.0,0.0,8,0.004166666666666667
2618,10.0,,0.0,,,,,,,,,,,6,control_change,121.0,,,,6650,3.4635416666666665
2619,10.0,,0.0,,,,,,,,,,,0,control_change,121.0,,,,6650,3.4635416666666665
2620,10.0,,32.0,,,,,,,,,,,1,control_change,0.0,,,,6651,3.4640625
2621,10.0,,32.0,,,,,,,,,,,0,control_change,0.0,,,,6651,3.4640625
2622,9.0,,,,,,,70.0,,,,,,1,note_on,,40.0,70.0,40.0,23779,12.384895833333333
2623,10.0,,,,,,,67.0,,,,,,0,note_on,,127.0,67.0,127.0,6651,3.4640625
2624,10.0,,,,,,,63.0,,,,,,0,note_on,,127.0,63.0,127.0,6651,3.4640625
2625,10.0,,,,,,,70.0,,,,,,0,note_on,,126.0,70.0,126.0,6651,3.4640625
2626,8.0,,,,,,,87.0,,,,,,0,note_on,,45.0,87.0,45.0,8,0.004166666666666667
2627,9.0,,,,,,,42.0,,,,,,0,note_on,,85.0,42.0,85.0,23779,12.384895833333333
2628,10.0,,,,,,,,,,24.0,,,0,program_change,,,,,6651,3.4640625
2629,10.0,,,,,,,63.0,,,,,,15,note_on,,0.0,63.0,0.0,6666,3.471875
2630,8.0,,,,,,,87.0,,,,,,106,note_on,,0.0,87.0,0.0,114,0.059375
2631,3.0,,,,,,,79.0,,,,,,39,note_on,,0.0,79.0,0.0,30497,15.883854166666666
2632,9.0,,,,,,,70.0,,,,,,64,note_on,,0.0,70.0,0.0,23843,12.418229166666666
2633,12.0,,,,,,,56.0,,,,,,9,note_on,,0.0,56.0,0.0,10604,5.522916666666666
2634,12.0,,,,,,,62.0,,,,,,4,note_on,,0.0,62.0,0.0,10608,5.525
2635,8.0,,,,,,,87.0,,,,,,3,note_on,,45.0,87.0,45.0,117,0.0609375
2636,9.0,,,,,,,44.0,,,,,,0,note_on,,75.0,44.0,75.0,23843,12.418229166666666
2637,9.0,,,,,,,36.0,,,,,,0,note_on,,126.0,36.0,126.0,23843,12.418229166666666
2638,9.0,,,,,,,35.0,,,,,,0,note_on,,60.0,35.0,60.0,23843,12.418229166666666
2639,8.0,,,,,,,87.0,,,,,,102,note_on,,0.0,87.0,0.0,219,0.1140625
2640,10.0,,,,,,,63.0,,,,,,55,note_on,,0.0,63.0,0.0,6721,3.5005208333333333
2641,10.0,,,,,,,67.0,,,,,,10,note_on,,0.0,67.0,0.0,6731,3.505729166666667
2642,12.0,,,,,,,53.0,,,,,,31,note_on,,0.0,53.0,0.0,10639,5.541145833333333
2643,10.0,,,,,,,70.0,,,,,,21,note_on,,0.0,70.0,0.0,6752,3.5166666666666666
2644,9.0,,,,,,,35.0,,,,,,5,note_on,,0.0,35.0,0.0,23848,12.420833333333333
2645,9.0,,,,,,,36.0,,,,,,0,note_on,,0.0,36.0,0.0,23848,12.420833333333333
2646,12.0,,,,,,,58.0,,,,,,5,note_on,,0.0,58.0,0.0,10644,5.54375
2647,12.0,,0.0,,,,,,,,,,,9,control_change,121.0,,,,10653,5.5484375
2648,12.0,,32.0,,,,,,,,,,,1,control_change,0.0,,,,10654,5.548958333333333
2649,3.0,,,,,,,77.0,,,,,,1,note_on,,127.0,77.0,127.0,30498,15.884375
2650,7.0,,,,,,,75.0,,,,,,0,note_on,,127.0,75.0,127.0,4,0.0020833333333333333
2651,8.0,,,,,,,63.0,,,,,,0,note_on,,127.0,63.0,127.0,219,0.1140625
2652,9.0,,,,,,,39.0,,,,,,0,note_on,,125.0,39.0,125.0,23848,12.420833333333333
2653,9.0,,,,,,,28.0,,,,,,0,note_on,,127.0,28.0,127.0,23848,12.420833333333333
2654,9.0,,,,,,,42.0,,,,,,0,note_on,,85.0,42.0,85.0,23848,12.420833333333333
2655,9.0,,,,,,,70.0,,,,,,0,note_on,,40.0,70.0,40.0,23848,12.420833333333333
2656,12.0,,,,,,,67.0,,,,,,0,note_on,,127.0,67.0,127.0,10654,5.548958333333333
2657,12.0,,,,,,,63.0,,,,,,0,note_on,,127.0,63.0,127.0,10654,5.548958333333333
2658,12.0,,,,,,,70.0,,,,,,0,note_on,,126.0,70.0,126.0,10654,5.548958333333333
2659,12.0,,0.0,,,,,,,,,,,0,control_change,121.0,,,,10654,5.548958333333333
2660,12.0,,32.0,,,,,,,,,,,0,control_change,0.0,,,,10654,5.548958333333333
2661,12.0,,,,,,,,,,24.0,,,0,program_change,,,,,10654,5.548958333333333
2662,,,,,,,,,,,,,"by, ",0,lyrics,,,,,2,0.0010416666666666667
2663,12.0,,,,,,,63.0,,,,,,15,note_on,,0.0,63.0,0.0,10669,5.556770833333333
2664,9.0,,,,,,,28.0,,,,,,102,note_on,,0.0,28.0,0.0,23950,12.473958333333334
2665,9.0,,,,,,,39.0,,,,,,34,note_on,,0.0,39.0,0.0,23984,12.491666666666667
2666,9.0,,,,,,,70.0,,,,,,73,note_on,,0.0,70.0,0.0,24057,12.5296875
2667,9.0,,,,,,,42.0,,,,,,0,note_on,,0.0,42.0,0.0,24057,12.5296875
2668,8.0,,,,,,,87.0,,,,,,16,note_on,,45.0,87.0,45.0,235,0.12239583333333333
2669,9.0,,,,,,,44.0,,,,,,0,note_on,,75.0,44.0,75.0,24057,12.5296875
2670,8.0,,,,,,,87.0,,,,,,114,note_on,,0.0,87.0,0.0,349,0.18177083333333333
2671,12.0,,,,,,,63.0,,,,,,43,note_on,,0.0,63.0,0.0,10712,5.579166666666667
2672,12.0,,,,,,,67.0,,,,,,10,note_on,,0.0,67.0,0.0,10722,5.584375
2673,12.0,,,,,,,70.0,,,,,,52,note_on,,0.0,70.0,0.0,10774,5.611458333333333
2674,9.0,,,,,,,44.0,,,,,,21,note_on,,0.0,44.0,0.0,24078,12.540625
2675,9.0,,,,,,,42.0,,,,,,0,note_on,,85.0,42.0,85.0,24078,12.540625
2676,9.0,,,,,,,70.0,,,,,,0,note_on,,40.0,70.0,40.0,24078,12.540625
2677,9.0,,,,,,,36.0,,,,,,0,note_on,,126.0,36.0,126.0,24078,12.540625
2678,9.0,,,,,,,35.0,,,,,,0,note_on,,60.0,35.0,60.0,24078,12.540625
2679,7.0,,,,,,,75.0,,,,,,9,note_on,,0.0,75.0,0.0,13,0.0067708333333333336
2680,8.0,,,,,,,63.0,,,,,,0,note_on,,0.0,63.0,0.0,349,0.18177083333333333
2681,3.0,,,,,,,77.0,,,,,,96,note_on,,0.0,77.0,0.0,30594,15.934375
2682,9.0,,,,,,,36.0,,,,,,61,note_on,,0.0,36.0,0.0,24139,12.572395833333333
2683,9.0,,,,,,,35.0,,,,,,0,note_on,,0.0,35.0,0.0,24139,12.572395833333333
2684,9.0,,,,,,,70.0,,,,,,58,note_on,,0.0,70.0,0.0,24197,12.602604166666666
2685,9.0,,,,,,,42.0,,,,,,16,note_on,,0.0,42.0,0.0,24213,12.6109375
2686,8.0,,,,,,,87.0,,,,,,0,note_on,,45.0,87.0,45.0,349,0.18177083333333333
2687,9.0,,,,,,,44.0,,,,,,0,note_on,,75.0,44.0,75.0,24213,12.6109375
2688,8.0,,,,,,,87.0,,,,,,97,note_on,,0.0,87.0,0.0,446,0.23229166666666667
2689,9.0,,,,,,,44.0,,,,,,143,note_on,,0.0,44.0,0.0,24356,12.685416666666667
2690,3.0,,,,,,,79.0,,,,,,0,note_on,,127.0,79.0,127.0,30594,15.934375
2691,7.0,,,,,,,77.0,,,,,,0,note_on,,127.0,77.0,127.0,13,0.0067708333333333336
2692,8.0,,,,,,,65.0,,,,,,0,note_on,,127.0,65.0,127.0,446,0.23229166666666667
2693,9.0,,,,,,,42.0,,,,,,0,note_on,,85.0,42.0,85.0,24356,12.685416666666667
2694,9.0,,,,,,,70.0,,,,,,0,note_on,,40.0,70.0,40.0,24356,12.685416666666667
2695,,,,,,,,,,,,,ba ,0,lyrics,,,,,2,0.0010416666666666667
2696,9.0,,,,,,,70.0,,,,,,224,note_on,,0.0,70.0,0.0,24580,12.802083333333334
2697,9.0,,,,,,,42.0,,,,,,0,note_on,,0.0,42.0,0.0,24580,12.802083333333334
2698,8.0,,,,,,,87.0,,,,,,16,note_on,,45.0,87.0,45.0,462,0.240625
2699,9.0,,,,,,,44.0,,,,,,0,note_on,,75.0,44.0,75.0,24580,12.802083333333334
2700,8.0,,,,,,,87.0,,,,,,88,note_on,,0.0,87.0,0.0,550,0.2864583333333333
2701,9.0,,,,,,,44.0,,,,,,152,note_on,,0.0,44.0,0.0,24732,12.88125
2702,9.0,,,,,,,42.0,,,,,,0,note_on,,85.0,42.0,85.0,24732,12.88125
2703,9.0,,,,,,,70.0,,,,,,0,note_on,,40.0,70.0,40.0,24732,12.88125
2704,9.0,,,,,,,36.0,,,,,,0,note_on,,126.0,36.0,126.0,24732,12.88125
2705,9.0,,,,,,,35.0,,,,,,0,note_on,,60.0,35.0,60.0,24732,12.88125
2706,8.0,,,,,,,65.0,,,,,,45,note_on,,0.0,65.0,0.0,595,0.3098958333333333
2707,7.0,,,,,,,77.0,,,,,,0,note_on,,0.0,77.0,0.0,13,0.0067708333333333336
2708,9.0,,,,,,,35.0,,,,,,109,note_on,,0.0,35.0,0.0,24841,12.938020833333333
2709,9.0,,,,,,,36.0,,,,,,0,note_on,,0.0,36.0,0.0,24841,12.938020833333333
2710,3.0,,,,,,,79.0,,,,,,42,note_on,,0.0,79.0,0.0,30636,15.956249999999999
2711,9.0,,,,,,,70.0,,,,,,28,note_on,,0.0,70.0,0.0,24869,12.952604166666667
2712,9.0,,,,,,,42.0,,,,,,16,note_on,,0.0,42.0,0.0,24885,12.9609375
2713,9.0,,,,,,,44.0,,,,,,0,note_on,,75.0,44.0,75.0,24885,12.9609375
2714,9.0,,,,,,,44.0,,,,,,240,note_on,,0.0,44.0,0.0,25125,13.0859375
2715,3.0,,,,,,,77.0,,,,,,0,note_on,,127.0,77.0,127.0,30636,15.956249999999999
2716,7.0,,,,,,,70.0,,,,,,0,note_on,,127.0,70.0,127.0,13,0.0067708333333333336
2717,8.0,,,,,,,87.0,,,,,,0,note_on,,45.0,87.0,45.0,595,0.3098958333333333
2718,8.0,,,,,,,58.0,,,,,,0,note_on,,127.0,58.0,127.0,595,0.3098958333333333
2719,9.0,,,,,,,42.0,,,,,,0,note_on,,85.0,42.0,85.0,25125,13.0859375
2720,9.0,,,,,,,70.0,,,,,,0,note_on,,40.0,70.0,40.0,25125,13.0859375
2721,9.0,,,,,,,39.0,,,,,,0,note_on,,127.0,39.0,127.0,25125,13.0859375
2722,9.0,,,,,,,28.0,,,,,,0,note_on,,127.0,28.0,127.0,25125,13.0859375
2723,11.0,,,,,,,67.0,,,,,,0,note_on,,127.0,67.0,127.0,14627,7.618229166666667
2724,11.0,,,,,,,72.0,,,,,,0,note_on,,127.0,72.0,127.0,14627,7.618229166666667
2725,11.0,,,,,,,63.0,,,,,,0,note_on,,127.0,63.0,127.0,14627,7.618229166666667
2726,,,,,,,,,,,,,"by, ",0,lyrics,,,,,2,0.0010416666666666667
2727,8.0,,,,,,,87.0,,,,,,103,note_on,,0.0,87.0,0.0,698,0.36354166666666665
2728,9.0,,,,,,,39.0,,,,,,20,note_on,,0.0,39.0,0.0,25145,13.096354166666666
2729,9.0,,,,,,,28.0,,,,,,2,note_on,,0.0,28.0,0.0,25147,13.097395833333334
2730,9.0,,,,,,,42.0,,,,,,99,note_on,,0.0,42.0,0.0,25246,13.148958333333333
2731,9.0,,,,,,,70.0,,,,,,0,note_on,,0.0,70.0,0.0,25246,13.148958333333333
2732,3.0,,,,,,,77.0,,,,,,7,note_on,,0.0,77.0,0.0,30643,15.959895833333333
2733,9.0,,,,,,,44.0,,,,,,9,note_on,,75.0,44.0,75.0,25255,13.153645833333334
2734,11.0,,,,,,,63.0,,,,,,125,note_on,,0.0,63.0,0.0,14752,7.683333333333334
2735,11.0,,,,,,,72.0,,,,,,15,note_on,,0.0,72.0,0.0,14767,7.691145833333334
2736,11.0,,,,,,,67.0,,,,,,8,note_on,,0.0,67.0,0.0,14775,7.6953125
2737,9.0,,,,,,,44.0,,,,,,92,note_on,,0.0,44.0,0.0,25347,13.2015625
2738,3.0,,,,,,,79.0,,,,,,0,note_on,,127.0,79.0,127.0,30643,15.959895833333333
2739,8.0,,,,,,,87.0,,,,,,0,note_on,,45.0,87.0,45.0,698,0.36354166666666665
2740,9.0,,,,,,,42.0,,,,,,0,note_on,,85.0,42.0,85.0,25347,13.2015625
2741,9.0,,,,,,,70.0,,,,,,0,note_on,,40.0,70.0,40.0,25347,13.2015625
2742,10.0,,,,,,,67.0,,,,,,0,note_on,,127.0,67.0,127.0,6752,3.5166666666666666
2743,10.0,,,,,,,72.0,,,,,,0,note_on,,127.0,72.0,127.0,6752,3.5166666666666666
2744,10.0,,,,,,,63.0,,,,,,0,note_on,,127.0,63.0,127.0,6752,3.5166666666666666
2745,11.0,,,,,,,67.0,,,,,,0,note_on,,127.0,67.0,127.0,14775,7.6953125
2746,11.0,,,,,,,70.0,,,,,,0,note_on,,118.0,70.0,118.0,14775,7.6953125
2747,11.0,,,,,,,63.0,,,,,,0,note_on,,127.0,63.0,127.0,14775,7.6953125
2748,,,,,,,,,,,,,ba ,0,lyrics,,,,,2,0.0010416666666666667
2749,8.0,,,,,,,87.0,,,,,,113,note_on,,0.0,87.0,0.0,811,0.4223958333333333
2750,7.0,,,,,,,70.0,,,,,,17,note_on,,0.0,70.0,0.0,30,0.015625
2751,8.0,,,,,,,58.0,,,,,,0,note_on,,0.0,58.0,0.0,811,0.4223958333333333
2752,9.0,,,,,,,70.0,,,,,,94,note_on,,0.0,70.0,0.0,25441,13.250520833333333
2753,9.0,,,,,,,42.0,,,,,,16,note_on,,0.0,42.0,0.0,25457,13.258854166666666
2754,9.0,,,,,,,44.0,,,,,,0,note_on,,75.0,44.0,75.0,25457,13.258854166666666
2755,10.0,,,,,,,63.0,,,,,,125,note_on,,0.0,63.0,0.0,6877,3.581770833333333
2756,10.0,,,,,,,72.0,,,,,,15,note_on,,0.0,72.0,0.0,6892,3.589583333333333
2757,10.0,,,,,,,67.0,,,,,,8,note_on,,0.0,67.0,0.0,6900,3.59375
2758,11.0,,,,,,,70.0,,,,,,38,note_on,,0.0,70.0,0.0,14813,7.715104166666666
2759,11.0,,,,,,,63.0,,,,,,0,note_on,,0.0,63.0,0.0,14813,7.715104166666666
2760,11.0,,,,,,,67.0,,,,,,3,note_on,,0.0,67.0,0.0,14816,7.716666666666667
2761,9.0,,,,,,,44.0,,,,,,51,note_on,,0.0,44.0,0.0,25508,13.285416666666666
2762,7.0,,,,,,,82.0,,,,,,0,note_on,,127.0,82.0,127.0,30,0.015625
2763,8.0,,,,,,,70.0,,,,,,0,note_on,,127.0,70.0,127.0,811,0.4223958333333333
2764,9.0,,,,,,,42.0,,,,,,0,note_on,,85.0,42.0,85.0,25508,13.285416666666666
2765,9.0,,,,,,,70.0,,,,,,0,note_on,,40.0,70.0,40.0,25508,13.285416666666666
2766,9.0,,,,,,,36.0,,,,,,0,note_on,,126.0,36.0,126.0,25508,13.285416666666666
2767,9.0,,,,,,,35.0,,,,,,0,note_on,,60.0,35.0,60.0,25508,13.285416666666666
2768,10.0,,,,,,,67.0,,,,,,0,note_on,,127.0,67.0,127.0,6900,3.59375
2769,10.0,,,,,,,70.0,,,,,,0,note_on,,118.0,70.0,118.0,6900,3.59375
2770,10.0,,,,,,,63.0,,,,,,0,note_on,,127.0,63.0,127.0,6900,3.59375
2771,12.0,,,,,,,67.0,,,,,,0,note_on,,127.0,67.0,127.0,10774,5.611458333333333
2772,12.0,,,,,,,72.0,,,,,,0,note_on,,127.0,72.0,127.0,10774,5.611458333333333
2773,12.0,,,,,,,63.0,,,,,,0,note_on,,127.0,63.0,127.0,10774,5.611458333333333
2774,9.0,,,,,,,35.0,,,,,,172,note_on,,0.0,35.0,0.0,25680,13.375
2775,9.0,,,,,,,36.0,,,,,,0,note_on,,0.0,36.0,0.0,25680,13.375
2776,3.0,,,,,,,79.0,,,,,,43,note_on,,0.0,79.0,0.0,30686,15.982291666666667
2777,9.0,,,,,,,42.0,,,,,,9,note_on,,0.0,42.0,0.0,25689,13.3796875
2778,9.0,,,,,,,70.0,,,,,,0,note_on,,0.0,70.0,0.0,25689,13.3796875
2779,9.0,,,,,,,44.0,,,,,,16,note_on,,75.0,44.0,75.0,25705,13.388020833333334
2780,12.0,,,,,,,63.0,,,,,,125,note_on,,0.0,63.0,0.0,10899,5.6765625
2781,12.0,,,,,,,72.0,,,,,,15,note_on,,0.0,72.0,0.0,10914,5.684375
2782,12.0,,,,,,,67.0,,,,,,8,note_on,,0.0,67.0,0.0,10922,5.688541666666667
2783,10.0,,,,,,,63.0,,,,,,38,note_on,,0.0,63.0,0.0,6938,3.6135416666666664
2784,10.0,,,,,,,70.0,,,,,,0,note_on,,0.0,70.0,0.0,6938,3.6135416666666664
2785,10.0,,,,,,,67.0,,,,,,3,note_on,,0.0,67.0,0.0,6941,3.615104166666667
2786,9.0,,,,,,,44.0,,,,,,51,note_on,,0.0,44.0,0.0,25756,13.414583333333333
2787,3.0,,,,,,,77.0,,,,,,0,note_on,,127.0,77.0,127.0,30686,15.982291666666667
2788,8.0,,,,,,,87.0,,,,,,0,note_on,,45.0,87.0,45.0,811,0.4223958333333333
2789,9.0,,,,,,,42.0,,,,,,0,note_on,,85.0,42.0,85.0,25756,13.414583333333333
2790,9.0,,,,,,,70.0,,,,,,0,note_on,,40.0,70.0,40.0,25756,13.414583333333333
2791,12.0,,,,,,,67.0,,,,,,0,note_on,,127.0,67.0,127.0,10922,5.688541666666667
2792,12.0,,,,,,,70.0,,,,,,0,note_on,,118.0,70.0,118.0,10922,5.688541666666667
2793,12.0,,,,,,,63.0,,,,,,0,note_on,,127.0,63.0,127.0,10922,5.688541666666667
2794,,,,,,,,,,,,,by ,0,lyrics,,,,,2,0.0010416666666666667
2795,7.0,,,,,,,82.0,,,,,,41,note_on,,0.0,82.0,0.0,71,0.03697916666666667
2796,8.0,,,,,,,70.0,,,,,,0,note_on,,0.0,70.0,0.0,811,0.4223958333333333
2797,8.0,,,,,,,87.0,,,,,,63,note_on,,0.0,87.0,0.0,874,0.4552083333333333
2798,9.0,,,,,,,70.0,,,,,,120,note_on,,0.0,70.0,0.0,25876,13.477083333333333
2799,9.0,,,,,,,42.0,,,,,,16,note_on,,0.0,42.0,0.0,25892,13.485416666666666
2800,8.0,,,,,,,87.0,,,,,,0,note_on,,45.0,87.0,45.0,874,0.4552083333333333
2801,9.0,,,,,,,44.0,,,,,,0,note_on,,75.0,44.0,75.0,25892,13.485416666666666
2802,9.0,,,,,,,36.0,,,,,,0,note_on,,126.0,36.0,126.0,25892,13.485416666666666
2803,9.0,,,,,,,35.0,,,,,,0,note_on,,60.0,35.0,60.0,25892,13.485416666666666
2804,8.0,,,,,,,87.0,,,,,,123,note_on,,0.0,87.0,0.0,997,0.5192708333333333
2805,12.0,,,,,,,70.0,,,,,,63,note_on,,0.0,70.0,0.0,10985,5.721354166666667
2806,12.0,,,,,,,63.0,,,,,,0,note_on,,0.0,63.0,0.0,10985,5.721354166666667
2807,12.0,,,,,,,67.0,,,,,,3,note_on,,0.0,67.0,0.0,10988,5.722916666666666
2808,9.0,,,,,,,35.0,,,,,,35,note_on,,0.0,35.0,0.0,25927,13.503645833333334
2809,9.0,,,,,,,36.0,,,,,,0,note_on,,0.0,36.0,0.0,25927,13.503645833333334
2810,9.0,,,,,,,44.0,,,,,,16,note_on,,0.0,44.0,0.0,25943,13.511979166666666
2811,7.0,,,,,,,75.0,,,,,,0,note_on,,127.0,75.0,127.0,71,0.03697916666666667
2812,8.0,,,,,,,63.0,,,,,,0,note_on,,127.0,63.0,127.0,997,0.5192708333333333
2813,9.0,,,,,,,42.0,,,,,,0,note_on,,85.0,42.0,85.0,25943,13.511979166666666
2814,9.0,,,,,,,70.0,,,,,,0,note_on,,40.0,70.0,40.0,25943,13.511979166666666
2815,9.0,,,,,,,39.0,,,,,,0,note_on,,125.0,39.0,125.0,25943,13.511979166666666
2816,9.0,,,,,,,28.0,,,,,,0,note_on,,127.0,28.0,127.0,25943,13.511979166666666
2817,9.0,,,,,,,28.0,,,,,,117,note_on,,0.0,28.0,0.0,26060,13.572916666666666
2818,9.0,,,,,,,39.0,,,,,,34,note_on,,0.0,39.0,0.0,26094,13.590625
2819,9.0,,,,,,,42.0,,,,,,73,note_on,,0.0,42.0,0.0,26167,13.628645833333334
2820,9.0,,,,,,,70.0,,,,,,0,note_on,,0.0,70.0,0.0,26167,13.628645833333334
2821,3.0,,,,,,,82.0,,,,,,16,note_on,,127.0,82.0,127.0,30702,15.990625
2822,8.0,,,,,,,87.0,,,,,,0,note_on,,45.0,87.0,45.0,997,0.5192708333333333
2823,9.0,,,,,,,44.0,,,,,,0,note_on,,75.0,44.0,75.0,26167,13.628645833333334
2824,,,,,,,,,,,,,ohhh ,0,lyrics,,,,,2,0.0010416666666666667
2825,,,,,,,,,,,,,,0,lyrics,,,,,3,0.0015625
2826,3.0,,,,,,,77.0,,,,,,41,note_on,,0.0,77.0,0.0,30743,16.011979166666666
2827,8.0,,,,,,,87.0,,,,,,85,note_on,,0.0,87.0,0.0,1082,0.5635416666666666
2828,9.0,,,,,,,44.0,,,,,,114,note_on,,0.0,44.0,0.0,26281,13.688020833333333
2829,9.0,,,,,,,42.0,,,,,,0,note_on,,85.0,42.0,85.0,26281,13.688020833333333
2830,9.0,,,,,,,70.0,,,,,,0,note_on,,40.0,70.0,40.0,26281,13.688020833333333
2831,9.0,,,,,,,36.0,,,,,,0,note_on,,126.0,36.0,126.0,26281,13.688020833333333
2832,9.0,,,,,,,35.0,,,,,,0,note_on,,60.0,35.0,60.0,26281,13.688020833333333
2833,8.0,,,,,,,63.0,,,,,,62,note_on,,0.0,63.0,0.0,1144,0.5958333333333333
2834,7.0,,,,,,,75.0,,,,,,0,note_on,,0.0,75.0,0.0,71,0.03697916666666667
2835,9.0,,,,,,,35.0,,,,,,104,note_on,,0.0,35.0,0.0,26385,13.7421875
2836,9.0,,,,,,,36.0,,,,,,0,note_on,,0.0,36.0,0.0,26385,13.7421875
2837,9.0,,,,,,,70.0,,,,,,58,note_on,,0.0,70.0,0.0,26443,13.772395833333333
2838,9.0,,,,,,,42.0,,,,,,16,note_on,,0.0,42.0,0.0,26459,13.780729166666667
2839,9.0,,,,,,,44.0,,,,,,0,note_on,,75.0,44.0,75.0,26459,13.780729166666667
2840,9.0,,,,,,,44.0,,,,,,240,note_on,,0.0,44.0,0.0,26699,13.905729166666667
2841,7.0,,,,,,,77.0,,,,,,0,note_on,,127.0,77.0,127.0,71,0.03697916666666667
2842,8.0,,,,,,,87.0,,,,,,0,note_on,,45.0,87.0,45.0,1144,0.5958333333333333
2843,8.0,,,,,,,65.0,,,,,,0,note_on,,127.0,65.0,127.0,1144,0.5958333333333333
2844,9.0,,,,,,,42.0,,,,,,0,note_on,,85.0,42.0,85.0,26699,13.905729166666667
2845,9.0,,,,,,,70.0,,,,,,0,note_on,,40.0,70.0,40.0,26699,13.905729166666667
2846,8.0,,,,,,,87.0,,,,,,121,note_on,,0.0,87.0,0.0,1265,0.6588541666666666
2847,9.0,,,,,,,70.0,,,,,,103,note_on,,0.0,70.0,0.0,26802,13.959375
2848,9.0,,,,,,,44.0,,,,,,16,note_on,,75.0,44.0,75.0,26818,13.967708333333333
2849,9.0,,,,,,,44.0,,,,,,240,note_on,,0.0,44.0,0.0,27058,14.092708333333333
2850,8.0,,,,,,,87.0,,,,,,0,note_on,,45.0,87.0,45.0,1265,0.6588541666666666
2851,9.0,,,,,,,42.0,,,,,,0,note_on,,85.0,42.0,85.0,27058,14.092708333333333
2852,9.0,,,,,,,70.0,,,,,,0,note_on,,40.0,70.0,40.0,27058,14.092708333333333
2853,9.0,,,,,,,36.0,,,,,,0,note_on,,126.0,36.0,126.0,27058,14.092708333333333
2854,9.0,,,,,,,35.0,,,,,,0,note_on,,60.0,35.0,60.0,27058,14.092708333333333
2855,3.0,,,,,,,82.0,,,,,,6,note_on,,0.0,82.0,0.0,30749,16.015104166666667
2856,7.0,,,,,,,77.0,,,,,,50,note_on,,0.0,77.0,0.0,121,0.06302083333333333
2857,8.0,,,,,,,65.0,,,,,,0,note_on,,0.0,65.0,0.0,1265,0.6588541666666666
2858,8.0,,,,,,,87.0,,,,,,71,note_on,,0.0,87.0,0.0,1336,0.6958333333333333
2859,9.0,,,,,,,35.0,,,,,,27,note_on,,0.0,35.0,0.0,27085,14.106770833333334
2860,9.0,,,,,,,36.0,,,,,,0,note_on,,0.0,36.0,0.0,27085,14.106770833333334
2861,9.0,,,,,,,70.0,,,,,,70,note_on,,0.0,70.0,0.0,27155,14.143229166666666
2862,9.0,,,,,,,42.0,,,,,,16,note_on,,0.0,42.0,0.0,27171,14.151562499999999
2863,9.0,,,,,,,44.0,,,,,,0,note_on,,75.0,44.0,75.0,27171,14.151562499999999
2864,9.0,,,,,,,44.0,,,,,,240,note_on,,0.0,44.0,0.0,27411,14.276562499999999
2865,3.0,,,,,,,75.0,,,,,,0,note_on,,127.0,75.0,127.0,30749,16.015104166666667
2866,7.0,,,,,,,75.0,,,,,,0,note_on,,127.0,75.0,127.0,121,0.06302083333333333
2867,8.0,,,,,,,87.0,,,,,,0,note_on,,45.0,87.0,45.0,1336,0.6958333333333333
2868,8.0,,,,,,,63.0,,,,,,0,note_on,,127.0,63.0,127.0,1336,0.6958333333333333
2869,9.0,,,,,,,42.0,,,,,,0,note_on,,85.0,42.0,85.0,27411,14.276562499999999
2870,9.0,,,,,,,70.0,,,,,,0,note_on,,40.0,70.0,40.0,27411,14.276562499999999
2871,9.0,,,,,,,39.0,,,,,,0,note_on,,127.0,39.0,127.0,27411,14.276562499999999
2872,9.0,,,,,,,28.0,,,,,,0,note_on,,127.0,28.0,127.0,27411,14.276562499999999
2873,,,,,,,,,,,,,Like ,0,lyrics,,,,,3,0.0015625
2874,9.0,,,,,,,39.0,,,,,,123,note_on,,0.0,39.0,0.0,27534,14.340625
2875,8.0,,,,,,,87.0,,,,,,0,note_on,,0.0,87.0,0.0,1336,0.6958333333333333
2876,9.0,,,,,,,28.0,,,,,,2,note_on,,0.0,28.0,0.0,27536,14.341666666666667
2877,9.0,,,,,,,70.0,,,,,,99,note_on,,0.0,70.0,0.0,27635,14.393229166666666
2878,9.0,,,,,,,42.0,,,,,,0,note_on,,0.0,42.0,0.0,27635,14.393229166666666
2879,9.0,,,,,,,42.0,,,,,,16,note_on,,0.0,42.0,0.0,27651,14.401562499999999
2880,9.0,,,,,,,44.0,,,,,,0,note_on,,75.0,44.0,75.0,27651,14.401562499999999
2881,5.0,,,,,,,55.0,,,,,,203,note_on,,0.0,55.0,0.0,213,0.1109375
2882,5.0,,,,,,,58.0,,,,,,23,note_on,,0.0,58.0,0.0,236,0.12291666666666666
2883,9.0,,,,,,,44.0,,,,,,14,note_on,,0.0,44.0,0.0,27665,14.408854166666666
2884,8.0,,,,,,,87.0,,,,,,0,note_on,,45.0,87.0,45.0,1336,0.6958333333333333
2885,9.0,,,,,,,42.0,,,,,,0,note_on,,85.0,42.0,85.0,27665,14.408854166666666
2886,9.0,,,,,,,61.0,,,,,,0,note_on,,100.0,61.0,100.0,27665,14.408854166666666
2887,9.0,,,,,,,70.0,,,,,,0,note_on,,40.0,70.0,40.0,27665,14.408854166666666
2888,7.0,,,,,,,75.0,,,,,,84,note_on,,0.0,75.0,0.0,205,0.10677083333333333
2889,8.0,,,,,,,63.0,,,,,,0,note_on,,0.0,63.0,0.0,1336,0.6958333333333333
2890,5.0,,,,,,,63.0,,,,,,8,note_on,,0.0,63.0,0.0,244,0.12708333333333333
2891,8.0,,,,,,,87.0,,,,,,20,note_on,,0.0,87.0,0.0,1356,0.70625
2892,9.0,,,,,,,61.0,,,,,,2,note_on,,0.0,61.0,0.0,27667,14.409895833333334
2893,9.0,,,,,,,61.0,,,,,,6,note_on,,100.0,61.0,100.0,27673,14.413020833333333
2894,3.0,,,,,,,75.0,,,,,,23,note_on,,0.0,75.0,0.0,30772,16.027083333333334
2895,9.0,,,,,,,70.0,,,,,,81,note_on,,0.0,70.0,0.0,27754,14.455208333333333
2896,9.0,,,,,,,61.0,,,,,,10,note_on,,0.0,61.0,0.0,27764,14.460416666666667
2897,9.0,,,,,,,42.0,,,,,,6,note_on,,0.0,42.0,0.0,27770,14.463541666666666
2898,9.0,,,,,,,44.0,,,,,,0,note_on,,75.0,44.0,75.0,27770,14.463541666666666
2899,9.0,,,,,,,61.0,,,,,,0,note_on,,100.0,61.0,100.0,27770,14.463541666666666
2900,5.0,,,,,,,63.0,,,,,,51,note_on,,60.0,63.0,60.0,295,0.15364583333333334
2901,5.0,,,,,,,60.0,,,,,,16,note_on,,102.0,60.0,102.0,311,0.16197916666666667
2902,5.0,,,,,,,55.0,,,,,,15,note_on,,77.0,55.0,77.0,326,0.16979166666666667
2903,9.0,,,,,,,61.0,,,,,,32,note_on,,0.0,61.0,0.0,27802,14.480208333333334
2904,9.0,,,,,,,61.0,,,,,,6,note_on,,100.0,61.0,100.0,27808,14.483333333333333
2905,8.0,,,,,,,39.0,,,,,,43,note_on,,0.0,39.0,0.0,1399,0.7286458333333333
2906,1.0,,,,,,,27.0,,,,,,24,note_on,,0.0,27.0,0.0,1242,0.646875
2907,9.0,,,,,,,61.0,,,,,,47,note_on,,0.0,61.0,0.0,27855,14.5078125
2908,9.0,,,,,,,44.0,,,,,,6,note_on,,0.0,44.0,0.0,27861,14.510937499999999
2909,1.0,,,,,,,36.0,,,,,,0,note_on,,127.0,36.0,127.0,1242,0.646875
2910,3.0,,,,,,,79.0,,,,,,0,note_on,,127.0,79.0,127.0,30772,16.027083333333334
2911,7.0,,,,,,,82.0,,,,,,0,note_on,,127.0,82.0,127.0,205,0.10677083333333333
2912,8.0,,,,,,,48.0,,,,,,0,note_on,,126.0,48.0,126.0,1399,0.7286458333333333
2913,8.0,,,,,,,70.0,,,,,,0,note_on,,127.0,70.0,127.0,1399,0.7286458333333333
2914,9.0,,,,,,,61.0,,,,,,0,note_on,,100.0,61.0,100.0,27861,14.510937499999999
2915,9.0,,,,,,,42.0,,,,,,0,note_on,,85.0,42.0,85.0,27861,14.510937499999999
2916,9.0,,,,,,,70.0,,,,,,0,note_on,,40.0,70.0,40.0,27861,14.510937499999999
2917,9.0,,,,,,,36.0,,,,,,0,note_on,,126.0,36.0,126.0,27861,14.510937499999999
2918,9.0,,,,,,,35.0,,,,,,0,note_on,,60.0,35.0,60.0,27861,14.510937499999999
2919,11.0,,,,,,,63.0,,,,,,0,note_on,,127.0,63.0,127.0,14816,7.716666666666667
2920,11.0,,,,,,,60.0,,,,,,0,note_on,,127.0,60.0,127.0,14816,7.716666666666667
2921,11.0,,,,,,,67.0,,,,,,0,note_on,,127.0,67.0,127.0,14816,7.716666666666667
2922,,,,,,,,,,,,,ba ,0,lyrics,,,,,3,0.0015625
2923,9.0,,,,,,,61.0,,,,,,114,note_on,,0.0,61.0,0.0,27975,14.5703125
2924,9.0,,,,,,,35.0,,,,,,58,note_on,,0.0,35.0,0.0,28033,14.600520833333333
2925,9.0,,,,,,,36.0,,,,,,0,note_on,,0.0,36.0,0.0,28033,14.600520833333333
2926,9.0,,,,,,,70.0,,,,,,52,note_on,,0.0,70.0,0.0,28085,14.627604166666666
2927,9.0,,,,,,,42.0,,,,,,0,note_on,,0.0,42.0,0.0,28085,14.627604166666666
2928,8.0,,,,,,,87.0,,,,,,16,note_on,,45.0,87.0,45.0,1415,0.7369791666666666
2929,9.0,,,,,,,44.0,,,,,,0,note_on,,75.0,44.0,75.0,28085,14.627604166666666
2930,8.0,,,,,,,87.0,,,,,,106,note_on,,0.0,87.0,0.0,1521,0.7921875
2931,11.0,,,,,,,60.0,,,,,,58,note_on,,0.0,60.0,0.0,14874,7.746875
2932,11.0,,,,,,,63.0,,,,,,32,note_on,,0.0,63.0,0.0,14906,7.763541666666667
2933,11.0,,,,,,,67.0,,,,,,6,note_on,,0.0,67.0,0.0,14912,7.766666666666667
2934,9.0,,,,,,,44.0,,,,,,38,note_on,,0.0,44.0,0.0,28123,14.647395833333333
2935,9.0,,,,,,,42.0,,,,,,0,note_on,,85.0,42.0,85.0,28123,14.647395833333333
2936,9.0,,,,,,,70.0,,,,,,0,note_on,,40.0,70.0,40.0,28123,14.647395833333333
2937,10.0,,,,,,,63.0,,,,,,0,note_on,,127.0,63.0,127.0,6941,3.615104166666667
2938,10.0,,,,,,,60.0,,,,,,0,note_on,,127.0,60.0,127.0,6941,3.615104166666667
2939,10.0,,,,,,,67.0,,,,,,0,note_on,,127.0,67.0,127.0,6941,3.615104166666667
2940,8.0,,,,,,,70.0,,,,,,51,note_on,,0.0,70.0,0.0,1572,0.81875
2941,7.0,,,,,,,82.0,,,,,,0,note_on,,0.0,82.0,0.0,205,0.10677083333333333
2942,3.0,,,,,,,79.0,,,,,,104,note_on,,0.0,79.0,0.0,30876,16.08125
2943,9.0,,,,,,,70.0,,,,,,69,note_on,,0.0,70.0,0.0,28192,14.683333333333334
2944,9.0,,,,,,,42.0,,,,,,16,note_on,,0.0,42.0,0.0,28208,14.691666666666666
2945,9.0,,,,,,,44.0,,,,,,0,note_on,,75.0,44.0,75.0,28208,14.691666666666666
2946,9.0,,,,,,,36.0,,,,,,0,note_on,,126.0,36.0,126.0,28208,14.691666666666666
2947,9.0,,,,,,,35.0,,,,,,0,note_on,,60.0,35.0,60.0,28208,14.691666666666666
2948,10.0,,,,,,,60.0,,,,,,164,note_on,,0.0,60.0,0.0,7105,3.7005208333333335
2949,10.0,,,,,,,63.0,,,,,,32,note_on,,0.0,63.0,0.0,7137,3.7171875
2950,10.0,,,,,,,67.0,,,,,,6,note_on,,0.0,67.0,0.0,7143,3.7203125
2951,9.0,,,,,,,36.0,,,,,,22,note_on,,0.0,36.0,0.0,28230,14.703125
2952,9.0,,,,,,,35.0,,,,,,0,note_on,,0.0,35.0,0.0,28230,14.703125
2953,9.0,,,,,,,44.0,,,,,,16,note_on,,0.0,44.0,0.0,28246,14.711458333333333
2954,3.0,,,,,,,77.0,,,,,,0,note_on,,127.0,77.0,127.0,30876,16.08125
2955,7.0,,,,,,,75.0,,,,,,0,note_on,,127.0,75.0,127.0,205,0.10677083333333333
2956,7.0,,,,,,,78.0,,,,,,0,note_on,,72.0,78.0,72.0,205,0.10677083333333333
2957,8.0,,,,,,,87.0,,,,,,0,note_on,,45.0,87.0,45.0,1572,0.81875
2958,8.0,,,,,,,63.0,,,,,,0,note_on,,127.0,63.0,127.0,1572,0.81875
2959,8.0,,,,,,,66.0,,,,,,0,note_on,,72.0,66.0,72.0,1572,0.81875
2960,9.0,,,,,,,42.0,,,,,,0,note_on,,85.0,42.0,85.0,28246,14.711458333333333
2961,9.0,,,,,,,70.0,,,,,,0,note_on,,40.0,70.0,40.0,28246,14.711458333333333
2962,9.0,,,,,,,39.0,,,,,,0,note_on,,125.0,39.0,125.0,28246,14.711458333333333
2963,9.0,,,,,,,28.0,,,,,,0,note_on,,127.0,28.0,127.0,28246,14.711458333333333
2964,12.0,,,,,,,63.0,,,,,,0,note_on,,127.0,63.0,127.0,10988,5.722916666666666
2965,12.0,,,,,,,60.0,,,,,,0,note_on,,127.0,60.0,127.0,10988,5.722916666666666
2966,12.0,,,,,,,67.0,,,,,,0,note_on,,127.0,67.0,127.0,10988,5.722916666666666
2967,,,,,,,,,,,,,"by, ",0,lyrics,,,,,3,0.0015625
2968,8.0,,,,,,,66.0,,,,,,48,note_on,,0.0,66.0,0.0,1620,0.84375
2969,7.0,,,,,,,78.0,,,,,,0,note_on,,0.0,78.0,0.0,205,0.10677083333333333
2970,9.0,,,,,,,28.0,,,,,,69,note_on,,0.0,28.0,0.0,28315,14.747395833333334
2971,8.0,,,,,,,87.0,,,,,,10,note_on,,0.0,87.0,0.0,1630,0.8489583333333334
2972,9.0,,,,,,,39.0,,,,,,24,note_on,,0.0,39.0,0.0,28339,14.759895833333333
2973,9.0,,,,,,,42.0,,,,,,73,note_on,,0.0,42.0,0.0,28412,14.797916666666666
2974,9.0,,,,,,,70.0,,,,,,0,note_on,,0.0,70.0,0.0,28412,14.797916666666666
2975,9.0,,,,,,,44.0,,,,,,16,note_on,,75.0,44.0,75.0,28428,14.80625
2976,12.0,,,,,,,60.0,,,,,,164,note_on,,0.0,60.0,0.0,11152,5.808333333333334
2977,12.0,,,,,,,63.0,,,,,,32,note_on,,0.0,63.0,0.0,11184,5.825
2978,12.0,,,,,,,67.0,,,,,,6,note_on,,0.0,67.0,0.0,11190,5.828125
2979,9.0,,,,,,,44.0,,,,,,38,note_on,,0.0,44.0,0.0,28466,14.826041666666667
2980,8.0,,,,,,,87.0,,,,,,0,note_on,,45.0,87.0,45.0,1630,0.8489583333333334
2981,9.0,,,,,,,42.0,,,,,,0,note_on,,85.0,42.0,85.0,28466,14.826041666666667
2982,9.0,,,,,,,70.0,,,,,,0,note_on,,40.0,70.0,40.0,28466,14.826041666666667
2983,9.0,,,,,,,36.0,,,,,,0,note_on,,126.0,36.0,126.0,28466,14.826041666666667
2984,9.0,,,,,,,35.0,,,,,,0,note_on,,60.0,35.0,60.0,28466,14.826041666666667
2985,7.0,,,,,,,75.0,,,,,,40,note_on,,0.0,75.0,0.0,245,0.12760416666666666
2986,8.0,,,,,,,63.0,,,,,,0,note_on,,0.0,63.0,0.0,1630,0.8489583333333334
2987,8.0,,,,,,,87.0,,,,,,90,note_on,,0.0,87.0,0.0,1720,0.8958333333333334
2988,3.0,,,,,,,77.0,,,,,,2,note_on,,0.0,77.0,0.0,30878,16.082291666666666
2989,9.0,,,,,,,35.0,,,,,,34,note_on,,0.0,35.0,0.0,28500,14.84375
2990,9.0,,,,,,,36.0,,,,,,0,note_on,,0.0,36.0,0.0,28500,14.84375
2991,9.0,,,,,,,70.0,,,,,,58,note_on,,0.0,70.0,0.0,28558,14.873958333333333
2992,9.0,,,,,,,42.0,,,,,,16,note_on,,0.0,42.0,0.0,28574,14.882291666666667
2993,9.0,,,,,,,44.0,,,,,,0,note_on,,75.0,44.0,75.0,28574,14.882291666666667
2994,9.0,,,,,,,44.0,,,,,,240,note_on,,0.0,44.0,0.0,28814,15.007291666666667
2995,3.0,,,,,,,79.0,,,,,,0,note_on,,127.0,79.0,127.0,30878,16.082291666666666
2996,7.0,,,,,,,77.0,,,,,,0,note_on,,127.0,77.0,127.0,245,0.12760416666666666
2997,8.0,,,,,,,65.0,,,,,,0,note_on,,127.0,65.0,127.0,1720,0.8958333333333334
2998,9.0,,,,,,,42.0,,,,,,0,note_on,,85.0,42.0,85.0,28814,15.007291666666667
2999,9.0,,,,,,,70.0,,,,,,0,note_on,,40.0,70.0,40.0,28814,15.007291666666667
3000,,,,,,,,,,,,,ba ,0,lyrics,,,,,3,0.0015625
3001,9.0,,,,,,,70.0,,,,,,224,note_on,,0.0,70.0,0.0,29038,15.123958333333333
3002,9.0,,,,,,,42.0,,,,,,0,note_on,,0.0,42.0,0.0,29038,15.123958333333333
3003,8.0,,,,,,,87.0,,,,,,16,note_on,,45.0,87.0,45.0,1736,0.9041666666666667
3004,9.0,,,,,,,44.0,,,,,,0,note_on,,75.0,44.0,75.0,29038,15.123958333333333
3005,8.0,,,,,,,87.0,,,,,,133,note_on,,0.0,87.0,0.0,1869,0.9734375
3006,9.0,,,,,,,44.0,,,,,,107,note_on,,0.0,44.0,0.0,29145,15.1796875
3007,9.0,,,,,,,42.0,,,,,,0,note_on,,85.0,42.0,85.0,29145,15.1796875
3008,9.0,,,,,,,70.0,,,,,,0,note_on,,40.0,70.0,40.0,29145,15.1796875
3009,9.0,,,,,,,36.0,,,,,,0,note_on,,126.0,36.0,126.0,29145,15.1796875
3010,9.0,,,,,,,35.0,,,,,,0,note_on,,60.0,35.0,60.0,29145,15.1796875
3011,8.0,,,,,,,65.0,,,,,,103,note_on,,0.0,65.0,0.0,1972,1.0270833333333333
3012,7.0,,,,,,,77.0,,,,,,0,note_on,,0.0,77.0,0.0,245,0.12760416666666666
3013,9.0,,,,,,,35.0,,,,,,51,note_on,,0.0,35.0,0.0,29196,15.206249999999999
3014,9.0,,,,,,,36.0,,,,,,0,note_on,,0.0,36.0,0.0,29196,15.206249999999999
3015,3.0,,,,,,,79.0,,,,,,52,note_on,,0.0,79.0,0.0,30930,16.109375
3016,9.0,,,,,,,70.0,,,,,,18,note_on,,0.0,70.0,0.0,29214,15.215625
3017,9.0,,,,,,,42.0,,,,,,16,note_on,,0.0,42.0,0.0,29230,15.223958333333334
3018,9.0,,,,,,,44.0,,,,,,0,note_on,,75.0,44.0,75.0,29230,15.223958333333334
3019,9.0,,,,,,,44.0,,,,,,240,note_on,,0.0,44.0,0.0,29470,15.348958333333334
3020,3.0,,,,,,,77.0,,,,,,0,note_on,,127.0,77.0,127.0,30930,16.109375
3021,7.0,,,,,,,70.0,,,,,,0,note_on,,127.0,70.0,127.0,245,0.12760416666666666
3022,8.0,,,,,,,87.0,,,,,,0,note_on,,45.0,87.0,45.0,1972,1.0270833333333333
3023,8.0,,,,,,,58.0,,,,,,0,note_on,,127.0,58.0,127.0,1972,1.0270833333333333
3024,9.0,,,,,,,42.0,,,,,,0,note_on,,85.0,42.0,85.0,29470,15.348958333333334
3025,9.0,,,,,,,70.0,,,,,,0,note_on,,40.0,70.0,40.0,29470,15.348958333333334
3026,9.0,,,,,,,39.0,,,,,,0,note_on,,127.0,39.0,127.0,29470,15.348958333333334
3027,9.0,,,,,,,28.0,,,,,,0,note_on,,127.0,28.0,127.0,29470,15.348958333333334
3028,11.0,,,,,,,68.0,,,,,,0,note_on,,127.0,68.0,127.0,14912,7.766666666666667
3029,11.0,,,,,,,60.0,,,,,,0,note_on,,127.0,60.0,127.0,14912,7.766666666666667
3030,11.0,,,,,,,63.0,,,,,,0,note_on,,127.0,63.0,127.0,14912,7.766666666666667
3031,,,,,,,,,,,,,"by, ",0,lyrics,,,,,4,0.0020833333333333333
3032,9.0,,,,,,,39.0,,,,,,123,note_on,,0.0,39.0,0.0,29593,15.413020833333333
3033,9.0,,,,,,,28.0,,,,,,2,note_on,,0.0,28.0,0.0,29595,15.4140625
3034,8.0,,,,,,,87.0,,,,,,4,note_on,,0.0,87.0,0.0,1976,1.0291666666666666
3035,9.0,,,,,,,42.0,,,,,,95,note_on,,0.0,42.0,0.0,29690,15.463541666666666
3036,9.0,,,,,,,70.0,,,,,,0,note_on,,0.0,70.0,0.0,29690,15.463541666666666
3037,9.0,,,,,,,44.0,,,,,,16,note_on,,75.0,44.0,75.0,29706,15.471874999999999
3038,11.0,,,,,,,68.0,,,,,,145,note_on,,0.0,68.0,0.0,15057,7.8421875
3039,11.0,,,,,,,60.0,,,,,,4,note_on,,0.0,60.0,0.0,15061,7.844270833333333
3040,11.0,,,,,,,63.0,,,,,,19,note_on,,0.0,63.0,0.0,15080,7.854166666666667
3041,9.0,,,,,,,44.0,,,,,,72,note_on,,0.0,44.0,0.0,29778,15.509375
3042,8.0,,,,,,,87.0,,,,,,0,note_on,,45.0,87.0,45.0,1976,1.0291666666666666
3043,9.0,,,,,,,42.0,,,,,,0,note_on,,85.0,42.0,85.0,29778,15.509375
3044,9.0,,,,,,,70.0,,,,,,0,note_on,,40.0,70.0,40.0,29778,15.509375
3045,10.0,,,,,,,68.0,,,,,,0,note_on,,127.0,68.0,127.0,7143,3.7203125
3046,10.0,,,,,,,60.0,,,,,,0,note_on,,127.0,60.0,127.0,7143,3.7203125
3047,10.0,,,,,,,63.0,,,,,,0,note_on,,127.0,63.0,127.0,7143,3.7203125
3048,11.0,,,,,,,63.0,,,,,,0,note_on,,127.0,63.0,127.0,15080,7.854166666666667
3049,11.0,,,,,,,60.0,,,,,,0,note_on,,127.0,60.0,127.0,15080,7.854166666666667
3050,11.0,,,,,,,67.0,,,,,,0,note_on,,127.0,67.0,127.0,15080,7.854166666666667
3051,8.0,,,,,,,87.0,,,,,,121,note_on,,0.0,87.0,0.0,2097,1.0921875
3052,7.0,,,,,,,70.0,,,,,,5,note_on,,0.0,70.0,0.0,250,0.13020833333333334
3053,8.0,,,,,,,58.0,,,,,,0,note_on,,0.0,58.0,0.0,2097,1.0921875
3054,3.0,,,,,,,77.0,,,,,,9,note_on,,0.0,77.0,0.0,30939,16.1140625
3055,9.0,,,,,,,70.0,,,,,,89,note_on,,0.0,70.0,0.0,29867,15.555729166666666
3056,9.0,,,,,,,42.0,,,,,,16,note_on,,0.0,42.0,0.0,29883,15.5640625
3057,9.0,,,,,,,44.0,,,,,,0,note_on,,75.0,44.0,75.0,29883,15.5640625
3058,11.0,,,,,,,60.0,,,,,,131,note_on,,0.0,60.0,0.0,15211,7.922395833333333
3059,11.0,,,,,,,67.0,,,,,,11,note_on,,0.0,67.0,0.0,15222,7.928125
3060,10.0,,,,,,,68.0,,,,,,3,note_on,,0.0,68.0,0.0,7146,3.721875
3061,10.0,,,,,,,60.0,,,,,,4,note_on,,0.0,60.0,0.0,7150,3.7239583333333335
3062,10.0,,,,,,,63.0,,,,,,19,note_on,,0.0,63.0,0.0,7169,3.7338541666666667
3063,11.0,,,,,,,63.0,,,,,,18,note_on,,0.0,63.0,0.0,15240,7.9375
3064,9.0,,,,,,,44.0,,,,,,54,note_on,,0.0,44.0,0.0,29937,15.5921875
3065,3.0,,,,,,,79.0,,,,,,0,note_on,,127.0,79.0,127.0,30939,16.1140625
3066,7.0,,,,,,,82.0,,,,,,0,note_on,,127.0,82.0,127.0,250,0.13020833333333334
3067,8.0,,,,,,,70.0,,,,,,0,note_on,,127.0,70.0,127.0,2097,1.0921875
3068,9.0,,,,,,,42.0,,,,,,0,note_on,,85.0,42.0,85.0,29937,15.5921875
3069,9.0,,,,,,,70.0,,,,,,0,note_on,,40.0,70.0,40.0,29937,15.5921875
3070,9.0,,,,,,,36.0,,,,,,0,note_on,,126.0,36.0,126.0,29937,15.5921875
3071,9.0,,,,,,,35.0,,,,,,0,note_on,,60.0,35.0,60.0,29937,15.5921875
3072,10.0,,,,,,,63.0,,,,,,0,note_on,,127.0,63.0,127.0,7169,3.7338541666666667
3073,10.0,,,,,,,60.0,,,,,,0,note_on,,127.0,60.0,127.0,7169,3.7338541666666667
3074,10.0,,,,,,,67.0,,,,,,0,note_on,,127.0,67.0,127.0,7169,3.7338541666666667
3075,12.0,,,,,,,68.0,,,,,,0,note_on,,127.0,68.0,127.0,11190,5.828125
3076,12.0,,,,,,,60.0,,,,,,0,note_on,,127.0,60.0,127.0,11190,5.828125
3077,12.0,,,,,,,63.0,,,,,,0,note_on,,127.0,63.0,127.0,11190,5.828125
3078,,,,,,,,,,,,,ba ,0,lyrics,,,,,5,0.0026041666666666665
3079,9.0,,,,,,,35.0,,,,,,172,note_on,,0.0,35.0,0.0,30109,15.681770833333333
3080,9.0,,,,,,,36.0,,,,,,0,note_on,,0.0,36.0,0.0,30109,15.681770833333333
3081,9.0,,,,,,,70.0,,,,,,52,note_on,,0.0,70.0,0.0,30161,15.708854166666667
3082,9.0,,,,,,,42.0,,,,,,0,note_on,,0.0,42.0,0.0,30161,15.708854166666667
3083,8.0,,,,,,,87.0,,,,,,16,note_on,,45.0,87.0,45.0,2113,1.1005208333333334
3084,9.0,,,,,,,44.0,,,,,,0,note_on,,75.0,44.0,75.0,30161,15.708854166666667
3085,8.0,,,,,,,87.0,,,,,,126,note_on,,0.0,87.0,0.0,2239,1.1661458333333332
3086,10.0,,,,,,,60.0,,,,,,5,note_on,,0.0,60.0,0.0,7174,3.736458333333333
3087,10.0,,,,,,,67.0,,,,,,11,note_on,,0.0,67.0,0.0,7185,3.7421875
3088,12.0,,,,,,,68.0,,,,,,3,note_on,,0.0,68.0,0.0,11193,5.8296875
3089,12.0,,,,,,,60.0,,,,,,4,note_on,,0.0,60.0,0.0,11197,5.831770833333334
3090,12.0,,,,,,,63.0,,,,,,19,note_on,,0.0,63.0,0.0,11216,5.841666666666667
3091,10.0,,,,,,,63.0,,,,,,18,note_on,,0.0,63.0,0.0,7203,3.7515625
3092,9.0,,,,,,,44.0,,,,,,54,note_on,,0.0,44.0,0.0,30215,15.736979166666666
3093,9.0,,,,,,,42.0,,,,,,0,note_on,,85.0,42.0,85.0,30215,15.736979166666666
3094,9.0,,,,,,,70.0,,,,,,0,note_on,,40.0,70.0,40.0,30215,15.736979166666666
3095,12.0,,,,,,,63.0,,,,,,0,note_on,,127.0,63.0,127.0,11216,5.841666666666667
3096,12.0,,,,,,,60.0,,,,,,0,note_on,,127.0,60.0,127.0,11216,5.841666666666667
3097,12.0,,,,,,,67.0,,,,,,0,note_on,,127.0,67.0,127.0,11216,5.841666666666667
3098,7.0,,,,,,,82.0,,,,,,45,note_on,,0.0,82.0,0.0,295,0.15364583333333334
3099,8.0,,,,,,,70.0,,,,,,0,note_on,,0.0,70.0,0.0,2239,1.1661458333333332
3100,3.0,,,,,,,79.0,,,,,,127,note_on,,0.0,79.0,0.0,31066,16.180208333333333
3101,9.0,,,,,,,70.0,,,,,,52,note_on,,0.0,70.0,0.0,30267,15.7640625
3102,9.0,,,,,,,42.0,,,,,,16,note_on,,0.0,42.0,0.0,30283,15.772395833333333
3103,8.0,,,,,,,87.0,,,,,,0,note_on,,45.0,87.0,45.0,2239,1.1661458333333332
3104,9.0,,,,,,,44.0,,,,,,0,note_on,,75.0,44.0,75.0,30283,15.772395833333333
3105,9.0,,,,,,,36.0,,,,,,0,note_on,,126.0,36.0,126.0,30283,15.772395833333333
3106,9.0,,,,,,,35.0,,,,,,0,note_on,,60.0,35.0,60.0,30283,15.772395833333333
3107,8.0,,,,,,,87.0,,,,,,125,note_on,,0.0,87.0,0.0,2364,1.23125
3108,12.0,,,,,,,60.0,,,,,,6,note_on,,0.0,60.0,0.0,11222,5.844791666666667
3109,12.0,,,,,,,67.0,,,,,,11,note_on,,0.0,67.0,0.0,11233,5.850520833333333
3110,12.0,,,,,,,63.0,,,,,,44,note_on,,0.0,63.0,0.0,11277,5.8734375
3111,9.0,,,,,,,36.0,,,,,,38,note_on,,0.0,36.0,0.0,30321,15.792187499999999
3112,9.0,,,,,,,35.0,,,,,,0,note_on,,0.0,35.0,0.0,30321,15.792187499999999
3113,9.0,,,,,,,44.0,,,,,,16,note_on,,0.0,44.0,0.0,30337,15.800520833333334
3114,3.0,,,,,,,77.0,,,,,,0,note_on,,127.0,77.0,127.0,31066,16.180208333333333
3115,7.0,,,,,,,75.0,,,,,,0,note_on,,127.0,75.0,127.0,295,0.15364583333333334
3116,8.0,,,,,,,63.0,,,,,,0,note_on,,127.0,63.0,127.0,2364,1.23125
3117,9.0,,,,,,,42.0,,,,,,0,note_on,,85.0,42.0,85.0,30337,15.800520833333334
3118,9.0,,,,,,,70.0,,,,,,0,note_on,,40.0,70.0,40.0,30337,15.800520833333334
3119,9.0,,,,,,,39.0,,,,,,0,note_on,,125.0,39.0,125.0,30337,15.800520833333334
3120,9.0,,,,,,,28.0,,,,,,0,note_on,,127.0,28.0,127.0,30337,15.800520833333334
3121,,,,,,,,,,,,,by ,0,lyrics,,,,,5,0.0026041666666666665
3122,9.0,,,,,,,28.0,,,,,,117,note_on,,0.0,28.0,0.0,30454,15.861458333333333
3123,9.0,,,,,,,39.0,,,,,,34,note_on,,0.0,39.0,0.0,30488,15.879166666666666
3124,9.0,,,,,,,42.0,,,,,,73,note_on,,0.0,42.0,0.0,30561,15.917187499999999
3125,9.0,,,,,,,70.0,,,,,,0,note_on,,0.0,70.0,0.0,30561,15.917187499999999
3126,8.0,,,,,,,87.0,,,,,,16,note_on,,45.0,87.0,45.0,2380,1.2395833333333333
3127,9.0,,,,,,,44.0,,,,,,0,note_on,,75.0,44.0,75.0,30561,15.917187499999999
3128,3.0,,,,,,,77.0,,,,,,43,note_on,,0.0,77.0,0.0,31109,16.202604166666667
3129,8.0,,,,,,,87.0,,,,,,88,note_on,,0.0,87.0,0.0,2468,1.2854166666666667
3130,9.0,,,,,,,44.0,,,,,,109,note_on,,0.0,44.0,0.0,30670,15.973958333333334
3131,3.0,,,,,,,84.0,,,,,,0,note_on,,127.0,84.0,127.0,31109,16.202604166666667
3132,9.0,,,,,,,42.0,,,,,,0,note_on,,85.0,42.0,85.0,30670,15.973958333333334
3133,9.0,,,,,,,70.0,,,,,,0,note_on,,40.0,70.0,40.0,30670,15.973958333333334
3134,9.0,,,,,,,36.0,,,,,,0,note_on,,126.0,36.0,126.0,30670,15.973958333333334
3135,9.0,,,,,,,35.0,,,,,,0,note_on,,60.0,35.0,60.0,30670,15.973958333333334
3136,,,,,,,,,,,,,noo ,0,lyrics,,,,,5,0.0026041666666666665
3137,,,,,,,,,,,,,,0,lyrics,,,,,5,0.0026041666666666665
3138,8.0,,,,,,,63.0,,,,,,51,note_on,,0.0,63.0,0.0,2519,1.3119791666666667
3139,7.0,,,,,,,75.0,,,,,,0,note_on,,0.0,75.0,0.0,295,0.15364583333333334
3140,9.0,,,,,,,35.0,,,,,,115,note_on,,0.0,35.0,0.0,30785,16.033854166666668
3141,9.0,,,,,,,36.0,,,,,,0,note_on,,0.0,36.0,0.0,30785,16.033854166666668
3142,9.0,,,,,,,70.0,,,,,,58,note_on,,0.0,70.0,0.0,30843,16.0640625
3143,9.0,,,,,,,42.0,,,,,,16,note_on,,0.0,42.0,0.0,30859,16.07239583333333
3144,8.0,,,,,,,87.0,,,,,,0,note_on,,45.0,87.0,45.0,2519,1.3119791666666667
3145,9.0,,,,,,,44.0,,,,,,0,note_on,,75.0,44.0,75.0,30859,16.07239583333333
3146,8.0,,,,,,,87.0,,,,,,123,note_on,,0.0,87.0,0.0,2642,1.3760416666666666
3147,9.0,,,,,,,44.0,,,,,,117,note_on,,0.0,44.0,0.0,30976,16.133333333333333
3148,7.0,,,,,,,77.0,,,,,,0,note_on,,127.0,77.0,127.0,295,0.15364583333333334
3149,8.0,,,,,,,65.0,,,,,,0,note_on,,127.0,65.0,127.0,2642,1.3760416666666666
3150,9.0,,,,,,,42.0,,,,,,0,note_on,,85.0,42.0,85.0,30976,16.133333333333333
3151,9.0,,,,,,,70.0,,,,,,0,note_on,,40.0,70.0,40.0,30976,16.133333333333333
3152,9.0,,,,,,,70.0,,,,,,224,note_on,,0.0,70.0,0.0,31200,16.25
3153,8.0,,,,,,,87.0,,,,,,16,note_on,,45.0,87.0,45.0,2658,1.384375
3154,9.0,,,,,,,44.0,,,,,,0,note_on,,75.0,44.0,75.0,31200,16.25
3155,8.0,,,,,,,87.0,,,,,,135,note_on,,0.0,87.0,0.0,2793,1.4546875
3156,9.0,,,,,,,44.0,,,,,,105,note_on,,0.0,44.0,0.0,31305,16.3046875
3157,9.0,,,,,,,42.0,,,,,,0,note_on,,85.0,42.0,85.0,31305,16.3046875
3158,9.0,,,,,,,70.0,,,,,,0,note_on,,40.0,70.0,40.0,31305,16.3046875
3159,9.0,,,,,,,36.0,,,,,,0,note_on,,126.0,36.0,126.0,31305,16.3046875
3160,9.0,,,,,,,35.0,,,,,,0,note_on,,60.0,35.0,60.0,31305,16.3046875
3161,3.0,,,,,,,84.0,,,,,,23,note_on,,0.0,84.0,0.0,31132,16.214583333333334
3162,8.0,,,,,,,65.0,,,,,,33,note_on,,0.0,65.0,0.0,2826,1.471875
3163,7.0,,,,,,,77.0,,,,,,0,note_on,,0.0,77.0,0.0,295,0.15364583333333334
3164,9.0,,,,,,,35.0,,,,,,98,note_on,,0.0,35.0,0.0,31403,16.355729166666666
3165,9.0,,,,,,,36.0,,,,,,0,note_on,,0.0,36.0,0.0,31403,16.355729166666666
3166,9.0,,,,,,,70.0,,,,,,70,note_on,,0.0,70.0,0.0,31473,16.3921875
3167,9.0,,,,,,,42.0,,,,,,16,note_on,,0.0,42.0,0.0,31489,16.40052083333333
3168,9.0,,,,,,,44.0,,,,,,0,note_on,,75.0,44.0,75.0,31489,16.40052083333333
3169,3.0,,,,,,,75.0,,,,,,234,note_on,,127.0,75.0,127.0,31366,16.336458333333333
3170,,,,,,,,,,,,,Like ,0,lyrics,,,,,5,0.0026041666666666665
3171,9.0,,,,,,,44.0,,,,,,6,note_on,,0.0,44.0,0.0,31495,16.403645833333332
3172,7.0,,,,,,,75.0,,,,,,0,note_on,,127.0,75.0,127.0,295,0.15364583333333334
3173,8.0,,,,,,,87.0,,,,,,0,note_on,,45.0,87.0,45.0,2826,1.471875
3174,8.0,,,,,,,63.0,,,,,,0,note_on,,127.0,63.0,127.0,2826,1.471875
3175,9.0,,,,,,,42.0,,,,,,0,note_on,,85.0,42.0,85.0,31495,16.403645833333332
3176,9.0,,,,,,,70.0,,,,,,0,note_on,,40.0,70.0,40.0,31495,16.403645833333332
3177,9.0,,,,,,,39.0,,,,,,0,note_on,,127.0,39.0,127.0,31495,16.403645833333332
3178,9.0,,,,,,,28.0,,,,,,0,note_on,,127.0,28.0,127.0,31495,16.403645833333332
3179,9.0,,,,,,,39.0,,,,,,123,note_on,,0.0,39.0,0.0,31618,16.467708333333334
3180,9.0,,,,,,,28.0,,,,,,2,note_on,,0.0,28.0,0.0,31620,16.46875
3181,8.0,,,,,,,87.0,,,,,,10,note_on,,0.0,87.0,0.0,2836,1.4770833333333333
3182,9.0,,,,,,,70.0,,,,,,89,note_on,,0.0,70.0,0.0,31709,16.515104166666667
3183,9.0,,,,,,,42.0,,,,,,0,note_on,,0.0,42.0,0.0,31709,16.515104166666667
3184,9.0,,,,,,,42.0,,,,,,16,note_on,,0.0,42.0,0.0,31725,16.5234375
3185,9.0,,,,,,,44.0,,,,,,0,note_on,,75.0,44.0,75.0,31725,16.5234375
3186,9.0,,,,,,,44.0,,,,,,240,note_on,,0.0,44.0,0.0,31965,16.6484375
3187,8.0,,,,,,,87.0,,,,,,0,note_on,,45.0,87.0,45.0,2836,1.4770833333333333
3188,9.0,,,,,,,42.0,,,,,,0,note_on,,85.0,42.0,85.0,31965,16.6484375
3189,9.0,,,,,,,61.0,,,,,,0,note_on,,100.0,61.0,100.0,31965,16.6484375
3190,9.0,,,,,,,70.0,,,,,,0,note_on,,40.0,70.0,40.0,31965,16.6484375
3191,7.0,,,,,,,75.0,,,,,,72,note_on,,0.0,75.0,0.0,367,0.19114583333333332
3192,8.0,,,,,,,63.0,,,,,,0,note_on,,0.0,63.0,0.0,2836,1.4770833333333333
3193,9.0,,,,,,,61.0,,,,,,42,note_on,,0.0,61.0,0.0,32007,16.6703125
3194,9.0,,,,,,,61.0,,,,,,6,note_on,,100.0,61.0,100.0,32013,16.6734375
3195,8.0,,,,,,,87.0,,,,,,4,note_on,,0.0,87.0,0.0,2840,1.4791666666666667
3196,5.0,,,,,,,55.0,,,,,,49,note_on,,0.0,55.0,0.0,375,0.1953125
3197,3.0,,,,,,,75.0,,,,,,31,note_on,,0.0,75.0,0.0,31397,16.352604166666666
3198,5.0,,,,,,,63.0,,,,,,15,note_on,,0.0,63.0,0.0,390,0.203125
3199,9.0,,,,,,,70.0,,,,,,5,note_on,,0.0,70.0,0.0,32018,16.676041666666666
3200,9.0,,,,,,,61.0,,,,,,10,note_on,,0.0,61.0,0.0,32028,16.68125
3201,9.0,,,,,,,42.0,,,,,,6,note_on,,0.0,42.0,0.0,32034,16.684375
3202,9.0,,,,,,,44.0,,,,,,0,note_on,,75.0,44.0,75.0,32034,16.684375
3203,9.0,,,,,,,61.0,,,,,,0,note_on,,100.0,61.0,100.0,32034,16.684375
3204,5.0,,,,,,,60.0,,,,,,35,note_on,,0.0,60.0,0.0,425,0.22135416666666666
3205,9.0,,,,,,,61.0,,,,,,79,note_on,,0.0,61.0,0.0,32113,16.725520833333334
3206,9.0,,,,,,,61.0,,,,,,6,note_on,,100.0,61.0,100.0,32119,16.72864583333333
3207,5.0,,,,,,,60.0,,,,,,65,note_on,,96.0,60.0,96.0,490,0.2552083333333333
3208,5.0,,,,,,,56.0,,,,,,29,note_on,,79.0,56.0,79.0,519,0.2703125
3209,5.0,,,,,,,63.0,,,,,,0,note_on,,94.0,63.0,94.0,519,0.2703125
3210,9.0,,,,,,,61.0,,,,,,20,note_on,,0.0,61.0,0.0,32139,16.7390625
3211,9.0,,,,,,,44.0,,,,,,6,note_on,,0.0,44.0,0.0,32145,16.7421875
3212,1.0,,,,,,,32.0,,,,,,0,note_on,,127.0,32.0,127.0,1242,0.646875
3213,7.0,,,,,,,82.0,,,,,,0,note_on,,127.0,82.0,127.0,367,0.19114583333333332
3214,8.0,,,,,,,44.0,,,,,,0,note_on,,127.0,44.0,127.0,2840,1.4791666666666667
3215,8.0,,,,,,,70.0,,,,,,0,note_on,,127.0,70.0,127.0,2840,1.4791666666666667
3216,9.0,,,,,,,61.0,,,,,,0,note_on,,100.0,61.0,100.0,32145,16.7421875
3217,9.0,,,,,,,42.0,,,,,,0,note_on,,85.0,42.0,85.0,32145,16.7421875
3218,9.0,,,,,,,70.0,,,,,,0,note_on,,40.0,70.0,40.0,32145,16.7421875
3219,9.0,,,,,,,36.0,,,,,,0,note_on,,126.0,36.0,126.0,32145,16.7421875
3220,9.0,,,,,,,35.0,,,,,,0,note_on,,60.0,35.0,60.0,32145,16.7421875
3221,11.0,,,,,,,60.0,,,,,,0,note_on,,127.0,60.0,127.0,15240,7.9375
3222,11.0,,,,,,,56.0,,,,,,0,note_on,,127.0,56.0,127.0,15240,7.9375
3223,11.0,,,,,,,63.0,,,,,,0,note_on,,127.0,63.0,127.0,15240,7.9375
3224,1.0,,,,,,,36.0,,,,,,24,note_on,,0.0,36.0,0.0,1266,0.659375
3225,3.0,,,,,,,79.0,,,,,,3,note_on,,127.0,79.0,127.0,31400,16.354166666666668
3226,,,,,,,,,,,,,ba ,0,lyrics,,,,,5,0.0026041666666666665
3227,8.0,,,,,,,48.0,,,,,,16,note_on,,0.0,48.0,0.0,2856,1.4875
3228,9.0,,,,,,,61.0,,,,,,71,note_on,,0.0,61.0,0.0,32216,16.779166666666665
3229,9.0,,,,,,,35.0,,,,,,58,note_on,,0.0,35.0,0.0,32274,16.809375
3230,9.0,,,,,,,36.0,,,,,,0,note_on,,0.0,36.0,0.0,32274,16.809375
3231,9.0,,,,,,,42.0,,,,,,52,note_on,,0.0,42.0,0.0,32326,16.836458333333333
3232,9.0,,,,,,,70.0,,,,,,0,note_on,,0.0,70.0,0.0,32326,16.836458333333333
3233,9.0,,,,,,,44.0,,,,,,16,note_on,,75.0,44.0,75.0,32342,16.844791666666666
3234,11.0,,,,,,,56.0,,,,,,191,note_on,,0.0,56.0,0.0,15431,8.036979166666667
3235,11.0,,,,,,,60.0,,,,,,25,note_on,,0.0,60.0,0.0,15456,8.05
3236,9.0,,,,,,,44.0,,,,,,24,note_on,,0.0,44.0,0.0,32366,16.857291666666665
3237,8.0,,,,,,,87.0,,,,,,0,note_on,,45.0,87.0,45.0,2856,1.4875
3238,9.0,,,,,,,42.0,,,,,,0,note_on,,85.0,42.0,85.0,32366,16.857291666666665
3239,9.0,,,,,,,70.0,,,,,,0,note_on,,40.0,70.0,40.0,32366,16.857291666666665
3240,10.0,,,,,,,60.0,,,,,,0,note_on,,127.0,60.0,127.0,7203,3.7515625
3241,10.0,,,,,,,56.0,,,,,,0,note_on,,127.0,56.0,127.0,7203,3.7515625
3242,10.0,,,,,,,63.0,,,,,,0,note_on,,127.0,63.0,127.0,7203,3.7515625
3243,11.0,,,,,,,63.0,,,,,,9,note_on,,0.0,63.0,0.0,15465,8.0546875
3244,7.0,,,,,,,82.0,,,,,,90,note_on,,0.0,82.0,0.0,457,0.23802083333333332
3245,8.0,,,,,,,70.0,,,,,,0,note_on,,0.0,70.0,0.0,2856,1.4875
3246,8.0,,,,,,,87.0,,,,,,24,note_on,,0.0,87.0,0.0,2880,1.5
3247,3.0,,,,,,,79.0,,,,,,52,note_on,,0.0,79.0,0.0,31452,16.38125
3248,9.0,,,,,,,70.0,,,,,,49,note_on,,0.0,70.0,0.0,32415,16.8828125
3249,9.0,,,,,,,42.0,,,,,,16,note_on,,0.0,42.0,0.0,32431,16.891145833333333
3250,9.0,,,,,,,44.0,,,,,,0,note_on,,75.0,44.0,75.0,32431,16.891145833333333
3251,9.0,,,,,,,36.0,,,,,,0,note_on,,126.0,36.0,126.0,32431,16.891145833333333
3252,9.0,,,,,,,35.0,,,,,,0,note_on,,60.0,35.0,60.0,32431,16.891145833333333
3253,10.0,,,,,,,56.0,,,,,,191,note_on,,0.0,56.0,0.0,7394,3.8510416666666667
3254,3.0,,,,,,,77.0,,,,,,23,note_on,,127.0,77.0,127.0,31475,16.393229166666668
3255,,,,,,,,,,,,,"by, ",0,lyrics,,,,,5,0.0026041666666666665
3256,10.0,,,,,,,60.0,,,,,,2,note_on,,0.0,60.0,0.0,7396,3.8520833333333333
3257,9.0,,,,,,,35.0,,,,,,8,note_on,,0.0,35.0,0.0,32439,16.8953125
3258,9.0,,,,,,,36.0,,,,,,0,note_on,,0.0,36.0,0.0,32439,16.8953125
3259,9.0,,,,,,,44.0,,,,,,16,note_on,,0.0,44.0,0.0,32455,16.903645833333332
3260,7.0,,,,,,,75.0,,,,,,0,note_on,,127.0,75.0,127.0,457,0.23802083333333332
3261,8.0,,,,,,,87.0,,,,,,0,note_on,,45.0,87.0,45.0,2880,1.5
3262,8.0,,,,,,,63.0,,,,,,0,note_on,,127.0,63.0,127.0,2880,1.5
3263,9.0,,,,,,,42.0,,,,,,0,note_on,,85.0,42.0,85.0,32455,16.903645833333332
3264,9.0,,,,,,,70.0,,,,,,0,note_on,,40.0,70.0,40.0,32455,16.903645833333332
3265,9.0,,,,,,,39.0,,,,,,0,note_on,,125.0,39.0,125.0,32455,16.903645833333332
3266,9.0,,,,,,,28.0,,,,,,0,note_on,,127.0,28.0,127.0,32455,16.903645833333332
3267,12.0,,,,,,,60.0,,,,,,0,note_on,,127.0,60.0,127.0,11277,5.8734375
3268,12.0,,,,,,,56.0,,,,,,0,note_on,,127.0,56.0,127.0,11277,5.8734375
3269,12.0,,,,,,,63.0,,,,,,0,note_on,,127.0,63.0,127.0,11277,5.8734375
3270,10.0,,,,,,,63.0,,,,,,9,note_on,,0.0,63.0,0.0,7405,3.8567708333333335
3271,9.0,,,,,,,28.0,,,,,,108,note_on,,0.0,28.0,0.0,32563,16.959895833333334
3272,8.0,,,,,,,87.0,,,,,,10,note_on,,0.0,87.0,0.0,2890,1.5052083333333333
3273,9.0,,,,,,,39.0,,,,,,24,note_on,,0.0,39.0,0.0,32587,16.972395833333334
3274,9.0,,,,,,,42.0,,,,,,73,note_on,,0.0,42.0,0.0,32660,17.010416666666668
3275,9.0,,,,,,,70.0,,,,,,0,note_on,,0.0,70.0,0.0,32660,17.010416666666668
3276,9.0,,,,,,,44.0,,,,,,16,note_on,,75.0,44.0,75.0,32676,17.01875
3277,12.0,,,,,,,56.0,,,,,,191,note_on,,0.0,56.0,0.0,11468,5.972916666666666
3278,12.0,,,,,,,60.0,,,,,,25,note_on,,0.0,60.0,0.0,11493,5.9859375
3279,9.0,,,,,,,44.0,,,,,,24,note_on,,0.0,44.0,0.0,32700,17.03125
3280,8.0,,,,,,,87.0,,,,,,0,note_on,,45.0,87.0,45.0,2890,1.5052083333333333
3281,9.0,,,,,,,42.0,,,,,,0,note_on,,85.0,42.0,85.0,32700,17.03125
3282,9.0,,,,,,,70.0,,,,,,0,note_on,,40.0,70.0,40.0,32700,17.03125
3283,9.0,,,,,,,36.0,,,,,,0,note_on,,126.0,36.0,126.0,32700,17.03125
3284,9.0,,,,,,,35.0,,,,,,0,note_on,,60.0,35.0,60.0,32700,17.03125
3285,12.0,,,,,,,63.0,,,,,,9,note_on,,0.0,63.0,0.0,11502,5.990625
3286,7.0,,,,,,,75.0,,,,,,17,note_on,,0.0,75.0,0.0,474,0.24687499999999998
3287,8.0,,,,,,,63.0,,,,,,0,note_on,,0.0,63.0,0.0,2890,1.5052083333333333
3288,8.0,,,,,,,87.0,,,,,,98,note_on,,0.0,87.0,0.0,2988,1.55625
3289,9.0,,,,,,,35.0,,,,,,42,note_on,,0.0,35.0,0.0,32742,17.053125
3290,9.0,,,,,,,36.0,,,,,,0,note_on,,0.0,36.0,0.0,32742,17.053125
3291,3.0,,,,,,,77.0,,,,,,5,note_on,,0.0,77.0,0.0,31480,16.395833333333332
3292,9.0,,,,,,,70.0,,,,,,53,note_on,,0.0,70.0,0.0,32795,17.080729166666668
3293,9.0,,,,,,,42.0,,,,,,16,note_on,,0.0,42.0,0.0,32811,17.0890625
3294,8.0,,,,,,,87.0,,,,,,0,note_on,,45.0,87.0,45.0,2988,1.55625
3295,9.0,,,,,,,44.0,,,,,,0,note_on,,75.0,44.0,75.0,32811,17.0890625
3296,8.0,,,,,,,87.0,,,,,,130,note_on,,0.0,87.0,0.0,3118,1.6239583333333334
3297,9.0,,,,,,,44.0,,,,,,110,note_on,,0.0,44.0,0.0,32921,17.146354166666665
3298,7.0,,,,,,,77.0,,,,,,0,note_on,,127.0,77.0,127.0,474,0.24687499999999998
3299,8.0,,,,,,,65.0,,,,,,0,note_on,,127.0,65.0,127.0,3118,1.6239583333333334
3300,9.0,,,,,,,42.0,,,,,,0,note_on,,85.0,42.0,85.0,32921,17.146354166666665
3301,9.0,,,,,,,70.0,,,,,,0,note_on,,40.0,70.0,40.0,32921,17.146354166666665
3302,3.0,,,,,,,79.0,,,,,,6,note_on,,127.0,79.0,127.0,31486,16.398958333333333
3303,,,,,,,,,,,,,ba ,0,lyrics,,,,,5,0.0026041666666666665
3304,9.0,,,,,,,70.0,,,,,,218,note_on,,0.0,70.0,0.0,33139,17.25989583333333
3305,9.0,,,,,,,42.0,,,,,,0,note_on,,0.0,42.0,0.0,33139,17.25989583333333
3306,9.0,,,,,,,44.0,,,,,,16,note_on,,75.0,44.0,75.0,33155,17.268229166666668
3307,9.0,,,,,,,44.0,,,,,,240,note_on,,0.0,44.0,0.0,33395,17.393229166666668
3308,8.0,,,,,,,87.0,,,,,,0,note_on,,45.0,87.0,45.0,3118,1.6239583333333334
3309,9.0,,,,,,,42.0,,,,,,0,note_on,,85.0,42.0,85.0,33395,17.393229166666668
3310,9.0,,,,,,,70.0,,,,,,0,note_on,,40.0,70.0,40.0,33395,17.393229166666668
3311,9.0,,,,,,,36.0,,,,,,0,note_on,,126.0,36.0,126.0,33395,17.393229166666668
3312,9.0,,,,,,,35.0,,,,,,0,note_on,,60.0,35.0,60.0,33395,17.393229166666668
3313,8.0,,,,,,,87.0,,,,,,116,note_on,,0.0,87.0,0.0,3234,1.684375
3314,8.0,,,,,,,65.0,,,,,,29,note_on,,0.0,65.0,0.0,3263,1.6994791666666667
3315,7.0,,,,,,,77.0,,,,,,0,note_on,,0.0,77.0,0.0,474,0.24687499999999998
3316,9.0,,,,,,,35.0,,,,,,9,note_on,,0.0,35.0,0.0,33404,17.397916666666667
3317,9.0,,,,,,,36.0,,,,,,0,note_on,,0.0,36.0,0.0,33404,17.397916666666667
3318,3.0,,,,,,,79.0,,,,,,53,note_on,,0.0,79.0,0.0,31539,16.4265625
3319,9.0,,,,,,,70.0,,,,,,17,note_on,,0.0,70.0,0.0,33421,17.406770833333333
3320,9.0,,,,,,,42.0,,,,,,16,note_on,,0.0,42.0,0.0,33437,17.415104166666666
3321,9.0,,,,,,,44.0,,,,,,0,note_on,,75.0,44.0,75.0,33437,17.415104166666666
3322,9.0,,,,,,,44.0,,,,,,240,note_on,,0.0,44.0,0.0,33677,17.540104166666666
3323,7.0,,,,,,,70.0,,,,,,0,note_on,,127.0,70.0,127.0,474,0.24687499999999998
3324,8.0,,,,,,,87.0,,,,,,0,note_on,,45.0,87.0,45.0,3263,1.6994791666666667
3325,8.0,,,,,,,58.0,,,,,,0,note_on,,127.0,58.0,127.0,3263,1.6994791666666667
3326,9.0,,,,,,,42.0,,,,,,0,note_on,,85.0,42.0,85.0,33677,17.540104166666666
3327,9.0,,,,,,,70.0,,,,,,0,note_on,,40.0,70.0,40.0,33677,17.540104166666666
3328,9.0,,,,,,,39.0,,,,,,0,note_on,,127.0,39.0,127.0,33677,17.540104166666666
3329,9.0,,,,,,,28.0,,,,,,0,note_on,,127.0,28.0,127.0,33677,17.540104166666666
3330,11.0,,,,,,,60.0,,,,,,0,note_on,,127.0,60.0,127.0,15465,8.0546875
3331,11.0,,,,,,,65.0,,,,,,0,note_on,,127.0,65.0,127.0,15465,8.0546875
3332,11.0,,,,,,,56.0,,,,,,0,note_on,,127.0,56.0,127.0,15465,8.0546875
3333,3.0,,,,,,,77.0,,,,,,2,note_on,,127.0,77.0,127.0,31541,16.427604166666665
3334,,,,,,,,,,,,,"by, ",0,lyrics,,,,,5,0.0026041666666666665
3335,9.0,,,,,,,39.0,,,,,,121,note_on,,0.0,39.0,0.0,33798,17.603125
3336,9.0,,,,,,,28.0,,,,,,2,note_on,,0.0,28.0,0.0,33800,17.604166666666668
3337,8.0,,,,,,,87.0,,,,,,1,note_on,,0.0,87.0,0.0,3264,1.7
3338,3.0,,,,,,,77.0,,,,,,70,note_on,,0.0,77.0,0.0,31611,16.4640625
3339,9.0,,,,,,,42.0,,,,,,28,note_on,,0.0,42.0,0.0,33828,17.61875
3340,9.0,,,,,,,70.0,,,,,,0,note_on,,0.0,70.0,0.0,33828,17.61875
3341,9.0,,,,,,,44.0,,,,,,16,note_on,,75.0,44.0,75.0,33844,17.62708333333333
3342,11.0,,,,,,,65.0,,,,,,144,note_on,,0.0,65.0,0.0,15609,8.1296875
3343,11.0,,,,,,,56.0,,,,,,10,note_on,,0.0,56.0,0.0,15619,8.134895833333333
3344,11.0,,,,,,,60.0,,,,,,21,note_on,,0.0,60.0,0.0,15640,8.145833333333334
3345,3.0,,,,,,,79.0,,,,,,56,note_on,,127.0,79.0,127.0,31667,16.493229166666666
3346,,,,,,,,,,,,,ba ,0,lyrics,,,,,5,0.0026041666666666665
3347,9.0,,,,,,,44.0,,,,,,9,note_on,,0.0,44.0,0.0,33853,17.631770833333334
3348,8.0,,,,,,,87.0,,,,,,0,note_on,,45.0,87.0,45.0,3264,1.7
3349,9.0,,,,,,,42.0,,,,,,0,note_on,,85.0,42.0,85.0,33853,17.631770833333334
3350,9.0,,,,,,,70.0,,,,,,0,note_on,,40.0,70.0,40.0,33853,17.631770833333334
3351,10.0,,,,,,,60.0,,,,,,0,note_on,,127.0,60.0,127.0,7405,3.8567708333333335
3352,10.0,,,,,,,65.0,,,,,,0,note_on,,127.0,65.0,127.0,7405,3.8567708333333335
3353,10.0,,,,,,,56.0,,,,,,0,note_on,,127.0,56.0,127.0,7405,3.8567708333333335
3354,11.0,,,,,,,60.0,,,,,,0,note_on,,127.0,60.0,127.0,15640,8.145833333333334
3355,11.0,,,,,,,56.0,,,,,,0,note_on,,124.0,56.0,124.0,15640,8.145833333333334
3356,11.0,,,,,,,63.0,,,,,,0,note_on,,127.0,63.0,127.0,15640,8.145833333333334
3357,8.0,,,,,,,58.0,,,,,,97,note_on,,0.0,58.0,0.0,3361,1.7505208333333333
3358,7.0,,,,,,,70.0,,,,,,0,note_on,,0.0,70.0,0.0,474,0.24687499999999998
3359,8.0,,,,,,,87.0,,,,,,16,note_on,,0.0,87.0,0.0,3377,1.7588541666666666
3360,9.0,,,,,,,70.0,,,,,,111,note_on,,0.0,70.0,0.0,33964,17.68958333333333
3361,9.0,,,,,,,42.0,,,,,,16,note_on,,0.0,42.0,0.0,33980,17.697916666666668
3362,9.0,,,,,,,44.0,,,,,,0,note_on,,75.0,44.0,75.0,33980,17.697916666666668
3363,10.0,,,,,,,65.0,,,,,,144,note_on,,0.0,65.0,0.0,7549,3.931770833333333
3364,10.0,,,,,,,56.0,,,,,,10,note_on,,0.0,56.0,0.0,7559,3.9369791666666667
3365,10.0,,,,,,,60.0,,,,,,21,note_on,,0.0,60.0,0.0,7580,3.9479166666666665
3366,11.0,,,,,,,56.0,,,,,,46,note_on,,0.0,56.0,0.0,15686,8.169791666666667
3367,9.0,,,,,,,44.0,,,,,,19,note_on,,0.0,44.0,0.0,33999,17.7078125
3368,7.0,,,,,,,82.0,,,,,,0,note_on,,127.0,82.0,127.0,474,0.24687499999999998
3369,8.0,,,,,,,70.0,,,,,,0,note_on,,127.0,70.0,127.0,3377,1.7588541666666666
3370,9.0,,,,,,,42.0,,,,,,0,note_on,,85.0,42.0,85.0,33999,17.7078125
3371,9.0,,,,,,,70.0,,,,,,0,note_on,,40.0,70.0,40.0,33999,17.7078125
3372,9.0,,,,,,,36.0,,,,,,0,note_on,,126.0,36.0,126.0,33999,17.7078125
3373,9.0,,,,,,,35.0,,,,,,0,note_on,,60.0,35.0,60.0,33999,17.7078125
3374,10.0,,,,,,,60.0,,,,,,0,note_on,,127.0,60.0,127.0,7580,3.9479166666666665
3375,10.0,,,,,,,56.0,,,,,,0,note_on,,124.0,56.0,124.0,7580,3.9479166666666665
3376,10.0,,,,,,,63.0,,,,,,0,note_on,,127.0,63.0,127.0,7580,3.9479166666666665
3377,12.0,,,,,,,60.0,,,,,,0,note_on,,127.0,60.0,127.0,11502,5.990625
3378,12.0,,,,,,,65.0,,,,,,0,note_on,,127.0,65.0,127.0,11502,5.990625
3379,12.0,,,,,,,56.0,,,,,,0,note_on,,127.0,56.0,127.0,11502,5.990625
3380,11.0,,,,,,,63.0,,,,,,14,note_on,,0.0,63.0,0.0,15700,8.177083333333334
3381,11.0,,,,,,,60.0,,,,,,6,note_on,,0.0,60.0,0.0,15706,8.180208333333333
3382,9.0,,,,,,,35.0,,,,,,152,note_on,,0.0,35.0,0.0,34151,17.786979166666665
3383,9.0,,,,,,,36.0,,,,,,0,note_on,,0.0,36.0,0.0,34151,17.786979166666665
3384,9.0,,,,,,,42.0,,,,,,52,note_on,,0.0,42.0,0.0,34203,17.8140625
3385,9.0,,,,,,,70.0,,,,,,0,note_on,,0.0,70.0,0.0,34203,17.8140625
3386,3.0,,,,,,,79.0,,,,,,16,note_on,,0.0,79.0,0.0,31683,16.5015625
3387,8.0,,,,,,,87.0,,,,,,0,note_on,,45.0,87.0,45.0,3377,1.7588541666666666
3388,9.0,,,,,,,44.0,,,,,,0,note_on,,75.0,44.0,75.0,34203,17.8140625
3389,8.0,,,,,,,87.0,,,,,,131,note_on,,0.0,87.0,0.0,3508,1.8270833333333334
3390,12.0,,,,,,,65.0,,,,,,13,note_on,,0.0,65.0,0.0,11515,5.997395833333333
3391,12.0,,,,,,,56.0,,,,,,10,note_on,,0.0,56.0,0.0,11525,6.002604166666667
3392,3.0,,,,,,,77.0,,,,,,8,note_on,,127.0,77.0,127.0,31691,16.505729166666665
3393,,,,,,,,,,,,,by ,0,lyrics,,,,,5,0.0026041666666666665
3394,12.0,,,,,,,60.0,,,,,,13,note_on,,0.0,60.0,0.0,11538,6.009375
3395,10.0,,,,,,,56.0,,,,,,46,note_on,,0.0,56.0,0.0,7626,3.971875
3396,9.0,,,,,,,44.0,,,,,,19,note_on,,0.0,44.0,0.0,34222,17.823958333333334
3397,9.0,,,,,,,42.0,,,,,,0,note_on,,85.0,42.0,85.0,34222,17.823958333333334
3398,9.0,,,,,,,70.0,,,,,,0,note_on,,40.0,70.0,40.0,34222,17.823958333333334
3399,12.0,,,,,,,60.0,,,,,,0,note_on,,127.0,60.0,127.0,11538,6.009375
3400,12.0,,,,,,,56.0,,,,,,0,note_on,,124.0,56.0,124.0,11538,6.009375
3401,12.0,,,,,,,63.0,,,,,,0,note_on,,127.0,63.0,127.0,11538,6.009375
3402,10.0,,,,,,,63.0,,,,,,14,note_on,,0.0,63.0,0.0,7640,3.9791666666666665
3403,7.0,,,,,,,82.0,,,,,,0,note_on,,0.0,82.0,0.0,474,0.24687499999999998
3404,8.0,,,,,,,70.0,,,,,,0,note_on,,0.0,70.0,0.0,3508,1.8270833333333334
3405,10.0,,,,,,,60.0,,,,,,6,note_on,,0.0,60.0,0.0,7646,3.982291666666667
3406,9.0,,,,,,,70.0,,,,,,204,note_on,,0.0,70.0,0.0,34426,17.930208333333333
3407,9.0,,,,,,,42.0,,,,,,16,note_on,,0.0,42.0,0.0,34442,17.938541666666666
3408,8.0,,,,,,,87.0,,,,,,0,note_on,,45.0,87.0,45.0,3508,1.8270833333333334
3409,9.0,,,,,,,44.0,,,,,,0,note_on,,75.0,44.0,75.0,34442,17.938541666666666
3410,9.0,,,,,,,36.0,,,,,,0,note_on,,126.0,36.0,126.0,34442,17.938541666666666
3411,9.0,,,,,,,35.0,,,,,,0,note_on,,60.0,35.0,60.0,34442,17.938541666666666
3412,8.0,,,,,,,87.0,,,,,,136,note_on,,0.0,87.0,0.0,3644,1.8979166666666667
3413,12.0,,,,,,,56.0,,,,,,85,note_on,,0.0,56.0,0.0,11623,6.053645833333333
3414,9.0,,,,,,,35.0,,,,,,3,note_on,,0.0,35.0,0.0,34445,17.940104166666668
3415,9.0,,,,,,,36.0,,,,,,0,note_on,,0.0,36.0,0.0,34445,17.940104166666668
3416,9.0,,,,,,,44.0,,,,,,16,note_on,,0.0,44.0,0.0,34461,17.9484375
3417,7.0,,,,,,,75.0,,,,,,0,note_on,,127.0,75.0,127.0,474,0.24687499999999998
3418,8.0,,,,,,,63.0,,,,,,0,note_on,,127.0,63.0,127.0,3644,1.8979166666666667
3419,9.0,,,,,,,42.0,,,,,,0,note_on,,85.0,42.0,85.0,34461,17.9484375
3420,9.0,,,,,,,70.0,,,,,,0,note_on,,40.0,70.0,40.0,34461,17.9484375
3421,9.0,,,,,,,39.0,,,,,,0,note_on,,125.0,39.0,125.0,34461,17.9484375
3422,9.0,,,,,,,28.0,,,,,,0,note_on,,127.0,28.0,127.0,34461,17.9484375
3423,12.0,,,,,,,63.0,,,,,,14,note_on,,0.0,63.0,0.0,11637,6.0609375
3424,12.0,,,,,,,60.0,,,,,,6,note_on,,0.0,60.0,0.0,11643,6.0640625
3425,9.0,,,,,,,28.0,,,,,,97,note_on,,0.0,28.0,0.0,34558,17.998958333333334
3426,9.0,,,,,,,39.0,,,,,,34,note_on,,0.0,39.0,0.0,34592,18.016666666666666
3427,9.0,,,,,,,70.0,,,,,,73,note_on,,0.0,70.0,0.0,34665,18.0546875
3428,9.0,,,,,,,42.0,,,,,,0,note_on,,0.0,42.0,0.0,34665,18.0546875
3429,8.0,,,,,,,87.0,,,,,,16,note_on,,45.0,87.0,45.0,3660,1.90625
3430,9.0,,,,,,,44.0,,,,,,0,note_on,,75.0,44.0,75.0,34665,18.0546875
3431,3.0,,,,,,,77.0,,,,,,55,note_on,,0.0,77.0,0.0,31746,16.534375
3432,8.0,,,,,,,87.0,,,,,,77,note_on,,0.0,87.0,0.0,3737,1.9463541666666666
3433,3.0,,,,,,,82.0,,,,,,33,note_on,,127.0,82.0,127.0,31779,16.5515625
3434,,,,,,,,,,,,,ohh ,0,lyrics,,,,,5,0.0026041666666666665
3435,,,,,,,,,,,,,,0,lyrics,,,,,5,0.0026041666666666665
3436,9.0,,,,,,,44.0,,,,,,75,note_on,,0.0,44.0,0.0,34740,18.09375
3437,9.0,,,,,,,42.0,,,,,,0,note_on,,85.0,42.0,85.0,34740,18.09375
3438,9.0,,,,,,,70.0,,,,,,0,note_on,,40.0,70.0,40.0,34740,18.09375
3439,9.0,,,,,,,36.0,,,,,,0,note_on,,126.0,36.0,126.0,34740,18.09375
3440,9.0,,,,,,,35.0,,,,,,0,note_on,,60.0,35.0,60.0,34740,18.09375
3441,7.0,,,,,,,75.0,,,,,,87,note_on,,0.0,75.0,0.0,561,0.2921875
3442,8.0,,,,,,,63.0,,,,,,0,note_on,,0.0,63.0,0.0,3737,1.9463541666666666
3443,9.0,,,,,,,36.0,,,,,,79,note_on,,0.0,36.0,0.0,34819,18.13489583333333
3444,9.0,,,,,,,35.0,,,,,,0,note_on,,0.0,35.0,0.0,34819,18.13489583333333
3445,9.0,,,,,,,70.0,,,,,,58,note_on,,0.0,70.0,0.0,34877,18.165104166666666
3446,9.0,,,,,,,42.0,,,,,,16,note_on,,0.0,42.0,0.0,34893,18.1734375
3447,8.0,,,,,,,87.0,,,,,,0,note_on,,45.0,87.0,45.0,3737,1.9463541666666666
3448,9.0,,,,,,,44.0,,,,,,0,note_on,,75.0,44.0,75.0,34893,18.1734375
3449,8.0,,,,,,,87.0,,,,,,137,note_on,,0.0,87.0,0.0,3874,2.017708333333333
3450,9.0,,,,,,,44.0,,,,,,103,note_on,,0.0,44.0,0.0,34996,18.227083333333333
3451,7.0,,,,,,,77.0,,,,,,0,note_on,,127.0,77.0,127.0,561,0.2921875
3452,8.0,,,,,,,65.0,,,,,,0,note_on,,127.0,65.0,127.0,3874,2.017708333333333
3453,9.0,,,,,,,42.0,,,,,,0,note_on,,85.0,42.0,85.0,34996,18.227083333333333
3454,9.0,,,,,,,70.0,,,,,,0,note_on,,40.0,70.0,40.0,34996,18.227083333333333
3455,9.0,,,,,,,70.0,,,,,,224,note_on,,0.0,70.0,0.0,35220,18.34375
3456,9.0,,,,,,,44.0,,,,,,16,note_on,,75.0,44.0,75.0,35236,18.352083333333333
3457,9.0,,,,,,,44.0,,,,,,240,note_on,,0.0,44.0,0.0,35476,18.477083333333333
3458,8.0,,,,,,,87.0,,,,,,0,note_on,,45.0,87.0,45.0,3874,2.017708333333333
3459,9.0,,,,,,,42.0,,,,,,0,note_on,,85.0,42.0,85.0,35476,18.477083333333333
3460,9.0,,,,,,,70.0,,,,,,0,note_on,,40.0,70.0,40.0,35476,18.477083333333333
3461,9.0,,,,,,,36.0,,,,,,0,note_on,,126.0,36.0,126.0,35476,18.477083333333333
3462,9.0,,,,,,,35.0,,,,,,0,note_on,,60.0,35.0,60.0,35476,18.477083333333333
3463,3.0,,,,,,,82.0,,,,,,27,note_on,,0.0,82.0,0.0,31806,16.565625
3464,8.0,,,,,,,65.0,,,,,,8,note_on,,0.0,65.0,0.0,3882,2.021875
3465,7.0,,,,,,,77.0,,,,,,0,note_on,,0.0,77.0,0.0,561,0.2921875
3466,8.0,,,,,,,87.0,,,,,,98,note_on,,0.0,87.0,0.0,3980,2.0729166666666665
3467,9.0,,,,,,,35.0,,,,,,21,note_on,,0.0,35.0,0.0,35497,18.488020833333334
3468,9.0,,,,,,,36.0,,,,,,0,note_on,,0.0,36.0,0.0,35497,18.488020833333334
3469,9.0,,,,,,,70.0,,,,,,70,note_on,,0.0,70.0,0.0,35567,18.524479166666666
3470,9.0,,,,,,,42.0,,,,,,16,note_on,,0.0,42.0,0.0,35583,18.5328125
3471,9.0,,,,,,,44.0,,,,,,0,note_on,,75.0,44.0,75.0,35583,18.5328125
3472,9.0,,,,,,,44.0,,,,,,240,note_on,,0.0,44.0,0.0,35823,18.6578125
3473,7.0,,,,,,,75.0,,,,,,0,note_on,,127.0,75.0,127.0,561,0.2921875
3474,8.0,,,,,,,87.0,,,,,,0,note_on,,45.0,87.0,45.0,3980,2.0729166666666665
3475,8.0,,,,,,,63.0,,,,,,0,note_on,,127.0,63.0,127.0,3980,2.0729166666666665
3476,9.0,,,,,,,42.0,,,,,,0,note_on,,85.0,42.0,85.0,35823,18.6578125
3477,9.0,,,,,,,70.0,,,,,,0,note_on,,40.0,70.0,40.0,35823,18.6578125
3478,9.0,,,,,,,39.0,,,,,,0,note_on,,127.0,39.0,127.0,35823,18.6578125
3479,9.0,,,,,,,28.0,,,,,,0,note_on,,127.0,28.0,127.0,35823,18.6578125
3480,9.0,,,,,,,39.0,,,,,,123,note_on,,0.0,39.0,0.0,35946,18.721875
3481,9.0,,,,,,,28.0,,,,,,2,note_on,,0.0,28.0,0.0,35948,18.722916666666666
3482,8.0,,,,,,,87.0,,,,,,2,note_on,,0.0,87.0,0.0,3982,2.073958333333333
3483,9.0,,,,,,,42.0,,,,,,97,note_on,,0.0,42.0,0.0,36045,18.7734375
3484,9.0,,,,,,,70.0,,,,,,0,note_on,,0.0,70.0,0.0,36045,18.7734375
3485,9.0,,,,,,,42.0,,,,,,16,note_on,,0.0,42.0,0.0,36061,18.781770833333333
3486,9.0,,,,,,,44.0,,,,,,0,note_on,,75.0,44.0,75.0,36061,18.781770833333333
3487,9.0,,,,,,,44.0,,,,,,240,note_on,,0.0,44.0,0.0,36301,18.906770833333333
3488,8.0,,,,,,,87.0,,,,,,0,note_on,,45.0,87.0,45.0,3982,2.073958333333333
3489,9.0,,,,,,,42.0,,,,,,0,note_on,,85.0,42.0,85.0,36301,18.906770833333333
3490,9.0,,,,,,,61.0,,,,,,0,note_on,,100.0,61.0,100.0,36301,18.906770833333333
3491,9.0,,,,,,,70.0,,,,,,0,note_on,,40.0,70.0,40.0,36301,18.906770833333333
3492,7.0,,,,,,,75.0,,,,,,91,note_on,,0.0,75.0,0.0,652,0.33958333333333335
3493,8.0,,,,,,,63.0,,,,,,0,note_on,,0.0,63.0,0.0,3982,2.073958333333333
3494,9.0,,,,,,,61.0,,,,,,23,note_on,,0.0,61.0,0.0,36324,18.91875
3495,8.0,,,,,,,87.0,,,,,,4,note_on,,0.0,87.0,0.0,3986,2.076041666666667
3496,9.0,,,,,,,61.0,,,,,,2,note_on,,100.0,61.0,100.0,36326,18.919791666666665
3497,9.0,,,,,,,70.0,,,,,,104,note_on,,0.0,70.0,0.0,36430,18.973958333333332
3498,5.0,,,,,,,63.0,,,,,,9,note_on,,0.0,63.0,0.0,528,0.275
3499,9.0,,,,,,,61.0,,,,,,1,note_on,,0.0,61.0,0.0,36431,18.974479166666665
3500,9.0,,,,,,,42.0,,,,,,6,note_on,,0.0,42.0,0.0,36437,18.977604166666666
3501,9.0,,,,,,,44.0,,,,,,0,note_on,,75.0,44.0,75.0,36437,18.977604166666666
3502,9.0,,,,,,,61.0,,,,,,0,note_on,,100.0,61.0,100.0,36437,18.977604166666666
3503,5.0,,,,,,,56.0,,,,,,12,note_on,,0.0,56.0,0.0,540,0.28125
3504,5.0,,,,,,,60.0,,,,,,20,note_on,,0.0,60.0,0.0,560,0.2916666666666667
3505,9.0,,,,,,,61.0,,,,,,82,note_on,,0.0,61.0,0.0,36519,19.0203125
3506,9.0,,,,,,,61.0,,,,,,6,note_on,,100.0,61.0,100.0,36525,19.0234375
3507,8.0,,,,,,,44.0,,,,,,80,note_on,,0.0,44.0,0.0,4066,2.1177083333333333
3508,9.0,,,,,,,61.0,,,,,,34,note_on,,0.0,61.0,0.0,36559,19.04114583333333
3509,9.0,,,,,,,44.0,,,,,,6,note_on,,0.0,44.0,0.0,36565,19.044270833333332
3510,1.0,,,,,,,34.0,,,,,,0,note_on,,127.0,34.0,127.0,1266,0.659375
3511,3.0,,,,,,,79.0,,,,,,0,note_on,,127.0,79.0,127.0,31806,16.565625
3512,7.0,,,,,,,82.0,,,,,,0,note_on,,127.0,82.0,127.0,652,0.33958333333333335
3513,8.0,,,,,,,46.0,,,,,,0,note_on,,127.0,46.0,127.0,4066,2.1177083333333333
3514,8.0,,,,,,,70.0,,,,,,0,note_on,,127.0,70.0,127.0,4066,2.1177083333333333
3515,9.0,,,,,,,61.0,,,,,,0,note_on,,100.0,61.0,100.0,36565,19.044270833333332
3516,9.0,,,,,,,42.0,,,,,,0,note_on,,85.0,42.0,85.0,36565,19.044270833333332
3517,9.0,,,,,,,70.0,,,,,,0,note_on,,40.0,70.0,40.0,36565,19.044270833333332
3518,9.0,,,,,,,36.0,,,,,,0,note_on,,126.0,36.0,126.0,36565,19.044270833333332
3519,9.0,,,,,,,35.0,,,,,,0,note_on,,60.0,35.0,60.0,36565,19.044270833333332
3520,11.0,,,,,,,62.0,,,,,,0,note_on,,127.0,62.0,127.0,15706,8.180208333333333
3521,11.0,,,,,,,58.0,,,,,,0,note_on,,127.0,58.0,127.0,15706,8.180208333333333
3522,11.0,,,,,,,65.0,,,,,,0,note_on,,127.0,65.0,127.0,15706,8.180208333333333
3523,,,,,,,,,,,,,I ,0,lyrics,,,,,5,0.0026041666666666665
3524,1.0,,,,,,,32.0,,,,,,6,note_on,,0.0,32.0,0.0,1272,0.6625
3525,5.0,,,,,,,58.0,,,,,,3,note_on,,60.0,58.0,60.0,563,0.29322916666666665
3526,5.0,,,,,,,62.0,,,,,,17,note_on,,61.0,62.0,61.0,580,0.3020833333333333
3527,5.0,,,,,,,53.0,,,,,,10,note_on,,74.0,53.0,74.0,590,0.3072916666666667
3528,9.0,,,,,,,61.0,,,,,,78,note_on,,0.0,61.0,0.0,36643,19.084895833333334
3529,9.0,,,,,,,35.0,,,,,,58,note_on,,0.0,35.0,0.0,36701,19.115104166666665
3530,9.0,,,,,,,36.0,,,,,,0,note_on,,0.0,36.0,0.0,36701,19.115104166666665
3531,3.0,,,,,,,79.0,,,,,,32,note_on,,0.0,79.0,0.0,31838,16.582291666666666
3532,9.0,,,,,,,42.0,,,,,,20,note_on,,0.0,42.0,0.0,36721,19.125520833333333
3533,9.0,,,,,,,70.0,,,,,,0,note_on,,0.0,70.0,0.0,36721,19.125520833333333
3534,9.0,,,,,,,44.0,,,,,,16,note_on,,75.0,44.0,75.0,36737,19.133854166666666
3535,11.0,,,,,,,58.0,,,,,,234,note_on,,0.0,58.0,0.0,15940,8.302083333333334
3536,9.0,,,,,,,44.0,,,,,,6,note_on,,0.0,44.0,0.0,36743,19.136979166666666
3537,3.0,,,,,,,77.0,,,,,,0,note_on,,127.0,77.0,127.0,31838,16.582291666666666
3538,8.0,,,,,,,87.0,,,,,,0,note_on,,45.0,87.0,45.0,4066,2.1177083333333333
3539,9.0,,,,,,,42.0,,,,,,0,note_on,,85.0,42.0,85.0,36743,19.136979166666666
3540,9.0,,,,,,,70.0,,,,,,0,note_on,,40.0,70.0,40.0,36743,19.136979166666666
3541,10.0,,,,,,,62.0,,,,,,0,note_on,,127.0,62.0,127.0,7646,3.982291666666667
3542,10.0,,,,,,,58.0,,,,,,0,note_on,,127.0,58.0,127.0,7646,3.982291666666667
3543,10.0,,,,,,,65.0,,,,,,0,note_on,,127.0,65.0,127.0,7646,3.982291666666667
3544,,,,,,,,,,,,,thought ,0,lyrics,,,,,5,0.0026041666666666665
3545,8.0,,,,,,,70.0,,,,,,29,note_on,,0.0,70.0,0.0,4095,2.1328125
3546,7.0,,,,,,,82.0,,,,,,0,note_on,,0.0,82.0,0.0,652,0.33958333333333335
3547,11.0,,,,,,,65.0,,,,,,18,note_on,,0.0,65.0,0.0,15958,8.311458333333333
3548,11.0,,,,,,,62.0,,,,,,2,note_on,,0.0,62.0,0.0,15960,8.3125
3549,8.0,,,,,,,87.0,,,,,,67,note_on,,0.0,87.0,0.0,4162,2.167708333333333
3550,3.0,,,,,,,77.0,,,,,,88,note_on,,0.0,77.0,0.0,31926,16.628125
3551,9.0,,,,,,,70.0,,,,,,20,note_on,,0.0,70.0,0.0,36763,19.147395833333334
3552,9.0,,,,,,,42.0,,,,,,16,note_on,,0.0,42.0,0.0,36779,19.155729166666667
3553,8.0,,,,,,,87.0,,,,,,0,note_on,,45.0,87.0,45.0,4162,2.167708333333333
3554,9.0,,,,,,,44.0,,,,,,0,note_on,,75.0,44.0,75.0,36779,19.155729166666667
3555,9.0,,,,,,,36.0,,,,,,0,note_on,,126.0,36.0,126.0,36779,19.155729166666667
3556,9.0,,,,,,,35.0,,,,,,0,note_on,,60.0,35.0,60.0,36779,19.155729166666667
3557,8.0,,,,,,,87.0,,,,,,112,note_on,,0.0,87.0,0.0,4274,2.2260416666666667
3558,9.0,,,,,,,35.0,,,,,,112,note_on,,0.0,35.0,0.0,36891,19.2140625
3559,9.0,,,,,,,36.0,,,,,,0,note_on,,0.0,36.0,0.0,36891,19.2140625
3560,10.0,,,,,,,58.0,,,,,,10,note_on,,0.0,58.0,0.0,7656,3.9875
3561,9.0,,,,,,,44.0,,,,,,6,note_on,,0.0,44.0,0.0,36897,19.2171875
3562,3.0,,,,,,,79.0,,,,,,0,note_on,,127.0,79.0,127.0,31926,16.628125
3563,7.0,,,,,,,75.0,,,,,,0,note_on,,127.0,75.0,127.0,652,0.33958333333333335
3564,8.0,,,,,,,63.0,,,,,,0,note_on,,127.0,63.0,127.0,4274,2.2260416666666667
3565,9.0,,,,,,,42.0,,,,,,0,note_on,,85.0,42.0,85.0,36897,19.2171875
3566,9.0,,,,,,,70.0,,,,,,0,note_on,,40.0,70.0,40.0,36897,19.2171875
3567,9.0,,,,,,,39.0,,,,,,0,note_on,,125.0,39.0,125.0,36897,19.2171875
3568,9.0,,,,,,,28.0,,,,,,0,note_on,,127.0,28.0,127.0,36897,19.2171875
3569,12.0,,,,,,,62.0,,,,,,0,note_on,,127.0,62.0,127.0,11643,6.0640625
3570,12.0,,,,,,,58.0,,,,,,0,note_on,,127.0,58.0,127.0,11643,6.0640625
3571,12.0,,,,,,,65.0,,,,,,0,note_on,,127.0,65.0,127.0,11643,6.0640625
3572,,,,,,,,,,,,,youd ,0,lyrics,,,,,5,0.0026041666666666665
3573,10.0,,,,,,,65.0,,,,,,47,note_on,,0.0,65.0,0.0,7703,4.011979166666666
3574,10.0,,,,,,,62.0,,,,,,2,note_on,,0.0,62.0,0.0,7705,4.013020833333333
3575,9.0,,,,,,,28.0,,,,,,68,note_on,,0.0,28.0,0.0,36965,19.252604166666668
3576,9.0,,,,,,,39.0,,,,,,34,note_on,,0.0,39.0,0.0,36999,19.2703125
3577,9.0,,,,,,,42.0,,,,,,73,note_on,,0.0,42.0,0.0,37072,19.308333333333334
3578,9.0,,,,,,,70.0,,,,,,0,note_on,,0.0,70.0,0.0,37072,19.308333333333334
3579,9.0,,,,,,,44.0,,,,,,16,note_on,,75.0,44.0,75.0,37088,19.316666666666666
3580,12.0,,,,,,,58.0,,,,,,234,note_on,,0.0,58.0,0.0,11877,6.1859375
3581,9.0,,,,,,,44.0,,,,,,6,note_on,,0.0,44.0,0.0,37094,19.319791666666667
3582,8.0,,,,,,,87.0,,,,,,0,note_on,,45.0,87.0,45.0,4274,2.2260416666666667
3583,9.0,,,,,,,42.0,,,,,,0,note_on,,85.0,42.0,85.0,37094,19.319791666666667
3584,9.0,,,,,,,70.0,,,,,,0,note_on,,40.0,70.0,40.0,37094,19.319791666666667
3585,9.0,,,,,,,36.0,,,,,,0,note_on,,126.0,36.0,126.0,37094,19.319791666666667
3586,9.0,,,,,,,35.0,,,,,,0,note_on,,60.0,35.0,60.0,37094,19.319791666666667
3587,7.0,,,,,,,75.0,,,,,,37,note_on,,0.0,75.0,0.0,689,0.35885416666666664
3588,8.0,,,,,,,63.0,,,,,,0,note_on,,0.0,63.0,0.0,4274,2.2260416666666667
3589,12.0,,,,,,,65.0,,,,,,10,note_on,,0.0,65.0,0.0,11887,6.191145833333334
3590,12.0,,,,,,,62.0,,,,,,2,note_on,,0.0,62.0,0.0,11889,6.1921875
3591,8.0,,,,,,,87.0,,,,,,71,note_on,,0.0,87.0,0.0,4345,2.2630208333333335
3592,9.0,,,,,,,36.0,,,,,,46,note_on,,0.0,36.0,0.0,37140,19.34375
3593,9.0,,,,,,,35.0,,,,,,0,note_on,,0.0,35.0,0.0,37140,19.34375
3594,3.0,,,,,,,79.0,,,,,,7,note_on,,0.0,79.0,0.0,31933,16.631770833333334
3595,9.0,,,,,,,70.0,,,,,,51,note_on,,0.0,70.0,0.0,37191,19.3703125
3596,9.0,,,,,,,42.0,,,,,,16,note_on,,0.0,42.0,0.0,37207,19.378645833333334
3597,9.0,,,,,,,44.0,,,,,,0,note_on,,75.0,44.0,75.0,37207,19.378645833333334
3598,9.0,,,,,,,44.0,,,,,,240,note_on,,0.0,44.0,0.0,37447,19.503645833333334
3599,3.0,,,,,,,79.0,,,,,,0,note_on,,127.0,79.0,127.0,31933,16.631770833333334
3600,7.0,,,,,,,77.0,,,,,,0,note_on,,127.0,77.0,127.0,689,0.35885416666666664
3601,8.0,,,,,,,87.0,,,,,,0,note_on,,45.0,87.0,45.0,4345,2.2630208333333335
3602,8.0,,,,,,,65.0,,,,,,0,note_on,,127.0,65.0,127.0,4345,2.2630208333333335
3603,9.0,,,,,,,42.0,,,,,,0,note_on,,85.0,42.0,85.0,37447,19.503645833333334
3604,9.0,,,,,,,70.0,,,,,,0,note_on,,40.0,70.0,40.0,37447,19.503645833333334
3605,,,,,,,,,,,,,al ,0,lyrics,,,,,5,0.0026041666666666665
3606,8.0,,,,,,,87.0,,,,,,123,note_on,,0.0,87.0,0.0,4468,2.3270833333333334
3607,3.0,,,,,,,79.0,,,,,,60,note_on,,0.0,79.0,0.0,31993,16.663020833333334
3608,9.0,,,,,,,42.0,,,,,,41,note_on,,0.0,42.0,0.0,37488,19.525
3609,9.0,,,,,,,70.0,,,,,,0,note_on,,0.0,70.0,0.0,37488,19.525
3610,9.0,,,,,,,44.0,,,,,,16,note_on,,75.0,44.0,75.0,37504,19.53333333333333
3611,9.0,,,,,,,44.0,,,,,,240,note_on,,0.0,44.0,0.0,37744,19.65833333333333
3612,3.0,,,,,,,79.0,,,,,,0,note_on,,127.0,79.0,127.0,31993,16.663020833333334
3613,8.0,,,,,,,87.0,,,,,,0,note_on,,45.0,87.0,45.0,4468,2.3270833333333334
3614,9.0,,,,,,,42.0,,,,,,0,note_on,,85.0,42.0,85.0,37744,19.65833333333333
3615,9.0,,,,,,,70.0,,,,,,0,note_on,,40.0,70.0,40.0,37744,19.65833333333333
3616,9.0,,,,,,,36.0,,,,,,0,note_on,,126.0,36.0,126.0,37744,19.65833333333333
3617,9.0,,,,,,,35.0,,,,,,0,note_on,,60.0,35.0,60.0,37744,19.65833333333333
3618,,,,,,,,,,,,,ways ,0,lyrics,,,,,5,0.0026041666666666665
3619,7.0,,,,,,,77.0,,,,,,97,note_on,,0.0,77.0,0.0,786,0.409375
3620,8.0,,,,,,,65.0,,,,,,0,note_on,,0.0,65.0,0.0,4468,2.3270833333333334
3621,8.0,,,,,,,87.0,,,,,,30,note_on,,0.0,87.0,0.0,4498,2.3427083333333334
3622,9.0,,,,,,,35.0,,,,,,27,note_on,,0.0,35.0,0.0,37771,19.672395833333333
3623,9.0,,,,,,,36.0,,,,,,0,note_on,,0.0,36.0,0.0,37771,19.672395833333333
3624,9.0,,,,,,,70.0,,,,,,70,note_on,,0.0,70.0,0.0,37841,19.708854166666665
3625,9.0,,,,,,,42.0,,,,,,16,note_on,,0.0,42.0,0.0,37857,19.7171875
3626,9.0,,,,,,,44.0,,,,,,0,note_on,,75.0,44.0,75.0,37857,19.7171875
3627,9.0,,,,,,,44.0,,,,,,240,note_on,,0.0,44.0,0.0,38097,19.8421875
3628,7.0,,,,,,,75.0,,,,,,0,note_on,,127.0,75.0,127.0,786,0.409375
3629,8.0,,,,,,,63.0,,,,,,0,note_on,,127.0,63.0,127.0,4498,2.3427083333333334
3630,9.0,,,,,,,42.0,,,,,,0,note_on,,85.0,42.0,85.0,38097,19.8421875
3631,9.0,,,,,,,70.0,,,,,,0,note_on,,40.0,70.0,40.0,38097,19.8421875
3632,9.0,,,,,,,39.0,,,,,,0,note_on,,127.0,39.0,127.0,38097,19.8421875
3633,9.0,,,,,,,28.0,,,,,,0,note_on,,127.0,28.0,127.0,38097,19.8421875
3634,11.0,,,,,,,62.0,,,,,,0,note_on,,127.0,62.0,127.0,15960,8.3125
3635,11.0,,,,,,,67.0,,,,,,0,note_on,,127.0,67.0,127.0,15960,8.3125
3636,11.0,,,,,,,58.0,,,,,,0,note_on,,127.0,58.0,127.0,15960,8.3125
3637,9.0,,,,,,,39.0,,,,,,123,note_on,,0.0,39.0,0.0,38220,19.90625
3638,9.0,,,,,,,28.0,,,,,,2,note_on,,0.0,28.0,0.0,38222,19.907291666666666
3639,7.0,,,,,,,75.0,,,,,,85,note_on,,0.0,75.0,0.0,871,0.4536458333333333
3640,8.0,,,,,,,63.0,,,,,,0,note_on,,0.0,63.0,0.0,4498,2.3427083333333334
3641,9.0,,,,,,,42.0,,,,,,14,note_on,,0.0,42.0,0.0,38236,19.914583333333333
3642,9.0,,,,,,,70.0,,,,,,0,note_on,,0.0,70.0,0.0,38236,19.914583333333333
3643,9.0,,,,,,,44.0,,,,,,16,note_on,,75.0,44.0,75.0,38252,19.922916666666666
3644,3.0,,,,,,,79.0,,,,,,14,note_on,,0.0,79.0,0.0,32007,16.6703125
3645,11.0,,,,,,,67.0,,,,,,113,note_on,,0.0,67.0,0.0,16073,8.371354166666666
3646,11.0,,,,,,,58.0,,,,,,11,note_on,,0.0,58.0,0.0,16084,8.377083333333333
3647,11.0,,,,,,,62.0,,,,,,36,note_on,,0.0,62.0,0.0,16120,8.395833333333334
3648,9.0,,,,,,,44.0,,,,,,66,note_on,,0.0,44.0,0.0,38318,19.957291666666666
3649,3.0,,,,,,,79.0,,,,,,0,note_on,,127.0,79.0,127.0,32007,16.6703125
3650,7.0,,,,,,,77.0,,,,,,0,note_on,,127.0,77.0,127.0,871,0.4536458333333333
3651,8.0,,,,,,,87.0,,,,,,0,note_on,,45.0,87.0,45.0,4498,2.3427083333333334
3652,8.0,,,,,,,65.0,,,,,,0,note_on,,127.0,65.0,127.0,4498,2.3427083333333334
3653,9.0,,,,,,,42.0,,,,,,0,note_on,,85.0,42.0,85.0,38318,19.957291666666666
3654,9.0,,,,,,,70.0,,,,,,0,note_on,,40.0,70.0,40.0,38318,19.957291666666666
3655,10.0,,,,,,,62.0,,,,,,0,note_on,,127.0,62.0,127.0,7705,4.013020833333333
3656,10.0,,,,,,,67.0,,,,,,0,note_on,,127.0,67.0,127.0,7705,4.013020833333333
3657,10.0,,,,,,,58.0,,,,,,0,note_on,,127.0,58.0,127.0,7705,4.013020833333333
3658,11.0,,,,,,,62.0,,,,,,0,note_on,,127.0,62.0,127.0,16120,8.395833333333334
3659,11.0,,,,,,,58.0,,,,,,0,note_on,,118.0,58.0,118.0,16120,8.395833333333334
3660,11.0,,,,,,,65.0,,,,,,0,note_on,,127.0,65.0,127.0,16120,8.395833333333334
3661,,,,,,,,,,,,,be ,0,lyrics,,,,,5,0.0026041666666666665
3662,8.0,,,,,,,87.0,,,,,,127,note_on,,0.0,87.0,0.0,4625,2.4088541666666665
3663,7.0,,,,,,,77.0,,,,,,60,note_on,,0.0,77.0,0.0,931,0.4848958333333333
3664,8.0,,,,,,,65.0,,,,,,0,note_on,,0.0,65.0,0.0,4625,2.4088541666666665
3665,9.0,,,,,,,70.0,,,,,,37,note_on,,0.0,70.0,0.0,38355,19.9765625
3666,9.0,,,,,,,42.0,,,,,,16,note_on,,0.0,42.0,0.0,38371,19.984895833333333
3667,9.0,,,,,,,44.0,,,,,,0,note_on,,75.0,44.0,75.0,38371,19.984895833333333
3668,10.0,,,,,,,67.0,,,,,,127,note_on,,0.0,67.0,0.0,7832,4.079166666666667
3669,10.0,,,,,,,58.0,,,,,,11,note_on,,0.0,58.0,0.0,7843,4.084895833333333
3670,11.0,,,,,,,58.0,,,,,,7,note_on,,0.0,58.0,0.0,16127,8.399479166666666
3671,11.0,,,,,,,65.0,,,,,,23,note_on,,0.0,65.0,0.0,16150,8.411458333333334
3672,10.0,,,,,,,62.0,,,,,,6,note_on,,0.0,62.0,0.0,7849,4.088020833333333
3673,11.0,,,,,,,62.0,,,,,,13,note_on,,0.0,62.0,0.0,16163,8.418229166666666
3674,9.0,,,,,,,44.0,,,,,,53,note_on,,0.0,44.0,0.0,38424,20.0125
3675,3.0,,,,,,,79.0,,,,,,0,note_on,,0.0,79.0,0.0,32007,16.6703125
3676,3.0,,,,,,,77.0,,,,,,0,note_on,,127.0,77.0,127.0,32007,16.6703125
3677,7.0,,,,,,,82.0,,,,,,0,note_on,,127.0,82.0,127.0,931,0.4848958333333333
3678,8.0,,,,,,,87.0,,,,,,0,note_on,,45.0,87.0,45.0,4625,2.4088541666666665
3679,8.0,,,,,,,70.0,,,,,,0,note_on,,127.0,70.0,127.0,4625,2.4088541666666665
3680,9.0,,,,,,,42.0,,,,,,0,note_on,,85.0,42.0,85.0,38424,20.0125
3681,9.0,,,,,,,70.0,,,,,,0,note_on,,40.0,70.0,40.0,38424,20.0125
3682,9.0,,,,,,,36.0,,,,,,0,note_on,,126.0,36.0,126.0,38424,20.0125
3683,9.0,,,,,,,35.0,,,,,,0,note_on,,60.0,35.0,60.0,38424,20.0125
3684,10.0,,,,,,,62.0,,,,,,0,note_on,,127.0,62.0,127.0,7849,4.088020833333333
3685,10.0,,,,,,,58.0,,,,,,0,note_on,,118.0,58.0,118.0,7849,4.088020833333333
3686,10.0,,,,,,,65.0,,,,,,0,note_on,,127.0,65.0,127.0,7849,4.088020833333333
3687,12.0,,,,,,,62.0,,,,,,0,note_on,,127.0,62.0,127.0,11889,6.1921875
3688,12.0,,,,,,,67.0,,,,,,0,note_on,,127.0,67.0,127.0,11889,6.1921875
3689,12.0,,,,,,,58.0,,,,,,0,note_on,,127.0,58.0,127.0,11889,6.1921875
3690,,,,,,,,,,,,,mi ,0,lyrics,,,,,5,0.0026041666666666665
3691,8.0,,,,,,,87.0,,,,,,135,note_on,,0.0,87.0,0.0,4760,2.4791666666666665
3692,9.0,,,,,,,35.0,,,,,,37,note_on,,0.0,35.0,0.0,38461,20.031770833333333
3693,9.0,,,,,,,36.0,,,,,,0,note_on,,0.0,36.0,0.0,38461,20.031770833333333
3694,9.0,,,,,,,42.0,,,,,,52,note_on,,0.0,42.0,0.0,38513,20.058854166666666
3695,9.0,,,,,,,70.0,,,,,,0,note_on,,0.0,70.0,0.0,38513,20.058854166666666
3696,9.0,,,,,,,44.0,,,,,,16,note_on,,75.0,44.0,75.0,38529,20.0671875
3697,12.0,,,,,,,67.0,,,,,,127,note_on,,0.0,67.0,0.0,12016,6.258333333333333
3698,12.0,,,,,,,58.0,,,,,,11,note_on,,0.0,58.0,0.0,12027,6.2640625
3699,10.0,,,,,,,58.0,,,,,,7,note_on,,0.0,58.0,0.0,7856,4.091666666666667
3700,10.0,,,,,,,65.0,,,,,,23,note_on,,0.0,65.0,0.0,7879,4.103645833333333
3701,12.0,,,,,,,62.0,,,,,,6,note_on,,0.0,62.0,0.0,12033,6.2671875
3702,10.0,,,,,,,62.0,,,,,,13,note_on,,0.0,62.0,0.0,7892,4.110416666666667
3703,9.0,,,,,,,44.0,,,,,,53,note_on,,0.0,44.0,0.0,38582,20.094791666666666
3704,9.0,,,,,,,42.0,,,,,,0,note_on,,85.0,42.0,85.0,38582,20.094791666666666
3705,9.0,,,,,,,70.0,,,,,,0,note_on,,40.0,70.0,40.0,38582,20.094791666666666
3706,12.0,,,,,,,62.0,,,,,,0,note_on,,127.0,62.0,127.0,12033,6.2671875
3707,12.0,,,,,,,58.0,,,,,,0,note_on,,118.0,58.0,118.0,12033,6.2671875
3708,12.0,,,,,,,65.0,,,,,,0,note_on,,127.0,65.0,127.0,12033,6.2671875
3709,8.0,,,,,,,70.0,,,,,,85,note_on,,0.0,70.0,0.0,4845,2.5234375
3710,7.0,,,,,,,82.0,,,,,,0,note_on,,0.0,82.0,0.0,931,0.4848958333333333
3711,3.0,,,,,,,77.0,,,,,,138,note_on,,0.0,77.0,0.0,32145,16.7421875
3712,9.0,,,,,,,70.0,,,,,,1,note_on,,0.0,70.0,0.0,38583,20.0953125
3713,9.0,,,,,,,42.0,,,,,,16,note_on,,0.0,42.0,0.0,38599,20.10364583333333
3714,8.0,,,,,,,87.0,,,,,,0,note_on,,45.0,87.0,45.0,4845,2.5234375
3715,9.0,,,,,,,44.0,,,,,,0,note_on,,75.0,44.0,75.0,38599,20.10364583333333
3716,9.0,,,,,,,36.0,,,,,,0,note_on,,126.0,36.0,126.0,38599,20.10364583333333
3717,9.0,,,,,,,35.0,,,,,,0,note_on,,60.0,35.0,60.0,38599,20.10364583333333
3718,8.0,,,,,,,87.0,,,,,,123,note_on,,0.0,87.0,0.0,4968,2.5875
3719,12.0,,,,,,,58.0,,,,,,22,note_on,,0.0,58.0,0.0,12055,6.278645833333333
3720,12.0,,,,,,,65.0,,,,,,23,note_on,,0.0,65.0,0.0,12078,6.290625
3721,12.0,,,,,,,62.0,,,,,,19,note_on,,0.0,62.0,0.0,12097,6.300520833333334
3722,9.0,,,,,,,36.0,,,,,,37,note_on,,0.0,36.0,0.0,38636,20.122916666666665
3723,9.0,,,,,,,35.0,,,,,,0,note_on,,0.0,35.0,0.0,38636,20.122916666666665
3724,9.0,,,,,,,44.0,,,,,,16,note_on,,0.0,44.0,0.0,38652,20.13125
3725,3.0,,,,,,,77.0,,,,,,0,note_on,,127.0,77.0,127.0,32145,16.7421875
3726,7.0,,,,,,,75.0,,,,,,0,note_on,,127.0,75.0,127.0,931,0.4848958333333333
3727,8.0,,,,,,,63.0,,,,,,0,note_on,,127.0,63.0,127.0,4968,2.5875
3728,9.0,,,,,,,42.0,,,,,,0,note_on,,85.0,42.0,85.0,38652,20.13125
3729,9.0,,,,,,,70.0,,,,,,0,note_on,,40.0,70.0,40.0,38652,20.13125
3730,9.0,,,,,,,39.0,,,,,,0,note_on,,125.0,39.0,125.0,38652,20.13125
3731,9.0,,,,,,,28.0,,,,,,0,note_on,,127.0,28.0,127.0,38652,20.13125
3732,11.0,,,,,,,63.0,,,,,,0,note_on,,100.0,63.0,100.0,16163,8.418229166666666
3733,11.0,,,,,,,56.0,,,,,,0,note_on,,127.0,56.0,127.0,16163,8.418229166666666
3734,11.0,,,,,,,62.0,,,,,,0,note_on,,126.0,62.0,126.0,16163,8.418229166666666
3735,11.0,,,,,,,53.0,,,,,,0,note_on,,127.0,53.0,127.0,16163,8.418229166666666
3736,11.0,,,,,,,58.0,,,,,,0,note_on,,127.0,58.0,127.0,16163,8.418229166666666
3737,,,,,,,,,,,,,ne ,0,lyrics,,,,,5,0.0026041666666666665
3738,9.0,,,,,,,28.0,,,,,,117,note_on,,0.0,28.0,0.0,38769,20.1921875
3739,9.0,,,,,,,39.0,,,,,,34,note_on,,0.0,39.0,0.0,38803,20.209895833333334
3740,9.0,,,,,,,70.0,,,,,,73,note_on,,0.0,70.0,0.0,38876,20.247916666666665
3741,9.0,,,,,,,42.0,,,,,,0,note_on,,0.0,42.0,0.0,38876,20.247916666666665
3742,9.0,,,,,,,44.0,,,,,,16,note_on,,75.0,44.0,75.0,38892,20.25625
3743,3.0,,,,,,,77.0,,,,,,180,note_on,,0.0,77.0,0.0,32325,16.8359375
3744,9.0,,,,,,,44.0,,,,,,60,note_on,,0.0,44.0,0.0,38952,20.2875
3745,3.0,,,,,,,75.0,,,,,,0,note_on,,127.0,75.0,127.0,32325,16.8359375
3746,8.0,,,,,,,87.0,,,,,,0,note_on,,45.0,87.0,45.0,4968,2.5875
3747,9.0,,,,,,,42.0,,,,,,0,note_on,,85.0,42.0,85.0,38952,20.2875
3748,9.0,,,,,,,70.0,,,,,,0,note_on,,40.0,70.0,40.0,38952,20.2875
3749,9.0,,,,,,,36.0,,,,,,0,note_on,,126.0,36.0,126.0,38952,20.2875
3750,9.0,,,,,,,35.0,,,,,,0,note_on,,60.0,35.0,60.0,38952,20.2875
3751,10.0,,,,,,,63.0,,,,,,0,note_on,,100.0,63.0,100.0,7892,4.110416666666667
3752,10.0,,,,,,,56.0,,,,,,0,note_on,,127.0,56.0,127.0,7892,4.110416666666667
3753,10.0,,,,,,,62.0,,,,,,0,note_on,,126.0,62.0,126.0,7892,4.110416666666667
3754,10.0,,,,,,,53.0,,,,,,0,note_on,,127.0,53.0,127.0,7892,4.110416666666667
3755,10.0,,,,,,,58.0,,,,,,0,note_on,,127.0,58.0,127.0,7892,4.110416666666667
3756,,,,,,,,,,,,,mine ,0,lyrics,,,,,5,0.0026041666666666665
3757,8.0,,,,,,,63.0,,,,,,99,note_on,,0.0,63.0,0.0,5067,2.6390625
3758,7.0,,,,,,,75.0,,,,,,0,note_on,,0.0,75.0,0.0,931,0.4848958333333333
3759,8.0,,,,,,,87.0,,,,,,21,note_on,,0.0,87.0,0.0,5088,2.65
3760,9.0,,,,,,,35.0,,,,,,46,note_on,,0.0,35.0,0.0,38998,20.311458333333334
3761,9.0,,,,,,,36.0,,,,,,0,note_on,,0.0,36.0,0.0,38998,20.311458333333334
3762,9.0,,,,,,,70.0,,,,,,58,note_on,,0.0,70.0,0.0,39056,20.341666666666665
3763,9.0,,,,,,,42.0,,,,,,16,note_on,,0.0,42.0,0.0,39072,20.35
3764,9.0,,,,,,,44.0,,,,,,0,note_on,,75.0,44.0,75.0,39072,20.35
3765,9.0,,,,,,,44.0,,,,,,240,note_on,,0.0,44.0,0.0,39312,20.475
3766,7.0,,,,,,,77.0,,,,,,0,note_on,,127.0,77.0,127.0,931,0.4848958333333333
3767,8.0,,,,,,,65.0,,,,,,0,note_on,,127.0,65.0,127.0,5088,2.65
3768,9.0,,,,,,,42.0,,,,,,0,note_on,,85.0,42.0,85.0,39312,20.475
3769,9.0,,,,,,,70.0,,,,,,0,note_on,,40.0,70.0,40.0,39312,20.475
3770,12.0,,,,,,,63.0,,,,,,0,note_on,,100.0,63.0,100.0,12097,6.300520833333334
3771,12.0,,,,,,,56.0,,,,,,0,note_on,,127.0,56.0,127.0,12097,6.300520833333334
3772,12.0,,,,,,,62.0,,,,,,0,note_on,,126.0,62.0,126.0,12097,6.300520833333334
3773,12.0,,,,,,,53.0,,,,,,0,note_on,,127.0,53.0,127.0,12097,6.300520833333334
3774,12.0,,,,,,,58.0,,,,,,0,note_on,,127.0,58.0,127.0,12097,6.300520833333334
3775,9.0,,,,,,,70.0,,,,,,224,note_on,,0.0,70.0,0.0,39536,20.591666666666665
3776,8.0,,,,,,,65.0,,,,,,2,note_on,,0.0,65.0,0.0,5090,2.6510416666666665
3777,7.0,,,,,,,77.0,,,,,,0,note_on,,0.0,77.0,0.0,931,0.4848958333333333
3778,8.0,,,,,,,87.0,,,,,,14,note_on,,45.0,87.0,45.0,5104,2.658333333333333
3779,9.0,,,,,,,44.0,,,,,,0,note_on,,75.0,44.0,75.0,39536,20.591666666666665
3780,3.0,,,,,,,75.0,,,,,,42,note_on,,0.0,75.0,0.0,32367,16.8578125
3781,8.0,,,,,,,87.0,,,,,,53,note_on,,0.0,87.0,0.0,5157,2.6859375
3782,9.0,,,,,,,44.0,,,,,,145,note_on,,0.0,44.0,0.0,39681,20.6671875
3783,11.0,,,,,,,63.0,,,,,,0,note_on,,0.0,63.0,0.0,16163,8.418229166666666
3784,7.0,,,,,,,75.0,,,,,,0,note_on,,127.0,75.0,127.0,931,0.4848958333333333
3785,8.0,,,,,,,63.0,,,,,,0,note_on,,127.0,63.0,127.0,5157,2.6859375
3786,9.0,,,,,,,42.0,,,,,,0,note_on,,85.0,42.0,85.0,39681,20.6671875
3787,9.0,,,,,,,70.0,,,,,,0,note_on,,40.0,70.0,40.0,39681,20.6671875
3788,9.0,,,,,,,36.0,,,,,,0,note_on,,126.0,36.0,126.0,39681,20.6671875
3789,9.0,,,,,,,35.0,,,,,,0,note_on,,60.0,35.0,60.0,39681,20.6671875
3790,11.0,,,,,,,63.0,,,,,,0,note_on,,127.0,63.0,127.0,16163,8.418229166666666
3791,9.0,,,,,,,35.0,,,,,,154,note_on,,0.0,35.0,0.0,39835,20.747395833333332
3792,9.0,,,,,,,36.0,,,,,,0,note_on,,0.0,36.0,0.0,39835,20.747395833333332
3793,8.0,,,,,,,63.0,,,,,,59,note_on,,0.0,63.0,0.0,5216,2.716666666666667
3794,7.0,,,,,,,75.0,,,,,,0,note_on,,0.0,75.0,0.0,931,0.4848958333333333
3795,9.0,,,,,,,70.0,,,,,,11,note_on,,0.0,70.0,0.0,39846,20.753125
3796,9.0,,,,,,,42.0,,,,,,16,note_on,,0.0,42.0,0.0,39862,20.761458333333334
3797,9.0,,,,,,,44.0,,,,,,0,note_on,,75.0,44.0,75.0,39862,20.761458333333334
3798,1.0,,,,,,,34.0,,,,,,120,note_on,,0.0,34.0,0.0,1392,0.725
3799,1.0,,,,,,,,,-361.0,,,,69,pitchwheel,,,,,1461,0.7609375
3800,1.0,,,,,,,,,-979.0,,,,10,pitchwheel,,,,,1471,0.7661458333333333
3801,1.0,,,,,,,,,-1623.0,,,,8,pitchwheel,,,,,1479,0.7703125
3802,1.0,,,,,,,,,-2061.0,,,,7,pitchwheel,,,,,1486,0.7739583333333333
3803,1.0,,,,,,,,,-2525.0,,,,8,pitchwheel,,,,,1494,0.778125
3804,1.0,,,,,,,,,-3375.0,,,,10,pitchwheel,,,,,1504,0.7833333333333333
3805,9.0,,,,,,,44.0,,,,,,8,note_on,,0.0,44.0,0.0,39870,20.765625
3806,10.0,,,,,,,63.0,,,,,,0,note_on,,0.0,63.0,0.0,7892,4.110416666666667
3807,7.0,,,,,,,77.0,,,,,,0,note_on,,127.0,77.0,127.0,931,0.4848958333333333
3808,8.0,,,,,,,87.0,,,,,,0,note_on,,45.0,87.0,45.0,5216,2.716666666666667
3809,8.0,,,,,,,65.0,,,,,,0,note_on,,127.0,65.0,127.0,5216,2.716666666666667
3810,9.0,,,,,,,42.0,,,,,,0,note_on,,85.0,42.0,85.0,39870,20.765625
3811,9.0,,,,,,,70.0,,,,,,0,note_on,,40.0,70.0,40.0,39870,20.765625
3812,9.0,,,,,,,39.0,,,,,,0,note_on,,127.0,39.0,127.0,39870,20.765625
3813,9.0,,,,,,,28.0,,,,,,0,note_on,,127.0,28.0,127.0,39870,20.765625
3814,10.0,,,,,,,63.0,,,,,,0,note_on,,127.0,63.0,127.0,7892,4.110416666666667
3815,1.0,,,,,,,,,-3813.0,,,,1,pitchwheel,,,,,1505,0.7838541666666666
3816,1.0,,,,,,,22.0,,,,,,0,note_on,,127.0,22.0,127.0,1505,0.7838541666666666
3817,1.0,,,,,,,,,-4354.0,,,,8,pitchwheel,,,,,1513,0.7880208333333333
3818,1.0,,,,,,,,,-5050.0,,,,10,pitchwheel,,,,,1523,0.7932291666666667
3819,1.0,,,,,,,,,-5719.0,,,,9,pitchwheel,,,,,1532,0.7979166666666666
3820,1.0,,,,,,,,,-6673.0,,,,14,pitchwheel,,,,,1546,0.8052083333333333
3821,1.0,,,,,,,,,-7033.0,,,,11,pitchwheel,,,,,1557,0.8109375
3822,8.0,,,,,,,87.0,,,,,,4,note_on,,0.0,87.0,0.0,5220,2.71875
3823,1.0,,,,,,,,,-7652.0,,,,6,pitchwheel,,,,,1563,0.8140625
3824,1.0,,,,,,,,,-8167.0,,,,8,pitchwheel,,,,,1571,0.8182291666666667
3825,1.0,,,,,,,,,-8192.0,,,,9,pitchwheel,,,,,1580,0.8229166666666666
3826,9.0,,,,,,,39.0,,,,,,43,note_on,,0.0,39.0,0.0,39913,20.788020833333334
3827,9.0,,,,,,,28.0,,,,,,2,note_on,,0.0,28.0,0.0,39915,20.7890625
3828,1.0,,,,,,,,,-7806.0,,,,52,pitchwheel,,,,,1632,0.85
3829,7.0,,,,,,,77.0,,,,,,9,note_on,,0.0,77.0,0.0,940,0.4895833333333333
3830,8.0,,,,,,,65.0,,,,,,0,note_on,,0.0,65.0,0.0,5220,2.71875
3831,1.0,,,,,,,,,-6930.0,,,,0,pitchwheel,,,,,1632,0.85
3832,1.0,,,,,,,,,-5153.0,,,,8,pitchwheel,,,,,1640,0.8541666666666666
3833,1.0,,,,,,,,,-2911.0,,,,8,pitchwheel,,,,,1648,0.8583333333333333
3834,1.0,,,,,,,,,-129.0,,,,9,pitchwheel,,,,,1657,0.8630208333333333
3835,1.0,,,,,,,,,643.0,,,,8,pitchwheel,,,,,1665,0.8671875
3836,9.0,,,,,,,42.0,,,,,,5,note_on,,0.0,42.0,0.0,39920,20.791666666666668
3837,9.0,,,,,,,70.0,,,,,,0,note_on,,0.0,70.0,0.0,39920,20.791666666666668
3838,1.0,,,,,,,,,1545.0,,,,3,pitchwheel,,,,,1668,0.86875
3839,1.0,,,,,,,,,721.0,,,,9,pitchwheel,,,,,1677,0.8734375
3840,9.0,,,,,,,42.0,,,,,,4,note_on,,0.0,42.0,0.0,39924,20.79375
3841,9.0,,,,,,,44.0,,,,,,0,note_on,,75.0,44.0,75.0,39924,20.79375
3842,1.0,,,,,,,,,0.0,,,,4,pitchwheel,,,,,1681,0.8755208333333333
3843,12.0,,,,,,,63.0,,,,,,236,note_on,,0.0,63.0,0.0,12333,6.4234374999999995
3844,9.0,,,,,,,44.0,,,,,,0,note_on,,0.0,44.0,0.0,39924,20.79375
3845,7.0,,,,,,,82.0,,,,,,0,note_on,,127.0,82.0,127.0,940,0.4895833333333333
3846,8.0,,,,,,,70.0,,,,,,0,note_on,,127.0,70.0,127.0,5220,2.71875
3847,9.0,,,,,,,42.0,,,,,,0,note_on,,85.0,42.0,85.0,39924,20.79375
3848,9.0,,,,,,,61.0,,,,,,0,note_on,,100.0,61.0,100.0,39924,20.79375
3849,9.0,,,,,,,70.0,,,,,,0,note_on,,40.0,70.0,40.0,39924,20.79375
3850,12.0,,,,,,,63.0,,,,,,0,note_on,,127.0,63.0,127.0,12333,6.4234374999999995
3851,9.0,,,,,,,61.0,,,,,,114,note_on,,0.0,61.0,0.0,40038,20.853125
3852,9.0,,,,,,,61.0,,,,,,6,note_on,,100.0,61.0,100.0,40044,20.85625
3853,8.0,,,,,,,46.0,,,,,,49,note_on,,0.0,46.0,0.0,5269,2.744270833333333
3854,5.0,,,,,,,53.0,,,,,,30,note_on,,0.0,53.0,0.0,620,0.3229166666666667
3855,9.0,,,,,,,70.0,,,,,,25,note_on,,0.0,70.0,0.0,40069,20.86927083333333
3856,11.0,,,,,,,56.0,,,,,,9,note_on,,0.0,56.0,0.0,16172,8.422916666666666
3857,9.0,,,,,,,61.0,,,,,,1,note_on,,0.0,61.0,0.0,40070,20.869791666666668
3858,11.0,,,,,,,62.0,,,,,,3,note_on,,0.0,62.0,0.0,16175,8.424479166666666
3859,9.0,,,,,,,42.0,,,,,,3,note_on,,0.0,42.0,0.0,40073,20.871354166666666
3860,9.0,,,,,,,44.0,,,,,,0,note_on,,75.0,44.0,75.0,40073,20.871354166666666
3861,9.0,,,,,,,61.0,,,,,,0,note_on,,100.0,61.0,100.0,40073,20.871354166666666
3862,5.0,,,,,,,58.0,,,,,,59,note_on,,0.0,58.0,0.0,679,0.3536458333333333
3863,5.0,,,,,,,62.0,,,,,,19,note_on,,0.0,62.0,0.0,698,0.36354166666666665
3864,7.0,,,,,,,82.0,,,,,,34,note_on,,0.0,82.0,0.0,974,0.5072916666666667
3865,8.0,,,,,,,70.0,,,,,,0,note_on,,0.0,70.0,0.0,5269,2.744270833333333
3866,9.0,,,,,,,61.0,,,,,,2,note_on,,0.0,61.0,0.0,40075,20.872395833333332
3867,9.0,,,,,,,61.0,,,,,,6,note_on,,100.0,61.0,100.0,40081,20.875520833333333
3868,11.0,,,,,,,53.0,,,,,,78,note_on,,0.0,53.0,0.0,16253,8.465104166666666
3869,5.0,,,,,,,58.0,,,,,,1,note_on,,82.0,58.0,82.0,699,0.3640625
3870,11.0,,,,,,,58.0,,,,,,30,note_on,,0.0,58.0,0.0,16283,8.480729166666666
3871,5.0,,,,,,,55.0,,,,,,1,note_on,,71.0,55.0,71.0,700,0.3645833333333333
3872,1.0,,,,,,,22.0,,,,,,3,note_on,,0.0,22.0,0.0,1684,0.8770833333333333
3873,9.0,,,,,,,61.0,,,,,,1,note_on,,0.0,61.0,0.0,40082,20.876041666666666
3874,5.0,,,,,,,63.0,,,,,,4,note_on,,105.0,63.0,105.0,704,0.36666666666666664
3875,11.0,,0.0,,,,,,,,,,,0,control_change,121.0,,,,16283,8.480729166666666
3876,11.0,,0.0,,,,,,,,,,,0,control_change,121.0,,,,16283,8.480729166666666
3877,11.0,,32.0,,,,,,,,,,,1,control_change,0.0,,,,16284,8.48125
3878,11.0,,32.0,,,,,,,,,,,0,control_change,0.0,,,,16284,8.48125
3879,9.0,,,,,,,44.0,,,,,,1,note_on,,0.0,44.0,0.0,40083,20.8765625
3880,1.0,,,,,,,27.0,,,,,,0,note_on,,127.0,27.0,127.0,1684,0.8770833333333333
3881,7.0,,,,,,,82.0,,,,,,0,note_on,,127.0,82.0,127.0,974,0.5072916666666667
3882,8.0,,,,,,,39.0,,,,,,0,note_on,,115.0,39.0,115.0,5269,2.744270833333333
3883,8.0,,,,,,,87.0,,,,,,0,note_on,,45.0,87.0,45.0,5269,2.744270833333333
3884,8.0,,,,,,,70.0,,,,,,0,note_on,,127.0,70.0,127.0,5269,2.744270833333333
3885,9.0,,,,,,,57.0,,,,,,0,note_on,,100.0,57.0,100.0,40083,20.8765625
3886,9.0,,,,,,,42.0,,,,,,0,note_on,,85.0,42.0,85.0,40083,20.8765625
3887,9.0,,,,,,,70.0,,,,,,0,note_on,,40.0,70.0,40.0,40083,20.8765625
3888,9.0,,,,,,,36.0,,,,,,0,note_on,,126.0,36.0,126.0,40083,20.8765625
3889,9.0,,,,,,,35.0,,,,,,0,note_on,,60.0,35.0,60.0,40083,20.8765625
3890,11.0,,,,,,,67.0,,,,,,0,note_on,,127.0,67.0,127.0,16284,8.48125
3891,11.0,,,,,,,63.0,,,,,,0,note_on,,127.0,63.0,127.0,16284,8.48125
3892,11.0,,,,,,,70.0,,,,,,0,note_on,,126.0,70.0,126.0,16284,8.48125
3893,3.0,,,,,,,79.0,,,,,,0,note_on,,127.0,79.0,127.0,32367,16.8578125
3894,11.0,,,,,,,,,,24.0,,,0,program_change,,,,,16284,8.48125
3895,,,,,,,,,,,,,Ba ,0,lyrics,,,,,5,0.0026041666666666665
3896,11.0,,,,,,,63.0,,,,,,15,note_on,,0.0,63.0,0.0,16299,8.4890625
3897,9.0,,,,,,,57.0,,,,,,99,note_on,,0.0,57.0,0.0,40182,20.928125
3898,8.0,,,,,,,87.0,,,,,,8,note_on,,0.0,87.0,0.0,5277,2.7484375
3899,9.0,,,,,,,35.0,,,,,,50,note_on,,0.0,35.0,0.0,40232,20.954166666666666
3900,9.0,,,,,,,36.0,,,,,,0,note_on,,0.0,36.0,0.0,40232,20.954166666666666
3901,9.0,,,,,,,70.0,,,,,,52,note_on,,0.0,70.0,0.0,40284,20.98125
3902,9.0,,,,,,,42.0,,,,,,0,note_on,,0.0,42.0,0.0,40284,20.98125
3903,10.0,,,,,,,56.0,,,,,,9,note_on,,0.0,56.0,0.0,7901,4.115104166666667
3904,10.0,,,,,,,62.0,,,,,,4,note_on,,0.0,62.0,0.0,7905,4.1171875
3905,9.0,,,,,,,44.0,,,,,,3,note_on,,75.0,44.0,75.0,40287,20.9828125
3906,11.0,,,,,,,63.0,,,,,,157,note_on,,0.0,63.0,0.0,16456,8.570833333333333
3907,11.0,,,,,,,67.0,,,,,,10,note_on,,0.0,67.0,0.0,16466,8.576041666666667
3908,10.0,,,,,,,53.0,,,,,,31,note_on,,0.0,53.0,0.0,7936,4.133333333333333
3909,11.0,,,,,,,70.0,,,,,,21,note_on,,0.0,70.0,0.0,16487,8.586979166666666
3910,10.0,,,,,,,58.0,,,,,,10,note_on,,0.0,58.0,0.0,7946,4.138541666666667
3911,7.0,,,,,,,82.0,,,,,,3,note_on,,0.0,82.0,0.0,977,0.5088541666666666
3912,8.0,,,,,,,70.0,,,,,,0,note_on,,0.0,70.0,0.0,5277,2.7484375
3913,10.0,,0.0,,,,,,,,,,,6,control_change,121.0,,,,7952,4.141666666666667
3914,10.0,,0.0,,,,,,,,,,,0,control_change,121.0,,,,7952,4.141666666666667
3915,10.0,,32.0,,,,,,,,,,,1,control_change,0.0,,,,7953,4.1421875
3916,10.0,,32.0,,,,,,,,,,,0,control_change,0.0,,,,7953,4.1421875
3917,9.0,,,,,,,44.0,,,,,,1,note_on,,0.0,44.0,0.0,40288,20.983333333333334
3918,9.0,,,,,,,42.0,,,,,,0,note_on,,85.0,42.0,85.0,40288,20.983333333333334
3919,10.0,,,,,,,67.0,,,,,,0,note_on,,127.0,67.0,127.0,7953,4.1421875
3920,10.0,,,,,,,63.0,,,,,,0,note_on,,127.0,63.0,127.0,7953,4.1421875
3921,10.0,,,,,,,70.0,,,,,,0,note_on,,126.0,70.0,126.0,7953,4.1421875
3922,8.0,,,,,,,87.0,,,,,,0,note_on,,45.0,87.0,45.0,5277,2.7484375
3923,9.0,,,,,,,70.0,,,,,,0,note_on,,40.0,70.0,40.0,40288,20.983333333333334
3924,10.0,,,,,,,,,,24.0,,,0,program_change,,,,,7953,4.1421875
3925,10.0,,,,,,,63.0,,,,,,15,note_on,,0.0,63.0,0.0,7968,4.15
3926,8.0,,,,,,,87.0,,,,,,106,note_on,,0.0,87.0,0.0,5383,2.8036458333333334
3927,3.0,,,,,,,79.0,,,,,,39,note_on,,0.0,79.0,0.0,32406,16.878125
3928,9.0,,,,,,,70.0,,,,,,64,note_on,,0.0,70.0,0.0,40352,21.016666666666666
3929,12.0,,,,,,,56.0,,,,,,9,note_on,,0.0,56.0,0.0,12342,6.428125
3930,12.0,,,,,,,62.0,,,,,,4,note_on,,0.0,62.0,0.0,12346,6.430208333333333
3931,9.0,,,,,,,42.0,,,,,,3,note_on,,0.0,42.0,0.0,40355,21.018229166666668
3932,8.0,,,,,,,87.0,,,,,,0,note_on,,45.0,87.0,45.0,5383,2.8036458333333334
3933,9.0,,,,,,,44.0,,,,,,0,note_on,,75.0,44.0,75.0,40355,21.018229166666668
3934,9.0,,,,,,,36.0,,,,,,0,note_on,,126.0,36.0,126.0,40355,21.018229166666668
3935,9.0,,,,,,,35.0,,,,,,0,note_on,,60.0,35.0,60.0,40355,21.018229166666668
3936,8.0,,,,,,,87.0,,,,,,102,note_on,,0.0,87.0,0.0,5485,2.8567708333333335
3937,10.0,,,,,,,63.0,,,,,,55,note_on,,0.0,63.0,0.0,8023,4.178645833333333
3938,10.0,,,,,,,67.0,,,,,,10,note_on,,0.0,67.0,0.0,8033,4.183854166666666
3939,12.0,,,,,,,53.0,,,,,,31,note_on,,0.0,53.0,0.0,12377,6.446354166666667
3940,10.0,,,,,,,70.0,,,,,,21,note_on,,0.0,70.0,0.0,8054,4.194791666666666
3941,9.0,,,,,,,36.0,,,,,,5,note_on,,0.0,36.0,0.0,40360,21.020833333333332
3942,9.0,,,,,,,35.0,,,,,,0,note_on,,0.0,35.0,0.0,40360,21.020833333333332
3943,12.0,,,,,,,58.0,,,,,,5,note_on,,0.0,58.0,0.0,12382,6.448958333333334
3944,12.0,,0.0,,,,,,,,,,,9,control_change,121.0,,,,12391,6.453645833333333
3945,12.0,,32.0,,,,,,,,,,,1,control_change,0.0,,,,12392,6.454166666666667
3946,9.0,,,,,,,44.0,,,,,,1,note_on,,0.0,44.0,0.0,40361,21.021354166666665
3947,3.0,,,,,,,77.0,,,,,,0,note_on,,127.0,77.0,127.0,32406,16.878125
3948,7.0,,,,,,,75.0,,,,,,0,note_on,,127.0,75.0,127.0,977,0.5088541666666666
3949,8.0,,,,,,,63.0,,,,,,0,note_on,,127.0,63.0,127.0,5485,2.8567708333333335
3950,9.0,,,,,,,39.0,,,,,,0,note_on,,125.0,39.0,125.0,40361,21.021354166666665
3951,9.0,,,,,,,28.0,,,,,,0,note_on,,127.0,28.0,127.0,40361,21.021354166666665
3952,9.0,,,,,,,42.0,,,,,,0,note_on,,85.0,42.0,85.0,40361,21.021354166666665
3953,9.0,,,,,,,70.0,,,,,,0,note_on,,40.0,70.0,40.0,40361,21.021354166666665
3954,12.0,,,,,,,67.0,,,,,,0,note_on,,127.0,67.0,127.0,12392,6.454166666666667
3955,12.0,,,,,,,63.0,,,,,,0,note_on,,127.0,63.0,127.0,12392,6.454166666666667
3956,12.0,,,,,,,70.0,,,,,,0,note_on,,126.0,70.0,126.0,12392,6.454166666666667
3957,12.0,,0.0,,,,,,,,,,,0,control_change,121.0,,,,12392,6.454166666666667
3958,12.0,,32.0,,,,,,,,,,,0,control_change,0.0,,,,12392,6.454166666666667
3959,12.0,,,,,,,,,,24.0,,,0,program_change,,,,,12392,6.454166666666667
3960,,,,,,,,,,,,,"by, ",0,lyrics,,,,,6,0.003125
3961,12.0,,,,,,,63.0,,,,,,15,note_on,,0.0,63.0,0.0,12407,6.461979166666667
3962,9.0,,,,,,,28.0,,,,,,102,note_on,,0.0,28.0,0.0,40463,21.074479166666666
3963,9.0,,,,,,,39.0,,,,,,34,note_on,,0.0,39.0,0.0,40497,21.0921875
3964,9.0,,,,,,,70.0,,,,,,73,note_on,,0.0,70.0,0.0,40570,21.130208333333332
3965,9.0,,,,,,,42.0,,,,,,0,note_on,,0.0,42.0,0.0,40570,21.130208333333332
3966,8.0,,,,,,,87.0,,,,,,16,note_on,,45.0,87.0,45.0,5501,2.865104166666667
3967,9.0,,,,,,,44.0,,,,,,0,note_on,,75.0,44.0,75.0,40570,21.130208333333332
3968,8.0,,,,,,,87.0,,,,,,114,note_on,,0.0,87.0,0.0,5615,2.9244791666666665
3969,12.0,,,,,,,63.0,,,,,,43,note_on,,0.0,63.0,0.0,12450,6.484375
3970,12.0,,,,,,,67.0,,,,,,10,note_on,,0.0,67.0,0.0,12460,6.489583333333333
3971,12.0,,,,,,,70.0,,,,,,52,note_on,,0.0,70.0,0.0,12512,6.516666666666667
3972,9.0,,,,,,,44.0,,,,,,21,note_on,,0.0,44.0,0.0,40591,21.141145833333333
3973,9.0,,,,,,,42.0,,,,,,0,note_on,,85.0,42.0,85.0,40591,21.141145833333333
3974,9.0,,,,,,,70.0,,,,,,0,note_on,,40.0,70.0,40.0,40591,21.141145833333333
3975,9.0,,,,,,,36.0,,,,,,0,note_on,,126.0,36.0,126.0,40591,21.141145833333333
3976,9.0,,,,,,,35.0,,,,,,0,note_on,,60.0,35.0,60.0,40591,21.141145833333333
3977,7.0,,,,,,,75.0,,,,,,9,note_on,,0.0,75.0,0.0,986,0.5135416666666667
3978,8.0,,,,,,,63.0,,,,,,0,note_on,,0.0,63.0,0.0,5615,2.9244791666666665
3979,3.0,,,,,,,77.0,,,,,,96,note_on,,0.0,77.0,0.0,32502,16.928125
3980,9.0,,,,,,,36.0,,,,,,61,note_on,,0.0,36.0,0.0,40652,21.172916666666666
3981,9.0,,,,,,,35.0,,,,,,0,note_on,,0.0,35.0,0.0,40652,21.172916666666666
3982,9.0,,,,,,,70.0,,,,,,58,note_on,,0.0,70.0,0.0,40710,21.203125
3983,9.0,,,,,,,42.0,,,,,,16,note_on,,0.0,42.0,0.0,40726,21.211458333333333
3984,8.0,,,,,,,87.0,,,,,,0,note_on,,45.0,87.0,45.0,5615,2.9244791666666665
3985,9.0,,,,,,,44.0,,,,,,0,note_on,,75.0,44.0,75.0,40726,21.211458333333333
3986,8.0,,,,,,,87.0,,,,,,97,note_on,,0.0,87.0,0.0,5712,2.975
3987,9.0,,,,,,,44.0,,,,,,143,note_on,,0.0,44.0,0.0,40869,21.2859375
3988,3.0,,,,,,,79.0,,,,,,0,note_on,,127.0,79.0,127.0,32502,16.928125
3989,7.0,,,,,,,77.0,,,,,,0,note_on,,127.0,77.0,127.0,986,0.5135416666666667
3990,8.0,,,,,,,65.0,,,,,,0,note_on,,127.0,65.0,127.0,5712,2.975
3991,9.0,,,,,,,42.0,,,,,,0,note_on,,85.0,42.0,85.0,40869,21.2859375
3992,9.0,,,,,,,70.0,,,,,,0,note_on,,40.0,70.0,40.0,40869,21.2859375
3993,,,,,,,,,,,,,ba ,0,lyrics,,,,,6,0.003125
3994,9.0,,,,,,,70.0,,,,,,224,note_on,,0.0,70.0,0.0,41093,21.402604166666666
3995,9.0,,,,,,,42.0,,,,,,0,note_on,,0.0,42.0,0.0,41093,21.402604166666666
3996,8.0,,,,,,,87.0,,,,,,16,note_on,,45.0,87.0,45.0,5728,2.9833333333333334
3997,9.0,,,,,,,44.0,,,,,,0,note_on,,75.0,44.0,75.0,41093,21.402604166666666
3998,8.0,,,,,,,87.0,,,,,,88,note_on,,0.0,87.0,0.0,5816,3.029166666666667
3999,9.0,,,,,,,44.0,,,,,,152,note_on,,0.0,44.0,0.0,41245,21.481770833333332
4000,9.0,,,,,,,42.0,,,,,,0,note_on,,85.0,42.0,85.0,41245,21.481770833333332
4001,9.0,,,,,,,70.0,,,,,,0,note_on,,40.0,70.0,40.0,41245,21.481770833333332
4002,9.0,,,,,,,36.0,,,,,,0,note_on,,126.0,36.0,126.0,41245,21.481770833333332
4003,9.0,,,,,,,35.0,,,,,,0,note_on,,60.0,35.0,60.0,41245,21.481770833333332
4004,8.0,,,,,,,65.0,,,,,,45,note_on,,0.0,65.0,0.0,5861,3.052604166666667
4005,7.0,,,,,,,77.0,,,,,,0,note_on,,0.0,77.0,0.0,986,0.5135416666666667
4006,9.0,,,,,,,35.0,,,,,,109,note_on,,0.0,35.0,0.0,41354,21.538541666666667
4007,9.0,,,,,,,36.0,,,,,,0,note_on,,0.0,36.0,0.0,41354,21.538541666666667
4008,3.0,,,,,,,79.0,,,,,,42,note_on,,0.0,79.0,0.0,32544,16.95
4009,9.0,,,,,,,70.0,,,,,,28,note_on,,0.0,70.0,0.0,41382,21.553125
4010,9.0,,,,,,,42.0,,,,,,16,note_on,,0.0,42.0,0.0,41398,21.561458333333334
4011,9.0,,,,,,,44.0,,,,,,0,note_on,,75.0,44.0,75.0,41398,21.561458333333334
4012,9.0,,,,,,,44.0,,,,,,240,note_on,,0.0,44.0,0.0,41638,21.686458333333334
4013,3.0,,,,,,,77.0,,,,,,0,note_on,,127.0,77.0,127.0,32544,16.95
4014,7.0,,,,,,,70.0,,,,,,0,note_on,,127.0,70.0,127.0,986,0.5135416666666667
4015,8.0,,,,,,,87.0,,,,,,0,note_on,,45.0,87.0,45.0,5861,3.052604166666667
4016,8.0,,,,,,,58.0,,,,,,0,note_on,,127.0,58.0,127.0,5861,3.052604166666667
4017,9.0,,,,,,,42.0,,,,,,0,note_on,,85.0,42.0,85.0,41638,21.686458333333334
4018,9.0,,,,,,,70.0,,,,,,0,note_on,,40.0,70.0,40.0,41638,21.686458333333334
4019,9.0,,,,,,,39.0,,,,,,0,note_on,,127.0,39.0,127.0,41638,21.686458333333334
4020,9.0,,,,,,,28.0,,,,,,0,note_on,,127.0,28.0,127.0,41638,21.686458333333334
4021,11.0,,,,,,,67.0,,,,,,0,note_on,,127.0,67.0,127.0,16487,8.586979166666666
4022,11.0,,,,,,,72.0,,,,,,0,note_on,,127.0,72.0,127.0,16487,8.586979166666666
4023,11.0,,,,,,,63.0,,,,,,0,note_on,,127.0,63.0,127.0,16487,8.586979166666666
4024,,,,,,,,,,,,,"by, ",0,lyrics,,,,,6,0.003125
4025,8.0,,,,,,,87.0,,,,,,103,note_on,,0.0,87.0,0.0,5964,3.10625
4026,9.0,,,,,,,39.0,,,,,,20,note_on,,0.0,39.0,0.0,41658,21.696875
4027,9.0,,,,,,,28.0,,,,,,2,note_on,,0.0,28.0,0.0,41660,21.697916666666668
4028,9.0,,,,,,,42.0,,,,,,99,note_on,,0.0,42.0,0.0,41759,21.749479166666667
4029,9.0,,,,,,,70.0,,,,,,0,note_on,,0.0,70.0,0.0,41759,21.749479166666667
4030,3.0,,,,,,,77.0,,,,,,7,note_on,,0.0,77.0,0.0,32551,16.953645833333333
4031,9.0,,,,,,,44.0,,,,,,9,note_on,,75.0,44.0,75.0,41768,21.754166666666666
4032,11.0,,,,,,,63.0,,,,,,125,note_on,,0.0,63.0,0.0,16612,8.652083333333334
4033,11.0,,,,,,,72.0,,,,,,15,note_on,,0.0,72.0,0.0,16627,8.659895833333334
4034,11.0,,,,,,,67.0,,,,,,8,note_on,,0.0,67.0,0.0,16635,8.6640625
4035,9.0,,,,,,,44.0,,,,,,92,note_on,,0.0,44.0,0.0,41860,21.802083333333332
4036,3.0,,,,,,,79.0,,,,,,0,note_on,,127.0,79.0,127.0,32551,16.953645833333333
4037,8.0,,,,,,,87.0,,,,,,0,note_on,,45.0,87.0,45.0,5964,3.10625
4038,9.0,,,,,,,42.0,,,,,,0,note_on,,85.0,42.0,85.0,41860,21.802083333333332
4039,9.0,,,,,,,70.0,,,,,,0,note_on,,40.0,70.0,40.0,41860,21.802083333333332
4040,10.0,,,,,,,67.0,,,,,,0,note_on,,127.0,67.0,127.0,8054,4.194791666666666
4041,10.0,,,,,,,72.0,,,,,,0,note_on,,127.0,72.0,127.0,8054,4.194791666666666
4042,10.0,,,,,,,63.0,,,,,,0,note_on,,127.0,63.0,127.0,8054,4.194791666666666
4043,11.0,,,,,,,67.0,,,,,,0,note_on,,127.0,67.0,127.0,16635,8.6640625
4044,11.0,,,,,,,70.0,,,,,,0,note_on,,118.0,70.0,118.0,16635,8.6640625
4045,11.0,,,,,,,63.0,,,,,,0,note_on,,127.0,63.0,127.0,16635,8.6640625
4046,,,,,,,,,,,,,ba ,0,lyrics,,,,,6,0.003125
4047,8.0,,,,,,,87.0,,,,,,113,note_on,,0.0,87.0,0.0,6077,3.1651041666666666
4048,7.0,,,,,,,70.0,,,,,,17,note_on,,0.0,70.0,0.0,1003,0.5223958333333333
4049,8.0,,,,,,,58.0,,,,,,0,note_on,,0.0,58.0,0.0,6077,3.1651041666666666
4050,9.0,,,,,,,70.0,,,,,,94,note_on,,0.0,70.0,0.0,41954,21.851041666666667
4051,9.0,,,,,,,42.0,,,,,,16,note_on,,0.0,42.0,0.0,41970,21.859375
4052,9.0,,,,,,,44.0,,,,,,0,note_on,,75.0,44.0,75.0,41970,21.859375
4053,10.0,,,,,,,63.0,,,,,,125,note_on,,0.0,63.0,0.0,8179,4.259895833333333
4054,10.0,,,,,,,72.0,,,,,,15,note_on,,0.0,72.0,0.0,8194,4.267708333333333
4055,10.0,,,,,,,67.0,,,,,,8,note_on,,0.0,67.0,0.0,8202,4.271875
4056,11.0,,,,,,,70.0,,,,,,38,note_on,,0.0,70.0,0.0,16673,8.683854166666666
4057,11.0,,,,,,,63.0,,,,,,0,note_on,,0.0,63.0,0.0,16673,8.683854166666666
4058,11.0,,,,,,,67.0,,,,,,3,note_on,,0.0,67.0,0.0,16676,8.685416666666667
4059,9.0,,,,,,,44.0,,,,,,51,note_on,,0.0,44.0,0.0,42021,21.8859375
4060,7.0,,,,,,,82.0,,,,,,0,note_on,,127.0,82.0,127.0,1003,0.5223958333333333
4061,8.0,,,,,,,70.0,,,,,,0,note_on,,127.0,70.0,127.0,6077,3.1651041666666666
4062,9.0,,,,,,,42.0,,,,,,0,note_on,,85.0,42.0,85.0,42021,21.8859375
4063,9.0,,,,,,,70.0,,,,,,0,note_on,,40.0,70.0,40.0,42021,21.8859375
4064,9.0,,,,,,,36.0,,,,,,0,note_on,,126.0,36.0,126.0,42021,21.8859375
4065,9.0,,,,,,,35.0,,,,,,0,note_on,,60.0,35.0,60.0,42021,21.8859375
4066,10.0,,,,,,,67.0,,,,,,0,note_on,,127.0,67.0,127.0,8202,4.271875
4067,10.0,,,,,,,70.0,,,,,,0,note_on,,118.0,70.0,118.0,8202,4.271875
4068,10.0,,,,,,,63.0,,,,,,0,note_on,,127.0,63.0,127.0,8202,4.271875
4069,12.0,,,,,,,67.0,,,,,,0,note_on,,127.0,67.0,127.0,12512,6.516666666666667
4070,12.0,,,,,,,72.0,,,,,,0,note_on,,127.0,72.0,127.0,12512,6.516666666666667
4071,12.0,,,,,,,63.0,,,,,,0,note_on,,127.0,63.0,127.0,12512,6.516666666666667
4072,9.0,,,,,,,35.0,,,,,,172,note_on,,0.0,35.0,0.0,42193,21.975520833333334
4073,9.0,,,,,,,36.0,,,,,,0,note_on,,0.0,36.0,0.0,42193,21.975520833333334
4074,3.0,,,,,,,79.0,,,,,,43,note_on,,0.0,79.0,0.0,32594,16.976041666666667
4075,9.0,,,,,,,42.0,,,,,,9,note_on,,0.0,42.0,0.0,42202,21.980208333333334
4076,9.0,,,,,,,70.0,,,,,,0,note_on,,0.0,70.0,0.0,42202,21.980208333333334
4077,9.0,,,,,,,44.0,,,,,,16,note_on,,75.0,44.0,75.0,42218,21.988541666666666
4078,12.0,,,,,,,63.0,,,,,,125,note_on,,0.0,63.0,0.0,12637,6.581770833333334
4079,12.0,,,,,,,72.0,,,,,,15,note_on,,0.0,72.0,0.0,12652,6.589583333333334
4080,12.0,,,,,,,67.0,,,,,,8,note_on,,0.0,67.0,0.0,12660,6.59375
4081,10.0,,,,,,,63.0,,,,,,38,note_on,,0.0,63.0,0.0,8240,4.291666666666667
4082,10.0,,,,,,,70.0,,,,,,0,note_on,,0.0,70.0,0.0,8240,4.291666666666667
4083,10.0,,,,,,,67.0,,,,,,3,note_on,,0.0,67.0,0.0,8243,4.293229166666666
4084,9.0,,,,,,,44.0,,,,,,51,note_on,,0.0,44.0,0.0,42269,22.015104166666667
4085,3.0,,,,,,,77.0,,,,,,0,note_on,,127.0,77.0,127.0,32594,16.976041666666667
4086,8.0,,,,,,,87.0,,,,,,0,note_on,,45.0,87.0,45.0,6077,3.1651041666666666
4087,9.0,,,,,,,42.0,,,,,,0,note_on,,85.0,42.0,85.0,42269,22.015104166666667
4088,9.0,,,,,,,70.0,,,,,,0,note_on,,40.0,70.0,40.0,42269,22.015104166666667
4089,12.0,,,,,,,67.0,,,,,,0,note_on,,127.0,67.0,127.0,12660,6.59375
4090,12.0,,,,,,,70.0,,,,,,0,note_on,,118.0,70.0,118.0,12660,6.59375
4091,12.0,,,,,,,63.0,,,,,,0,note_on,,127.0,63.0,127.0,12660,6.59375
4092,,,,,,,,,,,,,by ,0,lyrics,,,,,6,0.003125
4093,7.0,,,,,,,82.0,,,,,,41,note_on,,0.0,82.0,0.0,1044,0.54375
4094,8.0,,,,,,,70.0,,,,,,0,note_on,,0.0,70.0,0.0,6077,3.1651041666666666
4095,8.0,,,,,,,87.0,,,,,,63,note_on,,0.0,87.0,0.0,6140,3.1979166666666665
4096,9.0,,,,,,,70.0,,,,,,120,note_on,,0.0,70.0,0.0,42389,22.077604166666667
4097,9.0,,,,,,,42.0,,,,,,16,note_on,,0.0,42.0,0.0,42405,22.0859375
4098,8.0,,,,,,,87.0,,,,,,0,note_on,,45.0,87.0,45.0,6140,3.1979166666666665
4099,9.0,,,,,,,44.0,,,,,,0,note_on,,75.0,44.0,75.0,42405,22.0859375
4100,9.0,,,,,,,36.0,,,,,,0,note_on,,126.0,36.0,126.0,42405,22.0859375
4101,9.0,,,,,,,35.0,,,,,,0,note_on,,60.0,35.0,60.0,42405,22.0859375
4102,8.0,,,,,,,87.0,,,,,,123,note_on,,0.0,87.0,0.0,6263,3.2619791666666664
4103,12.0,,,,,,,70.0,,,,,,63,note_on,,0.0,70.0,0.0,12723,6.6265624999999995
4104,12.0,,,,,,,63.0,,,,,,0,note_on,,0.0,63.0,0.0,12723,6.6265624999999995
4105,12.0,,,,,,,67.0,,,,,,3,note_on,,0.0,67.0,0.0,12726,6.628125
4106,9.0,,,,,,,35.0,,,,,,35,note_on,,0.0,35.0,0.0,42440,22.104166666666668
4107,9.0,,,,,,,36.0,,,,,,0,note_on,,0.0,36.0,0.0,42440,22.104166666666668
4108,9.0,,,,,,,44.0,,,,,,16,note_on,,0.0,44.0,0.0,42456,22.1125
4109,7.0,,,,,,,75.0,,,,,,0,note_on,,127.0,75.0,127.0,1044,0.54375
4110,8.0,,,,,,,63.0,,,,,,0,note_on,,127.0,63.0,127.0,6263,3.2619791666666664
4111,9.0,,,,,,,42.0,,,,,,0,note_on,,85.0,42.0,85.0,42456,22.1125
4112,9.0,,,,,,,70.0,,,,,,0,note_on,,40.0,70.0,40.0,42456,22.1125
4113,9.0,,,,,,,39.0,,,,,,0,note_on,,125.0,39.0,125.0,42456,22.1125
4114,9.0,,,,,,,28.0,,,,,,0,note_on,,127.0,28.0,127.0,42456,22.1125
4115,9.0,,,,,,,28.0,,,,,,117,note_on,,0.0,28.0,0.0,42573,22.1734375
4116,9.0,,,,,,,39.0,,,,,,34,note_on,,0.0,39.0,0.0,42607,22.191145833333334
4117,9.0,,,,,,,42.0,,,,,,73,note_on,,0.0,42.0,0.0,42680,22.229166666666668
4118,9.0,,,,,,,70.0,,,,,,0,note_on,,0.0,70.0,0.0,42680,22.229166666666668
4119,3.0,,,,,,,82.0,,,,,,16,note_on,,127.0,82.0,127.0,32610,16.984375
4120,8.0,,,,,,,87.0,,,,,,0,note_on,,45.0,87.0,45.0,6263,3.2619791666666664
4121,9.0,,,,,,,44.0,,,,,,0,note_on,,75.0,44.0,75.0,42680,22.229166666666668
4122,,,,,,,,,,,,,ohhh ,0,lyrics,,,,,6,0.003125
4123,,,,,,,,,,,,,,0,lyrics,,,,,6,0.003125
4124,3.0,,,,,,,77.0,,,,,,41,note_on,,0.0,77.0,0.0,32651,17.005729166666665
4125,8.0,,,,,,,87.0,,,,,,85,note_on,,0.0,87.0,0.0,6348,3.30625
4126,9.0,,,,,,,44.0,,,,,,114,note_on,,0.0,44.0,0.0,42794,22.288541666666667
4127,9.0,,,,,,,42.0,,,,,,0,note_on,,85.0,42.0,85.0,42794,22.288541666666667
4128,9.0,,,,,,,70.0,,,,,,0,note_on,,40.0,70.0,40.0,42794,22.288541666666667
4129,9.0,,,,,,,36.0,,,,,,0,note_on,,126.0,36.0,126.0,42794,22.288541666666667
4130,9.0,,,,,,,35.0,,,,,,0,note_on,,60.0,35.0,60.0,42794,22.288541666666667
4131,8.0,,,,,,,63.0,,,,,,62,note_on,,0.0,63.0,0.0,6410,3.3385416666666665
4132,7.0,,,,,,,75.0,,,,,,0,note_on,,0.0,75.0,0.0,1044,0.54375
4133,9.0,,,,,,,35.0,,,,,,104,note_on,,0.0,35.0,0.0,42898,22.342708333333334
4134,9.0,,,,,,,36.0,,,,,,0,note_on,,0.0,36.0,0.0,42898,22.342708333333334
4135,9.0,,,,,,,70.0,,,,,,58,note_on,,0.0,70.0,0.0,42956,22.372916666666665
4136,9.0,,,,,,,42.0,,,,,,16,note_on,,0.0,42.0,0.0,42972,22.38125
4137,9.0,,,,,,,44.0,,,,,,0,note_on,,75.0,44.0,75.0,42972,22.38125
4138,9.0,,,,,,,44.0,,,,,,240,note_on,,0.0,44.0,0.0,43212,22.50625
4139,7.0,,,,,,,77.0,,,,,,0,note_on,,127.0,77.0,127.0,1044,0.54375
4140,8.0,,,,,,,87.0,,,,,,0,note_on,,45.0,87.0,45.0,6410,3.3385416666666665
4141,8.0,,,,,,,65.0,,,,,,0,note_on,,127.0,65.0,127.0,6410,3.3385416666666665
4142,9.0,,,,,,,42.0,,,,,,0,note_on,,85.0,42.0,85.0,43212,22.50625
4143,9.0,,,,,,,70.0,,,,,,0,note_on,,40.0,70.0,40.0,43212,22.50625
4144,8.0,,,,,,,87.0,,,,,,121,note_on,,0.0,87.0,0.0,6531,3.4015625
4145,9.0,,,,,,,70.0,,,,,,103,note_on,,0.0,70.0,0.0,43315,22.559895833333332
4146,9.0,,,,,,,44.0,,,,,,16,note_on,,75.0,44.0,75.0,43331,22.568229166666665
4147,9.0,,,,,,,44.0,,,,,,240,note_on,,0.0,44.0,0.0,43571,22.693229166666665
4148,8.0,,,,,,,87.0,,,,,,0,note_on,,45.0,87.0,45.0,6531,3.4015625
4149,9.0,,,,,,,42.0,,,,,,0,note_on,,85.0,42.0,85.0,43571,22.693229166666665
4150,9.0,,,,,,,70.0,,,,,,0,note_on,,40.0,70.0,40.0,43571,22.693229166666665
4151,9.0,,,,,,,36.0,,,,,,0,note_on,,126.0,36.0,126.0,43571,22.693229166666665
4152,9.0,,,,,,,35.0,,,,,,0,note_on,,60.0,35.0,60.0,43571,22.693229166666665
4153,3.0,,,,,,,82.0,,,,,,6,note_on,,0.0,82.0,0.0,32657,17.008854166666666
4154,7.0,,,,,,,77.0,,,,,,50,note_on,,0.0,77.0,0.0,1094,0.5697916666666667
4155,8.0,,,,,,,65.0,,,,,,0,note_on,,0.0,65.0,0.0,6531,3.4015625
4156,8.0,,,,,,,87.0,,,,,,71,note_on,,0.0,87.0,0.0,6602,3.4385416666666666
4157,9.0,,,,,,,35.0,,,,,,27,note_on,,0.0,35.0,0.0,43598,22.707291666666666
4158,9.0,,,,,,,36.0,,,,,,0,note_on,,0.0,36.0,0.0,43598,22.707291666666666
4159,9.0,,,,,,,70.0,,,,,,70,note_on,,0.0,70.0,0.0,43668,22.74375
4160,9.0,,,,,,,42.0,,,,,,16,note_on,,0.0,42.0,0.0,43684,22.75208333333333
4161,9.0,,,,,,,44.0,,,,,,0,note_on,,75.0,44.0,75.0,43684,22.75208333333333
4162,9.0,,,,,,,44.0,,,,,,240,note_on,,0.0,44.0,0.0,43924,22.87708333333333
4163,3.0,,,,,,,75.0,,,,,,0,note_on,,127.0,75.0,127.0,32657,17.008854166666666
4164,7.0,,,,,,,75.0,,,,,,0,note_on,,127.0,75.0,127.0,1094,0.5697916666666667
4165,8.0,,,,,,,87.0,,,,,,0,note_on,,45.0,87.0,45.0,6602,3.4385416666666666
4166,8.0,,,,,,,63.0,,,,,,0,note_on,,127.0,63.0,127.0,6602,3.4385416666666666
4167,9.0,,,,,,,42.0,,,,,,0,note_on,,85.0,42.0,85.0,43924,22.87708333333333
4168,9.0,,,,,,,70.0,,,,,,0,note_on,,40.0,70.0,40.0,43924,22.87708333333333
4169,9.0,,,,,,,39.0,,,,,,0,note_on,,127.0,39.0,127.0,43924,22.87708333333333
4170,9.0,,,,,,,28.0,,,,,,0,note_on,,127.0,28.0,127.0,43924,22.87708333333333
4171,,,,,,,,,,,,,Like ,0,lyrics,,,,,7,0.0036458333333333334
4172,9.0,,,,,,,39.0,,,,,,123,note_on,,0.0,39.0,0.0,44047,22.941145833333334
4173,8.0,,,,,,,87.0,,,,,,0,note_on,,0.0,87.0,0.0,6602,3.4385416666666666
4174,9.0,,,,,,,28.0,,,,,,2,note_on,,0.0,28.0,0.0,44049,22.9421875
4175,9.0,,,,,,,70.0,,,,,,99,note_on,,0.0,70.0,0.0,44148,22.99375
4176,9.0,,,,,,,42.0,,,,,,0,note_on,,0.0,42.0,0.0,44148,22.99375
4177,9.0,,,,,,,42.0,,,,,,16,note_on,,0.0,42.0,0.0,44164,23.00208333333333
4178,9.0,,,,,,,44.0,,,,,,0,note_on,,75.0,44.0,75.0,44164,23.00208333333333
4179,9.0,,,,,,,44.0,,,,,,240,note_on,,0.0,44.0,0.0,44404,23.12708333333333
4180,8.0,,,,,,,87.0,,,,,,0,note_on,,45.0,87.0,45.0,6602,3.4385416666666666
4181,9.0,,,,,,,42.0,,,,,,0,note_on,,85.0,42.0,85.0,44404,23.12708333333333
4182,9.0,,,,,,,61.0,,,,,,0,note_on,,100.0,61.0,100.0,44404,23.12708333333333
4183,9.0,,,,,,,70.0,,,,,,0,note_on,,40.0,70.0,40.0,44404,23.12708333333333
4184,7.0,,,,,,,75.0,,,,,,84,note_on,,0.0,75.0,0.0,1178,0.6135416666666667
4185,8.0,,,,,,,63.0,,,,,,0,note_on,,0.0,63.0,0.0,6602,3.4385416666666666
4186,8.0,,,,,,,87.0,,,,,,28,note_on,,0.0,87.0,0.0,6630,3.453125
4187,9.0,,,,,,,61.0,,,,,,2,note_on,,0.0,61.0,0.0,44406,23.128125
4188,9.0,,,,,,,61.0,,,,,,6,note_on,,100.0,61.0,100.0,44412,23.13125
4189,3.0,,,,,,,75.0,,,,,,23,note_on,,0.0,75.0,0.0,32680,17.020833333333332
4190,9.0,,,,,,,70.0,,,,,,81,note_on,,0.0,70.0,0.0,44493,23.1734375
4191,5.0,,,,,,,55.0,,,,,,4,note_on,,0.0,55.0,0.0,708,0.36875
4192,9.0,,,,,,,61.0,,,,,,6,note_on,,0.0,61.0,0.0,44499,23.1765625
4193,9.0,,,,,,,42.0,,,,,,6,note_on,,0.0,42.0,0.0,44505,23.1796875
4194,9.0,,,,,,,44.0,,,,,,0,note_on,,75.0,44.0,75.0,44505,23.1796875
4195,9.0,,,,,,,61.0,,,,,,0,note_on,,100.0,61.0,100.0,44505,23.1796875
4196,5.0,,,,,,,58.0,,,,,,35,note_on,,0.0,58.0,0.0,743,0.38697916666666665
4197,5.0,,,,,,,63.0,,,,,,11,note_on,,0.0,63.0,0.0,754,0.3927083333333333
4198,9.0,,,,,,,61.0,,,,,,68,note_on,,0.0,61.0,0.0,44573,23.215104166666666
4199,9.0,,,,,,,61.0,,,,,,6,note_on,,100.0,61.0,100.0,44579,23.218229166666667
4200,8.0,,,,,,,39.0,,,,,,43,note_on,,0.0,39.0,0.0,6673,3.4755208333333334
4201,5.0,,,,,,,63.0,,,,,,6,note_on,,75.0,63.0,75.0,760,0.3958333333333333
4202,1.0,,,,,,,27.0,,,,,,18,note_on,,0.0,27.0,0.0,1702,0.8864583333333333
4203,5.0,,,,,,,60.0,,,,,,18,note_on,,103.0,60.0,103.0,778,0.40520833333333334
4204,5.0,,,,,,,55.0,,,,,,6,note_on,,81.0,55.0,81.0,784,0.4083333333333333
4205,9.0,,,,,,,61.0,,,,,,23,note_on,,0.0,61.0,0.0,44602,23.230208333333334
4206,9.0,,,,,,,44.0,,,,,,6,note_on,,0.0,44.0,0.0,44608,23.233333333333334
4207,1.0,,,,,,,36.0,,,,,,0,note_on,,127.0,36.0,127.0,1702,0.8864583333333333
4208,3.0,,,,,,,79.0,,,,,,0,note_on,,127.0,79.0,127.0,32680,17.020833333333332
4209,7.0,,,,,,,82.0,,,,,,0,note_on,,127.0,82.0,127.0,1178,0.6135416666666667
4210,8.0,,,,,,,48.0,,,,,,0,note_on,,126.0,48.0,126.0,6673,3.4755208333333334
4211,8.0,,,,,,,70.0,,,,,,0,note_on,,127.0,70.0,127.0,6673,3.4755208333333334
4212,9.0,,,,,,,61.0,,,,,,0,note_on,,100.0,61.0,100.0,44608,23.233333333333334
4213,9.0,,,,,,,42.0,,,,,,0,note_on,,85.0,42.0,85.0,44608,23.233333333333334
4214,9.0,,,,,,,70.0,,,,,,0,note_on,,40.0,70.0,40.0,44608,23.233333333333334
4215,9.0,,,,,,,36.0,,,,,,0,note_on,,126.0,36.0,126.0,44608,23.233333333333334
4216,9.0,,,,,,,35.0,,,,,,0,note_on,,60.0,35.0,60.0,44608,23.233333333333334
4217,11.0,,,,,,,63.0,,,,,,0,note_on,,127.0,63.0,127.0,16676,8.685416666666667
4218,11.0,,,,,,,60.0,,,,,,0,note_on,,127.0,60.0,127.0,16676,8.685416666666667
4219,11.0,,,,,,,67.0,,,,,,0,note_on,,127.0,67.0,127.0,16676,8.685416666666667
4220,,,,,,,,,,,,,ba ,0,lyrics,,,,,7,0.0036458333333333334
4221,9.0,,,,,,,61.0,,,,,,114,note_on,,0.0,61.0,0.0,44722,23.292708333333334
4222,9.0,,,,,,,35.0,,,,,,58,note_on,,0.0,35.0,0.0,44780,23.322916666666668
4223,9.0,,,,,,,36.0,,,,,,0,note_on,,0.0,36.0,0.0,44780,23.322916666666668
4224,9.0,,,,,,,70.0,,,,,,52,note_on,,0.0,70.0,0.0,44832,23.35
4225,9.0,,,,,,,42.0,,,,,,0,note_on,,0.0,42.0,0.0,44832,23.35
4226,8.0,,,,,,,87.0,,,,,,16,note_on,,45.0,87.0,45.0,6689,3.4838541666666667
4227,9.0,,,,,,,44.0,,,,,,0,note_on,,75.0,44.0,75.0,44832,23.35
4228,8.0,,,,,,,87.0,,,,,,106,note_on,,0.0,87.0,0.0,6795,3.5390625
4229,11.0,,,,,,,60.0,,,,,,58,note_on,,0.0,60.0,0.0,16734,8.715625
4230,11.0,,,,,,,63.0,,,,,,32,note_on,,0.0,63.0,0.0,16766,8.732291666666667
4231,11.0,,,,,,,67.0,,,,,,6,note_on,,0.0,67.0,0.0,16772,8.735416666666666
4232,9.0,,,,,,,44.0,,,,,,38,note_on,,0.0,44.0,0.0,44870,23.369791666666668
4233,9.0,,,,,,,42.0,,,,,,0,note_on,,85.0,42.0,85.0,44870,23.369791666666668
4234,9.0,,,,,,,70.0,,,,,,0,note_on,,40.0,70.0,40.0,44870,23.369791666666668
4235,10.0,,,,,,,63.0,,,,,,0,note_on,,127.0,63.0,127.0,8243,4.293229166666666
4236,10.0,,,,,,,60.0,,,,,,0,note_on,,127.0,60.0,127.0,8243,4.293229166666666
4237,10.0,,,,,,,67.0,,,,,,0,note_on,,127.0,67.0,127.0,8243,4.293229166666666
4238,8.0,,,,,,,70.0,,,,,,51,note_on,,0.0,70.0,0.0,6846,3.565625
4239,7.0,,,,,,,82.0,,,,,,0,note_on,,0.0,82.0,0.0,1178,0.6135416666666667
4240,3.0,,,,,,,79.0,,,,,,104,note_on,,0.0,79.0,0.0,32784,17.075
4241,9.0,,,,,,,70.0,,,,,,69,note_on,,0.0,70.0,0.0,44939,23.405729166666667
4242,9.0,,,,,,,42.0,,,,,,16,note_on,,0.0,42.0,0.0,44955,23.4140625
4243,9.0,,,,,,,44.0,,,,,,0,note_on,,75.0,44.0,75.0,44955,23.4140625
4244,9.0,,,,,,,36.0,,,,,,0,note_on,,126.0,36.0,126.0,44955,23.4140625
4245,9.0,,,,,,,35.0,,,,,,0,note_on,,60.0,35.0,60.0,44955,23.4140625
4246,10.0,,,,,,,60.0,,,,,,164,note_on,,0.0,60.0,0.0,8407,4.378645833333334
4247,10.0,,,,,,,63.0,,,,,,32,note_on,,0.0,63.0,0.0,8439,4.3953125
4248,10.0,,,,,,,67.0,,,,,,6,note_on,,0.0,67.0,0.0,8445,4.3984375
4249,9.0,,,,,,,36.0,,,,,,22,note_on,,0.0,36.0,0.0,44977,23.425520833333334
4250,9.0,,,,,,,35.0,,,,,,0,note_on,,0.0,35.0,0.0,44977,23.425520833333334
4251,9.0,,,,,,,44.0,,,,,,16,note_on,,0.0,44.0,0.0,44993,23.433854166666666
4252,3.0,,,,,,,77.0,,,,,,0,note_on,,127.0,77.0,127.0,32784,17.075
4253,7.0,,,,,,,75.0,,,,,,0,note_on,,127.0,75.0,127.0,1178,0.6135416666666667
4254,7.0,,,,,,,78.0,,,,,,0,note_on,,72.0,78.0,72.0,1178,0.6135416666666667
4255,8.0,,,,,,,87.0,,,,,,0,note_on,,45.0,87.0,45.0,6846,3.565625
4256,8.0,,,,,,,63.0,,,,,,0,note_on,,127.0,63.0,127.0,6846,3.565625
4257,8.0,,,,,,,66.0,,,,,,0,note_on,,72.0,66.0,72.0,6846,3.565625
4258,9.0,,,,,,,42.0,,,,,,0,note_on,,85.0,42.0,85.0,44993,23.433854166666666
4259,9.0,,,,,,,70.0,,,,,,0,note_on,,40.0,70.0,40.0,44993,23.433854166666666
4260,9.0,,,,,,,39.0,,,,,,0,note_on,,125.0,39.0,125.0,44993,23.433854166666666
4261,9.0,,,,,,,28.0,,,,,,0,note_on,,127.0,28.0,127.0,44993,23.433854166666666
4262,12.0,,,,,,,63.0,,,,,,0,note_on,,127.0,63.0,127.0,12726,6.628125
4263,12.0,,,,,,,60.0,,,,,,0,note_on,,127.0,60.0,127.0,12726,6.628125
4264,12.0,,,,,,,67.0,,,,,,0,note_on,,127.0,67.0,127.0,12726,6.628125
4265,,,,,,,,,,,,,"by, ",0,lyrics,,,,,7,0.0036458333333333334
4266,8.0,,,,,,,66.0,,,,,,48,note_on,,0.0,66.0,0.0,6894,3.5906249999999997
4267,7.0,,,,,,,78.0,,,,,,0,note_on,,0.0,78.0,0.0,1178,0.6135416666666667
4268,9.0,,,,,,,28.0,,,,,,69,note_on,,0.0,28.0,0.0,45062,23.469791666666666
4269,8.0,,,,,,,87.0,,,,,,10,note_on,,0.0,87.0,0.0,6904,3.595833333333333
4270,9.0,,,,,,,39.0,,,,,,24,note_on,,0.0,39.0,0.0,45086,23.482291666666665
4271,9.0,,,,,,,42.0,,,,,,73,note_on,,0.0,42.0,0.0,45159,23.5203125
4272,9.0,,,,,,,70.0,,,,,,0,note_on,,0.0,70.0,0.0,45159,23.5203125
4273,9.0,,,,,,,44.0,,,,,,16,note_on,,75.0,44.0,75.0,45175,23.528645833333332
4274,12.0,,,,,,,60.0,,,,,,164,note_on,,0.0,60.0,0.0,12890,6.713541666666667
4275,12.0,,,,,,,63.0,,,,,,32,note_on,,0.0,63.0,0.0,12922,6.730208333333334
4276,12.0,,,,,,,67.0,,,,,,6,note_on,,0.0,67.0,0.0,12928,6.733333333333333
4277,9.0,,,,,,,44.0,,,,,,38,note_on,,0.0,44.0,0.0,45213,23.5484375
4278,8.0,,,,,,,87.0,,,,,,0,note_on,,45.0,87.0,45.0,6904,3.595833333333333
4279,9.0,,,,,,,42.0,,,,,,0,note_on,,85.0,42.0,85.0,45213,23.5484375
4280,9.0,,,,,,,70.0,,,,,,0,note_on,,40.0,70.0,40.0,45213,23.5484375
4281,9.0,,,,,,,36.0,,,,,,0,note_on,,126.0,36.0,126.0,45213,23.5484375
4282,9.0,,,,,,,35.0,,,,,,0,note_on,,60.0,35.0,60.0,45213,23.5484375
4283,7.0,,,,,,,75.0,,,,,,40,note_on,,0.0,75.0,0.0,1218,0.634375
4284,8.0,,,,,,,63.0,,,,,,0,note_on,,0.0,63.0,0.0,6904,3.595833333333333
4285,8.0,,,,,,,87.0,,,,,,90,note_on,,0.0,87.0,0.0,6994,3.642708333333333
4286,3.0,,,,,,,77.0,,,,,,2,note_on,,0.0,77.0,0.0,32786,17.076041666666665
4287,9.0,,,,,,,35.0,,,,,,34,note_on,,0.0,35.0,0.0,45247,23.566145833333334
4288,9.0,,,,,,,36.0,,,,,,0,note_on,,0.0,36.0,0.0,45247,23.566145833333334
4289,9.0,,,,,,,70.0,,,,,,58,note_on,,0.0,70.0,0.0,45305,23.596354166666668
4290,9.0,,,,,,,42.0,,,,,,16,note_on,,0.0,42.0,0.0,45321,23.6046875
4291,9.0,,,,,,,44.0,,,,,,0,note_on,,75.0,44.0,75.0,45321,23.6046875
4292,9.0,,,,,,,44.0,,,,,,240,note_on,,0.0,44.0,0.0,45561,23.7296875
4293,3.0,,,,,,,79.0,,,,,,0,note_on,,127.0,79.0,127.0,32786,17.076041666666665
4294,7.0,,,,,,,77.0,,,,,,0,note_on,,127.0,77.0,127.0,1218,0.634375
4295,8.0,,,,,,,65.0,,,,,,0,note_on,,127.0,65.0,127.0,6994,3.642708333333333
4296,9.0,,,,,,,42.0,,,,,,0,note_on,,85.0,42.0,85.0,45561,23.7296875
4297,9.0,,,,,,,70.0,,,,,,0,note_on,,40.0,70.0,40.0,45561,23.7296875
4298,,,,,,,,,,,,,ba ,0,lyrics,,,,,7,0.0036458333333333334
4299,9.0,,,,,,,70.0,,,,,,224,note_on,,0.0,70.0,0.0,45785,23.846354166666668
4300,9.0,,,,,,,42.0,,,,,,0,note_on,,0.0,42.0,0.0,45785,23.846354166666668
4301,8.0,,,,,,,87.0,,,,,,16,note_on,,45.0,87.0,45.0,7010,3.6510416666666665
4302,9.0,,,,,,,44.0,,,,,,0,note_on,,75.0,44.0,75.0,45785,23.846354166666668
4303,8.0,,,,,,,87.0,,,,,,133,note_on,,0.0,87.0,0.0,7143,3.7203125
4304,9.0,,,,,,,44.0,,,,,,107,note_on,,0.0,44.0,0.0,45892,23.902083333333334
4305,9.0,,,,,,,42.0,,,,,,0,note_on,,85.0,42.0,85.0,45892,23.902083333333334
4306,9.0,,,,,,,70.0,,,,,,0,note_on,,40.0,70.0,40.0,45892,23.902083333333334
4307,9.0,,,,,,,36.0,,,,,,0,note_on,,126.0,36.0,126.0,45892,23.902083333333334
4308,9.0,,,,,,,35.0,,,,,,0,note_on,,60.0,35.0,60.0,45892,23.902083333333334
4309,8.0,,,,,,,65.0,,,,,,103,note_on,,0.0,65.0,0.0,7246,3.7739583333333333
4310,7.0,,,,,,,77.0,,,,,,0,note_on,,0.0,77.0,0.0,1218,0.634375
4311,9.0,,,,,,,35.0,,,,,,51,note_on,,0.0,35.0,0.0,45943,23.928645833333334
4312,9.0,,,,,,,36.0,,,,,,0,note_on,,0.0,36.0,0.0,45943,23.928645833333334
4313,3.0,,,,,,,79.0,,,,,,52,note_on,,0.0,79.0,0.0,32838,17.103125
4314,9.0,,,,,,,70.0,,,,,,18,note_on,,0.0,70.0,0.0,45961,23.938020833333333
4315,9.0,,,,,,,42.0,,,,,,16,note_on,,0.0,42.0,0.0,45977,23.946354166666666
4316,9.0,,,,,,,44.0,,,,,,0,note_on,,75.0,44.0,75.0,45977,23.946354166666666
4317,9.0,,,,,,,44.0,,,,,,240,note_on,,0.0,44.0,0.0,46217,24.071354166666666
4318,3.0,,,,,,,77.0,,,,,,0,note_on,,127.0,77.0,127.0,32838,17.103125
4319,7.0,,,,,,,70.0,,,,,,0,note_on,,127.0,70.0,127.0,1218,0.634375
4320,8.0,,,,,,,87.0,,,,,,0,note_on,,45.0,87.0,45.0,7246,3.7739583333333333
4321,8.0,,,,,,,58.0,,,,,,0,note_on,,127.0,58.0,127.0,7246,3.7739583333333333
4322,9.0,,,,,,,42.0,,,,,,0,note_on,,85.0,42.0,85.0,46217,24.071354166666666
4323,9.0,,,,,,,70.0,,,,,,0,note_on,,40.0,70.0,40.0,46217,24.071354166666666
4324,9.0,,,,,,,39.0,,,,,,0,note_on,,127.0,39.0,127.0,46217,24.071354166666666
4325,9.0,,,,,,,28.0,,,,,,0,note_on,,127.0,28.0,127.0,46217,24.071354166666666
4326,11.0,,,,,,,68.0,,,,,,0,note_on,,127.0,68.0,127.0,16772,8.735416666666666
4327,11.0,,,,,,,60.0,,,,,,0,note_on,,127.0,60.0,127.0,16772,8.735416666666666
4328,11.0,,,,,,,63.0,,,,,,0,note_on,,127.0,63.0,127.0,16772,8.735416666666666
4329,,,,,,,,,,,,,"by, ",0,lyrics,,,,,7,0.0036458333333333334
4330,9.0,,,,,,,39.0,,,,,,123,note_on,,0.0,39.0,0.0,46340,24.135416666666668
4331,9.0,,,,,,,28.0,,,,,,2,note_on,,0.0,28.0,0.0,46342,24.136458333333334
4332,8.0,,,,,,,87.0,,,,,,4,note_on,,0.0,87.0,0.0,7250,3.7760416666666665
4333,9.0,,,,,,,42.0,,,,,,95,note_on,,0.0,42.0,0.0,46437,24.1859375
4334,9.0,,,,,,,70.0,,,,,,0,note_on,,0.0,70.0,0.0,46437,24.1859375
4335,9.0,,,,,,,44.0,,,,,,16,note_on,,75.0,44.0,75.0,46453,24.194270833333334
4336,11.0,,,,,,,68.0,,,,,,145,note_on,,0.0,68.0,0.0,16917,8.8109375
4337,11.0,,,,,,,60.0,,,,,,4,note_on,,0.0,60.0,0.0,16921,8.813020833333333
4338,11.0,,,,,,,63.0,,,,,,19,note_on,,0.0,63.0,0.0,16940,8.822916666666666
4339,9.0,,,,,,,44.0,,,,,,72,note_on,,0.0,44.0,0.0,46525,24.231770833333332
4340,8.0,,,,,,,87.0,,,,,,0,note_on,,45.0,87.0,45.0,7250,3.7760416666666665
4341,9.0,,,,,,,42.0,,,,,,0,note_on,,85.0,42.0,85.0,46525,24.231770833333332
4342,9.0,,,,,,,70.0,,,,,,0,note_on,,40.0,70.0,40.0,46525,24.231770833333332
4343,10.0,,,,,,,68.0,,,,,,0,note_on,,127.0,68.0,127.0,8445,4.3984375
4344,10.0,,,,,,,60.0,,,,,,0,note_on,,127.0,60.0,127.0,8445,4.3984375
4345,10.0,,,,,,,63.0,,,,,,0,note_on,,127.0,63.0,127.0,8445,4.3984375
4346,11.0,,,,,,,63.0,,,,,,0,note_on,,127.0,63.0,127.0,16940,8.822916666666666
4347,11.0,,,,,,,60.0,,,,,,0,note_on,,127.0,60.0,127.0,16940,8.822916666666666
4348,11.0,,,,,,,67.0,,,,,,0,note_on,,127.0,67.0,127.0,16940,8.822916666666666
4349,8.0,,,,,,,87.0,,,,,,121,note_on,,0.0,87.0,0.0,7371,3.8390625
4350,7.0,,,,,,,70.0,,,,,,5,note_on,,0.0,70.0,0.0,1223,0.6369791666666667
4351,8.0,,,,,,,58.0,,,,,,0,note_on,,0.0,58.0,0.0,7371,3.8390625
4352,3.0,,,,,,,77.0,,,,,,9,note_on,,0.0,77.0,0.0,32847,17.1078125
4353,9.0,,,,,,,70.0,,,,,,89,note_on,,0.0,70.0,0.0,46614,24.278125
4354,9.0,,,,,,,42.0,,,,,,16,note_on,,0.0,42.0,0.0,46630,24.286458333333332
4355,9.0,,,,,,,44.0,,,,,,0,note_on,,75.0,44.0,75.0,46630,24.286458333333332
4356,11.0,,,,,,,60.0,,,,,,131,note_on,,0.0,60.0,0.0,17071,8.891145833333333
4357,11.0,,,,,,,67.0,,,,,,11,note_on,,0.0,67.0,0.0,17082,8.896875
4358,10.0,,,,,,,68.0,,,,,,3,note_on,,0.0,68.0,0.0,8448,4.4
4359,10.0,,,,,,,60.0,,,,,,4,note_on,,0.0,60.0,0.0,8452,4.402083333333334
4360,10.0,,,,,,,63.0,,,,,,19,note_on,,0.0,63.0,0.0,8471,4.411979166666667
4361,11.0,,,,,,,63.0,,,,,,18,note_on,,0.0,63.0,0.0,17100,8.90625
4362,9.0,,,,,,,44.0,,,,,,54,note_on,,0.0,44.0,0.0,46684,24.31458333333333
4363,3.0,,,,,,,79.0,,,,,,0,note_on,,127.0,79.0,127.0,32847,17.1078125
4364,7.0,,,,,,,82.0,,,,,,0,note_on,,127.0,82.0,127.0,1223,0.6369791666666667
4365,8.0,,,,,,,70.0,,,,,,0,note_on,,127.0,70.0,127.0,7371,3.8390625
4366,9.0,,,,,,,42.0,,,,,,0,note_on,,85.0,42.0,85.0,46684,24.31458333333333
4367,9.0,,,,,,,70.0,,,,,,0,note_on,,40.0,70.0,40.0,46684,24.31458333333333
4368,9.0,,,,,,,36.0,,,,,,0,note_on,,126.0,36.0,126.0,46684,24.31458333333333
4369,9.0,,,,,,,35.0,,,,,,0,note_on,,60.0,35.0,60.0,46684,24.31458333333333
4370,10.0,,,,,,,63.0,,,,,,0,note_on,,127.0,63.0,127.0,8471,4.411979166666667
4371,10.0,,,,,,,60.0,,,,,,0,note_on,,127.0,60.0,127.0,8471,4.411979166666667
4372,10.0,,,,,,,67.0,,,,,,0,note_on,,127.0,67.0,127.0,8471,4.411979166666667
4373,12.0,,,,,,,68.0,,,,,,0,note_on,,127.0,68.0,127.0,12928,6.733333333333333
4374,12.0,,,,,,,60.0,,,,,,0,note_on,,127.0,60.0,127.0,12928,6.733333333333333
4375,12.0,,,,,,,63.0,,,,,,0,note_on,,127.0,63.0,127.0,12928,6.733333333333333
4376,,,,,,,,,,,,,ba ,0,lyrics,,,,,7,0.0036458333333333334
4377,9.0,,,,,,,35.0,,,,,,172,note_on,,0.0,35.0,0.0,46856,24.404166666666665
4378,9.0,,,,,,,36.0,,,,,,0,note_on,,0.0,36.0,0.0,46856,24.404166666666665
4379,9.0,,,,,,,70.0,,,,,,52,note_on,,0.0,70.0,0.0,46908,24.43125
4380,9.0,,,,,,,42.0,,,,,,0,note_on,,0.0,42.0,0.0,46908,24.43125
4381,8.0,,,,,,,87.0,,,,,,16,note_on,,45.0,87.0,45.0,7387,3.847395833333333
4382,9.0,,,,,,,44.0,,,,,,0,note_on,,75.0,44.0,75.0,46908,24.43125
4383,8.0,,,,,,,87.0,,,,,,126,note_on,,0.0,87.0,0.0,7513,3.9130208333333334
4384,10.0,,,,,,,60.0,,,,,,5,note_on,,0.0,60.0,0.0,8476,4.414583333333333
4385,10.0,,,,,,,67.0,,,,,,11,note_on,,0.0,67.0,0.0,8487,4.4203125
4386,12.0,,,,,,,68.0,,,,,,3,note_on,,0.0,68.0,0.0,12931,6.734895833333333
4387,12.0,,,,,,,60.0,,,,,,4,note_on,,0.0,60.0,0.0,12935,6.736979166666667
4388,12.0,,,,,,,63.0,,,,,,19,note_on,,0.0,63.0,0.0,12954,6.746875
4389,10.0,,,,,,,63.0,,,,,,18,note_on,,0.0,63.0,0.0,8505,4.4296875
4390,9.0,,,,,,,44.0,,,,,,54,note_on,,0.0,44.0,0.0,46962,24.459375
4391,9.0,,,,,,,42.0,,,,,,0,note_on,,85.0,42.0,85.0,46962,24.459375
4392,9.0,,,,,,,70.0,,,,,,0,note_on,,40.0,70.0,40.0,46962,24.459375
4393,12.0,,,,,,,63.0,,,,,,0,note_on,,127.0,63.0,127.0,12954,6.746875
4394,12.0,,,,,,,60.0,,,,,,0,note_on,,127.0,60.0,127.0,12954,6.746875
4395,12.0,,,,,,,67.0,,,,,,0,note_on,,127.0,67.0,127.0,12954,6.746875
4396,7.0,,,,,,,82.0,,,,,,45,note_on,,0.0,82.0,0.0,1268,0.6604166666666667
4397,8.0,,,,,,,70.0,,,,,,0,note_on,,0.0,70.0,0.0,7513,3.9130208333333334
4398,3.0,,,,,,,79.0,,,,,,127,note_on,,0.0,79.0,0.0,32974,17.17395833333333
4399,9.0,,,,,,,70.0,,,,,,52,note_on,,0.0,70.0,0.0,47014,24.48645833333333
4400,9.0,,,,,,,42.0,,,,,,16,note_on,,0.0,42.0,0.0,47030,24.494791666666668
4401,8.0,,,,,,,87.0,,,,,,0,note_on,,45.0,87.0,45.0,7513,3.9130208333333334
4402,9.0,,,,,,,44.0,,,,,,0,note_on,,75.0,44.0,75.0,47030,24.494791666666668
4403,9.0,,,,,,,36.0,,,,,,0,note_on,,126.0,36.0,126.0,47030,24.494791666666668
4404,9.0,,,,,,,35.0,,,,,,0,note_on,,60.0,35.0,60.0,47030,24.494791666666668
4405,8.0,,,,,,,87.0,,,,,,125,note_on,,0.0,87.0,0.0,7638,3.978125
4406,12.0,,,,,,,60.0,,,,,,6,note_on,,0.0,60.0,0.0,12960,6.75
4407,12.0,,,,,,,67.0,,,,,,11,note_on,,0.0,67.0,0.0,12971,6.755729166666667
4408,12.0,,,,,,,63.0,,,,,,44,note_on,,0.0,63.0,0.0,13015,6.778645833333333
4409,9.0,,,,,,,36.0,,,,,,38,note_on,,0.0,36.0,0.0,47068,24.514583333333334
4410,9.0,,,,,,,35.0,,,,,,0,note_on,,0.0,35.0,0.0,47068,24.514583333333334
4411,9.0,,,,,,,44.0,,,,,,16,note_on,,0.0,44.0,0.0,47084,24.522916666666667
4412,3.0,,,,,,,77.0,,,,,,0,note_on,,127.0,77.0,127.0,32974,17.17395833333333
4413,7.0,,,,,,,75.0,,,,,,0,note_on,,127.0,75.0,127.0,1268,0.6604166666666667
4414,8.0,,,,,,,63.0,,,,,,0,note_on,,127.0,63.0,127.0,7638,3.978125
4415,9.0,,,,,,,42.0,,,,,,0,note_on,,85.0,42.0,85.0,47084,24.522916666666667
4416,9.0,,,,,,,70.0,,,,,,0,note_on,,40.0,70.0,40.0,47084,24.522916666666667
4417,9.0,,,,,,,39.0,,,,,,0,note_on,,125.0,39.0,125.0,47084,24.522916666666667
4418,9.0,,,,,,,28.0,,,,,,0,note_on,,127.0,28.0,127.0,47084,24.522916666666667
4419,,,,,,,,,,,,,by ,0,lyrics,,,,,8,0.004166666666666667
4420,9.0,,,,,,,28.0,,,,,,117,note_on,,0.0,28.0,0.0,47201,24.583854166666665
4421,9.0,,,,,,,39.0,,,,,,34,note_on,,0.0,39.0,0.0,47235,24.6015625
4422,9.0,,,,,,,42.0,,,,,,73,note_on,,0.0,42.0,0.0,47308,24.639583333333334
4423,9.0,,,,,,,70.0,,,,,,0,note_on,,0.0,70.0,0.0,47308,24.639583333333334
4424,8.0,,,,,,,87.0,,,,,,16,note_on,,45.0,87.0,45.0,7654,3.986458333333333
4425,9.0,,,,,,,44.0,,,,,,0,note_on,,75.0,44.0,75.0,47308,24.639583333333334
4426,3.0,,,,,,,77.0,,,,,,43,note_on,,0.0,77.0,0.0,33017,17.196354166666666
4427,8.0,,,,,,,87.0,,,,,,88,note_on,,0.0,87.0,0.0,7742,4.032291666666667
4428,9.0,,,,,,,44.0,,,,,,109,note_on,,0.0,44.0,0.0,47417,24.696354166666666
4429,3.0,,,,,,,84.0,,,,,,0,note_on,,127.0,84.0,127.0,33017,17.196354166666666
4430,9.0,,,,,,,42.0,,,,,,0,note_on,,85.0,42.0,85.0,47417,24.696354166666666
4431,9.0,,,,,,,70.0,,,,,,0,note_on,,40.0,70.0,40.0,47417,24.696354166666666
4432,9.0,,,,,,,36.0,,,,,,0,note_on,,126.0,36.0,126.0,47417,24.696354166666666
4433,9.0,,,,,,,35.0,,,,,,0,note_on,,60.0,35.0,60.0,47417,24.696354166666666
4434,,,,,,,,,,,,,noo ,0,lyrics,,,,,8,0.004166666666666667
4435,,,,,,,,,,,,,,0,lyrics,,,,,8,0.004166666666666667
4436,8.0,,,,,,,63.0,,,,,,51,note_on,,0.0,63.0,0.0,7793,4.058854166666666
4437,7.0,,,,,,,75.0,,,,,,0,note_on,,0.0,75.0,0.0,1268,0.6604166666666667
4438,9.0,,,,,,,35.0,,,,,,115,note_on,,0.0,35.0,0.0,47532,24.75625
4439,9.0,,,,,,,36.0,,,,,,0,note_on,,0.0,36.0,0.0,47532,24.75625
4440,9.0,,,,,,,70.0,,,,,,58,note_on,,0.0,70.0,0.0,47590,24.786458333333332
4441,9.0,,,,,,,42.0,,,,,,16,note_on,,0.0,42.0,0.0,47606,24.794791666666665
4442,8.0,,,,,,,87.0,,,,,,0,note_on,,45.0,87.0,45.0,7793,4.058854166666666
4443,9.0,,,,,,,44.0,,,,,,0,note_on,,75.0,44.0,75.0,47606,24.794791666666665
4444,8.0,,,,,,,87.0,,,,,,123,note_on,,0.0,87.0,0.0,7916,4.122916666666667
4445,9.0,,,,,,,44.0,,,,,,117,note_on,,0.0,44.0,0.0,47723,24.855729166666666
4446,7.0,,,,,,,77.0,,,,,,0,note_on,,127.0,77.0,127.0,1268,0.6604166666666667
4447,8.0,,,,,,,65.0,,,,,,0,note_on,,127.0,65.0,127.0,7916,4.122916666666667
4448,9.0,,,,,,,42.0,,,,,,0,note_on,,85.0,42.0,85.0,47723,24.855729166666666
4449,9.0,,,,,,,70.0,,,,,,0,note_on,,40.0,70.0,40.0,47723,24.855729166666666
4450,9.0,,,,,,,70.0,,,,,,224,note_on,,0.0,70.0,0.0,47947,24.972395833333334
4451,8.0,,,,,,,87.0,,,,,,16,note_on,,45.0,87.0,45.0,7932,4.13125
4452,9.0,,,,,,,44.0,,,,,,0,note_on,,75.0,44.0,75.0,47947,24.972395833333334
4453,8.0,,,,,,,87.0,,,,,,135,note_on,,0.0,87.0,0.0,8067,4.2015625
4454,9.0,,,,,,,44.0,,,,,,105,note_on,,0.0,44.0,0.0,48052,25.027083333333334
4455,9.0,,,,,,,42.0,,,,,,0,note_on,,85.0,42.0,85.0,48052,25.027083333333334
4456,9.0,,,,,,,70.0,,,,,,0,note_on,,40.0,70.0,40.0,48052,25.027083333333334
4457,9.0,,,,,,,36.0,,,,,,0,note_on,,126.0,36.0,126.0,48052,25.027083333333334
4458,9.0,,,,,,,35.0,,,,,,0,note_on,,60.0,35.0,60.0,48052,25.027083333333334
4459,3.0,,,,,,,84.0,,,,,,23,note_on,,0.0,84.0,0.0,33040,17.208333333333332
4460,8.0,,,,,,,65.0,,,,,,33,note_on,,0.0,65.0,0.0,8100,4.21875
4461,7.0,,,,,,,77.0,,,,,,0,note_on,,0.0,77.0,0.0,1268,0.6604166666666667
4462,9.0,,,,,,,35.0,,,,,,98,note_on,,0.0,35.0,0.0,48150,25.078125
4463,9.0,,,,,,,36.0,,,,,,0,note_on,,0.0,36.0,0.0,48150,25.078125
4464,9.0,,,,,,,70.0,,,,,,70,note_on,,0.0,70.0,0.0,48220,25.114583333333332
4465,9.0,,,,,,,42.0,,,,,,16,note_on,,0.0,42.0,0.0,48236,25.122916666666665
4466,9.0,,,,,,,44.0,,,,,,0,note_on,,75.0,44.0,75.0,48236,25.122916666666665
4467,3.0,,,,,,,75.0,,,,,,234,note_on,,127.0,75.0,127.0,33274,17.33020833333333
4468,,,,,,,,,,,,,Like ,0,lyrics,,,,,8,0.004166666666666667
4469,9.0,,,,,,,44.0,,,,,,6,note_on,,0.0,44.0,0.0,48242,25.126041666666666
4470,7.0,,,,,,,75.0,,,,,,0,note_on,,127.0,75.0,127.0,1268,0.6604166666666667
4471,8.0,,,,,,,87.0,,,,,,0,note_on,,45.0,87.0,45.0,8100,4.21875
4472,8.0,,,,,,,63.0,,,,,,0,note_on,,127.0,63.0,127.0,8100,4.21875
4473,9.0,,,,,,,42.0,,,,,,0,note_on,,85.0,42.0,85.0,48242,25.126041666666666
4474,9.0,,,,,,,70.0,,,,,,0,note_on,,40.0,70.0,40.0,48242,25.126041666666666
4475,9.0,,,,,,,39.0,,,,,,0,note_on,,127.0,39.0,127.0,48242,25.126041666666666
4476,9.0,,,,,,,28.0,,,,,,0,note_on,,127.0,28.0,127.0,48242,25.126041666666666
4477,9.0,,,,,,,39.0,,,,,,123,note_on,,0.0,39.0,0.0,48365,25.190104166666668
4478,9.0,,,,,,,28.0,,,,,,2,note_on,,0.0,28.0,0.0,48367,25.191145833333334
4479,8.0,,,,,,,87.0,,,,,,10,note_on,,0.0,87.0,0.0,8110,4.223958333333333
4480,9.0,,,,,,,70.0,,,,,,89,note_on,,0.0,70.0,0.0,48456,25.2375
4481,9.0,,,,,,,42.0,,,,,,0,note_on,,0.0,42.0,0.0,48456,25.2375
4482,9.0,,,,,,,42.0,,,,,,16,note_on,,0.0,42.0,0.0,48472,25.245833333333334
4483,9.0,,,,,,,44.0,,,,,,0,note_on,,75.0,44.0,75.0,48472,25.245833333333334
4484,9.0,,,,,,,44.0,,,,,,240,note_on,,0.0,44.0,0.0,48712,25.370833333333334
4485,8.0,,,,,,,87.0,,,,,,0,note_on,,45.0,87.0,45.0,8110,4.223958333333333
4486,9.0,,,,,,,42.0,,,,,,0,note_on,,85.0,42.0,85.0,48712,25.370833333333334
4487,9.0,,,,,,,61.0,,,,,,0,note_on,,100.0,61.0,100.0,48712,25.370833333333334
4488,9.0,,,,,,,70.0,,,,,,0,note_on,,40.0,70.0,40.0,48712,25.370833333333334
4489,7.0,,,,,,,75.0,,,,,,72,note_on,,0.0,75.0,0.0,1340,0.6979166666666666
4490,8.0,,,,,,,63.0,,,,,,0,note_on,,0.0,63.0,0.0,8110,4.223958333333333
4491,9.0,,,,,,,61.0,,,,,,42,note_on,,0.0,61.0,0.0,48754,25.39270833333333
4492,9.0,,,,,,,61.0,,,,,,6,note_on,,100.0,61.0,100.0,48760,25.395833333333332
4493,8.0,,,,,,,87.0,,,,,,4,note_on,,0.0,87.0,0.0,8114,4.226041666666666
4494,3.0,,,,,,,75.0,,,,,,80,note_on,,0.0,75.0,0.0,33354,17.371875
4495,9.0,,,,,,,70.0,,,,,,20,note_on,,0.0,70.0,0.0,48780,25.40625
4496,9.0,,,,,,,61.0,,,,,,10,note_on,,0.0,61.0,0.0,48790,25.411458333333332
4497,9.0,,,,,,,42.0,,,,,,6,note_on,,0.0,42.0,0.0,48796,25.414583333333333
4498,9.0,,,,,,,44.0,,,,,,0,note_on,,75.0,44.0,75.0,48796,25.414583333333333
4499,9.0,,,,,,,61.0,,,,,,0,note_on,,100.0,61.0,100.0,48796,25.414583333333333
4500,5.0,,,,,,,55.0,,,,,,35,note_on,,0.0,55.0,0.0,819,0.4265625
4501,5.0,,,,,,,63.0,,,,,,65,note_on,,0.0,63.0,0.0,884,0.46041666666666664
4502,9.0,,,,,,,61.0,,,,,,14,note_on,,0.0,61.0,0.0,48810,25.421875
4503,5.0,,,,,,,60.0,,,,,,5,note_on,,0.0,60.0,0.0,889,0.4630208333333333
4504,9.0,,,,,,,61.0,,,,,,1,note_on,,100.0,61.0,100.0,48811,25.422395833333333
4505,9.0,,,,,,,61.0,,,,,,114,note_on,,0.0,61.0,0.0,48925,25.481770833333332
4506,5.0,,,,,,,60.0,,,,,,5,note_on,,80.0,60.0,80.0,894,0.465625
4507,9.0,,,,,,,44.0,,,,,,1,note_on,,0.0,44.0,0.0,48926,25.482291666666665
4508,1.0,,,,,,,32.0,,,,,,0,note_on,,127.0,32.0,127.0,1702,0.8864583333333333
4509,7.0,,,,,,,82.0,,,,,,0,note_on,,127.0,82.0,127.0,1340,0.6979166666666666
4510,8.0,,,,,,,44.0,,,,,,0,note_on,,127.0,44.0,127.0,8114,4.226041666666666
4511,8.0,,,,,,,70.0,,,,,,0,note_on,,127.0,70.0,127.0,8114,4.226041666666666
4512,9.0,,,,,,,61.0,,,,,,0,note_on,,100.0,61.0,100.0,48926,25.482291666666665
4513,9.0,,,,,,,42.0,,,,,,0,note_on,,85.0,42.0,85.0,48926,25.482291666666665
4514,9.0,,,,,,,70.0,,,,,,0,note_on,,40.0,70.0,40.0,48926,25.482291666666665
4515,9.0,,,,,,,36.0,,,,,,0,note_on,,126.0,36.0,126.0,48926,25.482291666666665
4516,9.0,,,,,,,35.0,,,,,,0,note_on,,60.0,35.0,60.0,48926,25.482291666666665
4517,11.0,,,,,,,60.0,,,,,,0,note_on,,127.0,60.0,127.0,17100,8.90625
4518,11.0,,,,,,,56.0,,,,,,0,note_on,,127.0,56.0,127.0,17100,8.90625
4519,11.0,,,,,,,63.0,,,,,,0,note_on,,127.0,63.0,127.0,17100,8.90625
4520,5.0,,,,,,,63.0,,,,,,14,note_on,,100.0,63.0,100.0,908,0.47291666666666665
4521,5.0,,,,,,,56.0,,,,,,0,note_on,,72.0,56.0,72.0,908,0.47291666666666665
4522,1.0,,,,,,,36.0,,,,,,10,note_on,,0.0,36.0,0.0,1712,0.8916666666666666
4523,3.0,,,,,,,79.0,,,,,,3,note_on,,127.0,79.0,127.0,33357,17.3734375
4524,,,,,,,,,,,,,ba ,0,lyrics,,,,,8,0.004166666666666667
4525,8.0,,,,,,,48.0,,,,,,16,note_on,,0.0,48.0,0.0,8130,4.234375
4526,9.0,,,,,,,61.0,,,,,,71,note_on,,0.0,61.0,0.0,48997,25.519270833333334
4527,9.0,,,,,,,35.0,,,,,,58,note_on,,0.0,35.0,0.0,49055,25.549479166666668
4528,9.0,,,,,,,36.0,,,,,,0,note_on,,0.0,36.0,0.0,49055,25.549479166666668
4529,9.0,,,,,,,42.0,,,,,,52,note_on,,0.0,42.0,0.0,49107,25.5765625
4530,9.0,,,,,,,70.0,,,,,,0,note_on,,0.0,70.0,0.0,49107,25.5765625
4531,9.0,,,,,,,44.0,,,,,,16,note_on,,75.0,44.0,75.0,49123,25.584895833333334
4532,11.0,,,,,,,56.0,,,,,,191,note_on,,0.0,56.0,0.0,17291,9.005729166666667
4533,11.0,,,,,,,60.0,,,,,,25,note_on,,0.0,60.0,0.0,17316,9.01875
4534,9.0,,,,,,,44.0,,,,,,24,note_on,,0.0,44.0,0.0,49147,25.597395833333334
4535,8.0,,,,,,,87.0,,,,,,0,note_on,,45.0,87.0,45.0,8130,4.234375
4536,9.0,,,,,,,42.0,,,,,,0,note_on,,85.0,42.0,85.0,49147,25.597395833333334
4537,9.0,,,,,,,70.0,,,,,,0,note_on,,40.0,70.0,40.0,49147,25.597395833333334
4538,10.0,,,,,,,60.0,,,,,,0,note_on,,127.0,60.0,127.0,8505,4.4296875
4539,10.0,,,,,,,56.0,,,,,,0,note_on,,127.0,56.0,127.0,8505,4.4296875
4540,10.0,,,,,,,63.0,,,,,,0,note_on,,127.0,63.0,127.0,8505,4.4296875
4541,11.0,,,,,,,63.0,,,,,,9,note_on,,0.0,63.0,0.0,17325,9.0234375
4542,7.0,,,,,,,82.0,,,,,,90,note_on,,0.0,82.0,0.0,1430,0.7447916666666666
4543,8.0,,,,,,,70.0,,,,,,0,note_on,,0.0,70.0,0.0,8130,4.234375
4544,8.0,,,,,,,87.0,,,,,,24,note_on,,0.0,87.0,0.0,8154,4.246875
4545,3.0,,,,,,,79.0,,,,,,52,note_on,,0.0,79.0,0.0,33409,17.40052083333333
4546,9.0,,,,,,,70.0,,,,,,49,note_on,,0.0,70.0,0.0,49196,25.622916666666665
4547,9.0,,,,,,,42.0,,,,,,16,note_on,,0.0,42.0,0.0,49212,25.631249999999998
4548,9.0,,,,,,,44.0,,,,,,0,note_on,,75.0,44.0,75.0,49212,25.631249999999998
4549,9.0,,,,,,,36.0,,,,,,0,note_on,,126.0,36.0,126.0,49212,25.631249999999998
4550,9.0,,,,,,,35.0,,,,,,0,note_on,,60.0,35.0,60.0,49212,25.631249999999998
4551,10.0,,,,,,,56.0,,,,,,191,note_on,,0.0,56.0,0.0,8696,4.529166666666667
4552,3.0,,,,,,,77.0,,,,,,23,note_on,,127.0,77.0,127.0,33432,17.4125
4553,,,,,,,,,,,,,"by, ",0,lyrics,,,,,8,0.004166666666666667
4554,10.0,,,,,,,60.0,,,,,,2,note_on,,0.0,60.0,0.0,8698,4.530208333333333
4555,9.0,,,,,,,35.0,,,,,,8,note_on,,0.0,35.0,0.0,49220,25.635416666666668
4556,9.0,,,,,,,36.0,,,,,,0,note_on,,0.0,36.0,0.0,49220,25.635416666666668
4557,9.0,,,,,,,44.0,,,,,,16,note_on,,0.0,44.0,0.0,49236,25.64375
4558,7.0,,,,,,,75.0,,,,,,0,note_on,,127.0,75.0,127.0,1430,0.7447916666666666
4559,8.0,,,,,,,87.0,,,,,,0,note_on,,45.0,87.0,45.0,8154,4.246875
4560,8.0,,,,,,,63.0,,,,,,0,note_on,,127.0,63.0,127.0,8154,4.246875
4561,9.0,,,,,,,42.0,,,,,,0,note_on,,85.0,42.0,85.0,49236,25.64375
4562,9.0,,,,,,,70.0,,,,,,0,note_on,,40.0,70.0,40.0,49236,25.64375
4563,9.0,,,,,,,39.0,,,,,,0,note_on,,125.0,39.0,125.0,49236,25.64375
4564,9.0,,,,,,,28.0,,,,,,0,note_on,,127.0,28.0,127.0,49236,25.64375
4565,12.0,,,,,,,60.0,,,,,,0,note_on,,127.0,60.0,127.0,13015,6.778645833333333
4566,12.0,,,,,,,56.0,,,,,,0,note_on,,127.0,56.0,127.0,13015,6.778645833333333
4567,12.0,,,,,,,63.0,,,,,,0,note_on,,127.0,63.0,127.0,13015,6.778645833333333
4568,10.0,,,,,,,63.0,,,,,,9,note_on,,0.0,63.0,0.0,8707,4.534895833333334
4569,9.0,,,,,,,28.0,,,,,,108,note_on,,0.0,28.0,0.0,49344,25.7
4570,8.0,,,,,,,87.0,,,,,,10,note_on,,0.0,87.0,0.0,8164,4.252083333333333
4571,9.0,,,,,,,39.0,,,,,,24,note_on,,0.0,39.0,0.0,49368,25.7125
4572,9.0,,,,,,,42.0,,,,,,73,note_on,,0.0,42.0,0.0,49441,25.750520833333333
4573,9.0,,,,,,,70.0,,,,,,0,note_on,,0.0,70.0,0.0,49441,25.750520833333333
4574,9.0,,,,,,,44.0,,,,,,16,note_on,,75.0,44.0,75.0,49457,25.758854166666666
4575,12.0,,,,,,,56.0,,,,,,191,note_on,,0.0,56.0,0.0,13206,6.878125
4576,12.0,,,,,,,60.0,,,,,,25,note_on,,0.0,60.0,0.0,13231,6.891145833333333
4577,9.0,,,,,,,44.0,,,,,,24,note_on,,0.0,44.0,0.0,49481,25.771354166666665
4578,8.0,,,,,,,87.0,,,,,,0,note_on,,45.0,87.0,45.0,8164,4.252083333333333
4579,9.0,,,,,,,42.0,,,,,,0,note_on,,85.0,42.0,85.0,49481,25.771354166666665
4580,9.0,,,,,,,70.0,,,,,,0,note_on,,40.0,70.0,40.0,49481,25.771354166666665
4581,9.0,,,,,,,36.0,,,,,,0,note_on,,126.0,36.0,126.0,49481,25.771354166666665
4582,9.0,,,,,,,35.0,,,,,,0,note_on,,60.0,35.0,60.0,49481,25.771354166666665
4583,12.0,,,,,,,63.0,,,,,,9,note_on,,0.0,63.0,0.0,13240,6.895833333333333
4584,7.0,,,,,,,75.0,,,,,,17,note_on,,0.0,75.0,0.0,1447,0.7536458333333333
4585,8.0,,,,,,,63.0,,,,,,0,note_on,,0.0,63.0,0.0,8164,4.252083333333333
4586,8.0,,,,,,,87.0,,,,,,98,note_on,,0.0,87.0,0.0,8262,4.303125
4587,9.0,,,,,,,35.0,,,,,,42,note_on,,0.0,35.0,0.0,49523,25.793229166666666
4588,9.0,,,,,,,36.0,,,,,,0,note_on,,0.0,36.0,0.0,49523,25.793229166666666
4589,3.0,,,,,,,77.0,,,,,,5,note_on,,0.0,77.0,0.0,33437,17.415104166666666
4590,9.0,,,,,,,70.0,,,,,,53,note_on,,0.0,70.0,0.0,49576,25.820833333333333
4591,9.0,,,,,,,42.0,,,,,,16,note_on,,0.0,42.0,0.0,49592,25.829166666666666
4592,8.0,,,,,,,87.0,,,,,,0,note_on,,45.0,87.0,45.0,8262,4.303125
4593,9.0,,,,,,,44.0,,,,,,0,note_on,,75.0,44.0,75.0,49592,25.829166666666666
4594,8.0,,,,,,,87.0,,,,,,130,note_on,,0.0,87.0,0.0,8392,4.370833333333334
4595,9.0,,,,,,,44.0,,,,,,110,note_on,,0.0,44.0,0.0,49702,25.886458333333334
4596,7.0,,,,,,,77.0,,,,,,0,note_on,,127.0,77.0,127.0,1447,0.7536458333333333
4597,8.0,,,,,,,65.0,,,,,,0,note_on,,127.0,65.0,127.0,8392,4.370833333333334
4598,9.0,,,,,,,42.0,,,,,,0,note_on,,85.0,42.0,85.0,49702,25.886458333333334
4599,9.0,,,,,,,70.0,,,,,,0,note_on,,40.0,70.0,40.0,49702,25.886458333333334
4600,3.0,,,,,,,79.0,,,,,,6,note_on,,127.0,79.0,127.0,33443,17.418229166666666
4601,,,,,,,,,,,,,ba ,0,lyrics,,,,,9,0.0046875
4602,9.0,,,,,,,70.0,,,,,,218,note_on,,0.0,70.0,0.0,49920,26.0
4603,9.0,,,,,,,42.0,,,,,,0,note_on,,0.0,42.0,0.0,49920,26.0
4604,9.0,,,,,,,44.0,,,,,,16,note_on,,75.0,44.0,75.0,49936,26.008333333333333
4605,9.0,,,,,,,44.0,,,,,,240,note_on,,0.0,44.0,0.0,50176,26.133333333333333
4606,8.0,,,,,,,87.0,,,,,,0,note_on,,45.0,87.0,45.0,8392,4.370833333333334
4607,9.0,,,,,,,42.0,,,,,,0,note_on,,85.0,42.0,85.0,50176,26.133333333333333
4608,9.0,,,,,,,70.0,,,,,,0,note_on,,40.0,70.0,40.0,50176,26.133333333333333
4609,9.0,,,,,,,36.0,,,,,,0,note_on,,126.0,36.0,126.0,50176,26.133333333333333
4610,9.0,,,,,,,35.0,,,,,,0,note_on,,60.0,35.0,60.0,50176,26.133333333333333
4611,8.0,,,,,,,87.0,,,,,,116,note_on,,0.0,87.0,0.0,8508,4.43125
4612,8.0,,,,,,,65.0,,,,,,29,note_on,,0.0,65.0,0.0,8537,4.446354166666667
4613,7.0,,,,,,,77.0,,,,,,0,note_on,,0.0,77.0,0.0,1447,0.7536458333333333
4614,9.0,,,,,,,35.0,,,,,,9,note_on,,0.0,35.0,0.0,50185,26.138020833333332
4615,9.0,,,,,,,36.0,,,,,,0,note_on,,0.0,36.0,0.0,50185,26.138020833333332
4616,3.0,,,,,,,79.0,,,,,,53,note_on,,0.0,79.0,0.0,33496,17.445833333333333
4617,9.0,,,,,,,70.0,,,,,,17,note_on,,0.0,70.0,0.0,50202,26.146874999999998
4618,9.0,,,,,,,42.0,,,,,,16,note_on,,0.0,42.0,0.0,50218,26.155208333333334
4619,9.0,,,,,,,44.0,,,,,,0,note_on,,75.0,44.0,75.0,50218,26.155208333333334
4620,9.0,,,,,,,44.0,,,,,,240,note_on,,0.0,44.0,0.0,50458,26.280208333333334
4621,7.0,,,,,,,70.0,,,,,,0,note_on,,127.0,70.0,127.0,1447,0.7536458333333333
4622,8.0,,,,,,,87.0,,,,,,0,note_on,,45.0,87.0,45.0,8537,4.446354166666667
4623,8.0,,,,,,,58.0,,,,,,0,note_on,,127.0,58.0,127.0,8537,4.446354166666667
4624,9.0,,,,,,,42.0,,,,,,0,note_on,,85.0,42.0,85.0,50458,26.280208333333334
4625,9.0,,,,,,,70.0,,,,,,0,note_on,,40.0,70.0,40.0,50458,26.280208333333334
4626,9.0,,,,,,,39.0,,,,,,0,note_on,,127.0,39.0,127.0,50458,26.280208333333334
4627,9.0,,,,,,,28.0,,,,,,0,note_on,,127.0,28.0,127.0,50458,26.280208333333334
4628,11.0,,,,,,,60.0,,,,,,0,note_on,,127.0,60.0,127.0,17325,9.0234375
4629,11.0,,,,,,,65.0,,,,,,0,note_on,,127.0,65.0,127.0,17325,9.0234375
4630,11.0,,,,,,,56.0,,,,,,0,note_on,,127.0,56.0,127.0,17325,9.0234375
4631,3.0,,,,,,,77.0,,,,,,2,note_on,,127.0,77.0,127.0,33498,17.446875
4632,,,,,,,,,,,,,"by, ",0,lyrics,,,,,9,0.0046875
4633,9.0,,,,,,,39.0,,,,,,121,note_on,,0.0,39.0,0.0,50579,26.343229166666667
4634,9.0,,,,,,,28.0,,,,,,2,note_on,,0.0,28.0,0.0,50581,26.344270833333333
4635,8.0,,,,,,,87.0,,,,,,1,note_on,,0.0,87.0,0.0,8538,4.446875
4636,3.0,,,,,,,77.0,,,,,,70,note_on,,0.0,77.0,0.0,33568,17.483333333333334
4637,9.0,,,,,,,42.0,,,,,,28,note_on,,0.0,42.0,0.0,50609,26.358854166666667
4638,9.0,,,,,,,70.0,,,,,,0,note_on,,0.0,70.0,0.0,50609,26.358854166666667
4639,9.0,,,,,,,44.0,,,,,,16,note_on,,75.0,44.0,75.0,50625,26.3671875
4640,11.0,,,,,,,65.0,,,,,,144,note_on,,0.0,65.0,0.0,17469,9.0984375
4641,11.0,,,,,,,56.0,,,,,,10,note_on,,0.0,56.0,0.0,17479,9.103645833333333
4642,11.0,,,,,,,60.0,,,,,,21,note_on,,0.0,60.0,0.0,17500,9.114583333333334
4643,3.0,,,,,,,79.0,,,,,,56,note_on,,127.0,79.0,127.0,33624,17.5125
4644,,,,,,,,,,,,,ba ,0,lyrics,,,,,9,0.0046875
4645,9.0,,,,,,,44.0,,,,,,9,note_on,,0.0,44.0,0.0,50634,26.371875
4646,8.0,,,,,,,87.0,,,,,,0,note_on,,45.0,87.0,45.0,8538,4.446875
4647,9.0,,,,,,,42.0,,,,,,0,note_on,,85.0,42.0,85.0,50634,26.371875
4648,9.0,,,,,,,70.0,,,,,,0,note_on,,40.0,70.0,40.0,50634,26.371875
4649,10.0,,,,,,,60.0,,,,,,0,note_on,,127.0,60.0,127.0,8707,4.534895833333334
4650,10.0,,,,,,,65.0,,,,,,0,note_on,,127.0,65.0,127.0,8707,4.534895833333334
4651,10.0,,,,,,,56.0,,,,,,0,note_on,,127.0,56.0,127.0,8707,4.534895833333334
4652,11.0,,,,,,,60.0,,,,,,0,note_on,,127.0,60.0,127.0,17500,9.114583333333334
4653,11.0,,,,,,,56.0,,,,,,0,note_on,,124.0,56.0,124.0,17500,9.114583333333334
4654,11.0,,,,,,,63.0,,,,,,0,note_on,,127.0,63.0,127.0,17500,9.114583333333334
4655,8.0,,,,,,,58.0,,,,,,97,note_on,,0.0,58.0,0.0,8635,4.497395833333333
4656,7.0,,,,,,,70.0,,,,,,0,note_on,,0.0,70.0,0.0,1447,0.7536458333333333
4657,8.0,,,,,,,87.0,,,,,,16,note_on,,0.0,87.0,0.0,8651,4.505729166666667
4658,9.0,,,,,,,70.0,,,,,,111,note_on,,0.0,70.0,0.0,50745,26.4296875
4659,9.0,,,,,,,42.0,,,,,,16,note_on,,0.0,42.0,0.0,50761,26.438020833333333
4660,9.0,,,,,,,44.0,,,,,,0,note_on,,75.0,44.0,75.0,50761,26.438020833333333
4661,10.0,,,,,,,65.0,,,,,,144,note_on,,0.0,65.0,0.0,8851,4.609895833333333
4662,10.0,,,,,,,56.0,,,,,,10,note_on,,0.0,56.0,0.0,8861,4.615104166666667
4663,10.0,,,,,,,60.0,,,,,,21,note_on,,0.0,60.0,0.0,8882,4.626041666666667
4664,11.0,,,,,,,56.0,,,,,,46,note_on,,0.0,56.0,0.0,17546,9.138541666666667
4665,9.0,,,,,,,44.0,,,,,,19,note_on,,0.0,44.0,0.0,50780,26.447916666666668
4666,7.0,,,,,,,82.0,,,,,,0,note_on,,127.0,82.0,127.0,1447,0.7536458333333333
4667,8.0,,,,,,,70.0,,,,,,0,note_on,,127.0,70.0,127.0,8651,4.505729166666667
4668,9.0,,,,,,,42.0,,,,,,0,note_on,,85.0,42.0,85.0,50780,26.447916666666668
4669,9.0,,,,,,,70.0,,,,,,0,note_on,,40.0,70.0,40.0,50780,26.447916666666668
4670,9.0,,,,,,,36.0,,,,,,0,note_on,,126.0,36.0,126.0,50780,26.447916666666668
4671,9.0,,,,,,,35.0,,,,,,0,note_on,,60.0,35.0,60.0,50780,26.447916666666668
4672,10.0,,,,,,,60.0,,,,,,0,note_on,,127.0,60.0,127.0,8882,4.626041666666667
4673,10.0,,,,,,,56.0,,,,,,0,note_on,,124.0,56.0,124.0,8882,4.626041666666667
4674,10.0,,,,,,,63.0,,,,,,0,note_on,,127.0,63.0,127.0,8882,4.626041666666667
4675,12.0,,,,,,,60.0,,,,,,0,note_on,,127.0,60.0,127.0,13240,6.895833333333333
4676,12.0,,,,,,,65.0,,,,,,0,note_on,,127.0,65.0,127.0,13240,6.895833333333333
4677,12.0,,,,,,,56.0,,,,,,0,note_on,,127.0,56.0,127.0,13240,6.895833333333333
4678,11.0,,,,,,,63.0,,,,,,14,note_on,,0.0,63.0,0.0,17560,9.145833333333334
4679,11.0,,,,,,,60.0,,,,,,6,note_on,,0.0,60.0,0.0,17566,9.148958333333333
4680,9.0,,,,,,,35.0,,,,,,152,note_on,,0.0,35.0,0.0,50932,26.527083333333334
4681,9.0,,,,,,,36.0,,,,,,0,note_on,,0.0,36.0,0.0,50932,26.527083333333334
4682,9.0,,,,,,,42.0,,,,,,52,note_on,,0.0,42.0,0.0,50984,26.554166666666667
4683,9.0,,,,,,,70.0,,,,,,0,note_on,,0.0,70.0,0.0,50984,26.554166666666667
4684,3.0,,,,,,,79.0,,,,,,16,note_on,,0.0,79.0,0.0,33640,17.520833333333332
4685,8.0,,,,,,,87.0,,,,,,0,note_on,,45.0,87.0,45.0,8651,4.505729166666667
4686,9.0,,,,,,,44.0,,,,,,0,note_on,,75.0,44.0,75.0,50984,26.554166666666667
4687,8.0,,,,,,,87.0,,,,,,131,note_on,,0.0,87.0,0.0,8782,4.573958333333334
4688,12.0,,,,,,,65.0,,,,,,13,note_on,,0.0,65.0,0.0,13253,6.902604166666666
4689,12.0,,,,,,,56.0,,,,,,10,note_on,,0.0,56.0,0.0,13263,6.9078124999999995
4690,3.0,,,,,,,77.0,,,,,,8,note_on,,127.0,77.0,127.0,33648,17.525
4691,,,,,,,,,,,,,by ,0,lyrics,,,,,9,0.0046875
4692,12.0,,,,,,,60.0,,,,,,13,note_on,,0.0,60.0,0.0,13276,6.914583333333333
4693,10.0,,,,,,,56.0,,,,,,46,note_on,,0.0,56.0,0.0,8928,4.65
4694,9.0,,,,,,,44.0,,,,,,19,note_on,,0.0,44.0,0.0,51003,26.5640625
4695,9.0,,,,,,,42.0,,,,,,0,note_on,,85.0,42.0,85.0,51003,26.5640625
4696,9.0,,,,,,,70.0,,,,,,0,note_on,,40.0,70.0,40.0,51003,26.5640625
4697,12.0,,,,,,,60.0,,,,,,0,note_on,,127.0,60.0,127.0,13276,6.914583333333333
4698,12.0,,,,,,,56.0,,,,,,0,note_on,,124.0,56.0,124.0,13276,6.914583333333333
4699,12.0,,,,,,,63.0,,,,,,0,note_on,,127.0,63.0,127.0,13276,6.914583333333333
4700,10.0,,,,,,,63.0,,,,,,14,note_on,,0.0,63.0,0.0,8942,4.657291666666667
4701,7.0,,,,,,,82.0,,,,,,0,note_on,,0.0,82.0,0.0,1447,0.7536458333333333
4702,8.0,,,,,,,70.0,,,,,,0,note_on,,0.0,70.0,0.0,8782,4.573958333333334
4703,10.0,,,,,,,60.0,,,,,,6,note_on,,0.0,60.0,0.0,8948,4.660416666666666
4704,9.0,,,,,,,70.0,,,,,,204,note_on,,0.0,70.0,0.0,51207,26.670312499999998
4705,9.0,,,,,,,42.0,,,,,,16,note_on,,0.0,42.0,0.0,51223,26.678645833333334
4706,8.0,,,,,,,87.0,,,,,,0,note_on,,45.0,87.0,45.0,8782,4.573958333333334
4707,9.0,,,,,,,44.0,,,,,,0,note_on,,75.0,44.0,75.0,51223,26.678645833333334
4708,9.0,,,,,,,36.0,,,,,,0,note_on,,126.0,36.0,126.0,51223,26.678645833333334
4709,9.0,,,,,,,35.0,,,,,,0,note_on,,60.0,35.0,60.0,51223,26.678645833333334
4710,8.0,,,,,,,87.0,,,,,,136,note_on,,0.0,87.0,0.0,8918,4.644791666666666
4711,12.0,,,,,,,56.0,,,,,,85,note_on,,0.0,56.0,0.0,13361,6.958854166666667
4712,9.0,,,,,,,35.0,,,,,,3,note_on,,0.0,35.0,0.0,51226,26.680208333333333
4713,9.0,,,,,,,36.0,,,,,,0,note_on,,0.0,36.0,0.0,51226,26.680208333333333
4714,9.0,,,,,,,44.0,,,,,,16,note_on,,0.0,44.0,0.0,51242,26.688541666666666
4715,7.0,,,,,,,75.0,,,,,,0,note_on,,127.0,75.0,127.0,1447,0.7536458333333333
4716,8.0,,,,,,,63.0,,,,,,0,note_on,,127.0,63.0,127.0,8918,4.644791666666666
4717,9.0,,,,,,,42.0,,,,,,0,note_on,,85.0,42.0,85.0,51242,26.688541666666666
4718,9.0,,,,,,,70.0,,,,,,0,note_on,,40.0,70.0,40.0,51242,26.688541666666666
4719,9.0,,,,,,,39.0,,,,,,0,note_on,,125.0,39.0,125.0,51242,26.688541666666666
4720,9.0,,,,,,,28.0,,,,,,0,note_on,,127.0,28.0,127.0,51242,26.688541666666666
4721,12.0,,,,,,,63.0,,,,,,14,note_on,,0.0,63.0,0.0,13375,6.966145833333333
4722,12.0,,,,,,,60.0,,,,,,6,note_on,,0.0,60.0,0.0,13381,6.969270833333333
4723,9.0,,,,,,,28.0,,,,,,97,note_on,,0.0,28.0,0.0,51339,26.7390625
4724,9.0,,,,,,,39.0,,,,,,34,note_on,,0.0,39.0,0.0,51373,26.756770833333334
4725,9.0,,,,,,,70.0,,,,,,73,note_on,,0.0,70.0,0.0,51446,26.794791666666665
4726,9.0,,,,,,,42.0,,,,,,0,note_on,,0.0,42.0,0.0,51446,26.794791666666665
4727,8.0,,,,,,,87.0,,,,,,16,note_on,,45.0,87.0,45.0,8934,4.653125
4728,9.0,,,,,,,44.0,,,,,,0,note_on,,75.0,44.0,75.0,51446,26.794791666666665
4729,3.0,,,,,,,77.0,,,,,,55,note_on,,0.0,77.0,0.0,33703,17.553645833333334
4730,8.0,,,,,,,87.0,,,,,,77,note_on,,0.0,87.0,0.0,9011,4.693229166666667
4731,3.0,,,,,,,82.0,,,,,,33,note_on,,127.0,82.0,127.0,33736,17.570833333333333
4732,,,,,,,,,,,,,ohh ,0,lyrics,,,,,9,0.0046875
4733,,,,,,,,,,,,,,0,lyrics,,,,,9,0.0046875
4734,9.0,,,,,,,44.0,,,,,,75,note_on,,0.0,44.0,0.0,51521,26.833854166666665
4735,9.0,,,,,,,42.0,,,,,,0,note_on,,85.0,42.0,85.0,51521,26.833854166666665
4736,9.0,,,,,,,70.0,,,,,,0,note_on,,40.0,70.0,40.0,51521,26.833854166666665
4737,9.0,,,,,,,36.0,,,,,,0,note_on,,126.0,36.0,126.0,51521,26.833854166666665
4738,9.0,,,,,,,35.0,,,,,,0,note_on,,60.0,35.0,60.0,51521,26.833854166666665
4739,7.0,,,,,,,75.0,,,,,,87,note_on,,0.0,75.0,0.0,1534,0.7989583333333333
4740,8.0,,,,,,,63.0,,,,,,0,note_on,,0.0,63.0,0.0,9011,4.693229166666667
4741,9.0,,,,,,,36.0,,,,,,79,note_on,,0.0,36.0,0.0,51600,26.875
4742,9.0,,,,,,,35.0,,,,,,0,note_on,,0.0,35.0,0.0,51600,26.875
4743,9.0,,,,,,,70.0,,,,,,58,note_on,,0.0,70.0,0.0,51658,26.905208333333334
4744,9.0,,,,,,,42.0,,,,,,16,note_on,,0.0,42.0,0.0,51674,26.913541666666667
4745,8.0,,,,,,,87.0,,,,,,0,note_on,,45.0,87.0,45.0,9011,4.693229166666667
4746,9.0,,,,,,,44.0,,,,,,0,note_on,,75.0,44.0,75.0,51674,26.913541666666667
4747,8.0,,,,,,,87.0,,,,,,137,note_on,,0.0,87.0,0.0,9148,4.764583333333333
4748,9.0,,,,,,,44.0,,,,,,103,note_on,,0.0,44.0,0.0,51777,26.967187499999998
4749,7.0,,,,,,,77.0,,,,,,0,note_on,,127.0,77.0,127.0,1534,0.7989583333333333
4750,8.0,,,,,,,65.0,,,,,,0,note_on,,127.0,65.0,127.0,9148,4.764583333333333
4751,9.0,,,,,,,42.0,,,,,,0,note_on,,85.0,42.0,85.0,51777,26.967187499999998
4752,9.0,,,,,,,70.0,,,,,,0,note_on,,40.0,70.0,40.0,51777,26.967187499999998
4753,9.0,,,,,,,70.0,,,,,,224,note_on,,0.0,70.0,0.0,52001,27.083854166666665
4754,9.0,,,,,,,44.0,,,,,,16,note_on,,75.0,44.0,75.0,52017,27.092187499999998
4755,9.0,,,,,,,44.0,,,,,,240,note_on,,0.0,44.0,0.0,52257,27.217187499999998
4756,8.0,,,,,,,87.0,,,,,,0,note_on,,45.0,87.0,45.0,9148,4.764583333333333
4757,9.0,,,,,,,42.0,,,,,,0,note_on,,85.0,42.0,85.0,52257,27.217187499999998
4758,9.0,,,,,,,70.0,,,,,,0,note_on,,40.0,70.0,40.0,52257,27.217187499999998
4759,9.0,,,,,,,36.0,,,,,,0,note_on,,126.0,36.0,126.0,52257,27.217187499999998
4760,9.0,,,,,,,35.0,,,,,,0,note_on,,60.0,35.0,60.0,52257,27.217187499999998
4761,3.0,,,,,,,82.0,,,,,,27,note_on,,0.0,82.0,0.0,33763,17.584895833333334
4762,8.0,,,,,,,65.0,,,,,,8,note_on,,0.0,65.0,0.0,9156,4.76875
4763,7.0,,,,,,,77.0,,,,,,0,note_on,,0.0,77.0,0.0,1534,0.7989583333333333
4764,8.0,,,,,,,87.0,,,,,,98,note_on,,0.0,87.0,0.0,9254,4.819791666666666
4765,9.0,,,,,,,35.0,,,,,,21,note_on,,0.0,35.0,0.0,52278,27.228125
4766,9.0,,,,,,,36.0,,,,,,0,note_on,,0.0,36.0,0.0,52278,27.228125
4767,9.0,,,,,,,70.0,,,,,,70,note_on,,0.0,70.0,0.0,52348,27.264583333333334
4768,9.0,,,,,,,42.0,,,,,,16,note_on,,0.0,42.0,0.0,52364,27.272916666666667
4769,9.0,,,,,,,44.0,,,,,,0,note_on,,75.0,44.0,75.0,52364,27.272916666666667
4770,9.0,,,,,,,44.0,,,,,,240,note_on,,0.0,44.0,0.0,52604,27.397916666666667
4771,7.0,,,,,,,75.0,,,,,,0,note_on,,127.0,75.0,127.0,1534,0.7989583333333333
4772,8.0,,,,,,,87.0,,,,,,0,note_on,,45.0,87.0,45.0,9254,4.819791666666666
4773,8.0,,,,,,,63.0,,,,,,0,note_on,,127.0,63.0,127.0,9254,4.819791666666666
4774,9.0,,,,,,,42.0,,,,,,0,note_on,,85.0,42.0,85.0,52604,27.397916666666667
4775,9.0,,,,,,,70.0,,,,,,0,note_on,,40.0,70.0,40.0,52604,27.397916666666667
4776,9.0,,,,,,,39.0,,,,,,0,note_on,,127.0,39.0,127.0,52604,27.397916666666667
4777,9.0,,,,,,,28.0,,,,,,0,note_on,,127.0,28.0,127.0,52604,27.397916666666667
4778,9.0,,,,,,,39.0,,,,,,123,note_on,,0.0,39.0,0.0,52727,27.461979166666666
4779,9.0,,,,,,,28.0,,,,,,2,note_on,,0.0,28.0,0.0,52729,27.46302083333333
4780,8.0,,,,,,,87.0,,,,,,2,note_on,,0.0,87.0,0.0,9256,4.820833333333333
4781,9.0,,,,,,,42.0,,,,,,97,note_on,,0.0,42.0,0.0,52826,27.513541666666665
4782,9.0,,,,,,,70.0,,,,,,0,note_on,,0.0,70.0,0.0,52826,27.513541666666665
4783,9.0,,,,,,,42.0,,,,,,16,note_on,,0.0,42.0,0.0,52842,27.521874999999998
4784,9.0,,,,,,,44.0,,,,,,0,note_on,,75.0,44.0,75.0,52842,27.521874999999998
4785,9.0,,,,,,,44.0,,,,,,240,note_on,,0.0,44.0,0.0,53082,27.646874999999998
4786,8.0,,,,,,,87.0,,,,,,0,note_on,,45.0,87.0,45.0,9256,4.820833333333333
4787,9.0,,,,,,,42.0,,,,,,0,note_on,,85.0,42.0,85.0,53082,27.646874999999998
4788,9.0,,,,,,,61.0,,,,,,0,note_on,,100.0,61.0,100.0,53082,27.646874999999998
4789,9.0,,,,,,,70.0,,,,,,0,note_on,,40.0,70.0,40.0,53082,27.646874999999998
4790,7.0,,,,,,,75.0,,,,,,91,note_on,,0.0,75.0,0.0,1625,0.8463541666666666
4791,8.0,,,,,,,63.0,,,,,,0,note_on,,0.0,63.0,0.0,9256,4.820833333333333
4792,9.0,,,,,,,61.0,,,,,,23,note_on,,0.0,61.0,0.0,53105,27.658854166666668
4793,8.0,,,,,,,87.0,,,,,,4,note_on,,0.0,87.0,0.0,9260,4.822916666666667
4794,9.0,,,,,,,61.0,,,,,,2,note_on,,100.0,61.0,100.0,53107,27.659895833333334
4795,5.0,,,,,,,63.0,,,,,,36,note_on,,0.0,63.0,0.0,944,0.49166666666666664
4796,5.0,,,,,,,56.0,,,,,,37,note_on,,0.0,56.0,0.0,981,0.5109375
4797,5.0,,,,,,,60.0,,,,,,5,note_on,,0.0,60.0,0.0,986,0.5135416666666667
4798,9.0,,,,,,,70.0,,,,,,26,note_on,,0.0,70.0,0.0,53133,27.6734375
4799,9.0,,,,,,,61.0,,,,,,10,note_on,,0.0,61.0,0.0,53143,27.678645833333334
4800,9.0,,,,,,,42.0,,,,,,6,note_on,,0.0,42.0,0.0,53149,27.68177083333333
4801,9.0,,,,,,,44.0,,,,,,0,note_on,,75.0,44.0,75.0,53149,27.68177083333333
4802,9.0,,,,,,,61.0,,,,,,0,note_on,,100.0,61.0,100.0,53149,27.68177083333333
4803,9.0,,,,,,,61.0,,,,,,114,note_on,,0.0,61.0,0.0,53263,27.741145833333334
4804,9.0,,,,,,,61.0,,,,,,6,note_on,,100.0,61.0,100.0,53269,27.74427083333333
4805,5.0,,,,,,,58.0,,,,,,61,note_on,,73.0,58.0,73.0,1047,0.5453125
4806,5.0,,,,,,,62.0,,,,,,8,note_on,,76.0,62.0,76.0,1055,0.5494791666666666
4807,5.0,,,,,,,53.0,,,,,,4,note_on,,83.0,53.0,83.0,1059,0.5515625
4808,8.0,,,,,,,44.0,,,,,,7,note_on,,0.0,44.0,0.0,9267,4.8265625
4809,9.0,,,,,,,61.0,,,,,,34,note_on,,0.0,61.0,0.0,53303,27.761979166666666
4810,9.0,,,,,,,44.0,,,,,,6,note_on,,0.0,44.0,0.0,53309,27.765104166666667
4811,1.0,,,,,,,34.0,,,,,,0,note_on,,127.0,34.0,127.0,1712,0.8916666666666666
4812,3.0,,,,,,,79.0,,,,,,0,note_on,,127.0,79.0,127.0,33763,17.584895833333334
4813,7.0,,,,,,,82.0,,,,,,0,note_on,,127.0,82.0,127.0,1625,0.8463541666666666
4814,8.0,,,,,,,46.0,,,,,,0,note_on,,127.0,46.0,127.0,9267,4.8265625
4815,8.0,,,,,,,70.0,,,,,,0,note_on,,127.0,70.0,127.0,9267,4.8265625
4816,9.0,,,,,,,61.0,,,,,,0,note_on,,100.0,61.0,100.0,53309,27.765104166666667
4817,9.0,,,,,,,42.0,,,,,,0,note_on,,85.0,42.0,85.0,53309,27.765104166666667
4818,9.0,,,,,,,70.0,,,,,,0,note_on,,40.0,70.0,40.0,53309,27.765104166666667
4819,9.0,,,,,,,36.0,,,,,,0,note_on,,126.0,36.0,126.0,53309,27.765104166666667
4820,9.0,,,,,,,35.0,,,,,,0,note_on,,60.0,35.0,60.0,53309,27.765104166666667
4821,11.0,,,,,,,62.0,,,,,,0,note_on,,127.0,62.0,127.0,17566,9.148958333333333
4822,11.0,,,,,,,58.0,,,,,,0,note_on,,127.0,58.0,127.0,17566,9.148958333333333
4823,11.0,,,,,,,65.0,,,,,,0,note_on,,127.0,65.0,127.0,17566,9.148958333333333
4824,,,,,,,,,,,,,I ,0,lyrics,,,,,9,0.0046875
4825,1.0,,,,,,,32.0,,,,,,6,note_on,,0.0,32.0,0.0,1718,0.8947916666666667
4826,9.0,,,,,,,61.0,,,,,,108,note_on,,0.0,61.0,0.0,53417,27.821354166666666
4827,9.0,,,,,,,35.0,,,,,,58,note_on,,0.0,35.0,0.0,53475,27.8515625
4828,9.0,,,,,,,36.0,,,,,,0,note_on,,0.0,36.0,0.0,53475,27.8515625
4829,3.0,,,,,,,79.0,,,,,,32,note_on,,0.0,79.0,0.0,33795,17.6015625
4830,9.0,,,,,,,42.0,,,,,,20,note_on,,0.0,42.0,0.0,53495,27.861979166666668
4831,9.0,,,,,,,70.0,,,,,,0,note_on,,0.0,70.0,0.0,53495,27.861979166666668
4832,9.0,,,,,,,44.0,,,,,,16,note_on,,75.0,44.0,75.0,53511,27.8703125
4833,11.0,,,,,,,58.0,,,,,,234,note_on,,0.0,58.0,0.0,17800,9.270833333333334
4834,9.0,,,,,,,44.0,,,,,,6,note_on,,0.0,44.0,0.0,53517,27.873437499999998
4835,3.0,,,,,,,77.0,,,,,,0,note_on,,127.0,77.0,127.0,33795,17.6015625
4836,8.0,,,,,,,87.0,,,,,,0,note_on,,45.0,87.0,45.0,9267,4.8265625
4837,9.0,,,,,,,42.0,,,,,,0,note_on,,85.0,42.0,85.0,53517,27.873437499999998
4838,9.0,,,,,,,70.0,,,,,,0,note_on,,40.0,70.0,40.0,53517,27.873437499999998
4839,10.0,,,,,,,62.0,,,,,,0,note_on,,127.0,62.0,127.0,8948,4.660416666666666
4840,10.0,,,,,,,58.0,,,,,,0,note_on,,127.0,58.0,127.0,8948,4.660416666666666
4841,10.0,,,,,,,65.0,,,,,,0,note_on,,127.0,65.0,127.0,8948,4.660416666666666
4842,,,,,,,,,,,,,thought ,0,lyrics,,,,,9,0.0046875
4843,7.0,,,,,,,82.0,,,,,,29,note_on,,0.0,82.0,0.0,1654,0.8614583333333333
4844,8.0,,,,,,,70.0,,,,,,0,note_on,,0.0,70.0,0.0,9267,4.8265625
4845,11.0,,,,,,,65.0,,,,,,18,note_on,,0.0,65.0,0.0,17818,9.280208333333333
4846,11.0,,,,,,,62.0,,,,,,2,note_on,,0.0,62.0,0.0,17820,9.28125
4847,8.0,,,,,,,87.0,,,,,,67,note_on,,0.0,87.0,0.0,9334,4.861458333333333
4848,3.0,,,,,,,77.0,,,,,,88,note_on,,0.0,77.0,0.0,33883,17.647395833333334
4849,9.0,,,,,,,70.0,,,,,,20,note_on,,0.0,70.0,0.0,53537,27.883854166666666
4850,9.0,,,,,,,42.0,,,,,,16,note_on,,0.0,42.0,0.0,53553,27.8921875
4851,8.0,,,,,,,87.0,,,,,,0,note_on,,45.0,87.0,45.0,9334,4.861458333333333
4852,9.0,,,,,,,44.0,,,,,,0,note_on,,75.0,44.0,75.0,53553,27.8921875
4853,9.0,,,,,,,36.0,,,,,,0,note_on,,126.0,36.0,126.0,53553,27.8921875
4854,9.0,,,,,,,35.0,,,,,,0,note_on,,60.0,35.0,60.0,53553,27.8921875
4855,8.0,,,,,,,87.0,,,,,,112,note_on,,0.0,87.0,0.0,9446,4.919791666666667
4856,9.0,,,,,,,35.0,,,,,,112,note_on,,0.0,35.0,0.0,53665,27.950520833333332
4857,9.0,,,,,,,36.0,,,,,,0,note_on,,0.0,36.0,0.0,53665,27.950520833333332
4858,10.0,,,,,,,58.0,,,,,,10,note_on,,0.0,58.0,0.0,8958,4.665625
4859,9.0,,,,,,,44.0,,,,,,6,note_on,,0.0,44.0,0.0,53671,27.953645833333333
4860,3.0,,,,,,,79.0,,,,,,0,note_on,,127.0,79.0,127.0,33883,17.647395833333334
4861,7.0,,,,,,,75.0,,,,,,0,note_on,,127.0,75.0,127.0,1654,0.8614583333333333
4862,8.0,,,,,,,63.0,,,,,,0,note_on,,127.0,63.0,127.0,9446,4.919791666666667
4863,9.0,,,,,,,42.0,,,,,,0,note_on,,85.0,42.0,85.0,53671,27.953645833333333
4864,9.0,,,,,,,70.0,,,,,,0,note_on,,40.0,70.0,40.0,53671,27.953645833333333
4865,9.0,,,,,,,39.0,,,,,,0,note_on,,125.0,39.0,125.0,53671,27.953645833333333
4866,9.0,,,,,,,28.0,,,,,,0,note_on,,127.0,28.0,127.0,53671,27.953645833333333
4867,12.0,,,,,,,62.0,,,,,,0,note_on,,127.0,62.0,127.0,13381,6.969270833333333
4868,12.0,,,,,,,58.0,,,,,,0,note_on,,127.0,58.0,127.0,13381,6.969270833333333
4869,12.0,,,,,,,65.0,,,,,,0,note_on,,127.0,65.0,127.0,13381,6.969270833333333
4870,,,,,,,,,,,,,youd ,0,lyrics,,,,,9,0.0046875
4871,10.0,,,,,,,65.0,,,,,,47,note_on,,0.0,65.0,0.0,9005,4.690104166666667
4872,10.0,,,,,,,62.0,,,,,,2,note_on,,0.0,62.0,0.0,9007,4.691145833333334
4873,9.0,,,,,,,28.0,,,,,,68,note_on,,0.0,28.0,0.0,53739,27.9890625
4874,9.0,,,,,,,39.0,,,,,,34,note_on,,0.0,39.0,0.0,53773,28.006770833333334
4875,9.0,,,,,,,70.0,,,,,,73,note_on,,0.0,70.0,0.0,53846,28.044791666666665
4876,9.0,,,,,,,42.0,,,,,,0,note_on,,0.0,42.0,0.0,53846,28.044791666666665
4877,9.0,,,,,,,44.0,,,,,,16,note_on,,75.0,44.0,75.0,53862,28.053124999999998
4878,12.0,,,,,,,58.0,,,,,,234,note_on,,0.0,58.0,0.0,13615,7.091145833333333
4879,9.0,,,,,,,44.0,,,,,,6,note_on,,0.0,44.0,0.0,53868,28.05625
4880,8.0,,,,,,,87.0,,,,,,0,note_on,,45.0,87.0,45.0,9446,4.919791666666667
4881,9.0,,,,,,,42.0,,,,,,0,note_on,,85.0,42.0,85.0,53868,28.05625
4882,9.0,,,,,,,70.0,,,,,,0,note_on,,40.0,70.0,40.0,53868,28.05625
4883,9.0,,,,,,,36.0,,,,,,0,note_on,,126.0,36.0,126.0,53868,28.05625
4884,9.0,,,,,,,35.0,,,,,,0,note_on,,60.0,35.0,60.0,53868,28.05625
4885,8.0,,,,,,,63.0,,,,,,37,note_on,,0.0,63.0,0.0,9483,4.9390625
4886,7.0,,,,,,,75.0,,,,,,0,note_on,,0.0,75.0,0.0,1654,0.8614583333333333
4887,12.0,,,,,,,65.0,,,,,,10,note_on,,0.0,65.0,0.0,13625,7.096354166666667
4888,12.0,,,,,,,62.0,,,,,,2,note_on,,0.0,62.0,0.0,13627,7.097395833333334
4889,8.0,,,,,,,87.0,,,,,,71,note_on,,0.0,87.0,0.0,9554,4.976041666666666
4890,9.0,,,,,,,36.0,,,,,,46,note_on,,0.0,36.0,0.0,53914,28.08020833333333
4891,9.0,,,,,,,35.0,,,,,,0,note_on,,0.0,35.0,0.0,53914,28.08020833333333
4892,3.0,,,,,,,79.0,,,,,,7,note_on,,0.0,79.0,0.0,33890,17.651041666666668
4893,9.0,,,,,,,70.0,,,,,,51,note_on,,0.0,70.0,0.0,53965,28.106770833333332
4894,9.0,,,,,,,42.0,,,,,,16,note_on,,0.0,42.0,0.0,53981,28.115104166666665
4895,9.0,,,,,,,44.0,,,,,,0,note_on,,75.0,44.0,75.0,53981,28.115104166666665
4896,9.0,,,,,,,44.0,,,,,,240,note_on,,0.0,44.0,0.0,54221,28.240104166666665
4897,3.0,,,,,,,79.0,,,,,,0,note_on,,127.0,79.0,127.0,33890,17.651041666666668
4898,7.0,,,,,,,77.0,,,,,,0,note_on,,127.0,77.0,127.0,1654,0.8614583333333333
4899,8.0,,,,,,,87.0,,,,,,0,note_on,,45.0,87.0,45.0,9554,4.976041666666666
4900,8.0,,,,,,,65.0,,,,,,0,note_on,,127.0,65.0,127.0,9554,4.976041666666666
4901,9.0,,,,,,,42.0,,,,,,0,note_on,,85.0,42.0,85.0,54221,28.240104166666665
4902,9.0,,,,,,,70.0,,,,,,0,note_on,,40.0,70.0,40.0,54221,28.240104166666665
4903,,,,,,,,,,,,,al ,0,lyrics,,,,,9,0.0046875
4904,8.0,,,,,,,87.0,,,,,,123,note_on,,0.0,87.0,0.0,9677,5.040104166666667
4905,3.0,,,,,,,79.0,,,,,,60,note_on,,0.0,79.0,0.0,33950,17.682291666666668
4906,9.0,,,,,,,42.0,,,,,,41,note_on,,0.0,42.0,0.0,54262,28.261458333333334
4907,9.0,,,,,,,70.0,,,,,,0,note_on,,0.0,70.0,0.0,54262,28.261458333333334
4908,9.0,,,,,,,44.0,,,,,,16,note_on,,75.0,44.0,75.0,54278,28.269791666666666
4909,9.0,,,,,,,44.0,,,,,,240,note_on,,0.0,44.0,0.0,54518,28.394791666666666
4910,3.0,,,,,,,79.0,,,,,,0,note_on,,127.0,79.0,127.0,33950,17.682291666666668
4911,8.0,,,,,,,87.0,,,,,,0,note_on,,45.0,87.0,45.0,9677,5.040104166666667
4912,9.0,,,,,,,42.0,,,,,,0,note_on,,85.0,42.0,85.0,54518,28.394791666666666
4913,9.0,,,,,,,70.0,,,,,,0,note_on,,40.0,70.0,40.0,54518,28.394791666666666
4914,9.0,,,,,,,36.0,,,,,,0,note_on,,126.0,36.0,126.0,54518,28.394791666666666
4915,9.0,,,,,,,35.0,,,,,,0,note_on,,60.0,35.0,60.0,54518,28.394791666666666
4916,,,,,,,,,,,,,ways ,0,lyrics,,,,,9,0.0046875
4917,7.0,,,,,,,77.0,,,,,,97,note_on,,0.0,77.0,0.0,1751,0.9119791666666667
4918,8.0,,,,,,,65.0,,,,,,0,note_on,,0.0,65.0,0.0,9677,5.040104166666667
4919,8.0,,,,,,,87.0,,,,,,30,note_on,,0.0,87.0,0.0,9707,5.055729166666667
4920,9.0,,,,,,,35.0,,,,,,27,note_on,,0.0,35.0,0.0,54545,28.408854166666668
4921,9.0,,,,,,,36.0,,,,,,0,note_on,,0.0,36.0,0.0,54545,28.408854166666668
4922,9.0,,,,,,,70.0,,,,,,70,note_on,,0.0,70.0,0.0,54615,28.4453125
4923,9.0,,,,,,,42.0,,,,,,16,note_on,,0.0,42.0,0.0,54631,28.453645833333333
4924,9.0,,,,,,,44.0,,,,,,0,note_on,,75.0,44.0,75.0,54631,28.453645833333333
4925,9.0,,,,,,,44.0,,,,,,240,note_on,,0.0,44.0,0.0,54871,28.578645833333333
4926,7.0,,,,,,,75.0,,,,,,0,note_on,,127.0,75.0,127.0,1751,0.9119791666666667
4927,8.0,,,,,,,63.0,,,,,,0,note_on,,127.0,63.0,127.0,9707,5.055729166666667
4928,9.0,,,,,,,42.0,,,,,,0,note_on,,85.0,42.0,85.0,54871,28.578645833333333
4929,9.0,,,,,,,70.0,,,,,,0,note_on,,40.0,70.0,40.0,54871,28.578645833333333
4930,9.0,,,,,,,39.0,,,,,,0,note_on,,127.0,39.0,127.0,54871,28.578645833333333
4931,9.0,,,,,,,28.0,,,,,,0,note_on,,127.0,28.0,127.0,54871,28.578645833333333
4932,11.0,,,,,,,62.0,,,,,,0,note_on,,127.0,62.0,127.0,17820,9.28125
4933,11.0,,,,,,,67.0,,,,,,0,note_on,,127.0,67.0,127.0,17820,9.28125
4934,11.0,,,,,,,58.0,,,,,,0,note_on,,127.0,58.0,127.0,17820,9.28125
4935,9.0,,,,,,,39.0,,,,,,123,note_on,,0.0,39.0,0.0,54994,28.64270833333333
4936,9.0,,,,,,,28.0,,,,,,2,note_on,,0.0,28.0,0.0,54996,28.64375
4937,7.0,,,,,,,75.0,,,,,,85,note_on,,0.0,75.0,0.0,1836,0.9562499999999999
4938,8.0,,,,,,,63.0,,,,,,0,note_on,,0.0,63.0,0.0,9707,5.055729166666667
4939,9.0,,,,,,,42.0,,,,,,14,note_on,,0.0,42.0,0.0,55010,28.651041666666668
4940,9.0,,,,,,,70.0,,,,,,0,note_on,,0.0,70.0,0.0,55010,28.651041666666668
4941,9.0,,,,,,,44.0,,,,,,16,note_on,,75.0,44.0,75.0,55026,28.659375
4942,3.0,,,,,,,79.0,,,,,,14,note_on,,0.0,79.0,0.0,33964,17.68958333333333
4943,11.0,,,,,,,67.0,,,,,,113,note_on,,0.0,67.0,0.0,17933,9.340104166666666
4944,11.0,,,,,,,58.0,,,,,,11,note_on,,0.0,58.0,0.0,17944,9.345833333333333
4945,11.0,,,,,,,62.0,,,,,,36,note_on,,0.0,62.0,0.0,17980,9.364583333333334
4946,9.0,,,,,,,44.0,,,,,,66,note_on,,0.0,44.0,0.0,55092,28.693749999999998
4947,3.0,,,,,,,79.0,,,,,,0,note_on,,127.0,79.0,127.0,33964,17.68958333333333
4948,7.0,,,,,,,77.0,,,,,,0,note_on,,127.0,77.0,127.0,1836,0.9562499999999999
4949,8.0,,,,,,,87.0,,,,,,0,note_on,,45.0,87.0,45.0,9707,5.055729166666667
4950,8.0,,,,,,,65.0,,,,,,0,note_on,,127.0,65.0,127.0,9707,5.055729166666667
4951,9.0,,,,,,,42.0,,,,,,0,note_on,,85.0,42.0,85.0,55092,28.693749999999998
4952,9.0,,,,,,,70.0,,,,,,0,note_on,,40.0,70.0,40.0,55092,28.693749999999998
4953,10.0,,,,,,,62.0,,,,,,0,note_on,,127.0,62.0,127.0,9007,4.691145833333334
4954,10.0,,,,,,,67.0,,,,,,0,note_on,,127.0,67.0,127.0,9007,4.691145833333334
4955,10.0,,,,,,,58.0,,,,,,0,note_on,,127.0,58.0,127.0,9007,4.691145833333334
4956,11.0,,,,,,,62.0,,,,,,0,note_on,,127.0,62.0,127.0,17980,9.364583333333334
4957,11.0,,,,,,,58.0,,,,,,0,note_on,,118.0,58.0,118.0,17980,9.364583333333334
4958,11.0,,,,,,,65.0,,,,,,0,note_on,,127.0,65.0,127.0,17980,9.364583333333334
4959,,,,,,,,,,,,,be ,0,lyrics,,,,,9,0.0046875
4960,8.0,,,,,,,87.0,,,,,,127,note_on,,0.0,87.0,0.0,9834,5.121875
4961,7.0,,,,,,,77.0,,,,,,60,note_on,,0.0,77.0,0.0,1896,0.9874999999999999
4962,8.0,,,,,,,65.0,,,,,,0,note_on,,0.0,65.0,0.0,9834,5.121875
4963,9.0,,,,,,,70.0,,,,,,37,note_on,,0.0,70.0,0.0,55129,28.71302083333333
4964,9.0,,,,,,,42.0,,,,,,16,note_on,,0.0,42.0,0.0,55145,28.721354166666668
4965,9.0,,,,,,,44.0,,,,,,0,note_on,,75.0,44.0,75.0,55145,28.721354166666668
4966,10.0,,,,,,,67.0,,,,,,127,note_on,,0.0,67.0,0.0,9134,4.757291666666666
4967,10.0,,,,,,,58.0,,,,,,11,note_on,,0.0,58.0,0.0,9145,4.763020833333333
4968,11.0,,,,,,,58.0,,,,,,7,note_on,,0.0,58.0,0.0,17987,9.368229166666666
4969,11.0,,,,,,,65.0,,,,,,23,note_on,,0.0,65.0,0.0,18010,9.380208333333334
4970,10.0,,,,,,,62.0,,,,,,6,note_on,,0.0,62.0,0.0,9151,4.766145833333333
4971,11.0,,,,,,,62.0,,,,,,13,note_on,,0.0,62.0,0.0,18023,9.386979166666666
4972,9.0,,,,,,,44.0,,,,,,53,note_on,,0.0,44.0,0.0,55198,28.748958333333334
4973,3.0,,,,,,,79.0,,,,,,0,note_on,,0.0,79.0,0.0,33964,17.68958333333333
4974,3.0,,,,,,,77.0,,,,,,0,note_on,,127.0,77.0,127.0,33964,17.68958333333333
4975,7.0,,,,,,,82.0,,,,,,0,note_on,,127.0,82.0,127.0,1896,0.9874999999999999
4976,8.0,,,,,,,87.0,,,,,,0,note_on,,45.0,87.0,45.0,9834,5.121875
4977,8.0,,,,,,,70.0,,,,,,0,note_on,,127.0,70.0,127.0,9834,5.121875
4978,9.0,,,,,,,42.0,,,,,,0,note_on,,85.0,42.0,85.0,55198,28.748958333333334
4979,9.0,,,,,,,70.0,,,,,,0,note_on,,40.0,70.0,40.0,55198,28.748958333333334
4980,9.0,,,,,,,36.0,,,,,,0,note_on,,126.0,36.0,126.0,55198,28.748958333333334
4981,9.0,,,,,,,35.0,,,,,,0,note_on,,60.0,35.0,60.0,55198,28.748958333333334
4982,10.0,,,,,,,62.0,,,,,,0,note_on,,127.0,62.0,127.0,9151,4.766145833333333
4983,10.0,,,,,,,58.0,,,,,,0,note_on,,118.0,58.0,118.0,9151,4.766145833333333
4984,10.0,,,,,,,65.0,,,,,,0,note_on,,127.0,65.0,127.0,9151,4.766145833333333
4985,12.0,,,,,,,62.0,,,,,,0,note_on,,127.0,62.0,127.0,13627,7.097395833333334
4986,12.0,,,,,,,67.0,,,,,,0,note_on,,127.0,67.0,127.0,13627,7.097395833333334
4987,12.0,,,,,,,58.0,,,,,,0,note_on,,127.0,58.0,127.0,13627,7.097395833333334
4988,,,,,,,,,,,,,mi ,0,lyrics,,,,,9,0.0046875
4989,8.0,,,,,,,87.0,,,,,,135,note_on,,0.0,87.0,0.0,9969,5.1921875
4990,9.0,,,,,,,35.0,,,,,,37,note_on,,0.0,35.0,0.0,55235,28.768229166666668
4991,9.0,,,,,,,36.0,,,,,,0,note_on,,0.0,36.0,0.0,55235,28.768229166666668
4992,9.0,,,,,,,42.0,,,,,,52,note_on,,0.0,42.0,0.0,55287,28.795312499999998
4993,9.0,,,,,,,70.0,,,,,,0,note_on,,0.0,70.0,0.0,55287,28.795312499999998
4994,9.0,,,,,,,44.0,,,,,,16,note_on,,75.0,44.0,75.0,55303,28.803645833333334
4995,12.0,,,,,,,67.0,,,,,,127,note_on,,0.0,67.0,0.0,13754,7.163541666666666
4996,12.0,,,,,,,58.0,,,,,,11,note_on,,0.0,58.0,0.0,13765,7.169270833333333
4997,10.0,,,,,,,58.0,,,,,,7,note_on,,0.0,58.0,0.0,9158,4.769791666666666
4998,10.0,,,,,,,65.0,,,,,,23,note_on,,0.0,65.0,0.0,9181,4.781770833333333
4999,12.0,,,,,,,62.0,,,,,,6,note_on,,0.0,62.0,0.0,13771,7.172395833333333
5000,10.0,,,,,,,62.0,,,,,,13,note_on,,0.0,62.0,0.0,9194,4.788541666666666
5001,9.0,,,,,,,44.0,,,,,,53,note_on,,0.0,44.0,0.0,55356,28.83125
5002,9.0,,,,,,,42.0,,,,,,0,note_on,,85.0,42.0,85.0,55356,28.83125
5003,9.0,,,,,,,70.0,,,,,,0,note_on,,40.0,70.0,40.0,55356,28.83125
5004,12.0,,,,,,,62.0,,,,,,0,note_on,,127.0,62.0,127.0,13771,7.172395833333333
5005,12.0,,,,,,,58.0,,,,,,0,note_on,,118.0,58.0,118.0,13771,7.172395833333333
5006,12.0,,,,,,,65.0,,,,,,0,note_on,,127.0,65.0,127.0,13771,7.172395833333333
5007,8.0,,,,,,,70.0,,,,,,85,note_on,,0.0,70.0,0.0,10054,5.236458333333333
5008,7.0,,,,,,,82.0,,,,,,0,note_on,,0.0,82.0,0.0,1896,0.9874999999999999
5009,3.0,,,,,,,77.0,,,,,,138,note_on,,0.0,77.0,0.0,34102,17.761458333333334
5010,9.0,,,,,,,70.0,,,,,,1,note_on,,0.0,70.0,0.0,55357,28.831770833333334
5011,9.0,,,,,,,42.0,,,,,,16,note_on,,0.0,42.0,0.0,55373,28.840104166666666
5012,8.0,,,,,,,87.0,,,,,,0,note_on,,45.0,87.0,45.0,10054,5.236458333333333
5013,9.0,,,,,,,44.0,,,,,,0,note_on,,75.0,44.0,75.0,55373,28.840104166666666
5014,9.0,,,,,,,36.0,,,,,,0,note_on,,126.0,36.0,126.0,55373,28.840104166666666
5015,9.0,,,,,,,35.0,,,,,,0,note_on,,60.0,35.0,60.0,55373,28.840104166666666
5016,8.0,,,,,,,87.0,,,,,,123,note_on,,0.0,87.0,0.0,10177,5.300520833333334
5017,12.0,,,,,,,58.0,,,,,,22,note_on,,0.0,58.0,0.0,13793,7.183854166666666
5018,12.0,,,,,,,65.0,,,,,,23,note_on,,0.0,65.0,0.0,13816,7.195833333333333
5019,12.0,,,,,,,62.0,,,,,,19,note_on,,0.0,62.0,0.0,13835,7.205729166666667
5020,9.0,,,,,,,36.0,,,,,,37,note_on,,0.0,36.0,0.0,55410,28.859375
5021,9.0,,,,,,,35.0,,,,,,0,note_on,,0.0,35.0,0.0,55410,28.859375
5022,9.0,,,,,,,44.0,,,,,,16,note_on,,0.0,44.0,0.0,55426,28.867708333333333
5023,3.0,,,,,,,77.0,,,,,,0,note_on,,127.0,77.0,127.0,34102,17.761458333333334
5024,7.0,,,,,,,75.0,,,,,,0,note_on,,127.0,75.0,127.0,1896,0.9874999999999999
5025,8.0,,,,,,,63.0,,,,,,0,note_on,,127.0,63.0,127.0,10177,5.300520833333334
5026,9.0,,,,,,,42.0,,,,,,0,note_on,,85.0,42.0,85.0,55426,28.867708333333333
5027,9.0,,,,,,,70.0,,,,,,0,note_on,,40.0,70.0,40.0,55426,28.867708333333333
5028,9.0,,,,,,,39.0,,,,,,0,note_on,,125.0,39.0,125.0,55426,28.867708333333333
5029,9.0,,,,,,,28.0,,,,,,0,note_on,,127.0,28.0,127.0,55426,28.867708333333333
5030,11.0,,,,,,,63.0,,,,,,0,note_on,,100.0,63.0,100.0,18023,9.386979166666666
5031,11.0,,,,,,,56.0,,,,,,0,note_on,,127.0,56.0,127.0,18023,9.386979166666666
5032,11.0,,,,,,,62.0,,,,,,0,note_on,,126.0,62.0,126.0,18023,9.386979166666666
5033,11.0,,,,,,,53.0,,,,,,0,note_on,,127.0,53.0,127.0,18023,9.386979166666666
5034,11.0,,,,,,,58.0,,,,,,0,note_on,,127.0,58.0,127.0,18023,9.386979166666666
5035,,,,,,,,,,,,,ne ,0,lyrics,,,,,9,0.0046875
5036,9.0,,,,,,,28.0,,,,,,117,note_on,,0.0,28.0,0.0,55543,28.928645833333334
5037,9.0,,,,,,,39.0,,,,,,34,note_on,,0.0,39.0,0.0,55577,28.946354166666666
5038,9.0,,,,,,,70.0,,,,,,73,note_on,,0.0,70.0,0.0,55650,28.984375
5039,9.0,,,,,,,42.0,,,,,,0,note_on,,0.0,42.0,0.0,55650,28.984375
5040,9.0,,,,,,,44.0,,,,,,16,note_on,,75.0,44.0,75.0,55666,28.992708333333333
5041,3.0,,,,,,,77.0,,,,,,180,note_on,,0.0,77.0,0.0,34282,17.855208333333334
5042,9.0,,,,,,,44.0,,,,,,60,note_on,,0.0,44.0,0.0,55726,29.023958333333333
5043,3.0,,,,,,,75.0,,,,,,0,note_on,,127.0,75.0,127.0,34282,17.855208333333334
5044,8.0,,,,,,,87.0,,,,,,0,note_on,,45.0,87.0,45.0,10177,5.300520833333334
5045,9.0,,,,,,,42.0,,,,,,0,note_on,,85.0,42.0,85.0,55726,29.023958333333333
5046,9.0,,,,,,,70.0,,,,,,0,note_on,,40.0,70.0,40.0,55726,29.023958333333333
5047,9.0,,,,,,,36.0,,,,,,0,note_on,,126.0,36.0,126.0,55726,29.023958333333333
5048,9.0,,,,,,,35.0,,,,,,0,note_on,,60.0,35.0,60.0,55726,29.023958333333333
5049,10.0,,,,,,,63.0,,,,,,0,note_on,,100.0,63.0,100.0,9194,4.788541666666666
5050,10.0,,,,,,,56.0,,,,,,0,note_on,,127.0,56.0,127.0,9194,4.788541666666666
5051,10.0,,,,,,,62.0,,,,,,0,note_on,,126.0,62.0,126.0,9194,4.788541666666666
5052,10.0,,,,,,,53.0,,,,,,0,note_on,,127.0,53.0,127.0,9194,4.788541666666666
5053,10.0,,,,,,,58.0,,,,,,0,note_on,,127.0,58.0,127.0,9194,4.788541666666666
5054,,,,,,,,,,,,,mine ,0,lyrics,,,,,9,0.0046875
5055,8.0,,,,,,,63.0,,,,,,99,note_on,,0.0,63.0,0.0,10276,5.352083333333333
5056,7.0,,,,,,,75.0,,,,,,0,note_on,,0.0,75.0,0.0,1896,0.9874999999999999
5057,8.0,,,,,,,87.0,,,,,,21,note_on,,0.0,87.0,0.0,10297,5.363020833333334
5058,9.0,,,,,,,35.0,,,,,,46,note_on,,0.0,35.0,0.0,55772,29.047916666666666
5059,9.0,,,,,,,36.0,,,,,,0,note_on,,0.0,36.0,0.0,55772,29.047916666666666
5060,9.0,,,,,,,70.0,,,,,,58,note_on,,0.0,70.0,0.0,55830,29.078125
5061,9.0,,,,,,,42.0,,,,,,16,note_on,,0.0,42.0,0.0,55846,29.086458333333333
5062,9.0,,,,,,,44.0,,,,,,0,note_on,,75.0,44.0,75.0,55846,29.086458333333333
5063,9.0,,,,,,,44.0,,,,,,240,note_on,,0.0,44.0,0.0,56086,29.211458333333333
5064,7.0,,,,,,,77.0,,,,,,0,note_on,,127.0,77.0,127.0,1896,0.9874999999999999
5065,8.0,,,,,,,65.0,,,,,,0,note_on,,127.0,65.0,127.0,10297,5.363020833333334
5066,9.0,,,,,,,42.0,,,,,,0,note_on,,85.0,42.0,85.0,56086,29.211458333333333
5067,9.0,,,,,,,70.0,,,,,,0,note_on,,40.0,70.0,40.0,56086,29.211458333333333
5068,12.0,,,,,,,63.0,,,,,,0,note_on,,100.0,63.0,100.0,13835,7.205729166666667
5069,12.0,,,,,,,56.0,,,,,,0,note_on,,127.0,56.0,127.0,13835,7.205729166666667
5070,12.0,,,,,,,62.0,,,,,,0,note_on,,126.0,62.0,126.0,13835,7.205729166666667
5071,12.0,,,,,,,53.0,,,,,,0,note_on,,127.0,53.0,127.0,13835,7.205729166666667
5072,12.0,,,,,,,58.0,,,,,,0,note_on,,127.0,58.0,127.0,13835,7.205729166666667
5073,9.0,,,,,,,70.0,,,,,,224,note_on,,0.0,70.0,0.0,56310,29.328125
5074,8.0,,,,,,,65.0,,,,,,2,note_on,,0.0,65.0,0.0,10299,5.3640625
5075,7.0,,,,,,,77.0,,,,,,0,note_on,,0.0,77.0,0.0,1896,0.9874999999999999
5076,8.0,,,,,,,87.0,,,,,,14,note_on,,45.0,87.0,45.0,10313,5.371354166666666
5077,9.0,,,,,,,44.0,,,,,,0,note_on,,75.0,44.0,75.0,56310,29.328125
5078,3.0,,,,,,,75.0,,,,,,42,note_on,,0.0,75.0,0.0,34324,17.87708333333333
5079,8.0,,,,,,,87.0,,,,,,53,note_on,,0.0,87.0,0.0,10366,5.398958333333333
5080,9.0,,,,,,,44.0,,,,,,145,note_on,,0.0,44.0,0.0,56455,29.403645833333332
5081,11.0,,,,,,,63.0,,,,,,0,note_on,,0.0,63.0,0.0,18023,9.386979166666666
5082,7.0,,,,,,,75.0,,,,,,0,note_on,,127.0,75.0,127.0,1896,0.9874999999999999
5083,8.0,,,,,,,63.0,,,,,,0,note_on,,127.0,63.0,127.0,10366,5.398958333333333
5084,9.0,,,,,,,42.0,,,,,,0,note_on,,85.0,42.0,85.0,56455,29.403645833333332
5085,9.0,,,,,,,70.0,,,,,,0,note_on,,40.0,70.0,40.0,56455,29.403645833333332
5086,9.0,,,,,,,36.0,,,,,,0,note_on,,126.0,36.0,126.0,56455,29.403645833333332
5087,9.0,,,,,,,35.0,,,,,,0,note_on,,60.0,35.0,60.0,56455,29.403645833333332
5088,11.0,,,,,,,63.0,,,,,,0,note_on,,127.0,63.0,127.0,18023,9.386979166666666
5089,9.0,,,,,,,35.0,,,,,,154,note_on,,0.0,35.0,0.0,56609,29.483854166666667
5090,9.0,,,,,,,36.0,,,,,,0,note_on,,0.0,36.0,0.0,56609,29.483854166666667
5091,8.0,,,,,,,63.0,,,,,,59,note_on,,0.0,63.0,0.0,10425,5.4296875
5092,7.0,,,,,,,75.0,,,,,,0,note_on,,0.0,75.0,0.0,1896,0.9874999999999999
5093,9.0,,,,,,,70.0,,,,,,11,note_on,,0.0,70.0,0.0,56620,29.489583333333332
5094,9.0,,,,,,,42.0,,,,,,16,note_on,,0.0,42.0,0.0,56636,29.497916666666665
5095,9.0,,,,,,,44.0,,,,,,0,note_on,,75.0,44.0,75.0,56636,29.497916666666665
5096,1.0,,,,,,,34.0,,,,,,120,note_on,,0.0,34.0,0.0,1838,0.9572916666666667
5097,1.0,,,,,,,,,-361.0,,,,69,pitchwheel,,,,,1907,0.9932291666666666
5098,1.0,,,,,,,,,-979.0,,,,10,pitchwheel,,,,,1917,0.9984375
5099,1.0,,,,,,,,,-1623.0,,,,8,pitchwheel,,,,,1925,1.0026041666666667
5100,1.0,,,,,,,,,-2061.0,,,,7,pitchwheel,,,,,1932,1.00625
5101,1.0,,,,,,,,,-2525.0,,,,8,pitchwheel,,,,,1940,1.0104166666666667
5102,1.0,,,,,,,,,-3375.0,,,,10,pitchwheel,,,,,1950,1.015625
5103,10.0,,,,,,,63.0,,,,,,8,note_on,,0.0,63.0,0.0,9202,4.792708333333334
5104,9.0,,,,,,,44.0,,,,,,0,note_on,,0.0,44.0,0.0,56636,29.497916666666665
5105,3.0,,,,,,,79.0,,,,,,0,note_on,,127.0,79.0,127.0,34324,17.87708333333333
5106,7.0,,,,,,,77.0,,,,,,0,note_on,,127.0,77.0,127.0,1896,0.9874999999999999
5107,8.0,,,,,,,87.0,,,,,,0,note_on,,45.0,87.0,45.0,10425,5.4296875
5108,8.0,,,,,,,65.0,,,,,,0,note_on,,127.0,65.0,127.0,10425,5.4296875
5109,9.0,,,,,,,42.0,,,,,,0,note_on,,85.0,42.0,85.0,56636,29.497916666666665
5110,9.0,,,,,,,70.0,,,,,,0,note_on,,40.0,70.0,40.0,56636,29.497916666666665
5111,9.0,,,,,,,39.0,,,,,,0,note_on,,127.0,39.0,127.0,56636,29.497916666666665
5112,9.0,,,,,,,28.0,,,,,,0,note_on,,127.0,28.0,127.0,56636,29.497916666666665
5113,10.0,,,,,,,63.0,,,,,,0,note_on,,127.0,63.0,127.0,9202,4.792708333333334
5114,,,,,,,,,,,,,For ,0,lyrics,,,,,9,0.0046875
5115,1.0,,,,,,,,,-3813.0,,,,1,pitchwheel,,,,,1951,1.0161458333333333
5116,1.0,,,,,,,22.0,,,,,,0,note_on,,127.0,22.0,127.0,1951,1.0161458333333333
5117,1.0,,,,,,,,,-4354.0,,,,8,pitchwheel,,,,,1959,1.0203125
5118,1.0,,,,,,,,,-5050.0,,,,10,pitchwheel,,,,,1969,1.0255208333333332
5119,1.0,,,,,,,,,-5719.0,,,,9,pitchwheel,,,,,1978,1.0302083333333334
5120,1.0,,,,,,,,,-6673.0,,,,14,pitchwheel,,,,,1992,1.0375
5121,1.0,,,,,,,,,-7033.0,,,,11,pitchwheel,,,,,2003,1.0432291666666667
5122,8.0,,,,,,,87.0,,,,,,4,note_on,,0.0,87.0,0.0,10429,5.431770833333333
5123,1.0,,,,,,,,,-7652.0,,,,6,pitchwheel,,,,,2009,1.0463541666666667
5124,1.0,,,,,,,,,-8167.0,,,,8,pitchwheel,,,,,2017,1.0505208333333333
5125,1.0,,,,,,,,,-8192.0,,,,9,pitchwheel,,,,,2026,1.0552083333333333
5126,9.0,,,,,,,39.0,,,,,,43,note_on,,0.0,39.0,0.0,56679,29.5203125
5127,9.0,,,,,,,28.0,,,,,,2,note_on,,0.0,28.0,0.0,56681,29.521354166666665
5128,1.0,,,,,,,,,-7806.0,,,,52,pitchwheel,,,,,2078,1.0822916666666667
5129,7.0,,,,,,,77.0,,,,,,9,note_on,,0.0,77.0,0.0,1905,0.9921875
5130,8.0,,,,,,,65.0,,,,,,0,note_on,,0.0,65.0,0.0,10429,5.431770833333333
5131,1.0,,,,,,,,,-6930.0,,,,0,pitchwheel,,,,,2078,1.0822916666666667
5132,1.0,,,,,,,,,-5153.0,,,,8,pitchwheel,,,,,2086,1.0864583333333333
5133,1.0,,,,,,,,,-2911.0,,,,8,pitchwheel,,,,,2094,1.090625
5134,1.0,,,,,,,,,-129.0,,,,9,pitchwheel,,,,,2103,1.0953125
5135,1.0,,,,,,,,,643.0,,,,8,pitchwheel,,,,,2111,1.0994791666666666
5136,9.0,,,,,,,42.0,,,,,,5,note_on,,0.0,42.0,0.0,56686,29.523958333333333
5137,9.0,,,,,,,70.0,,,,,,0,note_on,,0.0,70.0,0.0,56686,29.523958333333333
5138,1.0,,,,,,,,,1545.0,,,,3,pitchwheel,,,,,2114,1.1010416666666667
5139,1.0,,,,,,,,,721.0,,,,9,pitchwheel,,,,,2123,1.1057291666666667
5140,9.0,,,,,,,42.0,,,,,,4,note_on,,0.0,42.0,0.0,56690,29.526041666666668
5141,9.0,,,,,,,44.0,,,,,,0,note_on,,75.0,44.0,75.0,56690,29.526041666666668
5142,1.0,,,,,,,,,0.0,,,,4,pitchwheel,,,,,2127,1.1078125
5143,12.0,,,,,,,63.0,,,,,,236,note_on,,0.0,63.0,0.0,14071,7.328645833333333
5144,9.0,,,,,,,44.0,,,,,,0,note_on,,0.0,44.0,0.0,56690,29.526041666666668
5145,7.0,,,,,,,82.0,,,,,,0,note_on,,127.0,82.0,127.0,1905,0.9921875
5146,8.0,,,,,,,70.0,,,,,,0,note_on,,127.0,70.0,127.0,10429,5.431770833333333
5147,9.0,,,,,,,42.0,,,,,,0,note_on,,85.0,42.0,85.0,56690,29.526041666666668
5148,9.0,,,,,,,61.0,,,,,,0,note_on,,100.0,61.0,100.0,56690,29.526041666666668
5149,9.0,,,,,,,70.0,,,,,,0,note_on,,40.0,70.0,40.0,56690,29.526041666666668
5150,12.0,,,,,,,63.0,,,,,,0,note_on,,127.0,63.0,127.0,14071,7.328645833333333
5151,3.0,,,,,,,,,-310.0,,,,10,pitchwheel,,,,,34334,17.882291666666667
5152,3.0,,,,,,,,,-876.0,,,,8,pitchwheel,,,,,34342,17.886458333333334
5153,3.0,,,,,,,,,-1314.0,,,,9,pitchwheel,,,,,34351,17.891145833333333
5154,3.0,,,,,,,,,-1881.0,,,,8,pitchwheel,,,,,34359,17.8953125
5155,3.0,,,,,,,,,-2293.0,,,,8,pitchwheel,,,,,34367,17.899479166666666
5156,3.0,,,,,,,,,-2860.0,,,,11,pitchwheel,,,,,34378,17.905208333333334
5157,3.0,,,,,,,,,-3427.0,,,,8,pitchwheel,,,,,34386,17.909375
5158,3.0,,,,,,,,,-4019.0,,,,8,pitchwheel,,,,,34394,17.913541666666667
5159,3.0,,,,,,,,,-4560.0,,,,11,pitchwheel,,,,,34405,17.919270833333332
5160,3.0,,,,,,,,,-5230.0,,,,8,pitchwheel,,,,,34413,17.9234375
5161,3.0,,,,,,,,,-5436.0,,,,8,pitchwheel,,,,,34421,17.927604166666665
5162,3.0,,,,,,,,,-6415.0,,,,9,pitchwheel,,,,,34430,17.932291666666668
5163,9.0,,,,,,,61.0,,,,,,8,note_on,,0.0,61.0,0.0,56698,29.530208333333334
5164,3.0,,,,,,,,,-6776.0,,,,0,pitchwheel,,,,,34430,17.932291666666668
5165,9.0,,,,,,,61.0,,,,,,6,note_on,,100.0,61.0,100.0,56704,29.53333333333333
5166,3.0,,,,,,,,,-7523.0,,,,2,pitchwheel,,,,,34432,17.933333333333334
5167,3.0,,,,,,,,,-7961.0,,,,11,pitchwheel,,,,,34443,17.9390625
5168,3.0,,,,,,,,,-8192.0,,,,8,pitchwheel,,,,,34451,17.943229166666665
5169,8.0,,,,,,,46.0,,,,,,28,note_on,,0.0,46.0,0.0,10457,5.446354166666667
5170,9.0,,,,,,,70.0,,,,,,55,note_on,,0.0,70.0,0.0,56759,29.561979166666667
5171,11.0,,,,,,,56.0,,,,,,9,note_on,,0.0,56.0,0.0,18032,9.391666666666666
5172,9.0,,,,,,,61.0,,,,,,1,note_on,,0.0,61.0,0.0,56760,29.5625
5173,11.0,,,,,,,62.0,,,,,,3,note_on,,0.0,62.0,0.0,18035,9.393229166666666
5174,9.0,,,,,,,42.0,,,,,,3,note_on,,0.0,42.0,0.0,56763,29.5640625
5175,9.0,,,,,,,44.0,,,,,,0,note_on,,75.0,44.0,75.0,56763,29.5640625
5176,9.0,,,,,,,61.0,,,,,,0,note_on,,100.0,61.0,100.0,56763,29.5640625
5177,5.0,,,,,,,53.0,,,,,,95,note_on,,0.0,53.0,0.0,1154,0.6010416666666667
5178,5.0,,,,,,,62.0,,,,,,12,note_on,,0.0,62.0,0.0,1166,0.6072916666666667
5179,7.0,,,,,,,82.0,,,,,,5,note_on,,0.0,82.0,0.0,1910,0.9947916666666666
5180,8.0,,,,,,,70.0,,,,,,0,note_on,,0.0,70.0,0.0,10457,5.446354166666667
5181,9.0,,,,,,,61.0,,,,,,2,note_on,,0.0,61.0,0.0,56765,29.565104166666668
5182,3.0,,,,,,,79.0,,,,,,6,note_on,,0.0,79.0,0.0,34457,17.946354166666666
5183,9.0,,,,,,,61.0,,,,,,0,note_on,,100.0,61.0,100.0,56765,29.565104166666668
5184,5.0,,,,,,,58.0,,,,,,14,note_on,,0.0,58.0,0.0,1180,0.6145833333333334
5185,11.0,,,,,,,53.0,,,,,,64,note_on,,0.0,53.0,0.0,18099,9.4265625
5186,11.0,,,,,,,58.0,,,,,,31,note_on,,0.0,58.0,0.0,18130,9.442708333333334
5187,1.0,,,,,,,22.0,,,,,,4,note_on,,0.0,22.0,0.0,2131,1.1098958333333333
5188,9.0,,,,,,,61.0,,,,,,1,note_on,,0.0,61.0,0.0,56766,29.565625
5189,11.0,,0.0,,,,,,,,,,,4,control_change,121.0,,,,18134,9.444791666666667
5190,11.0,,0.0,,,,,,,,,,,0,control_change,121.0,,,,18134,9.444791666666667
5191,11.0,,32.0,,,,,,,,,,,1,control_change,0.0,,,,18135,9.4453125
5192,11.0,,32.0,,,,,,,,,,,0,control_change,0.0,,,,18135,9.4453125
5193,9.0,,,,,,,44.0,,,,,,1,note_on,,0.0,44.0,0.0,56767,29.566145833333334
5194,9.0,,,,,,,42.0,,,,,,0,note_on,,85.0,42.0,85.0,56767,29.566145833333334
5195,3.0,,,,,,,79.0,,,,,,0,note_on,,127.0,79.0,127.0,34457,17.946354166666666
5196,9.0,,,,,,,57.0,,,,,,0,note_on,,100.0,57.0,100.0,56767,29.566145833333334
5197,9.0,,,,,,,35.0,,,,,,0,note_on,,60.0,35.0,60.0,56767,29.566145833333334
5198,11.0,,,,,,,70.0,,,,,,0,note_on,,126.0,70.0,126.0,18135,9.4453125
5199,11.0,,,,,,,67.0,,,,,,0,note_on,,127.0,67.0,127.0,18135,9.4453125
5200,11.0,,,,,,,63.0,,,,,,0,note_on,,127.0,63.0,127.0,18135,9.4453125
5201,9.0,,,,,,,70.0,,,,,,0,note_on,,40.0,70.0,40.0,56767,29.566145833333334
5202,9.0,,,,,,,36.0,,,,,,0,note_on,,126.0,36.0,126.0,56767,29.566145833333334
5203,11.0,,,,,,,,,,24.0,,,0,program_change,,,,,18135,9.4453125
5204,,,,,,,,,,,,,"you, ",0,lyrics,,,,,9,0.0046875
5205,3.0,,,,,,,,,-6570.0,,,,7,pitchwheel,,,,,34464,17.95
5206,11.0,,,,,,,63.0,,,,,,8,note_on,,0.0,63.0,0.0,18143,9.449479166666666
5207,3.0,,,,,,,,,-3452.0,,,,1,pitchwheel,,,,,34465,17.950520833333332
5208,3.0,,,,,,,,,0.0,,,,10,pitchwheel,,,,,34475,17.955729166666668
5209,3.0,,,,,,,,,2060.0,,,,8,pitchwheel,,,,,34483,17.959895833333334
5210,3.0,,,,,,,,,2550.0,,,,9,pitchwheel,,,,,34492,17.964583333333334
5211,3.0,,,,,,,,,1210.0,,,,8,pitchwheel,,,,,34500,17.96875
5212,3.0,,,,,,,,,0.0,,,,8,pitchwheel,,,,,34508,17.972916666666666
5213,9.0,,,,,,,57.0,,,,,,55,note_on,,0.0,57.0,0.0,56822,29.594791666666666
5214,9.0,,,,,,,35.0,,,,,,58,note_on,,0.0,35.0,0.0,56880,29.625
5215,9.0,,,,,,,36.0,,,,,,0,note_on,,0.0,36.0,0.0,56880,29.625
5216,9.0,,,,,,,70.0,,,,,,52,note_on,,0.0,70.0,0.0,56932,29.652083333333334
5217,9.0,,,,,,,42.0,,,,,,0,note_on,,0.0,42.0,0.0,56932,29.652083333333334
5218,10.0,,,,,,,56.0,,,,,,9,note_on,,0.0,56.0,0.0,9211,4.797395833333333
5219,10.0,,,,,,,62.0,,,,,,4,note_on,,0.0,62.0,0.0,9215,4.799479166666667
5220,11.0,,,,,,,63.0,,,,,,160,note_on,,0.0,63.0,0.0,18303,9.5328125
5221,11.0,,,,,,,67.0,,,,,,10,note_on,,0.0,67.0,0.0,18313,9.538020833333333
5222,10.0,,,,,,,53.0,,,,,,31,note_on,,0.0,53.0,0.0,9246,4.815625
5223,11.0,,,,,,,70.0,,,,,,21,note_on,,0.0,70.0,0.0,18334,9.548958333333333
5224,10.0,,,,,,,58.0,,,,,,10,note_on,,0.0,58.0,0.0,9256,4.820833333333333
5225,10.0,,0.0,,,,,,,,,,,9,control_change,121.0,,,,9265,4.825520833333333
5226,10.0,,0.0,,,,,,,,,,,0,control_change,121.0,,,,9265,4.825520833333333
5227,10.0,,32.0,,,,,,,,,,,1,control_change,0.0,,,,9266,4.826041666666667
5228,10.0,,32.0,,,,,,,,,,,0,control_change,0.0,,,,9266,4.826041666666667
5229,9.0,,,,,,,44.0,,,,,,1,note_on,,0.0,44.0,0.0,56933,29.652604166666666
5230,10.0,,,,,,,63.0,,,,,,0,note_on,,127.0,63.0,127.0,9266,4.826041666666667
5231,9.0,,,,,,,70.0,,,,,,0,note_on,,40.0,70.0,40.0,56933,29.652604166666666
5232,10.0,,,,,,,70.0,,,,,,0,note_on,,126.0,70.0,126.0,9266,4.826041666666667
5233,10.0,,,,,,,,,,24.0,,,0,program_change,,,,,9266,4.826041666666667
5234,10.0,,,,,,,67.0,,,,,,0,note_on,,127.0,67.0,127.0,9266,4.826041666666667
5235,10.0,,,,,,,63.0,,,,,,15,note_on,,0.0,63.0,0.0,9281,4.833854166666667
5236,3.0,,,,,,,79.0,,,,,,55,note_on,,0.0,79.0,0.0,34563,18.0015625
5237,9.0,,,,,,,70.0,,,,,,154,note_on,,0.0,70.0,0.0,57087,29.732812499999998
5238,12.0,,,,,,,56.0,,,,,,9,note_on,,0.0,56.0,0.0,14080,7.333333333333333
5239,12.0,,,,,,,62.0,,,,,,4,note_on,,0.0,62.0,0.0,14084,7.335416666666666
5240,9.0,,,,,,,42.0,,,,,,3,note_on,,0.0,42.0,0.0,57090,29.734375
5241,9.0,,,,,,,36.0,,,,,,0,note_on,,126.0,36.0,126.0,57090,29.734375
5242,9.0,,,,,,,35.0,,,,,,0,note_on,,60.0,35.0,60.0,57090,29.734375
5243,10.0,,,,,,,63.0,,,,,,157,note_on,,0.0,63.0,0.0,9438,4.915625
5244,10.0,,,,,,,67.0,,,,,,10,note_on,,0.0,67.0,0.0,9448,4.920833333333333
5245,12.0,,,,,,,53.0,,,,,,31,note_on,,0.0,53.0,0.0,14115,7.3515625
5246,10.0,,,,,,,70.0,,,,,,21,note_on,,0.0,70.0,0.0,9469,4.931770833333333
5247,9.0,,,,,,,35.0,,,,,,5,note_on,,0.0,35.0,0.0,57095,29.736979166666668
5248,9.0,,,,,,,36.0,,,,,,0,note_on,,0.0,36.0,0.0,57095,29.736979166666668
5249,12.0,,,,,,,58.0,,,,,,5,note_on,,0.0,58.0,0.0,14120,7.354166666666667
5250,12.0,,0.0,,,,,,,,,,,9,control_change,121.0,,,,14129,7.358854166666666
5251,12.0,,32.0,,,,,,,,,,,1,control_change,0.0,,,,14130,7.359375
5252,9.0,,,,,,,44.0,,,,,,1,note_on,,0.0,44.0,0.0,57096,29.7375
5253,9.0,,,,,,,70.0,,,,,,0,note_on,,40.0,70.0,40.0,57096,29.7375
5254,9.0,,,,,,,42.0,,,,,,0,note_on,,85.0,42.0,85.0,57096,29.7375
5255,9.0,,,,,,,39.0,,,,,,0,note_on,,125.0,39.0,125.0,57096,29.7375
5256,9.0,,,,,,,28.0,,,,,,0,note_on,,127.0,28.0,127.0,57096,29.7375
5257,12.0,,,,,,,63.0,,,,,,0,note_on,,127.0,63.0,127.0,14130,7.359375
5258,12.0,,,,,,,67.0,,,,,,0,note_on,,127.0,67.0,127.0,14130,7.359375
5259,12.0,,,,,,,70.0,,,,,,0,note_on,,126.0,70.0,126.0,14130,7.359375
5260,12.0,,0.0,,,,,,,,,,,0,control_change,121.0,,,,14130,7.359375
5261,12.0,,32.0,,,,,,,,,,,0,control_change,0.0,,,,14130,7.359375
5262,12.0,,,,,,,,,,24.0,,,0,program_change,,,,,14130,7.359375
5263,12.0,,,,,,,63.0,,,,,,15,note_on,,0.0,63.0,0.0,14145,7.3671875
5264,9.0,,,,,,,28.0,,,,,,102,note_on,,0.0,28.0,0.0,57198,29.790625
5265,9.0,,,,,,,39.0,,,,,,34,note_on,,0.0,39.0,0.0,57232,29.808333333333334
5266,9.0,,,,,,,70.0,,,,,,73,note_on,,0.0,70.0,0.0,57305,29.846354166666668
5267,9.0,,,,,,,42.0,,,,,,0,note_on,,0.0,42.0,0.0,57305,29.846354166666668
5268,12.0,,,,,,,63.0,,,,,,173,note_on,,0.0,63.0,0.0,14318,7.457291666666666
5269,12.0,,,,,,,67.0,,,,,,10,note_on,,0.0,67.0,0.0,14328,7.4624999999999995
5270,12.0,,,,,,,70.0,,,,,,52,note_on,,0.0,70.0,0.0,14380,7.489583333333333
5271,3.0,,,,,,,75.0,,,,,,21,note_on,,127.0,75.0,127.0,34584,18.0125
5272,9.0,,,,,,,70.0,,,,,,0,note_on,,40.0,70.0,40.0,57305,29.846354166666668
5273,9.0,,,,,,,36.0,,,,,,0,note_on,,126.0,36.0,126.0,57305,29.846354166666668
5274,9.0,,,,,,,35.0,,,,,,0,note_on,,60.0,35.0,60.0,57305,29.846354166666668
5275,,,,,,,,,,,,,I ,0,lyrics,,,,,9,0.0046875
5276,3.0,,,,,,,75.0,,,,,,163,note_on,,0.0,75.0,0.0,34747,18.097395833333334
5277,9.0,,,,,,,35.0,,,,,,3,note_on,,0.0,35.0,0.0,57308,29.847916666666666
5278,9.0,,,,,,,36.0,,,,,,0,note_on,,0.0,36.0,0.0,57308,29.847916666666666
5279,9.0,,,,,,,70.0,,,,,,58,note_on,,0.0,70.0,0.0,57366,29.878125
5280,3.0,,,,,,,75.0,,,,,,256,note_on,,127.0,75.0,127.0,35003,18.230729166666666
5281,6.0,,,,,,,70.0,,,,,,0,note_on,,127.0,70.0,127.0,9129,4.7546875
5282,6.0,,,,,,,75.0,,,,,,0,note_on,,127.0,75.0,127.0,9129,4.7546875
5283,6.0,,,,,,,67.0,,,,,,0,note_on,,127.0,67.0,127.0,9129,4.7546875
5284,9.0,,,,,,,42.0,,,,,,0,note_on,,85.0,42.0,85.0,57366,29.878125
5285,9.0,,,,,,,70.0,,,,,,0,note_on,,40.0,70.0,40.0,57366,29.878125
5286,,,,,,,,,,,,,would ,0,lyrics,,,,,9,0.0046875
5287,3.0,,,,,,,75.0,,,,,,165,note_on,,0.0,75.0,0.0,35168,18.316666666666666
5288,9.0,,,,,,,42.0,,,,,,59,note_on,,0.0,42.0,0.0,57425,29.908854166666668
5289,9.0,,,,,,,70.0,,,,,,0,note_on,,0.0,70.0,0.0,57425,29.908854166666668
5290,6.0,,,,,,,67.0,,,,,,227,note_on,,0.0,67.0,0.0,9356,4.872916666666667
5291,3.0,,,,,,,75.0,,,,,,29,note_on,,127.0,75.0,127.0,35197,18.331770833333334
5292,9.0,,,,,,,70.0,,,,,,0,note_on,,40.0,70.0,40.0,57425,29.908854166666668
5293,9.0,,,,,,,36.0,,,,,,0,note_on,,126.0,36.0,126.0,57425,29.908854166666668
5294,9.0,,,,,,,35.0,,,,,,0,note_on,,60.0,35.0,60.0,57425,29.908854166666668
5295,,,,,,,,,,,,,have ,0,lyrics,,,,,9,0.0046875
5296,6.0,,,,,,,70.0,,,,,,60,note_on,,0.0,70.0,0.0,9416,4.904166666666667
5297,6.0,,,,,,,75.0,,,,,,17,note_on,,0.0,75.0,0.0,9433,4.913020833333333
5298,9.0,,,,,,,36.0,,,,,,77,note_on,,0.0,36.0,0.0,57502,29.948958333333334
5299,9.0,,,,,,,35.0,,,,,,0,note_on,,0.0,35.0,0.0,57502,29.948958333333334
5300,3.0,,,,,,,75.0,,,,,,19,note_on,,0.0,75.0,0.0,35216,18.341666666666665
5301,9.0,,,,,,,70.0,,,,,,51,note_on,,0.0,70.0,0.0,57553,29.975520833333334
5302,3.0,,,,,,,82.0,,,,,,256,note_on,,127.0,82.0,127.0,35472,18.475
5303,9.0,,,,,,,42.0,,,,,,0,note_on,,85.0,42.0,85.0,57553,29.975520833333334
5304,9.0,,,,,,,70.0,,,,,,0,note_on,,40.0,70.0,40.0,57553,29.975520833333334
5305,9.0,,,,,,,39.0,,,,,,0,note_on,,127.0,39.0,127.0,57553,29.975520833333334
5306,9.0,,,,,,,28.0,,,,,,0,note_on,,127.0,28.0,127.0,57553,29.975520833333334
5307,11.0,,,,,,,67.0,,,,,,0,note_on,,127.0,67.0,127.0,18334,9.548958333333333
5308,11.0,,,,,,,72.0,,,,,,0,note_on,,127.0,72.0,127.0,18334,9.548958333333333
5309,11.0,,,,,,,63.0,,,,,,0,note_on,,127.0,63.0,127.0,18334,9.548958333333333
5310,,,,,,,,,,,,,done ,0,lyrics,,,,,9,0.0046875
5311,9.0,,,,,,,39.0,,,,,,123,note_on,,0.0,39.0,0.0,57676,30.039583333333333
5312,9.0,,,,,,,28.0,,,,,,2,note_on,,0.0,28.0,0.0,57678,30.040625
5313,9.0,,,,,,,70.0,,,,,,99,note_on,,0.0,70.0,0.0,57777,30.092187499999998
5314,9.0,,,,,,,42.0,,,,,,0,note_on,,0.0,42.0,0.0,57777,30.092187499999998
5315,3.0,,,,,,,82.0,,,,,,101,note_on,,0.0,82.0,0.0,35573,18.527604166666666
5316,11.0,,,,,,,63.0,,,,,,40,note_on,,0.0,63.0,0.0,18374,9.569791666666667
5317,11.0,,,,,,,72.0,,,,,,15,note_on,,0.0,72.0,0.0,18389,9.577604166666667
5318,11.0,,,,,,,67.0,,,,,,8,note_on,,0.0,67.0,0.0,18397,9.581770833333334
5319,3.0,,,,,,,79.0,,,,,,92,note_on,,127.0,79.0,127.0,35665,18.575520833333332
5320,9.0,,,,,,,70.0,,,,,,0,note_on,,40.0,70.0,40.0,57777,30.092187499999998
5321,10.0,,,,,,,67.0,,,,,,0,note_on,,127.0,67.0,127.0,9469,4.931770833333333
5322,10.0,,,,,,,72.0,,,,,,0,note_on,,127.0,72.0,127.0,9469,4.931770833333333
5323,10.0,,,,,,,63.0,,,,,,0,note_on,,127.0,63.0,127.0,9469,4.931770833333333
5324,11.0,,,,,,,67.0,,,,,,0,note_on,,127.0,67.0,127.0,18397,9.581770833333334
5325,11.0,,,,,,,70.0,,,,,,0,note_on,,118.0,70.0,118.0,18397,9.581770833333334
5326,11.0,,,,,,,63.0,,,,,,0,note_on,,127.0,63.0,127.0,18397,9.581770833333334
5327,,,,,,,,,,,,,what ,0,lyrics,,,,,9,0.0046875
5328,3.0,,,,,,,79.0,,,,,,214,note_on,,0.0,79.0,0.0,35879,18.686979166666667
5329,9.0,,,,,,,70.0,,,,,,10,note_on,,0.0,70.0,0.0,57787,30.097395833333334
5330,10.0,,,,,,,63.0,,,,,,141,note_on,,0.0,63.0,0.0,9610,5.005208333333333
5331,10.0,,,,,,,72.0,,,,,,15,note_on,,0.0,72.0,0.0,9625,5.013020833333333
5332,10.0,,,,,,,67.0,,,,,,8,note_on,,0.0,67.0,0.0,9633,5.0171875
5333,11.0,,,,,,,70.0,,,,,,38,note_on,,0.0,70.0,0.0,18435,9.6015625
5334,11.0,,,,,,,63.0,,,,,,0,note_on,,0.0,63.0,0.0,18435,9.6015625
5335,11.0,,,,,,,67.0,,,,,,3,note_on,,0.0,67.0,0.0,18438,9.603125
5336,3.0,,,,,,,77.0,,,,,,51,note_on,,127.0,77.0,127.0,35930,18.713541666666668
5337,9.0,,,,,,,42.0,,,,,,0,note_on,,85.0,42.0,85.0,57787,30.097395833333334
5338,9.0,,,,,,,70.0,,,,,,0,note_on,,40.0,70.0,40.0,57787,30.097395833333334
5339,9.0,,,,,,,36.0,,,,,,0,note_on,,126.0,36.0,126.0,57787,30.097395833333334
5340,9.0,,,,,,,35.0,,,,,,0,note_on,,60.0,35.0,60.0,57787,30.097395833333334
5341,10.0,,,,,,,67.0,,,,,,0,note_on,,127.0,67.0,127.0,9633,5.0171875
5342,10.0,,,,,,,70.0,,,,,,0,note_on,,118.0,70.0,118.0,9633,5.0171875
5343,10.0,,,,,,,63.0,,,,,,0,note_on,,127.0,63.0,127.0,9633,5.0171875
5344,12.0,,,,,,,67.0,,,,,,0,note_on,,127.0,67.0,127.0,14380,7.489583333333333
5345,12.0,,,,,,,72.0,,,,,,0,note_on,,127.0,72.0,127.0,14380,7.489583333333333
5346,12.0,,,,,,,63.0,,,,,,0,note_on,,127.0,63.0,127.0,14380,7.489583333333333
5347,,,,,,,,,,,,,e ,0,lyrics,,,,,9,0.0046875
5348,9.0,,,,,,,35.0,,,,,,172,note_on,,0.0,35.0,0.0,57959,30.186979166666667
5349,9.0,,,,,,,36.0,,,,,,0,note_on,,0.0,36.0,0.0,57959,30.186979166666667
5350,9.0,,,,,,,70.0,,,,,,52,note_on,,0.0,70.0,0.0,58011,30.2140625
5351,9.0,,,,,,,42.0,,,,,,0,note_on,,0.0,42.0,0.0,58011,30.2140625
5352,12.0,,,,,,,63.0,,,,,,141,note_on,,0.0,63.0,0.0,14521,7.563020833333333
5353,12.0,,,,,,,72.0,,,,,,15,note_on,,0.0,72.0,0.0,14536,7.570833333333333
5354,12.0,,,,,,,67.0,,,,,,8,note_on,,0.0,67.0,0.0,14544,7.575
5355,10.0,,,,,,,70.0,,,,,,38,note_on,,0.0,70.0,0.0,9671,5.036979166666667
5356,10.0,,,,,,,63.0,,,,,,0,note_on,,0.0,63.0,0.0,9671,5.036979166666667
5357,10.0,,,,,,,67.0,,,,,,3,note_on,,0.0,67.0,0.0,9674,5.038541666666666
5358,9.0,,,,,,,70.0,,,,,,51,note_on,,40.0,70.0,40.0,58062,30.240624999999998
5359,12.0,,,,,,,67.0,,,,,,0,note_on,,127.0,67.0,127.0,14544,7.575
5360,12.0,,,,,,,70.0,,,,,,0,note_on,,118.0,70.0,118.0,14544,7.575
5361,12.0,,,,,,,63.0,,,,,,0,note_on,,127.0,63.0,127.0,14544,7.575
5362,3.0,,,,,,,77.0,,,,,,105,note_on,,0.0,77.0,0.0,36035,18.768229166666668
5363,9.0,,,,,,,70.0,,,,,,119,note_on,,0.0,70.0,0.0,58181,30.302604166666665
5364,3.0,,,,,,,75.0,,,,,,16,note_on,,127.0,75.0,127.0,36051,18.7765625
5365,9.0,,,,,,,36.0,,,,,,0,note_on,,126.0,36.0,126.0,58181,30.302604166666665
5366,9.0,,,,,,,35.0,,,,,,0,note_on,,60.0,35.0,60.0,58181,30.302604166666665
5367,,,,,,,,,,,,,ver ,0,lyrics,,,,,9,0.0046875
5368,12.0,,,,,,,70.0,,,,,,186,note_on,,0.0,70.0,0.0,14730,7.671875
5369,12.0,,,,,,,63.0,,,,,,0,note_on,,0.0,63.0,0.0,14730,7.671875
5370,12.0,,,,,,,67.0,,,,,,3,note_on,,0.0,67.0,0.0,14733,7.6734374999999995
5371,9.0,,,,,,,35.0,,,,,,35,note_on,,0.0,35.0,0.0,58216,30.320833333333333
5372,9.0,,,,,,,36.0,,,,,,0,note_on,,0.0,36.0,0.0,58216,30.320833333333333
5373,9.0,,,,,,,42.0,,,,,,16,note_on,,85.0,42.0,85.0,58232,30.329166666666666
5374,9.0,,,,,,,70.0,,,,,,0,note_on,,40.0,70.0,40.0,58232,30.329166666666666
5375,9.0,,,,,,,39.0,,,,,,0,note_on,,125.0,39.0,125.0,58232,30.329166666666666
5376,9.0,,,,,,,28.0,,,,,,0,note_on,,127.0,28.0,127.0,58232,30.329166666666666
5377,9.0,,,,,,,28.0,,,,,,117,note_on,,0.0,28.0,0.0,58349,30.390104166666667
5378,9.0,,,,,,,39.0,,,,,,34,note_on,,0.0,39.0,0.0,58383,30.4078125
5379,9.0,,,,,,,70.0,,,,,,73,note_on,,0.0,70.0,0.0,58456,30.445833333333333
5380,9.0,,,,,,,42.0,,,,,,0,note_on,,0.0,42.0,0.0,58456,30.445833333333333
5381,6.0,,,,,,,70.0,,,,,,256,note_on,,127.0,70.0,127.0,9689,5.046354166666666
5382,6.0,,,,,,,75.0,,,,,,0,note_on,,127.0,75.0,127.0,9689,5.046354166666666
5383,6.0,,,,,,,67.0,,,,,,0,note_on,,127.0,67.0,127.0,9689,5.046354166666666
5384,9.0,,,,,,,46.0,,,,,,0,note_on,,100.0,46.0,100.0,58456,30.445833333333333
5385,9.0,,,,,,,70.0,,,,,,0,note_on,,40.0,70.0,40.0,58456,30.445833333333333
5386,9.0,,,,,,,36.0,,,,,,0,note_on,,126.0,36.0,126.0,58456,30.445833333333333
5387,9.0,,,,,,,35.0,,,,,,0,note_on,,60.0,35.0,60.0,58456,30.445833333333333
5388,9.0,,,,,,,35.0,,,,,,166,note_on,,0.0,35.0,0.0,58622,30.532291666666666
5389,9.0,,,,,,,36.0,,,,,,0,note_on,,0.0,36.0,0.0,58622,30.532291666666666
5390,9.0,,,,,,,46.0,,,,,,58,note_on,,0.0,46.0,0.0,58680,30.5625
5391,9.0,,,,,,,70.0,,,,,,0,note_on,,0.0,70.0,0.0,58680,30.5625
5392,3.0,,,,,,,75.0,,,,,,15,note_on,,0.0,75.0,0.0,36066,18.784375
5393,6.0,,,,,,,,,-464.0,,,,190,pitchwheel,,,,,9879,5.1453125
5394,6.0,,,,,,,,,-979.0,,,,8,pitchwheel,,,,,9887,5.149479166666667
5395,6.0,,,,,,,,,-1572.0,,,,13,pitchwheel,,,,,9900,5.15625
5396,6.0,,,,,,,,,-2010.0,,,,6,pitchwheel,,,,,9906,5.159375
5397,6.0,,,,,,,,,-2499.0,,,,6,pitchwheel,,,,,9912,5.1625
5398,6.0,,,,,,,,,-3221.0,,,,10,pitchwheel,,,,,9922,5.167708333333334
5399,9.0,,,,,,,46.0,,,,,,8,note_on,,100.0,46.0,100.0,58688,30.566666666666666
5400,9.0,,,,,,,70.0,,,,,,0,note_on,,40.0,70.0,40.0,58688,30.566666666666666
5401,6.0,,,,,,,,,-3556.0,,,,1,pitchwheel,,,,,9923,5.168229166666666
5402,6.0,,,,,,,,,-4148.0,,,,6,pitchwheel,,,,,9929,5.171354166666666
5403,6.0,,,,,,,,,-4637.0,,,,10,pitchwheel,,,,,9939,5.1765625
5404,6.0,,,,,,,,,-4998.0,,,,9,pitchwheel,,,,,9948,5.18125
5405,6.0,,,,,,,,,-5462.0,,,,8,pitchwheel,,,,,9956,5.185416666666667
5406,6.0,,,,,,,,,-5616.0,,,,10,pitchwheel,,,,,9966,5.190625
5407,6.0,,,,,,,,,-5848.0,,,,9,pitchwheel,,,,,9975,5.1953125
5408,6.0,,,,,,,,,-6003.0,,,,10,pitchwheel,,,,,9985,5.200520833333333
5409,6.0,,,,,,,,,-6132.0,,,,19,pitchwheel,,,,,10004,5.210416666666666
5410,6.0,,,,,,,,,-6209.0,,,,8,pitchwheel,,,,,10012,5.214583333333334
5411,6.0,,,,,,,,,-6286.0,,,,17,pitchwheel,,,,,10029,5.2234375
5412,6.0,,,,,,,,,-6054.0,,,,16,pitchwheel,,,,,10045,5.231770833333333
5413,6.0,,,,,,,,,-5926.0,,,,17,pitchwheel,,,,,10062,5.240625
5414,6.0,,,,,,,,,-5668.0,,,,8,pitchwheel,,,,,10070,5.244791666666667
5415,6.0,,,,,,,,,-5282.0,,,,9,pitchwheel,,,,,10079,5.249479166666666
5416,6.0,,,,,,,,,-4741.0,,,,8,pitchwheel,,,,,10087,5.253645833333334
5417,6.0,,,,,,,,,-4148.0,,,,10,pitchwheel,,,,,10097,5.258854166666667
5418,6.0,,,,,,,,,-3787.0,,,,7,pitchwheel,,,,,10104,5.2625
5419,6.0,,,,,,,,,-3298.0,,,,8,pitchwheel,,,,,10112,5.266666666666667
5420,6.0,,,,,,,,,-2577.0,,,,8,pitchwheel,,,,,10120,5.270833333333333
5421,6.0,,,,,,,,,-2113.0,,,,11,pitchwheel,,,,,10131,5.2765625
5422,6.0,,,,,,,,,-1495.0,,,,12,pitchwheel,,,,,10143,5.2828125
5423,9.0,,,,,,,70.0,,,,,,3,note_on,,0.0,70.0,0.0,58691,30.568229166666665
5424,9.0,,,,,,,46.0,,,,,,0,note_on,,0.0,46.0,0.0,58691,30.568229166666665
5425,6.0,,,,,,,,,-902.0,,,,1,pitchwheel,,,,,10144,5.283333333333333
5426,6.0,,,,,,,,,-361.0,,,,9,pitchwheel,,,,,10153,5.288020833333333
5427,6.0,,,,,,,,,0.0,,,,8,pitchwheel,,,,,10161,5.2921875
5428,3.0,,,,,,,75.0,,,,,,238,note_on,,127.0,75.0,127.0,36304,18.90833333333333
5429,9.0,,,,,,,70.0,,,,,,0,note_on,,40.0,70.0,40.0,58691,30.568229166666665
5430,9.0,,,,,,,36.0,,,,,,0,note_on,,126.0,36.0,126.0,58691,30.568229166666665
5431,9.0,,,,,,,35.0,,,,,,0,note_on,,60.0,35.0,60.0,58691,30.568229166666665
5432,,,,,,,,,,,,,And ,0,lyrics,,,,,9,0.0046875
5433,6.0,,,,,,,67.0,,,,,,36,note_on,,0.0,67.0,0.0,10197,5.3109375
5434,9.0,,,,,,,36.0,,,,,,118,note_on,,0.0,36.0,0.0,58809,30.6296875
5435,9.0,,,,,,,35.0,,,,,,0,note_on,,0.0,35.0,0.0,58809,30.6296875
5436,3.0,,,,,,,75.0,,,,,,1,note_on,,0.0,75.0,0.0,36305,18.908854166666668
5437,9.0,,,,,,,70.0,,,,,,69,note_on,,0.0,70.0,0.0,58878,30.665625
5438,6.0,,,,,,,75.0,,,,,,16,note_on,,0.0,75.0,0.0,10213,5.319270833333333
5439,6.0,,,,,,,70.0,,,,,,0,note_on,,0.0,70.0,0.0,10213,5.319270833333333
5440,3.0,,,,,,,75.0,,,,,,240,note_on,,127.0,75.0,127.0,36545,19.033854166666668
5441,9.0,,,,,,,42.0,,,,,,0,note_on,,85.0,42.0,85.0,58878,30.665625
5442,9.0,,,,,,,70.0,,,,,,0,note_on,,40.0,70.0,40.0,58878,30.665625
5443,9.0,,,,,,,39.0,,,,,,0,note_on,,127.0,39.0,127.0,58878,30.665625
5444,9.0,,,,,,,28.0,,,,,,0,note_on,,127.0,28.0,127.0,58878,30.665625
5445,,,,,,,,,,,,,I ,0,lyrics,,,,,9,0.0046875
5446,9.0,,,,,,,39.0,,,,,,123,note_on,,0.0,39.0,0.0,59001,30.7296875
5447,9.0,,,,,,,28.0,,,,,,2,note_on,,0.0,28.0,0.0,59003,30.730729166666666
5448,3.0,,,,,,,75.0,,,,,,34,note_on,,0.0,75.0,0.0,36579,19.0515625
5449,9.0,,,,,,,70.0,,,,,,65,note_on,,0.0,70.0,0.0,59068,30.764583333333334
5450,9.0,,,,,,,42.0,,,,,,0,note_on,,0.0,42.0,0.0,59068,30.764583333333334
5451,3.0,,,,,,,75.0,,,,,,256,note_on,,127.0,75.0,127.0,36835,19.184895833333332
5452,9.0,,,,,,,61.0,,,,,,0,note_on,,100.0,61.0,100.0,59068,30.764583333333334
5453,9.0,,,,,,,70.0,,,,,,0,note_on,,40.0,70.0,40.0,59068,30.764583333333334
5454,,,,,,,,,,,,,just ,0,lyrics,,,,,9,0.0046875
5455,9.0,,,,,,,61.0,,,,,,114,note_on,,0.0,61.0,0.0,59182,30.823958333333334
5456,9.0,,,,,,,61.0,,,,,,6,note_on,,100.0,61.0,100.0,59188,30.827083333333334
5457,3.0,,,,,,,75.0,,,,,,78,note_on,,0.0,75.0,0.0,36913,19.225520833333334
5458,9.0,,,,,,,70.0,,,,,,26,note_on,,0.0,70.0,0.0,59214,30.840625
5459,9.0,,,,,,,61.0,,,,,,10,note_on,,0.0,61.0,0.0,59224,30.84583333333333
5460,9.0,,,,,,,61.0,,,,,,6,note_on,,100.0,61.0,100.0,59230,30.848958333333332
5461,9.0,,,,,,,61.0,,,,,,114,note_on,,0.0,61.0,0.0,59344,30.90833333333333
5462,9.0,,,,,,,61.0,,,,,,6,note_on,,100.0,61.0,100.0,59350,30.911458333333332
5463,9.0,,,,,,,61.0,,,,,,114,note_on,,0.0,61.0,0.0,59464,30.97083333333333
5464,3.0,,,,,,,80.0,,,,,,6,note_on,,127.0,80.0,127.0,36919,19.22864583333333
5465,9.0,,,,,,,61.0,,,,,,0,note_on,,100.0,61.0,100.0,59464,30.97083333333333
5466,9.0,,,,,,,42.0,,,,,,0,note_on,,85.0,42.0,85.0,59464,30.97083333333333
5467,9.0,,,,,,,70.0,,,,,,0,note_on,,40.0,70.0,40.0,59464,30.97083333333333
5468,9.0,,,,,,,36.0,,,,,,0,note_on,,126.0,36.0,126.0,59464,30.97083333333333
5469,9.0,,,,,,,35.0,,,,,,0,note_on,,60.0,35.0,60.0,59464,30.97083333333333
5470,11.0,,,,,,,63.0,,,,,,0,note_on,,127.0,63.0,127.0,18438,9.603125
5471,11.0,,,,,,,60.0,,,,,,0,note_on,,127.0,60.0,127.0,18438,9.603125
5472,11.0,,,,,,,67.0,,,,,,0,note_on,,127.0,67.0,127.0,18438,9.603125
5473,,,,,,,,,,,,,ca ,0,lyrics,,,,,9,0.0046875
5474,9.0,,,,,,,61.0,,,,,,114,note_on,,0.0,61.0,0.0,59578,31.030208333333334
5475,9.0,,,,,,,36.0,,,,,,58,note_on,,0.0,36.0,0.0,59636,31.060416666666665
5476,9.0,,,,,,,35.0,,,,,,0,note_on,,0.0,35.0,0.0,59636,31.060416666666665
5477,9.0,,,,,,,70.0,,,,,,52,note_on,,0.0,70.0,0.0,59688,31.0875
5478,9.0,,,,,,,42.0,,,,,,0,note_on,,0.0,42.0,0.0,59688,31.0875
5479,11.0,,,,,,,60.0,,,,,,180,note_on,,0.0,60.0,0.0,18618,9.696875
5480,11.0,,,,,,,63.0,,,,,,32,note_on,,0.0,63.0,0.0,18650,9.713541666666666
5481,11.0,,,,,,,67.0,,,,,,6,note_on,,0.0,67.0,0.0,18656,9.716666666666667
5482,3.0,,,,,,,79.0,,,,,,38,note_on,,127.0,79.0,127.0,36957,19.2484375
5483,9.0,,,,,,,70.0,,,,,,0,note_on,,40.0,70.0,40.0,59688,31.0875
5484,10.0,,,,,,,63.0,,,,,,0,note_on,,127.0,63.0,127.0,9674,5.038541666666666
5485,10.0,,,,,,,60.0,,,,,,0,note_on,,127.0,60.0,127.0,9674,5.038541666666666
5486,10.0,,,,,,,67.0,,,,,,0,note_on,,127.0,67.0,127.0,9674,5.038541666666666
5487,,,,,,,,,,,,,n't ,0,lyrics,,,,,9,0.0046875
5488,3.0,,,,,,,80.0,,,,,,74,note_on,,0.0,80.0,0.0,37031,19.286979166666665
5489,3.0,,,,,,,79.0,,,,,,97,note_on,,0.0,79.0,0.0,37128,19.3375
5490,9.0,,,,,,,70.0,,,,,,53,note_on,,0.0,70.0,0.0,59741,31.115104166666665
5491,9.0,,,,,,,36.0,,,,,,16,note_on,,126.0,36.0,126.0,59757,31.123437499999998
5492,9.0,,,,,,,35.0,,,,,,0,note_on,,60.0,35.0,60.0,59757,31.123437499999998
5493,10.0,,,,,,,60.0,,,,,,164,note_on,,0.0,60.0,0.0,9838,5.123958333333333
5494,10.0,,,,,,,63.0,,,,,,32,note_on,,0.0,63.0,0.0,9870,5.140625
5495,10.0,,,,,,,67.0,,,,,,6,note_on,,0.0,67.0,0.0,9876,5.14375
5496,9.0,,,,,,,36.0,,,,,,22,note_on,,0.0,36.0,0.0,59779,31.13489583333333
5497,9.0,,,,,,,35.0,,,,,,0,note_on,,0.0,35.0,0.0,59779,31.13489583333333
5498,3.0,,,,,,,75.0,,,,,,16,note_on,,127.0,75.0,127.0,37144,19.34583333333333
5499,9.0,,,,,,,42.0,,,,,,0,note_on,,85.0,42.0,85.0,59779,31.13489583333333
5500,9.0,,,,,,,70.0,,,,,,0,note_on,,40.0,70.0,40.0,59779,31.13489583333333
5501,9.0,,,,,,,39.0,,,,,,0,note_on,,125.0,39.0,125.0,59779,31.13489583333333
5502,9.0,,,,,,,28.0,,,,,,0,note_on,,127.0,28.0,127.0,59779,31.13489583333333
5503,12.0,,,,,,,63.0,,,,,,0,note_on,,127.0,63.0,127.0,14733,7.6734374999999995
5504,12.0,,,,,,,60.0,,,,,,0,note_on,,127.0,60.0,127.0,14733,7.6734374999999995
5505,12.0,,,,,,,67.0,,,,,,0,note_on,,127.0,67.0,127.0,14733,7.6734374999999995
5506,,,,,,,,,,,,,be ,0,lyrics,,,,,9,0.0046875
5507,9.0,,,,,,,28.0,,,,,,117,note_on,,0.0,28.0,0.0,59896,31.195833333333333
5508,9.0,,,,,,,39.0,,,,,,34,note_on,,0.0,39.0,0.0,59930,31.213541666666668
5509,3.0,,,,,,,75.0,,,,,,40,note_on,,0.0,75.0,0.0,37184,19.366666666666667
5510,9.0,,,,,,,42.0,,,,,,33,note_on,,0.0,42.0,0.0,59963,31.230729166666666
5511,9.0,,,,,,,70.0,,,,,,0,note_on,,0.0,70.0,0.0,59963,31.230729166666666
5512,12.0,,,,,,,60.0,,,,,,180,note_on,,0.0,60.0,0.0,14913,7.7671874999999995
5513,12.0,,,,,,,63.0,,,,,,32,note_on,,0.0,63.0,0.0,14945,7.783854166666667
5514,12.0,,,,,,,67.0,,,,,,6,note_on,,0.0,67.0,0.0,14951,7.786979166666667
5515,3.0,,,,,,,80.0,,,,,,38,note_on,,127.0,80.0,127.0,37222,19.386458333333334
5516,9.0,,,,,,,70.0,,,,,,0,note_on,,40.0,70.0,40.0,59963,31.230729166666666
5517,9.0,,,,,,,36.0,,,,,,0,note_on,,126.0,36.0,126.0,59963,31.230729166666666
5518,9.0,,,,,,,35.0,,,,,,0,note_on,,60.0,35.0,60.0,59963,31.230729166666666
5519,,,,,,,,,,,,,lie ,0,lyrics,,,,,9,0.0046875
5520,9.0,,,,,,,35.0,,,,,,166,note_on,,0.0,35.0,0.0,60129,31.3171875
5521,9.0,,,,,,,36.0,,,,,,0,note_on,,0.0,36.0,0.0,60129,31.3171875
5522,9.0,,,,,,,70.0,,,,,,58,note_on,,0.0,70.0,0.0,60187,31.347395833333334
5523,3.0,,,,,,,79.0,,,,,,256,note_on,,127.0,79.0,127.0,37478,19.519791666666666
5524,6.0,,,,,,,67.0,,,,,,0,note_on,,127.0,67.0,127.0,10213,5.319270833333333
5525,6.0,,,,,,,72.0,,,,,,0,note_on,,127.0,72.0,127.0,10213,5.319270833333333
5526,6.0,,,,,,,75.0,,,,,,0,note_on,,127.0,75.0,127.0,10213,5.319270833333333
5527,9.0,,,,,,,42.0,,,,,,0,note_on,,85.0,42.0,85.0,60187,31.347395833333334
5528,9.0,,,,,,,70.0,,,,,,0,note_on,,40.0,70.0,40.0,60187,31.347395833333334
5529,,,,,,,,,,,,,"ve, ",0,lyrics,,,,,9,0.0046875
5530,3.0,,,,,,,80.0,,,,,,58,note_on,,0.0,80.0,0.0,37536,19.55
5531,3.0,,,,,,,79.0,,,,,,102,note_on,,0.0,79.0,0.0,37638,19.603125
5532,9.0,,,,,,,42.0,,,,,,64,note_on,,0.0,42.0,0.0,60251,31.380729166666665
5533,9.0,,,,,,,70.0,,,,,,0,note_on,,0.0,70.0,0.0,60251,31.380729166666665
5534,3.0,,,,,,,79.0,,,,,,256,note_on,,127.0,79.0,127.0,37894,19.73645833333333
5535,9.0,,,,,,,70.0,,,,,,0,note_on,,40.0,70.0,40.0,60251,31.380729166666665
5536,9.0,,,,,,,36.0,,,,,,0,note_on,,126.0,36.0,126.0,60251,31.380729166666665
5537,9.0,,,,,,,35.0,,,,,,0,note_on,,60.0,35.0,60.0,60251,31.380729166666665
5538,,,,,,,,,,,,,we ,0,lyrics,,,,,9,0.0046875
5539,6.0,,,,,,,67.0,,,,,,4,note_on,,0.0,67.0,0.0,10217,5.321354166666667
5540,6.0,,,,,,,72.0,,,,,,35,note_on,,0.0,72.0,0.0,10252,5.339583333333334
5541,6.0,,,,,,,75.0,,,,,,4,note_on,,0.0,75.0,0.0,10256,5.341666666666667
5542,9.0,,,,,,,35.0,,,,,,111,note_on,,0.0,35.0,0.0,60362,31.438541666666666
5543,9.0,,,,,,,36.0,,,,,,0,note_on,,0.0,36.0,0.0,60362,31.438541666666666
5544,3.0,,,,,,,79.0,,,,,,19,note_on,,0.0,79.0,0.0,37913,19.746354166666666
5545,9.0,,,,,,,70.0,,,,,,51,note_on,,0.0,70.0,0.0,60413,31.465104166666666
5546,3.0,,,,,,,77.0,,,,,,256,note_on,,127.0,77.0,127.0,38169,19.8796875
5547,9.0,,,,,,,42.0,,,,,,0,note_on,,85.0,42.0,85.0,60413,31.465104166666666
5548,9.0,,,,,,,70.0,,,,,,0,note_on,,40.0,70.0,40.0,60413,31.465104166666666
5549,9.0,,,,,,,39.0,,,,,,0,note_on,,127.0,39.0,127.0,60413,31.465104166666666
5550,9.0,,,,,,,28.0,,,,,,0,note_on,,127.0,28.0,127.0,60413,31.465104166666666
5551,11.0,,,,,,,68.0,,,,,,0,note_on,,127.0,68.0,127.0,18656,9.716666666666667
5552,11.0,,,,,,,60.0,,,,,,0,note_on,,127.0,60.0,127.0,18656,9.716666666666667
5553,11.0,,,,,,,63.0,,,,,,0,note_on,,127.0,63.0,127.0,18656,9.716666666666667
5554,,,,,,,,,,,,,ain't ,0,lyrics,,,,,9,0.0046875
5555,9.0,,,,,,,39.0,,,,,,123,note_on,,0.0,39.0,0.0,60536,31.529166666666665
5556,9.0,,,,,,,28.0,,,,,,2,note_on,,0.0,28.0,0.0,60538,31.530208333333334
5557,3.0,,,,,,,77.0,,,,,,34,note_on,,0.0,77.0,0.0,38203,19.897395833333334
5558,9.0,,,,,,,42.0,,,,,,65,note_on,,0.0,42.0,0.0,60603,31.5640625
5559,9.0,,,,,,,70.0,,,,,,0,note_on,,0.0,70.0,0.0,60603,31.5640625
5560,11.0,,,,,,,68.0,,,,,,161,note_on,,0.0,68.0,0.0,18817,9.800520833333334
5561,11.0,,,,,,,60.0,,,,,,4,note_on,,0.0,60.0,0.0,18821,9.802604166666667
5562,11.0,,,,,,,63.0,,,,,,19,note_on,,0.0,63.0,0.0,18840,9.8125
5563,3.0,,,,,,,75.0,,,,,,72,note_on,,127.0,75.0,127.0,38275,19.934895833333332
5564,9.0,,,,,,,70.0,,,,,,0,note_on,,40.0,70.0,40.0,60603,31.5640625
5565,10.0,,,,,,,68.0,,,,,,0,note_on,,127.0,68.0,127.0,9876,5.14375
5566,10.0,,,,,,,60.0,,,,,,0,note_on,,127.0,60.0,127.0,9876,5.14375
5567,10.0,,,,,,,63.0,,,,,,0,note_on,,127.0,63.0,127.0,9876,5.14375
5568,11.0,,,,,,,63.0,,,,,,0,note_on,,127.0,63.0,127.0,18840,9.8125
5569,11.0,,,,,,,60.0,,,,,,0,note_on,,127.0,60.0,127.0,18840,9.8125
5570,11.0,,,,,,,67.0,,,,,,0,note_on,,127.0,67.0,127.0,18840,9.8125
5571,,,,,,,,,,,,,to ,0,lyrics,,,,,9,0.0046875
5572,3.0,,,,,,,75.0,,,,,,178,note_on,,0.0,75.0,0.0,38453,20.027604166666666
5573,9.0,,,,,,,70.0,,,,,,46,note_on,,0.0,70.0,0.0,60649,31.58802083333333
5574,11.0,,,,,,,60.0,,,,,,147,note_on,,0.0,60.0,0.0,18987,9.8890625
5575,11.0,,,,,,,67.0,,,,,,11,note_on,,0.0,67.0,0.0,18998,9.894791666666666
5576,10.0,,,,,,,68.0,,,,,,3,note_on,,0.0,68.0,0.0,9879,5.1453125
5577,10.0,,,,,,,60.0,,,,,,4,note_on,,0.0,60.0,0.0,9883,5.147395833333333
5578,10.0,,,,,,,63.0,,,,,,19,note_on,,0.0,63.0,0.0,9902,5.157291666666667
5579,11.0,,,,,,,63.0,,,,,,18,note_on,,0.0,63.0,0.0,19016,9.904166666666667
5580,3.0,,,,,,,77.0,,,,,,54,note_on,,127.0,77.0,127.0,38507,20.055729166666666
5581,9.0,,,,,,,42.0,,,,,,0,note_on,,85.0,42.0,85.0,60649,31.58802083333333
5582,9.0,,,,,,,70.0,,,,,,0,note_on,,40.0,70.0,40.0,60649,31.58802083333333
5583,9.0,,,,,,,36.0,,,,,,0,note_on,,126.0,36.0,126.0,60649,31.58802083333333
5584,9.0,,,,,,,35.0,,,,,,0,note_on,,60.0,35.0,60.0,60649,31.58802083333333
5585,10.0,,,,,,,63.0,,,,,,0,note_on,,127.0,63.0,127.0,9902,5.157291666666667
5586,10.0,,,,,,,60.0,,,,,,0,note_on,,127.0,60.0,127.0,9902,5.157291666666667
5587,10.0,,,,,,,67.0,,,,,,0,note_on,,127.0,67.0,127.0,9902,5.157291666666667
5588,12.0,,,,,,,68.0,,,,,,0,note_on,,127.0,68.0,127.0,14951,7.786979166666667
5589,12.0,,,,,,,60.0,,,,,,0,note_on,,127.0,60.0,127.0,14951,7.786979166666667
5590,12.0,,,,,,,63.0,,,,,,0,note_on,,127.0,63.0,127.0,14951,7.786979166666667
5591,,,,,,,,,,,,,ge ,0,lyrics,,,,,9,0.0046875
5592,9.0,,,,,,,35.0,,,,,,172,note_on,,0.0,35.0,0.0,60821,31.677604166666665
5593,9.0,,,,,,,36.0,,,,,,0,note_on,,0.0,36.0,0.0,60821,31.677604166666665
5594,9.0,,,,,,,70.0,,,,,,52,note_on,,0.0,70.0,0.0,60873,31.7046875
5595,9.0,,,,,,,42.0,,,,,,0,note_on,,0.0,42.0,0.0,60873,31.7046875
5596,10.0,,,,,,,60.0,,,,,,147,note_on,,0.0,60.0,0.0,10049,5.233854166666666
5597,10.0,,,,,,,67.0,,,,,,11,note_on,,0.0,67.0,0.0,10060,5.239583333333333
5598,12.0,,,,,,,68.0,,,,,,3,note_on,,0.0,68.0,0.0,14954,7.788541666666666
5599,12.0,,,,,,,60.0,,,,,,4,note_on,,0.0,60.0,0.0,14958,7.7906249999999995
5600,12.0,,,,,,,63.0,,,,,,19,note_on,,0.0,63.0,0.0,14977,7.800520833333334
5601,10.0,,,,,,,63.0,,,,,,18,note_on,,0.0,63.0,0.0,10078,5.248958333333333
5602,9.0,,,,,,,70.0,,,,,,54,note_on,,40.0,70.0,40.0,60927,31.732812499999998
5603,12.0,,,,,,,63.0,,,,,,0,note_on,,127.0,63.0,127.0,14977,7.800520833333334
5604,12.0,,,,,,,60.0,,,,,,0,note_on,,127.0,60.0,127.0,14977,7.800520833333334
5605,12.0,,,,,,,67.0,,,,,,0,note_on,,127.0,67.0,127.0,14977,7.800520833333334
5606,3.0,,,,,,,77.0,,,,,,49,note_on,,0.0,77.0,0.0,38556,20.08125
5607,9.0,,,,,,,70.0,,,,,,175,note_on,,0.0,70.0,0.0,61102,31.823958333333334
5608,3.0,,,,,,,75.0,,,,,,16,note_on,,127.0,75.0,127.0,38572,20.089583333333334
5609,9.0,,,,,,,36.0,,,,,,0,note_on,,126.0,36.0,126.0,61102,31.823958333333334
5610,9.0,,,,,,,35.0,,,,,,0,note_on,,60.0,35.0,60.0,61102,31.823958333333334
5611,,,,,,,,,,,,,ther ,0,lyrics,,,,,9,0.0046875
5612,12.0,,,,,,,60.0,,,,,,131,note_on,,0.0,60.0,0.0,15108,7.8687499999999995
5613,12.0,,,,,,,67.0,,,,,,11,note_on,,0.0,67.0,0.0,15119,7.874479166666666
5614,12.0,,,,,,,63.0,,,,,,44,note_on,,0.0,63.0,0.0,15163,7.897395833333333
5615,9.0,,,,,,,35.0,,,,,,38,note_on,,0.0,35.0,0.0,61140,31.84375
5616,9.0,,,,,,,36.0,,,,,,0,note_on,,0.0,36.0,0.0,61140,31.84375
5617,9.0,,,,,,,42.0,,,,,,16,note_on,,85.0,42.0,85.0,61156,31.852083333333333
5618,9.0,,,,,,,70.0,,,,,,0,note_on,,40.0,70.0,40.0,61156,31.852083333333333
5619,9.0,,,,,,,39.0,,,,,,0,note_on,,125.0,39.0,125.0,61156,31.852083333333333
5620,9.0,,,,,,,28.0,,,,,,0,note_on,,127.0,28.0,127.0,61156,31.852083333333333
5621,9.0,,,,,,,28.0,,,,,,117,note_on,,0.0,28.0,0.0,61273,31.913020833333334
5622,9.0,,,,,,,39.0,,,,,,34,note_on,,0.0,39.0,0.0,61307,31.930729166666666
5623,9.0,,,,,,,70.0,,,,,,73,note_on,,0.0,70.0,0.0,61380,31.96875
5624,9.0,,,,,,,42.0,,,,,,0,note_on,,0.0,42.0,0.0,61380,31.96875
5625,6.0,,,,,,,67.0,,,,,,256,note_on,,127.0,67.0,127.0,10512,5.475
5626,6.0,,,,,,,72.0,,,,,,0,note_on,,127.0,72.0,127.0,10512,5.475
5627,6.0,,,,,,,75.0,,,,,,0,note_on,,127.0,75.0,127.0,10512,5.475
5628,9.0,,,,,,,46.0,,,,,,0,note_on,,100.0,46.0,100.0,61380,31.96875
5629,9.0,,,,,,,70.0,,,,,,0,note_on,,40.0,70.0,40.0,61380,31.96875
5630,9.0,,,,,,,36.0,,,,,,0,note_on,,126.0,36.0,126.0,61380,31.96875
5631,9.0,,,,,,,35.0,,,,,,0,note_on,,60.0,35.0,60.0,61380,31.96875
5632,9.0,,,,,,,35.0,,,,,,166,note_on,,0.0,35.0,0.0,61546,32.05520833333333
5633,9.0,,,,,,,36.0,,,,,,0,note_on,,0.0,36.0,0.0,61546,32.05520833333333
5634,3.0,,,,,,,75.0,,,,,,36,note_on,,0.0,75.0,0.0,38608,20.108333333333334
5635,9.0,,,,,,,46.0,,,,,,22,note_on,,0.0,46.0,0.0,61568,32.06666666666666
5636,9.0,,,,,,,70.0,,,,,,0,note_on,,0.0,70.0,0.0,61568,32.06666666666666
5637,6.0,,,,,,,,,-387.0,,,,250,pitchwheel,,,,,10762,5.605208333333334
5638,9.0,,,,,,,46.0,,,,,,6,note_on,,100.0,46.0,100.0,61574,32.06979166666667
5639,9.0,,,,,,,70.0,,,,,,0,note_on,,40.0,70.0,40.0,61574,32.06979166666667
5640,6.0,,,,,,,,,-1031.0,,,,4,pitchwheel,,,,,10766,5.607291666666667
5641,6.0,,,,,,,,,-1572.0,,,,8,pitchwheel,,,,,10774,5.611458333333333
5642,6.0,,,,,,,,,-2087.0,,,,9,pitchwheel,,,,,10783,5.616145833333333
5643,6.0,,,,,,,,,-2525.0,,,,10,pitchwheel,,,,,10793,5.621354166666666
5644,6.0,,,,,,,,,-3169.0,,,,6,pitchwheel,,,,,10799,5.624479166666666
5645,6.0,,,,,,,,,-3581.0,,,,9,pitchwheel,,,,,10808,5.629166666666666
5646,6.0,,,,,,,,,-4148.0,,,,8,pitchwheel,,,,,10816,5.633333333333333
5647,6.0,,,,,,,,,-4715.0,,,,10,pitchwheel,,,,,10826,5.638541666666667
5648,6.0,,,,,,,,,-5307.0,,,,9,pitchwheel,,,,,10835,5.643229166666667
5649,6.0,,,,,,,,,-5591.0,,,,8,pitchwheel,,,,,10843,5.647395833333333
5650,6.0,,,,,,,,,-5874.0,,,,8,pitchwheel,,,,,10851,5.6515625
5651,6.0,,,,,,,,,-6235.0,,,,9,pitchwheel,,,,,10860,5.65625
5652,6.0,,,,,,,,,-6776.0,,,,10,pitchwheel,,,,,10870,5.661458333333333
5653,6.0,,,,,,,,,-6956.0,,,,8,pitchwheel,,,,,10878,5.665625
5654,6.0,,,,,,,,,-7188.0,,,,9,pitchwheel,,,,,10887,5.6703125
5655,6.0,,,,,,,,,-7652.0,,,,8,pitchwheel,,,,,10895,5.674479166666667
5656,6.0,,,,,,,,,-7780.0,,,,17,pitchwheel,,,,,10912,5.683333333333334
5657,6.0,,,,,,,,,-7883.0,,,,8,pitchwheel,,,,,10920,5.6875
5658,6.0,,,,,,,,,-7935.0,,,,10,pitchwheel,,,,,10930,5.692708333333333
5659,6.0,,,,,,,,,-8012.0,,,,9,pitchwheel,,,,,10939,5.697395833333333
5660,6.0,,,,,,,,,-7780.0,,,,10,pitchwheel,,,,,10949,5.702604166666666
5661,6.0,,,,,,,,,-7626.0,,,,8,pitchwheel,,,,,10957,5.706770833333334
5662,6.0,,,,,,,,,-7317.0,,,,9,pitchwheel,,,,,10966,5.711458333333333
5663,6.0,,,,,,,,,-7111.0,,,,10,pitchwheel,,,,,10976,5.716666666666667
5664,6.0,,,,,,,,,-6776.0,,,,8,pitchwheel,,,,,10984,5.720833333333333
5665,9.0,,,,,,,70.0,,,,,,2,note_on,,0.0,70.0,0.0,61576,32.07083333333333
5666,9.0,,,,,,,46.0,,,,,,0,note_on,,0.0,46.0,0.0,61576,32.07083333333333
5667,6.0,,,,,,,,,-6003.0,,,,7,pitchwheel,,,,,10991,5.724479166666667
5668,6.0,,,,,,,,,-5410.0,,,,8,pitchwheel,,,,,10999,5.728645833333333
5669,6.0,,,,,,,,,-4766.0,,,,8,pitchwheel,,,,,11007,5.7328125
5670,6.0,,,,,,,,,-4071.0,,,,9,pitchwheel,,,,,11016,5.7375
5671,6.0,,,,,,,,,-3452.0,,,,8,pitchwheel,,,,,11024,5.741666666666666
5672,6.0,,,,,,,,,-2808.0,,,,8,pitchwheel,,,,,11032,5.745833333333334
5673,6.0,,,,,,,,,-1933.0,,,,13,pitchwheel,,,,,11045,5.752604166666667
5674,6.0,,,,,,,,,-1392.0,,,,8,pitchwheel,,,,,11053,5.756770833333333
5675,6.0,,,,,,,,,-670.0,,,,9,pitchwheel,,,,,11062,5.761458333333334
5676,6.0,,,,,,,,,0.0,,,,8,pitchwheel,,,,,11070,5.765625
5677,3.0,,,,,,,75.0,,,,,,170,note_on,,127.0,75.0,127.0,38778,20.196875
5678,9.0,,,,,,,70.0,,,,,,0,note_on,,40.0,70.0,40.0,61576,32.07083333333333
5679,9.0,,,,,,,36.0,,,,,,0,note_on,,126.0,36.0,126.0,61576,32.07083333333333
5680,9.0,,,,,,,35.0,,,,,,0,note_on,,60.0,35.0,60.0,61576,32.07083333333333
5681,,,,,,,,,,,,,And ,0,lyrics,,,,,9,0.0046875
5682,3.0,,,,,,,75.0,,,,,,140,note_on,,0.0,75.0,0.0,38918,20.269791666666666
5683,9.0,,,,,,,36.0,,,,,,14,note_on,,0.0,36.0,0.0,61590,32.078125
5684,9.0,,,,,,,35.0,,,,,,0,note_on,,0.0,35.0,0.0,61590,32.078125
5685,9.0,,,,,,,70.0,,,,,,70,note_on,,0.0,70.0,0.0,61660,32.114583333333336
5686,6.0,,,,,,,72.0,,,,,,16,note_on,,0.0,72.0,0.0,11086,5.773958333333333
5687,6.0,,,,,,,75.0,,,,,,0,note_on,,0.0,75.0,0.0,11086,5.773958333333333
5688,3.0,,,,,,,75.0,,,,,,0,note_on,,127.0,75.0,127.0,38918,20.269791666666666
5689,,,,,,,,,,,,,I ,0,lyrics,,,,,9,0.0046875
5690,6.0,,,,,,,67.0,,,,,,12,note_on,,0.0,67.0,0.0,11098,5.780208333333333
5691,3.0,,,,,,,75.0,,,,,,149,note_on,,0.0,75.0,0.0,39067,20.347395833333334
5692,3.0,,,,,,,75.0,,,,,,79,note_on,,127.0,75.0,127.0,39146,20.388541666666665
5693,9.0,,,,,,,42.0,,,,,,0,note_on,,85.0,42.0,85.0,61660,32.114583333333336
5694,9.0,,,,,,,70.0,,,,,,0,note_on,,40.0,70.0,40.0,61660,32.114583333333336
5695,9.0,,,,,,,39.0,,,,,,0,note_on,,127.0,39.0,127.0,61660,32.114583333333336
5696,9.0,,,,,,,28.0,,,,,,0,note_on,,127.0,28.0,127.0,61660,32.114583333333336
5697,,,,,,,,,,,,,wanna ,0,lyrics,,,,,9,0.0046875
5698,9.0,,,,,,,39.0,,,,,,123,note_on,,0.0,39.0,0.0,61783,32.178645833333334
5699,9.0,,,,,,,28.0,,,,,,2,note_on,,0.0,28.0,0.0,61785,32.1796875
5700,3.0,,,,,,,75.0,,,,,,48,note_on,,0.0,75.0,0.0,39194,20.413541666666667
5701,9.0,,,,,,,70.0,,,,,,51,note_on,,0.0,70.0,0.0,61836,32.20625
5702,9.0,,,,,,,42.0,,,,,,0,note_on,,0.0,42.0,0.0,61836,32.20625
5703,3.0,,,,,,,75.0,,,,,,256,note_on,,127.0,75.0,127.0,39450,20.546875
5704,9.0,,,,,,,61.0,,,,,,0,note_on,,100.0,61.0,100.0,61836,32.20625
5705,9.0,,,,,,,70.0,,,,,,0,note_on,,40.0,70.0,40.0,61836,32.20625
5706,,,,,,,,,,,,,play ,0,lyrics,,,,,9,0.0046875
5707,9.0,,,,,,,61.0,,,,,,114,note_on,,0.0,61.0,0.0,61950,32.265625
5708,9.0,,,,,,,61.0,,,,,,6,note_on,,100.0,61.0,100.0,61956,32.26875
5709,3.0,,,,,,,75.0,,,,,,50,note_on,,0.0,75.0,0.0,39500,20.572916666666668
5710,9.0,,,,,,,70.0,,,,,,54,note_on,,0.0,70.0,0.0,62010,32.296875
5711,9.0,,,,,,,61.0,,,,,,10,note_on,,0.0,61.0,0.0,62020,32.302083333333336
5712,9.0,,,,,,,61.0,,,,,,6,note_on,,100.0,61.0,100.0,62026,32.30520833333333
5713,9.0,,,,,,,61.0,,,,,,114,note_on,,0.0,61.0,0.0,62140,32.364583333333336
5714,9.0,,,,,,,61.0,,,,,,6,note_on,,100.0,61.0,100.0,62146,32.36770833333333
5715,9.0,,,,,,,61.0,,,,,,114,note_on,,0.0,61.0,0.0,62260,32.427083333333336
5716,3.0,,,,,,,79.0,,,,,,6,note_on,,127.0,79.0,127.0,39506,20.576041666666665
5717,9.0,,,,,,,61.0,,,,,,0,note_on,,100.0,61.0,100.0,62260,32.427083333333336
5718,9.0,,,,,,,42.0,,,,,,0,note_on,,85.0,42.0,85.0,62260,32.427083333333336
5719,9.0,,,,,,,70.0,,,,,,0,note_on,,40.0,70.0,40.0,62260,32.427083333333336
5720,9.0,,,,,,,36.0,,,,,,0,note_on,,126.0,36.0,126.0,62260,32.427083333333336
5721,9.0,,,,,,,35.0,,,,,,0,note_on,,60.0,35.0,60.0,62260,32.427083333333336
5722,11.0,,,,,,,60.0,,,,,,0,note_on,,127.0,60.0,127.0,19016,9.904166666666667
5723,11.0,,,,,,,56.0,,,,,,0,note_on,,127.0,56.0,127.0,19016,9.904166666666667
5724,11.0,,,,,,,63.0,,,,,,0,note_on,,127.0,63.0,127.0,19016,9.904166666666667
5725,,,,,,,,,,,,,it ,0,lyrics,,,,,9,0.0046875
5726,9.0,,,,,,,61.0,,,,,,114,note_on,,0.0,61.0,0.0,62374,32.48645833333333
5727,9.0,,,,,,,36.0,,,,,,58,note_on,,0.0,36.0,0.0,62432,32.516666666666666
5728,9.0,,,,,,,35.0,,,,,,0,note_on,,0.0,35.0,0.0,62432,32.516666666666666
5729,9.0,,,,,,,70.0,,,,,,52,note_on,,0.0,70.0,0.0,62484,32.54375
5730,9.0,,,,,,,42.0,,,,,,0,note_on,,0.0,42.0,0.0,62484,32.54375
5731,11.0,,,,,,,56.0,,,,,,207,note_on,,0.0,56.0,0.0,19223,10.011979166666666
5732,11.0,,,,,,,60.0,,,,,,25,note_on,,0.0,60.0,0.0,19248,10.025
5733,9.0,,,,,,,70.0,,,,,,24,note_on,,40.0,70.0,40.0,62508,32.55625
5734,10.0,,,,,,,60.0,,,,,,0,note_on,,127.0,60.0,127.0,10078,5.248958333333333
5735,10.0,,,,,,,56.0,,,,,,0,note_on,,127.0,56.0,127.0,10078,5.248958333333333
5736,10.0,,,,,,,63.0,,,,,,0,note_on,,127.0,63.0,127.0,10078,5.248958333333333
5737,11.0,,,,,,,63.0,,,,,,9,note_on,,0.0,63.0,0.0,19257,10.0296875
5738,9.0,,,,,,,70.0,,,,,,215,note_on,,0.0,70.0,0.0,62723,32.66822916666666
5739,3.0,,,,,,,79.0,,,,,,11,note_on,,0.0,79.0,0.0,39517,20.581770833333334
5740,9.0,,,,,,,36.0,,,,,,5,note_on,,126.0,36.0,126.0,62728,32.670833333333334
5741,9.0,,,,,,,35.0,,,,,,0,note_on,,60.0,35.0,60.0,62728,32.670833333333334
5742,10.0,,,,,,,56.0,,,,,,191,note_on,,0.0,56.0,0.0,10269,5.3484375
5743,10.0,,,,,,,60.0,,,,,,25,note_on,,0.0,60.0,0.0,10294,5.361458333333333
5744,9.0,,,,,,,36.0,,,,,,8,note_on,,0.0,36.0,0.0,62736,32.675
5745,9.0,,,,,,,35.0,,,,,,0,note_on,,0.0,35.0,0.0,62736,32.675
5746,3.0,,,,,,,79.0,,,,,,16,note_on,,127.0,79.0,127.0,39533,20.590104166666666
5747,9.0,,,,,,,42.0,,,,,,0,note_on,,85.0,42.0,85.0,62736,32.675
5748,9.0,,,,,,,70.0,,,,,,0,note_on,,40.0,70.0,40.0,62736,32.675
5749,9.0,,,,,,,39.0,,,,,,0,note_on,,125.0,39.0,125.0,62736,32.675
5750,9.0,,,,,,,28.0,,,,,,0,note_on,,127.0,28.0,127.0,62736,32.675
5751,12.0,,,,,,,60.0,,,,,,0,note_on,,127.0,60.0,127.0,15163,7.897395833333333
5752,12.0,,,,,,,56.0,,,,,,0,note_on,,127.0,56.0,127.0,15163,7.897395833333333
5753,12.0,,,,,,,63.0,,,,,,0,note_on,,127.0,63.0,127.0,15163,7.897395833333333
5754,,,,,,,,,,,,,"cool, ",0,lyrics,,,,,9,0.0046875
5755,10.0,,,,,,,63.0,,,,,,9,note_on,,0.0,63.0,0.0,10303,5.366145833333333
5756,9.0,,,,,,,28.0,,,,,,108,note_on,,0.0,28.0,0.0,62844,32.73125
5757,9.0,,,,,,,39.0,,,,,,34,note_on,,0.0,39.0,0.0,62878,32.748958333333334
5758,9.0,,,,,,,70.0,,,,,,73,note_on,,0.0,70.0,0.0,62951,32.78697916666667
5759,9.0,,,,,,,42.0,,,,,,0,note_on,,0.0,42.0,0.0,62951,32.78697916666667
5760,12.0,,,,,,,56.0,,,,,,207,note_on,,0.0,56.0,0.0,15370,8.005208333333334
5761,12.0,,,,,,,60.0,,,,,,25,note_on,,0.0,60.0,0.0,15395,8.018229166666666
5762,9.0,,,,,,,70.0,,,,,,24,note_on,,40.0,70.0,40.0,62975,32.799479166666664
5763,9.0,,,,,,,36.0,,,,,,0,note_on,,126.0,36.0,126.0,62975,32.799479166666664
5764,9.0,,,,,,,35.0,,,,,,0,note_on,,60.0,35.0,60.0,62975,32.799479166666664
5765,12.0,,,,,,,63.0,,,,,,9,note_on,,0.0,63.0,0.0,15404,8.022916666666667
5766,9.0,,,,,,,36.0,,,,,,157,note_on,,0.0,36.0,0.0,63132,32.88125
5767,9.0,,,,,,,35.0,,,,,,0,note_on,,0.0,35.0,0.0,63132,32.88125
5768,3.0,,,,,,,79.0,,,,,,33,note_on,,0.0,79.0,0.0,39566,20.607291666666665
5769,9.0,,,,,,,70.0,,,,,,25,note_on,,0.0,70.0,0.0,63157,32.89427083333333
5770,6.0,,,,,,,68.0,,,,,,256,note_on,,127.0,68.0,127.0,11354,5.913541666666666
5771,6.0,,,,,,,72.0,,,,,,0,note_on,,127.0,72.0,127.0,11354,5.913541666666666
5772,6.0,,,,,,,75.0,,,,,,0,note_on,,127.0,75.0,127.0,11354,5.913541666666666
5773,9.0,,,,,,,42.0,,,,,,0,note_on,,85.0,42.0,85.0,63157,32.89427083333333
5774,9.0,,,,,,,70.0,,,,,,0,note_on,,40.0,70.0,40.0,63157,32.89427083333333
5775,9.0,,,,,,,70.0,,,,,,224,note_on,,0.0,70.0,0.0,63381,33.0109375
5776,9.0,,,,,,,42.0,,,,,,0,note_on,,0.0,42.0,0.0,63381,33.0109375
5777,6.0,,,,,,,68.0,,,,,,183,note_on,,0.0,68.0,0.0,11537,6.008854166666667
5778,6.0,,,,,,,72.0,,,,,,14,note_on,,0.0,72.0,0.0,11551,6.016145833333333
5779,6.0,,,,,,,75.0,,,,,,12,note_on,,0.0,75.0,0.0,11563,6.022395833333333
5780,9.0,,,,,,,70.0,,,,,,47,note_on,,40.0,70.0,40.0,63428,33.03541666666666
5781,9.0,,,,,,,36.0,,,,,,0,note_on,,126.0,36.0,126.0,63428,33.03541666666666
5782,9.0,,,,,,,35.0,,,,,,0,note_on,,60.0,35.0,60.0,63428,33.03541666666666
5783,9.0,,,,,,,35.0,,,,,,154,note_on,,0.0,35.0,0.0,63582,33.115625
5784,9.0,,,,,,,36.0,,,,,,0,note_on,,0.0,36.0,0.0,63582,33.115625
5785,9.0,,,,,,,70.0,,,,,,70,note_on,,0.0,70.0,0.0,63652,33.15208333333333
5786,3.0,,,,,,,75.0,,,,,,256,note_on,,127.0,75.0,127.0,39822,20.740625
5787,9.0,,,,,,,42.0,,,,,,0,note_on,,85.0,42.0,85.0,63652,33.15208333333333
5788,9.0,,,,,,,70.0,,,,,,0,note_on,,40.0,70.0,40.0,63652,33.15208333333333
5789,9.0,,,,,,,39.0,,,,,,0,note_on,,127.0,39.0,127.0,63652,33.15208333333333
5790,9.0,,,,,,,28.0,,,,,,0,note_on,,127.0,28.0,127.0,63652,33.15208333333333
5791,11.0,,,,,,,60.0,,,,,,0,note_on,,127.0,60.0,127.0,19257,10.0296875
5792,11.0,,,,,,,65.0,,,,,,0,note_on,,127.0,65.0,127.0,19257,10.0296875
5793,11.0,,,,,,,56.0,,,,,,0,note_on,,127.0,56.0,127.0,19257,10.0296875
5794,,,,,,,,,,,,,But ,0,lyrics,,,,,9,0.0046875
5795,9.0,,,,,,,39.0,,,,,,123,note_on,,0.0,39.0,0.0,63775,33.216145833333336
5796,9.0,,,,,,,28.0,,,,,,2,note_on,,0.0,28.0,0.0,63777,33.2171875
5797,9.0,,,,,,,70.0,,,,,,99,note_on,,0.0,70.0,0.0,63876,33.26875
5798,9.0,,,,,,,42.0,,,,,,0,note_on,,0.0,42.0,0.0,63876,33.26875
5799,11.0,,,,,,,65.0,,,,,,160,note_on,,0.0,65.0,0.0,19417,10.113020833333334
5800,11.0,,,,,,,56.0,,,,,,10,note_on,,0.0,56.0,0.0,19427,10.118229166666666
5801,11.0,,,,,,,60.0,,,,,,21,note_on,,0.0,60.0,0.0,19448,10.129166666666666
5802,3.0,,,,,,,75.0,,,,,,23,note_on,,0.0,75.0,0.0,39845,20.752604166666668
5803,3.0,,,,,,,72.0,,,,,,42,note_on,,127.0,72.0,127.0,39887,20.774479166666666
5804,9.0,,,,,,,70.0,,,,,,0,note_on,,40.0,70.0,40.0,63876,33.26875
5805,10.0,,,,,,,60.0,,,,,,0,note_on,,127.0,60.0,127.0,10303,5.366145833333333
5806,10.0,,,,,,,65.0,,,,,,0,note_on,,127.0,65.0,127.0,10303,5.366145833333333
5807,10.0,,,,,,,56.0,,,,,,0,note_on,,127.0,56.0,127.0,10303,5.366145833333333
5808,11.0,,,,,,,60.0,,,,,,0,note_on,,127.0,60.0,127.0,19448,10.129166666666666
5809,11.0,,,,,,,56.0,,,,,,0,note_on,,124.0,56.0,124.0,19448,10.129166666666666
5810,11.0,,,,,,,63.0,,,,,,0,note_on,,127.0,63.0,127.0,19448,10.129166666666666
5811,,,,,,,,,,,,,I'm ,0,lyrics,,,,,9,0.0046875
5812,3.0,,,,,,,72.0,,,,,,218,note_on,,0.0,72.0,0.0,40105,20.888020833333332
5813,9.0,,,,,,,70.0,,,,,,6,note_on,,0.0,70.0,0.0,63882,33.271875
5814,10.0,,,,,,,65.0,,,,,,160,note_on,,0.0,65.0,0.0,10463,5.449479166666666
5815,10.0,,,,,,,56.0,,,,,,10,note_on,,0.0,56.0,0.0,10473,5.4546875
5816,10.0,,,,,,,60.0,,,,,,21,note_on,,0.0,60.0,0.0,10494,5.465625
5817,11.0,,,,,,,56.0,,,,,,46,note_on,,0.0,56.0,0.0,19494,10.153125
5818,3.0,,,,,,,79.0,,,,,,19,note_on,,127.0,79.0,127.0,40124,20.897916666666667
5819,9.0,,,,,,,42.0,,,,,,0,note_on,,85.0,42.0,85.0,63882,33.271875
5820,9.0,,,,,,,70.0,,,,,,0,note_on,,40.0,70.0,40.0,63882,33.271875
5821,9.0,,,,,,,36.0,,,,,,0,note_on,,126.0,36.0,126.0,63882,33.271875
5822,9.0,,,,,,,35.0,,,,,,0,note_on,,60.0,35.0,60.0,63882,33.271875
5823,10.0,,,,,,,60.0,,,,,,0,note_on,,127.0,60.0,127.0,10494,5.465625
5824,10.0,,,,,,,56.0,,,,,,0,note_on,,124.0,56.0,124.0,10494,5.465625
5825,10.0,,,,,,,63.0,,,,,,0,note_on,,127.0,63.0,127.0,10494,5.465625
5826,12.0,,,,,,,60.0,,,,,,0,note_on,,127.0,60.0,127.0,15404,8.022916666666667
5827,12.0,,,,,,,65.0,,,,,,0,note_on,,127.0,65.0,127.0,15404,8.022916666666667
5828,12.0,,,,,,,56.0,,,,,,0,note_on,,127.0,56.0,127.0,15404,8.022916666666667
5829,,,,,,,,,,,,,lo ,0,lyrics,,,,,9,0.0046875
5830,11.0,,,,,,,63.0,,,,,,14,note_on,,0.0,63.0,0.0,19508,10.160416666666666
5831,11.0,,,,,,,60.0,,,,,,6,note_on,,0.0,60.0,0.0,19514,10.163541666666667
5832,9.0,,,,,,,35.0,,,,,,152,note_on,,0.0,35.0,0.0,64034,33.35104166666667
5833,9.0,,,,,,,36.0,,,,,,0,note_on,,0.0,36.0,0.0,64034,33.35104166666667
5834,9.0,,,,,,,42.0,,,,,,52,note_on,,0.0,42.0,0.0,64086,33.378125
5835,9.0,,,,,,,70.0,,,,,,0,note_on,,0.0,70.0,0.0,64086,33.378125
5836,12.0,,,,,,,65.0,,,,,,160,note_on,,0.0,65.0,0.0,15564,8.10625
5837,12.0,,,,,,,56.0,,,,,,10,note_on,,0.0,56.0,0.0,15574,8.111458333333333
5838,12.0,,,,,,,60.0,,,,,,21,note_on,,0.0,60.0,0.0,15595,8.122395833333334
5839,3.0,,,,,,,79.0,,,,,,21,note_on,,0.0,79.0,0.0,40145,20.908854166666668
5840,10.0,,,,,,,56.0,,,,,,25,note_on,,0.0,56.0,0.0,10519,5.478645833333333
5841,9.0,,,,,,,70.0,,,,,,19,note_on,,40.0,70.0,40.0,64105,33.388020833333336
5842,12.0,,,,,,,60.0,,,,,,0,note_on,,127.0,60.0,127.0,15595,8.122395833333334
5843,12.0,,,,,,,56.0,,,,,,0,note_on,,124.0,56.0,124.0,15595,8.122395833333334
5844,12.0,,,,,,,63.0,,,,,,0,note_on,,127.0,63.0,127.0,15595,8.122395833333334
5845,10.0,,,,,,,63.0,,,,,,14,note_on,,0.0,63.0,0.0,10533,5.4859375
5846,10.0,,,,,,,60.0,,,,,,6,note_on,,0.0,60.0,0.0,10539,5.4890625
5847,9.0,,,,,,,70.0,,,,,,204,note_on,,0.0,70.0,0.0,64309,33.49427083333333
5848,3.0,,,,,,,77.0,,,,,,16,note_on,,127.0,77.0,127.0,40161,20.9171875
5849,9.0,,,,,,,36.0,,,,,,0,note_on,,126.0,36.0,126.0,64309,33.49427083333333
5850,9.0,,,,,,,35.0,,,,,,0,note_on,,60.0,35.0,60.0,64309,33.49427083333333
5851,,,,,,,,,,,,,sin' ,0,lyrics,,,,,9,0.0046875
5852,3.0,,,,,,,77.0,,,,,,141,note_on,,0.0,77.0,0.0,40302,20.990625
5853,12.0,,,,,,,56.0,,,,,,80,note_on,,0.0,56.0,0.0,15675,8.1640625
5854,9.0,,,,,,,36.0,,,,,,3,note_on,,0.0,36.0,0.0,64312,33.49583333333333
5855,9.0,,,,,,,35.0,,,,,,0,note_on,,0.0,35.0,0.0,64312,33.49583333333333
5856,3.0,,,,,,,79.0,,,,,,16,note_on,,127.0,79.0,127.0,40318,20.998958333333334
5857,9.0,,,,,,,42.0,,,,,,0,note_on,,85.0,42.0,85.0,64312,33.49583333333333
5858,9.0,,,,,,,70.0,,,,,,0,note_on,,40.0,70.0,40.0,64312,33.49583333333333
5859,9.0,,,,,,,39.0,,,,,,0,note_on,,125.0,39.0,125.0,64312,33.49583333333333
5860,9.0,,,,,,,28.0,,,,,,0,note_on,,127.0,28.0,127.0,64312,33.49583333333333
5861,,,,,,,,,,,,,you ,0,lyrics,,,,,9,0.0046875
5862,12.0,,,,,,,63.0,,,,,,14,note_on,,0.0,63.0,0.0,15689,8.171354166666667
5863,12.0,,,,,,,60.0,,,,,,6,note_on,,0.0,60.0,0.0,15695,8.174479166666666
5864,9.0,,,,,,,28.0,,,,,,97,note_on,,0.0,28.0,0.0,64409,33.54635416666667
5865,9.0,,,,,,,39.0,,,,,,34,note_on,,0.0,39.0,0.0,64443,33.5640625
5866,9.0,,,,,,,42.0,,,,,,73,note_on,,0.0,42.0,0.0,64516,33.60208333333333
5867,9.0,,,,,,,70.0,,,,,,0,note_on,,0.0,70.0,0.0,64516,33.60208333333333
5868,6.0,,,,,,,72.0,,,,,,256,note_on,,127.0,72.0,127.0,11819,6.155729166666666
5869,6.0,,,,,,,75.0,,,,,,0,note_on,,127.0,75.0,127.0,11819,6.155729166666666
5870,6.0,,,,,,,68.0,,,,,,0,note_on,,127.0,68.0,127.0,11819,6.155729166666666
5871,9.0,,,,,,,46.0,,,,,,0,note_on,,100.0,46.0,100.0,64516,33.60208333333333
5872,9.0,,,,,,,70.0,,,,,,0,note_on,,40.0,70.0,40.0,64516,33.60208333333333
5873,9.0,,,,,,,36.0,,,,,,0,note_on,,126.0,36.0,126.0,64516,33.60208333333333
5874,9.0,,,,,,,35.0,,,,,,0,note_on,,60.0,35.0,60.0,64516,33.60208333333333
5875,9.0,,,,,,,35.0,,,,,,166,note_on,,0.0,35.0,0.0,64682,33.688541666666666
5876,9.0,,,,,,,36.0,,,,,,0,note_on,,0.0,36.0,0.0,64682,33.688541666666666
5877,3.0,,,,,,,79.0,,,,,,41,note_on,,0.0,79.0,0.0,40359,21.0203125
5878,9.0,,,,,,,46.0,,,,,,17,note_on,,0.0,46.0,0.0,64699,33.69739583333333
5879,9.0,,,,,,,70.0,,,,,,0,note_on,,0.0,70.0,0.0,64699,33.69739583333333
5880,6.0,,,,,,,,,-413.0,,,,219,pitchwheel,,,,,12038,6.269791666666666
5881,6.0,,,,,,,,,-1005.0,,,,9,pitchwheel,,,,,12047,6.274479166666667
5882,6.0,,,,,,,,,-1623.0,,,,10,pitchwheel,,,,,12057,6.2796875
5883,6.0,,,,,,,,,-2293.0,,,,6,pitchwheel,,,,,12063,6.2828125
5884,6.0,,,,,,,,,-2808.0,,,,9,pitchwheel,,,,,12072,6.2875
5885,9.0,,,,,,,46.0,,,,,,3,note_on,,100.0,46.0,100.0,64702,33.69895833333333
5886,9.0,,,,,,,70.0,,,,,,0,note_on,,40.0,70.0,40.0,64702,33.69895833333333
5887,6.0,,,,,,,,,-3427.0,,,,5,pitchwheel,,,,,12077,6.290104166666667
5888,6.0,,,,,,,,,-3916.0,,,,8,pitchwheel,,,,,12085,6.294270833333333
5889,6.0,,,,,,,,,-4354.0,,,,9,pitchwheel,,,,,12094,6.298958333333333
5890,6.0,,,,,,,,,-4792.0,,,,8,pitchwheel,,,,,12102,6.303125
5891,6.0,,,,,,,,,-5333.0,,,,13,pitchwheel,,,,,12115,6.309895833333333
5892,6.0,,,,,,,,,-5539.0,,,,6,pitchwheel,,,,,12121,6.313020833333333
5893,6.0,,,,,,,,,-5797.0,,,,6,pitchwheel,,,,,12127,6.316145833333334
5894,6.0,,,,,,,,,-6209.0,,,,10,pitchwheel,,,,,12137,6.321354166666667
5895,6.0,,,,,,,,,-6698.0,,,,9,pitchwheel,,,,,12146,6.326041666666667
5896,6.0,,,,,,,,,-6801.0,,,,8,pitchwheel,,,,,12154,6.330208333333333
5897,6.0,,,,,,,,,-6982.0,,,,8,pitchwheel,,,,,12162,6.334375
5898,6.0,,,,,,,,,-7085.0,,,,9,pitchwheel,,,,,12171,6.3390625
5899,6.0,,,,,,,,,-7136.0,,,,8,pitchwheel,,,,,12179,6.343229166666666
5900,6.0,,,,,,,,,-7239.0,,,,8,pitchwheel,,,,,12187,6.347395833333334
5901,6.0,,,,,,,,,-7265.0,,,,9,pitchwheel,,,,,12196,6.352083333333333
5902,6.0,,,,,,,,,-7291.0,,,,10,pitchwheel,,,,,12206,6.357291666666667
5903,6.0,,,,,,,,,-7111.0,,,,10,pitchwheel,,,,,12216,6.3625
5904,6.0,,,,,,,,,-6982.0,,,,9,pitchwheel,,,,,12225,6.3671875
5905,6.0,,,,,,,,,-6879.0,,,,8,pitchwheel,,,,,12233,6.371354166666666
5906,6.0,,,,,,,,,-6544.0,,,,8,pitchwheel,,,,,12241,6.375520833333333
5907,6.0,,,,,,,,,-5719.0,,,,9,pitchwheel,,,,,12250,6.380208333333333
5908,6.0,,,,,,,,,-3968.0,,,,8,pitchwheel,,,,,12258,6.384375
5909,6.0,,,,,,,,,-1778.0,,,,8,pitchwheel,,,,,12266,6.388541666666667
5910,6.0,,,,,,,,,0.0,,,,9,pitchwheel,,,,,12275,6.393229166666667
5911,6.0,,,,,,,,,1287.0,,,,10,pitchwheel,,,,,12285,6.3984375
5912,9.0,,,,,,,70.0,,,,,,11,note_on,,0.0,70.0,0.0,64713,33.7046875
5913,9.0,,,,,,,46.0,,,,,,0,note_on,,0.0,46.0,0.0,64713,33.7046875
5914,6.0,,,,,,,,,463.0,,,,4,pitchwheel,,,,,12289,6.400520833333333
5915,6.0,,,,,,,,,0.0,,,,8,pitchwheel,,,,,12297,6.4046875
5916,3.0,,,,,,,75.0,,,,,,244,note_on,,127.0,75.0,127.0,40603,21.147395833333334
5917,9.0,,,,,,,70.0,,,,,,0,note_on,,40.0,70.0,40.0,64713,33.7046875
5918,9.0,,,,,,,36.0,,,,,,0,note_on,,126.0,36.0,126.0,64713,33.7046875
5919,9.0,,,,,,,35.0,,,,,,0,note_on,,60.0,35.0,60.0,64713,33.7046875
5920,,,,,,,,,,,,,I'll ,0,lyrics,,,,,9,0.0046875
5921,9.0,,,,,,,35.0,,,,,,154,note_on,,0.0,35.0,0.0,64867,33.78489583333333
5922,9.0,,,,,,,36.0,,,,,,0,note_on,,0.0,36.0,0.0,64867,33.78489583333333
5923,3.0,,,,,,,75.0,,,,,,4,note_on,,0.0,75.0,0.0,40607,21.149479166666666
5924,9.0,,,,,,,70.0,,,,,,66,note_on,,0.0,70.0,0.0,64933,33.819270833333334
5925,3.0,,,,,,,75.0,,,,,,256,note_on,,127.0,75.0,127.0,40863,21.2828125
5926,9.0,,,,,,,42.0,,,,,,0,note_on,,85.0,42.0,85.0,64933,33.819270833333334
5927,9.0,,,,,,,70.0,,,,,,0,note_on,,40.0,70.0,40.0,64933,33.819270833333334
5928,9.0,,,,,,,39.0,,,,,,0,note_on,,127.0,39.0,127.0,64933,33.819270833333334
5929,9.0,,,,,,,28.0,,,,,,0,note_on,,127.0,28.0,127.0,64933,33.819270833333334
5930,,,,,,,,,,,,,buy ,0,lyrics,,,,,9,0.0046875
5931,6.0,,,,,,,68.0,,,,,,77,note_on,,0.0,68.0,0.0,12374,6.444791666666666
5932,6.0,,,,,,,72.0,,,,,,14,note_on,,0.0,72.0,0.0,12388,6.452083333333333
5933,6.0,,,,,,,75.0,,,,,,17,note_on,,0.0,75.0,0.0,12405,6.4609375
5934,9.0,,,,,,,39.0,,,,,,15,note_on,,0.0,39.0,0.0,64948,33.827083333333334
5935,9.0,,,,,,,28.0,,,,,,2,note_on,,0.0,28.0,0.0,64950,33.828125
5936,3.0,,,,,,,75.0,,,,,,67,note_on,,0.0,75.0,0.0,40930,21.317708333333332
5937,9.0,,,,,,,70.0,,,,,,32,note_on,,0.0,70.0,0.0,64982,33.844791666666666
5938,9.0,,,,,,,42.0,,,,,,0,note_on,,0.0,42.0,0.0,64982,33.844791666666666
5939,3.0,,,,,,,77.0,,,,,,256,note_on,,127.0,77.0,127.0,41186,21.451041666666665
5940,9.0,,,,,,,61.0,,,,,,0,note_on,,100.0,61.0,100.0,64982,33.844791666666666
5941,9.0,,,,,,,70.0,,,,,,0,note_on,,40.0,70.0,40.0,64982,33.844791666666666
5942,,,,,,,,,,,,,you ,0,lyrics,,,,,9,0.0046875
5943,9.0,,,,,,,61.0,,,,,,114,note_on,,0.0,61.0,0.0,65096,33.90416666666667
5944,9.0,,,,,,,61.0,,,,,,6,note_on,,100.0,61.0,100.0,65102,33.907291666666666
5945,3.0,,,,,,,77.0,,,,,,37,note_on,,0.0,77.0,0.0,41223,21.4703125
5946,9.0,,,,,,,70.0,,,,,,67,note_on,,0.0,70.0,0.0,65169,33.9421875
5947,9.0,,,,,,,61.0,,,,,,10,note_on,,0.0,61.0,0.0,65179,33.94739583333333
5948,9.0,,,,,,,61.0,,,,,,6,note_on,,100.0,61.0,100.0,65185,33.950520833333336
5949,9.0,,,,,,,61.0,,,,,,114,note_on,,0.0,61.0,0.0,65299,34.00989583333333
5950,9.0,,,,,,,61.0,,,,,,6,note_on,,100.0,61.0,100.0,65305,34.013020833333336
5951,9.0,,,,,,,61.0,,,,,,114,note_on,,0.0,61.0,0.0,65419,34.07239583333333
5952,3.0,,,,,,,79.0,,,,,,6,note_on,,127.0,79.0,127.0,41229,21.4734375
5953,9.0,,,,,,,61.0,,,,,,0,note_on,,100.0,61.0,100.0,65419,34.07239583333333
5954,9.0,,,,,,,42.0,,,,,,0,note_on,,85.0,42.0,85.0,65419,34.07239583333333
5955,9.0,,,,,,,70.0,,,,,,0,note_on,,40.0,70.0,40.0,65419,34.07239583333333
5956,9.0,,,,,,,36.0,,,,,,0,note_on,,126.0,36.0,126.0,65419,34.07239583333333
5957,9.0,,,,,,,35.0,,,,,,0,note_on,,60.0,35.0,60.0,65419,34.07239583333333
5958,11.0,,,,,,,62.0,,,,,,0,note_on,,127.0,62.0,127.0,19514,10.163541666666667
5959,11.0,,,,,,,58.0,,,,,,0,note_on,,127.0,58.0,127.0,19514,10.163541666666667
5960,11.0,,,,,,,65.0,,,,,,0,note_on,,127.0,65.0,127.0,19514,10.163541666666667
5961,,,,,,,,,,,,,a ,0,lyrics,,,,,9,0.0046875
5962,9.0,,,,,,,61.0,,,,,,114,note_on,,0.0,61.0,0.0,65533,34.131770833333334
5963,9.0,,,,,,,36.0,,,,,,58,note_on,,0.0,36.0,0.0,65591,34.16197916666667
5964,9.0,,,,,,,35.0,,,,,,0,note_on,,0.0,35.0,0.0,65591,34.16197916666667
5965,9.0,,,,,,,70.0,,,,,,52,note_on,,0.0,70.0,0.0,65643,34.1890625
5966,9.0,,,,,,,42.0,,,,,,0,note_on,,0.0,42.0,0.0,65643,34.1890625
5967,11.0,,,,,,,58.0,,,,,,250,note_on,,0.0,58.0,0.0,19764,10.29375
5968,9.0,,,,,,,70.0,,,,,,6,note_on,,40.0,70.0,40.0,65649,34.1921875
5969,10.0,,,,,,,62.0,,,,,,0,note_on,,127.0,62.0,127.0,10539,5.4890625
5970,10.0,,,,,,,58.0,,,,,,0,note_on,,127.0,58.0,127.0,10539,5.4890625
5971,10.0,,,,,,,65.0,,,,,,0,note_on,,127.0,65.0,127.0,10539,5.4890625
5972,11.0,,,,,,,65.0,,,,,,47,note_on,,0.0,65.0,0.0,19811,10.318229166666667
5973,11.0,,,,,,,62.0,,,,,,2,note_on,,0.0,62.0,0.0,19813,10.319270833333333
5974,3.0,,,,,,,79.0,,,,,,123,note_on,,0.0,79.0,0.0,41352,21.5375
5975,9.0,,,,,,,70.0,,,,,,52,note_on,,0.0,70.0,0.0,65701,34.21927083333333
5976,9.0,,,,,,,36.0,,,,,,16,note_on,,126.0,36.0,126.0,65717,34.227604166666666
5977,9.0,,,,,,,35.0,,,,,,0,note_on,,60.0,35.0,60.0,65717,34.227604166666666
5978,9.0,,,,,,,35.0,,,,,,224,note_on,,0.0,35.0,0.0,65941,34.34427083333333
5979,9.0,,,,,,,36.0,,,,,,0,note_on,,0.0,36.0,0.0,65941,34.34427083333333
5980,10.0,,,,,,,58.0,,,,,,10,note_on,,0.0,58.0,0.0,10549,5.494270833333333
5981,3.0,,,,,,,77.0,,,,,,6,note_on,,127.0,77.0,127.0,41358,21.540625
5982,9.0,,,,,,,42.0,,,,,,0,note_on,,85.0,42.0,85.0,65941,34.34427083333333
5983,9.0,,,,,,,70.0,,,,,,0,note_on,,40.0,70.0,40.0,65941,34.34427083333333
5984,9.0,,,,,,,39.0,,,,,,0,note_on,,125.0,39.0,125.0,65941,34.34427083333333
5985,9.0,,,,,,,28.0,,,,,,0,note_on,,127.0,28.0,127.0,65941,34.34427083333333
5986,12.0,,,,,,,62.0,,,,,,0,note_on,,127.0,62.0,127.0,15695,8.174479166666666
5987,12.0,,,,,,,58.0,,,,,,0,note_on,,127.0,58.0,127.0,15695,8.174479166666666
5988,12.0,,,,,,,65.0,,,,,,0,note_on,,127.0,65.0,127.0,15695,8.174479166666666
5989,,,,,,,,,,,,,ny ,0,lyrics,,,,,9,0.0046875
5990,10.0,,,,,,,65.0,,,,,,47,note_on,,0.0,65.0,0.0,10596,5.51875
5991,10.0,,,,,,,62.0,,,,,,2,note_on,,0.0,62.0,0.0,10598,5.519791666666666
5992,9.0,,,,,,,28.0,,,,,,68,note_on,,0.0,28.0,0.0,66009,34.3796875
5993,3.0,,,,,,,77.0,,,,,,24,note_on,,0.0,77.0,0.0,41382,21.553125
5994,9.0,,,,,,,39.0,,,,,,10,note_on,,0.0,39.0,0.0,66019,34.38489583333333
5995,9.0,,,,,,,42.0,,,,,,73,note_on,,0.0,42.0,0.0,66092,34.422916666666666
5996,9.0,,,,,,,70.0,,,,,,0,note_on,,0.0,70.0,0.0,66092,34.422916666666666
5997,12.0,,,,,,,58.0,,,,,,250,note_on,,0.0,58.0,0.0,15945,8.3046875
5998,3.0,,,,,,,77.0,,,,,,6,note_on,,127.0,77.0,127.0,41388,21.55625
5999,9.0,,,,,,,70.0,,,,,,0,note_on,,40.0,70.0,40.0,66092,34.422916666666666
6000,9.0,,,,,,,36.0,,,,,,0,note_on,,126.0,36.0,126.0,66092,34.422916666666666
6001,9.0,,,,,,,35.0,,,,,,0,note_on,,60.0,35.0,60.0,66092,34.422916666666666
6002,,,,,,,,,,,,,"thing, ",0,lyrics,,,,,9,0.0046875
6003,12.0,,,,,,,65.0,,,,,,47,note_on,,0.0,65.0,0.0,15992,8.329166666666666
6004,12.0,,,,,,,62.0,,,,,,2,note_on,,0.0,62.0,0.0,15994,8.330208333333333
6005,9.0,,,,,,,36.0,,,,,,117,note_on,,0.0,36.0,0.0,66209,34.48385416666667
6006,9.0,,,,,,,35.0,,,,,,0,note_on,,0.0,35.0,0.0,66209,34.48385416666667
6007,9.0,,,,,,,70.0,,,,,,58,note_on,,0.0,70.0,0.0,66267,34.5140625
6008,6.0,,,,,,,70.0,,,,,,256,note_on,,127.0,70.0,127.0,12661,6.594270833333333
6009,6.0,,,,,,,75.0,,,,,,0,note_on,,127.0,75.0,127.0,12661,6.594270833333333
6010,6.0,,,,,,,65.0,,,,,,0,note_on,,106.0,65.0,106.0,12661,6.594270833333333
6011,9.0,,,,,,,42.0,,,,,,0,note_on,,85.0,42.0,85.0,66267,34.5140625
6012,9.0,,,,,,,70.0,,,,,,0,note_on,,40.0,70.0,40.0,66267,34.5140625
6013,3.0,,,,,,,77.0,,,,,,153,note_on,,0.0,77.0,0.0,41541,21.6359375
6014,9.0,,,,,,,42.0,,,,,,71,note_on,,0.0,42.0,0.0,66338,34.55104166666666
6015,9.0,,,,,,,70.0,,,,,,0,note_on,,0.0,70.0,0.0,66338,34.55104166666666
6016,6.0,,,,,,,65.0,,,,,,38,note_on,,0.0,65.0,0.0,12699,6.6140625
6017,6.0,,,,,,,70.0,,,,,,126,note_on,,0.0,70.0,0.0,12825,6.6796875
6018,6.0,,,,,,,75.0,,,,,,8,note_on,,0.0,75.0,0.0,12833,6.683854166666666
6019,3.0,,,,,,,75.0,,,,,,84,note_on,,127.0,75.0,127.0,41625,21.6796875
6020,9.0,,,,,,,70.0,,,,,,0,note_on,,40.0,70.0,40.0,66338,34.55104166666666
6021,9.0,,,,,,,36.0,,,,,,0,note_on,,126.0,36.0,126.0,66338,34.55104166666666
6022,9.0,,,,,,,35.0,,,,,,0,note_on,,60.0,35.0,60.0,66338,34.55104166666666
6023,,,,,,,,,,,,,I'll ,0,lyrics,,,,,9,0.0046875
6024,9.0,,,,,,,35.0,,,,,,154,note_on,,0.0,35.0,0.0,66492,34.63125
6025,9.0,,,,,,,36.0,,,,,,0,note_on,,0.0,36.0,0.0,66492,34.63125
6026,3.0,,,,,,,75.0,,,,,,10,note_on,,0.0,75.0,0.0,41635,21.684895833333332
6027,9.0,,,,,,,70.0,,,,,,60,note_on,,0.0,70.0,0.0,66552,34.6625
6028,3.0,,,,,,,75.0,,,,,,256,note_on,,127.0,75.0,127.0,41891,21.818229166666665
6029,9.0,,,,,,,42.0,,,,,,0,note_on,,85.0,42.0,85.0,66552,34.6625
6030,9.0,,,,,,,70.0,,,,,,0,note_on,,40.0,70.0,40.0,66552,34.6625
6031,9.0,,,,,,,39.0,,,,,,0,note_on,,127.0,39.0,127.0,66552,34.6625
6032,9.0,,,,,,,28.0,,,,,,0,note_on,,127.0,28.0,127.0,66552,34.6625
6033,11.0,,,,,,,62.0,,,,,,0,note_on,,127.0,62.0,127.0,19813,10.319270833333333
6034,11.0,,,,,,,67.0,,,,,,0,note_on,,127.0,67.0,127.0,19813,10.319270833333333
6035,11.0,,,,,,,58.0,,,,,,0,note_on,,127.0,58.0,127.0,19813,10.319270833333333
6036,,,,,,,,,,,,,buy ,0,lyrics,,,,,10,0.005208333333333333
6037,9.0,,,,,,,39.0,,,,,,123,note_on,,0.0,39.0,0.0,66675,34.7265625
6038,9.0,,,,,,,28.0,,,,,,2,note_on,,0.0,28.0,0.0,66677,34.727604166666666
6039,3.0,,,,,,,75.0,,,,,,64,note_on,,0.0,75.0,0.0,41955,21.8515625
6040,9.0,,,,,,,42.0,,,,,,35,note_on,,0.0,42.0,0.0,66712,34.74583333333333
6041,9.0,,,,,,,70.0,,,,,,0,note_on,,0.0,70.0,0.0,66712,34.74583333333333
6042,11.0,,,,,,,67.0,,,,,,143,note_on,,0.0,67.0,0.0,19956,10.39375
6043,11.0,,,,,,,58.0,,,,,,11,note_on,,0.0,58.0,0.0,19967,10.399479166666666
6044,11.0,,,,,,,62.0,,,,,,36,note_on,,0.0,62.0,0.0,20003,10.418229166666666
6045,3.0,,,,,,,77.0,,,,,,66,note_on,,127.0,77.0,127.0,42021,21.8859375
6046,9.0,,,,,,,70.0,,,,,,0,note_on,,40.0,70.0,40.0,66712,34.74583333333333
6047,10.0,,,,,,,62.0,,,,,,0,note_on,,127.0,62.0,127.0,10598,5.519791666666666
6048,10.0,,,,,,,67.0,,,,,,0,note_on,,127.0,67.0,127.0,10598,5.519791666666666
6049,10.0,,,,,,,58.0,,,,,,0,note_on,,127.0,58.0,127.0,10598,5.519791666666666
6050,11.0,,,,,,,62.0,,,,,,0,note_on,,127.0,62.0,127.0,20003,10.418229166666666
6051,11.0,,,,,,,58.0,,,,,,0,note_on,,118.0,58.0,118.0,20003,10.418229166666666
6052,11.0,,,,,,,65.0,,,,,,0,note_on,,127.0,65.0,127.0,20003,10.418229166666666
6053,,,,,,,,,,,,,you ,0,lyrics,,,,,10,0.005208333333333333
6054,3.0,,,,,,,77.0,,,,,,163,note_on,,0.0,77.0,0.0,42184,21.97083333333333
6055,9.0,,,,,,,70.0,,,,,,61,note_on,,0.0,70.0,0.0,66773,34.77760416666666
6056,10.0,,,,,,,67.0,,,,,,143,note_on,,0.0,67.0,0.0,10741,5.594270833333333
6057,10.0,,,,,,,58.0,,,,,,11,note_on,,0.0,58.0,0.0,10752,5.6
6058,11.0,,,,,,,58.0,,,,,,7,note_on,,0.0,58.0,0.0,20010,10.421875
6059,11.0,,,,,,,65.0,,,,,,23,note_on,,0.0,65.0,0.0,20033,10.433854166666666
6060,10.0,,,,,,,62.0,,,,,,6,note_on,,0.0,62.0,0.0,10758,5.603125
6061,11.0,,,,,,,62.0,,,,,,13,note_on,,0.0,62.0,0.0,20046,10.440625
6062,3.0,,,,,,,79.0,,,,,,53,note_on,,127.0,79.0,127.0,42237,21.9984375
6063,9.0,,,,,,,42.0,,,,,,0,note_on,,85.0,42.0,85.0,66773,34.77760416666666
6064,9.0,,,,,,,70.0,,,,,,0,note_on,,40.0,70.0,40.0,66773,34.77760416666666
6065,9.0,,,,,,,36.0,,,,,,0,note_on,,126.0,36.0,126.0,66773,34.77760416666666
6066,9.0,,,,,,,35.0,,,,,,0,note_on,,60.0,35.0,60.0,66773,34.77760416666666
6067,10.0,,,,,,,62.0,,,,,,0,note_on,,127.0,62.0,127.0,10758,5.603125
6068,10.0,,,,,,,58.0,,,,,,0,note_on,,118.0,58.0,118.0,10758,5.603125
6069,10.0,,,,,,,65.0,,,,,,0,note_on,,127.0,65.0,127.0,10758,5.603125
6070,12.0,,,,,,,62.0,,,,,,0,note_on,,127.0,62.0,127.0,15994,8.330208333333333
6071,12.0,,,,,,,67.0,,,,,,0,note_on,,127.0,67.0,127.0,15994,8.330208333333333
6072,12.0,,,,,,,58.0,,,,,,0,note_on,,127.0,58.0,127.0,15994,8.330208333333333
6073,,,,,,,,,,,,,a ,0,lyrics,,,,,11,0.005729166666666666
6074,9.0,,,,,,,35.0,,,,,,172,note_on,,0.0,35.0,0.0,66945,34.8671875
6075,9.0,,,,,,,36.0,,,,,,0,note_on,,0.0,36.0,0.0,66945,34.8671875
6076,9.0,,,,,,,70.0,,,,,,52,note_on,,0.0,70.0,0.0,66997,34.89427083333333
6077,9.0,,,,,,,42.0,,,,,,0,note_on,,0.0,42.0,0.0,66997,34.89427083333333
6078,12.0,,,,,,,67.0,,,,,,143,note_on,,0.0,67.0,0.0,16137,8.4046875
6079,12.0,,,,,,,58.0,,,,,,11,note_on,,0.0,58.0,0.0,16148,8.410416666666666
6080,10.0,,,,,,,58.0,,,,,,7,note_on,,0.0,58.0,0.0,10765,5.606770833333333
6081,10.0,,,,,,,65.0,,,,,,23,note_on,,0.0,65.0,0.0,10788,5.61875
6082,12.0,,,,,,,62.0,,,,,,6,note_on,,0.0,62.0,0.0,16154,8.413541666666667
6083,10.0,,,,,,,62.0,,,,,,13,note_on,,0.0,62.0,0.0,10801,5.625520833333333
6084,9.0,,,,,,,70.0,,,,,,53,note_on,,40.0,70.0,40.0,67050,34.921875
6085,12.0,,,,,,,62.0,,,,,,0,note_on,,127.0,62.0,127.0,16154,8.413541666666667
6086,12.0,,,,,,,58.0,,,,,,0,note_on,,118.0,58.0,118.0,16154,8.413541666666667
6087,12.0,,,,,,,65.0,,,,,,0,note_on,,127.0,65.0,127.0,16154,8.413541666666667
6088,3.0,,,,,,,79.0,,,,,,148,note_on,,0.0,79.0,0.0,42385,22.075520833333332
6089,9.0,,,,,,,70.0,,,,,,76,note_on,,0.0,70.0,0.0,67126,34.96145833333333
6090,9.0,,,,,,,36.0,,,,,,16,note_on,,126.0,36.0,126.0,67142,34.969791666666666
6091,9.0,,,,,,,35.0,,,,,,0,note_on,,60.0,35.0,60.0,67142,34.969791666666666
6092,12.0,,,,,,,58.0,,,,,,145,note_on,,0.0,58.0,0.0,16299,8.4890625
6093,12.0,,,,,,,65.0,,,,,,23,note_on,,0.0,65.0,0.0,16322,8.501041666666666
6094,12.0,,,,,,,62.0,,,,,,19,note_on,,0.0,62.0,0.0,16341,8.5109375
6095,9.0,,,,,,,36.0,,,,,,37,note_on,,0.0,36.0,0.0,67179,34.9890625
6096,9.0,,,,,,,35.0,,,,,,0,note_on,,0.0,35.0,0.0,67179,34.9890625
6097,3.0,,,,,,,77.0,,,,,,16,note_on,,127.0,77.0,127.0,42401,22.083854166666665
6098,9.0,,,,,,,42.0,,,,,,0,note_on,,85.0,42.0,85.0,67179,34.9890625
6099,9.0,,,,,,,70.0,,,,,,0,note_on,,40.0,70.0,40.0,67179,34.9890625
6100,9.0,,,,,,,39.0,,,,,,0,note_on,,125.0,39.0,125.0,67179,34.9890625
6101,9.0,,,,,,,28.0,,,,,,0,note_on,,127.0,28.0,127.0,67179,34.9890625
6102,11.0,,,,,,,63.0,,,,,,0,note_on,,100.0,63.0,100.0,20046,10.440625
6103,11.0,,,,,,,56.0,,,,,,0,note_on,,127.0,56.0,127.0,20046,10.440625
6104,11.0,,,,,,,62.0,,,,,,0,note_on,,126.0,62.0,126.0,20046,10.440625
6105,11.0,,,,,,,53.0,,,,,,0,note_on,,127.0,53.0,127.0,20046,10.440625
6106,11.0,,,,,,,58.0,,,,,,0,note_on,,127.0,58.0,127.0,20046,10.440625
6107,,,,,,,,,,,,,ny ,0,lyrics,,,,,4414149808,2299036.3583333334
6108,9.0,,,,,,,28.0,,,,,,117,note_on,,0.0,28.0,0.0,67296,35.05
6109,9.0,,,,,,,39.0,,,,,,34,note_on,,0.0,39.0,0.0,67330,35.067708333333336
6110,3.0,,,,,,,77.0,,,,,,1,note_on,,0.0,77.0,0.0,42402,22.084375
6111,9.0,,,,,,,42.0,,,,,,72,note_on,,0.0,42.0,0.0,67402,35.10520833333333
6112,9.0,,,,,,,70.0,,,,,,0,note_on,,0.0,70.0,0.0,67402,35.10520833333333
6113,3.0,,,,,,,77.0,,,,,,256,note_on,,127.0,77.0,127.0,42658,22.217708333333334
6114,6.0,,,,,,,70.0,,,,,,0,note_on,,127.0,70.0,127.0,12833,6.683854166666666
6115,6.0,,,,,,,75.0,,,,,,0,note_on,,127.0,75.0,127.0,12833,6.683854166666666
6116,6.0,,,,,,,65.0,,,,,,0,note_on,,91.0,65.0,91.0,12833,6.683854166666666
6117,9.0,,,,,,,70.0,,,,,,0,note_on,,40.0,70.0,40.0,67402,35.10520833333333
6118,9.0,,,,,,,36.0,,,,,,0,note_on,,126.0,36.0,126.0,67402,35.10520833333333
6119,9.0,,,,,,,35.0,,,,,,0,note_on,,60.0,35.0,60.0,67402,35.10520833333333
6120,10.0,,,,,,,63.0,,,,,,0,note_on,,100.0,63.0,100.0,10801,5.625520833333333
6121,10.0,,,,,,,56.0,,,,,,0,note_on,,127.0,56.0,127.0,10801,5.625520833333333
6122,10.0,,,,,,,62.0,,,,,,0,note_on,,126.0,62.0,126.0,10801,5.625520833333333
6123,10.0,,,,,,,53.0,,,,,,0,note_on,,127.0,53.0,127.0,10801,5.625520833333333
6124,10.0,,,,,,,58.0,,,,,,0,note_on,,127.0,58.0,127.0,10801,5.625520833333333
6125,,,,,,,,,,,,,ring ,0,lyrics,,,,,4414149808,2299036.3583333334
6126,9.0,,,,,,,35.0,,,,,,166,note_on,,0.0,35.0,0.0,67568,35.19166666666666
6127,9.0,,,,,,,36.0,,,,,,0,note_on,,0.0,36.0,0.0,67568,35.19166666666666
6128,9.0,,,,,,,70.0,,,,,,58,note_on,,0.0,70.0,0.0,67626,35.221875
6129,6.0,,,,,,,,,-387.0,,,,192,pitchwheel,,,,,13025,6.783854166666667
6130,6.0,,,,,,,,,-1057.0,,,,8,pitchwheel,,,,,13033,6.788020833333333
6131,6.0,,,,,,,,,-1572.0,,,,9,pitchwheel,,,,,13042,6.792708333333334
6132,6.0,,,,,,,,,-2036.0,,,,8,pitchwheel,,,,,13050,6.796875
6133,6.0,,,,,,,,,-2705.0,,,,8,pitchwheel,,,,,13058,6.801041666666666
6134,6.0,,,,,,,,,-3401.0,,,,9,pitchwheel,,,,,13067,6.805729166666667
6135,6.0,,,,,,,,,-3762.0,,,,8,pitchwheel,,,,,13075,6.809895833333333
6136,6.0,,,,,,,,,-4303.0,,,,8,pitchwheel,,,,,13083,6.8140624999999995
6137,9.0,,,,,,,70.0,,,,,,6,note_on,,40.0,70.0,40.0,67632,35.225
6138,12.0,,,,,,,63.0,,,,,,0,note_on,,100.0,63.0,100.0,16341,8.5109375
6139,12.0,,,,,,,56.0,,,,,,0,note_on,,127.0,56.0,127.0,16341,8.5109375
6140,12.0,,,,,,,62.0,,,,,,0,note_on,,126.0,62.0,126.0,16341,8.5109375
6141,12.0,,,,,,,53.0,,,,,,0,note_on,,127.0,53.0,127.0,16341,8.5109375
6142,12.0,,,,,,,58.0,,,,,,0,note_on,,127.0,58.0,127.0,16341,8.5109375
6143,6.0,,,,,,,,,-5075.0,,,,3,pitchwheel,,,,,13086,6.815625
6144,6.0,,,,,,,,,-5591.0,,,,8,pitchwheel,,,,,13094,6.819791666666666
6145,6.0,,,,,,,,,-5951.0,,,,8,pitchwheel,,,,,13102,6.823958333333334
6146,6.0,,,,,,,,,-6647.0,,,,11,pitchwheel,,,,,13113,6.8296874999999995
6147,6.0,,,,,,,,,-6904.0,,,,6,pitchwheel,,,,,13119,6.8328125
6148,6.0,,,,,,,,,-7188.0,,,,8,pitchwheel,,,,,13127,6.836979166666667
6149,6.0,,,,,,,,,-7626.0,,,,11,pitchwheel,,,,,13138,6.842708333333333
6150,6.0,,,,,,,,,-7729.0,,,,10,pitchwheel,,,,,13148,6.847916666666666
6151,6.0,,,,,,,,,-7909.0,,,,6,pitchwheel,,,,,13154,6.851041666666666
6152,6.0,,,,,,,,,-8038.0,,,,9,pitchwheel,,,,,13163,6.855729166666666
6153,6.0,,,,,,,,,-8167.0,,,,6,pitchwheel,,,,,13169,6.858854166666666
6154,6.0,,,,,,,,,-8192.0,,,,8,pitchwheel,,,,,13177,6.863020833333334
6155,6.0,,,,,,,,,-8089.0,,,,33,pitchwheel,,,,,13210,6.880208333333333
6156,6.0,,,,,,,,,-7780.0,,,,11,pitchwheel,,,,,13221,6.8859375
6157,3.0,,,,,,,77.0,,,,,,7,note_on,,0.0,77.0,0.0,42665,22.221354166666668
6158,6.0,,,,,,,,,-7548.0,,,,3,pitchwheel,,,,,13224,6.8875
6159,6.0,,,,,,,,,-7111.0,,,,9,pitchwheel,,,,,13233,6.8921874999999995
6160,6.0,,,,,,,,,-6570.0,,,,6,pitchwheel,,,,,13239,6.8953125
6161,6.0,,,,,,,,,-5848.0,,,,8,pitchwheel,,,,,13247,6.899479166666667
6162,6.0,,,,,,,,,-3968.0,,,,10,pitchwheel,,,,,13257,6.9046875
6163,6.0,,,,,,,,,-1752.0,,,,8,pitchwheel,,,,,13265,6.908854166666667
6164,6.0,,,,,,,,,0.0,,,,10,pitchwheel,,,,,13275,6.9140625
6165,6.0,,,,,,,,,1416.0,,,,9,pitchwheel,,,,,13284,6.91875
6166,6.0,,,,,,,,,1159.0,,,,8,pitchwheel,,,,,13292,6.922916666666667
6167,9.0,,,,,,,70.0,,,,,,8,note_on,,0.0,70.0,0.0,67640,35.229166666666664
6168,6.0,,,,,,,,,77.0,,,,0,pitchwheel,,,,,13292,6.922916666666667
6169,6.0,,,,,,,,,0.0,,,,11,pitchwheel,,,,,13303,6.928645833333333
6170,11.0,,,,,,,63.0,,,,,,245,note_on,,0.0,63.0,0.0,20291,10.568229166666667
6171,3.0,,,,,,,75.0,,,,,,0,note_on,,127.0,75.0,127.0,42665,22.221354166666668
6172,9.0,,,,,,,70.0,,,,,,0,note_on,,40.0,70.0,40.0,67640,35.229166666666664
6173,11.0,,,,,,,63.0,,,,,,0,note_on,,127.0,63.0,127.0,20291,10.568229166666667
6174,,,,,,,,,,,,,And ,0,lyrics,,,,,4640802016,2417084.3833333333
6175,6.0,,,,,,,65.0,,,,,,115,note_on,,0.0,65.0,0.0,13418,6.988541666666666
6176,3.0,,,,,,,75.0,,,,,,56,note_on,,0.0,75.0,0.0,42721,22.250520833333333
6177,9.0,,,,,,,70.0,,,,,,53,note_on,,0.0,70.0,0.0,67693,35.256770833333334
6178,6.0,,,,,,,70.0,,,,,,248,note_on,,0.0,70.0,0.0,13666,7.117708333333333
6179,10.0,,,,,,,63.0,,,,,,8,note_on,,0.0,63.0,0.0,10809,5.6296875
6180,3.0,,,,,,,75.0,,,,,,0,note_on,,127.0,75.0,127.0,42721,22.250520833333333
6181,9.0,,,,,,,42.0,,,,,,0,note_on,,85.0,42.0,85.0,67693,35.256770833333334
6182,9.0,,,,,,,70.0,,,,,,0,note_on,,40.0,70.0,40.0,67693,35.256770833333334
6183,9.0,,,,,,,39.0,,,,,,0,note_on,,127.0,39.0,127.0,67693,35.256770833333334
6184,9.0,,,,,,,28.0,,,,,,0,note_on,,127.0,28.0,127.0,67693,35.256770833333334
6185,10.0,,,,,,,63.0,,,,,,0,note_on,,127.0,63.0,127.0,10809,5.6296875
6186,,,,,,,,,,,,,im ,0,lyrics,,,,,4640666928,2417014.025
6187,6.0,,,,,,,75.0,,,,,,4,note_on,,0.0,75.0,0.0,13670,7.119791666666667
6188,9.0,,,,,,,39.0,,,,,,119,note_on,,0.0,39.0,0.0,67812,35.31875
6189,9.0,,,,,,,28.0,,,,,,2,note_on,,0.0,28.0,0.0,67814,35.31979166666667
6190,3.0,,,,,,,75.0,,,,,,89,note_on,,0.0,75.0,0.0,42810,22.296875
6191,9.0,,,,,,,70.0,,,,,,10,note_on,,0.0,70.0,0.0,67824,35.325
6192,9.0,,,,,,,42.0,,,,,,0,note_on,,0.0,42.0,0.0,67824,35.325
6193,12.0,,,,,,,63.0,,,,,,256,note_on,,0.0,63.0,0.0,16597,8.644270833333334
6194,3.0,,,,,,,77.0,,,,,,0,note_on,,127.0,77.0,127.0,42810,22.296875
6195,9.0,,,,,,,70.0,,,,,,0,note_on,,40.0,70.0,40.0,67824,35.325
6196,12.0,,,,,,,63.0,,,,,,0,note_on,,127.0,63.0,127.0,16597,8.644270833333334
6197,,,,,,,,,,,,,in ,0,lyrics,,,,,4633580360,2413323.1041666665
6198,9.0,,,,,,,70.0,,,,,,224,note_on,,0.0,70.0,0.0,68048,35.44166666666666
6199,11.0,,,,,,,56.0,,,,,,9,note_on,,0.0,56.0,0.0,20300,10.572916666666666
6200,11.0,,,,,,,62.0,,,,,,4,note_on,,0.0,62.0,0.0,20304,10.575
6201,3.0,,,,,,,77.0,,,,,,190,note_on,,0.0,77.0,0.0,43000,22.395833333333332
6202,11.0,,,,,,,53.0,,,,,,11,note_on,,0.0,53.0,0.0,20315,10.580729166666666
6203,11.0,,,,,,,58.0,,,,,,31,note_on,,0.0,58.0,0.0,20346,10.596875
6204,11.0,,0.0,,,,,,,,,,,9,control_change,121.0,,,,20355,10.6015625
6205,11.0,,0.0,,,,,,,,,,,0,control_change,121.0,,,,20355,10.6015625
6206,11.0,,32.0,,,,,,,,,,,1,control_change,0.0,,,,20356,10.602083333333333
6207,11.0,,32.0,,,,,,,,,,,0,control_change,0.0,,,,20356,10.602083333333333
6208,9.0,,,,,,,57.0,,,,,,1,note_on,,100.0,57.0,100.0,68049,35.4421875
6209,3.0,,,,,,,79.0,,,,,,0,note_on,,100.0,79.0,100.0,43000,22.395833333333332
6210,9.0,,,,,,,70.0,,,,,,0,note_on,,40.0,70.0,40.0,68049,35.4421875
6211,9.0,,,,,,,35.0,,,,,,0,note_on,,60.0,35.0,60.0,68049,35.4421875
6212,11.0,,,,,,,67.0,,,,,,0,note_on,,127.0,67.0,127.0,20356,10.602083333333333
6213,11.0,,,,,,,63.0,,,,,,0,note_on,,127.0,63.0,127.0,20356,10.602083333333333
6214,11.0,,,,,,,70.0,,,,,,0,note_on,,126.0,70.0,126.0,20356,10.602083333333333
6215,9.0,,,,,,,36.0,,,,,,0,note_on,,126.0,36.0,126.0,68049,35.4421875
6216,9.0,,,,,,,42.0,,,,,,0,note_on,,85.0,42.0,85.0,68049,35.4421875
6217,11.0,,,,,,,,,,24.0,,,0,program_change,,,,,20356,10.602083333333333
6218,,,,,,,,,,,,,pie ,0,lyrics,,,,,4644457992,2418988.5375
6219,11.0,,,,,,,63.0,,,,,,15,note_on,,0.0,63.0,0.0,20371,10.609895833333333
6220,9.0,,,,,,,57.0,,,,,,99,note_on,,0.0,57.0,0.0,68148,35.49375
6221,9.0,,,,,,,36.0,,,,,,58,note_on,,0.0,36.0,0.0,68206,35.52395833333333
6222,9.0,,,,,,,35.0,,,,,,0,note_on,,0.0,35.0,0.0,68206,35.52395833333333
6223,9.0,,,,,,,42.0,,,,,,52,note_on,,0.0,42.0,0.0,68258,35.55104166666666
6224,9.0,,,,,,,70.0,,,,,,0,note_on,,0.0,70.0,0.0,68258,35.55104166666666
6225,10.0,,,,,,,56.0,,,,,,9,note_on,,0.0,56.0,0.0,10818,5.634375
6226,10.0,,,,,,,62.0,,,,,,4,note_on,,0.0,62.0,0.0,10822,5.636458333333334
6227,11.0,,,,,,,63.0,,,,,,160,note_on,,0.0,63.0,0.0,20531,10.693229166666667
6228,11.0,,,,,,,67.0,,,,,,10,note_on,,0.0,67.0,0.0,20541,10.6984375
6229,10.0,,,,,,,53.0,,,,,,31,note_on,,0.0,53.0,0.0,10853,5.652604166666666
6230,11.0,,,,,,,70.0,,,,,,21,note_on,,0.0,70.0,0.0,20562,10.709375
6231,10.0,,,,,,,58.0,,,,,,10,note_on,,0.0,58.0,0.0,10863,5.6578125
6232,10.0,,0.0,,,,,,,,,,,9,control_change,121.0,,,,10872,5.6625
6233,10.0,,0.0,,,,,,,,,,,0,control_change,121.0,,,,10872,5.6625
6234,10.0,,32.0,,,,,,,,,,,1,control_change,0.0,,,,10873,5.663020833333333
6235,10.0,,32.0,,,,,,,,,,,0,control_change,0.0,,,,10873,5.663020833333333
6236,10.0,,,,,,,70.0,,,,,,1,note_on,,126.0,70.0,126.0,10874,5.663541666666666
6237,9.0,,,,,,,70.0,,,,,,0,note_on,,40.0,70.0,40.0,68258,35.55104166666666
6238,10.0,,,,,,,63.0,,,,,,0,note_on,,127.0,63.0,127.0,10874,5.663541666666666
6239,10.0,,,,,,,,,,24.0,,,0,program_change,,,,,10874,5.663541666666666
6240,10.0,,,,,,,67.0,,,,,,0,note_on,,127.0,67.0,127.0,10874,5.663541666666666
6241,10.0,,,,,,,63.0,,,,,,15,note_on,,0.0,63.0,0.0,10889,5.671354166666666
6242,3.0,,,,,,,79.0,,,,,,105,note_on,,0.0,79.0,0.0,43105,22.450520833333332
6243,9.0,,,,,,,70.0,,,,,,104,note_on,,0.0,70.0,0.0,68362,35.60520833333333
6244,12.0,,,,,,,56.0,,,,,,9,note_on,,0.0,56.0,0.0,16606,8.648958333333333
6245,12.0,,,,,,,62.0,,,,,,4,note_on,,0.0,62.0,0.0,16610,8.651041666666666
6246,9.0,,,,,,,36.0,,,,,,3,note_on,,126.0,36.0,126.0,68365,35.606770833333336
6247,9.0,,,,,,,35.0,,,,,,0,note_on,,60.0,35.0,60.0,68365,35.606770833333336
6248,10.0,,,,,,,63.0,,,,,,157,note_on,,0.0,63.0,0.0,11046,5.753125
6249,10.0,,,,,,,67.0,,,,,,10,note_on,,0.0,67.0,0.0,11056,5.758333333333333
6250,12.0,,,,,,,53.0,,,,,,31,note_on,,0.0,53.0,0.0,16641,8.6671875
6251,10.0,,,,,,,70.0,,,,,,21,note_on,,0.0,70.0,0.0,11077,5.769270833333334
6252,9.0,,,,,,,36.0,,,,,,5,note_on,,0.0,36.0,0.0,68370,35.609375
6253,9.0,,,,,,,35.0,,,,,,0,note_on,,0.0,35.0,0.0,68370,35.609375
6254,12.0,,,,,,,58.0,,,,,,5,note_on,,0.0,58.0,0.0,16646,8.669791666666667
6255,12.0,,0.0,,,,,,,,,,,9,control_change,121.0,,,,16655,8.674479166666666
6256,12.0,,32.0,,,,,,,,,,,1,control_change,0.0,,,,16656,8.675
6257,3.0,,,,,,,75.0,,,,,,1,note_on,,127.0,75.0,127.0,43106,22.451041666666665
6258,9.0,,,,,,,39.0,,,,,,0,note_on,,125.0,39.0,125.0,68370,35.609375
6259,9.0,,,,,,,28.0,,,,,,0,note_on,,127.0,28.0,127.0,68370,35.609375
6260,9.0,,,,,,,42.0,,,,,,0,note_on,,85.0,42.0,85.0,68370,35.609375
6261,9.0,,,,,,,70.0,,,,,,0,note_on,,40.0,70.0,40.0,68370,35.609375
6262,12.0,,,,,,,67.0,,,,,,0,note_on,,127.0,67.0,127.0,16656,8.675
6263,12.0,,,,,,,63.0,,,,,,0,note_on,,127.0,63.0,127.0,16656,8.675
6264,12.0,,,,,,,70.0,,,,,,0,note_on,,126.0,70.0,126.0,16656,8.675
6265,12.0,,0.0,,,,,,,,,,,0,control_change,121.0,,,,16656,8.675
6266,12.0,,32.0,,,,,,,,,,,0,control_change,0.0,,,,16656,8.675
6267,12.0,,,,,,,,,,24.0,,,0,program_change,,,,,16656,8.675
6268,,,,,,,,,,,,,ces ,0,lyrics,,,,,4665263920,2429824.9583333335
6269,12.0,,,,,,,63.0,,,,,,15,note_on,,0.0,63.0,0.0,16671,8.6828125
6270,9.0,,,,,,,28.0,,,,,,102,note_on,,0.0,28.0,0.0,68472,35.6625
6271,9.0,,,,,,,39.0,,,,,,34,note_on,,0.0,39.0,0.0,68506,35.68020833333333
6272,9.0,,,,,,,42.0,,,,,,73,note_on,,0.0,42.0,0.0,68579,35.71822916666667
6273,9.0,,,,,,,70.0,,,,,,0,note_on,,0.0,70.0,0.0,68579,35.71822916666667
6274,12.0,,,,,,,63.0,,,,,,173,note_on,,0.0,63.0,0.0,16844,8.772916666666667
6275,12.0,,,,,,,67.0,,,,,,10,note_on,,0.0,67.0,0.0,16854,8.778125
6276,12.0,,,,,,,70.0,,,,,,52,note_on,,0.0,70.0,0.0,16906,8.805208333333333
6277,9.0,,,,,,,70.0,,,,,,21,note_on,,40.0,70.0,40.0,68600,35.729166666666664
6278,9.0,,,,,,,36.0,,,,,,0,note_on,,126.0,36.0,126.0,68600,35.729166666666664
6279,9.0,,,,,,,35.0,,,,,,0,note_on,,60.0,35.0,60.0,68600,35.729166666666664
6280,9.0,,,,,,,35.0,,,,,,166,note_on,,0.0,35.0,0.0,68766,35.815625
6281,9.0,,,,,,,36.0,,,,,,0,note_on,,0.0,36.0,0.0,68766,35.815625
6282,9.0,,,,,,,70.0,,,,,,58,note_on,,0.0,70.0,0.0,68824,35.84583333333333
6283,3.0,,,,,,,75.0,,,,,,137,note_on,,0.0,75.0,0.0,43243,22.522395833333334
6284,6.0,,,,,,,70.0,,,,,,119,note_on,,127.0,70.0,127.0,13789,7.181770833333333
6285,6.0,,,,,,,75.0,,,,,,0,note_on,,127.0,75.0,127.0,13789,7.181770833333333
6286,6.0,,,,,,,67.0,,,,,,0,note_on,,127.0,67.0,127.0,13789,7.181770833333333
6287,9.0,,,,,,,42.0,,,,,,0,note_on,,85.0,42.0,85.0,68824,35.84583333333333
6288,9.0,,,,,,,70.0,,,,,,0,note_on,,40.0,70.0,40.0,68824,35.84583333333333
6289,9.0,,,,,,,70.0,,,,,,224,note_on,,0.0,70.0,0.0,69048,35.9625
6290,9.0,,,,,,,42.0,,,,,,0,note_on,,0.0,42.0,0.0,69048,35.9625
6291,6.0,,,,,,,67.0,,,,,,227,note_on,,0.0,67.0,0.0,14016,7.3
6292,9.0,,,,,,,70.0,,,,,,29,note_on,,40.0,70.0,40.0,69077,35.977604166666666
6293,9.0,,,,,,,36.0,,,,,,0,note_on,,126.0,36.0,126.0,69077,35.977604166666666
6294,9.0,,,,,,,35.0,,,,,,0,note_on,,60.0,35.0,60.0,69077,35.977604166666666
6295,6.0,,,,,,,70.0,,,,,,60,note_on,,0.0,70.0,0.0,14076,7.33125
6296,6.0,,,,,,,75.0,,,,,,17,note_on,,0.0,75.0,0.0,14093,7.340104166666666
6297,9.0,,,,,,,36.0,,,,,,77,note_on,,0.0,36.0,0.0,69154,36.01770833333333
6298,9.0,,,,,,,35.0,,,,,,0,note_on,,0.0,35.0,0.0,69154,36.01770833333333
6299,9.0,,,,,,,70.0,,,,,,70,note_on,,0.0,70.0,0.0,69224,36.05416666666667
6300,3.0,,,,,,,75.0,,,,,,256,note_on,,127.0,75.0,127.0,43499,22.655729166666667
6301,9.0,,,,,,,42.0,,,,,,0,note_on,,85.0,42.0,85.0,69224,36.05416666666667
6302,9.0,,,,,,,70.0,,,,,,0,note_on,,40.0,70.0,40.0,69224,36.05416666666667
6303,9.0,,,,,,,39.0,,,,,,0,note_on,,127.0,39.0,127.0,69224,36.05416666666667
6304,9.0,,,,,,,28.0,,,,,,0,note_on,,127.0,28.0,127.0,69224,36.05416666666667
6305,11.0,,,,,,,67.0,,,,,,0,note_on,,127.0,67.0,127.0,20562,10.709375
6306,11.0,,,,,,,72.0,,,,,,0,note_on,,127.0,72.0,127.0,20562,10.709375
6307,11.0,,,,,,,63.0,,,,,,0,note_on,,127.0,63.0,127.0,20562,10.709375
6308,,,,,,,,,,,,,Ba ,0,lyrics,,,,,0,0.0
6309,9.0,,,,,,,39.0,,,,,,123,note_on,,0.0,39.0,0.0,69347,36.118229166666666
6310,9.0,,,,,,,28.0,,,,,,2,note_on,,0.0,28.0,0.0,69349,36.11927083333333
6311,9.0,,,,,,,70.0,,,,,,99,note_on,,0.0,70.0,0.0,69448,36.170833333333334
6312,9.0,,,,,,,42.0,,,,,,0,note_on,,0.0,42.0,0.0,69448,36.170833333333334
6313,11.0,,,,,,,63.0,,,,,,141,note_on,,0.0,63.0,0.0,20703,10.7828125
6314,11.0,,,,,,,72.0,,,,,,15,note_on,,0.0,72.0,0.0,20718,10.790625
6315,3.0,,,,,,,75.0,,,,,,5,note_on,,0.0,75.0,0.0,43504,22.65833333333333
6316,11.0,,,,,,,67.0,,,,,,3,note_on,,0.0,67.0,0.0,20721,10.7921875
6317,3.0,,,,,,,77.0,,,,,,92,note_on,,123.0,77.0,123.0,43596,22.70625
6318,9.0,,,,,,,70.0,,,,,,0,note_on,,40.0,70.0,40.0,69448,36.170833333333334
6319,10.0,,,,,,,67.0,,,,,,0,note_on,,127.0,67.0,127.0,11077,5.769270833333334
6320,10.0,,,,,,,72.0,,,,,,0,note_on,,127.0,72.0,127.0,11077,5.769270833333334
6321,10.0,,,,,,,63.0,,,,,,0,note_on,,127.0,63.0,127.0,11077,5.769270833333334
6322,11.0,,,,,,,67.0,,,,,,0,note_on,,127.0,67.0,127.0,20721,10.7921875
6323,11.0,,,,,,,70.0,,,,,,0,note_on,,118.0,70.0,118.0,20721,10.7921875
6324,11.0,,,,,,,63.0,,,,,,0,note_on,,127.0,63.0,127.0,20721,10.7921875
6325,,,,,,,,,,,,,by ,0,lyrics,,,,,0,0.0
6326,3.0,,,,,,,77.0,,,,,,180,note_on,,0.0,77.0,0.0,43776,22.8
6327,9.0,,,,,,,70.0,,,,,,44,note_on,,0.0,70.0,0.0,69492,36.19375
6328,10.0,,,,,,,63.0,,,,,,141,note_on,,0.0,63.0,0.0,11218,5.842708333333333
6329,10.0,,,,,,,72.0,,,,,,15,note_on,,0.0,72.0,0.0,11233,5.850520833333333
6330,10.0,,,,,,,67.0,,,,,,8,note_on,,0.0,67.0,0.0,11241,5.8546875
6331,11.0,,,,,,,70.0,,,,,,38,note_on,,0.0,70.0,0.0,20759,10.811979166666667
6332,11.0,,,,,,,63.0,,,,,,0,note_on,,0.0,63.0,0.0,20759,10.811979166666667
6333,11.0,,,,,,,67.0,,,,,,3,note_on,,0.0,67.0,0.0,20762,10.813541666666666
6334,3.0,,,,,,,79.0,,,,,,51,note_on,,127.0,79.0,127.0,43827,22.8265625
6335,9.0,,,,,,,42.0,,,,,,0,note_on,,85.0,42.0,85.0,69492,36.19375
6336,9.0,,,,,,,70.0,,,,,,0,note_on,,40.0,70.0,40.0,69492,36.19375
6337,9.0,,,,,,,36.0,,,,,,0,note_on,,126.0,36.0,126.0,69492,36.19375
6338,9.0,,,,,,,35.0,,,,,,0,note_on,,60.0,35.0,60.0,69492,36.19375
6339,10.0,,,,,,,67.0,,,,,,0,note_on,,127.0,67.0,127.0,11241,5.8546875
6340,10.0,,,,,,,70.0,,,,,,0,note_on,,118.0,70.0,118.0,11241,5.8546875
6341,10.0,,,,,,,63.0,,,,,,0,note_on,,127.0,63.0,127.0,11241,5.8546875
6342,12.0,,,,,,,67.0,,,,,,0,note_on,,127.0,67.0,127.0,16906,8.805208333333333
6343,12.0,,,,,,,72.0,,,,,,0,note_on,,127.0,72.0,127.0,16906,8.805208333333333
6344,12.0,,,,,,,63.0,,,,,,0,note_on,,127.0,63.0,127.0,16906,8.805208333333333
6345,,,,,,,,,,,,,fix ,0,lyrics,,,,,4663417552,2428863.308333333
6346,9.0,,,,,,,35.0,,,,,,172,note_on,,0.0,35.0,0.0,69664,36.28333333333333
6347,9.0,,,,,,,36.0,,,,,,0,note_on,,0.0,36.0,0.0,69664,36.28333333333333
6348,9.0,,,,,,,70.0,,,,,,52,note_on,,0.0,70.0,0.0,69716,36.31041666666667
6349,9.0,,,,,,,42.0,,,,,,0,note_on,,0.0,42.0,0.0,69716,36.31041666666667
6350,12.0,,,,,,,63.0,,,,,,141,note_on,,0.0,63.0,0.0,17047,8.878645833333334
6351,12.0,,,,,,,72.0,,,,,,15,note_on,,0.0,72.0,0.0,17062,8.886458333333334
6352,12.0,,,,,,,67.0,,,,,,8,note_on,,0.0,67.0,0.0,17070,8.890625
6353,10.0,,,,,,,70.0,,,,,,38,note_on,,0.0,70.0,0.0,11279,5.874479166666666
6354,10.0,,,,,,,63.0,,,,,,0,note_on,,0.0,63.0,0.0,11279,5.874479166666666
6355,10.0,,,,,,,67.0,,,,,,3,note_on,,0.0,67.0,0.0,11282,5.876041666666667
6356,9.0,,,,,,,70.0,,,,,,51,note_on,,40.0,70.0,40.0,69767,36.336979166666666
6357,12.0,,,,,,,67.0,,,,,,0,note_on,,127.0,67.0,127.0,17070,8.890625
6358,12.0,,,,,,,70.0,,,,,,0,note_on,,118.0,70.0,118.0,17070,8.890625
6359,12.0,,,,,,,63.0,,,,,,0,note_on,,127.0,63.0,127.0,17070,8.890625
6360,3.0,,,,,,,79.0,,,,,,24,note_on,,0.0,79.0,0.0,43851,22.8390625
6361,9.0,,,,,,,70.0,,,,,,200,note_on,,0.0,70.0,0.0,69967,36.44114583333333
6362,9.0,,,,,,,36.0,,,,,,16,note_on,,126.0,36.0,126.0,69983,36.44947916666666
6363,9.0,,,,,,,35.0,,,,,,0,note_on,,60.0,35.0,60.0,69983,36.44947916666666
6364,12.0,,,,,,,70.0,,,,,,186,note_on,,0.0,70.0,0.0,17256,8.9875
6365,12.0,,,,,,,63.0,,,,,,0,note_on,,0.0,63.0,0.0,17256,8.9875
6366,12.0,,,,,,,67.0,,,,,,3,note_on,,0.0,67.0,0.0,17259,8.9890625
6367,9.0,,,,,,,36.0,,,,,,35,note_on,,0.0,36.0,0.0,70018,36.467708333333334
6368,9.0,,,,,,,35.0,,,,,,0,note_on,,0.0,35.0,0.0,70018,36.467708333333334
6369,3.0,,,,,,,79.0,,,,,,16,note_on,,127.0,79.0,127.0,43867,22.847395833333334
6370,9.0,,,,,,,42.0,,,,,,0,note_on,,85.0,42.0,85.0,70018,36.467708333333334
6371,9.0,,,,,,,70.0,,,,,,0,note_on,,40.0,70.0,40.0,70018,36.467708333333334
6372,9.0,,,,,,,39.0,,,,,,0,note_on,,125.0,39.0,125.0,70018,36.467708333333334
6373,9.0,,,,,,,28.0,,,,,,0,note_on,,127.0,28.0,127.0,70018,36.467708333333334
6374,,,,,,,,,,,,,me ,0,lyrics,,,,,0,0.0
6375,9.0,,,,,,,28.0,,,,,,117,note_on,,0.0,28.0,0.0,70135,36.528645833333336
6376,9.0,,,,,,,39.0,,,,,,34,note_on,,0.0,39.0,0.0,70169,36.54635416666667
6377,9.0,,,,,,,70.0,,,,,,73,note_on,,0.0,70.0,0.0,70242,36.584375
6378,9.0,,,,,,,42.0,,,,,,0,note_on,,0.0,42.0,0.0,70242,36.584375
6379,6.0,,,,,,,70.0,,,,,,256,note_on,,127.0,70.0,127.0,14349,7.4734375
6380,6.0,,,,,,,75.0,,,,,,0,note_on,,127.0,75.0,127.0,14349,7.4734375
6381,6.0,,,,,,,67.0,,,,,,0,note_on,,127.0,67.0,127.0,14349,7.4734375
6382,9.0,,,,,,,46.0,,,,,,0,note_on,,100.0,46.0,100.0,70242,36.584375
6383,9.0,,,,,,,70.0,,,,,,0,note_on,,40.0,70.0,40.0,70242,36.584375
6384,9.0,,,,,,,36.0,,,,,,0,note_on,,126.0,36.0,126.0,70242,36.584375
6385,9.0,,,,,,,35.0,,,,,,0,note_on,,60.0,35.0,60.0,70242,36.584375
6386,9.0,,,,,,,35.0,,,,,,166,note_on,,0.0,35.0,0.0,70408,36.670833333333334
6387,9.0,,,,,,,36.0,,,,,,0,note_on,,0.0,36.0,0.0,70408,36.670833333333334
6388,9.0,,,,,,,46.0,,,,,,58,note_on,,0.0,46.0,0.0,70466,36.70104166666667
6389,9.0,,,,,,,70.0,,,,,,0,note_on,,0.0,70.0,0.0,70466,36.70104166666667
6390,3.0,,,,,,,79.0,,,,,,20,note_on,,0.0,79.0,0.0,43887,22.8578125
6391,6.0,,,,,,,,,-464.0,,,,185,pitchwheel,,,,,14534,7.569791666666666
6392,6.0,,,,,,,,,-979.0,,,,8,pitchwheel,,,,,14542,7.573958333333334
6393,6.0,,,,,,,,,-1572.0,,,,13,pitchwheel,,,,,14555,7.580729166666667
6394,6.0,,,,,,,,,-2010.0,,,,6,pitchwheel,,,,,14561,7.583854166666667
6395,6.0,,,,,,,,,-2499.0,,,,6,pitchwheel,,,,,14567,7.586979166666667
6396,6.0,,,,,,,,,-3221.0,,,,10,pitchwheel,,,,,14577,7.5921875
6397,9.0,,,,,,,46.0,,,,,,8,note_on,,100.0,46.0,100.0,70474,36.70520833333333
6398,9.0,,,,,,,70.0,,,,,,0,note_on,,40.0,70.0,40.0,70474,36.70520833333333
6399,6.0,,,,,,,,,-3556.0,,,,1,pitchwheel,,,,,14578,7.592708333333333
6400,6.0,,,,,,,,,-4148.0,,,,6,pitchwheel,,,,,14584,7.595833333333333
6401,6.0,,,,,,,,,-4637.0,,,,10,pitchwheel,,,,,14594,7.601041666666666
6402,6.0,,,,,,,,,-4998.0,,,,9,pitchwheel,,,,,14603,7.605729166666666
6403,6.0,,,,,,,,,-5462.0,,,,8,pitchwheel,,,,,14611,7.609895833333333
6404,6.0,,,,,,,,,-5616.0,,,,10,pitchwheel,,,,,14621,7.615104166666667
6405,6.0,,,,,,,,,-5848.0,,,,9,pitchwheel,,,,,14630,7.619791666666667
6406,6.0,,,,,,,,,-6003.0,,,,10,pitchwheel,,,,,14640,7.625
6407,6.0,,,,,,,,,-6132.0,,,,19,pitchwheel,,,,,14659,7.634895833333333
6408,6.0,,,,,,,,,-6209.0,,,,8,pitchwheel,,,,,14667,7.6390625
6409,6.0,,,,,,,,,-6286.0,,,,17,pitchwheel,,,,,14684,7.647916666666666
6410,6.0,,,,,,,,,-6054.0,,,,16,pitchwheel,,,,,14700,7.65625
6411,6.0,,,,,,,,,-5926.0,,,,17,pitchwheel,,,,,14717,7.665104166666667
6412,6.0,,,,,,,,,-5668.0,,,,8,pitchwheel,,,,,14725,7.669270833333333
6413,6.0,,,,,,,,,-5282.0,,,,9,pitchwheel,,,,,14734,7.673958333333333
6414,6.0,,,,,,,,,-4741.0,,,,8,pitchwheel,,,,,14742,7.678125
6415,6.0,,,,,,,,,-4148.0,,,,10,pitchwheel,,,,,14752,7.683333333333334
6416,6.0,,,,,,,,,-3787.0,,,,7,pitchwheel,,,,,14759,7.686979166666666
6417,6.0,,,,,,,,,-3298.0,,,,8,pitchwheel,,,,,14767,7.691145833333334
6418,6.0,,,,,,,,,-2577.0,,,,8,pitchwheel,,,,,14775,7.6953125
6419,6.0,,,,,,,,,-2113.0,,,,11,pitchwheel,,,,,14786,7.701041666666667
6420,6.0,,,,,,,,,-1495.0,,,,12,pitchwheel,,,,,14798,7.707291666666666
6421,9.0,,,,,,,70.0,,,,,,3,note_on,,0.0,70.0,0.0,70477,36.70677083333333
6422,9.0,,,,,,,46.0,,,,,,0,note_on,,0.0,46.0,0.0,70477,36.70677083333333
6423,6.0,,,,,,,,,-902.0,,,,1,pitchwheel,,,,,14799,7.7078125
6424,6.0,,,,,,,,,-361.0,,,,9,pitchwheel,,,,,14808,7.7124999999999995
6425,6.0,,,,,,,,,0.0,,,,8,pitchwheel,,,,,14816,7.716666666666667
6426,9.0,,,,,,,70.0,,,,,,238,note_on,,40.0,70.0,40.0,70715,36.830729166666664
6427,9.0,,,,,,,36.0,,,,,,0,note_on,,126.0,36.0,126.0,70715,36.830729166666664
6428,9.0,,,,,,,35.0,,,,,,0,note_on,,60.0,35.0,60.0,70715,36.830729166666664
6429,6.0,,,,,,,67.0,,,,,,36,note_on,,0.0,67.0,0.0,14852,7.735416666666667
6430,9.0,,,,,,,36.0,,,,,,118,note_on,,0.0,36.0,0.0,70833,36.8921875
6431,9.0,,,,,,,35.0,,,,,,0,note_on,,0.0,35.0,0.0,70833,36.8921875
6432,9.0,,,,,,,70.0,,,,,,70,note_on,,0.0,70.0,0.0,70903,36.928645833333334
6433,6.0,,,,,,,75.0,,,,,,16,note_on,,0.0,75.0,0.0,14868,7.7437499999999995
6434,6.0,,,,,,,70.0,,,,,,0,note_on,,0.0,70.0,0.0,14868,7.7437499999999995
6435,3.0,,,,,,,75.0,,,,,,240,note_on,,127.0,75.0,127.0,44127,22.9828125
6436,9.0,,,,,,,42.0,,,,,,0,note_on,,85.0,42.0,85.0,70903,36.928645833333334
6437,9.0,,,,,,,70.0,,,,,,0,note_on,,40.0,70.0,40.0,70903,36.928645833333334
6438,9.0,,,,,,,39.0,,,,,,0,note_on,,127.0,39.0,127.0,70903,36.928645833333334
6439,9.0,,,,,,,28.0,,,,,,0,note_on,,127.0,28.0,127.0,70903,36.928645833333334
6440,,,,,,,,,,,,,And ,0,lyrics,,,,,2,0.0010416666666666667
6441,9.0,,,,,,,39.0,,,,,,123,note_on,,0.0,39.0,0.0,71026,36.99270833333333
6442,9.0,,,,,,,28.0,,,,,,2,note_on,,0.0,28.0,0.0,71028,36.99375
6443,3.0,,,,,,,75.0,,,,,,54,note_on,,0.0,75.0,0.0,44181,23.0109375
6444,9.0,,,,,,,70.0,,,,,,45,note_on,,0.0,70.0,0.0,71073,37.0171875
6445,9.0,,,,,,,42.0,,,,,,0,note_on,,0.0,42.0,0.0,71073,37.0171875
6446,3.0,,,,,,,77.0,,,,,,256,note_on,,127.0,77.0,127.0,44437,23.144270833333334
6447,9.0,,,,,,,61.0,,,,,,0,note_on,,100.0,61.0,100.0,71073,37.0171875
6448,9.0,,,,,,,70.0,,,,,,0,note_on,,40.0,70.0,40.0,71073,37.0171875
6449,,,,,,,,,,,,,just ,0,lyrics,,,,,4413200224,2298541.783333333
6450,9.0,,,,,,,61.0,,,,,,114,note_on,,0.0,61.0,0.0,71187,37.0765625
6451,9.0,,,,,,,61.0,,,,,,6,note_on,,100.0,61.0,100.0,71193,37.0796875
6452,3.0,,,,,,,77.0,,,,,,47,note_on,,0.0,77.0,0.0,44484,23.16875
6453,9.0,,,,,,,70.0,,,,,,57,note_on,,0.0,70.0,0.0,71250,37.109375
6454,9.0,,,,,,,61.0,,,,,,10,note_on,,0.0,61.0,0.0,71260,37.114583333333336
6455,9.0,,,,,,,61.0,,,,,,6,note_on,,100.0,61.0,100.0,71266,37.11770833333333
6456,9.0,,,,,,,61.0,,,,,,114,note_on,,0.0,61.0,0.0,71380,37.177083333333336
6457,9.0,,,,,,,61.0,,,,,,6,note_on,,100.0,61.0,100.0,71386,37.18020833333333
6458,9.0,,,,,,,61.0,,,,,,114,note_on,,0.0,61.0,0.0,71500,37.239583333333336
6459,3.0,,,,,,,79.0,,,,,,6,note_on,,127.0,79.0,127.0,44490,23.171875
6460,9.0,,,,,,,61.0,,,,,,0,note_on,,100.0,61.0,100.0,71500,37.239583333333336
6461,9.0,,,,,,,42.0,,,,,,0,note_on,,85.0,42.0,85.0,71500,37.239583333333336
6462,9.0,,,,,,,70.0,,,,,,0,note_on,,40.0,70.0,40.0,71500,37.239583333333336
6463,9.0,,,,,,,36.0,,,,,,0,note_on,,126.0,36.0,126.0,71500,37.239583333333336
6464,9.0,,,,,,,35.0,,,,,,0,note_on,,60.0,35.0,60.0,71500,37.239583333333336
6465,11.0,,,,,,,63.0,,,,,,0,note_on,,127.0,63.0,127.0,20762,10.813541666666666
6466,11.0,,,,,,,60.0,,,,,,0,note_on,,127.0,60.0,127.0,20762,10.813541666666666
6467,11.0,,,,,,,67.0,,,,,,0,note_on,,127.0,67.0,127.0,20762,10.813541666666666
6468,,,,,,,,,,,,,shake ,0,lyrics,,,,,4667335680,2430904.0
6469,9.0,,,,,,,61.0,,,,,,114,note_on,,0.0,61.0,0.0,71614,37.29895833333333
6470,3.0,,,,,,,79.0,,,,,,52,note_on,,0.0,79.0,0.0,44542,23.198958333333334
6471,9.0,,,,,,,36.0,,,,,,6,note_on,,0.0,36.0,0.0,71620,37.302083333333336
6472,9.0,,,,,,,35.0,,,,,,0,note_on,,0.0,35.0,0.0,71620,37.302083333333336
6473,9.0,,,,,,,70.0,,,,,,52,note_on,,0.0,70.0,0.0,71672,37.329166666666666
6474,9.0,,,,,,,42.0,,,,,,0,note_on,,0.0,42.0,0.0,71672,37.329166666666666
6475,11.0,,,,,,,60.0,,,,,,180,note_on,,0.0,60.0,0.0,20942,10.907291666666666
6476,11.0,,,,,,,63.0,,,,,,32,note_on,,0.0,63.0,0.0,20974,10.923958333333333
6477,11.0,,,,,,,67.0,,,,,,6,note_on,,0.0,67.0,0.0,20980,10.927083333333334
6478,3.0,,,,,,,79.0,,,,,,38,note_on,,127.0,79.0,127.0,44580,23.21875
6479,9.0,,,,,,,70.0,,,,,,0,note_on,,40.0,70.0,40.0,71672,37.329166666666666
6480,10.0,,,,,,,63.0,,,,,,0,note_on,,127.0,63.0,127.0,11282,5.876041666666667
6481,10.0,,,,,,,60.0,,,,,,0,note_on,,127.0,60.0,127.0,11282,5.876041666666667
6482,10.0,,,,,,,67.0,,,,,,0,note_on,,127.0,67.0,127.0,11282,5.876041666666667
6483,,,,,,,,,,,,,me ,0,lyrics,,,,,4667336240,2430904.2916666665
6484,3.0,,,,,,,79.0,,,,,,176,note_on,,0.0,79.0,0.0,44756,23.310416666666665
6485,9.0,,,,,,,70.0,,,,,,48,note_on,,0.0,70.0,0.0,71720,37.354166666666664
6486,9.0,,,,,,,36.0,,,,,,16,note_on,,126.0,36.0,126.0,71736,37.3625
6487,9.0,,,,,,,35.0,,,,,,0,note_on,,60.0,35.0,60.0,71736,37.3625
6488,10.0,,,,,,,60.0,,,,,,164,note_on,,0.0,60.0,0.0,11446,5.961458333333333
6489,10.0,,,,,,,63.0,,,,,,32,note_on,,0.0,63.0,0.0,11478,5.978125
6490,10.0,,,,,,,67.0,,,,,,6,note_on,,0.0,67.0,0.0,11484,5.98125
6491,9.0,,,,,,,35.0,,,,,,22,note_on,,0.0,35.0,0.0,71758,37.373958333333334
6492,9.0,,,,,,,36.0,,,,,,0,note_on,,0.0,36.0,0.0,71758,37.373958333333334
6493,3.0,,,,,,,77.0,,,,,,16,note_on,,127.0,77.0,127.0,44772,23.31875
6494,9.0,,,,,,,42.0,,,,,,0,note_on,,85.0,42.0,85.0,71758,37.373958333333334
6495,9.0,,,,,,,70.0,,,,,,0,note_on,,40.0,70.0,40.0,71758,37.373958333333334
6496,9.0,,,,,,,39.0,,,,,,0,note_on,,125.0,39.0,125.0,71758,37.373958333333334
6497,9.0,,,,,,,28.0,,,,,,0,note_on,,127.0,28.0,127.0,71758,37.373958333333334
6498,12.0,,,,,,,63.0,,,,,,0,note_on,,127.0,63.0,127.0,17259,8.9890625
6499,12.0,,,,,,,60.0,,,,,,0,note_on,,127.0,60.0,127.0,17259,8.9890625
6500,12.0,,,,,,,67.0,,,,,,0,note_on,,127.0,67.0,127.0,17259,8.9890625
6501,,,,,,,,,,,,,til' ,0,lyrics,,,,,4667338088,2430905.2541666664
6502,9.0,,,,,,,28.0,,,,,,117,note_on,,0.0,28.0,0.0,71875,37.434895833333336
6503,9.0,,,,,,,39.0,,,,,,34,note_on,,0.0,39.0,0.0,71909,37.45260416666667
6504,3.0,,,,,,,77.0,,,,,,25,note_on,,0.0,77.0,0.0,44797,23.331770833333334
6505,9.0,,,,,,,42.0,,,,,,48,note_on,,0.0,42.0,0.0,71957,37.477604166666666
6506,9.0,,,,,,,70.0,,,,,,0,note_on,,0.0,70.0,0.0,71957,37.477604166666666
6507,12.0,,,,,,,60.0,,,,,,180,note_on,,0.0,60.0,0.0,17439,9.0828125
6508,12.0,,,,,,,63.0,,,,,,32,note_on,,0.0,63.0,0.0,17471,9.099479166666667
6509,12.0,,,,,,,67.0,,,,,,6,note_on,,0.0,67.0,0.0,17477,9.102604166666666
6510,3.0,,,,,,,75.0,,,,,,38,note_on,,127.0,75.0,127.0,44835,23.3515625
6511,9.0,,,,,,,70.0,,,,,,0,note_on,,40.0,70.0,40.0,71957,37.477604166666666
6512,9.0,,,,,,,36.0,,,,,,0,note_on,,126.0,36.0,126.0,71957,37.477604166666666
6513,9.0,,,,,,,35.0,,,,,,0,note_on,,60.0,35.0,60.0,71957,37.477604166666666
6514,,,,,,,,,,,,,you ,0,lyrics,,,,,79,0.04114583333333333
6515,9.0,,,,,,,35.0,,,,,,166,note_on,,0.0,35.0,0.0,72123,37.5640625
6516,9.0,,,,,,,36.0,,,,,,0,note_on,,0.0,36.0,0.0,72123,37.5640625
6517,3.0,,,,,,,75.0,,,,,,28,note_on,,0.0,75.0,0.0,44863,23.366145833333334
6518,9.0,,,,,,,70.0,,,,,,30,note_on,,0.0,70.0,0.0,72153,37.5796875
6519,3.0,,,,,,,79.0,,,,,,256,note_on,,127.0,79.0,127.0,45119,23.499479166666667
6520,6.0,,,,,,,67.0,,,,,,0,note_on,,127.0,67.0,127.0,14868,7.7437499999999995
6521,6.0,,,,,,,72.0,,,,,,0,note_on,,127.0,72.0,127.0,14868,7.7437499999999995
6522,6.0,,,,,,,75.0,,,,,,0,note_on,,127.0,75.0,127.0,14868,7.7437499999999995
6523,9.0,,,,,,,42.0,,,,,,0,note_on,,85.0,42.0,85.0,72153,37.5796875
6524,9.0,,,,,,,70.0,,,,,,0,note_on,,40.0,70.0,40.0,72153,37.5796875
6525,,,,,,,,,,,,,wake ,0,lyrics,,,,,4667337584,2430904.9916666667
6526,3.0,,,,,,,79.0,,,,,,160,note_on,,0.0,79.0,0.0,45279,23.5828125
6527,9.0,,,,,,,42.0,,,,,,64,note_on,,0.0,42.0,0.0,72217,37.61302083333333
6528,9.0,,,,,,,70.0,,,,,,0,note_on,,0.0,70.0,0.0,72217,37.61302083333333
6529,3.0,,,,,,,79.0,,,,,,256,note_on,,127.0,79.0,127.0,45535,23.716145833333332
6530,9.0,,,,,,,70.0,,,,,,0,note_on,,40.0,70.0,40.0,72217,37.61302083333333
6531,9.0,,,,,,,36.0,,,,,,0,note_on,,126.0,36.0,126.0,72217,37.61302083333333
6532,9.0,,,,,,,35.0,,,,,,0,note_on,,60.0,35.0,60.0,72217,37.61302083333333
6533,,,,,,,,,,,,,me ,0,lyrics,,,,,4413201120,2298542.25
6534,6.0,,,,,,,67.0,,,,,,4,note_on,,0.0,67.0,0.0,14872,7.745833333333334
6535,6.0,,,,,,,72.0,,,,,,35,note_on,,0.0,72.0,0.0,14907,7.7640625
6536,6.0,,,,,,,75.0,,,,,,4,note_on,,0.0,75.0,0.0,14911,7.766145833333333
6537,9.0,,,,,,,36.0,,,,,,111,note_on,,0.0,36.0,0.0,72328,37.670833333333334
6538,9.0,,,,,,,35.0,,,,,,0,note_on,,0.0,35.0,0.0,72328,37.670833333333334
6539,3.0,,,,,,,79.0,,,,,,11,note_on,,0.0,79.0,0.0,45546,23.721875
6540,9.0,,,,,,,70.0,,,,,,59,note_on,,0.0,70.0,0.0,72387,37.7015625
6541,3.0,,,,,,,77.0,,,,,,256,note_on,,127.0,77.0,127.0,45802,23.855208333333334
6542,9.0,,,,,,,42.0,,,,,,0,note_on,,85.0,42.0,85.0,72387,37.7015625
6543,9.0,,,,,,,70.0,,,,,,0,note_on,,40.0,70.0,40.0,72387,37.7015625
6544,9.0,,,,,,,39.0,,,,,,0,note_on,,127.0,39.0,127.0,72387,37.7015625
6545,9.0,,,,,,,28.0,,,,,,0,note_on,,127.0,28.0,127.0,72387,37.7015625
6546,11.0,,,,,,,68.0,,,,,,0,note_on,,127.0,68.0,127.0,20980,10.927083333333334
6547,11.0,,,,,,,60.0,,,,,,0,note_on,,127.0,60.0,127.0,20980,10.927083333333334
6548,11.0,,,,,,,63.0,,,,,,0,note_on,,127.0,63.0,127.0,20980,10.927083333333334
6549,,,,,,,,,,,,,from ,0,lyrics,,,,,4663300840,2428802.5208333335
6550,9.0,,,,,,,39.0,,,,,,123,note_on,,0.0,39.0,0.0,72510,37.765625
6551,9.0,,,,,,,28.0,,,,,,2,note_on,,0.0,28.0,0.0,72512,37.766666666666666
6552,3.0,,,,,,,77.0,,,,,,47,note_on,,0.0,77.0,0.0,45849,23.8796875
6553,9.0,,,,,,,42.0,,,,,,52,note_on,,0.0,42.0,0.0,72564,37.79375
6554,9.0,,,,,,,70.0,,,,,,0,note_on,,0.0,70.0,0.0,72564,37.79375
6555,11.0,,,,,,,68.0,,,,,,161,note_on,,0.0,68.0,0.0,21141,11.0109375
6556,11.0,,,,,,,60.0,,,,,,4,note_on,,0.0,60.0,0.0,21145,11.013020833333334
6557,11.0,,,,,,,63.0,,,,,,19,note_on,,0.0,63.0,0.0,21164,11.022916666666667
6558,3.0,,,,,,,75.0,,,,,,72,note_on,,127.0,75.0,127.0,45921,23.9171875
6559,9.0,,,,,,,70.0,,,,,,0,note_on,,40.0,70.0,40.0,72564,37.79375
6560,10.0,,,,,,,68.0,,,,,,0,note_on,,127.0,68.0,127.0,11484,5.98125
6561,10.0,,,,,,,60.0,,,,,,0,note_on,,127.0,60.0,127.0,11484,5.98125
6562,10.0,,,,,,,63.0,,,,,,0,note_on,,127.0,63.0,127.0,11484,5.98125
6563,11.0,,,,,,,63.0,,,,,,0,note_on,,127.0,63.0,127.0,21164,11.022916666666667
6564,11.0,,,,,,,60.0,,,,,,0,note_on,,127.0,60.0,127.0,21164,11.022916666666667
6565,11.0,,,,,,,67.0,,,,,,0,note_on,,127.0,67.0,127.0,21164,11.022916666666667
6566,,,,,,,,,,,,,this ,0,lyrics,,,,,4413201472,2298542.433333333
6567,3.0,,,,,,,75.0,,,,,,177,note_on,,0.0,75.0,0.0,46098,24.009375
6568,9.0,,,,,,,70.0,,,,,,47,note_on,,0.0,70.0,0.0,72611,37.81822916666667
6569,11.0,,,,,,,60.0,,,,,,147,note_on,,0.0,60.0,0.0,21311,11.099479166666667
6570,11.0,,,,,,,67.0,,,,,,11,note_on,,0.0,67.0,0.0,21322,11.105208333333334
6571,10.0,,,,,,,68.0,,,,,,3,note_on,,0.0,68.0,0.0,11487,5.9828125
6572,10.0,,,,,,,60.0,,,,,,4,note_on,,0.0,60.0,0.0,11491,5.984895833333333
6573,10.0,,,,,,,63.0,,,,,,19,note_on,,0.0,63.0,0.0,11510,5.994791666666667
6574,11.0,,,,,,,63.0,,,,,,18,note_on,,0.0,63.0,0.0,21340,11.114583333333334
6575,3.0,,,,,,,77.0,,,,,,54,note_on,,127.0,77.0,127.0,46152,24.0375
6576,9.0,,,,,,,42.0,,,,,,0,note_on,,85.0,42.0,85.0,72611,37.81822916666667
6577,9.0,,,,,,,70.0,,,,,,0,note_on,,40.0,70.0,40.0,72611,37.81822916666667
6578,9.0,,,,,,,36.0,,,,,,0,note_on,,126.0,36.0,126.0,72611,37.81822916666667
6579,9.0,,,,,,,35.0,,,,,,0,note_on,,60.0,35.0,60.0,72611,37.81822916666667
6580,10.0,,,,,,,63.0,,,,,,0,note_on,,127.0,63.0,127.0,11510,5.994791666666667
6581,10.0,,,,,,,60.0,,,,,,0,note_on,,127.0,60.0,127.0,11510,5.994791666666667
6582,10.0,,,,,,,67.0,,,,,,0,note_on,,127.0,67.0,127.0,11510,5.994791666666667
6583,12.0,,,,,,,68.0,,,,,,0,note_on,,127.0,68.0,127.0,17477,9.102604166666666
6584,12.0,,,,,,,60.0,,,,,,0,note_on,,127.0,60.0,127.0,17477,9.102604166666666
6585,12.0,,,,,,,63.0,,,,,,0,note_on,,127.0,63.0,127.0,17477,9.102604166666666
6586,,,,,,,,,,,,,bad ,0,lyrics,,,,,103,0.05364583333333333
6587,9.0,,,,,,,35.0,,,,,,172,note_on,,0.0,35.0,0.0,72783,37.9078125
6588,9.0,,,,,,,36.0,,,,,,0,note_on,,0.0,36.0,0.0,72783,37.9078125
6589,9.0,,,,,,,70.0,,,,,,52,note_on,,0.0,70.0,0.0,72835,37.934895833333336
6590,9.0,,,,,,,42.0,,,,,,0,note_on,,0.0,42.0,0.0,72835,37.934895833333336
6591,10.0,,,,,,,60.0,,,,,,147,note_on,,0.0,60.0,0.0,11657,6.071354166666667
6592,10.0,,,,,,,67.0,,,,,,11,note_on,,0.0,67.0,0.0,11668,6.077083333333333
6593,12.0,,,,,,,68.0,,,,,,3,note_on,,0.0,68.0,0.0,17480,9.104166666666666
6594,12.0,,,,,,,60.0,,,,,,4,note_on,,0.0,60.0,0.0,17484,9.10625
6595,12.0,,,,,,,63.0,,,,,,19,note_on,,0.0,63.0,0.0,17503,9.116145833333333
6596,10.0,,,,,,,63.0,,,,,,18,note_on,,0.0,63.0,0.0,11686,6.086458333333333
6597,9.0,,,,,,,70.0,,,,,,54,note_on,,40.0,70.0,40.0,72889,37.96302083333333
6598,12.0,,,,,,,63.0,,,,,,0,note_on,,127.0,63.0,127.0,17503,9.116145833333333
6599,12.0,,,,,,,60.0,,,,,,0,note_on,,127.0,60.0,127.0,17503,9.116145833333333
6600,12.0,,,,,,,67.0,,,,,,0,note_on,,127.0,67.0,127.0,17503,9.116145833333333
6601,3.0,,,,,,,77.0,,,,,,188,note_on,,0.0,77.0,0.0,46340,24.135416666666668
6602,9.0,,,,,,,70.0,,,,,,36,note_on,,0.0,70.0,0.0,72925,37.981770833333336
6603,9.0,,,,,,,36.0,,,,,,16,note_on,,126.0,36.0,126.0,72941,37.99010416666667
6604,9.0,,,,,,,35.0,,,,,,0,note_on,,60.0,35.0,60.0,72941,37.99010416666667
6605,12.0,,,,,,,60.0,,,,,,131,note_on,,0.0,60.0,0.0,17634,9.184375
6606,12.0,,,,,,,67.0,,,,,,11,note_on,,0.0,67.0,0.0,17645,9.190104166666666
6607,12.0,,,,,,,63.0,,,,,,44,note_on,,0.0,63.0,0.0,17689,9.213020833333333
6608,9.0,,,,,,,36.0,,,,,,38,note_on,,0.0,36.0,0.0,72979,38.00989583333333
6609,9.0,,,,,,,35.0,,,,,,0,note_on,,0.0,35.0,0.0,72979,38.00989583333333
6610,3.0,,,,,,,75.0,,,,,,16,note_on,,127.0,75.0,127.0,46356,24.14375
6611,9.0,,,,,,,42.0,,,,,,0,note_on,,85.0,42.0,85.0,72979,38.00989583333333
6612,9.0,,,,,,,70.0,,,,,,0,note_on,,40.0,70.0,40.0,72979,38.00989583333333
6613,9.0,,,,,,,39.0,,,,,,0,note_on,,125.0,39.0,125.0,72979,38.00989583333333
6614,9.0,,,,,,,28.0,,,,,,0,note_on,,127.0,28.0,127.0,72979,38.00989583333333
6615,,,,,,,,,,,,,dream ,0,lyrics,,,,,4663303304,2428803.8041666667
6616,9.0,,,,,,,28.0,,,,,,117,note_on,,0.0,28.0,0.0,73096,38.07083333333333
6617,9.0,,,,,,,39.0,,,,,,34,note_on,,0.0,39.0,0.0,73130,38.088541666666664
6618,9.0,,,,,,,70.0,,,,,,73,note_on,,0.0,70.0,0.0,73203,38.1265625
6619,9.0,,,,,,,42.0,,,,,,0,note_on,,0.0,42.0,0.0,73203,38.1265625
6620,6.0,,,,,,,67.0,,,,,,256,note_on,,127.0,67.0,127.0,15167,7.899479166666667
6621,6.0,,,,,,,72.0,,,,,,0,note_on,,127.0,72.0,127.0,15167,7.899479166666667
6622,6.0,,,,,,,75.0,,,,,,0,note_on,,127.0,75.0,127.0,15167,7.899479166666667
6623,9.0,,,,,,,46.0,,,,,,0,note_on,,100.0,46.0,100.0,73203,38.1265625
6624,9.0,,,,,,,70.0,,,,,,0,note_on,,40.0,70.0,40.0,73203,38.1265625
6625,9.0,,,,,,,36.0,,,,,,0,note_on,,126.0,36.0,126.0,73203,38.1265625
6626,9.0,,,,,,,35.0,,,,,,0,note_on,,60.0,35.0,60.0,73203,38.1265625
6627,9.0,,,,,,,35.0,,,,,,166,note_on,,0.0,35.0,0.0,73369,38.21302083333333
6628,9.0,,,,,,,36.0,,,,,,0,note_on,,0.0,36.0,0.0,73369,38.21302083333333
6629,9.0,,,,,,,46.0,,,,,,58,note_on,,0.0,46.0,0.0,73427,38.243229166666666
6630,9.0,,,,,,,70.0,,,,,,0,note_on,,0.0,70.0,0.0,73427,38.243229166666666
6631,3.0,,,,,,,75.0,,,,,,99,note_on,,0.0,75.0,0.0,46455,24.1953125
6632,6.0,,,,,,,,,-387.0,,,,151,pitchwheel,,,,,15318,7.9781249999999995
6633,9.0,,,,,,,46.0,,,,,,6,note_on,,100.0,46.0,100.0,73433,38.24635416666666
6634,9.0,,,,,,,70.0,,,,,,0,note_on,,40.0,70.0,40.0,73433,38.24635416666666
6635,6.0,,,,,,,,,-1031.0,,,,4,pitchwheel,,,,,15322,7.980208333333334
6636,6.0,,,,,,,,,-1572.0,,,,8,pitchwheel,,,,,15330,7.984375
6637,6.0,,,,,,,,,-2087.0,,,,9,pitchwheel,,,,,15339,7.9890625
6638,6.0,,,,,,,,,-2525.0,,,,10,pitchwheel,,,,,15349,7.994270833333333
6639,6.0,,,,,,,,,-3169.0,,,,6,pitchwheel,,,,,15355,7.997395833333333
6640,6.0,,,,,,,,,-3581.0,,,,9,pitchwheel,,,,,15364,8.002083333333333
6641,6.0,,,,,,,,,-4148.0,,,,8,pitchwheel,,,,,15372,8.00625
6642,6.0,,,,,,,,,-4715.0,,,,10,pitchwheel,,,,,15382,8.011458333333334
6643,6.0,,,,,,,,,-5307.0,,,,9,pitchwheel,,,,,15391,8.016145833333333
6644,6.0,,,,,,,,,-5591.0,,,,8,pitchwheel,,,,,15399,8.0203125
6645,6.0,,,,,,,,,-5874.0,,,,8,pitchwheel,,,,,15407,8.024479166666666
6646,6.0,,,,,,,,,-6235.0,,,,9,pitchwheel,,,,,15416,8.029166666666667
6647,6.0,,,,,,,,,-6776.0,,,,10,pitchwheel,,,,,15426,8.034375
6648,6.0,,,,,,,,,-6956.0,,,,8,pitchwheel,,,,,15434,8.038541666666667
6649,6.0,,,,,,,,,-7188.0,,,,9,pitchwheel,,,,,15443,8.043229166666666
6650,6.0,,,,,,,,,-7652.0,,,,8,pitchwheel,,,,,15451,8.047395833333333
6651,6.0,,,,,,,,,-7780.0,,,,17,pitchwheel,,,,,15468,8.05625
6652,6.0,,,,,,,,,-7883.0,,,,8,pitchwheel,,,,,15476,8.060416666666667
6653,6.0,,,,,,,,,-7935.0,,,,10,pitchwheel,,,,,15486,8.065625
6654,6.0,,,,,,,,,-8012.0,,,,9,pitchwheel,,,,,15495,8.0703125
6655,6.0,,,,,,,,,-7780.0,,,,10,pitchwheel,,,,,15505,8.075520833333334
6656,6.0,,,,,,,,,-7626.0,,,,8,pitchwheel,,,,,15513,8.0796875
6657,6.0,,,,,,,,,-7317.0,,,,9,pitchwheel,,,,,15522,8.084375
6658,6.0,,,,,,,,,-7111.0,,,,10,pitchwheel,,,,,15532,8.089583333333334
6659,6.0,,,,,,,,,-6776.0,,,,8,pitchwheel,,,,,15540,8.09375
6660,9.0,,,,,,,70.0,,,,,,2,note_on,,0.0,70.0,0.0,73435,38.247395833333336
6661,9.0,,,,,,,46.0,,,,,,0,note_on,,0.0,46.0,0.0,73435,38.247395833333336
6662,6.0,,,,,,,,,-6003.0,,,,7,pitchwheel,,,,,15547,8.097395833333334
6663,6.0,,,,,,,,,-5410.0,,,,8,pitchwheel,,,,,15555,8.1015625
6664,6.0,,,,,,,,,-4766.0,,,,8,pitchwheel,,,,,15563,8.105729166666666
6665,6.0,,,,,,,,,-4071.0,,,,9,pitchwheel,,,,,15572,8.110416666666666
6666,6.0,,,,,,,,,-3452.0,,,,8,pitchwheel,,,,,15580,8.114583333333334
6667,6.0,,,,,,,,,-2808.0,,,,8,pitchwheel,,,,,15588,8.11875
6668,6.0,,,,,,,,,-1933.0,,,,13,pitchwheel,,,,,15601,8.125520833333333
6669,6.0,,,,,,,,,-1392.0,,,,8,pitchwheel,,,,,15609,8.1296875
6670,6.0,,,,,,,,,-670.0,,,,9,pitchwheel,,,,,15618,8.134375
6671,6.0,,,,,,,,,0.0,,,,8,pitchwheel,,,,,15626,8.138541666666667
6672,9.0,,,,,,,70.0,,,,,,170,note_on,,40.0,70.0,40.0,73605,38.3359375
6673,9.0,,,,,,,36.0,,,,,,0,note_on,,126.0,36.0,126.0,73605,38.3359375
6674,9.0,,,,,,,35.0,,,,,,0,note_on,,60.0,35.0,60.0,73605,38.3359375
6675,9.0,,,,,,,35.0,,,,,,154,note_on,,0.0,35.0,0.0,73759,38.41614583333333
6676,9.0,,,,,,,36.0,,,,,,0,note_on,,0.0,36.0,0.0,73759,38.41614583333333
6677,9.0,,,,,,,70.0,,,,,,70,note_on,,0.0,70.0,0.0,73829,38.45260416666667
6678,6.0,,,,,,,75.0,,,,,,16,note_on,,0.0,75.0,0.0,15642,8.146875
6679,6.0,,,,,,,72.0,,,,,,0,note_on,,0.0,72.0,0.0,15642,8.146875
6680,6.0,,,,,,,67.0,,,,,,12,note_on,,0.0,67.0,0.0,15654,8.153125
6681,3.0,,,,,,,75.0,,,,,,228,note_on,,127.0,75.0,127.0,46683,24.3140625
6682,9.0,,,,,,,42.0,,,,,,0,note_on,,85.0,42.0,85.0,73829,38.45260416666667
6683,9.0,,,,,,,70.0,,,,,,0,note_on,,40.0,70.0,40.0,73829,38.45260416666667
6684,9.0,,,,,,,39.0,,,,,,0,note_on,,127.0,39.0,127.0,73829,38.45260416666667
6685,9.0,,,,,,,28.0,,,,,,0,note_on,,127.0,28.0,127.0,73829,38.45260416666667
6686,,,,,,,,,,,,,Im ,0,lyrics,,,,,4636323272,2414751.7041666666
6687,9.0,,,,,,,39.0,,,,,,123,note_on,,0.0,39.0,0.0,73952,38.516666666666666
6688,9.0,,,,,,,28.0,,,,,,2,note_on,,0.0,28.0,0.0,73954,38.51770833333333
6689,3.0,,,,,,,75.0,,,,,,53,note_on,,0.0,75.0,0.0,46736,24.341666666666665
6690,9.0,,,,,,,70.0,,,,,,46,note_on,,0.0,70.0,0.0,74000,38.541666666666664
6691,9.0,,,,,,,42.0,,,,,,0,note_on,,0.0,42.0,0.0,74000,38.541666666666664
6692,3.0,,,,,,,77.0,,,,,,256,note_on,,127.0,77.0,127.0,46992,24.475
6693,9.0,,,,,,,61.0,,,,,,0,note_on,,100.0,61.0,100.0,74000,38.541666666666664
6694,9.0,,,,,,,70.0,,,,,,0,note_on,,40.0,70.0,40.0,74000,38.541666666666664
6695,,,,,,,,,,,,,going ,0,lyrics,,,,,4665290840,2429838.9791666665
6696,9.0,,,,,,,61.0,,,,,,114,note_on,,0.0,61.0,0.0,74114,38.60104166666667
6697,9.0,,,,,,,61.0,,,,,,6,note_on,,100.0,61.0,100.0,74120,38.604166666666664
6698,3.0,,,,,,,77.0,,,,,,36,note_on,,0.0,77.0,0.0,47028,24.49375
6699,9.0,,,,,,,70.0,,,,,,68,note_on,,0.0,70.0,0.0,74188,38.639583333333334
6700,9.0,,,,,,,61.0,,,,,,10,note_on,,0.0,61.0,0.0,74198,38.64479166666666
6701,9.0,,,,,,,61.0,,,,,,6,note_on,,100.0,61.0,100.0,74204,38.64791666666667
6702,9.0,,,,,,,61.0,,,,,,114,note_on,,0.0,61.0,0.0,74318,38.70729166666666
6703,9.0,,,,,,,61.0,,,,,,6,note_on,,100.0,61.0,100.0,74324,38.71041666666667
6704,9.0,,,,,,,61.0,,,,,,114,note_on,,0.0,61.0,0.0,74438,38.76979166666666
6705,3.0,,,,,,,79.0,,,,,,6,note_on,,127.0,79.0,127.0,47034,24.496875
6706,9.0,,,,,,,61.0,,,,,,0,note_on,,100.0,61.0,100.0,74438,38.76979166666666
6707,9.0,,,,,,,42.0,,,,,,0,note_on,,85.0,42.0,85.0,74438,38.76979166666666
6708,9.0,,,,,,,70.0,,,,,,0,note_on,,40.0,70.0,40.0,74438,38.76979166666666
6709,9.0,,,,,,,36.0,,,,,,0,note_on,,126.0,36.0,126.0,74438,38.76979166666666
6710,9.0,,,,,,,35.0,,,,,,0,note_on,,60.0,35.0,60.0,74438,38.76979166666666
6711,11.0,,,,,,,60.0,,,,,,0,note_on,,127.0,60.0,127.0,21340,11.114583333333334
6712,11.0,,,,,,,56.0,,,,,,0,note_on,,127.0,56.0,127.0,21340,11.114583333333334
6713,11.0,,,,,,,63.0,,,,,,0,note_on,,127.0,63.0,127.0,21340,11.114583333333334
6714,,,,,,,,,,,,,"down, ",0,lyrics,,,,,4665291200,2429839.1666666665
6715,9.0,,,,,,,61.0,,,,,,114,note_on,,0.0,61.0,0.0,74552,38.829166666666666
6716,9.0,,,,,,,36.0,,,,,,58,note_on,,0.0,36.0,0.0,74610,38.859375
6717,9.0,,,,,,,35.0,,,,,,0,note_on,,0.0,35.0,0.0,74610,38.859375
6718,9.0,,,,,,,70.0,,,,,,52,note_on,,0.0,70.0,0.0,74662,38.88645833333333
6719,9.0,,,,,,,42.0,,,,,,0,note_on,,0.0,42.0,0.0,74662,38.88645833333333
6720,11.0,,,,,,,56.0,,,,,,207,note_on,,0.0,56.0,0.0,21547,11.222395833333334
6721,11.0,,,,,,,60.0,,,,,,25,note_on,,0.0,60.0,0.0,21572,11.235416666666666
6722,9.0,,,,,,,70.0,,,,,,24,note_on,,40.0,70.0,40.0,74686,38.89895833333333
6723,10.0,,,,,,,60.0,,,,,,0,note_on,,127.0,60.0,127.0,11686,6.086458333333333
6724,10.0,,,,,,,56.0,,,,,,0,note_on,,127.0,56.0,127.0,11686,6.086458333333333
6725,10.0,,,,,,,63.0,,,,,,0,note_on,,127.0,63.0,127.0,11686,6.086458333333333
6726,11.0,,,,,,,63.0,,,,,,9,note_on,,0.0,63.0,0.0,21581,11.240104166666667
6727,9.0,,,,,,,70.0,,,,,,215,note_on,,0.0,70.0,0.0,74901,39.0109375
6728,9.0,,,,,,,36.0,,,,,,16,note_on,,126.0,36.0,126.0,74917,39.01927083333333
6729,9.0,,,,,,,35.0,,,,,,0,note_on,,60.0,35.0,60.0,74917,39.01927083333333
6730,3.0,,,,,,,79.0,,,,,,190,note_on,,0.0,79.0,0.0,47224,24.59583333333333
6731,10.0,,,,,,,56.0,,,,,,1,note_on,,0.0,56.0,0.0,11687,6.086979166666667
6732,10.0,,,,,,,60.0,,,,,,25,note_on,,0.0,60.0,0.0,11712,6.1
6733,9.0,,,,,,,36.0,,,,,,8,note_on,,0.0,36.0,0.0,74925,39.0234375
6734,9.0,,,,,,,35.0,,,,,,0,note_on,,0.0,35.0,0.0,74925,39.0234375
6735,9.0,,,,,,,42.0,,,,,,16,note_on,,85.0,42.0,85.0,74941,39.03177083333333
6736,9.0,,,,,,,70.0,,,,,,0,note_on,,40.0,70.0,40.0,74941,39.03177083333333
6737,12.0,,,,,,,60.0,,,,,,0,note_on,,127.0,60.0,127.0,17689,9.213020833333333
6738,12.0,,,,,,,56.0,,,,,,0,note_on,,127.0,56.0,127.0,17689,9.213020833333333
6739,12.0,,,,,,,63.0,,,,,,0,note_on,,127.0,63.0,127.0,17689,9.213020833333333
6740,10.0,,,,,,,63.0,,,,,,9,note_on,,0.0,63.0,0.0,11721,6.1046875
6741,9.0,,,,,,,42.0,,,,,,215,note_on,,0.0,42.0,0.0,75156,39.14375
6742,9.0,,,,,,,70.0,,,,,,0,note_on,,0.0,70.0,0.0,75156,39.14375
6743,12.0,,,,,,,56.0,,,,,,207,note_on,,0.0,56.0,0.0,17896,9.320833333333333
6744,12.0,,,,,,,60.0,,,,,,25,note_on,,0.0,60.0,0.0,17921,9.333854166666667
6745,3.0,,,,,,,75.0,,,,,,24,note_on,,127.0,75.0,127.0,47248,24.608333333333334
6746,9.0,,,,,,,70.0,,,,,,0,note_on,,40.0,70.0,40.0,75156,39.14375
6747,9.0,,,,,,,36.0,,,,,,0,note_on,,126.0,36.0,126.0,75156,39.14375
6748,9.0,,,,,,,35.0,,,,,,0,note_on,,60.0,35.0,60.0,75156,39.14375
6749,,,,,,,,,,,,,"down, ",0,lyrics,,,,,4644429040,2418973.4583333335
6750,12.0,,,,,,,63.0,,,,,,9,note_on,,0.0,63.0,0.0,17930,9.338541666666666
6751,9.0,,,,,,,36.0,,,,,,157,note_on,,0.0,36.0,0.0,75313,39.225520833333334
6752,9.0,,,,,,,35.0,,,,,,0,note_on,,0.0,35.0,0.0,75313,39.225520833333334
6753,9.0,,,,,,,70.0,,,,,,58,note_on,,0.0,70.0,0.0,75371,39.25572916666667
6754,6.0,,,,,,,68.0,,,,,,256,note_on,,127.0,68.0,127.0,15910,8.286458333333334
6755,6.0,,,,,,,72.0,,,,,,0,note_on,,127.0,72.0,127.0,15910,8.286458333333334
6756,6.0,,,,,,,75.0,,,,,,0,note_on,,127.0,75.0,127.0,15910,8.286458333333334
6757,9.0,,,,,,,42.0,,,,,,0,note_on,,85.0,42.0,85.0,75371,39.25572916666667
6758,9.0,,,,,,,70.0,,,,,,0,note_on,,40.0,70.0,40.0,75371,39.25572916666667
6759,9.0,,,,,,,70.0,,,,,,224,note_on,,0.0,70.0,0.0,75595,39.372395833333336
6760,9.0,,,,,,,42.0,,,,,,0,note_on,,0.0,42.0,0.0,75595,39.372395833333336
6761,3.0,,,,,,,75.0,,,,,,160,note_on,,0.0,75.0,0.0,47408,24.691666666666666
6762,6.0,,,,,,,68.0,,,,,,23,note_on,,0.0,68.0,0.0,15933,8.2984375
6763,6.0,,,,,,,72.0,,,,,,14,note_on,,0.0,72.0,0.0,15947,8.305729166666666
6764,6.0,,,,,,,75.0,,,,,,12,note_on,,0.0,75.0,0.0,15959,8.311979166666667
6765,9.0,,,,,,,70.0,,,,,,47,note_on,,40.0,70.0,40.0,75642,39.396875
6766,9.0,,,,,,,70.0,,,,,,224,note_on,,0.0,70.0,0.0,75866,39.51354166666667
6767,3.0,,,,,,,70.0,,,,,,256,note_on,,127.0,70.0,127.0,47664,24.825
6768,9.0,,,,,,,42.0,,,,,,0,note_on,,85.0,42.0,85.0,75866,39.51354166666667
6769,9.0,,,,,,,70.0,,,,,,0,note_on,,40.0,70.0,40.0,75866,39.51354166666667
6770,11.0,,,,,,,60.0,,,,,,0,note_on,,127.0,60.0,127.0,21581,11.240104166666667
6771,11.0,,,,,,,65.0,,,,,,0,note_on,,127.0,65.0,127.0,21581,11.240104166666667
6772,11.0,,,,,,,56.0,,,,,,0,note_on,,127.0,56.0,127.0,21581,11.240104166666667
6773,,,,,,,,,,,,,"down, ",0,lyrics,,,,,4644429472,2418973.683333333
6774,9.0,,,,,,,70.0,,,,,,224,note_on,,0.0,70.0,0.0,76090,39.630208333333336
6775,9.0,,,,,,,42.0,,,,,,0,note_on,,0.0,42.0,0.0,76090,39.630208333333336
6776,11.0,,,,,,,65.0,,,,,,160,note_on,,0.0,65.0,0.0,21741,11.3234375
6777,11.0,,,,,,,56.0,,,,,,10,note_on,,0.0,56.0,0.0,21751,11.328645833333333
6778,11.0,,,,,,,60.0,,,,,,21,note_on,,0.0,60.0,0.0,21772,11.339583333333334
6779,9.0,,,,,,,70.0,,,,,,65,note_on,,40.0,70.0,40.0,76155,39.6640625
6780,10.0,,,,,,,60.0,,,,,,0,note_on,,127.0,60.0,127.0,11721,6.1046875
6781,10.0,,,,,,,65.0,,,,,,0,note_on,,127.0,65.0,127.0,11721,6.1046875
6782,10.0,,,,,,,56.0,,,,,,0,note_on,,127.0,56.0,127.0,11721,6.1046875
6783,11.0,,,,,,,60.0,,,,,,0,note_on,,127.0,60.0,127.0,21772,11.339583333333334
6784,11.0,,,,,,,56.0,,,,,,0,note_on,,124.0,56.0,124.0,21772,11.339583333333334
6785,11.0,,,,,,,63.0,,,,,,0,note_on,,127.0,63.0,127.0,21772,11.339583333333334
6786,9.0,,,,,,,70.0,,,,,,224,note_on,,0.0,70.0,0.0,76379,39.78072916666667
6787,10.0,,,,,,,65.0,,,,,,160,note_on,,0.0,65.0,0.0,11881,6.188020833333333
6788,10.0,,,,,,,56.0,,,,,,10,note_on,,0.0,56.0,0.0,11891,6.193229166666667
6789,10.0,,,,,,,60.0,,,,,,21,note_on,,0.0,60.0,0.0,11912,6.204166666666667
6790,11.0,,,,,,,56.0,,,,,,46,note_on,,0.0,56.0,0.0,21818,11.363541666666666
6791,10.0,,,,,,,60.0,,,,,,19,note_on,,127.0,60.0,127.0,11931,6.2140625
6792,10.0,,,,,,,56.0,,,,,,0,note_on,,124.0,56.0,124.0,11931,6.2140625
6793,10.0,,,,,,,63.0,,,,,,0,note_on,,127.0,63.0,127.0,11931,6.2140625
6794,12.0,,,,,,,60.0,,,,,,0,note_on,,127.0,60.0,127.0,17930,9.338541666666666
6795,12.0,,,,,,,65.0,,,,,,0,note_on,,127.0,65.0,127.0,17930,9.338541666666666
6796,12.0,,,,,,,56.0,,,,,,0,note_on,,127.0,56.0,127.0,17930,9.338541666666666
6797,11.0,,,,,,,63.0,,,,,,14,note_on,,0.0,63.0,0.0,21832,11.370833333333334
6798,11.0,,,,,,,60.0,,,,,,6,note_on,,0.0,60.0,0.0,21838,11.373958333333333
6799,3.0,,,,,,,70.0,,,,,,47,note_on,,0.0,70.0,0.0,47711,24.849479166666665
6800,12.0,,,,,,,65.0,,,,,,317,note_on,,0.0,65.0,0.0,18247,9.503645833333334
6801,12.0,,,,,,,56.0,,,,,,10,note_on,,0.0,56.0,0.0,18257,9.508854166666666
6802,12.0,,,,,,,60.0,,,,,,21,note_on,,0.0,60.0,0.0,18278,9.519791666666666
6803,10.0,,,,,,,56.0,,,,,,46,note_on,,0.0,56.0,0.0,11977,6.238020833333334
6804,3.0,,,,,,,68.0,,,,,,19,note_on,,127.0,68.0,127.0,47730,24.859375
6805,12.0,,,,,,,60.0,,,,,,0,note_on,,127.0,60.0,127.0,18278,9.519791666666666
6806,12.0,,,,,,,56.0,,,,,,0,note_on,,124.0,56.0,124.0,18278,9.519791666666666
6807,12.0,,,,,,,63.0,,,,,,0,note_on,,127.0,63.0,127.0,18278,9.519791666666666
6808,,,,,,,,,,,,,dooown ,0,lyrics,,,,,4665293240,2429840.2291666665
6809,10.0,,,,,,,63.0,,,,,,14,note_on,,0.0,63.0,0.0,11991,6.2453125
6810,10.0,,,,,,,60.0,,,,,,6,note_on,,0.0,60.0,0.0,11997,6.2484375
6811,12.0,,,,,,,56.0,,,,,,441,note_on,,0.0,56.0,0.0,18719,9.749479166666667
6812,12.0,,,,,,,63.0,,,,,,33,note_on,,0.0,63.0,0.0,18752,9.766666666666666
6813,12.0,,,,,,,60.0,,,,,,6,note_on,,0.0,60.0,0.0,18758,9.769791666666666
6814,6.0,,,,,,,72.0,,,,,,460,note_on,,127.0,72.0,127.0,16419,8.5515625
6815,6.0,,,,,,,75.0,,,,,,0,note_on,,127.0,75.0,127.0,16419,8.5515625
6816,6.0,,,,,,,68.0,,,,,,0,note_on,,127.0,68.0,127.0,16419,8.5515625
6817,3.0,,,,,,,68.0,,,,,,303,note_on,,0.0,68.0,0.0,48033,25.0171875
6818,6.0,,,,,,,,,-413.0,,,,140,pitchwheel,,,,,16559,8.624479166666667
6819,6.0,,,,,,,,,-1005.0,,,,9,pitchwheel,,,,,16568,8.629166666666666
6820,6.0,,,,,,,,,-1623.0,,,,10,pitchwheel,,,,,16578,8.634375
6821,6.0,,,,,,,,,-2293.0,,,,6,pitchwheel,,,,,16584,8.6375
6822,6.0,,,,,,,,,-2808.0,,,,9,pitchwheel,,,,,16593,8.6421875
6823,6.0,,,,,,,,,-3427.0,,,,8,pitchwheel,,,,,16601,8.646354166666667
6824,6.0,,,,,,,,,-3916.0,,,,8,pitchwheel,,,,,16609,8.650520833333333
6825,6.0,,,,,,,,,-4354.0,,,,9,pitchwheel,,,,,16618,8.655208333333333
6826,6.0,,,,,,,,,-4792.0,,,,8,pitchwheel,,,,,16626,8.659375
6827,6.0,,,,,,,,,-5333.0,,,,13,pitchwheel,,,,,16639,8.666145833333333
6828,6.0,,,,,,,,,-5539.0,,,,6,pitchwheel,,,,,16645,8.669270833333334
6829,6.0,,,,,,,,,-5797.0,,,,6,pitchwheel,,,,,16651,8.672395833333333
6830,6.0,,,,,,,,,-6209.0,,,,10,pitchwheel,,,,,16661,8.677604166666667
6831,6.0,,,,,,,,,-6698.0,,,,9,pitchwheel,,,,,16670,8.682291666666666
6832,6.0,,,,,,,,,-6801.0,,,,8,pitchwheel,,,,,16678,8.686458333333333
6833,6.0,,,,,,,,,-6982.0,,,,8,pitchwheel,,,,,16686,8.690625
6834,6.0,,,,,,,,,-7085.0,,,,9,pitchwheel,,,,,16695,8.6953125
6835,6.0,,,,,,,,,-7136.0,,,,8,pitchwheel,,,,,16703,8.699479166666666
6836,6.0,,,,,,,,,-7239.0,,,,8,pitchwheel,,,,,16711,8.703645833333333
6837,6.0,,,,,,,,,-7265.0,,,,9,pitchwheel,,,,,16720,8.708333333333334
6838,6.0,,,,,,,,,-7291.0,,,,10,pitchwheel,,,,,16730,8.713541666666666
6839,6.0,,,,,,,,,-7111.0,,,,10,pitchwheel,,,,,16740,8.71875
6840,6.0,,,,,,,,,-6982.0,,,,9,pitchwheel,,,,,16749,8.7234375
6841,6.0,,,,,,,,,-6879.0,,,,8,pitchwheel,,,,,16757,8.727604166666666
6842,6.0,,,,,,,,,-6544.0,,,,8,pitchwheel,,,,,16765,8.731770833333334
6843,6.0,,,,,,,,,-5719.0,,,,9,pitchwheel,,,,,16774,8.736458333333333
6844,6.0,,,,,,,,,-3968.0,,,,8,pitchwheel,,,,,16782,8.740625
6845,6.0,,,,,,,,,-1778.0,,,,8,pitchwheel,,,,,16790,8.744791666666666
6846,6.0,,,,,,,,,0.0,,,,9,pitchwheel,,,,,16799,8.749479166666667
6847,6.0,,,,,,,,,1287.0,,,,10,pitchwheel,,,,,16809,8.7546875
6848,6.0,,,,,,,,,463.0,,,,15,pitchwheel,,,,,16824,8.7625
6849,6.0,,,,,,,,,0.0,,,,8,pitchwheel,,,,,16832,8.766666666666666
6850,3.0,,,,,,,79.0,,,,,,244,note_on,,126.0,79.0,126.0,48277,25.144270833333334
6851,,,,,,,,,,,,,And ,0,lyrics,,,,,4665294160,2429840.7083333335
6852,3.0,,,,,,,79.0,,,,,,146,note_on,,0.0,79.0,0.0,48423,25.2203125
6853,3.0,,,,,,,79.0,,,,,,334,note_on,,127.0,79.0,127.0,48757,25.394270833333334
6854,,,,,,,,,,,,,I ,0,lyrics,,,,,4665294200,2429840.7291666665
6855,6.0,,,,,,,68.0,,,,,,77,note_on,,0.0,68.0,0.0,16909,8.806770833333333
6856,6.0,,,,,,,72.0,,,,,,14,note_on,,0.0,72.0,0.0,16923,8.8140625
6857,6.0,,,,,,,75.0,,,,,,17,note_on,,0.0,75.0,0.0,16940,8.822916666666666
6858,3.0,,,,,,,79.0,,,,,,46,note_on,,0.0,79.0,0.0,48803,25.418229166666666
6859,3.0,,,,,,,79.0,,,,,,326,note_on,,127.0,79.0,127.0,49129,25.58802083333333
6860,,,,,,,,,,,,,just ,0,lyrics,,,,,4665299904,2429843.7
6861,3.0,,,,,,,79.0,,,,,,147,note_on,,0.0,79.0,0.0,49276,25.664583333333333
6862,1.0,,,,,,,34.0,,,,,,333,note_on,,127.0,34.0,127.0,2464,1.2833333333333332
6863,3.0,,,,,,,79.0,,,,,,0,note_on,,127.0,79.0,127.0,49276,25.664583333333333
6864,8.0,,,,,,,34.0,,,,,,0,note_on,,127.0,34.0,127.0,10457,5.446354166666667
6865,9.0,,,,,,,36.0,,,,,,0,note_on,,127.0,36.0,127.0,76379,39.78072916666667
6866,9.0,,,,,,,57.0,,,,,,0,note_on,,127.0,57.0,127.0,76379,39.78072916666667
6867,9.0,,,,,,,35.0,,,,,,0,note_on,,60.0,35.0,60.0,76379,39.78072916666667
6868,11.0,,,,,,,62.0,,,,,,0,note_on,,127.0,62.0,127.0,21838,11.373958333333333
6869,11.0,,,,,,,58.0,,,,,,0,note_on,,127.0,58.0,127.0,21838,11.373958333333333
6870,11.0,,,,,,,65.0,,,,,,0,note_on,,127.0,65.0,127.0,21838,11.373958333333333
6871,,,,,,,,,,,,,cant ,0,lyrics,,,,,4665294640,2429840.9583333335
6872,9.0,,,,,,,57.0,,,,,,167,note_on,,0.0,57.0,0.0,76546,39.86770833333333
6873,9.0,,,,,,,36.0,,,,,,41,note_on,,0.0,36.0,0.0,76587,39.8890625
6874,9.0,,,,,,,35.0,,,,,,0,note_on,,0.0,35.0,0.0,76587,39.8890625
6875,11.0,,,,,,,58.0,,,,,,266,note_on,,0.0,58.0,0.0,22104,11.5125
6876,10.0,,,,,,,62.0,,,,,,6,note_on,,127.0,62.0,127.0,12003,6.2515625
6877,10.0,,,,,,,58.0,,,,,,0,note_on,,127.0,58.0,127.0,12003,6.2515625
6878,10.0,,,,,,,65.0,,,,,,0,note_on,,127.0,65.0,127.0,12003,6.2515625
6879,11.0,,,,,,,65.0,,,,,,47,note_on,,0.0,65.0,0.0,22151,11.536979166666667
6880,11.0,,,,,,,62.0,,,,,,2,note_on,,0.0,62.0,0.0,22153,11.538020833333333
6881,3.0,,,,,,,79.0,,,,,,101,note_on,,0.0,79.0,0.0,49377,25.717187499999998
6882,1.0,,,,,,,34.0,,,,,,261,note_on,,0.0,34.0,0.0,2725,1.4192708333333333
6883,10.0,,,,,,,58.0,,,,,,63,note_on,,0.0,58.0,0.0,12066,6.284375
6884,3.0,,,,,,,77.0,,,,,,6,note_on,,127.0,77.0,127.0,49383,25.7203125
6885,12.0,,,,,,,62.0,,,,,,0,note_on,,127.0,62.0,127.0,18758,9.769791666666666
6886,12.0,,,,,,,58.0,,,,,,0,note_on,,127.0,58.0,127.0,18758,9.769791666666666
6887,12.0,,,,,,,65.0,,,,,,0,note_on,,127.0,65.0,127.0,18758,9.769791666666666
6888,,,,,,,,,,,,,be ,0,lyrics,,,,,4665300288,2429843.9
6889,8.0,,,,,,,34.0,,,,,,11,note_on,,0.0,34.0,0.0,10468,5.452083333333333
6890,10.0,,,,,,,65.0,,,,,,36,note_on,,0.0,65.0,0.0,12102,6.303125
6891,10.0,,,,,,,62.0,,,,,,2,note_on,,0.0,62.0,0.0,12104,6.304166666666666
6892,3.0,,,,,,,77.0,,,,,,126,note_on,,0.0,77.0,0.0,49509,25.7859375
6893,12.0,,,,,,,58.0,,,,,,299,note_on,,0.0,58.0,0.0,19057,9.925520833333334
6894,3.0,,,,,,,79.0,,,,,,6,note_on,,127.0,79.0,127.0,49515,25.7890625
6895,,,,,,,,,,,,,lieve ,0,lyrics,,,,,4665246064,2429815.658333333
6896,12.0,,,,,,,65.0,,,,,,47,note_on,,0.0,65.0,0.0,19104,9.95
6897,12.0,,,,,,,62.0,,,,,,2,note_on,,0.0,62.0,0.0,19106,9.951041666666667
6898,1.0,,,,,,,34.0,,,,,,431,note_on,,127.0,34.0,127.0,3156,1.64375
6899,6.0,,,,,,,70.0,,,,,,0,note_on,,127.0,70.0,127.0,16940,8.822916666666666
6900,6.0,,,,,,,75.0,,,,,,0,note_on,,127.0,75.0,127.0,16940,8.822916666666666
6901,6.0,,,,,,,65.0,,,,,,0,note_on,,106.0,65.0,106.0,16940,8.822916666666666
6902,8.0,,,,,,,34.0,,,,,,0,note_on,,127.0,34.0,127.0,10468,5.452083333333333
6903,9.0,,,,,,,57.0,,,,,,0,note_on,,127.0,57.0,127.0,76587,39.8890625
6904,9.0,,,,,,,36.0,,,,,,0,note_on,,127.0,36.0,127.0,76587,39.8890625
6905,9.0,,,,,,,35.0,,,,,,0,note_on,,60.0,35.0,60.0,76587,39.8890625
6906,3.0,,,,,,,79.0,,,,,,137,note_on,,0.0,79.0,0.0,49652,25.860416666666666
6907,9.0,,,,,,,57.0,,,,,,16,note_on,,0.0,57.0,0.0,76603,39.897395833333334
6908,9.0,,,,,,,35.0,,,,,,29,note_on,,0.0,35.0,0.0,76632,39.9125
6909,9.0,,,,,,,36.0,,,,,,0,note_on,,0.0,36.0,0.0,76632,39.9125
6910,6.0,,,,,,,65.0,,,,,,80,note_on,,0.0,65.0,0.0,17020,8.864583333333334
6911,6.0,,,,,,,70.0,,,,,,126,note_on,,0.0,70.0,0.0,17146,8.930208333333333
6912,6.0,,,,,,,75.0,,,,,,8,note_on,,0.0,75.0,0.0,17154,8.934375
6913,3.0,,,,,,,79.0,,,,,,84,note_on,,127.0,79.0,127.0,49736,25.904166666666665
6914,,,,,,,,,,,,,my ,0,lyrics,,,,,4665246424,2429815.845833333
6915,3.0,,,,,,,79.0,,,,,,142,note_on,,0.0,79.0,0.0,49878,25.978125
6916,8.0,,,,,,,34.0,,,,,,167,note_on,,0.0,34.0,0.0,10635,5.5390625
6917,1.0,,,,,,,34.0,,,,,,101,note_on,,0.0,34.0,0.0,3257,1.6963541666666666
6918,3.0,,,,,,,79.0,,,,,,70,note_on,,127.0,79.0,127.0,49948,26.014583333333334
6919,11.0,,,,,,,62.0,,,,,,0,note_on,,127.0,62.0,127.0,22153,11.538020833333333
6920,11.0,,,,,,,67.0,,,,,,0,note_on,,127.0,67.0,127.0,22153,11.538020833333333
6921,11.0,,,,,,,58.0,,,,,,0,note_on,,127.0,58.0,127.0,22153,11.538020833333333
6922,,,,,,,,,,,,,first ,0,lyrics,,,,,4665246584,2429815.9291666667
6923,3.0,,,,,,,79.0,,,,,,195,note_on,,0.0,79.0,0.0,50143,26.116145833333334
6924,11.0,,,,,,,67.0,,,,,,172,note_on,,0.0,67.0,0.0,22325,11.627604166666666
6925,11.0,,,,,,,58.0,,,,,,11,note_on,,0.0,58.0,0.0,22336,11.633333333333333
6926,11.0,,,,,,,62.0,,,,,,36,note_on,,0.0,62.0,0.0,22372,11.652083333333334
6927,3.0,,,,,,,77.0,,,,,,66,note_on,,127.0,77.0,127.0,50209,26.15052083333333
6928,10.0,,,,,,,62.0,,,,,,0,note_on,,127.0,62.0,127.0,12104,6.304166666666666
6929,10.0,,,,,,,67.0,,,,,,0,note_on,,127.0,67.0,127.0,12104,6.304166666666666
6930,10.0,,,,,,,58.0,,,,,,0,note_on,,127.0,58.0,127.0,12104,6.304166666666666
6931,11.0,,,,,,,62.0,,,,,,0,note_on,,127.0,62.0,127.0,22372,11.652083333333334
6932,11.0,,,,,,,58.0,,,,,,0,note_on,,118.0,58.0,118.0,22372,11.652083333333334
6933,11.0,,,,,,,65.0,,,,,,0,note_on,,127.0,65.0,127.0,22372,11.652083333333334
6934,,,,,,,,,,,,,love ,0,lyrics,,,,,4665246904,2429816.095833333
6935,10.0,,,,,,,67.0,,,,,,367,note_on,,0.0,67.0,0.0,12471,6.4953125
6936,10.0,,,,,,,58.0,,,,,,11,note_on,,0.0,58.0,0.0,12482,6.501041666666667
6937,11.0,,,,,,,58.0,,,,,,7,note_on,,0.0,58.0,0.0,22379,11.655729166666667
6938,11.0,,,,,,,65.0,,,,,,23,note_on,,0.0,65.0,0.0,22402,11.667708333333334
6939,10.0,,,,,,,62.0,,,,,,6,note_on,,0.0,62.0,0.0,12488,6.504166666666666
6940,11.0,,,,,,,62.0,,,,,,13,note_on,,0.0,62.0,0.0,22415,11.674479166666666
6941,1.0,,,,,,,34.0,,,,,,53,note_on,,127.0,34.0,127.0,3310,1.7239583333333333
6942,8.0,,,,,,,34.0,,,,,,0,note_on,,127.0,34.0,127.0,10635,5.5390625
6943,9.0,,,,,,,57.0,,,,,,0,note_on,,127.0,57.0,127.0,76632,39.9125
6944,9.0,,,,,,,36.0,,,,,,0,note_on,,124.0,36.0,124.0,76632,39.9125
6945,9.0,,,,,,,35.0,,,,,,0,note_on,,60.0,35.0,60.0,76632,39.9125
6946,10.0,,,,,,,62.0,,,,,,0,note_on,,127.0,62.0,127.0,12488,6.504166666666666
6947,10.0,,,,,,,58.0,,,,,,0,note_on,,118.0,58.0,118.0,12488,6.504166666666666
6948,10.0,,,,,,,65.0,,,,,,0,note_on,,127.0,65.0,127.0,12488,6.504166666666666
6949,12.0,,,,,,,62.0,,,,,,0,note_on,,127.0,62.0,127.0,19106,9.951041666666667
6950,12.0,,,,,,,67.0,,,,,,0,note_on,,127.0,67.0,127.0,19106,9.951041666666667
6951,12.0,,,,,,,58.0,,,,,,0,note_on,,127.0,58.0,127.0,19106,9.951041666666667
6952,9.0,,,,,,,57.0,,,,,,148,note_on,,0.0,57.0,0.0,76780,39.989583333333336
6953,9.0,,,,,,,36.0,,,,,,6,note_on,,0.0,36.0,0.0,76786,39.99270833333333
6954,9.0,,,,,,,35.0,,,,,,0,note_on,,0.0,35.0,0.0,76786,39.99270833333333
6955,3.0,,,,,,,77.0,,,,,,18,note_on,,0.0,77.0,0.0,50227,26.159895833333334
6956,12.0,,,,,,,67.0,,,,,,195,note_on,,0.0,67.0,0.0,19301,10.052604166666667
6957,12.0,,,,,,,58.0,,,,,,11,note_on,,0.0,58.0,0.0,19312,10.058333333333334
6958,10.0,,,,,,,58.0,,,,,,7,note_on,,0.0,58.0,0.0,12495,6.5078125
6959,10.0,,,,,,,65.0,,,,,,23,note_on,,0.0,65.0,0.0,12518,6.519791666666666
6960,12.0,,,,,,,62.0,,,,,,6,note_on,,0.0,62.0,0.0,19318,10.061458333333333
6961,10.0,,,,,,,62.0,,,,,,13,note_on,,0.0,62.0,0.0,12531,6.5265625
6962,3.0,,,,,,,75.0,,,,,,53,note_on,,127.0,75.0,127.0,50280,26.1875
6963,12.0,,,,,,,62.0,,,,,,0,note_on,,127.0,62.0,127.0,19318,10.061458333333333
6964,12.0,,,,,,,58.0,,,,,,0,note_on,,118.0,58.0,118.0,19318,10.061458333333333
6965,12.0,,,,,,,65.0,,,,,,0,note_on,,127.0,65.0,127.0,19318,10.061458333333333
6966,,,,,,,,,,,,,would ,0,lyrics,,,,,4665247544,2429816.4291666667
6967,1.0,,,,,,,34.0,,,,,,20,note_on,,0.0,34.0,0.0,3330,1.734375
6968,8.0,,,,,,,34.0,,,,,,21,note_on,,0.0,34.0,0.0,10656,5.55
6969,3.0,,,,,,,75.0,,,,,,116,note_on,,0.0,75.0,0.0,50396,26.247916666666665
6970,12.0,,,,,,,58.0,,,,,,228,note_on,,0.0,58.0,0.0,19546,10.180208333333333
6971,12.0,,,,,,,65.0,,,,,,23,note_on,,0.0,65.0,0.0,19569,10.1921875
6972,12.0,,,,,,,62.0,,,,,,19,note_on,,0.0,62.0,0.0,19588,10.202083333333333
6973,1.0,,,,,,,34.0,,,,,,53,note_on,,127.0,34.0,127.0,3383,1.7619791666666667
6974,3.0,,,,,,,75.0,,,,,,0,note_on,,127.0,75.0,127.0,50396,26.247916666666665
6975,8.0,,,,,,,34.0,,,,,,0,note_on,,127.0,34.0,127.0,10656,5.55
6976,9.0,,,,,,,57.0,,,,,,0,note_on,,127.0,57.0,127.0,76786,39.99270833333333
6977,9.0,,,,,,,36.0,,,,,,0,note_on,,127.0,36.0,127.0,76786,39.99270833333333
6978,9.0,,,,,,,35.0,,,,,,0,note_on,,60.0,35.0,60.0,76786,39.99270833333333
6979,11.0,,,,,,,63.0,,,,,,0,note_on,,100.0,63.0,100.0,22415,11.674479166666666
6980,11.0,,,,,,,56.0,,,,,,0,note_on,,127.0,56.0,127.0,22415,11.674479166666666
6981,11.0,,,,,,,62.0,,,,,,0,note_on,,126.0,62.0,126.0,22415,11.674479166666666
6982,11.0,,,,,,,53.0,,,,,,0,note_on,,127.0,53.0,127.0,22415,11.674479166666666
6983,11.0,,,,,,,58.0,,,,,,0,note_on,,127.0,58.0,127.0,22415,11.674479166666666
6984,,,,,,,,,,,,,be ,0,lyrics,,,,,4665247984,2429816.658333333
6985,9.0,,,,,,,35.0,,,,,,135,note_on,,0.0,35.0,0.0,76921,40.06302083333333
6986,9.0,,,,,,,36.0,,,,,,0,note_on,,0.0,36.0,0.0,76921,40.06302083333333
6987,9.0,,,,,,,57.0,,,,,,16,note_on,,0.0,57.0,0.0,76937,40.071354166666666
6988,3.0,,,,,,,75.0,,,,,,31,note_on,,0.0,75.0,0.0,50427,26.264062499999998
6989,3.0,,,,,,,77.0,,,,,,298,note_on,,127.0,77.0,127.0,50725,26.419270833333332
6990,6.0,,,,,,,70.0,,,,,,0,note_on,,127.0,70.0,127.0,17154,8.934375
6991,6.0,,,,,,,75.0,,,,,,0,note_on,,127.0,75.0,127.0,17154,8.934375
6992,6.0,,,,,,,65.0,,,,,,0,note_on,,91.0,65.0,91.0,17154,8.934375
6993,10.0,,,,,,,63.0,,,,,,0,note_on,,100.0,63.0,100.0,12531,6.5265625
6994,10.0,,,,,,,56.0,,,,,,0,note_on,,127.0,56.0,127.0,12531,6.5265625
6995,10.0,,,,,,,62.0,,,,,,0,note_on,,126.0,62.0,126.0,12531,6.5265625
6996,10.0,,,,,,,53.0,,,,,,0,note_on,,127.0,53.0,127.0,12531,6.5265625
6997,10.0,,,,,,,58.0,,,,,,0,note_on,,127.0,58.0,127.0,12531,6.5265625
6998,,,,,,,,,,,,,a ,0,lyrics,,,,,4665248344,2429816.845833333
6999,8.0,,,,,,,34.0,,,,,,109,note_on,,0.0,34.0,0.0,10765,5.606770833333333
7000,3.0,,,,,,,77.0,,,,,,57,note_on,,0.0,77.0,0.0,50782,26.448958333333334
7001,1.0,,,,,,,34.0,,,,,,19,note_on,,0.0,34.0,0.0,3402,1.7718749999999999
7002,6.0,,,,,,,,,-387.0,,,,231,pitchwheel,,,,,17385,9.0546875
7003,6.0,,,,,,,,,-1057.0,,,,8,pitchwheel,,,,,17393,9.058854166666666
7004,6.0,,,,,,,,,-1572.0,,,,9,pitchwheel,,,,,17402,9.063541666666666
7005,6.0,,,,,,,,,-2036.0,,,,8,pitchwheel,,,,,17410,9.067708333333334
7006,6.0,,,,,,,,,-2705.0,,,,8,pitchwheel,,,,,17418,9.071875
7007,6.0,,,,,,,,,-3401.0,,,,9,pitchwheel,,,,,17427,9.0765625
7008,6.0,,,,,,,,,-3762.0,,,,8,pitchwheel,,,,,17435,9.080729166666666
7009,6.0,,,,,,,,,-4303.0,,,,8,pitchwheel,,,,,17443,9.084895833333333
7010,1.0,,,,,,,34.0,,,,,,6,note_on,,127.0,34.0,127.0,3408,1.775
7011,3.0,,,,,,,75.0,,,,,,0,note_on,,127.0,75.0,127.0,50782,26.448958333333334
7012,8.0,,,,,,,34.0,,,,,,0,note_on,,127.0,34.0,127.0,10765,5.606770833333333
7013,9.0,,,,,,,57.0,,,,,,0,note_on,,127.0,57.0,127.0,76937,40.071354166666666
7014,9.0,,,,,,,36.0,,,,,,0,note_on,,127.0,36.0,127.0,76937,40.071354166666666
7015,9.0,,,,,,,35.0,,,,,,0,note_on,,60.0,35.0,60.0,76937,40.071354166666666
7016,12.0,,,,,,,63.0,,,,,,0,note_on,,100.0,63.0,100.0,19588,10.202083333333333
7017,12.0,,,,,,,56.0,,,,,,0,note_on,,127.0,56.0,127.0,19588,10.202083333333333
7018,12.0,,,,,,,62.0,,,,,,0,note_on,,126.0,62.0,126.0,19588,10.202083333333333
7019,12.0,,,,,,,53.0,,,,,,0,note_on,,127.0,53.0,127.0,19588,10.202083333333333
7020,12.0,,,,,,,58.0,,,,,,0,note_on,,127.0,58.0,127.0,19588,10.202083333333333
7021,,,,,,,,,,,,,round. ,0,lyrics,,,,,4665302688,2429845.15
7022,,,,,,,,,,,,,,0,lyrics,,,,,4665248824,2429817.095833333
7023,6.0,,,,,,,,,-5075.0,,,,3,pitchwheel,,,,,17446,9.086458333333333
7024,6.0,,,,,,,,,-5591.0,,,,8,pitchwheel,,,,,17454,9.090625
7025,6.0,,,,,,,,,-5951.0,,,,8,pitchwheel,,,,,17462,9.094791666666666
7026,6.0,,,,,,,,,-6647.0,,,,11,pitchwheel,,,,,17473,9.100520833333333
7027,6.0,,,,,,,,,-6904.0,,,,6,pitchwheel,,,,,17479,9.103645833333333
7028,6.0,,,,,,,,,-7188.0,,,,8,pitchwheel,,,,,17487,9.1078125
7029,6.0,,,,,,,,,-7626.0,,,,11,pitchwheel,,,,,17498,9.113541666666666
7030,6.0,,,,,,,,,-7729.0,,,,10,pitchwheel,,,,,17508,9.11875
7031,6.0,,,,,,,,,-7909.0,,,,6,pitchwheel,,,,,17514,9.121875
7032,6.0,,,,,,,,,-8038.0,,,,9,pitchwheel,,,,,17523,9.1265625
7033,6.0,,,,,,,,,-8167.0,,,,6,pitchwheel,,,,,17529,9.1296875
7034,6.0,,,,,,,,,-8192.0,,,,8,pitchwheel,,,,,17537,9.133854166666666
7035,6.0,,,,,,,,,-8089.0,,,,33,pitchwheel,,,,,17570,9.151041666666666
7036,6.0,,,,,,,,,-7780.0,,,,11,pitchwheel,,,,,17581,9.156770833333333
7037,9.0,,,,,,,35.0,,,,,,5,note_on,,0.0,35.0,0.0,76942,40.07395833333333
7038,9.0,,,,,,,36.0,,,,,,0,note_on,,0.0,36.0,0.0,76942,40.07395833333333
7039,6.0,,,,,,,,,-7548.0,,,,5,pitchwheel,,,,,17586,9.159375
7040,6.0,,,,,,,,,-7111.0,,,,9,pitchwheel,,,,,17595,9.1640625
7041,9.0,,,,,,,57.0,,,,,,1,note_on,,0.0,57.0,0.0,76943,40.07447916666666
7042,6.0,,,,,,,,,-6570.0,,,,5,pitchwheel,,,,,17600,9.166666666666666
7043,6.0,,,,,,,,,-5848.0,,,,8,pitchwheel,,,,,17608,9.170833333333333
7044,6.0,,,,,,,,,-3968.0,,,,10,pitchwheel,,,,,17618,9.176041666666666
7045,6.0,,,,,,,,,-1752.0,,,,8,pitchwheel,,,,,17626,9.180208333333333
7046,6.0,,,,,,,,,0.0,,,,10,pitchwheel,,,,,17636,9.185416666666667
7047,6.0,,,,,,,,,1416.0,,,,9,pitchwheel,,,,,17645,9.190104166666666
7048,6.0,,,,,,,,,1159.0,,,,8,pitchwheel,,,,,17653,9.194270833333333
7049,6.0,,,,,,,,,77.0,,,,8,pitchwheel,,,,,17661,9.1984375
7050,3.0,,,,,,,75.0,,,,,,11,note_on,,0.0,75.0,0.0,50793,26.4546875
7051,6.0,,,,,,,,,0.0,,,,0,pitchwheel,,,,,17661,9.1984375
7052,11.0,,,,,,,63.0,,,,,,245,note_on,,0.0,63.0,0.0,22660,11.802083333333334
7053,1.0,,,,,,,19.0,,,,,,0,note_on,,126.0,19.0,126.0,3408,1.775
7054,3.0,,,,,,,77.0,,,,,,0,note_on,,127.0,77.0,127.0,50793,26.4546875
7055,11.0,,,,,,,63.0,,,,,,0,note_on,,127.0,63.0,127.0,22660,11.802083333333334
7056,,,,,,,,,,,,,And ,0,lyrics,,,,,4665278704,2429832.658333333
7057,1.0,,,,,,,34.0,,,,,,40,note_on,,0.0,34.0,0.0,3448,1.7958333333333334
7058,8.0,,,,,,,34.0,,,,,,30,note_on,,0.0,34.0,0.0,10795,5.622395833333333
7059,6.0,,,,,,,65.0,,,,,,45,note_on,,0.0,65.0,0.0,17706,9.221875
7060,1.0,,,,,,,20.0,,,,,,125,note_on,,127.0,20.0,127.0,3573,1.8609375
7061,3.0,,,,,,,77.0,,,,,,1,note_on,,0.0,77.0,0.0,50794,26.45520833333333
7062,1.0,,,,,,,19.0,,,,,,143,note_on,,0.0,19.0,0.0,3716,1.9354166666666666
7063,6.0,,,,,,,70.0,,,,,,88,note_on,,0.0,70.0,0.0,17794,9.267708333333333
7064,10.0,,,,,,,63.0,,,,,,8,note_on,,0.0,63.0,0.0,12539,6.530729166666666
7065,1.0,,,,,,,22.0,,,,,,0,note_on,,127.0,22.0,127.0,3716,1.9354166666666666
7066,3.0,,,,,,,75.0,,,,,,0,note_on,,127.0,75.0,127.0,50794,26.45520833333333
7067,8.0,,,,,,,34.0,,,,,,0,note_on,,127.0,34.0,127.0,10795,5.622395833333333
7068,9.0,,,,,,,57.0,,,,,,0,note_on,,127.0,57.0,127.0,76943,40.07447916666666
7069,9.0,,,,,,,36.0,,,,,,0,note_on,,127.0,36.0,127.0,76943,40.07447916666666
7070,9.0,,,,,,,35.0,,,,,,0,note_on,,60.0,35.0,60.0,76943,40.07447916666666
7071,10.0,,,,,,,63.0,,,,,,0,note_on,,127.0,63.0,127.0,12539,6.530729166666666
7072,,,,,,,,,,,,,I'm ,0,lyrics,,,,,4665278992,2429832.808333333
7073,6.0,,,,,,,75.0,,,,,,4,note_on,,0.0,75.0,0.0,17798,9.269791666666666
7074,1.0,,,,,,,20.0,,,,,,71,note_on,,0.0,20.0,0.0,3787,1.9723958333333333
7075,9.0,,,,,,,35.0,,,,,,48,note_on,,0.0,35.0,0.0,76991,40.09947916666667
7076,9.0,,,,,,,36.0,,,,,,0,note_on,,0.0,36.0,0.0,76991,40.09947916666667
7077,9.0,,,,,,,57.0,,,,,,5,note_on,,0.0,57.0,0.0,76996,40.10208333333333
7078,1.0,,,,,,,,,-284.0,,,,38,pitchwheel,,,,,3825,1.9921875
7079,1.0,,,,,,,,,-773.0,,,,8,pitchwheel,,,,,3833,1.9963541666666667
7080,1.0,,,,,,,,,-1340.0,,,,8,pitchwheel,,,,,3841,2.0005208333333333
7081,1.0,,,,,,,,,-1907.0,,,,9,pitchwheel,,,,,3850,2.0052083333333335
7082,1.0,,,,,,,,,-2396.0,,,,8,pitchwheel,,,,,3858,2.009375
7083,1.0,,,,,,,,,-2989.0,,,,6,pitchwheel,,,,,3864,2.0125
7084,1.0,,,,,,,,,-3556.0,,,,9,pitchwheel,,,,,3873,2.0171875
7085,1.0,,,,,,,,,-3890.0,,,,14,pitchwheel,,,,,3887,2.0244791666666666
7086,1.0,,,,,,,,,-4715.0,,,,4,pitchwheel,,,,,3891,2.0265625
7087,1.0,,,,,,,,,-5539.0,,,,6,pitchwheel,,,,,3897,2.0296875
7088,1.0,,,,,,,,,-5900.0,,,,11,pitchwheel,,,,,3908,2.0354166666666664
7089,1.0,,,,,,,,,-6673.0,,,,8,pitchwheel,,,,,3916,2.0395833333333333
7090,1.0,,,,,,,,,-7111.0,,,,6,pitchwheel,,,,,3922,2.042708333333333
7091,1.0,,,,,,,,,-7806.0,,,,9,pitchwheel,,,,,3931,2.0473958333333333
7092,1.0,,,,,,,,,-8115.0,,,,10,pitchwheel,,,,,3941,2.052604166666667
7093,1.0,,,,,,,,,-8192.0,,,,8,pitchwheel,,,,,3949,2.056770833333333
7094,3.0,,,,,,,75.0,,,,,,70,note_on,,0.0,75.0,0.0,50864,26.491666666666667
7095,1.0,,,,,,,,,-8141.0,,,,96,pitchwheel,,,,,4045,2.1067708333333335
7096,1.0,,,,,,,,,-8038.0,,,,12,pitchwheel,,,,,4057,2.113020833333333
7097,12.0,,,,,,,63.0,,,,,,12,note_on,,0.0,63.0,0.0,19600,10.208333333333334
7098,3.0,,,,,,,77.0,,,,,,0,note_on,,127.0,77.0,127.0,50864,26.491666666666667
7099,12.0,,,,,,,63.0,,,,,,0,note_on,,127.0,63.0,127.0,19600,10.208333333333334
7100,,,,,,,,,,,,,like ,0,lyrics,,,,,4665279616,2429833.1333333333
7101,1.0,,,,,,,,,-8064.0,,,,13,pitchwheel,,,,,4070,2.1197916666666665
7102,1.0,,,,,,,,,-8115.0,,,,13,pitchwheel,,,,,4083,2.1265625
7103,8.0,,,,,,,34.0,,,,,,21,note_on,,0.0,34.0,0.0,10816,5.633333333333333
7104,1.0,,,,,,,,,-8038.0,,,,20,pitchwheel,,,,,4103,2.1369791666666664
7105,1.0,,,,,,,,,-7986.0,,,,9,pitchwheel,,,,,4112,2.1416666666666666
7106,1.0,,,,,,,,,-7883.0,,,,8,pitchwheel,,,,,4120,2.1458333333333335
7107,1.0,,,,,,,,,-7780.0,,,,10,pitchwheel,,,,,4130,2.1510416666666665
7108,1.0,,,,,,,,,-7677.0,,,,11,pitchwheel,,,,,4141,2.1567708333333333
7109,1.0,,,,,,,,,-7420.0,,,,10,pitchwheel,,,,,4151,2.161979166666667
7110,1.0,,,,,,,,,-7317.0,,,,8,pitchwheel,,,,,4159,2.166145833333333
7111,1.0,,,,,,,,,-7033.0,,,,9,pitchwheel,,,,,4168,2.1708333333333334
7112,1.0,,,,,,,,,-6879.0,,,,8,pitchwheel,,,,,4176,2.175
7113,1.0,,,,,,,,,-6673.0,,,,10,pitchwheel,,,,,4186,2.1802083333333333
7114,1.0,,,,,,,,,-6235.0,,,,9,pitchwheel,,,,,4195,2.1848958333333335
7115,1.0,,,,,,,,,-6029.0,,,,10,pitchwheel,,,,,4205,2.1901041666666665
7116,1.0,,,,,,,,,-5642.0,,,,8,pitchwheel,,,,,4213,2.1942708333333334
7117,1.0,,,,,,,,,-5256.0,,,,9,pitchwheel,,,,,4222,2.198958333333333
7118,1.0,,,,,,,,,-4844.0,,,,6,pitchwheel,,,,,4228,2.2020833333333334
7119,1.0,,,,,,,,,-4431.0,,,,8,pitchwheel,,,,,4236,2.20625
7120,1.0,,,,,,,,,-3556.0,,,,11,pitchwheel,,,,,4247,2.2119791666666666
7121,1.0,,,,,,,,,-2474.0,,,,8,pitchwheel,,,,,4255,2.2161458333333335
7122,1.0,,,,,,,,,-593.0,,,,8,pitchwheel,,,,,4263,2.2203125
7123,11.0,,,,,,,56.0,,,,,,6,note_on,,0.0,56.0,0.0,22666,11.805208333333333
7124,1.0,,,,,,,,,25.0,,,,3,pitchwheel,,,,,4266,2.221875
7125,11.0,,,,,,,62.0,,,,,,1,note_on,,0.0,62.0,0.0,22667,11.805729166666666
7126,1.0,,,,,,,,,721.0,,,,7,pitchwheel,,,,,4273,2.2255208333333334
7127,1.0,,,,,,,,,283.0,,,,8,pitchwheel,,,,,4281,2.2296875
7128,1.0,,,,,,,,,0.0,,,,9,pitchwheel,,,,,4290,2.234375
7129,3.0,,,,,,,77.0,,,,,,99,note_on,,0.0,77.0,0.0,50963,26.543229166666666
7130,1.0,,,,,,,22.0,,,,,,68,note_on,,0.0,22.0,0.0,4358,2.2697916666666664
7131,11.0,,,,,,,53.0,,,,,,10,note_on,,0.0,53.0,0.0,22677,11.8109375
7132,11.0,,,,,,,58.0,,,,,,31,note_on,,0.0,58.0,0.0,22708,11.827083333333333
7133,11.0,,0.0,,,,,,,,,,,9,control_change,121.0,,,,22717,11.831770833333334
7134,11.0,,0.0,,,,,,,,,,,0,control_change,121.0,,,,22717,11.831770833333334
7135,11.0,,32.0,,,,,,,,,,,1,control_change,0.0,,,,22718,11.832291666666666
7136,11.0,,32.0,,,,,,,,,,,0,control_change,0.0,,,,22718,11.832291666666666
7137,1.0,,,,,,,27.0,,,,,,1,note_on,,127.0,27.0,127.0,4359,2.2703125
7138,7.0,,,,,,,82.0,,,,,,0,note_on,,127.0,82.0,127.0,1910,0.9947916666666666
7139,8.0,,,,,,,39.0,,,,,,0,note_on,,115.0,39.0,115.0,10816,5.633333333333333
7140,8.0,,,,,,,87.0,,,,,,0,note_on,,45.0,87.0,45.0,10816,5.633333333333333
7141,8.0,,,,,,,70.0,,,,,,0,note_on,,127.0,70.0,127.0,10816,5.633333333333333
7142,9.0,,,,,,,57.0,,,,,,0,note_on,,100.0,57.0,100.0,76996,40.10208333333333
7143,9.0,,,,,,,42.0,,,,,,0,note_on,,85.0,42.0,85.0,76996,40.10208333333333
7144,9.0,,,,,,,70.0,,,,,,0,note_on,,40.0,70.0,40.0,76996,40.10208333333333
7145,9.0,,,,,,,36.0,,,,,,0,note_on,,126.0,36.0,126.0,76996,40.10208333333333
7146,9.0,,,,,,,35.0,,,,,,0,note_on,,60.0,35.0,60.0,76996,40.10208333333333
7147,11.0,,,,,,,67.0,,,,,,0,note_on,,127.0,67.0,127.0,22718,11.832291666666666
7148,11.0,,,,,,,63.0,,,,,,0,note_on,,127.0,63.0,127.0,22718,11.832291666666666
7149,11.0,,,,,,,70.0,,,,,,0,note_on,,126.0,70.0,126.0,22718,11.832291666666666
7150,3.0,,,,,,,79.0,,,,,,0,note_on,,127.0,79.0,127.0,50963,26.543229166666666
7151,11.0,,,,,,,,,,24.0,,,0,program_change,,,,,22718,11.832291666666666
7152,,,,,,,,,,,,,Ba ,0,lyrics,,,,,4665280528,2429833.6083333334
7153,11.0,,,,,,,63.0,,,,,,15,note_on,,0.0,63.0,0.0,22733,11.840104166666666
7154,5.0,,,,,,,58.0,,,,,,17,note_on,,85.0,58.0,85.0,1197,0.6234375
7155,5.0,,,,,,,55.0,,,,,,6,note_on,,88.0,55.0,88.0,1203,0.6265625
7156,5.0,,,,,,,63.0,,,,,,0,note_on,,109.0,63.0,109.0,1203,0.6265625
7157,9.0,,,,,,,57.0,,,,,,76,note_on,,0.0,57.0,0.0,77072,40.141666666666666
7158,8.0,,,,,,,87.0,,,,,,8,note_on,,0.0,87.0,0.0,10824,5.6375
7159,9.0,,,,,,,35.0,,,,,,50,note_on,,0.0,35.0,0.0,77122,40.16770833333333
7160,9.0,,,,,,,36.0,,,,,,0,note_on,,0.0,36.0,0.0,77122,40.16770833333333
7161,9.0,,,,,,,70.0,,,,,,52,note_on,,0.0,70.0,0.0,77174,40.19479166666667
7162,9.0,,,,,,,42.0,,,,,,0,note_on,,0.0,42.0,0.0,77174,40.19479166666667
7163,10.0,,,,,,,56.0,,,,,,9,note_on,,0.0,56.0,0.0,12548,6.535416666666666
7164,10.0,,,,,,,62.0,,,,,,4,note_on,,0.0,62.0,0.0,12552,6.5375
7165,9.0,,,,,,,44.0,,,,,,3,note_on,,75.0,44.0,75.0,77177,40.196354166666666
7166,11.0,,,,,,,63.0,,,,,,157,note_on,,0.0,63.0,0.0,22890,11.921875
7167,11.0,,,,,,,67.0,,,,,,10,note_on,,0.0,67.0,0.0,22900,11.927083333333334
7168,10.0,,,,,,,53.0,,,,,,31,note_on,,0.0,53.0,0.0,12583,6.553645833333333
7169,11.0,,,,,,,70.0,,,,,,21,note_on,,0.0,70.0,0.0,22921,11.938020833333333
7170,10.0,,,,,,,58.0,,,,,,10,note_on,,0.0,58.0,0.0,12593,6.558854166666666
7171,8.0,,,,,,,70.0,,,,,,3,note_on,,0.0,70.0,0.0,10827,5.6390625
7172,7.0,,,,,,,82.0,,,,,,0,note_on,,0.0,82.0,0.0,1910,0.9947916666666666
7173,10.0,,0.0,,,,,,,,,,,6,control_change,121.0,,,,12599,6.561979166666666
7174,10.0,,0.0,,,,,,,,,,,0,control_change,121.0,,,,12599,6.561979166666666
7175,10.0,,32.0,,,,,,,,,,,1,control_change,0.0,,,,12600,6.5625
7176,10.0,,32.0,,,,,,,,,,,0,control_change,0.0,,,,12600,6.5625
7177,9.0,,,,,,,42.0,,,,,,1,note_on,,85.0,42.0,85.0,77178,40.196875
7178,8.0,,,,,,,87.0,,,,,,0,note_on,,45.0,87.0,45.0,10827,5.6390625
7179,9.0,,,,,,,70.0,,,,,,0,note_on,,40.0,70.0,40.0,77178,40.196875
7180,10.0,,,,,,,,,,24.0,,,0,program_change,,,,,12600,6.5625
7181,10.0,,,,,,,67.0,,,,,,0,note_on,,127.0,67.0,127.0,12600,6.5625
7182,10.0,,,,,,,63.0,,,,,,0,note_on,,127.0,63.0,127.0,12600,6.5625
7183,10.0,,,,,,,70.0,,,,,,0,note_on,,126.0,70.0,126.0,12600,6.5625
7184,10.0,,,,,,,63.0,,,,,,15,note_on,,0.0,63.0,0.0,12615,6.5703125
7185,8.0,,,,,,,87.0,,,,,,106,note_on,,0.0,87.0,0.0,10933,5.694270833333333
7186,3.0,,,,,,,79.0,,,,,,39,note_on,,0.0,79.0,0.0,51002,26.563541666666666
7187,9.0,,,,,,,70.0,,,,,,64,note_on,,0.0,70.0,0.0,77242,40.23020833333333
7188,12.0,,,,,,,56.0,,,,,,9,note_on,,0.0,56.0,0.0,19609,10.213020833333333
7189,12.0,,,,,,,62.0,,,,,,4,note_on,,0.0,62.0,0.0,19613,10.215104166666666
7190,8.0,,,,,,,87.0,,,,,,3,note_on,,45.0,87.0,45.0,10936,5.695833333333333
7191,9.0,,,,,,,44.0,,,,,,0,note_on,,75.0,44.0,75.0,77242,40.23020833333333
7192,9.0,,,,,,,36.0,,,,,,0,note_on,,126.0,36.0,126.0,77242,40.23020833333333
7193,9.0,,,,,,,35.0,,,,,,0,note_on,,60.0,35.0,60.0,77242,40.23020833333333
7194,8.0,,,,,,,87.0,,,,,,102,note_on,,0.0,87.0,0.0,11038,5.748958333333333
7195,10.0,,,,,,,63.0,,,,,,55,note_on,,0.0,63.0,0.0,12670,6.598958333333333
7196,10.0,,,,,,,67.0,,,,,,10,note_on,,0.0,67.0,0.0,12680,6.604166666666667
7197,12.0,,,,,,,53.0,,,,,,31,note_on,,0.0,53.0,0.0,19644,10.23125
7198,10.0,,,,,,,70.0,,,,,,21,note_on,,0.0,70.0,0.0,12701,6.615104166666667
7199,9.0,,,,,,,35.0,,,,,,5,note_on,,0.0,35.0,0.0,77247,40.2328125
7200,9.0,,,,,,,36.0,,,,,,0,note_on,,0.0,36.0,0.0,77247,40.2328125
7201,12.0,,,,,,,58.0,,,,,,5,note_on,,0.0,58.0,0.0,19649,10.233854166666667
7202,12.0,,0.0,,,,,,,,,,,9,control_change,121.0,,,,19658,10.238541666666666
7203,12.0,,32.0,,,,,,,,,,,1,control_change,0.0,,,,19659,10.2390625
7204,3.0,,,,,,,77.0,,,,,,1,note_on,,127.0,77.0,127.0,51003,26.5640625
7205,7.0,,,,,,,75.0,,,,,,0,note_on,,127.0,75.0,127.0,1910,0.9947916666666666
7206,8.0,,,,,,,63.0,,,,,,0,note_on,,127.0,63.0,127.0,11038,5.748958333333333
7207,9.0,,,,,,,42.0,,,,,,0,note_on,,85.0,42.0,85.0,77247,40.2328125
7208,9.0,,,,,,,70.0,,,,,,0,note_on,,40.0,70.0,40.0,77247,40.2328125
7209,9.0,,,,,,,39.0,,,,,,0,note_on,,125.0,39.0,125.0,77247,40.2328125
7210,9.0,,,,,,,28.0,,,,,,0,note_on,,127.0,28.0,127.0,77247,40.2328125
7211,12.0,,,,,,,67.0,,,,,,0,note_on,,127.0,67.0,127.0,19659,10.2390625
7212,12.0,,,,,,,63.0,,,,,,0,note_on,,127.0,63.0,127.0,19659,10.2390625
7213,12.0,,,,,,,70.0,,,,,,0,note_on,,126.0,70.0,126.0,19659,10.2390625
7214,12.0,,0.0,,,,,,,,,,,0,control_change,121.0,,,,19659,10.2390625
7215,12.0,,32.0,,,,,,,,,,,0,control_change,0.0,,,,19659,10.2390625
7216,12.0,,,,,,,,,,24.0,,,0,program_change,,,,,19659,10.2390625
7217,,,,,,,,,,,,,"by, ",0,lyrics,,,,,4665281680,2429834.2083333335
7218,12.0,,,,,,,63.0,,,,,,15,note_on,,0.0,63.0,0.0,19674,10.246875
7219,9.0,,,,,,,28.0,,,,,,102,note_on,,0.0,28.0,0.0,77349,40.2859375
7220,9.0,,,,,,,39.0,,,,,,34,note_on,,0.0,39.0,0.0,77383,40.303645833333334
7221,9.0,,,,,,,42.0,,,,,,73,note_on,,0.0,42.0,0.0,77456,40.34166666666667
7222,9.0,,,,,,,70.0,,,,,,0,note_on,,0.0,70.0,0.0,77456,40.34166666666667
7223,8.0,,,,,,,87.0,,,,,,16,note_on,,45.0,87.0,45.0,11054,5.757291666666666
7224,9.0,,,,,,,44.0,,,,,,0,note_on,,75.0,44.0,75.0,77456,40.34166666666667
7225,8.0,,,,,,,87.0,,,,,,114,note_on,,0.0,87.0,0.0,11168,5.816666666666666
7226,12.0,,,,,,,63.0,,,,,,43,note_on,,0.0,63.0,0.0,19717,10.269270833333334
7227,12.0,,,,,,,67.0,,,,,,10,note_on,,0.0,67.0,0.0,19727,10.274479166666666
7228,12.0,,,,,,,70.0,,,,,,52,note_on,,0.0,70.0,0.0,19779,10.3015625
7229,9.0,,,,,,,44.0,,,,,,21,note_on,,0.0,44.0,0.0,77477,40.352604166666666
7230,9.0,,,,,,,42.0,,,,,,0,note_on,,85.0,42.0,85.0,77477,40.352604166666666
7231,9.0,,,,,,,70.0,,,,,,0,note_on,,40.0,70.0,40.0,77477,40.352604166666666
7232,9.0,,,,,,,36.0,,,,,,0,note_on,,126.0,36.0,126.0,77477,40.352604166666666
7233,9.0,,,,,,,35.0,,,,,,0,note_on,,60.0,35.0,60.0,77477,40.352604166666666
7234,7.0,,,,,,,75.0,,,,,,9,note_on,,0.0,75.0,0.0,1919,0.9994791666666667
7235,8.0,,,,,,,63.0,,,,,,0,note_on,,0.0,63.0,0.0,11168,5.816666666666666
7236,3.0,,,,,,,77.0,,,,,,96,note_on,,0.0,77.0,0.0,51099,26.6140625
7237,9.0,,,,,,,36.0,,,,,,61,note_on,,0.0,36.0,0.0,77538,40.384375
7238,9.0,,,,,,,35.0,,,,,,0,note_on,,0.0,35.0,0.0,77538,40.384375
7239,9.0,,,,,,,70.0,,,,,,58,note_on,,0.0,70.0,0.0,77596,40.41458333333333
7240,9.0,,,,,,,42.0,,,,,,16,note_on,,0.0,42.0,0.0,77612,40.422916666666666
7241,8.0,,,,,,,87.0,,,,,,0,note_on,,45.0,87.0,45.0,11168,5.816666666666666
7242,9.0,,,,,,,44.0,,,,,,0,note_on,,75.0,44.0,75.0,77612,40.422916666666666
7243,8.0,,,,,,,87.0,,,,,,97,note_on,,0.0,87.0,0.0,11265,5.8671875
7244,9.0,,,,,,,44.0,,,,,,143,note_on,,0.0,44.0,0.0,77755,40.497395833333336
7245,3.0,,,,,,,79.0,,,,,,0,note_on,,127.0,79.0,127.0,51099,26.6140625
7246,7.0,,,,,,,77.0,,,,,,0,note_on,,127.0,77.0,127.0,1919,0.9994791666666667
7247,8.0,,,,,,,65.0,,,,,,0,note_on,,127.0,65.0,127.0,11265,5.8671875
7248,9.0,,,,,,,42.0,,,,,,0,note_on,,85.0,42.0,85.0,77755,40.497395833333336
7249,9.0,,,,,,,70.0,,,,,,0,note_on,,40.0,70.0,40.0,77755,40.497395833333336
7250,,,,,,,,,,,,,ba ,0,lyrics,,,,,4665286568,2429836.7541666664
7251,9.0,,,,,,,70.0,,,,,,224,note_on,,0.0,70.0,0.0,77979,40.6140625
7252,9.0,,,,,,,42.0,,,,,,0,note_on,,0.0,42.0,0.0,77979,40.6140625
7253,8.0,,,,,,,87.0,,,,,,16,note_on,,45.0,87.0,45.0,11281,5.875520833333333
7254,9.0,,,,,,,44.0,,,,,,0,note_on,,75.0,44.0,75.0,77979,40.6140625
7255,8.0,,,,,,,87.0,,,,,,88,note_on,,0.0,87.0,0.0,11369,5.921354166666666
7256,9.0,,,,,,,44.0,,,,,,152,note_on,,0.0,44.0,0.0,78131,40.69322916666667
7257,9.0,,,,,,,42.0,,,,,,0,note_on,,85.0,42.0,85.0,78131,40.69322916666667
7258,9.0,,,,,,,70.0,,,,,,0,note_on,,40.0,70.0,40.0,78131,40.69322916666667
7259,9.0,,,,,,,36.0,,,,,,0,note_on,,126.0,36.0,126.0,78131,40.69322916666667
7260,9.0,,,,,,,35.0,,,,,,0,note_on,,60.0,35.0,60.0,78131,40.69322916666667
7261,8.0,,,,,,,65.0,,,,,,45,note_on,,0.0,65.0,0.0,11414,5.944791666666666
7262,7.0,,,,,,,77.0,,,,,,0,note_on,,0.0,77.0,0.0,1919,0.9994791666666667
7263,9.0,,,,,,,35.0,,,,,,109,note_on,,0.0,35.0,0.0,78240,40.75
7264,9.0,,,,,,,36.0,,,,,,0,note_on,,0.0,36.0,0.0,78240,40.75
7265,3.0,,,,,,,79.0,,,,,,42,note_on,,0.0,79.0,0.0,51141,26.6359375
7266,9.0,,,,,,,70.0,,,,,,28,note_on,,0.0,70.0,0.0,78268,40.764583333333334
7267,9.0,,,,,,,42.0,,,,,,16,note_on,,0.0,42.0,0.0,78284,40.77291666666667
7268,9.0,,,,,,,44.0,,,,,,0,note_on,,75.0,44.0,75.0,78284,40.77291666666667
7269,9.0,,,,,,,44.0,,,,,,240,note_on,,0.0,44.0,0.0,78524,40.89791666666667
7270,3.0,,,,,,,77.0,,,,,,0,note_on,,127.0,77.0,127.0,51141,26.6359375
7271,7.0,,,,,,,70.0,,,,,,0,note_on,,127.0,70.0,127.0,1919,0.9994791666666667
7272,8.0,,,,,,,87.0,,,,,,0,note_on,,45.0,87.0,45.0,11414,5.944791666666666
7273,8.0,,,,,,,58.0,,,,,,0,note_on,,127.0,58.0,127.0,11414,5.944791666666666
7274,9.0,,,,,,,42.0,,,,,,0,note_on,,85.0,42.0,85.0,78524,40.89791666666667
7275,9.0,,,,,,,70.0,,,,,,0,note_on,,40.0,70.0,40.0,78524,40.89791666666667
7276,9.0,,,,,,,39.0,,,,,,0,note_on,,127.0,39.0,127.0,78524,40.89791666666667
7277,9.0,,,,,,,28.0,,,,,,0,note_on,,127.0,28.0,127.0,78524,40.89791666666667
7278,11.0,,,,,,,67.0,,,,,,0,note_on,,127.0,67.0,127.0,22921,11.938020833333333
7279,11.0,,,,,,,72.0,,,,,,0,note_on,,127.0,72.0,127.0,22921,11.938020833333333
7280,11.0,,,,,,,63.0,,,,,,0,note_on,,127.0,63.0,127.0,22921,11.938020833333333
7281,,,,,,,,,,,,,"by, ",0,lyrics,,,,,4665258592,2429822.183333333
7282,8.0,,,,,,,87.0,,,,,,103,note_on,,0.0,87.0,0.0,11517,5.9984375
7283,9.0,,,,,,,39.0,,,,,,20,note_on,,0.0,39.0,0.0,78544,40.90833333333333
7284,9.0,,,,,,,28.0,,,,,,2,note_on,,0.0,28.0,0.0,78546,40.909375
7285,9.0,,,,,,,42.0,,,,,,99,note_on,,0.0,42.0,0.0,78645,40.9609375
7286,9.0,,,,,,,70.0,,,,,,0,note_on,,0.0,70.0,0.0,78645,40.9609375
7287,3.0,,,,,,,77.0,,,,,,7,note_on,,0.0,77.0,0.0,51148,26.639583333333334
7288,9.0,,,,,,,44.0,,,,,,9,note_on,,75.0,44.0,75.0,78654,40.965625
7289,11.0,,,,,,,63.0,,,,,,125,note_on,,0.0,63.0,0.0,23046,12.003125
7290,11.0,,,,,,,72.0,,,,,,15,note_on,,0.0,72.0,0.0,23061,12.0109375
7291,11.0,,,,,,,67.0,,,,,,8,note_on,,0.0,67.0,0.0,23069,12.015104166666667
7292,9.0,,,,,,,44.0,,,,,,92,note_on,,0.0,44.0,0.0,78746,41.01354166666667
7293,3.0,,,,,,,79.0,,,,,,0,note_on,,127.0,79.0,127.0,51148,26.639583333333334
7294,8.0,,,,,,,87.0,,,,,,0,note_on,,45.0,87.0,45.0,11517,5.9984375
7295,9.0,,,,,,,42.0,,,,,,0,note_on,,85.0,42.0,85.0,78746,41.01354166666667
7296,9.0,,,,,,,70.0,,,,,,0,note_on,,40.0,70.0,40.0,78746,41.01354166666667
7297,10.0,,,,,,,67.0,,,,,,0,note_on,,127.0,67.0,127.0,12701,6.615104166666667
7298,10.0,,,,,,,72.0,,,,,,0,note_on,,127.0,72.0,127.0,12701,6.615104166666667
7299,10.0,,,,,,,63.0,,,,,,0,note_on,,127.0,63.0,127.0,12701,6.615104166666667
7300,11.0,,,,,,,67.0,,,,,,0,note_on,,127.0,67.0,127.0,23069,12.015104166666667
7301,11.0,,,,,,,70.0,,,,,,0,note_on,,118.0,70.0,118.0,23069,12.015104166666667
7302,11.0,,,,,,,63.0,,,,,,0,note_on,,127.0,63.0,127.0,23069,12.015104166666667
7303,,,,,,,,,,,,,ba ,0,lyrics,,,,,4665303568,2429845.6083333334
7304,8.0,,,,,,,87.0,,,,,,113,note_on,,0.0,87.0,0.0,11630,6.057291666666667
7305,7.0,,,,,,,70.0,,,,,,17,note_on,,0.0,70.0,0.0,1936,1.0083333333333333
7306,8.0,,,,,,,58.0,,,,,,0,note_on,,0.0,58.0,0.0,11630,6.057291666666667
7307,9.0,,,,,,,70.0,,,,,,94,note_on,,0.0,70.0,0.0,78840,41.0625
7308,9.0,,,,,,,42.0,,,,,,16,note_on,,0.0,42.0,0.0,78856,41.07083333333333
7309,9.0,,,,,,,44.0,,,,,,0,note_on,,75.0,44.0,75.0,78856,41.07083333333333
7310,10.0,,,,,,,63.0,,,,,,125,note_on,,0.0,63.0,0.0,12826,6.680208333333333
7311,10.0,,,,,,,72.0,,,,,,15,note_on,,0.0,72.0,0.0,12841,6.688020833333333
7312,10.0,,,,,,,67.0,,,,,,8,note_on,,0.0,67.0,0.0,12849,6.6921875
7313,11.0,,,,,,,70.0,,,,,,38,note_on,,0.0,70.0,0.0,23107,12.034895833333334
7314,11.0,,,,,,,63.0,,,,,,0,note_on,,0.0,63.0,0.0,23107,12.034895833333334
7315,11.0,,,,,,,67.0,,,,,,3,note_on,,0.0,67.0,0.0,23110,12.036458333333334
7316,9.0,,,,,,,44.0,,,,,,51,note_on,,0.0,44.0,0.0,78907,41.09739583333333
7317,7.0,,,,,,,82.0,,,,,,0,note_on,,127.0,82.0,127.0,1936,1.0083333333333333
7318,8.0,,,,,,,70.0,,,,,,0,note_on,,127.0,70.0,127.0,11630,6.057291666666667
7319,9.0,,,,,,,42.0,,,,,,0,note_on,,85.0,42.0,85.0,78907,41.09739583333333
7320,9.0,,,,,,,70.0,,,,,,0,note_on,,40.0,70.0,40.0,78907,41.09739583333333
7321,9.0,,,,,,,36.0,,,,,,0,note_on,,126.0,36.0,126.0,78907,41.09739583333333
7322,9.0,,,,,,,35.0,,,,,,0,note_on,,60.0,35.0,60.0,78907,41.09739583333333
7323,10.0,,,,,,,67.0,,,,,,0,note_on,,127.0,67.0,127.0,12849,6.6921875
7324,10.0,,,,,,,70.0,,,,,,0,note_on,,118.0,70.0,118.0,12849,6.6921875
7325,10.0,,,,,,,63.0,,,,,,0,note_on,,127.0,63.0,127.0,12849,6.6921875
7326,12.0,,,,,,,67.0,,,,,,0,note_on,,127.0,67.0,127.0,19779,10.3015625
7327,12.0,,,,,,,72.0,,,,,,0,note_on,,127.0,72.0,127.0,19779,10.3015625
7328,12.0,,,,,,,63.0,,,,,,0,note_on,,127.0,63.0,127.0,19779,10.3015625
7329,9.0,,,,,,,35.0,,,,,,172,note_on,,0.0,35.0,0.0,79079,41.18697916666667
7330,9.0,,,,,,,36.0,,,,,,0,note_on,,0.0,36.0,0.0,79079,41.18697916666667
7331,3.0,,,,,,,79.0,,,,,,43,note_on,,0.0,79.0,0.0,51191,26.661979166666665
7332,9.0,,,,,,,42.0,,,,,,9,note_on,,0.0,42.0,0.0,79088,41.19166666666666
7333,9.0,,,,,,,70.0,,,,,,0,note_on,,0.0,70.0,0.0,79088,41.19166666666666
7334,9.0,,,,,,,44.0,,,,,,16,note_on,,75.0,44.0,75.0,79104,41.2
7335,12.0,,,,,,,63.0,,,,,,125,note_on,,0.0,63.0,0.0,19904,10.366666666666667
7336,12.0,,,,,,,72.0,,,,,,15,note_on,,0.0,72.0,0.0,19919,10.374479166666667
7337,12.0,,,,,,,67.0,,,,,,8,note_on,,0.0,67.0,0.0,19927,10.378645833333334
7338,10.0,,,,,,,63.0,,,,,,38,note_on,,0.0,63.0,0.0,12887,6.711979166666667
7339,10.0,,,,,,,70.0,,,,,,0,note_on,,0.0,70.0,0.0,12887,6.711979166666667
7340,10.0,,,,,,,67.0,,,,,,3,note_on,,0.0,67.0,0.0,12890,6.713541666666667
7341,9.0,,,,,,,44.0,,,,,,51,note_on,,0.0,44.0,0.0,79155,41.2265625
7342,3.0,,,,,,,77.0,,,,,,0,note_on,,127.0,77.0,127.0,51191,26.661979166666665
7343,8.0,,,,,,,87.0,,,,,,0,note_on,,45.0,87.0,45.0,11630,6.057291666666667
7344,9.0,,,,,,,42.0,,,,,,0,note_on,,85.0,42.0,85.0,79155,41.2265625
7345,9.0,,,,,,,70.0,,,,,,0,note_on,,40.0,70.0,40.0,79155,41.2265625
7346,12.0,,,,,,,67.0,,,,,,0,note_on,,127.0,67.0,127.0,19927,10.378645833333334
7347,12.0,,,,,,,70.0,,,,,,0,note_on,,118.0,70.0,118.0,19927,10.378645833333334
7348,12.0,,,,,,,63.0,,,,,,0,note_on,,127.0,63.0,127.0,19927,10.378645833333334
7349,,,,,,,,,,,,,by ,0,lyrics,,,,,4665304432,2429846.058333333
7350,7.0,,,,,,,82.0,,,,,,41,note_on,,0.0,82.0,0.0,1977,1.0296875
7351,8.0,,,,,,,70.0,,,,,,0,note_on,,0.0,70.0,0.0,11630,6.057291666666667
7352,8.0,,,,,,,87.0,,,,,,63,note_on,,0.0,87.0,0.0,11693,6.090104166666666
7353,9.0,,,,,,,70.0,,,,,,120,note_on,,0.0,70.0,0.0,79275,41.2890625
7354,9.0,,,,,,,42.0,,,,,,16,note_on,,0.0,42.0,0.0,79291,41.29739583333333
7355,8.0,,,,,,,87.0,,,,,,0,note_on,,45.0,87.0,45.0,11693,6.090104166666666
7356,9.0,,,,,,,44.0,,,,,,0,note_on,,75.0,44.0,75.0,79291,41.29739583333333
7357,9.0,,,,,,,36.0,,,,,,0,note_on,,126.0,36.0,126.0,79291,41.29739583333333
7358,9.0,,,,,,,35.0,,,,,,0,note_on,,60.0,35.0,60.0,79291,41.29739583333333
7359,8.0,,,,,,,87.0,,,,,,123,note_on,,0.0,87.0,0.0,11816,6.154166666666667
7360,12.0,,,,,,,70.0,,,,,,63,note_on,,0.0,70.0,0.0,19990,10.411458333333334
7361,12.0,,,,,,,63.0,,,,,,0,note_on,,0.0,63.0,0.0,19990,10.411458333333334
7362,12.0,,,,,,,67.0,,,,,,3,note_on,,0.0,67.0,0.0,19993,10.413020833333333
7363,9.0,,,,,,,35.0,,,,,,35,note_on,,0.0,35.0,0.0,79326,41.315625
7364,9.0,,,,,,,36.0,,,,,,0,note_on,,0.0,36.0,0.0,79326,41.315625
7365,9.0,,,,,,,44.0,,,,,,16,note_on,,0.0,44.0,0.0,79342,41.32395833333333
7366,7.0,,,,,,,75.0,,,,,,0,note_on,,127.0,75.0,127.0,1977,1.0296875
7367,8.0,,,,,,,63.0,,,,,,0,note_on,,127.0,63.0,127.0,11816,6.154166666666667
7368,9.0,,,,,,,42.0,,,,,,0,note_on,,85.0,42.0,85.0,79342,41.32395833333333
7369,9.0,,,,,,,70.0,,,,,,0,note_on,,40.0,70.0,40.0,79342,41.32395833333333
7370,9.0,,,,,,,39.0,,,,,,0,note_on,,125.0,39.0,125.0,79342,41.32395833333333
7371,9.0,,,,,,,28.0,,,,,,0,note_on,,127.0,28.0,127.0,79342,41.32395833333333
7372,9.0,,,,,,,28.0,,,,,,117,note_on,,0.0,28.0,0.0,79459,41.38489583333333
7373,9.0,,,,,,,39.0,,,,,,34,note_on,,0.0,39.0,0.0,79493,41.40260416666666
7374,9.0,,,,,,,42.0,,,,,,73,note_on,,0.0,42.0,0.0,79566,41.440625
7375,9.0,,,,,,,70.0,,,,,,0,note_on,,0.0,70.0,0.0,79566,41.440625
7376,3.0,,,,,,,82.0,,,,,,16,note_on,,127.0,82.0,127.0,51207,26.670312499999998
7377,8.0,,,,,,,87.0,,,,,,0,note_on,,45.0,87.0,45.0,11816,6.154166666666667
7378,9.0,,,,,,,44.0,,,,,,0,note_on,,75.0,44.0,75.0,79566,41.440625
7379,,,,,,,,,,,,,ohhh ,0,lyrics,,,,,4665260752,2429823.308333333
7380,,,,,,,,,,,,,,0,lyrics,,,,,4665305008,2429846.3583333334
7381,3.0,,,,,,,77.0,,,,,,41,note_on,,0.0,77.0,0.0,51248,26.691666666666666
7382,8.0,,,,,,,87.0,,,,,,85,note_on,,0.0,87.0,0.0,11901,6.1984375
7383,9.0,,,,,,,44.0,,,,,,114,note_on,,0.0,44.0,0.0,79680,41.5
7384,9.0,,,,,,,42.0,,,,,,0,note_on,,85.0,42.0,85.0,79680,41.5
7385,9.0,,,,,,,70.0,,,,,,0,note_on,,40.0,70.0,40.0,79680,41.5
7386,9.0,,,,,,,36.0,,,,,,0,note_on,,126.0,36.0,126.0,79680,41.5
7387,9.0,,,,,,,35.0,,,,,,0,note_on,,60.0,35.0,60.0,79680,41.5
7388,8.0,,,,,,,63.0,,,,,,62,note_on,,0.0,63.0,0.0,11963,6.230729166666666
7389,7.0,,,,,,,75.0,,,,,,0,note_on,,0.0,75.0,0.0,1977,1.0296875
7390,9.0,,,,,,,35.0,,,,,,104,note_on,,0.0,35.0,0.0,79784,41.55416666666667
7391,9.0,,,,,,,36.0,,,,,,0,note_on,,0.0,36.0,0.0,79784,41.55416666666667
7392,9.0,,,,,,,70.0,,,,,,58,note_on,,0.0,70.0,0.0,79842,41.584375
7393,9.0,,,,,,,42.0,,,,,,16,note_on,,0.0,42.0,0.0,79858,41.592708333333334
7394,9.0,,,,,,,44.0,,,,,,0,note_on,,75.0,44.0,75.0,79858,41.592708333333334
7395,9.0,,,,,,,44.0,,,,,,240,note_on,,0.0,44.0,0.0,80098,41.717708333333334
7396,7.0,,,,,,,77.0,,,,,,0,note_on,,127.0,77.0,127.0,1977,1.0296875
7397,8.0,,,,,,,87.0,,,,,,0,note_on,,45.0,87.0,45.0,11963,6.230729166666666
7398,8.0,,,,,,,65.0,,,,,,0,note_on,,127.0,65.0,127.0,11963,6.230729166666666
7399,9.0,,,,,,,42.0,,,,,,0,note_on,,85.0,42.0,85.0,80098,41.717708333333334
7400,9.0,,,,,,,70.0,,,,,,0,note_on,,40.0,70.0,40.0,80098,41.717708333333334
7401,8.0,,,,,,,87.0,,,,,,121,note_on,,0.0,87.0,0.0,12084,6.29375
7402,9.0,,,,,,,70.0,,,,,,103,note_on,,0.0,70.0,0.0,80201,41.77135416666667
7403,9.0,,,,,,,44.0,,,,,,16,note_on,,75.0,44.0,75.0,80217,41.7796875
7404,9.0,,,,,,,44.0,,,,,,240,note_on,,0.0,44.0,0.0,80457,41.9046875
7405,8.0,,,,,,,87.0,,,,,,0,note_on,,45.0,87.0,45.0,12084,6.29375
7406,9.0,,,,,,,42.0,,,,,,0,note_on,,85.0,42.0,85.0,80457,41.9046875
7407,9.0,,,,,,,70.0,,,,,,0,note_on,,40.0,70.0,40.0,80457,41.9046875
7408,9.0,,,,,,,36.0,,,,,,0,note_on,,126.0,36.0,126.0,80457,41.9046875
7409,9.0,,,,,,,35.0,,,,,,0,note_on,,60.0,35.0,60.0,80457,41.9046875
7410,3.0,,,,,,,82.0,,,,,,6,note_on,,0.0,82.0,0.0,51254,26.694791666666667
7411,7.0,,,,,,,77.0,,,,,,50,note_on,,0.0,77.0,0.0,2027,1.0557291666666666
7412,8.0,,,,,,,65.0,,,,,,0,note_on,,0.0,65.0,0.0,12084,6.29375
7413,8.0,,,,,,,87.0,,,,,,71,note_on,,0.0,87.0,0.0,12155,6.330729166666667
7414,9.0,,,,,,,35.0,,,,,,27,note_on,,0.0,35.0,0.0,80484,41.91875
7415,9.0,,,,,,,36.0,,,,,,0,note_on,,0.0,36.0,0.0,80484,41.91875
7416,9.0,,,,,,,70.0,,,,,,70,note_on,,0.0,70.0,0.0,80554,41.95520833333333
7417,9.0,,,,,,,42.0,,,,,,16,note_on,,0.0,42.0,0.0,80570,41.963541666666664
7418,9.0,,,,,,,44.0,,,,,,0,note_on,,75.0,44.0,75.0,80570,41.963541666666664
7419,9.0,,,,,,,44.0,,,,,,240,note_on,,0.0,44.0,0.0,80810,42.088541666666664
7420,3.0,,,,,,,75.0,,,,,,0,note_on,,127.0,75.0,127.0,51254,26.694791666666667
7421,7.0,,,,,,,75.0,,,,,,0,note_on,,127.0,75.0,127.0,2027,1.0557291666666666
7422,8.0,,,,,,,87.0,,,,,,0,note_on,,45.0,87.0,45.0,12155,6.330729166666667
7423,8.0,,,,,,,63.0,,,,,,0,note_on,,127.0,63.0,127.0,12155,6.330729166666667
7424,9.0,,,,,,,42.0,,,,,,0,note_on,,85.0,42.0,85.0,80810,42.088541666666664
7425,9.0,,,,,,,70.0,,,,,,0,note_on,,40.0,70.0,40.0,80810,42.088541666666664
7426,9.0,,,,,,,39.0,,,,,,0,note_on,,127.0,39.0,127.0,80810,42.088541666666664
7427,9.0,,,,,,,28.0,,,,,,0,note_on,,127.0,28.0,127.0,80810,42.088541666666664
7428,,,,,,,,,,,,,Like ,0,lyrics,,,,,4665305824,2429846.783333333
7429,9.0,,,,,,,39.0,,,,,,123,note_on,,0.0,39.0,0.0,80933,42.15260416666666
7430,8.0,,,,,,,87.0,,,,,,0,note_on,,0.0,87.0,0.0,12155,6.330729166666667
7431,9.0,,,,,,,28.0,,,,,,2,note_on,,0.0,28.0,0.0,80935,42.153645833333336
7432,9.0,,,,,,,70.0,,,,,,99,note_on,,0.0,70.0,0.0,81034,42.20520833333333
7433,9.0,,,,,,,42.0,,,,,,0,note_on,,0.0,42.0,0.0,81034,42.20520833333333
7434,9.0,,,,,,,42.0,,,,,,16,note_on,,0.0,42.0,0.0,81050,42.213541666666664
7435,9.0,,,,,,,44.0,,,,,,0,note_on,,75.0,44.0,75.0,81050,42.213541666666664
7436,9.0,,,,,,,44.0,,,,,,240,note_on,,0.0,44.0,0.0,81290,42.338541666666664
7437,8.0,,,,,,,87.0,,,,,,0,note_on,,45.0,87.0,45.0,12155,6.330729166666667
7438,9.0,,,,,,,42.0,,,,,,0,note_on,,85.0,42.0,85.0,81290,42.338541666666664
7439,9.0,,,,,,,61.0,,,,,,0,note_on,,100.0,61.0,100.0,81290,42.338541666666664
7440,9.0,,,,,,,70.0,,,,,,0,note_on,,40.0,70.0,40.0,81290,42.338541666666664
7441,7.0,,,,,,,75.0,,,,,,84,note_on,,0.0,75.0,0.0,2111,1.0994791666666666
7442,8.0,,,,,,,63.0,,,,,,0,note_on,,0.0,63.0,0.0,12155,6.330729166666667
7443,8.0,,,,,,,87.0,,,,,,28,note_on,,0.0,87.0,0.0,12183,6.3453125
7444,9.0,,,,,,,61.0,,,,,,2,note_on,,0.0,61.0,0.0,81292,42.33958333333333
7445,9.0,,,,,,,61.0,,,,,,6,note_on,,100.0,61.0,100.0,81298,42.342708333333334
7446,5.0,,,,,,,58.0,,,,,,17,note_on,,0.0,58.0,0.0,1220,0.6354166666666666
7447,3.0,,,,,,,75.0,,,,,,6,note_on,,0.0,75.0,0.0,51260,26.697916666666668
7448,5.0,,,,,,,55.0,,,,,,23,note_on,,0.0,55.0,0.0,1243,0.6473958333333333
7449,5.0,,,,,,,63.0,,,,,,29,note_on,,0.0,63.0,0.0,1272,0.6625
7450,9.0,,,,,,,70.0,,,,,,29,note_on,,0.0,70.0,0.0,81327,42.3578125
7451,9.0,,,,,,,61.0,,,,,,10,note_on,,0.0,61.0,0.0,81337,42.36302083333333
7452,9.0,,,,,,,42.0,,,,,,6,note_on,,0.0,42.0,0.0,81343,42.366145833333334
7453,9.0,,,,,,,44.0,,,,,,0,note_on,,75.0,44.0,75.0,81343,42.366145833333334
7454,9.0,,,,,,,61.0,,,,,,0,note_on,,100.0,61.0,100.0,81343,42.366145833333334
7455,9.0,,,,,,,61.0,,,,,,114,note_on,,0.0,61.0,0.0,81457,42.42552083333333
7456,9.0,,,,,,,61.0,,,,,,6,note_on,,100.0,61.0,100.0,81463,42.428645833333334
7457,5.0,,,,,,,63.0,,,,,,37,note_on,,98.0,63.0,98.0,1309,0.6817708333333333
7458,8.0,,,,,,,39.0,,,,,,6,note_on,,0.0,39.0,0.0,12189,6.3484375
7459,5.0,,,,,,,60.0,,,,,,0,note_on,,108.0,60.0,108.0,1309,0.6817708333333333
7460,5.0,,,,,,,55.0,,,,,,12,note_on,,87.0,55.0,87.0,1321,0.6880208333333333
7461,1.0,,,,,,,27.0,,,,,,12,note_on,,0.0,27.0,0.0,4371,2.2765625
7462,9.0,,,,,,,61.0,,,,,,47,note_on,,0.0,61.0,0.0,81510,42.453125
7463,9.0,,,,,,,44.0,,,,,,6,note_on,,0.0,44.0,0.0,81516,42.45625
7464,1.0,,,,,,,36.0,,,,,,0,note_on,,127.0,36.0,127.0,4371,2.2765625
7465,3.0,,,,,,,79.0,,,,,,0,note_on,,127.0,79.0,127.0,51260,26.697916666666668
7466,7.0,,,,,,,82.0,,,,,,0,note_on,,127.0,82.0,127.0,2111,1.0994791666666666
7467,8.0,,,,,,,48.0,,,,,,0,note_on,,126.0,48.0,126.0,12189,6.3484375
7468,8.0,,,,,,,70.0,,,,,,0,note_on,,127.0,70.0,127.0,12189,6.3484375
7469,9.0,,,,,,,61.0,,,,,,0,note_on,,100.0,61.0,100.0,81516,42.45625
7470,9.0,,,,,,,42.0,,,,,,0,note_on,,85.0,42.0,85.0,81516,42.45625
7471,9.0,,,,,,,70.0,,,,,,0,note_on,,40.0,70.0,40.0,81516,42.45625
7472,9.0,,,,,,,36.0,,,,,,0,note_on,,126.0,36.0,126.0,81516,42.45625
7473,9.0,,,,,,,35.0,,,,,,0,note_on,,60.0,35.0,60.0,81516,42.45625
7474,11.0,,,,,,,63.0,,,,,,0,note_on,,127.0,63.0,127.0,23110,12.036458333333334
7475,11.0,,,,,,,60.0,,,,,,0,note_on,,127.0,60.0,127.0,23110,12.036458333333334
7476,11.0,,,,,,,67.0,,,,,,0,note_on,,127.0,67.0,127.0,23110,12.036458333333334
7477,,,,,,,,,,,,,ba ,0,lyrics,,,,,4665308024,2429847.9291666667
7478,9.0,,,,,,,61.0,,,,,,114,note_on,,0.0,61.0,0.0,81630,42.515625
7479,9.0,,,,,,,35.0,,,,,,58,note_on,,0.0,35.0,0.0,81688,42.545833333333334
7480,9.0,,,,,,,36.0,,,,,,0,note_on,,0.0,36.0,0.0,81688,42.545833333333334
7481,9.0,,,,,,,70.0,,,,,,52,note_on,,0.0,70.0,0.0,81740,42.572916666666664
7482,9.0,,,,,,,42.0,,,,,,0,note_on,,0.0,42.0,0.0,81740,42.572916666666664
7483,8.0,,,,,,,87.0,,,,,,16,note_on,,45.0,87.0,45.0,12205,6.356770833333333
7484,9.0,,,,,,,44.0,,,,,,0,note_on,,75.0,44.0,75.0,81740,42.572916666666664
7485,8.0,,,,,,,87.0,,,,,,106,note_on,,0.0,87.0,0.0,12311,6.411979166666667
7486,11.0,,,,,,,60.0,,,,,,58,note_on,,0.0,60.0,0.0,23168,12.066666666666666
7487,11.0,,,,,,,63.0,,,,,,32,note_on,,0.0,63.0,0.0,23200,12.083333333333334
7488,11.0,,,,,,,67.0,,,,,,6,note_on,,0.0,67.0,0.0,23206,12.086458333333333
7489,9.0,,,,,,,44.0,,,,,,38,note_on,,0.0,44.0,0.0,81778,42.592708333333334
7490,9.0,,,,,,,42.0,,,,,,0,note_on,,85.0,42.0,85.0,81778,42.592708333333334
7491,9.0,,,,,,,70.0,,,,,,0,note_on,,40.0,70.0,40.0,81778,42.592708333333334
7492,10.0,,,,,,,63.0,,,,,,0,note_on,,127.0,63.0,127.0,12890,6.713541666666667
7493,10.0,,,,,,,60.0,,,,,,0,note_on,,127.0,60.0,127.0,12890,6.713541666666667
7494,10.0,,,,,,,67.0,,,,,,0,note_on,,127.0,67.0,127.0,12890,6.713541666666667
7495,8.0,,,,,,,70.0,,,,,,51,note_on,,0.0,70.0,0.0,12362,6.438541666666667
7496,7.0,,,,,,,82.0,,,,,,0,note_on,,0.0,82.0,0.0,2111,1.0994791666666666
7497,3.0,,,,,,,79.0,,,,,,104,note_on,,0.0,79.0,0.0,51364,26.75208333333333
7498,9.0,,,,,,,70.0,,,,,,69,note_on,,0.0,70.0,0.0,81847,42.62864583333333
7499,9.0,,,,,,,42.0,,,,,,16,note_on,,0.0,42.0,0.0,81863,42.63697916666666
7500,9.0,,,,,,,44.0,,,,,,0,note_on,,75.0,44.0,75.0,81863,42.63697916666666
7501,9.0,,,,,,,36.0,,,,,,0,note_on,,126.0,36.0,126.0,81863,42.63697916666666
7502,9.0,,,,,,,35.0,,,,,,0,note_on,,60.0,35.0,60.0,81863,42.63697916666666
7503,10.0,,,,,,,60.0,,,,,,164,note_on,,0.0,60.0,0.0,13054,6.798958333333333
7504,10.0,,,,,,,63.0,,,,,,32,note_on,,0.0,63.0,0.0,13086,6.815625
7505,10.0,,,,,,,67.0,,,,,,6,note_on,,0.0,67.0,0.0,13092,6.81875
7506,9.0,,,,,,,36.0,,,,,,22,note_on,,0.0,36.0,0.0,81885,42.6484375
7507,9.0,,,,,,,35.0,,,,,,0,note_on,,0.0,35.0,0.0,81885,42.6484375
7508,9.0,,,,,,,44.0,,,,,,16,note_on,,0.0,44.0,0.0,81901,42.65677083333333
7509,3.0,,,,,,,77.0,,,,,,0,note_on,,127.0,77.0,127.0,51364,26.75208333333333
7510,7.0,,,,,,,75.0,,,,,,0,note_on,,127.0,75.0,127.0,2111,1.0994791666666666
7511,7.0,,,,,,,78.0,,,,,,0,note_on,,72.0,78.0,72.0,2111,1.0994791666666666
7512,8.0,,,,,,,87.0,,,,,,0,note_on,,45.0,87.0,45.0,12362,6.438541666666667
7513,8.0,,,,,,,63.0,,,,,,0,note_on,,127.0,63.0,127.0,12362,6.438541666666667
7514,8.0,,,,,,,66.0,,,,,,0,note_on,,72.0,66.0,72.0,12362,6.438541666666667
7515,9.0,,,,,,,42.0,,,,,,0,note_on,,85.0,42.0,85.0,81901,42.65677083333333
7516,9.0,,,,,,,70.0,,,,,,0,note_on,,40.0,70.0,40.0,81901,42.65677083333333
7517,9.0,,,,,,,39.0,,,,,,0,note_on,,125.0,39.0,125.0,81901,42.65677083333333
7518,9.0,,,,,,,28.0,,,,,,0,note_on,,127.0,28.0,127.0,81901,42.65677083333333
7519,12.0,,,,,,,63.0,,,,,,0,note_on,,127.0,63.0,127.0,19993,10.413020833333333
7520,12.0,,,,,,,60.0,,,,,,0,note_on,,127.0,60.0,127.0,19993,10.413020833333333
7521,12.0,,,,,,,67.0,,,,,,0,note_on,,127.0,67.0,127.0,19993,10.413020833333333
7522,,,,,,,,,,,,,"by, ",0,lyrics,,,,,4665308944,2429848.408333333
7523,8.0,,,,,,,66.0,,,,,,48,note_on,,0.0,66.0,0.0,12410,6.463541666666667
7524,7.0,,,,,,,78.0,,,,,,0,note_on,,0.0,78.0,0.0,2111,1.0994791666666666
7525,9.0,,,,,,,28.0,,,,,,69,note_on,,0.0,28.0,0.0,81970,42.692708333333336
7526,8.0,,,,,,,87.0,,,,,,10,note_on,,0.0,87.0,0.0,12420,6.46875
7527,9.0,,,,,,,39.0,,,,,,24,note_on,,0.0,39.0,0.0,81994,42.70520833333333
7528,9.0,,,,,,,42.0,,,,,,73,note_on,,0.0,42.0,0.0,82067,42.743229166666666
7529,9.0,,,,,,,70.0,,,,,,0,note_on,,0.0,70.0,0.0,82067,42.743229166666666
7530,9.0,,,,,,,44.0,,,,,,16,note_on,,75.0,44.0,75.0,82083,42.7515625
7531,12.0,,,,,,,60.0,,,,,,164,note_on,,0.0,60.0,0.0,20157,10.4984375
7532,12.0,,,,,,,63.0,,,,,,32,note_on,,0.0,63.0,0.0,20189,10.515104166666667
7533,12.0,,,,,,,67.0,,,,,,6,note_on,,0.0,67.0,0.0,20195,10.518229166666666
7534,9.0,,,,,,,44.0,,,,,,38,note_on,,0.0,44.0,0.0,82121,42.77135416666667
7535,8.0,,,,,,,87.0,,,,,,0,note_on,,45.0,87.0,45.0,12420,6.46875
7536,9.0,,,,,,,42.0,,,,,,0,note_on,,85.0,42.0,85.0,82121,42.77135416666667
7537,9.0,,,,,,,70.0,,,,,,0,note_on,,40.0,70.0,40.0,82121,42.77135416666667
7538,9.0,,,,,,,36.0,,,,,,0,note_on,,126.0,36.0,126.0,82121,42.77135416666667
7539,9.0,,,,,,,35.0,,,,,,0,note_on,,60.0,35.0,60.0,82121,42.77135416666667
7540,7.0,,,,,,,75.0,,,,,,40,note_on,,0.0,75.0,0.0,2151,1.1203125
7541,8.0,,,,,,,63.0,,,,,,0,note_on,,0.0,63.0,0.0,12420,6.46875
7542,8.0,,,,,,,87.0,,,,,,90,note_on,,0.0,87.0,0.0,12510,6.515625
7543,3.0,,,,,,,77.0,,,,,,2,note_on,,0.0,77.0,0.0,51366,26.753125
7544,9.0,,,,,,,35.0,,,,,,34,note_on,,0.0,35.0,0.0,82155,42.7890625
7545,9.0,,,,,,,36.0,,,,,,0,note_on,,0.0,36.0,0.0,82155,42.7890625
7546,9.0,,,,,,,70.0,,,,,,58,note_on,,0.0,70.0,0.0,82213,42.819270833333334
7547,9.0,,,,,,,42.0,,,,,,16,note_on,,0.0,42.0,0.0,82229,42.82760416666667
7548,9.0,,,,,,,44.0,,,,,,0,note_on,,75.0,44.0,75.0,82229,42.82760416666667
7549,9.0,,,,,,,44.0,,,,,,240,note_on,,0.0,44.0,0.0,82469,42.95260416666667
7550,3.0,,,,,,,79.0,,,,,,0,note_on,,127.0,79.0,127.0,51366,26.753125
7551,7.0,,,,,,,77.0,,,,,,0,note_on,,127.0,77.0,127.0,2151,1.1203125
7552,8.0,,,,,,,65.0,,,,,,0,note_on,,127.0,65.0,127.0,12510,6.515625
7553,9.0,,,,,,,42.0,,,,,,0,note_on,,85.0,42.0,85.0,82469,42.95260416666667
7554,9.0,,,,,,,70.0,,,,,,0,note_on,,40.0,70.0,40.0,82469,42.95260416666667
7555,,,,,,,,,,,,,ba ,0,lyrics,,,,,4665309704,2429848.8041666667
7556,9.0,,,,,,,70.0,,,,,,224,note_on,,0.0,70.0,0.0,82693,43.069270833333334
7557,9.0,,,,,,,42.0,,,,,,0,note_on,,0.0,42.0,0.0,82693,43.069270833333334
7558,8.0,,,,,,,87.0,,,,,,16,note_on,,45.0,87.0,45.0,12526,6.523958333333333
7559,9.0,,,,,,,44.0,,,,,,0,note_on,,75.0,44.0,75.0,82693,43.069270833333334
7560,8.0,,,,,,,87.0,,,,,,133,note_on,,0.0,87.0,0.0,12659,6.593229166666666
7561,9.0,,,,,,,44.0,,,,,,107,note_on,,0.0,44.0,0.0,82800,43.125
7562,9.0,,,,,,,42.0,,,,,,0,note_on,,85.0,42.0,85.0,82800,43.125
7563,9.0,,,,,,,70.0,,,,,,0,note_on,,40.0,70.0,40.0,82800,43.125
7564,9.0,,,,,,,36.0,,,,,,0,note_on,,126.0,36.0,126.0,82800,43.125
7565,9.0,,,,,,,35.0,,,,,,0,note_on,,60.0,35.0,60.0,82800,43.125
7566,8.0,,,,,,,65.0,,,,,,103,note_on,,0.0,65.0,0.0,12762,6.646875
7567,7.0,,,,,,,77.0,,,,,,0,note_on,,0.0,77.0,0.0,2151,1.1203125
7568,9.0,,,,,,,35.0,,,,,,51,note_on,,0.0,35.0,0.0,82851,43.1515625
7569,9.0,,,,,,,36.0,,,,,,0,note_on,,0.0,36.0,0.0,82851,43.1515625
7570,3.0,,,,,,,79.0,,,,,,52,note_on,,0.0,79.0,0.0,51418,26.780208333333334
7571,9.0,,,,,,,70.0,,,,,,18,note_on,,0.0,70.0,0.0,82869,43.1609375
7572,9.0,,,,,,,42.0,,,,,,16,note_on,,0.0,42.0,0.0,82885,43.169270833333336
7573,9.0,,,,,,,44.0,,,,,,0,note_on,,75.0,44.0,75.0,82885,43.169270833333336
7574,9.0,,,,,,,44.0,,,,,,240,note_on,,0.0,44.0,0.0,83125,43.294270833333336
7575,3.0,,,,,,,77.0,,,,,,0,note_on,,127.0,77.0,127.0,51418,26.780208333333334
7576,7.0,,,,,,,70.0,,,,,,0,note_on,,127.0,70.0,127.0,2151,1.1203125
7577,8.0,,,,,,,87.0,,,,,,0,note_on,,45.0,87.0,45.0,12762,6.646875
7578,8.0,,,,,,,58.0,,,,,,0,note_on,,127.0,58.0,127.0,12762,6.646875
7579,9.0,,,,,,,42.0,,,,,,0,note_on,,85.0,42.0,85.0,83125,43.294270833333336
7580,9.0,,,,,,,70.0,,,,,,0,note_on,,40.0,70.0,40.0,83125,43.294270833333336
7581,9.0,,,,,,,39.0,,,,,,0,note_on,,127.0,39.0,127.0,83125,43.294270833333336
7582,9.0,,,,,,,28.0,,,,,,0,note_on,,127.0,28.0,127.0,83125,43.294270833333336
7583,11.0,,,,,,,68.0,,,,,,0,note_on,,127.0,68.0,127.0,23206,12.086458333333333
7584,11.0,,,,,,,60.0,,,,,,0,note_on,,127.0,60.0,127.0,23206,12.086458333333333
7585,11.0,,,,,,,63.0,,,,,,0,note_on,,127.0,63.0,127.0,23206,12.086458333333333
7586,,,,,,,,,,,,,"by, ",0,lyrics,,,,,4665310344,2429849.1375
7587,9.0,,,,,,,39.0,,,,,,123,note_on,,0.0,39.0,0.0,83248,43.358333333333334
7588,9.0,,,,,,,28.0,,,,,,2,note_on,,0.0,28.0,0.0,83250,43.359375
7589,8.0,,,,,,,87.0,,,,,,4,note_on,,0.0,87.0,0.0,12766,6.648958333333333
7590,9.0,,,,,,,42.0,,,,,,95,note_on,,0.0,42.0,0.0,83345,43.408854166666664
7591,9.0,,,,,,,70.0,,,,,,0,note_on,,0.0,70.0,0.0,83345,43.408854166666664
7592,9.0,,,,,,,44.0,,,,,,16,note_on,,75.0,44.0,75.0,83361,43.4171875
7593,11.0,,,,,,,68.0,,,,,,145,note_on,,0.0,68.0,0.0,23351,12.161979166666667
7594,11.0,,,,,,,60.0,,,,,,4,note_on,,0.0,60.0,0.0,23355,12.1640625
7595,11.0,,,,,,,63.0,,,,,,19,note_on,,0.0,63.0,0.0,23374,12.173958333333333
7596,9.0,,,,,,,44.0,,,,,,72,note_on,,0.0,44.0,0.0,83433,43.4546875
7597,8.0,,,,,,,87.0,,,,,,0,note_on,,45.0,87.0,45.0,12766,6.648958333333333
7598,9.0,,,,,,,42.0,,,,,,0,note_on,,85.0,42.0,85.0,83433,43.4546875
7599,9.0,,,,,,,70.0,,,,,,0,note_on,,40.0,70.0,40.0,83433,43.4546875
7600,10.0,,,,,,,68.0,,,,,,0,note_on,,127.0,68.0,127.0,13092,6.81875
7601,10.0,,,,,,,60.0,,,,,,0,note_on,,127.0,60.0,127.0,13092,6.81875
7602,10.0,,,,,,,63.0,,,,,,0,note_on,,127.0,63.0,127.0,13092,6.81875
7603,11.0,,,,,,,63.0,,,,,,0,note_on,,127.0,63.0,127.0,23374,12.173958333333333
7604,11.0,,,,,,,60.0,,,,,,0,note_on,,127.0,60.0,127.0,23374,12.173958333333333
7605,11.0,,,,,,,67.0,,,,,,0,note_on,,127.0,67.0,127.0,23374,12.173958333333333
7606,8.0,,,,,,,87.0,,,,,,121,note_on,,0.0,87.0,0.0,12887,6.711979166666667
7607,7.0,,,,,,,70.0,,,,,,5,note_on,,0.0,70.0,0.0,2156,1.1229166666666666
7608,8.0,,,,,,,58.0,,,,,,0,note_on,,0.0,58.0,0.0,12887,6.711979166666667
7609,3.0,,,,,,,77.0,,,,,,9,note_on,,0.0,77.0,0.0,51427,26.784895833333334
7610,9.0,,,,,,,70.0,,,,,,89,note_on,,0.0,70.0,0.0,83522,43.501041666666666
7611,9.0,,,,,,,42.0,,,,,,16,note_on,,0.0,42.0,0.0,83538,43.509375
7612,9.0,,,,,,,44.0,,,,,,0,note_on,,75.0,44.0,75.0,83538,43.509375
7613,11.0,,,,,,,60.0,,,,,,131,note_on,,0.0,60.0,0.0,23505,12.2421875
7614,11.0,,,,,,,67.0,,,,,,11,note_on,,0.0,67.0,0.0,23516,12.247916666666667
7615,10.0,,,,,,,68.0,,,,,,3,note_on,,0.0,68.0,0.0,13095,6.8203125
7616,10.0,,,,,,,60.0,,,,,,4,note_on,,0.0,60.0,0.0,13099,6.822395833333333
7617,10.0,,,,,,,63.0,,,,,,19,note_on,,0.0,63.0,0.0,13118,6.832291666666666
7618,11.0,,,,,,,63.0,,,,,,18,note_on,,0.0,63.0,0.0,23534,12.257291666666667
7619,9.0,,,,,,,44.0,,,,,,54,note_on,,0.0,44.0,0.0,83592,43.5375
7620,3.0,,,,,,,79.0,,,,,,0,note_on,,127.0,79.0,127.0,51427,26.784895833333334
7621,7.0,,,,,,,82.0,,,,,,0,note_on,,127.0,82.0,127.0,2156,1.1229166666666666
7622,8.0,,,,,,,70.0,,,,,,0,note_on,,127.0,70.0,127.0,12887,6.711979166666667
7623,9.0,,,,,,,42.0,,,,,,0,note_on,,85.0,42.0,85.0,83592,43.5375
7624,9.0,,,,,,,70.0,,,,,,0,note_on,,40.0,70.0,40.0,83592,43.5375
7625,9.0,,,,,,,36.0,,,,,,0,note_on,,126.0,36.0,126.0,83592,43.5375
7626,9.0,,,,,,,35.0,,,,,,0,note_on,,60.0,35.0,60.0,83592,43.5375
7627,10.0,,,,,,,63.0,,,,,,0,note_on,,127.0,63.0,127.0,13118,6.832291666666666
7628,10.0,,,,,,,60.0,,,,,,0,note_on,,127.0,60.0,127.0,13118,6.832291666666666
7629,10.0,,,,,,,67.0,,,,,,0,note_on,,127.0,67.0,127.0,13118,6.832291666666666
7630,12.0,,,,,,,68.0,,,,,,0,note_on,,127.0,68.0,127.0,20195,10.518229166666666
7631,12.0,,,,,,,60.0,,,,,,0,note_on,,127.0,60.0,127.0,20195,10.518229166666666
7632,12.0,,,,,,,63.0,,,,,,0,note_on,,127.0,63.0,127.0,20195,10.518229166666666
7633,,,,,,,,,,,,,ba ,0,lyrics,,,,,4665313352,2429850.7041666666
7634,9.0,,,,,,,35.0,,,,,,172,note_on,,0.0,35.0,0.0,83764,43.62708333333333
7635,9.0,,,,,,,36.0,,,,,,0,note_on,,0.0,36.0,0.0,83764,43.62708333333333
7636,9.0,,,,,,,70.0,,,,,,52,note_on,,0.0,70.0,0.0,83816,43.65416666666667
7637,9.0,,,,,,,42.0,,,,,,0,note_on,,0.0,42.0,0.0,83816,43.65416666666667
7638,8.0,,,,,,,87.0,,,,,,16,note_on,,45.0,87.0,45.0,12903,6.7203124999999995
7639,9.0,,,,,,,44.0,,,,,,0,note_on,,75.0,44.0,75.0,83816,43.65416666666667
7640,8.0,,,,,,,87.0,,,,,,126,note_on,,0.0,87.0,0.0,13029,6.7859375
7641,10.0,,,,,,,60.0,,,,,,5,note_on,,0.0,60.0,0.0,13123,6.834895833333333
7642,10.0,,,,,,,67.0,,,,,,11,note_on,,0.0,67.0,0.0,13134,6.840625
7643,12.0,,,,,,,68.0,,,,,,3,note_on,,0.0,68.0,0.0,20198,10.519791666666666
7644,12.0,,,,,,,60.0,,,,,,4,note_on,,0.0,60.0,0.0,20202,10.521875
7645,12.0,,,,,,,63.0,,,,,,19,note_on,,0.0,63.0,0.0,20221,10.531770833333333
7646,10.0,,,,,,,63.0,,,,,,18,note_on,,0.0,63.0,0.0,13152,6.85
7647,9.0,,,,,,,44.0,,,,,,54,note_on,,0.0,44.0,0.0,83870,43.682291666666664
7648,9.0,,,,,,,42.0,,,,,,0,note_on,,85.0,42.0,85.0,83870,43.682291666666664
7649,9.0,,,,,,,70.0,,,,,,0,note_on,,40.0,70.0,40.0,83870,43.682291666666664
7650,12.0,,,,,,,63.0,,,,,,0,note_on,,127.0,63.0,127.0,20221,10.531770833333333
7651,12.0,,,,,,,60.0,,,,,,0,note_on,,127.0,60.0,127.0,20221,10.531770833333333
7652,12.0,,,,,,,67.0,,,,,,0,note_on,,127.0,67.0,127.0,20221,10.531770833333333
7653,7.0,,,,,,,82.0,,,,,,45,note_on,,0.0,82.0,0.0,2201,1.1463541666666666
7654,8.0,,,,,,,70.0,,,,,,0,note_on,,0.0,70.0,0.0,13029,6.7859375
7655,3.0,,,,,,,79.0,,,,,,127,note_on,,0.0,79.0,0.0,51554,26.851041666666667
7656,9.0,,,,,,,70.0,,,,,,52,note_on,,0.0,70.0,0.0,83922,43.709375
7657,9.0,,,,,,,42.0,,,,,,16,note_on,,0.0,42.0,0.0,83938,43.717708333333334
7658,8.0,,,,,,,87.0,,,,,,0,note_on,,45.0,87.0,45.0,13029,6.7859375
7659,9.0,,,,,,,44.0,,,,,,0,note_on,,75.0,44.0,75.0,83938,43.717708333333334
7660,9.0,,,,,,,36.0,,,,,,0,note_on,,126.0,36.0,126.0,83938,43.717708333333334
7661,9.0,,,,,,,35.0,,,,,,0,note_on,,60.0,35.0,60.0,83938,43.717708333333334
7662,8.0,,,,,,,87.0,,,,,,125,note_on,,0.0,87.0,0.0,13154,6.851041666666666
7663,12.0,,,,,,,60.0,,,,,,6,note_on,,0.0,60.0,0.0,20227,10.534895833333334
7664,12.0,,,,,,,67.0,,,,,,11,note_on,,0.0,67.0,0.0,20238,10.540625
7665,12.0,,,,,,,63.0,,,,,,44,note_on,,0.0,63.0,0.0,20282,10.563541666666666
7666,9.0,,,,,,,36.0,,,,,,38,note_on,,0.0,36.0,0.0,83976,43.7375
7667,9.0,,,,,,,35.0,,,,,,0,note_on,,0.0,35.0,0.0,83976,43.7375
7668,9.0,,,,,,,44.0,,,,,,16,note_on,,0.0,44.0,0.0,83992,43.74583333333333
7669,3.0,,,,,,,77.0,,,,,,0,note_on,,127.0,77.0,127.0,51554,26.851041666666667
7670,7.0,,,,,,,75.0,,,,,,0,note_on,,127.0,75.0,127.0,2201,1.1463541666666666
7671,8.0,,,,,,,63.0,,,,,,0,note_on,,127.0,63.0,127.0,13154,6.851041666666666
7672,9.0,,,,,,,42.0,,,,,,0,note_on,,85.0,42.0,85.0,83992,43.74583333333333
7673,9.0,,,,,,,70.0,,,,,,0,note_on,,40.0,70.0,40.0,83992,43.74583333333333
7674,9.0,,,,,,,39.0,,,,,,0,note_on,,125.0,39.0,125.0,83992,43.74583333333333
7675,9.0,,,,,,,28.0,,,,,,0,note_on,,127.0,28.0,127.0,83992,43.74583333333333
7676,,,,,,,,,,,,,by ,0,lyrics,,,,,4665297968,2429842.6916666664
7677,9.0,,,,,,,28.0,,,,,,117,note_on,,0.0,28.0,0.0,84109,43.80677083333333
7678,9.0,,,,,,,39.0,,,,,,34,note_on,,0.0,39.0,0.0,84143,43.82447916666666
7679,9.0,,,,,,,42.0,,,,,,73,note_on,,0.0,42.0,0.0,84216,43.8625
7680,9.0,,,,,,,70.0,,,,,,0,note_on,,0.0,70.0,0.0,84216,43.8625
7681,8.0,,,,,,,87.0,,,,,,16,note_on,,45.0,87.0,45.0,13170,6.859375
7682,9.0,,,,,,,44.0,,,,,,0,note_on,,75.0,44.0,75.0,84216,43.8625
7683,3.0,,,,,,,77.0,,,,,,43,note_on,,0.0,77.0,0.0,51597,26.873437499999998
7684,8.0,,,,,,,87.0,,,,,,88,note_on,,0.0,87.0,0.0,13258,6.905208333333333
7685,9.0,,,,,,,44.0,,,,,,109,note_on,,0.0,44.0,0.0,84325,43.919270833333336
7686,3.0,,,,,,,84.0,,,,,,0,note_on,,127.0,84.0,127.0,51597,26.873437499999998
7687,9.0,,,,,,,42.0,,,,,,0,note_on,,85.0,42.0,85.0,84325,43.919270833333336
7688,9.0,,,,,,,70.0,,,,,,0,note_on,,40.0,70.0,40.0,84325,43.919270833333336
7689,9.0,,,,,,,36.0,,,,,,0,note_on,,126.0,36.0,126.0,84325,43.919270833333336
7690,9.0,,,,,,,35.0,,,,,,0,note_on,,60.0,35.0,60.0,84325,43.919270833333336
7691,,,,,,,,,,,,,noo ,0,lyrics,,,,,4665234856,2429809.8208333333
7692,,,,,,,,,,,,,,0,lyrics,,,,,4665298352,2429842.8916666666
7693,8.0,,,,,,,63.0,,,,,,51,note_on,,0.0,63.0,0.0,13309,6.931770833333333
7694,7.0,,,,,,,75.0,,,,,,0,note_on,,0.0,75.0,0.0,2201,1.1463541666666666
7695,9.0,,,,,,,35.0,,,,,,115,note_on,,0.0,35.0,0.0,84440,43.979166666666664
7696,9.0,,,,,,,36.0,,,,,,0,note_on,,0.0,36.0,0.0,84440,43.979166666666664
7697,9.0,,,,,,,70.0,,,,,,58,note_on,,0.0,70.0,0.0,84498,44.009375
7698,9.0,,,,,,,42.0,,,,,,16,note_on,,0.0,42.0,0.0,84514,44.01770833333333
7699,8.0,,,,,,,87.0,,,,,,0,note_on,,45.0,87.0,45.0,13309,6.931770833333333
7700,9.0,,,,,,,44.0,,,,,,0,note_on,,75.0,44.0,75.0,84514,44.01770833333333
7701,8.0,,,,,,,87.0,,,,,,123,note_on,,0.0,87.0,0.0,13432,6.995833333333334
7702,9.0,,,,,,,44.0,,,,,,117,note_on,,0.0,44.0,0.0,84631,44.07864583333333
7703,7.0,,,,,,,77.0,,,,,,0,note_on,,127.0,77.0,127.0,2201,1.1463541666666666
7704,8.0,,,,,,,65.0,,,,,,0,note_on,,127.0,65.0,127.0,13432,6.995833333333334
7705,9.0,,,,,,,42.0,,,,,,0,note_on,,85.0,42.0,85.0,84631,44.07864583333333
7706,9.0,,,,,,,70.0,,,,,,0,note_on,,40.0,70.0,40.0,84631,44.07864583333333
7707,9.0,,,,,,,70.0,,,,,,224,note_on,,0.0,70.0,0.0,84855,44.1953125
7708,8.0,,,,,,,87.0,,,,,,16,note_on,,45.0,87.0,45.0,13448,7.004166666666666
7709,9.0,,,,,,,44.0,,,,,,0,note_on,,75.0,44.0,75.0,84855,44.1953125
7710,8.0,,,,,,,87.0,,,,,,135,note_on,,0.0,87.0,0.0,13583,7.074479166666666
7711,9.0,,,,,,,44.0,,,,,,105,note_on,,0.0,44.0,0.0,84960,44.25
7712,9.0,,,,,,,42.0,,,,,,0,note_on,,85.0,42.0,85.0,84960,44.25
7713,9.0,,,,,,,70.0,,,,,,0,note_on,,40.0,70.0,40.0,84960,44.25
7714,9.0,,,,,,,36.0,,,,,,0,note_on,,126.0,36.0,126.0,84960,44.25
7715,9.0,,,,,,,35.0,,,,,,0,note_on,,60.0,35.0,60.0,84960,44.25
7716,3.0,,,,,,,84.0,,,,,,23,note_on,,0.0,84.0,0.0,51620,26.885416666666668
7717,8.0,,,,,,,65.0,,,,,,33,note_on,,0.0,65.0,0.0,13616,7.091666666666667
7718,7.0,,,,,,,77.0,,,,,,0,note_on,,0.0,77.0,0.0,2201,1.1463541666666666
7719,9.0,,,,,,,35.0,,,,,,98,note_on,,0.0,35.0,0.0,85058,44.30104166666666
7720,9.0,,,,,,,36.0,,,,,,0,note_on,,0.0,36.0,0.0,85058,44.30104166666666
7721,9.0,,,,,,,70.0,,,,,,70,note_on,,0.0,70.0,0.0,85128,44.3375
7722,9.0,,,,,,,42.0,,,,,,16,note_on,,0.0,42.0,0.0,85144,44.34583333333333
7723,9.0,,,,,,,44.0,,,,,,0,note_on,,75.0,44.0,75.0,85144,44.34583333333333
7724,3.0,,,,,,,75.0,,,,,,234,note_on,,127.0,75.0,127.0,51854,27.007291666666667
7725,,,,,,,,,,,,,Like ,0,lyrics,,,,,4665298832,2429843.1416666666
7726,9.0,,,,,,,44.0,,,,,,6,note_on,,0.0,44.0,0.0,85150,44.348958333333336
7727,7.0,,,,,,,75.0,,,,,,0,note_on,,127.0,75.0,127.0,2201,1.1463541666666666
7728,8.0,,,,,,,87.0,,,,,,0,note_on,,45.0,87.0,45.0,13616,7.091666666666667
7729,8.0,,,,,,,63.0,,,,,,0,note_on,,127.0,63.0,127.0,13616,7.091666666666667
7730,9.0,,,,,,,42.0,,,,,,0,note_on,,85.0,42.0,85.0,85150,44.348958333333336
7731,9.0,,,,,,,70.0,,,,,,0,note_on,,40.0,70.0,40.0,85150,44.348958333333336
7732,9.0,,,,,,,39.0,,,,,,0,note_on,,127.0,39.0,127.0,85150,44.348958333333336
7733,9.0,,,,,,,28.0,,,,,,0,note_on,,127.0,28.0,127.0,85150,44.348958333333336
7734,9.0,,,,,,,39.0,,,,,,123,note_on,,0.0,39.0,0.0,85273,44.413020833333334
7735,9.0,,,,,,,28.0,,,,,,2,note_on,,0.0,28.0,0.0,85275,44.4140625
7736,8.0,,,,,,,87.0,,,,,,10,note_on,,0.0,87.0,0.0,13626,7.096875
7737,9.0,,,,,,,70.0,,,,,,89,note_on,,0.0,70.0,0.0,85364,44.46041666666667
7738,9.0,,,,,,,42.0,,,,,,0,note_on,,0.0,42.0,0.0,85364,44.46041666666667
7739,9.0,,,,,,,42.0,,,,,,16,note_on,,0.0,42.0,0.0,85380,44.46875
7740,9.0,,,,,,,44.0,,,,,,0,note_on,,75.0,44.0,75.0,85380,44.46875
7741,9.0,,,,,,,44.0,,,,,,240,note_on,,0.0,44.0,0.0,85620,44.59375
7742,8.0,,,,,,,87.0,,,,,,0,note_on,,45.0,87.0,45.0,13626,7.096875
7743,9.0,,,,,,,42.0,,,,,,0,note_on,,85.0,42.0,85.0,85620,44.59375
7744,9.0,,,,,,,61.0,,,,,,0,note_on,,100.0,61.0,100.0,85620,44.59375
7745,9.0,,,,,,,70.0,,,,,,0,note_on,,40.0,70.0,40.0,85620,44.59375
7746,7.0,,,,,,,75.0,,,,,,72,note_on,,0.0,75.0,0.0,2273,1.1838541666666667
7747,8.0,,,,,,,63.0,,,,,,0,note_on,,0.0,63.0,0.0,13626,7.096875
7748,9.0,,,,,,,61.0,,,,,,42,note_on,,0.0,61.0,0.0,85662,44.615625
7749,9.0,,,,,,,61.0,,,,,,6,note_on,,100.0,61.0,100.0,85668,44.61875
7750,8.0,,,,,,,87.0,,,,,,4,note_on,,0.0,87.0,0.0,13630,7.098958333333333
7751,5.0,,,,,,,55.0,,,,,,22,note_on,,0.0,55.0,0.0,1343,0.6994791666666667
7752,5.0,,,,,,,63.0,,,,,,40,note_on,,0.0,63.0,0.0,1383,0.7203125
7753,3.0,,,,,,,75.0,,,,,,18,note_on,,0.0,75.0,0.0,51872,27.016666666666666
7754,5.0,,,,,,,60.0,,,,,,7,note_on,,0.0,60.0,0.0,1390,0.7239583333333334
7755,9.0,,,,,,,70.0,,,,,,13,note_on,,0.0,70.0,0.0,85681,44.62552083333333
7756,9.0,,,,,,,61.0,,,,,,10,note_on,,0.0,61.0,0.0,85691,44.63072916666667
7757,9.0,,,,,,,42.0,,,,,,6,note_on,,0.0,42.0,0.0,85697,44.633854166666666
7758,9.0,,,,,,,44.0,,,,,,0,note_on,,75.0,44.0,75.0,85697,44.633854166666666
7759,9.0,,,,,,,61.0,,,,,,0,note_on,,100.0,61.0,100.0,85697,44.633854166666666
7760,9.0,,,,,,,61.0,,,,,,114,note_on,,0.0,61.0,0.0,85811,44.69322916666667
7761,9.0,,,,,,,61.0,,,,,,6,note_on,,100.0,61.0,100.0,85817,44.696354166666666
7762,5.0,,,,,,,60.0,,,,,,41,note_on,,108.0,60.0,108.0,1431,0.7453125
7763,5.0,,,,,,,63.0,,,,,,15,note_on,,111.0,63.0,111.0,1446,0.753125
7764,5.0,,,,,,,56.0,,,,,,0,note_on,,81.0,56.0,81.0,1446,0.753125
7765,9.0,,,,,,,61.0,,,,,,58,note_on,,0.0,61.0,0.0,85875,44.7265625
7766,9.0,,,,,,,44.0,,,,,,6,note_on,,0.0,44.0,0.0,85881,44.7296875
7767,1.0,,,,,,,32.0,,,,,,0,note_on,,127.0,32.0,127.0,4371,2.2765625
7768,7.0,,,,,,,82.0,,,,,,0,note_on,,127.0,82.0,127.0,2273,1.1838541666666667
7769,8.0,,,,,,,44.0,,,,,,0,note_on,,127.0,44.0,127.0,13630,7.098958333333333
7770,8.0,,,,,,,70.0,,,,,,0,note_on,,127.0,70.0,127.0,13630,7.098958333333333
7771,9.0,,,,,,,61.0,,,,,,0,note_on,,100.0,61.0,100.0,85881,44.7296875
7772,9.0,,,,,,,42.0,,,,,,0,note_on,,85.0,42.0,85.0,85881,44.7296875
7773,9.0,,,,,,,70.0,,,,,,0,note_on,,40.0,70.0,40.0,85881,44.7296875
7774,9.0,,,,,,,36.0,,,,,,0,note_on,,126.0,36.0,126.0,85881,44.7296875
7775,9.0,,,,,,,35.0,,,,,,0,note_on,,60.0,35.0,60.0,85881,44.7296875
7776,11.0,,,,,,,60.0,,,,,,0,note_on,,127.0,60.0,127.0,23534,12.257291666666667
7777,11.0,,,,,,,56.0,,,,,,0,note_on,,127.0,56.0,127.0,23534,12.257291666666667
7778,11.0,,,,,,,63.0,,,,,,0,note_on,,127.0,63.0,127.0,23534,12.257291666666667
7779,1.0,,,,,,,36.0,,,,,,24,note_on,,0.0,36.0,0.0,4395,2.2890625
7780,3.0,,,,,,,79.0,,,,,,3,note_on,,127.0,79.0,127.0,51875,27.018229166666668
7781,,,,,,,,,,,,,ba ,0,lyrics,,,,,4665236856,2429810.8625
7782,8.0,,,,,,,48.0,,,,,,16,note_on,,0.0,48.0,0.0,13646,7.107291666666667
7783,9.0,,,,,,,61.0,,,,,,71,note_on,,0.0,61.0,0.0,85952,44.766666666666666
7784,9.0,,,,,,,35.0,,,,,,58,note_on,,0.0,35.0,0.0,86010,44.796875
7785,9.0,,,,,,,36.0,,,,,,0,note_on,,0.0,36.0,0.0,86010,44.796875
7786,9.0,,,,,,,42.0,,,,,,52,note_on,,0.0,42.0,0.0,86062,44.82395833333333
7787,9.0,,,,,,,70.0,,,,,,0,note_on,,0.0,70.0,0.0,86062,44.82395833333333
7788,9.0,,,,,,,44.0,,,,,,16,note_on,,75.0,44.0,75.0,86078,44.83229166666666
7789,11.0,,,,,,,56.0,,,,,,191,note_on,,0.0,56.0,0.0,23725,12.356770833333334
7790,11.0,,,,,,,60.0,,,,,,25,note_on,,0.0,60.0,0.0,23750,12.369791666666666
7791,9.0,,,,,,,44.0,,,,,,24,note_on,,0.0,44.0,0.0,86102,44.844791666666666
7792,8.0,,,,,,,87.0,,,,,,0,note_on,,45.0,87.0,45.0,13646,7.107291666666667
7793,9.0,,,,,,,42.0,,,,,,0,note_on,,85.0,42.0,85.0,86102,44.844791666666666
7794,9.0,,,,,,,70.0,,,,,,0,note_on,,40.0,70.0,40.0,86102,44.844791666666666
7795,10.0,,,,,,,60.0,,,,,,0,note_on,,127.0,60.0,127.0,13152,6.85
7796,10.0,,,,,,,56.0,,,,,,0,note_on,,127.0,56.0,127.0,13152,6.85
7797,10.0,,,,,,,63.0,,,,,,0,note_on,,127.0,63.0,127.0,13152,6.85
7798,11.0,,,,,,,63.0,,,,,,9,note_on,,0.0,63.0,0.0,23759,12.374479166666667
7799,7.0,,,,,,,82.0,,,,,,90,note_on,,0.0,82.0,0.0,2363,1.2307291666666667
7800,8.0,,,,,,,70.0,,,,,,0,note_on,,0.0,70.0,0.0,13646,7.107291666666667
7801,8.0,,,,,,,87.0,,,,,,24,note_on,,0.0,87.0,0.0,13670,7.119791666666667
7802,3.0,,,,,,,79.0,,,,,,52,note_on,,0.0,79.0,0.0,51927,27.045312499999998
7803,9.0,,,,,,,70.0,,,,,,49,note_on,,0.0,70.0,0.0,86151,44.8703125
7804,9.0,,,,,,,42.0,,,,,,16,note_on,,0.0,42.0,0.0,86167,44.87864583333333
7805,9.0,,,,,,,44.0,,,,,,0,note_on,,75.0,44.0,75.0,86167,44.87864583333333
7806,9.0,,,,,,,36.0,,,,,,0,note_on,,126.0,36.0,126.0,86167,44.87864583333333
7807,9.0,,,,,,,35.0,,,,,,0,note_on,,60.0,35.0,60.0,86167,44.87864583333333
7808,10.0,,,,,,,56.0,,,,,,191,note_on,,0.0,56.0,0.0,13343,6.949479166666666
7809,3.0,,,,,,,77.0,,,,,,23,note_on,,127.0,77.0,127.0,51950,27.057291666666668
7810,,,,,,,,,,,,,"by, ",0,lyrics,,,,,4665237416,2429811.154166667
7811,10.0,,,,,,,60.0,,,,,,2,note_on,,0.0,60.0,0.0,13345,6.950520833333333
7812,9.0,,,,,,,35.0,,,,,,8,note_on,,0.0,35.0,0.0,86175,44.8828125
7813,9.0,,,,,,,36.0,,,,,,0,note_on,,0.0,36.0,0.0,86175,44.8828125
7814,9.0,,,,,,,44.0,,,,,,16,note_on,,0.0,44.0,0.0,86191,44.89114583333333
7815,7.0,,,,,,,75.0,,,,,,0,note_on,,127.0,75.0,127.0,2363,1.2307291666666667
7816,8.0,,,,,,,87.0,,,,,,0,note_on,,45.0,87.0,45.0,13670,7.119791666666667
7817,8.0,,,,,,,63.0,,,,,,0,note_on,,127.0,63.0,127.0,13670,7.119791666666667
7818,9.0,,,,,,,42.0,,,,,,0,note_on,,85.0,42.0,85.0,86191,44.89114583333333
7819,9.0,,,,,,,70.0,,,,,,0,note_on,,40.0,70.0,40.0,86191,44.89114583333333
7820,9.0,,,,,,,39.0,,,,,,0,note_on,,125.0,39.0,125.0,86191,44.89114583333333
7821,9.0,,,,,,,28.0,,,,,,0,note_on,,127.0,28.0,127.0,86191,44.89114583333333
7822,12.0,,,,,,,60.0,,,,,,0,note_on,,127.0,60.0,127.0,20282,10.563541666666666
7823,12.0,,,,,,,56.0,,,,,,0,note_on,,127.0,56.0,127.0,20282,10.563541666666666
7824,12.0,,,,,,,63.0,,,,,,0,note_on,,127.0,63.0,127.0,20282,10.563541666666666
7825,10.0,,,,,,,63.0,,,,,,9,note_on,,0.0,63.0,0.0,13354,6.955208333333333
7826,9.0,,,,,,,28.0,,,,,,108,note_on,,0.0,28.0,0.0,86299,44.94739583333333
7827,8.0,,,,,,,87.0,,,,,,10,note_on,,0.0,87.0,0.0,13680,7.125
7828,9.0,,,,,,,39.0,,,,,,24,note_on,,0.0,39.0,0.0,86323,44.959895833333334
7829,9.0,,,,,,,42.0,,,,,,73,note_on,,0.0,42.0,0.0,86396,44.99791666666667
7830,9.0,,,,,,,70.0,,,,,,0,note_on,,0.0,70.0,0.0,86396,44.99791666666667
7831,9.0,,,,,,,44.0,,,,,,16,note_on,,75.0,44.0,75.0,86412,45.00625
7832,12.0,,,,,,,56.0,,,,,,191,note_on,,0.0,56.0,0.0,20473,10.663020833333333
7833,12.0,,,,,,,60.0,,,,,,25,note_on,,0.0,60.0,0.0,20498,10.676041666666666
7834,9.0,,,,,,,44.0,,,,,,24,note_on,,0.0,44.0,0.0,86436,45.01875
7835,8.0,,,,,,,87.0,,,,,,0,note_on,,45.0,87.0,45.0,13680,7.125
7836,9.0,,,,,,,42.0,,,,,,0,note_on,,85.0,42.0,85.0,86436,45.01875
7837,9.0,,,,,,,70.0,,,,,,0,note_on,,40.0,70.0,40.0,86436,45.01875
7838,9.0,,,,,,,36.0,,,,,,0,note_on,,126.0,36.0,126.0,86436,45.01875
7839,9.0,,,,,,,35.0,,,,,,0,note_on,,60.0,35.0,60.0,86436,45.01875
7840,12.0,,,,,,,63.0,,,,,,9,note_on,,0.0,63.0,0.0,20507,10.680729166666666
7841,7.0,,,,,,,75.0,,,,,,17,note_on,,0.0,75.0,0.0,2380,1.2395833333333333
7842,8.0,,,,,,,63.0,,,,,,0,note_on,,0.0,63.0,0.0,13680,7.125
7843,8.0,,,,,,,87.0,,,,,,98,note_on,,0.0,87.0,0.0,13778,7.176041666666666
7844,9.0,,,,,,,35.0,,,,,,42,note_on,,0.0,35.0,0.0,86478,45.040625
7845,9.0,,,,,,,36.0,,,,,,0,note_on,,0.0,36.0,0.0,86478,45.040625
7846,3.0,,,,,,,77.0,,,,,,5,note_on,,0.0,77.0,0.0,51955,27.059895833333332
7847,9.0,,,,,,,70.0,,,,,,53,note_on,,0.0,70.0,0.0,86531,45.06822916666667
7848,9.0,,,,,,,42.0,,,,,,16,note_on,,0.0,42.0,0.0,86547,45.0765625
7849,8.0,,,,,,,87.0,,,,,,0,note_on,,45.0,87.0,45.0,13778,7.176041666666666
7850,9.0,,,,,,,44.0,,,,,,0,note_on,,75.0,44.0,75.0,86547,45.0765625
7851,8.0,,,,,,,87.0,,,,,,130,note_on,,0.0,87.0,0.0,13908,7.2437499999999995
7852,9.0,,,,,,,44.0,,,,,,110,note_on,,0.0,44.0,0.0,86657,45.133854166666666
7853,7.0,,,,,,,77.0,,,,,,0,note_on,,127.0,77.0,127.0,2380,1.2395833333333333
7854,8.0,,,,,,,65.0,,,,,,0,note_on,,127.0,65.0,127.0,13908,7.2437499999999995
7855,9.0,,,,,,,42.0,,,,,,0,note_on,,85.0,42.0,85.0,86657,45.133854166666666
7856,9.0,,,,,,,70.0,,,,,,0,note_on,,40.0,70.0,40.0,86657,45.133854166666666
7857,3.0,,,,,,,79.0,,,,,,6,note_on,,127.0,79.0,127.0,51961,27.063020833333333
7858,,,,,,,,,,,,,ba ,0,lyrics,,,,,4665336816,2429862.925
7859,9.0,,,,,,,70.0,,,,,,218,note_on,,0.0,70.0,0.0,86875,45.247395833333336
7860,9.0,,,,,,,42.0,,,,,,0,note_on,,0.0,42.0,0.0,86875,45.247395833333336
7861,9.0,,,,,,,44.0,,,,,,16,note_on,,75.0,44.0,75.0,86891,45.25572916666667
7862,9.0,,,,,,,44.0,,,,,,240,note_on,,0.0,44.0,0.0,87131,45.38072916666667
7863,8.0,,,,,,,87.0,,,,,,0,note_on,,45.0,87.0,45.0,13908,7.2437499999999995
7864,9.0,,,,,,,42.0,,,,,,0,note_on,,85.0,42.0,85.0,87131,45.38072916666667
7865,9.0,,,,,,,70.0,,,,,,0,note_on,,40.0,70.0,40.0,87131,45.38072916666667
7866,9.0,,,,,,,36.0,,,,,,0,note_on,,126.0,36.0,126.0,87131,45.38072916666667
7867,9.0,,,,,,,35.0,,,,,,0,note_on,,60.0,35.0,60.0,87131,45.38072916666667
7868,8.0,,,,,,,87.0,,,,,,116,note_on,,0.0,87.0,0.0,14024,7.304166666666666
7869,8.0,,,,,,,65.0,,,,,,29,note_on,,0.0,65.0,0.0,14053,7.319270833333333
7870,7.0,,,,,,,77.0,,,,,,0,note_on,,0.0,77.0,0.0,2380,1.2395833333333333
7871,9.0,,,,,,,35.0,,,,,,9,note_on,,0.0,35.0,0.0,87140,45.385416666666664
7872,9.0,,,,,,,36.0,,,,,,0,note_on,,0.0,36.0,0.0,87140,45.385416666666664
7873,3.0,,,,,,,79.0,,,,,,53,note_on,,0.0,79.0,0.0,52014,27.090625
7874,9.0,,,,,,,70.0,,,,,,17,note_on,,0.0,70.0,0.0,87157,45.39427083333333
7875,9.0,,,,,,,42.0,,,,,,16,note_on,,0.0,42.0,0.0,87173,45.40260416666666
7876,9.0,,,,,,,44.0,,,,,,0,note_on,,75.0,44.0,75.0,87173,45.40260416666666
7877,9.0,,,,,,,44.0,,,,,,240,note_on,,0.0,44.0,0.0,87413,45.52760416666666
7878,7.0,,,,,,,70.0,,,,,,0,note_on,,127.0,70.0,127.0,2380,1.2395833333333333
7879,8.0,,,,,,,87.0,,,,,,0,note_on,,45.0,87.0,45.0,14053,7.319270833333333
7880,8.0,,,,,,,58.0,,,,,,0,note_on,,127.0,58.0,127.0,14053,7.319270833333333
7881,9.0,,,,,,,42.0,,,,,,0,note_on,,85.0,42.0,85.0,87413,45.52760416666666
7882,9.0,,,,,,,70.0,,,,,,0,note_on,,40.0,70.0,40.0,87413,45.52760416666666
7883,9.0,,,,,,,39.0,,,,,,0,note_on,,127.0,39.0,127.0,87413,45.52760416666666
7884,9.0,,,,,,,28.0,,,,,,0,note_on,,127.0,28.0,127.0,87413,45.52760416666666
7885,11.0,,,,,,,60.0,,,,,,0,note_on,,127.0,60.0,127.0,23759,12.374479166666667
7886,11.0,,,,,,,65.0,,,,,,0,note_on,,127.0,65.0,127.0,23759,12.374479166666667
7887,11.0,,,,,,,56.0,,,,,,0,note_on,,127.0,56.0,127.0,23759,12.374479166666667
7888,3.0,,,,,,,77.0,,,,,,2,note_on,,127.0,77.0,127.0,52016,27.091666666666665
7889,,,,,,,,,,,,,"by, ",0,lyrics,,,,,4665342736,2429866.0083333333
7890,9.0,,,,,,,39.0,,,,,,121,note_on,,0.0,39.0,0.0,87534,45.590625
7891,9.0,,,,,,,28.0,,,,,,2,note_on,,0.0,28.0,0.0,87536,45.59166666666667
7892,8.0,,,,,,,87.0,,,,,,1,note_on,,0.0,87.0,0.0,14054,7.319791666666666
7893,3.0,,,,,,,77.0,,,,,,70,note_on,,0.0,77.0,0.0,52086,27.128125
7894,9.0,,,,,,,42.0,,,,,,28,note_on,,0.0,42.0,0.0,87564,45.60625
7895,9.0,,,,,,,70.0,,,,,,0,note_on,,0.0,70.0,0.0,87564,45.60625
7896,9.0,,,,,,,44.0,,,,,,16,note_on,,75.0,44.0,75.0,87580,45.614583333333336
7897,11.0,,,,,,,65.0,,,,,,144,note_on,,0.0,65.0,0.0,23903,12.449479166666666
7898,11.0,,,,,,,56.0,,,,,,10,note_on,,0.0,56.0,0.0,23913,12.4546875
7899,11.0,,,,,,,60.0,,,,,,21,note_on,,0.0,60.0,0.0,23934,12.465625
7900,3.0,,,,,,,79.0,,,,,,56,note_on,,127.0,79.0,127.0,52142,27.157291666666666
7901,,,,,,,,,,,,,ba ,0,lyrics,,,,,4665337856,2429863.466666667
7902,9.0,,,,,,,44.0,,,,,,9,note_on,,0.0,44.0,0.0,87589,45.61927083333333
7903,8.0,,,,,,,87.0,,,,,,0,note_on,,45.0,87.0,45.0,14054,7.319791666666666
7904,9.0,,,,,,,42.0,,,,,,0,note_on,,85.0,42.0,85.0,87589,45.61927083333333
7905,9.0,,,,,,,70.0,,,,,,0,note_on,,40.0,70.0,40.0,87589,45.61927083333333
7906,10.0,,,,,,,60.0,,,,,,0,note_on,,127.0,60.0,127.0,13354,6.955208333333333
7907,10.0,,,,,,,65.0,,,,,,0,note_on,,127.0,65.0,127.0,13354,6.955208333333333
7908,10.0,,,,,,,56.0,,,,,,0,note_on,,127.0,56.0,127.0,13354,6.955208333333333
7909,11.0,,,,,,,60.0,,,,,,0,note_on,,127.0,60.0,127.0,23934,12.465625
7910,11.0,,,,,,,56.0,,,,,,0,note_on,,124.0,56.0,124.0,23934,12.465625
7911,11.0,,,,,,,63.0,,,,,,0,note_on,,127.0,63.0,127.0,23934,12.465625
7912,8.0,,,,,,,58.0,,,,,,97,note_on,,0.0,58.0,0.0,14151,7.3703125
7913,7.0,,,,,,,70.0,,,,,,0,note_on,,0.0,70.0,0.0,2380,1.2395833333333333
7914,8.0,,,,,,,87.0,,,,,,16,note_on,,0.0,87.0,0.0,14167,7.378645833333334
7915,9.0,,,,,,,70.0,,,,,,111,note_on,,0.0,70.0,0.0,87700,45.677083333333336
7916,9.0,,,,,,,42.0,,,,,,16,note_on,,0.0,42.0,0.0,87716,45.68541666666667
7917,9.0,,,,,,,44.0,,,,,,0,note_on,,75.0,44.0,75.0,87716,45.68541666666667
7918,10.0,,,,,,,65.0,,,,,,144,note_on,,0.0,65.0,0.0,13498,7.030208333333333
7919,10.0,,,,,,,56.0,,,,,,10,note_on,,0.0,56.0,0.0,13508,7.035416666666666
7920,10.0,,,,,,,60.0,,,,,,21,note_on,,0.0,60.0,0.0,13529,7.046354166666666
7921,11.0,,,,,,,56.0,,,,,,46,note_on,,0.0,56.0,0.0,23980,12.489583333333334
7922,9.0,,,,,,,44.0,,,,,,19,note_on,,0.0,44.0,0.0,87735,45.6953125
7923,7.0,,,,,,,82.0,,,,,,0,note_on,,127.0,82.0,127.0,2380,1.2395833333333333
7924,8.0,,,,,,,70.0,,,,,,0,note_on,,127.0,70.0,127.0,14167,7.378645833333334
7925,9.0,,,,,,,42.0,,,,,,0,note_on,,85.0,42.0,85.0,87735,45.6953125
7926,9.0,,,,,,,70.0,,,,,,0,note_on,,40.0,70.0,40.0,87735,45.6953125
7927,9.0,,,,,,,36.0,,,,,,0,note_on,,126.0,36.0,126.0,87735,45.6953125
7928,9.0,,,,,,,35.0,,,,,,0,note_on,,60.0,35.0,60.0,87735,45.6953125
7929,10.0,,,,,,,60.0,,,,,,0,note_on,,127.0,60.0,127.0,13529,7.046354166666666
7930,10.0,,,,,,,56.0,,,,,,0,note_on,,124.0,56.0,124.0,13529,7.046354166666666
7931,10.0,,,,,,,63.0,,,,,,0,note_on,,127.0,63.0,127.0,13529,7.046354166666666
7932,12.0,,,,,,,60.0,,,,,,0,note_on,,127.0,60.0,127.0,20507,10.680729166666666
7933,12.0,,,,,,,65.0,,,,,,0,note_on,,127.0,65.0,127.0,20507,10.680729166666666
7934,12.0,,,,,,,56.0,,,,,,0,note_on,,127.0,56.0,127.0,20507,10.680729166666666
7935,11.0,,,,,,,63.0,,,,,,14,note_on,,0.0,63.0,0.0,23994,12.496875
7936,11.0,,,,,,,60.0,,,,,,6,note_on,,0.0,60.0,0.0,24000,12.5
7937,9.0,,,,,,,35.0,,,,,,152,note_on,,0.0,35.0,0.0,87887,45.774479166666666
7938,9.0,,,,,,,36.0,,,,,,0,note_on,,0.0,36.0,0.0,87887,45.774479166666666
7939,9.0,,,,,,,42.0,,,,,,52,note_on,,0.0,42.0,0.0,87939,45.8015625
7940,9.0,,,,,,,70.0,,,,,,0,note_on,,0.0,70.0,0.0,87939,45.8015625
7941,3.0,,,,,,,79.0,,,,,,16,note_on,,0.0,79.0,0.0,52158,27.165625
7942,8.0,,,,,,,87.0,,,,,,0,note_on,,45.0,87.0,45.0,14167,7.378645833333334
7943,9.0,,,,,,,44.0,,,,,,0,note_on,,75.0,44.0,75.0,87939,45.8015625
7944,8.0,,,,,,,87.0,,,,,,131,note_on,,0.0,87.0,0.0,14298,7.4468749999999995
7945,12.0,,,,,,,65.0,,,,,,13,note_on,,0.0,65.0,0.0,20520,10.6875
7946,12.0,,,,,,,56.0,,,,,,10,note_on,,0.0,56.0,0.0,20530,10.692708333333334
7947,3.0,,,,,,,77.0,,,,,,8,note_on,,127.0,77.0,127.0,52166,27.169791666666665
7948,,,,,,,,,,,,,by ,0,lyrics,,,,,4665338816,2429863.966666667
7949,12.0,,,,,,,60.0,,,,,,13,note_on,,0.0,60.0,0.0,20543,10.699479166666666
7950,10.0,,,,,,,56.0,,,,,,46,note_on,,0.0,56.0,0.0,13575,7.0703125
7951,9.0,,,,,,,44.0,,,,,,19,note_on,,0.0,44.0,0.0,87958,45.811458333333334
7952,9.0,,,,,,,42.0,,,,,,0,note_on,,85.0,42.0,85.0,87958,45.811458333333334
7953,9.0,,,,,,,70.0,,,,,,0,note_on,,40.0,70.0,40.0,87958,45.811458333333334
7954,12.0,,,,,,,60.0,,,,,,0,note_on,,127.0,60.0,127.0,20543,10.699479166666666
7955,12.0,,,,,,,56.0,,,,,,0,note_on,,124.0,56.0,124.0,20543,10.699479166666666
7956,12.0,,,,,,,63.0,,,,,,0,note_on,,127.0,63.0,127.0,20543,10.699479166666666
7957,10.0,,,,,,,63.0,,,,,,14,note_on,,0.0,63.0,0.0,13589,7.077604166666666
7958,7.0,,,,,,,82.0,,,,,,0,note_on,,0.0,82.0,0.0,2380,1.2395833333333333
7959,8.0,,,,,,,70.0,,,,,,0,note_on,,0.0,70.0,0.0,14298,7.4468749999999995
7960,10.0,,,,,,,60.0,,,,,,6,note_on,,0.0,60.0,0.0,13595,7.080729166666667
7961,9.0,,,,,,,70.0,,,,,,204,note_on,,0.0,70.0,0.0,88162,45.91770833333333
7962,9.0,,,,,,,42.0,,,,,,16,note_on,,0.0,42.0,0.0,88178,45.92604166666666
7963,8.0,,,,,,,87.0,,,,,,0,note_on,,45.0,87.0,45.0,14298,7.4468749999999995
7964,9.0,,,,,,,44.0,,,,,,0,note_on,,75.0,44.0,75.0,88178,45.92604166666666
7965,9.0,,,,,,,36.0,,,,,,0,note_on,,126.0,36.0,126.0,88178,45.92604166666666
7966,9.0,,,,,,,35.0,,,,,,0,note_on,,60.0,35.0,60.0,88178,45.92604166666666
7967,8.0,,,,,,,87.0,,,,,,136,note_on,,0.0,87.0,0.0,14434,7.517708333333333
7968,12.0,,,,,,,56.0,,,,,,85,note_on,,0.0,56.0,0.0,20628,10.74375
7969,9.0,,,,,,,35.0,,,,,,3,note_on,,0.0,35.0,0.0,88181,45.92760416666667
7970,9.0,,,,,,,36.0,,,,,,0,note_on,,0.0,36.0,0.0,88181,45.92760416666667
7971,9.0,,,,,,,44.0,,,,,,16,note_on,,0.0,44.0,0.0,88197,45.9359375
7972,7.0,,,,,,,75.0,,,,,,0,note_on,,127.0,75.0,127.0,2380,1.2395833333333333
7973,8.0,,,,,,,63.0,,,,,,0,note_on,,127.0,63.0,127.0,14434,7.517708333333333
7974,9.0,,,,,,,42.0,,,,,,0,note_on,,85.0,42.0,85.0,88197,45.9359375
7975,9.0,,,,,,,70.0,,,,,,0,note_on,,40.0,70.0,40.0,88197,45.9359375
7976,9.0,,,,,,,39.0,,,,,,0,note_on,,125.0,39.0,125.0,88197,45.9359375
7977,9.0,,,,,,,28.0,,,,,,0,note_on,,127.0,28.0,127.0,88197,45.9359375
7978,12.0,,,,,,,63.0,,,,,,14,note_on,,0.0,63.0,0.0,20642,10.751041666666666
7979,12.0,,,,,,,60.0,,,,,,6,note_on,,0.0,60.0,0.0,20648,10.754166666666666
7980,9.0,,,,,,,28.0,,,,,,97,note_on,,0.0,28.0,0.0,88294,45.98645833333333
7981,9.0,,,,,,,39.0,,,,,,34,note_on,,0.0,39.0,0.0,88328,46.00416666666666
7982,9.0,,,,,,,70.0,,,,,,73,note_on,,0.0,70.0,0.0,88401,46.0421875
7983,9.0,,,,,,,42.0,,,,,,0,note_on,,0.0,42.0,0.0,88401,46.0421875
7984,8.0,,,,,,,87.0,,,,,,16,note_on,,45.0,87.0,45.0,14450,7.526041666666667
7985,9.0,,,,,,,44.0,,,,,,0,note_on,,75.0,44.0,75.0,88401,46.0421875
7986,3.0,,,,,,,77.0,,,,,,55,note_on,,0.0,77.0,0.0,52221,27.1984375
7987,8.0,,,,,,,87.0,,,,,,77,note_on,,0.0,87.0,0.0,14527,7.566145833333334
7988,3.0,,,,,,,82.0,,,,,,33,note_on,,127.0,82.0,127.0,52254,27.215625
7989,,,,,,,,,,,,,ohh ,0,lyrics,,,,,4665316000,2429852.0833333335
7990,,,,,,,,,,,,,,0,lyrics,,,,,4665339696,2429864.425
7991,9.0,,,,,,,44.0,,,,,,75,note_on,,0.0,44.0,0.0,88476,46.08125
7992,9.0,,,,,,,42.0,,,,,,0,note_on,,85.0,42.0,85.0,88476,46.08125
7993,9.0,,,,,,,70.0,,,,,,0,note_on,,40.0,70.0,40.0,88476,46.08125
7994,9.0,,,,,,,36.0,,,,,,0,note_on,,126.0,36.0,126.0,88476,46.08125
7995,9.0,,,,,,,35.0,,,,,,0,note_on,,60.0,35.0,60.0,88476,46.08125
7996,7.0,,,,,,,75.0,,,,,,87,note_on,,0.0,75.0,0.0,2467,1.2848958333333333
7997,8.0,,,,,,,63.0,,,,,,0,note_on,,0.0,63.0,0.0,14527,7.566145833333334
7998,9.0,,,,,,,36.0,,,,,,79,note_on,,0.0,36.0,0.0,88555,46.122395833333336
7999,9.0,,,,,,,35.0,,,,,,0,note_on,,0.0,35.0,0.0,88555,46.122395833333336
8000,9.0,,,,,,,70.0,,,,,,58,note_on,,0.0,70.0,0.0,88613,46.15260416666666
8001,9.0,,,,,,,42.0,,,,,,16,note_on,,0.0,42.0,0.0,88629,46.1609375
8002,8.0,,,,,,,87.0,,,,,,0,note_on,,45.0,87.0,45.0,14527,7.566145833333334
8003,9.0,,,,,,,44.0,,,,,,0,note_on,,75.0,44.0,75.0,88629,46.1609375
8004,8.0,,,,,,,87.0,,,,,,137,note_on,,0.0,87.0,0.0,14664,7.6375
8005,9.0,,,,,,,44.0,,,,,,103,note_on,,0.0,44.0,0.0,88732,46.21458333333333
8006,7.0,,,,,,,77.0,,,,,,0,note_on,,127.0,77.0,127.0,2467,1.2848958333333333
8007,8.0,,,,,,,65.0,,,,,,0,note_on,,127.0,65.0,127.0,14664,7.6375
8008,9.0,,,,,,,42.0,,,,,,0,note_on,,85.0,42.0,85.0,88732,46.21458333333333
8009,9.0,,,,,,,70.0,,,,,,0,note_on,,40.0,70.0,40.0,88732,46.21458333333333
8010,9.0,,,,,,,70.0,,,,,,224,note_on,,0.0,70.0,0.0,88956,46.33125
8011,9.0,,,,,,,44.0,,,,,,16,note_on,,75.0,44.0,75.0,88972,46.33958333333333
8012,9.0,,,,,,,44.0,,,,,,240,note_on,,0.0,44.0,0.0,89212,46.46458333333333
8013,8.0,,,,,,,87.0,,,,,,0,note_on,,45.0,87.0,45.0,14664,7.6375
8014,9.0,,,,,,,42.0,,,,,,0,note_on,,85.0,42.0,85.0,89212,46.46458333333333
8015,9.0,,,,,,,70.0,,,,,,0,note_on,,40.0,70.0,40.0,89212,46.46458333333333
8016,9.0,,,,,,,36.0,,,,,,0,note_on,,126.0,36.0,126.0,89212,46.46458333333333
8017,9.0,,,,,,,35.0,,,,,,0,note_on,,60.0,35.0,60.0,89212,46.46458333333333
8018,3.0,,,,,,,82.0,,,,,,27,note_on,,0.0,82.0,0.0,52281,27.2296875
8019,8.0,,,,,,,65.0,,,,,,8,note_on,,0.0,65.0,0.0,14672,7.641666666666667
8020,7.0,,,,,,,77.0,,,,,,0,note_on,,0.0,77.0,0.0,2467,1.2848958333333333
8021,8.0,,,,,,,87.0,,,,,,98,note_on,,0.0,87.0,0.0,14770,7.692708333333333
8022,9.0,,,,,,,35.0,,,,,,21,note_on,,0.0,35.0,0.0,89233,46.475520833333334
8023,9.0,,,,,,,36.0,,,,,,0,note_on,,0.0,36.0,0.0,89233,46.475520833333334
8024,9.0,,,,,,,70.0,,,,,,70,note_on,,0.0,70.0,0.0,89303,46.51197916666666
8025,9.0,,,,,,,42.0,,,,,,16,note_on,,0.0,42.0,0.0,89319,46.5203125
8026,9.0,,,,,,,44.0,,,,,,0,note_on,,75.0,44.0,75.0,89319,46.5203125
8027,9.0,,,,,,,44.0,,,,,,240,note_on,,0.0,44.0,0.0,89559,46.6453125
8028,7.0,,,,,,,75.0,,,,,,0,note_on,,127.0,75.0,127.0,2467,1.2848958333333333
8029,8.0,,,,,,,87.0,,,,,,0,note_on,,45.0,87.0,45.0,14770,7.692708333333333
8030,8.0,,,,,,,63.0,,,,,,0,note_on,,127.0,63.0,127.0,14770,7.692708333333333
8031,9.0,,,,,,,42.0,,,,,,0,note_on,,85.0,42.0,85.0,89559,46.6453125
8032,9.0,,,,,,,70.0,,,,,,0,note_on,,40.0,70.0,40.0,89559,46.6453125
8033,9.0,,,,,,,39.0,,,,,,0,note_on,,127.0,39.0,127.0,89559,46.6453125
8034,9.0,,,,,,,28.0,,,,,,0,note_on,,127.0,28.0,127.0,89559,46.6453125
8035,9.0,,,,,,,39.0,,,,,,123,note_on,,0.0,39.0,0.0,89682,46.709375
8036,9.0,,,,,,,28.0,,,,,,2,note_on,,0.0,28.0,0.0,89684,46.71041666666667
8037,8.0,,,,,,,87.0,,,,,,2,note_on,,0.0,87.0,0.0,14772,7.69375
8038,9.0,,,,,,,42.0,,,,,,97,note_on,,0.0,42.0,0.0,89781,46.7609375
8039,9.0,,,,,,,70.0,,,,,,0,note_on,,0.0,70.0,0.0,89781,46.7609375
8040,9.0,,,,,,,42.0,,,,,,16,note_on,,0.0,42.0,0.0,89797,46.76927083333333
8041,9.0,,,,,,,44.0,,,,,,0,note_on,,75.0,44.0,75.0,89797,46.76927083333333
8042,9.0,,,,,,,44.0,,,,,,240,note_on,,0.0,44.0,0.0,90037,46.89427083333333
8043,8.0,,,,,,,87.0,,,,,,0,note_on,,45.0,87.0,45.0,14772,7.69375
8044,9.0,,,,,,,42.0,,,,,,0,note_on,,85.0,42.0,85.0,90037,46.89427083333333
8045,9.0,,,,,,,61.0,,,,,,0,note_on,,100.0,61.0,100.0,90037,46.89427083333333
8046,9.0,,,,,,,70.0,,,,,,0,note_on,,40.0,70.0,40.0,90037,46.89427083333333
8047,7.0,,,,,,,75.0,,,,,,91,note_on,,0.0,75.0,0.0,2558,1.3322916666666667
8048,8.0,,,,,,,63.0,,,,,,0,note_on,,0.0,63.0,0.0,14772,7.69375
8049,9.0,,,,,,,61.0,,,,,,23,note_on,,0.0,61.0,0.0,90060,46.90625
8050,8.0,,,,,,,87.0,,,,,,4,note_on,,0.0,87.0,0.0,14776,7.695833333333333
8051,9.0,,,,,,,61.0,,,,,,2,note_on,,100.0,61.0,100.0,90062,46.907291666666666
8052,9.0,,,,,,,70.0,,,,,,104,note_on,,0.0,70.0,0.0,90166,46.96145833333333
8053,9.0,,,,,,,61.0,,,,,,10,note_on,,0.0,61.0,0.0,90176,46.96666666666667
8054,9.0,,,,,,,42.0,,,,,,6,note_on,,0.0,42.0,0.0,90182,46.969791666666666
8055,9.0,,,,,,,44.0,,,,,,0,note_on,,75.0,44.0,75.0,90182,46.969791666666666
8056,9.0,,,,,,,61.0,,,,,,0,note_on,,100.0,61.0,100.0,90182,46.969791666666666
8057,5.0,,,,,,,63.0,,,,,,50,note_on,,0.0,63.0,0.0,1496,0.7791666666666667
8058,5.0,,,,,,,56.0,,,,,,19,note_on,,0.0,56.0,0.0,1515,0.7890625
8059,5.0,,,,,,,60.0,,,,,,16,note_on,,0.0,60.0,0.0,1531,0.7973958333333333
8060,9.0,,,,,,,61.0,,,,,,29,note_on,,0.0,61.0,0.0,90211,46.98489583333333
8061,9.0,,,,,,,61.0,,,,,,6,note_on,,100.0,61.0,100.0,90217,46.98802083333333
8062,8.0,,,,,,,44.0,,,,,,80,note_on,,0.0,44.0,0.0,14856,7.7375
8063,9.0,,,,,,,61.0,,,,,,34,note_on,,0.0,61.0,0.0,90251,47.00572916666667
8064,9.0,,,,,,,44.0,,,,,,6,note_on,,0.0,44.0,0.0,90257,47.008854166666666
8065,1.0,,,,,,,34.0,,,,,,0,note_on,,127.0,34.0,127.0,4395,2.2890625
8066,3.0,,,,,,,79.0,,,,,,0,note_on,,127.0,79.0,127.0,52281,27.2296875
8067,7.0,,,,,,,82.0,,,,,,0,note_on,,127.0,82.0,127.0,2558,1.3322916666666667
8068,8.0,,,,,,,46.0,,,,,,0,note_on,,127.0,46.0,127.0,14856,7.7375
8069,8.0,,,,,,,70.0,,,,,,0,note_on,,127.0,70.0,127.0,14856,7.7375
8070,9.0,,,,,,,61.0,,,,,,0,note_on,,100.0,61.0,100.0,90257,47.008854166666666
8071,9.0,,,,,,,42.0,,,,,,0,note_on,,85.0,42.0,85.0,90257,47.008854166666666
8072,9.0,,,,,,,70.0,,,,,,0,note_on,,40.0,70.0,40.0,90257,47.008854166666666
8073,9.0,,,,,,,36.0,,,,,,0,note_on,,126.0,36.0,126.0,90257,47.008854166666666
8074,9.0,,,,,,,35.0,,,,,,0,note_on,,60.0,35.0,60.0,90257,47.008854166666666
8075,11.0,,,,,,,62.0,,,,,,0,note_on,,127.0,62.0,127.0,24000,12.5
8076,11.0,,,,,,,58.0,,,,,,0,note_on,,127.0,58.0,127.0,24000,12.5
8077,11.0,,,,,,,65.0,,,,,,0,note_on,,127.0,65.0,127.0,24000,12.5
8078,,,,,,,,,,,,,I ,0,lyrics,,,,,4413203264,2298543.3666666667
8079,1.0,,,,,,,32.0,,,,,,6,note_on,,0.0,32.0,0.0,4401,2.2921875
8080,5.0,,,,,,,58.0,,,,,,56,note_on,,101.0,58.0,101.0,1587,0.8265625
8081,5.0,,,,,,,53.0,,,,,,6,note_on,,105.0,53.0,105.0,1593,0.8296875
8082,5.0,,,,,,,62.0,,,,,,0,note_on,,91.0,62.0,91.0,1593,0.8296875
8083,9.0,,,,,,,61.0,,,,,,46,note_on,,0.0,61.0,0.0,90303,47.0328125
8084,9.0,,,,,,,35.0,,,,,,58,note_on,,0.0,35.0,0.0,90361,47.06302083333333
8085,9.0,,,,,,,36.0,,,,,,0,note_on,,0.0,36.0,0.0,90361,47.06302083333333
8086,3.0,,,,,,,79.0,,,,,,32,note_on,,0.0,79.0,0.0,52313,27.246354166666666
8087,9.0,,,,,,,42.0,,,,,,20,note_on,,0.0,42.0,0.0,90381,47.0734375
8088,9.0,,,,,,,70.0,,,,,,0,note_on,,0.0,70.0,0.0,90381,47.0734375
8089,9.0,,,,,,,44.0,,,,,,16,note_on,,75.0,44.0,75.0,90397,47.08177083333333
8090,11.0,,,,,,,58.0,,,,,,234,note_on,,0.0,58.0,0.0,24234,12.621875
8091,9.0,,,,,,,44.0,,,,,,6,note_on,,0.0,44.0,0.0,90403,47.084895833333334
8092,3.0,,,,,,,77.0,,,,,,0,note_on,,127.0,77.0,127.0,52313,27.246354166666666
8093,8.0,,,,,,,87.0,,,,,,0,note_on,,45.0,87.0,45.0,14856,7.7375
8094,9.0,,,,,,,42.0,,,,,,0,note_on,,85.0,42.0,85.0,90403,47.084895833333334
8095,9.0,,,,,,,70.0,,,,,,0,note_on,,40.0,70.0,40.0,90403,47.084895833333334
8096,10.0,,,,,,,62.0,,,,,,0,note_on,,127.0,62.0,127.0,13595,7.080729166666667
8097,10.0,,,,,,,58.0,,,,,,0,note_on,,127.0,58.0,127.0,13595,7.080729166666667
8098,10.0,,,,,,,65.0,,,,,,0,note_on,,127.0,65.0,127.0,13595,7.080729166666667
8099,,,,,,,,,,,,,thought ,0,lyrics,,,,,4413203488,2298543.4833333334
8100,8.0,,,,,,,70.0,,,,,,29,note_on,,0.0,70.0,0.0,14885,7.752604166666667
8101,7.0,,,,,,,82.0,,,,,,0,note_on,,0.0,82.0,0.0,2558,1.3322916666666667
8102,11.0,,,,,,,65.0,,,,,,18,note_on,,0.0,65.0,0.0,24252,12.63125
8103,11.0,,,,,,,62.0,,,,,,2,note_on,,0.0,62.0,0.0,24254,12.632291666666667
8104,8.0,,,,,,,87.0,,,,,,67,note_on,,0.0,87.0,0.0,14952,7.7875
8105,3.0,,,,,,,77.0,,,,,,88,note_on,,0.0,77.0,0.0,52401,27.2921875
8106,9.0,,,,,,,70.0,,,,,,20,note_on,,0.0,70.0,0.0,90423,47.0953125
8107,9.0,,,,,,,42.0,,,,,,16,note_on,,0.0,42.0,0.0,90439,47.10364583333333
8108,8.0,,,,,,,87.0,,,,,,0,note_on,,45.0,87.0,45.0,14952,7.7875
8109,9.0,,,,,,,44.0,,,,,,0,note_on,,75.0,44.0,75.0,90439,47.10364583333333
8110,9.0,,,,,,,36.0,,,,,,0,note_on,,126.0,36.0,126.0,90439,47.10364583333333
8111,9.0,,,,,,,35.0,,,,,,0,note_on,,60.0,35.0,60.0,90439,47.10364583333333
8112,8.0,,,,,,,87.0,,,,,,112,note_on,,0.0,87.0,0.0,15064,7.845833333333333
8113,9.0,,,,,,,35.0,,,,,,112,note_on,,0.0,35.0,0.0,90551,47.16197916666667
8114,9.0,,,,,,,36.0,,,,,,0,note_on,,0.0,36.0,0.0,90551,47.16197916666667
8115,10.0,,,,,,,58.0,,,,,,10,note_on,,0.0,58.0,0.0,13605,7.0859375
8116,9.0,,,,,,,44.0,,,,,,6,note_on,,0.0,44.0,0.0,90557,47.165104166666666
8117,3.0,,,,,,,79.0,,,,,,0,note_on,,127.0,79.0,127.0,52401,27.2921875
8118,7.0,,,,,,,75.0,,,,,,0,note_on,,127.0,75.0,127.0,2558,1.3322916666666667
8119,8.0,,,,,,,63.0,,,,,,0,note_on,,127.0,63.0,127.0,15064,7.845833333333333
8120,9.0,,,,,,,42.0,,,,,,0,note_on,,85.0,42.0,85.0,90557,47.165104166666666
8121,9.0,,,,,,,70.0,,,,,,0,note_on,,40.0,70.0,40.0,90557,47.165104166666666
8122,9.0,,,,,,,39.0,,,,,,0,note_on,,125.0,39.0,125.0,90557,47.165104166666666
8123,9.0,,,,,,,28.0,,,,,,0,note_on,,127.0,28.0,127.0,90557,47.165104166666666
8124,12.0,,,,,,,62.0,,,,,,0,note_on,,127.0,62.0,127.0,20648,10.754166666666666
8125,12.0,,,,,,,58.0,,,,,,0,note_on,,127.0,58.0,127.0,20648,10.754166666666666
8126,12.0,,,,,,,65.0,,,,,,0,note_on,,127.0,65.0,127.0,20648,10.754166666666666
8127,,,,,,,,,,,,,youd ,0,lyrics,,,,,4663498120,2428905.2708333335
8128,10.0,,,,,,,65.0,,,,,,47,note_on,,0.0,65.0,0.0,13652,7.110416666666667
8129,10.0,,,,,,,62.0,,,,,,2,note_on,,0.0,62.0,0.0,13654,7.111458333333333
8130,9.0,,,,,,,28.0,,,,,,68,note_on,,0.0,28.0,0.0,90625,47.200520833333336
8131,9.0,,,,,,,39.0,,,,,,34,note_on,,0.0,39.0,0.0,90659,47.21822916666667
8132,9.0,,,,,,,42.0,,,,,,73,note_on,,0.0,42.0,0.0,90732,47.25625
8133,9.0,,,,,,,70.0,,,,,,0,note_on,,0.0,70.0,0.0,90732,47.25625
8134,9.0,,,,,,,44.0,,,,,,16,note_on,,75.0,44.0,75.0,90748,47.264583333333334
8135,12.0,,,,,,,58.0,,,,,,234,note_on,,0.0,58.0,0.0,20882,10.876041666666666
8136,9.0,,,,,,,44.0,,,,,,6,note_on,,0.0,44.0,0.0,90754,47.26770833333333
8137,8.0,,,,,,,87.0,,,,,,0,note_on,,45.0,87.0,45.0,15064,7.845833333333333
8138,9.0,,,,,,,42.0,,,,,,0,note_on,,85.0,42.0,85.0,90754,47.26770833333333
8139,9.0,,,,,,,70.0,,,,,,0,note_on,,40.0,70.0,40.0,90754,47.26770833333333
8140,9.0,,,,,,,36.0,,,,,,0,note_on,,126.0,36.0,126.0,90754,47.26770833333333
8141,9.0,,,,,,,35.0,,,,,,0,note_on,,60.0,35.0,60.0,90754,47.26770833333333
8142,7.0,,,,,,,75.0,,,,,,37,note_on,,0.0,75.0,0.0,2595,1.3515625
8143,8.0,,,,,,,63.0,,,,,,0,note_on,,0.0,63.0,0.0,15064,7.845833333333333
8144,12.0,,,,,,,65.0,,,,,,10,note_on,,0.0,65.0,0.0,20892,10.88125
8145,12.0,,,,,,,62.0,,,,,,2,note_on,,0.0,62.0,0.0,20894,10.882291666666667
8146,8.0,,,,,,,87.0,,,,,,71,note_on,,0.0,87.0,0.0,15135,7.8828125
8147,9.0,,,,,,,36.0,,,,,,46,note_on,,0.0,36.0,0.0,90800,47.291666666666664
8148,9.0,,,,,,,35.0,,,,,,0,note_on,,0.0,35.0,0.0,90800,47.291666666666664
8149,3.0,,,,,,,79.0,,,,,,7,note_on,,0.0,79.0,0.0,52408,27.295833333333334
8150,9.0,,,,,,,70.0,,,,,,51,note_on,,0.0,70.0,0.0,90851,47.31822916666667
8151,9.0,,,,,,,42.0,,,,,,16,note_on,,0.0,42.0,0.0,90867,47.3265625
8152,9.0,,,,,,,44.0,,,,,,0,note_on,,75.0,44.0,75.0,90867,47.3265625
8153,9.0,,,,,,,44.0,,,,,,240,note_on,,0.0,44.0,0.0,91107,47.4515625
8154,3.0,,,,,,,79.0,,,,,,0,note_on,,127.0,79.0,127.0,52408,27.295833333333334
8155,7.0,,,,,,,77.0,,,,,,0,note_on,,127.0,77.0,127.0,2595,1.3515625
8156,8.0,,,,,,,87.0,,,,,,0,note_on,,45.0,87.0,45.0,15135,7.8828125
8157,8.0,,,,,,,65.0,,,,,,0,note_on,,127.0,65.0,127.0,15135,7.8828125
8158,9.0,,,,,,,42.0,,,,,,0,note_on,,85.0,42.0,85.0,91107,47.4515625
8159,9.0,,,,,,,70.0,,,,,,0,note_on,,40.0,70.0,40.0,91107,47.4515625
8160,,,,,,,,,,,,,al ,0,lyrics,,,,,2314861393371607861,1205656975714379.2
8161,8.0,,,,,,,87.0,,,,,,123,note_on,,0.0,87.0,0.0,15258,7.9468749999999995
8162,3.0,,,,,,,79.0,,,,,,60,note_on,,0.0,79.0,0.0,52468,27.327083333333334
8163,9.0,,,,,,,42.0,,,,,,41,note_on,,0.0,42.0,0.0,91148,47.47291666666666
8164,9.0,,,,,,,70.0,,,,,,0,note_on,,0.0,70.0,0.0,91148,47.47291666666666
8165,9.0,,,,,,,44.0,,,,,,16,note_on,,75.0,44.0,75.0,91164,47.48125
8166,9.0,,,,,,,44.0,,,,,,240,note_on,,0.0,44.0,0.0,91404,47.60625
8167,3.0,,,,,,,79.0,,,,,,0,note_on,,127.0,79.0,127.0,52468,27.327083333333334
8168,8.0,,,,,,,87.0,,,,,,0,note_on,,45.0,87.0,45.0,15258,7.9468749999999995
8169,9.0,,,,,,,42.0,,,,,,0,note_on,,85.0,42.0,85.0,91404,47.60625
8170,9.0,,,,,,,70.0,,,,,,0,note_on,,40.0,70.0,40.0,91404,47.60625
8171,9.0,,,,,,,36.0,,,,,,0,note_on,,126.0,36.0,126.0,91404,47.60625
8172,9.0,,,,,,,35.0,,,,,,0,note_on,,60.0,35.0,60.0,91404,47.60625
8173,,,,,,,,,,,,,ways ,0,lyrics,,,,,7935940815730253856,4133302508192840.5
8174,7.0,,,,,,,77.0,,,,,,97,note_on,,0.0,77.0,0.0,2692,1.4020833333333333
8175,8.0,,,,,,,65.0,,,,,,0,note_on,,0.0,65.0,0.0,15258,7.9468749999999995
8176,8.0,,,,,,,87.0,,,,,,30,note_on,,0.0,87.0,0.0,15288,7.9624999999999995
8177,9.0,,,,,,,35.0,,,,,,27,note_on,,0.0,35.0,0.0,91431,47.6203125
8178,9.0,,,,,,,36.0,,,,,,0,note_on,,0.0,36.0,0.0,91431,47.6203125
8179,9.0,,,,,,,70.0,,,,,,70,note_on,,0.0,70.0,0.0,91501,47.65677083333333
8180,9.0,,,,,,,42.0,,,,,,16,note_on,,0.0,42.0,0.0,91517,47.665104166666666
8181,9.0,,,,,,,44.0,,,,,,0,note_on,,75.0,44.0,75.0,91517,47.665104166666666
8182,9.0,,,,,,,44.0,,,,,,240,note_on,,0.0,44.0,0.0,91757,47.790104166666666
8183,7.0,,,,,,,75.0,,,,,,0,note_on,,127.0,75.0,127.0,2692,1.4020833333333333
8184,8.0,,,,,,,63.0,,,,,,0,note_on,,127.0,63.0,127.0,15288,7.9624999999999995
8185,9.0,,,,,,,42.0,,,,,,0,note_on,,85.0,42.0,85.0,91757,47.790104166666666
8186,9.0,,,,,,,70.0,,,,,,0,note_on,,40.0,70.0,40.0,91757,47.790104166666666
8187,9.0,,,,,,,39.0,,,,,,0,note_on,,127.0,39.0,127.0,91757,47.790104166666666
8188,9.0,,,,,,,28.0,,,,,,0,note_on,,127.0,28.0,127.0,91757,47.790104166666666
8189,11.0,,,,,,,62.0,,,,,,0,note_on,,127.0,62.0,127.0,24254,12.632291666666667
8190,11.0,,,,,,,67.0,,,,,,0,note_on,,127.0,67.0,127.0,24254,12.632291666666667
8191,11.0,,,,,,,58.0,,,,,,0,note_on,,127.0,58.0,127.0,24254,12.632291666666667
8192,9.0,,,,,,,39.0,,,,,,123,note_on,,0.0,39.0,0.0,91880,47.854166666666664
8193,9.0,,,,,,,28.0,,,,,,2,note_on,,0.0,28.0,0.0,91882,47.85520833333333
8194,7.0,,,,,,,75.0,,,,,,85,note_on,,0.0,75.0,0.0,2777,1.4463541666666666
8195,8.0,,,,,,,63.0,,,,,,0,note_on,,0.0,63.0,0.0,15288,7.9624999999999995
8196,9.0,,,,,,,42.0,,,,,,14,note_on,,0.0,42.0,0.0,91896,47.8625
8197,9.0,,,,,,,70.0,,,,,,0,note_on,,0.0,70.0,0.0,91896,47.8625
8198,9.0,,,,,,,44.0,,,,,,16,note_on,,75.0,44.0,75.0,91912,47.87083333333333
8199,3.0,,,,,,,79.0,,,,,,14,note_on,,0.0,79.0,0.0,52482,27.334374999999998
8200,11.0,,,,,,,67.0,,,,,,113,note_on,,0.0,67.0,0.0,24367,12.691145833333334
8201,11.0,,,,,,,58.0,,,,,,11,note_on,,0.0,58.0,0.0,24378,12.696875
8202,11.0,,,,,,,62.0,,,,,,36,note_on,,0.0,62.0,0.0,24414,12.715625
8203,9.0,,,,,,,44.0,,,,,,66,note_on,,0.0,44.0,0.0,91978,47.905208333333334
8204,3.0,,,,,,,79.0,,,,,,0,note_on,,127.0,79.0,127.0,52482,27.334374999999998
8205,7.0,,,,,,,77.0,,,,,,0,note_on,,127.0,77.0,127.0,2777,1.4463541666666666
8206,8.0,,,,,,,87.0,,,,,,0,note_on,,45.0,87.0,45.0,15288,7.9624999999999995
8207,8.0,,,,,,,65.0,,,,,,0,note_on,,127.0,65.0,127.0,15288,7.9624999999999995
8208,9.0,,,,,,,42.0,,,,,,0,note_on,,85.0,42.0,85.0,91978,47.905208333333334
8209,9.0,,,,,,,70.0,,,,,,0,note_on,,40.0,70.0,40.0,91978,47.905208333333334
8210,10.0,,,,,,,62.0,,,,,,0,note_on,,127.0,62.0,127.0,13654,7.111458333333333
8211,10.0,,,,,,,67.0,,,,,,0,note_on,,127.0,67.0,127.0,13654,7.111458333333333
8212,10.0,,,,,,,58.0,,,,,,0,note_on,,127.0,58.0,127.0,13654,7.111458333333333
8213,11.0,,,,,,,62.0,,,,,,0,note_on,,127.0,62.0,127.0,24414,12.715625
8214,11.0,,,,,,,58.0,,,,,,0,note_on,,118.0,58.0,118.0,24414,12.715625
8215,11.0,,,,,,,65.0,,,,,,0,note_on,,127.0,65.0,127.0,24414,12.715625
8216,,,,,,,,,,,,,be ,0,lyrics,,,,,3828123602670414945,1993814376390841.0
8217,8.0,,,,,,,87.0,,,,,,127,note_on,,0.0,87.0,0.0,15415,8.028645833333334
8218,7.0,,,,,,,77.0,,,,,,60,note_on,,0.0,77.0,0.0,2837,1.4776041666666666
8219,8.0,,,,,,,65.0,,,,,,0,note_on,,0.0,65.0,0.0,15415,8.028645833333334
8220,9.0,,,,,,,70.0,,,,,,37,note_on,,0.0,70.0,0.0,92015,47.924479166666664
8221,9.0,,,,,,,42.0,,,,,,16,note_on,,0.0,42.0,0.0,92031,47.9328125
8222,9.0,,,,,,,44.0,,,,,,0,note_on,,75.0,44.0,75.0,92031,47.9328125
8223,10.0,,,,,,,67.0,,,,,,127,note_on,,0.0,67.0,0.0,13781,7.177604166666667
8224,10.0,,,,,,,58.0,,,,,,11,note_on,,0.0,58.0,0.0,13792,7.183333333333334
8225,11.0,,,,,,,58.0,,,,,,7,note_on,,0.0,58.0,0.0,24421,12.719270833333333
8226,11.0,,,,,,,65.0,,,,,,23,note_on,,0.0,65.0,0.0,24444,12.73125
8227,10.0,,,,,,,62.0,,,,,,6,note_on,,0.0,62.0,0.0,13798,7.186458333333333
8228,11.0,,,,,,,62.0,,,,,,13,note_on,,0.0,62.0,0.0,24457,12.738020833333334
8229,9.0,,,,,,,44.0,,,,,,53,note_on,,0.0,44.0,0.0,92084,47.96041666666667
8230,3.0,,,,,,,79.0,,,,,,0,note_on,,0.0,79.0,0.0,52482,27.334374999999998
8231,3.0,,,,,,,77.0,,,,,,0,note_on,,127.0,77.0,127.0,52482,27.334374999999998
8232,7.0,,,,,,,82.0,,,,,,0,note_on,,127.0,82.0,127.0,2837,1.4776041666666666
8233,8.0,,,,,,,87.0,,,,,,0,note_on,,45.0,87.0,45.0,15415,8.028645833333334
8234,8.0,,,,,,,70.0,,,,,,0,note_on,,127.0,70.0,127.0,15415,8.028645833333334
8235,9.0,,,,,,,42.0,,,,,,0,note_on,,85.0,42.0,85.0,92084,47.96041666666667
8236,9.0,,,,,,,70.0,,,,,,0,note_on,,40.0,70.0,40.0,92084,47.96041666666667
8237,9.0,,,,,,,36.0,,,,,,0,note_on,,126.0,36.0,126.0,92084,47.96041666666667
8238,9.0,,,,,,,35.0,,,,,,0,note_on,,60.0,35.0,60.0,92084,47.96041666666667
8239,10.0,,,,,,,62.0,,,,,,0,note_on,,127.0,62.0,127.0,13798,7.186458333333333
8240,10.0,,,,,,,58.0,,,,,,0,note_on,,118.0,58.0,118.0,13798,7.186458333333333
8241,10.0,,,,,,,65.0,,,,,,0,note_on,,127.0,65.0,127.0,13798,7.186458333333333
8242,12.0,,,,,,,62.0,,,,,,0,note_on,,127.0,62.0,127.0,20894,10.882291666666667
8243,12.0,,,,,,,67.0,,,,,,0,note_on,,127.0,67.0,127.0,20894,10.882291666666667
8244,12.0,,,,,,,58.0,,,,,,0,note_on,,127.0,58.0,127.0,20894,10.882291666666667
8245,,,,,,,,,,,,,mi ,0,lyrics,,,,,7957404692577919008,4144481610717666.0
8246,8.0,,,,,,,87.0,,,,,,135,note_on,,0.0,87.0,0.0,15550,8.098958333333334
8247,9.0,,,,,,,35.0,,,,,,37,note_on,,0.0,35.0,0.0,92121,47.9796875
8248,9.0,,,,,,,36.0,,,,,,0,note_on,,0.0,36.0,0.0,92121,47.9796875
8249,9.0,,,,,,,42.0,,,,,,52,note_on,,0.0,42.0,0.0,92173,48.006770833333334
8250,9.0,,,,,,,70.0,,,,,,0,note_on,,0.0,70.0,0.0,92173,48.006770833333334
8251,9.0,,,,,,,44.0,,,,,,16,note_on,,75.0,44.0,75.0,92189,48.01510416666667
8252,12.0,,,,,,,67.0,,,,,,127,note_on,,0.0,67.0,0.0,21021,10.9484375
8253,12.0,,,,,,,58.0,,,,,,11,note_on,,0.0,58.0,0.0,21032,10.954166666666666
8254,10.0,,,,,,,58.0,,,,,,7,note_on,,0.0,58.0,0.0,13805,7.190104166666667
8255,10.0,,,,,,,65.0,,,,,,23,note_on,,0.0,65.0,0.0,13828,7.202083333333333
8256,12.0,,,,,,,62.0,,,,,,6,note_on,,0.0,62.0,0.0,21038,10.957291666666666
8257,10.0,,,,,,,62.0,,,,,,13,note_on,,0.0,62.0,0.0,13841,7.208854166666667
8258,9.0,,,,,,,44.0,,,,,,53,note_on,,0.0,44.0,0.0,92242,48.04270833333333
8259,9.0,,,,,,,42.0,,,,,,0,note_on,,85.0,42.0,85.0,92242,48.04270833333333
8260,9.0,,,,,,,70.0,,,,,,0,note_on,,40.0,70.0,40.0,92242,48.04270833333333
8261,12.0,,,,,,,62.0,,,,,,0,note_on,,127.0,62.0,127.0,21038,10.957291666666666
8262,12.0,,,,,,,58.0,,,,,,0,note_on,,118.0,58.0,118.0,21038,10.957291666666666
8263,12.0,,,,,,,65.0,,,,,,0,note_on,,127.0,65.0,127.0,21038,10.957291666666666
8264,8.0,,,,,,,70.0,,,,,,85,note_on,,0.0,70.0,0.0,15635,8.143229166666666
8265,7.0,,,,,,,82.0,,,,,,0,note_on,,0.0,82.0,0.0,2837,1.4776041666666666
8266,3.0,,,,,,,77.0,,,,,,138,note_on,,0.0,77.0,0.0,52620,27.40625
8267,9.0,,,,,,,70.0,,,,,,1,note_on,,0.0,70.0,0.0,92243,48.04322916666666
8268,9.0,,,,,,,42.0,,,,,,16,note_on,,0.0,42.0,0.0,92259,48.0515625
8269,8.0,,,,,,,87.0,,,,,,0,note_on,,45.0,87.0,45.0,15635,8.143229166666666
8270,9.0,,,,,,,44.0,,,,,,0,note_on,,75.0,44.0,75.0,92259,48.0515625
8271,9.0,,,,,,,36.0,,,,,,0,note_on,,126.0,36.0,126.0,92259,48.0515625
8272,9.0,,,,,,,35.0,,,,,,0,note_on,,60.0,35.0,60.0,92259,48.0515625
8273,8.0,,,,,,,87.0,,,,,,123,note_on,,0.0,87.0,0.0,15758,8.207291666666666
8274,12.0,,,,,,,58.0,,,,,,22,note_on,,0.0,58.0,0.0,21060,10.96875
8275,12.0,,,,,,,65.0,,,,,,23,note_on,,0.0,65.0,0.0,21083,10.980729166666666
8276,12.0,,,,,,,62.0,,,,,,19,note_on,,0.0,62.0,0.0,21102,10.990625
8277,9.0,,,,,,,36.0,,,,,,37,note_on,,0.0,36.0,0.0,92296,48.07083333333333
8278,9.0,,,,,,,35.0,,,,,,0,note_on,,0.0,35.0,0.0,92296,48.07083333333333
8279,9.0,,,,,,,44.0,,,,,,16,note_on,,0.0,44.0,0.0,92312,48.079166666666666
8280,3.0,,,,,,,77.0,,,,,,0,note_on,,127.0,77.0,127.0,52620,27.40625
8281,7.0,,,,,,,75.0,,,,,,0,note_on,,127.0,75.0,127.0,2837,1.4776041666666666
8282,8.0,,,,,,,63.0,,,,,,0,note_on,,127.0,63.0,127.0,15758,8.207291666666666
8283,9.0,,,,,,,42.0,,,,,,0,note_on,,85.0,42.0,85.0,92312,48.079166666666666
8284,9.0,,,,,,,70.0,,,,,,0,note_on,,40.0,70.0,40.0,92312,48.079166666666666
8285,9.0,,,,,,,39.0,,,,,,0,note_on,,125.0,39.0,125.0,92312,48.079166666666666
8286,9.0,,,,,,,28.0,,,,,,0,note_on,,127.0,28.0,127.0,92312,48.079166666666666
8287,11.0,,,,,,,63.0,,,,,,0,note_on,,100.0,63.0,100.0,24457,12.738020833333334
8288,11.0,,,,,,,56.0,,,,,,0,note_on,,127.0,56.0,127.0,24457,12.738020833333334
8289,11.0,,,,,,,62.0,,,,,,0,note_on,,126.0,62.0,126.0,24457,12.738020833333334
8290,11.0,,,,,,,53.0,,,,,,0,note_on,,127.0,53.0,127.0,24457,12.738020833333334
8291,11.0,,,,,,,58.0,,,,,,0,note_on,,127.0,58.0,127.0,24457,12.738020833333334
8292,,,,,,,,,,,,,ne ,0,lyrics,,,,,8029392707021447200,4181975368240337.0
8293,9.0,,,,,,,28.0,,,,,,117,note_on,,0.0,28.0,0.0,92429,48.14010416666667
8294,9.0,,,,,,,39.0,,,,,,34,note_on,,0.0,39.0,0.0,92463,48.1578125
8295,9.0,,,,,,,70.0,,,,,,73,note_on,,0.0,70.0,0.0,92536,48.19583333333333
8296,9.0,,,,,,,42.0,,,,,,0,note_on,,0.0,42.0,0.0,92536,48.19583333333333
8297,9.0,,,,,,,44.0,,,,,,16,note_on,,75.0,44.0,75.0,92552,48.204166666666666
8298,3.0,,,,,,,77.0,,,,,,180,note_on,,0.0,77.0,0.0,52800,27.5
8299,9.0,,,,,,,44.0,,,,,,60,note_on,,0.0,44.0,0.0,92612,48.235416666666666
8300,3.0,,,,,,,75.0,,,,,,0,note_on,,127.0,75.0,127.0,52800,27.5
8301,8.0,,,,,,,87.0,,,,,,0,note_on,,45.0,87.0,45.0,15758,8.207291666666666
8302,9.0,,,,,,,42.0,,,,,,0,note_on,,85.0,42.0,85.0,92612,48.235416666666666
8303,9.0,,,,,,,70.0,,,,,,0,note_on,,40.0,70.0,40.0,92612,48.235416666666666
8304,9.0,,,,,,,36.0,,,,,,0,note_on,,126.0,36.0,126.0,92612,48.235416666666666
8305,9.0,,,,,,,35.0,,,,,,0,note_on,,60.0,35.0,60.0,92612,48.235416666666666
8306,10.0,,,,,,,63.0,,,,,,0,note_on,,100.0,63.0,100.0,13841,7.208854166666667
8307,10.0,,,,,,,56.0,,,,,,0,note_on,,127.0,56.0,127.0,13841,7.208854166666667
8308,10.0,,,,,,,62.0,,,,,,0,note_on,,126.0,62.0,126.0,13841,7.208854166666667
8309,10.0,,,,,,,53.0,,,,,,0,note_on,,127.0,53.0,127.0,13841,7.208854166666667
8310,10.0,,,,,,,58.0,,,,,,0,note_on,,127.0,58.0,127.0,13841,7.208854166666667
8311,,,,,,,,,,,,,mine ,0,lyrics,,,,,8385532581947253280,4367464886430861.5
8312,8.0,,,,,,,63.0,,,,,,99,note_on,,0.0,63.0,0.0,15857,8.258854166666666
8313,7.0,,,,,,,75.0,,,,,,0,note_on,,0.0,75.0,0.0,2837,1.4776041666666666
8314,8.0,,,,,,,87.0,,,,,,21,note_on,,0.0,87.0,0.0,15878,8.269791666666666
8315,9.0,,,,,,,35.0,,,,,,46,note_on,,0.0,35.0,0.0,92658,48.259375
8316,9.0,,,,,,,36.0,,,,,,0,note_on,,0.0,36.0,0.0,92658,48.259375
8317,9.0,,,,,,,70.0,,,,,,58,note_on,,0.0,70.0,0.0,92716,48.28958333333333
8318,9.0,,,,,,,42.0,,,,,,16,note_on,,0.0,42.0,0.0,92732,48.297916666666666
8319,9.0,,,,,,,44.0,,,,,,0,note_on,,75.0,44.0,75.0,92732,48.297916666666666
8320,9.0,,,,,,,44.0,,,,,,240,note_on,,0.0,44.0,0.0,92972,48.422916666666666
8321,7.0,,,,,,,77.0,,,,,,0,note_on,,127.0,77.0,127.0,2837,1.4776041666666666
8322,8.0,,,,,,,65.0,,,,,,0,note_on,,127.0,65.0,127.0,15878,8.269791666666666
8323,9.0,,,,,,,42.0,,,,,,0,note_on,,85.0,42.0,85.0,92972,48.422916666666666
8324,9.0,,,,,,,70.0,,,,,,0,note_on,,40.0,70.0,40.0,92972,48.422916666666666
8325,12.0,,,,,,,63.0,,,,,,0,note_on,,100.0,63.0,100.0,21102,10.990625
8326,12.0,,,,,,,56.0,,,,,,0,note_on,,127.0,56.0,127.0,21102,10.990625
8327,12.0,,,,,,,62.0,,,,,,0,note_on,,126.0,62.0,126.0,21102,10.990625
8328,12.0,,,,,,,53.0,,,,,,0,note_on,,127.0,53.0,127.0,21102,10.990625
8329,12.0,,,,,,,58.0,,,,,,0,note_on,,127.0,58.0,127.0,21102,10.990625
8330,9.0,,,,,,,70.0,,,,,,224,note_on,,0.0,70.0,0.0,93196,48.53958333333333
8331,8.0,,,,,,,65.0,,,,,,2,note_on,,0.0,65.0,0.0,15880,8.270833333333334
8332,7.0,,,,,,,77.0,,,,,,0,note_on,,0.0,77.0,0.0,2837,1.4776041666666666
8333,8.0,,,,,,,87.0,,,,,,14,note_on,,45.0,87.0,45.0,15894,8.278125
8334,9.0,,,,,,,44.0,,,,,,0,note_on,,75.0,44.0,75.0,93196,48.53958333333333
8335,3.0,,,,,,,75.0,,,,,,42,note_on,,0.0,75.0,0.0,52842,27.521874999999998
8336,8.0,,,,,,,87.0,,,,,,53,note_on,,0.0,87.0,0.0,15947,8.305729166666666
8337,9.0,,,,,,,44.0,,,,,,145,note_on,,0.0,44.0,0.0,93341,48.61510416666667
8338,11.0,,,,,,,63.0,,,,,,0,note_on,,0.0,63.0,0.0,24457,12.738020833333334
8339,7.0,,,,,,,75.0,,,,,,0,note_on,,127.0,75.0,127.0,2837,1.4776041666666666
8340,8.0,,,,,,,63.0,,,,,,0,note_on,,127.0,63.0,127.0,15947,8.305729166666666
8341,9.0,,,,,,,42.0,,,,,,0,note_on,,85.0,42.0,85.0,93341,48.61510416666667
8342,9.0,,,,,,,70.0,,,,,,0,note_on,,40.0,70.0,40.0,93341,48.61510416666667
8343,9.0,,,,,,,36.0,,,,,,0,note_on,,126.0,36.0,126.0,93341,48.61510416666667
8344,9.0,,,,,,,35.0,,,,,,0,note_on,,60.0,35.0,60.0,93341,48.61510416666667
8345,11.0,,,,,,,63.0,,,,,,0,note_on,,127.0,63.0,127.0,24457,12.738020833333334
8346,9.0,,,,,,,35.0,,,,,,154,note_on,,0.0,35.0,0.0,93495,48.6953125
8347,9.0,,,,,,,36.0,,,,,,0,note_on,,0.0,36.0,0.0,93495,48.6953125
8348,8.0,,,,,,,63.0,,,,,,59,note_on,,0.0,63.0,0.0,16006,8.336458333333333
8349,7.0,,,,,,,75.0,,,,,,0,note_on,,0.0,75.0,0.0,2837,1.4776041666666666
8350,9.0,,,,,,,70.0,,,,,,11,note_on,,0.0,70.0,0.0,93506,48.70104166666667
8351,9.0,,,,,,,42.0,,,,,,16,note_on,,0.0,42.0,0.0,93522,48.709375
8352,9.0,,,,,,,44.0,,,,,,0,note_on,,75.0,44.0,75.0,93522,48.709375
8353,1.0,,,,,,,34.0,,,,,,120,note_on,,0.0,34.0,0.0,4521,2.3546875
8354,1.0,,,,,,,,,-361.0,,,,69,pitchwheel,,,,,4590,2.390625
8355,1.0,,,,,,,,,-979.0,,,,10,pitchwheel,,,,,4600,2.3958333333333335
8356,1.0,,,,,,,,,-1623.0,,,,8,pitchwheel,,,,,4608,2.4
8357,1.0,,,,,,,,,-2061.0,,,,7,pitchwheel,,,,,4615,2.4036458333333335
8358,1.0,,,,,,,,,-2525.0,,,,8,pitchwheel,,,,,4623,2.4078125
8359,1.0,,,,,,,,,-3375.0,,,,10,pitchwheel,,,,,4633,2.4130208333333334
8360,9.0,,,,,,,44.0,,,,,,8,note_on,,0.0,44.0,0.0,93530,48.713541666666664
8361,10.0,,,,,,,63.0,,,,,,0,note_on,,0.0,63.0,0.0,13841,7.208854166666667
8362,7.0,,,,,,,77.0,,,,,,0,note_on,,127.0,77.0,127.0,2837,1.4776041666666666
8363,8.0,,,,,,,87.0,,,,,,0,note_on,,45.0,87.0,45.0,16006,8.336458333333333
8364,8.0,,,,,,,65.0,,,,,,0,note_on,,127.0,65.0,127.0,16006,8.336458333333333
8365,9.0,,,,,,,42.0,,,,,,0,note_on,,85.0,42.0,85.0,93530,48.713541666666664
8366,9.0,,,,,,,70.0,,,,,,0,note_on,,40.0,70.0,40.0,93530,48.713541666666664
8367,9.0,,,,,,,39.0,,,,,,0,note_on,,127.0,39.0,127.0,93530,48.713541666666664
8368,9.0,,,,,,,28.0,,,,,,0,note_on,,127.0,28.0,127.0,93530,48.713541666666664
8369,10.0,,,,,,,63.0,,,,,,0,note_on,,127.0,63.0,127.0,13841,7.208854166666667
8370,1.0,,,,,,,,,-3813.0,,,,1,pitchwheel,,,,,4634,2.4135416666666667
8371,1.0,,,,,,,22.0,,,,,,0,note_on,,127.0,22.0,127.0,4634,2.4135416666666667
8372,1.0,,,,,,,,,-4354.0,,,,8,pitchwheel,,,,,4642,2.417708333333333
8373,1.0,,,,,,,,,-5050.0,,,,10,pitchwheel,,,,,4652,2.4229166666666666
8374,1.0,,,,,,,,,-5719.0,,,,9,pitchwheel,,,,,4661,2.427604166666667
8375,1.0,,,,,,,,,-6673.0,,,,14,pitchwheel,,,,,4675,2.4348958333333335
8376,1.0,,,,,,,,,-7033.0,,,,11,pitchwheel,,,,,4686,2.440625
8377,8.0,,,,,,,87.0,,,,,,4,note_on,,0.0,87.0,0.0,16010,8.338541666666666
8378,1.0,,,,,,,,,-7652.0,,,,6,pitchwheel,,,,,4692,2.44375
8379,1.0,,,,,,,,,-8167.0,,,,8,pitchwheel,,,,,4700,2.4479166666666665
8380,1.0,,,,,,,,,-8192.0,,,,9,pitchwheel,,,,,4709,2.4526041666666667
8381,9.0,,,,,,,39.0,,,,,,43,note_on,,0.0,39.0,0.0,93573,48.7359375
8382,9.0,,,,,,,28.0,,,,,,2,note_on,,0.0,28.0,0.0,93575,48.736979166666664
8383,1.0,,,,,,,,,-7806.0,,,,52,pitchwheel,,,,,4761,2.4796875
8384,7.0,,,,,,,77.0,,,,,,9,note_on,,0.0,77.0,0.0,2846,1.4822916666666666
8385,8.0,,,,,,,65.0,,,,,,0,note_on,,0.0,65.0,0.0,16010,8.338541666666666
8386,1.0,,,,,,,,,-6930.0,,,,0,pitchwheel,,,,,4761,2.4796875
8387,1.0,,,,,,,,,-5153.0,,,,8,pitchwheel,,,,,4769,2.4838541666666667
8388,1.0,,,,,,,,,-2911.0,,,,8,pitchwheel,,,,,4777,2.488020833333333
8389,1.0,,,,,,,,,-129.0,,,,9,pitchwheel,,,,,4786,2.4927083333333333
8390,1.0,,,,,,,,,643.0,,,,8,pitchwheel,,,,,4794,2.496875
8391,9.0,,,,,,,42.0,,,,,,5,note_on,,0.0,42.0,0.0,93580,48.739583333333336
8392,9.0,,,,,,,70.0,,,,,,0,note_on,,0.0,70.0,0.0,93580,48.739583333333336
8393,1.0,,,,,,,,,1545.0,,,,3,pitchwheel,,,,,4797,2.4984375
8394,1.0,,,,,,,,,721.0,,,,9,pitchwheel,,,,,4806,2.503125
8395,9.0,,,,,,,42.0,,,,,,4,note_on,,0.0,42.0,0.0,93584,48.74166666666667
8396,9.0,,,,,,,44.0,,,,,,0,note_on,,75.0,44.0,75.0,93584,48.74166666666667
8397,1.0,,,,,,,,,0.0,,,,4,pitchwheel,,,,,4810,2.5052083333333335
8398,12.0,,,,,,,63.0,,,,,,236,note_on,,0.0,63.0,0.0,21338,11.113541666666666
8399,9.0,,,,,,,44.0,,,,,,0,note_on,,0.0,44.0,0.0,93584,48.74166666666667
8400,7.0,,,,,,,82.0,,,,,,0,note_on,,127.0,82.0,127.0,2846,1.4822916666666666
8401,8.0,,,,,,,70.0,,,,,,0,note_on,,127.0,70.0,127.0,16010,8.338541666666666
8402,9.0,,,,,,,42.0,,,,,,0,note_on,,85.0,42.0,85.0,93584,48.74166666666667
8403,9.0,,,,,,,61.0,,,,,,0,note_on,,100.0,61.0,100.0,93584,48.74166666666667
8404,9.0,,,,,,,70.0,,,,,,0,note_on,,40.0,70.0,40.0,93584,48.74166666666667
8405,12.0,,,,,,,63.0,,,,,,0,note_on,,127.0,63.0,127.0,21338,11.113541666666666
8406,9.0,,,,,,,61.0,,,,,,114,note_on,,0.0,61.0,0.0,93698,48.80104166666666
8407,9.0,,,,,,,61.0,,,,,,6,note_on,,100.0,61.0,100.0,93704,48.80416666666667
8408,5.0,,,,,,,53.0,,,,,,5,note_on,,0.0,53.0,0.0,1598,0.8322916666666667
8409,8.0,,,,,,,46.0,,,,,,44,note_on,,0.0,46.0,0.0,16054,8.361458333333333
8410,5.0,,,,,,,58.0,,,,,,24,note_on,,0.0,58.0,0.0,1622,0.8447916666666666
8411,9.0,,,,,,,70.0,,,,,,31,note_on,,0.0,70.0,0.0,93735,48.8203125
8412,11.0,,,,,,,56.0,,,,,,9,note_on,,0.0,56.0,0.0,24466,12.742708333333333
8413,9.0,,,,,,,61.0,,,,,,1,note_on,,0.0,61.0,0.0,93736,48.82083333333333
8414,5.0,,,,,,,62.0,,,,,,1,note_on,,0.0,62.0,0.0,1623,0.8453125
8415,11.0,,,,,,,62.0,,,,,,2,note_on,,0.0,62.0,0.0,24468,12.74375
8416,9.0,,,,,,,42.0,,,,,,3,note_on,,0.0,42.0,0.0,93739,48.82239583333333
8417,9.0,,,,,,,44.0,,,,,,0,note_on,,75.0,44.0,75.0,93739,48.82239583333333
8418,9.0,,,,,,,61.0,,,,,,0,note_on,,100.0,61.0,100.0,93739,48.82239583333333
8419,7.0,,,,,,,82.0,,,,,,112,note_on,,0.0,82.0,0.0,2958,1.540625
8420,8.0,,,,,,,70.0,,,,,,0,note_on,,0.0,70.0,0.0,16054,8.361458333333333
8421,9.0,,,,,,,61.0,,,,,,2,note_on,,0.0,61.0,0.0,93741,48.8234375
8422,9.0,,,,,,,61.0,,,,,,6,note_on,,100.0,61.0,100.0,93747,48.8265625
8423,5.0,,,,,,,58.0,,,,,,35,note_on,,103.0,58.0,103.0,1658,0.8635416666666667
8424,5.0,,,,,,,55.0,,,,,,24,note_on,,82.0,55.0,82.0,1682,0.8760416666666666
8425,5.0,,,,,,,63.0,,,,,,4,note_on,,123.0,63.0,123.0,1686,0.8781249999999999
8426,11.0,,,,,,,53.0,,,,,,15,note_on,,0.0,53.0,0.0,24483,12.7515625
8427,11.0,,,,,,,58.0,,,,,,31,note_on,,0.0,58.0,0.0,24514,12.767708333333333
8428,1.0,,,,,,,22.0,,,,,,4,note_on,,0.0,22.0,0.0,4814,2.5072916666666667
8429,9.0,,,,,,,61.0,,,,,,1,note_on,,0.0,61.0,0.0,93748,48.827083333333334
8430,11.0,,0.0,,,,,,,,,,,4,control_change,121.0,,,,24518,12.769791666666666
8431,11.0,,0.0,,,,,,,,,,,0,control_change,121.0,,,,24518,12.769791666666666
8432,11.0,,32.0,,,,,,,,,,,1,control_change,0.0,,,,24519,12.7703125
8433,11.0,,32.0,,,,,,,,,,,0,control_change,0.0,,,,24519,12.7703125
8434,9.0,,,,,,,44.0,,,,,,1,note_on,,0.0,44.0,0.0,93749,48.82760416666667
8435,1.0,,,,,,,27.0,,,,,,0,note_on,,127.0,27.0,127.0,4814,2.5072916666666667
8436,7.0,,,,,,,82.0,,,,,,0,note_on,,127.0,82.0,127.0,2958,1.540625
8437,8.0,,,,,,,39.0,,,,,,0,note_on,,115.0,39.0,115.0,16054,8.361458333333333
8438,8.0,,,,,,,87.0,,,,,,0,note_on,,45.0,87.0,45.0,16054,8.361458333333333
8439,8.0,,,,,,,70.0,,,,,,0,note_on,,127.0,70.0,127.0,16054,8.361458333333333
8440,9.0,,,,,,,57.0,,,,,,0,note_on,,100.0,57.0,100.0,93749,48.82760416666667
8441,9.0,,,,,,,42.0,,,,,,0,note_on,,85.0,42.0,85.0,93749,48.82760416666667
8442,9.0,,,,,,,70.0,,,,,,0,note_on,,40.0,70.0,40.0,93749,48.82760416666667
8443,9.0,,,,,,,36.0,,,,,,0,note_on,,126.0,36.0,126.0,93749,48.82760416666667
8444,9.0,,,,,,,35.0,,,,,,0,note_on,,60.0,35.0,60.0,93749,48.82760416666667
8445,11.0,,,,,,,67.0,,,,,,0,note_on,,127.0,67.0,127.0,24519,12.7703125
8446,11.0,,,,,,,63.0,,,,,,0,note_on,,127.0,63.0,127.0,24519,12.7703125
8447,11.0,,,,,,,70.0,,,,,,0,note_on,,126.0,70.0,126.0,24519,12.7703125
8448,3.0,,,,,,,79.0,,,,,,0,note_on,,127.0,79.0,127.0,52842,27.521874999999998
8449,11.0,,,,,,,,,,24.0,,,0,program_change,,,,,24519,12.7703125
8450,,,,,,,,,,,,,Ba ,0,lyrics,,,,,3833177030232449082,1996446369912733.8
8451,11.0,,,,,,,63.0,,,,,,15,note_on,,0.0,63.0,0.0,24534,12.778125
8452,9.0,,,,,,,57.0,,,,,,99,note_on,,0.0,57.0,0.0,93848,48.87916666666666
8453,8.0,,,,,,,87.0,,,,,,8,note_on,,0.0,87.0,0.0,16062,8.365625
8454,9.0,,,,,,,35.0,,,,,,50,note_on,,0.0,35.0,0.0,93898,48.905208333333334
8455,9.0,,,,,,,36.0,,,,,,0,note_on,,0.0,36.0,0.0,93898,48.905208333333334
8456,9.0,,,,,,,42.0,,,,,,52,note_on,,0.0,42.0,0.0,93950,48.932291666666664
8457,9.0,,,,,,,70.0,,,,,,0,note_on,,0.0,70.0,0.0,93950,48.932291666666664
8458,10.0,,,,,,,56.0,,,,,,9,note_on,,0.0,56.0,0.0,13850,7.213541666666667
8459,10.0,,,,,,,62.0,,,,,,4,note_on,,0.0,62.0,0.0,13854,7.215625
8460,9.0,,,,,,,44.0,,,,,,3,note_on,,75.0,44.0,75.0,93953,48.93385416666666
8461,11.0,,,,,,,63.0,,,,,,157,note_on,,0.0,63.0,0.0,24691,12.859895833333333
8462,11.0,,,,,,,67.0,,,,,,10,note_on,,0.0,67.0,0.0,24701,12.865104166666667
8463,10.0,,,,,,,53.0,,,,,,31,note_on,,0.0,53.0,0.0,13885,7.231770833333333
8464,11.0,,,,,,,70.0,,,,,,21,note_on,,0.0,70.0,0.0,24722,12.876041666666666
8465,10.0,,,,,,,58.0,,,,,,10,note_on,,0.0,58.0,0.0,13895,7.236979166666667
8466,7.0,,,,,,,82.0,,,,,,3,note_on,,0.0,82.0,0.0,2961,1.5421875
8467,8.0,,,,,,,70.0,,,,,,0,note_on,,0.0,70.0,0.0,16062,8.365625
8468,10.0,,0.0,,,,,,,,,,,6,control_change,121.0,,,,13901,7.240104166666667
8469,10.0,,0.0,,,,,,,,,,,0,control_change,121.0,,,,13901,7.240104166666667
8470,10.0,,32.0,,,,,,,,,,,1,control_change,0.0,,,,13902,7.240625
8471,10.0,,32.0,,,,,,,,,,,0,control_change,0.0,,,,13902,7.240625
8472,9.0,,,,,,,44.0,,,,,,1,note_on,,0.0,44.0,0.0,93954,48.934375
8473,9.0,,,,,,,42.0,,,,,,0,note_on,,85.0,42.0,85.0,93954,48.934375
8474,10.0,,,,,,,67.0,,,,,,0,note_on,,127.0,67.0,127.0,13902,7.240625
8475,10.0,,,,,,,63.0,,,,,,0,note_on,,127.0,63.0,127.0,13902,7.240625
8476,10.0,,,,,,,70.0,,,,,,0,note_on,,126.0,70.0,126.0,13902,7.240625
8477,8.0,,,,,,,87.0,,,,,,0,note_on,,45.0,87.0,45.0,16062,8.365625
8478,9.0,,,,,,,70.0,,,,,,0,note_on,,40.0,70.0,40.0,93954,48.934375
8479,10.0,,,,,,,,,,24.0,,,0,program_change,,,,,13902,7.240625
8480,10.0,,,,,,,63.0,,,,,,15,note_on,,0.0,63.0,0.0,13917,7.2484375
8481,8.0,,,,,,,87.0,,,,,,106,note_on,,0.0,87.0,0.0,16168,8.420833333333333
8482,3.0,,,,,,,79.0,,,,,,39,note_on,,0.0,79.0,0.0,52881,27.5421875
8483,9.0,,,,,,,70.0,,,,,,64,note_on,,0.0,70.0,0.0,94018,48.967708333333334
8484,12.0,,,,,,,56.0,,,,,,9,note_on,,0.0,56.0,0.0,21347,11.118229166666666
8485,12.0,,,,,,,62.0,,,,,,4,note_on,,0.0,62.0,0.0,21351,11.1203125
8486,9.0,,,,,,,42.0,,,,,,3,note_on,,0.0,42.0,0.0,94021,48.96927083333333
8487,8.0,,,,,,,87.0,,,,,,0,note_on,,45.0,87.0,45.0,16168,8.420833333333333
8488,9.0,,,,,,,44.0,,,,,,0,note_on,,75.0,44.0,75.0,94021,48.96927083333333
8489,9.0,,,,,,,36.0,,,,,,0,note_on,,126.0,36.0,126.0,94021,48.96927083333333
8490,9.0,,,,,,,35.0,,,,,,0,note_on,,60.0,35.0,60.0,94021,48.96927083333333
8491,8.0,,,,,,,87.0,,,,,,102,note_on,,0.0,87.0,0.0,16270,8.473958333333334
8492,10.0,,,,,,,63.0,,,,,,55,note_on,,0.0,63.0,0.0,13972,7.277083333333334
8493,10.0,,,,,,,67.0,,,,,,10,note_on,,0.0,67.0,0.0,13982,7.282291666666667
8494,12.0,,,,,,,53.0,,,,,,31,note_on,,0.0,53.0,0.0,21382,11.136458333333334
8495,10.0,,,,,,,70.0,,,,,,21,note_on,,0.0,70.0,0.0,14003,7.293229166666666
8496,9.0,,,,,,,36.0,,,,,,5,note_on,,0.0,36.0,0.0,94026,48.971875
8497,9.0,,,,,,,35.0,,,,,,0,note_on,,0.0,35.0,0.0,94026,48.971875
8498,12.0,,,,,,,58.0,,,,,,5,note_on,,0.0,58.0,0.0,21387,11.1390625
8499,12.0,,0.0,,,,,,,,,,,9,control_change,121.0,,,,21396,11.14375
8500,12.0,,32.0,,,,,,,,,,,1,control_change,0.0,,,,21397,11.144270833333334
8501,9.0,,,,,,,44.0,,,,,,1,note_on,,0.0,44.0,0.0,94027,48.97239583333333
8502,3.0,,,,,,,77.0,,,,,,0,note_on,,127.0,77.0,127.0,52881,27.5421875
8503,7.0,,,,,,,75.0,,,,,,0,note_on,,127.0,75.0,127.0,2961,1.5421875
8504,8.0,,,,,,,63.0,,,,,,0,note_on,,127.0,63.0,127.0,16270,8.473958333333334
8505,9.0,,,,,,,70.0,,,,,,0,note_on,,40.0,70.0,40.0,94027,48.97239583333333
8506,9.0,,,,,,,39.0,,,,,,0,note_on,,125.0,39.0,125.0,94027,48.97239583333333
8507,9.0,,,,,,,28.0,,,,,,0,note_on,,127.0,28.0,127.0,94027,48.97239583333333
8508,9.0,,,,,,,42.0,,,,,,0,note_on,,85.0,42.0,85.0,94027,48.97239583333333
8509,12.0,,,,,,,67.0,,,,,,0,note_on,,127.0,67.0,127.0,21397,11.144270833333334
8510,12.0,,,,,,,70.0,,,,,,0,note_on,,126.0,70.0,126.0,21397,11.144270833333334
8511,12.0,,0.0,,,,,,,,,,,0,control_change,121.0,,,,21397,11.144270833333334
8512,12.0,,32.0,,,,,,,,,,,0,control_change,0.0,,,,21397,11.144270833333334
8513,12.0,,,,,,,,,,24.0,,,0,program_change,,,,,21397,11.144270833333334
8514,12.0,,,,,,,63.0,,,,,,0,note_on,,127.0,63.0,127.0,21397,11.144270833333334
8515,,,,,,,,,,,,,"by, ",0,lyrics,,,,,8029392707021447200,4181975368240337.0
8516,12.0,,,,,,,63.0,,,,,,15,note_on,,0.0,63.0,0.0,21412,11.152083333333334
8517,9.0,,,,,,,28.0,,,,,,102,note_on,,0.0,28.0,0.0,94129,49.02552083333333
8518,9.0,,,,,,,39.0,,,,,,34,note_on,,0.0,39.0,0.0,94163,49.04322916666666
8519,9.0,,,,,,,42.0,,,,,,73,note_on,,0.0,42.0,0.0,94236,49.08125
8520,9.0,,,,,,,70.0,,,,,,0,note_on,,0.0,70.0,0.0,94236,49.08125
8521,8.0,,,,,,,87.0,,,,,,16,note_on,,45.0,87.0,45.0,16286,8.482291666666667
8522,9.0,,,,,,,44.0,,,,,,0,note_on,,75.0,44.0,75.0,94236,49.08125
8523,8.0,,,,,,,87.0,,,,,,114,note_on,,0.0,87.0,0.0,16400,8.541666666666666
8524,12.0,,,,,,,63.0,,,,,,43,note_on,,0.0,63.0,0.0,21455,11.174479166666666
8525,12.0,,,,,,,67.0,,,,,,10,note_on,,0.0,67.0,0.0,21465,11.1796875
8526,12.0,,,,,,,70.0,,,,,,52,note_on,,0.0,70.0,0.0,21517,11.206770833333334
8527,9.0,,,,,,,44.0,,,,,,21,note_on,,0.0,44.0,0.0,94257,49.0921875
8528,9.0,,,,,,,42.0,,,,,,0,note_on,,85.0,42.0,85.0,94257,49.0921875
8529,9.0,,,,,,,70.0,,,,,,0,note_on,,40.0,70.0,40.0,94257,49.0921875
8530,9.0,,,,,,,36.0,,,,,,0,note_on,,126.0,36.0,126.0,94257,49.0921875
8531,9.0,,,,,,,35.0,,,,,,0,note_on,,60.0,35.0,60.0,94257,49.0921875
8532,7.0,,,,,,,75.0,,,,,,9,note_on,,0.0,75.0,0.0,2970,1.546875
8533,8.0,,,,,,,63.0,,,,,,0,note_on,,0.0,63.0,0.0,16400,8.541666666666666
8534,3.0,,,,,,,77.0,,,,,,96,note_on,,0.0,77.0,0.0,52977,27.592187499999998
8535,9.0,,,,,,,36.0,,,,,,61,note_on,,0.0,36.0,0.0,94318,49.123958333333334
8536,9.0,,,,,,,35.0,,,,,,0,note_on,,0.0,35.0,0.0,94318,49.123958333333334
8537,9.0,,,,,,,70.0,,,,,,58,note_on,,0.0,70.0,0.0,94376,49.15416666666667
8538,9.0,,,,,,,42.0,,,,,,16,note_on,,0.0,42.0,0.0,94392,49.1625
8539,8.0,,,,,,,87.0,,,,,,0,note_on,,45.0,87.0,45.0,16400,8.541666666666666
8540,9.0,,,,,,,44.0,,,,,,0,note_on,,75.0,44.0,75.0,94392,49.1625
8541,8.0,,,,,,,87.0,,,,,,97,note_on,,0.0,87.0,0.0,16497,8.5921875
8542,9.0,,,,,,,44.0,,,,,,143,note_on,,0.0,44.0,0.0,94535,49.236979166666664
8543,3.0,,,,,,,79.0,,,,,,0,note_on,,127.0,79.0,127.0,52977,27.592187499999998
8544,7.0,,,,,,,77.0,,,,,,0,note_on,,127.0,77.0,127.0,2970,1.546875
8545,8.0,,,,,,,65.0,,,,,,0,note_on,,127.0,65.0,127.0,16497,8.5921875
8546,9.0,,,,,,,42.0,,,,,,0,note_on,,85.0,42.0,85.0,94535,49.236979166666664
8547,9.0,,,,,,,70.0,,,,,,0,note_on,,40.0,70.0,40.0,94535,49.236979166666664
8548,,,,,,,,,,,,,ba ,0,lyrics,,,,,2322206372590935909,1209482485724445.8
8549,9.0,,,,,,,70.0,,,,,,224,note_on,,0.0,70.0,0.0,94759,49.35364583333333
8550,9.0,,,,,,,42.0,,,,,,0,note_on,,0.0,42.0,0.0,94759,49.35364583333333
8551,8.0,,,,,,,87.0,,,,,,16,note_on,,45.0,87.0,45.0,16513,8.600520833333333
8552,9.0,,,,,,,44.0,,,,,,0,note_on,,75.0,44.0,75.0,94759,49.35364583333333
8553,8.0,,,,,,,87.0,,,,,,88,note_on,,0.0,87.0,0.0,16601,8.646354166666667
8554,9.0,,,,,,,44.0,,,,,,152,note_on,,0.0,44.0,0.0,94911,49.4328125
8555,9.0,,,,,,,42.0,,,,,,0,note_on,,85.0,42.0,85.0,94911,49.4328125
8556,9.0,,,,,,,70.0,,,,,,0,note_on,,40.0,70.0,40.0,94911,49.4328125
8557,9.0,,,,,,,36.0,,,,,,0,note_on,,126.0,36.0,126.0,94911,49.4328125
8558,9.0,,,,,,,35.0,,,,,,0,note_on,,60.0,35.0,60.0,94911,49.4328125
8559,8.0,,,,,,,65.0,,,,,,45,note_on,,0.0,65.0,0.0,16646,8.669791666666667
8560,7.0,,,,,,,77.0,,,,,,0,note_on,,0.0,77.0,0.0,2970,1.546875
8561,9.0,,,,,,,35.0,,,,,,109,note_on,,0.0,35.0,0.0,95020,49.489583333333336
8562,9.0,,,,,,,36.0,,,,,,0,note_on,,0.0,36.0,0.0,95020,49.489583333333336
8563,3.0,,,,,,,79.0,,,,,,42,note_on,,0.0,79.0,0.0,53019,27.6140625
8564,9.0,,,,,,,70.0,,,,,,28,note_on,,0.0,70.0,0.0,95048,49.50416666666666
8565,9.0,,,,,,,42.0,,,,,,16,note_on,,0.0,42.0,0.0,95064,49.5125
8566,9.0,,,,,,,44.0,,,,,,0,note_on,,75.0,44.0,75.0,95064,49.5125
8567,9.0,,,,,,,44.0,,,,,,240,note_on,,0.0,44.0,0.0,95304,49.6375
8568,3.0,,,,,,,77.0,,,,,,0,note_on,,127.0,77.0,127.0,53019,27.6140625
8569,7.0,,,,,,,70.0,,,,,,0,note_on,,127.0,70.0,127.0,2970,1.546875
8570,8.0,,,,,,,87.0,,,,,,0,note_on,,45.0,87.0,45.0,16646,8.669791666666667
8571,8.0,,,,,,,58.0,,,,,,0,note_on,,127.0,58.0,127.0,16646,8.669791666666667
8572,9.0,,,,,,,42.0,,,,,,0,note_on,,85.0,42.0,85.0,95304,49.6375
8573,9.0,,,,,,,70.0,,,,,,0,note_on,,40.0,70.0,40.0,95304,49.6375
8574,9.0,,,,,,,39.0,,,,,,0,note_on,,127.0,39.0,127.0,95304,49.6375
8575,9.0,,,,,,,28.0,,,,,,0,note_on,,127.0,28.0,127.0,95304,49.6375
8576,11.0,,,,,,,67.0,,,,,,0,note_on,,127.0,67.0,127.0,24722,12.876041666666666
8577,11.0,,,,,,,72.0,,,,,,0,note_on,,127.0,72.0,127.0,24722,12.876041666666666
8578,11.0,,,,,,,63.0,,,,,,0,note_on,,127.0,63.0,127.0,24722,12.876041666666666
8579,,,,,,,,,,,,,"by, ",0,lyrics,,,,,4189022124003057509,2181782356251592.5
8580,8.0,,,,,,,87.0,,,,,,103,note_on,,0.0,87.0,0.0,16749,8.7234375
8581,9.0,,,,,,,39.0,,,,,,20,note_on,,0.0,39.0,0.0,95324,49.64791666666667
8582,9.0,,,,,,,28.0,,,,,,2,note_on,,0.0,28.0,0.0,95326,49.64895833333333
8583,9.0,,,,,,,42.0,,,,,,99,note_on,,0.0,42.0,0.0,95425,49.700520833333336
8584,9.0,,,,,,,70.0,,,,,,0,note_on,,0.0,70.0,0.0,95425,49.700520833333336
8585,3.0,,,,,,,77.0,,,,,,7,note_on,,0.0,77.0,0.0,53026,27.617708333333333
8586,9.0,,,,,,,44.0,,,,,,9,note_on,,75.0,44.0,75.0,95434,49.70520833333333
8587,11.0,,,,,,,63.0,,,,,,125,note_on,,0.0,63.0,0.0,24847,12.941145833333334
8588,11.0,,,,,,,72.0,,,,,,15,note_on,,0.0,72.0,0.0,24862,12.948958333333334
8589,11.0,,,,,,,67.0,,,,,,8,note_on,,0.0,67.0,0.0,24870,12.953125
8590,9.0,,,,,,,44.0,,,,,,92,note_on,,0.0,44.0,0.0,95526,49.753125
8591,3.0,,,,,,,79.0,,,,,,0,note_on,,127.0,79.0,127.0,53026,27.617708333333333
8592,8.0,,,,,,,87.0,,,,,,0,note_on,,45.0,87.0,45.0,16749,8.7234375
8593,9.0,,,,,,,42.0,,,,,,0,note_on,,85.0,42.0,85.0,95526,49.753125
8594,9.0,,,,,,,70.0,,,,,,0,note_on,,40.0,70.0,40.0,95526,49.753125
8595,10.0,,,,,,,67.0,,,,,,0,note_on,,127.0,67.0,127.0,14003,7.293229166666666
8596,10.0,,,,,,,72.0,,,,,,0,note_on,,127.0,72.0,127.0,14003,7.293229166666666
8597,10.0,,,,,,,63.0,,,,,,0,note_on,,127.0,63.0,127.0,14003,7.293229166666666
8598,11.0,,,,,,,67.0,,,,,,0,note_on,,127.0,67.0,127.0,24870,12.953125
8599,11.0,,,,,,,70.0,,,,,,0,note_on,,118.0,70.0,118.0,24870,12.953125
8600,11.0,,,,,,,63.0,,,,,,0,note_on,,127.0,63.0,127.0,24870,12.953125
8601,,,,,,,,,,,,,ba ,0,lyrics,,,,,2459000718894309386,1280729541090786.0
8602,8.0,,,,,,,87.0,,,,,,113,note_on,,0.0,87.0,0.0,16862,8.782291666666666
8603,7.0,,,,,,,70.0,,,,,,17,note_on,,0.0,70.0,0.0,2987,1.5557291666666666
8604,8.0,,,,,,,58.0,,,,,,0,note_on,,0.0,58.0,0.0,16862,8.782291666666666
8605,9.0,,,,,,,70.0,,,,,,94,note_on,,0.0,70.0,0.0,95620,49.802083333333336
8606,9.0,,,,,,,42.0,,,,,,16,note_on,,0.0,42.0,0.0,95636,49.81041666666667
8607,9.0,,,,,,,44.0,,,,,,0,note_on,,75.0,44.0,75.0,95636,49.81041666666667
8608,10.0,,,,,,,63.0,,,,,,125,note_on,,0.0,63.0,0.0,14128,7.358333333333333
8609,10.0,,,,,,,72.0,,,,,,15,note_on,,0.0,72.0,0.0,14143,7.366145833333333
8610,10.0,,,,,,,67.0,,,,,,8,note_on,,0.0,67.0,0.0,14151,7.3703125
8611,11.0,,,,,,,70.0,,,,,,38,note_on,,0.0,70.0,0.0,24908,12.972916666666666
8612,11.0,,,,,,,63.0,,,,,,0,note_on,,0.0,63.0,0.0,24908,12.972916666666666
8613,11.0,,,,,,,67.0,,,,,,3,note_on,,0.0,67.0,0.0,24911,12.974479166666667
8614,9.0,,,,,,,44.0,,,,,,51,note_on,,0.0,44.0,0.0,95687,49.836979166666666
8615,7.0,,,,,,,82.0,,,,,,0,note_on,,127.0,82.0,127.0,2987,1.5557291666666666
8616,8.0,,,,,,,70.0,,,,,,0,note_on,,127.0,70.0,127.0,16862,8.782291666666666
8617,9.0,,,,,,,42.0,,,,,,0,note_on,,85.0,42.0,85.0,95687,49.836979166666666
8618,9.0,,,,,,,70.0,,,,,,0,note_on,,40.0,70.0,40.0,95687,49.836979166666666
8619,9.0,,,,,,,36.0,,,,,,0,note_on,,126.0,36.0,126.0,95687,49.836979166666666
8620,9.0,,,,,,,35.0,,,,,,0,note_on,,60.0,35.0,60.0,95687,49.836979166666666
8621,10.0,,,,,,,67.0,,,,,,0,note_on,,127.0,67.0,127.0,14151,7.3703125
8622,10.0,,,,,,,70.0,,,,,,0,note_on,,118.0,70.0,118.0,14151,7.3703125
8623,10.0,,,,,,,63.0,,,,,,0,note_on,,127.0,63.0,127.0,14151,7.3703125
8624,12.0,,,,,,,67.0,,,,,,0,note_on,,127.0,67.0,127.0,21517,11.206770833333334
8625,12.0,,,,,,,72.0,,,,,,0,note_on,,127.0,72.0,127.0,21517,11.206770833333334
8626,12.0,,,,,,,63.0,,,,,,0,note_on,,127.0,63.0,127.0,21517,11.206770833333334
8627,9.0,,,,,,,35.0,,,,,,172,note_on,,0.0,35.0,0.0,95859,49.9265625
8628,9.0,,,,,,,36.0,,,,,,0,note_on,,0.0,36.0,0.0,95859,49.9265625
8629,3.0,,,,,,,79.0,,,,,,43,note_on,,0.0,79.0,0.0,53069,27.640104166666667
8630,9.0,,,,,,,42.0,,,,,,9,note_on,,0.0,42.0,0.0,95868,49.93125
8631,9.0,,,,,,,70.0,,,,,,0,note_on,,0.0,70.0,0.0,95868,49.93125
8632,9.0,,,,,,,44.0,,,,,,16,note_on,,75.0,44.0,75.0,95884,49.93958333333333
8633,12.0,,,,,,,63.0,,,,,,125,note_on,,0.0,63.0,0.0,21642,11.271875
8634,12.0,,,,,,,72.0,,,,,,15,note_on,,0.0,72.0,0.0,21657,11.2796875
8635,12.0,,,,,,,67.0,,,,,,8,note_on,,0.0,67.0,0.0,21665,11.283854166666666
8636,10.0,,,,,,,63.0,,,,,,38,note_on,,0.0,63.0,0.0,14189,7.390104166666666
8637,10.0,,,,,,,70.0,,,,,,0,note_on,,0.0,70.0,0.0,14189,7.390104166666666
8638,10.0,,,,,,,67.0,,,,,,3,note_on,,0.0,67.0,0.0,14192,7.391666666666667
8639,9.0,,,,,,,44.0,,,,,,51,note_on,,0.0,44.0,0.0,95935,49.966145833333336
8640,3.0,,,,,,,77.0,,,,,,0,note_on,,127.0,77.0,127.0,53069,27.640104166666667
8641,8.0,,,,,,,87.0,,,,,,0,note_on,,45.0,87.0,45.0,16862,8.782291666666666
8642,9.0,,,,,,,42.0,,,,,,0,note_on,,85.0,42.0,85.0,95935,49.966145833333336
8643,9.0,,,,,,,70.0,,,,,,0,note_on,,40.0,70.0,40.0,95935,49.966145833333336
8644,12.0,,,,,,,67.0,,,,,,0,note_on,,127.0,67.0,127.0,21665,11.283854166666666
8645,12.0,,,,,,,70.0,,,,,,0,note_on,,118.0,70.0,118.0,21665,11.283854166666666
8646,12.0,,,,,,,63.0,,,,,,0,note_on,,127.0,63.0,127.0,21665,11.283854166666666
8647,,,,,,,,,,,,,by ,0,lyrics,,,,,3329602933568071022,1734168194566703.8
8648,7.0,,,,,,,82.0,,,,,,41,note_on,,0.0,82.0,0.0,3028,1.5770833333333334
8649,8.0,,,,,,,70.0,,,,,,0,note_on,,0.0,70.0,0.0,16862,8.782291666666666
8650,8.0,,,,,,,87.0,,,,,,63,note_on,,0.0,87.0,0.0,16925,8.815104166666666
8651,9.0,,,,,,,70.0,,,,,,120,note_on,,0.0,70.0,0.0,96055,50.028645833333336
8652,9.0,,,,,,,42.0,,,,,,16,note_on,,0.0,42.0,0.0,96071,50.03697916666667
8653,8.0,,,,,,,87.0,,,,,,0,note_on,,45.0,87.0,45.0,16925,8.815104166666666
8654,9.0,,,,,,,44.0,,,,,,0,note_on,,75.0,44.0,75.0,96071,50.03697916666667
8655,9.0,,,,,,,36.0,,,,,,0,note_on,,126.0,36.0,126.0,96071,50.03697916666667
8656,9.0,,,,,,,35.0,,,,,,0,note_on,,60.0,35.0,60.0,96071,50.03697916666667
8657,8.0,,,,,,,87.0,,,,,,123,note_on,,0.0,87.0,0.0,17048,8.879166666666666
8658,12.0,,,,,,,70.0,,,,,,63,note_on,,0.0,70.0,0.0,21728,11.316666666666666
8659,12.0,,,,,,,63.0,,,,,,0,note_on,,0.0,63.0,0.0,21728,11.316666666666666
8660,12.0,,,,,,,67.0,,,,,,3,note_on,,0.0,67.0,0.0,21731,11.318229166666667
8661,9.0,,,,,,,35.0,,,,,,35,note_on,,0.0,35.0,0.0,96106,50.05520833333333
8662,9.0,,,,,,,36.0,,,,,,0,note_on,,0.0,36.0,0.0,96106,50.05520833333333
8663,9.0,,,,,,,44.0,,,,,,16,note_on,,0.0,44.0,0.0,96122,50.063541666666666
8664,7.0,,,,,,,75.0,,,,,,0,note_on,,127.0,75.0,127.0,3028,1.5770833333333334
8665,8.0,,,,,,,63.0,,,,,,0,note_on,,127.0,63.0,127.0,17048,8.879166666666666
8666,9.0,,,,,,,42.0,,,,,,0,note_on,,85.0,42.0,85.0,96122,50.063541666666666
8667,9.0,,,,,,,70.0,,,,,,0,note_on,,40.0,70.0,40.0,96122,50.063541666666666
8668,9.0,,,,,,,39.0,,,,,,0,note_on,,125.0,39.0,125.0,96122,50.063541666666666
8669,9.0,,,,,,,28.0,,,,,,0,note_on,,127.0,28.0,127.0,96122,50.063541666666666
8670,9.0,,,,,,,28.0,,,,,,117,note_on,,0.0,28.0,0.0,96239,50.12447916666667
8671,9.0,,,,,,,39.0,,,,,,34,note_on,,0.0,39.0,0.0,96273,50.1421875
8672,9.0,,,,,,,42.0,,,,,,73,note_on,,0.0,42.0,0.0,96346,50.18020833333333
8673,9.0,,,,,,,70.0,,,,,,0,note_on,,0.0,70.0,0.0,96346,50.18020833333333
8674,3.0,,,,,,,82.0,,,,,,16,note_on,,127.0,82.0,127.0,53085,27.6484375
8675,8.0,,,,,,,87.0,,,,,,0,note_on,,45.0,87.0,45.0,17048,8.879166666666666
8676,9.0,,,,,,,44.0,,,,,,0,note_on,,75.0,44.0,75.0,96346,50.18020833333333
8677,,,,,,,,,,,,,ohhh ,0,lyrics,,,,,7310590613938774048,3807599278093111.5
8678,,,,,,,,,,,,,,0,lyrics,,,,,4189022158411888223,2181782374172858.2
8679,3.0,,,,,,,77.0,,,,,,41,note_on,,0.0,77.0,0.0,53126,27.669791666666665
8680,8.0,,,,,,,87.0,,,,,,85,note_on,,0.0,87.0,0.0,17133,8.9234375
8681,9.0,,,,,,,44.0,,,,,,114,note_on,,0.0,44.0,0.0,96460,50.239583333333336
8682,9.0,,,,,,,42.0,,,,,,0,note_on,,85.0,42.0,85.0,96460,50.239583333333336
8683,9.0,,,,,,,70.0,,,,,,0,note_on,,40.0,70.0,40.0,96460,50.239583333333336
8684,9.0,,,,,,,36.0,,,,,,0,note_on,,126.0,36.0,126.0,96460,50.239583333333336
8685,9.0,,,,,,,35.0,,,,,,0,note_on,,60.0,35.0,60.0,96460,50.239583333333336
8686,8.0,,,,,,,63.0,,,,,,62,note_on,,0.0,63.0,0.0,17195,8.955729166666666
8687,7.0,,,,,,,75.0,,,,,,0,note_on,,0.0,75.0,0.0,3028,1.5770833333333334
8688,9.0,,,,,,,35.0,,,,,,104,note_on,,0.0,35.0,0.0,96564,50.29375
8689,9.0,,,,,,,36.0,,,,,,0,note_on,,0.0,36.0,0.0,96564,50.29375
8690,9.0,,,,,,,70.0,,,,,,58,note_on,,0.0,70.0,0.0,96622,50.32395833333333
8691,9.0,,,,,,,42.0,,,,,,16,note_on,,0.0,42.0,0.0,96638,50.33229166666666
8692,9.0,,,,,,,44.0,,,,,,0,note_on,,75.0,44.0,75.0,96638,50.33229166666666
8693,9.0,,,,,,,44.0,,,,,,240,note_on,,0.0,44.0,0.0,96878,50.45729166666666
8694,7.0,,,,,,,77.0,,,,,,0,note_on,,127.0,77.0,127.0,3028,1.5770833333333334
8695,8.0,,,,,,,87.0,,,,,,0,note_on,,45.0,87.0,45.0,17195,8.955729166666666
8696,8.0,,,,,,,65.0,,,,,,0,note_on,,127.0,65.0,127.0,17195,8.955729166666666
8697,9.0,,,,,,,42.0,,,,,,0,note_on,,85.0,42.0,85.0,96878,50.45729166666666
8698,9.0,,,,,,,70.0,,,,,,0,note_on,,40.0,70.0,40.0,96878,50.45729166666666
8699,8.0,,,,,,,87.0,,,,,,121,note_on,,0.0,87.0,0.0,17316,9.01875
8700,9.0,,,,,,,70.0,,,,,,103,note_on,,0.0,70.0,0.0,96981,50.5109375
8701,9.0,,,,,,,44.0,,,,,,16,note_on,,75.0,44.0,75.0,96997,50.51927083333333
8702,9.0,,,,,,,44.0,,,,,,240,note_on,,0.0,44.0,0.0,97237,50.64427083333333
8703,8.0,,,,,,,87.0,,,,,,0,note_on,,45.0,87.0,45.0,17316,9.01875
8704,9.0,,,,,,,42.0,,,,,,0,note_on,,85.0,42.0,85.0,97237,50.64427083333333
8705,9.0,,,,,,,70.0,,,,,,0,note_on,,40.0,70.0,40.0,97237,50.64427083333333
8706,9.0,,,,,,,36.0,,,,,,0,note_on,,126.0,36.0,126.0,97237,50.64427083333333
8707,9.0,,,,,,,35.0,,,,,,0,note_on,,60.0,35.0,60.0,97237,50.64427083333333
8708,3.0,,,,,,,82.0,,,,,,6,note_on,,0.0,82.0,0.0,53132,27.672916666666666
8709,7.0,,,,,,,77.0,,,,,,50,note_on,,0.0,77.0,0.0,3078,1.603125
8710,8.0,,,,,,,65.0,,,,,,0,note_on,,0.0,65.0,0.0,17316,9.01875
8711,8.0,,,,,,,87.0,,,,,,71,note_on,,0.0,87.0,0.0,17387,9.055729166666666
8712,9.0,,,,,,,35.0,,,,,,27,note_on,,0.0,35.0,0.0,97264,50.65833333333333
8713,9.0,,,,,,,36.0,,,,,,0,note_on,,0.0,36.0,0.0,97264,50.65833333333333
8714,9.0,,,,,,,70.0,,,,,,70,note_on,,0.0,70.0,0.0,97334,50.69479166666667
8715,9.0,,,,,,,42.0,,,,,,16,note_on,,0.0,42.0,0.0,97350,50.703125
8716,9.0,,,,,,,44.0,,,,,,0,note_on,,75.0,44.0,75.0,97350,50.703125
8717,9.0,,,,,,,44.0,,,,,,240,note_on,,0.0,44.0,0.0,97590,50.828125
8718,3.0,,,,,,,75.0,,,,,,0,note_on,,127.0,75.0,127.0,53132,27.672916666666666
8719,7.0,,,,,,,75.0,,,,,,0,note_on,,127.0,75.0,127.0,3078,1.603125
8720,8.0,,,,,,,87.0,,,,,,0,note_on,,45.0,87.0,45.0,17387,9.055729166666666
8721,8.0,,,,,,,63.0,,,,,,0,note_on,,127.0,63.0,127.0,17387,9.055729166666666
8722,9.0,,,,,,,42.0,,,,,,0,note_on,,85.0,42.0,85.0,97590,50.828125
8723,9.0,,,,,,,70.0,,,,,,0,note_on,,40.0,70.0,40.0,97590,50.828125
8724,9.0,,,,,,,39.0,,,,,,0,note_on,,127.0,39.0,127.0,97590,50.828125
8725,9.0,,,,,,,28.0,,,,,,0,note_on,,127.0,28.0,127.0,97590,50.828125
8726,,,,,,,,,,,,,Like ,0,lyrics,,,,,4189021024573941109,2181781783632261.0
8727,9.0,,,,,,,39.0,,,,,,123,note_on,,0.0,39.0,0.0,97713,50.8921875
8728,8.0,,,,,,,87.0,,,,,,0,note_on,,0.0,87.0,0.0,17387,9.055729166666666
8729,9.0,,,,,,,28.0,,,,,,2,note_on,,0.0,28.0,0.0,97715,50.893229166666664
8730,9.0,,,,,,,70.0,,,,,,99,note_on,,0.0,70.0,0.0,97814,50.94479166666667
8731,9.0,,,,,,,42.0,,,,,,0,note_on,,0.0,42.0,0.0,97814,50.94479166666667
8732,9.0,,,,,,,42.0,,,,,,16,note_on,,0.0,42.0,0.0,97830,50.953125
8733,9.0,,,,,,,44.0,,,,,,0,note_on,,75.0,44.0,75.0,97830,50.953125
8734,9.0,,,,,,,44.0,,,,,,240,note_on,,0.0,44.0,0.0,98070,51.078125
8735,8.0,,,,,,,87.0,,,,,,0,note_on,,45.0,87.0,45.0,17387,9.055729166666666
8736,9.0,,,,,,,42.0,,,,,,0,note_on,,85.0,42.0,85.0,98070,51.078125
8737,9.0,,,,,,,61.0,,,,,,0,note_on,,100.0,61.0,100.0,98070,51.078125
8738,9.0,,,,,,,70.0,,,,,,0,note_on,,40.0,70.0,40.0,98070,51.078125
8739,7.0,,,,,,,75.0,,,,,,84,note_on,,0.0,75.0,0.0,3162,1.6468749999999999
8740,8.0,,,,,,,63.0,,,,,,0,note_on,,0.0,63.0,0.0,17387,9.055729166666666
8741,8.0,,,,,,,87.0,,,,,,28,note_on,,0.0,87.0,0.0,17415,9.0703125
8742,9.0,,,,,,,61.0,,,,,,2,note_on,,0.0,61.0,0.0,98072,51.079166666666666
8743,9.0,,,,,,,61.0,,,,,,6,note_on,,100.0,61.0,100.0,98078,51.08229166666666
8744,5.0,,,,,,,58.0,,,,,,14,note_on,,0.0,58.0,0.0,1700,0.8854166666666666
8745,3.0,,,,,,,75.0,,,,,,9,note_on,,0.0,75.0,0.0,53141,27.677604166666665
8746,5.0,,,,,,,55.0,,,,,,40,note_on,,0.0,55.0,0.0,1740,0.90625
8747,5.0,,,,,,,63.0,,,,,,27,note_on,,0.0,63.0,0.0,1767,0.9203125
8748,9.0,,,,,,,70.0,,,,,,14,note_on,,0.0,70.0,0.0,98092,51.08958333333333
8749,9.0,,,,,,,61.0,,,,,,10,note_on,,0.0,61.0,0.0,98102,51.094791666666666
8750,9.0,,,,,,,42.0,,,,,,6,note_on,,0.0,42.0,0.0,98108,51.09791666666666
8751,9.0,,,,,,,44.0,,,,,,0,note_on,,75.0,44.0,75.0,98108,51.09791666666666
8752,9.0,,,,,,,61.0,,,,,,0,note_on,,100.0,61.0,100.0,98108,51.09791666666666
8753,9.0,,,,,,,61.0,,,,,,114,note_on,,0.0,61.0,0.0,98222,51.157291666666666
8754,9.0,,,,,,,61.0,,,,,,6,note_on,,100.0,61.0,100.0,98228,51.16041666666666
8755,8.0,,,,,,,39.0,,,,,,43,note_on,,0.0,39.0,0.0,17458,9.092708333333333
8756,5.0,,,,,,,60.0,,,,,,23,note_on,,104.0,60.0,104.0,1790,0.9322916666666666
8757,1.0,,,,,,,27.0,,,,,,1,note_on,,0.0,27.0,0.0,4815,2.5078125
8758,5.0,,,,,,,55.0,,,,,,3,note_on,,74.0,55.0,74.0,1793,0.9338541666666667
8759,5.0,,,,,,,63.0,,,,,,5,note_on,,106.0,63.0,106.0,1798,0.9364583333333333
8760,9.0,,,,,,,61.0,,,,,,39,note_on,,0.0,61.0,0.0,98267,51.180729166666666
8761,9.0,,,,,,,44.0,,,,,,6,note_on,,0.0,44.0,0.0,98273,51.18385416666666
8762,1.0,,,,,,,36.0,,,,,,0,note_on,,127.0,36.0,127.0,4815,2.5078125
8763,3.0,,,,,,,79.0,,,,,,0,note_on,,127.0,79.0,127.0,53141,27.677604166666665
8764,7.0,,,,,,,82.0,,,,,,0,note_on,,127.0,82.0,127.0,3162,1.6468749999999999
8765,8.0,,,,,,,48.0,,,,,,0,note_on,,126.0,48.0,126.0,17458,9.092708333333333
8766,8.0,,,,,,,70.0,,,,,,0,note_on,,127.0,70.0,127.0,17458,9.092708333333333
8767,9.0,,,,,,,61.0,,,,,,0,note_on,,100.0,61.0,100.0,98273,51.18385416666666
8768,9.0,,,,,,,42.0,,,,,,0,note_on,,85.0,42.0,85.0,98273,51.18385416666666
8769,9.0,,,,,,,70.0,,,,,,0,note_on,,40.0,70.0,40.0,98273,51.18385416666666
8770,9.0,,,,,,,36.0,,,,,,0,note_on,,126.0,36.0,126.0,98273,51.18385416666666
8771,9.0,,,,,,,35.0,,,,,,0,note_on,,60.0,35.0,60.0,98273,51.18385416666666
8772,11.0,,,,,,,63.0,,,,,,0,note_on,,127.0,63.0,127.0,24911,12.974479166666667
8773,11.0,,,,,,,60.0,,,,,,0,note_on,,127.0,60.0,127.0,24911,12.974479166666667
8774,11.0,,,,,,,67.0,,,,,,0,note_on,,127.0,67.0,127.0,24911,12.974479166666667
8775,,,,,,,,,,,,,ba ,0,lyrics,,,,,2314885530818447916,1205669547301275.0
8776,9.0,,,,,,,61.0,,,,,,114,note_on,,0.0,61.0,0.0,98387,51.243229166666666
8777,9.0,,,,,,,35.0,,,,,,58,note_on,,0.0,35.0,0.0,98445,51.2734375
8778,9.0,,,,,,,36.0,,,,,,0,note_on,,0.0,36.0,0.0,98445,51.2734375
8779,9.0,,,,,,,70.0,,,,,,52,note_on,,0.0,70.0,0.0,98497,51.30052083333333
8780,9.0,,,,,,,42.0,,,,,,0,note_on,,0.0,42.0,0.0,98497,51.30052083333333
8781,8.0,,,,,,,87.0,,,,,,16,note_on,,45.0,87.0,45.0,17474,9.101041666666667
8782,9.0,,,,,,,44.0,,,,,,0,note_on,,75.0,44.0,75.0,98497,51.30052083333333
8783,8.0,,,,,,,87.0,,,,,,106,note_on,,0.0,87.0,0.0,17580,9.15625
8784,11.0,,,,,,,60.0,,,,,,58,note_on,,0.0,60.0,0.0,24969,13.0046875
8785,11.0,,,,,,,63.0,,,,,,32,note_on,,0.0,63.0,0.0,25001,13.021354166666667
8786,11.0,,,,,,,67.0,,,,,,6,note_on,,0.0,67.0,0.0,25007,13.024479166666666
8787,9.0,,,,,,,44.0,,,,,,38,note_on,,0.0,44.0,0.0,98535,51.3203125
8788,9.0,,,,,,,42.0,,,,,,0,note_on,,85.0,42.0,85.0,98535,51.3203125
8789,9.0,,,,,,,70.0,,,,,,0,note_on,,40.0,70.0,40.0,98535,51.3203125
8790,10.0,,,,,,,63.0,,,,,,0,note_on,,127.0,63.0,127.0,14192,7.391666666666667
8791,10.0,,,,,,,60.0,,,,,,0,note_on,,127.0,60.0,127.0,14192,7.391666666666667
8792,10.0,,,,,,,67.0,,,,,,0,note_on,,127.0,67.0,127.0,14192,7.391666666666667
8793,8.0,,,,,,,70.0,,,,,,51,note_on,,0.0,70.0,0.0,17631,9.1828125
8794,7.0,,,,,,,82.0,,,,,,0,note_on,,0.0,82.0,0.0,3162,1.6468749999999999
8795,3.0,,,,,,,79.0,,,,,,104,note_on,,0.0,79.0,0.0,53245,27.731770833333332
8796,9.0,,,,,,,70.0,,,,,,69,note_on,,0.0,70.0,0.0,98604,51.356249999999996
8797,9.0,,,,,,,42.0,,,,,,16,note_on,,0.0,42.0,0.0,98620,51.364583333333336
8798,9.0,,,,,,,44.0,,,,,,0,note_on,,75.0,44.0,75.0,98620,51.364583333333336
8799,9.0,,,,,,,36.0,,,,,,0,note_on,,126.0,36.0,126.0,98620,51.364583333333336
8800,9.0,,,,,,,35.0,,,,,,0,note_on,,60.0,35.0,60.0,98620,51.364583333333336
8801,10.0,,,,,,,60.0,,,,,,164,note_on,,0.0,60.0,0.0,14356,7.477083333333333
8802,10.0,,,,,,,63.0,,,,,,32,note_on,,0.0,63.0,0.0,14388,7.4937499999999995
8803,10.0,,,,,,,67.0,,,,,,6,note_on,,0.0,67.0,0.0,14394,7.496875
8804,9.0,,,,,,,36.0,,,,,,22,note_on,,0.0,36.0,0.0,98642,51.376041666666666
8805,9.0,,,,,,,35.0,,,,,,0,note_on,,0.0,35.0,0.0,98642,51.376041666666666
8806,9.0,,,,,,,44.0,,,,,,16,note_on,,0.0,44.0,0.0,98658,51.384375
8807,3.0,,,,,,,77.0,,,,,,0,note_on,,127.0,77.0,127.0,53245,27.731770833333332
8808,7.0,,,,,,,75.0,,,,,,0,note_on,,127.0,75.0,127.0,3162,1.6468749999999999
8809,7.0,,,,,,,78.0,,,,,,0,note_on,,72.0,78.0,72.0,3162,1.6468749999999999
8810,8.0,,,,,,,87.0,,,,,,0,note_on,,45.0,87.0,45.0,17631,9.1828125
8811,8.0,,,,,,,63.0,,,,,,0,note_on,,127.0,63.0,127.0,17631,9.1828125
8812,8.0,,,,,,,66.0,,,,,,0,note_on,,72.0,66.0,72.0,17631,9.1828125
8813,9.0,,,,,,,42.0,,,,,,0,note_on,,85.0,42.0,85.0,98658,51.384375
8814,9.0,,,,,,,70.0,,,,,,0,note_on,,40.0,70.0,40.0,98658,51.384375
8815,9.0,,,,,,,39.0,,,,,,0,note_on,,125.0,39.0,125.0,98658,51.384375
8816,9.0,,,,,,,28.0,,,,,,0,note_on,,127.0,28.0,127.0,98658,51.384375
8817,12.0,,,,,,,63.0,,,,,,0,note_on,,127.0,63.0,127.0,21731,11.318229166666667
8818,12.0,,,,,,,60.0,,,,,,0,note_on,,127.0,60.0,127.0,21731,11.318229166666667
8819,12.0,,,,,,,67.0,,,,,,0,note_on,,127.0,67.0,127.0,21731,11.318229166666667
8820,,,,,,,,,,,,,"by, ",0,lyrics,,,,,7453001232540508192,3881771475281514.5
8821,8.0,,,,,,,66.0,,,,,,48,note_on,,0.0,66.0,0.0,17679,9.2078125
8822,7.0,,,,,,,78.0,,,,,,0,note_on,,0.0,78.0,0.0,3162,1.6468749999999999
8823,9.0,,,,,,,28.0,,,,,,69,note_on,,0.0,28.0,0.0,98727,51.4203125
8824,8.0,,,,,,,87.0,,,,,,10,note_on,,0.0,87.0,0.0,17689,9.213020833333333
8825,9.0,,,,,,,39.0,,,,,,24,note_on,,0.0,39.0,0.0,98751,51.4328125
8826,9.0,,,,,,,42.0,,,,,,73,note_on,,0.0,42.0,0.0,98824,51.47083333333333
8827,9.0,,,,,,,70.0,,,,,,0,note_on,,0.0,70.0,0.0,98824,51.47083333333333
8828,9.0,,,,,,,44.0,,,,,,16,note_on,,75.0,44.0,75.0,98840,51.479166666666664
8829,12.0,,,,,,,60.0,,,,,,164,note_on,,0.0,60.0,0.0,21895,11.403645833333334
8830,12.0,,,,,,,63.0,,,,,,32,note_on,,0.0,63.0,0.0,21927,11.4203125
8831,12.0,,,,,,,67.0,,,,,,6,note_on,,0.0,67.0,0.0,21933,11.4234375
8832,9.0,,,,,,,44.0,,,,,,38,note_on,,0.0,44.0,0.0,98878,51.498958333333334
8833,8.0,,,,,,,87.0,,,,,,0,note_on,,45.0,87.0,45.0,17689,9.213020833333333
8834,9.0,,,,,,,42.0,,,,,,0,note_on,,85.0,42.0,85.0,98878,51.498958333333334
8835,9.0,,,,,,,70.0,,,,,,0,note_on,,40.0,70.0,40.0,98878,51.498958333333334
8836,9.0,,,,,,,36.0,,,,,,0,note_on,,126.0,36.0,126.0,98878,51.498958333333334
8837,9.0,,,,,,,35.0,,,,,,0,note_on,,60.0,35.0,60.0,98878,51.498958333333334
8838,7.0,,,,,,,75.0,,,,,,40,note_on,,0.0,75.0,0.0,3202,1.6677083333333333
8839,8.0,,,,,,,63.0,,,,,,0,note_on,,0.0,63.0,0.0,17689,9.213020833333333
8840,8.0,,,,,,,87.0,,,,,,90,note_on,,0.0,87.0,0.0,17779,9.259895833333333
8841,3.0,,,,,,,77.0,,,,,,2,note_on,,0.0,77.0,0.0,53247,27.732812499999998
8842,9.0,,,,,,,35.0,,,,,,34,note_on,,0.0,35.0,0.0,98912,51.516666666666666
8843,9.0,,,,,,,36.0,,,,,,0,note_on,,0.0,36.0,0.0,98912,51.516666666666666
8844,9.0,,,,,,,70.0,,,,,,58,note_on,,0.0,70.0,0.0,98970,51.546875
8845,9.0,,,,,,,42.0,,,,,,16,note_on,,0.0,42.0,0.0,98986,51.55520833333333
8846,9.0,,,,,,,44.0,,,,,,0,note_on,,75.0,44.0,75.0,98986,51.55520833333333
8847,9.0,,,,,,,44.0,,,,,,240,note_on,,0.0,44.0,0.0,99226,51.68020833333333
8848,3.0,,,,,,,79.0,,,,,,0,note_on,,127.0,79.0,127.0,53247,27.732812499999998
8849,7.0,,,,,,,77.0,,,,,,0,note_on,,127.0,77.0,127.0,3202,1.6677083333333333
8850,8.0,,,,,,,65.0,,,,,,0,note_on,,127.0,65.0,127.0,17779,9.259895833333333
8851,9.0,,,,,,,42.0,,,,,,0,note_on,,85.0,42.0,85.0,99226,51.68020833333333
8852,9.0,,,,,,,70.0,,,,,,0,note_on,,40.0,70.0,40.0,99226,51.68020833333333
8853,,,,,,,,,,,,,ba ,0,lyrics,,,,,4189022162523546479,2181782376314347.2
8854,9.0,,,,,,,70.0,,,,,,224,note_on,,0.0,70.0,0.0,99450,51.796875
8855,9.0,,,,,,,42.0,,,,,,0,note_on,,0.0,42.0,0.0,99450,51.796875
8856,8.0,,,,,,,87.0,,,,,,16,note_on,,45.0,87.0,45.0,17795,9.268229166666666
8857,9.0,,,,,,,44.0,,,,,,0,note_on,,75.0,44.0,75.0,99450,51.796875
8858,8.0,,,,,,,87.0,,,,,,133,note_on,,0.0,87.0,0.0,17928,9.3375
8859,9.0,,,,,,,44.0,,,,,,107,note_on,,0.0,44.0,0.0,99557,51.852604166666666
8860,9.0,,,,,,,42.0,,,,,,0,note_on,,85.0,42.0,85.0,99557,51.852604166666666
8861,9.0,,,,,,,70.0,,,,,,0,note_on,,40.0,70.0,40.0,99557,51.852604166666666
8862,9.0,,,,,,,36.0,,,,,,0,note_on,,126.0,36.0,126.0,99557,51.852604166666666
8863,9.0,,,,,,,35.0,,,,,,0,note_on,,60.0,35.0,60.0,99557,51.852604166666666
8864,8.0,,,,,,,65.0,,,,,,103,note_on,,0.0,65.0,0.0,18031,9.391145833333333
8865,7.0,,,,,,,77.0,,,,,,0,note_on,,0.0,77.0,0.0,3202,1.6677083333333333
8866,9.0,,,,,,,35.0,,,,,,51,note_on,,0.0,35.0,0.0,99608,51.87916666666666
8867,9.0,,,,,,,36.0,,,,,,0,note_on,,0.0,36.0,0.0,99608,51.87916666666666
8868,3.0,,,,,,,79.0,,,,,,52,note_on,,0.0,79.0,0.0,53299,27.75989583333333
8869,9.0,,,,,,,70.0,,,,,,18,note_on,,0.0,70.0,0.0,99626,51.88854166666667
8870,9.0,,,,,,,42.0,,,,,,16,note_on,,0.0,42.0,0.0,99642,51.896875
8871,9.0,,,,,,,44.0,,,,,,0,note_on,,75.0,44.0,75.0,99642,51.896875
8872,9.0,,,,,,,44.0,,,,,,240,note_on,,0.0,44.0,0.0,99882,52.021875
8873,3.0,,,,,,,77.0,,,,,,0,note_on,,127.0,77.0,127.0,53299,27.75989583333333
8874,7.0,,,,,,,70.0,,,,,,0,note_on,,127.0,70.0,127.0,3202,1.6677083333333333
8875,8.0,,,,,,,87.0,,,,,,0,note_on,,45.0,87.0,45.0,18031,9.391145833333333
8876,8.0,,,,,,,58.0,,,,,,0,note_on,,127.0,58.0,127.0,18031,9.391145833333333
8877,9.0,,,,,,,42.0,,,,,,0,note_on,,85.0,42.0,85.0,99882,52.021875
8878,9.0,,,,,,,70.0,,,,,,0,note_on,,40.0,70.0,40.0,99882,52.021875
8879,9.0,,,,,,,39.0,,,,,,0,note_on,,127.0,39.0,127.0,99882,52.021875
8880,9.0,,,,,,,28.0,,,,,,0,note_on,,127.0,28.0,127.0,99882,52.021875
8881,11.0,,,,,,,68.0,,,,,,0,note_on,,127.0,68.0,127.0,25007,13.024479166666666
8882,11.0,,,,,,,60.0,,,,,,0,note_on,,127.0,60.0,127.0,25007,13.024479166666666
8883,11.0,,,,,,,63.0,,,,,,0,note_on,,127.0,63.0,127.0,25007,13.024479166666666
8884,,,,,,,,,,,,,"by, ",0,lyrics,,,,,4189022158411888223,2181782374172858.2
8885,9.0,,,,,,,39.0,,,,,,123,note_on,,0.0,39.0,0.0,100005,52.0859375
8886,9.0,,,,,,,28.0,,,,,,2,note_on,,0.0,28.0,0.0,100007,52.086979166666666
8887,8.0,,,,,,,87.0,,,,,,4,note_on,,0.0,87.0,0.0,18035,9.393229166666666
8888,9.0,,,,,,,42.0,,,,,,95,note_on,,0.0,42.0,0.0,100102,52.13645833333333
8889,9.0,,,,,,,70.0,,,,,,0,note_on,,0.0,70.0,0.0,100102,52.13645833333333
8890,9.0,,,,,,,44.0,,,,,,16,note_on,,75.0,44.0,75.0,100118,52.14479166666666
8891,11.0,,,,,,,68.0,,,,,,145,note_on,,0.0,68.0,0.0,25152,13.1
8892,11.0,,,,,,,60.0,,,,,,4,note_on,,0.0,60.0,0.0,25156,13.102083333333333
8893,11.0,,,,,,,63.0,,,,,,19,note_on,,0.0,63.0,0.0,25175,13.111979166666666
8894,9.0,,,,,,,44.0,,,,,,72,note_on,,0.0,44.0,0.0,100190,52.182291666666664
8895,8.0,,,,,,,87.0,,,,,,0,note_on,,45.0,87.0,45.0,18035,9.393229166666666
8896,9.0,,,,,,,42.0,,,,,,0,note_on,,85.0,42.0,85.0,100190,52.182291666666664
8897,9.0,,,,,,,70.0,,,,,,0,note_on,,40.0,70.0,40.0,100190,52.182291666666664
8898,10.0,,,,,,,68.0,,,,,,0,note_on,,127.0,68.0,127.0,14394,7.496875
8899,10.0,,,,,,,60.0,,,,,,0,note_on,,127.0,60.0,127.0,14394,7.496875
8900,10.0,,,,,,,63.0,,,,,,0,note_on,,127.0,63.0,127.0,14394,7.496875
8901,11.0,,,,,,,63.0,,,,,,0,note_on,,127.0,63.0,127.0,25175,13.111979166666666
8902,11.0,,,,,,,60.0,,,,,,0,note_on,,127.0,60.0,127.0,25175,13.111979166666666
8903,11.0,,,,,,,67.0,,,,,,0,note_on,,127.0,67.0,127.0,25175,13.111979166666666
8904,8.0,,,,,,,87.0,,,,,,121,note_on,,0.0,87.0,0.0,18156,9.45625
8905,7.0,,,,,,,70.0,,,,,,5,note_on,,0.0,70.0,0.0,3207,1.6703124999999999
8906,8.0,,,,,,,58.0,,,,,,0,note_on,,0.0,58.0,0.0,18156,9.45625
8907,3.0,,,,,,,77.0,,,,,,9,note_on,,0.0,77.0,0.0,53308,27.764583333333334
8908,9.0,,,,,,,70.0,,,,,,89,note_on,,0.0,70.0,0.0,100279,52.22864583333333
8909,9.0,,,,,,,42.0,,,,,,16,note_on,,0.0,42.0,0.0,100295,52.236979166666664
8910,9.0,,,,,,,44.0,,,,,,0,note_on,,75.0,44.0,75.0,100295,52.236979166666664
8911,11.0,,,,,,,60.0,,,,,,131,note_on,,0.0,60.0,0.0,25306,13.180208333333333
8912,11.0,,,,,,,67.0,,,,,,11,note_on,,0.0,67.0,0.0,25317,13.1859375
8913,10.0,,,,,,,68.0,,,,,,3,note_on,,0.0,68.0,0.0,14397,7.4984375
8914,10.0,,,,,,,60.0,,,,,,4,note_on,,0.0,60.0,0.0,14401,7.500520833333333
8915,10.0,,,,,,,63.0,,,,,,19,note_on,,0.0,63.0,0.0,14420,7.510416666666667
8916,11.0,,,,,,,63.0,,,,,,18,note_on,,0.0,63.0,0.0,25335,13.1953125
8917,9.0,,,,,,,44.0,,,,,,54,note_on,,0.0,44.0,0.0,100349,52.26510416666667
8918,3.0,,,,,,,79.0,,,,,,0,note_on,,127.0,79.0,127.0,53308,27.764583333333334
8919,7.0,,,,,,,82.0,,,,,,0,note_on,,127.0,82.0,127.0,3207,1.6703124999999999
8920,8.0,,,,,,,70.0,,,,,,0,note_on,,127.0,70.0,127.0,18156,9.45625
8921,9.0,,,,,,,42.0,,,,,,0,note_on,,85.0,42.0,85.0,100349,52.26510416666667
8922,9.0,,,,,,,70.0,,,,,,0,note_on,,40.0,70.0,40.0,100349,52.26510416666667
8923,9.0,,,,,,,36.0,,,,,,0,note_on,,126.0,36.0,126.0,100349,52.26510416666667
8924,9.0,,,,,,,35.0,,,,,,0,note_on,,60.0,35.0,60.0,100349,52.26510416666667
8925,10.0,,,,,,,63.0,,,,,,0,note_on,,127.0,63.0,127.0,14420,7.510416666666667
8926,10.0,,,,,,,60.0,,,,,,0,note_on,,127.0,60.0,127.0,14420,7.510416666666667
8927,10.0,,,,,,,67.0,,,,,,0,note_on,,127.0,67.0,127.0,14420,7.510416666666667
8928,12.0,,,,,,,68.0,,,,,,0,note_on,,127.0,68.0,127.0,21933,11.4234375
8929,12.0,,,,,,,60.0,,,,,,0,note_on,,127.0,60.0,127.0,21933,11.4234375
8930,12.0,,,,,,,63.0,,,,,,0,note_on,,127.0,63.0,127.0,21933,11.4234375
8931,,,,,,,,,,,,,ba ,0,lyrics,,,,,7311135934432374306,3807883299183528.5
8932,9.0,,,,,,,35.0,,,,,,172,note_on,,0.0,35.0,0.0,100521,52.3546875
8933,9.0,,,,,,,36.0,,,,,,0,note_on,,0.0,36.0,0.0,100521,52.3546875
8934,9.0,,,,,,,70.0,,,,,,52,note_on,,0.0,70.0,0.0,100573,52.381770833333334
8935,9.0,,,,,,,42.0,,,,,,0,note_on,,0.0,42.0,0.0,100573,52.381770833333334
8936,8.0,,,,,,,87.0,,,,,,16,note_on,,45.0,87.0,45.0,18172,9.464583333333334
8937,9.0,,,,,,,44.0,,,,,,0,note_on,,75.0,44.0,75.0,100573,52.381770833333334
8938,8.0,,,,,,,87.0,,,,,,126,note_on,,0.0,87.0,0.0,18298,9.530208333333333
8939,10.0,,,,,,,60.0,,,,,,5,note_on,,0.0,60.0,0.0,14425,7.513020833333333
8940,10.0,,,,,,,67.0,,,,,,11,note_on,,0.0,67.0,0.0,14436,7.51875
8941,12.0,,,,,,,68.0,,,,,,3,note_on,,0.0,68.0,0.0,21936,11.425
8942,12.0,,,,,,,60.0,,,,,,4,note_on,,0.0,60.0,0.0,21940,11.427083333333334
8943,12.0,,,,,,,63.0,,,,,,19,note_on,,0.0,63.0,0.0,21959,11.436979166666667
8944,10.0,,,,,,,63.0,,,,,,18,note_on,,0.0,63.0,0.0,14454,7.528125
8945,9.0,,,,,,,44.0,,,,,,54,note_on,,0.0,44.0,0.0,100627,52.40989583333333
8946,9.0,,,,,,,42.0,,,,,,0,note_on,,85.0,42.0,85.0,100627,52.40989583333333
8947,9.0,,,,,,,70.0,,,,,,0,note_on,,40.0,70.0,40.0,100627,52.40989583333333
8948,12.0,,,,,,,63.0,,,,,,0,note_on,,127.0,63.0,127.0,21959,11.436979166666667
8949,12.0,,,,,,,60.0,,,,,,0,note_on,,127.0,60.0,127.0,21959,11.436979166666667
8950,12.0,,,,,,,67.0,,,,,,0,note_on,,127.0,67.0,127.0,21959,11.436979166666667
8951,7.0,,,,,,,82.0,,,,,,45,note_on,,0.0,82.0,0.0,3252,1.6937499999999999
8952,8.0,,,,,,,70.0,,,,,,0,note_on,,0.0,70.0,0.0,18298,9.530208333333333
8953,3.0,,,,,,,79.0,,,,,,127,note_on,,0.0,79.0,0.0,53435,27.830729166666668
8954,9.0,,,,,,,70.0,,,,,,52,note_on,,0.0,70.0,0.0,100679,52.43697916666667
8955,9.0,,,,,,,42.0,,,,,,16,note_on,,0.0,42.0,0.0,100695,52.4453125
8956,8.0,,,,,,,87.0,,,,,,0,note_on,,45.0,87.0,45.0,18298,9.530208333333333
8957,9.0,,,,,,,44.0,,,,,,0,note_on,,75.0,44.0,75.0,100695,52.4453125
8958,9.0,,,,,,,36.0,,,,,,0,note_on,,126.0,36.0,126.0,100695,52.4453125
8959,9.0,,,,,,,35.0,,,,,,0,note_on,,60.0,35.0,60.0,100695,52.4453125
8960,8.0,,,,,,,87.0,,,,,,125,note_on,,0.0,87.0,0.0,18423,9.5953125
8961,12.0,,,,,,,60.0,,,,,,6,note_on,,0.0,60.0,0.0,21965,11.440104166666666
8962,12.0,,,,,,,67.0,,,,,,11,note_on,,0.0,67.0,0.0,21976,11.445833333333333
8963,12.0,,,,,,,63.0,,,,,,44,note_on,,0.0,63.0,0.0,22020,11.46875
8964,9.0,,,,,,,36.0,,,,,,38,note_on,,0.0,36.0,0.0,100733,52.46510416666666
8965,9.0,,,,,,,35.0,,,,,,0,note_on,,0.0,35.0,0.0,100733,52.46510416666666
8966,9.0,,,,,,,44.0,,,,,,16,note_on,,0.0,44.0,0.0,100749,52.473437499999996
8967,3.0,,,,,,,77.0,,,,,,0,note_on,,127.0,77.0,127.0,53435,27.830729166666668
8968,7.0,,,,,,,75.0,,,,,,0,note_on,,127.0,75.0,127.0,3252,1.6937499999999999
8969,8.0,,,,,,,63.0,,,,,,0,note_on,,127.0,63.0,127.0,18423,9.5953125
8970,9.0,,,,,,,42.0,,,,,,0,note_on,,85.0,42.0,85.0,100749,52.473437499999996
8971,9.0,,,,,,,70.0,,,,,,0,note_on,,40.0,70.0,40.0,100749,52.473437499999996
8972,9.0,,,,,,,39.0,,,,,,0,note_on,,125.0,39.0,125.0,100749,52.473437499999996
8973,9.0,,,,,,,28.0,,,,,,0,note_on,,127.0,28.0,127.0,100749,52.473437499999996
8974,,,,,,,,,,,,,by ,0,lyrics,,,,,2308706344426091808,1202451221055256.2
8975,9.0,,,,,,,28.0,,,,,,117,note_on,,0.0,28.0,0.0,100866,52.534375
8976,9.0,,,,,,,39.0,,,,,,34,note_on,,0.0,39.0,0.0,100900,52.552083333333336
8977,9.0,,,,,,,42.0,,,,,,73,note_on,,0.0,42.0,0.0,100973,52.59010416666666
8978,9.0,,,,,,,70.0,,,,,,0,note_on,,0.0,70.0,0.0,100973,52.59010416666666
8979,8.0,,,,,,,87.0,,,,,,16,note_on,,45.0,87.0,45.0,18439,9.603645833333333
8980,9.0,,,,,,,44.0,,,,,,0,note_on,,75.0,44.0,75.0,100973,52.59010416666666
8981,3.0,,,,,,,77.0,,,,,,43,note_on,,0.0,77.0,0.0,53478,27.853125
8982,8.0,,,,,,,87.0,,,,,,88,note_on,,0.0,87.0,0.0,18527,9.649479166666666
8983,9.0,,,,,,,44.0,,,,,,109,note_on,,0.0,44.0,0.0,101082,52.646875
8984,3.0,,,,,,,84.0,,,,,,0,note_on,,127.0,84.0,127.0,53478,27.853125
8985,9.0,,,,,,,42.0,,,,,,0,note_on,,85.0,42.0,85.0,101082,52.646875
8986,9.0,,,,,,,70.0,,,,,,0,note_on,,40.0,70.0,40.0,101082,52.646875
8987,9.0,,,,,,,36.0,,,,,,0,note_on,,126.0,36.0,126.0,101082,52.646875
8988,9.0,,,,,,,35.0,,,,,,0,note_on,,60.0,35.0,60.0,101082,52.646875
8989,,,,,,,,,,,,,noo ,0,lyrics,,,,,7022905558280662562,3657763311604512.0
8990,,,,,,,,,,,,,,0,lyrics,,,,,3330165883521037676,1734461397667207.2
8991,8.0,,,,,,,63.0,,,,,,51,note_on,,0.0,63.0,0.0,18578,9.676041666666666
8992,7.0,,,,,,,75.0,,,,,,0,note_on,,0.0,75.0,0.0,3252,1.6937499999999999
8993,9.0,,,,,,,35.0,,,,,,115,note_on,,0.0,35.0,0.0,101197,52.70677083333333
8994,9.0,,,,,,,36.0,,,,,,0,note_on,,0.0,36.0,0.0,101197,52.70677083333333
8995,9.0,,,,,,,70.0,,,,,,58,note_on,,0.0,70.0,0.0,101255,52.736979166666664
8996,9.0,,,,,,,42.0,,,,,,16,note_on,,0.0,42.0,0.0,101271,52.7453125
8997,8.0,,,,,,,87.0,,,,,,0,note_on,,45.0,87.0,45.0,18578,9.676041666666666
8998,9.0,,,,,,,44.0,,,,,,0,note_on,,75.0,44.0,75.0,101271,52.7453125
8999,8.0,,,,,,,87.0,,,,,,123,note_on,,0.0,87.0,0.0,18701,9.740104166666667
9000,9.0,,,,,,,44.0,,,,,,117,note_on,,0.0,44.0,0.0,101388,52.80625
9001,7.0,,,,,,,77.0,,,,,,0,note_on,,127.0,77.0,127.0,3252,1.6937499999999999
9002,8.0,,,,,,,65.0,,,,,,0,note_on,,127.0,65.0,127.0,18701,9.740104166666667
9003,9.0,,,,,,,42.0,,,,,,0,note_on,,85.0,42.0,85.0,101388,52.80625
9004,9.0,,,,,,,70.0,,,,,,0,note_on,,40.0,70.0,40.0,101388,52.80625
9005,9.0,,,,,,,70.0,,,,,,224,note_on,,0.0,70.0,0.0,101612,52.922916666666666
9006,8.0,,,,,,,87.0,,,,,,16,note_on,,45.0,87.0,45.0,18717,9.7484375
9007,9.0,,,,,,,44.0,,,,,,0,note_on,,75.0,44.0,75.0,101612,52.922916666666666
9008,8.0,,,,,,,87.0,,,,,,135,note_on,,0.0,87.0,0.0,18852,9.81875
9009,9.0,,,,,,,44.0,,,,,,105,note_on,,0.0,44.0,0.0,101717,52.977604166666666
9010,9.0,,,,,,,42.0,,,,,,0,note_on,,85.0,42.0,85.0,101717,52.977604166666666
9011,9.0,,,,,,,70.0,,,,,,0,note_on,,40.0,70.0,40.0,101717,52.977604166666666
9012,9.0,,,,,,,36.0,,,,,,0,note_on,,126.0,36.0,126.0,101717,52.977604166666666
9013,9.0,,,,,,,35.0,,,,,,0,note_on,,60.0,35.0,60.0,101717,52.977604166666666
9014,3.0,,,,,,,84.0,,,,,,23,note_on,,0.0,84.0,0.0,53501,27.865104166666665
9015,8.0,,,,,,,65.0,,,,,,33,note_on,,0.0,65.0,0.0,18885,9.8359375
9016,7.0,,,,,,,77.0,,,,,,0,note_on,,0.0,77.0,0.0,3252,1.6937499999999999
9017,9.0,,,,,,,35.0,,,,,,98,note_on,,0.0,35.0,0.0,101815,53.028645833333336
9018,9.0,,,,,,,36.0,,,,,,0,note_on,,0.0,36.0,0.0,101815,53.028645833333336
9019,9.0,,,,,,,70.0,,,,,,70,note_on,,0.0,70.0,0.0,101885,53.065104166666664
9020,9.0,,,,,,,42.0,,,,,,16,note_on,,0.0,42.0,0.0,101901,53.0734375
9021,9.0,,,,,,,44.0,,,,,,0,note_on,,75.0,44.0,75.0,101901,53.0734375
9022,3.0,,,,,,,75.0,,,,,,234,note_on,,127.0,75.0,127.0,53735,27.986979166666668
9023,,,,,,,,,,,,,Like ,0,lyrics,,,,,2459000718894309386,1280729541090786.0
9024,9.0,,,,,,,44.0,,,,,,6,note_on,,0.0,44.0,0.0,101907,53.0765625
9025,7.0,,,,,,,75.0,,,,,,0,note_on,,127.0,75.0,127.0,3252,1.6937499999999999
9026,8.0,,,,,,,87.0,,,,,,0,note_on,,45.0,87.0,45.0,18885,9.8359375
9027,8.0,,,,,,,63.0,,,,,,0,note_on,,127.0,63.0,127.0,18885,9.8359375
9028,9.0,,,,,,,42.0,,,,,,0,note_on,,85.0,42.0,85.0,101907,53.0765625
9029,9.0,,,,,,,70.0,,,,,,0,note_on,,40.0,70.0,40.0,101907,53.0765625
9030,9.0,,,,,,,39.0,,,,,,0,note_on,,127.0,39.0,127.0,101907,53.0765625
9031,9.0,,,,,,,28.0,,,,,,0,note_on,,127.0,28.0,127.0,101907,53.0765625
9032,9.0,,,,,,,39.0,,,,,,123,note_on,,0.0,39.0,0.0,102030,53.140625
9033,9.0,,,,,,,28.0,,,,,,2,note_on,,0.0,28.0,0.0,102032,53.141666666666666
9034,8.0,,,,,,,87.0,,,,,,10,note_on,,0.0,87.0,0.0,18895,9.841145833333334
9035,9.0,,,,,,,70.0,,,,,,89,note_on,,0.0,70.0,0.0,102121,53.18802083333333
9036,9.0,,,,,,,42.0,,,,,,0,note_on,,0.0,42.0,0.0,102121,53.18802083333333
9037,9.0,,,,,,,42.0,,,,,,16,note_on,,0.0,42.0,0.0,102137,53.196354166666666
9038,9.0,,,,,,,44.0,,,,,,0,note_on,,75.0,44.0,75.0,102137,53.196354166666666
9039,9.0,,,,,,,44.0,,,,,,240,note_on,,0.0,44.0,0.0,102377,53.321354166666666
9040,8.0,,,,,,,87.0,,,,,,0,note_on,,45.0,87.0,45.0,18895,9.841145833333334
9041,9.0,,,,,,,42.0,,,,,,0,note_on,,85.0,42.0,85.0,102377,53.321354166666666
9042,9.0,,,,,,,61.0,,,,,,0,note_on,,100.0,61.0,100.0,102377,53.321354166666666
9043,9.0,,,,,,,70.0,,,,,,0,note_on,,40.0,70.0,40.0,102377,53.321354166666666
9044,5.0,,,,,,,55.0,,,,,,20,note_on,,0.0,55.0,0.0,1818,0.946875
9045,7.0,,,,,,,75.0,,,,,,52,note_on,,0.0,75.0,0.0,3304,1.7208333333333332
9046,8.0,,,,,,,63.0,,,,,,0,note_on,,0.0,63.0,0.0,18895,9.841145833333334
9047,5.0,,,,,,,63.0,,,,,,29,note_on,,0.0,63.0,0.0,1847,0.9619791666666666
9048,9.0,,,,,,,61.0,,,,,,13,note_on,,0.0,61.0,0.0,102390,53.328125
9049,9.0,,,,,,,61.0,,,,,,6,note_on,,100.0,61.0,100.0,102396,53.33125
9050,8.0,,,,,,,87.0,,,,,,4,note_on,,0.0,87.0,0.0,18899,9.843229166666667
9051,5.0,,,,,,,60.0,,,,,,2,note_on,,0.0,60.0,0.0,1849,0.9630208333333333
9052,3.0,,,,,,,75.0,,,,,,78,note_on,,0.0,75.0,0.0,53813,28.027604166666666
9053,9.0,,,,,,,70.0,,,,,,20,note_on,,0.0,70.0,0.0,102416,53.34166666666667
9054,9.0,,,,,,,61.0,,,,,,10,note_on,,0.0,61.0,0.0,102426,53.346875
9055,9.0,,,,,,,42.0,,,,,,6,note_on,,0.0,42.0,0.0,102432,53.35
9056,9.0,,,,,,,44.0,,,,,,0,note_on,,75.0,44.0,75.0,102432,53.35
9057,9.0,,,,,,,61.0,,,,,,0,note_on,,100.0,61.0,100.0,102432,53.35
9058,5.0,,,,,,,63.0,,,,,,100,note_on,,92.0,63.0,92.0,1949,1.0151041666666667
9059,5.0,,,,,,,60.0,,,,,,0,note_on,,104.0,60.0,104.0,1949,1.0151041666666667
9060,9.0,,,,,,,61.0,,,,,,14,note_on,,0.0,61.0,0.0,102446,53.35729166666667
9061,9.0,,,,,,,61.0,,,,,,6,note_on,,100.0,61.0,100.0,102452,53.360416666666666
9062,5.0,,,,,,,56.0,,,,,,5,note_on,,78.0,56.0,78.0,1954,1.0177083333333332
9063,9.0,,,,,,,61.0,,,,,,109,note_on,,0.0,61.0,0.0,102561,53.4171875
9064,9.0,,,,,,,44.0,,,,,,6,note_on,,0.0,44.0,0.0,102567,53.4203125
9065,1.0,,,,,,,32.0,,,,,,0,note_on,,127.0,32.0,127.0,4815,2.5078125
9066,7.0,,,,,,,82.0,,,,,,0,note_on,,127.0,82.0,127.0,3304,1.7208333333333332
9067,8.0,,,,,,,44.0,,,,,,0,note_on,,127.0,44.0,127.0,18899,9.843229166666667
9068,8.0,,,,,,,70.0,,,,,,0,note_on,,127.0,70.0,127.0,18899,9.843229166666667
9069,9.0,,,,,,,61.0,,,,,,0,note_on,,100.0,61.0,100.0,102567,53.4203125
9070,9.0,,,,,,,42.0,,,,,,0,note_on,,85.0,42.0,85.0,102567,53.4203125
9071,9.0,,,,,,,70.0,,,,,,0,note_on,,40.0,70.0,40.0,102567,53.4203125
9072,9.0,,,,,,,36.0,,,,,,0,note_on,,126.0,36.0,126.0,102567,53.4203125
9073,9.0,,,,,,,35.0,,,,,,0,note_on,,60.0,35.0,60.0,102567,53.4203125
9074,11.0,,,,,,,60.0,,,,,,0,note_on,,127.0,60.0,127.0,25335,13.1953125
9075,11.0,,,,,,,56.0,,,,,,0,note_on,,127.0,56.0,127.0,25335,13.1953125
9076,11.0,,,,,,,63.0,,,,,,0,note_on,,127.0,63.0,127.0,25335,13.1953125
9077,1.0,,,,,,,36.0,,,,,,24,note_on,,0.0,36.0,0.0,4839,2.5203125
9078,3.0,,,,,,,79.0,,,,,,3,note_on,,127.0,79.0,127.0,53816,28.029166666666665
9079,,,,,,,,,,,,,ba ,0,lyrics,,,,,4189022158411888223,2181782374172858.2
9080,8.0,,,,,,,48.0,,,,,,16,note_on,,0.0,48.0,0.0,18915,9.8515625
9081,9.0,,,,,,,61.0,,,,,,71,note_on,,0.0,61.0,0.0,102638,53.45729166666666
9082,9.0,,,,,,,35.0,,,,,,58,note_on,,0.0,35.0,0.0,102696,53.4875
9083,9.0,,,,,,,36.0,,,,,,0,note_on,,0.0,36.0,0.0,102696,53.4875
9084,9.0,,,,,,,42.0,,,,,,52,note_on,,0.0,42.0,0.0,102748,53.514583333333334
9085,9.0,,,,,,,70.0,,,,,,0,note_on,,0.0,70.0,0.0,102748,53.514583333333334
9086,9.0,,,,,,,44.0,,,,,,16,note_on,,75.0,44.0,75.0,102764,53.52291666666667
9087,11.0,,,,,,,56.0,,,,,,191,note_on,,0.0,56.0,0.0,25526,13.294791666666667
9088,11.0,,,,,,,60.0,,,,,,25,note_on,,0.0,60.0,0.0,25551,13.307812499999999
9089,9.0,,,,,,,44.0,,,,,,24,note_on,,0.0,44.0,0.0,102788,53.53541666666666
9090,8.0,,,,,,,87.0,,,,,,0,note_on,,45.0,87.0,45.0,18915,9.8515625
9091,9.0,,,,,,,42.0,,,,,,0,note_on,,85.0,42.0,85.0,102788,53.53541666666666
9092,9.0,,,,,,,70.0,,,,,,0,note_on,,40.0,70.0,40.0,102788,53.53541666666666
9093,10.0,,,,,,,60.0,,,,,,0,note_on,,127.0,60.0,127.0,14454,7.528125
9094,10.0,,,,,,,56.0,,,,,,0,note_on,,127.0,56.0,127.0,14454,7.528125
9095,10.0,,,,,,,63.0,,,,,,0,note_on,,127.0,63.0,127.0,14454,7.528125
9096,11.0,,,,,,,63.0,,,,,,9,note_on,,0.0,63.0,0.0,25560,13.3125
9097,7.0,,,,,,,82.0,,,,,,90,note_on,,0.0,82.0,0.0,3394,1.7677083333333332
9098,8.0,,,,,,,70.0,,,,,,0,note_on,,0.0,70.0,0.0,18915,9.8515625
9099,8.0,,,,,,,87.0,,,,,,24,note_on,,0.0,87.0,0.0,18939,9.8640625
9100,3.0,,,,,,,79.0,,,,,,52,note_on,,0.0,79.0,0.0,53868,28.05625
9101,9.0,,,,,,,70.0,,,,,,49,note_on,,0.0,70.0,0.0,102837,53.5609375
9102,9.0,,,,,,,42.0,,,,,,16,note_on,,0.0,42.0,0.0,102853,53.569270833333334
9103,9.0,,,,,,,44.0,,,,,,0,note_on,,75.0,44.0,75.0,102853,53.569270833333334
9104,9.0,,,,,,,36.0,,,,,,0,note_on,,126.0,36.0,126.0,102853,53.569270833333334
9105,9.0,,,,,,,35.0,,,,,,0,note_on,,60.0,35.0,60.0,102853,53.569270833333334
9106,10.0,,,,,,,56.0,,,,,,191,note_on,,0.0,56.0,0.0,14645,7.627604166666667
9107,3.0,,,,,,,77.0,,,,,,23,note_on,,127.0,77.0,127.0,53891,28.068229166666665
9108,,,,,,,,,,,,,"by, ",0,lyrics,,,,,2314861393371608373,1205656975714379.5
9109,10.0,,,,,,,60.0,,,,,,2,note_on,,0.0,60.0,0.0,14647,7.628645833333334
9110,9.0,,,,,,,35.0,,,,,,8,note_on,,0.0,35.0,0.0,102861,53.5734375
9111,9.0,,,,,,,36.0,,,,,,0,note_on,,0.0,36.0,0.0,102861,53.5734375
9112,9.0,,,,,,,44.0,,,,,,16,note_on,,0.0,44.0,0.0,102877,53.58177083333333
9113,7.0,,,,,,,75.0,,,,,,0,note_on,,127.0,75.0,127.0,3394,1.7677083333333332
9114,8.0,,,,,,,87.0,,,,,,0,note_on,,45.0,87.0,45.0,18939,9.8640625
9115,8.0,,,,,,,63.0,,,,,,0,note_on,,127.0,63.0,127.0,18939,9.8640625
9116,9.0,,,,,,,42.0,,,,,,0,note_on,,85.0,42.0,85.0,102877,53.58177083333333
9117,9.0,,,,,,,70.0,,,,,,0,note_on,,40.0,70.0,40.0,102877,53.58177083333333
9118,9.0,,,,,,,39.0,,,,,,0,note_on,,125.0,39.0,125.0,102877,53.58177083333333
9119,9.0,,,,,,,28.0,,,,,,0,note_on,,127.0,28.0,127.0,102877,53.58177083333333
9120,12.0,,,,,,,60.0,,,,,,0,note_on,,127.0,60.0,127.0,22020,11.46875
9121,12.0,,,,,,,56.0,,,,,,0,note_on,,127.0,56.0,127.0,22020,11.46875
9122,12.0,,,,,,,63.0,,,,,,0,note_on,,127.0,63.0,127.0,22020,11.46875
9123,10.0,,,,,,,63.0,,,,,,9,note_on,,0.0,63.0,0.0,14656,7.633333333333333
9124,9.0,,,,,,,28.0,,,,,,108,note_on,,0.0,28.0,0.0,102985,53.638020833333336
9125,8.0,,,,,,,87.0,,,,,,10,note_on,,0.0,87.0,0.0,18949,9.869270833333333
9126,9.0,,,,,,,39.0,,,,,,24,note_on,,0.0,39.0,0.0,103009,53.65052083333333
9127,9.0,,,,,,,42.0,,,,,,73,note_on,,0.0,42.0,0.0,103082,53.688541666666666
9128,9.0,,,,,,,70.0,,,,,,0,note_on,,0.0,70.0,0.0,103082,53.688541666666666
9129,9.0,,,,,,,44.0,,,,,,16,note_on,,75.0,44.0,75.0,103098,53.696875
9130,12.0,,,,,,,56.0,,,,,,191,note_on,,0.0,56.0,0.0,22211,11.568229166666667
9131,12.0,,,,,,,60.0,,,,,,25,note_on,,0.0,60.0,0.0,22236,11.58125
9132,9.0,,,,,,,44.0,,,,,,24,note_on,,0.0,44.0,0.0,103122,53.709375
9133,8.0,,,,,,,87.0,,,,,,0,note_on,,45.0,87.0,45.0,18949,9.869270833333333
9134,9.0,,,,,,,42.0,,,,,,0,note_on,,85.0,42.0,85.0,103122,53.709375
9135,9.0,,,,,,,70.0,,,,,,0,note_on,,40.0,70.0,40.0,103122,53.709375
9136,9.0,,,,,,,36.0,,,,,,0,note_on,,126.0,36.0,126.0,103122,53.709375
9137,9.0,,,,,,,35.0,,,,,,0,note_on,,60.0,35.0,60.0,103122,53.709375
9138,12.0,,,,,,,63.0,,,,,,9,note_on,,0.0,63.0,0.0,22245,11.5859375
9139,7.0,,,,,,,75.0,,,,,,17,note_on,,0.0,75.0,0.0,3411,1.7765625
9140,8.0,,,,,,,63.0,,,,,,0,note_on,,0.0,63.0,0.0,18949,9.869270833333333
9141,8.0,,,,,,,87.0,,,,,,98,note_on,,0.0,87.0,0.0,19047,9.9203125
9142,9.0,,,,,,,35.0,,,,,,42,note_on,,0.0,35.0,0.0,103164,53.731249999999996
9143,9.0,,,,,,,36.0,,,,,,0,note_on,,0.0,36.0,0.0,103164,53.731249999999996
9144,3.0,,,,,,,77.0,,,,,,5,note_on,,0.0,77.0,0.0,53896,28.070833333333333
9145,9.0,,,,,,,70.0,,,,,,53,note_on,,0.0,70.0,0.0,103217,53.758854166666666
9146,9.0,,,,,,,42.0,,,,,,16,note_on,,0.0,42.0,0.0,103233,53.7671875
9147,8.0,,,,,,,87.0,,,,,,0,note_on,,45.0,87.0,45.0,19047,9.9203125
9148,9.0,,,,,,,44.0,,,,,,0,note_on,,75.0,44.0,75.0,103233,53.7671875
9149,8.0,,,,,,,87.0,,,,,,130,note_on,,0.0,87.0,0.0,19177,9.988020833333334
9150,9.0,,,,,,,44.0,,,,,,110,note_on,,0.0,44.0,0.0,103343,53.82447916666666
9151,7.0,,,,,,,77.0,,,,,,0,note_on,,127.0,77.0,127.0,3411,1.7765625
9152,8.0,,,,,,,65.0,,,,,,0,note_on,,127.0,65.0,127.0,19177,9.988020833333334
9153,9.0,,,,,,,42.0,,,,,,0,note_on,,85.0,42.0,85.0,103343,53.82447916666666
9154,9.0,,,,,,,70.0,,,,,,0,note_on,,40.0,70.0,40.0,103343,53.82447916666666
9155,3.0,,,,,,,79.0,,,,,,6,note_on,,127.0,79.0,127.0,53902,28.073958333333334
9156,,,,,,,,,,,,,ba ,0,lyrics,,,,,7311031252016037920,3807828777091686.5
9157,9.0,,,,,,,70.0,,,,,,218,note_on,,0.0,70.0,0.0,103561,53.93802083333333
9158,9.0,,,,,,,42.0,,,,,,0,note_on,,0.0,42.0,0.0,103561,53.93802083333333
9159,9.0,,,,,,,44.0,,,,,,16,note_on,,75.0,44.0,75.0,103577,53.946354166666666
9160,9.0,,,,,,,44.0,,,,,,240,note_on,,0.0,44.0,0.0,103817,54.071354166666666
9161,8.0,,,,,,,87.0,,,,,,0,note_on,,45.0,87.0,45.0,19177,9.988020833333334
9162,9.0,,,,,,,42.0,,,,,,0,note_on,,85.0,42.0,85.0,103817,54.071354166666666
9163,9.0,,,,,,,70.0,,,,,,0,note_on,,40.0,70.0,40.0,103817,54.071354166666666
9164,9.0,,,,,,,36.0,,,,,,0,note_on,,126.0,36.0,126.0,103817,54.071354166666666
9165,9.0,,,,,,,35.0,,,,,,0,note_on,,60.0,35.0,60.0,103817,54.071354166666666
9166,8.0,,,,,,,87.0,,,,,,116,note_on,,0.0,87.0,0.0,19293,10.0484375
9167,8.0,,,,,,,65.0,,,,,,29,note_on,,0.0,65.0,0.0,19322,10.063541666666666
9168,7.0,,,,,,,77.0,,,,,,0,note_on,,0.0,77.0,0.0,3411,1.7765625
9169,9.0,,,,,,,35.0,,,,,,9,note_on,,0.0,35.0,0.0,103826,54.07604166666667
9170,9.0,,,,,,,36.0,,,,,,0,note_on,,0.0,36.0,0.0,103826,54.07604166666667
9171,3.0,,,,,,,79.0,,,,,,53,note_on,,0.0,79.0,0.0,53955,28.1015625
9172,9.0,,,,,,,70.0,,,,,,17,note_on,,0.0,70.0,0.0,103843,54.084895833333334
9173,9.0,,,,,,,42.0,,,,,,16,note_on,,0.0,42.0,0.0,103859,54.09322916666667
9174,9.0,,,,,,,44.0,,,,,,0,note_on,,75.0,44.0,75.0,103859,54.09322916666667
9175,9.0,,,,,,,44.0,,,,,,240,note_on,,0.0,44.0,0.0,104099,54.21822916666667
9176,7.0,,,,,,,70.0,,,,,,0,note_on,,127.0,70.0,127.0,3411,1.7765625
9177,8.0,,,,,,,87.0,,,,,,0,note_on,,45.0,87.0,45.0,19322,10.063541666666666
9178,8.0,,,,,,,58.0,,,,,,0,note_on,,127.0,58.0,127.0,19322,10.063541666666666
9179,9.0,,,,,,,42.0,,,,,,0,note_on,,85.0,42.0,85.0,104099,54.21822916666667
9180,9.0,,,,,,,70.0,,,,,,0,note_on,,40.0,70.0,40.0,104099,54.21822916666667
9181,9.0,,,,,,,39.0,,,,,,0,note_on,,127.0,39.0,127.0,104099,54.21822916666667
9182,9.0,,,,,,,28.0,,,,,,0,note_on,,127.0,28.0,127.0,104099,54.21822916666667
9183,11.0,,,,,,,60.0,,,,,,0,note_on,,127.0,60.0,127.0,25560,13.3125
9184,11.0,,,,,,,65.0,,,,,,0,note_on,,127.0,65.0,127.0,25560,13.3125
9185,11.0,,,,,,,56.0,,,,,,0,note_on,,127.0,56.0,127.0,25560,13.3125
9186,3.0,,,,,,,77.0,,,,,,2,note_on,,127.0,77.0,127.0,53957,28.102604166666666
9187,,,,,,,,,,,,,"by, ",0,lyrics,,,,,522,0.271875
9188,9.0,,,,,,,39.0,,,,,,121,note_on,,0.0,39.0,0.0,104220,54.28125
9189,9.0,,,,,,,28.0,,,,,,2,note_on,,0.0,28.0,0.0,104222,54.282291666666666
9190,8.0,,,,,,,87.0,,,,,,1,note_on,,0.0,87.0,0.0,19323,10.0640625
9191,3.0,,,,,,,77.0,,,,,,70,note_on,,0.0,77.0,0.0,54027,28.139062499999998
9192,9.0,,,,,,,42.0,,,,,,28,note_on,,0.0,42.0,0.0,104250,54.296875
9193,9.0,,,,,,,70.0,,,,,,0,note_on,,0.0,70.0,0.0,104250,54.296875
9194,9.0,,,,,,,44.0,,,,,,16,note_on,,75.0,44.0,75.0,104266,54.30520833333333
9195,11.0,,,,,,,65.0,,,,,,144,note_on,,0.0,65.0,0.0,25704,13.3875
9196,11.0,,,,,,,56.0,,,,,,10,note_on,,0.0,56.0,0.0,25714,13.392708333333333
9197,11.0,,,,,,,60.0,,,,,,21,note_on,,0.0,60.0,0.0,25735,13.403645833333334
9198,3.0,,,,,,,79.0,,,,,,56,note_on,,127.0,79.0,127.0,54083,28.168229166666666
9199,,,,,,,,,,,,,ba ,0,lyrics,,,,,526,0.2739583333333333
9200,9.0,,,,,,,44.0,,,,,,9,note_on,,0.0,44.0,0.0,104275,54.309895833333336
9201,8.0,,,,,,,87.0,,,,,,0,note_on,,45.0,87.0,45.0,19323,10.0640625
9202,9.0,,,,,,,42.0,,,,,,0,note_on,,85.0,42.0,85.0,104275,54.309895833333336
9203,9.0,,,,,,,70.0,,,,,,0,note_on,,40.0,70.0,40.0,104275,54.309895833333336
9204,10.0,,,,,,,60.0,,,,,,0,note_on,,127.0,60.0,127.0,14656,7.633333333333333
9205,10.0,,,,,,,65.0,,,,,,0,note_on,,127.0,65.0,127.0,14656,7.633333333333333
9206,10.0,,,,,,,56.0,,,,,,0,note_on,,127.0,56.0,127.0,14656,7.633333333333333
9207,11.0,,,,,,,60.0,,,,,,0,note_on,,127.0,60.0,127.0,25735,13.403645833333334
9208,11.0,,,,,,,56.0,,,,,,0,note_on,,124.0,56.0,124.0,25735,13.403645833333334
9209,11.0,,,,,,,63.0,,,,,,0,note_on,,127.0,63.0,127.0,25735,13.403645833333334
9210,8.0,,,,,,,58.0,,,,,,97,note_on,,0.0,58.0,0.0,19420,10.114583333333334
9211,7.0,,,,,,,70.0,,,,,,0,note_on,,0.0,70.0,0.0,3411,1.7765625
9212,8.0,,,,,,,87.0,,,,,,16,note_on,,0.0,87.0,0.0,19436,10.122916666666667
9213,9.0,,,,,,,70.0,,,,,,111,note_on,,0.0,70.0,0.0,104386,54.36770833333333
9214,9.0,,,,,,,42.0,,,,,,16,note_on,,0.0,42.0,0.0,104402,54.376041666666666
9215,9.0,,,,,,,44.0,,,,,,0,note_on,,75.0,44.0,75.0,104402,54.376041666666666
9216,10.0,,,,,,,65.0,,,,,,144,note_on,,0.0,65.0,0.0,14800,7.708333333333333
9217,10.0,,,,,,,56.0,,,,,,10,note_on,,0.0,56.0,0.0,14810,7.713541666666667
9218,10.0,,,,,,,60.0,,,,,,21,note_on,,0.0,60.0,0.0,14831,7.724479166666667
9219,11.0,,,,,,,56.0,,,,,,46,note_on,,0.0,56.0,0.0,25781,13.427604166666667
9220,9.0,,,,,,,44.0,,,,,,19,note_on,,0.0,44.0,0.0,104421,54.3859375
9221,7.0,,,,,,,82.0,,,,,,0,note_on,,127.0,82.0,127.0,3411,1.7765625
9222,8.0,,,,,,,70.0,,,,,,0,note_on,,127.0,70.0,127.0,19436,10.122916666666667
9223,9.0,,,,,,,42.0,,,,,,0,note_on,,85.0,42.0,85.0,104421,54.3859375
9224,9.0,,,,,,,70.0,,,,,,0,note_on,,40.0,70.0,40.0,104421,54.3859375
9225,9.0,,,,,,,36.0,,,,,,0,note_on,,126.0,36.0,126.0,104421,54.3859375
9226,9.0,,,,,,,35.0,,,,,,0,note_on,,60.0,35.0,60.0,104421,54.3859375
9227,10.0,,,,,,,60.0,,,,,,0,note_on,,127.0,60.0,127.0,14831,7.724479166666667
9228,10.0,,,,,,,56.0,,,,,,0,note_on,,124.0,56.0,124.0,14831,7.724479166666667
9229,10.0,,,,,,,63.0,,,,,,0,note_on,,127.0,63.0,127.0,14831,7.724479166666667
9230,12.0,,,,,,,60.0,,,,,,0,note_on,,127.0,60.0,127.0,22245,11.5859375
9231,12.0,,,,,,,65.0,,,,,,0,note_on,,127.0,65.0,127.0,22245,11.5859375
9232,12.0,,,,,,,56.0,,,,,,0,note_on,,127.0,56.0,127.0,22245,11.5859375
9233,11.0,,,,,,,63.0,,,,,,14,note_on,,0.0,63.0,0.0,25795,13.434895833333334
9234,11.0,,,,,,,60.0,,,,,,6,note_on,,0.0,60.0,0.0,25801,13.438020833333333
9235,9.0,,,,,,,35.0,,,,,,152,note_on,,0.0,35.0,0.0,104573,54.46510416666666
9236,9.0,,,,,,,36.0,,,,,,0,note_on,,0.0,36.0,0.0,104573,54.46510416666666
9237,9.0,,,,,,,42.0,,,,,,52,note_on,,0.0,42.0,0.0,104625,54.4921875
9238,9.0,,,,,,,70.0,,,,,,0,note_on,,0.0,70.0,0.0,104625,54.4921875
9239,3.0,,,,,,,79.0,,,,,,16,note_on,,0.0,79.0,0.0,54099,28.1765625
9240,8.0,,,,,,,87.0,,,,,,0,note_on,,45.0,87.0,45.0,19436,10.122916666666667
9241,9.0,,,,,,,44.0,,,,,,0,note_on,,75.0,44.0,75.0,104625,54.4921875
9242,8.0,,,,,,,87.0,,,,,,131,note_on,,0.0,87.0,0.0,19567,10.191145833333334
9243,12.0,,,,,,,65.0,,,,,,13,note_on,,0.0,65.0,0.0,22258,11.592708333333333
9244,12.0,,,,,,,56.0,,,,,,10,note_on,,0.0,56.0,0.0,22268,11.597916666666666
9245,3.0,,,,,,,77.0,,,,,,8,note_on,,127.0,77.0,127.0,54107,28.180729166666666
9246,,,,,,,,,,,,,by ,0,lyrics,,,,,4664789704,2429577.970833333
9247,12.0,,,,,,,60.0,,,,,,13,note_on,,0.0,60.0,0.0,22281,11.6046875
9248,10.0,,,,,,,56.0,,,,,,46,note_on,,0.0,56.0,0.0,14877,7.7484375
9249,9.0,,,,,,,44.0,,,,,,19,note_on,,0.0,44.0,0.0,104644,54.50208333333333
9250,9.0,,,,,,,42.0,,,,,,0,note_on,,85.0,42.0,85.0,104644,54.50208333333333
9251,9.0,,,,,,,70.0,,,,,,0,note_on,,40.0,70.0,40.0,104644,54.50208333333333
9252,12.0,,,,,,,60.0,,,,,,0,note_on,,127.0,60.0,127.0,22281,11.6046875
9253,12.0,,,,,,,56.0,,,,,,0,note_on,,124.0,56.0,124.0,22281,11.6046875
9254,12.0,,,,,,,63.0,,,,,,0,note_on,,127.0,63.0,127.0,22281,11.6046875
9255,10.0,,,,,,,63.0,,,,,,14,note_on,,0.0,63.0,0.0,14891,7.755729166666667
9256,7.0,,,,,,,82.0,,,,,,0,note_on,,0.0,82.0,0.0,3411,1.7765625
9257,8.0,,,,,,,70.0,,,,,,0,note_on,,0.0,70.0,0.0,19567,10.191145833333334
9258,10.0,,,,,,,60.0,,,,,,6,note_on,,0.0,60.0,0.0,14897,7.758854166666667
9259,9.0,,,,,,,70.0,,,,,,204,note_on,,0.0,70.0,0.0,104848,54.608333333333334
9260,9.0,,,,,,,42.0,,,,,,16,note_on,,0.0,42.0,0.0,104864,54.61666666666667
9261,8.0,,,,,,,87.0,,,,,,0,note_on,,45.0,87.0,45.0,19567,10.191145833333334
9262,9.0,,,,,,,44.0,,,,,,0,note_on,,75.0,44.0,75.0,104864,54.61666666666667
9263,9.0,,,,,,,36.0,,,,,,0,note_on,,126.0,36.0,126.0,104864,54.61666666666667
9264,9.0,,,,,,,35.0,,,,,,0,note_on,,60.0,35.0,60.0,104864,54.61666666666667
9265,8.0,,,,,,,87.0,,,,,,136,note_on,,0.0,87.0,0.0,19703,10.261979166666666
9266,12.0,,,,,,,56.0,,,,,,85,note_on,,0.0,56.0,0.0,22366,11.648958333333333
9267,9.0,,,,,,,35.0,,,,,,3,note_on,,0.0,35.0,0.0,104867,54.618229166666666
9268,9.0,,,,,,,36.0,,,,,,0,note_on,,0.0,36.0,0.0,104867,54.618229166666666
9269,9.0,,,,,,,44.0,,,,,,16,note_on,,0.0,44.0,0.0,104883,54.6265625
9270,7.0,,,,,,,75.0,,,,,,0,note_on,,127.0,75.0,127.0,3411,1.7765625
9271,8.0,,,,,,,63.0,,,,,,0,note_on,,127.0,63.0,127.0,19703,10.261979166666666
9272,9.0,,,,,,,42.0,,,,,,0,note_on,,85.0,42.0,85.0,104883,54.6265625
9273,9.0,,,,,,,70.0,,,,,,0,note_on,,40.0,70.0,40.0,104883,54.6265625
9274,9.0,,,,,,,39.0,,,,,,0,note_on,,125.0,39.0,125.0,104883,54.6265625
9275,9.0,,,,,,,28.0,,,,,,0,note_on,,127.0,28.0,127.0,104883,54.6265625
9276,12.0,,,,,,,63.0,,,,,,14,note_on,,0.0,63.0,0.0,22380,11.65625
9277,12.0,,,,,,,60.0,,,,,,6,note_on,,0.0,60.0,0.0,22386,11.659375
9278,9.0,,,,,,,28.0,,,,,,97,note_on,,0.0,28.0,0.0,104980,54.677083333333336
9279,9.0,,,,,,,39.0,,,,,,34,note_on,,0.0,39.0,0.0,105014,54.69479166666667
9280,9.0,,,,,,,70.0,,,,,,73,note_on,,0.0,70.0,0.0,105087,54.7328125
9281,9.0,,,,,,,42.0,,,,,,0,note_on,,0.0,42.0,0.0,105087,54.7328125
9282,8.0,,,,,,,87.0,,,,,,16,note_on,,45.0,87.0,45.0,19719,10.2703125
9283,9.0,,,,,,,44.0,,,,,,0,note_on,,75.0,44.0,75.0,105087,54.7328125
9284,3.0,,,,,,,77.0,,,,,,55,note_on,,0.0,77.0,0.0,54162,28.209374999999998
9285,8.0,,,,,,,87.0,,,,,,77,note_on,,0.0,87.0,0.0,19796,10.310416666666667
9286,3.0,,,,,,,82.0,,,,,,33,note_on,,127.0,82.0,127.0,54195,28.2265625
9287,,,,,,,,,,,,,ohh ,0,lyrics,,,,,4664828976,2429598.425
9288,,,,,,,,,,,,,,0,lyrics,,,,,4664844584,2429606.5541666667
9289,9.0,,,,,,,44.0,,,,,,75,note_on,,0.0,44.0,0.0,105162,54.771875
9290,9.0,,,,,,,42.0,,,,,,0,note_on,,85.0,42.0,85.0,105162,54.771875
9291,9.0,,,,,,,70.0,,,,,,0,note_on,,40.0,70.0,40.0,105162,54.771875
9292,9.0,,,,,,,36.0,,,,,,0,note_on,,126.0,36.0,126.0,105162,54.771875
9293,9.0,,,,,,,35.0,,,,,,0,note_on,,60.0,35.0,60.0,105162,54.771875
9294,7.0,,,,,,,75.0,,,,,,87,note_on,,0.0,75.0,0.0,3498,1.821875
9295,8.0,,,,,,,63.0,,,,,,0,note_on,,0.0,63.0,0.0,19796,10.310416666666667
9296,9.0,,,,,,,36.0,,,,,,79,note_on,,0.0,36.0,0.0,105241,54.81302083333333
9297,9.0,,,,,,,35.0,,,,,,0,note_on,,0.0,35.0,0.0,105241,54.81302083333333
9298,9.0,,,,,,,70.0,,,,,,58,note_on,,0.0,70.0,0.0,105299,54.84322916666667
9299,9.0,,,,,,,42.0,,,,,,16,note_on,,0.0,42.0,0.0,105315,54.8515625
9300,8.0,,,,,,,87.0,,,,,,0,note_on,,45.0,87.0,45.0,19796,10.310416666666667
9301,9.0,,,,,,,44.0,,,,,,0,note_on,,75.0,44.0,75.0,105315,54.8515625
9302,8.0,,,,,,,87.0,,,,,,137,note_on,,0.0,87.0,0.0,19933,10.381770833333333
9303,9.0,,,,,,,44.0,,,,,,103,note_on,,0.0,44.0,0.0,105418,54.905208333333334
9304,7.0,,,,,,,77.0,,,,,,0,note_on,,127.0,77.0,127.0,3498,1.821875
9305,8.0,,,,,,,65.0,,,,,,0,note_on,,127.0,65.0,127.0,19933,10.381770833333333
9306,9.0,,,,,,,42.0,,,,,,0,note_on,,85.0,42.0,85.0,105418,54.905208333333334
9307,9.0,,,,,,,70.0,,,,,,0,note_on,,40.0,70.0,40.0,105418,54.905208333333334
9308,9.0,,,,,,,70.0,,,,,,224,note_on,,0.0,70.0,0.0,105642,55.021875
9309,9.0,,,,,,,44.0,,,,,,16,note_on,,75.0,44.0,75.0,105658,55.030208333333334
9310,9.0,,,,,,,44.0,,,,,,240,note_on,,0.0,44.0,0.0,105898,55.155208333333334
9311,8.0,,,,,,,87.0,,,,,,0,note_on,,45.0,87.0,45.0,19933,10.381770833333333
9312,9.0,,,,,,,42.0,,,,,,0,note_on,,85.0,42.0,85.0,105898,55.155208333333334
9313,9.0,,,,,,,70.0,,,,,,0,note_on,,40.0,70.0,40.0,105898,55.155208333333334
9314,9.0,,,,,,,36.0,,,,,,0,note_on,,126.0,36.0,126.0,105898,55.155208333333334
9315,9.0,,,,,,,35.0,,,,,,0,note_on,,60.0,35.0,60.0,105898,55.155208333333334
9316,3.0,,,,,,,82.0,,,,,,27,note_on,,0.0,82.0,0.0,54222,28.240624999999998
9317,8.0,,,,,,,65.0,,,,,,8,note_on,,0.0,65.0,0.0,19941,10.3859375
9318,7.0,,,,,,,77.0,,,,,,0,note_on,,0.0,77.0,0.0,3498,1.821875
9319,8.0,,,,,,,87.0,,,,,,98,note_on,,0.0,87.0,0.0,20039,10.436979166666667
9320,9.0,,,,,,,35.0,,,,,,21,note_on,,0.0,35.0,0.0,105919,55.16614583333333
9321,9.0,,,,,,,36.0,,,,,,0,note_on,,0.0,36.0,0.0,105919,55.16614583333333
9322,9.0,,,,,,,70.0,,,,,,70,note_on,,0.0,70.0,0.0,105989,55.20260416666667
9323,9.0,,,,,,,42.0,,,,,,16,note_on,,0.0,42.0,0.0,106005,55.2109375
9324,9.0,,,,,,,44.0,,,,,,0,note_on,,75.0,44.0,75.0,106005,55.2109375
9325,9.0,,,,,,,44.0,,,,,,240,note_on,,0.0,44.0,0.0,106245,55.3359375
9326,7.0,,,,,,,75.0,,,,,,0,note_on,,127.0,75.0,127.0,3498,1.821875
9327,8.0,,,,,,,87.0,,,,,,0,note_on,,45.0,87.0,45.0,20039,10.436979166666667
9328,8.0,,,,,,,63.0,,,,,,0,note_on,,127.0,63.0,127.0,20039,10.436979166666667
9329,9.0,,,,,,,42.0,,,,,,0,note_on,,85.0,42.0,85.0,106245,55.3359375
9330,9.0,,,,,,,70.0,,,,,,0,note_on,,40.0,70.0,40.0,106245,55.3359375
9331,9.0,,,,,,,39.0,,,,,,0,note_on,,127.0,39.0,127.0,106245,55.3359375
9332,9.0,,,,,,,28.0,,,,,,0,note_on,,127.0,28.0,127.0,106245,55.3359375
9333,9.0,,,,,,,39.0,,,,,,123,note_on,,0.0,39.0,0.0,106368,55.4
9334,9.0,,,,,,,28.0,,,,,,2,note_on,,0.0,28.0,0.0,106370,55.401041666666664
9335,8.0,,,,,,,87.0,,,,,,2,note_on,,0.0,87.0,0.0,20041,10.438020833333333
9336,9.0,,,,,,,42.0,,,,,,97,note_on,,0.0,42.0,0.0,106467,55.4515625
9337,9.0,,,,,,,70.0,,,,,,0,note_on,,0.0,70.0,0.0,106467,55.4515625
9338,9.0,,,,,,,42.0,,,,,,16,note_on,,0.0,42.0,0.0,106483,55.459895833333334
9339,9.0,,,,,,,44.0,,,,,,0,note_on,,75.0,44.0,75.0,106483,55.459895833333334
9340,9.0,,,,,,,44.0,,,,,,240,note_on,,0.0,44.0,0.0,106723,55.584895833333334
9341,8.0,,,,,,,87.0,,,,,,0,note_on,,45.0,87.0,45.0,20041,10.438020833333333
9342,9.0,,,,,,,42.0,,,,,,0,note_on,,85.0,42.0,85.0,106723,55.584895833333334
9343,9.0,,,,,,,61.0,,,,,,0,note_on,,100.0,61.0,100.0,106723,55.584895833333334
9344,9.0,,,,,,,70.0,,,,,,0,note_on,,40.0,70.0,40.0,106723,55.584895833333334
9345,7.0,,,,,,,75.0,,,,,,91,note_on,,0.0,75.0,0.0,3589,1.8692708333333332
9346,8.0,,,,,,,63.0,,,,,,0,note_on,,0.0,63.0,0.0,20041,10.438020833333333
9347,9.0,,,,,,,61.0,,,,,,23,note_on,,0.0,61.0,0.0,106746,55.596875
9348,8.0,,,,,,,87.0,,,,,,4,note_on,,0.0,87.0,0.0,20045,10.440104166666666
9349,9.0,,,,,,,61.0,,,,,,2,note_on,,100.0,61.0,100.0,106748,55.59791666666666
9350,5.0,,,,,,,63.0,,,,,,78,note_on,,0.0,63.0,0.0,2032,1.0583333333333333
9351,5.0,,,,,,,56.0,,,,,,24,note_on,,0.0,56.0,0.0,2056,1.0708333333333333
9352,9.0,,,,,,,70.0,,,,,,2,note_on,,0.0,70.0,0.0,106750,55.598958333333336
9353,5.0,,,,,,,60.0,,,,,,8,note_on,,0.0,60.0,0.0,2064,1.075
9354,9.0,,,,,,,61.0,,,,,,2,note_on,,0.0,61.0,0.0,106752,55.6
9355,9.0,,,,,,,42.0,,,,,,6,note_on,,0.0,42.0,0.0,106758,55.603125
9356,9.0,,,,,,,44.0,,,,,,0,note_on,,75.0,44.0,75.0,106758,55.603125
9357,9.0,,,,,,,61.0,,,,,,0,note_on,,100.0,61.0,100.0,106758,55.603125
9358,9.0,,,,,,,61.0,,,,,,114,note_on,,0.0,61.0,0.0,106872,55.6625
9359,9.0,,,,,,,61.0,,,,,,6,note_on,,100.0,61.0,100.0,106878,55.665625
9360,8.0,,,,,,,44.0,,,,,,80,note_on,,0.0,44.0,0.0,20125,10.481770833333334
9361,9.0,,,,,,,61.0,,,,,,34,note_on,,0.0,61.0,0.0,106912,55.68333333333333
9362,9.0,,,,,,,44.0,,,,,,6,note_on,,0.0,44.0,0.0,106918,55.686458333333334
9363,1.0,,,,,,,34.0,,,,,,0,note_on,,127.0,34.0,127.0,4839,2.5203125
9364,3.0,,,,,,,79.0,,,,,,0,note_on,,127.0,79.0,127.0,54222,28.240624999999998
9365,7.0,,,,,,,82.0,,,,,,0,note_on,,127.0,82.0,127.0,3589,1.8692708333333332
9366,8.0,,,,,,,46.0,,,,,,0,note_on,,127.0,46.0,127.0,20125,10.481770833333334
9367,8.0,,,,,,,70.0,,,,,,0,note_on,,127.0,70.0,127.0,20125,10.481770833333334
9368,9.0,,,,,,,61.0,,,,,,0,note_on,,100.0,61.0,100.0,106918,55.686458333333334
9369,9.0,,,,,,,42.0,,,,,,0,note_on,,85.0,42.0,85.0,106918,55.686458333333334
9370,9.0,,,,,,,70.0,,,,,,0,note_on,,40.0,70.0,40.0,106918,55.686458333333334
9371,9.0,,,,,,,36.0,,,,,,0,note_on,,126.0,36.0,126.0,106918,55.686458333333334
9372,9.0,,,,,,,35.0,,,,,,0,note_on,,60.0,35.0,60.0,106918,55.686458333333334
9373,11.0,,,,,,,62.0,,,,,,0,note_on,,127.0,62.0,127.0,25801,13.438020833333333
9374,11.0,,,,,,,58.0,,,,,,0,note_on,,127.0,58.0,127.0,25801,13.438020833333333
9375,11.0,,,,,,,65.0,,,,,,0,note_on,,127.0,65.0,127.0,25801,13.438020833333333
9376,,,,,,,,,,,,,I ,0,lyrics,,,,,585,0.3046875
9377,1.0,,,,,,,32.0,,,,,,6,note_on,,0.0,32.0,0.0,4845,2.5234375
9378,5.0,,,,,,,58.0,,,,,,2,note_on,,101.0,58.0,101.0,2066,1.0760416666666666
9379,5.0,,,,,,,62.0,,,,,,6,note_on,,90.0,62.0,90.0,2072,1.0791666666666666
9380,5.0,,,,,,,53.0,,,,,,6,note_on,,96.0,53.0,96.0,2078,1.0822916666666667
9381,9.0,,,,,,,61.0,,,,,,94,note_on,,0.0,61.0,0.0,107012,55.735416666666666
9382,9.0,,,,,,,35.0,,,,,,58,note_on,,0.0,35.0,0.0,107070,55.765625
9383,9.0,,,,,,,36.0,,,,,,0,note_on,,0.0,36.0,0.0,107070,55.765625
9384,3.0,,,,,,,79.0,,,,,,32,note_on,,0.0,79.0,0.0,54254,28.257291666666667
9385,9.0,,,,,,,42.0,,,,,,20,note_on,,0.0,42.0,0.0,107090,55.776041666666664
9386,9.0,,,,,,,70.0,,,,,,0,note_on,,0.0,70.0,0.0,107090,55.776041666666664
9387,9.0,,,,,,,44.0,,,,,,16,note_on,,75.0,44.0,75.0,107106,55.784375
9388,11.0,,,,,,,58.0,,,,,,234,note_on,,0.0,58.0,0.0,26035,13.559895833333334
9389,9.0,,,,,,,44.0,,,,,,6,note_on,,0.0,44.0,0.0,107112,55.7875
9390,3.0,,,,,,,77.0,,,,,,0,note_on,,127.0,77.0,127.0,54254,28.257291666666667
9391,8.0,,,,,,,87.0,,,,,,0,note_on,,45.0,87.0,45.0,20125,10.481770833333334
9392,9.0,,,,,,,42.0,,,,,,0,note_on,,85.0,42.0,85.0,107112,55.7875
9393,9.0,,,,,,,70.0,,,,,,0,note_on,,40.0,70.0,40.0,107112,55.7875
9394,10.0,,,,,,,62.0,,,,,,0,note_on,,127.0,62.0,127.0,14897,7.758854166666667
9395,10.0,,,,,,,58.0,,,,,,0,note_on,,127.0,58.0,127.0,14897,7.758854166666667
9396,10.0,,,,,,,65.0,,,,,,0,note_on,,127.0,65.0,127.0,14897,7.758854166666667
9397,,,,,,,,,,,,,thought ,0,lyrics,,,,,592,0.30833333333333335
9398,8.0,,,,,,,70.0,,,,,,29,note_on,,0.0,70.0,0.0,20154,10.496875
9399,7.0,,,,,,,82.0,,,,,,0,note_on,,0.0,82.0,0.0,3589,1.8692708333333332
9400,11.0,,,,,,,65.0,,,,,,18,note_on,,0.0,65.0,0.0,26053,13.569270833333333
9401,11.0,,,,,,,62.0,,,,,,2,note_on,,0.0,62.0,0.0,26055,13.5703125
9402,8.0,,,,,,,87.0,,,,,,67,note_on,,0.0,87.0,0.0,20221,10.531770833333333
9403,3.0,,,,,,,77.0,,,,,,88,note_on,,0.0,77.0,0.0,54342,28.303124999999998
9404,9.0,,,,,,,70.0,,,,,,20,note_on,,0.0,70.0,0.0,107132,55.797916666666666
9405,9.0,,,,,,,42.0,,,,,,16,note_on,,0.0,42.0,0.0,107148,55.80625
9406,8.0,,,,,,,87.0,,,,,,0,note_on,,45.0,87.0,45.0,20221,10.531770833333333
9407,9.0,,,,,,,44.0,,,,,,0,note_on,,75.0,44.0,75.0,107148,55.80625
9408,9.0,,,,,,,36.0,,,,,,0,note_on,,126.0,36.0,126.0,107148,55.80625
9409,9.0,,,,,,,35.0,,,,,,0,note_on,,60.0,35.0,60.0,107148,55.80625
9410,8.0,,,,,,,87.0,,,,,,112,note_on,,0.0,87.0,0.0,20333,10.590104166666666
9411,9.0,,,,,,,35.0,,,,,,112,note_on,,0.0,35.0,0.0,107260,55.864583333333336
9412,9.0,,,,,,,36.0,,,,,,0,note_on,,0.0,36.0,0.0,107260,55.864583333333336
9413,10.0,,,,,,,58.0,,,,,,10,note_on,,0.0,58.0,0.0,14907,7.7640625
9414,9.0,,,,,,,44.0,,,,,,6,note_on,,0.0,44.0,0.0,107266,55.86770833333333
9415,3.0,,,,,,,79.0,,,,,,0,note_on,,127.0,79.0,127.0,54342,28.303124999999998
9416,7.0,,,,,,,75.0,,,,,,0,note_on,,127.0,75.0,127.0,3589,1.8692708333333332
9417,8.0,,,,,,,63.0,,,,,,0,note_on,,127.0,63.0,127.0,20333,10.590104166666666
9418,9.0,,,,,,,42.0,,,,,,0,note_on,,85.0,42.0,85.0,107266,55.86770833333333
9419,9.0,,,,,,,70.0,,,,,,0,note_on,,40.0,70.0,40.0,107266,55.86770833333333
9420,9.0,,,,,,,39.0,,,,,,0,note_on,,125.0,39.0,125.0,107266,55.86770833333333
9421,9.0,,,,,,,28.0,,,,,,0,note_on,,127.0,28.0,127.0,107266,55.86770833333333
9422,12.0,,,,,,,62.0,,,,,,0,note_on,,127.0,62.0,127.0,22386,11.659375
9423,12.0,,,,,,,58.0,,,,,,0,note_on,,127.0,58.0,127.0,22386,11.659375
9424,12.0,,,,,,,65.0,,,,,,0,note_on,,127.0,65.0,127.0,22386,11.659375
9425,,,,,,,,,,,,,youd ,0,lyrics,,,,,4664831920,2429599.9583333335
9426,10.0,,,,,,,65.0,,,,,,47,note_on,,0.0,65.0,0.0,14954,7.788541666666666
9427,10.0,,,,,,,62.0,,,,,,2,note_on,,0.0,62.0,0.0,14956,7.789583333333333
9428,9.0,,,,,,,28.0,,,,,,68,note_on,,0.0,28.0,0.0,107334,55.903124999999996
9429,9.0,,,,,,,39.0,,,,,,34,note_on,,0.0,39.0,0.0,107368,55.920833333333334
9430,9.0,,,,,,,42.0,,,,,,73,note_on,,0.0,42.0,0.0,107441,55.95885416666667
9431,9.0,,,,,,,70.0,,,,,,0,note_on,,0.0,70.0,0.0,107441,55.95885416666667
9432,9.0,,,,,,,44.0,,,,,,16,note_on,,75.0,44.0,75.0,107457,55.9671875
9433,12.0,,,,,,,58.0,,,,,,234,note_on,,0.0,58.0,0.0,22620,11.78125
9434,9.0,,,,,,,44.0,,,,,,6,note_on,,0.0,44.0,0.0,107463,55.9703125
9435,8.0,,,,,,,87.0,,,,,,0,note_on,,45.0,87.0,45.0,20333,10.590104166666666
9436,9.0,,,,,,,42.0,,,,,,0,note_on,,85.0,42.0,85.0,107463,55.9703125
9437,9.0,,,,,,,70.0,,,,,,0,note_on,,40.0,70.0,40.0,107463,55.9703125
9438,9.0,,,,,,,36.0,,,,,,0,note_on,,126.0,36.0,126.0,107463,55.9703125
9439,9.0,,,,,,,35.0,,,,,,0,note_on,,60.0,35.0,60.0,107463,55.9703125
9440,7.0,,,,,,,75.0,,,,,,37,note_on,,0.0,75.0,0.0,3626,1.8885416666666666
9441,8.0,,,,,,,63.0,,,,,,0,note_on,,0.0,63.0,0.0,20333,10.590104166666666
9442,12.0,,,,,,,65.0,,,,,,10,note_on,,0.0,65.0,0.0,22630,11.786458333333334
9443,12.0,,,,,,,62.0,,,,,,2,note_on,,0.0,62.0,0.0,22632,11.7875
9444,8.0,,,,,,,87.0,,,,,,71,note_on,,0.0,87.0,0.0,20404,10.627083333333333
9445,9.0,,,,,,,36.0,,,,,,46,note_on,,0.0,36.0,0.0,107509,55.99427083333333
9446,9.0,,,,,,,35.0,,,,,,0,note_on,,0.0,35.0,0.0,107509,55.99427083333333
9447,3.0,,,,,,,79.0,,,,,,7,note_on,,0.0,79.0,0.0,54349,28.30677083333333
9448,9.0,,,,,,,70.0,,,,,,51,note_on,,0.0,70.0,0.0,107560,56.020833333333336
9449,9.0,,,,,,,42.0,,,,,,16,note_on,,0.0,42.0,0.0,107576,56.02916666666667
9450,9.0,,,,,,,44.0,,,,,,0,note_on,,75.0,44.0,75.0,107576,56.02916666666667
9451,9.0,,,,,,,44.0,,,,,,240,note_on,,0.0,44.0,0.0,107816,56.15416666666667
9452,3.0,,,,,,,79.0,,,,,,0,note_on,,127.0,79.0,127.0,54349,28.30677083333333
9453,7.0,,,,,,,77.0,,,,,,0,note_on,,127.0,77.0,127.0,3626,1.8885416666666666
9454,8.0,,,,,,,87.0,,,,,,0,note_on,,45.0,87.0,45.0,20404,10.627083333333333
9455,8.0,,,,,,,65.0,,,,,,0,note_on,,127.0,65.0,127.0,20404,10.627083333333333
9456,9.0,,,,,,,42.0,,,,,,0,note_on,,85.0,42.0,85.0,107816,56.15416666666667
9457,9.0,,,,,,,70.0,,,,,,0,note_on,,40.0,70.0,40.0,107816,56.15416666666667
9458,,,,,,,,,,,,,al ,0,lyrics,,,,,4664930992,2429651.558333333
9459,8.0,,,,,,,87.0,,,,,,123,note_on,,0.0,87.0,0.0,20527,10.691145833333334
9460,3.0,,,,,,,79.0,,,,,,60,note_on,,0.0,79.0,0.0,54409,28.33802083333333
9461,9.0,,,,,,,42.0,,,,,,41,note_on,,0.0,42.0,0.0,107857,56.17552083333333
9462,9.0,,,,,,,70.0,,,,,,0,note_on,,0.0,70.0,0.0,107857,56.17552083333333
9463,9.0,,,,,,,44.0,,,,,,16,note_on,,75.0,44.0,75.0,107873,56.18385416666666
9464,9.0,,,,,,,44.0,,,,,,240,note_on,,0.0,44.0,0.0,108113,56.30885416666666
9465,3.0,,,,,,,79.0,,,,,,0,note_on,,127.0,79.0,127.0,54409,28.33802083333333
9466,8.0,,,,,,,87.0,,,,,,0,note_on,,45.0,87.0,45.0,20527,10.691145833333334
9467,9.0,,,,,,,42.0,,,,,,0,note_on,,85.0,42.0,85.0,108113,56.30885416666666
9468,9.0,,,,,,,70.0,,,,,,0,note_on,,40.0,70.0,40.0,108113,56.30885416666666
9469,9.0,,,,,,,36.0,,,,,,0,note_on,,126.0,36.0,126.0,108113,56.30885416666666
9470,9.0,,,,,,,35.0,,,,,,0,note_on,,60.0,35.0,60.0,108113,56.30885416666666
9471,,,,,,,,,,,,,ways ,0,lyrics,,,,,4664908824,2429640.0125
9472,7.0,,,,,,,77.0,,,,,,97,note_on,,0.0,77.0,0.0,3723,1.9390625
9473,8.0,,,,,,,65.0,,,,,,0,note_on,,0.0,65.0,0.0,20527,10.691145833333334
9474,8.0,,,,,,,87.0,,,,,,30,note_on,,0.0,87.0,0.0,20557,10.706770833333334
9475,9.0,,,,,,,35.0,,,,,,27,note_on,,0.0,35.0,0.0,108140,56.322916666666664
9476,9.0,,,,,,,36.0,,,,,,0,note_on,,0.0,36.0,0.0,108140,56.322916666666664
9477,9.0,,,,,,,70.0,,,,,,70,note_on,,0.0,70.0,0.0,108210,56.359375
9478,9.0,,,,,,,42.0,,,,,,16,note_on,,0.0,42.0,0.0,108226,56.36770833333333
9479,9.0,,,,,,,44.0,,,,,,0,note_on,,75.0,44.0,75.0,108226,56.36770833333333
9480,9.0,,,,,,,44.0,,,,,,240,note_on,,0.0,44.0,0.0,108466,56.49270833333333
9481,7.0,,,,,,,75.0,,,,,,0,note_on,,127.0,75.0,127.0,3723,1.9390625
9482,8.0,,,,,,,63.0,,,,,,0,note_on,,127.0,63.0,127.0,20557,10.706770833333334
9483,9.0,,,,,,,42.0,,,,,,0,note_on,,85.0,42.0,85.0,108466,56.49270833333333
9484,9.0,,,,,,,70.0,,,,,,0,note_on,,40.0,70.0,40.0,108466,56.49270833333333
9485,9.0,,,,,,,39.0,,,,,,0,note_on,,127.0,39.0,127.0,108466,56.49270833333333
9486,9.0,,,,,,,28.0,,,,,,0,note_on,,127.0,28.0,127.0,108466,56.49270833333333
9487,11.0,,,,,,,62.0,,,,,,0,note_on,,127.0,62.0,127.0,26055,13.5703125
9488,11.0,,,,,,,67.0,,,,,,0,note_on,,127.0,67.0,127.0,26055,13.5703125
9489,11.0,,,,,,,58.0,,,,,,0,note_on,,127.0,58.0,127.0,26055,13.5703125
9490,9.0,,,,,,,39.0,,,,,,123,note_on,,0.0,39.0,0.0,108589,56.55677083333333
9491,9.0,,,,,,,28.0,,,,,,2,note_on,,0.0,28.0,0.0,108591,56.5578125
9492,7.0,,,,,,,75.0,,,,,,85,note_on,,0.0,75.0,0.0,3808,1.9833333333333334
9493,8.0,,,,,,,63.0,,,,,,0,note_on,,0.0,63.0,0.0,20557,10.706770833333334
9494,9.0,,,,,,,42.0,,,,,,14,note_on,,0.0,42.0,0.0,108605,56.565104166666664
9495,9.0,,,,,,,70.0,,,,,,0,note_on,,0.0,70.0,0.0,108605,56.565104166666664
9496,9.0,,,,,,,44.0,,,,,,16,note_on,,75.0,44.0,75.0,108621,56.5734375
9497,3.0,,,,,,,79.0,,,,,,14,note_on,,0.0,79.0,0.0,54423,28.3453125
9498,11.0,,,,,,,67.0,,,,,,113,note_on,,0.0,67.0,0.0,26168,13.629166666666666
9499,11.0,,,,,,,58.0,,,,,,11,note_on,,0.0,58.0,0.0,26179,13.634895833333333
9500,11.0,,,,,,,62.0,,,,,,36,note_on,,0.0,62.0,0.0,26215,13.653645833333334
9501,9.0,,,,,,,44.0,,,,,,66,note_on,,0.0,44.0,0.0,108687,56.6078125
9502,3.0,,,,,,,79.0,,,,,,0,note_on,,127.0,79.0,127.0,54423,28.3453125
9503,7.0,,,,,,,77.0,,,,,,0,note_on,,127.0,77.0,127.0,3808,1.9833333333333334
9504,8.0,,,,,,,87.0,,,,,,0,note_on,,45.0,87.0,45.0,20557,10.706770833333334
9505,8.0,,,,,,,65.0,,,,,,0,note_on,,127.0,65.0,127.0,20557,10.706770833333334
9506,9.0,,,,,,,42.0,,,,,,0,note_on,,85.0,42.0,85.0,108687,56.6078125
9507,9.0,,,,,,,70.0,,,,,,0,note_on,,40.0,70.0,40.0,108687,56.6078125
9508,10.0,,,,,,,62.0,,,,,,0,note_on,,127.0,62.0,127.0,14956,7.789583333333333
9509,10.0,,,,,,,67.0,,,,,,0,note_on,,127.0,67.0,127.0,14956,7.789583333333333
9510,10.0,,,,,,,58.0,,,,,,0,note_on,,127.0,58.0,127.0,14956,7.789583333333333
9511,11.0,,,,,,,62.0,,,,,,0,note_on,,127.0,62.0,127.0,26215,13.653645833333334
9512,11.0,,,,,,,58.0,,,,,,0,note_on,,118.0,58.0,118.0,26215,13.653645833333334
9513,11.0,,,,,,,65.0,,,,,,0,note_on,,127.0,65.0,127.0,26215,13.653645833333334
9514,,,,,,,,,,,,,be ,0,lyrics,,,,,631,0.3286458333333333
9515,8.0,,,,,,,87.0,,,,,,127,note_on,,0.0,87.0,0.0,20684,10.772916666666667
9516,7.0,,,,,,,77.0,,,,,,60,note_on,,0.0,77.0,0.0,3868,2.0145833333333334
9517,8.0,,,,,,,65.0,,,,,,0,note_on,,0.0,65.0,0.0,20684,10.772916666666667
9518,9.0,,,,,,,70.0,,,,,,37,note_on,,0.0,70.0,0.0,108724,56.62708333333333
9519,9.0,,,,,,,42.0,,,,,,16,note_on,,0.0,42.0,0.0,108740,56.635416666666664
9520,9.0,,,,,,,44.0,,,,,,0,note_on,,75.0,44.0,75.0,108740,56.635416666666664
9521,10.0,,,,,,,67.0,,,,,,127,note_on,,0.0,67.0,0.0,15083,7.855729166666666
9522,10.0,,,,,,,58.0,,,,,,11,note_on,,0.0,58.0,0.0,15094,7.861458333333333
9523,11.0,,,,,,,58.0,,,,,,7,note_on,,0.0,58.0,0.0,26222,13.657291666666666
9524,11.0,,,,,,,65.0,,,,,,23,note_on,,0.0,65.0,0.0,26245,13.669270833333334
9525,10.0,,,,,,,62.0,,,,,,6,note_on,,0.0,62.0,0.0,15100,7.864583333333333
9526,11.0,,,,,,,62.0,,,,,,13,note_on,,0.0,62.0,0.0,26258,13.676041666666666
9527,9.0,,,,,,,44.0,,,,,,53,note_on,,0.0,44.0,0.0,108793,56.663020833333334
9528,3.0,,,,,,,79.0,,,,,,0,note_on,,0.0,79.0,0.0,54423,28.3453125
9529,3.0,,,,,,,77.0,,,,,,0,note_on,,127.0,77.0,127.0,54423,28.3453125
9530,7.0,,,,,,,82.0,,,,,,0,note_on,,127.0,82.0,127.0,3868,2.0145833333333334
9531,8.0,,,,,,,87.0,,,,,,0,note_on,,45.0,87.0,45.0,20684,10.772916666666667
9532,8.0,,,,,,,70.0,,,,,,0,note_on,,127.0,70.0,127.0,20684,10.772916666666667
9533,9.0,,,,,,,42.0,,,,,,0,note_on,,85.0,42.0,85.0,108793,56.663020833333334
9534,9.0,,,,,,,70.0,,,,,,0,note_on,,40.0,70.0,40.0,108793,56.663020833333334
9535,9.0,,,,,,,36.0,,,,,,0,note_on,,126.0,36.0,126.0,108793,56.663020833333334
9536,9.0,,,,,,,35.0,,,,,,0,note_on,,60.0,35.0,60.0,108793,56.663020833333334
9537,10.0,,,,,,,62.0,,,,,,0,note_on,,127.0,62.0,127.0,15100,7.864583333333333
9538,10.0,,,,,,,58.0,,,,,,0,note_on,,118.0,58.0,118.0,15100,7.864583333333333
9539,10.0,,,,,,,65.0,,,,,,0,note_on,,127.0,65.0,127.0,15100,7.864583333333333
9540,12.0,,,,,,,62.0,,,,,,0,note_on,,127.0,62.0,127.0,22632,11.7875
9541,12.0,,,,,,,67.0,,,,,,0,note_on,,127.0,67.0,127.0,22632,11.7875
9542,12.0,,,,,,,58.0,,,,,,0,note_on,,127.0,58.0,127.0,22632,11.7875
9543,,,,,,,,,,,,,mi ,0,lyrics,,,,,4664968920,2429671.3125
9544,8.0,,,,,,,87.0,,,,,,135,note_on,,0.0,87.0,0.0,20819,10.843229166666667
9545,9.0,,,,,,,35.0,,,,,,37,note_on,,0.0,35.0,0.0,108830,56.682291666666664
9546,9.0,,,,,,,36.0,,,,,,0,note_on,,0.0,36.0,0.0,108830,56.682291666666664
9547,9.0,,,,,,,42.0,,,,,,52,note_on,,0.0,42.0,0.0,108882,56.709375
9548,9.0,,,,,,,70.0,,,,,,0,note_on,,0.0,70.0,0.0,108882,56.709375
9549,9.0,,,,,,,44.0,,,,,,16,note_on,,75.0,44.0,75.0,108898,56.717708333333334
9550,12.0,,,,,,,67.0,,,,,,127,note_on,,0.0,67.0,0.0,22759,11.853645833333333
9551,12.0,,,,,,,58.0,,,,,,11,note_on,,0.0,58.0,0.0,22770,11.859375
9552,10.0,,,,,,,58.0,,,,,,7,note_on,,0.0,58.0,0.0,15107,7.868229166666667
9553,10.0,,,,,,,65.0,,,,,,23,note_on,,0.0,65.0,0.0,15130,7.880208333333333
9554,12.0,,,,,,,62.0,,,,,,6,note_on,,0.0,62.0,0.0,22776,11.8625
9555,10.0,,,,,,,62.0,,,,,,13,note_on,,0.0,62.0,0.0,15143,7.886979166666666
9556,9.0,,,,,,,44.0,,,,,,53,note_on,,0.0,44.0,0.0,108951,56.7453125
9557,9.0,,,,,,,42.0,,,,,,0,note_on,,85.0,42.0,85.0,108951,56.7453125
9558,9.0,,,,,,,70.0,,,,,,0,note_on,,40.0,70.0,40.0,108951,56.7453125
9559,12.0,,,,,,,62.0,,,,,,0,note_on,,127.0,62.0,127.0,22776,11.8625
9560,12.0,,,,,,,58.0,,,,,,0,note_on,,118.0,58.0,118.0,22776,11.8625
9561,12.0,,,,,,,65.0,,,,,,0,note_on,,127.0,65.0,127.0,22776,11.8625
9562,8.0,,,,,,,70.0,,,,,,85,note_on,,0.0,70.0,0.0,20904,10.8875
9563,7.0,,,,,,,82.0,,,,,,0,note_on,,0.0,82.0,0.0,3868,2.0145833333333334
9564,3.0,,,,,,,77.0,,,,,,138,note_on,,0.0,77.0,0.0,54561,28.4171875
9565,9.0,,,,,,,70.0,,,,,,1,note_on,,0.0,70.0,0.0,108952,56.74583333333333
9566,9.0,,,,,,,42.0,,,,,,16,note_on,,0.0,42.0,0.0,108968,56.75416666666666
9567,8.0,,,,,,,87.0,,,,,,0,note_on,,45.0,87.0,45.0,20904,10.8875
9568,9.0,,,,,,,44.0,,,,,,0,note_on,,75.0,44.0,75.0,108968,56.75416666666666
9569,9.0,,,,,,,36.0,,,,,,0,note_on,,126.0,36.0,126.0,108968,56.75416666666666
9570,9.0,,,,,,,35.0,,,,,,0,note_on,,60.0,35.0,60.0,108968,56.75416666666666
9571,8.0,,,,,,,87.0,,,,,,123,note_on,,0.0,87.0,0.0,21027,10.9515625
9572,12.0,,,,,,,58.0,,,,,,22,note_on,,0.0,58.0,0.0,22798,11.873958333333333
9573,12.0,,,,,,,65.0,,,,,,23,note_on,,0.0,65.0,0.0,22821,11.8859375
9574,12.0,,,,,,,62.0,,,,,,19,note_on,,0.0,62.0,0.0,22840,11.895833333333334
9575,9.0,,,,,,,36.0,,,,,,37,note_on,,0.0,36.0,0.0,109005,56.7734375
9576,9.0,,,,,,,35.0,,,,,,0,note_on,,0.0,35.0,0.0,109005,56.7734375
9577,9.0,,,,,,,44.0,,,,,,16,note_on,,0.0,44.0,0.0,109021,56.78177083333333
9578,3.0,,,,,,,77.0,,,,,,0,note_on,,127.0,77.0,127.0,54561,28.4171875
9579,7.0,,,,,,,75.0,,,,,,0,note_on,,127.0,75.0,127.0,3868,2.0145833333333334
9580,8.0,,,,,,,63.0,,,,,,0,note_on,,127.0,63.0,127.0,21027,10.9515625
9581,9.0,,,,,,,42.0,,,,,,0,note_on,,85.0,42.0,85.0,109021,56.78177083333333
9582,9.0,,,,,,,70.0,,,,,,0,note_on,,40.0,70.0,40.0,109021,56.78177083333333
9583,9.0,,,,,,,39.0,,,,,,0,note_on,,125.0,39.0,125.0,109021,56.78177083333333
9584,9.0,,,,,,,28.0,,,,,,0,note_on,,127.0,28.0,127.0,109021,56.78177083333333
9585,11.0,,,,,,,63.0,,,,,,0,note_on,,100.0,63.0,100.0,26258,13.676041666666666
9586,11.0,,,,,,,56.0,,,,,,0,note_on,,127.0,56.0,127.0,26258,13.676041666666666
9587,11.0,,,,,,,62.0,,,,,,0,note_on,,126.0,62.0,126.0,26258,13.676041666666666
9588,11.0,,,,,,,53.0,,,,,,0,note_on,,127.0,53.0,127.0,26258,13.676041666666666
9589,11.0,,,,,,,58.0,,,,,,0,note_on,,127.0,58.0,127.0,26258,13.676041666666666
9590,,,,,,,,,,,,,ne ,0,lyrics,,,,,4664933808,2429653.025
9591,9.0,,,,,,,28.0,,,,,,117,note_on,,0.0,28.0,0.0,109138,56.842708333333334
9592,9.0,,,,,,,39.0,,,,,,34,note_on,,0.0,39.0,0.0,109172,56.860416666666666
9593,9.0,,,,,,,70.0,,,,,,73,note_on,,0.0,70.0,0.0,109245,56.8984375
9594,9.0,,,,,,,42.0,,,,,,0,note_on,,0.0,42.0,0.0,109245,56.8984375
9595,9.0,,,,,,,44.0,,,,,,16,note_on,,75.0,44.0,75.0,109261,56.90677083333333
9596,3.0,,,,,,,77.0,,,,,,180,note_on,,0.0,77.0,0.0,54741,28.5109375
9597,9.0,,,,,,,44.0,,,,,,60,note_on,,0.0,44.0,0.0,109321,56.93802083333333
9598,3.0,,,,,,,75.0,,,,,,0,note_on,,127.0,75.0,127.0,54741,28.5109375
9599,8.0,,,,,,,87.0,,,,,,0,note_on,,45.0,87.0,45.0,21027,10.9515625
9600,9.0,,,,,,,42.0,,,,,,0,note_on,,85.0,42.0,85.0,109321,56.93802083333333
9601,9.0,,,,,,,70.0,,,,,,0,note_on,,40.0,70.0,40.0,109321,56.93802083333333
9602,9.0,,,,,,,36.0,,,,,,0,note_on,,126.0,36.0,126.0,109321,56.93802083333333
9603,9.0,,,,,,,35.0,,,,,,0,note_on,,60.0,35.0,60.0,109321,56.93802083333333
9604,10.0,,,,,,,63.0,,,,,,0,note_on,,100.0,63.0,100.0,15143,7.886979166666666
9605,10.0,,,,,,,56.0,,,,,,0,note_on,,127.0,56.0,127.0,15143,7.886979166666666
9606,10.0,,,,,,,62.0,,,,,,0,note_on,,126.0,62.0,126.0,15143,7.886979166666666
9607,10.0,,,,,,,53.0,,,,,,0,note_on,,127.0,53.0,127.0,15143,7.886979166666666
9608,10.0,,,,,,,58.0,,,,,,0,note_on,,127.0,58.0,127.0,15143,7.886979166666666
9609,,,,,,,,,,,,,mine ,0,lyrics,,,,,4665020600,2429698.2291666665
9610,8.0,,,,,,,63.0,,,,,,99,note_on,,0.0,63.0,0.0,21126,11.003125
9611,7.0,,,,,,,75.0,,,,,,0,note_on,,0.0,75.0,0.0,3868,2.0145833333333334
9612,8.0,,,,,,,87.0,,,,,,21,note_on,,0.0,87.0,0.0,21147,11.0140625
9613,9.0,,,,,,,35.0,,,,,,46,note_on,,0.0,35.0,0.0,109367,56.961979166666666
9614,9.0,,,,,,,36.0,,,,,,0,note_on,,0.0,36.0,0.0,109367,56.961979166666666
9615,9.0,,,,,,,70.0,,,,,,58,note_on,,0.0,70.0,0.0,109425,56.9921875
9616,9.0,,,,,,,42.0,,,,,,16,note_on,,0.0,42.0,0.0,109441,57.00052083333333
9617,9.0,,,,,,,44.0,,,,,,0,note_on,,75.0,44.0,75.0,109441,57.00052083333333
9618,9.0,,,,,,,44.0,,,,,,240,note_on,,0.0,44.0,0.0,109681,57.12552083333333
9619,7.0,,,,,,,77.0,,,,,,0,note_on,,127.0,77.0,127.0,3868,2.0145833333333334
9620,8.0,,,,,,,65.0,,,,,,0,note_on,,127.0,65.0,127.0,21147,11.0140625
9621,9.0,,,,,,,42.0,,,,,,0,note_on,,85.0,42.0,85.0,109681,57.12552083333333
9622,9.0,,,,,,,70.0,,,,,,0,note_on,,40.0,70.0,40.0,109681,57.12552083333333
9623,12.0,,,,,,,63.0,,,,,,0,note_on,,100.0,63.0,100.0,22840,11.895833333333334
9624,12.0,,,,,,,56.0,,,,,,0,note_on,,127.0,56.0,127.0,22840,11.895833333333334
9625,12.0,,,,,,,62.0,,,,,,0,note_on,,126.0,62.0,126.0,22840,11.895833333333334
9626,12.0,,,,,,,53.0,,,,,,0,note_on,,127.0,53.0,127.0,22840,11.895833333333334
9627,12.0,,,,,,,58.0,,,,,,0,note_on,,127.0,58.0,127.0,22840,11.895833333333334
9628,9.0,,,,,,,70.0,,,,,,224,note_on,,0.0,70.0,0.0,109905,57.2421875
9629,8.0,,,,,,,65.0,,,,,,2,note_on,,0.0,65.0,0.0,21149,11.015104166666667
9630,7.0,,,,,,,77.0,,,,,,0,note_on,,0.0,77.0,0.0,3868,2.0145833333333334
9631,8.0,,,,,,,87.0,,,,,,14,note_on,,45.0,87.0,45.0,21163,11.022395833333333
9632,9.0,,,,,,,44.0,,,,,,0,note_on,,75.0,44.0,75.0,109905,57.2421875
9633,3.0,,,,,,,75.0,,,,,,42,note_on,,0.0,75.0,0.0,54783,28.5328125
9634,8.0,,,,,,,87.0,,,,,,53,note_on,,0.0,87.0,0.0,21216,11.05
9635,9.0,,,,,,,44.0,,,,,,145,note_on,,0.0,44.0,0.0,110050,57.317708333333336
9636,11.0,,,,,,,63.0,,,,,,0,note_on,,0.0,63.0,0.0,26258,13.676041666666666
9637,7.0,,,,,,,75.0,,,,,,0,note_on,,127.0,75.0,127.0,3868,2.0145833333333334
9638,8.0,,,,,,,63.0,,,,,,0,note_on,,127.0,63.0,127.0,21216,11.05
9639,9.0,,,,,,,42.0,,,,,,0,note_on,,85.0,42.0,85.0,110050,57.317708333333336
9640,9.0,,,,,,,70.0,,,,,,0,note_on,,40.0,70.0,40.0,110050,57.317708333333336
9641,9.0,,,,,,,36.0,,,,,,0,note_on,,126.0,36.0,126.0,110050,57.317708333333336
9642,9.0,,,,,,,35.0,,,,,,0,note_on,,60.0,35.0,60.0,110050,57.317708333333336
9643,11.0,,,,,,,63.0,,,,,,0,note_on,,127.0,63.0,127.0,26258,13.676041666666666
9644,9.0,,,,,,,35.0,,,,,,154,note_on,,0.0,35.0,0.0,110204,57.39791666666667
9645,9.0,,,,,,,36.0,,,,,,0,note_on,,0.0,36.0,0.0,110204,57.39791666666667
9646,8.0,,,,,,,63.0,,,,,,59,note_on,,0.0,63.0,0.0,21275,11.080729166666666
9647,7.0,,,,,,,75.0,,,,,,0,note_on,,0.0,75.0,0.0,3868,2.0145833333333334
9648,9.0,,,,,,,70.0,,,,,,11,note_on,,0.0,70.0,0.0,110215,57.403645833333336
9649,9.0,,,,,,,42.0,,,,,,16,note_on,,0.0,42.0,0.0,110231,57.41197916666667
9650,9.0,,,,,,,44.0,,,,,,0,note_on,,75.0,44.0,75.0,110231,57.41197916666667
9651,1.0,,,,,,,34.0,,,,,,120,note_on,,0.0,34.0,0.0,4965,2.5859375
9652,1.0,,,,,,,,,-361.0,,,,69,pitchwheel,,,,,5034,2.621875
9653,1.0,,,,,,,,,-979.0,,,,10,pitchwheel,,,,,5044,2.627083333333333
9654,1.0,,,,,,,,,-1623.0,,,,8,pitchwheel,,,,,5052,2.63125
9655,1.0,,,,,,,,,-2061.0,,,,7,pitchwheel,,,,,5059,2.634895833333333
9656,1.0,,,,,,,,,-2525.0,,,,8,pitchwheel,,,,,5067,2.6390625
9657,1.0,,,,,,,,,-3375.0,,,,10,pitchwheel,,,,,5077,2.644270833333333
9658,10.0,,,,,,,63.0,,,,,,8,note_on,,0.0,63.0,0.0,15151,7.891145833333333
9659,9.0,,,,,,,44.0,,,,,,0,note_on,,0.0,44.0,0.0,110231,57.41197916666667
9660,7.0,,,,,,,77.0,,,,,,0,note_on,,127.0,77.0,127.0,3868,2.0145833333333334
9661,8.0,,,,,,,87.0,,,,,,0,note_on,,45.0,87.0,45.0,21275,11.080729166666666
9662,8.0,,,,,,,65.0,,,,,,0,note_on,,127.0,65.0,127.0,21275,11.080729166666666
9663,9.0,,,,,,,42.0,,,,,,0,note_on,,85.0,42.0,85.0,110231,57.41197916666667
9664,9.0,,,,,,,70.0,,,,,,0,note_on,,40.0,70.0,40.0,110231,57.41197916666667
9665,9.0,,,,,,,39.0,,,,,,0,note_on,,127.0,39.0,127.0,110231,57.41197916666667
9666,9.0,,,,,,,28.0,,,,,,0,note_on,,127.0,28.0,127.0,110231,57.41197916666667
9667,10.0,,,,,,,63.0,,,,,,0,note_on,,127.0,63.0,127.0,15151,7.891145833333333
9668,1.0,,,,,,,,,-3813.0,,,,1,pitchwheel,,,,,5078,2.6447916666666664
9669,1.0,,,,,,,22.0,,,,,,0,note_on,,127.0,22.0,127.0,5078,2.6447916666666664
9670,1.0,,,,,,,,,-4354.0,,,,8,pitchwheel,,,,,5086,2.6489583333333333
9671,1.0,,,,,,,,,-5050.0,,,,10,pitchwheel,,,,,5096,2.654166666666667
9672,1.0,,,,,,,,,-5719.0,,,,9,pitchwheel,,,,,5105,2.6588541666666665
9673,1.0,,,,,,,,,-6673.0,,,,14,pitchwheel,,,,,5119,2.666145833333333
9674,1.0,,,,,,,,,-7033.0,,,,11,pitchwheel,,,,,5130,2.671875
9675,8.0,,,,,,,87.0,,,,,,4,note_on,,0.0,87.0,0.0,21279,11.0828125
9676,1.0,,,,,,,,,-7652.0,,,,6,pitchwheel,,,,,5136,2.675
9677,1.0,,,,,,,,,-8167.0,,,,8,pitchwheel,,,,,5144,2.6791666666666667
9678,1.0,,,,,,,,,-8192.0,,,,9,pitchwheel,,,,,5153,2.6838541666666664
9679,9.0,,,,,,,39.0,,,,,,43,note_on,,0.0,39.0,0.0,110274,57.434374999999996
9680,9.0,,,,,,,28.0,,,,,,2,note_on,,0.0,28.0,0.0,110276,57.43541666666667
9681,1.0,,,,,,,,,-7806.0,,,,52,pitchwheel,,,,,5205,2.7109375
9682,7.0,,,,,,,77.0,,,,,,9,note_on,,0.0,77.0,0.0,3877,2.019270833333333
9683,8.0,,,,,,,65.0,,,,,,0,note_on,,0.0,65.0,0.0,21279,11.0828125
9684,1.0,,,,,,,,,-6930.0,,,,0,pitchwheel,,,,,5205,2.7109375
9685,1.0,,,,,,,,,-5153.0,,,,8,pitchwheel,,,,,5213,2.7151041666666664
9686,1.0,,,,,,,,,-2911.0,,,,8,pitchwheel,,,,,5221,2.7192708333333333
9687,1.0,,,,,,,,,-129.0,,,,9,pitchwheel,,,,,5230,2.7239583333333335
9688,1.0,,,,,,,,,643.0,,,,8,pitchwheel,,,,,5238,2.728125
9689,9.0,,,,,,,42.0,,,,,,5,note_on,,0.0,42.0,0.0,110281,57.43802083333333
9690,9.0,,,,,,,70.0,,,,,,0,note_on,,0.0,70.0,0.0,110281,57.43802083333333
9691,1.0,,,,,,,,,1545.0,,,,3,pitchwheel,,,,,5241,2.7296875
9692,1.0,,,,,,,,,721.0,,,,9,pitchwheel,,,,,5250,2.734375
9693,9.0,,,,,,,42.0,,,,,,4,note_on,,0.0,42.0,0.0,110285,57.440104166666664
9694,9.0,,,,,,,44.0,,,,,,0,note_on,,75.0,44.0,75.0,110285,57.440104166666664
9695,1.0,,,,,,,,,0.0,,,,4,pitchwheel,,,,,5254,2.736458333333333
9696,12.0,,,,,,,63.0,,,,,,236,note_on,,0.0,63.0,0.0,23076,12.01875
9697,9.0,,,,,,,44.0,,,,,,0,note_on,,0.0,44.0,0.0,110285,57.440104166666664
9698,7.0,,,,,,,82.0,,,,,,0,note_on,,127.0,82.0,127.0,3877,2.019270833333333
9699,8.0,,,,,,,70.0,,,,,,0,note_on,,127.0,70.0,127.0,21279,11.0828125
9700,9.0,,,,,,,42.0,,,,,,0,note_on,,85.0,42.0,85.0,110285,57.440104166666664
9701,9.0,,,,,,,61.0,,,,,,0,note_on,,100.0,61.0,100.0,110285,57.440104166666664
9702,9.0,,,,,,,70.0,,,,,,0,note_on,,40.0,70.0,40.0,110285,57.440104166666664
9703,12.0,,,,,,,63.0,,,,,,0,note_on,,127.0,63.0,127.0,23076,12.01875
9704,9.0,,,,,,,61.0,,,,,,114,note_on,,0.0,61.0,0.0,110399,57.49947916666667
9705,9.0,,,,,,,61.0,,,,,,6,note_on,,100.0,61.0,100.0,110405,57.502604166666664
9706,8.0,,,,,,,46.0,,,,,,49,note_on,,0.0,46.0,0.0,21328,11.108333333333333
9707,9.0,,,,,,,70.0,,,,,,55,note_on,,0.0,70.0,0.0,110460,57.53125
9708,11.0,,,,,,,56.0,,,,,,9,note_on,,0.0,56.0,0.0,26267,13.680729166666666
9709,9.0,,,,,,,61.0,,,,,,1,note_on,,0.0,61.0,0.0,110461,57.53177083333333
9710,11.0,,,,,,,62.0,,,,,,3,note_on,,0.0,62.0,0.0,26270,13.682291666666666
9711,9.0,,,,,,,42.0,,,,,,3,note_on,,0.0,42.0,0.0,110464,57.53333333333333
9712,9.0,,,,,,,44.0,,,,,,0,note_on,,75.0,44.0,75.0,110464,57.53333333333333
9713,9.0,,,,,,,61.0,,,,,,0,note_on,,100.0,61.0,100.0,110464,57.53333333333333
9714,7.0,,,,,,,82.0,,,,,,112,note_on,,0.0,82.0,0.0,3989,2.0776041666666667
9715,8.0,,,,,,,70.0,,,,,,0,note_on,,0.0,70.0,0.0,21328,11.108333333333333
9716,9.0,,,,,,,61.0,,,,,,2,note_on,,0.0,61.0,0.0,110466,57.534375
9717,9.0,,,,,,,61.0,,,,,,6,note_on,,100.0,61.0,100.0,110472,57.5375
9718,5.0,,,,,,,53.0,,,,,,6,note_on,,0.0,53.0,0.0,2084,1.0854166666666667
9719,5.0,,,,,,,62.0,,,,,,29,note_on,,0.0,62.0,0.0,2113,1.1005208333333334
9720,5.0,,,,,,,58.0,,,,,,0,note_on,,0.0,58.0,0.0,2113,1.1005208333333334
9721,11.0,,,,,,,53.0,,,,,,43,note_on,,0.0,53.0,0.0,26313,13.7046875
9722,11.0,,,,,,,58.0,,,,,,31,note_on,,0.0,58.0,0.0,26344,13.720833333333333
9723,1.0,,,,,,,22.0,,,,,,4,note_on,,0.0,22.0,0.0,5258,2.7385416666666664
9724,9.0,,,,,,,61.0,,,,,,1,note_on,,0.0,61.0,0.0,110473,57.538020833333334
9725,11.0,,0.0,,,,,,,,,,,4,control_change,121.0,,,,26348,13.722916666666666
9726,11.0,,0.0,,,,,,,,,,,0,control_change,121.0,,,,26348,13.722916666666666
9727,11.0,,32.0,,,,,,,,,,,1,control_change,0.0,,,,26349,13.7234375
9728,11.0,,32.0,,,,,,,,,,,0,control_change,0.0,,,,26349,13.7234375
9729,9.0,,,,,,,44.0,,,,,,1,note_on,,0.0,44.0,0.0,110474,57.53854166666667
9730,9.0,,,,,,,57.0,,,,,,0,note_on,,100.0,57.0,100.0,110474,57.53854166666667
9731,3.0,,,,,,,15.0,,,,,,0,note_on,,109.0,15.0,109.0,54783,28.5328125
9732,9.0,,,,,,,70.0,,,,,,0,note_on,,40.0,70.0,40.0,110474,57.53854166666667
9733,9.0,,,,,,,35.0,,,,,,0,note_on,,60.0,35.0,60.0,110474,57.53854166666667
9734,11.0,,,,,,,67.0,,,,,,0,note_on,,127.0,67.0,127.0,26349,13.7234375
9735,11.0,,,,,,,63.0,,,,,,0,note_on,,127.0,63.0,127.0,26349,13.7234375
9736,11.0,,,,,,,70.0,,,,,,0,note_on,,126.0,70.0,126.0,26349,13.7234375
9737,9.0,,,,,,,36.0,,,,,,0,note_on,,126.0,36.0,126.0,110474,57.53854166666667
9738,9.0,,,,,,,42.0,,,,,,0,note_on,,85.0,42.0,85.0,110474,57.53854166666667
9739,11.0,,,,,,,,,,24.0,,,0,program_change,,,,,26349,13.7234375
9740,,,,,,,,,,,,,RAP TALK ,0,lyrics,,,,,4621256167635550208,2406904253976849.0
9741,11.0,,,,,,,63.0,,,,,,15,note_on,,0.0,63.0,0.0,26364,13.73125
9742,9.0,,,,,,,57.0,,,,,,99,note_on,,0.0,57.0,0.0,110573,57.59010416666666
9743,3.0,,,,,,,15.0,,,,,,19,note_on,,0.0,15.0,0.0,54802,28.542708333333334
9744,9.0,,,,,,,35.0,,,,,,39,note_on,,0.0,35.0,0.0,110612,57.610416666666666
9745,9.0,,,,,,,36.0,,,,,,0,note_on,,0.0,36.0,0.0,110612,57.610416666666666
9746,9.0,,,,,,,42.0,,,,,,52,note_on,,0.0,42.0,0.0,110664,57.637499999999996
9747,9.0,,,,,,,70.0,,,,,,0,note_on,,0.0,70.0,0.0,110664,57.637499999999996
9748,10.0,,,,,,,56.0,,,,,,9,note_on,,0.0,56.0,0.0,15160,7.895833333333333
9749,10.0,,,,,,,62.0,,,,,,4,note_on,,0.0,62.0,0.0,15164,7.897916666666666
9750,11.0,,,,,,,63.0,,,,,,160,note_on,,0.0,63.0,0.0,26524,13.814583333333333
9751,11.0,,,,,,,67.0,,,,,,10,note_on,,0.0,67.0,0.0,26534,13.819791666666667
9752,10.0,,,,,,,53.0,,,,,,31,note_on,,0.0,53.0,0.0,15195,7.9140625
9753,11.0,,,,,,,70.0,,,,,,21,note_on,,0.0,70.0,0.0,26555,13.830729166666666
9754,10.0,,,,,,,58.0,,,,,,10,note_on,,0.0,58.0,0.0,15205,7.919270833333333
9755,10.0,,0.0,,,,,,,,,,,9,control_change,121.0,,,,15214,7.923958333333333
9756,10.0,,0.0,,,,,,,,,,,0,control_change,121.0,,,,15214,7.923958333333333
9757,10.0,,32.0,,,,,,,,,,,1,control_change,0.0,,,,15215,7.924479166666667
9758,10.0,,32.0,,,,,,,,,,,0,control_change,0.0,,,,15215,7.924479166666667
9759,9.0,,,,,,,44.0,,,,,,1,note_on,,0.0,44.0,0.0,110665,57.638020833333336
9760,9.0,,,,,,,70.0,,,,,,0,note_on,,40.0,70.0,40.0,110665,57.638020833333336
9761,10.0,,,,,,,70.0,,,,,,0,note_on,,126.0,70.0,126.0,15215,7.924479166666667
9762,10.0,,,,,,,63.0,,,,,,0,note_on,,127.0,63.0,127.0,15215,7.924479166666667
9763,10.0,,,,,,,67.0,,,,,,0,note_on,,127.0,67.0,127.0,15215,7.924479166666667
9764,10.0,,,,,,,,,,24.0,,,0,program_change,,,,,15215,7.924479166666667
9765,10.0,,,,,,,63.0,,,,,,15,note_on,,0.0,63.0,0.0,15230,7.932291666666667
9766,9.0,,,,,,,70.0,,,,,,209,note_on,,0.0,70.0,0.0,110874,57.746874999999996
9767,12.0,,,,,,,56.0,,,,,,9,note_on,,0.0,56.0,0.0,23085,12.0234375
9768,12.0,,,,,,,62.0,,,,,,4,note_on,,0.0,62.0,0.0,23089,12.025520833333333
9769,9.0,,,,,,,42.0,,,,,,3,note_on,,0.0,42.0,0.0,110877,57.7484375
9770,9.0,,,,,,,36.0,,,,,,0,note_on,,126.0,36.0,126.0,110877,57.7484375
9771,9.0,,,,,,,35.0,,,,,,0,note_on,,60.0,35.0,60.0,110877,57.7484375
9772,10.0,,,,,,,63.0,,,,,,157,note_on,,0.0,63.0,0.0,15387,8.0140625
9773,10.0,,,,,,,67.0,,,,,,10,note_on,,0.0,67.0,0.0,15397,8.019270833333334
9774,12.0,,,,,,,53.0,,,,,,31,note_on,,0.0,53.0,0.0,23120,12.041666666666666
9775,10.0,,,,,,,70.0,,,,,,21,note_on,,0.0,70.0,0.0,15418,8.030208333333333
9776,9.0,,,,,,,35.0,,,,,,5,note_on,,0.0,35.0,0.0,110882,57.751041666666666
9777,9.0,,,,,,,36.0,,,,,,0,note_on,,0.0,36.0,0.0,110882,57.751041666666666
9778,12.0,,,,,,,58.0,,,,,,5,note_on,,0.0,58.0,0.0,23125,12.044270833333334
9779,12.0,,0.0,,,,,,,,,,,9,control_change,121.0,,,,23134,12.048958333333333
9780,12.0,,32.0,,,,,,,,,,,1,control_change,0.0,,,,23135,12.049479166666666
9781,9.0,,,,,,,44.0,,,,,,1,note_on,,0.0,44.0,0.0,110883,57.7515625
9782,9.0,,,,,,,70.0,,,,,,0,note_on,,40.0,70.0,40.0,110883,57.7515625
9783,9.0,,,,,,,39.0,,,,,,0,note_on,,125.0,39.0,125.0,110883,57.7515625
9784,9.0,,,,,,,28.0,,,,,,0,note_on,,127.0,28.0,127.0,110883,57.7515625
9785,9.0,,,,,,,42.0,,,,,,0,note_on,,85.0,42.0,85.0,110883,57.7515625
9786,12.0,,,,,,,63.0,,,,,,0,note_on,,127.0,63.0,127.0,23135,12.049479166666666
9787,12.0,,,,,,,70.0,,,,,,0,note_on,,126.0,70.0,126.0,23135,12.049479166666666
9788,12.0,,,,,,,67.0,,,,,,0,note_on,,127.0,67.0,127.0,23135,12.049479166666666
9789,12.0,,0.0,,,,,,,,,,,0,control_change,121.0,,,,23135,12.049479166666666
9790,12.0,,32.0,,,,,,,,,,,0,control_change,0.0,,,,23135,12.049479166666666
9791,12.0,,,,,,,,,,24.0,,,0,program_change,,,,,23135,12.049479166666666
9792,12.0,,,,,,,63.0,,,,,,15,note_on,,0.0,63.0,0.0,23150,12.057291666666666
9793,9.0,,,,,,,28.0,,,,,,102,note_on,,0.0,28.0,0.0,110985,57.8046875
9794,9.0,,,,,,,39.0,,,,,,34,note_on,,0.0,39.0,0.0,111019,57.82239583333333
9795,9.0,,,,,,,70.0,,,,,,73,note_on,,0.0,70.0,0.0,111092,57.860416666666666
9796,9.0,,,,,,,42.0,,,,,,0,note_on,,0.0,42.0,0.0,111092,57.860416666666666
9797,12.0,,,,,,,63.0,,,,,,173,note_on,,0.0,63.0,0.0,23323,12.147395833333333
9798,12.0,,,,,,,67.0,,,,,,10,note_on,,0.0,67.0,0.0,23333,12.152604166666666
9799,12.0,,,,,,,70.0,,,,,,52,note_on,,0.0,70.0,0.0,23385,12.1796875
9800,9.0,,,,,,,70.0,,,,,,21,note_on,,40.0,70.0,40.0,111113,57.87135416666666
9801,9.0,,,,,,,36.0,,,,,,0,note_on,,126.0,36.0,126.0,111113,57.87135416666666
9802,9.0,,,,,,,35.0,,,,,,0,note_on,,60.0,35.0,60.0,111113,57.87135416666666
9803,9.0,,,,,,,35.0,,,,,,166,note_on,,0.0,35.0,0.0,111279,57.957812499999996
9804,9.0,,,,,,,36.0,,,,,,0,note_on,,0.0,36.0,0.0,111279,57.957812499999996
9805,9.0,,,,,,,70.0,,,,,,58,note_on,,0.0,70.0,0.0,111337,57.98802083333333
9806,9.0,,,,,,,42.0,,,,,,256,note_on,,85.0,42.0,85.0,111593,58.12135416666666
9807,9.0,,,,,,,70.0,,,,,,0,note_on,,40.0,70.0,40.0,111593,58.12135416666666
9808,9.0,,,,,,,70.0,,,,,,224,note_on,,0.0,70.0,0.0,111817,58.23802083333333
9809,9.0,,,,,,,42.0,,,,,,0,note_on,,0.0,42.0,0.0,111817,58.23802083333333
9810,9.0,,,,,,,70.0,,,,,,256,note_on,,40.0,70.0,40.0,112073,58.37135416666666
9811,9.0,,,,,,,36.0,,,,,,0,note_on,,126.0,36.0,126.0,112073,58.37135416666666
9812,9.0,,,,,,,35.0,,,,,,0,note_on,,60.0,35.0,60.0,112073,58.37135416666666
9813,9.0,,,,,,,35.0,,,,,,154,note_on,,0.0,35.0,0.0,112227,58.4515625
9814,9.0,,,,,,,36.0,,,,,,0,note_on,,0.0,36.0,0.0,112227,58.4515625
9815,9.0,,,,,,,70.0,,,,,,70,note_on,,0.0,70.0,0.0,112297,58.48802083333333
9816,9.0,,,,,,,42.0,,,,,,256,note_on,,85.0,42.0,85.0,112553,58.62135416666666
9817,9.0,,,,,,,70.0,,,,,,0,note_on,,40.0,70.0,40.0,112553,58.62135416666666
9818,9.0,,,,,,,39.0,,,,,,0,note_on,,127.0,39.0,127.0,112553,58.62135416666666
9819,9.0,,,,,,,28.0,,,,,,0,note_on,,127.0,28.0,127.0,112553,58.62135416666666
9820,11.0,,,,,,,67.0,,,,,,0,note_on,,127.0,67.0,127.0,26555,13.830729166666666
9821,11.0,,,,,,,72.0,,,,,,0,note_on,,127.0,72.0,127.0,26555,13.830729166666666
9822,11.0,,,,,,,63.0,,,,,,0,note_on,,127.0,63.0,127.0,26555,13.830729166666666
9823,9.0,,,,,,,39.0,,,,,,123,note_on,,0.0,39.0,0.0,112676,58.68541666666667
9824,9.0,,,,,,,28.0,,,,,,2,note_on,,0.0,28.0,0.0,112678,58.686458333333334
9825,9.0,,,,,,,42.0,,,,,,99,note_on,,0.0,42.0,0.0,112777,58.73802083333333
9826,9.0,,,,,,,70.0,,,,,,0,note_on,,0.0,70.0,0.0,112777,58.73802083333333
9827,11.0,,,,,,,63.0,,,,,,141,note_on,,0.0,63.0,0.0,26696,13.904166666666667
9828,11.0,,,,,,,72.0,,,,,,15,note_on,,0.0,72.0,0.0,26711,13.911979166666667
9829,11.0,,,,,,,67.0,,,,,,8,note_on,,0.0,67.0,0.0,26719,13.916145833333333
9830,9.0,,,,,,,70.0,,,,,,92,note_on,,40.0,70.0,40.0,112869,58.785937499999996
9831,10.0,,,,,,,67.0,,,,,,0,note_on,,127.0,67.0,127.0,15418,8.030208333333333
9832,10.0,,,,,,,72.0,,,,,,0,note_on,,127.0,72.0,127.0,15418,8.030208333333333
9833,10.0,,,,,,,63.0,,,,,,0,note_on,,127.0,63.0,127.0,15418,8.030208333333333
9834,11.0,,,,,,,67.0,,,,,,0,note_on,,127.0,67.0,127.0,26719,13.916145833333333
9835,11.0,,,,,,,70.0,,,,,,0,note_on,,118.0,70.0,118.0,26719,13.916145833333333
9836,11.0,,,,,,,63.0,,,,,,0,note_on,,127.0,63.0,127.0,26719,13.916145833333333
9837,9.0,,,,,,,70.0,,,,,,224,note_on,,0.0,70.0,0.0,113093,58.90260416666666
9838,10.0,,,,,,,63.0,,,,,,141,note_on,,0.0,63.0,0.0,15559,8.103645833333333
9839,10.0,,,,,,,72.0,,,,,,15,note_on,,0.0,72.0,0.0,15574,8.111458333333333
9840,10.0,,,,,,,67.0,,,,,,8,note_on,,0.0,67.0,0.0,15582,8.115625
9841,11.0,,,,,,,63.0,,,,,,38,note_on,,0.0,63.0,0.0,26757,13.9359375
9842,11.0,,,,,,,70.0,,,,,,0,note_on,,0.0,70.0,0.0,26757,13.9359375
9843,11.0,,,,,,,67.0,,,,,,3,note_on,,0.0,67.0,0.0,26760,13.9375
9844,3.0,,,,,,,15.0,,,,,,51,note_on,,80.0,15.0,80.0,54853,28.569270833333334
9845,9.0,,,,,,,42.0,,,,,,0,note_on,,85.0,42.0,85.0,113093,58.90260416666666
9846,9.0,,,,,,,70.0,,,,,,0,note_on,,40.0,70.0,40.0,113093,58.90260416666666
9847,9.0,,,,,,,36.0,,,,,,0,note_on,,126.0,36.0,126.0,113093,58.90260416666666
9848,9.0,,,,,,,35.0,,,,,,0,note_on,,60.0,35.0,60.0,113093,58.90260416666666
9849,10.0,,,,,,,67.0,,,,,,0,note_on,,127.0,67.0,127.0,15582,8.115625
9850,10.0,,,,,,,70.0,,,,,,0,note_on,,118.0,70.0,118.0,15582,8.115625
9851,10.0,,,,,,,63.0,,,,,,0,note_on,,127.0,63.0,127.0,15582,8.115625
9852,12.0,,,,,,,67.0,,,,,,0,note_on,,127.0,67.0,127.0,23385,12.1796875
9853,12.0,,,,,,,72.0,,,,,,0,note_on,,127.0,72.0,127.0,23385,12.1796875
9854,12.0,,,,,,,63.0,,,,,,0,note_on,,127.0,63.0,127.0,23385,12.1796875
9855,3.0,,,,,,,15.0,,,,,,133,note_on,,0.0,15.0,0.0,54986,28.638541666666665
9856,9.0,,,,,,,35.0,,,,,,39,note_on,,0.0,35.0,0.0,113132,58.922916666666666
9857,9.0,,,,,,,36.0,,,,,,0,note_on,,0.0,36.0,0.0,113132,58.922916666666666
9858,9.0,,,,,,,42.0,,,,,,52,note_on,,0.0,42.0,0.0,113184,58.949999999999996
9859,9.0,,,,,,,70.0,,,,,,0,note_on,,0.0,70.0,0.0,113184,58.949999999999996
9860,12.0,,,,,,,63.0,,,,,,141,note_on,,0.0,63.0,0.0,23526,12.253125
9861,12.0,,,,,,,72.0,,,,,,15,note_on,,0.0,72.0,0.0,23541,12.2609375
9862,12.0,,,,,,,67.0,,,,,,8,note_on,,0.0,67.0,0.0,23549,12.265104166666667
9863,10.0,,,,,,,70.0,,,,,,38,note_on,,0.0,70.0,0.0,15620,8.135416666666666
9864,10.0,,,,,,,63.0,,,,,,0,note_on,,0.0,63.0,0.0,15620,8.135416666666666
9865,10.0,,,,,,,67.0,,,,,,3,note_on,,0.0,67.0,0.0,15623,8.136979166666666
9866,9.0,,,,,,,70.0,,,,,,51,note_on,,40.0,70.0,40.0,113235,58.9765625
9867,12.0,,,,,,,67.0,,,,,,0,note_on,,127.0,67.0,127.0,23549,12.265104166666667
9868,12.0,,,,,,,70.0,,,,,,0,note_on,,118.0,70.0,118.0,23549,12.265104166666667
9869,12.0,,,,,,,63.0,,,,,,0,note_on,,127.0,63.0,127.0,23549,12.265104166666667
9870,9.0,,,,,,,70.0,,,,,,224,note_on,,0.0,70.0,0.0,113459,59.09322916666667
9871,9.0,,,,,,,36.0,,,,,,16,note_on,,126.0,36.0,126.0,113475,59.1015625
9872,9.0,,,,,,,35.0,,,,,,0,note_on,,60.0,35.0,60.0,113475,59.1015625
9873,12.0,,,,,,,63.0,,,,,,186,note_on,,0.0,63.0,0.0,23735,12.361979166666666
9874,12.0,,,,,,,70.0,,,,,,0,note_on,,0.0,70.0,0.0,23735,12.361979166666666
9875,12.0,,,,,,,67.0,,,,,,3,note_on,,0.0,67.0,0.0,23738,12.363541666666666
9876,9.0,,,,,,,35.0,,,,,,35,note_on,,0.0,35.0,0.0,113510,59.119791666666664
9877,9.0,,,,,,,36.0,,,,,,0,note_on,,0.0,36.0,0.0,113510,59.119791666666664
9878,9.0,,,,,,,42.0,,,,,,16,note_on,,85.0,42.0,85.0,113526,59.128125
9879,9.0,,,,,,,70.0,,,,,,0,note_on,,40.0,70.0,40.0,113526,59.128125
9880,9.0,,,,,,,39.0,,,,,,0,note_on,,125.0,39.0,125.0,113526,59.128125
9881,9.0,,,,,,,28.0,,,,,,0,note_on,,127.0,28.0,127.0,113526,59.128125
9882,9.0,,,,,,,28.0,,,,,,117,note_on,,0.0,28.0,0.0,113643,59.1890625
9883,9.0,,,,,,,39.0,,,,,,34,note_on,,0.0,39.0,0.0,113677,59.20677083333333
9884,9.0,,,,,,,70.0,,,,,,73,note_on,,0.0,70.0,0.0,113750,59.244791666666664
9885,9.0,,,,,,,42.0,,,,,,0,note_on,,0.0,42.0,0.0,113750,59.244791666666664
9886,9.0,,,,,,,46.0,,,,,,256,note_on,,100.0,46.0,100.0,114006,59.378125
9887,9.0,,,,,,,70.0,,,,,,0,note_on,,40.0,70.0,40.0,114006,59.378125
9888,9.0,,,,,,,36.0,,,,,,0,note_on,,126.0,36.0,126.0,114006,59.378125
9889,9.0,,,,,,,35.0,,,,,,0,note_on,,60.0,35.0,60.0,114006,59.378125
9890,9.0,,,,,,,35.0,,,,,,166,note_on,,0.0,35.0,0.0,114172,59.46458333333333
9891,9.0,,,,,,,36.0,,,,,,0,note_on,,0.0,36.0,0.0,114172,59.46458333333333
9892,9.0,,,,,,,70.0,,,,,,58,note_on,,0.0,70.0,0.0,114230,59.494791666666664
9893,9.0,,,,,,,46.0,,,,,,0,note_on,,0.0,46.0,0.0,114230,59.494791666666664
9894,9.0,,,,,,,46.0,,,,,,256,note_on,,100.0,46.0,100.0,114486,59.628125
9895,9.0,,,,,,,70.0,,,,,,0,note_on,,40.0,70.0,40.0,114486,59.628125
9896,9.0,,,,,,,70.0,,,,,,224,note_on,,0.0,70.0,0.0,114710,59.744791666666664
9897,9.0,,,,,,,46.0,,,,,,0,note_on,,0.0,46.0,0.0,114710,59.744791666666664
9898,9.0,,,,,,,70.0,,,,,,256,note_on,,40.0,70.0,40.0,114966,59.878125
9899,9.0,,,,,,,36.0,,,,,,0,note_on,,126.0,36.0,126.0,114966,59.878125
9900,9.0,,,,,,,35.0,,,,,,0,note_on,,60.0,35.0,60.0,114966,59.878125
9901,9.0,,,,,,,35.0,,,,,,154,note_on,,0.0,35.0,0.0,115120,59.958333333333336
9902,9.0,,,,,,,36.0,,,,,,0,note_on,,0.0,36.0,0.0,115120,59.958333333333336
9903,9.0,,,,,,,70.0,,,,,,70,note_on,,0.0,70.0,0.0,115190,59.994791666666664
9904,9.0,,,,,,,42.0,,,,,,256,note_on,,85.0,42.0,85.0,115446,60.128125
9905,9.0,,,,,,,70.0,,,,,,0,note_on,,40.0,70.0,40.0,115446,60.128125
9906,9.0,,,,,,,39.0,,,,,,0,note_on,,127.0,39.0,127.0,115446,60.128125
9907,9.0,,,,,,,28.0,,,,,,0,note_on,,127.0,28.0,127.0,115446,60.128125
9908,9.0,,,,,,,39.0,,,,,,123,note_on,,0.0,39.0,0.0,115569,60.192187499999996
9909,9.0,,,,,,,28.0,,,,,,2,note_on,,0.0,28.0,0.0,115571,60.19322916666667
9910,9.0,,,,,,,70.0,,,,,,99,note_on,,0.0,70.0,0.0,115670,60.244791666666664
9911,9.0,,,,,,,42.0,,,,,,0,note_on,,0.0,42.0,0.0,115670,60.244791666666664
9912,9.0,,,,,,,61.0,,,,,,256,note_on,,100.0,61.0,100.0,115926,60.378125
9913,9.0,,,,,,,70.0,,,,,,0,note_on,,40.0,70.0,40.0,115926,60.378125
9914,9.0,,,,,,,61.0,,,,,,114,note_on,,0.0,61.0,0.0,116040,60.4375
9915,9.0,,,,,,,61.0,,,,,,6,note_on,,100.0,61.0,100.0,116046,60.440625
9916,9.0,,,,,,,70.0,,,,,,104,note_on,,0.0,70.0,0.0,116150,60.494791666666664
9917,9.0,,,,,,,61.0,,,,,,10,note_on,,0.0,61.0,0.0,116160,60.5
9918,9.0,,,,,,,61.0,,,,,,6,note_on,,100.0,61.0,100.0,116166,60.503125
9919,9.0,,,,,,,61.0,,,,,,114,note_on,,0.0,61.0,0.0,116280,60.5625
9920,9.0,,,,,,,61.0,,,,,,6,note_on,,100.0,61.0,100.0,116286,60.565625
9921,9.0,,,,,,,61.0,,,,,,114,note_on,,0.0,61.0,0.0,116400,60.625
9922,3.0,,,,,,,15.0,,,,,,6,note_on,,98.0,15.0,98.0,54992,28.641666666666666
9923,9.0,,,,,,,61.0,,,,,,0,note_on,,100.0,61.0,100.0,116400,60.625
9924,9.0,,,,,,,42.0,,,,,,0,note_on,,85.0,42.0,85.0,116400,60.625
9925,9.0,,,,,,,70.0,,,,,,0,note_on,,40.0,70.0,40.0,116400,60.625
9926,9.0,,,,,,,36.0,,,,,,0,note_on,,126.0,36.0,126.0,116400,60.625
9927,9.0,,,,,,,35.0,,,,,,0,note_on,,60.0,35.0,60.0,116400,60.625
9928,11.0,,,,,,,63.0,,,,,,0,note_on,,127.0,63.0,127.0,26760,13.9375
9929,11.0,,,,,,,60.0,,,,,,0,note_on,,127.0,60.0,127.0,26760,13.9375
9930,11.0,,,,,,,67.0,,,,,,0,note_on,,127.0,67.0,127.0,26760,13.9375
9931,9.0,,,,,,,61.0,,,,,,114,note_on,,0.0,61.0,0.0,116514,60.684374999999996
9932,9.0,,,,,,,36.0,,,,,,58,note_on,,0.0,36.0,0.0,116572,60.71458333333333
9933,3.0,,,,,,,15.0,,,,,,0,note_on,,0.0,15.0,0.0,54992,28.641666666666666
9934,9.0,,,,,,,35.0,,,,,,0,note_on,,0.0,35.0,0.0,116572,60.71458333333333
9935,9.0,,,,,,,70.0,,,,,,52,note_on,,0.0,70.0,0.0,116624,60.74166666666667
9936,9.0,,,,,,,42.0,,,,,,0,note_on,,0.0,42.0,0.0,116624,60.74166666666667
9937,11.0,,,,,,,60.0,,,,,,180,note_on,,0.0,60.0,0.0,26940,14.03125
9938,11.0,,,,,,,63.0,,,,,,32,note_on,,0.0,63.0,0.0,26972,14.047916666666666
9939,11.0,,,,,,,67.0,,,,,,6,note_on,,0.0,67.0,0.0,26978,14.051041666666666
9940,9.0,,,,,,,70.0,,,,,,38,note_on,,40.0,70.0,40.0,116662,60.76145833333333
9941,10.0,,,,,,,63.0,,,,,,0,note_on,,127.0,63.0,127.0,15623,8.136979166666666
9942,10.0,,,,,,,60.0,,,,,,0,note_on,,127.0,60.0,127.0,15623,8.136979166666666
9943,10.0,,,,,,,67.0,,,,,,0,note_on,,127.0,67.0,127.0,15623,8.136979166666666
9944,9.0,,,,,,,70.0,,,,,,224,note_on,,0.0,70.0,0.0,116886,60.878125
9945,9.0,,,,,,,36.0,,,,,,16,note_on,,126.0,36.0,126.0,116902,60.88645833333333
9946,9.0,,,,,,,35.0,,,,,,0,note_on,,60.0,35.0,60.0,116902,60.88645833333333
9947,10.0,,,,,,,60.0,,,,,,164,note_on,,0.0,60.0,0.0,15787,8.222395833333334
9948,10.0,,,,,,,63.0,,,,,,32,note_on,,0.0,63.0,0.0,15819,8.2390625
9949,10.0,,,,,,,67.0,,,,,,6,note_on,,0.0,67.0,0.0,15825,8.2421875
9950,9.0,,,,,,,36.0,,,,,,22,note_on,,0.0,36.0,0.0,116924,60.89791666666667
9951,9.0,,,,,,,35.0,,,,,,0,note_on,,0.0,35.0,0.0,116924,60.89791666666667
9952,9.0,,,,,,,42.0,,,,,,16,note_on,,85.0,42.0,85.0,116940,60.90625
9953,9.0,,,,,,,70.0,,,,,,0,note_on,,40.0,70.0,40.0,116940,60.90625
9954,9.0,,,,,,,39.0,,,,,,0,note_on,,125.0,39.0,125.0,116940,60.90625
9955,9.0,,,,,,,28.0,,,,,,0,note_on,,127.0,28.0,127.0,116940,60.90625
9956,12.0,,,,,,,63.0,,,,,,0,note_on,,127.0,63.0,127.0,23738,12.363541666666666
9957,12.0,,,,,,,60.0,,,,,,0,note_on,,127.0,60.0,127.0,23738,12.363541666666666
9958,12.0,,,,,,,67.0,,,,,,0,note_on,,127.0,67.0,127.0,23738,12.363541666666666
9959,9.0,,,,,,,28.0,,,,,,117,note_on,,0.0,28.0,0.0,117057,60.9671875
9960,9.0,,,,,,,39.0,,,,,,34,note_on,,0.0,39.0,0.0,117091,60.98489583333333
9961,9.0,,,,,,,42.0,,,,,,73,note_on,,0.0,42.0,0.0,117164,61.02291666666667
9962,9.0,,,,,,,70.0,,,,,,0,note_on,,0.0,70.0,0.0,117164,61.02291666666667
9963,12.0,,,,,,,60.0,,,,,,180,note_on,,0.0,60.0,0.0,23918,12.457291666666666
9964,12.0,,,,,,,63.0,,,,,,32,note_on,,0.0,63.0,0.0,23950,12.473958333333334
9965,12.0,,,,,,,67.0,,,,,,6,note_on,,0.0,67.0,0.0,23956,12.477083333333333
9966,9.0,,,,,,,70.0,,,,,,38,note_on,,40.0,70.0,40.0,117202,61.04270833333333
9967,9.0,,,,,,,36.0,,,,,,0,note_on,,126.0,36.0,126.0,117202,61.04270833333333
9968,9.0,,,,,,,35.0,,,,,,0,note_on,,60.0,35.0,60.0,117202,61.04270833333333
9969,9.0,,,,,,,35.0,,,,,,166,note_on,,0.0,35.0,0.0,117368,61.12916666666666
9970,9.0,,,,,,,36.0,,,,,,0,note_on,,0.0,36.0,0.0,117368,61.12916666666666
9971,9.0,,,,,,,70.0,,,,,,58,note_on,,0.0,70.0,0.0,117426,61.159375
9972,9.0,,,,,,,42.0,,,,,,256,note_on,,85.0,42.0,85.0,117682,61.29270833333333
9973,9.0,,,,,,,70.0,,,,,,0,note_on,,40.0,70.0,40.0,117682,61.29270833333333
9974,9.0,,,,,,,70.0,,,,,,224,note_on,,0.0,70.0,0.0,117906,61.409375
9975,9.0,,,,,,,42.0,,,,,,0,note_on,,0.0,42.0,0.0,117906,61.409375
9976,9.0,,,,,,,70.0,,,,,,256,note_on,,40.0,70.0,40.0,118162,61.54270833333333
9977,9.0,,,,,,,36.0,,,,,,0,note_on,,126.0,36.0,126.0,118162,61.54270833333333
9978,9.0,,,,,,,35.0,,,,,,0,note_on,,60.0,35.0,60.0,118162,61.54270833333333
9979,9.0,,,,,,,35.0,,,,,,154,note_on,,0.0,35.0,0.0,118316,61.62291666666667
9980,9.0,,,,,,,36.0,,,,,,0,note_on,,0.0,36.0,0.0,118316,61.62291666666667
9981,9.0,,,,,,,70.0,,,,,,70,note_on,,0.0,70.0,0.0,118386,61.659375
9982,9.0,,,,,,,42.0,,,,,,256,note_on,,85.0,42.0,85.0,118642,61.79270833333333
9983,9.0,,,,,,,70.0,,,,,,0,note_on,,40.0,70.0,40.0,118642,61.79270833333333
9984,9.0,,,,,,,39.0,,,,,,0,note_on,,127.0,39.0,127.0,118642,61.79270833333333
9985,9.0,,,,,,,28.0,,,,,,0,note_on,,127.0,28.0,127.0,118642,61.79270833333333
9986,11.0,,,,,,,68.0,,,,,,0,note_on,,127.0,68.0,127.0,26978,14.051041666666666
9987,11.0,,,,,,,60.0,,,,,,0,note_on,,127.0,60.0,127.0,26978,14.051041666666666
9988,11.0,,,,,,,63.0,,,,,,0,note_on,,127.0,63.0,127.0,26978,14.051041666666666
9989,9.0,,,,,,,39.0,,,,,,123,note_on,,0.0,39.0,0.0,118765,61.856770833333336
9990,9.0,,,,,,,28.0,,,,,,2,note_on,,0.0,28.0,0.0,118767,61.8578125
9991,9.0,,,,,,,42.0,,,,,,99,note_on,,0.0,42.0,0.0,118866,61.909375
9992,9.0,,,,,,,70.0,,,,,,0,note_on,,0.0,70.0,0.0,118866,61.909375
9993,11.0,,,,,,,68.0,,,,,,161,note_on,,0.0,68.0,0.0,27139,14.134895833333333
9994,11.0,,,,,,,60.0,,,,,,4,note_on,,0.0,60.0,0.0,27143,14.136979166666666
9995,11.0,,,,,,,63.0,,,,,,19,note_on,,0.0,63.0,0.0,27162,14.146875
9996,9.0,,,,,,,70.0,,,,,,72,note_on,,40.0,70.0,40.0,118938,61.946875
9997,10.0,,,,,,,68.0,,,,,,0,note_on,,127.0,68.0,127.0,15825,8.2421875
9998,10.0,,,,,,,60.0,,,,,,0,note_on,,127.0,60.0,127.0,15825,8.2421875
9999,10.0,,,,,,,63.0,,,,,,0,note_on,,127.0,63.0,127.0,15825,8.2421875
10000,11.0,,,,,,,63.0,,,,,,0,note_on,,127.0,63.0,127.0,27162,14.146875
10001,11.0,,,,,,,60.0,,,,,,0,note_on,,127.0,60.0,127.0,27162,14.146875
10002,11.0,,,,,,,67.0,,,,,,0,note_on,,127.0,67.0,127.0,27162,14.146875
10003,9.0,,,,,,,70.0,,,,,,224,note_on,,0.0,70.0,0.0,119162,62.063541666666666
10004,11.0,,,,,,,60.0,,,,,,147,note_on,,0.0,60.0,0.0,27309,14.2234375
10005,11.0,,,,,,,67.0,,,,,,11,note_on,,0.0,67.0,0.0,27320,14.229166666666666
10006,10.0,,,,,,,68.0,,,,,,3,note_on,,0.0,68.0,0.0,15828,8.24375
10007,10.0,,,,,,,60.0,,,,,,4,note_on,,0.0,60.0,0.0,15832,8.245833333333334
10008,10.0,,,,,,,63.0,,,,,,19,note_on,,0.0,63.0,0.0,15851,8.255729166666667
10009,11.0,,,,,,,63.0,,,,,,18,note_on,,0.0,63.0,0.0,27338,14.238541666666666
10010,3.0,,,,,,,15.0,,,,,,54,note_on,,79.0,15.0,79.0,55046,28.669791666666665
10011,9.0,,,,,,,42.0,,,,,,0,note_on,,85.0,42.0,85.0,119162,62.063541666666666
10012,9.0,,,,,,,70.0,,,,,,0,note_on,,40.0,70.0,40.0,119162,62.063541666666666
10013,9.0,,,,,,,36.0,,,,,,0,note_on,,126.0,36.0,126.0,119162,62.063541666666666
10014,9.0,,,,,,,35.0,,,,,,0,note_on,,60.0,35.0,60.0,119162,62.063541666666666
10015,10.0,,,,,,,63.0,,,,,,0,note_on,,127.0,63.0,127.0,15851,8.255729166666667
10016,10.0,,,,,,,60.0,,,,,,0,note_on,,127.0,60.0,127.0,15851,8.255729166666667
10017,10.0,,,,,,,67.0,,,,,,0,note_on,,127.0,67.0,127.0,15851,8.255729166666667
10018,12.0,,,,,,,68.0,,,,,,0,note_on,,127.0,68.0,127.0,23956,12.477083333333333
10019,12.0,,,,,,,60.0,,,,,,0,note_on,,127.0,60.0,127.0,23956,12.477083333333333
10020,12.0,,,,,,,63.0,,,,,,0,note_on,,127.0,63.0,127.0,23956,12.477083333333333
10021,9.0,,,,,,,35.0,,,,,,172,note_on,,0.0,35.0,0.0,119334,62.153124999999996
10022,9.0,,,,,,,36.0,,,,,,0,note_on,,0.0,36.0,0.0,119334,62.153124999999996
10023,3.0,,,,,,,15.0,,,,,,1,note_on,,0.0,15.0,0.0,55047,28.670312499999998
10024,9.0,,,,,,,42.0,,,,,,51,note_on,,0.0,42.0,0.0,119385,62.1796875
10025,9.0,,,,,,,70.0,,,,,,0,note_on,,0.0,70.0,0.0,119385,62.1796875
10026,10.0,,,,,,,60.0,,,,,,147,note_on,,0.0,60.0,0.0,15998,8.332291666666666
10027,10.0,,,,,,,67.0,,,,,,11,note_on,,0.0,67.0,0.0,16009,8.338020833333333
10028,12.0,,,,,,,68.0,,,,,,3,note_on,,0.0,68.0,0.0,23959,12.478645833333333
10029,12.0,,,,,,,60.0,,,,,,4,note_on,,0.0,60.0,0.0,23963,12.480729166666666
10030,12.0,,,,,,,63.0,,,,,,19,note_on,,0.0,63.0,0.0,23982,12.490625
10031,10.0,,,,,,,63.0,,,,,,18,note_on,,0.0,63.0,0.0,16027,8.347395833333334
10032,9.0,,,,,,,70.0,,,,,,54,note_on,,40.0,70.0,40.0,119439,62.207812499999996
10033,12.0,,,,,,,63.0,,,,,,0,note_on,,127.0,63.0,127.0,23982,12.490625
10034,12.0,,,,,,,60.0,,,,,,0,note_on,,127.0,60.0,127.0,23982,12.490625
10035,12.0,,,,,,,67.0,,,,,,0,note_on,,127.0,67.0,127.0,23982,12.490625
10036,9.0,,,,,,,70.0,,,,,,224,note_on,,0.0,70.0,0.0,119663,62.32447916666666
10037,9.0,,,,,,,36.0,,,,,,16,note_on,,126.0,36.0,126.0,119679,62.332812499999996
10038,9.0,,,,,,,35.0,,,,,,0,note_on,,60.0,35.0,60.0,119679,62.332812499999996
10039,12.0,,,,,,,60.0,,,,,,131,note_on,,0.0,60.0,0.0,24113,12.558854166666666
10040,12.0,,,,,,,67.0,,,,,,11,note_on,,0.0,67.0,0.0,24124,12.564583333333333
10041,12.0,,,,,,,63.0,,,,,,44,note_on,,0.0,63.0,0.0,24168,12.5875
10042,9.0,,,,,,,36.0,,,,,,38,note_on,,0.0,36.0,0.0,119717,62.352604166666666
10043,9.0,,,,,,,35.0,,,,,,0,note_on,,0.0,35.0,0.0,119717,62.352604166666666
10044,9.0,,,,,,,42.0,,,,,,16,note_on,,85.0,42.0,85.0,119733,62.3609375
10045,9.0,,,,,,,70.0,,,,,,0,note_on,,40.0,70.0,40.0,119733,62.3609375
10046,9.0,,,,,,,39.0,,,,,,0,note_on,,125.0,39.0,125.0,119733,62.3609375
10047,9.0,,,,,,,28.0,,,,,,0,note_on,,127.0,28.0,127.0,119733,62.3609375
10048,9.0,,,,,,,28.0,,,,,,117,note_on,,0.0,28.0,0.0,119850,62.421875
10049,9.0,,,,,,,39.0,,,,,,34,note_on,,0.0,39.0,0.0,119884,62.43958333333333
10050,9.0,,,,,,,70.0,,,,,,73,note_on,,0.0,70.0,0.0,119957,62.477604166666666
10051,9.0,,,,,,,42.0,,,,,,0,note_on,,0.0,42.0,0.0,119957,62.477604166666666
10052,9.0,,,,,,,46.0,,,,,,256,note_on,,100.0,46.0,100.0,120213,62.6109375
10053,9.0,,,,,,,70.0,,,,,,0,note_on,,40.0,70.0,40.0,120213,62.6109375
10054,9.0,,,,,,,36.0,,,,,,0,note_on,,126.0,36.0,126.0,120213,62.6109375
10055,9.0,,,,,,,35.0,,,,,,0,note_on,,60.0,35.0,60.0,120213,62.6109375
10056,9.0,,,,,,,35.0,,,,,,166,note_on,,0.0,35.0,0.0,120379,62.69739583333333
10057,9.0,,,,,,,36.0,,,,,,0,note_on,,0.0,36.0,0.0,120379,62.69739583333333
10058,9.0,,,,,,,70.0,,,,,,58,note_on,,0.0,70.0,0.0,120437,62.727604166666666
10059,9.0,,,,,,,46.0,,,,,,0,note_on,,0.0,46.0,0.0,120437,62.727604166666666
10060,9.0,,,,,,,46.0,,,,,,256,note_on,,100.0,46.0,100.0,120693,62.8609375
10061,9.0,,,,,,,70.0,,,,,,0,note_on,,40.0,70.0,40.0,120693,62.8609375
10062,9.0,,,,,,,70.0,,,,,,224,note_on,,0.0,70.0,0.0,120917,62.977604166666666
10063,9.0,,,,,,,46.0,,,,,,0,note_on,,0.0,46.0,0.0,120917,62.977604166666666
10064,9.0,,,,,,,70.0,,,,,,256,note_on,,40.0,70.0,40.0,121173,63.1109375
10065,9.0,,,,,,,36.0,,,,,,0,note_on,,126.0,36.0,126.0,121173,63.1109375
10066,9.0,,,,,,,35.0,,,,,,0,note_on,,60.0,35.0,60.0,121173,63.1109375
10067,9.0,,,,,,,35.0,,,,,,154,note_on,,0.0,35.0,0.0,121327,63.19114583333333
10068,9.0,,,,,,,36.0,,,,,,0,note_on,,0.0,36.0,0.0,121327,63.19114583333333
10069,9.0,,,,,,,70.0,,,,,,70,note_on,,0.0,70.0,0.0,121397,63.227604166666666
10070,9.0,,,,,,,42.0,,,,,,256,note_on,,85.0,42.0,85.0,121653,63.3609375
10071,9.0,,,,,,,70.0,,,,,,0,note_on,,40.0,70.0,40.0,121653,63.3609375
10072,9.0,,,,,,,39.0,,,,,,0,note_on,,127.0,39.0,127.0,121653,63.3609375
10073,9.0,,,,,,,28.0,,,,,,0,note_on,,127.0,28.0,127.0,121653,63.3609375
10074,9.0,,,,,,,39.0,,,,,,123,note_on,,0.0,39.0,0.0,121776,63.425
10075,9.0,,,,,,,28.0,,,,,,2,note_on,,0.0,28.0,0.0,121778,63.42604166666666
10076,9.0,,,,,,,70.0,,,,,,99,note_on,,0.0,70.0,0.0,121877,63.477604166666666
10077,9.0,,,,,,,42.0,,,,,,0,note_on,,0.0,42.0,0.0,121877,63.477604166666666
10078,9.0,,,,,,,61.0,,,,,,256,note_on,,100.0,61.0,100.0,122133,63.6109375
10079,9.0,,,,,,,70.0,,,,,,0,note_on,,40.0,70.0,40.0,122133,63.6109375
10080,9.0,,,,,,,61.0,,,,,,114,note_on,,0.0,61.0,0.0,122247,63.6703125
10081,9.0,,,,,,,61.0,,,,,,6,note_on,,100.0,61.0,100.0,122253,63.6734375
10082,9.0,,,,,,,70.0,,,,,,104,note_on,,0.0,70.0,0.0,122357,63.727604166666666
10083,9.0,,,,,,,61.0,,,,,,10,note_on,,0.0,61.0,0.0,122367,63.7328125
10084,9.0,,,,,,,61.0,,,,,,6,note_on,,100.0,61.0,100.0,122373,63.7359375
10085,9.0,,,,,,,61.0,,,,,,114,note_on,,0.0,61.0,0.0,122487,63.7953125
10086,9.0,,,,,,,61.0,,,,,,6,note_on,,100.0,61.0,100.0,122493,63.7984375
10087,9.0,,,,,,,61.0,,,,,,114,note_on,,0.0,61.0,0.0,122607,63.8578125
10088,3.0,,,,,,,15.0,,,,,,6,note_on,,104.0,15.0,104.0,55053,28.6734375
10089,9.0,,,,,,,61.0,,,,,,0,note_on,,100.0,61.0,100.0,122607,63.8578125
10090,9.0,,,,,,,42.0,,,,,,0,note_on,,85.0,42.0,85.0,122607,63.8578125
10091,9.0,,,,,,,70.0,,,,,,0,note_on,,40.0,70.0,40.0,122607,63.8578125
10092,9.0,,,,,,,36.0,,,,,,0,note_on,,126.0,36.0,126.0,122607,63.8578125
10093,9.0,,,,,,,35.0,,,,,,0,note_on,,60.0,35.0,60.0,122607,63.8578125
10094,11.0,,,,,,,60.0,,,,,,0,note_on,,127.0,60.0,127.0,27338,14.238541666666666
10095,11.0,,,,,,,56.0,,,,,,0,note_on,,127.0,56.0,127.0,27338,14.238541666666666
10096,11.0,,,,,,,63.0,,,,,,0,note_on,,127.0,63.0,127.0,27338,14.238541666666666
10097,9.0,,,,,,,61.0,,,,,,114,note_on,,0.0,61.0,0.0,122721,63.9171875
10098,3.0,,,,,,,15.0,,,,,,44,note_on,,0.0,15.0,0.0,55097,28.696354166666666
10099,9.0,,,,,,,36.0,,,,,,14,note_on,,0.0,36.0,0.0,122735,63.924479166666664
10100,9.0,,,,,,,35.0,,,,,,0,note_on,,0.0,35.0,0.0,122735,63.924479166666664
10101,9.0,,,,,,,70.0,,,,,,52,note_on,,0.0,70.0,0.0,122787,63.9515625
10102,9.0,,,,,,,42.0,,,,,,0,note_on,,0.0,42.0,0.0,122787,63.9515625
10103,11.0,,,,,,,56.0,,,,,,207,note_on,,0.0,56.0,0.0,27545,14.346354166666666
10104,11.0,,,,,,,60.0,,,,,,25,note_on,,0.0,60.0,0.0,27570,14.359375
10105,9.0,,,,,,,70.0,,,,,,24,note_on,,40.0,70.0,40.0,122811,63.9640625
10106,10.0,,,,,,,60.0,,,,,,0,note_on,,127.0,60.0,127.0,16027,8.347395833333334
10107,10.0,,,,,,,56.0,,,,,,0,note_on,,127.0,56.0,127.0,16027,8.347395833333334
10108,10.0,,,,,,,63.0,,,,,,0,note_on,,127.0,63.0,127.0,16027,8.347395833333334
10109,11.0,,,,,,,63.0,,,,,,9,note_on,,0.0,63.0,0.0,27579,14.3640625
10110,9.0,,,,,,,70.0,,,,,,215,note_on,,0.0,70.0,0.0,123026,64.07604166666667
10111,9.0,,,,,,,36.0,,,,,,16,note_on,,126.0,36.0,126.0,123042,64.084375
10112,9.0,,,,,,,35.0,,,,,,0,note_on,,60.0,35.0,60.0,123042,64.084375
10113,10.0,,,,,,,56.0,,,,,,191,note_on,,0.0,56.0,0.0,16218,8.446875
10114,10.0,,,,,,,60.0,,,,,,25,note_on,,0.0,60.0,0.0,16243,8.459895833333333
10115,9.0,,,,,,,35.0,,,,,,8,note_on,,0.0,35.0,0.0,123050,64.08854166666667
10116,9.0,,,,,,,36.0,,,,,,0,note_on,,0.0,36.0,0.0,123050,64.08854166666667
10117,9.0,,,,,,,42.0,,,,,,16,note_on,,85.0,42.0,85.0,123066,64.096875
10118,9.0,,,,,,,70.0,,,,,,0,note_on,,40.0,70.0,40.0,123066,64.096875
10119,9.0,,,,,,,39.0,,,,,,0,note_on,,125.0,39.0,125.0,123066,64.096875
10120,9.0,,,,,,,28.0,,,,,,0,note_on,,127.0,28.0,127.0,123066,64.096875
10121,12.0,,,,,,,60.0,,,,,,0,note_on,,127.0,60.0,127.0,24168,12.5875
10122,12.0,,,,,,,56.0,,,,,,0,note_on,,127.0,56.0,127.0,24168,12.5875
10123,12.0,,,,,,,63.0,,,,,,0,note_on,,127.0,63.0,127.0,24168,12.5875
10124,10.0,,,,,,,63.0,,,,,,9,note_on,,0.0,63.0,0.0,16252,8.464583333333334
10125,9.0,,,,,,,28.0,,,,,,108,note_on,,0.0,28.0,0.0,123174,64.153125
10126,9.0,,,,,,,39.0,,,,,,34,note_on,,0.0,39.0,0.0,123208,64.17083333333333
10127,9.0,,,,,,,42.0,,,,,,73,note_on,,0.0,42.0,0.0,123281,64.20885416666667
10128,9.0,,,,,,,70.0,,,,,,0,note_on,,0.0,70.0,0.0,123281,64.20885416666667
10129,12.0,,,,,,,56.0,,,,,,207,note_on,,0.0,56.0,0.0,24375,12.6953125
10130,12.0,,,,,,,60.0,,,,,,25,note_on,,0.0,60.0,0.0,24400,12.708333333333334
10131,9.0,,,,,,,70.0,,,,,,24,note_on,,40.0,70.0,40.0,123305,64.22135416666667
10132,9.0,,,,,,,36.0,,,,,,0,note_on,,126.0,36.0,126.0,123305,64.22135416666667
10133,9.0,,,,,,,35.0,,,,,,0,note_on,,60.0,35.0,60.0,123305,64.22135416666667
10134,12.0,,,,,,,63.0,,,,,,9,note_on,,0.0,63.0,0.0,24409,12.713020833333333
10135,9.0,,,,,,,35.0,,,,,,157,note_on,,0.0,35.0,0.0,123462,64.303125
10136,9.0,,,,,,,36.0,,,,,,0,note_on,,0.0,36.0,0.0,123462,64.303125
10137,9.0,,,,,,,70.0,,,,,,58,note_on,,0.0,70.0,0.0,123520,64.33333333333333
10138,9.0,,,,,,,42.0,,,,,,256,note_on,,85.0,42.0,85.0,123776,64.46666666666667
10139,9.0,,,,,,,70.0,,,,,,0,note_on,,40.0,70.0,40.0,123776,64.46666666666667
10140,9.0,,,,,,,70.0,,,,,,224,note_on,,0.0,70.0,0.0,124000,64.58333333333333
10141,9.0,,,,,,,42.0,,,,,,0,note_on,,0.0,42.0,0.0,124000,64.58333333333333
10142,9.0,,,,,,,70.0,,,,,,256,note_on,,40.0,70.0,40.0,124256,64.71666666666667
10143,9.0,,,,,,,36.0,,,,,,0,note_on,,126.0,36.0,126.0,124256,64.71666666666667
10144,9.0,,,,,,,35.0,,,,,,0,note_on,,60.0,35.0,60.0,124256,64.71666666666667
10145,9.0,,,,,,,35.0,,,,,,154,note_on,,0.0,35.0,0.0,124410,64.796875
10146,9.0,,,,,,,36.0,,,,,,0,note_on,,0.0,36.0,0.0,124410,64.796875
10147,9.0,,,,,,,70.0,,,,,,70,note_on,,0.0,70.0,0.0,124480,64.83333333333333
10148,9.0,,,,,,,42.0,,,,,,256,note_on,,85.0,42.0,85.0,124736,64.96666666666667
10149,9.0,,,,,,,70.0,,,,,,0,note_on,,40.0,70.0,40.0,124736,64.96666666666667
10150,9.0,,,,,,,39.0,,,,,,0,note_on,,127.0,39.0,127.0,124736,64.96666666666667
10151,9.0,,,,,,,28.0,,,,,,0,note_on,,127.0,28.0,127.0,124736,64.96666666666667
10152,11.0,,,,,,,60.0,,,,,,0,note_on,,127.0,60.0,127.0,27579,14.3640625
10153,11.0,,,,,,,65.0,,,,,,0,note_on,,127.0,65.0,127.0,27579,14.3640625
10154,11.0,,,,,,,56.0,,,,,,0,note_on,,127.0,56.0,127.0,27579,14.3640625
10155,9.0,,,,,,,39.0,,,,,,123,note_on,,0.0,39.0,0.0,124859,65.03072916666666
10156,9.0,,,,,,,28.0,,,,,,2,note_on,,0.0,28.0,0.0,124861,65.03177083333333
10157,9.0,,,,,,,42.0,,,,,,99,note_on,,0.0,42.0,0.0,124960,65.08333333333333
10158,9.0,,,,,,,70.0,,,,,,0,note_on,,0.0,70.0,0.0,124960,65.08333333333333
10159,11.0,,,,,,,65.0,,,,,,160,note_on,,0.0,65.0,0.0,27739,14.447395833333333
10160,11.0,,,,,,,56.0,,,,,,10,note_on,,0.0,56.0,0.0,27749,14.452604166666667
10161,11.0,,,,,,,60.0,,,,,,21,note_on,,0.0,60.0,0.0,27770,14.463541666666666
10162,9.0,,,,,,,70.0,,,,,,65,note_on,,40.0,70.0,40.0,125025,65.1171875
10163,10.0,,,,,,,60.0,,,,,,0,note_on,,127.0,60.0,127.0,16252,8.464583333333334
10164,10.0,,,,,,,65.0,,,,,,0,note_on,,127.0,65.0,127.0,16252,8.464583333333334
10165,10.0,,,,,,,56.0,,,,,,0,note_on,,127.0,56.0,127.0,16252,8.464583333333334
10166,11.0,,,,,,,60.0,,,,,,0,note_on,,127.0,60.0,127.0,27770,14.463541666666666
10167,11.0,,,,,,,56.0,,,,,,0,note_on,,124.0,56.0,124.0,27770,14.463541666666666
10168,11.0,,,,,,,63.0,,,,,,0,note_on,,127.0,63.0,127.0,27770,14.463541666666666
10169,9.0,,,,,,,70.0,,,,,,224,note_on,,0.0,70.0,0.0,125249,65.23385416666666
10170,10.0,,,,,,,65.0,,,,,,160,note_on,,0.0,65.0,0.0,16412,8.547916666666666
10171,10.0,,,,,,,56.0,,,,,,10,note_on,,0.0,56.0,0.0,16422,8.553125
10172,10.0,,,,,,,60.0,,,,,,21,note_on,,0.0,60.0,0.0,16443,8.5640625
10173,11.0,,,,,,,56.0,,,,,,46,note_on,,0.0,56.0,0.0,27816,14.487499999999999
10174,3.0,,,,,,,15.0,,,,,,19,note_on,,91.0,15.0,91.0,55116,28.70625
10175,9.0,,,,,,,42.0,,,,,,0,note_on,,85.0,42.0,85.0,125249,65.23385416666666
10176,9.0,,,,,,,70.0,,,,,,0,note_on,,40.0,70.0,40.0,125249,65.23385416666666
10177,9.0,,,,,,,36.0,,,,,,0,note_on,,126.0,36.0,126.0,125249,65.23385416666666
10178,9.0,,,,,,,35.0,,,,,,0,note_on,,60.0,35.0,60.0,125249,65.23385416666666
10179,10.0,,,,,,,60.0,,,,,,0,note_on,,127.0,60.0,127.0,16443,8.5640625
10180,10.0,,,,,,,56.0,,,,,,0,note_on,,124.0,56.0,124.0,16443,8.5640625
10181,10.0,,,,,,,63.0,,,,,,0,note_on,,127.0,63.0,127.0,16443,8.5640625
10182,12.0,,,,,,,60.0,,,,,,0,note_on,,127.0,60.0,127.0,24409,12.713020833333333
10183,12.0,,,,,,,65.0,,,,,,0,note_on,,127.0,65.0,127.0,24409,12.713020833333333
10184,12.0,,,,,,,56.0,,,,,,0,note_on,,127.0,56.0,127.0,24409,12.713020833333333
10185,11.0,,,,,,,63.0,,,,,,14,note_on,,0.0,63.0,0.0,27830,14.494791666666666
10186,11.0,,,,,,,60.0,,,,,,6,note_on,,0.0,60.0,0.0,27836,14.497916666666667
10187,9.0,,,,,,,35.0,,,,,,152,note_on,,0.0,35.0,0.0,125401,65.31302083333333
10188,9.0,,,,,,,36.0,,,,,,0,note_on,,0.0,36.0,0.0,125401,65.31302083333333
10189,3.0,,,,,,,15.0,,,,,,23,note_on,,0.0,15.0,0.0,55139,28.718229166666667
10190,9.0,,,,,,,42.0,,,,,,29,note_on,,0.0,42.0,0.0,125430,65.328125
10191,9.0,,,,,,,70.0,,,,,,0,note_on,,0.0,70.0,0.0,125430,65.328125
10192,12.0,,,,,,,65.0,,,,,,160,note_on,,0.0,65.0,0.0,24569,12.796354166666667
10193,12.0,,,,,,,56.0,,,,,,10,note_on,,0.0,56.0,0.0,24579,12.8015625
10194,12.0,,,,,,,60.0,,,,,,21,note_on,,0.0,60.0,0.0,24600,12.8125
10195,10.0,,,,,,,56.0,,,,,,46,note_on,,0.0,56.0,0.0,16489,8.588020833333333
10196,9.0,,,,,,,70.0,,,,,,19,note_on,,40.0,70.0,40.0,125449,65.33802083333333
10197,12.0,,,,,,,60.0,,,,,,0,note_on,,127.0,60.0,127.0,24600,12.8125
10198,12.0,,,,,,,56.0,,,,,,0,note_on,,124.0,56.0,124.0,24600,12.8125
10199,12.0,,,,,,,63.0,,,,,,0,note_on,,127.0,63.0,127.0,24600,12.8125
10200,10.0,,,,,,,63.0,,,,,,14,note_on,,0.0,63.0,0.0,16503,8.5953125
10201,10.0,,,,,,,60.0,,,,,,6,note_on,,0.0,60.0,0.0,16509,8.5984375
10202,9.0,,,,,,,70.0,,,,,,204,note_on,,0.0,70.0,0.0,125653,65.44427083333333
10203,9.0,,,,,,,36.0,,,,,,16,note_on,,126.0,36.0,126.0,125669,65.45260416666666
10204,9.0,,,,,,,35.0,,,,,,0,note_on,,60.0,35.0,60.0,125669,65.45260416666666
10205,12.0,,,,,,,56.0,,,,,,221,note_on,,0.0,56.0,0.0,24821,12.927604166666667
10206,9.0,,,,,,,36.0,,,,,,3,note_on,,0.0,36.0,0.0,125672,65.45416666666667
10207,9.0,,,,,,,35.0,,,,,,0,note_on,,0.0,35.0,0.0,125672,65.45416666666667
10208,9.0,,,,,,,42.0,,,,,,16,note_on,,85.0,42.0,85.0,125688,65.4625
10209,9.0,,,,,,,70.0,,,,,,0,note_on,,40.0,70.0,40.0,125688,65.4625
10210,9.0,,,,,,,39.0,,,,,,0,note_on,,125.0,39.0,125.0,125688,65.4625
10211,9.0,,,,,,,28.0,,,,,,0,note_on,,127.0,28.0,127.0,125688,65.4625
10212,12.0,,,,,,,63.0,,,,,,14,note_on,,0.0,63.0,0.0,24835,12.934895833333334
10213,12.0,,,,,,,60.0,,,,,,6,note_on,,0.0,60.0,0.0,24841,12.938020833333333
10214,9.0,,,,,,,28.0,,,,,,97,note_on,,0.0,28.0,0.0,125785,65.51302083333333
10215,9.0,,,,,,,39.0,,,,,,34,note_on,,0.0,39.0,0.0,125819,65.53072916666666
10216,9.0,,,,,,,42.0,,,,,,73,note_on,,0.0,42.0,0.0,125892,65.56875
10217,9.0,,,,,,,70.0,,,,,,0,note_on,,0.0,70.0,0.0,125892,65.56875
10218,9.0,,,,,,,46.0,,,,,,256,note_on,,100.0,46.0,100.0,126148,65.70208333333333
10219,9.0,,,,,,,70.0,,,,,,0,note_on,,40.0,70.0,40.0,126148,65.70208333333333
10220,9.0,,,,,,,36.0,,,,,,0,note_on,,126.0,36.0,126.0,126148,65.70208333333333
10221,9.0,,,,,,,35.0,,,,,,0,note_on,,60.0,35.0,60.0,126148,65.70208333333333
10222,9.0,,,,,,,35.0,,,,,,166,note_on,,0.0,35.0,0.0,126314,65.78854166666666
10223,9.0,,,,,,,36.0,,,,,,0,note_on,,0.0,36.0,0.0,126314,65.78854166666666
10224,9.0,,,,,,,70.0,,,,,,58,note_on,,0.0,70.0,0.0,126372,65.81875
10225,9.0,,,,,,,46.0,,,,,,0,note_on,,0.0,46.0,0.0,126372,65.81875
10226,9.0,,,,,,,46.0,,,,,,256,note_on,,100.0,46.0,100.0,126628,65.95208333333333
10227,9.0,,,,,,,70.0,,,,,,0,note_on,,40.0,70.0,40.0,126628,65.95208333333333
10228,9.0,,,,,,,70.0,,,,,,224,note_on,,0.0,70.0,0.0,126852,66.06875
10229,9.0,,,,,,,46.0,,,,,,0,note_on,,0.0,46.0,0.0,126852,66.06875
10230,9.0,,,,,,,70.0,,,,,,256,note_on,,40.0,70.0,40.0,127108,66.20208333333333
10231,9.0,,,,,,,36.0,,,,,,0,note_on,,126.0,36.0,126.0,127108,66.20208333333333
10232,9.0,,,,,,,35.0,,,,,,0,note_on,,60.0,35.0,60.0,127108,66.20208333333333
10233,9.0,,,,,,,35.0,,,,,,154,note_on,,0.0,35.0,0.0,127262,66.28229166666667
10234,9.0,,,,,,,36.0,,,,,,0,note_on,,0.0,36.0,0.0,127262,66.28229166666667
10235,9.0,,,,,,,70.0,,,,,,70,note_on,,0.0,70.0,0.0,127332,66.31875
10236,9.0,,,,,,,42.0,,,,,,256,note_on,,85.0,42.0,85.0,127588,66.45208333333333
10237,9.0,,,,,,,70.0,,,,,,0,note_on,,40.0,70.0,40.0,127588,66.45208333333333
10238,9.0,,,,,,,39.0,,,,,,0,note_on,,127.0,39.0,127.0,127588,66.45208333333333
10239,9.0,,,,,,,28.0,,,,,,0,note_on,,127.0,28.0,127.0,127588,66.45208333333333
10240,9.0,,,,,,,39.0,,,,,,123,note_on,,0.0,39.0,0.0,127711,66.51614583333333
10241,9.0,,,,,,,28.0,,,,,,2,note_on,,0.0,28.0,0.0,127713,66.5171875
10242,9.0,,,,,,,70.0,,,,,,99,note_on,,0.0,70.0,0.0,127812,66.56875
10243,9.0,,,,,,,42.0,,,,,,0,note_on,,0.0,42.0,0.0,127812,66.56875
10244,9.0,,,,,,,61.0,,,,,,256,note_on,,100.0,61.0,100.0,128068,66.70208333333333
10245,9.0,,,,,,,70.0,,,,,,0,note_on,,40.0,70.0,40.0,128068,66.70208333333333
10246,9.0,,,,,,,61.0,,,,,,114,note_on,,0.0,61.0,0.0,128182,66.76145833333334
10247,9.0,,,,,,,61.0,,,,,,6,note_on,,100.0,61.0,100.0,128188,66.76458333333333
10248,9.0,,,,,,,70.0,,,,,,104,note_on,,0.0,70.0,0.0,128292,66.81875
10249,9.0,,,,,,,61.0,,,,,,10,note_on,,0.0,61.0,0.0,128302,66.82395833333334
10250,9.0,,,,,,,61.0,,,,,,6,note_on,,100.0,61.0,100.0,128308,66.82708333333333
10251,9.0,,,,,,,61.0,,,,,,114,note_on,,0.0,61.0,0.0,128422,66.88645833333334
10252,9.0,,,,,,,61.0,,,,,,6,note_on,,100.0,61.0,100.0,128428,66.88958333333333
10253,9.0,,,,,,,61.0,,,,,,114,note_on,,0.0,61.0,0.0,128542,66.94895833333334
10254,3.0,,,,,,,15.0,,,,,,6,note_on,,92.0,15.0,92.0,55145,28.721354166666668
10255,9.0,,,,,,,61.0,,,,,,0,note_on,,100.0,61.0,100.0,128542,66.94895833333334
10256,9.0,,,,,,,42.0,,,,,,0,note_on,,85.0,42.0,85.0,128542,66.94895833333334
10257,9.0,,,,,,,70.0,,,,,,0,note_on,,40.0,70.0,40.0,128542,66.94895833333334
10258,9.0,,,,,,,36.0,,,,,,0,note_on,,126.0,36.0,126.0,128542,66.94895833333334
10259,9.0,,,,,,,35.0,,,,,,0,note_on,,60.0,35.0,60.0,128542,66.94895833333334
10260,11.0,,,,,,,62.0,,,,,,0,note_on,,127.0,62.0,127.0,27836,14.497916666666667
10261,11.0,,,,,,,58.0,,,,,,0,note_on,,127.0,58.0,127.0,27836,14.497916666666667
10262,11.0,,,,,,,65.0,,,,,,0,note_on,,127.0,65.0,127.0,27836,14.497916666666667
10263,9.0,,,,,,,61.0,,,,,,114,note_on,,0.0,61.0,0.0,128656,67.00833333333333
10264,9.0,,,,,,,36.0,,,,,,58,note_on,,0.0,36.0,0.0,128714,67.03854166666666
10265,9.0,,,,,,,35.0,,,,,,0,note_on,,0.0,35.0,0.0,128714,67.03854166666666
10266,3.0,,,,,,,15.0,,,,,,25,note_on,,0.0,15.0,0.0,55170,28.734375
10267,9.0,,,,,,,70.0,,,,,,27,note_on,,0.0,70.0,0.0,128741,67.05260416666667
10268,9.0,,,,,,,42.0,,,,,,0,note_on,,0.0,42.0,0.0,128741,67.05260416666667
10269,11.0,,,,,,,58.0,,,,,,250,note_on,,0.0,58.0,0.0,28086,14.628124999999999
10270,9.0,,,,,,,70.0,,,,,,6,note_on,,40.0,70.0,40.0,128747,67.05572916666667
10271,10.0,,,,,,,62.0,,,,,,0,note_on,,127.0,62.0,127.0,16509,8.5984375
10272,10.0,,,,,,,58.0,,,,,,0,note_on,,127.0,58.0,127.0,16509,8.5984375
10273,10.0,,,,,,,65.0,,,,,,0,note_on,,127.0,65.0,127.0,16509,8.5984375
10274,11.0,,,,,,,65.0,,,,,,47,note_on,,0.0,65.0,0.0,28133,14.652604166666666
10275,11.0,,,,,,,62.0,,,,,,2,note_on,,0.0,62.0,0.0,28135,14.653645833333334
10276,9.0,,,,,,,70.0,,,,,,175,note_on,,0.0,70.0,0.0,128922,67.146875
10277,9.0,,,,,,,36.0,,,,,,16,note_on,,126.0,36.0,126.0,128938,67.15520833333333
10278,9.0,,,,,,,35.0,,,,,,0,note_on,,60.0,35.0,60.0,128938,67.15520833333333
10279,9.0,,,,,,,35.0,,,,,,224,note_on,,0.0,35.0,0.0,129162,67.271875
10280,9.0,,,,,,,36.0,,,,,,0,note_on,,0.0,36.0,0.0,129162,67.271875
10281,10.0,,,,,,,58.0,,,,,,10,note_on,,0.0,58.0,0.0,16519,8.603645833333333
10282,9.0,,,,,,,42.0,,,,,,6,note_on,,85.0,42.0,85.0,129168,67.275
10283,9.0,,,,,,,70.0,,,,,,0,note_on,,40.0,70.0,40.0,129168,67.275
10284,9.0,,,,,,,39.0,,,,,,0,note_on,,125.0,39.0,125.0,129168,67.275
10285,9.0,,,,,,,28.0,,,,,,0,note_on,,127.0,28.0,127.0,129168,67.275
10286,12.0,,,,,,,62.0,,,,,,0,note_on,,127.0,62.0,127.0,24841,12.938020833333333
10287,12.0,,,,,,,58.0,,,,,,0,note_on,,127.0,58.0,127.0,24841,12.938020833333333
10288,12.0,,,,,,,65.0,,,,,,0,note_on,,127.0,65.0,127.0,24841,12.938020833333333
10289,10.0,,,,,,,65.0,,,,,,47,note_on,,0.0,65.0,0.0,16566,8.628125
10290,10.0,,,,,,,62.0,,,,,,2,note_on,,0.0,62.0,0.0,16568,8.629166666666666
10291,9.0,,,,,,,28.0,,,,,,68,note_on,,0.0,28.0,0.0,129236,67.31041666666667
10292,9.0,,,,,,,39.0,,,,,,34,note_on,,0.0,39.0,0.0,129270,67.328125
10293,9.0,,,,,,,70.0,,,,,,73,note_on,,0.0,70.0,0.0,129343,67.36614583333333
10294,9.0,,,,,,,42.0,,,,,,0,note_on,,0.0,42.0,0.0,129343,67.36614583333333
10295,12.0,,,,,,,58.0,,,,,,250,note_on,,0.0,58.0,0.0,25091,13.068229166666667
10296,9.0,,,,,,,70.0,,,,,,6,note_on,,40.0,70.0,40.0,129349,67.36927083333333
10297,9.0,,,,,,,36.0,,,,,,0,note_on,,126.0,36.0,126.0,129349,67.36927083333333
10298,9.0,,,,,,,35.0,,,,,,0,note_on,,60.0,35.0,60.0,129349,67.36927083333333
10299,12.0,,,,,,,65.0,,,,,,47,note_on,,0.0,65.0,0.0,25138,13.092708333333333
10300,12.0,,,,,,,62.0,,,,,,2,note_on,,0.0,62.0,0.0,25140,13.09375
10301,9.0,,,,,,,36.0,,,,,,117,note_on,,0.0,36.0,0.0,129466,67.43020833333333
10302,9.0,,,,,,,35.0,,,,,,0,note_on,,0.0,35.0,0.0,129466,67.43020833333333
10303,9.0,,,,,,,70.0,,,,,,58,note_on,,0.0,70.0,0.0,129524,67.46041666666666
10304,9.0,,,,,,,42.0,,,,,,256,note_on,,85.0,42.0,85.0,129780,67.59375
10305,9.0,,,,,,,70.0,,,,,,0,note_on,,40.0,70.0,40.0,129780,67.59375
10306,9.0,,,,,,,70.0,,,,,,224,note_on,,0.0,70.0,0.0,130004,67.71041666666666
10307,9.0,,,,,,,42.0,,,,,,0,note_on,,0.0,42.0,0.0,130004,67.71041666666666
10308,9.0,,,,,,,70.0,,,,,,256,note_on,,40.0,70.0,40.0,130260,67.84375
10309,9.0,,,,,,,36.0,,,,,,0,note_on,,126.0,36.0,126.0,130260,67.84375
10310,9.0,,,,,,,35.0,,,,,,0,note_on,,60.0,35.0,60.0,130260,67.84375
10311,9.0,,,,,,,35.0,,,,,,154,note_on,,0.0,35.0,0.0,130414,67.92395833333333
10312,9.0,,,,,,,36.0,,,,,,0,note_on,,0.0,36.0,0.0,130414,67.92395833333333
10313,9.0,,,,,,,70.0,,,,,,70,note_on,,0.0,70.0,0.0,130484,67.96041666666666
10314,9.0,,,,,,,42.0,,,,,,256,note_on,,85.0,42.0,85.0,130740,68.09375
10315,9.0,,,,,,,70.0,,,,,,0,note_on,,40.0,70.0,40.0,130740,68.09375
10316,9.0,,,,,,,39.0,,,,,,0,note_on,,127.0,39.0,127.0,130740,68.09375
10317,9.0,,,,,,,28.0,,,,,,0,note_on,,127.0,28.0,127.0,130740,68.09375
10318,11.0,,,,,,,62.0,,,,,,0,note_on,,127.0,62.0,127.0,28135,14.653645833333334
10319,11.0,,,,,,,67.0,,,,,,0,note_on,,127.0,67.0,127.0,28135,14.653645833333334
10320,11.0,,,,,,,58.0,,,,,,0,note_on,,127.0,58.0,127.0,28135,14.653645833333334
10321,9.0,,,,,,,39.0,,,,,,123,note_on,,0.0,39.0,0.0,130863,68.1578125
10322,9.0,,,,,,,28.0,,,,,,2,note_on,,0.0,28.0,0.0,130865,68.15885416666667
10323,9.0,,,,,,,42.0,,,,,,99,note_on,,0.0,42.0,0.0,130964,68.21041666666666
10324,9.0,,,,,,,70.0,,,,,,0,note_on,,0.0,70.0,0.0,130964,68.21041666666666
10325,11.0,,,,,,,67.0,,,,,,143,note_on,,0.0,67.0,0.0,28278,14.728125
10326,11.0,,,,,,,58.0,,,,,,11,note_on,,0.0,58.0,0.0,28289,14.733854166666667
10327,11.0,,,,,,,62.0,,,,,,36,note_on,,0.0,62.0,0.0,28325,14.752604166666666
10328,9.0,,,,,,,70.0,,,,,,66,note_on,,40.0,70.0,40.0,131030,68.24479166666667
10329,10.0,,,,,,,62.0,,,,,,0,note_on,,127.0,62.0,127.0,16568,8.629166666666666
10330,10.0,,,,,,,67.0,,,,,,0,note_on,,127.0,67.0,127.0,16568,8.629166666666666
10331,10.0,,,,,,,58.0,,,,,,0,note_on,,127.0,58.0,127.0,16568,8.629166666666666
10332,11.0,,,,,,,62.0,,,,,,0,note_on,,127.0,62.0,127.0,28325,14.752604166666666
10333,11.0,,,,,,,58.0,,,,,,0,note_on,,118.0,58.0,118.0,28325,14.752604166666666
10334,11.0,,,,,,,65.0,,,,,,0,note_on,,127.0,65.0,127.0,28325,14.752604166666666
10335,9.0,,,,,,,70.0,,,,,,224,note_on,,0.0,70.0,0.0,131254,68.36145833333333
10336,10.0,,,,,,,67.0,,,,,,143,note_on,,0.0,67.0,0.0,16711,8.703645833333333
10337,10.0,,,,,,,58.0,,,,,,11,note_on,,0.0,58.0,0.0,16722,8.709375
10338,11.0,,,,,,,58.0,,,,,,7,note_on,,0.0,58.0,0.0,28332,14.75625
10339,11.0,,,,,,,65.0,,,,,,23,note_on,,0.0,65.0,0.0,28355,14.768229166666666
10340,10.0,,,,,,,62.0,,,,,,6,note_on,,0.0,62.0,0.0,16728,8.7125
10341,11.0,,,,,,,62.0,,,,,,13,note_on,,0.0,62.0,0.0,28368,14.775
10342,3.0,,,,,,,15.0,,,,,,53,note_on,,81.0,15.0,81.0,55223,28.761979166666666
10343,3.0,,,,,,,15.0,,,,,,0,note_on,,109.0,15.0,109.0,55223,28.761979166666666
10344,9.0,,,,,,,42.0,,,,,,0,note_on,,85.0,42.0,85.0,131254,68.36145833333333
10345,9.0,,,,,,,70.0,,,,,,0,note_on,,40.0,70.0,40.0,131254,68.36145833333333
10346,9.0,,,,,,,36.0,,,,,,0,note_on,,126.0,36.0,126.0,131254,68.36145833333333
10347,9.0,,,,,,,35.0,,,,,,0,note_on,,60.0,35.0,60.0,131254,68.36145833333333
10348,10.0,,,,,,,62.0,,,,,,0,note_on,,127.0,62.0,127.0,16728,8.7125
10349,10.0,,,,,,,58.0,,,,,,0,note_on,,118.0,58.0,118.0,16728,8.7125
10350,10.0,,,,,,,65.0,,,,,,0,note_on,,127.0,65.0,127.0,16728,8.7125
10351,12.0,,,,,,,62.0,,,,,,0,note_on,,127.0,62.0,127.0,25140,13.09375
10352,12.0,,,,,,,67.0,,,,,,0,note_on,,127.0,67.0,127.0,25140,13.09375
10353,12.0,,,,,,,58.0,,,,,,0,note_on,,127.0,58.0,127.0,25140,13.09375
10354,,,,,,,,,,,,,RAP TALK ,0,lyrics,,,,,0,0.0
10355,3.0,,,,,,,15.0,,,,,,133,note_on,,0.0,15.0,0.0,55356,28.83125
10356,9.0,,,,,,,36.0,,,,,,39,note_on,,0.0,36.0,0.0,131293,68.38177083333333
10357,9.0,,,,,,,35.0,,,,,,0,note_on,,0.0,35.0,0.0,131293,68.38177083333333
10358,3.0,,,,,,,15.0,,,,,,12,note_on,,0.0,15.0,0.0,55368,28.8375
10359,9.0,,,,,,,70.0,,,,,,40,note_on,,0.0,70.0,0.0,131333,68.40260416666666
10360,9.0,,,,,,,42.0,,,,,,0,note_on,,0.0,42.0,0.0,131333,68.40260416666666
10361,12.0,,,,,,,67.0,,,,,,143,note_on,,0.0,67.0,0.0,25283,13.168229166666666
10362,12.0,,,,,,,58.0,,,,,,11,note_on,,0.0,58.0,0.0,25294,13.173958333333333
10363,10.0,,,,,,,58.0,,,,,,7,note_on,,0.0,58.0,0.0,16735,8.716145833333334
10364,10.0,,,,,,,65.0,,,,,,23,note_on,,0.0,65.0,0.0,16758,8.728125
10365,12.0,,,,,,,62.0,,,,,,6,note_on,,0.0,62.0,0.0,25300,13.177083333333334
10366,10.0,,,,,,,62.0,,,,,,13,note_on,,0.0,62.0,0.0,16771,8.734895833333333
10367,9.0,,,,,,,70.0,,,,,,53,note_on,,40.0,70.0,40.0,131386,68.43020833333333
10368,12.0,,,,,,,62.0,,,,,,0,note_on,,127.0,62.0,127.0,25300,13.177083333333334
10369,12.0,,,,,,,58.0,,,,,,0,note_on,,118.0,58.0,118.0,25300,13.177083333333334
10370,12.0,,,,,,,65.0,,,,,,0,note_on,,127.0,65.0,127.0,25300,13.177083333333334
10371,9.0,,,,,,,70.0,,,,,,224,note_on,,0.0,70.0,0.0,131610,68.546875
10372,9.0,,,,,,,36.0,,,,,,16,note_on,,126.0,36.0,126.0,131626,68.55520833333333
10373,9.0,,,,,,,35.0,,,,,,0,note_on,,60.0,35.0,60.0,131626,68.55520833333333
10374,12.0,,,,,,,58.0,,,,,,145,note_on,,0.0,58.0,0.0,25445,13.252604166666666
10375,12.0,,,,,,,65.0,,,,,,23,note_on,,0.0,65.0,0.0,25468,13.264583333333333
10376,12.0,,,,,,,62.0,,,,,,19,note_on,,0.0,62.0,0.0,25487,13.274479166666666
10377,9.0,,,,,,,36.0,,,,,,37,note_on,,0.0,36.0,0.0,131663,68.57447916666666
10378,9.0,,,,,,,35.0,,,,,,0,note_on,,0.0,35.0,0.0,131663,68.57447916666666
10379,9.0,,,,,,,42.0,,,,,,16,note_on,,85.0,42.0,85.0,131679,68.5828125
10380,9.0,,,,,,,70.0,,,,,,0,note_on,,40.0,70.0,40.0,131679,68.5828125
10381,9.0,,,,,,,39.0,,,,,,0,note_on,,125.0,39.0,125.0,131679,68.5828125
10382,9.0,,,,,,,28.0,,,,,,0,note_on,,127.0,28.0,127.0,131679,68.5828125
10383,11.0,,,,,,,63.0,,,,,,0,note_on,,100.0,63.0,100.0,28368,14.775
10384,11.0,,,,,,,56.0,,,,,,0,note_on,,127.0,56.0,127.0,28368,14.775
10385,11.0,,,,,,,62.0,,,,,,0,note_on,,126.0,62.0,126.0,28368,14.775
10386,11.0,,,,,,,53.0,,,,,,0,note_on,,127.0,53.0,127.0,28368,14.775
10387,11.0,,,,,,,58.0,,,,,,0,note_on,,127.0,58.0,127.0,28368,14.775
10388,9.0,,,,,,,28.0,,,,,,117,note_on,,0.0,28.0,0.0,131796,68.64375
10389,9.0,,,,,,,39.0,,,,,,34,note_on,,0.0,39.0,0.0,131830,68.66145833333333
10390,9.0,,,,,,,42.0,,,,,,73,note_on,,0.0,42.0,0.0,131903,68.69947916666666
10391,9.0,,,,,,,70.0,,,,,,0,note_on,,0.0,70.0,0.0,131903,68.69947916666666
10392,9.0,,,,,,,70.0,,,,,,256,note_on,,40.0,70.0,40.0,132159,68.8328125
10393,9.0,,,,,,,36.0,,,,,,0,note_on,,126.0,36.0,126.0,132159,68.8328125
10394,9.0,,,,,,,35.0,,,,,,0,note_on,,60.0,35.0,60.0,132159,68.8328125
10395,10.0,,,,,,,63.0,,,,,,0,note_on,,100.0,63.0,100.0,16771,8.734895833333333
10396,10.0,,,,,,,56.0,,,,,,0,note_on,,127.0,56.0,127.0,16771,8.734895833333333
10397,10.0,,,,,,,62.0,,,,,,0,note_on,,126.0,62.0,126.0,16771,8.734895833333333
10398,10.0,,,,,,,53.0,,,,,,0,note_on,,127.0,53.0,127.0,16771,8.734895833333333
10399,10.0,,,,,,,58.0,,,,,,0,note_on,,127.0,58.0,127.0,16771,8.734895833333333
10400,9.0,,,,,,,35.0,,,,,,166,note_on,,0.0,35.0,0.0,132325,68.91927083333333
10401,9.0,,,,,,,36.0,,,,,,0,note_on,,0.0,36.0,0.0,132325,68.91927083333333
10402,9.0,,,,,,,70.0,,,,,,58,note_on,,0.0,70.0,0.0,132383,68.94947916666666
10403,9.0,,,,,,,70.0,,,,,,256,note_on,,40.0,70.0,40.0,132639,69.0828125
10404,12.0,,,,,,,63.0,,,,,,0,note_on,,100.0,63.0,100.0,25487,13.274479166666666
10405,12.0,,,,,,,56.0,,,,,,0,note_on,,127.0,56.0,127.0,25487,13.274479166666666
10406,12.0,,,,,,,62.0,,,,,,0,note_on,,126.0,62.0,126.0,25487,13.274479166666666
10407,12.0,,,,,,,53.0,,,,,,0,note_on,,127.0,53.0,127.0,25487,13.274479166666666
10408,12.0,,,,,,,58.0,,,,,,0,note_on,,127.0,58.0,127.0,25487,13.274479166666666
10409,9.0,,,,,,,70.0,,,,,,224,note_on,,0.0,70.0,0.0,132863,69.19947916666666
10410,11.0,,,,,,,63.0,,,,,,256,note_on,,0.0,63.0,0.0,28624,14.908333333333333
10411,9.0,,,,,,,70.0,,,,,,0,note_on,,40.0,70.0,40.0,132863,69.19947916666666
10412,11.0,,,,,,,63.0,,,,,,0,note_on,,127.0,63.0,127.0,28624,14.908333333333333
10413,9.0,,,,,,,70.0,,,,,,224,note_on,,0.0,70.0,0.0,133087,69.31614583333334
10414,10.0,,,,,,,63.0,,,,,,256,note_on,,0.0,63.0,0.0,17027,8.868229166666666
10415,9.0,,,,,,,42.0,,,,,,0,note_on,,85.0,42.0,85.0,133087,69.31614583333334
10416,9.0,,,,,,,70.0,,,,,,0,note_on,,40.0,70.0,40.0,133087,69.31614583333334
10417,9.0,,,,,,,39.0,,,,,,0,note_on,,127.0,39.0,127.0,133087,69.31614583333334
10418,9.0,,,,,,,28.0,,,,,,0,note_on,,127.0,28.0,127.0,133087,69.31614583333334
10419,10.0,,,,,,,63.0,,,,,,0,note_on,,127.0,63.0,127.0,17027,8.868229166666666
10420,9.0,,,,,,,39.0,,,,,,123,note_on,,0.0,39.0,0.0,133210,69.38020833333333
10421,9.0,,,,,,,28.0,,,,,,2,note_on,,0.0,28.0,0.0,133212,69.38125
10422,9.0,,,,,,,70.0,,,,,,99,note_on,,0.0,70.0,0.0,133311,69.4328125
10423,9.0,,,,,,,42.0,,,,,,0,note_on,,0.0,42.0,0.0,133311,69.4328125
10424,12.0,,,,,,,63.0,,,,,,256,note_on,,0.0,63.0,0.0,25743,13.4078125
10425,9.0,,,,,,,70.0,,,,,,0,note_on,,40.0,70.0,40.0,133311,69.4328125
10426,12.0,,,,,,,63.0,,,,,,0,note_on,,127.0,63.0,127.0,25743,13.4078125
10427,9.0,,,,,,,70.0,,,,,,224,note_on,,0.0,70.0,0.0,133535,69.54947916666667
10428,11.0,,,,,,,56.0,,,,,,9,note_on,,0.0,56.0,0.0,28633,14.913020833333333
10429,11.0,,,,,,,62.0,,,,,,4,note_on,,0.0,62.0,0.0,28637,14.915104166666666
10430,11.0,,,,,,,53.0,,,,,,201,note_on,,0.0,53.0,0.0,28838,15.019791666666666
10431,11.0,,,,,,,58.0,,,,,,31,note_on,,0.0,58.0,0.0,28869,15.0359375
10432,11.0,,0.0,,,,,,,,,,,9,control_change,121.0,,,,28878,15.040625
10433,11.0,,0.0,,,,,,,,,,,0,control_change,121.0,,,,28878,15.040625
10434,11.0,,32.0,,,,,,,,,,,1,control_change,0.0,,,,28879,15.041145833333333
10435,11.0,,32.0,,,,,,,,,,,0,control_change,0.0,,,,28879,15.041145833333333
10436,9.0,,,,,,,57.0,,,,,,1,note_on,,100.0,57.0,100.0,133536,69.55
10437,3.0,,,,,,,15.0,,,,,,0,note_on,,80.0,15.0,80.0,55368,28.8375
10438,9.0,,,,,,,70.0,,,,,,0,note_on,,40.0,70.0,40.0,133536,69.55
10439,9.0,,,,,,,35.0,,,,,,0,note_on,,60.0,35.0,60.0,133536,69.55
10440,11.0,,,,,,,67.0,,,,,,0,note_on,,127.0,67.0,127.0,28879,15.041145833333333
10441,11.0,,,,,,,63.0,,,,,,0,note_on,,127.0,63.0,127.0,28879,15.041145833333333
10442,11.0,,,,,,,70.0,,,,,,0,note_on,,126.0,70.0,126.0,28879,15.041145833333333
10443,9.0,,,,,,,36.0,,,,,,0,note_on,,126.0,36.0,126.0,133536,69.55
10444,9.0,,,,,,,42.0,,,,,,0,note_on,,85.0,42.0,85.0,133536,69.55
10445,11.0,,,,,,,,,,24.0,,,0,program_change,,,,,28879,15.041145833333333
10446,11.0,,,,,,,63.0,,,,,,15,note_on,,0.0,63.0,0.0,28894,15.048958333333333
10447,9.0,,,,,,,57.0,,,,,,99,note_on,,0.0,57.0,0.0,133635,69.6015625
10448,3.0,,,,,,,15.0,,,,,,19,note_on,,0.0,15.0,0.0,55387,28.847395833333334
10449,9.0,,,,,,,36.0,,,,,,39,note_on,,0.0,36.0,0.0,133674,69.621875
10450,9.0,,,,,,,35.0,,,,,,0,note_on,,0.0,35.0,0.0,133674,69.621875
10451,9.0,,,,,,,42.0,,,,,,52,note_on,,0.0,42.0,0.0,133726,69.64895833333333
10452,9.0,,,,,,,70.0,,,,,,0,note_on,,0.0,70.0,0.0,133726,69.64895833333333
10453,10.0,,,,,,,56.0,,,,,,9,note_on,,0.0,56.0,0.0,17036,8.872916666666667
10454,10.0,,,,,,,62.0,,,,,,4,note_on,,0.0,62.0,0.0,17040,8.875
10455,11.0,,,,,,,63.0,,,,,,160,note_on,,0.0,63.0,0.0,29054,15.132291666666667
10456,11.0,,,,,,,67.0,,,,,,10,note_on,,0.0,67.0,0.0,29064,15.1375
10457,10.0,,,,,,,53.0,,,,,,31,note_on,,0.0,53.0,0.0,17071,8.891145833333333
10458,11.0,,,,,,,70.0,,,,,,21,note_on,,0.0,70.0,0.0,29085,15.1484375
10459,10.0,,,,,,,58.0,,,,,,10,note_on,,0.0,58.0,0.0,17081,8.896354166666667
10460,10.0,,0.0,,,,,,,,,,,9,control_change,121.0,,,,17090,8.901041666666666
10461,10.0,,0.0,,,,,,,,,,,0,control_change,121.0,,,,17090,8.901041666666666
10462,10.0,,32.0,,,,,,,,,,,1,control_change,0.0,,,,17091,8.9015625
10463,10.0,,32.0,,,,,,,,,,,0,control_change,0.0,,,,17091,8.9015625
10464,9.0,,,,,,,70.0,,,,,,1,note_on,,40.0,70.0,40.0,133727,69.64947916666667
10465,10.0,,,,,,,63.0,,,,,,0,note_on,,127.0,63.0,127.0,17091,8.9015625
10466,10.0,,,,,,,70.0,,,,,,0,note_on,,126.0,70.0,126.0,17091,8.9015625
10467,10.0,,,,,,,67.0,,,,,,0,note_on,,127.0,67.0,127.0,17091,8.9015625
10468,10.0,,,,,,,,,,24.0,,,0,program_change,,,,,17091,8.9015625
10469,10.0,,,,,,,63.0,,,,,,15,note_on,,0.0,63.0,0.0,17106,8.909375
10470,9.0,,,,,,,70.0,,,,,,209,note_on,,0.0,70.0,0.0,133936,69.75833333333333
10471,12.0,,,,,,,56.0,,,,,,9,note_on,,0.0,56.0,0.0,25752,13.4125
10472,12.0,,,,,,,62.0,,,,,,4,note_on,,0.0,62.0,0.0,25756,13.414583333333333
10473,9.0,,,,,,,36.0,,,,,,3,note_on,,126.0,36.0,126.0,133939,69.75989583333333
10474,9.0,,,,,,,35.0,,,,,,0,note_on,,60.0,35.0,60.0,133939,69.75989583333333
10475,10.0,,,,,,,63.0,,,,,,157,note_on,,0.0,63.0,0.0,17263,8.991145833333333
10476,10.0,,,,,,,67.0,,,,,,10,note_on,,0.0,67.0,0.0,17273,8.996354166666666
10477,12.0,,,,,,,53.0,,,,,,31,note_on,,0.0,53.0,0.0,25787,13.430729166666666
10478,10.0,,,,,,,70.0,,,,,,21,note_on,,0.0,70.0,0.0,17294,9.007291666666667
10479,9.0,,,,,,,35.0,,,,,,5,note_on,,0.0,35.0,0.0,133944,69.7625
10480,9.0,,,,,,,36.0,,,,,,0,note_on,,0.0,36.0,0.0,133944,69.7625
10481,12.0,,,,,,,58.0,,,,,,5,note_on,,0.0,58.0,0.0,25792,13.433333333333334
10482,12.0,,0.0,,,,,,,,,,,9,control_change,121.0,,,,25801,13.438020833333333
10483,12.0,,32.0,,,,,,,,,,,1,control_change,0.0,,,,25802,13.438541666666666
10484,9.0,,,,,,,39.0,,,,,,1,note_on,,125.0,39.0,125.0,133945,69.76302083333333
10485,9.0,,,,,,,28.0,,,,,,0,note_on,,127.0,28.0,127.0,133945,69.76302083333333
10486,9.0,,,,,,,42.0,,,,,,0,note_on,,85.0,42.0,85.0,133945,69.76302083333333
10487,9.0,,,,,,,70.0,,,,,,0,note_on,,40.0,70.0,40.0,133945,69.76302083333333
10488,12.0,,,,,,,67.0,,,,,,0,note_on,,127.0,67.0,127.0,25802,13.438541666666666
10489,12.0,,,,,,,63.0,,,,,,0,note_on,,127.0,63.0,127.0,25802,13.438541666666666
10490,12.0,,,,,,,70.0,,,,,,0,note_on,,126.0,70.0,126.0,25802,13.438541666666666
10491,12.0,,0.0,,,,,,,,,,,0,control_change,121.0,,,,25802,13.438541666666666
10492,12.0,,32.0,,,,,,,,,,,0,control_change,0.0,,,,25802,13.438541666666666
10493,12.0,,,,,,,,,,24.0,,,0,program_change,,,,,25802,13.438541666666666
10494,12.0,,,,,,,63.0,,,,,,15,note_on,,0.0,63.0,0.0,25817,13.446354166666666
10495,9.0,,,,,,,28.0,,,,,,102,note_on,,0.0,28.0,0.0,134047,69.81614583333334
10496,9.0,,,,,,,39.0,,,,,,34,note_on,,0.0,39.0,0.0,134081,69.83385416666667
10497,9.0,,,,,,,42.0,,,,,,73,note_on,,0.0,42.0,0.0,134154,69.871875
10498,9.0,,,,,,,70.0,,,,,,0,note_on,,0.0,70.0,0.0,134154,69.871875
10499,12.0,,,,,,,63.0,,,,,,173,note_on,,0.0,63.0,0.0,25990,13.536458333333334
10500,12.0,,,,,,,67.0,,,,,,10,note_on,,0.0,67.0,0.0,26000,13.541666666666666
10501,12.0,,,,,,,70.0,,,,,,52,note_on,,0.0,70.0,0.0,26052,13.56875
10502,9.0,,,,,,,70.0,,,,,,21,note_on,,40.0,70.0,40.0,134175,69.8828125
10503,9.0,,,,,,,36.0,,,,,,0,note_on,,126.0,36.0,126.0,134175,69.8828125
10504,9.0,,,,,,,35.0,,,,,,0,note_on,,60.0,35.0,60.0,134175,69.8828125
10505,9.0,,,,,,,35.0,,,,,,166,note_on,,0.0,35.0,0.0,134341,69.96927083333333
10506,9.0,,,,,,,36.0,,,,,,0,note_on,,0.0,36.0,0.0,134341,69.96927083333333
10507,9.0,,,,,,,70.0,,,,,,58,note_on,,0.0,70.0,0.0,134399,69.99947916666666
10508,9.0,,,,,,,42.0,,,,,,256,note_on,,85.0,42.0,85.0,134655,70.1328125
10509,9.0,,,,,,,70.0,,,,,,0,note_on,,40.0,70.0,40.0,134655,70.1328125
10510,9.0,,,,,,,70.0,,,,,,224,note_on,,0.0,70.0,0.0,134879,70.24947916666666
10511,9.0,,,,,,,42.0,,,,,,0,note_on,,0.0,42.0,0.0,134879,70.24947916666666
10512,9.0,,,,,,,70.0,,,,,,256,note_on,,40.0,70.0,40.0,135135,70.3828125
10513,9.0,,,,,,,36.0,,,,,,0,note_on,,126.0,36.0,126.0,135135,70.3828125
10514,9.0,,,,,,,35.0,,,,,,0,note_on,,60.0,35.0,60.0,135135,70.3828125
10515,9.0,,,,,,,35.0,,,,,,154,note_on,,0.0,35.0,0.0,135289,70.46302083333333
10516,9.0,,,,,,,36.0,,,,,,0,note_on,,0.0,36.0,0.0,135289,70.46302083333333
10517,9.0,,,,,,,70.0,,,,,,70,note_on,,0.0,70.0,0.0,135359,70.49947916666666
10518,9.0,,,,,,,42.0,,,,,,256,note_on,,85.0,42.0,85.0,135615,70.6328125
10519,9.0,,,,,,,70.0,,,,,,0,note_on,,40.0,70.0,40.0,135615,70.6328125
10520,9.0,,,,,,,39.0,,,,,,0,note_on,,127.0,39.0,127.0,135615,70.6328125
10521,9.0,,,,,,,28.0,,,,,,0,note_on,,127.0,28.0,127.0,135615,70.6328125
10522,11.0,,,,,,,67.0,,,,,,0,note_on,,127.0,67.0,127.0,29085,15.1484375
10523,11.0,,,,,,,72.0,,,,,,0,note_on,,127.0,72.0,127.0,29085,15.1484375
10524,11.0,,,,,,,63.0,,,,,,0,note_on,,127.0,63.0,127.0,29085,15.1484375
10525,9.0,,,,,,,39.0,,,,,,123,note_on,,0.0,39.0,0.0,135738,70.696875
10526,9.0,,,,,,,28.0,,,,,,2,note_on,,0.0,28.0,0.0,135740,70.69791666666667
10527,9.0,,,,,,,42.0,,,,,,99,note_on,,0.0,42.0,0.0,135839,70.74947916666666
10528,9.0,,,,,,,70.0,,,,,,0,note_on,,0.0,70.0,0.0,135839,70.74947916666666
10529,11.0,,,,,,,63.0,,,,,,141,note_on,,0.0,63.0,0.0,29226,15.221874999999999
10530,11.0,,,,,,,72.0,,,,,,15,note_on,,0.0,72.0,0.0,29241,15.229687499999999
10531,11.0,,,,,,,67.0,,,,,,8,note_on,,0.0,67.0,0.0,29249,15.233854166666667
10532,9.0,,,,,,,70.0,,,,,,92,note_on,,40.0,70.0,40.0,135931,70.79739583333333
10533,10.0,,,,,,,67.0,,,,,,0,note_on,,127.0,67.0,127.0,17294,9.007291666666667
10534,10.0,,,,,,,72.0,,,,,,0,note_on,,127.0,72.0,127.0,17294,9.007291666666667
10535,10.0,,,,,,,63.0,,,,,,0,note_on,,127.0,63.0,127.0,17294,9.007291666666667
10536,11.0,,,,,,,67.0,,,,,,0,note_on,,127.0,67.0,127.0,29249,15.233854166666667
10537,11.0,,,,,,,70.0,,,,,,0,note_on,,118.0,70.0,118.0,29249,15.233854166666667
10538,11.0,,,,,,,63.0,,,,,,0,note_on,,127.0,63.0,127.0,29249,15.233854166666667
10539,9.0,,,,,,,70.0,,,,,,224,note_on,,0.0,70.0,0.0,136155,70.9140625
10540,10.0,,,,,,,63.0,,,,,,141,note_on,,0.0,63.0,0.0,17435,9.080729166666666
10541,10.0,,,,,,,72.0,,,,,,15,note_on,,0.0,72.0,0.0,17450,9.088541666666666
10542,10.0,,,,,,,67.0,,,,,,8,note_on,,0.0,67.0,0.0,17458,9.092708333333333
10543,11.0,,,,,,,63.0,,,,,,38,note_on,,0.0,63.0,0.0,29287,15.253645833333334
10544,11.0,,,,,,,70.0,,,,,,0,note_on,,0.0,70.0,0.0,29287,15.253645833333334
10545,11.0,,,,,,,67.0,,,,,,3,note_on,,0.0,67.0,0.0,29290,15.255208333333334
10546,3.0,,,,,,,15.0,,,,,,51,note_on,,98.0,15.0,98.0,55438,28.873958333333334
10547,9.0,,,,,,,42.0,,,,,,0,note_on,,85.0,42.0,85.0,136155,70.9140625
10548,9.0,,,,,,,70.0,,,,,,0,note_on,,40.0,70.0,40.0,136155,70.9140625
10549,9.0,,,,,,,36.0,,,,,,0,note_on,,126.0,36.0,126.0,136155,70.9140625
10550,9.0,,,,,,,35.0,,,,,,0,note_on,,60.0,35.0,60.0,136155,70.9140625
10551,10.0,,,,,,,67.0,,,,,,0,note_on,,127.0,67.0,127.0,17458,9.092708333333333
10552,10.0,,,,,,,70.0,,,,,,0,note_on,,118.0,70.0,118.0,17458,9.092708333333333
10553,10.0,,,,,,,63.0,,,,,,0,note_on,,127.0,63.0,127.0,17458,9.092708333333333
10554,12.0,,,,,,,67.0,,,,,,0,note_on,,127.0,67.0,127.0,26052,13.56875
10555,12.0,,,,,,,72.0,,,,,,0,note_on,,127.0,72.0,127.0,26052,13.56875
10556,12.0,,,,,,,63.0,,,,,,0,note_on,,127.0,63.0,127.0,26052,13.56875
10557,9.0,,,,,,,35.0,,,,,,172,note_on,,0.0,35.0,0.0,136327,71.00364583333334
10558,9.0,,,,,,,36.0,,,,,,0,note_on,,0.0,36.0,0.0,136327,71.00364583333334
10559,3.0,,,,,,,15.0,,,,,,0,note_on,,0.0,15.0,0.0,55438,28.873958333333334
10560,9.0,,,,,,,42.0,,,,,,52,note_on,,0.0,42.0,0.0,136379,71.03072916666666
10561,9.0,,,,,,,70.0,,,,,,0,note_on,,0.0,70.0,0.0,136379,71.03072916666666
10562,12.0,,,,,,,63.0,,,,,,141,note_on,,0.0,63.0,0.0,26193,13.6421875
10563,12.0,,,,,,,72.0,,,,,,15,note_on,,0.0,72.0,0.0,26208,13.65
10564,12.0,,,,,,,67.0,,,,,,8,note_on,,0.0,67.0,0.0,26216,13.654166666666667
10565,10.0,,,,,,,70.0,,,,,,38,note_on,,0.0,70.0,0.0,17496,9.1125
10566,10.0,,,,,,,63.0,,,,,,0,note_on,,0.0,63.0,0.0,17496,9.1125
10567,10.0,,,,,,,67.0,,,,,,3,note_on,,0.0,67.0,0.0,17499,9.1140625
10568,9.0,,,,,,,70.0,,,,,,51,note_on,,40.0,70.0,40.0,136430,71.05729166666667
10569,12.0,,,,,,,67.0,,,,,,0,note_on,,127.0,67.0,127.0,26216,13.654166666666667
10570,12.0,,,,,,,70.0,,,,,,0,note_on,,118.0,70.0,118.0,26216,13.654166666666667
10571,12.0,,,,,,,63.0,,,,,,0,note_on,,127.0,63.0,127.0,26216,13.654166666666667
10572,9.0,,,,,,,70.0,,,,,,224,note_on,,0.0,70.0,0.0,136654,71.17395833333333
10573,9.0,,,,,,,36.0,,,,,,16,note_on,,126.0,36.0,126.0,136670,71.18229166666667
10574,9.0,,,,,,,35.0,,,,,,0,note_on,,60.0,35.0,60.0,136670,71.18229166666667
10575,12.0,,,,,,,63.0,,,,,,186,note_on,,0.0,63.0,0.0,26402,13.751041666666666
10576,12.0,,,,,,,70.0,,,,,,0,note_on,,0.0,70.0,0.0,26402,13.751041666666666
10577,12.0,,,,,,,67.0,,,,,,3,note_on,,0.0,67.0,0.0,26405,13.752604166666666
10578,9.0,,,,,,,35.0,,,,,,35,note_on,,0.0,35.0,0.0,136705,71.20052083333333
10579,9.0,,,,,,,36.0,,,,,,0,note_on,,0.0,36.0,0.0,136705,71.20052083333333
10580,9.0,,,,,,,42.0,,,,,,16,note_on,,85.0,42.0,85.0,136721,71.20885416666667
10581,9.0,,,,,,,70.0,,,,,,0,note_on,,40.0,70.0,40.0,136721,71.20885416666667
10582,9.0,,,,,,,39.0,,,,,,0,note_on,,125.0,39.0,125.0,136721,71.20885416666667
10583,9.0,,,,,,,28.0,,,,,,0,note_on,,127.0,28.0,127.0,136721,71.20885416666667
10584,9.0,,,,,,,28.0,,,,,,117,note_on,,0.0,28.0,0.0,136838,71.26979166666666
10585,9.0,,,,,,,39.0,,,,,,34,note_on,,0.0,39.0,0.0,136872,71.2875
10586,9.0,,,,,,,70.0,,,,,,73,note_on,,0.0,70.0,0.0,136945,71.32552083333333
10587,9.0,,,,,,,42.0,,,,,,0,note_on,,0.0,42.0,0.0,136945,71.32552083333333
10588,9.0,,,,,,,46.0,,,,,,256,note_on,,100.0,46.0,100.0,137201,71.45885416666667
10589,9.0,,,,,,,70.0,,,,,,0,note_on,,40.0,70.0,40.0,137201,71.45885416666667
10590,9.0,,,,,,,36.0,,,,,,0,note_on,,126.0,36.0,126.0,137201,71.45885416666667
10591,9.0,,,,,,,35.0,,,,,,0,note_on,,60.0,35.0,60.0,137201,71.45885416666667
10592,9.0,,,,,,,35.0,,,,,,166,note_on,,0.0,35.0,0.0,137367,71.5453125
10593,9.0,,,,,,,36.0,,,,,,0,note_on,,0.0,36.0,0.0,137367,71.5453125
10594,9.0,,,,,,,70.0,,,,,,58,note_on,,0.0,70.0,0.0,137425,71.57552083333333
10595,9.0,,,,,,,46.0,,,,,,0,note_on,,0.0,46.0,0.0,137425,71.57552083333333
10596,9.0,,,,,,,46.0,,,,,,256,note_on,,100.0,46.0,100.0,137681,71.70885416666667
10597,9.0,,,,,,,70.0,,,,,,0,note_on,,40.0,70.0,40.0,137681,71.70885416666667
10598,9.0,,,,,,,70.0,,,,,,224,note_on,,0.0,70.0,0.0,137905,71.82552083333333
10599,9.0,,,,,,,46.0,,,,,,0,note_on,,0.0,46.0,0.0,137905,71.82552083333333
10600,9.0,,,,,,,70.0,,,,,,256,note_on,,40.0,70.0,40.0,138161,71.95885416666667
10601,9.0,,,,,,,36.0,,,,,,0,note_on,,126.0,36.0,126.0,138161,71.95885416666667
10602,9.0,,,,,,,35.0,,,,,,0,note_on,,60.0,35.0,60.0,138161,71.95885416666667
10603,9.0,,,,,,,35.0,,,,,,154,note_on,,0.0,35.0,0.0,138315,72.0390625
10604,9.0,,,,,,,36.0,,,,,,0,note_on,,0.0,36.0,0.0,138315,72.0390625
10605,9.0,,,,,,,70.0,,,,,,70,note_on,,0.0,70.0,0.0,138385,72.07552083333333
10606,9.0,,,,,,,42.0,,,,,,256,note_on,,85.0,42.0,85.0,138641,72.20885416666667
10607,9.0,,,,,,,70.0,,,,,,0,note_on,,40.0,70.0,40.0,138641,72.20885416666667
10608,9.0,,,,,,,39.0,,,,,,0,note_on,,127.0,39.0,127.0,138641,72.20885416666667
10609,9.0,,,,,,,28.0,,,,,,0,note_on,,127.0,28.0,127.0,138641,72.20885416666667
10610,9.0,,,,,,,39.0,,,,,,123,note_on,,0.0,39.0,0.0,138764,72.27291666666666
10611,9.0,,,,,,,28.0,,,,,,2,note_on,,0.0,28.0,0.0,138766,72.27395833333333
10612,9.0,,,,,,,70.0,,,,,,99,note_on,,0.0,70.0,0.0,138865,72.32552083333333
10613,9.0,,,,,,,42.0,,,,,,0,note_on,,0.0,42.0,0.0,138865,72.32552083333333
10614,9.0,,,,,,,61.0,,,,,,256,note_on,,100.0,61.0,100.0,139121,72.45885416666667
10615,9.0,,,,,,,70.0,,,,,,0,note_on,,40.0,70.0,40.0,139121,72.45885416666667
10616,9.0,,,,,,,61.0,,,,,,114,note_on,,0.0,61.0,0.0,139235,72.51822916666667
10617,9.0,,,,,,,61.0,,,,,,6,note_on,,100.0,61.0,100.0,139241,72.52135416666667
10618,9.0,,,,,,,70.0,,,,,,104,note_on,,0.0,70.0,0.0,139345,72.57552083333333
10619,9.0,,,,,,,61.0,,,,,,10,note_on,,0.0,61.0,0.0,139355,72.58072916666667
10620,9.0,,,,,,,61.0,,,,,,6,note_on,,100.0,61.0,100.0,139361,72.58385416666667
10621,9.0,,,,,,,61.0,,,,,,114,note_on,,0.0,61.0,0.0,139475,72.64322916666667
10622,9.0,,,,,,,61.0,,,,,,6,note_on,,100.0,61.0,100.0,139481,72.64635416666667
10623,9.0,,,,,,,61.0,,,,,,114,note_on,,0.0,61.0,0.0,139595,72.70572916666667
10624,3.0,,,,,,,15.0,,,,,,6,note_on,,79.0,15.0,79.0,55444,28.87708333333333
10625,9.0,,,,,,,61.0,,,,,,0,note_on,,100.0,61.0,100.0,139595,72.70572916666667
10626,9.0,,,,,,,42.0,,,,,,0,note_on,,85.0,42.0,85.0,139595,72.70572916666667
10627,9.0,,,,,,,70.0,,,,,,0,note_on,,40.0,70.0,40.0,139595,72.70572916666667
10628,9.0,,,,,,,36.0,,,,,,0,note_on,,126.0,36.0,126.0,139595,72.70572916666667
10629,9.0,,,,,,,35.0,,,,,,0,note_on,,60.0,35.0,60.0,139595,72.70572916666667
10630,11.0,,,,,,,63.0,,,,,,0,note_on,,127.0,63.0,127.0,29290,15.255208333333334
10631,11.0,,,,,,,60.0,,,,,,0,note_on,,127.0,60.0,127.0,29290,15.255208333333334
10632,11.0,,,,,,,67.0,,,,,,0,note_on,,127.0,67.0,127.0,29290,15.255208333333334
10633,9.0,,,,,,,61.0,,,,,,114,note_on,,0.0,61.0,0.0,139709,72.76510416666666
10634,9.0,,,,,,,36.0,,,,,,58,note_on,,0.0,36.0,0.0,139767,72.7953125
10635,9.0,,,,,,,35.0,,,,,,0,note_on,,0.0,35.0,0.0,139767,72.7953125
10636,3.0,,,,,,,15.0,,,,,,1,note_on,,0.0,15.0,0.0,55445,28.877604166666668
10637,9.0,,,,,,,70.0,,,,,,51,note_on,,0.0,70.0,0.0,139818,72.821875
10638,9.0,,,,,,,42.0,,,,,,0,note_on,,0.0,42.0,0.0,139818,72.821875
10639,11.0,,,,,,,60.0,,,,,,180,note_on,,0.0,60.0,0.0,29470,15.348958333333334
10640,11.0,,,,,,,63.0,,,,,,32,note_on,,0.0,63.0,0.0,29502,15.365625
10641,11.0,,,,,,,67.0,,,,,,6,note_on,,0.0,67.0,0.0,29508,15.36875
10642,9.0,,,,,,,70.0,,,,,,38,note_on,,40.0,70.0,40.0,139856,72.84166666666667
10643,10.0,,,,,,,63.0,,,,,,0,note_on,,127.0,63.0,127.0,17499,9.1140625
10644,10.0,,,,,,,60.0,,,,,,0,note_on,,127.0,60.0,127.0,17499,9.1140625
10645,10.0,,,,,,,67.0,,,,,,0,note_on,,127.0,67.0,127.0,17499,9.1140625
10646,9.0,,,,,,,70.0,,,,,,224,note_on,,0.0,70.0,0.0,140080,72.95833333333333
10647,9.0,,,,,,,36.0,,,,,,16,note_on,,126.0,36.0,126.0,140096,72.96666666666667
10648,9.0,,,,,,,35.0,,,,,,0,note_on,,60.0,35.0,60.0,140096,72.96666666666667
10649,10.0,,,,,,,60.0,,,,,,164,note_on,,0.0,60.0,0.0,17663,9.199479166666666
10650,10.0,,,,,,,63.0,,,,,,32,note_on,,0.0,63.0,0.0,17695,9.216145833333334
10651,10.0,,,,,,,67.0,,,,,,6,note_on,,0.0,67.0,0.0,17701,9.219270833333333
10652,9.0,,,,,,,36.0,,,,,,22,note_on,,0.0,36.0,0.0,140118,72.978125
10653,9.0,,,,,,,35.0,,,,,,0,note_on,,0.0,35.0,0.0,140118,72.978125
10654,9.0,,,,,,,42.0,,,,,,16,note_on,,85.0,42.0,85.0,140134,72.98645833333333
10655,9.0,,,,,,,70.0,,,,,,0,note_on,,40.0,70.0,40.0,140134,72.98645833333333
10656,9.0,,,,,,,39.0,,,,,,0,note_on,,125.0,39.0,125.0,140134,72.98645833333333
10657,9.0,,,,,,,28.0,,,,,,0,note_on,,127.0,28.0,127.0,140134,72.98645833333333
10658,12.0,,,,,,,63.0,,,,,,0,note_on,,127.0,63.0,127.0,26405,13.752604166666666
10659,12.0,,,,,,,60.0,,,,,,0,note_on,,127.0,60.0,127.0,26405,13.752604166666666
10660,12.0,,,,,,,67.0,,,,,,0,note_on,,127.0,67.0,127.0,26405,13.752604166666666
10661,9.0,,,,,,,28.0,,,,,,117,note_on,,0.0,28.0,0.0,140251,73.04739583333333
10662,9.0,,,,,,,39.0,,,,,,34,note_on,,0.0,39.0,0.0,140285,73.06510416666667
10663,9.0,,,,,,,42.0,,,,,,73,note_on,,0.0,42.0,0.0,140358,73.103125
10664,9.0,,,,,,,70.0,,,,,,0,note_on,,0.0,70.0,0.0,140358,73.103125
10665,12.0,,,,,,,60.0,,,,,,180,note_on,,0.0,60.0,0.0,26585,13.846354166666666
10666,12.0,,,,,,,63.0,,,,,,32,note_on,,0.0,63.0,0.0,26617,13.863020833333334
10667,12.0,,,,,,,67.0,,,,,,6,note_on,,0.0,67.0,0.0,26623,13.866145833333333
10668,9.0,,,,,,,70.0,,,,,,38,note_on,,40.0,70.0,40.0,140396,73.12291666666667
10669,9.0,,,,,,,36.0,,,,,,0,note_on,,126.0,36.0,126.0,140396,73.12291666666667
10670,9.0,,,,,,,35.0,,,,,,0,note_on,,60.0,35.0,60.0,140396,73.12291666666667
10671,9.0,,,,,,,35.0,,,,,,166,note_on,,0.0,35.0,0.0,140562,73.209375
10672,9.0,,,,,,,36.0,,,,,,0,note_on,,0.0,36.0,0.0,140562,73.209375
10673,9.0,,,,,,,70.0,,,,,,58,note_on,,0.0,70.0,0.0,140620,73.23958333333333
10674,9.0,,,,,,,42.0,,,,,,256,note_on,,85.0,42.0,85.0,140876,73.37291666666667
10675,9.0,,,,,,,70.0,,,,,,0,note_on,,40.0,70.0,40.0,140876,73.37291666666667
10676,9.0,,,,,,,70.0,,,,,,224,note_on,,0.0,70.0,0.0,141100,73.48958333333333
10677,9.0,,,,,,,42.0,,,,,,0,note_on,,0.0,42.0,0.0,141100,73.48958333333333
10678,9.0,,,,,,,70.0,,,,,,256,note_on,,40.0,70.0,40.0,141356,73.62291666666667
10679,9.0,,,,,,,36.0,,,,,,0,note_on,,126.0,36.0,126.0,141356,73.62291666666667
10680,9.0,,,,,,,35.0,,,,,,0,note_on,,60.0,35.0,60.0,141356,73.62291666666667
10681,9.0,,,,,,,35.0,,,,,,154,note_on,,0.0,35.0,0.0,141510,73.703125
10682,9.0,,,,,,,36.0,,,,,,0,note_on,,0.0,36.0,0.0,141510,73.703125
10683,9.0,,,,,,,70.0,,,,,,70,note_on,,0.0,70.0,0.0,141580,73.73958333333333
10684,9.0,,,,,,,42.0,,,,,,256,note_on,,85.0,42.0,85.0,141836,73.87291666666667
10685,9.0,,,,,,,70.0,,,,,,0,note_on,,40.0,70.0,40.0,141836,73.87291666666667
10686,9.0,,,,,,,39.0,,,,,,0,note_on,,127.0,39.0,127.0,141836,73.87291666666667
10687,9.0,,,,,,,28.0,,,,,,0,note_on,,127.0,28.0,127.0,141836,73.87291666666667
10688,11.0,,,,,,,68.0,,,,,,0,note_on,,127.0,68.0,127.0,29508,15.36875
10689,11.0,,,,,,,60.0,,,,,,0,note_on,,127.0,60.0,127.0,29508,15.36875
10690,11.0,,,,,,,63.0,,,,,,0,note_on,,127.0,63.0,127.0,29508,15.36875
10691,9.0,,,,,,,39.0,,,,,,123,note_on,,0.0,39.0,0.0,141959,73.93697916666666
10692,9.0,,,,,,,28.0,,,,,,2,note_on,,0.0,28.0,0.0,141961,73.93802083333333
10693,9.0,,,,,,,42.0,,,,,,99,note_on,,0.0,42.0,0.0,142060,73.98958333333333
10694,9.0,,,,,,,70.0,,,,,,0,note_on,,0.0,70.0,0.0,142060,73.98958333333333
10695,11.0,,,,,,,68.0,,,,,,161,note_on,,0.0,68.0,0.0,29669,15.452604166666667
10696,11.0,,,,,,,60.0,,,,,,4,note_on,,0.0,60.0,0.0,29673,15.4546875
10697,11.0,,,,,,,63.0,,,,,,19,note_on,,0.0,63.0,0.0,29692,15.464583333333334
10698,9.0,,,,,,,70.0,,,,,,72,note_on,,40.0,70.0,40.0,142132,74.02708333333334
10699,10.0,,,,,,,68.0,,,,,,0,note_on,,127.0,68.0,127.0,17701,9.219270833333333
10700,10.0,,,,,,,60.0,,,,,,0,note_on,,127.0,60.0,127.0,17701,9.219270833333333
10701,10.0,,,,,,,63.0,,,,,,0,note_on,,127.0,63.0,127.0,17701,9.219270833333333
10702,11.0,,,,,,,63.0,,,,,,0,note_on,,127.0,63.0,127.0,29692,15.464583333333334
10703,11.0,,,,,,,60.0,,,,,,0,note_on,,127.0,60.0,127.0,29692,15.464583333333334
10704,11.0,,,,,,,67.0,,,,,,0,note_on,,127.0,67.0,127.0,29692,15.464583333333334
10705,9.0,,,,,,,70.0,,,,,,224,note_on,,0.0,70.0,0.0,142356,74.14375
10706,11.0,,,,,,,60.0,,,,,,147,note_on,,0.0,60.0,0.0,29839,15.541145833333333
10707,11.0,,,,,,,67.0,,,,,,11,note_on,,0.0,67.0,0.0,29850,15.546875
10708,10.0,,,,,,,68.0,,,,,,3,note_on,,0.0,68.0,0.0,17704,9.220833333333333
10709,10.0,,,,,,,60.0,,,,,,4,note_on,,0.0,60.0,0.0,17708,9.222916666666666
10710,10.0,,,,,,,63.0,,,,,,19,note_on,,0.0,63.0,0.0,17727,9.2328125
10711,11.0,,,,,,,63.0,,,,,,18,note_on,,0.0,63.0,0.0,29868,15.55625
10712,3.0,,,,,,,15.0,,,,,,54,note_on,,104.0,15.0,104.0,55499,28.905729166666667
10713,9.0,,,,,,,42.0,,,,,,0,note_on,,85.0,42.0,85.0,142356,74.14375
10714,9.0,,,,,,,70.0,,,,,,0,note_on,,40.0,70.0,40.0,142356,74.14375
10715,9.0,,,,,,,36.0,,,,,,0,note_on,,126.0,36.0,126.0,142356,74.14375
10716,9.0,,,,,,,35.0,,,,,,0,note_on,,60.0,35.0,60.0,142356,74.14375
10717,10.0,,,,,,,63.0,,,,,,0,note_on,,127.0,63.0,127.0,17727,9.2328125
10718,10.0,,,,,,,60.0,,,,,,0,note_on,,127.0,60.0,127.0,17727,9.2328125
10719,10.0,,,,,,,67.0,,,,,,0,note_on,,127.0,67.0,127.0,17727,9.2328125
10720,12.0,,,,,,,68.0,,,,,,0,note_on,,127.0,68.0,127.0,26623,13.866145833333333
10721,12.0,,,,,,,60.0,,,,,,0,note_on,,127.0,60.0,127.0,26623,13.866145833333333
10722,12.0,,,,,,,63.0,,,,,,0,note_on,,127.0,63.0,127.0,26623,13.866145833333333
10723,3.0,,,,,,,15.0,,,,,,158,note_on,,0.0,15.0,0.0,55657,28.988020833333334
10724,9.0,,,,,,,35.0,,,,,,14,note_on,,0.0,35.0,0.0,142370,74.15104166666667
10725,9.0,,,,,,,36.0,,,,,,0,note_on,,0.0,36.0,0.0,142370,74.15104166666667
10726,9.0,,,,,,,42.0,,,,,,52,note_on,,0.0,42.0,0.0,142422,74.178125
10727,9.0,,,,,,,70.0,,,,,,0,note_on,,0.0,70.0,0.0,142422,74.178125
10728,10.0,,,,,,,60.0,,,,,,147,note_on,,0.0,60.0,0.0,17874,9.309375
10729,10.0,,,,,,,67.0,,,,,,11,note_on,,0.0,67.0,0.0,17885,9.315104166666666
10730,12.0,,,,,,,68.0,,,,,,3,note_on,,0.0,68.0,0.0,26626,13.867708333333333
10731,12.0,,,,,,,60.0,,,,,,4,note_on,,0.0,60.0,0.0,26630,13.869791666666666
10732,12.0,,,,,,,63.0,,,,,,19,note_on,,0.0,63.0,0.0,26649,13.8796875
10733,10.0,,,,,,,63.0,,,,,,18,note_on,,0.0,63.0,0.0,17903,9.324479166666666
10734,9.0,,,,,,,70.0,,,,,,54,note_on,,40.0,70.0,40.0,142476,74.20625
10735,12.0,,,,,,,63.0,,,,,,0,note_on,,127.0,63.0,127.0,26649,13.8796875
10736,12.0,,,,,,,60.0,,,,,,0,note_on,,127.0,60.0,127.0,26649,13.8796875
10737,12.0,,,,,,,67.0,,,,,,0,note_on,,127.0,67.0,127.0,26649,13.8796875
10738,9.0,,,,,,,70.0,,,,,,224,note_on,,0.0,70.0,0.0,142700,74.32291666666667
10739,9.0,,,,,,,36.0,,,,,,16,note_on,,126.0,36.0,126.0,142716,74.33125
10740,9.0,,,,,,,35.0,,,,,,0,note_on,,60.0,35.0,60.0,142716,74.33125
10741,12.0,,,,,,,60.0,,,,,,131,note_on,,0.0,60.0,0.0,26780,13.947916666666666
10742,12.0,,,,,,,67.0,,,,,,11,note_on,,0.0,67.0,0.0,26791,13.953645833333333
10743,12.0,,,,,,,63.0,,,,,,44,note_on,,0.0,63.0,0.0,26835,13.9765625
10744,9.0,,,,,,,36.0,,,,,,38,note_on,,0.0,36.0,0.0,142754,74.35104166666666
10745,9.0,,,,,,,35.0,,,,,,0,note_on,,0.0,35.0,0.0,142754,74.35104166666666
10746,9.0,,,,,,,42.0,,,,,,16,note_on,,85.0,42.0,85.0,142770,74.359375
10747,9.0,,,,,,,70.0,,,,,,0,note_on,,40.0,70.0,40.0,142770,74.359375
10748,9.0,,,,,,,39.0,,,,,,0,note_on,,125.0,39.0,125.0,142770,74.359375
10749,9.0,,,,,,,28.0,,,,,,0,note_on,,127.0,28.0,127.0,142770,74.359375
10750,9.0,,,,,,,28.0,,,,,,117,note_on,,0.0,28.0,0.0,142887,74.4203125
10751,9.0,,,,,,,39.0,,,,,,34,note_on,,0.0,39.0,0.0,142921,74.43802083333333
10752,9.0,,,,,,,70.0,,,,,,73,note_on,,0.0,70.0,0.0,142994,74.47604166666666
10753,9.0,,,,,,,42.0,,,,,,0,note_on,,0.0,42.0,0.0,142994,74.47604166666666
10754,9.0,,,,,,,46.0,,,,,,256,note_on,,100.0,46.0,100.0,143250,74.609375
10755,9.0,,,,,,,70.0,,,,,,0,note_on,,40.0,70.0,40.0,143250,74.609375
10756,9.0,,,,,,,36.0,,,,,,0,note_on,,126.0,36.0,126.0,143250,74.609375
10757,9.0,,,,,,,35.0,,,,,,0,note_on,,60.0,35.0,60.0,143250,74.609375
10758,9.0,,,,,,,35.0,,,,,,166,note_on,,0.0,35.0,0.0,143416,74.69583333333333
10759,9.0,,,,,,,36.0,,,,,,0,note_on,,0.0,36.0,0.0,143416,74.69583333333333
10760,9.0,,,,,,,70.0,,,,,,58,note_on,,0.0,70.0,0.0,143474,74.72604166666666
10761,9.0,,,,,,,46.0,,,,,,0,note_on,,0.0,46.0,0.0,143474,74.72604166666666
10762,9.0,,,,,,,46.0,,,,,,256,note_on,,100.0,46.0,100.0,143730,74.859375
10763,9.0,,,,,,,70.0,,,,,,0,note_on,,40.0,70.0,40.0,143730,74.859375
10764,9.0,,,,,,,70.0,,,,,,224,note_on,,0.0,70.0,0.0,143954,74.97604166666666
10765,9.0,,,,,,,46.0,,,,,,0,note_on,,0.0,46.0,0.0,143954,74.97604166666666
10766,9.0,,,,,,,70.0,,,,,,256,note_on,,40.0,70.0,40.0,144210,75.109375
10767,9.0,,,,,,,36.0,,,,,,0,note_on,,126.0,36.0,126.0,144210,75.109375
10768,9.0,,,,,,,35.0,,,,,,0,note_on,,60.0,35.0,60.0,144210,75.109375
10769,9.0,,,,,,,35.0,,,,,,154,note_on,,0.0,35.0,0.0,144364,75.18958333333333
10770,9.0,,,,,,,36.0,,,,,,0,note_on,,0.0,36.0,0.0,144364,75.18958333333333
10771,9.0,,,,,,,70.0,,,,,,70,note_on,,0.0,70.0,0.0,144434,75.22604166666666
10772,9.0,,,,,,,42.0,,,,,,256,note_on,,85.0,42.0,85.0,144690,75.359375
10773,9.0,,,,,,,70.0,,,,,,0,note_on,,40.0,70.0,40.0,144690,75.359375
10774,9.0,,,,,,,39.0,,,,,,0,note_on,,127.0,39.0,127.0,144690,75.359375
10775,9.0,,,,,,,28.0,,,,,,0,note_on,,127.0,28.0,127.0,144690,75.359375
10776,9.0,,,,,,,39.0,,,,,,123,note_on,,0.0,39.0,0.0,144813,75.4234375
10777,9.0,,,,,,,28.0,,,,,,2,note_on,,0.0,28.0,0.0,144815,75.42447916666667
10778,9.0,,,,,,,70.0,,,,,,99,note_on,,0.0,70.0,0.0,144914,75.47604166666666
10779,9.0,,,,,,,42.0,,,,,,0,note_on,,0.0,42.0,0.0,144914,75.47604166666666
10780,9.0,,,,,,,61.0,,,,,,256,note_on,,100.0,61.0,100.0,145170,75.609375
10781,9.0,,,,,,,70.0,,,,,,0,note_on,,40.0,70.0,40.0,145170,75.609375
10782,9.0,,,,,,,61.0,,,,,,114,note_on,,0.0,61.0,0.0,145284,75.66875
10783,9.0,,,,,,,61.0,,,,,,6,note_on,,100.0,61.0,100.0,145290,75.671875
10784,9.0,,,,,,,70.0,,,,,,104,note_on,,0.0,70.0,0.0,145394,75.72604166666666
10785,9.0,,,,,,,61.0,,,,,,10,note_on,,0.0,61.0,0.0,145404,75.73125
10786,9.0,,,,,,,61.0,,,,,,6,note_on,,100.0,61.0,100.0,145410,75.734375
10787,9.0,,,,,,,61.0,,,,,,114,note_on,,0.0,61.0,0.0,145524,75.79375
10788,9.0,,,,,,,61.0,,,,,,6,note_on,,100.0,61.0,100.0,145530,75.796875
10789,9.0,,,,,,,61.0,,,,,,114,note_on,,0.0,61.0,0.0,145644,75.85625
10790,3.0,,,,,,,15.0,,,,,,6,note_on,,91.0,15.0,91.0,55663,28.991145833333334
10791,9.0,,,,,,,61.0,,,,,,0,note_on,,100.0,61.0,100.0,145644,75.85625
10792,9.0,,,,,,,42.0,,,,,,0,note_on,,85.0,42.0,85.0,145644,75.85625
10793,9.0,,,,,,,70.0,,,,,,0,note_on,,40.0,70.0,40.0,145644,75.85625
10794,9.0,,,,,,,36.0,,,,,,0,note_on,,126.0,36.0,126.0,145644,75.85625
10795,9.0,,,,,,,35.0,,,,,,0,note_on,,60.0,35.0,60.0,145644,75.85625
10796,11.0,,,,,,,60.0,,,,,,0,note_on,,127.0,60.0,127.0,29868,15.55625
10797,11.0,,,,,,,56.0,,,,,,0,note_on,,127.0,56.0,127.0,29868,15.55625
10798,11.0,,,,,,,63.0,,,,,,0,note_on,,127.0,63.0,127.0,29868,15.55625
10799,9.0,,,,,,,61.0,,,,,,114,note_on,,0.0,61.0,0.0,145758,75.915625
10800,9.0,,,,,,,36.0,,,,,,58,note_on,,0.0,36.0,0.0,145816,75.94583333333333
10801,9.0,,,,,,,35.0,,,,,,0,note_on,,0.0,35.0,0.0,145816,75.94583333333333
10802,3.0,,,,,,,15.0,,,,,,23,note_on,,0.0,15.0,0.0,55686,29.003125
10803,9.0,,,,,,,70.0,,,,,,29,note_on,,0.0,70.0,0.0,145845,75.9609375
10804,9.0,,,,,,,42.0,,,,,,0,note_on,,0.0,42.0,0.0,145845,75.9609375
10805,11.0,,,,,,,56.0,,,,,,207,note_on,,0.0,56.0,0.0,30075,15.6640625
10806,11.0,,,,,,,60.0,,,,,,25,note_on,,0.0,60.0,0.0,30100,15.677083333333334
10807,9.0,,,,,,,70.0,,,,,,24,note_on,,40.0,70.0,40.0,145869,75.9734375
10808,10.0,,,,,,,60.0,,,,,,0,note_on,,127.0,60.0,127.0,17903,9.324479166666666
10809,10.0,,,,,,,56.0,,,,,,0,note_on,,127.0,56.0,127.0,17903,9.324479166666666
10810,10.0,,,,,,,63.0,,,,,,0,note_on,,127.0,63.0,127.0,17903,9.324479166666666
10811,11.0,,,,,,,63.0,,,,,,9,note_on,,0.0,63.0,0.0,30109,15.681770833333333
10812,9.0,,,,,,,70.0,,,,,,215,note_on,,0.0,70.0,0.0,146084,76.08541666666666
10813,9.0,,,,,,,36.0,,,,,,16,note_on,,126.0,36.0,126.0,146100,76.09375
10814,9.0,,,,,,,35.0,,,,,,0,note_on,,60.0,35.0,60.0,146100,76.09375
10815,10.0,,,,,,,56.0,,,,,,191,note_on,,0.0,56.0,0.0,18094,9.423958333333333
10816,10.0,,,,,,,60.0,,,,,,25,note_on,,0.0,60.0,0.0,18119,9.436979166666667
10817,9.0,,,,,,,35.0,,,,,,8,note_on,,0.0,35.0,0.0,146108,76.09791666666666
10818,9.0,,,,,,,36.0,,,,,,0,note_on,,0.0,36.0,0.0,146108,76.09791666666666
10819,9.0,,,,,,,42.0,,,,,,16,note_on,,85.0,42.0,85.0,146124,76.10625
10820,9.0,,,,,,,70.0,,,,,,0,note_on,,40.0,70.0,40.0,146124,76.10625
10821,9.0,,,,,,,39.0,,,,,,0,note_on,,125.0,39.0,125.0,146124,76.10625
10822,9.0,,,,,,,28.0,,,,,,0,note_on,,127.0,28.0,127.0,146124,76.10625
10823,12.0,,,,,,,60.0,,,,,,0,note_on,,127.0,60.0,127.0,26835,13.9765625
10824,12.0,,,,,,,56.0,,,,,,0,note_on,,127.0,56.0,127.0,26835,13.9765625
10825,12.0,,,,,,,63.0,,,,,,0,note_on,,127.0,63.0,127.0,26835,13.9765625
10826,10.0,,,,,,,63.0,,,,,,9,note_on,,0.0,63.0,0.0,18128,9.441666666666666
10827,9.0,,,,,,,28.0,,,,,,108,note_on,,0.0,28.0,0.0,146232,76.1625
10828,9.0,,,,,,,39.0,,,,,,34,note_on,,0.0,39.0,0.0,146266,76.18020833333333
10829,9.0,,,,,,,42.0,,,,,,73,note_on,,0.0,42.0,0.0,146339,76.21822916666666
10830,9.0,,,,,,,70.0,,,,,,0,note_on,,0.0,70.0,0.0,146339,76.21822916666666
10831,12.0,,,,,,,56.0,,,,,,207,note_on,,0.0,56.0,0.0,27042,14.084375
10832,12.0,,,,,,,60.0,,,,,,25,note_on,,0.0,60.0,0.0,27067,14.097395833333334
10833,9.0,,,,,,,70.0,,,,,,24,note_on,,40.0,70.0,40.0,146363,76.23072916666666
10834,9.0,,,,,,,36.0,,,,,,0,note_on,,126.0,36.0,126.0,146363,76.23072916666666
10835,9.0,,,,,,,35.0,,,,,,0,note_on,,60.0,35.0,60.0,146363,76.23072916666666
10836,12.0,,,,,,,63.0,,,,,,9,note_on,,0.0,63.0,0.0,27076,14.102083333333333
10837,9.0,,,,,,,35.0,,,,,,157,note_on,,0.0,35.0,0.0,146520,76.3125
10838,9.0,,,,,,,36.0,,,,,,0,note_on,,0.0,36.0,0.0,146520,76.3125
10839,9.0,,,,,,,70.0,,,,,,58,note_on,,0.0,70.0,0.0,146578,76.34270833333333
10840,9.0,,,,,,,42.0,,,,,,256,note_on,,85.0,42.0,85.0,146834,76.47604166666666
10841,9.0,,,,,,,70.0,,,,,,0,note_on,,40.0,70.0,40.0,146834,76.47604166666666
10842,9.0,,,,,,,70.0,,,,,,224,note_on,,0.0,70.0,0.0,147058,76.59270833333333
10843,9.0,,,,,,,42.0,,,,,,0,note_on,,0.0,42.0,0.0,147058,76.59270833333333
10844,9.0,,,,,,,70.0,,,,,,256,note_on,,40.0,70.0,40.0,147314,76.72604166666666
10845,9.0,,,,,,,36.0,,,,,,0,note_on,,126.0,36.0,126.0,147314,76.72604166666666
10846,9.0,,,,,,,35.0,,,,,,0,note_on,,60.0,35.0,60.0,147314,76.72604166666666
10847,9.0,,,,,,,35.0,,,,,,154,note_on,,0.0,35.0,0.0,147468,76.80625
10848,9.0,,,,,,,36.0,,,,,,0,note_on,,0.0,36.0,0.0,147468,76.80625
10849,9.0,,,,,,,70.0,,,,,,70,note_on,,0.0,70.0,0.0,147538,76.84270833333333
10850,9.0,,,,,,,42.0,,,,,,256,note_on,,85.0,42.0,85.0,147794,76.97604166666666
10851,9.0,,,,,,,70.0,,,,,,0,note_on,,40.0,70.0,40.0,147794,76.97604166666666
10852,9.0,,,,,,,39.0,,,,,,0,note_on,,127.0,39.0,127.0,147794,76.97604166666666
10853,9.0,,,,,,,28.0,,,,,,0,note_on,,127.0,28.0,127.0,147794,76.97604166666666
10854,11.0,,,,,,,60.0,,,,,,0,note_on,,127.0,60.0,127.0,30109,15.681770833333333
10855,11.0,,,,,,,65.0,,,,,,0,note_on,,127.0,65.0,127.0,30109,15.681770833333333
10856,11.0,,,,,,,56.0,,,,,,0,note_on,,127.0,56.0,127.0,30109,15.681770833333333
10857,9.0,,,,,,,39.0,,,,,,123,note_on,,0.0,39.0,0.0,147917,77.04010416666667
10858,9.0,,,,,,,28.0,,,,,,2,note_on,,0.0,28.0,0.0,147919,77.04114583333333
10859,9.0,,,,,,,42.0,,,,,,99,note_on,,0.0,42.0,0.0,148018,77.09270833333333
10860,9.0,,,,,,,70.0,,,,,,0,note_on,,0.0,70.0,0.0,148018,77.09270833333333
10861,11.0,,,,,,,65.0,,,,,,160,note_on,,0.0,65.0,0.0,30269,15.765104166666667
10862,11.0,,,,,,,56.0,,,,,,10,note_on,,0.0,56.0,0.0,30279,15.7703125
10863,11.0,,,,,,,60.0,,,,,,21,note_on,,0.0,60.0,0.0,30300,15.78125
10864,9.0,,,,,,,70.0,,,,,,65,note_on,,40.0,70.0,40.0,148083,77.1265625
10865,10.0,,,,,,,60.0,,,,,,0,note_on,,127.0,60.0,127.0,18128,9.441666666666666
10866,10.0,,,,,,,65.0,,,,,,0,note_on,,127.0,65.0,127.0,18128,9.441666666666666
10867,10.0,,,,,,,56.0,,,,,,0,note_on,,127.0,56.0,127.0,18128,9.441666666666666
10868,11.0,,,,,,,60.0,,,,,,0,note_on,,127.0,60.0,127.0,30300,15.78125
10869,11.0,,,,,,,56.0,,,,,,0,note_on,,124.0,56.0,124.0,30300,15.78125
10870,11.0,,,,,,,63.0,,,,,,0,note_on,,127.0,63.0,127.0,30300,15.78125
10871,9.0,,,,,,,70.0,,,,,,224,note_on,,0.0,70.0,0.0,148307,77.24322916666667
10872,10.0,,,,,,,65.0,,,,,,160,note_on,,0.0,65.0,0.0,18288,9.525
10873,10.0,,,,,,,56.0,,,,,,10,note_on,,0.0,56.0,0.0,18298,9.530208333333333
10874,10.0,,,,,,,60.0,,,,,,21,note_on,,0.0,60.0,0.0,18319,9.541145833333333
10875,11.0,,,,,,,56.0,,,,,,46,note_on,,0.0,56.0,0.0,30346,15.805208333333333
10876,3.0,,,,,,,15.0,,,,,,19,note_on,,92.0,15.0,92.0,55705,29.013020833333332
10877,9.0,,,,,,,42.0,,,,,,0,note_on,,85.0,42.0,85.0,148307,77.24322916666667
10878,9.0,,,,,,,70.0,,,,,,0,note_on,,40.0,70.0,40.0,148307,77.24322916666667
10879,9.0,,,,,,,36.0,,,,,,0,note_on,,126.0,36.0,126.0,148307,77.24322916666667
10880,9.0,,,,,,,35.0,,,,,,0,note_on,,60.0,35.0,60.0,148307,77.24322916666667
10881,10.0,,,,,,,60.0,,,,,,0,note_on,,127.0,60.0,127.0,18319,9.541145833333333
10882,10.0,,,,,,,56.0,,,,,,0,note_on,,124.0,56.0,124.0,18319,9.541145833333333
10883,10.0,,,,,,,63.0,,,,,,0,note_on,,127.0,63.0,127.0,18319,9.541145833333333
10884,12.0,,,,,,,60.0,,,,,,0,note_on,,127.0,60.0,127.0,27076,14.102083333333333
10885,12.0,,,,,,,65.0,,,,,,0,note_on,,127.0,65.0,127.0,27076,14.102083333333333
10886,12.0,,,,,,,56.0,,,,,,0,note_on,,127.0,56.0,127.0,27076,14.102083333333333
10887,11.0,,,,,,,63.0,,,,,,14,note_on,,0.0,63.0,0.0,30360,15.8125
10888,11.0,,,,,,,60.0,,,,,,6,note_on,,0.0,60.0,0.0,30366,15.815624999999999
10889,9.0,,,,,,,35.0,,,,,,152,note_on,,0.0,35.0,0.0,148459,77.32239583333333
10890,9.0,,,,,,,36.0,,,,,,0,note_on,,0.0,36.0,0.0,148459,77.32239583333333
10891,3.0,,,,,,,15.0,,,,,,25,note_on,,0.0,15.0,0.0,55730,29.026041666666668
10892,9.0,,,,,,,42.0,,,,,,27,note_on,,0.0,42.0,0.0,148486,77.33645833333333
10893,9.0,,,,,,,70.0,,,,,,0,note_on,,0.0,70.0,0.0,148486,77.33645833333333
10894,12.0,,,,,,,65.0,,,,,,160,note_on,,0.0,65.0,0.0,27236,14.185416666666667
10895,12.0,,,,,,,56.0,,,,,,10,note_on,,0.0,56.0,0.0,27246,14.190624999999999
10896,12.0,,,,,,,60.0,,,,,,21,note_on,,0.0,60.0,0.0,27267,14.2015625
10897,10.0,,,,,,,56.0,,,,,,46,note_on,,0.0,56.0,0.0,18365,9.565104166666666
10898,9.0,,,,,,,70.0,,,,,,19,note_on,,40.0,70.0,40.0,148505,77.34635416666667
10899,12.0,,,,,,,60.0,,,,,,0,note_on,,127.0,60.0,127.0,27267,14.2015625
10900,12.0,,,,,,,56.0,,,,,,0,note_on,,124.0,56.0,124.0,27267,14.2015625
10901,12.0,,,,,,,63.0,,,,,,0,note_on,,127.0,63.0,127.0,27267,14.2015625
10902,10.0,,,,,,,63.0,,,,,,14,note_on,,0.0,63.0,0.0,18379,9.572395833333333
10903,10.0,,,,,,,60.0,,,,,,6,note_on,,0.0,60.0,0.0,18385,9.575520833333334
10904,9.0,,,,,,,70.0,,,,,,204,note_on,,0.0,70.0,0.0,148709,77.45260416666666
10905,9.0,,,,,,,36.0,,,,,,16,note_on,,126.0,36.0,126.0,148725,77.4609375
10906,9.0,,,,,,,35.0,,,,,,0,note_on,,60.0,35.0,60.0,148725,77.4609375
10907,12.0,,,,,,,56.0,,,,,,221,note_on,,0.0,56.0,0.0,27488,14.316666666666666
10908,9.0,,,,,,,36.0,,,,,,3,note_on,,0.0,36.0,0.0,148728,77.4625
10909,9.0,,,,,,,35.0,,,,,,0,note_on,,0.0,35.0,0.0,148728,77.4625
10910,9.0,,,,,,,42.0,,,,,,16,note_on,,85.0,42.0,85.0,148744,77.47083333333333
10911,9.0,,,,,,,70.0,,,,,,0,note_on,,40.0,70.0,40.0,148744,77.47083333333333
10912,9.0,,,,,,,39.0,,,,,,0,note_on,,125.0,39.0,125.0,148744,77.47083333333333
10913,9.0,,,,,,,28.0,,,,,,0,note_on,,127.0,28.0,127.0,148744,77.47083333333333
10914,12.0,,,,,,,63.0,,,,,,14,note_on,,0.0,63.0,0.0,27502,14.323958333333334
10915,12.0,,,,,,,60.0,,,,,,6,note_on,,0.0,60.0,0.0,27508,14.327083333333333
10916,9.0,,,,,,,28.0,,,,,,97,note_on,,0.0,28.0,0.0,148841,77.52135416666667
10917,9.0,,,,,,,39.0,,,,,,34,note_on,,0.0,39.0,0.0,148875,77.5390625
10918,9.0,,,,,,,42.0,,,,,,73,note_on,,0.0,42.0,0.0,148948,77.57708333333333
10919,9.0,,,,,,,70.0,,,,,,0,note_on,,0.0,70.0,0.0,148948,77.57708333333333
10920,9.0,,,,,,,46.0,,,,,,256,note_on,,100.0,46.0,100.0,149204,77.71041666666666
10921,9.0,,,,,,,70.0,,,,,,0,note_on,,40.0,70.0,40.0,149204,77.71041666666666
10922,9.0,,,,,,,36.0,,,,,,0,note_on,,126.0,36.0,126.0,149204,77.71041666666666
10923,9.0,,,,,,,35.0,,,,,,0,note_on,,60.0,35.0,60.0,149204,77.71041666666666
10924,9.0,,,,,,,35.0,,,,,,166,note_on,,0.0,35.0,0.0,149370,77.796875
10925,9.0,,,,,,,36.0,,,,,,0,note_on,,0.0,36.0,0.0,149370,77.796875
10926,9.0,,,,,,,70.0,,,,,,58,note_on,,0.0,70.0,0.0,149428,77.82708333333333
10927,9.0,,,,,,,46.0,,,,,,0,note_on,,0.0,46.0,0.0,149428,77.82708333333333
10928,9.0,,,,,,,46.0,,,,,,256,note_on,,100.0,46.0,100.0,149684,77.96041666666666
10929,9.0,,,,,,,70.0,,,,,,0,note_on,,40.0,70.0,40.0,149684,77.96041666666666
10930,9.0,,,,,,,70.0,,,,,,224,note_on,,0.0,70.0,0.0,149908,78.07708333333333
10931,9.0,,,,,,,46.0,,,,,,0,note_on,,0.0,46.0,0.0,149908,78.07708333333333
10932,9.0,,,,,,,70.0,,,,,,256,note_on,,40.0,70.0,40.0,150164,78.21041666666666
10933,9.0,,,,,,,36.0,,,,,,0,note_on,,126.0,36.0,126.0,150164,78.21041666666666
10934,9.0,,,,,,,35.0,,,,,,0,note_on,,60.0,35.0,60.0,150164,78.21041666666666
10935,9.0,,,,,,,35.0,,,,,,154,note_on,,0.0,35.0,0.0,150318,78.290625
10936,9.0,,,,,,,36.0,,,,,,0,note_on,,0.0,36.0,0.0,150318,78.290625
10937,9.0,,,,,,,70.0,,,,,,70,note_on,,0.0,70.0,0.0,150388,78.32708333333333
10938,9.0,,,,,,,42.0,,,,,,256,note_on,,85.0,42.0,85.0,150644,78.46041666666666
10939,9.0,,,,,,,70.0,,,,,,0,note_on,,40.0,70.0,40.0,150644,78.46041666666666
10940,9.0,,,,,,,39.0,,,,,,0,note_on,,127.0,39.0,127.0,150644,78.46041666666666
10941,9.0,,,,,,,28.0,,,,,,0,note_on,,127.0,28.0,127.0,150644,78.46041666666666
10942,9.0,,,,,,,39.0,,,,,,123,note_on,,0.0,39.0,0.0,150767,78.52447916666667
10943,9.0,,,,,,,28.0,,,,,,2,note_on,,0.0,28.0,0.0,150769,78.52552083333333
10944,9.0,,,,,,,70.0,,,,,,99,note_on,,0.0,70.0,0.0,150868,78.57708333333333
10945,9.0,,,,,,,42.0,,,,,,0,note_on,,0.0,42.0,0.0,150868,78.57708333333333
10946,9.0,,,,,,,61.0,,,,,,256,note_on,,100.0,61.0,100.0,151124,78.71041666666666
10947,9.0,,,,,,,70.0,,,,,,0,note_on,,40.0,70.0,40.0,151124,78.71041666666666
10948,9.0,,,,,,,61.0,,,,,,114,note_on,,0.0,61.0,0.0,151238,78.76979166666666
10949,9.0,,,,,,,61.0,,,,,,6,note_on,,100.0,61.0,100.0,151244,78.77291666666666
10950,9.0,,,,,,,70.0,,,,,,104,note_on,,0.0,70.0,0.0,151348,78.82708333333333
10951,9.0,,,,,,,61.0,,,,,,10,note_on,,0.0,61.0,0.0,151358,78.83229166666666
10952,9.0,,,,,,,61.0,,,,,,6,note_on,,100.0,61.0,100.0,151364,78.83541666666666
10953,9.0,,,,,,,61.0,,,,,,114,note_on,,0.0,61.0,0.0,151478,78.89479166666666
10954,9.0,,,,,,,61.0,,,,,,6,note_on,,100.0,61.0,100.0,151484,78.89791666666666
10955,9.0,,,,,,,61.0,,,,,,114,note_on,,0.0,61.0,0.0,151598,78.95729166666666
10956,3.0,,,,,,,15.0,,,,,,6,note_on,,81.0,15.0,81.0,55736,29.029166666666665
10957,11.0,,,,,,,62.0,,,,,,0,note_on,,127.0,62.0,127.0,30366,15.815624999999999
10958,11.0,,,,,,,58.0,,,,,,0,note_on,,127.0,58.0,127.0,30366,15.815624999999999
10959,11.0,,,,,,,65.0,,,,,,0,note_on,,127.0,65.0,127.0,30366,15.815624999999999
10960,3.0,,,,,,,15.0,,,,,,184,note_on,,0.0,15.0,0.0,55920,29.125
10961,11.0,,,,,,,58.0,,,,,,290,note_on,,0.0,58.0,0.0,30656,15.966666666666667
10962,10.0,,,,,,,62.0,,,,,,6,note_on,,127.0,62.0,127.0,18391,9.578645833333333
10963,10.0,,,,,,,58.0,,,,,,0,note_on,,127.0,58.0,127.0,18391,9.578645833333333
10964,10.0,,,,,,,65.0,,,,,,0,note_on,,127.0,65.0,127.0,18391,9.578645833333333
10965,11.0,,,,,,,65.0,,,,,,47,note_on,,0.0,65.0,0.0,30703,15.991145833333333
10966,11.0,,,,,,,62.0,,,,,,2,note_on,,0.0,62.0,0.0,30705,15.9921875
10967,10.0,,,,,,,58.0,,,,,,425,note_on,,0.0,58.0,0.0,18816,9.8
10968,12.0,,,,,,,62.0,,,,,,6,note_on,,127.0,62.0,127.0,27514,14.330208333333333
10969,12.0,,,,,,,58.0,,,,,,0,note_on,,127.0,58.0,127.0,27514,14.330208333333333
10970,12.0,,,,,,,65.0,,,,,,0,note_on,,127.0,65.0,127.0,27514,14.330208333333333
10971,10.0,,,,,,,65.0,,,,,,47,note_on,,0.0,65.0,0.0,18863,9.824479166666666
10972,10.0,,,,,,,62.0,,,,,,2,note_on,,0.0,62.0,0.0,18865,9.825520833333334
10973,12.0,,,,,,,58.0,,,,,,425,note_on,,0.0,58.0,0.0,27939,14.5515625
10974,12.0,,,,,,,65.0,,,,,,53,note_on,,0.0,65.0,0.0,27992,14.579166666666666
10975,12.0,,,,,,,62.0,,,,,,2,note_on,,0.0,62.0,0.0,27994,14.580208333333333
10976,11.0,,,,,,,62.0,,,,,,1391,note_on,,127.0,62.0,127.0,32096,16.716666666666665
10977,11.0,,,,,,,67.0,,,,,,0,note_on,,127.0,67.0,127.0,32096,16.716666666666665
10978,11.0,,,,,,,58.0,,,,,,0,note_on,,127.0,58.0,127.0,32096,16.716666666666665
10979,11.0,,,,,,,67.0,,,,,,367,note_on,,0.0,67.0,0.0,32463,16.9078125
10980,11.0,,,,,,,58.0,,,,,,11,note_on,,0.0,58.0,0.0,32474,16.913541666666667
10981,11.0,,,,,,,62.0,,,,,,36,note_on,,0.0,62.0,0.0,32510,16.932291666666668
10982,10.0,,,,,,,62.0,,,,,,66,note_on,,127.0,62.0,127.0,18931,9.859895833333333
10983,10.0,,,,,,,67.0,,,,,,0,note_on,,127.0,67.0,127.0,18931,9.859895833333333
10984,10.0,,,,,,,58.0,,,,,,0,note_on,,127.0,58.0,127.0,18931,9.859895833333333
10985,11.0,,,,,,,62.0,,,,,,0,note_on,,127.0,62.0,127.0,32510,16.932291666666668
10986,11.0,,,,,,,58.0,,,,,,0,note_on,,118.0,58.0,118.0,32510,16.932291666666668
10987,11.0,,,,,,,65.0,,,,,,0,note_on,,127.0,65.0,127.0,32510,16.932291666666668
10988,10.0,,,,,,,67.0,,,,,,367,note_on,,0.0,67.0,0.0,19298,10.051041666666666
10989,10.0,,,,,,,58.0,,,,,,11,note_on,,0.0,58.0,0.0,19309,10.056770833333333
10990,11.0,,,,,,,58.0,,,,,,7,note_on,,0.0,58.0,0.0,32517,16.9359375
10991,11.0,,,,,,,65.0,,,,,,23,note_on,,0.0,65.0,0.0,32540,16.947916666666668
10992,10.0,,,,,,,62.0,,,,,,6,note_on,,0.0,62.0,0.0,19315,10.059895833333334
10993,11.0,,,,,,,62.0,,,,,,13,note_on,,0.0,62.0,0.0,32553,16.9546875
10994,10.0,,,,,,,62.0,,,,,,53,note_on,,127.0,62.0,127.0,19368,10.0875
10995,10.0,,,,,,,58.0,,,,,,0,note_on,,118.0,58.0,118.0,19368,10.0875
10996,10.0,,,,,,,65.0,,,,,,0,note_on,,127.0,65.0,127.0,19368,10.0875
10997,12.0,,,,,,,62.0,,,,,,0,note_on,,127.0,62.0,127.0,27994,14.580208333333333
10998,12.0,,,,,,,67.0,,,,,,0,note_on,,127.0,67.0,127.0,27994,14.580208333333333
10999,12.0,,,,,,,58.0,,,,,,0,note_on,,127.0,58.0,127.0,27994,14.580208333333333
11000,12.0,,,,,,,67.0,,,,,,367,note_on,,0.0,67.0,0.0,28361,14.771354166666667
11001,12.0,,,,,,,58.0,,,,,,11,note_on,,0.0,58.0,0.0,28372,14.777083333333334
11002,10.0,,,,,,,58.0,,,,,,7,note_on,,0.0,58.0,0.0,19375,10.091145833333334
11003,10.0,,,,,,,65.0,,,,,,23,note_on,,0.0,65.0,0.0,19398,10.103125
11004,12.0,,,,,,,62.0,,,,,,6,note_on,,0.0,62.0,0.0,28378,14.780208333333333
11005,10.0,,,,,,,62.0,,,,,,13,note_on,,0.0,62.0,0.0,19411,10.109895833333333
11006,12.0,,,,,,,62.0,,,,,,53,note_on,,127.0,62.0,127.0,28431,14.807812499999999
11007,12.0,,,,,,,58.0,,,,,,0,note_on,,118.0,58.0,118.0,28431,14.807812499999999
11008,12.0,,,,,,,65.0,,,,,,0,note_on,,127.0,65.0,127.0,28431,14.807812499999999
11009,12.0,,,,,,,58.0,,,,,,385,note_on,,0.0,58.0,0.0,28816,15.008333333333333
11010,12.0,,,,,,,65.0,,,,,,23,note_on,,0.0,65.0,0.0,28839,15.0203125
11011,12.0,,,,,,,62.0,,,,,,19,note_on,,0.0,62.0,0.0,28858,15.030208333333333
11012,11.0,,,,,,,63.0,,,,,,53,note_on,,100.0,63.0,100.0,32606,16.982291666666665
11013,11.0,,,,,,,56.0,,,,,,0,note_on,,127.0,56.0,127.0,32606,16.982291666666665
11014,11.0,,,,,,,62.0,,,,,,0,note_on,,126.0,62.0,126.0,32606,16.982291666666665
11015,11.0,,,,,,,53.0,,,,,,0,note_on,,127.0,53.0,127.0,32606,16.982291666666665
11016,11.0,,,,,,,58.0,,,,,,0,note_on,,127.0,58.0,127.0,32606,16.982291666666665
11017,10.0,,,,,,,63.0,,,,,,480,note_on,,100.0,63.0,100.0,19891,10.359895833333333
11018,10.0,,,,,,,56.0,,,,,,0,note_on,,127.0,56.0,127.0,19891,10.359895833333333
11019,10.0,,,,,,,62.0,,,,,,0,note_on,,126.0,62.0,126.0,19891,10.359895833333333
11020,10.0,,,,,,,53.0,,,,,,0,note_on,,127.0,53.0,127.0,19891,10.359895833333333
11021,10.0,,,,,,,58.0,,,,,,0,note_on,,127.0,58.0,127.0,19891,10.359895833333333
11022,12.0,,,,,,,63.0,,,,,,480,note_on,,100.0,63.0,100.0,29338,15.280208333333333
11023,12.0,,,,,,,56.0,,,,,,0,note_on,,127.0,56.0,127.0,29338,15.280208333333333
11024,12.0,,,,,,,62.0,,,,,,0,note_on,,126.0,62.0,126.0,29338,15.280208333333333
11025,12.0,,,,,,,53.0,,,,,,0,note_on,,127.0,53.0,127.0,29338,15.280208333333333
11026,12.0,,,,,,,58.0,,,,,,0,note_on,,127.0,58.0,127.0,29338,15.280208333333333
11027,11.0,,,,,,,63.0,,,,,,480,note_on,,0.0,63.0,0.0,33086,17.232291666666665
11028,1.0,,,,,,,19.0,,,,,,0,note_on,,126.0,19.0,126.0,5258,2.7385416666666664
11029,11.0,,,,,,,63.0,,,,,,0,note_on,,127.0,63.0,127.0,33086,17.232291666666665
11030,1.0,,,,,,,20.0,,,,,,240,note_on,,127.0,20.0,127.0,5498,2.8635416666666664
11031,1.0,,,,,,,19.0,,,,,,144,note_on,,0.0,19.0,0.0,5642,2.9385416666666666
11032,10.0,,,,,,,63.0,,,,,,96,note_on,,0.0,63.0,0.0,19987,10.409895833333334
11033,1.0,,,,,,,22.0,,,,,,0,note_on,,127.0,22.0,127.0,5642,2.9385416666666666
11034,10.0,,,,,,,63.0,,,,,,0,note_on,,127.0,63.0,127.0,19987,10.409895833333334
11035,1.0,,,,,,,20.0,,,,,,75,note_on,,0.0,20.0,0.0,5717,2.9776041666666666
11036,1.0,,,,,,,,,-284.0,,,,91,pitchwheel,,,,,5808,3.025
11037,1.0,,,,,,,,,-773.0,,,,8,pitchwheel,,,,,5816,3.029166666666667
11038,1.0,,,,,,,,,-1340.0,,,,8,pitchwheel,,,,,5824,3.033333333333333
11039,1.0,,,,,,,,,-1907.0,,,,9,pitchwheel,,,,,5833,3.0380208333333334
11040,1.0,,,,,,,,,-2396.0,,,,8,pitchwheel,,,,,5841,3.0421875
11041,1.0,,,,,,,,,-2989.0,,,,6,pitchwheel,,,,,5847,3.0453125
11042,1.0,,,,,,,,,-3556.0,,,,9,pitchwheel,,,,,5856,3.05
11043,1.0,,,,,,,,,-3890.0,,,,14,pitchwheel,,,,,5870,3.0572916666666665
11044,1.0,,,,,,,,,-4715.0,,,,4,pitchwheel,,,,,5874,3.059375
11045,1.0,,,,,,,,,-5539.0,,,,6,pitchwheel,,,,,5880,3.0625
11046,1.0,,,,,,,,,-5900.0,,,,11,pitchwheel,,,,,5891,3.068229166666667
11047,1.0,,,,,,,,,-6673.0,,,,8,pitchwheel,,,,,5899,3.072395833333333
11048,1.0,,,,,,,,,-7111.0,,,,6,pitchwheel,,,,,5905,3.0755208333333335
11049,1.0,,,,,,,,,-7806.0,,,,9,pitchwheel,,,,,5914,3.080208333333333
11050,1.0,,,,,,,,,-8115.0,,,,10,pitchwheel,,,,,5924,3.0854166666666667
11051,1.0,,,,,,,,,-8192.0,,,,8,pitchwheel,,,,,5932,3.089583333333333
11052,1.0,,,,,,,,,-8141.0,,,,166,pitchwheel,,,,,6098,3.1760416666666664
11053,1.0,,,,,,,,,-8038.0,,,,12,pitchwheel,,,,,6110,3.1822916666666665
11054,12.0,,,,,,,63.0,,,,,,12,note_on,,0.0,63.0,0.0,29350,15.286458333333334
11055,12.0,,,,,,,63.0,,,,,,0,note_on,,127.0,63.0,127.0,29350,15.286458333333334
11056,1.0,,,,,,,,,-8064.0,,,,13,pitchwheel,,,,,6123,3.1890625
11057,1.0,,,,,,,,,-8115.0,,,,13,pitchwheel,,,,,6136,3.1958333333333333
11058,1.0,,,,,,,,,-8038.0,,,,41,pitchwheel,,,,,6177,3.2171875
11059,1.0,,,,,,,,,-7986.0,,,,9,pitchwheel,,,,,6186,3.221875
11060,1.0,,,,,,,,,-7883.0,,,,8,pitchwheel,,,,,6194,3.2260416666666667
11061,1.0,,,,,,,,,-7780.0,,,,10,pitchwheel,,,,,6204,3.2312499999999997
11062,1.0,,,,,,,,,-7677.0,,,,11,pitchwheel,,,,,6215,3.2369791666666665
11063,1.0,,,,,,,,,-7420.0,,,,10,pitchwheel,,,,,6225,3.2421875
11064,1.0,,,,,,,,,-7317.0,,,,8,pitchwheel,,,,,6233,3.2463541666666664
11065,1.0,,,,,,,,,-7033.0,,,,9,pitchwheel,,,,,6242,3.2510416666666666
11066,1.0,,,,,,,,,-6879.0,,,,8,pitchwheel,,,,,6250,3.2552083333333335
11067,1.0,,,,,,,,,-6673.0,,,,10,pitchwheel,,,,,6260,3.2604166666666665
11068,1.0,,,,,,,,,-6235.0,,,,9,pitchwheel,,,,,6269,3.2651041666666667
11069,1.0,,,,,,,,,-6029.0,,,,10,pitchwheel,,,,,6279,3.2703124999999997
11070,1.0,,,,,,,,,-5642.0,,,,8,pitchwheel,,,,,6287,3.2744791666666666
11071,1.0,,,,,,,,,-5256.0,,,,9,pitchwheel,,,,,6296,3.279166666666667
11072,1.0,,,,,,,,,-4844.0,,,,6,pitchwheel,,,,,6302,3.2822916666666666
11073,1.0,,,,,,,,,-4431.0,,,,8,pitchwheel,,,,,6310,3.2864583333333335
11074,1.0,,,,,,,,,-3556.0,,,,11,pitchwheel,,,,,6321,3.2921875
11075,1.0,,,,,,,,,-2474.0,,,,8,pitchwheel,,,,,6329,3.2963541666666667
11076,1.0,,,,,,,,,-593.0,,,,8,pitchwheel,,,,,6337,3.300520833333333
11077,11.0,,,,,,,56.0,,,,,,6,note_on,,0.0,56.0,0.0,33092,17.235416666666666
11078,1.0,,,,,,,,,25.0,,,,3,pitchwheel,,,,,6340,3.3020833333333335
11079,11.0,,,,,,,62.0,,,,,,1,note_on,,0.0,62.0,0.0,33093,17.2359375
11080,1.0,,,,,,,,,721.0,,,,7,pitchwheel,,,,,6347,3.3057291666666666
11081,1.0,,,,,,,,,283.0,,,,8,pitchwheel,,,,,6355,3.3098958333333335
11082,1.0,,,,,,,,,0.0,,,,9,pitchwheel,,,,,6364,3.314583333333333
11083,1.0,,,,,,,22.0,,,,,,167,note_on,,0.0,22.0,0.0,6531,3.4015625
11084,11.0,,,,,,,53.0,,,,,,10,note_on,,0.0,53.0,0.0,33103,17.241145833333334
11085,11.0,,,,,,,58.0,,,,,,31,note_on,,0.0,58.0,0.0,33134,17.257291666666667
11086,11.0,,0.0,,,,,,,,,,,9,control_change,121.0,,,,33143,17.261979166666666
11087,11.0,,0.0,,,,,,,,,,,0,control_change,121.0,,,,33143,17.261979166666666
11088,11.0,,32.0,,,,,,,,,,,1,control_change,0.0,,,,33144,17.2625
11089,11.0,,32.0,,,,,,,,,,,0,control_change,0.0,,,,33144,17.2625
11090,1.0,,,,,,,27.0,,,,,,1,note_on,,127.0,27.0,127.0,6532,3.402083333333333
11091,7.0,,,,,,,82.0,,,,,,0,note_on,,127.0,82.0,127.0,3989,2.0776041666666667
11092,8.0,,,,,,,39.0,,,,,,0,note_on,,115.0,39.0,115.0,21328,11.108333333333333
11093,8.0,,,,,,,87.0,,,,,,0,note_on,,45.0,87.0,45.0,21328,11.108333333333333
11094,8.0,,,,,,,70.0,,,,,,0,note_on,,127.0,70.0,127.0,21328,11.108333333333333
11095,9.0,,,,,,,57.0,,,,,,0,note_on,,100.0,57.0,100.0,151598,78.95729166666666
11096,9.0,,,,,,,42.0,,,,,,0,note_on,,85.0,42.0,85.0,151598,78.95729166666666
11097,9.0,,,,,,,70.0,,,,,,0,note_on,,40.0,70.0,40.0,151598,78.95729166666666
11098,9.0,,,,,,,36.0,,,,,,0,note_on,,126.0,36.0,126.0,151598,78.95729166666666
11099,9.0,,,,,,,35.0,,,,,,0,note_on,,60.0,35.0,60.0,151598,78.95729166666666
11100,11.0,,,,,,,67.0,,,,,,0,note_on,,127.0,67.0,127.0,33144,17.2625
11101,11.0,,,,,,,63.0,,,,,,0,note_on,,127.0,63.0,127.0,33144,17.2625
11102,11.0,,,,,,,70.0,,,,,,0,note_on,,126.0,70.0,126.0,33144,17.2625
11103,3.0,,,,,,,79.0,,,,,,0,note_on,,127.0,79.0,127.0,55920,29.125
11104,11.0,,,,,,,,,,24.0,,,0,program_change,,,,,33144,17.2625
11105,,,,,,,,,,,,,Ba ,0,lyrics,,,,,4640802416,2417084.591666667
11106,11.0,,,,,,,63.0,,,,,,15,note_on,,0.0,63.0,0.0,33159,17.2703125
11107,5.0,,,,,,,58.0,,,,,,18,note_on,,102.0,58.0,102.0,2131,1.1098958333333333
11108,5.0,,,,,,,63.0,,,,,,5,note_on,,120.0,63.0,120.0,2136,1.1125
11109,5.0,,,,,,,55.0,,,,,,6,note_on,,94.0,55.0,94.0,2142,1.115625
11110,9.0,,,,,,,57.0,,,,,,70,note_on,,0.0,57.0,0.0,151668,78.99375
11111,8.0,,,,,,,87.0,,,,,,8,note_on,,0.0,87.0,0.0,21336,11.1125
11112,9.0,,,,,,,35.0,,,,,,50,note_on,,0.0,35.0,0.0,151718,79.01979166666666
11113,9.0,,,,,,,36.0,,,,,,0,note_on,,0.0,36.0,0.0,151718,79.01979166666666
11114,9.0,,,,,,,70.0,,,,,,52,note_on,,0.0,70.0,0.0,151770,79.046875
11115,9.0,,,,,,,42.0,,,,,,0,note_on,,0.0,42.0,0.0,151770,79.046875
11116,10.0,,,,,,,56.0,,,,,,9,note_on,,0.0,56.0,0.0,19996,10.414583333333333
11117,10.0,,,,,,,62.0,,,,,,4,note_on,,0.0,62.0,0.0,20000,10.416666666666666
11118,9.0,,,,,,,44.0,,,,,,3,note_on,,75.0,44.0,75.0,151773,79.0484375
11119,11.0,,,,,,,63.0,,,,,,157,note_on,,0.0,63.0,0.0,33316,17.352083333333333
11120,11.0,,,,,,,67.0,,,,,,10,note_on,,0.0,67.0,0.0,33326,17.357291666666665
11121,10.0,,,,,,,53.0,,,,,,31,note_on,,0.0,53.0,0.0,20031,10.4328125
11122,11.0,,,,,,,70.0,,,,,,21,note_on,,0.0,70.0,0.0,33347,17.368229166666666
11123,10.0,,,,,,,58.0,,,,,,10,note_on,,0.0,58.0,0.0,20041,10.438020833333333
11124,8.0,,,,,,,70.0,,,,,,3,note_on,,0.0,70.0,0.0,21339,11.1140625
11125,7.0,,,,,,,82.0,,,,,,0,note_on,,0.0,82.0,0.0,3989,2.0776041666666667
11126,10.0,,0.0,,,,,,,,,,,6,control_change,121.0,,,,20047,10.441145833333334
11127,10.0,,0.0,,,,,,,,,,,0,control_change,121.0,,,,20047,10.441145833333334
11128,10.0,,32.0,,,,,,,,,,,1,control_change,0.0,,,,20048,10.441666666666666
11129,10.0,,32.0,,,,,,,,,,,0,control_change,0.0,,,,20048,10.441666666666666
11130,9.0,,,,,,,70.0,,,,,,1,note_on,,40.0,70.0,40.0,151774,79.04895833333333
11131,10.0,,,,,,,70.0,,,,,,0,note_on,,126.0,70.0,126.0,20048,10.441666666666666
11132,10.0,,,,,,,67.0,,,,,,0,note_on,,127.0,67.0,127.0,20048,10.441666666666666
11133,10.0,,,,,,,63.0,,,,,,0,note_on,,127.0,63.0,127.0,20048,10.441666666666666
11134,8.0,,,,,,,87.0,,,,,,0,note_on,,45.0,87.0,45.0,21339,11.1140625
11135,9.0,,,,,,,42.0,,,,,,0,note_on,,85.0,42.0,85.0,151774,79.04895833333333
11136,10.0,,,,,,,,,,24.0,,,0,program_change,,,,,20048,10.441666666666666
11137,10.0,,,,,,,63.0,,,,,,15,note_on,,0.0,63.0,0.0,20063,10.449479166666666
11138,8.0,,,,,,,87.0,,,,,,106,note_on,,0.0,87.0,0.0,21445,11.169270833333334
11139,3.0,,,,,,,79.0,,,,,,39,note_on,,0.0,79.0,0.0,55959,29.1453125
11140,9.0,,,,,,,70.0,,,,,,64,note_on,,0.0,70.0,0.0,151838,79.08229166666666
11141,12.0,,,,,,,56.0,,,,,,9,note_on,,0.0,56.0,0.0,29359,15.291145833333333
11142,12.0,,,,,,,62.0,,,,,,4,note_on,,0.0,62.0,0.0,29363,15.293229166666666
11143,8.0,,,,,,,87.0,,,,,,3,note_on,,45.0,87.0,45.0,21448,11.170833333333333
11144,9.0,,,,,,,44.0,,,,,,0,note_on,,75.0,44.0,75.0,151838,79.08229166666666
11145,9.0,,,,,,,36.0,,,,,,0,note_on,,126.0,36.0,126.0,151838,79.08229166666666
11146,9.0,,,,,,,35.0,,,,,,0,note_on,,60.0,35.0,60.0,151838,79.08229166666666
11147,8.0,,,,,,,87.0,,,,,,102,note_on,,0.0,87.0,0.0,21550,11.223958333333334
11148,10.0,,,,,,,63.0,,,,,,55,note_on,,0.0,63.0,0.0,20118,10.478125
11149,10.0,,,,,,,67.0,,,,,,10,note_on,,0.0,67.0,0.0,20128,10.483333333333333
11150,12.0,,,,,,,53.0,,,,,,31,note_on,,0.0,53.0,0.0,29394,15.309375
11151,10.0,,,,,,,70.0,,,,,,21,note_on,,0.0,70.0,0.0,20149,10.494270833333333
11152,9.0,,,,,,,35.0,,,,,,5,note_on,,0.0,35.0,0.0,151843,79.08489583333333
11153,9.0,,,,,,,36.0,,,,,,0,note_on,,0.0,36.0,0.0,151843,79.08489583333333
11154,12.0,,,,,,,58.0,,,,,,5,note_on,,0.0,58.0,0.0,29399,15.311979166666667
11155,12.0,,0.0,,,,,,,,,,,9,control_change,121.0,,,,29408,15.316666666666666
11156,12.0,,32.0,,,,,,,,,,,1,control_change,0.0,,,,29409,15.3171875
11157,3.0,,,,,,,77.0,,,,,,1,note_on,,127.0,77.0,127.0,55960,29.145833333333332
11158,7.0,,,,,,,75.0,,,,,,0,note_on,,127.0,75.0,127.0,3989,2.0776041666666667
11159,8.0,,,,,,,63.0,,,,,,0,note_on,,127.0,63.0,127.0,21550,11.223958333333334
11160,9.0,,,,,,,39.0,,,,,,0,note_on,,125.0,39.0,125.0,151843,79.08489583333333
11161,9.0,,,,,,,28.0,,,,,,0,note_on,,127.0,28.0,127.0,151843,79.08489583333333
11162,9.0,,,,,,,42.0,,,,,,0,note_on,,85.0,42.0,85.0,151843,79.08489583333333
11163,9.0,,,,,,,70.0,,,,,,0,note_on,,40.0,70.0,40.0,151843,79.08489583333333
11164,12.0,,,,,,,67.0,,,,,,0,note_on,,127.0,67.0,127.0,29409,15.3171875
11165,12.0,,,,,,,63.0,,,,,,0,note_on,,127.0,63.0,127.0,29409,15.3171875
11166,12.0,,,,,,,70.0,,,,,,0,note_on,,126.0,70.0,126.0,29409,15.3171875
11167,12.0,,0.0,,,,,,,,,,,0,control_change,121.0,,,,29409,15.3171875
11168,12.0,,32.0,,,,,,,,,,,0,control_change,0.0,,,,29409,15.3171875
11169,12.0,,,,,,,,,,24.0,,,0,program_change,,,,,29409,15.3171875
11170,,,,,,,,,,,,,"by, ",0,lyrics,,,,,4644456072,2418987.5375
11171,12.0,,,,,,,63.0,,,,,,15,note_on,,0.0,63.0,0.0,29424,15.325
11172,9.0,,,,,,,28.0,,,,,,102,note_on,,0.0,28.0,0.0,151945,79.13802083333333
11173,9.0,,,,,,,39.0,,,,,,34,note_on,,0.0,39.0,0.0,151979,79.15572916666666
11174,9.0,,,,,,,70.0,,,,,,73,note_on,,0.0,70.0,0.0,152052,79.19375
11175,9.0,,,,,,,42.0,,,,,,0,note_on,,0.0,42.0,0.0,152052,79.19375
11176,8.0,,,,,,,87.0,,,,,,16,note_on,,45.0,87.0,45.0,21566,11.232291666666667
11177,9.0,,,,,,,44.0,,,,,,0,note_on,,75.0,44.0,75.0,152052,79.19375
11178,8.0,,,,,,,87.0,,,,,,114,note_on,,0.0,87.0,0.0,21680,11.291666666666666
11179,12.0,,,,,,,63.0,,,,,,43,note_on,,0.0,63.0,0.0,29467,15.347395833333334
11180,12.0,,,,,,,67.0,,,,,,10,note_on,,0.0,67.0,0.0,29477,15.352604166666666
11181,12.0,,,,,,,70.0,,,,,,52,note_on,,0.0,70.0,0.0,29529,15.3796875
11182,9.0,,,,,,,44.0,,,,,,21,note_on,,0.0,44.0,0.0,152073,79.2046875
11183,9.0,,,,,,,42.0,,,,,,0,note_on,,85.0,42.0,85.0,152073,79.2046875
11184,9.0,,,,,,,70.0,,,,,,0,note_on,,40.0,70.0,40.0,152073,79.2046875
11185,9.0,,,,,,,36.0,,,,,,0,note_on,,126.0,36.0,126.0,152073,79.2046875
11186,9.0,,,,,,,35.0,,,,,,0,note_on,,60.0,35.0,60.0,152073,79.2046875
11187,7.0,,,,,,,75.0,,,,,,9,note_on,,0.0,75.0,0.0,3998,2.0822916666666664
11188,8.0,,,,,,,63.0,,,,,,0,note_on,,0.0,63.0,0.0,21680,11.291666666666666
11189,3.0,,,,,,,77.0,,,,,,96,note_on,,0.0,77.0,0.0,56056,29.195833333333333
11190,9.0,,,,,,,36.0,,,,,,61,note_on,,0.0,36.0,0.0,152134,79.23645833333333
11191,9.0,,,,,,,35.0,,,,,,0,note_on,,0.0,35.0,0.0,152134,79.23645833333333
11192,9.0,,,,,,,70.0,,,,,,58,note_on,,0.0,70.0,0.0,152192,79.26666666666667
11193,9.0,,,,,,,42.0,,,,,,16,note_on,,0.0,42.0,0.0,152208,79.275
11194,8.0,,,,,,,87.0,,,,,,0,note_on,,45.0,87.0,45.0,21680,11.291666666666666
11195,9.0,,,,,,,44.0,,,,,,0,note_on,,75.0,44.0,75.0,152208,79.275
11196,8.0,,,,,,,87.0,,,,,,97,note_on,,0.0,87.0,0.0,21777,11.3421875
11197,9.0,,,,,,,44.0,,,,,,143,note_on,,0.0,44.0,0.0,152351,79.34947916666667
11198,3.0,,,,,,,79.0,,,,,,0,note_on,,127.0,79.0,127.0,56056,29.195833333333333
11199,7.0,,,,,,,77.0,,,,,,0,note_on,,127.0,77.0,127.0,3998,2.0822916666666664
11200,8.0,,,,,,,65.0,,,,,,0,note_on,,127.0,65.0,127.0,21777,11.3421875
11201,9.0,,,,,,,42.0,,,,,,0,note_on,,85.0,42.0,85.0,152351,79.34947916666667
11202,9.0,,,,,,,70.0,,,,,,0,note_on,,40.0,70.0,40.0,152351,79.34947916666667
11203,,,,,,,,,,,,,ba ,0,lyrics,,,,,0,0.0
11204,9.0,,,,,,,70.0,,,,,,224,note_on,,0.0,70.0,0.0,152575,79.46614583333333
11205,9.0,,,,,,,42.0,,,,,,0,note_on,,0.0,42.0,0.0,152575,79.46614583333333
11206,8.0,,,,,,,87.0,,,,,,16,note_on,,45.0,87.0,45.0,21793,11.350520833333333
11207,9.0,,,,,,,44.0,,,,,,0,note_on,,75.0,44.0,75.0,152575,79.46614583333333
11208,8.0,,,,,,,87.0,,,,,,88,note_on,,0.0,87.0,0.0,21881,11.396354166666667
11209,9.0,,,,,,,44.0,,,,,,152,note_on,,0.0,44.0,0.0,152727,79.5453125
11210,9.0,,,,,,,42.0,,,,,,0,note_on,,85.0,42.0,85.0,152727,79.5453125
11211,9.0,,,,,,,70.0,,,,,,0,note_on,,40.0,70.0,40.0,152727,79.5453125
11212,9.0,,,,,,,36.0,,,,,,0,note_on,,126.0,36.0,126.0,152727,79.5453125
11213,9.0,,,,,,,35.0,,,,,,0,note_on,,60.0,35.0,60.0,152727,79.5453125
11214,8.0,,,,,,,65.0,,,,,,45,note_on,,0.0,65.0,0.0,21926,11.419791666666667
11215,7.0,,,,,,,77.0,,,,,,0,note_on,,0.0,77.0,0.0,3998,2.0822916666666664
11216,9.0,,,,,,,35.0,,,,,,109,note_on,,0.0,35.0,0.0,152836,79.60208333333333
11217,9.0,,,,,,,36.0,,,,,,0,note_on,,0.0,36.0,0.0,152836,79.60208333333333
11218,3.0,,,,,,,79.0,,,,,,42,note_on,,0.0,79.0,0.0,56098,29.217708333333334
11219,9.0,,,,,,,70.0,,,,,,28,note_on,,0.0,70.0,0.0,152864,79.61666666666666
11220,9.0,,,,,,,42.0,,,,,,16,note_on,,0.0,42.0,0.0,152880,79.625
11221,9.0,,,,,,,44.0,,,,,,0,note_on,,75.0,44.0,75.0,152880,79.625
11222,9.0,,,,,,,44.0,,,,,,240,note_on,,0.0,44.0,0.0,153120,79.75
11223,3.0,,,,,,,77.0,,,,,,0,note_on,,127.0,77.0,127.0,56098,29.217708333333334
11224,7.0,,,,,,,70.0,,,,,,0,note_on,,127.0,70.0,127.0,3998,2.0822916666666664
11225,8.0,,,,,,,87.0,,,,,,0,note_on,,45.0,87.0,45.0,21926,11.419791666666667
11226,8.0,,,,,,,58.0,,,,,,0,note_on,,127.0,58.0,127.0,21926,11.419791666666667
11227,9.0,,,,,,,42.0,,,,,,0,note_on,,85.0,42.0,85.0,153120,79.75
11228,9.0,,,,,,,70.0,,,,,,0,note_on,,40.0,70.0,40.0,153120,79.75
11229,9.0,,,,,,,39.0,,,,,,0,note_on,,127.0,39.0,127.0,153120,79.75
11230,9.0,,,,,,,28.0,,,,,,0,note_on,,127.0,28.0,127.0,153120,79.75
11231,11.0,,,,,,,67.0,,,,,,0,note_on,,127.0,67.0,127.0,33347,17.368229166666666
11232,11.0,,,,,,,72.0,,,,,,0,note_on,,127.0,72.0,127.0,33347,17.368229166666666
11233,11.0,,,,,,,63.0,,,,,,0,note_on,,127.0,63.0,127.0,33347,17.368229166666666
11234,,,,,,,,,,,,,"by, ",0,lyrics,,,,,4664166320,2429253.2916666665
11235,8.0,,,,,,,87.0,,,,,,103,note_on,,0.0,87.0,0.0,22029,11.4734375
11236,9.0,,,,,,,39.0,,,,,,20,note_on,,0.0,39.0,0.0,153140,79.76041666666667
11237,9.0,,,,,,,28.0,,,,,,2,note_on,,0.0,28.0,0.0,153142,79.76145833333334
11238,9.0,,,,,,,42.0,,,,,,99,note_on,,0.0,42.0,0.0,153241,79.81302083333333
11239,9.0,,,,,,,70.0,,,,,,0,note_on,,0.0,70.0,0.0,153241,79.81302083333333
11240,3.0,,,,,,,77.0,,,,,,7,note_on,,0.0,77.0,0.0,56105,29.221354166666668
11241,9.0,,,,,,,44.0,,,,,,9,note_on,,75.0,44.0,75.0,153250,79.81770833333333
11242,11.0,,,,,,,63.0,,,,,,125,note_on,,0.0,63.0,0.0,33472,17.433333333333334
11243,11.0,,,,,,,72.0,,,,,,15,note_on,,0.0,72.0,0.0,33487,17.441145833333334
11244,11.0,,,,,,,67.0,,,,,,8,note_on,,0.0,67.0,0.0,33495,17.4453125
11245,9.0,,,,,,,44.0,,,,,,92,note_on,,0.0,44.0,0.0,153342,79.865625
11246,3.0,,,,,,,79.0,,,,,,0,note_on,,127.0,79.0,127.0,56105,29.221354166666668
11247,8.0,,,,,,,87.0,,,,,,0,note_on,,45.0,87.0,45.0,22029,11.4734375
11248,9.0,,,,,,,42.0,,,,,,0,note_on,,85.0,42.0,85.0,153342,79.865625
11249,9.0,,,,,,,70.0,,,,,,0,note_on,,40.0,70.0,40.0,153342,79.865625
11250,10.0,,,,,,,67.0,,,,,,0,note_on,,127.0,67.0,127.0,20149,10.494270833333333
11251,10.0,,,,,,,72.0,,,,,,0,note_on,,127.0,72.0,127.0,20149,10.494270833333333
11252,10.0,,,,,,,63.0,,,,,,0,note_on,,127.0,63.0,127.0,20149,10.494270833333333
11253,11.0,,,,,,,67.0,,,,,,0,note_on,,127.0,67.0,127.0,33495,17.4453125
11254,11.0,,,,,,,70.0,,,,,,0,note_on,,118.0,70.0,118.0,33495,17.4453125
11255,11.0,,,,,,,63.0,,,,,,0,note_on,,127.0,63.0,127.0,33495,17.4453125
11256,,,,,,,,,,,,,ba ,0,lyrics,,,,,0,0.0
11257,8.0,,,,,,,87.0,,,,,,113,note_on,,0.0,87.0,0.0,22142,11.532291666666666
11258,7.0,,,,,,,70.0,,,,,,17,note_on,,0.0,70.0,0.0,4015,2.0911458333333335
11259,8.0,,,,,,,58.0,,,,,,0,note_on,,0.0,58.0,0.0,22142,11.532291666666666
11260,9.0,,,,,,,70.0,,,,,,94,note_on,,0.0,70.0,0.0,153436,79.91458333333333
11261,9.0,,,,,,,42.0,,,,,,16,note_on,,0.0,42.0,0.0,153452,79.92291666666667
11262,9.0,,,,,,,44.0,,,,,,0,note_on,,75.0,44.0,75.0,153452,79.92291666666667
11263,10.0,,,,,,,63.0,,,,,,125,note_on,,0.0,63.0,0.0,20274,10.559375
11264,10.0,,,,,,,72.0,,,,,,15,note_on,,0.0,72.0,0.0,20289,10.5671875
11265,10.0,,,,,,,67.0,,,,,,8,note_on,,0.0,67.0,0.0,20297,10.571354166666666
11266,11.0,,,,,,,70.0,,,,,,38,note_on,,0.0,70.0,0.0,33533,17.465104166666666
11267,11.0,,,,,,,63.0,,,,,,0,note_on,,0.0,63.0,0.0,33533,17.465104166666666
11268,11.0,,,,,,,67.0,,,,,,3,note_on,,0.0,67.0,0.0,33536,17.466666666666665
11269,9.0,,,,,,,44.0,,,,,,51,note_on,,0.0,44.0,0.0,153503,79.94947916666666
11270,7.0,,,,,,,82.0,,,,,,0,note_on,,127.0,82.0,127.0,4015,2.0911458333333335
11271,8.0,,,,,,,70.0,,,,,,0,note_on,,127.0,70.0,127.0,22142,11.532291666666666
11272,9.0,,,,,,,42.0,,,,,,0,note_on,,85.0,42.0,85.0,153503,79.94947916666666
11273,9.0,,,,,,,70.0,,,,,,0,note_on,,40.0,70.0,40.0,153503,79.94947916666666
11274,9.0,,,,,,,36.0,,,,,,0,note_on,,126.0,36.0,126.0,153503,79.94947916666666
11275,9.0,,,,,,,35.0,,,,,,0,note_on,,60.0,35.0,60.0,153503,79.94947916666666
11276,10.0,,,,,,,67.0,,,,,,0,note_on,,127.0,67.0,127.0,20297,10.571354166666666
11277,10.0,,,,,,,70.0,,,,,,0,note_on,,118.0,70.0,118.0,20297,10.571354166666666
11278,10.0,,,,,,,63.0,,,,,,0,note_on,,127.0,63.0,127.0,20297,10.571354166666666
11279,12.0,,,,,,,67.0,,,,,,0,note_on,,127.0,67.0,127.0,29529,15.3796875
11280,12.0,,,,,,,72.0,,,,,,0,note_on,,127.0,72.0,127.0,29529,15.3796875
11281,12.0,,,,,,,63.0,,,,,,0,note_on,,127.0,63.0,127.0,29529,15.3796875
11282,9.0,,,,,,,35.0,,,,,,172,note_on,,0.0,35.0,0.0,153675,80.0390625
11283,9.0,,,,,,,36.0,,,,,,0,note_on,,0.0,36.0,0.0,153675,80.0390625
11284,3.0,,,,,,,79.0,,,,,,43,note_on,,0.0,79.0,0.0,56148,29.24375
11285,9.0,,,,,,,42.0,,,,,,9,note_on,,0.0,42.0,0.0,153684,80.04375
11286,9.0,,,,,,,70.0,,,,,,0,note_on,,0.0,70.0,0.0,153684,80.04375
11287,9.0,,,,,,,44.0,,,,,,16,note_on,,75.0,44.0,75.0,153700,80.05208333333333
11288,12.0,,,,,,,63.0,,,,,,125,note_on,,0.0,63.0,0.0,29654,15.444791666666667
11289,12.0,,,,,,,72.0,,,,,,15,note_on,,0.0,72.0,0.0,29669,15.452604166666667
11290,12.0,,,,,,,67.0,,,,,,8,note_on,,0.0,67.0,0.0,29677,15.456770833333334
11291,10.0,,,,,,,63.0,,,,,,38,note_on,,0.0,63.0,0.0,20335,10.591145833333334
11292,10.0,,,,,,,70.0,,,,,,0,note_on,,0.0,70.0,0.0,20335,10.591145833333334
11293,10.0,,,,,,,67.0,,,,,,3,note_on,,0.0,67.0,0.0,20338,10.592708333333333
11294,9.0,,,,,,,44.0,,,,,,51,note_on,,0.0,44.0,0.0,153751,80.07864583333333
11295,3.0,,,,,,,77.0,,,,,,0,note_on,,127.0,77.0,127.0,56148,29.24375
11296,8.0,,,,,,,87.0,,,,,,0,note_on,,45.0,87.0,45.0,22142,11.532291666666666
11297,9.0,,,,,,,42.0,,,,,,0,note_on,,85.0,42.0,85.0,153751,80.07864583333333
11298,9.0,,,,,,,70.0,,,,,,0,note_on,,40.0,70.0,40.0,153751,80.07864583333333
11299,12.0,,,,,,,67.0,,,,,,0,note_on,,127.0,67.0,127.0,29677,15.456770833333334
11300,12.0,,,,,,,70.0,,,,,,0,note_on,,118.0,70.0,118.0,29677,15.456770833333334
11301,12.0,,,,,,,63.0,,,,,,0,note_on,,127.0,63.0,127.0,29677,15.456770833333334
11302,,,,,,,,,,,,,by ,0,lyrics,,,,,0,0.0
11303,7.0,,,,,,,82.0,,,,,,41,note_on,,0.0,82.0,0.0,4056,2.1125
11304,8.0,,,,,,,70.0,,,,,,0,note_on,,0.0,70.0,0.0,22142,11.532291666666666
11305,8.0,,,,,,,87.0,,,,,,63,note_on,,0.0,87.0,0.0,22205,11.565104166666666
11306,9.0,,,,,,,70.0,,,,,,120,note_on,,0.0,70.0,0.0,153871,80.14114583333333
11307,9.0,,,,,,,42.0,,,,,,16,note_on,,0.0,42.0,0.0,153887,80.14947916666667
11308,8.0,,,,,,,87.0,,,,,,0,note_on,,45.0,87.0,45.0,22205,11.565104166666666
11309,9.0,,,,,,,44.0,,,,,,0,note_on,,75.0,44.0,75.0,153887,80.14947916666667
11310,9.0,,,,,,,36.0,,,,,,0,note_on,,126.0,36.0,126.0,153887,80.14947916666667
11311,9.0,,,,,,,35.0,,,,,,0,note_on,,60.0,35.0,60.0,153887,80.14947916666667
11312,8.0,,,,,,,87.0,,,,,,123,note_on,,0.0,87.0,0.0,22328,11.629166666666666
11313,12.0,,,,,,,70.0,,,,,,63,note_on,,0.0,70.0,0.0,29740,15.489583333333334
11314,12.0,,,,,,,63.0,,,,,,0,note_on,,0.0,63.0,0.0,29740,15.489583333333334
11315,12.0,,,,,,,67.0,,,,,,3,note_on,,0.0,67.0,0.0,29743,15.491145833333333
11316,9.0,,,,,,,35.0,,,,,,35,note_on,,0.0,35.0,0.0,153922,80.16770833333334
11317,9.0,,,,,,,36.0,,,,,,0,note_on,,0.0,36.0,0.0,153922,80.16770833333334
11318,9.0,,,,,,,44.0,,,,,,16,note_on,,0.0,44.0,0.0,153938,80.17604166666666
11319,7.0,,,,,,,75.0,,,,,,0,note_on,,127.0,75.0,127.0,4056,2.1125
11320,8.0,,,,,,,63.0,,,,,,0,note_on,,127.0,63.0,127.0,22328,11.629166666666666
11321,9.0,,,,,,,42.0,,,,,,0,note_on,,85.0,42.0,85.0,153938,80.17604166666666
11322,9.0,,,,,,,70.0,,,,,,0,note_on,,40.0,70.0,40.0,153938,80.17604166666666
11323,9.0,,,,,,,39.0,,,,,,0,note_on,,125.0,39.0,125.0,153938,80.17604166666666
11324,9.0,,,,,,,28.0,,,,,,0,note_on,,127.0,28.0,127.0,153938,80.17604166666666
11325,9.0,,,,,,,28.0,,,,,,117,note_on,,0.0,28.0,0.0,154055,80.23697916666667
11326,9.0,,,,,,,39.0,,,,,,34,note_on,,0.0,39.0,0.0,154089,80.2546875
11327,9.0,,,,,,,42.0,,,,,,73,note_on,,0.0,42.0,0.0,154162,80.29270833333334
11328,9.0,,,,,,,70.0,,,,,,0,note_on,,0.0,70.0,0.0,154162,80.29270833333334
11329,3.0,,,,,,,82.0,,,,,,16,note_on,,127.0,82.0,127.0,56164,29.25208333333333
11330,8.0,,,,,,,87.0,,,,,,0,note_on,,45.0,87.0,45.0,22328,11.629166666666666
11331,9.0,,,,,,,44.0,,,,,,0,note_on,,75.0,44.0,75.0,154162,80.29270833333334
11332,,,,,,,,,,,,,ohhh ,0,lyrics,,,,,0,0.0
11333,,,,,,,,,,,,,,0,lyrics,,,,,4663589424,2428952.825
11334,3.0,,,,,,,77.0,,,,,,41,note_on,,0.0,77.0,0.0,56205,29.2734375
11335,8.0,,,,,,,87.0,,,,,,85,note_on,,0.0,87.0,0.0,22413,11.6734375
11336,9.0,,,,,,,44.0,,,,,,114,note_on,,0.0,44.0,0.0,154276,80.35208333333333
11337,9.0,,,,,,,42.0,,,,,,0,note_on,,85.0,42.0,85.0,154276,80.35208333333333
11338,9.0,,,,,,,70.0,,,,,,0,note_on,,40.0,70.0,40.0,154276,80.35208333333333
11339,9.0,,,,,,,36.0,,,,,,0,note_on,,126.0,36.0,126.0,154276,80.35208333333333
11340,9.0,,,,,,,35.0,,,,,,0,note_on,,60.0,35.0,60.0,154276,80.35208333333333
11341,8.0,,,,,,,63.0,,,,,,62,note_on,,0.0,63.0,0.0,22475,11.705729166666666
11342,7.0,,,,,,,75.0,,,,,,0,note_on,,0.0,75.0,0.0,4056,2.1125
11343,9.0,,,,,,,35.0,,,,,,104,note_on,,0.0,35.0,0.0,154380,80.40625
11344,9.0,,,,,,,36.0,,,,,,0,note_on,,0.0,36.0,0.0,154380,80.40625
11345,9.0,,,,,,,70.0,,,,,,58,note_on,,0.0,70.0,0.0,154438,80.43645833333333
11346,9.0,,,,,,,42.0,,,,,,16,note_on,,0.0,42.0,0.0,154454,80.44479166666666
11347,9.0,,,,,,,44.0,,,,,,0,note_on,,75.0,44.0,75.0,154454,80.44479166666666
11348,9.0,,,,,,,44.0,,,,,,240,note_on,,0.0,44.0,0.0,154694,80.56979166666666
11349,7.0,,,,,,,77.0,,,,,,0,note_on,,127.0,77.0,127.0,4056,2.1125
11350,8.0,,,,,,,87.0,,,,,,0,note_on,,45.0,87.0,45.0,22475,11.705729166666666
11351,8.0,,,,,,,65.0,,,,,,0,note_on,,127.0,65.0,127.0,22475,11.705729166666666
11352,9.0,,,,,,,42.0,,,,,,0,note_on,,85.0,42.0,85.0,154694,80.56979166666666
11353,9.0,,,,,,,70.0,,,,,,0,note_on,,40.0,70.0,40.0,154694,80.56979166666666
11354,8.0,,,,,,,87.0,,,,,,121,note_on,,0.0,87.0,0.0,22596,11.76875
11355,9.0,,,,,,,70.0,,,,,,103,note_on,,0.0,70.0,0.0,154797,80.6234375
11356,9.0,,,,,,,44.0,,,,,,16,note_on,,75.0,44.0,75.0,154813,80.63177083333333
11357,9.0,,,,,,,44.0,,,,,,240,note_on,,0.0,44.0,0.0,155053,80.75677083333333
11358,8.0,,,,,,,87.0,,,,,,0,note_on,,45.0,87.0,45.0,22596,11.76875
11359,9.0,,,,,,,42.0,,,,,,0,note_on,,85.0,42.0,85.0,155053,80.75677083333333
11360,9.0,,,,,,,70.0,,,,,,0,note_on,,40.0,70.0,40.0,155053,80.75677083333333
11361,9.0,,,,,,,36.0,,,,,,0,note_on,,126.0,36.0,126.0,155053,80.75677083333333
11362,9.0,,,,,,,35.0,,,,,,0,note_on,,60.0,35.0,60.0,155053,80.75677083333333
11363,3.0,,,,,,,82.0,,,,,,6,note_on,,0.0,82.0,0.0,56211,29.2765625
11364,7.0,,,,,,,77.0,,,,,,50,note_on,,0.0,77.0,0.0,4106,2.138541666666667
11365,8.0,,,,,,,65.0,,,,,,0,note_on,,0.0,65.0,0.0,22596,11.76875
11366,8.0,,,,,,,87.0,,,,,,71,note_on,,0.0,87.0,0.0,22667,11.805729166666666
11367,9.0,,,,,,,35.0,,,,,,27,note_on,,0.0,35.0,0.0,155080,80.77083333333333
11368,9.0,,,,,,,36.0,,,,,,0,note_on,,0.0,36.0,0.0,155080,80.77083333333333
11369,9.0,,,,,,,70.0,,,,,,70,note_on,,0.0,70.0,0.0,155150,80.80729166666667
11370,9.0,,,,,,,42.0,,,,,,16,note_on,,0.0,42.0,0.0,155166,80.815625
11371,9.0,,,,,,,44.0,,,,,,0,note_on,,75.0,44.0,75.0,155166,80.815625
11372,9.0,,,,,,,44.0,,,,,,240,note_on,,0.0,44.0,0.0,155406,80.940625
11373,3.0,,,,,,,75.0,,,,,,0,note_on,,127.0,75.0,127.0,56211,29.2765625
11374,7.0,,,,,,,75.0,,,,,,0,note_on,,127.0,75.0,127.0,4106,2.138541666666667
11375,8.0,,,,,,,87.0,,,,,,0,note_on,,45.0,87.0,45.0,22667,11.805729166666666
11376,8.0,,,,,,,63.0,,,,,,0,note_on,,127.0,63.0,127.0,22667,11.805729166666666
11377,9.0,,,,,,,42.0,,,,,,0,note_on,,85.0,42.0,85.0,155406,80.940625
11378,9.0,,,,,,,70.0,,,,,,0,note_on,,40.0,70.0,40.0,155406,80.940625
11379,9.0,,,,,,,39.0,,,,,,0,note_on,,127.0,39.0,127.0,155406,80.940625
11380,9.0,,,,,,,28.0,,,,,,0,note_on,,127.0,28.0,127.0,155406,80.940625
11381,,,,,,,,,,,,,Like ,0,lyrics,,,,,4413205120,2298544.3333333335
11382,9.0,,,,,,,39.0,,,,,,123,note_on,,0.0,39.0,0.0,155529,81.0046875
11383,8.0,,,,,,,87.0,,,,,,0,note_on,,0.0,87.0,0.0,22667,11.805729166666666
11384,9.0,,,,,,,28.0,,,,,,2,note_on,,0.0,28.0,0.0,155531,81.00572916666667
11385,9.0,,,,,,,70.0,,,,,,99,note_on,,0.0,70.0,0.0,155630,81.05729166666667
11386,9.0,,,,,,,42.0,,,,,,0,note_on,,0.0,42.0,0.0,155630,81.05729166666667
11387,9.0,,,,,,,42.0,,,,,,16,note_on,,0.0,42.0,0.0,155646,81.065625
11388,9.0,,,,,,,44.0,,,,,,0,note_on,,75.0,44.0,75.0,155646,81.065625
11389,9.0,,,,,,,44.0,,,,,,240,note_on,,0.0,44.0,0.0,155886,81.190625
11390,8.0,,,,,,,87.0,,,,,,0,note_on,,45.0,87.0,45.0,22667,11.805729166666666
11391,9.0,,,,,,,42.0,,,,,,0,note_on,,85.0,42.0,85.0,155886,81.190625
11392,9.0,,,,,,,61.0,,,,,,0,note_on,,100.0,61.0,100.0,155886,81.190625
11393,9.0,,,,,,,70.0,,,,,,0,note_on,,40.0,70.0,40.0,155886,81.190625
11394,7.0,,,,,,,75.0,,,,,,84,note_on,,0.0,75.0,0.0,4190,2.1822916666666665
11395,8.0,,,,,,,63.0,,,,,,0,note_on,,0.0,63.0,0.0,22667,11.805729166666666
11396,8.0,,,,,,,87.0,,,,,,28,note_on,,0.0,87.0,0.0,22695,11.8203125
11397,9.0,,,,,,,61.0,,,,,,2,note_on,,0.0,61.0,0.0,155888,81.19166666666666
11398,9.0,,,,,,,61.0,,,,,,6,note_on,,100.0,61.0,100.0,155894,81.19479166666666
11399,3.0,,,,,,,75.0,,,,,,23,note_on,,0.0,75.0,0.0,56234,29.288541666666667
11400,5.0,,,,,,,55.0,,,,,,14,note_on,,0.0,55.0,0.0,2156,1.1229166666666666
11401,5.0,,,,,,,63.0,,,,,,18,note_on,,0.0,63.0,0.0,2174,1.1322916666666667
11402,5.0,,,,,,,58.0,,,,,,15,note_on,,0.0,58.0,0.0,2189,1.1401041666666667
11403,9.0,,,,,,,70.0,,,,,,34,note_on,,0.0,70.0,0.0,155928,81.2125
11404,9.0,,,,,,,61.0,,,,,,10,note_on,,0.0,61.0,0.0,155938,81.21770833333333
11405,9.0,,,,,,,42.0,,,,,,6,note_on,,0.0,42.0,0.0,155944,81.22083333333333
11406,9.0,,,,,,,44.0,,,,,,0,note_on,,75.0,44.0,75.0,155944,81.22083333333333
11407,9.0,,,,,,,61.0,,,,,,0,note_on,,100.0,61.0,100.0,155944,81.22083333333333
11408,9.0,,,,,,,61.0,,,,,,114,note_on,,0.0,61.0,0.0,156058,81.28020833333333
11409,9.0,,,,,,,61.0,,,,,,6,note_on,,100.0,61.0,100.0,156064,81.28333333333333
11410,5.0,,,,,,,63.0,,,,,,25,note_on,,116.0,63.0,116.0,2214,1.153125
11411,5.0,,,,,,,60.0,,,,,,15,note_on,,120.0,60.0,120.0,2229,1.1609375
11412,5.0,,,,,,,55.0,,,,,,0,note_on,,108.0,55.0,108.0,2229,1.1609375
11413,8.0,,,,,,,39.0,,,,,,3,note_on,,0.0,39.0,0.0,22698,11.821875
11414,1.0,,,,,,,27.0,,,,,,24,note_on,,0.0,27.0,0.0,6556,3.4145833333333333
11415,9.0,,,,,,,61.0,,,,,,47,note_on,,0.0,61.0,0.0,156111,81.3078125
11416,9.0,,,,,,,44.0,,,,,,6,note_on,,0.0,44.0,0.0,156117,81.3109375
11417,1.0,,,,,,,36.0,,,,,,0,note_on,,127.0,36.0,127.0,6556,3.4145833333333333
11418,3.0,,,,,,,79.0,,,,,,0,note_on,,127.0,79.0,127.0,56234,29.288541666666667
11419,7.0,,,,,,,82.0,,,,,,0,note_on,,127.0,82.0,127.0,4190,2.1822916666666665
11420,8.0,,,,,,,48.0,,,,,,0,note_on,,126.0,48.0,126.0,22698,11.821875
11421,8.0,,,,,,,70.0,,,,,,0,note_on,,127.0,70.0,127.0,22698,11.821875
11422,9.0,,,,,,,61.0,,,,,,0,note_on,,100.0,61.0,100.0,156117,81.3109375
11423,9.0,,,,,,,42.0,,,,,,0,note_on,,85.0,42.0,85.0,156117,81.3109375
11424,9.0,,,,,,,70.0,,,,,,0,note_on,,40.0,70.0,40.0,156117,81.3109375
11425,9.0,,,,,,,36.0,,,,,,0,note_on,,126.0,36.0,126.0,156117,81.3109375
11426,9.0,,,,,,,35.0,,,,,,0,note_on,,60.0,35.0,60.0,156117,81.3109375
11427,11.0,,,,,,,63.0,,,,,,0,note_on,,127.0,63.0,127.0,33536,17.466666666666665
11428,11.0,,,,,,,60.0,,,,,,0,note_on,,127.0,60.0,127.0,33536,17.466666666666665
11429,11.0,,,,,,,67.0,,,,,,0,note_on,,127.0,67.0,127.0,33536,17.466666666666665
11430,,,,,,,,,,,,,ba ,0,lyrics,,,,,4413205120,2298544.3333333335
11431,9.0,,,,,,,61.0,,,,,,114,note_on,,0.0,61.0,0.0,156231,81.3703125
11432,9.0,,,,,,,35.0,,,,,,58,note_on,,0.0,35.0,0.0,156289,81.40052083333333
11433,9.0,,,,,,,36.0,,,,,,0,note_on,,0.0,36.0,0.0,156289,81.40052083333333
11434,9.0,,,,,,,70.0,,,,,,52,note_on,,0.0,70.0,0.0,156341,81.42760416666667
11435,9.0,,,,,,,42.0,,,,,,0,note_on,,0.0,42.0,0.0,156341,81.42760416666667
11436,8.0,,,,,,,87.0,,,,,,16,note_on,,45.0,87.0,45.0,22714,11.830208333333333
11437,9.0,,,,,,,44.0,,,,,,0,note_on,,75.0,44.0,75.0,156341,81.42760416666667
11438,8.0,,,,,,,87.0,,,,,,106,note_on,,0.0,87.0,0.0,22820,11.885416666666666
11439,11.0,,,,,,,60.0,,,,,,58,note_on,,0.0,60.0,0.0,33594,17.496875
11440,11.0,,,,,,,63.0,,,,,,32,note_on,,0.0,63.0,0.0,33626,17.513541666666665
11441,11.0,,,,,,,67.0,,,,,,6,note_on,,0.0,67.0,0.0,33632,17.516666666666666
11442,9.0,,,,,,,44.0,,,,,,38,note_on,,0.0,44.0,0.0,156379,81.44739583333333
11443,9.0,,,,,,,42.0,,,,,,0,note_on,,85.0,42.0,85.0,156379,81.44739583333333
11444,9.0,,,,,,,70.0,,,,,,0,note_on,,40.0,70.0,40.0,156379,81.44739583333333
11445,10.0,,,,,,,63.0,,,,,,0,note_on,,127.0,63.0,127.0,20338,10.592708333333333
11446,10.0,,,,,,,60.0,,,,,,0,note_on,,127.0,60.0,127.0,20338,10.592708333333333
11447,10.0,,,,,,,67.0,,,,,,0,note_on,,127.0,67.0,127.0,20338,10.592708333333333
11448,8.0,,,,,,,70.0,,,,,,51,note_on,,0.0,70.0,0.0,22871,11.911979166666667
11449,7.0,,,,,,,82.0,,,,,,0,note_on,,0.0,82.0,0.0,4190,2.1822916666666665
11450,3.0,,,,,,,79.0,,,,,,104,note_on,,0.0,79.0,0.0,56338,29.342708333333334
11451,9.0,,,,,,,70.0,,,,,,69,note_on,,0.0,70.0,0.0,156448,81.48333333333333
11452,9.0,,,,,,,42.0,,,,,,16,note_on,,0.0,42.0,0.0,156464,81.49166666666666
11453,9.0,,,,,,,44.0,,,,,,0,note_on,,75.0,44.0,75.0,156464,81.49166666666666
11454,9.0,,,,,,,36.0,,,,,,0,note_on,,126.0,36.0,126.0,156464,81.49166666666666
11455,9.0,,,,,,,35.0,,,,,,0,note_on,,60.0,35.0,60.0,156464,81.49166666666666
11456,10.0,,,,,,,60.0,,,,,,164,note_on,,0.0,60.0,0.0,20502,10.678125
11457,10.0,,,,,,,63.0,,,,,,32,note_on,,0.0,63.0,0.0,20534,10.694791666666667
11458,10.0,,,,,,,67.0,,,,,,6,note_on,,0.0,67.0,0.0,20540,10.697916666666666
11459,9.0,,,,,,,36.0,,,,,,22,note_on,,0.0,36.0,0.0,156486,81.503125
11460,9.0,,,,,,,35.0,,,,,,0,note_on,,0.0,35.0,0.0,156486,81.503125
11461,9.0,,,,,,,44.0,,,,,,16,note_on,,0.0,44.0,0.0,156502,81.51145833333334
11462,3.0,,,,,,,77.0,,,,,,0,note_on,,127.0,77.0,127.0,56338,29.342708333333334
11463,7.0,,,,,,,75.0,,,,,,0,note_on,,127.0,75.0,127.0,4190,2.1822916666666665
11464,7.0,,,,,,,78.0,,,,,,0,note_on,,72.0,78.0,72.0,4190,2.1822916666666665
11465,8.0,,,,,,,87.0,,,,,,0,note_on,,45.0,87.0,45.0,22871,11.911979166666667
11466,8.0,,,,,,,63.0,,,,,,0,note_on,,127.0,63.0,127.0,22871,11.911979166666667
11467,8.0,,,,,,,66.0,,,,,,0,note_on,,72.0,66.0,72.0,22871,11.911979166666667
11468,9.0,,,,,,,42.0,,,,,,0,note_on,,85.0,42.0,85.0,156502,81.51145833333334
11469,9.0,,,,,,,70.0,,,,,,0,note_on,,40.0,70.0,40.0,156502,81.51145833333334
11470,9.0,,,,,,,39.0,,,,,,0,note_on,,125.0,39.0,125.0,156502,81.51145833333334
11471,9.0,,,,,,,28.0,,,,,,0,note_on,,127.0,28.0,127.0,156502,81.51145833333334
11472,12.0,,,,,,,63.0,,,,,,0,note_on,,127.0,63.0,127.0,29743,15.491145833333333
11473,12.0,,,,,,,60.0,,,,,,0,note_on,,127.0,60.0,127.0,29743,15.491145833333333
11474,12.0,,,,,,,67.0,,,,,,0,note_on,,127.0,67.0,127.0,29743,15.491145833333333
11475,,,,,,,,,,,,,"by, ",0,lyrics,,,,,4413205120,2298544.3333333335
11476,8.0,,,,,,,66.0,,,,,,48,note_on,,0.0,66.0,0.0,22919,11.936979166666667
11477,7.0,,,,,,,78.0,,,,,,0,note_on,,0.0,78.0,0.0,4190,2.1822916666666665
11478,9.0,,,,,,,28.0,,,,,,69,note_on,,0.0,28.0,0.0,156571,81.54739583333333
11479,8.0,,,,,,,87.0,,,,,,10,note_on,,0.0,87.0,0.0,22929,11.9421875
11480,9.0,,,,,,,39.0,,,,,,24,note_on,,0.0,39.0,0.0,156595,81.55989583333333
11481,9.0,,,,,,,42.0,,,,,,73,note_on,,0.0,42.0,0.0,156668,81.59791666666666
11482,9.0,,,,,,,70.0,,,,,,0,note_on,,0.0,70.0,0.0,156668,81.59791666666666
11483,9.0,,,,,,,44.0,,,,,,16,note_on,,75.0,44.0,75.0,156684,81.60625
11484,12.0,,,,,,,60.0,,,,,,164,note_on,,0.0,60.0,0.0,29907,15.5765625
11485,12.0,,,,,,,63.0,,,,,,32,note_on,,0.0,63.0,0.0,29939,15.593229166666667
11486,12.0,,,,,,,67.0,,,,,,6,note_on,,0.0,67.0,0.0,29945,15.596354166666666
11487,9.0,,,,,,,44.0,,,,,,38,note_on,,0.0,44.0,0.0,156722,81.62604166666667
11488,8.0,,,,,,,87.0,,,,,,0,note_on,,45.0,87.0,45.0,22929,11.9421875
11489,9.0,,,,,,,42.0,,,,,,0,note_on,,85.0,42.0,85.0,156722,81.62604166666667
11490,9.0,,,,,,,70.0,,,,,,0,note_on,,40.0,70.0,40.0,156722,81.62604166666667
11491,9.0,,,,,,,36.0,,,,,,0,note_on,,126.0,36.0,126.0,156722,81.62604166666667
11492,9.0,,,,,,,35.0,,,,,,0,note_on,,60.0,35.0,60.0,156722,81.62604166666667
11493,7.0,,,,,,,75.0,,,,,,40,note_on,,0.0,75.0,0.0,4230,2.203125
11494,8.0,,,,,,,63.0,,,,,,0,note_on,,0.0,63.0,0.0,22929,11.9421875
11495,8.0,,,,,,,87.0,,,,,,90,note_on,,0.0,87.0,0.0,23019,11.9890625
11496,3.0,,,,,,,77.0,,,,,,2,note_on,,0.0,77.0,0.0,56340,29.34375
11497,9.0,,,,,,,35.0,,,,,,34,note_on,,0.0,35.0,0.0,156756,81.64375
11498,9.0,,,,,,,36.0,,,,,,0,note_on,,0.0,36.0,0.0,156756,81.64375
11499,9.0,,,,,,,70.0,,,,,,58,note_on,,0.0,70.0,0.0,156814,81.67395833333333
11500,9.0,,,,,,,42.0,,,,,,16,note_on,,0.0,42.0,0.0,156830,81.68229166666667
11501,9.0,,,,,,,44.0,,,,,,0,note_on,,75.0,44.0,75.0,156830,81.68229166666667
11502,9.0,,,,,,,44.0,,,,,,240,note_on,,0.0,44.0,0.0,157070,81.80729166666667
11503,3.0,,,,,,,79.0,,,,,,0,note_on,,127.0,79.0,127.0,56340,29.34375
11504,7.0,,,,,,,77.0,,,,,,0,note_on,,127.0,77.0,127.0,4230,2.203125
11505,8.0,,,,,,,65.0,,,,,,0,note_on,,127.0,65.0,127.0,23019,11.9890625
11506,9.0,,,,,,,42.0,,,,,,0,note_on,,85.0,42.0,85.0,157070,81.80729166666667
11507,9.0,,,,,,,70.0,,,,,,0,note_on,,40.0,70.0,40.0,157070,81.80729166666667
11508,,,,,,,,,,,,,ba ,0,lyrics,,,,,0,0.0
11509,9.0,,,,,,,70.0,,,,,,224,note_on,,0.0,70.0,0.0,157294,81.92395833333333
11510,9.0,,,,,,,42.0,,,,,,0,note_on,,0.0,42.0,0.0,157294,81.92395833333333
11511,8.0,,,,,,,87.0,,,,,,16,note_on,,45.0,87.0,45.0,23035,11.997395833333334
11512,9.0,,,,,,,44.0,,,,,,0,note_on,,75.0,44.0,75.0,157294,81.92395833333333
11513,8.0,,,,,,,87.0,,,,,,133,note_on,,0.0,87.0,0.0,23168,12.066666666666666
11514,9.0,,,,,,,44.0,,,,,,107,note_on,,0.0,44.0,0.0,157401,81.9796875
11515,9.0,,,,,,,42.0,,,,,,0,note_on,,85.0,42.0,85.0,157401,81.9796875
11516,9.0,,,,,,,70.0,,,,,,0,note_on,,40.0,70.0,40.0,157401,81.9796875
11517,9.0,,,,,,,36.0,,,,,,0,note_on,,126.0,36.0,126.0,157401,81.9796875
11518,9.0,,,,,,,35.0,,,,,,0,note_on,,60.0,35.0,60.0,157401,81.9796875
11519,8.0,,,,,,,65.0,,,,,,103,note_on,,0.0,65.0,0.0,23271,12.1203125
11520,7.0,,,,,,,77.0,,,,,,0,note_on,,0.0,77.0,0.0,4230,2.203125
11521,9.0,,,,,,,35.0,,,,,,51,note_on,,0.0,35.0,0.0,157452,82.00625
11522,9.0,,,,,,,36.0,,,,,,0,note_on,,0.0,36.0,0.0,157452,82.00625
11523,3.0,,,,,,,79.0,,,,,,52,note_on,,0.0,79.0,0.0,56392,29.370833333333334
11524,9.0,,,,,,,70.0,,,,,,18,note_on,,0.0,70.0,0.0,157470,82.015625
11525,9.0,,,,,,,42.0,,,,,,16,note_on,,0.0,42.0,0.0,157486,82.02395833333333
11526,9.0,,,,,,,44.0,,,,,,0,note_on,,75.0,44.0,75.0,157486,82.02395833333333
11527,9.0,,,,,,,44.0,,,,,,240,note_on,,0.0,44.0,0.0,157726,82.14895833333333
11528,3.0,,,,,,,77.0,,,,,,0,note_on,,127.0,77.0,127.0,56392,29.370833333333334
11529,7.0,,,,,,,70.0,,,,,,0,note_on,,127.0,70.0,127.0,4230,2.203125
11530,8.0,,,,,,,87.0,,,,,,0,note_on,,45.0,87.0,45.0,23271,12.1203125
11531,8.0,,,,,,,58.0,,,,,,0,note_on,,127.0,58.0,127.0,23271,12.1203125
11532,9.0,,,,,,,42.0,,,,,,0,note_on,,85.0,42.0,85.0,157726,82.14895833333333
11533,9.0,,,,,,,70.0,,,,,,0,note_on,,40.0,70.0,40.0,157726,82.14895833333333
11534,9.0,,,,,,,39.0,,,,,,0,note_on,,127.0,39.0,127.0,157726,82.14895833333333
11535,9.0,,,,,,,28.0,,,,,,0,note_on,,127.0,28.0,127.0,157726,82.14895833333333
11536,11.0,,,,,,,68.0,,,,,,0,note_on,,127.0,68.0,127.0,33632,17.516666666666666
11537,11.0,,,,,,,60.0,,,,,,0,note_on,,127.0,60.0,127.0,33632,17.516666666666666
11538,11.0,,,,,,,63.0,,,,,,0,note_on,,127.0,63.0,127.0,33632,17.516666666666666
11539,,,,,,,,,,,,,"by, ",0,lyrics,,,,,4667209984,2430838.533333333
11540,9.0,,,,,,,39.0,,,,,,123,note_on,,0.0,39.0,0.0,157849,82.21302083333333
11541,9.0,,,,,,,28.0,,,,,,2,note_on,,0.0,28.0,0.0,157851,82.2140625
11542,8.0,,,,,,,87.0,,,,,,4,note_on,,0.0,87.0,0.0,23275,12.122395833333334
11543,9.0,,,,,,,42.0,,,,,,95,note_on,,0.0,42.0,0.0,157946,82.26354166666667
11544,9.0,,,,,,,70.0,,,,,,0,note_on,,0.0,70.0,0.0,157946,82.26354166666667
11545,9.0,,,,,,,44.0,,,,,,16,note_on,,75.0,44.0,75.0,157962,82.271875
11546,11.0,,,,,,,68.0,,,,,,145,note_on,,0.0,68.0,0.0,33777,17.5921875
11547,11.0,,,,,,,60.0,,,,,,4,note_on,,0.0,60.0,0.0,33781,17.594270833333333
11548,11.0,,,,,,,63.0,,,,,,19,note_on,,0.0,63.0,0.0,33800,17.604166666666668
11549,9.0,,,,,,,44.0,,,,,,72,note_on,,0.0,44.0,0.0,158034,82.309375
11550,8.0,,,,,,,87.0,,,,,,0,note_on,,45.0,87.0,45.0,23275,12.122395833333334
11551,9.0,,,,,,,42.0,,,,,,0,note_on,,85.0,42.0,85.0,158034,82.309375
11552,9.0,,,,,,,70.0,,,,,,0,note_on,,40.0,70.0,40.0,158034,82.309375
11553,10.0,,,,,,,68.0,,,,,,0,note_on,,127.0,68.0,127.0,20540,10.697916666666666
11554,10.0,,,,,,,60.0,,,,,,0,note_on,,127.0,60.0,127.0,20540,10.697916666666666
11555,10.0,,,,,,,63.0,,,,,,0,note_on,,127.0,63.0,127.0,20540,10.697916666666666
11556,11.0,,,,,,,63.0,,,,,,0,note_on,,127.0,63.0,127.0,33800,17.604166666666668
11557,11.0,,,,,,,60.0,,,,,,0,note_on,,127.0,60.0,127.0,33800,17.604166666666668
11558,11.0,,,,,,,67.0,,,,,,0,note_on,,127.0,67.0,127.0,33800,17.604166666666668
11559,8.0,,,,,,,87.0,,,,,,121,note_on,,0.0,87.0,0.0,23396,12.185416666666667
11560,7.0,,,,,,,70.0,,,,,,5,note_on,,0.0,70.0,0.0,4235,2.2057291666666665
11561,8.0,,,,,,,58.0,,,,,,0,note_on,,0.0,58.0,0.0,23396,12.185416666666667
11562,3.0,,,,,,,77.0,,,,,,9,note_on,,0.0,77.0,0.0,56401,29.375520833333333
11563,9.0,,,,,,,70.0,,,,,,89,note_on,,0.0,70.0,0.0,158123,82.35572916666666
11564,9.0,,,,,,,42.0,,,,,,16,note_on,,0.0,42.0,0.0,158139,82.3640625
11565,9.0,,,,,,,44.0,,,,,,0,note_on,,75.0,44.0,75.0,158139,82.3640625
11566,11.0,,,,,,,60.0,,,,,,131,note_on,,0.0,60.0,0.0,33931,17.672395833333333
11567,11.0,,,,,,,67.0,,,,,,11,note_on,,0.0,67.0,0.0,33942,17.678125
11568,10.0,,,,,,,68.0,,,,,,3,note_on,,0.0,68.0,0.0,20543,10.699479166666666
11569,10.0,,,,,,,60.0,,,,,,4,note_on,,0.0,60.0,0.0,20547,10.7015625
11570,10.0,,,,,,,63.0,,,,,,19,note_on,,0.0,63.0,0.0,20566,10.711458333333333
11571,11.0,,,,,,,63.0,,,,,,18,note_on,,0.0,63.0,0.0,33960,17.6875
11572,9.0,,,,,,,44.0,,,,,,54,note_on,,0.0,44.0,0.0,158193,82.3921875
11573,3.0,,,,,,,79.0,,,,,,0,note_on,,127.0,79.0,127.0,56401,29.375520833333333
11574,7.0,,,,,,,82.0,,,,,,0,note_on,,127.0,82.0,127.0,4235,2.2057291666666665
11575,8.0,,,,,,,70.0,,,,,,0,note_on,,127.0,70.0,127.0,23396,12.185416666666667
11576,9.0,,,,,,,42.0,,,,,,0,note_on,,85.0,42.0,85.0,158193,82.3921875
11577,9.0,,,,,,,70.0,,,,,,0,note_on,,40.0,70.0,40.0,158193,82.3921875
11578,9.0,,,,,,,36.0,,,,,,0,note_on,,126.0,36.0,126.0,158193,82.3921875
11579,9.0,,,,,,,35.0,,,,,,0,note_on,,60.0,35.0,60.0,158193,82.3921875
11580,10.0,,,,,,,63.0,,,,,,0,note_on,,127.0,63.0,127.0,20566,10.711458333333333
11581,10.0,,,,,,,60.0,,,,,,0,note_on,,127.0,60.0,127.0,20566,10.711458333333333
11582,10.0,,,,,,,67.0,,,,,,0,note_on,,127.0,67.0,127.0,20566,10.711458333333333
11583,12.0,,,,,,,68.0,,,,,,0,note_on,,127.0,68.0,127.0,29945,15.596354166666666
11584,12.0,,,,,,,60.0,,,,,,0,note_on,,127.0,60.0,127.0,29945,15.596354166666666
11585,12.0,,,,,,,63.0,,,,,,0,note_on,,127.0,63.0,127.0,29945,15.596354166666666
11586,,,,,,,,,,,,,ba ,0,lyrics,,,,,4667438928,2430957.775
11587,9.0,,,,,,,35.0,,,,,,172,note_on,,0.0,35.0,0.0,158365,82.48177083333333
11588,9.0,,,,,,,36.0,,,,,,0,note_on,,0.0,36.0,0.0,158365,82.48177083333333
11589,9.0,,,,,,,70.0,,,,,,52,note_on,,0.0,70.0,0.0,158417,82.50885416666667
11590,9.0,,,,,,,42.0,,,,,,0,note_on,,0.0,42.0,0.0,158417,82.50885416666667
11591,8.0,,,,,,,87.0,,,,,,16,note_on,,45.0,87.0,45.0,23412,12.19375
11592,9.0,,,,,,,44.0,,,,,,0,note_on,,75.0,44.0,75.0,158417,82.50885416666667
11593,8.0,,,,,,,87.0,,,,,,126,note_on,,0.0,87.0,0.0,23538,12.259375
11594,10.0,,,,,,,60.0,,,,,,5,note_on,,0.0,60.0,0.0,20571,10.7140625
11595,10.0,,,,,,,67.0,,,,,,11,note_on,,0.0,67.0,0.0,20582,10.719791666666666
11596,12.0,,,,,,,68.0,,,,,,3,note_on,,0.0,68.0,0.0,29948,15.597916666666666
11597,12.0,,,,,,,60.0,,,,,,4,note_on,,0.0,60.0,0.0,29952,15.6
11598,12.0,,,,,,,63.0,,,,,,19,note_on,,0.0,63.0,0.0,29971,15.609895833333333
11599,10.0,,,,,,,63.0,,,,,,18,note_on,,0.0,63.0,0.0,20600,10.729166666666666
11600,9.0,,,,,,,44.0,,,,,,54,note_on,,0.0,44.0,0.0,158471,82.53697916666667
11601,9.0,,,,,,,42.0,,,,,,0,note_on,,85.0,42.0,85.0,158471,82.53697916666667
11602,9.0,,,,,,,70.0,,,,,,0,note_on,,40.0,70.0,40.0,158471,82.53697916666667
11603,12.0,,,,,,,63.0,,,,,,0,note_on,,127.0,63.0,127.0,29971,15.609895833333333
11604,12.0,,,,,,,60.0,,,,,,0,note_on,,127.0,60.0,127.0,29971,15.609895833333333
11605,12.0,,,,,,,67.0,,,,,,0,note_on,,127.0,67.0,127.0,29971,15.609895833333333
11606,7.0,,,,,,,82.0,,,,,,45,note_on,,0.0,82.0,0.0,4280,2.2291666666666665
11607,8.0,,,,,,,70.0,,,,,,0,note_on,,0.0,70.0,0.0,23538,12.259375
11608,3.0,,,,,,,79.0,,,,,,127,note_on,,0.0,79.0,0.0,56528,29.441666666666666
11609,9.0,,,,,,,70.0,,,,,,52,note_on,,0.0,70.0,0.0,158523,82.5640625
11610,9.0,,,,,,,42.0,,,,,,16,note_on,,0.0,42.0,0.0,158539,82.57239583333333
11611,8.0,,,,,,,87.0,,,,,,0,note_on,,45.0,87.0,45.0,23538,12.259375
11612,9.0,,,,,,,44.0,,,,,,0,note_on,,75.0,44.0,75.0,158539,82.57239583333333
11613,9.0,,,,,,,36.0,,,,,,0,note_on,,126.0,36.0,126.0,158539,82.57239583333333
11614,9.0,,,,,,,35.0,,,,,,0,note_on,,60.0,35.0,60.0,158539,82.57239583333333
11615,8.0,,,,,,,87.0,,,,,,125,note_on,,0.0,87.0,0.0,23663,12.324479166666666
11616,12.0,,,,,,,60.0,,,,,,6,note_on,,0.0,60.0,0.0,29977,15.613020833333334
11617,12.0,,,,,,,67.0,,,,,,11,note_on,,0.0,67.0,0.0,29988,15.61875
11618,12.0,,,,,,,63.0,,,,,,44,note_on,,0.0,63.0,0.0,30032,15.641666666666666
11619,9.0,,,,,,,36.0,,,,,,38,note_on,,0.0,36.0,0.0,158577,82.5921875
11620,9.0,,,,,,,35.0,,,,,,0,note_on,,0.0,35.0,0.0,158577,82.5921875
11621,9.0,,,,,,,44.0,,,,,,16,note_on,,0.0,44.0,0.0,158593,82.60052083333333
11622,3.0,,,,,,,77.0,,,,,,0,note_on,,127.0,77.0,127.0,56528,29.441666666666666
11623,7.0,,,,,,,75.0,,,,,,0,note_on,,127.0,75.0,127.0,4280,2.2291666666666665
11624,8.0,,,,,,,63.0,,,,,,0,note_on,,127.0,63.0,127.0,23663,12.324479166666666
11625,9.0,,,,,,,42.0,,,,,,0,note_on,,85.0,42.0,85.0,158593,82.60052083333333
11626,9.0,,,,,,,70.0,,,,,,0,note_on,,40.0,70.0,40.0,158593,82.60052083333333
11627,9.0,,,,,,,39.0,,,,,,0,note_on,,125.0,39.0,125.0,158593,82.60052083333333
11628,9.0,,,,,,,28.0,,,,,,0,note_on,,127.0,28.0,127.0,158593,82.60052083333333
11629,,,,,,,,,,,,,by ,0,lyrics,,,,,4664200792,2429271.245833333
11630,9.0,,,,,,,28.0,,,,,,117,note_on,,0.0,28.0,0.0,158710,82.66145833333333
11631,9.0,,,,,,,39.0,,,,,,34,note_on,,0.0,39.0,0.0,158744,82.67916666666666
11632,9.0,,,,,,,42.0,,,,,,73,note_on,,0.0,42.0,0.0,158817,82.7171875
11633,9.0,,,,,,,70.0,,,,,,0,note_on,,0.0,70.0,0.0,158817,82.7171875
11634,8.0,,,,,,,87.0,,,,,,16,note_on,,45.0,87.0,45.0,23679,12.3328125
11635,9.0,,,,,,,44.0,,,,,,0,note_on,,75.0,44.0,75.0,158817,82.7171875
11636,3.0,,,,,,,77.0,,,,,,43,note_on,,0.0,77.0,0.0,56571,29.4640625
11637,8.0,,,,,,,87.0,,,,,,88,note_on,,0.0,87.0,0.0,23767,12.378645833333334
11638,9.0,,,,,,,44.0,,,,,,109,note_on,,0.0,44.0,0.0,158926,82.77395833333333
11639,3.0,,,,,,,84.0,,,,,,0,note_on,,127.0,84.0,127.0,56571,29.4640625
11640,9.0,,,,,,,42.0,,,,,,0,note_on,,85.0,42.0,85.0,158926,82.77395833333333
11641,9.0,,,,,,,70.0,,,,,,0,note_on,,40.0,70.0,40.0,158926,82.77395833333333
11642,9.0,,,,,,,36.0,,,,,,0,note_on,,126.0,36.0,126.0,158926,82.77395833333333
11643,9.0,,,,,,,35.0,,,,,,0,note_on,,60.0,35.0,60.0,158926,82.77395833333333
11644,,,,,,,,,,,,,noo ,0,lyrics,,,,,4664199640,2429270.6458333335
11645,,,,,,,,,,,,,,0,lyrics,,,,,4664199208,2429270.4208333334
11646,8.0,,,,,,,63.0,,,,,,51,note_on,,0.0,63.0,0.0,23818,12.405208333333333
11647,7.0,,,,,,,75.0,,,,,,0,note_on,,0.0,75.0,0.0,4280,2.2291666666666665
11648,9.0,,,,,,,35.0,,,,,,115,note_on,,0.0,35.0,0.0,159041,82.83385416666667
11649,9.0,,,,,,,36.0,,,,,,0,note_on,,0.0,36.0,0.0,159041,82.83385416666667
11650,9.0,,,,,,,70.0,,,,,,58,note_on,,0.0,70.0,0.0,159099,82.8640625
11651,9.0,,,,,,,42.0,,,,,,16,note_on,,0.0,42.0,0.0,159115,82.87239583333333
11652,8.0,,,,,,,87.0,,,,,,0,note_on,,45.0,87.0,45.0,23818,12.405208333333333
11653,9.0,,,,,,,44.0,,,,,,0,note_on,,75.0,44.0,75.0,159115,82.87239583333333
11654,8.0,,,,,,,87.0,,,,,,123,note_on,,0.0,87.0,0.0,23941,12.469270833333333
11655,9.0,,,,,,,44.0,,,,,,117,note_on,,0.0,44.0,0.0,159232,82.93333333333334
11656,7.0,,,,,,,77.0,,,,,,0,note_on,,127.0,77.0,127.0,4280,2.2291666666666665
11657,8.0,,,,,,,65.0,,,,,,0,note_on,,127.0,65.0,127.0,23941,12.469270833333333
11658,9.0,,,,,,,42.0,,,,,,0,note_on,,85.0,42.0,85.0,159232,82.93333333333334
11659,9.0,,,,,,,70.0,,,,,,0,note_on,,40.0,70.0,40.0,159232,82.93333333333334
11660,9.0,,,,,,,70.0,,,,,,224,note_on,,0.0,70.0,0.0,159456,83.05
11661,8.0,,,,,,,87.0,,,,,,16,note_on,,45.0,87.0,45.0,23957,12.477604166666666
11662,9.0,,,,,,,44.0,,,,,,0,note_on,,75.0,44.0,75.0,159456,83.05
11663,8.0,,,,,,,87.0,,,,,,135,note_on,,0.0,87.0,0.0,24092,12.547916666666666
11664,9.0,,,,,,,44.0,,,,,,105,note_on,,0.0,44.0,0.0,159561,83.1046875
11665,9.0,,,,,,,42.0,,,,,,0,note_on,,85.0,42.0,85.0,159561,83.1046875
11666,9.0,,,,,,,70.0,,,,,,0,note_on,,40.0,70.0,40.0,159561,83.1046875
11667,9.0,,,,,,,36.0,,,,,,0,note_on,,126.0,36.0,126.0,159561,83.1046875
11668,9.0,,,,,,,35.0,,,,,,0,note_on,,60.0,35.0,60.0,159561,83.1046875
11669,3.0,,,,,,,84.0,,,,,,23,note_on,,0.0,84.0,0.0,56594,29.476041666666667
11670,8.0,,,,,,,65.0,,,,,,33,note_on,,0.0,65.0,0.0,24125,12.565104166666666
11671,7.0,,,,,,,77.0,,,,,,0,note_on,,0.0,77.0,0.0,4280,2.2291666666666665
11672,9.0,,,,,,,35.0,,,,,,98,note_on,,0.0,35.0,0.0,159659,83.15572916666666
11673,9.0,,,,,,,36.0,,,,,,0,note_on,,0.0,36.0,0.0,159659,83.15572916666666
11674,9.0,,,,,,,70.0,,,,,,70,note_on,,0.0,70.0,0.0,159729,83.1921875
11675,9.0,,,,,,,42.0,,,,,,16,note_on,,0.0,42.0,0.0,159745,83.20052083333333
11676,9.0,,,,,,,44.0,,,,,,0,note_on,,75.0,44.0,75.0,159745,83.20052083333333
11677,3.0,,,,,,,75.0,,,,,,234,note_on,,127.0,75.0,127.0,56828,29.597916666666666
11678,,,,,,,,,,,,,Like ,0,lyrics,,,,,4664197552,2429269.558333333
11679,9.0,,,,,,,44.0,,,,,,6,note_on,,0.0,44.0,0.0,159751,83.20364583333333
11680,7.0,,,,,,,75.0,,,,,,0,note_on,,127.0,75.0,127.0,4280,2.2291666666666665
11681,8.0,,,,,,,87.0,,,,,,0,note_on,,45.0,87.0,45.0,24125,12.565104166666666
11682,8.0,,,,,,,63.0,,,,,,0,note_on,,127.0,63.0,127.0,24125,12.565104166666666
11683,9.0,,,,,,,42.0,,,,,,0,note_on,,85.0,42.0,85.0,159751,83.20364583333333
11684,9.0,,,,,,,70.0,,,,,,0,note_on,,40.0,70.0,40.0,159751,83.20364583333333
11685,9.0,,,,,,,39.0,,,,,,0,note_on,,127.0,39.0,127.0,159751,83.20364583333333
11686,9.0,,,,,,,28.0,,,,,,0,note_on,,127.0,28.0,127.0,159751,83.20364583333333
11687,9.0,,,,,,,39.0,,,,,,123,note_on,,0.0,39.0,0.0,159874,83.26770833333333
11688,9.0,,,,,,,28.0,,,,,,2,note_on,,0.0,28.0,0.0,159876,83.26875
11689,8.0,,,,,,,87.0,,,,,,10,note_on,,0.0,87.0,0.0,24135,12.5703125
11690,9.0,,,,,,,70.0,,,,,,89,note_on,,0.0,70.0,0.0,159965,83.31510416666667
11691,9.0,,,,,,,42.0,,,,,,0,note_on,,0.0,42.0,0.0,159965,83.31510416666667
11692,9.0,,,,,,,42.0,,,,,,16,note_on,,0.0,42.0,0.0,159981,83.3234375
11693,9.0,,,,,,,44.0,,,,,,0,note_on,,75.0,44.0,75.0,159981,83.3234375
11694,9.0,,,,,,,44.0,,,,,,240,note_on,,0.0,44.0,0.0,160221,83.4484375
11695,8.0,,,,,,,87.0,,,,,,0,note_on,,45.0,87.0,45.0,24135,12.5703125
11696,9.0,,,,,,,42.0,,,,,,0,note_on,,85.0,42.0,85.0,160221,83.4484375
11697,9.0,,,,,,,61.0,,,,,,0,note_on,,100.0,61.0,100.0,160221,83.4484375
11698,9.0,,,,,,,70.0,,,,,,0,note_on,,40.0,70.0,40.0,160221,83.4484375
11699,7.0,,,,,,,75.0,,,,,,72,note_on,,0.0,75.0,0.0,4352,2.2666666666666666
11700,8.0,,,,,,,63.0,,,,,,0,note_on,,0.0,63.0,0.0,24135,12.5703125
11701,9.0,,,,,,,61.0,,,,,,42,note_on,,0.0,61.0,0.0,160263,83.4703125
11702,9.0,,,,,,,61.0,,,,,,6,note_on,,100.0,61.0,100.0,160269,83.4734375
11703,8.0,,,,,,,87.0,,,,,,4,note_on,,0.0,87.0,0.0,24139,12.572395833333333
11704,5.0,,,,,,,55.0,,,,,,40,note_on,,0.0,55.0,0.0,2269,1.1817708333333332
11705,3.0,,,,,,,75.0,,,,,,40,note_on,,0.0,75.0,0.0,56868,29.61875
11706,5.0,,,,,,,63.0,,,,,,2,note_on,,0.0,63.0,0.0,2271,1.1828125
11707,5.0,,,,,,,60.0,,,,,,13,note_on,,0.0,60.0,0.0,2284,1.1895833333333332
11708,9.0,,,,,,,70.0,,,,,,5,note_on,,0.0,70.0,0.0,160274,83.47604166666666
11709,9.0,,,,,,,61.0,,,,,,10,note_on,,0.0,61.0,0.0,160284,83.48125
11710,9.0,,,,,,,42.0,,,,,,6,note_on,,0.0,42.0,0.0,160290,83.484375
11711,9.0,,,,,,,44.0,,,,,,0,note_on,,75.0,44.0,75.0,160290,83.484375
11712,9.0,,,,,,,61.0,,,,,,0,note_on,,100.0,61.0,100.0,160290,83.484375
11713,9.0,,,,,,,61.0,,,,,,114,note_on,,0.0,61.0,0.0,160404,83.54375
11714,9.0,,,,,,,61.0,,,,,,6,note_on,,100.0,61.0,100.0,160410,83.546875
11715,5.0,,,,,,,60.0,,,,,,30,note_on,,120.0,60.0,120.0,2314,1.2052083333333332
11716,5.0,,,,,,,56.0,,,,,,14,note_on,,91.0,56.0,91.0,2328,1.2125
11717,5.0,,,,,,,63.0,,,,,,4,note_on,,116.0,63.0,116.0,2332,1.2145833333333333
11718,9.0,,,,,,,61.0,,,,,,66,note_on,,0.0,61.0,0.0,160476,83.58125
11719,9.0,,,,,,,44.0,,,,,,6,note_on,,0.0,44.0,0.0,160482,83.584375
11720,1.0,,,,,,,32.0,,,,,,0,note_on,,127.0,32.0,127.0,6556,3.4145833333333333
11721,7.0,,,,,,,82.0,,,,,,0,note_on,,127.0,82.0,127.0,4352,2.2666666666666666
11722,8.0,,,,,,,44.0,,,,,,0,note_on,,127.0,44.0,127.0,24139,12.572395833333333
11723,8.0,,,,,,,70.0,,,,,,0,note_on,,127.0,70.0,127.0,24139,12.572395833333333
11724,9.0,,,,,,,61.0,,,,,,0,note_on,,100.0,61.0,100.0,160482,83.584375
11725,9.0,,,,,,,42.0,,,,,,0,note_on,,85.0,42.0,85.0,160482,83.584375
11726,9.0,,,,,,,70.0,,,,,,0,note_on,,40.0,70.0,40.0,160482,83.584375
11727,9.0,,,,,,,36.0,,,,,,0,note_on,,126.0,36.0,126.0,160482,83.584375
11728,9.0,,,,,,,35.0,,,,,,0,note_on,,60.0,35.0,60.0,160482,83.584375
11729,11.0,,,,,,,60.0,,,,,,0,note_on,,127.0,60.0,127.0,33960,17.6875
11730,11.0,,,,,,,56.0,,,,,,0,note_on,,127.0,56.0,127.0,33960,17.6875
11731,11.0,,,,,,,63.0,,,,,,0,note_on,,127.0,63.0,127.0,33960,17.6875
11732,1.0,,,,,,,36.0,,,,,,24,note_on,,0.0,36.0,0.0,6580,3.4270833333333335
11733,3.0,,,,,,,79.0,,,,,,3,note_on,,127.0,79.0,127.0,56871,29.6203125
11734,,,,,,,,,,,,,ba ,0,lyrics,,,,,4667213432,2430840.3291666666
11735,8.0,,,,,,,48.0,,,,,,16,note_on,,0.0,48.0,0.0,24155,12.580729166666666
11736,9.0,,,,,,,61.0,,,,,,71,note_on,,0.0,61.0,0.0,160553,83.62135416666666
11737,9.0,,,,,,,35.0,,,,,,58,note_on,,0.0,35.0,0.0,160611,83.6515625
11738,9.0,,,,,,,36.0,,,,,,0,note_on,,0.0,36.0,0.0,160611,83.6515625
11739,9.0,,,,,,,42.0,,,,,,52,note_on,,0.0,42.0,0.0,160663,83.67864583333333
11740,9.0,,,,,,,70.0,,,,,,0,note_on,,0.0,70.0,0.0,160663,83.67864583333333
11741,9.0,,,,,,,44.0,,,,,,16,note_on,,75.0,44.0,75.0,160679,83.68697916666666
11742,11.0,,,,,,,56.0,,,,,,191,note_on,,0.0,56.0,0.0,34151,17.786979166666665
11743,11.0,,,,,,,60.0,,,,,,25,note_on,,0.0,60.0,0.0,34176,17.8
11744,9.0,,,,,,,44.0,,,,,,24,note_on,,0.0,44.0,0.0,160703,83.69947916666666
11745,8.0,,,,,,,87.0,,,,,,0,note_on,,45.0,87.0,45.0,24155,12.580729166666666
11746,9.0,,,,,,,42.0,,,,,,0,note_on,,85.0,42.0,85.0,160703,83.69947916666666
11747,9.0,,,,,,,70.0,,,,,,0,note_on,,40.0,70.0,40.0,160703,83.69947916666666
11748,10.0,,,,,,,60.0,,,,,,0,note_on,,127.0,60.0,127.0,20600,10.729166666666666
11749,10.0,,,,,,,56.0,,,,,,0,note_on,,127.0,56.0,127.0,20600,10.729166666666666
11750,10.0,,,,,,,63.0,,,,,,0,note_on,,127.0,63.0,127.0,20600,10.729166666666666
11751,11.0,,,,,,,63.0,,,,,,9,note_on,,0.0,63.0,0.0,34185,17.8046875
11752,7.0,,,,,,,82.0,,,,,,90,note_on,,0.0,82.0,0.0,4442,2.3135416666666666
11753,8.0,,,,,,,70.0,,,,,,0,note_on,,0.0,70.0,0.0,24155,12.580729166666666
11754,8.0,,,,,,,87.0,,,,,,24,note_on,,0.0,87.0,0.0,24179,12.593229166666667
11755,3.0,,,,,,,79.0,,,,,,52,note_on,,0.0,79.0,0.0,56923,29.647395833333334
11756,9.0,,,,,,,70.0,,,,,,49,note_on,,0.0,70.0,0.0,160752,83.725
11757,9.0,,,,,,,42.0,,,,,,16,note_on,,0.0,42.0,0.0,160768,83.73333333333333
11758,9.0,,,,,,,44.0,,,,,,0,note_on,,75.0,44.0,75.0,160768,83.73333333333333
11759,9.0,,,,,,,36.0,,,,,,0,note_on,,126.0,36.0,126.0,160768,83.73333333333333
11760,9.0,,,,,,,35.0,,,,,,0,note_on,,60.0,35.0,60.0,160768,83.73333333333333
11761,10.0,,,,,,,56.0,,,,,,191,note_on,,0.0,56.0,0.0,20791,10.828645833333333
11762,3.0,,,,,,,77.0,,,,,,23,note_on,,127.0,77.0,127.0,56946,29.659375
11763,,,,,,,,,,,,,"by, ",0,lyrics,,,,,4667241384,2430854.8875
11764,10.0,,,,,,,60.0,,,,,,2,note_on,,0.0,60.0,0.0,20793,10.8296875
11765,9.0,,,,,,,35.0,,,,,,8,note_on,,0.0,35.0,0.0,160776,83.7375
11766,9.0,,,,,,,36.0,,,,,,0,note_on,,0.0,36.0,0.0,160776,83.7375
11767,9.0,,,,,,,44.0,,,,,,16,note_on,,0.0,44.0,0.0,160792,83.74583333333334
11768,7.0,,,,,,,75.0,,,,,,0,note_on,,127.0,75.0,127.0,4442,2.3135416666666666
11769,8.0,,,,,,,87.0,,,,,,0,note_on,,45.0,87.0,45.0,24179,12.593229166666667
11770,8.0,,,,,,,63.0,,,,,,0,note_on,,127.0,63.0,127.0,24179,12.593229166666667
11771,9.0,,,,,,,42.0,,,,,,0,note_on,,85.0,42.0,85.0,160792,83.74583333333334
11772,9.0,,,,,,,70.0,,,,,,0,note_on,,40.0,70.0,40.0,160792,83.74583333333334
11773,9.0,,,,,,,39.0,,,,,,0,note_on,,125.0,39.0,125.0,160792,83.74583333333334
11774,9.0,,,,,,,28.0,,,,,,0,note_on,,127.0,28.0,127.0,160792,83.74583333333334
11775,12.0,,,,,,,60.0,,,,,,0,note_on,,127.0,60.0,127.0,30032,15.641666666666666
11776,12.0,,,,,,,56.0,,,,,,0,note_on,,127.0,56.0,127.0,30032,15.641666666666666
11777,12.0,,,,,,,63.0,,,,,,0,note_on,,127.0,63.0,127.0,30032,15.641666666666666
11778,10.0,,,,,,,63.0,,,,,,9,note_on,,0.0,63.0,0.0,20802,10.834375
11779,9.0,,,,,,,28.0,,,,,,108,note_on,,0.0,28.0,0.0,160900,83.80208333333333
11780,8.0,,,,,,,87.0,,,,,,10,note_on,,0.0,87.0,0.0,24189,12.5984375
11781,9.0,,,,,,,39.0,,,,,,24,note_on,,0.0,39.0,0.0,160924,83.81458333333333
11782,9.0,,,,,,,42.0,,,,,,73,note_on,,0.0,42.0,0.0,160997,83.85260416666667
11783,9.0,,,,,,,70.0,,,,,,0,note_on,,0.0,70.0,0.0,160997,83.85260416666667
11784,9.0,,,,,,,44.0,,,,,,16,note_on,,75.0,44.0,75.0,161013,83.8609375
11785,12.0,,,,,,,56.0,,,,,,191,note_on,,0.0,56.0,0.0,30223,15.741145833333333
11786,12.0,,,,,,,60.0,,,,,,25,note_on,,0.0,60.0,0.0,30248,15.754166666666666
11787,9.0,,,,,,,44.0,,,,,,24,note_on,,0.0,44.0,0.0,161037,83.8734375
11788,8.0,,,,,,,87.0,,,,,,0,note_on,,45.0,87.0,45.0,24189,12.5984375
11789,9.0,,,,,,,42.0,,,,,,0,note_on,,85.0,42.0,85.0,161037,83.8734375
11790,9.0,,,,,,,70.0,,,,,,0,note_on,,40.0,70.0,40.0,161037,83.8734375
11791,9.0,,,,,,,36.0,,,,,,0,note_on,,126.0,36.0,126.0,161037,83.8734375
11792,9.0,,,,,,,35.0,,,,,,0,note_on,,60.0,35.0,60.0,161037,83.8734375
11793,12.0,,,,,,,63.0,,,,,,9,note_on,,0.0,63.0,0.0,30257,15.758854166666666
11794,7.0,,,,,,,75.0,,,,,,17,note_on,,0.0,75.0,0.0,4459,2.322395833333333
11795,8.0,,,,,,,63.0,,,,,,0,note_on,,0.0,63.0,0.0,24189,12.5984375
11796,8.0,,,,,,,87.0,,,,,,98,note_on,,0.0,87.0,0.0,24287,12.649479166666666
11797,9.0,,,,,,,35.0,,,,,,42,note_on,,0.0,35.0,0.0,161079,83.8953125
11798,9.0,,,,,,,36.0,,,,,,0,note_on,,0.0,36.0,0.0,161079,83.8953125
11799,3.0,,,,,,,77.0,,,,,,5,note_on,,0.0,77.0,0.0,56951,29.661979166666665
11800,9.0,,,,,,,70.0,,,,,,53,note_on,,0.0,70.0,0.0,161132,83.92291666666667
11801,9.0,,,,,,,42.0,,,,,,16,note_on,,0.0,42.0,0.0,161148,83.93125
11802,8.0,,,,,,,87.0,,,,,,0,note_on,,45.0,87.0,45.0,24287,12.649479166666666
11803,9.0,,,,,,,44.0,,,,,,0,note_on,,75.0,44.0,75.0,161148,83.93125
11804,8.0,,,,,,,87.0,,,,,,130,note_on,,0.0,87.0,0.0,24417,12.7171875
11805,9.0,,,,,,,44.0,,,,,,110,note_on,,0.0,44.0,0.0,161258,83.98854166666666
11806,7.0,,,,,,,77.0,,,,,,0,note_on,,127.0,77.0,127.0,4459,2.322395833333333
11807,8.0,,,,,,,65.0,,,,,,0,note_on,,127.0,65.0,127.0,24417,12.7171875
11808,9.0,,,,,,,42.0,,,,,,0,note_on,,85.0,42.0,85.0,161258,83.98854166666666
11809,9.0,,,,,,,70.0,,,,,,0,note_on,,40.0,70.0,40.0,161258,83.98854166666666
11810,3.0,,,,,,,79.0,,,,,,6,note_on,,127.0,79.0,127.0,56957,29.665104166666666
11811,,,,,,,,,,,,,ba ,0,lyrics,,,,,4667264240,2430866.7916666665
11812,9.0,,,,,,,70.0,,,,,,218,note_on,,0.0,70.0,0.0,161476,84.10208333333333
11813,9.0,,,,,,,42.0,,,,,,0,note_on,,0.0,42.0,0.0,161476,84.10208333333333
11814,9.0,,,,,,,44.0,,,,,,16,note_on,,75.0,44.0,75.0,161492,84.11041666666667
11815,9.0,,,,,,,44.0,,,,,,240,note_on,,0.0,44.0,0.0,161732,84.23541666666667
11816,8.0,,,,,,,87.0,,,,,,0,note_on,,45.0,87.0,45.0,24417,12.7171875
11817,9.0,,,,,,,42.0,,,,,,0,note_on,,85.0,42.0,85.0,161732,84.23541666666667
11818,9.0,,,,,,,70.0,,,,,,0,note_on,,40.0,70.0,40.0,161732,84.23541666666667
11819,9.0,,,,,,,36.0,,,,,,0,note_on,,126.0,36.0,126.0,161732,84.23541666666667
11820,9.0,,,,,,,35.0,,,,,,0,note_on,,60.0,35.0,60.0,161732,84.23541666666667
11821,8.0,,,,,,,87.0,,,,,,116,note_on,,0.0,87.0,0.0,24533,12.777604166666666
11822,8.0,,,,,,,65.0,,,,,,29,note_on,,0.0,65.0,0.0,24562,12.792708333333334
11823,7.0,,,,,,,77.0,,,,,,0,note_on,,0.0,77.0,0.0,4459,2.322395833333333
11824,9.0,,,,,,,35.0,,,,,,9,note_on,,0.0,35.0,0.0,161741,84.24010416666667
11825,9.0,,,,,,,36.0,,,,,,0,note_on,,0.0,36.0,0.0,161741,84.24010416666667
11826,3.0,,,,,,,79.0,,,,,,53,note_on,,0.0,79.0,0.0,57010,29.692708333333332
11827,9.0,,,,,,,70.0,,,,,,17,note_on,,0.0,70.0,0.0,161758,84.24895833333333
11828,9.0,,,,,,,42.0,,,,,,16,note_on,,0.0,42.0,0.0,161774,84.25729166666666
11829,9.0,,,,,,,44.0,,,,,,0,note_on,,75.0,44.0,75.0,161774,84.25729166666666
11830,9.0,,,,,,,44.0,,,,,,240,note_on,,0.0,44.0,0.0,162014,84.38229166666666
11831,7.0,,,,,,,70.0,,,,,,0,note_on,,127.0,70.0,127.0,4459,2.322395833333333
11832,8.0,,,,,,,87.0,,,,,,0,note_on,,45.0,87.0,45.0,24562,12.792708333333334
11833,8.0,,,,,,,58.0,,,,,,0,note_on,,127.0,58.0,127.0,24562,12.792708333333334
11834,9.0,,,,,,,42.0,,,,,,0,note_on,,85.0,42.0,85.0,162014,84.38229166666666
11835,9.0,,,,,,,70.0,,,,,,0,note_on,,40.0,70.0,40.0,162014,84.38229166666666
11836,9.0,,,,,,,39.0,,,,,,0,note_on,,127.0,39.0,127.0,162014,84.38229166666666
11837,9.0,,,,,,,28.0,,,,,,0,note_on,,127.0,28.0,127.0,162014,84.38229166666666
11838,11.0,,,,,,,60.0,,,,,,0,note_on,,127.0,60.0,127.0,34185,17.8046875
11839,11.0,,,,,,,65.0,,,,,,0,note_on,,127.0,65.0,127.0,34185,17.8046875
11840,11.0,,,,,,,56.0,,,,,,0,note_on,,127.0,56.0,127.0,34185,17.8046875
11841,3.0,,,,,,,77.0,,,,,,2,note_on,,127.0,77.0,127.0,57012,29.693749999999998
11842,,,,,,,,,,,,,"by, ",0,lyrics,,,,,4667262872,2430866.0791666666
11843,9.0,,,,,,,39.0,,,,,,121,note_on,,0.0,39.0,0.0,162135,84.4453125
11844,9.0,,,,,,,28.0,,,,,,2,note_on,,0.0,28.0,0.0,162137,84.44635416666667
11845,8.0,,,,,,,87.0,,,,,,1,note_on,,0.0,87.0,0.0,24563,12.793229166666666
11846,3.0,,,,,,,77.0,,,,,,70,note_on,,0.0,77.0,0.0,57082,29.730208333333334
11847,9.0,,,,,,,42.0,,,,,,28,note_on,,0.0,42.0,0.0,162165,84.4609375
11848,9.0,,,,,,,70.0,,,,,,0,note_on,,0.0,70.0,0.0,162165,84.4609375
11849,9.0,,,,,,,44.0,,,,,,16,note_on,,75.0,44.0,75.0,162181,84.46927083333333
11850,11.0,,,,,,,65.0,,,,,,144,note_on,,0.0,65.0,0.0,34329,17.8796875
11851,11.0,,,,,,,56.0,,,,,,10,note_on,,0.0,56.0,0.0,34339,17.88489583333333
11852,11.0,,,,,,,60.0,,,,,,21,note_on,,0.0,60.0,0.0,34360,17.895833333333332
11853,3.0,,,,,,,79.0,,,,,,56,note_on,,127.0,79.0,127.0,57138,29.759375
11854,,,,,,,,,,,,,ba ,0,lyrics,,,,,4667262008,2430865.6291666664
11855,9.0,,,,,,,44.0,,,,,,9,note_on,,0.0,44.0,0.0,162190,84.47395833333333
11856,8.0,,,,,,,87.0,,,,,,0,note_on,,45.0,87.0,45.0,24563,12.793229166666666
11857,9.0,,,,,,,42.0,,,,,,0,note_on,,85.0,42.0,85.0,162190,84.47395833333333
11858,9.0,,,,,,,70.0,,,,,,0,note_on,,40.0,70.0,40.0,162190,84.47395833333333
11859,10.0,,,,,,,60.0,,,,,,0,note_on,,127.0,60.0,127.0,20802,10.834375
11860,10.0,,,,,,,65.0,,,,,,0,note_on,,127.0,65.0,127.0,20802,10.834375
11861,10.0,,,,,,,56.0,,,,,,0,note_on,,127.0,56.0,127.0,20802,10.834375
11862,11.0,,,,,,,60.0,,,,,,0,note_on,,127.0,60.0,127.0,34360,17.895833333333332
11863,11.0,,,,,,,56.0,,,,,,0,note_on,,124.0,56.0,124.0,34360,17.895833333333332
11864,11.0,,,,,,,63.0,,,,,,0,note_on,,127.0,63.0,127.0,34360,17.895833333333332
11865,8.0,,,,,,,58.0,,,,,,97,note_on,,0.0,58.0,0.0,24660,12.84375
11866,7.0,,,,,,,70.0,,,,,,0,note_on,,0.0,70.0,0.0,4459,2.322395833333333
11867,8.0,,,,,,,87.0,,,,,,16,note_on,,0.0,87.0,0.0,24676,12.852083333333333
11868,9.0,,,,,,,70.0,,,,,,111,note_on,,0.0,70.0,0.0,162301,84.53177083333333
11869,9.0,,,,,,,42.0,,,,,,16,note_on,,0.0,42.0,0.0,162317,84.54010416666667
11870,9.0,,,,,,,44.0,,,,,,0,note_on,,75.0,44.0,75.0,162317,84.54010416666667
11871,10.0,,,,,,,65.0,,,,,,144,note_on,,0.0,65.0,0.0,20946,10.909375
11872,10.0,,,,,,,56.0,,,,,,10,note_on,,0.0,56.0,0.0,20956,10.914583333333333
11873,10.0,,,,,,,60.0,,,,,,21,note_on,,0.0,60.0,0.0,20977,10.925520833333334
11874,11.0,,,,,,,56.0,,,,,,46,note_on,,0.0,56.0,0.0,34406,17.919791666666665
11875,9.0,,,,,,,44.0,,,,,,19,note_on,,0.0,44.0,0.0,162336,84.55
11876,7.0,,,,,,,82.0,,,,,,0,note_on,,127.0,82.0,127.0,4459,2.322395833333333
11877,8.0,,,,,,,70.0,,,,,,0,note_on,,127.0,70.0,127.0,24676,12.852083333333333
11878,9.0,,,,,,,42.0,,,,,,0,note_on,,85.0,42.0,85.0,162336,84.55
11879,9.0,,,,,,,70.0,,,,,,0,note_on,,40.0,70.0,40.0,162336,84.55
11880,9.0,,,,,,,36.0,,,,,,0,note_on,,126.0,36.0,126.0,162336,84.55
11881,9.0,,,,,,,35.0,,,,,,0,note_on,,60.0,35.0,60.0,162336,84.55
11882,10.0,,,,,,,60.0,,,,,,0,note_on,,127.0,60.0,127.0,20977,10.925520833333334
11883,10.0,,,,,,,56.0,,,,,,0,note_on,,124.0,56.0,124.0,20977,10.925520833333334
11884,10.0,,,,,,,63.0,,,,,,0,note_on,,127.0,63.0,127.0,20977,10.925520833333334
11885,12.0,,,,,,,60.0,,,,,,0,note_on,,127.0,60.0,127.0,30257,15.758854166666666
11886,12.0,,,,,,,65.0,,,,,,0,note_on,,127.0,65.0,127.0,30257,15.758854166666666
11887,12.0,,,,,,,56.0,,,,,,0,note_on,,127.0,56.0,127.0,30257,15.758854166666666
11888,11.0,,,,,,,63.0,,,,,,14,note_on,,0.0,63.0,0.0,34420,17.927083333333332
11889,11.0,,,,,,,60.0,,,,,,6,note_on,,0.0,60.0,0.0,34426,17.930208333333333
11890,9.0,,,,,,,35.0,,,,,,152,note_on,,0.0,35.0,0.0,162488,84.62916666666666
11891,9.0,,,,,,,36.0,,,,,,0,note_on,,0.0,36.0,0.0,162488,84.62916666666666
11892,9.0,,,,,,,42.0,,,,,,52,note_on,,0.0,42.0,0.0,162540,84.65625
11893,9.0,,,,,,,70.0,,,,,,0,note_on,,0.0,70.0,0.0,162540,84.65625
11894,3.0,,,,,,,79.0,,,,,,16,note_on,,0.0,79.0,0.0,57154,29.76770833333333
11895,8.0,,,,,,,87.0,,,,,,0,note_on,,45.0,87.0,45.0,24676,12.852083333333333
11896,9.0,,,,,,,44.0,,,,,,0,note_on,,75.0,44.0,75.0,162540,84.65625
11897,8.0,,,,,,,87.0,,,,,,131,note_on,,0.0,87.0,0.0,24807,12.9203125
11898,12.0,,,,,,,65.0,,,,,,13,note_on,,0.0,65.0,0.0,30270,15.765625
11899,12.0,,,,,,,56.0,,,,,,10,note_on,,0.0,56.0,0.0,30280,15.770833333333334
11900,3.0,,,,,,,77.0,,,,,,8,note_on,,127.0,77.0,127.0,57162,29.771874999999998
11901,,,,,,,,,,,,,by ,0,lyrics,,,,,4416848592,2300441.975
11902,12.0,,,,,,,60.0,,,,,,13,note_on,,0.0,60.0,0.0,30293,15.777604166666666
11903,10.0,,,,,,,56.0,,,,,,46,note_on,,0.0,56.0,0.0,21023,10.949479166666666
11904,9.0,,,,,,,44.0,,,,,,19,note_on,,0.0,44.0,0.0,162559,84.66614583333333
11905,9.0,,,,,,,42.0,,,,,,0,note_on,,85.0,42.0,85.0,162559,84.66614583333333
11906,9.0,,,,,,,70.0,,,,,,0,note_on,,40.0,70.0,40.0,162559,84.66614583333333
11907,12.0,,,,,,,60.0,,,,,,0,note_on,,127.0,60.0,127.0,30293,15.777604166666666
11908,12.0,,,,,,,56.0,,,,,,0,note_on,,124.0,56.0,124.0,30293,15.777604166666666
11909,12.0,,,,,,,63.0,,,,,,0,note_on,,127.0,63.0,127.0,30293,15.777604166666666
11910,10.0,,,,,,,63.0,,,,,,14,note_on,,0.0,63.0,0.0,21037,10.956770833333334
11911,7.0,,,,,,,82.0,,,,,,0,note_on,,0.0,82.0,0.0,4459,2.322395833333333
11912,8.0,,,,,,,70.0,,,,,,0,note_on,,0.0,70.0,0.0,24807,12.9203125
11913,10.0,,,,,,,60.0,,,,,,6,note_on,,0.0,60.0,0.0,21043,10.959895833333333
11914,9.0,,,,,,,70.0,,,,,,204,note_on,,0.0,70.0,0.0,162763,84.77239583333333
11915,9.0,,,,,,,42.0,,,,,,16,note_on,,0.0,42.0,0.0,162779,84.78072916666666
11916,8.0,,,,,,,87.0,,,,,,0,note_on,,45.0,87.0,45.0,24807,12.9203125
11917,9.0,,,,,,,44.0,,,,,,0,note_on,,75.0,44.0,75.0,162779,84.78072916666666
11918,9.0,,,,,,,36.0,,,,,,0,note_on,,126.0,36.0,126.0,162779,84.78072916666666
11919,9.0,,,,,,,35.0,,,,,,0,note_on,,60.0,35.0,60.0,162779,84.78072916666666
11920,8.0,,,,,,,87.0,,,,,,136,note_on,,0.0,87.0,0.0,24943,12.991145833333333
11921,12.0,,,,,,,56.0,,,,,,85,note_on,,0.0,56.0,0.0,30378,15.821875
11922,9.0,,,,,,,35.0,,,,,,3,note_on,,0.0,35.0,0.0,162782,84.78229166666667
11923,9.0,,,,,,,36.0,,,,,,0,note_on,,0.0,36.0,0.0,162782,84.78229166666667
11924,9.0,,,,,,,44.0,,,,,,16,note_on,,0.0,44.0,0.0,162798,84.790625
11925,7.0,,,,,,,75.0,,,,,,0,note_on,,127.0,75.0,127.0,4459,2.322395833333333
11926,8.0,,,,,,,63.0,,,,,,0,note_on,,127.0,63.0,127.0,24943,12.991145833333333
11927,9.0,,,,,,,42.0,,,,,,0,note_on,,85.0,42.0,85.0,162798,84.790625
11928,9.0,,,,,,,70.0,,,,,,0,note_on,,40.0,70.0,40.0,162798,84.790625
11929,9.0,,,,,,,39.0,,,,,,0,note_on,,125.0,39.0,125.0,162798,84.790625
11930,9.0,,,,,,,28.0,,,,,,0,note_on,,127.0,28.0,127.0,162798,84.790625
11931,12.0,,,,,,,63.0,,,,,,14,note_on,,0.0,63.0,0.0,30392,15.829166666666666
11932,12.0,,,,,,,60.0,,,,,,6,note_on,,0.0,60.0,0.0,30398,15.832291666666666
11933,9.0,,,,,,,28.0,,,,,,97,note_on,,0.0,28.0,0.0,162895,84.84114583333333
11934,9.0,,,,,,,39.0,,,,,,34,note_on,,0.0,39.0,0.0,162929,84.85885416666666
11935,9.0,,,,,,,70.0,,,,,,73,note_on,,0.0,70.0,0.0,163002,84.896875
11936,9.0,,,,,,,42.0,,,,,,0,note_on,,0.0,42.0,0.0,163002,84.896875
11937,8.0,,,,,,,87.0,,,,,,16,note_on,,45.0,87.0,45.0,24959,12.999479166666667
11938,9.0,,,,,,,44.0,,,,,,0,note_on,,75.0,44.0,75.0,163002,84.896875
11939,3.0,,,,,,,77.0,,,,,,55,note_on,,0.0,77.0,0.0,57217,29.800520833333334
11940,8.0,,,,,,,87.0,,,,,,77,note_on,,0.0,87.0,0.0,25036,13.039583333333333
11941,3.0,,,,,,,82.0,,,,,,33,note_on,,127.0,82.0,127.0,57250,29.817708333333332
11942,,,,,,,,,,,,,ohh ,0,lyrics,,,,,4664103488,2429220.5666666664
11943,,,,,,,,,,,,,,0,lyrics,,,,,4664110064,2429223.9916666667
11944,9.0,,,,,,,44.0,,,,,,75,note_on,,0.0,44.0,0.0,163077,84.9359375
11945,9.0,,,,,,,42.0,,,,,,0,note_on,,85.0,42.0,85.0,163077,84.9359375
11946,9.0,,,,,,,70.0,,,,,,0,note_on,,40.0,70.0,40.0,163077,84.9359375
11947,9.0,,,,,,,36.0,,,,,,0,note_on,,126.0,36.0,126.0,163077,84.9359375
11948,9.0,,,,,,,35.0,,,,,,0,note_on,,60.0,35.0,60.0,163077,84.9359375
11949,7.0,,,,,,,75.0,,,,,,87,note_on,,0.0,75.0,0.0,4546,2.3677083333333333
11950,8.0,,,,,,,63.0,,,,,,0,note_on,,0.0,63.0,0.0,25036,13.039583333333333
11951,9.0,,,,,,,36.0,,,,,,79,note_on,,0.0,36.0,0.0,163156,84.97708333333333
11952,9.0,,,,,,,35.0,,,,,,0,note_on,,0.0,35.0,0.0,163156,84.97708333333333
11953,9.0,,,,,,,70.0,,,,,,58,note_on,,0.0,70.0,0.0,163214,85.00729166666666
11954,9.0,,,,,,,42.0,,,,,,16,note_on,,0.0,42.0,0.0,163230,85.015625
11955,8.0,,,,,,,87.0,,,,,,0,note_on,,45.0,87.0,45.0,25036,13.039583333333333
11956,9.0,,,,,,,44.0,,,,,,0,note_on,,75.0,44.0,75.0,163230,85.015625
11957,8.0,,,,,,,87.0,,,,,,137,note_on,,0.0,87.0,0.0,25173,13.1109375
11958,9.0,,,,,,,44.0,,,,,,103,note_on,,0.0,44.0,0.0,163333,85.06927083333333
11959,7.0,,,,,,,77.0,,,,,,0,note_on,,127.0,77.0,127.0,4546,2.3677083333333333
11960,8.0,,,,,,,65.0,,,,,,0,note_on,,127.0,65.0,127.0,25173,13.1109375
11961,9.0,,,,,,,42.0,,,,,,0,note_on,,85.0,42.0,85.0,163333,85.06927083333333
11962,9.0,,,,,,,70.0,,,,,,0,note_on,,40.0,70.0,40.0,163333,85.06927083333333
11963,9.0,,,,,,,70.0,,,,,,224,note_on,,0.0,70.0,0.0,163557,85.1859375
11964,9.0,,,,,,,44.0,,,,,,16,note_on,,75.0,44.0,75.0,163573,85.19427083333333
11965,9.0,,,,,,,44.0,,,,,,240,note_on,,0.0,44.0,0.0,163813,85.31927083333333
11966,8.0,,,,,,,87.0,,,,,,0,note_on,,45.0,87.0,45.0,25173,13.1109375
11967,9.0,,,,,,,42.0,,,,,,0,note_on,,85.0,42.0,85.0,163813,85.31927083333333
11968,9.0,,,,,,,70.0,,,,,,0,note_on,,40.0,70.0,40.0,163813,85.31927083333333
11969,9.0,,,,,,,36.0,,,,,,0,note_on,,126.0,36.0,126.0,163813,85.31927083333333
11970,9.0,,,,,,,35.0,,,,,,0,note_on,,60.0,35.0,60.0,163813,85.31927083333333
11971,3.0,,,,,,,82.0,,,,,,27,note_on,,0.0,82.0,0.0,57277,29.831770833333334
11972,8.0,,,,,,,65.0,,,,,,8,note_on,,0.0,65.0,0.0,25181,13.115104166666667
11973,7.0,,,,,,,77.0,,,,,,0,note_on,,0.0,77.0,0.0,4546,2.3677083333333333
11974,8.0,,,,,,,87.0,,,,,,98,note_on,,0.0,87.0,0.0,25279,13.166145833333333
11975,9.0,,,,,,,35.0,,,,,,21,note_on,,0.0,35.0,0.0,163834,85.33020833333333
11976,9.0,,,,,,,36.0,,,,,,0,note_on,,0.0,36.0,0.0,163834,85.33020833333333
11977,9.0,,,,,,,70.0,,,,,,70,note_on,,0.0,70.0,0.0,163904,85.36666666666666
11978,9.0,,,,,,,42.0,,,,,,16,note_on,,0.0,42.0,0.0,163920,85.375
11979,9.0,,,,,,,44.0,,,,,,0,note_on,,75.0,44.0,75.0,163920,85.375
11980,9.0,,,,,,,44.0,,,,,,240,note_on,,0.0,44.0,0.0,164160,85.5
11981,7.0,,,,,,,75.0,,,,,,0,note_on,,127.0,75.0,127.0,4546,2.3677083333333333
11982,8.0,,,,,,,87.0,,,,,,0,note_on,,45.0,87.0,45.0,25279,13.166145833333333
11983,8.0,,,,,,,63.0,,,,,,0,note_on,,127.0,63.0,127.0,25279,13.166145833333333
11984,9.0,,,,,,,42.0,,,,,,0,note_on,,85.0,42.0,85.0,164160,85.5
11985,9.0,,,,,,,70.0,,,,,,0,note_on,,40.0,70.0,40.0,164160,85.5
11986,9.0,,,,,,,39.0,,,,,,0,note_on,,127.0,39.0,127.0,164160,85.5
11987,9.0,,,,,,,28.0,,,,,,0,note_on,,127.0,28.0,127.0,164160,85.5
11988,9.0,,,,,,,39.0,,,,,,123,note_on,,0.0,39.0,0.0,164283,85.5640625
11989,9.0,,,,,,,28.0,,,,,,2,note_on,,0.0,28.0,0.0,164285,85.56510416666667
11990,8.0,,,,,,,87.0,,,,,,2,note_on,,0.0,87.0,0.0,25281,13.167187499999999
11991,9.0,,,,,,,42.0,,,,,,97,note_on,,0.0,42.0,0.0,164382,85.615625
11992,9.0,,,,,,,70.0,,,,,,0,note_on,,0.0,70.0,0.0,164382,85.615625
11993,9.0,,,,,,,42.0,,,,,,16,note_on,,0.0,42.0,0.0,164398,85.62395833333333
11994,9.0,,,,,,,44.0,,,,,,0,note_on,,75.0,44.0,75.0,164398,85.62395833333333
11995,9.0,,,,,,,44.0,,,,,,240,note_on,,0.0,44.0,0.0,164638,85.74895833333333
11996,8.0,,,,,,,87.0,,,,,,0,note_on,,45.0,87.0,45.0,25281,13.167187499999999
11997,9.0,,,,,,,42.0,,,,,,0,note_on,,85.0,42.0,85.0,164638,85.74895833333333
11998,9.0,,,,,,,61.0,,,,,,0,note_on,,100.0,61.0,100.0,164638,85.74895833333333
11999,9.0,,,,,,,70.0,,,,,,0,note_on,,40.0,70.0,40.0,164638,85.74895833333333
12000,7.0,,,,,,,75.0,,,,,,91,note_on,,0.0,75.0,0.0,4637,2.4151041666666666
12001,8.0,,,,,,,63.0,,,,,,0,note_on,,0.0,63.0,0.0,25281,13.167187499999999
12002,9.0,,,,,,,61.0,,,,,,23,note_on,,0.0,61.0,0.0,164661,85.7609375
12003,8.0,,,,,,,87.0,,,,,,4,note_on,,0.0,87.0,0.0,25285,13.169270833333334
12004,9.0,,,,,,,61.0,,,,,,2,note_on,,100.0,61.0,100.0,164663,85.76197916666666
12005,5.0,,,,,,,63.0,,,,,,55,note_on,,0.0,63.0,0.0,2387,1.2432291666666666
12006,5.0,,,,,,,60.0,,,,,,27,note_on,,0.0,60.0,0.0,2414,1.2572916666666667
12007,5.0,,,,,,,56.0,,,,,,0,note_on,,0.0,56.0,0.0,2414,1.2572916666666667
12008,9.0,,,,,,,70.0,,,,,,22,note_on,,0.0,70.0,0.0,164685,85.7734375
12009,9.0,,,,,,,61.0,,,,,,10,note_on,,0.0,61.0,0.0,164695,85.77864583333333
12010,9.0,,,,,,,42.0,,,,,,6,note_on,,0.0,42.0,0.0,164701,85.78177083333333
12011,9.0,,,,,,,44.0,,,,,,0,note_on,,75.0,44.0,75.0,164701,85.78177083333333
12012,9.0,,,,,,,61.0,,,,,,0,note_on,,100.0,61.0,100.0,164701,85.78177083333333
12013,9.0,,,,,,,61.0,,,,,,114,note_on,,0.0,61.0,0.0,164815,85.84114583333333
12014,9.0,,,,,,,61.0,,,,,,6,note_on,,100.0,61.0,100.0,164821,85.84427083333333
12015,5.0,,,,,,,58.0,,,,,,77,note_on,,100.0,58.0,100.0,2491,1.2973958333333333
12016,8.0,,,,,,,44.0,,,,,,3,note_on,,0.0,44.0,0.0,25288,13.170833333333333
12017,5.0,,,,,,,53.0,,,,,,1,note_on,,101.0,53.0,101.0,2492,1.2979166666666666
12018,5.0,,,,,,,62.0,,,,,,8,note_on,,88.0,62.0,88.0,2500,1.3020833333333333
12019,9.0,,,,,,,61.0,,,,,,25,note_on,,0.0,61.0,0.0,164846,85.85729166666667
12020,9.0,,,,,,,44.0,,,,,,6,note_on,,0.0,44.0,0.0,164852,85.86041666666667
12021,1.0,,,,,,,34.0,,,,,,0,note_on,,127.0,34.0,127.0,6580,3.4270833333333335
12022,3.0,,,,,,,79.0,,,,,,0,note_on,,127.0,79.0,127.0,57277,29.831770833333334
12023,7.0,,,,,,,82.0,,,,,,0,note_on,,127.0,82.0,127.0,4637,2.4151041666666666
12024,8.0,,,,,,,46.0,,,,,,0,note_on,,127.0,46.0,127.0,25288,13.170833333333333
12025,8.0,,,,,,,70.0,,,,,,0,note_on,,127.0,70.0,127.0,25288,13.170833333333333
12026,9.0,,,,,,,61.0,,,,,,0,note_on,,100.0,61.0,100.0,164852,85.86041666666667
12027,9.0,,,,,,,42.0,,,,,,0,note_on,,85.0,42.0,85.0,164852,85.86041666666667
12028,9.0,,,,,,,70.0,,,,,,0,note_on,,40.0,70.0,40.0,164852,85.86041666666667
12029,9.0,,,,,,,36.0,,,,,,0,note_on,,126.0,36.0,126.0,164852,85.86041666666667
12030,9.0,,,,,,,35.0,,,,,,0,note_on,,60.0,35.0,60.0,164852,85.86041666666667
12031,11.0,,,,,,,62.0,,,,,,0,note_on,,127.0,62.0,127.0,34426,17.930208333333333
12032,11.0,,,,,,,58.0,,,,,,0,note_on,,127.0,58.0,127.0,34426,17.930208333333333
12033,11.0,,,,,,,65.0,,,,,,0,note_on,,127.0,65.0,127.0,34426,17.930208333333333
12034,,,,,,,,,,,,,I ,0,lyrics,,,,,10,0.005208333333333333
12035,1.0,,,,,,,32.0,,,,,,6,note_on,,0.0,32.0,0.0,6586,3.4302083333333333
12036,9.0,,,,,,,61.0,,,,,,108,note_on,,0.0,61.0,0.0,164960,85.91666666666667
12037,9.0,,,,,,,35.0,,,,,,58,note_on,,0.0,35.0,0.0,165018,85.946875
12038,9.0,,,,,,,36.0,,,,,,0,note_on,,0.0,36.0,0.0,165018,85.946875
12039,3.0,,,,,,,79.0,,,,,,32,note_on,,0.0,79.0,0.0,57309,29.8484375
12040,9.0,,,,,,,42.0,,,,,,20,note_on,,0.0,42.0,0.0,165038,85.95729166666666
12041,9.0,,,,,,,70.0,,,,,,0,note_on,,0.0,70.0,0.0,165038,85.95729166666666
12042,9.0,,,,,,,44.0,,,,,,16,note_on,,75.0,44.0,75.0,165054,85.965625
12043,11.0,,,,,,,58.0,,,,,,234,note_on,,0.0,58.0,0.0,34660,18.052083333333332
12044,9.0,,,,,,,44.0,,,,,,6,note_on,,0.0,44.0,0.0,165060,85.96875
12045,3.0,,,,,,,77.0,,,,,,0,note_on,,127.0,77.0,127.0,57309,29.8484375
12046,8.0,,,,,,,87.0,,,,,,0,note_on,,45.0,87.0,45.0,25288,13.170833333333333
12047,9.0,,,,,,,42.0,,,,,,0,note_on,,85.0,42.0,85.0,165060,85.96875
12048,9.0,,,,,,,70.0,,,,,,0,note_on,,40.0,70.0,40.0,165060,85.96875
12049,10.0,,,,,,,62.0,,,,,,0,note_on,,127.0,62.0,127.0,21043,10.959895833333333
12050,10.0,,,,,,,58.0,,,,,,0,note_on,,127.0,58.0,127.0,21043,10.959895833333333
12051,10.0,,,,,,,65.0,,,,,,0,note_on,,127.0,65.0,127.0,21043,10.959895833333333
12052,,,,,,,,,,,,,thought ,0,lyrics,,,,,3,0.0015625
12053,7.0,,,,,,,82.0,,,,,,29,note_on,,0.0,82.0,0.0,4666,2.4302083333333333
12054,8.0,,,,,,,70.0,,,,,,0,note_on,,0.0,70.0,0.0,25288,13.170833333333333
12055,11.0,,,,,,,65.0,,,,,,18,note_on,,0.0,65.0,0.0,34678,18.061458333333334
12056,11.0,,,,,,,62.0,,,,,,2,note_on,,0.0,62.0,0.0,34680,18.0625
12057,8.0,,,,,,,87.0,,,,,,67,note_on,,0.0,87.0,0.0,25355,13.205729166666666
12058,3.0,,,,,,,77.0,,,,,,88,note_on,,0.0,77.0,0.0,57397,29.894270833333334
12059,9.0,,,,,,,70.0,,,,,,20,note_on,,0.0,70.0,0.0,165080,85.97916666666667
12060,9.0,,,,,,,42.0,,,,,,16,note_on,,0.0,42.0,0.0,165096,85.9875
12061,8.0,,,,,,,87.0,,,,,,0,note_on,,45.0,87.0,45.0,25355,13.205729166666666
12062,9.0,,,,,,,44.0,,,,,,0,note_on,,75.0,44.0,75.0,165096,85.9875
12063,9.0,,,,,,,36.0,,,,,,0,note_on,,126.0,36.0,126.0,165096,85.9875
12064,9.0,,,,,,,35.0,,,,,,0,note_on,,60.0,35.0,60.0,165096,85.9875
12065,8.0,,,,,,,87.0,,,,,,112,note_on,,0.0,87.0,0.0,25467,13.2640625
12066,9.0,,,,,,,35.0,,,,,,112,note_on,,0.0,35.0,0.0,165208,86.04583333333333
12067,9.0,,,,,,,36.0,,,,,,0,note_on,,0.0,36.0,0.0,165208,86.04583333333333
12068,10.0,,,,,,,58.0,,,,,,10,note_on,,0.0,58.0,0.0,21053,10.965104166666666
12069,9.0,,,,,,,44.0,,,,,,6,note_on,,0.0,44.0,0.0,165214,86.04895833333333
12070,3.0,,,,,,,79.0,,,,,,0,note_on,,127.0,79.0,127.0,57397,29.894270833333334
12071,7.0,,,,,,,75.0,,,,,,0,note_on,,127.0,75.0,127.0,4666,2.4302083333333333
12072,8.0,,,,,,,63.0,,,,,,0,note_on,,127.0,63.0,127.0,25467,13.2640625
12073,9.0,,,,,,,42.0,,,,,,0,note_on,,85.0,42.0,85.0,165214,86.04895833333333
12074,9.0,,,,,,,70.0,,,,,,0,note_on,,40.0,70.0,40.0,165214,86.04895833333333
12075,9.0,,,,,,,39.0,,,,,,0,note_on,,125.0,39.0,125.0,165214,86.04895833333333
12076,9.0,,,,,,,28.0,,,,,,0,note_on,,127.0,28.0,127.0,165214,86.04895833333333
12077,12.0,,,,,,,62.0,,,,,,0,note_on,,127.0,62.0,127.0,30398,15.832291666666666
12078,12.0,,,,,,,58.0,,,,,,0,note_on,,127.0,58.0,127.0,30398,15.832291666666666
12079,12.0,,,,,,,65.0,,,,,,0,note_on,,127.0,65.0,127.0,30398,15.832291666666666
12080,,,,,,,,,,,,,youd ,0,lyrics,,,,,9,0.0046875
12081,10.0,,,,,,,65.0,,,,,,47,note_on,,0.0,65.0,0.0,21100,10.989583333333334
12082,10.0,,,,,,,62.0,,,,,,2,note_on,,0.0,62.0,0.0,21102,10.990625
12083,9.0,,,,,,,28.0,,,,,,68,note_on,,0.0,28.0,0.0,165282,86.084375
12084,9.0,,,,,,,39.0,,,,,,34,note_on,,0.0,39.0,0.0,165316,86.10208333333333
12085,9.0,,,,,,,42.0,,,,,,73,note_on,,0.0,42.0,0.0,165389,86.14010416666666
12086,9.0,,,,,,,70.0,,,,,,0,note_on,,0.0,70.0,0.0,165389,86.14010416666666
12087,9.0,,,,,,,44.0,,,,,,16,note_on,,75.0,44.0,75.0,165405,86.1484375
12088,12.0,,,,,,,58.0,,,,,,234,note_on,,0.0,58.0,0.0,30632,15.954166666666666
12089,9.0,,,,,,,44.0,,,,,,6,note_on,,0.0,44.0,0.0,165411,86.1515625
12090,8.0,,,,,,,87.0,,,,,,0,note_on,,45.0,87.0,45.0,25467,13.2640625
12091,9.0,,,,,,,42.0,,,,,,0,note_on,,85.0,42.0,85.0,165411,86.1515625
12092,9.0,,,,,,,70.0,,,,,,0,note_on,,40.0,70.0,40.0,165411,86.1515625
12093,9.0,,,,,,,36.0,,,,,,0,note_on,,126.0,36.0,126.0,165411,86.1515625
12094,9.0,,,,,,,35.0,,,,,,0,note_on,,60.0,35.0,60.0,165411,86.1515625
12095,7.0,,,,,,,75.0,,,,,,37,note_on,,0.0,75.0,0.0,4703,2.4494791666666664
12096,8.0,,,,,,,63.0,,,,,,0,note_on,,0.0,63.0,0.0,25467,13.2640625
12097,12.0,,,,,,,65.0,,,,,,10,note_on,,0.0,65.0,0.0,30642,15.959375
12098,12.0,,,,,,,62.0,,,,,,2,note_on,,0.0,62.0,0.0,30644,15.960416666666667
12099,8.0,,,,,,,87.0,,,,,,71,note_on,,0.0,87.0,0.0,25538,13.301041666666666
12100,9.0,,,,,,,36.0,,,,,,46,note_on,,0.0,36.0,0.0,165457,86.17552083333334
12101,9.0,,,,,,,35.0,,,,,,0,note_on,,0.0,35.0,0.0,165457,86.17552083333334
12102,3.0,,,,,,,79.0,,,,,,7,note_on,,0.0,79.0,0.0,57404,29.897916666666667
12103,9.0,,,,,,,70.0,,,,,,51,note_on,,0.0,70.0,0.0,165508,86.20208333333333
12104,9.0,,,,,,,42.0,,,,,,16,note_on,,0.0,42.0,0.0,165524,86.21041666666666
12105,9.0,,,,,,,44.0,,,,,,0,note_on,,75.0,44.0,75.0,165524,86.21041666666666
12106,9.0,,,,,,,44.0,,,,,,240,note_on,,0.0,44.0,0.0,165764,86.33541666666666
12107,3.0,,,,,,,79.0,,,,,,0,note_on,,127.0,79.0,127.0,57404,29.897916666666667
12108,7.0,,,,,,,77.0,,,,,,0,note_on,,127.0,77.0,127.0,4703,2.4494791666666664
12109,8.0,,,,,,,87.0,,,,,,0,note_on,,45.0,87.0,45.0,25538,13.301041666666666
12110,8.0,,,,,,,65.0,,,,,,0,note_on,,127.0,65.0,127.0,25538,13.301041666666666
12111,9.0,,,,,,,42.0,,,,,,0,note_on,,85.0,42.0,85.0,165764,86.33541666666666
12112,9.0,,,,,,,70.0,,,,,,0,note_on,,40.0,70.0,40.0,165764,86.33541666666666
12113,,,,,,,,,,,,,al ,0,lyrics,,,,,-1,-0.0005208333333333333
12114,8.0,,,,,,,87.0,,,,,,123,note_on,,0.0,87.0,0.0,25661,13.365104166666667
12115,3.0,,,,,,,79.0,,,,,,60,note_on,,0.0,79.0,0.0,57464,29.929166666666667
12116,9.0,,,,,,,42.0,,,,,,41,note_on,,0.0,42.0,0.0,165805,86.35677083333333
12117,9.0,,,,,,,70.0,,,,,,0,note_on,,0.0,70.0,0.0,165805,86.35677083333333
12118,9.0,,,,,,,44.0,,,,,,16,note_on,,75.0,44.0,75.0,165821,86.36510416666667
12119,9.0,,,,,,,44.0,,,,,,240,note_on,,0.0,44.0,0.0,166061,86.49010416666667
12120,3.0,,,,,,,79.0,,,,,,0,note_on,,127.0,79.0,127.0,57464,29.929166666666667
12121,8.0,,,,,,,87.0,,,,,,0,note_on,,45.0,87.0,45.0,25661,13.365104166666667
12122,9.0,,,,,,,42.0,,,,,,0,note_on,,85.0,42.0,85.0,166061,86.49010416666667
12123,9.0,,,,,,,70.0,,,,,,0,note_on,,40.0,70.0,40.0,166061,86.49010416666667
12124,9.0,,,,,,,36.0,,,,,,0,note_on,,126.0,36.0,126.0,166061,86.49010416666667
12125,9.0,,,,,,,35.0,,,,,,0,note_on,,60.0,35.0,60.0,166061,86.49010416666667
12126,,,,,,,,,,,,,ways ,0,lyrics,,,,,9,0.0046875
12127,7.0,,,,,,,77.0,,,,,,97,note_on,,0.0,77.0,0.0,4800,2.5
12128,8.0,,,,,,,65.0,,,,,,0,note_on,,0.0,65.0,0.0,25661,13.365104166666667
12129,8.0,,,,,,,87.0,,,,,,30,note_on,,0.0,87.0,0.0,25691,13.380729166666667
12130,9.0,,,,,,,35.0,,,,,,27,note_on,,0.0,35.0,0.0,166088,86.50416666666666
12131,9.0,,,,,,,36.0,,,,,,0,note_on,,0.0,36.0,0.0,166088,86.50416666666666
12132,9.0,,,,,,,70.0,,,,,,70,note_on,,0.0,70.0,0.0,166158,86.540625
12133,9.0,,,,,,,42.0,,,,,,16,note_on,,0.0,42.0,0.0,166174,86.54895833333333
12134,9.0,,,,,,,44.0,,,,,,0,note_on,,75.0,44.0,75.0,166174,86.54895833333333
12135,9.0,,,,,,,44.0,,,,,,240,note_on,,0.0,44.0,0.0,166414,86.67395833333333
12136,7.0,,,,,,,75.0,,,,,,0,note_on,,127.0,75.0,127.0,4800,2.5
12137,8.0,,,,,,,63.0,,,,,,0,note_on,,127.0,63.0,127.0,25691,13.380729166666667
12138,9.0,,,,,,,42.0,,,,,,0,note_on,,85.0,42.0,85.0,166414,86.67395833333333
12139,9.0,,,,,,,70.0,,,,,,0,note_on,,40.0,70.0,40.0,166414,86.67395833333333
12140,9.0,,,,,,,39.0,,,,,,0,note_on,,127.0,39.0,127.0,166414,86.67395833333333
12141,9.0,,,,,,,28.0,,,,,,0,note_on,,127.0,28.0,127.0,166414,86.67395833333333
12142,11.0,,,,,,,62.0,,,,,,0,note_on,,127.0,62.0,127.0,34680,18.0625
12143,11.0,,,,,,,67.0,,,,,,0,note_on,,127.0,67.0,127.0,34680,18.0625
12144,11.0,,,,,,,58.0,,,,,,0,note_on,,127.0,58.0,127.0,34680,18.0625
12145,9.0,,,,,,,39.0,,,,,,123,note_on,,0.0,39.0,0.0,166537,86.73802083333334
12146,9.0,,,,,,,28.0,,,,,,2,note_on,,0.0,28.0,0.0,166539,86.7390625
12147,7.0,,,,,,,75.0,,,,,,85,note_on,,0.0,75.0,0.0,4885,2.5442708333333335
12148,8.0,,,,,,,63.0,,,,,,0,note_on,,0.0,63.0,0.0,25691,13.380729166666667
12149,9.0,,,,,,,42.0,,,,,,14,note_on,,0.0,42.0,0.0,166553,86.74635416666666
12150,9.0,,,,,,,70.0,,,,,,0,note_on,,0.0,70.0,0.0,166553,86.74635416666666
12151,9.0,,,,,,,44.0,,,,,,16,note_on,,75.0,44.0,75.0,166569,86.7546875
12152,3.0,,,,,,,79.0,,,,,,14,note_on,,0.0,79.0,0.0,57478,29.936458333333334
12153,11.0,,,,,,,67.0,,,,,,113,note_on,,0.0,67.0,0.0,34793,18.121354166666666
12154,11.0,,,,,,,58.0,,,,,,11,note_on,,0.0,58.0,0.0,34804,18.12708333333333
12155,11.0,,,,,,,62.0,,,,,,36,note_on,,0.0,62.0,0.0,34840,18.145833333333332
12156,9.0,,,,,,,44.0,,,,,,66,note_on,,0.0,44.0,0.0,166635,86.7890625
12157,3.0,,,,,,,79.0,,,,,,0,note_on,,127.0,79.0,127.0,57478,29.936458333333334
12158,7.0,,,,,,,77.0,,,,,,0,note_on,,127.0,77.0,127.0,4885,2.5442708333333335
12159,8.0,,,,,,,87.0,,,,,,0,note_on,,45.0,87.0,45.0,25691,13.380729166666667
12160,8.0,,,,,,,65.0,,,,,,0,note_on,,127.0,65.0,127.0,25691,13.380729166666667
12161,9.0,,,,,,,42.0,,,,,,0,note_on,,85.0,42.0,85.0,166635,86.7890625
12162,9.0,,,,,,,70.0,,,,,,0,note_on,,40.0,70.0,40.0,166635,86.7890625
12163,10.0,,,,,,,62.0,,,,,,0,note_on,,127.0,62.0,127.0,21102,10.990625
12164,10.0,,,,,,,67.0,,,,,,0,note_on,,127.0,67.0,127.0,21102,10.990625
12165,10.0,,,,,,,58.0,,,,,,0,note_on,,127.0,58.0,127.0,21102,10.990625
12166,11.0,,,,,,,62.0,,,,,,0,note_on,,127.0,62.0,127.0,34840,18.145833333333332
12167,11.0,,,,,,,58.0,,,,,,0,note_on,,118.0,58.0,118.0,34840,18.145833333333332
12168,11.0,,,,,,,65.0,,,,,,0,note_on,,127.0,65.0,127.0,34840,18.145833333333332
12169,,,,,,,,,,,,,be ,0,lyrics,,,,,2,0.0010416666666666667
12170,8.0,,,,,,,87.0,,,,,,127,note_on,,0.0,87.0,0.0,25818,13.446875
12171,7.0,,,,,,,77.0,,,,,,60,note_on,,0.0,77.0,0.0,4945,2.5755208333333335
12172,8.0,,,,,,,65.0,,,,,,0,note_on,,0.0,65.0,0.0,25818,13.446875
12173,9.0,,,,,,,70.0,,,,,,37,note_on,,0.0,70.0,0.0,166672,86.80833333333334
12174,9.0,,,,,,,42.0,,,,,,16,note_on,,0.0,42.0,0.0,166688,86.81666666666666
12175,9.0,,,,,,,44.0,,,,,,0,note_on,,75.0,44.0,75.0,166688,86.81666666666666
12176,10.0,,,,,,,67.0,,,,,,127,note_on,,0.0,67.0,0.0,21229,11.056770833333333
12177,10.0,,,,,,,58.0,,,,,,11,note_on,,0.0,58.0,0.0,21240,11.0625
12178,11.0,,,,,,,58.0,,,,,,7,note_on,,0.0,58.0,0.0,34847,18.149479166666666
12179,11.0,,,,,,,65.0,,,,,,23,note_on,,0.0,65.0,0.0,34870,18.161458333333332
12180,10.0,,,,,,,62.0,,,,,,6,note_on,,0.0,62.0,0.0,21246,11.065625
12181,11.0,,,,,,,62.0,,,,,,13,note_on,,0.0,62.0,0.0,34883,18.168229166666666
12182,9.0,,,,,,,44.0,,,,,,53,note_on,,0.0,44.0,0.0,166741,86.84427083333333
12183,3.0,,,,,,,79.0,,,,,,0,note_on,,0.0,79.0,0.0,57478,29.936458333333334
12184,3.0,,,,,,,77.0,,,,,,0,note_on,,127.0,77.0,127.0,57478,29.936458333333334
12185,7.0,,,,,,,82.0,,,,,,0,note_on,,127.0,82.0,127.0,4945,2.5755208333333335
12186,8.0,,,,,,,87.0,,,,,,0,note_on,,45.0,87.0,45.0,25818,13.446875
12187,8.0,,,,,,,70.0,,,,,,0,note_on,,127.0,70.0,127.0,25818,13.446875
12188,9.0,,,,,,,42.0,,,,,,0,note_on,,85.0,42.0,85.0,166741,86.84427083333333
12189,9.0,,,,,,,70.0,,,,,,0,note_on,,40.0,70.0,40.0,166741,86.84427083333333
12190,9.0,,,,,,,36.0,,,,,,0,note_on,,126.0,36.0,126.0,166741,86.84427083333333
12191,9.0,,,,,,,35.0,,,,,,0,note_on,,60.0,35.0,60.0,166741,86.84427083333333
12192,10.0,,,,,,,62.0,,,,,,0,note_on,,127.0,62.0,127.0,21246,11.065625
12193,10.0,,,,,,,58.0,,,,,,0,note_on,,118.0,58.0,118.0,21246,11.065625
12194,10.0,,,,,,,65.0,,,,,,0,note_on,,127.0,65.0,127.0,21246,11.065625
12195,12.0,,,,,,,62.0,,,,,,0,note_on,,127.0,62.0,127.0,30644,15.960416666666667
12196,12.0,,,,,,,67.0,,,,,,0,note_on,,127.0,67.0,127.0,30644,15.960416666666667
12197,12.0,,,,,,,58.0,,,,,,0,note_on,,127.0,58.0,127.0,30644,15.960416666666667
12198,,,,,,,,,,,,,mi ,0,lyrics,,,,,9,0.0046875
12199,8.0,,,,,,,87.0,,,,,,135,note_on,,0.0,87.0,0.0,25953,13.5171875
12200,9.0,,,,,,,35.0,,,,,,37,note_on,,0.0,35.0,0.0,166778,86.86354166666666
12201,9.0,,,,,,,36.0,,,,,,0,note_on,,0.0,36.0,0.0,166778,86.86354166666666
12202,9.0,,,,,,,42.0,,,,,,52,note_on,,0.0,42.0,0.0,166830,86.890625
12203,9.0,,,,,,,70.0,,,,,,0,note_on,,0.0,70.0,0.0,166830,86.890625
12204,9.0,,,,,,,44.0,,,,,,16,note_on,,75.0,44.0,75.0,166846,86.89895833333333
12205,12.0,,,,,,,67.0,,,,,,127,note_on,,0.0,67.0,0.0,30771,16.0265625
12206,12.0,,,,,,,58.0,,,,,,11,note_on,,0.0,58.0,0.0,30782,16.032291666666666
12207,10.0,,,,,,,58.0,,,,,,7,note_on,,0.0,58.0,0.0,21253,11.069270833333333
12208,10.0,,,,,,,65.0,,,,,,23,note_on,,0.0,65.0,0.0,21276,11.08125
12209,12.0,,,,,,,62.0,,,,,,6,note_on,,0.0,62.0,0.0,30788,16.035416666666666
12210,10.0,,,,,,,62.0,,,,,,13,note_on,,0.0,62.0,0.0,21289,11.088020833333333
12211,9.0,,,,,,,44.0,,,,,,53,note_on,,0.0,44.0,0.0,166899,86.9265625
12212,9.0,,,,,,,42.0,,,,,,0,note_on,,85.0,42.0,85.0,166899,86.9265625
12213,9.0,,,,,,,70.0,,,,,,0,note_on,,40.0,70.0,40.0,166899,86.9265625
12214,12.0,,,,,,,62.0,,,,,,0,note_on,,127.0,62.0,127.0,30788,16.035416666666666
12215,12.0,,,,,,,58.0,,,,,,0,note_on,,118.0,58.0,118.0,30788,16.035416666666666
12216,12.0,,,,,,,65.0,,,,,,0,note_on,,127.0,65.0,127.0,30788,16.035416666666666
12217,8.0,,,,,,,70.0,,,,,,85,note_on,,0.0,70.0,0.0,26038,13.561458333333333
12218,7.0,,,,,,,82.0,,,,,,0,note_on,,0.0,82.0,0.0,4945,2.5755208333333335
12219,3.0,,,,,,,77.0,,,,,,138,note_on,,0.0,77.0,0.0,57616,30.008333333333333
12220,9.0,,,,,,,70.0,,,,,,1,note_on,,0.0,70.0,0.0,166900,86.92708333333333
12221,9.0,,,,,,,42.0,,,,,,16,note_on,,0.0,42.0,0.0,166916,86.93541666666667
12222,8.0,,,,,,,87.0,,,,,,0,note_on,,45.0,87.0,45.0,26038,13.561458333333333
12223,9.0,,,,,,,44.0,,,,,,0,note_on,,75.0,44.0,75.0,166916,86.93541666666667
12224,9.0,,,,,,,36.0,,,,,,0,note_on,,126.0,36.0,126.0,166916,86.93541666666667
12225,9.0,,,,,,,35.0,,,,,,0,note_on,,60.0,35.0,60.0,166916,86.93541666666667
12226,8.0,,,,,,,87.0,,,,,,123,note_on,,0.0,87.0,0.0,26161,13.625520833333333
12227,12.0,,,,,,,58.0,,,,,,22,note_on,,0.0,58.0,0.0,30810,16.046875
12228,12.0,,,,,,,65.0,,,,,,23,note_on,,0.0,65.0,0.0,30833,16.058854166666666
12229,12.0,,,,,,,62.0,,,,,,19,note_on,,0.0,62.0,0.0,30852,16.06875
12230,9.0,,,,,,,36.0,,,,,,37,note_on,,0.0,36.0,0.0,166953,86.9546875
12231,9.0,,,,,,,35.0,,,,,,0,note_on,,0.0,35.0,0.0,166953,86.9546875
12232,9.0,,,,,,,44.0,,,,,,16,note_on,,0.0,44.0,0.0,166969,86.96302083333333
12233,3.0,,,,,,,77.0,,,,,,0,note_on,,127.0,77.0,127.0,57616,30.008333333333333
12234,7.0,,,,,,,75.0,,,,,,0,note_on,,127.0,75.0,127.0,4945,2.5755208333333335
12235,8.0,,,,,,,63.0,,,,,,0,note_on,,127.0,63.0,127.0,26161,13.625520833333333
12236,9.0,,,,,,,42.0,,,,,,0,note_on,,85.0,42.0,85.0,166969,86.96302083333333
12237,9.0,,,,,,,70.0,,,,,,0,note_on,,40.0,70.0,40.0,166969,86.96302083333333
12238,9.0,,,,,,,39.0,,,,,,0,note_on,,125.0,39.0,125.0,166969,86.96302083333333
12239,9.0,,,,,,,28.0,,,,,,0,note_on,,127.0,28.0,127.0,166969,86.96302083333333
12240,11.0,,,,,,,63.0,,,,,,0,note_on,,100.0,63.0,100.0,34883,18.168229166666666
12241,11.0,,,,,,,56.0,,,,,,0,note_on,,127.0,56.0,127.0,34883,18.168229166666666
12242,11.0,,,,,,,62.0,,,,,,0,note_on,,126.0,62.0,126.0,34883,18.168229166666666
12243,11.0,,,,,,,53.0,,,,,,0,note_on,,127.0,53.0,127.0,34883,18.168229166666666
12244,11.0,,,,,,,58.0,,,,,,0,note_on,,127.0,58.0,127.0,34883,18.168229166666666
12245,,,,,,,,,,,,,ne ,0,lyrics,,,,,2,0.0010416666666666667
12246,9.0,,,,,,,28.0,,,,,,117,note_on,,0.0,28.0,0.0,167086,87.02395833333333
12247,9.0,,,,,,,39.0,,,,,,34,note_on,,0.0,39.0,0.0,167120,87.04166666666667
12248,9.0,,,,,,,70.0,,,,,,73,note_on,,0.0,70.0,0.0,167193,87.0796875
12249,9.0,,,,,,,42.0,,,,,,0,note_on,,0.0,42.0,0.0,167193,87.0796875
12250,9.0,,,,,,,44.0,,,,,,16,note_on,,75.0,44.0,75.0,167209,87.08802083333333
12251,3.0,,,,,,,77.0,,,,,,180,note_on,,0.0,77.0,0.0,57796,30.102083333333333
12252,9.0,,,,,,,44.0,,,,,,60,note_on,,0.0,44.0,0.0,167269,87.11927083333333
12253,3.0,,,,,,,75.0,,,,,,0,note_on,,127.0,75.0,127.0,57796,30.102083333333333
12254,8.0,,,,,,,87.0,,,,,,0,note_on,,45.0,87.0,45.0,26161,13.625520833333333
12255,9.0,,,,,,,42.0,,,,,,0,note_on,,85.0,42.0,85.0,167269,87.11927083333333
12256,9.0,,,,,,,70.0,,,,,,0,note_on,,40.0,70.0,40.0,167269,87.11927083333333
12257,9.0,,,,,,,36.0,,,,,,0,note_on,,126.0,36.0,126.0,167269,87.11927083333333
12258,9.0,,,,,,,35.0,,,,,,0,note_on,,60.0,35.0,60.0,167269,87.11927083333333
12259,10.0,,,,,,,63.0,,,,,,0,note_on,,100.0,63.0,100.0,21289,11.088020833333333
12260,10.0,,,,,,,56.0,,,,,,0,note_on,,127.0,56.0,127.0,21289,11.088020833333333
12261,10.0,,,,,,,62.0,,,,,,0,note_on,,126.0,62.0,126.0,21289,11.088020833333333
12262,10.0,,,,,,,53.0,,,,,,0,note_on,,127.0,53.0,127.0,21289,11.088020833333333
12263,10.0,,,,,,,58.0,,,,,,0,note_on,,127.0,58.0,127.0,21289,11.088020833333333
12264,,,,,,,,,,,,,mine ,0,lyrics,,,,,10,0.005208333333333333
12265,8.0,,,,,,,63.0,,,,,,99,note_on,,0.0,63.0,0.0,26260,13.677083333333334
12266,7.0,,,,,,,75.0,,,,,,0,note_on,,0.0,75.0,0.0,4945,2.5755208333333335
12267,8.0,,,,,,,87.0,,,,,,21,note_on,,0.0,87.0,0.0,26281,13.688020833333333
12268,9.0,,,,,,,35.0,,,,,,46,note_on,,0.0,35.0,0.0,167315,87.14322916666667
12269,9.0,,,,,,,36.0,,,,,,0,note_on,,0.0,36.0,0.0,167315,87.14322916666667
12270,9.0,,,,,,,70.0,,,,,,58,note_on,,0.0,70.0,0.0,167373,87.1734375
12271,9.0,,,,,,,42.0,,,,,,16,note_on,,0.0,42.0,0.0,167389,87.18177083333333
12272,9.0,,,,,,,44.0,,,,,,0,note_on,,75.0,44.0,75.0,167389,87.18177083333333
12273,9.0,,,,,,,44.0,,,,,,240,note_on,,0.0,44.0,0.0,167629,87.30677083333333
12274,7.0,,,,,,,77.0,,,,,,0,note_on,,127.0,77.0,127.0,4945,2.5755208333333335
12275,8.0,,,,,,,65.0,,,,,,0,note_on,,127.0,65.0,127.0,26281,13.688020833333333
12276,9.0,,,,,,,42.0,,,,,,0,note_on,,85.0,42.0,85.0,167629,87.30677083333333
12277,9.0,,,,,,,70.0,,,,,,0,note_on,,40.0,70.0,40.0,167629,87.30677083333333
12278,12.0,,,,,,,63.0,,,,,,0,note_on,,100.0,63.0,100.0,30852,16.06875
12279,12.0,,,,,,,56.0,,,,,,0,note_on,,127.0,56.0,127.0,30852,16.06875
12280,12.0,,,,,,,62.0,,,,,,0,note_on,,126.0,62.0,126.0,30852,16.06875
12281,12.0,,,,,,,53.0,,,,,,0,note_on,,127.0,53.0,127.0,30852,16.06875
12282,12.0,,,,,,,58.0,,,,,,0,note_on,,127.0,58.0,127.0,30852,16.06875
12283,9.0,,,,,,,70.0,,,,,,224,note_on,,0.0,70.0,0.0,167853,87.4234375
12284,8.0,,,,,,,65.0,,,,,,2,note_on,,0.0,65.0,0.0,26283,13.6890625
12285,7.0,,,,,,,77.0,,,,,,0,note_on,,0.0,77.0,0.0,4945,2.5755208333333335
12286,8.0,,,,,,,87.0,,,,,,14,note_on,,45.0,87.0,45.0,26297,13.696354166666666
12287,9.0,,,,,,,44.0,,,,,,0,note_on,,75.0,44.0,75.0,167853,87.4234375
12288,3.0,,,,,,,75.0,,,,,,42,note_on,,0.0,75.0,0.0,57838,30.123958333333334
12289,8.0,,,,,,,87.0,,,,,,53,note_on,,0.0,87.0,0.0,26350,13.723958333333334
12290,9.0,,,,,,,44.0,,,,,,145,note_on,,0.0,44.0,0.0,167998,87.49895833333333
12291,11.0,,,,,,,63.0,,,,,,0,note_on,,0.0,63.0,0.0,34883,18.168229166666666
12292,7.0,,,,,,,75.0,,,,,,0,note_on,,127.0,75.0,127.0,4945,2.5755208333333335
12293,8.0,,,,,,,63.0,,,,,,0,note_on,,127.0,63.0,127.0,26350,13.723958333333334
12294,9.0,,,,,,,42.0,,,,,,0,note_on,,85.0,42.0,85.0,167998,87.49895833333333
12295,9.0,,,,,,,70.0,,,,,,0,note_on,,40.0,70.0,40.0,167998,87.49895833333333
12296,9.0,,,,,,,36.0,,,,,,0,note_on,,126.0,36.0,126.0,167998,87.49895833333333
12297,9.0,,,,,,,35.0,,,,,,0,note_on,,60.0,35.0,60.0,167998,87.49895833333333
12298,11.0,,,,,,,63.0,,,,,,0,note_on,,127.0,63.0,127.0,34883,18.168229166666666
12299,9.0,,,,,,,35.0,,,,,,154,note_on,,0.0,35.0,0.0,168152,87.57916666666667
12300,9.0,,,,,,,36.0,,,,,,0,note_on,,0.0,36.0,0.0,168152,87.57916666666667
12301,8.0,,,,,,,63.0,,,,,,59,note_on,,0.0,63.0,0.0,26409,13.7546875
12302,7.0,,,,,,,75.0,,,,,,0,note_on,,0.0,75.0,0.0,4945,2.5755208333333335
12303,9.0,,,,,,,70.0,,,,,,11,note_on,,0.0,70.0,0.0,168163,87.58489583333333
12304,9.0,,,,,,,42.0,,,,,,16,note_on,,0.0,42.0,0.0,168179,87.59322916666666
12305,9.0,,,,,,,44.0,,,,,,0,note_on,,75.0,44.0,75.0,168179,87.59322916666666
12306,1.0,,,,,,,34.0,,,,,,120,note_on,,0.0,34.0,0.0,6706,3.4927083333333333
12307,1.0,,,,,,,,,-361.0,,,,69,pitchwheel,,,,,6775,3.5286458333333335
12308,1.0,,,,,,,,,-979.0,,,,10,pitchwheel,,,,,6785,3.5338541666666665
12309,1.0,,,,,,,,,-1623.0,,,,8,pitchwheel,,,,,6793,3.5380208333333334
12310,1.0,,,,,,,,,-2061.0,,,,7,pitchwheel,,,,,6800,3.5416666666666665
12311,1.0,,,,,,,,,-2525.0,,,,8,pitchwheel,,,,,6808,3.5458333333333334
12312,1.0,,,,,,,,,-3375.0,,,,10,pitchwheel,,,,,6818,3.5510416666666664
12313,10.0,,,,,,,63.0,,,,,,8,note_on,,0.0,63.0,0.0,21297,11.0921875
12314,9.0,,,,,,,44.0,,,,,,0,note_on,,0.0,44.0,0.0,168179,87.59322916666666
12315,7.0,,,,,,,77.0,,,,,,0,note_on,,127.0,77.0,127.0,4945,2.5755208333333335
12316,8.0,,,,,,,87.0,,,,,,0,note_on,,45.0,87.0,45.0,26409,13.7546875
12317,8.0,,,,,,,65.0,,,,,,0,note_on,,127.0,65.0,127.0,26409,13.7546875
12318,9.0,,,,,,,42.0,,,,,,0,note_on,,85.0,42.0,85.0,168179,87.59322916666666
12319,9.0,,,,,,,70.0,,,,,,0,note_on,,40.0,70.0,40.0,168179,87.59322916666666
12320,9.0,,,,,,,39.0,,,,,,0,note_on,,127.0,39.0,127.0,168179,87.59322916666666
12321,9.0,,,,,,,28.0,,,,,,0,note_on,,127.0,28.0,127.0,168179,87.59322916666666
12322,10.0,,,,,,,63.0,,,,,,0,note_on,,127.0,63.0,127.0,21297,11.0921875
12323,1.0,,,,,,,,,-3813.0,,,,1,pitchwheel,,,,,6819,3.5515624999999997
12324,1.0,,,,,,,22.0,,,,,,0,note_on,,127.0,22.0,127.0,6819,3.5515624999999997
12325,1.0,,,,,,,,,-4354.0,,,,8,pitchwheel,,,,,6827,3.5557291666666666
12326,1.0,,,,,,,,,-5050.0,,,,10,pitchwheel,,,,,6837,3.5609375
12327,1.0,,,,,,,,,-5719.0,,,,9,pitchwheel,,,,,6846,3.565625
12328,1.0,,,,,,,,,-6673.0,,,,14,pitchwheel,,,,,6860,3.5729166666666665
12329,1.0,,,,,,,,,-7033.0,,,,11,pitchwheel,,,,,6871,3.5786458333333333
12330,8.0,,,,,,,87.0,,,,,,4,note_on,,0.0,87.0,0.0,26413,13.756770833333333
12331,1.0,,,,,,,,,-7652.0,,,,6,pitchwheel,,,,,6877,3.581770833333333
12332,1.0,,,,,,,,,-8167.0,,,,8,pitchwheel,,,,,6885,3.5859375
12333,1.0,,,,,,,,,-8192.0,,,,9,pitchwheel,,,,,6894,3.5906249999999997
12334,9.0,,,,,,,39.0,,,,,,43,note_on,,0.0,39.0,0.0,168222,87.615625
12335,9.0,,,,,,,28.0,,,,,,2,note_on,,0.0,28.0,0.0,168224,87.61666666666666
12336,1.0,,,,,,,,,-7806.0,,,,52,pitchwheel,,,,,6946,3.6177083333333333
12337,7.0,,,,,,,77.0,,,,,,9,note_on,,0.0,77.0,0.0,4954,2.580208333333333
12338,8.0,,,,,,,65.0,,,,,,0,note_on,,0.0,65.0,0.0,26413,13.756770833333333
12339,1.0,,,,,,,,,-6930.0,,,,0,pitchwheel,,,,,6946,3.6177083333333333
12340,1.0,,,,,,,,,-5153.0,,,,8,pitchwheel,,,,,6954,3.6218749999999997
12341,1.0,,,,,,,,,-2911.0,,,,8,pitchwheel,,,,,6962,3.6260416666666666
12342,1.0,,,,,,,,,-129.0,,,,9,pitchwheel,,,,,6971,3.630729166666667
12343,1.0,,,,,,,,,643.0,,,,8,pitchwheel,,,,,6979,3.634895833333333
12344,9.0,,,,,,,42.0,,,,,,5,note_on,,0.0,42.0,0.0,168229,87.61927083333333
12345,9.0,,,,,,,70.0,,,,,,0,note_on,,0.0,70.0,0.0,168229,87.61927083333333
12346,1.0,,,,,,,,,1545.0,,,,3,pitchwheel,,,,,6982,3.636458333333333
12347,1.0,,,,,,,,,721.0,,,,9,pitchwheel,,,,,6991,3.6411458333333333
12348,9.0,,,,,,,42.0,,,,,,4,note_on,,0.0,42.0,0.0,168233,87.62135416666666
12349,9.0,,,,,,,44.0,,,,,,0,note_on,,75.0,44.0,75.0,168233,87.62135416666666
12350,1.0,,,,,,,,,0.0,,,,4,pitchwheel,,,,,6995,3.6432291666666665
12351,12.0,,,,,,,63.0,,,,,,236,note_on,,0.0,63.0,0.0,31088,16.191666666666666
12352,9.0,,,,,,,44.0,,,,,,0,note_on,,0.0,44.0,0.0,168233,87.62135416666666
12353,7.0,,,,,,,82.0,,,,,,0,note_on,,127.0,82.0,127.0,4954,2.580208333333333
12354,8.0,,,,,,,70.0,,,,,,0,note_on,,127.0,70.0,127.0,26413,13.756770833333333
12355,9.0,,,,,,,42.0,,,,,,0,note_on,,85.0,42.0,85.0,168233,87.62135416666666
12356,9.0,,,,,,,61.0,,,,,,0,note_on,,100.0,61.0,100.0,168233,87.62135416666666
12357,9.0,,,,,,,70.0,,,,,,0,note_on,,40.0,70.0,40.0,168233,87.62135416666666
12358,12.0,,,,,,,63.0,,,,,,0,note_on,,127.0,63.0,127.0,31088,16.191666666666666
12359,9.0,,,,,,,61.0,,,,,,114,note_on,,0.0,61.0,0.0,168347,87.68072916666667
12360,9.0,,,,,,,61.0,,,,,,6,note_on,,100.0,61.0,100.0,168353,87.68385416666666
12361,8.0,,,,,,,46.0,,,,,,49,note_on,,0.0,46.0,0.0,26462,13.782291666666666
12362,5.0,,,,,,,53.0,,,,,,11,note_on,,0.0,53.0,0.0,2511,1.3078125
12363,5.0,,,,,,,62.0,,,,,,41,note_on,,0.0,62.0,0.0,2552,1.3291666666666666
12364,9.0,,,,,,,70.0,,,,,,3,note_on,,0.0,70.0,0.0,168356,87.68541666666667
12365,11.0,,,,,,,56.0,,,,,,9,note_on,,0.0,56.0,0.0,34892,18.172916666666666
12366,9.0,,,,,,,61.0,,,,,,1,note_on,,0.0,61.0,0.0,168357,87.6859375
12367,11.0,,,,,,,62.0,,,,,,3,note_on,,0.0,62.0,0.0,34895,18.174479166666668
12368,9.0,,,,,,,42.0,,,,,,3,note_on,,0.0,42.0,0.0,168360,87.6875
12369,9.0,,,,,,,44.0,,,,,,0,note_on,,75.0,44.0,75.0,168360,87.6875
12370,9.0,,,,,,,61.0,,,,,,0,note_on,,100.0,61.0,100.0,168360,87.6875
12371,5.0,,,,,,,58.0,,,,,,9,note_on,,0.0,58.0,0.0,2561,1.3338541666666666
12372,7.0,,,,,,,82.0,,,,,,103,note_on,,0.0,82.0,0.0,5057,2.6338541666666666
12373,8.0,,,,,,,70.0,,,,,,0,note_on,,0.0,70.0,0.0,26462,13.782291666666666
12374,9.0,,,,,,,61.0,,,,,,2,note_on,,0.0,61.0,0.0,168362,87.68854166666667
12375,9.0,,,,,,,61.0,,,,,,6,note_on,,100.0,61.0,100.0,168368,87.69166666666666
12376,5.0,,,,,,,58.0,,,,,,50,note_on,,104.0,58.0,104.0,2611,1.3598958333333333
12377,5.0,,,,,,,55.0,,,,,,22,note_on,,87.0,55.0,87.0,2633,1.3713541666666667
12378,11.0,,,,,,,53.0,,,,,,6,note_on,,0.0,53.0,0.0,34901,18.177604166666665
12379,5.0,,,,,,,63.0,,,,,,1,note_on,,127.0,63.0,127.0,2634,1.371875
12380,11.0,,,,,,,58.0,,,,,,30,note_on,,0.0,58.0,0.0,34931,18.193229166666665
12381,1.0,,,,,,,22.0,,,,,,4,note_on,,0.0,22.0,0.0,6999,3.6453124999999997
12382,9.0,,,,,,,61.0,,,,,,1,note_on,,0.0,61.0,0.0,168369,87.6921875
12383,11.0,,0.0,,,,,,,,,,,4,control_change,121.0,,,,34935,18.1953125
12384,11.0,,0.0,,,,,,,,,,,0,control_change,121.0,,,,34935,18.1953125
12385,11.0,,32.0,,,,,,,,,,,1,control_change,0.0,,,,34936,18.195833333333333
12386,11.0,,32.0,,,,,,,,,,,0,control_change,0.0,,,,34936,18.195833333333333
12387,9.0,,,,,,,44.0,,,,,,1,note_on,,0.0,44.0,0.0,168370,87.69270833333333
12388,1.0,,,,,,,27.0,,,,,,0,note_on,,127.0,27.0,127.0,6999,3.6453124999999997
12389,7.0,,,,,,,82.0,,,,,,0,note_on,,127.0,82.0,127.0,5057,2.6338541666666666
12390,8.0,,,,,,,39.0,,,,,,0,note_on,,115.0,39.0,115.0,26462,13.782291666666666
12391,8.0,,,,,,,87.0,,,,,,0,note_on,,45.0,87.0,45.0,26462,13.782291666666666
12392,8.0,,,,,,,70.0,,,,,,0,note_on,,127.0,70.0,127.0,26462,13.782291666666666
12393,9.0,,,,,,,57.0,,,,,,0,note_on,,100.0,57.0,100.0,168370,87.69270833333333
12394,9.0,,,,,,,42.0,,,,,,0,note_on,,85.0,42.0,85.0,168370,87.69270833333333
12395,9.0,,,,,,,70.0,,,,,,0,note_on,,40.0,70.0,40.0,168370,87.69270833333333
12396,9.0,,,,,,,36.0,,,,,,0,note_on,,126.0,36.0,126.0,168370,87.69270833333333
12397,9.0,,,,,,,35.0,,,,,,0,note_on,,60.0,35.0,60.0,168370,87.69270833333333
12398,11.0,,,,,,,70.0,,,,,,0,note_on,,126.0,70.0,126.0,34936,18.195833333333333
12399,11.0,,,,,,,67.0,,,,,,0,note_on,,127.0,67.0,127.0,34936,18.195833333333333
12400,11.0,,,,,,,63.0,,,,,,0,note_on,,127.0,63.0,127.0,34936,18.195833333333333
12401,3.0,,,,,,,79.0,,,,,,0,note_on,,127.0,79.0,127.0,57838,30.123958333333334
12402,11.0,,,,,,,,,,24.0,,,0,program_change,,,,,34936,18.195833333333333
12403,,,,,,,,,,,,,Ba ,0,lyrics,,,,,2,0.0010416666666666667
12404,11.0,,,,,,,63.0,,,,,,15,note_on,,0.0,63.0,0.0,34951,18.203645833333333
12405,9.0,,,,,,,57.0,,,,,,99,note_on,,0.0,57.0,0.0,168469,87.74427083333333
12406,8.0,,,,,,,87.0,,,,,,8,note_on,,0.0,87.0,0.0,26470,13.786458333333334
12407,9.0,,,,,,,35.0,,,,,,50,note_on,,0.0,35.0,0.0,168519,87.7703125
12408,9.0,,,,,,,36.0,,,,,,0,note_on,,0.0,36.0,0.0,168519,87.7703125
12409,9.0,,,,,,,42.0,,,,,,52,note_on,,0.0,42.0,0.0,168571,87.79739583333333
12410,9.0,,,,,,,70.0,,,,,,0,note_on,,0.0,70.0,0.0,168571,87.79739583333333
12411,10.0,,,,,,,56.0,,,,,,9,note_on,,0.0,56.0,0.0,21306,11.096875
12412,10.0,,,,,,,62.0,,,,,,4,note_on,,0.0,62.0,0.0,21310,11.098958333333334
12413,9.0,,,,,,,44.0,,,,,,3,note_on,,75.0,44.0,75.0,168574,87.79895833333333
12414,11.0,,,,,,,63.0,,,,,,157,note_on,,0.0,63.0,0.0,35108,18.285416666666666
12415,11.0,,,,,,,67.0,,,,,,10,note_on,,0.0,67.0,0.0,35118,18.290625
12416,10.0,,,,,,,53.0,,,,,,31,note_on,,0.0,53.0,0.0,21341,11.115104166666667
12417,11.0,,,,,,,70.0,,,,,,21,note_on,,0.0,70.0,0.0,35139,18.3015625
12418,10.0,,,,,,,58.0,,,,,,10,note_on,,0.0,58.0,0.0,21351,11.1203125
12419,7.0,,,,,,,82.0,,,,,,3,note_on,,0.0,82.0,0.0,5060,2.6354166666666665
12420,8.0,,,,,,,70.0,,,,,,0,note_on,,0.0,70.0,0.0,26470,13.786458333333334
12421,10.0,,0.0,,,,,,,,,,,6,control_change,121.0,,,,21357,11.1234375
12422,10.0,,0.0,,,,,,,,,,,0,control_change,121.0,,,,21357,11.1234375
12423,10.0,,32.0,,,,,,,,,,,1,control_change,0.0,,,,21358,11.123958333333333
12424,10.0,,32.0,,,,,,,,,,,0,control_change,0.0,,,,21358,11.123958333333333
12425,9.0,,,,,,,44.0,,,,,,1,note_on,,0.0,44.0,0.0,168575,87.79947916666667
12426,9.0,,,,,,,42.0,,,,,,0,note_on,,85.0,42.0,85.0,168575,87.79947916666667
12427,10.0,,,,,,,70.0,,,,,,0,note_on,,126.0,70.0,126.0,21358,11.123958333333333
12428,10.0,,,,,,,63.0,,,,,,0,note_on,,127.0,63.0,127.0,21358,11.123958333333333
12429,9.0,,,,,,,70.0,,,,,,0,note_on,,40.0,70.0,40.0,168575,87.79947916666667
12430,8.0,,,,,,,87.0,,,,,,0,note_on,,45.0,87.0,45.0,26470,13.786458333333334
12431,10.0,,,,,,,,,,24.0,,,0,program_change,,,,,21358,11.123958333333333
12432,10.0,,,,,,,67.0,,,,,,0,note_on,,127.0,67.0,127.0,21358,11.123958333333333
12433,10.0,,,,,,,63.0,,,,,,15,note_on,,0.0,63.0,0.0,21373,11.131770833333333
12434,8.0,,,,,,,87.0,,,,,,106,note_on,,0.0,87.0,0.0,26576,13.841666666666667
12435,3.0,,,,,,,79.0,,,,,,39,note_on,,0.0,79.0,0.0,57877,30.144270833333334
12436,9.0,,,,,,,70.0,,,,,,64,note_on,,0.0,70.0,0.0,168639,87.8328125
12437,12.0,,,,,,,56.0,,,,,,9,note_on,,0.0,56.0,0.0,31097,16.196354166666666
12438,12.0,,,,,,,62.0,,,,,,4,note_on,,0.0,62.0,0.0,31101,16.1984375
12439,9.0,,,,,,,42.0,,,,,,3,note_on,,0.0,42.0,0.0,168642,87.834375
12440,8.0,,,,,,,87.0,,,,,,0,note_on,,45.0,87.0,45.0,26576,13.841666666666667
12441,9.0,,,,,,,44.0,,,,,,0,note_on,,75.0,44.0,75.0,168642,87.834375
12442,9.0,,,,,,,36.0,,,,,,0,note_on,,126.0,36.0,126.0,168642,87.834375
12443,9.0,,,,,,,35.0,,,,,,0,note_on,,60.0,35.0,60.0,168642,87.834375
12444,8.0,,,,,,,87.0,,,,,,102,note_on,,0.0,87.0,0.0,26678,13.894791666666666
12445,10.0,,,,,,,63.0,,,,,,55,note_on,,0.0,63.0,0.0,21428,11.160416666666666
12446,10.0,,,,,,,67.0,,,,,,10,note_on,,0.0,67.0,0.0,21438,11.165625
12447,12.0,,,,,,,53.0,,,,,,31,note_on,,0.0,53.0,0.0,31132,16.214583333333334
12448,10.0,,,,,,,70.0,,,,,,21,note_on,,0.0,70.0,0.0,21459,11.1765625
12449,9.0,,,,,,,36.0,,,,,,5,note_on,,0.0,36.0,0.0,168647,87.83697916666667
12450,9.0,,,,,,,35.0,,,,,,0,note_on,,0.0,35.0,0.0,168647,87.83697916666667
12451,12.0,,,,,,,58.0,,,,,,5,note_on,,0.0,58.0,0.0,31137,16.2171875
12452,12.0,,0.0,,,,,,,,,,,9,control_change,121.0,,,,31146,16.221875
12453,12.0,,32.0,,,,,,,,,,,1,control_change,0.0,,,,31147,16.222395833333334
12454,9.0,,,,,,,44.0,,,,,,1,note_on,,0.0,44.0,0.0,168648,87.8375
12455,3.0,,,,,,,77.0,,,,,,0,note_on,,127.0,77.0,127.0,57877,30.144270833333334
12456,7.0,,,,,,,75.0,,,,,,0,note_on,,127.0,75.0,127.0,5060,2.6354166666666665
12457,8.0,,,,,,,63.0,,,,,,0,note_on,,127.0,63.0,127.0,26678,13.894791666666666
12458,9.0,,,,,,,39.0,,,,,,0,note_on,,125.0,39.0,125.0,168648,87.8375
12459,9.0,,,,,,,28.0,,,,,,0,note_on,,127.0,28.0,127.0,168648,87.8375
12460,9.0,,,,,,,42.0,,,,,,0,note_on,,85.0,42.0,85.0,168648,87.8375
12461,9.0,,,,,,,70.0,,,,,,0,note_on,,40.0,70.0,40.0,168648,87.8375
12462,12.0,,,,,,,67.0,,,,,,0,note_on,,127.0,67.0,127.0,31147,16.222395833333334
12463,12.0,,,,,,,63.0,,,,,,0,note_on,,127.0,63.0,127.0,31147,16.222395833333334
12464,12.0,,,,,,,70.0,,,,,,0,note_on,,126.0,70.0,126.0,31147,16.222395833333334
12465,12.0,,0.0,,,,,,,,,,,0,control_change,121.0,,,,31147,16.222395833333334
12466,12.0,,32.0,,,,,,,,,,,0,control_change,0.0,,,,31147,16.222395833333334
12467,12.0,,,,,,,,,,24.0,,,0,program_change,,,,,31147,16.222395833333334
12468,,,,,,,,,,,,,"by, ",0,lyrics,,,,,8,0.004166666666666667
12469,12.0,,,,,,,63.0,,,,,,15,note_on,,0.0,63.0,0.0,31162,16.230208333333334
12470,9.0,,,,,,,28.0,,,,,,102,note_on,,0.0,28.0,0.0,168750,87.890625
12471,9.0,,,,,,,39.0,,,,,,34,note_on,,0.0,39.0,0.0,168784,87.90833333333333
12472,9.0,,,,,,,70.0,,,,,,73,note_on,,0.0,70.0,0.0,168857,87.94635416666667
12473,9.0,,,,,,,42.0,,,,,,0,note_on,,0.0,42.0,0.0,168857,87.94635416666667
12474,8.0,,,,,,,87.0,,,,,,16,note_on,,45.0,87.0,45.0,26694,13.903125
12475,9.0,,,,,,,44.0,,,,,,0,note_on,,75.0,44.0,75.0,168857,87.94635416666667
12476,8.0,,,,,,,87.0,,,,,,114,note_on,,0.0,87.0,0.0,26808,13.9625
12477,12.0,,,,,,,63.0,,,,,,43,note_on,,0.0,63.0,0.0,31205,16.252604166666668
12478,12.0,,,,,,,67.0,,,,,,10,note_on,,0.0,67.0,0.0,31215,16.2578125
12479,12.0,,,,,,,70.0,,,,,,52,note_on,,0.0,70.0,0.0,31267,16.284895833333334
12480,9.0,,,,,,,44.0,,,,,,21,note_on,,0.0,44.0,0.0,168878,87.95729166666666
12481,9.0,,,,,,,42.0,,,,,,0,note_on,,85.0,42.0,85.0,168878,87.95729166666666
12482,9.0,,,,,,,70.0,,,,,,0,note_on,,40.0,70.0,40.0,168878,87.95729166666666
12483,9.0,,,,,,,36.0,,,,,,0,note_on,,126.0,36.0,126.0,168878,87.95729166666666
12484,9.0,,,,,,,35.0,,,,,,0,note_on,,60.0,35.0,60.0,168878,87.95729166666666
12485,7.0,,,,,,,75.0,,,,,,9,note_on,,0.0,75.0,0.0,5069,2.6401041666666667
12486,8.0,,,,,,,63.0,,,,,,0,note_on,,0.0,63.0,0.0,26808,13.9625
12487,3.0,,,,,,,77.0,,,,,,96,note_on,,0.0,77.0,0.0,57973,30.194270833333334
12488,9.0,,,,,,,36.0,,,,,,61,note_on,,0.0,36.0,0.0,168939,87.9890625
12489,9.0,,,,,,,35.0,,,,,,0,note_on,,0.0,35.0,0.0,168939,87.9890625
12490,9.0,,,,,,,70.0,,,,,,58,note_on,,0.0,70.0,0.0,168997,88.01927083333334
12491,9.0,,,,,,,42.0,,,,,,16,note_on,,0.0,42.0,0.0,169013,88.02760416666666
12492,8.0,,,,,,,87.0,,,,,,0,note_on,,45.0,87.0,45.0,26808,13.9625
12493,9.0,,,,,,,44.0,,,,,,0,note_on,,75.0,44.0,75.0,169013,88.02760416666666
12494,8.0,,,,,,,87.0,,,,,,97,note_on,,0.0,87.0,0.0,26905,14.013020833333334
12495,9.0,,,,,,,44.0,,,,,,143,note_on,,0.0,44.0,0.0,169156,88.10208333333333
12496,3.0,,,,,,,79.0,,,,,,0,note_on,,127.0,79.0,127.0,57973,30.194270833333334
12497,7.0,,,,,,,77.0,,,,,,0,note_on,,127.0,77.0,127.0,5069,2.6401041666666667
12498,8.0,,,,,,,65.0,,,,,,0,note_on,,127.0,65.0,127.0,26905,14.013020833333334
12499,9.0,,,,,,,42.0,,,,,,0,note_on,,85.0,42.0,85.0,169156,88.10208333333333
12500,9.0,,,,,,,70.0,,,,,,0,note_on,,40.0,70.0,40.0,169156,88.10208333333333
12501,,,,,,,,,,,,,ba ,0,lyrics,,,,,10,0.005208333333333333
12502,9.0,,,,,,,70.0,,,,,,224,note_on,,0.0,70.0,0.0,169380,88.21875
12503,9.0,,,,,,,42.0,,,,,,0,note_on,,0.0,42.0,0.0,169380,88.21875
12504,8.0,,,,,,,87.0,,,,,,16,note_on,,45.0,87.0,45.0,26921,14.021354166666667
12505,9.0,,,,,,,44.0,,,,,,0,note_on,,75.0,44.0,75.0,169380,88.21875
12506,8.0,,,,,,,87.0,,,,,,88,note_on,,0.0,87.0,0.0,27009,14.0671875
12507,9.0,,,,,,,44.0,,,,,,152,note_on,,0.0,44.0,0.0,169532,88.29791666666667
12508,9.0,,,,,,,42.0,,,,,,0,note_on,,85.0,42.0,85.0,169532,88.29791666666667
12509,9.0,,,,,,,70.0,,,,,,0,note_on,,40.0,70.0,40.0,169532,88.29791666666667
12510,9.0,,,,,,,36.0,,,,,,0,note_on,,126.0,36.0,126.0,169532,88.29791666666667
12511,9.0,,,,,,,35.0,,,,,,0,note_on,,60.0,35.0,60.0,169532,88.29791666666667
12512,8.0,,,,,,,65.0,,,,,,45,note_on,,0.0,65.0,0.0,27054,14.090625
12513,7.0,,,,,,,77.0,,,,,,0,note_on,,0.0,77.0,0.0,5069,2.6401041666666667
12514,9.0,,,,,,,35.0,,,,,,109,note_on,,0.0,35.0,0.0,169641,88.3546875
12515,9.0,,,,,,,36.0,,,,,,0,note_on,,0.0,36.0,0.0,169641,88.3546875
12516,3.0,,,,,,,79.0,,,,,,42,note_on,,0.0,79.0,0.0,58015,30.216145833333332
12517,9.0,,,,,,,70.0,,,,,,28,note_on,,0.0,70.0,0.0,169669,88.36927083333333
12518,9.0,,,,,,,42.0,,,,,,16,note_on,,0.0,42.0,0.0,169685,88.37760416666667
12519,9.0,,,,,,,44.0,,,,,,0,note_on,,75.0,44.0,75.0,169685,88.37760416666667
12520,9.0,,,,,,,44.0,,,,,,240,note_on,,0.0,44.0,0.0,169925,88.50260416666667
12521,3.0,,,,,,,77.0,,,,,,0,note_on,,127.0,77.0,127.0,58015,30.216145833333332
12522,7.0,,,,,,,70.0,,,,,,0,note_on,,127.0,70.0,127.0,5069,2.6401041666666667
12523,8.0,,,,,,,87.0,,,,,,0,note_on,,45.0,87.0,45.0,27054,14.090625
12524,8.0,,,,,,,58.0,,,,,,0,note_on,,127.0,58.0,127.0,27054,14.090625
12525,9.0,,,,,,,42.0,,,,,,0,note_on,,85.0,42.0,85.0,169925,88.50260416666667
12526,9.0,,,,,,,70.0,,,,,,0,note_on,,40.0,70.0,40.0,169925,88.50260416666667
12527,9.0,,,,,,,39.0,,,,,,0,note_on,,127.0,39.0,127.0,169925,88.50260416666667
12528,9.0,,,,,,,28.0,,,,,,0,note_on,,127.0,28.0,127.0,169925,88.50260416666667
12529,11.0,,,,,,,67.0,,,,,,0,note_on,,127.0,67.0,127.0,35139,18.3015625
12530,11.0,,,,,,,72.0,,,,,,0,note_on,,127.0,72.0,127.0,35139,18.3015625
12531,11.0,,,,,,,63.0,,,,,,0,note_on,,127.0,63.0,127.0,35139,18.3015625
12532,,,,,,,,,,,,,"by, ",0,lyrics,,,,,7,0.0036458333333333334
12533,8.0,,,,,,,87.0,,,,,,103,note_on,,0.0,87.0,0.0,27157,14.144270833333334
12534,9.0,,,,,,,39.0,,,,,,20,note_on,,0.0,39.0,0.0,169945,88.51302083333333
12535,9.0,,,,,,,28.0,,,,,,2,note_on,,0.0,28.0,0.0,169947,88.5140625
12536,9.0,,,,,,,42.0,,,,,,99,note_on,,0.0,42.0,0.0,170046,88.565625
12537,9.0,,,,,,,70.0,,,,,,0,note_on,,0.0,70.0,0.0,170046,88.565625
12538,3.0,,,,,,,77.0,,,,,,7,note_on,,0.0,77.0,0.0,58022,30.219791666666666
12539,9.0,,,,,,,44.0,,,,,,9,note_on,,75.0,44.0,75.0,170055,88.5703125
12540,11.0,,,,,,,63.0,,,,,,125,note_on,,0.0,63.0,0.0,35264,18.366666666666667
12541,11.0,,,,,,,72.0,,,,,,15,note_on,,0.0,72.0,0.0,35279,18.374479166666667
12542,11.0,,,,,,,67.0,,,,,,8,note_on,,0.0,67.0,0.0,35287,18.378645833333334
12543,9.0,,,,,,,44.0,,,,,,92,note_on,,0.0,44.0,0.0,170147,88.61822916666667
12544,3.0,,,,,,,79.0,,,,,,0,note_on,,127.0,79.0,127.0,58022,30.219791666666666
12545,8.0,,,,,,,87.0,,,,,,0,note_on,,45.0,87.0,45.0,27157,14.144270833333334
12546,9.0,,,,,,,42.0,,,,,,0,note_on,,85.0,42.0,85.0,170147,88.61822916666667
12547,9.0,,,,,,,70.0,,,,,,0,note_on,,40.0,70.0,40.0,170147,88.61822916666667
12548,10.0,,,,,,,67.0,,,,,,0,note_on,,127.0,67.0,127.0,21459,11.1765625
12549,10.0,,,,,,,72.0,,,,,,0,note_on,,127.0,72.0,127.0,21459,11.1765625
12550,10.0,,,,,,,63.0,,,,,,0,note_on,,127.0,63.0,127.0,21459,11.1765625
12551,11.0,,,,,,,67.0,,,,,,0,note_on,,127.0,67.0,127.0,35287,18.378645833333334
12552,11.0,,,,,,,70.0,,,,,,0,note_on,,118.0,70.0,118.0,35287,18.378645833333334
12553,11.0,,,,,,,63.0,,,,,,0,note_on,,127.0,63.0,127.0,35287,18.378645833333334
12554,,,,,,,,,,,,,ba ,0,lyrics,,,,,7,0.0036458333333333334
12555,8.0,,,,,,,87.0,,,,,,113,note_on,,0.0,87.0,0.0,27270,14.203125
12556,7.0,,,,,,,70.0,,,,,,17,note_on,,0.0,70.0,0.0,5086,2.6489583333333333
12557,8.0,,,,,,,58.0,,,,,,0,note_on,,0.0,58.0,0.0,27270,14.203125
12558,9.0,,,,,,,70.0,,,,,,94,note_on,,0.0,70.0,0.0,170241,88.6671875
12559,9.0,,,,,,,42.0,,,,,,16,note_on,,0.0,42.0,0.0,170257,88.67552083333334
12560,9.0,,,,,,,44.0,,,,,,0,note_on,,75.0,44.0,75.0,170257,88.67552083333334
12561,10.0,,,,,,,63.0,,,,,,125,note_on,,0.0,63.0,0.0,21584,11.241666666666667
12562,10.0,,,,,,,72.0,,,,,,15,note_on,,0.0,72.0,0.0,21599,11.249479166666667
12563,10.0,,,,,,,67.0,,,,,,8,note_on,,0.0,67.0,0.0,21607,11.253645833333334
12564,11.0,,,,,,,70.0,,,,,,38,note_on,,0.0,70.0,0.0,35325,18.3984375
12565,11.0,,,,,,,63.0,,,,,,0,note_on,,0.0,63.0,0.0,35325,18.3984375
12566,11.0,,,,,,,67.0,,,,,,3,note_on,,0.0,67.0,0.0,35328,18.4
12567,9.0,,,,,,,44.0,,,,,,51,note_on,,0.0,44.0,0.0,170308,88.70208333333333
12568,7.0,,,,,,,82.0,,,,,,0,note_on,,127.0,82.0,127.0,5086,2.6489583333333333
12569,8.0,,,,,,,70.0,,,,,,0,note_on,,127.0,70.0,127.0,27270,14.203125
12570,9.0,,,,,,,42.0,,,,,,0,note_on,,85.0,42.0,85.0,170308,88.70208333333333
12571,9.0,,,,,,,70.0,,,,,,0,note_on,,40.0,70.0,40.0,170308,88.70208333333333
12572,9.0,,,,,,,36.0,,,,,,0,note_on,,126.0,36.0,126.0,170308,88.70208333333333
12573,9.0,,,,,,,35.0,,,,,,0,note_on,,60.0,35.0,60.0,170308,88.70208333333333
12574,10.0,,,,,,,67.0,,,,,,0,note_on,,127.0,67.0,127.0,21607,11.253645833333334
12575,10.0,,,,,,,70.0,,,,,,0,note_on,,118.0,70.0,118.0,21607,11.253645833333334
12576,10.0,,,,,,,63.0,,,,,,0,note_on,,127.0,63.0,127.0,21607,11.253645833333334
12577,12.0,,,,,,,67.0,,,,,,0,note_on,,127.0,67.0,127.0,31267,16.284895833333334
12578,12.0,,,,,,,72.0,,,,,,0,note_on,,127.0,72.0,127.0,31267,16.284895833333334
12579,12.0,,,,,,,63.0,,,,,,0,note_on,,127.0,63.0,127.0,31267,16.284895833333334
12580,9.0,,,,,,,35.0,,,,,,172,note_on,,0.0,35.0,0.0,170480,88.79166666666667
12581,9.0,,,,,,,36.0,,,,,,0,note_on,,0.0,36.0,0.0,170480,88.79166666666667
12582,3.0,,,,,,,79.0,,,,,,43,note_on,,0.0,79.0,0.0,58065,30.2421875
12583,9.0,,,,,,,42.0,,,,,,9,note_on,,0.0,42.0,0.0,170489,88.79635416666666
12584,9.0,,,,,,,70.0,,,,,,0,note_on,,0.0,70.0,0.0,170489,88.79635416666666
12585,9.0,,,,,,,44.0,,,,,,16,note_on,,75.0,44.0,75.0,170505,88.8046875
12586,12.0,,,,,,,63.0,,,,,,125,note_on,,0.0,63.0,0.0,31392,16.35
12587,12.0,,,,,,,72.0,,,,,,15,note_on,,0.0,72.0,0.0,31407,16.3578125
12588,12.0,,,,,,,67.0,,,,,,8,note_on,,0.0,67.0,0.0,31415,16.361979166666668
12589,10.0,,,,,,,63.0,,,,,,38,note_on,,0.0,63.0,0.0,21645,11.2734375
12590,10.0,,,,,,,70.0,,,,,,0,note_on,,0.0,70.0,0.0,21645,11.2734375
12591,10.0,,,,,,,67.0,,,,,,3,note_on,,0.0,67.0,0.0,21648,11.275
12592,9.0,,,,,,,44.0,,,,,,51,note_on,,0.0,44.0,0.0,170556,88.83125
12593,3.0,,,,,,,77.0,,,,,,0,note_on,,127.0,77.0,127.0,58065,30.2421875
12594,8.0,,,,,,,87.0,,,,,,0,note_on,,45.0,87.0,45.0,27270,14.203125
12595,9.0,,,,,,,42.0,,,,,,0,note_on,,85.0,42.0,85.0,170556,88.83125
12596,9.0,,,,,,,70.0,,,,,,0,note_on,,40.0,70.0,40.0,170556,88.83125
12597,12.0,,,,,,,67.0,,,,,,0,note_on,,127.0,67.0,127.0,31415,16.361979166666668
12598,12.0,,,,,,,70.0,,,,,,0,note_on,,118.0,70.0,118.0,31415,16.361979166666668
12599,12.0,,,,,,,63.0,,,,,,0,note_on,,127.0,63.0,127.0,31415,16.361979166666668
12600,,,,,,,,,,,,,by ,0,lyrics,,,,,10,0.005208333333333333
12601,7.0,,,,,,,82.0,,,,,,41,note_on,,0.0,82.0,0.0,5127,2.6703125
12602,8.0,,,,,,,70.0,,,,,,0,note_on,,0.0,70.0,0.0,27270,14.203125
12603,8.0,,,,,,,87.0,,,,,,63,note_on,,0.0,87.0,0.0,27333,14.2359375
12604,9.0,,,,,,,70.0,,,,,,120,note_on,,0.0,70.0,0.0,170676,88.89375
12605,9.0,,,,,,,42.0,,,,,,16,note_on,,0.0,42.0,0.0,170692,88.90208333333334
12606,8.0,,,,,,,87.0,,,,,,0,note_on,,45.0,87.0,45.0,27333,14.2359375
12607,9.0,,,,,,,44.0,,,,,,0,note_on,,75.0,44.0,75.0,170692,88.90208333333334
12608,9.0,,,,,,,36.0,,,,,,0,note_on,,126.0,36.0,126.0,170692,88.90208333333334
12609,9.0,,,,,,,35.0,,,,,,0,note_on,,60.0,35.0,60.0,170692,88.90208333333334
12610,8.0,,,,,,,87.0,,,,,,123,note_on,,0.0,87.0,0.0,27456,14.299999999999999
12611,12.0,,,,,,,70.0,,,,,,63,note_on,,0.0,70.0,0.0,31478,16.394791666666666
12612,12.0,,,,,,,63.0,,,,,,0,note_on,,0.0,63.0,0.0,31478,16.394791666666666
12613,12.0,,,,,,,67.0,,,,,,3,note_on,,0.0,67.0,0.0,31481,16.396354166666665
12614,9.0,,,,,,,35.0,,,,,,35,note_on,,0.0,35.0,0.0,170727,88.9203125
12615,9.0,,,,,,,36.0,,,,,,0,note_on,,0.0,36.0,0.0,170727,88.9203125
12616,9.0,,,,,,,44.0,,,,,,16,note_on,,0.0,44.0,0.0,170743,88.92864583333333
12617,7.0,,,,,,,75.0,,,,,,0,note_on,,127.0,75.0,127.0,5127,2.6703125
12618,8.0,,,,,,,63.0,,,,,,0,note_on,,127.0,63.0,127.0,27456,14.299999999999999
12619,9.0,,,,,,,42.0,,,,,,0,note_on,,85.0,42.0,85.0,170743,88.92864583333333
12620,9.0,,,,,,,70.0,,,,,,0,note_on,,40.0,70.0,40.0,170743,88.92864583333333
12621,9.0,,,,,,,39.0,,,,,,0,note_on,,125.0,39.0,125.0,170743,88.92864583333333
12622,9.0,,,,,,,28.0,,,,,,0,note_on,,127.0,28.0,127.0,170743,88.92864583333333
12623,9.0,,,,,,,28.0,,,,,,117,note_on,,0.0,28.0,0.0,170860,88.98958333333333
12624,9.0,,,,,,,39.0,,,,,,34,note_on,,0.0,39.0,0.0,170894,89.00729166666666
12625,9.0,,,,,,,42.0,,,,,,73,note_on,,0.0,42.0,0.0,170967,89.0453125
12626,9.0,,,,,,,70.0,,,,,,0,note_on,,0.0,70.0,0.0,170967,89.0453125
12627,3.0,,,,,,,82.0,,,,,,16,note_on,,127.0,82.0,127.0,58081,30.250520833333333
12628,8.0,,,,,,,87.0,,,,,,0,note_on,,45.0,87.0,45.0,27456,14.299999999999999
12629,9.0,,,,,,,44.0,,,,,,0,note_on,,75.0,44.0,75.0,170967,89.0453125
12630,,,,,,,,,,,,,ohhh ,0,lyrics,,,,,4,0.0020833333333333333
12631,,,,,,,,,,,,,,0,lyrics,,,,,4,0.0020833333333333333
12632,3.0,,,,,,,77.0,,,,,,41,note_on,,0.0,77.0,0.0,58122,30.271874999999998
12633,8.0,,,,,,,87.0,,,,,,85,note_on,,0.0,87.0,0.0,27541,14.344270833333333
12634,9.0,,,,,,,44.0,,,,,,114,note_on,,0.0,44.0,0.0,171081,89.1046875
12635,9.0,,,,,,,42.0,,,,,,0,note_on,,85.0,42.0,85.0,171081,89.1046875
12636,9.0,,,,,,,70.0,,,,,,0,note_on,,40.0,70.0,40.0,171081,89.1046875
12637,9.0,,,,,,,36.0,,,,,,0,note_on,,126.0,36.0,126.0,171081,89.1046875
12638,9.0,,,,,,,35.0,,,,,,0,note_on,,60.0,35.0,60.0,171081,89.1046875
12639,8.0,,,,,,,63.0,,,,,,62,note_on,,0.0,63.0,0.0,27603,14.3765625
12640,7.0,,,,,,,75.0,,,,,,0,note_on,,0.0,75.0,0.0,5127,2.6703125
12641,9.0,,,,,,,35.0,,,,,,104,note_on,,0.0,35.0,0.0,171185,89.15885416666667
12642,9.0,,,,,,,36.0,,,,,,0,note_on,,0.0,36.0,0.0,171185,89.15885416666667
12643,9.0,,,,,,,70.0,,,,,,58,note_on,,0.0,70.0,0.0,171243,89.1890625
12644,9.0,,,,,,,42.0,,,,,,16,note_on,,0.0,42.0,0.0,171259,89.19739583333333
12645,9.0,,,,,,,44.0,,,,,,0,note_on,,75.0,44.0,75.0,171259,89.19739583333333
12646,9.0,,,,,,,44.0,,,,,,240,note_on,,0.0,44.0,0.0,171499,89.32239583333333
12647,7.0,,,,,,,77.0,,,,,,0,note_on,,127.0,77.0,127.0,5127,2.6703125
12648,8.0,,,,,,,87.0,,,,,,0,note_on,,45.0,87.0,45.0,27603,14.3765625
12649,8.0,,,,,,,65.0,,,,,,0,note_on,,127.0,65.0,127.0,27603,14.3765625
12650,9.0,,,,,,,42.0,,,,,,0,note_on,,85.0,42.0,85.0,171499,89.32239583333333
12651,9.0,,,,,,,70.0,,,,,,0,note_on,,40.0,70.0,40.0,171499,89.32239583333333
12652,8.0,,,,,,,87.0,,,,,,121,note_on,,0.0,87.0,0.0,27724,14.439583333333333
12653,9.0,,,,,,,70.0,,,,,,103,note_on,,0.0,70.0,0.0,171602,89.37604166666667
12654,9.0,,,,,,,44.0,,,,,,16,note_on,,75.0,44.0,75.0,171618,89.384375
12655,9.0,,,,,,,44.0,,,,,,240,note_on,,0.0,44.0,0.0,171858,89.509375
12656,8.0,,,,,,,87.0,,,,,,0,note_on,,45.0,87.0,45.0,27724,14.439583333333333
12657,9.0,,,,,,,42.0,,,,,,0,note_on,,85.0,42.0,85.0,171858,89.509375
12658,9.0,,,,,,,70.0,,,,,,0,note_on,,40.0,70.0,40.0,171858,89.509375
12659,9.0,,,,,,,36.0,,,,,,0,note_on,,126.0,36.0,126.0,171858,89.509375
12660,9.0,,,,,,,35.0,,,,,,0,note_on,,60.0,35.0,60.0,171858,89.509375
12661,3.0,,,,,,,82.0,,,,,,6,note_on,,0.0,82.0,0.0,58128,30.275
12662,7.0,,,,,,,77.0,,,,,,50,note_on,,0.0,77.0,0.0,5177,2.6963541666666666
12663,8.0,,,,,,,65.0,,,,,,0,note_on,,0.0,65.0,0.0,27724,14.439583333333333
12664,8.0,,,,,,,87.0,,,,,,71,note_on,,0.0,87.0,0.0,27795,14.4765625
12665,9.0,,,,,,,35.0,,,,,,27,note_on,,0.0,35.0,0.0,171885,89.5234375
12666,9.0,,,,,,,36.0,,,,,,0,note_on,,0.0,36.0,0.0,171885,89.5234375
12667,9.0,,,,,,,70.0,,,,,,70,note_on,,0.0,70.0,0.0,171955,89.55989583333333
12668,9.0,,,,,,,42.0,,,,,,16,note_on,,0.0,42.0,0.0,171971,89.56822916666667
12669,9.0,,,,,,,44.0,,,,,,0,note_on,,75.0,44.0,75.0,171971,89.56822916666667
12670,9.0,,,,,,,44.0,,,,,,240,note_on,,0.0,44.0,0.0,172211,89.69322916666667
12671,3.0,,,,,,,75.0,,,,,,0,note_on,,127.0,75.0,127.0,58128,30.275
12672,7.0,,,,,,,75.0,,,,,,0,note_on,,127.0,75.0,127.0,5177,2.6963541666666666
12673,8.0,,,,,,,87.0,,,,,,0,note_on,,45.0,87.0,45.0,27795,14.4765625
12674,8.0,,,,,,,63.0,,,,,,0,note_on,,127.0,63.0,127.0,27795,14.4765625
12675,9.0,,,,,,,42.0,,,,,,0,note_on,,85.0,42.0,85.0,172211,89.69322916666667
12676,9.0,,,,,,,70.0,,,,,,0,note_on,,40.0,70.0,40.0,172211,89.69322916666667
12677,9.0,,,,,,,39.0,,,,,,0,note_on,,127.0,39.0,127.0,172211,89.69322916666667
12678,9.0,,,,,,,28.0,,,,,,0,note_on,,127.0,28.0,127.0,172211,89.69322916666667
12679,,,,,,,,,,,,,Like ,0,lyrics,,,,,7,0.0036458333333333334
12680,9.0,,,,,,,39.0,,,,,,123,note_on,,0.0,39.0,0.0,172334,89.75729166666666
12681,8.0,,,,,,,87.0,,,,,,0,note_on,,0.0,87.0,0.0,27795,14.4765625
12682,9.0,,,,,,,28.0,,,,,,2,note_on,,0.0,28.0,0.0,172336,89.75833333333333
12683,9.0,,,,,,,70.0,,,,,,99,note_on,,0.0,70.0,0.0,172435,89.80989583333333
12684,9.0,,,,,,,42.0,,,,,,0,note_on,,0.0,42.0,0.0,172435,89.80989583333333
12685,9.0,,,,,,,42.0,,,,,,16,note_on,,0.0,42.0,0.0,172451,89.81822916666667
12686,9.0,,,,,,,44.0,,,,,,0,note_on,,75.0,44.0,75.0,172451,89.81822916666667
12687,9.0,,,,,,,44.0,,,,,,240,note_on,,0.0,44.0,0.0,172691,89.94322916666667
12688,8.0,,,,,,,87.0,,,,,,0,note_on,,45.0,87.0,45.0,27795,14.4765625
12689,9.0,,,,,,,42.0,,,,,,0,note_on,,85.0,42.0,85.0,172691,89.94322916666667
12690,9.0,,,,,,,61.0,,,,,,0,note_on,,100.0,61.0,100.0,172691,89.94322916666667
12691,9.0,,,,,,,70.0,,,,,,0,note_on,,40.0,70.0,40.0,172691,89.94322916666667
12692,7.0,,,,,,,75.0,,,,,,84,note_on,,0.0,75.0,0.0,5261,2.740104166666667
12693,8.0,,,,,,,63.0,,,,,,0,note_on,,0.0,63.0,0.0,27795,14.4765625
12694,8.0,,,,,,,87.0,,,,,,28,note_on,,0.0,87.0,0.0,27823,14.491145833333333
12695,9.0,,,,,,,61.0,,,,,,2,note_on,,0.0,61.0,0.0,172693,89.94427083333333
12696,9.0,,,,,,,61.0,,,,,,6,note_on,,100.0,61.0,100.0,172699,89.94739583333333
12697,3.0,,,,,,,75.0,,,,,,23,note_on,,0.0,75.0,0.0,58151,30.286979166666665
12698,5.0,,,,,,,55.0,,,,,,76,note_on,,0.0,55.0,0.0,2710,1.4114583333333333
12699,9.0,,,,,,,70.0,,,,,,5,note_on,,0.0,70.0,0.0,172704,89.95
12700,5.0,,,,,,,58.0,,,,,,6,note_on,,0.0,58.0,0.0,2716,1.4145833333333333
12701,5.0,,,,,,,63.0,,,,,,4,note_on,,0.0,63.0,0.0,2720,1.4166666666666667
12702,9.0,,,,,,,61.0,,,,,,0,note_on,,0.0,61.0,0.0,172704,89.95
12703,9.0,,,,,,,42.0,,,,,,6,note_on,,0.0,42.0,0.0,172710,89.953125
12704,9.0,,,,,,,44.0,,,,,,0,note_on,,75.0,44.0,75.0,172710,89.953125
12705,9.0,,,,,,,61.0,,,,,,0,note_on,,100.0,61.0,100.0,172710,89.953125
12706,9.0,,,,,,,61.0,,,,,,114,note_on,,0.0,61.0,0.0,172824,90.0125
12707,9.0,,,,,,,61.0,,,,,,6,note_on,,100.0,61.0,100.0,172830,90.015625
12708,8.0,,,,,,,39.0,,,,,,43,note_on,,0.0,39.0,0.0,27866,14.513541666666667
12709,1.0,,,,,,,27.0,,,,,,24,note_on,,0.0,27.0,0.0,7023,3.6578125
12710,5.0,,,,,,,63.0,,,,,,2,note_on,,113.0,63.0,113.0,2722,1.4177083333333333
12711,5.0,,,,,,,55.0,,,,,,11,note_on,,94.0,55.0,94.0,2733,1.4234375
12712,5.0,,,,,,,60.0,,,,,,10,note_on,,115.0,60.0,115.0,2743,1.4286458333333334
12713,9.0,,,,,,,61.0,,,,,,24,note_on,,0.0,61.0,0.0,172854,90.028125
12714,9.0,,,,,,,44.0,,,,,,6,note_on,,0.0,44.0,0.0,172860,90.03125
12715,1.0,,,,,,,36.0,,,,,,0,note_on,,127.0,36.0,127.0,7023,3.6578125
12716,3.0,,,,,,,79.0,,,,,,0,note_on,,127.0,79.0,127.0,58151,30.286979166666665
12717,7.0,,,,,,,82.0,,,,,,0,note_on,,127.0,82.0,127.0,5261,2.740104166666667
12718,8.0,,,,,,,48.0,,,,,,0,note_on,,126.0,48.0,126.0,27866,14.513541666666667
12719,8.0,,,,,,,70.0,,,,,,0,note_on,,127.0,70.0,127.0,27866,14.513541666666667
12720,9.0,,,,,,,61.0,,,,,,0,note_on,,100.0,61.0,100.0,172860,90.03125
12721,9.0,,,,,,,42.0,,,,,,0,note_on,,85.0,42.0,85.0,172860,90.03125
12722,9.0,,,,,,,70.0,,,,,,0,note_on,,40.0,70.0,40.0,172860,90.03125
12723,9.0,,,,,,,36.0,,,,,,0,note_on,,126.0,36.0,126.0,172860,90.03125
12724,9.0,,,,,,,35.0,,,,,,0,note_on,,60.0,35.0,60.0,172860,90.03125
12725,11.0,,,,,,,63.0,,,,,,0,note_on,,127.0,63.0,127.0,35328,18.4
12726,11.0,,,,,,,60.0,,,,,,0,note_on,,127.0,60.0,127.0,35328,18.4
12727,11.0,,,,,,,67.0,,,,,,0,note_on,,127.0,67.0,127.0,35328,18.4
12728,,,,,,,,,,,,,ba ,0,lyrics,,,,,-1,-0.0005208333333333333
12729,9.0,,,,,,,61.0,,,,,,114,note_on,,0.0,61.0,0.0,172974,90.090625
12730,9.0,,,,,,,35.0,,,,,,58,note_on,,0.0,35.0,0.0,173032,90.12083333333334
12731,9.0,,,,,,,36.0,,,,,,0,note_on,,0.0,36.0,0.0,173032,90.12083333333334
12732,9.0,,,,,,,70.0,,,,,,52,note_on,,0.0,70.0,0.0,173084,90.14791666666666
12733,9.0,,,,,,,42.0,,,,,,0,note_on,,0.0,42.0,0.0,173084,90.14791666666666
12734,8.0,,,,,,,87.0,,,,,,16,note_on,,45.0,87.0,45.0,27882,14.521875
12735,9.0,,,,,,,44.0,,,,,,0,note_on,,75.0,44.0,75.0,173084,90.14791666666666
12736,8.0,,,,,,,87.0,,,,,,106,note_on,,0.0,87.0,0.0,27988,14.577083333333333
12737,11.0,,,,,,,60.0,,,,,,58,note_on,,0.0,60.0,0.0,35386,18.430208333333333
12738,11.0,,,,,,,63.0,,,,,,32,note_on,,0.0,63.0,0.0,35418,18.446875
12739,11.0,,,,,,,67.0,,,,,,6,note_on,,0.0,67.0,0.0,35424,18.45
12740,9.0,,,,,,,44.0,,,,,,38,note_on,,0.0,44.0,0.0,173122,90.16770833333334
12741,9.0,,,,,,,42.0,,,,,,0,note_on,,85.0,42.0,85.0,173122,90.16770833333334
12742,9.0,,,,,,,70.0,,,,,,0,note_on,,40.0,70.0,40.0,173122,90.16770833333334
12743,10.0,,,,,,,63.0,,,,,,0,note_on,,127.0,63.0,127.0,21648,11.275
12744,10.0,,,,,,,60.0,,,,,,0,note_on,,127.0,60.0,127.0,21648,11.275
12745,10.0,,,,,,,67.0,,,,,,0,note_on,,127.0,67.0,127.0,21648,11.275
12746,8.0,,,,,,,70.0,,,,,,51,note_on,,0.0,70.0,0.0,28039,14.603645833333333
12747,7.0,,,,,,,82.0,,,,,,0,note_on,,0.0,82.0,0.0,5261,2.740104166666667
12748,3.0,,,,,,,79.0,,,,,,104,note_on,,0.0,79.0,0.0,58255,30.341145833333332
12749,9.0,,,,,,,70.0,,,,,,69,note_on,,0.0,70.0,0.0,173191,90.20364583333333
12750,9.0,,,,,,,42.0,,,,,,16,note_on,,0.0,42.0,0.0,173207,90.21197916666667
12751,9.0,,,,,,,44.0,,,,,,0,note_on,,75.0,44.0,75.0,173207,90.21197916666667
12752,9.0,,,,,,,36.0,,,,,,0,note_on,,126.0,36.0,126.0,173207,90.21197916666667
12753,9.0,,,,,,,35.0,,,,,,0,note_on,,60.0,35.0,60.0,173207,90.21197916666667
12754,10.0,,,,,,,60.0,,,,,,164,note_on,,0.0,60.0,0.0,21812,11.360416666666666
12755,10.0,,,,,,,63.0,,,,,,32,note_on,,0.0,63.0,0.0,21844,11.377083333333333
12756,10.0,,,,,,,67.0,,,,,,6,note_on,,0.0,67.0,0.0,21850,11.380208333333334
12757,9.0,,,,,,,36.0,,,,,,22,note_on,,0.0,36.0,0.0,173229,90.2234375
12758,9.0,,,,,,,35.0,,,,,,0,note_on,,0.0,35.0,0.0,173229,90.2234375
12759,9.0,,,,,,,44.0,,,,,,16,note_on,,0.0,44.0,0.0,173245,90.23177083333333
12760,3.0,,,,,,,77.0,,,,,,0,note_on,,127.0,77.0,127.0,58255,30.341145833333332
12761,7.0,,,,,,,75.0,,,,,,0,note_on,,127.0,75.0,127.0,5261,2.740104166666667
12762,7.0,,,,,,,78.0,,,,,,0,note_on,,72.0,78.0,72.0,5261,2.740104166666667
12763,8.0,,,,,,,87.0,,,,,,0,note_on,,45.0,87.0,45.0,28039,14.603645833333333
12764,8.0,,,,,,,63.0,,,,,,0,note_on,,127.0,63.0,127.0,28039,14.603645833333333
12765,8.0,,,,,,,66.0,,,,,,0,note_on,,72.0,66.0,72.0,28039,14.603645833333333
12766,9.0,,,,,,,42.0,,,,,,0,note_on,,85.0,42.0,85.0,173245,90.23177083333333
12767,9.0,,,,,,,70.0,,,,,,0,note_on,,40.0,70.0,40.0,173245,90.23177083333333
12768,9.0,,,,,,,39.0,,,,,,0,note_on,,125.0,39.0,125.0,173245,90.23177083333333
12769,9.0,,,,,,,28.0,,,,,,0,note_on,,127.0,28.0,127.0,173245,90.23177083333333
12770,12.0,,,,,,,63.0,,,,,,0,note_on,,127.0,63.0,127.0,31481,16.396354166666665
12771,12.0,,,,,,,60.0,,,,,,0,note_on,,127.0,60.0,127.0,31481,16.396354166666665
12772,12.0,,,,,,,67.0,,,,,,0,note_on,,127.0,67.0,127.0,31481,16.396354166666665
12773,,,,,,,,,,,,,"by, ",0,lyrics,,,,,7,0.0036458333333333334
12774,8.0,,,,,,,66.0,,,,,,48,note_on,,0.0,66.0,0.0,28087,14.628645833333334
12775,7.0,,,,,,,78.0,,,,,,0,note_on,,0.0,78.0,0.0,5261,2.740104166666667
12776,9.0,,,,,,,28.0,,,,,,69,note_on,,0.0,28.0,0.0,173314,90.26770833333333
12777,8.0,,,,,,,87.0,,,,,,10,note_on,,0.0,87.0,0.0,28097,14.633854166666666
12778,9.0,,,,,,,39.0,,,,,,24,note_on,,0.0,39.0,0.0,173338,90.28020833333333
12779,9.0,,,,,,,42.0,,,,,,73,note_on,,0.0,42.0,0.0,173411,90.31822916666667
12780,9.0,,,,,,,70.0,,,,,,0,note_on,,0.0,70.0,0.0,173411,90.31822916666667
12781,9.0,,,,,,,44.0,,,,,,16,note_on,,75.0,44.0,75.0,173427,90.3265625
12782,12.0,,,,,,,60.0,,,,,,164,note_on,,0.0,60.0,0.0,31645,16.481770833333332
12783,12.0,,,,,,,63.0,,,,,,32,note_on,,0.0,63.0,0.0,31677,16.4984375
12784,12.0,,,,,,,67.0,,,,,,6,note_on,,0.0,67.0,0.0,31683,16.5015625
12785,9.0,,,,,,,44.0,,,,,,38,note_on,,0.0,44.0,0.0,173465,90.34635416666667
12786,8.0,,,,,,,87.0,,,,,,0,note_on,,45.0,87.0,45.0,28097,14.633854166666666
12787,9.0,,,,,,,42.0,,,,,,0,note_on,,85.0,42.0,85.0,173465,90.34635416666667
12788,9.0,,,,,,,70.0,,,,,,0,note_on,,40.0,70.0,40.0,173465,90.34635416666667
12789,9.0,,,,,,,36.0,,,,,,0,note_on,,126.0,36.0,126.0,173465,90.34635416666667
12790,9.0,,,,,,,35.0,,,,,,0,note_on,,60.0,35.0,60.0,173465,90.34635416666667
12791,7.0,,,,,,,75.0,,,,,,40,note_on,,0.0,75.0,0.0,5301,2.7609375
12792,8.0,,,,,,,63.0,,,,,,0,note_on,,0.0,63.0,0.0,28097,14.633854166666666
12793,8.0,,,,,,,87.0,,,,,,90,note_on,,0.0,87.0,0.0,28187,14.680729166666666
12794,3.0,,,,,,,77.0,,,,,,2,note_on,,0.0,77.0,0.0,58257,30.342187499999998
12795,9.0,,,,,,,35.0,,,,,,34,note_on,,0.0,35.0,0.0,173499,90.3640625
12796,9.0,,,,,,,36.0,,,,,,0,note_on,,0.0,36.0,0.0,173499,90.3640625
12797,9.0,,,,,,,70.0,,,,,,58,note_on,,0.0,70.0,0.0,173557,90.39427083333334
12798,9.0,,,,,,,42.0,,,,,,16,note_on,,0.0,42.0,0.0,173573,90.40260416666666
12799,9.0,,,,,,,44.0,,,,,,0,note_on,,75.0,44.0,75.0,173573,90.40260416666666
12800,9.0,,,,,,,44.0,,,,,,240,note_on,,0.0,44.0,0.0,173813,90.52760416666666
12801,3.0,,,,,,,79.0,,,,,,0,note_on,,127.0,79.0,127.0,58257,30.342187499999998
12802,7.0,,,,,,,77.0,,,,,,0,note_on,,127.0,77.0,127.0,5301,2.7609375
12803,8.0,,,,,,,65.0,,,,,,0,note_on,,127.0,65.0,127.0,28187,14.680729166666666
12804,9.0,,,,,,,42.0,,,,,,0,note_on,,85.0,42.0,85.0,173813,90.52760416666666
12805,9.0,,,,,,,70.0,,,,,,0,note_on,,40.0,70.0,40.0,173813,90.52760416666666
12806,,,,,,,,,,,,,ba ,0,lyrics,,,,,8,0.004166666666666667
12807,9.0,,,,,,,70.0,,,,,,224,note_on,,0.0,70.0,0.0,174037,90.64427083333334
12808,9.0,,,,,,,42.0,,,,,,0,note_on,,0.0,42.0,0.0,174037,90.64427083333334
12809,8.0,,,,,,,87.0,,,,,,16,note_on,,45.0,87.0,45.0,28203,14.6890625
12810,9.0,,,,,,,44.0,,,,,,0,note_on,,75.0,44.0,75.0,174037,90.64427083333334
12811,8.0,,,,,,,87.0,,,,,,133,note_on,,0.0,87.0,0.0,28336,14.758333333333333
12812,9.0,,,,,,,44.0,,,,,,107,note_on,,0.0,44.0,0.0,174144,90.7
12813,9.0,,,,,,,42.0,,,,,,0,note_on,,85.0,42.0,85.0,174144,90.7
12814,9.0,,,,,,,70.0,,,,,,0,note_on,,40.0,70.0,40.0,174144,90.7
12815,9.0,,,,,,,36.0,,,,,,0,note_on,,126.0,36.0,126.0,174144,90.7
12816,9.0,,,,,,,35.0,,,,,,0,note_on,,60.0,35.0,60.0,174144,90.7
12817,8.0,,,,,,,65.0,,,,,,103,note_on,,0.0,65.0,0.0,28439,14.811979166666667
12818,7.0,,,,,,,77.0,,,,,,0,note_on,,0.0,77.0,0.0,5301,2.7609375
12819,9.0,,,,,,,35.0,,,,,,51,note_on,,0.0,35.0,0.0,174195,90.7265625
12820,9.0,,,,,,,36.0,,,,,,0,note_on,,0.0,36.0,0.0,174195,90.7265625
12821,3.0,,,,,,,79.0,,,,,,52,note_on,,0.0,79.0,0.0,58309,30.36927083333333
12822,9.0,,,,,,,70.0,,,,,,18,note_on,,0.0,70.0,0.0,174213,90.7359375
12823,9.0,,,,,,,42.0,,,,,,16,note_on,,0.0,42.0,0.0,174229,90.74427083333333
12824,9.0,,,,,,,44.0,,,,,,0,note_on,,75.0,44.0,75.0,174229,90.74427083333333
12825,9.0,,,,,,,44.0,,,,,,240,note_on,,0.0,44.0,0.0,174469,90.86927083333333
12826,3.0,,,,,,,77.0,,,,,,0,note_on,,127.0,77.0,127.0,58309,30.36927083333333
12827,7.0,,,,,,,70.0,,,,,,0,note_on,,127.0,70.0,127.0,5301,2.7609375
12828,8.0,,,,,,,87.0,,,,,,0,note_on,,45.0,87.0,45.0,28439,14.811979166666667
12829,8.0,,,,,,,58.0,,,,,,0,note_on,,127.0,58.0,127.0,28439,14.811979166666667
12830,9.0,,,,,,,42.0,,,,,,0,note_on,,85.0,42.0,85.0,174469,90.86927083333333
12831,9.0,,,,,,,70.0,,,,,,0,note_on,,40.0,70.0,40.0,174469,90.86927083333333
12832,9.0,,,,,,,39.0,,,,,,0,note_on,,127.0,39.0,127.0,174469,90.86927083333333
12833,9.0,,,,,,,28.0,,,,,,0,note_on,,127.0,28.0,127.0,174469,90.86927083333333
12834,11.0,,,,,,,68.0,,,,,,0,note_on,,127.0,68.0,127.0,35424,18.45
12835,11.0,,,,,,,60.0,,,,,,0,note_on,,127.0,60.0,127.0,35424,18.45
12836,11.0,,,,,,,63.0,,,,,,0,note_on,,127.0,63.0,127.0,35424,18.45
12837,,,,,,,,,,,,,"by, ",0,lyrics,,,,,7,0.0036458333333333334
12838,9.0,,,,,,,39.0,,,,,,123,note_on,,0.0,39.0,0.0,174592,90.93333333333334
12839,9.0,,,,,,,28.0,,,,,,2,note_on,,0.0,28.0,0.0,174594,90.934375
12840,8.0,,,,,,,87.0,,,,,,4,note_on,,0.0,87.0,0.0,28443,14.8140625
12841,9.0,,,,,,,42.0,,,,,,95,note_on,,0.0,42.0,0.0,174689,90.98385416666666
12842,9.0,,,,,,,70.0,,,,,,0,note_on,,0.0,70.0,0.0,174689,90.98385416666666
12843,9.0,,,,,,,44.0,,,,,,16,note_on,,75.0,44.0,75.0,174705,90.9921875
12844,11.0,,,,,,,68.0,,,,,,145,note_on,,0.0,68.0,0.0,35569,18.52552083333333
12845,11.0,,,,,,,60.0,,,,,,4,note_on,,0.0,60.0,0.0,35573,18.527604166666666
12846,11.0,,,,,,,63.0,,,,,,19,note_on,,0.0,63.0,0.0,35592,18.5375
12847,9.0,,,,,,,44.0,,,,,,72,note_on,,0.0,44.0,0.0,174777,91.0296875
12848,8.0,,,,,,,87.0,,,,,,0,note_on,,45.0,87.0,45.0,28443,14.8140625
12849,9.0,,,,,,,42.0,,,,,,0,note_on,,85.0,42.0,85.0,174777,91.0296875
12850,9.0,,,,,,,70.0,,,,,,0,note_on,,40.0,70.0,40.0,174777,91.0296875
12851,10.0,,,,,,,68.0,,,,,,0,note_on,,127.0,68.0,127.0,21850,11.380208333333334
12852,10.0,,,,,,,60.0,,,,,,0,note_on,,127.0,60.0,127.0,21850,11.380208333333334
12853,10.0,,,,,,,63.0,,,,,,0,note_on,,127.0,63.0,127.0,21850,11.380208333333334
12854,11.0,,,,,,,63.0,,,,,,0,note_on,,127.0,63.0,127.0,35592,18.5375
12855,11.0,,,,,,,60.0,,,,,,0,note_on,,127.0,60.0,127.0,35592,18.5375
12856,11.0,,,,,,,67.0,,,,,,0,note_on,,127.0,67.0,127.0,35592,18.5375
12857,8.0,,,,,,,87.0,,,,,,121,note_on,,0.0,87.0,0.0,28564,14.877083333333333
12858,7.0,,,,,,,70.0,,,,,,5,note_on,,0.0,70.0,0.0,5306,2.763541666666667
12859,8.0,,,,,,,58.0,,,,,,0,note_on,,0.0,58.0,0.0,28564,14.877083333333333
12860,3.0,,,,,,,77.0,,,,,,9,note_on,,0.0,77.0,0.0,58318,30.373958333333334
12861,9.0,,,,,,,70.0,,,,,,89,note_on,,0.0,70.0,0.0,174866,91.07604166666667
12862,9.0,,,,,,,42.0,,,,,,16,note_on,,0.0,42.0,0.0,174882,91.084375
12863,9.0,,,,,,,44.0,,,,,,0,note_on,,75.0,44.0,75.0,174882,91.084375
12864,11.0,,,,,,,60.0,,,,,,131,note_on,,0.0,60.0,0.0,35723,18.605729166666666
12865,11.0,,,,,,,67.0,,,,,,11,note_on,,0.0,67.0,0.0,35734,18.61145833333333
12866,10.0,,,,,,,68.0,,,,,,3,note_on,,0.0,68.0,0.0,21853,11.381770833333333
12867,10.0,,,,,,,60.0,,,,,,4,note_on,,0.0,60.0,0.0,21857,11.383854166666666
12868,10.0,,,,,,,63.0,,,,,,19,note_on,,0.0,63.0,0.0,21876,11.39375
12869,11.0,,,,,,,63.0,,,,,,18,note_on,,0.0,63.0,0.0,35752,18.620833333333334
12870,9.0,,,,,,,44.0,,,,,,54,note_on,,0.0,44.0,0.0,174936,91.1125
12871,3.0,,,,,,,79.0,,,,,,0,note_on,,127.0,79.0,127.0,58318,30.373958333333334
12872,7.0,,,,,,,82.0,,,,,,0,note_on,,127.0,82.0,127.0,5306,2.763541666666667
12873,8.0,,,,,,,70.0,,,,,,0,note_on,,127.0,70.0,127.0,28564,14.877083333333333
12874,9.0,,,,,,,42.0,,,,,,0,note_on,,85.0,42.0,85.0,174936,91.1125
12875,9.0,,,,,,,70.0,,,,,,0,note_on,,40.0,70.0,40.0,174936,91.1125
12876,9.0,,,,,,,36.0,,,,,,0,note_on,,126.0,36.0,126.0,174936,91.1125
12877,9.0,,,,,,,35.0,,,,,,0,note_on,,60.0,35.0,60.0,174936,91.1125
12878,10.0,,,,,,,63.0,,,,,,0,note_on,,127.0,63.0,127.0,21876,11.39375
12879,10.0,,,,,,,60.0,,,,,,0,note_on,,127.0,60.0,127.0,21876,11.39375
12880,10.0,,,,,,,67.0,,,,,,0,note_on,,127.0,67.0,127.0,21876,11.39375
12881,12.0,,,,,,,68.0,,,,,,0,note_on,,127.0,68.0,127.0,31683,16.5015625
12882,12.0,,,,,,,60.0,,,,,,0,note_on,,127.0,60.0,127.0,31683,16.5015625
12883,12.0,,,,,,,63.0,,,,,,0,note_on,,127.0,63.0,127.0,31683,16.5015625
12884,,,,,,,,,,,,,ba ,0,lyrics,,,,,7,0.0036458333333333334
12885,9.0,,,,,,,35.0,,,,,,172,note_on,,0.0,35.0,0.0,175108,91.20208333333333
12886,9.0,,,,,,,36.0,,,,,,0,note_on,,0.0,36.0,0.0,175108,91.20208333333333
12887,9.0,,,,,,,70.0,,,,,,52,note_on,,0.0,70.0,0.0,175160,91.22916666666667
12888,9.0,,,,,,,42.0,,,,,,0,note_on,,0.0,42.0,0.0,175160,91.22916666666667
12889,8.0,,,,,,,87.0,,,,,,16,note_on,,45.0,87.0,45.0,28580,14.885416666666666
12890,9.0,,,,,,,44.0,,,,,,0,note_on,,75.0,44.0,75.0,175160,91.22916666666667
12891,8.0,,,,,,,87.0,,,,,,126,note_on,,0.0,87.0,0.0,28706,14.951041666666667
12892,10.0,,,,,,,60.0,,,,,,5,note_on,,0.0,60.0,0.0,21881,11.396354166666667
12893,10.0,,,,,,,67.0,,,,,,11,note_on,,0.0,67.0,0.0,21892,11.402083333333334
12894,12.0,,,,,,,68.0,,,,,,3,note_on,,0.0,68.0,0.0,31686,16.503125
12895,12.0,,,,,,,60.0,,,,,,4,note_on,,0.0,60.0,0.0,31690,16.505208333333332
12896,12.0,,,,,,,63.0,,,,,,19,note_on,,0.0,63.0,0.0,31709,16.515104166666667
12897,10.0,,,,,,,63.0,,,,,,18,note_on,,0.0,63.0,0.0,21910,11.411458333333334
12898,9.0,,,,,,,44.0,,,,,,54,note_on,,0.0,44.0,0.0,175214,91.25729166666666
12899,9.0,,,,,,,42.0,,,,,,0,note_on,,85.0,42.0,85.0,175214,91.25729166666666
12900,9.0,,,,,,,70.0,,,,,,0,note_on,,40.0,70.0,40.0,175214,91.25729166666666
12901,12.0,,,,,,,63.0,,,,,,0,note_on,,127.0,63.0,127.0,31709,16.515104166666667
12902,12.0,,,,,,,60.0,,,,,,0,note_on,,127.0,60.0,127.0,31709,16.515104166666667
12903,12.0,,,,,,,67.0,,,,,,0,note_on,,127.0,67.0,127.0,31709,16.515104166666667
12904,7.0,,,,,,,82.0,,,,,,45,note_on,,0.0,82.0,0.0,5351,2.786979166666667
12905,8.0,,,,,,,70.0,,,,,,0,note_on,,0.0,70.0,0.0,28706,14.951041666666667
12906,3.0,,,,,,,79.0,,,,,,127,note_on,,0.0,79.0,0.0,58445,30.440104166666668
12907,9.0,,,,,,,70.0,,,,,,52,note_on,,0.0,70.0,0.0,175266,91.284375
12908,9.0,,,,,,,42.0,,,,,,16,note_on,,0.0,42.0,0.0,175282,91.29270833333334
12909,8.0,,,,,,,87.0,,,,,,0,note_on,,45.0,87.0,45.0,28706,14.951041666666667
12910,9.0,,,,,,,44.0,,,,,,0,note_on,,75.0,44.0,75.0,175282,91.29270833333334
12911,9.0,,,,,,,36.0,,,,,,0,note_on,,126.0,36.0,126.0,175282,91.29270833333334
12912,9.0,,,,,,,35.0,,,,,,0,note_on,,60.0,35.0,60.0,175282,91.29270833333334
12913,8.0,,,,,,,87.0,,,,,,125,note_on,,0.0,87.0,0.0,28831,15.016145833333333
12914,12.0,,,,,,,60.0,,,,,,6,note_on,,0.0,60.0,0.0,31715,16.518229166666668
12915,12.0,,,,,,,67.0,,,,,,11,note_on,,0.0,67.0,0.0,31726,16.523958333333333
12916,12.0,,,,,,,63.0,,,,,,44,note_on,,0.0,63.0,0.0,31770,16.546875
12917,9.0,,,,,,,36.0,,,,,,38,note_on,,0.0,36.0,0.0,175320,91.3125
12918,9.0,,,,,,,35.0,,,,,,0,note_on,,0.0,35.0,0.0,175320,91.3125
12919,9.0,,,,,,,44.0,,,,,,16,note_on,,0.0,44.0,0.0,175336,91.32083333333333
12920,3.0,,,,,,,77.0,,,,,,0,note_on,,127.0,77.0,127.0,58445,30.440104166666668
12921,7.0,,,,,,,75.0,,,,,,0,note_on,,127.0,75.0,127.0,5351,2.786979166666667
12922,8.0,,,,,,,63.0,,,,,,0,note_on,,127.0,63.0,127.0,28831,15.016145833333333
12923,9.0,,,,,,,42.0,,,,,,0,note_on,,85.0,42.0,85.0,175336,91.32083333333333
12924,9.0,,,,,,,70.0,,,,,,0,note_on,,40.0,70.0,40.0,175336,91.32083333333333
12925,9.0,,,,,,,39.0,,,,,,0,note_on,,125.0,39.0,125.0,175336,91.32083333333333
12926,9.0,,,,,,,28.0,,,,,,0,note_on,,127.0,28.0,127.0,175336,91.32083333333333
12927,,,,,,,,,,,,,by ,0,lyrics,,,,,4,0.0020833333333333333
12928,9.0,,,,,,,28.0,,,,,,117,note_on,,0.0,28.0,0.0,175453,91.38177083333333
12929,9.0,,,,,,,39.0,,,,,,34,note_on,,0.0,39.0,0.0,175487,91.39947916666667
12930,9.0,,,,,,,42.0,,,,,,73,note_on,,0.0,42.0,0.0,175560,91.4375
12931,9.0,,,,,,,70.0,,,,,,0,note_on,,0.0,70.0,0.0,175560,91.4375
12932,8.0,,,,,,,87.0,,,,,,16,note_on,,45.0,87.0,45.0,28847,15.024479166666666
12933,9.0,,,,,,,44.0,,,,,,0,note_on,,75.0,44.0,75.0,175560,91.4375
12934,3.0,,,,,,,77.0,,,,,,43,note_on,,0.0,77.0,0.0,58488,30.4625
12935,8.0,,,,,,,87.0,,,,,,88,note_on,,0.0,87.0,0.0,28935,15.0703125
12936,9.0,,,,,,,44.0,,,,,,109,note_on,,0.0,44.0,0.0,175669,91.49427083333333
12937,3.0,,,,,,,84.0,,,,,,0,note_on,,127.0,84.0,127.0,58488,30.4625
12938,9.0,,,,,,,42.0,,,,,,0,note_on,,85.0,42.0,85.0,175669,91.49427083333333
12939,9.0,,,,,,,70.0,,,,,,0,note_on,,40.0,70.0,40.0,175669,91.49427083333333
12940,9.0,,,,,,,36.0,,,,,,0,note_on,,126.0,36.0,126.0,175669,91.49427083333333
12941,9.0,,,,,,,35.0,,,,,,0,note_on,,60.0,35.0,60.0,175669,91.49427083333333
12942,,,,,,,,,,,,,noo ,0,lyrics,,,,,4,0.0020833333333333333
12943,,,,,,,,,,,,,,0,lyrics,,,,,4,0.0020833333333333333
12944,8.0,,,,,,,63.0,,,,,,51,note_on,,0.0,63.0,0.0,28986,15.096874999999999
12945,7.0,,,,,,,75.0,,,,,,0,note_on,,0.0,75.0,0.0,5351,2.786979166666667
12946,9.0,,,,,,,35.0,,,,,,115,note_on,,0.0,35.0,0.0,175784,91.55416666666666
12947,9.0,,,,,,,36.0,,,,,,0,note_on,,0.0,36.0,0.0,175784,91.55416666666666
12948,9.0,,,,,,,70.0,,,,,,58,note_on,,0.0,70.0,0.0,175842,91.584375
12949,9.0,,,,,,,42.0,,,,,,16,note_on,,0.0,42.0,0.0,175858,91.59270833333333
12950,8.0,,,,,,,87.0,,,,,,0,note_on,,45.0,87.0,45.0,28986,15.096874999999999
12951,9.0,,,,,,,44.0,,,,,,0,note_on,,75.0,44.0,75.0,175858,91.59270833333333
12952,8.0,,,,,,,87.0,,,,,,123,note_on,,0.0,87.0,0.0,29109,15.1609375
12953,9.0,,,,,,,44.0,,,,,,117,note_on,,0.0,44.0,0.0,175975,91.65364583333333
12954,7.0,,,,,,,77.0,,,,,,0,note_on,,127.0,77.0,127.0,5351,2.786979166666667
12955,8.0,,,,,,,65.0,,,,,,0,note_on,,127.0,65.0,127.0,29109,15.1609375
12956,9.0,,,,,,,42.0,,,,,,0,note_on,,85.0,42.0,85.0,175975,91.65364583333333
12957,9.0,,,,,,,70.0,,,,,,0,note_on,,40.0,70.0,40.0,175975,91.65364583333333
12958,9.0,,,,,,,70.0,,,,,,224,note_on,,0.0,70.0,0.0,176199,91.7703125
12959,8.0,,,,,,,87.0,,,,,,16,note_on,,45.0,87.0,45.0,29125,15.169270833333334
12960,9.0,,,,,,,44.0,,,,,,0,note_on,,75.0,44.0,75.0,176199,91.7703125
12961,8.0,,,,,,,87.0,,,,,,135,note_on,,0.0,87.0,0.0,29260,15.239583333333334
12962,9.0,,,,,,,44.0,,,,,,105,note_on,,0.0,44.0,0.0,176304,91.825
12963,9.0,,,,,,,42.0,,,,,,0,note_on,,85.0,42.0,85.0,176304,91.825
12964,9.0,,,,,,,70.0,,,,,,0,note_on,,40.0,70.0,40.0,176304,91.825
12965,9.0,,,,,,,36.0,,,,,,0,note_on,,126.0,36.0,126.0,176304,91.825
12966,9.0,,,,,,,35.0,,,,,,0,note_on,,60.0,35.0,60.0,176304,91.825
12967,3.0,,,,,,,84.0,,,,,,23,note_on,,0.0,84.0,0.0,58511,30.474479166666665
12968,8.0,,,,,,,65.0,,,,,,33,note_on,,0.0,65.0,0.0,29293,15.256770833333333
12969,7.0,,,,,,,77.0,,,,,,0,note_on,,0.0,77.0,0.0,5351,2.786979166666667
12970,9.0,,,,,,,35.0,,,,,,98,note_on,,0.0,35.0,0.0,176402,91.87604166666667
12971,9.0,,,,,,,36.0,,,,,,0,note_on,,0.0,36.0,0.0,176402,91.87604166666667
12972,9.0,,,,,,,70.0,,,,,,70,note_on,,0.0,70.0,0.0,176472,91.9125
12973,9.0,,,,,,,42.0,,,,,,16,note_on,,0.0,42.0,0.0,176488,91.92083333333333
12974,9.0,,,,,,,44.0,,,,,,0,note_on,,75.0,44.0,75.0,176488,91.92083333333333
12975,3.0,,,,,,,75.0,,,,,,234,note_on,,127.0,75.0,127.0,58745,30.596354166666668
12976,,,,,,,,,,,,,Like ,0,lyrics,,,,,7,0.0036458333333333334
12977,9.0,,,,,,,44.0,,,,,,6,note_on,,0.0,44.0,0.0,176494,91.92395833333333
12978,7.0,,,,,,,75.0,,,,,,0,note_on,,127.0,75.0,127.0,5351,2.786979166666667
12979,8.0,,,,,,,87.0,,,,,,0,note_on,,45.0,87.0,45.0,29293,15.256770833333333
12980,8.0,,,,,,,63.0,,,,,,0,note_on,,127.0,63.0,127.0,29293,15.256770833333333
12981,9.0,,,,,,,42.0,,,,,,0,note_on,,85.0,42.0,85.0,176494,91.92395833333333
12982,9.0,,,,,,,70.0,,,,,,0,note_on,,40.0,70.0,40.0,176494,91.92395833333333
12983,9.0,,,,,,,39.0,,,,,,0,note_on,,127.0,39.0,127.0,176494,91.92395833333333
12984,9.0,,,,,,,28.0,,,,,,0,note_on,,127.0,28.0,127.0,176494,91.92395833333333
12985,9.0,,,,,,,39.0,,,,,,123,note_on,,0.0,39.0,0.0,176617,91.98802083333334
12986,9.0,,,,,,,28.0,,,,,,2,note_on,,0.0,28.0,0.0,176619,91.9890625
12987,8.0,,,,,,,87.0,,,,,,10,note_on,,0.0,87.0,0.0,29303,15.261979166666666
12988,9.0,,,,,,,70.0,,,,,,89,note_on,,0.0,70.0,0.0,176708,92.03541666666666
12989,9.0,,,,,,,42.0,,,,,,0,note_on,,0.0,42.0,0.0,176708,92.03541666666666
12990,9.0,,,,,,,42.0,,,,,,16,note_on,,0.0,42.0,0.0,176724,92.04375
12991,9.0,,,,,,,44.0,,,,,,0,note_on,,75.0,44.0,75.0,176724,92.04375
12992,9.0,,,,,,,44.0,,,,,,240,note_on,,0.0,44.0,0.0,176964,92.16875
12993,8.0,,,,,,,87.0,,,,,,0,note_on,,45.0,87.0,45.0,29303,15.261979166666666
12994,9.0,,,,,,,42.0,,,,,,0,note_on,,85.0,42.0,85.0,176964,92.16875
12995,9.0,,,,,,,61.0,,,,,,0,note_on,,100.0,61.0,100.0,176964,92.16875
12996,9.0,,,,,,,70.0,,,,,,0,note_on,,40.0,70.0,40.0,176964,92.16875
12997,7.0,,,,,,,75.0,,,,,,72,note_on,,0.0,75.0,0.0,5423,2.8244791666666664
12998,8.0,,,,,,,63.0,,,,,,0,note_on,,0.0,63.0,0.0,29303,15.261979166666666
12999,9.0,,,,,,,61.0,,,,,,42,note_on,,0.0,61.0,0.0,177006,92.190625
13000,9.0,,,,,,,61.0,,,,,,6,note_on,,100.0,61.0,100.0,177012,92.19375
13001,8.0,,,,,,,87.0,,,,,,4,note_on,,0.0,87.0,0.0,29307,15.2640625
13002,3.0,,,,,,,75.0,,,,,,80,note_on,,0.0,75.0,0.0,58825,30.638020833333332
13003,9.0,,,,,,,70.0,,,,,,20,note_on,,0.0,70.0,0.0,177032,92.20416666666667
13004,9.0,,,,,,,61.0,,,,,,10,note_on,,0.0,61.0,0.0,177042,92.209375
13005,9.0,,,,,,,42.0,,,,,,6,note_on,,0.0,42.0,0.0,177048,92.2125
13006,9.0,,,,,,,44.0,,,,,,0,note_on,,75.0,44.0,75.0,177048,92.2125
13007,9.0,,,,,,,61.0,,,,,,0,note_on,,100.0,61.0,100.0,177048,92.2125
13008,5.0,,,,,,,55.0,,,,,,7,note_on,,0.0,55.0,0.0,2750,1.4322916666666667
13009,5.0,,,,,,,63.0,,,,,,34,note_on,,0.0,63.0,0.0,2784,1.45
13010,5.0,,,,,,,60.0,,,,,,14,note_on,,0.0,60.0,0.0,2798,1.4572916666666667
13011,9.0,,,,,,,61.0,,,,,,59,note_on,,0.0,61.0,0.0,177107,92.24322916666667
13012,9.0,,,,,,,61.0,,,,,,6,note_on,,100.0,61.0,100.0,177113,92.24635416666666
13013,5.0,,,,,,,60.0,,,,,,107,note_on,,113.0,60.0,113.0,2905,1.5130208333333333
13014,5.0,,,,,,,63.0,,,,,,6,note_on,,113.0,63.0,113.0,2911,1.5161458333333333
13015,9.0,,,,,,,61.0,,,,,,1,note_on,,0.0,61.0,0.0,177114,92.246875
13016,5.0,,,,,,,56.0,,,,,,3,note_on,,85.0,56.0,85.0,2914,1.5177083333333332
13017,9.0,,,,,,,44.0,,,,,,3,note_on,,0.0,44.0,0.0,177117,92.2484375
13018,1.0,,,,,,,32.0,,,,,,0,note_on,,127.0,32.0,127.0,7023,3.6578125
13019,7.0,,,,,,,82.0,,,,,,0,note_on,,127.0,82.0,127.0,5423,2.8244791666666664
13020,8.0,,,,,,,44.0,,,,,,0,note_on,,127.0,44.0,127.0,29307,15.2640625
13021,8.0,,,,,,,70.0,,,,,,0,note_on,,127.0,70.0,127.0,29307,15.2640625
13022,9.0,,,,,,,61.0,,,,,,0,note_on,,100.0,61.0,100.0,177117,92.2484375
13023,9.0,,,,,,,42.0,,,,,,0,note_on,,85.0,42.0,85.0,177117,92.2484375
13024,9.0,,,,,,,70.0,,,,,,0,note_on,,40.0,70.0,40.0,177117,92.2484375
13025,9.0,,,,,,,36.0,,,,,,0,note_on,,126.0,36.0,126.0,177117,92.2484375
13026,9.0,,,,,,,35.0,,,,,,0,note_on,,60.0,35.0,60.0,177117,92.2484375
13027,11.0,,,,,,,60.0,,,,,,0,note_on,,127.0,60.0,127.0,35752,18.620833333333334
13028,11.0,,,,,,,56.0,,,,,,0,note_on,,127.0,56.0,127.0,35752,18.620833333333334
13029,11.0,,,,,,,63.0,,,,,,0,note_on,,127.0,63.0,127.0,35752,18.620833333333334
13030,1.0,,,,,,,36.0,,,,,,24,note_on,,0.0,36.0,0.0,7047,3.6703125
13031,3.0,,,,,,,79.0,,,,,,3,note_on,,127.0,79.0,127.0,58828,30.639583333333334
13032,,,,,,,,,,,,,ba ,0,lyrics,,,,,7,0.0036458333333333334
13033,8.0,,,,,,,48.0,,,,,,16,note_on,,0.0,48.0,0.0,29323,15.272395833333333
13034,9.0,,,,,,,61.0,,,,,,71,note_on,,0.0,61.0,0.0,177188,92.28541666666666
13035,9.0,,,,,,,35.0,,,,,,58,note_on,,0.0,35.0,0.0,177246,92.315625
13036,9.0,,,,,,,36.0,,,,,,0,note_on,,0.0,36.0,0.0,177246,92.315625
13037,9.0,,,,,,,42.0,,,,,,52,note_on,,0.0,42.0,0.0,177298,92.34270833333333
13038,9.0,,,,,,,70.0,,,,,,0,note_on,,0.0,70.0,0.0,177298,92.34270833333333
13039,9.0,,,,,,,44.0,,,,,,16,note_on,,75.0,44.0,75.0,177314,92.35104166666666
13040,11.0,,,,,,,56.0,,,,,,191,note_on,,0.0,56.0,0.0,35943,18.7203125
13041,11.0,,,,,,,60.0,,,,,,25,note_on,,0.0,60.0,0.0,35968,18.733333333333334
13042,9.0,,,,,,,44.0,,,,,,24,note_on,,0.0,44.0,0.0,177338,92.36354166666666
13043,8.0,,,,,,,87.0,,,,,,0,note_on,,45.0,87.0,45.0,29323,15.272395833333333
13044,9.0,,,,,,,42.0,,,,,,0,note_on,,85.0,42.0,85.0,177338,92.36354166666666
13045,9.0,,,,,,,70.0,,,,,,0,note_on,,40.0,70.0,40.0,177338,92.36354166666666
13046,10.0,,,,,,,60.0,,,,,,0,note_on,,127.0,60.0,127.0,21910,11.411458333333334
13047,10.0,,,,,,,56.0,,,,,,0,note_on,,127.0,56.0,127.0,21910,11.411458333333334
13048,10.0,,,,,,,63.0,,,,,,0,note_on,,127.0,63.0,127.0,21910,11.411458333333334
13049,11.0,,,,,,,63.0,,,,,,9,note_on,,0.0,63.0,0.0,35977,18.738020833333334
13050,7.0,,,,,,,82.0,,,,,,90,note_on,,0.0,82.0,0.0,5513,2.8713541666666664
13051,8.0,,,,,,,70.0,,,,,,0,note_on,,0.0,70.0,0.0,29323,15.272395833333333
13052,8.0,,,,,,,87.0,,,,,,24,note_on,,0.0,87.0,0.0,29347,15.284895833333334
13053,3.0,,,,,,,79.0,,,,,,52,note_on,,0.0,79.0,0.0,58880,30.666666666666668
13054,9.0,,,,,,,70.0,,,,,,49,note_on,,0.0,70.0,0.0,177387,92.3890625
13055,9.0,,,,,,,42.0,,,,,,16,note_on,,0.0,42.0,0.0,177403,92.39739583333333
13056,9.0,,,,,,,44.0,,,,,,0,note_on,,75.0,44.0,75.0,177403,92.39739583333333
13057,9.0,,,,,,,36.0,,,,,,0,note_on,,126.0,36.0,126.0,177403,92.39739583333333
13058,9.0,,,,,,,35.0,,,,,,0,note_on,,60.0,35.0,60.0,177403,92.39739583333333
13059,10.0,,,,,,,56.0,,,,,,191,note_on,,0.0,56.0,0.0,22101,11.5109375
13060,3.0,,,,,,,77.0,,,,,,23,note_on,,127.0,77.0,127.0,58903,30.678645833333334
13061,,,,,,,,,,,,,"by, ",0,lyrics,,,,,2,0.0010416666666666667
13062,10.0,,,,,,,60.0,,,,,,2,note_on,,0.0,60.0,0.0,22103,11.511979166666666
13063,9.0,,,,,,,35.0,,,,,,8,note_on,,0.0,35.0,0.0,177411,92.4015625
13064,9.0,,,,,,,36.0,,,,,,0,note_on,,0.0,36.0,0.0,177411,92.4015625
13065,9.0,,,,,,,44.0,,,,,,16,note_on,,0.0,44.0,0.0,177427,92.40989583333334
13066,7.0,,,,,,,75.0,,,,,,0,note_on,,127.0,75.0,127.0,5513,2.8713541666666664
13067,8.0,,,,,,,87.0,,,,,,0,note_on,,45.0,87.0,45.0,29347,15.284895833333334
13068,8.0,,,,,,,63.0,,,,,,0,note_on,,127.0,63.0,127.0,29347,15.284895833333334
13069,9.0,,,,,,,42.0,,,,,,0,note_on,,85.0,42.0,85.0,177427,92.40989583333334
13070,9.0,,,,,,,70.0,,,,,,0,note_on,,40.0,70.0,40.0,177427,92.40989583333334
13071,9.0,,,,,,,39.0,,,,,,0,note_on,,125.0,39.0,125.0,177427,92.40989583333334
13072,9.0,,,,,,,28.0,,,,,,0,note_on,,127.0,28.0,127.0,177427,92.40989583333334
13073,12.0,,,,,,,60.0,,,,,,0,note_on,,127.0,60.0,127.0,31770,16.546875
13074,12.0,,,,,,,56.0,,,,,,0,note_on,,127.0,56.0,127.0,31770,16.546875
13075,12.0,,,,,,,63.0,,,,,,0,note_on,,127.0,63.0,127.0,31770,16.546875
13076,10.0,,,,,,,63.0,,,,,,9,note_on,,0.0,63.0,0.0,22112,11.516666666666666
13077,9.0,,,,,,,28.0,,,,,,108,note_on,,0.0,28.0,0.0,177535,92.46614583333333
13078,8.0,,,,,,,87.0,,,,,,10,note_on,,0.0,87.0,0.0,29357,15.290104166666666
13079,9.0,,,,,,,39.0,,,,,,24,note_on,,0.0,39.0,0.0,177559,92.47864583333333
13080,9.0,,,,,,,42.0,,,,,,73,note_on,,0.0,42.0,0.0,177632,92.51666666666667
13081,9.0,,,,,,,70.0,,,,,,0,note_on,,0.0,70.0,0.0,177632,92.51666666666667
13082,9.0,,,,,,,44.0,,,,,,16,note_on,,75.0,44.0,75.0,177648,92.525
13083,12.0,,,,,,,56.0,,,,,,191,note_on,,0.0,56.0,0.0,31961,16.646354166666665
13084,12.0,,,,,,,60.0,,,,,,25,note_on,,0.0,60.0,0.0,31986,16.659375
13085,9.0,,,,,,,44.0,,,,,,24,note_on,,0.0,44.0,0.0,177672,92.5375
13086,8.0,,,,,,,87.0,,,,,,0,note_on,,45.0,87.0,45.0,29357,15.290104166666666
13087,9.0,,,,,,,42.0,,,,,,0,note_on,,85.0,42.0,85.0,177672,92.5375
13088,9.0,,,,,,,70.0,,,,,,0,note_on,,40.0,70.0,40.0,177672,92.5375
13089,9.0,,,,,,,36.0,,,,,,0,note_on,,126.0,36.0,126.0,177672,92.5375
13090,9.0,,,,,,,35.0,,,,,,0,note_on,,60.0,35.0,60.0,177672,92.5375
13091,12.0,,,,,,,63.0,,,,,,9,note_on,,0.0,63.0,0.0,31995,16.6640625
13092,7.0,,,,,,,75.0,,,,,,17,note_on,,0.0,75.0,0.0,5530,2.8802083333333335
13093,8.0,,,,,,,63.0,,,,,,0,note_on,,0.0,63.0,0.0,29357,15.290104166666666
13094,8.0,,,,,,,87.0,,,,,,98,note_on,,0.0,87.0,0.0,29455,15.341145833333334
13095,9.0,,,,,,,35.0,,,,,,42,note_on,,0.0,35.0,0.0,177714,92.559375
13096,9.0,,,,,,,36.0,,,,,,0,note_on,,0.0,36.0,0.0,177714,92.559375
13097,3.0,,,,,,,77.0,,,,,,5,note_on,,0.0,77.0,0.0,58908,30.68125
13098,9.0,,,,,,,70.0,,,,,,53,note_on,,0.0,70.0,0.0,177767,92.58697916666667
13099,9.0,,,,,,,42.0,,,,,,16,note_on,,0.0,42.0,0.0,177783,92.5953125
13100,8.0,,,,,,,87.0,,,,,,0,note_on,,45.0,87.0,45.0,29455,15.341145833333334
13101,9.0,,,,,,,44.0,,,,,,0,note_on,,75.0,44.0,75.0,177783,92.5953125
13102,8.0,,,,,,,87.0,,,,,,130,note_on,,0.0,87.0,0.0,29585,15.408854166666666
13103,9.0,,,,,,,44.0,,,,,,110,note_on,,0.0,44.0,0.0,177893,92.65260416666666
13104,7.0,,,,,,,77.0,,,,,,0,note_on,,127.0,77.0,127.0,5530,2.8802083333333335
13105,8.0,,,,,,,65.0,,,,,,0,note_on,,127.0,65.0,127.0,29585,15.408854166666666
13106,9.0,,,,,,,42.0,,,,,,0,note_on,,85.0,42.0,85.0,177893,92.65260416666666
13107,9.0,,,,,,,70.0,,,,,,0,note_on,,40.0,70.0,40.0,177893,92.65260416666666
13108,3.0,,,,,,,79.0,,,,,,6,note_on,,127.0,79.0,127.0,58914,30.684375
13109,,,,,,,,,,,,,ba ,0,lyrics,,,,,8,0.004166666666666667
13110,9.0,,,,,,,70.0,,,,,,218,note_on,,0.0,70.0,0.0,178111,92.76614583333333
13111,9.0,,,,,,,42.0,,,,,,0,note_on,,0.0,42.0,0.0,178111,92.76614583333333
13112,9.0,,,,,,,44.0,,,,,,16,note_on,,75.0,44.0,75.0,178127,92.77447916666667
13113,9.0,,,,,,,44.0,,,,,,240,note_on,,0.0,44.0,0.0,178367,92.89947916666667
13114,8.0,,,,,,,87.0,,,,,,0,note_on,,45.0,87.0,45.0,29585,15.408854166666666
13115,9.0,,,,,,,42.0,,,,,,0,note_on,,85.0,42.0,85.0,178367,92.89947916666667
13116,9.0,,,,,,,70.0,,,,,,0,note_on,,40.0,70.0,40.0,178367,92.89947916666667
13117,9.0,,,,,,,36.0,,,,,,0,note_on,,126.0,36.0,126.0,178367,92.89947916666667
13118,9.0,,,,,,,35.0,,,,,,0,note_on,,60.0,35.0,60.0,178367,92.89947916666667
13119,8.0,,,,,,,87.0,,,,,,116,note_on,,0.0,87.0,0.0,29701,15.469270833333333
13120,8.0,,,,,,,65.0,,,,,,29,note_on,,0.0,65.0,0.0,29730,15.484375
13121,7.0,,,,,,,77.0,,,,,,0,note_on,,0.0,77.0,0.0,5530,2.8802083333333335
13122,9.0,,,,,,,35.0,,,,,,9,note_on,,0.0,35.0,0.0,178376,92.90416666666667
13123,9.0,,,,,,,36.0,,,,,,0,note_on,,0.0,36.0,0.0,178376,92.90416666666667
13124,3.0,,,,,,,79.0,,,,,,53,note_on,,0.0,79.0,0.0,58967,30.711979166666666
13125,9.0,,,,,,,70.0,,,,,,17,note_on,,0.0,70.0,0.0,178393,92.91302083333333
13126,9.0,,,,,,,42.0,,,,,,16,note_on,,0.0,42.0,0.0,178409,92.92135416666666
13127,9.0,,,,,,,44.0,,,,,,0,note_on,,75.0,44.0,75.0,178409,92.92135416666666
13128,9.0,,,,,,,44.0,,,,,,240,note_on,,0.0,44.0,0.0,178649,93.04635416666666
13129,7.0,,,,,,,70.0,,,,,,0,note_on,,127.0,70.0,127.0,5530,2.8802083333333335
13130,8.0,,,,,,,87.0,,,,,,0,note_on,,45.0,87.0,45.0,29730,15.484375
13131,8.0,,,,,,,58.0,,,,,,0,note_on,,127.0,58.0,127.0,29730,15.484375
13132,9.0,,,,,,,42.0,,,,,,0,note_on,,85.0,42.0,85.0,178649,93.04635416666666
13133,9.0,,,,,,,70.0,,,,,,0,note_on,,40.0,70.0,40.0,178649,93.04635416666666
13134,9.0,,,,,,,39.0,,,,,,0,note_on,,127.0,39.0,127.0,178649,93.04635416666666
13135,9.0,,,,,,,28.0,,,,,,0,note_on,,127.0,28.0,127.0,178649,93.04635416666666
13136,11.0,,,,,,,60.0,,,,,,0,note_on,,127.0,60.0,127.0,35977,18.738020833333334
13137,11.0,,,,,,,65.0,,,,,,0,note_on,,127.0,65.0,127.0,35977,18.738020833333334
13138,11.0,,,,,,,56.0,,,,,,0,note_on,,127.0,56.0,127.0,35977,18.738020833333334
13139,3.0,,,,,,,77.0,,,,,,2,note_on,,127.0,77.0,127.0,58969,30.71302083333333
13140,,,,,,,,,,,,,"by, ",0,lyrics,,,,,10,0.005208333333333333
13141,9.0,,,,,,,39.0,,,,,,121,note_on,,0.0,39.0,0.0,178770,93.109375
13142,9.0,,,,,,,28.0,,,,,,2,note_on,,0.0,28.0,0.0,178772,93.11041666666667
13143,8.0,,,,,,,87.0,,,,,,1,note_on,,0.0,87.0,0.0,29731,15.484895833333333
13144,3.0,,,,,,,77.0,,,,,,70,note_on,,0.0,77.0,0.0,59039,30.749479166666667
13145,9.0,,,,,,,42.0,,,,,,28,note_on,,0.0,42.0,0.0,178800,93.125
13146,9.0,,,,,,,70.0,,,,,,0,note_on,,0.0,70.0,0.0,178800,93.125
13147,9.0,,,,,,,44.0,,,,,,16,note_on,,75.0,44.0,75.0,178816,93.13333333333333
13148,11.0,,,,,,,65.0,,,,,,144,note_on,,0.0,65.0,0.0,36121,18.813020833333333
13149,11.0,,,,,,,56.0,,,,,,10,note_on,,0.0,56.0,0.0,36131,18.818229166666665
13150,11.0,,,,,,,60.0,,,,,,21,note_on,,0.0,60.0,0.0,36152,18.829166666666666
13151,3.0,,,,,,,79.0,,,,,,56,note_on,,127.0,79.0,127.0,59095,30.778645833333332
13152,,,,,,,,,,,,,ba ,0,lyrics,,,,,7,0.0036458333333333334
13153,9.0,,,,,,,44.0,,,,,,9,note_on,,0.0,44.0,0.0,178825,93.13802083333333
13154,8.0,,,,,,,87.0,,,,,,0,note_on,,45.0,87.0,45.0,29731,15.484895833333333
13155,9.0,,,,,,,42.0,,,,,,0,note_on,,85.0,42.0,85.0,178825,93.13802083333333
13156,9.0,,,,,,,70.0,,,,,,0,note_on,,40.0,70.0,40.0,178825,93.13802083333333
13157,10.0,,,,,,,60.0,,,,,,0,note_on,,127.0,60.0,127.0,22112,11.516666666666666
13158,10.0,,,,,,,65.0,,,,,,0,note_on,,127.0,65.0,127.0,22112,11.516666666666666
13159,10.0,,,,,,,56.0,,,,,,0,note_on,,127.0,56.0,127.0,22112,11.516666666666666
13160,11.0,,,,,,,60.0,,,,,,0,note_on,,127.0,60.0,127.0,36152,18.829166666666666
13161,11.0,,,,,,,56.0,,,,,,0,note_on,,124.0,56.0,124.0,36152,18.829166666666666
13162,11.0,,,,,,,63.0,,,,,,0,note_on,,127.0,63.0,127.0,36152,18.829166666666666
13163,8.0,,,,,,,58.0,,,,,,97,note_on,,0.0,58.0,0.0,29828,15.535416666666666
13164,7.0,,,,,,,70.0,,,,,,0,note_on,,0.0,70.0,0.0,5530,2.8802083333333335
13165,8.0,,,,,,,87.0,,,,,,16,note_on,,0.0,87.0,0.0,29844,15.54375
13166,9.0,,,,,,,70.0,,,,,,111,note_on,,0.0,70.0,0.0,178936,93.19583333333333
13167,9.0,,,,,,,42.0,,,,,,16,note_on,,0.0,42.0,0.0,178952,93.20416666666667
13168,9.0,,,,,,,44.0,,,,,,0,note_on,,75.0,44.0,75.0,178952,93.20416666666667
13169,10.0,,,,,,,65.0,,,,,,144,note_on,,0.0,65.0,0.0,22256,11.591666666666667
13170,10.0,,,,,,,56.0,,,,,,10,note_on,,0.0,56.0,0.0,22266,11.596875
13171,10.0,,,,,,,60.0,,,,,,21,note_on,,0.0,60.0,0.0,22287,11.6078125
13172,11.0,,,,,,,56.0,,,,,,46,note_on,,0.0,56.0,0.0,36198,18.853125
13173,9.0,,,,,,,44.0,,,,,,19,note_on,,0.0,44.0,0.0,178971,93.2140625
13174,7.0,,,,,,,82.0,,,,,,0,note_on,,127.0,82.0,127.0,5530,2.8802083333333335
13175,8.0,,,,,,,70.0,,,,,,0,note_on,,127.0,70.0,127.0,29844,15.54375
13176,9.0,,,,,,,42.0,,,,,,0,note_on,,85.0,42.0,85.0,178971,93.2140625
13177,9.0,,,,,,,70.0,,,,,,0,note_on,,40.0,70.0,40.0,178971,93.2140625
13178,9.0,,,,,,,36.0,,,,,,0,note_on,,126.0,36.0,126.0,178971,93.2140625
13179,9.0,,,,,,,35.0,,,,,,0,note_on,,60.0,35.0,60.0,178971,93.2140625
13180,10.0,,,,,,,60.0,,,,,,0,note_on,,127.0,60.0,127.0,22287,11.6078125
13181,10.0,,,,,,,56.0,,,,,,0,note_on,,124.0,56.0,124.0,22287,11.6078125
13182,10.0,,,,,,,63.0,,,,,,0,note_on,,127.0,63.0,127.0,22287,11.6078125
13183,12.0,,,,,,,60.0,,,,,,0,note_on,,127.0,60.0,127.0,31995,16.6640625
13184,12.0,,,,,,,65.0,,,,,,0,note_on,,127.0,65.0,127.0,31995,16.6640625
13185,12.0,,,,,,,56.0,,,,,,0,note_on,,127.0,56.0,127.0,31995,16.6640625
13186,11.0,,,,,,,63.0,,,,,,14,note_on,,0.0,63.0,0.0,36212,18.860416666666666
13187,11.0,,,,,,,60.0,,,,,,6,note_on,,0.0,60.0,0.0,36218,18.863541666666666
13188,9.0,,,,,,,35.0,,,,,,152,note_on,,0.0,35.0,0.0,179123,93.29322916666666
13189,9.0,,,,,,,36.0,,,,,,0,note_on,,0.0,36.0,0.0,179123,93.29322916666666
13190,9.0,,,,,,,42.0,,,,,,52,note_on,,0.0,42.0,0.0,179175,93.3203125
13191,9.0,,,,,,,70.0,,,,,,0,note_on,,0.0,70.0,0.0,179175,93.3203125
13192,3.0,,,,,,,79.0,,,,,,16,note_on,,0.0,79.0,0.0,59111,30.786979166666665
13193,8.0,,,,,,,87.0,,,,,,0,note_on,,45.0,87.0,45.0,29844,15.54375
13194,9.0,,,,,,,44.0,,,,,,0,note_on,,75.0,44.0,75.0,179175,93.3203125
13195,8.0,,,,,,,87.0,,,,,,131,note_on,,0.0,87.0,0.0,29975,15.611979166666666
13196,12.0,,,,,,,65.0,,,,,,13,note_on,,0.0,65.0,0.0,32008,16.670833333333334
13197,12.0,,,,,,,56.0,,,,,,10,note_on,,0.0,56.0,0.0,32018,16.676041666666666
13198,3.0,,,,,,,77.0,,,,,,8,note_on,,127.0,77.0,127.0,59119,30.79114583333333
13199,,,,,,,,,,,,,by ,0,lyrics,,,,,4,0.0020833333333333333
13200,12.0,,,,,,,60.0,,,,,,13,note_on,,0.0,60.0,0.0,32031,16.6828125
13201,10.0,,,,,,,56.0,,,,,,46,note_on,,0.0,56.0,0.0,22333,11.631770833333333
13202,9.0,,,,,,,44.0,,,,,,19,note_on,,0.0,44.0,0.0,179194,93.33020833333333
13203,9.0,,,,,,,42.0,,,,,,0,note_on,,85.0,42.0,85.0,179194,93.33020833333333
13204,9.0,,,,,,,70.0,,,,,,0,note_on,,40.0,70.0,40.0,179194,93.33020833333333
13205,12.0,,,,,,,60.0,,,,,,0,note_on,,127.0,60.0,127.0,32031,16.6828125
13206,12.0,,,,,,,56.0,,,,,,0,note_on,,124.0,56.0,124.0,32031,16.6828125
13207,12.0,,,,,,,63.0,,,,,,0,note_on,,127.0,63.0,127.0,32031,16.6828125
13208,10.0,,,,,,,63.0,,,,,,14,note_on,,0.0,63.0,0.0,22347,11.6390625
13209,7.0,,,,,,,82.0,,,,,,0,note_on,,0.0,82.0,0.0,5530,2.8802083333333335
13210,8.0,,,,,,,70.0,,,,,,0,note_on,,0.0,70.0,0.0,29975,15.611979166666666
13211,10.0,,,,,,,60.0,,,,,,6,note_on,,0.0,60.0,0.0,22353,11.6421875
13212,9.0,,,,,,,70.0,,,,,,204,note_on,,0.0,70.0,0.0,179398,93.43645833333333
13213,9.0,,,,,,,42.0,,,,,,16,note_on,,0.0,42.0,0.0,179414,93.44479166666666
13214,8.0,,,,,,,87.0,,,,,,0,note_on,,45.0,87.0,45.0,29975,15.611979166666666
13215,9.0,,,,,,,44.0,,,,,,0,note_on,,75.0,44.0,75.0,179414,93.44479166666666
13216,9.0,,,,,,,36.0,,,,,,0,note_on,,126.0,36.0,126.0,179414,93.44479166666666
13217,9.0,,,,,,,35.0,,,,,,0,note_on,,60.0,35.0,60.0,179414,93.44479166666666
13218,8.0,,,,,,,87.0,,,,,,136,note_on,,0.0,87.0,0.0,30111,15.682812499999999
13219,12.0,,,,,,,56.0,,,,,,85,note_on,,0.0,56.0,0.0,32116,16.727083333333333
13220,9.0,,,,,,,35.0,,,,,,3,note_on,,0.0,35.0,0.0,179417,93.44635416666667
13221,9.0,,,,,,,36.0,,,,,,0,note_on,,0.0,36.0,0.0,179417,93.44635416666667
13222,9.0,,,,,,,44.0,,,,,,16,note_on,,0.0,44.0,0.0,179433,93.4546875
13223,7.0,,,,,,,75.0,,,,,,0,note_on,,127.0,75.0,127.0,5530,2.8802083333333335
13224,8.0,,,,,,,63.0,,,,,,0,note_on,,127.0,63.0,127.0,30111,15.682812499999999
13225,9.0,,,,,,,42.0,,,,,,0,note_on,,85.0,42.0,85.0,179433,93.4546875
13226,9.0,,,,,,,70.0,,,,,,0,note_on,,40.0,70.0,40.0,179433,93.4546875
13227,9.0,,,,,,,39.0,,,,,,0,note_on,,125.0,39.0,125.0,179433,93.4546875
13228,9.0,,,,,,,28.0,,,,,,0,note_on,,127.0,28.0,127.0,179433,93.4546875
13229,12.0,,,,,,,63.0,,,,,,14,note_on,,0.0,63.0,0.0,32130,16.734375
13230,12.0,,,,,,,60.0,,,,,,6,note_on,,0.0,60.0,0.0,32136,16.7375
13231,9.0,,,,,,,28.0,,,,,,97,note_on,,0.0,28.0,0.0,179530,93.50520833333333
13232,9.0,,,,,,,39.0,,,,,,34,note_on,,0.0,39.0,0.0,179564,93.52291666666666
13233,9.0,,,,,,,70.0,,,,,,73,note_on,,0.0,70.0,0.0,179637,93.5609375
13234,9.0,,,,,,,42.0,,,,,,0,note_on,,0.0,42.0,0.0,179637,93.5609375
13235,8.0,,,,,,,87.0,,,,,,16,note_on,,45.0,87.0,45.0,30127,15.691145833333334
13236,9.0,,,,,,,44.0,,,,,,0,note_on,,75.0,44.0,75.0,179637,93.5609375
13237,3.0,,,,,,,77.0,,,,,,55,note_on,,0.0,77.0,0.0,59174,30.819791666666667
13238,8.0,,,,,,,87.0,,,,,,77,note_on,,0.0,87.0,0.0,30204,15.73125
13239,3.0,,,,,,,82.0,,,,,,33,note_on,,127.0,82.0,127.0,59207,30.836979166666666
13240,,,,,,,,,,,,,ohh ,0,lyrics,,,,,7,0.0036458333333333334
13241,,,,,,,,,,,,,,0,lyrics,,,,,2,0.0010416666666666667
13242,9.0,,,,,,,44.0,,,,,,75,note_on,,0.0,44.0,0.0,179712,93.6
13243,9.0,,,,,,,42.0,,,,,,0,note_on,,85.0,42.0,85.0,179712,93.6
13244,9.0,,,,,,,70.0,,,,,,0,note_on,,40.0,70.0,40.0,179712,93.6
13245,9.0,,,,,,,36.0,,,,,,0,note_on,,126.0,36.0,126.0,179712,93.6
13246,9.0,,,,,,,35.0,,,,,,0,note_on,,60.0,35.0,60.0,179712,93.6
13247,7.0,,,,,,,75.0,,,,,,87,note_on,,0.0,75.0,0.0,5617,2.925520833333333
13248,8.0,,,,,,,63.0,,,,,,0,note_on,,0.0,63.0,0.0,30204,15.73125
13249,9.0,,,,,,,36.0,,,,,,79,note_on,,0.0,36.0,0.0,179791,93.64114583333333
13250,9.0,,,,,,,35.0,,,,,,0,note_on,,0.0,35.0,0.0,179791,93.64114583333333
13251,9.0,,,,,,,70.0,,,,,,58,note_on,,0.0,70.0,0.0,179849,93.67135416666666
13252,9.0,,,,,,,42.0,,,,,,16,note_on,,0.0,42.0,0.0,179865,93.6796875
13253,8.0,,,,,,,87.0,,,,,,0,note_on,,45.0,87.0,45.0,30204,15.73125
13254,9.0,,,,,,,44.0,,,,,,0,note_on,,75.0,44.0,75.0,179865,93.6796875
13255,8.0,,,,,,,87.0,,,,,,137,note_on,,0.0,87.0,0.0,30341,15.802604166666667
13256,9.0,,,,,,,44.0,,,,,,103,note_on,,0.0,44.0,0.0,179968,93.73333333333333
13257,7.0,,,,,,,77.0,,,,,,0,note_on,,127.0,77.0,127.0,5617,2.925520833333333
13258,8.0,,,,,,,65.0,,,,,,0,note_on,,127.0,65.0,127.0,30341,15.802604166666667
13259,9.0,,,,,,,42.0,,,,,,0,note_on,,85.0,42.0,85.0,179968,93.73333333333333
13260,9.0,,,,,,,70.0,,,,,,0,note_on,,40.0,70.0,40.0,179968,93.73333333333333
13261,9.0,,,,,,,70.0,,,,,,224,note_on,,0.0,70.0,0.0,180192,93.85
13262,9.0,,,,,,,44.0,,,,,,16,note_on,,75.0,44.0,75.0,180208,93.85833333333333
13263,9.0,,,,,,,44.0,,,,,,240,note_on,,0.0,44.0,0.0,180448,93.98333333333333
13264,8.0,,,,,,,87.0,,,,,,0,note_on,,45.0,87.0,45.0,30341,15.802604166666667
13265,9.0,,,,,,,42.0,,,,,,0,note_on,,85.0,42.0,85.0,180448,93.98333333333333
13266,9.0,,,,,,,70.0,,,,,,0,note_on,,40.0,70.0,40.0,180448,93.98333333333333
13267,9.0,,,,,,,36.0,,,,,,0,note_on,,126.0,36.0,126.0,180448,93.98333333333333
13268,9.0,,,,,,,35.0,,,,,,0,note_on,,60.0,35.0,60.0,180448,93.98333333333333
13269,3.0,,,,,,,82.0,,,,,,27,note_on,,0.0,82.0,0.0,59234,30.851041666666667
13270,8.0,,,,,,,65.0,,,,,,8,note_on,,0.0,65.0,0.0,30349,15.806770833333333
13271,7.0,,,,,,,77.0,,,,,,0,note_on,,0.0,77.0,0.0,5617,2.925520833333333
13272,8.0,,,,,,,87.0,,,,,,98,note_on,,0.0,87.0,0.0,30447,15.8578125
13273,9.0,,,,,,,35.0,,,,,,21,note_on,,0.0,35.0,0.0,180469,93.99427083333333
13274,9.0,,,,,,,36.0,,,,,,0,note_on,,0.0,36.0,0.0,180469,93.99427083333333
13275,9.0,,,,,,,70.0,,,,,,70,note_on,,0.0,70.0,0.0,180539,94.03072916666666
13276,9.0,,,,,,,42.0,,,,,,16,note_on,,0.0,42.0,0.0,180555,94.0390625
13277,9.0,,,,,,,44.0,,,,,,0,note_on,,75.0,44.0,75.0,180555,94.0390625
13278,9.0,,,,,,,44.0,,,,,,240,note_on,,0.0,44.0,0.0,180795,94.1640625
13279,7.0,,,,,,,75.0,,,,,,0,note_on,,127.0,75.0,127.0,5617,2.925520833333333
13280,8.0,,,,,,,87.0,,,,,,0,note_on,,45.0,87.0,45.0,30447,15.8578125
13281,8.0,,,,,,,63.0,,,,,,0,note_on,,127.0,63.0,127.0,30447,15.8578125
13282,9.0,,,,,,,42.0,,,,,,0,note_on,,85.0,42.0,85.0,180795,94.1640625
13283,9.0,,,,,,,70.0,,,,,,0,note_on,,40.0,70.0,40.0,180795,94.1640625
13284,9.0,,,,,,,39.0,,,,,,0,note_on,,127.0,39.0,127.0,180795,94.1640625
13285,9.0,,,,,,,28.0,,,,,,0,note_on,,127.0,28.0,127.0,180795,94.1640625
13286,9.0,,,,,,,39.0,,,,,,123,note_on,,0.0,39.0,0.0,180918,94.228125
13287,9.0,,,,,,,28.0,,,,,,2,note_on,,0.0,28.0,0.0,180920,94.22916666666667
13288,8.0,,,,,,,87.0,,,,,,2,note_on,,0.0,87.0,0.0,30449,15.858854166666667
13289,9.0,,,,,,,42.0,,,,,,97,note_on,,0.0,42.0,0.0,181017,94.2796875
13290,9.0,,,,,,,70.0,,,,,,0,note_on,,0.0,70.0,0.0,181017,94.2796875
13291,9.0,,,,,,,42.0,,,,,,16,note_on,,0.0,42.0,0.0,181033,94.28802083333333
13292,9.0,,,,,,,44.0,,,,,,0,note_on,,75.0,44.0,75.0,181033,94.28802083333333
13293,9.0,,,,,,,44.0,,,,,,240,note_on,,0.0,44.0,0.0,181273,94.41302083333333
13294,8.0,,,,,,,87.0,,,,,,0,note_on,,45.0,87.0,45.0,30449,15.858854166666667
13295,9.0,,,,,,,42.0,,,,,,0,note_on,,85.0,42.0,85.0,181273,94.41302083333333
13296,9.0,,,,,,,61.0,,,,,,0,note_on,,100.0,61.0,100.0,181273,94.41302083333333
13297,9.0,,,,,,,70.0,,,,,,0,note_on,,40.0,70.0,40.0,181273,94.41302083333333
13298,7.0,,,,,,,75.0,,,,,,91,note_on,,0.0,75.0,0.0,5708,2.9729166666666664
13299,8.0,,,,,,,63.0,,,,,,0,note_on,,0.0,63.0,0.0,30449,15.858854166666667
13300,9.0,,,,,,,61.0,,,,,,23,note_on,,0.0,61.0,0.0,181296,94.425
13301,8.0,,,,,,,87.0,,,,,,4,note_on,,0.0,87.0,0.0,30453,15.8609375
13302,9.0,,,,,,,61.0,,,,,,2,note_on,,100.0,61.0,100.0,181298,94.42604166666666
13303,9.0,,,,,,,70.0,,,,,,104,note_on,,0.0,70.0,0.0,181402,94.48020833333334
13304,9.0,,,,,,,61.0,,,,,,10,note_on,,0.0,61.0,0.0,181412,94.48541666666667
13305,9.0,,,,,,,42.0,,,,,,6,note_on,,0.0,42.0,0.0,181418,94.48854166666666
13306,9.0,,,,,,,44.0,,,,,,0,note_on,,75.0,44.0,75.0,181418,94.48854166666666
13307,9.0,,,,,,,61.0,,,,,,0,note_on,,100.0,61.0,100.0,181418,94.48854166666666
13308,5.0,,,,,,,63.0,,,,,,85,note_on,,0.0,63.0,0.0,2999,1.5619791666666667
13309,5.0,,,,,,,56.0,,,,,,10,note_on,,0.0,56.0,0.0,3009,1.5671875
13310,5.0,,,,,,,60.0,,,,,,2,note_on,,0.0,60.0,0.0,3011,1.5682291666666666
13311,9.0,,,,,,,61.0,,,,,,17,note_on,,0.0,61.0,0.0,181435,94.49739583333333
13312,9.0,,,,,,,61.0,,,,,,6,note_on,,100.0,61.0,100.0,181441,94.50052083333333
13313,8.0,,,,,,,44.0,,,,,,80,note_on,,0.0,44.0,0.0,30533,15.902604166666666
13314,9.0,,,,,,,61.0,,,,,,34,note_on,,0.0,61.0,0.0,181475,94.51822916666667
13315,9.0,,,,,,,44.0,,,,,,6,note_on,,0.0,44.0,0.0,181481,94.52135416666667
13316,1.0,,,,,,,34.0,,,,,,0,note_on,,127.0,34.0,127.0,7047,3.6703125
13317,3.0,,,,,,,79.0,,,,,,0,note_on,,127.0,79.0,127.0,59234,30.851041666666667
13318,7.0,,,,,,,82.0,,,,,,0,note_on,,127.0,82.0,127.0,5708,2.9729166666666664
13319,8.0,,,,,,,46.0,,,,,,0,note_on,,127.0,46.0,127.0,30533,15.902604166666666
13320,8.0,,,,,,,70.0,,,,,,0,note_on,,127.0,70.0,127.0,30533,15.902604166666666
13321,9.0,,,,,,,61.0,,,,,,0,note_on,,100.0,61.0,100.0,181481,94.52135416666667
13322,9.0,,,,,,,42.0,,,,,,0,note_on,,85.0,42.0,85.0,181481,94.52135416666667
13323,9.0,,,,,,,70.0,,,,,,0,note_on,,40.0,70.0,40.0,181481,94.52135416666667
13324,9.0,,,,,,,36.0,,,,,,0,note_on,,126.0,36.0,126.0,181481,94.52135416666667
13325,9.0,,,,,,,35.0,,,,,,0,note_on,,60.0,35.0,60.0,181481,94.52135416666667
13326,11.0,,,,,,,62.0,,,,,,0,note_on,,127.0,62.0,127.0,36218,18.863541666666666
13327,11.0,,,,,,,58.0,,,,,,0,note_on,,127.0,58.0,127.0,36218,18.863541666666666
13328,11.0,,,,,,,65.0,,,,,,0,note_on,,127.0,65.0,127.0,36218,18.863541666666666
13329,,,,,,,,,,,,,I ,0,lyrics,,,,,7,0.0036458333333333334
13330,1.0,,,,,,,32.0,,,,,,6,note_on,,0.0,32.0,0.0,7053,3.6734375
13331,5.0,,,,,,,58.0,,,,,,76,note_on,,91.0,58.0,91.0,3087,1.6078124999999999
13332,5.0,,,,,,,62.0,,,,,,4,note_on,,83.0,62.0,83.0,3091,1.6098958333333333
13333,5.0,,,,,,,53.0,,,,,,10,note_on,,101.0,53.0,101.0,3101,1.6151041666666666
13334,9.0,,,,,,,61.0,,,,,,18,note_on,,0.0,61.0,0.0,181499,94.53072916666666
13335,9.0,,,,,,,35.0,,,,,,58,note_on,,0.0,35.0,0.0,181557,94.5609375
13336,9.0,,,,,,,36.0,,,,,,0,note_on,,0.0,36.0,0.0,181557,94.5609375
13337,3.0,,,,,,,79.0,,,,,,32,note_on,,0.0,79.0,0.0,59266,30.867708333333333
13338,9.0,,,,,,,42.0,,,,,,20,note_on,,0.0,42.0,0.0,181577,94.57135416666667
13339,9.0,,,,,,,70.0,,,,,,0,note_on,,0.0,70.0,0.0,181577,94.57135416666667
13340,9.0,,,,,,,44.0,,,,,,16,note_on,,75.0,44.0,75.0,181593,94.5796875
13341,11.0,,,,,,,58.0,,,,,,234,note_on,,0.0,58.0,0.0,36452,18.985416666666666
13342,9.0,,,,,,,44.0,,,,,,6,note_on,,0.0,44.0,0.0,181599,94.5828125
13343,3.0,,,,,,,77.0,,,,,,0,note_on,,127.0,77.0,127.0,59266,30.867708333333333
13344,8.0,,,,,,,87.0,,,,,,0,note_on,,45.0,87.0,45.0,30533,15.902604166666666
13345,9.0,,,,,,,42.0,,,,,,0,note_on,,85.0,42.0,85.0,181599,94.5828125
13346,9.0,,,,,,,70.0,,,,,,0,note_on,,40.0,70.0,40.0,181599,94.5828125
13347,10.0,,,,,,,62.0,,,,,,0,note_on,,127.0,62.0,127.0,22353,11.6421875
13348,10.0,,,,,,,58.0,,,,,,0,note_on,,127.0,58.0,127.0,22353,11.6421875
13349,10.0,,,,,,,65.0,,,,,,0,note_on,,127.0,65.0,127.0,22353,11.6421875
13350,,,,,,,,,,,,,thought ,0,lyrics,,,,,8,0.004166666666666667
13351,8.0,,,,,,,70.0,,,,,,29,note_on,,0.0,70.0,0.0,30562,15.917708333333334
13352,7.0,,,,,,,82.0,,,,,,0,note_on,,0.0,82.0,0.0,5708,2.9729166666666664
13353,11.0,,,,,,,65.0,,,,,,18,note_on,,0.0,65.0,0.0,36470,18.994791666666668
13354,11.0,,,,,,,62.0,,,,,,2,note_on,,0.0,62.0,0.0,36472,18.995833333333334
13355,8.0,,,,,,,87.0,,,,,,67,note_on,,0.0,87.0,0.0,30629,15.952604166666667
13356,3.0,,,,,,,77.0,,,,,,88,note_on,,0.0,77.0,0.0,59354,30.913541666666667
13357,9.0,,,,,,,70.0,,,,,,20,note_on,,0.0,70.0,0.0,181619,94.59322916666666
13358,9.0,,,,,,,42.0,,,,,,16,note_on,,0.0,42.0,0.0,181635,94.6015625
13359,8.0,,,,,,,87.0,,,,,,0,note_on,,45.0,87.0,45.0,30629,15.952604166666667
13360,9.0,,,,,,,44.0,,,,,,0,note_on,,75.0,44.0,75.0,181635,94.6015625
13361,9.0,,,,,,,36.0,,,,,,0,note_on,,126.0,36.0,126.0,181635,94.6015625
13362,9.0,,,,,,,35.0,,,,,,0,note_on,,60.0,35.0,60.0,181635,94.6015625
13363,8.0,,,,,,,87.0,,,,,,112,note_on,,0.0,87.0,0.0,30741,16.0109375
13364,9.0,,,,,,,35.0,,,,,,112,note_on,,0.0,35.0,0.0,181747,94.65989583333334
13365,9.0,,,,,,,36.0,,,,,,0,note_on,,0.0,36.0,0.0,181747,94.65989583333334
13366,10.0,,,,,,,58.0,,,,,,10,note_on,,0.0,58.0,0.0,22363,11.647395833333333
13367,9.0,,,,,,,44.0,,,,,,6,note_on,,0.0,44.0,0.0,181753,94.66302083333333
13368,3.0,,,,,,,79.0,,,,,,0,note_on,,127.0,79.0,127.0,59354,30.913541666666667
13369,7.0,,,,,,,75.0,,,,,,0,note_on,,127.0,75.0,127.0,5708,2.9729166666666664
13370,8.0,,,,,,,63.0,,,,,,0,note_on,,127.0,63.0,127.0,30741,16.0109375
13371,9.0,,,,,,,42.0,,,,,,0,note_on,,85.0,42.0,85.0,181753,94.66302083333333
13372,9.0,,,,,,,70.0,,,,,,0,note_on,,40.0,70.0,40.0,181753,94.66302083333333
13373,9.0,,,,,,,39.0,,,,,,0,note_on,,125.0,39.0,125.0,181753,94.66302083333333
13374,9.0,,,,,,,28.0,,,,,,0,note_on,,127.0,28.0,127.0,181753,94.66302083333333
13375,12.0,,,,,,,62.0,,,,,,0,note_on,,127.0,62.0,127.0,32136,16.7375
13376,12.0,,,,,,,58.0,,,,,,0,note_on,,127.0,58.0,127.0,32136,16.7375
13377,12.0,,,,,,,65.0,,,,,,0,note_on,,127.0,65.0,127.0,32136,16.7375
13378,,,,,,,,,,,,,youd ,0,lyrics,,,,,7,0.0036458333333333334
13379,10.0,,,,,,,65.0,,,,,,47,note_on,,0.0,65.0,0.0,22410,11.671875
13380,10.0,,,,,,,62.0,,,,,,2,note_on,,0.0,62.0,0.0,22412,11.672916666666666
13381,9.0,,,,,,,28.0,,,,,,68,note_on,,0.0,28.0,0.0,181821,94.6984375
13382,9.0,,,,,,,39.0,,,,,,34,note_on,,0.0,39.0,0.0,181855,94.71614583333333
13383,9.0,,,,,,,70.0,,,,,,73,note_on,,0.0,70.0,0.0,181928,94.75416666666666
13384,9.0,,,,,,,42.0,,,,,,0,note_on,,0.0,42.0,0.0,181928,94.75416666666666
13385,9.0,,,,,,,44.0,,,,,,16,note_on,,75.0,44.0,75.0,181944,94.7625
13386,12.0,,,,,,,58.0,,,,,,234,note_on,,0.0,58.0,0.0,32370,16.859375
13387,9.0,,,,,,,44.0,,,,,,6,note_on,,0.0,44.0,0.0,181950,94.765625
13388,8.0,,,,,,,87.0,,,,,,0,note_on,,45.0,87.0,45.0,30741,16.0109375
13389,9.0,,,,,,,42.0,,,,,,0,note_on,,85.0,42.0,85.0,181950,94.765625
13390,9.0,,,,,,,70.0,,,,,,0,note_on,,40.0,70.0,40.0,181950,94.765625
13391,9.0,,,,,,,36.0,,,,,,0,note_on,,126.0,36.0,126.0,181950,94.765625
13392,9.0,,,,,,,35.0,,,,,,0,note_on,,60.0,35.0,60.0,181950,94.765625
13393,8.0,,,,,,,63.0,,,,,,37,note_on,,0.0,63.0,0.0,30778,16.030208333333334
13394,7.0,,,,,,,75.0,,,,,,0,note_on,,0.0,75.0,0.0,5708,2.9729166666666664
13395,12.0,,,,,,,65.0,,,,,,10,note_on,,0.0,65.0,0.0,32380,16.864583333333332
13396,12.0,,,,,,,62.0,,,,,,2,note_on,,0.0,62.0,0.0,32382,16.865625
13397,8.0,,,,,,,87.0,,,,,,71,note_on,,0.0,87.0,0.0,30849,16.0671875
13398,9.0,,,,,,,36.0,,,,,,46,note_on,,0.0,36.0,0.0,181996,94.78958333333333
13399,9.0,,,,,,,35.0,,,,,,0,note_on,,0.0,35.0,0.0,181996,94.78958333333333
13400,3.0,,,,,,,79.0,,,,,,7,note_on,,0.0,79.0,0.0,59361,30.9171875
13401,9.0,,,,,,,70.0,,,,,,51,note_on,,0.0,70.0,0.0,182047,94.81614583333334
13402,9.0,,,,,,,42.0,,,,,,16,note_on,,0.0,42.0,0.0,182063,94.82447916666666
13403,9.0,,,,,,,44.0,,,,,,0,note_on,,75.0,44.0,75.0,182063,94.82447916666666
13404,9.0,,,,,,,44.0,,,,,,240,note_on,,0.0,44.0,0.0,182303,94.94947916666666
13405,3.0,,,,,,,79.0,,,,,,0,note_on,,127.0,79.0,127.0,59361,30.9171875
13406,7.0,,,,,,,77.0,,,,,,0,note_on,,127.0,77.0,127.0,5708,2.9729166666666664
13407,8.0,,,,,,,87.0,,,,,,0,note_on,,45.0,87.0,45.0,30849,16.0671875
13408,8.0,,,,,,,65.0,,,,,,0,note_on,,127.0,65.0,127.0,30849,16.0671875
13409,9.0,,,,,,,42.0,,,,,,0,note_on,,85.0,42.0,85.0,182303,94.94947916666666
13410,9.0,,,,,,,70.0,,,,,,0,note_on,,40.0,70.0,40.0,182303,94.94947916666666
13411,,,,,,,,,,,,,al ,0,lyrics,,,,,2,0.0010416666666666667
13412,8.0,,,,,,,87.0,,,,,,123,note_on,,0.0,87.0,0.0,30972,16.13125
13413,3.0,,,,,,,79.0,,,,,,60,note_on,,0.0,79.0,0.0,59421,30.9484375
13414,9.0,,,,,,,42.0,,,,,,41,note_on,,0.0,42.0,0.0,182344,94.97083333333333
13415,9.0,,,,,,,70.0,,,,,,0,note_on,,0.0,70.0,0.0,182344,94.97083333333333
13416,9.0,,,,,,,44.0,,,,,,16,note_on,,75.0,44.0,75.0,182360,94.97916666666667
13417,9.0,,,,,,,44.0,,,,,,240,note_on,,0.0,44.0,0.0,182600,95.10416666666667
13418,3.0,,,,,,,79.0,,,,,,0,note_on,,127.0,79.0,127.0,59421,30.9484375
13419,8.0,,,,,,,87.0,,,,,,0,note_on,,45.0,87.0,45.0,30972,16.13125
13420,9.0,,,,,,,42.0,,,,,,0,note_on,,85.0,42.0,85.0,182600,95.10416666666667
13421,9.0,,,,,,,70.0,,,,,,0,note_on,,40.0,70.0,40.0,182600,95.10416666666667
13422,9.0,,,,,,,36.0,,,,,,0,note_on,,126.0,36.0,126.0,182600,95.10416666666667
13423,9.0,,,,,,,35.0,,,,,,0,note_on,,60.0,35.0,60.0,182600,95.10416666666667
13424,,,,,,,,,,,,,ways ,0,lyrics,,,,,7,0.0036458333333333334
13425,7.0,,,,,,,77.0,,,,,,97,note_on,,0.0,77.0,0.0,5805,3.0234375
13426,8.0,,,,,,,65.0,,,,,,0,note_on,,0.0,65.0,0.0,30972,16.13125
13427,8.0,,,,,,,87.0,,,,,,30,note_on,,0.0,87.0,0.0,31002,16.146875
13428,9.0,,,,,,,35.0,,,,,,27,note_on,,0.0,35.0,0.0,182627,95.11822916666667
13429,9.0,,,,,,,36.0,,,,,,0,note_on,,0.0,36.0,0.0,182627,95.11822916666667
13430,9.0,,,,,,,70.0,,,,,,70,note_on,,0.0,70.0,0.0,182697,95.1546875
13431,9.0,,,,,,,42.0,,,,,,16,note_on,,0.0,42.0,0.0,182713,95.16302083333333
13432,9.0,,,,,,,44.0,,,,,,0,note_on,,75.0,44.0,75.0,182713,95.16302083333333
13433,9.0,,,,,,,44.0,,,,,,240,note_on,,0.0,44.0,0.0,182953,95.28802083333333
13434,7.0,,,,,,,75.0,,,,,,0,note_on,,127.0,75.0,127.0,5805,3.0234375
13435,8.0,,,,,,,63.0,,,,,,0,note_on,,127.0,63.0,127.0,31002,16.146875
13436,9.0,,,,,,,42.0,,,,,,0,note_on,,85.0,42.0,85.0,182953,95.28802083333333
13437,9.0,,,,,,,70.0,,,,,,0,note_on,,40.0,70.0,40.0,182953,95.28802083333333
13438,9.0,,,,,,,39.0,,,,,,0,note_on,,127.0,39.0,127.0,182953,95.28802083333333
13439,9.0,,,,,,,28.0,,,,,,0,note_on,,127.0,28.0,127.0,182953,95.28802083333333
13440,11.0,,,,,,,62.0,,,,,,0,note_on,,127.0,62.0,127.0,36472,18.995833333333334
13441,11.0,,,,,,,67.0,,,,,,0,note_on,,127.0,67.0,127.0,36472,18.995833333333334
13442,11.0,,,,,,,58.0,,,,,,0,note_on,,127.0,58.0,127.0,36472,18.995833333333334
13443,9.0,,,,,,,39.0,,,,,,123,note_on,,0.0,39.0,0.0,183076,95.35208333333333
13444,9.0,,,,,,,28.0,,,,,,2,note_on,,0.0,28.0,0.0,183078,95.353125
13445,7.0,,,,,,,75.0,,,,,,85,note_on,,0.0,75.0,0.0,5890,3.0677083333333335
13446,8.0,,,,,,,63.0,,,,,,0,note_on,,0.0,63.0,0.0,31002,16.146875
13447,9.0,,,,,,,42.0,,,,,,14,note_on,,0.0,42.0,0.0,183092,95.36041666666667
13448,9.0,,,,,,,70.0,,,,,,0,note_on,,0.0,70.0,0.0,183092,95.36041666666667
13449,9.0,,,,,,,44.0,,,,,,16,note_on,,75.0,44.0,75.0,183108,95.36875
13450,3.0,,,,,,,79.0,,,,,,14,note_on,,0.0,79.0,0.0,59435,30.955729166666668
13451,11.0,,,,,,,67.0,,,,,,113,note_on,,0.0,67.0,0.0,36585,19.0546875
13452,11.0,,,,,,,58.0,,,,,,11,note_on,,0.0,58.0,0.0,36596,19.060416666666665
13453,11.0,,,,,,,62.0,,,,,,36,note_on,,0.0,62.0,0.0,36632,19.079166666666666
13454,9.0,,,,,,,44.0,,,,,,66,note_on,,0.0,44.0,0.0,183174,95.403125
13455,3.0,,,,,,,79.0,,,,,,0,note_on,,127.0,79.0,127.0,59435,30.955729166666668
13456,7.0,,,,,,,77.0,,,,,,0,note_on,,127.0,77.0,127.0,5890,3.0677083333333335
13457,8.0,,,,,,,87.0,,,,,,0,note_on,,45.0,87.0,45.0,31002,16.146875
13458,8.0,,,,,,,65.0,,,,,,0,note_on,,127.0,65.0,127.0,31002,16.146875
13459,9.0,,,,,,,42.0,,,,,,0,note_on,,85.0,42.0,85.0,183174,95.403125
13460,9.0,,,,,,,70.0,,,,,,0,note_on,,40.0,70.0,40.0,183174,95.403125
13461,10.0,,,,,,,62.0,,,,,,0,note_on,,127.0,62.0,127.0,22412,11.672916666666666
13462,10.0,,,,,,,67.0,,,,,,0,note_on,,127.0,67.0,127.0,22412,11.672916666666666
13463,10.0,,,,,,,58.0,,,,,,0,note_on,,127.0,58.0,127.0,22412,11.672916666666666
13464,11.0,,,,,,,62.0,,,,,,0,note_on,,127.0,62.0,127.0,36632,19.079166666666666
13465,11.0,,,,,,,58.0,,,,,,0,note_on,,118.0,58.0,118.0,36632,19.079166666666666
13466,11.0,,,,,,,65.0,,,,,,0,note_on,,127.0,65.0,127.0,36632,19.079166666666666
13467,,,,,,,,,,,,,be ,0,lyrics,,,,,2,0.0010416666666666667
13468,8.0,,,,,,,87.0,,,,,,127,note_on,,0.0,87.0,0.0,31129,16.21302083333333
13469,7.0,,,,,,,77.0,,,,,,60,note_on,,0.0,77.0,0.0,5950,3.0989583333333335
13470,8.0,,,,,,,65.0,,,,,,0,note_on,,0.0,65.0,0.0,31129,16.21302083333333
13471,9.0,,,,,,,70.0,,,,,,37,note_on,,0.0,70.0,0.0,183211,95.42239583333333
13472,9.0,,,,,,,42.0,,,,,,16,note_on,,0.0,42.0,0.0,183227,95.43072916666667
13473,9.0,,,,,,,44.0,,,,,,0,note_on,,75.0,44.0,75.0,183227,95.43072916666667
13474,10.0,,,,,,,67.0,,,,,,127,note_on,,0.0,67.0,0.0,22539,11.7390625
13475,10.0,,,,,,,58.0,,,,,,11,note_on,,0.0,58.0,0.0,22550,11.744791666666666
13476,11.0,,,,,,,58.0,,,,,,7,note_on,,0.0,58.0,0.0,36639,19.0828125
13477,11.0,,,,,,,65.0,,,,,,23,note_on,,0.0,65.0,0.0,36662,19.094791666666666
13478,10.0,,,,,,,62.0,,,,,,6,note_on,,0.0,62.0,0.0,22556,11.747916666666667
13479,11.0,,,,,,,62.0,,,,,,13,note_on,,0.0,62.0,0.0,36675,19.1015625
13480,9.0,,,,,,,44.0,,,,,,53,note_on,,0.0,44.0,0.0,183280,95.45833333333333
13481,3.0,,,,,,,79.0,,,,,,0,note_on,,0.0,79.0,0.0,59435,30.955729166666668
13482,3.0,,,,,,,77.0,,,,,,0,note_on,,127.0,77.0,127.0,59435,30.955729166666668
13483,7.0,,,,,,,82.0,,,,,,0,note_on,,127.0,82.0,127.0,5950,3.0989583333333335
13484,8.0,,,,,,,87.0,,,,,,0,note_on,,45.0,87.0,45.0,31129,16.21302083333333
13485,8.0,,,,,,,70.0,,,,,,0,note_on,,127.0,70.0,127.0,31129,16.21302083333333
13486,9.0,,,,,,,42.0,,,,,,0,note_on,,85.0,42.0,85.0,183280,95.45833333333333
13487,9.0,,,,,,,70.0,,,,,,0,note_on,,40.0,70.0,40.0,183280,95.45833333333333
13488,9.0,,,,,,,36.0,,,,,,0,note_on,,126.0,36.0,126.0,183280,95.45833333333333
13489,9.0,,,,,,,35.0,,,,,,0,note_on,,60.0,35.0,60.0,183280,95.45833333333333
13490,10.0,,,,,,,62.0,,,,,,0,note_on,,127.0,62.0,127.0,22556,11.747916666666667
13491,10.0,,,,,,,58.0,,,,,,0,note_on,,118.0,58.0,118.0,22556,11.747916666666667
13492,10.0,,,,,,,65.0,,,,,,0,note_on,,127.0,65.0,127.0,22556,11.747916666666667
13493,12.0,,,,,,,62.0,,,,,,0,note_on,,127.0,62.0,127.0,32382,16.865625
13494,12.0,,,,,,,67.0,,,,,,0,note_on,,127.0,67.0,127.0,32382,16.865625
13495,12.0,,,,,,,58.0,,,,,,0,note_on,,127.0,58.0,127.0,32382,16.865625
13496,,,,,,,,,,,,,mi ,0,lyrics,,,,,9,0.0046875
13497,8.0,,,,,,,87.0,,,,,,135,note_on,,0.0,87.0,0.0,31264,16.28333333333333
13498,9.0,,,,,,,35.0,,,,,,37,note_on,,0.0,35.0,0.0,183317,95.47760416666667
13499,9.0,,,,,,,36.0,,,,,,0,note_on,,0.0,36.0,0.0,183317,95.47760416666667
13500,9.0,,,,,,,42.0,,,,,,52,note_on,,0.0,42.0,0.0,183369,95.5046875
13501,9.0,,,,,,,70.0,,,,,,0,note_on,,0.0,70.0,0.0,183369,95.5046875
13502,9.0,,,,,,,44.0,,,,,,16,note_on,,75.0,44.0,75.0,183385,95.51302083333333
13503,12.0,,,,,,,67.0,,,,,,127,note_on,,0.0,67.0,0.0,32509,16.93177083333333
13504,12.0,,,,,,,58.0,,,,,,11,note_on,,0.0,58.0,0.0,32520,16.9375
13505,10.0,,,,,,,58.0,,,,,,7,note_on,,0.0,58.0,0.0,22563,11.7515625
13506,10.0,,,,,,,65.0,,,,,,23,note_on,,0.0,65.0,0.0,22586,11.763541666666667
13507,12.0,,,,,,,62.0,,,,,,6,note_on,,0.0,62.0,0.0,32526,16.940625
13508,10.0,,,,,,,62.0,,,,,,13,note_on,,0.0,62.0,0.0,22599,11.7703125
13509,9.0,,,,,,,44.0,,,,,,53,note_on,,0.0,44.0,0.0,183438,95.540625
13510,9.0,,,,,,,42.0,,,,,,0,note_on,,85.0,42.0,85.0,183438,95.540625
13511,9.0,,,,,,,70.0,,,,,,0,note_on,,40.0,70.0,40.0,183438,95.540625
13512,12.0,,,,,,,62.0,,,,,,0,note_on,,127.0,62.0,127.0,32526,16.940625
13513,12.0,,,,,,,58.0,,,,,,0,note_on,,118.0,58.0,118.0,32526,16.940625
13514,12.0,,,,,,,65.0,,,,,,0,note_on,,127.0,65.0,127.0,32526,16.940625
13515,8.0,,,,,,,70.0,,,,,,85,note_on,,0.0,70.0,0.0,31349,16.327604166666667
13516,7.0,,,,,,,82.0,,,,,,0,note_on,,0.0,82.0,0.0,5950,3.0989583333333335
13517,3.0,,,,,,,77.0,,,,,,138,note_on,,0.0,77.0,0.0,59573,31.027604166666666
13518,9.0,,,,,,,70.0,,,,,,1,note_on,,0.0,70.0,0.0,183439,95.54114583333333
13519,9.0,,,,,,,42.0,,,,,,16,note_on,,0.0,42.0,0.0,183455,95.54947916666667
13520,8.0,,,,,,,87.0,,,,,,0,note_on,,45.0,87.0,45.0,31349,16.327604166666667
13521,9.0,,,,,,,44.0,,,,,,0,note_on,,75.0,44.0,75.0,183455,95.54947916666667
13522,9.0,,,,,,,36.0,,,,,,0,note_on,,126.0,36.0,126.0,183455,95.54947916666667
13523,9.0,,,,,,,35.0,,,,,,0,note_on,,60.0,35.0,60.0,183455,95.54947916666667
13524,8.0,,,,,,,87.0,,,,,,123,note_on,,0.0,87.0,0.0,31472,16.391666666666666
13525,12.0,,,,,,,58.0,,,,,,22,note_on,,0.0,58.0,0.0,32548,16.952083333333334
13526,12.0,,,,,,,65.0,,,,,,23,note_on,,0.0,65.0,0.0,32571,16.9640625
13527,12.0,,,,,,,62.0,,,,,,19,note_on,,0.0,62.0,0.0,32590,16.973958333333332
13528,9.0,,,,,,,36.0,,,,,,37,note_on,,0.0,36.0,0.0,183492,95.56875
13529,9.0,,,,,,,35.0,,,,,,0,note_on,,0.0,35.0,0.0,183492,95.56875
13530,9.0,,,,,,,44.0,,,,,,16,note_on,,0.0,44.0,0.0,183508,95.57708333333333
13531,3.0,,,,,,,77.0,,,,,,0,note_on,,127.0,77.0,127.0,59573,31.027604166666666
13532,7.0,,,,,,,75.0,,,,,,0,note_on,,127.0,75.0,127.0,5950,3.0989583333333335
13533,8.0,,,,,,,63.0,,,,,,0,note_on,,127.0,63.0,127.0,31472,16.391666666666666
13534,9.0,,,,,,,42.0,,,,,,0,note_on,,85.0,42.0,85.0,183508,95.57708333333333
13535,9.0,,,,,,,70.0,,,,,,0,note_on,,40.0,70.0,40.0,183508,95.57708333333333
13536,9.0,,,,,,,39.0,,,,,,0,note_on,,125.0,39.0,125.0,183508,95.57708333333333
13537,9.0,,,,,,,28.0,,,,,,0,note_on,,127.0,28.0,127.0,183508,95.57708333333333
13538,11.0,,,,,,,63.0,,,,,,0,note_on,,100.0,63.0,100.0,36675,19.1015625
13539,11.0,,,,,,,56.0,,,,,,0,note_on,,127.0,56.0,127.0,36675,19.1015625
13540,11.0,,,,,,,62.0,,,,,,0,note_on,,126.0,62.0,126.0,36675,19.1015625
13541,11.0,,,,,,,53.0,,,,,,0,note_on,,127.0,53.0,127.0,36675,19.1015625
13542,11.0,,,,,,,58.0,,,,,,0,note_on,,127.0,58.0,127.0,36675,19.1015625
13543,,,,,,,,,,,,,ne ,0,lyrics,,,,,7,0.0036458333333333334
13544,9.0,,,,,,,28.0,,,,,,117,note_on,,0.0,28.0,0.0,183625,95.63802083333333
13545,9.0,,,,,,,39.0,,,,,,34,note_on,,0.0,39.0,0.0,183659,95.65572916666666
13546,9.0,,,,,,,70.0,,,,,,73,note_on,,0.0,70.0,0.0,183732,95.69375
13547,9.0,,,,,,,42.0,,,,,,0,note_on,,0.0,42.0,0.0,183732,95.69375
13548,9.0,,,,,,,44.0,,,,,,16,note_on,,75.0,44.0,75.0,183748,95.70208333333333
13549,3.0,,,,,,,77.0,,,,,,180,note_on,,0.0,77.0,0.0,59753,31.121354166666666
13550,9.0,,,,,,,44.0,,,,,,60,note_on,,0.0,44.0,0.0,183808,95.73333333333333
13551,3.0,,,,,,,75.0,,,,,,0,note_on,,127.0,75.0,127.0,59753,31.121354166666666
13552,3.0,,,,,,,70.0,,,,,,0,note_on,,127.0,70.0,127.0,59753,31.121354166666666
13553,8.0,,,,,,,87.0,,,,,,0,note_on,,45.0,87.0,45.0,31472,16.391666666666666
13554,9.0,,,,,,,42.0,,,,,,0,note_on,,85.0,42.0,85.0,183808,95.73333333333333
13555,9.0,,,,,,,70.0,,,,,,0,note_on,,40.0,70.0,40.0,183808,95.73333333333333
13556,9.0,,,,,,,36.0,,,,,,0,note_on,,126.0,36.0,126.0,183808,95.73333333333333
13557,9.0,,,,,,,35.0,,,,,,0,note_on,,60.0,35.0,60.0,183808,95.73333333333333
13558,10.0,,,,,,,63.0,,,,,,0,note_on,,100.0,63.0,100.0,22599,11.7703125
13559,10.0,,,,,,,56.0,,,,,,0,note_on,,127.0,56.0,127.0,22599,11.7703125
13560,10.0,,,,,,,62.0,,,,,,0,note_on,,126.0,62.0,126.0,22599,11.7703125
13561,10.0,,,,,,,53.0,,,,,,0,note_on,,127.0,53.0,127.0,22599,11.7703125
13562,10.0,,,,,,,58.0,,,,,,0,note_on,,127.0,58.0,127.0,22599,11.7703125
13563,,,,,,,,,,,,,Now ,0,lyrics,,,,,10,0.005208333333333333
13564,8.0,,,,,,,63.0,,,,,,99,note_on,,0.0,63.0,0.0,31571,16.443229166666665
13565,7.0,,,,,,,75.0,,,,,,0,note_on,,0.0,75.0,0.0,5950,3.0989583333333335
13566,8.0,,,,,,,87.0,,,,,,21,note_on,,0.0,87.0,0.0,31592,16.454166666666666
13567,9.0,,,,,,,35.0,,,,,,46,note_on,,0.0,35.0,0.0,183854,95.75729166666666
13568,9.0,,,,,,,36.0,,,,,,0,note_on,,0.0,36.0,0.0,183854,95.75729166666666
13569,9.0,,,,,,,70.0,,,,,,58,note_on,,0.0,70.0,0.0,183912,95.7875
13570,3.0,,,,,,,75.0,,,,,,16,note_on,,0.0,75.0,0.0,59769,31.1296875
13571,9.0,,,,,,,42.0,,,,,,0,note_on,,0.0,42.0,0.0,183912,95.7875
13572,9.0,,,,,,,44.0,,,,,,0,note_on,,75.0,44.0,75.0,183912,95.7875
13573,9.0,,,,,,,44.0,,,,,,240,note_on,,0.0,44.0,0.0,184152,95.9125
13574,3.0,,,,,,,74.0,,,,,,0,note_on,,127.0,74.0,127.0,59769,31.1296875
13575,7.0,,,,,,,77.0,,,,,,0,note_on,,127.0,77.0,127.0,5950,3.0989583333333335
13576,8.0,,,,,,,65.0,,,,,,0,note_on,,127.0,65.0,127.0,31592,16.454166666666666
13577,9.0,,,,,,,42.0,,,,,,0,note_on,,85.0,42.0,85.0,184152,95.9125
13578,9.0,,,,,,,70.0,,,,,,0,note_on,,40.0,70.0,40.0,184152,95.9125
13579,12.0,,,,,,,63.0,,,,,,0,note_on,,100.0,63.0,100.0,32590,16.973958333333332
13580,12.0,,,,,,,56.0,,,,,,0,note_on,,127.0,56.0,127.0,32590,16.973958333333332
13581,12.0,,,,,,,62.0,,,,,,0,note_on,,126.0,62.0,126.0,32590,16.973958333333332
13582,12.0,,,,,,,53.0,,,,,,0,note_on,,127.0,53.0,127.0,32590,16.973958333333332
13583,12.0,,,,,,,58.0,,,,,,0,note_on,,127.0,58.0,127.0,32590,16.973958333333332
13584,,,,,,,,,,,,,Im ,0,lyrics,,,,,7,0.0036458333333333334
13585,3.0,,,,,,,70.0,,,,,,33,note_on,,0.0,70.0,0.0,59802,31.146874999999998
13586,9.0,,,,,,,70.0,,,,,,191,note_on,,0.0,70.0,0.0,184343,96.01197916666666
13587,8.0,,,,,,,65.0,,,,,,2,note_on,,0.0,65.0,0.0,31594,16.45520833333333
13588,7.0,,,,,,,77.0,,,,,,0,note_on,,0.0,77.0,0.0,5950,3.0989583333333335
13589,8.0,,,,,,,87.0,,,,,,14,note_on,,45.0,87.0,45.0,31608,16.4625
13590,9.0,,,,,,,44.0,,,,,,0,note_on,,75.0,44.0,75.0,184343,96.01197916666666
13591,8.0,,,,,,,87.0,,,,,,95,note_on,,0.0,87.0,0.0,31703,16.511979166666666
13592,11.0,,,,,,,63.0,,,,,,145,note_on,,0.0,63.0,0.0,36820,19.177083333333332
13593,9.0,,,,,,,44.0,,,,,,0,note_on,,0.0,44.0,0.0,184343,96.01197916666666
13594,7.0,,,,,,,75.0,,,,,,0,note_on,,127.0,75.0,127.0,5950,3.0989583333333335
13595,8.0,,,,,,,63.0,,,,,,0,note_on,,127.0,63.0,127.0,31703,16.511979166666666
13596,9.0,,,,,,,42.0,,,,,,0,note_on,,85.0,42.0,85.0,184343,96.01197916666666
13597,9.0,,,,,,,70.0,,,,,,0,note_on,,40.0,70.0,40.0,184343,96.01197916666666
13598,9.0,,,,,,,36.0,,,,,,0,note_on,,126.0,36.0,126.0,184343,96.01197916666666
13599,9.0,,,,,,,35.0,,,,,,0,note_on,,60.0,35.0,60.0,184343,96.01197916666666
13600,11.0,,,,,,,63.0,,,,,,0,note_on,,127.0,63.0,127.0,36820,19.177083333333332
13601,9.0,,,,,,,35.0,,,,,,154,note_on,,0.0,35.0,0.0,184497,96.0921875
13602,9.0,,,,,,,36.0,,,,,,0,note_on,,0.0,36.0,0.0,184497,96.0921875
13603,8.0,,,,,,,63.0,,,,,,59,note_on,,0.0,63.0,0.0,31762,16.542708333333334
13604,7.0,,,,,,,75.0,,,,,,0,note_on,,0.0,75.0,0.0,5950,3.0989583333333335
13605,9.0,,,,,,,70.0,,,,,,11,note_on,,0.0,70.0,0.0,184508,96.09791666666666
13606,9.0,,,,,,,42.0,,,,,,16,note_on,,0.0,42.0,0.0,184524,96.10625
13607,9.0,,,,,,,44.0,,,,,,0,note_on,,75.0,44.0,75.0,184524,96.10625
13608,3.0,,,,,,,74.0,,,,,,17,note_on,,0.0,74.0,0.0,59819,31.155729166666667
13609,1.0,,,,,,,34.0,,,,,,103,note_on,,0.0,34.0,0.0,7156,3.7270833333333333
13610,1.0,,,,,,,,,-361.0,,,,69,pitchwheel,,,,,7225,3.7630208333333335
13611,1.0,,,,,,,,,-979.0,,,,10,pitchwheel,,,,,7235,3.7682291666666665
13612,1.0,,,,,,,,,-1623.0,,,,8,pitchwheel,,,,,7243,3.7723958333333334
13613,1.0,,,,,,,,,-2061.0,,,,7,pitchwheel,,,,,7250,3.7760416666666665
13614,1.0,,,,,,,,,-2525.0,,,,8,pitchwheel,,,,,7258,3.7802083333333334
13615,1.0,,,,,,,,,-3375.0,,,,10,pitchwheel,,,,,7268,3.7854166666666664
13616,10.0,,,,,,,63.0,,,,,,8,note_on,,0.0,63.0,0.0,22607,11.774479166666666
13617,9.0,,,,,,,44.0,,,,,,0,note_on,,0.0,44.0,0.0,184524,96.10625
13618,3.0,,,,,,,75.0,,,,,,0,note_on,,127.0,75.0,127.0,59819,31.155729166666667
13619,7.0,,,,,,,77.0,,,,,,0,note_on,,127.0,77.0,127.0,5950,3.0989583333333335
13620,8.0,,,,,,,87.0,,,,,,0,note_on,,45.0,87.0,45.0,31762,16.542708333333334
13621,8.0,,,,,,,65.0,,,,,,0,note_on,,127.0,65.0,127.0,31762,16.542708333333334
13622,9.0,,,,,,,42.0,,,,,,0,note_on,,85.0,42.0,85.0,184524,96.10625
13623,9.0,,,,,,,70.0,,,,,,0,note_on,,40.0,70.0,40.0,184524,96.10625
13624,9.0,,,,,,,39.0,,,,,,0,note_on,,127.0,39.0,127.0,184524,96.10625
13625,9.0,,,,,,,28.0,,,,,,0,note_on,,127.0,28.0,127.0,184524,96.10625
13626,10.0,,,,,,,63.0,,,,,,0,note_on,,127.0,63.0,127.0,22607,11.774479166666666
13627,,,,,,,,,,,,,all ,0,lyrics,,,,,9,0.0046875
13628,1.0,,,,,,,,,-3813.0,,,,1,pitchwheel,,,,,7269,3.7859374999999997
13629,1.0,,,,,,,22.0,,,,,,0,note_on,,127.0,22.0,127.0,7269,3.7859374999999997
13630,1.0,,,,,,,,,-4354.0,,,,8,pitchwheel,,,,,7277,3.7901041666666666
13631,1.0,,,,,,,,,-5050.0,,,,10,pitchwheel,,,,,7287,3.7953125
13632,1.0,,,,,,,,,-5719.0,,,,9,pitchwheel,,,,,7296,3.8
13633,1.0,,,,,,,,,-6673.0,,,,14,pitchwheel,,,,,7310,3.8072916666666665
13634,1.0,,,,,,,,,-7033.0,,,,11,pitchwheel,,,,,7321,3.8130208333333333
13635,8.0,,,,,,,87.0,,,,,,4,note_on,,0.0,87.0,0.0,31766,16.544791666666665
13636,1.0,,,,,,,,,-7652.0,,,,6,pitchwheel,,,,,7327,3.816145833333333
13637,1.0,,,,,,,,,-8167.0,,,,8,pitchwheel,,,,,7335,3.8203125
13638,1.0,,,,,,,,,-8192.0,,,,9,pitchwheel,,,,,7344,3.8249999999999997
13639,9.0,,,,,,,39.0,,,,,,43,note_on,,0.0,39.0,0.0,184567,96.12864583333334
13640,9.0,,,,,,,28.0,,,,,,2,note_on,,0.0,28.0,0.0,184569,96.1296875
13641,1.0,,,,,,,,,-7806.0,,,,52,pitchwheel,,,,,7396,3.8520833333333333
13642,7.0,,,,,,,77.0,,,,,,9,note_on,,0.0,77.0,0.0,5959,3.103645833333333
13643,8.0,,,,,,,65.0,,,,,,0,note_on,,0.0,65.0,0.0,31766,16.544791666666665
13644,1.0,,,,,,,,,-6930.0,,,,0,pitchwheel,,,,,7396,3.8520833333333333
13645,1.0,,,,,,,,,-5153.0,,,,8,pitchwheel,,,,,7404,3.8562499999999997
13646,1.0,,,,,,,,,-2911.0,,,,8,pitchwheel,,,,,7412,3.8604166666666666
13647,1.0,,,,,,,,,-129.0,,,,9,pitchwheel,,,,,7421,3.865104166666667
13648,1.0,,,,,,,,,643.0,,,,8,pitchwheel,,,,,7429,3.869270833333333
13649,9.0,,,,,,,42.0,,,,,,5,note_on,,0.0,42.0,0.0,184574,96.13229166666666
13650,9.0,,,,,,,70.0,,,,,,0,note_on,,0.0,70.0,0.0,184574,96.13229166666666
13651,1.0,,,,,,,,,1545.0,,,,3,pitchwheel,,,,,7432,3.870833333333333
13652,1.0,,,,,,,,,721.0,,,,9,pitchwheel,,,,,7441,3.8755208333333333
13653,9.0,,,,,,,42.0,,,,,,4,note_on,,0.0,42.0,0.0,184578,96.134375
13654,9.0,,,,,,,44.0,,,,,,0,note_on,,75.0,44.0,75.0,184578,96.134375
13655,1.0,,,,,,,,,0.0,,,,4,pitchwheel,,,,,7445,3.8776041666666665
13656,12.0,,,,,,,63.0,,,,,,236,note_on,,0.0,63.0,0.0,32826,17.096875
13657,9.0,,,,,,,44.0,,,,,,0,note_on,,0.0,44.0,0.0,184578,96.134375
13658,7.0,,,,,,,82.0,,,,,,0,note_on,,127.0,82.0,127.0,5959,3.103645833333333
13659,8.0,,,,,,,70.0,,,,,,0,note_on,,127.0,70.0,127.0,31766,16.544791666666665
13660,9.0,,,,,,,42.0,,,,,,0,note_on,,85.0,42.0,85.0,184578,96.134375
13661,9.0,,,,,,,61.0,,,,,,0,note_on,,100.0,61.0,100.0,184578,96.134375
13662,9.0,,,,,,,70.0,,,,,,0,note_on,,40.0,70.0,40.0,184578,96.134375
13663,12.0,,,,,,,63.0,,,,,,0,note_on,,127.0,63.0,127.0,32826,17.096875
13664,9.0,,,,,,,61.0,,,,,,114,note_on,,0.0,61.0,0.0,184692,96.19375
13665,9.0,,,,,,,61.0,,,,,,6,note_on,,100.0,61.0,100.0,184698,96.196875
13666,3.0,,,,,,,75.0,,,,,,43,note_on,,0.0,75.0,0.0,59862,31.178124999999998
13667,8.0,,,,,,,46.0,,,,,,6,note_on,,0.0,46.0,0.0,31772,16.547916666666666
13668,9.0,,,,,,,70.0,,,,,,55,note_on,,0.0,70.0,0.0,184753,96.22552083333333
13669,11.0,,,,,,,56.0,,,,,,9,note_on,,0.0,56.0,0.0,36829,19.18177083333333
13670,9.0,,,,,,,61.0,,,,,,1,note_on,,0.0,61.0,0.0,184754,96.22604166666666
13671,11.0,,,,,,,62.0,,,,,,3,note_on,,0.0,62.0,0.0,36832,19.183333333333334
13672,9.0,,,,,,,42.0,,,,,,3,note_on,,0.0,42.0,0.0,184757,96.22760416666667
13673,9.0,,,,,,,44.0,,,,,,0,note_on,,75.0,44.0,75.0,184757,96.22760416666667
13674,9.0,,,,,,,61.0,,,,,,0,note_on,,100.0,61.0,100.0,184757,96.22760416666667
13675,5.0,,,,,,,53.0,,,,,,78,note_on,,0.0,53.0,0.0,3179,1.6557291666666667
13676,5.0,,,,,,,62.0,,,,,,0,note_on,,0.0,62.0,0.0,3179,1.6557291666666667
13677,8.0,,,,,,,70.0,,,,,,34,note_on,,0.0,70.0,0.0,31806,16.565625
13678,7.0,,,,,,,82.0,,,,,,0,note_on,,0.0,82.0,0.0,5959,3.103645833333333
13679,9.0,,,,,,,61.0,,,,,,2,note_on,,0.0,61.0,0.0,184759,96.22864583333333
13680,9.0,,,,,,,61.0,,,,,,6,note_on,,100.0,61.0,100.0,184765,96.23177083333333
13681,7.0,,,,,,,70.0,,,,,,32,note_on,,127.0,70.0,127.0,5991,3.1203125
13682,5.0,,,,,,,58.0,,,,,,12,note_on,,0.0,58.0,0.0,3191,1.6619791666666666
13683,11.0,,,,,,,53.0,,,,,,34,note_on,,0.0,53.0,0.0,36866,19.201041666666665
13684,11.0,,,,,,,58.0,,,,,,31,note_on,,0.0,58.0,0.0,36897,19.2171875
13685,1.0,,,,,,,22.0,,,,,,4,note_on,,0.0,22.0,0.0,7449,3.8796874999999997
13686,9.0,,,,,,,61.0,,,,,,1,note_on,,0.0,61.0,0.0,184766,96.23229166666667
13687,11.0,,0.0,,,,,,,,,,,4,control_change,121.0,,,,36901,19.219270833333333
13688,11.0,,0.0,,,,,,,,,,,0,control_change,121.0,,,,36901,19.219270833333333
13689,11.0,,32.0,,,,,,,,,,,1,control_change,0.0,,,,36902,19.219791666666666
13690,11.0,,32.0,,,,,,,,,,,0,control_change,0.0,,,,36902,19.219791666666666
13691,9.0,,,,,,,44.0,,,,,,1,note_on,,0.0,44.0,0.0,184767,96.2328125
13692,1.0,,,,,,,27.0,,,,,,0,note_on,,127.0,27.0,127.0,7449,3.8796874999999997
13693,9.0,,,,,,,57.0,,,,,,0,note_on,,100.0,57.0,100.0,184767,96.2328125
13694,3.0,,,,,,,75.0,,,,,,0,note_on,,127.0,75.0,127.0,59862,31.178124999999998
13695,8.0,,,,,,,82.0,,,,,,0,note_on,,127.0,82.0,127.0,31806,16.565625
13696,9.0,,,,,,,70.0,,,,,,0,note_on,,40.0,70.0,40.0,184767,96.2328125
13697,9.0,,,,,,,35.0,,,,,,0,note_on,,60.0,35.0,60.0,184767,96.2328125
13698,11.0,,,,,,,67.0,,,,,,0,note_on,,127.0,67.0,127.0,36902,19.219791666666666
13699,11.0,,,,,,,63.0,,,,,,0,note_on,,127.0,63.0,127.0,36902,19.219791666666666
13700,11.0,,,,,,,70.0,,,,,,0,note_on,,126.0,70.0,126.0,36902,19.219791666666666
13701,9.0,,,,,,,36.0,,,,,,0,note_on,,126.0,36.0,126.0,184767,96.2328125
13702,9.0,,,,,,,42.0,,,,,,0,note_on,,85.0,42.0,85.0,184767,96.2328125
13703,11.0,,,,,,,,,,24.0,,,0,program_change,,,,,36902,19.219791666666666
13704,,,,,,,,,,,,,"gone, ",0,lyrics,,,,,4,0.0020833333333333333
13705,11.0,,,,,,,63.0,,,,,,15,note_on,,0.0,63.0,0.0,36917,19.227604166666666
13706,5.0,,,,,,,58.0,,,,,,56,note_on,,81.0,58.0,81.0,3247,1.6911458333333333
13707,5.0,,,,,,,55.0,,,,,,32,note_on,,68.0,55.0,68.0,3279,1.7078125
13708,5.0,,,,,,,63.0,,,,,,4,note_on,,114.0,63.0,114.0,3283,1.7098958333333334
13709,9.0,,,,,,,57.0,,,,,,7,note_on,,0.0,57.0,0.0,184774,96.23645833333333
13710,9.0,,,,,,,35.0,,,,,,58,note_on,,0.0,35.0,0.0,184832,96.26666666666667
13711,9.0,,,,,,,36.0,,,,,,0,note_on,,0.0,36.0,0.0,184832,96.26666666666667
13712,9.0,,,,,,,70.0,,,,,,52,note_on,,0.0,70.0,0.0,184884,96.29375
13713,9.0,,,,,,,42.0,,,,,,0,note_on,,0.0,42.0,0.0,184884,96.29375
13714,10.0,,,,,,,56.0,,,,,,9,note_on,,0.0,56.0,0.0,22616,11.779166666666667
13715,10.0,,,,,,,62.0,,,,,,4,note_on,,0.0,62.0,0.0,22620,11.78125
13716,11.0,,,,,,,63.0,,,,,,160,note_on,,0.0,63.0,0.0,37077,19.3109375
13717,11.0,,,,,,,67.0,,,,,,10,note_on,,0.0,67.0,0.0,37087,19.316145833333334
13718,10.0,,,,,,,53.0,,,,,,31,note_on,,0.0,53.0,0.0,22651,11.797395833333333
13719,11.0,,,,,,,70.0,,,,,,21,note_on,,0.0,70.0,0.0,37108,19.327083333333334
13720,10.0,,,,,,,58.0,,,,,,10,note_on,,0.0,58.0,0.0,22661,11.802604166666667
13721,10.0,,0.0,,,,,,,,,,,9,control_change,121.0,,,,22670,11.807291666666666
13722,10.0,,0.0,,,,,,,,,,,0,control_change,121.0,,,,22670,11.807291666666666
13723,10.0,,32.0,,,,,,,,,,,1,control_change,0.0,,,,22671,11.8078125
13724,10.0,,32.0,,,,,,,,,,,0,control_change,0.0,,,,22671,11.8078125
13725,9.0,,,,,,,44.0,,,,,,1,note_on,,0.0,44.0,0.0,184885,96.29427083333333
13726,10.0,,,,,,,63.0,,,,,,0,note_on,,127.0,63.0,127.0,22671,11.8078125
13727,9.0,,,,,,,70.0,,,,,,0,note_on,,40.0,70.0,40.0,184885,96.29427083333333
13728,10.0,,,,,,,70.0,,,,,,0,note_on,,126.0,70.0,126.0,22671,11.8078125
13729,10.0,,,,,,,,,,24.0,,,0,program_change,,,,,22671,11.8078125
13730,10.0,,,,,,,67.0,,,,,,0,note_on,,127.0,67.0,127.0,22671,11.8078125
13731,8.0,,,,,,,82.0,,,,,,1,note_on,,0.0,82.0,0.0,31807,16.566145833333334
13732,7.0,,,,,,,70.0,,,,,,6,note_on,,0.0,70.0,0.0,5997,3.1234375
13733,10.0,,,,,,,63.0,,,,,,8,note_on,,0.0,63.0,0.0,22679,11.811979166666667
13734,9.0,,,,,,,70.0,,,,,,209,note_on,,0.0,70.0,0.0,185094,96.403125
13735,12.0,,,,,,,56.0,,,,,,9,note_on,,0.0,56.0,0.0,32835,17.1015625
13736,12.0,,,,,,,62.0,,,,,,4,note_on,,0.0,62.0,0.0,32839,17.10364583333333
13737,9.0,,,,,,,42.0,,,,,,3,note_on,,0.0,42.0,0.0,185097,96.4046875
13738,9.0,,,,,,,36.0,,,,,,0,note_on,,126.0,36.0,126.0,185097,96.4046875
13739,9.0,,,,,,,35.0,,,,,,0,note_on,,60.0,35.0,60.0,185097,96.4046875
13740,3.0,,,,,,,75.0,,,,,,42,note_on,,0.0,75.0,0.0,59904,31.2
13741,10.0,,,,,,,63.0,,,,,,115,note_on,,0.0,63.0,0.0,22794,11.871875
13742,10.0,,,,,,,67.0,,,,,,10,note_on,,0.0,67.0,0.0,22804,11.877083333333333
13743,12.0,,,,,,,53.0,,,,,,31,note_on,,0.0,53.0,0.0,32870,17.119791666666668
13744,10.0,,,,,,,70.0,,,,,,21,note_on,,0.0,70.0,0.0,22825,11.888020833333334
13745,7.0,,,,,,,63.0,,,,,,0,note_on,,127.0,63.0,127.0,5997,3.1234375
13746,9.0,,,,,,,36.0,,,,,,5,note_on,,0.0,36.0,0.0,185102,96.40729166666667
13747,9.0,,,,,,,35.0,,,,,,0,note_on,,0.0,35.0,0.0,185102,96.40729166666667
13748,12.0,,,,,,,58.0,,,,,,5,note_on,,0.0,58.0,0.0,32875,17.122395833333332
13749,12.0,,0.0,,,,,,,,,,,9,control_change,121.0,,,,32884,17.12708333333333
13750,12.0,,32.0,,,,,,,,,,,1,control_change,0.0,,,,32885,17.127604166666668
13751,9.0,,,,,,,44.0,,,,,,1,note_on,,0.0,44.0,0.0,185103,96.4078125
13752,8.0,,,,,,,75.0,,,,,,0,note_on,,127.0,75.0,127.0,31807,16.566145833333334
13753,9.0,,,,,,,70.0,,,,,,0,note_on,,40.0,70.0,40.0,185103,96.4078125
13754,9.0,,,,,,,39.0,,,,,,0,note_on,,125.0,39.0,125.0,185103,96.4078125
13755,9.0,,,,,,,28.0,,,,,,0,note_on,,127.0,28.0,127.0,185103,96.4078125
13756,9.0,,,,,,,42.0,,,,,,0,note_on,,85.0,42.0,85.0,185103,96.4078125
13757,12.0,,,,,,,63.0,,,,,,0,note_on,,127.0,63.0,127.0,32885,17.127604166666668
13758,12.0,,,,,,,70.0,,,,,,0,note_on,,126.0,70.0,126.0,32885,17.127604166666668
13759,12.0,,,,,,,67.0,,,,,,0,note_on,,127.0,67.0,127.0,32885,17.127604166666668
13760,12.0,,0.0,,,,,,,,,,,0,control_change,121.0,,,,32885,17.127604166666668
13761,12.0,,32.0,,,,,,,,,,,0,control_change,0.0,,,,32885,17.127604166666668
13762,12.0,,,,,,,,,,24.0,,,0,program_change,,,,,32885,17.127604166666668
13763,12.0,,,,,,,63.0,,,,,,15,note_on,,0.0,63.0,0.0,32900,17.135416666666668
13764,9.0,,,,,,,28.0,,,,,,102,note_on,,0.0,28.0,0.0,185205,96.4609375
13765,9.0,,,,,,,39.0,,,,,,34,note_on,,0.0,39.0,0.0,185239,96.47864583333333
13766,9.0,,,,,,,70.0,,,,,,73,note_on,,0.0,70.0,0.0,185312,96.51666666666667
13767,9.0,,,,,,,42.0,,,,,,0,note_on,,0.0,42.0,0.0,185312,96.51666666666667
13768,12.0,,,,,,,63.0,,,,,,173,note_on,,0.0,63.0,0.0,33073,17.225520833333334
13769,12.0,,,,,,,67.0,,,,,,10,note_on,,0.0,67.0,0.0,33083,17.230729166666666
13770,12.0,,,,,,,70.0,,,,,,52,note_on,,0.0,70.0,0.0,33135,17.2578125
13771,9.0,,,,,,,70.0,,,,,,21,note_on,,40.0,70.0,40.0,185333,96.52760416666666
13772,9.0,,,,,,,36.0,,,,,,0,note_on,,126.0,36.0,126.0,185333,96.52760416666666
13773,9.0,,,,,,,35.0,,,,,,0,note_on,,60.0,35.0,60.0,185333,96.52760416666666
13774,8.0,,,,,,,75.0,,,,,,43,note_on,,0.0,75.0,0.0,31850,16.588541666666668
13775,7.0,,,,,,,63.0,,,,,,16,note_on,,0.0,63.0,0.0,6013,3.1317708333333334
13776,9.0,,,,,,,36.0,,,,,,107,note_on,,0.0,36.0,0.0,185440,96.58333333333333
13777,9.0,,,,,,,35.0,,,,,,0,note_on,,0.0,35.0,0.0,185440,96.58333333333333
13778,9.0,,,,,,,70.0,,,,,,58,note_on,,0.0,70.0,0.0,185498,96.61354166666666
13779,7.0,,,,,,,65.0,,,,,,238,note_on,,127.0,65.0,127.0,6251,3.255729166666667
13780,8.0,,,,,,,77.0,,,,,,18,note_on,,127.0,77.0,127.0,31868,16.597916666666666
13781,9.0,,,,,,,42.0,,,,,,0,note_on,,85.0,42.0,85.0,185498,96.61354166666666
13782,9.0,,,,,,,70.0,,,,,,0,note_on,,40.0,70.0,40.0,185498,96.61354166666666
13783,9.0,,,,,,,70.0,,,,,,224,note_on,,0.0,70.0,0.0,185722,96.73020833333334
13784,9.0,,,,,,,42.0,,,,,,0,note_on,,0.0,42.0,0.0,185722,96.73020833333334
13785,9.0,,,,,,,70.0,,,,,,256,note_on,,40.0,70.0,40.0,185978,96.86354166666666
13786,9.0,,,,,,,36.0,,,,,,0,note_on,,126.0,36.0,126.0,185978,96.86354166666666
13787,9.0,,,,,,,35.0,,,,,,0,note_on,,60.0,35.0,60.0,185978,96.86354166666666
13788,8.0,,,,,,,77.0,,,,,,97,note_on,,0.0,77.0,0.0,31965,16.6484375
13789,7.0,,,,,,,65.0,,,,,,15,note_on,,0.0,65.0,0.0,6266,3.263541666666667
13790,9.0,,,,,,,35.0,,,,,,42,note_on,,0.0,35.0,0.0,186020,96.88541666666667
13791,9.0,,,,,,,36.0,,,,,,0,note_on,,0.0,36.0,0.0,186020,96.88541666666667
13792,9.0,,,,,,,70.0,,,,,,70,note_on,,0.0,70.0,0.0,186090,96.921875
13793,7.0,,,,,,,58.0,,,,,,234,note_on,,127.0,58.0,127.0,6500,3.3854166666666665
13794,8.0,,,,,,,70.0,,,,,,22,note_on,,127.0,70.0,127.0,31987,16.659895833333334
13795,9.0,,,,,,,42.0,,,,,,0,note_on,,85.0,42.0,85.0,186090,96.921875
13796,9.0,,,,,,,70.0,,,,,,0,note_on,,40.0,70.0,40.0,186090,96.921875
13797,9.0,,,,,,,39.0,,,,,,0,note_on,,127.0,39.0,127.0,186090,96.921875
13798,9.0,,,,,,,28.0,,,,,,0,note_on,,127.0,28.0,127.0,186090,96.921875
13799,11.0,,,,,,,67.0,,,,,,0,note_on,,127.0,67.0,127.0,37108,19.327083333333334
13800,11.0,,,,,,,72.0,,,,,,0,note_on,,127.0,72.0,127.0,37108,19.327083333333334
13801,11.0,,,,,,,63.0,,,,,,0,note_on,,127.0,63.0,127.0,37108,19.327083333333334
13802,9.0,,,,,,,39.0,,,,,,123,note_on,,0.0,39.0,0.0,186213,96.9859375
13803,9.0,,,,,,,28.0,,,,,,2,note_on,,0.0,28.0,0.0,186215,96.98697916666667
13804,9.0,,,,,,,42.0,,,,,,99,note_on,,0.0,42.0,0.0,186314,97.03854166666666
13805,9.0,,,,,,,70.0,,,,,,0,note_on,,0.0,70.0,0.0,186314,97.03854166666666
13806,11.0,,,,,,,63.0,,,,,,141,note_on,,0.0,63.0,0.0,37249,19.40052083333333
13807,11.0,,,,,,,72.0,,,,,,15,note_on,,0.0,72.0,0.0,37264,19.40833333333333
13808,11.0,,,,,,,67.0,,,,,,8,note_on,,0.0,67.0,0.0,37272,19.4125
13809,9.0,,,,,,,70.0,,,,,,92,note_on,,40.0,70.0,40.0,186406,97.08645833333333
13810,10.0,,,,,,,67.0,,,,,,0,note_on,,127.0,67.0,127.0,22825,11.888020833333334
13811,10.0,,,,,,,72.0,,,,,,0,note_on,,127.0,72.0,127.0,22825,11.888020833333334
13812,10.0,,,,,,,63.0,,,,,,0,note_on,,127.0,63.0,127.0,22825,11.888020833333334
13813,11.0,,,,,,,67.0,,,,,,0,note_on,,127.0,67.0,127.0,37272,19.4125
13814,11.0,,,,,,,70.0,,,,,,0,note_on,,118.0,70.0,118.0,37272,19.4125
13815,11.0,,,,,,,63.0,,,,,,0,note_on,,127.0,63.0,127.0,37272,19.4125
13816,9.0,,,,,,,70.0,,,,,,224,note_on,,0.0,70.0,0.0,186630,97.203125
13817,8.0,,,,,,,70.0,,,,,,44,note_on,,0.0,70.0,0.0,32031,16.6828125
13818,7.0,,,,,,,58.0,,,,,,61,note_on,,0.0,58.0,0.0,6561,3.4171875
13819,10.0,,,,,,,63.0,,,,,,36,note_on,,0.0,63.0,0.0,22861,11.906770833333333
13820,10.0,,,,,,,72.0,,,,,,15,note_on,,0.0,72.0,0.0,22876,11.914583333333333
13821,10.0,,,,,,,67.0,,,,,,8,note_on,,0.0,67.0,0.0,22884,11.91875
13822,11.0,,,,,,,63.0,,,,,,38,note_on,,0.0,63.0,0.0,37310,19.432291666666668
13823,11.0,,,,,,,70.0,,,,,,0,note_on,,0.0,70.0,0.0,37310,19.432291666666668
13824,11.0,,,,,,,67.0,,,,,,3,note_on,,0.0,67.0,0.0,37313,19.433854166666666
13825,9.0,,,,,,,42.0,,,,,,51,note_on,,85.0,42.0,85.0,186681,97.2296875
13826,9.0,,,,,,,70.0,,,,,,0,note_on,,40.0,70.0,40.0,186681,97.2296875
13827,9.0,,,,,,,36.0,,,,,,0,note_on,,126.0,36.0,126.0,186681,97.2296875
13828,9.0,,,,,,,35.0,,,,,,0,note_on,,60.0,35.0,60.0,186681,97.2296875
13829,10.0,,,,,,,67.0,,,,,,0,note_on,,127.0,67.0,127.0,22884,11.91875
13830,10.0,,,,,,,70.0,,,,,,0,note_on,,118.0,70.0,118.0,22884,11.91875
13831,10.0,,,,,,,63.0,,,,,,0,note_on,,127.0,63.0,127.0,22884,11.91875
13832,12.0,,,,,,,67.0,,,,,,0,note_on,,127.0,67.0,127.0,33135,17.2578125
13833,12.0,,,,,,,72.0,,,,,,0,note_on,,127.0,72.0,127.0,33135,17.2578125
13834,12.0,,,,,,,63.0,,,,,,0,note_on,,127.0,63.0,127.0,33135,17.2578125
13835,9.0,,,,,,,35.0,,,,,,172,note_on,,0.0,35.0,0.0,186853,97.31927083333333
13836,9.0,,,,,,,36.0,,,,,,0,note_on,,0.0,36.0,0.0,186853,97.31927083333333
13837,9.0,,,,,,,70.0,,,,,,52,note_on,,0.0,70.0,0.0,186905,97.34635416666667
13838,9.0,,,,,,,42.0,,,,,,0,note_on,,0.0,42.0,0.0,186905,97.34635416666667
13839,12.0,,,,,,,63.0,,,,,,141,note_on,,0.0,63.0,0.0,33276,17.33125
13840,12.0,,,,,,,72.0,,,,,,15,note_on,,0.0,72.0,0.0,33291,17.3390625
13841,12.0,,,,,,,67.0,,,,,,8,note_on,,0.0,67.0,0.0,33299,17.343229166666667
13842,10.0,,,,,,,70.0,,,,,,38,note_on,,0.0,70.0,0.0,22922,11.938541666666666
13843,10.0,,,,,,,63.0,,,,,,0,note_on,,0.0,63.0,0.0,22922,11.938541666666666
13844,10.0,,,,,,,67.0,,,,,,3,note_on,,0.0,67.0,0.0,22925,11.940104166666666
13845,9.0,,,,,,,70.0,,,,,,51,note_on,,40.0,70.0,40.0,186956,97.37291666666667
13846,12.0,,,,,,,67.0,,,,,,0,note_on,,127.0,67.0,127.0,33299,17.343229166666667
13847,12.0,,,,,,,70.0,,,,,,0,note_on,,118.0,70.0,118.0,33299,17.343229166666667
13848,12.0,,,,,,,63.0,,,,,,0,note_on,,127.0,63.0,127.0,33299,17.343229166666667
13849,9.0,,,,,,,70.0,,,,,,224,note_on,,0.0,70.0,0.0,187180,97.48958333333333
13850,9.0,,,,,,,36.0,,,,,,16,note_on,,126.0,36.0,126.0,187196,97.49791666666667
13851,9.0,,,,,,,35.0,,,,,,0,note_on,,60.0,35.0,60.0,187196,97.49791666666667
13852,12.0,,,,,,,63.0,,,,,,186,note_on,,0.0,63.0,0.0,33485,17.440104166666668
13853,12.0,,,,,,,70.0,,,,,,0,note_on,,0.0,70.0,0.0,33485,17.440104166666668
13854,12.0,,,,,,,67.0,,,,,,3,note_on,,0.0,67.0,0.0,33488,17.441666666666666
13855,9.0,,,,,,,35.0,,,,,,35,note_on,,0.0,35.0,0.0,187231,97.51614583333333
13856,9.0,,,,,,,36.0,,,,,,0,note_on,,0.0,36.0,0.0,187231,97.51614583333333
13857,9.0,,,,,,,42.0,,,,,,16,note_on,,85.0,42.0,85.0,187247,97.52447916666667
13858,9.0,,,,,,,70.0,,,,,,0,note_on,,40.0,70.0,40.0,187247,97.52447916666667
13859,9.0,,,,,,,39.0,,,,,,0,note_on,,125.0,39.0,125.0,187247,97.52447916666667
13860,9.0,,,,,,,28.0,,,,,,0,note_on,,127.0,28.0,127.0,187247,97.52447916666667
13861,9.0,,,,,,,28.0,,,,,,117,note_on,,0.0,28.0,0.0,187364,97.58541666666666
13862,9.0,,,,,,,39.0,,,,,,34,note_on,,0.0,39.0,0.0,187398,97.603125
13863,9.0,,,,,,,42.0,,,,,,73,note_on,,0.0,42.0,0.0,187471,97.64114583333333
13864,9.0,,,,,,,70.0,,,,,,0,note_on,,0.0,70.0,0.0,187471,97.64114583333333
13865,3.0,,,,,,,70.0,,,,,,256,note_on,,127.0,70.0,127.0,60160,31.333333333333332
13866,9.0,,,,,,,46.0,,,,,,0,note_on,,100.0,46.0,100.0,187471,97.64114583333333
13867,9.0,,,,,,,70.0,,,,,,0,note_on,,40.0,70.0,40.0,187471,97.64114583333333
13868,9.0,,,,,,,36.0,,,,,,0,note_on,,126.0,36.0,126.0,187471,97.64114583333333
13869,9.0,,,,,,,35.0,,,,,,0,note_on,,60.0,35.0,60.0,187471,97.64114583333333
13870,,,,,,,,,,,,,now ,0,lyrics,,,,,-1,-0.0005208333333333333
13871,9.0,,,,,,,35.0,,,,,,166,note_on,,0.0,35.0,0.0,187637,97.72760416666667
13872,9.0,,,,,,,36.0,,,,,,0,note_on,,0.0,36.0,0.0,187637,97.72760416666667
13873,9.0,,,,,,,70.0,,,,,,58,note_on,,0.0,70.0,0.0,187695,97.7578125
13874,9.0,,,,,,,46.0,,,,,,0,note_on,,0.0,46.0,0.0,187695,97.7578125
13875,3.0,,,,,,,74.0,,,,,,256,note_on,,127.0,74.0,127.0,60416,31.466666666666665
13876,9.0,,,,,,,46.0,,,,,,0,note_on,,100.0,46.0,100.0,187695,97.7578125
13877,9.0,,,,,,,70.0,,,,,,0,note_on,,40.0,70.0,40.0,187695,97.7578125
13878,,,,,,,,,,,,,im ,0,lyrics,,,,,10,0.005208333333333333
13879,3.0,,,,,,,70.0,,,,,,60,note_on,,0.0,70.0,0.0,60476,31.497916666666665
13880,9.0,,,,,,,70.0,,,,,,164,note_on,,0.0,70.0,0.0,187859,97.84322916666666
13881,9.0,,,,,,,46.0,,,,,,0,note_on,,0.0,46.0,0.0,187859,97.84322916666666
13882,9.0,,,,,,,70.0,,,,,,256,note_on,,40.0,70.0,40.0,188115,97.9765625
13883,9.0,,,,,,,36.0,,,,,,0,note_on,,126.0,36.0,126.0,188115,97.9765625
13884,9.0,,,,,,,35.0,,,,,,0,note_on,,60.0,35.0,60.0,188115,97.9765625
13885,9.0,,,,,,,35.0,,,,,,154,note_on,,0.0,35.0,0.0,188269,98.05677083333333
13886,9.0,,,,,,,36.0,,,,,,0,note_on,,0.0,36.0,0.0,188269,98.05677083333333
13887,9.0,,,,,,,70.0,,,,,,70,note_on,,0.0,70.0,0.0,188339,98.09322916666666
13888,3.0,,,,,,,74.0,,,,,,180,note_on,,0.0,74.0,0.0,60656,31.591666666666665
13889,3.0,,,,,,,75.0,,,,,,76,note_on,,127.0,75.0,127.0,60732,31.631249999999998
13890,9.0,,,,,,,42.0,,,,,,0,note_on,,85.0,42.0,85.0,188339,98.09322916666666
13891,9.0,,,,,,,70.0,,,,,,0,note_on,,40.0,70.0,40.0,188339,98.09322916666666
13892,9.0,,,,,,,39.0,,,,,,0,note_on,,127.0,39.0,127.0,188339,98.09322916666666
13893,9.0,,,,,,,28.0,,,,,,0,note_on,,127.0,28.0,127.0,188339,98.09322916666666
13894,,,,,,,,,,,,,all ,0,lyrics,,,,,2,0.0010416666666666667
13895,9.0,,,,,,,39.0,,,,,,123,note_on,,0.0,39.0,0.0,188462,98.15729166666667
13896,9.0,,,,,,,28.0,,,,,,2,note_on,,0.0,28.0,0.0,188464,98.15833333333333
13897,9.0,,,,,,,70.0,,,,,,99,note_on,,0.0,70.0,0.0,188563,98.20989583333333
13898,9.0,,,,,,,42.0,,,,,,0,note_on,,0.0,42.0,0.0,188563,98.20989583333333
13899,9.0,,,,,,,61.0,,,,,,256,note_on,,100.0,61.0,100.0,188819,98.34322916666666
13900,9.0,,,,,,,70.0,,,,,,0,note_on,,40.0,70.0,40.0,188819,98.34322916666666
13901,9.0,,,,,,,61.0,,,,,,114,note_on,,0.0,61.0,0.0,188933,98.40260416666666
13902,9.0,,,,,,,61.0,,,,,,6,note_on,,100.0,61.0,100.0,188939,98.40572916666666
13903,3.0,,,,,,,75.0,,,,,,2,note_on,,0.0,75.0,0.0,60734,31.632291666666667
13904,5.0,,,,,,,55.0,,,,,,35,note_on,,0.0,55.0,0.0,3318,1.728125
13905,5.0,,,,,,,63.0,,,,,,4,note_on,,0.0,63.0,0.0,3322,1.7302083333333333
13906,5.0,,,,,,,58.0,,,,,,21,note_on,,0.0,58.0,0.0,3343,1.7411458333333334
13907,9.0,,,,,,,70.0,,,,,,42,note_on,,0.0,70.0,0.0,188981,98.42760416666667
13908,9.0,,,,,,,61.0,,,,,,10,note_on,,0.0,61.0,0.0,188991,98.4328125
13909,9.0,,,,,,,61.0,,,,,,6,note_on,,100.0,61.0,100.0,188997,98.4359375
13910,9.0,,,,,,,61.0,,,,,,114,note_on,,0.0,61.0,0.0,189111,98.4953125
13911,9.0,,,,,,,61.0,,,,,,6,note_on,,100.0,61.0,100.0,189117,98.4984375
13912,5.0,,,,,,,63.0,,,,,,14,note_on,,93.0,63.0,93.0,3357,1.7484374999999999
13913,7.0,,,,,,,70.0,,,,,,18,note_on,,127.0,70.0,127.0,6579,3.4265624999999997
13914,5.0,,,,,,,55.0,,,,,,2,note_on,,77.0,55.0,77.0,3359,1.7494791666666667
13915,5.0,,,,,,,60.0,,,,,,11,note_on,,107.0,60.0,107.0,3370,1.7552083333333333
13916,9.0,,,,,,,61.0,,,,,,69,note_on,,0.0,61.0,0.0,189186,98.534375
13917,1.0,,,,,,,36.0,,,,,,6,note_on,,127.0,36.0,127.0,7455,3.8828125
13918,3.0,,,,,,,75.0,,,,,,0,note_on,,127.0,75.0,127.0,60734,31.632291666666667
13919,8.0,,,,,,,82.0,,,,,,0,note_on,,127.0,82.0,127.0,32031,16.6828125
13920,9.0,,,,,,,61.0,,,,,,0,note_on,,100.0,61.0,100.0,189186,98.534375
13921,9.0,,,,,,,42.0,,,,,,0,note_on,,85.0,42.0,85.0,189186,98.534375
13922,9.0,,,,,,,70.0,,,,,,0,note_on,,40.0,70.0,40.0,189186,98.534375
13923,9.0,,,,,,,36.0,,,,,,0,note_on,,126.0,36.0,126.0,189186,98.534375
13924,9.0,,,,,,,35.0,,,,,,0,note_on,,60.0,35.0,60.0,189186,98.534375
13925,11.0,,,,,,,63.0,,,,,,0,note_on,,127.0,63.0,127.0,37313,19.433854166666666
13926,11.0,,,,,,,60.0,,,,,,0,note_on,,127.0,60.0,127.0,37313,19.433854166666666
13927,11.0,,,,,,,67.0,,,,,,0,note_on,,127.0,67.0,127.0,37313,19.433854166666666
13928,,,,,,,,,,,,,"gone, ",0,lyrics,,,,,4,0.0020833333333333333
13929,1.0,,,,,,,27.0,,,,,,2,note_on,,0.0,27.0,0.0,7457,3.8838541666666666
13930,9.0,,,,,,,61.0,,,,,,112,note_on,,0.0,61.0,0.0,189298,98.59270833333333
13931,9.0,,,,,,,35.0,,,,,,58,note_on,,0.0,35.0,0.0,189356,98.62291666666667
13932,9.0,,,,,,,36.0,,,,,,0,note_on,,0.0,36.0,0.0,189356,98.62291666666667
13933,9.0,,,,,,,70.0,,,,,,52,note_on,,0.0,70.0,0.0,189408,98.65
13934,9.0,,,,,,,42.0,,,,,,0,note_on,,0.0,42.0,0.0,189408,98.65
13935,11.0,,,,,,,60.0,,,,,,180,note_on,,0.0,60.0,0.0,37493,19.527604166666666
13936,11.0,,,,,,,63.0,,,,,,32,note_on,,0.0,63.0,0.0,37525,19.544270833333332
13937,11.0,,,,,,,67.0,,,,,,6,note_on,,0.0,67.0,0.0,37531,19.547395833333333
13938,7.0,,,,,,,70.0,,,,,,1,note_on,,0.0,70.0,0.0,6580,3.4270833333333335
13939,9.0,,,,,,,70.0,,,,,,37,note_on,,40.0,70.0,40.0,189445,98.66927083333333
13940,10.0,,,,,,,63.0,,,,,,0,note_on,,127.0,63.0,127.0,22925,11.940104166666666
13941,10.0,,,,,,,60.0,,,,,,0,note_on,,127.0,60.0,127.0,22925,11.940104166666666
13942,10.0,,,,,,,67.0,,,,,,0,note_on,,127.0,67.0,127.0,22925,11.940104166666666
13943,8.0,,,,,,,82.0,,,,,,63,note_on,,0.0,82.0,0.0,32094,16.715625
13944,3.0,,,,,,,75.0,,,,,,155,note_on,,0.0,75.0,0.0,60889,31.71302083333333
13945,9.0,,,,,,,70.0,,,,,,6,note_on,,0.0,70.0,0.0,189451,98.67239583333333
13946,9.0,,,,,,,36.0,,,,,,16,note_on,,126.0,36.0,126.0,189467,98.68072916666667
13947,9.0,,,,,,,35.0,,,,,,0,note_on,,60.0,35.0,60.0,189467,98.68072916666667
13948,10.0,,,,,,,60.0,,,,,,164,note_on,,0.0,60.0,0.0,23089,12.025520833333333
13949,10.0,,,,,,,63.0,,,,,,32,note_on,,0.0,63.0,0.0,23121,12.0421875
13950,7.0,,,,,,,63.0,,,,,,1,note_on,,127.0,63.0,127.0,6581,3.427604166666667
13951,10.0,,,,,,,67.0,,,,,,5,note_on,,0.0,67.0,0.0,23126,12.044791666666667
13952,9.0,,,,,,,35.0,,,,,,22,note_on,,0.0,35.0,0.0,189489,98.6921875
13953,9.0,,,,,,,36.0,,,,,,0,note_on,,0.0,36.0,0.0,189489,98.6921875
13954,8.0,,,,,,,75.0,,,,,,16,note_on,,127.0,75.0,127.0,32110,16.723958333333332
13955,9.0,,,,,,,42.0,,,,,,0,note_on,,85.0,42.0,85.0,189489,98.6921875
13956,9.0,,,,,,,70.0,,,,,,0,note_on,,40.0,70.0,40.0,189489,98.6921875
13957,9.0,,,,,,,39.0,,,,,,0,note_on,,125.0,39.0,125.0,189489,98.6921875
13958,9.0,,,,,,,28.0,,,,,,0,note_on,,127.0,28.0,127.0,189489,98.6921875
13959,12.0,,,,,,,63.0,,,,,,0,note_on,,127.0,63.0,127.0,33488,17.441666666666666
13960,12.0,,,,,,,60.0,,,,,,0,note_on,,127.0,60.0,127.0,33488,17.441666666666666
13961,12.0,,,,,,,67.0,,,,,,0,note_on,,127.0,67.0,127.0,33488,17.441666666666666
13962,9.0,,,,,,,28.0,,,,,,117,note_on,,0.0,28.0,0.0,189606,98.753125
13963,9.0,,,,,,,39.0,,,,,,34,note_on,,0.0,39.0,0.0,189640,98.77083333333333
13964,9.0,,,,,,,42.0,,,,,,73,note_on,,0.0,42.0,0.0,189713,98.80885416666666
13965,9.0,,,,,,,70.0,,,,,,0,note_on,,0.0,70.0,0.0,189713,98.80885416666666
13966,12.0,,,,,,,60.0,,,,,,180,note_on,,0.0,60.0,0.0,33668,17.535416666666666
13967,12.0,,,,,,,63.0,,,,,,32,note_on,,0.0,63.0,0.0,33700,17.552083333333332
13968,12.0,,,,,,,67.0,,,,,,6,note_on,,0.0,67.0,0.0,33706,17.555208333333333
13969,7.0,,,,,,,63.0,,,,,,38,note_on,,0.0,63.0,0.0,6619,3.447395833333333
13970,9.0,,,,,,,70.0,,,,,,0,note_on,,40.0,70.0,40.0,189713,98.80885416666666
13971,9.0,,,,,,,36.0,,,,,,0,note_on,,126.0,36.0,126.0,189713,98.80885416666666
13972,9.0,,,,,,,35.0,,,,,,0,note_on,,60.0,35.0,60.0,189713,98.80885416666666
13973,8.0,,,,,,,75.0,,,,,,20,note_on,,0.0,75.0,0.0,32130,16.734375
13974,9.0,,,,,,,35.0,,,,,,146,note_on,,0.0,35.0,0.0,189859,98.88489583333333
13975,9.0,,,,,,,36.0,,,,,,0,note_on,,0.0,36.0,0.0,189859,98.88489583333333
13976,9.0,,,,,,,70.0,,,,,,58,note_on,,0.0,70.0,0.0,189917,98.91510416666667
13977,7.0,,,,,,,65.0,,,,,,195,note_on,,127.0,65.0,127.0,6814,3.548958333333333
13978,8.0,,,,,,,77.0,,,,,,61,note_on,,127.0,77.0,127.0,32191,16.766145833333333
13979,9.0,,,,,,,42.0,,,,,,0,note_on,,85.0,42.0,85.0,189917,98.91510416666667
13980,9.0,,,,,,,70.0,,,,,,0,note_on,,40.0,70.0,40.0,189917,98.91510416666667
13981,9.0,,,,,,,70.0,,,,,,224,note_on,,0.0,70.0,0.0,190141,99.03177083333333
13982,9.0,,,,,,,42.0,,,,,,0,note_on,,0.0,42.0,0.0,190141,99.03177083333333
13983,9.0,,,,,,,70.0,,,,,,256,note_on,,40.0,70.0,40.0,190397,99.16510416666667
13984,9.0,,,,,,,36.0,,,,,,0,note_on,,126.0,36.0,126.0,190397,99.16510416666667
13985,9.0,,,,,,,35.0,,,,,,0,note_on,,60.0,35.0,60.0,190397,99.16510416666667
13986,7.0,,,,,,,65.0,,,,,,86,note_on,,0.0,65.0,0.0,6900,3.59375
13987,8.0,,,,,,,77.0,,,,,,49,note_on,,0.0,77.0,0.0,32240,16.791666666666668
13988,9.0,,,,,,,35.0,,,,,,19,note_on,,0.0,35.0,0.0,190416,99.175
13989,9.0,,,,,,,36.0,,,,,,0,note_on,,0.0,36.0,0.0,190416,99.175
13990,9.0,,,,,,,70.0,,,,,,70,note_on,,0.0,70.0,0.0,190486,99.21145833333333
13991,7.0,,,,,,,58.0,,,,,,241,note_on,,127.0,58.0,127.0,7141,3.7192708333333333
13992,8.0,,,,,,,70.0,,,,,,15,note_on,,127.0,70.0,127.0,32255,16.799479166666668
13993,9.0,,,,,,,42.0,,,,,,0,note_on,,85.0,42.0,85.0,190486,99.21145833333333
13994,9.0,,,,,,,70.0,,,,,,0,note_on,,40.0,70.0,40.0,190486,99.21145833333333
13995,9.0,,,,,,,39.0,,,,,,0,note_on,,127.0,39.0,127.0,190486,99.21145833333333
13996,9.0,,,,,,,28.0,,,,,,0,note_on,,127.0,28.0,127.0,190486,99.21145833333333
13997,11.0,,,,,,,68.0,,,,,,0,note_on,,127.0,68.0,127.0,37531,19.547395833333333
13998,11.0,,,,,,,60.0,,,,,,0,note_on,,127.0,60.0,127.0,37531,19.547395833333333
13999,11.0,,,,,,,63.0,,,,,,0,note_on,,127.0,63.0,127.0,37531,19.547395833333333
14000,9.0,,,,,,,39.0,,,,,,123,note_on,,0.0,39.0,0.0,190609,99.27552083333333
14001,9.0,,,,,,,28.0,,,,,,2,note_on,,0.0,28.0,0.0,190611,99.2765625
14002,9.0,,,,,,,42.0,,,,,,99,note_on,,0.0,42.0,0.0,190710,99.328125
14003,9.0,,,,,,,70.0,,,,,,0,note_on,,0.0,70.0,0.0,190710,99.328125
14004,11.0,,,,,,,68.0,,,,,,161,note_on,,0.0,68.0,0.0,37692,19.63125
14005,11.0,,,,,,,60.0,,,,,,4,note_on,,0.0,60.0,0.0,37696,19.633333333333333
14006,11.0,,,,,,,63.0,,,,,,19,note_on,,0.0,63.0,0.0,37715,19.643229166666668
14007,9.0,,,,,,,70.0,,,,,,72,note_on,,40.0,70.0,40.0,190782,99.365625
14008,10.0,,,,,,,68.0,,,,,,0,note_on,,127.0,68.0,127.0,23126,12.044791666666667
14009,10.0,,,,,,,60.0,,,,,,0,note_on,,127.0,60.0,127.0,23126,12.044791666666667
14010,10.0,,,,,,,63.0,,,,,,0,note_on,,127.0,63.0,127.0,23126,12.044791666666667
14011,11.0,,,,,,,63.0,,,,,,0,note_on,,127.0,63.0,127.0,37715,19.643229166666668
14012,11.0,,,,,,,60.0,,,,,,0,note_on,,127.0,60.0,127.0,37715,19.643229166666668
14013,11.0,,,,,,,67.0,,,,,,0,note_on,,127.0,67.0,127.0,37715,19.643229166666668
14014,9.0,,,,,,,70.0,,,,,,224,note_on,,0.0,70.0,0.0,191006,99.48229166666667
14015,11.0,,,,,,,60.0,,,,,,147,note_on,,0.0,60.0,0.0,37862,19.719791666666666
14016,8.0,,,,,,,70.0,,,,,,3,note_on,,0.0,70.0,0.0,32258,16.801041666666666
14017,7.0,,,,,,,58.0,,,,,,5,note_on,,0.0,58.0,0.0,7146,3.721875
14018,11.0,,,,,,,67.0,,,,,,3,note_on,,0.0,67.0,0.0,37865,19.721354166666668
14019,10.0,,,,,,,68.0,,,,,,3,note_on,,0.0,68.0,0.0,23129,12.046354166666667
14020,10.0,,,,,,,60.0,,,,,,4,note_on,,0.0,60.0,0.0,23133,12.0484375
14021,10.0,,,,,,,63.0,,,,,,19,note_on,,0.0,63.0,0.0,23152,12.058333333333334
14022,11.0,,,,,,,63.0,,,,,,18,note_on,,0.0,63.0,0.0,37883,19.730729166666666
14023,9.0,,,,,,,42.0,,,,,,54,note_on,,85.0,42.0,85.0,191060,99.51041666666667
14024,9.0,,,,,,,70.0,,,,,,0,note_on,,40.0,70.0,40.0,191060,99.51041666666667
14025,9.0,,,,,,,36.0,,,,,,0,note_on,,126.0,36.0,126.0,191060,99.51041666666667
14026,9.0,,,,,,,35.0,,,,,,0,note_on,,60.0,35.0,60.0,191060,99.51041666666667
14027,10.0,,,,,,,63.0,,,,,,0,note_on,,127.0,63.0,127.0,23152,12.058333333333334
14028,10.0,,,,,,,60.0,,,,,,0,note_on,,127.0,60.0,127.0,23152,12.058333333333334
14029,10.0,,,,,,,67.0,,,,,,0,note_on,,127.0,67.0,127.0,23152,12.058333333333334
14030,12.0,,,,,,,68.0,,,,,,0,note_on,,127.0,68.0,127.0,33706,17.555208333333333
14031,12.0,,,,,,,60.0,,,,,,0,note_on,,127.0,60.0,127.0,33706,17.555208333333333
14032,12.0,,,,,,,63.0,,,,,,0,note_on,,127.0,63.0,127.0,33706,17.555208333333333
14033,9.0,,,,,,,35.0,,,,,,172,note_on,,0.0,35.0,0.0,191232,99.6
14034,9.0,,,,,,,36.0,,,,,,0,note_on,,0.0,36.0,0.0,191232,99.6
14035,9.0,,,,,,,70.0,,,,,,52,note_on,,0.0,70.0,0.0,191284,99.62708333333333
14036,9.0,,,,,,,42.0,,,,,,0,note_on,,0.0,42.0,0.0,191284,99.62708333333333
14037,10.0,,,,,,,60.0,,,,,,147,note_on,,0.0,60.0,0.0,23299,12.134895833333333
14038,10.0,,,,,,,67.0,,,,,,11,note_on,,0.0,67.0,0.0,23310,12.140625
14039,12.0,,,,,,,68.0,,,,,,3,note_on,,0.0,68.0,0.0,33709,17.55677083333333
14040,12.0,,,,,,,60.0,,,,,,4,note_on,,0.0,60.0,0.0,33713,17.558854166666666
14041,12.0,,,,,,,63.0,,,,,,19,note_on,,0.0,63.0,0.0,33732,17.56875
14042,10.0,,,,,,,63.0,,,,,,18,note_on,,0.0,63.0,0.0,23328,12.15
14043,9.0,,,,,,,70.0,,,,,,54,note_on,,40.0,70.0,40.0,191338,99.65520833333333
14044,12.0,,,,,,,63.0,,,,,,0,note_on,,127.0,63.0,127.0,33732,17.56875
14045,12.0,,,,,,,60.0,,,,,,0,note_on,,127.0,60.0,127.0,33732,17.56875
14046,12.0,,,,,,,67.0,,,,,,0,note_on,,127.0,67.0,127.0,33732,17.56875
14047,9.0,,,,,,,70.0,,,,,,224,note_on,,0.0,70.0,0.0,191562,99.771875
14048,9.0,,,,,,,36.0,,,,,,16,note_on,,126.0,36.0,126.0,191578,99.78020833333333
14049,9.0,,,,,,,35.0,,,,,,0,note_on,,60.0,35.0,60.0,191578,99.78020833333333
14050,12.0,,,,,,,60.0,,,,,,131,note_on,,0.0,60.0,0.0,33863,17.636979166666666
14051,12.0,,,,,,,67.0,,,,,,11,note_on,,0.0,67.0,0.0,33874,17.64270833333333
14052,12.0,,,,,,,63.0,,,,,,44,note_on,,0.0,63.0,0.0,33918,17.665625
14053,9.0,,,,,,,36.0,,,,,,38,note_on,,0.0,36.0,0.0,191616,99.8
14054,9.0,,,,,,,35.0,,,,,,0,note_on,,0.0,35.0,0.0,191616,99.8
14055,9.0,,,,,,,42.0,,,,,,16,note_on,,85.0,42.0,85.0,191632,99.80833333333334
14056,9.0,,,,,,,70.0,,,,,,0,note_on,,40.0,70.0,40.0,191632,99.80833333333334
14057,9.0,,,,,,,39.0,,,,,,0,note_on,,125.0,39.0,125.0,191632,99.80833333333334
14058,9.0,,,,,,,28.0,,,,,,0,note_on,,127.0,28.0,127.0,191632,99.80833333333334
14059,9.0,,,,,,,28.0,,,,,,117,note_on,,0.0,28.0,0.0,191749,99.86927083333333
14060,9.0,,,,,,,39.0,,,,,,34,note_on,,0.0,39.0,0.0,191783,99.88697916666666
14061,9.0,,,,,,,42.0,,,,,,73,note_on,,0.0,42.0,0.0,191856,99.925
14062,9.0,,,,,,,70.0,,,,,,0,note_on,,0.0,70.0,0.0,191856,99.925
14063,3.0,,,,,,,70.0,,,,,,256,note_on,,127.0,70.0,127.0,61145,31.846354166666668
14064,9.0,,,,,,,46.0,,,,,,0,note_on,,100.0,46.0,100.0,191856,99.925
14065,9.0,,,,,,,70.0,,,,,,0,note_on,,40.0,70.0,40.0,191856,99.925
14066,9.0,,,,,,,36.0,,,,,,0,note_on,,126.0,36.0,126.0,191856,99.925
14067,9.0,,,,,,,35.0,,,,,,0,note_on,,60.0,35.0,60.0,191856,99.925
14068,,,,,,,,,,,,,now ,0,lyrics,,,,,7,0.0036458333333333334
14069,9.0,,,,,,,35.0,,,,,,166,note_on,,0.0,35.0,0.0,192022,100.01145833333334
14070,9.0,,,,,,,36.0,,,,,,0,note_on,,0.0,36.0,0.0,192022,100.01145833333334
14071,9.0,,,,,,,70.0,,,,,,58,note_on,,0.0,70.0,0.0,192080,100.04166666666667
14072,9.0,,,,,,,46.0,,,,,,0,note_on,,0.0,46.0,0.0,192080,100.04166666666667
14073,3.0,,,,,,,74.0,,,,,,256,note_on,,127.0,74.0,127.0,61401,31.9796875
14074,9.0,,,,,,,46.0,,,,,,0,note_on,,100.0,46.0,100.0,192080,100.04166666666667
14075,9.0,,,,,,,70.0,,,,,,0,note_on,,40.0,70.0,40.0,192080,100.04166666666667
14076,,,,,,,,,,,,,im ,0,lyrics,,,,,2,0.0010416666666666667
14077,3.0,,,,,,,70.0,,,,,,27,note_on,,0.0,70.0,0.0,61428,31.99375
14078,9.0,,,,,,,70.0,,,,,,197,note_on,,0.0,70.0,0.0,192277,100.14427083333334
14079,9.0,,,,,,,46.0,,,,,,0,note_on,,0.0,46.0,0.0,192277,100.14427083333334
14080,9.0,,,,,,,70.0,,,,,,256,note_on,,40.0,70.0,40.0,192533,100.27760416666666
14081,9.0,,,,,,,36.0,,,,,,0,note_on,,126.0,36.0,126.0,192533,100.27760416666666
14082,9.0,,,,,,,35.0,,,,,,0,note_on,,60.0,35.0,60.0,192533,100.27760416666666
14083,9.0,,,,,,,35.0,,,,,,154,note_on,,0.0,35.0,0.0,192687,100.3578125
14084,9.0,,,,,,,36.0,,,,,,0,note_on,,0.0,36.0,0.0,192687,100.3578125
14085,9.0,,,,,,,70.0,,,,,,70,note_on,,0.0,70.0,0.0,192757,100.39427083333334
14086,3.0,,,,,,,74.0,,,,,,198,note_on,,0.0,74.0,0.0,61626,32.096875
14087,3.0,,,,,,,75.0,,,,,,58,note_on,,127.0,75.0,127.0,61684,32.12708333333333
14088,9.0,,,,,,,42.0,,,,,,0,note_on,,85.0,42.0,85.0,192757,100.39427083333334
14089,9.0,,,,,,,70.0,,,,,,0,note_on,,40.0,70.0,40.0,192757,100.39427083333334
14090,9.0,,,,,,,39.0,,,,,,0,note_on,,127.0,39.0,127.0,192757,100.39427083333334
14091,9.0,,,,,,,28.0,,,,,,0,note_on,,127.0,28.0,127.0,192757,100.39427083333334
14092,,,,,,,,,,,,,all ,0,lyrics,,,,,7,0.0036458333333333334
14093,9.0,,,,,,,39.0,,,,,,123,note_on,,0.0,39.0,0.0,192880,100.45833333333333
14094,9.0,,,,,,,28.0,,,,,,2,note_on,,0.0,28.0,0.0,192882,100.459375
14095,9.0,,,,,,,70.0,,,,,,99,note_on,,0.0,70.0,0.0,192981,100.5109375
14096,9.0,,,,,,,42.0,,,,,,0,note_on,,0.0,42.0,0.0,192981,100.5109375
14097,9.0,,,,,,,61.0,,,,,,256,note_on,,100.0,61.0,100.0,193237,100.64427083333334
14098,9.0,,,,,,,70.0,,,,,,0,note_on,,40.0,70.0,40.0,193237,100.64427083333334
14099,5.0,,,,,,,55.0,,,,,,92,note_on,,0.0,55.0,0.0,3462,1.8031249999999999
14100,9.0,,,,,,,61.0,,,,,,22,note_on,,0.0,61.0,0.0,193259,100.65572916666666
14101,9.0,,,,,,,61.0,,,,,,6,note_on,,100.0,61.0,100.0,193265,100.65885416666667
14102,5.0,,,,,,,63.0,,,,,,1,note_on,,0.0,63.0,0.0,3463,1.8036458333333334
14103,5.0,,,,,,,60.0,,,,,,23,note_on,,0.0,60.0,0.0,3486,1.815625
14104,3.0,,,,,,,75.0,,,,,,76,note_on,,0.0,75.0,0.0,61760,32.166666666666664
14105,9.0,,,,,,,70.0,,,,,,4,note_on,,0.0,70.0,0.0,193269,100.6609375
14106,9.0,,,,,,,61.0,,,,,,10,note_on,,0.0,61.0,0.0,193279,100.66614583333333
14107,9.0,,,,,,,61.0,,,,,,6,note_on,,100.0,61.0,100.0,193285,100.66927083333333
14108,5.0,,,,,,,60.0,,,,,,99,note_on,,98.0,60.0,98.0,3585,1.8671875
14109,5.0,,,,,,,56.0,,,,,,9,note_on,,78.0,56.0,78.0,3594,1.871875
14110,5.0,,,,,,,63.0,,,,,,0,note_on,,103.0,63.0,103.0,3594,1.871875
14111,9.0,,,,,,,61.0,,,,,,6,note_on,,0.0,61.0,0.0,193291,100.67239583333333
14112,9.0,,,,,,,61.0,,,,,,6,note_on,,100.0,61.0,100.0,193297,100.67552083333334
14113,1.0,,,,,,,36.0,,,,,,1,note_on,,0.0,36.0,0.0,7458,3.884375
14114,7.0,,,,,,,70.0,,,,,,105,note_on,,127.0,70.0,127.0,7251,3.7765625
14115,9.0,,,,,,,61.0,,,,,,8,note_on,,0.0,61.0,0.0,193305,100.6796875
14116,1.0,,,,,,,32.0,,,,,,6,note_on,,127.0,32.0,127.0,7464,3.8874999999999997
14117,3.0,,,,,,,75.0,,,,,,0,note_on,,127.0,75.0,127.0,61760,32.166666666666664
14118,8.0,,,,,,,82.0,,,,,,0,note_on,,127.0,82.0,127.0,32258,16.801041666666666
14119,9.0,,,,,,,61.0,,,,,,0,note_on,,100.0,61.0,100.0,193305,100.6796875
14120,9.0,,,,,,,42.0,,,,,,0,note_on,,85.0,42.0,85.0,193305,100.6796875
14121,9.0,,,,,,,70.0,,,,,,0,note_on,,40.0,70.0,40.0,193305,100.6796875
14122,9.0,,,,,,,36.0,,,,,,0,note_on,,126.0,36.0,126.0,193305,100.6796875
14123,9.0,,,,,,,35.0,,,,,,0,note_on,,60.0,35.0,60.0,193305,100.6796875
14124,11.0,,,,,,,60.0,,,,,,0,note_on,,127.0,60.0,127.0,37883,19.730729166666666
14125,11.0,,,,,,,56.0,,,,,,0,note_on,,127.0,56.0,127.0,37883,19.730729166666666
14126,11.0,,,,,,,63.0,,,,,,0,note_on,,127.0,63.0,127.0,37883,19.730729166666666
14127,,,,,,,,,,,,,gone ,0,lyrics,,,,,7,0.0036458333333333334
14128,9.0,,,,,,,61.0,,,,,,114,note_on,,0.0,61.0,0.0,193419,100.7390625
14129,9.0,,,,,,,36.0,,,,,,58,note_on,,0.0,36.0,0.0,193477,100.76927083333334
14130,9.0,,,,,,,35.0,,,,,,0,note_on,,0.0,35.0,0.0,193477,100.76927083333334
14131,9.0,,,,,,,70.0,,,,,,52,note_on,,0.0,70.0,0.0,193529,100.79635416666666
14132,9.0,,,,,,,42.0,,,,,,0,note_on,,0.0,42.0,0.0,193529,100.79635416666666
14133,11.0,,,,,,,56.0,,,,,,207,note_on,,0.0,56.0,0.0,38090,19.838541666666668
14134,11.0,,,,,,,60.0,,,,,,25,note_on,,0.0,60.0,0.0,38115,19.8515625
14135,9.0,,,,,,,70.0,,,,,,24,note_on,,40.0,70.0,40.0,193553,100.80885416666666
14136,10.0,,,,,,,60.0,,,,,,0,note_on,,127.0,60.0,127.0,23328,12.15
14137,10.0,,,,,,,56.0,,,,,,0,note_on,,127.0,56.0,127.0,23328,12.15
14138,10.0,,,,,,,63.0,,,,,,0,note_on,,127.0,63.0,127.0,23328,12.15
14139,11.0,,,,,,,63.0,,,,,,9,note_on,,0.0,63.0,0.0,38124,19.85625
14140,8.0,,,,,,,82.0,,,,,,42,note_on,,0.0,82.0,0.0,32300,16.822916666666668
14141,7.0,,,,,,,70.0,,,,,,46,note_on,,0.0,70.0,0.0,7297,3.800520833333333
14142,9.0,,,,,,,70.0,,,,,,127,note_on,,0.0,70.0,0.0,193680,100.875
14143,9.0,,,,,,,36.0,,,,,,16,note_on,,126.0,36.0,126.0,193696,100.88333333333333
14144,9.0,,,,,,,35.0,,,,,,0,note_on,,60.0,35.0,60.0,193696,100.88333333333333
14145,3.0,,,,,,,75.0,,,,,,17,note_on,,0.0,75.0,0.0,61777,32.17552083333333
14146,10.0,,,,,,,56.0,,,,,,174,note_on,,0.0,56.0,0.0,23502,12.240625
14147,10.0,,,,,,,60.0,,,,,,25,note_on,,0.0,60.0,0.0,23527,12.253645833333334
14148,9.0,,,,,,,36.0,,,,,,8,note_on,,0.0,36.0,0.0,193704,100.8875
14149,9.0,,,,,,,35.0,,,,,,0,note_on,,0.0,35.0,0.0,193704,100.8875
14150,8.0,,,,,,,75.0,,,,,,16,note_on,,127.0,75.0,127.0,32316,16.83125
14151,9.0,,,,,,,42.0,,,,,,0,note_on,,85.0,42.0,85.0,193704,100.8875
14152,9.0,,,,,,,70.0,,,,,,0,note_on,,40.0,70.0,40.0,193704,100.8875
14153,9.0,,,,,,,39.0,,,,,,0,note_on,,125.0,39.0,125.0,193704,100.8875
14154,9.0,,,,,,,28.0,,,,,,0,note_on,,127.0,28.0,127.0,193704,100.8875
14155,12.0,,,,,,,60.0,,,,,,0,note_on,,127.0,60.0,127.0,33918,17.665625
14156,12.0,,,,,,,56.0,,,,,,0,note_on,,127.0,56.0,127.0,33918,17.665625
14157,12.0,,,,,,,63.0,,,,,,0,note_on,,127.0,63.0,127.0,33918,17.665625
14158,10.0,,,,,,,63.0,,,,,,9,note_on,,0.0,63.0,0.0,23536,12.258333333333333
14159,7.0,,,,,,,63.0,,,,,,42,note_on,,127.0,63.0,127.0,7339,3.822395833333333
14160,9.0,,,,,,,28.0,,,,,,66,note_on,,0.0,28.0,0.0,193770,100.921875
14161,9.0,,,,,,,39.0,,,,,,34,note_on,,0.0,39.0,0.0,193804,100.93958333333333
14162,9.0,,,,,,,70.0,,,,,,73,note_on,,0.0,70.0,0.0,193877,100.97760416666667
14163,9.0,,,,,,,42.0,,,,,,0,note_on,,0.0,42.0,0.0,193877,100.97760416666667
14164,12.0,,,,,,,56.0,,,,,,207,note_on,,0.0,56.0,0.0,34125,17.7734375
14165,12.0,,,,,,,60.0,,,,,,25,note_on,,0.0,60.0,0.0,34150,17.786458333333332
14166,9.0,,,,,,,70.0,,,,,,24,note_on,,40.0,70.0,40.0,193901,100.99010416666667
14167,9.0,,,,,,,36.0,,,,,,0,note_on,,126.0,36.0,126.0,193901,100.99010416666667
14168,9.0,,,,,,,35.0,,,,,,0,note_on,,60.0,35.0,60.0,193901,100.99010416666667
14169,12.0,,,,,,,63.0,,,,,,9,note_on,,0.0,63.0,0.0,34159,17.79114583333333
14170,8.0,,,,,,,75.0,,,,,,0,note_on,,0.0,75.0,0.0,32316,16.83125
14171,7.0,,,,,,,63.0,,,,,,124,note_on,,0.0,63.0,0.0,7463,3.8869791666666664
14172,9.0,,,,,,,36.0,,,,,,33,note_on,,0.0,36.0,0.0,193934,101.00729166666666
14173,9.0,,,,,,,35.0,,,,,,0,note_on,,0.0,35.0,0.0,193934,101.00729166666666
14174,9.0,,,,,,,70.0,,,,,,58,note_on,,0.0,70.0,0.0,193992,101.0375
14175,8.0,,,,,,,77.0,,,,,,256,note_on,,127.0,77.0,127.0,32572,16.964583333333334
14176,9.0,,,,,,,42.0,,,,,,0,note_on,,85.0,42.0,85.0,193992,101.0375
14177,9.0,,,,,,,70.0,,,,,,0,note_on,,40.0,70.0,40.0,193992,101.0375
14178,7.0,,,,,,,65.0,,,,,,8,note_on,,127.0,65.0,127.0,7471,3.8911458333333333
14179,9.0,,,,,,,70.0,,,,,,216,note_on,,0.0,70.0,0.0,194208,101.15
14180,9.0,,,,,,,42.0,,,,,,0,note_on,,0.0,42.0,0.0,194208,101.15
14181,9.0,,,,,,,70.0,,,,,,256,note_on,,40.0,70.0,40.0,194464,101.28333333333333
14182,9.0,,,,,,,36.0,,,,,,0,note_on,,126.0,36.0,126.0,194464,101.28333333333333
14183,9.0,,,,,,,35.0,,,,,,0,note_on,,60.0,35.0,60.0,194464,101.28333333333333
14184,8.0,,,,,,,77.0,,,,,,74,note_on,,0.0,77.0,0.0,32646,17.003125
14185,9.0,,,,,,,35.0,,,,,,80,note_on,,0.0,35.0,0.0,194544,101.325
14186,9.0,,,,,,,36.0,,,,,,0,note_on,,0.0,36.0,0.0,194544,101.325
14187,7.0,,,,,,,65.0,,,,,,30,note_on,,0.0,65.0,0.0,7501,3.9067708333333333
14188,9.0,,,,,,,70.0,,,,,,40,note_on,,0.0,70.0,0.0,194584,101.34583333333333
14189,8.0,,,,,,,70.0,,,,,,256,note_on,,127.0,70.0,127.0,32902,17.136458333333334
14190,9.0,,,,,,,42.0,,,,,,0,note_on,,85.0,42.0,85.0,194584,101.34583333333333
14191,9.0,,,,,,,70.0,,,,,,0,note_on,,40.0,70.0,40.0,194584,101.34583333333333
14192,9.0,,,,,,,39.0,,,,,,0,note_on,,127.0,39.0,127.0,194584,101.34583333333333
14193,9.0,,,,,,,28.0,,,,,,0,note_on,,127.0,28.0,127.0,194584,101.34583333333333
14194,11.0,,,,,,,60.0,,,,,,0,note_on,,127.0,60.0,127.0,38124,19.85625
14195,11.0,,,,,,,65.0,,,,,,0,note_on,,127.0,65.0,127.0,38124,19.85625
14196,11.0,,,,,,,56.0,,,,,,0,note_on,,127.0,56.0,127.0,38124,19.85625
14197,7.0,,,,,,,58.0,,,,,,13,note_on,,127.0,58.0,127.0,7514,3.9135416666666667
14198,9.0,,,,,,,39.0,,,,,,110,note_on,,0.0,39.0,0.0,194694,101.403125
14199,9.0,,,,,,,28.0,,,,,,2,note_on,,0.0,28.0,0.0,194696,101.40416666666667
14200,9.0,,,,,,,70.0,,,,,,99,note_on,,0.0,70.0,0.0,194795,101.45572916666667
14201,9.0,,,,,,,42.0,,,,,,0,note_on,,0.0,42.0,0.0,194795,101.45572916666667
14202,11.0,,,,,,,65.0,,,,,,160,note_on,,0.0,65.0,0.0,38284,19.93958333333333
14203,11.0,,,,,,,56.0,,,,,,10,note_on,,0.0,56.0,0.0,38294,19.944791666666667
14204,11.0,,,,,,,60.0,,,,,,21,note_on,,0.0,60.0,0.0,38315,19.955729166666668
14205,9.0,,,,,,,70.0,,,,,,65,note_on,,40.0,70.0,40.0,194860,101.48958333333333
14206,10.0,,,,,,,60.0,,,,,,0,note_on,,127.0,60.0,127.0,23536,12.258333333333333
14207,10.0,,,,,,,65.0,,,,,,0,note_on,,127.0,65.0,127.0,23536,12.258333333333333
14208,10.0,,,,,,,56.0,,,,,,0,note_on,,127.0,56.0,127.0,23536,12.258333333333333
14209,11.0,,,,,,,60.0,,,,,,0,note_on,,127.0,60.0,127.0,38315,19.955729166666668
14210,11.0,,,,,,,56.0,,,,,,0,note_on,,124.0,56.0,124.0,38315,19.955729166666668
14211,11.0,,,,,,,63.0,,,,,,0,note_on,,127.0,63.0,127.0,38315,19.955729166666668
14212,9.0,,,,,,,70.0,,,,,,224,note_on,,0.0,70.0,0.0,195084,101.60625
14213,8.0,,,,,,,70.0,,,,,,132,note_on,,0.0,70.0,0.0,33034,17.20520833333333
14214,10.0,,,,,,,65.0,,,,,,28,note_on,,0.0,65.0,0.0,23564,12.272916666666667
14215,10.0,,,,,,,56.0,,,,,,10,note_on,,0.0,56.0,0.0,23574,12.278125
14216,7.0,,,,,,,58.0,,,,,,9,note_on,,0.0,58.0,0.0,7523,3.9182291666666664
14217,10.0,,,,,,,60.0,,,,,,12,note_on,,0.0,60.0,0.0,23586,12.284375
14218,11.0,,,,,,,56.0,,,,,,46,note_on,,0.0,56.0,0.0,38361,19.9796875
14219,9.0,,,,,,,42.0,,,,,,19,note_on,,85.0,42.0,85.0,195103,101.61614583333333
14220,9.0,,,,,,,70.0,,,,,,0,note_on,,40.0,70.0,40.0,195103,101.61614583333333
14221,9.0,,,,,,,36.0,,,,,,0,note_on,,126.0,36.0,126.0,195103,101.61614583333333
14222,9.0,,,,,,,35.0,,,,,,0,note_on,,60.0,35.0,60.0,195103,101.61614583333333
14223,10.0,,,,,,,60.0,,,,,,0,note_on,,127.0,60.0,127.0,23586,12.284375
14224,10.0,,,,,,,56.0,,,,,,0,note_on,,124.0,56.0,124.0,23586,12.284375
14225,10.0,,,,,,,63.0,,,,,,0,note_on,,127.0,63.0,127.0,23586,12.284375
14226,12.0,,,,,,,60.0,,,,,,0,note_on,,127.0,60.0,127.0,34159,17.79114583333333
14227,12.0,,,,,,,65.0,,,,,,0,note_on,,127.0,65.0,127.0,34159,17.79114583333333
14228,12.0,,,,,,,56.0,,,,,,0,note_on,,127.0,56.0,127.0,34159,17.79114583333333
14229,11.0,,,,,,,63.0,,,,,,14,note_on,,0.0,63.0,0.0,38375,19.986979166666668
14230,11.0,,,,,,,60.0,,,,,,6,note_on,,0.0,60.0,0.0,38381,19.990104166666665
14231,9.0,,,,,,,36.0,,,,,,152,note_on,,0.0,36.0,0.0,195255,101.6953125
14232,9.0,,,,,,,35.0,,,,,,0,note_on,,0.0,35.0,0.0,195255,101.6953125
14233,9.0,,,,,,,70.0,,,,,,52,note_on,,0.0,70.0,0.0,195307,101.72239583333334
14234,9.0,,,,,,,42.0,,,,,,0,note_on,,0.0,42.0,0.0,195307,101.72239583333334
14235,12.0,,,,,,,65.0,,,,,,160,note_on,,0.0,65.0,0.0,34319,17.874479166666667
14236,12.0,,,,,,,56.0,,,,,,10,note_on,,0.0,56.0,0.0,34329,17.8796875
14237,12.0,,,,,,,60.0,,,,,,21,note_on,,0.0,60.0,0.0,34350,17.890625
14238,10.0,,,,,,,56.0,,,,,,46,note_on,,0.0,56.0,0.0,23632,12.308333333333334
14239,9.0,,,,,,,70.0,,,,,,19,note_on,,40.0,70.0,40.0,195326,101.73229166666667
14240,12.0,,,,,,,60.0,,,,,,0,note_on,,127.0,60.0,127.0,34350,17.890625
14241,12.0,,,,,,,56.0,,,,,,0,note_on,,124.0,56.0,124.0,34350,17.890625
14242,12.0,,,,,,,63.0,,,,,,0,note_on,,127.0,63.0,127.0,34350,17.890625
14243,10.0,,,,,,,63.0,,,,,,14,note_on,,0.0,63.0,0.0,23646,12.315625
14244,10.0,,,,,,,60.0,,,,,,6,note_on,,0.0,60.0,0.0,23652,12.31875
14245,9.0,,,,,,,70.0,,,,,,204,note_on,,0.0,70.0,0.0,195530,101.83854166666667
14246,9.0,,,,,,,36.0,,,,,,16,note_on,,126.0,36.0,126.0,195546,101.846875
14247,9.0,,,,,,,35.0,,,,,,0,note_on,,60.0,35.0,60.0,195546,101.846875
14248,12.0,,,,,,,56.0,,,,,,221,note_on,,0.0,56.0,0.0,34571,18.005729166666665
14249,9.0,,,,,,,35.0,,,,,,3,note_on,,0.0,35.0,0.0,195549,101.8484375
14250,9.0,,,,,,,36.0,,,,,,0,note_on,,0.0,36.0,0.0,195549,101.8484375
14251,9.0,,,,,,,42.0,,,,,,16,note_on,,85.0,42.0,85.0,195565,101.85677083333333
14252,9.0,,,,,,,70.0,,,,,,0,note_on,,40.0,70.0,40.0,195565,101.85677083333333
14253,9.0,,,,,,,39.0,,,,,,0,note_on,,125.0,39.0,125.0,195565,101.85677083333333
14254,9.0,,,,,,,28.0,,,,,,0,note_on,,127.0,28.0,127.0,195565,101.85677083333333
14255,12.0,,,,,,,63.0,,,,,,14,note_on,,0.0,63.0,0.0,34585,18.013020833333332
14256,12.0,,,,,,,60.0,,,,,,6,note_on,,0.0,60.0,0.0,34591,18.016145833333333
14257,9.0,,,,,,,28.0,,,,,,97,note_on,,0.0,28.0,0.0,195662,101.90729166666667
14258,9.0,,,,,,,39.0,,,,,,34,note_on,,0.0,39.0,0.0,195696,101.925
14259,9.0,,,,,,,70.0,,,,,,73,note_on,,0.0,70.0,0.0,195769,101.96302083333333
14260,9.0,,,,,,,42.0,,,,,,0,note_on,,0.0,42.0,0.0,195769,101.96302083333333
14261,3.0,,,,,,,70.0,,,,,,256,note_on,,127.0,70.0,127.0,62033,32.30885416666666
14262,9.0,,,,,,,46.0,,,,,,0,note_on,,100.0,46.0,100.0,195769,101.96302083333333
14263,9.0,,,,,,,70.0,,,,,,0,note_on,,40.0,70.0,40.0,195769,101.96302083333333
14264,9.0,,,,,,,36.0,,,,,,0,note_on,,126.0,36.0,126.0,195769,101.96302083333333
14265,9.0,,,,,,,35.0,,,,,,0,note_on,,60.0,35.0,60.0,195769,101.96302083333333
14266,,,,,,,,,,,,,now ,0,lyrics,,,,,7,0.0036458333333333334
14267,9.0,,,,,,,35.0,,,,,,166,note_on,,0.0,35.0,0.0,195935,102.04947916666667
14268,9.0,,,,,,,36.0,,,,,,0,note_on,,0.0,36.0,0.0,195935,102.04947916666667
14269,9.0,,,,,,,70.0,,,,,,58,note_on,,0.0,70.0,0.0,195993,102.0796875
14270,9.0,,,,,,,46.0,,,,,,0,note_on,,0.0,46.0,0.0,195993,102.0796875
14271,3.0,,,,,,,74.0,,,,,,256,note_on,,127.0,74.0,127.0,62289,32.4421875
14272,9.0,,,,,,,46.0,,,,,,0,note_on,,100.0,46.0,100.0,195993,102.0796875
14273,9.0,,,,,,,70.0,,,,,,0,note_on,,40.0,70.0,40.0,195993,102.0796875
14274,,,,,,,,,,,,,im ,0,lyrics,,,,,7,0.0036458333333333334
14275,3.0,,,,,,,70.0,,,,,,62,note_on,,0.0,70.0,0.0,62351,32.47447916666667
14276,9.0,,,,,,,70.0,,,,,,162,note_on,,0.0,70.0,0.0,196155,102.1640625
14277,9.0,,,,,,,46.0,,,,,,0,note_on,,0.0,46.0,0.0,196155,102.1640625
14278,9.0,,,,,,,70.0,,,,,,256,note_on,,40.0,70.0,40.0,196411,102.29739583333333
14279,9.0,,,,,,,36.0,,,,,,0,note_on,,126.0,36.0,126.0,196411,102.29739583333333
14280,9.0,,,,,,,35.0,,,,,,0,note_on,,60.0,35.0,60.0,196411,102.29739583333333
14281,9.0,,,,,,,35.0,,,,,,154,note_on,,0.0,35.0,0.0,196565,102.37760416666667
14282,9.0,,,,,,,36.0,,,,,,0,note_on,,0.0,36.0,0.0,196565,102.37760416666667
14283,9.0,,,,,,,70.0,,,,,,70,note_on,,0.0,70.0,0.0,196635,102.4140625
14284,3.0,,,,,,,75.0,,,,,,256,note_on,,127.0,75.0,127.0,62607,32.6078125
14285,9.0,,,,,,,42.0,,,,,,0,note_on,,85.0,42.0,85.0,196635,102.4140625
14286,9.0,,,,,,,70.0,,,,,,0,note_on,,40.0,70.0,40.0,196635,102.4140625
14287,9.0,,,,,,,39.0,,,,,,0,note_on,,127.0,39.0,127.0,196635,102.4140625
14288,9.0,,,,,,,28.0,,,,,,0,note_on,,127.0,28.0,127.0,196635,102.4140625
14289,,,,,,,,,,,,,all ,0,lyrics,,,,,2,0.0010416666666666667
14290,3.0,,,,,,,74.0,,,,,,23,note_on,,0.0,74.0,0.0,62630,32.619791666666664
14291,9.0,,,,,,,39.0,,,,,,100,note_on,,0.0,39.0,0.0,196735,102.46614583333333
14292,9.0,,,,,,,28.0,,,,,,2,note_on,,0.0,28.0,0.0,196737,102.4671875
14293,9.0,,,,,,,70.0,,,,,,99,note_on,,0.0,70.0,0.0,196836,102.51875
14294,9.0,,,,,,,42.0,,,,,,0,note_on,,0.0,42.0,0.0,196836,102.51875
14295,9.0,,,,,,,61.0,,,,,,256,note_on,,100.0,61.0,100.0,197092,102.65208333333334
14296,9.0,,,,,,,70.0,,,,,,0,note_on,,40.0,70.0,40.0,197092,102.65208333333334
14297,9.0,,,,,,,61.0,,,,,,114,note_on,,0.0,61.0,0.0,197206,102.71145833333333
14298,9.0,,,,,,,61.0,,,,,,6,note_on,,100.0,61.0,100.0,197212,102.71458333333334
14299,9.0,,,,,,,70.0,,,,,,104,note_on,,0.0,70.0,0.0,197316,102.76875
14300,9.0,,,,,,,61.0,,,,,,10,note_on,,0.0,61.0,0.0,197326,102.77395833333333
14301,9.0,,,,,,,61.0,,,,,,6,note_on,,100.0,61.0,100.0,197332,102.77708333333334
14302,3.0,,,,,,,75.0,,,,,,3,note_on,,0.0,75.0,0.0,62633,32.62135416666666
14303,5.0,,,,,,,63.0,,,,,,22,note_on,,0.0,63.0,0.0,3616,1.8833333333333333
14304,5.0,,,,,,,60.0,,,,,,0,note_on,,0.0,60.0,0.0,3616,1.8833333333333333
14305,5.0,,,,,,,56.0,,,,,,12,note_on,,0.0,56.0,0.0,3628,1.8895833333333334
14306,9.0,,,,,,,61.0,,,,,,77,note_on,,0.0,61.0,0.0,197409,102.8171875
14307,9.0,,,,,,,61.0,,,,,,6,note_on,,100.0,61.0,100.0,197415,102.8203125
14308,5.0,,,,,,,62.0,,,,,,55,note_on,,93.0,62.0,93.0,3683,1.9182291666666667
14309,5.0,,,,,,,65.0,,,,,,6,note_on,,71.0,65.0,71.0,3689,1.9213541666666667
14310,5.0,,,,,,,58.0,,,,,,0,note_on,,71.0,58.0,71.0,3689,1.9213541666666667
14311,5.0,,,,,,,46.0,,,,,,27,note_on,,64.0,46.0,64.0,3716,1.9354166666666666
14312,9.0,,,,,,,61.0,,,,,,26,note_on,,0.0,61.0,0.0,197441,102.83385416666667
14313,1.0,,,,,,,34.0,,,,,,6,note_on,,127.0,34.0,127.0,7470,3.890625
14314,3.0,,,,,,,77.0,,,,,,0,note_on,,127.0,77.0,127.0,62633,32.62135416666666
14315,9.0,,,,,,,36.0,,,,,,0,note_on,,127.0,36.0,127.0,197441,102.83385416666667
14316,9.0,,,,,,,57.0,,,,,,0,note_on,,127.0,57.0,127.0,197441,102.83385416666667
14317,9.0,,,,,,,35.0,,,,,,0,note_on,,60.0,35.0,60.0,197441,102.83385416666667
14318,11.0,,,,,,,62.0,,,,,,0,note_on,,127.0,62.0,127.0,38381,19.990104166666665
14319,11.0,,,,,,,58.0,,,,,,0,note_on,,127.0,58.0,127.0,38381,19.990104166666665
14320,11.0,,,,,,,65.0,,,,,,0,note_on,,127.0,65.0,127.0,38381,19.990104166666665
14321,,,,,,,,,,,,,gone ,0,lyrics,,,,,2,0.0010416666666666667
14322,1.0,,,,,,,32.0,,,,,,112,note_on,,0.0,32.0,0.0,7582,3.948958333333333
14323,9.0,,,,,,,35.0,,,,,,21,note_on,,0.0,35.0,0.0,197462,102.84479166666667
14324,9.0,,,,,,,36.0,,,,,,0,note_on,,0.0,36.0,0.0,197462,102.84479166666667
14325,9.0,,,,,,,57.0,,,,,,0,note_on,,0.0,57.0,0.0,197462,102.84479166666667
14326,11.0,,,,,,,58.0,,,,,,341,note_on,,0.0,58.0,0.0,38722,20.167708333333334
14327,1.0,,,,,,,34.0,,,,,,6,note_on,,0.0,34.0,0.0,7588,3.9520833333333334
14328,10.0,,,,,,,62.0,,,,,,0,note_on,,127.0,62.0,127.0,23652,12.31875
14329,10.0,,,,,,,58.0,,,,,,0,note_on,,127.0,58.0,127.0,23652,12.31875
14330,10.0,,,,,,,65.0,,,,,,0,note_on,,127.0,65.0,127.0,23652,12.31875
14331,11.0,,,,,,,65.0,,,,,,47,note_on,,0.0,65.0,0.0,38769,20.1921875
14332,11.0,,,,,,,62.0,,,,,,2,note_on,,0.0,62.0,0.0,38771,20.193229166666665
14333,3.0,,,,,,,77.0,,,,,,205,note_on,,0.0,77.0,0.0,62838,32.728125
14334,10.0,,,,,,,58.0,,,,,,220,note_on,,0.0,58.0,0.0,23872,12.433333333333334
14335,12.0,,,,,,,62.0,,,,,,6,note_on,,127.0,62.0,127.0,34597,18.019270833333334
14336,12.0,,,,,,,58.0,,,,,,0,note_on,,127.0,58.0,127.0,34597,18.019270833333334
14337,12.0,,,,,,,65.0,,,,,,0,note_on,,127.0,65.0,127.0,34597,18.019270833333334
14338,10.0,,,,,,,65.0,,,,,,47,note_on,,0.0,65.0,0.0,23919,12.4578125
14339,10.0,,,,,,,62.0,,,,,,2,note_on,,0.0,62.0,0.0,23921,12.458854166666667
14340,12.0,,,,,,,58.0,,,,,,425,note_on,,0.0,58.0,0.0,35022,18.240625
14341,3.0,,,,,,,79.0,,,,,,6,note_on,,127.0,79.0,127.0,62844,32.73125
14342,,,,,,,,,,,,,go ,0,lyrics,,,,,8,0.004166666666666667
14343,12.0,,,,,,,65.0,,,,,,47,note_on,,0.0,65.0,0.0,35069,18.265104166666667
14344,12.0,,,,,,,62.0,,,,,,2,note_on,,0.0,62.0,0.0,35071,18.266145833333333
14345,3.0,,,,,,,77.0,,,,,,431,note_on,,127.0,77.0,127.0,63275,32.955729166666664
14346,,,,,,,,,,,,,on ,0,lyrics,,,,,10,0.005208333333333333
14347,3.0,,,,,,,79.0,,,,,,138,note_on,,0.0,79.0,0.0,63413,33.02760416666666
14348,3.0,,,,,,,77.0,,,,,,450,note_on,,0.0,77.0,0.0,63863,33.26197916666666
14349,3.0,,,,,,,79.0,,,,,,852,note_on,,127.0,79.0,127.0,64715,33.705729166666664
14350,,,,,,,,,,,,,go ,0,lyrics,,,,,7,0.0036458333333333334
14351,3.0,,,,,,,77.0,,,,,,480,note_on,,127.0,77.0,127.0,65195,33.955729166666664
14352,,,,,,,,,,,,,on ,0,lyrics,,,,,10,0.005208333333333333
14353,3.0,,,,,,,79.0,,,,,,124,note_on,,0.0,79.0,0.0,65319,34.0203125
14354,3.0,,,,,,,77.0,,,,,,463,note_on,,0.0,77.0,0.0,65782,34.26145833333333
14355,3.0,,,,,,,74.0,,,,,,1333,note_on,,127.0,74.0,127.0,67115,34.955729166666664
14356,,,,,,,,,,,,,I ,0,lyrics,,,,,10,0.005208333333333333
14357,3.0,,,,,,,74.0,,,,,,948,note_on,,0.0,74.0,0.0,68063,35.44947916666666
14358,3.0,,,,,,,75.0,,,,,,12,note_on,,127.0,75.0,127.0,68075,35.455729166666664
14359,,,,,,,,,,,,,m ,0,lyrics,,,,,7,0.0036458333333333334
14360,5.0,,,,,,,62.0,,,,,,509,note_on,,0.0,62.0,0.0,4225,2.2005208333333335
14361,3.0,,,,,,,75.0,,,,,,201,note_on,,0.0,75.0,0.0,68276,35.56041666666667
14362,5.0,,,,,,,58.0,,,,,,20,note_on,,0.0,58.0,0.0,4245,2.2109375
14363,5.0,,,,,,,46.0,,,,,,97,note_on,,0.0,46.0,0.0,4342,2.261458333333333
14364,5.0,,,,,,,65.0,,,,,,0,note_on,,0.0,65.0,0.0,4342,2.261458333333333
14365,5.0,,,,,,,63.0,,,,,,96,note_on,,82.0,63.0,82.0,4438,2.3114583333333334
14366,5.0,,,,,,,39.0,,,,,,6,note_on,,58.0,39.0,58.0,4444,2.314583333333333
14367,5.0,,,,,,,58.0,,,,,,11,note_on,,74.0,58.0,74.0,4455,2.3203125
14368,5.0,,,,,,,67.0,,,,,,4,note_on,,74.0,67.0,74.0,4459,2.322395833333333
14369,3.0,,,,,,,75.0,,,,,,16,note_on,,127.0,75.0,127.0,68292,35.56875
14370,,,,,,,,,,,,,gone! ,0,lyrics,,,,,7,0.0036458333333333334
14371,3.0,,,,,,,75.0,,,,,,831,note_on,,0.0,75.0,0.0,69123,36.0015625
14372,5.0,,,,,,,58.0,,,,,,1801,note_on,,0.0,58.0,0.0,6260,3.2604166666666665
14373,5.0,,,,,,,56.0,,,,,,359,note_on,,94.0,56.0,94.0,6619,3.447395833333333
14374,5.0,,,,,,,56.0,,,,,,1593,note_on,,0.0,56.0,0.0,8212,4.277083333333334
14375,5.0,,,,,,,55.0,,,,,,309,note_on,,81.0,55.0,81.0,8521,4.438020833333333
14376,5.0,,,,,,,67.0,,,,,,6069,note_on,,0.0,67.0,0.0,14590,7.598958333333333
14377,5.0,,,,,,,63.0,,,,,,193,note_on,,0.0,63.0,0.0,14783,7.699479166666666
14378,5.0,,,,,,,55.0,,,,,,659,note_on,,0.0,55.0,0.0,15442,8.042708333333334
14379,5.0,,,,,,,39.0,,,,,,15,note_on,,0.0,39.0,0.0,15457,8.050520833333334
14380,5.0,,7.0,,,,,,,,,,,10148,control_change,118.0,,,,25605,13.3359375
14381,5.0,,7.0,,,,,,,,,,,29,control_change,115.0,,,,25634,13.351041666666667
14382,5.0,,7.0,,,,,,,,,,,31,control_change,112.0,,,,25665,13.3671875
14383,5.0,,7.0,,,,,,,,,,,30,control_change,107.0,,,,25695,13.3828125
14384,5.0,,7.0,,,,,,,,,,,31,control_change,101.0,,,,25726,13.398958333333333
14385,5.0,,7.0,,,,,,,,,,,31,control_change,93.0,,,,25757,13.415104166666666
14386,5.0,,7.0,,,,,,,,,,,31,control_change,84.0,,,,25788,13.43125
14387,5.0,,7.0,,,,,,,,,,,31,control_change,76.0,,,,25819,13.447395833333333
14388,5.0,,7.0,,,,,,,,,,,32,control_change,66.0,,,,25851,13.464062499999999
14389,5.0,,7.0,,,,,,,,,,,31,control_change,56.0,,,,25882,13.480208333333334
14390,5.0,,7.0,,,,,,,,,,,29,control_change,47.0,,,,25911,13.495312499999999
14391,5.0,,7.0,,,,,,,,,,,31,control_change,37.0,,,,25942,13.511458333333334
14392,5.0,,7.0,,,,,,,,,,,31,control_change,28.0,,,,25973,13.527604166666666
14393,5.0,,7.0,,,,,,,,,,,30,control_change,19.0,,,,26003,13.543229166666666
14394,5.0,,7.0,,,,,,,,,,,31,control_change,10.0,,,,26034,13.559375
14395,5.0,,7.0,,,,,,,,,,,30,control_change,1.0,,,,26064,13.575
14396,5.0,,7.0,,,,,,,,,,,31,control_change,0.0,,,,26095,13.591145833333334
14397,,,,,,,,,,,,,,0,end_of_track,,,,,8,0.004166666666666667
