,channel,clocks_per_click,control,denominator,key,name,notated_32nd_notes_per_beat,note,numerator,program,tempo,time,type,value,velocity,note_midi_value,note_velocity,note_time,note_seconds
0,,,,,,untitled,,,,,,0,track_name,,,,,0,0.0
1,,12.0,,8.0,,,8.0,,6.0,,,0,time_signature,,,,,0,0.0
2,,,,,C,,,,,,,0,key_signature,,,,,0,0.0
3,,,,,,,,,,,638298.0,0,set_tempo,,,,,0,0.0
4,,,,,,,,,,,638298.0,49680,set_tempo,,,,,49680,207.0
5,,,,,,,,,,,645161.0,6,set_tempo,,,,,49686,207.025
6,,,,,,,,,,,652174.0,7,set_tempo,,,,,49693,207.05416666666667
7,,,,,,,,,,,659341.0,6,set_tempo,,,,,49699,207.07916666666665
8,,,,,,,,,,,666667.0,7,set_tempo,,,,,49706,207.10833333333332
9,,,,,,,,,,,674157.0,7,set_tempo,,,,,49713,207.1375
10,,,,,,,,,,,681818.0,6,set_tempo,,,,,49719,207.1625
11,,,,,,,,,,,689655.0,7,set_tempo,,,,,49726,207.19166666666666
12,,,,,,,,,,,697674.0,7,set_tempo,,,,,49733,207.22083333333333
13,,,,,,,,,,,705882.0,6,set_tempo,,,,,49739,207.24583333333334
14,,,,,,,,,,,714286.0,7,set_tempo,,,,,49746,207.275
15,,,,,,,,,,,722892.0,7,set_tempo,,,,,49753,207.30416666666667
16,,,,,,,,,,,731707.0,6,set_tempo,,,,,49759,207.32916666666665
17,,,,,,,,,,,740741.0,7,set_tempo,,,,,49766,207.35833333333332
18,,,,,,,,,,,750000.0,7,set_tempo,,,,,49773,207.3875
19,,,,,,,,,,,759494.0,6,set_tempo,,,,,49779,207.4125
20,,,,,,,,,,,769231.0,7,set_tempo,,,,,49786,207.44166666666666
21,,,,,,,,,,,779221.0,7,set_tempo,,,,,49793,207.47083333333333
22,,,,,,,,,,,789474.0,6,set_tempo,,,,,49799,207.49583333333334
23,,,,,,,,,,,800000.0,7,set_tempo,,,,,49806,207.525
24,,,,,,,,,,,810811.0,6,set_tempo,,,,,49812,207.54999999999998
25,,,,,,,,,,,821918.0,7,set_tempo,,,,,49819,207.57916666666665
26,,,,,,,,,,,833333.0,7,set_tempo,,,,,49826,207.60833333333332
27,,,,,,,,,,,845070.0,6,set_tempo,,,,,49832,207.63333333333333
28,,,,,,,,,,,857143.0,7,set_tempo,,,,,49839,207.6625
29,,,,,,,,,,,869565.0,7,set_tempo,,,,,49846,207.69166666666666
30,,,,,,,,,,,882353.0,6,set_tempo,,,,,49852,207.71666666666667
31,,,,,,,,,,,895522.0,7,set_tempo,,,,,49859,207.74583333333334
32,,,,,,,,,,,909091.0,7,set_tempo,,,,,49866,207.775
33,,,,,,,,,,,923077.0,6,set_tempo,,,,,49872,207.79999999999998
34,,,,,,,,,,,937500.0,7,set_tempo,,,,,49879,207.82916666666665
35,,,,,,,,,,,952381.0,7,set_tempo,,,,,49886,207.85833333333332
36,,,,,,,,,,,967742.0,6,set_tempo,,,,,49892,207.88333333333333
37,,,,,,,,,,,983607.0,7,set_tempo,,,,,49899,207.9125
38,,,,,,,,,,,1000000.0,7,set_tempo,,,,,49906,207.94166666666666
39,,,,,,,,,,,1016949.0,6,set_tempo,,,,,49912,207.96666666666667
40,,,,,,,,,,,1034483.0,7,set_tempo,,,,,49919,207.99583333333334
41,,,,,,,,,,,1052632.0,6,set_tempo,,,,,49925,208.02083333333334
42,,,,,,,,,,,1071429.0,7,set_tempo,,,,,49932,208.04999999999998
43,,,,,,,,,,,1090909.0,7,set_tempo,,,,,49939,208.07916666666665
44,,,,,,,,,,,1111111.0,6,set_tempo,,,,,49945,208.10416666666666
45,,,,,,,,,,,1132075.0,7,set_tempo,,,,,49952,208.13333333333333
46,,,,,,,,,,,1153846.0,7,set_tempo,,,,,49959,208.1625
47,,,,,,,,,,,1176471.0,6,set_tempo,,,,,49965,208.1875
48,,,,,,,,,,,1200000.0,7,set_tempo,,,,,49972,208.21666666666667
49,,,,,,,,,,,1224490.0,7,set_tempo,,,,,49979,208.24583333333334
50,,,,,,,,,,,1250000.0,6,set_tempo,,,,,49985,208.27083333333334
51,,,,,,,,,,,1276596.0,7,set_tempo,,,,,49992,208.29999999999998
52,,,,,,,,,,,1304348.0,7,set_tempo,,,,,49999,208.32916666666665
53,,,,,,,,,,,1333333.0,6,set_tempo,,,,,50005,208.35416666666666
54,,,,,,,,,,,1363636.0,7,set_tempo,,,,,50012,208.38333333333333
55,,,,,,,,,,,1395349.0,7,set_tempo,,,,,50019,208.4125
56,,,,,,,,,,,1428571.0,6,set_tempo,,,,,50025,208.4375
57,,,,,,,,,,,1463415.0,7,set_tempo,,,,,50032,208.46666666666667
58,,,,,,,,,,,1500000.0,7,set_tempo,,,,,50039,208.49583333333334
59,,,,,,,,,,,638298.0,1,set_tempo,,,,,50040,208.5
60,,,,,,,,,,,,0,end_of_track,,,,,50040,208.5
61,0.0,,,,,,,,,24.0,,0,program_change,,,,,50040,208.5
62,0.0,,7.0,,,,,,,,,0,control_change,111.0,,,,50040,208.5
63,0.0,,,,,,,55.0,,,,1380,note_on,,100.0,55.0,100.0,51420,214.25
64,0.0,,,,,,,55.0,,,,60,note_on,,0.0,55.0,0.0,51480,214.5
65,0.0,,,,,,,67.0,,,,0,note_on,,100.0,67.0,100.0,51480,214.5
66,0.0,,,,,,,67.0,,,,120,note_on,,0.0,67.0,0.0,51600,215.0
67,0.0,,,,,,,67.0,,,,0,note_on,,100.0,67.0,100.0,51600,215.0
68,0.0,,,,,,,67.0,,,,60,note_on,,0.0,67.0,0.0,51660,215.25
69,0.0,,,,,,,67.0,,,,0,note_on,,100.0,67.0,100.0,51660,215.25
70,0.0,,,,,,,67.0,,,,120,note_on,,0.0,67.0,0.0,51780,215.75
71,0.0,,,,,,,67.0,,,,0,note_on,,100.0,67.0,100.0,51780,215.75
72,0.0,,,,,,,67.0,,,,60,note_on,,0.0,67.0,0.0,51840,216.0
73,0.0,,,,,,,69.0,,,,0,note_on,,100.0,69.0,100.0,51840,216.0
74,0.0,,,,,,,69.0,,,,60,note_on,,0.0,69.0,0.0,51900,216.25
75,0.0,,,,,,,69.0,,,,0,note_on,,100.0,69.0,100.0,51900,216.25
76,0.0,,,,,,,69.0,,,,60,note_on,,0.0,69.0,0.0,51960,216.5
77,0.0,,,,,,,69.0,,,,0,note_on,,100.0,69.0,100.0,51960,216.5
78,0.0,,,,,,,69.0,,,,120,note_on,,0.0,69.0,0.0,52080,217.0
79,0.0,,,,,,,64.0,,,,60,note_on,,100.0,64.0,100.0,52140,217.25
80,0.0,,,,,,,64.0,,,,60,note_on,,0.0,64.0,0.0,52200,217.5
81,0.0,,,,,,,67.0,,,,0,note_on,,100.0,67.0,100.0,52200,217.5
82,0.0,,,,,,,67.0,,,,60,note_on,,0.0,67.0,0.0,52260,217.75
83,0.0,,,,,,,67.0,,,,0,note_on,,100.0,67.0,100.0,52260,217.75
84,0.0,,,,,,,67.0,,,,60,note_on,,0.0,67.0,0.0,52320,218.0
85,0.0,,,,,,,67.0,,,,0,note_on,,100.0,67.0,100.0,52320,218.0
86,0.0,,,,,,,67.0,,,,113,note_on,,0.0,67.0,0.0,52433,218.47083333333333
87,0.0,,,,,,,67.0,,,,7,note_on,,100.0,67.0,100.0,52440,218.5
88,0.0,,,,,,,67.0,,,,60,note_on,,0.0,67.0,0.0,52500,218.75
89,0.0,,,,,,,67.0,,,,0,note_on,,100.0,67.0,100.0,52500,218.75
90,0.0,,,,,,,67.0,,,,60,note_on,,0.0,67.0,0.0,52560,219.0
91,0.0,,,,,,,69.0,,,,0,note_on,,100.0,69.0,100.0,52560,219.0
92,0.0,,,,,,,69.0,,,,113,note_on,,0.0,69.0,0.0,52673,219.47083333333333
93,0.0,,,,,,,69.0,,,,7,note_on,,100.0,69.0,100.0,52680,219.5
94,0.0,,,,,,,69.0,,,,60,note_on,,0.0,69.0,0.0,52740,219.75
95,0.0,,,,,,,69.0,,,,0,note_on,,100.0,69.0,100.0,52740,219.75
96,0.0,,,,,,,69.0,,,,60,note_on,,0.0,69.0,0.0,52800,220.0
97,0.0,,,,,,,67.0,,,,0,note_on,,80.0,67.0,80.0,52800,220.0
98,0.0,,,,,,,67.0,,,,60,note_on,,0.0,67.0,0.0,52860,220.25
99,0.0,,,,,,,67.0,,,,0,note_on,,100.0,67.0,100.0,52860,220.25
100,0.0,,,,,,,67.0,,,,60,note_on,,0.0,67.0,0.0,52920,220.5
101,0.0,,,,,,,69.0,,,,0,note_on,,100.0,69.0,100.0,52920,220.5
102,0.0,,,,,,,69.0,,,,60,note_on,,0.0,69.0,0.0,52980,220.75
103,0.0,,,,,,,69.0,,,,0,note_on,,100.0,69.0,100.0,52980,220.75
104,0.0,,,,,,,69.0,,,,180,note_on,,0.0,69.0,0.0,53160,221.5
105,0.0,,,,,,,69.0,,,,0,note_on,,100.0,69.0,100.0,53160,221.5
106,0.0,,,,,,,69.0,,,,60,note_on,,0.0,69.0,0.0,53220,221.75
107,0.0,,,,,,,69.0,,,,0,note_on,,100.0,69.0,100.0,53220,221.75
108,0.0,,,,,,,69.0,,,,60,note_on,,0.0,69.0,0.0,53280,222.0
109,0.0,,,,,,,69.0,,,,0,note_on,,100.0,69.0,100.0,53280,222.0
110,0.0,,,,,,,69.0,,,,113,note_on,,0.0,69.0,0.0,53393,222.47083333333333
111,0.0,,,,,,,67.0,,,,7,note_on,,100.0,67.0,100.0,53400,222.5
112,0.0,,,,,,,67.0,,,,60,note_on,,0.0,67.0,0.0,53460,222.75
113,0.0,,,,,,,67.0,,,,0,note_on,,100.0,67.0,100.0,53460,222.75
114,0.0,,,,,,,67.0,,,,60,note_on,,0.0,67.0,0.0,53520,223.0
115,0.0,,,,,,,65.0,,,,0,note_on,,100.0,65.0,100.0,53520,223.0
116,0.0,,,,,,,65.0,,,,60,note_on,,0.0,65.0,0.0,53580,223.25
117,0.0,,,,,,,67.0,,,,0,note_on,,80.0,67.0,80.0,53580,223.25
118,0.0,,,,,,,67.0,,,,60,note_on,,0.0,67.0,0.0,53640,223.5
119,0.0,,,,,,,67.0,,,,0,note_on,,100.0,67.0,100.0,53640,223.5
120,0.0,,,,,,,67.0,,,,60,note_on,,0.0,67.0,0.0,53700,223.75
121,0.0,,,,,,,67.0,,,,0,note_on,,100.0,67.0,100.0,53700,223.75
122,0.0,,,,,,,67.0,,,,300,note_on,,0.0,67.0,0.0,54000,225.0
123,0.0,,,,,,,55.0,,,,300,note_on,,100.0,55.0,100.0,54300,226.25
124,0.0,,,,,,,55.0,,,,60,note_on,,0.0,55.0,0.0,54360,226.5
125,0.0,,,,,,,67.0,,,,0,note_on,,100.0,67.0,100.0,54360,226.5
126,0.0,,,,,,,67.0,,,,113,note_on,,0.0,67.0,0.0,54473,226.97083333333333
127,0.0,,,,,,,67.0,,,,7,note_on,,100.0,67.0,100.0,54480,227.0
128,0.0,,,,,,,67.0,,,,60,note_on,,0.0,67.0,0.0,54540,227.25
129,0.0,,,,,,,67.0,,,,0,note_on,,100.0,67.0,100.0,54540,227.25
130,0.0,,,,,,,67.0,,,,113,note_on,,0.0,67.0,0.0,54653,227.72083333333333
131,0.0,,,,,,,67.0,,,,7,note_on,,100.0,67.0,100.0,54660,227.75
132,0.0,,,,,,,67.0,,,,60,note_on,,0.0,67.0,0.0,54720,228.0
133,0.0,,,,,,,69.0,,,,0,note_on,,100.0,69.0,100.0,54720,228.0
134,0.0,,,,,,,69.0,,,,113,note_on,,0.0,69.0,0.0,54833,228.47083333333333
135,0.0,,,,,,,69.0,,,,7,note_on,,100.0,69.0,100.0,54840,228.5
136,0.0,,,,,,,69.0,,,,60,note_on,,0.0,69.0,0.0,54900,228.75
137,0.0,,,,,,,71.0,,,,0,note_on,,100.0,71.0,100.0,54900,228.75
138,0.0,,,,,,,71.0,,,,113,note_on,,0.0,71.0,0.0,55013,229.22083333333333
139,0.0,,,,,,,67.0,,,,7,note_on,,100.0,67.0,100.0,55020,229.25
140,0.0,,,,,,,67.0,,,,60,note_on,,0.0,67.0,0.0,55080,229.5
141,0.0,,,,,,,72.0,,,,0,note_on,,100.0,72.0,100.0,55080,229.5
142,0.0,,,,,,,72.0,,,,60,note_on,,0.0,72.0,0.0,55140,229.75
143,0.0,,,,,,,72.0,,,,0,note_on,,100.0,72.0,100.0,55140,229.75
144,0.0,,,,,,,72.0,,,,60,note_on,,0.0,72.0,0.0,55200,230.0
145,0.0,,,,,,,72.0,,,,0,note_on,,100.0,72.0,100.0,55200,230.0
146,0.0,,,,,,,72.0,,,,177,note_on,,0.0,72.0,0.0,55377,230.73749999999998
147,0.0,,,,,,,69.0,,,,3,note_on,,100.0,69.0,100.0,55380,230.75
148,0.0,,,,,,,69.0,,,,60,note_on,,0.0,69.0,0.0,55440,231.0
149,0.0,,,,,,,72.0,,,,0,note_on,,100.0,72.0,100.0,55440,231.0
150,0.0,,,,,,,72.0,,,,60,note_on,,0.0,72.0,0.0,55500,231.25
151,0.0,,,,,,,72.0,,,,0,note_on,,100.0,72.0,100.0,55500,231.25
152,0.0,,,,,,,72.0,,,,60,note_on,,0.0,72.0,0.0,55560,231.5
153,0.0,,,,,,,74.0,,,,0,note_on,,100.0,74.0,100.0,55560,231.5
154,0.0,,,,,,,74.0,,,,113,note_on,,0.0,74.0,0.0,55673,231.97083333333333
155,0.0,,,,,,,72.0,,,,67,note_on,,100.0,72.0,100.0,55740,232.25
156,0.0,,,,,,,72.0,,,,60,note_on,,0.0,72.0,0.0,55800,232.5
157,0.0,,,,,,,74.0,,,,0,note_on,,100.0,74.0,100.0,55800,232.5
158,0.0,,,,,,,74.0,,,,60,note_on,,0.0,74.0,0.0,55860,232.75
159,0.0,,,,,,,74.0,,,,0,note_on,,100.0,74.0,100.0,55860,232.75
160,0.0,,,,,,,74.0,,,,60,note_on,,0.0,74.0,0.0,55920,233.0
161,0.0,,,,,,,74.0,,,,0,note_on,,100.0,74.0,100.0,55920,233.0
162,0.0,,,,,,,74.0,,,,173,note_on,,0.0,74.0,0.0,56093,233.72083333333333
163,0.0,,,,,,,74.0,,,,7,note_on,,100.0,74.0,100.0,56100,233.75
164,0.0,,,,,,,74.0,,,,60,note_on,,0.0,74.0,0.0,56160,234.0
165,0.0,,,,,,,76.0,,,,0,note_on,,100.0,76.0,100.0,56160,234.0
166,0.0,,,,,,,76.0,,,,113,note_on,,0.0,76.0,0.0,56273,234.47083333333333
167,0.0,,,,,,,76.0,,,,7,note_on,,100.0,76.0,100.0,56280,234.5
168,0.0,,,,,,,76.0,,,,113,note_on,,0.0,76.0,0.0,56393,234.97083333333333
169,0.0,,,,,,,76.0,,,,7,note_on,,100.0,76.0,100.0,56400,235.0
170,0.0,,,,,,,76.0,,,,60,note_on,,0.0,76.0,0.0,56460,235.25
171,0.0,,,,,,,74.0,,,,0,note_on,,100.0,74.0,100.0,56460,235.25
172,0.0,,,,,,,74.0,,,,60,note_on,,0.0,74.0,0.0,56520,235.5
173,0.0,,,,,,,74.0,,,,0,note_on,,100.0,74.0,100.0,56520,235.5
174,0.0,,,,,,,74.0,,,,60,note_on,,0.0,74.0,0.0,56580,235.75
175,0.0,,,,,,,72.0,,,,0,note_on,,80.0,72.0,80.0,56580,235.75
176,0.0,,,,,,,72.0,,,,60,note_on,,0.0,72.0,0.0,56640,236.0
177,0.0,,,,,,,72.0,,,,0,note_on,,100.0,72.0,100.0,56640,236.0
178,0.0,,,,,,,72.0,,,,360,note_on,,0.0,72.0,0.0,57000,237.5
179,0.0,,,,,,,64.0,,,,60,note_on,,100.0,64.0,100.0,57060,237.75
180,0.0,,,,,,,64.0,,,,113,note_on,,0.0,64.0,0.0,57173,238.22083333333333
181,0.0,,,,,,,67.0,,,,7,note_on,,100.0,67.0,100.0,57180,238.25
182,0.0,,,,,,,67.0,,,,60,note_on,,0.0,67.0,0.0,57240,238.5
183,0.0,,,,,,,69.0,,,,0,note_on,,99.0,69.0,99.0,57240,238.5
184,0.0,,,,,,,69.0,,,,173,note_on,,0.0,69.0,0.0,57413,239.22083333333333
185,0.0,,,,,,,69.0,,,,7,note_on,,99.0,69.0,99.0,57420,239.25
186,0.0,,,,,,,69.0,,,,293,note_on,,0.0,69.0,0.0,57713,240.47083333333333
187,0.0,,,,,,,69.0,,,,67,note_on,,100.0,69.0,100.0,57780,240.75
188,0.0,,,,,,,69.0,,,,113,note_on,,0.0,69.0,0.0,57893,241.22083333333333
189,0.0,,,,,,,67.0,,,,7,note_on,,100.0,67.0,100.0,57900,241.25
190,0.0,,,,,,,67.0,,,,60,note_on,,0.0,67.0,0.0,57960,241.5
191,0.0,,,,,,,64.0,,,,0,note_on,,99.0,64.0,99.0,57960,241.5
192,0.0,,,,,,,64.0,,,,173,note_on,,0.0,64.0,0.0,58133,242.22083333333333
193,0.0,,,,,,,64.0,,,,7,note_on,,99.0,64.0,99.0,58140,242.25
194,0.0,,,,,,,64.0,,,,293,note_on,,0.0,64.0,0.0,58433,243.47083333333333
195,0.0,,,,,,,64.0,,,,67,note_on,,100.0,64.0,100.0,58500,243.75
196,0.0,,,,,,,64.0,,,,113,note_on,,0.0,64.0,0.0,58613,244.22083333333333
197,0.0,,,,,,,67.0,,,,7,note_on,,100.0,67.0,100.0,58620,244.25
198,0.0,,,,,,,67.0,,,,60,note_on,,0.0,67.0,0.0,58680,244.5
199,0.0,,,,,,,69.0,,,,0,note_on,,99.0,69.0,99.0,58680,244.5
200,0.0,,,,,,,69.0,,,,173,note_on,,0.0,69.0,0.0,58853,245.22083333333333
201,0.0,,,,,,,69.0,,,,7,note_on,,99.0,69.0,99.0,58860,245.25
202,0.0,,,,,,,69.0,,,,293,note_on,,0.0,69.0,0.0,59153,246.47083333333333
203,0.0,,,,,,,69.0,,,,67,note_on,,100.0,69.0,100.0,59220,246.75
204,0.0,,,,,,,69.0,,,,113,note_on,,0.0,69.0,0.0,59333,247.22083333333333
205,0.0,,,,,,,67.0,,,,7,note_on,,100.0,67.0,100.0,59340,247.25
206,0.0,,,,,,,67.0,,,,60,note_on,,0.0,67.0,0.0,59400,247.5
207,0.0,,,,,,,64.0,,,,0,note_on,,100.0,64.0,100.0,59400,247.5
208,0.0,,,,,,,64.0,,,,237,note_on,,0.0,64.0,0.0,59637,248.48749999999998
209,0.0,,,,,,,65.0,,,,3,note_on,,100.0,65.0,100.0,59640,248.5
210,0.0,,,,,,,65.0,,,,60,note_on,,0.0,65.0,0.0,59700,248.75
211,0.0,,,,,,,64.0,,,,0,note_on,,100.0,64.0,100.0,59700,248.75
212,0.0,,,,,,,64.0,,,,60,note_on,,0.0,64.0,0.0,59760,249.0
213,0.0,,,,,,,62.0,,,,0,note_on,,100.0,62.0,100.0,59760,249.0
214,0.0,,,,,,,62.0,,,,293,note_on,,0.0,62.0,0.0,60053,250.22083333333333
215,0.0,,,,,,,60.0,,,,7,note_on,,100.0,60.0,100.0,60060,250.25
216,0.0,,,,,,,60.0,,,,60,note_on,,0.0,60.0,0.0,60120,250.5
217,0.0,,,,,,,60.0,,,,0,note_on,,100.0,60.0,100.0,60120,250.5
218,0.0,,,,,,,60.0,,,,360,note_on,,0.0,60.0,0.0,60480,252.0
219,0.0,,,,,,,55.0,,,,660,note_on,,100.0,55.0,100.0,61140,254.75
220,0.0,,,,,,,55.0,,,,60,note_on,,0.0,55.0,0.0,61200,255.0
221,0.0,,,,,,,67.0,,,,0,note_on,,100.0,67.0,100.0,61200,255.0
222,0.0,,,,,,,67.0,,,,120,note_on,,0.0,67.0,0.0,61320,255.5
223,0.0,,,,,,,67.0,,,,0,note_on,,100.0,67.0,100.0,61320,255.5
224,0.0,,,,,,,67.0,,,,60,note_on,,0.0,67.0,0.0,61380,255.75
225,0.0,,,,,,,67.0,,,,0,note_on,,100.0,67.0,100.0,61380,255.75
226,0.0,,,,,,,67.0,,,,120,note_on,,0.0,67.0,0.0,61500,256.25
227,0.0,,,,,,,67.0,,,,0,note_on,,100.0,67.0,100.0,61500,256.25
228,0.0,,,,,,,67.0,,,,60,note_on,,0.0,67.0,0.0,61560,256.5
229,0.0,,,,,,,69.0,,,,0,note_on,,100.0,69.0,100.0,61560,256.5
230,0.0,,,,,,,69.0,,,,60,note_on,,0.0,69.0,0.0,61620,256.75
231,0.0,,,,,,,69.0,,,,0,note_on,,100.0,69.0,100.0,61620,256.75
232,0.0,,,,,,,69.0,,,,60,note_on,,0.0,69.0,0.0,61680,257.0
233,0.0,,,,,,,69.0,,,,0,note_on,,100.0,69.0,100.0,61680,257.0
234,0.0,,,,,,,69.0,,,,120,note_on,,0.0,69.0,0.0,61800,257.5
235,0.0,,,,,,,64.0,,,,60,note_on,,100.0,64.0,100.0,61860,257.75
236,0.0,,,,,,,64.0,,,,60,note_on,,0.0,64.0,0.0,61920,258.0
237,0.0,,,,,,,67.0,,,,0,note_on,,100.0,67.0,100.0,61920,258.0
238,0.0,,,,,,,67.0,,,,60,note_on,,0.0,67.0,0.0,61980,258.25
239,0.0,,,,,,,67.0,,,,0,note_on,,100.0,67.0,100.0,61980,258.25
240,0.0,,,,,,,67.0,,,,60,note_on,,0.0,67.0,0.0,62040,258.5
241,0.0,,,,,,,67.0,,,,0,note_on,,100.0,67.0,100.0,62040,258.5
242,0.0,,,,,,,67.0,,,,113,note_on,,0.0,67.0,0.0,62153,258.9708333333333
243,0.0,,,,,,,67.0,,,,7,note_on,,100.0,67.0,100.0,62160,259.0
244,0.0,,,,,,,67.0,,,,60,note_on,,0.0,67.0,0.0,62220,259.25
245,0.0,,,,,,,67.0,,,,0,note_on,,100.0,67.0,100.0,62220,259.25
246,0.0,,,,,,,67.0,,,,60,note_on,,0.0,67.0,0.0,62280,259.5
247,0.0,,,,,,,69.0,,,,0,note_on,,100.0,69.0,100.0,62280,259.5
248,0.0,,,,,,,69.0,,,,113,note_on,,0.0,69.0,0.0,62393,259.9708333333333
249,0.0,,,,,,,69.0,,,,7,note_on,,100.0,69.0,100.0,62400,260.0
250,0.0,,,,,,,69.0,,,,60,note_on,,0.0,69.0,0.0,62460,260.25
251,0.0,,,,,,,69.0,,,,0,note_on,,100.0,69.0,100.0,62460,260.25
252,0.0,,,,,,,69.0,,,,60,note_on,,0.0,69.0,0.0,62520,260.5
253,0.0,,,,,,,67.0,,,,0,note_on,,80.0,67.0,80.0,62520,260.5
254,0.0,,,,,,,67.0,,,,60,note_on,,0.0,67.0,0.0,62580,260.75
255,0.0,,,,,,,67.0,,,,0,note_on,,100.0,67.0,100.0,62580,260.75
256,0.0,,,,,,,67.0,,,,60,note_on,,0.0,67.0,0.0,62640,261.0
257,0.0,,,,,,,69.0,,,,0,note_on,,100.0,69.0,100.0,62640,261.0
258,0.0,,,,,,,69.0,,,,60,note_on,,0.0,69.0,0.0,62700,261.25
259,0.0,,,,,,,69.0,,,,0,note_on,,100.0,69.0,100.0,62700,261.25
260,0.0,,,,,,,69.0,,,,180,note_on,,0.0,69.0,0.0,62880,262.0
261,0.0,,,,,,,69.0,,,,0,note_on,,100.0,69.0,100.0,62880,262.0
262,0.0,,,,,,,69.0,,,,60,note_on,,0.0,69.0,0.0,62940,262.25
263,0.0,,,,,,,69.0,,,,0,note_on,,100.0,69.0,100.0,62940,262.25
264,0.0,,,,,,,69.0,,,,60,note_on,,0.0,69.0,0.0,63000,262.5
265,0.0,,,,,,,69.0,,,,0,note_on,,100.0,69.0,100.0,63000,262.5
266,0.0,,,,,,,69.0,,,,113,note_on,,0.0,69.0,0.0,63113,262.9708333333333
267,0.0,,,,,,,67.0,,,,7,note_on,,100.0,67.0,100.0,63120,263.0
268,0.0,,,,,,,67.0,,,,60,note_on,,0.0,67.0,0.0,63180,263.25
269,0.0,,,,,,,67.0,,,,0,note_on,,100.0,67.0,100.0,63180,263.25
270,0.0,,,,,,,67.0,,,,60,note_on,,0.0,67.0,0.0,63240,263.5
271,0.0,,,,,,,65.0,,,,0,note_on,,100.0,65.0,100.0,63240,263.5
272,0.0,,,,,,,65.0,,,,60,note_on,,0.0,65.0,0.0,63300,263.75
273,0.0,,,,,,,67.0,,,,0,note_on,,80.0,67.0,80.0,63300,263.75
274,0.0,,,,,,,67.0,,,,60,note_on,,0.0,67.0,0.0,63360,264.0
275,0.0,,,,,,,67.0,,,,0,note_on,,100.0,67.0,100.0,63360,264.0
276,0.0,,,,,,,67.0,,,,60,note_on,,0.0,67.0,0.0,63420,264.25
277,0.0,,,,,,,67.0,,,,0,note_on,,100.0,67.0,100.0,63420,264.25
278,0.0,,,,,,,67.0,,,,300,note_on,,0.0,67.0,0.0,63720,265.5
279,0.0,,,,,,,55.0,,,,300,note_on,,100.0,55.0,100.0,64020,266.75
280,0.0,,,,,,,55.0,,,,60,note_on,,0.0,55.0,0.0,64080,267.0
281,0.0,,,,,,,67.0,,,,0,note_on,,100.0,67.0,100.0,64080,267.0
282,0.0,,,,,,,67.0,,,,113,note_on,,0.0,67.0,0.0,64193,267.4708333333333
283,0.0,,,,,,,67.0,,,,7,note_on,,100.0,67.0,100.0,64200,267.5
284,0.0,,,,,,,67.0,,,,60,note_on,,0.0,67.0,0.0,64260,267.75
285,0.0,,,,,,,67.0,,,,0,note_on,,100.0,67.0,100.0,64260,267.75
286,0.0,,,,,,,67.0,,,,113,note_on,,0.0,67.0,0.0,64373,268.2208333333333
287,0.0,,,,,,,67.0,,,,7,note_on,,100.0,67.0,100.0,64380,268.25
288,0.0,,,,,,,67.0,,,,60,note_on,,0.0,67.0,0.0,64440,268.5
289,0.0,,,,,,,69.0,,,,0,note_on,,100.0,69.0,100.0,64440,268.5
290,0.0,,,,,,,69.0,,,,113,note_on,,0.0,69.0,0.0,64553,268.9708333333333
291,0.0,,,,,,,69.0,,,,7,note_on,,100.0,69.0,100.0,64560,269.0
292,0.0,,,,,,,69.0,,,,60,note_on,,0.0,69.0,0.0,64620,269.25
293,0.0,,,,,,,71.0,,,,0,note_on,,100.0,71.0,100.0,64620,269.25
294,0.0,,,,,,,71.0,,,,113,note_on,,0.0,71.0,0.0,64733,269.7208333333333
295,0.0,,,,,,,67.0,,,,7,note_on,,100.0,67.0,100.0,64740,269.75
296,0.0,,,,,,,67.0,,,,60,note_on,,0.0,67.0,0.0,64800,270.0
297,0.0,,,,,,,72.0,,,,0,note_on,,100.0,72.0,100.0,64800,270.0
298,0.0,,,,,,,72.0,,,,60,note_on,,0.0,72.0,0.0,64860,270.25
299,0.0,,,,,,,72.0,,,,0,note_on,,100.0,72.0,100.0,64860,270.25
300,0.0,,,,,,,72.0,,,,60,note_on,,0.0,72.0,0.0,64920,270.5
301,0.0,,,,,,,72.0,,,,0,note_on,,100.0,72.0,100.0,64920,270.5
302,0.0,,,,,,,72.0,,,,177,note_on,,0.0,72.0,0.0,65097,271.2375
303,0.0,,,,,,,69.0,,,,3,note_on,,100.0,69.0,100.0,65100,271.25
304,0.0,,,,,,,69.0,,,,60,note_on,,0.0,69.0,0.0,65160,271.5
305,0.0,,,,,,,72.0,,,,0,note_on,,100.0,72.0,100.0,65160,271.5
306,0.0,,,,,,,72.0,,,,60,note_on,,0.0,72.0,0.0,65220,271.75
307,0.0,,,,,,,72.0,,,,0,note_on,,100.0,72.0,100.0,65220,271.75
308,0.0,,,,,,,72.0,,,,60,note_on,,0.0,72.0,0.0,65280,272.0
309,0.0,,,,,,,74.0,,,,0,note_on,,100.0,74.0,100.0,65280,272.0
310,0.0,,,,,,,74.0,,,,113,note_on,,0.0,74.0,0.0,65393,272.4708333333333
311,0.0,,,,,,,72.0,,,,67,note_on,,100.0,72.0,100.0,65460,272.75
312,0.0,,,,,,,72.0,,,,60,note_on,,0.0,72.0,0.0,65520,273.0
313,0.0,,,,,,,74.0,,,,0,note_on,,100.0,74.0,100.0,65520,273.0
314,0.0,,,,,,,74.0,,,,60,note_on,,0.0,74.0,0.0,65580,273.25
315,0.0,,,,,,,74.0,,,,0,note_on,,100.0,74.0,100.0,65580,273.25
316,0.0,,,,,,,74.0,,,,60,note_on,,0.0,74.0,0.0,65640,273.5
317,0.0,,,,,,,74.0,,,,0,note_on,,100.0,74.0,100.0,65640,273.5
318,0.0,,,,,,,74.0,,,,173,note_on,,0.0,74.0,0.0,65813,274.2208333333333
319,0.0,,,,,,,74.0,,,,7,note_on,,100.0,74.0,100.0,65820,274.25
320,0.0,,,,,,,74.0,,,,60,note_on,,0.0,74.0,0.0,65880,274.5
321,0.0,,,,,,,76.0,,,,0,note_on,,100.0,76.0,100.0,65880,274.5
322,0.0,,,,,,,76.0,,,,113,note_on,,0.0,76.0,0.0,65993,274.9708333333333
323,0.0,,,,,,,76.0,,,,7,note_on,,100.0,76.0,100.0,66000,275.0
324,0.0,,,,,,,76.0,,,,113,note_on,,0.0,76.0,0.0,66113,275.4708333333333
325,0.0,,,,,,,76.0,,,,7,note_on,,100.0,76.0,100.0,66120,275.5
326,0.0,,,,,,,76.0,,,,60,note_on,,0.0,76.0,0.0,66180,275.75
327,0.0,,,,,,,74.0,,,,0,note_on,,100.0,74.0,100.0,66180,275.75
328,0.0,,,,,,,74.0,,,,60,note_on,,0.0,74.0,0.0,66240,276.0
329,0.0,,,,,,,74.0,,,,0,note_on,,100.0,74.0,100.0,66240,276.0
330,0.0,,,,,,,74.0,,,,60,note_on,,0.0,74.0,0.0,66300,276.25
331,0.0,,,,,,,72.0,,,,0,note_on,,80.0,72.0,80.0,66300,276.25
332,0.0,,,,,,,72.0,,,,60,note_on,,0.0,72.0,0.0,66360,276.5
333,0.0,,,,,,,72.0,,,,0,note_on,,100.0,72.0,100.0,66360,276.5
334,0.0,,,,,,,72.0,,,,360,note_on,,0.0,72.0,0.0,66720,278.0
335,0.0,,,,,,,64.0,,,,60,note_on,,100.0,64.0,100.0,66780,278.25
336,0.0,,,,,,,64.0,,,,113,note_on,,0.0,64.0,0.0,66893,278.7208333333333
337,0.0,,,,,,,67.0,,,,7,note_on,,100.0,67.0,100.0,66900,278.75
338,0.0,,,,,,,67.0,,,,60,note_on,,0.0,67.0,0.0,66960,279.0
339,0.0,,,,,,,69.0,,,,0,note_on,,99.0,69.0,99.0,66960,279.0
340,0.0,,,,,,,69.0,,,,173,note_on,,0.0,69.0,0.0,67133,279.7208333333333
341,0.0,,,,,,,69.0,,,,7,note_on,,99.0,69.0,99.0,67140,279.75
342,0.0,,,,,,,69.0,,,,293,note_on,,0.0,69.0,0.0,67433,280.9708333333333
343,0.0,,,,,,,69.0,,,,67,note_on,,100.0,69.0,100.0,67500,281.25
344,0.0,,,,,,,69.0,,,,113,note_on,,0.0,69.0,0.0,67613,281.7208333333333
345,0.0,,,,,,,67.0,,,,7,note_on,,100.0,67.0,100.0,67620,281.75
346,0.0,,,,,,,67.0,,,,60,note_on,,0.0,67.0,0.0,67680,282.0
347,0.0,,,,,,,64.0,,,,0,note_on,,99.0,64.0,99.0,67680,282.0
348,0.0,,,,,,,64.0,,,,173,note_on,,0.0,64.0,0.0,67853,282.7208333333333
349,0.0,,,,,,,64.0,,,,7,note_on,,99.0,64.0,99.0,67860,282.75
350,0.0,,,,,,,64.0,,,,293,note_on,,0.0,64.0,0.0,68153,283.9708333333333
351,0.0,,,,,,,64.0,,,,67,note_on,,100.0,64.0,100.0,68220,284.25
352,0.0,,,,,,,64.0,,,,113,note_on,,0.0,64.0,0.0,68333,284.7208333333333
353,0.0,,,,,,,67.0,,,,7,note_on,,100.0,67.0,100.0,68340,284.75
354,0.0,,,,,,,67.0,,,,60,note_on,,0.0,67.0,0.0,68400,285.0
355,0.0,,,,,,,69.0,,,,0,note_on,,99.0,69.0,99.0,68400,285.0
356,0.0,,,,,,,69.0,,,,173,note_on,,0.0,69.0,0.0,68573,285.7208333333333
357,0.0,,,,,,,69.0,,,,7,note_on,,99.0,69.0,99.0,68580,285.75
358,0.0,,,,,,,69.0,,,,293,note_on,,0.0,69.0,0.0,68873,286.9708333333333
359,0.0,,,,,,,69.0,,,,67,note_on,,100.0,69.0,100.0,68940,287.25
360,0.0,,,,,,,69.0,,,,113,note_on,,0.0,69.0,0.0,69053,287.7208333333333
361,0.0,,,,,,,67.0,,,,7,note_on,,100.0,67.0,100.0,69060,287.75
362,0.0,,,,,,,67.0,,,,60,note_on,,0.0,67.0,0.0,69120,288.0
363,0.0,,,,,,,64.0,,,,0,note_on,,100.0,64.0,100.0,69120,288.0
364,0.0,,,,,,,64.0,,,,237,note_on,,0.0,64.0,0.0,69357,288.9875
365,0.0,,,,,,,65.0,,,,3,note_on,,100.0,65.0,100.0,69360,289.0
366,0.0,,,,,,,65.0,,,,60,note_on,,0.0,65.0,0.0,69420,289.25
367,0.0,,,,,,,64.0,,,,0,note_on,,100.0,64.0,100.0,69420,289.25
368,0.0,,,,,,,64.0,,,,60,note_on,,0.0,64.0,0.0,69480,289.5
369,0.0,,,,,,,62.0,,,,0,note_on,,100.0,62.0,100.0,69480,289.5
370,0.0,,,,,,,62.0,,,,293,note_on,,0.0,62.0,0.0,69773,290.7208333333333
371,0.0,,,,,,,60.0,,,,7,note_on,,100.0,60.0,100.0,69780,290.75
372,0.0,,,,,,,60.0,,,,60,note_on,,0.0,60.0,0.0,69840,291.0
373,0.0,,,,,,,60.0,,,,0,note_on,,100.0,60.0,100.0,69840,291.0
374,0.0,,,,,,,60.0,,,,360,note_on,,0.0,60.0,0.0,70200,292.5
375,0.0,,,,,,,55.0,,,,660,note_on,,100.0,55.0,100.0,70860,295.25
376,0.0,,,,,,,55.0,,,,60,note_on,,0.0,55.0,0.0,70920,295.5
377,0.0,,,,,,,67.0,,,,0,note_on,,100.0,67.0,100.0,70920,295.5
378,0.0,,,,,,,67.0,,,,120,note_on,,0.0,67.0,0.0,71040,296.0
379,0.0,,,,,,,67.0,,,,0,note_on,,100.0,67.0,100.0,71040,296.0
380,0.0,,,,,,,67.0,,,,60,note_on,,0.0,67.0,0.0,71100,296.25
381,0.0,,,,,,,67.0,,,,0,note_on,,100.0,67.0,100.0,71100,296.25
382,0.0,,,,,,,67.0,,,,120,note_on,,0.0,67.0,0.0,71220,296.75
383,0.0,,,,,,,67.0,,,,0,note_on,,100.0,67.0,100.0,71220,296.75
384,0.0,,,,,,,67.0,,,,60,note_on,,0.0,67.0,0.0,71280,297.0
385,0.0,,,,,,,69.0,,,,0,note_on,,100.0,69.0,100.0,71280,297.0
386,0.0,,,,,,,69.0,,,,60,note_on,,0.0,69.0,0.0,71340,297.25
387,0.0,,,,,,,69.0,,,,0,note_on,,100.0,69.0,100.0,71340,297.25
388,0.0,,,,,,,69.0,,,,60,note_on,,0.0,69.0,0.0,71400,297.5
389,0.0,,,,,,,69.0,,,,0,note_on,,100.0,69.0,100.0,71400,297.5
390,0.0,,,,,,,69.0,,,,120,note_on,,0.0,69.0,0.0,71520,298.0
391,0.0,,,,,,,64.0,,,,60,note_on,,100.0,64.0,100.0,71580,298.25
392,0.0,,,,,,,64.0,,,,60,note_on,,0.0,64.0,0.0,71640,298.5
393,0.0,,,,,,,67.0,,,,0,note_on,,100.0,67.0,100.0,71640,298.5
394,0.0,,,,,,,67.0,,,,60,note_on,,0.0,67.0,0.0,71700,298.75
395,0.0,,,,,,,67.0,,,,0,note_on,,100.0,67.0,100.0,71700,298.75
396,0.0,,,,,,,67.0,,,,60,note_on,,0.0,67.0,0.0,71760,299.0
397,0.0,,,,,,,67.0,,,,0,note_on,,100.0,67.0,100.0,71760,299.0
398,0.0,,,,,,,67.0,,,,113,note_on,,0.0,67.0,0.0,71873,299.4708333333333
399,0.0,,,,,,,67.0,,,,7,note_on,,100.0,67.0,100.0,71880,299.5
400,0.0,,,,,,,67.0,,,,60,note_on,,0.0,67.0,0.0,71940,299.75
401,0.0,,,,,,,67.0,,,,0,note_on,,100.0,67.0,100.0,71940,299.75
402,0.0,,,,,,,67.0,,,,60,note_on,,0.0,67.0,0.0,72000,300.0
403,0.0,,,,,,,69.0,,,,0,note_on,,100.0,69.0,100.0,72000,300.0
404,0.0,,,,,,,69.0,,,,113,note_on,,0.0,69.0,0.0,72113,300.4708333333333
405,0.0,,,,,,,69.0,,,,7,note_on,,100.0,69.0,100.0,72120,300.5
406,0.0,,,,,,,69.0,,,,60,note_on,,0.0,69.0,0.0,72180,300.75
407,0.0,,,,,,,69.0,,,,0,note_on,,100.0,69.0,100.0,72180,300.75
408,0.0,,,,,,,69.0,,,,60,note_on,,0.0,69.0,0.0,72240,301.0
409,0.0,,,,,,,67.0,,,,0,note_on,,80.0,67.0,80.0,72240,301.0
410,0.0,,,,,,,67.0,,,,60,note_on,,0.0,67.0,0.0,72300,301.25
411,0.0,,,,,,,67.0,,,,0,note_on,,100.0,67.0,100.0,72300,301.25
412,0.0,,,,,,,67.0,,,,60,note_on,,0.0,67.0,0.0,72360,301.5
413,0.0,,,,,,,69.0,,,,0,note_on,,100.0,69.0,100.0,72360,301.5
414,0.0,,,,,,,69.0,,,,60,note_on,,0.0,69.0,0.0,72420,301.75
415,0.0,,,,,,,69.0,,,,0,note_on,,100.0,69.0,100.0,72420,301.75
416,0.0,,,,,,,69.0,,,,180,note_on,,0.0,69.0,0.0,72600,302.5
417,0.0,,,,,,,69.0,,,,0,note_on,,100.0,69.0,100.0,72600,302.5
418,0.0,,,,,,,69.0,,,,60,note_on,,0.0,69.0,0.0,72660,302.75
419,0.0,,,,,,,69.0,,,,0,note_on,,100.0,69.0,100.0,72660,302.75
420,0.0,,,,,,,69.0,,,,60,note_on,,0.0,69.0,0.0,72720,303.0
421,0.0,,,,,,,69.0,,,,0,note_on,,100.0,69.0,100.0,72720,303.0
422,0.0,,,,,,,69.0,,,,113,note_on,,0.0,69.0,0.0,72833,303.4708333333333
423,0.0,,,,,,,67.0,,,,7,note_on,,100.0,67.0,100.0,72840,303.5
424,0.0,,,,,,,67.0,,,,60,note_on,,0.0,67.0,0.0,72900,303.75
425,0.0,,,,,,,67.0,,,,0,note_on,,100.0,67.0,100.0,72900,303.75
426,0.0,,,,,,,67.0,,,,60,note_on,,0.0,67.0,0.0,72960,304.0
427,0.0,,,,,,,65.0,,,,0,note_on,,100.0,65.0,100.0,72960,304.0
428,0.0,,,,,,,65.0,,,,60,note_on,,0.0,65.0,0.0,73020,304.25
429,0.0,,,,,,,67.0,,,,0,note_on,,80.0,67.0,80.0,73020,304.25
430,0.0,,,,,,,67.0,,,,60,note_on,,0.0,67.0,0.0,73080,304.5
431,0.0,,,,,,,67.0,,,,0,note_on,,100.0,67.0,100.0,73080,304.5
432,0.0,,,,,,,67.0,,,,60,note_on,,0.0,67.0,0.0,73140,304.75
433,0.0,,,,,,,67.0,,,,0,note_on,,100.0,67.0,100.0,73140,304.75
434,0.0,,,,,,,67.0,,,,300,note_on,,0.0,67.0,0.0,73440,306.0
435,0.0,,,,,,,55.0,,,,300,note_on,,100.0,55.0,100.0,73740,307.25
436,0.0,,,,,,,55.0,,,,60,note_on,,0.0,55.0,0.0,73800,307.5
437,0.0,,,,,,,67.0,,,,0,note_on,,100.0,67.0,100.0,73800,307.5
438,0.0,,,,,,,67.0,,,,113,note_on,,0.0,67.0,0.0,73913,307.9708333333333
439,0.0,,,,,,,67.0,,,,7,note_on,,100.0,67.0,100.0,73920,308.0
440,0.0,,,,,,,67.0,,,,60,note_on,,0.0,67.0,0.0,73980,308.25
441,0.0,,,,,,,67.0,,,,0,note_on,,100.0,67.0,100.0,73980,308.25
442,0.0,,,,,,,67.0,,,,113,note_on,,0.0,67.0,0.0,74093,308.7208333333333
443,0.0,,,,,,,67.0,,,,7,note_on,,100.0,67.0,100.0,74100,308.75
444,0.0,,,,,,,67.0,,,,60,note_on,,0.0,67.0,0.0,74160,309.0
445,0.0,,,,,,,69.0,,,,0,note_on,,100.0,69.0,100.0,74160,309.0
446,0.0,,,,,,,69.0,,,,113,note_on,,0.0,69.0,0.0,74273,309.4708333333333
447,0.0,,,,,,,69.0,,,,7,note_on,,100.0,69.0,100.0,74280,309.5
448,0.0,,,,,,,69.0,,,,60,note_on,,0.0,69.0,0.0,74340,309.75
449,0.0,,,,,,,71.0,,,,0,note_on,,100.0,71.0,100.0,74340,309.75
450,0.0,,,,,,,71.0,,,,113,note_on,,0.0,71.0,0.0,74453,310.2208333333333
451,0.0,,,,,,,67.0,,,,7,note_on,,100.0,67.0,100.0,74460,310.25
452,0.0,,,,,,,67.0,,,,60,note_on,,0.0,67.0,0.0,74520,310.5
453,0.0,,,,,,,72.0,,,,0,note_on,,100.0,72.0,100.0,74520,310.5
454,0.0,,,,,,,72.0,,,,60,note_on,,0.0,72.0,0.0,74580,310.75
455,0.0,,,,,,,72.0,,,,0,note_on,,100.0,72.0,100.0,74580,310.75
456,0.0,,,,,,,72.0,,,,60,note_on,,0.0,72.0,0.0,74640,311.0
457,0.0,,,,,,,72.0,,,,0,note_on,,100.0,72.0,100.0,74640,311.0
458,0.0,,,,,,,72.0,,,,177,note_on,,0.0,72.0,0.0,74817,311.7375
459,0.0,,,,,,,69.0,,,,3,note_on,,100.0,69.0,100.0,74820,311.75
460,0.0,,,,,,,69.0,,,,60,note_on,,0.0,69.0,0.0,74880,312.0
461,0.0,,,,,,,72.0,,,,0,note_on,,100.0,72.0,100.0,74880,312.0
462,0.0,,,,,,,72.0,,,,60,note_on,,0.0,72.0,0.0,74940,312.25
463,0.0,,,,,,,72.0,,,,0,note_on,,100.0,72.0,100.0,74940,312.25
464,0.0,,,,,,,72.0,,,,60,note_on,,0.0,72.0,0.0,75000,312.5
465,0.0,,,,,,,74.0,,,,0,note_on,,100.0,74.0,100.0,75000,312.5
466,0.0,,,,,,,74.0,,,,113,note_on,,0.0,74.0,0.0,75113,312.9708333333333
467,0.0,,,,,,,72.0,,,,67,note_on,,100.0,72.0,100.0,75180,313.25
468,0.0,,,,,,,72.0,,,,60,note_on,,0.0,72.0,0.0,75240,313.5
469,0.0,,,,,,,74.0,,,,0,note_on,,100.0,74.0,100.0,75240,313.5
470,0.0,,,,,,,74.0,,,,60,note_on,,0.0,74.0,0.0,75300,313.75
471,0.0,,,,,,,74.0,,,,0,note_on,,100.0,74.0,100.0,75300,313.75
472,0.0,,,,,,,74.0,,,,60,note_on,,0.0,74.0,0.0,75360,314.0
473,0.0,,,,,,,74.0,,,,0,note_on,,100.0,74.0,100.0,75360,314.0
474,0.0,,,,,,,74.0,,,,173,note_on,,0.0,74.0,0.0,75533,314.7208333333333
475,0.0,,,,,,,74.0,,,,7,note_on,,100.0,74.0,100.0,75540,314.75
476,0.0,,,,,,,74.0,,,,60,note_on,,0.0,74.0,0.0,75600,315.0
477,0.0,,,,,,,76.0,,,,0,note_on,,100.0,76.0,100.0,75600,315.0
478,0.0,,,,,,,76.0,,,,113,note_on,,0.0,76.0,0.0,75713,315.4708333333333
479,0.0,,,,,,,76.0,,,,7,note_on,,100.0,76.0,100.0,75720,315.5
480,0.0,,,,,,,76.0,,,,113,note_on,,0.0,76.0,0.0,75833,315.9708333333333
481,0.0,,,,,,,76.0,,,,7,note_on,,100.0,76.0,100.0,75840,316.0
482,0.0,,,,,,,76.0,,,,60,note_on,,0.0,76.0,0.0,75900,316.25
483,0.0,,,,,,,74.0,,,,0,note_on,,100.0,74.0,100.0,75900,316.25
484,0.0,,,,,,,74.0,,,,60,note_on,,0.0,74.0,0.0,75960,316.5
485,0.0,,,,,,,74.0,,,,0,note_on,,100.0,74.0,100.0,75960,316.5
486,0.0,,,,,,,74.0,,,,60,note_on,,0.0,74.0,0.0,76020,316.75
487,0.0,,,,,,,72.0,,,,0,note_on,,80.0,72.0,80.0,76020,316.75
488,0.0,,,,,,,72.0,,,,60,note_on,,0.0,72.0,0.0,76080,317.0
489,0.0,,,,,,,72.0,,,,0,note_on,,100.0,72.0,100.0,76080,317.0
490,0.0,,,,,,,72.0,,,,360,note_on,,0.0,72.0,0.0,76440,318.5
491,0.0,,,,,,,64.0,,,,60,note_on,,100.0,64.0,100.0,76500,318.75
492,0.0,,,,,,,64.0,,,,113,note_on,,0.0,64.0,0.0,76613,319.2208333333333
493,0.0,,,,,,,67.0,,,,7,note_on,,100.0,67.0,100.0,76620,319.25
494,0.0,,,,,,,67.0,,,,60,note_on,,0.0,67.0,0.0,76680,319.5
495,0.0,,,,,,,69.0,,,,0,note_on,,99.0,69.0,99.0,76680,319.5
496,0.0,,,,,,,69.0,,,,173,note_on,,0.0,69.0,0.0,76853,320.2208333333333
497,0.0,,,,,,,69.0,,,,7,note_on,,99.0,69.0,99.0,76860,320.25
498,0.0,,,,,,,69.0,,,,293,note_on,,0.0,69.0,0.0,77153,321.4708333333333
499,0.0,,,,,,,69.0,,,,67,note_on,,100.0,69.0,100.0,77220,321.75
500,0.0,,,,,,,69.0,,,,113,note_on,,0.0,69.0,0.0,77333,322.2208333333333
501,0.0,,,,,,,67.0,,,,7,note_on,,100.0,67.0,100.0,77340,322.25
502,0.0,,,,,,,67.0,,,,60,note_on,,0.0,67.0,0.0,77400,322.5
503,0.0,,,,,,,64.0,,,,0,note_on,,99.0,64.0,99.0,77400,322.5
504,0.0,,,,,,,64.0,,,,173,note_on,,0.0,64.0,0.0,77573,323.2208333333333
505,0.0,,,,,,,64.0,,,,7,note_on,,99.0,64.0,99.0,77580,323.25
506,0.0,,,,,,,64.0,,,,293,note_on,,0.0,64.0,0.0,77873,324.4708333333333
507,0.0,,,,,,,64.0,,,,67,note_on,,100.0,64.0,100.0,77940,324.75
508,0.0,,,,,,,64.0,,,,113,note_on,,0.0,64.0,0.0,78053,325.2208333333333
509,0.0,,,,,,,67.0,,,,7,note_on,,100.0,67.0,100.0,78060,325.25
510,0.0,,,,,,,67.0,,,,60,note_on,,0.0,67.0,0.0,78120,325.5
511,0.0,,,,,,,69.0,,,,0,note_on,,99.0,69.0,99.0,78120,325.5
512,0.0,,,,,,,69.0,,,,173,note_on,,0.0,69.0,0.0,78293,326.2208333333333
513,0.0,,,,,,,69.0,,,,7,note_on,,99.0,69.0,99.0,78300,326.25
514,0.0,,,,,,,69.0,,,,293,note_on,,0.0,69.0,0.0,78593,327.4708333333333
515,0.0,,,,,,,69.0,,,,67,note_on,,100.0,69.0,100.0,78660,327.75
516,0.0,,,,,,,69.0,,,,113,note_on,,0.0,69.0,0.0,78773,328.2208333333333
517,0.0,,,,,,,67.0,,,,7,note_on,,100.0,67.0,100.0,78780,328.25
518,0.0,,,,,,,67.0,,,,60,note_on,,0.0,67.0,0.0,78840,328.5
519,0.0,,,,,,,64.0,,,,0,note_on,,100.0,64.0,100.0,78840,328.5
520,0.0,,,,,,,64.0,,,,237,note_on,,0.0,64.0,0.0,79077,329.4875
521,0.0,,,,,,,65.0,,,,3,note_on,,100.0,65.0,100.0,79080,329.5
522,0.0,,,,,,,65.0,,,,60,note_on,,0.0,65.0,0.0,79140,329.75
523,0.0,,,,,,,64.0,,,,0,note_on,,100.0,64.0,100.0,79140,329.75
524,0.0,,,,,,,64.0,,,,60,note_on,,0.0,64.0,0.0,79200,330.0
525,0.0,,,,,,,62.0,,,,0,note_on,,100.0,62.0,100.0,79200,330.0
526,0.0,,,,,,,62.0,,,,293,note_on,,0.0,62.0,0.0,79493,331.2208333333333
527,0.0,,,,,,,60.0,,,,7,note_on,,100.0,60.0,100.0,79500,331.25
528,0.0,,,,,,,60.0,,,,60,note_on,,0.0,60.0,0.0,79560,331.5
529,0.0,,,,,,,60.0,,,,0,note_on,,100.0,60.0,100.0,79560,331.5
530,0.0,,,,,,,60.0,,,,360,note_on,,0.0,60.0,0.0,79920,333.0
531,0.0,,,,,,,55.0,,,,660,note_on,,100.0,55.0,100.0,80580,335.75
532,0.0,,,,,,,55.0,,,,60,note_on,,0.0,55.0,0.0,80640,336.0
533,0.0,,,,,,,67.0,,,,0,note_on,,100.0,67.0,100.0,80640,336.0
534,0.0,,,,,,,67.0,,,,120,note_on,,0.0,67.0,0.0,80760,336.5
535,0.0,,,,,,,67.0,,,,0,note_on,,100.0,67.0,100.0,80760,336.5
536,0.0,,,,,,,67.0,,,,60,note_on,,0.0,67.0,0.0,80820,336.75
537,0.0,,,,,,,67.0,,,,0,note_on,,100.0,67.0,100.0,80820,336.75
538,0.0,,,,,,,67.0,,,,120,note_on,,0.0,67.0,0.0,80940,337.25
539,0.0,,,,,,,67.0,,,,0,note_on,,100.0,67.0,100.0,80940,337.25
540,0.0,,,,,,,67.0,,,,60,note_on,,0.0,67.0,0.0,81000,337.5
541,0.0,,,,,,,69.0,,,,0,note_on,,100.0,69.0,100.0,81000,337.5
542,0.0,,,,,,,69.0,,,,60,note_on,,0.0,69.0,0.0,81060,337.75
543,0.0,,,,,,,69.0,,,,0,note_on,,100.0,69.0,100.0,81060,337.75
544,0.0,,,,,,,69.0,,,,60,note_on,,0.0,69.0,0.0,81120,338.0
545,0.0,,,,,,,69.0,,,,0,note_on,,100.0,69.0,100.0,81120,338.0
546,0.0,,,,,,,69.0,,,,120,note_on,,0.0,69.0,0.0,81240,338.5
547,0.0,,,,,,,64.0,,,,60,note_on,,100.0,64.0,100.0,81300,338.75
548,0.0,,,,,,,64.0,,,,60,note_on,,0.0,64.0,0.0,81360,339.0
549,0.0,,,,,,,67.0,,,,0,note_on,,100.0,67.0,100.0,81360,339.0
550,0.0,,,,,,,67.0,,,,60,note_on,,0.0,67.0,0.0,81420,339.25
551,0.0,,,,,,,67.0,,,,0,note_on,,100.0,67.0,100.0,81420,339.25
552,0.0,,,,,,,67.0,,,,60,note_on,,0.0,67.0,0.0,81480,339.5
553,0.0,,,,,,,67.0,,,,0,note_on,,100.0,67.0,100.0,81480,339.5
554,0.0,,,,,,,67.0,,,,113,note_on,,0.0,67.0,0.0,81593,339.9708333333333
555,0.0,,,,,,,67.0,,,,7,note_on,,100.0,67.0,100.0,81600,340.0
556,0.0,,,,,,,67.0,,,,60,note_on,,0.0,67.0,0.0,81660,340.25
557,0.0,,,,,,,67.0,,,,0,note_on,,100.0,67.0,100.0,81660,340.25
558,0.0,,,,,,,67.0,,,,60,note_on,,0.0,67.0,0.0,81720,340.5
559,0.0,,,,,,,69.0,,,,0,note_on,,100.0,69.0,100.0,81720,340.5
560,0.0,,,,,,,69.0,,,,113,note_on,,0.0,69.0,0.0,81833,340.9708333333333
561,0.0,,,,,,,69.0,,,,7,note_on,,100.0,69.0,100.0,81840,341.0
562,0.0,,,,,,,69.0,,,,60,note_on,,0.0,69.0,0.0,81900,341.25
563,0.0,,,,,,,69.0,,,,0,note_on,,100.0,69.0,100.0,81900,341.25
564,0.0,,,,,,,69.0,,,,60,note_on,,0.0,69.0,0.0,81960,341.5
565,0.0,,,,,,,67.0,,,,0,note_on,,80.0,67.0,80.0,81960,341.5
566,0.0,,,,,,,67.0,,,,60,note_on,,0.0,67.0,0.0,82020,341.75
567,0.0,,,,,,,67.0,,,,0,note_on,,100.0,67.0,100.0,82020,341.75
568,0.0,,,,,,,67.0,,,,60,note_on,,0.0,67.0,0.0,82080,342.0
569,0.0,,,,,,,69.0,,,,0,note_on,,100.0,69.0,100.0,82080,342.0
570,0.0,,,,,,,69.0,,,,60,note_on,,0.0,69.0,0.0,82140,342.25
571,0.0,,,,,,,69.0,,,,0,note_on,,100.0,69.0,100.0,82140,342.25
572,0.0,,,,,,,69.0,,,,180,note_on,,0.0,69.0,0.0,82320,343.0
573,0.0,,,,,,,69.0,,,,0,note_on,,100.0,69.0,100.0,82320,343.0
574,0.0,,,,,,,69.0,,,,60,note_on,,0.0,69.0,0.0,82380,343.25
575,0.0,,,,,,,69.0,,,,0,note_on,,100.0,69.0,100.0,82380,343.25
576,0.0,,,,,,,69.0,,,,60,note_on,,0.0,69.0,0.0,82440,343.5
577,0.0,,,,,,,69.0,,,,0,note_on,,100.0,69.0,100.0,82440,343.5
578,0.0,,,,,,,69.0,,,,113,note_on,,0.0,69.0,0.0,82553,343.9708333333333
579,0.0,,,,,,,67.0,,,,7,note_on,,100.0,67.0,100.0,82560,344.0
580,0.0,,,,,,,67.0,,,,60,note_on,,0.0,67.0,0.0,82620,344.25
581,0.0,,,,,,,67.0,,,,0,note_on,,100.0,67.0,100.0,82620,344.25
582,0.0,,,,,,,67.0,,,,60,note_on,,0.0,67.0,0.0,82680,344.5
583,0.0,,,,,,,65.0,,,,0,note_on,,100.0,65.0,100.0,82680,344.5
584,0.0,,,,,,,65.0,,,,60,note_on,,0.0,65.0,0.0,82740,344.75
585,0.0,,,,,,,67.0,,,,0,note_on,,80.0,67.0,80.0,82740,344.75
586,0.0,,,,,,,67.0,,,,60,note_on,,0.0,67.0,0.0,82800,345.0
587,0.0,,,,,,,67.0,,,,0,note_on,,100.0,67.0,100.0,82800,345.0
588,0.0,,,,,,,67.0,,,,60,note_on,,0.0,67.0,0.0,82860,345.25
589,0.0,,,,,,,67.0,,,,0,note_on,,100.0,67.0,100.0,82860,345.25
590,0.0,,,,,,,67.0,,,,300,note_on,,0.0,67.0,0.0,83160,346.5
591,0.0,,,,,,,55.0,,,,300,note_on,,100.0,55.0,100.0,83460,347.75
592,0.0,,,,,,,55.0,,,,60,note_on,,0.0,55.0,0.0,83520,348.0
593,0.0,,,,,,,67.0,,,,0,note_on,,100.0,67.0,100.0,83520,348.0
594,0.0,,,,,,,67.0,,,,113,note_on,,0.0,67.0,0.0,83633,348.4708333333333
595,0.0,,,,,,,67.0,,,,7,note_on,,100.0,67.0,100.0,83640,348.5
596,0.0,,,,,,,67.0,,,,60,note_on,,0.0,67.0,0.0,83700,348.75
597,0.0,,,,,,,67.0,,,,0,note_on,,100.0,67.0,100.0,83700,348.75
598,0.0,,,,,,,67.0,,,,113,note_on,,0.0,67.0,0.0,83813,349.2208333333333
599,0.0,,,,,,,67.0,,,,7,note_on,,100.0,67.0,100.0,83820,349.25
600,0.0,,,,,,,67.0,,,,60,note_on,,0.0,67.0,0.0,83880,349.5
601,0.0,,,,,,,69.0,,,,0,note_on,,100.0,69.0,100.0,83880,349.5
602,0.0,,,,,,,69.0,,,,113,note_on,,0.0,69.0,0.0,83993,349.9708333333333
603,0.0,,,,,,,69.0,,,,7,note_on,,100.0,69.0,100.0,84000,350.0
604,0.0,,,,,,,69.0,,,,60,note_on,,0.0,69.0,0.0,84060,350.25
605,0.0,,,,,,,71.0,,,,0,note_on,,100.0,71.0,100.0,84060,350.25
606,0.0,,,,,,,71.0,,,,113,note_on,,0.0,71.0,0.0,84173,350.7208333333333
607,0.0,,,,,,,67.0,,,,7,note_on,,100.0,67.0,100.0,84180,350.75
608,0.0,,,,,,,67.0,,,,60,note_on,,0.0,67.0,0.0,84240,351.0
609,0.0,,,,,,,72.0,,,,0,note_on,,100.0,72.0,100.0,84240,351.0
610,0.0,,,,,,,72.0,,,,60,note_on,,0.0,72.0,0.0,84300,351.25
611,0.0,,,,,,,72.0,,,,0,note_on,,100.0,72.0,100.0,84300,351.25
612,0.0,,,,,,,72.0,,,,60,note_on,,0.0,72.0,0.0,84360,351.5
613,0.0,,,,,,,72.0,,,,0,note_on,,100.0,72.0,100.0,84360,351.5
614,0.0,,,,,,,72.0,,,,177,note_on,,0.0,72.0,0.0,84537,352.2375
615,0.0,,,,,,,69.0,,,,3,note_on,,100.0,69.0,100.0,84540,352.25
616,0.0,,,,,,,69.0,,,,60,note_on,,0.0,69.0,0.0,84600,352.5
617,0.0,,,,,,,72.0,,,,0,note_on,,100.0,72.0,100.0,84600,352.5
618,0.0,,,,,,,72.0,,,,60,note_on,,0.0,72.0,0.0,84660,352.75
619,0.0,,,,,,,72.0,,,,0,note_on,,100.0,72.0,100.0,84660,352.75
620,0.0,,,,,,,72.0,,,,60,note_on,,0.0,72.0,0.0,84720,353.0
621,0.0,,,,,,,74.0,,,,0,note_on,,100.0,74.0,100.0,84720,353.0
622,0.0,,,,,,,74.0,,,,113,note_on,,0.0,74.0,0.0,84833,353.4708333333333
623,0.0,,,,,,,72.0,,,,67,note_on,,100.0,72.0,100.0,84900,353.75
624,0.0,,,,,,,72.0,,,,60,note_on,,0.0,72.0,0.0,84960,354.0
625,0.0,,,,,,,74.0,,,,0,note_on,,100.0,74.0,100.0,84960,354.0
626,0.0,,,,,,,74.0,,,,60,note_on,,0.0,74.0,0.0,85020,354.25
627,0.0,,,,,,,74.0,,,,0,note_on,,100.0,74.0,100.0,85020,354.25
628,0.0,,,,,,,74.0,,,,60,note_on,,0.0,74.0,0.0,85080,354.5
629,0.0,,,,,,,74.0,,,,0,note_on,,100.0,74.0,100.0,85080,354.5
630,0.0,,,,,,,74.0,,,,173,note_on,,0.0,74.0,0.0,85253,355.2208333333333
631,0.0,,,,,,,74.0,,,,7,note_on,,100.0,74.0,100.0,85260,355.25
632,0.0,,,,,,,74.0,,,,60,note_on,,0.0,74.0,0.0,85320,355.5
633,0.0,,,,,,,76.0,,,,0,note_on,,100.0,76.0,100.0,85320,355.5
634,0.0,,,,,,,76.0,,,,113,note_on,,0.0,76.0,0.0,85433,355.9708333333333
635,0.0,,,,,,,76.0,,,,7,note_on,,100.0,76.0,100.0,85440,356.0
636,0.0,,,,,,,76.0,,,,113,note_on,,0.0,76.0,0.0,85553,356.4708333333333
637,0.0,,,,,,,76.0,,,,7,note_on,,100.0,76.0,100.0,85560,356.5
638,0.0,,,,,,,76.0,,,,60,note_on,,0.0,76.0,0.0,85620,356.75
639,0.0,,,,,,,74.0,,,,0,note_on,,100.0,74.0,100.0,85620,356.75
640,0.0,,,,,,,74.0,,,,60,note_on,,0.0,74.0,0.0,85680,357.0
641,0.0,,,,,,,74.0,,,,0,note_on,,100.0,74.0,100.0,85680,357.0
642,0.0,,,,,,,74.0,,,,60,note_on,,0.0,74.0,0.0,85740,357.25
643,0.0,,,,,,,72.0,,,,0,note_on,,80.0,72.0,80.0,85740,357.25
644,0.0,,,,,,,72.0,,,,60,note_on,,0.0,72.0,0.0,85800,357.5
645,0.0,,,,,,,72.0,,,,0,note_on,,100.0,72.0,100.0,85800,357.5
646,0.0,,,,,,,72.0,,,,360,note_on,,0.0,72.0,0.0,86160,359.0
647,0.0,,,,,,,64.0,,,,60,note_on,,100.0,64.0,100.0,86220,359.25
648,0.0,,,,,,,64.0,,,,113,note_on,,0.0,64.0,0.0,86333,359.7208333333333
649,0.0,,,,,,,67.0,,,,7,note_on,,100.0,67.0,100.0,86340,359.75
650,0.0,,,,,,,67.0,,,,60,note_on,,0.0,67.0,0.0,86400,360.0
651,0.0,,,,,,,69.0,,,,0,note_on,,99.0,69.0,99.0,86400,360.0
652,0.0,,,,,,,69.0,,,,173,note_on,,0.0,69.0,0.0,86573,360.7208333333333
653,0.0,,,,,,,69.0,,,,7,note_on,,99.0,69.0,99.0,86580,360.75
654,0.0,,,,,,,69.0,,,,293,note_on,,0.0,69.0,0.0,86873,361.9708333333333
655,0.0,,,,,,,69.0,,,,67,note_on,,100.0,69.0,100.0,86940,362.25
656,0.0,,,,,,,69.0,,,,113,note_on,,0.0,69.0,0.0,87053,362.7208333333333
657,0.0,,,,,,,67.0,,,,7,note_on,,100.0,67.0,100.0,87060,362.75
658,0.0,,,,,,,67.0,,,,60,note_on,,0.0,67.0,0.0,87120,363.0
659,0.0,,,,,,,64.0,,,,0,note_on,,99.0,64.0,99.0,87120,363.0
660,0.0,,,,,,,64.0,,,,173,note_on,,0.0,64.0,0.0,87293,363.7208333333333
661,0.0,,,,,,,64.0,,,,7,note_on,,99.0,64.0,99.0,87300,363.75
662,0.0,,,,,,,64.0,,,,293,note_on,,0.0,64.0,0.0,87593,364.9708333333333
663,0.0,,,,,,,64.0,,,,67,note_on,,100.0,64.0,100.0,87660,365.25
664,0.0,,,,,,,64.0,,,,113,note_on,,0.0,64.0,0.0,87773,365.7208333333333
665,0.0,,,,,,,67.0,,,,7,note_on,,100.0,67.0,100.0,87780,365.75
666,0.0,,,,,,,67.0,,,,60,note_on,,0.0,67.0,0.0,87840,366.0
667,0.0,,,,,,,69.0,,,,0,note_on,,99.0,69.0,99.0,87840,366.0
668,0.0,,,,,,,69.0,,,,173,note_on,,0.0,69.0,0.0,88013,366.7208333333333
669,0.0,,,,,,,69.0,,,,7,note_on,,99.0,69.0,99.0,88020,366.75
670,0.0,,,,,,,69.0,,,,293,note_on,,0.0,69.0,0.0,88313,367.9708333333333
671,0.0,,,,,,,69.0,,,,67,note_on,,100.0,69.0,100.0,88380,368.25
672,0.0,,,,,,,69.0,,,,113,note_on,,0.0,69.0,0.0,88493,368.7208333333333
673,0.0,,,,,,,67.0,,,,7,note_on,,100.0,67.0,100.0,88500,368.75
674,0.0,,,,,,,67.0,,,,60,note_on,,0.0,67.0,0.0,88560,369.0
675,0.0,,,,,,,64.0,,,,0,note_on,,100.0,64.0,100.0,88560,369.0
676,0.0,,,,,,,64.0,,,,237,note_on,,0.0,64.0,0.0,88797,369.9875
677,0.0,,,,,,,65.0,,,,3,note_on,,100.0,65.0,100.0,88800,370.0
678,0.0,,,,,,,65.0,,,,60,note_on,,0.0,65.0,0.0,88860,370.25
679,0.0,,,,,,,64.0,,,,0,note_on,,100.0,64.0,100.0,88860,370.25
680,0.0,,,,,,,64.0,,,,60,note_on,,0.0,64.0,0.0,88920,370.5
681,0.0,,,,,,,62.0,,,,0,note_on,,100.0,62.0,100.0,88920,370.5
682,0.0,,,,,,,62.0,,,,293,note_on,,0.0,62.0,0.0,89213,371.7208333333333
683,0.0,,,,,,,60.0,,,,7,note_on,,100.0,60.0,100.0,89220,371.75
684,0.0,,,,,,,60.0,,,,60,note_on,,0.0,60.0,0.0,89280,372.0
685,0.0,,,,,,,60.0,,,,0,note_on,,100.0,60.0,100.0,89280,372.0
686,0.0,,,,,,,60.0,,,,360,note_on,,0.0,60.0,0.0,89640,373.5
687,0.0,,,,,,,55.0,,,,660,note_on,,100.0,55.0,100.0,90300,376.25
688,0.0,,,,,,,55.0,,,,60,note_on,,0.0,55.0,0.0,90360,376.5
689,0.0,,,,,,,67.0,,,,0,note_on,,100.0,67.0,100.0,90360,376.5
690,0.0,,,,,,,67.0,,,,120,note_on,,0.0,67.0,0.0,90480,377.0
691,0.0,,,,,,,67.0,,,,0,note_on,,100.0,67.0,100.0,90480,377.0
692,0.0,,,,,,,67.0,,,,60,note_on,,0.0,67.0,0.0,90540,377.25
693,0.0,,,,,,,67.0,,,,0,note_on,,100.0,67.0,100.0,90540,377.25
694,0.0,,,,,,,67.0,,,,120,note_on,,0.0,67.0,0.0,90660,377.75
695,0.0,,,,,,,67.0,,,,0,note_on,,100.0,67.0,100.0,90660,377.75
696,0.0,,,,,,,67.0,,,,60,note_on,,0.0,67.0,0.0,90720,378.0
697,0.0,,,,,,,69.0,,,,0,note_on,,100.0,69.0,100.0,90720,378.0
698,0.0,,,,,,,69.0,,,,60,note_on,,0.0,69.0,0.0,90780,378.25
699,0.0,,,,,,,69.0,,,,0,note_on,,100.0,69.0,100.0,90780,378.25
700,0.0,,,,,,,69.0,,,,60,note_on,,0.0,69.0,0.0,90840,378.5
701,0.0,,,,,,,69.0,,,,0,note_on,,100.0,69.0,100.0,90840,378.5
702,0.0,,,,,,,69.0,,,,120,note_on,,0.0,69.0,0.0,90960,379.0
703,0.0,,,,,,,64.0,,,,60,note_on,,100.0,64.0,100.0,91020,379.25
704,0.0,,,,,,,64.0,,,,60,note_on,,0.0,64.0,0.0,91080,379.5
705,0.0,,,,,,,67.0,,,,0,note_on,,100.0,67.0,100.0,91080,379.5
706,0.0,,,,,,,67.0,,,,60,note_on,,0.0,67.0,0.0,91140,379.75
707,0.0,,,,,,,67.0,,,,0,note_on,,100.0,67.0,100.0,91140,379.75
708,0.0,,,,,,,67.0,,,,60,note_on,,0.0,67.0,0.0,91200,380.0
709,0.0,,,,,,,67.0,,,,0,note_on,,100.0,67.0,100.0,91200,380.0
710,0.0,,,,,,,67.0,,,,113,note_on,,0.0,67.0,0.0,91313,380.4708333333333
711,0.0,,,,,,,67.0,,,,7,note_on,,100.0,67.0,100.0,91320,380.5
712,0.0,,,,,,,67.0,,,,60,note_on,,0.0,67.0,0.0,91380,380.75
713,0.0,,,,,,,67.0,,,,0,note_on,,100.0,67.0,100.0,91380,380.75
714,0.0,,,,,,,67.0,,,,60,note_on,,0.0,67.0,0.0,91440,381.0
715,0.0,,,,,,,69.0,,,,0,note_on,,100.0,69.0,100.0,91440,381.0
716,0.0,,,,,,,69.0,,,,113,note_on,,0.0,69.0,0.0,91553,381.4708333333333
717,0.0,,,,,,,69.0,,,,7,note_on,,100.0,69.0,100.0,91560,381.5
718,0.0,,,,,,,69.0,,,,60,note_on,,0.0,69.0,0.0,91620,381.75
719,0.0,,,,,,,69.0,,,,0,note_on,,100.0,69.0,100.0,91620,381.75
720,0.0,,,,,,,69.0,,,,60,note_on,,0.0,69.0,0.0,91680,382.0
721,0.0,,,,,,,67.0,,,,0,note_on,,80.0,67.0,80.0,91680,382.0
722,0.0,,,,,,,67.0,,,,60,note_on,,0.0,67.0,0.0,91740,382.25
723,0.0,,,,,,,67.0,,,,0,note_on,,100.0,67.0,100.0,91740,382.25
724,0.0,,,,,,,67.0,,,,60,note_on,,0.0,67.0,0.0,91800,382.5
725,0.0,,,,,,,69.0,,,,0,note_on,,100.0,69.0,100.0,91800,382.5
726,0.0,,,,,,,69.0,,,,60,note_on,,0.0,69.0,0.0,91860,382.75
727,0.0,,,,,,,69.0,,,,0,note_on,,100.0,69.0,100.0,91860,382.75
728,0.0,,,,,,,69.0,,,,180,note_on,,0.0,69.0,0.0,92040,383.5
729,0.0,,,,,,,69.0,,,,0,note_on,,100.0,69.0,100.0,92040,383.5
730,0.0,,,,,,,69.0,,,,60,note_on,,0.0,69.0,0.0,92100,383.75
731,0.0,,,,,,,69.0,,,,0,note_on,,100.0,69.0,100.0,92100,383.75
732,0.0,,,,,,,69.0,,,,60,note_on,,0.0,69.0,0.0,92160,384.0
733,0.0,,,,,,,69.0,,,,0,note_on,,100.0,69.0,100.0,92160,384.0
734,0.0,,,,,,,69.0,,,,113,note_on,,0.0,69.0,0.0,92273,384.4708333333333
735,0.0,,,,,,,67.0,,,,7,note_on,,100.0,67.0,100.0,92280,384.5
736,0.0,,,,,,,67.0,,,,60,note_on,,0.0,67.0,0.0,92340,384.75
737,0.0,,,,,,,67.0,,,,0,note_on,,100.0,67.0,100.0,92340,384.75
738,0.0,,,,,,,67.0,,,,60,note_on,,0.0,67.0,0.0,92400,385.0
739,0.0,,,,,,,65.0,,,,0,note_on,,100.0,65.0,100.0,92400,385.0
740,0.0,,,,,,,65.0,,,,60,note_on,,0.0,65.0,0.0,92460,385.25
741,0.0,,,,,,,67.0,,,,0,note_on,,80.0,67.0,80.0,92460,385.25
742,0.0,,,,,,,67.0,,,,60,note_on,,0.0,67.0,0.0,92520,385.5
743,0.0,,,,,,,67.0,,,,0,note_on,,100.0,67.0,100.0,92520,385.5
744,0.0,,,,,,,67.0,,,,60,note_on,,0.0,67.0,0.0,92580,385.75
745,0.0,,,,,,,67.0,,,,0,note_on,,100.0,67.0,100.0,92580,385.75
746,0.0,,,,,,,67.0,,,,300,note_on,,0.0,67.0,0.0,92880,387.0
747,0.0,,,,,,,55.0,,,,300,note_on,,100.0,55.0,100.0,93180,388.25
748,0.0,,,,,,,55.0,,,,60,note_on,,0.0,55.0,0.0,93240,388.5
749,0.0,,,,,,,67.0,,,,0,note_on,,100.0,67.0,100.0,93240,388.5
750,0.0,,,,,,,67.0,,,,113,note_on,,0.0,67.0,0.0,93353,388.9708333333333
751,0.0,,,,,,,67.0,,,,7,note_on,,100.0,67.0,100.0,93360,389.0
752,0.0,,,,,,,67.0,,,,60,note_on,,0.0,67.0,0.0,93420,389.25
753,0.0,,,,,,,67.0,,,,0,note_on,,100.0,67.0,100.0,93420,389.25
754,0.0,,,,,,,67.0,,,,113,note_on,,0.0,67.0,0.0,93533,389.7208333333333
755,0.0,,,,,,,67.0,,,,7,note_on,,100.0,67.0,100.0,93540,389.75
756,0.0,,,,,,,67.0,,,,60,note_on,,0.0,67.0,0.0,93600,390.0
757,0.0,,,,,,,69.0,,,,0,note_on,,100.0,69.0,100.0,93600,390.0
758,0.0,,,,,,,69.0,,,,113,note_on,,0.0,69.0,0.0,93713,390.4708333333333
759,0.0,,,,,,,69.0,,,,7,note_on,,100.0,69.0,100.0,93720,390.5
760,0.0,,,,,,,69.0,,,,60,note_on,,0.0,69.0,0.0,93780,390.75
761,0.0,,,,,,,71.0,,,,0,note_on,,100.0,71.0,100.0,93780,390.75
762,0.0,,,,,,,71.0,,,,113,note_on,,0.0,71.0,0.0,93893,391.2208333333333
763,0.0,,,,,,,67.0,,,,7,note_on,,100.0,67.0,100.0,93900,391.25
764,0.0,,,,,,,67.0,,,,60,note_on,,0.0,67.0,0.0,93960,391.5
765,0.0,,,,,,,72.0,,,,0,note_on,,100.0,72.0,100.0,93960,391.5
766,0.0,,,,,,,72.0,,,,60,note_on,,0.0,72.0,0.0,94020,391.75
767,0.0,,,,,,,72.0,,,,0,note_on,,100.0,72.0,100.0,94020,391.75
768,0.0,,,,,,,72.0,,,,60,note_on,,0.0,72.0,0.0,94080,392.0
769,0.0,,,,,,,72.0,,,,0,note_on,,100.0,72.0,100.0,94080,392.0
770,0.0,,,,,,,72.0,,,,177,note_on,,0.0,72.0,0.0,94257,392.7375
771,0.0,,,,,,,69.0,,,,3,note_on,,100.0,69.0,100.0,94260,392.75
772,0.0,,,,,,,69.0,,,,60,note_on,,0.0,69.0,0.0,94320,393.0
773,0.0,,,,,,,72.0,,,,0,note_on,,100.0,72.0,100.0,94320,393.0
774,0.0,,,,,,,72.0,,,,60,note_on,,0.0,72.0,0.0,94380,393.25
775,0.0,,,,,,,72.0,,,,0,note_on,,100.0,72.0,100.0,94380,393.25
776,0.0,,,,,,,72.0,,,,60,note_on,,0.0,72.0,0.0,94440,393.5
777,0.0,,,,,,,74.0,,,,0,note_on,,100.0,74.0,100.0,94440,393.5
778,0.0,,,,,,,74.0,,,,113,note_on,,0.0,74.0,0.0,94553,393.9708333333333
779,0.0,,,,,,,72.0,,,,67,note_on,,100.0,72.0,100.0,94620,394.25
780,0.0,,,,,,,72.0,,,,60,note_on,,0.0,72.0,0.0,94680,394.5
781,0.0,,,,,,,74.0,,,,0,note_on,,100.0,74.0,100.0,94680,394.5
782,0.0,,,,,,,74.0,,,,60,note_on,,0.0,74.0,0.0,94740,394.75
783,0.0,,,,,,,74.0,,,,0,note_on,,100.0,74.0,100.0,94740,394.75
784,0.0,,,,,,,74.0,,,,60,note_on,,0.0,74.0,0.0,94800,395.0
785,0.0,,,,,,,74.0,,,,0,note_on,,100.0,74.0,100.0,94800,395.0
786,0.0,,,,,,,74.0,,,,173,note_on,,0.0,74.0,0.0,94973,395.7208333333333
787,0.0,,,,,,,74.0,,,,7,note_on,,100.0,74.0,100.0,94980,395.75
788,0.0,,,,,,,74.0,,,,60,note_on,,0.0,74.0,0.0,95040,396.0
789,0.0,,,,,,,76.0,,,,0,note_on,,100.0,76.0,100.0,95040,396.0
790,0.0,,,,,,,76.0,,,,113,note_on,,0.0,76.0,0.0,95153,396.4708333333333
791,0.0,,,,,,,76.0,,,,7,note_on,,100.0,76.0,100.0,95160,396.5
792,0.0,,,,,,,76.0,,,,113,note_on,,0.0,76.0,0.0,95273,396.9708333333333
793,0.0,,,,,,,76.0,,,,7,note_on,,100.0,76.0,100.0,95280,397.0
794,0.0,,,,,,,76.0,,,,60,note_on,,0.0,76.0,0.0,95340,397.25
795,0.0,,,,,,,74.0,,,,0,note_on,,100.0,74.0,100.0,95340,397.25
796,0.0,,,,,,,74.0,,,,60,note_on,,0.0,74.0,0.0,95400,397.5
797,0.0,,,,,,,74.0,,,,0,note_on,,100.0,74.0,100.0,95400,397.5
798,0.0,,,,,,,74.0,,,,60,note_on,,0.0,74.0,0.0,95460,397.75
799,0.0,,,,,,,72.0,,,,0,note_on,,80.0,72.0,80.0,95460,397.75
800,0.0,,,,,,,72.0,,,,60,note_on,,0.0,72.0,0.0,95520,398.0
801,0.0,,,,,,,72.0,,,,0,note_on,,100.0,72.0,100.0,95520,398.0
802,0.0,,,,,,,72.0,,,,360,note_on,,0.0,72.0,0.0,95880,399.5
803,0.0,,,,,,,64.0,,,,60,note_on,,100.0,64.0,100.0,95940,399.75
804,0.0,,,,,,,64.0,,,,113,note_on,,0.0,64.0,0.0,96053,400.2208333333333
805,0.0,,,,,,,67.0,,,,7,note_on,,100.0,67.0,100.0,96060,400.25
806,0.0,,,,,,,67.0,,,,60,note_on,,0.0,67.0,0.0,96120,400.5
807,0.0,,,,,,,69.0,,,,0,note_on,,99.0,69.0,99.0,96120,400.5
808,0.0,,,,,,,69.0,,,,173,note_on,,0.0,69.0,0.0,96293,401.2208333333333
809,0.0,,,,,,,69.0,,,,7,note_on,,99.0,69.0,99.0,96300,401.25
810,0.0,,,,,,,69.0,,,,293,note_on,,0.0,69.0,0.0,96593,402.4708333333333
811,0.0,,,,,,,69.0,,,,67,note_on,,100.0,69.0,100.0,96660,402.75
812,0.0,,,,,,,69.0,,,,113,note_on,,0.0,69.0,0.0,96773,403.2208333333333
813,0.0,,,,,,,67.0,,,,7,note_on,,100.0,67.0,100.0,96780,403.25
814,0.0,,,,,,,67.0,,,,60,note_on,,0.0,67.0,0.0,96840,403.5
815,0.0,,,,,,,64.0,,,,0,note_on,,99.0,64.0,99.0,96840,403.5
816,0.0,,,,,,,64.0,,,,173,note_on,,0.0,64.0,0.0,97013,404.2208333333333
817,0.0,,,,,,,64.0,,,,7,note_on,,99.0,64.0,99.0,97020,404.25
818,0.0,,,,,,,64.0,,,,293,note_on,,0.0,64.0,0.0,97313,405.4708333333333
819,0.0,,,,,,,64.0,,,,67,note_on,,100.0,64.0,100.0,97380,405.75
820,0.0,,,,,,,64.0,,,,113,note_on,,0.0,64.0,0.0,97493,406.2208333333333
821,0.0,,,,,,,67.0,,,,7,note_on,,100.0,67.0,100.0,97500,406.25
822,0.0,,,,,,,67.0,,,,60,note_on,,0.0,67.0,0.0,97560,406.5
823,0.0,,,,,,,69.0,,,,0,note_on,,99.0,69.0,99.0,97560,406.5
824,0.0,,,,,,,69.0,,,,173,note_on,,0.0,69.0,0.0,97733,407.2208333333333
825,0.0,,,,,,,69.0,,,,7,note_on,,99.0,69.0,99.0,97740,407.25
826,0.0,,,,,,,69.0,,,,293,note_on,,0.0,69.0,0.0,98033,408.4708333333333
827,0.0,,,,,,,69.0,,,,67,note_on,,100.0,69.0,100.0,98100,408.75
828,0.0,,,,,,,69.0,,,,113,note_on,,0.0,69.0,0.0,98213,409.2208333333333
829,0.0,,,,,,,67.0,,,,7,note_on,,100.0,67.0,100.0,98220,409.25
830,0.0,,,,,,,67.0,,,,60,note_on,,0.0,67.0,0.0,98280,409.5
831,0.0,,,,,,,64.0,,,,0,note_on,,100.0,64.0,100.0,98280,409.5
832,0.0,,,,,,,64.0,,,,237,note_on,,0.0,64.0,0.0,98517,410.4875
833,0.0,,,,,,,65.0,,,,3,note_on,,100.0,65.0,100.0,98520,410.5
834,0.0,,,,,,,65.0,,,,60,note_on,,0.0,65.0,0.0,98580,410.75
835,0.0,,,,,,,64.0,,,,0,note_on,,100.0,64.0,100.0,98580,410.75
836,0.0,,,,,,,64.0,,,,60,note_on,,0.0,64.0,0.0,98640,411.0
837,0.0,,,,,,,62.0,,,,0,note_on,,100.0,62.0,100.0,98640,411.0
838,0.0,,,,,,,62.0,,,,293,note_on,,0.0,62.0,0.0,98933,412.2208333333333
839,0.0,,,,,,,60.0,,,,7,note_on,,100.0,60.0,100.0,98940,412.25
840,0.0,,,,,,,60.0,,,,60,note_on,,0.0,60.0,0.0,99000,412.5
841,0.0,,,,,,,60.0,,,,0,note_on,,100.0,60.0,100.0,99000,412.5
842,0.0,,,,,,,60.0,,,,360,note_on,,0.0,60.0,0.0,99360,414.0
843,,,,,,,,,,,,0,end_of_track,,,,,99360,414.0
844,1.0,,,,,,,,,0.0,,0,program_change,,,,,99360,414.0
845,1.0,,7.0,,,,,,,,,0,control_change,100.0,,,,99360,414.0
846,1.0,,,,,,,64.0,,,,0,note_on,,70.0,64.0,70.0,99360,414.0
847,1.0,,,,,,,55.0,,,,60,note_on,,70.0,55.0,70.0,99420,414.25
848,1.0,,,,,,,55.0,,,,60,note_on,,0.0,55.0,0.0,99480,414.5
849,1.0,,,,,,,60.0,,,,0,note_on,,70.0,60.0,70.0,99480,414.5
850,1.0,,,,,,,60.0,,,,60,note_on,,0.0,60.0,0.0,99540,414.75
851,1.0,,,,,,,64.0,,,,0,note_on,,0.0,64.0,0.0,99540,414.75
852,1.0,,,,,,,55.0,,,,0,note_on,,70.0,55.0,70.0,99540,414.75
853,1.0,,,,,,,67.0,,,,0,note_on,,70.0,67.0,70.0,99540,414.75
854,1.0,,,,,,,64.0,,,,60,note_on,,70.0,64.0,70.0,99600,415.0
855,1.0,,,,,,,64.0,,,,60,note_on,,0.0,64.0,0.0,99660,415.25
856,1.0,,,,,,,60.0,,,,0,note_on,,70.0,60.0,70.0,99660,415.25
857,1.0,,,,,,,60.0,,,,60,note_on,,0.0,60.0,0.0,99720,415.5
858,1.0,,,,,,,67.0,,,,0,note_on,,0.0,67.0,0.0,99720,415.5
859,1.0,,,,,,,55.0,,,,0,note_on,,0.0,55.0,0.0,99720,415.5
860,1.0,,,,,,,64.0,,,,0,note_on,,70.0,64.0,70.0,99720,415.5
861,1.0,,,,,,,57.0,,,,60,note_on,,70.0,57.0,70.0,99780,415.75
862,1.0,,,,,,,57.0,,,,60,note_on,,0.0,57.0,0.0,99840,416.0
863,1.0,,,,,,,60.0,,,,0,note_on,,70.0,60.0,70.0,99840,416.0
864,1.0,,,,,,,60.0,,,,60,note_on,,0.0,60.0,0.0,99900,416.25
865,1.0,,,,,,,64.0,,,,0,note_on,,0.0,64.0,0.0,99900,416.25
866,1.0,,,,,,,57.0,,,,0,note_on,,70.0,57.0,70.0,99900,416.25
867,1.0,,,,,,,69.0,,,,0,note_on,,70.0,69.0,70.0,99900,416.25
868,1.0,,,,,,,64.0,,,,60,note_on,,70.0,64.0,70.0,99960,416.5
869,1.0,,,,,,,64.0,,,,60,note_on,,0.0,64.0,0.0,100020,416.75
870,1.0,,,,,,,60.0,,,,0,note_on,,70.0,60.0,70.0,100020,416.75
871,1.0,,,,,,,60.0,,,,60,note_on,,0.0,60.0,0.0,100080,417.0
872,1.0,,,,,,,69.0,,,,0,note_on,,0.0,69.0,0.0,100080,417.0
873,1.0,,,,,,,57.0,,,,0,note_on,,0.0,57.0,0.0,100080,417.0
874,1.0,,,,,,,64.0,,,,0,note_on,,70.0,64.0,70.0,100080,417.0
875,1.0,,,,,,,55.0,,,,60,note_on,,70.0,55.0,70.0,100140,417.25
876,1.0,,,,,,,55.0,,,,60,note_on,,0.0,55.0,0.0,100200,417.5
877,1.0,,,,,,,60.0,,,,0,note_on,,70.0,60.0,70.0,100200,417.5
878,1.0,,,,,,,60.0,,,,60,note_on,,0.0,60.0,0.0,100260,417.75
879,1.0,,,,,,,64.0,,,,0,note_on,,0.0,64.0,0.0,100260,417.75
880,1.0,,,,,,,55.0,,,,0,note_on,,70.0,55.0,70.0,100260,417.75
881,1.0,,,,,,,67.0,,,,0,note_on,,70.0,67.0,70.0,100260,417.75
882,1.0,,,,,,,64.0,,,,60,note_on,,70.0,64.0,70.0,100320,418.0
883,1.0,,,,,,,64.0,,,,60,note_on,,0.0,64.0,0.0,100380,418.25
884,1.0,,,,,,,60.0,,,,0,note_on,,70.0,60.0,70.0,100380,418.25
885,1.0,,,,,,,60.0,,,,60,note_on,,0.0,60.0,0.0,100440,418.5
886,1.0,,,,,,,67.0,,,,0,note_on,,0.0,67.0,0.0,100440,418.5
887,1.0,,,,,,,55.0,,,,0,note_on,,0.0,55.0,0.0,100440,418.5
888,1.0,,,,,,,64.0,,,,0,note_on,,70.0,64.0,70.0,100440,418.5
889,1.0,,,,,,,57.0,,,,60,note_on,,70.0,57.0,70.0,100500,418.75
890,1.0,,,,,,,57.0,,,,60,note_on,,0.0,57.0,0.0,100560,419.0
891,1.0,,,,,,,60.0,,,,0,note_on,,70.0,60.0,70.0,100560,419.0
892,1.0,,,,,,,60.0,,,,60,note_on,,0.0,60.0,0.0,100620,419.25
893,1.0,,,,,,,64.0,,,,0,note_on,,0.0,64.0,0.0,100620,419.25
894,1.0,,,,,,,57.0,,,,0,note_on,,70.0,57.0,70.0,100620,419.25
895,1.0,,,,,,,69.0,,,,0,note_on,,70.0,69.0,70.0,100620,419.25
896,1.0,,,,,,,64.0,,,,60,note_on,,70.0,64.0,70.0,100680,419.5
897,1.0,,,,,,,64.0,,,,60,note_on,,0.0,64.0,0.0,100740,419.75
898,1.0,,,,,,,60.0,,,,0,note_on,,70.0,60.0,70.0,100740,419.75
899,1.0,,,,,,,60.0,,,,60,note_on,,0.0,60.0,0.0,100800,420.0
900,1.0,,,,,,,69.0,,,,0,note_on,,0.0,69.0,0.0,100800,420.0
901,1.0,,,,,,,57.0,,,,0,note_on,,0.0,57.0,0.0,100800,420.0
902,1.0,,,,,,,64.0,,,,0,note_on,,70.0,64.0,70.0,100800,420.0
903,1.0,,,,,,,55.0,,,,60,note_on,,70.0,55.0,70.0,100860,420.25
904,1.0,,,,,,,55.0,,,,60,note_on,,0.0,55.0,0.0,100920,420.5
905,1.0,,,,,,,60.0,,,,0,note_on,,70.0,60.0,70.0,100920,420.5
906,1.0,,,,,,,60.0,,,,60,note_on,,0.0,60.0,0.0,100980,420.75
907,1.0,,,,,,,64.0,,,,0,note_on,,0.0,64.0,0.0,100980,420.75
908,1.0,,,,,,,55.0,,,,0,note_on,,70.0,55.0,70.0,100980,420.75
909,1.0,,,,,,,67.0,,,,0,note_on,,70.0,67.0,70.0,100980,420.75
910,1.0,,,,,,,64.0,,,,60,note_on,,70.0,64.0,70.0,101040,421.0
911,1.0,,,,,,,64.0,,,,60,note_on,,0.0,64.0,0.0,101100,421.25
912,1.0,,,,,,,60.0,,,,0,note_on,,70.0,60.0,70.0,101100,421.25
913,1.0,,,,,,,60.0,,,,60,note_on,,0.0,60.0,0.0,101160,421.5
914,1.0,,,,,,,67.0,,,,0,note_on,,0.0,67.0,0.0,101160,421.5
915,1.0,,,,,,,55.0,,,,0,note_on,,0.0,55.0,0.0,101160,421.5
916,1.0,,,,,,,64.0,,,,0,note_on,,70.0,64.0,70.0,101160,421.5
917,1.0,,,,,,,57.0,,,,60,note_on,,70.0,57.0,70.0,101220,421.75
918,1.0,,,,,,,57.0,,,,60,note_on,,0.0,57.0,0.0,101280,422.0
919,1.0,,,,,,,60.0,,,,0,note_on,,70.0,60.0,70.0,101280,422.0
920,1.0,,,,,,,60.0,,,,60,note_on,,0.0,60.0,0.0,101340,422.25
921,1.0,,,,,,,64.0,,,,0,note_on,,0.0,64.0,0.0,101340,422.25
922,1.0,,,,,,,57.0,,,,0,note_on,,70.0,57.0,70.0,101340,422.25
923,1.0,,,,,,,69.0,,,,0,note_on,,70.0,69.0,70.0,101340,422.25
924,1.0,,,,,,,64.0,,,,60,note_on,,70.0,64.0,70.0,101400,422.5
925,1.0,,,,,,,64.0,,,,60,note_on,,0.0,64.0,0.0,101460,422.75
926,1.0,,,,,,,60.0,,,,0,note_on,,70.0,60.0,70.0,101460,422.75
927,1.0,,,,,,,60.0,,,,60,note_on,,0.0,60.0,0.0,101520,423.0
928,1.0,,,,,,,69.0,,,,0,note_on,,0.0,69.0,0.0,101520,423.0
929,1.0,,,,,,,57.0,,,,0,note_on,,0.0,57.0,0.0,101520,423.0
930,1.0,,,,,,,64.0,,,,0,note_on,,70.0,64.0,70.0,101520,423.0
931,1.0,,,,,,,55.0,,,,60,note_on,,70.0,55.0,70.0,101580,423.25
932,1.0,,,,,,,55.0,,,,60,note_on,,0.0,55.0,0.0,101640,423.5
933,1.0,,,,,,,60.0,,,,0,note_on,,70.0,60.0,70.0,101640,423.5
934,1.0,,,,,,,60.0,,,,60,note_on,,0.0,60.0,0.0,101700,423.75
935,1.0,,,,,,,64.0,,,,0,note_on,,0.0,64.0,0.0,101700,423.75
936,1.0,,,,,,,55.0,,,,0,note_on,,70.0,55.0,70.0,101700,423.75
937,1.0,,,,,,,67.0,,,,0,note_on,,70.0,67.0,70.0,101700,423.75
938,1.0,,,,,,,64.0,,,,60,note_on,,70.0,64.0,70.0,101760,424.0
939,1.0,,,,,,,64.0,,,,60,note_on,,0.0,64.0,0.0,101820,424.25
940,1.0,,,,,,,60.0,,,,0,note_on,,70.0,60.0,70.0,101820,424.25
941,1.0,,,,,,,60.0,,,,60,note_on,,0.0,60.0,0.0,101880,424.5
942,1.0,,,,,,,67.0,,,,0,note_on,,0.0,67.0,0.0,101880,424.5
943,1.0,,,,,,,55.0,,,,0,note_on,,0.0,55.0,0.0,101880,424.5
944,1.0,,,,,,,64.0,,,,0,note_on,,70.0,64.0,70.0,101880,424.5
945,1.0,,,,,,,57.0,,,,60,note_on,,70.0,57.0,70.0,101940,424.75
946,1.0,,,,,,,57.0,,,,60,note_on,,0.0,57.0,0.0,102000,425.0
947,1.0,,,,,,,60.0,,,,0,note_on,,70.0,60.0,70.0,102000,425.0
948,1.0,,,,,,,60.0,,,,60,note_on,,0.0,60.0,0.0,102060,425.25
949,1.0,,,,,,,64.0,,,,0,note_on,,0.0,64.0,0.0,102060,425.25
950,1.0,,,,,,,57.0,,,,0,note_on,,70.0,57.0,70.0,102060,425.25
951,1.0,,,,,,,69.0,,,,0,note_on,,70.0,69.0,70.0,102060,425.25
952,1.0,,,,,,,64.0,,,,60,note_on,,70.0,64.0,70.0,102120,425.5
953,1.0,,,,,,,64.0,,,,60,note_on,,0.0,64.0,0.0,102180,425.75
954,1.0,,,,,,,60.0,,,,0,note_on,,70.0,60.0,70.0,102180,425.75
955,1.0,,,,,,,60.0,,,,60,note_on,,0.0,60.0,0.0,102240,426.0
956,1.0,,,,,,,69.0,,,,0,note_on,,0.0,69.0,0.0,102240,426.0
957,1.0,,,,,,,57.0,,,,0,note_on,,0.0,57.0,0.0,102240,426.0
958,1.0,,,,,,,65.0,,,,0,note_on,,70.0,65.0,70.0,102240,426.0
959,1.0,,,,,,,57.0,,,,60,note_on,,70.0,57.0,70.0,102300,426.25
960,1.0,,,,,,,57.0,,,,60,note_on,,0.0,57.0,0.0,102360,426.5
961,1.0,,,,,,,60.0,,,,0,note_on,,70.0,60.0,70.0,102360,426.5
962,1.0,,,,,,,60.0,,,,60,note_on,,0.0,60.0,0.0,102420,426.75
963,1.0,,,,,,,65.0,,,,0,note_on,,0.0,65.0,0.0,102420,426.75
964,1.0,,,,,,,57.0,,,,0,note_on,,70.0,57.0,70.0,102420,426.75
965,1.0,,,,,,,69.0,,,,0,note_on,,70.0,69.0,70.0,102420,426.75
966,1.0,,,,,,,65.0,,,,60,note_on,,70.0,65.0,70.0,102480,427.0
967,1.0,,,,,,,65.0,,,,60,note_on,,0.0,65.0,0.0,102540,427.25
968,1.0,,,,,,,60.0,,,,0,note_on,,70.0,60.0,70.0,102540,427.25
969,1.0,,,,,,,60.0,,,,60,note_on,,0.0,60.0,0.0,102600,427.5
970,1.0,,,,,,,69.0,,,,0,note_on,,0.0,69.0,0.0,102600,427.5
971,1.0,,,,,,,57.0,,,,0,note_on,,0.0,57.0,0.0,102600,427.5
972,1.0,,,,,,,67.0,,,,0,note_on,,70.0,67.0,70.0,102600,427.5
973,1.0,,,,,,,59.0,,,,60,note_on,,70.0,59.0,70.0,102660,427.75
974,1.0,,,,,,,59.0,,,,60,note_on,,0.0,59.0,0.0,102720,428.0
975,1.0,,,,,,,62.0,,,,0,note_on,,70.0,62.0,70.0,102720,428.0
976,1.0,,,,,,,62.0,,,,60,note_on,,0.0,62.0,0.0,102780,428.25
977,1.0,,,,,,,67.0,,,,0,note_on,,0.0,67.0,0.0,102780,428.25
978,1.0,,,,,,,59.0,,,,0,note_on,,70.0,59.0,70.0,102780,428.25
979,1.0,,,,,,,71.0,,,,0,note_on,,70.0,71.0,70.0,102780,428.25
980,1.0,,,,,,,67.0,,,,60,note_on,,70.0,67.0,70.0,102840,428.5
981,1.0,,,,,,,67.0,,,,60,note_on,,0.0,67.0,0.0,102900,428.75
982,1.0,,,,,,,62.0,,,,0,note_on,,70.0,62.0,70.0,102900,428.75
983,1.0,,,,,,,62.0,,,,60,note_on,,0.0,62.0,0.0,102960,429.0
984,1.0,,,,,,,71.0,,,,0,note_on,,0.0,71.0,0.0,102960,429.0
985,1.0,,,,,,,59.0,,,,0,note_on,,0.0,59.0,0.0,102960,429.0
986,1.0,,,,,,,64.0,,,,0,note_on,,70.0,64.0,70.0,102960,429.0
987,1.0,,,,,,,55.0,,,,60,note_on,,70.0,55.0,70.0,103020,429.25
988,1.0,,,,,,,55.0,,,,60,note_on,,0.0,55.0,0.0,103080,429.5
989,1.0,,,,,,,60.0,,,,0,note_on,,70.0,60.0,70.0,103080,429.5
990,1.0,,,,,,,60.0,,,,60,note_on,,0.0,60.0,0.0,103140,429.75
991,1.0,,,,,,,64.0,,,,0,note_on,,0.0,64.0,0.0,103140,429.75
992,1.0,,,,,,,55.0,,,,0,note_on,,70.0,55.0,70.0,103140,429.75
993,1.0,,,,,,,67.0,,,,0,note_on,,70.0,67.0,70.0,103140,429.75
994,1.0,,,,,,,64.0,,,,60,note_on,,70.0,64.0,70.0,103200,430.0
995,1.0,,,,,,,64.0,,,,60,note_on,,0.0,64.0,0.0,103260,430.25
996,1.0,,,,,,,60.0,,,,0,note_on,,70.0,60.0,70.0,103260,430.25
997,1.0,,,,,,,60.0,,,,60,note_on,,0.0,60.0,0.0,103320,430.5
998,1.0,,,,,,,67.0,,,,0,note_on,,0.0,67.0,0.0,103320,430.5
999,1.0,,,,,,,55.0,,,,0,note_on,,0.0,55.0,0.0,103320,430.5
1000,1.0,,,,,,,62.0,,,,0,note_on,,70.0,62.0,70.0,103320,430.5
1001,1.0,,,,,,,59.0,,,,60,note_on,,70.0,59.0,70.0,103380,430.75
1002,1.0,,,,,,,59.0,,,,60,note_on,,0.0,59.0,0.0,103440,431.0
1003,1.0,,,,,,,62.0,,,,0,note_on,,70.0,62.0,70.0,103440,431.0
1004,1.0,,,,,,,62.0,,,,60,note_on,,0.0,62.0,0.0,103500,431.25
1005,1.0,,,,,,,62.0,,,,0,note_on,,0.0,62.0,0.0,103500,431.25
1006,1.0,,,,,,,67.0,,,,0,note_on,,70.0,67.0,70.0,103500,431.25
1007,1.0,,,,,,,59.0,,,,0,note_on,,70.0,59.0,70.0,103500,431.25
1008,1.0,,,,,,,62.0,,,,60,note_on,,70.0,62.0,70.0,103560,431.5
1009,1.0,,,,,,,62.0,,,,60,note_on,,0.0,62.0,0.0,103620,431.75
1010,1.0,,,,,,,59.0,,,,0,note_on,,70.0,59.0,70.0,103620,431.75
1011,1.0,,,,,,,59.0,,,,60,note_on,,0.0,59.0,0.0,103680,432.0
1012,1.0,,,,,,,59.0,,,,0,note_on,,0.0,59.0,0.0,103680,432.0
1013,1.0,,,,,,,67.0,,,,0,note_on,,0.0,67.0,0.0,103680,432.0
1014,1.0,,,,,,,64.0,,,,0,note_on,,70.0,64.0,70.0,103680,432.0
1015,1.0,,,,,,,55.0,,,,60,note_on,,70.0,55.0,70.0,103740,432.25
1016,1.0,,,,,,,55.0,,,,60,note_on,,0.0,55.0,0.0,103800,432.5
1017,1.0,,,,,,,60.0,,,,0,note_on,,70.0,60.0,70.0,103800,432.5
1018,1.0,,,,,,,60.0,,,,60,note_on,,0.0,60.0,0.0,103860,432.75
1019,1.0,,,,,,,64.0,,,,0,note_on,,0.0,64.0,0.0,103860,432.75
1020,1.0,,,,,,,55.0,,,,0,note_on,,70.0,55.0,70.0,103860,432.75
1021,1.0,,,,,,,67.0,,,,0,note_on,,70.0,67.0,70.0,103860,432.75
1022,1.0,,,,,,,64.0,,,,60,note_on,,70.0,64.0,70.0,103920,433.0
1023,1.0,,,,,,,64.0,,,,60,note_on,,0.0,64.0,0.0,103980,433.25
1024,1.0,,,,,,,60.0,,,,0,note_on,,70.0,60.0,70.0,103980,433.25
1025,1.0,,,,,,,60.0,,,,60,note_on,,0.0,60.0,0.0,104040,433.5
1026,1.0,,,,,,,67.0,,,,0,note_on,,0.0,67.0,0.0,104040,433.5
1027,1.0,,,,,,,55.0,,,,0,note_on,,0.0,55.0,0.0,104040,433.5
1028,1.0,,,,,,,60.0,,,,0,note_on,,70.0,60.0,70.0,104040,433.5
1029,1.0,,,,,,,65.0,,,,0,note_on,,70.0,65.0,70.0,104040,433.5
1030,1.0,,,,,,,48.0,,,,60,note_on,,70.0,48.0,70.0,104100,433.75
1031,1.0,,,,,,,48.0,,,,60,note_on,,0.0,48.0,0.0,104160,434.0
1032,1.0,,,,,,,53.0,,,,0,note_on,,70.0,53.0,70.0,104160,434.0
1033,1.0,,,,,,,53.0,,,,60,note_on,,0.0,53.0,0.0,104220,434.25
1034,1.0,,,,,,,65.0,,,,0,note_on,,0.0,65.0,0.0,104220,434.25
1035,1.0,,,,,,,60.0,,,,0,note_on,,0.0,60.0,0.0,104220,434.25
1036,1.0,,,,,,,62.0,,,,0,note_on,,70.0,62.0,70.0,104220,434.25
1037,1.0,,,,,,,71.0,,,,0,note_on,,70.0,71.0,70.0,104220,434.25
1038,1.0,,,,,,,50.0,,,,60,note_on,,76.0,50.0,76.0,104280,434.5
1039,1.0,,,,,,,50.0,,,,60,note_on,,0.0,50.0,0.0,104340,434.75
1040,1.0,,,,,,,55.0,,,,0,note_on,,76.0,55.0,76.0,104340,434.75
1041,1.0,,,,,,,55.0,,,,60,note_on,,0.0,55.0,0.0,104400,435.0
1042,1.0,,,,,,,71.0,,,,0,note_on,,0.0,71.0,0.0,104400,435.0
1043,1.0,,,,,,,62.0,,,,0,note_on,,0.0,62.0,0.0,104400,435.0
1044,1.0,,,,,,,64.0,,,,0,note_on,,70.0,64.0,70.0,104400,435.0
1045,1.0,,,,,,,57.0,,,,60,note_on,,70.0,57.0,70.0,104460,435.25
1046,1.0,,,,,,,57.0,,,,60,note_on,,0.0,57.0,0.0,104520,435.5
1047,1.0,,,,,,,60.0,,,,0,note_on,,70.0,60.0,70.0,104520,435.5
1048,1.0,,,,,,,60.0,,,,60,note_on,,0.0,60.0,0.0,104580,435.75
1049,1.0,,,,,,,64.0,,,,0,note_on,,0.0,64.0,0.0,104580,435.75
1050,1.0,,,,,,,57.0,,,,0,note_on,,70.0,57.0,70.0,104580,435.75
1051,1.0,,,,,,,69.0,,,,0,note_on,,70.0,69.0,70.0,104580,435.75
1052,1.0,,,,,,,64.0,,,,60,note_on,,70.0,64.0,70.0,104640,436.0
1053,1.0,,,,,,,64.0,,,,60,note_on,,0.0,64.0,0.0,104700,436.25
1054,1.0,,,,,,,60.0,,,,0,note_on,,70.0,60.0,70.0,104700,436.25
1055,1.0,,,,,,,60.0,,,,60,note_on,,0.0,60.0,0.0,104760,436.5
1056,1.0,,,,,,,69.0,,,,0,note_on,,0.0,69.0,0.0,104760,436.5
1057,1.0,,,,,,,57.0,,,,0,note_on,,0.0,57.0,0.0,104760,436.5
1058,1.0,,,,,,,65.0,,,,0,note_on,,70.0,65.0,70.0,104760,436.5
1059,1.0,,,,,,,57.0,,,,60,note_on,,70.0,57.0,70.0,104820,436.75
1060,1.0,,,,,,,57.0,,,,60,note_on,,0.0,57.0,0.0,104880,437.0
1061,1.0,,,,,,,60.0,,,,0,note_on,,70.0,60.0,70.0,104880,437.0
1062,1.0,,,,,,,60.0,,,,60,note_on,,0.0,60.0,0.0,104940,437.25
1063,1.0,,,,,,,65.0,,,,0,note_on,,0.0,65.0,0.0,104940,437.25
1064,1.0,,,,,,,57.0,,,,0,note_on,,70.0,57.0,70.0,104940,437.25
1065,1.0,,,,,,,69.0,,,,0,note_on,,70.0,69.0,70.0,104940,437.25
1066,1.0,,,,,,,65.0,,,,60,note_on,,70.0,65.0,70.0,105000,437.5
1067,1.0,,,,,,,65.0,,,,60,note_on,,0.0,65.0,0.0,105060,437.75
1068,1.0,,,,,,,60.0,,,,0,note_on,,70.0,60.0,70.0,105060,437.75
1069,1.0,,,,,,,60.0,,,,60,note_on,,0.0,60.0,0.0,105120,438.0
1070,1.0,,,,,,,69.0,,,,0,note_on,,0.0,69.0,0.0,105120,438.0
1071,1.0,,,,,,,57.0,,,,0,note_on,,0.0,57.0,0.0,105120,438.0
1072,1.0,,,,,,,67.0,,,,0,note_on,,70.0,67.0,70.0,105120,438.0
1073,1.0,,,,,,,59.0,,,,60,note_on,,70.0,59.0,70.0,105180,438.25
1074,1.0,,,,,,,59.0,,,,60,note_on,,0.0,59.0,0.0,105240,438.5
1075,1.0,,,,,,,62.0,,,,0,note_on,,70.0,62.0,70.0,105240,438.5
1076,1.0,,,,,,,62.0,,,,60,note_on,,0.0,62.0,0.0,105300,438.75
1077,1.0,,,,,,,67.0,,,,0,note_on,,0.0,67.0,0.0,105300,438.75
1078,1.0,,,,,,,59.0,,,,0,note_on,,70.0,59.0,70.0,105300,438.75
1079,1.0,,,,,,,71.0,,,,0,note_on,,70.0,71.0,70.0,105300,438.75
1080,1.0,,,,,,,67.0,,,,60,note_on,,70.0,67.0,70.0,105360,439.0
1081,1.0,,,,,,,67.0,,,,60,note_on,,0.0,67.0,0.0,105420,439.25
1082,1.0,,,,,,,62.0,,,,0,note_on,,70.0,62.0,70.0,105420,439.25
1083,1.0,,,,,,,62.0,,,,60,note_on,,0.0,62.0,0.0,105480,439.5
1084,1.0,,,,,,,71.0,,,,0,note_on,,0.0,71.0,0.0,105480,439.5
1085,1.0,,,,,,,59.0,,,,0,note_on,,0.0,59.0,0.0,105480,439.5
1086,1.0,,,,,,,67.0,,,,0,note_on,,70.0,67.0,70.0,105480,439.5
1087,1.0,,,,,,,59.0,,,,60,note_on,,70.0,59.0,70.0,105540,439.75
1088,1.0,,,,,,,59.0,,,,60,note_on,,0.0,59.0,0.0,105600,440.0
1089,1.0,,,,,,,64.0,,,,0,note_on,,70.0,64.0,70.0,105600,440.0
1090,1.0,,,,,,,64.0,,,,60,note_on,,0.0,64.0,0.0,105660,440.25
1091,1.0,,,,,,,67.0,,,,0,note_on,,0.0,67.0,0.0,105660,440.25
1092,1.0,,,,,,,59.0,,,,0,note_on,,70.0,59.0,70.0,105660,440.25
1093,1.0,,,,,,,71.0,,,,0,note_on,,70.0,71.0,70.0,105660,440.25
1094,1.0,,,,,,,67.0,,,,60,note_on,,70.0,67.0,70.0,105720,440.5
1095,1.0,,,,,,,67.0,,,,60,note_on,,0.0,67.0,0.0,105780,440.75
1096,1.0,,,,,,,64.0,,,,0,note_on,,70.0,64.0,70.0,105780,440.75
1097,1.0,,,,,,,64.0,,,,60,note_on,,0.0,64.0,0.0,105840,441.0
1098,1.0,,,,,,,71.0,,,,0,note_on,,0.0,71.0,0.0,105840,441.0
1099,1.0,,,,,,,59.0,,,,0,note_on,,0.0,59.0,0.0,105840,441.0
1100,1.0,,,,,,,64.0,,,,0,note_on,,70.0,64.0,70.0,105840,441.0
1101,1.0,,,,,,,57.0,,,,60,note_on,,70.0,57.0,70.0,105900,441.25
1102,1.0,,,,,,,57.0,,,,60,note_on,,0.0,57.0,0.0,105960,441.5
1103,1.0,,,,,,,60.0,,,,0,note_on,,70.0,60.0,70.0,105960,441.5
1104,1.0,,,,,,,60.0,,,,60,note_on,,0.0,60.0,0.0,106020,441.75
1105,1.0,,,,,,,64.0,,,,0,note_on,,0.0,64.0,0.0,106020,441.75
1106,1.0,,,,,,,60.0,,,,0,note_on,,70.0,60.0,70.0,106020,441.75
1107,1.0,,,,,,,69.0,,,,0,note_on,,70.0,69.0,70.0,106020,441.75
1108,1.0,,,,,,,57.0,,,,60,note_on,,70.0,57.0,70.0,106080,442.0
1109,1.0,,,,,,,57.0,,,,60,note_on,,0.0,57.0,0.0,106140,442.25
1110,1.0,,,,,,,52.0,,,,0,note_on,,70.0,52.0,70.0,106140,442.25
1111,1.0,,,,,,,52.0,,,,60,note_on,,0.0,52.0,0.0,106200,442.5
1112,1.0,,,,,,,69.0,,,,0,note_on,,0.0,69.0,0.0,106200,442.5
1113,1.0,,,,,,,60.0,,,,0,note_on,,0.0,60.0,0.0,106200,442.5
1114,1.0,,,,,,,57.0,,,,0,note_on,,65.0,57.0,65.0,106200,442.5
1115,1.0,,,,,,,60.0,,,,0,note_on,,65.0,60.0,65.0,106200,442.5
1116,1.0,,,,,,,64.0,,,,0,note_on,,65.0,64.0,65.0,106200,442.5
1117,1.0,,,,,,,64.0,,,,180,note_on,,0.0,64.0,0.0,106380,443.25
1118,1.0,,,,,,,60.0,,,,0,note_on,,0.0,60.0,0.0,106380,443.25
1119,1.0,,,,,,,57.0,,,,0,note_on,,0.0,57.0,0.0,106380,443.25
1120,1.0,,,,,,,65.0,,,,180,note_on,,70.0,65.0,70.0,106560,444.0
1121,1.0,,,,,,,57.0,,,,60,note_on,,70.0,57.0,70.0,106620,444.25
1122,1.0,,,,,,,57.0,,,,60,note_on,,0.0,57.0,0.0,106680,444.5
1123,1.0,,,,,,,60.0,,,,0,note_on,,70.0,60.0,70.0,106680,444.5
1124,1.0,,,,,,,60.0,,,,60,note_on,,0.0,60.0,0.0,106740,444.75
1125,1.0,,,,,,,65.0,,,,0,note_on,,0.0,65.0,0.0,106740,444.75
1126,1.0,,,,,,,57.0,,,,0,note_on,,70.0,57.0,70.0,106740,444.75
1127,1.0,,,,,,,69.0,,,,0,note_on,,70.0,69.0,70.0,106740,444.75
1128,1.0,,,,,,,65.0,,,,60,note_on,,70.0,65.0,70.0,106800,445.0
1129,1.0,,,,,,,65.0,,,,60,note_on,,0.0,65.0,0.0,106860,445.25
1130,1.0,,,,,,,60.0,,,,0,note_on,,70.0,60.0,70.0,106860,445.25
1131,1.0,,,,,,,60.0,,,,60,note_on,,0.0,60.0,0.0,106920,445.5
1132,1.0,,,,,,,69.0,,,,0,note_on,,0.0,69.0,0.0,106920,445.5
1133,1.0,,,,,,,57.0,,,,0,note_on,,0.0,57.0,0.0,106920,445.5
1134,1.0,,,,,,,65.0,,,,0,note_on,,70.0,65.0,70.0,106920,445.5
1135,1.0,,,,,,,57.0,,,,60,note_on,,70.0,57.0,70.0,106980,445.75
1136,1.0,,,,,,,57.0,,,,60,note_on,,0.0,57.0,0.0,107040,446.0
1137,1.0,,,,,,,60.0,,,,0,note_on,,70.0,60.0,70.0,107040,446.0
1138,1.0,,,,,,,60.0,,,,60,note_on,,0.0,60.0,0.0,107100,446.25
1139,1.0,,,,,,,65.0,,,,0,note_on,,0.0,65.0,0.0,107100,446.25
1140,1.0,,,,,,,57.0,,,,0,note_on,,70.0,57.0,70.0,107100,446.25
1141,1.0,,,,,,,69.0,,,,0,note_on,,70.0,69.0,70.0,107100,446.25
1142,1.0,,,,,,,65.0,,,,60,note_on,,70.0,65.0,70.0,107160,446.5
1143,1.0,,,,,,,65.0,,,,60,note_on,,0.0,65.0,0.0,107220,446.75
1144,1.0,,,,,,,60.0,,,,0,note_on,,70.0,60.0,70.0,107220,446.75
1145,1.0,,,,,,,60.0,,,,60,note_on,,0.0,60.0,0.0,107280,447.0
1146,1.0,,,,,,,69.0,,,,0,note_on,,0.0,69.0,0.0,107280,447.0
1147,1.0,,,,,,,57.0,,,,0,note_on,,0.0,57.0,0.0,107280,447.0
1148,1.0,,,,,,,64.0,,,,0,note_on,,70.0,64.0,70.0,107280,447.0
1149,1.0,,,,,,,57.0,,,,60,note_on,,70.0,57.0,70.0,107340,447.25
1150,1.0,,,,,,,57.0,,,,60,note_on,,0.0,57.0,0.0,107400,447.5
1151,1.0,,,,,,,60.0,,,,0,note_on,,70.0,60.0,70.0,107400,447.5
1152,1.0,,,,,,,60.0,,,,60,note_on,,0.0,60.0,0.0,107460,447.75
1153,1.0,,,,,,,64.0,,,,0,note_on,,0.0,64.0,0.0,107460,447.75
1154,1.0,,,,,,,57.0,,,,0,note_on,,70.0,57.0,70.0,107460,447.75
1155,1.0,,,,,,,69.0,,,,0,note_on,,70.0,69.0,70.0,107460,447.75
1156,1.0,,,,,,,64.0,,,,60,note_on,,70.0,64.0,70.0,107520,448.0
1157,1.0,,,,,,,64.0,,,,60,note_on,,0.0,64.0,0.0,107580,448.25
1158,1.0,,,,,,,60.0,,,,0,note_on,,70.0,60.0,70.0,107580,448.25
1159,1.0,,,,,,,60.0,,,,60,note_on,,0.0,60.0,0.0,107640,448.5
1160,1.0,,,,,,,69.0,,,,0,note_on,,0.0,69.0,0.0,107640,448.5
1161,1.0,,,,,,,57.0,,,,0,note_on,,0.0,57.0,0.0,107640,448.5
1162,1.0,,,,,,,64.0,,,,0,note_on,,70.0,64.0,70.0,107640,448.5
1163,1.0,,,,,,,57.0,,,,60,note_on,,70.0,57.0,70.0,107700,448.75
1164,1.0,,,,,,,57.0,,,,60,note_on,,0.0,57.0,0.0,107760,449.0
1165,1.0,,,,,,,60.0,,,,0,note_on,,70.0,60.0,70.0,107760,449.0
1166,1.0,,,,,,,60.0,,,,60,note_on,,0.0,60.0,0.0,107820,449.25
1167,1.0,,,,,,,64.0,,,,0,note_on,,0.0,64.0,0.0,107820,449.25
1168,1.0,,,,,,,57.0,,,,0,note_on,,70.0,57.0,70.0,107820,449.25
1169,1.0,,,,,,,69.0,,,,0,note_on,,70.0,69.0,70.0,107820,449.25
1170,1.0,,,,,,,64.0,,,,60,note_on,,70.0,64.0,70.0,107880,449.5
1171,1.0,,,,,,,64.0,,,,60,note_on,,0.0,64.0,0.0,107940,449.75
1172,1.0,,,,,,,60.0,,,,0,note_on,,70.0,60.0,70.0,107940,449.75
1173,1.0,,,,,,,60.0,,,,60,note_on,,0.0,60.0,0.0,108000,450.0
1174,1.0,,,,,,,69.0,,,,0,note_on,,0.0,69.0,0.0,108000,450.0
1175,1.0,,,,,,,57.0,,,,0,note_on,,0.0,57.0,0.0,108000,450.0
1176,1.0,,,,,,,65.0,,,,0,note_on,,70.0,65.0,70.0,108000,450.0
1177,1.0,,,,,,,57.0,,,,60,note_on,,70.0,57.0,70.0,108060,450.25
1178,1.0,,,,,,,57.0,,,,60,note_on,,0.0,57.0,0.0,108120,450.5
1179,1.0,,,,,,,60.0,,,,0,note_on,,70.0,60.0,70.0,108120,450.5
1180,1.0,,,,,,,60.0,,,,60,note_on,,0.0,60.0,0.0,108180,450.75
1181,1.0,,,,,,,65.0,,,,0,note_on,,0.0,65.0,0.0,108180,450.75
1182,1.0,,,,,,,57.0,,,,0,note_on,,70.0,57.0,70.0,108180,450.75
1183,1.0,,,,,,,69.0,,,,0,note_on,,70.0,69.0,70.0,108180,450.75
1184,1.0,,,,,,,65.0,,,,60,note_on,,70.0,65.0,70.0,108240,451.0
1185,1.0,,,,,,,65.0,,,,60,note_on,,0.0,65.0,0.0,108300,451.25
1186,1.0,,,,,,,60.0,,,,0,note_on,,70.0,60.0,70.0,108300,451.25
1187,1.0,,,,,,,60.0,,,,60,note_on,,0.0,60.0,0.0,108360,451.5
1188,1.0,,,,,,,69.0,,,,0,note_on,,0.0,69.0,0.0,108360,451.5
1189,1.0,,,,,,,57.0,,,,0,note_on,,0.0,57.0,0.0,108360,451.5
1190,1.0,,,,,,,65.0,,,,0,note_on,,70.0,65.0,70.0,108360,451.5
1191,1.0,,,,,,,57.0,,,,60,note_on,,70.0,57.0,70.0,108420,451.75
1192,1.0,,,,,,,57.0,,,,60,note_on,,0.0,57.0,0.0,108480,452.0
1193,1.0,,,,,,,60.0,,,,0,note_on,,70.0,60.0,70.0,108480,452.0
1194,1.0,,,,,,,60.0,,,,60,note_on,,0.0,60.0,0.0,108540,452.25
1195,1.0,,,,,,,65.0,,,,0,note_on,,0.0,65.0,0.0,108540,452.25
1196,1.0,,,,,,,57.0,,,,0,note_on,,70.0,57.0,70.0,108540,452.25
1197,1.0,,,,,,,69.0,,,,0,note_on,,70.0,69.0,70.0,108540,452.25
1198,1.0,,,,,,,65.0,,,,60,note_on,,70.0,65.0,70.0,108600,452.5
1199,1.0,,,,,,,65.0,,,,60,note_on,,0.0,65.0,0.0,108660,452.75
1200,1.0,,,,,,,60.0,,,,0,note_on,,70.0,60.0,70.0,108660,452.75
1201,1.0,,,,,,,60.0,,,,60,note_on,,0.0,60.0,0.0,108720,453.0
1202,1.0,,,,,,,69.0,,,,0,note_on,,0.0,69.0,0.0,108720,453.0
1203,1.0,,,,,,,57.0,,,,0,note_on,,0.0,57.0,0.0,108720,453.0
1204,1.0,,,,,,,64.0,,,,0,note_on,,70.0,64.0,70.0,108720,453.0
1205,1.0,,,,,,,55.0,,,,60,note_on,,70.0,55.0,70.0,108780,453.25
1206,1.0,,,,,,,55.0,,,,60,note_on,,0.0,55.0,0.0,108840,453.5
1207,1.0,,,,,,,60.0,,,,0,note_on,,70.0,60.0,70.0,108840,453.5
1208,1.0,,,,,,,60.0,,,,60,note_on,,0.0,60.0,0.0,108900,453.75
1209,1.0,,,,,,,64.0,,,,0,note_on,,0.0,64.0,0.0,108900,453.75
1210,1.0,,,,,,,55.0,,,,0,note_on,,70.0,55.0,70.0,108900,453.75
1211,1.0,,,,,,,67.0,,,,0,note_on,,70.0,67.0,70.0,108900,453.75
1212,1.0,,,,,,,64.0,,,,60,note_on,,70.0,64.0,70.0,108960,454.0
1213,1.0,,,,,,,64.0,,,,60,note_on,,0.0,64.0,0.0,109020,454.25
1214,1.0,,,,,,,60.0,,,,0,note_on,,70.0,60.0,70.0,109020,454.25
1215,1.0,,,,,,,60.0,,,,60,note_on,,0.0,60.0,0.0,109080,454.5
1216,1.0,,,,,,,67.0,,,,0,note_on,,0.0,67.0,0.0,109080,454.5
1217,1.0,,,,,,,55.0,,,,0,note_on,,0.0,55.0,0.0,109080,454.5
1218,1.0,,,,,,,67.0,,,,0,note_on,,70.0,67.0,70.0,109080,454.5
1219,1.0,,,,,,,59.0,,,,60,note_on,,70.0,59.0,70.0,109140,454.75
1220,1.0,,,,,,,59.0,,,,60,note_on,,0.0,59.0,0.0,109200,455.0
1221,1.0,,,,,,,62.0,,,,0,note_on,,70.0,62.0,70.0,109200,455.0
1222,1.0,,,,,,,62.0,,,,60,note_on,,0.0,62.0,0.0,109260,455.25
1223,1.0,,,,,,,67.0,,,,0,note_on,,0.0,67.0,0.0,109260,455.25
1224,1.0,,,,,,,59.0,,,,0,note_on,,70.0,59.0,70.0,109260,455.25
1225,1.0,,,,,,,71.0,,,,0,note_on,,70.0,71.0,70.0,109260,455.25
1226,1.0,,,,,,,67.0,,,,60,note_on,,70.0,67.0,70.0,109320,455.5
1227,1.0,,,,,,,67.0,,,,60,note_on,,0.0,67.0,0.0,109380,455.75
1228,1.0,,,,,,,62.0,,,,0,note_on,,70.0,62.0,70.0,109380,455.75
1229,1.0,,,,,,,62.0,,,,60,note_on,,0.0,62.0,0.0,109440,456.0
1230,1.0,,,,,,,71.0,,,,0,note_on,,0.0,71.0,0.0,109440,456.0
1231,1.0,,,,,,,59.0,,,,0,note_on,,0.0,59.0,0.0,109440,456.0
1232,1.0,,,,,,,64.0,,,,0,note_on,,70.0,64.0,70.0,109440,456.0
1233,1.0,,,,,,,55.0,,,,60,note_on,,70.0,55.0,70.0,109500,456.25
1234,1.0,,,,,,,55.0,,,,60,note_on,,0.0,55.0,0.0,109560,456.5
1235,1.0,,,,,,,60.0,,,,0,note_on,,70.0,60.0,70.0,109560,456.5
1236,1.0,,,,,,,60.0,,,,60,note_on,,0.0,60.0,0.0,109620,456.75
1237,1.0,,,,,,,64.0,,,,0,note_on,,0.0,64.0,0.0,109620,456.75
1238,1.0,,,,,,,55.0,,,,0,note_on,,70.0,55.0,70.0,109620,456.75
1239,1.0,,,,,,,67.0,,,,0,note_on,,70.0,67.0,70.0,109620,456.75
1240,1.0,,,,,,,64.0,,,,60,note_on,,70.0,64.0,70.0,109680,457.0
1241,1.0,,,,,,,64.0,,,,60,note_on,,0.0,64.0,0.0,109740,457.25
1242,1.0,,,,,,,60.0,,,,0,note_on,,70.0,60.0,70.0,109740,457.25
1243,1.0,,,,,,,60.0,,,,60,note_on,,0.0,60.0,0.0,109800,457.5
1244,1.0,,,,,,,67.0,,,,0,note_on,,0.0,67.0,0.0,109800,457.5
1245,1.0,,,,,,,55.0,,,,0,note_on,,0.0,55.0,0.0,109800,457.5
1246,1.0,,,,,,,67.0,,,,0,note_on,,70.0,67.0,70.0,109800,457.5
1247,1.0,,,,,,,59.0,,,,60,note_on,,70.0,59.0,70.0,109860,457.75
1248,1.0,,,,,,,59.0,,,,60,note_on,,0.0,59.0,0.0,109920,458.0
1249,1.0,,,,,,,62.0,,,,0,note_on,,70.0,62.0,70.0,109920,458.0
1250,1.0,,,,,,,62.0,,,,60,note_on,,0.0,62.0,0.0,109980,458.25
1251,1.0,,,,,,,67.0,,,,0,note_on,,0.0,67.0,0.0,109980,458.25
1252,1.0,,,,,,,59.0,,,,0,note_on,,70.0,59.0,70.0,109980,458.25
1253,1.0,,,,,,,71.0,,,,0,note_on,,70.0,71.0,70.0,109980,458.25
1254,1.0,,,,,,,67.0,,,,60,note_on,,70.0,67.0,70.0,110040,458.5
1255,1.0,,,,,,,67.0,,,,60,note_on,,0.0,67.0,0.0,110100,458.75
1256,1.0,,,,,,,62.0,,,,0,note_on,,70.0,62.0,70.0,110100,458.75
1257,1.0,,,,,,,62.0,,,,60,note_on,,0.0,62.0,0.0,110160,459.0
1258,1.0,,,,,,,71.0,,,,0,note_on,,0.0,71.0,0.0,110160,459.0
1259,1.0,,,,,,,59.0,,,,0,note_on,,0.0,59.0,0.0,110160,459.0
1260,1.0,,,,,,,64.0,,,,0,note_on,,70.0,64.0,70.0,110160,459.0
1261,1.0,,,,,,,57.0,,,,60,note_on,,70.0,57.0,70.0,110220,459.25
1262,1.0,,,,,,,57.0,,,,60,note_on,,0.0,57.0,0.0,110280,459.5
1263,1.0,,,,,,,60.0,,,,0,note_on,,70.0,60.0,70.0,110280,459.5
1264,1.0,,,,,,,60.0,,,,60,note_on,,0.0,60.0,0.0,110340,459.75
1265,1.0,,,,,,,64.0,,,,0,note_on,,0.0,64.0,0.0,110340,459.75
1266,1.0,,,,,,,57.0,,,,0,note_on,,70.0,57.0,70.0,110340,459.75
1267,1.0,,,,,,,69.0,,,,0,note_on,,70.0,69.0,70.0,110340,459.75
1268,1.0,,,,,,,64.0,,,,60,note_on,,70.0,64.0,70.0,110400,460.0
1269,1.0,,,,,,,64.0,,,,60,note_on,,0.0,64.0,0.0,110460,460.25
1270,1.0,,,,,,,60.0,,,,0,note_on,,70.0,60.0,70.0,110460,460.25
1271,1.0,,,,,,,60.0,,,,60,note_on,,0.0,60.0,0.0,110520,460.5
1272,1.0,,,,,,,69.0,,,,0,note_on,,0.0,69.0,0.0,110520,460.5
1273,1.0,,,,,,,57.0,,,,0,note_on,,0.0,57.0,0.0,110520,460.5
1274,1.0,,,,,,,64.0,,,,0,note_on,,70.0,64.0,70.0,110520,460.5
1275,1.0,,,,,,,55.0,,,,60,note_on,,70.0,55.0,70.0,110580,460.75
1276,1.0,,,,,,,55.0,,,,60,note_on,,0.0,55.0,0.0,110640,461.0
1277,1.0,,,,,,,60.0,,,,0,note_on,,70.0,60.0,70.0,110640,461.0
1278,1.0,,,,,,,60.0,,,,60,note_on,,0.0,60.0,0.0,110700,461.25
1279,1.0,,,,,,,64.0,,,,0,note_on,,0.0,64.0,0.0,110700,461.25
1280,1.0,,,,,,,55.0,,,,0,note_on,,70.0,55.0,70.0,110700,461.25
1281,1.0,,,,,,,67.0,,,,0,note_on,,70.0,67.0,70.0,110700,461.25
1282,1.0,,,,,,,64.0,,,,60,note_on,,70.0,64.0,70.0,110760,461.5
1283,1.0,,,,,,,64.0,,,,60,note_on,,0.0,64.0,0.0,110820,461.75
1284,1.0,,,,,,,60.0,,,,0,note_on,,70.0,60.0,70.0,110820,461.75
1285,1.0,,,,,,,60.0,,,,60,note_on,,0.0,60.0,0.0,110880,462.0
1286,1.0,,,,,,,67.0,,,,0,note_on,,0.0,67.0,0.0,110880,462.0
1287,1.0,,,,,,,55.0,,,,0,note_on,,0.0,55.0,0.0,110880,462.0
1288,1.0,,,,,,,64.0,,,,0,note_on,,70.0,64.0,70.0,110880,462.0
1289,1.0,,,,,,,57.0,,,,60,note_on,,70.0,57.0,70.0,110940,462.25
1290,1.0,,,,,,,57.0,,,,60,note_on,,0.0,57.0,0.0,111000,462.5
1291,1.0,,,,,,,60.0,,,,0,note_on,,70.0,60.0,70.0,111000,462.5
1292,1.0,,,,,,,60.0,,,,60,note_on,,0.0,60.0,0.0,111060,462.75
1293,1.0,,,,,,,64.0,,,,0,note_on,,0.0,64.0,0.0,111060,462.75
1294,1.0,,,,,,,57.0,,,,0,note_on,,70.0,57.0,70.0,111060,462.75
1295,1.0,,,,,,,69.0,,,,0,note_on,,70.0,69.0,70.0,111060,462.75
1296,1.0,,,,,,,64.0,,,,60,note_on,,70.0,64.0,70.0,111120,463.0
1297,1.0,,,,,,,64.0,,,,60,note_on,,0.0,64.0,0.0,111180,463.25
1298,1.0,,,,,,,60.0,,,,0,note_on,,70.0,60.0,70.0,111180,463.25
1299,1.0,,,,,,,60.0,,,,60,note_on,,0.0,60.0,0.0,111240,463.5
1300,1.0,,,,,,,69.0,,,,0,note_on,,0.0,69.0,0.0,111240,463.5
1301,1.0,,,,,,,57.0,,,,0,note_on,,0.0,57.0,0.0,111240,463.5
1302,1.0,,,,,,,64.0,,,,0,note_on,,70.0,64.0,70.0,111240,463.5
1303,1.0,,,,,,,55.0,,,,60,note_on,,70.0,55.0,70.0,111300,463.75
1304,1.0,,,,,,,55.0,,,,60,note_on,,0.0,55.0,0.0,111360,464.0
1305,1.0,,,,,,,60.0,,,,0,note_on,,70.0,60.0,70.0,111360,464.0
1306,1.0,,,,,,,60.0,,,,60,note_on,,0.0,60.0,0.0,111420,464.25
1307,1.0,,,,,,,64.0,,,,0,note_on,,0.0,64.0,0.0,111420,464.25
1308,1.0,,,,,,,55.0,,,,0,note_on,,70.0,55.0,70.0,111420,464.25
1309,1.0,,,,,,,67.0,,,,0,note_on,,70.0,67.0,70.0,111420,464.25
1310,1.0,,,,,,,64.0,,,,60,note_on,,70.0,64.0,70.0,111480,464.5
1311,1.0,,,,,,,64.0,,,,60,note_on,,0.0,64.0,0.0,111540,464.75
1312,1.0,,,,,,,60.0,,,,0,note_on,,70.0,60.0,70.0,111540,464.75
1313,1.0,,,,,,,60.0,,,,60,note_on,,0.0,60.0,0.0,111600,465.0
1314,1.0,,,,,,,67.0,,,,0,note_on,,0.0,67.0,0.0,111600,465.0
1315,1.0,,,,,,,55.0,,,,0,note_on,,0.0,55.0,0.0,111600,465.0
1316,1.0,,,,,,,64.0,,,,0,note_on,,70.0,64.0,70.0,111600,465.0
1317,1.0,,,,,,,57.0,,,,60,note_on,,70.0,57.0,70.0,111660,465.25
1318,1.0,,,,,,,57.0,,,,60,note_on,,0.0,57.0,0.0,111720,465.5
1319,1.0,,,,,,,60.0,,,,0,note_on,,70.0,60.0,70.0,111720,465.5
1320,1.0,,,,,,,60.0,,,,60,note_on,,0.0,60.0,0.0,111780,465.75
1321,1.0,,,,,,,64.0,,,,0,note_on,,0.0,64.0,0.0,111780,465.75
1322,1.0,,,,,,,57.0,,,,0,note_on,,70.0,57.0,70.0,111780,465.75
1323,1.0,,,,,,,69.0,,,,0,note_on,,70.0,69.0,70.0,111780,465.75
1324,1.0,,,,,,,64.0,,,,60,note_on,,70.0,64.0,70.0,111840,466.0
1325,1.0,,,,,,,64.0,,,,60,note_on,,0.0,64.0,0.0,111900,466.25
1326,1.0,,,,,,,60.0,,,,0,note_on,,70.0,60.0,70.0,111900,466.25
1327,1.0,,,,,,,60.0,,,,60,note_on,,0.0,60.0,0.0,111960,466.5
1328,1.0,,,,,,,69.0,,,,0,note_on,,0.0,69.0,0.0,111960,466.5
1329,1.0,,,,,,,57.0,,,,0,note_on,,0.0,57.0,0.0,111960,466.5
1330,1.0,,,,,,,65.0,,,,0,note_on,,70.0,65.0,70.0,111960,466.5
1331,1.0,,,,,,,57.0,,,,60,note_on,,70.0,57.0,70.0,112020,466.75
1332,1.0,,,,,,,57.0,,,,60,note_on,,0.0,57.0,0.0,112080,467.0
1333,1.0,,,,,,,60.0,,,,0,note_on,,70.0,60.0,70.0,112080,467.0
1334,1.0,,,,,,,60.0,,,,60,note_on,,0.0,60.0,0.0,112140,467.25
1335,1.0,,,,,,,65.0,,,,0,note_on,,0.0,65.0,0.0,112140,467.25
1336,1.0,,,,,,,57.0,,,,0,note_on,,70.0,57.0,70.0,112140,467.25
1337,1.0,,,,,,,69.0,,,,0,note_on,,70.0,69.0,70.0,112140,467.25
1338,1.0,,,,,,,65.0,,,,60,note_on,,70.0,65.0,70.0,112200,467.5
1339,1.0,,,,,,,65.0,,,,60,note_on,,0.0,65.0,0.0,112260,467.75
1340,1.0,,,,,,,60.0,,,,0,note_on,,70.0,60.0,70.0,112260,467.75
1341,1.0,,,,,,,60.0,,,,60,note_on,,0.0,60.0,0.0,112320,468.0
1342,1.0,,,,,,,69.0,,,,0,note_on,,0.0,69.0,0.0,112320,468.0
1343,1.0,,,,,,,57.0,,,,0,note_on,,0.0,57.0,0.0,112320,468.0
1344,1.0,,,,,,,67.0,,,,0,note_on,,70.0,67.0,70.0,112320,468.0
1345,1.0,,,,,,,59.0,,,,60,note_on,,70.0,59.0,70.0,112380,468.25
1346,1.0,,,,,,,59.0,,,,60,note_on,,0.0,59.0,0.0,112440,468.5
1347,1.0,,,,,,,62.0,,,,0,note_on,,70.0,62.0,70.0,112440,468.5
1348,1.0,,,,,,,62.0,,,,60,note_on,,0.0,62.0,0.0,112500,468.75
1349,1.0,,,,,,,67.0,,,,0,note_on,,0.0,67.0,0.0,112500,468.75
1350,1.0,,,,,,,59.0,,,,0,note_on,,70.0,59.0,70.0,112500,468.75
1351,1.0,,,,,,,71.0,,,,0,note_on,,70.0,71.0,70.0,112500,468.75
1352,1.0,,,,,,,67.0,,,,60,note_on,,70.0,67.0,70.0,112560,469.0
1353,1.0,,,,,,,67.0,,,,60,note_on,,0.0,67.0,0.0,112620,469.25
1354,1.0,,,,,,,62.0,,,,0,note_on,,70.0,62.0,70.0,112620,469.25
1355,1.0,,,,,,,62.0,,,,60,note_on,,0.0,62.0,0.0,112680,469.5
1356,1.0,,,,,,,71.0,,,,0,note_on,,0.0,71.0,0.0,112680,469.5
1357,1.0,,,,,,,59.0,,,,0,note_on,,0.0,59.0,0.0,112680,469.5
1358,1.0,,,,,,,64.0,,,,0,note_on,,70.0,64.0,70.0,112680,469.5
1359,1.0,,,,,,,55.0,,,,60,note_on,,70.0,55.0,70.0,112740,469.75
1360,1.0,,,,,,,55.0,,,,60,note_on,,0.0,55.0,0.0,112800,470.0
1361,1.0,,,,,,,60.0,,,,0,note_on,,70.0,60.0,70.0,112800,470.0
1362,1.0,,,,,,,60.0,,,,60,note_on,,0.0,60.0,0.0,112860,470.25
1363,1.0,,,,,,,64.0,,,,0,note_on,,0.0,64.0,0.0,112860,470.25
1364,1.0,,,,,,,55.0,,,,0,note_on,,70.0,55.0,70.0,112860,470.25
1365,1.0,,,,,,,67.0,,,,0,note_on,,70.0,67.0,70.0,112860,470.25
1366,1.0,,,,,,,64.0,,,,60,note_on,,70.0,64.0,70.0,112920,470.5
1367,1.0,,,,,,,64.0,,,,60,note_on,,0.0,64.0,0.0,112980,470.75
1368,1.0,,,,,,,60.0,,,,0,note_on,,70.0,60.0,70.0,112980,470.75
1369,1.0,,,,,,,60.0,,,,60,note_on,,0.0,60.0,0.0,113040,471.0
1370,1.0,,,,,,,67.0,,,,0,note_on,,0.0,67.0,0.0,113040,471.0
1371,1.0,,,,,,,55.0,,,,0,note_on,,0.0,55.0,0.0,113040,471.0
1372,1.0,,,,,,,62.0,,,,0,note_on,,70.0,62.0,70.0,113040,471.0
1373,1.0,,,,,,,59.0,,,,60,note_on,,70.0,59.0,70.0,113100,471.25
1374,1.0,,,,,,,59.0,,,,60,note_on,,0.0,59.0,0.0,113160,471.5
1375,1.0,,,,,,,62.0,,,,0,note_on,,70.0,62.0,70.0,113160,471.5
1376,1.0,,,,,,,62.0,,,,60,note_on,,0.0,62.0,0.0,113220,471.75
1377,1.0,,,,,,,62.0,,,,0,note_on,,0.0,62.0,0.0,113220,471.75
1378,1.0,,,,,,,67.0,,,,0,note_on,,70.0,67.0,70.0,113220,471.75
1379,1.0,,,,,,,59.0,,,,0,note_on,,70.0,59.0,70.0,113220,471.75
1380,1.0,,,,,,,62.0,,,,60,note_on,,70.0,62.0,70.0,113280,472.0
1381,1.0,,,,,,,62.0,,,,60,note_on,,0.0,62.0,0.0,113340,472.25
1382,1.0,,,,,,,59.0,,,,0,note_on,,70.0,59.0,70.0,113340,472.25
1383,1.0,,,,,,,59.0,,,,60,note_on,,0.0,59.0,0.0,113400,472.5
1384,1.0,,,,,,,59.0,,,,0,note_on,,0.0,59.0,0.0,113400,472.5
1385,1.0,,,,,,,67.0,,,,0,note_on,,0.0,67.0,0.0,113400,472.5
1386,1.0,,,,,,,64.0,,,,0,note_on,,70.0,64.0,70.0,113400,472.5
1387,1.0,,,,,,,55.0,,,,60,note_on,,70.0,55.0,70.0,113460,472.75
1388,1.0,,,,,,,55.0,,,,60,note_on,,0.0,55.0,0.0,113520,473.0
1389,1.0,,,,,,,60.0,,,,0,note_on,,70.0,60.0,70.0,113520,473.0
1390,1.0,,,,,,,60.0,,,,60,note_on,,0.0,60.0,0.0,113580,473.25
1391,1.0,,,,,,,64.0,,,,0,note_on,,0.0,64.0,0.0,113580,473.25
1392,1.0,,,,,,,55.0,,,,0,note_on,,70.0,55.0,70.0,113580,473.25
1393,1.0,,,,,,,67.0,,,,0,note_on,,70.0,67.0,70.0,113580,473.25
1394,1.0,,,,,,,64.0,,,,60,note_on,,70.0,64.0,70.0,113640,473.5
1395,1.0,,,,,,,64.0,,,,60,note_on,,0.0,64.0,0.0,113700,473.75
1396,1.0,,,,,,,60.0,,,,0,note_on,,70.0,60.0,70.0,113700,473.75
1397,1.0,,,,,,,60.0,,,,60,note_on,,0.0,60.0,0.0,113760,474.0
1398,1.0,,,,,,,67.0,,,,0,note_on,,0.0,67.0,0.0,113760,474.0
1399,1.0,,,,,,,55.0,,,,0,note_on,,0.0,55.0,0.0,113760,474.0
1400,1.0,,,,,,,60.0,,,,0,note_on,,70.0,60.0,70.0,113760,474.0
1401,1.0,,,,,,,65.0,,,,0,note_on,,70.0,65.0,70.0,113760,474.0
1402,1.0,,,,,,,48.0,,,,60,note_on,,70.0,48.0,70.0,113820,474.25
1403,1.0,,,,,,,48.0,,,,60,note_on,,0.0,48.0,0.0,113880,474.5
1404,1.0,,,,,,,53.0,,,,0,note_on,,70.0,53.0,70.0,113880,474.5
1405,1.0,,,,,,,53.0,,,,60,note_on,,0.0,53.0,0.0,113940,474.75
1406,1.0,,,,,,,65.0,,,,0,note_on,,0.0,65.0,0.0,113940,474.75
1407,1.0,,,,,,,60.0,,,,0,note_on,,0.0,60.0,0.0,113940,474.75
1408,1.0,,,,,,,62.0,,,,0,note_on,,70.0,62.0,70.0,113940,474.75
1409,1.0,,,,,,,71.0,,,,0,note_on,,70.0,71.0,70.0,113940,474.75
1410,1.0,,,,,,,50.0,,,,60,note_on,,76.0,50.0,76.0,114000,475.0
1411,1.0,,,,,,,50.0,,,,60,note_on,,0.0,50.0,0.0,114060,475.25
1412,1.0,,,,,,,55.0,,,,0,note_on,,76.0,55.0,76.0,114060,475.25
1413,1.0,,,,,,,55.0,,,,60,note_on,,0.0,55.0,0.0,114120,475.5
1414,1.0,,,,,,,71.0,,,,0,note_on,,0.0,71.0,0.0,114120,475.5
1415,1.0,,,,,,,62.0,,,,0,note_on,,0.0,62.0,0.0,114120,475.5
1416,1.0,,,,,,,64.0,,,,0,note_on,,70.0,64.0,70.0,114120,475.5
1417,1.0,,,,,,,57.0,,,,60,note_on,,70.0,57.0,70.0,114180,475.75
1418,1.0,,,,,,,57.0,,,,60,note_on,,0.0,57.0,0.0,114240,476.0
1419,1.0,,,,,,,60.0,,,,0,note_on,,70.0,60.0,70.0,114240,476.0
1420,1.0,,,,,,,60.0,,,,60,note_on,,0.0,60.0,0.0,114300,476.25
1421,1.0,,,,,,,64.0,,,,0,note_on,,0.0,64.0,0.0,114300,476.25
1422,1.0,,,,,,,57.0,,,,0,note_on,,70.0,57.0,70.0,114300,476.25
1423,1.0,,,,,,,69.0,,,,0,note_on,,70.0,69.0,70.0,114300,476.25
1424,1.0,,,,,,,64.0,,,,60,note_on,,70.0,64.0,70.0,114360,476.5
1425,1.0,,,,,,,64.0,,,,60,note_on,,0.0,64.0,0.0,114420,476.75
1426,1.0,,,,,,,60.0,,,,0,note_on,,70.0,60.0,70.0,114420,476.75
1427,1.0,,,,,,,60.0,,,,60,note_on,,0.0,60.0,0.0,114480,477.0
1428,1.0,,,,,,,69.0,,,,0,note_on,,0.0,69.0,0.0,114480,477.0
1429,1.0,,,,,,,57.0,,,,0,note_on,,0.0,57.0,0.0,114480,477.0
1430,1.0,,,,,,,65.0,,,,0,note_on,,70.0,65.0,70.0,114480,477.0
1431,1.0,,,,,,,57.0,,,,60,note_on,,70.0,57.0,70.0,114540,477.25
1432,1.0,,,,,,,57.0,,,,60,note_on,,0.0,57.0,0.0,114600,477.5
1433,1.0,,,,,,,60.0,,,,0,note_on,,70.0,60.0,70.0,114600,477.5
1434,1.0,,,,,,,60.0,,,,60,note_on,,0.0,60.0,0.0,114660,477.75
1435,1.0,,,,,,,65.0,,,,0,note_on,,0.0,65.0,0.0,114660,477.75
1436,1.0,,,,,,,57.0,,,,0,note_on,,70.0,57.0,70.0,114660,477.75
1437,1.0,,,,,,,69.0,,,,0,note_on,,70.0,69.0,70.0,114660,477.75
1438,1.0,,,,,,,65.0,,,,60,note_on,,70.0,65.0,70.0,114720,478.0
1439,1.0,,,,,,,65.0,,,,60,note_on,,0.0,65.0,0.0,114780,478.25
1440,1.0,,,,,,,60.0,,,,0,note_on,,70.0,60.0,70.0,114780,478.25
1441,1.0,,,,,,,60.0,,,,60,note_on,,0.0,60.0,0.0,114840,478.5
1442,1.0,,,,,,,69.0,,,,0,note_on,,0.0,69.0,0.0,114840,478.5
1443,1.0,,,,,,,57.0,,,,0,note_on,,0.0,57.0,0.0,114840,478.5
1444,1.0,,,,,,,67.0,,,,0,note_on,,70.0,67.0,70.0,114840,478.5
1445,1.0,,,,,,,59.0,,,,60,note_on,,70.0,59.0,70.0,114900,478.75
1446,1.0,,,,,,,59.0,,,,60,note_on,,0.0,59.0,0.0,114960,479.0
1447,1.0,,,,,,,62.0,,,,0,note_on,,70.0,62.0,70.0,114960,479.0
1448,1.0,,,,,,,62.0,,,,60,note_on,,0.0,62.0,0.0,115020,479.25
1449,1.0,,,,,,,67.0,,,,0,note_on,,0.0,67.0,0.0,115020,479.25
1450,1.0,,,,,,,59.0,,,,0,note_on,,70.0,59.0,70.0,115020,479.25
1451,1.0,,,,,,,71.0,,,,0,note_on,,70.0,71.0,70.0,115020,479.25
1452,1.0,,,,,,,67.0,,,,60,note_on,,70.0,67.0,70.0,115080,479.5
1453,1.0,,,,,,,67.0,,,,60,note_on,,0.0,67.0,0.0,115140,479.75
1454,1.0,,,,,,,62.0,,,,0,note_on,,70.0,62.0,70.0,115140,479.75
1455,1.0,,,,,,,62.0,,,,60,note_on,,0.0,62.0,0.0,115200,480.0
1456,1.0,,,,,,,71.0,,,,0,note_on,,0.0,71.0,0.0,115200,480.0
1457,1.0,,,,,,,59.0,,,,0,note_on,,0.0,59.0,0.0,115200,480.0
1458,1.0,,,,,,,67.0,,,,0,note_on,,70.0,67.0,70.0,115200,480.0
1459,1.0,,,,,,,59.0,,,,60,note_on,,70.0,59.0,70.0,115260,480.25
1460,1.0,,,,,,,59.0,,,,60,note_on,,0.0,59.0,0.0,115320,480.5
1461,1.0,,,,,,,64.0,,,,0,note_on,,70.0,64.0,70.0,115320,480.5
1462,1.0,,,,,,,64.0,,,,60,note_on,,0.0,64.0,0.0,115380,480.75
1463,1.0,,,,,,,67.0,,,,0,note_on,,0.0,67.0,0.0,115380,480.75
1464,1.0,,,,,,,59.0,,,,0,note_on,,70.0,59.0,70.0,115380,480.75
1465,1.0,,,,,,,71.0,,,,0,note_on,,70.0,71.0,70.0,115380,480.75
1466,1.0,,,,,,,67.0,,,,60,note_on,,70.0,67.0,70.0,115440,481.0
1467,1.0,,,,,,,67.0,,,,60,note_on,,0.0,67.0,0.0,115500,481.25
1468,1.0,,,,,,,64.0,,,,0,note_on,,70.0,64.0,70.0,115500,481.25
1469,1.0,,,,,,,64.0,,,,60,note_on,,0.0,64.0,0.0,115560,481.5
1470,1.0,,,,,,,71.0,,,,0,note_on,,0.0,71.0,0.0,115560,481.5
1471,1.0,,,,,,,59.0,,,,0,note_on,,0.0,59.0,0.0,115560,481.5
1472,1.0,,,,,,,64.0,,,,0,note_on,,70.0,64.0,70.0,115560,481.5
1473,1.0,,,,,,,57.0,,,,60,note_on,,70.0,57.0,70.0,115620,481.75
1474,1.0,,,,,,,57.0,,,,60,note_on,,0.0,57.0,0.0,115680,482.0
1475,1.0,,,,,,,60.0,,,,0,note_on,,70.0,60.0,70.0,115680,482.0
1476,1.0,,,,,,,60.0,,,,60,note_on,,0.0,60.0,0.0,115740,482.25
1477,1.0,,,,,,,64.0,,,,0,note_on,,0.0,64.0,0.0,115740,482.25
1478,1.0,,,,,,,60.0,,,,0,note_on,,70.0,60.0,70.0,115740,482.25
1479,1.0,,,,,,,69.0,,,,0,note_on,,70.0,69.0,70.0,115740,482.25
1480,1.0,,,,,,,57.0,,,,60,note_on,,70.0,57.0,70.0,115800,482.5
1481,1.0,,,,,,,57.0,,,,60,note_on,,0.0,57.0,0.0,115860,482.75
1482,1.0,,,,,,,52.0,,,,0,note_on,,70.0,52.0,70.0,115860,482.75
1483,1.0,,,,,,,52.0,,,,60,note_on,,0.0,52.0,0.0,115920,483.0
1484,1.0,,,,,,,69.0,,,,0,note_on,,0.0,69.0,0.0,115920,483.0
1485,1.0,,,,,,,60.0,,,,0,note_on,,0.0,60.0,0.0,115920,483.0
1486,1.0,,,,,,,57.0,,,,0,note_on,,65.0,57.0,65.0,115920,483.0
1487,1.0,,,,,,,60.0,,,,0,note_on,,65.0,60.0,65.0,115920,483.0
1488,1.0,,,,,,,64.0,,,,0,note_on,,65.0,64.0,65.0,115920,483.0
1489,1.0,,,,,,,64.0,,,,180,note_on,,0.0,64.0,0.0,116100,483.75
1490,1.0,,,,,,,60.0,,,,0,note_on,,0.0,60.0,0.0,116100,483.75
1491,1.0,,,,,,,57.0,,,,0,note_on,,0.0,57.0,0.0,116100,483.75
1492,1.0,,,,,,,65.0,,,,180,note_on,,70.0,65.0,70.0,116280,484.5
1493,1.0,,,,,,,57.0,,,,60,note_on,,70.0,57.0,70.0,116340,484.75
1494,1.0,,,,,,,57.0,,,,60,note_on,,0.0,57.0,0.0,116400,485.0
1495,1.0,,,,,,,60.0,,,,0,note_on,,70.0,60.0,70.0,116400,485.0
1496,1.0,,,,,,,60.0,,,,60,note_on,,0.0,60.0,0.0,116460,485.25
1497,1.0,,,,,,,65.0,,,,0,note_on,,0.0,65.0,0.0,116460,485.25
1498,1.0,,,,,,,57.0,,,,0,note_on,,70.0,57.0,70.0,116460,485.25
1499,1.0,,,,,,,69.0,,,,0,note_on,,70.0,69.0,70.0,116460,485.25
1500,1.0,,,,,,,65.0,,,,60,note_on,,70.0,65.0,70.0,116520,485.5
1501,1.0,,,,,,,65.0,,,,60,note_on,,0.0,65.0,0.0,116580,485.75
1502,1.0,,,,,,,60.0,,,,0,note_on,,70.0,60.0,70.0,116580,485.75
1503,1.0,,,,,,,60.0,,,,60,note_on,,0.0,60.0,0.0,116640,486.0
1504,1.0,,,,,,,69.0,,,,0,note_on,,0.0,69.0,0.0,116640,486.0
1505,1.0,,,,,,,57.0,,,,0,note_on,,0.0,57.0,0.0,116640,486.0
1506,1.0,,,,,,,65.0,,,,0,note_on,,70.0,65.0,70.0,116640,486.0
1507,1.0,,,,,,,57.0,,,,60,note_on,,70.0,57.0,70.0,116700,486.25
1508,1.0,,,,,,,57.0,,,,60,note_on,,0.0,57.0,0.0,116760,486.5
1509,1.0,,,,,,,60.0,,,,0,note_on,,70.0,60.0,70.0,116760,486.5
1510,1.0,,,,,,,60.0,,,,60,note_on,,0.0,60.0,0.0,116820,486.75
1511,1.0,,,,,,,65.0,,,,0,note_on,,0.0,65.0,0.0,116820,486.75
1512,1.0,,,,,,,57.0,,,,0,note_on,,70.0,57.0,70.0,116820,486.75
1513,1.0,,,,,,,69.0,,,,0,note_on,,70.0,69.0,70.0,116820,486.75
1514,1.0,,,,,,,65.0,,,,60,note_on,,70.0,65.0,70.0,116880,487.0
1515,1.0,,,,,,,65.0,,,,60,note_on,,0.0,65.0,0.0,116940,487.25
1516,1.0,,,,,,,60.0,,,,0,note_on,,70.0,60.0,70.0,116940,487.25
1517,1.0,,,,,,,60.0,,,,60,note_on,,0.0,60.0,0.0,117000,487.5
1518,1.0,,,,,,,69.0,,,,0,note_on,,0.0,69.0,0.0,117000,487.5
1519,1.0,,,,,,,57.0,,,,0,note_on,,0.0,57.0,0.0,117000,487.5
1520,1.0,,,,,,,64.0,,,,0,note_on,,70.0,64.0,70.0,117000,487.5
1521,1.0,,,,,,,57.0,,,,60,note_on,,70.0,57.0,70.0,117060,487.75
1522,1.0,,,,,,,57.0,,,,60,note_on,,0.0,57.0,0.0,117120,488.0
1523,1.0,,,,,,,60.0,,,,0,note_on,,70.0,60.0,70.0,117120,488.0
1524,1.0,,,,,,,60.0,,,,60,note_on,,0.0,60.0,0.0,117180,488.25
1525,1.0,,,,,,,64.0,,,,0,note_on,,0.0,64.0,0.0,117180,488.25
1526,1.0,,,,,,,57.0,,,,0,note_on,,70.0,57.0,70.0,117180,488.25
1527,1.0,,,,,,,69.0,,,,0,note_on,,70.0,69.0,70.0,117180,488.25
1528,1.0,,,,,,,64.0,,,,60,note_on,,70.0,64.0,70.0,117240,488.5
1529,1.0,,,,,,,64.0,,,,60,note_on,,0.0,64.0,0.0,117300,488.75
1530,1.0,,,,,,,60.0,,,,0,note_on,,70.0,60.0,70.0,117300,488.75
1531,1.0,,,,,,,60.0,,,,60,note_on,,0.0,60.0,0.0,117360,489.0
1532,1.0,,,,,,,69.0,,,,0,note_on,,0.0,69.0,0.0,117360,489.0
1533,1.0,,,,,,,57.0,,,,0,note_on,,0.0,57.0,0.0,117360,489.0
1534,1.0,,,,,,,64.0,,,,0,note_on,,70.0,64.0,70.0,117360,489.0
1535,1.0,,,,,,,57.0,,,,60,note_on,,70.0,57.0,70.0,117420,489.25
1536,1.0,,,,,,,57.0,,,,60,note_on,,0.0,57.0,0.0,117480,489.5
1537,1.0,,,,,,,60.0,,,,0,note_on,,70.0,60.0,70.0,117480,489.5
1538,1.0,,,,,,,60.0,,,,60,note_on,,0.0,60.0,0.0,117540,489.75
1539,1.0,,,,,,,64.0,,,,0,note_on,,0.0,64.0,0.0,117540,489.75
1540,1.0,,,,,,,57.0,,,,0,note_on,,70.0,57.0,70.0,117540,489.75
1541,1.0,,,,,,,69.0,,,,0,note_on,,70.0,69.0,70.0,117540,489.75
1542,1.0,,,,,,,64.0,,,,60,note_on,,70.0,64.0,70.0,117600,490.0
1543,1.0,,,,,,,64.0,,,,60,note_on,,0.0,64.0,0.0,117660,490.25
1544,1.0,,,,,,,60.0,,,,0,note_on,,70.0,60.0,70.0,117660,490.25
1545,1.0,,,,,,,60.0,,,,60,note_on,,0.0,60.0,0.0,117720,490.5
1546,1.0,,,,,,,69.0,,,,0,note_on,,0.0,69.0,0.0,117720,490.5
1547,1.0,,,,,,,57.0,,,,0,note_on,,0.0,57.0,0.0,117720,490.5
1548,1.0,,,,,,,65.0,,,,0,note_on,,70.0,65.0,70.0,117720,490.5
1549,1.0,,,,,,,57.0,,,,60,note_on,,70.0,57.0,70.0,117780,490.75
1550,1.0,,,,,,,57.0,,,,60,note_on,,0.0,57.0,0.0,117840,491.0
1551,1.0,,,,,,,60.0,,,,0,note_on,,70.0,60.0,70.0,117840,491.0
1552,1.0,,,,,,,60.0,,,,60,note_on,,0.0,60.0,0.0,117900,491.25
1553,1.0,,,,,,,65.0,,,,0,note_on,,0.0,65.0,0.0,117900,491.25
1554,1.0,,,,,,,57.0,,,,0,note_on,,70.0,57.0,70.0,117900,491.25
1555,1.0,,,,,,,69.0,,,,0,note_on,,70.0,69.0,70.0,117900,491.25
1556,1.0,,,,,,,65.0,,,,60,note_on,,70.0,65.0,70.0,117960,491.5
1557,1.0,,,,,,,65.0,,,,60,note_on,,0.0,65.0,0.0,118020,491.75
1558,1.0,,,,,,,60.0,,,,0,note_on,,70.0,60.0,70.0,118020,491.75
1559,1.0,,,,,,,60.0,,,,60,note_on,,0.0,60.0,0.0,118080,492.0
1560,1.0,,,,,,,69.0,,,,0,note_on,,0.0,69.0,0.0,118080,492.0
1561,1.0,,,,,,,57.0,,,,0,note_on,,0.0,57.0,0.0,118080,492.0
1562,1.0,,,,,,,65.0,,,,0,note_on,,70.0,65.0,70.0,118080,492.0
1563,1.0,,,,,,,57.0,,,,60,note_on,,70.0,57.0,70.0,118140,492.25
1564,1.0,,,,,,,57.0,,,,60,note_on,,0.0,57.0,0.0,118200,492.5
1565,1.0,,,,,,,60.0,,,,0,note_on,,70.0,60.0,70.0,118200,492.5
1566,1.0,,,,,,,60.0,,,,60,note_on,,0.0,60.0,0.0,118260,492.75
1567,1.0,,,,,,,65.0,,,,0,note_on,,0.0,65.0,0.0,118260,492.75
1568,1.0,,,,,,,57.0,,,,0,note_on,,70.0,57.0,70.0,118260,492.75
1569,1.0,,,,,,,69.0,,,,0,note_on,,70.0,69.0,70.0,118260,492.75
1570,1.0,,,,,,,65.0,,,,60,note_on,,70.0,65.0,70.0,118320,493.0
1571,1.0,,,,,,,65.0,,,,60,note_on,,0.0,65.0,0.0,118380,493.25
1572,1.0,,,,,,,60.0,,,,0,note_on,,70.0,60.0,70.0,118380,493.25
1573,1.0,,,,,,,60.0,,,,60,note_on,,0.0,60.0,0.0,118440,493.5
1574,1.0,,,,,,,69.0,,,,0,note_on,,0.0,69.0,0.0,118440,493.5
1575,1.0,,,,,,,57.0,,,,0,note_on,,0.0,57.0,0.0,118440,493.5
1576,1.0,,,,,,,64.0,,,,0,note_on,,70.0,64.0,70.0,118440,493.5
1577,1.0,,,,,,,55.0,,,,60,note_on,,70.0,55.0,70.0,118500,493.75
1578,1.0,,,,,,,55.0,,,,60,note_on,,0.0,55.0,0.0,118560,494.0
1579,1.0,,,,,,,60.0,,,,0,note_on,,70.0,60.0,70.0,118560,494.0
1580,1.0,,,,,,,60.0,,,,60,note_on,,0.0,60.0,0.0,118620,494.25
1581,1.0,,,,,,,64.0,,,,0,note_on,,0.0,64.0,0.0,118620,494.25
1582,1.0,,,,,,,55.0,,,,0,note_on,,70.0,55.0,70.0,118620,494.25
1583,1.0,,,,,,,67.0,,,,0,note_on,,70.0,67.0,70.0,118620,494.25
1584,1.0,,,,,,,64.0,,,,60,note_on,,70.0,64.0,70.0,118680,494.5
1585,1.0,,,,,,,64.0,,,,60,note_on,,0.0,64.0,0.0,118740,494.75
1586,1.0,,,,,,,60.0,,,,0,note_on,,70.0,60.0,70.0,118740,494.75
1587,1.0,,,,,,,60.0,,,,60,note_on,,0.0,60.0,0.0,118800,495.0
1588,1.0,,,,,,,67.0,,,,0,note_on,,0.0,67.0,0.0,118800,495.0
1589,1.0,,,,,,,55.0,,,,0,note_on,,0.0,55.0,0.0,118800,495.0
1590,1.0,,,,,,,67.0,,,,0,note_on,,70.0,67.0,70.0,118800,495.0
1591,1.0,,,,,,,59.0,,,,60,note_on,,70.0,59.0,70.0,118860,495.25
1592,1.0,,,,,,,59.0,,,,60,note_on,,0.0,59.0,0.0,118920,495.5
1593,1.0,,,,,,,62.0,,,,0,note_on,,70.0,62.0,70.0,118920,495.5
1594,1.0,,,,,,,62.0,,,,60,note_on,,0.0,62.0,0.0,118980,495.75
1595,1.0,,,,,,,67.0,,,,0,note_on,,0.0,67.0,0.0,118980,495.75
1596,1.0,,,,,,,59.0,,,,0,note_on,,70.0,59.0,70.0,118980,495.75
1597,1.0,,,,,,,71.0,,,,0,note_on,,70.0,71.0,70.0,118980,495.75
1598,1.0,,,,,,,67.0,,,,60,note_on,,70.0,67.0,70.0,119040,496.0
1599,1.0,,,,,,,67.0,,,,60,note_on,,0.0,67.0,0.0,119100,496.25
1600,1.0,,,,,,,62.0,,,,0,note_on,,70.0,62.0,70.0,119100,496.25
1601,1.0,,,,,,,62.0,,,,60,note_on,,0.0,62.0,0.0,119160,496.5
1602,1.0,,,,,,,71.0,,,,0,note_on,,0.0,71.0,0.0,119160,496.5
1603,1.0,,,,,,,59.0,,,,0,note_on,,0.0,59.0,0.0,119160,496.5
1604,1.0,,,,,,,64.0,,,,0,note_on,,70.0,64.0,70.0,119160,496.5
1605,1.0,,,,,,,55.0,,,,60,note_on,,70.0,55.0,70.0,119220,496.75
1606,1.0,,,,,,,55.0,,,,60,note_on,,0.0,55.0,0.0,119280,497.0
1607,1.0,,,,,,,60.0,,,,0,note_on,,70.0,60.0,70.0,119280,497.0
1608,1.0,,,,,,,60.0,,,,60,note_on,,0.0,60.0,0.0,119340,497.25
1609,1.0,,,,,,,64.0,,,,0,note_on,,0.0,64.0,0.0,119340,497.25
1610,1.0,,,,,,,55.0,,,,0,note_on,,70.0,55.0,70.0,119340,497.25
1611,1.0,,,,,,,67.0,,,,0,note_on,,70.0,67.0,70.0,119340,497.25
1612,1.0,,,,,,,64.0,,,,60,note_on,,70.0,64.0,70.0,119400,497.5
1613,1.0,,,,,,,64.0,,,,60,note_on,,0.0,64.0,0.0,119460,497.75
1614,1.0,,,,,,,60.0,,,,0,note_on,,70.0,60.0,70.0,119460,497.75
1615,1.0,,,,,,,60.0,,,,60,note_on,,0.0,60.0,0.0,119520,498.0
1616,1.0,,,,,,,67.0,,,,0,note_on,,0.0,67.0,0.0,119520,498.0
1617,1.0,,,,,,,55.0,,,,0,note_on,,0.0,55.0,0.0,119520,498.0
1618,1.0,,,,,,,67.0,,,,0,note_on,,70.0,67.0,70.0,119520,498.0
1619,1.0,,,,,,,59.0,,,,60,note_on,,70.0,59.0,70.0,119580,498.25
1620,1.0,,,,,,,59.0,,,,60,note_on,,0.0,59.0,0.0,119640,498.5
1621,1.0,,,,,,,62.0,,,,0,note_on,,70.0,62.0,70.0,119640,498.5
1622,1.0,,,,,,,62.0,,,,60,note_on,,0.0,62.0,0.0,119700,498.75
1623,1.0,,,,,,,67.0,,,,0,note_on,,0.0,67.0,0.0,119700,498.75
1624,1.0,,,,,,,59.0,,,,0,note_on,,70.0,59.0,70.0,119700,498.75
1625,1.0,,,,,,,71.0,,,,0,note_on,,70.0,71.0,70.0,119700,498.75
1626,1.0,,,,,,,67.0,,,,60,note_on,,70.0,67.0,70.0,119760,499.0
1627,1.0,,,,,,,67.0,,,,60,note_on,,0.0,67.0,0.0,119820,499.25
1628,1.0,,,,,,,62.0,,,,0,note_on,,70.0,62.0,70.0,119820,499.25
1629,1.0,,,,,,,62.0,,,,60,note_on,,0.0,62.0,0.0,119880,499.5
1630,1.0,,,,,,,71.0,,,,0,note_on,,0.0,71.0,0.0,119880,499.5
1631,1.0,,,,,,,59.0,,,,0,note_on,,0.0,59.0,0.0,119880,499.5
1632,1.0,,,,,,,64.0,,,,0,note_on,,70.0,64.0,70.0,119880,499.5
1633,1.0,,,,,,,57.0,,,,60,note_on,,70.0,57.0,70.0,119940,499.75
1634,1.0,,,,,,,57.0,,,,60,note_on,,0.0,57.0,0.0,120000,500.0
1635,1.0,,,,,,,60.0,,,,0,note_on,,70.0,60.0,70.0,120000,500.0
1636,1.0,,,,,,,60.0,,,,60,note_on,,0.0,60.0,0.0,120060,500.25
1637,1.0,,,,,,,64.0,,,,0,note_on,,0.0,64.0,0.0,120060,500.25
1638,1.0,,,,,,,57.0,,,,0,note_on,,70.0,57.0,70.0,120060,500.25
1639,1.0,,,,,,,69.0,,,,0,note_on,,70.0,69.0,70.0,120060,500.25
1640,1.0,,,,,,,64.0,,,,60,note_on,,70.0,64.0,70.0,120120,500.5
1641,1.0,,,,,,,64.0,,,,60,note_on,,0.0,64.0,0.0,120180,500.75
1642,1.0,,,,,,,60.0,,,,0,note_on,,70.0,60.0,70.0,120180,500.75
1643,1.0,,,,,,,60.0,,,,60,note_on,,0.0,60.0,0.0,120240,501.0
1644,1.0,,,,,,,69.0,,,,0,note_on,,0.0,69.0,0.0,120240,501.0
1645,1.0,,,,,,,57.0,,,,0,note_on,,0.0,57.0,0.0,120240,501.0
1646,1.0,,,,,,,64.0,,,,0,note_on,,70.0,64.0,70.0,120240,501.0
1647,1.0,,,,,,,55.0,,,,60,note_on,,70.0,55.0,70.0,120300,501.25
1648,1.0,,,,,,,55.0,,,,60,note_on,,0.0,55.0,0.0,120360,501.5
1649,1.0,,,,,,,60.0,,,,0,note_on,,70.0,60.0,70.0,120360,501.5
1650,1.0,,,,,,,60.0,,,,60,note_on,,0.0,60.0,0.0,120420,501.75
1651,1.0,,,,,,,64.0,,,,0,note_on,,0.0,64.0,0.0,120420,501.75
1652,1.0,,,,,,,55.0,,,,0,note_on,,70.0,55.0,70.0,120420,501.75
1653,1.0,,,,,,,67.0,,,,0,note_on,,70.0,67.0,70.0,120420,501.75
1654,1.0,,,,,,,64.0,,,,60,note_on,,70.0,64.0,70.0,120480,502.0
1655,1.0,,,,,,,64.0,,,,60,note_on,,0.0,64.0,0.0,120540,502.25
1656,1.0,,,,,,,60.0,,,,0,note_on,,70.0,60.0,70.0,120540,502.25
1657,1.0,,,,,,,60.0,,,,60,note_on,,0.0,60.0,0.0,120600,502.5
1658,1.0,,,,,,,67.0,,,,0,note_on,,0.0,67.0,0.0,120600,502.5
1659,1.0,,,,,,,55.0,,,,0,note_on,,0.0,55.0,0.0,120600,502.5
1660,1.0,,,,,,,64.0,,,,0,note_on,,70.0,64.0,70.0,120600,502.5
1661,1.0,,,,,,,57.0,,,,60,note_on,,70.0,57.0,70.0,120660,502.75
1662,1.0,,,,,,,57.0,,,,60,note_on,,0.0,57.0,0.0,120720,503.0
1663,1.0,,,,,,,60.0,,,,0,note_on,,70.0,60.0,70.0,120720,503.0
1664,1.0,,,,,,,60.0,,,,60,note_on,,0.0,60.0,0.0,120780,503.25
1665,1.0,,,,,,,64.0,,,,0,note_on,,0.0,64.0,0.0,120780,503.25
1666,1.0,,,,,,,57.0,,,,0,note_on,,70.0,57.0,70.0,120780,503.25
1667,1.0,,,,,,,69.0,,,,0,note_on,,70.0,69.0,70.0,120780,503.25
1668,1.0,,,,,,,64.0,,,,60,note_on,,70.0,64.0,70.0,120840,503.5
1669,1.0,,,,,,,64.0,,,,60,note_on,,0.0,64.0,0.0,120900,503.75
1670,1.0,,,,,,,60.0,,,,0,note_on,,70.0,60.0,70.0,120900,503.75
1671,1.0,,,,,,,60.0,,,,60,note_on,,0.0,60.0,0.0,120960,504.0
1672,1.0,,,,,,,69.0,,,,0,note_on,,0.0,69.0,0.0,120960,504.0
1673,1.0,,,,,,,57.0,,,,0,note_on,,0.0,57.0,0.0,120960,504.0
1674,1.0,,,,,,,64.0,,,,0,note_on,,70.0,64.0,70.0,120960,504.0
1675,1.0,,,,,,,55.0,,,,60,note_on,,70.0,55.0,70.0,121020,504.25
1676,1.0,,,,,,,55.0,,,,60,note_on,,0.0,55.0,0.0,121080,504.5
1677,1.0,,,,,,,60.0,,,,0,note_on,,70.0,60.0,70.0,121080,504.5
1678,1.0,,,,,,,60.0,,,,60,note_on,,0.0,60.0,0.0,121140,504.75
1679,1.0,,,,,,,64.0,,,,0,note_on,,0.0,64.0,0.0,121140,504.75
1680,1.0,,,,,,,55.0,,,,0,note_on,,70.0,55.0,70.0,121140,504.75
1681,1.0,,,,,,,67.0,,,,0,note_on,,70.0,67.0,70.0,121140,504.75
1682,1.0,,,,,,,64.0,,,,60,note_on,,70.0,64.0,70.0,121200,505.0
1683,1.0,,,,,,,64.0,,,,60,note_on,,0.0,64.0,0.0,121260,505.25
1684,1.0,,,,,,,60.0,,,,0,note_on,,70.0,60.0,70.0,121260,505.25
1685,1.0,,,,,,,60.0,,,,60,note_on,,0.0,60.0,0.0,121320,505.5
1686,1.0,,,,,,,67.0,,,,0,note_on,,0.0,67.0,0.0,121320,505.5
1687,1.0,,,,,,,55.0,,,,0,note_on,,0.0,55.0,0.0,121320,505.5
1688,1.0,,,,,,,64.0,,,,0,note_on,,70.0,64.0,70.0,121320,505.5
1689,1.0,,,,,,,57.0,,,,60,note_on,,70.0,57.0,70.0,121380,505.75
1690,1.0,,,,,,,57.0,,,,60,note_on,,0.0,57.0,0.0,121440,506.0
1691,1.0,,,,,,,60.0,,,,0,note_on,,70.0,60.0,70.0,121440,506.0
1692,1.0,,,,,,,60.0,,,,60,note_on,,0.0,60.0,0.0,121500,506.25
1693,1.0,,,,,,,64.0,,,,0,note_on,,0.0,64.0,0.0,121500,506.25
1694,1.0,,,,,,,57.0,,,,0,note_on,,70.0,57.0,70.0,121500,506.25
1695,1.0,,,,,,,69.0,,,,0,note_on,,70.0,69.0,70.0,121500,506.25
1696,1.0,,,,,,,64.0,,,,60,note_on,,70.0,64.0,70.0,121560,506.5
1697,1.0,,,,,,,64.0,,,,60,note_on,,0.0,64.0,0.0,121620,506.75
1698,1.0,,,,,,,60.0,,,,0,note_on,,70.0,60.0,70.0,121620,506.75
1699,1.0,,,,,,,60.0,,,,60,note_on,,0.0,60.0,0.0,121680,507.0
1700,1.0,,,,,,,69.0,,,,0,note_on,,0.0,69.0,0.0,121680,507.0
1701,1.0,,,,,,,57.0,,,,0,note_on,,0.0,57.0,0.0,121680,507.0
1702,1.0,,,,,,,65.0,,,,0,note_on,,70.0,65.0,70.0,121680,507.0
1703,1.0,,,,,,,57.0,,,,60,note_on,,70.0,57.0,70.0,121740,507.25
1704,1.0,,,,,,,57.0,,,,60,note_on,,0.0,57.0,0.0,121800,507.5
1705,1.0,,,,,,,60.0,,,,0,note_on,,70.0,60.0,70.0,121800,507.5
1706,1.0,,,,,,,60.0,,,,60,note_on,,0.0,60.0,0.0,121860,507.75
1707,1.0,,,,,,,65.0,,,,0,note_on,,0.0,65.0,0.0,121860,507.75
1708,1.0,,,,,,,57.0,,,,0,note_on,,70.0,57.0,70.0,121860,507.75
1709,1.0,,,,,,,69.0,,,,0,note_on,,70.0,69.0,70.0,121860,507.75
1710,1.0,,,,,,,65.0,,,,60,note_on,,70.0,65.0,70.0,121920,508.0
1711,1.0,,,,,,,65.0,,,,60,note_on,,0.0,65.0,0.0,121980,508.25
1712,1.0,,,,,,,60.0,,,,0,note_on,,70.0,60.0,70.0,121980,508.25
1713,1.0,,,,,,,60.0,,,,60,note_on,,0.0,60.0,0.0,122040,508.5
1714,1.0,,,,,,,69.0,,,,0,note_on,,0.0,69.0,0.0,122040,508.5
1715,1.0,,,,,,,57.0,,,,0,note_on,,0.0,57.0,0.0,122040,508.5
1716,1.0,,,,,,,67.0,,,,0,note_on,,70.0,67.0,70.0,122040,508.5
1717,1.0,,,,,,,59.0,,,,60,note_on,,70.0,59.0,70.0,122100,508.75
1718,1.0,,,,,,,59.0,,,,60,note_on,,0.0,59.0,0.0,122160,509.0
1719,1.0,,,,,,,62.0,,,,0,note_on,,70.0,62.0,70.0,122160,509.0
1720,1.0,,,,,,,62.0,,,,60,note_on,,0.0,62.0,0.0,122220,509.25
1721,1.0,,,,,,,67.0,,,,0,note_on,,0.0,67.0,0.0,122220,509.25
1722,1.0,,,,,,,59.0,,,,0,note_on,,70.0,59.0,70.0,122220,509.25
1723,1.0,,,,,,,71.0,,,,0,note_on,,70.0,71.0,70.0,122220,509.25
1724,1.0,,,,,,,67.0,,,,60,note_on,,70.0,67.0,70.0,122280,509.5
1725,1.0,,,,,,,67.0,,,,60,note_on,,0.0,67.0,0.0,122340,509.75
1726,1.0,,,,,,,62.0,,,,0,note_on,,70.0,62.0,70.0,122340,509.75
1727,1.0,,,,,,,62.0,,,,60,note_on,,0.0,62.0,0.0,122400,510.0
1728,1.0,,,,,,,71.0,,,,0,note_on,,0.0,71.0,0.0,122400,510.0
1729,1.0,,,,,,,59.0,,,,0,note_on,,0.0,59.0,0.0,122400,510.0
1730,1.0,,,,,,,64.0,,,,0,note_on,,70.0,64.0,70.0,122400,510.0
1731,1.0,,,,,,,55.0,,,,60,note_on,,70.0,55.0,70.0,122460,510.25
1732,1.0,,,,,,,55.0,,,,60,note_on,,0.0,55.0,0.0,122520,510.5
1733,1.0,,,,,,,60.0,,,,0,note_on,,70.0,60.0,70.0,122520,510.5
1734,1.0,,,,,,,60.0,,,,60,note_on,,0.0,60.0,0.0,122580,510.75
1735,1.0,,,,,,,64.0,,,,0,note_on,,0.0,64.0,0.0,122580,510.75
1736,1.0,,,,,,,55.0,,,,0,note_on,,70.0,55.0,70.0,122580,510.75
1737,1.0,,,,,,,67.0,,,,0,note_on,,70.0,67.0,70.0,122580,510.75
1738,1.0,,,,,,,64.0,,,,60,note_on,,70.0,64.0,70.0,122640,511.0
1739,1.0,,,,,,,64.0,,,,60,note_on,,0.0,64.0,0.0,122700,511.25
1740,1.0,,,,,,,60.0,,,,0,note_on,,70.0,60.0,70.0,122700,511.25
1741,1.0,,,,,,,60.0,,,,60,note_on,,0.0,60.0,0.0,122760,511.5
1742,1.0,,,,,,,67.0,,,,0,note_on,,0.0,67.0,0.0,122760,511.5
1743,1.0,,,,,,,55.0,,,,0,note_on,,0.0,55.0,0.0,122760,511.5
1744,1.0,,,,,,,62.0,,,,0,note_on,,70.0,62.0,70.0,122760,511.5
1745,1.0,,,,,,,59.0,,,,60,note_on,,70.0,59.0,70.0,122820,511.75
1746,1.0,,,,,,,59.0,,,,60,note_on,,0.0,59.0,0.0,122880,512.0
1747,1.0,,,,,,,62.0,,,,0,note_on,,70.0,62.0,70.0,122880,512.0
1748,1.0,,,,,,,62.0,,,,60,note_on,,0.0,62.0,0.0,122940,512.25
1749,1.0,,,,,,,62.0,,,,0,note_on,,0.0,62.0,0.0,122940,512.25
1750,1.0,,,,,,,67.0,,,,0,note_on,,70.0,67.0,70.0,122940,512.25
1751,1.0,,,,,,,59.0,,,,0,note_on,,70.0,59.0,70.0,122940,512.25
1752,1.0,,,,,,,62.0,,,,60,note_on,,70.0,62.0,70.0,123000,512.5
1753,1.0,,,,,,,62.0,,,,60,note_on,,0.0,62.0,0.0,123060,512.75
1754,1.0,,,,,,,59.0,,,,0,note_on,,70.0,59.0,70.0,123060,512.75
1755,1.0,,,,,,,59.0,,,,60,note_on,,0.0,59.0,0.0,123120,513.0
1756,1.0,,,,,,,59.0,,,,0,note_on,,0.0,59.0,0.0,123120,513.0
1757,1.0,,,,,,,67.0,,,,0,note_on,,0.0,67.0,0.0,123120,513.0
1758,1.0,,,,,,,64.0,,,,0,note_on,,70.0,64.0,70.0,123120,513.0
1759,1.0,,,,,,,55.0,,,,60,note_on,,70.0,55.0,70.0,123180,513.25
1760,1.0,,,,,,,55.0,,,,60,note_on,,0.0,55.0,0.0,123240,513.5
1761,1.0,,,,,,,60.0,,,,0,note_on,,70.0,60.0,70.0,123240,513.5
1762,1.0,,,,,,,60.0,,,,60,note_on,,0.0,60.0,0.0,123300,513.75
1763,1.0,,,,,,,64.0,,,,0,note_on,,0.0,64.0,0.0,123300,513.75
1764,1.0,,,,,,,55.0,,,,0,note_on,,70.0,55.0,70.0,123300,513.75
1765,1.0,,,,,,,67.0,,,,0,note_on,,70.0,67.0,70.0,123300,513.75
1766,1.0,,,,,,,64.0,,,,60,note_on,,70.0,64.0,70.0,123360,514.0
1767,1.0,,,,,,,64.0,,,,60,note_on,,0.0,64.0,0.0,123420,514.25
1768,1.0,,,,,,,60.0,,,,0,note_on,,70.0,60.0,70.0,123420,514.25
1769,1.0,,,,,,,60.0,,,,60,note_on,,0.0,60.0,0.0,123480,514.5
1770,1.0,,,,,,,67.0,,,,0,note_on,,0.0,67.0,0.0,123480,514.5
1771,1.0,,,,,,,55.0,,,,0,note_on,,0.0,55.0,0.0,123480,514.5
1772,1.0,,,,,,,60.0,,,,0,note_on,,70.0,60.0,70.0,123480,514.5
1773,1.0,,,,,,,65.0,,,,0,note_on,,70.0,65.0,70.0,123480,514.5
1774,1.0,,,,,,,48.0,,,,60,note_on,,70.0,48.0,70.0,123540,514.75
1775,1.0,,,,,,,48.0,,,,60,note_on,,0.0,48.0,0.0,123600,515.0
1776,1.0,,,,,,,53.0,,,,0,note_on,,70.0,53.0,70.0,123600,515.0
1777,1.0,,,,,,,53.0,,,,60,note_on,,0.0,53.0,0.0,123660,515.25
1778,1.0,,,,,,,65.0,,,,0,note_on,,0.0,65.0,0.0,123660,515.25
1779,1.0,,,,,,,60.0,,,,0,note_on,,0.0,60.0,0.0,123660,515.25
1780,1.0,,,,,,,62.0,,,,0,note_on,,70.0,62.0,70.0,123660,515.25
1781,1.0,,,,,,,71.0,,,,0,note_on,,70.0,71.0,70.0,123660,515.25
1782,1.0,,,,,,,50.0,,,,60,note_on,,76.0,50.0,76.0,123720,515.5
1783,1.0,,,,,,,50.0,,,,60,note_on,,0.0,50.0,0.0,123780,515.75
1784,1.0,,,,,,,55.0,,,,0,note_on,,76.0,55.0,76.0,123780,515.75
1785,1.0,,,,,,,55.0,,,,60,note_on,,0.0,55.0,0.0,123840,516.0
1786,1.0,,,,,,,71.0,,,,0,note_on,,0.0,71.0,0.0,123840,516.0
1787,1.0,,,,,,,62.0,,,,0,note_on,,0.0,62.0,0.0,123840,516.0
1788,1.0,,,,,,,64.0,,,,0,note_on,,70.0,64.0,70.0,123840,516.0
1789,1.0,,,,,,,57.0,,,,60,note_on,,70.0,57.0,70.0,123900,516.25
1790,1.0,,,,,,,57.0,,,,60,note_on,,0.0,57.0,0.0,123960,516.5
1791,1.0,,,,,,,60.0,,,,0,note_on,,70.0,60.0,70.0,123960,516.5
1792,1.0,,,,,,,60.0,,,,60,note_on,,0.0,60.0,0.0,124020,516.75
1793,1.0,,,,,,,64.0,,,,0,note_on,,0.0,64.0,0.0,124020,516.75
1794,1.0,,,,,,,57.0,,,,0,note_on,,70.0,57.0,70.0,124020,516.75
1795,1.0,,,,,,,69.0,,,,0,note_on,,70.0,69.0,70.0,124020,516.75
1796,1.0,,,,,,,64.0,,,,60,note_on,,70.0,64.0,70.0,124080,517.0
1797,1.0,,,,,,,64.0,,,,60,note_on,,0.0,64.0,0.0,124140,517.25
1798,1.0,,,,,,,60.0,,,,0,note_on,,70.0,60.0,70.0,124140,517.25
1799,1.0,,,,,,,60.0,,,,60,note_on,,0.0,60.0,0.0,124200,517.5
1800,1.0,,,,,,,69.0,,,,0,note_on,,0.0,69.0,0.0,124200,517.5
1801,1.0,,,,,,,57.0,,,,0,note_on,,0.0,57.0,0.0,124200,517.5
1802,1.0,,,,,,,65.0,,,,0,note_on,,70.0,65.0,70.0,124200,517.5
1803,1.0,,,,,,,57.0,,,,60,note_on,,70.0,57.0,70.0,124260,517.75
1804,1.0,,,,,,,57.0,,,,60,note_on,,0.0,57.0,0.0,124320,518.0
1805,1.0,,,,,,,60.0,,,,0,note_on,,70.0,60.0,70.0,124320,518.0
1806,1.0,,,,,,,60.0,,,,60,note_on,,0.0,60.0,0.0,124380,518.25
1807,1.0,,,,,,,65.0,,,,0,note_on,,0.0,65.0,0.0,124380,518.25
1808,1.0,,,,,,,57.0,,,,0,note_on,,70.0,57.0,70.0,124380,518.25
1809,1.0,,,,,,,69.0,,,,0,note_on,,70.0,69.0,70.0,124380,518.25
1810,1.0,,,,,,,65.0,,,,60,note_on,,70.0,65.0,70.0,124440,518.5
1811,1.0,,,,,,,65.0,,,,60,note_on,,0.0,65.0,0.0,124500,518.75
1812,1.0,,,,,,,60.0,,,,0,note_on,,70.0,60.0,70.0,124500,518.75
1813,1.0,,,,,,,60.0,,,,60,note_on,,0.0,60.0,0.0,124560,519.0
1814,1.0,,,,,,,69.0,,,,0,note_on,,0.0,69.0,0.0,124560,519.0
1815,1.0,,,,,,,57.0,,,,0,note_on,,0.0,57.0,0.0,124560,519.0
1816,1.0,,,,,,,67.0,,,,0,note_on,,70.0,67.0,70.0,124560,519.0
1817,1.0,,,,,,,59.0,,,,60,note_on,,70.0,59.0,70.0,124620,519.25
1818,1.0,,,,,,,59.0,,,,60,note_on,,0.0,59.0,0.0,124680,519.5
1819,1.0,,,,,,,62.0,,,,0,note_on,,70.0,62.0,70.0,124680,519.5
1820,1.0,,,,,,,62.0,,,,60,note_on,,0.0,62.0,0.0,124740,519.75
1821,1.0,,,,,,,67.0,,,,0,note_on,,0.0,67.0,0.0,124740,519.75
1822,1.0,,,,,,,59.0,,,,0,note_on,,70.0,59.0,70.0,124740,519.75
1823,1.0,,,,,,,71.0,,,,0,note_on,,70.0,71.0,70.0,124740,519.75
1824,1.0,,,,,,,67.0,,,,60,note_on,,70.0,67.0,70.0,124800,520.0
1825,1.0,,,,,,,67.0,,,,60,note_on,,0.0,67.0,0.0,124860,520.25
1826,1.0,,,,,,,62.0,,,,0,note_on,,70.0,62.0,70.0,124860,520.25
1827,1.0,,,,,,,62.0,,,,60,note_on,,0.0,62.0,0.0,124920,520.5
1828,1.0,,,,,,,71.0,,,,0,note_on,,0.0,71.0,0.0,124920,520.5
1829,1.0,,,,,,,59.0,,,,0,note_on,,0.0,59.0,0.0,124920,520.5
1830,1.0,,,,,,,67.0,,,,0,note_on,,70.0,67.0,70.0,124920,520.5
1831,1.0,,,,,,,59.0,,,,60,note_on,,70.0,59.0,70.0,124980,520.75
1832,1.0,,,,,,,59.0,,,,60,note_on,,0.0,59.0,0.0,125040,521.0
1833,1.0,,,,,,,64.0,,,,0,note_on,,70.0,64.0,70.0,125040,521.0
1834,1.0,,,,,,,64.0,,,,60,note_on,,0.0,64.0,0.0,125100,521.25
1835,1.0,,,,,,,67.0,,,,0,note_on,,0.0,67.0,0.0,125100,521.25
1836,1.0,,,,,,,59.0,,,,0,note_on,,70.0,59.0,70.0,125100,521.25
1837,1.0,,,,,,,71.0,,,,0,note_on,,70.0,71.0,70.0,125100,521.25
1838,1.0,,,,,,,67.0,,,,60,note_on,,70.0,67.0,70.0,125160,521.5
1839,1.0,,,,,,,67.0,,,,60,note_on,,0.0,67.0,0.0,125220,521.75
1840,1.0,,,,,,,64.0,,,,0,note_on,,70.0,64.0,70.0,125220,521.75
1841,1.0,,,,,,,64.0,,,,60,note_on,,0.0,64.0,0.0,125280,522.0
1842,1.0,,,,,,,71.0,,,,0,note_on,,0.0,71.0,0.0,125280,522.0
1843,1.0,,,,,,,59.0,,,,0,note_on,,0.0,59.0,0.0,125280,522.0
1844,1.0,,,,,,,64.0,,,,0,note_on,,70.0,64.0,70.0,125280,522.0
1845,1.0,,,,,,,57.0,,,,60,note_on,,70.0,57.0,70.0,125340,522.25
1846,1.0,,,,,,,57.0,,,,60,note_on,,0.0,57.0,0.0,125400,522.5
1847,1.0,,,,,,,60.0,,,,0,note_on,,70.0,60.0,70.0,125400,522.5
1848,1.0,,,,,,,60.0,,,,60,note_on,,0.0,60.0,0.0,125460,522.75
1849,1.0,,,,,,,64.0,,,,0,note_on,,0.0,64.0,0.0,125460,522.75
1850,1.0,,,,,,,60.0,,,,0,note_on,,70.0,60.0,70.0,125460,522.75
1851,1.0,,,,,,,69.0,,,,0,note_on,,70.0,69.0,70.0,125460,522.75
1852,1.0,,,,,,,57.0,,,,60,note_on,,70.0,57.0,70.0,125520,523.0
1853,1.0,,,,,,,57.0,,,,60,note_on,,0.0,57.0,0.0,125580,523.25
1854,1.0,,,,,,,52.0,,,,0,note_on,,70.0,52.0,70.0,125580,523.25
1855,1.0,,,,,,,52.0,,,,60,note_on,,0.0,52.0,0.0,125640,523.5
1856,1.0,,,,,,,69.0,,,,0,note_on,,0.0,69.0,0.0,125640,523.5
1857,1.0,,,,,,,60.0,,,,0,note_on,,0.0,60.0,0.0,125640,523.5
1858,1.0,,,,,,,57.0,,,,0,note_on,,65.0,57.0,65.0,125640,523.5
1859,1.0,,,,,,,60.0,,,,0,note_on,,65.0,60.0,65.0,125640,523.5
1860,1.0,,,,,,,64.0,,,,0,note_on,,65.0,64.0,65.0,125640,523.5
1861,1.0,,,,,,,64.0,,,,180,note_on,,0.0,64.0,0.0,125820,524.25
1862,1.0,,,,,,,60.0,,,,0,note_on,,0.0,60.0,0.0,125820,524.25
1863,1.0,,,,,,,57.0,,,,0,note_on,,0.0,57.0,0.0,125820,524.25
1864,1.0,,,,,,,65.0,,,,180,note_on,,70.0,65.0,70.0,126000,525.0
1865,1.0,,,,,,,57.0,,,,60,note_on,,70.0,57.0,70.0,126060,525.25
1866,1.0,,,,,,,57.0,,,,60,note_on,,0.0,57.0,0.0,126120,525.5
1867,1.0,,,,,,,60.0,,,,0,note_on,,70.0,60.0,70.0,126120,525.5
1868,1.0,,,,,,,60.0,,,,60,note_on,,0.0,60.0,0.0,126180,525.75
1869,1.0,,,,,,,65.0,,,,0,note_on,,0.0,65.0,0.0,126180,525.75
1870,1.0,,,,,,,57.0,,,,0,note_on,,70.0,57.0,70.0,126180,525.75
1871,1.0,,,,,,,69.0,,,,0,note_on,,70.0,69.0,70.0,126180,525.75
1872,1.0,,,,,,,65.0,,,,60,note_on,,70.0,65.0,70.0,126240,526.0
1873,1.0,,,,,,,65.0,,,,60,note_on,,0.0,65.0,0.0,126300,526.25
1874,1.0,,,,,,,60.0,,,,0,note_on,,70.0,60.0,70.0,126300,526.25
1875,1.0,,,,,,,60.0,,,,60,note_on,,0.0,60.0,0.0,126360,526.5
1876,1.0,,,,,,,69.0,,,,0,note_on,,0.0,69.0,0.0,126360,526.5
1877,1.0,,,,,,,57.0,,,,0,note_on,,0.0,57.0,0.0,126360,526.5
1878,1.0,,,,,,,65.0,,,,0,note_on,,70.0,65.0,70.0,126360,526.5
1879,1.0,,,,,,,57.0,,,,60,note_on,,70.0,57.0,70.0,126420,526.75
1880,1.0,,,,,,,57.0,,,,60,note_on,,0.0,57.0,0.0,126480,527.0
1881,1.0,,,,,,,60.0,,,,0,note_on,,70.0,60.0,70.0,126480,527.0
1882,1.0,,,,,,,60.0,,,,60,note_on,,0.0,60.0,0.0,126540,527.25
1883,1.0,,,,,,,65.0,,,,0,note_on,,0.0,65.0,0.0,126540,527.25
1884,1.0,,,,,,,57.0,,,,0,note_on,,70.0,57.0,70.0,126540,527.25
1885,1.0,,,,,,,69.0,,,,0,note_on,,70.0,69.0,70.0,126540,527.25
1886,1.0,,,,,,,65.0,,,,60,note_on,,70.0,65.0,70.0,126600,527.5
1887,1.0,,,,,,,65.0,,,,60,note_on,,0.0,65.0,0.0,126660,527.75
1888,1.0,,,,,,,60.0,,,,0,note_on,,70.0,60.0,70.0,126660,527.75
1889,1.0,,,,,,,60.0,,,,60,note_on,,0.0,60.0,0.0,126720,528.0
1890,1.0,,,,,,,69.0,,,,0,note_on,,0.0,69.0,0.0,126720,528.0
1891,1.0,,,,,,,57.0,,,,0,note_on,,0.0,57.0,0.0,126720,528.0
1892,1.0,,,,,,,64.0,,,,0,note_on,,70.0,64.0,70.0,126720,528.0
1893,1.0,,,,,,,57.0,,,,60,note_on,,70.0,57.0,70.0,126780,528.25
1894,1.0,,,,,,,57.0,,,,60,note_on,,0.0,57.0,0.0,126840,528.5
1895,1.0,,,,,,,60.0,,,,0,note_on,,70.0,60.0,70.0,126840,528.5
1896,1.0,,,,,,,60.0,,,,60,note_on,,0.0,60.0,0.0,126900,528.75
1897,1.0,,,,,,,64.0,,,,0,note_on,,0.0,64.0,0.0,126900,528.75
1898,1.0,,,,,,,57.0,,,,0,note_on,,70.0,57.0,70.0,126900,528.75
1899,1.0,,,,,,,69.0,,,,0,note_on,,70.0,69.0,70.0,126900,528.75
1900,1.0,,,,,,,64.0,,,,60,note_on,,70.0,64.0,70.0,126960,529.0
1901,1.0,,,,,,,64.0,,,,60,note_on,,0.0,64.0,0.0,127020,529.25
1902,1.0,,,,,,,60.0,,,,0,note_on,,70.0,60.0,70.0,127020,529.25
1903,1.0,,,,,,,60.0,,,,60,note_on,,0.0,60.0,0.0,127080,529.5
1904,1.0,,,,,,,69.0,,,,0,note_on,,0.0,69.0,0.0,127080,529.5
1905,1.0,,,,,,,57.0,,,,0,note_on,,0.0,57.0,0.0,127080,529.5
1906,1.0,,,,,,,64.0,,,,0,note_on,,70.0,64.0,70.0,127080,529.5
1907,1.0,,,,,,,57.0,,,,60,note_on,,70.0,57.0,70.0,127140,529.75
1908,1.0,,,,,,,57.0,,,,60,note_on,,0.0,57.0,0.0,127200,530.0
1909,1.0,,,,,,,60.0,,,,0,note_on,,70.0,60.0,70.0,127200,530.0
1910,1.0,,,,,,,60.0,,,,60,note_on,,0.0,60.0,0.0,127260,530.25
1911,1.0,,,,,,,64.0,,,,0,note_on,,0.0,64.0,0.0,127260,530.25
1912,1.0,,,,,,,57.0,,,,0,note_on,,70.0,57.0,70.0,127260,530.25
1913,1.0,,,,,,,69.0,,,,0,note_on,,70.0,69.0,70.0,127260,530.25
1914,1.0,,,,,,,64.0,,,,60,note_on,,70.0,64.0,70.0,127320,530.5
1915,1.0,,,,,,,64.0,,,,60,note_on,,0.0,64.0,0.0,127380,530.75
1916,1.0,,,,,,,60.0,,,,0,note_on,,70.0,60.0,70.0,127380,530.75
1917,1.0,,,,,,,60.0,,,,60,note_on,,0.0,60.0,0.0,127440,531.0
1918,1.0,,,,,,,69.0,,,,0,note_on,,0.0,69.0,0.0,127440,531.0
1919,1.0,,,,,,,57.0,,,,0,note_on,,0.0,57.0,0.0,127440,531.0
1920,1.0,,,,,,,65.0,,,,0,note_on,,70.0,65.0,70.0,127440,531.0
1921,1.0,,,,,,,57.0,,,,60,note_on,,70.0,57.0,70.0,127500,531.25
1922,1.0,,,,,,,57.0,,,,60,note_on,,0.0,57.0,0.0,127560,531.5
1923,1.0,,,,,,,60.0,,,,0,note_on,,70.0,60.0,70.0,127560,531.5
1924,1.0,,,,,,,60.0,,,,60,note_on,,0.0,60.0,0.0,127620,531.75
1925,1.0,,,,,,,65.0,,,,0,note_on,,0.0,65.0,0.0,127620,531.75
1926,1.0,,,,,,,57.0,,,,0,note_on,,70.0,57.0,70.0,127620,531.75
1927,1.0,,,,,,,69.0,,,,0,note_on,,70.0,69.0,70.0,127620,531.75
1928,1.0,,,,,,,65.0,,,,60,note_on,,70.0,65.0,70.0,127680,532.0
1929,1.0,,,,,,,65.0,,,,60,note_on,,0.0,65.0,0.0,127740,532.25
1930,1.0,,,,,,,60.0,,,,0,note_on,,70.0,60.0,70.0,127740,532.25
1931,1.0,,,,,,,60.0,,,,60,note_on,,0.0,60.0,0.0,127800,532.5
1932,1.0,,,,,,,69.0,,,,0,note_on,,0.0,69.0,0.0,127800,532.5
1933,1.0,,,,,,,57.0,,,,0,note_on,,0.0,57.0,0.0,127800,532.5
1934,1.0,,,,,,,65.0,,,,0,note_on,,70.0,65.0,70.0,127800,532.5
1935,1.0,,,,,,,57.0,,,,60,note_on,,70.0,57.0,70.0,127860,532.75
1936,1.0,,,,,,,57.0,,,,60,note_on,,0.0,57.0,0.0,127920,533.0
1937,1.0,,,,,,,60.0,,,,0,note_on,,70.0,60.0,70.0,127920,533.0
1938,1.0,,,,,,,60.0,,,,60,note_on,,0.0,60.0,0.0,127980,533.25
1939,1.0,,,,,,,65.0,,,,0,note_on,,0.0,65.0,0.0,127980,533.25
1940,1.0,,,,,,,57.0,,,,0,note_on,,70.0,57.0,70.0,127980,533.25
1941,1.0,,,,,,,69.0,,,,0,note_on,,70.0,69.0,70.0,127980,533.25
1942,1.0,,,,,,,65.0,,,,60,note_on,,70.0,65.0,70.0,128040,533.5
1943,1.0,,,,,,,65.0,,,,60,note_on,,0.0,65.0,0.0,128100,533.75
1944,1.0,,,,,,,60.0,,,,0,note_on,,70.0,60.0,70.0,128100,533.75
1945,1.0,,,,,,,60.0,,,,60,note_on,,0.0,60.0,0.0,128160,534.0
1946,1.0,,,,,,,69.0,,,,0,note_on,,0.0,69.0,0.0,128160,534.0
1947,1.0,,,,,,,57.0,,,,0,note_on,,0.0,57.0,0.0,128160,534.0
1948,1.0,,,,,,,64.0,,,,0,note_on,,70.0,64.0,70.0,128160,534.0
1949,1.0,,,,,,,55.0,,,,60,note_on,,70.0,55.0,70.0,128220,534.25
1950,1.0,,,,,,,55.0,,,,60,note_on,,0.0,55.0,0.0,128280,534.5
1951,1.0,,,,,,,60.0,,,,0,note_on,,70.0,60.0,70.0,128280,534.5
1952,1.0,,,,,,,60.0,,,,60,note_on,,0.0,60.0,0.0,128340,534.75
1953,1.0,,,,,,,64.0,,,,0,note_on,,0.0,64.0,0.0,128340,534.75
1954,1.0,,,,,,,55.0,,,,0,note_on,,70.0,55.0,70.0,128340,534.75
1955,1.0,,,,,,,67.0,,,,0,note_on,,70.0,67.0,70.0,128340,534.75
1956,1.0,,,,,,,64.0,,,,60,note_on,,70.0,64.0,70.0,128400,535.0
1957,1.0,,,,,,,64.0,,,,60,note_on,,0.0,64.0,0.0,128460,535.25
1958,1.0,,,,,,,60.0,,,,0,note_on,,70.0,60.0,70.0,128460,535.25
1959,1.0,,,,,,,60.0,,,,60,note_on,,0.0,60.0,0.0,128520,535.5
1960,1.0,,,,,,,67.0,,,,0,note_on,,0.0,67.0,0.0,128520,535.5
1961,1.0,,,,,,,55.0,,,,0,note_on,,0.0,55.0,0.0,128520,535.5
1962,1.0,,,,,,,67.0,,,,0,note_on,,70.0,67.0,70.0,128520,535.5
1963,1.0,,,,,,,59.0,,,,60,note_on,,70.0,59.0,70.0,128580,535.75
1964,1.0,,,,,,,59.0,,,,60,note_on,,0.0,59.0,0.0,128640,536.0
1965,1.0,,,,,,,62.0,,,,0,note_on,,70.0,62.0,70.0,128640,536.0
1966,1.0,,,,,,,62.0,,,,60,note_on,,0.0,62.0,0.0,128700,536.25
1967,1.0,,,,,,,67.0,,,,0,note_on,,0.0,67.0,0.0,128700,536.25
1968,1.0,,,,,,,59.0,,,,0,note_on,,70.0,59.0,70.0,128700,536.25
1969,1.0,,,,,,,71.0,,,,0,note_on,,70.0,71.0,70.0,128700,536.25
1970,1.0,,,,,,,67.0,,,,60,note_on,,70.0,67.0,70.0,128760,536.5
1971,1.0,,,,,,,67.0,,,,60,note_on,,0.0,67.0,0.0,128820,536.75
1972,1.0,,,,,,,62.0,,,,0,note_on,,70.0,62.0,70.0,128820,536.75
1973,1.0,,,,,,,62.0,,,,60,note_on,,0.0,62.0,0.0,128880,537.0
1974,1.0,,,,,,,71.0,,,,0,note_on,,0.0,71.0,0.0,128880,537.0
1975,1.0,,,,,,,59.0,,,,0,note_on,,0.0,59.0,0.0,128880,537.0
1976,1.0,,,,,,,64.0,,,,0,note_on,,70.0,64.0,70.0,128880,537.0
1977,1.0,,,,,,,55.0,,,,60,note_on,,70.0,55.0,70.0,128940,537.25
1978,1.0,,,,,,,55.0,,,,60,note_on,,0.0,55.0,0.0,129000,537.5
1979,1.0,,,,,,,60.0,,,,0,note_on,,70.0,60.0,70.0,129000,537.5
1980,1.0,,,,,,,60.0,,,,60,note_on,,0.0,60.0,0.0,129060,537.75
1981,1.0,,,,,,,64.0,,,,0,note_on,,0.0,64.0,0.0,129060,537.75
1982,1.0,,,,,,,55.0,,,,0,note_on,,70.0,55.0,70.0,129060,537.75
1983,1.0,,,,,,,67.0,,,,0,note_on,,70.0,67.0,70.0,129060,537.75
1984,1.0,,,,,,,64.0,,,,60,note_on,,70.0,64.0,70.0,129120,538.0
1985,1.0,,,,,,,64.0,,,,60,note_on,,0.0,64.0,0.0,129180,538.25
1986,1.0,,,,,,,60.0,,,,0,note_on,,70.0,60.0,70.0,129180,538.25
1987,1.0,,,,,,,60.0,,,,60,note_on,,0.0,60.0,0.0,129240,538.5
1988,1.0,,,,,,,67.0,,,,0,note_on,,0.0,67.0,0.0,129240,538.5
1989,1.0,,,,,,,55.0,,,,0,note_on,,0.0,55.0,0.0,129240,538.5
1990,1.0,,,,,,,67.0,,,,0,note_on,,70.0,67.0,70.0,129240,538.5
1991,1.0,,,,,,,59.0,,,,60,note_on,,70.0,59.0,70.0,129300,538.75
1992,1.0,,,,,,,59.0,,,,60,note_on,,0.0,59.0,0.0,129360,539.0
1993,1.0,,,,,,,62.0,,,,0,note_on,,70.0,62.0,70.0,129360,539.0
1994,1.0,,,,,,,62.0,,,,60,note_on,,0.0,62.0,0.0,129420,539.25
1995,1.0,,,,,,,67.0,,,,0,note_on,,0.0,67.0,0.0,129420,539.25
1996,1.0,,,,,,,59.0,,,,0,note_on,,70.0,59.0,70.0,129420,539.25
1997,1.0,,,,,,,71.0,,,,0,note_on,,70.0,71.0,70.0,129420,539.25
1998,1.0,,,,,,,67.0,,,,60,note_on,,70.0,67.0,70.0,129480,539.5
1999,1.0,,,,,,,67.0,,,,60,note_on,,0.0,67.0,0.0,129540,539.75
2000,1.0,,,,,,,62.0,,,,0,note_on,,70.0,62.0,70.0,129540,539.75
2001,1.0,,,,,,,62.0,,,,60,note_on,,0.0,62.0,0.0,129600,540.0
2002,1.0,,,,,,,71.0,,,,0,note_on,,0.0,71.0,0.0,129600,540.0
2003,1.0,,,,,,,59.0,,,,0,note_on,,0.0,59.0,0.0,129600,540.0
2004,1.0,,,,,,,64.0,,,,0,note_on,,70.0,64.0,70.0,129600,540.0
2005,1.0,,,,,,,57.0,,,,60,note_on,,70.0,57.0,70.0,129660,540.25
2006,1.0,,,,,,,57.0,,,,60,note_on,,0.0,57.0,0.0,129720,540.5
2007,1.0,,,,,,,60.0,,,,0,note_on,,70.0,60.0,70.0,129720,540.5
2008,1.0,,,,,,,60.0,,,,60,note_on,,0.0,60.0,0.0,129780,540.75
2009,1.0,,,,,,,64.0,,,,0,note_on,,0.0,64.0,0.0,129780,540.75
2010,1.0,,,,,,,57.0,,,,0,note_on,,70.0,57.0,70.0,129780,540.75
2011,1.0,,,,,,,69.0,,,,0,note_on,,70.0,69.0,70.0,129780,540.75
2012,1.0,,,,,,,64.0,,,,60,note_on,,70.0,64.0,70.0,129840,541.0
2013,1.0,,,,,,,64.0,,,,60,note_on,,0.0,64.0,0.0,129900,541.25
2014,1.0,,,,,,,60.0,,,,0,note_on,,70.0,60.0,70.0,129900,541.25
2015,1.0,,,,,,,60.0,,,,60,note_on,,0.0,60.0,0.0,129960,541.5
2016,1.0,,,,,,,69.0,,,,0,note_on,,0.0,69.0,0.0,129960,541.5
2017,1.0,,,,,,,57.0,,,,0,note_on,,0.0,57.0,0.0,129960,541.5
2018,1.0,,,,,,,64.0,,,,0,note_on,,70.0,64.0,70.0,129960,541.5
2019,1.0,,,,,,,55.0,,,,60,note_on,,70.0,55.0,70.0,130020,541.75
2020,1.0,,,,,,,55.0,,,,60,note_on,,0.0,55.0,0.0,130080,542.0
2021,1.0,,,,,,,60.0,,,,0,note_on,,70.0,60.0,70.0,130080,542.0
2022,1.0,,,,,,,60.0,,,,60,note_on,,0.0,60.0,0.0,130140,542.25
2023,1.0,,,,,,,64.0,,,,0,note_on,,0.0,64.0,0.0,130140,542.25
2024,1.0,,,,,,,55.0,,,,0,note_on,,70.0,55.0,70.0,130140,542.25
2025,1.0,,,,,,,67.0,,,,0,note_on,,70.0,67.0,70.0,130140,542.25
2026,1.0,,,,,,,64.0,,,,60,note_on,,70.0,64.0,70.0,130200,542.5
2027,1.0,,,,,,,64.0,,,,60,note_on,,0.0,64.0,0.0,130260,542.75
2028,1.0,,,,,,,60.0,,,,0,note_on,,70.0,60.0,70.0,130260,542.75
2029,1.0,,,,,,,60.0,,,,60,note_on,,0.0,60.0,0.0,130320,543.0
2030,1.0,,,,,,,67.0,,,,0,note_on,,0.0,67.0,0.0,130320,543.0
2031,1.0,,,,,,,55.0,,,,0,note_on,,0.0,55.0,0.0,130320,543.0
2032,1.0,,,,,,,64.0,,,,0,note_on,,70.0,64.0,70.0,130320,543.0
2033,1.0,,,,,,,57.0,,,,60,note_on,,70.0,57.0,70.0,130380,543.25
2034,1.0,,,,,,,57.0,,,,60,note_on,,0.0,57.0,0.0,130440,543.5
2035,1.0,,,,,,,60.0,,,,0,note_on,,70.0,60.0,70.0,130440,543.5
2036,1.0,,,,,,,60.0,,,,60,note_on,,0.0,60.0,0.0,130500,543.75
2037,1.0,,,,,,,64.0,,,,0,note_on,,0.0,64.0,0.0,130500,543.75
2038,1.0,,,,,,,57.0,,,,0,note_on,,70.0,57.0,70.0,130500,543.75
2039,1.0,,,,,,,69.0,,,,0,note_on,,70.0,69.0,70.0,130500,543.75
2040,1.0,,,,,,,64.0,,,,60,note_on,,70.0,64.0,70.0,130560,544.0
2041,1.0,,,,,,,64.0,,,,60,note_on,,0.0,64.0,0.0,130620,544.25
2042,1.0,,,,,,,60.0,,,,0,note_on,,70.0,60.0,70.0,130620,544.25
2043,1.0,,,,,,,60.0,,,,60,note_on,,0.0,60.0,0.0,130680,544.5
2044,1.0,,,,,,,69.0,,,,0,note_on,,0.0,69.0,0.0,130680,544.5
2045,1.0,,,,,,,57.0,,,,0,note_on,,0.0,57.0,0.0,130680,544.5
2046,1.0,,,,,,,64.0,,,,0,note_on,,70.0,64.0,70.0,130680,544.5
2047,1.0,,,,,,,55.0,,,,60,note_on,,70.0,55.0,70.0,130740,544.75
2048,1.0,,,,,,,55.0,,,,60,note_on,,0.0,55.0,0.0,130800,545.0
2049,1.0,,,,,,,60.0,,,,0,note_on,,70.0,60.0,70.0,130800,545.0
2050,1.0,,,,,,,60.0,,,,60,note_on,,0.0,60.0,0.0,130860,545.25
2051,1.0,,,,,,,64.0,,,,0,note_on,,0.0,64.0,0.0,130860,545.25
2052,1.0,,,,,,,55.0,,,,0,note_on,,70.0,55.0,70.0,130860,545.25
2053,1.0,,,,,,,67.0,,,,0,note_on,,70.0,67.0,70.0,130860,545.25
2054,1.0,,,,,,,64.0,,,,60,note_on,,70.0,64.0,70.0,130920,545.5
2055,1.0,,,,,,,64.0,,,,60,note_on,,0.0,64.0,0.0,130980,545.75
2056,1.0,,,,,,,60.0,,,,0,note_on,,70.0,60.0,70.0,130980,545.75
2057,1.0,,,,,,,60.0,,,,60,note_on,,0.0,60.0,0.0,131040,546.0
2058,1.0,,,,,,,67.0,,,,0,note_on,,0.0,67.0,0.0,131040,546.0
2059,1.0,,,,,,,55.0,,,,0,note_on,,0.0,55.0,0.0,131040,546.0
2060,1.0,,,,,,,64.0,,,,0,note_on,,70.0,64.0,70.0,131040,546.0
2061,1.0,,,,,,,57.0,,,,60,note_on,,70.0,57.0,70.0,131100,546.25
2062,1.0,,,,,,,57.0,,,,60,note_on,,0.0,57.0,0.0,131160,546.5
2063,1.0,,,,,,,60.0,,,,0,note_on,,70.0,60.0,70.0,131160,546.5
2064,1.0,,,,,,,60.0,,,,60,note_on,,0.0,60.0,0.0,131220,546.75
2065,1.0,,,,,,,64.0,,,,0,note_on,,0.0,64.0,0.0,131220,546.75
2066,1.0,,,,,,,57.0,,,,0,note_on,,70.0,57.0,70.0,131220,546.75
2067,1.0,,,,,,,69.0,,,,0,note_on,,70.0,69.0,70.0,131220,546.75
2068,1.0,,,,,,,64.0,,,,60,note_on,,70.0,64.0,70.0,131280,547.0
2069,1.0,,,,,,,64.0,,,,60,note_on,,0.0,64.0,0.0,131340,547.25
2070,1.0,,,,,,,60.0,,,,0,note_on,,70.0,60.0,70.0,131340,547.25
2071,1.0,,,,,,,60.0,,,,60,note_on,,0.0,60.0,0.0,131400,547.5
2072,1.0,,,,,,,69.0,,,,0,note_on,,0.0,69.0,0.0,131400,547.5
2073,1.0,,,,,,,57.0,,,,0,note_on,,0.0,57.0,0.0,131400,547.5
2074,1.0,,,,,,,65.0,,,,0,note_on,,70.0,65.0,70.0,131400,547.5
2075,1.0,,,,,,,57.0,,,,60,note_on,,70.0,57.0,70.0,131460,547.75
2076,1.0,,,,,,,57.0,,,,60,note_on,,0.0,57.0,0.0,131520,548.0
2077,1.0,,,,,,,60.0,,,,0,note_on,,70.0,60.0,70.0,131520,548.0
2078,1.0,,,,,,,60.0,,,,60,note_on,,0.0,60.0,0.0,131580,548.25
2079,1.0,,,,,,,65.0,,,,0,note_on,,0.0,65.0,0.0,131580,548.25
2080,1.0,,,,,,,57.0,,,,0,note_on,,70.0,57.0,70.0,131580,548.25
2081,1.0,,,,,,,69.0,,,,0,note_on,,70.0,69.0,70.0,131580,548.25
2082,1.0,,,,,,,65.0,,,,60,note_on,,70.0,65.0,70.0,131640,548.5
2083,1.0,,,,,,,65.0,,,,60,note_on,,0.0,65.0,0.0,131700,548.75
2084,1.0,,,,,,,60.0,,,,0,note_on,,70.0,60.0,70.0,131700,548.75
2085,1.0,,,,,,,60.0,,,,60,note_on,,0.0,60.0,0.0,131760,549.0
2086,1.0,,,,,,,69.0,,,,0,note_on,,0.0,69.0,0.0,131760,549.0
2087,1.0,,,,,,,57.0,,,,0,note_on,,0.0,57.0,0.0,131760,549.0
2088,1.0,,,,,,,67.0,,,,0,note_on,,70.0,67.0,70.0,131760,549.0
2089,1.0,,,,,,,59.0,,,,60,note_on,,70.0,59.0,70.0,131820,549.25
2090,1.0,,,,,,,59.0,,,,60,note_on,,0.0,59.0,0.0,131880,549.5
2091,1.0,,,,,,,62.0,,,,0,note_on,,70.0,62.0,70.0,131880,549.5
2092,1.0,,,,,,,62.0,,,,60,note_on,,0.0,62.0,0.0,131940,549.75
2093,1.0,,,,,,,67.0,,,,0,note_on,,0.0,67.0,0.0,131940,549.75
2094,1.0,,,,,,,59.0,,,,0,note_on,,70.0,59.0,70.0,131940,549.75
2095,1.0,,,,,,,71.0,,,,0,note_on,,70.0,71.0,70.0,131940,549.75
2096,1.0,,,,,,,67.0,,,,60,note_on,,70.0,67.0,70.0,132000,550.0
2097,1.0,,,,,,,67.0,,,,60,note_on,,0.0,67.0,0.0,132060,550.25
2098,1.0,,,,,,,62.0,,,,0,note_on,,70.0,62.0,70.0,132060,550.25
2099,1.0,,,,,,,62.0,,,,60,note_on,,0.0,62.0,0.0,132120,550.5
2100,1.0,,,,,,,71.0,,,,0,note_on,,0.0,71.0,0.0,132120,550.5
2101,1.0,,,,,,,59.0,,,,0,note_on,,0.0,59.0,0.0,132120,550.5
2102,1.0,,,,,,,64.0,,,,0,note_on,,70.0,64.0,70.0,132120,550.5
2103,1.0,,,,,,,55.0,,,,60,note_on,,70.0,55.0,70.0,132180,550.75
2104,1.0,,,,,,,55.0,,,,60,note_on,,0.0,55.0,0.0,132240,551.0
2105,1.0,,,,,,,60.0,,,,0,note_on,,70.0,60.0,70.0,132240,551.0
2106,1.0,,,,,,,60.0,,,,60,note_on,,0.0,60.0,0.0,132300,551.25
2107,1.0,,,,,,,64.0,,,,0,note_on,,0.0,64.0,0.0,132300,551.25
2108,1.0,,,,,,,55.0,,,,0,note_on,,70.0,55.0,70.0,132300,551.25
2109,1.0,,,,,,,67.0,,,,0,note_on,,70.0,67.0,70.0,132300,551.25
2110,1.0,,,,,,,64.0,,,,60,note_on,,70.0,64.0,70.0,132360,551.5
2111,1.0,,,,,,,64.0,,,,60,note_on,,0.0,64.0,0.0,132420,551.75
2112,1.0,,,,,,,60.0,,,,0,note_on,,70.0,60.0,70.0,132420,551.75
2113,1.0,,,,,,,60.0,,,,60,note_on,,0.0,60.0,0.0,132480,552.0
2114,1.0,,,,,,,67.0,,,,0,note_on,,0.0,67.0,0.0,132480,552.0
2115,1.0,,,,,,,55.0,,,,0,note_on,,0.0,55.0,0.0,132480,552.0
2116,1.0,,,,,,,62.0,,,,0,note_on,,70.0,62.0,70.0,132480,552.0
2117,1.0,,,,,,,59.0,,,,60,note_on,,70.0,59.0,70.0,132540,552.25
2118,1.0,,,,,,,59.0,,,,60,note_on,,0.0,59.0,0.0,132600,552.5
2119,1.0,,,,,,,62.0,,,,0,note_on,,70.0,62.0,70.0,132600,552.5
2120,1.0,,,,,,,62.0,,,,60,note_on,,0.0,62.0,0.0,132660,552.75
2121,1.0,,,,,,,62.0,,,,0,note_on,,0.0,62.0,0.0,132660,552.75
2122,1.0,,,,,,,67.0,,,,0,note_on,,70.0,67.0,70.0,132660,552.75
2123,1.0,,,,,,,59.0,,,,0,note_on,,70.0,59.0,70.0,132660,552.75
2124,1.0,,,,,,,62.0,,,,60,note_on,,70.0,62.0,70.0,132720,553.0
2125,1.0,,,,,,,62.0,,,,60,note_on,,0.0,62.0,0.0,132780,553.25
2126,1.0,,,,,,,59.0,,,,0,note_on,,70.0,59.0,70.0,132780,553.25
2127,1.0,,,,,,,59.0,,,,60,note_on,,0.0,59.0,0.0,132840,553.5
2128,1.0,,,,,,,59.0,,,,0,note_on,,0.0,59.0,0.0,132840,553.5
2129,1.0,,,,,,,67.0,,,,0,note_on,,0.0,67.0,0.0,132840,553.5
2130,1.0,,,,,,,64.0,,,,0,note_on,,70.0,64.0,70.0,132840,553.5
2131,1.0,,,,,,,55.0,,,,60,note_on,,70.0,55.0,70.0,132900,553.75
2132,1.0,,,,,,,55.0,,,,60,note_on,,0.0,55.0,0.0,132960,554.0
2133,1.0,,,,,,,60.0,,,,0,note_on,,70.0,60.0,70.0,132960,554.0
2134,1.0,,,,,,,60.0,,,,60,note_on,,0.0,60.0,0.0,133020,554.25
2135,1.0,,,,,,,64.0,,,,0,note_on,,0.0,64.0,0.0,133020,554.25
2136,1.0,,,,,,,55.0,,,,0,note_on,,70.0,55.0,70.0,133020,554.25
2137,1.0,,,,,,,67.0,,,,0,note_on,,70.0,67.0,70.0,133020,554.25
2138,1.0,,,,,,,64.0,,,,60,note_on,,70.0,64.0,70.0,133080,554.5
2139,1.0,,,,,,,64.0,,,,60,note_on,,0.0,64.0,0.0,133140,554.75
2140,1.0,,,,,,,60.0,,,,0,note_on,,70.0,60.0,70.0,133140,554.75
2141,1.0,,,,,,,60.0,,,,60,note_on,,0.0,60.0,0.0,133200,555.0
2142,1.0,,,,,,,67.0,,,,0,note_on,,0.0,67.0,0.0,133200,555.0
2143,1.0,,,,,,,55.0,,,,0,note_on,,0.0,55.0,0.0,133200,555.0
2144,1.0,,,,,,,60.0,,,,0,note_on,,70.0,60.0,70.0,133200,555.0
2145,1.0,,,,,,,65.0,,,,0,note_on,,70.0,65.0,70.0,133200,555.0
2146,1.0,,,,,,,48.0,,,,60,note_on,,70.0,48.0,70.0,133260,555.25
2147,1.0,,,,,,,48.0,,,,60,note_on,,0.0,48.0,0.0,133320,555.5
2148,1.0,,,,,,,53.0,,,,0,note_on,,70.0,53.0,70.0,133320,555.5
2149,1.0,,,,,,,53.0,,,,60,note_on,,0.0,53.0,0.0,133380,555.75
2150,1.0,,,,,,,65.0,,,,0,note_on,,0.0,65.0,0.0,133380,555.75
2151,1.0,,,,,,,60.0,,,,0,note_on,,0.0,60.0,0.0,133380,555.75
2152,1.0,,,,,,,62.0,,,,0,note_on,,70.0,62.0,70.0,133380,555.75
2153,1.0,,,,,,,71.0,,,,0,note_on,,70.0,71.0,70.0,133380,555.75
2154,1.0,,,,,,,50.0,,,,60,note_on,,76.0,50.0,76.0,133440,556.0
2155,1.0,,,,,,,50.0,,,,60,note_on,,0.0,50.0,0.0,133500,556.25
2156,1.0,,,,,,,55.0,,,,0,note_on,,76.0,55.0,76.0,133500,556.25
2157,1.0,,,,,,,55.0,,,,60,note_on,,0.0,55.0,0.0,133560,556.5
2158,1.0,,,,,,,71.0,,,,0,note_on,,0.0,71.0,0.0,133560,556.5
2159,1.0,,,,,,,62.0,,,,0,note_on,,0.0,62.0,0.0,133560,556.5
2160,1.0,,,,,,,64.0,,,,0,note_on,,70.0,64.0,70.0,133560,556.5
2161,1.0,,,,,,,57.0,,,,60,note_on,,70.0,57.0,70.0,133620,556.75
2162,1.0,,,,,,,57.0,,,,60,note_on,,0.0,57.0,0.0,133680,557.0
2163,1.0,,,,,,,60.0,,,,0,note_on,,70.0,60.0,70.0,133680,557.0
2164,1.0,,,,,,,60.0,,,,60,note_on,,0.0,60.0,0.0,133740,557.25
2165,1.0,,,,,,,64.0,,,,0,note_on,,0.0,64.0,0.0,133740,557.25
2166,1.0,,,,,,,57.0,,,,0,note_on,,70.0,57.0,70.0,133740,557.25
2167,1.0,,,,,,,69.0,,,,0,note_on,,70.0,69.0,70.0,133740,557.25
2168,1.0,,,,,,,64.0,,,,60,note_on,,70.0,64.0,70.0,133800,557.5
2169,1.0,,,,,,,64.0,,,,60,note_on,,0.0,64.0,0.0,133860,557.75
2170,1.0,,,,,,,60.0,,,,0,note_on,,70.0,60.0,70.0,133860,557.75
2171,1.0,,,,,,,60.0,,,,60,note_on,,0.0,60.0,0.0,133920,558.0
2172,1.0,,,,,,,69.0,,,,0,note_on,,0.0,69.0,0.0,133920,558.0
2173,1.0,,,,,,,57.0,,,,0,note_on,,0.0,57.0,0.0,133920,558.0
2174,1.0,,,,,,,65.0,,,,0,note_on,,70.0,65.0,70.0,133920,558.0
2175,1.0,,,,,,,57.0,,,,60,note_on,,70.0,57.0,70.0,133980,558.25
2176,1.0,,,,,,,57.0,,,,60,note_on,,0.0,57.0,0.0,134040,558.5
2177,1.0,,,,,,,60.0,,,,0,note_on,,70.0,60.0,70.0,134040,558.5
2178,1.0,,,,,,,60.0,,,,60,note_on,,0.0,60.0,0.0,134100,558.75
2179,1.0,,,,,,,65.0,,,,0,note_on,,0.0,65.0,0.0,134100,558.75
2180,1.0,,,,,,,57.0,,,,0,note_on,,70.0,57.0,70.0,134100,558.75
2181,1.0,,,,,,,69.0,,,,0,note_on,,70.0,69.0,70.0,134100,558.75
2182,1.0,,,,,,,65.0,,,,60,note_on,,70.0,65.0,70.0,134160,559.0
2183,1.0,,,,,,,65.0,,,,60,note_on,,0.0,65.0,0.0,134220,559.25
2184,1.0,,,,,,,60.0,,,,0,note_on,,70.0,60.0,70.0,134220,559.25
2185,1.0,,,,,,,60.0,,,,60,note_on,,0.0,60.0,0.0,134280,559.5
2186,1.0,,,,,,,69.0,,,,0,note_on,,0.0,69.0,0.0,134280,559.5
2187,1.0,,,,,,,57.0,,,,0,note_on,,0.0,57.0,0.0,134280,559.5
2188,1.0,,,,,,,67.0,,,,0,note_on,,70.0,67.0,70.0,134280,559.5
2189,1.0,,,,,,,59.0,,,,60,note_on,,70.0,59.0,70.0,134340,559.75
2190,1.0,,,,,,,59.0,,,,60,note_on,,0.0,59.0,0.0,134400,560.0
2191,1.0,,,,,,,62.0,,,,0,note_on,,70.0,62.0,70.0,134400,560.0
2192,1.0,,,,,,,62.0,,,,60,note_on,,0.0,62.0,0.0,134460,560.25
2193,1.0,,,,,,,67.0,,,,0,note_on,,0.0,67.0,0.0,134460,560.25
2194,1.0,,,,,,,59.0,,,,0,note_on,,70.0,59.0,70.0,134460,560.25
2195,1.0,,,,,,,71.0,,,,0,note_on,,70.0,71.0,70.0,134460,560.25
2196,1.0,,,,,,,67.0,,,,60,note_on,,70.0,67.0,70.0,134520,560.5
2197,1.0,,,,,,,67.0,,,,60,note_on,,0.0,67.0,0.0,134580,560.75
2198,1.0,,,,,,,62.0,,,,0,note_on,,70.0,62.0,70.0,134580,560.75
2199,1.0,,,,,,,62.0,,,,60,note_on,,0.0,62.0,0.0,134640,561.0
2200,1.0,,,,,,,71.0,,,,0,note_on,,0.0,71.0,0.0,134640,561.0
2201,1.0,,,,,,,59.0,,,,0,note_on,,0.0,59.0,0.0,134640,561.0
2202,1.0,,,,,,,67.0,,,,0,note_on,,70.0,67.0,70.0,134640,561.0
2203,1.0,,,,,,,59.0,,,,60,note_on,,70.0,59.0,70.0,134700,561.25
2204,1.0,,,,,,,59.0,,,,60,note_on,,0.0,59.0,0.0,134760,561.5
2205,1.0,,,,,,,64.0,,,,0,note_on,,70.0,64.0,70.0,134760,561.5
2206,1.0,,,,,,,64.0,,,,60,note_on,,0.0,64.0,0.0,134820,561.75
2207,1.0,,,,,,,67.0,,,,0,note_on,,0.0,67.0,0.0,134820,561.75
2208,1.0,,,,,,,59.0,,,,0,note_on,,70.0,59.0,70.0,134820,561.75
2209,1.0,,,,,,,71.0,,,,0,note_on,,70.0,71.0,70.0,134820,561.75
2210,1.0,,,,,,,67.0,,,,60,note_on,,70.0,67.0,70.0,134880,562.0
2211,1.0,,,,,,,67.0,,,,60,note_on,,0.0,67.0,0.0,134940,562.25
2212,1.0,,,,,,,64.0,,,,0,note_on,,70.0,64.0,70.0,134940,562.25
2213,1.0,,,,,,,64.0,,,,60,note_on,,0.0,64.0,0.0,135000,562.5
2214,1.0,,,,,,,71.0,,,,0,note_on,,0.0,71.0,0.0,135000,562.5
2215,1.0,,,,,,,59.0,,,,0,note_on,,0.0,59.0,0.0,135000,562.5
2216,1.0,,,,,,,64.0,,,,0,note_on,,70.0,64.0,70.0,135000,562.5
2217,1.0,,,,,,,57.0,,,,60,note_on,,70.0,57.0,70.0,135060,562.75
2218,1.0,,,,,,,57.0,,,,60,note_on,,0.0,57.0,0.0,135120,563.0
2219,1.0,,,,,,,60.0,,,,0,note_on,,70.0,60.0,70.0,135120,563.0
2220,1.0,,,,,,,60.0,,,,60,note_on,,0.0,60.0,0.0,135180,563.25
2221,1.0,,,,,,,64.0,,,,0,note_on,,0.0,64.0,0.0,135180,563.25
2222,1.0,,,,,,,60.0,,,,0,note_on,,70.0,60.0,70.0,135180,563.25
2223,1.0,,,,,,,69.0,,,,0,note_on,,70.0,69.0,70.0,135180,563.25
2224,1.0,,,,,,,57.0,,,,60,note_on,,70.0,57.0,70.0,135240,563.5
2225,1.0,,,,,,,57.0,,,,60,note_on,,0.0,57.0,0.0,135300,563.75
2226,1.0,,,,,,,52.0,,,,0,note_on,,70.0,52.0,70.0,135300,563.75
2227,1.0,,,,,,,52.0,,,,60,note_on,,0.0,52.0,0.0,135360,564.0
2228,1.0,,,,,,,69.0,,,,0,note_on,,0.0,69.0,0.0,135360,564.0
2229,1.0,,,,,,,60.0,,,,0,note_on,,0.0,60.0,0.0,135360,564.0
2230,1.0,,,,,,,57.0,,,,0,note_on,,65.0,57.0,65.0,135360,564.0
2231,1.0,,,,,,,60.0,,,,0,note_on,,65.0,60.0,65.0,135360,564.0
2232,1.0,,,,,,,64.0,,,,0,note_on,,65.0,64.0,65.0,135360,564.0
2233,1.0,,,,,,,64.0,,,,180,note_on,,0.0,64.0,0.0,135540,564.75
2234,1.0,,,,,,,60.0,,,,0,note_on,,0.0,60.0,0.0,135540,564.75
2235,1.0,,,,,,,57.0,,,,0,note_on,,0.0,57.0,0.0,135540,564.75
2236,1.0,,,,,,,65.0,,,,180,note_on,,70.0,65.0,70.0,135720,565.5
2237,1.0,,,,,,,57.0,,,,60,note_on,,70.0,57.0,70.0,135780,565.75
2238,1.0,,,,,,,57.0,,,,60,note_on,,0.0,57.0,0.0,135840,566.0
2239,1.0,,,,,,,60.0,,,,0,note_on,,70.0,60.0,70.0,135840,566.0
2240,1.0,,,,,,,60.0,,,,60,note_on,,0.0,60.0,0.0,135900,566.25
2241,1.0,,,,,,,65.0,,,,0,note_on,,0.0,65.0,0.0,135900,566.25
2242,1.0,,,,,,,57.0,,,,0,note_on,,70.0,57.0,70.0,135900,566.25
2243,1.0,,,,,,,69.0,,,,0,note_on,,70.0,69.0,70.0,135900,566.25
2244,1.0,,,,,,,65.0,,,,60,note_on,,70.0,65.0,70.0,135960,566.5
2245,1.0,,,,,,,65.0,,,,60,note_on,,0.0,65.0,0.0,136020,566.75
2246,1.0,,,,,,,60.0,,,,0,note_on,,70.0,60.0,70.0,136020,566.75
2247,1.0,,,,,,,60.0,,,,60,note_on,,0.0,60.0,0.0,136080,567.0
2248,1.0,,,,,,,69.0,,,,0,note_on,,0.0,69.0,0.0,136080,567.0
2249,1.0,,,,,,,57.0,,,,0,note_on,,0.0,57.0,0.0,136080,567.0
2250,1.0,,,,,,,65.0,,,,0,note_on,,70.0,65.0,70.0,136080,567.0
2251,1.0,,,,,,,57.0,,,,60,note_on,,70.0,57.0,70.0,136140,567.25
2252,1.0,,,,,,,57.0,,,,60,note_on,,0.0,57.0,0.0,136200,567.5
2253,1.0,,,,,,,60.0,,,,0,note_on,,70.0,60.0,70.0,136200,567.5
2254,1.0,,,,,,,60.0,,,,60,note_on,,0.0,60.0,0.0,136260,567.75
2255,1.0,,,,,,,65.0,,,,0,note_on,,0.0,65.0,0.0,136260,567.75
2256,1.0,,,,,,,57.0,,,,0,note_on,,70.0,57.0,70.0,136260,567.75
2257,1.0,,,,,,,69.0,,,,0,note_on,,70.0,69.0,70.0,136260,567.75
2258,1.0,,,,,,,65.0,,,,60,note_on,,70.0,65.0,70.0,136320,568.0
2259,1.0,,,,,,,65.0,,,,60,note_on,,0.0,65.0,0.0,136380,568.25
2260,1.0,,,,,,,60.0,,,,0,note_on,,70.0,60.0,70.0,136380,568.25
2261,1.0,,,,,,,60.0,,,,60,note_on,,0.0,60.0,0.0,136440,568.5
2262,1.0,,,,,,,69.0,,,,0,note_on,,0.0,69.0,0.0,136440,568.5
2263,1.0,,,,,,,57.0,,,,0,note_on,,0.0,57.0,0.0,136440,568.5
2264,1.0,,,,,,,64.0,,,,0,note_on,,70.0,64.0,70.0,136440,568.5
2265,1.0,,,,,,,57.0,,,,60,note_on,,70.0,57.0,70.0,136500,568.75
2266,1.0,,,,,,,57.0,,,,60,note_on,,0.0,57.0,0.0,136560,569.0
2267,1.0,,,,,,,60.0,,,,0,note_on,,70.0,60.0,70.0,136560,569.0
2268,1.0,,,,,,,60.0,,,,60,note_on,,0.0,60.0,0.0,136620,569.25
2269,1.0,,,,,,,64.0,,,,0,note_on,,0.0,64.0,0.0,136620,569.25
2270,1.0,,,,,,,57.0,,,,0,note_on,,70.0,57.0,70.0,136620,569.25
2271,1.0,,,,,,,69.0,,,,0,note_on,,70.0,69.0,70.0,136620,569.25
2272,1.0,,,,,,,64.0,,,,60,note_on,,70.0,64.0,70.0,136680,569.5
2273,1.0,,,,,,,64.0,,,,60,note_on,,0.0,64.0,0.0,136740,569.75
2274,1.0,,,,,,,60.0,,,,0,note_on,,70.0,60.0,70.0,136740,569.75
2275,1.0,,,,,,,60.0,,,,60,note_on,,0.0,60.0,0.0,136800,570.0
2276,1.0,,,,,,,69.0,,,,0,note_on,,0.0,69.0,0.0,136800,570.0
2277,1.0,,,,,,,57.0,,,,0,note_on,,0.0,57.0,0.0,136800,570.0
2278,1.0,,,,,,,64.0,,,,0,note_on,,70.0,64.0,70.0,136800,570.0
2279,1.0,,,,,,,57.0,,,,60,note_on,,70.0,57.0,70.0,136860,570.25
2280,1.0,,,,,,,57.0,,,,60,note_on,,0.0,57.0,0.0,136920,570.5
2281,1.0,,,,,,,60.0,,,,0,note_on,,70.0,60.0,70.0,136920,570.5
2282,1.0,,,,,,,60.0,,,,60,note_on,,0.0,60.0,0.0,136980,570.75
2283,1.0,,,,,,,64.0,,,,0,note_on,,0.0,64.0,0.0,136980,570.75
2284,1.0,,,,,,,57.0,,,,0,note_on,,70.0,57.0,70.0,136980,570.75
2285,1.0,,,,,,,69.0,,,,0,note_on,,70.0,69.0,70.0,136980,570.75
2286,1.0,,,,,,,64.0,,,,60,note_on,,70.0,64.0,70.0,137040,571.0
2287,1.0,,,,,,,64.0,,,,60,note_on,,0.0,64.0,0.0,137100,571.25
2288,1.0,,,,,,,60.0,,,,0,note_on,,70.0,60.0,70.0,137100,571.25
2289,1.0,,,,,,,60.0,,,,60,note_on,,0.0,60.0,0.0,137160,571.5
2290,1.0,,,,,,,69.0,,,,0,note_on,,0.0,69.0,0.0,137160,571.5
2291,1.0,,,,,,,57.0,,,,0,note_on,,0.0,57.0,0.0,137160,571.5
2292,1.0,,,,,,,65.0,,,,0,note_on,,70.0,65.0,70.0,137160,571.5
2293,1.0,,,,,,,57.0,,,,60,note_on,,70.0,57.0,70.0,137220,571.75
2294,1.0,,,,,,,57.0,,,,60,note_on,,0.0,57.0,0.0,137280,572.0
2295,1.0,,,,,,,60.0,,,,0,note_on,,70.0,60.0,70.0,137280,572.0
2296,1.0,,,,,,,60.0,,,,60,note_on,,0.0,60.0,0.0,137340,572.25
2297,1.0,,,,,,,65.0,,,,0,note_on,,0.0,65.0,0.0,137340,572.25
2298,1.0,,,,,,,57.0,,,,0,note_on,,70.0,57.0,70.0,137340,572.25
2299,1.0,,,,,,,69.0,,,,0,note_on,,70.0,69.0,70.0,137340,572.25
2300,1.0,,,,,,,65.0,,,,60,note_on,,70.0,65.0,70.0,137400,572.5
2301,1.0,,,,,,,65.0,,,,60,note_on,,0.0,65.0,0.0,137460,572.75
2302,1.0,,,,,,,60.0,,,,0,note_on,,70.0,60.0,70.0,137460,572.75
2303,1.0,,,,,,,60.0,,,,60,note_on,,0.0,60.0,0.0,137520,573.0
2304,1.0,,,,,,,69.0,,,,0,note_on,,0.0,69.0,0.0,137520,573.0
2305,1.0,,,,,,,57.0,,,,0,note_on,,0.0,57.0,0.0,137520,573.0
2306,1.0,,,,,,,65.0,,,,0,note_on,,70.0,65.0,70.0,137520,573.0
2307,1.0,,,,,,,57.0,,,,60,note_on,,70.0,57.0,70.0,137580,573.25
2308,1.0,,,,,,,57.0,,,,60,note_on,,0.0,57.0,0.0,137640,573.5
2309,1.0,,,,,,,60.0,,,,0,note_on,,70.0,60.0,70.0,137640,573.5
2310,1.0,,,,,,,60.0,,,,60,note_on,,0.0,60.0,0.0,137700,573.75
2311,1.0,,,,,,,65.0,,,,0,note_on,,0.0,65.0,0.0,137700,573.75
2312,1.0,,,,,,,57.0,,,,0,note_on,,70.0,57.0,70.0,137700,573.75
2313,1.0,,,,,,,69.0,,,,0,note_on,,70.0,69.0,70.0,137700,573.75
2314,1.0,,,,,,,65.0,,,,60,note_on,,70.0,65.0,70.0,137760,574.0
2315,1.0,,,,,,,65.0,,,,60,note_on,,0.0,65.0,0.0,137820,574.25
2316,1.0,,,,,,,60.0,,,,0,note_on,,70.0,60.0,70.0,137820,574.25
2317,1.0,,,,,,,60.0,,,,60,note_on,,0.0,60.0,0.0,137880,574.5
2318,1.0,,,,,,,69.0,,,,0,note_on,,0.0,69.0,0.0,137880,574.5
2319,1.0,,,,,,,57.0,,,,0,note_on,,0.0,57.0,0.0,137880,574.5
2320,1.0,,,,,,,64.0,,,,0,note_on,,70.0,64.0,70.0,137880,574.5
2321,1.0,,,,,,,55.0,,,,60,note_on,,70.0,55.0,70.0,137940,574.75
2322,1.0,,,,,,,55.0,,,,60,note_on,,0.0,55.0,0.0,138000,575.0
2323,1.0,,,,,,,60.0,,,,0,note_on,,70.0,60.0,70.0,138000,575.0
2324,1.0,,,,,,,60.0,,,,60,note_on,,0.0,60.0,0.0,138060,575.25
2325,1.0,,,,,,,64.0,,,,0,note_on,,0.0,64.0,0.0,138060,575.25
2326,1.0,,,,,,,55.0,,,,0,note_on,,70.0,55.0,70.0,138060,575.25
2327,1.0,,,,,,,67.0,,,,0,note_on,,70.0,67.0,70.0,138060,575.25
2328,1.0,,,,,,,64.0,,,,60,note_on,,70.0,64.0,70.0,138120,575.5
2329,1.0,,,,,,,64.0,,,,60,note_on,,0.0,64.0,0.0,138180,575.75
2330,1.0,,,,,,,60.0,,,,0,note_on,,70.0,60.0,70.0,138180,575.75
2331,1.0,,,,,,,60.0,,,,60,note_on,,0.0,60.0,0.0,138240,576.0
2332,1.0,,,,,,,67.0,,,,0,note_on,,0.0,67.0,0.0,138240,576.0
2333,1.0,,,,,,,55.0,,,,0,note_on,,0.0,55.0,0.0,138240,576.0
2334,1.0,,,,,,,67.0,,,,0,note_on,,70.0,67.0,70.0,138240,576.0
2335,1.0,,,,,,,59.0,,,,60,note_on,,70.0,59.0,70.0,138300,576.25
2336,1.0,,,,,,,59.0,,,,60,note_on,,0.0,59.0,0.0,138360,576.5
2337,1.0,,,,,,,62.0,,,,0,note_on,,70.0,62.0,70.0,138360,576.5
2338,1.0,,,,,,,62.0,,,,60,note_on,,0.0,62.0,0.0,138420,576.75
2339,1.0,,,,,,,67.0,,,,0,note_on,,0.0,67.0,0.0,138420,576.75
2340,1.0,,,,,,,59.0,,,,0,note_on,,70.0,59.0,70.0,138420,576.75
2341,1.0,,,,,,,71.0,,,,0,note_on,,70.0,71.0,70.0,138420,576.75
2342,1.0,,,,,,,67.0,,,,60,note_on,,70.0,67.0,70.0,138480,577.0
2343,1.0,,,,,,,67.0,,,,60,note_on,,0.0,67.0,0.0,138540,577.25
2344,1.0,,,,,,,62.0,,,,0,note_on,,70.0,62.0,70.0,138540,577.25
2345,1.0,,,,,,,62.0,,,,60,note_on,,0.0,62.0,0.0,138600,577.5
2346,1.0,,,,,,,71.0,,,,0,note_on,,0.0,71.0,0.0,138600,577.5
2347,1.0,,,,,,,59.0,,,,0,note_on,,0.0,59.0,0.0,138600,577.5
2348,1.0,,,,,,,64.0,,,,0,note_on,,70.0,64.0,70.0,138600,577.5
2349,1.0,,,,,,,55.0,,,,60,note_on,,70.0,55.0,70.0,138660,577.75
2350,1.0,,,,,,,55.0,,,,60,note_on,,0.0,55.0,0.0,138720,578.0
2351,1.0,,,,,,,60.0,,,,0,note_on,,70.0,60.0,70.0,138720,578.0
2352,1.0,,,,,,,60.0,,,,60,note_on,,0.0,60.0,0.0,138780,578.25
2353,1.0,,,,,,,64.0,,,,0,note_on,,0.0,64.0,0.0,138780,578.25
2354,1.0,,,,,,,55.0,,,,0,note_on,,70.0,55.0,70.0,138780,578.25
2355,1.0,,,,,,,67.0,,,,0,note_on,,70.0,67.0,70.0,138780,578.25
2356,1.0,,,,,,,64.0,,,,60,note_on,,70.0,64.0,70.0,138840,578.5
2357,1.0,,,,,,,64.0,,,,60,note_on,,0.0,64.0,0.0,138900,578.75
2358,1.0,,,,,,,60.0,,,,0,note_on,,70.0,60.0,70.0,138900,578.75
2359,1.0,,,,,,,60.0,,,,60,note_on,,0.0,60.0,0.0,138960,579.0
2360,1.0,,,,,,,67.0,,,,0,note_on,,0.0,67.0,0.0,138960,579.0
2361,1.0,,,,,,,55.0,,,,0,note_on,,0.0,55.0,0.0,138960,579.0
2362,1.0,,,,,,,67.0,,,,0,note_on,,70.0,67.0,70.0,138960,579.0
2363,1.0,,,,,,,59.0,,,,60,note_on,,70.0,59.0,70.0,139020,579.25
2364,1.0,,,,,,,59.0,,,,60,note_on,,0.0,59.0,0.0,139080,579.5
2365,1.0,,,,,,,62.0,,,,0,note_on,,70.0,62.0,70.0,139080,579.5
2366,1.0,,,,,,,62.0,,,,60,note_on,,0.0,62.0,0.0,139140,579.75
2367,1.0,,,,,,,67.0,,,,0,note_on,,0.0,67.0,0.0,139140,579.75
2368,1.0,,,,,,,59.0,,,,0,note_on,,70.0,59.0,70.0,139140,579.75
2369,1.0,,,,,,,71.0,,,,0,note_on,,70.0,71.0,70.0,139140,579.75
2370,1.0,,,,,,,67.0,,,,60,note_on,,70.0,67.0,70.0,139200,580.0
2371,1.0,,,,,,,67.0,,,,60,note_on,,0.0,67.0,0.0,139260,580.25
2372,1.0,,,,,,,62.0,,,,0,note_on,,70.0,62.0,70.0,139260,580.25
2373,1.0,,,,,,,62.0,,,,60,note_on,,0.0,62.0,0.0,139320,580.5
2374,1.0,,,,,,,71.0,,,,0,note_on,,0.0,71.0,0.0,139320,580.5
2375,1.0,,,,,,,59.0,,,,0,note_on,,0.0,59.0,0.0,139320,580.5
2376,1.0,,,,,,,64.0,,,,0,note_on,,70.0,64.0,70.0,139320,580.5
2377,1.0,,,,,,,57.0,,,,60,note_on,,70.0,57.0,70.0,139380,580.75
2378,1.0,,,,,,,57.0,,,,60,note_on,,0.0,57.0,0.0,139440,581.0
2379,1.0,,,,,,,60.0,,,,0,note_on,,70.0,60.0,70.0,139440,581.0
2380,1.0,,,,,,,60.0,,,,60,note_on,,0.0,60.0,0.0,139500,581.25
2381,1.0,,,,,,,64.0,,,,0,note_on,,0.0,64.0,0.0,139500,581.25
2382,1.0,,,,,,,57.0,,,,0,note_on,,70.0,57.0,70.0,139500,581.25
2383,1.0,,,,,,,69.0,,,,0,note_on,,70.0,69.0,70.0,139500,581.25
2384,1.0,,,,,,,64.0,,,,60,note_on,,70.0,64.0,70.0,139560,581.5
2385,1.0,,,,,,,64.0,,,,60,note_on,,0.0,64.0,0.0,139620,581.75
2386,1.0,,,,,,,60.0,,,,0,note_on,,70.0,60.0,70.0,139620,581.75
2387,1.0,,,,,,,60.0,,,,60,note_on,,0.0,60.0,0.0,139680,582.0
2388,1.0,,,,,,,69.0,,,,0,note_on,,0.0,69.0,0.0,139680,582.0
2389,1.0,,,,,,,57.0,,,,0,note_on,,0.0,57.0,0.0,139680,582.0
2390,1.0,,,,,,,64.0,,,,0,note_on,,70.0,64.0,70.0,139680,582.0
2391,1.0,,,,,,,55.0,,,,60,note_on,,70.0,55.0,70.0,139740,582.25
2392,1.0,,,,,,,55.0,,,,60,note_on,,0.0,55.0,0.0,139800,582.5
2393,1.0,,,,,,,60.0,,,,0,note_on,,70.0,60.0,70.0,139800,582.5
2394,1.0,,,,,,,60.0,,,,60,note_on,,0.0,60.0,0.0,139860,582.75
2395,1.0,,,,,,,64.0,,,,0,note_on,,0.0,64.0,0.0,139860,582.75
2396,1.0,,,,,,,55.0,,,,0,note_on,,70.0,55.0,70.0,139860,582.75
2397,1.0,,,,,,,67.0,,,,0,note_on,,70.0,67.0,70.0,139860,582.75
2398,1.0,,,,,,,64.0,,,,60,note_on,,70.0,64.0,70.0,139920,583.0
2399,1.0,,,,,,,64.0,,,,60,note_on,,0.0,64.0,0.0,139980,583.25
2400,1.0,,,,,,,60.0,,,,0,note_on,,70.0,60.0,70.0,139980,583.25
2401,1.0,,,,,,,60.0,,,,60,note_on,,0.0,60.0,0.0,140040,583.5
2402,1.0,,,,,,,67.0,,,,0,note_on,,0.0,67.0,0.0,140040,583.5
2403,1.0,,,,,,,55.0,,,,0,note_on,,0.0,55.0,0.0,140040,583.5
2404,1.0,,,,,,,64.0,,,,0,note_on,,70.0,64.0,70.0,140040,583.5
2405,1.0,,,,,,,57.0,,,,60,note_on,,70.0,57.0,70.0,140100,583.75
2406,1.0,,,,,,,57.0,,,,60,note_on,,0.0,57.0,0.0,140160,584.0
2407,1.0,,,,,,,60.0,,,,0,note_on,,70.0,60.0,70.0,140160,584.0
2408,1.0,,,,,,,60.0,,,,60,note_on,,0.0,60.0,0.0,140220,584.25
2409,1.0,,,,,,,64.0,,,,0,note_on,,0.0,64.0,0.0,140220,584.25
2410,1.0,,,,,,,57.0,,,,0,note_on,,70.0,57.0,70.0,140220,584.25
2411,1.0,,,,,,,69.0,,,,0,note_on,,70.0,69.0,70.0,140220,584.25
2412,1.0,,,,,,,64.0,,,,60,note_on,,70.0,64.0,70.0,140280,584.5
2413,1.0,,,,,,,64.0,,,,60,note_on,,0.0,64.0,0.0,140340,584.75
2414,1.0,,,,,,,60.0,,,,0,note_on,,70.0,60.0,70.0,140340,584.75
2415,1.0,,,,,,,60.0,,,,60,note_on,,0.0,60.0,0.0,140400,585.0
2416,1.0,,,,,,,69.0,,,,0,note_on,,0.0,69.0,0.0,140400,585.0
2417,1.0,,,,,,,57.0,,,,0,note_on,,0.0,57.0,0.0,140400,585.0
2418,1.0,,,,,,,64.0,,,,0,note_on,,70.0,64.0,70.0,140400,585.0
2419,1.0,,,,,,,55.0,,,,60,note_on,,70.0,55.0,70.0,140460,585.25
2420,1.0,,,,,,,55.0,,,,60,note_on,,0.0,55.0,0.0,140520,585.5
2421,1.0,,,,,,,60.0,,,,0,note_on,,70.0,60.0,70.0,140520,585.5
2422,1.0,,,,,,,60.0,,,,60,note_on,,0.0,60.0,0.0,140580,585.75
2423,1.0,,,,,,,64.0,,,,0,note_on,,0.0,64.0,0.0,140580,585.75
2424,1.0,,,,,,,55.0,,,,0,note_on,,70.0,55.0,70.0,140580,585.75
2425,1.0,,,,,,,67.0,,,,0,note_on,,70.0,67.0,70.0,140580,585.75
2426,1.0,,,,,,,64.0,,,,60,note_on,,70.0,64.0,70.0,140640,586.0
2427,1.0,,,,,,,64.0,,,,60,note_on,,0.0,64.0,0.0,140700,586.25
2428,1.0,,,,,,,60.0,,,,0,note_on,,70.0,60.0,70.0,140700,586.25
2429,1.0,,,,,,,60.0,,,,60,note_on,,0.0,60.0,0.0,140760,586.5
2430,1.0,,,,,,,67.0,,,,0,note_on,,0.0,67.0,0.0,140760,586.5
2431,1.0,,,,,,,55.0,,,,0,note_on,,0.0,55.0,0.0,140760,586.5
2432,1.0,,,,,,,64.0,,,,0,note_on,,70.0,64.0,70.0,140760,586.5
2433,1.0,,,,,,,57.0,,,,60,note_on,,70.0,57.0,70.0,140820,586.75
2434,1.0,,,,,,,57.0,,,,60,note_on,,0.0,57.0,0.0,140880,587.0
2435,1.0,,,,,,,60.0,,,,0,note_on,,70.0,60.0,70.0,140880,587.0
2436,1.0,,,,,,,60.0,,,,60,note_on,,0.0,60.0,0.0,140940,587.25
2437,1.0,,,,,,,64.0,,,,0,note_on,,0.0,64.0,0.0,140940,587.25
2438,1.0,,,,,,,57.0,,,,0,note_on,,70.0,57.0,70.0,140940,587.25
2439,1.0,,,,,,,69.0,,,,0,note_on,,70.0,69.0,70.0,140940,587.25
2440,1.0,,,,,,,64.0,,,,60,note_on,,70.0,64.0,70.0,141000,587.5
2441,1.0,,,,,,,64.0,,,,60,note_on,,0.0,64.0,0.0,141060,587.75
2442,1.0,,,,,,,60.0,,,,0,note_on,,70.0,60.0,70.0,141060,587.75
2443,1.0,,,,,,,60.0,,,,60,note_on,,0.0,60.0,0.0,141120,588.0
2444,1.0,,,,,,,69.0,,,,0,note_on,,0.0,69.0,0.0,141120,588.0
2445,1.0,,,,,,,57.0,,,,0,note_on,,0.0,57.0,0.0,141120,588.0
2446,1.0,,,,,,,65.0,,,,0,note_on,,70.0,65.0,70.0,141120,588.0
2447,1.0,,,,,,,57.0,,,,60,note_on,,70.0,57.0,70.0,141180,588.25
2448,1.0,,,,,,,57.0,,,,60,note_on,,0.0,57.0,0.0,141240,588.5
2449,1.0,,,,,,,60.0,,,,0,note_on,,70.0,60.0,70.0,141240,588.5
2450,1.0,,,,,,,60.0,,,,60,note_on,,0.0,60.0,0.0,141300,588.75
2451,1.0,,,,,,,65.0,,,,0,note_on,,0.0,65.0,0.0,141300,588.75
2452,1.0,,,,,,,57.0,,,,0,note_on,,70.0,57.0,70.0,141300,588.75
2453,1.0,,,,,,,69.0,,,,0,note_on,,70.0,69.0,70.0,141300,588.75
2454,1.0,,,,,,,65.0,,,,60,note_on,,70.0,65.0,70.0,141360,589.0
2455,1.0,,,,,,,65.0,,,,60,note_on,,0.0,65.0,0.0,141420,589.25
2456,1.0,,,,,,,60.0,,,,0,note_on,,70.0,60.0,70.0,141420,589.25
2457,1.0,,,,,,,60.0,,,,60,note_on,,0.0,60.0,0.0,141480,589.5
2458,1.0,,,,,,,69.0,,,,0,note_on,,0.0,69.0,0.0,141480,589.5
2459,1.0,,,,,,,57.0,,,,0,note_on,,0.0,57.0,0.0,141480,589.5
2460,1.0,,,,,,,67.0,,,,0,note_on,,70.0,67.0,70.0,141480,589.5
2461,1.0,,,,,,,59.0,,,,60,note_on,,70.0,59.0,70.0,141540,589.75
2462,1.0,,,,,,,59.0,,,,60,note_on,,0.0,59.0,0.0,141600,590.0
2463,1.0,,,,,,,62.0,,,,0,note_on,,70.0,62.0,70.0,141600,590.0
2464,1.0,,,,,,,62.0,,,,60,note_on,,0.0,62.0,0.0,141660,590.25
2465,1.0,,,,,,,67.0,,,,0,note_on,,0.0,67.0,0.0,141660,590.25
2466,1.0,,,,,,,59.0,,,,0,note_on,,70.0,59.0,70.0,141660,590.25
2467,1.0,,,,,,,71.0,,,,0,note_on,,70.0,71.0,70.0,141660,590.25
2468,1.0,,,,,,,67.0,,,,60,note_on,,70.0,67.0,70.0,141720,590.5
2469,1.0,,,,,,,67.0,,,,60,note_on,,0.0,67.0,0.0,141780,590.75
2470,1.0,,,,,,,62.0,,,,0,note_on,,70.0,62.0,70.0,141780,590.75
2471,1.0,,,,,,,62.0,,,,60,note_on,,0.0,62.0,0.0,141840,591.0
2472,1.0,,,,,,,71.0,,,,0,note_on,,0.0,71.0,0.0,141840,591.0
2473,1.0,,,,,,,59.0,,,,0,note_on,,0.0,59.0,0.0,141840,591.0
2474,1.0,,,,,,,64.0,,,,0,note_on,,70.0,64.0,70.0,141840,591.0
2475,1.0,,,,,,,55.0,,,,60,note_on,,70.0,55.0,70.0,141900,591.25
2476,1.0,,,,,,,55.0,,,,60,note_on,,0.0,55.0,0.0,141960,591.5
2477,1.0,,,,,,,60.0,,,,0,note_on,,70.0,60.0,70.0,141960,591.5
2478,1.0,,,,,,,60.0,,,,60,note_on,,0.0,60.0,0.0,142020,591.75
2479,1.0,,,,,,,64.0,,,,0,note_on,,0.0,64.0,0.0,142020,591.75
2480,1.0,,,,,,,55.0,,,,0,note_on,,70.0,55.0,70.0,142020,591.75
2481,1.0,,,,,,,67.0,,,,0,note_on,,70.0,67.0,70.0,142020,591.75
2482,1.0,,,,,,,64.0,,,,60,note_on,,70.0,64.0,70.0,142080,592.0
2483,1.0,,,,,,,64.0,,,,60,note_on,,0.0,64.0,0.0,142140,592.25
2484,1.0,,,,,,,60.0,,,,0,note_on,,70.0,60.0,70.0,142140,592.25
2485,1.0,,,,,,,60.0,,,,60,note_on,,0.0,60.0,0.0,142200,592.5
2486,1.0,,,,,,,67.0,,,,0,note_on,,0.0,67.0,0.0,142200,592.5
2487,1.0,,,,,,,55.0,,,,0,note_on,,0.0,55.0,0.0,142200,592.5
2488,1.0,,,,,,,62.0,,,,0,note_on,,70.0,62.0,70.0,142200,592.5
2489,1.0,,,,,,,59.0,,,,60,note_on,,70.0,59.0,70.0,142260,592.75
2490,1.0,,,,,,,59.0,,,,60,note_on,,0.0,59.0,0.0,142320,593.0
2491,1.0,,,,,,,62.0,,,,0,note_on,,70.0,62.0,70.0,142320,593.0
2492,1.0,,,,,,,62.0,,,,60,note_on,,0.0,62.0,0.0,142380,593.25
2493,1.0,,,,,,,62.0,,,,0,note_on,,0.0,62.0,0.0,142380,593.25
2494,1.0,,,,,,,67.0,,,,0,note_on,,70.0,67.0,70.0,142380,593.25
2495,1.0,,,,,,,59.0,,,,0,note_on,,70.0,59.0,70.0,142380,593.25
2496,1.0,,,,,,,62.0,,,,60,note_on,,70.0,62.0,70.0,142440,593.5
2497,1.0,,,,,,,62.0,,,,60,note_on,,0.0,62.0,0.0,142500,593.75
2498,1.0,,,,,,,59.0,,,,0,note_on,,70.0,59.0,70.0,142500,593.75
2499,1.0,,,,,,,59.0,,,,60,note_on,,0.0,59.0,0.0,142560,594.0
2500,1.0,,,,,,,59.0,,,,0,note_on,,0.0,59.0,0.0,142560,594.0
2501,1.0,,,,,,,67.0,,,,0,note_on,,0.0,67.0,0.0,142560,594.0
2502,1.0,,,,,,,64.0,,,,0,note_on,,70.0,64.0,70.0,142560,594.0
2503,1.0,,,,,,,55.0,,,,60,note_on,,70.0,55.0,70.0,142620,594.25
2504,1.0,,,,,,,55.0,,,,60,note_on,,0.0,55.0,0.0,142680,594.5
2505,1.0,,,,,,,60.0,,,,0,note_on,,70.0,60.0,70.0,142680,594.5
2506,1.0,,,,,,,60.0,,,,60,note_on,,0.0,60.0,0.0,142740,594.75
2507,1.0,,,,,,,64.0,,,,0,note_on,,0.0,64.0,0.0,142740,594.75
2508,1.0,,,,,,,55.0,,,,0,note_on,,70.0,55.0,70.0,142740,594.75
2509,1.0,,,,,,,67.0,,,,0,note_on,,70.0,67.0,70.0,142740,594.75
2510,1.0,,,,,,,64.0,,,,60,note_on,,70.0,64.0,70.0,142800,595.0
2511,1.0,,,,,,,64.0,,,,60,note_on,,0.0,64.0,0.0,142860,595.25
2512,1.0,,,,,,,60.0,,,,0,note_on,,70.0,60.0,70.0,142860,595.25
2513,1.0,,,,,,,60.0,,,,60,note_on,,0.0,60.0,0.0,142920,595.5
2514,1.0,,,,,,,67.0,,,,0,note_on,,0.0,67.0,0.0,142920,595.5
2515,1.0,,,,,,,55.0,,,,0,note_on,,0.0,55.0,0.0,142920,595.5
2516,1.0,,,,,,,60.0,,,,0,note_on,,70.0,60.0,70.0,142920,595.5
2517,1.0,,,,,,,65.0,,,,0,note_on,,70.0,65.0,70.0,142920,595.5
2518,1.0,,,,,,,48.0,,,,60,note_on,,70.0,48.0,70.0,142980,595.75
2519,1.0,,,,,,,48.0,,,,60,note_on,,0.0,48.0,0.0,143040,596.0
2520,1.0,,,,,,,53.0,,,,0,note_on,,70.0,53.0,70.0,143040,596.0
2521,1.0,,,,,,,53.0,,,,60,note_on,,0.0,53.0,0.0,143100,596.25
2522,1.0,,,,,,,65.0,,,,0,note_on,,0.0,65.0,0.0,143100,596.25
2523,1.0,,,,,,,60.0,,,,0,note_on,,0.0,60.0,0.0,143100,596.25
2524,1.0,,,,,,,62.0,,,,0,note_on,,70.0,62.0,70.0,143100,596.25
2525,1.0,,,,,,,71.0,,,,0,note_on,,70.0,71.0,70.0,143100,596.25
2526,1.0,,,,,,,50.0,,,,60,note_on,,76.0,50.0,76.0,143160,596.5
2527,1.0,,,,,,,50.0,,,,60,note_on,,0.0,50.0,0.0,143220,596.75
2528,1.0,,,,,,,55.0,,,,0,note_on,,76.0,55.0,76.0,143220,596.75
2529,1.0,,,,,,,55.0,,,,60,note_on,,0.0,55.0,0.0,143280,597.0
2530,1.0,,,,,,,71.0,,,,0,note_on,,0.0,71.0,0.0,143280,597.0
2531,1.0,,,,,,,62.0,,,,0,note_on,,0.0,62.0,0.0,143280,597.0
2532,1.0,,,,,,,64.0,,,,0,note_on,,70.0,64.0,70.0,143280,597.0
2533,1.0,,,,,,,57.0,,,,60,note_on,,70.0,57.0,70.0,143340,597.25
2534,1.0,,,,,,,57.0,,,,60,note_on,,0.0,57.0,0.0,143400,597.5
2535,1.0,,,,,,,60.0,,,,0,note_on,,70.0,60.0,70.0,143400,597.5
2536,1.0,,,,,,,60.0,,,,60,note_on,,0.0,60.0,0.0,143460,597.75
2537,1.0,,,,,,,64.0,,,,0,note_on,,0.0,64.0,0.0,143460,597.75
2538,1.0,,,,,,,57.0,,,,0,note_on,,70.0,57.0,70.0,143460,597.75
2539,1.0,,,,,,,69.0,,,,0,note_on,,70.0,69.0,70.0,143460,597.75
2540,1.0,,,,,,,64.0,,,,60,note_on,,70.0,64.0,70.0,143520,598.0
2541,1.0,,,,,,,64.0,,,,60,note_on,,0.0,64.0,0.0,143580,598.25
2542,1.0,,,,,,,60.0,,,,0,note_on,,70.0,60.0,70.0,143580,598.25
2543,1.0,,,,,,,60.0,,,,60,note_on,,0.0,60.0,0.0,143640,598.5
2544,1.0,,,,,,,69.0,,,,0,note_on,,0.0,69.0,0.0,143640,598.5
2545,1.0,,,,,,,57.0,,,,0,note_on,,0.0,57.0,0.0,143640,598.5
2546,1.0,,,,,,,65.0,,,,0,note_on,,70.0,65.0,70.0,143640,598.5
2547,1.0,,,,,,,57.0,,,,60,note_on,,70.0,57.0,70.0,143700,598.75
2548,1.0,,,,,,,57.0,,,,60,note_on,,0.0,57.0,0.0,143760,599.0
2549,1.0,,,,,,,60.0,,,,0,note_on,,70.0,60.0,70.0,143760,599.0
2550,1.0,,,,,,,60.0,,,,60,note_on,,0.0,60.0,0.0,143820,599.25
2551,1.0,,,,,,,65.0,,,,0,note_on,,0.0,65.0,0.0,143820,599.25
2552,1.0,,,,,,,57.0,,,,0,note_on,,70.0,57.0,70.0,143820,599.25
2553,1.0,,,,,,,69.0,,,,0,note_on,,70.0,69.0,70.0,143820,599.25
2554,1.0,,,,,,,65.0,,,,60,note_on,,70.0,65.0,70.0,143880,599.5
2555,1.0,,,,,,,65.0,,,,60,note_on,,0.0,65.0,0.0,143940,599.75
2556,1.0,,,,,,,60.0,,,,0,note_on,,70.0,60.0,70.0,143940,599.75
2557,1.0,,,,,,,60.0,,,,60,note_on,,0.0,60.0,0.0,144000,600.0
2558,1.0,,,,,,,69.0,,,,0,note_on,,0.0,69.0,0.0,144000,600.0
2559,1.0,,,,,,,57.0,,,,0,note_on,,0.0,57.0,0.0,144000,600.0
2560,1.0,,,,,,,67.0,,,,0,note_on,,70.0,67.0,70.0,144000,600.0
2561,1.0,,,,,,,59.0,,,,60,note_on,,70.0,59.0,70.0,144060,600.25
2562,1.0,,,,,,,59.0,,,,60,note_on,,0.0,59.0,0.0,144120,600.5
2563,1.0,,,,,,,62.0,,,,0,note_on,,70.0,62.0,70.0,144120,600.5
2564,1.0,,,,,,,62.0,,,,60,note_on,,0.0,62.0,0.0,144180,600.75
2565,1.0,,,,,,,67.0,,,,0,note_on,,0.0,67.0,0.0,144180,600.75
2566,1.0,,,,,,,59.0,,,,0,note_on,,70.0,59.0,70.0,144180,600.75
2567,1.0,,,,,,,71.0,,,,0,note_on,,70.0,71.0,70.0,144180,600.75
2568,1.0,,,,,,,67.0,,,,60,note_on,,70.0,67.0,70.0,144240,601.0
2569,1.0,,,,,,,67.0,,,,60,note_on,,0.0,67.0,0.0,144300,601.25
2570,1.0,,,,,,,62.0,,,,0,note_on,,70.0,62.0,70.0,144300,601.25
2571,1.0,,,,,,,62.0,,,,60,note_on,,0.0,62.0,0.0,144360,601.5
2572,1.0,,,,,,,71.0,,,,0,note_on,,0.0,71.0,0.0,144360,601.5
2573,1.0,,,,,,,59.0,,,,0,note_on,,0.0,59.0,0.0,144360,601.5
2574,1.0,,,,,,,67.0,,,,0,note_on,,70.0,67.0,70.0,144360,601.5
2575,1.0,,,,,,,59.0,,,,60,note_on,,70.0,59.0,70.0,144420,601.75
2576,1.0,,,,,,,59.0,,,,60,note_on,,0.0,59.0,0.0,144480,602.0
2577,1.0,,,,,,,64.0,,,,0,note_on,,70.0,64.0,70.0,144480,602.0
2578,1.0,,,,,,,64.0,,,,60,note_on,,0.0,64.0,0.0,144540,602.25
2579,1.0,,,,,,,67.0,,,,0,note_on,,0.0,67.0,0.0,144540,602.25
2580,1.0,,,,,,,59.0,,,,0,note_on,,70.0,59.0,70.0,144540,602.25
2581,1.0,,,,,,,71.0,,,,0,note_on,,70.0,71.0,70.0,144540,602.25
2582,1.0,,,,,,,67.0,,,,60,note_on,,70.0,67.0,70.0,144600,602.5
2583,1.0,,,,,,,67.0,,,,60,note_on,,0.0,67.0,0.0,144660,602.75
2584,1.0,,,,,,,64.0,,,,0,note_on,,70.0,64.0,70.0,144660,602.75
2585,1.0,,,,,,,64.0,,,,60,note_on,,0.0,64.0,0.0,144720,603.0
2586,1.0,,,,,,,71.0,,,,0,note_on,,0.0,71.0,0.0,144720,603.0
2587,1.0,,,,,,,59.0,,,,0,note_on,,0.0,59.0,0.0,144720,603.0
2588,1.0,,,,,,,64.0,,,,0,note_on,,70.0,64.0,70.0,144720,603.0
2589,1.0,,,,,,,57.0,,,,60,note_on,,70.0,57.0,70.0,144780,603.25
2590,1.0,,,,,,,57.0,,,,60,note_on,,0.0,57.0,0.0,144840,603.5
2591,1.0,,,,,,,60.0,,,,0,note_on,,70.0,60.0,70.0,144840,603.5
2592,1.0,,,,,,,60.0,,,,60,note_on,,0.0,60.0,0.0,144900,603.75
2593,1.0,,,,,,,64.0,,,,0,note_on,,0.0,64.0,0.0,144900,603.75
2594,1.0,,,,,,,60.0,,,,0,note_on,,70.0,60.0,70.0,144900,603.75
2595,1.0,,,,,,,69.0,,,,0,note_on,,70.0,69.0,70.0,144900,603.75
2596,1.0,,,,,,,57.0,,,,60,note_on,,70.0,57.0,70.0,144960,604.0
2597,1.0,,,,,,,57.0,,,,60,note_on,,0.0,57.0,0.0,145020,604.25
2598,1.0,,,,,,,52.0,,,,0,note_on,,70.0,52.0,70.0,145020,604.25
2599,1.0,,,,,,,52.0,,,,60,note_on,,0.0,52.0,0.0,145080,604.5
2600,1.0,,,,,,,69.0,,,,0,note_on,,0.0,69.0,0.0,145080,604.5
2601,1.0,,,,,,,60.0,,,,0,note_on,,0.0,60.0,0.0,145080,604.5
2602,1.0,,,,,,,57.0,,,,0,note_on,,65.0,57.0,65.0,145080,604.5
2603,1.0,,,,,,,60.0,,,,0,note_on,,65.0,60.0,65.0,145080,604.5
2604,1.0,,,,,,,64.0,,,,0,note_on,,65.0,64.0,65.0,145080,604.5
2605,1.0,,,,,,,64.0,,,,180,note_on,,0.0,64.0,0.0,145260,605.25
2606,1.0,,,,,,,60.0,,,,0,note_on,,0.0,60.0,0.0,145260,605.25
2607,1.0,,,,,,,57.0,,,,0,note_on,,0.0,57.0,0.0,145260,605.25
2608,1.0,,,,,,,65.0,,,,180,note_on,,70.0,65.0,70.0,145440,606.0
2609,1.0,,,,,,,57.0,,,,60,note_on,,70.0,57.0,70.0,145500,606.25
2610,1.0,,,,,,,57.0,,,,60,note_on,,0.0,57.0,0.0,145560,606.5
2611,1.0,,,,,,,60.0,,,,0,note_on,,70.0,60.0,70.0,145560,606.5
2612,1.0,,,,,,,60.0,,,,60,note_on,,0.0,60.0,0.0,145620,606.75
2613,1.0,,,,,,,65.0,,,,0,note_on,,0.0,65.0,0.0,145620,606.75
2614,1.0,,,,,,,57.0,,,,0,note_on,,70.0,57.0,70.0,145620,606.75
2615,1.0,,,,,,,69.0,,,,0,note_on,,70.0,69.0,70.0,145620,606.75
2616,1.0,,,,,,,65.0,,,,60,note_on,,70.0,65.0,70.0,145680,607.0
2617,1.0,,,,,,,65.0,,,,60,note_on,,0.0,65.0,0.0,145740,607.25
2618,1.0,,,,,,,60.0,,,,0,note_on,,70.0,60.0,70.0,145740,607.25
2619,1.0,,,,,,,60.0,,,,60,note_on,,0.0,60.0,0.0,145800,607.5
2620,1.0,,,,,,,69.0,,,,0,note_on,,0.0,69.0,0.0,145800,607.5
2621,1.0,,,,,,,57.0,,,,0,note_on,,0.0,57.0,0.0,145800,607.5
2622,1.0,,,,,,,65.0,,,,0,note_on,,70.0,65.0,70.0,145800,607.5
2623,1.0,,,,,,,57.0,,,,60,note_on,,70.0,57.0,70.0,145860,607.75
2624,1.0,,,,,,,57.0,,,,60,note_on,,0.0,57.0,0.0,145920,608.0
2625,1.0,,,,,,,60.0,,,,0,note_on,,70.0,60.0,70.0,145920,608.0
2626,1.0,,,,,,,60.0,,,,60,note_on,,0.0,60.0,0.0,145980,608.25
2627,1.0,,,,,,,65.0,,,,0,note_on,,0.0,65.0,0.0,145980,608.25
2628,1.0,,,,,,,57.0,,,,0,note_on,,70.0,57.0,70.0,145980,608.25
2629,1.0,,,,,,,69.0,,,,0,note_on,,70.0,69.0,70.0,145980,608.25
2630,1.0,,,,,,,65.0,,,,60,note_on,,70.0,65.0,70.0,146040,608.5
2631,1.0,,,,,,,65.0,,,,60,note_on,,0.0,65.0,0.0,146100,608.75
2632,1.0,,,,,,,60.0,,,,0,note_on,,70.0,60.0,70.0,146100,608.75
2633,1.0,,,,,,,60.0,,,,60,note_on,,0.0,60.0,0.0,146160,609.0
2634,1.0,,,,,,,69.0,,,,0,note_on,,0.0,69.0,0.0,146160,609.0
2635,1.0,,,,,,,57.0,,,,0,note_on,,0.0,57.0,0.0,146160,609.0
2636,1.0,,,,,,,64.0,,,,0,note_on,,70.0,64.0,70.0,146160,609.0
2637,1.0,,,,,,,57.0,,,,60,note_on,,70.0,57.0,70.0,146220,609.25
2638,1.0,,,,,,,57.0,,,,60,note_on,,0.0,57.0,0.0,146280,609.5
2639,1.0,,,,,,,60.0,,,,0,note_on,,70.0,60.0,70.0,146280,609.5
2640,1.0,,,,,,,60.0,,,,60,note_on,,0.0,60.0,0.0,146340,609.75
2641,1.0,,,,,,,64.0,,,,0,note_on,,0.0,64.0,0.0,146340,609.75
2642,1.0,,,,,,,57.0,,,,0,note_on,,70.0,57.0,70.0,146340,609.75
2643,1.0,,,,,,,69.0,,,,0,note_on,,70.0,69.0,70.0,146340,609.75
2644,1.0,,,,,,,64.0,,,,60,note_on,,70.0,64.0,70.0,146400,610.0
2645,1.0,,,,,,,64.0,,,,60,note_on,,0.0,64.0,0.0,146460,610.25
2646,1.0,,,,,,,60.0,,,,0,note_on,,70.0,60.0,70.0,146460,610.25
2647,1.0,,,,,,,60.0,,,,60,note_on,,0.0,60.0,0.0,146520,610.5
2648,1.0,,,,,,,69.0,,,,0,note_on,,0.0,69.0,0.0,146520,610.5
2649,1.0,,,,,,,57.0,,,,0,note_on,,0.0,57.0,0.0,146520,610.5
2650,1.0,,,,,,,64.0,,,,0,note_on,,70.0,64.0,70.0,146520,610.5
2651,1.0,,,,,,,57.0,,,,60,note_on,,70.0,57.0,70.0,146580,610.75
2652,1.0,,,,,,,57.0,,,,60,note_on,,0.0,57.0,0.0,146640,611.0
2653,1.0,,,,,,,60.0,,,,0,note_on,,70.0,60.0,70.0,146640,611.0
2654,1.0,,,,,,,60.0,,,,60,note_on,,0.0,60.0,0.0,146700,611.25
2655,1.0,,,,,,,64.0,,,,0,note_on,,0.0,64.0,0.0,146700,611.25
2656,1.0,,,,,,,57.0,,,,0,note_on,,70.0,57.0,70.0,146700,611.25
2657,1.0,,,,,,,69.0,,,,0,note_on,,70.0,69.0,70.0,146700,611.25
2658,1.0,,,,,,,64.0,,,,60,note_on,,70.0,64.0,70.0,146760,611.5
2659,1.0,,,,,,,64.0,,,,60,note_on,,0.0,64.0,0.0,146820,611.75
2660,1.0,,,,,,,60.0,,,,0,note_on,,70.0,60.0,70.0,146820,611.75
2661,1.0,,,,,,,60.0,,,,60,note_on,,0.0,60.0,0.0,146880,612.0
2662,1.0,,,,,,,69.0,,,,0,note_on,,0.0,69.0,0.0,146880,612.0
2663,1.0,,,,,,,57.0,,,,0,note_on,,0.0,57.0,0.0,146880,612.0
2664,1.0,,,,,,,65.0,,,,0,note_on,,70.0,65.0,70.0,146880,612.0
2665,1.0,,,,,,,57.0,,,,60,note_on,,70.0,57.0,70.0,146940,612.25
2666,1.0,,,,,,,57.0,,,,60,note_on,,0.0,57.0,0.0,147000,612.5
2667,1.0,,,,,,,60.0,,,,0,note_on,,70.0,60.0,70.0,147000,612.5
2668,1.0,,,,,,,60.0,,,,60,note_on,,0.0,60.0,0.0,147060,612.75
2669,1.0,,,,,,,65.0,,,,0,note_on,,0.0,65.0,0.0,147060,612.75
2670,1.0,,,,,,,57.0,,,,0,note_on,,70.0,57.0,70.0,147060,612.75
2671,1.0,,,,,,,69.0,,,,0,note_on,,70.0,69.0,70.0,147060,612.75
2672,1.0,,,,,,,65.0,,,,60,note_on,,70.0,65.0,70.0,147120,613.0
2673,1.0,,,,,,,65.0,,,,60,note_on,,0.0,65.0,0.0,147180,613.25
2674,1.0,,,,,,,60.0,,,,0,note_on,,70.0,60.0,70.0,147180,613.25
2675,1.0,,,,,,,60.0,,,,60,note_on,,0.0,60.0,0.0,147240,613.5
2676,1.0,,,,,,,69.0,,,,0,note_on,,0.0,69.0,0.0,147240,613.5
2677,1.0,,,,,,,57.0,,,,0,note_on,,0.0,57.0,0.0,147240,613.5
2678,1.0,,,,,,,65.0,,,,0,note_on,,70.0,65.0,70.0,147240,613.5
2679,1.0,,,,,,,57.0,,,,60,note_on,,70.0,57.0,70.0,147300,613.75
2680,1.0,,,,,,,57.0,,,,60,note_on,,0.0,57.0,0.0,147360,614.0
2681,1.0,,,,,,,60.0,,,,0,note_on,,70.0,60.0,70.0,147360,614.0
2682,1.0,,,,,,,60.0,,,,60,note_on,,0.0,60.0,0.0,147420,614.25
2683,1.0,,,,,,,65.0,,,,0,note_on,,0.0,65.0,0.0,147420,614.25
2684,1.0,,,,,,,57.0,,,,0,note_on,,70.0,57.0,70.0,147420,614.25
2685,1.0,,,,,,,69.0,,,,0,note_on,,70.0,69.0,70.0,147420,614.25
2686,1.0,,,,,,,65.0,,,,60,note_on,,70.0,65.0,70.0,147480,614.5
2687,1.0,,,,,,,65.0,,,,60,note_on,,0.0,65.0,0.0,147540,614.75
2688,1.0,,,,,,,60.0,,,,0,note_on,,70.0,60.0,70.0,147540,614.75
2689,1.0,,,,,,,60.0,,,,60,note_on,,0.0,60.0,0.0,147600,615.0
2690,1.0,,,,,,,69.0,,,,0,note_on,,0.0,69.0,0.0,147600,615.0
2691,1.0,,,,,,,57.0,,,,0,note_on,,0.0,57.0,0.0,147600,615.0
2692,1.0,,,,,,,64.0,,,,0,note_on,,70.0,64.0,70.0,147600,615.0
2693,1.0,,,,,,,55.0,,,,60,note_on,,70.0,55.0,70.0,147660,615.25
2694,1.0,,,,,,,55.0,,,,60,note_on,,0.0,55.0,0.0,147720,615.5
2695,1.0,,,,,,,60.0,,,,0,note_on,,70.0,60.0,70.0,147720,615.5
2696,1.0,,,,,,,60.0,,,,60,note_on,,0.0,60.0,0.0,147780,615.75
2697,1.0,,,,,,,64.0,,,,0,note_on,,0.0,64.0,0.0,147780,615.75
2698,1.0,,,,,,,55.0,,,,0,note_on,,70.0,55.0,70.0,147780,615.75
2699,1.0,,,,,,,67.0,,,,0,note_on,,70.0,67.0,70.0,147780,615.75
2700,1.0,,,,,,,64.0,,,,60,note_on,,70.0,64.0,70.0,147840,616.0
2701,1.0,,,,,,,64.0,,,,60,note_on,,0.0,64.0,0.0,147900,616.25
2702,1.0,,,,,,,60.0,,,,0,note_on,,70.0,60.0,70.0,147900,616.25
2703,1.0,,,,,,,60.0,,,,60,note_on,,0.0,60.0,0.0,147960,616.5
2704,1.0,,,,,,,67.0,,,,0,note_on,,0.0,67.0,0.0,147960,616.5
2705,1.0,,,,,,,55.0,,,,0,note_on,,0.0,55.0,0.0,147960,616.5
2706,1.0,,,,,,,67.0,,,,0,note_on,,70.0,67.0,70.0,147960,616.5
2707,1.0,,,,,,,59.0,,,,60,note_on,,70.0,59.0,70.0,148020,616.75
2708,1.0,,,,,,,59.0,,,,60,note_on,,0.0,59.0,0.0,148080,617.0
2709,1.0,,,,,,,62.0,,,,0,note_on,,70.0,62.0,70.0,148080,617.0
2710,1.0,,,,,,,62.0,,,,60,note_on,,0.0,62.0,0.0,148140,617.25
2711,1.0,,,,,,,67.0,,,,0,note_on,,0.0,67.0,0.0,148140,617.25
2712,1.0,,,,,,,59.0,,,,0,note_on,,70.0,59.0,70.0,148140,617.25
2713,1.0,,,,,,,71.0,,,,0,note_on,,70.0,71.0,70.0,148140,617.25
2714,1.0,,,,,,,67.0,,,,60,note_on,,70.0,67.0,70.0,148200,617.5
2715,1.0,,,,,,,67.0,,,,60,note_on,,0.0,67.0,0.0,148260,617.75
2716,1.0,,,,,,,62.0,,,,0,note_on,,70.0,62.0,70.0,148260,617.75
2717,1.0,,,,,,,62.0,,,,60,note_on,,0.0,62.0,0.0,148320,618.0
2718,1.0,,,,,,,71.0,,,,0,note_on,,0.0,71.0,0.0,148320,618.0
2719,1.0,,,,,,,59.0,,,,0,note_on,,0.0,59.0,0.0,148320,618.0
2720,1.0,,,,,,,64.0,,,,0,note_on,,70.0,64.0,70.0,148320,618.0
2721,1.0,,,,,,,55.0,,,,60,note_on,,70.0,55.0,70.0,148380,618.25
2722,1.0,,,,,,,55.0,,,,60,note_on,,0.0,55.0,0.0,148440,618.5
2723,1.0,,,,,,,60.0,,,,0,note_on,,70.0,60.0,70.0,148440,618.5
2724,1.0,,,,,,,60.0,,,,60,note_on,,0.0,60.0,0.0,148500,618.75
2725,1.0,,,,,,,64.0,,,,0,note_on,,0.0,64.0,0.0,148500,618.75
2726,1.0,,,,,,,55.0,,,,0,note_on,,70.0,55.0,70.0,148500,618.75
2727,1.0,,,,,,,67.0,,,,0,note_on,,70.0,67.0,70.0,148500,618.75
2728,1.0,,,,,,,64.0,,,,60,note_on,,70.0,64.0,70.0,148560,619.0
2729,1.0,,,,,,,64.0,,,,60,note_on,,0.0,64.0,0.0,148620,619.25
2730,1.0,,,,,,,60.0,,,,0,note_on,,70.0,60.0,70.0,148620,619.25
2731,1.0,,,,,,,60.0,,,,60,note_on,,0.0,60.0,0.0,148680,619.5
2732,1.0,,,,,,,67.0,,,,0,note_on,,0.0,67.0,0.0,148680,619.5
2733,1.0,,,,,,,55.0,,,,0,note_on,,0.0,55.0,0.0,148680,619.5
2734,1.0,,,,,,,67.0,,,,0,note_on,,70.0,67.0,70.0,148680,619.5
2735,1.0,,,,,,,59.0,,,,60,note_on,,70.0,59.0,70.0,148740,619.75
2736,1.0,,,,,,,59.0,,,,60,note_on,,0.0,59.0,0.0,148800,620.0
2737,1.0,,,,,,,62.0,,,,0,note_on,,70.0,62.0,70.0,148800,620.0
2738,1.0,,,,,,,62.0,,,,60,note_on,,0.0,62.0,0.0,148860,620.25
2739,1.0,,,,,,,67.0,,,,0,note_on,,0.0,67.0,0.0,148860,620.25
2740,1.0,,,,,,,59.0,,,,0,note_on,,70.0,59.0,70.0,148860,620.25
2741,1.0,,,,,,,71.0,,,,0,note_on,,70.0,71.0,70.0,148860,620.25
2742,1.0,,,,,,,67.0,,,,60,note_on,,70.0,67.0,70.0,148920,620.5
2743,1.0,,,,,,,67.0,,,,60,note_on,,0.0,67.0,0.0,148980,620.75
2744,1.0,,,,,,,62.0,,,,0,note_on,,70.0,62.0,70.0,148980,620.75
2745,1.0,,,,,,,62.0,,,,60,note_on,,0.0,62.0,0.0,149040,621.0
2746,1.0,,,,,,,71.0,,,,0,note_on,,0.0,71.0,0.0,149040,621.0
2747,1.0,,,,,,,59.0,,,,0,note_on,,0.0,59.0,0.0,149040,621.0
2748,1.0,,,,,,,48.0,,,,0,note_on,,60.0,48.0,60.0,149040,621.0
2749,1.0,,,,,,,60.0,,,,0,note_on,,60.0,60.0,60.0,149040,621.0
2750,1.0,,,,,,,64.0,,,,0,note_on,,60.0,64.0,60.0,149040,621.0
2751,1.0,,,,,,,67.0,,,,0,note_on,,60.0,67.0,60.0,149040,621.0
2752,1.0,,,,,,,67.0,,,,480,note_on,,0.0,67.0,0.0,149520,623.0
2753,1.0,,,,,,,48.0,,,,0,note_on,,0.0,48.0,0.0,149520,623.0
2754,1.0,,,,,,,60.0,,,,0,note_on,,0.0,60.0,0.0,149520,623.0
2755,1.0,,,,,,,64.0,,,,0,note_on,,0.0,64.0,0.0,149520,623.0
2756,,,,,,,,,,,,0,end_of_track,,,,,149520,623.0
2757,2.0,,,,,,,,,0.0,,0,program_change,,,,,149520,623.0
2758,2.0,,7.0,,,,,,,,,0,control_change,100.0,,,,149520,623.0
2759,2.0,,,,,,,48.0,,,,0,note_on,,76.0,48.0,76.0,149520,623.0
2760,2.0,,,,,,,48.0,,,,300,note_on,,0.0,48.0,0.0,149820,624.25
2761,2.0,,,,,,,47.0,,,,0,note_on,,76.0,47.0,76.0,149820,624.25
2762,2.0,,,,,,,47.0,,,,60,note_on,,0.0,47.0,0.0,149880,624.5
2763,2.0,,,,,,,45.0,,,,0,note_on,,76.0,45.0,76.0,149880,624.5
2764,2.0,,,,,,,45.0,,,,300,note_on,,0.0,45.0,0.0,150180,625.75
2765,2.0,,,,,,,47.0,,,,0,note_on,,76.0,47.0,76.0,150180,625.75
2766,2.0,,,,,,,47.0,,,,60,note_on,,0.0,47.0,0.0,150240,626.0
2767,2.0,,,,,,,48.0,,,,0,note_on,,76.0,48.0,76.0,150240,626.0
2768,2.0,,,,,,,48.0,,,,300,note_on,,0.0,48.0,0.0,150540,627.25
2769,2.0,,,,,,,47.0,,,,0,note_on,,76.0,47.0,76.0,150540,627.25
2770,2.0,,,,,,,47.0,,,,60,note_on,,0.0,47.0,0.0,150600,627.5
2771,2.0,,,,,,,45.0,,,,0,note_on,,76.0,45.0,76.0,150600,627.5
2772,2.0,,,,,,,45.0,,,,300,note_on,,0.0,45.0,0.0,150900,628.75
2773,2.0,,,,,,,47.0,,,,0,note_on,,76.0,47.0,76.0,150900,628.75
2774,2.0,,,,,,,47.0,,,,60,note_on,,0.0,47.0,0.0,150960,629.0
2775,2.0,,,,,,,48.0,,,,0,note_on,,76.0,48.0,76.0,150960,629.0
2776,2.0,,,,,,,48.0,,,,300,note_on,,0.0,48.0,0.0,151260,630.25
2777,2.0,,,,,,,47.0,,,,0,note_on,,76.0,47.0,76.0,151260,630.25
2778,2.0,,,,,,,47.0,,,,60,note_on,,0.0,47.0,0.0,151320,630.5
2779,2.0,,,,,,,45.0,,,,0,note_on,,76.0,45.0,76.0,151320,630.5
2780,2.0,,,,,,,45.0,,,,300,note_on,,0.0,45.0,0.0,151620,631.75
2781,2.0,,,,,,,47.0,,,,0,note_on,,76.0,47.0,76.0,151620,631.75
2782,2.0,,,,,,,47.0,,,,60,note_on,,0.0,47.0,0.0,151680,632.0
2783,2.0,,,,,,,48.0,,,,0,note_on,,76.0,48.0,76.0,151680,632.0
2784,2.0,,,,,,,48.0,,,,300,note_on,,0.0,48.0,0.0,151980,633.25
2785,2.0,,,,,,,47.0,,,,0,note_on,,76.0,47.0,76.0,151980,633.25
2786,2.0,,,,,,,47.0,,,,60,note_on,,0.0,47.0,0.0,152040,633.5
2787,2.0,,,,,,,45.0,,,,0,note_on,,76.0,45.0,76.0,152040,633.5
2788,2.0,,,,,,,45.0,,,,300,note_on,,0.0,45.0,0.0,152340,634.75
2789,2.0,,,,,,,47.0,,,,0,note_on,,76.0,47.0,76.0,152340,634.75
2790,2.0,,,,,,,47.0,,,,60,note_on,,0.0,47.0,0.0,152400,635.0
2791,2.0,,,,,,,41.0,,,,0,note_on,,76.0,41.0,76.0,152400,635.0
2792,2.0,,,,,,,41.0,,,,300,note_on,,0.0,41.0,0.0,152700,636.25
2793,2.0,,,,,,,45.0,,,,0,note_on,,76.0,45.0,76.0,152700,636.25
2794,2.0,,,,,,,45.0,,,,60,note_on,,0.0,45.0,0.0,152760,636.5
2795,2.0,,,,,,,43.0,,,,0,note_on,,76.0,43.0,76.0,152760,636.5
2796,2.0,,,,,,,43.0,,,,300,note_on,,0.0,43.0,0.0,153060,637.75
2797,2.0,,,,,,,47.0,,,,0,note_on,,76.0,47.0,76.0,153060,637.75
2798,2.0,,,,,,,47.0,,,,60,note_on,,0.0,47.0,0.0,153120,638.0
2799,2.0,,,,,,,48.0,,,,0,note_on,,76.0,48.0,76.0,153120,638.0
2800,2.0,,,,,,,48.0,,,,300,note_on,,0.0,48.0,0.0,153420,639.25
2801,2.0,,,,,,,47.0,,,,0,note_on,,76.0,47.0,76.0,153420,639.25
2802,2.0,,,,,,,47.0,,,,60,note_on,,0.0,47.0,0.0,153480,639.5
2803,2.0,,,,,,,43.0,,,,0,note_on,,76.0,43.0,76.0,153480,639.5
2804,2.0,,,,,,,43.0,,,,300,note_on,,0.0,43.0,0.0,153780,640.75
2805,2.0,,,,,,,47.0,,,,0,note_on,,76.0,47.0,76.0,153780,640.75
2806,2.0,,,,,,,47.0,,,,60,note_on,,0.0,47.0,0.0,153840,641.0
2807,2.0,,,,,,,48.0,,,,0,note_on,,76.0,48.0,76.0,153840,641.0
2808,2.0,,,,,,,48.0,,,,300,note_on,,0.0,48.0,0.0,154140,642.25
2809,2.0,,,,,,,47.0,,,,0,note_on,,76.0,47.0,76.0,154140,642.25
2810,2.0,,,,,,,47.0,,,,60,note_on,,0.0,47.0,0.0,154200,642.5
2811,2.0,,,,,,,41.0,,,,0,note_on,,76.0,41.0,76.0,154200,642.5
2812,2.0,,,,,,,41.0,,,,180,note_on,,0.0,41.0,0.0,154380,643.25
2813,2.0,,,,,,,43.0,,,,0,note_on,,76.0,43.0,76.0,154380,643.25
2814,2.0,,,,,,,43.0,,,,180,note_on,,0.0,43.0,0.0,154560,644.0
2815,2.0,,,,,,,45.0,,,,0,note_on,,76.0,45.0,76.0,154560,644.0
2816,2.0,,,,,,,45.0,,,,300,note_on,,0.0,45.0,0.0,154860,645.25
2817,2.0,,,,,,,47.0,,,,0,note_on,,76.0,47.0,76.0,154860,645.25
2818,2.0,,,,,,,47.0,,,,60,note_on,,0.0,47.0,0.0,154920,645.5
2819,2.0,,,,,,,41.0,,,,0,note_on,,76.0,41.0,76.0,154920,645.5
2820,2.0,,,,,,,41.0,,,,300,note_on,,0.0,41.0,0.0,155220,646.75
2821,2.0,,,,,,,45.0,,,,0,note_on,,76.0,45.0,76.0,155220,646.75
2822,2.0,,,,,,,45.0,,,,60,note_on,,0.0,45.0,0.0,155280,647.0
2823,2.0,,,,,,,43.0,,,,0,note_on,,76.0,43.0,76.0,155280,647.0
2824,2.0,,,,,,,43.0,,,,300,note_on,,0.0,43.0,0.0,155580,648.25
2825,2.0,,,,,,,47.0,,,,0,note_on,,76.0,47.0,76.0,155580,648.25
2826,2.0,,,,,,,47.0,,,,60,note_on,,0.0,47.0,0.0,155640,648.5
2827,2.0,,,,,,,40.0,,,,0,note_on,,76.0,40.0,76.0,155640,648.5
2828,2.0,,,,,,,40.0,,,,300,note_on,,0.0,40.0,0.0,155940,649.75
2829,2.0,,,,,,,47.0,,,,0,note_on,,76.0,47.0,76.0,155940,649.75
2830,2.0,,,,,,,47.0,,,,60,note_on,,0.0,47.0,0.0,156000,650.0
2831,2.0,,,,,,,45.0,,,,0,note_on,,76.0,45.0,76.0,156000,650.0
2832,2.0,,,,,,,45.0,,,,300,note_on,,0.0,45.0,0.0,156300,651.25
2833,2.0,,,,,,,45.0,,,,0,note_on,,76.0,45.0,76.0,156300,651.25
2834,2.0,,,,,,,45.0,,,,60,note_on,,0.0,45.0,0.0,156360,651.5
2835,2.0,,,,,,,52.0,,,,0,note_on,,65.0,52.0,65.0,156360,651.5
2836,2.0,,,,,,,45.0,,,,0,note_on,,65.0,45.0,65.0,156360,651.5
2837,2.0,,,,,,,45.0,,,,180,note_on,,0.0,45.0,0.0,156540,652.25
2838,2.0,,,,,,,52.0,,,,0,note_on,,0.0,52.0,0.0,156540,652.25
2839,2.0,,,,,,,41.0,,,,180,note_on,,76.0,41.0,76.0,156720,653.0
2840,2.0,,,,,,,41.0,,,,300,note_on,,0.0,41.0,0.0,157020,654.25
2841,2.0,,,,,,,45.0,,,,0,note_on,,76.0,45.0,76.0,157020,654.25
2842,2.0,,,,,,,45.0,,,,60,note_on,,0.0,45.0,0.0,157080,654.5
2843,2.0,,,,,,,41.0,,,,0,note_on,,76.0,41.0,76.0,157080,654.5
2844,2.0,,,,,,,41.0,,,,300,note_on,,0.0,41.0,0.0,157380,655.75
2845,2.0,,,,,,,45.0,,,,0,note_on,,76.0,45.0,76.0,157380,655.75
2846,2.0,,,,,,,45.0,,,,60,note_on,,0.0,45.0,0.0,157440,656.0
2847,2.0,,,,,,,45.0,,,,0,note_on,,76.0,45.0,76.0,157440,656.0
2848,2.0,,,,,,,45.0,,,,300,note_on,,0.0,45.0,0.0,157740,657.25
2849,2.0,,,,,,,47.0,,,,0,note_on,,76.0,47.0,76.0,157740,657.25
2850,2.0,,,,,,,47.0,,,,60,note_on,,0.0,47.0,0.0,157800,657.5
2851,2.0,,,,,,,45.0,,,,0,note_on,,76.0,45.0,76.0,157800,657.5
2852,2.0,,,,,,,45.0,,,,300,note_on,,0.0,45.0,0.0,158100,658.75
2853,2.0,,,,,,,47.0,,,,0,note_on,,76.0,47.0,76.0,158100,658.75
2854,2.0,,,,,,,47.0,,,,60,note_on,,0.0,47.0,0.0,158160,659.0
2855,2.0,,,,,,,41.0,,,,0,note_on,,76.0,41.0,76.0,158160,659.0
2856,2.0,,,,,,,41.0,,,,300,note_on,,0.0,41.0,0.0,158460,660.25
2857,2.0,,,,,,,45.0,,,,0,note_on,,76.0,45.0,76.0,158460,660.25
2858,2.0,,,,,,,45.0,,,,60,note_on,,0.0,45.0,0.0,158520,660.5
2859,2.0,,,,,,,41.0,,,,0,note_on,,76.0,41.0,76.0,158520,660.5
2860,2.0,,,,,,,41.0,,,,300,note_on,,0.0,41.0,0.0,158820,661.75
2861,2.0,,,,,,,45.0,,,,0,note_on,,76.0,45.0,76.0,158820,661.75
2862,2.0,,,,,,,45.0,,,,60,note_on,,0.0,45.0,0.0,158880,662.0
2863,2.0,,,,,,,48.0,,,,0,note_on,,76.0,48.0,76.0,158880,662.0
2864,2.0,,,,,,,48.0,,,,300,note_on,,0.0,48.0,0.0,159180,663.25
2865,2.0,,,,,,,47.0,,,,0,note_on,,76.0,47.0,76.0,159180,663.25
2866,2.0,,,,,,,47.0,,,,60,note_on,,0.0,47.0,0.0,159240,663.5
2867,2.0,,,,,,,43.0,,,,0,note_on,,76.0,43.0,76.0,159240,663.5
2868,2.0,,,,,,,43.0,,,,300,note_on,,0.0,43.0,0.0,159540,664.75
2869,2.0,,,,,,,47.0,,,,0,note_on,,76.0,47.0,76.0,159540,664.75
2870,2.0,,,,,,,47.0,,,,60,note_on,,0.0,47.0,0.0,159600,665.0
2871,2.0,,,,,,,48.0,,,,0,note_on,,76.0,48.0,76.0,159600,665.0
2872,2.0,,,,,,,48.0,,,,300,note_on,,0.0,48.0,0.0,159900,666.25
2873,2.0,,,,,,,47.0,,,,0,note_on,,76.0,47.0,76.0,159900,666.25
2874,2.0,,,,,,,47.0,,,,60,note_on,,0.0,47.0,0.0,159960,666.5
2875,2.0,,,,,,,43.0,,,,0,note_on,,76.0,43.0,76.0,159960,666.5
2876,2.0,,,,,,,43.0,,,,300,note_on,,0.0,43.0,0.0,160260,667.75
2877,2.0,,,,,,,47.0,,,,0,note_on,,76.0,47.0,76.0,160260,667.75
2878,2.0,,,,,,,47.0,,,,60,note_on,,0.0,47.0,0.0,160320,668.0
2879,2.0,,,,,,,45.0,,,,0,note_on,,76.0,45.0,76.0,160320,668.0
2880,2.0,,,,,,,45.0,,,,300,note_on,,0.0,45.0,0.0,160620,669.25
2881,2.0,,,,,,,47.0,,,,0,note_on,,76.0,47.0,76.0,160620,669.25
2882,2.0,,,,,,,47.0,,,,60,note_on,,0.0,47.0,0.0,160680,669.5
2883,2.0,,,,,,,48.0,,,,0,note_on,,76.0,48.0,76.0,160680,669.5
2884,2.0,,,,,,,48.0,,,,300,note_on,,0.0,48.0,0.0,160980,670.75
2885,2.0,,,,,,,47.0,,,,0,note_on,,76.0,47.0,76.0,160980,670.75
2886,2.0,,,,,,,47.0,,,,60,note_on,,0.0,47.0,0.0,161040,671.0
2887,2.0,,,,,,,45.0,,,,0,note_on,,76.0,45.0,76.0,161040,671.0
2888,2.0,,,,,,,45.0,,,,300,note_on,,0.0,45.0,0.0,161340,672.25
2889,2.0,,,,,,,47.0,,,,0,note_on,,76.0,47.0,76.0,161340,672.25
2890,2.0,,,,,,,47.0,,,,60,note_on,,0.0,47.0,0.0,161400,672.5
2891,2.0,,,,,,,48.0,,,,0,note_on,,76.0,48.0,76.0,161400,672.5
2892,2.0,,,,,,,48.0,,,,300,note_on,,0.0,48.0,0.0,161700,673.75
2893,2.0,,,,,,,47.0,,,,0,note_on,,76.0,47.0,76.0,161700,673.75
2894,2.0,,,,,,,47.0,,,,60,note_on,,0.0,47.0,0.0,161760,674.0
2895,2.0,,,,,,,45.0,,,,0,note_on,,76.0,45.0,76.0,161760,674.0
2896,2.0,,,,,,,45.0,,,,300,note_on,,0.0,45.0,0.0,162060,675.25
2897,2.0,,,,,,,47.0,,,,0,note_on,,76.0,47.0,76.0,162060,675.25
2898,2.0,,,,,,,47.0,,,,60,note_on,,0.0,47.0,0.0,162120,675.5
2899,2.0,,,,,,,41.0,,,,0,note_on,,76.0,41.0,76.0,162120,675.5
2900,2.0,,,,,,,41.0,,,,300,note_on,,0.0,41.0,0.0,162420,676.75
2901,2.0,,,,,,,45.0,,,,0,note_on,,76.0,45.0,76.0,162420,676.75
2902,2.0,,,,,,,45.0,,,,60,note_on,,0.0,45.0,0.0,162480,677.0
2903,2.0,,,,,,,43.0,,,,0,note_on,,76.0,43.0,76.0,162480,677.0
2904,2.0,,,,,,,43.0,,,,300,note_on,,0.0,43.0,0.0,162780,678.25
2905,2.0,,,,,,,47.0,,,,0,note_on,,76.0,47.0,76.0,162780,678.25
2906,2.0,,,,,,,47.0,,,,60,note_on,,0.0,47.0,0.0,162840,678.5
2907,2.0,,,,,,,48.0,,,,0,note_on,,76.0,48.0,76.0,162840,678.5
2908,2.0,,,,,,,48.0,,,,300,note_on,,0.0,48.0,0.0,163140,679.75
2909,2.0,,,,,,,47.0,,,,0,note_on,,76.0,47.0,76.0,163140,679.75
2910,2.0,,,,,,,47.0,,,,60,note_on,,0.0,47.0,0.0,163200,680.0
2911,2.0,,,,,,,43.0,,,,0,note_on,,76.0,43.0,76.0,163200,680.0
2912,2.0,,,,,,,43.0,,,,300,note_on,,0.0,43.0,0.0,163500,681.25
2913,2.0,,,,,,,47.0,,,,0,note_on,,76.0,47.0,76.0,163500,681.25
2914,2.0,,,,,,,47.0,,,,60,note_on,,0.0,47.0,0.0,163560,681.5
2915,2.0,,,,,,,48.0,,,,0,note_on,,76.0,48.0,76.0,163560,681.5
2916,2.0,,,,,,,48.0,,,,300,note_on,,0.0,48.0,0.0,163860,682.75
2917,2.0,,,,,,,47.0,,,,0,note_on,,76.0,47.0,76.0,163860,682.75
2918,2.0,,,,,,,47.0,,,,60,note_on,,0.0,47.0,0.0,163920,683.0
2919,2.0,,,,,,,41.0,,,,0,note_on,,76.0,41.0,76.0,163920,683.0
2920,2.0,,,,,,,41.0,,,,180,note_on,,0.0,41.0,0.0,164100,683.75
2921,2.0,,,,,,,43.0,,,,0,note_on,,76.0,43.0,76.0,164100,683.75
2922,2.0,,,,,,,43.0,,,,180,note_on,,0.0,43.0,0.0,164280,684.5
2923,2.0,,,,,,,45.0,,,,0,note_on,,76.0,45.0,76.0,164280,684.5
2924,2.0,,,,,,,45.0,,,,300,note_on,,0.0,45.0,0.0,164580,685.75
2925,2.0,,,,,,,47.0,,,,0,note_on,,76.0,47.0,76.0,164580,685.75
2926,2.0,,,,,,,47.0,,,,60,note_on,,0.0,47.0,0.0,164640,686.0
2927,2.0,,,,,,,41.0,,,,0,note_on,,76.0,41.0,76.0,164640,686.0
2928,2.0,,,,,,,41.0,,,,300,note_on,,0.0,41.0,0.0,164940,687.25
2929,2.0,,,,,,,45.0,,,,0,note_on,,76.0,45.0,76.0,164940,687.25
2930,2.0,,,,,,,45.0,,,,60,note_on,,0.0,45.0,0.0,165000,687.5
2931,2.0,,,,,,,43.0,,,,0,note_on,,76.0,43.0,76.0,165000,687.5
2932,2.0,,,,,,,43.0,,,,300,note_on,,0.0,43.0,0.0,165300,688.75
2933,2.0,,,,,,,47.0,,,,0,note_on,,76.0,47.0,76.0,165300,688.75
2934,2.0,,,,,,,47.0,,,,60,note_on,,0.0,47.0,0.0,165360,689.0
2935,2.0,,,,,,,40.0,,,,0,note_on,,76.0,40.0,76.0,165360,689.0
2936,2.0,,,,,,,40.0,,,,300,note_on,,0.0,40.0,0.0,165660,690.25
2937,2.0,,,,,,,47.0,,,,0,note_on,,76.0,47.0,76.0,165660,690.25
2938,2.0,,,,,,,47.0,,,,60,note_on,,0.0,47.0,0.0,165720,690.5
2939,2.0,,,,,,,45.0,,,,0,note_on,,76.0,45.0,76.0,165720,690.5
2940,2.0,,,,,,,45.0,,,,300,note_on,,0.0,45.0,0.0,166020,691.75
2941,2.0,,,,,,,45.0,,,,0,note_on,,76.0,45.0,76.0,166020,691.75
2942,2.0,,,,,,,45.0,,,,60,note_on,,0.0,45.0,0.0,166080,692.0
2943,2.0,,,,,,,52.0,,,,0,note_on,,65.0,52.0,65.0,166080,692.0
2944,2.0,,,,,,,45.0,,,,0,note_on,,65.0,45.0,65.0,166080,692.0
2945,2.0,,,,,,,45.0,,,,180,note_on,,0.0,45.0,0.0,166260,692.75
2946,2.0,,,,,,,52.0,,,,0,note_on,,0.0,52.0,0.0,166260,692.75
2947,2.0,,,,,,,41.0,,,,180,note_on,,76.0,41.0,76.0,166440,693.5
2948,2.0,,,,,,,41.0,,,,300,note_on,,0.0,41.0,0.0,166740,694.75
2949,2.0,,,,,,,45.0,,,,0,note_on,,76.0,45.0,76.0,166740,694.75
2950,2.0,,,,,,,45.0,,,,60,note_on,,0.0,45.0,0.0,166800,695.0
2951,2.0,,,,,,,41.0,,,,0,note_on,,76.0,41.0,76.0,166800,695.0
2952,2.0,,,,,,,41.0,,,,300,note_on,,0.0,41.0,0.0,167100,696.25
2953,2.0,,,,,,,45.0,,,,0,note_on,,76.0,45.0,76.0,167100,696.25
2954,2.0,,,,,,,45.0,,,,60,note_on,,0.0,45.0,0.0,167160,696.5
2955,2.0,,,,,,,45.0,,,,0,note_on,,76.0,45.0,76.0,167160,696.5
2956,2.0,,,,,,,45.0,,,,300,note_on,,0.0,45.0,0.0,167460,697.75
2957,2.0,,,,,,,47.0,,,,0,note_on,,76.0,47.0,76.0,167460,697.75
2958,2.0,,,,,,,47.0,,,,60,note_on,,0.0,47.0,0.0,167520,698.0
2959,2.0,,,,,,,45.0,,,,0,note_on,,76.0,45.0,76.0,167520,698.0
2960,2.0,,,,,,,45.0,,,,300,note_on,,0.0,45.0,0.0,167820,699.25
2961,2.0,,,,,,,47.0,,,,0,note_on,,76.0,47.0,76.0,167820,699.25
2962,2.0,,,,,,,47.0,,,,60,note_on,,0.0,47.0,0.0,167880,699.5
2963,2.0,,,,,,,41.0,,,,0,note_on,,76.0,41.0,76.0,167880,699.5
2964,2.0,,,,,,,41.0,,,,300,note_on,,0.0,41.0,0.0,168180,700.75
2965,2.0,,,,,,,45.0,,,,0,note_on,,76.0,45.0,76.0,168180,700.75
2966,2.0,,,,,,,45.0,,,,60,note_on,,0.0,45.0,0.0,168240,701.0
2967,2.0,,,,,,,41.0,,,,0,note_on,,76.0,41.0,76.0,168240,701.0
2968,2.0,,,,,,,41.0,,,,300,note_on,,0.0,41.0,0.0,168540,702.25
2969,2.0,,,,,,,45.0,,,,0,note_on,,76.0,45.0,76.0,168540,702.25
2970,2.0,,,,,,,45.0,,,,60,note_on,,0.0,45.0,0.0,168600,702.5
2971,2.0,,,,,,,48.0,,,,0,note_on,,76.0,48.0,76.0,168600,702.5
2972,2.0,,,,,,,48.0,,,,300,note_on,,0.0,48.0,0.0,168900,703.75
2973,2.0,,,,,,,47.0,,,,0,note_on,,76.0,47.0,76.0,168900,703.75
2974,2.0,,,,,,,47.0,,,,60,note_on,,0.0,47.0,0.0,168960,704.0
2975,2.0,,,,,,,43.0,,,,0,note_on,,76.0,43.0,76.0,168960,704.0
2976,2.0,,,,,,,43.0,,,,300,note_on,,0.0,43.0,0.0,169260,705.25
2977,2.0,,,,,,,47.0,,,,0,note_on,,76.0,47.0,76.0,169260,705.25
2978,2.0,,,,,,,47.0,,,,60,note_on,,0.0,47.0,0.0,169320,705.5
2979,2.0,,,,,,,48.0,,,,0,note_on,,76.0,48.0,76.0,169320,705.5
2980,2.0,,,,,,,48.0,,,,300,note_on,,0.0,48.0,0.0,169620,706.75
2981,2.0,,,,,,,47.0,,,,0,note_on,,76.0,47.0,76.0,169620,706.75
2982,2.0,,,,,,,47.0,,,,60,note_on,,0.0,47.0,0.0,169680,707.0
2983,2.0,,,,,,,43.0,,,,0,note_on,,76.0,43.0,76.0,169680,707.0
2984,2.0,,,,,,,43.0,,,,300,note_on,,0.0,43.0,0.0,169980,708.25
2985,2.0,,,,,,,47.0,,,,0,note_on,,76.0,47.0,76.0,169980,708.25
2986,2.0,,,,,,,47.0,,,,60,note_on,,0.0,47.0,0.0,170040,708.5
2987,2.0,,,,,,,45.0,,,,0,note_on,,76.0,45.0,76.0,170040,708.5
2988,2.0,,,,,,,45.0,,,,300,note_on,,0.0,45.0,0.0,170340,709.75
2989,2.0,,,,,,,47.0,,,,0,note_on,,76.0,47.0,76.0,170340,709.75
2990,2.0,,,,,,,47.0,,,,60,note_on,,0.0,47.0,0.0,170400,710.0
2991,2.0,,,,,,,48.0,,,,0,note_on,,76.0,48.0,76.0,170400,710.0
2992,2.0,,,,,,,48.0,,,,300,note_on,,0.0,48.0,0.0,170700,711.25
2993,2.0,,,,,,,47.0,,,,0,note_on,,76.0,47.0,76.0,170700,711.25
2994,2.0,,,,,,,47.0,,,,60,note_on,,0.0,47.0,0.0,170760,711.5
2995,2.0,,,,,,,45.0,,,,0,note_on,,76.0,45.0,76.0,170760,711.5
2996,2.0,,,,,,,45.0,,,,300,note_on,,0.0,45.0,0.0,171060,712.75
2997,2.0,,,,,,,47.0,,,,0,note_on,,76.0,47.0,76.0,171060,712.75
2998,2.0,,,,,,,47.0,,,,60,note_on,,0.0,47.0,0.0,171120,713.0
2999,2.0,,,,,,,48.0,,,,0,note_on,,76.0,48.0,76.0,171120,713.0
3000,2.0,,,,,,,48.0,,,,300,note_on,,0.0,48.0,0.0,171420,714.25
3001,2.0,,,,,,,47.0,,,,0,note_on,,76.0,47.0,76.0,171420,714.25
3002,2.0,,,,,,,47.0,,,,60,note_on,,0.0,47.0,0.0,171480,714.5
3003,2.0,,,,,,,45.0,,,,0,note_on,,76.0,45.0,76.0,171480,714.5
3004,2.0,,,,,,,45.0,,,,300,note_on,,0.0,45.0,0.0,171780,715.75
3005,2.0,,,,,,,47.0,,,,0,note_on,,76.0,47.0,76.0,171780,715.75
3006,2.0,,,,,,,47.0,,,,60,note_on,,0.0,47.0,0.0,171840,716.0
3007,2.0,,,,,,,41.0,,,,0,note_on,,76.0,41.0,76.0,171840,716.0
3008,2.0,,,,,,,41.0,,,,300,note_on,,0.0,41.0,0.0,172140,717.25
3009,2.0,,,,,,,45.0,,,,0,note_on,,76.0,45.0,76.0,172140,717.25
3010,2.0,,,,,,,45.0,,,,60,note_on,,0.0,45.0,0.0,172200,717.5
3011,2.0,,,,,,,43.0,,,,0,note_on,,76.0,43.0,76.0,172200,717.5
3012,2.0,,,,,,,43.0,,,,300,note_on,,0.0,43.0,0.0,172500,718.75
3013,2.0,,,,,,,47.0,,,,0,note_on,,76.0,47.0,76.0,172500,718.75
3014,2.0,,,,,,,47.0,,,,60,note_on,,0.0,47.0,0.0,172560,719.0
3015,2.0,,,,,,,48.0,,,,0,note_on,,76.0,48.0,76.0,172560,719.0
3016,2.0,,,,,,,48.0,,,,300,note_on,,0.0,48.0,0.0,172860,720.25
3017,2.0,,,,,,,47.0,,,,0,note_on,,76.0,47.0,76.0,172860,720.25
3018,2.0,,,,,,,47.0,,,,60,note_on,,0.0,47.0,0.0,172920,720.5
3019,2.0,,,,,,,43.0,,,,0,note_on,,76.0,43.0,76.0,172920,720.5
3020,2.0,,,,,,,43.0,,,,300,note_on,,0.0,43.0,0.0,173220,721.75
3021,2.0,,,,,,,47.0,,,,0,note_on,,76.0,47.0,76.0,173220,721.75
3022,2.0,,,,,,,47.0,,,,60,note_on,,0.0,47.0,0.0,173280,722.0
3023,2.0,,,,,,,48.0,,,,0,note_on,,76.0,48.0,76.0,173280,722.0
3024,2.0,,,,,,,48.0,,,,300,note_on,,0.0,48.0,0.0,173580,723.25
3025,2.0,,,,,,,47.0,,,,0,note_on,,76.0,47.0,76.0,173580,723.25
3026,2.0,,,,,,,47.0,,,,60,note_on,,0.0,47.0,0.0,173640,723.5
3027,2.0,,,,,,,41.0,,,,0,note_on,,76.0,41.0,76.0,173640,723.5
3028,2.0,,,,,,,41.0,,,,180,note_on,,0.0,41.0,0.0,173820,724.25
3029,2.0,,,,,,,43.0,,,,0,note_on,,76.0,43.0,76.0,173820,724.25
3030,2.0,,,,,,,43.0,,,,180,note_on,,0.0,43.0,0.0,174000,725.0
3031,2.0,,,,,,,45.0,,,,0,note_on,,76.0,45.0,76.0,174000,725.0
3032,2.0,,,,,,,45.0,,,,300,note_on,,0.0,45.0,0.0,174300,726.25
3033,2.0,,,,,,,47.0,,,,0,note_on,,76.0,47.0,76.0,174300,726.25
3034,2.0,,,,,,,47.0,,,,60,note_on,,0.0,47.0,0.0,174360,726.5
3035,2.0,,,,,,,41.0,,,,0,note_on,,76.0,41.0,76.0,174360,726.5
3036,2.0,,,,,,,41.0,,,,300,note_on,,0.0,41.0,0.0,174660,727.75
3037,2.0,,,,,,,45.0,,,,0,note_on,,76.0,45.0,76.0,174660,727.75
3038,2.0,,,,,,,45.0,,,,60,note_on,,0.0,45.0,0.0,174720,728.0
3039,2.0,,,,,,,43.0,,,,0,note_on,,76.0,43.0,76.0,174720,728.0
3040,2.0,,,,,,,43.0,,,,300,note_on,,0.0,43.0,0.0,175020,729.25
3041,2.0,,,,,,,47.0,,,,0,note_on,,76.0,47.0,76.0,175020,729.25
3042,2.0,,,,,,,47.0,,,,60,note_on,,0.0,47.0,0.0,175080,729.5
3043,2.0,,,,,,,40.0,,,,0,note_on,,76.0,40.0,76.0,175080,729.5
3044,2.0,,,,,,,40.0,,,,300,note_on,,0.0,40.0,0.0,175380,730.75
3045,2.0,,,,,,,47.0,,,,0,note_on,,76.0,47.0,76.0,175380,730.75
3046,2.0,,,,,,,47.0,,,,60,note_on,,0.0,47.0,0.0,175440,731.0
3047,2.0,,,,,,,45.0,,,,0,note_on,,76.0,45.0,76.0,175440,731.0
3048,2.0,,,,,,,45.0,,,,300,note_on,,0.0,45.0,0.0,175740,732.25
3049,2.0,,,,,,,45.0,,,,0,note_on,,76.0,45.0,76.0,175740,732.25
3050,2.0,,,,,,,45.0,,,,60,note_on,,0.0,45.0,0.0,175800,732.5
3051,2.0,,,,,,,52.0,,,,0,note_on,,65.0,52.0,65.0,175800,732.5
3052,2.0,,,,,,,45.0,,,,0,note_on,,65.0,45.0,65.0,175800,732.5
3053,2.0,,,,,,,45.0,,,,180,note_on,,0.0,45.0,0.0,175980,733.25
3054,2.0,,,,,,,52.0,,,,0,note_on,,0.0,52.0,0.0,175980,733.25
3055,2.0,,,,,,,41.0,,,,180,note_on,,76.0,41.0,76.0,176160,734.0
3056,2.0,,,,,,,41.0,,,,300,note_on,,0.0,41.0,0.0,176460,735.25
3057,2.0,,,,,,,45.0,,,,0,note_on,,76.0,45.0,76.0,176460,735.25
3058,2.0,,,,,,,45.0,,,,60,note_on,,0.0,45.0,0.0,176520,735.5
3059,2.0,,,,,,,41.0,,,,0,note_on,,76.0,41.0,76.0,176520,735.5
3060,2.0,,,,,,,41.0,,,,300,note_on,,0.0,41.0,0.0,176820,736.75
3061,2.0,,,,,,,45.0,,,,0,note_on,,76.0,45.0,76.0,176820,736.75
3062,2.0,,,,,,,45.0,,,,60,note_on,,0.0,45.0,0.0,176880,737.0
3063,2.0,,,,,,,45.0,,,,0,note_on,,76.0,45.0,76.0,176880,737.0
3064,2.0,,,,,,,45.0,,,,300,note_on,,0.0,45.0,0.0,177180,738.25
3065,2.0,,,,,,,47.0,,,,0,note_on,,76.0,47.0,76.0,177180,738.25
3066,2.0,,,,,,,47.0,,,,60,note_on,,0.0,47.0,0.0,177240,738.5
3067,2.0,,,,,,,45.0,,,,0,note_on,,76.0,45.0,76.0,177240,738.5
3068,2.0,,,,,,,45.0,,,,300,note_on,,0.0,45.0,0.0,177540,739.75
3069,2.0,,,,,,,47.0,,,,0,note_on,,76.0,47.0,76.0,177540,739.75
3070,2.0,,,,,,,47.0,,,,60,note_on,,0.0,47.0,0.0,177600,740.0
3071,2.0,,,,,,,41.0,,,,0,note_on,,76.0,41.0,76.0,177600,740.0
3072,2.0,,,,,,,41.0,,,,300,note_on,,0.0,41.0,0.0,177900,741.25
3073,2.0,,,,,,,45.0,,,,0,note_on,,76.0,45.0,76.0,177900,741.25
3074,2.0,,,,,,,45.0,,,,60,note_on,,0.0,45.0,0.0,177960,741.5
3075,2.0,,,,,,,41.0,,,,0,note_on,,76.0,41.0,76.0,177960,741.5
3076,2.0,,,,,,,41.0,,,,300,note_on,,0.0,41.0,0.0,178260,742.75
3077,2.0,,,,,,,45.0,,,,0,note_on,,76.0,45.0,76.0,178260,742.75
3078,2.0,,,,,,,45.0,,,,60,note_on,,0.0,45.0,0.0,178320,743.0
3079,2.0,,,,,,,48.0,,,,0,note_on,,76.0,48.0,76.0,178320,743.0
3080,2.0,,,,,,,48.0,,,,300,note_on,,0.0,48.0,0.0,178620,744.25
3081,2.0,,,,,,,47.0,,,,0,note_on,,76.0,47.0,76.0,178620,744.25
3082,2.0,,,,,,,47.0,,,,60,note_on,,0.0,47.0,0.0,178680,744.5
3083,2.0,,,,,,,43.0,,,,0,note_on,,76.0,43.0,76.0,178680,744.5
3084,2.0,,,,,,,43.0,,,,300,note_on,,0.0,43.0,0.0,178980,745.75
3085,2.0,,,,,,,47.0,,,,0,note_on,,76.0,47.0,76.0,178980,745.75
3086,2.0,,,,,,,47.0,,,,60,note_on,,0.0,47.0,0.0,179040,746.0
3087,2.0,,,,,,,48.0,,,,0,note_on,,76.0,48.0,76.0,179040,746.0
3088,2.0,,,,,,,48.0,,,,300,note_on,,0.0,48.0,0.0,179340,747.25
3089,2.0,,,,,,,47.0,,,,0,note_on,,76.0,47.0,76.0,179340,747.25
3090,2.0,,,,,,,47.0,,,,60,note_on,,0.0,47.0,0.0,179400,747.5
3091,2.0,,,,,,,43.0,,,,0,note_on,,76.0,43.0,76.0,179400,747.5
3092,2.0,,,,,,,43.0,,,,300,note_on,,0.0,43.0,0.0,179700,748.75
3093,2.0,,,,,,,47.0,,,,0,note_on,,76.0,47.0,76.0,179700,748.75
3094,2.0,,,,,,,47.0,,,,60,note_on,,0.0,47.0,0.0,179760,749.0
3095,2.0,,,,,,,45.0,,,,0,note_on,,76.0,45.0,76.0,179760,749.0
3096,2.0,,,,,,,45.0,,,,300,note_on,,0.0,45.0,0.0,180060,750.25
3097,2.0,,,,,,,47.0,,,,0,note_on,,76.0,47.0,76.0,180060,750.25
3098,2.0,,,,,,,47.0,,,,60,note_on,,0.0,47.0,0.0,180120,750.5
3099,2.0,,,,,,,48.0,,,,0,note_on,,76.0,48.0,76.0,180120,750.5
3100,2.0,,,,,,,48.0,,,,300,note_on,,0.0,48.0,0.0,180420,751.75
3101,2.0,,,,,,,47.0,,,,0,note_on,,76.0,47.0,76.0,180420,751.75
3102,2.0,,,,,,,47.0,,,,60,note_on,,0.0,47.0,0.0,180480,752.0
3103,2.0,,,,,,,45.0,,,,0,note_on,,76.0,45.0,76.0,180480,752.0
3104,2.0,,,,,,,45.0,,,,300,note_on,,0.0,45.0,0.0,180780,753.25
3105,2.0,,,,,,,47.0,,,,0,note_on,,76.0,47.0,76.0,180780,753.25
3106,2.0,,,,,,,47.0,,,,60,note_on,,0.0,47.0,0.0,180840,753.5
3107,2.0,,,,,,,48.0,,,,0,note_on,,76.0,48.0,76.0,180840,753.5
3108,2.0,,,,,,,48.0,,,,300,note_on,,0.0,48.0,0.0,181140,754.75
3109,2.0,,,,,,,47.0,,,,0,note_on,,76.0,47.0,76.0,181140,754.75
3110,2.0,,,,,,,47.0,,,,60,note_on,,0.0,47.0,0.0,181200,755.0
3111,2.0,,,,,,,45.0,,,,0,note_on,,76.0,45.0,76.0,181200,755.0
3112,2.0,,,,,,,45.0,,,,300,note_on,,0.0,45.0,0.0,181500,756.25
3113,2.0,,,,,,,47.0,,,,0,note_on,,76.0,47.0,76.0,181500,756.25
3114,2.0,,,,,,,47.0,,,,60,note_on,,0.0,47.0,0.0,181560,756.5
3115,2.0,,,,,,,41.0,,,,0,note_on,,76.0,41.0,76.0,181560,756.5
3116,2.0,,,,,,,41.0,,,,300,note_on,,0.0,41.0,0.0,181860,757.75
3117,2.0,,,,,,,45.0,,,,0,note_on,,76.0,45.0,76.0,181860,757.75
3118,2.0,,,,,,,45.0,,,,60,note_on,,0.0,45.0,0.0,181920,758.0
3119,2.0,,,,,,,43.0,,,,0,note_on,,76.0,43.0,76.0,181920,758.0
3120,2.0,,,,,,,43.0,,,,300,note_on,,0.0,43.0,0.0,182220,759.25
3121,2.0,,,,,,,47.0,,,,0,note_on,,76.0,47.0,76.0,182220,759.25
3122,2.0,,,,,,,47.0,,,,60,note_on,,0.0,47.0,0.0,182280,759.5
3123,2.0,,,,,,,48.0,,,,0,note_on,,76.0,48.0,76.0,182280,759.5
3124,2.0,,,,,,,48.0,,,,300,note_on,,0.0,48.0,0.0,182580,760.75
3125,2.0,,,,,,,47.0,,,,0,note_on,,76.0,47.0,76.0,182580,760.75
3126,2.0,,,,,,,47.0,,,,60,note_on,,0.0,47.0,0.0,182640,761.0
3127,2.0,,,,,,,43.0,,,,0,note_on,,76.0,43.0,76.0,182640,761.0
3128,2.0,,,,,,,43.0,,,,300,note_on,,0.0,43.0,0.0,182940,762.25
3129,2.0,,,,,,,47.0,,,,0,note_on,,76.0,47.0,76.0,182940,762.25
3130,2.0,,,,,,,47.0,,,,60,note_on,,0.0,47.0,0.0,183000,762.5
3131,2.0,,,,,,,48.0,,,,0,note_on,,76.0,48.0,76.0,183000,762.5
3132,2.0,,,,,,,48.0,,,,300,note_on,,0.0,48.0,0.0,183300,763.75
3133,2.0,,,,,,,47.0,,,,0,note_on,,76.0,47.0,76.0,183300,763.75
3134,2.0,,,,,,,47.0,,,,60,note_on,,0.0,47.0,0.0,183360,764.0
3135,2.0,,,,,,,41.0,,,,0,note_on,,76.0,41.0,76.0,183360,764.0
3136,2.0,,,,,,,41.0,,,,180,note_on,,0.0,41.0,0.0,183540,764.75
3137,2.0,,,,,,,43.0,,,,0,note_on,,76.0,43.0,76.0,183540,764.75
3138,2.0,,,,,,,43.0,,,,180,note_on,,0.0,43.0,0.0,183720,765.5
3139,2.0,,,,,,,45.0,,,,0,note_on,,76.0,45.0,76.0,183720,765.5
3140,2.0,,,,,,,45.0,,,,300,note_on,,0.0,45.0,0.0,184020,766.75
3141,2.0,,,,,,,47.0,,,,0,note_on,,76.0,47.0,76.0,184020,766.75
3142,2.0,,,,,,,47.0,,,,60,note_on,,0.0,47.0,0.0,184080,767.0
3143,2.0,,,,,,,41.0,,,,0,note_on,,76.0,41.0,76.0,184080,767.0
3144,2.0,,,,,,,41.0,,,,300,note_on,,0.0,41.0,0.0,184380,768.25
3145,2.0,,,,,,,45.0,,,,0,note_on,,76.0,45.0,76.0,184380,768.25
3146,2.0,,,,,,,45.0,,,,60,note_on,,0.0,45.0,0.0,184440,768.5
3147,2.0,,,,,,,43.0,,,,0,note_on,,76.0,43.0,76.0,184440,768.5
3148,2.0,,,,,,,43.0,,,,300,note_on,,0.0,43.0,0.0,184740,769.75
3149,2.0,,,,,,,47.0,,,,0,note_on,,76.0,47.0,76.0,184740,769.75
3150,2.0,,,,,,,47.0,,,,60,note_on,,0.0,47.0,0.0,184800,770.0
3151,2.0,,,,,,,40.0,,,,0,note_on,,76.0,40.0,76.0,184800,770.0
3152,2.0,,,,,,,40.0,,,,300,note_on,,0.0,40.0,0.0,185100,771.25
3153,2.0,,,,,,,47.0,,,,0,note_on,,76.0,47.0,76.0,185100,771.25
3154,2.0,,,,,,,47.0,,,,60,note_on,,0.0,47.0,0.0,185160,771.5
3155,2.0,,,,,,,45.0,,,,0,note_on,,76.0,45.0,76.0,185160,771.5
3156,2.0,,,,,,,45.0,,,,300,note_on,,0.0,45.0,0.0,185460,772.75
3157,2.0,,,,,,,45.0,,,,0,note_on,,76.0,45.0,76.0,185460,772.75
3158,2.0,,,,,,,45.0,,,,60,note_on,,0.0,45.0,0.0,185520,773.0
3159,2.0,,,,,,,52.0,,,,0,note_on,,65.0,52.0,65.0,185520,773.0
3160,2.0,,,,,,,45.0,,,,0,note_on,,65.0,45.0,65.0,185520,773.0
3161,2.0,,,,,,,45.0,,,,180,note_on,,0.0,45.0,0.0,185700,773.75
3162,2.0,,,,,,,52.0,,,,0,note_on,,0.0,52.0,0.0,185700,773.75
3163,2.0,,,,,,,41.0,,,,180,note_on,,76.0,41.0,76.0,185880,774.5
3164,2.0,,,,,,,41.0,,,,300,note_on,,0.0,41.0,0.0,186180,775.75
3165,2.0,,,,,,,45.0,,,,0,note_on,,76.0,45.0,76.0,186180,775.75
3166,2.0,,,,,,,45.0,,,,60,note_on,,0.0,45.0,0.0,186240,776.0
3167,2.0,,,,,,,41.0,,,,0,note_on,,76.0,41.0,76.0,186240,776.0
3168,2.0,,,,,,,41.0,,,,300,note_on,,0.0,41.0,0.0,186540,777.25
3169,2.0,,,,,,,45.0,,,,0,note_on,,76.0,45.0,76.0,186540,777.25
3170,2.0,,,,,,,45.0,,,,60,note_on,,0.0,45.0,0.0,186600,777.5
3171,2.0,,,,,,,45.0,,,,0,note_on,,76.0,45.0,76.0,186600,777.5
3172,2.0,,,,,,,45.0,,,,300,note_on,,0.0,45.0,0.0,186900,778.75
3173,2.0,,,,,,,47.0,,,,0,note_on,,76.0,47.0,76.0,186900,778.75
3174,2.0,,,,,,,47.0,,,,60,note_on,,0.0,47.0,0.0,186960,779.0
3175,2.0,,,,,,,45.0,,,,0,note_on,,76.0,45.0,76.0,186960,779.0
3176,2.0,,,,,,,45.0,,,,300,note_on,,0.0,45.0,0.0,187260,780.25
3177,2.0,,,,,,,47.0,,,,0,note_on,,76.0,47.0,76.0,187260,780.25
3178,2.0,,,,,,,47.0,,,,60,note_on,,0.0,47.0,0.0,187320,780.5
3179,2.0,,,,,,,41.0,,,,0,note_on,,76.0,41.0,76.0,187320,780.5
3180,2.0,,,,,,,41.0,,,,300,note_on,,0.0,41.0,0.0,187620,781.75
3181,2.0,,,,,,,45.0,,,,0,note_on,,76.0,45.0,76.0,187620,781.75
3182,2.0,,,,,,,45.0,,,,60,note_on,,0.0,45.0,0.0,187680,782.0
3183,2.0,,,,,,,41.0,,,,0,note_on,,76.0,41.0,76.0,187680,782.0
3184,2.0,,,,,,,41.0,,,,300,note_on,,0.0,41.0,0.0,187980,783.25
3185,2.0,,,,,,,45.0,,,,0,note_on,,76.0,45.0,76.0,187980,783.25
3186,2.0,,,,,,,45.0,,,,60,note_on,,0.0,45.0,0.0,188040,783.5
3187,2.0,,,,,,,48.0,,,,0,note_on,,76.0,48.0,76.0,188040,783.5
3188,2.0,,,,,,,48.0,,,,300,note_on,,0.0,48.0,0.0,188340,784.75
3189,2.0,,,,,,,47.0,,,,0,note_on,,76.0,47.0,76.0,188340,784.75
3190,2.0,,,,,,,47.0,,,,60,note_on,,0.0,47.0,0.0,188400,785.0
3191,2.0,,,,,,,43.0,,,,0,note_on,,76.0,43.0,76.0,188400,785.0
3192,2.0,,,,,,,43.0,,,,300,note_on,,0.0,43.0,0.0,188700,786.25
3193,2.0,,,,,,,47.0,,,,0,note_on,,76.0,47.0,76.0,188700,786.25
3194,2.0,,,,,,,47.0,,,,60,note_on,,0.0,47.0,0.0,188760,786.5
3195,2.0,,,,,,,48.0,,,,0,note_on,,76.0,48.0,76.0,188760,786.5
3196,2.0,,,,,,,48.0,,,,300,note_on,,0.0,48.0,0.0,189060,787.75
3197,2.0,,,,,,,47.0,,,,0,note_on,,76.0,47.0,76.0,189060,787.75
3198,2.0,,,,,,,47.0,,,,60,note_on,,0.0,47.0,0.0,189120,788.0
3199,2.0,,,,,,,43.0,,,,0,note_on,,76.0,43.0,76.0,189120,788.0
3200,2.0,,,,,,,43.0,,,,300,note_on,,0.0,43.0,0.0,189420,789.25
3201,2.0,,,,,,,47.0,,,,0,note_on,,76.0,47.0,76.0,189420,789.25
3202,2.0,,,,,,,47.0,,,,60,note_on,,0.0,47.0,0.0,189480,789.5
3203,2.0,,,,,,,45.0,,,,0,note_on,,76.0,45.0,76.0,189480,789.5
3204,2.0,,,,,,,45.0,,,,300,note_on,,0.0,45.0,0.0,189780,790.75
3205,2.0,,,,,,,47.0,,,,0,note_on,,76.0,47.0,76.0,189780,790.75
3206,2.0,,,,,,,47.0,,,,60,note_on,,0.0,47.0,0.0,189840,791.0
3207,2.0,,,,,,,48.0,,,,0,note_on,,76.0,48.0,76.0,189840,791.0
3208,2.0,,,,,,,48.0,,,,300,note_on,,0.0,48.0,0.0,190140,792.25
3209,2.0,,,,,,,47.0,,,,0,note_on,,76.0,47.0,76.0,190140,792.25
3210,2.0,,,,,,,47.0,,,,60,note_on,,0.0,47.0,0.0,190200,792.5
3211,2.0,,,,,,,45.0,,,,0,note_on,,76.0,45.0,76.0,190200,792.5
3212,2.0,,,,,,,45.0,,,,300,note_on,,0.0,45.0,0.0,190500,793.75
3213,2.0,,,,,,,47.0,,,,0,note_on,,76.0,47.0,76.0,190500,793.75
3214,2.0,,,,,,,47.0,,,,60,note_on,,0.0,47.0,0.0,190560,794.0
3215,2.0,,,,,,,48.0,,,,0,note_on,,76.0,48.0,76.0,190560,794.0
3216,2.0,,,,,,,48.0,,,,300,note_on,,0.0,48.0,0.0,190860,795.25
3217,2.0,,,,,,,47.0,,,,0,note_on,,76.0,47.0,76.0,190860,795.25
3218,2.0,,,,,,,47.0,,,,60,note_on,,0.0,47.0,0.0,190920,795.5
3219,2.0,,,,,,,45.0,,,,0,note_on,,76.0,45.0,76.0,190920,795.5
3220,2.0,,,,,,,45.0,,,,300,note_on,,0.0,45.0,0.0,191220,796.75
3221,2.0,,,,,,,47.0,,,,0,note_on,,76.0,47.0,76.0,191220,796.75
3222,2.0,,,,,,,47.0,,,,60,note_on,,0.0,47.0,0.0,191280,797.0
3223,2.0,,,,,,,41.0,,,,0,note_on,,76.0,41.0,76.0,191280,797.0
3224,2.0,,,,,,,41.0,,,,300,note_on,,0.0,41.0,0.0,191580,798.25
3225,2.0,,,,,,,45.0,,,,0,note_on,,76.0,45.0,76.0,191580,798.25
3226,2.0,,,,,,,45.0,,,,60,note_on,,0.0,45.0,0.0,191640,798.5
3227,2.0,,,,,,,43.0,,,,0,note_on,,76.0,43.0,76.0,191640,798.5
3228,2.0,,,,,,,43.0,,,,300,note_on,,0.0,43.0,0.0,191940,799.75
3229,2.0,,,,,,,47.0,,,,0,note_on,,76.0,47.0,76.0,191940,799.75
3230,2.0,,,,,,,47.0,,,,60,note_on,,0.0,47.0,0.0,192000,800.0
3231,2.0,,,,,,,48.0,,,,0,note_on,,76.0,48.0,76.0,192000,800.0
3232,2.0,,,,,,,48.0,,,,300,note_on,,0.0,48.0,0.0,192300,801.25
3233,2.0,,,,,,,47.0,,,,0,note_on,,76.0,47.0,76.0,192300,801.25
3234,2.0,,,,,,,47.0,,,,60,note_on,,0.0,47.0,0.0,192360,801.5
3235,2.0,,,,,,,43.0,,,,0,note_on,,76.0,43.0,76.0,192360,801.5
3236,2.0,,,,,,,43.0,,,,300,note_on,,0.0,43.0,0.0,192660,802.75
3237,2.0,,,,,,,47.0,,,,0,note_on,,76.0,47.0,76.0,192660,802.75
3238,2.0,,,,,,,47.0,,,,60,note_on,,0.0,47.0,0.0,192720,803.0
3239,2.0,,,,,,,48.0,,,,0,note_on,,76.0,48.0,76.0,192720,803.0
3240,2.0,,,,,,,48.0,,,,300,note_on,,0.0,48.0,0.0,193020,804.25
3241,2.0,,,,,,,47.0,,,,0,note_on,,76.0,47.0,76.0,193020,804.25
3242,2.0,,,,,,,47.0,,,,60,note_on,,0.0,47.0,0.0,193080,804.5
3243,2.0,,,,,,,41.0,,,,0,note_on,,76.0,41.0,76.0,193080,804.5
3244,2.0,,,,,,,41.0,,,,180,note_on,,0.0,41.0,0.0,193260,805.25
3245,2.0,,,,,,,43.0,,,,0,note_on,,76.0,43.0,76.0,193260,805.25
3246,2.0,,,,,,,43.0,,,,180,note_on,,0.0,43.0,0.0,193440,806.0
3247,2.0,,,,,,,45.0,,,,0,note_on,,76.0,45.0,76.0,193440,806.0
3248,2.0,,,,,,,45.0,,,,300,note_on,,0.0,45.0,0.0,193740,807.25
3249,2.0,,,,,,,47.0,,,,0,note_on,,76.0,47.0,76.0,193740,807.25
3250,2.0,,,,,,,47.0,,,,60,note_on,,0.0,47.0,0.0,193800,807.5
3251,2.0,,,,,,,41.0,,,,0,note_on,,76.0,41.0,76.0,193800,807.5
3252,2.0,,,,,,,41.0,,,,300,note_on,,0.0,41.0,0.0,194100,808.75
3253,2.0,,,,,,,45.0,,,,0,note_on,,76.0,45.0,76.0,194100,808.75
3254,2.0,,,,,,,45.0,,,,60,note_on,,0.0,45.0,0.0,194160,809.0
3255,2.0,,,,,,,43.0,,,,0,note_on,,76.0,43.0,76.0,194160,809.0
3256,2.0,,,,,,,43.0,,,,300,note_on,,0.0,43.0,0.0,194460,810.25
3257,2.0,,,,,,,47.0,,,,0,note_on,,76.0,47.0,76.0,194460,810.25
3258,2.0,,,,,,,47.0,,,,60,note_on,,0.0,47.0,0.0,194520,810.5
3259,2.0,,,,,,,40.0,,,,0,note_on,,76.0,40.0,76.0,194520,810.5
3260,2.0,,,,,,,40.0,,,,300,note_on,,0.0,40.0,0.0,194820,811.75
3261,2.0,,,,,,,47.0,,,,0,note_on,,76.0,47.0,76.0,194820,811.75
3262,2.0,,,,,,,47.0,,,,60,note_on,,0.0,47.0,0.0,194880,812.0
3263,2.0,,,,,,,45.0,,,,0,note_on,,76.0,45.0,76.0,194880,812.0
3264,2.0,,,,,,,45.0,,,,300,note_on,,0.0,45.0,0.0,195180,813.25
3265,2.0,,,,,,,45.0,,,,0,note_on,,76.0,45.0,76.0,195180,813.25
3266,2.0,,,,,,,45.0,,,,60,note_on,,0.0,45.0,0.0,195240,813.5
3267,2.0,,,,,,,52.0,,,,0,note_on,,65.0,52.0,65.0,195240,813.5
3268,2.0,,,,,,,45.0,,,,0,note_on,,65.0,45.0,65.0,195240,813.5
3269,2.0,,,,,,,45.0,,,,180,note_on,,0.0,45.0,0.0,195420,814.25
3270,2.0,,,,,,,52.0,,,,0,note_on,,0.0,52.0,0.0,195420,814.25
3271,2.0,,,,,,,41.0,,,,180,note_on,,76.0,41.0,76.0,195600,815.0
3272,2.0,,,,,,,41.0,,,,300,note_on,,0.0,41.0,0.0,195900,816.25
3273,2.0,,,,,,,45.0,,,,0,note_on,,76.0,45.0,76.0,195900,816.25
3274,2.0,,,,,,,45.0,,,,60,note_on,,0.0,45.0,0.0,195960,816.5
3275,2.0,,,,,,,41.0,,,,0,note_on,,76.0,41.0,76.0,195960,816.5
3276,2.0,,,,,,,41.0,,,,300,note_on,,0.0,41.0,0.0,196260,817.75
3277,2.0,,,,,,,45.0,,,,0,note_on,,76.0,45.0,76.0,196260,817.75
3278,2.0,,,,,,,45.0,,,,60,note_on,,0.0,45.0,0.0,196320,818.0
3279,2.0,,,,,,,45.0,,,,0,note_on,,76.0,45.0,76.0,196320,818.0
3280,2.0,,,,,,,45.0,,,,300,note_on,,0.0,45.0,0.0,196620,819.25
3281,2.0,,,,,,,47.0,,,,0,note_on,,76.0,47.0,76.0,196620,819.25
3282,2.0,,,,,,,47.0,,,,60,note_on,,0.0,47.0,0.0,196680,819.5
3283,2.0,,,,,,,45.0,,,,0,note_on,,76.0,45.0,76.0,196680,819.5
3284,2.0,,,,,,,45.0,,,,300,note_on,,0.0,45.0,0.0,196980,820.75
3285,2.0,,,,,,,47.0,,,,0,note_on,,76.0,47.0,76.0,196980,820.75
3286,2.0,,,,,,,47.0,,,,60,note_on,,0.0,47.0,0.0,197040,821.0
3287,2.0,,,,,,,41.0,,,,0,note_on,,76.0,41.0,76.0,197040,821.0
3288,2.0,,,,,,,41.0,,,,300,note_on,,0.0,41.0,0.0,197340,822.25
3289,2.0,,,,,,,45.0,,,,0,note_on,,76.0,45.0,76.0,197340,822.25
3290,2.0,,,,,,,45.0,,,,60,note_on,,0.0,45.0,0.0,197400,822.5
3291,2.0,,,,,,,41.0,,,,0,note_on,,76.0,41.0,76.0,197400,822.5
3292,2.0,,,,,,,41.0,,,,300,note_on,,0.0,41.0,0.0,197700,823.75
3293,2.0,,,,,,,45.0,,,,0,note_on,,76.0,45.0,76.0,197700,823.75
3294,2.0,,,,,,,45.0,,,,60,note_on,,0.0,45.0,0.0,197760,824.0
3295,2.0,,,,,,,48.0,,,,0,note_on,,76.0,48.0,76.0,197760,824.0
3296,2.0,,,,,,,48.0,,,,300,note_on,,0.0,48.0,0.0,198060,825.25
3297,2.0,,,,,,,47.0,,,,0,note_on,,76.0,47.0,76.0,198060,825.25
3298,2.0,,,,,,,47.0,,,,60,note_on,,0.0,47.0,0.0,198120,825.5
3299,2.0,,,,,,,43.0,,,,0,note_on,,76.0,43.0,76.0,198120,825.5
3300,2.0,,,,,,,43.0,,,,300,note_on,,0.0,43.0,0.0,198420,826.75
3301,2.0,,,,,,,47.0,,,,0,note_on,,76.0,47.0,76.0,198420,826.75
3302,2.0,,,,,,,47.0,,,,60,note_on,,0.0,47.0,0.0,198480,827.0
3303,2.0,,,,,,,48.0,,,,0,note_on,,76.0,48.0,76.0,198480,827.0
3304,2.0,,,,,,,48.0,,,,300,note_on,,0.0,48.0,0.0,198780,828.25
3305,2.0,,,,,,,47.0,,,,0,note_on,,76.0,47.0,76.0,198780,828.25
3306,2.0,,,,,,,47.0,,,,60,note_on,,0.0,47.0,0.0,198840,828.5
3307,2.0,,,,,,,43.0,,,,0,note_on,,76.0,43.0,76.0,198840,828.5
3308,2.0,,,,,,,43.0,,,,300,note_on,,0.0,43.0,0.0,199140,829.75
3309,2.0,,,,,,,47.0,,,,0,note_on,,76.0,47.0,76.0,199140,829.75
3310,2.0,,,,,,,47.0,,,,60,note_on,,0.0,47.0,0.0,199200,830.0
3311,2.0,,,,,,,48.0,,,,0,note_on,,60.0,48.0,60.0,199200,830.0
3312,2.0,,,,,,,48.0,,,,480,note_on,,0.0,48.0,0.0,199680,832.0
3313,,,,,,,,,,,,0,end_of_track,,,,,199680,832.0
3314,3.0,,,,,,,,,24.0,,0,program_change,,,,,199680,832.0
3315,3.0,,7.0,,,,,,,,,0,control_change,80.0,,,,199680,832.0
3316,3.0,,,,,,,48.0,,,,0,note_on,,70.0,48.0,70.0,199680,832.0
3317,3.0,,,,,,,52.0,,,,4,note_on,,70.0,52.0,70.0,199684,832.0166666666667
3318,3.0,,,,,,,55.0,,,,1,note_on,,70.0,55.0,70.0,199685,832.0208333333334
3319,3.0,,,,,,,60.0,,,,1,note_on,,70.0,60.0,70.0,199686,832.025
3320,3.0,,,,,,,64.0,,,,1,note_on,,70.0,64.0,70.0,199687,832.0291666666667
3321,3.0,,,,,,,64.0,,,,113,note_on,,0.0,64.0,0.0,199800,832.5
3322,3.0,,,,,,,55.0,,,,0,note_on,,0.0,55.0,0.0,199800,832.5
3323,3.0,,,,,,,60.0,,,,0,note_on,,0.0,60.0,0.0,199800,832.5
3324,3.0,,,,,,,55.0,,,,0,note_on,,70.0,55.0,70.0,199800,832.5
3325,3.0,,,,,,,60.0,,,,4,note_on,,70.0,60.0,70.0,199804,832.5166666666667
3326,3.0,,,,,,,64.0,,,,3,note_on,,70.0,64.0,70.0,199807,832.5291666666667
3327,3.0,,,,,,,64.0,,,,53,note_on,,0.0,64.0,0.0,199860,832.75
3328,3.0,,,,,,,55.0,,,,0,note_on,,0.0,55.0,0.0,199860,832.75
3329,3.0,,,,,,,48.0,,,,0,note_on,,0.0,48.0,0.0,199860,832.75
3330,3.0,,,,,,,52.0,,,,0,note_on,,0.0,52.0,0.0,199860,832.75
3331,3.0,,,,,,,60.0,,,,0,note_on,,0.0,60.0,0.0,199860,832.75
3332,3.0,,,,,,,48.0,,,,0,note_on,,70.0,48.0,70.0,199860,832.75
3333,3.0,,,,,,,52.0,,,,4,note_on,,70.0,52.0,70.0,199864,832.7666666666667
3334,3.0,,,,,,,55.0,,,,1,note_on,,70.0,55.0,70.0,199865,832.7708333333334
3335,3.0,,,,,,,60.0,,,,1,note_on,,70.0,60.0,70.0,199866,832.775
3336,3.0,,,,,,,64.0,,,,1,note_on,,70.0,64.0,70.0,199867,832.7791666666667
3337,3.0,,,,,,,64.0,,,,113,note_on,,0.0,64.0,0.0,199980,833.25
3338,3.0,,,,,,,55.0,,,,0,note_on,,0.0,55.0,0.0,199980,833.25
3339,3.0,,,,,,,60.0,,,,0,note_on,,0.0,60.0,0.0,199980,833.25
3340,3.0,,,,,,,55.0,,,,0,note_on,,70.0,55.0,70.0,199980,833.25
3341,3.0,,,,,,,60.0,,,,4,note_on,,70.0,60.0,70.0,199984,833.2666666666667
3342,3.0,,,,,,,64.0,,,,3,note_on,,70.0,64.0,70.0,199987,833.2791666666667
3343,3.0,,,,,,,64.0,,,,53,note_on,,0.0,64.0,0.0,200040,833.5
3344,3.0,,,,,,,55.0,,,,0,note_on,,0.0,55.0,0.0,200040,833.5
3345,3.0,,,,,,,48.0,,,,0,note_on,,0.0,48.0,0.0,200040,833.5
3346,3.0,,,,,,,52.0,,,,0,note_on,,0.0,52.0,0.0,200040,833.5
3347,3.0,,,,,,,60.0,,,,0,note_on,,0.0,60.0,0.0,200040,833.5
3348,3.0,,,,,,,45.0,,,,0,note_on,,70.0,45.0,70.0,200040,833.5
3349,3.0,,,,,,,52.0,,,,2,note_on,,70.0,52.0,70.0,200042,833.5083333333333
3350,3.0,,,,,,,57.0,,,,2,note_on,,70.0,57.0,70.0,200044,833.5166666666667
3351,3.0,,,,,,,60.0,,,,1,note_on,,70.0,60.0,70.0,200045,833.5208333333334
3352,3.0,,,,,,,64.0,,,,1,note_on,,70.0,64.0,70.0,200046,833.525
3353,3.0,,,,,,,64.0,,,,114,note_on,,0.0,64.0,0.0,200160,834.0
3354,3.0,,,,,,,60.0,,,,0,note_on,,0.0,60.0,0.0,200160,834.0
3355,3.0,,,,,,,57.0,,,,0,note_on,,70.0,57.0,70.0,200160,834.0
3356,3.0,,,,,,,60.0,,,,4,note_on,,70.0,60.0,70.0,200164,834.0166666666667
3357,3.0,,,,,,,64.0,,,,3,note_on,,70.0,64.0,70.0,200167,834.0291666666667
3358,3.0,,,,,,,64.0,,,,53,note_on,,0.0,64.0,0.0,200220,834.25
3359,3.0,,,,,,,52.0,,,,0,note_on,,0.0,52.0,0.0,200220,834.25
3360,3.0,,,,,,,45.0,,,,0,note_on,,0.0,45.0,0.0,200220,834.25
3361,3.0,,,,,,,57.0,,,,0,note_on,,0.0,57.0,0.0,200220,834.25
3362,3.0,,,,,,,60.0,,,,0,note_on,,0.0,60.0,0.0,200220,834.25
3363,3.0,,,,,,,57.0,,,,0,note_on,,0.0,57.0,0.0,200220,834.25
3364,3.0,,,,,,,45.0,,,,0,note_on,,70.0,45.0,70.0,200220,834.25
3365,3.0,,,,,,,52.0,,,,2,note_on,,70.0,52.0,70.0,200222,834.2583333333333
3366,3.0,,,,,,,57.0,,,,2,note_on,,70.0,57.0,70.0,200224,834.2666666666667
3367,3.0,,,,,,,60.0,,,,1,note_on,,70.0,60.0,70.0,200225,834.2708333333334
3368,3.0,,,,,,,64.0,,,,1,note_on,,70.0,64.0,70.0,200226,834.275
3369,3.0,,,,,,,64.0,,,,114,note_on,,0.0,64.0,0.0,200340,834.75
3370,3.0,,,,,,,60.0,,,,0,note_on,,0.0,60.0,0.0,200340,834.75
3371,3.0,,,,,,,57.0,,,,0,note_on,,70.0,57.0,70.0,200340,834.75
3372,3.0,,,,,,,60.0,,,,4,note_on,,70.0,60.0,70.0,200344,834.7666666666667
3373,3.0,,,,,,,64.0,,,,3,note_on,,70.0,64.0,70.0,200347,834.7791666666667
3374,3.0,,,,,,,64.0,,,,53,note_on,,0.0,64.0,0.0,200400,835.0
3375,3.0,,,,,,,52.0,,,,0,note_on,,0.0,52.0,0.0,200400,835.0
3376,3.0,,,,,,,45.0,,,,0,note_on,,0.0,45.0,0.0,200400,835.0
3377,3.0,,,,,,,57.0,,,,0,note_on,,0.0,57.0,0.0,200400,835.0
3378,3.0,,,,,,,60.0,,,,0,note_on,,0.0,60.0,0.0,200400,835.0
3379,3.0,,,,,,,57.0,,,,0,note_on,,0.0,57.0,0.0,200400,835.0
3380,3.0,,,,,,,48.0,,,,0,note_on,,70.0,48.0,70.0,200400,835.0
3381,3.0,,,,,,,52.0,,,,4,note_on,,70.0,52.0,70.0,200404,835.0166666666667
3382,3.0,,,,,,,55.0,,,,1,note_on,,70.0,55.0,70.0,200405,835.0208333333334
3383,3.0,,,,,,,60.0,,,,1,note_on,,70.0,60.0,70.0,200406,835.025
3384,3.0,,,,,,,64.0,,,,1,note_on,,70.0,64.0,70.0,200407,835.0291666666667
3385,3.0,,,,,,,64.0,,,,113,note_on,,0.0,64.0,0.0,200520,835.5
3386,3.0,,,,,,,55.0,,,,0,note_on,,0.0,55.0,0.0,200520,835.5
3387,3.0,,,,,,,60.0,,,,0,note_on,,0.0,60.0,0.0,200520,835.5
3388,3.0,,,,,,,55.0,,,,0,note_on,,70.0,55.0,70.0,200520,835.5
3389,3.0,,,,,,,60.0,,,,4,note_on,,70.0,60.0,70.0,200524,835.5166666666667
3390,3.0,,,,,,,64.0,,,,3,note_on,,70.0,64.0,70.0,200527,835.5291666666667
3391,3.0,,,,,,,64.0,,,,53,note_on,,0.0,64.0,0.0,200580,835.75
3392,3.0,,,,,,,55.0,,,,0,note_on,,0.0,55.0,0.0,200580,835.75
3393,3.0,,,,,,,48.0,,,,0,note_on,,0.0,48.0,0.0,200580,835.75
3394,3.0,,,,,,,52.0,,,,0,note_on,,0.0,52.0,0.0,200580,835.75
3395,3.0,,,,,,,60.0,,,,0,note_on,,0.0,60.0,0.0,200580,835.75
3396,3.0,,,,,,,48.0,,,,0,note_on,,70.0,48.0,70.0,200580,835.75
3397,3.0,,,,,,,52.0,,,,4,note_on,,70.0,52.0,70.0,200584,835.7666666666667
3398,3.0,,,,,,,55.0,,,,1,note_on,,70.0,55.0,70.0,200585,835.7708333333334
3399,3.0,,,,,,,60.0,,,,1,note_on,,70.0,60.0,70.0,200586,835.775
3400,3.0,,,,,,,64.0,,,,1,note_on,,70.0,64.0,70.0,200587,835.7791666666667
3401,3.0,,,,,,,64.0,,,,113,note_on,,0.0,64.0,0.0,200700,836.25
3402,3.0,,,,,,,55.0,,,,0,note_on,,0.0,55.0,0.0,200700,836.25
3403,3.0,,,,,,,60.0,,,,0,note_on,,0.0,60.0,0.0,200700,836.25
3404,3.0,,,,,,,55.0,,,,0,note_on,,70.0,55.0,70.0,200700,836.25
3405,3.0,,,,,,,60.0,,,,4,note_on,,70.0,60.0,70.0,200704,836.2666666666667
3406,3.0,,,,,,,64.0,,,,3,note_on,,70.0,64.0,70.0,200707,836.2791666666667
3407,3.0,,,,,,,64.0,,,,53,note_on,,0.0,64.0,0.0,200760,836.5
3408,3.0,,,,,,,55.0,,,,0,note_on,,0.0,55.0,0.0,200760,836.5
3409,3.0,,,,,,,48.0,,,,0,note_on,,0.0,48.0,0.0,200760,836.5
3410,3.0,,,,,,,52.0,,,,0,note_on,,0.0,52.0,0.0,200760,836.5
3411,3.0,,,,,,,60.0,,,,0,note_on,,0.0,60.0,0.0,200760,836.5
3412,3.0,,,,,,,45.0,,,,0,note_on,,70.0,45.0,70.0,200760,836.5
3413,3.0,,,,,,,52.0,,,,2,note_on,,70.0,52.0,70.0,200762,836.5083333333333
3414,3.0,,,,,,,57.0,,,,2,note_on,,70.0,57.0,70.0,200764,836.5166666666667
3415,3.0,,,,,,,60.0,,,,1,note_on,,70.0,60.0,70.0,200765,836.5208333333334
3416,3.0,,,,,,,64.0,,,,1,note_on,,70.0,64.0,70.0,200766,836.525
3417,3.0,,,,,,,64.0,,,,114,note_on,,0.0,64.0,0.0,200880,837.0
3418,3.0,,,,,,,60.0,,,,0,note_on,,0.0,60.0,0.0,200880,837.0
3419,3.0,,,,,,,57.0,,,,0,note_on,,70.0,57.0,70.0,200880,837.0
3420,3.0,,,,,,,60.0,,,,4,note_on,,70.0,60.0,70.0,200884,837.0166666666667
3421,3.0,,,,,,,64.0,,,,3,note_on,,70.0,64.0,70.0,200887,837.0291666666667
3422,3.0,,,,,,,64.0,,,,53,note_on,,0.0,64.0,0.0,200940,837.25
3423,3.0,,,,,,,52.0,,,,0,note_on,,0.0,52.0,0.0,200940,837.25
3424,3.0,,,,,,,45.0,,,,0,note_on,,0.0,45.0,0.0,200940,837.25
3425,3.0,,,,,,,57.0,,,,0,note_on,,0.0,57.0,0.0,200940,837.25
3426,3.0,,,,,,,60.0,,,,0,note_on,,0.0,60.0,0.0,200940,837.25
3427,3.0,,,,,,,57.0,,,,0,note_on,,0.0,57.0,0.0,200940,837.25
3428,3.0,,,,,,,45.0,,,,0,note_on,,70.0,45.0,70.0,200940,837.25
3429,3.0,,,,,,,52.0,,,,2,note_on,,70.0,52.0,70.0,200942,837.2583333333333
3430,3.0,,,,,,,57.0,,,,2,note_on,,70.0,57.0,70.0,200944,837.2666666666667
3431,3.0,,,,,,,60.0,,,,1,note_on,,70.0,60.0,70.0,200945,837.2708333333334
3432,3.0,,,,,,,64.0,,,,1,note_on,,70.0,64.0,70.0,200946,837.275
3433,3.0,,,,,,,64.0,,,,114,note_on,,0.0,64.0,0.0,201060,837.75
3434,3.0,,,,,,,60.0,,,,0,note_on,,0.0,60.0,0.0,201060,837.75
3435,3.0,,,,,,,57.0,,,,0,note_on,,70.0,57.0,70.0,201060,837.75
3436,3.0,,,,,,,60.0,,,,4,note_on,,70.0,60.0,70.0,201064,837.7666666666667
3437,3.0,,,,,,,64.0,,,,3,note_on,,70.0,64.0,70.0,201067,837.7791666666667
3438,3.0,,,,,,,64.0,,,,53,note_on,,0.0,64.0,0.0,201120,838.0
3439,3.0,,,,,,,52.0,,,,0,note_on,,0.0,52.0,0.0,201120,838.0
3440,3.0,,,,,,,45.0,,,,0,note_on,,0.0,45.0,0.0,201120,838.0
3441,3.0,,,,,,,57.0,,,,0,note_on,,0.0,57.0,0.0,201120,838.0
3442,3.0,,,,,,,60.0,,,,0,note_on,,0.0,60.0,0.0,201120,838.0
3443,3.0,,,,,,,57.0,,,,0,note_on,,0.0,57.0,0.0,201120,838.0
3444,3.0,,,,,,,48.0,,,,0,note_on,,70.0,48.0,70.0,201120,838.0
3445,3.0,,,,,,,52.0,,,,4,note_on,,70.0,52.0,70.0,201124,838.0166666666667
3446,3.0,,,,,,,55.0,,,,1,note_on,,70.0,55.0,70.0,201125,838.0208333333334
3447,3.0,,,,,,,60.0,,,,1,note_on,,70.0,60.0,70.0,201126,838.025
3448,3.0,,,,,,,64.0,,,,1,note_on,,70.0,64.0,70.0,201127,838.0291666666667
3449,3.0,,,,,,,64.0,,,,113,note_on,,0.0,64.0,0.0,201240,838.5
3450,3.0,,,,,,,55.0,,,,0,note_on,,0.0,55.0,0.0,201240,838.5
3451,3.0,,,,,,,60.0,,,,0,note_on,,0.0,60.0,0.0,201240,838.5
3452,3.0,,,,,,,55.0,,,,0,note_on,,70.0,55.0,70.0,201240,838.5
3453,3.0,,,,,,,60.0,,,,4,note_on,,70.0,60.0,70.0,201244,838.5166666666667
3454,3.0,,,,,,,64.0,,,,3,note_on,,70.0,64.0,70.0,201247,838.5291666666667
3455,3.0,,,,,,,64.0,,,,53,note_on,,0.0,64.0,0.0,201300,838.75
3456,3.0,,,,,,,55.0,,,,0,note_on,,0.0,55.0,0.0,201300,838.75
3457,3.0,,,,,,,48.0,,,,0,note_on,,0.0,48.0,0.0,201300,838.75
3458,3.0,,,,,,,52.0,,,,0,note_on,,0.0,52.0,0.0,201300,838.75
3459,3.0,,,,,,,60.0,,,,0,note_on,,0.0,60.0,0.0,201300,838.75
3460,3.0,,,,,,,48.0,,,,0,note_on,,70.0,48.0,70.0,201300,838.75
3461,3.0,,,,,,,52.0,,,,4,note_on,,70.0,52.0,70.0,201304,838.7666666666667
3462,3.0,,,,,,,55.0,,,,1,note_on,,70.0,55.0,70.0,201305,838.7708333333334
3463,3.0,,,,,,,60.0,,,,1,note_on,,70.0,60.0,70.0,201306,838.775
3464,3.0,,,,,,,64.0,,,,1,note_on,,70.0,64.0,70.0,201307,838.7791666666667
3465,3.0,,,,,,,64.0,,,,113,note_on,,0.0,64.0,0.0,201420,839.25
3466,3.0,,,,,,,55.0,,,,0,note_on,,0.0,55.0,0.0,201420,839.25
3467,3.0,,,,,,,60.0,,,,0,note_on,,0.0,60.0,0.0,201420,839.25
3468,3.0,,,,,,,55.0,,,,0,note_on,,70.0,55.0,70.0,201420,839.25
3469,3.0,,,,,,,60.0,,,,4,note_on,,70.0,60.0,70.0,201424,839.2666666666667
3470,3.0,,,,,,,64.0,,,,3,note_on,,70.0,64.0,70.0,201427,839.2791666666667
3471,3.0,,,,,,,64.0,,,,53,note_on,,0.0,64.0,0.0,201480,839.5
3472,3.0,,,,,,,55.0,,,,0,note_on,,0.0,55.0,0.0,201480,839.5
3473,3.0,,,,,,,48.0,,,,0,note_on,,0.0,48.0,0.0,201480,839.5
3474,3.0,,,,,,,52.0,,,,0,note_on,,0.0,52.0,0.0,201480,839.5
3475,3.0,,,,,,,60.0,,,,0,note_on,,0.0,60.0,0.0,201480,839.5
3476,3.0,,,,,,,45.0,,,,0,note_on,,70.0,45.0,70.0,201480,839.5
3477,3.0,,,,,,,52.0,,,,2,note_on,,70.0,52.0,70.0,201482,839.5083333333333
3478,3.0,,,,,,,57.0,,,,2,note_on,,70.0,57.0,70.0,201484,839.5166666666667
3479,3.0,,,,,,,60.0,,,,1,note_on,,70.0,60.0,70.0,201485,839.5208333333334
3480,3.0,,,,,,,64.0,,,,1,note_on,,70.0,64.0,70.0,201486,839.525
3481,3.0,,,,,,,64.0,,,,114,note_on,,0.0,64.0,0.0,201600,840.0
3482,3.0,,,,,,,60.0,,,,0,note_on,,0.0,60.0,0.0,201600,840.0
3483,3.0,,,,,,,57.0,,,,0,note_on,,70.0,57.0,70.0,201600,840.0
3484,3.0,,,,,,,60.0,,,,4,note_on,,70.0,60.0,70.0,201604,840.0166666666667
3485,3.0,,,,,,,64.0,,,,3,note_on,,70.0,64.0,70.0,201607,840.0291666666667
3486,3.0,,,,,,,64.0,,,,53,note_on,,0.0,64.0,0.0,201660,840.25
3487,3.0,,,,,,,52.0,,,,0,note_on,,0.0,52.0,0.0,201660,840.25
3488,3.0,,,,,,,45.0,,,,0,note_on,,0.0,45.0,0.0,201660,840.25
3489,3.0,,,,,,,57.0,,,,0,note_on,,0.0,57.0,0.0,201660,840.25
3490,3.0,,,,,,,60.0,,,,0,note_on,,0.0,60.0,0.0,201660,840.25
3491,3.0,,,,,,,57.0,,,,0,note_on,,0.0,57.0,0.0,201660,840.25
3492,3.0,,,,,,,45.0,,,,0,note_on,,70.0,45.0,70.0,201660,840.25
3493,3.0,,,,,,,52.0,,,,2,note_on,,70.0,52.0,70.0,201662,840.2583333333333
3494,3.0,,,,,,,57.0,,,,2,note_on,,70.0,57.0,70.0,201664,840.2666666666667
3495,3.0,,,,,,,60.0,,,,1,note_on,,70.0,60.0,70.0,201665,840.2708333333334
3496,3.0,,,,,,,64.0,,,,1,note_on,,70.0,64.0,70.0,201666,840.275
3497,3.0,,,,,,,64.0,,,,114,note_on,,0.0,64.0,0.0,201780,840.75
3498,3.0,,,,,,,60.0,,,,0,note_on,,0.0,60.0,0.0,201780,840.75
3499,3.0,,,,,,,57.0,,,,0,note_on,,70.0,57.0,70.0,201780,840.75
3500,3.0,,,,,,,60.0,,,,4,note_on,,70.0,60.0,70.0,201784,840.7666666666667
3501,3.0,,,,,,,64.0,,,,3,note_on,,70.0,64.0,70.0,201787,840.7791666666667
3502,3.0,,,,,,,64.0,,,,53,note_on,,0.0,64.0,0.0,201840,841.0
3503,3.0,,,,,,,52.0,,,,0,note_on,,0.0,52.0,0.0,201840,841.0
3504,3.0,,,,,,,45.0,,,,0,note_on,,0.0,45.0,0.0,201840,841.0
3505,3.0,,,,,,,57.0,,,,0,note_on,,0.0,57.0,0.0,201840,841.0
3506,3.0,,,,,,,60.0,,,,0,note_on,,0.0,60.0,0.0,201840,841.0
3507,3.0,,,,,,,57.0,,,,0,note_on,,0.0,57.0,0.0,201840,841.0
3508,3.0,,,,,,,48.0,,,,0,note_on,,70.0,48.0,70.0,201840,841.0
3509,3.0,,,,,,,52.0,,,,4,note_on,,70.0,52.0,70.0,201844,841.0166666666667
3510,3.0,,,,,,,55.0,,,,1,note_on,,70.0,55.0,70.0,201845,841.0208333333334
3511,3.0,,,,,,,60.0,,,,1,note_on,,70.0,60.0,70.0,201846,841.025
3512,3.0,,,,,,,64.0,,,,1,note_on,,70.0,64.0,70.0,201847,841.0291666666667
3513,3.0,,,,,,,64.0,,,,113,note_on,,0.0,64.0,0.0,201960,841.5
3514,3.0,,,,,,,55.0,,,,0,note_on,,0.0,55.0,0.0,201960,841.5
3515,3.0,,,,,,,60.0,,,,0,note_on,,0.0,60.0,0.0,201960,841.5
3516,3.0,,,,,,,55.0,,,,0,note_on,,70.0,55.0,70.0,201960,841.5
3517,3.0,,,,,,,60.0,,,,4,note_on,,70.0,60.0,70.0,201964,841.5166666666667
3518,3.0,,,,,,,64.0,,,,3,note_on,,70.0,64.0,70.0,201967,841.5291666666667
3519,3.0,,,,,,,64.0,,,,53,note_on,,0.0,64.0,0.0,202020,841.75
3520,3.0,,,,,,,55.0,,,,0,note_on,,0.0,55.0,0.0,202020,841.75
3521,3.0,,,,,,,48.0,,,,0,note_on,,0.0,48.0,0.0,202020,841.75
3522,3.0,,,,,,,52.0,,,,0,note_on,,0.0,52.0,0.0,202020,841.75
3523,3.0,,,,,,,60.0,,,,0,note_on,,0.0,60.0,0.0,202020,841.75
3524,3.0,,,,,,,48.0,,,,0,note_on,,70.0,48.0,70.0,202020,841.75
3525,3.0,,,,,,,52.0,,,,4,note_on,,70.0,52.0,70.0,202024,841.7666666666667
3526,3.0,,,,,,,55.0,,,,1,note_on,,70.0,55.0,70.0,202025,841.7708333333334
3527,3.0,,,,,,,60.0,,,,1,note_on,,70.0,60.0,70.0,202026,841.775
3528,3.0,,,,,,,64.0,,,,1,note_on,,70.0,64.0,70.0,202027,841.7791666666667
3529,3.0,,,,,,,64.0,,,,113,note_on,,0.0,64.0,0.0,202140,842.25
3530,3.0,,,,,,,55.0,,,,0,note_on,,0.0,55.0,0.0,202140,842.25
3531,3.0,,,,,,,60.0,,,,0,note_on,,0.0,60.0,0.0,202140,842.25
3532,3.0,,,,,,,55.0,,,,0,note_on,,70.0,55.0,70.0,202140,842.25
3533,3.0,,,,,,,60.0,,,,4,note_on,,70.0,60.0,70.0,202144,842.2666666666667
3534,3.0,,,,,,,64.0,,,,3,note_on,,70.0,64.0,70.0,202147,842.2791666666667
3535,3.0,,,,,,,64.0,,,,53,note_on,,0.0,64.0,0.0,202200,842.5
3536,3.0,,,,,,,55.0,,,,0,note_on,,0.0,55.0,0.0,202200,842.5
3537,3.0,,,,,,,48.0,,,,0,note_on,,0.0,48.0,0.0,202200,842.5
3538,3.0,,,,,,,52.0,,,,0,note_on,,0.0,52.0,0.0,202200,842.5
3539,3.0,,,,,,,60.0,,,,0,note_on,,0.0,60.0,0.0,202200,842.5
3540,3.0,,,,,,,45.0,,,,0,note_on,,70.0,45.0,70.0,202200,842.5
3541,3.0,,,,,,,52.0,,,,2,note_on,,70.0,52.0,70.0,202202,842.5083333333333
3542,3.0,,,,,,,57.0,,,,2,note_on,,70.0,57.0,70.0,202204,842.5166666666667
3543,3.0,,,,,,,60.0,,,,1,note_on,,70.0,60.0,70.0,202205,842.5208333333334
3544,3.0,,,,,,,64.0,,,,1,note_on,,70.0,64.0,70.0,202206,842.525
3545,3.0,,,,,,,64.0,,,,114,note_on,,0.0,64.0,0.0,202320,843.0
3546,3.0,,,,,,,60.0,,,,0,note_on,,0.0,60.0,0.0,202320,843.0
3547,3.0,,,,,,,57.0,,,,0,note_on,,70.0,57.0,70.0,202320,843.0
3548,3.0,,,,,,,60.0,,,,4,note_on,,70.0,60.0,70.0,202324,843.0166666666667
3549,3.0,,,,,,,64.0,,,,3,note_on,,70.0,64.0,70.0,202327,843.0291666666667
3550,3.0,,,,,,,64.0,,,,53,note_on,,0.0,64.0,0.0,202380,843.25
3551,3.0,,,,,,,52.0,,,,0,note_on,,0.0,52.0,0.0,202380,843.25
3552,3.0,,,,,,,45.0,,,,0,note_on,,0.0,45.0,0.0,202380,843.25
3553,3.0,,,,,,,57.0,,,,0,note_on,,0.0,57.0,0.0,202380,843.25
3554,3.0,,,,,,,60.0,,,,0,note_on,,0.0,60.0,0.0,202380,843.25
3555,3.0,,,,,,,57.0,,,,0,note_on,,0.0,57.0,0.0,202380,843.25
3556,3.0,,,,,,,45.0,,,,0,note_on,,70.0,45.0,70.0,202380,843.25
3557,3.0,,,,,,,52.0,,,,2,note_on,,70.0,52.0,70.0,202382,843.2583333333333
3558,3.0,,,,,,,57.0,,,,2,note_on,,70.0,57.0,70.0,202384,843.2666666666667
3559,3.0,,,,,,,60.0,,,,1,note_on,,70.0,60.0,70.0,202385,843.2708333333334
3560,3.0,,,,,,,64.0,,,,1,note_on,,70.0,64.0,70.0,202386,843.275
3561,3.0,,,,,,,64.0,,,,114,note_on,,0.0,64.0,0.0,202500,843.75
3562,3.0,,,,,,,60.0,,,,0,note_on,,0.0,60.0,0.0,202500,843.75
3563,3.0,,,,,,,57.0,,,,0,note_on,,70.0,57.0,70.0,202500,843.75
3564,3.0,,,,,,,60.0,,,,4,note_on,,70.0,60.0,70.0,202504,843.7666666666667
3565,3.0,,,,,,,64.0,,,,3,note_on,,70.0,64.0,70.0,202507,843.7791666666667
3566,3.0,,,,,,,64.0,,,,53,note_on,,0.0,64.0,0.0,202560,844.0
3567,3.0,,,,,,,52.0,,,,0,note_on,,0.0,52.0,0.0,202560,844.0
3568,3.0,,,,,,,45.0,,,,0,note_on,,0.0,45.0,0.0,202560,844.0
3569,3.0,,,,,,,57.0,,,,0,note_on,,0.0,57.0,0.0,202560,844.0
3570,3.0,,,,,,,60.0,,,,0,note_on,,0.0,60.0,0.0,202560,844.0
3571,3.0,,,,,,,57.0,,,,0,note_on,,0.0,57.0,0.0,202560,844.0
3572,3.0,,,,,,,41.0,,,,0,note_on,,70.0,41.0,70.0,202560,844.0
3573,3.0,,,,,,,45.0,,,,4,note_on,,70.0,45.0,70.0,202564,844.0166666666667
3574,3.0,,,,,,,57.0,,,,1,note_on,,70.0,57.0,70.0,202565,844.0208333333334
3575,3.0,,,,,,,48.0,,,,0,note_on,,70.0,48.0,70.0,202565,844.0208333333334
3576,3.0,,,,,,,60.0,,,,1,note_on,,70.0,60.0,70.0,202566,844.025
3577,3.0,,,,,,,65.0,,,,1,note_on,,70.0,65.0,70.0,202567,844.0291666666667
3578,3.0,,,,,,,65.0,,,,113,note_on,,0.0,65.0,0.0,202680,844.5
3579,3.0,,,,,,,57.0,,,,0,note_on,,0.0,57.0,0.0,202680,844.5
3580,3.0,,,,,,,60.0,,,,0,note_on,,0.0,60.0,0.0,202680,844.5
3581,3.0,,,,,,,57.0,,,,0,note_on,,70.0,57.0,70.0,202680,844.5
3582,3.0,,,,,,,60.0,,,,3,note_on,,70.0,60.0,70.0,202683,844.5124999999999
3583,3.0,,,,,,,65.0,,,,4,note_on,,70.0,65.0,70.0,202687,844.5291666666667
3584,3.0,,,,,,,60.0,,,,49,note_on,,0.0,60.0,0.0,202736,844.7333333333333
3585,3.0,,,,,,,48.0,,,,4,note_on,,0.0,48.0,0.0,202740,844.75
3586,3.0,,,,,,,41.0,,,,0,note_on,,0.0,41.0,0.0,202740,844.75
3587,3.0,,,,,,,45.0,,,,0,note_on,,0.0,45.0,0.0,202740,844.75
3588,3.0,,,,,,,65.0,,,,0,note_on,,0.0,65.0,0.0,202740,844.75
3589,3.0,,,,,,,57.0,,,,0,note_on,,0.0,57.0,0.0,202740,844.75
3590,3.0,,,,,,,41.0,,,,0,note_on,,70.0,41.0,70.0,202740,844.75
3591,3.0,,,,,,,45.0,,,,4,note_on,,70.0,45.0,70.0,202744,844.7666666666667
3592,3.0,,,,,,,57.0,,,,1,note_on,,70.0,57.0,70.0,202745,844.7708333333334
3593,3.0,,,,,,,48.0,,,,0,note_on,,70.0,48.0,70.0,202745,844.7708333333334
3594,3.0,,,,,,,60.0,,,,1,note_on,,70.0,60.0,70.0,202746,844.775
3595,3.0,,,,,,,65.0,,,,1,note_on,,70.0,65.0,70.0,202747,844.7791666666667
3596,3.0,,,,,,,65.0,,,,113,note_on,,0.0,65.0,0.0,202860,845.25
3597,3.0,,,,,,,57.0,,,,0,note_on,,0.0,57.0,0.0,202860,845.25
3598,3.0,,,,,,,60.0,,,,0,note_on,,0.0,60.0,0.0,202860,845.25
3599,3.0,,,,,,,57.0,,,,0,note_on,,70.0,57.0,70.0,202860,845.25
3600,3.0,,,,,,,60.0,,,,3,note_on,,70.0,60.0,70.0,202863,845.2624999999999
3601,3.0,,,,,,,65.0,,,,4,note_on,,70.0,65.0,70.0,202867,845.2791666666667
3602,3.0,,,,,,,60.0,,,,49,note_on,,0.0,60.0,0.0,202916,845.4833333333333
3603,3.0,,,,,,,48.0,,,,4,note_on,,0.0,48.0,0.0,202920,845.5
3604,3.0,,,,,,,41.0,,,,0,note_on,,0.0,41.0,0.0,202920,845.5
3605,3.0,,,,,,,45.0,,,,0,note_on,,0.0,45.0,0.0,202920,845.5
3606,3.0,,,,,,,65.0,,,,0,note_on,,0.0,65.0,0.0,202920,845.5
3607,3.0,,,,,,,57.0,,,,0,note_on,,0.0,57.0,0.0,202920,845.5
3608,3.0,,,,,,,43.0,,,,0,note_on,,70.0,43.0,70.0,202920,845.5
3609,3.0,,,,,,,47.0,,,,2,note_on,,70.0,47.0,70.0,202922,845.5083333333333
3610,3.0,,,,,,,50.0,,,,2,note_on,,70.0,50.0,70.0,202924,845.5166666666667
3611,3.0,,,,,,,55.0,,,,1,note_on,,70.0,55.0,70.0,202925,845.5208333333334
3612,3.0,,,,,,,59.0,,,,1,note_on,,70.0,59.0,70.0,202926,845.525
3613,3.0,,,,,,,67.0,,,,1,note_on,,70.0,67.0,70.0,202927,845.5291666666667
3614,3.0,,,,,,,67.0,,,,113,note_on,,0.0,67.0,0.0,203040,846.0
3615,3.0,,,,,,,55.0,,,,0,note_on,,0.0,55.0,0.0,203040,846.0
3616,3.0,,,,,,,59.0,,,,0,note_on,,0.0,59.0,0.0,203040,846.0
3617,3.0,,,,,,,55.0,,,,0,note_on,,70.0,55.0,70.0,203040,846.0
3618,3.0,,,,,,,59.0,,,,4,note_on,,70.0,59.0,70.0,203044,846.0166666666667
3619,3.0,,,,,,,67.0,,,,3,note_on,,70.0,67.0,70.0,203047,846.0291666666667
3620,3.0,,,,,,,67.0,,,,53,note_on,,0.0,67.0,0.0,203100,846.25
3621,3.0,,,,,,,50.0,,,,0,note_on,,0.0,50.0,0.0,203100,846.25
3622,3.0,,,,,,,43.0,,,,0,note_on,,0.0,43.0,0.0,203100,846.25
3623,3.0,,,,,,,47.0,,,,0,note_on,,0.0,47.0,0.0,203100,846.25
3624,3.0,,,,,,,59.0,,,,0,note_on,,0.0,59.0,0.0,203100,846.25
3625,3.0,,,,,,,55.0,,,,0,note_on,,0.0,55.0,0.0,203100,846.25
3626,3.0,,,,,,,43.0,,,,0,note_on,,70.0,43.0,70.0,203100,846.25
3627,3.0,,,,,,,47.0,,,,2,note_on,,70.0,47.0,70.0,203102,846.2583333333333
3628,3.0,,,,,,,50.0,,,,2,note_on,,70.0,50.0,70.0,203104,846.2666666666667
3629,3.0,,,,,,,55.0,,,,1,note_on,,70.0,55.0,70.0,203105,846.2708333333334
3630,3.0,,,,,,,59.0,,,,1,note_on,,70.0,59.0,70.0,203106,846.275
3631,3.0,,,,,,,67.0,,,,1,note_on,,70.0,67.0,70.0,203107,846.2791666666667
3632,3.0,,,,,,,67.0,,,,113,note_on,,0.0,67.0,0.0,203220,846.75
3633,3.0,,,,,,,55.0,,,,0,note_on,,0.0,55.0,0.0,203220,846.75
3634,3.0,,,,,,,59.0,,,,0,note_on,,0.0,59.0,0.0,203220,846.75
3635,3.0,,,,,,,55.0,,,,0,note_on,,70.0,55.0,70.0,203220,846.75
3636,3.0,,,,,,,59.0,,,,4,note_on,,70.0,59.0,70.0,203224,846.7666666666667
3637,3.0,,,,,,,67.0,,,,3,note_on,,70.0,67.0,70.0,203227,846.7791666666667
3638,3.0,,,,,,,67.0,,,,53,note_on,,0.0,67.0,0.0,203280,847.0
3639,3.0,,,,,,,50.0,,,,0,note_on,,0.0,50.0,0.0,203280,847.0
3640,3.0,,,,,,,43.0,,,,0,note_on,,0.0,43.0,0.0,203280,847.0
3641,3.0,,,,,,,47.0,,,,0,note_on,,0.0,47.0,0.0,203280,847.0
3642,3.0,,,,,,,59.0,,,,0,note_on,,0.0,59.0,0.0,203280,847.0
3643,3.0,,,,,,,55.0,,,,0,note_on,,0.0,55.0,0.0,203280,847.0
3644,3.0,,,,,,,48.0,,,,0,note_on,,70.0,48.0,70.0,203280,847.0
3645,3.0,,,,,,,52.0,,,,4,note_on,,70.0,52.0,70.0,203284,847.0166666666667
3646,3.0,,,,,,,55.0,,,,1,note_on,,70.0,55.0,70.0,203285,847.0208333333334
3647,3.0,,,,,,,60.0,,,,1,note_on,,70.0,60.0,70.0,203286,847.025
3648,3.0,,,,,,,64.0,,,,1,note_on,,70.0,64.0,70.0,203287,847.0291666666667
3649,3.0,,,,,,,64.0,,,,113,note_on,,0.0,64.0,0.0,203400,847.5
3650,3.0,,,,,,,55.0,,,,0,note_on,,0.0,55.0,0.0,203400,847.5
3651,3.0,,,,,,,60.0,,,,0,note_on,,0.0,60.0,0.0,203400,847.5
3652,3.0,,,,,,,55.0,,,,0,note_on,,70.0,55.0,70.0,203400,847.5
3653,3.0,,,,,,,60.0,,,,4,note_on,,70.0,60.0,70.0,203404,847.5166666666667
3654,3.0,,,,,,,64.0,,,,3,note_on,,70.0,64.0,70.0,203407,847.5291666666667
3655,3.0,,,,,,,64.0,,,,53,note_on,,0.0,64.0,0.0,203460,847.75
3656,3.0,,,,,,,55.0,,,,0,note_on,,0.0,55.0,0.0,203460,847.75
3657,3.0,,,,,,,48.0,,,,0,note_on,,0.0,48.0,0.0,203460,847.75
3658,3.0,,,,,,,52.0,,,,0,note_on,,0.0,52.0,0.0,203460,847.75
3659,3.0,,,,,,,60.0,,,,0,note_on,,0.0,60.0,0.0,203460,847.75
3660,3.0,,,,,,,48.0,,,,0,note_on,,70.0,48.0,70.0,203460,847.75
3661,3.0,,,,,,,52.0,,,,4,note_on,,70.0,52.0,70.0,203464,847.7666666666667
3662,3.0,,,,,,,55.0,,,,1,note_on,,70.0,55.0,70.0,203465,847.7708333333334
3663,3.0,,,,,,,60.0,,,,1,note_on,,70.0,60.0,70.0,203466,847.775
3664,3.0,,,,,,,64.0,,,,1,note_on,,70.0,64.0,70.0,203467,847.7791666666667
3665,3.0,,,,,,,64.0,,,,113,note_on,,0.0,64.0,0.0,203580,848.25
3666,3.0,,,,,,,55.0,,,,0,note_on,,0.0,55.0,0.0,203580,848.25
3667,3.0,,,,,,,60.0,,,,0,note_on,,0.0,60.0,0.0,203580,848.25
3668,3.0,,,,,,,55.0,,,,0,note_on,,70.0,55.0,70.0,203580,848.25
3669,3.0,,,,,,,60.0,,,,4,note_on,,70.0,60.0,70.0,203584,848.2666666666667
3670,3.0,,,,,,,64.0,,,,3,note_on,,70.0,64.0,70.0,203587,848.2791666666667
3671,3.0,,,,,,,64.0,,,,53,note_on,,0.0,64.0,0.0,203640,848.5
3672,3.0,,,,,,,55.0,,,,0,note_on,,0.0,55.0,0.0,203640,848.5
3673,3.0,,,,,,,48.0,,,,0,note_on,,0.0,48.0,0.0,203640,848.5
3674,3.0,,,,,,,52.0,,,,0,note_on,,0.0,52.0,0.0,203640,848.5
3675,3.0,,,,,,,60.0,,,,0,note_on,,0.0,60.0,0.0,203640,848.5
3676,3.0,,,,,,,43.0,,,,0,note_on,,70.0,43.0,70.0,203640,848.5
3677,3.0,,,,,,,47.0,,,,2,note_on,,70.0,47.0,70.0,203642,848.5083333333333
3678,3.0,,,,,,,50.0,,,,2,note_on,,70.0,50.0,70.0,203644,848.5166666666667
3679,3.0,,,,,,,55.0,,,,1,note_on,,70.0,55.0,70.0,203645,848.5208333333334
3680,3.0,,,,,,,59.0,,,,1,note_on,,70.0,59.0,70.0,203646,848.525
3681,3.0,,,,,,,67.0,,,,1,note_on,,70.0,67.0,70.0,203647,848.5291666666667
3682,3.0,,,,,,,67.0,,,,113,note_on,,0.0,67.0,0.0,203760,849.0
3683,3.0,,,,,,,55.0,,,,0,note_on,,0.0,55.0,0.0,203760,849.0
3684,3.0,,,,,,,59.0,,,,0,note_on,,0.0,59.0,0.0,203760,849.0
3685,3.0,,,,,,,55.0,,,,0,note_on,,70.0,55.0,70.0,203760,849.0
3686,3.0,,,,,,,59.0,,,,4,note_on,,70.0,59.0,70.0,203764,849.0166666666667
3687,3.0,,,,,,,67.0,,,,3,note_on,,70.0,67.0,70.0,203767,849.0291666666667
3688,3.0,,,,,,,67.0,,,,53,note_on,,0.0,67.0,0.0,203820,849.25
3689,3.0,,,,,,,50.0,,,,0,note_on,,0.0,50.0,0.0,203820,849.25
3690,3.0,,,,,,,43.0,,,,0,note_on,,0.0,43.0,0.0,203820,849.25
3691,3.0,,,,,,,47.0,,,,0,note_on,,0.0,47.0,0.0,203820,849.25
3692,3.0,,,,,,,59.0,,,,0,note_on,,0.0,59.0,0.0,203820,849.25
3693,3.0,,,,,,,55.0,,,,0,note_on,,0.0,55.0,0.0,203820,849.25
3694,3.0,,,,,,,43.0,,,,0,note_on,,70.0,43.0,70.0,203820,849.25
3695,3.0,,,,,,,47.0,,,,2,note_on,,70.0,47.0,70.0,203822,849.2583333333333
3696,3.0,,,,,,,50.0,,,,2,note_on,,70.0,50.0,70.0,203824,849.2666666666667
3697,3.0,,,,,,,55.0,,,,1,note_on,,70.0,55.0,70.0,203825,849.2708333333334
3698,3.0,,,,,,,59.0,,,,1,note_on,,70.0,59.0,70.0,203826,849.275
3699,3.0,,,,,,,67.0,,,,1,note_on,,70.0,67.0,70.0,203827,849.2791666666667
3700,3.0,,,,,,,67.0,,,,113,note_on,,0.0,67.0,0.0,203940,849.75
3701,3.0,,,,,,,55.0,,,,0,note_on,,0.0,55.0,0.0,203940,849.75
3702,3.0,,,,,,,59.0,,,,0,note_on,,0.0,59.0,0.0,203940,849.75
3703,3.0,,,,,,,55.0,,,,0,note_on,,70.0,55.0,70.0,203940,849.75
3704,3.0,,,,,,,59.0,,,,4,note_on,,70.0,59.0,70.0,203944,849.7666666666667
3705,3.0,,,,,,,67.0,,,,3,note_on,,70.0,67.0,70.0,203947,849.7791666666667
3706,3.0,,,,,,,67.0,,,,53,note_on,,0.0,67.0,0.0,204000,850.0
3707,3.0,,,,,,,50.0,,,,0,note_on,,0.0,50.0,0.0,204000,850.0
3708,3.0,,,,,,,43.0,,,,0,note_on,,0.0,43.0,0.0,204000,850.0
3709,3.0,,,,,,,47.0,,,,0,note_on,,0.0,47.0,0.0,204000,850.0
3710,3.0,,,,,,,59.0,,,,0,note_on,,0.0,59.0,0.0,204000,850.0
3711,3.0,,,,,,,55.0,,,,0,note_on,,0.0,55.0,0.0,204000,850.0
3712,3.0,,,,,,,48.0,,,,0,note_on,,70.0,48.0,70.0,204000,850.0
3713,3.0,,,,,,,52.0,,,,4,note_on,,70.0,52.0,70.0,204004,850.0166666666667
3714,3.0,,,,,,,55.0,,,,1,note_on,,70.0,55.0,70.0,204005,850.0208333333334
3715,3.0,,,,,,,60.0,,,,1,note_on,,70.0,60.0,70.0,204006,850.025
3716,3.0,,,,,,,64.0,,,,1,note_on,,70.0,64.0,70.0,204007,850.0291666666667
3717,3.0,,,,,,,64.0,,,,113,note_on,,0.0,64.0,0.0,204120,850.5
3718,3.0,,,,,,,55.0,,,,0,note_on,,0.0,55.0,0.0,204120,850.5
3719,3.0,,,,,,,60.0,,,,0,note_on,,0.0,60.0,0.0,204120,850.5
3720,3.0,,,,,,,55.0,,,,0,note_on,,70.0,55.0,70.0,204120,850.5
3721,3.0,,,,,,,60.0,,,,4,note_on,,70.0,60.0,70.0,204124,850.5166666666667
3722,3.0,,,,,,,64.0,,,,3,note_on,,70.0,64.0,70.0,204127,850.5291666666667
3723,3.0,,,,,,,64.0,,,,53,note_on,,0.0,64.0,0.0,204180,850.75
3724,3.0,,,,,,,55.0,,,,0,note_on,,0.0,55.0,0.0,204180,850.75
3725,3.0,,,,,,,48.0,,,,0,note_on,,0.0,48.0,0.0,204180,850.75
3726,3.0,,,,,,,52.0,,,,0,note_on,,0.0,52.0,0.0,204180,850.75
3727,3.0,,,,,,,60.0,,,,0,note_on,,0.0,60.0,0.0,204180,850.75
3728,3.0,,,,,,,48.0,,,,0,note_on,,70.0,48.0,70.0,204180,850.75
3729,3.0,,,,,,,52.0,,,,4,note_on,,70.0,52.0,70.0,204184,850.7666666666667
3730,3.0,,,,,,,55.0,,,,1,note_on,,70.0,55.0,70.0,204185,850.7708333333334
3731,3.0,,,,,,,60.0,,,,1,note_on,,70.0,60.0,70.0,204186,850.775
3732,3.0,,,,,,,64.0,,,,1,note_on,,70.0,64.0,70.0,204187,850.7791666666667
3733,3.0,,,,,,,64.0,,,,113,note_on,,0.0,64.0,0.0,204300,851.25
3734,3.0,,,,,,,55.0,,,,0,note_on,,0.0,55.0,0.0,204300,851.25
3735,3.0,,,,,,,60.0,,,,0,note_on,,0.0,60.0,0.0,204300,851.25
3736,3.0,,,,,,,55.0,,,,0,note_on,,70.0,55.0,70.0,204300,851.25
3737,3.0,,,,,,,60.0,,,,4,note_on,,70.0,60.0,70.0,204304,851.2666666666667
3738,3.0,,,,,,,64.0,,,,3,note_on,,70.0,64.0,70.0,204307,851.2791666666667
3739,3.0,,,,,,,64.0,,,,53,note_on,,0.0,64.0,0.0,204360,851.5
3740,3.0,,,,,,,55.0,,,,0,note_on,,0.0,55.0,0.0,204360,851.5
3741,3.0,,,,,,,48.0,,,,0,note_on,,0.0,48.0,0.0,204360,851.5
3742,3.0,,,,,,,52.0,,,,0,note_on,,0.0,52.0,0.0,204360,851.5
3743,3.0,,,,,,,60.0,,,,0,note_on,,0.0,60.0,0.0,204360,851.5
3744,3.0,,,,,,,41.0,,,,0,note_on,,70.0,41.0,70.0,204360,851.5
3745,3.0,,,,,,,45.0,,,,4,note_on,,70.0,45.0,70.0,204364,851.5166666666667
3746,3.0,,,,,,,57.0,,,,1,note_on,,70.0,57.0,70.0,204365,851.5208333333334
3747,3.0,,,,,,,48.0,,,,0,note_on,,70.0,48.0,70.0,204365,851.5208333333334
3748,3.0,,,,,,,60.0,,,,1,note_on,,70.0,60.0,70.0,204366,851.525
3749,3.0,,,,,,,65.0,,,,1,note_on,,70.0,65.0,70.0,204367,851.5291666666667
3750,3.0,,,,,,,65.0,,,,113,note_on,,0.0,65.0,0.0,204480,852.0
3751,3.0,,,,,,,57.0,,,,0,note_on,,0.0,57.0,0.0,204480,852.0
3752,3.0,,,,,,,60.0,,,,0,note_on,,0.0,60.0,0.0,204480,852.0
3753,3.0,,,,,,,57.0,,,,0,note_on,,70.0,57.0,70.0,204480,852.0
3754,3.0,,,,,,,60.0,,,,3,note_on,,70.0,60.0,70.0,204483,852.0124999999999
3755,3.0,,,,,,,65.0,,,,4,note_on,,70.0,65.0,70.0,204487,852.0291666666667
3756,3.0,,,,,,,60.0,,,,49,note_on,,0.0,60.0,0.0,204536,852.2333333333333
3757,3.0,,,,,,,48.0,,,,4,note_on,,0.0,48.0,0.0,204540,852.25
3758,3.0,,,,,,,41.0,,,,0,note_on,,0.0,41.0,0.0,204540,852.25
3759,3.0,,,,,,,45.0,,,,0,note_on,,0.0,45.0,0.0,204540,852.25
3760,3.0,,,,,,,65.0,,,,0,note_on,,0.0,65.0,0.0,204540,852.25
3761,3.0,,,,,,,57.0,,,,0,note_on,,0.0,57.0,0.0,204540,852.25
3762,3.0,,,,,,,43.0,,,,0,note_on,,70.0,43.0,70.0,204540,852.25
3763,3.0,,,,,,,47.0,,,,2,note_on,,70.0,47.0,70.0,204542,852.2583333333333
3764,3.0,,,,,,,50.0,,,,2,note_on,,70.0,50.0,70.0,204544,852.2666666666667
3765,3.0,,,,,,,55.0,,,,1,note_on,,70.0,55.0,70.0,204545,852.2708333333334
3766,3.0,,,,,,,59.0,,,,1,note_on,,70.0,59.0,70.0,204546,852.275
3767,3.0,,,,,,,67.0,,,,1,note_on,,70.0,67.0,70.0,204547,852.2791666666667
3768,3.0,,,,,,,67.0,,,,113,note_on,,0.0,67.0,0.0,204660,852.75
3769,3.0,,,,,,,55.0,,,,0,note_on,,0.0,55.0,0.0,204660,852.75
3770,3.0,,,,,,,59.0,,,,0,note_on,,0.0,59.0,0.0,204660,852.75
3771,3.0,,,,,,,55.0,,,,0,note_on,,70.0,55.0,70.0,204660,852.75
3772,3.0,,,,,,,59.0,,,,4,note_on,,70.0,59.0,70.0,204664,852.7666666666667
3773,3.0,,,,,,,67.0,,,,3,note_on,,70.0,67.0,70.0,204667,852.7791666666667
3774,3.0,,,,,,,67.0,,,,53,note_on,,0.0,67.0,0.0,204720,853.0
3775,3.0,,,,,,,50.0,,,,0,note_on,,0.0,50.0,0.0,204720,853.0
3776,3.0,,,,,,,43.0,,,,0,note_on,,0.0,43.0,0.0,204720,853.0
3777,3.0,,,,,,,47.0,,,,0,note_on,,0.0,47.0,0.0,204720,853.0
3778,3.0,,,,,,,59.0,,,,0,note_on,,0.0,59.0,0.0,204720,853.0
3779,3.0,,,,,,,55.0,,,,0,note_on,,0.0,55.0,0.0,204720,853.0
3780,3.0,,,,,,,45.0,,,,0,note_on,,70.0,45.0,70.0,204720,853.0
3781,3.0,,,,,,,52.0,,,,2,note_on,,70.0,52.0,70.0,204722,853.0083333333333
3782,3.0,,,,,,,57.0,,,,2,note_on,,70.0,57.0,70.0,204724,853.0166666666667
3783,3.0,,,,,,,60.0,,,,1,note_on,,70.0,60.0,70.0,204725,853.0208333333334
3784,3.0,,,,,,,64.0,,,,1,note_on,,70.0,64.0,70.0,204726,853.025
3785,3.0,,,,,,,64.0,,,,114,note_on,,0.0,64.0,0.0,204840,853.5
3786,3.0,,,,,,,60.0,,,,0,note_on,,0.0,60.0,0.0,204840,853.5
3787,3.0,,,,,,,57.0,,,,0,note_on,,70.0,57.0,70.0,204840,853.5
3788,3.0,,,,,,,60.0,,,,4,note_on,,70.0,60.0,70.0,204844,853.5166666666667
3789,3.0,,,,,,,64.0,,,,3,note_on,,70.0,64.0,70.0,204847,853.5291666666667
3790,3.0,,,,,,,64.0,,,,53,note_on,,0.0,64.0,0.0,204900,853.75
3791,3.0,,,,,,,52.0,,,,0,note_on,,0.0,52.0,0.0,204900,853.75
3792,3.0,,,,,,,45.0,,,,0,note_on,,0.0,45.0,0.0,204900,853.75
3793,3.0,,,,,,,57.0,,,,0,note_on,,0.0,57.0,0.0,204900,853.75
3794,3.0,,,,,,,60.0,,,,0,note_on,,0.0,60.0,0.0,204900,853.75
3795,3.0,,,,,,,57.0,,,,0,note_on,,0.0,57.0,0.0,204900,853.75
3796,3.0,,,,,,,45.0,,,,0,note_on,,70.0,45.0,70.0,204900,853.75
3797,3.0,,,,,,,52.0,,,,2,note_on,,70.0,52.0,70.0,204902,853.7583333333333
3798,3.0,,,,,,,57.0,,,,2,note_on,,70.0,57.0,70.0,204904,853.7666666666667
3799,3.0,,,,,,,60.0,,,,1,note_on,,70.0,60.0,70.0,204905,853.7708333333334
3800,3.0,,,,,,,64.0,,,,1,note_on,,70.0,64.0,70.0,204906,853.775
3801,3.0,,,,,,,64.0,,,,114,note_on,,0.0,64.0,0.0,205020,854.25
3802,3.0,,,,,,,60.0,,,,0,note_on,,0.0,60.0,0.0,205020,854.25
3803,3.0,,,,,,,57.0,,,,0,note_on,,70.0,57.0,70.0,205020,854.25
3804,3.0,,,,,,,60.0,,,,4,note_on,,70.0,60.0,70.0,205024,854.2666666666667
3805,3.0,,,,,,,64.0,,,,3,note_on,,70.0,64.0,70.0,205027,854.2791666666667
3806,3.0,,,,,,,64.0,,,,53,note_on,,0.0,64.0,0.0,205080,854.5
3807,3.0,,,,,,,52.0,,,,0,note_on,,0.0,52.0,0.0,205080,854.5
3808,3.0,,,,,,,45.0,,,,0,note_on,,0.0,45.0,0.0,205080,854.5
3809,3.0,,,,,,,57.0,,,,0,note_on,,0.0,57.0,0.0,205080,854.5
3810,3.0,,,,,,,60.0,,,,0,note_on,,0.0,60.0,0.0,205080,854.5
3811,3.0,,,,,,,57.0,,,,0,note_on,,0.0,57.0,0.0,205080,854.5
3812,3.0,,,,,,,41.0,,,,0,note_on,,70.0,41.0,70.0,205080,854.5
3813,3.0,,,,,,,45.0,,,,4,note_on,,70.0,45.0,70.0,205084,854.5166666666667
3814,3.0,,,,,,,57.0,,,,1,note_on,,70.0,57.0,70.0,205085,854.5208333333334
3815,3.0,,,,,,,48.0,,,,0,note_on,,70.0,48.0,70.0,205085,854.5208333333334
3816,3.0,,,,,,,60.0,,,,1,note_on,,70.0,60.0,70.0,205086,854.525
3817,3.0,,,,,,,65.0,,,,1,note_on,,70.0,65.0,70.0,205087,854.5291666666667
3818,3.0,,,,,,,65.0,,,,113,note_on,,0.0,65.0,0.0,205200,855.0
3819,3.0,,,,,,,57.0,,,,0,note_on,,0.0,57.0,0.0,205200,855.0
3820,3.0,,,,,,,60.0,,,,0,note_on,,0.0,60.0,0.0,205200,855.0
3821,3.0,,,,,,,57.0,,,,0,note_on,,70.0,57.0,70.0,205200,855.0
3822,3.0,,,,,,,60.0,,,,3,note_on,,70.0,60.0,70.0,205203,855.0124999999999
3823,3.0,,,,,,,65.0,,,,4,note_on,,70.0,65.0,70.0,205207,855.0291666666667
3824,3.0,,,,,,,60.0,,,,49,note_on,,0.0,60.0,0.0,205256,855.2333333333333
3825,3.0,,,,,,,48.0,,,,4,note_on,,0.0,48.0,0.0,205260,855.25
3826,3.0,,,,,,,41.0,,,,0,note_on,,0.0,41.0,0.0,205260,855.25
3827,3.0,,,,,,,45.0,,,,0,note_on,,0.0,45.0,0.0,205260,855.25
3828,3.0,,,,,,,65.0,,,,0,note_on,,0.0,65.0,0.0,205260,855.25
3829,3.0,,,,,,,57.0,,,,0,note_on,,0.0,57.0,0.0,205260,855.25
3830,3.0,,,,,,,41.0,,,,0,note_on,,70.0,41.0,70.0,205260,855.25
3831,3.0,,,,,,,45.0,,,,4,note_on,,70.0,45.0,70.0,205264,855.2666666666667
3832,3.0,,,,,,,57.0,,,,1,note_on,,70.0,57.0,70.0,205265,855.2708333333334
3833,3.0,,,,,,,48.0,,,,0,note_on,,70.0,48.0,70.0,205265,855.2708333333334
3834,3.0,,,,,,,60.0,,,,1,note_on,,70.0,60.0,70.0,205266,855.275
3835,3.0,,,,,,,65.0,,,,1,note_on,,70.0,65.0,70.0,205267,855.2791666666667
3836,3.0,,,,,,,65.0,,,,113,note_on,,0.0,65.0,0.0,205380,855.75
3837,3.0,,,,,,,57.0,,,,0,note_on,,0.0,57.0,0.0,205380,855.75
3838,3.0,,,,,,,60.0,,,,0,note_on,,0.0,60.0,0.0,205380,855.75
3839,3.0,,,,,,,57.0,,,,0,note_on,,70.0,57.0,70.0,205380,855.75
3840,3.0,,,,,,,60.0,,,,3,note_on,,70.0,60.0,70.0,205383,855.7624999999999
3841,3.0,,,,,,,65.0,,,,4,note_on,,70.0,65.0,70.0,205387,855.7791666666667
3842,3.0,,,,,,,60.0,,,,49,note_on,,0.0,60.0,0.0,205436,855.9833333333333
3843,3.0,,,,,,,48.0,,,,4,note_on,,0.0,48.0,0.0,205440,856.0
3844,3.0,,,,,,,41.0,,,,0,note_on,,0.0,41.0,0.0,205440,856.0
3845,3.0,,,,,,,45.0,,,,0,note_on,,0.0,45.0,0.0,205440,856.0
3846,3.0,,,,,,,65.0,,,,0,note_on,,0.0,65.0,0.0,205440,856.0
3847,3.0,,,,,,,57.0,,,,0,note_on,,0.0,57.0,0.0,205440,856.0
3848,3.0,,,,,,,43.0,,,,0,note_on,,70.0,43.0,70.0,205440,856.0
3849,3.0,,,,,,,47.0,,,,2,note_on,,70.0,47.0,70.0,205442,856.0083333333333
3850,3.0,,,,,,,50.0,,,,2,note_on,,70.0,50.0,70.0,205444,856.0166666666667
3851,3.0,,,,,,,55.0,,,,1,note_on,,70.0,55.0,70.0,205445,856.0208333333334
3852,3.0,,,,,,,59.0,,,,1,note_on,,70.0,59.0,70.0,205446,856.025
3853,3.0,,,,,,,67.0,,,,1,note_on,,70.0,67.0,70.0,205447,856.0291666666667
3854,3.0,,,,,,,67.0,,,,113,note_on,,0.0,67.0,0.0,205560,856.5
3855,3.0,,,,,,,55.0,,,,0,note_on,,0.0,55.0,0.0,205560,856.5
3856,3.0,,,,,,,59.0,,,,0,note_on,,0.0,59.0,0.0,205560,856.5
3857,3.0,,,,,,,55.0,,,,0,note_on,,70.0,55.0,70.0,205560,856.5
3858,3.0,,,,,,,59.0,,,,4,note_on,,70.0,59.0,70.0,205564,856.5166666666667
3859,3.0,,,,,,,67.0,,,,3,note_on,,70.0,67.0,70.0,205567,856.5291666666667
3860,3.0,,,,,,,67.0,,,,53,note_on,,0.0,67.0,0.0,205620,856.75
3861,3.0,,,,,,,50.0,,,,0,note_on,,0.0,50.0,0.0,205620,856.75
3862,3.0,,,,,,,43.0,,,,0,note_on,,0.0,43.0,0.0,205620,856.75
3863,3.0,,,,,,,47.0,,,,0,note_on,,0.0,47.0,0.0,205620,856.75
3864,3.0,,,,,,,59.0,,,,0,note_on,,0.0,59.0,0.0,205620,856.75
3865,3.0,,,,,,,55.0,,,,0,note_on,,0.0,55.0,0.0,205620,856.75
3866,3.0,,,,,,,43.0,,,,0,note_on,,70.0,43.0,70.0,205620,856.75
3867,3.0,,,,,,,47.0,,,,2,note_on,,70.0,47.0,70.0,205622,856.7583333333333
3868,3.0,,,,,,,50.0,,,,2,note_on,,70.0,50.0,70.0,205624,856.7666666666667
3869,3.0,,,,,,,55.0,,,,1,note_on,,70.0,55.0,70.0,205625,856.7708333333334
3870,3.0,,,,,,,59.0,,,,1,note_on,,70.0,59.0,70.0,205626,856.775
3871,3.0,,,,,,,67.0,,,,1,note_on,,70.0,67.0,70.0,205627,856.7791666666667
3872,3.0,,,,,,,67.0,,,,113,note_on,,0.0,67.0,0.0,205740,857.25
3873,3.0,,,,,,,55.0,,,,0,note_on,,0.0,55.0,0.0,205740,857.25
3874,3.0,,,,,,,59.0,,,,0,note_on,,0.0,59.0,0.0,205740,857.25
3875,3.0,,,,,,,55.0,,,,0,note_on,,70.0,55.0,70.0,205740,857.25
3876,3.0,,,,,,,59.0,,,,4,note_on,,70.0,59.0,70.0,205744,857.2666666666667
3877,3.0,,,,,,,67.0,,,,3,note_on,,70.0,67.0,70.0,205747,857.2791666666667
3878,3.0,,,,,,,67.0,,,,53,note_on,,0.0,67.0,0.0,205800,857.5
3879,3.0,,,,,,,50.0,,,,0,note_on,,0.0,50.0,0.0,205800,857.5
3880,3.0,,,,,,,43.0,,,,0,note_on,,0.0,43.0,0.0,205800,857.5
3881,3.0,,,,,,,47.0,,,,0,note_on,,0.0,47.0,0.0,205800,857.5
3882,3.0,,,,,,,59.0,,,,0,note_on,,0.0,59.0,0.0,205800,857.5
3883,3.0,,,,,,,55.0,,,,0,note_on,,0.0,55.0,0.0,205800,857.5
3884,3.0,,,,,,,40.0,,,,0,note_on,,70.0,40.0,70.0,205800,857.5
3885,3.0,,,,,,,47.0,,,,2,note_on,,70.0,47.0,70.0,205802,857.5083333333333
3886,3.0,,,,,,,52.0,,,,2,note_on,,70.0,52.0,70.0,205804,857.5166666666667
3887,3.0,,,,,,,55.0,,,,1,note_on,,70.0,55.0,70.0,205805,857.5208333333334
3888,3.0,,,,,,,59.0,,,,1,note_on,,70.0,59.0,70.0,205806,857.525
3889,3.0,,,,,,,64.0,,,,1,note_on,,70.0,64.0,70.0,205807,857.5291666666667
3890,3.0,,,,,,,64.0,,,,113,note_on,,0.0,64.0,0.0,205920,858.0
3891,3.0,,,,,,,55.0,,,,0,note_on,,0.0,55.0,0.0,205920,858.0
3892,3.0,,,,,,,59.0,,,,0,note_on,,0.0,59.0,0.0,205920,858.0
3893,3.0,,,,,,,55.0,,,,0,note_on,,70.0,55.0,70.0,205920,858.0
3894,3.0,,,,,,,59.0,,,,4,note_on,,70.0,59.0,70.0,205924,858.0166666666667
3895,3.0,,,,,,,64.0,,,,3,note_on,,70.0,64.0,70.0,205927,858.0291666666667
3896,3.0,,,,,,,64.0,,,,53,note_on,,0.0,64.0,0.0,205980,858.25
3897,3.0,,,,,,,52.0,,,,0,note_on,,0.0,52.0,0.0,205980,858.25
3898,3.0,,,,,,,40.0,,,,0,note_on,,0.0,40.0,0.0,205980,858.25
3899,3.0,,,,,,,47.0,,,,0,note_on,,0.0,47.0,0.0,205980,858.25
3900,3.0,,,,,,,59.0,,,,0,note_on,,0.0,59.0,0.0,205980,858.25
3901,3.0,,,,,,,55.0,,,,0,note_on,,0.0,55.0,0.0,205980,858.25
3902,3.0,,,,,,,40.0,,,,0,note_on,,70.0,40.0,70.0,205980,858.25
3903,3.0,,,,,,,47.0,,,,2,note_on,,70.0,47.0,70.0,205982,858.2583333333333
3904,3.0,,,,,,,52.0,,,,2,note_on,,70.0,52.0,70.0,205984,858.2666666666667
3905,3.0,,,,,,,55.0,,,,1,note_on,,70.0,55.0,70.0,205985,858.2708333333334
3906,3.0,,,,,,,59.0,,,,1,note_on,,70.0,59.0,70.0,205986,858.275
3907,3.0,,,,,,,64.0,,,,1,note_on,,70.0,64.0,70.0,205987,858.2791666666667
3908,3.0,,,,,,,64.0,,,,113,note_on,,0.0,64.0,0.0,206100,858.75
3909,3.0,,,,,,,55.0,,,,0,note_on,,0.0,55.0,0.0,206100,858.75
3910,3.0,,,,,,,59.0,,,,0,note_on,,0.0,59.0,0.0,206100,858.75
3911,3.0,,,,,,,55.0,,,,0,note_on,,70.0,55.0,70.0,206100,858.75
3912,3.0,,,,,,,59.0,,,,4,note_on,,70.0,59.0,70.0,206104,858.7666666666667
3913,3.0,,,,,,,64.0,,,,3,note_on,,70.0,64.0,70.0,206107,858.7791666666667
3914,3.0,,,,,,,64.0,,,,53,note_on,,0.0,64.0,0.0,206160,859.0
3915,3.0,,,,,,,52.0,,,,0,note_on,,0.0,52.0,0.0,206160,859.0
3916,3.0,,,,,,,40.0,,,,0,note_on,,0.0,40.0,0.0,206160,859.0
3917,3.0,,,,,,,47.0,,,,0,note_on,,0.0,47.0,0.0,206160,859.0
3918,3.0,,,,,,,59.0,,,,0,note_on,,0.0,59.0,0.0,206160,859.0
3919,3.0,,,,,,,55.0,,,,0,note_on,,0.0,55.0,0.0,206160,859.0
3920,3.0,,,,,,,45.0,,,,0,note_on,,70.0,45.0,70.0,206160,859.0
3921,3.0,,,,,,,52.0,,,,2,note_on,,70.0,52.0,70.0,206162,859.0083333333333
3922,3.0,,,,,,,57.0,,,,2,note_on,,70.0,57.0,70.0,206164,859.0166666666667
3923,3.0,,,,,,,60.0,,,,1,note_on,,70.0,60.0,70.0,206165,859.0208333333334
3924,3.0,,,,,,,64.0,,,,1,note_on,,70.0,64.0,70.0,206166,859.025
3925,3.0,,,,,,,64.0,,,,114,note_on,,0.0,64.0,0.0,206280,859.5
3926,3.0,,,,,,,60.0,,,,0,note_on,,0.0,60.0,0.0,206280,859.5
3927,3.0,,,,,,,57.0,,,,0,note_on,,70.0,57.0,70.0,206280,859.5
3928,3.0,,,,,,,60.0,,,,4,note_on,,70.0,60.0,70.0,206284,859.5166666666667
3929,3.0,,,,,,,64.0,,,,3,note_on,,70.0,64.0,70.0,206287,859.5291666666667
3930,3.0,,,,,,,64.0,,,,53,note_on,,0.0,64.0,0.0,206340,859.75
3931,3.0,,,,,,,52.0,,,,0,note_on,,0.0,52.0,0.0,206340,859.75
3932,3.0,,,,,,,45.0,,,,0,note_on,,0.0,45.0,0.0,206340,859.75
3933,3.0,,,,,,,57.0,,,,0,note_on,,0.0,57.0,0.0,206340,859.75
3934,3.0,,,,,,,60.0,,,,0,note_on,,0.0,60.0,0.0,206340,859.75
3935,3.0,,,,,,,57.0,,,,0,note_on,,0.0,57.0,0.0,206340,859.75
3936,3.0,,,,,,,45.0,,,,0,note_on,,70.0,45.0,70.0,206340,859.75
3937,3.0,,,,,,,52.0,,,,2,note_on,,70.0,52.0,70.0,206342,859.7583333333333
3938,3.0,,,,,,,57.0,,,,2,note_on,,70.0,57.0,70.0,206344,859.7666666666667
3939,3.0,,,,,,,60.0,,,,1,note_on,,70.0,60.0,70.0,206345,859.7708333333334
3940,3.0,,,,,,,64.0,,,,1,note_on,,70.0,64.0,70.0,206346,859.775
3941,3.0,,,,,,,64.0,,,,114,note_on,,0.0,64.0,0.0,206460,860.25
3942,3.0,,,,,,,60.0,,,,0,note_on,,0.0,60.0,0.0,206460,860.25
3943,3.0,,,,,,,57.0,,,,0,note_on,,70.0,57.0,70.0,206460,860.25
3944,3.0,,,,,,,60.0,,,,4,note_on,,70.0,60.0,70.0,206464,860.2666666666667
3945,3.0,,,,,,,64.0,,,,3,note_on,,70.0,64.0,70.0,206467,860.2791666666667
3946,3.0,,,,,,,64.0,,,,53,note_on,,0.0,64.0,0.0,206520,860.5
3947,3.0,,,,,,,52.0,,,,0,note_on,,0.0,52.0,0.0,206520,860.5
3948,3.0,,,,,,,45.0,,,,0,note_on,,0.0,45.0,0.0,206520,860.5
3949,3.0,,,,,,,57.0,,,,0,note_on,,0.0,57.0,0.0,206520,860.5
3950,3.0,,,,,,,60.0,,,,0,note_on,,0.0,60.0,0.0,206520,860.5
3951,3.0,,,,,,,57.0,,,,0,note_on,,0.0,57.0,0.0,206520,860.5
3952,3.0,,,,,,,45.0,,,,0,note_on,,70.0,45.0,70.0,206520,860.5
3953,3.0,,,,,,,52.0,,,,2,note_on,,70.0,52.0,70.0,206522,860.5083333333333
3954,3.0,,,,,,,57.0,,,,2,note_on,,70.0,57.0,70.0,206524,860.5166666666667
3955,3.0,,,,,,,60.0,,,,1,note_on,,70.0,60.0,70.0,206525,860.5208333333334
3956,3.0,,,,,,,64.0,,,,1,note_on,,70.0,64.0,70.0,206526,860.525
3957,3.0,,,,,,,64.0,,,,114,note_on,,0.0,64.0,0.0,206640,861.0
3958,3.0,,,,,,,60.0,,,,0,note_on,,0.0,60.0,0.0,206640,861.0
3959,3.0,,,,,,,57.0,,,,0,note_on,,70.0,57.0,70.0,206640,861.0
3960,3.0,,,,,,,60.0,,,,4,note_on,,70.0,60.0,70.0,206644,861.0166666666667
3961,3.0,,,,,,,64.0,,,,3,note_on,,70.0,64.0,70.0,206647,861.0291666666667
3962,3.0,,,,,,,64.0,,,,53,note_on,,0.0,64.0,0.0,206700,861.25
3963,3.0,,,,,,,52.0,,,,0,note_on,,0.0,52.0,0.0,206700,861.25
3964,3.0,,,,,,,45.0,,,,0,note_on,,0.0,45.0,0.0,206700,861.25
3965,3.0,,,,,,,57.0,,,,0,note_on,,0.0,57.0,0.0,206700,861.25
3966,3.0,,,,,,,60.0,,,,0,note_on,,0.0,60.0,0.0,206700,861.25
3967,3.0,,,,,,,57.0,,,,0,note_on,,0.0,57.0,0.0,206700,861.25
3968,3.0,,,,,,,45.0,,,,0,note_on,,70.0,45.0,70.0,206700,861.25
3969,3.0,,,,,,,52.0,,,,2,note_on,,70.0,52.0,70.0,206702,861.2583333333333
3970,3.0,,,,,,,57.0,,,,2,note_on,,70.0,57.0,70.0,206704,861.2666666666667
3971,3.0,,,,,,,60.0,,,,1,note_on,,70.0,60.0,70.0,206705,861.2708333333334
3972,3.0,,,,,,,64.0,,,,1,note_on,,70.0,64.0,70.0,206706,861.275
3973,3.0,,,,,,,64.0,,,,114,note_on,,0.0,64.0,0.0,206820,861.75
3974,3.0,,,,,,,60.0,,,,0,note_on,,0.0,60.0,0.0,206820,861.75
3975,3.0,,,,,,,57.0,,,,0,note_on,,70.0,57.0,70.0,206820,861.75
3976,3.0,,,,,,,60.0,,,,4,note_on,,70.0,60.0,70.0,206824,861.7666666666667
3977,3.0,,,,,,,64.0,,,,3,note_on,,70.0,64.0,70.0,206827,861.7791666666667
3978,3.0,,,,,,,64.0,,,,53,note_on,,0.0,64.0,0.0,206880,862.0
3979,3.0,,,,,,,52.0,,,,0,note_on,,0.0,52.0,0.0,206880,862.0
3980,3.0,,,,,,,45.0,,,,0,note_on,,0.0,45.0,0.0,206880,862.0
3981,3.0,,,,,,,57.0,,,,0,note_on,,0.0,57.0,0.0,206880,862.0
3982,3.0,,,,,,,60.0,,,,0,note_on,,0.0,60.0,0.0,206880,862.0
3983,3.0,,,,,,,57.0,,,,0,note_on,,0.0,57.0,0.0,206880,862.0
3984,3.0,,,,,,,41.0,,,,0,note_on,,70.0,41.0,70.0,206880,862.0
3985,3.0,,,,,,,45.0,,,,4,note_on,,70.0,45.0,70.0,206884,862.0166666666667
3986,3.0,,,,,,,57.0,,,,1,note_on,,70.0,57.0,70.0,206885,862.0208333333334
3987,3.0,,,,,,,48.0,,,,0,note_on,,70.0,48.0,70.0,206885,862.0208333333334
3988,3.0,,,,,,,60.0,,,,1,note_on,,70.0,60.0,70.0,206886,862.025
3989,3.0,,,,,,,65.0,,,,1,note_on,,70.0,65.0,70.0,206887,862.0291666666667
3990,3.0,,,,,,,65.0,,,,113,note_on,,0.0,65.0,0.0,207000,862.5
3991,3.0,,,,,,,57.0,,,,0,note_on,,0.0,57.0,0.0,207000,862.5
3992,3.0,,,,,,,60.0,,,,0,note_on,,0.0,60.0,0.0,207000,862.5
3993,3.0,,,,,,,57.0,,,,0,note_on,,70.0,57.0,70.0,207000,862.5
3994,3.0,,,,,,,60.0,,,,3,note_on,,70.0,60.0,70.0,207003,862.5124999999999
3995,3.0,,,,,,,65.0,,,,4,note_on,,70.0,65.0,70.0,207007,862.5291666666667
3996,3.0,,,,,,,60.0,,,,49,note_on,,0.0,60.0,0.0,207056,862.7333333333333
3997,3.0,,,,,,,48.0,,,,4,note_on,,0.0,48.0,0.0,207060,862.75
3998,3.0,,,,,,,41.0,,,,0,note_on,,0.0,41.0,0.0,207060,862.75
3999,3.0,,,,,,,45.0,,,,0,note_on,,0.0,45.0,0.0,207060,862.75
4000,3.0,,,,,,,65.0,,,,0,note_on,,0.0,65.0,0.0,207060,862.75
4001,3.0,,,,,,,57.0,,,,0,note_on,,0.0,57.0,0.0,207060,862.75
4002,3.0,,,,,,,41.0,,,,0,note_on,,70.0,41.0,70.0,207060,862.75
4003,3.0,,,,,,,45.0,,,,4,note_on,,70.0,45.0,70.0,207064,862.7666666666667
4004,3.0,,,,,,,57.0,,,,1,note_on,,70.0,57.0,70.0,207065,862.7708333333334
4005,3.0,,,,,,,48.0,,,,0,note_on,,70.0,48.0,70.0,207065,862.7708333333334
4006,3.0,,,,,,,60.0,,,,1,note_on,,70.0,60.0,70.0,207066,862.775
4007,3.0,,,,,,,65.0,,,,1,note_on,,70.0,65.0,70.0,207067,862.7791666666667
4008,3.0,,,,,,,65.0,,,,113,note_on,,0.0,65.0,0.0,207180,863.25
4009,3.0,,,,,,,57.0,,,,0,note_on,,0.0,57.0,0.0,207180,863.25
4010,3.0,,,,,,,60.0,,,,0,note_on,,0.0,60.0,0.0,207180,863.25
4011,3.0,,,,,,,57.0,,,,0,note_on,,70.0,57.0,70.0,207180,863.25
4012,3.0,,,,,,,60.0,,,,3,note_on,,70.0,60.0,70.0,207183,863.2624999999999
4013,3.0,,,,,,,65.0,,,,4,note_on,,70.0,65.0,70.0,207187,863.2791666666667
4014,3.0,,,,,,,60.0,,,,49,note_on,,0.0,60.0,0.0,207236,863.4833333333333
4015,3.0,,,,,,,48.0,,,,4,note_on,,0.0,48.0,0.0,207240,863.5
4016,3.0,,,,,,,41.0,,,,0,note_on,,0.0,41.0,0.0,207240,863.5
4017,3.0,,,,,,,45.0,,,,0,note_on,,0.0,45.0,0.0,207240,863.5
4018,3.0,,,,,,,65.0,,,,0,note_on,,0.0,65.0,0.0,207240,863.5
4019,3.0,,,,,,,57.0,,,,0,note_on,,0.0,57.0,0.0,207240,863.5
4020,3.0,,,,,,,41.0,,,,0,note_on,,70.0,41.0,70.0,207240,863.5
4021,3.0,,,,,,,45.0,,,,4,note_on,,70.0,45.0,70.0,207244,863.5166666666667
4022,3.0,,,,,,,57.0,,,,1,note_on,,70.0,57.0,70.0,207245,863.5208333333334
4023,3.0,,,,,,,48.0,,,,0,note_on,,70.0,48.0,70.0,207245,863.5208333333334
4024,3.0,,,,,,,60.0,,,,1,note_on,,70.0,60.0,70.0,207246,863.525
4025,3.0,,,,,,,65.0,,,,1,note_on,,70.0,65.0,70.0,207247,863.5291666666667
4026,3.0,,,,,,,65.0,,,,113,note_on,,0.0,65.0,0.0,207360,864.0
4027,3.0,,,,,,,57.0,,,,0,note_on,,0.0,57.0,0.0,207360,864.0
4028,3.0,,,,,,,60.0,,,,0,note_on,,0.0,60.0,0.0,207360,864.0
4029,3.0,,,,,,,57.0,,,,0,note_on,,70.0,57.0,70.0,207360,864.0
4030,3.0,,,,,,,60.0,,,,3,note_on,,70.0,60.0,70.0,207363,864.0124999999999
4031,3.0,,,,,,,65.0,,,,4,note_on,,70.0,65.0,70.0,207367,864.0291666666667
4032,3.0,,,,,,,60.0,,,,49,note_on,,0.0,60.0,0.0,207416,864.2333333333333
4033,3.0,,,,,,,48.0,,,,4,note_on,,0.0,48.0,0.0,207420,864.25
4034,3.0,,,,,,,41.0,,,,0,note_on,,0.0,41.0,0.0,207420,864.25
4035,3.0,,,,,,,45.0,,,,0,note_on,,0.0,45.0,0.0,207420,864.25
4036,3.0,,,,,,,65.0,,,,0,note_on,,0.0,65.0,0.0,207420,864.25
4037,3.0,,,,,,,57.0,,,,0,note_on,,0.0,57.0,0.0,207420,864.25
4038,3.0,,,,,,,41.0,,,,0,note_on,,70.0,41.0,70.0,207420,864.25
4039,3.0,,,,,,,45.0,,,,4,note_on,,70.0,45.0,70.0,207424,864.2666666666667
4040,3.0,,,,,,,57.0,,,,1,note_on,,70.0,57.0,70.0,207425,864.2708333333334
4041,3.0,,,,,,,48.0,,,,0,note_on,,70.0,48.0,70.0,207425,864.2708333333334
4042,3.0,,,,,,,60.0,,,,1,note_on,,70.0,60.0,70.0,207426,864.275
4043,3.0,,,,,,,65.0,,,,1,note_on,,70.0,65.0,70.0,207427,864.2791666666667
4044,3.0,,,,,,,65.0,,,,113,note_on,,0.0,65.0,0.0,207540,864.75
4045,3.0,,,,,,,57.0,,,,0,note_on,,0.0,57.0,0.0,207540,864.75
4046,3.0,,,,,,,60.0,,,,0,note_on,,0.0,60.0,0.0,207540,864.75
4047,3.0,,,,,,,57.0,,,,0,note_on,,70.0,57.0,70.0,207540,864.75
4048,3.0,,,,,,,60.0,,,,3,note_on,,70.0,60.0,70.0,207543,864.7624999999999
4049,3.0,,,,,,,65.0,,,,4,note_on,,70.0,65.0,70.0,207547,864.7791666666667
4050,3.0,,,,,,,60.0,,,,49,note_on,,0.0,60.0,0.0,207596,864.9833333333333
4051,3.0,,,,,,,48.0,,,,4,note_on,,0.0,48.0,0.0,207600,865.0
4052,3.0,,,,,,,41.0,,,,0,note_on,,0.0,41.0,0.0,207600,865.0
4053,3.0,,,,,,,45.0,,,,0,note_on,,0.0,45.0,0.0,207600,865.0
4054,3.0,,,,,,,65.0,,,,0,note_on,,0.0,65.0,0.0,207600,865.0
4055,3.0,,,,,,,57.0,,,,0,note_on,,0.0,57.0,0.0,207600,865.0
4056,3.0,,,,,,,45.0,,,,0,note_on,,70.0,45.0,70.0,207600,865.0
4057,3.0,,,,,,,52.0,,,,2,note_on,,70.0,52.0,70.0,207602,865.0083333333333
4058,3.0,,,,,,,57.0,,,,2,note_on,,70.0,57.0,70.0,207604,865.0166666666667
4059,3.0,,,,,,,60.0,,,,1,note_on,,70.0,60.0,70.0,207605,865.0208333333334
4060,3.0,,,,,,,64.0,,,,1,note_on,,70.0,64.0,70.0,207606,865.025
4061,3.0,,,,,,,64.0,,,,114,note_on,,0.0,64.0,0.0,207720,865.5
4062,3.0,,,,,,,60.0,,,,0,note_on,,0.0,60.0,0.0,207720,865.5
4063,3.0,,,,,,,57.0,,,,0,note_on,,70.0,57.0,70.0,207720,865.5
4064,3.0,,,,,,,60.0,,,,4,note_on,,70.0,60.0,70.0,207724,865.5166666666667
4065,3.0,,,,,,,64.0,,,,3,note_on,,70.0,64.0,70.0,207727,865.5291666666667
4066,3.0,,,,,,,64.0,,,,53,note_on,,0.0,64.0,0.0,207780,865.75
4067,3.0,,,,,,,52.0,,,,0,note_on,,0.0,52.0,0.0,207780,865.75
4068,3.0,,,,,,,45.0,,,,0,note_on,,0.0,45.0,0.0,207780,865.75
4069,3.0,,,,,,,57.0,,,,0,note_on,,0.0,57.0,0.0,207780,865.75
4070,3.0,,,,,,,60.0,,,,0,note_on,,0.0,60.0,0.0,207780,865.75
4071,3.0,,,,,,,57.0,,,,0,note_on,,0.0,57.0,0.0,207780,865.75
4072,3.0,,,,,,,45.0,,,,0,note_on,,70.0,45.0,70.0,207780,865.75
4073,3.0,,,,,,,52.0,,,,2,note_on,,70.0,52.0,70.0,207782,865.7583333333333
4074,3.0,,,,,,,57.0,,,,2,note_on,,70.0,57.0,70.0,207784,865.7666666666667
4075,3.0,,,,,,,60.0,,,,1,note_on,,70.0,60.0,70.0,207785,865.7708333333334
4076,3.0,,,,,,,64.0,,,,1,note_on,,70.0,64.0,70.0,207786,865.775
4077,3.0,,,,,,,64.0,,,,114,note_on,,0.0,64.0,0.0,207900,866.25
4078,3.0,,,,,,,60.0,,,,0,note_on,,0.0,60.0,0.0,207900,866.25
4079,3.0,,,,,,,57.0,,,,0,note_on,,70.0,57.0,70.0,207900,866.25
4080,3.0,,,,,,,60.0,,,,4,note_on,,70.0,60.0,70.0,207904,866.2666666666667
4081,3.0,,,,,,,64.0,,,,3,note_on,,70.0,64.0,70.0,207907,866.2791666666667
4082,3.0,,,,,,,64.0,,,,53,note_on,,0.0,64.0,0.0,207960,866.5
4083,3.0,,,,,,,52.0,,,,0,note_on,,0.0,52.0,0.0,207960,866.5
4084,3.0,,,,,,,45.0,,,,0,note_on,,0.0,45.0,0.0,207960,866.5
4085,3.0,,,,,,,57.0,,,,0,note_on,,0.0,57.0,0.0,207960,866.5
4086,3.0,,,,,,,60.0,,,,0,note_on,,0.0,60.0,0.0,207960,866.5
4087,3.0,,,,,,,57.0,,,,0,note_on,,0.0,57.0,0.0,207960,866.5
4088,3.0,,,,,,,45.0,,,,0,note_on,,70.0,45.0,70.0,207960,866.5
4089,3.0,,,,,,,52.0,,,,2,note_on,,70.0,52.0,70.0,207962,866.5083333333333
4090,3.0,,,,,,,57.0,,,,2,note_on,,70.0,57.0,70.0,207964,866.5166666666667
4091,3.0,,,,,,,60.0,,,,1,note_on,,70.0,60.0,70.0,207965,866.5208333333334
4092,3.0,,,,,,,64.0,,,,1,note_on,,70.0,64.0,70.0,207966,866.525
4093,3.0,,,,,,,64.0,,,,114,note_on,,0.0,64.0,0.0,208080,867.0
4094,3.0,,,,,,,60.0,,,,0,note_on,,0.0,60.0,0.0,208080,867.0
4095,3.0,,,,,,,57.0,,,,0,note_on,,70.0,57.0,70.0,208080,867.0
4096,3.0,,,,,,,60.0,,,,4,note_on,,70.0,60.0,70.0,208084,867.0166666666667
4097,3.0,,,,,,,64.0,,,,3,note_on,,70.0,64.0,70.0,208087,867.0291666666667
4098,3.0,,,,,,,64.0,,,,53,note_on,,0.0,64.0,0.0,208140,867.25
4099,3.0,,,,,,,52.0,,,,0,note_on,,0.0,52.0,0.0,208140,867.25
4100,3.0,,,,,,,45.0,,,,0,note_on,,0.0,45.0,0.0,208140,867.25
4101,3.0,,,,,,,57.0,,,,0,note_on,,0.0,57.0,0.0,208140,867.25
4102,3.0,,,,,,,60.0,,,,0,note_on,,0.0,60.0,0.0,208140,867.25
4103,3.0,,,,,,,57.0,,,,0,note_on,,0.0,57.0,0.0,208140,867.25
4104,3.0,,,,,,,45.0,,,,0,note_on,,70.0,45.0,70.0,208140,867.25
4105,3.0,,,,,,,52.0,,,,2,note_on,,70.0,52.0,70.0,208142,867.2583333333333
4106,3.0,,,,,,,57.0,,,,2,note_on,,70.0,57.0,70.0,208144,867.2666666666667
4107,3.0,,,,,,,60.0,,,,1,note_on,,70.0,60.0,70.0,208145,867.2708333333334
4108,3.0,,,,,,,64.0,,,,1,note_on,,70.0,64.0,70.0,208146,867.275
4109,3.0,,,,,,,64.0,,,,114,note_on,,0.0,64.0,0.0,208260,867.75
4110,3.0,,,,,,,60.0,,,,0,note_on,,0.0,60.0,0.0,208260,867.75
4111,3.0,,,,,,,57.0,,,,0,note_on,,70.0,57.0,70.0,208260,867.75
4112,3.0,,,,,,,60.0,,,,4,note_on,,70.0,60.0,70.0,208264,867.7666666666667
4113,3.0,,,,,,,64.0,,,,3,note_on,,70.0,64.0,70.0,208267,867.7791666666667
4114,3.0,,,,,,,64.0,,,,53,note_on,,0.0,64.0,0.0,208320,868.0
4115,3.0,,,,,,,52.0,,,,0,note_on,,0.0,52.0,0.0,208320,868.0
4116,3.0,,,,,,,45.0,,,,0,note_on,,0.0,45.0,0.0,208320,868.0
4117,3.0,,,,,,,57.0,,,,0,note_on,,0.0,57.0,0.0,208320,868.0
4118,3.0,,,,,,,60.0,,,,0,note_on,,0.0,60.0,0.0,208320,868.0
4119,3.0,,,,,,,57.0,,,,0,note_on,,0.0,57.0,0.0,208320,868.0
4120,3.0,,,,,,,41.0,,,,0,note_on,,70.0,41.0,70.0,208320,868.0
4121,3.0,,,,,,,45.0,,,,4,note_on,,70.0,45.0,70.0,208324,868.0166666666667
4122,3.0,,,,,,,57.0,,,,1,note_on,,70.0,57.0,70.0,208325,868.0208333333334
4123,3.0,,,,,,,48.0,,,,0,note_on,,70.0,48.0,70.0,208325,868.0208333333334
4124,3.0,,,,,,,60.0,,,,1,note_on,,70.0,60.0,70.0,208326,868.025
4125,3.0,,,,,,,65.0,,,,1,note_on,,70.0,65.0,70.0,208327,868.0291666666667
4126,3.0,,,,,,,65.0,,,,113,note_on,,0.0,65.0,0.0,208440,868.5
4127,3.0,,,,,,,57.0,,,,0,note_on,,0.0,57.0,0.0,208440,868.5
4128,3.0,,,,,,,60.0,,,,0,note_on,,0.0,60.0,0.0,208440,868.5
4129,3.0,,,,,,,57.0,,,,0,note_on,,70.0,57.0,70.0,208440,868.5
4130,3.0,,,,,,,60.0,,,,3,note_on,,70.0,60.0,70.0,208443,868.5124999999999
4131,3.0,,,,,,,65.0,,,,4,note_on,,70.0,65.0,70.0,208447,868.5291666666667
4132,3.0,,,,,,,60.0,,,,49,note_on,,0.0,60.0,0.0,208496,868.7333333333333
4133,3.0,,,,,,,48.0,,,,4,note_on,,0.0,48.0,0.0,208500,868.75
4134,3.0,,,,,,,41.0,,,,0,note_on,,0.0,41.0,0.0,208500,868.75
4135,3.0,,,,,,,45.0,,,,0,note_on,,0.0,45.0,0.0,208500,868.75
4136,3.0,,,,,,,65.0,,,,0,note_on,,0.0,65.0,0.0,208500,868.75
4137,3.0,,,,,,,57.0,,,,0,note_on,,0.0,57.0,0.0,208500,868.75
4138,3.0,,,,,,,41.0,,,,0,note_on,,70.0,41.0,70.0,208500,868.75
4139,3.0,,,,,,,45.0,,,,4,note_on,,70.0,45.0,70.0,208504,868.7666666666667
4140,3.0,,,,,,,57.0,,,,1,note_on,,70.0,57.0,70.0,208505,868.7708333333334
4141,3.0,,,,,,,48.0,,,,0,note_on,,70.0,48.0,70.0,208505,868.7708333333334
4142,3.0,,,,,,,60.0,,,,1,note_on,,70.0,60.0,70.0,208506,868.775
4143,3.0,,,,,,,65.0,,,,1,note_on,,70.0,65.0,70.0,208507,868.7791666666667
4144,3.0,,,,,,,65.0,,,,113,note_on,,0.0,65.0,0.0,208620,869.25
4145,3.0,,,,,,,57.0,,,,0,note_on,,0.0,57.0,0.0,208620,869.25
4146,3.0,,,,,,,60.0,,,,0,note_on,,0.0,60.0,0.0,208620,869.25
4147,3.0,,,,,,,57.0,,,,0,note_on,,70.0,57.0,70.0,208620,869.25
4148,3.0,,,,,,,60.0,,,,3,note_on,,70.0,60.0,70.0,208623,869.2624999999999
4149,3.0,,,,,,,65.0,,,,4,note_on,,70.0,65.0,70.0,208627,869.2791666666667
4150,3.0,,,,,,,60.0,,,,49,note_on,,0.0,60.0,0.0,208676,869.4833333333333
4151,3.0,,,,,,,48.0,,,,4,note_on,,0.0,48.0,0.0,208680,869.5
4152,3.0,,,,,,,41.0,,,,0,note_on,,0.0,41.0,0.0,208680,869.5
4153,3.0,,,,,,,45.0,,,,0,note_on,,0.0,45.0,0.0,208680,869.5
4154,3.0,,,,,,,65.0,,,,0,note_on,,0.0,65.0,0.0,208680,869.5
4155,3.0,,,,,,,57.0,,,,0,note_on,,0.0,57.0,0.0,208680,869.5
4156,3.0,,,,,,,41.0,,,,0,note_on,,70.0,41.0,70.0,208680,869.5
4157,3.0,,,,,,,45.0,,,,4,note_on,,70.0,45.0,70.0,208684,869.5166666666667
4158,3.0,,,,,,,57.0,,,,1,note_on,,70.0,57.0,70.0,208685,869.5208333333334
4159,3.0,,,,,,,48.0,,,,0,note_on,,70.0,48.0,70.0,208685,869.5208333333334
4160,3.0,,,,,,,60.0,,,,1,note_on,,70.0,60.0,70.0,208686,869.525
4161,3.0,,,,,,,65.0,,,,1,note_on,,70.0,65.0,70.0,208687,869.5291666666667
4162,3.0,,,,,,,65.0,,,,113,note_on,,0.0,65.0,0.0,208800,870.0
4163,3.0,,,,,,,57.0,,,,0,note_on,,0.0,57.0,0.0,208800,870.0
4164,3.0,,,,,,,60.0,,,,0,note_on,,0.0,60.0,0.0,208800,870.0
4165,3.0,,,,,,,57.0,,,,0,note_on,,70.0,57.0,70.0,208800,870.0
4166,3.0,,,,,,,60.0,,,,3,note_on,,70.0,60.0,70.0,208803,870.0124999999999
4167,3.0,,,,,,,65.0,,,,4,note_on,,70.0,65.0,70.0,208807,870.0291666666667
4168,3.0,,,,,,,60.0,,,,49,note_on,,0.0,60.0,0.0,208856,870.2333333333333
4169,3.0,,,,,,,48.0,,,,4,note_on,,0.0,48.0,0.0,208860,870.25
4170,3.0,,,,,,,41.0,,,,0,note_on,,0.0,41.0,0.0,208860,870.25
4171,3.0,,,,,,,45.0,,,,0,note_on,,0.0,45.0,0.0,208860,870.25
4172,3.0,,,,,,,65.0,,,,0,note_on,,0.0,65.0,0.0,208860,870.25
4173,3.0,,,,,,,57.0,,,,0,note_on,,0.0,57.0,0.0,208860,870.25
4174,3.0,,,,,,,41.0,,,,0,note_on,,70.0,41.0,70.0,208860,870.25
4175,3.0,,,,,,,45.0,,,,4,note_on,,70.0,45.0,70.0,208864,870.2666666666667
4176,3.0,,,,,,,57.0,,,,1,note_on,,70.0,57.0,70.0,208865,870.2708333333334
4177,3.0,,,,,,,48.0,,,,0,note_on,,70.0,48.0,70.0,208865,870.2708333333334
4178,3.0,,,,,,,60.0,,,,1,note_on,,70.0,60.0,70.0,208866,870.275
4179,3.0,,,,,,,65.0,,,,1,note_on,,70.0,65.0,70.0,208867,870.2791666666667
4180,3.0,,,,,,,65.0,,,,113,note_on,,0.0,65.0,0.0,208980,870.75
4181,3.0,,,,,,,57.0,,,,0,note_on,,0.0,57.0,0.0,208980,870.75
4182,3.0,,,,,,,60.0,,,,0,note_on,,0.0,60.0,0.0,208980,870.75
4183,3.0,,,,,,,57.0,,,,0,note_on,,70.0,57.0,70.0,208980,870.75
4184,3.0,,,,,,,60.0,,,,3,note_on,,70.0,60.0,70.0,208983,870.7624999999999
4185,3.0,,,,,,,65.0,,,,4,note_on,,70.0,65.0,70.0,208987,870.7791666666667
4186,3.0,,,,,,,60.0,,,,49,note_on,,0.0,60.0,0.0,209036,870.9833333333333
4187,3.0,,,,,,,48.0,,,,4,note_on,,0.0,48.0,0.0,209040,871.0
4188,3.0,,,,,,,41.0,,,,0,note_on,,0.0,41.0,0.0,209040,871.0
4189,3.0,,,,,,,45.0,,,,0,note_on,,0.0,45.0,0.0,209040,871.0
4190,3.0,,,,,,,65.0,,,,0,note_on,,0.0,65.0,0.0,209040,871.0
4191,3.0,,,,,,,57.0,,,,0,note_on,,0.0,57.0,0.0,209040,871.0
4192,3.0,,,,,,,48.0,,,,0,note_on,,70.0,48.0,70.0,209040,871.0
4193,3.0,,,,,,,52.0,,,,4,note_on,,70.0,52.0,70.0,209044,871.0166666666667
4194,3.0,,,,,,,55.0,,,,1,note_on,,70.0,55.0,70.0,209045,871.0208333333334
4195,3.0,,,,,,,60.0,,,,1,note_on,,70.0,60.0,70.0,209046,871.025
4196,3.0,,,,,,,64.0,,,,1,note_on,,70.0,64.0,70.0,209047,871.0291666666667
4197,3.0,,,,,,,64.0,,,,113,note_on,,0.0,64.0,0.0,209160,871.5
4198,3.0,,,,,,,55.0,,,,0,note_on,,0.0,55.0,0.0,209160,871.5
4199,3.0,,,,,,,60.0,,,,0,note_on,,0.0,60.0,0.0,209160,871.5
4200,3.0,,,,,,,55.0,,,,0,note_on,,70.0,55.0,70.0,209160,871.5
4201,3.0,,,,,,,60.0,,,,4,note_on,,70.0,60.0,70.0,209164,871.5166666666667
4202,3.0,,,,,,,64.0,,,,3,note_on,,70.0,64.0,70.0,209167,871.5291666666667
4203,3.0,,,,,,,64.0,,,,53,note_on,,0.0,64.0,0.0,209220,871.75
4204,3.0,,,,,,,55.0,,,,0,note_on,,0.0,55.0,0.0,209220,871.75
4205,3.0,,,,,,,48.0,,,,0,note_on,,0.0,48.0,0.0,209220,871.75
4206,3.0,,,,,,,52.0,,,,0,note_on,,0.0,52.0,0.0,209220,871.75
4207,3.0,,,,,,,60.0,,,,0,note_on,,0.0,60.0,0.0,209220,871.75
4208,3.0,,,,,,,48.0,,,,0,note_on,,70.0,48.0,70.0,209220,871.75
4209,3.0,,,,,,,52.0,,,,4,note_on,,70.0,52.0,70.0,209224,871.7666666666667
4210,3.0,,,,,,,55.0,,,,1,note_on,,70.0,55.0,70.0,209225,871.7708333333334
4211,3.0,,,,,,,60.0,,,,1,note_on,,70.0,60.0,70.0,209226,871.775
4212,3.0,,,,,,,64.0,,,,1,note_on,,70.0,64.0,70.0,209227,871.7791666666667
4213,3.0,,,,,,,64.0,,,,113,note_on,,0.0,64.0,0.0,209340,872.25
4214,3.0,,,,,,,55.0,,,,0,note_on,,0.0,55.0,0.0,209340,872.25
4215,3.0,,,,,,,60.0,,,,0,note_on,,0.0,60.0,0.0,209340,872.25
4216,3.0,,,,,,,55.0,,,,0,note_on,,70.0,55.0,70.0,209340,872.25
4217,3.0,,,,,,,60.0,,,,4,note_on,,70.0,60.0,70.0,209344,872.2666666666667
4218,3.0,,,,,,,64.0,,,,3,note_on,,70.0,64.0,70.0,209347,872.2791666666667
4219,3.0,,,,,,,64.0,,,,53,note_on,,0.0,64.0,0.0,209400,872.5
4220,3.0,,,,,,,55.0,,,,0,note_on,,0.0,55.0,0.0,209400,872.5
4221,3.0,,,,,,,48.0,,,,0,note_on,,0.0,48.0,0.0,209400,872.5
4222,3.0,,,,,,,52.0,,,,0,note_on,,0.0,52.0,0.0,209400,872.5
4223,3.0,,,,,,,60.0,,,,0,note_on,,0.0,60.0,0.0,209400,872.5
4224,3.0,,,,,,,43.0,,,,0,note_on,,70.0,43.0,70.0,209400,872.5
4225,3.0,,,,,,,47.0,,,,2,note_on,,70.0,47.0,70.0,209402,872.5083333333333
4226,3.0,,,,,,,50.0,,,,2,note_on,,70.0,50.0,70.0,209404,872.5166666666667
4227,3.0,,,,,,,55.0,,,,1,note_on,,70.0,55.0,70.0,209405,872.5208333333334
4228,3.0,,,,,,,59.0,,,,1,note_on,,70.0,59.0,70.0,209406,872.525
4229,3.0,,,,,,,67.0,,,,1,note_on,,70.0,67.0,70.0,209407,872.5291666666667
4230,3.0,,,,,,,67.0,,,,113,note_on,,0.0,67.0,0.0,209520,873.0
4231,3.0,,,,,,,55.0,,,,0,note_on,,0.0,55.0,0.0,209520,873.0
4232,3.0,,,,,,,59.0,,,,0,note_on,,0.0,59.0,0.0,209520,873.0
4233,3.0,,,,,,,55.0,,,,0,note_on,,70.0,55.0,70.0,209520,873.0
4234,3.0,,,,,,,59.0,,,,4,note_on,,70.0,59.0,70.0,209524,873.0166666666667
4235,3.0,,,,,,,67.0,,,,3,note_on,,70.0,67.0,70.0,209527,873.0291666666667
4236,3.0,,,,,,,67.0,,,,53,note_on,,0.0,67.0,0.0,209580,873.25
4237,3.0,,,,,,,50.0,,,,0,note_on,,0.0,50.0,0.0,209580,873.25
4238,3.0,,,,,,,43.0,,,,0,note_on,,0.0,43.0,0.0,209580,873.25
4239,3.0,,,,,,,47.0,,,,0,note_on,,0.0,47.0,0.0,209580,873.25
4240,3.0,,,,,,,59.0,,,,0,note_on,,0.0,59.0,0.0,209580,873.25
4241,3.0,,,,,,,55.0,,,,0,note_on,,0.0,55.0,0.0,209580,873.25
4242,3.0,,,,,,,43.0,,,,0,note_on,,70.0,43.0,70.0,209580,873.25
4243,3.0,,,,,,,47.0,,,,2,note_on,,70.0,47.0,70.0,209582,873.2583333333333
4244,3.0,,,,,,,50.0,,,,2,note_on,,70.0,50.0,70.0,209584,873.2666666666667
4245,3.0,,,,,,,55.0,,,,1,note_on,,70.0,55.0,70.0,209585,873.2708333333334
4246,3.0,,,,,,,59.0,,,,1,note_on,,70.0,59.0,70.0,209586,873.275
4247,3.0,,,,,,,67.0,,,,1,note_on,,70.0,67.0,70.0,209587,873.2791666666667
4248,3.0,,,,,,,67.0,,,,113,note_on,,0.0,67.0,0.0,209700,873.75
4249,3.0,,,,,,,55.0,,,,0,note_on,,0.0,55.0,0.0,209700,873.75
4250,3.0,,,,,,,59.0,,,,0,note_on,,0.0,59.0,0.0,209700,873.75
4251,3.0,,,,,,,55.0,,,,0,note_on,,70.0,55.0,70.0,209700,873.75
4252,3.0,,,,,,,59.0,,,,4,note_on,,70.0,59.0,70.0,209704,873.7666666666667
4253,3.0,,,,,,,67.0,,,,3,note_on,,70.0,67.0,70.0,209707,873.7791666666667
4254,3.0,,,,,,,67.0,,,,53,note_on,,0.0,67.0,0.0,209760,874.0
4255,3.0,,,,,,,50.0,,,,0,note_on,,0.0,50.0,0.0,209760,874.0
4256,3.0,,,,,,,43.0,,,,0,note_on,,0.0,43.0,0.0,209760,874.0
4257,3.0,,,,,,,47.0,,,,0,note_on,,0.0,47.0,0.0,209760,874.0
4258,3.0,,,,,,,59.0,,,,0,note_on,,0.0,59.0,0.0,209760,874.0
4259,3.0,,,,,,,55.0,,,,0,note_on,,0.0,55.0,0.0,209760,874.0
4260,3.0,,,,,,,48.0,,,,0,note_on,,70.0,48.0,70.0,209760,874.0
4261,3.0,,,,,,,52.0,,,,4,note_on,,70.0,52.0,70.0,209764,874.0166666666667
4262,3.0,,,,,,,55.0,,,,1,note_on,,70.0,55.0,70.0,209765,874.0208333333334
4263,3.0,,,,,,,60.0,,,,1,note_on,,70.0,60.0,70.0,209766,874.025
4264,3.0,,,,,,,64.0,,,,1,note_on,,70.0,64.0,70.0,209767,874.0291666666667
4265,3.0,,,,,,,64.0,,,,113,note_on,,0.0,64.0,0.0,209880,874.5
4266,3.0,,,,,,,55.0,,,,0,note_on,,0.0,55.0,0.0,209880,874.5
4267,3.0,,,,,,,60.0,,,,0,note_on,,0.0,60.0,0.0,209880,874.5
4268,3.0,,,,,,,55.0,,,,0,note_on,,70.0,55.0,70.0,209880,874.5
4269,3.0,,,,,,,60.0,,,,4,note_on,,70.0,60.0,70.0,209884,874.5166666666667
4270,3.0,,,,,,,64.0,,,,3,note_on,,70.0,64.0,70.0,209887,874.5291666666667
4271,3.0,,,,,,,64.0,,,,53,note_on,,0.0,64.0,0.0,209940,874.75
4272,3.0,,,,,,,55.0,,,,0,note_on,,0.0,55.0,0.0,209940,874.75
4273,3.0,,,,,,,48.0,,,,0,note_on,,0.0,48.0,0.0,209940,874.75
4274,3.0,,,,,,,52.0,,,,0,note_on,,0.0,52.0,0.0,209940,874.75
4275,3.0,,,,,,,60.0,,,,0,note_on,,0.0,60.0,0.0,209940,874.75
4276,3.0,,,,,,,48.0,,,,0,note_on,,70.0,48.0,70.0,209940,874.75
4277,3.0,,,,,,,52.0,,,,4,note_on,,70.0,52.0,70.0,209944,874.7666666666667
4278,3.0,,,,,,,55.0,,,,1,note_on,,70.0,55.0,70.0,209945,874.7708333333334
4279,3.0,,,,,,,60.0,,,,1,note_on,,70.0,60.0,70.0,209946,874.775
4280,3.0,,,,,,,64.0,,,,1,note_on,,70.0,64.0,70.0,209947,874.7791666666667
4281,3.0,,,,,,,64.0,,,,113,note_on,,0.0,64.0,0.0,210060,875.25
4282,3.0,,,,,,,55.0,,,,0,note_on,,0.0,55.0,0.0,210060,875.25
4283,3.0,,,,,,,60.0,,,,0,note_on,,0.0,60.0,0.0,210060,875.25
4284,3.0,,,,,,,55.0,,,,0,note_on,,70.0,55.0,70.0,210060,875.25
4285,3.0,,,,,,,60.0,,,,4,note_on,,70.0,60.0,70.0,210064,875.2666666666667
4286,3.0,,,,,,,64.0,,,,3,note_on,,70.0,64.0,70.0,210067,875.2791666666667
4287,3.0,,,,,,,64.0,,,,53,note_on,,0.0,64.0,0.0,210120,875.5
4288,3.0,,,,,,,55.0,,,,0,note_on,,0.0,55.0,0.0,210120,875.5
4289,3.0,,,,,,,48.0,,,,0,note_on,,0.0,48.0,0.0,210120,875.5
4290,3.0,,,,,,,52.0,,,,0,note_on,,0.0,52.0,0.0,210120,875.5
4291,3.0,,,,,,,60.0,,,,0,note_on,,0.0,60.0,0.0,210120,875.5
4292,3.0,,,,,,,43.0,,,,0,note_on,,70.0,43.0,70.0,210120,875.5
4293,3.0,,,,,,,47.0,,,,2,note_on,,70.0,47.0,70.0,210122,875.5083333333333
4294,3.0,,,,,,,50.0,,,,2,note_on,,70.0,50.0,70.0,210124,875.5166666666667
4295,3.0,,,,,,,55.0,,,,1,note_on,,70.0,55.0,70.0,210125,875.5208333333334
4296,3.0,,,,,,,59.0,,,,1,note_on,,70.0,59.0,70.0,210126,875.525
4297,3.0,,,,,,,67.0,,,,1,note_on,,70.0,67.0,70.0,210127,875.5291666666667
4298,3.0,,,,,,,67.0,,,,113,note_on,,0.0,67.0,0.0,210240,876.0
4299,3.0,,,,,,,55.0,,,,0,note_on,,0.0,55.0,0.0,210240,876.0
4300,3.0,,,,,,,59.0,,,,0,note_on,,0.0,59.0,0.0,210240,876.0
4301,3.0,,,,,,,55.0,,,,0,note_on,,70.0,55.0,70.0,210240,876.0
4302,3.0,,,,,,,59.0,,,,4,note_on,,70.0,59.0,70.0,210244,876.0166666666667
4303,3.0,,,,,,,67.0,,,,3,note_on,,70.0,67.0,70.0,210247,876.0291666666667
4304,3.0,,,,,,,67.0,,,,53,note_on,,0.0,67.0,0.0,210300,876.25
4305,3.0,,,,,,,50.0,,,,0,note_on,,0.0,50.0,0.0,210300,876.25
4306,3.0,,,,,,,43.0,,,,0,note_on,,0.0,43.0,0.0,210300,876.25
4307,3.0,,,,,,,47.0,,,,0,note_on,,0.0,47.0,0.0,210300,876.25
4308,3.0,,,,,,,59.0,,,,0,note_on,,0.0,59.0,0.0,210300,876.25
4309,3.0,,,,,,,55.0,,,,0,note_on,,0.0,55.0,0.0,210300,876.25
4310,3.0,,,,,,,43.0,,,,0,note_on,,70.0,43.0,70.0,210300,876.25
4311,3.0,,,,,,,47.0,,,,2,note_on,,70.0,47.0,70.0,210302,876.2583333333333
4312,3.0,,,,,,,50.0,,,,2,note_on,,70.0,50.0,70.0,210304,876.2666666666667
4313,3.0,,,,,,,55.0,,,,1,note_on,,70.0,55.0,70.0,210305,876.2708333333334
4314,3.0,,,,,,,59.0,,,,1,note_on,,70.0,59.0,70.0,210306,876.275
4315,3.0,,,,,,,67.0,,,,1,note_on,,70.0,67.0,70.0,210307,876.2791666666667
4316,3.0,,,,,,,67.0,,,,113,note_on,,0.0,67.0,0.0,210420,876.75
4317,3.0,,,,,,,55.0,,,,0,note_on,,0.0,55.0,0.0,210420,876.75
4318,3.0,,,,,,,59.0,,,,0,note_on,,0.0,59.0,0.0,210420,876.75
4319,3.0,,,,,,,55.0,,,,0,note_on,,70.0,55.0,70.0,210420,876.75
4320,3.0,,,,,,,59.0,,,,4,note_on,,70.0,59.0,70.0,210424,876.7666666666667
4321,3.0,,,,,,,67.0,,,,3,note_on,,70.0,67.0,70.0,210427,876.7791666666667
4322,3.0,,,,,,,67.0,,,,53,note_on,,0.0,67.0,0.0,210480,877.0
4323,3.0,,,,,,,50.0,,,,0,note_on,,0.0,50.0,0.0,210480,877.0
4324,3.0,,,,,,,43.0,,,,0,note_on,,0.0,43.0,0.0,210480,877.0
4325,3.0,,,,,,,47.0,,,,0,note_on,,0.0,47.0,0.0,210480,877.0
4326,3.0,,,,,,,59.0,,,,0,note_on,,0.0,59.0,0.0,210480,877.0
4327,3.0,,,,,,,55.0,,,,0,note_on,,0.0,55.0,0.0,210480,877.0
4328,3.0,,,,,,,45.0,,,,0,note_on,,70.0,45.0,70.0,210480,877.0
4329,3.0,,,,,,,52.0,,,,2,note_on,,70.0,52.0,70.0,210482,877.0083333333333
4330,3.0,,,,,,,57.0,,,,2,note_on,,70.0,57.0,70.0,210484,877.0166666666667
4331,3.0,,,,,,,60.0,,,,1,note_on,,70.0,60.0,70.0,210485,877.0208333333334
4332,3.0,,,,,,,64.0,,,,1,note_on,,70.0,64.0,70.0,210486,877.025
4333,3.0,,,,,,,64.0,,,,114,note_on,,0.0,64.0,0.0,210600,877.5
4334,3.0,,,,,,,57.0,,,,0,note_on,,0.0,57.0,0.0,210600,877.5
4335,3.0,,,,,,,60.0,,,,0,note_on,,0.0,60.0,0.0,210600,877.5
4336,3.0,,,,,,,57.0,,,,0,note_on,,70.0,57.0,70.0,210600,877.5
4337,3.0,,,,,,,60.0,,,,4,note_on,,70.0,60.0,70.0,210604,877.5166666666667
4338,3.0,,,,,,,64.0,,,,3,note_on,,70.0,64.0,70.0,210607,877.5291666666667
4339,3.0,,,,,,,64.0,,,,53,note_on,,0.0,64.0,0.0,210660,877.75
4340,3.0,,,,,,,57.0,,,,0,note_on,,0.0,57.0,0.0,210660,877.75
4341,3.0,,,,,,,45.0,,,,0,note_on,,0.0,45.0,0.0,210660,877.75
4342,3.0,,,,,,,52.0,,,,0,note_on,,0.0,52.0,0.0,210660,877.75
4343,3.0,,,,,,,60.0,,,,0,note_on,,0.0,60.0,0.0,210660,877.75
4344,3.0,,,,,,,45.0,,,,0,note_on,,70.0,45.0,70.0,210660,877.75
4345,3.0,,,,,,,52.0,,,,2,note_on,,70.0,52.0,70.0,210662,877.7583333333333
4346,3.0,,,,,,,57.0,,,,2,note_on,,70.0,57.0,70.0,210664,877.7666666666667
4347,3.0,,,,,,,60.0,,,,1,note_on,,70.0,60.0,70.0,210665,877.7708333333334
4348,3.0,,,,,,,64.0,,,,1,note_on,,70.0,64.0,70.0,210666,877.775
4349,3.0,,,,,,,60.0,,,,54,note_on,,0.0,60.0,0.0,210720,878.0
4350,3.0,,,,,,,57.0,,,,0,note_on,,0.0,57.0,0.0,210720,878.0
4351,3.0,,,,,,,64.0,,,,0,note_on,,100.0,64.0,100.0,210720,878.0
4352,3.0,,,,,,,60.0,,,,4,note_on,,100.0,60.0,100.0,210724,878.0166666666667
4353,3.0,,,,,,,57.0,,,,3,note_on,,100.0,57.0,100.0,210727,878.0291666666667
4354,3.0,,,,,,,57.0,,,,53,note_on,,0.0,57.0,0.0,210780,878.25
4355,3.0,,,,,,,64.0,,,,0,note_on,,0.0,64.0,0.0,210780,878.25
4356,3.0,,,,,,,64.0,,,,0,note_on,,0.0,64.0,0.0,210780,878.25
4357,3.0,,,,,,,60.0,,,,0,note_on,,0.0,60.0,0.0,210780,878.25
4358,3.0,,,,,,,57.0,,,,0,note_on,,70.0,57.0,70.0,210780,878.25
4359,3.0,,,,,,,60.0,,,,4,note_on,,70.0,60.0,70.0,210784,878.2666666666667
4360,3.0,,,,,,,64.0,,,,3,note_on,,70.0,64.0,70.0,210787,878.2791666666667
4361,3.0,,,,,,,64.0,,,,53,note_on,,0.0,64.0,0.0,210840,878.5
4362,3.0,,,,,,,57.0,,,,0,note_on,,0.0,57.0,0.0,210840,878.5
4363,3.0,,,,,,,52.0,,,,0,note_on,,0.0,52.0,0.0,210840,878.5
4364,3.0,,,,,,,45.0,,,,0,note_on,,0.0,45.0,0.0,210840,878.5
4365,3.0,,,,,,,60.0,,,,0,note_on,,0.0,60.0,0.0,210840,878.5
4366,3.0,,,,,,,48.0,,,,0,note_on,,70.0,48.0,70.0,210840,878.5
4367,3.0,,,,,,,52.0,,,,4,note_on,,70.0,52.0,70.0,210844,878.5166666666667
4368,3.0,,,,,,,55.0,,,,1,note_on,,70.0,55.0,70.0,210845,878.5208333333334
4369,3.0,,,,,,,60.0,,,,1,note_on,,70.0,60.0,70.0,210846,878.525
4370,3.0,,,,,,,64.0,,,,1,note_on,,70.0,64.0,70.0,210847,878.5291666666667
4371,3.0,,,,,,,64.0,,,,113,note_on,,0.0,64.0,0.0,210960,879.0
4372,3.0,,,,,,,55.0,,,,0,note_on,,0.0,55.0,0.0,210960,879.0
4373,3.0,,,,,,,60.0,,,,0,note_on,,0.0,60.0,0.0,210960,879.0
4374,3.0,,,,,,,55.0,,,,0,note_on,,70.0,55.0,70.0,210960,879.0
4375,3.0,,,,,,,60.0,,,,4,note_on,,70.0,60.0,70.0,210964,879.0166666666667
4376,3.0,,,,,,,64.0,,,,3,note_on,,70.0,64.0,70.0,210967,879.0291666666667
4377,3.0,,,,,,,64.0,,,,53,note_on,,0.0,64.0,0.0,211020,879.25
4378,3.0,,,,,,,55.0,,,,0,note_on,,0.0,55.0,0.0,211020,879.25
4379,3.0,,,,,,,48.0,,,,0,note_on,,0.0,48.0,0.0,211020,879.25
4380,3.0,,,,,,,52.0,,,,0,note_on,,0.0,52.0,0.0,211020,879.25
4381,3.0,,,,,,,60.0,,,,0,note_on,,0.0,60.0,0.0,211020,879.25
4382,3.0,,,,,,,48.0,,,,0,note_on,,70.0,48.0,70.0,211020,879.25
4383,3.0,,,,,,,52.0,,,,4,note_on,,70.0,52.0,70.0,211024,879.2666666666667
4384,3.0,,,,,,,55.0,,,,1,note_on,,70.0,55.0,70.0,211025,879.2708333333334
4385,3.0,,,,,,,60.0,,,,1,note_on,,70.0,60.0,70.0,211026,879.275
4386,3.0,,,,,,,64.0,,,,1,note_on,,70.0,64.0,70.0,211027,879.2791666666667
4387,3.0,,,,,,,64.0,,,,113,note_on,,0.0,64.0,0.0,211140,879.75
4388,3.0,,,,,,,55.0,,,,0,note_on,,0.0,55.0,0.0,211140,879.75
4389,3.0,,,,,,,60.0,,,,0,note_on,,0.0,60.0,0.0,211140,879.75
4390,3.0,,,,,,,55.0,,,,0,note_on,,70.0,55.0,70.0,211140,879.75
4391,3.0,,,,,,,60.0,,,,4,note_on,,70.0,60.0,70.0,211144,879.7666666666667
4392,3.0,,,,,,,64.0,,,,3,note_on,,70.0,64.0,70.0,211147,879.7791666666667
4393,3.0,,,,,,,64.0,,,,53,note_on,,0.0,64.0,0.0,211200,880.0
4394,3.0,,,,,,,55.0,,,,0,note_on,,0.0,55.0,0.0,211200,880.0
4395,3.0,,,,,,,48.0,,,,0,note_on,,0.0,48.0,0.0,211200,880.0
4396,3.0,,,,,,,52.0,,,,0,note_on,,0.0,52.0,0.0,211200,880.0
4397,3.0,,,,,,,60.0,,,,0,note_on,,0.0,60.0,0.0,211200,880.0
4398,3.0,,,,,,,45.0,,,,0,note_on,,70.0,45.0,70.0,211200,880.0
4399,3.0,,,,,,,52.0,,,,2,note_on,,70.0,52.0,70.0,211202,880.0083333333333
4400,3.0,,,,,,,57.0,,,,2,note_on,,70.0,57.0,70.0,211204,880.0166666666667
4401,3.0,,,,,,,60.0,,,,1,note_on,,70.0,60.0,70.0,211205,880.0208333333334
4402,3.0,,,,,,,64.0,,,,1,note_on,,70.0,64.0,70.0,211206,880.025
4403,3.0,,,,,,,64.0,,,,114,note_on,,0.0,64.0,0.0,211320,880.5
4404,3.0,,,,,,,60.0,,,,0,note_on,,0.0,60.0,0.0,211320,880.5
4405,3.0,,,,,,,57.0,,,,0,note_on,,70.0,57.0,70.0,211320,880.5
4406,3.0,,,,,,,60.0,,,,4,note_on,,70.0,60.0,70.0,211324,880.5166666666667
4407,3.0,,,,,,,64.0,,,,3,note_on,,70.0,64.0,70.0,211327,880.5291666666667
4408,3.0,,,,,,,64.0,,,,53,note_on,,0.0,64.0,0.0,211380,880.75
4409,3.0,,,,,,,52.0,,,,0,note_on,,0.0,52.0,0.0,211380,880.75
4410,3.0,,,,,,,45.0,,,,0,note_on,,0.0,45.0,0.0,211380,880.75
4411,3.0,,,,,,,57.0,,,,0,note_on,,0.0,57.0,0.0,211380,880.75
4412,3.0,,,,,,,60.0,,,,0,note_on,,0.0,60.0,0.0,211380,880.75
4413,3.0,,,,,,,57.0,,,,0,note_on,,0.0,57.0,0.0,211380,880.75
4414,3.0,,,,,,,45.0,,,,0,note_on,,70.0,45.0,70.0,211380,880.75
4415,3.0,,,,,,,52.0,,,,2,note_on,,70.0,52.0,70.0,211382,880.7583333333333
4416,3.0,,,,,,,57.0,,,,2,note_on,,70.0,57.0,70.0,211384,880.7666666666667
4417,3.0,,,,,,,60.0,,,,1,note_on,,70.0,60.0,70.0,211385,880.7708333333334
4418,3.0,,,,,,,64.0,,,,1,note_on,,70.0,64.0,70.0,211386,880.775
4419,3.0,,,,,,,64.0,,,,114,note_on,,0.0,64.0,0.0,211500,881.25
4420,3.0,,,,,,,60.0,,,,0,note_on,,0.0,60.0,0.0,211500,881.25
4421,3.0,,,,,,,57.0,,,,0,note_on,,70.0,57.0,70.0,211500,881.25
4422,3.0,,,,,,,60.0,,,,4,note_on,,70.0,60.0,70.0,211504,881.2666666666667
4423,3.0,,,,,,,64.0,,,,3,note_on,,70.0,64.0,70.0,211507,881.2791666666667
4424,3.0,,,,,,,64.0,,,,53,note_on,,0.0,64.0,0.0,211560,881.5
4425,3.0,,,,,,,52.0,,,,0,note_on,,0.0,52.0,0.0,211560,881.5
4426,3.0,,,,,,,45.0,,,,0,note_on,,0.0,45.0,0.0,211560,881.5
4427,3.0,,,,,,,57.0,,,,0,note_on,,0.0,57.0,0.0,211560,881.5
4428,3.0,,,,,,,60.0,,,,0,note_on,,0.0,60.0,0.0,211560,881.5
4429,3.0,,,,,,,57.0,,,,0,note_on,,0.0,57.0,0.0,211560,881.5
4430,3.0,,,,,,,48.0,,,,0,note_on,,70.0,48.0,70.0,211560,881.5
4431,3.0,,,,,,,52.0,,,,4,note_on,,70.0,52.0,70.0,211564,881.5166666666667
4432,3.0,,,,,,,55.0,,,,1,note_on,,70.0,55.0,70.0,211565,881.5208333333334
4433,3.0,,,,,,,60.0,,,,1,note_on,,70.0,60.0,70.0,211566,881.525
4434,3.0,,,,,,,64.0,,,,1,note_on,,70.0,64.0,70.0,211567,881.5291666666667
4435,3.0,,,,,,,64.0,,,,113,note_on,,0.0,64.0,0.0,211680,882.0
4436,3.0,,,,,,,55.0,,,,0,note_on,,0.0,55.0,0.0,211680,882.0
4437,3.0,,,,,,,60.0,,,,0,note_on,,0.0,60.0,0.0,211680,882.0
4438,3.0,,,,,,,55.0,,,,0,note_on,,70.0,55.0,70.0,211680,882.0
4439,3.0,,,,,,,60.0,,,,4,note_on,,70.0,60.0,70.0,211684,882.0166666666667
4440,3.0,,,,,,,64.0,,,,3,note_on,,70.0,64.0,70.0,211687,882.0291666666667
4441,3.0,,,,,,,64.0,,,,53,note_on,,0.0,64.0,0.0,211740,882.25
4442,3.0,,,,,,,55.0,,,,0,note_on,,0.0,55.0,0.0,211740,882.25
4443,3.0,,,,,,,48.0,,,,0,note_on,,0.0,48.0,0.0,211740,882.25
4444,3.0,,,,,,,52.0,,,,0,note_on,,0.0,52.0,0.0,211740,882.25
4445,3.0,,,,,,,60.0,,,,0,note_on,,0.0,60.0,0.0,211740,882.25
4446,3.0,,,,,,,48.0,,,,0,note_on,,70.0,48.0,70.0,211740,882.25
4447,3.0,,,,,,,52.0,,,,4,note_on,,70.0,52.0,70.0,211744,882.2666666666667
4448,3.0,,,,,,,55.0,,,,1,note_on,,70.0,55.0,70.0,211745,882.2708333333334
4449,3.0,,,,,,,60.0,,,,1,note_on,,70.0,60.0,70.0,211746,882.275
4450,3.0,,,,,,,64.0,,,,1,note_on,,70.0,64.0,70.0,211747,882.2791666666667
4451,3.0,,,,,,,64.0,,,,113,note_on,,0.0,64.0,0.0,211860,882.75
4452,3.0,,,,,,,55.0,,,,0,note_on,,0.0,55.0,0.0,211860,882.75
4453,3.0,,,,,,,60.0,,,,0,note_on,,0.0,60.0,0.0,211860,882.75
4454,3.0,,,,,,,55.0,,,,0,note_on,,70.0,55.0,70.0,211860,882.75
4455,3.0,,,,,,,60.0,,,,4,note_on,,70.0,60.0,70.0,211864,882.7666666666667
4456,3.0,,,,,,,64.0,,,,3,note_on,,70.0,64.0,70.0,211867,882.7791666666667
4457,3.0,,,,,,,64.0,,,,53,note_on,,0.0,64.0,0.0,211920,883.0
4458,3.0,,,,,,,55.0,,,,0,note_on,,0.0,55.0,0.0,211920,883.0
4459,3.0,,,,,,,48.0,,,,0,note_on,,0.0,48.0,0.0,211920,883.0
4460,3.0,,,,,,,52.0,,,,0,note_on,,0.0,52.0,0.0,211920,883.0
4461,3.0,,,,,,,60.0,,,,0,note_on,,0.0,60.0,0.0,211920,883.0
4462,3.0,,,,,,,45.0,,,,0,note_on,,70.0,45.0,70.0,211920,883.0
4463,3.0,,,,,,,52.0,,,,2,note_on,,70.0,52.0,70.0,211922,883.0083333333333
4464,3.0,,,,,,,57.0,,,,2,note_on,,70.0,57.0,70.0,211924,883.0166666666667
4465,3.0,,,,,,,60.0,,,,1,note_on,,70.0,60.0,70.0,211925,883.0208333333334
4466,3.0,,,,,,,64.0,,,,1,note_on,,70.0,64.0,70.0,211926,883.025
4467,3.0,,,,,,,64.0,,,,114,note_on,,0.0,64.0,0.0,212040,883.5
4468,3.0,,,,,,,60.0,,,,0,note_on,,0.0,60.0,0.0,212040,883.5
4469,3.0,,,,,,,57.0,,,,0,note_on,,70.0,57.0,70.0,212040,883.5
4470,3.0,,,,,,,60.0,,,,4,note_on,,70.0,60.0,70.0,212044,883.5166666666667
4471,3.0,,,,,,,64.0,,,,3,note_on,,70.0,64.0,70.0,212047,883.5291666666667
4472,3.0,,,,,,,64.0,,,,53,note_on,,0.0,64.0,0.0,212100,883.75
4473,3.0,,,,,,,52.0,,,,0,note_on,,0.0,52.0,0.0,212100,883.75
4474,3.0,,,,,,,45.0,,,,0,note_on,,0.0,45.0,0.0,212100,883.75
4475,3.0,,,,,,,57.0,,,,0,note_on,,0.0,57.0,0.0,212100,883.75
4476,3.0,,,,,,,60.0,,,,0,note_on,,0.0,60.0,0.0,212100,883.75
4477,3.0,,,,,,,57.0,,,,0,note_on,,0.0,57.0,0.0,212100,883.75
4478,3.0,,,,,,,45.0,,,,0,note_on,,70.0,45.0,70.0,212100,883.75
4479,3.0,,,,,,,52.0,,,,2,note_on,,70.0,52.0,70.0,212102,883.7583333333333
4480,3.0,,,,,,,57.0,,,,2,note_on,,70.0,57.0,70.0,212104,883.7666666666667
4481,3.0,,,,,,,60.0,,,,1,note_on,,70.0,60.0,70.0,212105,883.7708333333334
4482,3.0,,,,,,,64.0,,,,1,note_on,,70.0,64.0,70.0,212106,883.775
4483,3.0,,,,,,,64.0,,,,114,note_on,,0.0,64.0,0.0,212220,884.25
4484,3.0,,,,,,,60.0,,,,0,note_on,,0.0,60.0,0.0,212220,884.25
4485,3.0,,,,,,,57.0,,,,0,note_on,,70.0,57.0,70.0,212220,884.25
4486,3.0,,,,,,,60.0,,,,4,note_on,,70.0,60.0,70.0,212224,884.2666666666667
4487,3.0,,,,,,,64.0,,,,3,note_on,,70.0,64.0,70.0,212227,884.2791666666667
4488,3.0,,,,,,,64.0,,,,53,note_on,,0.0,64.0,0.0,212280,884.5
4489,3.0,,,,,,,52.0,,,,0,note_on,,0.0,52.0,0.0,212280,884.5
4490,3.0,,,,,,,45.0,,,,0,note_on,,0.0,45.0,0.0,212280,884.5
4491,3.0,,,,,,,57.0,,,,0,note_on,,0.0,57.0,0.0,212280,884.5
4492,3.0,,,,,,,60.0,,,,0,note_on,,0.0,60.0,0.0,212280,884.5
4493,3.0,,,,,,,57.0,,,,0,note_on,,0.0,57.0,0.0,212280,884.5
4494,3.0,,,,,,,41.0,,,,0,note_on,,70.0,41.0,70.0,212280,884.5
4495,3.0,,,,,,,45.0,,,,4,note_on,,70.0,45.0,70.0,212284,884.5166666666667
4496,3.0,,,,,,,57.0,,,,1,note_on,,70.0,57.0,70.0,212285,884.5208333333334
4497,3.0,,,,,,,48.0,,,,0,note_on,,70.0,48.0,70.0,212285,884.5208333333334
4498,3.0,,,,,,,60.0,,,,1,note_on,,70.0,60.0,70.0,212286,884.525
4499,3.0,,,,,,,65.0,,,,1,note_on,,70.0,65.0,70.0,212287,884.5291666666667
4500,3.0,,,,,,,65.0,,,,113,note_on,,0.0,65.0,0.0,212400,885.0
4501,3.0,,,,,,,57.0,,,,0,note_on,,0.0,57.0,0.0,212400,885.0
4502,3.0,,,,,,,60.0,,,,0,note_on,,0.0,60.0,0.0,212400,885.0
4503,3.0,,,,,,,57.0,,,,0,note_on,,70.0,57.0,70.0,212400,885.0
4504,3.0,,,,,,,60.0,,,,3,note_on,,70.0,60.0,70.0,212403,885.0124999999999
4505,3.0,,,,,,,65.0,,,,4,note_on,,70.0,65.0,70.0,212407,885.0291666666667
4506,3.0,,,,,,,60.0,,,,49,note_on,,0.0,60.0,0.0,212456,885.2333333333333
4507,3.0,,,,,,,48.0,,,,4,note_on,,0.0,48.0,0.0,212460,885.25
4508,3.0,,,,,,,41.0,,,,0,note_on,,0.0,41.0,0.0,212460,885.25
4509,3.0,,,,,,,45.0,,,,0,note_on,,0.0,45.0,0.0,212460,885.25
4510,3.0,,,,,,,65.0,,,,0,note_on,,0.0,65.0,0.0,212460,885.25
4511,3.0,,,,,,,57.0,,,,0,note_on,,0.0,57.0,0.0,212460,885.25
4512,3.0,,,,,,,41.0,,,,0,note_on,,70.0,41.0,70.0,212460,885.25
4513,3.0,,,,,,,45.0,,,,4,note_on,,70.0,45.0,70.0,212464,885.2666666666667
4514,3.0,,,,,,,57.0,,,,1,note_on,,70.0,57.0,70.0,212465,885.2708333333334
4515,3.0,,,,,,,48.0,,,,0,note_on,,70.0,48.0,70.0,212465,885.2708333333334
4516,3.0,,,,,,,60.0,,,,1,note_on,,70.0,60.0,70.0,212466,885.275
4517,3.0,,,,,,,65.0,,,,1,note_on,,70.0,65.0,70.0,212467,885.2791666666667
4518,3.0,,,,,,,65.0,,,,113,note_on,,0.0,65.0,0.0,212580,885.75
4519,3.0,,,,,,,57.0,,,,0,note_on,,0.0,57.0,0.0,212580,885.75
4520,3.0,,,,,,,60.0,,,,0,note_on,,0.0,60.0,0.0,212580,885.75
4521,3.0,,,,,,,57.0,,,,0,note_on,,70.0,57.0,70.0,212580,885.75
4522,3.0,,,,,,,60.0,,,,3,note_on,,70.0,60.0,70.0,212583,885.7624999999999
4523,3.0,,,,,,,65.0,,,,4,note_on,,70.0,65.0,70.0,212587,885.7791666666667
4524,3.0,,,,,,,60.0,,,,49,note_on,,0.0,60.0,0.0,212636,885.9833333333333
4525,3.0,,,,,,,48.0,,,,4,note_on,,0.0,48.0,0.0,212640,886.0
4526,3.0,,,,,,,41.0,,,,0,note_on,,0.0,41.0,0.0,212640,886.0
4527,3.0,,,,,,,45.0,,,,0,note_on,,0.0,45.0,0.0,212640,886.0
4528,3.0,,,,,,,65.0,,,,0,note_on,,0.0,65.0,0.0,212640,886.0
4529,3.0,,,,,,,57.0,,,,0,note_on,,0.0,57.0,0.0,212640,886.0
4530,3.0,,,,,,,43.0,,,,0,note_on,,70.0,43.0,70.0,212640,886.0
4531,3.0,,,,,,,47.0,,,,2,note_on,,70.0,47.0,70.0,212642,886.0083333333333
4532,3.0,,,,,,,50.0,,,,2,note_on,,70.0,50.0,70.0,212644,886.0166666666667
4533,3.0,,,,,,,55.0,,,,1,note_on,,70.0,55.0,70.0,212645,886.0208333333334
4534,3.0,,,,,,,59.0,,,,1,note_on,,70.0,59.0,70.0,212646,886.025
4535,3.0,,,,,,,67.0,,,,1,note_on,,70.0,67.0,70.0,212647,886.0291666666667
4536,3.0,,,,,,,67.0,,,,113,note_on,,0.0,67.0,0.0,212760,886.5
4537,3.0,,,,,,,55.0,,,,0,note_on,,0.0,55.0,0.0,212760,886.5
4538,3.0,,,,,,,59.0,,,,0,note_on,,0.0,59.0,0.0,212760,886.5
4539,3.0,,,,,,,55.0,,,,0,note_on,,70.0,55.0,70.0,212760,886.5
4540,3.0,,,,,,,59.0,,,,4,note_on,,70.0,59.0,70.0,212764,886.5166666666667
4541,3.0,,,,,,,67.0,,,,3,note_on,,70.0,67.0,70.0,212767,886.5291666666667
4542,3.0,,,,,,,67.0,,,,53,note_on,,0.0,67.0,0.0,212820,886.75
4543,3.0,,,,,,,50.0,,,,0,note_on,,0.0,50.0,0.0,212820,886.75
4544,3.0,,,,,,,43.0,,,,0,note_on,,0.0,43.0,0.0,212820,886.75
4545,3.0,,,,,,,47.0,,,,0,note_on,,0.0,47.0,0.0,212820,886.75
4546,3.0,,,,,,,59.0,,,,0,note_on,,0.0,59.0,0.0,212820,886.75
4547,3.0,,,,,,,55.0,,,,0,note_on,,0.0,55.0,0.0,212820,886.75
4548,3.0,,,,,,,43.0,,,,0,note_on,,70.0,43.0,70.0,212820,886.75
4549,3.0,,,,,,,47.0,,,,2,note_on,,70.0,47.0,70.0,212822,886.7583333333333
4550,3.0,,,,,,,50.0,,,,2,note_on,,70.0,50.0,70.0,212824,886.7666666666667
4551,3.0,,,,,,,55.0,,,,1,note_on,,70.0,55.0,70.0,212825,886.7708333333334
4552,3.0,,,,,,,59.0,,,,1,note_on,,70.0,59.0,70.0,212826,886.775
4553,3.0,,,,,,,67.0,,,,1,note_on,,70.0,67.0,70.0,212827,886.7791666666667
4554,3.0,,,,,,,67.0,,,,113,note_on,,0.0,67.0,0.0,212940,887.25
4555,3.0,,,,,,,55.0,,,,0,note_on,,0.0,55.0,0.0,212940,887.25
4556,3.0,,,,,,,59.0,,,,0,note_on,,0.0,59.0,0.0,212940,887.25
4557,3.0,,,,,,,55.0,,,,0,note_on,,70.0,55.0,70.0,212940,887.25
4558,3.0,,,,,,,59.0,,,,4,note_on,,70.0,59.0,70.0,212944,887.2666666666667
4559,3.0,,,,,,,67.0,,,,3,note_on,,70.0,67.0,70.0,212947,887.2791666666667
4560,3.0,,,,,,,67.0,,,,53,note_on,,0.0,67.0,0.0,213000,887.5
4561,3.0,,,,,,,50.0,,,,0,note_on,,0.0,50.0,0.0,213000,887.5
4562,3.0,,,,,,,43.0,,,,0,note_on,,0.0,43.0,0.0,213000,887.5
4563,3.0,,,,,,,47.0,,,,0,note_on,,0.0,47.0,0.0,213000,887.5
4564,3.0,,,,,,,59.0,,,,0,note_on,,0.0,59.0,0.0,213000,887.5
4565,3.0,,,,,,,55.0,,,,0,note_on,,0.0,55.0,0.0,213000,887.5
4566,3.0,,,,,,,48.0,,,,0,note_on,,70.0,48.0,70.0,213000,887.5
4567,3.0,,,,,,,52.0,,,,4,note_on,,70.0,52.0,70.0,213004,887.5166666666667
4568,3.0,,,,,,,55.0,,,,1,note_on,,70.0,55.0,70.0,213005,887.5208333333334
4569,3.0,,,,,,,60.0,,,,1,note_on,,70.0,60.0,70.0,213006,887.525
4570,3.0,,,,,,,64.0,,,,1,note_on,,70.0,64.0,70.0,213007,887.5291666666667
4571,3.0,,,,,,,64.0,,,,113,note_on,,0.0,64.0,0.0,213120,888.0
4572,3.0,,,,,,,55.0,,,,0,note_on,,0.0,55.0,0.0,213120,888.0
4573,3.0,,,,,,,60.0,,,,0,note_on,,0.0,60.0,0.0,213120,888.0
4574,3.0,,,,,,,55.0,,,,0,note_on,,70.0,55.0,70.0,213120,888.0
4575,3.0,,,,,,,60.0,,,,4,note_on,,70.0,60.0,70.0,213124,888.0166666666667
4576,3.0,,,,,,,64.0,,,,3,note_on,,70.0,64.0,70.0,213127,888.0291666666667
4577,3.0,,,,,,,64.0,,,,53,note_on,,0.0,64.0,0.0,213180,888.25
4578,3.0,,,,,,,55.0,,,,0,note_on,,0.0,55.0,0.0,213180,888.25
4579,3.0,,,,,,,48.0,,,,0,note_on,,0.0,48.0,0.0,213180,888.25
4580,3.0,,,,,,,52.0,,,,0,note_on,,0.0,52.0,0.0,213180,888.25
4581,3.0,,,,,,,60.0,,,,0,note_on,,0.0,60.0,0.0,213180,888.25
4582,3.0,,,,,,,48.0,,,,0,note_on,,70.0,48.0,70.0,213180,888.25
4583,3.0,,,,,,,52.0,,,,4,note_on,,70.0,52.0,70.0,213184,888.2666666666667
4584,3.0,,,,,,,55.0,,,,1,note_on,,70.0,55.0,70.0,213185,888.2708333333334
4585,3.0,,,,,,,60.0,,,,1,note_on,,70.0,60.0,70.0,213186,888.275
4586,3.0,,,,,,,64.0,,,,1,note_on,,70.0,64.0,70.0,213187,888.2791666666667
4587,3.0,,,,,,,64.0,,,,113,note_on,,0.0,64.0,0.0,213300,888.75
4588,3.0,,,,,,,55.0,,,,0,note_on,,0.0,55.0,0.0,213300,888.75
4589,3.0,,,,,,,60.0,,,,0,note_on,,0.0,60.0,0.0,213300,888.75
4590,3.0,,,,,,,55.0,,,,0,note_on,,70.0,55.0,70.0,213300,888.75
4591,3.0,,,,,,,60.0,,,,4,note_on,,70.0,60.0,70.0,213304,888.7666666666667
4592,3.0,,,,,,,64.0,,,,3,note_on,,70.0,64.0,70.0,213307,888.7791666666667
4593,3.0,,,,,,,64.0,,,,53,note_on,,0.0,64.0,0.0,213360,889.0
4594,3.0,,,,,,,55.0,,,,0,note_on,,0.0,55.0,0.0,213360,889.0
4595,3.0,,,,,,,48.0,,,,0,note_on,,0.0,48.0,0.0,213360,889.0
4596,3.0,,,,,,,52.0,,,,0,note_on,,0.0,52.0,0.0,213360,889.0
4597,3.0,,,,,,,60.0,,,,0,note_on,,0.0,60.0,0.0,213360,889.0
4598,3.0,,,,,,,43.0,,,,0,note_on,,70.0,43.0,70.0,213360,889.0
4599,3.0,,,,,,,47.0,,,,2,note_on,,70.0,47.0,70.0,213362,889.0083333333333
4600,3.0,,,,,,,50.0,,,,2,note_on,,70.0,50.0,70.0,213364,889.0166666666667
4601,3.0,,,,,,,55.0,,,,1,note_on,,70.0,55.0,70.0,213365,889.0208333333334
4602,3.0,,,,,,,59.0,,,,1,note_on,,70.0,59.0,70.0,213366,889.025
4603,3.0,,,,,,,67.0,,,,1,note_on,,70.0,67.0,70.0,213367,889.0291666666667
4604,3.0,,,,,,,67.0,,,,113,note_on,,0.0,67.0,0.0,213480,889.5
4605,3.0,,,,,,,55.0,,,,0,note_on,,0.0,55.0,0.0,213480,889.5
4606,3.0,,,,,,,59.0,,,,0,note_on,,0.0,59.0,0.0,213480,889.5
4607,3.0,,,,,,,55.0,,,,0,note_on,,70.0,55.0,70.0,213480,889.5
4608,3.0,,,,,,,59.0,,,,4,note_on,,70.0,59.0,70.0,213484,889.5166666666667
4609,3.0,,,,,,,67.0,,,,3,note_on,,70.0,67.0,70.0,213487,889.5291666666667
4610,3.0,,,,,,,67.0,,,,53,note_on,,0.0,67.0,0.0,213540,889.75
4611,3.0,,,,,,,50.0,,,,0,note_on,,0.0,50.0,0.0,213540,889.75
4612,3.0,,,,,,,43.0,,,,0,note_on,,0.0,43.0,0.0,213540,889.75
4613,3.0,,,,,,,47.0,,,,0,note_on,,0.0,47.0,0.0,213540,889.75
4614,3.0,,,,,,,59.0,,,,0,note_on,,0.0,59.0,0.0,213540,889.75
4615,3.0,,,,,,,55.0,,,,0,note_on,,0.0,55.0,0.0,213540,889.75
4616,3.0,,,,,,,43.0,,,,0,note_on,,70.0,43.0,70.0,213540,889.75
4617,3.0,,,,,,,47.0,,,,2,note_on,,70.0,47.0,70.0,213542,889.7583333333333
4618,3.0,,,,,,,50.0,,,,2,note_on,,70.0,50.0,70.0,213544,889.7666666666667
4619,3.0,,,,,,,55.0,,,,1,note_on,,70.0,55.0,70.0,213545,889.7708333333334
4620,3.0,,,,,,,59.0,,,,1,note_on,,70.0,59.0,70.0,213546,889.775
4621,3.0,,,,,,,67.0,,,,1,note_on,,70.0,67.0,70.0,213547,889.7791666666667
4622,3.0,,,,,,,67.0,,,,113,note_on,,0.0,67.0,0.0,213660,890.25
4623,3.0,,,,,,,55.0,,,,0,note_on,,0.0,55.0,0.0,213660,890.25
4624,3.0,,,,,,,59.0,,,,0,note_on,,0.0,59.0,0.0,213660,890.25
4625,3.0,,,,,,,55.0,,,,0,note_on,,70.0,55.0,70.0,213660,890.25
4626,3.0,,,,,,,59.0,,,,4,note_on,,70.0,59.0,70.0,213664,890.2666666666667
4627,3.0,,,,,,,67.0,,,,3,note_on,,70.0,67.0,70.0,213667,890.2791666666667
4628,3.0,,,,,,,67.0,,,,53,note_on,,0.0,67.0,0.0,213720,890.5
4629,3.0,,,,,,,50.0,,,,0,note_on,,0.0,50.0,0.0,213720,890.5
4630,3.0,,,,,,,43.0,,,,0,note_on,,0.0,43.0,0.0,213720,890.5
4631,3.0,,,,,,,47.0,,,,0,note_on,,0.0,47.0,0.0,213720,890.5
4632,3.0,,,,,,,59.0,,,,0,note_on,,0.0,59.0,0.0,213720,890.5
4633,3.0,,,,,,,55.0,,,,0,note_on,,0.0,55.0,0.0,213720,890.5
4634,3.0,,,,,,,48.0,,,,0,note_on,,70.0,48.0,70.0,213720,890.5
4635,3.0,,,,,,,52.0,,,,4,note_on,,70.0,52.0,70.0,213724,890.5166666666667
4636,3.0,,,,,,,55.0,,,,1,note_on,,70.0,55.0,70.0,213725,890.5208333333334
4637,3.0,,,,,,,60.0,,,,1,note_on,,70.0,60.0,70.0,213726,890.525
4638,3.0,,,,,,,64.0,,,,1,note_on,,70.0,64.0,70.0,213727,890.5291666666667
4639,3.0,,,,,,,64.0,,,,113,note_on,,0.0,64.0,0.0,213840,891.0
4640,3.0,,,,,,,55.0,,,,0,note_on,,0.0,55.0,0.0,213840,891.0
4641,3.0,,,,,,,60.0,,,,0,note_on,,0.0,60.0,0.0,213840,891.0
4642,3.0,,,,,,,55.0,,,,0,note_on,,70.0,55.0,70.0,213840,891.0
4643,3.0,,,,,,,60.0,,,,4,note_on,,70.0,60.0,70.0,213844,891.0166666666667
4644,3.0,,,,,,,64.0,,,,3,note_on,,70.0,64.0,70.0,213847,891.0291666666667
4645,3.0,,,,,,,64.0,,,,53,note_on,,0.0,64.0,0.0,213900,891.25
4646,3.0,,,,,,,55.0,,,,0,note_on,,0.0,55.0,0.0,213900,891.25
4647,3.0,,,,,,,48.0,,,,0,note_on,,0.0,48.0,0.0,213900,891.25
4648,3.0,,,,,,,52.0,,,,0,note_on,,0.0,52.0,0.0,213900,891.25
4649,3.0,,,,,,,60.0,,,,0,note_on,,0.0,60.0,0.0,213900,891.25
4650,3.0,,,,,,,48.0,,,,0,note_on,,70.0,48.0,70.0,213900,891.25
4651,3.0,,,,,,,52.0,,,,4,note_on,,70.0,52.0,70.0,213904,891.2666666666667
4652,3.0,,,,,,,55.0,,,,1,note_on,,70.0,55.0,70.0,213905,891.2708333333334
4653,3.0,,,,,,,60.0,,,,1,note_on,,70.0,60.0,70.0,213906,891.275
4654,3.0,,,,,,,64.0,,,,1,note_on,,70.0,64.0,70.0,213907,891.2791666666667
4655,3.0,,,,,,,64.0,,,,113,note_on,,0.0,64.0,0.0,214020,891.75
4656,3.0,,,,,,,55.0,,,,0,note_on,,0.0,55.0,0.0,214020,891.75
4657,3.0,,,,,,,60.0,,,,0,note_on,,0.0,60.0,0.0,214020,891.75
4658,3.0,,,,,,,55.0,,,,0,note_on,,70.0,55.0,70.0,214020,891.75
4659,3.0,,,,,,,60.0,,,,4,note_on,,70.0,60.0,70.0,214024,891.7666666666667
4660,3.0,,,,,,,64.0,,,,3,note_on,,70.0,64.0,70.0,214027,891.7791666666667
4661,3.0,,,,,,,64.0,,,,53,note_on,,0.0,64.0,0.0,214080,892.0
4662,3.0,,,,,,,55.0,,,,0,note_on,,0.0,55.0,0.0,214080,892.0
4663,3.0,,,,,,,48.0,,,,0,note_on,,0.0,48.0,0.0,214080,892.0
4664,3.0,,,,,,,52.0,,,,0,note_on,,0.0,52.0,0.0,214080,892.0
4665,3.0,,,,,,,60.0,,,,0,note_on,,0.0,60.0,0.0,214080,892.0
4666,3.0,,,,,,,41.0,,,,0,note_on,,70.0,41.0,70.0,214080,892.0
4667,3.0,,,,,,,45.0,,,,4,note_on,,70.0,45.0,70.0,214084,892.0166666666667
4668,3.0,,,,,,,57.0,,,,1,note_on,,70.0,57.0,70.0,214085,892.0208333333334
4669,3.0,,,,,,,48.0,,,,0,note_on,,70.0,48.0,70.0,214085,892.0208333333334
4670,3.0,,,,,,,60.0,,,,1,note_on,,70.0,60.0,70.0,214086,892.025
4671,3.0,,,,,,,65.0,,,,1,note_on,,70.0,65.0,70.0,214087,892.0291666666667
4672,3.0,,,,,,,65.0,,,,113,note_on,,0.0,65.0,0.0,214200,892.5
4673,3.0,,,,,,,57.0,,,,0,note_on,,0.0,57.0,0.0,214200,892.5
4674,3.0,,,,,,,60.0,,,,0,note_on,,0.0,60.0,0.0,214200,892.5
4675,3.0,,,,,,,57.0,,,,0,note_on,,70.0,57.0,70.0,214200,892.5
4676,3.0,,,,,,,60.0,,,,3,note_on,,70.0,60.0,70.0,214203,892.5124999999999
4677,3.0,,,,,,,65.0,,,,4,note_on,,70.0,65.0,70.0,214207,892.5291666666667
4678,3.0,,,,,,,60.0,,,,49,note_on,,0.0,60.0,0.0,214256,892.7333333333333
4679,3.0,,,,,,,48.0,,,,4,note_on,,0.0,48.0,0.0,214260,892.75
4680,3.0,,,,,,,41.0,,,,0,note_on,,0.0,41.0,0.0,214260,892.75
4681,3.0,,,,,,,45.0,,,,0,note_on,,0.0,45.0,0.0,214260,892.75
4682,3.0,,,,,,,65.0,,,,0,note_on,,0.0,65.0,0.0,214260,892.75
4683,3.0,,,,,,,57.0,,,,0,note_on,,0.0,57.0,0.0,214260,892.75
4684,3.0,,,,,,,43.0,,,,0,note_on,,70.0,43.0,70.0,214260,892.75
4685,3.0,,,,,,,47.0,,,,2,note_on,,70.0,47.0,70.0,214262,892.7583333333333
4686,3.0,,,,,,,50.0,,,,2,note_on,,70.0,50.0,70.0,214264,892.7666666666667
4687,3.0,,,,,,,55.0,,,,1,note_on,,70.0,55.0,70.0,214265,892.7708333333334
4688,3.0,,,,,,,59.0,,,,1,note_on,,70.0,59.0,70.0,214266,892.775
4689,3.0,,,,,,,67.0,,,,1,note_on,,70.0,67.0,70.0,214267,892.7791666666667
4690,3.0,,,,,,,67.0,,,,113,note_on,,0.0,67.0,0.0,214380,893.25
4691,3.0,,,,,,,55.0,,,,0,note_on,,0.0,55.0,0.0,214380,893.25
4692,3.0,,,,,,,59.0,,,,0,note_on,,0.0,59.0,0.0,214380,893.25
4693,3.0,,,,,,,55.0,,,,0,note_on,,70.0,55.0,70.0,214380,893.25
4694,3.0,,,,,,,59.0,,,,4,note_on,,70.0,59.0,70.0,214384,893.2666666666667
4695,3.0,,,,,,,67.0,,,,3,note_on,,70.0,67.0,70.0,214387,893.2791666666667
4696,3.0,,,,,,,67.0,,,,53,note_on,,0.0,67.0,0.0,214440,893.5
4697,3.0,,,,,,,50.0,,,,0,note_on,,0.0,50.0,0.0,214440,893.5
4698,3.0,,,,,,,43.0,,,,0,note_on,,0.0,43.0,0.0,214440,893.5
4699,3.0,,,,,,,47.0,,,,0,note_on,,0.0,47.0,0.0,214440,893.5
4700,3.0,,,,,,,59.0,,,,0,note_on,,0.0,59.0,0.0,214440,893.5
4701,3.0,,,,,,,55.0,,,,0,note_on,,0.0,55.0,0.0,214440,893.5
4702,3.0,,,,,,,45.0,,,,0,note_on,,70.0,45.0,70.0,214440,893.5
4703,3.0,,,,,,,52.0,,,,2,note_on,,70.0,52.0,70.0,214442,893.5083333333333
4704,3.0,,,,,,,57.0,,,,2,note_on,,70.0,57.0,70.0,214444,893.5166666666667
4705,3.0,,,,,,,60.0,,,,1,note_on,,70.0,60.0,70.0,214445,893.5208333333334
4706,3.0,,,,,,,64.0,,,,1,note_on,,70.0,64.0,70.0,214446,893.525
4707,3.0,,,,,,,64.0,,,,114,note_on,,0.0,64.0,0.0,214560,894.0
4708,3.0,,,,,,,60.0,,,,0,note_on,,0.0,60.0,0.0,214560,894.0
4709,3.0,,,,,,,57.0,,,,0,note_on,,70.0,57.0,70.0,214560,894.0
4710,3.0,,,,,,,60.0,,,,4,note_on,,70.0,60.0,70.0,214564,894.0166666666667
4711,3.0,,,,,,,64.0,,,,3,note_on,,70.0,64.0,70.0,214567,894.0291666666667
4712,3.0,,,,,,,64.0,,,,53,note_on,,0.0,64.0,0.0,214620,894.25
4713,3.0,,,,,,,52.0,,,,0,note_on,,0.0,52.0,0.0,214620,894.25
4714,3.0,,,,,,,45.0,,,,0,note_on,,0.0,45.0,0.0,214620,894.25
4715,3.0,,,,,,,57.0,,,,0,note_on,,0.0,57.0,0.0,214620,894.25
4716,3.0,,,,,,,60.0,,,,0,note_on,,0.0,60.0,0.0,214620,894.25
4717,3.0,,,,,,,57.0,,,,0,note_on,,0.0,57.0,0.0,214620,894.25
4718,3.0,,,,,,,45.0,,,,0,note_on,,70.0,45.0,70.0,214620,894.25
4719,3.0,,,,,,,52.0,,,,2,note_on,,70.0,52.0,70.0,214622,894.2583333333333
4720,3.0,,,,,,,57.0,,,,2,note_on,,70.0,57.0,70.0,214624,894.2666666666667
4721,3.0,,,,,,,60.0,,,,1,note_on,,70.0,60.0,70.0,214625,894.2708333333334
4722,3.0,,,,,,,64.0,,,,1,note_on,,70.0,64.0,70.0,214626,894.275
4723,3.0,,,,,,,64.0,,,,114,note_on,,0.0,64.0,0.0,214740,894.75
4724,3.0,,,,,,,60.0,,,,0,note_on,,0.0,60.0,0.0,214740,894.75
4725,3.0,,,,,,,57.0,,,,0,note_on,,70.0,57.0,70.0,214740,894.75
4726,3.0,,,,,,,60.0,,,,4,note_on,,70.0,60.0,70.0,214744,894.7666666666667
4727,3.0,,,,,,,64.0,,,,3,note_on,,70.0,64.0,70.0,214747,894.7791666666667
4728,3.0,,,,,,,64.0,,,,53,note_on,,0.0,64.0,0.0,214800,895.0
4729,3.0,,,,,,,52.0,,,,0,note_on,,0.0,52.0,0.0,214800,895.0
4730,3.0,,,,,,,45.0,,,,0,note_on,,0.0,45.0,0.0,214800,895.0
4731,3.0,,,,,,,57.0,,,,0,note_on,,0.0,57.0,0.0,214800,895.0
4732,3.0,,,,,,,60.0,,,,0,note_on,,0.0,60.0,0.0,214800,895.0
4733,3.0,,,,,,,57.0,,,,0,note_on,,0.0,57.0,0.0,214800,895.0
4734,3.0,,,,,,,41.0,,,,0,note_on,,70.0,41.0,70.0,214800,895.0
4735,3.0,,,,,,,45.0,,,,4,note_on,,70.0,45.0,70.0,214804,895.0166666666667
4736,3.0,,,,,,,57.0,,,,1,note_on,,70.0,57.0,70.0,214805,895.0208333333334
4737,3.0,,,,,,,48.0,,,,0,note_on,,70.0,48.0,70.0,214805,895.0208333333334
4738,3.0,,,,,,,60.0,,,,1,note_on,,70.0,60.0,70.0,214806,895.025
4739,3.0,,,,,,,65.0,,,,1,note_on,,70.0,65.0,70.0,214807,895.0291666666667
4740,3.0,,,,,,,65.0,,,,113,note_on,,0.0,65.0,0.0,214920,895.5
4741,3.0,,,,,,,57.0,,,,0,note_on,,0.0,57.0,0.0,214920,895.5
4742,3.0,,,,,,,60.0,,,,0,note_on,,0.0,60.0,0.0,214920,895.5
4743,3.0,,,,,,,57.0,,,,0,note_on,,70.0,57.0,70.0,214920,895.5
4744,3.0,,,,,,,60.0,,,,3,note_on,,70.0,60.0,70.0,214923,895.5124999999999
4745,3.0,,,,,,,65.0,,,,4,note_on,,70.0,65.0,70.0,214927,895.5291666666667
4746,3.0,,,,,,,60.0,,,,49,note_on,,0.0,60.0,0.0,214976,895.7333333333333
4747,3.0,,,,,,,48.0,,,,4,note_on,,0.0,48.0,0.0,214980,895.75
4748,3.0,,,,,,,41.0,,,,0,note_on,,0.0,41.0,0.0,214980,895.75
4749,3.0,,,,,,,45.0,,,,0,note_on,,0.0,45.0,0.0,214980,895.75
4750,3.0,,,,,,,65.0,,,,0,note_on,,0.0,65.0,0.0,214980,895.75
4751,3.0,,,,,,,57.0,,,,0,note_on,,0.0,57.0,0.0,214980,895.75
4752,3.0,,,,,,,41.0,,,,0,note_on,,70.0,41.0,70.0,214980,895.75
4753,3.0,,,,,,,45.0,,,,4,note_on,,70.0,45.0,70.0,214984,895.7666666666667
4754,3.0,,,,,,,57.0,,,,1,note_on,,70.0,57.0,70.0,214985,895.7708333333334
4755,3.0,,,,,,,48.0,,,,0,note_on,,70.0,48.0,70.0,214985,895.7708333333334
4756,3.0,,,,,,,60.0,,,,1,note_on,,70.0,60.0,70.0,214986,895.775
4757,3.0,,,,,,,65.0,,,,1,note_on,,70.0,65.0,70.0,214987,895.7791666666667
4758,3.0,,,,,,,65.0,,,,113,note_on,,0.0,65.0,0.0,215100,896.25
4759,3.0,,,,,,,57.0,,,,0,note_on,,0.0,57.0,0.0,215100,896.25
4760,3.0,,,,,,,60.0,,,,0,note_on,,0.0,60.0,0.0,215100,896.25
4761,3.0,,,,,,,57.0,,,,0,note_on,,70.0,57.0,70.0,215100,896.25
4762,3.0,,,,,,,60.0,,,,3,note_on,,70.0,60.0,70.0,215103,896.2624999999999
4763,3.0,,,,,,,65.0,,,,4,note_on,,70.0,65.0,70.0,215107,896.2791666666667
4764,3.0,,,,,,,60.0,,,,49,note_on,,0.0,60.0,0.0,215156,896.4833333333333
4765,3.0,,,,,,,48.0,,,,4,note_on,,0.0,48.0,0.0,215160,896.5
4766,3.0,,,,,,,41.0,,,,0,note_on,,0.0,41.0,0.0,215160,896.5
4767,3.0,,,,,,,45.0,,,,0,note_on,,0.0,45.0,0.0,215160,896.5
4768,3.0,,,,,,,65.0,,,,0,note_on,,0.0,65.0,0.0,215160,896.5
4769,3.0,,,,,,,57.0,,,,0,note_on,,0.0,57.0,0.0,215160,896.5
4770,3.0,,,,,,,43.0,,,,0,note_on,,70.0,43.0,70.0,215160,896.5
4771,3.0,,,,,,,47.0,,,,2,note_on,,70.0,47.0,70.0,215162,896.5083333333333
4772,3.0,,,,,,,50.0,,,,2,note_on,,70.0,50.0,70.0,215164,896.5166666666667
4773,3.0,,,,,,,55.0,,,,1,note_on,,70.0,55.0,70.0,215165,896.5208333333334
4774,3.0,,,,,,,59.0,,,,1,note_on,,70.0,59.0,70.0,215166,896.525
4775,3.0,,,,,,,67.0,,,,1,note_on,,70.0,67.0,70.0,215167,896.5291666666667
4776,3.0,,,,,,,67.0,,,,113,note_on,,0.0,67.0,0.0,215280,897.0
4777,3.0,,,,,,,55.0,,,,0,note_on,,0.0,55.0,0.0,215280,897.0
4778,3.0,,,,,,,59.0,,,,0,note_on,,0.0,59.0,0.0,215280,897.0
4779,3.0,,,,,,,55.0,,,,0,note_on,,70.0,55.0,70.0,215280,897.0
4780,3.0,,,,,,,59.0,,,,4,note_on,,70.0,59.0,70.0,215284,897.0166666666667
4781,3.0,,,,,,,67.0,,,,3,note_on,,70.0,67.0,70.0,215287,897.0291666666667
4782,3.0,,,,,,,67.0,,,,53,note_on,,0.0,67.0,0.0,215340,897.25
4783,3.0,,,,,,,50.0,,,,0,note_on,,0.0,50.0,0.0,215340,897.25
4784,3.0,,,,,,,43.0,,,,0,note_on,,0.0,43.0,0.0,215340,897.25
4785,3.0,,,,,,,47.0,,,,0,note_on,,0.0,47.0,0.0,215340,897.25
4786,3.0,,,,,,,59.0,,,,0,note_on,,0.0,59.0,0.0,215340,897.25
4787,3.0,,,,,,,55.0,,,,0,note_on,,0.0,55.0,0.0,215340,897.25
4788,3.0,,,,,,,43.0,,,,0,note_on,,70.0,43.0,70.0,215340,897.25
4789,3.0,,,,,,,47.0,,,,2,note_on,,70.0,47.0,70.0,215342,897.2583333333333
4790,3.0,,,,,,,50.0,,,,2,note_on,,70.0,50.0,70.0,215344,897.2666666666667
4791,3.0,,,,,,,55.0,,,,1,note_on,,70.0,55.0,70.0,215345,897.2708333333334
4792,3.0,,,,,,,59.0,,,,1,note_on,,70.0,59.0,70.0,215346,897.275
4793,3.0,,,,,,,67.0,,,,1,note_on,,70.0,67.0,70.0,215347,897.2791666666667
4794,3.0,,,,,,,67.0,,,,113,note_on,,0.0,67.0,0.0,215460,897.75
4795,3.0,,,,,,,55.0,,,,0,note_on,,0.0,55.0,0.0,215460,897.75
4796,3.0,,,,,,,59.0,,,,0,note_on,,0.0,59.0,0.0,215460,897.75
4797,3.0,,,,,,,55.0,,,,0,note_on,,70.0,55.0,70.0,215460,897.75
4798,3.0,,,,,,,59.0,,,,4,note_on,,70.0,59.0,70.0,215464,897.7666666666667
4799,3.0,,,,,,,67.0,,,,3,note_on,,70.0,67.0,70.0,215467,897.7791666666667
4800,3.0,,,,,,,67.0,,,,53,note_on,,0.0,67.0,0.0,215520,898.0
4801,3.0,,,,,,,50.0,,,,0,note_on,,0.0,50.0,0.0,215520,898.0
4802,3.0,,,,,,,43.0,,,,0,note_on,,0.0,43.0,0.0,215520,898.0
4803,3.0,,,,,,,47.0,,,,0,note_on,,0.0,47.0,0.0,215520,898.0
4804,3.0,,,,,,,59.0,,,,0,note_on,,0.0,59.0,0.0,215520,898.0
4805,3.0,,,,,,,55.0,,,,0,note_on,,0.0,55.0,0.0,215520,898.0
4806,3.0,,,,,,,40.0,,,,0,note_on,,70.0,40.0,70.0,215520,898.0
4807,3.0,,,,,,,47.0,,,,2,note_on,,70.0,47.0,70.0,215522,898.0083333333333
4808,3.0,,,,,,,52.0,,,,2,note_on,,70.0,52.0,70.0,215524,898.0166666666667
4809,3.0,,,,,,,55.0,,,,1,note_on,,70.0,55.0,70.0,215525,898.0208333333334
4810,3.0,,,,,,,59.0,,,,1,note_on,,70.0,59.0,70.0,215526,898.025
4811,3.0,,,,,,,64.0,,,,1,note_on,,70.0,64.0,70.0,215527,898.0291666666667
4812,3.0,,,,,,,64.0,,,,113,note_on,,0.0,64.0,0.0,215640,898.5
4813,3.0,,,,,,,55.0,,,,0,note_on,,0.0,55.0,0.0,215640,898.5
4814,3.0,,,,,,,59.0,,,,0,note_on,,0.0,59.0,0.0,215640,898.5
4815,3.0,,,,,,,55.0,,,,0,note_on,,70.0,55.0,70.0,215640,898.5
4816,3.0,,,,,,,59.0,,,,4,note_on,,70.0,59.0,70.0,215644,898.5166666666667
4817,3.0,,,,,,,64.0,,,,3,note_on,,70.0,64.0,70.0,215647,898.5291666666667
4818,3.0,,,,,,,64.0,,,,53,note_on,,0.0,64.0,0.0,215700,898.75
4819,3.0,,,,,,,52.0,,,,0,note_on,,0.0,52.0,0.0,215700,898.75
4820,3.0,,,,,,,40.0,,,,0,note_on,,0.0,40.0,0.0,215700,898.75
4821,3.0,,,,,,,47.0,,,,0,note_on,,0.0,47.0,0.0,215700,898.75
4822,3.0,,,,,,,59.0,,,,0,note_on,,0.0,59.0,0.0,215700,898.75
4823,3.0,,,,,,,55.0,,,,0,note_on,,0.0,55.0,0.0,215700,898.75
4824,3.0,,,,,,,40.0,,,,0,note_on,,70.0,40.0,70.0,215700,898.75
4825,3.0,,,,,,,47.0,,,,2,note_on,,70.0,47.0,70.0,215702,898.7583333333333
4826,3.0,,,,,,,52.0,,,,2,note_on,,70.0,52.0,70.0,215704,898.7666666666667
4827,3.0,,,,,,,55.0,,,,1,note_on,,70.0,55.0,70.0,215705,898.7708333333334
4828,3.0,,,,,,,59.0,,,,1,note_on,,70.0,59.0,70.0,215706,898.775
4829,3.0,,,,,,,64.0,,,,1,note_on,,70.0,64.0,70.0,215707,898.7791666666667
4830,3.0,,,,,,,64.0,,,,113,note_on,,0.0,64.0,0.0,215820,899.25
4831,3.0,,,,,,,55.0,,,,0,note_on,,0.0,55.0,0.0,215820,899.25
4832,3.0,,,,,,,59.0,,,,0,note_on,,0.0,59.0,0.0,215820,899.25
4833,3.0,,,,,,,55.0,,,,0,note_on,,70.0,55.0,70.0,215820,899.25
4834,3.0,,,,,,,59.0,,,,4,note_on,,70.0,59.0,70.0,215824,899.2666666666667
4835,3.0,,,,,,,64.0,,,,3,note_on,,70.0,64.0,70.0,215827,899.2791666666667
4836,3.0,,,,,,,64.0,,,,53,note_on,,0.0,64.0,0.0,215880,899.5
4837,3.0,,,,,,,52.0,,,,0,note_on,,0.0,52.0,0.0,215880,899.5
4838,3.0,,,,,,,40.0,,,,0,note_on,,0.0,40.0,0.0,215880,899.5
4839,3.0,,,,,,,47.0,,,,0,note_on,,0.0,47.0,0.0,215880,899.5
4840,3.0,,,,,,,59.0,,,,0,note_on,,0.0,59.0,0.0,215880,899.5
4841,3.0,,,,,,,55.0,,,,0,note_on,,0.0,55.0,0.0,215880,899.5
4842,3.0,,,,,,,45.0,,,,0,note_on,,70.0,45.0,70.0,215880,899.5
4843,3.0,,,,,,,52.0,,,,2,note_on,,70.0,52.0,70.0,215882,899.5083333333333
4844,3.0,,,,,,,57.0,,,,2,note_on,,70.0,57.0,70.0,215884,899.5166666666667
4845,3.0,,,,,,,60.0,,,,1,note_on,,70.0,60.0,70.0,215885,899.5208333333334
4846,3.0,,,,,,,64.0,,,,1,note_on,,70.0,64.0,70.0,215886,899.525
4847,3.0,,,,,,,64.0,,,,114,note_on,,0.0,64.0,0.0,216000,900.0
4848,3.0,,,,,,,60.0,,,,0,note_on,,0.0,60.0,0.0,216000,900.0
4849,3.0,,,,,,,57.0,,,,0,note_on,,70.0,57.0,70.0,216000,900.0
4850,3.0,,,,,,,60.0,,,,4,note_on,,70.0,60.0,70.0,216004,900.0166666666667
4851,3.0,,,,,,,64.0,,,,3,note_on,,70.0,64.0,70.0,216007,900.0291666666667
4852,3.0,,,,,,,64.0,,,,53,note_on,,0.0,64.0,0.0,216060,900.25
4853,3.0,,,,,,,52.0,,,,0,note_on,,0.0,52.0,0.0,216060,900.25
4854,3.0,,,,,,,45.0,,,,0,note_on,,0.0,45.0,0.0,216060,900.25
4855,3.0,,,,,,,57.0,,,,0,note_on,,0.0,57.0,0.0,216060,900.25
4856,3.0,,,,,,,60.0,,,,0,note_on,,0.0,60.0,0.0,216060,900.25
4857,3.0,,,,,,,57.0,,,,0,note_on,,0.0,57.0,0.0,216060,900.25
4858,3.0,,,,,,,45.0,,,,0,note_on,,70.0,45.0,70.0,216060,900.25
4859,3.0,,,,,,,52.0,,,,2,note_on,,70.0,52.0,70.0,216062,900.2583333333333
4860,3.0,,,,,,,57.0,,,,2,note_on,,70.0,57.0,70.0,216064,900.2666666666667
4861,3.0,,,,,,,60.0,,,,1,note_on,,70.0,60.0,70.0,216065,900.2708333333334
4862,3.0,,,,,,,64.0,,,,1,note_on,,70.0,64.0,70.0,216066,900.275
4863,3.0,,,,,,,64.0,,,,114,note_on,,0.0,64.0,0.0,216180,900.75
4864,3.0,,,,,,,60.0,,,,0,note_on,,0.0,60.0,0.0,216180,900.75
4865,3.0,,,,,,,57.0,,,,0,note_on,,70.0,57.0,70.0,216180,900.75
4866,3.0,,,,,,,60.0,,,,4,note_on,,70.0,60.0,70.0,216184,900.7666666666667
4867,3.0,,,,,,,64.0,,,,3,note_on,,70.0,64.0,70.0,216187,900.7791666666667
4868,3.0,,,,,,,64.0,,,,53,note_on,,0.0,64.0,0.0,216240,901.0
4869,3.0,,,,,,,52.0,,,,0,note_on,,0.0,52.0,0.0,216240,901.0
4870,3.0,,,,,,,45.0,,,,0,note_on,,0.0,45.0,0.0,216240,901.0
4871,3.0,,,,,,,57.0,,,,0,note_on,,0.0,57.0,0.0,216240,901.0
4872,3.0,,,,,,,60.0,,,,0,note_on,,0.0,60.0,0.0,216240,901.0
4873,3.0,,,,,,,57.0,,,,0,note_on,,0.0,57.0,0.0,216240,901.0
4874,3.0,,,,,,,45.0,,,,0,note_on,,70.0,45.0,70.0,216240,901.0
4875,3.0,,,,,,,52.0,,,,2,note_on,,70.0,52.0,70.0,216242,901.0083333333333
4876,3.0,,,,,,,57.0,,,,2,note_on,,70.0,57.0,70.0,216244,901.0166666666667
4877,3.0,,,,,,,60.0,,,,1,note_on,,70.0,60.0,70.0,216245,901.0208333333334
4878,3.0,,,,,,,64.0,,,,1,note_on,,70.0,64.0,70.0,216246,901.025
4879,3.0,,,,,,,64.0,,,,114,note_on,,0.0,64.0,0.0,216360,901.5
4880,3.0,,,,,,,60.0,,,,0,note_on,,0.0,60.0,0.0,216360,901.5
4881,3.0,,,,,,,57.0,,,,0,note_on,,70.0,57.0,70.0,216360,901.5
4882,3.0,,,,,,,60.0,,,,4,note_on,,70.0,60.0,70.0,216364,901.5166666666667
4883,3.0,,,,,,,64.0,,,,3,note_on,,70.0,64.0,70.0,216367,901.5291666666667
4884,3.0,,,,,,,64.0,,,,53,note_on,,0.0,64.0,0.0,216420,901.75
4885,3.0,,,,,,,52.0,,,,0,note_on,,0.0,52.0,0.0,216420,901.75
4886,3.0,,,,,,,45.0,,,,0,note_on,,0.0,45.0,0.0,216420,901.75
4887,3.0,,,,,,,57.0,,,,0,note_on,,0.0,57.0,0.0,216420,901.75
4888,3.0,,,,,,,60.0,,,,0,note_on,,0.0,60.0,0.0,216420,901.75
4889,3.0,,,,,,,57.0,,,,0,note_on,,0.0,57.0,0.0,216420,901.75
4890,3.0,,,,,,,45.0,,,,0,note_on,,70.0,45.0,70.0,216420,901.75
4891,3.0,,,,,,,52.0,,,,2,note_on,,70.0,52.0,70.0,216422,901.7583333333333
4892,3.0,,,,,,,57.0,,,,2,note_on,,70.0,57.0,70.0,216424,901.7666666666667
4893,3.0,,,,,,,60.0,,,,1,note_on,,70.0,60.0,70.0,216425,901.7708333333334
4894,3.0,,,,,,,64.0,,,,1,note_on,,70.0,64.0,70.0,216426,901.775
4895,3.0,,,,,,,64.0,,,,114,note_on,,0.0,64.0,0.0,216540,902.25
4896,3.0,,,,,,,60.0,,,,0,note_on,,0.0,60.0,0.0,216540,902.25
4897,3.0,,,,,,,57.0,,,,0,note_on,,70.0,57.0,70.0,216540,902.25
4898,3.0,,,,,,,60.0,,,,4,note_on,,70.0,60.0,70.0,216544,902.2666666666667
4899,3.0,,,,,,,64.0,,,,3,note_on,,70.0,64.0,70.0,216547,902.2791666666667
4900,3.0,,,,,,,64.0,,,,53,note_on,,0.0,64.0,0.0,216600,902.5
4901,3.0,,,,,,,52.0,,,,0,note_on,,0.0,52.0,0.0,216600,902.5
4902,3.0,,,,,,,45.0,,,,0,note_on,,0.0,45.0,0.0,216600,902.5
4903,3.0,,,,,,,57.0,,,,0,note_on,,0.0,57.0,0.0,216600,902.5
4904,3.0,,,,,,,60.0,,,,0,note_on,,0.0,60.0,0.0,216600,902.5
4905,3.0,,,,,,,57.0,,,,0,note_on,,0.0,57.0,0.0,216600,902.5
4906,3.0,,,,,,,41.0,,,,0,note_on,,70.0,41.0,70.0,216600,902.5
4907,3.0,,,,,,,45.0,,,,4,note_on,,70.0,45.0,70.0,216604,902.5166666666667
4908,3.0,,,,,,,57.0,,,,1,note_on,,70.0,57.0,70.0,216605,902.5208333333334
4909,3.0,,,,,,,48.0,,,,0,note_on,,70.0,48.0,70.0,216605,902.5208333333334
4910,3.0,,,,,,,60.0,,,,1,note_on,,70.0,60.0,70.0,216606,902.525
4911,3.0,,,,,,,65.0,,,,1,note_on,,70.0,65.0,70.0,216607,902.5291666666667
4912,3.0,,,,,,,65.0,,,,113,note_on,,0.0,65.0,0.0,216720,903.0
4913,3.0,,,,,,,57.0,,,,0,note_on,,0.0,57.0,0.0,216720,903.0
4914,3.0,,,,,,,60.0,,,,0,note_on,,0.0,60.0,0.0,216720,903.0
4915,3.0,,,,,,,57.0,,,,0,note_on,,70.0,57.0,70.0,216720,903.0
4916,3.0,,,,,,,60.0,,,,3,note_on,,70.0,60.0,70.0,216723,903.0124999999999
4917,3.0,,,,,,,65.0,,,,4,note_on,,70.0,65.0,70.0,216727,903.0291666666667
4918,3.0,,,,,,,60.0,,,,49,note_on,,0.0,60.0,0.0,216776,903.2333333333333
4919,3.0,,,,,,,48.0,,,,4,note_on,,0.0,48.0,0.0,216780,903.25
4920,3.0,,,,,,,41.0,,,,0,note_on,,0.0,41.0,0.0,216780,903.25
4921,3.0,,,,,,,45.0,,,,0,note_on,,0.0,45.0,0.0,216780,903.25
4922,3.0,,,,,,,65.0,,,,0,note_on,,0.0,65.0,0.0,216780,903.25
4923,3.0,,,,,,,57.0,,,,0,note_on,,0.0,57.0,0.0,216780,903.25
4924,3.0,,,,,,,41.0,,,,0,note_on,,70.0,41.0,70.0,216780,903.25
4925,3.0,,,,,,,45.0,,,,4,note_on,,70.0,45.0,70.0,216784,903.2666666666667
4926,3.0,,,,,,,57.0,,,,1,note_on,,70.0,57.0,70.0,216785,903.2708333333334
4927,3.0,,,,,,,48.0,,,,0,note_on,,70.0,48.0,70.0,216785,903.2708333333334
4928,3.0,,,,,,,60.0,,,,1,note_on,,70.0,60.0,70.0,216786,903.275
4929,3.0,,,,,,,65.0,,,,1,note_on,,70.0,65.0,70.0,216787,903.2791666666667
4930,3.0,,,,,,,65.0,,,,113,note_on,,0.0,65.0,0.0,216900,903.75
4931,3.0,,,,,,,57.0,,,,0,note_on,,0.0,57.0,0.0,216900,903.75
4932,3.0,,,,,,,60.0,,,,0,note_on,,0.0,60.0,0.0,216900,903.75
4933,3.0,,,,,,,57.0,,,,0,note_on,,70.0,57.0,70.0,216900,903.75
4934,3.0,,,,,,,60.0,,,,3,note_on,,70.0,60.0,70.0,216903,903.7624999999999
4935,3.0,,,,,,,65.0,,,,4,note_on,,70.0,65.0,70.0,216907,903.7791666666667
4936,3.0,,,,,,,60.0,,,,49,note_on,,0.0,60.0,0.0,216956,903.9833333333333
4937,3.0,,,,,,,48.0,,,,4,note_on,,0.0,48.0,0.0,216960,904.0
4938,3.0,,,,,,,41.0,,,,0,note_on,,0.0,41.0,0.0,216960,904.0
4939,3.0,,,,,,,45.0,,,,0,note_on,,0.0,45.0,0.0,216960,904.0
4940,3.0,,,,,,,65.0,,,,0,note_on,,0.0,65.0,0.0,216960,904.0
4941,3.0,,,,,,,57.0,,,,0,note_on,,0.0,57.0,0.0,216960,904.0
4942,3.0,,,,,,,41.0,,,,0,note_on,,70.0,41.0,70.0,216960,904.0
4943,3.0,,,,,,,45.0,,,,4,note_on,,70.0,45.0,70.0,216964,904.0166666666667
4944,3.0,,,,,,,57.0,,,,1,note_on,,70.0,57.0,70.0,216965,904.0208333333334
4945,3.0,,,,,,,48.0,,,,0,note_on,,70.0,48.0,70.0,216965,904.0208333333334
4946,3.0,,,,,,,60.0,,,,1,note_on,,70.0,60.0,70.0,216966,904.025
4947,3.0,,,,,,,65.0,,,,1,note_on,,70.0,65.0,70.0,216967,904.0291666666667
4948,3.0,,,,,,,65.0,,,,113,note_on,,0.0,65.0,0.0,217080,904.5
4949,3.0,,,,,,,57.0,,,,0,note_on,,0.0,57.0,0.0,217080,904.5
4950,3.0,,,,,,,60.0,,,,0,note_on,,0.0,60.0,0.0,217080,904.5
4951,3.0,,,,,,,57.0,,,,0,note_on,,70.0,57.0,70.0,217080,904.5
4952,3.0,,,,,,,60.0,,,,3,note_on,,70.0,60.0,70.0,217083,904.5124999999999
4953,3.0,,,,,,,65.0,,,,4,note_on,,70.0,65.0,70.0,217087,904.5291666666667
4954,3.0,,,,,,,60.0,,,,49,note_on,,0.0,60.0,0.0,217136,904.7333333333333
4955,3.0,,,,,,,48.0,,,,4,note_on,,0.0,48.0,0.0,217140,904.75
4956,3.0,,,,,,,41.0,,,,0,note_on,,0.0,41.0,0.0,217140,904.75
4957,3.0,,,,,,,45.0,,,,0,note_on,,0.0,45.0,0.0,217140,904.75
4958,3.0,,,,,,,65.0,,,,0,note_on,,0.0,65.0,0.0,217140,904.75
4959,3.0,,,,,,,57.0,,,,0,note_on,,0.0,57.0,0.0,217140,904.75
4960,3.0,,,,,,,41.0,,,,0,note_on,,70.0,41.0,70.0,217140,904.75
4961,3.0,,,,,,,45.0,,,,4,note_on,,70.0,45.0,70.0,217144,904.7666666666667
4962,3.0,,,,,,,57.0,,,,1,note_on,,70.0,57.0,70.0,217145,904.7708333333334
4963,3.0,,,,,,,48.0,,,,0,note_on,,70.0,48.0,70.0,217145,904.7708333333334
4964,3.0,,,,,,,60.0,,,,1,note_on,,70.0,60.0,70.0,217146,904.775
4965,3.0,,,,,,,65.0,,,,1,note_on,,70.0,65.0,70.0,217147,904.7791666666667
4966,3.0,,,,,,,65.0,,,,113,note_on,,0.0,65.0,0.0,217260,905.25
4967,3.0,,,,,,,57.0,,,,0,note_on,,0.0,57.0,0.0,217260,905.25
4968,3.0,,,,,,,60.0,,,,0,note_on,,0.0,60.0,0.0,217260,905.25
4969,3.0,,,,,,,57.0,,,,0,note_on,,70.0,57.0,70.0,217260,905.25
4970,3.0,,,,,,,60.0,,,,3,note_on,,70.0,60.0,70.0,217263,905.2624999999999
4971,3.0,,,,,,,65.0,,,,4,note_on,,70.0,65.0,70.0,217267,905.2791666666667
4972,3.0,,,,,,,60.0,,,,49,note_on,,0.0,60.0,0.0,217316,905.4833333333333
4973,3.0,,,,,,,48.0,,,,4,note_on,,0.0,48.0,0.0,217320,905.5
4974,3.0,,,,,,,41.0,,,,0,note_on,,0.0,41.0,0.0,217320,905.5
4975,3.0,,,,,,,45.0,,,,0,note_on,,0.0,45.0,0.0,217320,905.5
4976,3.0,,,,,,,65.0,,,,0,note_on,,0.0,65.0,0.0,217320,905.5
4977,3.0,,,,,,,57.0,,,,0,note_on,,0.0,57.0,0.0,217320,905.5
4978,3.0,,,,,,,45.0,,,,0,note_on,,70.0,45.0,70.0,217320,905.5
4979,3.0,,,,,,,52.0,,,,2,note_on,,70.0,52.0,70.0,217322,905.5083333333333
4980,3.0,,,,,,,57.0,,,,2,note_on,,70.0,57.0,70.0,217324,905.5166666666667
4981,3.0,,,,,,,60.0,,,,1,note_on,,70.0,60.0,70.0,217325,905.5208333333334
4982,3.0,,,,,,,64.0,,,,1,note_on,,70.0,64.0,70.0,217326,905.525
4983,3.0,,,,,,,64.0,,,,114,note_on,,0.0,64.0,0.0,217440,906.0
4984,3.0,,,,,,,60.0,,,,0,note_on,,0.0,60.0,0.0,217440,906.0
4985,3.0,,,,,,,57.0,,,,0,note_on,,70.0,57.0,70.0,217440,906.0
4986,3.0,,,,,,,60.0,,,,4,note_on,,70.0,60.0,70.0,217444,906.0166666666667
4987,3.0,,,,,,,64.0,,,,3,note_on,,70.0,64.0,70.0,217447,906.0291666666667
4988,3.0,,,,,,,64.0,,,,53,note_on,,0.0,64.0,0.0,217500,906.25
4989,3.0,,,,,,,52.0,,,,0,note_on,,0.0,52.0,0.0,217500,906.25
4990,3.0,,,,,,,45.0,,,,0,note_on,,0.0,45.0,0.0,217500,906.25
4991,3.0,,,,,,,57.0,,,,0,note_on,,0.0,57.0,0.0,217500,906.25
4992,3.0,,,,,,,60.0,,,,0,note_on,,0.0,60.0,0.0,217500,906.25
4993,3.0,,,,,,,57.0,,,,0,note_on,,0.0,57.0,0.0,217500,906.25
4994,3.0,,,,,,,45.0,,,,0,note_on,,70.0,45.0,70.0,217500,906.25
4995,3.0,,,,,,,52.0,,,,2,note_on,,70.0,52.0,70.0,217502,906.2583333333333
4996,3.0,,,,,,,57.0,,,,2,note_on,,70.0,57.0,70.0,217504,906.2666666666667
4997,3.0,,,,,,,60.0,,,,1,note_on,,70.0,60.0,70.0,217505,906.2708333333334
4998,3.0,,,,,,,64.0,,,,1,note_on,,70.0,64.0,70.0,217506,906.275
4999,3.0,,,,,,,64.0,,,,114,note_on,,0.0,64.0,0.0,217620,906.75
5000,3.0,,,,,,,60.0,,,,0,note_on,,0.0,60.0,0.0,217620,906.75
5001,3.0,,,,,,,57.0,,,,0,note_on,,70.0,57.0,70.0,217620,906.75
5002,3.0,,,,,,,60.0,,,,4,note_on,,70.0,60.0,70.0,217624,906.7666666666667
5003,3.0,,,,,,,64.0,,,,3,note_on,,70.0,64.0,70.0,217627,906.7791666666667
5004,3.0,,,,,,,64.0,,,,53,note_on,,0.0,64.0,0.0,217680,907.0
5005,3.0,,,,,,,52.0,,,,0,note_on,,0.0,52.0,0.0,217680,907.0
5006,3.0,,,,,,,45.0,,,,0,note_on,,0.0,45.0,0.0,217680,907.0
5007,3.0,,,,,,,57.0,,,,0,note_on,,0.0,57.0,0.0,217680,907.0
5008,3.0,,,,,,,60.0,,,,0,note_on,,0.0,60.0,0.0,217680,907.0
5009,3.0,,,,,,,57.0,,,,0,note_on,,0.0,57.0,0.0,217680,907.0
5010,3.0,,,,,,,45.0,,,,0,note_on,,70.0,45.0,70.0,217680,907.0
5011,3.0,,,,,,,52.0,,,,2,note_on,,70.0,52.0,70.0,217682,907.0083333333333
5012,3.0,,,,,,,57.0,,,,2,note_on,,70.0,57.0,70.0,217684,907.0166666666667
5013,3.0,,,,,,,60.0,,,,1,note_on,,70.0,60.0,70.0,217685,907.0208333333334
5014,3.0,,,,,,,64.0,,,,1,note_on,,70.0,64.0,70.0,217686,907.025
5015,3.0,,,,,,,64.0,,,,114,note_on,,0.0,64.0,0.0,217800,907.5
5016,3.0,,,,,,,60.0,,,,0,note_on,,0.0,60.0,0.0,217800,907.5
5017,3.0,,,,,,,57.0,,,,0,note_on,,70.0,57.0,70.0,217800,907.5
5018,3.0,,,,,,,60.0,,,,4,note_on,,70.0,60.0,70.0,217804,907.5166666666667
5019,3.0,,,,,,,64.0,,,,3,note_on,,70.0,64.0,70.0,217807,907.5291666666667
5020,3.0,,,,,,,64.0,,,,53,note_on,,0.0,64.0,0.0,217860,907.75
5021,3.0,,,,,,,52.0,,,,0,note_on,,0.0,52.0,0.0,217860,907.75
5022,3.0,,,,,,,45.0,,,,0,note_on,,0.0,45.0,0.0,217860,907.75
5023,3.0,,,,,,,57.0,,,,0,note_on,,0.0,57.0,0.0,217860,907.75
5024,3.0,,,,,,,60.0,,,,0,note_on,,0.0,60.0,0.0,217860,907.75
5025,3.0,,,,,,,57.0,,,,0,note_on,,0.0,57.0,0.0,217860,907.75
5026,3.0,,,,,,,45.0,,,,0,note_on,,70.0,45.0,70.0,217860,907.75
5027,3.0,,,,,,,52.0,,,,2,note_on,,70.0,52.0,70.0,217862,907.7583333333333
5028,3.0,,,,,,,57.0,,,,2,note_on,,70.0,57.0,70.0,217864,907.7666666666667
5029,3.0,,,,,,,60.0,,,,1,note_on,,70.0,60.0,70.0,217865,907.7708333333334
5030,3.0,,,,,,,64.0,,,,1,note_on,,70.0,64.0,70.0,217866,907.775
5031,3.0,,,,,,,64.0,,,,114,note_on,,0.0,64.0,0.0,217980,908.25
5032,3.0,,,,,,,60.0,,,,0,note_on,,0.0,60.0,0.0,217980,908.25
5033,3.0,,,,,,,57.0,,,,0,note_on,,70.0,57.0,70.0,217980,908.25
5034,3.0,,,,,,,60.0,,,,4,note_on,,70.0,60.0,70.0,217984,908.2666666666667
5035,3.0,,,,,,,64.0,,,,3,note_on,,70.0,64.0,70.0,217987,908.2791666666667
5036,3.0,,,,,,,64.0,,,,53,note_on,,0.0,64.0,0.0,218040,908.5
5037,3.0,,,,,,,52.0,,,,0,note_on,,0.0,52.0,0.0,218040,908.5
5038,3.0,,,,,,,45.0,,,,0,note_on,,0.0,45.0,0.0,218040,908.5
5039,3.0,,,,,,,57.0,,,,0,note_on,,0.0,57.0,0.0,218040,908.5
5040,3.0,,,,,,,60.0,,,,0,note_on,,0.0,60.0,0.0,218040,908.5
5041,3.0,,,,,,,57.0,,,,0,note_on,,0.0,57.0,0.0,218040,908.5
5042,3.0,,,,,,,41.0,,,,0,note_on,,70.0,41.0,70.0,218040,908.5
5043,3.0,,,,,,,45.0,,,,4,note_on,,70.0,45.0,70.0,218044,908.5166666666667
5044,3.0,,,,,,,57.0,,,,1,note_on,,70.0,57.0,70.0,218045,908.5208333333334
5045,3.0,,,,,,,48.0,,,,0,note_on,,70.0,48.0,70.0,218045,908.5208333333334
5046,3.0,,,,,,,60.0,,,,1,note_on,,70.0,60.0,70.0,218046,908.525
5047,3.0,,,,,,,65.0,,,,1,note_on,,70.0,65.0,70.0,218047,908.5291666666667
5048,3.0,,,,,,,65.0,,,,113,note_on,,0.0,65.0,0.0,218160,909.0
5049,3.0,,,,,,,57.0,,,,0,note_on,,0.0,57.0,0.0,218160,909.0
5050,3.0,,,,,,,60.0,,,,0,note_on,,0.0,60.0,0.0,218160,909.0
5051,3.0,,,,,,,57.0,,,,0,note_on,,70.0,57.0,70.0,218160,909.0
5052,3.0,,,,,,,60.0,,,,3,note_on,,70.0,60.0,70.0,218163,909.0124999999999
5053,3.0,,,,,,,65.0,,,,4,note_on,,70.0,65.0,70.0,218167,909.0291666666667
5054,3.0,,,,,,,60.0,,,,49,note_on,,0.0,60.0,0.0,218216,909.2333333333333
5055,3.0,,,,,,,48.0,,,,4,note_on,,0.0,48.0,0.0,218220,909.25
5056,3.0,,,,,,,41.0,,,,0,note_on,,0.0,41.0,0.0,218220,909.25
5057,3.0,,,,,,,45.0,,,,0,note_on,,0.0,45.0,0.0,218220,909.25
5058,3.0,,,,,,,65.0,,,,0,note_on,,0.0,65.0,0.0,218220,909.25
5059,3.0,,,,,,,57.0,,,,0,note_on,,0.0,57.0,0.0,218220,909.25
5060,3.0,,,,,,,41.0,,,,0,note_on,,70.0,41.0,70.0,218220,909.25
5061,3.0,,,,,,,45.0,,,,4,note_on,,70.0,45.0,70.0,218224,909.2666666666667
5062,3.0,,,,,,,57.0,,,,1,note_on,,70.0,57.0,70.0,218225,909.2708333333334
5063,3.0,,,,,,,48.0,,,,0,note_on,,70.0,48.0,70.0,218225,909.2708333333334
5064,3.0,,,,,,,60.0,,,,1,note_on,,70.0,60.0,70.0,218226,909.275
5065,3.0,,,,,,,65.0,,,,1,note_on,,70.0,65.0,70.0,218227,909.2791666666667
5066,3.0,,,,,,,65.0,,,,113,note_on,,0.0,65.0,0.0,218340,909.75
5067,3.0,,,,,,,57.0,,,,0,note_on,,0.0,57.0,0.0,218340,909.75
5068,3.0,,,,,,,60.0,,,,0,note_on,,0.0,60.0,0.0,218340,909.75
5069,3.0,,,,,,,57.0,,,,0,note_on,,70.0,57.0,70.0,218340,909.75
5070,3.0,,,,,,,60.0,,,,3,note_on,,70.0,60.0,70.0,218343,909.7624999999999
5071,3.0,,,,,,,65.0,,,,4,note_on,,70.0,65.0,70.0,218347,909.7791666666667
5072,3.0,,,,,,,60.0,,,,49,note_on,,0.0,60.0,0.0,218396,909.9833333333333
5073,3.0,,,,,,,48.0,,,,4,note_on,,0.0,48.0,0.0,218400,910.0
5074,3.0,,,,,,,41.0,,,,0,note_on,,0.0,41.0,0.0,218400,910.0
5075,3.0,,,,,,,45.0,,,,0,note_on,,0.0,45.0,0.0,218400,910.0
5076,3.0,,,,,,,65.0,,,,0,note_on,,0.0,65.0,0.0,218400,910.0
5077,3.0,,,,,,,57.0,,,,0,note_on,,0.0,57.0,0.0,218400,910.0
5078,3.0,,,,,,,41.0,,,,0,note_on,,70.0,41.0,70.0,218400,910.0
5079,3.0,,,,,,,45.0,,,,4,note_on,,70.0,45.0,70.0,218404,910.0166666666667
5080,3.0,,,,,,,57.0,,,,1,note_on,,70.0,57.0,70.0,218405,910.0208333333334
5081,3.0,,,,,,,48.0,,,,0,note_on,,70.0,48.0,70.0,218405,910.0208333333334
5082,3.0,,,,,,,60.0,,,,1,note_on,,70.0,60.0,70.0,218406,910.025
5083,3.0,,,,,,,65.0,,,,1,note_on,,70.0,65.0,70.0,218407,910.0291666666667
5084,3.0,,,,,,,65.0,,,,113,note_on,,0.0,65.0,0.0,218520,910.5
5085,3.0,,,,,,,57.0,,,,0,note_on,,0.0,57.0,0.0,218520,910.5
5086,3.0,,,,,,,60.0,,,,0,note_on,,0.0,60.0,0.0,218520,910.5
5087,3.0,,,,,,,57.0,,,,0,note_on,,70.0,57.0,70.0,218520,910.5
5088,3.0,,,,,,,60.0,,,,3,note_on,,70.0,60.0,70.0,218523,910.5124999999999
5089,3.0,,,,,,,65.0,,,,4,note_on,,70.0,65.0,70.0,218527,910.5291666666667
5090,3.0,,,,,,,60.0,,,,49,note_on,,0.0,60.0,0.0,218576,910.7333333333333
5091,3.0,,,,,,,48.0,,,,4,note_on,,0.0,48.0,0.0,218580,910.75
5092,3.0,,,,,,,41.0,,,,0,note_on,,0.0,41.0,0.0,218580,910.75
5093,3.0,,,,,,,45.0,,,,0,note_on,,0.0,45.0,0.0,218580,910.75
5094,3.0,,,,,,,65.0,,,,0,note_on,,0.0,65.0,0.0,218580,910.75
5095,3.0,,,,,,,57.0,,,,0,note_on,,0.0,57.0,0.0,218580,910.75
5096,3.0,,,,,,,41.0,,,,0,note_on,,70.0,41.0,70.0,218580,910.75
5097,3.0,,,,,,,45.0,,,,4,note_on,,70.0,45.0,70.0,218584,910.7666666666667
5098,3.0,,,,,,,57.0,,,,1,note_on,,70.0,57.0,70.0,218585,910.7708333333334
5099,3.0,,,,,,,48.0,,,,0,note_on,,70.0,48.0,70.0,218585,910.7708333333334
5100,3.0,,,,,,,60.0,,,,1,note_on,,70.0,60.0,70.0,218586,910.775
5101,3.0,,,,,,,65.0,,,,1,note_on,,70.0,65.0,70.0,218587,910.7791666666667
5102,3.0,,,,,,,65.0,,,,113,note_on,,0.0,65.0,0.0,218700,911.25
5103,3.0,,,,,,,57.0,,,,0,note_on,,0.0,57.0,0.0,218700,911.25
5104,3.0,,,,,,,60.0,,,,0,note_on,,0.0,60.0,0.0,218700,911.25
5105,3.0,,,,,,,57.0,,,,0,note_on,,70.0,57.0,70.0,218700,911.25
5106,3.0,,,,,,,60.0,,,,3,note_on,,70.0,60.0,70.0,218703,911.2624999999999
5107,3.0,,,,,,,65.0,,,,4,note_on,,70.0,65.0,70.0,218707,911.2791666666667
5108,3.0,,,,,,,60.0,,,,49,note_on,,0.0,60.0,0.0,218756,911.4833333333333
5109,3.0,,,,,,,48.0,,,,4,note_on,,0.0,48.0,0.0,218760,911.5
5110,3.0,,,,,,,41.0,,,,0,note_on,,0.0,41.0,0.0,218760,911.5
5111,3.0,,,,,,,45.0,,,,0,note_on,,0.0,45.0,0.0,218760,911.5
5112,3.0,,,,,,,65.0,,,,0,note_on,,0.0,65.0,0.0,218760,911.5
5113,3.0,,,,,,,57.0,,,,0,note_on,,0.0,57.0,0.0,218760,911.5
5114,3.0,,,,,,,48.0,,,,0,note_on,,70.0,48.0,70.0,218760,911.5
5115,3.0,,,,,,,52.0,,,,4,note_on,,70.0,52.0,70.0,218764,911.5166666666667
5116,3.0,,,,,,,55.0,,,,1,note_on,,70.0,55.0,70.0,218765,911.5208333333334
5117,3.0,,,,,,,60.0,,,,1,note_on,,70.0,60.0,70.0,218766,911.525
5118,3.0,,,,,,,64.0,,,,1,note_on,,70.0,64.0,70.0,218767,911.5291666666667
5119,3.0,,,,,,,64.0,,,,113,note_on,,0.0,64.0,0.0,218880,912.0
5120,3.0,,,,,,,55.0,,,,0,note_on,,0.0,55.0,0.0,218880,912.0
5121,3.0,,,,,,,60.0,,,,0,note_on,,0.0,60.0,0.0,218880,912.0
5122,3.0,,,,,,,55.0,,,,0,note_on,,70.0,55.0,70.0,218880,912.0
5123,3.0,,,,,,,60.0,,,,4,note_on,,70.0,60.0,70.0,218884,912.0166666666667
5124,3.0,,,,,,,64.0,,,,3,note_on,,70.0,64.0,70.0,218887,912.0291666666667
5125,3.0,,,,,,,64.0,,,,53,note_on,,0.0,64.0,0.0,218940,912.25
5126,3.0,,,,,,,55.0,,,,0,note_on,,0.0,55.0,0.0,218940,912.25
5127,3.0,,,,,,,48.0,,,,0,note_on,,0.0,48.0,0.0,218940,912.25
5128,3.0,,,,,,,52.0,,,,0,note_on,,0.0,52.0,0.0,218940,912.25
5129,3.0,,,,,,,60.0,,,,0,note_on,,0.0,60.0,0.0,218940,912.25
5130,3.0,,,,,,,48.0,,,,0,note_on,,70.0,48.0,70.0,218940,912.25
5131,3.0,,,,,,,52.0,,,,4,note_on,,70.0,52.0,70.0,218944,912.2666666666667
5132,3.0,,,,,,,55.0,,,,1,note_on,,70.0,55.0,70.0,218945,912.2708333333334
5133,3.0,,,,,,,60.0,,,,1,note_on,,70.0,60.0,70.0,218946,912.275
5134,3.0,,,,,,,64.0,,,,1,note_on,,70.0,64.0,70.0,218947,912.2791666666667
5135,3.0,,,,,,,64.0,,,,113,note_on,,0.0,64.0,0.0,219060,912.75
5136,3.0,,,,,,,55.0,,,,0,note_on,,0.0,55.0,0.0,219060,912.75
5137,3.0,,,,,,,60.0,,,,0,note_on,,0.0,60.0,0.0,219060,912.75
5138,3.0,,,,,,,55.0,,,,0,note_on,,70.0,55.0,70.0,219060,912.75
5139,3.0,,,,,,,60.0,,,,4,note_on,,70.0,60.0,70.0,219064,912.7666666666667
5140,3.0,,,,,,,64.0,,,,3,note_on,,70.0,64.0,70.0,219067,912.7791666666667
5141,3.0,,,,,,,64.0,,,,53,note_on,,0.0,64.0,0.0,219120,913.0
5142,3.0,,,,,,,55.0,,,,0,note_on,,0.0,55.0,0.0,219120,913.0
5143,3.0,,,,,,,48.0,,,,0,note_on,,0.0,48.0,0.0,219120,913.0
5144,3.0,,,,,,,52.0,,,,0,note_on,,0.0,52.0,0.0,219120,913.0
5145,3.0,,,,,,,60.0,,,,0,note_on,,0.0,60.0,0.0,219120,913.0
5146,3.0,,,,,,,43.0,,,,0,note_on,,70.0,43.0,70.0,219120,913.0
5147,3.0,,,,,,,47.0,,,,2,note_on,,70.0,47.0,70.0,219122,913.0083333333333
5148,3.0,,,,,,,50.0,,,,2,note_on,,70.0,50.0,70.0,219124,913.0166666666667
5149,3.0,,,,,,,55.0,,,,1,note_on,,70.0,55.0,70.0,219125,913.0208333333334
5150,3.0,,,,,,,59.0,,,,1,note_on,,70.0,59.0,70.0,219126,913.025
5151,3.0,,,,,,,67.0,,,,1,note_on,,70.0,67.0,70.0,219127,913.0291666666667
5152,3.0,,,,,,,67.0,,,,113,note_on,,0.0,67.0,0.0,219240,913.5
5153,3.0,,,,,,,55.0,,,,0,note_on,,0.0,55.0,0.0,219240,913.5
5154,3.0,,,,,,,59.0,,,,0,note_on,,0.0,59.0,0.0,219240,913.5
5155,3.0,,,,,,,55.0,,,,0,note_on,,70.0,55.0,70.0,219240,913.5
5156,3.0,,,,,,,59.0,,,,4,note_on,,70.0,59.0,70.0,219244,913.5166666666667
5157,3.0,,,,,,,67.0,,,,3,note_on,,70.0,67.0,70.0,219247,913.5291666666667
5158,3.0,,,,,,,67.0,,,,53,note_on,,0.0,67.0,0.0,219300,913.75
5159,3.0,,,,,,,50.0,,,,0,note_on,,0.0,50.0,0.0,219300,913.75
5160,3.0,,,,,,,43.0,,,,0,note_on,,0.0,43.0,0.0,219300,913.75
5161,3.0,,,,,,,47.0,,,,0,note_on,,0.0,47.0,0.0,219300,913.75
5162,3.0,,,,,,,59.0,,,,0,note_on,,0.0,59.0,0.0,219300,913.75
5163,3.0,,,,,,,55.0,,,,0,note_on,,0.0,55.0,0.0,219300,913.75
5164,3.0,,,,,,,43.0,,,,0,note_on,,70.0,43.0,70.0,219300,913.75
5165,3.0,,,,,,,47.0,,,,2,note_on,,70.0,47.0,70.0,219302,913.7583333333333
5166,3.0,,,,,,,50.0,,,,2,note_on,,70.0,50.0,70.0,219304,913.7666666666667
5167,3.0,,,,,,,55.0,,,,1,note_on,,70.0,55.0,70.0,219305,913.7708333333334
5168,3.0,,,,,,,59.0,,,,1,note_on,,70.0,59.0,70.0,219306,913.775
5169,3.0,,,,,,,67.0,,,,1,note_on,,70.0,67.0,70.0,219307,913.7791666666667
5170,3.0,,,,,,,67.0,,,,113,note_on,,0.0,67.0,0.0,219420,914.25
5171,3.0,,,,,,,55.0,,,,0,note_on,,0.0,55.0,0.0,219420,914.25
5172,3.0,,,,,,,59.0,,,,0,note_on,,0.0,59.0,0.0,219420,914.25
5173,3.0,,,,,,,55.0,,,,0,note_on,,70.0,55.0,70.0,219420,914.25
5174,3.0,,,,,,,59.0,,,,4,note_on,,70.0,59.0,70.0,219424,914.2666666666667
5175,3.0,,,,,,,67.0,,,,3,note_on,,70.0,67.0,70.0,219427,914.2791666666667
5176,3.0,,,,,,,67.0,,,,53,note_on,,0.0,67.0,0.0,219480,914.5
5177,3.0,,,,,,,50.0,,,,0,note_on,,0.0,50.0,0.0,219480,914.5
5178,3.0,,,,,,,43.0,,,,0,note_on,,0.0,43.0,0.0,219480,914.5
5179,3.0,,,,,,,47.0,,,,0,note_on,,0.0,47.0,0.0,219480,914.5
5180,3.0,,,,,,,59.0,,,,0,note_on,,0.0,59.0,0.0,219480,914.5
5181,3.0,,,,,,,55.0,,,,0,note_on,,0.0,55.0,0.0,219480,914.5
5182,3.0,,,,,,,48.0,,,,0,note_on,,70.0,48.0,70.0,219480,914.5
5183,3.0,,,,,,,52.0,,,,4,note_on,,70.0,52.0,70.0,219484,914.5166666666667
5184,3.0,,,,,,,55.0,,,,1,note_on,,70.0,55.0,70.0,219485,914.5208333333334
5185,3.0,,,,,,,60.0,,,,1,note_on,,70.0,60.0,70.0,219486,914.525
5186,3.0,,,,,,,64.0,,,,1,note_on,,70.0,64.0,70.0,219487,914.5291666666667
5187,3.0,,,,,,,64.0,,,,113,note_on,,0.0,64.0,0.0,219600,915.0
5188,3.0,,,,,,,55.0,,,,0,note_on,,0.0,55.0,0.0,219600,915.0
5189,3.0,,,,,,,60.0,,,,0,note_on,,0.0,60.0,0.0,219600,915.0
5190,3.0,,,,,,,55.0,,,,0,note_on,,70.0,55.0,70.0,219600,915.0
5191,3.0,,,,,,,60.0,,,,4,note_on,,70.0,60.0,70.0,219604,915.0166666666667
5192,3.0,,,,,,,64.0,,,,3,note_on,,70.0,64.0,70.0,219607,915.0291666666667
5193,3.0,,,,,,,64.0,,,,53,note_on,,0.0,64.0,0.0,219660,915.25
5194,3.0,,,,,,,55.0,,,,0,note_on,,0.0,55.0,0.0,219660,915.25
5195,3.0,,,,,,,48.0,,,,0,note_on,,0.0,48.0,0.0,219660,915.25
5196,3.0,,,,,,,52.0,,,,0,note_on,,0.0,52.0,0.0,219660,915.25
5197,3.0,,,,,,,60.0,,,,0,note_on,,0.0,60.0,0.0,219660,915.25
5198,3.0,,,,,,,48.0,,,,0,note_on,,70.0,48.0,70.0,219660,915.25
5199,3.0,,,,,,,52.0,,,,4,note_on,,70.0,52.0,70.0,219664,915.2666666666667
5200,3.0,,,,,,,55.0,,,,1,note_on,,70.0,55.0,70.0,219665,915.2708333333334
5201,3.0,,,,,,,60.0,,,,1,note_on,,70.0,60.0,70.0,219666,915.275
5202,3.0,,,,,,,64.0,,,,1,note_on,,70.0,64.0,70.0,219667,915.2791666666667
5203,3.0,,,,,,,64.0,,,,113,note_on,,0.0,64.0,0.0,219780,915.75
5204,3.0,,,,,,,55.0,,,,0,note_on,,0.0,55.0,0.0,219780,915.75
5205,3.0,,,,,,,60.0,,,,0,note_on,,0.0,60.0,0.0,219780,915.75
5206,3.0,,,,,,,55.0,,,,0,note_on,,70.0,55.0,70.0,219780,915.75
5207,3.0,,,,,,,60.0,,,,4,note_on,,70.0,60.0,70.0,219784,915.7666666666667
5208,3.0,,,,,,,64.0,,,,3,note_on,,70.0,64.0,70.0,219787,915.7791666666667
5209,3.0,,,,,,,64.0,,,,53,note_on,,0.0,64.0,0.0,219840,916.0
5210,3.0,,,,,,,55.0,,,,0,note_on,,0.0,55.0,0.0,219840,916.0
5211,3.0,,,,,,,48.0,,,,0,note_on,,0.0,48.0,0.0,219840,916.0
5212,3.0,,,,,,,52.0,,,,0,note_on,,0.0,52.0,0.0,219840,916.0
5213,3.0,,,,,,,60.0,,,,0,note_on,,0.0,60.0,0.0,219840,916.0
5214,3.0,,,,,,,43.0,,,,0,note_on,,70.0,43.0,70.0,219840,916.0
5215,3.0,,,,,,,47.0,,,,2,note_on,,70.0,47.0,70.0,219842,916.0083333333333
5216,3.0,,,,,,,50.0,,,,2,note_on,,70.0,50.0,70.0,219844,916.0166666666667
5217,3.0,,,,,,,55.0,,,,1,note_on,,70.0,55.0,70.0,219845,916.0208333333334
5218,3.0,,,,,,,59.0,,,,1,note_on,,70.0,59.0,70.0,219846,916.025
5219,3.0,,,,,,,67.0,,,,1,note_on,,70.0,67.0,70.0,219847,916.0291666666667
5220,3.0,,,,,,,67.0,,,,113,note_on,,0.0,67.0,0.0,219960,916.5
5221,3.0,,,,,,,55.0,,,,0,note_on,,0.0,55.0,0.0,219960,916.5
5222,3.0,,,,,,,59.0,,,,0,note_on,,0.0,59.0,0.0,219960,916.5
5223,3.0,,,,,,,55.0,,,,0,note_on,,70.0,55.0,70.0,219960,916.5
5224,3.0,,,,,,,59.0,,,,4,note_on,,70.0,59.0,70.0,219964,916.5166666666667
5225,3.0,,,,,,,67.0,,,,3,note_on,,70.0,67.0,70.0,219967,916.5291666666667
5226,3.0,,,,,,,67.0,,,,53,note_on,,0.0,67.0,0.0,220020,916.75
5227,3.0,,,,,,,50.0,,,,0,note_on,,0.0,50.0,0.0,220020,916.75
5228,3.0,,,,,,,43.0,,,,0,note_on,,0.0,43.0,0.0,220020,916.75
5229,3.0,,,,,,,47.0,,,,0,note_on,,0.0,47.0,0.0,220020,916.75
5230,3.0,,,,,,,59.0,,,,0,note_on,,0.0,59.0,0.0,220020,916.75
5231,3.0,,,,,,,55.0,,,,0,note_on,,0.0,55.0,0.0,220020,916.75
5232,3.0,,,,,,,43.0,,,,0,note_on,,70.0,43.0,70.0,220020,916.75
5233,3.0,,,,,,,47.0,,,,2,note_on,,70.0,47.0,70.0,220022,916.7583333333333
5234,3.0,,,,,,,50.0,,,,2,note_on,,70.0,50.0,70.0,220024,916.7666666666667
5235,3.0,,,,,,,55.0,,,,1,note_on,,70.0,55.0,70.0,220025,916.7708333333334
5236,3.0,,,,,,,59.0,,,,1,note_on,,70.0,59.0,70.0,220026,916.775
5237,3.0,,,,,,,67.0,,,,1,note_on,,70.0,67.0,70.0,220027,916.7791666666667
5238,3.0,,,,,,,67.0,,,,113,note_on,,0.0,67.0,0.0,220140,917.25
5239,3.0,,,,,,,55.0,,,,0,note_on,,0.0,55.0,0.0,220140,917.25
5240,3.0,,,,,,,59.0,,,,0,note_on,,0.0,59.0,0.0,220140,917.25
5241,3.0,,,,,,,55.0,,,,0,note_on,,70.0,55.0,70.0,220140,917.25
5242,3.0,,,,,,,59.0,,,,4,note_on,,70.0,59.0,70.0,220144,917.2666666666667
5243,3.0,,,,,,,67.0,,,,3,note_on,,70.0,67.0,70.0,220147,917.2791666666667
5244,3.0,,,,,,,67.0,,,,53,note_on,,0.0,67.0,0.0,220200,917.5
5245,3.0,,,,,,,50.0,,,,0,note_on,,0.0,50.0,0.0,220200,917.5
5246,3.0,,,,,,,43.0,,,,0,note_on,,0.0,43.0,0.0,220200,917.5
5247,3.0,,,,,,,47.0,,,,0,note_on,,0.0,47.0,0.0,220200,917.5
5248,3.0,,,,,,,59.0,,,,0,note_on,,0.0,59.0,0.0,220200,917.5
5249,3.0,,,,,,,55.0,,,,0,note_on,,0.0,55.0,0.0,220200,917.5
5250,3.0,,,,,,,45.0,,,,0,note_on,,70.0,45.0,70.0,220200,917.5
5251,3.0,,,,,,,52.0,,,,2,note_on,,70.0,52.0,70.0,220202,917.5083333333333
5252,3.0,,,,,,,57.0,,,,2,note_on,,70.0,57.0,70.0,220204,917.5166666666667
5253,3.0,,,,,,,60.0,,,,1,note_on,,70.0,60.0,70.0,220205,917.5208333333334
5254,3.0,,,,,,,64.0,,,,1,note_on,,70.0,64.0,70.0,220206,917.525
5255,3.0,,,,,,,64.0,,,,114,note_on,,0.0,64.0,0.0,220320,918.0
5256,3.0,,,,,,,57.0,,,,0,note_on,,0.0,57.0,0.0,220320,918.0
5257,3.0,,,,,,,60.0,,,,0,note_on,,0.0,60.0,0.0,220320,918.0
5258,3.0,,,,,,,57.0,,,,0,note_on,,70.0,57.0,70.0,220320,918.0
5259,3.0,,,,,,,60.0,,,,4,note_on,,70.0,60.0,70.0,220324,918.0166666666667
5260,3.0,,,,,,,64.0,,,,3,note_on,,70.0,64.0,70.0,220327,918.0291666666667
5261,3.0,,,,,,,64.0,,,,53,note_on,,0.0,64.0,0.0,220380,918.25
5262,3.0,,,,,,,57.0,,,,0,note_on,,0.0,57.0,0.0,220380,918.25
5263,3.0,,,,,,,45.0,,,,0,note_on,,0.0,45.0,0.0,220380,918.25
5264,3.0,,,,,,,52.0,,,,0,note_on,,0.0,52.0,0.0,220380,918.25
5265,3.0,,,,,,,60.0,,,,0,note_on,,0.0,60.0,0.0,220380,918.25
5266,3.0,,,,,,,45.0,,,,0,note_on,,70.0,45.0,70.0,220380,918.25
5267,3.0,,,,,,,52.0,,,,2,note_on,,70.0,52.0,70.0,220382,918.2583333333333
5268,3.0,,,,,,,57.0,,,,2,note_on,,70.0,57.0,70.0,220384,918.2666666666667
5269,3.0,,,,,,,60.0,,,,1,note_on,,70.0,60.0,70.0,220385,918.2708333333334
5270,3.0,,,,,,,64.0,,,,1,note_on,,70.0,64.0,70.0,220386,918.275
5271,3.0,,,,,,,60.0,,,,54,note_on,,0.0,60.0,0.0,220440,918.5
5272,3.0,,,,,,,57.0,,,,0,note_on,,0.0,57.0,0.0,220440,918.5
5273,3.0,,,,,,,64.0,,,,0,note_on,,100.0,64.0,100.0,220440,918.5
5274,3.0,,,,,,,60.0,,,,4,note_on,,100.0,60.0,100.0,220444,918.5166666666667
5275,3.0,,,,,,,57.0,,,,3,note_on,,100.0,57.0,100.0,220447,918.5291666666667
5276,3.0,,,,,,,57.0,,,,53,note_on,,0.0,57.0,0.0,220500,918.75
5277,3.0,,,,,,,64.0,,,,0,note_on,,0.0,64.0,0.0,220500,918.75
5278,3.0,,,,,,,64.0,,,,0,note_on,,0.0,64.0,0.0,220500,918.75
5279,3.0,,,,,,,60.0,,,,0,note_on,,0.0,60.0,0.0,220500,918.75
5280,3.0,,,,,,,57.0,,,,0,note_on,,70.0,57.0,70.0,220500,918.75
5281,3.0,,,,,,,60.0,,,,4,note_on,,70.0,60.0,70.0,220504,918.7666666666667
5282,3.0,,,,,,,64.0,,,,3,note_on,,70.0,64.0,70.0,220507,918.7791666666667
5283,3.0,,,,,,,64.0,,,,53,note_on,,0.0,64.0,0.0,220560,919.0
5284,3.0,,,,,,,57.0,,,,0,note_on,,0.0,57.0,0.0,220560,919.0
5285,3.0,,,,,,,52.0,,,,0,note_on,,0.0,52.0,0.0,220560,919.0
5286,3.0,,,,,,,45.0,,,,0,note_on,,0.0,45.0,0.0,220560,919.0
5287,3.0,,,,,,,60.0,,,,0,note_on,,0.0,60.0,0.0,220560,919.0
5288,3.0,,,,,,,48.0,,,,0,note_on,,70.0,48.0,70.0,220560,919.0
5289,3.0,,,,,,,52.0,,,,4,note_on,,70.0,52.0,70.0,220564,919.0166666666667
5290,3.0,,,,,,,55.0,,,,1,note_on,,70.0,55.0,70.0,220565,919.0208333333334
5291,3.0,,,,,,,60.0,,,,1,note_on,,70.0,60.0,70.0,220566,919.025
5292,3.0,,,,,,,64.0,,,,1,note_on,,70.0,64.0,70.0,220567,919.0291666666667
5293,3.0,,,,,,,64.0,,,,113,note_on,,0.0,64.0,0.0,220680,919.5
5294,3.0,,,,,,,55.0,,,,0,note_on,,0.0,55.0,0.0,220680,919.5
5295,3.0,,,,,,,60.0,,,,0,note_on,,0.0,60.0,0.0,220680,919.5
5296,3.0,,,,,,,55.0,,,,0,note_on,,70.0,55.0,70.0,220680,919.5
5297,3.0,,,,,,,60.0,,,,4,note_on,,70.0,60.0,70.0,220684,919.5166666666667
5298,3.0,,,,,,,64.0,,,,3,note_on,,70.0,64.0,70.0,220687,919.5291666666667
5299,3.0,,,,,,,64.0,,,,53,note_on,,0.0,64.0,0.0,220740,919.75
5300,3.0,,,,,,,55.0,,,,0,note_on,,0.0,55.0,0.0,220740,919.75
5301,3.0,,,,,,,48.0,,,,0,note_on,,0.0,48.0,0.0,220740,919.75
5302,3.0,,,,,,,52.0,,,,0,note_on,,0.0,52.0,0.0,220740,919.75
5303,3.0,,,,,,,60.0,,,,0,note_on,,0.0,60.0,0.0,220740,919.75
5304,3.0,,,,,,,48.0,,,,0,note_on,,70.0,48.0,70.0,220740,919.75
5305,3.0,,,,,,,52.0,,,,4,note_on,,70.0,52.0,70.0,220744,919.7666666666667
5306,3.0,,,,,,,55.0,,,,1,note_on,,70.0,55.0,70.0,220745,919.7708333333334
5307,3.0,,,,,,,60.0,,,,1,note_on,,70.0,60.0,70.0,220746,919.775
5308,3.0,,,,,,,64.0,,,,1,note_on,,70.0,64.0,70.0,220747,919.7791666666667
5309,3.0,,,,,,,64.0,,,,113,note_on,,0.0,64.0,0.0,220860,920.25
5310,3.0,,,,,,,55.0,,,,0,note_on,,0.0,55.0,0.0,220860,920.25
5311,3.0,,,,,,,60.0,,,,0,note_on,,0.0,60.0,0.0,220860,920.25
5312,3.0,,,,,,,55.0,,,,0,note_on,,70.0,55.0,70.0,220860,920.25
5313,3.0,,,,,,,60.0,,,,4,note_on,,70.0,60.0,70.0,220864,920.2666666666667
5314,3.0,,,,,,,64.0,,,,3,note_on,,70.0,64.0,70.0,220867,920.2791666666667
5315,3.0,,,,,,,64.0,,,,53,note_on,,0.0,64.0,0.0,220920,920.5
5316,3.0,,,,,,,55.0,,,,0,note_on,,0.0,55.0,0.0,220920,920.5
5317,3.0,,,,,,,48.0,,,,0,note_on,,0.0,48.0,0.0,220920,920.5
5318,3.0,,,,,,,52.0,,,,0,note_on,,0.0,52.0,0.0,220920,920.5
5319,3.0,,,,,,,60.0,,,,0,note_on,,0.0,60.0,0.0,220920,920.5
5320,3.0,,,,,,,45.0,,,,0,note_on,,70.0,45.0,70.0,220920,920.5
5321,3.0,,,,,,,52.0,,,,2,note_on,,70.0,52.0,70.0,220922,920.5083333333333
5322,3.0,,,,,,,57.0,,,,2,note_on,,70.0,57.0,70.0,220924,920.5166666666667
5323,3.0,,,,,,,60.0,,,,1,note_on,,70.0,60.0,70.0,220925,920.5208333333334
5324,3.0,,,,,,,64.0,,,,1,note_on,,70.0,64.0,70.0,220926,920.525
5325,3.0,,,,,,,64.0,,,,114,note_on,,0.0,64.0,0.0,221040,921.0
5326,3.0,,,,,,,60.0,,,,0,note_on,,0.0,60.0,0.0,221040,921.0
5327,3.0,,,,,,,57.0,,,,0,note_on,,70.0,57.0,70.0,221040,921.0
5328,3.0,,,,,,,60.0,,,,4,note_on,,70.0,60.0,70.0,221044,921.0166666666667
5329,3.0,,,,,,,64.0,,,,3,note_on,,70.0,64.0,70.0,221047,921.0291666666667
5330,3.0,,,,,,,64.0,,,,53,note_on,,0.0,64.0,0.0,221100,921.25
5331,3.0,,,,,,,52.0,,,,0,note_on,,0.0,52.0,0.0,221100,921.25
5332,3.0,,,,,,,45.0,,,,0,note_on,,0.0,45.0,0.0,221100,921.25
5333,3.0,,,,,,,57.0,,,,0,note_on,,0.0,57.0,0.0,221100,921.25
5334,3.0,,,,,,,60.0,,,,0,note_on,,0.0,60.0,0.0,221100,921.25
5335,3.0,,,,,,,57.0,,,,0,note_on,,0.0,57.0,0.0,221100,921.25
5336,3.0,,,,,,,45.0,,,,0,note_on,,70.0,45.0,70.0,221100,921.25
5337,3.0,,,,,,,52.0,,,,2,note_on,,70.0,52.0,70.0,221102,921.2583333333333
5338,3.0,,,,,,,57.0,,,,2,note_on,,70.0,57.0,70.0,221104,921.2666666666667
5339,3.0,,,,,,,60.0,,,,1,note_on,,70.0,60.0,70.0,221105,921.2708333333334
5340,3.0,,,,,,,64.0,,,,1,note_on,,70.0,64.0,70.0,221106,921.275
5341,3.0,,,,,,,64.0,,,,114,note_on,,0.0,64.0,0.0,221220,921.75
5342,3.0,,,,,,,60.0,,,,0,note_on,,0.0,60.0,0.0,221220,921.75
5343,3.0,,,,,,,57.0,,,,0,note_on,,70.0,57.0,70.0,221220,921.75
5344,3.0,,,,,,,60.0,,,,4,note_on,,70.0,60.0,70.0,221224,921.7666666666667
5345,3.0,,,,,,,64.0,,,,3,note_on,,70.0,64.0,70.0,221227,921.7791666666667
5346,3.0,,,,,,,64.0,,,,53,note_on,,0.0,64.0,0.0,221280,922.0
5347,3.0,,,,,,,52.0,,,,0,note_on,,0.0,52.0,0.0,221280,922.0
5348,3.0,,,,,,,45.0,,,,0,note_on,,0.0,45.0,0.0,221280,922.0
5349,3.0,,,,,,,57.0,,,,0,note_on,,0.0,57.0,0.0,221280,922.0
5350,3.0,,,,,,,60.0,,,,0,note_on,,0.0,60.0,0.0,221280,922.0
5351,3.0,,,,,,,57.0,,,,0,note_on,,0.0,57.0,0.0,221280,922.0
5352,3.0,,,,,,,48.0,,,,0,note_on,,70.0,48.0,70.0,221280,922.0
5353,3.0,,,,,,,52.0,,,,4,note_on,,70.0,52.0,70.0,221284,922.0166666666667
5354,3.0,,,,,,,55.0,,,,1,note_on,,70.0,55.0,70.0,221285,922.0208333333334
5355,3.0,,,,,,,60.0,,,,1,note_on,,70.0,60.0,70.0,221286,922.025
5356,3.0,,,,,,,64.0,,,,1,note_on,,70.0,64.0,70.0,221287,922.0291666666667
5357,3.0,,,,,,,64.0,,,,113,note_on,,0.0,64.0,0.0,221400,922.5
5358,3.0,,,,,,,55.0,,,,0,note_on,,0.0,55.0,0.0,221400,922.5
5359,3.0,,,,,,,60.0,,,,0,note_on,,0.0,60.0,0.0,221400,922.5
5360,3.0,,,,,,,55.0,,,,0,note_on,,70.0,55.0,70.0,221400,922.5
5361,3.0,,,,,,,60.0,,,,4,note_on,,70.0,60.0,70.0,221404,922.5166666666667
5362,3.0,,,,,,,64.0,,,,3,note_on,,70.0,64.0,70.0,221407,922.5291666666667
5363,3.0,,,,,,,64.0,,,,53,note_on,,0.0,64.0,0.0,221460,922.75
5364,3.0,,,,,,,55.0,,,,0,note_on,,0.0,55.0,0.0,221460,922.75
5365,3.0,,,,,,,48.0,,,,0,note_on,,0.0,48.0,0.0,221460,922.75
5366,3.0,,,,,,,52.0,,,,0,note_on,,0.0,52.0,0.0,221460,922.75
5367,3.0,,,,,,,60.0,,,,0,note_on,,0.0,60.0,0.0,221460,922.75
5368,3.0,,,,,,,48.0,,,,0,note_on,,70.0,48.0,70.0,221460,922.75
5369,3.0,,,,,,,52.0,,,,4,note_on,,70.0,52.0,70.0,221464,922.7666666666667
5370,3.0,,,,,,,55.0,,,,1,note_on,,70.0,55.0,70.0,221465,922.7708333333334
5371,3.0,,,,,,,60.0,,,,1,note_on,,70.0,60.0,70.0,221466,922.775
5372,3.0,,,,,,,64.0,,,,1,note_on,,70.0,64.0,70.0,221467,922.7791666666667
5373,3.0,,,,,,,64.0,,,,113,note_on,,0.0,64.0,0.0,221580,923.25
5374,3.0,,,,,,,55.0,,,,0,note_on,,0.0,55.0,0.0,221580,923.25
5375,3.0,,,,,,,60.0,,,,0,note_on,,0.0,60.0,0.0,221580,923.25
5376,3.0,,,,,,,55.0,,,,0,note_on,,70.0,55.0,70.0,221580,923.25
5377,3.0,,,,,,,60.0,,,,4,note_on,,70.0,60.0,70.0,221584,923.2666666666667
5378,3.0,,,,,,,64.0,,,,3,note_on,,70.0,64.0,70.0,221587,923.2791666666667
5379,3.0,,,,,,,64.0,,,,53,note_on,,0.0,64.0,0.0,221640,923.5
5380,3.0,,,,,,,55.0,,,,0,note_on,,0.0,55.0,0.0,221640,923.5
5381,3.0,,,,,,,48.0,,,,0,note_on,,0.0,48.0,0.0,221640,923.5
5382,3.0,,,,,,,52.0,,,,0,note_on,,0.0,52.0,0.0,221640,923.5
5383,3.0,,,,,,,60.0,,,,0,note_on,,0.0,60.0,0.0,221640,923.5
5384,3.0,,,,,,,45.0,,,,0,note_on,,70.0,45.0,70.0,221640,923.5
5385,3.0,,,,,,,52.0,,,,2,note_on,,70.0,52.0,70.0,221642,923.5083333333333
5386,3.0,,,,,,,57.0,,,,2,note_on,,70.0,57.0,70.0,221644,923.5166666666667
5387,3.0,,,,,,,60.0,,,,1,note_on,,70.0,60.0,70.0,221645,923.5208333333334
5388,3.0,,,,,,,64.0,,,,1,note_on,,70.0,64.0,70.0,221646,923.525
5389,3.0,,,,,,,64.0,,,,114,note_on,,0.0,64.0,0.0,221760,924.0
5390,3.0,,,,,,,60.0,,,,0,note_on,,0.0,60.0,0.0,221760,924.0
5391,3.0,,,,,,,57.0,,,,0,note_on,,70.0,57.0,70.0,221760,924.0
5392,3.0,,,,,,,60.0,,,,4,note_on,,70.0,60.0,70.0,221764,924.0166666666667
5393,3.0,,,,,,,64.0,,,,3,note_on,,70.0,64.0,70.0,221767,924.0291666666667
5394,3.0,,,,,,,64.0,,,,53,note_on,,0.0,64.0,0.0,221820,924.25
5395,3.0,,,,,,,52.0,,,,0,note_on,,0.0,52.0,0.0,221820,924.25
5396,3.0,,,,,,,45.0,,,,0,note_on,,0.0,45.0,0.0,221820,924.25
5397,3.0,,,,,,,57.0,,,,0,note_on,,0.0,57.0,0.0,221820,924.25
5398,3.0,,,,,,,60.0,,,,0,note_on,,0.0,60.0,0.0,221820,924.25
5399,3.0,,,,,,,57.0,,,,0,note_on,,0.0,57.0,0.0,221820,924.25
5400,3.0,,,,,,,45.0,,,,0,note_on,,70.0,45.0,70.0,221820,924.25
5401,3.0,,,,,,,52.0,,,,2,note_on,,70.0,52.0,70.0,221822,924.2583333333333
5402,3.0,,,,,,,57.0,,,,2,note_on,,70.0,57.0,70.0,221824,924.2666666666667
5403,3.0,,,,,,,60.0,,,,1,note_on,,70.0,60.0,70.0,221825,924.2708333333334
5404,3.0,,,,,,,64.0,,,,1,note_on,,70.0,64.0,70.0,221826,924.275
5405,3.0,,,,,,,64.0,,,,114,note_on,,0.0,64.0,0.0,221940,924.75
5406,3.0,,,,,,,60.0,,,,0,note_on,,0.0,60.0,0.0,221940,924.75
5407,3.0,,,,,,,57.0,,,,0,note_on,,70.0,57.0,70.0,221940,924.75
5408,3.0,,,,,,,60.0,,,,4,note_on,,70.0,60.0,70.0,221944,924.7666666666667
5409,3.0,,,,,,,64.0,,,,3,note_on,,70.0,64.0,70.0,221947,924.7791666666667
5410,3.0,,,,,,,64.0,,,,53,note_on,,0.0,64.0,0.0,222000,925.0
5411,3.0,,,,,,,52.0,,,,0,note_on,,0.0,52.0,0.0,222000,925.0
5412,3.0,,,,,,,45.0,,,,0,note_on,,0.0,45.0,0.0,222000,925.0
5413,3.0,,,,,,,57.0,,,,0,note_on,,0.0,57.0,0.0,222000,925.0
5414,3.0,,,,,,,60.0,,,,0,note_on,,0.0,60.0,0.0,222000,925.0
5415,3.0,,,,,,,57.0,,,,0,note_on,,0.0,57.0,0.0,222000,925.0
5416,3.0,,,,,,,41.0,,,,0,note_on,,70.0,41.0,70.0,222000,925.0
5417,3.0,,,,,,,45.0,,,,4,note_on,,70.0,45.0,70.0,222004,925.0166666666667
5418,3.0,,,,,,,57.0,,,,1,note_on,,70.0,57.0,70.0,222005,925.0208333333334
5419,3.0,,,,,,,48.0,,,,0,note_on,,70.0,48.0,70.0,222005,925.0208333333334
5420,3.0,,,,,,,60.0,,,,1,note_on,,70.0,60.0,70.0,222006,925.025
5421,3.0,,,,,,,65.0,,,,1,note_on,,70.0,65.0,70.0,222007,925.0291666666667
5422,3.0,,,,,,,65.0,,,,113,note_on,,0.0,65.0,0.0,222120,925.5
5423,3.0,,,,,,,57.0,,,,0,note_on,,0.0,57.0,0.0,222120,925.5
5424,3.0,,,,,,,60.0,,,,0,note_on,,0.0,60.0,0.0,222120,925.5
5425,3.0,,,,,,,57.0,,,,0,note_on,,70.0,57.0,70.0,222120,925.5
5426,3.0,,,,,,,60.0,,,,3,note_on,,70.0,60.0,70.0,222123,925.5124999999999
5427,3.0,,,,,,,65.0,,,,4,note_on,,70.0,65.0,70.0,222127,925.5291666666667
5428,3.0,,,,,,,60.0,,,,49,note_on,,0.0,60.0,0.0,222176,925.7333333333333
5429,3.0,,,,,,,48.0,,,,4,note_on,,0.0,48.0,0.0,222180,925.75
5430,3.0,,,,,,,41.0,,,,0,note_on,,0.0,41.0,0.0,222180,925.75
5431,3.0,,,,,,,45.0,,,,0,note_on,,0.0,45.0,0.0,222180,925.75
5432,3.0,,,,,,,65.0,,,,0,note_on,,0.0,65.0,0.0,222180,925.75
5433,3.0,,,,,,,57.0,,,,0,note_on,,0.0,57.0,0.0,222180,925.75
5434,3.0,,,,,,,41.0,,,,0,note_on,,70.0,41.0,70.0,222180,925.75
5435,3.0,,,,,,,45.0,,,,4,note_on,,70.0,45.0,70.0,222184,925.7666666666667
5436,3.0,,,,,,,57.0,,,,1,note_on,,70.0,57.0,70.0,222185,925.7708333333334
5437,3.0,,,,,,,48.0,,,,0,note_on,,70.0,48.0,70.0,222185,925.7708333333334
5438,3.0,,,,,,,60.0,,,,1,note_on,,70.0,60.0,70.0,222186,925.775
5439,3.0,,,,,,,65.0,,,,1,note_on,,70.0,65.0,70.0,222187,925.7791666666667
5440,3.0,,,,,,,65.0,,,,113,note_on,,0.0,65.0,0.0,222300,926.25
5441,3.0,,,,,,,57.0,,,,0,note_on,,0.0,57.0,0.0,222300,926.25
5442,3.0,,,,,,,60.0,,,,0,note_on,,0.0,60.0,0.0,222300,926.25
5443,3.0,,,,,,,57.0,,,,0,note_on,,70.0,57.0,70.0,222300,926.25
5444,3.0,,,,,,,60.0,,,,3,note_on,,70.0,60.0,70.0,222303,926.2624999999999
5445,3.0,,,,,,,65.0,,,,4,note_on,,70.0,65.0,70.0,222307,926.2791666666667
5446,3.0,,,,,,,60.0,,,,49,note_on,,0.0,60.0,0.0,222356,926.4833333333333
5447,3.0,,,,,,,48.0,,,,4,note_on,,0.0,48.0,0.0,222360,926.5
5448,3.0,,,,,,,41.0,,,,0,note_on,,0.0,41.0,0.0,222360,926.5
5449,3.0,,,,,,,45.0,,,,0,note_on,,0.0,45.0,0.0,222360,926.5
5450,3.0,,,,,,,65.0,,,,0,note_on,,0.0,65.0,0.0,222360,926.5
5451,3.0,,,,,,,57.0,,,,0,note_on,,0.0,57.0,0.0,222360,926.5
5452,3.0,,,,,,,43.0,,,,0,note_on,,70.0,43.0,70.0,222360,926.5
5453,3.0,,,,,,,47.0,,,,2,note_on,,70.0,47.0,70.0,222362,926.5083333333333
5454,3.0,,,,,,,50.0,,,,2,note_on,,70.0,50.0,70.0,222364,926.5166666666667
5455,3.0,,,,,,,55.0,,,,1,note_on,,70.0,55.0,70.0,222365,926.5208333333334
5456,3.0,,,,,,,59.0,,,,1,note_on,,70.0,59.0,70.0,222366,926.525
5457,3.0,,,,,,,67.0,,,,1,note_on,,70.0,67.0,70.0,222367,926.5291666666667
5458,3.0,,,,,,,67.0,,,,113,note_on,,0.0,67.0,0.0,222480,927.0
5459,3.0,,,,,,,55.0,,,,0,note_on,,0.0,55.0,0.0,222480,927.0
5460,3.0,,,,,,,59.0,,,,0,note_on,,0.0,59.0,0.0,222480,927.0
5461,3.0,,,,,,,55.0,,,,0,note_on,,70.0,55.0,70.0,222480,927.0
5462,3.0,,,,,,,59.0,,,,4,note_on,,70.0,59.0,70.0,222484,927.0166666666667
5463,3.0,,,,,,,67.0,,,,3,note_on,,70.0,67.0,70.0,222487,927.0291666666667
5464,3.0,,,,,,,67.0,,,,53,note_on,,0.0,67.0,0.0,222540,927.25
5465,3.0,,,,,,,50.0,,,,0,note_on,,0.0,50.0,0.0,222540,927.25
5466,3.0,,,,,,,43.0,,,,0,note_on,,0.0,43.0,0.0,222540,927.25
5467,3.0,,,,,,,47.0,,,,0,note_on,,0.0,47.0,0.0,222540,927.25
5468,3.0,,,,,,,59.0,,,,0,note_on,,0.0,59.0,0.0,222540,927.25
5469,3.0,,,,,,,55.0,,,,0,note_on,,0.0,55.0,0.0,222540,927.25
5470,3.0,,,,,,,43.0,,,,0,note_on,,70.0,43.0,70.0,222540,927.25
5471,3.0,,,,,,,47.0,,,,2,note_on,,70.0,47.0,70.0,222542,927.2583333333333
5472,3.0,,,,,,,50.0,,,,2,note_on,,70.0,50.0,70.0,222544,927.2666666666667
5473,3.0,,,,,,,55.0,,,,1,note_on,,70.0,55.0,70.0,222545,927.2708333333334
5474,3.0,,,,,,,59.0,,,,1,note_on,,70.0,59.0,70.0,222546,927.275
5475,3.0,,,,,,,67.0,,,,1,note_on,,70.0,67.0,70.0,222547,927.2791666666667
5476,3.0,,,,,,,67.0,,,,113,note_on,,0.0,67.0,0.0,222660,927.75
5477,3.0,,,,,,,55.0,,,,0,note_on,,0.0,55.0,0.0,222660,927.75
5478,3.0,,,,,,,59.0,,,,0,note_on,,0.0,59.0,0.0,222660,927.75
5479,3.0,,,,,,,55.0,,,,0,note_on,,70.0,55.0,70.0,222660,927.75
5480,3.0,,,,,,,59.0,,,,4,note_on,,70.0,59.0,70.0,222664,927.7666666666667
5481,3.0,,,,,,,67.0,,,,3,note_on,,70.0,67.0,70.0,222667,927.7791666666667
5482,3.0,,,,,,,67.0,,,,53,note_on,,0.0,67.0,0.0,222720,928.0
5483,3.0,,,,,,,50.0,,,,0,note_on,,0.0,50.0,0.0,222720,928.0
5484,3.0,,,,,,,43.0,,,,0,note_on,,0.0,43.0,0.0,222720,928.0
5485,3.0,,,,,,,47.0,,,,0,note_on,,0.0,47.0,0.0,222720,928.0
5486,3.0,,,,,,,59.0,,,,0,note_on,,0.0,59.0,0.0,222720,928.0
5487,3.0,,,,,,,55.0,,,,0,note_on,,0.0,55.0,0.0,222720,928.0
5488,3.0,,,,,,,48.0,,,,0,note_on,,70.0,48.0,70.0,222720,928.0
5489,3.0,,,,,,,52.0,,,,4,note_on,,70.0,52.0,70.0,222724,928.0166666666667
5490,3.0,,,,,,,55.0,,,,1,note_on,,70.0,55.0,70.0,222725,928.0208333333334
5491,3.0,,,,,,,60.0,,,,1,note_on,,70.0,60.0,70.0,222726,928.025
5492,3.0,,,,,,,64.0,,,,1,note_on,,70.0,64.0,70.0,222727,928.0291666666667
5493,3.0,,,,,,,64.0,,,,113,note_on,,0.0,64.0,0.0,222840,928.5
5494,3.0,,,,,,,55.0,,,,0,note_on,,0.0,55.0,0.0,222840,928.5
5495,3.0,,,,,,,60.0,,,,0,note_on,,0.0,60.0,0.0,222840,928.5
5496,3.0,,,,,,,55.0,,,,0,note_on,,70.0,55.0,70.0,222840,928.5
5497,3.0,,,,,,,60.0,,,,4,note_on,,70.0,60.0,70.0,222844,928.5166666666667
5498,3.0,,,,,,,64.0,,,,3,note_on,,70.0,64.0,70.0,222847,928.5291666666667
5499,3.0,,,,,,,64.0,,,,53,note_on,,0.0,64.0,0.0,222900,928.75
5500,3.0,,,,,,,55.0,,,,0,note_on,,0.0,55.0,0.0,222900,928.75
5501,3.0,,,,,,,48.0,,,,0,note_on,,0.0,48.0,0.0,222900,928.75
5502,3.0,,,,,,,52.0,,,,0,note_on,,0.0,52.0,0.0,222900,928.75
5503,3.0,,,,,,,60.0,,,,0,note_on,,0.0,60.0,0.0,222900,928.75
5504,3.0,,,,,,,48.0,,,,0,note_on,,70.0,48.0,70.0,222900,928.75
5505,3.0,,,,,,,52.0,,,,4,note_on,,70.0,52.0,70.0,222904,928.7666666666667
5506,3.0,,,,,,,55.0,,,,1,note_on,,70.0,55.0,70.0,222905,928.7708333333334
5507,3.0,,,,,,,60.0,,,,1,note_on,,70.0,60.0,70.0,222906,928.775
5508,3.0,,,,,,,64.0,,,,1,note_on,,70.0,64.0,70.0,222907,928.7791666666667
5509,3.0,,,,,,,64.0,,,,113,note_on,,0.0,64.0,0.0,223020,929.25
5510,3.0,,,,,,,55.0,,,,0,note_on,,0.0,55.0,0.0,223020,929.25
5511,3.0,,,,,,,60.0,,,,0,note_on,,0.0,60.0,0.0,223020,929.25
5512,3.0,,,,,,,55.0,,,,0,note_on,,70.0,55.0,70.0,223020,929.25
5513,3.0,,,,,,,60.0,,,,4,note_on,,70.0,60.0,70.0,223024,929.2666666666667
5514,3.0,,,,,,,64.0,,,,3,note_on,,70.0,64.0,70.0,223027,929.2791666666667
5515,3.0,,,,,,,64.0,,,,53,note_on,,0.0,64.0,0.0,223080,929.5
5516,3.0,,,,,,,55.0,,,,0,note_on,,0.0,55.0,0.0,223080,929.5
5517,3.0,,,,,,,48.0,,,,0,note_on,,0.0,48.0,0.0,223080,929.5
5518,3.0,,,,,,,52.0,,,,0,note_on,,0.0,52.0,0.0,223080,929.5
5519,3.0,,,,,,,60.0,,,,0,note_on,,0.0,60.0,0.0,223080,929.5
5520,3.0,,,,,,,43.0,,,,0,note_on,,70.0,43.0,70.0,223080,929.5
5521,3.0,,,,,,,47.0,,,,2,note_on,,70.0,47.0,70.0,223082,929.5083333333333
5522,3.0,,,,,,,50.0,,,,2,note_on,,70.0,50.0,70.0,223084,929.5166666666667
5523,3.0,,,,,,,55.0,,,,1,note_on,,70.0,55.0,70.0,223085,929.5208333333334
5524,3.0,,,,,,,59.0,,,,1,note_on,,70.0,59.0,70.0,223086,929.525
5525,3.0,,,,,,,67.0,,,,1,note_on,,70.0,67.0,70.0,223087,929.5291666666667
5526,3.0,,,,,,,67.0,,,,113,note_on,,0.0,67.0,0.0,223200,930.0
5527,3.0,,,,,,,55.0,,,,0,note_on,,0.0,55.0,0.0,223200,930.0
5528,3.0,,,,,,,59.0,,,,0,note_on,,0.0,59.0,0.0,223200,930.0
5529,3.0,,,,,,,55.0,,,,0,note_on,,70.0,55.0,70.0,223200,930.0
5530,3.0,,,,,,,59.0,,,,4,note_on,,70.0,59.0,70.0,223204,930.0166666666667
5531,3.0,,,,,,,67.0,,,,3,note_on,,70.0,67.0,70.0,223207,930.0291666666667
5532,3.0,,,,,,,67.0,,,,53,note_on,,0.0,67.0,0.0,223260,930.25
5533,3.0,,,,,,,50.0,,,,0,note_on,,0.0,50.0,0.0,223260,930.25
5534,3.0,,,,,,,43.0,,,,0,note_on,,0.0,43.0,0.0,223260,930.25
5535,3.0,,,,,,,47.0,,,,0,note_on,,0.0,47.0,0.0,223260,930.25
5536,3.0,,,,,,,59.0,,,,0,note_on,,0.0,59.0,0.0,223260,930.25
5537,3.0,,,,,,,55.0,,,,0,note_on,,0.0,55.0,0.0,223260,930.25
5538,3.0,,,,,,,43.0,,,,0,note_on,,70.0,43.0,70.0,223260,930.25
5539,3.0,,,,,,,47.0,,,,2,note_on,,70.0,47.0,70.0,223262,930.2583333333333
5540,3.0,,,,,,,50.0,,,,2,note_on,,70.0,50.0,70.0,223264,930.2666666666667
5541,3.0,,,,,,,55.0,,,,1,note_on,,70.0,55.0,70.0,223265,930.2708333333334
5542,3.0,,,,,,,59.0,,,,1,note_on,,70.0,59.0,70.0,223266,930.275
5543,3.0,,,,,,,67.0,,,,1,note_on,,70.0,67.0,70.0,223267,930.2791666666667
5544,3.0,,,,,,,67.0,,,,113,note_on,,0.0,67.0,0.0,223380,930.75
5545,3.0,,,,,,,55.0,,,,0,note_on,,0.0,55.0,0.0,223380,930.75
5546,3.0,,,,,,,59.0,,,,0,note_on,,0.0,59.0,0.0,223380,930.75
5547,3.0,,,,,,,55.0,,,,0,note_on,,70.0,55.0,70.0,223380,930.75
5548,3.0,,,,,,,59.0,,,,4,note_on,,70.0,59.0,70.0,223384,930.7666666666667
5549,3.0,,,,,,,67.0,,,,3,note_on,,70.0,67.0,70.0,223387,930.7791666666667
5550,3.0,,,,,,,67.0,,,,53,note_on,,0.0,67.0,0.0,223440,931.0
5551,3.0,,,,,,,50.0,,,,0,note_on,,0.0,50.0,0.0,223440,931.0
5552,3.0,,,,,,,43.0,,,,0,note_on,,0.0,43.0,0.0,223440,931.0
5553,3.0,,,,,,,47.0,,,,0,note_on,,0.0,47.0,0.0,223440,931.0
5554,3.0,,,,,,,59.0,,,,0,note_on,,0.0,59.0,0.0,223440,931.0
5555,3.0,,,,,,,55.0,,,,0,note_on,,0.0,55.0,0.0,223440,931.0
5556,3.0,,,,,,,48.0,,,,0,note_on,,70.0,48.0,70.0,223440,931.0
5557,3.0,,,,,,,52.0,,,,4,note_on,,70.0,52.0,70.0,223444,931.0166666666667
5558,3.0,,,,,,,55.0,,,,1,note_on,,70.0,55.0,70.0,223445,931.0208333333334
5559,3.0,,,,,,,60.0,,,,1,note_on,,70.0,60.0,70.0,223446,931.025
5560,3.0,,,,,,,64.0,,,,1,note_on,,70.0,64.0,70.0,223447,931.0291666666667
5561,3.0,,,,,,,64.0,,,,113,note_on,,0.0,64.0,0.0,223560,931.5
5562,3.0,,,,,,,55.0,,,,0,note_on,,0.0,55.0,0.0,223560,931.5
5563,3.0,,,,,,,60.0,,,,0,note_on,,0.0,60.0,0.0,223560,931.5
5564,3.0,,,,,,,55.0,,,,0,note_on,,70.0,55.0,70.0,223560,931.5
5565,3.0,,,,,,,60.0,,,,4,note_on,,70.0,60.0,70.0,223564,931.5166666666667
5566,3.0,,,,,,,64.0,,,,3,note_on,,70.0,64.0,70.0,223567,931.5291666666667
5567,3.0,,,,,,,64.0,,,,53,note_on,,0.0,64.0,0.0,223620,931.75
5568,3.0,,,,,,,55.0,,,,0,note_on,,0.0,55.0,0.0,223620,931.75
5569,3.0,,,,,,,48.0,,,,0,note_on,,0.0,48.0,0.0,223620,931.75
5570,3.0,,,,,,,52.0,,,,0,note_on,,0.0,52.0,0.0,223620,931.75
5571,3.0,,,,,,,60.0,,,,0,note_on,,0.0,60.0,0.0,223620,931.75
5572,3.0,,,,,,,48.0,,,,0,note_on,,70.0,48.0,70.0,223620,931.75
5573,3.0,,,,,,,52.0,,,,4,note_on,,70.0,52.0,70.0,223624,931.7666666666667
5574,3.0,,,,,,,55.0,,,,1,note_on,,70.0,55.0,70.0,223625,931.7708333333334
5575,3.0,,,,,,,60.0,,,,1,note_on,,70.0,60.0,70.0,223626,931.775
5576,3.0,,,,,,,64.0,,,,1,note_on,,70.0,64.0,70.0,223627,931.7791666666667
5577,3.0,,,,,,,64.0,,,,113,note_on,,0.0,64.0,0.0,223740,932.25
5578,3.0,,,,,,,55.0,,,,0,note_on,,0.0,55.0,0.0,223740,932.25
5579,3.0,,,,,,,60.0,,,,0,note_on,,0.0,60.0,0.0,223740,932.25
5580,3.0,,,,,,,55.0,,,,0,note_on,,70.0,55.0,70.0,223740,932.25
5581,3.0,,,,,,,60.0,,,,4,note_on,,70.0,60.0,70.0,223744,932.2666666666667
5582,3.0,,,,,,,64.0,,,,3,note_on,,70.0,64.0,70.0,223747,932.2791666666667
5583,3.0,,,,,,,64.0,,,,53,note_on,,0.0,64.0,0.0,223800,932.5
5584,3.0,,,,,,,55.0,,,,0,note_on,,0.0,55.0,0.0,223800,932.5
5585,3.0,,,,,,,48.0,,,,0,note_on,,0.0,48.0,0.0,223800,932.5
5586,3.0,,,,,,,52.0,,,,0,note_on,,0.0,52.0,0.0,223800,932.5
5587,3.0,,,,,,,60.0,,,,0,note_on,,0.0,60.0,0.0,223800,932.5
5588,3.0,,,,,,,41.0,,,,0,note_on,,70.0,41.0,70.0,223800,932.5
5589,3.0,,,,,,,45.0,,,,4,note_on,,70.0,45.0,70.0,223804,932.5166666666667
5590,3.0,,,,,,,57.0,,,,1,note_on,,70.0,57.0,70.0,223805,932.5208333333334
5591,3.0,,,,,,,48.0,,,,0,note_on,,70.0,48.0,70.0,223805,932.5208333333334
5592,3.0,,,,,,,60.0,,,,1,note_on,,70.0,60.0,70.0,223806,932.525
5593,3.0,,,,,,,65.0,,,,1,note_on,,70.0,65.0,70.0,223807,932.5291666666667
5594,3.0,,,,,,,65.0,,,,113,note_on,,0.0,65.0,0.0,223920,933.0
5595,3.0,,,,,,,57.0,,,,0,note_on,,0.0,57.0,0.0,223920,933.0
5596,3.0,,,,,,,60.0,,,,0,note_on,,0.0,60.0,0.0,223920,933.0
5597,3.0,,,,,,,57.0,,,,0,note_on,,70.0,57.0,70.0,223920,933.0
5598,3.0,,,,,,,60.0,,,,3,note_on,,70.0,60.0,70.0,223923,933.0124999999999
5599,3.0,,,,,,,65.0,,,,4,note_on,,70.0,65.0,70.0,223927,933.0291666666667
5600,3.0,,,,,,,60.0,,,,49,note_on,,0.0,60.0,0.0,223976,933.2333333333333
5601,3.0,,,,,,,48.0,,,,4,note_on,,0.0,48.0,0.0,223980,933.25
5602,3.0,,,,,,,41.0,,,,0,note_on,,0.0,41.0,0.0,223980,933.25
5603,3.0,,,,,,,45.0,,,,0,note_on,,0.0,45.0,0.0,223980,933.25
5604,3.0,,,,,,,65.0,,,,0,note_on,,0.0,65.0,0.0,223980,933.25
5605,3.0,,,,,,,57.0,,,,0,note_on,,0.0,57.0,0.0,223980,933.25
5606,3.0,,,,,,,43.0,,,,0,note_on,,70.0,43.0,70.0,223980,933.25
5607,3.0,,,,,,,47.0,,,,2,note_on,,70.0,47.0,70.0,223982,933.2583333333333
5608,3.0,,,,,,,50.0,,,,2,note_on,,70.0,50.0,70.0,223984,933.2666666666667
5609,3.0,,,,,,,55.0,,,,1,note_on,,70.0,55.0,70.0,223985,933.2708333333334
5610,3.0,,,,,,,59.0,,,,1,note_on,,70.0,59.0,70.0,223986,933.275
5611,3.0,,,,,,,67.0,,,,1,note_on,,70.0,67.0,70.0,223987,933.2791666666667
5612,3.0,,,,,,,67.0,,,,113,note_on,,0.0,67.0,0.0,224100,933.75
5613,3.0,,,,,,,55.0,,,,0,note_on,,0.0,55.0,0.0,224100,933.75
5614,3.0,,,,,,,59.0,,,,0,note_on,,0.0,59.0,0.0,224100,933.75
5615,3.0,,,,,,,55.0,,,,0,note_on,,70.0,55.0,70.0,224100,933.75
5616,3.0,,,,,,,59.0,,,,4,note_on,,70.0,59.0,70.0,224104,933.7666666666667
5617,3.0,,,,,,,67.0,,,,3,note_on,,70.0,67.0,70.0,224107,933.7791666666667
5618,3.0,,,,,,,67.0,,,,53,note_on,,0.0,67.0,0.0,224160,934.0
5619,3.0,,,,,,,50.0,,,,0,note_on,,0.0,50.0,0.0,224160,934.0
5620,3.0,,,,,,,43.0,,,,0,note_on,,0.0,43.0,0.0,224160,934.0
5621,3.0,,,,,,,47.0,,,,0,note_on,,0.0,47.0,0.0,224160,934.0
5622,3.0,,,,,,,59.0,,,,0,note_on,,0.0,59.0,0.0,224160,934.0
5623,3.0,,,,,,,55.0,,,,0,note_on,,0.0,55.0,0.0,224160,934.0
5624,3.0,,,,,,,45.0,,,,0,note_on,,70.0,45.0,70.0,224160,934.0
5625,3.0,,,,,,,52.0,,,,2,note_on,,70.0,52.0,70.0,224162,934.0083333333333
5626,3.0,,,,,,,57.0,,,,2,note_on,,70.0,57.0,70.0,224164,934.0166666666667
5627,3.0,,,,,,,60.0,,,,1,note_on,,70.0,60.0,70.0,224165,934.0208333333334
5628,3.0,,,,,,,64.0,,,,1,note_on,,70.0,64.0,70.0,224166,934.025
5629,3.0,,,,,,,64.0,,,,114,note_on,,0.0,64.0,0.0,224280,934.5
5630,3.0,,,,,,,60.0,,,,0,note_on,,0.0,60.0,0.0,224280,934.5
5631,3.0,,,,,,,57.0,,,,0,note_on,,70.0,57.0,70.0,224280,934.5
5632,3.0,,,,,,,60.0,,,,4,note_on,,70.0,60.0,70.0,224284,934.5166666666667
5633,3.0,,,,,,,64.0,,,,3,note_on,,70.0,64.0,70.0,224287,934.5291666666667
5634,3.0,,,,,,,64.0,,,,53,note_on,,0.0,64.0,0.0,224340,934.75
5635,3.0,,,,,,,52.0,,,,0,note_on,,0.0,52.0,0.0,224340,934.75
5636,3.0,,,,,,,45.0,,,,0,note_on,,0.0,45.0,0.0,224340,934.75
5637,3.0,,,,,,,57.0,,,,0,note_on,,0.0,57.0,0.0,224340,934.75
5638,3.0,,,,,,,60.0,,,,0,note_on,,0.0,60.0,0.0,224340,934.75
5639,3.0,,,,,,,57.0,,,,0,note_on,,0.0,57.0,0.0,224340,934.75
5640,3.0,,,,,,,45.0,,,,0,note_on,,70.0,45.0,70.0,224340,934.75
5641,3.0,,,,,,,52.0,,,,2,note_on,,70.0,52.0,70.0,224342,934.7583333333333
5642,3.0,,,,,,,57.0,,,,2,note_on,,70.0,57.0,70.0,224344,934.7666666666667
5643,3.0,,,,,,,60.0,,,,1,note_on,,70.0,60.0,70.0,224345,934.7708333333334
5644,3.0,,,,,,,64.0,,,,1,note_on,,70.0,64.0,70.0,224346,934.775
5645,3.0,,,,,,,64.0,,,,114,note_on,,0.0,64.0,0.0,224460,935.25
5646,3.0,,,,,,,60.0,,,,0,note_on,,0.0,60.0,0.0,224460,935.25
5647,3.0,,,,,,,57.0,,,,0,note_on,,70.0,57.0,70.0,224460,935.25
5648,3.0,,,,,,,60.0,,,,4,note_on,,70.0,60.0,70.0,224464,935.2666666666667
5649,3.0,,,,,,,64.0,,,,3,note_on,,70.0,64.0,70.0,224467,935.2791666666667
5650,3.0,,,,,,,64.0,,,,53,note_on,,0.0,64.0,0.0,224520,935.5
5651,3.0,,,,,,,52.0,,,,0,note_on,,0.0,52.0,0.0,224520,935.5
5652,3.0,,,,,,,45.0,,,,0,note_on,,0.0,45.0,0.0,224520,935.5
5653,3.0,,,,,,,57.0,,,,0,note_on,,0.0,57.0,0.0,224520,935.5
5654,3.0,,,,,,,60.0,,,,0,note_on,,0.0,60.0,0.0,224520,935.5
5655,3.0,,,,,,,57.0,,,,0,note_on,,0.0,57.0,0.0,224520,935.5
5656,3.0,,,,,,,41.0,,,,0,note_on,,70.0,41.0,70.0,224520,935.5
5657,3.0,,,,,,,45.0,,,,4,note_on,,70.0,45.0,70.0,224524,935.5166666666667
5658,3.0,,,,,,,57.0,,,,1,note_on,,70.0,57.0,70.0,224525,935.5208333333334
5659,3.0,,,,,,,48.0,,,,0,note_on,,70.0,48.0,70.0,224525,935.5208333333334
5660,3.0,,,,,,,60.0,,,,1,note_on,,70.0,60.0,70.0,224526,935.525
5661,3.0,,,,,,,65.0,,,,1,note_on,,70.0,65.0,70.0,224527,935.5291666666667
5662,3.0,,,,,,,65.0,,,,113,note_on,,0.0,65.0,0.0,224640,936.0
5663,3.0,,,,,,,57.0,,,,0,note_on,,0.0,57.0,0.0,224640,936.0
5664,3.0,,,,,,,60.0,,,,0,note_on,,0.0,60.0,0.0,224640,936.0
5665,3.0,,,,,,,57.0,,,,0,note_on,,70.0,57.0,70.0,224640,936.0
5666,3.0,,,,,,,60.0,,,,3,note_on,,70.0,60.0,70.0,224643,936.0124999999999
5667,3.0,,,,,,,65.0,,,,4,note_on,,70.0,65.0,70.0,224647,936.0291666666667
5668,3.0,,,,,,,60.0,,,,49,note_on,,0.0,60.0,0.0,224696,936.2333333333333
5669,3.0,,,,,,,48.0,,,,4,note_on,,0.0,48.0,0.0,224700,936.25
5670,3.0,,,,,,,41.0,,,,0,note_on,,0.0,41.0,0.0,224700,936.25
5671,3.0,,,,,,,45.0,,,,0,note_on,,0.0,45.0,0.0,224700,936.25
5672,3.0,,,,,,,65.0,,,,0,note_on,,0.0,65.0,0.0,224700,936.25
5673,3.0,,,,,,,57.0,,,,0,note_on,,0.0,57.0,0.0,224700,936.25
5674,3.0,,,,,,,41.0,,,,0,note_on,,70.0,41.0,70.0,224700,936.25
5675,3.0,,,,,,,45.0,,,,4,note_on,,70.0,45.0,70.0,224704,936.2666666666667
5676,3.0,,,,,,,57.0,,,,1,note_on,,70.0,57.0,70.0,224705,936.2708333333334
5677,3.0,,,,,,,48.0,,,,0,note_on,,70.0,48.0,70.0,224705,936.2708333333334
5678,3.0,,,,,,,60.0,,,,1,note_on,,70.0,60.0,70.0,224706,936.275
5679,3.0,,,,,,,65.0,,,,1,note_on,,70.0,65.0,70.0,224707,936.2791666666667
5680,3.0,,,,,,,65.0,,,,113,note_on,,0.0,65.0,0.0,224820,936.75
5681,3.0,,,,,,,57.0,,,,0,note_on,,0.0,57.0,0.0,224820,936.75
5682,3.0,,,,,,,60.0,,,,0,note_on,,0.0,60.0,0.0,224820,936.75
5683,3.0,,,,,,,57.0,,,,0,note_on,,70.0,57.0,70.0,224820,936.75
5684,3.0,,,,,,,60.0,,,,3,note_on,,70.0,60.0,70.0,224823,936.7624999999999
5685,3.0,,,,,,,65.0,,,,4,note_on,,70.0,65.0,70.0,224827,936.7791666666667
5686,3.0,,,,,,,60.0,,,,49,note_on,,0.0,60.0,0.0,224876,936.9833333333333
5687,3.0,,,,,,,48.0,,,,4,note_on,,0.0,48.0,0.0,224880,937.0
5688,3.0,,,,,,,41.0,,,,0,note_on,,0.0,41.0,0.0,224880,937.0
5689,3.0,,,,,,,45.0,,,,0,note_on,,0.0,45.0,0.0,224880,937.0
5690,3.0,,,,,,,65.0,,,,0,note_on,,0.0,65.0,0.0,224880,937.0
5691,3.0,,,,,,,57.0,,,,0,note_on,,0.0,57.0,0.0,224880,937.0
5692,3.0,,,,,,,43.0,,,,0,note_on,,70.0,43.0,70.0,224880,937.0
5693,3.0,,,,,,,47.0,,,,2,note_on,,70.0,47.0,70.0,224882,937.0083333333333
5694,3.0,,,,,,,50.0,,,,2,note_on,,70.0,50.0,70.0,224884,937.0166666666667
5695,3.0,,,,,,,55.0,,,,1,note_on,,70.0,55.0,70.0,224885,937.0208333333334
5696,3.0,,,,,,,59.0,,,,1,note_on,,70.0,59.0,70.0,224886,937.025
5697,3.0,,,,,,,67.0,,,,1,note_on,,70.0,67.0,70.0,224887,937.0291666666667
5698,3.0,,,,,,,67.0,,,,113,note_on,,0.0,67.0,0.0,225000,937.5
5699,3.0,,,,,,,55.0,,,,0,note_on,,0.0,55.0,0.0,225000,937.5
5700,3.0,,,,,,,59.0,,,,0,note_on,,0.0,59.0,0.0,225000,937.5
5701,3.0,,,,,,,55.0,,,,0,note_on,,70.0,55.0,70.0,225000,937.5
5702,3.0,,,,,,,59.0,,,,4,note_on,,70.0,59.0,70.0,225004,937.5166666666667
5703,3.0,,,,,,,67.0,,,,3,note_on,,70.0,67.0,70.0,225007,937.5291666666667
5704,3.0,,,,,,,67.0,,,,53,note_on,,0.0,67.0,0.0,225060,937.75
5705,3.0,,,,,,,50.0,,,,0,note_on,,0.0,50.0,0.0,225060,937.75
5706,3.0,,,,,,,43.0,,,,0,note_on,,0.0,43.0,0.0,225060,937.75
5707,3.0,,,,,,,47.0,,,,0,note_on,,0.0,47.0,0.0,225060,937.75
5708,3.0,,,,,,,59.0,,,,0,note_on,,0.0,59.0,0.0,225060,937.75
5709,3.0,,,,,,,55.0,,,,0,note_on,,0.0,55.0,0.0,225060,937.75
5710,3.0,,,,,,,43.0,,,,0,note_on,,70.0,43.0,70.0,225060,937.75
5711,3.0,,,,,,,47.0,,,,2,note_on,,70.0,47.0,70.0,225062,937.7583333333333
5712,3.0,,,,,,,50.0,,,,2,note_on,,70.0,50.0,70.0,225064,937.7666666666667
5713,3.0,,,,,,,55.0,,,,1,note_on,,70.0,55.0,70.0,225065,937.7708333333334
5714,3.0,,,,,,,59.0,,,,1,note_on,,70.0,59.0,70.0,225066,937.775
5715,3.0,,,,,,,67.0,,,,1,note_on,,70.0,67.0,70.0,225067,937.7791666666667
5716,3.0,,,,,,,67.0,,,,113,note_on,,0.0,67.0,0.0,225180,938.25
5717,3.0,,,,,,,55.0,,,,0,note_on,,0.0,55.0,0.0,225180,938.25
5718,3.0,,,,,,,59.0,,,,0,note_on,,0.0,59.0,0.0,225180,938.25
5719,3.0,,,,,,,55.0,,,,0,note_on,,70.0,55.0,70.0,225180,938.25
5720,3.0,,,,,,,59.0,,,,4,note_on,,70.0,59.0,70.0,225184,938.2666666666667
5721,3.0,,,,,,,67.0,,,,3,note_on,,70.0,67.0,70.0,225187,938.2791666666667
5722,3.0,,,,,,,67.0,,,,53,note_on,,0.0,67.0,0.0,225240,938.5
5723,3.0,,,,,,,50.0,,,,0,note_on,,0.0,50.0,0.0,225240,938.5
5724,3.0,,,,,,,43.0,,,,0,note_on,,0.0,43.0,0.0,225240,938.5
5725,3.0,,,,,,,47.0,,,,0,note_on,,0.0,47.0,0.0,225240,938.5
5726,3.0,,,,,,,59.0,,,,0,note_on,,0.0,59.0,0.0,225240,938.5
5727,3.0,,,,,,,55.0,,,,0,note_on,,0.0,55.0,0.0,225240,938.5
5728,3.0,,,,,,,40.0,,,,0,note_on,,70.0,40.0,70.0,225240,938.5
5729,3.0,,,,,,,47.0,,,,2,note_on,,70.0,47.0,70.0,225242,938.5083333333333
5730,3.0,,,,,,,52.0,,,,2,note_on,,70.0,52.0,70.0,225244,938.5166666666667
5731,3.0,,,,,,,55.0,,,,1,note_on,,70.0,55.0,70.0,225245,938.5208333333334
5732,3.0,,,,,,,59.0,,,,1,note_on,,70.0,59.0,70.0,225246,938.525
5733,3.0,,,,,,,64.0,,,,1,note_on,,70.0,64.0,70.0,225247,938.5291666666667
5734,3.0,,,,,,,64.0,,,,113,note_on,,0.0,64.0,0.0,225360,939.0
5735,3.0,,,,,,,55.0,,,,0,note_on,,0.0,55.0,0.0,225360,939.0
5736,3.0,,,,,,,59.0,,,,0,note_on,,0.0,59.0,0.0,225360,939.0
5737,3.0,,,,,,,55.0,,,,0,note_on,,70.0,55.0,70.0,225360,939.0
5738,3.0,,,,,,,59.0,,,,4,note_on,,70.0,59.0,70.0,225364,939.0166666666667
5739,3.0,,,,,,,64.0,,,,3,note_on,,70.0,64.0,70.0,225367,939.0291666666667
5740,3.0,,,,,,,64.0,,,,53,note_on,,0.0,64.0,0.0,225420,939.25
5741,3.0,,,,,,,52.0,,,,0,note_on,,0.0,52.0,0.0,225420,939.25
5742,3.0,,,,,,,40.0,,,,0,note_on,,0.0,40.0,0.0,225420,939.25
5743,3.0,,,,,,,47.0,,,,0,note_on,,0.0,47.0,0.0,225420,939.25
5744,3.0,,,,,,,59.0,,,,0,note_on,,0.0,59.0,0.0,225420,939.25
5745,3.0,,,,,,,55.0,,,,0,note_on,,0.0,55.0,0.0,225420,939.25
5746,3.0,,,,,,,40.0,,,,0,note_on,,70.0,40.0,70.0,225420,939.25
5747,3.0,,,,,,,47.0,,,,2,note_on,,70.0,47.0,70.0,225422,939.2583333333333
5748,3.0,,,,,,,52.0,,,,2,note_on,,70.0,52.0,70.0,225424,939.2666666666667
5749,3.0,,,,,,,55.0,,,,1,note_on,,70.0,55.0,70.0,225425,939.2708333333334
5750,3.0,,,,,,,59.0,,,,1,note_on,,70.0,59.0,70.0,225426,939.275
5751,3.0,,,,,,,64.0,,,,1,note_on,,70.0,64.0,70.0,225427,939.2791666666667
5752,3.0,,,,,,,64.0,,,,113,note_on,,0.0,64.0,0.0,225540,939.75
5753,3.0,,,,,,,55.0,,,,0,note_on,,0.0,55.0,0.0,225540,939.75
5754,3.0,,,,,,,59.0,,,,0,note_on,,0.0,59.0,0.0,225540,939.75
5755,3.0,,,,,,,55.0,,,,0,note_on,,70.0,55.0,70.0,225540,939.75
5756,3.0,,,,,,,59.0,,,,4,note_on,,70.0,59.0,70.0,225544,939.7666666666667
5757,3.0,,,,,,,64.0,,,,3,note_on,,70.0,64.0,70.0,225547,939.7791666666667
5758,3.0,,,,,,,64.0,,,,53,note_on,,0.0,64.0,0.0,225600,940.0
5759,3.0,,,,,,,52.0,,,,0,note_on,,0.0,52.0,0.0,225600,940.0
5760,3.0,,,,,,,40.0,,,,0,note_on,,0.0,40.0,0.0,225600,940.0
5761,3.0,,,,,,,47.0,,,,0,note_on,,0.0,47.0,0.0,225600,940.0
5762,3.0,,,,,,,59.0,,,,0,note_on,,0.0,59.0,0.0,225600,940.0
5763,3.0,,,,,,,55.0,,,,0,note_on,,0.0,55.0,0.0,225600,940.0
5764,3.0,,,,,,,45.0,,,,0,note_on,,70.0,45.0,70.0,225600,940.0
5765,3.0,,,,,,,52.0,,,,2,note_on,,70.0,52.0,70.0,225602,940.0083333333333
5766,3.0,,,,,,,57.0,,,,2,note_on,,70.0,57.0,70.0,225604,940.0166666666667
5767,3.0,,,,,,,60.0,,,,1,note_on,,70.0,60.0,70.0,225605,940.0208333333334
5768,3.0,,,,,,,64.0,,,,1,note_on,,70.0,64.0,70.0,225606,940.025
5769,3.0,,,,,,,64.0,,,,114,note_on,,0.0,64.0,0.0,225720,940.5
5770,3.0,,,,,,,60.0,,,,0,note_on,,0.0,60.0,0.0,225720,940.5
5771,3.0,,,,,,,57.0,,,,0,note_on,,70.0,57.0,70.0,225720,940.5
5772,3.0,,,,,,,60.0,,,,4,note_on,,70.0,60.0,70.0,225724,940.5166666666667
5773,3.0,,,,,,,64.0,,,,3,note_on,,70.0,64.0,70.0,225727,940.5291666666667
5774,3.0,,,,,,,64.0,,,,53,note_on,,0.0,64.0,0.0,225780,940.75
5775,3.0,,,,,,,52.0,,,,0,note_on,,0.0,52.0,0.0,225780,940.75
5776,3.0,,,,,,,45.0,,,,0,note_on,,0.0,45.0,0.0,225780,940.75
5777,3.0,,,,,,,57.0,,,,0,note_on,,0.0,57.0,0.0,225780,940.75
5778,3.0,,,,,,,60.0,,,,0,note_on,,0.0,60.0,0.0,225780,940.75
5779,3.0,,,,,,,57.0,,,,0,note_on,,0.0,57.0,0.0,225780,940.75
5780,3.0,,,,,,,45.0,,,,0,note_on,,70.0,45.0,70.0,225780,940.75
5781,3.0,,,,,,,52.0,,,,2,note_on,,70.0,52.0,70.0,225782,940.7583333333333
5782,3.0,,,,,,,57.0,,,,2,note_on,,70.0,57.0,70.0,225784,940.7666666666667
5783,3.0,,,,,,,60.0,,,,1,note_on,,70.0,60.0,70.0,225785,940.7708333333334
5784,3.0,,,,,,,64.0,,,,1,note_on,,70.0,64.0,70.0,225786,940.775
5785,3.0,,,,,,,64.0,,,,114,note_on,,0.0,64.0,0.0,225900,941.25
5786,3.0,,,,,,,60.0,,,,0,note_on,,0.0,60.0,0.0,225900,941.25
5787,3.0,,,,,,,57.0,,,,0,note_on,,70.0,57.0,70.0,225900,941.25
5788,3.0,,,,,,,60.0,,,,4,note_on,,70.0,60.0,70.0,225904,941.2666666666667
5789,3.0,,,,,,,64.0,,,,3,note_on,,70.0,64.0,70.0,225907,941.2791666666667
5790,3.0,,,,,,,64.0,,,,53,note_on,,0.0,64.0,0.0,225960,941.5
5791,3.0,,,,,,,52.0,,,,0,note_on,,0.0,52.0,0.0,225960,941.5
5792,3.0,,,,,,,45.0,,,,0,note_on,,0.0,45.0,0.0,225960,941.5
5793,3.0,,,,,,,57.0,,,,0,note_on,,0.0,57.0,0.0,225960,941.5
5794,3.0,,,,,,,60.0,,,,0,note_on,,0.0,60.0,0.0,225960,941.5
5795,3.0,,,,,,,57.0,,,,0,note_on,,0.0,57.0,0.0,225960,941.5
5796,3.0,,,,,,,45.0,,,,0,note_on,,70.0,45.0,70.0,225960,941.5
5797,3.0,,,,,,,52.0,,,,2,note_on,,70.0,52.0,70.0,225962,941.5083333333333
5798,3.0,,,,,,,57.0,,,,2,note_on,,70.0,57.0,70.0,225964,941.5166666666667
5799,3.0,,,,,,,60.0,,,,1,note_on,,70.0,60.0,70.0,225965,941.5208333333334
5800,3.0,,,,,,,64.0,,,,1,note_on,,70.0,64.0,70.0,225966,941.525
5801,3.0,,,,,,,64.0,,,,114,note_on,,0.0,64.0,0.0,226080,942.0
5802,3.0,,,,,,,60.0,,,,0,note_on,,0.0,60.0,0.0,226080,942.0
5803,3.0,,,,,,,57.0,,,,0,note_on,,70.0,57.0,70.0,226080,942.0
5804,3.0,,,,,,,60.0,,,,4,note_on,,70.0,60.0,70.0,226084,942.0166666666667
5805,3.0,,,,,,,64.0,,,,3,note_on,,70.0,64.0,70.0,226087,942.0291666666667
5806,3.0,,,,,,,64.0,,,,53,note_on,,0.0,64.0,0.0,226140,942.25
5807,3.0,,,,,,,52.0,,,,0,note_on,,0.0,52.0,0.0,226140,942.25
5808,3.0,,,,,,,45.0,,,,0,note_on,,0.0,45.0,0.0,226140,942.25
5809,3.0,,,,,,,57.0,,,,0,note_on,,0.0,57.0,0.0,226140,942.25
5810,3.0,,,,,,,60.0,,,,0,note_on,,0.0,60.0,0.0,226140,942.25
5811,3.0,,,,,,,57.0,,,,0,note_on,,0.0,57.0,0.0,226140,942.25
5812,3.0,,,,,,,45.0,,,,0,note_on,,70.0,45.0,70.0,226140,942.25
5813,3.0,,,,,,,52.0,,,,2,note_on,,70.0,52.0,70.0,226142,942.2583333333333
5814,3.0,,,,,,,57.0,,,,2,note_on,,70.0,57.0,70.0,226144,942.2666666666667
5815,3.0,,,,,,,60.0,,,,1,note_on,,70.0,60.0,70.0,226145,942.2708333333334
5816,3.0,,,,,,,64.0,,,,1,note_on,,70.0,64.0,70.0,226146,942.275
5817,3.0,,,,,,,64.0,,,,114,note_on,,0.0,64.0,0.0,226260,942.75
5818,3.0,,,,,,,60.0,,,,0,note_on,,0.0,60.0,0.0,226260,942.75
5819,3.0,,,,,,,57.0,,,,0,note_on,,70.0,57.0,70.0,226260,942.75
5820,3.0,,,,,,,60.0,,,,4,note_on,,70.0,60.0,70.0,226264,942.7666666666667
5821,3.0,,,,,,,64.0,,,,3,note_on,,70.0,64.0,70.0,226267,942.7791666666667
5822,3.0,,,,,,,64.0,,,,53,note_on,,0.0,64.0,0.0,226320,943.0
5823,3.0,,,,,,,52.0,,,,0,note_on,,0.0,52.0,0.0,226320,943.0
5824,3.0,,,,,,,45.0,,,,0,note_on,,0.0,45.0,0.0,226320,943.0
5825,3.0,,,,,,,57.0,,,,0,note_on,,0.0,57.0,0.0,226320,943.0
5826,3.0,,,,,,,60.0,,,,0,note_on,,0.0,60.0,0.0,226320,943.0
5827,3.0,,,,,,,57.0,,,,0,note_on,,0.0,57.0,0.0,226320,943.0
5828,3.0,,,,,,,41.0,,,,0,note_on,,70.0,41.0,70.0,226320,943.0
5829,3.0,,,,,,,45.0,,,,4,note_on,,70.0,45.0,70.0,226324,943.0166666666667
5830,3.0,,,,,,,57.0,,,,1,note_on,,70.0,57.0,70.0,226325,943.0208333333334
5831,3.0,,,,,,,48.0,,,,0,note_on,,70.0,48.0,70.0,226325,943.0208333333334
5832,3.0,,,,,,,60.0,,,,1,note_on,,70.0,60.0,70.0,226326,943.025
5833,3.0,,,,,,,65.0,,,,1,note_on,,70.0,65.0,70.0,226327,943.0291666666667
5834,3.0,,,,,,,65.0,,,,113,note_on,,0.0,65.0,0.0,226440,943.5
5835,3.0,,,,,,,57.0,,,,0,note_on,,0.0,57.0,0.0,226440,943.5
5836,3.0,,,,,,,60.0,,,,0,note_on,,0.0,60.0,0.0,226440,943.5
5837,3.0,,,,,,,57.0,,,,0,note_on,,70.0,57.0,70.0,226440,943.5
5838,3.0,,,,,,,60.0,,,,3,note_on,,70.0,60.0,70.0,226443,943.5124999999999
5839,3.0,,,,,,,65.0,,,,4,note_on,,70.0,65.0,70.0,226447,943.5291666666667
5840,3.0,,,,,,,60.0,,,,49,note_on,,0.0,60.0,0.0,226496,943.7333333333333
5841,3.0,,,,,,,48.0,,,,4,note_on,,0.0,48.0,0.0,226500,943.75
5842,3.0,,,,,,,41.0,,,,0,note_on,,0.0,41.0,0.0,226500,943.75
5843,3.0,,,,,,,45.0,,,,0,note_on,,0.0,45.0,0.0,226500,943.75
5844,3.0,,,,,,,65.0,,,,0,note_on,,0.0,65.0,0.0,226500,943.75
5845,3.0,,,,,,,57.0,,,,0,note_on,,0.0,57.0,0.0,226500,943.75
5846,3.0,,,,,,,41.0,,,,0,note_on,,70.0,41.0,70.0,226500,943.75
5847,3.0,,,,,,,45.0,,,,4,note_on,,70.0,45.0,70.0,226504,943.7666666666667
5848,3.0,,,,,,,57.0,,,,1,note_on,,70.0,57.0,70.0,226505,943.7708333333334
5849,3.0,,,,,,,48.0,,,,0,note_on,,70.0,48.0,70.0,226505,943.7708333333334
5850,3.0,,,,,,,60.0,,,,1,note_on,,70.0,60.0,70.0,226506,943.775
5851,3.0,,,,,,,65.0,,,,1,note_on,,70.0,65.0,70.0,226507,943.7791666666667
5852,3.0,,,,,,,65.0,,,,113,note_on,,0.0,65.0,0.0,226620,944.25
5853,3.0,,,,,,,57.0,,,,0,note_on,,0.0,57.0,0.0,226620,944.25
5854,3.0,,,,,,,60.0,,,,0,note_on,,0.0,60.0,0.0,226620,944.25
5855,3.0,,,,,,,57.0,,,,0,note_on,,70.0,57.0,70.0,226620,944.25
5856,3.0,,,,,,,60.0,,,,3,note_on,,70.0,60.0,70.0,226623,944.2624999999999
5857,3.0,,,,,,,65.0,,,,4,note_on,,70.0,65.0,70.0,226627,944.2791666666667
5858,3.0,,,,,,,60.0,,,,49,note_on,,0.0,60.0,0.0,226676,944.4833333333333
5859,3.0,,,,,,,48.0,,,,4,note_on,,0.0,48.0,0.0,226680,944.5
5860,3.0,,,,,,,41.0,,,,0,note_on,,0.0,41.0,0.0,226680,944.5
5861,3.0,,,,,,,45.0,,,,0,note_on,,0.0,45.0,0.0,226680,944.5
5862,3.0,,,,,,,65.0,,,,0,note_on,,0.0,65.0,0.0,226680,944.5
5863,3.0,,,,,,,57.0,,,,0,note_on,,0.0,57.0,0.0,226680,944.5
5864,3.0,,,,,,,41.0,,,,0,note_on,,70.0,41.0,70.0,226680,944.5
5865,3.0,,,,,,,45.0,,,,4,note_on,,70.0,45.0,70.0,226684,944.5166666666667
5866,3.0,,,,,,,57.0,,,,1,note_on,,70.0,57.0,70.0,226685,944.5208333333334
5867,3.0,,,,,,,48.0,,,,0,note_on,,70.0,48.0,70.0,226685,944.5208333333334
5868,3.0,,,,,,,60.0,,,,1,note_on,,70.0,60.0,70.0,226686,944.525
5869,3.0,,,,,,,65.0,,,,1,note_on,,70.0,65.0,70.0,226687,944.5291666666667
5870,3.0,,,,,,,65.0,,,,113,note_on,,0.0,65.0,0.0,226800,945.0
5871,3.0,,,,,,,57.0,,,,0,note_on,,0.0,57.0,0.0,226800,945.0
5872,3.0,,,,,,,60.0,,,,0,note_on,,0.0,60.0,0.0,226800,945.0
5873,3.0,,,,,,,57.0,,,,0,note_on,,70.0,57.0,70.0,226800,945.0
5874,3.0,,,,,,,60.0,,,,3,note_on,,70.0,60.0,70.0,226803,945.0124999999999
5875,3.0,,,,,,,65.0,,,,4,note_on,,70.0,65.0,70.0,226807,945.0291666666667
5876,3.0,,,,,,,60.0,,,,49,note_on,,0.0,60.0,0.0,226856,945.2333333333333
5877,3.0,,,,,,,48.0,,,,4,note_on,,0.0,48.0,0.0,226860,945.25
5878,3.0,,,,,,,41.0,,,,0,note_on,,0.0,41.0,0.0,226860,945.25
5879,3.0,,,,,,,45.0,,,,0,note_on,,0.0,45.0,0.0,226860,945.25
5880,3.0,,,,,,,65.0,,,,0,note_on,,0.0,65.0,0.0,226860,945.25
5881,3.0,,,,,,,57.0,,,,0,note_on,,0.0,57.0,0.0,226860,945.25
5882,3.0,,,,,,,41.0,,,,0,note_on,,70.0,41.0,70.0,226860,945.25
5883,3.0,,,,,,,45.0,,,,4,note_on,,70.0,45.0,70.0,226864,945.2666666666667
5884,3.0,,,,,,,57.0,,,,1,note_on,,70.0,57.0,70.0,226865,945.2708333333334
5885,3.0,,,,,,,48.0,,,,0,note_on,,70.0,48.0,70.0,226865,945.2708333333334
5886,3.0,,,,,,,60.0,,,,1,note_on,,70.0,60.0,70.0,226866,945.275
5887,3.0,,,,,,,65.0,,,,1,note_on,,70.0,65.0,70.0,226867,945.2791666666667
5888,3.0,,,,,,,65.0,,,,113,note_on,,0.0,65.0,0.0,226980,945.75
5889,3.0,,,,,,,57.0,,,,0,note_on,,0.0,57.0,0.0,226980,945.75
5890,3.0,,,,,,,60.0,,,,0,note_on,,0.0,60.0,0.0,226980,945.75
5891,3.0,,,,,,,57.0,,,,0,note_on,,70.0,57.0,70.0,226980,945.75
5892,3.0,,,,,,,60.0,,,,3,note_on,,70.0,60.0,70.0,226983,945.7624999999999
5893,3.0,,,,,,,65.0,,,,4,note_on,,70.0,65.0,70.0,226987,945.7791666666667
5894,3.0,,,,,,,60.0,,,,49,note_on,,0.0,60.0,0.0,227036,945.9833333333333
5895,3.0,,,,,,,48.0,,,,4,note_on,,0.0,48.0,0.0,227040,946.0
5896,3.0,,,,,,,41.0,,,,0,note_on,,0.0,41.0,0.0,227040,946.0
5897,3.0,,,,,,,45.0,,,,0,note_on,,0.0,45.0,0.0,227040,946.0
5898,3.0,,,,,,,65.0,,,,0,note_on,,0.0,65.0,0.0,227040,946.0
5899,3.0,,,,,,,57.0,,,,0,note_on,,0.0,57.0,0.0,227040,946.0
5900,3.0,,,,,,,45.0,,,,0,note_on,,70.0,45.0,70.0,227040,946.0
5901,3.0,,,,,,,52.0,,,,2,note_on,,70.0,52.0,70.0,227042,946.0083333333333
5902,3.0,,,,,,,57.0,,,,2,note_on,,70.0,57.0,70.0,227044,946.0166666666667
5903,3.0,,,,,,,60.0,,,,1,note_on,,70.0,60.0,70.0,227045,946.0208333333334
5904,3.0,,,,,,,64.0,,,,1,note_on,,70.0,64.0,70.0,227046,946.025
5905,3.0,,,,,,,64.0,,,,114,note_on,,0.0,64.0,0.0,227160,946.5
5906,3.0,,,,,,,60.0,,,,0,note_on,,0.0,60.0,0.0,227160,946.5
5907,3.0,,,,,,,57.0,,,,0,note_on,,70.0,57.0,70.0,227160,946.5
5908,3.0,,,,,,,60.0,,,,4,note_on,,70.0,60.0,70.0,227164,946.5166666666667
5909,3.0,,,,,,,64.0,,,,3,note_on,,70.0,64.0,70.0,227167,946.5291666666667
5910,3.0,,,,,,,64.0,,,,53,note_on,,0.0,64.0,0.0,227220,946.75
5911,3.0,,,,,,,52.0,,,,0,note_on,,0.0,52.0,0.0,227220,946.75
5912,3.0,,,,,,,45.0,,,,0,note_on,,0.0,45.0,0.0,227220,946.75
5913,3.0,,,,,,,57.0,,,,0,note_on,,0.0,57.0,0.0,227220,946.75
5914,3.0,,,,,,,60.0,,,,0,note_on,,0.0,60.0,0.0,227220,946.75
5915,3.0,,,,,,,57.0,,,,0,note_on,,0.0,57.0,0.0,227220,946.75
5916,3.0,,,,,,,45.0,,,,0,note_on,,70.0,45.0,70.0,227220,946.75
5917,3.0,,,,,,,52.0,,,,2,note_on,,70.0,52.0,70.0,227222,946.7583333333333
5918,3.0,,,,,,,57.0,,,,2,note_on,,70.0,57.0,70.0,227224,946.7666666666667
5919,3.0,,,,,,,60.0,,,,1,note_on,,70.0,60.0,70.0,227225,946.7708333333334
5920,3.0,,,,,,,64.0,,,,1,note_on,,70.0,64.0,70.0,227226,946.775
5921,3.0,,,,,,,64.0,,,,114,note_on,,0.0,64.0,0.0,227340,947.25
5922,3.0,,,,,,,60.0,,,,0,note_on,,0.0,60.0,0.0,227340,947.25
5923,3.0,,,,,,,57.0,,,,0,note_on,,70.0,57.0,70.0,227340,947.25
5924,3.0,,,,,,,60.0,,,,4,note_on,,70.0,60.0,70.0,227344,947.2666666666667
5925,3.0,,,,,,,64.0,,,,3,note_on,,70.0,64.0,70.0,227347,947.2791666666667
5926,3.0,,,,,,,64.0,,,,53,note_on,,0.0,64.0,0.0,227400,947.5
5927,3.0,,,,,,,52.0,,,,0,note_on,,0.0,52.0,0.0,227400,947.5
5928,3.0,,,,,,,45.0,,,,0,note_on,,0.0,45.0,0.0,227400,947.5
5929,3.0,,,,,,,57.0,,,,0,note_on,,0.0,57.0,0.0,227400,947.5
5930,3.0,,,,,,,60.0,,,,0,note_on,,0.0,60.0,0.0,227400,947.5
5931,3.0,,,,,,,57.0,,,,0,note_on,,0.0,57.0,0.0,227400,947.5
5932,3.0,,,,,,,45.0,,,,0,note_on,,70.0,45.0,70.0,227400,947.5
5933,3.0,,,,,,,52.0,,,,2,note_on,,70.0,52.0,70.0,227402,947.5083333333333
5934,3.0,,,,,,,57.0,,,,2,note_on,,70.0,57.0,70.0,227404,947.5166666666667
5935,3.0,,,,,,,60.0,,,,1,note_on,,70.0,60.0,70.0,227405,947.5208333333334
5936,3.0,,,,,,,64.0,,,,1,note_on,,70.0,64.0,70.0,227406,947.525
5937,3.0,,,,,,,64.0,,,,114,note_on,,0.0,64.0,0.0,227520,948.0
5938,3.0,,,,,,,60.0,,,,0,note_on,,0.0,60.0,0.0,227520,948.0
5939,3.0,,,,,,,57.0,,,,0,note_on,,70.0,57.0,70.0,227520,948.0
5940,3.0,,,,,,,60.0,,,,4,note_on,,70.0,60.0,70.0,227524,948.0166666666667
5941,3.0,,,,,,,64.0,,,,3,note_on,,70.0,64.0,70.0,227527,948.0291666666667
5942,3.0,,,,,,,64.0,,,,53,note_on,,0.0,64.0,0.0,227580,948.25
5943,3.0,,,,,,,52.0,,,,0,note_on,,0.0,52.0,0.0,227580,948.25
5944,3.0,,,,,,,45.0,,,,0,note_on,,0.0,45.0,0.0,227580,948.25
5945,3.0,,,,,,,57.0,,,,0,note_on,,0.0,57.0,0.0,227580,948.25
5946,3.0,,,,,,,60.0,,,,0,note_on,,0.0,60.0,0.0,227580,948.25
5947,3.0,,,,,,,57.0,,,,0,note_on,,0.0,57.0,0.0,227580,948.25
5948,3.0,,,,,,,45.0,,,,0,note_on,,70.0,45.0,70.0,227580,948.25
5949,3.0,,,,,,,52.0,,,,2,note_on,,70.0,52.0,70.0,227582,948.2583333333333
5950,3.0,,,,,,,57.0,,,,2,note_on,,70.0,57.0,70.0,227584,948.2666666666667
5951,3.0,,,,,,,60.0,,,,1,note_on,,70.0,60.0,70.0,227585,948.2708333333334
5952,3.0,,,,,,,64.0,,,,1,note_on,,70.0,64.0,70.0,227586,948.275
5953,3.0,,,,,,,64.0,,,,114,note_on,,0.0,64.0,0.0,227700,948.75
5954,3.0,,,,,,,60.0,,,,0,note_on,,0.0,60.0,0.0,227700,948.75
5955,3.0,,,,,,,57.0,,,,0,note_on,,70.0,57.0,70.0,227700,948.75
5956,3.0,,,,,,,60.0,,,,4,note_on,,70.0,60.0,70.0,227704,948.7666666666667
5957,3.0,,,,,,,64.0,,,,3,note_on,,70.0,64.0,70.0,227707,948.7791666666667
5958,3.0,,,,,,,64.0,,,,53,note_on,,0.0,64.0,0.0,227760,949.0
5959,3.0,,,,,,,52.0,,,,0,note_on,,0.0,52.0,0.0,227760,949.0
5960,3.0,,,,,,,45.0,,,,0,note_on,,0.0,45.0,0.0,227760,949.0
5961,3.0,,,,,,,57.0,,,,0,note_on,,0.0,57.0,0.0,227760,949.0
5962,3.0,,,,,,,60.0,,,,0,note_on,,0.0,60.0,0.0,227760,949.0
5963,3.0,,,,,,,57.0,,,,0,note_on,,0.0,57.0,0.0,227760,949.0
5964,3.0,,,,,,,41.0,,,,0,note_on,,70.0,41.0,70.0,227760,949.0
5965,3.0,,,,,,,45.0,,,,4,note_on,,70.0,45.0,70.0,227764,949.0166666666667
5966,3.0,,,,,,,57.0,,,,1,note_on,,70.0,57.0,70.0,227765,949.0208333333334
5967,3.0,,,,,,,48.0,,,,0,note_on,,70.0,48.0,70.0,227765,949.0208333333334
5968,3.0,,,,,,,60.0,,,,1,note_on,,70.0,60.0,70.0,227766,949.025
5969,3.0,,,,,,,65.0,,,,1,note_on,,70.0,65.0,70.0,227767,949.0291666666667
5970,3.0,,,,,,,65.0,,,,113,note_on,,0.0,65.0,0.0,227880,949.5
5971,3.0,,,,,,,57.0,,,,0,note_on,,0.0,57.0,0.0,227880,949.5
5972,3.0,,,,,,,60.0,,,,0,note_on,,0.0,60.0,0.0,227880,949.5
5973,3.0,,,,,,,57.0,,,,0,note_on,,70.0,57.0,70.0,227880,949.5
5974,3.0,,,,,,,60.0,,,,3,note_on,,70.0,60.0,70.0,227883,949.5124999999999
5975,3.0,,,,,,,65.0,,,,4,note_on,,70.0,65.0,70.0,227887,949.5291666666667
5976,3.0,,,,,,,60.0,,,,49,note_on,,0.0,60.0,0.0,227936,949.7333333333333
5977,3.0,,,,,,,48.0,,,,4,note_on,,0.0,48.0,0.0,227940,949.75
5978,3.0,,,,,,,41.0,,,,0,note_on,,0.0,41.0,0.0,227940,949.75
5979,3.0,,,,,,,45.0,,,,0,note_on,,0.0,45.0,0.0,227940,949.75
5980,3.0,,,,,,,65.0,,,,0,note_on,,0.0,65.0,0.0,227940,949.75
5981,3.0,,,,,,,57.0,,,,0,note_on,,0.0,57.0,0.0,227940,949.75
5982,3.0,,,,,,,41.0,,,,0,note_on,,70.0,41.0,70.0,227940,949.75
5983,3.0,,,,,,,45.0,,,,4,note_on,,70.0,45.0,70.0,227944,949.7666666666667
5984,3.0,,,,,,,57.0,,,,1,note_on,,70.0,57.0,70.0,227945,949.7708333333334
5985,3.0,,,,,,,48.0,,,,0,note_on,,70.0,48.0,70.0,227945,949.7708333333334
5986,3.0,,,,,,,60.0,,,,1,note_on,,70.0,60.0,70.0,227946,949.775
5987,3.0,,,,,,,65.0,,,,1,note_on,,70.0,65.0,70.0,227947,949.7791666666667
5988,3.0,,,,,,,65.0,,,,113,note_on,,0.0,65.0,0.0,228060,950.25
5989,3.0,,,,,,,57.0,,,,0,note_on,,0.0,57.0,0.0,228060,950.25
5990,3.0,,,,,,,60.0,,,,0,note_on,,0.0,60.0,0.0,228060,950.25
5991,3.0,,,,,,,57.0,,,,0,note_on,,70.0,57.0,70.0,228060,950.25
5992,3.0,,,,,,,60.0,,,,3,note_on,,70.0,60.0,70.0,228063,950.2624999999999
5993,3.0,,,,,,,65.0,,,,4,note_on,,70.0,65.0,70.0,228067,950.2791666666667
5994,3.0,,,,,,,60.0,,,,49,note_on,,0.0,60.0,0.0,228116,950.4833333333333
5995,3.0,,,,,,,48.0,,,,4,note_on,,0.0,48.0,0.0,228120,950.5
5996,3.0,,,,,,,41.0,,,,0,note_on,,0.0,41.0,0.0,228120,950.5
5997,3.0,,,,,,,45.0,,,,0,note_on,,0.0,45.0,0.0,228120,950.5
5998,3.0,,,,,,,65.0,,,,0,note_on,,0.0,65.0,0.0,228120,950.5
5999,3.0,,,,,,,57.0,,,,0,note_on,,0.0,57.0,0.0,228120,950.5
6000,3.0,,,,,,,41.0,,,,0,note_on,,70.0,41.0,70.0,228120,950.5
6001,3.0,,,,,,,45.0,,,,4,note_on,,70.0,45.0,70.0,228124,950.5166666666667
6002,3.0,,,,,,,57.0,,,,1,note_on,,70.0,57.0,70.0,228125,950.5208333333334
6003,3.0,,,,,,,48.0,,,,0,note_on,,70.0,48.0,70.0,228125,950.5208333333334
6004,3.0,,,,,,,60.0,,,,1,note_on,,70.0,60.0,70.0,228126,950.525
6005,3.0,,,,,,,65.0,,,,1,note_on,,70.0,65.0,70.0,228127,950.5291666666667
6006,3.0,,,,,,,65.0,,,,113,note_on,,0.0,65.0,0.0,228240,951.0
6007,3.0,,,,,,,57.0,,,,0,note_on,,0.0,57.0,0.0,228240,951.0
6008,3.0,,,,,,,60.0,,,,0,note_on,,0.0,60.0,0.0,228240,951.0
6009,3.0,,,,,,,57.0,,,,0,note_on,,70.0,57.0,70.0,228240,951.0
6010,3.0,,,,,,,60.0,,,,3,note_on,,70.0,60.0,70.0,228243,951.0124999999999
6011,3.0,,,,,,,65.0,,,,4,note_on,,70.0,65.0,70.0,228247,951.0291666666667
6012,3.0,,,,,,,60.0,,,,49,note_on,,0.0,60.0,0.0,228296,951.2333333333333
6013,3.0,,,,,,,48.0,,,,4,note_on,,0.0,48.0,0.0,228300,951.25
6014,3.0,,,,,,,41.0,,,,0,note_on,,0.0,41.0,0.0,228300,951.25
6015,3.0,,,,,,,45.0,,,,0,note_on,,0.0,45.0,0.0,228300,951.25
6016,3.0,,,,,,,65.0,,,,0,note_on,,0.0,65.0,0.0,228300,951.25
6017,3.0,,,,,,,57.0,,,,0,note_on,,0.0,57.0,0.0,228300,951.25
6018,3.0,,,,,,,41.0,,,,0,note_on,,70.0,41.0,70.0,228300,951.25
6019,3.0,,,,,,,45.0,,,,4,note_on,,70.0,45.0,70.0,228304,951.2666666666667
6020,3.0,,,,,,,57.0,,,,1,note_on,,70.0,57.0,70.0,228305,951.2708333333334
6021,3.0,,,,,,,48.0,,,,0,note_on,,70.0,48.0,70.0,228305,951.2708333333334
6022,3.0,,,,,,,60.0,,,,1,note_on,,70.0,60.0,70.0,228306,951.275
6023,3.0,,,,,,,65.0,,,,1,note_on,,70.0,65.0,70.0,228307,951.2791666666667
6024,3.0,,,,,,,65.0,,,,113,note_on,,0.0,65.0,0.0,228420,951.75
6025,3.0,,,,,,,57.0,,,,0,note_on,,0.0,57.0,0.0,228420,951.75
6026,3.0,,,,,,,60.0,,,,0,note_on,,0.0,60.0,0.0,228420,951.75
6027,3.0,,,,,,,57.0,,,,0,note_on,,70.0,57.0,70.0,228420,951.75
6028,3.0,,,,,,,60.0,,,,3,note_on,,70.0,60.0,70.0,228423,951.7624999999999
6029,3.0,,,,,,,65.0,,,,4,note_on,,70.0,65.0,70.0,228427,951.7791666666667
6030,3.0,,,,,,,60.0,,,,49,note_on,,0.0,60.0,0.0,228476,951.9833333333333
6031,3.0,,,,,,,48.0,,,,4,note_on,,0.0,48.0,0.0,228480,952.0
6032,3.0,,,,,,,41.0,,,,0,note_on,,0.0,41.0,0.0,228480,952.0
6033,3.0,,,,,,,45.0,,,,0,note_on,,0.0,45.0,0.0,228480,952.0
6034,3.0,,,,,,,65.0,,,,0,note_on,,0.0,65.0,0.0,228480,952.0
6035,3.0,,,,,,,57.0,,,,0,note_on,,0.0,57.0,0.0,228480,952.0
6036,3.0,,,,,,,48.0,,,,0,note_on,,70.0,48.0,70.0,228480,952.0
6037,3.0,,,,,,,52.0,,,,4,note_on,,70.0,52.0,70.0,228484,952.0166666666667
6038,3.0,,,,,,,55.0,,,,1,note_on,,70.0,55.0,70.0,228485,952.0208333333334
6039,3.0,,,,,,,60.0,,,,1,note_on,,70.0,60.0,70.0,228486,952.025
6040,3.0,,,,,,,64.0,,,,1,note_on,,70.0,64.0,70.0,228487,952.0291666666667
6041,3.0,,,,,,,64.0,,,,113,note_on,,0.0,64.0,0.0,228600,952.5
6042,3.0,,,,,,,55.0,,,,0,note_on,,0.0,55.0,0.0,228600,952.5
6043,3.0,,,,,,,60.0,,,,0,note_on,,0.0,60.0,0.0,228600,952.5
6044,3.0,,,,,,,55.0,,,,0,note_on,,70.0,55.0,70.0,228600,952.5
6045,3.0,,,,,,,60.0,,,,4,note_on,,70.0,60.0,70.0,228604,952.5166666666667
6046,3.0,,,,,,,64.0,,,,3,note_on,,70.0,64.0,70.0,228607,952.5291666666667
6047,3.0,,,,,,,64.0,,,,53,note_on,,0.0,64.0,0.0,228660,952.75
6048,3.0,,,,,,,55.0,,,,0,note_on,,0.0,55.0,0.0,228660,952.75
6049,3.0,,,,,,,48.0,,,,0,note_on,,0.0,48.0,0.0,228660,952.75
6050,3.0,,,,,,,52.0,,,,0,note_on,,0.0,52.0,0.0,228660,952.75
6051,3.0,,,,,,,60.0,,,,0,note_on,,0.0,60.0,0.0,228660,952.75
6052,3.0,,,,,,,48.0,,,,0,note_on,,70.0,48.0,70.0,228660,952.75
6053,3.0,,,,,,,52.0,,,,4,note_on,,70.0,52.0,70.0,228664,952.7666666666667
6054,3.0,,,,,,,55.0,,,,1,note_on,,70.0,55.0,70.0,228665,952.7708333333334
6055,3.0,,,,,,,60.0,,,,1,note_on,,70.0,60.0,70.0,228666,952.775
6056,3.0,,,,,,,64.0,,,,1,note_on,,70.0,64.0,70.0,228667,952.7791666666667
6057,3.0,,,,,,,64.0,,,,113,note_on,,0.0,64.0,0.0,228780,953.25
6058,3.0,,,,,,,55.0,,,,0,note_on,,0.0,55.0,0.0,228780,953.25
6059,3.0,,,,,,,60.0,,,,0,note_on,,0.0,60.0,0.0,228780,953.25
6060,3.0,,,,,,,55.0,,,,0,note_on,,70.0,55.0,70.0,228780,953.25
6061,3.0,,,,,,,60.0,,,,4,note_on,,70.0,60.0,70.0,228784,953.2666666666667
6062,3.0,,,,,,,64.0,,,,3,note_on,,70.0,64.0,70.0,228787,953.2791666666667
6063,3.0,,,,,,,64.0,,,,53,note_on,,0.0,64.0,0.0,228840,953.5
6064,3.0,,,,,,,55.0,,,,0,note_on,,0.0,55.0,0.0,228840,953.5
6065,3.0,,,,,,,48.0,,,,0,note_on,,0.0,48.0,0.0,228840,953.5
6066,3.0,,,,,,,52.0,,,,0,note_on,,0.0,52.0,0.0,228840,953.5
6067,3.0,,,,,,,60.0,,,,0,note_on,,0.0,60.0,0.0,228840,953.5
6068,3.0,,,,,,,43.0,,,,0,note_on,,70.0,43.0,70.0,228840,953.5
6069,3.0,,,,,,,47.0,,,,2,note_on,,70.0,47.0,70.0,228842,953.5083333333333
6070,3.0,,,,,,,50.0,,,,2,note_on,,70.0,50.0,70.0,228844,953.5166666666667
6071,3.0,,,,,,,55.0,,,,1,note_on,,70.0,55.0,70.0,228845,953.5208333333334
6072,3.0,,,,,,,59.0,,,,1,note_on,,70.0,59.0,70.0,228846,953.525
6073,3.0,,,,,,,67.0,,,,1,note_on,,70.0,67.0,70.0,228847,953.5291666666667
6074,3.0,,,,,,,67.0,,,,113,note_on,,0.0,67.0,0.0,228960,954.0
6075,3.0,,,,,,,55.0,,,,0,note_on,,0.0,55.0,0.0,228960,954.0
6076,3.0,,,,,,,59.0,,,,0,note_on,,0.0,59.0,0.0,228960,954.0
6077,3.0,,,,,,,55.0,,,,0,note_on,,70.0,55.0,70.0,228960,954.0
6078,3.0,,,,,,,59.0,,,,4,note_on,,70.0,59.0,70.0,228964,954.0166666666667
6079,3.0,,,,,,,67.0,,,,3,note_on,,70.0,67.0,70.0,228967,954.0291666666667
6080,3.0,,,,,,,67.0,,,,53,note_on,,0.0,67.0,0.0,229020,954.25
6081,3.0,,,,,,,50.0,,,,0,note_on,,0.0,50.0,0.0,229020,954.25
6082,3.0,,,,,,,43.0,,,,0,note_on,,0.0,43.0,0.0,229020,954.25
6083,3.0,,,,,,,47.0,,,,0,note_on,,0.0,47.0,0.0,229020,954.25
6084,3.0,,,,,,,59.0,,,,0,note_on,,0.0,59.0,0.0,229020,954.25
6085,3.0,,,,,,,55.0,,,,0,note_on,,0.0,55.0,0.0,229020,954.25
6086,3.0,,,,,,,43.0,,,,0,note_on,,70.0,43.0,70.0,229020,954.25
6087,3.0,,,,,,,47.0,,,,2,note_on,,70.0,47.0,70.0,229022,954.2583333333333
6088,3.0,,,,,,,50.0,,,,2,note_on,,70.0,50.0,70.0,229024,954.2666666666667
6089,3.0,,,,,,,55.0,,,,1,note_on,,70.0,55.0,70.0,229025,954.2708333333334
6090,3.0,,,,,,,59.0,,,,1,note_on,,70.0,59.0,70.0,229026,954.275
6091,3.0,,,,,,,67.0,,,,1,note_on,,70.0,67.0,70.0,229027,954.2791666666667
6092,3.0,,,,,,,67.0,,,,113,note_on,,0.0,67.0,0.0,229140,954.75
6093,3.0,,,,,,,55.0,,,,0,note_on,,0.0,55.0,0.0,229140,954.75
6094,3.0,,,,,,,59.0,,,,0,note_on,,0.0,59.0,0.0,229140,954.75
6095,3.0,,,,,,,55.0,,,,0,note_on,,70.0,55.0,70.0,229140,954.75
6096,3.0,,,,,,,59.0,,,,4,note_on,,70.0,59.0,70.0,229144,954.7666666666667
6097,3.0,,,,,,,67.0,,,,3,note_on,,70.0,67.0,70.0,229147,954.7791666666667
6098,3.0,,,,,,,67.0,,,,53,note_on,,0.0,67.0,0.0,229200,955.0
6099,3.0,,,,,,,50.0,,,,0,note_on,,0.0,50.0,0.0,229200,955.0
6100,3.0,,,,,,,43.0,,,,0,note_on,,0.0,43.0,0.0,229200,955.0
6101,3.0,,,,,,,47.0,,,,0,note_on,,0.0,47.0,0.0,229200,955.0
6102,3.0,,,,,,,59.0,,,,0,note_on,,0.0,59.0,0.0,229200,955.0
6103,3.0,,,,,,,55.0,,,,0,note_on,,0.0,55.0,0.0,229200,955.0
6104,3.0,,,,,,,48.0,,,,0,note_on,,70.0,48.0,70.0,229200,955.0
6105,3.0,,,,,,,52.0,,,,4,note_on,,70.0,52.0,70.0,229204,955.0166666666667
6106,3.0,,,,,,,55.0,,,,1,note_on,,70.0,55.0,70.0,229205,955.0208333333334
6107,3.0,,,,,,,60.0,,,,1,note_on,,70.0,60.0,70.0,229206,955.025
6108,3.0,,,,,,,64.0,,,,1,note_on,,70.0,64.0,70.0,229207,955.0291666666667
6109,3.0,,,,,,,64.0,,,,113,note_on,,0.0,64.0,0.0,229320,955.5
6110,3.0,,,,,,,55.0,,,,0,note_on,,0.0,55.0,0.0,229320,955.5
6111,3.0,,,,,,,60.0,,,,0,note_on,,0.0,60.0,0.0,229320,955.5
6112,3.0,,,,,,,55.0,,,,0,note_on,,70.0,55.0,70.0,229320,955.5
6113,3.0,,,,,,,60.0,,,,4,note_on,,70.0,60.0,70.0,229324,955.5166666666667
6114,3.0,,,,,,,64.0,,,,3,note_on,,70.0,64.0,70.0,229327,955.5291666666667
6115,3.0,,,,,,,64.0,,,,53,note_on,,0.0,64.0,0.0,229380,955.75
6116,3.0,,,,,,,55.0,,,,0,note_on,,0.0,55.0,0.0,229380,955.75
6117,3.0,,,,,,,48.0,,,,0,note_on,,0.0,48.0,0.0,229380,955.75
6118,3.0,,,,,,,52.0,,,,0,note_on,,0.0,52.0,0.0,229380,955.75
6119,3.0,,,,,,,60.0,,,,0,note_on,,0.0,60.0,0.0,229380,955.75
6120,3.0,,,,,,,48.0,,,,0,note_on,,70.0,48.0,70.0,229380,955.75
6121,3.0,,,,,,,52.0,,,,4,note_on,,70.0,52.0,70.0,229384,955.7666666666667
6122,3.0,,,,,,,55.0,,,,1,note_on,,70.0,55.0,70.0,229385,955.7708333333334
6123,3.0,,,,,,,60.0,,,,1,note_on,,70.0,60.0,70.0,229386,955.775
6124,3.0,,,,,,,64.0,,,,1,note_on,,70.0,64.0,70.0,229387,955.7791666666667
6125,3.0,,,,,,,64.0,,,,113,note_on,,0.0,64.0,0.0,229500,956.25
6126,3.0,,,,,,,55.0,,,,0,note_on,,0.0,55.0,0.0,229500,956.25
6127,3.0,,,,,,,60.0,,,,0,note_on,,0.0,60.0,0.0,229500,956.25
6128,3.0,,,,,,,55.0,,,,0,note_on,,70.0,55.0,70.0,229500,956.25
6129,3.0,,,,,,,60.0,,,,4,note_on,,70.0,60.0,70.0,229504,956.2666666666667
6130,3.0,,,,,,,64.0,,,,3,note_on,,70.0,64.0,70.0,229507,956.2791666666667
6131,3.0,,,,,,,64.0,,,,53,note_on,,0.0,64.0,0.0,229560,956.5
6132,3.0,,,,,,,55.0,,,,0,note_on,,0.0,55.0,0.0,229560,956.5
6133,3.0,,,,,,,48.0,,,,0,note_on,,0.0,48.0,0.0,229560,956.5
6134,3.0,,,,,,,52.0,,,,0,note_on,,0.0,52.0,0.0,229560,956.5
6135,3.0,,,,,,,60.0,,,,0,note_on,,0.0,60.0,0.0,229560,956.5
6136,3.0,,,,,,,43.0,,,,0,note_on,,70.0,43.0,70.0,229560,956.5
6137,3.0,,,,,,,47.0,,,,2,note_on,,70.0,47.0,70.0,229562,956.5083333333333
6138,3.0,,,,,,,50.0,,,,2,note_on,,70.0,50.0,70.0,229564,956.5166666666667
6139,3.0,,,,,,,55.0,,,,1,note_on,,70.0,55.0,70.0,229565,956.5208333333334
6140,3.0,,,,,,,59.0,,,,1,note_on,,70.0,59.0,70.0,229566,956.525
6141,3.0,,,,,,,67.0,,,,1,note_on,,70.0,67.0,70.0,229567,956.5291666666667
6142,3.0,,,,,,,67.0,,,,113,note_on,,0.0,67.0,0.0,229680,957.0
6143,3.0,,,,,,,55.0,,,,0,note_on,,0.0,55.0,0.0,229680,957.0
6144,3.0,,,,,,,59.0,,,,0,note_on,,0.0,59.0,0.0,229680,957.0
6145,3.0,,,,,,,55.0,,,,0,note_on,,70.0,55.0,70.0,229680,957.0
6146,3.0,,,,,,,59.0,,,,4,note_on,,70.0,59.0,70.0,229684,957.0166666666667
6147,3.0,,,,,,,67.0,,,,3,note_on,,70.0,67.0,70.0,229687,957.0291666666667
6148,3.0,,,,,,,67.0,,,,53,note_on,,0.0,67.0,0.0,229740,957.25
6149,3.0,,,,,,,50.0,,,,0,note_on,,0.0,50.0,0.0,229740,957.25
6150,3.0,,,,,,,43.0,,,,0,note_on,,0.0,43.0,0.0,229740,957.25
6151,3.0,,,,,,,47.0,,,,0,note_on,,0.0,47.0,0.0,229740,957.25
6152,3.0,,,,,,,59.0,,,,0,note_on,,0.0,59.0,0.0,229740,957.25
6153,3.0,,,,,,,55.0,,,,0,note_on,,0.0,55.0,0.0,229740,957.25
6154,3.0,,,,,,,43.0,,,,0,note_on,,70.0,43.0,70.0,229740,957.25
6155,3.0,,,,,,,47.0,,,,2,note_on,,70.0,47.0,70.0,229742,957.2583333333333
6156,3.0,,,,,,,50.0,,,,2,note_on,,70.0,50.0,70.0,229744,957.2666666666667
6157,3.0,,,,,,,55.0,,,,1,note_on,,70.0,55.0,70.0,229745,957.2708333333334
6158,3.0,,,,,,,59.0,,,,1,note_on,,70.0,59.0,70.0,229746,957.275
6159,3.0,,,,,,,67.0,,,,1,note_on,,70.0,67.0,70.0,229747,957.2791666666667
6160,3.0,,,,,,,67.0,,,,113,note_on,,0.0,67.0,0.0,229860,957.75
6161,3.0,,,,,,,55.0,,,,0,note_on,,0.0,55.0,0.0,229860,957.75
6162,3.0,,,,,,,59.0,,,,0,note_on,,0.0,59.0,0.0,229860,957.75
6163,3.0,,,,,,,55.0,,,,0,note_on,,70.0,55.0,70.0,229860,957.75
6164,3.0,,,,,,,59.0,,,,4,note_on,,70.0,59.0,70.0,229864,957.7666666666667
6165,3.0,,,,,,,67.0,,,,3,note_on,,70.0,67.0,70.0,229867,957.7791666666667
6166,3.0,,,,,,,67.0,,,,53,note_on,,0.0,67.0,0.0,229920,958.0
6167,3.0,,,,,,,50.0,,,,0,note_on,,0.0,50.0,0.0,229920,958.0
6168,3.0,,,,,,,43.0,,,,0,note_on,,0.0,43.0,0.0,229920,958.0
6169,3.0,,,,,,,47.0,,,,0,note_on,,0.0,47.0,0.0,229920,958.0
6170,3.0,,,,,,,59.0,,,,0,note_on,,0.0,59.0,0.0,229920,958.0
6171,3.0,,,,,,,55.0,,,,0,note_on,,0.0,55.0,0.0,229920,958.0
6172,3.0,,,,,,,45.0,,,,0,note_on,,70.0,45.0,70.0,229920,958.0
6173,3.0,,,,,,,52.0,,,,2,note_on,,70.0,52.0,70.0,229922,958.0083333333333
6174,3.0,,,,,,,57.0,,,,2,note_on,,70.0,57.0,70.0,229924,958.0166666666667
6175,3.0,,,,,,,60.0,,,,1,note_on,,70.0,60.0,70.0,229925,958.0208333333334
6176,3.0,,,,,,,64.0,,,,1,note_on,,70.0,64.0,70.0,229926,958.025
6177,3.0,,,,,,,64.0,,,,114,note_on,,0.0,64.0,0.0,230040,958.5
6178,3.0,,,,,,,57.0,,,,0,note_on,,0.0,57.0,0.0,230040,958.5
6179,3.0,,,,,,,60.0,,,,0,note_on,,0.0,60.0,0.0,230040,958.5
6180,3.0,,,,,,,57.0,,,,0,note_on,,70.0,57.0,70.0,230040,958.5
6181,3.0,,,,,,,60.0,,,,4,note_on,,70.0,60.0,70.0,230044,958.5166666666667
6182,3.0,,,,,,,64.0,,,,3,note_on,,70.0,64.0,70.0,230047,958.5291666666667
6183,3.0,,,,,,,64.0,,,,53,note_on,,0.0,64.0,0.0,230100,958.75
6184,3.0,,,,,,,57.0,,,,0,note_on,,0.0,57.0,0.0,230100,958.75
6185,3.0,,,,,,,45.0,,,,0,note_on,,0.0,45.0,0.0,230100,958.75
6186,3.0,,,,,,,52.0,,,,0,note_on,,0.0,52.0,0.0,230100,958.75
6187,3.0,,,,,,,60.0,,,,0,note_on,,0.0,60.0,0.0,230100,958.75
6188,3.0,,,,,,,45.0,,,,0,note_on,,70.0,45.0,70.0,230100,958.75
6189,3.0,,,,,,,52.0,,,,2,note_on,,70.0,52.0,70.0,230102,958.7583333333333
6190,3.0,,,,,,,57.0,,,,2,note_on,,70.0,57.0,70.0,230104,958.7666666666667
6191,3.0,,,,,,,60.0,,,,1,note_on,,70.0,60.0,70.0,230105,958.7708333333334
6192,3.0,,,,,,,64.0,,,,1,note_on,,70.0,64.0,70.0,230106,958.775
6193,3.0,,,,,,,60.0,,,,54,note_on,,0.0,60.0,0.0,230160,959.0
6194,3.0,,,,,,,57.0,,,,0,note_on,,0.0,57.0,0.0,230160,959.0
6195,3.0,,,,,,,64.0,,,,0,note_on,,100.0,64.0,100.0,230160,959.0
6196,3.0,,,,,,,60.0,,,,4,note_on,,100.0,60.0,100.0,230164,959.0166666666667
6197,3.0,,,,,,,57.0,,,,3,note_on,,100.0,57.0,100.0,230167,959.0291666666667
6198,3.0,,,,,,,57.0,,,,53,note_on,,0.0,57.0,0.0,230220,959.25
6199,3.0,,,,,,,64.0,,,,0,note_on,,0.0,64.0,0.0,230220,959.25
6200,3.0,,,,,,,64.0,,,,0,note_on,,0.0,64.0,0.0,230220,959.25
6201,3.0,,,,,,,60.0,,,,0,note_on,,0.0,60.0,0.0,230220,959.25
6202,3.0,,,,,,,57.0,,,,0,note_on,,70.0,57.0,70.0,230220,959.25
6203,3.0,,,,,,,60.0,,,,4,note_on,,70.0,60.0,70.0,230224,959.2666666666667
6204,3.0,,,,,,,64.0,,,,3,note_on,,70.0,64.0,70.0,230227,959.2791666666667
6205,3.0,,,,,,,64.0,,,,53,note_on,,0.0,64.0,0.0,230280,959.5
6206,3.0,,,,,,,57.0,,,,0,note_on,,0.0,57.0,0.0,230280,959.5
6207,3.0,,,,,,,52.0,,,,0,note_on,,0.0,52.0,0.0,230280,959.5
6208,3.0,,,,,,,45.0,,,,0,note_on,,0.0,45.0,0.0,230280,959.5
6209,3.0,,,,,,,60.0,,,,0,note_on,,0.0,60.0,0.0,230280,959.5
6210,3.0,,,,,,,48.0,,,,0,note_on,,70.0,48.0,70.0,230280,959.5
6211,3.0,,,,,,,52.0,,,,4,note_on,,70.0,52.0,70.0,230284,959.5166666666667
6212,3.0,,,,,,,55.0,,,,1,note_on,,70.0,55.0,70.0,230285,959.5208333333334
6213,3.0,,,,,,,60.0,,,,1,note_on,,70.0,60.0,70.0,230286,959.525
6214,3.0,,,,,,,64.0,,,,1,note_on,,70.0,64.0,70.0,230287,959.5291666666667
6215,3.0,,,,,,,64.0,,,,113,note_on,,0.0,64.0,0.0,230400,960.0
6216,3.0,,,,,,,55.0,,,,0,note_on,,0.0,55.0,0.0,230400,960.0
6217,3.0,,,,,,,60.0,,,,0,note_on,,0.0,60.0,0.0,230400,960.0
6218,3.0,,,,,,,55.0,,,,0,note_on,,70.0,55.0,70.0,230400,960.0
6219,3.0,,,,,,,60.0,,,,4,note_on,,70.0,60.0,70.0,230404,960.0166666666667
6220,3.0,,,,,,,64.0,,,,3,note_on,,70.0,64.0,70.0,230407,960.0291666666667
6221,3.0,,,,,,,64.0,,,,53,note_on,,0.0,64.0,0.0,230460,960.25
6222,3.0,,,,,,,55.0,,,,0,note_on,,0.0,55.0,0.0,230460,960.25
6223,3.0,,,,,,,48.0,,,,0,note_on,,0.0,48.0,0.0,230460,960.25
6224,3.0,,,,,,,52.0,,,,0,note_on,,0.0,52.0,0.0,230460,960.25
6225,3.0,,,,,,,60.0,,,,0,note_on,,0.0,60.0,0.0,230460,960.25
6226,3.0,,,,,,,48.0,,,,0,note_on,,70.0,48.0,70.0,230460,960.25
6227,3.0,,,,,,,52.0,,,,4,note_on,,70.0,52.0,70.0,230464,960.2666666666667
6228,3.0,,,,,,,55.0,,,,1,note_on,,70.0,55.0,70.0,230465,960.2708333333334
6229,3.0,,,,,,,60.0,,,,1,note_on,,70.0,60.0,70.0,230466,960.275
6230,3.0,,,,,,,64.0,,,,1,note_on,,70.0,64.0,70.0,230467,960.2791666666667
6231,3.0,,,,,,,64.0,,,,113,note_on,,0.0,64.0,0.0,230580,960.75
6232,3.0,,,,,,,55.0,,,,0,note_on,,0.0,55.0,0.0,230580,960.75
6233,3.0,,,,,,,60.0,,,,0,note_on,,0.0,60.0,0.0,230580,960.75
6234,3.0,,,,,,,55.0,,,,0,note_on,,70.0,55.0,70.0,230580,960.75
6235,3.0,,,,,,,60.0,,,,4,note_on,,70.0,60.0,70.0,230584,960.7666666666667
6236,3.0,,,,,,,64.0,,,,3,note_on,,70.0,64.0,70.0,230587,960.7791666666667
6237,3.0,,,,,,,64.0,,,,53,note_on,,0.0,64.0,0.0,230640,961.0
6238,3.0,,,,,,,55.0,,,,0,note_on,,0.0,55.0,0.0,230640,961.0
6239,3.0,,,,,,,48.0,,,,0,note_on,,0.0,48.0,0.0,230640,961.0
6240,3.0,,,,,,,52.0,,,,0,note_on,,0.0,52.0,0.0,230640,961.0
6241,3.0,,,,,,,60.0,,,,0,note_on,,0.0,60.0,0.0,230640,961.0
6242,3.0,,,,,,,45.0,,,,0,note_on,,70.0,45.0,70.0,230640,961.0
6243,3.0,,,,,,,52.0,,,,2,note_on,,70.0,52.0,70.0,230642,961.0083333333333
6244,3.0,,,,,,,57.0,,,,2,note_on,,70.0,57.0,70.0,230644,961.0166666666667
6245,3.0,,,,,,,60.0,,,,1,note_on,,70.0,60.0,70.0,230645,961.0208333333334
6246,3.0,,,,,,,64.0,,,,1,note_on,,70.0,64.0,70.0,230646,961.025
6247,3.0,,,,,,,64.0,,,,114,note_on,,0.0,64.0,0.0,230760,961.5
6248,3.0,,,,,,,60.0,,,,0,note_on,,0.0,60.0,0.0,230760,961.5
6249,3.0,,,,,,,57.0,,,,0,note_on,,70.0,57.0,70.0,230760,961.5
6250,3.0,,,,,,,60.0,,,,4,note_on,,70.0,60.0,70.0,230764,961.5166666666667
6251,3.0,,,,,,,64.0,,,,3,note_on,,70.0,64.0,70.0,230767,961.5291666666667
6252,3.0,,,,,,,64.0,,,,53,note_on,,0.0,64.0,0.0,230820,961.75
6253,3.0,,,,,,,52.0,,,,0,note_on,,0.0,52.0,0.0,230820,961.75
6254,3.0,,,,,,,45.0,,,,0,note_on,,0.0,45.0,0.0,230820,961.75
6255,3.0,,,,,,,57.0,,,,0,note_on,,0.0,57.0,0.0,230820,961.75
6256,3.0,,,,,,,60.0,,,,0,note_on,,0.0,60.0,0.0,230820,961.75
6257,3.0,,,,,,,57.0,,,,0,note_on,,0.0,57.0,0.0,230820,961.75
6258,3.0,,,,,,,45.0,,,,0,note_on,,70.0,45.0,70.0,230820,961.75
6259,3.0,,,,,,,52.0,,,,2,note_on,,70.0,52.0,70.0,230822,961.7583333333333
6260,3.0,,,,,,,57.0,,,,2,note_on,,70.0,57.0,70.0,230824,961.7666666666667
6261,3.0,,,,,,,60.0,,,,1,note_on,,70.0,60.0,70.0,230825,961.7708333333334
6262,3.0,,,,,,,64.0,,,,1,note_on,,70.0,64.0,70.0,230826,961.775
6263,3.0,,,,,,,64.0,,,,114,note_on,,0.0,64.0,0.0,230940,962.25
6264,3.0,,,,,,,60.0,,,,0,note_on,,0.0,60.0,0.0,230940,962.25
6265,3.0,,,,,,,57.0,,,,0,note_on,,70.0,57.0,70.0,230940,962.25
6266,3.0,,,,,,,60.0,,,,4,note_on,,70.0,60.0,70.0,230944,962.2666666666667
6267,3.0,,,,,,,64.0,,,,3,note_on,,70.0,64.0,70.0,230947,962.2791666666667
6268,3.0,,,,,,,64.0,,,,53,note_on,,0.0,64.0,0.0,231000,962.5
6269,3.0,,,,,,,52.0,,,,0,note_on,,0.0,52.0,0.0,231000,962.5
6270,3.0,,,,,,,45.0,,,,0,note_on,,0.0,45.0,0.0,231000,962.5
6271,3.0,,,,,,,57.0,,,,0,note_on,,0.0,57.0,0.0,231000,962.5
6272,3.0,,,,,,,60.0,,,,0,note_on,,0.0,60.0,0.0,231000,962.5
6273,3.0,,,,,,,57.0,,,,0,note_on,,0.0,57.0,0.0,231000,962.5
6274,3.0,,,,,,,48.0,,,,0,note_on,,70.0,48.0,70.0,231000,962.5
6275,3.0,,,,,,,52.0,,,,4,note_on,,70.0,52.0,70.0,231004,962.5166666666667
6276,3.0,,,,,,,55.0,,,,1,note_on,,70.0,55.0,70.0,231005,962.5208333333334
6277,3.0,,,,,,,60.0,,,,1,note_on,,70.0,60.0,70.0,231006,962.525
6278,3.0,,,,,,,64.0,,,,1,note_on,,70.0,64.0,70.0,231007,962.5291666666667
6279,3.0,,,,,,,64.0,,,,113,note_on,,0.0,64.0,0.0,231120,963.0
6280,3.0,,,,,,,55.0,,,,0,note_on,,0.0,55.0,0.0,231120,963.0
6281,3.0,,,,,,,60.0,,,,0,note_on,,0.0,60.0,0.0,231120,963.0
6282,3.0,,,,,,,55.0,,,,0,note_on,,70.0,55.0,70.0,231120,963.0
6283,3.0,,,,,,,60.0,,,,4,note_on,,70.0,60.0,70.0,231124,963.0166666666667
6284,3.0,,,,,,,64.0,,,,3,note_on,,70.0,64.0,70.0,231127,963.0291666666667
6285,3.0,,,,,,,64.0,,,,53,note_on,,0.0,64.0,0.0,231180,963.25
6286,3.0,,,,,,,55.0,,,,0,note_on,,0.0,55.0,0.0,231180,963.25
6287,3.0,,,,,,,48.0,,,,0,note_on,,0.0,48.0,0.0,231180,963.25
6288,3.0,,,,,,,52.0,,,,0,note_on,,0.0,52.0,0.0,231180,963.25
6289,3.0,,,,,,,60.0,,,,0,note_on,,0.0,60.0,0.0,231180,963.25
6290,3.0,,,,,,,48.0,,,,0,note_on,,70.0,48.0,70.0,231180,963.25
6291,3.0,,,,,,,52.0,,,,4,note_on,,70.0,52.0,70.0,231184,963.2666666666667
6292,3.0,,,,,,,55.0,,,,1,note_on,,70.0,55.0,70.0,231185,963.2708333333334
6293,3.0,,,,,,,60.0,,,,1,note_on,,70.0,60.0,70.0,231186,963.275
6294,3.0,,,,,,,64.0,,,,1,note_on,,70.0,64.0,70.0,231187,963.2791666666667
6295,3.0,,,,,,,64.0,,,,113,note_on,,0.0,64.0,0.0,231300,963.75
6296,3.0,,,,,,,55.0,,,,0,note_on,,0.0,55.0,0.0,231300,963.75
6297,3.0,,,,,,,60.0,,,,0,note_on,,0.0,60.0,0.0,231300,963.75
6298,3.0,,,,,,,55.0,,,,0,note_on,,70.0,55.0,70.0,231300,963.75
6299,3.0,,,,,,,60.0,,,,4,note_on,,70.0,60.0,70.0,231304,963.7666666666667
6300,3.0,,,,,,,64.0,,,,3,note_on,,70.0,64.0,70.0,231307,963.7791666666667
6301,3.0,,,,,,,64.0,,,,53,note_on,,0.0,64.0,0.0,231360,964.0
6302,3.0,,,,,,,55.0,,,,0,note_on,,0.0,55.0,0.0,231360,964.0
6303,3.0,,,,,,,48.0,,,,0,note_on,,0.0,48.0,0.0,231360,964.0
6304,3.0,,,,,,,52.0,,,,0,note_on,,0.0,52.0,0.0,231360,964.0
6305,3.0,,,,,,,60.0,,,,0,note_on,,0.0,60.0,0.0,231360,964.0
6306,3.0,,,,,,,45.0,,,,0,note_on,,70.0,45.0,70.0,231360,964.0
6307,3.0,,,,,,,52.0,,,,2,note_on,,70.0,52.0,70.0,231362,964.0083333333333
6308,3.0,,,,,,,57.0,,,,2,note_on,,70.0,57.0,70.0,231364,964.0166666666667
6309,3.0,,,,,,,60.0,,,,1,note_on,,70.0,60.0,70.0,231365,964.0208333333334
6310,3.0,,,,,,,64.0,,,,1,note_on,,70.0,64.0,70.0,231366,964.025
6311,3.0,,,,,,,64.0,,,,114,note_on,,0.0,64.0,0.0,231480,964.5
6312,3.0,,,,,,,60.0,,,,0,note_on,,0.0,60.0,0.0,231480,964.5
6313,3.0,,,,,,,57.0,,,,0,note_on,,70.0,57.0,70.0,231480,964.5
6314,3.0,,,,,,,60.0,,,,4,note_on,,70.0,60.0,70.0,231484,964.5166666666667
6315,3.0,,,,,,,64.0,,,,3,note_on,,70.0,64.0,70.0,231487,964.5291666666667
6316,3.0,,,,,,,64.0,,,,53,note_on,,0.0,64.0,0.0,231540,964.75
6317,3.0,,,,,,,52.0,,,,0,note_on,,0.0,52.0,0.0,231540,964.75
6318,3.0,,,,,,,45.0,,,,0,note_on,,0.0,45.0,0.0,231540,964.75
6319,3.0,,,,,,,57.0,,,,0,note_on,,0.0,57.0,0.0,231540,964.75
6320,3.0,,,,,,,60.0,,,,0,note_on,,0.0,60.0,0.0,231540,964.75
6321,3.0,,,,,,,57.0,,,,0,note_on,,0.0,57.0,0.0,231540,964.75
6322,3.0,,,,,,,45.0,,,,0,note_on,,70.0,45.0,70.0,231540,964.75
6323,3.0,,,,,,,52.0,,,,2,note_on,,70.0,52.0,70.0,231542,964.7583333333333
6324,3.0,,,,,,,57.0,,,,2,note_on,,70.0,57.0,70.0,231544,964.7666666666667
6325,3.0,,,,,,,60.0,,,,1,note_on,,70.0,60.0,70.0,231545,964.7708333333334
6326,3.0,,,,,,,64.0,,,,1,note_on,,70.0,64.0,70.0,231546,964.775
6327,3.0,,,,,,,64.0,,,,114,note_on,,0.0,64.0,0.0,231660,965.25
6328,3.0,,,,,,,60.0,,,,0,note_on,,0.0,60.0,0.0,231660,965.25
6329,3.0,,,,,,,57.0,,,,0,note_on,,70.0,57.0,70.0,231660,965.25
6330,3.0,,,,,,,60.0,,,,4,note_on,,70.0,60.0,70.0,231664,965.2666666666667
6331,3.0,,,,,,,64.0,,,,3,note_on,,70.0,64.0,70.0,231667,965.2791666666667
6332,3.0,,,,,,,64.0,,,,53,note_on,,0.0,64.0,0.0,231720,965.5
6333,3.0,,,,,,,52.0,,,,0,note_on,,0.0,52.0,0.0,231720,965.5
6334,3.0,,,,,,,45.0,,,,0,note_on,,0.0,45.0,0.0,231720,965.5
6335,3.0,,,,,,,57.0,,,,0,note_on,,0.0,57.0,0.0,231720,965.5
6336,3.0,,,,,,,60.0,,,,0,note_on,,0.0,60.0,0.0,231720,965.5
6337,3.0,,,,,,,57.0,,,,0,note_on,,0.0,57.0,0.0,231720,965.5
6338,3.0,,,,,,,41.0,,,,0,note_on,,70.0,41.0,70.0,231720,965.5
6339,3.0,,,,,,,45.0,,,,4,note_on,,70.0,45.0,70.0,231724,965.5166666666667
6340,3.0,,,,,,,57.0,,,,1,note_on,,70.0,57.0,70.0,231725,965.5208333333334
6341,3.0,,,,,,,48.0,,,,0,note_on,,70.0,48.0,70.0,231725,965.5208333333334
6342,3.0,,,,,,,60.0,,,,1,note_on,,70.0,60.0,70.0,231726,965.525
6343,3.0,,,,,,,65.0,,,,1,note_on,,70.0,65.0,70.0,231727,965.5291666666667
6344,3.0,,,,,,,65.0,,,,113,note_on,,0.0,65.0,0.0,231840,966.0
6345,3.0,,,,,,,57.0,,,,0,note_on,,0.0,57.0,0.0,231840,966.0
6346,3.0,,,,,,,60.0,,,,0,note_on,,0.0,60.0,0.0,231840,966.0
6347,3.0,,,,,,,57.0,,,,0,note_on,,70.0,57.0,70.0,231840,966.0
6348,3.0,,,,,,,60.0,,,,3,note_on,,70.0,60.0,70.0,231843,966.0124999999999
6349,3.0,,,,,,,65.0,,,,4,note_on,,70.0,65.0,70.0,231847,966.0291666666667
6350,3.0,,,,,,,60.0,,,,49,note_on,,0.0,60.0,0.0,231896,966.2333333333333
6351,3.0,,,,,,,48.0,,,,4,note_on,,0.0,48.0,0.0,231900,966.25
6352,3.0,,,,,,,41.0,,,,0,note_on,,0.0,41.0,0.0,231900,966.25
6353,3.0,,,,,,,45.0,,,,0,note_on,,0.0,45.0,0.0,231900,966.25
6354,3.0,,,,,,,65.0,,,,0,note_on,,0.0,65.0,0.0,231900,966.25
6355,3.0,,,,,,,57.0,,,,0,note_on,,0.0,57.0,0.0,231900,966.25
6356,3.0,,,,,,,41.0,,,,0,note_on,,70.0,41.0,70.0,231900,966.25
6357,3.0,,,,,,,45.0,,,,4,note_on,,70.0,45.0,70.0,231904,966.2666666666667
6358,3.0,,,,,,,57.0,,,,1,note_on,,70.0,57.0,70.0,231905,966.2708333333334
6359,3.0,,,,,,,48.0,,,,0,note_on,,70.0,48.0,70.0,231905,966.2708333333334
6360,3.0,,,,,,,60.0,,,,1,note_on,,70.0,60.0,70.0,231906,966.275
6361,3.0,,,,,,,65.0,,,,1,note_on,,70.0,65.0,70.0,231907,966.2791666666667
6362,3.0,,,,,,,65.0,,,,113,note_on,,0.0,65.0,0.0,232020,966.75
6363,3.0,,,,,,,57.0,,,,0,note_on,,0.0,57.0,0.0,232020,966.75
6364,3.0,,,,,,,60.0,,,,0,note_on,,0.0,60.0,0.0,232020,966.75
6365,3.0,,,,,,,57.0,,,,0,note_on,,70.0,57.0,70.0,232020,966.75
6366,3.0,,,,,,,60.0,,,,3,note_on,,70.0,60.0,70.0,232023,966.7624999999999
6367,3.0,,,,,,,65.0,,,,4,note_on,,70.0,65.0,70.0,232027,966.7791666666667
6368,3.0,,,,,,,60.0,,,,49,note_on,,0.0,60.0,0.0,232076,966.9833333333333
6369,3.0,,,,,,,48.0,,,,4,note_on,,0.0,48.0,0.0,232080,967.0
6370,3.0,,,,,,,41.0,,,,0,note_on,,0.0,41.0,0.0,232080,967.0
6371,3.0,,,,,,,45.0,,,,0,note_on,,0.0,45.0,0.0,232080,967.0
6372,3.0,,,,,,,65.0,,,,0,note_on,,0.0,65.0,0.0,232080,967.0
6373,3.0,,,,,,,57.0,,,,0,note_on,,0.0,57.0,0.0,232080,967.0
6374,3.0,,,,,,,43.0,,,,0,note_on,,70.0,43.0,70.0,232080,967.0
6375,3.0,,,,,,,47.0,,,,2,note_on,,70.0,47.0,70.0,232082,967.0083333333333
6376,3.0,,,,,,,50.0,,,,2,note_on,,70.0,50.0,70.0,232084,967.0166666666667
6377,3.0,,,,,,,55.0,,,,1,note_on,,70.0,55.0,70.0,232085,967.0208333333334
6378,3.0,,,,,,,59.0,,,,1,note_on,,70.0,59.0,70.0,232086,967.025
6379,3.0,,,,,,,67.0,,,,1,note_on,,70.0,67.0,70.0,232087,967.0291666666667
6380,3.0,,,,,,,67.0,,,,113,note_on,,0.0,67.0,0.0,232200,967.5
6381,3.0,,,,,,,55.0,,,,0,note_on,,0.0,55.0,0.0,232200,967.5
6382,3.0,,,,,,,59.0,,,,0,note_on,,0.0,59.0,0.0,232200,967.5
6383,3.0,,,,,,,55.0,,,,0,note_on,,70.0,55.0,70.0,232200,967.5
6384,3.0,,,,,,,59.0,,,,4,note_on,,70.0,59.0,70.0,232204,967.5166666666667
6385,3.0,,,,,,,67.0,,,,3,note_on,,70.0,67.0,70.0,232207,967.5291666666667
6386,3.0,,,,,,,67.0,,,,53,note_on,,0.0,67.0,0.0,232260,967.75
6387,3.0,,,,,,,50.0,,,,0,note_on,,0.0,50.0,0.0,232260,967.75
6388,3.0,,,,,,,43.0,,,,0,note_on,,0.0,43.0,0.0,232260,967.75
6389,3.0,,,,,,,47.0,,,,0,note_on,,0.0,47.0,0.0,232260,967.75
6390,3.0,,,,,,,59.0,,,,0,note_on,,0.0,59.0,0.0,232260,967.75
6391,3.0,,,,,,,55.0,,,,0,note_on,,0.0,55.0,0.0,232260,967.75
6392,3.0,,,,,,,43.0,,,,0,note_on,,70.0,43.0,70.0,232260,967.75
6393,3.0,,,,,,,47.0,,,,2,note_on,,70.0,47.0,70.0,232262,967.7583333333333
6394,3.0,,,,,,,50.0,,,,2,note_on,,70.0,50.0,70.0,232264,967.7666666666667
6395,3.0,,,,,,,55.0,,,,1,note_on,,70.0,55.0,70.0,232265,967.7708333333334
6396,3.0,,,,,,,59.0,,,,1,note_on,,70.0,59.0,70.0,232266,967.775
6397,3.0,,,,,,,67.0,,,,1,note_on,,70.0,67.0,70.0,232267,967.7791666666667
6398,3.0,,,,,,,67.0,,,,113,note_on,,0.0,67.0,0.0,232380,968.25
6399,3.0,,,,,,,55.0,,,,0,note_on,,0.0,55.0,0.0,232380,968.25
6400,3.0,,,,,,,59.0,,,,0,note_on,,0.0,59.0,0.0,232380,968.25
6401,3.0,,,,,,,55.0,,,,0,note_on,,70.0,55.0,70.0,232380,968.25
6402,3.0,,,,,,,59.0,,,,4,note_on,,70.0,59.0,70.0,232384,968.2666666666667
6403,3.0,,,,,,,67.0,,,,3,note_on,,70.0,67.0,70.0,232387,968.2791666666667
6404,3.0,,,,,,,67.0,,,,53,note_on,,0.0,67.0,0.0,232440,968.5
6405,3.0,,,,,,,50.0,,,,0,note_on,,0.0,50.0,0.0,232440,968.5
6406,3.0,,,,,,,43.0,,,,0,note_on,,0.0,43.0,0.0,232440,968.5
6407,3.0,,,,,,,47.0,,,,0,note_on,,0.0,47.0,0.0,232440,968.5
6408,3.0,,,,,,,59.0,,,,0,note_on,,0.0,59.0,0.0,232440,968.5
6409,3.0,,,,,,,55.0,,,,0,note_on,,0.0,55.0,0.0,232440,968.5
6410,3.0,,,,,,,48.0,,,,0,note_on,,70.0,48.0,70.0,232440,968.5
6411,3.0,,,,,,,52.0,,,,4,note_on,,70.0,52.0,70.0,232444,968.5166666666667
6412,3.0,,,,,,,55.0,,,,1,note_on,,70.0,55.0,70.0,232445,968.5208333333334
6413,3.0,,,,,,,60.0,,,,1,note_on,,70.0,60.0,70.0,232446,968.525
6414,3.0,,,,,,,64.0,,,,1,note_on,,70.0,64.0,70.0,232447,968.5291666666667
6415,3.0,,,,,,,64.0,,,,113,note_on,,0.0,64.0,0.0,232560,969.0
6416,3.0,,,,,,,55.0,,,,0,note_on,,0.0,55.0,0.0,232560,969.0
6417,3.0,,,,,,,60.0,,,,0,note_on,,0.0,60.0,0.0,232560,969.0
6418,3.0,,,,,,,55.0,,,,0,note_on,,70.0,55.0,70.0,232560,969.0
6419,3.0,,,,,,,60.0,,,,4,note_on,,70.0,60.0,70.0,232564,969.0166666666667
6420,3.0,,,,,,,64.0,,,,3,note_on,,70.0,64.0,70.0,232567,969.0291666666667
6421,3.0,,,,,,,64.0,,,,53,note_on,,0.0,64.0,0.0,232620,969.25
6422,3.0,,,,,,,55.0,,,,0,note_on,,0.0,55.0,0.0,232620,969.25
6423,3.0,,,,,,,48.0,,,,0,note_on,,0.0,48.0,0.0,232620,969.25
6424,3.0,,,,,,,52.0,,,,0,note_on,,0.0,52.0,0.0,232620,969.25
6425,3.0,,,,,,,60.0,,,,0,note_on,,0.0,60.0,0.0,232620,969.25
6426,3.0,,,,,,,48.0,,,,0,note_on,,70.0,48.0,70.0,232620,969.25
6427,3.0,,,,,,,52.0,,,,4,note_on,,70.0,52.0,70.0,232624,969.2666666666667
6428,3.0,,,,,,,55.0,,,,1,note_on,,70.0,55.0,70.0,232625,969.2708333333334
6429,3.0,,,,,,,60.0,,,,1,note_on,,70.0,60.0,70.0,232626,969.275
6430,3.0,,,,,,,64.0,,,,1,note_on,,70.0,64.0,70.0,232627,969.2791666666667
6431,3.0,,,,,,,64.0,,,,113,note_on,,0.0,64.0,0.0,232740,969.75
6432,3.0,,,,,,,55.0,,,,0,note_on,,0.0,55.0,0.0,232740,969.75
6433,3.0,,,,,,,60.0,,,,0,note_on,,0.0,60.0,0.0,232740,969.75
6434,3.0,,,,,,,55.0,,,,0,note_on,,70.0,55.0,70.0,232740,969.75
6435,3.0,,,,,,,60.0,,,,4,note_on,,70.0,60.0,70.0,232744,969.7666666666667
6436,3.0,,,,,,,64.0,,,,3,note_on,,70.0,64.0,70.0,232747,969.7791666666667
6437,3.0,,,,,,,64.0,,,,53,note_on,,0.0,64.0,0.0,232800,970.0
6438,3.0,,,,,,,55.0,,,,0,note_on,,0.0,55.0,0.0,232800,970.0
6439,3.0,,,,,,,48.0,,,,0,note_on,,0.0,48.0,0.0,232800,970.0
6440,3.0,,,,,,,52.0,,,,0,note_on,,0.0,52.0,0.0,232800,970.0
6441,3.0,,,,,,,60.0,,,,0,note_on,,0.0,60.0,0.0,232800,970.0
6442,3.0,,,,,,,43.0,,,,0,note_on,,70.0,43.0,70.0,232800,970.0
6443,3.0,,,,,,,47.0,,,,2,note_on,,70.0,47.0,70.0,232802,970.0083333333333
6444,3.0,,,,,,,50.0,,,,2,note_on,,70.0,50.0,70.0,232804,970.0166666666667
6445,3.0,,,,,,,55.0,,,,1,note_on,,70.0,55.0,70.0,232805,970.0208333333334
6446,3.0,,,,,,,59.0,,,,1,note_on,,70.0,59.0,70.0,232806,970.025
6447,3.0,,,,,,,67.0,,,,1,note_on,,70.0,67.0,70.0,232807,970.0291666666667
6448,3.0,,,,,,,67.0,,,,113,note_on,,0.0,67.0,0.0,232920,970.5
6449,3.0,,,,,,,55.0,,,,0,note_on,,0.0,55.0,0.0,232920,970.5
6450,3.0,,,,,,,59.0,,,,0,note_on,,0.0,59.0,0.0,232920,970.5
6451,3.0,,,,,,,55.0,,,,0,note_on,,70.0,55.0,70.0,232920,970.5
6452,3.0,,,,,,,59.0,,,,4,note_on,,70.0,59.0,70.0,232924,970.5166666666667
6453,3.0,,,,,,,67.0,,,,3,note_on,,70.0,67.0,70.0,232927,970.5291666666667
6454,3.0,,,,,,,67.0,,,,53,note_on,,0.0,67.0,0.0,232980,970.75
6455,3.0,,,,,,,50.0,,,,0,note_on,,0.0,50.0,0.0,232980,970.75
6456,3.0,,,,,,,43.0,,,,0,note_on,,0.0,43.0,0.0,232980,970.75
6457,3.0,,,,,,,47.0,,,,0,note_on,,0.0,47.0,0.0,232980,970.75
6458,3.0,,,,,,,59.0,,,,0,note_on,,0.0,59.0,0.0,232980,970.75
6459,3.0,,,,,,,55.0,,,,0,note_on,,0.0,55.0,0.0,232980,970.75
6460,3.0,,,,,,,43.0,,,,0,note_on,,70.0,43.0,70.0,232980,970.75
6461,3.0,,,,,,,47.0,,,,2,note_on,,70.0,47.0,70.0,232982,970.7583333333333
6462,3.0,,,,,,,50.0,,,,2,note_on,,70.0,50.0,70.0,232984,970.7666666666667
6463,3.0,,,,,,,55.0,,,,1,note_on,,70.0,55.0,70.0,232985,970.7708333333334
6464,3.0,,,,,,,59.0,,,,1,note_on,,70.0,59.0,70.0,232986,970.775
6465,3.0,,,,,,,67.0,,,,1,note_on,,70.0,67.0,70.0,232987,970.7791666666667
6466,3.0,,,,,,,67.0,,,,113,note_on,,0.0,67.0,0.0,233100,971.25
6467,3.0,,,,,,,55.0,,,,0,note_on,,0.0,55.0,0.0,233100,971.25
6468,3.0,,,,,,,59.0,,,,0,note_on,,0.0,59.0,0.0,233100,971.25
6469,3.0,,,,,,,55.0,,,,0,note_on,,70.0,55.0,70.0,233100,971.25
6470,3.0,,,,,,,59.0,,,,4,note_on,,70.0,59.0,70.0,233104,971.2666666666667
6471,3.0,,,,,,,67.0,,,,3,note_on,,70.0,67.0,70.0,233107,971.2791666666667
6472,3.0,,,,,,,67.0,,,,53,note_on,,0.0,67.0,0.0,233160,971.5
6473,3.0,,,,,,,50.0,,,,0,note_on,,0.0,50.0,0.0,233160,971.5
6474,3.0,,,,,,,43.0,,,,0,note_on,,0.0,43.0,0.0,233160,971.5
6475,3.0,,,,,,,47.0,,,,0,note_on,,0.0,47.0,0.0,233160,971.5
6476,3.0,,,,,,,59.0,,,,0,note_on,,0.0,59.0,0.0,233160,971.5
6477,3.0,,,,,,,55.0,,,,0,note_on,,0.0,55.0,0.0,233160,971.5
6478,3.0,,,,,,,48.0,,,,0,note_on,,70.0,48.0,70.0,233160,971.5
6479,3.0,,,,,,,52.0,,,,4,note_on,,70.0,52.0,70.0,233164,971.5166666666667
6480,3.0,,,,,,,55.0,,,,1,note_on,,70.0,55.0,70.0,233165,971.5208333333334
6481,3.0,,,,,,,60.0,,,,1,note_on,,70.0,60.0,70.0,233166,971.525
6482,3.0,,,,,,,64.0,,,,1,note_on,,70.0,64.0,70.0,233167,971.5291666666667
6483,3.0,,,,,,,64.0,,,,113,note_on,,0.0,64.0,0.0,233280,972.0
6484,3.0,,,,,,,55.0,,,,0,note_on,,0.0,55.0,0.0,233280,972.0
6485,3.0,,,,,,,60.0,,,,0,note_on,,0.0,60.0,0.0,233280,972.0
6486,3.0,,,,,,,55.0,,,,0,note_on,,70.0,55.0,70.0,233280,972.0
6487,3.0,,,,,,,60.0,,,,4,note_on,,70.0,60.0,70.0,233284,972.0166666666667
6488,3.0,,,,,,,64.0,,,,3,note_on,,70.0,64.0,70.0,233287,972.0291666666667
6489,3.0,,,,,,,64.0,,,,53,note_on,,0.0,64.0,0.0,233340,972.25
6490,3.0,,,,,,,55.0,,,,0,note_on,,0.0,55.0,0.0,233340,972.25
6491,3.0,,,,,,,48.0,,,,0,note_on,,0.0,48.0,0.0,233340,972.25
6492,3.0,,,,,,,52.0,,,,0,note_on,,0.0,52.0,0.0,233340,972.25
6493,3.0,,,,,,,60.0,,,,0,note_on,,0.0,60.0,0.0,233340,972.25
6494,3.0,,,,,,,48.0,,,,0,note_on,,70.0,48.0,70.0,233340,972.25
6495,3.0,,,,,,,52.0,,,,4,note_on,,70.0,52.0,70.0,233344,972.2666666666667
6496,3.0,,,,,,,55.0,,,,1,note_on,,70.0,55.0,70.0,233345,972.2708333333334
6497,3.0,,,,,,,60.0,,,,1,note_on,,70.0,60.0,70.0,233346,972.275
6498,3.0,,,,,,,64.0,,,,1,note_on,,70.0,64.0,70.0,233347,972.2791666666667
6499,3.0,,,,,,,64.0,,,,113,note_on,,0.0,64.0,0.0,233460,972.75
6500,3.0,,,,,,,55.0,,,,0,note_on,,0.0,55.0,0.0,233460,972.75
6501,3.0,,,,,,,60.0,,,,0,note_on,,0.0,60.0,0.0,233460,972.75
6502,3.0,,,,,,,55.0,,,,0,note_on,,70.0,55.0,70.0,233460,972.75
6503,3.0,,,,,,,60.0,,,,4,note_on,,70.0,60.0,70.0,233464,972.7666666666667
6504,3.0,,,,,,,64.0,,,,3,note_on,,70.0,64.0,70.0,233467,972.7791666666667
6505,3.0,,,,,,,64.0,,,,53,note_on,,0.0,64.0,0.0,233520,973.0
6506,3.0,,,,,,,55.0,,,,0,note_on,,0.0,55.0,0.0,233520,973.0
6507,3.0,,,,,,,48.0,,,,0,note_on,,0.0,48.0,0.0,233520,973.0
6508,3.0,,,,,,,52.0,,,,0,note_on,,0.0,52.0,0.0,233520,973.0
6509,3.0,,,,,,,60.0,,,,0,note_on,,0.0,60.0,0.0,233520,973.0
6510,3.0,,,,,,,41.0,,,,0,note_on,,70.0,41.0,70.0,233520,973.0
6511,3.0,,,,,,,45.0,,,,4,note_on,,70.0,45.0,70.0,233524,973.0166666666667
6512,3.0,,,,,,,57.0,,,,1,note_on,,70.0,57.0,70.0,233525,973.0208333333334
6513,3.0,,,,,,,48.0,,,,0,note_on,,70.0,48.0,70.0,233525,973.0208333333334
6514,3.0,,,,,,,60.0,,,,1,note_on,,70.0,60.0,70.0,233526,973.025
6515,3.0,,,,,,,65.0,,,,1,note_on,,70.0,65.0,70.0,233527,973.0291666666667
6516,3.0,,,,,,,65.0,,,,113,note_on,,0.0,65.0,0.0,233640,973.5
6517,3.0,,,,,,,57.0,,,,0,note_on,,0.0,57.0,0.0,233640,973.5
6518,3.0,,,,,,,60.0,,,,0,note_on,,0.0,60.0,0.0,233640,973.5
6519,3.0,,,,,,,57.0,,,,0,note_on,,70.0,57.0,70.0,233640,973.5
6520,3.0,,,,,,,60.0,,,,3,note_on,,70.0,60.0,70.0,233643,973.5124999999999
6521,3.0,,,,,,,65.0,,,,4,note_on,,70.0,65.0,70.0,233647,973.5291666666667
6522,3.0,,,,,,,60.0,,,,49,note_on,,0.0,60.0,0.0,233696,973.7333333333333
6523,3.0,,,,,,,48.0,,,,4,note_on,,0.0,48.0,0.0,233700,973.75
6524,3.0,,,,,,,41.0,,,,0,note_on,,0.0,41.0,0.0,233700,973.75
6525,3.0,,,,,,,45.0,,,,0,note_on,,0.0,45.0,0.0,233700,973.75
6526,3.0,,,,,,,65.0,,,,0,note_on,,0.0,65.0,0.0,233700,973.75
6527,3.0,,,,,,,57.0,,,,0,note_on,,0.0,57.0,0.0,233700,973.75
6528,3.0,,,,,,,43.0,,,,0,note_on,,70.0,43.0,70.0,233700,973.75
6529,3.0,,,,,,,47.0,,,,2,note_on,,70.0,47.0,70.0,233702,973.7583333333333
6530,3.0,,,,,,,50.0,,,,2,note_on,,70.0,50.0,70.0,233704,973.7666666666667
6531,3.0,,,,,,,55.0,,,,1,note_on,,70.0,55.0,70.0,233705,973.7708333333334
6532,3.0,,,,,,,59.0,,,,1,note_on,,70.0,59.0,70.0,233706,973.775
6533,3.0,,,,,,,67.0,,,,1,note_on,,70.0,67.0,70.0,233707,973.7791666666667
6534,3.0,,,,,,,67.0,,,,113,note_on,,0.0,67.0,0.0,233820,974.25
6535,3.0,,,,,,,55.0,,,,0,note_on,,0.0,55.0,0.0,233820,974.25
6536,3.0,,,,,,,59.0,,,,0,note_on,,0.0,59.0,0.0,233820,974.25
6537,3.0,,,,,,,55.0,,,,0,note_on,,70.0,55.0,70.0,233820,974.25
6538,3.0,,,,,,,59.0,,,,4,note_on,,70.0,59.0,70.0,233824,974.2666666666667
6539,3.0,,,,,,,67.0,,,,3,note_on,,70.0,67.0,70.0,233827,974.2791666666667
6540,3.0,,,,,,,67.0,,,,53,note_on,,0.0,67.0,0.0,233880,974.5
6541,3.0,,,,,,,50.0,,,,0,note_on,,0.0,50.0,0.0,233880,974.5
6542,3.0,,,,,,,43.0,,,,0,note_on,,0.0,43.0,0.0,233880,974.5
6543,3.0,,,,,,,47.0,,,,0,note_on,,0.0,47.0,0.0,233880,974.5
6544,3.0,,,,,,,59.0,,,,0,note_on,,0.0,59.0,0.0,233880,974.5
6545,3.0,,,,,,,55.0,,,,0,note_on,,0.0,55.0,0.0,233880,974.5
6546,3.0,,,,,,,45.0,,,,0,note_on,,70.0,45.0,70.0,233880,974.5
6547,3.0,,,,,,,52.0,,,,2,note_on,,70.0,52.0,70.0,233882,974.5083333333333
6548,3.0,,,,,,,57.0,,,,2,note_on,,70.0,57.0,70.0,233884,974.5166666666667
6549,3.0,,,,,,,60.0,,,,1,note_on,,70.0,60.0,70.0,233885,974.5208333333334
6550,3.0,,,,,,,64.0,,,,1,note_on,,70.0,64.0,70.0,233886,974.525
6551,3.0,,,,,,,64.0,,,,114,note_on,,0.0,64.0,0.0,234000,975.0
6552,3.0,,,,,,,60.0,,,,0,note_on,,0.0,60.0,0.0,234000,975.0
6553,3.0,,,,,,,57.0,,,,0,note_on,,70.0,57.0,70.0,234000,975.0
6554,3.0,,,,,,,60.0,,,,4,note_on,,70.0,60.0,70.0,234004,975.0166666666667
6555,3.0,,,,,,,64.0,,,,3,note_on,,70.0,64.0,70.0,234007,975.0291666666667
6556,3.0,,,,,,,64.0,,,,53,note_on,,0.0,64.0,0.0,234060,975.25
6557,3.0,,,,,,,52.0,,,,0,note_on,,0.0,52.0,0.0,234060,975.25
6558,3.0,,,,,,,45.0,,,,0,note_on,,0.0,45.0,0.0,234060,975.25
6559,3.0,,,,,,,57.0,,,,0,note_on,,0.0,57.0,0.0,234060,975.25
6560,3.0,,,,,,,60.0,,,,0,note_on,,0.0,60.0,0.0,234060,975.25
6561,3.0,,,,,,,57.0,,,,0,note_on,,0.0,57.0,0.0,234060,975.25
6562,3.0,,,,,,,45.0,,,,0,note_on,,70.0,45.0,70.0,234060,975.25
6563,3.0,,,,,,,52.0,,,,2,note_on,,70.0,52.0,70.0,234062,975.2583333333333
6564,3.0,,,,,,,57.0,,,,2,note_on,,70.0,57.0,70.0,234064,975.2666666666667
6565,3.0,,,,,,,60.0,,,,1,note_on,,70.0,60.0,70.0,234065,975.2708333333334
6566,3.0,,,,,,,64.0,,,,1,note_on,,70.0,64.0,70.0,234066,975.275
6567,3.0,,,,,,,64.0,,,,114,note_on,,0.0,64.0,0.0,234180,975.75
6568,3.0,,,,,,,60.0,,,,0,note_on,,0.0,60.0,0.0,234180,975.75
6569,3.0,,,,,,,57.0,,,,0,note_on,,70.0,57.0,70.0,234180,975.75
6570,3.0,,,,,,,60.0,,,,4,note_on,,70.0,60.0,70.0,234184,975.7666666666667
6571,3.0,,,,,,,64.0,,,,3,note_on,,70.0,64.0,70.0,234187,975.7791666666667
6572,3.0,,,,,,,64.0,,,,53,note_on,,0.0,64.0,0.0,234240,976.0
6573,3.0,,,,,,,52.0,,,,0,note_on,,0.0,52.0,0.0,234240,976.0
6574,3.0,,,,,,,45.0,,,,0,note_on,,0.0,45.0,0.0,234240,976.0
6575,3.0,,,,,,,57.0,,,,0,note_on,,0.0,57.0,0.0,234240,976.0
6576,3.0,,,,,,,60.0,,,,0,note_on,,0.0,60.0,0.0,234240,976.0
6577,3.0,,,,,,,57.0,,,,0,note_on,,0.0,57.0,0.0,234240,976.0
6578,3.0,,,,,,,41.0,,,,0,note_on,,70.0,41.0,70.0,234240,976.0
6579,3.0,,,,,,,45.0,,,,4,note_on,,70.0,45.0,70.0,234244,976.0166666666667
6580,3.0,,,,,,,57.0,,,,1,note_on,,70.0,57.0,70.0,234245,976.0208333333334
6581,3.0,,,,,,,48.0,,,,0,note_on,,70.0,48.0,70.0,234245,976.0208333333334
6582,3.0,,,,,,,60.0,,,,1,note_on,,70.0,60.0,70.0,234246,976.025
6583,3.0,,,,,,,65.0,,,,1,note_on,,70.0,65.0,70.0,234247,976.0291666666667
6584,3.0,,,,,,,65.0,,,,113,note_on,,0.0,65.0,0.0,234360,976.5
6585,3.0,,,,,,,57.0,,,,0,note_on,,0.0,57.0,0.0,234360,976.5
6586,3.0,,,,,,,60.0,,,,0,note_on,,0.0,60.0,0.0,234360,976.5
6587,3.0,,,,,,,57.0,,,,0,note_on,,70.0,57.0,70.0,234360,976.5
6588,3.0,,,,,,,60.0,,,,3,note_on,,70.0,60.0,70.0,234363,976.5124999999999
6589,3.0,,,,,,,65.0,,,,4,note_on,,70.0,65.0,70.0,234367,976.5291666666667
6590,3.0,,,,,,,60.0,,,,49,note_on,,0.0,60.0,0.0,234416,976.7333333333333
6591,3.0,,,,,,,48.0,,,,4,note_on,,0.0,48.0,0.0,234420,976.75
6592,3.0,,,,,,,41.0,,,,0,note_on,,0.0,41.0,0.0,234420,976.75
6593,3.0,,,,,,,45.0,,,,0,note_on,,0.0,45.0,0.0,234420,976.75
6594,3.0,,,,,,,65.0,,,,0,note_on,,0.0,65.0,0.0,234420,976.75
6595,3.0,,,,,,,57.0,,,,0,note_on,,0.0,57.0,0.0,234420,976.75
6596,3.0,,,,,,,41.0,,,,0,note_on,,70.0,41.0,70.0,234420,976.75
6597,3.0,,,,,,,45.0,,,,4,note_on,,70.0,45.0,70.0,234424,976.7666666666667
6598,3.0,,,,,,,57.0,,,,1,note_on,,70.0,57.0,70.0,234425,976.7708333333334
6599,3.0,,,,,,,48.0,,,,0,note_on,,70.0,48.0,70.0,234425,976.7708333333334
6600,3.0,,,,,,,60.0,,,,1,note_on,,70.0,60.0,70.0,234426,976.775
6601,3.0,,,,,,,65.0,,,,1,note_on,,70.0,65.0,70.0,234427,976.7791666666667
6602,3.0,,,,,,,65.0,,,,113,note_on,,0.0,65.0,0.0,234540,977.25
6603,3.0,,,,,,,57.0,,,,0,note_on,,0.0,57.0,0.0,234540,977.25
6604,3.0,,,,,,,60.0,,,,0,note_on,,0.0,60.0,0.0,234540,977.25
6605,3.0,,,,,,,57.0,,,,0,note_on,,70.0,57.0,70.0,234540,977.25
6606,3.0,,,,,,,60.0,,,,3,note_on,,70.0,60.0,70.0,234543,977.2624999999999
6607,3.0,,,,,,,65.0,,,,4,note_on,,70.0,65.0,70.0,234547,977.2791666666667
6608,3.0,,,,,,,60.0,,,,49,note_on,,0.0,60.0,0.0,234596,977.4833333333333
6609,3.0,,,,,,,48.0,,,,4,note_on,,0.0,48.0,0.0,234600,977.5
6610,3.0,,,,,,,41.0,,,,0,note_on,,0.0,41.0,0.0,234600,977.5
6611,3.0,,,,,,,45.0,,,,0,note_on,,0.0,45.0,0.0,234600,977.5
6612,3.0,,,,,,,65.0,,,,0,note_on,,0.0,65.0,0.0,234600,977.5
6613,3.0,,,,,,,57.0,,,,0,note_on,,0.0,57.0,0.0,234600,977.5
6614,3.0,,,,,,,43.0,,,,0,note_on,,70.0,43.0,70.0,234600,977.5
6615,3.0,,,,,,,47.0,,,,2,note_on,,70.0,47.0,70.0,234602,977.5083333333333
6616,3.0,,,,,,,50.0,,,,2,note_on,,70.0,50.0,70.0,234604,977.5166666666667
6617,3.0,,,,,,,55.0,,,,1,note_on,,70.0,55.0,70.0,234605,977.5208333333334
6618,3.0,,,,,,,59.0,,,,1,note_on,,70.0,59.0,70.0,234606,977.525
6619,3.0,,,,,,,67.0,,,,1,note_on,,70.0,67.0,70.0,234607,977.5291666666667
6620,3.0,,,,,,,67.0,,,,113,note_on,,0.0,67.0,0.0,234720,978.0
6621,3.0,,,,,,,55.0,,,,0,note_on,,0.0,55.0,0.0,234720,978.0
6622,3.0,,,,,,,59.0,,,,0,note_on,,0.0,59.0,0.0,234720,978.0
6623,3.0,,,,,,,55.0,,,,0,note_on,,70.0,55.0,70.0,234720,978.0
6624,3.0,,,,,,,59.0,,,,4,note_on,,70.0,59.0,70.0,234724,978.0166666666667
6625,3.0,,,,,,,67.0,,,,3,note_on,,70.0,67.0,70.0,234727,978.0291666666667
6626,3.0,,,,,,,67.0,,,,53,note_on,,0.0,67.0,0.0,234780,978.25
6627,3.0,,,,,,,50.0,,,,0,note_on,,0.0,50.0,0.0,234780,978.25
6628,3.0,,,,,,,43.0,,,,0,note_on,,0.0,43.0,0.0,234780,978.25
6629,3.0,,,,,,,47.0,,,,0,note_on,,0.0,47.0,0.0,234780,978.25
6630,3.0,,,,,,,59.0,,,,0,note_on,,0.0,59.0,0.0,234780,978.25
6631,3.0,,,,,,,55.0,,,,0,note_on,,0.0,55.0,0.0,234780,978.25
6632,3.0,,,,,,,43.0,,,,0,note_on,,70.0,43.0,70.0,234780,978.25
6633,3.0,,,,,,,47.0,,,,2,note_on,,70.0,47.0,70.0,234782,978.2583333333333
6634,3.0,,,,,,,50.0,,,,2,note_on,,70.0,50.0,70.0,234784,978.2666666666667
6635,3.0,,,,,,,55.0,,,,1,note_on,,70.0,55.0,70.0,234785,978.2708333333334
6636,3.0,,,,,,,59.0,,,,1,note_on,,70.0,59.0,70.0,234786,978.275
6637,3.0,,,,,,,67.0,,,,1,note_on,,70.0,67.0,70.0,234787,978.2791666666667
6638,3.0,,,,,,,67.0,,,,113,note_on,,0.0,67.0,0.0,234900,978.75
6639,3.0,,,,,,,55.0,,,,0,note_on,,0.0,55.0,0.0,234900,978.75
6640,3.0,,,,,,,59.0,,,,0,note_on,,0.0,59.0,0.0,234900,978.75
6641,3.0,,,,,,,55.0,,,,0,note_on,,70.0,55.0,70.0,234900,978.75
6642,3.0,,,,,,,59.0,,,,4,note_on,,70.0,59.0,70.0,234904,978.7666666666667
6643,3.0,,,,,,,67.0,,,,3,note_on,,70.0,67.0,70.0,234907,978.7791666666667
6644,3.0,,,,,,,67.0,,,,53,note_on,,0.0,67.0,0.0,234960,979.0
6645,3.0,,,,,,,50.0,,,,0,note_on,,0.0,50.0,0.0,234960,979.0
6646,3.0,,,,,,,43.0,,,,0,note_on,,0.0,43.0,0.0,234960,979.0
6647,3.0,,,,,,,47.0,,,,0,note_on,,0.0,47.0,0.0,234960,979.0
6648,3.0,,,,,,,59.0,,,,0,note_on,,0.0,59.0,0.0,234960,979.0
6649,3.0,,,,,,,55.0,,,,0,note_on,,0.0,55.0,0.0,234960,979.0
6650,3.0,,,,,,,40.0,,,,0,note_on,,70.0,40.0,70.0,234960,979.0
6651,3.0,,,,,,,47.0,,,,2,note_on,,70.0,47.0,70.0,234962,979.0083333333333
6652,3.0,,,,,,,52.0,,,,2,note_on,,70.0,52.0,70.0,234964,979.0166666666667
6653,3.0,,,,,,,55.0,,,,1,note_on,,70.0,55.0,70.0,234965,979.0208333333334
6654,3.0,,,,,,,59.0,,,,1,note_on,,70.0,59.0,70.0,234966,979.025
6655,3.0,,,,,,,64.0,,,,1,note_on,,70.0,64.0,70.0,234967,979.0291666666667
6656,3.0,,,,,,,64.0,,,,113,note_on,,0.0,64.0,0.0,235080,979.5
6657,3.0,,,,,,,55.0,,,,0,note_on,,0.0,55.0,0.0,235080,979.5
6658,3.0,,,,,,,59.0,,,,0,note_on,,0.0,59.0,0.0,235080,979.5
6659,3.0,,,,,,,55.0,,,,0,note_on,,70.0,55.0,70.0,235080,979.5
6660,3.0,,,,,,,59.0,,,,4,note_on,,70.0,59.0,70.0,235084,979.5166666666667
6661,3.0,,,,,,,64.0,,,,3,note_on,,70.0,64.0,70.0,235087,979.5291666666667
6662,3.0,,,,,,,64.0,,,,53,note_on,,0.0,64.0,0.0,235140,979.75
6663,3.0,,,,,,,52.0,,,,0,note_on,,0.0,52.0,0.0,235140,979.75
6664,3.0,,,,,,,40.0,,,,0,note_on,,0.0,40.0,0.0,235140,979.75
6665,3.0,,,,,,,47.0,,,,0,note_on,,0.0,47.0,0.0,235140,979.75
6666,3.0,,,,,,,59.0,,,,0,note_on,,0.0,59.0,0.0,235140,979.75
6667,3.0,,,,,,,55.0,,,,0,note_on,,0.0,55.0,0.0,235140,979.75
6668,3.0,,,,,,,40.0,,,,0,note_on,,70.0,40.0,70.0,235140,979.75
6669,3.0,,,,,,,47.0,,,,2,note_on,,70.0,47.0,70.0,235142,979.7583333333333
6670,3.0,,,,,,,52.0,,,,2,note_on,,70.0,52.0,70.0,235144,979.7666666666667
6671,3.0,,,,,,,55.0,,,,1,note_on,,70.0,55.0,70.0,235145,979.7708333333334
6672,3.0,,,,,,,59.0,,,,1,note_on,,70.0,59.0,70.0,235146,979.775
6673,3.0,,,,,,,64.0,,,,1,note_on,,70.0,64.0,70.0,235147,979.7791666666667
6674,3.0,,,,,,,64.0,,,,113,note_on,,0.0,64.0,0.0,235260,980.25
6675,3.0,,,,,,,55.0,,,,0,note_on,,0.0,55.0,0.0,235260,980.25
6676,3.0,,,,,,,59.0,,,,0,note_on,,0.0,59.0,0.0,235260,980.25
6677,3.0,,,,,,,55.0,,,,0,note_on,,70.0,55.0,70.0,235260,980.25
6678,3.0,,,,,,,59.0,,,,4,note_on,,70.0,59.0,70.0,235264,980.2666666666667
6679,3.0,,,,,,,64.0,,,,3,note_on,,70.0,64.0,70.0,235267,980.2791666666667
6680,3.0,,,,,,,64.0,,,,53,note_on,,0.0,64.0,0.0,235320,980.5
6681,3.0,,,,,,,52.0,,,,0,note_on,,0.0,52.0,0.0,235320,980.5
6682,3.0,,,,,,,40.0,,,,0,note_on,,0.0,40.0,0.0,235320,980.5
6683,3.0,,,,,,,47.0,,,,0,note_on,,0.0,47.0,0.0,235320,980.5
6684,3.0,,,,,,,59.0,,,,0,note_on,,0.0,59.0,0.0,235320,980.5
6685,3.0,,,,,,,55.0,,,,0,note_on,,0.0,55.0,0.0,235320,980.5
6686,3.0,,,,,,,45.0,,,,0,note_on,,70.0,45.0,70.0,235320,980.5
6687,3.0,,,,,,,52.0,,,,2,note_on,,70.0,52.0,70.0,235322,980.5083333333333
6688,3.0,,,,,,,57.0,,,,2,note_on,,70.0,57.0,70.0,235324,980.5166666666667
6689,3.0,,,,,,,60.0,,,,1,note_on,,70.0,60.0,70.0,235325,980.5208333333334
6690,3.0,,,,,,,64.0,,,,1,note_on,,70.0,64.0,70.0,235326,980.525
6691,3.0,,,,,,,64.0,,,,114,note_on,,0.0,64.0,0.0,235440,981.0
6692,3.0,,,,,,,60.0,,,,0,note_on,,0.0,60.0,0.0,235440,981.0
6693,3.0,,,,,,,57.0,,,,0,note_on,,70.0,57.0,70.0,235440,981.0
6694,3.0,,,,,,,60.0,,,,4,note_on,,70.0,60.0,70.0,235444,981.0166666666667
6695,3.0,,,,,,,64.0,,,,3,note_on,,70.0,64.0,70.0,235447,981.0291666666667
6696,3.0,,,,,,,64.0,,,,53,note_on,,0.0,64.0,0.0,235500,981.25
6697,3.0,,,,,,,52.0,,,,0,note_on,,0.0,52.0,0.0,235500,981.25
6698,3.0,,,,,,,45.0,,,,0,note_on,,0.0,45.0,0.0,235500,981.25
6699,3.0,,,,,,,57.0,,,,0,note_on,,0.0,57.0,0.0,235500,981.25
6700,3.0,,,,,,,60.0,,,,0,note_on,,0.0,60.0,0.0,235500,981.25
6701,3.0,,,,,,,57.0,,,,0,note_on,,0.0,57.0,0.0,235500,981.25
6702,3.0,,,,,,,45.0,,,,0,note_on,,70.0,45.0,70.0,235500,981.25
6703,3.0,,,,,,,52.0,,,,2,note_on,,70.0,52.0,70.0,235502,981.2583333333333
6704,3.0,,,,,,,57.0,,,,2,note_on,,70.0,57.0,70.0,235504,981.2666666666667
6705,3.0,,,,,,,60.0,,,,1,note_on,,70.0,60.0,70.0,235505,981.2708333333334
6706,3.0,,,,,,,64.0,,,,1,note_on,,70.0,64.0,70.0,235506,981.275
6707,3.0,,,,,,,64.0,,,,114,note_on,,0.0,64.0,0.0,235620,981.75
6708,3.0,,,,,,,60.0,,,,0,note_on,,0.0,60.0,0.0,235620,981.75
6709,3.0,,,,,,,57.0,,,,0,note_on,,70.0,57.0,70.0,235620,981.75
6710,3.0,,,,,,,60.0,,,,4,note_on,,70.0,60.0,70.0,235624,981.7666666666667
6711,3.0,,,,,,,64.0,,,,3,note_on,,70.0,64.0,70.0,235627,981.7791666666667
6712,3.0,,,,,,,64.0,,,,53,note_on,,0.0,64.0,0.0,235680,982.0
6713,3.0,,,,,,,52.0,,,,0,note_on,,0.0,52.0,0.0,235680,982.0
6714,3.0,,,,,,,45.0,,,,0,note_on,,0.0,45.0,0.0,235680,982.0
6715,3.0,,,,,,,57.0,,,,0,note_on,,0.0,57.0,0.0,235680,982.0
6716,3.0,,,,,,,60.0,,,,0,note_on,,0.0,60.0,0.0,235680,982.0
6717,3.0,,,,,,,57.0,,,,0,note_on,,0.0,57.0,0.0,235680,982.0
6718,3.0,,,,,,,45.0,,,,0,note_on,,70.0,45.0,70.0,235680,982.0
6719,3.0,,,,,,,52.0,,,,2,note_on,,70.0,52.0,70.0,235682,982.0083333333333
6720,3.0,,,,,,,57.0,,,,2,note_on,,70.0,57.0,70.0,235684,982.0166666666667
6721,3.0,,,,,,,60.0,,,,1,note_on,,70.0,60.0,70.0,235685,982.0208333333334
6722,3.0,,,,,,,64.0,,,,1,note_on,,70.0,64.0,70.0,235686,982.025
6723,3.0,,,,,,,64.0,,,,114,note_on,,0.0,64.0,0.0,235800,982.5
6724,3.0,,,,,,,60.0,,,,0,note_on,,0.0,60.0,0.0,235800,982.5
6725,3.0,,,,,,,57.0,,,,0,note_on,,70.0,57.0,70.0,235800,982.5
6726,3.0,,,,,,,60.0,,,,4,note_on,,70.0,60.0,70.0,235804,982.5166666666667
6727,3.0,,,,,,,64.0,,,,3,note_on,,70.0,64.0,70.0,235807,982.5291666666667
6728,3.0,,,,,,,64.0,,,,53,note_on,,0.0,64.0,0.0,235860,982.75
6729,3.0,,,,,,,52.0,,,,0,note_on,,0.0,52.0,0.0,235860,982.75
6730,3.0,,,,,,,45.0,,,,0,note_on,,0.0,45.0,0.0,235860,982.75
6731,3.0,,,,,,,57.0,,,,0,note_on,,0.0,57.0,0.0,235860,982.75
6732,3.0,,,,,,,60.0,,,,0,note_on,,0.0,60.0,0.0,235860,982.75
6733,3.0,,,,,,,57.0,,,,0,note_on,,0.0,57.0,0.0,235860,982.75
6734,3.0,,,,,,,45.0,,,,0,note_on,,70.0,45.0,70.0,235860,982.75
6735,3.0,,,,,,,52.0,,,,2,note_on,,70.0,52.0,70.0,235862,982.7583333333333
6736,3.0,,,,,,,57.0,,,,2,note_on,,70.0,57.0,70.0,235864,982.7666666666667
6737,3.0,,,,,,,60.0,,,,1,note_on,,70.0,60.0,70.0,235865,982.7708333333334
6738,3.0,,,,,,,64.0,,,,1,note_on,,70.0,64.0,70.0,235866,982.775
6739,3.0,,,,,,,64.0,,,,114,note_on,,0.0,64.0,0.0,235980,983.25
6740,3.0,,,,,,,60.0,,,,0,note_on,,0.0,60.0,0.0,235980,983.25
6741,3.0,,,,,,,57.0,,,,0,note_on,,70.0,57.0,70.0,235980,983.25
6742,3.0,,,,,,,60.0,,,,4,note_on,,70.0,60.0,70.0,235984,983.2666666666667
6743,3.0,,,,,,,64.0,,,,3,note_on,,70.0,64.0,70.0,235987,983.2791666666667
6744,3.0,,,,,,,64.0,,,,53,note_on,,0.0,64.0,0.0,236040,983.5
6745,3.0,,,,,,,52.0,,,,0,note_on,,0.0,52.0,0.0,236040,983.5
6746,3.0,,,,,,,45.0,,,,0,note_on,,0.0,45.0,0.0,236040,983.5
6747,3.0,,,,,,,57.0,,,,0,note_on,,0.0,57.0,0.0,236040,983.5
6748,3.0,,,,,,,60.0,,,,0,note_on,,0.0,60.0,0.0,236040,983.5
6749,3.0,,,,,,,57.0,,,,0,note_on,,0.0,57.0,0.0,236040,983.5
6750,3.0,,,,,,,41.0,,,,0,note_on,,70.0,41.0,70.0,236040,983.5
6751,3.0,,,,,,,45.0,,,,4,note_on,,70.0,45.0,70.0,236044,983.5166666666667
6752,3.0,,,,,,,57.0,,,,1,note_on,,70.0,57.0,70.0,236045,983.5208333333334
6753,3.0,,,,,,,48.0,,,,0,note_on,,70.0,48.0,70.0,236045,983.5208333333334
6754,3.0,,,,,,,60.0,,,,1,note_on,,70.0,60.0,70.0,236046,983.525
6755,3.0,,,,,,,65.0,,,,1,note_on,,70.0,65.0,70.0,236047,983.5291666666667
6756,3.0,,,,,,,65.0,,,,113,note_on,,0.0,65.0,0.0,236160,984.0
6757,3.0,,,,,,,57.0,,,,0,note_on,,0.0,57.0,0.0,236160,984.0
6758,3.0,,,,,,,60.0,,,,0,note_on,,0.0,60.0,0.0,236160,984.0
6759,3.0,,,,,,,57.0,,,,0,note_on,,70.0,57.0,70.0,236160,984.0
6760,3.0,,,,,,,60.0,,,,3,note_on,,70.0,60.0,70.0,236163,984.0124999999999
6761,3.0,,,,,,,65.0,,,,4,note_on,,70.0,65.0,70.0,236167,984.0291666666667
6762,3.0,,,,,,,60.0,,,,49,note_on,,0.0,60.0,0.0,236216,984.2333333333333
6763,3.0,,,,,,,48.0,,,,4,note_on,,0.0,48.0,0.0,236220,984.25
6764,3.0,,,,,,,41.0,,,,0,note_on,,0.0,41.0,0.0,236220,984.25
6765,3.0,,,,,,,45.0,,,,0,note_on,,0.0,45.0,0.0,236220,984.25
6766,3.0,,,,,,,65.0,,,,0,note_on,,0.0,65.0,0.0,236220,984.25
6767,3.0,,,,,,,57.0,,,,0,note_on,,0.0,57.0,0.0,236220,984.25
6768,3.0,,,,,,,41.0,,,,0,note_on,,70.0,41.0,70.0,236220,984.25
6769,3.0,,,,,,,45.0,,,,4,note_on,,70.0,45.0,70.0,236224,984.2666666666667
6770,3.0,,,,,,,57.0,,,,1,note_on,,70.0,57.0,70.0,236225,984.2708333333334
6771,3.0,,,,,,,48.0,,,,0,note_on,,70.0,48.0,70.0,236225,984.2708333333334
6772,3.0,,,,,,,60.0,,,,1,note_on,,70.0,60.0,70.0,236226,984.275
6773,3.0,,,,,,,65.0,,,,1,note_on,,70.0,65.0,70.0,236227,984.2791666666667
6774,3.0,,,,,,,65.0,,,,113,note_on,,0.0,65.0,0.0,236340,984.75
6775,3.0,,,,,,,57.0,,,,0,note_on,,0.0,57.0,0.0,236340,984.75
6776,3.0,,,,,,,60.0,,,,0,note_on,,0.0,60.0,0.0,236340,984.75
6777,3.0,,,,,,,57.0,,,,0,note_on,,70.0,57.0,70.0,236340,984.75
6778,3.0,,,,,,,60.0,,,,3,note_on,,70.0,60.0,70.0,236343,984.7624999999999
6779,3.0,,,,,,,65.0,,,,4,note_on,,70.0,65.0,70.0,236347,984.7791666666667
6780,3.0,,,,,,,60.0,,,,49,note_on,,0.0,60.0,0.0,236396,984.9833333333333
6781,3.0,,,,,,,48.0,,,,4,note_on,,0.0,48.0,0.0,236400,985.0
6782,3.0,,,,,,,41.0,,,,0,note_on,,0.0,41.0,0.0,236400,985.0
6783,3.0,,,,,,,45.0,,,,0,note_on,,0.0,45.0,0.0,236400,985.0
6784,3.0,,,,,,,65.0,,,,0,note_on,,0.0,65.0,0.0,236400,985.0
6785,3.0,,,,,,,57.0,,,,0,note_on,,0.0,57.0,0.0,236400,985.0
6786,3.0,,,,,,,41.0,,,,0,note_on,,70.0,41.0,70.0,236400,985.0
6787,3.0,,,,,,,45.0,,,,4,note_on,,70.0,45.0,70.0,236404,985.0166666666667
6788,3.0,,,,,,,57.0,,,,1,note_on,,70.0,57.0,70.0,236405,985.0208333333334
6789,3.0,,,,,,,48.0,,,,0,note_on,,70.0,48.0,70.0,236405,985.0208333333334
6790,3.0,,,,,,,60.0,,,,1,note_on,,70.0,60.0,70.0,236406,985.025
6791,3.0,,,,,,,65.0,,,,1,note_on,,70.0,65.0,70.0,236407,985.0291666666667
6792,3.0,,,,,,,65.0,,,,113,note_on,,0.0,65.0,0.0,236520,985.5
6793,3.0,,,,,,,57.0,,,,0,note_on,,0.0,57.0,0.0,236520,985.5
6794,3.0,,,,,,,60.0,,,,0,note_on,,0.0,60.0,0.0,236520,985.5
6795,3.0,,,,,,,57.0,,,,0,note_on,,70.0,57.0,70.0,236520,985.5
6796,3.0,,,,,,,60.0,,,,3,note_on,,70.0,60.0,70.0,236523,985.5124999999999
6797,3.0,,,,,,,65.0,,,,4,note_on,,70.0,65.0,70.0,236527,985.5291666666667
6798,3.0,,,,,,,60.0,,,,49,note_on,,0.0,60.0,0.0,236576,985.7333333333333
6799,3.0,,,,,,,48.0,,,,4,note_on,,0.0,48.0,0.0,236580,985.75
6800,3.0,,,,,,,41.0,,,,0,note_on,,0.0,41.0,0.0,236580,985.75
6801,3.0,,,,,,,45.0,,,,0,note_on,,0.0,45.0,0.0,236580,985.75
6802,3.0,,,,,,,65.0,,,,0,note_on,,0.0,65.0,0.0,236580,985.75
6803,3.0,,,,,,,57.0,,,,0,note_on,,0.0,57.0,0.0,236580,985.75
6804,3.0,,,,,,,41.0,,,,0,note_on,,70.0,41.0,70.0,236580,985.75
6805,3.0,,,,,,,45.0,,,,4,note_on,,70.0,45.0,70.0,236584,985.7666666666667
6806,3.0,,,,,,,57.0,,,,1,note_on,,70.0,57.0,70.0,236585,985.7708333333334
6807,3.0,,,,,,,48.0,,,,0,note_on,,70.0,48.0,70.0,236585,985.7708333333334
6808,3.0,,,,,,,60.0,,,,1,note_on,,70.0,60.0,70.0,236586,985.775
6809,3.0,,,,,,,65.0,,,,1,note_on,,70.0,65.0,70.0,236587,985.7791666666667
6810,3.0,,,,,,,65.0,,,,113,note_on,,0.0,65.0,0.0,236700,986.25
6811,3.0,,,,,,,57.0,,,,0,note_on,,0.0,57.0,0.0,236700,986.25
6812,3.0,,,,,,,60.0,,,,0,note_on,,0.0,60.0,0.0,236700,986.25
6813,3.0,,,,,,,57.0,,,,0,note_on,,70.0,57.0,70.0,236700,986.25
6814,3.0,,,,,,,60.0,,,,3,note_on,,70.0,60.0,70.0,236703,986.2624999999999
6815,3.0,,,,,,,65.0,,,,4,note_on,,70.0,65.0,70.0,236707,986.2791666666667
6816,3.0,,,,,,,60.0,,,,49,note_on,,0.0,60.0,0.0,236756,986.4833333333333
6817,3.0,,,,,,,48.0,,,,4,note_on,,0.0,48.0,0.0,236760,986.5
6818,3.0,,,,,,,41.0,,,,0,note_on,,0.0,41.0,0.0,236760,986.5
6819,3.0,,,,,,,45.0,,,,0,note_on,,0.0,45.0,0.0,236760,986.5
6820,3.0,,,,,,,65.0,,,,0,note_on,,0.0,65.0,0.0,236760,986.5
6821,3.0,,,,,,,57.0,,,,0,note_on,,0.0,57.0,0.0,236760,986.5
6822,3.0,,,,,,,45.0,,,,0,note_on,,70.0,45.0,70.0,236760,986.5
6823,3.0,,,,,,,52.0,,,,2,note_on,,70.0,52.0,70.0,236762,986.5083333333333
6824,3.0,,,,,,,57.0,,,,2,note_on,,70.0,57.0,70.0,236764,986.5166666666667
6825,3.0,,,,,,,60.0,,,,1,note_on,,70.0,60.0,70.0,236765,986.5208333333334
6826,3.0,,,,,,,64.0,,,,1,note_on,,70.0,64.0,70.0,236766,986.525
6827,3.0,,,,,,,64.0,,,,114,note_on,,0.0,64.0,0.0,236880,987.0
6828,3.0,,,,,,,60.0,,,,0,note_on,,0.0,60.0,0.0,236880,987.0
6829,3.0,,,,,,,57.0,,,,0,note_on,,70.0,57.0,70.0,236880,987.0
6830,3.0,,,,,,,60.0,,,,4,note_on,,70.0,60.0,70.0,236884,987.0166666666667
6831,3.0,,,,,,,64.0,,,,3,note_on,,70.0,64.0,70.0,236887,987.0291666666667
6832,3.0,,,,,,,64.0,,,,53,note_on,,0.0,64.0,0.0,236940,987.25
6833,3.0,,,,,,,52.0,,,,0,note_on,,0.0,52.0,0.0,236940,987.25
6834,3.0,,,,,,,45.0,,,,0,note_on,,0.0,45.0,0.0,236940,987.25
6835,3.0,,,,,,,57.0,,,,0,note_on,,0.0,57.0,0.0,236940,987.25
6836,3.0,,,,,,,60.0,,,,0,note_on,,0.0,60.0,0.0,236940,987.25
6837,3.0,,,,,,,57.0,,,,0,note_on,,0.0,57.0,0.0,236940,987.25
6838,3.0,,,,,,,45.0,,,,0,note_on,,70.0,45.0,70.0,236940,987.25
6839,3.0,,,,,,,52.0,,,,2,note_on,,70.0,52.0,70.0,236942,987.2583333333333
6840,3.0,,,,,,,57.0,,,,2,note_on,,70.0,57.0,70.0,236944,987.2666666666667
6841,3.0,,,,,,,60.0,,,,1,note_on,,70.0,60.0,70.0,236945,987.2708333333334
6842,3.0,,,,,,,64.0,,,,1,note_on,,70.0,64.0,70.0,236946,987.275
6843,3.0,,,,,,,64.0,,,,114,note_on,,0.0,64.0,0.0,237060,987.75
6844,3.0,,,,,,,60.0,,,,0,note_on,,0.0,60.0,0.0,237060,987.75
6845,3.0,,,,,,,57.0,,,,0,note_on,,70.0,57.0,70.0,237060,987.75
6846,3.0,,,,,,,60.0,,,,4,note_on,,70.0,60.0,70.0,237064,987.7666666666667
6847,3.0,,,,,,,64.0,,,,3,note_on,,70.0,64.0,70.0,237067,987.7791666666667
6848,3.0,,,,,,,64.0,,,,53,note_on,,0.0,64.0,0.0,237120,988.0
6849,3.0,,,,,,,52.0,,,,0,note_on,,0.0,52.0,0.0,237120,988.0
6850,3.0,,,,,,,45.0,,,,0,note_on,,0.0,45.0,0.0,237120,988.0
6851,3.0,,,,,,,57.0,,,,0,note_on,,0.0,57.0,0.0,237120,988.0
6852,3.0,,,,,,,60.0,,,,0,note_on,,0.0,60.0,0.0,237120,988.0
6853,3.0,,,,,,,57.0,,,,0,note_on,,0.0,57.0,0.0,237120,988.0
6854,3.0,,,,,,,45.0,,,,0,note_on,,70.0,45.0,70.0,237120,988.0
6855,3.0,,,,,,,52.0,,,,2,note_on,,70.0,52.0,70.0,237122,988.0083333333333
6856,3.0,,,,,,,57.0,,,,2,note_on,,70.0,57.0,70.0,237124,988.0166666666667
6857,3.0,,,,,,,60.0,,,,1,note_on,,70.0,60.0,70.0,237125,988.0208333333334
6858,3.0,,,,,,,64.0,,,,1,note_on,,70.0,64.0,70.0,237126,988.025
6859,3.0,,,,,,,64.0,,,,114,note_on,,0.0,64.0,0.0,237240,988.5
6860,3.0,,,,,,,60.0,,,,0,note_on,,0.0,60.0,0.0,237240,988.5
6861,3.0,,,,,,,57.0,,,,0,note_on,,70.0,57.0,70.0,237240,988.5
6862,3.0,,,,,,,60.0,,,,4,note_on,,70.0,60.0,70.0,237244,988.5166666666667
6863,3.0,,,,,,,64.0,,,,3,note_on,,70.0,64.0,70.0,237247,988.5291666666667
6864,3.0,,,,,,,64.0,,,,53,note_on,,0.0,64.0,0.0,237300,988.75
6865,3.0,,,,,,,52.0,,,,0,note_on,,0.0,52.0,0.0,237300,988.75
6866,3.0,,,,,,,45.0,,,,0,note_on,,0.0,45.0,0.0,237300,988.75
6867,3.0,,,,,,,57.0,,,,0,note_on,,0.0,57.0,0.0,237300,988.75
6868,3.0,,,,,,,60.0,,,,0,note_on,,0.0,60.0,0.0,237300,988.75
6869,3.0,,,,,,,57.0,,,,0,note_on,,0.0,57.0,0.0,237300,988.75
6870,3.0,,,,,,,45.0,,,,0,note_on,,70.0,45.0,70.0,237300,988.75
6871,3.0,,,,,,,52.0,,,,2,note_on,,70.0,52.0,70.0,237302,988.7583333333333
6872,3.0,,,,,,,57.0,,,,2,note_on,,70.0,57.0,70.0,237304,988.7666666666667
6873,3.0,,,,,,,60.0,,,,1,note_on,,70.0,60.0,70.0,237305,988.7708333333334
6874,3.0,,,,,,,64.0,,,,1,note_on,,70.0,64.0,70.0,237306,988.775
6875,3.0,,,,,,,64.0,,,,114,note_on,,0.0,64.0,0.0,237420,989.25
6876,3.0,,,,,,,60.0,,,,0,note_on,,0.0,60.0,0.0,237420,989.25
6877,3.0,,,,,,,57.0,,,,0,note_on,,70.0,57.0,70.0,237420,989.25
6878,3.0,,,,,,,60.0,,,,4,note_on,,70.0,60.0,70.0,237424,989.2666666666667
6879,3.0,,,,,,,64.0,,,,3,note_on,,70.0,64.0,70.0,237427,989.2791666666667
6880,3.0,,,,,,,64.0,,,,53,note_on,,0.0,64.0,0.0,237480,989.5
6881,3.0,,,,,,,52.0,,,,0,note_on,,0.0,52.0,0.0,237480,989.5
6882,3.0,,,,,,,45.0,,,,0,note_on,,0.0,45.0,0.0,237480,989.5
6883,3.0,,,,,,,57.0,,,,0,note_on,,0.0,57.0,0.0,237480,989.5
6884,3.0,,,,,,,60.0,,,,0,note_on,,0.0,60.0,0.0,237480,989.5
6885,3.0,,,,,,,57.0,,,,0,note_on,,0.0,57.0,0.0,237480,989.5
6886,3.0,,,,,,,41.0,,,,0,note_on,,70.0,41.0,70.0,237480,989.5
6887,3.0,,,,,,,45.0,,,,4,note_on,,70.0,45.0,70.0,237484,989.5166666666667
6888,3.0,,,,,,,57.0,,,,1,note_on,,70.0,57.0,70.0,237485,989.5208333333334
6889,3.0,,,,,,,48.0,,,,0,note_on,,70.0,48.0,70.0,237485,989.5208333333334
6890,3.0,,,,,,,60.0,,,,1,note_on,,70.0,60.0,70.0,237486,989.525
6891,3.0,,,,,,,65.0,,,,1,note_on,,70.0,65.0,70.0,237487,989.5291666666667
6892,3.0,,,,,,,65.0,,,,113,note_on,,0.0,65.0,0.0,237600,990.0
6893,3.0,,,,,,,57.0,,,,0,note_on,,0.0,57.0,0.0,237600,990.0
6894,3.0,,,,,,,60.0,,,,0,note_on,,0.0,60.0,0.0,237600,990.0
6895,3.0,,,,,,,57.0,,,,0,note_on,,70.0,57.0,70.0,237600,990.0
6896,3.0,,,,,,,60.0,,,,3,note_on,,70.0,60.0,70.0,237603,990.0124999999999
6897,3.0,,,,,,,65.0,,,,4,note_on,,70.0,65.0,70.0,237607,990.0291666666667
6898,3.0,,,,,,,60.0,,,,49,note_on,,0.0,60.0,0.0,237656,990.2333333333333
6899,3.0,,,,,,,48.0,,,,4,note_on,,0.0,48.0,0.0,237660,990.25
6900,3.0,,,,,,,41.0,,,,0,note_on,,0.0,41.0,0.0,237660,990.25
6901,3.0,,,,,,,45.0,,,,0,note_on,,0.0,45.0,0.0,237660,990.25
6902,3.0,,,,,,,65.0,,,,0,note_on,,0.0,65.0,0.0,237660,990.25
6903,3.0,,,,,,,57.0,,,,0,note_on,,0.0,57.0,0.0,237660,990.25
6904,3.0,,,,,,,41.0,,,,0,note_on,,70.0,41.0,70.0,237660,990.25
6905,3.0,,,,,,,45.0,,,,4,note_on,,70.0,45.0,70.0,237664,990.2666666666667
6906,3.0,,,,,,,57.0,,,,1,note_on,,70.0,57.0,70.0,237665,990.2708333333334
6907,3.0,,,,,,,48.0,,,,0,note_on,,70.0,48.0,70.0,237665,990.2708333333334
6908,3.0,,,,,,,60.0,,,,1,note_on,,70.0,60.0,70.0,237666,990.275
6909,3.0,,,,,,,65.0,,,,1,note_on,,70.0,65.0,70.0,237667,990.2791666666667
6910,3.0,,,,,,,65.0,,,,113,note_on,,0.0,65.0,0.0,237780,990.75
6911,3.0,,,,,,,57.0,,,,0,note_on,,0.0,57.0,0.0,237780,990.75
6912,3.0,,,,,,,60.0,,,,0,note_on,,0.0,60.0,0.0,237780,990.75
6913,3.0,,,,,,,57.0,,,,0,note_on,,70.0,57.0,70.0,237780,990.75
6914,3.0,,,,,,,60.0,,,,3,note_on,,70.0,60.0,70.0,237783,990.7624999999999
6915,3.0,,,,,,,65.0,,,,4,note_on,,70.0,65.0,70.0,237787,990.7791666666667
6916,3.0,,,,,,,60.0,,,,49,note_on,,0.0,60.0,0.0,237836,990.9833333333333
6917,3.0,,,,,,,48.0,,,,4,note_on,,0.0,48.0,0.0,237840,991.0
6918,3.0,,,,,,,41.0,,,,0,note_on,,0.0,41.0,0.0,237840,991.0
6919,3.0,,,,,,,45.0,,,,0,note_on,,0.0,45.0,0.0,237840,991.0
6920,3.0,,,,,,,65.0,,,,0,note_on,,0.0,65.0,0.0,237840,991.0
6921,3.0,,,,,,,57.0,,,,0,note_on,,0.0,57.0,0.0,237840,991.0
6922,3.0,,,,,,,41.0,,,,0,note_on,,70.0,41.0,70.0,237840,991.0
6923,3.0,,,,,,,45.0,,,,4,note_on,,70.0,45.0,70.0,237844,991.0166666666667
6924,3.0,,,,,,,57.0,,,,1,note_on,,70.0,57.0,70.0,237845,991.0208333333334
6925,3.0,,,,,,,48.0,,,,0,note_on,,70.0,48.0,70.0,237845,991.0208333333334
6926,3.0,,,,,,,60.0,,,,1,note_on,,70.0,60.0,70.0,237846,991.025
6927,3.0,,,,,,,65.0,,,,1,note_on,,70.0,65.0,70.0,237847,991.0291666666667
6928,3.0,,,,,,,65.0,,,,113,note_on,,0.0,65.0,0.0,237960,991.5
6929,3.0,,,,,,,57.0,,,,0,note_on,,0.0,57.0,0.0,237960,991.5
6930,3.0,,,,,,,60.0,,,,0,note_on,,0.0,60.0,0.0,237960,991.5
6931,3.0,,,,,,,57.0,,,,0,note_on,,70.0,57.0,70.0,237960,991.5
6932,3.0,,,,,,,60.0,,,,3,note_on,,70.0,60.0,70.0,237963,991.5124999999999
6933,3.0,,,,,,,65.0,,,,4,note_on,,70.0,65.0,70.0,237967,991.5291666666667
6934,3.0,,,,,,,60.0,,,,49,note_on,,0.0,60.0,0.0,238016,991.7333333333333
6935,3.0,,,,,,,48.0,,,,4,note_on,,0.0,48.0,0.0,238020,991.75
6936,3.0,,,,,,,41.0,,,,0,note_on,,0.0,41.0,0.0,238020,991.75
6937,3.0,,,,,,,45.0,,,,0,note_on,,0.0,45.0,0.0,238020,991.75
6938,3.0,,,,,,,65.0,,,,0,note_on,,0.0,65.0,0.0,238020,991.75
6939,3.0,,,,,,,57.0,,,,0,note_on,,0.0,57.0,0.0,238020,991.75
6940,3.0,,,,,,,41.0,,,,0,note_on,,70.0,41.0,70.0,238020,991.75
6941,3.0,,,,,,,45.0,,,,4,note_on,,70.0,45.0,70.0,238024,991.7666666666667
6942,3.0,,,,,,,57.0,,,,1,note_on,,70.0,57.0,70.0,238025,991.7708333333334
6943,3.0,,,,,,,48.0,,,,0,note_on,,70.0,48.0,70.0,238025,991.7708333333334
6944,3.0,,,,,,,60.0,,,,1,note_on,,70.0,60.0,70.0,238026,991.775
6945,3.0,,,,,,,65.0,,,,1,note_on,,70.0,65.0,70.0,238027,991.7791666666667
6946,3.0,,,,,,,65.0,,,,113,note_on,,0.0,65.0,0.0,238140,992.25
6947,3.0,,,,,,,57.0,,,,0,note_on,,0.0,57.0,0.0,238140,992.25
6948,3.0,,,,,,,60.0,,,,0,note_on,,0.0,60.0,0.0,238140,992.25
6949,3.0,,,,,,,57.0,,,,0,note_on,,70.0,57.0,70.0,238140,992.25
6950,3.0,,,,,,,60.0,,,,3,note_on,,70.0,60.0,70.0,238143,992.2624999999999
6951,3.0,,,,,,,65.0,,,,4,note_on,,70.0,65.0,70.0,238147,992.2791666666667
6952,3.0,,,,,,,60.0,,,,49,note_on,,0.0,60.0,0.0,238196,992.4833333333333
6953,3.0,,,,,,,48.0,,,,4,note_on,,0.0,48.0,0.0,238200,992.5
6954,3.0,,,,,,,41.0,,,,0,note_on,,0.0,41.0,0.0,238200,992.5
6955,3.0,,,,,,,45.0,,,,0,note_on,,0.0,45.0,0.0,238200,992.5
6956,3.0,,,,,,,65.0,,,,0,note_on,,0.0,65.0,0.0,238200,992.5
6957,3.0,,,,,,,57.0,,,,0,note_on,,0.0,57.0,0.0,238200,992.5
6958,3.0,,,,,,,48.0,,,,0,note_on,,70.0,48.0,70.0,238200,992.5
6959,3.0,,,,,,,52.0,,,,4,note_on,,70.0,52.0,70.0,238204,992.5166666666667
6960,3.0,,,,,,,55.0,,,,1,note_on,,70.0,55.0,70.0,238205,992.5208333333334
6961,3.0,,,,,,,60.0,,,,1,note_on,,70.0,60.0,70.0,238206,992.525
6962,3.0,,,,,,,64.0,,,,1,note_on,,70.0,64.0,70.0,238207,992.5291666666667
6963,3.0,,,,,,,64.0,,,,113,note_on,,0.0,64.0,0.0,238320,993.0
6964,3.0,,,,,,,55.0,,,,0,note_on,,0.0,55.0,0.0,238320,993.0
6965,3.0,,,,,,,60.0,,,,0,note_on,,0.0,60.0,0.0,238320,993.0
6966,3.0,,,,,,,55.0,,,,0,note_on,,70.0,55.0,70.0,238320,993.0
6967,3.0,,,,,,,60.0,,,,4,note_on,,70.0,60.0,70.0,238324,993.0166666666667
6968,3.0,,,,,,,64.0,,,,3,note_on,,70.0,64.0,70.0,238327,993.0291666666667
6969,3.0,,,,,,,64.0,,,,53,note_on,,0.0,64.0,0.0,238380,993.25
6970,3.0,,,,,,,55.0,,,,0,note_on,,0.0,55.0,0.0,238380,993.25
6971,3.0,,,,,,,48.0,,,,0,note_on,,0.0,48.0,0.0,238380,993.25
6972,3.0,,,,,,,52.0,,,,0,note_on,,0.0,52.0,0.0,238380,993.25
6973,3.0,,,,,,,60.0,,,,0,note_on,,0.0,60.0,0.0,238380,993.25
6974,3.0,,,,,,,48.0,,,,0,note_on,,70.0,48.0,70.0,238380,993.25
6975,3.0,,,,,,,52.0,,,,4,note_on,,70.0,52.0,70.0,238384,993.2666666666667
6976,3.0,,,,,,,55.0,,,,1,note_on,,70.0,55.0,70.0,238385,993.2708333333334
6977,3.0,,,,,,,60.0,,,,1,note_on,,70.0,60.0,70.0,238386,993.275
6978,3.0,,,,,,,64.0,,,,1,note_on,,70.0,64.0,70.0,238387,993.2791666666667
6979,3.0,,,,,,,64.0,,,,113,note_on,,0.0,64.0,0.0,238500,993.75
6980,3.0,,,,,,,55.0,,,,0,note_on,,0.0,55.0,0.0,238500,993.75
6981,3.0,,,,,,,60.0,,,,0,note_on,,0.0,60.0,0.0,238500,993.75
6982,3.0,,,,,,,55.0,,,,0,note_on,,70.0,55.0,70.0,238500,993.75
6983,3.0,,,,,,,60.0,,,,4,note_on,,70.0,60.0,70.0,238504,993.7666666666667
6984,3.0,,,,,,,64.0,,,,3,note_on,,70.0,64.0,70.0,238507,993.7791666666667
6985,3.0,,,,,,,64.0,,,,53,note_on,,0.0,64.0,0.0,238560,994.0
6986,3.0,,,,,,,55.0,,,,0,note_on,,0.0,55.0,0.0,238560,994.0
6987,3.0,,,,,,,48.0,,,,0,note_on,,0.0,48.0,0.0,238560,994.0
6988,3.0,,,,,,,52.0,,,,0,note_on,,0.0,52.0,0.0,238560,994.0
6989,3.0,,,,,,,60.0,,,,0,note_on,,0.0,60.0,0.0,238560,994.0
6990,3.0,,,,,,,43.0,,,,0,note_on,,70.0,43.0,70.0,238560,994.0
6991,3.0,,,,,,,47.0,,,,2,note_on,,70.0,47.0,70.0,238562,994.0083333333333
6992,3.0,,,,,,,50.0,,,,2,note_on,,70.0,50.0,70.0,238564,994.0166666666667
6993,3.0,,,,,,,55.0,,,,1,note_on,,70.0,55.0,70.0,238565,994.0208333333334
6994,3.0,,,,,,,59.0,,,,1,note_on,,70.0,59.0,70.0,238566,994.025
6995,3.0,,,,,,,67.0,,,,1,note_on,,70.0,67.0,70.0,238567,994.0291666666667
6996,3.0,,,,,,,67.0,,,,113,note_on,,0.0,67.0,0.0,238680,994.5
6997,3.0,,,,,,,55.0,,,,0,note_on,,0.0,55.0,0.0,238680,994.5
6998,3.0,,,,,,,59.0,,,,0,note_on,,0.0,59.0,0.0,238680,994.5
6999,3.0,,,,,,,55.0,,,,0,note_on,,70.0,55.0,70.0,238680,994.5
7000,3.0,,,,,,,59.0,,,,4,note_on,,70.0,59.0,70.0,238684,994.5166666666667
7001,3.0,,,,,,,67.0,,,,3,note_on,,70.0,67.0,70.0,238687,994.5291666666667
7002,3.0,,,,,,,67.0,,,,53,note_on,,0.0,67.0,0.0,238740,994.75
7003,3.0,,,,,,,50.0,,,,0,note_on,,0.0,50.0,0.0,238740,994.75
7004,3.0,,,,,,,43.0,,,,0,note_on,,0.0,43.0,0.0,238740,994.75
7005,3.0,,,,,,,47.0,,,,0,note_on,,0.0,47.0,0.0,238740,994.75
7006,3.0,,,,,,,59.0,,,,0,note_on,,0.0,59.0,0.0,238740,994.75
7007,3.0,,,,,,,55.0,,,,0,note_on,,0.0,55.0,0.0,238740,994.75
7008,3.0,,,,,,,43.0,,,,0,note_on,,70.0,43.0,70.0,238740,994.75
7009,3.0,,,,,,,47.0,,,,2,note_on,,70.0,47.0,70.0,238742,994.7583333333333
7010,3.0,,,,,,,50.0,,,,2,note_on,,70.0,50.0,70.0,238744,994.7666666666667
7011,3.0,,,,,,,55.0,,,,1,note_on,,70.0,55.0,70.0,238745,994.7708333333334
7012,3.0,,,,,,,59.0,,,,1,note_on,,70.0,59.0,70.0,238746,994.775
7013,3.0,,,,,,,67.0,,,,1,note_on,,70.0,67.0,70.0,238747,994.7791666666667
7014,3.0,,,,,,,67.0,,,,113,note_on,,0.0,67.0,0.0,238860,995.25
7015,3.0,,,,,,,55.0,,,,0,note_on,,0.0,55.0,0.0,238860,995.25
7016,3.0,,,,,,,59.0,,,,0,note_on,,0.0,59.0,0.0,238860,995.25
7017,3.0,,,,,,,55.0,,,,0,note_on,,70.0,55.0,70.0,238860,995.25
7018,3.0,,,,,,,59.0,,,,4,note_on,,70.0,59.0,70.0,238864,995.2666666666667
7019,3.0,,,,,,,67.0,,,,3,note_on,,70.0,67.0,70.0,238867,995.2791666666667
7020,3.0,,,,,,,67.0,,,,53,note_on,,0.0,67.0,0.0,238920,995.5
7021,3.0,,,,,,,50.0,,,,0,note_on,,0.0,50.0,0.0,238920,995.5
7022,3.0,,,,,,,43.0,,,,0,note_on,,0.0,43.0,0.0,238920,995.5
7023,3.0,,,,,,,47.0,,,,0,note_on,,0.0,47.0,0.0,238920,995.5
7024,3.0,,,,,,,59.0,,,,0,note_on,,0.0,59.0,0.0,238920,995.5
7025,3.0,,,,,,,55.0,,,,0,note_on,,0.0,55.0,0.0,238920,995.5
7026,3.0,,,,,,,48.0,,,,0,note_on,,70.0,48.0,70.0,238920,995.5
7027,3.0,,,,,,,52.0,,,,4,note_on,,70.0,52.0,70.0,238924,995.5166666666667
7028,3.0,,,,,,,55.0,,,,1,note_on,,70.0,55.0,70.0,238925,995.5208333333334
7029,3.0,,,,,,,60.0,,,,1,note_on,,70.0,60.0,70.0,238926,995.525
7030,3.0,,,,,,,64.0,,,,1,note_on,,70.0,64.0,70.0,238927,995.5291666666667
7031,3.0,,,,,,,64.0,,,,113,note_on,,0.0,64.0,0.0,239040,996.0
7032,3.0,,,,,,,55.0,,,,0,note_on,,0.0,55.0,0.0,239040,996.0
7033,3.0,,,,,,,60.0,,,,0,note_on,,0.0,60.0,0.0,239040,996.0
7034,3.0,,,,,,,55.0,,,,0,note_on,,70.0,55.0,70.0,239040,996.0
7035,3.0,,,,,,,60.0,,,,4,note_on,,70.0,60.0,70.0,239044,996.0166666666667
7036,3.0,,,,,,,64.0,,,,3,note_on,,70.0,64.0,70.0,239047,996.0291666666667
7037,3.0,,,,,,,64.0,,,,53,note_on,,0.0,64.0,0.0,239100,996.25
7038,3.0,,,,,,,55.0,,,,0,note_on,,0.0,55.0,0.0,239100,996.25
7039,3.0,,,,,,,48.0,,,,0,note_on,,0.0,48.0,0.0,239100,996.25
7040,3.0,,,,,,,52.0,,,,0,note_on,,0.0,52.0,0.0,239100,996.25
7041,3.0,,,,,,,60.0,,,,0,note_on,,0.0,60.0,0.0,239100,996.25
7042,3.0,,,,,,,48.0,,,,0,note_on,,70.0,48.0,70.0,239100,996.25
7043,3.0,,,,,,,52.0,,,,4,note_on,,70.0,52.0,70.0,239104,996.2666666666667
7044,3.0,,,,,,,55.0,,,,1,note_on,,70.0,55.0,70.0,239105,996.2708333333334
7045,3.0,,,,,,,60.0,,,,1,note_on,,70.0,60.0,70.0,239106,996.275
7046,3.0,,,,,,,64.0,,,,1,note_on,,70.0,64.0,70.0,239107,996.2791666666667
7047,3.0,,,,,,,64.0,,,,113,note_on,,0.0,64.0,0.0,239220,996.75
7048,3.0,,,,,,,55.0,,,,0,note_on,,0.0,55.0,0.0,239220,996.75
7049,3.0,,,,,,,60.0,,,,0,note_on,,0.0,60.0,0.0,239220,996.75
7050,3.0,,,,,,,55.0,,,,0,note_on,,70.0,55.0,70.0,239220,996.75
7051,3.0,,,,,,,60.0,,,,4,note_on,,70.0,60.0,70.0,239224,996.7666666666667
7052,3.0,,,,,,,64.0,,,,3,note_on,,70.0,64.0,70.0,239227,996.7791666666667
7053,3.0,,,,,,,64.0,,,,53,note_on,,0.0,64.0,0.0,239280,997.0
7054,3.0,,,,,,,55.0,,,,0,note_on,,0.0,55.0,0.0,239280,997.0
7055,3.0,,,,,,,48.0,,,,0,note_on,,0.0,48.0,0.0,239280,997.0
7056,3.0,,,,,,,52.0,,,,0,note_on,,0.0,52.0,0.0,239280,997.0
7057,3.0,,,,,,,60.0,,,,0,note_on,,0.0,60.0,0.0,239280,997.0
7058,3.0,,,,,,,43.0,,,,0,note_on,,70.0,43.0,70.0,239280,997.0
7059,3.0,,,,,,,47.0,,,,2,note_on,,70.0,47.0,70.0,239282,997.0083333333333
7060,3.0,,,,,,,50.0,,,,2,note_on,,70.0,50.0,70.0,239284,997.0166666666667
7061,3.0,,,,,,,55.0,,,,1,note_on,,70.0,55.0,70.0,239285,997.0208333333334
7062,3.0,,,,,,,59.0,,,,1,note_on,,70.0,59.0,70.0,239286,997.025
7063,3.0,,,,,,,67.0,,,,1,note_on,,70.0,67.0,70.0,239287,997.0291666666667
7064,3.0,,,,,,,67.0,,,,113,note_on,,0.0,67.0,0.0,239400,997.5
7065,3.0,,,,,,,55.0,,,,0,note_on,,0.0,55.0,0.0,239400,997.5
7066,3.0,,,,,,,59.0,,,,0,note_on,,0.0,59.0,0.0,239400,997.5
7067,3.0,,,,,,,55.0,,,,0,note_on,,70.0,55.0,70.0,239400,997.5
7068,3.0,,,,,,,59.0,,,,4,note_on,,70.0,59.0,70.0,239404,997.5166666666667
7069,3.0,,,,,,,67.0,,,,3,note_on,,70.0,67.0,70.0,239407,997.5291666666667
7070,3.0,,,,,,,67.0,,,,53,note_on,,0.0,67.0,0.0,239460,997.75
7071,3.0,,,,,,,50.0,,,,0,note_on,,0.0,50.0,0.0,239460,997.75
7072,3.0,,,,,,,43.0,,,,0,note_on,,0.0,43.0,0.0,239460,997.75
7073,3.0,,,,,,,47.0,,,,0,note_on,,0.0,47.0,0.0,239460,997.75
7074,3.0,,,,,,,59.0,,,,0,note_on,,0.0,59.0,0.0,239460,997.75
7075,3.0,,,,,,,55.0,,,,0,note_on,,0.0,55.0,0.0,239460,997.75
7076,3.0,,,,,,,43.0,,,,0,note_on,,70.0,43.0,70.0,239460,997.75
7077,3.0,,,,,,,47.0,,,,2,note_on,,70.0,47.0,70.0,239462,997.7583333333333
7078,3.0,,,,,,,50.0,,,,2,note_on,,70.0,50.0,70.0,239464,997.7666666666667
7079,3.0,,,,,,,55.0,,,,1,note_on,,70.0,55.0,70.0,239465,997.7708333333334
7080,3.0,,,,,,,59.0,,,,1,note_on,,70.0,59.0,70.0,239466,997.775
7081,3.0,,,,,,,67.0,,,,1,note_on,,70.0,67.0,70.0,239467,997.7791666666667
7082,3.0,,,,,,,67.0,,,,113,note_on,,0.0,67.0,0.0,239580,998.25
7083,3.0,,,,,,,55.0,,,,0,note_on,,0.0,55.0,0.0,239580,998.25
7084,3.0,,,,,,,59.0,,,,0,note_on,,0.0,59.0,0.0,239580,998.25
7085,3.0,,,,,,,55.0,,,,0,note_on,,70.0,55.0,70.0,239580,998.25
7086,3.0,,,,,,,59.0,,,,4,note_on,,70.0,59.0,70.0,239584,998.2666666666667
7087,3.0,,,,,,,67.0,,,,3,note_on,,70.0,67.0,70.0,239587,998.2791666666667
7088,3.0,,,,,,,67.0,,,,53,note_on,,0.0,67.0,0.0,239640,998.5
7089,3.0,,,,,,,50.0,,,,0,note_on,,0.0,50.0,0.0,239640,998.5
7090,3.0,,,,,,,43.0,,,,0,note_on,,0.0,43.0,0.0,239640,998.5
7091,3.0,,,,,,,47.0,,,,0,note_on,,0.0,47.0,0.0,239640,998.5
7092,3.0,,,,,,,59.0,,,,0,note_on,,0.0,59.0,0.0,239640,998.5
7093,3.0,,,,,,,55.0,,,,0,note_on,,0.0,55.0,0.0,239640,998.5
7094,3.0,,,,,,,45.0,,,,0,note_on,,70.0,45.0,70.0,239640,998.5
7095,3.0,,,,,,,52.0,,,,2,note_on,,70.0,52.0,70.0,239642,998.5083333333333
7096,3.0,,,,,,,57.0,,,,2,note_on,,70.0,57.0,70.0,239644,998.5166666666667
7097,3.0,,,,,,,60.0,,,,1,note_on,,70.0,60.0,70.0,239645,998.5208333333334
7098,3.0,,,,,,,64.0,,,,1,note_on,,70.0,64.0,70.0,239646,998.525
7099,3.0,,,,,,,64.0,,,,114,note_on,,0.0,64.0,0.0,239760,999.0
7100,3.0,,,,,,,57.0,,,,0,note_on,,0.0,57.0,0.0,239760,999.0
7101,3.0,,,,,,,60.0,,,,0,note_on,,0.0,60.0,0.0,239760,999.0
7102,3.0,,,,,,,57.0,,,,0,note_on,,70.0,57.0,70.0,239760,999.0
7103,3.0,,,,,,,60.0,,,,4,note_on,,70.0,60.0,70.0,239764,999.0166666666667
7104,3.0,,,,,,,64.0,,,,3,note_on,,70.0,64.0,70.0,239767,999.0291666666667
7105,3.0,,,,,,,64.0,,,,53,note_on,,0.0,64.0,0.0,239820,999.25
7106,3.0,,,,,,,57.0,,,,0,note_on,,0.0,57.0,0.0,239820,999.25
7107,3.0,,,,,,,45.0,,,,0,note_on,,0.0,45.0,0.0,239820,999.25
7108,3.0,,,,,,,52.0,,,,0,note_on,,0.0,52.0,0.0,239820,999.25
7109,3.0,,,,,,,60.0,,,,0,note_on,,0.0,60.0,0.0,239820,999.25
7110,3.0,,,,,,,45.0,,,,0,note_on,,70.0,45.0,70.0,239820,999.25
7111,3.0,,,,,,,52.0,,,,2,note_on,,70.0,52.0,70.0,239822,999.2583333333333
7112,3.0,,,,,,,57.0,,,,2,note_on,,70.0,57.0,70.0,239824,999.2666666666667
7113,3.0,,,,,,,60.0,,,,1,note_on,,70.0,60.0,70.0,239825,999.2708333333334
7114,3.0,,,,,,,64.0,,,,1,note_on,,70.0,64.0,70.0,239826,999.275
7115,3.0,,,,,,,60.0,,,,54,note_on,,0.0,60.0,0.0,239880,999.5
7116,3.0,,,,,,,57.0,,,,0,note_on,,0.0,57.0,0.0,239880,999.5
7117,3.0,,,,,,,64.0,,,,0,note_on,,100.0,64.0,100.0,239880,999.5
7118,3.0,,,,,,,60.0,,,,4,note_on,,100.0,60.0,100.0,239884,999.5166666666667
7119,3.0,,,,,,,57.0,,,,3,note_on,,100.0,57.0,100.0,239887,999.5291666666667
7120,3.0,,,,,,,57.0,,,,53,note_on,,0.0,57.0,0.0,239940,999.75
7121,3.0,,,,,,,64.0,,,,0,note_on,,0.0,64.0,0.0,239940,999.75
7122,3.0,,,,,,,64.0,,,,0,note_on,,0.0,64.0,0.0,239940,999.75
7123,3.0,,,,,,,60.0,,,,0,note_on,,0.0,60.0,0.0,239940,999.75
7124,3.0,,,,,,,57.0,,,,0,note_on,,70.0,57.0,70.0,239940,999.75
7125,3.0,,,,,,,60.0,,,,4,note_on,,70.0,60.0,70.0,239944,999.7666666666667
7126,3.0,,,,,,,64.0,,,,3,note_on,,70.0,64.0,70.0,239947,999.7791666666667
7127,3.0,,,,,,,64.0,,,,53,note_on,,0.0,64.0,0.0,240000,1000.0
7128,3.0,,,,,,,57.0,,,,0,note_on,,0.0,57.0,0.0,240000,1000.0
7129,3.0,,,,,,,52.0,,,,0,note_on,,0.0,52.0,0.0,240000,1000.0
7130,3.0,,,,,,,45.0,,,,0,note_on,,0.0,45.0,0.0,240000,1000.0
7131,3.0,,,,,,,60.0,,,,0,note_on,,0.0,60.0,0.0,240000,1000.0
7132,3.0,,,,,,,48.0,,,,0,note_on,,70.0,48.0,70.0,240000,1000.0
7133,3.0,,,,,,,52.0,,,,4,note_on,,70.0,52.0,70.0,240004,1000.0166666666667
7134,3.0,,,,,,,55.0,,,,1,note_on,,70.0,55.0,70.0,240005,1000.0208333333334
7135,3.0,,,,,,,60.0,,,,1,note_on,,70.0,60.0,70.0,240006,1000.025
7136,3.0,,,,,,,64.0,,,,1,note_on,,70.0,64.0,70.0,240007,1000.0291666666667
7137,3.0,,,,,,,64.0,,,,113,note_on,,0.0,64.0,0.0,240120,1000.5
7138,3.0,,,,,,,55.0,,,,0,note_on,,0.0,55.0,0.0,240120,1000.5
7139,3.0,,,,,,,60.0,,,,0,note_on,,0.0,60.0,0.0,240120,1000.5
7140,3.0,,,,,,,55.0,,,,0,note_on,,70.0,55.0,70.0,240120,1000.5
7141,3.0,,,,,,,60.0,,,,4,note_on,,70.0,60.0,70.0,240124,1000.5166666666667
7142,3.0,,,,,,,64.0,,,,3,note_on,,70.0,64.0,70.0,240127,1000.5291666666667
7143,3.0,,,,,,,64.0,,,,53,note_on,,0.0,64.0,0.0,240180,1000.75
7144,3.0,,,,,,,55.0,,,,0,note_on,,0.0,55.0,0.0,240180,1000.75
7145,3.0,,,,,,,48.0,,,,0,note_on,,0.0,48.0,0.0,240180,1000.75
7146,3.0,,,,,,,52.0,,,,0,note_on,,0.0,52.0,0.0,240180,1000.75
7147,3.0,,,,,,,60.0,,,,0,note_on,,0.0,60.0,0.0,240180,1000.75
7148,3.0,,,,,,,48.0,,,,0,note_on,,70.0,48.0,70.0,240180,1000.75
7149,3.0,,,,,,,52.0,,,,4,note_on,,70.0,52.0,70.0,240184,1000.7666666666667
7150,3.0,,,,,,,55.0,,,,1,note_on,,70.0,55.0,70.0,240185,1000.7708333333334
7151,3.0,,,,,,,60.0,,,,1,note_on,,70.0,60.0,70.0,240186,1000.775
7152,3.0,,,,,,,64.0,,,,1,note_on,,70.0,64.0,70.0,240187,1000.7791666666667
7153,3.0,,,,,,,64.0,,,,113,note_on,,0.0,64.0,0.0,240300,1001.25
7154,3.0,,,,,,,55.0,,,,0,note_on,,0.0,55.0,0.0,240300,1001.25
7155,3.0,,,,,,,60.0,,,,0,note_on,,0.0,60.0,0.0,240300,1001.25
7156,3.0,,,,,,,55.0,,,,0,note_on,,70.0,55.0,70.0,240300,1001.25
7157,3.0,,,,,,,60.0,,,,4,note_on,,70.0,60.0,70.0,240304,1001.2666666666667
7158,3.0,,,,,,,64.0,,,,3,note_on,,70.0,64.0,70.0,240307,1001.2791666666667
7159,3.0,,,,,,,64.0,,,,53,note_on,,0.0,64.0,0.0,240360,1001.5
7160,3.0,,,,,,,55.0,,,,0,note_on,,0.0,55.0,0.0,240360,1001.5
7161,3.0,,,,,,,48.0,,,,0,note_on,,0.0,48.0,0.0,240360,1001.5
7162,3.0,,,,,,,52.0,,,,0,note_on,,0.0,52.0,0.0,240360,1001.5
7163,3.0,,,,,,,60.0,,,,0,note_on,,0.0,60.0,0.0,240360,1001.5
7164,3.0,,,,,,,45.0,,,,0,note_on,,70.0,45.0,70.0,240360,1001.5
7165,3.0,,,,,,,52.0,,,,2,note_on,,70.0,52.0,70.0,240362,1001.5083333333333
7166,3.0,,,,,,,57.0,,,,2,note_on,,70.0,57.0,70.0,240364,1001.5166666666667
7167,3.0,,,,,,,60.0,,,,1,note_on,,70.0,60.0,70.0,240365,1001.5208333333334
7168,3.0,,,,,,,64.0,,,,1,note_on,,70.0,64.0,70.0,240366,1001.525
7169,3.0,,,,,,,64.0,,,,114,note_on,,0.0,64.0,0.0,240480,1002.0
7170,3.0,,,,,,,60.0,,,,0,note_on,,0.0,60.0,0.0,240480,1002.0
7171,3.0,,,,,,,57.0,,,,0,note_on,,70.0,57.0,70.0,240480,1002.0
7172,3.0,,,,,,,60.0,,,,4,note_on,,70.0,60.0,70.0,240484,1002.0166666666667
7173,3.0,,,,,,,64.0,,,,3,note_on,,70.0,64.0,70.0,240487,1002.0291666666667
7174,3.0,,,,,,,64.0,,,,53,note_on,,0.0,64.0,0.0,240540,1002.25
7175,3.0,,,,,,,52.0,,,,0,note_on,,0.0,52.0,0.0,240540,1002.25
7176,3.0,,,,,,,45.0,,,,0,note_on,,0.0,45.0,0.0,240540,1002.25
7177,3.0,,,,,,,57.0,,,,0,note_on,,0.0,57.0,0.0,240540,1002.25
7178,3.0,,,,,,,60.0,,,,0,note_on,,0.0,60.0,0.0,240540,1002.25
7179,3.0,,,,,,,57.0,,,,0,note_on,,0.0,57.0,0.0,240540,1002.25
7180,3.0,,,,,,,45.0,,,,0,note_on,,70.0,45.0,70.0,240540,1002.25
7181,3.0,,,,,,,52.0,,,,2,note_on,,70.0,52.0,70.0,240542,1002.2583333333333
7182,3.0,,,,,,,57.0,,,,2,note_on,,70.0,57.0,70.0,240544,1002.2666666666667
7183,3.0,,,,,,,60.0,,,,1,note_on,,70.0,60.0,70.0,240545,1002.2708333333334
7184,3.0,,,,,,,64.0,,,,1,note_on,,70.0,64.0,70.0,240546,1002.275
7185,3.0,,,,,,,64.0,,,,114,note_on,,0.0,64.0,0.0,240660,1002.75
7186,3.0,,,,,,,60.0,,,,0,note_on,,0.0,60.0,0.0,240660,1002.75
7187,3.0,,,,,,,57.0,,,,0,note_on,,70.0,57.0,70.0,240660,1002.75
7188,3.0,,,,,,,60.0,,,,4,note_on,,70.0,60.0,70.0,240664,1002.7666666666667
7189,3.0,,,,,,,64.0,,,,3,note_on,,70.0,64.0,70.0,240667,1002.7791666666667
7190,3.0,,,,,,,64.0,,,,53,note_on,,0.0,64.0,0.0,240720,1003.0
7191,3.0,,,,,,,52.0,,,,0,note_on,,0.0,52.0,0.0,240720,1003.0
7192,3.0,,,,,,,45.0,,,,0,note_on,,0.0,45.0,0.0,240720,1003.0
7193,3.0,,,,,,,57.0,,,,0,note_on,,0.0,57.0,0.0,240720,1003.0
7194,3.0,,,,,,,60.0,,,,0,note_on,,0.0,60.0,0.0,240720,1003.0
7195,3.0,,,,,,,57.0,,,,0,note_on,,0.0,57.0,0.0,240720,1003.0
7196,3.0,,,,,,,48.0,,,,0,note_on,,70.0,48.0,70.0,240720,1003.0
7197,3.0,,,,,,,52.0,,,,4,note_on,,70.0,52.0,70.0,240724,1003.0166666666667
7198,3.0,,,,,,,55.0,,,,1,note_on,,70.0,55.0,70.0,240725,1003.0208333333334
7199,3.0,,,,,,,60.0,,,,1,note_on,,70.0,60.0,70.0,240726,1003.025
7200,3.0,,,,,,,64.0,,,,1,note_on,,70.0,64.0,70.0,240727,1003.0291666666667
7201,3.0,,,,,,,64.0,,,,113,note_on,,0.0,64.0,0.0,240840,1003.5
7202,3.0,,,,,,,55.0,,,,0,note_on,,0.0,55.0,0.0,240840,1003.5
7203,3.0,,,,,,,60.0,,,,0,note_on,,0.0,60.0,0.0,240840,1003.5
7204,3.0,,,,,,,55.0,,,,0,note_on,,70.0,55.0,70.0,240840,1003.5
7205,3.0,,,,,,,60.0,,,,4,note_on,,70.0,60.0,70.0,240844,1003.5166666666667
7206,3.0,,,,,,,64.0,,,,3,note_on,,70.0,64.0,70.0,240847,1003.5291666666667
7207,3.0,,,,,,,64.0,,,,53,note_on,,0.0,64.0,0.0,240900,1003.75
7208,3.0,,,,,,,55.0,,,,0,note_on,,0.0,55.0,0.0,240900,1003.75
7209,3.0,,,,,,,48.0,,,,0,note_on,,0.0,48.0,0.0,240900,1003.75
7210,3.0,,,,,,,52.0,,,,0,note_on,,0.0,52.0,0.0,240900,1003.75
7211,3.0,,,,,,,60.0,,,,0,note_on,,0.0,60.0,0.0,240900,1003.75
7212,3.0,,,,,,,48.0,,,,0,note_on,,70.0,48.0,70.0,240900,1003.75
7213,3.0,,,,,,,52.0,,,,4,note_on,,70.0,52.0,70.0,240904,1003.7666666666667
7214,3.0,,,,,,,55.0,,,,1,note_on,,70.0,55.0,70.0,240905,1003.7708333333334
7215,3.0,,,,,,,60.0,,,,1,note_on,,70.0,60.0,70.0,240906,1003.775
7216,3.0,,,,,,,64.0,,,,1,note_on,,70.0,64.0,70.0,240907,1003.7791666666667
7217,3.0,,,,,,,64.0,,,,113,note_on,,0.0,64.0,0.0,241020,1004.25
7218,3.0,,,,,,,55.0,,,,0,note_on,,0.0,55.0,0.0,241020,1004.25
7219,3.0,,,,,,,60.0,,,,0,note_on,,0.0,60.0,0.0,241020,1004.25
7220,3.0,,,,,,,55.0,,,,0,note_on,,70.0,55.0,70.0,241020,1004.25
7221,3.0,,,,,,,60.0,,,,4,note_on,,70.0,60.0,70.0,241024,1004.2666666666667
7222,3.0,,,,,,,64.0,,,,3,note_on,,70.0,64.0,70.0,241027,1004.2791666666667
7223,3.0,,,,,,,64.0,,,,53,note_on,,0.0,64.0,0.0,241080,1004.5
7224,3.0,,,,,,,55.0,,,,0,note_on,,0.0,55.0,0.0,241080,1004.5
7225,3.0,,,,,,,48.0,,,,0,note_on,,0.0,48.0,0.0,241080,1004.5
7226,3.0,,,,,,,52.0,,,,0,note_on,,0.0,52.0,0.0,241080,1004.5
7227,3.0,,,,,,,60.0,,,,0,note_on,,0.0,60.0,0.0,241080,1004.5
7228,3.0,,,,,,,45.0,,,,0,note_on,,70.0,45.0,70.0,241080,1004.5
7229,3.0,,,,,,,52.0,,,,2,note_on,,70.0,52.0,70.0,241082,1004.5083333333333
7230,3.0,,,,,,,57.0,,,,2,note_on,,70.0,57.0,70.0,241084,1004.5166666666667
7231,3.0,,,,,,,60.0,,,,1,note_on,,70.0,60.0,70.0,241085,1004.5208333333334
7232,3.0,,,,,,,64.0,,,,1,note_on,,70.0,64.0,70.0,241086,1004.525
7233,3.0,,,,,,,64.0,,,,114,note_on,,0.0,64.0,0.0,241200,1005.0
7234,3.0,,,,,,,60.0,,,,0,note_on,,0.0,60.0,0.0,241200,1005.0
7235,3.0,,,,,,,57.0,,,,0,note_on,,70.0,57.0,70.0,241200,1005.0
7236,3.0,,,,,,,60.0,,,,4,note_on,,70.0,60.0,70.0,241204,1005.0166666666667
7237,3.0,,,,,,,64.0,,,,3,note_on,,70.0,64.0,70.0,241207,1005.0291666666667
7238,3.0,,,,,,,64.0,,,,53,note_on,,0.0,64.0,0.0,241260,1005.25
7239,3.0,,,,,,,52.0,,,,0,note_on,,0.0,52.0,0.0,241260,1005.25
7240,3.0,,,,,,,45.0,,,,0,note_on,,0.0,45.0,0.0,241260,1005.25
7241,3.0,,,,,,,57.0,,,,0,note_on,,0.0,57.0,0.0,241260,1005.25
7242,3.0,,,,,,,60.0,,,,0,note_on,,0.0,60.0,0.0,241260,1005.25
7243,3.0,,,,,,,57.0,,,,0,note_on,,0.0,57.0,0.0,241260,1005.25
7244,3.0,,,,,,,45.0,,,,0,note_on,,70.0,45.0,70.0,241260,1005.25
7245,3.0,,,,,,,52.0,,,,2,note_on,,70.0,52.0,70.0,241262,1005.2583333333333
7246,3.0,,,,,,,57.0,,,,2,note_on,,70.0,57.0,70.0,241264,1005.2666666666667
7247,3.0,,,,,,,60.0,,,,1,note_on,,70.0,60.0,70.0,241265,1005.2708333333334
7248,3.0,,,,,,,64.0,,,,1,note_on,,70.0,64.0,70.0,241266,1005.275
7249,3.0,,,,,,,64.0,,,,114,note_on,,0.0,64.0,0.0,241380,1005.75
7250,3.0,,,,,,,60.0,,,,0,note_on,,0.0,60.0,0.0,241380,1005.75
7251,3.0,,,,,,,57.0,,,,0,note_on,,70.0,57.0,70.0,241380,1005.75
7252,3.0,,,,,,,60.0,,,,4,note_on,,70.0,60.0,70.0,241384,1005.7666666666667
7253,3.0,,,,,,,64.0,,,,3,note_on,,70.0,64.0,70.0,241387,1005.7791666666667
7254,3.0,,,,,,,64.0,,,,53,note_on,,0.0,64.0,0.0,241440,1006.0
7255,3.0,,,,,,,52.0,,,,0,note_on,,0.0,52.0,0.0,241440,1006.0
7256,3.0,,,,,,,45.0,,,,0,note_on,,0.0,45.0,0.0,241440,1006.0
7257,3.0,,,,,,,57.0,,,,0,note_on,,0.0,57.0,0.0,241440,1006.0
7258,3.0,,,,,,,60.0,,,,0,note_on,,0.0,60.0,0.0,241440,1006.0
7259,3.0,,,,,,,57.0,,,,0,note_on,,0.0,57.0,0.0,241440,1006.0
7260,3.0,,,,,,,41.0,,,,0,note_on,,70.0,41.0,70.0,241440,1006.0
7261,3.0,,,,,,,45.0,,,,4,note_on,,70.0,45.0,70.0,241444,1006.0166666666667
7262,3.0,,,,,,,57.0,,,,1,note_on,,70.0,57.0,70.0,241445,1006.0208333333334
7263,3.0,,,,,,,48.0,,,,0,note_on,,70.0,48.0,70.0,241445,1006.0208333333334
7264,3.0,,,,,,,60.0,,,,1,note_on,,70.0,60.0,70.0,241446,1006.025
7265,3.0,,,,,,,65.0,,,,1,note_on,,70.0,65.0,70.0,241447,1006.0291666666667
7266,3.0,,,,,,,65.0,,,,113,note_on,,0.0,65.0,0.0,241560,1006.5
7267,3.0,,,,,,,57.0,,,,0,note_on,,0.0,57.0,0.0,241560,1006.5
7268,3.0,,,,,,,60.0,,,,0,note_on,,0.0,60.0,0.0,241560,1006.5
7269,3.0,,,,,,,57.0,,,,0,note_on,,70.0,57.0,70.0,241560,1006.5
7270,3.0,,,,,,,60.0,,,,3,note_on,,70.0,60.0,70.0,241563,1006.5124999999999
7271,3.0,,,,,,,65.0,,,,4,note_on,,70.0,65.0,70.0,241567,1006.5291666666667
7272,3.0,,,,,,,60.0,,,,49,note_on,,0.0,60.0,0.0,241616,1006.7333333333333
7273,3.0,,,,,,,48.0,,,,4,note_on,,0.0,48.0,0.0,241620,1006.75
7274,3.0,,,,,,,41.0,,,,0,note_on,,0.0,41.0,0.0,241620,1006.75
7275,3.0,,,,,,,45.0,,,,0,note_on,,0.0,45.0,0.0,241620,1006.75
7276,3.0,,,,,,,65.0,,,,0,note_on,,0.0,65.0,0.0,241620,1006.75
7277,3.0,,,,,,,57.0,,,,0,note_on,,0.0,57.0,0.0,241620,1006.75
7278,3.0,,,,,,,41.0,,,,0,note_on,,70.0,41.0,70.0,241620,1006.75
7279,3.0,,,,,,,45.0,,,,4,note_on,,70.0,45.0,70.0,241624,1006.7666666666667
7280,3.0,,,,,,,57.0,,,,1,note_on,,70.0,57.0,70.0,241625,1006.7708333333334
7281,3.0,,,,,,,48.0,,,,0,note_on,,70.0,48.0,70.0,241625,1006.7708333333334
7282,3.0,,,,,,,60.0,,,,1,note_on,,70.0,60.0,70.0,241626,1006.775
7283,3.0,,,,,,,65.0,,,,1,note_on,,70.0,65.0,70.0,241627,1006.7791666666667
7284,3.0,,,,,,,65.0,,,,113,note_on,,0.0,65.0,0.0,241740,1007.25
7285,3.0,,,,,,,57.0,,,,0,note_on,,0.0,57.0,0.0,241740,1007.25
7286,3.0,,,,,,,60.0,,,,0,note_on,,0.0,60.0,0.0,241740,1007.25
7287,3.0,,,,,,,57.0,,,,0,note_on,,70.0,57.0,70.0,241740,1007.25
7288,3.0,,,,,,,60.0,,,,3,note_on,,70.0,60.0,70.0,241743,1007.2624999999999
7289,3.0,,,,,,,65.0,,,,4,note_on,,70.0,65.0,70.0,241747,1007.2791666666667
7290,3.0,,,,,,,60.0,,,,49,note_on,,0.0,60.0,0.0,241796,1007.4833333333333
7291,3.0,,,,,,,48.0,,,,4,note_on,,0.0,48.0,0.0,241800,1007.5
7292,3.0,,,,,,,41.0,,,,0,note_on,,0.0,41.0,0.0,241800,1007.5
7293,3.0,,,,,,,45.0,,,,0,note_on,,0.0,45.0,0.0,241800,1007.5
7294,3.0,,,,,,,65.0,,,,0,note_on,,0.0,65.0,0.0,241800,1007.5
7295,3.0,,,,,,,57.0,,,,0,note_on,,0.0,57.0,0.0,241800,1007.5
7296,3.0,,,,,,,43.0,,,,0,note_on,,70.0,43.0,70.0,241800,1007.5
7297,3.0,,,,,,,47.0,,,,2,note_on,,70.0,47.0,70.0,241802,1007.5083333333333
7298,3.0,,,,,,,50.0,,,,2,note_on,,70.0,50.0,70.0,241804,1007.5166666666667
7299,3.0,,,,,,,55.0,,,,1,note_on,,70.0,55.0,70.0,241805,1007.5208333333334
7300,3.0,,,,,,,59.0,,,,1,note_on,,70.0,59.0,70.0,241806,1007.525
7301,3.0,,,,,,,67.0,,,,1,note_on,,70.0,67.0,70.0,241807,1007.5291666666667
7302,3.0,,,,,,,67.0,,,,113,note_on,,0.0,67.0,0.0,241920,1008.0
7303,3.0,,,,,,,55.0,,,,0,note_on,,0.0,55.0,0.0,241920,1008.0
7304,3.0,,,,,,,59.0,,,,0,note_on,,0.0,59.0,0.0,241920,1008.0
7305,3.0,,,,,,,55.0,,,,0,note_on,,70.0,55.0,70.0,241920,1008.0
7306,3.0,,,,,,,59.0,,,,4,note_on,,70.0,59.0,70.0,241924,1008.0166666666667
7307,3.0,,,,,,,67.0,,,,3,note_on,,70.0,67.0,70.0,241927,1008.0291666666667
7308,3.0,,,,,,,67.0,,,,53,note_on,,0.0,67.0,0.0,241980,1008.25
7309,3.0,,,,,,,50.0,,,,0,note_on,,0.0,50.0,0.0,241980,1008.25
7310,3.0,,,,,,,43.0,,,,0,note_on,,0.0,43.0,0.0,241980,1008.25
7311,3.0,,,,,,,47.0,,,,0,note_on,,0.0,47.0,0.0,241980,1008.25
7312,3.0,,,,,,,59.0,,,,0,note_on,,0.0,59.0,0.0,241980,1008.25
7313,3.0,,,,,,,55.0,,,,0,note_on,,0.0,55.0,0.0,241980,1008.25
7314,3.0,,,,,,,43.0,,,,0,note_on,,70.0,43.0,70.0,241980,1008.25
7315,3.0,,,,,,,47.0,,,,2,note_on,,70.0,47.0,70.0,241982,1008.2583333333333
7316,3.0,,,,,,,50.0,,,,2,note_on,,70.0,50.0,70.0,241984,1008.2666666666667
7317,3.0,,,,,,,55.0,,,,1,note_on,,70.0,55.0,70.0,241985,1008.2708333333334
7318,3.0,,,,,,,59.0,,,,1,note_on,,70.0,59.0,70.0,241986,1008.275
7319,3.0,,,,,,,67.0,,,,1,note_on,,70.0,67.0,70.0,241987,1008.2791666666667
7320,3.0,,,,,,,67.0,,,,113,note_on,,0.0,67.0,0.0,242100,1008.75
7321,3.0,,,,,,,55.0,,,,0,note_on,,0.0,55.0,0.0,242100,1008.75
7322,3.0,,,,,,,59.0,,,,0,note_on,,0.0,59.0,0.0,242100,1008.75
7323,3.0,,,,,,,55.0,,,,0,note_on,,70.0,55.0,70.0,242100,1008.75
7324,3.0,,,,,,,59.0,,,,4,note_on,,70.0,59.0,70.0,242104,1008.7666666666667
7325,3.0,,,,,,,67.0,,,,3,note_on,,70.0,67.0,70.0,242107,1008.7791666666667
7326,3.0,,,,,,,67.0,,,,53,note_on,,0.0,67.0,0.0,242160,1009.0
7327,3.0,,,,,,,50.0,,,,0,note_on,,0.0,50.0,0.0,242160,1009.0
7328,3.0,,,,,,,43.0,,,,0,note_on,,0.0,43.0,0.0,242160,1009.0
7329,3.0,,,,,,,47.0,,,,0,note_on,,0.0,47.0,0.0,242160,1009.0
7330,3.0,,,,,,,59.0,,,,0,note_on,,0.0,59.0,0.0,242160,1009.0
7331,3.0,,,,,,,55.0,,,,0,note_on,,0.0,55.0,0.0,242160,1009.0
7332,3.0,,,,,,,48.0,,,,0,note_on,,70.0,48.0,70.0,242160,1009.0
7333,3.0,,,,,,,52.0,,,,4,note_on,,70.0,52.0,70.0,242164,1009.0166666666667
7334,3.0,,,,,,,55.0,,,,1,note_on,,70.0,55.0,70.0,242165,1009.0208333333334
7335,3.0,,,,,,,60.0,,,,1,note_on,,70.0,60.0,70.0,242166,1009.025
7336,3.0,,,,,,,64.0,,,,1,note_on,,70.0,64.0,70.0,242167,1009.0291666666667
7337,3.0,,,,,,,64.0,,,,113,note_on,,0.0,64.0,0.0,242280,1009.5
7338,3.0,,,,,,,55.0,,,,0,note_on,,0.0,55.0,0.0,242280,1009.5
7339,3.0,,,,,,,60.0,,,,0,note_on,,0.0,60.0,0.0,242280,1009.5
7340,3.0,,,,,,,55.0,,,,0,note_on,,70.0,55.0,70.0,242280,1009.5
7341,3.0,,,,,,,60.0,,,,4,note_on,,70.0,60.0,70.0,242284,1009.5166666666667
7342,3.0,,,,,,,64.0,,,,3,note_on,,70.0,64.0,70.0,242287,1009.5291666666667
7343,3.0,,,,,,,64.0,,,,53,note_on,,0.0,64.0,0.0,242340,1009.75
7344,3.0,,,,,,,55.0,,,,0,note_on,,0.0,55.0,0.0,242340,1009.75
7345,3.0,,,,,,,48.0,,,,0,note_on,,0.0,48.0,0.0,242340,1009.75
7346,3.0,,,,,,,52.0,,,,0,note_on,,0.0,52.0,0.0,242340,1009.75
7347,3.0,,,,,,,60.0,,,,0,note_on,,0.0,60.0,0.0,242340,1009.75
7348,3.0,,,,,,,48.0,,,,0,note_on,,70.0,48.0,70.0,242340,1009.75
7349,3.0,,,,,,,52.0,,,,4,note_on,,70.0,52.0,70.0,242344,1009.7666666666667
7350,3.0,,,,,,,55.0,,,,1,note_on,,70.0,55.0,70.0,242345,1009.7708333333334
7351,3.0,,,,,,,60.0,,,,1,note_on,,70.0,60.0,70.0,242346,1009.775
7352,3.0,,,,,,,64.0,,,,1,note_on,,70.0,64.0,70.0,242347,1009.7791666666667
7353,3.0,,,,,,,64.0,,,,113,note_on,,0.0,64.0,0.0,242460,1010.25
7354,3.0,,,,,,,55.0,,,,0,note_on,,0.0,55.0,0.0,242460,1010.25
7355,3.0,,,,,,,60.0,,,,0,note_on,,0.0,60.0,0.0,242460,1010.25
7356,3.0,,,,,,,55.0,,,,0,note_on,,70.0,55.0,70.0,242460,1010.25
7357,3.0,,,,,,,60.0,,,,4,note_on,,70.0,60.0,70.0,242464,1010.2666666666667
7358,3.0,,,,,,,64.0,,,,3,note_on,,70.0,64.0,70.0,242467,1010.2791666666667
7359,3.0,,,,,,,64.0,,,,53,note_on,,0.0,64.0,0.0,242520,1010.5
7360,3.0,,,,,,,55.0,,,,0,note_on,,0.0,55.0,0.0,242520,1010.5
7361,3.0,,,,,,,48.0,,,,0,note_on,,0.0,48.0,0.0,242520,1010.5
7362,3.0,,,,,,,52.0,,,,0,note_on,,0.0,52.0,0.0,242520,1010.5
7363,3.0,,,,,,,60.0,,,,0,note_on,,0.0,60.0,0.0,242520,1010.5
7364,3.0,,,,,,,43.0,,,,0,note_on,,70.0,43.0,70.0,242520,1010.5
7365,3.0,,,,,,,47.0,,,,2,note_on,,70.0,47.0,70.0,242522,1010.5083333333333
7366,3.0,,,,,,,50.0,,,,2,note_on,,70.0,50.0,70.0,242524,1010.5166666666667
7367,3.0,,,,,,,55.0,,,,1,note_on,,70.0,55.0,70.0,242525,1010.5208333333334
7368,3.0,,,,,,,59.0,,,,1,note_on,,70.0,59.0,70.0,242526,1010.525
7369,3.0,,,,,,,67.0,,,,1,note_on,,70.0,67.0,70.0,242527,1010.5291666666667
7370,3.0,,,,,,,67.0,,,,113,note_on,,0.0,67.0,0.0,242640,1011.0
7371,3.0,,,,,,,55.0,,,,0,note_on,,0.0,55.0,0.0,242640,1011.0
7372,3.0,,,,,,,59.0,,,,0,note_on,,0.0,59.0,0.0,242640,1011.0
7373,3.0,,,,,,,55.0,,,,0,note_on,,70.0,55.0,70.0,242640,1011.0
7374,3.0,,,,,,,59.0,,,,4,note_on,,70.0,59.0,70.0,242644,1011.0166666666667
7375,3.0,,,,,,,67.0,,,,3,note_on,,70.0,67.0,70.0,242647,1011.0291666666667
7376,3.0,,,,,,,67.0,,,,53,note_on,,0.0,67.0,0.0,242700,1011.25
7377,3.0,,,,,,,50.0,,,,0,note_on,,0.0,50.0,0.0,242700,1011.25
7378,3.0,,,,,,,43.0,,,,0,note_on,,0.0,43.0,0.0,242700,1011.25
7379,3.0,,,,,,,47.0,,,,0,note_on,,0.0,47.0,0.0,242700,1011.25
7380,3.0,,,,,,,59.0,,,,0,note_on,,0.0,59.0,0.0,242700,1011.25
7381,3.0,,,,,,,55.0,,,,0,note_on,,0.0,55.0,0.0,242700,1011.25
7382,3.0,,,,,,,43.0,,,,0,note_on,,70.0,43.0,70.0,242700,1011.25
7383,3.0,,,,,,,47.0,,,,2,note_on,,70.0,47.0,70.0,242702,1011.2583333333333
7384,3.0,,,,,,,50.0,,,,2,note_on,,70.0,50.0,70.0,242704,1011.2666666666667
7385,3.0,,,,,,,55.0,,,,1,note_on,,70.0,55.0,70.0,242705,1011.2708333333334
7386,3.0,,,,,,,59.0,,,,1,note_on,,70.0,59.0,70.0,242706,1011.275
7387,3.0,,,,,,,67.0,,,,1,note_on,,70.0,67.0,70.0,242707,1011.2791666666667
7388,3.0,,,,,,,67.0,,,,113,note_on,,0.0,67.0,0.0,242820,1011.75
7389,3.0,,,,,,,55.0,,,,0,note_on,,0.0,55.0,0.0,242820,1011.75
7390,3.0,,,,,,,59.0,,,,0,note_on,,0.0,59.0,0.0,242820,1011.75
7391,3.0,,,,,,,55.0,,,,0,note_on,,70.0,55.0,70.0,242820,1011.75
7392,3.0,,,,,,,59.0,,,,4,note_on,,70.0,59.0,70.0,242824,1011.7666666666667
7393,3.0,,,,,,,67.0,,,,3,note_on,,70.0,67.0,70.0,242827,1011.7791666666667
7394,3.0,,,,,,,67.0,,,,53,note_on,,0.0,67.0,0.0,242880,1012.0
7395,3.0,,,,,,,50.0,,,,0,note_on,,0.0,50.0,0.0,242880,1012.0
7396,3.0,,,,,,,43.0,,,,0,note_on,,0.0,43.0,0.0,242880,1012.0
7397,3.0,,,,,,,47.0,,,,0,note_on,,0.0,47.0,0.0,242880,1012.0
7398,3.0,,,,,,,59.0,,,,0,note_on,,0.0,59.0,0.0,242880,1012.0
7399,3.0,,,,,,,55.0,,,,0,note_on,,0.0,55.0,0.0,242880,1012.0
7400,3.0,,,,,,,48.0,,,,0,note_on,,70.0,48.0,70.0,242880,1012.0
7401,3.0,,,,,,,52.0,,,,4,note_on,,70.0,52.0,70.0,242884,1012.0166666666667
7402,3.0,,,,,,,55.0,,,,1,note_on,,70.0,55.0,70.0,242885,1012.0208333333334
7403,3.0,,,,,,,60.0,,,,1,note_on,,70.0,60.0,70.0,242886,1012.025
7404,3.0,,,,,,,64.0,,,,1,note_on,,70.0,64.0,70.0,242887,1012.0291666666667
7405,3.0,,,,,,,64.0,,,,113,note_on,,0.0,64.0,0.0,243000,1012.5
7406,3.0,,,,,,,55.0,,,,0,note_on,,0.0,55.0,0.0,243000,1012.5
7407,3.0,,,,,,,60.0,,,,0,note_on,,0.0,60.0,0.0,243000,1012.5
7408,3.0,,,,,,,55.0,,,,0,note_on,,70.0,55.0,70.0,243000,1012.5
7409,3.0,,,,,,,60.0,,,,4,note_on,,70.0,60.0,70.0,243004,1012.5166666666667
7410,3.0,,,,,,,64.0,,,,3,note_on,,70.0,64.0,70.0,243007,1012.5291666666667
7411,3.0,,,,,,,64.0,,,,53,note_on,,0.0,64.0,0.0,243060,1012.75
7412,3.0,,,,,,,55.0,,,,0,note_on,,0.0,55.0,0.0,243060,1012.75
7413,3.0,,,,,,,48.0,,,,0,note_on,,0.0,48.0,0.0,243060,1012.75
7414,3.0,,,,,,,52.0,,,,0,note_on,,0.0,52.0,0.0,243060,1012.75
7415,3.0,,,,,,,60.0,,,,0,note_on,,0.0,60.0,0.0,243060,1012.75
7416,3.0,,,,,,,48.0,,,,0,note_on,,70.0,48.0,70.0,243060,1012.75
7417,3.0,,,,,,,52.0,,,,4,note_on,,70.0,52.0,70.0,243064,1012.7666666666667
7418,3.0,,,,,,,55.0,,,,1,note_on,,70.0,55.0,70.0,243065,1012.7708333333334
7419,3.0,,,,,,,60.0,,,,1,note_on,,70.0,60.0,70.0,243066,1012.775
7420,3.0,,,,,,,64.0,,,,1,note_on,,70.0,64.0,70.0,243067,1012.7791666666667
7421,3.0,,,,,,,64.0,,,,113,note_on,,0.0,64.0,0.0,243180,1013.25
7422,3.0,,,,,,,55.0,,,,0,note_on,,0.0,55.0,0.0,243180,1013.25
7423,3.0,,,,,,,60.0,,,,0,note_on,,0.0,60.0,0.0,243180,1013.25
7424,3.0,,,,,,,55.0,,,,0,note_on,,70.0,55.0,70.0,243180,1013.25
7425,3.0,,,,,,,60.0,,,,4,note_on,,70.0,60.0,70.0,243184,1013.2666666666667
7426,3.0,,,,,,,64.0,,,,3,note_on,,70.0,64.0,70.0,243187,1013.2791666666667
7427,3.0,,,,,,,64.0,,,,53,note_on,,0.0,64.0,0.0,243240,1013.5
7428,3.0,,,,,,,55.0,,,,0,note_on,,0.0,55.0,0.0,243240,1013.5
7429,3.0,,,,,,,48.0,,,,0,note_on,,0.0,48.0,0.0,243240,1013.5
7430,3.0,,,,,,,52.0,,,,0,note_on,,0.0,52.0,0.0,243240,1013.5
7431,3.0,,,,,,,60.0,,,,0,note_on,,0.0,60.0,0.0,243240,1013.5
7432,3.0,,,,,,,41.0,,,,0,note_on,,70.0,41.0,70.0,243240,1013.5
7433,3.0,,,,,,,45.0,,,,4,note_on,,70.0,45.0,70.0,243244,1013.5166666666667
7434,3.0,,,,,,,57.0,,,,1,note_on,,70.0,57.0,70.0,243245,1013.5208333333334
7435,3.0,,,,,,,48.0,,,,0,note_on,,70.0,48.0,70.0,243245,1013.5208333333334
7436,3.0,,,,,,,60.0,,,,1,note_on,,70.0,60.0,70.0,243246,1013.525
7437,3.0,,,,,,,65.0,,,,1,note_on,,70.0,65.0,70.0,243247,1013.5291666666667
7438,3.0,,,,,,,65.0,,,,113,note_on,,0.0,65.0,0.0,243360,1014.0
7439,3.0,,,,,,,57.0,,,,0,note_on,,0.0,57.0,0.0,243360,1014.0
7440,3.0,,,,,,,60.0,,,,0,note_on,,0.0,60.0,0.0,243360,1014.0
7441,3.0,,,,,,,57.0,,,,0,note_on,,70.0,57.0,70.0,243360,1014.0
7442,3.0,,,,,,,60.0,,,,3,note_on,,70.0,60.0,70.0,243363,1014.0124999999999
7443,3.0,,,,,,,65.0,,,,4,note_on,,70.0,65.0,70.0,243367,1014.0291666666667
7444,3.0,,,,,,,60.0,,,,49,note_on,,0.0,60.0,0.0,243416,1014.2333333333333
7445,3.0,,,,,,,48.0,,,,4,note_on,,0.0,48.0,0.0,243420,1014.25
7446,3.0,,,,,,,41.0,,,,0,note_on,,0.0,41.0,0.0,243420,1014.25
7447,3.0,,,,,,,45.0,,,,0,note_on,,0.0,45.0,0.0,243420,1014.25
7448,3.0,,,,,,,65.0,,,,0,note_on,,0.0,65.0,0.0,243420,1014.25
7449,3.0,,,,,,,57.0,,,,0,note_on,,0.0,57.0,0.0,243420,1014.25
7450,3.0,,,,,,,43.0,,,,0,note_on,,70.0,43.0,70.0,243420,1014.25
7451,3.0,,,,,,,47.0,,,,2,note_on,,70.0,47.0,70.0,243422,1014.2583333333333
7452,3.0,,,,,,,50.0,,,,2,note_on,,70.0,50.0,70.0,243424,1014.2666666666667
7453,3.0,,,,,,,55.0,,,,1,note_on,,70.0,55.0,70.0,243425,1014.2708333333334
7454,3.0,,,,,,,59.0,,,,1,note_on,,70.0,59.0,70.0,243426,1014.275
7455,3.0,,,,,,,67.0,,,,1,note_on,,70.0,67.0,70.0,243427,1014.2791666666667
7456,3.0,,,,,,,67.0,,,,113,note_on,,0.0,67.0,0.0,243540,1014.75
7457,3.0,,,,,,,55.0,,,,0,note_on,,0.0,55.0,0.0,243540,1014.75
7458,3.0,,,,,,,59.0,,,,0,note_on,,0.0,59.0,0.0,243540,1014.75
7459,3.0,,,,,,,55.0,,,,0,note_on,,70.0,55.0,70.0,243540,1014.75
7460,3.0,,,,,,,59.0,,,,4,note_on,,70.0,59.0,70.0,243544,1014.7666666666667
7461,3.0,,,,,,,67.0,,,,3,note_on,,70.0,67.0,70.0,243547,1014.7791666666667
7462,3.0,,,,,,,67.0,,,,53,note_on,,0.0,67.0,0.0,243600,1015.0
7463,3.0,,,,,,,50.0,,,,0,note_on,,0.0,50.0,0.0,243600,1015.0
7464,3.0,,,,,,,43.0,,,,0,note_on,,0.0,43.0,0.0,243600,1015.0
7465,3.0,,,,,,,47.0,,,,0,note_on,,0.0,47.0,0.0,243600,1015.0
7466,3.0,,,,,,,59.0,,,,0,note_on,,0.0,59.0,0.0,243600,1015.0
7467,3.0,,,,,,,55.0,,,,0,note_on,,0.0,55.0,0.0,243600,1015.0
7468,3.0,,,,,,,45.0,,,,0,note_on,,70.0,45.0,70.0,243600,1015.0
7469,3.0,,,,,,,52.0,,,,2,note_on,,70.0,52.0,70.0,243602,1015.0083333333333
7470,3.0,,,,,,,57.0,,,,2,note_on,,70.0,57.0,70.0,243604,1015.0166666666667
7471,3.0,,,,,,,60.0,,,,1,note_on,,70.0,60.0,70.0,243605,1015.0208333333334
7472,3.0,,,,,,,64.0,,,,1,note_on,,70.0,64.0,70.0,243606,1015.025
7473,3.0,,,,,,,64.0,,,,114,note_on,,0.0,64.0,0.0,243720,1015.5
7474,3.0,,,,,,,60.0,,,,0,note_on,,0.0,60.0,0.0,243720,1015.5
7475,3.0,,,,,,,57.0,,,,0,note_on,,70.0,57.0,70.0,243720,1015.5
7476,3.0,,,,,,,60.0,,,,4,note_on,,70.0,60.0,70.0,243724,1015.5166666666667
7477,3.0,,,,,,,64.0,,,,3,note_on,,70.0,64.0,70.0,243727,1015.5291666666667
7478,3.0,,,,,,,64.0,,,,53,note_on,,0.0,64.0,0.0,243780,1015.75
7479,3.0,,,,,,,52.0,,,,0,note_on,,0.0,52.0,0.0,243780,1015.75
7480,3.0,,,,,,,45.0,,,,0,note_on,,0.0,45.0,0.0,243780,1015.75
7481,3.0,,,,,,,57.0,,,,0,note_on,,0.0,57.0,0.0,243780,1015.75
7482,3.0,,,,,,,60.0,,,,0,note_on,,0.0,60.0,0.0,243780,1015.75
7483,3.0,,,,,,,57.0,,,,0,note_on,,0.0,57.0,0.0,243780,1015.75
7484,3.0,,,,,,,45.0,,,,0,note_on,,70.0,45.0,70.0,243780,1015.75
7485,3.0,,,,,,,52.0,,,,2,note_on,,70.0,52.0,70.0,243782,1015.7583333333333
7486,3.0,,,,,,,57.0,,,,2,note_on,,70.0,57.0,70.0,243784,1015.7666666666667
7487,3.0,,,,,,,60.0,,,,1,note_on,,70.0,60.0,70.0,243785,1015.7708333333334
7488,3.0,,,,,,,64.0,,,,1,note_on,,70.0,64.0,70.0,243786,1015.775
7489,3.0,,,,,,,64.0,,,,114,note_on,,0.0,64.0,0.0,243900,1016.25
7490,3.0,,,,,,,60.0,,,,0,note_on,,0.0,60.0,0.0,243900,1016.25
7491,3.0,,,,,,,57.0,,,,0,note_on,,70.0,57.0,70.0,243900,1016.25
7492,3.0,,,,,,,60.0,,,,4,note_on,,70.0,60.0,70.0,243904,1016.2666666666667
7493,3.0,,,,,,,64.0,,,,3,note_on,,70.0,64.0,70.0,243907,1016.2791666666667
7494,3.0,,,,,,,64.0,,,,53,note_on,,0.0,64.0,0.0,243960,1016.5
7495,3.0,,,,,,,52.0,,,,0,note_on,,0.0,52.0,0.0,243960,1016.5
7496,3.0,,,,,,,45.0,,,,0,note_on,,0.0,45.0,0.0,243960,1016.5
7497,3.0,,,,,,,57.0,,,,0,note_on,,0.0,57.0,0.0,243960,1016.5
7498,3.0,,,,,,,60.0,,,,0,note_on,,0.0,60.0,0.0,243960,1016.5
7499,3.0,,,,,,,57.0,,,,0,note_on,,0.0,57.0,0.0,243960,1016.5
7500,3.0,,,,,,,41.0,,,,0,note_on,,70.0,41.0,70.0,243960,1016.5
7501,3.0,,,,,,,45.0,,,,4,note_on,,70.0,45.0,70.0,243964,1016.5166666666667
7502,3.0,,,,,,,57.0,,,,1,note_on,,70.0,57.0,70.0,243965,1016.5208333333334
7503,3.0,,,,,,,48.0,,,,0,note_on,,70.0,48.0,70.0,243965,1016.5208333333334
7504,3.0,,,,,,,60.0,,,,1,note_on,,70.0,60.0,70.0,243966,1016.525
7505,3.0,,,,,,,65.0,,,,1,note_on,,70.0,65.0,70.0,243967,1016.5291666666667
7506,3.0,,,,,,,65.0,,,,113,note_on,,0.0,65.0,0.0,244080,1017.0
7507,3.0,,,,,,,57.0,,,,0,note_on,,0.0,57.0,0.0,244080,1017.0
7508,3.0,,,,,,,60.0,,,,0,note_on,,0.0,60.0,0.0,244080,1017.0
7509,3.0,,,,,,,57.0,,,,0,note_on,,70.0,57.0,70.0,244080,1017.0
7510,3.0,,,,,,,60.0,,,,3,note_on,,70.0,60.0,70.0,244083,1017.0124999999999
7511,3.0,,,,,,,65.0,,,,4,note_on,,70.0,65.0,70.0,244087,1017.0291666666667
7512,3.0,,,,,,,60.0,,,,49,note_on,,0.0,60.0,0.0,244136,1017.2333333333333
7513,3.0,,,,,,,48.0,,,,4,note_on,,0.0,48.0,0.0,244140,1017.25
7514,3.0,,,,,,,41.0,,,,0,note_on,,0.0,41.0,0.0,244140,1017.25
7515,3.0,,,,,,,45.0,,,,0,note_on,,0.0,45.0,0.0,244140,1017.25
7516,3.0,,,,,,,65.0,,,,0,note_on,,0.0,65.0,0.0,244140,1017.25
7517,3.0,,,,,,,57.0,,,,0,note_on,,0.0,57.0,0.0,244140,1017.25
7518,3.0,,,,,,,41.0,,,,0,note_on,,70.0,41.0,70.0,244140,1017.25
7519,3.0,,,,,,,45.0,,,,4,note_on,,70.0,45.0,70.0,244144,1017.2666666666667
7520,3.0,,,,,,,57.0,,,,1,note_on,,70.0,57.0,70.0,244145,1017.2708333333334
7521,3.0,,,,,,,48.0,,,,0,note_on,,70.0,48.0,70.0,244145,1017.2708333333334
7522,3.0,,,,,,,60.0,,,,1,note_on,,70.0,60.0,70.0,244146,1017.275
7523,3.0,,,,,,,65.0,,,,1,note_on,,70.0,65.0,70.0,244147,1017.2791666666667
7524,3.0,,,,,,,65.0,,,,113,note_on,,0.0,65.0,0.0,244260,1017.75
7525,3.0,,,,,,,57.0,,,,0,note_on,,0.0,57.0,0.0,244260,1017.75
7526,3.0,,,,,,,60.0,,,,0,note_on,,0.0,60.0,0.0,244260,1017.75
7527,3.0,,,,,,,57.0,,,,0,note_on,,70.0,57.0,70.0,244260,1017.75
7528,3.0,,,,,,,60.0,,,,3,note_on,,70.0,60.0,70.0,244263,1017.7624999999999
7529,3.0,,,,,,,65.0,,,,4,note_on,,70.0,65.0,70.0,244267,1017.7791666666667
7530,3.0,,,,,,,60.0,,,,49,note_on,,0.0,60.0,0.0,244316,1017.9833333333333
7531,3.0,,,,,,,48.0,,,,4,note_on,,0.0,48.0,0.0,244320,1018.0
7532,3.0,,,,,,,41.0,,,,0,note_on,,0.0,41.0,0.0,244320,1018.0
7533,3.0,,,,,,,45.0,,,,0,note_on,,0.0,45.0,0.0,244320,1018.0
7534,3.0,,,,,,,65.0,,,,0,note_on,,0.0,65.0,0.0,244320,1018.0
7535,3.0,,,,,,,57.0,,,,0,note_on,,0.0,57.0,0.0,244320,1018.0
7536,3.0,,,,,,,43.0,,,,0,note_on,,70.0,43.0,70.0,244320,1018.0
7537,3.0,,,,,,,47.0,,,,2,note_on,,70.0,47.0,70.0,244322,1018.0083333333333
7538,3.0,,,,,,,50.0,,,,2,note_on,,70.0,50.0,70.0,244324,1018.0166666666667
7539,3.0,,,,,,,55.0,,,,1,note_on,,70.0,55.0,70.0,244325,1018.0208333333334
7540,3.0,,,,,,,59.0,,,,1,note_on,,70.0,59.0,70.0,244326,1018.025
7541,3.0,,,,,,,67.0,,,,1,note_on,,70.0,67.0,70.0,244327,1018.0291666666667
7542,3.0,,,,,,,67.0,,,,113,note_on,,0.0,67.0,0.0,244440,1018.5
7543,3.0,,,,,,,55.0,,,,0,note_on,,0.0,55.0,0.0,244440,1018.5
7544,3.0,,,,,,,59.0,,,,0,note_on,,0.0,59.0,0.0,244440,1018.5
7545,3.0,,,,,,,55.0,,,,0,note_on,,70.0,55.0,70.0,244440,1018.5
7546,3.0,,,,,,,59.0,,,,4,note_on,,70.0,59.0,70.0,244444,1018.5166666666667
7547,3.0,,,,,,,67.0,,,,3,note_on,,70.0,67.0,70.0,244447,1018.5291666666667
7548,3.0,,,,,,,67.0,,,,53,note_on,,0.0,67.0,0.0,244500,1018.75
7549,3.0,,,,,,,50.0,,,,0,note_on,,0.0,50.0,0.0,244500,1018.75
7550,3.0,,,,,,,43.0,,,,0,note_on,,0.0,43.0,0.0,244500,1018.75
7551,3.0,,,,,,,47.0,,,,0,note_on,,0.0,47.0,0.0,244500,1018.75
7552,3.0,,,,,,,59.0,,,,0,note_on,,0.0,59.0,0.0,244500,1018.75
7553,3.0,,,,,,,55.0,,,,0,note_on,,0.0,55.0,0.0,244500,1018.75
7554,3.0,,,,,,,43.0,,,,0,note_on,,70.0,43.0,70.0,244500,1018.75
7555,3.0,,,,,,,47.0,,,,2,note_on,,70.0,47.0,70.0,244502,1018.7583333333333
7556,3.0,,,,,,,50.0,,,,2,note_on,,70.0,50.0,70.0,244504,1018.7666666666667
7557,3.0,,,,,,,55.0,,,,1,note_on,,70.0,55.0,70.0,244505,1018.7708333333334
7558,3.0,,,,,,,59.0,,,,1,note_on,,70.0,59.0,70.0,244506,1018.775
7559,3.0,,,,,,,67.0,,,,1,note_on,,70.0,67.0,70.0,244507,1018.7791666666667
7560,3.0,,,,,,,67.0,,,,113,note_on,,0.0,67.0,0.0,244620,1019.25
7561,3.0,,,,,,,55.0,,,,0,note_on,,0.0,55.0,0.0,244620,1019.25
7562,3.0,,,,,,,59.0,,,,0,note_on,,0.0,59.0,0.0,244620,1019.25
7563,3.0,,,,,,,55.0,,,,0,note_on,,70.0,55.0,70.0,244620,1019.25
7564,3.0,,,,,,,59.0,,,,4,note_on,,70.0,59.0,70.0,244624,1019.2666666666667
7565,3.0,,,,,,,67.0,,,,3,note_on,,70.0,67.0,70.0,244627,1019.2791666666667
7566,3.0,,,,,,,67.0,,,,53,note_on,,0.0,67.0,0.0,244680,1019.5
7567,3.0,,,,,,,50.0,,,,0,note_on,,0.0,50.0,0.0,244680,1019.5
7568,3.0,,,,,,,43.0,,,,0,note_on,,0.0,43.0,0.0,244680,1019.5
7569,3.0,,,,,,,47.0,,,,0,note_on,,0.0,47.0,0.0,244680,1019.5
7570,3.0,,,,,,,59.0,,,,0,note_on,,0.0,59.0,0.0,244680,1019.5
7571,3.0,,,,,,,55.0,,,,0,note_on,,0.0,55.0,0.0,244680,1019.5
7572,3.0,,,,,,,40.0,,,,0,note_on,,70.0,40.0,70.0,244680,1019.5
7573,3.0,,,,,,,47.0,,,,2,note_on,,70.0,47.0,70.0,244682,1019.5083333333333
7574,3.0,,,,,,,52.0,,,,2,note_on,,70.0,52.0,70.0,244684,1019.5166666666667
7575,3.0,,,,,,,55.0,,,,1,note_on,,70.0,55.0,70.0,244685,1019.5208333333334
7576,3.0,,,,,,,59.0,,,,1,note_on,,70.0,59.0,70.0,244686,1019.525
7577,3.0,,,,,,,64.0,,,,1,note_on,,70.0,64.0,70.0,244687,1019.5291666666667
7578,3.0,,,,,,,64.0,,,,113,note_on,,0.0,64.0,0.0,244800,1020.0
7579,3.0,,,,,,,55.0,,,,0,note_on,,0.0,55.0,0.0,244800,1020.0
7580,3.0,,,,,,,59.0,,,,0,note_on,,0.0,59.0,0.0,244800,1020.0
7581,3.0,,,,,,,55.0,,,,0,note_on,,70.0,55.0,70.0,244800,1020.0
7582,3.0,,,,,,,59.0,,,,4,note_on,,70.0,59.0,70.0,244804,1020.0166666666667
7583,3.0,,,,,,,64.0,,,,3,note_on,,70.0,64.0,70.0,244807,1020.0291666666667
7584,3.0,,,,,,,64.0,,,,53,note_on,,0.0,64.0,0.0,244860,1020.25
7585,3.0,,,,,,,52.0,,,,0,note_on,,0.0,52.0,0.0,244860,1020.25
7586,3.0,,,,,,,40.0,,,,0,note_on,,0.0,40.0,0.0,244860,1020.25
7587,3.0,,,,,,,47.0,,,,0,note_on,,0.0,47.0,0.0,244860,1020.25
7588,3.0,,,,,,,59.0,,,,0,note_on,,0.0,59.0,0.0,244860,1020.25
7589,3.0,,,,,,,55.0,,,,0,note_on,,0.0,55.0,0.0,244860,1020.25
7590,3.0,,,,,,,40.0,,,,0,note_on,,70.0,40.0,70.0,244860,1020.25
7591,3.0,,,,,,,47.0,,,,2,note_on,,70.0,47.0,70.0,244862,1020.2583333333333
7592,3.0,,,,,,,52.0,,,,2,note_on,,70.0,52.0,70.0,244864,1020.2666666666667
7593,3.0,,,,,,,55.0,,,,1,note_on,,70.0,55.0,70.0,244865,1020.2708333333334
7594,3.0,,,,,,,59.0,,,,1,note_on,,70.0,59.0,70.0,244866,1020.275
7595,3.0,,,,,,,64.0,,,,1,note_on,,70.0,64.0,70.0,244867,1020.2791666666667
7596,3.0,,,,,,,64.0,,,,113,note_on,,0.0,64.0,0.0,244980,1020.75
7597,3.0,,,,,,,55.0,,,,0,note_on,,0.0,55.0,0.0,244980,1020.75
7598,3.0,,,,,,,59.0,,,,0,note_on,,0.0,59.0,0.0,244980,1020.75
7599,3.0,,,,,,,55.0,,,,0,note_on,,70.0,55.0,70.0,244980,1020.75
7600,3.0,,,,,,,59.0,,,,4,note_on,,70.0,59.0,70.0,244984,1020.7666666666667
7601,3.0,,,,,,,64.0,,,,3,note_on,,70.0,64.0,70.0,244987,1020.7791666666667
7602,3.0,,,,,,,64.0,,,,53,note_on,,0.0,64.0,0.0,245040,1021.0
7603,3.0,,,,,,,52.0,,,,0,note_on,,0.0,52.0,0.0,245040,1021.0
7604,3.0,,,,,,,40.0,,,,0,note_on,,0.0,40.0,0.0,245040,1021.0
7605,3.0,,,,,,,47.0,,,,0,note_on,,0.0,47.0,0.0,245040,1021.0
7606,3.0,,,,,,,59.0,,,,0,note_on,,0.0,59.0,0.0,245040,1021.0
7607,3.0,,,,,,,55.0,,,,0,note_on,,0.0,55.0,0.0,245040,1021.0
7608,3.0,,,,,,,45.0,,,,0,note_on,,70.0,45.0,70.0,245040,1021.0
7609,3.0,,,,,,,52.0,,,,2,note_on,,70.0,52.0,70.0,245042,1021.0083333333333
7610,3.0,,,,,,,57.0,,,,2,note_on,,70.0,57.0,70.0,245044,1021.0166666666667
7611,3.0,,,,,,,60.0,,,,1,note_on,,70.0,60.0,70.0,245045,1021.0208333333334
7612,3.0,,,,,,,64.0,,,,1,note_on,,70.0,64.0,70.0,245046,1021.025
7613,3.0,,,,,,,64.0,,,,114,note_on,,0.0,64.0,0.0,245160,1021.5
7614,3.0,,,,,,,60.0,,,,0,note_on,,0.0,60.0,0.0,245160,1021.5
7615,3.0,,,,,,,57.0,,,,0,note_on,,70.0,57.0,70.0,245160,1021.5
7616,3.0,,,,,,,60.0,,,,4,note_on,,70.0,60.0,70.0,245164,1021.5166666666667
7617,3.0,,,,,,,64.0,,,,3,note_on,,70.0,64.0,70.0,245167,1021.5291666666667
7618,3.0,,,,,,,64.0,,,,53,note_on,,0.0,64.0,0.0,245220,1021.75
7619,3.0,,,,,,,52.0,,,,0,note_on,,0.0,52.0,0.0,245220,1021.75
7620,3.0,,,,,,,45.0,,,,0,note_on,,0.0,45.0,0.0,245220,1021.75
7621,3.0,,,,,,,57.0,,,,0,note_on,,0.0,57.0,0.0,245220,1021.75
7622,3.0,,,,,,,60.0,,,,0,note_on,,0.0,60.0,0.0,245220,1021.75
7623,3.0,,,,,,,57.0,,,,0,note_on,,0.0,57.0,0.0,245220,1021.75
7624,3.0,,,,,,,45.0,,,,0,note_on,,70.0,45.0,70.0,245220,1021.75
7625,3.0,,,,,,,52.0,,,,2,note_on,,70.0,52.0,70.0,245222,1021.7583333333333
7626,3.0,,,,,,,57.0,,,,2,note_on,,70.0,57.0,70.0,245224,1021.7666666666667
7627,3.0,,,,,,,60.0,,,,1,note_on,,70.0,60.0,70.0,245225,1021.7708333333334
7628,3.0,,,,,,,64.0,,,,1,note_on,,70.0,64.0,70.0,245226,1021.775
7629,3.0,,,,,,,64.0,,,,114,note_on,,0.0,64.0,0.0,245340,1022.25
7630,3.0,,,,,,,60.0,,,,0,note_on,,0.0,60.0,0.0,245340,1022.25
7631,3.0,,,,,,,57.0,,,,0,note_on,,70.0,57.0,70.0,245340,1022.25
7632,3.0,,,,,,,60.0,,,,4,note_on,,70.0,60.0,70.0,245344,1022.2666666666667
7633,3.0,,,,,,,64.0,,,,3,note_on,,70.0,64.0,70.0,245347,1022.2791666666667
7634,3.0,,,,,,,64.0,,,,53,note_on,,0.0,64.0,0.0,245400,1022.5
7635,3.0,,,,,,,52.0,,,,0,note_on,,0.0,52.0,0.0,245400,1022.5
7636,3.0,,,,,,,45.0,,,,0,note_on,,0.0,45.0,0.0,245400,1022.5
7637,3.0,,,,,,,57.0,,,,0,note_on,,0.0,57.0,0.0,245400,1022.5
7638,3.0,,,,,,,60.0,,,,0,note_on,,0.0,60.0,0.0,245400,1022.5
7639,3.0,,,,,,,57.0,,,,0,note_on,,0.0,57.0,0.0,245400,1022.5
7640,3.0,,,,,,,45.0,,,,0,note_on,,70.0,45.0,70.0,245400,1022.5
7641,3.0,,,,,,,52.0,,,,2,note_on,,70.0,52.0,70.0,245402,1022.5083333333333
7642,3.0,,,,,,,57.0,,,,2,note_on,,70.0,57.0,70.0,245404,1022.5166666666667
7643,3.0,,,,,,,60.0,,,,1,note_on,,70.0,60.0,70.0,245405,1022.5208333333334
7644,3.0,,,,,,,64.0,,,,1,note_on,,70.0,64.0,70.0,245406,1022.525
7645,3.0,,,,,,,64.0,,,,114,note_on,,0.0,64.0,0.0,245520,1023.0
7646,3.0,,,,,,,60.0,,,,0,note_on,,0.0,60.0,0.0,245520,1023.0
7647,3.0,,,,,,,57.0,,,,0,note_on,,70.0,57.0,70.0,245520,1023.0
7648,3.0,,,,,,,60.0,,,,4,note_on,,70.0,60.0,70.0,245524,1023.0166666666667
7649,3.0,,,,,,,64.0,,,,3,note_on,,70.0,64.0,70.0,245527,1023.0291666666667
7650,3.0,,,,,,,64.0,,,,53,note_on,,0.0,64.0,0.0,245580,1023.25
7651,3.0,,,,,,,52.0,,,,0,note_on,,0.0,52.0,0.0,245580,1023.25
7652,3.0,,,,,,,45.0,,,,0,note_on,,0.0,45.0,0.0,245580,1023.25
7653,3.0,,,,,,,57.0,,,,0,note_on,,0.0,57.0,0.0,245580,1023.25
7654,3.0,,,,,,,60.0,,,,0,note_on,,0.0,60.0,0.0,245580,1023.25
7655,3.0,,,,,,,57.0,,,,0,note_on,,0.0,57.0,0.0,245580,1023.25
7656,3.0,,,,,,,45.0,,,,0,note_on,,70.0,45.0,70.0,245580,1023.25
7657,3.0,,,,,,,52.0,,,,2,note_on,,70.0,52.0,70.0,245582,1023.2583333333333
7658,3.0,,,,,,,57.0,,,,2,note_on,,70.0,57.0,70.0,245584,1023.2666666666667
7659,3.0,,,,,,,60.0,,,,1,note_on,,70.0,60.0,70.0,245585,1023.2708333333334
7660,3.0,,,,,,,64.0,,,,1,note_on,,70.0,64.0,70.0,245586,1023.275
7661,3.0,,,,,,,64.0,,,,114,note_on,,0.0,64.0,0.0,245700,1023.75
7662,3.0,,,,,,,60.0,,,,0,note_on,,0.0,60.0,0.0,245700,1023.75
7663,3.0,,,,,,,57.0,,,,0,note_on,,70.0,57.0,70.0,245700,1023.75
7664,3.0,,,,,,,60.0,,,,4,note_on,,70.0,60.0,70.0,245704,1023.7666666666667
7665,3.0,,,,,,,64.0,,,,3,note_on,,70.0,64.0,70.0,245707,1023.7791666666667
7666,3.0,,,,,,,64.0,,,,53,note_on,,0.0,64.0,0.0,245760,1024.0
7667,3.0,,,,,,,52.0,,,,0,note_on,,0.0,52.0,0.0,245760,1024.0
7668,3.0,,,,,,,45.0,,,,0,note_on,,0.0,45.0,0.0,245760,1024.0
7669,3.0,,,,,,,57.0,,,,0,note_on,,0.0,57.0,0.0,245760,1024.0
7670,3.0,,,,,,,60.0,,,,0,note_on,,0.0,60.0,0.0,245760,1024.0
7671,3.0,,,,,,,57.0,,,,0,note_on,,0.0,57.0,0.0,245760,1024.0
7672,3.0,,,,,,,41.0,,,,0,note_on,,70.0,41.0,70.0,245760,1024.0
7673,3.0,,,,,,,45.0,,,,4,note_on,,70.0,45.0,70.0,245764,1024.0166666666667
7674,3.0,,,,,,,57.0,,,,1,note_on,,70.0,57.0,70.0,245765,1024.0208333333333
7675,3.0,,,,,,,48.0,,,,0,note_on,,70.0,48.0,70.0,245765,1024.0208333333333
7676,3.0,,,,,,,60.0,,,,1,note_on,,70.0,60.0,70.0,245766,1024.025
7677,3.0,,,,,,,65.0,,,,1,note_on,,70.0,65.0,70.0,245767,1024.0291666666667
7678,3.0,,,,,,,65.0,,,,113,note_on,,0.0,65.0,0.0,245880,1024.5
7679,3.0,,,,,,,57.0,,,,0,note_on,,0.0,57.0,0.0,245880,1024.5
7680,3.0,,,,,,,60.0,,,,0,note_on,,0.0,60.0,0.0,245880,1024.5
7681,3.0,,,,,,,57.0,,,,0,note_on,,70.0,57.0,70.0,245880,1024.5
7682,3.0,,,,,,,60.0,,,,3,note_on,,70.0,60.0,70.0,245883,1024.5125
7683,3.0,,,,,,,65.0,,,,4,note_on,,70.0,65.0,70.0,245887,1024.5291666666667
7684,3.0,,,,,,,60.0,,,,49,note_on,,0.0,60.0,0.0,245936,1024.7333333333333
7685,3.0,,,,,,,48.0,,,,4,note_on,,0.0,48.0,0.0,245940,1024.75
7686,3.0,,,,,,,41.0,,,,0,note_on,,0.0,41.0,0.0,245940,1024.75
7687,3.0,,,,,,,45.0,,,,0,note_on,,0.0,45.0,0.0,245940,1024.75
7688,3.0,,,,,,,65.0,,,,0,note_on,,0.0,65.0,0.0,245940,1024.75
7689,3.0,,,,,,,57.0,,,,0,note_on,,0.0,57.0,0.0,245940,1024.75
7690,3.0,,,,,,,41.0,,,,0,note_on,,70.0,41.0,70.0,245940,1024.75
7691,3.0,,,,,,,45.0,,,,4,note_on,,70.0,45.0,70.0,245944,1024.7666666666667
7692,3.0,,,,,,,57.0,,,,1,note_on,,70.0,57.0,70.0,245945,1024.7708333333333
7693,3.0,,,,,,,48.0,,,,0,note_on,,70.0,48.0,70.0,245945,1024.7708333333333
7694,3.0,,,,,,,60.0,,,,1,note_on,,70.0,60.0,70.0,245946,1024.775
7695,3.0,,,,,,,65.0,,,,1,note_on,,70.0,65.0,70.0,245947,1024.7791666666667
7696,3.0,,,,,,,65.0,,,,113,note_on,,0.0,65.0,0.0,246060,1025.25
7697,3.0,,,,,,,57.0,,,,0,note_on,,0.0,57.0,0.0,246060,1025.25
7698,3.0,,,,,,,60.0,,,,0,note_on,,0.0,60.0,0.0,246060,1025.25
7699,3.0,,,,,,,57.0,,,,0,note_on,,70.0,57.0,70.0,246060,1025.25
7700,3.0,,,,,,,60.0,,,,3,note_on,,70.0,60.0,70.0,246063,1025.2625
7701,3.0,,,,,,,65.0,,,,4,note_on,,70.0,65.0,70.0,246067,1025.2791666666667
7702,3.0,,,,,,,60.0,,,,49,note_on,,0.0,60.0,0.0,246116,1025.4833333333333
7703,3.0,,,,,,,48.0,,,,4,note_on,,0.0,48.0,0.0,246120,1025.5
7704,3.0,,,,,,,41.0,,,,0,note_on,,0.0,41.0,0.0,246120,1025.5
7705,3.0,,,,,,,45.0,,,,0,note_on,,0.0,45.0,0.0,246120,1025.5
7706,3.0,,,,,,,65.0,,,,0,note_on,,0.0,65.0,0.0,246120,1025.5
7707,3.0,,,,,,,57.0,,,,0,note_on,,0.0,57.0,0.0,246120,1025.5
7708,3.0,,,,,,,41.0,,,,0,note_on,,70.0,41.0,70.0,246120,1025.5
7709,3.0,,,,,,,45.0,,,,4,note_on,,70.0,45.0,70.0,246124,1025.5166666666667
7710,3.0,,,,,,,57.0,,,,1,note_on,,70.0,57.0,70.0,246125,1025.5208333333333
7711,3.0,,,,,,,48.0,,,,0,note_on,,70.0,48.0,70.0,246125,1025.5208333333333
7712,3.0,,,,,,,60.0,,,,1,note_on,,70.0,60.0,70.0,246126,1025.525
7713,3.0,,,,,,,65.0,,,,1,note_on,,70.0,65.0,70.0,246127,1025.5291666666667
7714,3.0,,,,,,,65.0,,,,113,note_on,,0.0,65.0,0.0,246240,1026.0
7715,3.0,,,,,,,57.0,,,,0,note_on,,0.0,57.0,0.0,246240,1026.0
7716,3.0,,,,,,,60.0,,,,0,note_on,,0.0,60.0,0.0,246240,1026.0
7717,3.0,,,,,,,57.0,,,,0,note_on,,70.0,57.0,70.0,246240,1026.0
7718,3.0,,,,,,,60.0,,,,3,note_on,,70.0,60.0,70.0,246243,1026.0125
7719,3.0,,,,,,,65.0,,,,4,note_on,,70.0,65.0,70.0,246247,1026.0291666666667
7720,3.0,,,,,,,60.0,,,,49,note_on,,0.0,60.0,0.0,246296,1026.2333333333333
7721,3.0,,,,,,,48.0,,,,4,note_on,,0.0,48.0,0.0,246300,1026.25
7722,3.0,,,,,,,41.0,,,,0,note_on,,0.0,41.0,0.0,246300,1026.25
7723,3.0,,,,,,,45.0,,,,0,note_on,,0.0,45.0,0.0,246300,1026.25
7724,3.0,,,,,,,65.0,,,,0,note_on,,0.0,65.0,0.0,246300,1026.25
7725,3.0,,,,,,,57.0,,,,0,note_on,,0.0,57.0,0.0,246300,1026.25
7726,3.0,,,,,,,41.0,,,,0,note_on,,70.0,41.0,70.0,246300,1026.25
7727,3.0,,,,,,,45.0,,,,4,note_on,,70.0,45.0,70.0,246304,1026.2666666666667
7728,3.0,,,,,,,57.0,,,,1,note_on,,70.0,57.0,70.0,246305,1026.2708333333333
7729,3.0,,,,,,,48.0,,,,0,note_on,,70.0,48.0,70.0,246305,1026.2708333333333
7730,3.0,,,,,,,60.0,,,,1,note_on,,70.0,60.0,70.0,246306,1026.275
7731,3.0,,,,,,,65.0,,,,1,note_on,,70.0,65.0,70.0,246307,1026.2791666666667
7732,3.0,,,,,,,65.0,,,,113,note_on,,0.0,65.0,0.0,246420,1026.75
7733,3.0,,,,,,,57.0,,,,0,note_on,,0.0,57.0,0.0,246420,1026.75
7734,3.0,,,,,,,60.0,,,,0,note_on,,0.0,60.0,0.0,246420,1026.75
7735,3.0,,,,,,,57.0,,,,0,note_on,,70.0,57.0,70.0,246420,1026.75
7736,3.0,,,,,,,60.0,,,,3,note_on,,70.0,60.0,70.0,246423,1026.7625
7737,3.0,,,,,,,65.0,,,,4,note_on,,70.0,65.0,70.0,246427,1026.7791666666667
7738,3.0,,,,,,,60.0,,,,49,note_on,,0.0,60.0,0.0,246476,1026.9833333333333
7739,3.0,,,,,,,48.0,,,,4,note_on,,0.0,48.0,0.0,246480,1027.0
7740,3.0,,,,,,,41.0,,,,0,note_on,,0.0,41.0,0.0,246480,1027.0
7741,3.0,,,,,,,45.0,,,,0,note_on,,0.0,45.0,0.0,246480,1027.0
7742,3.0,,,,,,,65.0,,,,0,note_on,,0.0,65.0,0.0,246480,1027.0
7743,3.0,,,,,,,57.0,,,,0,note_on,,0.0,57.0,0.0,246480,1027.0
7744,3.0,,,,,,,45.0,,,,0,note_on,,70.0,45.0,70.0,246480,1027.0
7745,3.0,,,,,,,52.0,,,,2,note_on,,70.0,52.0,70.0,246482,1027.0083333333332
7746,3.0,,,,,,,57.0,,,,2,note_on,,70.0,57.0,70.0,246484,1027.0166666666667
7747,3.0,,,,,,,60.0,,,,1,note_on,,70.0,60.0,70.0,246485,1027.0208333333333
7748,3.0,,,,,,,64.0,,,,1,note_on,,70.0,64.0,70.0,246486,1027.025
7749,3.0,,,,,,,64.0,,,,114,note_on,,0.0,64.0,0.0,246600,1027.5
7750,3.0,,,,,,,60.0,,,,0,note_on,,0.0,60.0,0.0,246600,1027.5
7751,3.0,,,,,,,57.0,,,,0,note_on,,70.0,57.0,70.0,246600,1027.5
7752,3.0,,,,,,,60.0,,,,4,note_on,,70.0,60.0,70.0,246604,1027.5166666666667
7753,3.0,,,,,,,64.0,,,,3,note_on,,70.0,64.0,70.0,246607,1027.5291666666667
7754,3.0,,,,,,,64.0,,,,53,note_on,,0.0,64.0,0.0,246660,1027.75
7755,3.0,,,,,,,52.0,,,,0,note_on,,0.0,52.0,0.0,246660,1027.75
7756,3.0,,,,,,,45.0,,,,0,note_on,,0.0,45.0,0.0,246660,1027.75
7757,3.0,,,,,,,57.0,,,,0,note_on,,0.0,57.0,0.0,246660,1027.75
7758,3.0,,,,,,,60.0,,,,0,note_on,,0.0,60.0,0.0,246660,1027.75
7759,3.0,,,,,,,57.0,,,,0,note_on,,0.0,57.0,0.0,246660,1027.75
7760,3.0,,,,,,,45.0,,,,0,note_on,,70.0,45.0,70.0,246660,1027.75
7761,3.0,,,,,,,52.0,,,,2,note_on,,70.0,52.0,70.0,246662,1027.7583333333332
7762,3.0,,,,,,,57.0,,,,2,note_on,,70.0,57.0,70.0,246664,1027.7666666666667
7763,3.0,,,,,,,60.0,,,,1,note_on,,70.0,60.0,70.0,246665,1027.7708333333333
7764,3.0,,,,,,,64.0,,,,1,note_on,,70.0,64.0,70.0,246666,1027.775
7765,3.0,,,,,,,64.0,,,,114,note_on,,0.0,64.0,0.0,246780,1028.25
7766,3.0,,,,,,,60.0,,,,0,note_on,,0.0,60.0,0.0,246780,1028.25
7767,3.0,,,,,,,57.0,,,,0,note_on,,70.0,57.0,70.0,246780,1028.25
7768,3.0,,,,,,,60.0,,,,4,note_on,,70.0,60.0,70.0,246784,1028.2666666666667
7769,3.0,,,,,,,64.0,,,,3,note_on,,70.0,64.0,70.0,246787,1028.2791666666667
7770,3.0,,,,,,,64.0,,,,53,note_on,,0.0,64.0,0.0,246840,1028.5
7771,3.0,,,,,,,52.0,,,,0,note_on,,0.0,52.0,0.0,246840,1028.5
7772,3.0,,,,,,,45.0,,,,0,note_on,,0.0,45.0,0.0,246840,1028.5
7773,3.0,,,,,,,57.0,,,,0,note_on,,0.0,57.0,0.0,246840,1028.5
7774,3.0,,,,,,,60.0,,,,0,note_on,,0.0,60.0,0.0,246840,1028.5
7775,3.0,,,,,,,57.0,,,,0,note_on,,0.0,57.0,0.0,246840,1028.5
7776,3.0,,,,,,,45.0,,,,0,note_on,,70.0,45.0,70.0,246840,1028.5
7777,3.0,,,,,,,52.0,,,,2,note_on,,70.0,52.0,70.0,246842,1028.5083333333332
7778,3.0,,,,,,,57.0,,,,2,note_on,,70.0,57.0,70.0,246844,1028.5166666666667
7779,3.0,,,,,,,60.0,,,,1,note_on,,70.0,60.0,70.0,246845,1028.5208333333333
7780,3.0,,,,,,,64.0,,,,1,note_on,,70.0,64.0,70.0,246846,1028.525
7781,3.0,,,,,,,64.0,,,,114,note_on,,0.0,64.0,0.0,246960,1029.0
7782,3.0,,,,,,,60.0,,,,0,note_on,,0.0,60.0,0.0,246960,1029.0
7783,3.0,,,,,,,57.0,,,,0,note_on,,70.0,57.0,70.0,246960,1029.0
7784,3.0,,,,,,,60.0,,,,4,note_on,,70.0,60.0,70.0,246964,1029.0166666666667
7785,3.0,,,,,,,64.0,,,,3,note_on,,70.0,64.0,70.0,246967,1029.0291666666667
7786,3.0,,,,,,,64.0,,,,53,note_on,,0.0,64.0,0.0,247020,1029.25
7787,3.0,,,,,,,52.0,,,,0,note_on,,0.0,52.0,0.0,247020,1029.25
7788,3.0,,,,,,,45.0,,,,0,note_on,,0.0,45.0,0.0,247020,1029.25
7789,3.0,,,,,,,57.0,,,,0,note_on,,0.0,57.0,0.0,247020,1029.25
7790,3.0,,,,,,,60.0,,,,0,note_on,,0.0,60.0,0.0,247020,1029.25
7791,3.0,,,,,,,57.0,,,,0,note_on,,0.0,57.0,0.0,247020,1029.25
7792,3.0,,,,,,,45.0,,,,0,note_on,,70.0,45.0,70.0,247020,1029.25
7793,3.0,,,,,,,52.0,,,,2,note_on,,70.0,52.0,70.0,247022,1029.2583333333332
7794,3.0,,,,,,,57.0,,,,2,note_on,,70.0,57.0,70.0,247024,1029.2666666666667
7795,3.0,,,,,,,60.0,,,,1,note_on,,70.0,60.0,70.0,247025,1029.2708333333333
7796,3.0,,,,,,,64.0,,,,1,note_on,,70.0,64.0,70.0,247026,1029.275
7797,3.0,,,,,,,64.0,,,,114,note_on,,0.0,64.0,0.0,247140,1029.75
7798,3.0,,,,,,,60.0,,,,0,note_on,,0.0,60.0,0.0,247140,1029.75
7799,3.0,,,,,,,57.0,,,,0,note_on,,70.0,57.0,70.0,247140,1029.75
7800,3.0,,,,,,,60.0,,,,4,note_on,,70.0,60.0,70.0,247144,1029.7666666666667
7801,3.0,,,,,,,64.0,,,,3,note_on,,70.0,64.0,70.0,247147,1029.7791666666667
7802,3.0,,,,,,,64.0,,,,53,note_on,,0.0,64.0,0.0,247200,1030.0
7803,3.0,,,,,,,52.0,,,,0,note_on,,0.0,52.0,0.0,247200,1030.0
7804,3.0,,,,,,,45.0,,,,0,note_on,,0.0,45.0,0.0,247200,1030.0
7805,3.0,,,,,,,57.0,,,,0,note_on,,0.0,57.0,0.0,247200,1030.0
7806,3.0,,,,,,,60.0,,,,0,note_on,,0.0,60.0,0.0,247200,1030.0
7807,3.0,,,,,,,57.0,,,,0,note_on,,0.0,57.0,0.0,247200,1030.0
7808,3.0,,,,,,,41.0,,,,0,note_on,,70.0,41.0,70.0,247200,1030.0
7809,3.0,,,,,,,45.0,,,,4,note_on,,70.0,45.0,70.0,247204,1030.0166666666667
7810,3.0,,,,,,,57.0,,,,1,note_on,,70.0,57.0,70.0,247205,1030.0208333333333
7811,3.0,,,,,,,48.0,,,,0,note_on,,70.0,48.0,70.0,247205,1030.0208333333333
7812,3.0,,,,,,,60.0,,,,1,note_on,,70.0,60.0,70.0,247206,1030.025
7813,3.0,,,,,,,65.0,,,,1,note_on,,70.0,65.0,70.0,247207,1030.0291666666667
7814,3.0,,,,,,,65.0,,,,113,note_on,,0.0,65.0,0.0,247320,1030.5
7815,3.0,,,,,,,57.0,,,,0,note_on,,0.0,57.0,0.0,247320,1030.5
7816,3.0,,,,,,,60.0,,,,0,note_on,,0.0,60.0,0.0,247320,1030.5
7817,3.0,,,,,,,57.0,,,,0,note_on,,70.0,57.0,70.0,247320,1030.5
7818,3.0,,,,,,,60.0,,,,3,note_on,,70.0,60.0,70.0,247323,1030.5125
7819,3.0,,,,,,,65.0,,,,4,note_on,,70.0,65.0,70.0,247327,1030.5291666666667
7820,3.0,,,,,,,60.0,,,,49,note_on,,0.0,60.0,0.0,247376,1030.7333333333333
7821,3.0,,,,,,,48.0,,,,4,note_on,,0.0,48.0,0.0,247380,1030.75
7822,3.0,,,,,,,41.0,,,,0,note_on,,0.0,41.0,0.0,247380,1030.75
7823,3.0,,,,,,,45.0,,,,0,note_on,,0.0,45.0,0.0,247380,1030.75
7824,3.0,,,,,,,65.0,,,,0,note_on,,0.0,65.0,0.0,247380,1030.75
7825,3.0,,,,,,,57.0,,,,0,note_on,,0.0,57.0,0.0,247380,1030.75
7826,3.0,,,,,,,41.0,,,,0,note_on,,70.0,41.0,70.0,247380,1030.75
7827,3.0,,,,,,,45.0,,,,4,note_on,,70.0,45.0,70.0,247384,1030.7666666666667
7828,3.0,,,,,,,57.0,,,,1,note_on,,70.0,57.0,70.0,247385,1030.7708333333333
7829,3.0,,,,,,,48.0,,,,0,note_on,,70.0,48.0,70.0,247385,1030.7708333333333
7830,3.0,,,,,,,60.0,,,,1,note_on,,70.0,60.0,70.0,247386,1030.775
7831,3.0,,,,,,,65.0,,,,1,note_on,,70.0,65.0,70.0,247387,1030.7791666666667
7832,3.0,,,,,,,65.0,,,,113,note_on,,0.0,65.0,0.0,247500,1031.25
7833,3.0,,,,,,,57.0,,,,0,note_on,,0.0,57.0,0.0,247500,1031.25
7834,3.0,,,,,,,60.0,,,,0,note_on,,0.0,60.0,0.0,247500,1031.25
7835,3.0,,,,,,,57.0,,,,0,note_on,,70.0,57.0,70.0,247500,1031.25
7836,3.0,,,,,,,60.0,,,,3,note_on,,70.0,60.0,70.0,247503,1031.2625
7837,3.0,,,,,,,65.0,,,,4,note_on,,70.0,65.0,70.0,247507,1031.2791666666667
7838,3.0,,,,,,,60.0,,,,49,note_on,,0.0,60.0,0.0,247556,1031.4833333333333
7839,3.0,,,,,,,48.0,,,,4,note_on,,0.0,48.0,0.0,247560,1031.5
7840,3.0,,,,,,,41.0,,,,0,note_on,,0.0,41.0,0.0,247560,1031.5
7841,3.0,,,,,,,45.0,,,,0,note_on,,0.0,45.0,0.0,247560,1031.5
7842,3.0,,,,,,,65.0,,,,0,note_on,,0.0,65.0,0.0,247560,1031.5
7843,3.0,,,,,,,57.0,,,,0,note_on,,0.0,57.0,0.0,247560,1031.5
7844,3.0,,,,,,,41.0,,,,0,note_on,,70.0,41.0,70.0,247560,1031.5
7845,3.0,,,,,,,45.0,,,,4,note_on,,70.0,45.0,70.0,247564,1031.5166666666667
7846,3.0,,,,,,,57.0,,,,1,note_on,,70.0,57.0,70.0,247565,1031.5208333333333
7847,3.0,,,,,,,48.0,,,,0,note_on,,70.0,48.0,70.0,247565,1031.5208333333333
7848,3.0,,,,,,,60.0,,,,1,note_on,,70.0,60.0,70.0,247566,1031.525
7849,3.0,,,,,,,65.0,,,,1,note_on,,70.0,65.0,70.0,247567,1031.5291666666667
7850,3.0,,,,,,,65.0,,,,113,note_on,,0.0,65.0,0.0,247680,1032.0
7851,3.0,,,,,,,57.0,,,,0,note_on,,0.0,57.0,0.0,247680,1032.0
7852,3.0,,,,,,,60.0,,,,0,note_on,,0.0,60.0,0.0,247680,1032.0
7853,3.0,,,,,,,57.0,,,,0,note_on,,70.0,57.0,70.0,247680,1032.0
7854,3.0,,,,,,,60.0,,,,3,note_on,,70.0,60.0,70.0,247683,1032.0125
7855,3.0,,,,,,,65.0,,,,4,note_on,,70.0,65.0,70.0,247687,1032.0291666666667
7856,3.0,,,,,,,60.0,,,,49,note_on,,0.0,60.0,0.0,247736,1032.2333333333333
7857,3.0,,,,,,,48.0,,,,4,note_on,,0.0,48.0,0.0,247740,1032.25
7858,3.0,,,,,,,41.0,,,,0,note_on,,0.0,41.0,0.0,247740,1032.25
7859,3.0,,,,,,,45.0,,,,0,note_on,,0.0,45.0,0.0,247740,1032.25
7860,3.0,,,,,,,65.0,,,,0,note_on,,0.0,65.0,0.0,247740,1032.25
7861,3.0,,,,,,,57.0,,,,0,note_on,,0.0,57.0,0.0,247740,1032.25
7862,3.0,,,,,,,41.0,,,,0,note_on,,70.0,41.0,70.0,247740,1032.25
7863,3.0,,,,,,,45.0,,,,4,note_on,,70.0,45.0,70.0,247744,1032.2666666666667
7864,3.0,,,,,,,57.0,,,,1,note_on,,70.0,57.0,70.0,247745,1032.2708333333333
7865,3.0,,,,,,,48.0,,,,0,note_on,,70.0,48.0,70.0,247745,1032.2708333333333
7866,3.0,,,,,,,60.0,,,,1,note_on,,70.0,60.0,70.0,247746,1032.275
7867,3.0,,,,,,,65.0,,,,1,note_on,,70.0,65.0,70.0,247747,1032.2791666666667
7868,3.0,,,,,,,65.0,,,,113,note_on,,0.0,65.0,0.0,247860,1032.75
7869,3.0,,,,,,,57.0,,,,0,note_on,,0.0,57.0,0.0,247860,1032.75
7870,3.0,,,,,,,60.0,,,,0,note_on,,0.0,60.0,0.0,247860,1032.75
7871,3.0,,,,,,,57.0,,,,0,note_on,,70.0,57.0,70.0,247860,1032.75
7872,3.0,,,,,,,60.0,,,,3,note_on,,70.0,60.0,70.0,247863,1032.7625
7873,3.0,,,,,,,65.0,,,,4,note_on,,70.0,65.0,70.0,247867,1032.7791666666667
7874,3.0,,,,,,,60.0,,,,49,note_on,,0.0,60.0,0.0,247916,1032.9833333333333
7875,3.0,,,,,,,48.0,,,,4,note_on,,0.0,48.0,0.0,247920,1033.0
7876,3.0,,,,,,,41.0,,,,0,note_on,,0.0,41.0,0.0,247920,1033.0
7877,3.0,,,,,,,45.0,,,,0,note_on,,0.0,45.0,0.0,247920,1033.0
7878,3.0,,,,,,,65.0,,,,0,note_on,,0.0,65.0,0.0,247920,1033.0
7879,3.0,,,,,,,57.0,,,,0,note_on,,0.0,57.0,0.0,247920,1033.0
7880,3.0,,,,,,,48.0,,,,0,note_on,,70.0,48.0,70.0,247920,1033.0
7881,3.0,,,,,,,52.0,,,,4,note_on,,70.0,52.0,70.0,247924,1033.0166666666667
7882,3.0,,,,,,,55.0,,,,1,note_on,,70.0,55.0,70.0,247925,1033.0208333333333
7883,3.0,,,,,,,60.0,,,,1,note_on,,70.0,60.0,70.0,247926,1033.025
7884,3.0,,,,,,,64.0,,,,1,note_on,,70.0,64.0,70.0,247927,1033.0291666666667
7885,3.0,,,,,,,64.0,,,,113,note_on,,0.0,64.0,0.0,248040,1033.5
7886,3.0,,,,,,,55.0,,,,0,note_on,,0.0,55.0,0.0,248040,1033.5
7887,3.0,,,,,,,60.0,,,,0,note_on,,0.0,60.0,0.0,248040,1033.5
7888,3.0,,,,,,,55.0,,,,0,note_on,,70.0,55.0,70.0,248040,1033.5
7889,3.0,,,,,,,60.0,,,,4,note_on,,70.0,60.0,70.0,248044,1033.5166666666667
7890,3.0,,,,,,,64.0,,,,3,note_on,,70.0,64.0,70.0,248047,1033.5291666666667
7891,3.0,,,,,,,64.0,,,,53,note_on,,0.0,64.0,0.0,248100,1033.75
7892,3.0,,,,,,,55.0,,,,0,note_on,,0.0,55.0,0.0,248100,1033.75
7893,3.0,,,,,,,48.0,,,,0,note_on,,0.0,48.0,0.0,248100,1033.75
7894,3.0,,,,,,,52.0,,,,0,note_on,,0.0,52.0,0.0,248100,1033.75
7895,3.0,,,,,,,60.0,,,,0,note_on,,0.0,60.0,0.0,248100,1033.75
7896,3.0,,,,,,,48.0,,,,0,note_on,,70.0,48.0,70.0,248100,1033.75
7897,3.0,,,,,,,52.0,,,,4,note_on,,70.0,52.0,70.0,248104,1033.7666666666667
7898,3.0,,,,,,,55.0,,,,1,note_on,,70.0,55.0,70.0,248105,1033.7708333333333
7899,3.0,,,,,,,60.0,,,,1,note_on,,70.0,60.0,70.0,248106,1033.775
7900,3.0,,,,,,,64.0,,,,1,note_on,,70.0,64.0,70.0,248107,1033.7791666666667
7901,3.0,,,,,,,64.0,,,,113,note_on,,0.0,64.0,0.0,248220,1034.25
7902,3.0,,,,,,,55.0,,,,0,note_on,,0.0,55.0,0.0,248220,1034.25
7903,3.0,,,,,,,60.0,,,,0,note_on,,0.0,60.0,0.0,248220,1034.25
7904,3.0,,,,,,,55.0,,,,0,note_on,,70.0,55.0,70.0,248220,1034.25
7905,3.0,,,,,,,60.0,,,,4,note_on,,70.0,60.0,70.0,248224,1034.2666666666667
7906,3.0,,,,,,,64.0,,,,3,note_on,,70.0,64.0,70.0,248227,1034.2791666666667
7907,3.0,,,,,,,64.0,,,,53,note_on,,0.0,64.0,0.0,248280,1034.5
7908,3.0,,,,,,,55.0,,,,0,note_on,,0.0,55.0,0.0,248280,1034.5
7909,3.0,,,,,,,48.0,,,,0,note_on,,0.0,48.0,0.0,248280,1034.5
7910,3.0,,,,,,,52.0,,,,0,note_on,,0.0,52.0,0.0,248280,1034.5
7911,3.0,,,,,,,60.0,,,,0,note_on,,0.0,60.0,0.0,248280,1034.5
7912,3.0,,,,,,,43.0,,,,0,note_on,,70.0,43.0,70.0,248280,1034.5
7913,3.0,,,,,,,47.0,,,,2,note_on,,70.0,47.0,70.0,248282,1034.5083333333332
7914,3.0,,,,,,,50.0,,,,2,note_on,,70.0,50.0,70.0,248284,1034.5166666666667
7915,3.0,,,,,,,55.0,,,,1,note_on,,70.0,55.0,70.0,248285,1034.5208333333333
7916,3.0,,,,,,,59.0,,,,1,note_on,,70.0,59.0,70.0,248286,1034.525
7917,3.0,,,,,,,67.0,,,,1,note_on,,70.0,67.0,70.0,248287,1034.5291666666667
7918,3.0,,,,,,,67.0,,,,113,note_on,,0.0,67.0,0.0,248400,1035.0
7919,3.0,,,,,,,55.0,,,,0,note_on,,0.0,55.0,0.0,248400,1035.0
7920,3.0,,,,,,,59.0,,,,0,note_on,,0.0,59.0,0.0,248400,1035.0
7921,3.0,,,,,,,55.0,,,,0,note_on,,70.0,55.0,70.0,248400,1035.0
7922,3.0,,,,,,,59.0,,,,4,note_on,,70.0,59.0,70.0,248404,1035.0166666666667
7923,3.0,,,,,,,67.0,,,,3,note_on,,70.0,67.0,70.0,248407,1035.0291666666667
7924,3.0,,,,,,,67.0,,,,53,note_on,,0.0,67.0,0.0,248460,1035.25
7925,3.0,,,,,,,50.0,,,,0,note_on,,0.0,50.0,0.0,248460,1035.25
7926,3.0,,,,,,,43.0,,,,0,note_on,,0.0,43.0,0.0,248460,1035.25
7927,3.0,,,,,,,47.0,,,,0,note_on,,0.0,47.0,0.0,248460,1035.25
7928,3.0,,,,,,,59.0,,,,0,note_on,,0.0,59.0,0.0,248460,1035.25
7929,3.0,,,,,,,55.0,,,,0,note_on,,0.0,55.0,0.0,248460,1035.25
7930,3.0,,,,,,,43.0,,,,0,note_on,,70.0,43.0,70.0,248460,1035.25
7931,3.0,,,,,,,47.0,,,,2,note_on,,70.0,47.0,70.0,248462,1035.2583333333332
7932,3.0,,,,,,,50.0,,,,2,note_on,,70.0,50.0,70.0,248464,1035.2666666666667
7933,3.0,,,,,,,55.0,,,,1,note_on,,70.0,55.0,70.0,248465,1035.2708333333333
7934,3.0,,,,,,,59.0,,,,1,note_on,,70.0,59.0,70.0,248466,1035.275
7935,3.0,,,,,,,67.0,,,,1,note_on,,70.0,67.0,70.0,248467,1035.2791666666667
7936,3.0,,,,,,,67.0,,,,113,note_on,,0.0,67.0,0.0,248580,1035.75
7937,3.0,,,,,,,55.0,,,,0,note_on,,0.0,55.0,0.0,248580,1035.75
7938,3.0,,,,,,,59.0,,,,0,note_on,,0.0,59.0,0.0,248580,1035.75
7939,3.0,,,,,,,55.0,,,,0,note_on,,70.0,55.0,70.0,248580,1035.75
7940,3.0,,,,,,,59.0,,,,4,note_on,,70.0,59.0,70.0,248584,1035.7666666666667
7941,3.0,,,,,,,67.0,,,,3,note_on,,70.0,67.0,70.0,248587,1035.7791666666667
7942,3.0,,,,,,,67.0,,,,53,note_on,,0.0,67.0,0.0,248640,1036.0
7943,3.0,,,,,,,50.0,,,,0,note_on,,0.0,50.0,0.0,248640,1036.0
7944,3.0,,,,,,,43.0,,,,0,note_on,,0.0,43.0,0.0,248640,1036.0
7945,3.0,,,,,,,47.0,,,,0,note_on,,0.0,47.0,0.0,248640,1036.0
7946,3.0,,,,,,,59.0,,,,0,note_on,,0.0,59.0,0.0,248640,1036.0
7947,3.0,,,,,,,55.0,,,,0,note_on,,0.0,55.0,0.0,248640,1036.0
7948,3.0,,,,,,,48.0,,,,0,note_on,,70.0,48.0,70.0,248640,1036.0
7949,3.0,,,,,,,52.0,,,,4,note_on,,70.0,52.0,70.0,248644,1036.0166666666667
7950,3.0,,,,,,,55.0,,,,1,note_on,,70.0,55.0,70.0,248645,1036.0208333333333
7951,3.0,,,,,,,60.0,,,,1,note_on,,70.0,60.0,70.0,248646,1036.025
7952,3.0,,,,,,,64.0,,,,1,note_on,,70.0,64.0,70.0,248647,1036.0291666666667
7953,3.0,,,,,,,64.0,,,,113,note_on,,0.0,64.0,0.0,248760,1036.5
7954,3.0,,,,,,,55.0,,,,0,note_on,,0.0,55.0,0.0,248760,1036.5
7955,3.0,,,,,,,60.0,,,,0,note_on,,0.0,60.0,0.0,248760,1036.5
7956,3.0,,,,,,,55.0,,,,0,note_on,,70.0,55.0,70.0,248760,1036.5
7957,3.0,,,,,,,60.0,,,,4,note_on,,70.0,60.0,70.0,248764,1036.5166666666667
7958,3.0,,,,,,,64.0,,,,3,note_on,,70.0,64.0,70.0,248767,1036.5291666666667
7959,3.0,,,,,,,64.0,,,,53,note_on,,0.0,64.0,0.0,248820,1036.75
7960,3.0,,,,,,,55.0,,,,0,note_on,,0.0,55.0,0.0,248820,1036.75
7961,3.0,,,,,,,48.0,,,,0,note_on,,0.0,48.0,0.0,248820,1036.75
7962,3.0,,,,,,,52.0,,,,0,note_on,,0.0,52.0,0.0,248820,1036.75
7963,3.0,,,,,,,60.0,,,,0,note_on,,0.0,60.0,0.0,248820,1036.75
7964,3.0,,,,,,,48.0,,,,0,note_on,,70.0,48.0,70.0,248820,1036.75
7965,3.0,,,,,,,52.0,,,,4,note_on,,70.0,52.0,70.0,248824,1036.7666666666667
7966,3.0,,,,,,,55.0,,,,1,note_on,,70.0,55.0,70.0,248825,1036.7708333333333
7967,3.0,,,,,,,60.0,,,,1,note_on,,70.0,60.0,70.0,248826,1036.775
7968,3.0,,,,,,,64.0,,,,1,note_on,,70.0,64.0,70.0,248827,1036.7791666666667
7969,3.0,,,,,,,64.0,,,,113,note_on,,0.0,64.0,0.0,248940,1037.25
7970,3.0,,,,,,,55.0,,,,0,note_on,,0.0,55.0,0.0,248940,1037.25
7971,3.0,,,,,,,60.0,,,,0,note_on,,0.0,60.0,0.0,248940,1037.25
7972,3.0,,,,,,,55.0,,,,0,note_on,,70.0,55.0,70.0,248940,1037.25
7973,3.0,,,,,,,60.0,,,,4,note_on,,70.0,60.0,70.0,248944,1037.2666666666667
7974,3.0,,,,,,,64.0,,,,3,note_on,,70.0,64.0,70.0,248947,1037.2791666666667
7975,3.0,,,,,,,64.0,,,,53,note_on,,0.0,64.0,0.0,249000,1037.5
7976,3.0,,,,,,,55.0,,,,0,note_on,,0.0,55.0,0.0,249000,1037.5
7977,3.0,,,,,,,48.0,,,,0,note_on,,0.0,48.0,0.0,249000,1037.5
7978,3.0,,,,,,,52.0,,,,0,note_on,,0.0,52.0,0.0,249000,1037.5
7979,3.0,,,,,,,60.0,,,,0,note_on,,0.0,60.0,0.0,249000,1037.5
7980,3.0,,,,,,,43.0,,,,0,note_on,,70.0,43.0,70.0,249000,1037.5
7981,3.0,,,,,,,47.0,,,,2,note_on,,70.0,47.0,70.0,249002,1037.5083333333332
7982,3.0,,,,,,,50.0,,,,2,note_on,,70.0,50.0,70.0,249004,1037.5166666666667
7983,3.0,,,,,,,55.0,,,,1,note_on,,70.0,55.0,70.0,249005,1037.5208333333333
7984,3.0,,,,,,,59.0,,,,1,note_on,,70.0,59.0,70.0,249006,1037.525
7985,3.0,,,,,,,67.0,,,,1,note_on,,70.0,67.0,70.0,249007,1037.5291666666667
7986,3.0,,,,,,,67.0,,,,113,note_on,,0.0,67.0,0.0,249120,1038.0
7987,3.0,,,,,,,55.0,,,,0,note_on,,0.0,55.0,0.0,249120,1038.0
7988,3.0,,,,,,,59.0,,,,0,note_on,,0.0,59.0,0.0,249120,1038.0
7989,3.0,,,,,,,55.0,,,,0,note_on,,70.0,55.0,70.0,249120,1038.0
7990,3.0,,,,,,,59.0,,,,4,note_on,,70.0,59.0,70.0,249124,1038.0166666666667
7991,3.0,,,,,,,67.0,,,,3,note_on,,70.0,67.0,70.0,249127,1038.0291666666667
7992,3.0,,,,,,,67.0,,,,53,note_on,,0.0,67.0,0.0,249180,1038.25
7993,3.0,,,,,,,50.0,,,,0,note_on,,0.0,50.0,0.0,249180,1038.25
7994,3.0,,,,,,,43.0,,,,0,note_on,,0.0,43.0,0.0,249180,1038.25
7995,3.0,,,,,,,47.0,,,,0,note_on,,0.0,47.0,0.0,249180,1038.25
7996,3.0,,,,,,,59.0,,,,0,note_on,,0.0,59.0,0.0,249180,1038.25
7997,3.0,,,,,,,55.0,,,,0,note_on,,0.0,55.0,0.0,249180,1038.25
7998,3.0,,,,,,,43.0,,,,0,note_on,,70.0,43.0,70.0,249180,1038.25
7999,3.0,,,,,,,47.0,,,,2,note_on,,70.0,47.0,70.0,249182,1038.2583333333332
8000,3.0,,,,,,,50.0,,,,2,note_on,,70.0,50.0,70.0,249184,1038.2666666666667
8001,3.0,,,,,,,55.0,,,,1,note_on,,70.0,55.0,70.0,249185,1038.2708333333333
8002,3.0,,,,,,,59.0,,,,1,note_on,,70.0,59.0,70.0,249186,1038.275
8003,3.0,,,,,,,67.0,,,,1,note_on,,70.0,67.0,70.0,249187,1038.2791666666667
8004,3.0,,,,,,,67.0,,,,113,note_on,,0.0,67.0,0.0,249300,1038.75
8005,3.0,,,,,,,55.0,,,,0,note_on,,0.0,55.0,0.0,249300,1038.75
8006,3.0,,,,,,,59.0,,,,0,note_on,,0.0,59.0,0.0,249300,1038.75
8007,3.0,,,,,,,55.0,,,,0,note_on,,70.0,55.0,70.0,249300,1038.75
8008,3.0,,,,,,,59.0,,,,4,note_on,,70.0,59.0,70.0,249304,1038.7666666666667
8009,3.0,,,,,,,67.0,,,,3,note_on,,70.0,67.0,70.0,249307,1038.7791666666667
8010,3.0,,,,,,,67.0,,,,53,note_on,,0.0,67.0,0.0,249360,1039.0
8011,3.0,,,,,,,50.0,,,,0,note_on,,0.0,50.0,0.0,249360,1039.0
8012,3.0,,,,,,,43.0,,,,0,note_on,,0.0,43.0,0.0,249360,1039.0
8013,3.0,,,,,,,47.0,,,,0,note_on,,0.0,47.0,0.0,249360,1039.0
8014,3.0,,,,,,,59.0,,,,0,note_on,,0.0,59.0,0.0,249360,1039.0
8015,3.0,,,,,,,55.0,,,,0,note_on,,0.0,55.0,0.0,249360,1039.0
8016,3.0,,,,,,,48.0,,,,0,note_on,,70.0,48.0,70.0,249360,1039.0
8017,3.0,,,,,,,52.0,,,,2,note_on,,70.0,52.0,70.0,249362,1039.0083333333332
8018,3.0,,,,,,,55.0,,,,2,note_on,,70.0,55.0,70.0,249364,1039.0166666666667
8019,3.0,,,,,,,60.0,,,,1,note_on,,70.0,60.0,70.0,249365,1039.0208333333333
8020,3.0,,,,,,,64.0,,,,1,note_on,,70.0,64.0,70.0,249366,1039.025
8021,3.0,,,,,,,64.0,,,,114,note_on,,0.0,64.0,0.0,249480,1039.5
8022,3.0,,,,,,,55.0,,,,0,note_on,,0.0,55.0,0.0,249480,1039.5
8023,3.0,,,,,,,60.0,,,,0,note_on,,0.0,60.0,0.0,249480,1039.5
8024,3.0,,,,,,,55.0,,,,0,note_on,,70.0,55.0,70.0,249480,1039.5
8025,3.0,,,,,,,60.0,,,,4,note_on,,70.0,60.0,70.0,249484,1039.5166666666667
8026,3.0,,,,,,,64.0,,,,3,note_on,,70.0,64.0,70.0,249487,1039.5291666666667
8027,3.0,,,,,,,64.0,,,,53,note_on,,0.0,64.0,0.0,249540,1039.75
8028,3.0,,,,,,,55.0,,,,0,note_on,,0.0,55.0,0.0,249540,1039.75
8029,3.0,,,,,,,48.0,,,,0,note_on,,0.0,48.0,0.0,249540,1039.75
8030,3.0,,,,,,,52.0,,,,0,note_on,,0.0,52.0,0.0,249540,1039.75
8031,3.0,,,,,,,60.0,,,,0,note_on,,0.0,60.0,0.0,249540,1039.75
8032,3.0,,,,,,,48.0,,,,0,note_on,,70.0,48.0,70.0,249540,1039.75
8033,3.0,,,,,,,52.0,,,,2,note_on,,70.0,52.0,70.0,249542,1039.7583333333332
8034,3.0,,,,,,,55.0,,,,2,note_on,,70.0,55.0,70.0,249544,1039.7666666666667
8035,3.0,,,,,,,60.0,,,,1,note_on,,70.0,60.0,70.0,249545,1039.7708333333333
8036,3.0,,,,,,,64.0,,,,1,note_on,,70.0,64.0,70.0,249546,1039.775
8037,3.0,,,,,,,60.0,,,,54,note_on,,0.0,60.0,0.0,249600,1040.0
8038,3.0,,,,,,,55.0,,,,0,note_on,,0.0,55.0,0.0,249600,1040.0
8039,3.0,,,,,,,64.0,,,,0,note_on,,100.0,64.0,100.0,249600,1040.0
8040,3.0,,,,,,,60.0,,,,4,note_on,,100.0,60.0,100.0,249604,1040.0166666666667
8041,3.0,,,,,,,55.0,,,,3,note_on,,100.0,55.0,100.0,249607,1040.0291666666667
8042,3.0,,,,,,,55.0,,,,53,note_on,,0.0,55.0,0.0,249660,1040.25
8043,3.0,,,,,,,64.0,,,,0,note_on,,0.0,64.0,0.0,249660,1040.25
8044,3.0,,,,,,,64.0,,,,0,note_on,,0.0,64.0,0.0,249660,1040.25
8045,3.0,,,,,,,60.0,,,,0,note_on,,0.0,60.0,0.0,249660,1040.25
8046,3.0,,,,,,,55.0,,,,0,note_on,,70.0,55.0,70.0,249660,1040.25
8047,3.0,,,,,,,60.0,,,,4,note_on,,70.0,60.0,70.0,249664,1040.2666666666667
8048,3.0,,,,,,,64.0,,,,3,note_on,,70.0,64.0,70.0,249667,1040.2791666666667
8049,3.0,,,,,,,64.0,,,,53,note_on,,0.0,64.0,0.0,249720,1040.5
8050,3.0,,,,,,,55.0,,,,0,note_on,,0.0,55.0,0.0,249720,1040.5
8051,3.0,,,,,,,52.0,,,,0,note_on,,0.0,52.0,0.0,249720,1040.5
8052,3.0,,,,,,,48.0,,,,0,note_on,,0.0,48.0,0.0,249720,1040.5
8053,3.0,,,,,,,60.0,,,,0,note_on,,0.0,60.0,0.0,249720,1040.5
8054,3.0,,,,,,,48.0,,,,0,note_on,,70.0,48.0,70.0,249720,1040.5
8055,3.0,,,,,,,52.0,,,,2,note_on,,70.0,52.0,70.0,249722,1040.5083333333332
8056,3.0,,,,,,,55.0,,,,1,note_on,,70.0,55.0,70.0,249723,1040.5125
8057,3.0,,,,,,,60.0,,,,2,note_on,,70.0,60.0,70.0,249725,1040.5208333333333
8058,3.0,,,,,,,64.0,,,,2,note_on,,70.0,64.0,70.0,249727,1040.5291666666667
8059,3.0,,,,,,,52.0,,,,286,note_on,,0.0,52.0,0.0,250013,1041.7208333333333
8060,3.0,,,,,,,48.0,,,,0,note_on,,0.0,48.0,0.0,250013,1041.7208333333333
8061,3.0,,,,,,,55.0,,,,3,note_on,,0.0,55.0,0.0,250016,1041.7333333333333
8062,3.0,,,,,,,60.0,,,,4,note_on,,0.0,60.0,0.0,250020,1041.75
8063,3.0,,,,,,,64.0,,,,0,note_on,,0.0,64.0,0.0,250020,1041.75
8064,,,,,,,,,,,,0,end_of_track,,,,,250020,1041.75
8065,4.0,,,,,,,,,32.0,,0,program_change,,,,,250020,1041.75
8066,4.0,,7.0,,,,,,,,,0,control_change,75.0,,,,250020,1041.75
8067,4.0,,,,,,,48.0,,,,0,note_on,,76.0,48.0,76.0,250020,1041.75
8068,4.0,,,,,,,48.0,,,,300,note_on,,0.0,48.0,0.0,250320,1043.0
8069,4.0,,,,,,,47.0,,,,5,note_on,,76.0,47.0,76.0,250325,1043.0208333333333
8070,4.0,,,,,,,47.0,,,,60,note_on,,0.0,47.0,0.0,250385,1043.2708333333333
8071,4.0,,,,,,,45.0,,,,0,note_on,,76.0,45.0,76.0,250385,1043.2708333333333
8072,4.0,,,,,,,45.0,,,,300,note_on,,0.0,45.0,0.0,250685,1044.5208333333333
8073,4.0,,,,,,,47.0,,,,0,note_on,,76.0,47.0,76.0,250685,1044.5208333333333
8074,4.0,,,,,,,47.0,,,,60,note_on,,0.0,47.0,0.0,250745,1044.7708333333333
8075,4.0,,,,,,,48.0,,,,0,note_on,,76.0,48.0,76.0,250745,1044.7708333333333
8076,4.0,,,,,,,48.0,,,,300,note_on,,0.0,48.0,0.0,251045,1046.0208333333333
8077,4.0,,,,,,,47.0,,,,0,note_on,,76.0,47.0,76.0,251045,1046.0208333333333
8078,4.0,,,,,,,47.0,,,,60,note_on,,0.0,47.0,0.0,251105,1046.2708333333333
8079,4.0,,,,,,,45.0,,,,0,note_on,,76.0,45.0,76.0,251105,1046.2708333333333
8080,4.0,,,,,,,45.0,,,,300,note_on,,0.0,45.0,0.0,251405,1047.5208333333333
8081,4.0,,,,,,,47.0,,,,0,note_on,,76.0,47.0,76.0,251405,1047.5208333333333
8082,4.0,,,,,,,47.0,,,,60,note_on,,0.0,47.0,0.0,251465,1047.7708333333333
8083,4.0,,,,,,,48.0,,,,0,note_on,,76.0,48.0,76.0,251465,1047.7708333333333
8084,4.0,,,,,,,48.0,,,,300,note_on,,0.0,48.0,0.0,251765,1049.0208333333333
8085,4.0,,,,,,,47.0,,,,0,note_on,,76.0,47.0,76.0,251765,1049.0208333333333
8086,4.0,,,,,,,47.0,,,,60,note_on,,0.0,47.0,0.0,251825,1049.2708333333333
8087,4.0,,,,,,,45.0,,,,0,note_on,,76.0,45.0,76.0,251825,1049.2708333333333
8088,4.0,,,,,,,45.0,,,,300,note_on,,0.0,45.0,0.0,252125,1050.5208333333333
8089,4.0,,,,,,,47.0,,,,0,note_on,,76.0,47.0,76.0,252125,1050.5208333333333
8090,4.0,,,,,,,47.0,,,,60,note_on,,0.0,47.0,0.0,252185,1050.7708333333333
8091,4.0,,,,,,,48.0,,,,0,note_on,,76.0,48.0,76.0,252185,1050.7708333333333
8092,4.0,,,,,,,48.0,,,,300,note_on,,0.0,48.0,0.0,252485,1052.0208333333333
8093,4.0,,,,,,,47.0,,,,0,note_on,,76.0,47.0,76.0,252485,1052.0208333333333
8094,4.0,,,,,,,47.0,,,,60,note_on,,0.0,47.0,0.0,252545,1052.2708333333333
8095,4.0,,,,,,,45.0,,,,0,note_on,,76.0,45.0,76.0,252545,1052.2708333333333
8096,4.0,,,,,,,45.0,,,,300,note_on,,0.0,45.0,0.0,252845,1053.5208333333333
8097,4.0,,,,,,,47.0,,,,0,note_on,,76.0,47.0,76.0,252845,1053.5208333333333
8098,4.0,,,,,,,47.0,,,,60,note_on,,0.0,47.0,0.0,252905,1053.7708333333333
8099,4.0,,,,,,,41.0,,,,0,note_on,,76.0,41.0,76.0,252905,1053.7708333333333
8100,4.0,,,,,,,41.0,,,,300,note_on,,0.0,41.0,0.0,253205,1055.0208333333333
8101,4.0,,,,,,,45.0,,,,0,note_on,,76.0,45.0,76.0,253205,1055.0208333333333
8102,4.0,,,,,,,45.0,,,,60,note_on,,0.0,45.0,0.0,253265,1055.2708333333333
8103,4.0,,,,,,,43.0,,,,0,note_on,,76.0,43.0,76.0,253265,1055.2708333333333
8104,4.0,,,,,,,43.0,,,,300,note_on,,0.0,43.0,0.0,253565,1056.5208333333333
8105,4.0,,,,,,,47.0,,,,0,note_on,,76.0,47.0,76.0,253565,1056.5208333333333
8106,4.0,,,,,,,47.0,,,,60,note_on,,0.0,47.0,0.0,253625,1056.7708333333333
8107,4.0,,,,,,,48.0,,,,0,note_on,,76.0,48.0,76.0,253625,1056.7708333333333
8108,4.0,,,,,,,48.0,,,,300,note_on,,0.0,48.0,0.0,253925,1058.0208333333333
8109,4.0,,,,,,,47.0,,,,0,note_on,,76.0,47.0,76.0,253925,1058.0208333333333
8110,4.0,,,,,,,47.0,,,,60,note_on,,0.0,47.0,0.0,253985,1058.2708333333333
8111,4.0,,,,,,,43.0,,,,0,note_on,,76.0,43.0,76.0,253985,1058.2708333333333
8112,4.0,,,,,,,43.0,,,,300,note_on,,0.0,43.0,0.0,254285,1059.5208333333333
8113,4.0,,,,,,,47.0,,,,0,note_on,,76.0,47.0,76.0,254285,1059.5208333333333
8114,4.0,,,,,,,47.0,,,,60,note_on,,0.0,47.0,0.0,254345,1059.7708333333333
8115,4.0,,,,,,,48.0,,,,0,note_on,,76.0,48.0,76.0,254345,1059.7708333333333
8116,4.0,,,,,,,48.0,,,,300,note_on,,0.0,48.0,0.0,254645,1061.0208333333333
8117,4.0,,,,,,,47.0,,,,0,note_on,,76.0,47.0,76.0,254645,1061.0208333333333
8118,4.0,,,,,,,47.0,,,,60,note_on,,0.0,47.0,0.0,254705,1061.2708333333333
8119,4.0,,,,,,,41.0,,,,0,note_on,,76.0,41.0,76.0,254705,1061.2708333333333
8120,4.0,,,,,,,41.0,,,,180,note_on,,0.0,41.0,0.0,254885,1062.0208333333333
8121,4.0,,,,,,,43.0,,,,0,note_on,,76.0,43.0,76.0,254885,1062.0208333333333
8122,4.0,,,,,,,43.0,,,,180,note_on,,0.0,43.0,0.0,255065,1062.7708333333333
8123,4.0,,,,,,,45.0,,,,0,note_on,,76.0,45.0,76.0,255065,1062.7708333333333
8124,4.0,,,,,,,45.0,,,,300,note_on,,0.0,45.0,0.0,255365,1064.0208333333333
8125,4.0,,,,,,,47.0,,,,0,note_on,,76.0,47.0,76.0,255365,1064.0208333333333
8126,4.0,,,,,,,47.0,,,,60,note_on,,0.0,47.0,0.0,255425,1064.2708333333333
8127,4.0,,,,,,,41.0,,,,0,note_on,,76.0,41.0,76.0,255425,1064.2708333333333
8128,4.0,,,,,,,41.0,,,,300,note_on,,0.0,41.0,0.0,255725,1065.5208333333333
8129,4.0,,,,,,,45.0,,,,0,note_on,,76.0,45.0,76.0,255725,1065.5208333333333
8130,4.0,,,,,,,45.0,,,,60,note_on,,0.0,45.0,0.0,255785,1065.7708333333333
8131,4.0,,,,,,,43.0,,,,0,note_on,,76.0,43.0,76.0,255785,1065.7708333333333
8132,4.0,,,,,,,43.0,,,,300,note_on,,0.0,43.0,0.0,256085,1067.0208333333333
8133,4.0,,,,,,,47.0,,,,0,note_on,,76.0,47.0,76.0,256085,1067.0208333333333
8134,4.0,,,,,,,47.0,,,,60,note_on,,0.0,47.0,0.0,256145,1067.2708333333333
8135,4.0,,,,,,,40.0,,,,0,note_on,,76.0,40.0,76.0,256145,1067.2708333333333
8136,4.0,,,,,,,40.0,,,,300,note_on,,0.0,40.0,0.0,256445,1068.5208333333333
8137,4.0,,,,,,,47.0,,,,0,note_on,,76.0,47.0,76.0,256445,1068.5208333333333
8138,4.0,,,,,,,47.0,,,,60,note_on,,0.0,47.0,0.0,256505,1068.7708333333333
8139,4.0,,,,,,,45.0,,,,0,note_on,,76.0,45.0,76.0,256505,1068.7708333333333
8140,4.0,,,,,,,45.0,,,,300,note_on,,0.0,45.0,0.0,256805,1070.0208333333333
8141,4.0,,,,,,,45.0,,,,0,note_on,,76.0,45.0,76.0,256805,1070.0208333333333
8142,4.0,,,,,,,45.0,,,,60,note_on,,0.0,45.0,0.0,256865,1070.2708333333333
8143,4.0,,,,,,,45.0,,,,0,note_on,,65.0,45.0,65.0,256865,1070.2708333333333
8144,4.0,,,,,,,45.0,,,,180,note_on,,0.0,45.0,0.0,257045,1071.0208333333333
8145,4.0,,,,,,,41.0,,,,180,note_on,,76.0,41.0,76.0,257225,1071.7708333333333
8146,4.0,,,,,,,41.0,,,,300,note_on,,0.0,41.0,0.0,257525,1073.0208333333333
8147,4.0,,,,,,,45.0,,,,0,note_on,,76.0,45.0,76.0,257525,1073.0208333333333
8148,4.0,,,,,,,45.0,,,,60,note_on,,0.0,45.0,0.0,257585,1073.2708333333333
8149,4.0,,,,,,,41.0,,,,0,note_on,,76.0,41.0,76.0,257585,1073.2708333333333
8150,4.0,,,,,,,41.0,,,,300,note_on,,0.0,41.0,0.0,257885,1074.5208333333333
8151,4.0,,,,,,,45.0,,,,0,note_on,,76.0,45.0,76.0,257885,1074.5208333333333
8152,4.0,,,,,,,45.0,,,,60,note_on,,0.0,45.0,0.0,257945,1074.7708333333333
8153,4.0,,,,,,,45.0,,,,0,note_on,,76.0,45.0,76.0,257945,1074.7708333333333
8154,4.0,,,,,,,45.0,,,,300,note_on,,0.0,45.0,0.0,258245,1076.0208333333333
8155,4.0,,,,,,,47.0,,,,0,note_on,,76.0,47.0,76.0,258245,1076.0208333333333
8156,4.0,,,,,,,47.0,,,,60,note_on,,0.0,47.0,0.0,258305,1076.2708333333333
8157,4.0,,,,,,,45.0,,,,0,note_on,,76.0,45.0,76.0,258305,1076.2708333333333
8158,4.0,,,,,,,45.0,,,,300,note_on,,0.0,45.0,0.0,258605,1077.5208333333333
8159,4.0,,,,,,,47.0,,,,0,note_on,,76.0,47.0,76.0,258605,1077.5208333333333
8160,4.0,,,,,,,47.0,,,,60,note_on,,0.0,47.0,0.0,258665,1077.7708333333333
8161,4.0,,,,,,,41.0,,,,0,note_on,,76.0,41.0,76.0,258665,1077.7708333333333
8162,4.0,,,,,,,41.0,,,,300,note_on,,0.0,41.0,0.0,258965,1079.0208333333333
8163,4.0,,,,,,,45.0,,,,0,note_on,,76.0,45.0,76.0,258965,1079.0208333333333
8164,4.0,,,,,,,45.0,,,,60,note_on,,0.0,45.0,0.0,259025,1079.2708333333333
8165,4.0,,,,,,,41.0,,,,0,note_on,,76.0,41.0,76.0,259025,1079.2708333333333
8166,4.0,,,,,,,41.0,,,,300,note_on,,0.0,41.0,0.0,259325,1080.5208333333333
8167,4.0,,,,,,,45.0,,,,0,note_on,,76.0,45.0,76.0,259325,1080.5208333333333
8168,4.0,,,,,,,45.0,,,,60,note_on,,0.0,45.0,0.0,259385,1080.7708333333333
8169,4.0,,,,,,,48.0,,,,0,note_on,,76.0,48.0,76.0,259385,1080.7708333333333
8170,4.0,,,,,,,48.0,,,,300,note_on,,0.0,48.0,0.0,259685,1082.0208333333333
8171,4.0,,,,,,,47.0,,,,0,note_on,,76.0,47.0,76.0,259685,1082.0208333333333
8172,4.0,,,,,,,47.0,,,,60,note_on,,0.0,47.0,0.0,259745,1082.2708333333333
8173,4.0,,,,,,,43.0,,,,0,note_on,,76.0,43.0,76.0,259745,1082.2708333333333
8174,4.0,,,,,,,43.0,,,,300,note_on,,0.0,43.0,0.0,260045,1083.5208333333333
8175,4.0,,,,,,,47.0,,,,0,note_on,,76.0,47.0,76.0,260045,1083.5208333333333
8176,4.0,,,,,,,47.0,,,,60,note_on,,0.0,47.0,0.0,260105,1083.7708333333333
8177,4.0,,,,,,,48.0,,,,0,note_on,,76.0,48.0,76.0,260105,1083.7708333333333
8178,4.0,,,,,,,48.0,,,,300,note_on,,0.0,48.0,0.0,260405,1085.0208333333333
8179,4.0,,,,,,,47.0,,,,0,note_on,,76.0,47.0,76.0,260405,1085.0208333333333
8180,4.0,,,,,,,47.0,,,,60,note_on,,0.0,47.0,0.0,260465,1085.2708333333333
8181,4.0,,,,,,,43.0,,,,0,note_on,,76.0,43.0,76.0,260465,1085.2708333333333
8182,4.0,,,,,,,43.0,,,,300,note_on,,0.0,43.0,0.0,260765,1086.5208333333333
8183,4.0,,,,,,,47.0,,,,0,note_on,,76.0,47.0,76.0,260765,1086.5208333333333
8184,4.0,,,,,,,47.0,,,,60,note_on,,0.0,47.0,0.0,260825,1086.7708333333333
8185,4.0,,,,,,,45.0,,,,0,note_on,,76.0,45.0,76.0,260825,1086.7708333333333
8186,4.0,,,,,,,45.0,,,,300,note_on,,0.0,45.0,0.0,261125,1088.0208333333333
8187,4.0,,,,,,,47.0,,,,0,note_on,,76.0,47.0,76.0,261125,1088.0208333333333
8188,4.0,,,,,,,47.0,,,,60,note_on,,0.0,47.0,0.0,261185,1088.2708333333333
8189,4.0,,,,,,,48.0,,,,0,note_on,,76.0,48.0,76.0,261185,1088.2708333333333
8190,4.0,,,,,,,48.0,,,,300,note_on,,0.0,48.0,0.0,261485,1089.5208333333333
8191,4.0,,,,,,,47.0,,,,0,note_on,,76.0,47.0,76.0,261485,1089.5208333333333
8192,4.0,,,,,,,47.0,,,,60,note_on,,0.0,47.0,0.0,261545,1089.7708333333333
8193,4.0,,,,,,,45.0,,,,0,note_on,,76.0,45.0,76.0,261545,1089.7708333333333
8194,4.0,,,,,,,45.0,,,,300,note_on,,0.0,45.0,0.0,261845,1091.0208333333333
8195,4.0,,,,,,,47.0,,,,0,note_on,,76.0,47.0,76.0,261845,1091.0208333333333
8196,4.0,,,,,,,47.0,,,,60,note_on,,0.0,47.0,0.0,261905,1091.2708333333333
8197,4.0,,,,,,,48.0,,,,0,note_on,,76.0,48.0,76.0,261905,1091.2708333333333
8198,4.0,,,,,,,48.0,,,,300,note_on,,0.0,48.0,0.0,262205,1092.5208333333333
8199,4.0,,,,,,,47.0,,,,0,note_on,,76.0,47.0,76.0,262205,1092.5208333333333
8200,4.0,,,,,,,47.0,,,,60,note_on,,0.0,47.0,0.0,262265,1092.7708333333333
8201,4.0,,,,,,,45.0,,,,0,note_on,,76.0,45.0,76.0,262265,1092.7708333333333
8202,4.0,,,,,,,45.0,,,,300,note_on,,0.0,45.0,0.0,262565,1094.0208333333333
8203,4.0,,,,,,,47.0,,,,0,note_on,,76.0,47.0,76.0,262565,1094.0208333333333
8204,4.0,,,,,,,47.0,,,,60,note_on,,0.0,47.0,0.0,262625,1094.2708333333333
8205,4.0,,,,,,,41.0,,,,0,note_on,,76.0,41.0,76.0,262625,1094.2708333333333
8206,4.0,,,,,,,41.0,,,,300,note_on,,0.0,41.0,0.0,262925,1095.5208333333333
8207,4.0,,,,,,,45.0,,,,0,note_on,,76.0,45.0,76.0,262925,1095.5208333333333
8208,4.0,,,,,,,45.0,,,,60,note_on,,0.0,45.0,0.0,262985,1095.7708333333333
8209,4.0,,,,,,,43.0,,,,0,note_on,,76.0,43.0,76.0,262985,1095.7708333333333
8210,4.0,,,,,,,43.0,,,,300,note_on,,0.0,43.0,0.0,263285,1097.0208333333333
8211,4.0,,,,,,,47.0,,,,0,note_on,,76.0,47.0,76.0,263285,1097.0208333333333
8212,4.0,,,,,,,47.0,,,,60,note_on,,0.0,47.0,0.0,263345,1097.2708333333333
8213,4.0,,,,,,,48.0,,,,0,note_on,,76.0,48.0,76.0,263345,1097.2708333333333
8214,4.0,,,,,,,48.0,,,,300,note_on,,0.0,48.0,0.0,263645,1098.5208333333333
8215,4.0,,,,,,,47.0,,,,0,note_on,,76.0,47.0,76.0,263645,1098.5208333333333
8216,4.0,,,,,,,47.0,,,,60,note_on,,0.0,47.0,0.0,263705,1098.7708333333333
8217,4.0,,,,,,,43.0,,,,0,note_on,,76.0,43.0,76.0,263705,1098.7708333333333
8218,4.0,,,,,,,43.0,,,,300,note_on,,0.0,43.0,0.0,264005,1100.0208333333333
8219,4.0,,,,,,,47.0,,,,0,note_on,,76.0,47.0,76.0,264005,1100.0208333333333
8220,4.0,,,,,,,47.0,,,,60,note_on,,0.0,47.0,0.0,264065,1100.2708333333333
8221,4.0,,,,,,,48.0,,,,0,note_on,,76.0,48.0,76.0,264065,1100.2708333333333
8222,4.0,,,,,,,48.0,,,,300,note_on,,0.0,48.0,0.0,264365,1101.5208333333333
8223,4.0,,,,,,,47.0,,,,0,note_on,,76.0,47.0,76.0,264365,1101.5208333333333
8224,4.0,,,,,,,47.0,,,,60,note_on,,0.0,47.0,0.0,264425,1101.7708333333333
8225,4.0,,,,,,,41.0,,,,0,note_on,,76.0,41.0,76.0,264425,1101.7708333333333
8226,4.0,,,,,,,41.0,,,,180,note_on,,0.0,41.0,0.0,264605,1102.5208333333333
8227,4.0,,,,,,,43.0,,,,0,note_on,,76.0,43.0,76.0,264605,1102.5208333333333
8228,4.0,,,,,,,43.0,,,,180,note_on,,0.0,43.0,0.0,264785,1103.2708333333333
8229,4.0,,,,,,,45.0,,,,0,note_on,,76.0,45.0,76.0,264785,1103.2708333333333
8230,4.0,,,,,,,45.0,,,,300,note_on,,0.0,45.0,0.0,265085,1104.5208333333333
8231,4.0,,,,,,,47.0,,,,0,note_on,,76.0,47.0,76.0,265085,1104.5208333333333
8232,4.0,,,,,,,47.0,,,,60,note_on,,0.0,47.0,0.0,265145,1104.7708333333333
8233,4.0,,,,,,,41.0,,,,0,note_on,,76.0,41.0,76.0,265145,1104.7708333333333
8234,4.0,,,,,,,41.0,,,,300,note_on,,0.0,41.0,0.0,265445,1106.0208333333333
8235,4.0,,,,,,,45.0,,,,0,note_on,,76.0,45.0,76.0,265445,1106.0208333333333
8236,4.0,,,,,,,45.0,,,,60,note_on,,0.0,45.0,0.0,265505,1106.2708333333333
8237,4.0,,,,,,,43.0,,,,0,note_on,,76.0,43.0,76.0,265505,1106.2708333333333
8238,4.0,,,,,,,43.0,,,,300,note_on,,0.0,43.0,0.0,265805,1107.5208333333333
8239,4.0,,,,,,,47.0,,,,0,note_on,,76.0,47.0,76.0,265805,1107.5208333333333
8240,4.0,,,,,,,47.0,,,,60,note_on,,0.0,47.0,0.0,265865,1107.7708333333333
8241,4.0,,,,,,,40.0,,,,0,note_on,,76.0,40.0,76.0,265865,1107.7708333333333
8242,4.0,,,,,,,40.0,,,,300,note_on,,0.0,40.0,0.0,266165,1109.0208333333333
8243,4.0,,,,,,,47.0,,,,0,note_on,,76.0,47.0,76.0,266165,1109.0208333333333
8244,4.0,,,,,,,47.0,,,,60,note_on,,0.0,47.0,0.0,266225,1109.2708333333333
8245,4.0,,,,,,,45.0,,,,0,note_on,,76.0,45.0,76.0,266225,1109.2708333333333
8246,4.0,,,,,,,45.0,,,,300,note_on,,0.0,45.0,0.0,266525,1110.5208333333333
8247,4.0,,,,,,,45.0,,,,0,note_on,,76.0,45.0,76.0,266525,1110.5208333333333
8248,4.0,,,,,,,45.0,,,,60,note_on,,0.0,45.0,0.0,266585,1110.7708333333333
8249,4.0,,,,,,,45.0,,,,0,note_on,,65.0,45.0,65.0,266585,1110.7708333333333
8250,4.0,,,,,,,45.0,,,,180,note_on,,0.0,45.0,0.0,266765,1111.5208333333333
8251,4.0,,,,,,,41.0,,,,180,note_on,,76.0,41.0,76.0,266945,1112.2708333333333
8252,4.0,,,,,,,41.0,,,,300,note_on,,0.0,41.0,0.0,267245,1113.5208333333333
8253,4.0,,,,,,,45.0,,,,0,note_on,,76.0,45.0,76.0,267245,1113.5208333333333
8254,4.0,,,,,,,45.0,,,,60,note_on,,0.0,45.0,0.0,267305,1113.7708333333333
8255,4.0,,,,,,,41.0,,,,0,note_on,,76.0,41.0,76.0,267305,1113.7708333333333
8256,4.0,,,,,,,41.0,,,,300,note_on,,0.0,41.0,0.0,267605,1115.0208333333333
8257,4.0,,,,,,,45.0,,,,0,note_on,,76.0,45.0,76.0,267605,1115.0208333333333
8258,4.0,,,,,,,45.0,,,,60,note_on,,0.0,45.0,0.0,267665,1115.2708333333333
8259,4.0,,,,,,,45.0,,,,0,note_on,,76.0,45.0,76.0,267665,1115.2708333333333
8260,4.0,,,,,,,45.0,,,,300,note_on,,0.0,45.0,0.0,267965,1116.5208333333333
8261,4.0,,,,,,,47.0,,,,0,note_on,,76.0,47.0,76.0,267965,1116.5208333333333
8262,4.0,,,,,,,47.0,,,,60,note_on,,0.0,47.0,0.0,268025,1116.7708333333333
8263,4.0,,,,,,,45.0,,,,0,note_on,,76.0,45.0,76.0,268025,1116.7708333333333
8264,4.0,,,,,,,45.0,,,,300,note_on,,0.0,45.0,0.0,268325,1118.0208333333333
8265,4.0,,,,,,,47.0,,,,0,note_on,,76.0,47.0,76.0,268325,1118.0208333333333
8266,4.0,,,,,,,47.0,,,,60,note_on,,0.0,47.0,0.0,268385,1118.2708333333333
8267,4.0,,,,,,,41.0,,,,0,note_on,,76.0,41.0,76.0,268385,1118.2708333333333
8268,4.0,,,,,,,41.0,,,,300,note_on,,0.0,41.0,0.0,268685,1119.5208333333333
8269,4.0,,,,,,,45.0,,,,0,note_on,,76.0,45.0,76.0,268685,1119.5208333333333
8270,4.0,,,,,,,45.0,,,,60,note_on,,0.0,45.0,0.0,268745,1119.7708333333333
8271,4.0,,,,,,,41.0,,,,0,note_on,,76.0,41.0,76.0,268745,1119.7708333333333
8272,4.0,,,,,,,41.0,,,,300,note_on,,0.0,41.0,0.0,269045,1121.0208333333333
8273,4.0,,,,,,,45.0,,,,0,note_on,,76.0,45.0,76.0,269045,1121.0208333333333
8274,4.0,,,,,,,45.0,,,,60,note_on,,0.0,45.0,0.0,269105,1121.2708333333333
8275,4.0,,,,,,,48.0,,,,0,note_on,,76.0,48.0,76.0,269105,1121.2708333333333
8276,4.0,,,,,,,48.0,,,,300,note_on,,0.0,48.0,0.0,269405,1122.5208333333333
8277,4.0,,,,,,,47.0,,,,0,note_on,,76.0,47.0,76.0,269405,1122.5208333333333
8278,4.0,,,,,,,47.0,,,,60,note_on,,0.0,47.0,0.0,269465,1122.7708333333333
8279,4.0,,,,,,,43.0,,,,0,note_on,,76.0,43.0,76.0,269465,1122.7708333333333
8280,4.0,,,,,,,43.0,,,,300,note_on,,0.0,43.0,0.0,269765,1124.0208333333333
8281,4.0,,,,,,,47.0,,,,0,note_on,,76.0,47.0,76.0,269765,1124.0208333333333
8282,4.0,,,,,,,47.0,,,,60,note_on,,0.0,47.0,0.0,269825,1124.2708333333333
8283,4.0,,,,,,,48.0,,,,0,note_on,,76.0,48.0,76.0,269825,1124.2708333333333
8284,4.0,,,,,,,48.0,,,,300,note_on,,0.0,48.0,0.0,270125,1125.5208333333333
8285,4.0,,,,,,,47.0,,,,0,note_on,,76.0,47.0,76.0,270125,1125.5208333333333
8286,4.0,,,,,,,47.0,,,,60,note_on,,0.0,47.0,0.0,270185,1125.7708333333333
8287,4.0,,,,,,,43.0,,,,0,note_on,,76.0,43.0,76.0,270185,1125.7708333333333
8288,4.0,,,,,,,43.0,,,,300,note_on,,0.0,43.0,0.0,270485,1127.0208333333333
8289,4.0,,,,,,,47.0,,,,0,note_on,,76.0,47.0,76.0,270485,1127.0208333333333
8290,4.0,,,,,,,47.0,,,,60,note_on,,0.0,47.0,0.0,270545,1127.2708333333333
8291,4.0,,,,,,,45.0,,,,0,note_on,,76.0,45.0,76.0,270545,1127.2708333333333
8292,4.0,,,,,,,45.0,,,,300,note_on,,0.0,45.0,0.0,270845,1128.5208333333333
8293,4.0,,,,,,,47.0,,,,0,note_on,,76.0,47.0,76.0,270845,1128.5208333333333
8294,4.0,,,,,,,47.0,,,,60,note_on,,0.0,47.0,0.0,270905,1128.7708333333333
8295,4.0,,,,,,,48.0,,,,0,note_on,,76.0,48.0,76.0,270905,1128.7708333333333
8296,4.0,,,,,,,48.0,,,,300,note_on,,0.0,48.0,0.0,271205,1130.0208333333333
8297,4.0,,,,,,,47.0,,,,0,note_on,,76.0,47.0,76.0,271205,1130.0208333333333
8298,4.0,,,,,,,47.0,,,,60,note_on,,0.0,47.0,0.0,271265,1130.2708333333333
8299,4.0,,,,,,,45.0,,,,0,note_on,,76.0,45.0,76.0,271265,1130.2708333333333
8300,4.0,,,,,,,45.0,,,,300,note_on,,0.0,45.0,0.0,271565,1131.5208333333333
8301,4.0,,,,,,,47.0,,,,0,note_on,,76.0,47.0,76.0,271565,1131.5208333333333
8302,4.0,,,,,,,47.0,,,,60,note_on,,0.0,47.0,0.0,271625,1131.7708333333333
8303,4.0,,,,,,,48.0,,,,0,note_on,,76.0,48.0,76.0,271625,1131.7708333333333
8304,4.0,,,,,,,48.0,,,,300,note_on,,0.0,48.0,0.0,271925,1133.0208333333333
8305,4.0,,,,,,,47.0,,,,0,note_on,,76.0,47.0,76.0,271925,1133.0208333333333
8306,4.0,,,,,,,47.0,,,,60,note_on,,0.0,47.0,0.0,271985,1133.2708333333333
8307,4.0,,,,,,,45.0,,,,0,note_on,,76.0,45.0,76.0,271985,1133.2708333333333
8308,4.0,,,,,,,45.0,,,,300,note_on,,0.0,45.0,0.0,272285,1134.5208333333333
8309,4.0,,,,,,,47.0,,,,0,note_on,,76.0,47.0,76.0,272285,1134.5208333333333
8310,4.0,,,,,,,47.0,,,,60,note_on,,0.0,47.0,0.0,272345,1134.7708333333333
8311,4.0,,,,,,,41.0,,,,0,note_on,,76.0,41.0,76.0,272345,1134.7708333333333
8312,4.0,,,,,,,41.0,,,,300,note_on,,0.0,41.0,0.0,272645,1136.0208333333333
8313,4.0,,,,,,,45.0,,,,0,note_on,,76.0,45.0,76.0,272645,1136.0208333333333
8314,4.0,,,,,,,45.0,,,,60,note_on,,0.0,45.0,0.0,272705,1136.2708333333333
8315,4.0,,,,,,,43.0,,,,0,note_on,,76.0,43.0,76.0,272705,1136.2708333333333
8316,4.0,,,,,,,43.0,,,,300,note_on,,0.0,43.0,0.0,273005,1137.5208333333333
8317,4.0,,,,,,,47.0,,,,0,note_on,,76.0,47.0,76.0,273005,1137.5208333333333
8318,4.0,,,,,,,47.0,,,,60,note_on,,0.0,47.0,0.0,273065,1137.7708333333333
8319,4.0,,,,,,,48.0,,,,0,note_on,,76.0,48.0,76.0,273065,1137.7708333333333
8320,4.0,,,,,,,48.0,,,,300,note_on,,0.0,48.0,0.0,273365,1139.0208333333333
8321,4.0,,,,,,,47.0,,,,0,note_on,,76.0,47.0,76.0,273365,1139.0208333333333
8322,4.0,,,,,,,47.0,,,,60,note_on,,0.0,47.0,0.0,273425,1139.2708333333333
8323,4.0,,,,,,,43.0,,,,0,note_on,,76.0,43.0,76.0,273425,1139.2708333333333
8324,4.0,,,,,,,43.0,,,,300,note_on,,0.0,43.0,0.0,273725,1140.5208333333333
8325,4.0,,,,,,,47.0,,,,0,note_on,,76.0,47.0,76.0,273725,1140.5208333333333
8326,4.0,,,,,,,47.0,,,,60,note_on,,0.0,47.0,0.0,273785,1140.7708333333333
8327,4.0,,,,,,,48.0,,,,0,note_on,,76.0,48.0,76.0,273785,1140.7708333333333
8328,4.0,,,,,,,48.0,,,,300,note_on,,0.0,48.0,0.0,274085,1142.0208333333333
8329,4.0,,,,,,,47.0,,,,0,note_on,,76.0,47.0,76.0,274085,1142.0208333333333
8330,4.0,,,,,,,47.0,,,,60,note_on,,0.0,47.0,0.0,274145,1142.2708333333333
8331,4.0,,,,,,,41.0,,,,0,note_on,,76.0,41.0,76.0,274145,1142.2708333333333
8332,4.0,,,,,,,41.0,,,,180,note_on,,0.0,41.0,0.0,274325,1143.0208333333333
8333,4.0,,,,,,,43.0,,,,0,note_on,,76.0,43.0,76.0,274325,1143.0208333333333
8334,4.0,,,,,,,43.0,,,,180,note_on,,0.0,43.0,0.0,274505,1143.7708333333333
8335,4.0,,,,,,,45.0,,,,0,note_on,,76.0,45.0,76.0,274505,1143.7708333333333
8336,4.0,,,,,,,45.0,,,,300,note_on,,0.0,45.0,0.0,274805,1145.0208333333333
8337,4.0,,,,,,,47.0,,,,0,note_on,,76.0,47.0,76.0,274805,1145.0208333333333
8338,4.0,,,,,,,47.0,,,,60,note_on,,0.0,47.0,0.0,274865,1145.2708333333333
8339,4.0,,,,,,,41.0,,,,0,note_on,,76.0,41.0,76.0,274865,1145.2708333333333
8340,4.0,,,,,,,41.0,,,,300,note_on,,0.0,41.0,0.0,275165,1146.5208333333333
8341,4.0,,,,,,,45.0,,,,0,note_on,,76.0,45.0,76.0,275165,1146.5208333333333
8342,4.0,,,,,,,45.0,,,,60,note_on,,0.0,45.0,0.0,275225,1146.7708333333333
8343,4.0,,,,,,,43.0,,,,0,note_on,,76.0,43.0,76.0,275225,1146.7708333333333
8344,4.0,,,,,,,43.0,,,,300,note_on,,0.0,43.0,0.0,275525,1148.0208333333333
8345,4.0,,,,,,,47.0,,,,0,note_on,,76.0,47.0,76.0,275525,1148.0208333333333
8346,4.0,,,,,,,47.0,,,,60,note_on,,0.0,47.0,0.0,275585,1148.2708333333333
8347,4.0,,,,,,,40.0,,,,0,note_on,,76.0,40.0,76.0,275585,1148.2708333333333
8348,4.0,,,,,,,40.0,,,,300,note_on,,0.0,40.0,0.0,275885,1149.5208333333333
8349,4.0,,,,,,,47.0,,,,0,note_on,,76.0,47.0,76.0,275885,1149.5208333333333
8350,4.0,,,,,,,47.0,,,,60,note_on,,0.0,47.0,0.0,275945,1149.7708333333333
8351,4.0,,,,,,,45.0,,,,0,note_on,,76.0,45.0,76.0,275945,1149.7708333333333
8352,4.0,,,,,,,45.0,,,,300,note_on,,0.0,45.0,0.0,276245,1151.0208333333333
8353,4.0,,,,,,,45.0,,,,0,note_on,,76.0,45.0,76.0,276245,1151.0208333333333
8354,4.0,,,,,,,45.0,,,,60,note_on,,0.0,45.0,0.0,276305,1151.2708333333333
8355,4.0,,,,,,,45.0,,,,0,note_on,,65.0,45.0,65.0,276305,1151.2708333333333
8356,4.0,,,,,,,45.0,,,,180,note_on,,0.0,45.0,0.0,276485,1152.0208333333333
8357,4.0,,,,,,,41.0,,,,180,note_on,,76.0,41.0,76.0,276665,1152.7708333333333
8358,4.0,,,,,,,41.0,,,,300,note_on,,0.0,41.0,0.0,276965,1154.0208333333333
8359,4.0,,,,,,,45.0,,,,0,note_on,,76.0,45.0,76.0,276965,1154.0208333333333
8360,4.0,,,,,,,45.0,,,,60,note_on,,0.0,45.0,0.0,277025,1154.2708333333333
8361,4.0,,,,,,,41.0,,,,0,note_on,,76.0,41.0,76.0,277025,1154.2708333333333
8362,4.0,,,,,,,41.0,,,,300,note_on,,0.0,41.0,0.0,277325,1155.5208333333333
8363,4.0,,,,,,,45.0,,,,0,note_on,,76.0,45.0,76.0,277325,1155.5208333333333
8364,4.0,,,,,,,45.0,,,,60,note_on,,0.0,45.0,0.0,277385,1155.7708333333333
8365,4.0,,,,,,,45.0,,,,0,note_on,,76.0,45.0,76.0,277385,1155.7708333333333
8366,4.0,,,,,,,45.0,,,,300,note_on,,0.0,45.0,0.0,277685,1157.0208333333333
8367,4.0,,,,,,,47.0,,,,0,note_on,,76.0,47.0,76.0,277685,1157.0208333333333
8368,4.0,,,,,,,47.0,,,,60,note_on,,0.0,47.0,0.0,277745,1157.2708333333333
8369,4.0,,,,,,,45.0,,,,0,note_on,,76.0,45.0,76.0,277745,1157.2708333333333
8370,4.0,,,,,,,45.0,,,,300,note_on,,0.0,45.0,0.0,278045,1158.5208333333333
8371,4.0,,,,,,,47.0,,,,0,note_on,,76.0,47.0,76.0,278045,1158.5208333333333
8372,4.0,,,,,,,47.0,,,,60,note_on,,0.0,47.0,0.0,278105,1158.7708333333333
8373,4.0,,,,,,,41.0,,,,0,note_on,,76.0,41.0,76.0,278105,1158.7708333333333
8374,4.0,,,,,,,41.0,,,,300,note_on,,0.0,41.0,0.0,278405,1160.0208333333333
8375,4.0,,,,,,,45.0,,,,0,note_on,,76.0,45.0,76.0,278405,1160.0208333333333
8376,4.0,,,,,,,45.0,,,,60,note_on,,0.0,45.0,0.0,278465,1160.2708333333333
8377,4.0,,,,,,,41.0,,,,0,note_on,,76.0,41.0,76.0,278465,1160.2708333333333
8378,4.0,,,,,,,41.0,,,,300,note_on,,0.0,41.0,0.0,278765,1161.5208333333333
8379,4.0,,,,,,,45.0,,,,0,note_on,,76.0,45.0,76.0,278765,1161.5208333333333
8380,4.0,,,,,,,45.0,,,,60,note_on,,0.0,45.0,0.0,278825,1161.7708333333333
8381,4.0,,,,,,,48.0,,,,0,note_on,,76.0,48.0,76.0,278825,1161.7708333333333
8382,4.0,,,,,,,48.0,,,,300,note_on,,0.0,48.0,0.0,279125,1163.0208333333333
8383,4.0,,,,,,,47.0,,,,0,note_on,,76.0,47.0,76.0,279125,1163.0208333333333
8384,4.0,,,,,,,47.0,,,,60,note_on,,0.0,47.0,0.0,279185,1163.2708333333333
8385,4.0,,,,,,,43.0,,,,0,note_on,,76.0,43.0,76.0,279185,1163.2708333333333
8386,4.0,,,,,,,43.0,,,,300,note_on,,0.0,43.0,0.0,279485,1164.5208333333333
8387,4.0,,,,,,,47.0,,,,0,note_on,,76.0,47.0,76.0,279485,1164.5208333333333
8388,4.0,,,,,,,47.0,,,,60,note_on,,0.0,47.0,0.0,279545,1164.7708333333333
8389,4.0,,,,,,,48.0,,,,0,note_on,,76.0,48.0,76.0,279545,1164.7708333333333
8390,4.0,,,,,,,48.0,,,,300,note_on,,0.0,48.0,0.0,279845,1166.0208333333333
8391,4.0,,,,,,,47.0,,,,0,note_on,,76.0,47.0,76.0,279845,1166.0208333333333
8392,4.0,,,,,,,47.0,,,,60,note_on,,0.0,47.0,0.0,279905,1166.2708333333333
8393,4.0,,,,,,,43.0,,,,0,note_on,,76.0,43.0,76.0,279905,1166.2708333333333
8394,4.0,,,,,,,43.0,,,,300,note_on,,0.0,43.0,0.0,280205,1167.5208333333333
8395,4.0,,,,,,,47.0,,,,0,note_on,,76.0,47.0,76.0,280205,1167.5208333333333
8396,4.0,,,,,,,47.0,,,,60,note_on,,0.0,47.0,0.0,280265,1167.7708333333333
8397,4.0,,,,,,,45.0,,,,0,note_on,,76.0,45.0,76.0,280265,1167.7708333333333
8398,4.0,,,,,,,45.0,,,,300,note_on,,0.0,45.0,0.0,280565,1169.0208333333333
8399,4.0,,,,,,,47.0,,,,0,note_on,,76.0,47.0,76.0,280565,1169.0208333333333
8400,4.0,,,,,,,47.0,,,,60,note_on,,0.0,47.0,0.0,280625,1169.2708333333333
8401,4.0,,,,,,,48.0,,,,0,note_on,,76.0,48.0,76.0,280625,1169.2708333333333
8402,4.0,,,,,,,48.0,,,,300,note_on,,0.0,48.0,0.0,280925,1170.5208333333333
8403,4.0,,,,,,,47.0,,,,0,note_on,,76.0,47.0,76.0,280925,1170.5208333333333
8404,4.0,,,,,,,47.0,,,,60,note_on,,0.0,47.0,0.0,280985,1170.7708333333333
8405,4.0,,,,,,,45.0,,,,0,note_on,,76.0,45.0,76.0,280985,1170.7708333333333
8406,4.0,,,,,,,45.0,,,,300,note_on,,0.0,45.0,0.0,281285,1172.0208333333333
8407,4.0,,,,,,,47.0,,,,0,note_on,,76.0,47.0,76.0,281285,1172.0208333333333
8408,4.0,,,,,,,47.0,,,,60,note_on,,0.0,47.0,0.0,281345,1172.2708333333333
8409,4.0,,,,,,,48.0,,,,0,note_on,,76.0,48.0,76.0,281345,1172.2708333333333
8410,4.0,,,,,,,48.0,,,,300,note_on,,0.0,48.0,0.0,281645,1173.5208333333333
8411,4.0,,,,,,,47.0,,,,0,note_on,,76.0,47.0,76.0,281645,1173.5208333333333
8412,4.0,,,,,,,47.0,,,,60,note_on,,0.0,47.0,0.0,281705,1173.7708333333333
8413,4.0,,,,,,,45.0,,,,0,note_on,,76.0,45.0,76.0,281705,1173.7708333333333
8414,4.0,,,,,,,45.0,,,,300,note_on,,0.0,45.0,0.0,282005,1175.0208333333333
8415,4.0,,,,,,,47.0,,,,0,note_on,,76.0,47.0,76.0,282005,1175.0208333333333
8416,4.0,,,,,,,47.0,,,,60,note_on,,0.0,47.0,0.0,282065,1175.2708333333333
8417,4.0,,,,,,,41.0,,,,0,note_on,,76.0,41.0,76.0,282065,1175.2708333333333
8418,4.0,,,,,,,41.0,,,,300,note_on,,0.0,41.0,0.0,282365,1176.5208333333333
8419,4.0,,,,,,,45.0,,,,0,note_on,,76.0,45.0,76.0,282365,1176.5208333333333
8420,4.0,,,,,,,45.0,,,,60,note_on,,0.0,45.0,0.0,282425,1176.7708333333333
8421,4.0,,,,,,,43.0,,,,0,note_on,,76.0,43.0,76.0,282425,1176.7708333333333
8422,4.0,,,,,,,43.0,,,,300,note_on,,0.0,43.0,0.0,282725,1178.0208333333333
8423,4.0,,,,,,,47.0,,,,0,note_on,,76.0,47.0,76.0,282725,1178.0208333333333
8424,4.0,,,,,,,47.0,,,,60,note_on,,0.0,47.0,0.0,282785,1178.2708333333333
8425,4.0,,,,,,,48.0,,,,0,note_on,,76.0,48.0,76.0,282785,1178.2708333333333
8426,4.0,,,,,,,48.0,,,,300,note_on,,0.0,48.0,0.0,283085,1179.5208333333333
8427,4.0,,,,,,,47.0,,,,0,note_on,,76.0,47.0,76.0,283085,1179.5208333333333
8428,4.0,,,,,,,47.0,,,,60,note_on,,0.0,47.0,0.0,283145,1179.7708333333333
8429,4.0,,,,,,,43.0,,,,0,note_on,,76.0,43.0,76.0,283145,1179.7708333333333
8430,4.0,,,,,,,43.0,,,,300,note_on,,0.0,43.0,0.0,283445,1181.0208333333333
8431,4.0,,,,,,,47.0,,,,0,note_on,,76.0,47.0,76.0,283445,1181.0208333333333
8432,4.0,,,,,,,47.0,,,,60,note_on,,0.0,47.0,0.0,283505,1181.2708333333333
8433,4.0,,,,,,,48.0,,,,0,note_on,,76.0,48.0,76.0,283505,1181.2708333333333
8434,4.0,,,,,,,48.0,,,,300,note_on,,0.0,48.0,0.0,283805,1182.5208333333333
8435,4.0,,,,,,,47.0,,,,0,note_on,,76.0,47.0,76.0,283805,1182.5208333333333
8436,4.0,,,,,,,47.0,,,,60,note_on,,0.0,47.0,0.0,283865,1182.7708333333333
8437,4.0,,,,,,,41.0,,,,0,note_on,,76.0,41.0,76.0,283865,1182.7708333333333
8438,4.0,,,,,,,41.0,,,,180,note_on,,0.0,41.0,0.0,284045,1183.5208333333333
8439,4.0,,,,,,,43.0,,,,0,note_on,,76.0,43.0,76.0,284045,1183.5208333333333
8440,4.0,,,,,,,43.0,,,,180,note_on,,0.0,43.0,0.0,284225,1184.2708333333333
8441,4.0,,,,,,,45.0,,,,0,note_on,,76.0,45.0,76.0,284225,1184.2708333333333
8442,4.0,,,,,,,45.0,,,,300,note_on,,0.0,45.0,0.0,284525,1185.5208333333333
8443,4.0,,,,,,,47.0,,,,0,note_on,,76.0,47.0,76.0,284525,1185.5208333333333
8444,4.0,,,,,,,47.0,,,,60,note_on,,0.0,47.0,0.0,284585,1185.7708333333333
8445,4.0,,,,,,,41.0,,,,0,note_on,,76.0,41.0,76.0,284585,1185.7708333333333
8446,4.0,,,,,,,41.0,,,,300,note_on,,0.0,41.0,0.0,284885,1187.0208333333333
8447,4.0,,,,,,,45.0,,,,0,note_on,,76.0,45.0,76.0,284885,1187.0208333333333
8448,4.0,,,,,,,45.0,,,,60,note_on,,0.0,45.0,0.0,284945,1187.2708333333333
8449,4.0,,,,,,,43.0,,,,0,note_on,,76.0,43.0,76.0,284945,1187.2708333333333
8450,4.0,,,,,,,43.0,,,,300,note_on,,0.0,43.0,0.0,285245,1188.5208333333333
8451,4.0,,,,,,,47.0,,,,0,note_on,,76.0,47.0,76.0,285245,1188.5208333333333
8452,4.0,,,,,,,47.0,,,,60,note_on,,0.0,47.0,0.0,285305,1188.7708333333333
8453,4.0,,,,,,,40.0,,,,0,note_on,,76.0,40.0,76.0,285305,1188.7708333333333
8454,4.0,,,,,,,40.0,,,,300,note_on,,0.0,40.0,0.0,285605,1190.0208333333333
8455,4.0,,,,,,,47.0,,,,0,note_on,,76.0,47.0,76.0,285605,1190.0208333333333
8456,4.0,,,,,,,47.0,,,,60,note_on,,0.0,47.0,0.0,285665,1190.2708333333333
8457,4.0,,,,,,,45.0,,,,0,note_on,,76.0,45.0,76.0,285665,1190.2708333333333
8458,4.0,,,,,,,45.0,,,,300,note_on,,0.0,45.0,0.0,285965,1191.5208333333333
8459,4.0,,,,,,,45.0,,,,0,note_on,,76.0,45.0,76.0,285965,1191.5208333333333
8460,4.0,,,,,,,45.0,,,,60,note_on,,0.0,45.0,0.0,286025,1191.7708333333333
8461,4.0,,,,,,,45.0,,,,0,note_on,,65.0,45.0,65.0,286025,1191.7708333333333
8462,4.0,,,,,,,45.0,,,,180,note_on,,0.0,45.0,0.0,286205,1192.5208333333333
8463,4.0,,,,,,,41.0,,,,180,note_on,,76.0,41.0,76.0,286385,1193.2708333333333
8464,4.0,,,,,,,41.0,,,,300,note_on,,0.0,41.0,0.0,286685,1194.5208333333333
8465,4.0,,,,,,,45.0,,,,0,note_on,,76.0,45.0,76.0,286685,1194.5208333333333
8466,4.0,,,,,,,45.0,,,,60,note_on,,0.0,45.0,0.0,286745,1194.7708333333333
8467,4.0,,,,,,,41.0,,,,0,note_on,,76.0,41.0,76.0,286745,1194.7708333333333
8468,4.0,,,,,,,41.0,,,,300,note_on,,0.0,41.0,0.0,287045,1196.0208333333333
8469,4.0,,,,,,,45.0,,,,0,note_on,,76.0,45.0,76.0,287045,1196.0208333333333
8470,4.0,,,,,,,45.0,,,,60,note_on,,0.0,45.0,0.0,287105,1196.2708333333333
8471,4.0,,,,,,,45.0,,,,0,note_on,,76.0,45.0,76.0,287105,1196.2708333333333
8472,4.0,,,,,,,45.0,,,,300,note_on,,0.0,45.0,0.0,287405,1197.5208333333333
8473,4.0,,,,,,,47.0,,,,0,note_on,,76.0,47.0,76.0,287405,1197.5208333333333
8474,4.0,,,,,,,47.0,,,,60,note_on,,0.0,47.0,0.0,287465,1197.7708333333333
8475,4.0,,,,,,,45.0,,,,0,note_on,,76.0,45.0,76.0,287465,1197.7708333333333
8476,4.0,,,,,,,45.0,,,,300,note_on,,0.0,45.0,0.0,287765,1199.0208333333333
8477,4.0,,,,,,,47.0,,,,0,note_on,,76.0,47.0,76.0,287765,1199.0208333333333
8478,4.0,,,,,,,47.0,,,,60,note_on,,0.0,47.0,0.0,287825,1199.2708333333333
8479,4.0,,,,,,,41.0,,,,0,note_on,,76.0,41.0,76.0,287825,1199.2708333333333
8480,4.0,,,,,,,41.0,,,,300,note_on,,0.0,41.0,0.0,288125,1200.5208333333333
8481,4.0,,,,,,,45.0,,,,0,note_on,,76.0,45.0,76.0,288125,1200.5208333333333
8482,4.0,,,,,,,45.0,,,,60,note_on,,0.0,45.0,0.0,288185,1200.7708333333333
8483,4.0,,,,,,,41.0,,,,0,note_on,,76.0,41.0,76.0,288185,1200.7708333333333
8484,4.0,,,,,,,41.0,,,,300,note_on,,0.0,41.0,0.0,288485,1202.0208333333333
8485,4.0,,,,,,,45.0,,,,0,note_on,,76.0,45.0,76.0,288485,1202.0208333333333
8486,4.0,,,,,,,45.0,,,,60,note_on,,0.0,45.0,0.0,288545,1202.2708333333333
8487,4.0,,,,,,,48.0,,,,0,note_on,,76.0,48.0,76.0,288545,1202.2708333333333
8488,4.0,,,,,,,48.0,,,,300,note_on,,0.0,48.0,0.0,288845,1203.5208333333333
8489,4.0,,,,,,,47.0,,,,0,note_on,,76.0,47.0,76.0,288845,1203.5208333333333
8490,4.0,,,,,,,47.0,,,,60,note_on,,0.0,47.0,0.0,288905,1203.7708333333333
8491,4.0,,,,,,,43.0,,,,0,note_on,,76.0,43.0,76.0,288905,1203.7708333333333
8492,4.0,,,,,,,43.0,,,,300,note_on,,0.0,43.0,0.0,289205,1205.0208333333333
8493,4.0,,,,,,,47.0,,,,0,note_on,,76.0,47.0,76.0,289205,1205.0208333333333
8494,4.0,,,,,,,47.0,,,,60,note_on,,0.0,47.0,0.0,289265,1205.2708333333333
8495,4.0,,,,,,,48.0,,,,0,note_on,,76.0,48.0,76.0,289265,1205.2708333333333
8496,4.0,,,,,,,48.0,,,,300,note_on,,0.0,48.0,0.0,289565,1206.5208333333333
8497,4.0,,,,,,,47.0,,,,0,note_on,,76.0,47.0,76.0,289565,1206.5208333333333
8498,4.0,,,,,,,47.0,,,,60,note_on,,0.0,47.0,0.0,289625,1206.7708333333333
8499,4.0,,,,,,,43.0,,,,0,note_on,,76.0,43.0,76.0,289625,1206.7708333333333
8500,4.0,,,,,,,43.0,,,,300,note_on,,0.0,43.0,0.0,289925,1208.0208333333333
8501,4.0,,,,,,,47.0,,,,0,note_on,,76.0,47.0,76.0,289925,1208.0208333333333
8502,4.0,,,,,,,47.0,,,,60,note_on,,0.0,47.0,0.0,289985,1208.2708333333333
8503,4.0,,,,,,,45.0,,,,0,note_on,,76.0,45.0,76.0,289985,1208.2708333333333
8504,4.0,,,,,,,45.0,,,,300,note_on,,0.0,45.0,0.0,290285,1209.5208333333333
8505,4.0,,,,,,,47.0,,,,0,note_on,,76.0,47.0,76.0,290285,1209.5208333333333
8506,4.0,,,,,,,47.0,,,,60,note_on,,0.0,47.0,0.0,290345,1209.7708333333333
8507,4.0,,,,,,,48.0,,,,0,note_on,,76.0,48.0,76.0,290345,1209.7708333333333
8508,4.0,,,,,,,48.0,,,,300,note_on,,0.0,48.0,0.0,290645,1211.0208333333333
8509,4.0,,,,,,,47.0,,,,0,note_on,,76.0,47.0,76.0,290645,1211.0208333333333
8510,4.0,,,,,,,47.0,,,,60,note_on,,0.0,47.0,0.0,290705,1211.2708333333333
8511,4.0,,,,,,,45.0,,,,0,note_on,,76.0,45.0,76.0,290705,1211.2708333333333
8512,4.0,,,,,,,45.0,,,,300,note_on,,0.0,45.0,0.0,291005,1212.5208333333333
8513,4.0,,,,,,,47.0,,,,0,note_on,,76.0,47.0,76.0,291005,1212.5208333333333
8514,4.0,,,,,,,47.0,,,,60,note_on,,0.0,47.0,0.0,291065,1212.7708333333333
8515,4.0,,,,,,,48.0,,,,0,note_on,,76.0,48.0,76.0,291065,1212.7708333333333
8516,4.0,,,,,,,48.0,,,,300,note_on,,0.0,48.0,0.0,291365,1214.0208333333333
8517,4.0,,,,,,,47.0,,,,0,note_on,,76.0,47.0,76.0,291365,1214.0208333333333
8518,4.0,,,,,,,47.0,,,,60,note_on,,0.0,47.0,0.0,291425,1214.2708333333333
8519,4.0,,,,,,,45.0,,,,0,note_on,,76.0,45.0,76.0,291425,1214.2708333333333
8520,4.0,,,,,,,45.0,,,,300,note_on,,0.0,45.0,0.0,291725,1215.5208333333333
8521,4.0,,,,,,,47.0,,,,0,note_on,,76.0,47.0,76.0,291725,1215.5208333333333
8522,4.0,,,,,,,47.0,,,,60,note_on,,0.0,47.0,0.0,291785,1215.7708333333333
8523,4.0,,,,,,,41.0,,,,0,note_on,,76.0,41.0,76.0,291785,1215.7708333333333
8524,4.0,,,,,,,41.0,,,,300,note_on,,0.0,41.0,0.0,292085,1217.0208333333333
8525,4.0,,,,,,,45.0,,,,0,note_on,,76.0,45.0,76.0,292085,1217.0208333333333
8526,4.0,,,,,,,45.0,,,,60,note_on,,0.0,45.0,0.0,292145,1217.2708333333333
8527,4.0,,,,,,,43.0,,,,0,note_on,,76.0,43.0,76.0,292145,1217.2708333333333
8528,4.0,,,,,,,43.0,,,,300,note_on,,0.0,43.0,0.0,292445,1218.5208333333333
8529,4.0,,,,,,,47.0,,,,0,note_on,,76.0,47.0,76.0,292445,1218.5208333333333
8530,4.0,,,,,,,47.0,,,,60,note_on,,0.0,47.0,0.0,292505,1218.7708333333333
8531,4.0,,,,,,,48.0,,,,0,note_on,,76.0,48.0,76.0,292505,1218.7708333333333
8532,4.0,,,,,,,48.0,,,,300,note_on,,0.0,48.0,0.0,292805,1220.0208333333333
8533,4.0,,,,,,,47.0,,,,0,note_on,,76.0,47.0,76.0,292805,1220.0208333333333
8534,4.0,,,,,,,47.0,,,,60,note_on,,0.0,47.0,0.0,292865,1220.2708333333333
8535,4.0,,,,,,,43.0,,,,0,note_on,,76.0,43.0,76.0,292865,1220.2708333333333
8536,4.0,,,,,,,43.0,,,,300,note_on,,0.0,43.0,0.0,293165,1221.5208333333333
8537,4.0,,,,,,,47.0,,,,0,note_on,,76.0,47.0,76.0,293165,1221.5208333333333
8538,4.0,,,,,,,47.0,,,,60,note_on,,0.0,47.0,0.0,293225,1221.7708333333333
8539,4.0,,,,,,,48.0,,,,0,note_on,,76.0,48.0,76.0,293225,1221.7708333333333
8540,4.0,,,,,,,48.0,,,,300,note_on,,0.0,48.0,0.0,293525,1223.0208333333333
8541,4.0,,,,,,,47.0,,,,0,note_on,,76.0,47.0,76.0,293525,1223.0208333333333
8542,4.0,,,,,,,47.0,,,,60,note_on,,0.0,47.0,0.0,293585,1223.2708333333333
8543,4.0,,,,,,,41.0,,,,0,note_on,,76.0,41.0,76.0,293585,1223.2708333333333
8544,4.0,,,,,,,41.0,,,,180,note_on,,0.0,41.0,0.0,293765,1224.0208333333333
8545,4.0,,,,,,,43.0,,,,0,note_on,,76.0,43.0,76.0,293765,1224.0208333333333
8546,4.0,,,,,,,43.0,,,,180,note_on,,0.0,43.0,0.0,293945,1224.7708333333333
8547,4.0,,,,,,,45.0,,,,0,note_on,,76.0,45.0,76.0,293945,1224.7708333333333
8548,4.0,,,,,,,45.0,,,,300,note_on,,0.0,45.0,0.0,294245,1226.0208333333333
8549,4.0,,,,,,,47.0,,,,0,note_on,,76.0,47.0,76.0,294245,1226.0208333333333
8550,4.0,,,,,,,47.0,,,,60,note_on,,0.0,47.0,0.0,294305,1226.2708333333333
8551,4.0,,,,,,,41.0,,,,0,note_on,,76.0,41.0,76.0,294305,1226.2708333333333
8552,4.0,,,,,,,41.0,,,,300,note_on,,0.0,41.0,0.0,294605,1227.5208333333333
8553,4.0,,,,,,,45.0,,,,0,note_on,,76.0,45.0,76.0,294605,1227.5208333333333
8554,4.0,,,,,,,45.0,,,,60,note_on,,0.0,45.0,0.0,294665,1227.7708333333333
8555,4.0,,,,,,,43.0,,,,0,note_on,,76.0,43.0,76.0,294665,1227.7708333333333
8556,4.0,,,,,,,43.0,,,,300,note_on,,0.0,43.0,0.0,294965,1229.0208333333333
8557,4.0,,,,,,,47.0,,,,0,note_on,,76.0,47.0,76.0,294965,1229.0208333333333
8558,4.0,,,,,,,47.0,,,,60,note_on,,0.0,47.0,0.0,295025,1229.2708333333333
8559,4.0,,,,,,,40.0,,,,0,note_on,,76.0,40.0,76.0,295025,1229.2708333333333
8560,4.0,,,,,,,40.0,,,,300,note_on,,0.0,40.0,0.0,295325,1230.5208333333333
8561,4.0,,,,,,,47.0,,,,0,note_on,,76.0,47.0,76.0,295325,1230.5208333333333
8562,4.0,,,,,,,47.0,,,,60,note_on,,0.0,47.0,0.0,295385,1230.7708333333333
8563,4.0,,,,,,,45.0,,,,0,note_on,,76.0,45.0,76.0,295385,1230.7708333333333
8564,4.0,,,,,,,45.0,,,,300,note_on,,0.0,45.0,0.0,295685,1232.0208333333333
8565,4.0,,,,,,,45.0,,,,0,note_on,,76.0,45.0,76.0,295685,1232.0208333333333
8566,4.0,,,,,,,45.0,,,,60,note_on,,0.0,45.0,0.0,295745,1232.2708333333333
8567,4.0,,,,,,,45.0,,,,0,note_on,,65.0,45.0,65.0,295745,1232.2708333333333
8568,4.0,,,,,,,45.0,,,,180,note_on,,0.0,45.0,0.0,295925,1233.0208333333333
8569,4.0,,,,,,,41.0,,,,180,note_on,,76.0,41.0,76.0,296105,1233.7708333333333
8570,4.0,,,,,,,41.0,,,,300,note_on,,0.0,41.0,0.0,296405,1235.0208333333333
8571,4.0,,,,,,,45.0,,,,0,note_on,,76.0,45.0,76.0,296405,1235.0208333333333
8572,4.0,,,,,,,45.0,,,,60,note_on,,0.0,45.0,0.0,296465,1235.2708333333333
8573,4.0,,,,,,,41.0,,,,0,note_on,,76.0,41.0,76.0,296465,1235.2708333333333
8574,4.0,,,,,,,41.0,,,,300,note_on,,0.0,41.0,0.0,296765,1236.5208333333333
8575,4.0,,,,,,,45.0,,,,0,note_on,,76.0,45.0,76.0,296765,1236.5208333333333
8576,4.0,,,,,,,45.0,,,,60,note_on,,0.0,45.0,0.0,296825,1236.7708333333333
8577,4.0,,,,,,,45.0,,,,0,note_on,,76.0,45.0,76.0,296825,1236.7708333333333
8578,4.0,,,,,,,45.0,,,,300,note_on,,0.0,45.0,0.0,297125,1238.0208333333333
8579,4.0,,,,,,,47.0,,,,0,note_on,,76.0,47.0,76.0,297125,1238.0208333333333
8580,4.0,,,,,,,47.0,,,,60,note_on,,0.0,47.0,0.0,297185,1238.2708333333333
8581,4.0,,,,,,,45.0,,,,0,note_on,,76.0,45.0,76.0,297185,1238.2708333333333
8582,4.0,,,,,,,45.0,,,,300,note_on,,0.0,45.0,0.0,297485,1239.5208333333333
8583,4.0,,,,,,,47.0,,,,0,note_on,,76.0,47.0,76.0,297485,1239.5208333333333
8584,4.0,,,,,,,47.0,,,,60,note_on,,0.0,47.0,0.0,297545,1239.7708333333333
8585,4.0,,,,,,,41.0,,,,0,note_on,,76.0,41.0,76.0,297545,1239.7708333333333
8586,4.0,,,,,,,41.0,,,,300,note_on,,0.0,41.0,0.0,297845,1241.0208333333333
8587,4.0,,,,,,,45.0,,,,0,note_on,,76.0,45.0,76.0,297845,1241.0208333333333
8588,4.0,,,,,,,45.0,,,,60,note_on,,0.0,45.0,0.0,297905,1241.2708333333333
8589,4.0,,,,,,,41.0,,,,0,note_on,,76.0,41.0,76.0,297905,1241.2708333333333
8590,4.0,,,,,,,41.0,,,,300,note_on,,0.0,41.0,0.0,298205,1242.5208333333333
8591,4.0,,,,,,,45.0,,,,0,note_on,,76.0,45.0,76.0,298205,1242.5208333333333
8592,4.0,,,,,,,45.0,,,,60,note_on,,0.0,45.0,0.0,298265,1242.7708333333333
8593,4.0,,,,,,,48.0,,,,0,note_on,,76.0,48.0,76.0,298265,1242.7708333333333
8594,4.0,,,,,,,48.0,,,,300,note_on,,0.0,48.0,0.0,298565,1244.0208333333333
8595,4.0,,,,,,,47.0,,,,0,note_on,,76.0,47.0,76.0,298565,1244.0208333333333
8596,4.0,,,,,,,47.0,,,,60,note_on,,0.0,47.0,0.0,298625,1244.2708333333333
8597,4.0,,,,,,,43.0,,,,0,note_on,,76.0,43.0,76.0,298625,1244.2708333333333
8598,4.0,,,,,,,43.0,,,,300,note_on,,0.0,43.0,0.0,298925,1245.5208333333333
8599,4.0,,,,,,,47.0,,,,0,note_on,,76.0,47.0,76.0,298925,1245.5208333333333
8600,4.0,,,,,,,47.0,,,,60,note_on,,0.0,47.0,0.0,298985,1245.7708333333333
8601,4.0,,,,,,,48.0,,,,0,note_on,,76.0,48.0,76.0,298985,1245.7708333333333
8602,4.0,,,,,,,48.0,,,,300,note_on,,0.0,48.0,0.0,299285,1247.0208333333333
8603,,,,,,,,,,,,0,end_of_track,,,,,299285,1247.0208333333333
8604,5.0,,,,,,,,,26.0,,0,program_change,,,,,299285,1247.0208333333333
8605,5.0,,7.0,,,,,,,,,0,control_change,60.0,,,,299285,1247.0208333333333
8606,5.0,,,,,,,65.0,,,,7203,note_on,,100.0,65.0,100.0,306488,1277.0333333333333
8607,5.0,,,,,,,77.0,,,,0,note_on,,77.0,77.0,77.0,306488,1277.0333333333333
8608,5.0,,,,,,,77.0,,,,60,note_on,,0.0,77.0,0.0,306548,1277.2833333333333
8609,5.0,,,,,,,72.0,,,,0,note_on,,77.0,72.0,77.0,306548,1277.2833333333333
8610,5.0,,,,,,,72.0,,,,60,note_on,,0.0,72.0,0.0,306608,1277.5333333333333
8611,5.0,,,,,,,76.0,,,,0,note_on,,77.0,76.0,77.0,306608,1277.5333333333333
8612,5.0,,,,,,,76.0,,,,60,note_on,,0.0,76.0,0.0,306668,1277.7833333333333
8613,5.0,,,,,,,81.0,,,,0,note_on,,77.0,81.0,77.0,306668,1277.7833333333333
8614,5.0,,,,,,,81.0,,,,60,note_on,,0.0,81.0,0.0,306728,1278.0333333333333
8615,5.0,,,,,,,77.0,,,,0,note_on,,77.0,77.0,77.0,306728,1278.0333333333333
8616,5.0,,,,,,,77.0,,,,60,note_on,,0.0,77.0,0.0,306788,1278.2833333333333
8617,5.0,,,,,,,72.0,,,,0,note_on,,77.0,72.0,77.0,306788,1278.2833333333333
8618,5.0,,,,,,,72.0,,,,60,note_on,,0.0,72.0,0.0,306848,1278.5333333333333
8619,5.0,,,,,,,65.0,,,,0,note_on,,0.0,65.0,0.0,306848,1278.5333333333333
8620,5.0,,,,,,,65.0,,,,0,note_on,,100.0,65.0,100.0,306848,1278.5333333333333
8621,5.0,,,,,,,77.0,,,,0,note_on,,77.0,77.0,77.0,306848,1278.5333333333333
8622,5.0,,,,,,,77.0,,,,60,note_on,,0.0,77.0,0.0,306908,1278.7833333333333
8623,5.0,,,,,,,69.0,,,,0,note_on,,77.0,69.0,77.0,306908,1278.7833333333333
8624,5.0,,,,,,,69.0,,,,60,note_on,,0.0,69.0,0.0,306968,1279.0333333333333
8625,5.0,,,,,,,72.0,,,,0,note_on,,77.0,72.0,77.0,306968,1279.0333333333333
8626,5.0,,,,,,,72.0,,,,60,note_on,,0.0,72.0,0.0,307028,1279.2833333333333
8627,5.0,,,,,,,81.0,,,,0,note_on,,77.0,81.0,77.0,307028,1279.2833333333333
8628,5.0,,,,,,,81.0,,,,60,note_on,,0.0,81.0,0.0,307088,1279.5333333333333
8629,5.0,,,,,,,77.0,,,,0,note_on,,77.0,77.0,77.0,307088,1279.5333333333333
8630,5.0,,,,,,,77.0,,,,60,note_on,,0.0,77.0,0.0,307148,1279.7833333333333
8631,5.0,,,,,,,72.0,,,,0,note_on,,77.0,72.0,77.0,307148,1279.7833333333333
8632,5.0,,,,,,,72.0,,,,60,note_on,,0.0,72.0,0.0,307208,1280.0333333333333
8633,5.0,,,,,,,65.0,,,,0,note_on,,0.0,65.0,0.0,307208,1280.0333333333333
8634,5.0,,,,,,,57.0,,,,0,note_on,,100.0,57.0,100.0,307208,1280.0333333333333
8635,5.0,,,,,,,76.0,,,,0,note_on,,77.0,76.0,77.0,307208,1280.0333333333333
8636,5.0,,,,,,,76.0,,,,60,note_on,,0.0,76.0,0.0,307268,1280.2833333333333
8637,5.0,,,,,,,69.0,,,,0,note_on,,77.0,69.0,77.0,307268,1280.2833333333333
8638,5.0,,,,,,,69.0,,,,60,note_on,,0.0,69.0,0.0,307328,1280.5333333333333
8639,5.0,,,,,,,72.0,,,,0,note_on,,77.0,72.0,77.0,307328,1280.5333333333333
8640,5.0,,,,,,,72.0,,,,60,note_on,,0.0,72.0,0.0,307388,1280.7833333333333
8641,5.0,,,,,,,81.0,,,,0,note_on,,77.0,81.0,77.0,307388,1280.7833333333333
8642,5.0,,,,,,,81.0,,,,60,note_on,,0.0,81.0,0.0,307448,1281.0333333333333
8643,5.0,,,,,,,76.0,,,,0,note_on,,77.0,76.0,77.0,307448,1281.0333333333333
8644,5.0,,,,,,,76.0,,,,60,note_on,,0.0,76.0,0.0,307508,1281.2833333333333
8645,5.0,,,,,,,72.0,,,,0,note_on,,77.0,72.0,77.0,307508,1281.2833333333333
8646,5.0,,,,,,,72.0,,,,60,note_on,,0.0,72.0,0.0,307568,1281.5333333333333
8647,5.0,,,,,,,57.0,,,,0,note_on,,0.0,57.0,0.0,307568,1281.5333333333333
8648,5.0,,,,,,,57.0,,,,0,note_on,,100.0,57.0,100.0,307568,1281.5333333333333
8649,5.0,,,,,,,76.0,,,,0,note_on,,77.0,76.0,77.0,307568,1281.5333333333333
8650,5.0,,,,,,,76.0,,,,60,note_on,,0.0,76.0,0.0,307628,1281.7833333333333
8651,5.0,,,,,,,69.0,,,,0,note_on,,77.0,69.0,77.0,307628,1281.7833333333333
8652,5.0,,,,,,,69.0,,,,60,note_on,,0.0,69.0,0.0,307688,1282.0333333333333
8653,5.0,,,,,,,72.0,,,,0,note_on,,77.0,72.0,77.0,307688,1282.0333333333333
8654,5.0,,,,,,,72.0,,,,60,note_on,,0.0,72.0,0.0,307748,1282.2833333333333
8655,5.0,,,,,,,81.0,,,,0,note_on,,77.0,81.0,77.0,307748,1282.2833333333333
8656,5.0,,,,,,,81.0,,,,60,note_on,,0.0,81.0,0.0,307808,1282.5333333333333
8657,5.0,,,,,,,76.0,,,,0,note_on,,77.0,76.0,77.0,307808,1282.5333333333333
8658,5.0,,,,,,,76.0,,,,60,note_on,,0.0,76.0,0.0,307868,1282.7833333333333
8659,5.0,,,,,,,72.0,,,,0,note_on,,77.0,72.0,77.0,307868,1282.7833333333333
8660,5.0,,,,,,,72.0,,,,60,note_on,,0.0,72.0,0.0,307928,1283.0333333333333
8661,5.0,,,,,,,57.0,,,,0,note_on,,0.0,57.0,0.0,307928,1283.0333333333333
8662,5.0,,,,,,,65.0,,,,0,note_on,,100.0,65.0,100.0,307928,1283.0333333333333
8663,5.0,,,,,,,77.0,,,,0,note_on,,77.0,77.0,77.0,307928,1283.0333333333333
8664,5.0,,,,,,,77.0,,,,60,note_on,,0.0,77.0,0.0,307988,1283.2833333333333
8665,5.0,,,,,,,69.0,,,,0,note_on,,77.0,69.0,77.0,307988,1283.2833333333333
8666,5.0,,,,,,,69.0,,,,60,note_on,,0.0,69.0,0.0,308048,1283.5333333333333
8667,5.0,,,,,,,72.0,,,,0,note_on,,77.0,72.0,77.0,308048,1283.5333333333333
8668,5.0,,,,,,,72.0,,,,60,note_on,,0.0,72.0,0.0,308108,1283.7833333333333
8669,5.0,,,,,,,81.0,,,,0,note_on,,77.0,81.0,77.0,308108,1283.7833333333333
8670,5.0,,,,,,,81.0,,,,60,note_on,,0.0,81.0,0.0,308168,1284.0333333333333
8671,5.0,,,,,,,77.0,,,,0,note_on,,77.0,77.0,77.0,308168,1284.0333333333333
8672,5.0,,,,,,,77.0,,,,60,note_on,,0.0,77.0,0.0,308228,1284.2833333333333
8673,5.0,,,,,,,72.0,,,,0,note_on,,77.0,72.0,77.0,308228,1284.2833333333333
8674,5.0,,,,,,,72.0,,,,60,note_on,,0.0,72.0,0.0,308288,1284.5333333333333
8675,5.0,,,,,,,65.0,,,,0,note_on,,0.0,65.0,0.0,308288,1284.5333333333333
8676,5.0,,,,,,,65.0,,,,0,note_on,,100.0,65.0,100.0,308288,1284.5333333333333
8677,5.0,,,,,,,77.0,,,,0,note_on,,77.0,77.0,77.0,308288,1284.5333333333333
8678,5.0,,,,,,,77.0,,,,60,note_on,,0.0,77.0,0.0,308348,1284.7833333333333
8679,5.0,,,,,,,69.0,,,,0,note_on,,77.0,69.0,77.0,308348,1284.7833333333333
8680,5.0,,,,,,,69.0,,,,60,note_on,,0.0,69.0,0.0,308408,1285.0333333333333
8681,5.0,,,,,,,72.0,,,,0,note_on,,77.0,72.0,77.0,308408,1285.0333333333333
8682,5.0,,,,,,,72.0,,,,60,note_on,,0.0,72.0,0.0,308468,1285.2833333333333
8683,5.0,,,,,,,81.0,,,,0,note_on,,77.0,81.0,77.0,308468,1285.2833333333333
8684,5.0,,,,,,,81.0,,,,60,note_on,,0.0,81.0,0.0,308528,1285.5333333333333
8685,5.0,,,,,,,77.0,,,,0,note_on,,77.0,77.0,77.0,308528,1285.5333333333333
8686,5.0,,,,,,,77.0,,,,60,note_on,,0.0,77.0,0.0,308588,1285.7833333333333
8687,5.0,,,,,,,72.0,,,,0,note_on,,77.0,72.0,77.0,308588,1285.7833333333333
8688,5.0,,,,,,,72.0,,,,60,note_on,,0.0,72.0,0.0,308648,1286.0333333333333
8689,5.0,,,,,,,65.0,,,,0,note_on,,0.0,65.0,0.0,308648,1286.0333333333333
8690,5.0,,,,,,,60.0,,,,0,note_on,,100.0,60.0,100.0,308648,1286.0333333333333
8691,5.0,,,,,,,76.0,,,,0,note_on,,77.0,76.0,77.0,308648,1286.0333333333333
8692,5.0,,,,,,,76.0,,,,60,note_on,,0.0,76.0,0.0,308708,1286.2833333333333
8693,5.0,,,,,,,67.0,,,,0,note_on,,77.0,67.0,77.0,308708,1286.2833333333333
8694,5.0,,,,,,,67.0,,,,60,note_on,,0.0,67.0,0.0,308768,1286.5333333333333
8695,5.0,,,,,,,72.0,,,,0,note_on,,77.0,72.0,77.0,308768,1286.5333333333333
8696,5.0,,,,,,,72.0,,,,60,note_on,,0.0,72.0,0.0,308828,1286.7833333333333
8697,5.0,,,,,,,79.0,,,,0,note_on,,77.0,79.0,77.0,308828,1286.7833333333333
8698,5.0,,,,,,,79.0,,,,60,note_on,,0.0,79.0,0.0,308888,1287.0333333333333
8699,5.0,,,,,,,76.0,,,,0,note_on,,77.0,76.0,77.0,308888,1287.0333333333333
8700,5.0,,,,,,,76.0,,,,60,note_on,,0.0,76.0,0.0,308948,1287.2833333333333
8701,5.0,,,,,,,72.0,,,,0,note_on,,77.0,72.0,77.0,308948,1287.2833333333333
8702,5.0,,,,,,,72.0,,,,60,note_on,,0.0,72.0,0.0,309008,1287.5333333333333
8703,5.0,,,,,,,60.0,,,,0,note_on,,0.0,60.0,0.0,309008,1287.5333333333333
8704,5.0,,,,,,,67.0,,,,0,note_on,,100.0,67.0,100.0,309008,1287.5333333333333
8705,5.0,,,,,,,79.0,,,,0,note_on,,77.0,79.0,77.0,309008,1287.5333333333333
8706,5.0,,,,,,,79.0,,,,60,note_on,,0.0,79.0,0.0,309068,1287.7833333333333
8707,5.0,,,,,,,71.0,,,,0,note_on,,77.0,71.0,77.0,309068,1287.7833333333333
8708,5.0,,,,,,,71.0,,,,60,note_on,,0.0,71.0,0.0,309128,1288.0333333333333
8709,5.0,,,,,,,74.0,,,,0,note_on,,77.0,74.0,77.0,309128,1288.0333333333333
8710,5.0,,,,,,,74.0,,,,60,note_on,,0.0,74.0,0.0,309188,1288.2833333333333
8711,5.0,,,,,,,83.0,,,,0,note_on,,77.0,83.0,77.0,309188,1288.2833333333333
8712,5.0,,,,,,,83.0,,,,60,note_on,,0.0,83.0,0.0,309248,1288.5333333333333
8713,5.0,,,,,,,79.0,,,,0,note_on,,77.0,79.0,77.0,309248,1288.5333333333333
8714,5.0,,,,,,,79.0,,,,60,note_on,,0.0,79.0,0.0,309308,1288.7833333333333
8715,5.0,,,,,,,74.0,,,,0,note_on,,77.0,74.0,77.0,309308,1288.7833333333333
8716,5.0,,,,,,,74.0,,,,60,note_on,,0.0,74.0,0.0,309368,1289.0333333333333
8717,5.0,,,,,,,67.0,,,,0,note_on,,0.0,67.0,0.0,309368,1289.0333333333333
8718,5.0,,,,,,,60.0,,,,0,note_on,,100.0,60.0,100.0,309368,1289.0333333333333
8719,5.0,,,,,,,76.0,,,,0,note_on,,77.0,76.0,77.0,309368,1289.0333333333333
8720,5.0,,,,,,,76.0,,,,60,note_on,,0.0,76.0,0.0,309428,1289.2833333333333
8721,5.0,,,,,,,67.0,,,,0,note_on,,77.0,67.0,77.0,309428,1289.2833333333333
8722,5.0,,,,,,,67.0,,,,60,note_on,,0.0,67.0,0.0,309488,1289.5333333333333
8723,5.0,,,,,,,72.0,,,,0,note_on,,77.0,72.0,77.0,309488,1289.5333333333333
8724,5.0,,,,,,,72.0,,,,60,note_on,,0.0,72.0,0.0,309548,1289.7833333333333
8725,5.0,,,,,,,79.0,,,,0,note_on,,77.0,79.0,77.0,309548,1289.7833333333333
8726,5.0,,,,,,,79.0,,,,60,note_on,,0.0,79.0,0.0,309608,1290.0333333333333
8727,5.0,,,,,,,76.0,,,,0,note_on,,77.0,76.0,77.0,309608,1290.0333333333333
8728,5.0,,,,,,,76.0,,,,60,note_on,,0.0,76.0,0.0,309668,1290.2833333333333
8729,5.0,,,,,,,72.0,,,,0,note_on,,77.0,72.0,77.0,309668,1290.2833333333333
8730,5.0,,,,,,,72.0,,,,60,note_on,,0.0,72.0,0.0,309728,1290.5333333333333
8731,5.0,,,,,,,60.0,,,,0,note_on,,0.0,60.0,0.0,309728,1290.5333333333333
8732,5.0,,,,,,,64.0,,,,0,note_on,,100.0,64.0,100.0,309728,1290.5333333333333
8733,5.0,,,,,,,79.0,,,,0,note_on,,77.0,79.0,77.0,309728,1290.5333333333333
8734,5.0,,,,,,,79.0,,,,60,note_on,,0.0,79.0,0.0,309788,1290.7833333333333
8735,5.0,,,,,,,71.0,,,,0,note_on,,77.0,71.0,77.0,309788,1290.7833333333333
8736,5.0,,,,,,,71.0,,,,60,note_on,,0.0,71.0,0.0,309848,1291.0333333333333
8737,5.0,,,,,,,74.0,,,,0,note_on,,77.0,74.0,77.0,309848,1291.0333333333333
8738,5.0,,,,,,,74.0,,,,60,note_on,,0.0,74.0,0.0,309908,1291.2833333333333
8739,5.0,,,,,,,83.0,,,,0,note_on,,77.0,83.0,77.0,309908,1291.2833333333333
8740,5.0,,,,,,,83.0,,,,60,note_on,,0.0,83.0,0.0,309968,1291.5333333333333
8741,5.0,,,,,,,79.0,,,,0,note_on,,77.0,79.0,77.0,309968,1291.5333333333333
8742,5.0,,,,,,,79.0,,,,60,note_on,,0.0,79.0,0.0,310028,1291.7833333333333
8743,5.0,,,,,,,74.0,,,,0,note_on,,77.0,74.0,77.0,310028,1291.7833333333333
8744,5.0,,,,,,,74.0,,,,60,note_on,,0.0,74.0,0.0,310088,1292.0333333333333
8745,5.0,,,,,,,64.0,,,,0,note_on,,0.0,64.0,0.0,310088,1292.0333333333333
8746,5.0,,,,,,,57.0,,,,0,note_on,,100.0,57.0,100.0,310088,1292.0333333333333
8747,5.0,,,,,,,76.0,,,,0,note_on,,77.0,76.0,77.0,310088,1292.0333333333333
8748,5.0,,,,,,,76.0,,,,60,note_on,,0.0,76.0,0.0,310148,1292.2833333333333
8749,5.0,,,,,,,69.0,,,,0,note_on,,77.0,69.0,77.0,310148,1292.2833333333333
8750,5.0,,,,,,,69.0,,,,60,note_on,,0.0,69.0,0.0,310208,1292.5333333333333
8751,5.0,,,,,,,72.0,,,,0,note_on,,77.0,72.0,77.0,310208,1292.5333333333333
8752,5.0,,,,,,,72.0,,,,60,note_on,,0.0,72.0,0.0,310268,1292.7833333333333
8753,5.0,,,,,,,69.0,,,,0,note_on,,77.0,69.0,77.0,310268,1292.7833333333333
8754,5.0,,,,,,,69.0,,,,180,note_on,,0.0,69.0,0.0,310448,1293.5333333333333
8755,5.0,,,,,,,57.0,,,,0,note_on,,0.0,57.0,0.0,310448,1293.5333333333333
8756,5.0,,,,,,,65.0,,,,5760,note_on,,100.0,65.0,100.0,316208,1317.5333333333333
8757,5.0,,,,,,,77.0,,,,0,note_on,,77.0,77.0,77.0,316208,1317.5333333333333
8758,5.0,,,,,,,77.0,,,,60,note_on,,0.0,77.0,0.0,316268,1317.7833333333333
8759,5.0,,,,,,,72.0,,,,0,note_on,,77.0,72.0,77.0,316268,1317.7833333333333
8760,5.0,,,,,,,72.0,,,,60,note_on,,0.0,72.0,0.0,316328,1318.0333333333333
8761,5.0,,,,,,,76.0,,,,0,note_on,,77.0,76.0,77.0,316328,1318.0333333333333
8762,5.0,,,,,,,76.0,,,,60,note_on,,0.0,76.0,0.0,316388,1318.2833333333333
8763,5.0,,,,,,,81.0,,,,0,note_on,,77.0,81.0,77.0,316388,1318.2833333333333
8764,5.0,,,,,,,81.0,,,,60,note_on,,0.0,81.0,0.0,316448,1318.5333333333333
8765,5.0,,,,,,,77.0,,,,0,note_on,,77.0,77.0,77.0,316448,1318.5333333333333
8766,5.0,,,,,,,77.0,,,,60,note_on,,0.0,77.0,0.0,316508,1318.7833333333333
8767,5.0,,,,,,,72.0,,,,0,note_on,,77.0,72.0,77.0,316508,1318.7833333333333
8768,5.0,,,,,,,72.0,,,,60,note_on,,0.0,72.0,0.0,316568,1319.0333333333333
8769,5.0,,,,,,,65.0,,,,0,note_on,,0.0,65.0,0.0,316568,1319.0333333333333
8770,5.0,,,,,,,65.0,,,,0,note_on,,100.0,65.0,100.0,316568,1319.0333333333333
8771,5.0,,,,,,,77.0,,,,0,note_on,,77.0,77.0,77.0,316568,1319.0333333333333
8772,5.0,,,,,,,77.0,,,,60,note_on,,0.0,77.0,0.0,316628,1319.2833333333333
8773,5.0,,,,,,,69.0,,,,0,note_on,,77.0,69.0,77.0,316628,1319.2833333333333
8774,5.0,,,,,,,69.0,,,,60,note_on,,0.0,69.0,0.0,316688,1319.5333333333333
8775,5.0,,,,,,,72.0,,,,0,note_on,,77.0,72.0,77.0,316688,1319.5333333333333
8776,5.0,,,,,,,72.0,,,,60,note_on,,0.0,72.0,0.0,316748,1319.7833333333333
8777,5.0,,,,,,,81.0,,,,0,note_on,,77.0,81.0,77.0,316748,1319.7833333333333
8778,5.0,,,,,,,81.0,,,,60,note_on,,0.0,81.0,0.0,316808,1320.0333333333333
8779,5.0,,,,,,,77.0,,,,0,note_on,,77.0,77.0,77.0,316808,1320.0333333333333
8780,5.0,,,,,,,77.0,,,,60,note_on,,0.0,77.0,0.0,316868,1320.2833333333333
8781,5.0,,,,,,,72.0,,,,0,note_on,,77.0,72.0,77.0,316868,1320.2833333333333
8782,5.0,,,,,,,72.0,,,,60,note_on,,0.0,72.0,0.0,316928,1320.5333333333333
8783,5.0,,,,,,,65.0,,,,0,note_on,,0.0,65.0,0.0,316928,1320.5333333333333
8784,5.0,,,,,,,57.0,,,,0,note_on,,100.0,57.0,100.0,316928,1320.5333333333333
8785,5.0,,,,,,,76.0,,,,0,note_on,,77.0,76.0,77.0,316928,1320.5333333333333
8786,5.0,,,,,,,76.0,,,,60,note_on,,0.0,76.0,0.0,316988,1320.7833333333333
8787,5.0,,,,,,,69.0,,,,0,note_on,,77.0,69.0,77.0,316988,1320.7833333333333
8788,5.0,,,,,,,69.0,,,,60,note_on,,0.0,69.0,0.0,317048,1321.0333333333333
8789,5.0,,,,,,,72.0,,,,0,note_on,,77.0,72.0,77.0,317048,1321.0333333333333
8790,5.0,,,,,,,72.0,,,,60,note_on,,0.0,72.0,0.0,317108,1321.2833333333333
8791,5.0,,,,,,,81.0,,,,0,note_on,,77.0,81.0,77.0,317108,1321.2833333333333
8792,5.0,,,,,,,81.0,,,,60,note_on,,0.0,81.0,0.0,317168,1321.5333333333333
8793,5.0,,,,,,,76.0,,,,0,note_on,,77.0,76.0,77.0,317168,1321.5333333333333
8794,5.0,,,,,,,76.0,,,,60,note_on,,0.0,76.0,0.0,317228,1321.7833333333333
8795,5.0,,,,,,,72.0,,,,0,note_on,,77.0,72.0,77.0,317228,1321.7833333333333
8796,5.0,,,,,,,72.0,,,,60,note_on,,0.0,72.0,0.0,317288,1322.0333333333333
8797,5.0,,,,,,,57.0,,,,0,note_on,,0.0,57.0,0.0,317288,1322.0333333333333
8798,5.0,,,,,,,57.0,,,,0,note_on,,100.0,57.0,100.0,317288,1322.0333333333333
8799,5.0,,,,,,,76.0,,,,0,note_on,,77.0,76.0,77.0,317288,1322.0333333333333
8800,5.0,,,,,,,76.0,,,,60,note_on,,0.0,76.0,0.0,317348,1322.2833333333333
8801,5.0,,,,,,,69.0,,,,0,note_on,,77.0,69.0,77.0,317348,1322.2833333333333
8802,5.0,,,,,,,69.0,,,,60,note_on,,0.0,69.0,0.0,317408,1322.5333333333333
8803,5.0,,,,,,,72.0,,,,0,note_on,,77.0,72.0,77.0,317408,1322.5333333333333
8804,5.0,,,,,,,72.0,,,,60,note_on,,0.0,72.0,0.0,317468,1322.7833333333333
8805,5.0,,,,,,,81.0,,,,0,note_on,,77.0,81.0,77.0,317468,1322.7833333333333
8806,5.0,,,,,,,81.0,,,,60,note_on,,0.0,81.0,0.0,317528,1323.0333333333333
8807,5.0,,,,,,,76.0,,,,0,note_on,,77.0,76.0,77.0,317528,1323.0333333333333
8808,5.0,,,,,,,76.0,,,,60,note_on,,0.0,76.0,0.0,317588,1323.2833333333333
8809,5.0,,,,,,,72.0,,,,0,note_on,,77.0,72.0,77.0,317588,1323.2833333333333
8810,5.0,,,,,,,72.0,,,,60,note_on,,0.0,72.0,0.0,317648,1323.5333333333333
8811,5.0,,,,,,,57.0,,,,0,note_on,,0.0,57.0,0.0,317648,1323.5333333333333
8812,5.0,,,,,,,65.0,,,,0,note_on,,100.0,65.0,100.0,317648,1323.5333333333333
8813,5.0,,,,,,,77.0,,,,0,note_on,,77.0,77.0,77.0,317648,1323.5333333333333
8814,5.0,,,,,,,77.0,,,,60,note_on,,0.0,77.0,0.0,317708,1323.7833333333333
8815,5.0,,,,,,,69.0,,,,0,note_on,,77.0,69.0,77.0,317708,1323.7833333333333
8816,5.0,,,,,,,69.0,,,,60,note_on,,0.0,69.0,0.0,317768,1324.0333333333333
8817,5.0,,,,,,,72.0,,,,0,note_on,,77.0,72.0,77.0,317768,1324.0333333333333
8818,5.0,,,,,,,72.0,,,,60,note_on,,0.0,72.0,0.0,317828,1324.2833333333333
8819,5.0,,,,,,,81.0,,,,0,note_on,,77.0,81.0,77.0,317828,1324.2833333333333
8820,5.0,,,,,,,81.0,,,,60,note_on,,0.0,81.0,0.0,317888,1324.5333333333333
8821,5.0,,,,,,,77.0,,,,0,note_on,,77.0,77.0,77.0,317888,1324.5333333333333
8822,5.0,,,,,,,77.0,,,,60,note_on,,0.0,77.0,0.0,317948,1324.7833333333333
8823,5.0,,,,,,,72.0,,,,0,note_on,,77.0,72.0,77.0,317948,1324.7833333333333
8824,5.0,,,,,,,72.0,,,,60,note_on,,0.0,72.0,0.0,318008,1325.0333333333333
8825,5.0,,,,,,,65.0,,,,0,note_on,,0.0,65.0,0.0,318008,1325.0333333333333
8826,5.0,,,,,,,65.0,,,,0,note_on,,100.0,65.0,100.0,318008,1325.0333333333333
8827,5.0,,,,,,,77.0,,,,0,note_on,,77.0,77.0,77.0,318008,1325.0333333333333
8828,5.0,,,,,,,77.0,,,,60,note_on,,0.0,77.0,0.0,318068,1325.2833333333333
8829,5.0,,,,,,,69.0,,,,0,note_on,,77.0,69.0,77.0,318068,1325.2833333333333
8830,5.0,,,,,,,69.0,,,,60,note_on,,0.0,69.0,0.0,318128,1325.5333333333333
8831,5.0,,,,,,,72.0,,,,0,note_on,,77.0,72.0,77.0,318128,1325.5333333333333
8832,5.0,,,,,,,72.0,,,,60,note_on,,0.0,72.0,0.0,318188,1325.7833333333333
8833,5.0,,,,,,,81.0,,,,0,note_on,,77.0,81.0,77.0,318188,1325.7833333333333
8834,5.0,,,,,,,81.0,,,,60,note_on,,0.0,81.0,0.0,318248,1326.0333333333333
8835,5.0,,,,,,,77.0,,,,0,note_on,,77.0,77.0,77.0,318248,1326.0333333333333
8836,5.0,,,,,,,77.0,,,,60,note_on,,0.0,77.0,0.0,318308,1326.2833333333333
8837,5.0,,,,,,,72.0,,,,0,note_on,,77.0,72.0,77.0,318308,1326.2833333333333
8838,5.0,,,,,,,72.0,,,,60,note_on,,0.0,72.0,0.0,318368,1326.5333333333333
8839,5.0,,,,,,,65.0,,,,0,note_on,,0.0,65.0,0.0,318368,1326.5333333333333
8840,5.0,,,,,,,60.0,,,,0,note_on,,100.0,60.0,100.0,318368,1326.5333333333333
8841,5.0,,,,,,,76.0,,,,0,note_on,,77.0,76.0,77.0,318368,1326.5333333333333
8842,5.0,,,,,,,76.0,,,,60,note_on,,0.0,76.0,0.0,318428,1326.7833333333333
8843,5.0,,,,,,,67.0,,,,0,note_on,,77.0,67.0,77.0,318428,1326.7833333333333
8844,5.0,,,,,,,67.0,,,,60,note_on,,0.0,67.0,0.0,318488,1327.0333333333333
8845,5.0,,,,,,,72.0,,,,0,note_on,,77.0,72.0,77.0,318488,1327.0333333333333
8846,5.0,,,,,,,72.0,,,,60,note_on,,0.0,72.0,0.0,318548,1327.2833333333333
8847,5.0,,,,,,,79.0,,,,0,note_on,,77.0,79.0,77.0,318548,1327.2833333333333
8848,5.0,,,,,,,79.0,,,,60,note_on,,0.0,79.0,0.0,318608,1327.5333333333333
8849,5.0,,,,,,,76.0,,,,0,note_on,,77.0,76.0,77.0,318608,1327.5333333333333
8850,5.0,,,,,,,76.0,,,,60,note_on,,0.0,76.0,0.0,318668,1327.7833333333333
8851,5.0,,,,,,,72.0,,,,0,note_on,,77.0,72.0,77.0,318668,1327.7833333333333
8852,5.0,,,,,,,72.0,,,,60,note_on,,0.0,72.0,0.0,318728,1328.0333333333333
8853,5.0,,,,,,,60.0,,,,0,note_on,,0.0,60.0,0.0,318728,1328.0333333333333
8854,5.0,,,,,,,67.0,,,,0,note_on,,100.0,67.0,100.0,318728,1328.0333333333333
8855,5.0,,,,,,,79.0,,,,0,note_on,,77.0,79.0,77.0,318728,1328.0333333333333
8856,5.0,,,,,,,79.0,,,,60,note_on,,0.0,79.0,0.0,318788,1328.2833333333333
8857,5.0,,,,,,,71.0,,,,0,note_on,,77.0,71.0,77.0,318788,1328.2833333333333
8858,5.0,,,,,,,71.0,,,,60,note_on,,0.0,71.0,0.0,318848,1328.5333333333333
8859,5.0,,,,,,,74.0,,,,0,note_on,,77.0,74.0,77.0,318848,1328.5333333333333
8860,5.0,,,,,,,74.0,,,,60,note_on,,0.0,74.0,0.0,318908,1328.7833333333333
8861,5.0,,,,,,,83.0,,,,0,note_on,,77.0,83.0,77.0,318908,1328.7833333333333
8862,5.0,,,,,,,83.0,,,,60,note_on,,0.0,83.0,0.0,318968,1329.0333333333333
8863,5.0,,,,,,,79.0,,,,0,note_on,,77.0,79.0,77.0,318968,1329.0333333333333
8864,5.0,,,,,,,79.0,,,,60,note_on,,0.0,79.0,0.0,319028,1329.2833333333333
8865,5.0,,,,,,,74.0,,,,0,note_on,,77.0,74.0,77.0,319028,1329.2833333333333
8866,5.0,,,,,,,74.0,,,,60,note_on,,0.0,74.0,0.0,319088,1329.5333333333333
8867,5.0,,,,,,,67.0,,,,0,note_on,,0.0,67.0,0.0,319088,1329.5333333333333
8868,5.0,,,,,,,60.0,,,,0,note_on,,100.0,60.0,100.0,319088,1329.5333333333333
8869,5.0,,,,,,,76.0,,,,0,note_on,,77.0,76.0,77.0,319088,1329.5333333333333
8870,5.0,,,,,,,76.0,,,,60,note_on,,0.0,76.0,0.0,319148,1329.7833333333333
8871,5.0,,,,,,,67.0,,,,0,note_on,,77.0,67.0,77.0,319148,1329.7833333333333
8872,5.0,,,,,,,67.0,,,,60,note_on,,0.0,67.0,0.0,319208,1330.0333333333333
8873,5.0,,,,,,,72.0,,,,0,note_on,,77.0,72.0,77.0,319208,1330.0333333333333
8874,5.0,,,,,,,72.0,,,,60,note_on,,0.0,72.0,0.0,319268,1330.2833333333333
8875,5.0,,,,,,,79.0,,,,0,note_on,,77.0,79.0,77.0,319268,1330.2833333333333
8876,5.0,,,,,,,79.0,,,,60,note_on,,0.0,79.0,0.0,319328,1330.5333333333333
8877,5.0,,,,,,,76.0,,,,0,note_on,,77.0,76.0,77.0,319328,1330.5333333333333
8878,5.0,,,,,,,76.0,,,,60,note_on,,0.0,76.0,0.0,319388,1330.7833333333333
8879,5.0,,,,,,,72.0,,,,0,note_on,,77.0,72.0,77.0,319388,1330.7833333333333
8880,5.0,,,,,,,72.0,,,,60,note_on,,0.0,72.0,0.0,319448,1331.0333333333333
8881,5.0,,,,,,,60.0,,,,0,note_on,,0.0,60.0,0.0,319448,1331.0333333333333
8882,5.0,,,,,,,64.0,,,,0,note_on,,100.0,64.0,100.0,319448,1331.0333333333333
8883,5.0,,,,,,,79.0,,,,0,note_on,,77.0,79.0,77.0,319448,1331.0333333333333
8884,5.0,,,,,,,79.0,,,,60,note_on,,0.0,79.0,0.0,319508,1331.2833333333333
8885,5.0,,,,,,,71.0,,,,0,note_on,,77.0,71.0,77.0,319508,1331.2833333333333
8886,5.0,,,,,,,71.0,,,,60,note_on,,0.0,71.0,0.0,319568,1331.5333333333333
8887,5.0,,,,,,,74.0,,,,0,note_on,,77.0,74.0,77.0,319568,1331.5333333333333
8888,5.0,,,,,,,74.0,,,,60,note_on,,0.0,74.0,0.0,319628,1331.7833333333333
8889,5.0,,,,,,,83.0,,,,0,note_on,,77.0,83.0,77.0,319628,1331.7833333333333
8890,5.0,,,,,,,83.0,,,,60,note_on,,0.0,83.0,0.0,319688,1332.0333333333333
8891,5.0,,,,,,,79.0,,,,0,note_on,,77.0,79.0,77.0,319688,1332.0333333333333
8892,5.0,,,,,,,79.0,,,,60,note_on,,0.0,79.0,0.0,319748,1332.2833333333333
8893,5.0,,,,,,,74.0,,,,0,note_on,,77.0,74.0,77.0,319748,1332.2833333333333
8894,5.0,,,,,,,74.0,,,,60,note_on,,0.0,74.0,0.0,319808,1332.5333333333333
8895,5.0,,,,,,,64.0,,,,0,note_on,,0.0,64.0,0.0,319808,1332.5333333333333
8896,5.0,,,,,,,57.0,,,,0,note_on,,100.0,57.0,100.0,319808,1332.5333333333333
8897,5.0,,,,,,,76.0,,,,0,note_on,,77.0,76.0,77.0,319808,1332.5333333333333
8898,5.0,,,,,,,76.0,,,,60,note_on,,0.0,76.0,0.0,319868,1332.7833333333333
8899,5.0,,,,,,,69.0,,,,0,note_on,,77.0,69.0,77.0,319868,1332.7833333333333
8900,5.0,,,,,,,69.0,,,,60,note_on,,0.0,69.0,0.0,319928,1333.0333333333333
8901,5.0,,,,,,,72.0,,,,0,note_on,,77.0,72.0,77.0,319928,1333.0333333333333
8902,5.0,,,,,,,72.0,,,,60,note_on,,0.0,72.0,0.0,319988,1333.2833333333333
8903,5.0,,,,,,,69.0,,,,0,note_on,,77.0,69.0,77.0,319988,1333.2833333333333
8904,5.0,,,,,,,69.0,,,,180,note_on,,0.0,69.0,0.0,320168,1334.0333333333333
8905,5.0,,,,,,,57.0,,,,0,note_on,,0.0,57.0,0.0,320168,1334.0333333333333
8906,5.0,,,,,,,65.0,,,,5760,note_on,,100.0,65.0,100.0,325928,1358.0333333333333
8907,5.0,,,,,,,77.0,,,,0,note_on,,77.0,77.0,77.0,325928,1358.0333333333333
8908,5.0,,,,,,,77.0,,,,60,note_on,,0.0,77.0,0.0,325988,1358.2833333333333
8909,5.0,,,,,,,72.0,,,,0,note_on,,77.0,72.0,77.0,325988,1358.2833333333333
8910,5.0,,,,,,,72.0,,,,60,note_on,,0.0,72.0,0.0,326048,1358.5333333333333
8911,5.0,,,,,,,76.0,,,,0,note_on,,77.0,76.0,77.0,326048,1358.5333333333333
8912,5.0,,,,,,,76.0,,,,60,note_on,,0.0,76.0,0.0,326108,1358.7833333333333
8913,5.0,,,,,,,81.0,,,,0,note_on,,77.0,81.0,77.0,326108,1358.7833333333333
8914,5.0,,,,,,,81.0,,,,60,note_on,,0.0,81.0,0.0,326168,1359.0333333333333
8915,5.0,,,,,,,77.0,,,,0,note_on,,77.0,77.0,77.0,326168,1359.0333333333333
8916,5.0,,,,,,,77.0,,,,60,note_on,,0.0,77.0,0.0,326228,1359.2833333333333
8917,5.0,,,,,,,72.0,,,,0,note_on,,77.0,72.0,77.0,326228,1359.2833333333333
8918,5.0,,,,,,,72.0,,,,60,note_on,,0.0,72.0,0.0,326288,1359.5333333333333
8919,5.0,,,,,,,65.0,,,,0,note_on,,0.0,65.0,0.0,326288,1359.5333333333333
8920,5.0,,,,,,,65.0,,,,0,note_on,,100.0,65.0,100.0,326288,1359.5333333333333
8921,5.0,,,,,,,77.0,,,,0,note_on,,77.0,77.0,77.0,326288,1359.5333333333333
8922,5.0,,,,,,,77.0,,,,60,note_on,,0.0,77.0,0.0,326348,1359.7833333333333
8923,5.0,,,,,,,69.0,,,,0,note_on,,77.0,69.0,77.0,326348,1359.7833333333333
8924,5.0,,,,,,,69.0,,,,60,note_on,,0.0,69.0,0.0,326408,1360.0333333333333
8925,5.0,,,,,,,72.0,,,,0,note_on,,77.0,72.0,77.0,326408,1360.0333333333333
8926,5.0,,,,,,,72.0,,,,60,note_on,,0.0,72.0,0.0,326468,1360.2833333333333
8927,5.0,,,,,,,81.0,,,,0,note_on,,77.0,81.0,77.0,326468,1360.2833333333333
8928,5.0,,,,,,,81.0,,,,60,note_on,,0.0,81.0,0.0,326528,1360.5333333333333
8929,5.0,,,,,,,77.0,,,,0,note_on,,77.0,77.0,77.0,326528,1360.5333333333333
8930,5.0,,,,,,,77.0,,,,60,note_on,,0.0,77.0,0.0,326588,1360.7833333333333
8931,5.0,,,,,,,72.0,,,,0,note_on,,77.0,72.0,77.0,326588,1360.7833333333333
8932,5.0,,,,,,,72.0,,,,60,note_on,,0.0,72.0,0.0,326648,1361.0333333333333
8933,5.0,,,,,,,65.0,,,,0,note_on,,0.0,65.0,0.0,326648,1361.0333333333333
8934,5.0,,,,,,,57.0,,,,0,note_on,,100.0,57.0,100.0,326648,1361.0333333333333
8935,5.0,,,,,,,76.0,,,,0,note_on,,77.0,76.0,77.0,326648,1361.0333333333333
8936,5.0,,,,,,,76.0,,,,60,note_on,,0.0,76.0,0.0,326708,1361.2833333333333
8937,5.0,,,,,,,69.0,,,,0,note_on,,77.0,69.0,77.0,326708,1361.2833333333333
8938,5.0,,,,,,,69.0,,,,60,note_on,,0.0,69.0,0.0,326768,1361.5333333333333
8939,5.0,,,,,,,72.0,,,,0,note_on,,77.0,72.0,77.0,326768,1361.5333333333333
8940,5.0,,,,,,,72.0,,,,60,note_on,,0.0,72.0,0.0,326828,1361.7833333333333
8941,5.0,,,,,,,81.0,,,,0,note_on,,77.0,81.0,77.0,326828,1361.7833333333333
8942,5.0,,,,,,,81.0,,,,60,note_on,,0.0,81.0,0.0,326888,1362.0333333333333
8943,5.0,,,,,,,76.0,,,,0,note_on,,77.0,76.0,77.0,326888,1362.0333333333333
8944,5.0,,,,,,,76.0,,,,60,note_on,,0.0,76.0,0.0,326948,1362.2833333333333
8945,5.0,,,,,,,72.0,,,,0,note_on,,77.0,72.0,77.0,326948,1362.2833333333333
8946,5.0,,,,,,,72.0,,,,60,note_on,,0.0,72.0,0.0,327008,1362.5333333333333
8947,5.0,,,,,,,57.0,,,,0,note_on,,0.0,57.0,0.0,327008,1362.5333333333333
8948,5.0,,,,,,,57.0,,,,0,note_on,,100.0,57.0,100.0,327008,1362.5333333333333
8949,5.0,,,,,,,76.0,,,,0,note_on,,77.0,76.0,77.0,327008,1362.5333333333333
8950,5.0,,,,,,,76.0,,,,60,note_on,,0.0,76.0,0.0,327068,1362.7833333333333
8951,5.0,,,,,,,69.0,,,,0,note_on,,77.0,69.0,77.0,327068,1362.7833333333333
8952,5.0,,,,,,,69.0,,,,60,note_on,,0.0,69.0,0.0,327128,1363.0333333333333
8953,5.0,,,,,,,72.0,,,,0,note_on,,77.0,72.0,77.0,327128,1363.0333333333333
8954,5.0,,,,,,,72.0,,,,60,note_on,,0.0,72.0,0.0,327188,1363.2833333333333
8955,5.0,,,,,,,81.0,,,,0,note_on,,77.0,81.0,77.0,327188,1363.2833333333333
8956,5.0,,,,,,,81.0,,,,60,note_on,,0.0,81.0,0.0,327248,1363.5333333333333
8957,5.0,,,,,,,76.0,,,,0,note_on,,77.0,76.0,77.0,327248,1363.5333333333333
8958,5.0,,,,,,,76.0,,,,60,note_on,,0.0,76.0,0.0,327308,1363.7833333333333
8959,5.0,,,,,,,72.0,,,,0,note_on,,77.0,72.0,77.0,327308,1363.7833333333333
8960,5.0,,,,,,,72.0,,,,60,note_on,,0.0,72.0,0.0,327368,1364.0333333333333
8961,5.0,,,,,,,57.0,,,,0,note_on,,0.0,57.0,0.0,327368,1364.0333333333333
8962,5.0,,,,,,,65.0,,,,0,note_on,,100.0,65.0,100.0,327368,1364.0333333333333
8963,5.0,,,,,,,77.0,,,,0,note_on,,77.0,77.0,77.0,327368,1364.0333333333333
8964,5.0,,,,,,,77.0,,,,60,note_on,,0.0,77.0,0.0,327428,1364.2833333333333
8965,5.0,,,,,,,69.0,,,,0,note_on,,77.0,69.0,77.0,327428,1364.2833333333333
8966,5.0,,,,,,,69.0,,,,60,note_on,,0.0,69.0,0.0,327488,1364.5333333333333
8967,5.0,,,,,,,72.0,,,,0,note_on,,77.0,72.0,77.0,327488,1364.5333333333333
8968,5.0,,,,,,,72.0,,,,60,note_on,,0.0,72.0,0.0,327548,1364.7833333333333
8969,5.0,,,,,,,81.0,,,,0,note_on,,77.0,81.0,77.0,327548,1364.7833333333333
8970,5.0,,,,,,,81.0,,,,60,note_on,,0.0,81.0,0.0,327608,1365.0333333333333
8971,5.0,,,,,,,77.0,,,,0,note_on,,77.0,77.0,77.0,327608,1365.0333333333333
8972,5.0,,,,,,,77.0,,,,60,note_on,,0.0,77.0,0.0,327668,1365.2833333333333
8973,5.0,,,,,,,72.0,,,,0,note_on,,77.0,72.0,77.0,327668,1365.2833333333333
8974,5.0,,,,,,,72.0,,,,60,note_on,,0.0,72.0,0.0,327728,1365.5333333333333
8975,5.0,,,,,,,65.0,,,,0,note_on,,0.0,65.0,0.0,327728,1365.5333333333333
8976,5.0,,,,,,,65.0,,,,0,note_on,,100.0,65.0,100.0,327728,1365.5333333333333
8977,5.0,,,,,,,77.0,,,,0,note_on,,77.0,77.0,77.0,327728,1365.5333333333333
8978,5.0,,,,,,,77.0,,,,60,note_on,,0.0,77.0,0.0,327788,1365.7833333333333
8979,5.0,,,,,,,69.0,,,,0,note_on,,77.0,69.0,77.0,327788,1365.7833333333333
8980,5.0,,,,,,,69.0,,,,60,note_on,,0.0,69.0,0.0,327848,1366.0333333333333
8981,5.0,,,,,,,72.0,,,,0,note_on,,77.0,72.0,77.0,327848,1366.0333333333333
8982,5.0,,,,,,,72.0,,,,60,note_on,,0.0,72.0,0.0,327908,1366.2833333333333
8983,5.0,,,,,,,81.0,,,,0,note_on,,77.0,81.0,77.0,327908,1366.2833333333333
8984,5.0,,,,,,,81.0,,,,60,note_on,,0.0,81.0,0.0,327968,1366.5333333333333
8985,5.0,,,,,,,77.0,,,,0,note_on,,77.0,77.0,77.0,327968,1366.5333333333333
8986,5.0,,,,,,,77.0,,,,60,note_on,,0.0,77.0,0.0,328028,1366.7833333333333
8987,5.0,,,,,,,72.0,,,,0,note_on,,77.0,72.0,77.0,328028,1366.7833333333333
8988,5.0,,,,,,,72.0,,,,60,note_on,,0.0,72.0,0.0,328088,1367.0333333333333
8989,5.0,,,,,,,65.0,,,,0,note_on,,0.0,65.0,0.0,328088,1367.0333333333333
8990,5.0,,,,,,,60.0,,,,0,note_on,,100.0,60.0,100.0,328088,1367.0333333333333
8991,5.0,,,,,,,76.0,,,,0,note_on,,77.0,76.0,77.0,328088,1367.0333333333333
8992,5.0,,,,,,,76.0,,,,60,note_on,,0.0,76.0,0.0,328148,1367.2833333333333
8993,5.0,,,,,,,67.0,,,,0,note_on,,77.0,67.0,77.0,328148,1367.2833333333333
8994,5.0,,,,,,,67.0,,,,60,note_on,,0.0,67.0,0.0,328208,1367.5333333333333
8995,5.0,,,,,,,72.0,,,,0,note_on,,77.0,72.0,77.0,328208,1367.5333333333333
8996,5.0,,,,,,,72.0,,,,60,note_on,,0.0,72.0,0.0,328268,1367.7833333333333
8997,5.0,,,,,,,79.0,,,,0,note_on,,77.0,79.0,77.0,328268,1367.7833333333333
8998,5.0,,,,,,,79.0,,,,60,note_on,,0.0,79.0,0.0,328328,1368.0333333333333
8999,5.0,,,,,,,76.0,,,,0,note_on,,77.0,76.0,77.0,328328,1368.0333333333333
9000,5.0,,,,,,,76.0,,,,60,note_on,,0.0,76.0,0.0,328388,1368.2833333333333
9001,5.0,,,,,,,72.0,,,,0,note_on,,77.0,72.0,77.0,328388,1368.2833333333333
9002,5.0,,,,,,,72.0,,,,60,note_on,,0.0,72.0,0.0,328448,1368.5333333333333
9003,5.0,,,,,,,60.0,,,,0,note_on,,0.0,60.0,0.0,328448,1368.5333333333333
9004,5.0,,,,,,,67.0,,,,0,note_on,,100.0,67.0,100.0,328448,1368.5333333333333
9005,5.0,,,,,,,79.0,,,,0,note_on,,77.0,79.0,77.0,328448,1368.5333333333333
9006,5.0,,,,,,,79.0,,,,60,note_on,,0.0,79.0,0.0,328508,1368.7833333333333
9007,5.0,,,,,,,71.0,,,,0,note_on,,77.0,71.0,77.0,328508,1368.7833333333333
9008,5.0,,,,,,,71.0,,,,60,note_on,,0.0,71.0,0.0,328568,1369.0333333333333
9009,5.0,,,,,,,74.0,,,,0,note_on,,77.0,74.0,77.0,328568,1369.0333333333333
9010,5.0,,,,,,,74.0,,,,60,note_on,,0.0,74.0,0.0,328628,1369.2833333333333
9011,5.0,,,,,,,83.0,,,,0,note_on,,77.0,83.0,77.0,328628,1369.2833333333333
9012,5.0,,,,,,,83.0,,,,60,note_on,,0.0,83.0,0.0,328688,1369.5333333333333
9013,5.0,,,,,,,79.0,,,,0,note_on,,77.0,79.0,77.0,328688,1369.5333333333333
9014,5.0,,,,,,,79.0,,,,60,note_on,,0.0,79.0,0.0,328748,1369.7833333333333
9015,5.0,,,,,,,74.0,,,,0,note_on,,77.0,74.0,77.0,328748,1369.7833333333333
9016,5.0,,,,,,,74.0,,,,60,note_on,,0.0,74.0,0.0,328808,1370.0333333333333
9017,5.0,,,,,,,67.0,,,,0,note_on,,0.0,67.0,0.0,328808,1370.0333333333333
9018,5.0,,,,,,,60.0,,,,0,note_on,,100.0,60.0,100.0,328808,1370.0333333333333
9019,5.0,,,,,,,76.0,,,,0,note_on,,77.0,76.0,77.0,328808,1370.0333333333333
9020,5.0,,,,,,,76.0,,,,60,note_on,,0.0,76.0,0.0,328868,1370.2833333333333
9021,5.0,,,,,,,67.0,,,,0,note_on,,77.0,67.0,77.0,328868,1370.2833333333333
9022,5.0,,,,,,,67.0,,,,60,note_on,,0.0,67.0,0.0,328928,1370.5333333333333
9023,5.0,,,,,,,72.0,,,,0,note_on,,77.0,72.0,77.0,328928,1370.5333333333333
9024,5.0,,,,,,,72.0,,,,60,note_on,,0.0,72.0,0.0,328988,1370.7833333333333
9025,5.0,,,,,,,79.0,,,,0,note_on,,77.0,79.0,77.0,328988,1370.7833333333333
9026,5.0,,,,,,,79.0,,,,60,note_on,,0.0,79.0,0.0,329048,1371.0333333333333
9027,5.0,,,,,,,76.0,,,,0,note_on,,77.0,76.0,77.0,329048,1371.0333333333333
9028,5.0,,,,,,,76.0,,,,60,note_on,,0.0,76.0,0.0,329108,1371.2833333333333
9029,5.0,,,,,,,72.0,,,,0,note_on,,77.0,72.0,77.0,329108,1371.2833333333333
9030,5.0,,,,,,,72.0,,,,60,note_on,,0.0,72.0,0.0,329168,1371.5333333333333
9031,5.0,,,,,,,60.0,,,,0,note_on,,0.0,60.0,0.0,329168,1371.5333333333333
9032,5.0,,,,,,,64.0,,,,0,note_on,,100.0,64.0,100.0,329168,1371.5333333333333
9033,5.0,,,,,,,79.0,,,,0,note_on,,77.0,79.0,77.0,329168,1371.5333333333333
9034,5.0,,,,,,,79.0,,,,60,note_on,,0.0,79.0,0.0,329228,1371.7833333333333
9035,5.0,,,,,,,71.0,,,,0,note_on,,77.0,71.0,77.0,329228,1371.7833333333333
9036,5.0,,,,,,,71.0,,,,60,note_on,,0.0,71.0,0.0,329288,1372.0333333333333
9037,5.0,,,,,,,74.0,,,,0,note_on,,77.0,74.0,77.0,329288,1372.0333333333333
9038,5.0,,,,,,,74.0,,,,60,note_on,,0.0,74.0,0.0,329348,1372.2833333333333
9039,5.0,,,,,,,83.0,,,,0,note_on,,77.0,83.0,77.0,329348,1372.2833333333333
9040,5.0,,,,,,,83.0,,,,60,note_on,,0.0,83.0,0.0,329408,1372.5333333333333
9041,5.0,,,,,,,79.0,,,,0,note_on,,77.0,79.0,77.0,329408,1372.5333333333333
9042,5.0,,,,,,,79.0,,,,60,note_on,,0.0,79.0,0.0,329468,1372.7833333333333
9043,5.0,,,,,,,74.0,,,,0,note_on,,77.0,74.0,77.0,329468,1372.7833333333333
9044,5.0,,,,,,,74.0,,,,60,note_on,,0.0,74.0,0.0,329528,1373.0333333333333
9045,5.0,,,,,,,64.0,,,,0,note_on,,0.0,64.0,0.0,329528,1373.0333333333333
9046,5.0,,,,,,,57.0,,,,0,note_on,,100.0,57.0,100.0,329528,1373.0333333333333
9047,5.0,,,,,,,76.0,,,,0,note_on,,77.0,76.0,77.0,329528,1373.0333333333333
9048,5.0,,,,,,,76.0,,,,60,note_on,,0.0,76.0,0.0,329588,1373.2833333333333
9049,5.0,,,,,,,69.0,,,,0,note_on,,77.0,69.0,77.0,329588,1373.2833333333333
9050,5.0,,,,,,,69.0,,,,60,note_on,,0.0,69.0,0.0,329648,1373.5333333333333
9051,5.0,,,,,,,72.0,,,,0,note_on,,77.0,72.0,77.0,329648,1373.5333333333333
9052,5.0,,,,,,,72.0,,,,60,note_on,,0.0,72.0,0.0,329708,1373.7833333333333
9053,5.0,,,,,,,69.0,,,,0,note_on,,77.0,69.0,77.0,329708,1373.7833333333333
9054,5.0,,,,,,,69.0,,,,180,note_on,,0.0,69.0,0.0,329888,1374.5333333333333
9055,5.0,,,,,,,57.0,,,,0,note_on,,0.0,57.0,0.0,329888,1374.5333333333333
9056,5.0,,,,,,,65.0,,,,5760,note_on,,100.0,65.0,100.0,335648,1398.5333333333333
9057,5.0,,,,,,,77.0,,,,0,note_on,,77.0,77.0,77.0,335648,1398.5333333333333
9058,5.0,,,,,,,77.0,,,,60,note_on,,0.0,77.0,0.0,335708,1398.7833333333333
9059,5.0,,,,,,,72.0,,,,0,note_on,,77.0,72.0,77.0,335708,1398.7833333333333
9060,5.0,,,,,,,72.0,,,,60,note_on,,0.0,72.0,0.0,335768,1399.0333333333333
9061,5.0,,,,,,,76.0,,,,0,note_on,,77.0,76.0,77.0,335768,1399.0333333333333
9062,5.0,,,,,,,76.0,,,,60,note_on,,0.0,76.0,0.0,335828,1399.2833333333333
9063,5.0,,,,,,,81.0,,,,0,note_on,,77.0,81.0,77.0,335828,1399.2833333333333
9064,5.0,,,,,,,81.0,,,,60,note_on,,0.0,81.0,0.0,335888,1399.5333333333333
9065,5.0,,,,,,,77.0,,,,0,note_on,,77.0,77.0,77.0,335888,1399.5333333333333
9066,5.0,,,,,,,77.0,,,,60,note_on,,0.0,77.0,0.0,335948,1399.7833333333333
9067,5.0,,,,,,,72.0,,,,0,note_on,,77.0,72.0,77.0,335948,1399.7833333333333
9068,5.0,,,,,,,72.0,,,,60,note_on,,0.0,72.0,0.0,336008,1400.0333333333333
9069,5.0,,,,,,,65.0,,,,0,note_on,,0.0,65.0,0.0,336008,1400.0333333333333
9070,5.0,,,,,,,65.0,,,,0,note_on,,100.0,65.0,100.0,336008,1400.0333333333333
9071,5.0,,,,,,,77.0,,,,0,note_on,,77.0,77.0,77.0,336008,1400.0333333333333
9072,5.0,,,,,,,77.0,,,,60,note_on,,0.0,77.0,0.0,336068,1400.2833333333333
9073,5.0,,,,,,,69.0,,,,0,note_on,,77.0,69.0,77.0,336068,1400.2833333333333
9074,5.0,,,,,,,69.0,,,,60,note_on,,0.0,69.0,0.0,336128,1400.5333333333333
9075,5.0,,,,,,,72.0,,,,0,note_on,,77.0,72.0,77.0,336128,1400.5333333333333
9076,5.0,,,,,,,72.0,,,,60,note_on,,0.0,72.0,0.0,336188,1400.7833333333333
9077,5.0,,,,,,,81.0,,,,0,note_on,,77.0,81.0,77.0,336188,1400.7833333333333
9078,5.0,,,,,,,81.0,,,,60,note_on,,0.0,81.0,0.0,336248,1401.0333333333333
9079,5.0,,,,,,,77.0,,,,0,note_on,,77.0,77.0,77.0,336248,1401.0333333333333
9080,5.0,,,,,,,77.0,,,,60,note_on,,0.0,77.0,0.0,336308,1401.2833333333333
9081,5.0,,,,,,,72.0,,,,0,note_on,,77.0,72.0,77.0,336308,1401.2833333333333
9082,5.0,,,,,,,72.0,,,,60,note_on,,0.0,72.0,0.0,336368,1401.5333333333333
9083,5.0,,,,,,,65.0,,,,0,note_on,,0.0,65.0,0.0,336368,1401.5333333333333
9084,5.0,,,,,,,57.0,,,,0,note_on,,100.0,57.0,100.0,336368,1401.5333333333333
9085,5.0,,,,,,,76.0,,,,0,note_on,,77.0,76.0,77.0,336368,1401.5333333333333
9086,5.0,,,,,,,76.0,,,,60,note_on,,0.0,76.0,0.0,336428,1401.7833333333333
9087,5.0,,,,,,,69.0,,,,0,note_on,,77.0,69.0,77.0,336428,1401.7833333333333
9088,5.0,,,,,,,69.0,,,,60,note_on,,0.0,69.0,0.0,336488,1402.0333333333333
9089,5.0,,,,,,,72.0,,,,0,note_on,,77.0,72.0,77.0,336488,1402.0333333333333
9090,5.0,,,,,,,72.0,,,,60,note_on,,0.0,72.0,0.0,336548,1402.2833333333333
9091,5.0,,,,,,,81.0,,,,0,note_on,,77.0,81.0,77.0,336548,1402.2833333333333
9092,5.0,,,,,,,81.0,,,,60,note_on,,0.0,81.0,0.0,336608,1402.5333333333333
9093,5.0,,,,,,,76.0,,,,0,note_on,,77.0,76.0,77.0,336608,1402.5333333333333
9094,5.0,,,,,,,76.0,,,,60,note_on,,0.0,76.0,0.0,336668,1402.7833333333333
9095,5.0,,,,,,,72.0,,,,0,note_on,,77.0,72.0,77.0,336668,1402.7833333333333
9096,5.0,,,,,,,72.0,,,,60,note_on,,0.0,72.0,0.0,336728,1403.0333333333333
9097,5.0,,,,,,,57.0,,,,0,note_on,,0.0,57.0,0.0,336728,1403.0333333333333
9098,5.0,,,,,,,57.0,,,,0,note_on,,100.0,57.0,100.0,336728,1403.0333333333333
9099,5.0,,,,,,,76.0,,,,0,note_on,,77.0,76.0,77.0,336728,1403.0333333333333
9100,5.0,,,,,,,76.0,,,,60,note_on,,0.0,76.0,0.0,336788,1403.2833333333333
9101,5.0,,,,,,,69.0,,,,0,note_on,,77.0,69.0,77.0,336788,1403.2833333333333
9102,5.0,,,,,,,69.0,,,,60,note_on,,0.0,69.0,0.0,336848,1403.5333333333333
9103,5.0,,,,,,,72.0,,,,0,note_on,,77.0,72.0,77.0,336848,1403.5333333333333
9104,5.0,,,,,,,72.0,,,,60,note_on,,0.0,72.0,0.0,336908,1403.7833333333333
9105,5.0,,,,,,,81.0,,,,0,note_on,,77.0,81.0,77.0,336908,1403.7833333333333
9106,5.0,,,,,,,81.0,,,,60,note_on,,0.0,81.0,0.0,336968,1404.0333333333333
9107,5.0,,,,,,,76.0,,,,0,note_on,,77.0,76.0,77.0,336968,1404.0333333333333
9108,5.0,,,,,,,76.0,,,,60,note_on,,0.0,76.0,0.0,337028,1404.2833333333333
9109,5.0,,,,,,,72.0,,,,0,note_on,,77.0,72.0,77.0,337028,1404.2833333333333
9110,5.0,,,,,,,72.0,,,,60,note_on,,0.0,72.0,0.0,337088,1404.5333333333333
9111,5.0,,,,,,,57.0,,,,0,note_on,,0.0,57.0,0.0,337088,1404.5333333333333
9112,5.0,,,,,,,65.0,,,,0,note_on,,100.0,65.0,100.0,337088,1404.5333333333333
9113,5.0,,,,,,,77.0,,,,0,note_on,,77.0,77.0,77.0,337088,1404.5333333333333
9114,5.0,,,,,,,77.0,,,,60,note_on,,0.0,77.0,0.0,337148,1404.7833333333333
9115,5.0,,,,,,,69.0,,,,0,note_on,,77.0,69.0,77.0,337148,1404.7833333333333
9116,5.0,,,,,,,69.0,,,,60,note_on,,0.0,69.0,0.0,337208,1405.0333333333333
9117,5.0,,,,,,,72.0,,,,0,note_on,,77.0,72.0,77.0,337208,1405.0333333333333
9118,5.0,,,,,,,72.0,,,,60,note_on,,0.0,72.0,0.0,337268,1405.2833333333333
9119,5.0,,,,,,,81.0,,,,0,note_on,,77.0,81.0,77.0,337268,1405.2833333333333
9120,5.0,,,,,,,81.0,,,,60,note_on,,0.0,81.0,0.0,337328,1405.5333333333333
9121,5.0,,,,,,,77.0,,,,0,note_on,,77.0,77.0,77.0,337328,1405.5333333333333
9122,5.0,,,,,,,77.0,,,,60,note_on,,0.0,77.0,0.0,337388,1405.7833333333333
9123,5.0,,,,,,,72.0,,,,0,note_on,,77.0,72.0,77.0,337388,1405.7833333333333
9124,5.0,,,,,,,72.0,,,,60,note_on,,0.0,72.0,0.0,337448,1406.0333333333333
9125,5.0,,,,,,,65.0,,,,0,note_on,,0.0,65.0,0.0,337448,1406.0333333333333
9126,5.0,,,,,,,65.0,,,,0,note_on,,100.0,65.0,100.0,337448,1406.0333333333333
9127,5.0,,,,,,,77.0,,,,0,note_on,,77.0,77.0,77.0,337448,1406.0333333333333
9128,5.0,,,,,,,77.0,,,,60,note_on,,0.0,77.0,0.0,337508,1406.2833333333333
9129,5.0,,,,,,,69.0,,,,0,note_on,,77.0,69.0,77.0,337508,1406.2833333333333
9130,5.0,,,,,,,69.0,,,,60,note_on,,0.0,69.0,0.0,337568,1406.5333333333333
9131,5.0,,,,,,,72.0,,,,0,note_on,,77.0,72.0,77.0,337568,1406.5333333333333
9132,5.0,,,,,,,72.0,,,,60,note_on,,0.0,72.0,0.0,337628,1406.7833333333333
9133,5.0,,,,,,,81.0,,,,0,note_on,,77.0,81.0,77.0,337628,1406.7833333333333
9134,5.0,,,,,,,81.0,,,,60,note_on,,0.0,81.0,0.0,337688,1407.0333333333333
9135,5.0,,,,,,,77.0,,,,0,note_on,,77.0,77.0,77.0,337688,1407.0333333333333
9136,5.0,,,,,,,77.0,,,,60,note_on,,0.0,77.0,0.0,337748,1407.2833333333333
9137,5.0,,,,,,,72.0,,,,0,note_on,,77.0,72.0,77.0,337748,1407.2833333333333
9138,5.0,,,,,,,72.0,,,,60,note_on,,0.0,72.0,0.0,337808,1407.5333333333333
9139,5.0,,,,,,,65.0,,,,0,note_on,,0.0,65.0,0.0,337808,1407.5333333333333
9140,5.0,,,,,,,60.0,,,,0,note_on,,100.0,60.0,100.0,337808,1407.5333333333333
9141,5.0,,,,,,,76.0,,,,0,note_on,,77.0,76.0,77.0,337808,1407.5333333333333
9142,5.0,,,,,,,76.0,,,,60,note_on,,0.0,76.0,0.0,337868,1407.7833333333333
9143,5.0,,,,,,,67.0,,,,0,note_on,,77.0,67.0,77.0,337868,1407.7833333333333
9144,5.0,,,,,,,67.0,,,,60,note_on,,0.0,67.0,0.0,337928,1408.0333333333333
9145,5.0,,,,,,,72.0,,,,0,note_on,,77.0,72.0,77.0,337928,1408.0333333333333
9146,5.0,,,,,,,72.0,,,,60,note_on,,0.0,72.0,0.0,337988,1408.2833333333333
9147,5.0,,,,,,,79.0,,,,0,note_on,,77.0,79.0,77.0,337988,1408.2833333333333
9148,5.0,,,,,,,79.0,,,,60,note_on,,0.0,79.0,0.0,338048,1408.5333333333333
9149,5.0,,,,,,,76.0,,,,0,note_on,,77.0,76.0,77.0,338048,1408.5333333333333
9150,5.0,,,,,,,76.0,,,,60,note_on,,0.0,76.0,0.0,338108,1408.7833333333333
9151,5.0,,,,,,,72.0,,,,0,note_on,,77.0,72.0,77.0,338108,1408.7833333333333
9152,5.0,,,,,,,72.0,,,,60,note_on,,0.0,72.0,0.0,338168,1409.0333333333333
9153,5.0,,,,,,,60.0,,,,0,note_on,,0.0,60.0,0.0,338168,1409.0333333333333
9154,5.0,,,,,,,67.0,,,,0,note_on,,100.0,67.0,100.0,338168,1409.0333333333333
9155,5.0,,,,,,,79.0,,,,0,note_on,,77.0,79.0,77.0,338168,1409.0333333333333
9156,5.0,,,,,,,79.0,,,,60,note_on,,0.0,79.0,0.0,338228,1409.2833333333333
9157,5.0,,,,,,,71.0,,,,0,note_on,,77.0,71.0,77.0,338228,1409.2833333333333
9158,5.0,,,,,,,71.0,,,,60,note_on,,0.0,71.0,0.0,338288,1409.5333333333333
9159,5.0,,,,,,,74.0,,,,0,note_on,,77.0,74.0,77.0,338288,1409.5333333333333
9160,5.0,,,,,,,74.0,,,,60,note_on,,0.0,74.0,0.0,338348,1409.7833333333333
9161,5.0,,,,,,,83.0,,,,0,note_on,,77.0,83.0,77.0,338348,1409.7833333333333
9162,5.0,,,,,,,83.0,,,,60,note_on,,0.0,83.0,0.0,338408,1410.0333333333333
9163,5.0,,,,,,,79.0,,,,0,note_on,,77.0,79.0,77.0,338408,1410.0333333333333
9164,5.0,,,,,,,79.0,,,,60,note_on,,0.0,79.0,0.0,338468,1410.2833333333333
9165,5.0,,,,,,,74.0,,,,0,note_on,,77.0,74.0,77.0,338468,1410.2833333333333
9166,5.0,,,,,,,74.0,,,,60,note_on,,0.0,74.0,0.0,338528,1410.5333333333333
9167,5.0,,,,,,,67.0,,,,0,note_on,,0.0,67.0,0.0,338528,1410.5333333333333
9168,5.0,,,,,,,60.0,,,,0,note_on,,100.0,60.0,100.0,338528,1410.5333333333333
9169,5.0,,,,,,,76.0,,,,0,note_on,,77.0,76.0,77.0,338528,1410.5333333333333
9170,5.0,,,,,,,76.0,,,,60,note_on,,0.0,76.0,0.0,338588,1410.7833333333333
9171,5.0,,,,,,,67.0,,,,0,note_on,,77.0,67.0,77.0,338588,1410.7833333333333
9172,5.0,,,,,,,67.0,,,,60,note_on,,0.0,67.0,0.0,338648,1411.0333333333333
9173,5.0,,,,,,,72.0,,,,0,note_on,,77.0,72.0,77.0,338648,1411.0333333333333
9174,5.0,,,,,,,72.0,,,,60,note_on,,0.0,72.0,0.0,338708,1411.2833333333333
9175,5.0,,,,,,,79.0,,,,0,note_on,,77.0,79.0,77.0,338708,1411.2833333333333
9176,5.0,,,,,,,79.0,,,,60,note_on,,0.0,79.0,0.0,338768,1411.5333333333333
9177,5.0,,,,,,,76.0,,,,0,note_on,,77.0,76.0,77.0,338768,1411.5333333333333
9178,5.0,,,,,,,76.0,,,,60,note_on,,0.0,76.0,0.0,338828,1411.7833333333333
9179,5.0,,,,,,,72.0,,,,0,note_on,,77.0,72.0,77.0,338828,1411.7833333333333
9180,5.0,,,,,,,72.0,,,,60,note_on,,0.0,72.0,0.0,338888,1412.0333333333333
9181,5.0,,,,,,,60.0,,,,0,note_on,,0.0,60.0,0.0,338888,1412.0333333333333
9182,5.0,,,,,,,64.0,,,,0,note_on,,100.0,64.0,100.0,338888,1412.0333333333333
9183,5.0,,,,,,,79.0,,,,0,note_on,,77.0,79.0,77.0,338888,1412.0333333333333
9184,5.0,,,,,,,79.0,,,,60,note_on,,0.0,79.0,0.0,338948,1412.2833333333333
9185,5.0,,,,,,,71.0,,,,0,note_on,,77.0,71.0,77.0,338948,1412.2833333333333
9186,5.0,,,,,,,71.0,,,,60,note_on,,0.0,71.0,0.0,339008,1412.5333333333333
9187,5.0,,,,,,,74.0,,,,0,note_on,,77.0,74.0,77.0,339008,1412.5333333333333
9188,5.0,,,,,,,74.0,,,,60,note_on,,0.0,74.0,0.0,339068,1412.7833333333333
9189,5.0,,,,,,,83.0,,,,0,note_on,,77.0,83.0,77.0,339068,1412.7833333333333
9190,5.0,,,,,,,83.0,,,,60,note_on,,0.0,83.0,0.0,339128,1413.0333333333333
9191,5.0,,,,,,,79.0,,,,0,note_on,,77.0,79.0,77.0,339128,1413.0333333333333
9192,5.0,,,,,,,79.0,,,,60,note_on,,0.0,79.0,0.0,339188,1413.2833333333333
9193,5.0,,,,,,,74.0,,,,0,note_on,,77.0,74.0,77.0,339188,1413.2833333333333
9194,5.0,,,,,,,74.0,,,,60,note_on,,0.0,74.0,0.0,339248,1413.5333333333333
9195,5.0,,,,,,,64.0,,,,0,note_on,,0.0,64.0,0.0,339248,1413.5333333333333
9196,5.0,,,,,,,57.0,,,,0,note_on,,100.0,57.0,100.0,339248,1413.5333333333333
9197,5.0,,,,,,,76.0,,,,0,note_on,,77.0,76.0,77.0,339248,1413.5333333333333
9198,5.0,,,,,,,76.0,,,,60,note_on,,0.0,76.0,0.0,339308,1413.7833333333333
9199,5.0,,,,,,,69.0,,,,0,note_on,,77.0,69.0,77.0,339308,1413.7833333333333
9200,5.0,,,,,,,69.0,,,,60,note_on,,0.0,69.0,0.0,339368,1414.0333333333333
9201,5.0,,,,,,,72.0,,,,0,note_on,,77.0,72.0,77.0,339368,1414.0333333333333
9202,5.0,,,,,,,72.0,,,,60,note_on,,0.0,72.0,0.0,339428,1414.2833333333333
9203,5.0,,,,,,,69.0,,,,0,note_on,,77.0,69.0,77.0,339428,1414.2833333333333
9204,5.0,,,,,,,69.0,,,,180,note_on,,0.0,69.0,0.0,339608,1415.0333333333333
9205,5.0,,,,,,,57.0,,,,0,note_on,,0.0,57.0,0.0,339608,1415.0333333333333
9206,5.0,,,,,,,65.0,,,,5760,note_on,,100.0,65.0,100.0,345368,1439.0333333333333
9207,5.0,,,,,,,77.0,,,,0,note_on,,77.0,77.0,77.0,345368,1439.0333333333333
9208,5.0,,,,,,,77.0,,,,60,note_on,,0.0,77.0,0.0,345428,1439.2833333333333
9209,5.0,,,,,,,72.0,,,,0,note_on,,77.0,72.0,77.0,345428,1439.2833333333333
9210,5.0,,,,,,,72.0,,,,60,note_on,,0.0,72.0,0.0,345488,1439.5333333333333
9211,5.0,,,,,,,76.0,,,,0,note_on,,77.0,76.0,77.0,345488,1439.5333333333333
9212,5.0,,,,,,,76.0,,,,60,note_on,,0.0,76.0,0.0,345548,1439.7833333333333
9213,5.0,,,,,,,81.0,,,,0,note_on,,77.0,81.0,77.0,345548,1439.7833333333333
9214,5.0,,,,,,,81.0,,,,60,note_on,,0.0,81.0,0.0,345608,1440.0333333333333
9215,5.0,,,,,,,77.0,,,,0,note_on,,77.0,77.0,77.0,345608,1440.0333333333333
9216,5.0,,,,,,,77.0,,,,60,note_on,,0.0,77.0,0.0,345668,1440.2833333333333
9217,5.0,,,,,,,72.0,,,,0,note_on,,77.0,72.0,77.0,345668,1440.2833333333333
9218,5.0,,,,,,,72.0,,,,60,note_on,,0.0,72.0,0.0,345728,1440.5333333333333
9219,5.0,,,,,,,65.0,,,,0,note_on,,0.0,65.0,0.0,345728,1440.5333333333333
9220,5.0,,,,,,,65.0,,,,0,note_on,,100.0,65.0,100.0,345728,1440.5333333333333
9221,5.0,,,,,,,77.0,,,,0,note_on,,77.0,77.0,77.0,345728,1440.5333333333333
9222,5.0,,,,,,,77.0,,,,60,note_on,,0.0,77.0,0.0,345788,1440.7833333333333
9223,5.0,,,,,,,69.0,,,,0,note_on,,77.0,69.0,77.0,345788,1440.7833333333333
9224,5.0,,,,,,,69.0,,,,60,note_on,,0.0,69.0,0.0,345848,1441.0333333333333
9225,5.0,,,,,,,72.0,,,,0,note_on,,77.0,72.0,77.0,345848,1441.0333333333333
9226,5.0,,,,,,,72.0,,,,60,note_on,,0.0,72.0,0.0,345908,1441.2833333333333
9227,5.0,,,,,,,81.0,,,,0,note_on,,77.0,81.0,77.0,345908,1441.2833333333333
9228,5.0,,,,,,,81.0,,,,60,note_on,,0.0,81.0,0.0,345968,1441.5333333333333
9229,5.0,,,,,,,77.0,,,,0,note_on,,77.0,77.0,77.0,345968,1441.5333333333333
9230,5.0,,,,,,,77.0,,,,60,note_on,,0.0,77.0,0.0,346028,1441.7833333333333
9231,5.0,,,,,,,72.0,,,,0,note_on,,77.0,72.0,77.0,346028,1441.7833333333333
9232,5.0,,,,,,,72.0,,,,60,note_on,,0.0,72.0,0.0,346088,1442.0333333333333
9233,5.0,,,,,,,65.0,,,,0,note_on,,0.0,65.0,0.0,346088,1442.0333333333333
9234,5.0,,,,,,,57.0,,,,0,note_on,,100.0,57.0,100.0,346088,1442.0333333333333
9235,5.0,,,,,,,76.0,,,,0,note_on,,77.0,76.0,77.0,346088,1442.0333333333333
9236,5.0,,,,,,,76.0,,,,60,note_on,,0.0,76.0,0.0,346148,1442.2833333333333
9237,5.0,,,,,,,69.0,,,,0,note_on,,77.0,69.0,77.0,346148,1442.2833333333333
9238,5.0,,,,,,,69.0,,,,60,note_on,,0.0,69.0,0.0,346208,1442.5333333333333
9239,5.0,,,,,,,72.0,,,,0,note_on,,77.0,72.0,77.0,346208,1442.5333333333333
9240,5.0,,,,,,,72.0,,,,60,note_on,,0.0,72.0,0.0,346268,1442.7833333333333
9241,5.0,,,,,,,81.0,,,,0,note_on,,77.0,81.0,77.0,346268,1442.7833333333333
9242,5.0,,,,,,,81.0,,,,60,note_on,,0.0,81.0,0.0,346328,1443.0333333333333
9243,5.0,,,,,,,76.0,,,,0,note_on,,77.0,76.0,77.0,346328,1443.0333333333333
9244,5.0,,,,,,,76.0,,,,60,note_on,,0.0,76.0,0.0,346388,1443.2833333333333
9245,5.0,,,,,,,72.0,,,,0,note_on,,77.0,72.0,77.0,346388,1443.2833333333333
9246,5.0,,,,,,,72.0,,,,60,note_on,,0.0,72.0,0.0,346448,1443.5333333333333
9247,5.0,,,,,,,57.0,,,,0,note_on,,0.0,57.0,0.0,346448,1443.5333333333333
9248,5.0,,,,,,,57.0,,,,0,note_on,,100.0,57.0,100.0,346448,1443.5333333333333
9249,5.0,,,,,,,76.0,,,,0,note_on,,77.0,76.0,77.0,346448,1443.5333333333333
9250,5.0,,,,,,,76.0,,,,60,note_on,,0.0,76.0,0.0,346508,1443.7833333333333
9251,5.0,,,,,,,69.0,,,,0,note_on,,77.0,69.0,77.0,346508,1443.7833333333333
9252,5.0,,,,,,,69.0,,,,60,note_on,,0.0,69.0,0.0,346568,1444.0333333333333
9253,5.0,,,,,,,72.0,,,,0,note_on,,77.0,72.0,77.0,346568,1444.0333333333333
9254,5.0,,,,,,,72.0,,,,60,note_on,,0.0,72.0,0.0,346628,1444.2833333333333
9255,5.0,,,,,,,81.0,,,,0,note_on,,77.0,81.0,77.0,346628,1444.2833333333333
9256,5.0,,,,,,,81.0,,,,60,note_on,,0.0,81.0,0.0,346688,1444.5333333333333
9257,5.0,,,,,,,76.0,,,,0,note_on,,77.0,76.0,77.0,346688,1444.5333333333333
9258,5.0,,,,,,,76.0,,,,60,note_on,,0.0,76.0,0.0,346748,1444.7833333333333
9259,5.0,,,,,,,72.0,,,,0,note_on,,77.0,72.0,77.0,346748,1444.7833333333333
9260,5.0,,,,,,,72.0,,,,60,note_on,,0.0,72.0,0.0,346808,1445.0333333333333
9261,5.0,,,,,,,57.0,,,,0,note_on,,0.0,57.0,0.0,346808,1445.0333333333333
9262,5.0,,,,,,,65.0,,,,0,note_on,,100.0,65.0,100.0,346808,1445.0333333333333
9263,5.0,,,,,,,77.0,,,,0,note_on,,77.0,77.0,77.0,346808,1445.0333333333333
9264,5.0,,,,,,,77.0,,,,60,note_on,,0.0,77.0,0.0,346868,1445.2833333333333
9265,5.0,,,,,,,69.0,,,,0,note_on,,77.0,69.0,77.0,346868,1445.2833333333333
9266,5.0,,,,,,,69.0,,,,60,note_on,,0.0,69.0,0.0,346928,1445.5333333333333
9267,5.0,,,,,,,72.0,,,,0,note_on,,77.0,72.0,77.0,346928,1445.5333333333333
9268,5.0,,,,,,,72.0,,,,60,note_on,,0.0,72.0,0.0,346988,1445.7833333333333
9269,5.0,,,,,,,81.0,,,,0,note_on,,77.0,81.0,77.0,346988,1445.7833333333333
9270,5.0,,,,,,,81.0,,,,60,note_on,,0.0,81.0,0.0,347048,1446.0333333333333
9271,5.0,,,,,,,77.0,,,,0,note_on,,77.0,77.0,77.0,347048,1446.0333333333333
9272,5.0,,,,,,,77.0,,,,60,note_on,,0.0,77.0,0.0,347108,1446.2833333333333
9273,5.0,,,,,,,72.0,,,,0,note_on,,77.0,72.0,77.0,347108,1446.2833333333333
9274,5.0,,,,,,,72.0,,,,60,note_on,,0.0,72.0,0.0,347168,1446.5333333333333
9275,5.0,,,,,,,65.0,,,,0,note_on,,0.0,65.0,0.0,347168,1446.5333333333333
9276,5.0,,,,,,,65.0,,,,0,note_on,,100.0,65.0,100.0,347168,1446.5333333333333
9277,5.0,,,,,,,77.0,,,,0,note_on,,77.0,77.0,77.0,347168,1446.5333333333333
9278,5.0,,,,,,,77.0,,,,60,note_on,,0.0,77.0,0.0,347228,1446.7833333333333
9279,5.0,,,,,,,69.0,,,,0,note_on,,77.0,69.0,77.0,347228,1446.7833333333333
9280,5.0,,,,,,,69.0,,,,60,note_on,,0.0,69.0,0.0,347288,1447.0333333333333
9281,5.0,,,,,,,72.0,,,,0,note_on,,77.0,72.0,77.0,347288,1447.0333333333333
9282,5.0,,,,,,,72.0,,,,60,note_on,,0.0,72.0,0.0,347348,1447.2833333333333
9283,5.0,,,,,,,81.0,,,,0,note_on,,77.0,81.0,77.0,347348,1447.2833333333333
9284,5.0,,,,,,,81.0,,,,60,note_on,,0.0,81.0,0.0,347408,1447.5333333333333
9285,5.0,,,,,,,77.0,,,,0,note_on,,77.0,77.0,77.0,347408,1447.5333333333333
9286,5.0,,,,,,,77.0,,,,60,note_on,,0.0,77.0,0.0,347468,1447.7833333333333
9287,5.0,,,,,,,72.0,,,,0,note_on,,77.0,72.0,77.0,347468,1447.7833333333333
9288,5.0,,,,,,,72.0,,,,60,note_on,,0.0,72.0,0.0,347528,1448.0333333333333
9289,5.0,,,,,,,65.0,,,,0,note_on,,0.0,65.0,0.0,347528,1448.0333333333333
9290,5.0,,,,,,,60.0,,,,0,note_on,,100.0,60.0,100.0,347528,1448.0333333333333
9291,5.0,,,,,,,76.0,,,,0,note_on,,77.0,76.0,77.0,347528,1448.0333333333333
9292,5.0,,,,,,,76.0,,,,60,note_on,,0.0,76.0,0.0,347588,1448.2833333333333
9293,5.0,,,,,,,67.0,,,,0,note_on,,77.0,67.0,77.0,347588,1448.2833333333333
9294,5.0,,,,,,,67.0,,,,60,note_on,,0.0,67.0,0.0,347648,1448.5333333333333
9295,5.0,,,,,,,72.0,,,,0,note_on,,77.0,72.0,77.0,347648,1448.5333333333333
9296,5.0,,,,,,,72.0,,,,60,note_on,,0.0,72.0,0.0,347708,1448.7833333333333
9297,5.0,,,,,,,79.0,,,,0,note_on,,77.0,79.0,77.0,347708,1448.7833333333333
9298,5.0,,,,,,,79.0,,,,60,note_on,,0.0,79.0,0.0,347768,1449.0333333333333
9299,5.0,,,,,,,76.0,,,,0,note_on,,77.0,76.0,77.0,347768,1449.0333333333333
9300,5.0,,,,,,,76.0,,,,60,note_on,,0.0,76.0,0.0,347828,1449.2833333333333
9301,5.0,,,,,,,72.0,,,,0,note_on,,77.0,72.0,77.0,347828,1449.2833333333333
9302,5.0,,,,,,,72.0,,,,60,note_on,,0.0,72.0,0.0,347888,1449.5333333333333
9303,5.0,,,,,,,60.0,,,,0,note_on,,0.0,60.0,0.0,347888,1449.5333333333333
9304,5.0,,,,,,,67.0,,,,0,note_on,,100.0,67.0,100.0,347888,1449.5333333333333
9305,5.0,,,,,,,79.0,,,,0,note_on,,77.0,79.0,77.0,347888,1449.5333333333333
9306,5.0,,,,,,,79.0,,,,60,note_on,,0.0,79.0,0.0,347948,1449.7833333333333
9307,5.0,,,,,,,71.0,,,,0,note_on,,77.0,71.0,77.0,347948,1449.7833333333333
9308,5.0,,,,,,,71.0,,,,60,note_on,,0.0,71.0,0.0,348008,1450.0333333333333
9309,5.0,,,,,,,74.0,,,,0,note_on,,77.0,74.0,77.0,348008,1450.0333333333333
9310,5.0,,,,,,,74.0,,,,60,note_on,,0.0,74.0,0.0,348068,1450.2833333333333
9311,5.0,,,,,,,83.0,,,,0,note_on,,77.0,83.0,77.0,348068,1450.2833333333333
9312,5.0,,,,,,,83.0,,,,60,note_on,,0.0,83.0,0.0,348128,1450.5333333333333
9313,5.0,,,,,,,79.0,,,,0,note_on,,77.0,79.0,77.0,348128,1450.5333333333333
9314,5.0,,,,,,,79.0,,,,60,note_on,,0.0,79.0,0.0,348188,1450.7833333333333
9315,5.0,,,,,,,74.0,,,,0,note_on,,77.0,74.0,77.0,348188,1450.7833333333333
9316,5.0,,,,,,,74.0,,,,60,note_on,,0.0,74.0,0.0,348248,1451.0333333333333
9317,5.0,,,,,,,67.0,,,,0,note_on,,0.0,67.0,0.0,348248,1451.0333333333333
9318,5.0,,,,,,,60.0,,,,0,note_on,,100.0,60.0,100.0,348248,1451.0333333333333
9319,5.0,,,,,,,76.0,,,,0,note_on,,77.0,76.0,77.0,348248,1451.0333333333333
9320,5.0,,,,,,,76.0,,,,60,note_on,,0.0,76.0,0.0,348308,1451.2833333333333
9321,5.0,,,,,,,67.0,,,,0,note_on,,77.0,67.0,77.0,348308,1451.2833333333333
9322,5.0,,,,,,,67.0,,,,60,note_on,,0.0,67.0,0.0,348368,1451.5333333333333
9323,5.0,,,,,,,72.0,,,,0,note_on,,77.0,72.0,77.0,348368,1451.5333333333333
9324,5.0,,,,,,,72.0,,,,60,note_on,,0.0,72.0,0.0,348428,1451.7833333333333
9325,5.0,,,,,,,79.0,,,,0,note_on,,77.0,79.0,77.0,348428,1451.7833333333333
9326,5.0,,,,,,,79.0,,,,60,note_on,,0.0,79.0,0.0,348488,1452.0333333333333
9327,5.0,,,,,,,76.0,,,,0,note_on,,77.0,76.0,77.0,348488,1452.0333333333333
9328,5.0,,,,,,,76.0,,,,60,note_on,,0.0,76.0,0.0,348548,1452.2833333333333
9329,5.0,,,,,,,72.0,,,,0,note_on,,77.0,72.0,77.0,348548,1452.2833333333333
9330,5.0,,,,,,,72.0,,,,60,note_on,,0.0,72.0,0.0,348608,1452.5333333333333
9331,5.0,,,,,,,60.0,,,,0,note_on,,0.0,60.0,0.0,348608,1452.5333333333333
9332,5.0,,,,,,,64.0,,,,0,note_on,,100.0,64.0,100.0,348608,1452.5333333333333
9333,5.0,,,,,,,79.0,,,,0,note_on,,77.0,79.0,77.0,348608,1452.5333333333333
9334,5.0,,,,,,,79.0,,,,60,note_on,,0.0,79.0,0.0,348668,1452.7833333333333
9335,5.0,,,,,,,71.0,,,,0,note_on,,77.0,71.0,77.0,348668,1452.7833333333333
9336,5.0,,,,,,,71.0,,,,60,note_on,,0.0,71.0,0.0,348728,1453.0333333333333
9337,5.0,,,,,,,74.0,,,,0,note_on,,77.0,74.0,77.0,348728,1453.0333333333333
9338,5.0,,,,,,,74.0,,,,60,note_on,,0.0,74.0,0.0,348788,1453.2833333333333
9339,5.0,,,,,,,83.0,,,,0,note_on,,77.0,83.0,77.0,348788,1453.2833333333333
9340,5.0,,,,,,,83.0,,,,60,note_on,,0.0,83.0,0.0,348848,1453.5333333333333
9341,5.0,,,,,,,79.0,,,,0,note_on,,77.0,79.0,77.0,348848,1453.5333333333333
9342,5.0,,,,,,,79.0,,,,60,note_on,,0.0,79.0,0.0,348908,1453.7833333333333
9343,5.0,,,,,,,74.0,,,,0,note_on,,77.0,74.0,77.0,348908,1453.7833333333333
9344,5.0,,,,,,,74.0,,,,60,note_on,,0.0,74.0,0.0,348968,1454.0333333333333
9345,5.0,,,,,,,64.0,,,,0,note_on,,0.0,64.0,0.0,348968,1454.0333333333333
9346,5.0,,,,,,,60.0,,,,0,note_on,,100.0,60.0,100.0,348968,1454.0333333333333
9347,5.0,,,,,,,76.0,,,,0,note_on,,77.0,76.0,77.0,348968,1454.0333333333333
9348,5.0,,,,,,,72.0,,,,57,note_on,,77.0,72.0,77.0,349025,1454.2708333333333
9349,5.0,,,,,,,76.0,,,,3,note_on,,0.0,76.0,0.0,349028,1454.2833333333333
9350,5.0,,,,,,,72.0,,,,57,note_on,,0.0,72.0,0.0,349085,1454.5208333333333
9351,5.0,,,,,,,67.0,,,,0,note_on,,77.0,67.0,77.0,349085,1454.5208333333333
9352,5.0,,,,,,,67.0,,,,60,note_on,,0.0,67.0,0.0,349145,1454.7708333333333
9353,5.0,,,,,,,72.0,,,,0,note_on,,77.0,72.0,77.0,349145,1454.7708333333333
9354,5.0,,,,,,,72.0,,,,180,note_on,,0.0,72.0,0.0,349325,1455.5208333333333
9355,5.0,,,,,,,60.0,,,,3,note_on,,0.0,60.0,0.0,349328,1455.5333333333333
9356,,,,,,,,,,,,0,end_of_track,,,,,349328,1455.5333333333333
9357,9.0,,7.0,,,,,,,,,0,control_change,75.0,,,,349328,1455.5333333333333
9358,9.0,,,,,,,42.0,,,,1440,note_on,,66.0,42.0,66.0,350768,1461.5333333333333
9359,9.0,,,,,,,42.0,,,,120,note_on,,0.0,42.0,0.0,350888,1462.0333333333333
9360,9.0,,,,,,,42.0,,,,53,note_on,,66.0,42.0,66.0,350941,1462.2541666666666
9361,9.0,,,,,,,42.0,,,,120,note_on,,0.0,42.0,0.0,351061,1462.7541666666666
9362,9.0,,,,,,,42.0,,,,60,note_on,,66.0,42.0,66.0,351121,1463.0041666666666
9363,9.0,,,,,,,42.0,,,,120,note_on,,0.0,42.0,0.0,351241,1463.5041666666666
9364,9.0,,,,,,,42.0,,,,60,note_on,,66.0,42.0,66.0,351301,1463.7541666666666
9365,9.0,,,,,,,42.0,,,,120,note_on,,0.0,42.0,0.0,351421,1464.2541666666666
9366,9.0,,,,,,,42.0,,,,60,note_on,,66.0,42.0,66.0,351481,1464.5041666666666
9367,9.0,,,,,,,42.0,,,,120,note_on,,0.0,42.0,0.0,351601,1465.0041666666666
9368,9.0,,,,,,,42.0,,,,60,note_on,,66.0,42.0,66.0,351661,1465.2541666666666
9369,9.0,,,,,,,42.0,,,,120,note_on,,0.0,42.0,0.0,351781,1465.7541666666666
9370,9.0,,,,,,,42.0,,,,60,note_on,,66.0,42.0,66.0,351841,1466.0041666666666
9371,9.0,,,,,,,42.0,,,,120,note_on,,0.0,42.0,0.0,351961,1466.5041666666666
9372,9.0,,,,,,,42.0,,,,60,note_on,,66.0,42.0,66.0,352021,1466.7541666666666
9373,9.0,,,,,,,42.0,,,,120,note_on,,0.0,42.0,0.0,352141,1467.2541666666666
9374,9.0,,,,,,,42.0,,,,60,note_on,,66.0,42.0,66.0,352201,1467.5041666666666
9375,9.0,,,,,,,42.0,,,,120,note_on,,0.0,42.0,0.0,352321,1468.0041666666666
9376,9.0,,,,,,,42.0,,,,60,note_on,,66.0,42.0,66.0,352381,1468.2541666666666
9377,9.0,,,,,,,42.0,,,,120,note_on,,0.0,42.0,0.0,352501,1468.7541666666666
9378,9.0,,,,,,,42.0,,,,60,note_on,,66.0,42.0,66.0,352561,1469.0041666666666
9379,9.0,,,,,,,42.0,,,,120,note_on,,0.0,42.0,0.0,352681,1469.5041666666666
9380,9.0,,,,,,,42.0,,,,60,note_on,,66.0,42.0,66.0,352741,1469.7541666666666
9381,9.0,,,,,,,42.0,,,,120,note_on,,0.0,42.0,0.0,352861,1470.2541666666666
9382,9.0,,,,,,,42.0,,,,60,note_on,,66.0,42.0,66.0,352921,1470.5041666666666
9383,9.0,,,,,,,42.0,,,,120,note_on,,0.0,42.0,0.0,353041,1471.0041666666666
9384,9.0,,,,,,,42.0,,,,60,note_on,,66.0,42.0,66.0,353101,1471.2541666666666
9385,9.0,,,,,,,42.0,,,,120,note_on,,0.0,42.0,0.0,353221,1471.7541666666666
9386,9.0,,,,,,,42.0,,,,60,note_on,,66.0,42.0,66.0,353281,1472.0041666666666
9387,9.0,,,,,,,42.0,,,,120,note_on,,0.0,42.0,0.0,353401,1472.5041666666666
9388,9.0,,,,,,,40.0,,,,60,note_on,,66.0,40.0,66.0,353461,1472.7541666666666
9389,9.0,,,,,,,40.0,,,,60,note_on,,0.0,40.0,0.0,353521,1473.0041666666666
9390,9.0,,,,,,,40.0,,,,0,note_on,,66.0,40.0,66.0,353521,1473.0041666666666
9391,9.0,,,,,,,40.0,,,,60,note_on,,0.0,40.0,0.0,353581,1473.2541666666666
9392,9.0,,,,,,,40.0,,,,0,note_on,,66.0,40.0,66.0,353581,1473.2541666666666
9393,9.0,,,,,,,40.0,,,,60,note_on,,0.0,40.0,0.0,353641,1473.5041666666666
9394,9.0,,,,,,,42.0,,,,0,note_on,,66.0,42.0,66.0,353641,1473.5041666666666
9395,9.0,,,,,,,49.0,,,,0,note_on,,66.0,49.0,66.0,353641,1473.5041666666666
9396,9.0,,,,,,,36.0,,,,0,note_on,,66.0,36.0,66.0,353641,1473.5041666666666
9397,9.0,,,,,,,36.0,,,,120,note_on,,0.0,36.0,0.0,353761,1474.0041666666666
9398,9.0,,,,,,,49.0,,,,0,note_on,,0.0,49.0,0.0,353761,1474.0041666666666
9399,9.0,,,,,,,42.0,,,,0,note_on,,0.0,42.0,0.0,353761,1474.0041666666666
9400,9.0,,,,,,,42.0,,,,60,note_on,,66.0,42.0,66.0,353821,1474.2541666666666
9401,9.0,,,,,,,40.0,,,,0,note_on,,66.0,40.0,66.0,353821,1474.2541666666666
9402,9.0,,,,,,,40.0,,,,120,note_on,,0.0,40.0,0.0,353941,1474.7541666666666
9403,9.0,,,,,,,42.0,,,,0,note_on,,0.0,42.0,0.0,353941,1474.7541666666666
9404,9.0,,,,,,,42.0,,,,60,note_on,,66.0,42.0,66.0,354001,1475.0041666666666
9405,9.0,,,,,,,36.0,,,,0,note_on,,66.0,36.0,66.0,354001,1475.0041666666666
9406,9.0,,,,,,,36.0,,,,120,note_on,,0.0,36.0,0.0,354121,1475.5041666666666
9407,9.0,,,,,,,42.0,,,,0,note_on,,0.0,42.0,0.0,354121,1475.5041666666666
9408,9.0,,,,,,,42.0,,,,60,note_on,,66.0,42.0,66.0,354181,1475.7541666666666
9409,9.0,,,,,,,40.0,,,,0,note_on,,66.0,40.0,66.0,354181,1475.7541666666666
9410,9.0,,,,,,,40.0,,,,120,note_on,,0.0,40.0,0.0,354301,1476.2541666666666
9411,9.0,,,,,,,42.0,,,,0,note_on,,0.0,42.0,0.0,354301,1476.2541666666666
9412,9.0,,,,,,,42.0,,,,60,note_on,,66.0,42.0,66.0,354361,1476.5041666666666
9413,9.0,,,,,,,36.0,,,,0,note_on,,66.0,36.0,66.0,354361,1476.5041666666666
9414,9.0,,,,,,,36.0,,,,120,note_on,,0.0,36.0,0.0,354481,1477.0041666666666
9415,9.0,,,,,,,42.0,,,,0,note_on,,0.0,42.0,0.0,354481,1477.0041666666666
9416,9.0,,,,,,,42.0,,,,60,note_on,,66.0,42.0,66.0,354541,1477.2541666666666
9417,9.0,,,,,,,40.0,,,,0,note_on,,66.0,40.0,66.0,354541,1477.2541666666666
9418,9.0,,,,,,,40.0,,,,120,note_on,,0.0,40.0,0.0,354661,1477.7541666666666
9419,9.0,,,,,,,42.0,,,,0,note_on,,0.0,42.0,0.0,354661,1477.7541666666666
9420,9.0,,,,,,,42.0,,,,60,note_on,,66.0,42.0,66.0,354721,1478.0041666666666
9421,9.0,,,,,,,36.0,,,,0,note_on,,66.0,36.0,66.0,354721,1478.0041666666666
9422,9.0,,,,,,,36.0,,,,120,note_on,,0.0,36.0,0.0,354841,1478.5041666666666
9423,9.0,,,,,,,42.0,,,,0,note_on,,0.0,42.0,0.0,354841,1478.5041666666666
9424,9.0,,,,,,,42.0,,,,60,note_on,,66.0,42.0,66.0,354901,1478.7541666666666
9425,9.0,,,,,,,40.0,,,,0,note_on,,66.0,40.0,66.0,354901,1478.7541666666666
9426,9.0,,,,,,,40.0,,,,120,note_on,,0.0,40.0,0.0,355021,1479.2541666666666
9427,9.0,,,,,,,42.0,,,,0,note_on,,0.0,42.0,0.0,355021,1479.2541666666666
9428,9.0,,,,,,,42.0,,,,60,note_on,,66.0,42.0,66.0,355081,1479.5041666666666
9429,9.0,,,,,,,36.0,,,,0,note_on,,66.0,36.0,66.0,355081,1479.5041666666666
9430,9.0,,,,,,,36.0,,,,120,note_on,,0.0,36.0,0.0,355201,1480.0041666666666
9431,9.0,,,,,,,42.0,,,,0,note_on,,0.0,42.0,0.0,355201,1480.0041666666666
9432,9.0,,,,,,,42.0,,,,60,note_on,,66.0,42.0,66.0,355261,1480.2541666666666
9433,9.0,,,,,,,40.0,,,,0,note_on,,66.0,40.0,66.0,355261,1480.2541666666666
9434,9.0,,,,,,,40.0,,,,120,note_on,,0.0,40.0,0.0,355381,1480.7541666666666
9435,9.0,,,,,,,42.0,,,,0,note_on,,0.0,42.0,0.0,355381,1480.7541666666666
9436,9.0,,,,,,,42.0,,,,60,note_on,,66.0,42.0,66.0,355441,1481.0041666666666
9437,9.0,,,,,,,36.0,,,,0,note_on,,66.0,36.0,66.0,355441,1481.0041666666666
9438,9.0,,,,,,,36.0,,,,120,note_on,,0.0,36.0,0.0,355561,1481.5041666666666
9439,9.0,,,,,,,42.0,,,,0,note_on,,0.0,42.0,0.0,355561,1481.5041666666666
9440,9.0,,,,,,,42.0,,,,60,note_on,,66.0,42.0,66.0,355621,1481.7541666666666
9441,9.0,,,,,,,40.0,,,,0,note_on,,66.0,40.0,66.0,355621,1481.7541666666666
9442,9.0,,,,,,,40.0,,,,120,note_on,,0.0,40.0,0.0,355741,1482.2541666666666
9443,9.0,,,,,,,42.0,,,,0,note_on,,0.0,42.0,0.0,355741,1482.2541666666666
9444,9.0,,,,,,,42.0,,,,60,note_on,,66.0,42.0,66.0,355801,1482.5041666666666
9445,9.0,,,,,,,36.0,,,,0,note_on,,66.0,36.0,66.0,355801,1482.5041666666666
9446,9.0,,,,,,,36.0,,,,120,note_on,,0.0,36.0,0.0,355921,1483.0041666666666
9447,9.0,,,,,,,42.0,,,,0,note_on,,0.0,42.0,0.0,355921,1483.0041666666666
9448,9.0,,,,,,,40.0,,,,60,note_on,,66.0,40.0,66.0,355981,1483.2541666666666
9449,9.0,,,,,,,42.0,,,,0,note_on,,66.0,42.0,66.0,355981,1483.2541666666666
9450,9.0,,,,,,,42.0,,,,120,note_on,,0.0,42.0,0.0,356101,1483.7541666666666
9451,9.0,,,,,,,40.0,,,,0,note_on,,0.0,40.0,0.0,356101,1483.7541666666666
9452,9.0,,,,,,,42.0,,,,60,note_on,,66.0,42.0,66.0,356161,1484.0041666666666
9453,9.0,,,,,,,36.0,,,,0,note_on,,66.0,36.0,66.0,356161,1484.0041666666666
9454,9.0,,,,,,,36.0,,,,120,note_on,,0.0,36.0,0.0,356281,1484.5041666666666
9455,9.0,,,,,,,42.0,,,,0,note_on,,0.0,42.0,0.0,356281,1484.5041666666666
9456,9.0,,,,,,,42.0,,,,60,note_on,,66.0,42.0,66.0,356341,1484.7541666666666
9457,9.0,,,,,,,40.0,,,,0,note_on,,66.0,40.0,66.0,356341,1484.7541666666666
9458,9.0,,,,,,,40.0,,,,60,note_on,,0.0,40.0,0.0,356401,1485.0041666666666
9459,9.0,,,,,,,42.0,,,,0,note_on,,0.0,42.0,0.0,356401,1485.0041666666666
9460,9.0,,,,,,,42.0,,,,0,note_on,,66.0,42.0,66.0,356401,1485.0041666666666
9461,9.0,,,,,,,40.0,,,,0,note_on,,66.0,40.0,66.0,356401,1485.0041666666666
9462,9.0,,,,,,,40.0,,,,60,note_on,,0.0,40.0,0.0,356461,1485.2541666666666
9463,9.0,,,,,,,42.0,,,,0,note_on,,0.0,42.0,0.0,356461,1485.2541666666666
9464,9.0,,,,,,,42.0,,,,0,note_on,,66.0,42.0,66.0,356461,1485.2541666666666
9465,9.0,,,,,,,40.0,,,,0,note_on,,66.0,40.0,66.0,356461,1485.2541666666666
9466,9.0,,,,,,,40.0,,,,60,note_on,,0.0,40.0,0.0,356521,1485.5041666666666
9467,9.0,,,,,,,42.0,,,,0,note_on,,0.0,42.0,0.0,356521,1485.5041666666666
9468,9.0,,,,,,,49.0,,,,0,note_on,,62.0,49.0,62.0,356521,1485.5041666666666
9469,9.0,,,,,,,54.0,,,,0,note_on,,50.0,54.0,50.0,356521,1485.5041666666666
9470,9.0,,,,,,,42.0,,,,0,note_on,,66.0,42.0,66.0,356521,1485.5041666666666
9471,9.0,,,,,,,36.0,,,,0,note_on,,66.0,36.0,66.0,356521,1485.5041666666666
9472,9.0,,,,,,,54.0,,,,60,note_on,,0.0,54.0,0.0,356581,1485.7541666666666
9473,9.0,,,,,,,49.0,,,,60,note_on,,0.0,49.0,0.0,356641,1486.0041666666666
9474,9.0,,,,,,,42.0,,,,0,note_on,,0.0,42.0,0.0,356641,1486.0041666666666
9475,9.0,,,,,,,36.0,,,,0,note_on,,0.0,36.0,0.0,356641,1486.0041666666666
9476,9.0,,,,,,,54.0,,,,0,note_on,,50.0,54.0,50.0,356641,1486.0041666666666
9477,9.0,,,,,,,54.0,,,,56,note_on,,0.0,54.0,0.0,356697,1486.2375
9478,9.0,,,,,,,54.0,,,,4,note_on,,50.0,54.0,50.0,356701,1486.2541666666666
9479,9.0,,,,,,,42.0,,,,0,note_on,,66.0,42.0,66.0,356701,1486.2541666666666
9480,9.0,,,,,,,40.0,,,,0,note_on,,66.0,40.0,66.0,356701,1486.2541666666666
9481,9.0,,,,,,,54.0,,,,60,note_on,,0.0,54.0,0.0,356761,1486.5041666666666
9482,9.0,,,,,,,40.0,,,,60,note_on,,0.0,40.0,0.0,356821,1486.7541666666666
9483,9.0,,,,,,,42.0,,,,0,note_on,,0.0,42.0,0.0,356821,1486.7541666666666
9484,9.0,,,,,,,54.0,,,,0,note_on,,50.0,54.0,50.0,356821,1486.7541666666666
9485,9.0,,,,,,,54.0,,,,57,note_on,,0.0,54.0,0.0,356878,1486.9916666666666
9486,9.0,,,,,,,54.0,,,,3,note_on,,50.0,54.0,50.0,356881,1487.0041666666666
9487,9.0,,,,,,,42.0,,,,0,note_on,,66.0,42.0,66.0,356881,1487.0041666666666
9488,9.0,,,,,,,36.0,,,,0,note_on,,66.0,36.0,66.0,356881,1487.0041666666666
9489,9.0,,,,,,,54.0,,,,60,note_on,,0.0,54.0,0.0,356941,1487.2541666666666
9490,9.0,,,,,,,36.0,,,,60,note_on,,0.0,36.0,0.0,357001,1487.5041666666666
9491,9.0,,,,,,,42.0,,,,0,note_on,,0.0,42.0,0.0,357001,1487.5041666666666
9492,9.0,,,,,,,54.0,,,,0,note_on,,50.0,54.0,50.0,357001,1487.5041666666666
9493,9.0,,,,,,,54.0,,,,56,note_on,,0.0,54.0,0.0,357057,1487.7375
9494,9.0,,,,,,,54.0,,,,4,note_on,,50.0,54.0,50.0,357061,1487.7541666666666
9495,9.0,,,,,,,42.0,,,,0,note_on,,66.0,42.0,66.0,357061,1487.7541666666666
9496,9.0,,,,,,,40.0,,,,0,note_on,,66.0,40.0,66.0,357061,1487.7541666666666
9497,9.0,,,,,,,54.0,,,,60,note_on,,0.0,54.0,0.0,357121,1488.0041666666666
9498,9.0,,,,,,,40.0,,,,60,note_on,,0.0,40.0,0.0,357181,1488.2541666666666
9499,9.0,,,,,,,42.0,,,,0,note_on,,0.0,42.0,0.0,357181,1488.2541666666666
9500,9.0,,,,,,,54.0,,,,0,note_on,,50.0,54.0,50.0,357181,1488.2541666666666
9501,9.0,,,,,,,54.0,,,,57,note_on,,0.0,54.0,0.0,357238,1488.4916666666666
9502,9.0,,,,,,,54.0,,,,3,note_on,,50.0,54.0,50.0,357241,1488.5041666666666
9503,9.0,,,,,,,42.0,,,,0,note_on,,66.0,42.0,66.0,357241,1488.5041666666666
9504,9.0,,,,,,,36.0,,,,0,note_on,,66.0,36.0,66.0,357241,1488.5041666666666
9505,9.0,,,,,,,54.0,,,,60,note_on,,0.0,54.0,0.0,357301,1488.7541666666666
9506,9.0,,,,,,,36.0,,,,60,note_on,,0.0,36.0,0.0,357361,1489.0041666666666
9507,9.0,,,,,,,42.0,,,,0,note_on,,0.0,42.0,0.0,357361,1489.0041666666666
9508,9.0,,,,,,,54.0,,,,0,note_on,,50.0,54.0,50.0,357361,1489.0041666666666
9509,9.0,,,,,,,54.0,,,,56,note_on,,0.0,54.0,0.0,357417,1489.2375
9510,9.0,,,,,,,54.0,,,,4,note_on,,50.0,54.0,50.0,357421,1489.2541666666666
9511,9.0,,,,,,,42.0,,,,0,note_on,,66.0,42.0,66.0,357421,1489.2541666666666
9512,9.0,,,,,,,40.0,,,,0,note_on,,66.0,40.0,66.0,357421,1489.2541666666666
9513,9.0,,,,,,,54.0,,,,60,note_on,,0.0,54.0,0.0,357481,1489.5041666666666
9514,9.0,,,,,,,40.0,,,,60,note_on,,0.0,40.0,0.0,357541,1489.7541666666666
9515,9.0,,,,,,,42.0,,,,0,note_on,,0.0,42.0,0.0,357541,1489.7541666666666
9516,9.0,,,,,,,54.0,,,,0,note_on,,50.0,54.0,50.0,357541,1489.7541666666666
9517,9.0,,,,,,,54.0,,,,57,note_on,,0.0,54.0,0.0,357598,1489.9916666666666
9518,9.0,,,,,,,54.0,,,,3,note_on,,50.0,54.0,50.0,357601,1490.0041666666666
9519,9.0,,,,,,,42.0,,,,0,note_on,,66.0,42.0,66.0,357601,1490.0041666666666
9520,9.0,,,,,,,36.0,,,,0,note_on,,66.0,36.0,66.0,357601,1490.0041666666666
9521,9.0,,,,,,,54.0,,,,60,note_on,,0.0,54.0,0.0,357661,1490.2541666666666
9522,9.0,,,,,,,36.0,,,,60,note_on,,0.0,36.0,0.0,357721,1490.5041666666666
9523,9.0,,,,,,,42.0,,,,0,note_on,,0.0,42.0,0.0,357721,1490.5041666666666
9524,9.0,,,,,,,54.0,,,,0,note_on,,50.0,54.0,50.0,357721,1490.5041666666666
9525,9.0,,,,,,,54.0,,,,56,note_on,,0.0,54.0,0.0,357777,1490.7375
9526,9.0,,,,,,,54.0,,,,4,note_on,,50.0,54.0,50.0,357781,1490.7541666666666
9527,9.0,,,,,,,42.0,,,,0,note_on,,66.0,42.0,66.0,357781,1490.7541666666666
9528,9.0,,,,,,,40.0,,,,0,note_on,,66.0,40.0,66.0,357781,1490.7541666666666
9529,9.0,,,,,,,54.0,,,,60,note_on,,0.0,54.0,0.0,357841,1491.0041666666666
9530,9.0,,,,,,,40.0,,,,60,note_on,,0.0,40.0,0.0,357901,1491.2541666666666
9531,9.0,,,,,,,42.0,,,,0,note_on,,0.0,42.0,0.0,357901,1491.2541666666666
9532,9.0,,,,,,,54.0,,,,0,note_on,,50.0,54.0,50.0,357901,1491.2541666666666
9533,9.0,,,,,,,54.0,,,,57,note_on,,0.0,54.0,0.0,357958,1491.4916666666666
9534,9.0,,,,,,,54.0,,,,3,note_on,,50.0,54.0,50.0,357961,1491.5041666666666
9535,9.0,,,,,,,42.0,,,,0,note_on,,66.0,42.0,66.0,357961,1491.5041666666666
9536,9.0,,,,,,,36.0,,,,0,note_on,,66.0,36.0,66.0,357961,1491.5041666666666
9537,9.0,,,,,,,54.0,,,,60,note_on,,0.0,54.0,0.0,358021,1491.7541666666666
9538,9.0,,,,,,,36.0,,,,60,note_on,,0.0,36.0,0.0,358081,1492.0041666666666
9539,9.0,,,,,,,42.0,,,,0,note_on,,0.0,42.0,0.0,358081,1492.0041666666666
9540,9.0,,,,,,,54.0,,,,0,note_on,,50.0,54.0,50.0,358081,1492.0041666666666
9541,9.0,,,,,,,54.0,,,,56,note_on,,0.0,54.0,0.0,358137,1492.2375
9542,9.0,,,,,,,54.0,,,,4,note_on,,50.0,54.0,50.0,358141,1492.2541666666666
9543,9.0,,,,,,,42.0,,,,0,note_on,,66.0,42.0,66.0,358141,1492.2541666666666
9544,9.0,,,,,,,40.0,,,,0,note_on,,66.0,40.0,66.0,358141,1492.2541666666666
9545,9.0,,,,,,,54.0,,,,60,note_on,,0.0,54.0,0.0,358201,1492.5041666666666
9546,9.0,,,,,,,40.0,,,,60,note_on,,0.0,40.0,0.0,358261,1492.7541666666666
9547,9.0,,,,,,,42.0,,,,0,note_on,,0.0,42.0,0.0,358261,1492.7541666666666
9548,9.0,,,,,,,54.0,,,,0,note_on,,50.0,54.0,50.0,358261,1492.7541666666666
9549,9.0,,,,,,,54.0,,,,57,note_on,,0.0,54.0,0.0,358318,1492.9916666666666
9550,9.0,,,,,,,54.0,,,,3,note_on,,50.0,54.0,50.0,358321,1493.0041666666666
9551,9.0,,,,,,,42.0,,,,0,note_on,,66.0,42.0,66.0,358321,1493.0041666666666
9552,9.0,,,,,,,36.0,,,,0,note_on,,66.0,36.0,66.0,358321,1493.0041666666666
9553,9.0,,,,,,,54.0,,,,60,note_on,,0.0,54.0,0.0,358381,1493.2541666666666
9554,9.0,,,,,,,36.0,,,,60,note_on,,0.0,36.0,0.0,358441,1493.5041666666666
9555,9.0,,,,,,,42.0,,,,0,note_on,,0.0,42.0,0.0,358441,1493.5041666666666
9556,9.0,,,,,,,54.0,,,,0,note_on,,50.0,54.0,50.0,358441,1493.5041666666666
9557,9.0,,,,,,,54.0,,,,56,note_on,,0.0,54.0,0.0,358497,1493.7375
9558,9.0,,,,,,,54.0,,,,4,note_on,,50.0,54.0,50.0,358501,1493.7541666666666
9559,9.0,,,,,,,42.0,,,,0,note_on,,66.0,42.0,66.0,358501,1493.7541666666666
9560,9.0,,,,,,,40.0,,,,0,note_on,,66.0,40.0,66.0,358501,1493.7541666666666
9561,9.0,,,,,,,54.0,,,,60,note_on,,0.0,54.0,0.0,358561,1494.0041666666666
9562,9.0,,,,,,,40.0,,,,60,note_on,,0.0,40.0,0.0,358621,1494.2541666666666
9563,9.0,,,,,,,42.0,,,,0,note_on,,0.0,42.0,0.0,358621,1494.2541666666666
9564,9.0,,,,,,,54.0,,,,0,note_on,,50.0,54.0,50.0,358621,1494.2541666666666
9565,9.0,,,,,,,54.0,,,,57,note_on,,0.0,54.0,0.0,358678,1494.4916666666666
9566,9.0,,,,,,,54.0,,,,3,note_on,,50.0,54.0,50.0,358681,1494.5041666666666
9567,9.0,,,,,,,42.0,,,,0,note_on,,66.0,42.0,66.0,358681,1494.5041666666666
9568,9.0,,,,,,,36.0,,,,0,note_on,,66.0,36.0,66.0,358681,1494.5041666666666
9569,9.0,,,,,,,54.0,,,,60,note_on,,0.0,54.0,0.0,358741,1494.7541666666666
9570,9.0,,,,,,,54.0,,,,0,note_on,,50.0,54.0,50.0,358741,1494.7541666666666
9571,9.0,,,,,,,54.0,,,,56,note_on,,0.0,54.0,0.0,358797,1494.9875
9572,9.0,,,,,,,36.0,,,,4,note_on,,0.0,36.0,0.0,358801,1495.0041666666666
9573,9.0,,,,,,,42.0,,,,0,note_on,,0.0,42.0,0.0,358801,1495.0041666666666
9574,9.0,,,,,,,54.0,,,,0,note_on,,50.0,54.0,50.0,358801,1495.0041666666666
9575,9.0,,,,,,,54.0,,,,56,note_on,,0.0,54.0,0.0,358857,1495.2375
9576,9.0,,,,,,,54.0,,,,4,note_on,,50.0,54.0,50.0,358861,1495.2541666666666
9577,9.0,,,,,,,42.0,,,,0,note_on,,66.0,42.0,66.0,358861,1495.2541666666666
9578,9.0,,,,,,,40.0,,,,0,note_on,,66.0,40.0,66.0,358861,1495.2541666666666
9579,9.0,,,,,,,54.0,,,,60,note_on,,0.0,54.0,0.0,358921,1495.5041666666666
9580,9.0,,,,,,,54.0,,,,0,note_on,,50.0,54.0,50.0,358921,1495.5041666666666
9581,9.0,,,,,,,54.0,,,,56,note_on,,0.0,54.0,0.0,358977,1495.7375
9582,9.0,,,,,,,40.0,,,,4,note_on,,0.0,40.0,0.0,358981,1495.7541666666666
9583,9.0,,,,,,,42.0,,,,0,note_on,,0.0,42.0,0.0,358981,1495.7541666666666
9584,9.0,,,,,,,54.0,,,,0,note_on,,50.0,54.0,50.0,358981,1495.7541666666666
9585,9.0,,,,,,,54.0,,,,57,note_on,,0.0,54.0,0.0,359038,1495.9916666666666
9586,9.0,,,,,,,54.0,,,,3,note_on,,50.0,54.0,50.0,359041,1496.0041666666666
9587,9.0,,,,,,,42.0,,,,0,note_on,,66.0,42.0,66.0,359041,1496.0041666666666
9588,9.0,,,,,,,36.0,,,,0,note_on,,66.0,36.0,66.0,359041,1496.0041666666666
9589,9.0,,,,,,,54.0,,,,60,note_on,,0.0,54.0,0.0,359101,1496.2541666666666
9590,9.0,,,,,,,54.0,,,,0,note_on,,50.0,54.0,50.0,359101,1496.2541666666666
9591,9.0,,,,,,,54.0,,,,56,note_on,,0.0,54.0,0.0,359157,1496.4875
9592,9.0,,,,,,,36.0,,,,4,note_on,,0.0,36.0,0.0,359161,1496.5041666666666
9593,9.0,,,,,,,42.0,,,,0,note_on,,0.0,42.0,0.0,359161,1496.5041666666666
9594,9.0,,,,,,,54.0,,,,0,note_on,,50.0,54.0,50.0,359161,1496.5041666666666
9595,9.0,,,,,,,54.0,,,,56,note_on,,0.0,54.0,0.0,359217,1496.7375
9596,9.0,,,,,,,54.0,,,,4,note_on,,50.0,54.0,50.0,359221,1496.7541666666666
9597,9.0,,,,,,,42.0,,,,0,note_on,,66.0,42.0,66.0,359221,1496.7541666666666
9598,9.0,,,,,,,40.0,,,,0,note_on,,66.0,40.0,66.0,359221,1496.7541666666666
9599,9.0,,,,,,,54.0,,,,60,note_on,,0.0,54.0,0.0,359281,1497.0041666666666
9600,9.0,,,,,,,54.0,,,,0,note_on,,50.0,54.0,50.0,359281,1497.0041666666666
9601,9.0,,,,,,,54.0,,,,56,note_on,,0.0,54.0,0.0,359337,1497.2375
9602,9.0,,,,,,,40.0,,,,4,note_on,,0.0,40.0,0.0,359341,1497.2541666666666
9603,9.0,,,,,,,42.0,,,,0,note_on,,0.0,42.0,0.0,359341,1497.2541666666666
9604,9.0,,,,,,,54.0,,,,0,note_on,,50.0,54.0,50.0,359341,1497.2541666666666
9605,9.0,,,,,,,54.0,,,,57,note_on,,0.0,54.0,0.0,359398,1497.4916666666666
9606,9.0,,,,,,,49.0,,,,3,note_on,,50.0,49.0,50.0,359401,1497.5041666666666
9607,9.0,,,,,,,54.0,,,,0,note_on,,50.0,54.0,50.0,359401,1497.5041666666666
9608,9.0,,,,,,,42.0,,,,0,note_on,,66.0,42.0,66.0,359401,1497.5041666666666
9609,9.0,,,,,,,36.0,,,,0,note_on,,66.0,36.0,66.0,359401,1497.5041666666666
9610,9.0,,,,,,,49.0,,,,57,note_on,,0.0,49.0,0.0,359458,1497.7416666666666
9611,9.0,,,,,,,54.0,,,,3,note_on,,0.0,54.0,0.0,359461,1497.7541666666666
9612,9.0,,,,,,,42.0,,,,60,note_on,,0.0,42.0,0.0,359521,1498.0041666666666
9613,9.0,,,,,,,36.0,,,,0,note_on,,0.0,36.0,0.0,359521,1498.0041666666666
9614,9.0,,,,,,,42.0,,,,60,note_on,,66.0,42.0,66.0,359581,1498.2541666666666
9615,9.0,,,,,,,42.0,,,,120,note_on,,0.0,42.0,0.0,359701,1498.7541666666666
9616,9.0,,,,,,,42.0,,,,60,note_on,,66.0,42.0,66.0,359761,1499.0041666666666
9617,9.0,,,,,,,42.0,,,,120,note_on,,0.0,42.0,0.0,359881,1499.5041666666666
9618,9.0,,,,,,,42.0,,,,60,note_on,,66.0,42.0,66.0,359941,1499.7541666666666
9619,9.0,,,,,,,42.0,,,,120,note_on,,0.0,42.0,0.0,360061,1500.2541666666666
9620,9.0,,,,,,,42.0,,,,60,note_on,,66.0,42.0,66.0,360121,1500.5041666666666
9621,9.0,,,,,,,42.0,,,,120,note_on,,0.0,42.0,0.0,360241,1501.0041666666666
9622,9.0,,,,,,,42.0,,,,60,note_on,,76.0,42.0,76.0,360301,1501.2541666666666
9623,9.0,,,,,,,42.0,,,,57,note_on,,0.0,42.0,0.0,360358,1501.4916666666666
9624,9.0,,,,,,,42.0,,,,3,note_on,,77.0,42.0,77.0,360361,1501.5041666666666
9625,9.0,,,,,,,42.0,,,,57,note_on,,0.0,42.0,0.0,360418,1501.7416666666666
9626,9.0,,,,,,,42.0,,,,3,note_on,,79.0,42.0,79.0,360421,1501.7541666666666
9627,9.0,,,,,,,42.0,,,,57,note_on,,0.0,42.0,0.0,360478,1501.9916666666666
9628,9.0,,,,,,,42.0,,,,3,note_on,,66.0,42.0,66.0,360481,1502.0041666666666
9629,9.0,,,,,,,42.0,,,,120,note_on,,0.0,42.0,0.0,360601,1502.5041666666666
9630,9.0,,,,,,,42.0,,,,60,note_on,,66.0,42.0,66.0,360661,1502.7541666666666
9631,9.0,,,,,,,42.0,,,,120,note_on,,0.0,42.0,0.0,360781,1503.2541666666666
9632,9.0,,,,,,,42.0,,,,60,note_on,,66.0,42.0,66.0,360841,1503.5041666666666
9633,9.0,,,,,,,42.0,,,,120,note_on,,0.0,42.0,0.0,360961,1504.0041666666666
9634,9.0,,,,,,,42.0,,,,60,note_on,,66.0,42.0,66.0,361021,1504.2541666666666
9635,9.0,,,,,,,42.0,,,,120,note_on,,0.0,42.0,0.0,361141,1504.7541666666666
9636,9.0,,,,,,,42.0,,,,60,note_on,,66.0,42.0,66.0,361201,1505.0041666666666
9637,9.0,,,,,,,42.0,,,,120,note_on,,0.0,42.0,0.0,361321,1505.5041666666666
9638,9.0,,,,,,,42.0,,,,60,note_on,,66.0,42.0,66.0,361381,1505.7541666666666
9639,9.0,,,,,,,42.0,,,,120,note_on,,0.0,42.0,0.0,361501,1506.2541666666666
9640,9.0,,,,,,,42.0,,,,60,note_on,,66.0,42.0,66.0,361561,1506.5041666666666
9641,9.0,,,,,,,42.0,,,,120,note_on,,0.0,42.0,0.0,361681,1507.0041666666666
9642,9.0,,,,,,,42.0,,,,60,note_on,,66.0,42.0,66.0,361741,1507.2541666666666
9643,9.0,,,,,,,42.0,,,,120,note_on,,0.0,42.0,0.0,361861,1507.7541666666666
9644,9.0,,,,,,,42.0,,,,60,note_on,,66.0,42.0,66.0,361921,1508.0041666666666
9645,9.0,,,,,,,42.0,,,,120,note_on,,0.0,42.0,0.0,362041,1508.5041666666666
9646,9.0,,,,,,,42.0,,,,60,note_on,,66.0,42.0,66.0,362101,1508.7541666666666
9647,9.0,,,,,,,42.0,,,,120,note_on,,0.0,42.0,0.0,362221,1509.2541666666666
9648,9.0,,,,,,,42.0,,,,60,note_on,,66.0,42.0,66.0,362281,1509.5041666666666
9649,9.0,,,,,,,42.0,,,,120,note_on,,0.0,42.0,0.0,362401,1510.0041666666666
9650,9.0,,,,,,,42.0,,,,60,note_on,,66.0,42.0,66.0,362461,1510.2541666666666
9651,9.0,,,,,,,42.0,,,,120,note_on,,0.0,42.0,0.0,362581,1510.7541666666666
9652,9.0,,,,,,,42.0,,,,60,note_on,,66.0,42.0,66.0,362641,1511.0041666666666
9653,9.0,,,,,,,42.0,,,,120,note_on,,0.0,42.0,0.0,362761,1511.5041666666666
9654,9.0,,,,,,,42.0,,,,60,note_on,,66.0,42.0,66.0,362821,1511.7541666666666
9655,9.0,,,,,,,42.0,,,,120,note_on,,0.0,42.0,0.0,362941,1512.2541666666666
9656,9.0,,,,,,,42.0,,,,60,note_on,,66.0,42.0,66.0,363001,1512.5041666666666
9657,9.0,,,,,,,42.0,,,,120,note_on,,0.0,42.0,0.0,363121,1513.0041666666666
9658,9.0,,,,,,,40.0,,,,60,note_on,,66.0,40.0,66.0,363181,1513.2541666666666
9659,9.0,,,,,,,40.0,,,,60,note_on,,0.0,40.0,0.0,363241,1513.5041666666666
9660,9.0,,,,,,,40.0,,,,0,note_on,,66.0,40.0,66.0,363241,1513.5041666666666
9661,9.0,,,,,,,40.0,,,,60,note_on,,0.0,40.0,0.0,363301,1513.7541666666666
9662,9.0,,,,,,,40.0,,,,0,note_on,,66.0,40.0,66.0,363301,1513.7541666666666
9663,9.0,,,,,,,40.0,,,,60,note_on,,0.0,40.0,0.0,363361,1514.0041666666666
9664,9.0,,,,,,,42.0,,,,0,note_on,,66.0,42.0,66.0,363361,1514.0041666666666
9665,9.0,,,,,,,49.0,,,,0,note_on,,66.0,49.0,66.0,363361,1514.0041666666666
9666,9.0,,,,,,,36.0,,,,0,note_on,,66.0,36.0,66.0,363361,1514.0041666666666
9667,9.0,,,,,,,36.0,,,,120,note_on,,0.0,36.0,0.0,363481,1514.5041666666666
9668,9.0,,,,,,,49.0,,,,0,note_on,,0.0,49.0,0.0,363481,1514.5041666666666
9669,9.0,,,,,,,42.0,,,,0,note_on,,0.0,42.0,0.0,363481,1514.5041666666666
9670,9.0,,,,,,,42.0,,,,60,note_on,,66.0,42.0,66.0,363541,1514.7541666666666
9671,9.0,,,,,,,40.0,,,,0,note_on,,66.0,40.0,66.0,363541,1514.7541666666666
9672,9.0,,,,,,,40.0,,,,120,note_on,,0.0,40.0,0.0,363661,1515.2541666666666
9673,9.0,,,,,,,42.0,,,,0,note_on,,0.0,42.0,0.0,363661,1515.2541666666666
9674,9.0,,,,,,,42.0,,,,60,note_on,,66.0,42.0,66.0,363721,1515.5041666666666
9675,9.0,,,,,,,36.0,,,,0,note_on,,66.0,36.0,66.0,363721,1515.5041666666666
9676,9.0,,,,,,,36.0,,,,120,note_on,,0.0,36.0,0.0,363841,1516.0041666666666
9677,9.0,,,,,,,42.0,,,,0,note_on,,0.0,42.0,0.0,363841,1516.0041666666666
9678,9.0,,,,,,,42.0,,,,60,note_on,,66.0,42.0,66.0,363901,1516.2541666666666
9679,9.0,,,,,,,40.0,,,,0,note_on,,66.0,40.0,66.0,363901,1516.2541666666666
9680,9.0,,,,,,,40.0,,,,120,note_on,,0.0,40.0,0.0,364021,1516.7541666666666
9681,9.0,,,,,,,42.0,,,,0,note_on,,0.0,42.0,0.0,364021,1516.7541666666666
9682,9.0,,,,,,,42.0,,,,60,note_on,,66.0,42.0,66.0,364081,1517.0041666666666
9683,9.0,,,,,,,36.0,,,,0,note_on,,66.0,36.0,66.0,364081,1517.0041666666666
9684,9.0,,,,,,,36.0,,,,120,note_on,,0.0,36.0,0.0,364201,1517.5041666666666
9685,9.0,,,,,,,42.0,,,,0,note_on,,0.0,42.0,0.0,364201,1517.5041666666666
9686,9.0,,,,,,,42.0,,,,60,note_on,,66.0,42.0,66.0,364261,1517.7541666666666
9687,9.0,,,,,,,40.0,,,,0,note_on,,66.0,40.0,66.0,364261,1517.7541666666666
9688,9.0,,,,,,,40.0,,,,120,note_on,,0.0,40.0,0.0,364381,1518.2541666666666
9689,9.0,,,,,,,42.0,,,,0,note_on,,0.0,42.0,0.0,364381,1518.2541666666666
9690,9.0,,,,,,,42.0,,,,60,note_on,,66.0,42.0,66.0,364441,1518.5041666666666
9691,9.0,,,,,,,36.0,,,,0,note_on,,66.0,36.0,66.0,364441,1518.5041666666666
9692,9.0,,,,,,,36.0,,,,120,note_on,,0.0,36.0,0.0,364561,1519.0041666666666
9693,9.0,,,,,,,42.0,,,,0,note_on,,0.0,42.0,0.0,364561,1519.0041666666666
9694,9.0,,,,,,,42.0,,,,60,note_on,,66.0,42.0,66.0,364621,1519.2541666666666
9695,9.0,,,,,,,40.0,,,,0,note_on,,66.0,40.0,66.0,364621,1519.2541666666666
9696,9.0,,,,,,,40.0,,,,120,note_on,,0.0,40.0,0.0,364741,1519.7541666666666
9697,9.0,,,,,,,42.0,,,,0,note_on,,0.0,42.0,0.0,364741,1519.7541666666666
9698,9.0,,,,,,,42.0,,,,60,note_on,,66.0,42.0,66.0,364801,1520.0041666666666
9699,9.0,,,,,,,36.0,,,,0,note_on,,66.0,36.0,66.0,364801,1520.0041666666666
9700,9.0,,,,,,,36.0,,,,120,note_on,,0.0,36.0,0.0,364921,1520.5041666666666
9701,9.0,,,,,,,42.0,,,,0,note_on,,0.0,42.0,0.0,364921,1520.5041666666666
9702,9.0,,,,,,,42.0,,,,60,note_on,,66.0,42.0,66.0,364981,1520.7541666666666
9703,9.0,,,,,,,40.0,,,,0,note_on,,66.0,40.0,66.0,364981,1520.7541666666666
9704,9.0,,,,,,,40.0,,,,120,note_on,,0.0,40.0,0.0,365101,1521.2541666666666
9705,9.0,,,,,,,42.0,,,,0,note_on,,0.0,42.0,0.0,365101,1521.2541666666666
9706,9.0,,,,,,,42.0,,,,60,note_on,,66.0,42.0,66.0,365161,1521.5041666666666
9707,9.0,,,,,,,36.0,,,,0,note_on,,66.0,36.0,66.0,365161,1521.5041666666666
9708,9.0,,,,,,,36.0,,,,120,note_on,,0.0,36.0,0.0,365281,1522.0041666666666
9709,9.0,,,,,,,42.0,,,,0,note_on,,0.0,42.0,0.0,365281,1522.0041666666666
9710,9.0,,,,,,,42.0,,,,60,note_on,,66.0,42.0,66.0,365341,1522.2541666666666
9711,9.0,,,,,,,40.0,,,,0,note_on,,66.0,40.0,66.0,365341,1522.2541666666666
9712,9.0,,,,,,,40.0,,,,120,note_on,,0.0,40.0,0.0,365461,1522.7541666666666
9713,9.0,,,,,,,42.0,,,,0,note_on,,0.0,42.0,0.0,365461,1522.7541666666666
9714,9.0,,,,,,,42.0,,,,60,note_on,,66.0,42.0,66.0,365521,1523.0041666666666
9715,9.0,,,,,,,36.0,,,,0,note_on,,66.0,36.0,66.0,365521,1523.0041666666666
9716,9.0,,,,,,,36.0,,,,120,note_on,,0.0,36.0,0.0,365641,1523.5041666666666
9717,9.0,,,,,,,42.0,,,,0,note_on,,0.0,42.0,0.0,365641,1523.5041666666666
9718,9.0,,,,,,,40.0,,,,60,note_on,,66.0,40.0,66.0,365701,1523.7541666666666
9719,9.0,,,,,,,42.0,,,,0,note_on,,66.0,42.0,66.0,365701,1523.7541666666666
9720,9.0,,,,,,,42.0,,,,120,note_on,,0.0,42.0,0.0,365821,1524.2541666666666
9721,9.0,,,,,,,40.0,,,,0,note_on,,0.0,40.0,0.0,365821,1524.2541666666666
9722,9.0,,,,,,,42.0,,,,60,note_on,,66.0,42.0,66.0,365881,1524.5041666666666
9723,9.0,,,,,,,36.0,,,,0,note_on,,66.0,36.0,66.0,365881,1524.5041666666666
9724,9.0,,,,,,,36.0,,,,120,note_on,,0.0,36.0,0.0,366001,1525.0041666666666
9725,9.0,,,,,,,42.0,,,,0,note_on,,0.0,42.0,0.0,366001,1525.0041666666666
9726,9.0,,,,,,,42.0,,,,60,note_on,,66.0,42.0,66.0,366061,1525.2541666666666
9727,9.0,,,,,,,40.0,,,,0,note_on,,66.0,40.0,66.0,366061,1525.2541666666666
9728,9.0,,,,,,,40.0,,,,60,note_on,,0.0,40.0,0.0,366121,1525.5041666666666
9729,9.0,,,,,,,42.0,,,,0,note_on,,0.0,42.0,0.0,366121,1525.5041666666666
9730,9.0,,,,,,,42.0,,,,0,note_on,,66.0,42.0,66.0,366121,1525.5041666666666
9731,9.0,,,,,,,40.0,,,,0,note_on,,66.0,40.0,66.0,366121,1525.5041666666666
9732,9.0,,,,,,,40.0,,,,60,note_on,,0.0,40.0,0.0,366181,1525.7541666666666
9733,9.0,,,,,,,42.0,,,,0,note_on,,0.0,42.0,0.0,366181,1525.7541666666666
9734,9.0,,,,,,,42.0,,,,0,note_on,,66.0,42.0,66.0,366181,1525.7541666666666
9735,9.0,,,,,,,40.0,,,,0,note_on,,66.0,40.0,66.0,366181,1525.7541666666666
9736,9.0,,,,,,,40.0,,,,60,note_on,,0.0,40.0,0.0,366241,1526.0041666666666
9737,9.0,,,,,,,42.0,,,,0,note_on,,0.0,42.0,0.0,366241,1526.0041666666666
9738,9.0,,,,,,,49.0,,,,0,note_on,,62.0,49.0,62.0,366241,1526.0041666666666
9739,9.0,,,,,,,54.0,,,,0,note_on,,50.0,54.0,50.0,366241,1526.0041666666666
9740,9.0,,,,,,,42.0,,,,0,note_on,,66.0,42.0,66.0,366241,1526.0041666666666
9741,9.0,,,,,,,36.0,,,,0,note_on,,66.0,36.0,66.0,366241,1526.0041666666666
9742,9.0,,,,,,,54.0,,,,60,note_on,,0.0,54.0,0.0,366301,1526.2541666666666
9743,9.0,,,,,,,49.0,,,,60,note_on,,0.0,49.0,0.0,366361,1526.5041666666666
9744,9.0,,,,,,,42.0,,,,0,note_on,,0.0,42.0,0.0,366361,1526.5041666666666
9745,9.0,,,,,,,36.0,,,,0,note_on,,0.0,36.0,0.0,366361,1526.5041666666666
9746,9.0,,,,,,,54.0,,,,0,note_on,,50.0,54.0,50.0,366361,1526.5041666666666
9747,9.0,,,,,,,54.0,,,,56,note_on,,0.0,54.0,0.0,366417,1526.7375
9748,9.0,,,,,,,54.0,,,,4,note_on,,50.0,54.0,50.0,366421,1526.7541666666666
9749,9.0,,,,,,,42.0,,,,0,note_on,,66.0,42.0,66.0,366421,1526.7541666666666
9750,9.0,,,,,,,40.0,,,,0,note_on,,66.0,40.0,66.0,366421,1526.7541666666666
9751,9.0,,,,,,,54.0,,,,60,note_on,,0.0,54.0,0.0,366481,1527.0041666666666
9752,9.0,,,,,,,40.0,,,,60,note_on,,0.0,40.0,0.0,366541,1527.2541666666666
9753,9.0,,,,,,,42.0,,,,0,note_on,,0.0,42.0,0.0,366541,1527.2541666666666
9754,9.0,,,,,,,54.0,,,,0,note_on,,50.0,54.0,50.0,366541,1527.2541666666666
9755,9.0,,,,,,,54.0,,,,57,note_on,,0.0,54.0,0.0,366598,1527.4916666666666
9756,9.0,,,,,,,54.0,,,,3,note_on,,50.0,54.0,50.0,366601,1527.5041666666666
9757,9.0,,,,,,,42.0,,,,0,note_on,,66.0,42.0,66.0,366601,1527.5041666666666
9758,9.0,,,,,,,36.0,,,,0,note_on,,66.0,36.0,66.0,366601,1527.5041666666666
9759,9.0,,,,,,,54.0,,,,60,note_on,,0.0,54.0,0.0,366661,1527.7541666666666
9760,9.0,,,,,,,36.0,,,,60,note_on,,0.0,36.0,0.0,366721,1528.0041666666666
9761,9.0,,,,,,,42.0,,,,0,note_on,,0.0,42.0,0.0,366721,1528.0041666666666
9762,9.0,,,,,,,54.0,,,,0,note_on,,50.0,54.0,50.0,366721,1528.0041666666666
9763,9.0,,,,,,,54.0,,,,56,note_on,,0.0,54.0,0.0,366777,1528.2375
9764,9.0,,,,,,,54.0,,,,4,note_on,,50.0,54.0,50.0,366781,1528.2541666666666
9765,9.0,,,,,,,42.0,,,,0,note_on,,66.0,42.0,66.0,366781,1528.2541666666666
9766,9.0,,,,,,,40.0,,,,0,note_on,,66.0,40.0,66.0,366781,1528.2541666666666
9767,9.0,,,,,,,54.0,,,,60,note_on,,0.0,54.0,0.0,366841,1528.5041666666666
9768,9.0,,,,,,,40.0,,,,60,note_on,,0.0,40.0,0.0,366901,1528.7541666666666
9769,9.0,,,,,,,42.0,,,,0,note_on,,0.0,42.0,0.0,366901,1528.7541666666666
9770,9.0,,,,,,,54.0,,,,0,note_on,,50.0,54.0,50.0,366901,1528.7541666666666
9771,9.0,,,,,,,54.0,,,,57,note_on,,0.0,54.0,0.0,366958,1528.9916666666666
9772,9.0,,,,,,,54.0,,,,3,note_on,,50.0,54.0,50.0,366961,1529.0041666666666
9773,9.0,,,,,,,42.0,,,,0,note_on,,66.0,42.0,66.0,366961,1529.0041666666666
9774,9.0,,,,,,,36.0,,,,0,note_on,,66.0,36.0,66.0,366961,1529.0041666666666
9775,9.0,,,,,,,54.0,,,,60,note_on,,0.0,54.0,0.0,367021,1529.2541666666666
9776,9.0,,,,,,,36.0,,,,60,note_on,,0.0,36.0,0.0,367081,1529.5041666666666
9777,9.0,,,,,,,42.0,,,,0,note_on,,0.0,42.0,0.0,367081,1529.5041666666666
9778,9.0,,,,,,,54.0,,,,0,note_on,,50.0,54.0,50.0,367081,1529.5041666666666
9779,9.0,,,,,,,54.0,,,,56,note_on,,0.0,54.0,0.0,367137,1529.7375
9780,9.0,,,,,,,54.0,,,,4,note_on,,50.0,54.0,50.0,367141,1529.7541666666666
9781,9.0,,,,,,,42.0,,,,0,note_on,,66.0,42.0,66.0,367141,1529.7541666666666
9782,9.0,,,,,,,40.0,,,,0,note_on,,66.0,40.0,66.0,367141,1529.7541666666666
9783,9.0,,,,,,,54.0,,,,60,note_on,,0.0,54.0,0.0,367201,1530.0041666666666
9784,9.0,,,,,,,40.0,,,,60,note_on,,0.0,40.0,0.0,367261,1530.2541666666666
9785,9.0,,,,,,,42.0,,,,0,note_on,,0.0,42.0,0.0,367261,1530.2541666666666
9786,9.0,,,,,,,54.0,,,,0,note_on,,50.0,54.0,50.0,367261,1530.2541666666666
9787,9.0,,,,,,,54.0,,,,57,note_on,,0.0,54.0,0.0,367318,1530.4916666666666
9788,9.0,,,,,,,54.0,,,,3,note_on,,50.0,54.0,50.0,367321,1530.5041666666666
9789,9.0,,,,,,,42.0,,,,0,note_on,,66.0,42.0,66.0,367321,1530.5041666666666
9790,9.0,,,,,,,36.0,,,,0,note_on,,66.0,36.0,66.0,367321,1530.5041666666666
9791,9.0,,,,,,,54.0,,,,60,note_on,,0.0,54.0,0.0,367381,1530.7541666666666
9792,9.0,,,,,,,36.0,,,,60,note_on,,0.0,36.0,0.0,367441,1531.0041666666666
9793,9.0,,,,,,,42.0,,,,0,note_on,,0.0,42.0,0.0,367441,1531.0041666666666
9794,9.0,,,,,,,54.0,,,,0,note_on,,50.0,54.0,50.0,367441,1531.0041666666666
9795,9.0,,,,,,,54.0,,,,56,note_on,,0.0,54.0,0.0,367497,1531.2375
9796,9.0,,,,,,,54.0,,,,4,note_on,,50.0,54.0,50.0,367501,1531.2541666666666
9797,9.0,,,,,,,42.0,,,,0,note_on,,66.0,42.0,66.0,367501,1531.2541666666666
9798,9.0,,,,,,,40.0,,,,0,note_on,,66.0,40.0,66.0,367501,1531.2541666666666
9799,9.0,,,,,,,54.0,,,,60,note_on,,0.0,54.0,0.0,367561,1531.5041666666666
9800,9.0,,,,,,,40.0,,,,60,note_on,,0.0,40.0,0.0,367621,1531.7541666666666
9801,9.0,,,,,,,42.0,,,,0,note_on,,0.0,42.0,0.0,367621,1531.7541666666666
9802,9.0,,,,,,,54.0,,,,0,note_on,,50.0,54.0,50.0,367621,1531.7541666666666
9803,9.0,,,,,,,54.0,,,,57,note_on,,0.0,54.0,0.0,367678,1531.9916666666666
9804,9.0,,,,,,,54.0,,,,3,note_on,,50.0,54.0,50.0,367681,1532.0041666666666
9805,9.0,,,,,,,42.0,,,,0,note_on,,66.0,42.0,66.0,367681,1532.0041666666666
9806,9.0,,,,,,,36.0,,,,0,note_on,,66.0,36.0,66.0,367681,1532.0041666666666
9807,9.0,,,,,,,54.0,,,,60,note_on,,0.0,54.0,0.0,367741,1532.2541666666666
9808,9.0,,,,,,,36.0,,,,60,note_on,,0.0,36.0,0.0,367801,1532.5041666666666
9809,9.0,,,,,,,42.0,,,,0,note_on,,0.0,42.0,0.0,367801,1532.5041666666666
9810,9.0,,,,,,,54.0,,,,0,note_on,,50.0,54.0,50.0,367801,1532.5041666666666
9811,9.0,,,,,,,54.0,,,,56,note_on,,0.0,54.0,0.0,367857,1532.7375
9812,9.0,,,,,,,54.0,,,,4,note_on,,50.0,54.0,50.0,367861,1532.7541666666666
9813,9.0,,,,,,,42.0,,,,0,note_on,,66.0,42.0,66.0,367861,1532.7541666666666
9814,9.0,,,,,,,40.0,,,,0,note_on,,66.0,40.0,66.0,367861,1532.7541666666666
9815,9.0,,,,,,,54.0,,,,60,note_on,,0.0,54.0,0.0,367921,1533.0041666666666
9816,9.0,,,,,,,40.0,,,,60,note_on,,0.0,40.0,0.0,367981,1533.2541666666666
9817,9.0,,,,,,,42.0,,,,0,note_on,,0.0,42.0,0.0,367981,1533.2541666666666
9818,9.0,,,,,,,54.0,,,,0,note_on,,50.0,54.0,50.0,367981,1533.2541666666666
9819,9.0,,,,,,,54.0,,,,57,note_on,,0.0,54.0,0.0,368038,1533.4916666666666
9820,9.0,,,,,,,54.0,,,,3,note_on,,50.0,54.0,50.0,368041,1533.5041666666666
9821,9.0,,,,,,,42.0,,,,0,note_on,,66.0,42.0,66.0,368041,1533.5041666666666
9822,9.0,,,,,,,36.0,,,,0,note_on,,66.0,36.0,66.0,368041,1533.5041666666666
9823,9.0,,,,,,,54.0,,,,60,note_on,,0.0,54.0,0.0,368101,1533.7541666666666
9824,9.0,,,,,,,36.0,,,,60,note_on,,0.0,36.0,0.0,368161,1534.0041666666666
9825,9.0,,,,,,,42.0,,,,0,note_on,,0.0,42.0,0.0,368161,1534.0041666666666
9826,9.0,,,,,,,54.0,,,,0,note_on,,50.0,54.0,50.0,368161,1534.0041666666666
9827,9.0,,,,,,,54.0,,,,56,note_on,,0.0,54.0,0.0,368217,1534.2375
9828,9.0,,,,,,,54.0,,,,4,note_on,,50.0,54.0,50.0,368221,1534.2541666666666
9829,9.0,,,,,,,42.0,,,,0,note_on,,66.0,42.0,66.0,368221,1534.2541666666666
9830,9.0,,,,,,,40.0,,,,0,note_on,,66.0,40.0,66.0,368221,1534.2541666666666
9831,9.0,,,,,,,54.0,,,,60,note_on,,0.0,54.0,0.0,368281,1534.5041666666666
9832,9.0,,,,,,,40.0,,,,60,note_on,,0.0,40.0,0.0,368341,1534.7541666666666
9833,9.0,,,,,,,42.0,,,,0,note_on,,0.0,42.0,0.0,368341,1534.7541666666666
9834,9.0,,,,,,,54.0,,,,0,note_on,,50.0,54.0,50.0,368341,1534.7541666666666
9835,9.0,,,,,,,54.0,,,,57,note_on,,0.0,54.0,0.0,368398,1534.9916666666666
9836,9.0,,,,,,,54.0,,,,3,note_on,,50.0,54.0,50.0,368401,1535.0041666666666
9837,9.0,,,,,,,42.0,,,,0,note_on,,66.0,42.0,66.0,368401,1535.0041666666666
9838,9.0,,,,,,,36.0,,,,0,note_on,,66.0,36.0,66.0,368401,1535.0041666666666
9839,9.0,,,,,,,54.0,,,,60,note_on,,0.0,54.0,0.0,368461,1535.2541666666666
9840,9.0,,,,,,,54.0,,,,0,note_on,,50.0,54.0,50.0,368461,1535.2541666666666
9841,9.0,,,,,,,54.0,,,,56,note_on,,0.0,54.0,0.0,368517,1535.4875
9842,9.0,,,,,,,36.0,,,,4,note_on,,0.0,36.0,0.0,368521,1535.5041666666666
9843,9.0,,,,,,,42.0,,,,0,note_on,,0.0,42.0,0.0,368521,1535.5041666666666
9844,9.0,,,,,,,54.0,,,,0,note_on,,50.0,54.0,50.0,368521,1535.5041666666666
9845,9.0,,,,,,,54.0,,,,56,note_on,,0.0,54.0,0.0,368577,1535.7375
9846,9.0,,,,,,,54.0,,,,4,note_on,,50.0,54.0,50.0,368581,1535.7541666666666
9847,9.0,,,,,,,42.0,,,,0,note_on,,66.0,42.0,66.0,368581,1535.7541666666666
9848,9.0,,,,,,,40.0,,,,0,note_on,,66.0,40.0,66.0,368581,1535.7541666666666
9849,9.0,,,,,,,54.0,,,,60,note_on,,0.0,54.0,0.0,368641,1536.0041666666666
9850,9.0,,,,,,,54.0,,,,0,note_on,,50.0,54.0,50.0,368641,1536.0041666666666
9851,9.0,,,,,,,54.0,,,,56,note_on,,0.0,54.0,0.0,368697,1536.2375
9852,9.0,,,,,,,40.0,,,,4,note_on,,0.0,40.0,0.0,368701,1536.2541666666666
9853,9.0,,,,,,,42.0,,,,0,note_on,,0.0,42.0,0.0,368701,1536.2541666666666
9854,9.0,,,,,,,54.0,,,,0,note_on,,50.0,54.0,50.0,368701,1536.2541666666666
9855,9.0,,,,,,,54.0,,,,57,note_on,,0.0,54.0,0.0,368758,1536.4916666666666
9856,9.0,,,,,,,54.0,,,,3,note_on,,50.0,54.0,50.0,368761,1536.5041666666666
9857,9.0,,,,,,,42.0,,,,0,note_on,,66.0,42.0,66.0,368761,1536.5041666666666
9858,9.0,,,,,,,36.0,,,,0,note_on,,66.0,36.0,66.0,368761,1536.5041666666666
9859,9.0,,,,,,,54.0,,,,60,note_on,,0.0,54.0,0.0,368821,1536.7541666666666
9860,9.0,,,,,,,54.0,,,,0,note_on,,50.0,54.0,50.0,368821,1536.7541666666666
9861,9.0,,,,,,,54.0,,,,56,note_on,,0.0,54.0,0.0,368877,1536.9875
9862,9.0,,,,,,,36.0,,,,4,note_on,,0.0,36.0,0.0,368881,1537.0041666666666
9863,9.0,,,,,,,42.0,,,,0,note_on,,0.0,42.0,0.0,368881,1537.0041666666666
9864,9.0,,,,,,,54.0,,,,0,note_on,,50.0,54.0,50.0,368881,1537.0041666666666
9865,9.0,,,,,,,54.0,,,,56,note_on,,0.0,54.0,0.0,368937,1537.2375
9866,9.0,,,,,,,54.0,,,,4,note_on,,50.0,54.0,50.0,368941,1537.2541666666666
9867,9.0,,,,,,,42.0,,,,0,note_on,,66.0,42.0,66.0,368941,1537.2541666666666
9868,9.0,,,,,,,40.0,,,,0,note_on,,66.0,40.0,66.0,368941,1537.2541666666666
9869,9.0,,,,,,,54.0,,,,60,note_on,,0.0,54.0,0.0,369001,1537.5041666666666
9870,9.0,,,,,,,54.0,,,,0,note_on,,50.0,54.0,50.0,369001,1537.5041666666666
9871,9.0,,,,,,,54.0,,,,56,note_on,,0.0,54.0,0.0,369057,1537.7375
9872,9.0,,,,,,,40.0,,,,4,note_on,,0.0,40.0,0.0,369061,1537.7541666666666
9873,9.0,,,,,,,42.0,,,,0,note_on,,0.0,42.0,0.0,369061,1537.7541666666666
9874,9.0,,,,,,,54.0,,,,0,note_on,,50.0,54.0,50.0,369061,1537.7541666666666
9875,9.0,,,,,,,54.0,,,,57,note_on,,0.0,54.0,0.0,369118,1537.9916666666666
9876,9.0,,,,,,,49.0,,,,3,note_on,,50.0,49.0,50.0,369121,1538.0041666666666
9877,9.0,,,,,,,54.0,,,,0,note_on,,50.0,54.0,50.0,369121,1538.0041666666666
9878,9.0,,,,,,,42.0,,,,0,note_on,,66.0,42.0,66.0,369121,1538.0041666666666
9879,9.0,,,,,,,36.0,,,,0,note_on,,66.0,36.0,66.0,369121,1538.0041666666666
9880,9.0,,,,,,,49.0,,,,57,note_on,,0.0,49.0,0.0,369178,1538.2416666666666
9881,9.0,,,,,,,54.0,,,,3,note_on,,0.0,54.0,0.0,369181,1538.2541666666666
9882,9.0,,,,,,,42.0,,,,60,note_on,,0.0,42.0,0.0,369241,1538.5041666666666
9883,9.0,,,,,,,36.0,,,,0,note_on,,0.0,36.0,0.0,369241,1538.5041666666666
9884,9.0,,,,,,,42.0,,,,60,note_on,,66.0,42.0,66.0,369301,1538.7541666666666
9885,9.0,,,,,,,42.0,,,,120,note_on,,0.0,42.0,0.0,369421,1539.2541666666666
9886,9.0,,,,,,,42.0,,,,60,note_on,,66.0,42.0,66.0,369481,1539.5041666666666
9887,9.0,,,,,,,42.0,,,,120,note_on,,0.0,42.0,0.0,369601,1540.0041666666666
9888,9.0,,,,,,,42.0,,,,60,note_on,,66.0,42.0,66.0,369661,1540.2541666666666
9889,9.0,,,,,,,42.0,,,,120,note_on,,0.0,42.0,0.0,369781,1540.7541666666666
9890,9.0,,,,,,,42.0,,,,60,note_on,,66.0,42.0,66.0,369841,1541.0041666666666
9891,9.0,,,,,,,42.0,,,,120,note_on,,0.0,42.0,0.0,369961,1541.5041666666666
9892,9.0,,,,,,,42.0,,,,60,note_on,,76.0,42.0,76.0,370021,1541.7541666666666
9893,9.0,,,,,,,42.0,,,,57,note_on,,0.0,42.0,0.0,370078,1541.9916666666666
9894,9.0,,,,,,,42.0,,,,3,note_on,,77.0,42.0,77.0,370081,1542.0041666666666
9895,9.0,,,,,,,42.0,,,,57,note_on,,0.0,42.0,0.0,370138,1542.2416666666666
9896,9.0,,,,,,,42.0,,,,3,note_on,,79.0,42.0,79.0,370141,1542.2541666666666
9897,9.0,,,,,,,42.0,,,,57,note_on,,0.0,42.0,0.0,370198,1542.4916666666666
9898,9.0,,,,,,,42.0,,,,3,note_on,,66.0,42.0,66.0,370201,1542.5041666666666
9899,9.0,,,,,,,42.0,,,,120,note_on,,0.0,42.0,0.0,370321,1543.0041666666666
9900,9.0,,,,,,,42.0,,,,60,note_on,,66.0,42.0,66.0,370381,1543.2541666666666
9901,9.0,,,,,,,42.0,,,,120,note_on,,0.0,42.0,0.0,370501,1543.7541666666666
9902,9.0,,,,,,,42.0,,,,60,note_on,,66.0,42.0,66.0,370561,1544.0041666666666
9903,9.0,,,,,,,42.0,,,,120,note_on,,0.0,42.0,0.0,370681,1544.5041666666666
9904,9.0,,,,,,,42.0,,,,60,note_on,,66.0,42.0,66.0,370741,1544.7541666666666
9905,9.0,,,,,,,42.0,,,,120,note_on,,0.0,42.0,0.0,370861,1545.2541666666666
9906,9.0,,,,,,,42.0,,,,60,note_on,,66.0,42.0,66.0,370921,1545.5041666666666
9907,9.0,,,,,,,42.0,,,,120,note_on,,0.0,42.0,0.0,371041,1546.0041666666666
9908,9.0,,,,,,,42.0,,,,60,note_on,,66.0,42.0,66.0,371101,1546.2541666666666
9909,9.0,,,,,,,42.0,,,,120,note_on,,0.0,42.0,0.0,371221,1546.7541666666666
9910,9.0,,,,,,,42.0,,,,60,note_on,,66.0,42.0,66.0,371281,1547.0041666666666
9911,9.0,,,,,,,42.0,,,,120,note_on,,0.0,42.0,0.0,371401,1547.5041666666666
9912,9.0,,,,,,,42.0,,,,60,note_on,,66.0,42.0,66.0,371461,1547.7541666666666
9913,9.0,,,,,,,42.0,,,,120,note_on,,0.0,42.0,0.0,371581,1548.2541666666666
9914,9.0,,,,,,,42.0,,,,60,note_on,,66.0,42.0,66.0,371641,1548.5041666666666
9915,9.0,,,,,,,42.0,,,,120,note_on,,0.0,42.0,0.0,371761,1549.0041666666666
9916,9.0,,,,,,,42.0,,,,60,note_on,,66.0,42.0,66.0,371821,1549.2541666666666
9917,9.0,,,,,,,42.0,,,,120,note_on,,0.0,42.0,0.0,371941,1549.7541666666666
9918,9.0,,,,,,,42.0,,,,60,note_on,,66.0,42.0,66.0,372001,1550.0041666666666
9919,9.0,,,,,,,42.0,,,,120,note_on,,0.0,42.0,0.0,372121,1550.5041666666666
9920,9.0,,,,,,,42.0,,,,60,note_on,,66.0,42.0,66.0,372181,1550.7541666666666
9921,9.0,,,,,,,42.0,,,,120,note_on,,0.0,42.0,0.0,372301,1551.2541666666666
9922,9.0,,,,,,,42.0,,,,60,note_on,,66.0,42.0,66.0,372361,1551.5041666666666
9923,9.0,,,,,,,42.0,,,,120,note_on,,0.0,42.0,0.0,372481,1552.0041666666666
9924,9.0,,,,,,,42.0,,,,60,note_on,,66.0,42.0,66.0,372541,1552.2541666666666
9925,9.0,,,,,,,42.0,,,,120,note_on,,0.0,42.0,0.0,372661,1552.7541666666666
9926,9.0,,,,,,,42.0,,,,60,note_on,,66.0,42.0,66.0,372721,1553.0041666666666
9927,9.0,,,,,,,42.0,,,,120,note_on,,0.0,42.0,0.0,372841,1553.5041666666666
9928,9.0,,,,,,,40.0,,,,60,note_on,,66.0,40.0,66.0,372901,1553.7541666666666
9929,9.0,,,,,,,40.0,,,,60,note_on,,0.0,40.0,0.0,372961,1554.0041666666666
9930,9.0,,,,,,,40.0,,,,0,note_on,,66.0,40.0,66.0,372961,1554.0041666666666
9931,9.0,,,,,,,40.0,,,,60,note_on,,0.0,40.0,0.0,373021,1554.2541666666666
9932,9.0,,,,,,,40.0,,,,0,note_on,,66.0,40.0,66.0,373021,1554.2541666666666
9933,9.0,,,,,,,40.0,,,,60,note_on,,0.0,40.0,0.0,373081,1554.5041666666666
9934,9.0,,,,,,,42.0,,,,0,note_on,,66.0,42.0,66.0,373081,1554.5041666666666
9935,9.0,,,,,,,49.0,,,,0,note_on,,66.0,49.0,66.0,373081,1554.5041666666666
9936,9.0,,,,,,,36.0,,,,0,note_on,,66.0,36.0,66.0,373081,1554.5041666666666
9937,9.0,,,,,,,36.0,,,,120,note_on,,0.0,36.0,0.0,373201,1555.0041666666666
9938,9.0,,,,,,,49.0,,,,0,note_on,,0.0,49.0,0.0,373201,1555.0041666666666
9939,9.0,,,,,,,42.0,,,,0,note_on,,0.0,42.0,0.0,373201,1555.0041666666666
9940,9.0,,,,,,,42.0,,,,60,note_on,,66.0,42.0,66.0,373261,1555.2541666666666
9941,9.0,,,,,,,40.0,,,,0,note_on,,66.0,40.0,66.0,373261,1555.2541666666666
9942,9.0,,,,,,,40.0,,,,120,note_on,,0.0,40.0,0.0,373381,1555.7541666666666
9943,9.0,,,,,,,42.0,,,,0,note_on,,0.0,42.0,0.0,373381,1555.7541666666666
9944,9.0,,,,,,,42.0,,,,60,note_on,,66.0,42.0,66.0,373441,1556.0041666666666
9945,9.0,,,,,,,36.0,,,,0,note_on,,66.0,36.0,66.0,373441,1556.0041666666666
9946,9.0,,,,,,,36.0,,,,120,note_on,,0.0,36.0,0.0,373561,1556.5041666666666
9947,9.0,,,,,,,42.0,,,,0,note_on,,0.0,42.0,0.0,373561,1556.5041666666666
9948,9.0,,,,,,,42.0,,,,60,note_on,,66.0,42.0,66.0,373621,1556.7541666666666
9949,9.0,,,,,,,40.0,,,,0,note_on,,66.0,40.0,66.0,373621,1556.7541666666666
9950,9.0,,,,,,,40.0,,,,120,note_on,,0.0,40.0,0.0,373741,1557.2541666666666
9951,9.0,,,,,,,42.0,,,,0,note_on,,0.0,42.0,0.0,373741,1557.2541666666666
9952,9.0,,,,,,,42.0,,,,60,note_on,,66.0,42.0,66.0,373801,1557.5041666666666
9953,9.0,,,,,,,36.0,,,,0,note_on,,66.0,36.0,66.0,373801,1557.5041666666666
9954,9.0,,,,,,,36.0,,,,120,note_on,,0.0,36.0,0.0,373921,1558.0041666666666
9955,9.0,,,,,,,42.0,,,,0,note_on,,0.0,42.0,0.0,373921,1558.0041666666666
9956,9.0,,,,,,,42.0,,,,60,note_on,,66.0,42.0,66.0,373981,1558.2541666666666
9957,9.0,,,,,,,40.0,,,,0,note_on,,66.0,40.0,66.0,373981,1558.2541666666666
9958,9.0,,,,,,,40.0,,,,120,note_on,,0.0,40.0,0.0,374101,1558.7541666666666
9959,9.0,,,,,,,42.0,,,,0,note_on,,0.0,42.0,0.0,374101,1558.7541666666666
9960,9.0,,,,,,,42.0,,,,60,note_on,,66.0,42.0,66.0,374161,1559.0041666666666
9961,9.0,,,,,,,36.0,,,,0,note_on,,66.0,36.0,66.0,374161,1559.0041666666666
9962,9.0,,,,,,,36.0,,,,120,note_on,,0.0,36.0,0.0,374281,1559.5041666666666
9963,9.0,,,,,,,42.0,,,,0,note_on,,0.0,42.0,0.0,374281,1559.5041666666666
9964,9.0,,,,,,,42.0,,,,60,note_on,,66.0,42.0,66.0,374341,1559.7541666666666
9965,9.0,,,,,,,40.0,,,,0,note_on,,66.0,40.0,66.0,374341,1559.7541666666666
9966,9.0,,,,,,,40.0,,,,120,note_on,,0.0,40.0,0.0,374461,1560.2541666666666
9967,9.0,,,,,,,42.0,,,,0,note_on,,0.0,42.0,0.0,374461,1560.2541666666666
9968,9.0,,,,,,,42.0,,,,60,note_on,,66.0,42.0,66.0,374521,1560.5041666666666
9969,9.0,,,,,,,36.0,,,,0,note_on,,66.0,36.0,66.0,374521,1560.5041666666666
9970,9.0,,,,,,,36.0,,,,120,note_on,,0.0,36.0,0.0,374641,1561.0041666666666
9971,9.0,,,,,,,42.0,,,,0,note_on,,0.0,42.0,0.0,374641,1561.0041666666666
9972,9.0,,,,,,,42.0,,,,60,note_on,,66.0,42.0,66.0,374701,1561.2541666666666
9973,9.0,,,,,,,40.0,,,,0,note_on,,66.0,40.0,66.0,374701,1561.2541666666666
9974,9.0,,,,,,,40.0,,,,120,note_on,,0.0,40.0,0.0,374821,1561.7541666666666
9975,9.0,,,,,,,42.0,,,,0,note_on,,0.0,42.0,0.0,374821,1561.7541666666666
9976,9.0,,,,,,,42.0,,,,60,note_on,,66.0,42.0,66.0,374881,1562.0041666666666
9977,9.0,,,,,,,36.0,,,,0,note_on,,66.0,36.0,66.0,374881,1562.0041666666666
9978,9.0,,,,,,,36.0,,,,120,note_on,,0.0,36.0,0.0,375001,1562.5041666666666
9979,9.0,,,,,,,42.0,,,,0,note_on,,0.0,42.0,0.0,375001,1562.5041666666666
9980,9.0,,,,,,,42.0,,,,60,note_on,,66.0,42.0,66.0,375061,1562.7541666666666
9981,9.0,,,,,,,40.0,,,,0,note_on,,66.0,40.0,66.0,375061,1562.7541666666666
9982,9.0,,,,,,,40.0,,,,120,note_on,,0.0,40.0,0.0,375181,1563.2541666666666
9983,9.0,,,,,,,42.0,,,,0,note_on,,0.0,42.0,0.0,375181,1563.2541666666666
9984,9.0,,,,,,,42.0,,,,60,note_on,,66.0,42.0,66.0,375241,1563.5041666666666
9985,9.0,,,,,,,36.0,,,,0,note_on,,66.0,36.0,66.0,375241,1563.5041666666666
9986,9.0,,,,,,,36.0,,,,120,note_on,,0.0,36.0,0.0,375361,1564.0041666666666
9987,9.0,,,,,,,42.0,,,,0,note_on,,0.0,42.0,0.0,375361,1564.0041666666666
9988,9.0,,,,,,,40.0,,,,60,note_on,,66.0,40.0,66.0,375421,1564.2541666666666
9989,9.0,,,,,,,42.0,,,,0,note_on,,66.0,42.0,66.0,375421,1564.2541666666666
9990,9.0,,,,,,,42.0,,,,120,note_on,,0.0,42.0,0.0,375541,1564.7541666666666
9991,9.0,,,,,,,40.0,,,,0,note_on,,0.0,40.0,0.0,375541,1564.7541666666666
9992,9.0,,,,,,,42.0,,,,60,note_on,,66.0,42.0,66.0,375601,1565.0041666666666
9993,9.0,,,,,,,36.0,,,,0,note_on,,66.0,36.0,66.0,375601,1565.0041666666666
9994,9.0,,,,,,,36.0,,,,120,note_on,,0.0,36.0,0.0,375721,1565.5041666666666
9995,9.0,,,,,,,42.0,,,,0,note_on,,0.0,42.0,0.0,375721,1565.5041666666666
9996,9.0,,,,,,,42.0,,,,60,note_on,,66.0,42.0,66.0,375781,1565.7541666666666
9997,9.0,,,,,,,40.0,,,,0,note_on,,66.0,40.0,66.0,375781,1565.7541666666666
9998,9.0,,,,,,,40.0,,,,60,note_on,,0.0,40.0,0.0,375841,1566.0041666666666
9999,9.0,,,,,,,42.0,,,,0,note_on,,0.0,42.0,0.0,375841,1566.0041666666666
10000,9.0,,,,,,,42.0,,,,0,note_on,,66.0,42.0,66.0,375841,1566.0041666666666
10001,9.0,,,,,,,40.0,,,,0,note_on,,66.0,40.0,66.0,375841,1566.0041666666666
10002,9.0,,,,,,,40.0,,,,60,note_on,,0.0,40.0,0.0,375901,1566.2541666666666
10003,9.0,,,,,,,42.0,,,,0,note_on,,0.0,42.0,0.0,375901,1566.2541666666666
10004,9.0,,,,,,,42.0,,,,0,note_on,,66.0,42.0,66.0,375901,1566.2541666666666
10005,9.0,,,,,,,40.0,,,,0,note_on,,66.0,40.0,66.0,375901,1566.2541666666666
10006,9.0,,,,,,,40.0,,,,60,note_on,,0.0,40.0,0.0,375961,1566.5041666666666
10007,9.0,,,,,,,42.0,,,,0,note_on,,0.0,42.0,0.0,375961,1566.5041666666666
10008,9.0,,,,,,,49.0,,,,0,note_on,,62.0,49.0,62.0,375961,1566.5041666666666
10009,9.0,,,,,,,54.0,,,,0,note_on,,50.0,54.0,50.0,375961,1566.5041666666666
10010,9.0,,,,,,,42.0,,,,0,note_on,,66.0,42.0,66.0,375961,1566.5041666666666
10011,9.0,,,,,,,36.0,,,,0,note_on,,66.0,36.0,66.0,375961,1566.5041666666666
10012,9.0,,,,,,,54.0,,,,60,note_on,,0.0,54.0,0.0,376021,1566.7541666666666
10013,9.0,,,,,,,49.0,,,,60,note_on,,0.0,49.0,0.0,376081,1567.0041666666666
10014,9.0,,,,,,,42.0,,,,0,note_on,,0.0,42.0,0.0,376081,1567.0041666666666
10015,9.0,,,,,,,36.0,,,,0,note_on,,0.0,36.0,0.0,376081,1567.0041666666666
10016,9.0,,,,,,,54.0,,,,0,note_on,,50.0,54.0,50.0,376081,1567.0041666666666
10017,9.0,,,,,,,54.0,,,,56,note_on,,0.0,54.0,0.0,376137,1567.2375
10018,9.0,,,,,,,54.0,,,,4,note_on,,50.0,54.0,50.0,376141,1567.2541666666666
10019,9.0,,,,,,,42.0,,,,0,note_on,,66.0,42.0,66.0,376141,1567.2541666666666
10020,9.0,,,,,,,40.0,,,,0,note_on,,66.0,40.0,66.0,376141,1567.2541666666666
10021,9.0,,,,,,,54.0,,,,60,note_on,,0.0,54.0,0.0,376201,1567.5041666666666
10022,9.0,,,,,,,40.0,,,,60,note_on,,0.0,40.0,0.0,376261,1567.7541666666666
10023,9.0,,,,,,,42.0,,,,0,note_on,,0.0,42.0,0.0,376261,1567.7541666666666
10024,9.0,,,,,,,54.0,,,,0,note_on,,50.0,54.0,50.0,376261,1567.7541666666666
10025,9.0,,,,,,,54.0,,,,57,note_on,,0.0,54.0,0.0,376318,1567.9916666666666
10026,9.0,,,,,,,54.0,,,,3,note_on,,50.0,54.0,50.0,376321,1568.0041666666666
10027,9.0,,,,,,,42.0,,,,0,note_on,,66.0,42.0,66.0,376321,1568.0041666666666
10028,9.0,,,,,,,36.0,,,,0,note_on,,66.0,36.0,66.0,376321,1568.0041666666666
10029,9.0,,,,,,,54.0,,,,60,note_on,,0.0,54.0,0.0,376381,1568.2541666666666
10030,9.0,,,,,,,36.0,,,,60,note_on,,0.0,36.0,0.0,376441,1568.5041666666666
10031,9.0,,,,,,,42.0,,,,0,note_on,,0.0,42.0,0.0,376441,1568.5041666666666
10032,9.0,,,,,,,54.0,,,,0,note_on,,50.0,54.0,50.0,376441,1568.5041666666666
10033,9.0,,,,,,,54.0,,,,56,note_on,,0.0,54.0,0.0,376497,1568.7375
10034,9.0,,,,,,,54.0,,,,4,note_on,,50.0,54.0,50.0,376501,1568.7541666666666
10035,9.0,,,,,,,42.0,,,,0,note_on,,66.0,42.0,66.0,376501,1568.7541666666666
10036,9.0,,,,,,,40.0,,,,0,note_on,,66.0,40.0,66.0,376501,1568.7541666666666
10037,9.0,,,,,,,54.0,,,,60,note_on,,0.0,54.0,0.0,376561,1569.0041666666666
10038,9.0,,,,,,,40.0,,,,60,note_on,,0.0,40.0,0.0,376621,1569.2541666666666
10039,9.0,,,,,,,42.0,,,,0,note_on,,0.0,42.0,0.0,376621,1569.2541666666666
10040,9.0,,,,,,,54.0,,,,0,note_on,,50.0,54.0,50.0,376621,1569.2541666666666
10041,9.0,,,,,,,54.0,,,,57,note_on,,0.0,54.0,0.0,376678,1569.4916666666666
10042,9.0,,,,,,,54.0,,,,3,note_on,,50.0,54.0,50.0,376681,1569.5041666666666
10043,9.0,,,,,,,42.0,,,,0,note_on,,66.0,42.0,66.0,376681,1569.5041666666666
10044,9.0,,,,,,,36.0,,,,0,note_on,,66.0,36.0,66.0,376681,1569.5041666666666
10045,9.0,,,,,,,54.0,,,,60,note_on,,0.0,54.0,0.0,376741,1569.7541666666666
10046,9.0,,,,,,,36.0,,,,60,note_on,,0.0,36.0,0.0,376801,1570.0041666666666
10047,9.0,,,,,,,42.0,,,,0,note_on,,0.0,42.0,0.0,376801,1570.0041666666666
10048,9.0,,,,,,,54.0,,,,0,note_on,,50.0,54.0,50.0,376801,1570.0041666666666
10049,9.0,,,,,,,54.0,,,,56,note_on,,0.0,54.0,0.0,376857,1570.2375
10050,9.0,,,,,,,54.0,,,,4,note_on,,50.0,54.0,50.0,376861,1570.2541666666666
10051,9.0,,,,,,,42.0,,,,0,note_on,,66.0,42.0,66.0,376861,1570.2541666666666
10052,9.0,,,,,,,40.0,,,,0,note_on,,66.0,40.0,66.0,376861,1570.2541666666666
10053,9.0,,,,,,,54.0,,,,60,note_on,,0.0,54.0,0.0,376921,1570.5041666666666
10054,9.0,,,,,,,40.0,,,,60,note_on,,0.0,40.0,0.0,376981,1570.7541666666666
10055,9.0,,,,,,,42.0,,,,0,note_on,,0.0,42.0,0.0,376981,1570.7541666666666
10056,9.0,,,,,,,54.0,,,,0,note_on,,50.0,54.0,50.0,376981,1570.7541666666666
10057,9.0,,,,,,,54.0,,,,57,note_on,,0.0,54.0,0.0,377038,1570.9916666666666
10058,9.0,,,,,,,54.0,,,,3,note_on,,50.0,54.0,50.0,377041,1571.0041666666666
10059,9.0,,,,,,,42.0,,,,0,note_on,,66.0,42.0,66.0,377041,1571.0041666666666
10060,9.0,,,,,,,36.0,,,,0,note_on,,66.0,36.0,66.0,377041,1571.0041666666666
10061,9.0,,,,,,,54.0,,,,60,note_on,,0.0,54.0,0.0,377101,1571.2541666666666
10062,9.0,,,,,,,36.0,,,,60,note_on,,0.0,36.0,0.0,377161,1571.5041666666666
10063,9.0,,,,,,,42.0,,,,0,note_on,,0.0,42.0,0.0,377161,1571.5041666666666
10064,9.0,,,,,,,54.0,,,,0,note_on,,50.0,54.0,50.0,377161,1571.5041666666666
10065,9.0,,,,,,,54.0,,,,56,note_on,,0.0,54.0,0.0,377217,1571.7375
10066,9.0,,,,,,,54.0,,,,4,note_on,,50.0,54.0,50.0,377221,1571.7541666666666
10067,9.0,,,,,,,42.0,,,,0,note_on,,66.0,42.0,66.0,377221,1571.7541666666666
10068,9.0,,,,,,,40.0,,,,0,note_on,,66.0,40.0,66.0,377221,1571.7541666666666
10069,9.0,,,,,,,54.0,,,,60,note_on,,0.0,54.0,0.0,377281,1572.0041666666666
10070,9.0,,,,,,,40.0,,,,60,note_on,,0.0,40.0,0.0,377341,1572.2541666666666
10071,9.0,,,,,,,42.0,,,,0,note_on,,0.0,42.0,0.0,377341,1572.2541666666666
10072,9.0,,,,,,,54.0,,,,0,note_on,,50.0,54.0,50.0,377341,1572.2541666666666
10073,9.0,,,,,,,54.0,,,,57,note_on,,0.0,54.0,0.0,377398,1572.4916666666666
10074,9.0,,,,,,,54.0,,,,3,note_on,,50.0,54.0,50.0,377401,1572.5041666666666
10075,9.0,,,,,,,42.0,,,,0,note_on,,66.0,42.0,66.0,377401,1572.5041666666666
10076,9.0,,,,,,,36.0,,,,0,note_on,,66.0,36.0,66.0,377401,1572.5041666666666
10077,9.0,,,,,,,54.0,,,,60,note_on,,0.0,54.0,0.0,377461,1572.7541666666666
10078,9.0,,,,,,,36.0,,,,60,note_on,,0.0,36.0,0.0,377521,1573.0041666666666
10079,9.0,,,,,,,42.0,,,,0,note_on,,0.0,42.0,0.0,377521,1573.0041666666666
10080,9.0,,,,,,,54.0,,,,0,note_on,,50.0,54.0,50.0,377521,1573.0041666666666
10081,9.0,,,,,,,54.0,,,,56,note_on,,0.0,54.0,0.0,377577,1573.2375
10082,9.0,,,,,,,54.0,,,,4,note_on,,50.0,54.0,50.0,377581,1573.2541666666666
10083,9.0,,,,,,,42.0,,,,0,note_on,,66.0,42.0,66.0,377581,1573.2541666666666
10084,9.0,,,,,,,40.0,,,,0,note_on,,66.0,40.0,66.0,377581,1573.2541666666666
10085,9.0,,,,,,,54.0,,,,60,note_on,,0.0,54.0,0.0,377641,1573.5041666666666
10086,9.0,,,,,,,40.0,,,,60,note_on,,0.0,40.0,0.0,377701,1573.7541666666666
10087,9.0,,,,,,,42.0,,,,0,note_on,,0.0,42.0,0.0,377701,1573.7541666666666
10088,9.0,,,,,,,54.0,,,,0,note_on,,50.0,54.0,50.0,377701,1573.7541666666666
10089,9.0,,,,,,,54.0,,,,57,note_on,,0.0,54.0,0.0,377758,1573.9916666666666
10090,9.0,,,,,,,54.0,,,,3,note_on,,50.0,54.0,50.0,377761,1574.0041666666666
10091,9.0,,,,,,,42.0,,,,0,note_on,,66.0,42.0,66.0,377761,1574.0041666666666
10092,9.0,,,,,,,36.0,,,,0,note_on,,66.0,36.0,66.0,377761,1574.0041666666666
10093,9.0,,,,,,,54.0,,,,60,note_on,,0.0,54.0,0.0,377821,1574.2541666666666
10094,9.0,,,,,,,36.0,,,,60,note_on,,0.0,36.0,0.0,377881,1574.5041666666666
10095,9.0,,,,,,,42.0,,,,0,note_on,,0.0,42.0,0.0,377881,1574.5041666666666
10096,9.0,,,,,,,54.0,,,,0,note_on,,50.0,54.0,50.0,377881,1574.5041666666666
10097,9.0,,,,,,,54.0,,,,56,note_on,,0.0,54.0,0.0,377937,1574.7375
10098,9.0,,,,,,,54.0,,,,4,note_on,,50.0,54.0,50.0,377941,1574.7541666666666
10099,9.0,,,,,,,42.0,,,,0,note_on,,66.0,42.0,66.0,377941,1574.7541666666666
10100,9.0,,,,,,,40.0,,,,0,note_on,,66.0,40.0,66.0,377941,1574.7541666666666
10101,9.0,,,,,,,54.0,,,,60,note_on,,0.0,54.0,0.0,378001,1575.0041666666666
10102,9.0,,,,,,,40.0,,,,60,note_on,,0.0,40.0,0.0,378061,1575.2541666666666
10103,9.0,,,,,,,42.0,,,,0,note_on,,0.0,42.0,0.0,378061,1575.2541666666666
10104,9.0,,,,,,,54.0,,,,0,note_on,,50.0,54.0,50.0,378061,1575.2541666666666
10105,9.0,,,,,,,54.0,,,,57,note_on,,0.0,54.0,0.0,378118,1575.4916666666666
10106,9.0,,,,,,,54.0,,,,3,note_on,,50.0,54.0,50.0,378121,1575.5041666666666
10107,9.0,,,,,,,42.0,,,,0,note_on,,66.0,42.0,66.0,378121,1575.5041666666666
10108,9.0,,,,,,,36.0,,,,0,note_on,,66.0,36.0,66.0,378121,1575.5041666666666
10109,9.0,,,,,,,54.0,,,,60,note_on,,0.0,54.0,0.0,378181,1575.7541666666666
10110,9.0,,,,,,,54.0,,,,0,note_on,,50.0,54.0,50.0,378181,1575.7541666666666
10111,9.0,,,,,,,54.0,,,,56,note_on,,0.0,54.0,0.0,378237,1575.9875
10112,9.0,,,,,,,36.0,,,,4,note_on,,0.0,36.0,0.0,378241,1576.0041666666666
10113,9.0,,,,,,,42.0,,,,0,note_on,,0.0,42.0,0.0,378241,1576.0041666666666
10114,9.0,,,,,,,54.0,,,,0,note_on,,50.0,54.0,50.0,378241,1576.0041666666666
10115,9.0,,,,,,,54.0,,,,56,note_on,,0.0,54.0,0.0,378297,1576.2375
10116,9.0,,,,,,,54.0,,,,4,note_on,,50.0,54.0,50.0,378301,1576.2541666666666
10117,9.0,,,,,,,42.0,,,,0,note_on,,66.0,42.0,66.0,378301,1576.2541666666666
10118,9.0,,,,,,,40.0,,,,0,note_on,,66.0,40.0,66.0,378301,1576.2541666666666
10119,9.0,,,,,,,54.0,,,,60,note_on,,0.0,54.0,0.0,378361,1576.5041666666666
10120,9.0,,,,,,,54.0,,,,0,note_on,,50.0,54.0,50.0,378361,1576.5041666666666
10121,9.0,,,,,,,54.0,,,,56,note_on,,0.0,54.0,0.0,378417,1576.7375
10122,9.0,,,,,,,40.0,,,,4,note_on,,0.0,40.0,0.0,378421,1576.7541666666666
10123,9.0,,,,,,,42.0,,,,0,note_on,,0.0,42.0,0.0,378421,1576.7541666666666
10124,9.0,,,,,,,54.0,,,,0,note_on,,50.0,54.0,50.0,378421,1576.7541666666666
10125,9.0,,,,,,,54.0,,,,57,note_on,,0.0,54.0,0.0,378478,1576.9916666666666
10126,9.0,,,,,,,54.0,,,,3,note_on,,50.0,54.0,50.0,378481,1577.0041666666666
10127,9.0,,,,,,,42.0,,,,0,note_on,,66.0,42.0,66.0,378481,1577.0041666666666
10128,9.0,,,,,,,36.0,,,,0,note_on,,66.0,36.0,66.0,378481,1577.0041666666666
10129,9.0,,,,,,,54.0,,,,60,note_on,,0.0,54.0,0.0,378541,1577.2541666666666
10130,9.0,,,,,,,54.0,,,,0,note_on,,50.0,54.0,50.0,378541,1577.2541666666666
10131,9.0,,,,,,,54.0,,,,56,note_on,,0.0,54.0,0.0,378597,1577.4875
10132,9.0,,,,,,,36.0,,,,4,note_on,,0.0,36.0,0.0,378601,1577.5041666666666
10133,9.0,,,,,,,42.0,,,,0,note_on,,0.0,42.0,0.0,378601,1577.5041666666666
10134,9.0,,,,,,,54.0,,,,0,note_on,,50.0,54.0,50.0,378601,1577.5041666666666
10135,9.0,,,,,,,54.0,,,,56,note_on,,0.0,54.0,0.0,378657,1577.7375
10136,9.0,,,,,,,54.0,,,,4,note_on,,50.0,54.0,50.0,378661,1577.7541666666666
10137,9.0,,,,,,,42.0,,,,0,note_on,,66.0,42.0,66.0,378661,1577.7541666666666
10138,9.0,,,,,,,40.0,,,,0,note_on,,66.0,40.0,66.0,378661,1577.7541666666666
10139,9.0,,,,,,,54.0,,,,60,note_on,,0.0,54.0,0.0,378721,1578.0041666666666
10140,9.0,,,,,,,54.0,,,,0,note_on,,50.0,54.0,50.0,378721,1578.0041666666666
10141,9.0,,,,,,,54.0,,,,56,note_on,,0.0,54.0,0.0,378777,1578.2375
10142,9.0,,,,,,,40.0,,,,4,note_on,,0.0,40.0,0.0,378781,1578.2541666666666
10143,9.0,,,,,,,42.0,,,,0,note_on,,0.0,42.0,0.0,378781,1578.2541666666666
10144,9.0,,,,,,,54.0,,,,0,note_on,,50.0,54.0,50.0,378781,1578.2541666666666
10145,9.0,,,,,,,54.0,,,,57,note_on,,0.0,54.0,0.0,378838,1578.4916666666666
10146,9.0,,,,,,,49.0,,,,3,note_on,,50.0,49.0,50.0,378841,1578.5041666666666
10147,9.0,,,,,,,54.0,,,,0,note_on,,50.0,54.0,50.0,378841,1578.5041666666666
10148,9.0,,,,,,,42.0,,,,0,note_on,,66.0,42.0,66.0,378841,1578.5041666666666
10149,9.0,,,,,,,36.0,,,,0,note_on,,66.0,36.0,66.0,378841,1578.5041666666666
10150,9.0,,,,,,,49.0,,,,57,note_on,,0.0,49.0,0.0,378898,1578.7416666666666
10151,9.0,,,,,,,54.0,,,,3,note_on,,0.0,54.0,0.0,378901,1578.7541666666666
10152,9.0,,,,,,,42.0,,,,60,note_on,,0.0,42.0,0.0,378961,1579.0041666666666
10153,9.0,,,,,,,36.0,,,,0,note_on,,0.0,36.0,0.0,378961,1579.0041666666666
10154,9.0,,,,,,,42.0,,,,60,note_on,,66.0,42.0,66.0,379021,1579.2541666666666
10155,9.0,,,,,,,42.0,,,,120,note_on,,0.0,42.0,0.0,379141,1579.7541666666666
10156,9.0,,,,,,,42.0,,,,60,note_on,,66.0,42.0,66.0,379201,1580.0041666666666
10157,9.0,,,,,,,42.0,,,,120,note_on,,0.0,42.0,0.0,379321,1580.5041666666666
10158,9.0,,,,,,,42.0,,,,60,note_on,,66.0,42.0,66.0,379381,1580.7541666666666
10159,9.0,,,,,,,42.0,,,,120,note_on,,0.0,42.0,0.0,379501,1581.2541666666666
10160,9.0,,,,,,,42.0,,,,60,note_on,,66.0,42.0,66.0,379561,1581.5041666666666
10161,9.0,,,,,,,42.0,,,,120,note_on,,0.0,42.0,0.0,379681,1582.0041666666666
10162,9.0,,,,,,,42.0,,,,60,note_on,,76.0,42.0,76.0,379741,1582.2541666666666
10163,9.0,,,,,,,42.0,,,,57,note_on,,0.0,42.0,0.0,379798,1582.4916666666666
10164,9.0,,,,,,,42.0,,,,3,note_on,,77.0,42.0,77.0,379801,1582.5041666666666
10165,9.0,,,,,,,42.0,,,,57,note_on,,0.0,42.0,0.0,379858,1582.7416666666666
10166,9.0,,,,,,,42.0,,,,3,note_on,,79.0,42.0,79.0,379861,1582.7541666666666
10167,9.0,,,,,,,42.0,,,,57,note_on,,0.0,42.0,0.0,379918,1582.9916666666666
10168,9.0,,,,,,,42.0,,,,3,note_on,,66.0,42.0,66.0,379921,1583.0041666666666
10169,9.0,,,,,,,42.0,,,,120,note_on,,0.0,42.0,0.0,380041,1583.5041666666666
10170,9.0,,,,,,,42.0,,,,60,note_on,,66.0,42.0,66.0,380101,1583.7541666666666
10171,9.0,,,,,,,42.0,,,,120,note_on,,0.0,42.0,0.0,380221,1584.2541666666666
10172,9.0,,,,,,,42.0,,,,60,note_on,,66.0,42.0,66.0,380281,1584.5041666666666
10173,9.0,,,,,,,42.0,,,,120,note_on,,0.0,42.0,0.0,380401,1585.0041666666666
10174,9.0,,,,,,,42.0,,,,60,note_on,,66.0,42.0,66.0,380461,1585.2541666666666
10175,9.0,,,,,,,42.0,,,,120,note_on,,0.0,42.0,0.0,380581,1585.7541666666666
10176,9.0,,,,,,,42.0,,,,60,note_on,,66.0,42.0,66.0,380641,1586.0041666666666
10177,9.0,,,,,,,42.0,,,,120,note_on,,0.0,42.0,0.0,380761,1586.5041666666666
10178,9.0,,,,,,,42.0,,,,60,note_on,,66.0,42.0,66.0,380821,1586.7541666666666
10179,9.0,,,,,,,42.0,,,,120,note_on,,0.0,42.0,0.0,380941,1587.2541666666666
10180,9.0,,,,,,,42.0,,,,60,note_on,,66.0,42.0,66.0,381001,1587.5041666666666
10181,9.0,,,,,,,42.0,,,,120,note_on,,0.0,42.0,0.0,381121,1588.0041666666666
10182,9.0,,,,,,,42.0,,,,60,note_on,,66.0,42.0,66.0,381181,1588.2541666666666
10183,9.0,,,,,,,42.0,,,,120,note_on,,0.0,42.0,0.0,381301,1588.7541666666666
10184,9.0,,,,,,,42.0,,,,60,note_on,,66.0,42.0,66.0,381361,1589.0041666666666
10185,9.0,,,,,,,42.0,,,,120,note_on,,0.0,42.0,0.0,381481,1589.5041666666666
10186,9.0,,,,,,,42.0,,,,60,note_on,,66.0,42.0,66.0,381541,1589.7541666666666
10187,9.0,,,,,,,42.0,,,,120,note_on,,0.0,42.0,0.0,381661,1590.2541666666666
10188,9.0,,,,,,,42.0,,,,60,note_on,,66.0,42.0,66.0,381721,1590.5041666666666
10189,9.0,,,,,,,42.0,,,,120,note_on,,0.0,42.0,0.0,381841,1591.0041666666666
10190,9.0,,,,,,,42.0,,,,60,note_on,,66.0,42.0,66.0,381901,1591.2541666666666
10191,9.0,,,,,,,42.0,,,,120,note_on,,0.0,42.0,0.0,382021,1591.7541666666666
10192,9.0,,,,,,,42.0,,,,60,note_on,,66.0,42.0,66.0,382081,1592.0041666666666
10193,9.0,,,,,,,42.0,,,,120,note_on,,0.0,42.0,0.0,382201,1592.5041666666666
10194,9.0,,,,,,,42.0,,,,60,note_on,,66.0,42.0,66.0,382261,1592.7541666666666
10195,9.0,,,,,,,42.0,,,,120,note_on,,0.0,42.0,0.0,382381,1593.2541666666666
10196,9.0,,,,,,,42.0,,,,60,note_on,,66.0,42.0,66.0,382441,1593.5041666666666
10197,9.0,,,,,,,42.0,,,,120,note_on,,0.0,42.0,0.0,382561,1594.0041666666666
10198,9.0,,,,,,,40.0,,,,60,note_on,,66.0,40.0,66.0,382621,1594.2541666666666
10199,9.0,,,,,,,40.0,,,,60,note_on,,0.0,40.0,0.0,382681,1594.5041666666666
10200,9.0,,,,,,,40.0,,,,0,note_on,,66.0,40.0,66.0,382681,1594.5041666666666
10201,9.0,,,,,,,40.0,,,,60,note_on,,0.0,40.0,0.0,382741,1594.7541666666666
10202,9.0,,,,,,,40.0,,,,0,note_on,,66.0,40.0,66.0,382741,1594.7541666666666
10203,9.0,,,,,,,40.0,,,,60,note_on,,0.0,40.0,0.0,382801,1595.0041666666666
10204,9.0,,,,,,,42.0,,,,0,note_on,,66.0,42.0,66.0,382801,1595.0041666666666
10205,9.0,,,,,,,49.0,,,,0,note_on,,66.0,49.0,66.0,382801,1595.0041666666666
10206,9.0,,,,,,,36.0,,,,0,note_on,,66.0,36.0,66.0,382801,1595.0041666666666
10207,9.0,,,,,,,36.0,,,,120,note_on,,0.0,36.0,0.0,382921,1595.5041666666666
10208,9.0,,,,,,,49.0,,,,0,note_on,,0.0,49.0,0.0,382921,1595.5041666666666
10209,9.0,,,,,,,42.0,,,,0,note_on,,0.0,42.0,0.0,382921,1595.5041666666666
10210,9.0,,,,,,,42.0,,,,60,note_on,,66.0,42.0,66.0,382981,1595.7541666666666
10211,9.0,,,,,,,40.0,,,,0,note_on,,66.0,40.0,66.0,382981,1595.7541666666666
10212,9.0,,,,,,,40.0,,,,120,note_on,,0.0,40.0,0.0,383101,1596.2541666666666
10213,9.0,,,,,,,42.0,,,,0,note_on,,0.0,42.0,0.0,383101,1596.2541666666666
10214,9.0,,,,,,,42.0,,,,60,note_on,,66.0,42.0,66.0,383161,1596.5041666666666
10215,9.0,,,,,,,36.0,,,,0,note_on,,66.0,36.0,66.0,383161,1596.5041666666666
10216,9.0,,,,,,,36.0,,,,120,note_on,,0.0,36.0,0.0,383281,1597.0041666666666
10217,9.0,,,,,,,42.0,,,,0,note_on,,0.0,42.0,0.0,383281,1597.0041666666666
10218,9.0,,,,,,,42.0,,,,60,note_on,,66.0,42.0,66.0,383341,1597.2541666666666
10219,9.0,,,,,,,40.0,,,,0,note_on,,66.0,40.0,66.0,383341,1597.2541666666666
10220,9.0,,,,,,,40.0,,,,120,note_on,,0.0,40.0,0.0,383461,1597.7541666666666
10221,9.0,,,,,,,42.0,,,,0,note_on,,0.0,42.0,0.0,383461,1597.7541666666666
10222,9.0,,,,,,,42.0,,,,60,note_on,,66.0,42.0,66.0,383521,1598.0041666666666
10223,9.0,,,,,,,36.0,,,,0,note_on,,66.0,36.0,66.0,383521,1598.0041666666666
10224,9.0,,,,,,,36.0,,,,120,note_on,,0.0,36.0,0.0,383641,1598.5041666666666
10225,9.0,,,,,,,42.0,,,,0,note_on,,0.0,42.0,0.0,383641,1598.5041666666666
10226,9.0,,,,,,,42.0,,,,60,note_on,,66.0,42.0,66.0,383701,1598.7541666666666
10227,9.0,,,,,,,40.0,,,,0,note_on,,66.0,40.0,66.0,383701,1598.7541666666666
10228,9.0,,,,,,,40.0,,,,120,note_on,,0.0,40.0,0.0,383821,1599.2541666666666
10229,9.0,,,,,,,42.0,,,,0,note_on,,0.0,42.0,0.0,383821,1599.2541666666666
10230,9.0,,,,,,,42.0,,,,60,note_on,,66.0,42.0,66.0,383881,1599.5041666666666
10231,9.0,,,,,,,36.0,,,,0,note_on,,66.0,36.0,66.0,383881,1599.5041666666666
10232,9.0,,,,,,,36.0,,,,120,note_on,,0.0,36.0,0.0,384001,1600.0041666666666
10233,9.0,,,,,,,42.0,,,,0,note_on,,0.0,42.0,0.0,384001,1600.0041666666666
10234,9.0,,,,,,,42.0,,,,60,note_on,,66.0,42.0,66.0,384061,1600.2541666666666
10235,9.0,,,,,,,40.0,,,,0,note_on,,66.0,40.0,66.0,384061,1600.2541666666666
10236,9.0,,,,,,,40.0,,,,120,note_on,,0.0,40.0,0.0,384181,1600.7541666666666
10237,9.0,,,,,,,42.0,,,,0,note_on,,0.0,42.0,0.0,384181,1600.7541666666666
10238,9.0,,,,,,,42.0,,,,60,note_on,,66.0,42.0,66.0,384241,1601.0041666666666
10239,9.0,,,,,,,36.0,,,,0,note_on,,66.0,36.0,66.0,384241,1601.0041666666666
10240,9.0,,,,,,,36.0,,,,120,note_on,,0.0,36.0,0.0,384361,1601.5041666666666
10241,9.0,,,,,,,42.0,,,,0,note_on,,0.0,42.0,0.0,384361,1601.5041666666666
10242,9.0,,,,,,,42.0,,,,60,note_on,,66.0,42.0,66.0,384421,1601.7541666666666
10243,9.0,,,,,,,40.0,,,,0,note_on,,66.0,40.0,66.0,384421,1601.7541666666666
10244,9.0,,,,,,,40.0,,,,120,note_on,,0.0,40.0,0.0,384541,1602.2541666666666
10245,9.0,,,,,,,42.0,,,,0,note_on,,0.0,42.0,0.0,384541,1602.2541666666666
10246,9.0,,,,,,,42.0,,,,60,note_on,,66.0,42.0,66.0,384601,1602.5041666666666
10247,9.0,,,,,,,36.0,,,,0,note_on,,66.0,36.0,66.0,384601,1602.5041666666666
10248,9.0,,,,,,,36.0,,,,120,note_on,,0.0,36.0,0.0,384721,1603.0041666666666
10249,9.0,,,,,,,42.0,,,,0,note_on,,0.0,42.0,0.0,384721,1603.0041666666666
10250,9.0,,,,,,,42.0,,,,60,note_on,,66.0,42.0,66.0,384781,1603.2541666666666
10251,9.0,,,,,,,40.0,,,,0,note_on,,66.0,40.0,66.0,384781,1603.2541666666666
10252,9.0,,,,,,,40.0,,,,120,note_on,,0.0,40.0,0.0,384901,1603.7541666666666
10253,9.0,,,,,,,42.0,,,,0,note_on,,0.0,42.0,0.0,384901,1603.7541666666666
10254,9.0,,,,,,,42.0,,,,60,note_on,,66.0,42.0,66.0,384961,1604.0041666666666
10255,9.0,,,,,,,36.0,,,,0,note_on,,66.0,36.0,66.0,384961,1604.0041666666666
10256,9.0,,,,,,,36.0,,,,120,note_on,,0.0,36.0,0.0,385081,1604.5041666666666
10257,9.0,,,,,,,42.0,,,,0,note_on,,0.0,42.0,0.0,385081,1604.5041666666666
10258,9.0,,,,,,,40.0,,,,60,note_on,,66.0,40.0,66.0,385141,1604.7541666666666
10259,9.0,,,,,,,42.0,,,,0,note_on,,66.0,42.0,66.0,385141,1604.7541666666666
10260,9.0,,,,,,,42.0,,,,120,note_on,,0.0,42.0,0.0,385261,1605.2541666666666
10261,9.0,,,,,,,40.0,,,,0,note_on,,0.0,40.0,0.0,385261,1605.2541666666666
10262,9.0,,,,,,,42.0,,,,60,note_on,,66.0,42.0,66.0,385321,1605.5041666666666
10263,9.0,,,,,,,36.0,,,,0,note_on,,66.0,36.0,66.0,385321,1605.5041666666666
10264,9.0,,,,,,,36.0,,,,120,note_on,,0.0,36.0,0.0,385441,1606.0041666666666
10265,9.0,,,,,,,42.0,,,,0,note_on,,0.0,42.0,0.0,385441,1606.0041666666666
10266,9.0,,,,,,,42.0,,,,60,note_on,,66.0,42.0,66.0,385501,1606.2541666666666
10267,9.0,,,,,,,40.0,,,,0,note_on,,66.0,40.0,66.0,385501,1606.2541666666666
10268,9.0,,,,,,,40.0,,,,60,note_on,,0.0,40.0,0.0,385561,1606.5041666666666
10269,9.0,,,,,,,42.0,,,,0,note_on,,0.0,42.0,0.0,385561,1606.5041666666666
10270,9.0,,,,,,,42.0,,,,0,note_on,,66.0,42.0,66.0,385561,1606.5041666666666
10271,9.0,,,,,,,40.0,,,,0,note_on,,66.0,40.0,66.0,385561,1606.5041666666666
10272,9.0,,,,,,,40.0,,,,60,note_on,,0.0,40.0,0.0,385621,1606.7541666666666
10273,9.0,,,,,,,42.0,,,,0,note_on,,0.0,42.0,0.0,385621,1606.7541666666666
10274,9.0,,,,,,,42.0,,,,0,note_on,,66.0,42.0,66.0,385621,1606.7541666666666
10275,9.0,,,,,,,40.0,,,,0,note_on,,66.0,40.0,66.0,385621,1606.7541666666666
10276,9.0,,,,,,,40.0,,,,60,note_on,,0.0,40.0,0.0,385681,1607.0041666666666
10277,9.0,,,,,,,42.0,,,,0,note_on,,0.0,42.0,0.0,385681,1607.0041666666666
10278,9.0,,,,,,,49.0,,,,0,note_on,,62.0,49.0,62.0,385681,1607.0041666666666
10279,9.0,,,,,,,54.0,,,,0,note_on,,50.0,54.0,50.0,385681,1607.0041666666666
10280,9.0,,,,,,,42.0,,,,0,note_on,,66.0,42.0,66.0,385681,1607.0041666666666
10281,9.0,,,,,,,36.0,,,,0,note_on,,66.0,36.0,66.0,385681,1607.0041666666666
10282,9.0,,,,,,,54.0,,,,60,note_on,,0.0,54.0,0.0,385741,1607.2541666666666
10283,9.0,,,,,,,49.0,,,,60,note_on,,0.0,49.0,0.0,385801,1607.5041666666666
10284,9.0,,,,,,,42.0,,,,0,note_on,,0.0,42.0,0.0,385801,1607.5041666666666
10285,9.0,,,,,,,36.0,,,,0,note_on,,0.0,36.0,0.0,385801,1607.5041666666666
10286,9.0,,,,,,,54.0,,,,0,note_on,,50.0,54.0,50.0,385801,1607.5041666666666
10287,9.0,,,,,,,54.0,,,,56,note_on,,0.0,54.0,0.0,385857,1607.7375
10288,9.0,,,,,,,54.0,,,,4,note_on,,50.0,54.0,50.0,385861,1607.7541666666666
10289,9.0,,,,,,,42.0,,,,0,note_on,,66.0,42.0,66.0,385861,1607.7541666666666
10290,9.0,,,,,,,40.0,,,,0,note_on,,66.0,40.0,66.0,385861,1607.7541666666666
10291,9.0,,,,,,,54.0,,,,60,note_on,,0.0,54.0,0.0,385921,1608.0041666666666
10292,9.0,,,,,,,40.0,,,,60,note_on,,0.0,40.0,0.0,385981,1608.2541666666666
10293,9.0,,,,,,,42.0,,,,0,note_on,,0.0,42.0,0.0,385981,1608.2541666666666
10294,9.0,,,,,,,54.0,,,,0,note_on,,50.0,54.0,50.0,385981,1608.2541666666666
10295,9.0,,,,,,,54.0,,,,57,note_on,,0.0,54.0,0.0,386038,1608.4916666666666
10296,9.0,,,,,,,54.0,,,,3,note_on,,50.0,54.0,50.0,386041,1608.5041666666666
10297,9.0,,,,,,,42.0,,,,0,note_on,,66.0,42.0,66.0,386041,1608.5041666666666
10298,9.0,,,,,,,36.0,,,,0,note_on,,66.0,36.0,66.0,386041,1608.5041666666666
10299,9.0,,,,,,,54.0,,,,60,note_on,,0.0,54.0,0.0,386101,1608.7541666666666
10300,9.0,,,,,,,36.0,,,,60,note_on,,0.0,36.0,0.0,386161,1609.0041666666666
10301,9.0,,,,,,,42.0,,,,0,note_on,,0.0,42.0,0.0,386161,1609.0041666666666
10302,9.0,,,,,,,54.0,,,,0,note_on,,50.0,54.0,50.0,386161,1609.0041666666666
10303,9.0,,,,,,,54.0,,,,56,note_on,,0.0,54.0,0.0,386217,1609.2375
10304,9.0,,,,,,,54.0,,,,4,note_on,,50.0,54.0,50.0,386221,1609.2541666666666
10305,9.0,,,,,,,42.0,,,,0,note_on,,66.0,42.0,66.0,386221,1609.2541666666666
10306,9.0,,,,,,,40.0,,,,0,note_on,,66.0,40.0,66.0,386221,1609.2541666666666
10307,9.0,,,,,,,54.0,,,,60,note_on,,0.0,54.0,0.0,386281,1609.5041666666666
10308,9.0,,,,,,,40.0,,,,60,note_on,,0.0,40.0,0.0,386341,1609.7541666666666
10309,9.0,,,,,,,42.0,,,,0,note_on,,0.0,42.0,0.0,386341,1609.7541666666666
10310,9.0,,,,,,,54.0,,,,0,note_on,,50.0,54.0,50.0,386341,1609.7541666666666
10311,9.0,,,,,,,54.0,,,,57,note_on,,0.0,54.0,0.0,386398,1609.9916666666666
10312,9.0,,,,,,,54.0,,,,3,note_on,,50.0,54.0,50.0,386401,1610.0041666666666
10313,9.0,,,,,,,42.0,,,,0,note_on,,66.0,42.0,66.0,386401,1610.0041666666666
10314,9.0,,,,,,,36.0,,,,0,note_on,,66.0,36.0,66.0,386401,1610.0041666666666
10315,9.0,,,,,,,54.0,,,,60,note_on,,0.0,54.0,0.0,386461,1610.2541666666666
10316,9.0,,,,,,,36.0,,,,60,note_on,,0.0,36.0,0.0,386521,1610.5041666666666
10317,9.0,,,,,,,42.0,,,,0,note_on,,0.0,42.0,0.0,386521,1610.5041666666666
10318,9.0,,,,,,,54.0,,,,0,note_on,,50.0,54.0,50.0,386521,1610.5041666666666
10319,9.0,,,,,,,54.0,,,,56,note_on,,0.0,54.0,0.0,386577,1610.7375
10320,9.0,,,,,,,54.0,,,,4,note_on,,50.0,54.0,50.0,386581,1610.7541666666666
10321,9.0,,,,,,,42.0,,,,0,note_on,,66.0,42.0,66.0,386581,1610.7541666666666
10322,9.0,,,,,,,40.0,,,,0,note_on,,66.0,40.0,66.0,386581,1610.7541666666666
10323,9.0,,,,,,,54.0,,,,60,note_on,,0.0,54.0,0.0,386641,1611.0041666666666
10324,9.0,,,,,,,40.0,,,,60,note_on,,0.0,40.0,0.0,386701,1611.2541666666666
10325,9.0,,,,,,,42.0,,,,0,note_on,,0.0,42.0,0.0,386701,1611.2541666666666
10326,9.0,,,,,,,54.0,,,,0,note_on,,50.0,54.0,50.0,386701,1611.2541666666666
10327,9.0,,,,,,,54.0,,,,57,note_on,,0.0,54.0,0.0,386758,1611.4916666666666
10328,9.0,,,,,,,54.0,,,,3,note_on,,50.0,54.0,50.0,386761,1611.5041666666666
10329,9.0,,,,,,,42.0,,,,0,note_on,,66.0,42.0,66.0,386761,1611.5041666666666
10330,9.0,,,,,,,36.0,,,,0,note_on,,66.0,36.0,66.0,386761,1611.5041666666666
10331,9.0,,,,,,,54.0,,,,60,note_on,,0.0,54.0,0.0,386821,1611.7541666666666
10332,9.0,,,,,,,36.0,,,,60,note_on,,0.0,36.0,0.0,386881,1612.0041666666666
10333,9.0,,,,,,,42.0,,,,0,note_on,,0.0,42.0,0.0,386881,1612.0041666666666
10334,9.0,,,,,,,54.0,,,,0,note_on,,50.0,54.0,50.0,386881,1612.0041666666666
10335,9.0,,,,,,,54.0,,,,56,note_on,,0.0,54.0,0.0,386937,1612.2375
10336,9.0,,,,,,,54.0,,,,4,note_on,,50.0,54.0,50.0,386941,1612.2541666666666
10337,9.0,,,,,,,42.0,,,,0,note_on,,66.0,42.0,66.0,386941,1612.2541666666666
10338,9.0,,,,,,,40.0,,,,0,note_on,,66.0,40.0,66.0,386941,1612.2541666666666
10339,9.0,,,,,,,54.0,,,,60,note_on,,0.0,54.0,0.0,387001,1612.5041666666666
10340,9.0,,,,,,,40.0,,,,60,note_on,,0.0,40.0,0.0,387061,1612.7541666666666
10341,9.0,,,,,,,42.0,,,,0,note_on,,0.0,42.0,0.0,387061,1612.7541666666666
10342,9.0,,,,,,,54.0,,,,0,note_on,,50.0,54.0,50.0,387061,1612.7541666666666
10343,9.0,,,,,,,54.0,,,,57,note_on,,0.0,54.0,0.0,387118,1612.9916666666666
10344,9.0,,,,,,,54.0,,,,3,note_on,,50.0,54.0,50.0,387121,1613.0041666666666
10345,9.0,,,,,,,42.0,,,,0,note_on,,66.0,42.0,66.0,387121,1613.0041666666666
10346,9.0,,,,,,,36.0,,,,0,note_on,,66.0,36.0,66.0,387121,1613.0041666666666
10347,9.0,,,,,,,54.0,,,,60,note_on,,0.0,54.0,0.0,387181,1613.2541666666666
10348,9.0,,,,,,,36.0,,,,60,note_on,,0.0,36.0,0.0,387241,1613.5041666666666
10349,9.0,,,,,,,42.0,,,,0,note_on,,0.0,42.0,0.0,387241,1613.5041666666666
10350,9.0,,,,,,,54.0,,,,0,note_on,,50.0,54.0,50.0,387241,1613.5041666666666
10351,9.0,,,,,,,54.0,,,,56,note_on,,0.0,54.0,0.0,387297,1613.7375
10352,9.0,,,,,,,54.0,,,,4,note_on,,50.0,54.0,50.0,387301,1613.7541666666666
10353,9.0,,,,,,,42.0,,,,0,note_on,,66.0,42.0,66.0,387301,1613.7541666666666
10354,9.0,,,,,,,40.0,,,,0,note_on,,66.0,40.0,66.0,387301,1613.7541666666666
10355,9.0,,,,,,,54.0,,,,60,note_on,,0.0,54.0,0.0,387361,1614.0041666666666
10356,9.0,,,,,,,40.0,,,,60,note_on,,0.0,40.0,0.0,387421,1614.2541666666666
10357,9.0,,,,,,,42.0,,,,0,note_on,,0.0,42.0,0.0,387421,1614.2541666666666
10358,9.0,,,,,,,54.0,,,,0,note_on,,50.0,54.0,50.0,387421,1614.2541666666666
10359,9.0,,,,,,,54.0,,,,57,note_on,,0.0,54.0,0.0,387478,1614.4916666666666
10360,9.0,,,,,,,54.0,,,,3,note_on,,50.0,54.0,50.0,387481,1614.5041666666666
10361,9.0,,,,,,,42.0,,,,0,note_on,,66.0,42.0,66.0,387481,1614.5041666666666
10362,9.0,,,,,,,36.0,,,,0,note_on,,66.0,36.0,66.0,387481,1614.5041666666666
10363,9.0,,,,,,,54.0,,,,60,note_on,,0.0,54.0,0.0,387541,1614.7541666666666
10364,9.0,,,,,,,36.0,,,,60,note_on,,0.0,36.0,0.0,387601,1615.0041666666666
10365,9.0,,,,,,,42.0,,,,0,note_on,,0.0,42.0,0.0,387601,1615.0041666666666
10366,9.0,,,,,,,54.0,,,,0,note_on,,50.0,54.0,50.0,387601,1615.0041666666666
10367,9.0,,,,,,,54.0,,,,56,note_on,,0.0,54.0,0.0,387657,1615.2375
10368,9.0,,,,,,,54.0,,,,4,note_on,,50.0,54.0,50.0,387661,1615.2541666666666
10369,9.0,,,,,,,42.0,,,,0,note_on,,66.0,42.0,66.0,387661,1615.2541666666666
10370,9.0,,,,,,,40.0,,,,0,note_on,,66.0,40.0,66.0,387661,1615.2541666666666
10371,9.0,,,,,,,54.0,,,,60,note_on,,0.0,54.0,0.0,387721,1615.5041666666666
10372,9.0,,,,,,,40.0,,,,60,note_on,,0.0,40.0,0.0,387781,1615.7541666666666
10373,9.0,,,,,,,42.0,,,,0,note_on,,0.0,42.0,0.0,387781,1615.7541666666666
10374,9.0,,,,,,,54.0,,,,0,note_on,,50.0,54.0,50.0,387781,1615.7541666666666
10375,9.0,,,,,,,54.0,,,,57,note_on,,0.0,54.0,0.0,387838,1615.9916666666666
10376,9.0,,,,,,,54.0,,,,3,note_on,,50.0,54.0,50.0,387841,1616.0041666666666
10377,9.0,,,,,,,42.0,,,,0,note_on,,66.0,42.0,66.0,387841,1616.0041666666666
10378,9.0,,,,,,,36.0,,,,0,note_on,,66.0,36.0,66.0,387841,1616.0041666666666
10379,9.0,,,,,,,54.0,,,,60,note_on,,0.0,54.0,0.0,387901,1616.2541666666666
10380,9.0,,,,,,,54.0,,,,0,note_on,,50.0,54.0,50.0,387901,1616.2541666666666
10381,9.0,,,,,,,54.0,,,,56,note_on,,0.0,54.0,0.0,387957,1616.4875
10382,9.0,,,,,,,36.0,,,,4,note_on,,0.0,36.0,0.0,387961,1616.5041666666666
10383,9.0,,,,,,,42.0,,,,0,note_on,,0.0,42.0,0.0,387961,1616.5041666666666
10384,9.0,,,,,,,54.0,,,,0,note_on,,50.0,54.0,50.0,387961,1616.5041666666666
10385,9.0,,,,,,,54.0,,,,56,note_on,,0.0,54.0,0.0,388017,1616.7375
10386,9.0,,,,,,,54.0,,,,4,note_on,,50.0,54.0,50.0,388021,1616.7541666666666
10387,9.0,,,,,,,42.0,,,,0,note_on,,66.0,42.0,66.0,388021,1616.7541666666666
10388,9.0,,,,,,,40.0,,,,0,note_on,,66.0,40.0,66.0,388021,1616.7541666666666
10389,9.0,,,,,,,54.0,,,,60,note_on,,0.0,54.0,0.0,388081,1617.0041666666666
10390,9.0,,,,,,,54.0,,,,0,note_on,,50.0,54.0,50.0,388081,1617.0041666666666
10391,9.0,,,,,,,54.0,,,,56,note_on,,0.0,54.0,0.0,388137,1617.2375
10392,9.0,,,,,,,40.0,,,,4,note_on,,0.0,40.0,0.0,388141,1617.2541666666666
10393,9.0,,,,,,,42.0,,,,0,note_on,,0.0,42.0,0.0,388141,1617.2541666666666
10394,9.0,,,,,,,54.0,,,,0,note_on,,50.0,54.0,50.0,388141,1617.2541666666666
10395,9.0,,,,,,,54.0,,,,57,note_on,,0.0,54.0,0.0,388198,1617.4916666666666
10396,9.0,,,,,,,54.0,,,,3,note_on,,50.0,54.0,50.0,388201,1617.5041666666666
10397,9.0,,,,,,,42.0,,,,0,note_on,,66.0,42.0,66.0,388201,1617.5041666666666
10398,9.0,,,,,,,36.0,,,,0,note_on,,66.0,36.0,66.0,388201,1617.5041666666666
10399,9.0,,,,,,,54.0,,,,60,note_on,,0.0,54.0,0.0,388261,1617.7541666666666
10400,9.0,,,,,,,54.0,,,,0,note_on,,50.0,54.0,50.0,388261,1617.7541666666666
10401,9.0,,,,,,,54.0,,,,56,note_on,,0.0,54.0,0.0,388317,1617.9875
10402,9.0,,,,,,,36.0,,,,4,note_on,,0.0,36.0,0.0,388321,1618.0041666666666
10403,9.0,,,,,,,42.0,,,,0,note_on,,0.0,42.0,0.0,388321,1618.0041666666666
10404,9.0,,,,,,,54.0,,,,0,note_on,,50.0,54.0,50.0,388321,1618.0041666666666
10405,9.0,,,,,,,54.0,,,,56,note_on,,0.0,54.0,0.0,388377,1618.2375
10406,9.0,,,,,,,54.0,,,,4,note_on,,50.0,54.0,50.0,388381,1618.2541666666666
10407,9.0,,,,,,,42.0,,,,0,note_on,,66.0,42.0,66.0,388381,1618.2541666666666
10408,9.0,,,,,,,40.0,,,,0,note_on,,66.0,40.0,66.0,388381,1618.2541666666666
10409,9.0,,,,,,,54.0,,,,60,note_on,,0.0,54.0,0.0,388441,1618.5041666666666
10410,9.0,,,,,,,54.0,,,,0,note_on,,50.0,54.0,50.0,388441,1618.5041666666666
10411,9.0,,,,,,,54.0,,,,56,note_on,,0.0,54.0,0.0,388497,1618.7375
10412,9.0,,,,,,,40.0,,,,4,note_on,,0.0,40.0,0.0,388501,1618.7541666666666
10413,9.0,,,,,,,42.0,,,,0,note_on,,0.0,42.0,0.0,388501,1618.7541666666666
10414,9.0,,,,,,,54.0,,,,0,note_on,,50.0,54.0,50.0,388501,1618.7541666666666
10415,9.0,,,,,,,54.0,,,,57,note_on,,0.0,54.0,0.0,388558,1618.9916666666666
10416,9.0,,,,,,,49.0,,,,3,note_on,,50.0,49.0,50.0,388561,1619.0041666666666
10417,9.0,,,,,,,54.0,,,,0,note_on,,50.0,54.0,50.0,388561,1619.0041666666666
10418,9.0,,,,,,,42.0,,,,0,note_on,,66.0,42.0,66.0,388561,1619.0041666666666
10419,9.0,,,,,,,36.0,,,,0,note_on,,66.0,36.0,66.0,388561,1619.0041666666666
10420,9.0,,,,,,,49.0,,,,57,note_on,,0.0,49.0,0.0,388618,1619.2416666666666
10421,9.0,,,,,,,54.0,,,,3,note_on,,0.0,54.0,0.0,388621,1619.2541666666666
10422,9.0,,,,,,,42.0,,,,60,note_on,,0.0,42.0,0.0,388681,1619.5041666666666
10423,9.0,,,,,,,36.0,,,,0,note_on,,0.0,36.0,0.0,388681,1619.5041666666666
10424,9.0,,,,,,,42.0,,,,60,note_on,,66.0,42.0,66.0,388741,1619.7541666666666
10425,9.0,,,,,,,42.0,,,,120,note_on,,0.0,42.0,0.0,388861,1620.2541666666666
10426,9.0,,,,,,,42.0,,,,60,note_on,,66.0,42.0,66.0,388921,1620.5041666666666
10427,9.0,,,,,,,42.0,,,,120,note_on,,0.0,42.0,0.0,389041,1621.0041666666666
10428,9.0,,,,,,,42.0,,,,60,note_on,,66.0,42.0,66.0,389101,1621.2541666666666
10429,9.0,,,,,,,42.0,,,,120,note_on,,0.0,42.0,0.0,389221,1621.7541666666666
10430,9.0,,,,,,,42.0,,,,60,note_on,,66.0,42.0,66.0,389281,1622.0041666666666
10431,9.0,,,,,,,42.0,,,,120,note_on,,0.0,42.0,0.0,389401,1622.5041666666666
10432,9.0,,,,,,,42.0,,,,60,note_on,,76.0,42.0,76.0,389461,1622.7541666666666
10433,9.0,,,,,,,42.0,,,,57,note_on,,0.0,42.0,0.0,389518,1622.9916666666666
10434,9.0,,,,,,,42.0,,,,3,note_on,,77.0,42.0,77.0,389521,1623.0041666666666
10435,9.0,,,,,,,42.0,,,,57,note_on,,0.0,42.0,0.0,389578,1623.2416666666666
10436,9.0,,,,,,,42.0,,,,3,note_on,,79.0,42.0,79.0,389581,1623.2541666666666
10437,9.0,,,,,,,42.0,,,,57,note_on,,0.0,42.0,0.0,389638,1623.4916666666666
10438,9.0,,,,,,,42.0,,,,3,note_on,,66.0,42.0,66.0,389641,1623.5041666666666
10439,9.0,,,,,,,42.0,,,,120,note_on,,0.0,42.0,0.0,389761,1624.0041666666666
10440,9.0,,,,,,,42.0,,,,60,note_on,,66.0,42.0,66.0,389821,1624.2541666666666
10441,9.0,,,,,,,42.0,,,,120,note_on,,0.0,42.0,0.0,389941,1624.7541666666666
10442,9.0,,,,,,,42.0,,,,60,note_on,,66.0,42.0,66.0,390001,1625.0041666666666
10443,9.0,,,,,,,42.0,,,,120,note_on,,0.0,42.0,0.0,390121,1625.5041666666666
10444,9.0,,,,,,,42.0,,,,60,note_on,,66.0,42.0,66.0,390181,1625.7541666666666
10445,9.0,,,,,,,42.0,,,,120,note_on,,0.0,42.0,0.0,390301,1626.2541666666666
10446,9.0,,,,,,,42.0,,,,60,note_on,,66.0,42.0,66.0,390361,1626.5041666666666
10447,9.0,,,,,,,42.0,,,,120,note_on,,0.0,42.0,0.0,390481,1627.0041666666666
10448,9.0,,,,,,,42.0,,,,60,note_on,,66.0,42.0,66.0,390541,1627.2541666666666
10449,9.0,,,,,,,42.0,,,,120,note_on,,0.0,42.0,0.0,390661,1627.7541666666666
10450,9.0,,,,,,,42.0,,,,60,note_on,,66.0,42.0,66.0,390721,1628.0041666666666
10451,9.0,,,,,,,42.0,,,,120,note_on,,0.0,42.0,0.0,390841,1628.5041666666666
10452,9.0,,,,,,,42.0,,,,60,note_on,,66.0,42.0,66.0,390901,1628.7541666666666
10453,9.0,,,,,,,42.0,,,,120,note_on,,0.0,42.0,0.0,391021,1629.2541666666666
10454,9.0,,,,,,,42.0,,,,60,note_on,,66.0,42.0,66.0,391081,1629.5041666666666
10455,9.0,,,,,,,42.0,,,,120,note_on,,0.0,42.0,0.0,391201,1630.0041666666666
10456,9.0,,,,,,,42.0,,,,60,note_on,,66.0,42.0,66.0,391261,1630.2541666666666
10457,9.0,,,,,,,42.0,,,,120,note_on,,0.0,42.0,0.0,391381,1630.7541666666666
10458,9.0,,,,,,,42.0,,,,60,note_on,,66.0,42.0,66.0,391441,1631.0041666666666
10459,9.0,,,,,,,42.0,,,,120,note_on,,0.0,42.0,0.0,391561,1631.5041666666666
10460,9.0,,,,,,,42.0,,,,60,note_on,,66.0,42.0,66.0,391621,1631.7541666666666
10461,9.0,,,,,,,42.0,,,,120,note_on,,0.0,42.0,0.0,391741,1632.2541666666666
10462,9.0,,,,,,,42.0,,,,60,note_on,,66.0,42.0,66.0,391801,1632.5041666666666
10463,9.0,,,,,,,42.0,,,,120,note_on,,0.0,42.0,0.0,391921,1633.0041666666666
10464,9.0,,,,,,,42.0,,,,60,note_on,,66.0,42.0,66.0,391981,1633.2541666666666
10465,9.0,,,,,,,42.0,,,,120,note_on,,0.0,42.0,0.0,392101,1633.7541666666666
10466,9.0,,,,,,,42.0,,,,60,note_on,,66.0,42.0,66.0,392161,1634.0041666666666
10467,9.0,,,,,,,42.0,,,,120,note_on,,0.0,42.0,0.0,392281,1634.5041666666666
10468,9.0,,,,,,,40.0,,,,60,note_on,,66.0,40.0,66.0,392341,1634.7541666666666
10469,9.0,,,,,,,40.0,,,,60,note_on,,0.0,40.0,0.0,392401,1635.0041666666666
10470,9.0,,,,,,,40.0,,,,0,note_on,,66.0,40.0,66.0,392401,1635.0041666666666
10471,9.0,,,,,,,40.0,,,,60,note_on,,0.0,40.0,0.0,392461,1635.2541666666666
10472,9.0,,,,,,,40.0,,,,0,note_on,,66.0,40.0,66.0,392461,1635.2541666666666
10473,9.0,,,,,,,40.0,,,,60,note_on,,0.0,40.0,0.0,392521,1635.5041666666666
10474,9.0,,,,,,,42.0,,,,0,note_on,,66.0,42.0,66.0,392521,1635.5041666666666
10475,9.0,,,,,,,49.0,,,,0,note_on,,66.0,49.0,66.0,392521,1635.5041666666666
10476,9.0,,,,,,,36.0,,,,0,note_on,,66.0,36.0,66.0,392521,1635.5041666666666
10477,9.0,,,,,,,36.0,,,,120,note_on,,0.0,36.0,0.0,392641,1636.0041666666666
10478,9.0,,,,,,,49.0,,,,0,note_on,,0.0,49.0,0.0,392641,1636.0041666666666
10479,9.0,,,,,,,42.0,,,,0,note_on,,0.0,42.0,0.0,392641,1636.0041666666666
10480,9.0,,,,,,,42.0,,,,60,note_on,,66.0,42.0,66.0,392701,1636.2541666666666
10481,9.0,,,,,,,40.0,,,,0,note_on,,66.0,40.0,66.0,392701,1636.2541666666666
10482,9.0,,,,,,,40.0,,,,120,note_on,,0.0,40.0,0.0,392821,1636.7541666666666
10483,9.0,,,,,,,42.0,,,,0,note_on,,0.0,42.0,0.0,392821,1636.7541666666666
10484,9.0,,,,,,,42.0,,,,60,note_on,,66.0,42.0,66.0,392881,1637.0041666666666
10485,9.0,,,,,,,36.0,,,,0,note_on,,66.0,36.0,66.0,392881,1637.0041666666666
10486,9.0,,,,,,,36.0,,,,120,note_on,,0.0,36.0,0.0,393001,1637.5041666666666
10487,9.0,,,,,,,42.0,,,,0,note_on,,0.0,42.0,0.0,393001,1637.5041666666666
10488,9.0,,,,,,,42.0,,,,60,note_on,,66.0,42.0,66.0,393061,1637.7541666666666
10489,9.0,,,,,,,40.0,,,,0,note_on,,66.0,40.0,66.0,393061,1637.7541666666666
10490,9.0,,,,,,,40.0,,,,120,note_on,,0.0,40.0,0.0,393181,1638.2541666666666
10491,9.0,,,,,,,42.0,,,,0,note_on,,0.0,42.0,0.0,393181,1638.2541666666666
10492,9.0,,,,,,,42.0,,,,60,note_on,,66.0,42.0,66.0,393241,1638.5041666666666
10493,9.0,,,,,,,36.0,,,,0,note_on,,66.0,36.0,66.0,393241,1638.5041666666666
10494,9.0,,,,,,,36.0,,,,120,note_on,,0.0,36.0,0.0,393361,1639.0041666666666
10495,9.0,,,,,,,42.0,,,,0,note_on,,0.0,42.0,0.0,393361,1639.0041666666666
10496,9.0,,,,,,,42.0,,,,60,note_on,,66.0,42.0,66.0,393421,1639.2541666666666
10497,9.0,,,,,,,40.0,,,,0,note_on,,66.0,40.0,66.0,393421,1639.2541666666666
10498,9.0,,,,,,,40.0,,,,120,note_on,,0.0,40.0,0.0,393541,1639.7541666666666
10499,9.0,,,,,,,42.0,,,,0,note_on,,0.0,42.0,0.0,393541,1639.7541666666666
10500,9.0,,,,,,,42.0,,,,60,note_on,,66.0,42.0,66.0,393601,1640.0041666666666
10501,9.0,,,,,,,36.0,,,,0,note_on,,66.0,36.0,66.0,393601,1640.0041666666666
10502,9.0,,,,,,,36.0,,,,120,note_on,,0.0,36.0,0.0,393721,1640.5041666666666
10503,9.0,,,,,,,42.0,,,,0,note_on,,0.0,42.0,0.0,393721,1640.5041666666666
10504,9.0,,,,,,,42.0,,,,60,note_on,,66.0,42.0,66.0,393781,1640.7541666666666
10505,9.0,,,,,,,40.0,,,,0,note_on,,66.0,40.0,66.0,393781,1640.7541666666666
10506,9.0,,,,,,,40.0,,,,120,note_on,,0.0,40.0,0.0,393901,1641.2541666666666
10507,9.0,,,,,,,42.0,,,,0,note_on,,0.0,42.0,0.0,393901,1641.2541666666666
10508,9.0,,,,,,,42.0,,,,60,note_on,,66.0,42.0,66.0,393961,1641.5041666666666
10509,9.0,,,,,,,36.0,,,,0,note_on,,66.0,36.0,66.0,393961,1641.5041666666666
10510,9.0,,,,,,,36.0,,,,120,note_on,,0.0,36.0,0.0,394081,1642.0041666666666
10511,9.0,,,,,,,42.0,,,,0,note_on,,0.0,42.0,0.0,394081,1642.0041666666666
10512,9.0,,,,,,,42.0,,,,60,note_on,,66.0,42.0,66.0,394141,1642.2541666666666
10513,9.0,,,,,,,40.0,,,,0,note_on,,66.0,40.0,66.0,394141,1642.2541666666666
10514,9.0,,,,,,,40.0,,,,120,note_on,,0.0,40.0,0.0,394261,1642.7541666666666
10515,9.0,,,,,,,42.0,,,,0,note_on,,0.0,42.0,0.0,394261,1642.7541666666666
10516,9.0,,,,,,,42.0,,,,60,note_on,,66.0,42.0,66.0,394321,1643.0041666666666
10517,9.0,,,,,,,36.0,,,,0,note_on,,66.0,36.0,66.0,394321,1643.0041666666666
10518,9.0,,,,,,,36.0,,,,120,note_on,,0.0,36.0,0.0,394441,1643.5041666666666
10519,9.0,,,,,,,42.0,,,,0,note_on,,0.0,42.0,0.0,394441,1643.5041666666666
10520,9.0,,,,,,,42.0,,,,60,note_on,,66.0,42.0,66.0,394501,1643.7541666666666
10521,9.0,,,,,,,40.0,,,,0,note_on,,66.0,40.0,66.0,394501,1643.7541666666666
10522,9.0,,,,,,,40.0,,,,120,note_on,,0.0,40.0,0.0,394621,1644.2541666666666
10523,9.0,,,,,,,42.0,,,,0,note_on,,0.0,42.0,0.0,394621,1644.2541666666666
10524,9.0,,,,,,,42.0,,,,60,note_on,,66.0,42.0,66.0,394681,1644.5041666666666
10525,9.0,,,,,,,36.0,,,,0,note_on,,66.0,36.0,66.0,394681,1644.5041666666666
10526,9.0,,,,,,,36.0,,,,120,note_on,,0.0,36.0,0.0,394801,1645.0041666666666
10527,9.0,,,,,,,42.0,,,,0,note_on,,0.0,42.0,0.0,394801,1645.0041666666666
10528,9.0,,,,,,,40.0,,,,60,note_on,,66.0,40.0,66.0,394861,1645.2541666666666
10529,9.0,,,,,,,42.0,,,,0,note_on,,66.0,42.0,66.0,394861,1645.2541666666666
10530,9.0,,,,,,,42.0,,,,120,note_on,,0.0,42.0,0.0,394981,1645.7541666666666
10531,9.0,,,,,,,40.0,,,,0,note_on,,0.0,40.0,0.0,394981,1645.7541666666666
10532,9.0,,,,,,,42.0,,,,60,note_on,,66.0,42.0,66.0,395041,1646.0041666666666
10533,9.0,,,,,,,36.0,,,,0,note_on,,66.0,36.0,66.0,395041,1646.0041666666666
10534,9.0,,,,,,,36.0,,,,120,note_on,,0.0,36.0,0.0,395161,1646.5041666666666
10535,9.0,,,,,,,42.0,,,,0,note_on,,0.0,42.0,0.0,395161,1646.5041666666666
10536,9.0,,,,,,,42.0,,,,60,note_on,,66.0,42.0,66.0,395221,1646.7541666666666
10537,9.0,,,,,,,40.0,,,,0,note_on,,66.0,40.0,66.0,395221,1646.7541666666666
10538,9.0,,,,,,,40.0,,,,60,note_on,,0.0,40.0,0.0,395281,1647.0041666666666
10539,9.0,,,,,,,42.0,,,,0,note_on,,0.0,42.0,0.0,395281,1647.0041666666666
10540,9.0,,,,,,,42.0,,,,0,note_on,,66.0,42.0,66.0,395281,1647.0041666666666
10541,9.0,,,,,,,40.0,,,,0,note_on,,66.0,40.0,66.0,395281,1647.0041666666666
10542,9.0,,,,,,,40.0,,,,60,note_on,,0.0,40.0,0.0,395341,1647.2541666666666
10543,9.0,,,,,,,42.0,,,,0,note_on,,0.0,42.0,0.0,395341,1647.2541666666666
10544,9.0,,,,,,,42.0,,,,0,note_on,,66.0,42.0,66.0,395341,1647.2541666666666
10545,9.0,,,,,,,40.0,,,,0,note_on,,66.0,40.0,66.0,395341,1647.2541666666666
10546,9.0,,,,,,,40.0,,,,60,note_on,,0.0,40.0,0.0,395401,1647.5041666666666
10547,9.0,,,,,,,42.0,,,,0,note_on,,0.0,42.0,0.0,395401,1647.5041666666666
10548,9.0,,,,,,,49.0,,,,0,note_on,,62.0,49.0,62.0,395401,1647.5041666666666
10549,9.0,,,,,,,54.0,,,,0,note_on,,50.0,54.0,50.0,395401,1647.5041666666666
10550,9.0,,,,,,,42.0,,,,0,note_on,,66.0,42.0,66.0,395401,1647.5041666666666
10551,9.0,,,,,,,36.0,,,,0,note_on,,66.0,36.0,66.0,395401,1647.5041666666666
10552,9.0,,,,,,,54.0,,,,60,note_on,,0.0,54.0,0.0,395461,1647.7541666666666
10553,9.0,,,,,,,49.0,,,,60,note_on,,0.0,49.0,0.0,395521,1648.0041666666666
10554,9.0,,,,,,,42.0,,,,0,note_on,,0.0,42.0,0.0,395521,1648.0041666666666
10555,9.0,,,,,,,36.0,,,,0,note_on,,0.0,36.0,0.0,395521,1648.0041666666666
10556,9.0,,,,,,,54.0,,,,0,note_on,,50.0,54.0,50.0,395521,1648.0041666666666
10557,9.0,,,,,,,54.0,,,,56,note_on,,0.0,54.0,0.0,395577,1648.2375
10558,9.0,,,,,,,54.0,,,,4,note_on,,50.0,54.0,50.0,395581,1648.2541666666666
10559,9.0,,,,,,,42.0,,,,0,note_on,,66.0,42.0,66.0,395581,1648.2541666666666
10560,9.0,,,,,,,40.0,,,,0,note_on,,66.0,40.0,66.0,395581,1648.2541666666666
10561,9.0,,,,,,,54.0,,,,60,note_on,,0.0,54.0,0.0,395641,1648.5041666666666
10562,9.0,,,,,,,40.0,,,,60,note_on,,0.0,40.0,0.0,395701,1648.7541666666666
10563,9.0,,,,,,,42.0,,,,0,note_on,,0.0,42.0,0.0,395701,1648.7541666666666
10564,9.0,,,,,,,54.0,,,,0,note_on,,50.0,54.0,50.0,395701,1648.7541666666666
10565,9.0,,,,,,,54.0,,,,57,note_on,,0.0,54.0,0.0,395758,1648.9916666666666
10566,9.0,,,,,,,54.0,,,,3,note_on,,50.0,54.0,50.0,395761,1649.0041666666666
10567,9.0,,,,,,,42.0,,,,0,note_on,,66.0,42.0,66.0,395761,1649.0041666666666
10568,9.0,,,,,,,36.0,,,,0,note_on,,66.0,36.0,66.0,395761,1649.0041666666666
10569,9.0,,,,,,,54.0,,,,60,note_on,,0.0,54.0,0.0,395821,1649.2541666666666
10570,9.0,,,,,,,36.0,,,,60,note_on,,0.0,36.0,0.0,395881,1649.5041666666666
10571,9.0,,,,,,,42.0,,,,0,note_on,,0.0,42.0,0.0,395881,1649.5041666666666
10572,9.0,,,,,,,54.0,,,,0,note_on,,50.0,54.0,50.0,395881,1649.5041666666666
10573,9.0,,,,,,,54.0,,,,56,note_on,,0.0,54.0,0.0,395937,1649.7375
10574,9.0,,,,,,,54.0,,,,4,note_on,,50.0,54.0,50.0,395941,1649.7541666666666
10575,9.0,,,,,,,42.0,,,,0,note_on,,66.0,42.0,66.0,395941,1649.7541666666666
10576,9.0,,,,,,,40.0,,,,0,note_on,,66.0,40.0,66.0,395941,1649.7541666666666
10577,9.0,,,,,,,54.0,,,,60,note_on,,0.0,54.0,0.0,396001,1650.0041666666666
10578,9.0,,,,,,,40.0,,,,60,note_on,,0.0,40.0,0.0,396061,1650.2541666666666
10579,9.0,,,,,,,42.0,,,,0,note_on,,0.0,42.0,0.0,396061,1650.2541666666666
10580,9.0,,,,,,,54.0,,,,0,note_on,,50.0,54.0,50.0,396061,1650.2541666666666
10581,9.0,,,,,,,54.0,,,,57,note_on,,0.0,54.0,0.0,396118,1650.4916666666666
10582,9.0,,,,,,,54.0,,,,3,note_on,,50.0,54.0,50.0,396121,1650.5041666666666
10583,9.0,,,,,,,42.0,,,,0,note_on,,66.0,42.0,66.0,396121,1650.5041666666666
10584,9.0,,,,,,,36.0,,,,0,note_on,,66.0,36.0,66.0,396121,1650.5041666666666
10585,9.0,,,,,,,54.0,,,,60,note_on,,0.0,54.0,0.0,396181,1650.7541666666666
10586,9.0,,,,,,,36.0,,,,60,note_on,,0.0,36.0,0.0,396241,1651.0041666666666
10587,9.0,,,,,,,42.0,,,,0,note_on,,0.0,42.0,0.0,396241,1651.0041666666666
10588,9.0,,,,,,,54.0,,,,0,note_on,,50.0,54.0,50.0,396241,1651.0041666666666
10589,9.0,,,,,,,54.0,,,,56,note_on,,0.0,54.0,0.0,396297,1651.2375
10590,9.0,,,,,,,54.0,,,,4,note_on,,50.0,54.0,50.0,396301,1651.2541666666666
10591,9.0,,,,,,,42.0,,,,0,note_on,,66.0,42.0,66.0,396301,1651.2541666666666
10592,9.0,,,,,,,40.0,,,,0,note_on,,66.0,40.0,66.0,396301,1651.2541666666666
10593,9.0,,,,,,,54.0,,,,60,note_on,,0.0,54.0,0.0,396361,1651.5041666666666
10594,9.0,,,,,,,40.0,,,,60,note_on,,0.0,40.0,0.0,396421,1651.7541666666666
10595,9.0,,,,,,,42.0,,,,0,note_on,,0.0,42.0,0.0,396421,1651.7541666666666
10596,9.0,,,,,,,54.0,,,,0,note_on,,50.0,54.0,50.0,396421,1651.7541666666666
10597,9.0,,,,,,,54.0,,,,57,note_on,,0.0,54.0,0.0,396478,1651.9916666666666
10598,9.0,,,,,,,54.0,,,,3,note_on,,50.0,54.0,50.0,396481,1652.0041666666666
10599,9.0,,,,,,,42.0,,,,0,note_on,,66.0,42.0,66.0,396481,1652.0041666666666
10600,9.0,,,,,,,36.0,,,,0,note_on,,66.0,36.0,66.0,396481,1652.0041666666666
10601,9.0,,,,,,,54.0,,,,60,note_on,,0.0,54.0,0.0,396541,1652.2541666666666
10602,9.0,,,,,,,36.0,,,,60,note_on,,0.0,36.0,0.0,396601,1652.5041666666666
10603,9.0,,,,,,,42.0,,,,0,note_on,,0.0,42.0,0.0,396601,1652.5041666666666
10604,9.0,,,,,,,54.0,,,,0,note_on,,50.0,54.0,50.0,396601,1652.5041666666666
10605,9.0,,,,,,,54.0,,,,56,note_on,,0.0,54.0,0.0,396657,1652.7375
10606,9.0,,,,,,,54.0,,,,4,note_on,,50.0,54.0,50.0,396661,1652.7541666666666
10607,9.0,,,,,,,42.0,,,,0,note_on,,66.0,42.0,66.0,396661,1652.7541666666666
10608,9.0,,,,,,,40.0,,,,0,note_on,,66.0,40.0,66.0,396661,1652.7541666666666
10609,9.0,,,,,,,54.0,,,,60,note_on,,0.0,54.0,0.0,396721,1653.0041666666666
10610,9.0,,,,,,,40.0,,,,60,note_on,,0.0,40.0,0.0,396781,1653.2541666666666
10611,9.0,,,,,,,42.0,,,,0,note_on,,0.0,42.0,0.0,396781,1653.2541666666666
10612,9.0,,,,,,,54.0,,,,0,note_on,,50.0,54.0,50.0,396781,1653.2541666666666
10613,9.0,,,,,,,54.0,,,,57,note_on,,0.0,54.0,0.0,396838,1653.4916666666666
10614,9.0,,,,,,,54.0,,,,3,note_on,,50.0,54.0,50.0,396841,1653.5041666666666
10615,9.0,,,,,,,42.0,,,,0,note_on,,66.0,42.0,66.0,396841,1653.5041666666666
10616,9.0,,,,,,,36.0,,,,0,note_on,,66.0,36.0,66.0,396841,1653.5041666666666
10617,9.0,,,,,,,54.0,,,,60,note_on,,0.0,54.0,0.0,396901,1653.7541666666666
10618,9.0,,,,,,,36.0,,,,60,note_on,,0.0,36.0,0.0,396961,1654.0041666666666
10619,9.0,,,,,,,42.0,,,,0,note_on,,0.0,42.0,0.0,396961,1654.0041666666666
10620,9.0,,,,,,,54.0,,,,0,note_on,,50.0,54.0,50.0,396961,1654.0041666666666
10621,9.0,,,,,,,54.0,,,,56,note_on,,0.0,54.0,0.0,397017,1654.2375
10622,9.0,,,,,,,54.0,,,,4,note_on,,50.0,54.0,50.0,397021,1654.2541666666666
10623,9.0,,,,,,,42.0,,,,0,note_on,,66.0,42.0,66.0,397021,1654.2541666666666
10624,9.0,,,,,,,40.0,,,,0,note_on,,66.0,40.0,66.0,397021,1654.2541666666666
10625,9.0,,,,,,,54.0,,,,60,note_on,,0.0,54.0,0.0,397081,1654.5041666666666
10626,9.0,,,,,,,40.0,,,,60,note_on,,0.0,40.0,0.0,397141,1654.7541666666666
10627,9.0,,,,,,,42.0,,,,0,note_on,,0.0,42.0,0.0,397141,1654.7541666666666
10628,9.0,,,,,,,54.0,,,,0,note_on,,50.0,54.0,50.0,397141,1654.7541666666666
10629,9.0,,,,,,,54.0,,,,57,note_on,,0.0,54.0,0.0,397198,1654.9916666666666
10630,9.0,,,,,,,54.0,,,,3,note_on,,50.0,54.0,50.0,397201,1655.0041666666666
10631,9.0,,,,,,,42.0,,,,0,note_on,,66.0,42.0,66.0,397201,1655.0041666666666
10632,9.0,,,,,,,36.0,,,,0,note_on,,66.0,36.0,66.0,397201,1655.0041666666666
10633,9.0,,,,,,,54.0,,,,60,note_on,,0.0,54.0,0.0,397261,1655.2541666666666
10634,9.0,,,,,,,36.0,,,,60,note_on,,0.0,36.0,0.0,397321,1655.5041666666666
10635,9.0,,,,,,,42.0,,,,0,note_on,,0.0,42.0,0.0,397321,1655.5041666666666
10636,9.0,,,,,,,54.0,,,,0,note_on,,50.0,54.0,50.0,397321,1655.5041666666666
10637,9.0,,,,,,,54.0,,,,56,note_on,,0.0,54.0,0.0,397377,1655.7375
10638,9.0,,,,,,,54.0,,,,4,note_on,,50.0,54.0,50.0,397381,1655.7541666666666
10639,9.0,,,,,,,42.0,,,,0,note_on,,66.0,42.0,66.0,397381,1655.7541666666666
10640,9.0,,,,,,,40.0,,,,0,note_on,,66.0,40.0,66.0,397381,1655.7541666666666
10641,9.0,,,,,,,54.0,,,,60,note_on,,0.0,54.0,0.0,397441,1656.0041666666666
10642,9.0,,,,,,,40.0,,,,60,note_on,,0.0,40.0,0.0,397501,1656.2541666666666
10643,9.0,,,,,,,42.0,,,,0,note_on,,0.0,42.0,0.0,397501,1656.2541666666666
10644,9.0,,,,,,,54.0,,,,0,note_on,,50.0,54.0,50.0,397501,1656.2541666666666
10645,9.0,,,,,,,54.0,,,,57,note_on,,0.0,54.0,0.0,397558,1656.4916666666666
10646,9.0,,,,,,,54.0,,,,3,note_on,,50.0,54.0,50.0,397561,1656.5041666666666
10647,9.0,,,,,,,42.0,,,,0,note_on,,66.0,42.0,66.0,397561,1656.5041666666666
10648,9.0,,,,,,,36.0,,,,0,note_on,,66.0,36.0,66.0,397561,1656.5041666666666
10649,9.0,,,,,,,54.0,,,,60,note_on,,0.0,54.0,0.0,397621,1656.7541666666666
10650,9.0,,,,,,,54.0,,,,0,note_on,,50.0,54.0,50.0,397621,1656.7541666666666
10651,9.0,,,,,,,54.0,,,,56,note_on,,0.0,54.0,0.0,397677,1656.9875
10652,9.0,,,,,,,36.0,,,,4,note_on,,0.0,36.0,0.0,397681,1657.0041666666666
10653,9.0,,,,,,,42.0,,,,0,note_on,,0.0,42.0,0.0,397681,1657.0041666666666
10654,9.0,,,,,,,54.0,,,,0,note_on,,50.0,54.0,50.0,397681,1657.0041666666666
10655,9.0,,,,,,,54.0,,,,56,note_on,,0.0,54.0,0.0,397737,1657.2375
10656,9.0,,,,,,,54.0,,,,4,note_on,,50.0,54.0,50.0,397741,1657.2541666666666
10657,9.0,,,,,,,42.0,,,,0,note_on,,66.0,42.0,66.0,397741,1657.2541666666666
10658,9.0,,,,,,,40.0,,,,0,note_on,,66.0,40.0,66.0,397741,1657.2541666666666
10659,9.0,,,,,,,54.0,,,,60,note_on,,0.0,54.0,0.0,397801,1657.5041666666666
10660,9.0,,,,,,,54.0,,,,0,note_on,,50.0,54.0,50.0,397801,1657.5041666666666
10661,9.0,,,,,,,54.0,,,,56,note_on,,0.0,54.0,0.0,397857,1657.7375
10662,9.0,,,,,,,40.0,,,,4,note_on,,0.0,40.0,0.0,397861,1657.7541666666666
10663,9.0,,,,,,,42.0,,,,0,note_on,,0.0,42.0,0.0,397861,1657.7541666666666
10664,9.0,,,,,,,54.0,,,,0,note_on,,50.0,54.0,50.0,397861,1657.7541666666666
10665,9.0,,,,,,,54.0,,,,57,note_on,,0.0,54.0,0.0,397918,1657.9916666666666
10666,9.0,,,,,,,54.0,,,,3,note_on,,50.0,54.0,50.0,397921,1658.0041666666666
10667,9.0,,,,,,,42.0,,,,0,note_on,,66.0,42.0,66.0,397921,1658.0041666666666
10668,9.0,,,,,,,36.0,,,,0,note_on,,66.0,36.0,66.0,397921,1658.0041666666666
10669,9.0,,,,,,,54.0,,,,60,note_on,,0.0,54.0,0.0,397981,1658.2541666666666
10670,9.0,,,,,,,54.0,,,,0,note_on,,50.0,54.0,50.0,397981,1658.2541666666666
10671,9.0,,,,,,,54.0,,,,56,note_on,,0.0,54.0,0.0,398037,1658.4875
10672,9.0,,,,,,,36.0,,,,4,note_on,,0.0,36.0,0.0,398041,1658.5041666666666
10673,9.0,,,,,,,42.0,,,,0,note_on,,0.0,42.0,0.0,398041,1658.5041666666666
10674,9.0,,,,,,,54.0,,,,0,note_on,,50.0,54.0,50.0,398041,1658.5041666666666
10675,9.0,,,,,,,54.0,,,,56,note_on,,0.0,54.0,0.0,398097,1658.7375
10676,9.0,,,,,,,54.0,,,,4,note_on,,50.0,54.0,50.0,398101,1658.7541666666666
10677,9.0,,,,,,,42.0,,,,0,note_on,,66.0,42.0,66.0,398101,1658.7541666666666
10678,9.0,,,,,,,40.0,,,,0,note_on,,66.0,40.0,66.0,398101,1658.7541666666666
10679,9.0,,,,,,,54.0,,,,60,note_on,,0.0,54.0,0.0,398161,1659.0041666666666
10680,9.0,,,,,,,54.0,,,,0,note_on,,50.0,54.0,50.0,398161,1659.0041666666666
10681,9.0,,,,,,,54.0,,,,56,note_on,,0.0,54.0,0.0,398217,1659.2375
10682,9.0,,,,,,,40.0,,,,4,note_on,,0.0,40.0,0.0,398221,1659.2541666666666
10683,9.0,,,,,,,42.0,,,,0,note_on,,0.0,42.0,0.0,398221,1659.2541666666666
10684,9.0,,,,,,,54.0,,,,0,note_on,,50.0,54.0,50.0,398221,1659.2541666666666
10685,9.0,,,,,,,54.0,,,,57,note_on,,0.0,54.0,0.0,398278,1659.4916666666666
10686,9.0,,,,,,,49.0,,,,3,note_on,,50.0,49.0,50.0,398281,1659.5041666666666
10687,9.0,,,,,,,54.0,,,,0,note_on,,50.0,54.0,50.0,398281,1659.5041666666666
10688,9.0,,,,,,,42.0,,,,0,note_on,,66.0,42.0,66.0,398281,1659.5041666666666
10689,9.0,,,,,,,36.0,,,,0,note_on,,66.0,36.0,66.0,398281,1659.5041666666666
10690,9.0,,,,,,,49.0,,,,57,note_on,,0.0,49.0,0.0,398338,1659.7416666666666
10691,9.0,,,,,,,54.0,,,,3,note_on,,0.0,54.0,0.0,398341,1659.7541666666666
10692,9.0,,,,,,,42.0,,,,60,note_on,,0.0,42.0,0.0,398401,1660.0041666666666
10693,9.0,,,,,,,36.0,,,,0,note_on,,0.0,36.0,0.0,398401,1660.0041666666666
10694,,,,,,,,,,,,0,end_of_track,,,,,398401,1660.0041666666666
