,channel,clocks_per_click,control,denominator,name,notated_32nd_notes_per_beat,note,numerator,pitch,program,tempo,text,time,type,value,velocity,note_midi_value,note_velocity,note_time,note_seconds
0,,,,,,,,,,,631578.0,,0,set_tempo,,,,,0,0.0
1,,,,,,,,,,,,,0,track_name,,,,,0,0.0
2,,9.0,,4.0,,163.0,,4.0,,,,,0,time_signature,,,,,0,0.0
3,,,,,,,,,,,,Intro,0,marker,,,,,0,0.0
4,,,,,,,,,,,,Verse,17280,marker,,,,,17280,18.0
5,,,,,,,,,,,,Chorus,15360,marker,,,,,32640,34.0
6,,,,,,,,,,,,Keyboard solo...,15360,marker,,,,,48000,50.0
7,,,,,,,,,,,,Verse,11520,marker,,,,,59520,62.0
8,,,,,,,,,,,,Chorus,15360,marker,,,,,74880,78.0
9,,,,,,,,,,,,Break,15360,marker,,,,,90240,94.0
10,,,,,,,,,,,,Keyboard solo,7680,marker,,,,,97920,102.0
11,,,,,,,,,,,,Verse,7680,marker,,,,,105600,110.0
12,,,,,,,,,,,,Keyboard solo,7680,marker,,,,,113280,118.0
13,,,,,,,,,,,,Verse£,3840,marker,,,,,117120,122.0
14,,,,,,,,,,,,Chorus,7680,marker,,,,,124800,130.0
15,,,,,,,,,,,,Guitar solo,15360,marker,,,,,140160,146.0
16,,,,,,,,,,,,Chorus x2,26880,marker,,,,,167040,174.0
17,,,,,,,,,,,,,0,end_of_track,,,,,167040,174.0
18,,,,,Track 1,,,,,,,,0,track_name,,,,,167040,174.0
19,1.0,,100.0,,,,,,,,,,0,control_change,0.0,,,,167040,174.0
20,1.0,,101.0,,,,,,,,,,0,control_change,0.0,,,,167040,174.0
21,1.0,,6.0,,,,,,,,,,0,control_change,12.0,,,,167040,174.0
22,1.0,,,,,,,,0.0,,,,0,pitchwheel,,,,,167040,174.0
23,1.0,,101.0,,,,,,,,,,0,control_change,0.0,,,,167040,174.0
24,1.0,,100.0,,,,,,,,,,0,control_change,1.0,,,,167040,174.0
25,1.0,,6.0,,,,,,,,,,0,control_change,64.0,,,,167040,174.0
26,1.0,,38.0,,,,,,,,,,0,control_change,0.0,,,,167040,174.0
27,1.0,,101.0,,,,,,,,,,0,control_change,127.0,,,,167040,174.0
28,1.0,,100.0,,,,,,,,,,0,control_change,127.0,,,,167040,174.0
29,0.0,,100.0,,,,,,,,,,0,control_change,0.0,,,,167040,174.0
30,0.0,,101.0,,,,,,,,,,0,control_change,0.0,,,,167040,174.0
31,0.0,,6.0,,,,,,,,,,0,control_change,12.0,,,,167040,174.0
32,0.0,,,,,,,,0.0,,,,0,pitchwheel,,,,,167040,174.0
33,0.0,,101.0,,,,,,,,,,0,control_change,0.0,,,,167040,174.0
34,0.0,,100.0,,,,,,,,,,0,control_change,1.0,,,,167040,174.0
35,0.0,,6.0,,,,,,,,,,0,control_change,64.0,,,,167040,174.0
36,0.0,,38.0,,,,,,,,,,0,control_change,0.0,,,,167040,174.0
37,0.0,,101.0,,,,,,,,,,0,control_change,127.0,,,,167040,174.0
38,0.0,,100.0,,,,,,,,,,0,control_change,127.0,,,,167040,174.0
39,1.0,,101.0,,,,,,,,,,0,control_change,0.0,,,,167040,174.0
40,1.0,,100.0,,,,,,,,,,0,control_change,2.0,,,,167040,174.0
41,1.0,,6.0,,,,,,,,,,0,control_change,64.0,,,,167040,174.0
42,1.0,,101.0,,,,,,,,,,0,control_change,127.0,,,,167040,174.0
43,1.0,,100.0,,,,,,,,,,0,control_change,127.0,,,,167040,174.0
44,0.0,,101.0,,,,,,,,,,0,control_change,0.0,,,,167040,174.0
45,0.0,,100.0,,,,,,,,,,0,control_change,2.0,,,,167040,174.0
46,0.0,,6.0,,,,,,,,,,0,control_change,64.0,,,,167040,174.0
47,0.0,,101.0,,,,,,,,,,0,control_change,127.0,,,,167040,174.0
48,0.0,,100.0,,,,,,,,,,0,control_change,127.0,,,,167040,174.0
49,1.0,,,,,,,,,30.0,,,0,program_change,,,,,167040,174.0
50,0.0,,,,,,,,,30.0,,,0,program_change,,,,,167040,174.0
51,1.0,,0.0,,,,,,,,,,0,control_change,0.0,,,,167040,174.0
52,0.0,,0.0,,,,,,,,,,0,control_change,0.0,,,,167040,174.0
53,1.0,,7.0,,,,,,,,,,0,control_change,127.0,,,,167040,174.0
54,0.0,,7.0,,,,,,,,,,0,control_change,127.0,,,,167040,174.0
55,1.0,,10.0,,,,,,,,,,0,control_change,64.0,,,,167040,174.0
56,0.0,,10.0,,,,,,,,,,0,control_change,64.0,,,,167040,174.0
57,1.0,,93.0,,,,,,,,,,0,control_change,0.0,,,,167040,174.0
58,0.0,,93.0,,,,,,,,,,0,control_change,0.0,,,,167040,174.0
59,1.0,,91.0,,,,,,,,,,0,control_change,0.0,,,,167040,174.0
60,0.0,,91.0,,,,,,,,,,0,control_change,0.0,,,,167040,174.0
61,1.0,,92.0,,,,,,,,,,0,control_change,0.0,,,,167040,174.0
62,0.0,,92.0,,,,,,,,,,0,control_change,0.0,,,,167040,174.0
63,1.0,,95.0,,,,,,,,,,0,control_change,0.0,,,,167040,174.0
64,0.0,,95.0,,,,,,,,,,0,control_change,0.0,,,,167040,174.0
65,0.0,,,,,,52.0,,,,,,1920,note_on,,76.0,52.0,76.0,168960,176.0
66,0.0,,,,,,47.0,,,,,,0,note_on,,76.0,47.0,76.0,168960,176.0
67,0.0,,,,,,40.0,,,,,,0,note_on,,76.0,40.0,76.0,168960,176.0
68,0.0,,,,,,52.0,,,,,,360,note_off,,80.0,52.0,80.0,169320,176.375
69,0.0,,,,,,47.0,,,,,,0,note_off,,80.0,47.0,80.0,169320,176.375
70,0.0,,,,,,40.0,,,,,,0,note_off,,80.0,40.0,80.0,169320,176.375
71,0.0,,,,,,52.0,,,,,,120,note_on,,76.0,52.0,76.0,169440,176.5
72,0.0,,,,,,47.0,,,,,,0,note_on,,76.0,47.0,76.0,169440,176.5
73,0.0,,,,,,40.0,,,,,,0,note_on,,76.0,40.0,76.0,169440,176.5
74,0.0,,,,,,52.0,,,,,,360,note_off,,80.0,52.0,80.0,169800,176.875
75,0.0,,,,,,47.0,,,,,,0,note_off,,80.0,47.0,80.0,169800,176.875
76,0.0,,,,,,40.0,,,,,,0,note_off,,80.0,40.0,80.0,169800,176.875
77,0.0,,,,,,52.0,,,,,,120,note_on,,76.0,52.0,76.0,169920,177.0
78,0.0,,,,,,47.0,,,,,,0,note_on,,76.0,47.0,76.0,169920,177.0
79,0.0,,,,,,40.0,,,,,,0,note_on,,76.0,40.0,76.0,169920,177.0
80,0.0,,,,,,52.0,,,,,,360,note_off,,80.0,52.0,80.0,170280,177.375
81,0.0,,,,,,47.0,,,,,,0,note_off,,80.0,47.0,80.0,170280,177.375
82,0.0,,,,,,40.0,,,,,,0,note_off,,80.0,40.0,80.0,170280,177.375
83,0.0,,,,,,52.0,,,,,,120,note_on,,76.0,52.0,76.0,170400,177.5
84,0.0,,,,,,47.0,,,,,,0,note_on,,76.0,47.0,76.0,170400,177.5
85,0.0,,,,,,40.0,,,,,,0,note_on,,76.0,40.0,76.0,170400,177.5
86,0.0,,,,,,52.0,,,,,,360,note_off,,80.0,52.0,80.0,170760,177.875
87,0.0,,,,,,47.0,,,,,,0,note_off,,80.0,47.0,80.0,170760,177.875
88,0.0,,,,,,40.0,,,,,,0,note_off,,80.0,40.0,80.0,170760,177.875
89,0.0,,,,,,52.0,,,,,,120,note_on,,76.0,52.0,76.0,170880,178.0
90,0.0,,,,,,47.0,,,,,,0,note_on,,76.0,47.0,76.0,170880,178.0
91,0.0,,,,,,40.0,,,,,,0,note_on,,76.0,40.0,76.0,170880,178.0
92,0.0,,,,,,52.0,,,,,,360,note_off,,80.0,52.0,80.0,171240,178.375
93,0.0,,,,,,47.0,,,,,,0,note_off,,80.0,47.0,80.0,171240,178.375
94,0.0,,,,,,40.0,,,,,,0,note_off,,80.0,40.0,80.0,171240,178.375
95,0.0,,,,,,52.0,,,,,,120,note_on,,76.0,52.0,76.0,171360,178.5
96,0.0,,,,,,47.0,,,,,,0,note_on,,76.0,47.0,76.0,171360,178.5
97,0.0,,,,,,40.0,,,,,,0,note_on,,76.0,40.0,76.0,171360,178.5
98,0.0,,,,,,52.0,,,,,,360,note_off,,80.0,52.0,80.0,171720,178.875
99,0.0,,,,,,47.0,,,,,,0,note_off,,80.0,47.0,80.0,171720,178.875
100,0.0,,,,,,40.0,,,,,,0,note_off,,80.0,40.0,80.0,171720,178.875
101,0.0,,,,,,52.0,,,,,,120,note_on,,76.0,52.0,76.0,171840,179.0
102,0.0,,,,,,47.0,,,,,,0,note_on,,76.0,47.0,76.0,171840,179.0
103,0.0,,,,,,40.0,,,,,,0,note_on,,76.0,40.0,76.0,171840,179.0
104,0.0,,,,,,52.0,,,,,,360,note_off,,80.0,52.0,80.0,172200,179.375
105,0.0,,,,,,47.0,,,,,,0,note_off,,80.0,47.0,80.0,172200,179.375
106,0.0,,,,,,40.0,,,,,,0,note_off,,80.0,40.0,80.0,172200,179.375
107,0.0,,,,,,52.0,,,,,,120,note_on,,95.0,52.0,95.0,172320,179.5
108,0.0,,,,,,47.0,,,,,,0,note_on,,95.0,47.0,95.0,172320,179.5
109,0.0,,,,,,40.0,,,,,,0,note_on,,95.0,40.0,95.0,172320,179.5
110,0.0,,,,,,52.0,,,,,,120,note_off,,80.0,52.0,80.0,172440,179.625
111,0.0,,,,,,47.0,,,,,,0,note_off,,80.0,47.0,80.0,172440,179.625
112,0.0,,,,,,40.0,,,,,,0,note_off,,80.0,40.0,80.0,172440,179.625
113,0.0,,,,,,55.0,,,,,,0,note_on,,95.0,55.0,95.0,172440,179.625
114,0.0,,,,,,50.0,,,,,,0,note_on,,95.0,50.0,95.0,172440,179.625
115,0.0,,,,,,43.0,,,,,,0,note_on,,95.0,43.0,95.0,172440,179.625
116,0.0,,,,,,55.0,,,,,,360,note_off,,80.0,55.0,80.0,172800,180.0
117,0.0,,,,,,50.0,,,,,,0,note_off,,80.0,50.0,80.0,172800,180.0
118,0.0,,,,,,43.0,,,,,,0,note_off,,80.0,43.0,80.0,172800,180.0
119,0.0,,,,,,52.0,,,,,,0,note_on,,95.0,52.0,95.0,172800,180.0
120,0.0,,,,,,47.0,,,,,,0,note_on,,95.0,47.0,95.0,172800,180.0
121,0.0,,,,,,40.0,,,,,,0,note_on,,95.0,40.0,95.0,172800,180.0
122,0.0,,,,,,52.0,,,,,,240,note_off,,80.0,52.0,80.0,173040,180.25
123,0.0,,,,,,47.0,,,,,,0,note_off,,80.0,47.0,80.0,173040,180.25
124,0.0,,,,,,40.0,,,,,,0,note_off,,80.0,40.0,80.0,173040,180.25
125,0.0,,,,,,52.0,,,,,,240,note_on,,76.0,52.0,76.0,173280,180.5
126,0.0,,,,,,47.0,,,,,,0,note_on,,76.0,47.0,76.0,173280,180.5
127,0.0,,,,,,40.0,,,,,,0,note_on,,76.0,40.0,76.0,173280,180.5
128,0.0,,,,,,52.0,,,,,,360,note_off,,80.0,52.0,80.0,173640,180.875
129,0.0,,,,,,47.0,,,,,,0,note_off,,80.0,47.0,80.0,173640,180.875
130,0.0,,,,,,40.0,,,,,,0,note_off,,80.0,40.0,80.0,173640,180.875
131,0.0,,,,,,52.0,,,,,,120,note_on,,76.0,52.0,76.0,173760,181.0
132,0.0,,,,,,47.0,,,,,,0,note_on,,76.0,47.0,76.0,173760,181.0
133,0.0,,,,,,40.0,,,,,,0,note_on,,76.0,40.0,76.0,173760,181.0
134,0.0,,,,,,52.0,,,,,,360,note_off,,80.0,52.0,80.0,174120,181.375
135,0.0,,,,,,47.0,,,,,,0,note_off,,80.0,47.0,80.0,174120,181.375
136,0.0,,,,,,40.0,,,,,,0,note_off,,80.0,40.0,80.0,174120,181.375
137,0.0,,,,,,52.0,,,,,,120,note_on,,76.0,52.0,76.0,174240,181.5
138,0.0,,,,,,47.0,,,,,,0,note_on,,76.0,47.0,76.0,174240,181.5
139,0.0,,,,,,40.0,,,,,,0,note_on,,76.0,40.0,76.0,174240,181.5
140,0.0,,,,,,52.0,,,,,,360,note_off,,80.0,52.0,80.0,174600,181.875
141,0.0,,,,,,47.0,,,,,,0,note_off,,80.0,47.0,80.0,174600,181.875
142,0.0,,,,,,40.0,,,,,,0,note_off,,80.0,40.0,80.0,174600,181.875
143,0.0,,,,,,52.0,,,,,,120,note_on,,76.0,52.0,76.0,174720,182.0
144,0.0,,,,,,47.0,,,,,,0,note_on,,76.0,47.0,76.0,174720,182.0
145,0.0,,,,,,40.0,,,,,,0,note_on,,76.0,40.0,76.0,174720,182.0
146,0.0,,,,,,52.0,,,,,,360,note_off,,80.0,52.0,80.0,175080,182.375
147,0.0,,,,,,47.0,,,,,,0,note_off,,80.0,47.0,80.0,175080,182.375
148,0.0,,,,,,40.0,,,,,,0,note_off,,80.0,40.0,80.0,175080,182.375
149,0.0,,,,,,52.0,,,,,,120,note_on,,76.0,52.0,76.0,175200,182.5
150,0.0,,,,,,47.0,,,,,,0,note_on,,76.0,47.0,76.0,175200,182.5
151,0.0,,,,,,40.0,,,,,,0,note_on,,76.0,40.0,76.0,175200,182.5
152,0.0,,,,,,52.0,,,,,,360,note_off,,80.0,52.0,80.0,175560,182.875
153,0.0,,,,,,47.0,,,,,,0,note_off,,80.0,47.0,80.0,175560,182.875
154,0.0,,,,,,40.0,,,,,,0,note_off,,80.0,40.0,80.0,175560,182.875
155,0.0,,,,,,52.0,,,,,,120,note_on,,76.0,52.0,76.0,175680,183.0
156,0.0,,,,,,47.0,,,,,,0,note_on,,76.0,47.0,76.0,175680,183.0
157,0.0,,,,,,40.0,,,,,,0,note_on,,76.0,40.0,76.0,175680,183.0
158,0.0,,,,,,52.0,,,,,,360,note_off,,80.0,52.0,80.0,176040,183.375
159,0.0,,,,,,47.0,,,,,,0,note_off,,80.0,47.0,80.0,176040,183.375
160,0.0,,,,,,40.0,,,,,,0,note_off,,80.0,40.0,80.0,176040,183.375
161,0.0,,,,,,52.0,,,,,,120,note_on,,95.0,52.0,95.0,176160,183.5
162,0.0,,,,,,47.0,,,,,,0,note_on,,95.0,47.0,95.0,176160,183.5
163,0.0,,,,,,40.0,,,,,,0,note_on,,95.0,40.0,95.0,176160,183.5
164,0.0,,,,,,52.0,,,,,,120,note_off,,80.0,52.0,80.0,176280,183.625
165,0.0,,,,,,47.0,,,,,,0,note_off,,80.0,47.0,80.0,176280,183.625
166,0.0,,,,,,40.0,,,,,,0,note_off,,80.0,40.0,80.0,176280,183.625
167,0.0,,,,,,55.0,,,,,,0,note_on,,95.0,55.0,95.0,176280,183.625
168,0.0,,,,,,50.0,,,,,,0,note_on,,95.0,50.0,95.0,176280,183.625
169,0.0,,,,,,43.0,,,,,,0,note_on,,95.0,43.0,95.0,176280,183.625
170,0.0,,,,,,55.0,,,,,,360,note_off,,80.0,55.0,80.0,176640,184.0
171,0.0,,,,,,50.0,,,,,,0,note_off,,80.0,50.0,80.0,176640,184.0
172,0.0,,,,,,43.0,,,,,,0,note_off,,80.0,43.0,80.0,176640,184.0
173,0.0,,,,,,52.0,,,,,,0,note_on,,95.0,52.0,95.0,176640,184.0
174,0.0,,,,,,47.0,,,,,,0,note_on,,95.0,47.0,95.0,176640,184.0
175,0.0,,,,,,40.0,,,,,,0,note_on,,95.0,40.0,95.0,176640,184.0
176,0.0,,,,,,52.0,,,,,,240,note_off,,80.0,52.0,80.0,176880,184.25
177,0.0,,,,,,47.0,,,,,,0,note_off,,80.0,47.0,80.0,176880,184.25
178,0.0,,,,,,40.0,,,,,,0,note_off,,80.0,40.0,80.0,176880,184.25
179,0.0,,,,,,52.0,,,,,,240,note_on,,76.0,52.0,76.0,177120,184.5
180,0.0,,,,,,47.0,,,,,,0,note_on,,76.0,47.0,76.0,177120,184.5
181,0.0,,,,,,40.0,,,,,,0,note_on,,76.0,40.0,76.0,177120,184.5
182,0.0,,,,,,52.0,,,,,,360,note_off,,80.0,52.0,80.0,177480,184.875
183,0.0,,,,,,47.0,,,,,,0,note_off,,80.0,47.0,80.0,177480,184.875
184,0.0,,,,,,40.0,,,,,,0,note_off,,80.0,40.0,80.0,177480,184.875
185,0.0,,,,,,52.0,,,,,,120,note_on,,76.0,52.0,76.0,177600,185.0
186,0.0,,,,,,47.0,,,,,,0,note_on,,76.0,47.0,76.0,177600,185.0
187,0.0,,,,,,40.0,,,,,,0,note_on,,76.0,40.0,76.0,177600,185.0
188,0.0,,,,,,52.0,,,,,,360,note_off,,80.0,52.0,80.0,177960,185.375
189,0.0,,,,,,47.0,,,,,,0,note_off,,80.0,47.0,80.0,177960,185.375
190,0.0,,,,,,40.0,,,,,,0,note_off,,80.0,40.0,80.0,177960,185.375
191,0.0,,,,,,52.0,,,,,,120,note_on,,76.0,52.0,76.0,178080,185.5
192,0.0,,,,,,47.0,,,,,,0,note_on,,76.0,47.0,76.0,178080,185.5
193,0.0,,,,,,40.0,,,,,,0,note_on,,76.0,40.0,76.0,178080,185.5
194,0.0,,,,,,52.0,,,,,,360,note_off,,80.0,52.0,80.0,178440,185.875
195,0.0,,,,,,47.0,,,,,,0,note_off,,80.0,47.0,80.0,178440,185.875
196,0.0,,,,,,40.0,,,,,,0,note_off,,80.0,40.0,80.0,178440,185.875
197,0.0,,,,,,52.0,,,,,,120,note_on,,76.0,52.0,76.0,178560,186.0
198,0.0,,,,,,47.0,,,,,,0,note_on,,76.0,47.0,76.0,178560,186.0
199,0.0,,,,,,40.0,,,,,,0,note_on,,76.0,40.0,76.0,178560,186.0
200,0.0,,,,,,52.0,,,,,,360,note_off,,80.0,52.0,80.0,178920,186.375
201,0.0,,,,,,47.0,,,,,,0,note_off,,80.0,47.0,80.0,178920,186.375
202,0.0,,,,,,40.0,,,,,,0,note_off,,80.0,40.0,80.0,178920,186.375
203,0.0,,,,,,52.0,,,,,,120,note_on,,76.0,52.0,76.0,179040,186.5
204,0.0,,,,,,47.0,,,,,,0,note_on,,76.0,47.0,76.0,179040,186.5
205,0.0,,,,,,40.0,,,,,,0,note_on,,76.0,40.0,76.0,179040,186.5
206,0.0,,,,,,52.0,,,,,,360,note_off,,80.0,52.0,80.0,179400,186.875
207,0.0,,,,,,47.0,,,,,,0,note_off,,80.0,47.0,80.0,179400,186.875
208,0.0,,,,,,40.0,,,,,,0,note_off,,80.0,40.0,80.0,179400,186.875
209,0.0,,,,,,52.0,,,,,,120,note_on,,76.0,52.0,76.0,179520,187.0
210,0.0,,,,,,47.0,,,,,,0,note_on,,76.0,47.0,76.0,179520,187.0
211,0.0,,,,,,40.0,,,,,,0,note_on,,76.0,40.0,76.0,179520,187.0
212,0.0,,,,,,52.0,,,,,,360,note_off,,80.0,52.0,80.0,179880,187.375
213,0.0,,,,,,47.0,,,,,,0,note_off,,80.0,47.0,80.0,179880,187.375
214,0.0,,,,,,40.0,,,,,,0,note_off,,80.0,40.0,80.0,179880,187.375
215,0.0,,,,,,52.0,,,,,,120,note_on,,95.0,52.0,95.0,180000,187.5
216,0.0,,,,,,47.0,,,,,,0,note_on,,95.0,47.0,95.0,180000,187.5
217,0.0,,,,,,40.0,,,,,,0,note_on,,95.0,40.0,95.0,180000,187.5
218,0.0,,,,,,52.0,,,,,,120,note_off,,80.0,52.0,80.0,180120,187.625
219,0.0,,,,,,47.0,,,,,,0,note_off,,80.0,47.0,80.0,180120,187.625
220,0.0,,,,,,40.0,,,,,,0,note_off,,80.0,40.0,80.0,180120,187.625
221,0.0,,,,,,55.0,,,,,,0,note_on,,95.0,55.0,95.0,180120,187.625
222,0.0,,,,,,50.0,,,,,,0,note_on,,95.0,50.0,95.0,180120,187.625
223,0.0,,,,,,43.0,,,,,,0,note_on,,95.0,43.0,95.0,180120,187.625
224,0.0,,,,,,55.0,,,,,,360,note_off,,80.0,55.0,80.0,180480,188.0
225,0.0,,,,,,50.0,,,,,,0,note_off,,80.0,50.0,80.0,180480,188.0
226,0.0,,,,,,43.0,,,,,,0,note_off,,80.0,43.0,80.0,180480,188.0
227,0.0,,,,,,52.0,,,,,,0,note_on,,95.0,52.0,95.0,180480,188.0
228,0.0,,,,,,47.0,,,,,,0,note_on,,95.0,47.0,95.0,180480,188.0
229,0.0,,,,,,40.0,,,,,,0,note_on,,95.0,40.0,95.0,180480,188.0
230,0.0,,,,,,52.0,,,,,,240,note_off,,80.0,52.0,80.0,180720,188.25
231,0.0,,,,,,47.0,,,,,,0,note_off,,80.0,47.0,80.0,180720,188.25
232,0.0,,,,,,40.0,,,,,,0,note_off,,80.0,40.0,80.0,180720,188.25
233,0.0,,,,,,52.0,,,,,,240,note_on,,76.0,52.0,76.0,180960,188.5
234,0.0,,,,,,47.0,,,,,,0,note_on,,76.0,47.0,76.0,180960,188.5
235,0.0,,,,,,40.0,,,,,,0,note_on,,76.0,40.0,76.0,180960,188.5
236,0.0,,,,,,52.0,,,,,,360,note_off,,80.0,52.0,80.0,181320,188.875
237,0.0,,,,,,47.0,,,,,,0,note_off,,80.0,47.0,80.0,181320,188.875
238,0.0,,,,,,40.0,,,,,,0,note_off,,80.0,40.0,80.0,181320,188.875
239,0.0,,,,,,52.0,,,,,,120,note_on,,76.0,52.0,76.0,181440,189.0
240,0.0,,,,,,47.0,,,,,,0,note_on,,76.0,47.0,76.0,181440,189.0
241,0.0,,,,,,40.0,,,,,,0,note_on,,76.0,40.0,76.0,181440,189.0
242,0.0,,,,,,52.0,,,,,,360,note_off,,80.0,52.0,80.0,181800,189.375
243,0.0,,,,,,47.0,,,,,,0,note_off,,80.0,47.0,80.0,181800,189.375
244,0.0,,,,,,40.0,,,,,,0,note_off,,80.0,40.0,80.0,181800,189.375
245,0.0,,,,,,52.0,,,,,,120,note_on,,76.0,52.0,76.0,181920,189.5
246,0.0,,,,,,47.0,,,,,,0,note_on,,76.0,47.0,76.0,181920,189.5
247,0.0,,,,,,40.0,,,,,,0,note_on,,76.0,40.0,76.0,181920,189.5
248,0.0,,,,,,52.0,,,,,,360,note_off,,80.0,52.0,80.0,182280,189.875
249,0.0,,,,,,47.0,,,,,,0,note_off,,80.0,47.0,80.0,182280,189.875
250,0.0,,,,,,40.0,,,,,,0,note_off,,80.0,40.0,80.0,182280,189.875
251,0.0,,,,,,52.0,,,,,,120,note_on,,76.0,52.0,76.0,182400,190.0
252,0.0,,,,,,47.0,,,,,,0,note_on,,76.0,47.0,76.0,182400,190.0
253,0.0,,,,,,40.0,,,,,,0,note_on,,76.0,40.0,76.0,182400,190.0
254,0.0,,,,,,52.0,,,,,,360,note_off,,80.0,52.0,80.0,182760,190.375
255,0.0,,,,,,47.0,,,,,,0,note_off,,80.0,47.0,80.0,182760,190.375
256,0.0,,,,,,40.0,,,,,,0,note_off,,80.0,40.0,80.0,182760,190.375
257,0.0,,,,,,52.0,,,,,,120,note_on,,76.0,52.0,76.0,182880,190.5
258,0.0,,,,,,47.0,,,,,,0,note_on,,76.0,47.0,76.0,182880,190.5
259,0.0,,,,,,40.0,,,,,,0,note_on,,76.0,40.0,76.0,182880,190.5
260,0.0,,,,,,52.0,,,,,,360,note_off,,80.0,52.0,80.0,183240,190.875
261,0.0,,,,,,47.0,,,,,,0,note_off,,80.0,47.0,80.0,183240,190.875
262,0.0,,,,,,40.0,,,,,,0,note_off,,80.0,40.0,80.0,183240,190.875
263,0.0,,,,,,52.0,,,,,,120,note_on,,76.0,52.0,76.0,183360,191.0
264,0.0,,,,,,47.0,,,,,,0,note_on,,76.0,47.0,76.0,183360,191.0
265,0.0,,,,,,40.0,,,,,,0,note_on,,76.0,40.0,76.0,183360,191.0
266,0.0,,,,,,52.0,,,,,,360,note_off,,80.0,52.0,80.0,183720,191.375
267,0.0,,,,,,47.0,,,,,,0,note_off,,80.0,47.0,80.0,183720,191.375
268,0.0,,,,,,40.0,,,,,,0,note_off,,80.0,40.0,80.0,183720,191.375
269,0.0,,,,,,52.0,,,,,,120,note_on,,95.0,52.0,95.0,183840,191.5
270,0.0,,,,,,47.0,,,,,,0,note_on,,95.0,47.0,95.0,183840,191.5
271,0.0,,,,,,40.0,,,,,,0,note_on,,95.0,40.0,95.0,183840,191.5
272,0.0,,,,,,52.0,,,,,,120,note_off,,80.0,52.0,80.0,183960,191.625
273,0.0,,,,,,47.0,,,,,,0,note_off,,80.0,47.0,80.0,183960,191.625
274,0.0,,,,,,40.0,,,,,,0,note_off,,80.0,40.0,80.0,183960,191.625
275,0.0,,,,,,55.0,,,,,,0,note_on,,95.0,55.0,95.0,183960,191.625
276,0.0,,,,,,50.0,,,,,,0,note_on,,95.0,50.0,95.0,183960,191.625
277,0.0,,,,,,43.0,,,,,,0,note_on,,95.0,43.0,95.0,183960,191.625
278,0.0,,,,,,55.0,,,,,,360,note_off,,80.0,55.0,80.0,184320,192.0
279,0.0,,,,,,50.0,,,,,,0,note_off,,80.0,50.0,80.0,184320,192.0
280,0.0,,,,,,43.0,,,,,,0,note_off,,80.0,43.0,80.0,184320,192.0
281,0.0,,,,,,52.0,,,,,,0,note_on,,95.0,52.0,95.0,184320,192.0
282,0.0,,,,,,47.0,,,,,,0,note_on,,95.0,47.0,95.0,184320,192.0
283,0.0,,,,,,40.0,,,,,,0,note_on,,95.0,40.0,95.0,184320,192.0
284,0.0,,,,,,52.0,,,,,,240,note_off,,80.0,52.0,80.0,184560,192.25
285,0.0,,,,,,47.0,,,,,,0,note_off,,80.0,47.0,80.0,184560,192.25
286,0.0,,,,,,40.0,,,,,,0,note_off,,80.0,40.0,80.0,184560,192.25
287,0.0,,,,,,52.0,,,,,,240,note_on,,76.0,52.0,76.0,184800,192.5
288,0.0,,,,,,47.0,,,,,,0,note_on,,76.0,47.0,76.0,184800,192.5
289,0.0,,,,,,40.0,,,,,,0,note_on,,76.0,40.0,76.0,184800,192.5
290,0.0,,,,,,52.0,,,,,,360,note_off,,80.0,52.0,80.0,185160,192.875
291,0.0,,,,,,47.0,,,,,,0,note_off,,80.0,47.0,80.0,185160,192.875
292,0.0,,,,,,40.0,,,,,,0,note_off,,80.0,40.0,80.0,185160,192.875
293,0.0,,,,,,52.0,,,,,,120,note_on,,76.0,52.0,76.0,185280,193.0
294,0.0,,,,,,47.0,,,,,,0,note_on,,76.0,47.0,76.0,185280,193.0
295,0.0,,,,,,40.0,,,,,,0,note_on,,76.0,40.0,76.0,185280,193.0
296,0.0,,,,,,52.0,,,,,,360,note_off,,80.0,52.0,80.0,185640,193.375
297,0.0,,,,,,47.0,,,,,,0,note_off,,80.0,47.0,80.0,185640,193.375
298,0.0,,,,,,40.0,,,,,,0,note_off,,80.0,40.0,80.0,185640,193.375
299,0.0,,,,,,52.0,,,,,,120,note_on,,76.0,52.0,76.0,185760,193.5
300,0.0,,,,,,47.0,,,,,,0,note_on,,76.0,47.0,76.0,185760,193.5
301,0.0,,,,,,40.0,,,,,,0,note_on,,76.0,40.0,76.0,185760,193.5
302,0.0,,,,,,52.0,,,,,,360,note_off,,80.0,52.0,80.0,186120,193.875
303,0.0,,,,,,47.0,,,,,,0,note_off,,80.0,47.0,80.0,186120,193.875
304,0.0,,,,,,40.0,,,,,,0,note_off,,80.0,40.0,80.0,186120,193.875
305,0.0,,,,,,52.0,,,,,,120,note_on,,76.0,52.0,76.0,186240,194.0
306,0.0,,,,,,47.0,,,,,,0,note_on,,76.0,47.0,76.0,186240,194.0
307,0.0,,,,,,40.0,,,,,,0,note_on,,76.0,40.0,76.0,186240,194.0
308,0.0,,,,,,52.0,,,,,,360,note_off,,80.0,52.0,80.0,186600,194.375
309,0.0,,,,,,47.0,,,,,,0,note_off,,80.0,47.0,80.0,186600,194.375
310,0.0,,,,,,40.0,,,,,,0,note_off,,80.0,40.0,80.0,186600,194.375
311,0.0,,,,,,52.0,,,,,,120,note_on,,76.0,52.0,76.0,186720,194.5
312,0.0,,,,,,47.0,,,,,,0,note_on,,76.0,47.0,76.0,186720,194.5
313,0.0,,,,,,40.0,,,,,,0,note_on,,76.0,40.0,76.0,186720,194.5
314,0.0,,,,,,52.0,,,,,,360,note_off,,80.0,52.0,80.0,187080,194.875
315,0.0,,,,,,47.0,,,,,,0,note_off,,80.0,47.0,80.0,187080,194.875
316,0.0,,,,,,40.0,,,,,,0,note_off,,80.0,40.0,80.0,187080,194.875
317,0.0,,,,,,52.0,,,,,,120,note_on,,76.0,52.0,76.0,187200,195.0
318,0.0,,,,,,47.0,,,,,,0,note_on,,76.0,47.0,76.0,187200,195.0
319,0.0,,,,,,40.0,,,,,,0,note_on,,76.0,40.0,76.0,187200,195.0
320,0.0,,,,,,52.0,,,,,,360,note_off,,80.0,52.0,80.0,187560,195.375
321,0.0,,,,,,47.0,,,,,,0,note_off,,80.0,47.0,80.0,187560,195.375
322,0.0,,,,,,40.0,,,,,,0,note_off,,80.0,40.0,80.0,187560,195.375
323,0.0,,,,,,52.0,,,,,,120,note_on,,95.0,52.0,95.0,187680,195.5
324,0.0,,,,,,47.0,,,,,,0,note_on,,95.0,47.0,95.0,187680,195.5
325,0.0,,,,,,40.0,,,,,,0,note_on,,95.0,40.0,95.0,187680,195.5
326,0.0,,,,,,52.0,,,,,,120,note_off,,80.0,52.0,80.0,187800,195.625
327,0.0,,,,,,47.0,,,,,,0,note_off,,80.0,47.0,80.0,187800,195.625
328,0.0,,,,,,40.0,,,,,,0,note_off,,80.0,40.0,80.0,187800,195.625
329,0.0,,,,,,55.0,,,,,,0,note_on,,95.0,55.0,95.0,187800,195.625
330,0.0,,,,,,50.0,,,,,,0,note_on,,95.0,50.0,95.0,187800,195.625
331,0.0,,,,,,43.0,,,,,,0,note_on,,95.0,43.0,95.0,187800,195.625
332,0.0,,,,,,55.0,,,,,,360,note_off,,80.0,55.0,80.0,188160,196.0
333,0.0,,,,,,50.0,,,,,,0,note_off,,80.0,50.0,80.0,188160,196.0
334,0.0,,,,,,43.0,,,,,,0,note_off,,80.0,43.0,80.0,188160,196.0
335,0.0,,,,,,52.0,,,,,,0,note_on,,95.0,52.0,95.0,188160,196.0
336,0.0,,,,,,47.0,,,,,,0,note_on,,95.0,47.0,95.0,188160,196.0
337,0.0,,,,,,40.0,,,,,,0,note_on,,95.0,40.0,95.0,188160,196.0
338,0.0,,,,,,52.0,,,,,,240,note_off,,80.0,52.0,80.0,188400,196.25
339,0.0,,,,,,47.0,,,,,,0,note_off,,80.0,47.0,80.0,188400,196.25
340,0.0,,,,,,40.0,,,,,,0,note_off,,80.0,40.0,80.0,188400,196.25
341,0.0,,,,,,52.0,,,,,,240,note_on,,76.0,52.0,76.0,188640,196.5
342,0.0,,,,,,47.0,,,,,,0,note_on,,76.0,47.0,76.0,188640,196.5
343,0.0,,,,,,40.0,,,,,,0,note_on,,76.0,40.0,76.0,188640,196.5
344,0.0,,,,,,52.0,,,,,,360,note_off,,80.0,52.0,80.0,189000,196.875
345,0.0,,,,,,47.0,,,,,,0,note_off,,80.0,47.0,80.0,189000,196.875
346,0.0,,,,,,40.0,,,,,,0,note_off,,80.0,40.0,80.0,189000,196.875
347,0.0,,,,,,52.0,,,,,,120,note_on,,76.0,52.0,76.0,189120,197.0
348,0.0,,,,,,47.0,,,,,,0,note_on,,76.0,47.0,76.0,189120,197.0
349,0.0,,,,,,40.0,,,,,,0,note_on,,76.0,40.0,76.0,189120,197.0
350,0.0,,,,,,52.0,,,,,,360,note_off,,80.0,52.0,80.0,189480,197.375
351,0.0,,,,,,47.0,,,,,,0,note_off,,80.0,47.0,80.0,189480,197.375
352,0.0,,,,,,40.0,,,,,,0,note_off,,80.0,40.0,80.0,189480,197.375
353,0.0,,,,,,52.0,,,,,,120,note_on,,76.0,52.0,76.0,189600,197.5
354,0.0,,,,,,47.0,,,,,,0,note_on,,76.0,47.0,76.0,189600,197.5
355,0.0,,,,,,40.0,,,,,,0,note_on,,76.0,40.0,76.0,189600,197.5
356,0.0,,,,,,52.0,,,,,,360,note_off,,80.0,52.0,80.0,189960,197.875
357,0.0,,,,,,47.0,,,,,,0,note_off,,80.0,47.0,80.0,189960,197.875
358,0.0,,,,,,40.0,,,,,,0,note_off,,80.0,40.0,80.0,189960,197.875
359,0.0,,,,,,52.0,,,,,,120,note_on,,76.0,52.0,76.0,190080,198.0
360,0.0,,,,,,47.0,,,,,,0,note_on,,76.0,47.0,76.0,190080,198.0
361,0.0,,,,,,40.0,,,,,,0,note_on,,76.0,40.0,76.0,190080,198.0
362,0.0,,,,,,52.0,,,,,,360,note_off,,80.0,52.0,80.0,190440,198.375
363,0.0,,,,,,47.0,,,,,,0,note_off,,80.0,47.0,80.0,190440,198.375
364,0.0,,,,,,40.0,,,,,,0,note_off,,80.0,40.0,80.0,190440,198.375
365,0.0,,,,,,52.0,,,,,,120,note_on,,76.0,52.0,76.0,190560,198.5
366,0.0,,,,,,47.0,,,,,,0,note_on,,76.0,47.0,76.0,190560,198.5
367,0.0,,,,,,40.0,,,,,,0,note_on,,76.0,40.0,76.0,190560,198.5
368,0.0,,,,,,52.0,,,,,,360,note_off,,80.0,52.0,80.0,190920,198.875
369,0.0,,,,,,47.0,,,,,,0,note_off,,80.0,47.0,80.0,190920,198.875
370,0.0,,,,,,40.0,,,,,,0,note_off,,80.0,40.0,80.0,190920,198.875
371,0.0,,,,,,52.0,,,,,,120,note_on,,76.0,52.0,76.0,191040,199.0
372,0.0,,,,,,47.0,,,,,,0,note_on,,76.0,47.0,76.0,191040,199.0
373,0.0,,,,,,40.0,,,,,,0,note_on,,76.0,40.0,76.0,191040,199.0
374,0.0,,,,,,52.0,,,,,,360,note_off,,80.0,52.0,80.0,191400,199.375
375,0.0,,,,,,47.0,,,,,,0,note_off,,80.0,47.0,80.0,191400,199.375
376,0.0,,,,,,40.0,,,,,,0,note_off,,80.0,40.0,80.0,191400,199.375
377,0.0,,,,,,52.0,,,,,,120,note_on,,95.0,52.0,95.0,191520,199.5
378,0.0,,,,,,47.0,,,,,,0,note_on,,95.0,47.0,95.0,191520,199.5
379,0.0,,,,,,40.0,,,,,,0,note_on,,95.0,40.0,95.0,191520,199.5
380,0.0,,,,,,52.0,,,,,,120,note_off,,80.0,52.0,80.0,191640,199.625
381,0.0,,,,,,47.0,,,,,,0,note_off,,80.0,47.0,80.0,191640,199.625
382,0.0,,,,,,40.0,,,,,,0,note_off,,80.0,40.0,80.0,191640,199.625
383,0.0,,,,,,55.0,,,,,,0,note_on,,95.0,55.0,95.0,191640,199.625
384,0.0,,,,,,50.0,,,,,,0,note_on,,95.0,50.0,95.0,191640,199.625
385,0.0,,,,,,43.0,,,,,,0,note_on,,95.0,43.0,95.0,191640,199.625
386,0.0,,,,,,55.0,,,,,,360,note_off,,80.0,55.0,80.0,192000,200.0
387,0.0,,,,,,50.0,,,,,,0,note_off,,80.0,50.0,80.0,192000,200.0
388,0.0,,,,,,43.0,,,,,,0,note_off,,80.0,43.0,80.0,192000,200.0
389,0.0,,,,,,52.0,,,,,,0,note_on,,95.0,52.0,95.0,192000,200.0
390,0.0,,,,,,47.0,,,,,,0,note_on,,95.0,47.0,95.0,192000,200.0
391,0.0,,,,,,40.0,,,,,,0,note_on,,95.0,40.0,95.0,192000,200.0
392,0.0,,,,,,52.0,,,,,,240,note_off,,80.0,52.0,80.0,192240,200.25
393,0.0,,,,,,47.0,,,,,,0,note_off,,80.0,47.0,80.0,192240,200.25
394,0.0,,,,,,40.0,,,,,,0,note_off,,80.0,40.0,80.0,192240,200.25
395,0.0,,,,,,52.0,,,,,,240,note_on,,76.0,52.0,76.0,192480,200.5
396,0.0,,,,,,47.0,,,,,,0,note_on,,76.0,47.0,76.0,192480,200.5
397,0.0,,,,,,40.0,,,,,,0,note_on,,76.0,40.0,76.0,192480,200.5
398,0.0,,,,,,52.0,,,,,,360,note_off,,80.0,52.0,80.0,192840,200.875
399,0.0,,,,,,47.0,,,,,,0,note_off,,80.0,47.0,80.0,192840,200.875
400,0.0,,,,,,40.0,,,,,,0,note_off,,80.0,40.0,80.0,192840,200.875
401,0.0,,,,,,52.0,,,,,,120,note_on,,76.0,52.0,76.0,192960,201.0
402,0.0,,,,,,47.0,,,,,,0,note_on,,76.0,47.0,76.0,192960,201.0
403,0.0,,,,,,40.0,,,,,,0,note_on,,76.0,40.0,76.0,192960,201.0
404,0.0,,,,,,52.0,,,,,,360,note_off,,80.0,52.0,80.0,193320,201.375
405,0.0,,,,,,47.0,,,,,,0,note_off,,80.0,47.0,80.0,193320,201.375
406,0.0,,,,,,40.0,,,,,,0,note_off,,80.0,40.0,80.0,193320,201.375
407,0.0,,,,,,52.0,,,,,,120,note_on,,76.0,52.0,76.0,193440,201.5
408,0.0,,,,,,47.0,,,,,,0,note_on,,76.0,47.0,76.0,193440,201.5
409,0.0,,,,,,40.0,,,,,,0,note_on,,76.0,40.0,76.0,193440,201.5
410,0.0,,,,,,52.0,,,,,,360,note_off,,80.0,52.0,80.0,193800,201.875
411,0.0,,,,,,47.0,,,,,,0,note_off,,80.0,47.0,80.0,193800,201.875
412,0.0,,,,,,40.0,,,,,,0,note_off,,80.0,40.0,80.0,193800,201.875
413,0.0,,,,,,52.0,,,,,,120,note_on,,76.0,52.0,76.0,193920,202.0
414,0.0,,,,,,47.0,,,,,,0,note_on,,76.0,47.0,76.0,193920,202.0
415,0.0,,,,,,40.0,,,,,,0,note_on,,76.0,40.0,76.0,193920,202.0
416,0.0,,,,,,52.0,,,,,,360,note_off,,80.0,52.0,80.0,194280,202.375
417,0.0,,,,,,47.0,,,,,,0,note_off,,80.0,47.0,80.0,194280,202.375
418,0.0,,,,,,40.0,,,,,,0,note_off,,80.0,40.0,80.0,194280,202.375
419,0.0,,,,,,52.0,,,,,,120,note_on,,76.0,52.0,76.0,194400,202.5
420,0.0,,,,,,47.0,,,,,,0,note_on,,76.0,47.0,76.0,194400,202.5
421,0.0,,,,,,40.0,,,,,,0,note_on,,76.0,40.0,76.0,194400,202.5
422,0.0,,,,,,52.0,,,,,,360,note_off,,80.0,52.0,80.0,194760,202.875
423,0.0,,,,,,47.0,,,,,,0,note_off,,80.0,47.0,80.0,194760,202.875
424,0.0,,,,,,40.0,,,,,,0,note_off,,80.0,40.0,80.0,194760,202.875
425,0.0,,,,,,52.0,,,,,,120,note_on,,76.0,52.0,76.0,194880,203.0
426,0.0,,,,,,47.0,,,,,,0,note_on,,76.0,47.0,76.0,194880,203.0
427,0.0,,,,,,40.0,,,,,,0,note_on,,76.0,40.0,76.0,194880,203.0
428,0.0,,,,,,52.0,,,,,,360,note_off,,80.0,52.0,80.0,195240,203.375
429,0.0,,,,,,47.0,,,,,,0,note_off,,80.0,47.0,80.0,195240,203.375
430,0.0,,,,,,40.0,,,,,,0,note_off,,80.0,40.0,80.0,195240,203.375
431,0.0,,,,,,52.0,,,,,,120,note_on,,95.0,52.0,95.0,195360,203.5
432,0.0,,,,,,47.0,,,,,,0,note_on,,95.0,47.0,95.0,195360,203.5
433,0.0,,,,,,40.0,,,,,,0,note_on,,95.0,40.0,95.0,195360,203.5
434,0.0,,,,,,52.0,,,,,,120,note_off,,80.0,52.0,80.0,195480,203.625
435,0.0,,,,,,47.0,,,,,,0,note_off,,80.0,47.0,80.0,195480,203.625
436,0.0,,,,,,40.0,,,,,,0,note_off,,80.0,40.0,80.0,195480,203.625
437,0.0,,,,,,55.0,,,,,,0,note_on,,95.0,55.0,95.0,195480,203.625
438,0.0,,,,,,50.0,,,,,,0,note_on,,95.0,50.0,95.0,195480,203.625
439,0.0,,,,,,43.0,,,,,,0,note_on,,95.0,43.0,95.0,195480,203.625
440,0.0,,,,,,55.0,,,,,,360,note_off,,80.0,55.0,80.0,195840,204.0
441,0.0,,,,,,50.0,,,,,,0,note_off,,80.0,50.0,80.0,195840,204.0
442,0.0,,,,,,43.0,,,,,,0,note_off,,80.0,43.0,80.0,195840,204.0
443,0.0,,,,,,52.0,,,,,,0,note_on,,95.0,52.0,95.0,195840,204.0
444,0.0,,,,,,47.0,,,,,,0,note_on,,95.0,47.0,95.0,195840,204.0
445,0.0,,,,,,40.0,,,,,,0,note_on,,95.0,40.0,95.0,195840,204.0
446,0.0,,,,,,52.0,,,,,,240,note_off,,80.0,52.0,80.0,196080,204.25
447,0.0,,,,,,47.0,,,,,,0,note_off,,80.0,47.0,80.0,196080,204.25
448,0.0,,,,,,40.0,,,,,,0,note_off,,80.0,40.0,80.0,196080,204.25
449,0.0,,,,,,52.0,,,,,,240,note_on,,76.0,52.0,76.0,196320,204.5
450,0.0,,,,,,47.0,,,,,,0,note_on,,76.0,47.0,76.0,196320,204.5
451,0.0,,,,,,40.0,,,,,,0,note_on,,76.0,40.0,76.0,196320,204.5
452,0.0,,,,,,52.0,,,,,,360,note_off,,80.0,52.0,80.0,196680,204.875
453,0.0,,,,,,47.0,,,,,,0,note_off,,80.0,47.0,80.0,196680,204.875
454,0.0,,,,,,40.0,,,,,,0,note_off,,80.0,40.0,80.0,196680,204.875
455,0.0,,,,,,52.0,,,,,,120,note_on,,76.0,52.0,76.0,196800,205.0
456,0.0,,,,,,47.0,,,,,,0,note_on,,76.0,47.0,76.0,196800,205.0
457,0.0,,,,,,40.0,,,,,,0,note_on,,76.0,40.0,76.0,196800,205.0
458,0.0,,,,,,52.0,,,,,,360,note_off,,80.0,52.0,80.0,197160,205.375
459,0.0,,,,,,47.0,,,,,,0,note_off,,80.0,47.0,80.0,197160,205.375
460,0.0,,,,,,40.0,,,,,,0,note_off,,80.0,40.0,80.0,197160,205.375
461,0.0,,,,,,52.0,,,,,,120,note_on,,76.0,52.0,76.0,197280,205.5
462,0.0,,,,,,47.0,,,,,,0,note_on,,76.0,47.0,76.0,197280,205.5
463,0.0,,,,,,40.0,,,,,,0,note_on,,76.0,40.0,76.0,197280,205.5
464,0.0,,,,,,52.0,,,,,,360,note_off,,80.0,52.0,80.0,197640,205.875
465,0.0,,,,,,47.0,,,,,,0,note_off,,80.0,47.0,80.0,197640,205.875
466,0.0,,,,,,40.0,,,,,,0,note_off,,80.0,40.0,80.0,197640,205.875
467,0.0,,,,,,52.0,,,,,,120,note_on,,76.0,52.0,76.0,197760,206.0
468,0.0,,,,,,47.0,,,,,,0,note_on,,76.0,47.0,76.0,197760,206.0
469,0.0,,,,,,40.0,,,,,,0,note_on,,76.0,40.0,76.0,197760,206.0
470,0.0,,,,,,52.0,,,,,,360,note_off,,80.0,52.0,80.0,198120,206.375
471,0.0,,,,,,47.0,,,,,,0,note_off,,80.0,47.0,80.0,198120,206.375
472,0.0,,,,,,40.0,,,,,,0,note_off,,80.0,40.0,80.0,198120,206.375
473,0.0,,,,,,52.0,,,,,,120,note_on,,76.0,52.0,76.0,198240,206.5
474,0.0,,,,,,47.0,,,,,,0,note_on,,76.0,47.0,76.0,198240,206.5
475,0.0,,,,,,40.0,,,,,,0,note_on,,76.0,40.0,76.0,198240,206.5
476,0.0,,,,,,52.0,,,,,,360,note_off,,80.0,52.0,80.0,198600,206.875
477,0.0,,,,,,47.0,,,,,,0,note_off,,80.0,47.0,80.0,198600,206.875
478,0.0,,,,,,40.0,,,,,,0,note_off,,80.0,40.0,80.0,198600,206.875
479,0.0,,,,,,52.0,,,,,,120,note_on,,76.0,52.0,76.0,198720,207.0
480,0.0,,,,,,47.0,,,,,,0,note_on,,76.0,47.0,76.0,198720,207.0
481,0.0,,,,,,40.0,,,,,,0,note_on,,76.0,40.0,76.0,198720,207.0
482,0.0,,,,,,52.0,,,,,,360,note_off,,80.0,52.0,80.0,199080,207.375
483,0.0,,,,,,47.0,,,,,,0,note_off,,80.0,47.0,80.0,199080,207.375
484,0.0,,,,,,40.0,,,,,,0,note_off,,80.0,40.0,80.0,199080,207.375
485,0.0,,,,,,52.0,,,,,,120,note_on,,95.0,52.0,95.0,199200,207.5
486,0.0,,,,,,47.0,,,,,,0,note_on,,95.0,47.0,95.0,199200,207.5
487,0.0,,,,,,40.0,,,,,,0,note_on,,95.0,40.0,95.0,199200,207.5
488,0.0,,,,,,52.0,,,,,,120,note_off,,80.0,52.0,80.0,199320,207.625
489,0.0,,,,,,47.0,,,,,,0,note_off,,80.0,47.0,80.0,199320,207.625
490,0.0,,,,,,40.0,,,,,,0,note_off,,80.0,40.0,80.0,199320,207.625
491,0.0,,,,,,55.0,,,,,,0,note_on,,95.0,55.0,95.0,199320,207.625
492,0.0,,,,,,50.0,,,,,,0,note_on,,95.0,50.0,95.0,199320,207.625
493,0.0,,,,,,43.0,,,,,,0,note_on,,95.0,43.0,95.0,199320,207.625
494,0.0,,,,,,55.0,,,,,,360,note_off,,80.0,55.0,80.0,199680,208.0
495,0.0,,,,,,50.0,,,,,,0,note_off,,80.0,50.0,80.0,199680,208.0
496,0.0,,,,,,43.0,,,,,,0,note_off,,80.0,43.0,80.0,199680,208.0
497,0.0,,,,,,52.0,,,,,,0,note_on,,95.0,52.0,95.0,199680,208.0
498,0.0,,,,,,47.0,,,,,,0,note_on,,95.0,47.0,95.0,199680,208.0
499,0.0,,,,,,40.0,,,,,,0,note_on,,95.0,40.0,95.0,199680,208.0
500,0.0,,,,,,52.0,,,,,,240,note_off,,80.0,52.0,80.0,199920,208.25
501,0.0,,,,,,47.0,,,,,,0,note_off,,80.0,47.0,80.0,199920,208.25
502,0.0,,,,,,40.0,,,,,,0,note_off,,80.0,40.0,80.0,199920,208.25
503,1.0,,,,,,55.0,,,,,,0,note_on,,95.0,55.0,95.0,199920,208.25
504,1.0,,,,,,,,0.0,,,,0,pitchwheel,,,,,199920,208.25
505,1.0,,,,,,,,256.0,,,,16,pitchwheel,,,,,199936,208.26666666666665
506,1.0,,,,,,,,1152.0,,,,16,pitchwheel,,,,,199952,208.28333333333333
507,1.0,,,,,,,,1408.0,,,,16,pitchwheel,,,,,199968,208.29999999999998
508,1.0,,,,,,,,640.0,,,,48,pitchwheel,,,,,200016,208.35
509,1.0,,,,,,,,128.0,,,,16,pitchwheel,,,,,200032,208.36666666666667
510,1.0,,,,,,,,0.0,,,,16,pitchwheel,,,,,200048,208.38333333333333
511,1.0,,,,,,55.0,,,,,,112,note_off,,80.0,55.0,80.0,200160,208.5
512,1.0,,,,,,,,0.0,,,,0,pitchwheel,,,,,200160,208.5
513,0.0,,,,,,55.0,,,,,,0,note_on,,95.0,55.0,95.0,200160,208.5
514,0.0,,,,,,55.0,,,,,,120,note_off,,80.0,55.0,80.0,200280,208.625
515,0.0,,,,,,54.0,,,,,,0,note_on,,95.0,54.0,95.0,200280,208.625
516,0.0,,,,,,54.0,,,,,,120,note_off,,80.0,54.0,80.0,200400,208.75
517,0.0,,,,,,50.0,,,,,,0,note_on,,95.0,50.0,95.0,200400,208.75
518,0.0,,,,,,50.0,,,,,,120,note_off,,80.0,50.0,80.0,200520,208.875
519,0.0,,,,,,50.0,,,,,,0,note_on,,95.0,50.0,95.0,200520,208.875
520,0.0,,,,,,50.0,,,,,,240,note_off,,80.0,50.0,80.0,200760,209.125
521,0.0,,,,,,49.0,,,,,,0,note_on,,95.0,49.0,95.0,200760,209.125
522,0.0,,,,,,49.0,,,,,,120,note_off,,80.0,49.0,80.0,200880,209.25
523,0.0,,,,,,45.0,,,,,,0,note_on,,95.0,45.0,95.0,200880,209.25
524,0.0,,,,,,45.0,,,,,,240,note_off,,80.0,45.0,80.0,201120,209.5
525,0.0,,,,,,52.0,,,,,,0,note_on,,95.0,52.0,95.0,201120,209.5
526,0.0,,,,,,47.0,,,,,,0,note_on,,95.0,47.0,95.0,201120,209.5
527,0.0,,,,,,40.0,,,,,,0,note_on,,95.0,40.0,95.0,201120,209.5
528,0.0,,,,,,52.0,,,,,,20,note_off,,80.0,52.0,80.0,201140,209.52083333333334
529,0.0,,,,,,47.0,,,,,,0,note_off,,80.0,47.0,80.0,201140,209.52083333333334
530,0.0,,,,,,40.0,,,,,,0,note_off,,80.0,40.0,80.0,201140,209.52083333333334
531,0.0,,,,,,55.0,,,,,,100,note_on,,95.0,55.0,95.0,201240,209.625
532,0.0,,,,,,50.0,,,,,,0,note_on,,95.0,50.0,95.0,201240,209.625
533,0.0,,,,,,43.0,,,,,,0,note_on,,95.0,43.0,95.0,201240,209.625
534,0.0,,,,,,55.0,,,,,,360,note_off,,80.0,55.0,80.0,201600,210.0
535,0.0,,,,,,50.0,,,,,,0,note_off,,80.0,50.0,80.0,201600,210.0
536,0.0,,,,,,43.0,,,,,,0,note_off,,80.0,43.0,80.0,201600,210.0
537,0.0,,,,,,52.0,,,,,,0,note_on,,95.0,52.0,95.0,201600,210.0
538,0.0,,,,,,47.0,,,,,,0,note_on,,95.0,47.0,95.0,201600,210.0
539,0.0,,,,,,40.0,,,,,,0,note_on,,95.0,40.0,95.0,201600,210.0
540,0.0,,,,,,52.0,,,,,,240,note_off,,80.0,52.0,80.0,201840,210.25
541,0.0,,,,,,47.0,,,,,,0,note_off,,80.0,47.0,80.0,201840,210.25
542,0.0,,,,,,40.0,,,,,,0,note_off,,80.0,40.0,80.0,201840,210.25
543,1.0,,,,,,55.0,,,,,,0,note_on,,95.0,55.0,95.0,201840,210.25
544,1.0,,,,,,,,0.0,,,,0,pitchwheel,,,,,201840,210.25
545,1.0,,,,,,,,256.0,,,,16,pitchwheel,,,,,201856,210.26666666666665
546,1.0,,,,,,,,1152.0,,,,16,pitchwheel,,,,,201872,210.28333333333333
547,1.0,,,,,,,,1408.0,,,,16,pitchwheel,,,,,201888,210.29999999999998
548,1.0,,,,,,,,640.0,,,,48,pitchwheel,,,,,201936,210.35
549,1.0,,,,,,,,128.0,,,,16,pitchwheel,,,,,201952,210.36666666666667
550,1.0,,,,,,,,0.0,,,,16,pitchwheel,,,,,201968,210.38333333333333
551,1.0,,,,,,55.0,,,,,,112,note_off,,80.0,55.0,80.0,202080,210.5
552,1.0,,,,,,,,0.0,,,,0,pitchwheel,,,,,202080,210.5
553,0.0,,,,,,55.0,,,,,,0,note_on,,95.0,55.0,95.0,202080,210.5
554,0.0,,,,,,55.0,,,,,,120,note_off,,80.0,55.0,80.0,202200,210.625
555,0.0,,,,,,54.0,,,,,,0,note_on,,95.0,54.0,95.0,202200,210.625
556,0.0,,,,,,54.0,,,,,,120,note_off,,80.0,54.0,80.0,202320,210.75
557,0.0,,,,,,50.0,,,,,,0,note_on,,95.0,50.0,95.0,202320,210.75
558,0.0,,,,,,50.0,,,,,,120,note_off,,80.0,50.0,80.0,202440,210.875
559,0.0,,,,,,62.0,,,,,,0,note_on,,95.0,62.0,95.0,202440,210.875
560,0.0,,,,,,62.0,,,,,,240,note_off,,80.0,62.0,80.0,202680,211.125
561,0.0,,,,,,61.0,,,,,,0,note_on,,95.0,61.0,95.0,202680,211.125
562,0.0,,,,,,61.0,,,,,,120,note_off,,80.0,61.0,80.0,202800,211.25
563,0.0,,,,,,57.0,,,,,,0,note_on,,95.0,57.0,95.0,202800,211.25
564,0.0,,,,,,57.0,,,,,,240,note_off,,80.0,57.0,80.0,203040,211.5
565,0.0,,,,,,52.0,,,,,,0,note_on,,95.0,52.0,95.0,203040,211.5
566,0.0,,,,,,47.0,,,,,,0,note_on,,95.0,47.0,95.0,203040,211.5
567,0.0,,,,,,40.0,,,,,,0,note_on,,95.0,40.0,95.0,203040,211.5
568,0.0,,,,,,52.0,,,,,,120,note_off,,80.0,52.0,80.0,203160,211.625
569,0.0,,,,,,47.0,,,,,,0,note_off,,80.0,47.0,80.0,203160,211.625
570,0.0,,,,,,40.0,,,,,,0,note_off,,80.0,40.0,80.0,203160,211.625
571,0.0,,,,,,55.0,,,,,,0,note_on,,95.0,55.0,95.0,203160,211.625
572,0.0,,,,,,50.0,,,,,,0,note_on,,95.0,50.0,95.0,203160,211.625
573,0.0,,,,,,43.0,,,,,,0,note_on,,95.0,43.0,95.0,203160,211.625
574,0.0,,,,,,55.0,,,,,,360,note_off,,80.0,55.0,80.0,203520,212.0
575,0.0,,,,,,50.0,,,,,,0,note_off,,80.0,50.0,80.0,203520,212.0
576,0.0,,,,,,43.0,,,,,,0,note_off,,80.0,43.0,80.0,203520,212.0
577,0.0,,,,,,52.0,,,,,,0,note_on,,95.0,52.0,95.0,203520,212.0
578,0.0,,,,,,47.0,,,,,,0,note_on,,95.0,47.0,95.0,203520,212.0
579,0.0,,,,,,40.0,,,,,,0,note_on,,95.0,40.0,95.0,203520,212.0
580,0.0,,,,,,52.0,,,,,,240,note_off,,80.0,52.0,80.0,203760,212.25
581,0.0,,,,,,47.0,,,,,,0,note_off,,80.0,47.0,80.0,203760,212.25
582,0.0,,,,,,40.0,,,,,,0,note_off,,80.0,40.0,80.0,203760,212.25
583,1.0,,,,,,55.0,,,,,,0,note_on,,95.0,55.0,95.0,203760,212.25
584,1.0,,,,,,,,0.0,,,,0,pitchwheel,,,,,203760,212.25
585,1.0,,,,,,,,256.0,,,,16,pitchwheel,,,,,203776,212.26666666666665
586,1.0,,,,,,,,1152.0,,,,16,pitchwheel,,,,,203792,212.28333333333333
587,1.0,,,,,,,,1408.0,,,,16,pitchwheel,,,,,203808,212.29999999999998
588,1.0,,,,,,,,640.0,,,,48,pitchwheel,,,,,203856,212.35
589,1.0,,,,,,,,128.0,,,,16,pitchwheel,,,,,203872,212.36666666666667
590,1.0,,,,,,,,0.0,,,,16,pitchwheel,,,,,203888,212.38333333333333
591,1.0,,,,,,55.0,,,,,,112,note_off,,80.0,55.0,80.0,204000,212.5
592,1.0,,,,,,,,0.0,,,,0,pitchwheel,,,,,204000,212.5
593,0.0,,,,,,55.0,,,,,,0,note_on,,95.0,55.0,95.0,204000,212.5
594,0.0,,,,,,55.0,,,,,,120,note_off,,80.0,55.0,80.0,204120,212.625
595,0.0,,,,,,54.0,,,,,,0,note_on,,95.0,54.0,95.0,204120,212.625
596,0.0,,,,,,54.0,,,,,,120,note_off,,80.0,54.0,80.0,204240,212.75
597,0.0,,,,,,50.0,,,,,,0,note_on,,95.0,50.0,95.0,204240,212.75
598,0.0,,,,,,50.0,,,,,,120,note_off,,80.0,50.0,80.0,204360,212.875
599,0.0,,,,,,50.0,,,,,,0,note_on,,95.0,50.0,95.0,204360,212.875
600,0.0,,,,,,50.0,,,,,,240,note_off,,80.0,50.0,80.0,204600,213.125
601,0.0,,,,,,49.0,,,,,,0,note_on,,95.0,49.0,95.0,204600,213.125
602,0.0,,,,,,49.0,,,,,,120,note_off,,80.0,49.0,80.0,204720,213.25
603,0.0,,,,,,45.0,,,,,,0,note_on,,95.0,45.0,95.0,204720,213.25
604,0.0,,,,,,45.0,,,,,,240,note_off,,80.0,45.0,80.0,204960,213.5
605,0.0,,,,,,52.0,,,,,,0,note_on,,95.0,52.0,95.0,204960,213.5
606,0.0,,,,,,47.0,,,,,,0,note_on,,95.0,47.0,95.0,204960,213.5
607,0.0,,,,,,40.0,,,,,,0,note_on,,95.0,40.0,95.0,204960,213.5
608,0.0,,,,,,52.0,,,,,,120,note_off,,80.0,52.0,80.0,205080,213.625
609,0.0,,,,,,47.0,,,,,,0,note_off,,80.0,47.0,80.0,205080,213.625
610,0.0,,,,,,40.0,,,,,,0,note_off,,80.0,40.0,80.0,205080,213.625
611,0.0,,,,,,55.0,,,,,,0,note_on,,95.0,55.0,95.0,205080,213.625
612,0.0,,,,,,50.0,,,,,,0,note_on,,95.0,50.0,95.0,205080,213.625
613,0.0,,,,,,43.0,,,,,,0,note_on,,95.0,43.0,95.0,205080,213.625
614,0.0,,,,,,55.0,,,,,,360,note_off,,80.0,55.0,80.0,205440,214.0
615,0.0,,,,,,50.0,,,,,,0,note_off,,80.0,50.0,80.0,205440,214.0
616,0.0,,,,,,43.0,,,,,,0,note_off,,80.0,43.0,80.0,205440,214.0
617,0.0,,,,,,52.0,,,,,,0,note_on,,95.0,52.0,95.0,205440,214.0
618,0.0,,,,,,47.0,,,,,,0,note_on,,95.0,47.0,95.0,205440,214.0
619,0.0,,,,,,40.0,,,,,,0,note_on,,95.0,40.0,95.0,205440,214.0
620,0.0,,,,,,52.0,,,,,,240,note_off,,80.0,52.0,80.0,205680,214.25
621,0.0,,,,,,47.0,,,,,,0,note_off,,80.0,47.0,80.0,205680,214.25
622,0.0,,,,,,40.0,,,,,,0,note_off,,80.0,40.0,80.0,205680,214.25
623,1.0,,,,,,55.0,,,,,,0,note_on,,95.0,55.0,95.0,205680,214.25
624,1.0,,,,,,,,0.0,,,,0,pitchwheel,,,,,205680,214.25
625,1.0,,,,,,,,256.0,,,,16,pitchwheel,,,,,205696,214.26666666666665
626,1.0,,,,,,,,1152.0,,,,16,pitchwheel,,,,,205712,214.28333333333333
627,1.0,,,,,,,,1408.0,,,,16,pitchwheel,,,,,205728,214.29999999999998
628,1.0,,,,,,,,640.0,,,,48,pitchwheel,,,,,205776,214.35
629,1.0,,,,,,,,128.0,,,,16,pitchwheel,,,,,205792,214.36666666666667
630,1.0,,,,,,,,0.0,,,,16,pitchwheel,,,,,205808,214.38333333333333
631,1.0,,,,,,55.0,,,,,,112,note_off,,80.0,55.0,80.0,205920,214.5
632,1.0,,,,,,,,0.0,,,,0,pitchwheel,,,,,205920,214.5
633,0.0,,,,,,55.0,,,,,,0,note_on,,95.0,55.0,95.0,205920,214.5
634,0.0,,,,,,55.0,,,,,,120,note_off,,80.0,55.0,80.0,206040,214.625
635,0.0,,,,,,54.0,,,,,,0,note_on,,95.0,54.0,95.0,206040,214.625
636,0.0,,,,,,54.0,,,,,,120,note_off,,80.0,54.0,80.0,206160,214.75
637,0.0,,,,,,50.0,,,,,,0,note_on,,95.0,50.0,95.0,206160,214.75
638,0.0,,,,,,50.0,,,,,,120,note_off,,80.0,50.0,80.0,206280,214.875
639,0.0,,,,,,62.0,,,,,,0,note_on,,95.0,62.0,95.0,206280,214.875
640,0.0,,,,,,57.0,,,,,,0,note_on,,95.0,57.0,95.0,206280,214.875
641,0.0,,,,,,50.0,,,,,,0,note_on,,95.0,50.0,95.0,206280,214.875
642,0.0,,,,,,62.0,,,,,,120,note_off,,80.0,62.0,80.0,206400,215.0
643,0.0,,,,,,57.0,,,,,,0,note_off,,80.0,57.0,80.0,206400,215.0
644,0.0,,,,,,50.0,,,,,,0,note_off,,80.0,50.0,80.0,206400,215.0
645,0.0,,,,,,64.0,,,,,,120,note_on,,95.0,64.0,95.0,206520,215.125
646,0.0,,,,,,59.0,,,,,,0,note_on,,95.0,59.0,95.0,206520,215.125
647,0.0,,,,,,52.0,,,,,,0,note_on,,95.0,52.0,95.0,206520,215.125
648,0.0,,,,,,64.0,,,,,,120,note_off,,80.0,64.0,80.0,206640,215.25
649,0.0,,,,,,59.0,,,,,,120,note_off,,80.0,59.0,80.0,206760,215.375
650,0.0,,,,,,52.0,,,,,,0,note_off,,80.0,52.0,80.0,206760,215.375
651,0.0,,,,,,62.0,,,,,,0,note_on,,95.0,62.0,95.0,206760,215.375
652,0.0,,,,,,57.0,,,,,,0,note_on,,95.0,57.0,95.0,206760,215.375
653,0.0,,,,,,50.0,,,,,,0,note_on,,95.0,50.0,95.0,206760,215.375
654,0.0,,,,,,62.0,,,,,,120,note_off,,80.0,62.0,80.0,206880,215.5
655,0.0,,,,,,57.0,,,,,,0,note_off,,80.0,57.0,80.0,206880,215.5
656,0.0,,,,,,50.0,,,,,,0,note_off,,80.0,50.0,80.0,206880,215.5
657,0.0,,,,,,64.0,,,,,,0,note_on,,95.0,64.0,95.0,206880,215.5
658,0.0,,,,,,59.0,,,,,,0,note_on,,95.0,59.0,95.0,206880,215.5
659,0.0,,,,,,52.0,,,,,,0,note_on,,95.0,52.0,95.0,206880,215.5
660,0.0,,,,,,64.0,,,,,,480,note_off,,80.0,64.0,80.0,207360,216.0
661,0.0,,,,,,59.0,,,,,,0,note_off,,80.0,59.0,80.0,207360,216.0
662,0.0,,,,,,52.0,,,,,,0,note_off,,80.0,52.0,80.0,207360,216.0
663,0.0,,,,,,52.0,,,,,,0,note_on,,95.0,52.0,95.0,207360,216.0
664,0.0,,,,,,47.0,,,,,,0,note_on,,95.0,47.0,95.0,207360,216.0
665,0.0,,,,,,40.0,,,,,,0,note_on,,95.0,40.0,95.0,207360,216.0
666,0.0,,,,,,52.0,,,,,,240,note_off,,80.0,52.0,80.0,207600,216.25
667,0.0,,,,,,47.0,,,,,,0,note_off,,80.0,47.0,80.0,207600,216.25
668,0.0,,,,,,40.0,,,,,,0,note_off,,80.0,40.0,80.0,207600,216.25
669,1.0,,,,,,55.0,,,,,,0,note_on,,95.0,55.0,95.0,207600,216.25
670,1.0,,,,,,,,0.0,,,,0,pitchwheel,,,,,207600,216.25
671,1.0,,,,,,,,256.0,,,,16,pitchwheel,,,,,207616,216.26666666666665
672,1.0,,,,,,,,1152.0,,,,16,pitchwheel,,,,,207632,216.28333333333333
673,1.0,,,,,,,,1408.0,,,,16,pitchwheel,,,,,207648,216.29999999999998
674,1.0,,,,,,,,640.0,,,,48,pitchwheel,,,,,207696,216.35
675,1.0,,,,,,,,128.0,,,,16,pitchwheel,,,,,207712,216.36666666666667
676,1.0,,,,,,,,0.0,,,,16,pitchwheel,,,,,207728,216.38333333333333
677,1.0,,,,,,55.0,,,,,,112,note_off,,80.0,55.0,80.0,207840,216.5
678,1.0,,,,,,,,0.0,,,,0,pitchwheel,,,,,207840,216.5
679,0.0,,,,,,55.0,,,,,,0,note_on,,95.0,55.0,95.0,207840,216.5
680,0.0,,,,,,55.0,,,,,,120,note_off,,80.0,55.0,80.0,207960,216.625
681,0.0,,,,,,54.0,,,,,,0,note_on,,95.0,54.0,95.0,207960,216.625
682,0.0,,,,,,54.0,,,,,,120,note_off,,80.0,54.0,80.0,208080,216.75
683,0.0,,,,,,50.0,,,,,,0,note_on,,95.0,50.0,95.0,208080,216.75
684,0.0,,,,,,50.0,,,,,,120,note_off,,80.0,50.0,80.0,208200,216.875
685,0.0,,,,,,50.0,,,,,,0,note_on,,95.0,50.0,95.0,208200,216.875
686,0.0,,,,,,50.0,,,,,,240,note_off,,80.0,50.0,80.0,208440,217.125
687,0.0,,,,,,49.0,,,,,,0,note_on,,95.0,49.0,95.0,208440,217.125
688,0.0,,,,,,49.0,,,,,,120,note_off,,80.0,49.0,80.0,208560,217.25
689,0.0,,,,,,45.0,,,,,,0,note_on,,95.0,45.0,95.0,208560,217.25
690,0.0,,,,,,45.0,,,,,,240,note_off,,80.0,45.0,80.0,208800,217.5
691,0.0,,,,,,52.0,,,,,,0,note_on,,95.0,52.0,95.0,208800,217.5
692,0.0,,,,,,47.0,,,,,,0,note_on,,95.0,47.0,95.0,208800,217.5
693,0.0,,,,,,40.0,,,,,,0,note_on,,95.0,40.0,95.0,208800,217.5
694,0.0,,,,,,52.0,,,,,,20,note_off,,80.0,52.0,80.0,208820,217.52083333333334
695,0.0,,,,,,47.0,,,,,,0,note_off,,80.0,47.0,80.0,208820,217.52083333333334
696,0.0,,,,,,40.0,,,,,,0,note_off,,80.0,40.0,80.0,208820,217.52083333333334
697,0.0,,,,,,55.0,,,,,,100,note_on,,95.0,55.0,95.0,208920,217.625
698,0.0,,,,,,50.0,,,,,,0,note_on,,95.0,50.0,95.0,208920,217.625
699,0.0,,,,,,43.0,,,,,,0,note_on,,95.0,43.0,95.0,208920,217.625
700,0.0,,,,,,55.0,,,,,,360,note_off,,80.0,55.0,80.0,209280,218.0
701,0.0,,,,,,50.0,,,,,,0,note_off,,80.0,50.0,80.0,209280,218.0
702,0.0,,,,,,43.0,,,,,,0,note_off,,80.0,43.0,80.0,209280,218.0
703,0.0,,,,,,52.0,,,,,,0,note_on,,95.0,52.0,95.0,209280,218.0
704,0.0,,,,,,47.0,,,,,,0,note_on,,95.0,47.0,95.0,209280,218.0
705,0.0,,,,,,40.0,,,,,,0,note_on,,95.0,40.0,95.0,209280,218.0
706,0.0,,,,,,52.0,,,,,,240,note_off,,80.0,52.0,80.0,209520,218.25
707,0.0,,,,,,47.0,,,,,,0,note_off,,80.0,47.0,80.0,209520,218.25
708,0.0,,,,,,40.0,,,,,,0,note_off,,80.0,40.0,80.0,209520,218.25
709,1.0,,,,,,55.0,,,,,,0,note_on,,95.0,55.0,95.0,209520,218.25
710,1.0,,,,,,,,0.0,,,,0,pitchwheel,,,,,209520,218.25
711,1.0,,,,,,,,256.0,,,,16,pitchwheel,,,,,209536,218.26666666666665
712,1.0,,,,,,,,1152.0,,,,16,pitchwheel,,,,,209552,218.28333333333333
713,1.0,,,,,,,,1408.0,,,,16,pitchwheel,,,,,209568,218.29999999999998
714,1.0,,,,,,,,640.0,,,,48,pitchwheel,,,,,209616,218.35
715,1.0,,,,,,,,128.0,,,,16,pitchwheel,,,,,209632,218.36666666666667
716,1.0,,,,,,,,0.0,,,,16,pitchwheel,,,,,209648,218.38333333333333
717,1.0,,,,,,55.0,,,,,,112,note_off,,80.0,55.0,80.0,209760,218.5
718,1.0,,,,,,,,0.0,,,,0,pitchwheel,,,,,209760,218.5
719,0.0,,,,,,55.0,,,,,,0,note_on,,95.0,55.0,95.0,209760,218.5
720,0.0,,,,,,55.0,,,,,,120,note_off,,80.0,55.0,80.0,209880,218.625
721,0.0,,,,,,54.0,,,,,,0,note_on,,95.0,54.0,95.0,209880,218.625
722,0.0,,,,,,54.0,,,,,,120,note_off,,80.0,54.0,80.0,210000,218.75
723,0.0,,,,,,50.0,,,,,,0,note_on,,95.0,50.0,95.0,210000,218.75
724,0.0,,,,,,50.0,,,,,,120,note_off,,80.0,50.0,80.0,210120,218.875
725,0.0,,,,,,62.0,,,,,,0,note_on,,95.0,62.0,95.0,210120,218.875
726,0.0,,,,,,62.0,,,,,,240,note_off,,80.0,62.0,80.0,210360,219.125
727,0.0,,,,,,61.0,,,,,,0,note_on,,95.0,61.0,95.0,210360,219.125
728,0.0,,,,,,61.0,,,,,,120,note_off,,80.0,61.0,80.0,210480,219.25
729,0.0,,,,,,57.0,,,,,,0,note_on,,95.0,57.0,95.0,210480,219.25
730,0.0,,,,,,57.0,,,,,,240,note_off,,80.0,57.0,80.0,210720,219.5
731,0.0,,,,,,52.0,,,,,,0,note_on,,95.0,52.0,95.0,210720,219.5
732,0.0,,,,,,47.0,,,,,,0,note_on,,95.0,47.0,95.0,210720,219.5
733,0.0,,,,,,40.0,,,,,,0,note_on,,95.0,40.0,95.0,210720,219.5
734,0.0,,,,,,52.0,,,,,,120,note_off,,80.0,52.0,80.0,210840,219.625
735,0.0,,,,,,47.0,,,,,,0,note_off,,80.0,47.0,80.0,210840,219.625
736,0.0,,,,,,40.0,,,,,,0,note_off,,80.0,40.0,80.0,210840,219.625
737,0.0,,,,,,55.0,,,,,,0,note_on,,95.0,55.0,95.0,210840,219.625
738,0.0,,,,,,50.0,,,,,,0,note_on,,95.0,50.0,95.0,210840,219.625
739,0.0,,,,,,43.0,,,,,,0,note_on,,95.0,43.0,95.0,210840,219.625
740,0.0,,,,,,55.0,,,,,,360,note_off,,80.0,55.0,80.0,211200,220.0
741,0.0,,,,,,50.0,,,,,,0,note_off,,80.0,50.0,80.0,211200,220.0
742,0.0,,,,,,43.0,,,,,,0,note_off,,80.0,43.0,80.0,211200,220.0
743,0.0,,,,,,52.0,,,,,,0,note_on,,95.0,52.0,95.0,211200,220.0
744,0.0,,,,,,47.0,,,,,,0,note_on,,95.0,47.0,95.0,211200,220.0
745,0.0,,,,,,40.0,,,,,,0,note_on,,95.0,40.0,95.0,211200,220.0
746,0.0,,,,,,52.0,,,,,,240,note_off,,80.0,52.0,80.0,211440,220.25
747,0.0,,,,,,47.0,,,,,,0,note_off,,80.0,47.0,80.0,211440,220.25
748,0.0,,,,,,40.0,,,,,,0,note_off,,80.0,40.0,80.0,211440,220.25
749,1.0,,,,,,55.0,,,,,,0,note_on,,95.0,55.0,95.0,211440,220.25
750,1.0,,,,,,,,0.0,,,,0,pitchwheel,,,,,211440,220.25
751,1.0,,,,,,,,256.0,,,,16,pitchwheel,,,,,211456,220.26666666666665
752,1.0,,,,,,,,1152.0,,,,16,pitchwheel,,,,,211472,220.28333333333333
753,1.0,,,,,,,,1408.0,,,,16,pitchwheel,,,,,211488,220.29999999999998
754,1.0,,,,,,,,640.0,,,,48,pitchwheel,,,,,211536,220.35
755,1.0,,,,,,,,128.0,,,,16,pitchwheel,,,,,211552,220.36666666666667
756,1.0,,,,,,,,0.0,,,,16,pitchwheel,,,,,211568,220.38333333333333
757,1.0,,,,,,55.0,,,,,,112,note_off,,80.0,55.0,80.0,211680,220.5
758,1.0,,,,,,,,0.0,,,,0,pitchwheel,,,,,211680,220.5
759,0.0,,,,,,55.0,,,,,,0,note_on,,95.0,55.0,95.0,211680,220.5
760,0.0,,,,,,55.0,,,,,,120,note_off,,80.0,55.0,80.0,211800,220.625
761,0.0,,,,,,54.0,,,,,,0,note_on,,95.0,54.0,95.0,211800,220.625
762,0.0,,,,,,54.0,,,,,,120,note_off,,80.0,54.0,80.0,211920,220.75
763,0.0,,,,,,50.0,,,,,,0,note_on,,95.0,50.0,95.0,211920,220.75
764,0.0,,,,,,50.0,,,,,,120,note_off,,80.0,50.0,80.0,212040,220.875
765,0.0,,,,,,50.0,,,,,,0,note_on,,95.0,50.0,95.0,212040,220.875
766,0.0,,,,,,50.0,,,,,,240,note_off,,80.0,50.0,80.0,212280,221.125
767,0.0,,,,,,49.0,,,,,,0,note_on,,95.0,49.0,95.0,212280,221.125
768,0.0,,,,,,49.0,,,,,,120,note_off,,80.0,49.0,80.0,212400,221.25
769,0.0,,,,,,45.0,,,,,,0,note_on,,95.0,45.0,95.0,212400,221.25
770,0.0,,,,,,45.0,,,,,,240,note_off,,80.0,45.0,80.0,212640,221.5
771,0.0,,,,,,52.0,,,,,,0,note_on,,95.0,52.0,95.0,212640,221.5
772,0.0,,,,,,47.0,,,,,,0,note_on,,95.0,47.0,95.0,212640,221.5
773,0.0,,,,,,40.0,,,,,,0,note_on,,95.0,40.0,95.0,212640,221.5
774,0.0,,,,,,52.0,,,,,,120,note_off,,80.0,52.0,80.0,212760,221.625
775,0.0,,,,,,47.0,,,,,,0,note_off,,80.0,47.0,80.0,212760,221.625
776,0.0,,,,,,40.0,,,,,,0,note_off,,80.0,40.0,80.0,212760,221.625
777,0.0,,,,,,55.0,,,,,,0,note_on,,95.0,55.0,95.0,212760,221.625
778,0.0,,,,,,50.0,,,,,,0,note_on,,95.0,50.0,95.0,212760,221.625
779,0.0,,,,,,43.0,,,,,,0,note_on,,95.0,43.0,95.0,212760,221.625
780,0.0,,,,,,55.0,,,,,,360,note_off,,80.0,55.0,80.0,213120,222.0
781,0.0,,,,,,50.0,,,,,,0,note_off,,80.0,50.0,80.0,213120,222.0
782,0.0,,,,,,43.0,,,,,,0,note_off,,80.0,43.0,80.0,213120,222.0
783,0.0,,,,,,52.0,,,,,,0,note_on,,95.0,52.0,95.0,213120,222.0
784,0.0,,,,,,47.0,,,,,,0,note_on,,95.0,47.0,95.0,213120,222.0
785,0.0,,,,,,40.0,,,,,,0,note_on,,95.0,40.0,95.0,213120,222.0
786,0.0,,,,,,52.0,,,,,,240,note_off,,80.0,52.0,80.0,213360,222.25
787,0.0,,,,,,47.0,,,,,,0,note_off,,80.0,47.0,80.0,213360,222.25
788,0.0,,,,,,40.0,,,,,,0,note_off,,80.0,40.0,80.0,213360,222.25
789,1.0,,,,,,55.0,,,,,,0,note_on,,95.0,55.0,95.0,213360,222.25
790,1.0,,,,,,,,0.0,,,,0,pitchwheel,,,,,213360,222.25
791,1.0,,,,,,,,256.0,,,,16,pitchwheel,,,,,213376,222.26666666666665
792,1.0,,,,,,,,1152.0,,,,16,pitchwheel,,,,,213392,222.28333333333333
793,1.0,,,,,,,,1408.0,,,,16,pitchwheel,,,,,213408,222.29999999999998
794,1.0,,,,,,,,640.0,,,,48,pitchwheel,,,,,213456,222.35
795,1.0,,,,,,,,128.0,,,,16,pitchwheel,,,,,213472,222.36666666666667
796,1.0,,,,,,,,0.0,,,,16,pitchwheel,,,,,213488,222.38333333333333
797,1.0,,,,,,55.0,,,,,,112,note_off,,80.0,55.0,80.0,213600,222.5
798,1.0,,,,,,,,0.0,,,,0,pitchwheel,,,,,213600,222.5
799,0.0,,,,,,55.0,,,,,,0,note_on,,95.0,55.0,95.0,213600,222.5
800,0.0,,,,,,55.0,,,,,,120,note_off,,80.0,55.0,80.0,213720,222.625
801,0.0,,,,,,54.0,,,,,,0,note_on,,95.0,54.0,95.0,213720,222.625
802,0.0,,,,,,54.0,,,,,,120,note_off,,80.0,54.0,80.0,213840,222.75
803,0.0,,,,,,50.0,,,,,,0,note_on,,95.0,50.0,95.0,213840,222.75
804,0.0,,,,,,50.0,,,,,,120,note_off,,80.0,50.0,80.0,213960,222.875
805,0.0,,,,,,62.0,,,,,,0,note_on,,95.0,62.0,95.0,213960,222.875
806,0.0,,,,,,57.0,,,,,,0,note_on,,95.0,57.0,95.0,213960,222.875
807,0.0,,,,,,50.0,,,,,,0,note_on,,95.0,50.0,95.0,213960,222.875
808,0.0,,,,,,62.0,,,,,,240,note_off,,80.0,62.0,80.0,214200,223.125
809,0.0,,,,,,57.0,,,,,,0,note_off,,80.0,57.0,80.0,214200,223.125
810,0.0,,,,,,50.0,,,,,,0,note_off,,80.0,50.0,80.0,214200,223.125
811,0.0,,,,,,64.0,,,,,,0,note_on,,95.0,64.0,95.0,214200,223.125
812,0.0,,,,,,59.0,,,,,,0,note_on,,95.0,59.0,95.0,214200,223.125
813,0.0,,,,,,52.0,,,,,,0,note_on,,95.0,52.0,95.0,214200,223.125
814,0.0,,,,,,64.0,,,,,,240,note_off,,80.0,64.0,80.0,214440,223.375
815,0.0,,,,,,59.0,,,,,,0,note_off,,80.0,59.0,80.0,214440,223.375
816,0.0,,,,,,52.0,,,,,,0,note_off,,80.0,52.0,80.0,214440,223.375
817,0.0,,,,,,62.0,,,,,,0,note_on,,95.0,62.0,95.0,214440,223.375
818,0.0,,,,,,57.0,,,,,,0,note_on,,95.0,57.0,95.0,214440,223.375
819,0.0,,,,,,50.0,,,,,,0,note_on,,95.0,50.0,95.0,214440,223.375
820,0.0,,,,,,62.0,,,,,,120,note_off,,80.0,62.0,80.0,214560,223.5
821,0.0,,,,,,57.0,,,,,,0,note_off,,80.0,57.0,80.0,214560,223.5
822,0.0,,,,,,50.0,,,,,,0,note_off,,80.0,50.0,80.0,214560,223.5
823,0.0,,,,,,64.0,,,,,,0,note_on,,95.0,64.0,95.0,214560,223.5
824,0.0,,,,,,59.0,,,,,,0,note_on,,95.0,59.0,95.0,214560,223.5
825,0.0,,,,,,52.0,,,,,,0,note_on,,95.0,52.0,95.0,214560,223.5
826,0.0,,,,,,64.0,,,,,,480,note_off,,80.0,64.0,80.0,215040,224.0
827,0.0,,,,,,59.0,,,,,,0,note_off,,80.0,59.0,80.0,215040,224.0
828,0.0,,,,,,52.0,,,,,,0,note_off,,80.0,52.0,80.0,215040,224.0
829,0.0,,,,,,52.0,,,,,,0,note_on,,95.0,52.0,95.0,215040,224.0
830,0.0,,,,,,47.0,,,,,,0,note_on,,95.0,47.0,95.0,215040,224.0
831,0.0,,,,,,40.0,,,,,,0,note_on,,95.0,40.0,95.0,215040,224.0
832,0.0,,,,,,52.0,,,,,,3360,note_off,,80.0,52.0,80.0,218400,227.5
833,0.0,,,,,,47.0,,,,,,0,note_off,,80.0,47.0,80.0,218400,227.5
834,0.0,,,,,,40.0,,,,,,0,note_off,,80.0,40.0,80.0,218400,227.5
835,0.0,,,,,,52.0,,,,,,0,note_on,,95.0,52.0,95.0,218400,227.5
836,0.0,,,,,,47.0,,,,,,0,note_on,,95.0,47.0,95.0,218400,227.5
837,0.0,,,,,,40.0,,,,,,0,note_on,,95.0,40.0,95.0,218400,227.5
838,0.0,,,,,,52.0,,,,,,120,note_off,,80.0,52.0,80.0,218520,227.625
839,0.0,,,,,,47.0,,,,,,0,note_off,,80.0,47.0,80.0,218520,227.625
840,0.0,,,,,,40.0,,,,,,0,note_off,,80.0,40.0,80.0,218520,227.625
841,0.0,,,,,,55.0,,,,,,0,note_on,,95.0,55.0,95.0,218520,227.625
842,0.0,,,,,,50.0,,,,,,0,note_on,,95.0,50.0,95.0,218520,227.625
843,0.0,,,,,,43.0,,,,,,0,note_on,,95.0,43.0,95.0,218520,227.625
844,0.0,,,,,,55.0,,,,,,360,note_off,,80.0,55.0,80.0,218880,228.0
845,0.0,,,,,,50.0,,,,,,0,note_off,,80.0,50.0,80.0,218880,228.0
846,0.0,,,,,,43.0,,,,,,0,note_off,,80.0,43.0,80.0,218880,228.0
847,0.0,,,,,,52.0,,,,,,0,note_on,,95.0,52.0,95.0,218880,228.0
848,0.0,,,,,,47.0,,,,,,0,note_on,,95.0,47.0,95.0,218880,228.0
849,0.0,,,,,,40.0,,,,,,0,note_on,,95.0,40.0,95.0,218880,228.0
850,0.0,,,,,,52.0,,,,,,240,note_off,,80.0,52.0,80.0,219120,228.25
851,0.0,,,,,,47.0,,,,,,0,note_off,,80.0,47.0,80.0,219120,228.25
852,0.0,,,,,,40.0,,,,,,0,note_off,,80.0,40.0,80.0,219120,228.25
853,0.0,,,,,,52.0,,,,,,240,note_on,,76.0,52.0,76.0,219360,228.5
854,0.0,,,,,,47.0,,,,,,0,note_on,,76.0,47.0,76.0,219360,228.5
855,0.0,,,,,,40.0,,,,,,0,note_on,,76.0,40.0,76.0,219360,228.5
856,0.0,,,,,,52.0,,,,,,360,note_off,,80.0,52.0,80.0,219720,228.875
857,0.0,,,,,,47.0,,,,,,0,note_off,,80.0,47.0,80.0,219720,228.875
858,0.0,,,,,,40.0,,,,,,0,note_off,,80.0,40.0,80.0,219720,228.875
859,0.0,,,,,,52.0,,,,,,120,note_on,,76.0,52.0,76.0,219840,229.0
860,0.0,,,,,,47.0,,,,,,0,note_on,,76.0,47.0,76.0,219840,229.0
861,0.0,,,,,,40.0,,,,,,0,note_on,,76.0,40.0,76.0,219840,229.0
862,0.0,,,,,,52.0,,,,,,360,note_off,,80.0,52.0,80.0,220200,229.375
863,0.0,,,,,,47.0,,,,,,0,note_off,,80.0,47.0,80.0,220200,229.375
864,0.0,,,,,,40.0,,,,,,0,note_off,,80.0,40.0,80.0,220200,229.375
865,0.0,,,,,,52.0,,,,,,120,note_on,,76.0,52.0,76.0,220320,229.5
866,0.0,,,,,,47.0,,,,,,0,note_on,,76.0,47.0,76.0,220320,229.5
867,0.0,,,,,,40.0,,,,,,0,note_on,,76.0,40.0,76.0,220320,229.5
868,0.0,,,,,,52.0,,,,,,360,note_off,,80.0,52.0,80.0,220680,229.875
869,0.0,,,,,,47.0,,,,,,0,note_off,,80.0,47.0,80.0,220680,229.875
870,0.0,,,,,,40.0,,,,,,0,note_off,,80.0,40.0,80.0,220680,229.875
871,0.0,,,,,,52.0,,,,,,120,note_on,,76.0,52.0,76.0,220800,230.0
872,0.0,,,,,,47.0,,,,,,0,note_on,,76.0,47.0,76.0,220800,230.0
873,0.0,,,,,,40.0,,,,,,0,note_on,,76.0,40.0,76.0,220800,230.0
874,0.0,,,,,,52.0,,,,,,360,note_off,,80.0,52.0,80.0,221160,230.375
875,0.0,,,,,,47.0,,,,,,0,note_off,,80.0,47.0,80.0,221160,230.375
876,0.0,,,,,,40.0,,,,,,0,note_off,,80.0,40.0,80.0,221160,230.375
877,0.0,,,,,,52.0,,,,,,120,note_on,,76.0,52.0,76.0,221280,230.5
878,0.0,,,,,,47.0,,,,,,0,note_on,,76.0,47.0,76.0,221280,230.5
879,0.0,,,,,,40.0,,,,,,0,note_on,,76.0,40.0,76.0,221280,230.5
880,0.0,,,,,,52.0,,,,,,360,note_off,,80.0,52.0,80.0,221640,230.875
881,0.0,,,,,,47.0,,,,,,0,note_off,,80.0,47.0,80.0,221640,230.875
882,0.0,,,,,,40.0,,,,,,0,note_off,,80.0,40.0,80.0,221640,230.875
883,0.0,,,,,,52.0,,,,,,120,note_on,,76.0,52.0,76.0,221760,231.0
884,0.0,,,,,,47.0,,,,,,0,note_on,,76.0,47.0,76.0,221760,231.0
885,0.0,,,,,,40.0,,,,,,0,note_on,,76.0,40.0,76.0,221760,231.0
886,0.0,,,,,,52.0,,,,,,360,note_off,,80.0,52.0,80.0,222120,231.375
887,0.0,,,,,,47.0,,,,,,0,note_off,,80.0,47.0,80.0,222120,231.375
888,0.0,,,,,,40.0,,,,,,0,note_off,,80.0,40.0,80.0,222120,231.375
889,0.0,,,,,,52.0,,,,,,120,note_on,,95.0,52.0,95.0,222240,231.5
890,0.0,,,,,,47.0,,,,,,0,note_on,,95.0,47.0,95.0,222240,231.5
891,0.0,,,,,,40.0,,,,,,0,note_on,,95.0,40.0,95.0,222240,231.5
892,0.0,,,,,,52.0,,,,,,120,note_off,,80.0,52.0,80.0,222360,231.625
893,0.0,,,,,,47.0,,,,,,0,note_off,,80.0,47.0,80.0,222360,231.625
894,0.0,,,,,,40.0,,,,,,0,note_off,,80.0,40.0,80.0,222360,231.625
895,0.0,,,,,,55.0,,,,,,0,note_on,,95.0,55.0,95.0,222360,231.625
896,0.0,,,,,,50.0,,,,,,0,note_on,,95.0,50.0,95.0,222360,231.625
897,0.0,,,,,,43.0,,,,,,0,note_on,,95.0,43.0,95.0,222360,231.625
898,0.0,,,,,,55.0,,,,,,360,note_off,,80.0,55.0,80.0,222720,232.0
899,0.0,,,,,,50.0,,,,,,0,note_off,,80.0,50.0,80.0,222720,232.0
900,0.0,,,,,,43.0,,,,,,0,note_off,,80.0,43.0,80.0,222720,232.0
901,0.0,,,,,,52.0,,,,,,0,note_on,,95.0,52.0,95.0,222720,232.0
902,0.0,,,,,,47.0,,,,,,0,note_on,,95.0,47.0,95.0,222720,232.0
903,0.0,,,,,,40.0,,,,,,0,note_on,,95.0,40.0,95.0,222720,232.0
904,0.0,,,,,,52.0,,,,,,240,note_off,,80.0,52.0,80.0,222960,232.25
905,0.0,,,,,,47.0,,,,,,0,note_off,,80.0,47.0,80.0,222960,232.25
906,0.0,,,,,,40.0,,,,,,0,note_off,,80.0,40.0,80.0,222960,232.25
907,0.0,,,,,,52.0,,,,,,240,note_on,,76.0,52.0,76.0,223200,232.5
908,0.0,,,,,,47.0,,,,,,0,note_on,,76.0,47.0,76.0,223200,232.5
909,0.0,,,,,,40.0,,,,,,0,note_on,,76.0,40.0,76.0,223200,232.5
910,0.0,,,,,,52.0,,,,,,360,note_off,,80.0,52.0,80.0,223560,232.875
911,0.0,,,,,,47.0,,,,,,0,note_off,,80.0,47.0,80.0,223560,232.875
912,0.0,,,,,,40.0,,,,,,0,note_off,,80.0,40.0,80.0,223560,232.875
913,0.0,,,,,,52.0,,,,,,120,note_on,,76.0,52.0,76.0,223680,233.0
914,0.0,,,,,,47.0,,,,,,0,note_on,,76.0,47.0,76.0,223680,233.0
915,0.0,,,,,,40.0,,,,,,0,note_on,,76.0,40.0,76.0,223680,233.0
916,0.0,,,,,,52.0,,,,,,360,note_off,,80.0,52.0,80.0,224040,233.375
917,0.0,,,,,,47.0,,,,,,0,note_off,,80.0,47.0,80.0,224040,233.375
918,0.0,,,,,,40.0,,,,,,0,note_off,,80.0,40.0,80.0,224040,233.375
919,0.0,,,,,,52.0,,,,,,120,note_on,,76.0,52.0,76.0,224160,233.5
920,0.0,,,,,,47.0,,,,,,0,note_on,,76.0,47.0,76.0,224160,233.5
921,0.0,,,,,,40.0,,,,,,0,note_on,,76.0,40.0,76.0,224160,233.5
922,0.0,,,,,,52.0,,,,,,360,note_off,,80.0,52.0,80.0,224520,233.875
923,0.0,,,,,,47.0,,,,,,0,note_off,,80.0,47.0,80.0,224520,233.875
924,0.0,,,,,,40.0,,,,,,0,note_off,,80.0,40.0,80.0,224520,233.875
925,0.0,,,,,,52.0,,,,,,120,note_on,,76.0,52.0,76.0,224640,234.0
926,0.0,,,,,,47.0,,,,,,0,note_on,,76.0,47.0,76.0,224640,234.0
927,0.0,,,,,,40.0,,,,,,0,note_on,,76.0,40.0,76.0,224640,234.0
928,0.0,,,,,,52.0,,,,,,360,note_off,,80.0,52.0,80.0,225000,234.375
929,0.0,,,,,,47.0,,,,,,0,note_off,,80.0,47.0,80.0,225000,234.375
930,0.0,,,,,,40.0,,,,,,0,note_off,,80.0,40.0,80.0,225000,234.375
931,0.0,,,,,,52.0,,,,,,120,note_on,,76.0,52.0,76.0,225120,234.5
932,0.0,,,,,,47.0,,,,,,0,note_on,,76.0,47.0,76.0,225120,234.5
933,0.0,,,,,,40.0,,,,,,0,note_on,,76.0,40.0,76.0,225120,234.5
934,0.0,,,,,,52.0,,,,,,360,note_off,,80.0,52.0,80.0,225480,234.875
935,0.0,,,,,,47.0,,,,,,0,note_off,,80.0,47.0,80.0,225480,234.875
936,0.0,,,,,,40.0,,,,,,0,note_off,,80.0,40.0,80.0,225480,234.875
937,0.0,,,,,,52.0,,,,,,120,note_on,,76.0,52.0,76.0,225600,235.0
938,0.0,,,,,,47.0,,,,,,0,note_on,,76.0,47.0,76.0,225600,235.0
939,0.0,,,,,,40.0,,,,,,0,note_on,,76.0,40.0,76.0,225600,235.0
940,0.0,,,,,,52.0,,,,,,360,note_off,,80.0,52.0,80.0,225960,235.375
941,0.0,,,,,,47.0,,,,,,0,note_off,,80.0,47.0,80.0,225960,235.375
942,0.0,,,,,,40.0,,,,,,0,note_off,,80.0,40.0,80.0,225960,235.375
943,0.0,,,,,,52.0,,,,,,120,note_on,,95.0,52.0,95.0,226080,235.5
944,0.0,,,,,,47.0,,,,,,0,note_on,,95.0,47.0,95.0,226080,235.5
945,0.0,,,,,,40.0,,,,,,0,note_on,,95.0,40.0,95.0,226080,235.5
946,0.0,,,,,,52.0,,,,,,120,note_off,,80.0,52.0,80.0,226200,235.625
947,0.0,,,,,,47.0,,,,,,0,note_off,,80.0,47.0,80.0,226200,235.625
948,0.0,,,,,,40.0,,,,,,0,note_off,,80.0,40.0,80.0,226200,235.625
949,0.0,,,,,,55.0,,,,,,0,note_on,,95.0,55.0,95.0,226200,235.625
950,0.0,,,,,,50.0,,,,,,0,note_on,,95.0,50.0,95.0,226200,235.625
951,0.0,,,,,,43.0,,,,,,0,note_on,,95.0,43.0,95.0,226200,235.625
952,0.0,,,,,,55.0,,,,,,360,note_off,,80.0,55.0,80.0,226560,236.0
953,0.0,,,,,,50.0,,,,,,0,note_off,,80.0,50.0,80.0,226560,236.0
954,0.0,,,,,,43.0,,,,,,0,note_off,,80.0,43.0,80.0,226560,236.0
955,0.0,,,,,,52.0,,,,,,0,note_on,,95.0,52.0,95.0,226560,236.0
956,0.0,,,,,,47.0,,,,,,0,note_on,,95.0,47.0,95.0,226560,236.0
957,0.0,,,,,,40.0,,,,,,0,note_on,,95.0,40.0,95.0,226560,236.0
958,0.0,,,,,,52.0,,,,,,240,note_off,,80.0,52.0,80.0,226800,236.25
959,0.0,,,,,,47.0,,,,,,0,note_off,,80.0,47.0,80.0,226800,236.25
960,0.0,,,,,,40.0,,,,,,0,note_off,,80.0,40.0,80.0,226800,236.25
961,0.0,,,,,,52.0,,,,,,240,note_on,,76.0,52.0,76.0,227040,236.5
962,0.0,,,,,,47.0,,,,,,0,note_on,,76.0,47.0,76.0,227040,236.5
963,0.0,,,,,,40.0,,,,,,0,note_on,,76.0,40.0,76.0,227040,236.5
964,0.0,,,,,,52.0,,,,,,360,note_off,,80.0,52.0,80.0,227400,236.875
965,0.0,,,,,,47.0,,,,,,0,note_off,,80.0,47.0,80.0,227400,236.875
966,0.0,,,,,,40.0,,,,,,0,note_off,,80.0,40.0,80.0,227400,236.875
967,0.0,,,,,,52.0,,,,,,120,note_on,,76.0,52.0,76.0,227520,237.0
968,0.0,,,,,,47.0,,,,,,0,note_on,,76.0,47.0,76.0,227520,237.0
969,0.0,,,,,,40.0,,,,,,0,note_on,,76.0,40.0,76.0,227520,237.0
970,0.0,,,,,,52.0,,,,,,360,note_off,,80.0,52.0,80.0,227880,237.375
971,0.0,,,,,,47.0,,,,,,0,note_off,,80.0,47.0,80.0,227880,237.375
972,0.0,,,,,,40.0,,,,,,0,note_off,,80.0,40.0,80.0,227880,237.375
973,0.0,,,,,,52.0,,,,,,120,note_on,,76.0,52.0,76.0,228000,237.5
974,0.0,,,,,,47.0,,,,,,0,note_on,,76.0,47.0,76.0,228000,237.5
975,0.0,,,,,,40.0,,,,,,0,note_on,,76.0,40.0,76.0,228000,237.5
976,0.0,,,,,,52.0,,,,,,360,note_off,,80.0,52.0,80.0,228360,237.875
977,0.0,,,,,,47.0,,,,,,0,note_off,,80.0,47.0,80.0,228360,237.875
978,0.0,,,,,,40.0,,,,,,0,note_off,,80.0,40.0,80.0,228360,237.875
979,0.0,,,,,,52.0,,,,,,120,note_on,,76.0,52.0,76.0,228480,238.0
980,0.0,,,,,,47.0,,,,,,0,note_on,,76.0,47.0,76.0,228480,238.0
981,0.0,,,,,,40.0,,,,,,0,note_on,,76.0,40.0,76.0,228480,238.0
982,0.0,,,,,,52.0,,,,,,360,note_off,,80.0,52.0,80.0,228840,238.375
983,0.0,,,,,,47.0,,,,,,0,note_off,,80.0,47.0,80.0,228840,238.375
984,0.0,,,,,,40.0,,,,,,0,note_off,,80.0,40.0,80.0,228840,238.375
985,0.0,,,,,,52.0,,,,,,120,note_on,,76.0,52.0,76.0,228960,238.5
986,0.0,,,,,,47.0,,,,,,0,note_on,,76.0,47.0,76.0,228960,238.5
987,0.0,,,,,,40.0,,,,,,0,note_on,,76.0,40.0,76.0,228960,238.5
988,0.0,,,,,,52.0,,,,,,360,note_off,,80.0,52.0,80.0,229320,238.875
989,0.0,,,,,,47.0,,,,,,0,note_off,,80.0,47.0,80.0,229320,238.875
990,0.0,,,,,,40.0,,,,,,0,note_off,,80.0,40.0,80.0,229320,238.875
991,0.0,,,,,,52.0,,,,,,120,note_on,,76.0,52.0,76.0,229440,239.0
992,0.0,,,,,,47.0,,,,,,0,note_on,,76.0,47.0,76.0,229440,239.0
993,0.0,,,,,,40.0,,,,,,0,note_on,,76.0,40.0,76.0,229440,239.0
994,0.0,,,,,,52.0,,,,,,360,note_off,,80.0,52.0,80.0,229800,239.375
995,0.0,,,,,,47.0,,,,,,0,note_off,,80.0,47.0,80.0,229800,239.375
996,0.0,,,,,,40.0,,,,,,0,note_off,,80.0,40.0,80.0,229800,239.375
997,0.0,,,,,,52.0,,,,,,120,note_on,,95.0,52.0,95.0,229920,239.5
998,0.0,,,,,,47.0,,,,,,0,note_on,,95.0,47.0,95.0,229920,239.5
999,0.0,,,,,,40.0,,,,,,0,note_on,,95.0,40.0,95.0,229920,239.5
1000,0.0,,,,,,52.0,,,,,,120,note_off,,80.0,52.0,80.0,230040,239.625
1001,0.0,,,,,,47.0,,,,,,0,note_off,,80.0,47.0,80.0,230040,239.625
1002,0.0,,,,,,40.0,,,,,,0,note_off,,80.0,40.0,80.0,230040,239.625
1003,0.0,,,,,,55.0,,,,,,0,note_on,,95.0,55.0,95.0,230040,239.625
1004,0.0,,,,,,50.0,,,,,,0,note_on,,95.0,50.0,95.0,230040,239.625
1005,0.0,,,,,,43.0,,,,,,0,note_on,,95.0,43.0,95.0,230040,239.625
1006,0.0,,,,,,55.0,,,,,,360,note_off,,80.0,55.0,80.0,230400,240.0
1007,0.0,,,,,,50.0,,,,,,0,note_off,,80.0,50.0,80.0,230400,240.0
1008,0.0,,,,,,43.0,,,,,,0,note_off,,80.0,43.0,80.0,230400,240.0
1009,0.0,,,,,,52.0,,,,,,0,note_on,,95.0,52.0,95.0,230400,240.0
1010,0.0,,,,,,47.0,,,,,,0,note_on,,95.0,47.0,95.0,230400,240.0
1011,0.0,,,,,,40.0,,,,,,0,note_on,,95.0,40.0,95.0,230400,240.0
1012,0.0,,,,,,52.0,,,,,,240,note_off,,80.0,52.0,80.0,230640,240.25
1013,0.0,,,,,,47.0,,,,,,0,note_off,,80.0,47.0,80.0,230640,240.25
1014,0.0,,,,,,40.0,,,,,,0,note_off,,80.0,40.0,80.0,230640,240.25
1015,0.0,,,,,,52.0,,,,,,240,note_on,,76.0,52.0,76.0,230880,240.5
1016,0.0,,,,,,47.0,,,,,,0,note_on,,76.0,47.0,76.0,230880,240.5
1017,0.0,,,,,,40.0,,,,,,0,note_on,,76.0,40.0,76.0,230880,240.5
1018,0.0,,,,,,52.0,,,,,,360,note_off,,80.0,52.0,80.0,231240,240.875
1019,0.0,,,,,,47.0,,,,,,0,note_off,,80.0,47.0,80.0,231240,240.875
1020,0.0,,,,,,40.0,,,,,,0,note_off,,80.0,40.0,80.0,231240,240.875
1021,0.0,,,,,,52.0,,,,,,120,note_on,,76.0,52.0,76.0,231360,241.0
1022,0.0,,,,,,47.0,,,,,,0,note_on,,76.0,47.0,76.0,231360,241.0
1023,0.0,,,,,,40.0,,,,,,0,note_on,,76.0,40.0,76.0,231360,241.0
1024,0.0,,,,,,52.0,,,,,,360,note_off,,80.0,52.0,80.0,231720,241.375
1025,0.0,,,,,,47.0,,,,,,0,note_off,,80.0,47.0,80.0,231720,241.375
1026,0.0,,,,,,40.0,,,,,,0,note_off,,80.0,40.0,80.0,231720,241.375
1027,0.0,,,,,,52.0,,,,,,120,note_on,,76.0,52.0,76.0,231840,241.5
1028,0.0,,,,,,47.0,,,,,,0,note_on,,76.0,47.0,76.0,231840,241.5
1029,0.0,,,,,,40.0,,,,,,0,note_on,,76.0,40.0,76.0,231840,241.5
1030,0.0,,,,,,52.0,,,,,,360,note_off,,80.0,52.0,80.0,232200,241.875
1031,0.0,,,,,,47.0,,,,,,0,note_off,,80.0,47.0,80.0,232200,241.875
1032,0.0,,,,,,40.0,,,,,,0,note_off,,80.0,40.0,80.0,232200,241.875
1033,0.0,,,,,,52.0,,,,,,120,note_on,,76.0,52.0,76.0,232320,242.0
1034,0.0,,,,,,47.0,,,,,,0,note_on,,76.0,47.0,76.0,232320,242.0
1035,0.0,,,,,,40.0,,,,,,0,note_on,,76.0,40.0,76.0,232320,242.0
1036,0.0,,,,,,52.0,,,,,,360,note_off,,80.0,52.0,80.0,232680,242.375
1037,0.0,,,,,,47.0,,,,,,0,note_off,,80.0,47.0,80.0,232680,242.375
1038,0.0,,,,,,40.0,,,,,,0,note_off,,80.0,40.0,80.0,232680,242.375
1039,0.0,,,,,,52.0,,,,,,120,note_on,,76.0,52.0,76.0,232800,242.5
1040,0.0,,,,,,47.0,,,,,,0,note_on,,76.0,47.0,76.0,232800,242.5
1041,0.0,,,,,,40.0,,,,,,0,note_on,,76.0,40.0,76.0,232800,242.5
1042,0.0,,,,,,52.0,,,,,,360,note_off,,80.0,52.0,80.0,233160,242.875
1043,0.0,,,,,,47.0,,,,,,0,note_off,,80.0,47.0,80.0,233160,242.875
1044,0.0,,,,,,40.0,,,,,,0,note_off,,80.0,40.0,80.0,233160,242.875
1045,0.0,,,,,,52.0,,,,,,120,note_on,,76.0,52.0,76.0,233280,243.0
1046,0.0,,,,,,47.0,,,,,,0,note_on,,76.0,47.0,76.0,233280,243.0
1047,0.0,,,,,,40.0,,,,,,0,note_on,,76.0,40.0,76.0,233280,243.0
1048,0.0,,,,,,52.0,,,,,,360,note_off,,80.0,52.0,80.0,233640,243.375
1049,0.0,,,,,,47.0,,,,,,0,note_off,,80.0,47.0,80.0,233640,243.375
1050,0.0,,,,,,40.0,,,,,,0,note_off,,80.0,40.0,80.0,233640,243.375
1051,0.0,,,,,,52.0,,,,,,120,note_on,,95.0,52.0,95.0,233760,243.5
1052,0.0,,,,,,47.0,,,,,,0,note_on,,95.0,47.0,95.0,233760,243.5
1053,0.0,,,,,,40.0,,,,,,0,note_on,,95.0,40.0,95.0,233760,243.5
1054,0.0,,,,,,52.0,,,,,,120,note_off,,80.0,52.0,80.0,233880,243.625
1055,0.0,,,,,,47.0,,,,,,0,note_off,,80.0,47.0,80.0,233880,243.625
1056,0.0,,,,,,40.0,,,,,,0,note_off,,80.0,40.0,80.0,233880,243.625
1057,0.0,,,,,,55.0,,,,,,0,note_on,,95.0,55.0,95.0,233880,243.625
1058,0.0,,,,,,50.0,,,,,,0,note_on,,95.0,50.0,95.0,233880,243.625
1059,0.0,,,,,,43.0,,,,,,0,note_on,,95.0,43.0,95.0,233880,243.625
1060,0.0,,,,,,55.0,,,,,,360,note_off,,80.0,55.0,80.0,234240,244.0
1061,0.0,,,,,,50.0,,,,,,0,note_off,,80.0,50.0,80.0,234240,244.0
1062,0.0,,,,,,43.0,,,,,,0,note_off,,80.0,43.0,80.0,234240,244.0
1063,0.0,,,,,,52.0,,,,,,0,note_on,,95.0,52.0,95.0,234240,244.0
1064,0.0,,,,,,47.0,,,,,,0,note_on,,95.0,47.0,95.0,234240,244.0
1065,0.0,,,,,,40.0,,,,,,0,note_on,,95.0,40.0,95.0,234240,244.0
1066,0.0,,,,,,52.0,,,,,,240,note_off,,80.0,52.0,80.0,234480,244.25
1067,0.0,,,,,,47.0,,,,,,0,note_off,,80.0,47.0,80.0,234480,244.25
1068,0.0,,,,,,40.0,,,,,,0,note_off,,80.0,40.0,80.0,234480,244.25
1069,0.0,,,,,,52.0,,,,,,240,note_on,,76.0,52.0,76.0,234720,244.5
1070,0.0,,,,,,47.0,,,,,,0,note_on,,76.0,47.0,76.0,234720,244.5
1071,0.0,,,,,,40.0,,,,,,0,note_on,,76.0,40.0,76.0,234720,244.5
1072,0.0,,,,,,52.0,,,,,,360,note_off,,80.0,52.0,80.0,235080,244.875
1073,0.0,,,,,,47.0,,,,,,0,note_off,,80.0,47.0,80.0,235080,244.875
1074,0.0,,,,,,40.0,,,,,,0,note_off,,80.0,40.0,80.0,235080,244.875
1075,0.0,,,,,,52.0,,,,,,120,note_on,,76.0,52.0,76.0,235200,245.0
1076,0.0,,,,,,47.0,,,,,,0,note_on,,76.0,47.0,76.0,235200,245.0
1077,0.0,,,,,,40.0,,,,,,0,note_on,,76.0,40.0,76.0,235200,245.0
1078,0.0,,,,,,52.0,,,,,,360,note_off,,80.0,52.0,80.0,235560,245.375
1079,0.0,,,,,,47.0,,,,,,0,note_off,,80.0,47.0,80.0,235560,245.375
1080,0.0,,,,,,40.0,,,,,,0,note_off,,80.0,40.0,80.0,235560,245.375
1081,0.0,,,,,,52.0,,,,,,120,note_on,,76.0,52.0,76.0,235680,245.5
1082,0.0,,,,,,47.0,,,,,,0,note_on,,76.0,47.0,76.0,235680,245.5
1083,0.0,,,,,,40.0,,,,,,0,note_on,,76.0,40.0,76.0,235680,245.5
1084,0.0,,,,,,52.0,,,,,,360,note_off,,80.0,52.0,80.0,236040,245.875
1085,0.0,,,,,,47.0,,,,,,0,note_off,,80.0,47.0,80.0,236040,245.875
1086,0.0,,,,,,40.0,,,,,,0,note_off,,80.0,40.0,80.0,236040,245.875
1087,0.0,,,,,,52.0,,,,,,120,note_on,,76.0,52.0,76.0,236160,246.0
1088,0.0,,,,,,47.0,,,,,,0,note_on,,76.0,47.0,76.0,236160,246.0
1089,0.0,,,,,,40.0,,,,,,0,note_on,,76.0,40.0,76.0,236160,246.0
1090,0.0,,,,,,52.0,,,,,,360,note_off,,80.0,52.0,80.0,236520,246.375
1091,0.0,,,,,,47.0,,,,,,0,note_off,,80.0,47.0,80.0,236520,246.375
1092,0.0,,,,,,40.0,,,,,,0,note_off,,80.0,40.0,80.0,236520,246.375
1093,0.0,,,,,,52.0,,,,,,120,note_on,,76.0,52.0,76.0,236640,246.5
1094,0.0,,,,,,47.0,,,,,,0,note_on,,76.0,47.0,76.0,236640,246.5
1095,0.0,,,,,,40.0,,,,,,0,note_on,,76.0,40.0,76.0,236640,246.5
1096,0.0,,,,,,52.0,,,,,,360,note_off,,80.0,52.0,80.0,237000,246.875
1097,0.0,,,,,,47.0,,,,,,0,note_off,,80.0,47.0,80.0,237000,246.875
1098,0.0,,,,,,40.0,,,,,,0,note_off,,80.0,40.0,80.0,237000,246.875
1099,0.0,,,,,,52.0,,,,,,120,note_on,,76.0,52.0,76.0,237120,247.0
1100,0.0,,,,,,47.0,,,,,,0,note_on,,76.0,47.0,76.0,237120,247.0
1101,0.0,,,,,,40.0,,,,,,0,note_on,,76.0,40.0,76.0,237120,247.0
1102,0.0,,,,,,52.0,,,,,,360,note_off,,80.0,52.0,80.0,237480,247.375
1103,0.0,,,,,,47.0,,,,,,0,note_off,,80.0,47.0,80.0,237480,247.375
1104,0.0,,,,,,40.0,,,,,,0,note_off,,80.0,40.0,80.0,237480,247.375
1105,0.0,,,,,,52.0,,,,,,120,note_on,,95.0,52.0,95.0,237600,247.5
1106,0.0,,,,,,47.0,,,,,,0,note_on,,95.0,47.0,95.0,237600,247.5
1107,0.0,,,,,,40.0,,,,,,0,note_on,,95.0,40.0,95.0,237600,247.5
1108,0.0,,,,,,52.0,,,,,,120,note_off,,80.0,52.0,80.0,237720,247.625
1109,0.0,,,,,,47.0,,,,,,0,note_off,,80.0,47.0,80.0,237720,247.625
1110,0.0,,,,,,40.0,,,,,,0,note_off,,80.0,40.0,80.0,237720,247.625
1111,0.0,,,,,,55.0,,,,,,0,note_on,,95.0,55.0,95.0,237720,247.625
1112,0.0,,,,,,50.0,,,,,,0,note_on,,95.0,50.0,95.0,237720,247.625
1113,0.0,,,,,,43.0,,,,,,0,note_on,,95.0,43.0,95.0,237720,247.625
1114,0.0,,,,,,55.0,,,,,,360,note_off,,80.0,55.0,80.0,238080,248.0
1115,0.0,,,,,,50.0,,,,,,0,note_off,,80.0,50.0,80.0,238080,248.0
1116,0.0,,,,,,43.0,,,,,,0,note_off,,80.0,43.0,80.0,238080,248.0
1117,0.0,,,,,,52.0,,,,,,0,note_on,,95.0,52.0,95.0,238080,248.0
1118,0.0,,,,,,47.0,,,,,,0,note_on,,95.0,47.0,95.0,238080,248.0
1119,0.0,,,,,,40.0,,,,,,0,note_on,,95.0,40.0,95.0,238080,248.0
1120,0.0,,,,,,52.0,,,,,,240,note_off,,80.0,52.0,80.0,238320,248.25
1121,0.0,,,,,,47.0,,,,,,0,note_off,,80.0,47.0,80.0,238320,248.25
1122,0.0,,,,,,40.0,,,,,,0,note_off,,80.0,40.0,80.0,238320,248.25
1123,0.0,,,,,,52.0,,,,,,240,note_on,,76.0,52.0,76.0,238560,248.5
1124,0.0,,,,,,47.0,,,,,,0,note_on,,76.0,47.0,76.0,238560,248.5
1125,0.0,,,,,,40.0,,,,,,0,note_on,,76.0,40.0,76.0,238560,248.5
1126,0.0,,,,,,52.0,,,,,,360,note_off,,80.0,52.0,80.0,238920,248.875
1127,0.0,,,,,,47.0,,,,,,0,note_off,,80.0,47.0,80.0,238920,248.875
1128,0.0,,,,,,40.0,,,,,,0,note_off,,80.0,40.0,80.0,238920,248.875
1129,0.0,,,,,,52.0,,,,,,120,note_on,,76.0,52.0,76.0,239040,249.0
1130,0.0,,,,,,47.0,,,,,,0,note_on,,76.0,47.0,76.0,239040,249.0
1131,0.0,,,,,,40.0,,,,,,0,note_on,,76.0,40.0,76.0,239040,249.0
1132,0.0,,,,,,52.0,,,,,,360,note_off,,80.0,52.0,80.0,239400,249.375
1133,0.0,,,,,,47.0,,,,,,0,note_off,,80.0,47.0,80.0,239400,249.375
1134,0.0,,,,,,40.0,,,,,,0,note_off,,80.0,40.0,80.0,239400,249.375
1135,0.0,,,,,,52.0,,,,,,120,note_on,,76.0,52.0,76.0,239520,249.5
1136,0.0,,,,,,47.0,,,,,,0,note_on,,76.0,47.0,76.0,239520,249.5
1137,0.0,,,,,,40.0,,,,,,0,note_on,,76.0,40.0,76.0,239520,249.5
1138,0.0,,,,,,52.0,,,,,,360,note_off,,80.0,52.0,80.0,239880,249.875
1139,0.0,,,,,,47.0,,,,,,0,note_off,,80.0,47.0,80.0,239880,249.875
1140,0.0,,,,,,40.0,,,,,,0,note_off,,80.0,40.0,80.0,239880,249.875
1141,0.0,,,,,,52.0,,,,,,120,note_on,,76.0,52.0,76.0,240000,250.0
1142,0.0,,,,,,47.0,,,,,,0,note_on,,76.0,47.0,76.0,240000,250.0
1143,0.0,,,,,,40.0,,,,,,0,note_on,,76.0,40.0,76.0,240000,250.0
1144,0.0,,,,,,52.0,,,,,,360,note_off,,80.0,52.0,80.0,240360,250.375
1145,0.0,,,,,,47.0,,,,,,0,note_off,,80.0,47.0,80.0,240360,250.375
1146,0.0,,,,,,40.0,,,,,,0,note_off,,80.0,40.0,80.0,240360,250.375
1147,0.0,,,,,,52.0,,,,,,120,note_on,,76.0,52.0,76.0,240480,250.5
1148,0.0,,,,,,47.0,,,,,,0,note_on,,76.0,47.0,76.0,240480,250.5
1149,0.0,,,,,,40.0,,,,,,0,note_on,,76.0,40.0,76.0,240480,250.5
1150,0.0,,,,,,52.0,,,,,,360,note_off,,80.0,52.0,80.0,240840,250.875
1151,0.0,,,,,,47.0,,,,,,0,note_off,,80.0,47.0,80.0,240840,250.875
1152,0.0,,,,,,40.0,,,,,,0,note_off,,80.0,40.0,80.0,240840,250.875
1153,0.0,,,,,,52.0,,,,,,120,note_on,,76.0,52.0,76.0,240960,251.0
1154,0.0,,,,,,47.0,,,,,,0,note_on,,76.0,47.0,76.0,240960,251.0
1155,0.0,,,,,,40.0,,,,,,0,note_on,,76.0,40.0,76.0,240960,251.0
1156,0.0,,,,,,52.0,,,,,,360,note_off,,80.0,52.0,80.0,241320,251.375
1157,0.0,,,,,,47.0,,,,,,0,note_off,,80.0,47.0,80.0,241320,251.375
1158,0.0,,,,,,40.0,,,,,,0,note_off,,80.0,40.0,80.0,241320,251.375
1159,0.0,,,,,,52.0,,,,,,120,note_on,,95.0,52.0,95.0,241440,251.5
1160,0.0,,,,,,47.0,,,,,,0,note_on,,95.0,47.0,95.0,241440,251.5
1161,0.0,,,,,,40.0,,,,,,0,note_on,,95.0,40.0,95.0,241440,251.5
1162,0.0,,,,,,52.0,,,,,,120,note_off,,80.0,52.0,80.0,241560,251.625
1163,0.0,,,,,,47.0,,,,,,0,note_off,,80.0,47.0,80.0,241560,251.625
1164,0.0,,,,,,40.0,,,,,,0,note_off,,80.0,40.0,80.0,241560,251.625
1165,0.0,,,,,,55.0,,,,,,0,note_on,,95.0,55.0,95.0,241560,251.625
1166,0.0,,,,,,50.0,,,,,,0,note_on,,95.0,50.0,95.0,241560,251.625
1167,0.0,,,,,,43.0,,,,,,0,note_on,,95.0,43.0,95.0,241560,251.625
1168,0.0,,,,,,55.0,,,,,,360,note_off,,80.0,55.0,80.0,241920,252.0
1169,0.0,,,,,,50.0,,,,,,0,note_off,,80.0,50.0,80.0,241920,252.0
1170,0.0,,,,,,43.0,,,,,,0,note_off,,80.0,43.0,80.0,241920,252.0
1171,0.0,,,,,,52.0,,,,,,0,note_on,,95.0,52.0,95.0,241920,252.0
1172,0.0,,,,,,47.0,,,,,,0,note_on,,95.0,47.0,95.0,241920,252.0
1173,0.0,,,,,,40.0,,,,,,0,note_on,,95.0,40.0,95.0,241920,252.0
1174,0.0,,,,,,52.0,,,,,,240,note_off,,80.0,52.0,80.0,242160,252.25
1175,0.0,,,,,,47.0,,,,,,0,note_off,,80.0,47.0,80.0,242160,252.25
1176,0.0,,,,,,40.0,,,,,,0,note_off,,80.0,40.0,80.0,242160,252.25
1177,1.0,,,,,,55.0,,,,,,0,note_on,,95.0,55.0,95.0,242160,252.25
1178,1.0,,,,,,,,0.0,,,,0,pitchwheel,,,,,242160,252.25
1179,1.0,,,,,,,,256.0,,,,16,pitchwheel,,,,,242176,252.26666666666665
1180,1.0,,,,,,,,1152.0,,,,16,pitchwheel,,,,,242192,252.28333333333333
1181,1.0,,,,,,,,1408.0,,,,16,pitchwheel,,,,,242208,252.29999999999998
1182,1.0,,,,,,,,640.0,,,,48,pitchwheel,,,,,242256,252.35
1183,1.0,,,,,,,,128.0,,,,16,pitchwheel,,,,,242272,252.36666666666667
1184,1.0,,,,,,,,0.0,,,,16,pitchwheel,,,,,242288,252.38333333333333
1185,1.0,,,,,,55.0,,,,,,112,note_off,,80.0,55.0,80.0,242400,252.5
1186,1.0,,,,,,,,0.0,,,,0,pitchwheel,,,,,242400,252.5
1187,0.0,,,,,,55.0,,,,,,0,note_on,,95.0,55.0,95.0,242400,252.5
1188,0.0,,,,,,55.0,,,,,,120,note_off,,80.0,55.0,80.0,242520,252.625
1189,0.0,,,,,,54.0,,,,,,0,note_on,,95.0,54.0,95.0,242520,252.625
1190,0.0,,,,,,54.0,,,,,,120,note_off,,80.0,54.0,80.0,242640,252.75
1191,0.0,,,,,,50.0,,,,,,0,note_on,,95.0,50.0,95.0,242640,252.75
1192,0.0,,,,,,50.0,,,,,,120,note_off,,80.0,50.0,80.0,242760,252.875
1193,0.0,,,,,,50.0,,,,,,0,note_on,,95.0,50.0,95.0,242760,252.875
1194,0.0,,,,,,50.0,,,,,,240,note_off,,80.0,50.0,80.0,243000,253.125
1195,0.0,,,,,,49.0,,,,,,0,note_on,,95.0,49.0,95.0,243000,253.125
1196,0.0,,,,,,49.0,,,,,,120,note_off,,80.0,49.0,80.0,243120,253.25
1197,0.0,,,,,,45.0,,,,,,0,note_on,,95.0,45.0,95.0,243120,253.25
1198,0.0,,,,,,45.0,,,,,,240,note_off,,80.0,45.0,80.0,243360,253.5
1199,0.0,,,,,,52.0,,,,,,0,note_on,,95.0,52.0,95.0,243360,253.5
1200,0.0,,,,,,47.0,,,,,,0,note_on,,95.0,47.0,95.0,243360,253.5
1201,0.0,,,,,,40.0,,,,,,0,note_on,,95.0,40.0,95.0,243360,253.5
1202,0.0,,,,,,52.0,,,,,,20,note_off,,80.0,52.0,80.0,243380,253.52083333333334
1203,0.0,,,,,,47.0,,,,,,0,note_off,,80.0,47.0,80.0,243380,253.52083333333334
1204,0.0,,,,,,40.0,,,,,,0,note_off,,80.0,40.0,80.0,243380,253.52083333333334
1205,0.0,,,,,,55.0,,,,,,100,note_on,,95.0,55.0,95.0,243480,253.625
1206,0.0,,,,,,50.0,,,,,,0,note_on,,95.0,50.0,95.0,243480,253.625
1207,0.0,,,,,,43.0,,,,,,0,note_on,,95.0,43.0,95.0,243480,253.625
1208,0.0,,,,,,55.0,,,,,,360,note_off,,80.0,55.0,80.0,243840,254.0
1209,0.0,,,,,,50.0,,,,,,0,note_off,,80.0,50.0,80.0,243840,254.0
1210,0.0,,,,,,43.0,,,,,,0,note_off,,80.0,43.0,80.0,243840,254.0
1211,0.0,,,,,,52.0,,,,,,0,note_on,,95.0,52.0,95.0,243840,254.0
1212,0.0,,,,,,47.0,,,,,,0,note_on,,95.0,47.0,95.0,243840,254.0
1213,0.0,,,,,,40.0,,,,,,0,note_on,,95.0,40.0,95.0,243840,254.0
1214,0.0,,,,,,52.0,,,,,,240,note_off,,80.0,52.0,80.0,244080,254.25
1215,0.0,,,,,,47.0,,,,,,0,note_off,,80.0,47.0,80.0,244080,254.25
1216,0.0,,,,,,40.0,,,,,,0,note_off,,80.0,40.0,80.0,244080,254.25
1217,1.0,,,,,,55.0,,,,,,0,note_on,,95.0,55.0,95.0,244080,254.25
1218,1.0,,,,,,,,0.0,,,,0,pitchwheel,,,,,244080,254.25
1219,1.0,,,,,,,,256.0,,,,16,pitchwheel,,,,,244096,254.26666666666665
1220,1.0,,,,,,,,1152.0,,,,16,pitchwheel,,,,,244112,254.28333333333333
1221,1.0,,,,,,,,1408.0,,,,16,pitchwheel,,,,,244128,254.29999999999998
1222,1.0,,,,,,,,640.0,,,,48,pitchwheel,,,,,244176,254.35
1223,1.0,,,,,,,,128.0,,,,16,pitchwheel,,,,,244192,254.36666666666667
1224,1.0,,,,,,,,0.0,,,,16,pitchwheel,,,,,244208,254.38333333333333
1225,1.0,,,,,,55.0,,,,,,112,note_off,,80.0,55.0,80.0,244320,254.5
1226,1.0,,,,,,,,0.0,,,,0,pitchwheel,,,,,244320,254.5
1227,0.0,,,,,,55.0,,,,,,0,note_on,,95.0,55.0,95.0,244320,254.5
1228,0.0,,,,,,55.0,,,,,,120,note_off,,80.0,55.0,80.0,244440,254.625
1229,0.0,,,,,,54.0,,,,,,0,note_on,,95.0,54.0,95.0,244440,254.625
1230,0.0,,,,,,54.0,,,,,,120,note_off,,80.0,54.0,80.0,244560,254.75
1231,0.0,,,,,,50.0,,,,,,0,note_on,,95.0,50.0,95.0,244560,254.75
1232,0.0,,,,,,50.0,,,,,,120,note_off,,80.0,50.0,80.0,244680,254.875
1233,0.0,,,,,,62.0,,,,,,0,note_on,,95.0,62.0,95.0,244680,254.875
1234,0.0,,,,,,62.0,,,,,,240,note_off,,80.0,62.0,80.0,244920,255.125
1235,0.0,,,,,,61.0,,,,,,0,note_on,,95.0,61.0,95.0,244920,255.125
1236,0.0,,,,,,61.0,,,,,,120,note_off,,80.0,61.0,80.0,245040,255.25
1237,0.0,,,,,,57.0,,,,,,0,note_on,,95.0,57.0,95.0,245040,255.25
1238,0.0,,,,,,57.0,,,,,,240,note_off,,80.0,57.0,80.0,245280,255.5
1239,0.0,,,,,,52.0,,,,,,0,note_on,,95.0,52.0,95.0,245280,255.5
1240,0.0,,,,,,47.0,,,,,,0,note_on,,95.0,47.0,95.0,245280,255.5
1241,0.0,,,,,,40.0,,,,,,0,note_on,,95.0,40.0,95.0,245280,255.5
1242,0.0,,,,,,52.0,,,,,,120,note_off,,80.0,52.0,80.0,245400,255.625
1243,0.0,,,,,,47.0,,,,,,0,note_off,,80.0,47.0,80.0,245400,255.625
1244,0.0,,,,,,40.0,,,,,,0,note_off,,80.0,40.0,80.0,245400,255.625
1245,0.0,,,,,,55.0,,,,,,0,note_on,,95.0,55.0,95.0,245400,255.625
1246,0.0,,,,,,50.0,,,,,,0,note_on,,95.0,50.0,95.0,245400,255.625
1247,0.0,,,,,,43.0,,,,,,0,note_on,,95.0,43.0,95.0,245400,255.625
1248,0.0,,,,,,55.0,,,,,,360,note_off,,80.0,55.0,80.0,245760,256.0
1249,0.0,,,,,,50.0,,,,,,0,note_off,,80.0,50.0,80.0,245760,256.0
1250,0.0,,,,,,43.0,,,,,,0,note_off,,80.0,43.0,80.0,245760,256.0
1251,0.0,,,,,,52.0,,,,,,0,note_on,,95.0,52.0,95.0,245760,256.0
1252,0.0,,,,,,47.0,,,,,,0,note_on,,95.0,47.0,95.0,245760,256.0
1253,0.0,,,,,,40.0,,,,,,0,note_on,,95.0,40.0,95.0,245760,256.0
1254,0.0,,,,,,52.0,,,,,,240,note_off,,80.0,52.0,80.0,246000,256.25
1255,0.0,,,,,,47.0,,,,,,0,note_off,,80.0,47.0,80.0,246000,256.25
1256,0.0,,,,,,40.0,,,,,,0,note_off,,80.0,40.0,80.0,246000,256.25
1257,1.0,,,,,,55.0,,,,,,0,note_on,,95.0,55.0,95.0,246000,256.25
1258,1.0,,,,,,,,0.0,,,,0,pitchwheel,,,,,246000,256.25
1259,1.0,,,,,,,,256.0,,,,16,pitchwheel,,,,,246016,256.26666666666665
1260,1.0,,,,,,,,1152.0,,,,16,pitchwheel,,,,,246032,256.2833333333333
1261,1.0,,,,,,,,1408.0,,,,16,pitchwheel,,,,,246048,256.3
1262,1.0,,,,,,,,640.0,,,,48,pitchwheel,,,,,246096,256.35
1263,1.0,,,,,,,,128.0,,,,16,pitchwheel,,,,,246112,256.3666666666667
1264,1.0,,,,,,,,0.0,,,,16,pitchwheel,,,,,246128,256.3833333333333
1265,1.0,,,,,,55.0,,,,,,112,note_off,,80.0,55.0,80.0,246240,256.5
1266,1.0,,,,,,,,0.0,,,,0,pitchwheel,,,,,246240,256.5
1267,0.0,,,,,,55.0,,,,,,0,note_on,,95.0,55.0,95.0,246240,256.5
1268,0.0,,,,,,55.0,,,,,,120,note_off,,80.0,55.0,80.0,246360,256.625
1269,0.0,,,,,,54.0,,,,,,0,note_on,,95.0,54.0,95.0,246360,256.625
1270,0.0,,,,,,54.0,,,,,,120,note_off,,80.0,54.0,80.0,246480,256.75
1271,0.0,,,,,,50.0,,,,,,0,note_on,,95.0,50.0,95.0,246480,256.75
1272,0.0,,,,,,50.0,,,,,,120,note_off,,80.0,50.0,80.0,246600,256.875
1273,0.0,,,,,,50.0,,,,,,0,note_on,,95.0,50.0,95.0,246600,256.875
1274,0.0,,,,,,50.0,,,,,,240,note_off,,80.0,50.0,80.0,246840,257.125
1275,0.0,,,,,,49.0,,,,,,0,note_on,,95.0,49.0,95.0,246840,257.125
1276,0.0,,,,,,49.0,,,,,,120,note_off,,80.0,49.0,80.0,246960,257.25
1277,0.0,,,,,,45.0,,,,,,0,note_on,,95.0,45.0,95.0,246960,257.25
1278,0.0,,,,,,45.0,,,,,,240,note_off,,80.0,45.0,80.0,247200,257.5
1279,0.0,,,,,,52.0,,,,,,0,note_on,,95.0,52.0,95.0,247200,257.5
1280,0.0,,,,,,47.0,,,,,,0,note_on,,95.0,47.0,95.0,247200,257.5
1281,0.0,,,,,,40.0,,,,,,0,note_on,,95.0,40.0,95.0,247200,257.5
1282,0.0,,,,,,52.0,,,,,,120,note_off,,80.0,52.0,80.0,247320,257.625
1283,0.0,,,,,,47.0,,,,,,0,note_off,,80.0,47.0,80.0,247320,257.625
1284,0.0,,,,,,40.0,,,,,,0,note_off,,80.0,40.0,80.0,247320,257.625
1285,0.0,,,,,,55.0,,,,,,0,note_on,,95.0,55.0,95.0,247320,257.625
1286,0.0,,,,,,50.0,,,,,,0,note_on,,95.0,50.0,95.0,247320,257.625
1287,0.0,,,,,,43.0,,,,,,0,note_on,,95.0,43.0,95.0,247320,257.625
1288,0.0,,,,,,55.0,,,,,,360,note_off,,80.0,55.0,80.0,247680,258.0
1289,0.0,,,,,,50.0,,,,,,0,note_off,,80.0,50.0,80.0,247680,258.0
1290,0.0,,,,,,43.0,,,,,,0,note_off,,80.0,43.0,80.0,247680,258.0
1291,0.0,,,,,,52.0,,,,,,0,note_on,,95.0,52.0,95.0,247680,258.0
1292,0.0,,,,,,47.0,,,,,,0,note_on,,95.0,47.0,95.0,247680,258.0
1293,0.0,,,,,,40.0,,,,,,0,note_on,,95.0,40.0,95.0,247680,258.0
1294,0.0,,,,,,52.0,,,,,,240,note_off,,80.0,52.0,80.0,247920,258.25
1295,0.0,,,,,,47.0,,,,,,0,note_off,,80.0,47.0,80.0,247920,258.25
1296,0.0,,,,,,40.0,,,,,,0,note_off,,80.0,40.0,80.0,247920,258.25
1297,1.0,,,,,,55.0,,,,,,0,note_on,,95.0,55.0,95.0,247920,258.25
1298,1.0,,,,,,,,0.0,,,,0,pitchwheel,,,,,247920,258.25
1299,1.0,,,,,,,,256.0,,,,16,pitchwheel,,,,,247936,258.26666666666665
1300,1.0,,,,,,,,1152.0,,,,16,pitchwheel,,,,,247952,258.2833333333333
1301,1.0,,,,,,,,1408.0,,,,16,pitchwheel,,,,,247968,258.3
1302,1.0,,,,,,,,640.0,,,,48,pitchwheel,,,,,248016,258.35
1303,1.0,,,,,,,,128.0,,,,16,pitchwheel,,,,,248032,258.3666666666667
1304,1.0,,,,,,,,0.0,,,,16,pitchwheel,,,,,248048,258.3833333333333
1305,1.0,,,,,,55.0,,,,,,112,note_off,,80.0,55.0,80.0,248160,258.5
1306,1.0,,,,,,,,0.0,,,,0,pitchwheel,,,,,248160,258.5
1307,0.0,,,,,,55.0,,,,,,0,note_on,,95.0,55.0,95.0,248160,258.5
1308,0.0,,,,,,55.0,,,,,,120,note_off,,80.0,55.0,80.0,248280,258.625
1309,0.0,,,,,,54.0,,,,,,0,note_on,,95.0,54.0,95.0,248280,258.625
1310,0.0,,,,,,54.0,,,,,,120,note_off,,80.0,54.0,80.0,248400,258.75
1311,0.0,,,,,,50.0,,,,,,0,note_on,,95.0,50.0,95.0,248400,258.75
1312,0.0,,,,,,50.0,,,,,,120,note_off,,80.0,50.0,80.0,248520,258.875
1313,0.0,,,,,,62.0,,,,,,0,note_on,,95.0,62.0,95.0,248520,258.875
1314,0.0,,,,,,57.0,,,,,,0,note_on,,95.0,57.0,95.0,248520,258.875
1315,0.0,,,,,,50.0,,,,,,0,note_on,,95.0,50.0,95.0,248520,258.875
1316,0.0,,,,,,62.0,,,,,,120,note_off,,80.0,62.0,80.0,248640,259.0
1317,0.0,,,,,,57.0,,,,,,0,note_off,,80.0,57.0,80.0,248640,259.0
1318,0.0,,,,,,50.0,,,,,,0,note_off,,80.0,50.0,80.0,248640,259.0
1319,0.0,,,,,,64.0,,,,,,120,note_on,,95.0,64.0,95.0,248760,259.125
1320,0.0,,,,,,59.0,,,,,,0,note_on,,95.0,59.0,95.0,248760,259.125
1321,0.0,,,,,,52.0,,,,,,0,note_on,,95.0,52.0,95.0,248760,259.125
1322,0.0,,,,,,64.0,,,,,,120,note_off,,80.0,64.0,80.0,248880,259.25
1323,0.0,,,,,,59.0,,,,,,120,note_off,,80.0,59.0,80.0,249000,259.375
1324,0.0,,,,,,52.0,,,,,,0,note_off,,80.0,52.0,80.0,249000,259.375
1325,0.0,,,,,,62.0,,,,,,0,note_on,,95.0,62.0,95.0,249000,259.375
1326,0.0,,,,,,57.0,,,,,,0,note_on,,95.0,57.0,95.0,249000,259.375
1327,0.0,,,,,,50.0,,,,,,0,note_on,,95.0,50.0,95.0,249000,259.375
1328,0.0,,,,,,62.0,,,,,,120,note_off,,80.0,62.0,80.0,249120,259.5
1329,0.0,,,,,,57.0,,,,,,0,note_off,,80.0,57.0,80.0,249120,259.5
1330,0.0,,,,,,50.0,,,,,,0,note_off,,80.0,50.0,80.0,249120,259.5
1331,0.0,,,,,,64.0,,,,,,0,note_on,,95.0,64.0,95.0,249120,259.5
1332,0.0,,,,,,59.0,,,,,,0,note_on,,95.0,59.0,95.0,249120,259.5
1333,0.0,,,,,,52.0,,,,,,0,note_on,,95.0,52.0,95.0,249120,259.5
1334,0.0,,,,,,64.0,,,,,,480,note_off,,80.0,64.0,80.0,249600,260.0
1335,0.0,,,,,,59.0,,,,,,0,note_off,,80.0,59.0,80.0,249600,260.0
1336,0.0,,,,,,52.0,,,,,,0,note_off,,80.0,52.0,80.0,249600,260.0
1337,0.0,,,,,,52.0,,,,,,0,note_on,,95.0,52.0,95.0,249600,260.0
1338,0.0,,,,,,47.0,,,,,,0,note_on,,95.0,47.0,95.0,249600,260.0
1339,0.0,,,,,,40.0,,,,,,0,note_on,,95.0,40.0,95.0,249600,260.0
1340,0.0,,,,,,52.0,,,,,,240,note_off,,80.0,52.0,80.0,249840,260.25
1341,0.0,,,,,,47.0,,,,,,0,note_off,,80.0,47.0,80.0,249840,260.25
1342,0.0,,,,,,40.0,,,,,,0,note_off,,80.0,40.0,80.0,249840,260.25
1343,1.0,,,,,,55.0,,,,,,0,note_on,,95.0,55.0,95.0,249840,260.25
1344,1.0,,,,,,,,0.0,,,,0,pitchwheel,,,,,249840,260.25
1345,1.0,,,,,,,,256.0,,,,16,pitchwheel,,,,,249856,260.26666666666665
1346,1.0,,,,,,,,1152.0,,,,16,pitchwheel,,,,,249872,260.2833333333333
1347,1.0,,,,,,,,1408.0,,,,16,pitchwheel,,,,,249888,260.3
1348,1.0,,,,,,,,640.0,,,,48,pitchwheel,,,,,249936,260.35
1349,1.0,,,,,,,,128.0,,,,16,pitchwheel,,,,,249952,260.3666666666667
1350,1.0,,,,,,,,0.0,,,,16,pitchwheel,,,,,249968,260.3833333333333
1351,1.0,,,,,,55.0,,,,,,112,note_off,,80.0,55.0,80.0,250080,260.5
1352,1.0,,,,,,,,0.0,,,,0,pitchwheel,,,,,250080,260.5
1353,0.0,,,,,,55.0,,,,,,0,note_on,,95.0,55.0,95.0,250080,260.5
1354,0.0,,,,,,55.0,,,,,,120,note_off,,80.0,55.0,80.0,250200,260.625
1355,0.0,,,,,,54.0,,,,,,0,note_on,,95.0,54.0,95.0,250200,260.625
1356,0.0,,,,,,54.0,,,,,,120,note_off,,80.0,54.0,80.0,250320,260.75
1357,0.0,,,,,,50.0,,,,,,0,note_on,,95.0,50.0,95.0,250320,260.75
1358,0.0,,,,,,50.0,,,,,,120,note_off,,80.0,50.0,80.0,250440,260.875
1359,0.0,,,,,,50.0,,,,,,0,note_on,,95.0,50.0,95.0,250440,260.875
1360,0.0,,,,,,50.0,,,,,,240,note_off,,80.0,50.0,80.0,250680,261.125
1361,0.0,,,,,,49.0,,,,,,0,note_on,,95.0,49.0,95.0,250680,261.125
1362,0.0,,,,,,49.0,,,,,,120,note_off,,80.0,49.0,80.0,250800,261.25
1363,0.0,,,,,,45.0,,,,,,0,note_on,,95.0,45.0,95.0,250800,261.25
1364,0.0,,,,,,45.0,,,,,,240,note_off,,80.0,45.0,80.0,251040,261.5
1365,0.0,,,,,,52.0,,,,,,0,note_on,,95.0,52.0,95.0,251040,261.5
1366,0.0,,,,,,47.0,,,,,,0,note_on,,95.0,47.0,95.0,251040,261.5
1367,0.0,,,,,,40.0,,,,,,0,note_on,,95.0,40.0,95.0,251040,261.5
1368,0.0,,,,,,52.0,,,,,,20,note_off,,80.0,52.0,80.0,251060,261.5208333333333
1369,0.0,,,,,,47.0,,,,,,0,note_off,,80.0,47.0,80.0,251060,261.5208333333333
1370,0.0,,,,,,40.0,,,,,,0,note_off,,80.0,40.0,80.0,251060,261.5208333333333
1371,0.0,,,,,,55.0,,,,,,100,note_on,,95.0,55.0,95.0,251160,261.625
1372,0.0,,,,,,50.0,,,,,,0,note_on,,95.0,50.0,95.0,251160,261.625
1373,0.0,,,,,,43.0,,,,,,0,note_on,,95.0,43.0,95.0,251160,261.625
1374,0.0,,,,,,55.0,,,,,,360,note_off,,80.0,55.0,80.0,251520,262.0
1375,0.0,,,,,,50.0,,,,,,0,note_off,,80.0,50.0,80.0,251520,262.0
1376,0.0,,,,,,43.0,,,,,,0,note_off,,80.0,43.0,80.0,251520,262.0
1377,0.0,,,,,,52.0,,,,,,0,note_on,,95.0,52.0,95.0,251520,262.0
1378,0.0,,,,,,47.0,,,,,,0,note_on,,95.0,47.0,95.0,251520,262.0
1379,0.0,,,,,,40.0,,,,,,0,note_on,,95.0,40.0,95.0,251520,262.0
1380,0.0,,,,,,52.0,,,,,,240,note_off,,80.0,52.0,80.0,251760,262.25
1381,0.0,,,,,,47.0,,,,,,0,note_off,,80.0,47.0,80.0,251760,262.25
1382,0.0,,,,,,40.0,,,,,,0,note_off,,80.0,40.0,80.0,251760,262.25
1383,1.0,,,,,,55.0,,,,,,0,note_on,,95.0,55.0,95.0,251760,262.25
1384,1.0,,,,,,,,0.0,,,,0,pitchwheel,,,,,251760,262.25
1385,1.0,,,,,,,,256.0,,,,16,pitchwheel,,,,,251776,262.26666666666665
1386,1.0,,,,,,,,1152.0,,,,16,pitchwheel,,,,,251792,262.2833333333333
1387,1.0,,,,,,,,1408.0,,,,16,pitchwheel,,,,,251808,262.3
1388,1.0,,,,,,,,640.0,,,,48,pitchwheel,,,,,251856,262.35
1389,1.0,,,,,,,,128.0,,,,16,pitchwheel,,,,,251872,262.3666666666667
1390,1.0,,,,,,,,0.0,,,,16,pitchwheel,,,,,251888,262.3833333333333
1391,1.0,,,,,,55.0,,,,,,112,note_off,,80.0,55.0,80.0,252000,262.5
1392,1.0,,,,,,,,0.0,,,,0,pitchwheel,,,,,252000,262.5
1393,0.0,,,,,,55.0,,,,,,0,note_on,,95.0,55.0,95.0,252000,262.5
1394,0.0,,,,,,55.0,,,,,,120,note_off,,80.0,55.0,80.0,252120,262.625
1395,0.0,,,,,,54.0,,,,,,0,note_on,,95.0,54.0,95.0,252120,262.625
1396,0.0,,,,,,54.0,,,,,,120,note_off,,80.0,54.0,80.0,252240,262.75
1397,0.0,,,,,,50.0,,,,,,0,note_on,,95.0,50.0,95.0,252240,262.75
1398,0.0,,,,,,50.0,,,,,,120,note_off,,80.0,50.0,80.0,252360,262.875
1399,0.0,,,,,,62.0,,,,,,0,note_on,,95.0,62.0,95.0,252360,262.875
1400,0.0,,,,,,62.0,,,,,,240,note_off,,80.0,62.0,80.0,252600,263.125
1401,0.0,,,,,,61.0,,,,,,0,note_on,,95.0,61.0,95.0,252600,263.125
1402,0.0,,,,,,61.0,,,,,,120,note_off,,80.0,61.0,80.0,252720,263.25
1403,0.0,,,,,,57.0,,,,,,0,note_on,,95.0,57.0,95.0,252720,263.25
1404,0.0,,,,,,57.0,,,,,,240,note_off,,80.0,57.0,80.0,252960,263.5
1405,0.0,,,,,,52.0,,,,,,0,note_on,,95.0,52.0,95.0,252960,263.5
1406,0.0,,,,,,47.0,,,,,,0,note_on,,95.0,47.0,95.0,252960,263.5
1407,0.0,,,,,,40.0,,,,,,0,note_on,,95.0,40.0,95.0,252960,263.5
1408,0.0,,,,,,52.0,,,,,,120,note_off,,80.0,52.0,80.0,253080,263.625
1409,0.0,,,,,,47.0,,,,,,0,note_off,,80.0,47.0,80.0,253080,263.625
1410,0.0,,,,,,40.0,,,,,,0,note_off,,80.0,40.0,80.0,253080,263.625
1411,0.0,,,,,,55.0,,,,,,0,note_on,,95.0,55.0,95.0,253080,263.625
1412,0.0,,,,,,50.0,,,,,,0,note_on,,95.0,50.0,95.0,253080,263.625
1413,0.0,,,,,,43.0,,,,,,0,note_on,,95.0,43.0,95.0,253080,263.625
1414,0.0,,,,,,55.0,,,,,,360,note_off,,80.0,55.0,80.0,253440,264.0
1415,0.0,,,,,,50.0,,,,,,0,note_off,,80.0,50.0,80.0,253440,264.0
1416,0.0,,,,,,43.0,,,,,,0,note_off,,80.0,43.0,80.0,253440,264.0
1417,0.0,,,,,,52.0,,,,,,0,note_on,,95.0,52.0,95.0,253440,264.0
1418,0.0,,,,,,47.0,,,,,,0,note_on,,95.0,47.0,95.0,253440,264.0
1419,0.0,,,,,,40.0,,,,,,0,note_on,,95.0,40.0,95.0,253440,264.0
1420,0.0,,,,,,52.0,,,,,,240,note_off,,80.0,52.0,80.0,253680,264.25
1421,0.0,,,,,,47.0,,,,,,0,note_off,,80.0,47.0,80.0,253680,264.25
1422,0.0,,,,,,40.0,,,,,,0,note_off,,80.0,40.0,80.0,253680,264.25
1423,1.0,,,,,,55.0,,,,,,0,note_on,,95.0,55.0,95.0,253680,264.25
1424,1.0,,,,,,,,0.0,,,,0,pitchwheel,,,,,253680,264.25
1425,1.0,,,,,,,,256.0,,,,16,pitchwheel,,,,,253696,264.26666666666665
1426,1.0,,,,,,,,1152.0,,,,16,pitchwheel,,,,,253712,264.2833333333333
1427,1.0,,,,,,,,1408.0,,,,16,pitchwheel,,,,,253728,264.3
1428,1.0,,,,,,,,640.0,,,,48,pitchwheel,,,,,253776,264.35
1429,1.0,,,,,,,,128.0,,,,16,pitchwheel,,,,,253792,264.3666666666667
1430,1.0,,,,,,,,0.0,,,,16,pitchwheel,,,,,253808,264.3833333333333
1431,1.0,,,,,,55.0,,,,,,112,note_off,,80.0,55.0,80.0,253920,264.5
1432,1.0,,,,,,,,0.0,,,,0,pitchwheel,,,,,253920,264.5
1433,0.0,,,,,,55.0,,,,,,0,note_on,,95.0,55.0,95.0,253920,264.5
1434,0.0,,,,,,55.0,,,,,,120,note_off,,80.0,55.0,80.0,254040,264.625
1435,0.0,,,,,,54.0,,,,,,0,note_on,,95.0,54.0,95.0,254040,264.625
1436,0.0,,,,,,54.0,,,,,,120,note_off,,80.0,54.0,80.0,254160,264.75
1437,0.0,,,,,,50.0,,,,,,0,note_on,,95.0,50.0,95.0,254160,264.75
1438,0.0,,,,,,50.0,,,,,,120,note_off,,80.0,50.0,80.0,254280,264.875
1439,0.0,,,,,,50.0,,,,,,0,note_on,,95.0,50.0,95.0,254280,264.875
1440,0.0,,,,,,50.0,,,,,,240,note_off,,80.0,50.0,80.0,254520,265.125
1441,0.0,,,,,,49.0,,,,,,0,note_on,,95.0,49.0,95.0,254520,265.125
1442,0.0,,,,,,49.0,,,,,,120,note_off,,80.0,49.0,80.0,254640,265.25
1443,0.0,,,,,,45.0,,,,,,0,note_on,,95.0,45.0,95.0,254640,265.25
1444,0.0,,,,,,45.0,,,,,,240,note_off,,80.0,45.0,80.0,254880,265.5
1445,0.0,,,,,,52.0,,,,,,0,note_on,,95.0,52.0,95.0,254880,265.5
1446,0.0,,,,,,47.0,,,,,,0,note_on,,95.0,47.0,95.0,254880,265.5
1447,0.0,,,,,,40.0,,,,,,0,note_on,,95.0,40.0,95.0,254880,265.5
1448,0.0,,,,,,52.0,,,,,,120,note_off,,80.0,52.0,80.0,255000,265.625
1449,0.0,,,,,,47.0,,,,,,0,note_off,,80.0,47.0,80.0,255000,265.625
1450,0.0,,,,,,40.0,,,,,,0,note_off,,80.0,40.0,80.0,255000,265.625
1451,0.0,,,,,,55.0,,,,,,0,note_on,,95.0,55.0,95.0,255000,265.625
1452,0.0,,,,,,50.0,,,,,,0,note_on,,95.0,50.0,95.0,255000,265.625
1453,0.0,,,,,,43.0,,,,,,0,note_on,,95.0,43.0,95.0,255000,265.625
1454,0.0,,,,,,55.0,,,,,,360,note_off,,80.0,55.0,80.0,255360,266.0
1455,0.0,,,,,,50.0,,,,,,0,note_off,,80.0,50.0,80.0,255360,266.0
1456,0.0,,,,,,43.0,,,,,,0,note_off,,80.0,43.0,80.0,255360,266.0
1457,0.0,,,,,,52.0,,,,,,0,note_on,,95.0,52.0,95.0,255360,266.0
1458,0.0,,,,,,47.0,,,,,,0,note_on,,95.0,47.0,95.0,255360,266.0
1459,0.0,,,,,,40.0,,,,,,0,note_on,,95.0,40.0,95.0,255360,266.0
1460,0.0,,,,,,52.0,,,,,,240,note_off,,80.0,52.0,80.0,255600,266.25
1461,0.0,,,,,,47.0,,,,,,0,note_off,,80.0,47.0,80.0,255600,266.25
1462,0.0,,,,,,40.0,,,,,,0,note_off,,80.0,40.0,80.0,255600,266.25
1463,1.0,,,,,,55.0,,,,,,0,note_on,,95.0,55.0,95.0,255600,266.25
1464,1.0,,,,,,,,0.0,,,,0,pitchwheel,,,,,255600,266.25
1465,1.0,,,,,,,,256.0,,,,16,pitchwheel,,,,,255616,266.26666666666665
1466,1.0,,,,,,,,1152.0,,,,16,pitchwheel,,,,,255632,266.2833333333333
1467,1.0,,,,,,,,1408.0,,,,16,pitchwheel,,,,,255648,266.3
1468,1.0,,,,,,,,640.0,,,,48,pitchwheel,,,,,255696,266.35
1469,1.0,,,,,,,,128.0,,,,16,pitchwheel,,,,,255712,266.3666666666667
1470,1.0,,,,,,,,0.0,,,,16,pitchwheel,,,,,255728,266.3833333333333
1471,1.0,,,,,,55.0,,,,,,112,note_off,,80.0,55.0,80.0,255840,266.5
1472,1.0,,,,,,,,0.0,,,,0,pitchwheel,,,,,255840,266.5
1473,0.0,,,,,,55.0,,,,,,0,note_on,,95.0,55.0,95.0,255840,266.5
1474,0.0,,,,,,55.0,,,,,,120,note_off,,80.0,55.0,80.0,255960,266.625
1475,0.0,,,,,,54.0,,,,,,0,note_on,,95.0,54.0,95.0,255960,266.625
1476,0.0,,,,,,54.0,,,,,,120,note_off,,80.0,54.0,80.0,256080,266.75
1477,0.0,,,,,,50.0,,,,,,0,note_on,,95.0,50.0,95.0,256080,266.75
1478,0.0,,,,,,50.0,,,,,,120,note_off,,80.0,50.0,80.0,256200,266.875
1479,0.0,,,,,,62.0,,,,,,0,note_on,,95.0,62.0,95.0,256200,266.875
1480,0.0,,,,,,57.0,,,,,,0,note_on,,95.0,57.0,95.0,256200,266.875
1481,0.0,,,,,,50.0,,,,,,0,note_on,,95.0,50.0,95.0,256200,266.875
1482,0.0,,,,,,62.0,,,,,,240,note_off,,80.0,62.0,80.0,256440,267.125
1483,0.0,,,,,,57.0,,,,,,0,note_off,,80.0,57.0,80.0,256440,267.125
1484,0.0,,,,,,50.0,,,,,,0,note_off,,80.0,50.0,80.0,256440,267.125
1485,0.0,,,,,,64.0,,,,,,0,note_on,,95.0,64.0,95.0,256440,267.125
1486,0.0,,,,,,59.0,,,,,,0,note_on,,95.0,59.0,95.0,256440,267.125
1487,0.0,,,,,,52.0,,,,,,0,note_on,,95.0,52.0,95.0,256440,267.125
1488,0.0,,,,,,64.0,,,,,,240,note_off,,80.0,64.0,80.0,256680,267.375
1489,0.0,,,,,,59.0,,,,,,0,note_off,,80.0,59.0,80.0,256680,267.375
1490,0.0,,,,,,52.0,,,,,,0,note_off,,80.0,52.0,80.0,256680,267.375
1491,0.0,,,,,,62.0,,,,,,0,note_on,,95.0,62.0,95.0,256680,267.375
1492,0.0,,,,,,57.0,,,,,,0,note_on,,95.0,57.0,95.0,256680,267.375
1493,0.0,,,,,,50.0,,,,,,0,note_on,,95.0,50.0,95.0,256680,267.375
1494,0.0,,,,,,62.0,,,,,,120,note_off,,80.0,62.0,80.0,256800,267.5
1495,0.0,,,,,,57.0,,,,,,0,note_off,,80.0,57.0,80.0,256800,267.5
1496,0.0,,,,,,50.0,,,,,,0,note_off,,80.0,50.0,80.0,256800,267.5
1497,0.0,,,,,,64.0,,,,,,0,note_on,,95.0,64.0,95.0,256800,267.5
1498,0.0,,,,,,59.0,,,,,,0,note_on,,95.0,59.0,95.0,256800,267.5
1499,0.0,,,,,,52.0,,,,,,0,note_on,,95.0,52.0,95.0,256800,267.5
1500,0.0,,,,,,64.0,,,,,,480,note_off,,80.0,64.0,80.0,257280,268.0
1501,0.0,,,,,,59.0,,,,,,0,note_off,,80.0,59.0,80.0,257280,268.0
1502,0.0,,,,,,52.0,,,,,,0,note_off,,80.0,52.0,80.0,257280,268.0
1503,0.0,,,,,,62.0,,,,,,0,note_on,,95.0,62.0,95.0,257280,268.0
1504,0.0,,,,,,62.0,,,,,,160,note_off,,80.0,62.0,80.0,257440,268.1666666666667
1505,0.0,,,,,,61.0,,,,,,0,note_on,,95.0,61.0,95.0,257440,268.1666666666667
1506,0.0,,,,,,61.0,,,,,,80,note_off,,80.0,61.0,80.0,257520,268.25
1507,0.0,,,,,,57.0,,,,,,0,note_on,,95.0,57.0,95.0,257520,268.25
1508,0.0,,,,,,57.0,,,,,,120,note_off,,80.0,57.0,80.0,257640,268.375
1509,0.0,,,,,,64.0,,,,,,120,note_on,,95.0,64.0,95.0,257760,268.5
1510,0.0,,,,,,64.0,,,,,,160,note_off,,80.0,64.0,80.0,257920,268.6666666666667
1511,0.0,,,,,,63.0,,,,,,0,note_on,,95.0,63.0,95.0,257920,268.6666666666667
1512,0.0,,,,,,63.0,,,,,,80,note_off,,80.0,63.0,80.0,258000,268.75
1513,0.0,,,,,,59.0,,,,,,0,note_on,,95.0,59.0,95.0,258000,268.75
1514,0.0,,,,,,59.0,,,,,,120,note_off,,80.0,59.0,80.0,258120,268.875
1515,0.0,,,,,,65.0,,,,,,120,note_on,,95.0,65.0,95.0,258240,269.0
1516,0.0,,,,,,65.0,,,,,,160,note_off,,80.0,65.0,80.0,258400,269.1666666666667
1517,0.0,,,,,,64.0,,,,,,0,note_on,,95.0,64.0,95.0,258400,269.1666666666667
1518,0.0,,,,,,64.0,,,,,,80,note_off,,80.0,64.0,80.0,258480,269.25
1519,0.0,,,,,,60.0,,,,,,0,note_on,,95.0,60.0,95.0,258480,269.25
1520,0.0,,,,,,60.0,,,,,,120,note_off,,80.0,60.0,80.0,258600,269.375
1521,0.0,,,,,,67.0,,,,,,120,note_on,,95.0,67.0,95.0,258720,269.5
1522,0.0,,,,,,67.0,,,,,,160,note_off,,80.0,67.0,80.0,258880,269.6666666666667
1523,0.0,,,,,,66.0,,,,,,0,note_on,,95.0,66.0,95.0,258880,269.6666666666667
1524,0.0,,,,,,66.0,,,,,,80,note_off,,80.0,66.0,80.0,258960,269.75
1525,0.0,,,,,,62.0,,,,,,0,note_on,,95.0,62.0,95.0,258960,269.75
1526,0.0,,,,,,62.0,,,,,,120,note_off,,80.0,62.0,80.0,259080,269.875
1527,0.0,,,,,,62.0,,,,,,120,note_on,,95.0,62.0,95.0,259200,270.0
1528,0.0,,,,,,62.0,,,,,,160,note_off,,80.0,62.0,80.0,259360,270.1666666666667
1529,0.0,,,,,,61.0,,,,,,0,note_on,,95.0,61.0,95.0,259360,270.1666666666667
1530,0.0,,,,,,61.0,,,,,,80,note_off,,80.0,61.0,80.0,259440,270.25
1531,0.0,,,,,,57.0,,,,,,0,note_on,,95.0,57.0,95.0,259440,270.25
1532,0.0,,,,,,57.0,,,,,,120,note_off,,80.0,57.0,80.0,259560,270.375
1533,0.0,,,,,,64.0,,,,,,120,note_on,,95.0,64.0,95.0,259680,270.5
1534,0.0,,,,,,64.0,,,,,,160,note_off,,80.0,64.0,80.0,259840,270.6666666666667
1535,0.0,,,,,,63.0,,,,,,0,note_on,,95.0,63.0,95.0,259840,270.6666666666667
1536,0.0,,,,,,63.0,,,,,,80,note_off,,80.0,63.0,80.0,259920,270.75
1537,0.0,,,,,,59.0,,,,,,0,note_on,,95.0,59.0,95.0,259920,270.75
1538,0.0,,,,,,59.0,,,,,,120,note_off,,80.0,59.0,80.0,260040,270.875
1539,0.0,,,,,,65.0,,,,,,120,note_on,,95.0,65.0,95.0,260160,271.0
1540,0.0,,,,,,65.0,,,,,,160,note_off,,80.0,65.0,80.0,260320,271.1666666666667
1541,0.0,,,,,,64.0,,,,,,0,note_on,,95.0,64.0,95.0,260320,271.1666666666667
1542,0.0,,,,,,64.0,,,,,,80,note_off,,80.0,64.0,80.0,260400,271.25
1543,0.0,,,,,,60.0,,,,,,0,note_on,,95.0,60.0,95.0,260400,271.25
1544,0.0,,,,,,60.0,,,,,,120,note_off,,80.0,60.0,80.0,260520,271.375
1545,0.0,,,,,,67.0,,,,,,120,note_on,,95.0,67.0,95.0,260640,271.5
1546,0.0,,,,,,67.0,,,,,,160,note_off,,80.0,67.0,80.0,260800,271.6666666666667
1547,0.0,,,,,,66.0,,,,,,0,note_on,,95.0,66.0,95.0,260800,271.6666666666667
1548,0.0,,,,,,66.0,,,,,,80,note_off,,80.0,66.0,80.0,260880,271.75
1549,0.0,,,,,,62.0,,,,,,0,note_on,,95.0,62.0,95.0,260880,271.75
1550,0.0,,,,,,62.0,,,,,,120,note_off,,80.0,62.0,80.0,261000,271.875
1551,0.0,,,,,,62.0,,,,,,120,note_on,,95.0,62.0,95.0,261120,272.0
1552,0.0,,,,,,62.0,,,,,,160,note_off,,80.0,62.0,80.0,261280,272.1666666666667
1553,0.0,,,,,,61.0,,,,,,0,note_on,,95.0,61.0,95.0,261280,272.1666666666667
1554,0.0,,,,,,61.0,,,,,,80,note_off,,80.0,61.0,80.0,261360,272.25
1555,0.0,,,,,,57.0,,,,,,0,note_on,,95.0,57.0,95.0,261360,272.25
1556,0.0,,,,,,57.0,,,,,,120,note_off,,80.0,57.0,80.0,261480,272.375
1557,0.0,,,,,,64.0,,,,,,120,note_on,,95.0,64.0,95.0,261600,272.5
1558,0.0,,,,,,64.0,,,,,,160,note_off,,80.0,64.0,80.0,261760,272.6666666666667
1559,0.0,,,,,,63.0,,,,,,0,note_on,,95.0,63.0,95.0,261760,272.6666666666667
1560,0.0,,,,,,63.0,,,,,,80,note_off,,80.0,63.0,80.0,261840,272.75
1561,0.0,,,,,,59.0,,,,,,0,note_on,,95.0,59.0,95.0,261840,272.75
1562,0.0,,,,,,59.0,,,,,,120,note_off,,80.0,59.0,80.0,261960,272.875
1563,0.0,,,,,,65.0,,,,,,120,note_on,,95.0,65.0,95.0,262080,273.0
1564,0.0,,,,,,65.0,,,,,,160,note_off,,80.0,65.0,80.0,262240,273.1666666666667
1565,0.0,,,,,,64.0,,,,,,0,note_on,,95.0,64.0,95.0,262240,273.1666666666667
1566,0.0,,,,,,64.0,,,,,,80,note_off,,80.0,64.0,80.0,262320,273.25
1567,0.0,,,,,,60.0,,,,,,0,note_on,,95.0,60.0,95.0,262320,273.25
1568,0.0,,,,,,60.0,,,,,,120,note_off,,80.0,60.0,80.0,262440,273.375
1569,0.0,,,,,,67.0,,,,,,120,note_on,,95.0,67.0,95.0,262560,273.5
1570,0.0,,,,,,67.0,,,,,,160,note_off,,80.0,67.0,80.0,262720,273.6666666666667
1571,0.0,,,,,,66.0,,,,,,0,note_on,,95.0,66.0,95.0,262720,273.6666666666667
1572,0.0,,,,,,66.0,,,,,,80,note_off,,80.0,66.0,80.0,262800,273.75
1573,0.0,,,,,,62.0,,,,,,0,note_on,,95.0,62.0,95.0,262800,273.75
1574,0.0,,,,,,62.0,,,,,,120,note_off,,80.0,62.0,80.0,262920,273.875
1575,0.0,,,,,,62.0,,,,,,120,note_on,,95.0,62.0,95.0,263040,274.0
1576,0.0,,,,,,62.0,,,,,,160,note_off,,80.0,62.0,80.0,263200,274.1666666666667
1577,0.0,,,,,,61.0,,,,,,0,note_on,,95.0,61.0,95.0,263200,274.1666666666667
1578,0.0,,,,,,61.0,,,,,,80,note_off,,80.0,61.0,80.0,263280,274.25
1579,0.0,,,,,,57.0,,,,,,0,note_on,,95.0,57.0,95.0,263280,274.25
1580,0.0,,,,,,57.0,,,,,,120,note_off,,80.0,57.0,80.0,263400,274.375
1581,0.0,,,,,,64.0,,,,,,120,note_on,,95.0,64.0,95.0,263520,274.5
1582,0.0,,,,,,64.0,,,,,,160,note_off,,80.0,64.0,80.0,263680,274.6666666666667
1583,0.0,,,,,,63.0,,,,,,0,note_on,,95.0,63.0,95.0,263680,274.6666666666667
1584,0.0,,,,,,63.0,,,,,,80,note_off,,80.0,63.0,80.0,263760,274.75
1585,0.0,,,,,,59.0,,,,,,0,note_on,,95.0,59.0,95.0,263760,274.75
1586,0.0,,,,,,59.0,,,,,,120,note_off,,80.0,59.0,80.0,263880,274.875
1587,0.0,,,,,,65.0,,,,,,120,note_on,,95.0,65.0,95.0,264000,275.0
1588,0.0,,,,,,65.0,,,,,,160,note_off,,80.0,65.0,80.0,264160,275.1666666666667
1589,0.0,,,,,,64.0,,,,,,0,note_on,,95.0,64.0,95.0,264160,275.1666666666667
1590,0.0,,,,,,64.0,,,,,,80,note_off,,80.0,64.0,80.0,264240,275.25
1591,0.0,,,,,,60.0,,,,,,0,note_on,,95.0,60.0,95.0,264240,275.25
1592,0.0,,,,,,60.0,,,,,,120,note_off,,80.0,60.0,80.0,264360,275.375
1593,0.0,,,,,,67.0,,,,,,120,note_on,,95.0,67.0,95.0,264480,275.5
1594,0.0,,,,,,67.0,,,,,,160,note_off,,80.0,67.0,80.0,264640,275.6666666666667
1595,0.0,,,,,,66.0,,,,,,0,note_on,,95.0,66.0,95.0,264640,275.6666666666667
1596,0.0,,,,,,66.0,,,,,,80,note_off,,80.0,66.0,80.0,264720,275.75
1597,0.0,,,,,,62.0,,,,,,0,note_on,,95.0,62.0,95.0,264720,275.75
1598,0.0,,,,,,62.0,,,,,,120,note_off,,80.0,62.0,80.0,264840,275.875
1599,0.0,,,,,,52.0,,,,,,120,note_on,,95.0,52.0,95.0,264960,276.0
1600,0.0,,,,,,47.0,,,,,,0,note_on,,95.0,47.0,95.0,264960,276.0
1601,0.0,,,,,,40.0,,,,,,0,note_on,,95.0,40.0,95.0,264960,276.0
1602,0.0,,,,,,52.0,,,,,,240,note_off,,80.0,52.0,80.0,265200,276.25
1603,0.0,,,,,,47.0,,,,,,0,note_off,,80.0,47.0,80.0,265200,276.25
1604,0.0,,,,,,40.0,,,,,,0,note_off,,80.0,40.0,80.0,265200,276.25
1605,0.0,,,,,,52.0,,,,,,240,note_on,,76.0,52.0,76.0,265440,276.5
1606,0.0,,,,,,47.0,,,,,,0,note_on,,76.0,47.0,76.0,265440,276.5
1607,0.0,,,,,,40.0,,,,,,0,note_on,,76.0,40.0,76.0,265440,276.5
1608,0.0,,,,,,52.0,,,,,,360,note_off,,80.0,52.0,80.0,265800,276.875
1609,0.0,,,,,,47.0,,,,,,0,note_off,,80.0,47.0,80.0,265800,276.875
1610,0.0,,,,,,40.0,,,,,,0,note_off,,80.0,40.0,80.0,265800,276.875
1611,0.0,,,,,,52.0,,,,,,120,note_on,,76.0,52.0,76.0,265920,277.0
1612,0.0,,,,,,47.0,,,,,,0,note_on,,76.0,47.0,76.0,265920,277.0
1613,0.0,,,,,,40.0,,,,,,0,note_on,,76.0,40.0,76.0,265920,277.0
1614,0.0,,,,,,52.0,,,,,,360,note_off,,80.0,52.0,80.0,266280,277.375
1615,0.0,,,,,,47.0,,,,,,0,note_off,,80.0,47.0,80.0,266280,277.375
1616,0.0,,,,,,40.0,,,,,,0,note_off,,80.0,40.0,80.0,266280,277.375
1617,0.0,,,,,,52.0,,,,,,120,note_on,,76.0,52.0,76.0,266400,277.5
1618,0.0,,,,,,47.0,,,,,,0,note_on,,76.0,47.0,76.0,266400,277.5
1619,0.0,,,,,,40.0,,,,,,0,note_on,,76.0,40.0,76.0,266400,277.5
1620,0.0,,,,,,52.0,,,,,,360,note_off,,80.0,52.0,80.0,266760,277.875
1621,0.0,,,,,,47.0,,,,,,0,note_off,,80.0,47.0,80.0,266760,277.875
1622,0.0,,,,,,40.0,,,,,,0,note_off,,80.0,40.0,80.0,266760,277.875
1623,0.0,,,,,,52.0,,,,,,120,note_on,,76.0,52.0,76.0,266880,278.0
1624,0.0,,,,,,47.0,,,,,,0,note_on,,76.0,47.0,76.0,266880,278.0
1625,0.0,,,,,,40.0,,,,,,0,note_on,,76.0,40.0,76.0,266880,278.0
1626,0.0,,,,,,52.0,,,,,,360,note_off,,80.0,52.0,80.0,267240,278.375
1627,0.0,,,,,,47.0,,,,,,0,note_off,,80.0,47.0,80.0,267240,278.375
1628,0.0,,,,,,40.0,,,,,,0,note_off,,80.0,40.0,80.0,267240,278.375
1629,0.0,,,,,,52.0,,,,,,120,note_on,,76.0,52.0,76.0,267360,278.5
1630,0.0,,,,,,47.0,,,,,,0,note_on,,76.0,47.0,76.0,267360,278.5
1631,0.0,,,,,,40.0,,,,,,0,note_on,,76.0,40.0,76.0,267360,278.5
1632,0.0,,,,,,52.0,,,,,,360,note_off,,80.0,52.0,80.0,267720,278.875
1633,0.0,,,,,,47.0,,,,,,0,note_off,,80.0,47.0,80.0,267720,278.875
1634,0.0,,,,,,40.0,,,,,,0,note_off,,80.0,40.0,80.0,267720,278.875
1635,0.0,,,,,,52.0,,,,,,120,note_on,,76.0,52.0,76.0,267840,279.0
1636,0.0,,,,,,47.0,,,,,,0,note_on,,76.0,47.0,76.0,267840,279.0
1637,0.0,,,,,,40.0,,,,,,0,note_on,,76.0,40.0,76.0,267840,279.0
1638,0.0,,,,,,52.0,,,,,,360,note_off,,80.0,52.0,80.0,268200,279.375
1639,0.0,,,,,,47.0,,,,,,0,note_off,,80.0,47.0,80.0,268200,279.375
1640,0.0,,,,,,40.0,,,,,,0,note_off,,80.0,40.0,80.0,268200,279.375
1641,0.0,,,,,,52.0,,,,,,120,note_on,,95.0,52.0,95.0,268320,279.5
1642,0.0,,,,,,47.0,,,,,,0,note_on,,95.0,47.0,95.0,268320,279.5
1643,0.0,,,,,,40.0,,,,,,0,note_on,,95.0,40.0,95.0,268320,279.5
1644,0.0,,,,,,52.0,,,,,,120,note_off,,80.0,52.0,80.0,268440,279.625
1645,0.0,,,,,,47.0,,,,,,0,note_off,,80.0,47.0,80.0,268440,279.625
1646,0.0,,,,,,40.0,,,,,,0,note_off,,80.0,40.0,80.0,268440,279.625
1647,0.0,,,,,,55.0,,,,,,0,note_on,,95.0,55.0,95.0,268440,279.625
1648,0.0,,,,,,50.0,,,,,,0,note_on,,95.0,50.0,95.0,268440,279.625
1649,0.0,,,,,,43.0,,,,,,0,note_on,,95.0,43.0,95.0,268440,279.625
1650,0.0,,,,,,55.0,,,,,,360,note_off,,80.0,55.0,80.0,268800,280.0
1651,0.0,,,,,,50.0,,,,,,0,note_off,,80.0,50.0,80.0,268800,280.0
1652,0.0,,,,,,43.0,,,,,,0,note_off,,80.0,43.0,80.0,268800,280.0
1653,0.0,,,,,,52.0,,,,,,0,note_on,,95.0,52.0,95.0,268800,280.0
1654,0.0,,,,,,47.0,,,,,,0,note_on,,95.0,47.0,95.0,268800,280.0
1655,0.0,,,,,,40.0,,,,,,0,note_on,,95.0,40.0,95.0,268800,280.0
1656,0.0,,,,,,52.0,,,,,,240,note_off,,80.0,52.0,80.0,269040,280.25
1657,0.0,,,,,,47.0,,,,,,0,note_off,,80.0,47.0,80.0,269040,280.25
1658,0.0,,,,,,40.0,,,,,,0,note_off,,80.0,40.0,80.0,269040,280.25
1659,0.0,,,,,,52.0,,,,,,240,note_on,,76.0,52.0,76.0,269280,280.5
1660,0.0,,,,,,47.0,,,,,,0,note_on,,76.0,47.0,76.0,269280,280.5
1661,0.0,,,,,,40.0,,,,,,0,note_on,,76.0,40.0,76.0,269280,280.5
1662,0.0,,,,,,52.0,,,,,,360,note_off,,80.0,52.0,80.0,269640,280.875
1663,0.0,,,,,,47.0,,,,,,0,note_off,,80.0,47.0,80.0,269640,280.875
1664,0.0,,,,,,40.0,,,,,,0,note_off,,80.0,40.0,80.0,269640,280.875
1665,0.0,,,,,,52.0,,,,,,120,note_on,,76.0,52.0,76.0,269760,281.0
1666,0.0,,,,,,47.0,,,,,,0,note_on,,76.0,47.0,76.0,269760,281.0
1667,0.0,,,,,,40.0,,,,,,0,note_on,,76.0,40.0,76.0,269760,281.0
1668,0.0,,,,,,52.0,,,,,,360,note_off,,80.0,52.0,80.0,270120,281.375
1669,0.0,,,,,,47.0,,,,,,0,note_off,,80.0,47.0,80.0,270120,281.375
1670,0.0,,,,,,40.0,,,,,,0,note_off,,80.0,40.0,80.0,270120,281.375
1671,0.0,,,,,,52.0,,,,,,120,note_on,,76.0,52.0,76.0,270240,281.5
1672,0.0,,,,,,47.0,,,,,,0,note_on,,76.0,47.0,76.0,270240,281.5
1673,0.0,,,,,,40.0,,,,,,0,note_on,,76.0,40.0,76.0,270240,281.5
1674,0.0,,,,,,52.0,,,,,,360,note_off,,80.0,52.0,80.0,270600,281.875
1675,0.0,,,,,,47.0,,,,,,0,note_off,,80.0,47.0,80.0,270600,281.875
1676,0.0,,,,,,40.0,,,,,,0,note_off,,80.0,40.0,80.0,270600,281.875
1677,0.0,,,,,,52.0,,,,,,120,note_on,,76.0,52.0,76.0,270720,282.0
1678,0.0,,,,,,47.0,,,,,,0,note_on,,76.0,47.0,76.0,270720,282.0
1679,0.0,,,,,,40.0,,,,,,0,note_on,,76.0,40.0,76.0,270720,282.0
1680,0.0,,,,,,52.0,,,,,,360,note_off,,80.0,52.0,80.0,271080,282.375
1681,0.0,,,,,,47.0,,,,,,0,note_off,,80.0,47.0,80.0,271080,282.375
1682,0.0,,,,,,40.0,,,,,,0,note_off,,80.0,40.0,80.0,271080,282.375
1683,0.0,,,,,,52.0,,,,,,120,note_on,,76.0,52.0,76.0,271200,282.5
1684,0.0,,,,,,47.0,,,,,,0,note_on,,76.0,47.0,76.0,271200,282.5
1685,0.0,,,,,,40.0,,,,,,0,note_on,,76.0,40.0,76.0,271200,282.5
1686,0.0,,,,,,52.0,,,,,,360,note_off,,80.0,52.0,80.0,271560,282.875
1687,0.0,,,,,,47.0,,,,,,0,note_off,,80.0,47.0,80.0,271560,282.875
1688,0.0,,,,,,40.0,,,,,,0,note_off,,80.0,40.0,80.0,271560,282.875
1689,0.0,,,,,,52.0,,,,,,120,note_on,,76.0,52.0,76.0,271680,283.0
1690,0.0,,,,,,47.0,,,,,,0,note_on,,76.0,47.0,76.0,271680,283.0
1691,0.0,,,,,,40.0,,,,,,0,note_on,,76.0,40.0,76.0,271680,283.0
1692,0.0,,,,,,52.0,,,,,,360,note_off,,80.0,52.0,80.0,272040,283.375
1693,0.0,,,,,,47.0,,,,,,0,note_off,,80.0,47.0,80.0,272040,283.375
1694,0.0,,,,,,40.0,,,,,,0,note_off,,80.0,40.0,80.0,272040,283.375
1695,0.0,,,,,,52.0,,,,,,120,note_on,,95.0,52.0,95.0,272160,283.5
1696,0.0,,,,,,47.0,,,,,,0,note_on,,95.0,47.0,95.0,272160,283.5
1697,0.0,,,,,,40.0,,,,,,0,note_on,,95.0,40.0,95.0,272160,283.5
1698,0.0,,,,,,52.0,,,,,,120,note_off,,80.0,52.0,80.0,272280,283.625
1699,0.0,,,,,,47.0,,,,,,0,note_off,,80.0,47.0,80.0,272280,283.625
1700,0.0,,,,,,40.0,,,,,,0,note_off,,80.0,40.0,80.0,272280,283.625
1701,0.0,,,,,,55.0,,,,,,0,note_on,,95.0,55.0,95.0,272280,283.625
1702,0.0,,,,,,50.0,,,,,,0,note_on,,95.0,50.0,95.0,272280,283.625
1703,0.0,,,,,,43.0,,,,,,0,note_on,,95.0,43.0,95.0,272280,283.625
1704,0.0,,,,,,55.0,,,,,,360,note_off,,80.0,55.0,80.0,272640,284.0
1705,0.0,,,,,,50.0,,,,,,0,note_off,,80.0,50.0,80.0,272640,284.0
1706,0.0,,,,,,43.0,,,,,,0,note_off,,80.0,43.0,80.0,272640,284.0
1707,0.0,,,,,,52.0,,,,,,0,note_on,,95.0,52.0,95.0,272640,284.0
1708,0.0,,,,,,47.0,,,,,,0,note_on,,95.0,47.0,95.0,272640,284.0
1709,0.0,,,,,,40.0,,,,,,0,note_on,,95.0,40.0,95.0,272640,284.0
1710,0.0,,,,,,52.0,,,,,,240,note_off,,80.0,52.0,80.0,272880,284.25
1711,0.0,,,,,,47.0,,,,,,0,note_off,,80.0,47.0,80.0,272880,284.25
1712,0.0,,,,,,40.0,,,,,,0,note_off,,80.0,40.0,80.0,272880,284.25
1713,0.0,,,,,,52.0,,,,,,240,note_on,,76.0,52.0,76.0,273120,284.5
1714,0.0,,,,,,47.0,,,,,,0,note_on,,76.0,47.0,76.0,273120,284.5
1715,0.0,,,,,,40.0,,,,,,0,note_on,,76.0,40.0,76.0,273120,284.5
1716,0.0,,,,,,52.0,,,,,,360,note_off,,80.0,52.0,80.0,273480,284.875
1717,0.0,,,,,,47.0,,,,,,0,note_off,,80.0,47.0,80.0,273480,284.875
1718,0.0,,,,,,40.0,,,,,,0,note_off,,80.0,40.0,80.0,273480,284.875
1719,0.0,,,,,,52.0,,,,,,120,note_on,,76.0,52.0,76.0,273600,285.0
1720,0.0,,,,,,47.0,,,,,,0,note_on,,76.0,47.0,76.0,273600,285.0
1721,0.0,,,,,,40.0,,,,,,0,note_on,,76.0,40.0,76.0,273600,285.0
1722,0.0,,,,,,52.0,,,,,,360,note_off,,80.0,52.0,80.0,273960,285.375
1723,0.0,,,,,,47.0,,,,,,0,note_off,,80.0,47.0,80.0,273960,285.375
1724,0.0,,,,,,40.0,,,,,,0,note_off,,80.0,40.0,80.0,273960,285.375
1725,0.0,,,,,,52.0,,,,,,120,note_on,,76.0,52.0,76.0,274080,285.5
1726,0.0,,,,,,47.0,,,,,,0,note_on,,76.0,47.0,76.0,274080,285.5
1727,0.0,,,,,,40.0,,,,,,0,note_on,,76.0,40.0,76.0,274080,285.5
1728,0.0,,,,,,52.0,,,,,,360,note_off,,80.0,52.0,80.0,274440,285.875
1729,0.0,,,,,,47.0,,,,,,0,note_off,,80.0,47.0,80.0,274440,285.875
1730,0.0,,,,,,40.0,,,,,,0,note_off,,80.0,40.0,80.0,274440,285.875
1731,0.0,,,,,,52.0,,,,,,120,note_on,,76.0,52.0,76.0,274560,286.0
1732,0.0,,,,,,47.0,,,,,,0,note_on,,76.0,47.0,76.0,274560,286.0
1733,0.0,,,,,,40.0,,,,,,0,note_on,,76.0,40.0,76.0,274560,286.0
1734,0.0,,,,,,52.0,,,,,,360,note_off,,80.0,52.0,80.0,274920,286.375
1735,0.0,,,,,,47.0,,,,,,0,note_off,,80.0,47.0,80.0,274920,286.375
1736,0.0,,,,,,40.0,,,,,,0,note_off,,80.0,40.0,80.0,274920,286.375
1737,0.0,,,,,,52.0,,,,,,120,note_on,,76.0,52.0,76.0,275040,286.5
1738,0.0,,,,,,47.0,,,,,,0,note_on,,76.0,47.0,76.0,275040,286.5
1739,0.0,,,,,,40.0,,,,,,0,note_on,,76.0,40.0,76.0,275040,286.5
1740,0.0,,,,,,52.0,,,,,,360,note_off,,80.0,52.0,80.0,275400,286.875
1741,0.0,,,,,,47.0,,,,,,0,note_off,,80.0,47.0,80.0,275400,286.875
1742,0.0,,,,,,40.0,,,,,,0,note_off,,80.0,40.0,80.0,275400,286.875
1743,0.0,,,,,,52.0,,,,,,120,note_on,,76.0,52.0,76.0,275520,287.0
1744,0.0,,,,,,47.0,,,,,,0,note_on,,76.0,47.0,76.0,275520,287.0
1745,0.0,,,,,,40.0,,,,,,0,note_on,,76.0,40.0,76.0,275520,287.0
1746,0.0,,,,,,52.0,,,,,,360,note_off,,80.0,52.0,80.0,275880,287.375
1747,0.0,,,,,,47.0,,,,,,0,note_off,,80.0,47.0,80.0,275880,287.375
1748,0.0,,,,,,40.0,,,,,,0,note_off,,80.0,40.0,80.0,275880,287.375
1749,0.0,,,,,,52.0,,,,,,120,note_on,,95.0,52.0,95.0,276000,287.5
1750,0.0,,,,,,47.0,,,,,,0,note_on,,95.0,47.0,95.0,276000,287.5
1751,0.0,,,,,,40.0,,,,,,0,note_on,,95.0,40.0,95.0,276000,287.5
1752,0.0,,,,,,52.0,,,,,,120,note_off,,80.0,52.0,80.0,276120,287.625
1753,0.0,,,,,,47.0,,,,,,0,note_off,,80.0,47.0,80.0,276120,287.625
1754,0.0,,,,,,40.0,,,,,,0,note_off,,80.0,40.0,80.0,276120,287.625
1755,0.0,,,,,,55.0,,,,,,0,note_on,,95.0,55.0,95.0,276120,287.625
1756,0.0,,,,,,50.0,,,,,,0,note_on,,95.0,50.0,95.0,276120,287.625
1757,0.0,,,,,,43.0,,,,,,0,note_on,,95.0,43.0,95.0,276120,287.625
1758,0.0,,,,,,55.0,,,,,,360,note_off,,80.0,55.0,80.0,276480,288.0
1759,0.0,,,,,,50.0,,,,,,0,note_off,,80.0,50.0,80.0,276480,288.0
1760,0.0,,,,,,43.0,,,,,,0,note_off,,80.0,43.0,80.0,276480,288.0
1761,0.0,,,,,,52.0,,,,,,0,note_on,,95.0,52.0,95.0,276480,288.0
1762,0.0,,,,,,47.0,,,,,,0,note_on,,95.0,47.0,95.0,276480,288.0
1763,0.0,,,,,,40.0,,,,,,0,note_on,,95.0,40.0,95.0,276480,288.0
1764,0.0,,,,,,52.0,,,,,,240,note_off,,80.0,52.0,80.0,276720,288.25
1765,0.0,,,,,,47.0,,,,,,0,note_off,,80.0,47.0,80.0,276720,288.25
1766,0.0,,,,,,40.0,,,,,,0,note_off,,80.0,40.0,80.0,276720,288.25
1767,0.0,,,,,,52.0,,,,,,240,note_on,,76.0,52.0,76.0,276960,288.5
1768,0.0,,,,,,47.0,,,,,,0,note_on,,76.0,47.0,76.0,276960,288.5
1769,0.0,,,,,,40.0,,,,,,0,note_on,,76.0,40.0,76.0,276960,288.5
1770,0.0,,,,,,52.0,,,,,,360,note_off,,80.0,52.0,80.0,277320,288.875
1771,0.0,,,,,,47.0,,,,,,0,note_off,,80.0,47.0,80.0,277320,288.875
1772,0.0,,,,,,40.0,,,,,,0,note_off,,80.0,40.0,80.0,277320,288.875
1773,0.0,,,,,,52.0,,,,,,120,note_on,,76.0,52.0,76.0,277440,289.0
1774,0.0,,,,,,47.0,,,,,,0,note_on,,76.0,47.0,76.0,277440,289.0
1775,0.0,,,,,,40.0,,,,,,0,note_on,,76.0,40.0,76.0,277440,289.0
1776,0.0,,,,,,52.0,,,,,,360,note_off,,80.0,52.0,80.0,277800,289.375
1777,0.0,,,,,,47.0,,,,,,0,note_off,,80.0,47.0,80.0,277800,289.375
1778,0.0,,,,,,40.0,,,,,,0,note_off,,80.0,40.0,80.0,277800,289.375
1779,0.0,,,,,,52.0,,,,,,120,note_on,,76.0,52.0,76.0,277920,289.5
1780,0.0,,,,,,47.0,,,,,,0,note_on,,76.0,47.0,76.0,277920,289.5
1781,0.0,,,,,,40.0,,,,,,0,note_on,,76.0,40.0,76.0,277920,289.5
1782,0.0,,,,,,52.0,,,,,,360,note_off,,80.0,52.0,80.0,278280,289.875
1783,0.0,,,,,,47.0,,,,,,0,note_off,,80.0,47.0,80.0,278280,289.875
1784,0.0,,,,,,40.0,,,,,,0,note_off,,80.0,40.0,80.0,278280,289.875
1785,0.0,,,,,,52.0,,,,,,120,note_on,,76.0,52.0,76.0,278400,290.0
1786,0.0,,,,,,47.0,,,,,,0,note_on,,76.0,47.0,76.0,278400,290.0
1787,0.0,,,,,,40.0,,,,,,0,note_on,,76.0,40.0,76.0,278400,290.0
1788,0.0,,,,,,52.0,,,,,,360,note_off,,80.0,52.0,80.0,278760,290.375
1789,0.0,,,,,,47.0,,,,,,0,note_off,,80.0,47.0,80.0,278760,290.375
1790,0.0,,,,,,40.0,,,,,,0,note_off,,80.0,40.0,80.0,278760,290.375
1791,0.0,,,,,,52.0,,,,,,120,note_on,,76.0,52.0,76.0,278880,290.5
1792,0.0,,,,,,47.0,,,,,,0,note_on,,76.0,47.0,76.0,278880,290.5
1793,0.0,,,,,,40.0,,,,,,0,note_on,,76.0,40.0,76.0,278880,290.5
1794,0.0,,,,,,52.0,,,,,,360,note_off,,80.0,52.0,80.0,279240,290.875
1795,0.0,,,,,,47.0,,,,,,0,note_off,,80.0,47.0,80.0,279240,290.875
1796,0.0,,,,,,40.0,,,,,,0,note_off,,80.0,40.0,80.0,279240,290.875
1797,0.0,,,,,,52.0,,,,,,120,note_on,,76.0,52.0,76.0,279360,291.0
1798,0.0,,,,,,47.0,,,,,,0,note_on,,76.0,47.0,76.0,279360,291.0
1799,0.0,,,,,,40.0,,,,,,0,note_on,,76.0,40.0,76.0,279360,291.0
1800,0.0,,,,,,52.0,,,,,,360,note_off,,80.0,52.0,80.0,279720,291.375
1801,0.0,,,,,,47.0,,,,,,0,note_off,,80.0,47.0,80.0,279720,291.375
1802,0.0,,,,,,40.0,,,,,,0,note_off,,80.0,40.0,80.0,279720,291.375
1803,0.0,,,,,,52.0,,,,,,120,note_on,,95.0,52.0,95.0,279840,291.5
1804,0.0,,,,,,47.0,,,,,,0,note_on,,95.0,47.0,95.0,279840,291.5
1805,0.0,,,,,,40.0,,,,,,0,note_on,,95.0,40.0,95.0,279840,291.5
1806,0.0,,,,,,52.0,,,,,,120,note_off,,80.0,52.0,80.0,279960,291.625
1807,0.0,,,,,,47.0,,,,,,0,note_off,,80.0,47.0,80.0,279960,291.625
1808,0.0,,,,,,40.0,,,,,,0,note_off,,80.0,40.0,80.0,279960,291.625
1809,0.0,,,,,,55.0,,,,,,0,note_on,,95.0,55.0,95.0,279960,291.625
1810,0.0,,,,,,50.0,,,,,,0,note_on,,95.0,50.0,95.0,279960,291.625
1811,0.0,,,,,,43.0,,,,,,0,note_on,,95.0,43.0,95.0,279960,291.625
1812,0.0,,,,,,55.0,,,,,,360,note_off,,80.0,55.0,80.0,280320,292.0
1813,0.0,,,,,,50.0,,,,,,0,note_off,,80.0,50.0,80.0,280320,292.0
1814,0.0,,,,,,43.0,,,,,,0,note_off,,80.0,43.0,80.0,280320,292.0
1815,0.0,,,,,,52.0,,,,,,0,note_on,,95.0,52.0,95.0,280320,292.0
1816,0.0,,,,,,47.0,,,,,,0,note_on,,95.0,47.0,95.0,280320,292.0
1817,0.0,,,,,,40.0,,,,,,0,note_on,,95.0,40.0,95.0,280320,292.0
1818,0.0,,,,,,52.0,,,,,,240,note_off,,80.0,52.0,80.0,280560,292.25
1819,0.0,,,,,,47.0,,,,,,0,note_off,,80.0,47.0,80.0,280560,292.25
1820,0.0,,,,,,40.0,,,,,,0,note_off,,80.0,40.0,80.0,280560,292.25
1821,0.0,,,,,,52.0,,,,,,240,note_on,,76.0,52.0,76.0,280800,292.5
1822,0.0,,,,,,47.0,,,,,,0,note_on,,76.0,47.0,76.0,280800,292.5
1823,0.0,,,,,,40.0,,,,,,0,note_on,,76.0,40.0,76.0,280800,292.5
1824,0.0,,,,,,52.0,,,,,,360,note_off,,80.0,52.0,80.0,281160,292.875
1825,0.0,,,,,,47.0,,,,,,0,note_off,,80.0,47.0,80.0,281160,292.875
1826,0.0,,,,,,40.0,,,,,,0,note_off,,80.0,40.0,80.0,281160,292.875
1827,0.0,,,,,,52.0,,,,,,120,note_on,,76.0,52.0,76.0,281280,293.0
1828,0.0,,,,,,47.0,,,,,,0,note_on,,76.0,47.0,76.0,281280,293.0
1829,0.0,,,,,,40.0,,,,,,0,note_on,,76.0,40.0,76.0,281280,293.0
1830,0.0,,,,,,52.0,,,,,,360,note_off,,80.0,52.0,80.0,281640,293.375
1831,0.0,,,,,,47.0,,,,,,0,note_off,,80.0,47.0,80.0,281640,293.375
1832,0.0,,,,,,40.0,,,,,,0,note_off,,80.0,40.0,80.0,281640,293.375
1833,0.0,,,,,,52.0,,,,,,120,note_on,,76.0,52.0,76.0,281760,293.5
1834,0.0,,,,,,47.0,,,,,,0,note_on,,76.0,47.0,76.0,281760,293.5
1835,0.0,,,,,,40.0,,,,,,0,note_on,,76.0,40.0,76.0,281760,293.5
1836,0.0,,,,,,52.0,,,,,,360,note_off,,80.0,52.0,80.0,282120,293.875
1837,0.0,,,,,,47.0,,,,,,0,note_off,,80.0,47.0,80.0,282120,293.875
1838,0.0,,,,,,40.0,,,,,,0,note_off,,80.0,40.0,80.0,282120,293.875
1839,0.0,,,,,,52.0,,,,,,120,note_on,,76.0,52.0,76.0,282240,294.0
1840,0.0,,,,,,47.0,,,,,,0,note_on,,76.0,47.0,76.0,282240,294.0
1841,0.0,,,,,,40.0,,,,,,0,note_on,,76.0,40.0,76.0,282240,294.0
1842,0.0,,,,,,52.0,,,,,,360,note_off,,80.0,52.0,80.0,282600,294.375
1843,0.0,,,,,,47.0,,,,,,0,note_off,,80.0,47.0,80.0,282600,294.375
1844,0.0,,,,,,40.0,,,,,,0,note_off,,80.0,40.0,80.0,282600,294.375
1845,0.0,,,,,,52.0,,,,,,120,note_on,,76.0,52.0,76.0,282720,294.5
1846,0.0,,,,,,47.0,,,,,,0,note_on,,76.0,47.0,76.0,282720,294.5
1847,0.0,,,,,,40.0,,,,,,0,note_on,,76.0,40.0,76.0,282720,294.5
1848,0.0,,,,,,52.0,,,,,,360,note_off,,80.0,52.0,80.0,283080,294.875
1849,0.0,,,,,,47.0,,,,,,0,note_off,,80.0,47.0,80.0,283080,294.875
1850,0.0,,,,,,40.0,,,,,,0,note_off,,80.0,40.0,80.0,283080,294.875
1851,0.0,,,,,,52.0,,,,,,120,note_on,,76.0,52.0,76.0,283200,295.0
1852,0.0,,,,,,47.0,,,,,,0,note_on,,76.0,47.0,76.0,283200,295.0
1853,0.0,,,,,,40.0,,,,,,0,note_on,,76.0,40.0,76.0,283200,295.0
1854,0.0,,,,,,52.0,,,,,,360,note_off,,80.0,52.0,80.0,283560,295.375
1855,0.0,,,,,,47.0,,,,,,0,note_off,,80.0,47.0,80.0,283560,295.375
1856,0.0,,,,,,40.0,,,,,,0,note_off,,80.0,40.0,80.0,283560,295.375
1857,0.0,,,,,,52.0,,,,,,120,note_on,,95.0,52.0,95.0,283680,295.5
1858,0.0,,,,,,47.0,,,,,,0,note_on,,95.0,47.0,95.0,283680,295.5
1859,0.0,,,,,,40.0,,,,,,0,note_on,,95.0,40.0,95.0,283680,295.5
1860,0.0,,,,,,52.0,,,,,,120,note_off,,80.0,52.0,80.0,283800,295.625
1861,0.0,,,,,,47.0,,,,,,0,note_off,,80.0,47.0,80.0,283800,295.625
1862,0.0,,,,,,40.0,,,,,,0,note_off,,80.0,40.0,80.0,283800,295.625
1863,0.0,,,,,,55.0,,,,,,0,note_on,,95.0,55.0,95.0,283800,295.625
1864,0.0,,,,,,50.0,,,,,,0,note_on,,95.0,50.0,95.0,283800,295.625
1865,0.0,,,,,,43.0,,,,,,0,note_on,,95.0,43.0,95.0,283800,295.625
1866,0.0,,,,,,55.0,,,,,,360,note_off,,80.0,55.0,80.0,284160,296.0
1867,0.0,,,,,,50.0,,,,,,0,note_off,,80.0,50.0,80.0,284160,296.0
1868,0.0,,,,,,43.0,,,,,,0,note_off,,80.0,43.0,80.0,284160,296.0
1869,0.0,,,,,,52.0,,,,,,0,note_on,,95.0,52.0,95.0,284160,296.0
1870,0.0,,,,,,47.0,,,,,,0,note_on,,95.0,47.0,95.0,284160,296.0
1871,0.0,,,,,,40.0,,,,,,0,note_on,,95.0,40.0,95.0,284160,296.0
1872,0.0,,,,,,52.0,,,,,,240,note_off,,80.0,52.0,80.0,284400,296.25
1873,0.0,,,,,,47.0,,,,,,0,note_off,,80.0,47.0,80.0,284400,296.25
1874,0.0,,,,,,40.0,,,,,,0,note_off,,80.0,40.0,80.0,284400,296.25
1875,0.0,,,,,,52.0,,,,,,240,note_on,,76.0,52.0,76.0,284640,296.5
1876,0.0,,,,,,47.0,,,,,,0,note_on,,76.0,47.0,76.0,284640,296.5
1877,0.0,,,,,,40.0,,,,,,0,note_on,,76.0,40.0,76.0,284640,296.5
1878,0.0,,,,,,52.0,,,,,,360,note_off,,80.0,52.0,80.0,285000,296.875
1879,0.0,,,,,,47.0,,,,,,0,note_off,,80.0,47.0,80.0,285000,296.875
1880,0.0,,,,,,40.0,,,,,,0,note_off,,80.0,40.0,80.0,285000,296.875
1881,0.0,,,,,,52.0,,,,,,120,note_on,,76.0,52.0,76.0,285120,297.0
1882,0.0,,,,,,47.0,,,,,,0,note_on,,76.0,47.0,76.0,285120,297.0
1883,0.0,,,,,,40.0,,,,,,0,note_on,,76.0,40.0,76.0,285120,297.0
1884,0.0,,,,,,52.0,,,,,,360,note_off,,80.0,52.0,80.0,285480,297.375
1885,0.0,,,,,,47.0,,,,,,0,note_off,,80.0,47.0,80.0,285480,297.375
1886,0.0,,,,,,40.0,,,,,,0,note_off,,80.0,40.0,80.0,285480,297.375
1887,0.0,,,,,,52.0,,,,,,120,note_on,,76.0,52.0,76.0,285600,297.5
1888,0.0,,,,,,47.0,,,,,,0,note_on,,76.0,47.0,76.0,285600,297.5
1889,0.0,,,,,,40.0,,,,,,0,note_on,,76.0,40.0,76.0,285600,297.5
1890,0.0,,,,,,52.0,,,,,,360,note_off,,80.0,52.0,80.0,285960,297.875
1891,0.0,,,,,,47.0,,,,,,0,note_off,,80.0,47.0,80.0,285960,297.875
1892,0.0,,,,,,40.0,,,,,,0,note_off,,80.0,40.0,80.0,285960,297.875
1893,0.0,,,,,,52.0,,,,,,120,note_on,,76.0,52.0,76.0,286080,298.0
1894,0.0,,,,,,47.0,,,,,,0,note_on,,76.0,47.0,76.0,286080,298.0
1895,0.0,,,,,,40.0,,,,,,0,note_on,,76.0,40.0,76.0,286080,298.0
1896,0.0,,,,,,52.0,,,,,,360,note_off,,80.0,52.0,80.0,286440,298.375
1897,0.0,,,,,,47.0,,,,,,0,note_off,,80.0,47.0,80.0,286440,298.375
1898,0.0,,,,,,40.0,,,,,,0,note_off,,80.0,40.0,80.0,286440,298.375
1899,0.0,,,,,,52.0,,,,,,120,note_on,,76.0,52.0,76.0,286560,298.5
1900,0.0,,,,,,47.0,,,,,,0,note_on,,76.0,47.0,76.0,286560,298.5
1901,0.0,,,,,,40.0,,,,,,0,note_on,,76.0,40.0,76.0,286560,298.5
1902,0.0,,,,,,52.0,,,,,,360,note_off,,80.0,52.0,80.0,286920,298.875
1903,0.0,,,,,,47.0,,,,,,0,note_off,,80.0,47.0,80.0,286920,298.875
1904,0.0,,,,,,40.0,,,,,,0,note_off,,80.0,40.0,80.0,286920,298.875
1905,0.0,,,,,,52.0,,,,,,120,note_on,,76.0,52.0,76.0,287040,299.0
1906,0.0,,,,,,47.0,,,,,,0,note_on,,76.0,47.0,76.0,287040,299.0
1907,0.0,,,,,,40.0,,,,,,0,note_on,,76.0,40.0,76.0,287040,299.0
1908,0.0,,,,,,52.0,,,,,,360,note_off,,80.0,52.0,80.0,287400,299.375
1909,0.0,,,,,,47.0,,,,,,0,note_off,,80.0,47.0,80.0,287400,299.375
1910,0.0,,,,,,40.0,,,,,,0,note_off,,80.0,40.0,80.0,287400,299.375
1911,0.0,,,,,,52.0,,,,,,120,note_on,,95.0,52.0,95.0,287520,299.5
1912,0.0,,,,,,47.0,,,,,,0,note_on,,95.0,47.0,95.0,287520,299.5
1913,0.0,,,,,,40.0,,,,,,0,note_on,,95.0,40.0,95.0,287520,299.5
1914,0.0,,,,,,52.0,,,,,,120,note_off,,80.0,52.0,80.0,287640,299.625
1915,0.0,,,,,,47.0,,,,,,0,note_off,,80.0,47.0,80.0,287640,299.625
1916,0.0,,,,,,40.0,,,,,,0,note_off,,80.0,40.0,80.0,287640,299.625
1917,0.0,,,,,,55.0,,,,,,0,note_on,,95.0,55.0,95.0,287640,299.625
1918,0.0,,,,,,50.0,,,,,,0,note_on,,95.0,50.0,95.0,287640,299.625
1919,0.0,,,,,,43.0,,,,,,0,note_on,,95.0,43.0,95.0,287640,299.625
1920,0.0,,,,,,55.0,,,,,,360,note_off,,80.0,55.0,80.0,288000,300.0
1921,0.0,,,,,,50.0,,,,,,0,note_off,,80.0,50.0,80.0,288000,300.0
1922,0.0,,,,,,43.0,,,,,,0,note_off,,80.0,43.0,80.0,288000,300.0
1923,0.0,,,,,,52.0,,,,,,0,note_on,,95.0,52.0,95.0,288000,300.0
1924,0.0,,,,,,47.0,,,,,,0,note_on,,95.0,47.0,95.0,288000,300.0
1925,0.0,,,,,,40.0,,,,,,0,note_on,,95.0,40.0,95.0,288000,300.0
1926,0.0,,,,,,52.0,,,,,,240,note_off,,80.0,52.0,80.0,288240,300.25
1927,0.0,,,,,,47.0,,,,,,0,note_off,,80.0,47.0,80.0,288240,300.25
1928,0.0,,,,,,40.0,,,,,,0,note_off,,80.0,40.0,80.0,288240,300.25
1929,0.0,,,,,,52.0,,,,,,240,note_on,,76.0,52.0,76.0,288480,300.5
1930,0.0,,,,,,47.0,,,,,,0,note_on,,76.0,47.0,76.0,288480,300.5
1931,0.0,,,,,,40.0,,,,,,0,note_on,,76.0,40.0,76.0,288480,300.5
1932,0.0,,,,,,52.0,,,,,,360,note_off,,80.0,52.0,80.0,288840,300.875
1933,0.0,,,,,,47.0,,,,,,0,note_off,,80.0,47.0,80.0,288840,300.875
1934,0.0,,,,,,40.0,,,,,,0,note_off,,80.0,40.0,80.0,288840,300.875
1935,0.0,,,,,,52.0,,,,,,120,note_on,,76.0,52.0,76.0,288960,301.0
1936,0.0,,,,,,47.0,,,,,,0,note_on,,76.0,47.0,76.0,288960,301.0
1937,0.0,,,,,,40.0,,,,,,0,note_on,,76.0,40.0,76.0,288960,301.0
1938,0.0,,,,,,52.0,,,,,,360,note_off,,80.0,52.0,80.0,289320,301.375
1939,0.0,,,,,,47.0,,,,,,0,note_off,,80.0,47.0,80.0,289320,301.375
1940,0.0,,,,,,40.0,,,,,,0,note_off,,80.0,40.0,80.0,289320,301.375
1941,0.0,,,,,,52.0,,,,,,120,note_on,,76.0,52.0,76.0,289440,301.5
1942,0.0,,,,,,47.0,,,,,,0,note_on,,76.0,47.0,76.0,289440,301.5
1943,0.0,,,,,,40.0,,,,,,0,note_on,,76.0,40.0,76.0,289440,301.5
1944,0.0,,,,,,52.0,,,,,,360,note_off,,80.0,52.0,80.0,289800,301.875
1945,0.0,,,,,,47.0,,,,,,0,note_off,,80.0,47.0,80.0,289800,301.875
1946,0.0,,,,,,40.0,,,,,,0,note_off,,80.0,40.0,80.0,289800,301.875
1947,0.0,,,,,,52.0,,,,,,120,note_on,,76.0,52.0,76.0,289920,302.0
1948,0.0,,,,,,47.0,,,,,,0,note_on,,76.0,47.0,76.0,289920,302.0
1949,0.0,,,,,,40.0,,,,,,0,note_on,,76.0,40.0,76.0,289920,302.0
1950,0.0,,,,,,52.0,,,,,,360,note_off,,80.0,52.0,80.0,290280,302.375
1951,0.0,,,,,,47.0,,,,,,0,note_off,,80.0,47.0,80.0,290280,302.375
1952,0.0,,,,,,40.0,,,,,,0,note_off,,80.0,40.0,80.0,290280,302.375
1953,0.0,,,,,,52.0,,,,,,120,note_on,,76.0,52.0,76.0,290400,302.5
1954,0.0,,,,,,47.0,,,,,,0,note_on,,76.0,47.0,76.0,290400,302.5
1955,0.0,,,,,,40.0,,,,,,0,note_on,,76.0,40.0,76.0,290400,302.5
1956,0.0,,,,,,52.0,,,,,,360,note_off,,80.0,52.0,80.0,290760,302.875
1957,0.0,,,,,,47.0,,,,,,0,note_off,,80.0,47.0,80.0,290760,302.875
1958,0.0,,,,,,40.0,,,,,,0,note_off,,80.0,40.0,80.0,290760,302.875
1959,0.0,,,,,,52.0,,,,,,120,note_on,,76.0,52.0,76.0,290880,303.0
1960,0.0,,,,,,47.0,,,,,,0,note_on,,76.0,47.0,76.0,290880,303.0
1961,0.0,,,,,,40.0,,,,,,0,note_on,,76.0,40.0,76.0,290880,303.0
1962,0.0,,,,,,52.0,,,,,,360,note_off,,80.0,52.0,80.0,291240,303.375
1963,0.0,,,,,,47.0,,,,,,0,note_off,,80.0,47.0,80.0,291240,303.375
1964,0.0,,,,,,40.0,,,,,,0,note_off,,80.0,40.0,80.0,291240,303.375
1965,0.0,,,,,,52.0,,,,,,120,note_on,,95.0,52.0,95.0,291360,303.5
1966,0.0,,,,,,47.0,,,,,,0,note_on,,95.0,47.0,95.0,291360,303.5
1967,0.0,,,,,,40.0,,,,,,0,note_on,,95.0,40.0,95.0,291360,303.5
1968,0.0,,,,,,52.0,,,,,,120,note_off,,80.0,52.0,80.0,291480,303.625
1969,0.0,,,,,,47.0,,,,,,0,note_off,,80.0,47.0,80.0,291480,303.625
1970,0.0,,,,,,40.0,,,,,,0,note_off,,80.0,40.0,80.0,291480,303.625
1971,0.0,,,,,,55.0,,,,,,0,note_on,,95.0,55.0,95.0,291480,303.625
1972,0.0,,,,,,50.0,,,,,,0,note_on,,95.0,50.0,95.0,291480,303.625
1973,0.0,,,,,,43.0,,,,,,0,note_on,,95.0,43.0,95.0,291480,303.625
1974,0.0,,,,,,55.0,,,,,,360,note_off,,80.0,55.0,80.0,291840,304.0
1975,0.0,,,,,,50.0,,,,,,0,note_off,,80.0,50.0,80.0,291840,304.0
1976,0.0,,,,,,43.0,,,,,,0,note_off,,80.0,43.0,80.0,291840,304.0
1977,0.0,,,,,,52.0,,,,,,0,note_on,,95.0,52.0,95.0,291840,304.0
1978,0.0,,,,,,47.0,,,,,,0,note_on,,95.0,47.0,95.0,291840,304.0
1979,0.0,,,,,,40.0,,,,,,0,note_on,,95.0,40.0,95.0,291840,304.0
1980,0.0,,,,,,52.0,,,,,,240,note_off,,80.0,52.0,80.0,292080,304.25
1981,0.0,,,,,,47.0,,,,,,0,note_off,,80.0,47.0,80.0,292080,304.25
1982,0.0,,,,,,40.0,,,,,,0,note_off,,80.0,40.0,80.0,292080,304.25
1983,1.0,,,,,,55.0,,,,,,0,note_on,,95.0,55.0,95.0,292080,304.25
1984,1.0,,,,,,,,0.0,,,,0,pitchwheel,,,,,292080,304.25
1985,1.0,,,,,,,,256.0,,,,16,pitchwheel,,,,,292096,304.26666666666665
1986,1.0,,,,,,,,1152.0,,,,16,pitchwheel,,,,,292112,304.2833333333333
1987,1.0,,,,,,,,1408.0,,,,16,pitchwheel,,,,,292128,304.3
1988,1.0,,,,,,,,640.0,,,,48,pitchwheel,,,,,292176,304.35
1989,1.0,,,,,,,,128.0,,,,16,pitchwheel,,,,,292192,304.3666666666667
1990,1.0,,,,,,,,0.0,,,,16,pitchwheel,,,,,292208,304.3833333333333
1991,1.0,,,,,,55.0,,,,,,112,note_off,,80.0,55.0,80.0,292320,304.5
1992,1.0,,,,,,,,0.0,,,,0,pitchwheel,,,,,292320,304.5
1993,0.0,,,,,,55.0,,,,,,0,note_on,,95.0,55.0,95.0,292320,304.5
1994,0.0,,,,,,55.0,,,,,,120,note_off,,80.0,55.0,80.0,292440,304.625
1995,0.0,,,,,,54.0,,,,,,0,note_on,,95.0,54.0,95.0,292440,304.625
1996,0.0,,,,,,54.0,,,,,,120,note_off,,80.0,54.0,80.0,292560,304.75
1997,0.0,,,,,,50.0,,,,,,0,note_on,,95.0,50.0,95.0,292560,304.75
1998,0.0,,,,,,50.0,,,,,,120,note_off,,80.0,50.0,80.0,292680,304.875
1999,0.0,,,,,,50.0,,,,,,0,note_on,,95.0,50.0,95.0,292680,304.875
2000,0.0,,,,,,50.0,,,,,,240,note_off,,80.0,50.0,80.0,292920,305.125
2001,0.0,,,,,,49.0,,,,,,0,note_on,,95.0,49.0,95.0,292920,305.125
2002,0.0,,,,,,49.0,,,,,,120,note_off,,80.0,49.0,80.0,293040,305.25
2003,0.0,,,,,,45.0,,,,,,0,note_on,,95.0,45.0,95.0,293040,305.25
2004,0.0,,,,,,45.0,,,,,,240,note_off,,80.0,45.0,80.0,293280,305.5
2005,0.0,,,,,,52.0,,,,,,0,note_on,,95.0,52.0,95.0,293280,305.5
2006,0.0,,,,,,47.0,,,,,,0,note_on,,95.0,47.0,95.0,293280,305.5
2007,0.0,,,,,,40.0,,,,,,0,note_on,,95.0,40.0,95.0,293280,305.5
2008,0.0,,,,,,52.0,,,,,,20,note_off,,80.0,52.0,80.0,293300,305.5208333333333
2009,0.0,,,,,,47.0,,,,,,0,note_off,,80.0,47.0,80.0,293300,305.5208333333333
2010,0.0,,,,,,40.0,,,,,,0,note_off,,80.0,40.0,80.0,293300,305.5208333333333
2011,0.0,,,,,,55.0,,,,,,100,note_on,,95.0,55.0,95.0,293400,305.625
2012,0.0,,,,,,50.0,,,,,,0,note_on,,95.0,50.0,95.0,293400,305.625
2013,0.0,,,,,,43.0,,,,,,0,note_on,,95.0,43.0,95.0,293400,305.625
2014,0.0,,,,,,55.0,,,,,,360,note_off,,80.0,55.0,80.0,293760,306.0
2015,0.0,,,,,,50.0,,,,,,0,note_off,,80.0,50.0,80.0,293760,306.0
2016,0.0,,,,,,43.0,,,,,,0,note_off,,80.0,43.0,80.0,293760,306.0
2017,0.0,,,,,,52.0,,,,,,0,note_on,,95.0,52.0,95.0,293760,306.0
2018,0.0,,,,,,47.0,,,,,,0,note_on,,95.0,47.0,95.0,293760,306.0
2019,0.0,,,,,,40.0,,,,,,0,note_on,,95.0,40.0,95.0,293760,306.0
2020,0.0,,,,,,52.0,,,,,,240,note_off,,80.0,52.0,80.0,294000,306.25
2021,0.0,,,,,,47.0,,,,,,0,note_off,,80.0,47.0,80.0,294000,306.25
2022,0.0,,,,,,40.0,,,,,,0,note_off,,80.0,40.0,80.0,294000,306.25
2023,1.0,,,,,,55.0,,,,,,0,note_on,,95.0,55.0,95.0,294000,306.25
2024,1.0,,,,,,,,0.0,,,,0,pitchwheel,,,,,294000,306.25
2025,1.0,,,,,,,,256.0,,,,16,pitchwheel,,,,,294016,306.26666666666665
2026,1.0,,,,,,,,1152.0,,,,16,pitchwheel,,,,,294032,306.2833333333333
2027,1.0,,,,,,,,1408.0,,,,16,pitchwheel,,,,,294048,306.3
2028,1.0,,,,,,,,640.0,,,,48,pitchwheel,,,,,294096,306.35
2029,1.0,,,,,,,,128.0,,,,16,pitchwheel,,,,,294112,306.3666666666667
2030,1.0,,,,,,,,0.0,,,,16,pitchwheel,,,,,294128,306.3833333333333
2031,1.0,,,,,,55.0,,,,,,112,note_off,,80.0,55.0,80.0,294240,306.5
2032,1.0,,,,,,,,0.0,,,,0,pitchwheel,,,,,294240,306.5
2033,0.0,,,,,,55.0,,,,,,0,note_on,,95.0,55.0,95.0,294240,306.5
2034,0.0,,,,,,55.0,,,,,,120,note_off,,80.0,55.0,80.0,294360,306.625
2035,0.0,,,,,,54.0,,,,,,0,note_on,,95.0,54.0,95.0,294360,306.625
2036,0.0,,,,,,54.0,,,,,,120,note_off,,80.0,54.0,80.0,294480,306.75
2037,0.0,,,,,,50.0,,,,,,0,note_on,,95.0,50.0,95.0,294480,306.75
2038,0.0,,,,,,50.0,,,,,,120,note_off,,80.0,50.0,80.0,294600,306.875
2039,0.0,,,,,,62.0,,,,,,0,note_on,,95.0,62.0,95.0,294600,306.875
2040,0.0,,,,,,62.0,,,,,,240,note_off,,80.0,62.0,80.0,294840,307.125
2041,0.0,,,,,,61.0,,,,,,0,note_on,,95.0,61.0,95.0,294840,307.125
2042,0.0,,,,,,61.0,,,,,,120,note_off,,80.0,61.0,80.0,294960,307.25
2043,0.0,,,,,,57.0,,,,,,0,note_on,,95.0,57.0,95.0,294960,307.25
2044,0.0,,,,,,57.0,,,,,,240,note_off,,80.0,57.0,80.0,295200,307.5
2045,0.0,,,,,,52.0,,,,,,0,note_on,,95.0,52.0,95.0,295200,307.5
2046,0.0,,,,,,47.0,,,,,,0,note_on,,95.0,47.0,95.0,295200,307.5
2047,0.0,,,,,,40.0,,,,,,0,note_on,,95.0,40.0,95.0,295200,307.5
2048,0.0,,,,,,52.0,,,,,,120,note_off,,80.0,52.0,80.0,295320,307.625
2049,0.0,,,,,,47.0,,,,,,0,note_off,,80.0,47.0,80.0,295320,307.625
2050,0.0,,,,,,40.0,,,,,,0,note_off,,80.0,40.0,80.0,295320,307.625
2051,0.0,,,,,,55.0,,,,,,0,note_on,,95.0,55.0,95.0,295320,307.625
2052,0.0,,,,,,50.0,,,,,,0,note_on,,95.0,50.0,95.0,295320,307.625
2053,0.0,,,,,,43.0,,,,,,0,note_on,,95.0,43.0,95.0,295320,307.625
2054,0.0,,,,,,55.0,,,,,,360,note_off,,80.0,55.0,80.0,295680,308.0
2055,0.0,,,,,,50.0,,,,,,0,note_off,,80.0,50.0,80.0,295680,308.0
2056,0.0,,,,,,43.0,,,,,,0,note_off,,80.0,43.0,80.0,295680,308.0
2057,0.0,,,,,,52.0,,,,,,0,note_on,,95.0,52.0,95.0,295680,308.0
2058,0.0,,,,,,47.0,,,,,,0,note_on,,95.0,47.0,95.0,295680,308.0
2059,0.0,,,,,,40.0,,,,,,0,note_on,,95.0,40.0,95.0,295680,308.0
2060,0.0,,,,,,52.0,,,,,,240,note_off,,80.0,52.0,80.0,295920,308.25
2061,0.0,,,,,,47.0,,,,,,0,note_off,,80.0,47.0,80.0,295920,308.25
2062,0.0,,,,,,40.0,,,,,,0,note_off,,80.0,40.0,80.0,295920,308.25
2063,1.0,,,,,,55.0,,,,,,0,note_on,,95.0,55.0,95.0,295920,308.25
2064,1.0,,,,,,,,0.0,,,,0,pitchwheel,,,,,295920,308.25
2065,1.0,,,,,,,,256.0,,,,16,pitchwheel,,,,,295936,308.26666666666665
2066,1.0,,,,,,,,1152.0,,,,16,pitchwheel,,,,,295952,308.2833333333333
2067,1.0,,,,,,,,1408.0,,,,16,pitchwheel,,,,,295968,308.3
2068,1.0,,,,,,,,640.0,,,,48,pitchwheel,,,,,296016,308.35
2069,1.0,,,,,,,,128.0,,,,16,pitchwheel,,,,,296032,308.3666666666667
2070,1.0,,,,,,,,0.0,,,,16,pitchwheel,,,,,296048,308.3833333333333
2071,1.0,,,,,,55.0,,,,,,112,note_off,,80.0,55.0,80.0,296160,308.5
2072,1.0,,,,,,,,0.0,,,,0,pitchwheel,,,,,296160,308.5
2073,0.0,,,,,,55.0,,,,,,0,note_on,,95.0,55.0,95.0,296160,308.5
2074,0.0,,,,,,55.0,,,,,,120,note_off,,80.0,55.0,80.0,296280,308.625
2075,0.0,,,,,,54.0,,,,,,0,note_on,,95.0,54.0,95.0,296280,308.625
2076,0.0,,,,,,54.0,,,,,,120,note_off,,80.0,54.0,80.0,296400,308.75
2077,0.0,,,,,,50.0,,,,,,0,note_on,,95.0,50.0,95.0,296400,308.75
2078,0.0,,,,,,50.0,,,,,,120,note_off,,80.0,50.0,80.0,296520,308.875
2079,0.0,,,,,,50.0,,,,,,0,note_on,,95.0,50.0,95.0,296520,308.875
2080,0.0,,,,,,50.0,,,,,,240,note_off,,80.0,50.0,80.0,296760,309.125
2081,0.0,,,,,,49.0,,,,,,0,note_on,,95.0,49.0,95.0,296760,309.125
2082,0.0,,,,,,49.0,,,,,,120,note_off,,80.0,49.0,80.0,296880,309.25
2083,0.0,,,,,,45.0,,,,,,0,note_on,,95.0,45.0,95.0,296880,309.25
2084,0.0,,,,,,45.0,,,,,,240,note_off,,80.0,45.0,80.0,297120,309.5
2085,0.0,,,,,,52.0,,,,,,0,note_on,,95.0,52.0,95.0,297120,309.5
2086,0.0,,,,,,47.0,,,,,,0,note_on,,95.0,47.0,95.0,297120,309.5
2087,0.0,,,,,,40.0,,,,,,0,note_on,,95.0,40.0,95.0,297120,309.5
2088,0.0,,,,,,52.0,,,,,,120,note_off,,80.0,52.0,80.0,297240,309.625
2089,0.0,,,,,,47.0,,,,,,0,note_off,,80.0,47.0,80.0,297240,309.625
2090,0.0,,,,,,40.0,,,,,,0,note_off,,80.0,40.0,80.0,297240,309.625
2091,0.0,,,,,,55.0,,,,,,0,note_on,,95.0,55.0,95.0,297240,309.625
2092,0.0,,,,,,50.0,,,,,,0,note_on,,95.0,50.0,95.0,297240,309.625
2093,0.0,,,,,,43.0,,,,,,0,note_on,,95.0,43.0,95.0,297240,309.625
2094,0.0,,,,,,55.0,,,,,,360,note_off,,80.0,55.0,80.0,297600,310.0
2095,0.0,,,,,,50.0,,,,,,0,note_off,,80.0,50.0,80.0,297600,310.0
2096,0.0,,,,,,43.0,,,,,,0,note_off,,80.0,43.0,80.0,297600,310.0
2097,0.0,,,,,,52.0,,,,,,0,note_on,,95.0,52.0,95.0,297600,310.0
2098,0.0,,,,,,47.0,,,,,,0,note_on,,95.0,47.0,95.0,297600,310.0
2099,0.0,,,,,,40.0,,,,,,0,note_on,,95.0,40.0,95.0,297600,310.0
2100,0.0,,,,,,52.0,,,,,,240,note_off,,80.0,52.0,80.0,297840,310.25
2101,0.0,,,,,,47.0,,,,,,0,note_off,,80.0,47.0,80.0,297840,310.25
2102,0.0,,,,,,40.0,,,,,,0,note_off,,80.0,40.0,80.0,297840,310.25
2103,1.0,,,,,,55.0,,,,,,0,note_on,,95.0,55.0,95.0,297840,310.25
2104,1.0,,,,,,,,0.0,,,,0,pitchwheel,,,,,297840,310.25
2105,1.0,,,,,,,,256.0,,,,16,pitchwheel,,,,,297856,310.26666666666665
2106,1.0,,,,,,,,1152.0,,,,16,pitchwheel,,,,,297872,310.2833333333333
2107,1.0,,,,,,,,1408.0,,,,16,pitchwheel,,,,,297888,310.3
2108,1.0,,,,,,,,640.0,,,,48,pitchwheel,,,,,297936,310.35
2109,1.0,,,,,,,,128.0,,,,16,pitchwheel,,,,,297952,310.3666666666667
2110,1.0,,,,,,,,0.0,,,,16,pitchwheel,,,,,297968,310.3833333333333
2111,1.0,,,,,,55.0,,,,,,112,note_off,,80.0,55.0,80.0,298080,310.5
2112,1.0,,,,,,,,0.0,,,,0,pitchwheel,,,,,298080,310.5
2113,0.0,,,,,,55.0,,,,,,0,note_on,,95.0,55.0,95.0,298080,310.5
2114,0.0,,,,,,55.0,,,,,,120,note_off,,80.0,55.0,80.0,298200,310.625
2115,0.0,,,,,,54.0,,,,,,0,note_on,,95.0,54.0,95.0,298200,310.625
2116,0.0,,,,,,54.0,,,,,,120,note_off,,80.0,54.0,80.0,298320,310.75
2117,0.0,,,,,,50.0,,,,,,0,note_on,,95.0,50.0,95.0,298320,310.75
2118,0.0,,,,,,50.0,,,,,,120,note_off,,80.0,50.0,80.0,298440,310.875
2119,0.0,,,,,,62.0,,,,,,0,note_on,,95.0,62.0,95.0,298440,310.875
2120,0.0,,,,,,57.0,,,,,,0,note_on,,95.0,57.0,95.0,298440,310.875
2121,0.0,,,,,,50.0,,,,,,0,note_on,,95.0,50.0,95.0,298440,310.875
2122,0.0,,,,,,62.0,,,,,,120,note_off,,80.0,62.0,80.0,298560,311.0
2123,0.0,,,,,,57.0,,,,,,0,note_off,,80.0,57.0,80.0,298560,311.0
2124,0.0,,,,,,50.0,,,,,,0,note_off,,80.0,50.0,80.0,298560,311.0
2125,0.0,,,,,,64.0,,,,,,120,note_on,,95.0,64.0,95.0,298680,311.125
2126,0.0,,,,,,59.0,,,,,,0,note_on,,95.0,59.0,95.0,298680,311.125
2127,0.0,,,,,,52.0,,,,,,0,note_on,,95.0,52.0,95.0,298680,311.125
2128,0.0,,,,,,64.0,,,,,,120,note_off,,80.0,64.0,80.0,298800,311.25
2129,0.0,,,,,,59.0,,,,,,120,note_off,,80.0,59.0,80.0,298920,311.375
2130,0.0,,,,,,52.0,,,,,,0,note_off,,80.0,52.0,80.0,298920,311.375
2131,0.0,,,,,,62.0,,,,,,0,note_on,,95.0,62.0,95.0,298920,311.375
2132,0.0,,,,,,57.0,,,,,,0,note_on,,95.0,57.0,95.0,298920,311.375
2133,0.0,,,,,,50.0,,,,,,0,note_on,,95.0,50.0,95.0,298920,311.375
2134,0.0,,,,,,62.0,,,,,,120,note_off,,80.0,62.0,80.0,299040,311.5
2135,0.0,,,,,,57.0,,,,,,0,note_off,,80.0,57.0,80.0,299040,311.5
2136,0.0,,,,,,50.0,,,,,,0,note_off,,80.0,50.0,80.0,299040,311.5
2137,0.0,,,,,,64.0,,,,,,0,note_on,,95.0,64.0,95.0,299040,311.5
2138,0.0,,,,,,59.0,,,,,,0,note_on,,95.0,59.0,95.0,299040,311.5
2139,0.0,,,,,,52.0,,,,,,0,note_on,,95.0,52.0,95.0,299040,311.5
2140,0.0,,,,,,64.0,,,,,,480,note_off,,80.0,64.0,80.0,299520,312.0
2141,0.0,,,,,,59.0,,,,,,0,note_off,,80.0,59.0,80.0,299520,312.0
2142,0.0,,,,,,52.0,,,,,,0,note_off,,80.0,52.0,80.0,299520,312.0
2143,0.0,,,,,,52.0,,,,,,0,note_on,,95.0,52.0,95.0,299520,312.0
2144,0.0,,,,,,47.0,,,,,,0,note_on,,95.0,47.0,95.0,299520,312.0
2145,0.0,,,,,,40.0,,,,,,0,note_on,,95.0,40.0,95.0,299520,312.0
2146,0.0,,,,,,52.0,,,,,,240,note_off,,80.0,52.0,80.0,299760,312.25
2147,0.0,,,,,,47.0,,,,,,0,note_off,,80.0,47.0,80.0,299760,312.25
2148,0.0,,,,,,40.0,,,,,,0,note_off,,80.0,40.0,80.0,299760,312.25
2149,1.0,,,,,,55.0,,,,,,0,note_on,,95.0,55.0,95.0,299760,312.25
2150,1.0,,,,,,,,0.0,,,,0,pitchwheel,,,,,299760,312.25
2151,1.0,,,,,,,,256.0,,,,16,pitchwheel,,,,,299776,312.26666666666665
2152,1.0,,,,,,,,1152.0,,,,16,pitchwheel,,,,,299792,312.2833333333333
2153,1.0,,,,,,,,1408.0,,,,16,pitchwheel,,,,,299808,312.3
2154,1.0,,,,,,,,640.0,,,,48,pitchwheel,,,,,299856,312.35
2155,1.0,,,,,,,,128.0,,,,16,pitchwheel,,,,,299872,312.3666666666667
2156,1.0,,,,,,,,0.0,,,,16,pitchwheel,,,,,299888,312.3833333333333
2157,1.0,,,,,,55.0,,,,,,112,note_off,,80.0,55.0,80.0,300000,312.5
2158,1.0,,,,,,,,0.0,,,,0,pitchwheel,,,,,300000,312.5
2159,0.0,,,,,,55.0,,,,,,0,note_on,,95.0,55.0,95.0,300000,312.5
2160,0.0,,,,,,55.0,,,,,,120,note_off,,80.0,55.0,80.0,300120,312.625
2161,0.0,,,,,,54.0,,,,,,0,note_on,,95.0,54.0,95.0,300120,312.625
2162,0.0,,,,,,54.0,,,,,,120,note_off,,80.0,54.0,80.0,300240,312.75
2163,0.0,,,,,,50.0,,,,,,0,note_on,,95.0,50.0,95.0,300240,312.75
2164,0.0,,,,,,50.0,,,,,,120,note_off,,80.0,50.0,80.0,300360,312.875
2165,0.0,,,,,,50.0,,,,,,0,note_on,,95.0,50.0,95.0,300360,312.875
2166,0.0,,,,,,50.0,,,,,,240,note_off,,80.0,50.0,80.0,300600,313.125
2167,0.0,,,,,,49.0,,,,,,0,note_on,,95.0,49.0,95.0,300600,313.125
2168,0.0,,,,,,49.0,,,,,,120,note_off,,80.0,49.0,80.0,300720,313.25
2169,0.0,,,,,,45.0,,,,,,0,note_on,,95.0,45.0,95.0,300720,313.25
2170,0.0,,,,,,45.0,,,,,,240,note_off,,80.0,45.0,80.0,300960,313.5
2171,0.0,,,,,,52.0,,,,,,0,note_on,,95.0,52.0,95.0,300960,313.5
2172,0.0,,,,,,47.0,,,,,,0,note_on,,95.0,47.0,95.0,300960,313.5
2173,0.0,,,,,,40.0,,,,,,0,note_on,,95.0,40.0,95.0,300960,313.5
2174,0.0,,,,,,52.0,,,,,,20,note_off,,80.0,52.0,80.0,300980,313.5208333333333
2175,0.0,,,,,,47.0,,,,,,0,note_off,,80.0,47.0,80.0,300980,313.5208333333333
2176,0.0,,,,,,40.0,,,,,,0,note_off,,80.0,40.0,80.0,300980,313.5208333333333
2177,0.0,,,,,,55.0,,,,,,100,note_on,,95.0,55.0,95.0,301080,313.625
2178,0.0,,,,,,50.0,,,,,,0,note_on,,95.0,50.0,95.0,301080,313.625
2179,0.0,,,,,,43.0,,,,,,0,note_on,,95.0,43.0,95.0,301080,313.625
2180,0.0,,,,,,55.0,,,,,,360,note_off,,80.0,55.0,80.0,301440,314.0
2181,0.0,,,,,,50.0,,,,,,0,note_off,,80.0,50.0,80.0,301440,314.0
2182,0.0,,,,,,43.0,,,,,,0,note_off,,80.0,43.0,80.0,301440,314.0
2183,0.0,,,,,,52.0,,,,,,0,note_on,,95.0,52.0,95.0,301440,314.0
2184,0.0,,,,,,47.0,,,,,,0,note_on,,95.0,47.0,95.0,301440,314.0
2185,0.0,,,,,,40.0,,,,,,0,note_on,,95.0,40.0,95.0,301440,314.0
2186,0.0,,,,,,52.0,,,,,,240,note_off,,80.0,52.0,80.0,301680,314.25
2187,0.0,,,,,,47.0,,,,,,0,note_off,,80.0,47.0,80.0,301680,314.25
2188,0.0,,,,,,40.0,,,,,,0,note_off,,80.0,40.0,80.0,301680,314.25
2189,1.0,,,,,,55.0,,,,,,0,note_on,,95.0,55.0,95.0,301680,314.25
2190,1.0,,,,,,,,0.0,,,,0,pitchwheel,,,,,301680,314.25
2191,1.0,,,,,,,,256.0,,,,16,pitchwheel,,,,,301696,314.26666666666665
2192,1.0,,,,,,,,1152.0,,,,16,pitchwheel,,,,,301712,314.2833333333333
2193,1.0,,,,,,,,1408.0,,,,16,pitchwheel,,,,,301728,314.3
2194,1.0,,,,,,,,640.0,,,,48,pitchwheel,,,,,301776,314.35
2195,1.0,,,,,,,,128.0,,,,16,pitchwheel,,,,,301792,314.3666666666667
2196,1.0,,,,,,,,0.0,,,,16,pitchwheel,,,,,301808,314.3833333333333
2197,1.0,,,,,,55.0,,,,,,112,note_off,,80.0,55.0,80.0,301920,314.5
2198,1.0,,,,,,,,0.0,,,,0,pitchwheel,,,,,301920,314.5
2199,0.0,,,,,,55.0,,,,,,0,note_on,,95.0,55.0,95.0,301920,314.5
2200,0.0,,,,,,55.0,,,,,,120,note_off,,80.0,55.0,80.0,302040,314.625
2201,0.0,,,,,,54.0,,,,,,0,note_on,,95.0,54.0,95.0,302040,314.625
2202,0.0,,,,,,54.0,,,,,,120,note_off,,80.0,54.0,80.0,302160,314.75
2203,0.0,,,,,,50.0,,,,,,0,note_on,,95.0,50.0,95.0,302160,314.75
2204,0.0,,,,,,50.0,,,,,,120,note_off,,80.0,50.0,80.0,302280,314.875
2205,0.0,,,,,,62.0,,,,,,0,note_on,,95.0,62.0,95.0,302280,314.875
2206,0.0,,,,,,62.0,,,,,,240,note_off,,80.0,62.0,80.0,302520,315.125
2207,0.0,,,,,,61.0,,,,,,0,note_on,,95.0,61.0,95.0,302520,315.125
2208,0.0,,,,,,61.0,,,,,,120,note_off,,80.0,61.0,80.0,302640,315.25
2209,0.0,,,,,,57.0,,,,,,0,note_on,,95.0,57.0,95.0,302640,315.25
2210,0.0,,,,,,57.0,,,,,,240,note_off,,80.0,57.0,80.0,302880,315.5
2211,0.0,,,,,,52.0,,,,,,0,note_on,,95.0,52.0,95.0,302880,315.5
2212,0.0,,,,,,47.0,,,,,,0,note_on,,95.0,47.0,95.0,302880,315.5
2213,0.0,,,,,,40.0,,,,,,0,note_on,,95.0,40.0,95.0,302880,315.5
2214,0.0,,,,,,52.0,,,,,,120,note_off,,80.0,52.0,80.0,303000,315.625
2215,0.0,,,,,,47.0,,,,,,0,note_off,,80.0,47.0,80.0,303000,315.625
2216,0.0,,,,,,40.0,,,,,,0,note_off,,80.0,40.0,80.0,303000,315.625
2217,0.0,,,,,,55.0,,,,,,0,note_on,,95.0,55.0,95.0,303000,315.625
2218,0.0,,,,,,50.0,,,,,,0,note_on,,95.0,50.0,95.0,303000,315.625
2219,0.0,,,,,,43.0,,,,,,0,note_on,,95.0,43.0,95.0,303000,315.625
2220,0.0,,,,,,55.0,,,,,,360,note_off,,80.0,55.0,80.0,303360,316.0
2221,0.0,,,,,,50.0,,,,,,0,note_off,,80.0,50.0,80.0,303360,316.0
2222,0.0,,,,,,43.0,,,,,,0,note_off,,80.0,43.0,80.0,303360,316.0
2223,0.0,,,,,,52.0,,,,,,0,note_on,,95.0,52.0,95.0,303360,316.0
2224,0.0,,,,,,47.0,,,,,,0,note_on,,95.0,47.0,95.0,303360,316.0
2225,0.0,,,,,,40.0,,,,,,0,note_on,,95.0,40.0,95.0,303360,316.0
2226,0.0,,,,,,52.0,,,,,,240,note_off,,80.0,52.0,80.0,303600,316.25
2227,0.0,,,,,,47.0,,,,,,0,note_off,,80.0,47.0,80.0,303600,316.25
2228,0.0,,,,,,40.0,,,,,,0,note_off,,80.0,40.0,80.0,303600,316.25
2229,1.0,,,,,,55.0,,,,,,0,note_on,,95.0,55.0,95.0,303600,316.25
2230,1.0,,,,,,,,0.0,,,,0,pitchwheel,,,,,303600,316.25
2231,1.0,,,,,,,,256.0,,,,16,pitchwheel,,,,,303616,316.26666666666665
2232,1.0,,,,,,,,1152.0,,,,16,pitchwheel,,,,,303632,316.2833333333333
2233,1.0,,,,,,,,1408.0,,,,16,pitchwheel,,,,,303648,316.3
2234,1.0,,,,,,,,640.0,,,,48,pitchwheel,,,,,303696,316.35
2235,1.0,,,,,,,,128.0,,,,16,pitchwheel,,,,,303712,316.3666666666667
2236,1.0,,,,,,,,0.0,,,,16,pitchwheel,,,,,303728,316.3833333333333
2237,1.0,,,,,,55.0,,,,,,112,note_off,,80.0,55.0,80.0,303840,316.5
2238,1.0,,,,,,,,0.0,,,,0,pitchwheel,,,,,303840,316.5
2239,0.0,,,,,,55.0,,,,,,0,note_on,,95.0,55.0,95.0,303840,316.5
2240,0.0,,,,,,55.0,,,,,,120,note_off,,80.0,55.0,80.0,303960,316.625
2241,0.0,,,,,,54.0,,,,,,0,note_on,,95.0,54.0,95.0,303960,316.625
2242,0.0,,,,,,54.0,,,,,,120,note_off,,80.0,54.0,80.0,304080,316.75
2243,0.0,,,,,,50.0,,,,,,0,note_on,,95.0,50.0,95.0,304080,316.75
2244,0.0,,,,,,50.0,,,,,,120,note_off,,80.0,50.0,80.0,304200,316.875
2245,0.0,,,,,,50.0,,,,,,0,note_on,,95.0,50.0,95.0,304200,316.875
2246,0.0,,,,,,50.0,,,,,,240,note_off,,80.0,50.0,80.0,304440,317.125
2247,0.0,,,,,,49.0,,,,,,0,note_on,,95.0,49.0,95.0,304440,317.125
2248,0.0,,,,,,49.0,,,,,,120,note_off,,80.0,49.0,80.0,304560,317.25
2249,0.0,,,,,,45.0,,,,,,0,note_on,,95.0,45.0,95.0,304560,317.25
2250,0.0,,,,,,45.0,,,,,,240,note_off,,80.0,45.0,80.0,304800,317.5
2251,0.0,,,,,,52.0,,,,,,0,note_on,,95.0,52.0,95.0,304800,317.5
2252,0.0,,,,,,47.0,,,,,,0,note_on,,95.0,47.0,95.0,304800,317.5
2253,0.0,,,,,,40.0,,,,,,0,note_on,,95.0,40.0,95.0,304800,317.5
2254,0.0,,,,,,52.0,,,,,,120,note_off,,80.0,52.0,80.0,304920,317.625
2255,0.0,,,,,,47.0,,,,,,0,note_off,,80.0,47.0,80.0,304920,317.625
2256,0.0,,,,,,40.0,,,,,,0,note_off,,80.0,40.0,80.0,304920,317.625
2257,0.0,,,,,,55.0,,,,,,0,note_on,,95.0,55.0,95.0,304920,317.625
2258,0.0,,,,,,50.0,,,,,,0,note_on,,95.0,50.0,95.0,304920,317.625
2259,0.0,,,,,,43.0,,,,,,0,note_on,,95.0,43.0,95.0,304920,317.625
2260,0.0,,,,,,55.0,,,,,,360,note_off,,80.0,55.0,80.0,305280,318.0
2261,0.0,,,,,,50.0,,,,,,0,note_off,,80.0,50.0,80.0,305280,318.0
2262,0.0,,,,,,43.0,,,,,,0,note_off,,80.0,43.0,80.0,305280,318.0
2263,0.0,,,,,,52.0,,,,,,0,note_on,,95.0,52.0,95.0,305280,318.0
2264,0.0,,,,,,47.0,,,,,,0,note_on,,95.0,47.0,95.0,305280,318.0
2265,0.0,,,,,,40.0,,,,,,0,note_on,,95.0,40.0,95.0,305280,318.0
2266,0.0,,,,,,52.0,,,,,,240,note_off,,80.0,52.0,80.0,305520,318.25
2267,0.0,,,,,,47.0,,,,,,0,note_off,,80.0,47.0,80.0,305520,318.25
2268,0.0,,,,,,40.0,,,,,,0,note_off,,80.0,40.0,80.0,305520,318.25
2269,1.0,,,,,,55.0,,,,,,0,note_on,,95.0,55.0,95.0,305520,318.25
2270,1.0,,,,,,,,0.0,,,,0,pitchwheel,,,,,305520,318.25
2271,1.0,,,,,,,,256.0,,,,16,pitchwheel,,,,,305536,318.26666666666665
2272,1.0,,,,,,,,1152.0,,,,16,pitchwheel,,,,,305552,318.2833333333333
2273,1.0,,,,,,,,1408.0,,,,16,pitchwheel,,,,,305568,318.3
2274,1.0,,,,,,,,640.0,,,,48,pitchwheel,,,,,305616,318.35
2275,1.0,,,,,,,,128.0,,,,16,pitchwheel,,,,,305632,318.3666666666667
2276,1.0,,,,,,,,0.0,,,,16,pitchwheel,,,,,305648,318.3833333333333
2277,1.0,,,,,,55.0,,,,,,112,note_off,,80.0,55.0,80.0,305760,318.5
2278,1.0,,,,,,,,0.0,,,,0,pitchwheel,,,,,305760,318.5
2279,0.0,,,,,,55.0,,,,,,0,note_on,,95.0,55.0,95.0,305760,318.5
2280,0.0,,,,,,55.0,,,,,,120,note_off,,80.0,55.0,80.0,305880,318.625
2281,0.0,,,,,,54.0,,,,,,0,note_on,,95.0,54.0,95.0,305880,318.625
2282,0.0,,,,,,54.0,,,,,,120,note_off,,80.0,54.0,80.0,306000,318.75
2283,0.0,,,,,,50.0,,,,,,0,note_on,,95.0,50.0,95.0,306000,318.75
2284,0.0,,,,,,50.0,,,,,,120,note_off,,80.0,50.0,80.0,306120,318.875
2285,0.0,,,,,,62.0,,,,,,0,note_on,,95.0,62.0,95.0,306120,318.875
2286,0.0,,,,,,57.0,,,,,,0,note_on,,95.0,57.0,95.0,306120,318.875
2287,0.0,,,,,,50.0,,,,,,0,note_on,,95.0,50.0,95.0,306120,318.875
2288,0.0,,,,,,62.0,,,,,,240,note_off,,80.0,62.0,80.0,306360,319.125
2289,0.0,,,,,,57.0,,,,,,0,note_off,,80.0,57.0,80.0,306360,319.125
2290,0.0,,,,,,50.0,,,,,,0,note_off,,80.0,50.0,80.0,306360,319.125
2291,0.0,,,,,,64.0,,,,,,0,note_on,,95.0,64.0,95.0,306360,319.125
2292,0.0,,,,,,59.0,,,,,,0,note_on,,95.0,59.0,95.0,306360,319.125
2293,0.0,,,,,,52.0,,,,,,0,note_on,,95.0,52.0,95.0,306360,319.125
2294,0.0,,,,,,64.0,,,,,,240,note_off,,80.0,64.0,80.0,306600,319.375
2295,0.0,,,,,,59.0,,,,,,0,note_off,,80.0,59.0,80.0,306600,319.375
2296,0.0,,,,,,52.0,,,,,,0,note_off,,80.0,52.0,80.0,306600,319.375
2297,0.0,,,,,,62.0,,,,,,0,note_on,,95.0,62.0,95.0,306600,319.375
2298,0.0,,,,,,57.0,,,,,,0,note_on,,95.0,57.0,95.0,306600,319.375
2299,0.0,,,,,,50.0,,,,,,0,note_on,,95.0,50.0,95.0,306600,319.375
2300,0.0,,,,,,62.0,,,,,,120,note_off,,80.0,62.0,80.0,306720,319.5
2301,0.0,,,,,,57.0,,,,,,0,note_off,,80.0,57.0,80.0,306720,319.5
2302,0.0,,,,,,50.0,,,,,,0,note_off,,80.0,50.0,80.0,306720,319.5
2303,0.0,,,,,,64.0,,,,,,0,note_on,,95.0,64.0,95.0,306720,319.5
2304,0.0,,,,,,59.0,,,,,,0,note_on,,95.0,59.0,95.0,306720,319.5
2305,0.0,,,,,,52.0,,,,,,0,note_on,,95.0,52.0,95.0,306720,319.5
2306,0.0,,,,,,64.0,,,,,,480,note_off,,80.0,64.0,80.0,307200,320.0
2307,0.0,,,,,,59.0,,,,,,0,note_off,,80.0,59.0,80.0,307200,320.0
2308,0.0,,,,,,52.0,,,,,,0,note_off,,80.0,52.0,80.0,307200,320.0
2309,0.0,,,,,,52.0,,,,,,0,note_on,,95.0,52.0,95.0,307200,320.0
2310,0.0,,,,,,47.0,,,,,,0,note_on,,95.0,47.0,95.0,307200,320.0
2311,0.0,,,,,,40.0,,,,,,0,note_on,,95.0,40.0,95.0,307200,320.0
2312,0.0,,,,,,52.0,,,,,,3360,note_off,,80.0,52.0,80.0,310560,323.5
2313,0.0,,,,,,47.0,,,,,,0,note_off,,80.0,47.0,80.0,310560,323.5
2314,0.0,,,,,,40.0,,,,,,0,note_off,,80.0,40.0,80.0,310560,323.5
2315,0.0,,,,,,52.0,,,,,,0,note_on,,95.0,52.0,95.0,310560,323.5
2316,0.0,,,,,,47.0,,,,,,0,note_on,,95.0,47.0,95.0,310560,323.5
2317,0.0,,,,,,40.0,,,,,,0,note_on,,95.0,40.0,95.0,310560,323.5
2318,0.0,,,,,,52.0,,,,,,120,note_off,,80.0,52.0,80.0,310680,323.625
2319,0.0,,,,,,47.0,,,,,,0,note_off,,80.0,47.0,80.0,310680,323.625
2320,0.0,,,,,,40.0,,,,,,0,note_off,,80.0,40.0,80.0,310680,323.625
2321,0.0,,,,,,55.0,,,,,,0,note_on,,95.0,55.0,95.0,310680,323.625
2322,0.0,,,,,,50.0,,,,,,0,note_on,,95.0,50.0,95.0,310680,323.625
2323,0.0,,,,,,43.0,,,,,,0,note_on,,95.0,43.0,95.0,310680,323.625
2324,0.0,,,,,,55.0,,,,,,360,note_off,,80.0,55.0,80.0,311040,324.0
2325,0.0,,,,,,50.0,,,,,,0,note_off,,80.0,50.0,80.0,311040,324.0
2326,0.0,,,,,,43.0,,,,,,0,note_off,,80.0,43.0,80.0,311040,324.0
2327,0.0,,,,,,52.0,,,,,,0,note_on,,95.0,52.0,95.0,311040,324.0
2328,0.0,,,,,,47.0,,,,,,0,note_on,,95.0,47.0,95.0,311040,324.0
2329,0.0,,,,,,40.0,,,,,,0,note_on,,95.0,40.0,95.0,311040,324.0
2330,0.0,,,,,,52.0,,,,,,240,note_off,,80.0,52.0,80.0,311280,324.25
2331,0.0,,,,,,47.0,,,,,,0,note_off,,80.0,47.0,80.0,311280,324.25
2332,0.0,,,,,,40.0,,,,,,0,note_off,,80.0,40.0,80.0,311280,324.25
2333,0.0,,,,,,52.0,,,,,,240,note_on,,76.0,52.0,76.0,311520,324.5
2334,0.0,,,,,,47.0,,,,,,0,note_on,,76.0,47.0,76.0,311520,324.5
2335,0.0,,,,,,40.0,,,,,,0,note_on,,76.0,40.0,76.0,311520,324.5
2336,0.0,,,,,,52.0,,,,,,360,note_off,,80.0,52.0,80.0,311880,324.875
2337,0.0,,,,,,47.0,,,,,,0,note_off,,80.0,47.0,80.0,311880,324.875
2338,0.0,,,,,,40.0,,,,,,0,note_off,,80.0,40.0,80.0,311880,324.875
2339,0.0,,,,,,52.0,,,,,,120,note_on,,76.0,52.0,76.0,312000,325.0
2340,0.0,,,,,,47.0,,,,,,0,note_on,,76.0,47.0,76.0,312000,325.0
2341,0.0,,,,,,40.0,,,,,,0,note_on,,76.0,40.0,76.0,312000,325.0
2342,0.0,,,,,,52.0,,,,,,360,note_off,,80.0,52.0,80.0,312360,325.375
2343,0.0,,,,,,47.0,,,,,,0,note_off,,80.0,47.0,80.0,312360,325.375
2344,0.0,,,,,,40.0,,,,,,0,note_off,,80.0,40.0,80.0,312360,325.375
2345,0.0,,,,,,52.0,,,,,,120,note_on,,76.0,52.0,76.0,312480,325.5
2346,0.0,,,,,,47.0,,,,,,0,note_on,,76.0,47.0,76.0,312480,325.5
2347,0.0,,,,,,40.0,,,,,,0,note_on,,76.0,40.0,76.0,312480,325.5
2348,0.0,,,,,,52.0,,,,,,360,note_off,,80.0,52.0,80.0,312840,325.875
2349,0.0,,,,,,47.0,,,,,,0,note_off,,80.0,47.0,80.0,312840,325.875
2350,0.0,,,,,,40.0,,,,,,0,note_off,,80.0,40.0,80.0,312840,325.875
2351,0.0,,,,,,52.0,,,,,,120,note_on,,76.0,52.0,76.0,312960,326.0
2352,0.0,,,,,,47.0,,,,,,0,note_on,,76.0,47.0,76.0,312960,326.0
2353,0.0,,,,,,40.0,,,,,,0,note_on,,76.0,40.0,76.0,312960,326.0
2354,0.0,,,,,,52.0,,,,,,360,note_off,,80.0,52.0,80.0,313320,326.375
2355,0.0,,,,,,47.0,,,,,,0,note_off,,80.0,47.0,80.0,313320,326.375
2356,0.0,,,,,,40.0,,,,,,0,note_off,,80.0,40.0,80.0,313320,326.375
2357,0.0,,,,,,52.0,,,,,,120,note_on,,76.0,52.0,76.0,313440,326.5
2358,0.0,,,,,,47.0,,,,,,0,note_on,,76.0,47.0,76.0,313440,326.5
2359,0.0,,,,,,40.0,,,,,,0,note_on,,76.0,40.0,76.0,313440,326.5
2360,0.0,,,,,,52.0,,,,,,360,note_off,,80.0,52.0,80.0,313800,326.875
2361,0.0,,,,,,47.0,,,,,,0,note_off,,80.0,47.0,80.0,313800,326.875
2362,0.0,,,,,,40.0,,,,,,0,note_off,,80.0,40.0,80.0,313800,326.875
2363,0.0,,,,,,52.0,,,,,,120,note_on,,76.0,52.0,76.0,313920,327.0
2364,0.0,,,,,,47.0,,,,,,0,note_on,,76.0,47.0,76.0,313920,327.0
2365,0.0,,,,,,40.0,,,,,,0,note_on,,76.0,40.0,76.0,313920,327.0
2366,0.0,,,,,,52.0,,,,,,360,note_off,,80.0,52.0,80.0,314280,327.375
2367,0.0,,,,,,47.0,,,,,,0,note_off,,80.0,47.0,80.0,314280,327.375
2368,0.0,,,,,,40.0,,,,,,0,note_off,,80.0,40.0,80.0,314280,327.375
2369,0.0,,,,,,52.0,,,,,,120,note_on,,95.0,52.0,95.0,314400,327.5
2370,0.0,,,,,,47.0,,,,,,0,note_on,,95.0,47.0,95.0,314400,327.5
2371,0.0,,,,,,40.0,,,,,,0,note_on,,95.0,40.0,95.0,314400,327.5
2372,0.0,,,,,,52.0,,,,,,120,note_off,,80.0,52.0,80.0,314520,327.625
2373,0.0,,,,,,47.0,,,,,,0,note_off,,80.0,47.0,80.0,314520,327.625
2374,0.0,,,,,,40.0,,,,,,0,note_off,,80.0,40.0,80.0,314520,327.625
2375,0.0,,,,,,55.0,,,,,,0,note_on,,95.0,55.0,95.0,314520,327.625
2376,0.0,,,,,,50.0,,,,,,0,note_on,,95.0,50.0,95.0,314520,327.625
2377,0.0,,,,,,43.0,,,,,,0,note_on,,95.0,43.0,95.0,314520,327.625
2378,0.0,,,,,,55.0,,,,,,360,note_off,,80.0,55.0,80.0,314880,328.0
2379,0.0,,,,,,50.0,,,,,,0,note_off,,80.0,50.0,80.0,314880,328.0
2380,0.0,,,,,,43.0,,,,,,0,note_off,,80.0,43.0,80.0,314880,328.0
2381,0.0,,,,,,52.0,,,,,,0,note_on,,95.0,52.0,95.0,314880,328.0
2382,0.0,,,,,,47.0,,,,,,0,note_on,,95.0,47.0,95.0,314880,328.0
2383,0.0,,,,,,40.0,,,,,,0,note_on,,95.0,40.0,95.0,314880,328.0
2384,0.0,,,,,,52.0,,,,,,240,note_off,,80.0,52.0,80.0,315120,328.25
2385,0.0,,,,,,47.0,,,,,,0,note_off,,80.0,47.0,80.0,315120,328.25
2386,0.0,,,,,,40.0,,,,,,0,note_off,,80.0,40.0,80.0,315120,328.25
2387,0.0,,,,,,52.0,,,,,,240,note_on,,76.0,52.0,76.0,315360,328.5
2388,0.0,,,,,,47.0,,,,,,0,note_on,,76.0,47.0,76.0,315360,328.5
2389,0.0,,,,,,40.0,,,,,,0,note_on,,76.0,40.0,76.0,315360,328.5
2390,0.0,,,,,,52.0,,,,,,360,note_off,,80.0,52.0,80.0,315720,328.875
2391,0.0,,,,,,47.0,,,,,,0,note_off,,80.0,47.0,80.0,315720,328.875
2392,0.0,,,,,,40.0,,,,,,0,note_off,,80.0,40.0,80.0,315720,328.875
2393,0.0,,,,,,52.0,,,,,,120,note_on,,76.0,52.0,76.0,315840,329.0
2394,0.0,,,,,,47.0,,,,,,0,note_on,,76.0,47.0,76.0,315840,329.0
2395,0.0,,,,,,40.0,,,,,,0,note_on,,76.0,40.0,76.0,315840,329.0
2396,0.0,,,,,,52.0,,,,,,360,note_off,,80.0,52.0,80.0,316200,329.375
2397,0.0,,,,,,47.0,,,,,,0,note_off,,80.0,47.0,80.0,316200,329.375
2398,0.0,,,,,,40.0,,,,,,0,note_off,,80.0,40.0,80.0,316200,329.375
2399,0.0,,,,,,52.0,,,,,,120,note_on,,76.0,52.0,76.0,316320,329.5
2400,0.0,,,,,,47.0,,,,,,0,note_on,,76.0,47.0,76.0,316320,329.5
2401,0.0,,,,,,40.0,,,,,,0,note_on,,76.0,40.0,76.0,316320,329.5
2402,0.0,,,,,,52.0,,,,,,360,note_off,,80.0,52.0,80.0,316680,329.875
2403,0.0,,,,,,47.0,,,,,,0,note_off,,80.0,47.0,80.0,316680,329.875
2404,0.0,,,,,,40.0,,,,,,0,note_off,,80.0,40.0,80.0,316680,329.875
2405,0.0,,,,,,52.0,,,,,,120,note_on,,76.0,52.0,76.0,316800,330.0
2406,0.0,,,,,,47.0,,,,,,0,note_on,,76.0,47.0,76.0,316800,330.0
2407,0.0,,,,,,40.0,,,,,,0,note_on,,76.0,40.0,76.0,316800,330.0
2408,0.0,,,,,,52.0,,,,,,360,note_off,,80.0,52.0,80.0,317160,330.375
2409,0.0,,,,,,47.0,,,,,,0,note_off,,80.0,47.0,80.0,317160,330.375
2410,0.0,,,,,,40.0,,,,,,0,note_off,,80.0,40.0,80.0,317160,330.375
2411,0.0,,,,,,52.0,,,,,,120,note_on,,76.0,52.0,76.0,317280,330.5
2412,0.0,,,,,,47.0,,,,,,0,note_on,,76.0,47.0,76.0,317280,330.5
2413,0.0,,,,,,40.0,,,,,,0,note_on,,76.0,40.0,76.0,317280,330.5
2414,0.0,,,,,,52.0,,,,,,360,note_off,,80.0,52.0,80.0,317640,330.875
2415,0.0,,,,,,47.0,,,,,,0,note_off,,80.0,47.0,80.0,317640,330.875
2416,0.0,,,,,,40.0,,,,,,0,note_off,,80.0,40.0,80.0,317640,330.875
2417,0.0,,,,,,52.0,,,,,,120,note_on,,76.0,52.0,76.0,317760,331.0
2418,0.0,,,,,,47.0,,,,,,0,note_on,,76.0,47.0,76.0,317760,331.0
2419,0.0,,,,,,40.0,,,,,,0,note_on,,76.0,40.0,76.0,317760,331.0
2420,0.0,,,,,,52.0,,,,,,360,note_off,,80.0,52.0,80.0,318120,331.375
2421,0.0,,,,,,47.0,,,,,,0,note_off,,80.0,47.0,80.0,318120,331.375
2422,0.0,,,,,,40.0,,,,,,0,note_off,,80.0,40.0,80.0,318120,331.375
2423,0.0,,,,,,52.0,,,,,,120,note_on,,95.0,52.0,95.0,318240,331.5
2424,0.0,,,,,,47.0,,,,,,0,note_on,,95.0,47.0,95.0,318240,331.5
2425,0.0,,,,,,40.0,,,,,,0,note_on,,95.0,40.0,95.0,318240,331.5
2426,0.0,,,,,,52.0,,,,,,120,note_off,,80.0,52.0,80.0,318360,331.625
2427,0.0,,,,,,47.0,,,,,,0,note_off,,80.0,47.0,80.0,318360,331.625
2428,0.0,,,,,,40.0,,,,,,0,note_off,,80.0,40.0,80.0,318360,331.625
2429,0.0,,,,,,55.0,,,,,,0,note_on,,95.0,55.0,95.0,318360,331.625
2430,0.0,,,,,,50.0,,,,,,0,note_on,,95.0,50.0,95.0,318360,331.625
2431,0.0,,,,,,43.0,,,,,,0,note_on,,95.0,43.0,95.0,318360,331.625
2432,0.0,,,,,,55.0,,,,,,360,note_off,,80.0,55.0,80.0,318720,332.0
2433,0.0,,,,,,50.0,,,,,,0,note_off,,80.0,50.0,80.0,318720,332.0
2434,0.0,,,,,,43.0,,,,,,0,note_off,,80.0,43.0,80.0,318720,332.0
2435,0.0,,,,,,52.0,,,,,,0,note_on,,95.0,52.0,95.0,318720,332.0
2436,0.0,,,,,,47.0,,,,,,0,note_on,,95.0,47.0,95.0,318720,332.0
2437,0.0,,,,,,40.0,,,,,,0,note_on,,95.0,40.0,95.0,318720,332.0
2438,0.0,,,,,,52.0,,,,,,240,note_off,,80.0,52.0,80.0,318960,332.25
2439,0.0,,,,,,47.0,,,,,,0,note_off,,80.0,47.0,80.0,318960,332.25
2440,0.0,,,,,,40.0,,,,,,0,note_off,,80.0,40.0,80.0,318960,332.25
2441,0.0,,,,,,52.0,,,,,,240,note_on,,76.0,52.0,76.0,319200,332.5
2442,0.0,,,,,,47.0,,,,,,0,note_on,,76.0,47.0,76.0,319200,332.5
2443,0.0,,,,,,40.0,,,,,,0,note_on,,76.0,40.0,76.0,319200,332.5
2444,0.0,,,,,,52.0,,,,,,360,note_off,,80.0,52.0,80.0,319560,332.875
2445,0.0,,,,,,47.0,,,,,,0,note_off,,80.0,47.0,80.0,319560,332.875
2446,0.0,,,,,,40.0,,,,,,0,note_off,,80.0,40.0,80.0,319560,332.875
2447,0.0,,,,,,52.0,,,,,,120,note_on,,76.0,52.0,76.0,319680,333.0
2448,0.0,,,,,,47.0,,,,,,0,note_on,,76.0,47.0,76.0,319680,333.0
2449,0.0,,,,,,40.0,,,,,,0,note_on,,76.0,40.0,76.0,319680,333.0
2450,0.0,,,,,,52.0,,,,,,360,note_off,,80.0,52.0,80.0,320040,333.375
2451,0.0,,,,,,47.0,,,,,,0,note_off,,80.0,47.0,80.0,320040,333.375
2452,0.0,,,,,,40.0,,,,,,0,note_off,,80.0,40.0,80.0,320040,333.375
2453,0.0,,,,,,52.0,,,,,,120,note_on,,76.0,52.0,76.0,320160,333.5
2454,0.0,,,,,,47.0,,,,,,0,note_on,,76.0,47.0,76.0,320160,333.5
2455,0.0,,,,,,40.0,,,,,,0,note_on,,76.0,40.0,76.0,320160,333.5
2456,0.0,,,,,,52.0,,,,,,360,note_off,,80.0,52.0,80.0,320520,333.875
2457,0.0,,,,,,47.0,,,,,,0,note_off,,80.0,47.0,80.0,320520,333.875
2458,0.0,,,,,,40.0,,,,,,0,note_off,,80.0,40.0,80.0,320520,333.875
2459,0.0,,,,,,52.0,,,,,,120,note_on,,76.0,52.0,76.0,320640,334.0
2460,0.0,,,,,,47.0,,,,,,0,note_on,,76.0,47.0,76.0,320640,334.0
2461,0.0,,,,,,40.0,,,,,,0,note_on,,76.0,40.0,76.0,320640,334.0
2462,0.0,,,,,,52.0,,,,,,360,note_off,,80.0,52.0,80.0,321000,334.375
2463,0.0,,,,,,47.0,,,,,,0,note_off,,80.0,47.0,80.0,321000,334.375
2464,0.0,,,,,,40.0,,,,,,0,note_off,,80.0,40.0,80.0,321000,334.375
2465,0.0,,,,,,52.0,,,,,,120,note_on,,76.0,52.0,76.0,321120,334.5
2466,0.0,,,,,,47.0,,,,,,0,note_on,,76.0,47.0,76.0,321120,334.5
2467,0.0,,,,,,40.0,,,,,,0,note_on,,76.0,40.0,76.0,321120,334.5
2468,0.0,,,,,,52.0,,,,,,360,note_off,,80.0,52.0,80.0,321480,334.875
2469,0.0,,,,,,47.0,,,,,,0,note_off,,80.0,47.0,80.0,321480,334.875
2470,0.0,,,,,,40.0,,,,,,0,note_off,,80.0,40.0,80.0,321480,334.875
2471,0.0,,,,,,52.0,,,,,,120,note_on,,76.0,52.0,76.0,321600,335.0
2472,0.0,,,,,,47.0,,,,,,0,note_on,,76.0,47.0,76.0,321600,335.0
2473,0.0,,,,,,40.0,,,,,,0,note_on,,76.0,40.0,76.0,321600,335.0
2474,0.0,,,,,,52.0,,,,,,360,note_off,,80.0,52.0,80.0,321960,335.375
2475,0.0,,,,,,47.0,,,,,,0,note_off,,80.0,47.0,80.0,321960,335.375
2476,0.0,,,,,,40.0,,,,,,0,note_off,,80.0,40.0,80.0,321960,335.375
2477,0.0,,,,,,52.0,,,,,,120,note_on,,95.0,52.0,95.0,322080,335.5
2478,0.0,,,,,,47.0,,,,,,0,note_on,,95.0,47.0,95.0,322080,335.5
2479,0.0,,,,,,40.0,,,,,,0,note_on,,95.0,40.0,95.0,322080,335.5
2480,0.0,,,,,,52.0,,,,,,120,note_off,,80.0,52.0,80.0,322200,335.625
2481,0.0,,,,,,47.0,,,,,,0,note_off,,80.0,47.0,80.0,322200,335.625
2482,0.0,,,,,,40.0,,,,,,0,note_off,,80.0,40.0,80.0,322200,335.625
2483,0.0,,,,,,55.0,,,,,,0,note_on,,95.0,55.0,95.0,322200,335.625
2484,0.0,,,,,,50.0,,,,,,0,note_on,,95.0,50.0,95.0,322200,335.625
2485,0.0,,,,,,43.0,,,,,,0,note_on,,95.0,43.0,95.0,322200,335.625
2486,0.0,,,,,,55.0,,,,,,360,note_off,,80.0,55.0,80.0,322560,336.0
2487,0.0,,,,,,50.0,,,,,,0,note_off,,80.0,50.0,80.0,322560,336.0
2488,0.0,,,,,,43.0,,,,,,0,note_off,,80.0,43.0,80.0,322560,336.0
2489,0.0,,,,,,52.0,,,,,,0,note_on,,95.0,52.0,95.0,322560,336.0
2490,0.0,,,,,,47.0,,,,,,0,note_on,,95.0,47.0,95.0,322560,336.0
2491,0.0,,,,,,40.0,,,,,,0,note_on,,95.0,40.0,95.0,322560,336.0
2492,0.0,,,,,,52.0,,,,,,240,note_off,,80.0,52.0,80.0,322800,336.25
2493,0.0,,,,,,47.0,,,,,,0,note_off,,80.0,47.0,80.0,322800,336.25
2494,0.0,,,,,,40.0,,,,,,0,note_off,,80.0,40.0,80.0,322800,336.25
2495,0.0,,,,,,52.0,,,,,,240,note_on,,76.0,52.0,76.0,323040,336.5
2496,0.0,,,,,,47.0,,,,,,0,note_on,,76.0,47.0,76.0,323040,336.5
2497,0.0,,,,,,40.0,,,,,,0,note_on,,76.0,40.0,76.0,323040,336.5
2498,0.0,,,,,,52.0,,,,,,360,note_off,,80.0,52.0,80.0,323400,336.875
2499,0.0,,,,,,47.0,,,,,,0,note_off,,80.0,47.0,80.0,323400,336.875
2500,0.0,,,,,,40.0,,,,,,0,note_off,,80.0,40.0,80.0,323400,336.875
2501,0.0,,,,,,52.0,,,,,,120,note_on,,76.0,52.0,76.0,323520,337.0
2502,0.0,,,,,,47.0,,,,,,0,note_on,,76.0,47.0,76.0,323520,337.0
2503,0.0,,,,,,40.0,,,,,,0,note_on,,76.0,40.0,76.0,323520,337.0
2504,0.0,,,,,,52.0,,,,,,360,note_off,,80.0,52.0,80.0,323880,337.375
2505,0.0,,,,,,47.0,,,,,,0,note_off,,80.0,47.0,80.0,323880,337.375
2506,0.0,,,,,,40.0,,,,,,0,note_off,,80.0,40.0,80.0,323880,337.375
2507,0.0,,,,,,52.0,,,,,,120,note_on,,76.0,52.0,76.0,324000,337.5
2508,0.0,,,,,,47.0,,,,,,0,note_on,,76.0,47.0,76.0,324000,337.5
2509,0.0,,,,,,40.0,,,,,,0,note_on,,76.0,40.0,76.0,324000,337.5
2510,0.0,,,,,,52.0,,,,,,360,note_off,,80.0,52.0,80.0,324360,337.875
2511,0.0,,,,,,47.0,,,,,,0,note_off,,80.0,47.0,80.0,324360,337.875
2512,0.0,,,,,,40.0,,,,,,0,note_off,,80.0,40.0,80.0,324360,337.875
2513,0.0,,,,,,52.0,,,,,,120,note_on,,76.0,52.0,76.0,324480,338.0
2514,0.0,,,,,,47.0,,,,,,0,note_on,,76.0,47.0,76.0,324480,338.0
2515,0.0,,,,,,40.0,,,,,,0,note_on,,76.0,40.0,76.0,324480,338.0
2516,0.0,,,,,,52.0,,,,,,360,note_off,,80.0,52.0,80.0,324840,338.375
2517,0.0,,,,,,47.0,,,,,,0,note_off,,80.0,47.0,80.0,324840,338.375
2518,0.0,,,,,,40.0,,,,,,0,note_off,,80.0,40.0,80.0,324840,338.375
2519,0.0,,,,,,52.0,,,,,,120,note_on,,76.0,52.0,76.0,324960,338.5
2520,0.0,,,,,,47.0,,,,,,0,note_on,,76.0,47.0,76.0,324960,338.5
2521,0.0,,,,,,40.0,,,,,,0,note_on,,76.0,40.0,76.0,324960,338.5
2522,0.0,,,,,,52.0,,,,,,360,note_off,,80.0,52.0,80.0,325320,338.875
2523,0.0,,,,,,47.0,,,,,,0,note_off,,80.0,47.0,80.0,325320,338.875
2524,0.0,,,,,,40.0,,,,,,0,note_off,,80.0,40.0,80.0,325320,338.875
2525,0.0,,,,,,52.0,,,,,,120,note_on,,76.0,52.0,76.0,325440,339.0
2526,0.0,,,,,,47.0,,,,,,0,note_on,,76.0,47.0,76.0,325440,339.0
2527,0.0,,,,,,40.0,,,,,,0,note_on,,76.0,40.0,76.0,325440,339.0
2528,0.0,,,,,,52.0,,,,,,360,note_off,,80.0,52.0,80.0,325800,339.375
2529,0.0,,,,,,47.0,,,,,,0,note_off,,80.0,47.0,80.0,325800,339.375
2530,0.0,,,,,,40.0,,,,,,0,note_off,,80.0,40.0,80.0,325800,339.375
2531,0.0,,,,,,52.0,,,,,,120,note_on,,95.0,52.0,95.0,325920,339.5
2532,0.0,,,,,,47.0,,,,,,0,note_on,,95.0,47.0,95.0,325920,339.5
2533,0.0,,,,,,40.0,,,,,,0,note_on,,95.0,40.0,95.0,325920,339.5
2534,0.0,,,,,,52.0,,,,,,120,note_off,,80.0,52.0,80.0,326040,339.625
2535,0.0,,,,,,47.0,,,,,,0,note_off,,80.0,47.0,80.0,326040,339.625
2536,0.0,,,,,,40.0,,,,,,0,note_off,,80.0,40.0,80.0,326040,339.625
2537,0.0,,,,,,55.0,,,,,,0,note_on,,95.0,55.0,95.0,326040,339.625
2538,0.0,,,,,,50.0,,,,,,0,note_on,,95.0,50.0,95.0,326040,339.625
2539,0.0,,,,,,43.0,,,,,,0,note_on,,95.0,43.0,95.0,326040,339.625
2540,0.0,,,,,,55.0,,,,,,360,note_off,,80.0,55.0,80.0,326400,340.0
2541,0.0,,,,,,50.0,,,,,,0,note_off,,80.0,50.0,80.0,326400,340.0
2542,0.0,,,,,,43.0,,,,,,0,note_off,,80.0,43.0,80.0,326400,340.0
2543,0.0,,,,,,52.0,,,,,,0,note_on,,95.0,52.0,95.0,326400,340.0
2544,0.0,,,,,,47.0,,,,,,0,note_on,,95.0,47.0,95.0,326400,340.0
2545,0.0,,,,,,40.0,,,,,,0,note_on,,95.0,40.0,95.0,326400,340.0
2546,0.0,,,,,,52.0,,,,,,240,note_off,,80.0,52.0,80.0,326640,340.25
2547,0.0,,,,,,47.0,,,,,,0,note_off,,80.0,47.0,80.0,326640,340.25
2548,0.0,,,,,,40.0,,,,,,0,note_off,,80.0,40.0,80.0,326640,340.25
2549,0.0,,,,,,52.0,,,,,,240,note_on,,76.0,52.0,76.0,326880,340.5
2550,0.0,,,,,,47.0,,,,,,0,note_on,,76.0,47.0,76.0,326880,340.5
2551,0.0,,,,,,40.0,,,,,,0,note_on,,76.0,40.0,76.0,326880,340.5
2552,0.0,,,,,,52.0,,,,,,360,note_off,,80.0,52.0,80.0,327240,340.875
2553,0.0,,,,,,47.0,,,,,,0,note_off,,80.0,47.0,80.0,327240,340.875
2554,0.0,,,,,,40.0,,,,,,0,note_off,,80.0,40.0,80.0,327240,340.875
2555,0.0,,,,,,52.0,,,,,,120,note_on,,76.0,52.0,76.0,327360,341.0
2556,0.0,,,,,,47.0,,,,,,0,note_on,,76.0,47.0,76.0,327360,341.0
2557,0.0,,,,,,40.0,,,,,,0,note_on,,76.0,40.0,76.0,327360,341.0
2558,0.0,,,,,,52.0,,,,,,360,note_off,,80.0,52.0,80.0,327720,341.375
2559,0.0,,,,,,47.0,,,,,,0,note_off,,80.0,47.0,80.0,327720,341.375
2560,0.0,,,,,,40.0,,,,,,0,note_off,,80.0,40.0,80.0,327720,341.375
2561,0.0,,,,,,52.0,,,,,,120,note_on,,76.0,52.0,76.0,327840,341.5
2562,0.0,,,,,,47.0,,,,,,0,note_on,,76.0,47.0,76.0,327840,341.5
2563,0.0,,,,,,40.0,,,,,,0,note_on,,76.0,40.0,76.0,327840,341.5
2564,0.0,,,,,,52.0,,,,,,360,note_off,,80.0,52.0,80.0,328200,341.875
2565,0.0,,,,,,47.0,,,,,,0,note_off,,80.0,47.0,80.0,328200,341.875
2566,0.0,,,,,,40.0,,,,,,0,note_off,,80.0,40.0,80.0,328200,341.875
2567,0.0,,,,,,52.0,,,,,,120,note_on,,76.0,52.0,76.0,328320,342.0
2568,0.0,,,,,,47.0,,,,,,0,note_on,,76.0,47.0,76.0,328320,342.0
2569,0.0,,,,,,40.0,,,,,,0,note_on,,76.0,40.0,76.0,328320,342.0
2570,0.0,,,,,,52.0,,,,,,360,note_off,,80.0,52.0,80.0,328680,342.375
2571,0.0,,,,,,47.0,,,,,,0,note_off,,80.0,47.0,80.0,328680,342.375
2572,0.0,,,,,,40.0,,,,,,0,note_off,,80.0,40.0,80.0,328680,342.375
2573,0.0,,,,,,52.0,,,,,,120,note_on,,76.0,52.0,76.0,328800,342.5
2574,0.0,,,,,,47.0,,,,,,0,note_on,,76.0,47.0,76.0,328800,342.5
2575,0.0,,,,,,40.0,,,,,,0,note_on,,76.0,40.0,76.0,328800,342.5
2576,0.0,,,,,,52.0,,,,,,360,note_off,,80.0,52.0,80.0,329160,342.875
2577,0.0,,,,,,47.0,,,,,,0,note_off,,80.0,47.0,80.0,329160,342.875
2578,0.0,,,,,,40.0,,,,,,0,note_off,,80.0,40.0,80.0,329160,342.875
2579,0.0,,,,,,52.0,,,,,,120,note_on,,76.0,52.0,76.0,329280,343.0
2580,0.0,,,,,,47.0,,,,,,0,note_on,,76.0,47.0,76.0,329280,343.0
2581,0.0,,,,,,40.0,,,,,,0,note_on,,76.0,40.0,76.0,329280,343.0
2582,0.0,,,,,,52.0,,,,,,360,note_off,,80.0,52.0,80.0,329640,343.375
2583,0.0,,,,,,47.0,,,,,,0,note_off,,80.0,47.0,80.0,329640,343.375
2584,0.0,,,,,,40.0,,,,,,0,note_off,,80.0,40.0,80.0,329640,343.375
2585,0.0,,,,,,52.0,,,,,,120,note_on,,95.0,52.0,95.0,329760,343.5
2586,0.0,,,,,,47.0,,,,,,0,note_on,,95.0,47.0,95.0,329760,343.5
2587,0.0,,,,,,40.0,,,,,,0,note_on,,95.0,40.0,95.0,329760,343.5
2588,0.0,,,,,,52.0,,,,,,120,note_off,,80.0,52.0,80.0,329880,343.625
2589,0.0,,,,,,47.0,,,,,,0,note_off,,80.0,47.0,80.0,329880,343.625
2590,0.0,,,,,,40.0,,,,,,0,note_off,,80.0,40.0,80.0,329880,343.625
2591,0.0,,,,,,55.0,,,,,,0,note_on,,95.0,55.0,95.0,329880,343.625
2592,0.0,,,,,,50.0,,,,,,0,note_on,,95.0,50.0,95.0,329880,343.625
2593,0.0,,,,,,43.0,,,,,,0,note_on,,95.0,43.0,95.0,329880,343.625
2594,0.0,,,,,,55.0,,,,,,360,note_off,,80.0,55.0,80.0,330240,344.0
2595,0.0,,,,,,50.0,,,,,,0,note_off,,80.0,50.0,80.0,330240,344.0
2596,0.0,,,,,,43.0,,,,,,0,note_off,,80.0,43.0,80.0,330240,344.0
2597,0.0,,,,,,52.0,,,,,,0,note_on,,95.0,52.0,95.0,330240,344.0
2598,0.0,,,,,,47.0,,,,,,0,note_on,,95.0,47.0,95.0,330240,344.0
2599,0.0,,,,,,40.0,,,,,,0,note_on,,95.0,40.0,95.0,330240,344.0
2600,0.0,,,,,,52.0,,,,,,240,note_off,,80.0,52.0,80.0,330480,344.25
2601,0.0,,,,,,47.0,,,,,,0,note_off,,80.0,47.0,80.0,330480,344.25
2602,0.0,,,,,,40.0,,,,,,0,note_off,,80.0,40.0,80.0,330480,344.25
2603,0.0,,,,,,52.0,,,,,,240,note_on,,76.0,52.0,76.0,330720,344.5
2604,0.0,,,,,,47.0,,,,,,0,note_on,,76.0,47.0,76.0,330720,344.5
2605,0.0,,,,,,40.0,,,,,,0,note_on,,76.0,40.0,76.0,330720,344.5
2606,0.0,,,,,,52.0,,,,,,360,note_off,,80.0,52.0,80.0,331080,344.875
2607,0.0,,,,,,47.0,,,,,,0,note_off,,80.0,47.0,80.0,331080,344.875
2608,0.0,,,,,,40.0,,,,,,0,note_off,,80.0,40.0,80.0,331080,344.875
2609,0.0,,,,,,52.0,,,,,,120,note_on,,76.0,52.0,76.0,331200,345.0
2610,0.0,,,,,,47.0,,,,,,0,note_on,,76.0,47.0,76.0,331200,345.0
2611,0.0,,,,,,40.0,,,,,,0,note_on,,76.0,40.0,76.0,331200,345.0
2612,0.0,,,,,,52.0,,,,,,360,note_off,,80.0,52.0,80.0,331560,345.375
2613,0.0,,,,,,47.0,,,,,,0,note_off,,80.0,47.0,80.0,331560,345.375
2614,0.0,,,,,,40.0,,,,,,0,note_off,,80.0,40.0,80.0,331560,345.375
2615,0.0,,,,,,52.0,,,,,,120,note_on,,76.0,52.0,76.0,331680,345.5
2616,0.0,,,,,,47.0,,,,,,0,note_on,,76.0,47.0,76.0,331680,345.5
2617,0.0,,,,,,40.0,,,,,,0,note_on,,76.0,40.0,76.0,331680,345.5
2618,0.0,,,,,,52.0,,,,,,360,note_off,,80.0,52.0,80.0,332040,345.875
2619,0.0,,,,,,47.0,,,,,,0,note_off,,80.0,47.0,80.0,332040,345.875
2620,0.0,,,,,,40.0,,,,,,0,note_off,,80.0,40.0,80.0,332040,345.875
2621,0.0,,,,,,52.0,,,,,,120,note_on,,76.0,52.0,76.0,332160,346.0
2622,0.0,,,,,,47.0,,,,,,0,note_on,,76.0,47.0,76.0,332160,346.0
2623,0.0,,,,,,40.0,,,,,,0,note_on,,76.0,40.0,76.0,332160,346.0
2624,0.0,,,,,,52.0,,,,,,360,note_off,,80.0,52.0,80.0,332520,346.375
2625,0.0,,,,,,47.0,,,,,,0,note_off,,80.0,47.0,80.0,332520,346.375
2626,0.0,,,,,,40.0,,,,,,0,note_off,,80.0,40.0,80.0,332520,346.375
2627,0.0,,,,,,52.0,,,,,,120,note_on,,76.0,52.0,76.0,332640,346.5
2628,0.0,,,,,,47.0,,,,,,0,note_on,,76.0,47.0,76.0,332640,346.5
2629,0.0,,,,,,40.0,,,,,,0,note_on,,76.0,40.0,76.0,332640,346.5
2630,0.0,,,,,,52.0,,,,,,360,note_off,,80.0,52.0,80.0,333000,346.875
2631,0.0,,,,,,47.0,,,,,,0,note_off,,80.0,47.0,80.0,333000,346.875
2632,0.0,,,,,,40.0,,,,,,0,note_off,,80.0,40.0,80.0,333000,346.875
2633,0.0,,,,,,52.0,,,,,,120,note_on,,76.0,52.0,76.0,333120,347.0
2634,0.0,,,,,,47.0,,,,,,0,note_on,,76.0,47.0,76.0,333120,347.0
2635,0.0,,,,,,40.0,,,,,,0,note_on,,76.0,40.0,76.0,333120,347.0
2636,0.0,,,,,,52.0,,,,,,360,note_off,,80.0,52.0,80.0,333480,347.375
2637,0.0,,,,,,47.0,,,,,,0,note_off,,80.0,47.0,80.0,333480,347.375
2638,0.0,,,,,,40.0,,,,,,0,note_off,,80.0,40.0,80.0,333480,347.375
2639,0.0,,,,,,52.0,,,,,,120,note_on,,95.0,52.0,95.0,333600,347.5
2640,0.0,,,,,,47.0,,,,,,0,note_on,,95.0,47.0,95.0,333600,347.5
2641,0.0,,,,,,40.0,,,,,,0,note_on,,95.0,40.0,95.0,333600,347.5
2642,0.0,,,,,,52.0,,,,,,120,note_off,,80.0,52.0,80.0,333720,347.625
2643,0.0,,,,,,47.0,,,,,,0,note_off,,80.0,47.0,80.0,333720,347.625
2644,0.0,,,,,,40.0,,,,,,0,note_off,,80.0,40.0,80.0,333720,347.625
2645,0.0,,,,,,55.0,,,,,,0,note_on,,95.0,55.0,95.0,333720,347.625
2646,0.0,,,,,,50.0,,,,,,0,note_on,,95.0,50.0,95.0,333720,347.625
2647,0.0,,,,,,43.0,,,,,,0,note_on,,95.0,43.0,95.0,333720,347.625
2648,0.0,,,,,,55.0,,,,,,360,note_off,,80.0,55.0,80.0,334080,348.0
2649,0.0,,,,,,50.0,,,,,,0,note_off,,80.0,50.0,80.0,334080,348.0
2650,0.0,,,,,,43.0,,,,,,0,note_off,,80.0,43.0,80.0,334080,348.0
2651,0.0,,,,,,52.0,,,,,,0,note_on,,95.0,52.0,95.0,334080,348.0
2652,0.0,,,,,,47.0,,,,,,0,note_on,,95.0,47.0,95.0,334080,348.0
2653,0.0,,,,,,40.0,,,,,,0,note_on,,95.0,40.0,95.0,334080,348.0
2654,0.0,,,,,,52.0,,,,,,240,note_off,,80.0,52.0,80.0,334320,348.25
2655,0.0,,,,,,47.0,,,,,,0,note_off,,80.0,47.0,80.0,334320,348.25
2656,0.0,,,,,,40.0,,,,,,0,note_off,,80.0,40.0,80.0,334320,348.25
2657,1.0,,,,,,55.0,,,,,,0,note_on,,95.0,55.0,95.0,334320,348.25
2658,1.0,,,,,,,,0.0,,,,0,pitchwheel,,,,,334320,348.25
2659,1.0,,,,,,,,256.0,,,,16,pitchwheel,,,,,334336,348.26666666666665
2660,1.0,,,,,,,,1152.0,,,,16,pitchwheel,,,,,334352,348.2833333333333
2661,1.0,,,,,,,,1408.0,,,,16,pitchwheel,,,,,334368,348.3
2662,1.0,,,,,,,,640.0,,,,48,pitchwheel,,,,,334416,348.35
2663,1.0,,,,,,,,128.0,,,,16,pitchwheel,,,,,334432,348.3666666666667
2664,1.0,,,,,,,,0.0,,,,16,pitchwheel,,,,,334448,348.3833333333333
2665,1.0,,,,,,55.0,,,,,,112,note_off,,80.0,55.0,80.0,334560,348.5
2666,1.0,,,,,,,,0.0,,,,0,pitchwheel,,,,,334560,348.5
2667,0.0,,,,,,55.0,,,,,,0,note_on,,95.0,55.0,95.0,334560,348.5
2668,0.0,,,,,,55.0,,,,,,120,note_off,,80.0,55.0,80.0,334680,348.625
2669,0.0,,,,,,54.0,,,,,,0,note_on,,95.0,54.0,95.0,334680,348.625
2670,0.0,,,,,,54.0,,,,,,120,note_off,,80.0,54.0,80.0,334800,348.75
2671,0.0,,,,,,50.0,,,,,,0,note_on,,95.0,50.0,95.0,334800,348.75
2672,0.0,,,,,,50.0,,,,,,120,note_off,,80.0,50.0,80.0,334920,348.875
2673,0.0,,,,,,50.0,,,,,,0,note_on,,95.0,50.0,95.0,334920,348.875
2674,0.0,,,,,,50.0,,,,,,240,note_off,,80.0,50.0,80.0,335160,349.125
2675,0.0,,,,,,49.0,,,,,,0,note_on,,95.0,49.0,95.0,335160,349.125
2676,0.0,,,,,,49.0,,,,,,120,note_off,,80.0,49.0,80.0,335280,349.25
2677,0.0,,,,,,45.0,,,,,,0,note_on,,95.0,45.0,95.0,335280,349.25
2678,0.0,,,,,,45.0,,,,,,240,note_off,,80.0,45.0,80.0,335520,349.5
2679,0.0,,,,,,52.0,,,,,,0,note_on,,95.0,52.0,95.0,335520,349.5
2680,0.0,,,,,,47.0,,,,,,0,note_on,,95.0,47.0,95.0,335520,349.5
2681,0.0,,,,,,40.0,,,,,,0,note_on,,95.0,40.0,95.0,335520,349.5
2682,0.0,,,,,,52.0,,,,,,20,note_off,,80.0,52.0,80.0,335540,349.5208333333333
2683,0.0,,,,,,47.0,,,,,,0,note_off,,80.0,47.0,80.0,335540,349.5208333333333
2684,0.0,,,,,,40.0,,,,,,0,note_off,,80.0,40.0,80.0,335540,349.5208333333333
2685,0.0,,,,,,55.0,,,,,,100,note_on,,95.0,55.0,95.0,335640,349.625
2686,0.0,,,,,,50.0,,,,,,0,note_on,,95.0,50.0,95.0,335640,349.625
2687,0.0,,,,,,43.0,,,,,,0,note_on,,95.0,43.0,95.0,335640,349.625
2688,0.0,,,,,,55.0,,,,,,360,note_off,,80.0,55.0,80.0,336000,350.0
2689,0.0,,,,,,50.0,,,,,,0,note_off,,80.0,50.0,80.0,336000,350.0
2690,0.0,,,,,,43.0,,,,,,0,note_off,,80.0,43.0,80.0,336000,350.0
2691,0.0,,,,,,52.0,,,,,,0,note_on,,95.0,52.0,95.0,336000,350.0
2692,0.0,,,,,,47.0,,,,,,0,note_on,,95.0,47.0,95.0,336000,350.0
2693,0.0,,,,,,40.0,,,,,,0,note_on,,95.0,40.0,95.0,336000,350.0
2694,0.0,,,,,,52.0,,,,,,240,note_off,,80.0,52.0,80.0,336240,350.25
2695,0.0,,,,,,47.0,,,,,,0,note_off,,80.0,47.0,80.0,336240,350.25
2696,0.0,,,,,,40.0,,,,,,0,note_off,,80.0,40.0,80.0,336240,350.25
2697,1.0,,,,,,55.0,,,,,,0,note_on,,95.0,55.0,95.0,336240,350.25
2698,1.0,,,,,,,,0.0,,,,0,pitchwheel,,,,,336240,350.25
2699,1.0,,,,,,,,256.0,,,,16,pitchwheel,,,,,336256,350.26666666666665
2700,1.0,,,,,,,,1152.0,,,,16,pitchwheel,,,,,336272,350.2833333333333
2701,1.0,,,,,,,,1408.0,,,,16,pitchwheel,,,,,336288,350.3
2702,1.0,,,,,,,,640.0,,,,48,pitchwheel,,,,,336336,350.35
2703,1.0,,,,,,,,128.0,,,,16,pitchwheel,,,,,336352,350.3666666666667
2704,1.0,,,,,,,,0.0,,,,16,pitchwheel,,,,,336368,350.3833333333333
2705,1.0,,,,,,55.0,,,,,,112,note_off,,80.0,55.0,80.0,336480,350.5
2706,1.0,,,,,,,,0.0,,,,0,pitchwheel,,,,,336480,350.5
2707,0.0,,,,,,55.0,,,,,,0,note_on,,95.0,55.0,95.0,336480,350.5
2708,0.0,,,,,,55.0,,,,,,120,note_off,,80.0,55.0,80.0,336600,350.625
2709,0.0,,,,,,54.0,,,,,,0,note_on,,95.0,54.0,95.0,336600,350.625
2710,0.0,,,,,,54.0,,,,,,120,note_off,,80.0,54.0,80.0,336720,350.75
2711,0.0,,,,,,50.0,,,,,,0,note_on,,95.0,50.0,95.0,336720,350.75
2712,0.0,,,,,,50.0,,,,,,120,note_off,,80.0,50.0,80.0,336840,350.875
2713,0.0,,,,,,62.0,,,,,,0,note_on,,95.0,62.0,95.0,336840,350.875
2714,0.0,,,,,,62.0,,,,,,240,note_off,,80.0,62.0,80.0,337080,351.125
2715,0.0,,,,,,61.0,,,,,,0,note_on,,95.0,61.0,95.0,337080,351.125
2716,0.0,,,,,,61.0,,,,,,120,note_off,,80.0,61.0,80.0,337200,351.25
2717,0.0,,,,,,57.0,,,,,,0,note_on,,95.0,57.0,95.0,337200,351.25
2718,0.0,,,,,,57.0,,,,,,240,note_off,,80.0,57.0,80.0,337440,351.5
2719,0.0,,,,,,52.0,,,,,,0,note_on,,95.0,52.0,95.0,337440,351.5
2720,0.0,,,,,,47.0,,,,,,0,note_on,,95.0,47.0,95.0,337440,351.5
2721,0.0,,,,,,40.0,,,,,,0,note_on,,95.0,40.0,95.0,337440,351.5
2722,0.0,,,,,,52.0,,,,,,120,note_off,,80.0,52.0,80.0,337560,351.625
2723,0.0,,,,,,47.0,,,,,,0,note_off,,80.0,47.0,80.0,337560,351.625
2724,0.0,,,,,,40.0,,,,,,0,note_off,,80.0,40.0,80.0,337560,351.625
2725,0.0,,,,,,55.0,,,,,,0,note_on,,95.0,55.0,95.0,337560,351.625
2726,0.0,,,,,,50.0,,,,,,0,note_on,,95.0,50.0,95.0,337560,351.625
2727,0.0,,,,,,43.0,,,,,,0,note_on,,95.0,43.0,95.0,337560,351.625
2728,0.0,,,,,,55.0,,,,,,360,note_off,,80.0,55.0,80.0,337920,352.0
2729,0.0,,,,,,50.0,,,,,,0,note_off,,80.0,50.0,80.0,337920,352.0
2730,0.0,,,,,,43.0,,,,,,0,note_off,,80.0,43.0,80.0,337920,352.0
2731,0.0,,,,,,52.0,,,,,,0,note_on,,95.0,52.0,95.0,337920,352.0
2732,0.0,,,,,,47.0,,,,,,0,note_on,,95.0,47.0,95.0,337920,352.0
2733,0.0,,,,,,40.0,,,,,,0,note_on,,95.0,40.0,95.0,337920,352.0
2734,0.0,,,,,,52.0,,,,,,240,note_off,,80.0,52.0,80.0,338160,352.25
2735,0.0,,,,,,47.0,,,,,,0,note_off,,80.0,47.0,80.0,338160,352.25
2736,0.0,,,,,,40.0,,,,,,0,note_off,,80.0,40.0,80.0,338160,352.25
2737,1.0,,,,,,55.0,,,,,,0,note_on,,95.0,55.0,95.0,338160,352.25
2738,1.0,,,,,,,,0.0,,,,0,pitchwheel,,,,,338160,352.25
2739,1.0,,,,,,,,256.0,,,,16,pitchwheel,,,,,338176,352.26666666666665
2740,1.0,,,,,,,,1152.0,,,,16,pitchwheel,,,,,338192,352.2833333333333
2741,1.0,,,,,,,,1408.0,,,,16,pitchwheel,,,,,338208,352.3
2742,1.0,,,,,,,,640.0,,,,48,pitchwheel,,,,,338256,352.35
2743,1.0,,,,,,,,128.0,,,,16,pitchwheel,,,,,338272,352.3666666666667
2744,1.0,,,,,,,,0.0,,,,16,pitchwheel,,,,,338288,352.3833333333333
2745,1.0,,,,,,55.0,,,,,,112,note_off,,80.0,55.0,80.0,338400,352.5
2746,1.0,,,,,,,,0.0,,,,0,pitchwheel,,,,,338400,352.5
2747,0.0,,,,,,55.0,,,,,,0,note_on,,95.0,55.0,95.0,338400,352.5
2748,0.0,,,,,,55.0,,,,,,120,note_off,,80.0,55.0,80.0,338520,352.625
2749,0.0,,,,,,54.0,,,,,,0,note_on,,95.0,54.0,95.0,338520,352.625
2750,0.0,,,,,,54.0,,,,,,120,note_off,,80.0,54.0,80.0,338640,352.75
2751,0.0,,,,,,50.0,,,,,,0,note_on,,95.0,50.0,95.0,338640,352.75
2752,0.0,,,,,,50.0,,,,,,120,note_off,,80.0,50.0,80.0,338760,352.875
2753,0.0,,,,,,50.0,,,,,,0,note_on,,95.0,50.0,95.0,338760,352.875
2754,0.0,,,,,,50.0,,,,,,240,note_off,,80.0,50.0,80.0,339000,353.125
2755,0.0,,,,,,49.0,,,,,,0,note_on,,95.0,49.0,95.0,339000,353.125
2756,0.0,,,,,,49.0,,,,,,120,note_off,,80.0,49.0,80.0,339120,353.25
2757,0.0,,,,,,45.0,,,,,,0,note_on,,95.0,45.0,95.0,339120,353.25
2758,0.0,,,,,,45.0,,,,,,240,note_off,,80.0,45.0,80.0,339360,353.5
2759,0.0,,,,,,52.0,,,,,,0,note_on,,95.0,52.0,95.0,339360,353.5
2760,0.0,,,,,,47.0,,,,,,0,note_on,,95.0,47.0,95.0,339360,353.5
2761,0.0,,,,,,40.0,,,,,,0,note_on,,95.0,40.0,95.0,339360,353.5
2762,0.0,,,,,,52.0,,,,,,120,note_off,,80.0,52.0,80.0,339480,353.625
2763,0.0,,,,,,47.0,,,,,,0,note_off,,80.0,47.0,80.0,339480,353.625
2764,0.0,,,,,,40.0,,,,,,0,note_off,,80.0,40.0,80.0,339480,353.625
2765,0.0,,,,,,55.0,,,,,,0,note_on,,95.0,55.0,95.0,339480,353.625
2766,0.0,,,,,,50.0,,,,,,0,note_on,,95.0,50.0,95.0,339480,353.625
2767,0.0,,,,,,43.0,,,,,,0,note_on,,95.0,43.0,95.0,339480,353.625
2768,0.0,,,,,,55.0,,,,,,360,note_off,,80.0,55.0,80.0,339840,354.0
2769,0.0,,,,,,50.0,,,,,,0,note_off,,80.0,50.0,80.0,339840,354.0
2770,0.0,,,,,,43.0,,,,,,0,note_off,,80.0,43.0,80.0,339840,354.0
2771,0.0,,,,,,52.0,,,,,,0,note_on,,95.0,52.0,95.0,339840,354.0
2772,0.0,,,,,,47.0,,,,,,0,note_on,,95.0,47.0,95.0,339840,354.0
2773,0.0,,,,,,40.0,,,,,,0,note_on,,95.0,40.0,95.0,339840,354.0
2774,0.0,,,,,,52.0,,,,,,240,note_off,,80.0,52.0,80.0,340080,354.25
2775,0.0,,,,,,47.0,,,,,,0,note_off,,80.0,47.0,80.0,340080,354.25
2776,0.0,,,,,,40.0,,,,,,0,note_off,,80.0,40.0,80.0,340080,354.25
2777,1.0,,,,,,55.0,,,,,,0,note_on,,95.0,55.0,95.0,340080,354.25
2778,1.0,,,,,,,,0.0,,,,0,pitchwheel,,,,,340080,354.25
2779,1.0,,,,,,,,256.0,,,,16,pitchwheel,,,,,340096,354.26666666666665
2780,1.0,,,,,,,,1152.0,,,,16,pitchwheel,,,,,340112,354.2833333333333
2781,1.0,,,,,,,,1408.0,,,,16,pitchwheel,,,,,340128,354.3
2782,1.0,,,,,,,,640.0,,,,48,pitchwheel,,,,,340176,354.35
2783,1.0,,,,,,,,128.0,,,,16,pitchwheel,,,,,340192,354.3666666666667
2784,1.0,,,,,,,,0.0,,,,16,pitchwheel,,,,,340208,354.3833333333333
2785,1.0,,,,,,55.0,,,,,,112,note_off,,80.0,55.0,80.0,340320,354.5
2786,1.0,,,,,,,,0.0,,,,0,pitchwheel,,,,,340320,354.5
2787,0.0,,,,,,55.0,,,,,,0,note_on,,95.0,55.0,95.0,340320,354.5
2788,0.0,,,,,,55.0,,,,,,120,note_off,,80.0,55.0,80.0,340440,354.625
2789,0.0,,,,,,54.0,,,,,,0,note_on,,95.0,54.0,95.0,340440,354.625
2790,0.0,,,,,,54.0,,,,,,120,note_off,,80.0,54.0,80.0,340560,354.75
2791,0.0,,,,,,50.0,,,,,,0,note_on,,95.0,50.0,95.0,340560,354.75
2792,0.0,,,,,,50.0,,,,,,120,note_off,,80.0,50.0,80.0,340680,354.875
2793,0.0,,,,,,62.0,,,,,,0,note_on,,95.0,62.0,95.0,340680,354.875
2794,0.0,,,,,,57.0,,,,,,0,note_on,,95.0,57.0,95.0,340680,354.875
2795,0.0,,,,,,50.0,,,,,,0,note_on,,95.0,50.0,95.0,340680,354.875
2796,0.0,,,,,,62.0,,,,,,120,note_off,,80.0,62.0,80.0,340800,355.0
2797,0.0,,,,,,57.0,,,,,,0,note_off,,80.0,57.0,80.0,340800,355.0
2798,0.0,,,,,,50.0,,,,,,0,note_off,,80.0,50.0,80.0,340800,355.0
2799,0.0,,,,,,64.0,,,,,,120,note_on,,95.0,64.0,95.0,340920,355.125
2800,0.0,,,,,,59.0,,,,,,0,note_on,,95.0,59.0,95.0,340920,355.125
2801,0.0,,,,,,52.0,,,,,,0,note_on,,95.0,52.0,95.0,340920,355.125
2802,0.0,,,,,,64.0,,,,,,120,note_off,,80.0,64.0,80.0,341040,355.25
2803,0.0,,,,,,59.0,,,,,,120,note_off,,80.0,59.0,80.0,341160,355.375
2804,0.0,,,,,,52.0,,,,,,0,note_off,,80.0,52.0,80.0,341160,355.375
2805,0.0,,,,,,62.0,,,,,,0,note_on,,95.0,62.0,95.0,341160,355.375
2806,0.0,,,,,,57.0,,,,,,0,note_on,,95.0,57.0,95.0,341160,355.375
2807,0.0,,,,,,50.0,,,,,,0,note_on,,95.0,50.0,95.0,341160,355.375
2808,0.0,,,,,,62.0,,,,,,120,note_off,,80.0,62.0,80.0,341280,355.5
2809,0.0,,,,,,57.0,,,,,,0,note_off,,80.0,57.0,80.0,341280,355.5
2810,0.0,,,,,,50.0,,,,,,0,note_off,,80.0,50.0,80.0,341280,355.5
2811,0.0,,,,,,64.0,,,,,,0,note_on,,95.0,64.0,95.0,341280,355.5
2812,0.0,,,,,,59.0,,,,,,0,note_on,,95.0,59.0,95.0,341280,355.5
2813,0.0,,,,,,52.0,,,,,,0,note_on,,95.0,52.0,95.0,341280,355.5
2814,0.0,,,,,,64.0,,,,,,480,note_off,,80.0,64.0,80.0,341760,356.0
2815,0.0,,,,,,59.0,,,,,,0,note_off,,80.0,59.0,80.0,341760,356.0
2816,0.0,,,,,,52.0,,,,,,0,note_off,,80.0,52.0,80.0,341760,356.0
2817,0.0,,,,,,52.0,,,,,,0,note_on,,95.0,52.0,95.0,341760,356.0
2818,0.0,,,,,,47.0,,,,,,0,note_on,,95.0,47.0,95.0,341760,356.0
2819,0.0,,,,,,40.0,,,,,,0,note_on,,95.0,40.0,95.0,341760,356.0
2820,0.0,,,,,,52.0,,,,,,240,note_off,,80.0,52.0,80.0,342000,356.25
2821,0.0,,,,,,47.0,,,,,,0,note_off,,80.0,47.0,80.0,342000,356.25
2822,0.0,,,,,,40.0,,,,,,0,note_off,,80.0,40.0,80.0,342000,356.25
2823,1.0,,,,,,55.0,,,,,,0,note_on,,95.0,55.0,95.0,342000,356.25
2824,1.0,,,,,,,,0.0,,,,0,pitchwheel,,,,,342000,356.25
2825,1.0,,,,,,,,256.0,,,,16,pitchwheel,,,,,342016,356.26666666666665
2826,1.0,,,,,,,,1152.0,,,,16,pitchwheel,,,,,342032,356.2833333333333
2827,1.0,,,,,,,,1408.0,,,,16,pitchwheel,,,,,342048,356.3
2828,1.0,,,,,,,,640.0,,,,48,pitchwheel,,,,,342096,356.35
2829,1.0,,,,,,,,128.0,,,,16,pitchwheel,,,,,342112,356.3666666666667
2830,1.0,,,,,,,,0.0,,,,16,pitchwheel,,,,,342128,356.3833333333333
2831,1.0,,,,,,55.0,,,,,,112,note_off,,80.0,55.0,80.0,342240,356.5
2832,1.0,,,,,,,,0.0,,,,0,pitchwheel,,,,,342240,356.5
2833,0.0,,,,,,55.0,,,,,,0,note_on,,95.0,55.0,95.0,342240,356.5
2834,0.0,,,,,,55.0,,,,,,120,note_off,,80.0,55.0,80.0,342360,356.625
2835,0.0,,,,,,54.0,,,,,,0,note_on,,95.0,54.0,95.0,342360,356.625
2836,0.0,,,,,,54.0,,,,,,120,note_off,,80.0,54.0,80.0,342480,356.75
2837,0.0,,,,,,50.0,,,,,,0,note_on,,95.0,50.0,95.0,342480,356.75
2838,0.0,,,,,,50.0,,,,,,120,note_off,,80.0,50.0,80.0,342600,356.875
2839,0.0,,,,,,50.0,,,,,,0,note_on,,95.0,50.0,95.0,342600,356.875
2840,0.0,,,,,,50.0,,,,,,240,note_off,,80.0,50.0,80.0,342840,357.125
2841,0.0,,,,,,49.0,,,,,,0,note_on,,95.0,49.0,95.0,342840,357.125
2842,0.0,,,,,,49.0,,,,,,120,note_off,,80.0,49.0,80.0,342960,357.25
2843,0.0,,,,,,45.0,,,,,,0,note_on,,95.0,45.0,95.0,342960,357.25
2844,0.0,,,,,,45.0,,,,,,240,note_off,,80.0,45.0,80.0,343200,357.5
2845,0.0,,,,,,52.0,,,,,,0,note_on,,95.0,52.0,95.0,343200,357.5
2846,0.0,,,,,,47.0,,,,,,0,note_on,,95.0,47.0,95.0,343200,357.5
2847,0.0,,,,,,40.0,,,,,,0,note_on,,95.0,40.0,95.0,343200,357.5
2848,0.0,,,,,,52.0,,,,,,20,note_off,,80.0,52.0,80.0,343220,357.5208333333333
2849,0.0,,,,,,47.0,,,,,,0,note_off,,80.0,47.0,80.0,343220,357.5208333333333
2850,0.0,,,,,,40.0,,,,,,0,note_off,,80.0,40.0,80.0,343220,357.5208333333333
2851,0.0,,,,,,55.0,,,,,,100,note_on,,95.0,55.0,95.0,343320,357.625
2852,0.0,,,,,,50.0,,,,,,0,note_on,,95.0,50.0,95.0,343320,357.625
2853,0.0,,,,,,43.0,,,,,,0,note_on,,95.0,43.0,95.0,343320,357.625
2854,0.0,,,,,,55.0,,,,,,360,note_off,,80.0,55.0,80.0,343680,358.0
2855,0.0,,,,,,50.0,,,,,,0,note_off,,80.0,50.0,80.0,343680,358.0
2856,0.0,,,,,,43.0,,,,,,0,note_off,,80.0,43.0,80.0,343680,358.0
2857,0.0,,,,,,52.0,,,,,,0,note_on,,95.0,52.0,95.0,343680,358.0
2858,0.0,,,,,,47.0,,,,,,0,note_on,,95.0,47.0,95.0,343680,358.0
2859,0.0,,,,,,40.0,,,,,,0,note_on,,95.0,40.0,95.0,343680,358.0
2860,0.0,,,,,,52.0,,,,,,240,note_off,,80.0,52.0,80.0,343920,358.25
2861,0.0,,,,,,47.0,,,,,,0,note_off,,80.0,47.0,80.0,343920,358.25
2862,0.0,,,,,,40.0,,,,,,0,note_off,,80.0,40.0,80.0,343920,358.25
2863,1.0,,,,,,55.0,,,,,,0,note_on,,95.0,55.0,95.0,343920,358.25
2864,1.0,,,,,,,,0.0,,,,0,pitchwheel,,,,,343920,358.25
2865,1.0,,,,,,,,256.0,,,,16,pitchwheel,,,,,343936,358.26666666666665
2866,1.0,,,,,,,,1152.0,,,,16,pitchwheel,,,,,343952,358.2833333333333
2867,1.0,,,,,,,,1408.0,,,,16,pitchwheel,,,,,343968,358.3
2868,1.0,,,,,,,,640.0,,,,48,pitchwheel,,,,,344016,358.35
2869,1.0,,,,,,,,128.0,,,,16,pitchwheel,,,,,344032,358.3666666666667
2870,1.0,,,,,,,,0.0,,,,16,pitchwheel,,,,,344048,358.3833333333333
2871,1.0,,,,,,55.0,,,,,,112,note_off,,80.0,55.0,80.0,344160,358.5
2872,1.0,,,,,,,,0.0,,,,0,pitchwheel,,,,,344160,358.5
2873,0.0,,,,,,55.0,,,,,,0,note_on,,95.0,55.0,95.0,344160,358.5
2874,0.0,,,,,,55.0,,,,,,120,note_off,,80.0,55.0,80.0,344280,358.625
2875,0.0,,,,,,54.0,,,,,,0,note_on,,95.0,54.0,95.0,344280,358.625
2876,0.0,,,,,,54.0,,,,,,120,note_off,,80.0,54.0,80.0,344400,358.75
2877,0.0,,,,,,50.0,,,,,,0,note_on,,95.0,50.0,95.0,344400,358.75
2878,0.0,,,,,,50.0,,,,,,120,note_off,,80.0,50.0,80.0,344520,358.875
2879,0.0,,,,,,62.0,,,,,,0,note_on,,95.0,62.0,95.0,344520,358.875
2880,0.0,,,,,,62.0,,,,,,240,note_off,,80.0,62.0,80.0,344760,359.125
2881,0.0,,,,,,61.0,,,,,,0,note_on,,95.0,61.0,95.0,344760,359.125
2882,0.0,,,,,,61.0,,,,,,120,note_off,,80.0,61.0,80.0,344880,359.25
2883,0.0,,,,,,57.0,,,,,,0,note_on,,95.0,57.0,95.0,344880,359.25
2884,0.0,,,,,,57.0,,,,,,240,note_off,,80.0,57.0,80.0,345120,359.5
2885,0.0,,,,,,52.0,,,,,,0,note_on,,95.0,52.0,95.0,345120,359.5
2886,0.0,,,,,,47.0,,,,,,0,note_on,,95.0,47.0,95.0,345120,359.5
2887,0.0,,,,,,40.0,,,,,,0,note_on,,95.0,40.0,95.0,345120,359.5
2888,0.0,,,,,,52.0,,,,,,120,note_off,,80.0,52.0,80.0,345240,359.625
2889,0.0,,,,,,47.0,,,,,,0,note_off,,80.0,47.0,80.0,345240,359.625
2890,0.0,,,,,,40.0,,,,,,0,note_off,,80.0,40.0,80.0,345240,359.625
2891,0.0,,,,,,55.0,,,,,,0,note_on,,95.0,55.0,95.0,345240,359.625
2892,0.0,,,,,,50.0,,,,,,0,note_on,,95.0,50.0,95.0,345240,359.625
2893,0.0,,,,,,43.0,,,,,,0,note_on,,95.0,43.0,95.0,345240,359.625
2894,0.0,,,,,,55.0,,,,,,360,note_off,,80.0,55.0,80.0,345600,360.0
2895,0.0,,,,,,50.0,,,,,,0,note_off,,80.0,50.0,80.0,345600,360.0
2896,0.0,,,,,,43.0,,,,,,0,note_off,,80.0,43.0,80.0,345600,360.0
2897,0.0,,,,,,52.0,,,,,,0,note_on,,95.0,52.0,95.0,345600,360.0
2898,0.0,,,,,,47.0,,,,,,0,note_on,,95.0,47.0,95.0,345600,360.0
2899,0.0,,,,,,40.0,,,,,,0,note_on,,95.0,40.0,95.0,345600,360.0
2900,0.0,,,,,,52.0,,,,,,240,note_off,,80.0,52.0,80.0,345840,360.25
2901,0.0,,,,,,47.0,,,,,,0,note_off,,80.0,47.0,80.0,345840,360.25
2902,0.0,,,,,,40.0,,,,,,0,note_off,,80.0,40.0,80.0,345840,360.25
2903,1.0,,,,,,55.0,,,,,,0,note_on,,95.0,55.0,95.0,345840,360.25
2904,1.0,,,,,,,,0.0,,,,0,pitchwheel,,,,,345840,360.25
2905,1.0,,,,,,,,256.0,,,,16,pitchwheel,,,,,345856,360.26666666666665
2906,1.0,,,,,,,,1152.0,,,,16,pitchwheel,,,,,345872,360.2833333333333
2907,1.0,,,,,,,,1408.0,,,,16,pitchwheel,,,,,345888,360.3
2908,1.0,,,,,,,,640.0,,,,48,pitchwheel,,,,,345936,360.35
2909,1.0,,,,,,,,128.0,,,,16,pitchwheel,,,,,345952,360.3666666666667
2910,1.0,,,,,,,,0.0,,,,16,pitchwheel,,,,,345968,360.3833333333333
2911,1.0,,,,,,55.0,,,,,,112,note_off,,80.0,55.0,80.0,346080,360.5
2912,1.0,,,,,,,,0.0,,,,0,pitchwheel,,,,,346080,360.5
2913,0.0,,,,,,55.0,,,,,,0,note_on,,95.0,55.0,95.0,346080,360.5
2914,0.0,,,,,,55.0,,,,,,120,note_off,,80.0,55.0,80.0,346200,360.625
2915,0.0,,,,,,54.0,,,,,,0,note_on,,95.0,54.0,95.0,346200,360.625
2916,0.0,,,,,,54.0,,,,,,120,note_off,,80.0,54.0,80.0,346320,360.75
2917,0.0,,,,,,50.0,,,,,,0,note_on,,95.0,50.0,95.0,346320,360.75
2918,0.0,,,,,,50.0,,,,,,120,note_off,,80.0,50.0,80.0,346440,360.875
2919,0.0,,,,,,50.0,,,,,,0,note_on,,95.0,50.0,95.0,346440,360.875
2920,0.0,,,,,,50.0,,,,,,240,note_off,,80.0,50.0,80.0,346680,361.125
2921,0.0,,,,,,49.0,,,,,,0,note_on,,95.0,49.0,95.0,346680,361.125
2922,0.0,,,,,,49.0,,,,,,120,note_off,,80.0,49.0,80.0,346800,361.25
2923,0.0,,,,,,45.0,,,,,,0,note_on,,95.0,45.0,95.0,346800,361.25
2924,0.0,,,,,,45.0,,,,,,240,note_off,,80.0,45.0,80.0,347040,361.5
2925,0.0,,,,,,52.0,,,,,,0,note_on,,95.0,52.0,95.0,347040,361.5
2926,0.0,,,,,,47.0,,,,,,0,note_on,,95.0,47.0,95.0,347040,361.5
2927,0.0,,,,,,40.0,,,,,,0,note_on,,95.0,40.0,95.0,347040,361.5
2928,0.0,,,,,,52.0,,,,,,120,note_off,,80.0,52.0,80.0,347160,361.625
2929,0.0,,,,,,47.0,,,,,,0,note_off,,80.0,47.0,80.0,347160,361.625
2930,0.0,,,,,,40.0,,,,,,0,note_off,,80.0,40.0,80.0,347160,361.625
2931,0.0,,,,,,55.0,,,,,,0,note_on,,95.0,55.0,95.0,347160,361.625
2932,0.0,,,,,,50.0,,,,,,0,note_on,,95.0,50.0,95.0,347160,361.625
2933,0.0,,,,,,43.0,,,,,,0,note_on,,95.0,43.0,95.0,347160,361.625
2934,0.0,,,,,,55.0,,,,,,360,note_off,,80.0,55.0,80.0,347520,362.0
2935,0.0,,,,,,50.0,,,,,,0,note_off,,80.0,50.0,80.0,347520,362.0
2936,0.0,,,,,,43.0,,,,,,0,note_off,,80.0,43.0,80.0,347520,362.0
2937,0.0,,,,,,52.0,,,,,,0,note_on,,95.0,52.0,95.0,347520,362.0
2938,0.0,,,,,,47.0,,,,,,0,note_on,,95.0,47.0,95.0,347520,362.0
2939,0.0,,,,,,40.0,,,,,,0,note_on,,95.0,40.0,95.0,347520,362.0
2940,0.0,,,,,,52.0,,,,,,240,note_off,,80.0,52.0,80.0,347760,362.25
2941,0.0,,,,,,47.0,,,,,,0,note_off,,80.0,47.0,80.0,347760,362.25
2942,0.0,,,,,,40.0,,,,,,0,note_off,,80.0,40.0,80.0,347760,362.25
2943,1.0,,,,,,55.0,,,,,,0,note_on,,95.0,55.0,95.0,347760,362.25
2944,1.0,,,,,,,,0.0,,,,0,pitchwheel,,,,,347760,362.25
2945,1.0,,,,,,,,256.0,,,,16,pitchwheel,,,,,347776,362.26666666666665
2946,1.0,,,,,,,,1152.0,,,,16,pitchwheel,,,,,347792,362.2833333333333
2947,1.0,,,,,,,,1408.0,,,,16,pitchwheel,,,,,347808,362.3
2948,1.0,,,,,,,,640.0,,,,48,pitchwheel,,,,,347856,362.35
2949,1.0,,,,,,,,128.0,,,,16,pitchwheel,,,,,347872,362.3666666666667
2950,1.0,,,,,,,,0.0,,,,16,pitchwheel,,,,,347888,362.3833333333333
2951,1.0,,,,,,55.0,,,,,,112,note_off,,80.0,55.0,80.0,348000,362.5
2952,1.0,,,,,,,,0.0,,,,0,pitchwheel,,,,,348000,362.5
2953,0.0,,,,,,55.0,,,,,,0,note_on,,95.0,55.0,95.0,348000,362.5
2954,0.0,,,,,,55.0,,,,,,120,note_off,,80.0,55.0,80.0,348120,362.625
2955,0.0,,,,,,54.0,,,,,,0,note_on,,95.0,54.0,95.0,348120,362.625
2956,0.0,,,,,,54.0,,,,,,120,note_off,,80.0,54.0,80.0,348240,362.75
2957,0.0,,,,,,50.0,,,,,,0,note_on,,95.0,50.0,95.0,348240,362.75
2958,0.0,,,,,,50.0,,,,,,120,note_off,,80.0,50.0,80.0,348360,362.875
2959,0.0,,,,,,62.0,,,,,,0,note_on,,95.0,62.0,95.0,348360,362.875
2960,0.0,,,,,,57.0,,,,,,0,note_on,,95.0,57.0,95.0,348360,362.875
2961,0.0,,,,,,50.0,,,,,,0,note_on,,95.0,50.0,95.0,348360,362.875
2962,0.0,,,,,,62.0,,,,,,240,note_off,,80.0,62.0,80.0,348600,363.125
2963,0.0,,,,,,57.0,,,,,,0,note_off,,80.0,57.0,80.0,348600,363.125
2964,0.0,,,,,,50.0,,,,,,0,note_off,,80.0,50.0,80.0,348600,363.125
2965,0.0,,,,,,64.0,,,,,,0,note_on,,95.0,64.0,95.0,348600,363.125
2966,0.0,,,,,,59.0,,,,,,0,note_on,,95.0,59.0,95.0,348600,363.125
2967,0.0,,,,,,52.0,,,,,,0,note_on,,95.0,52.0,95.0,348600,363.125
2968,0.0,,,,,,64.0,,,,,,240,note_off,,80.0,64.0,80.0,348840,363.375
2969,0.0,,,,,,59.0,,,,,,0,note_off,,80.0,59.0,80.0,348840,363.375
2970,0.0,,,,,,52.0,,,,,,0,note_off,,80.0,52.0,80.0,348840,363.375
2971,0.0,,,,,,62.0,,,,,,0,note_on,,95.0,62.0,95.0,348840,363.375
2972,0.0,,,,,,57.0,,,,,,0,note_on,,95.0,57.0,95.0,348840,363.375
2973,0.0,,,,,,50.0,,,,,,0,note_on,,95.0,50.0,95.0,348840,363.375
2974,0.0,,,,,,62.0,,,,,,120,note_off,,80.0,62.0,80.0,348960,363.5
2975,0.0,,,,,,57.0,,,,,,0,note_off,,80.0,57.0,80.0,348960,363.5
2976,0.0,,,,,,50.0,,,,,,0,note_off,,80.0,50.0,80.0,348960,363.5
2977,0.0,,,,,,64.0,,,,,,0,note_on,,95.0,64.0,95.0,348960,363.5
2978,0.0,,,,,,59.0,,,,,,0,note_on,,95.0,59.0,95.0,348960,363.5
2979,0.0,,,,,,52.0,,,,,,0,note_on,,95.0,52.0,95.0,348960,363.5
2980,0.0,,,,,,64.0,,,,,,480,note_off,,80.0,64.0,80.0,349440,364.0
2981,0.0,,,,,,59.0,,,,,,0,note_off,,80.0,59.0,80.0,349440,364.0
2982,0.0,,,,,,52.0,,,,,,0,note_off,,80.0,52.0,80.0,349440,364.0
2983,0.0,,,,,,52.0,,,,,,0,note_on,,95.0,52.0,95.0,349440,364.0
2984,0.0,,,,,,47.0,,,,,,0,note_on,,95.0,47.0,95.0,349440,364.0
2985,0.0,,,,,,40.0,,,,,,0,note_on,,95.0,40.0,95.0,349440,364.0
2986,0.0,,,,,,52.0,,,,,,240,note_off,,80.0,52.0,80.0,349680,364.25
2987,0.0,,,,,,47.0,,,,,,0,note_off,,80.0,47.0,80.0,349680,364.25
2988,0.0,,,,,,40.0,,,,,,0,note_off,,80.0,40.0,80.0,349680,364.25
2989,1.0,,,,,,55.0,,,,,,0,note_on,,95.0,55.0,95.0,349680,364.25
2990,1.0,,,,,,,,0.0,,,,0,pitchwheel,,,,,349680,364.25
2991,1.0,,,,,,,,256.0,,,,16,pitchwheel,,,,,349696,364.26666666666665
2992,1.0,,,,,,,,1152.0,,,,16,pitchwheel,,,,,349712,364.2833333333333
2993,1.0,,,,,,,,1408.0,,,,16,pitchwheel,,,,,349728,364.3
2994,1.0,,,,,,,,640.0,,,,48,pitchwheel,,,,,349776,364.35
2995,1.0,,,,,,,,128.0,,,,16,pitchwheel,,,,,349792,364.3666666666667
2996,1.0,,,,,,,,0.0,,,,16,pitchwheel,,,,,349808,364.3833333333333
2997,1.0,,,,,,55.0,,,,,,112,note_off,,80.0,55.0,80.0,349920,364.5
2998,1.0,,,,,,,,0.0,,,,0,pitchwheel,,,,,349920,364.5
2999,0.0,,,,,,55.0,,,,,,0,note_on,,95.0,55.0,95.0,349920,364.5
3000,0.0,,,,,,55.0,,,,,,120,note_off,,80.0,55.0,80.0,350040,364.625
3001,0.0,,,,,,54.0,,,,,,0,note_on,,95.0,54.0,95.0,350040,364.625
3002,0.0,,,,,,54.0,,,,,,120,note_off,,80.0,54.0,80.0,350160,364.75
3003,0.0,,,,,,50.0,,,,,,0,note_on,,95.0,50.0,95.0,350160,364.75
3004,0.0,,,,,,50.0,,,,,,120,note_off,,80.0,50.0,80.0,350280,364.875
3005,0.0,,,,,,50.0,,,,,,0,note_on,,95.0,50.0,95.0,350280,364.875
3006,0.0,,,,,,50.0,,,,,,240,note_off,,80.0,50.0,80.0,350520,365.125
3007,0.0,,,,,,49.0,,,,,,0,note_on,,95.0,49.0,95.0,350520,365.125
3008,0.0,,,,,,49.0,,,,,,120,note_off,,80.0,49.0,80.0,350640,365.25
3009,0.0,,,,,,45.0,,,,,,0,note_on,,95.0,45.0,95.0,350640,365.25
3010,0.0,,,,,,45.0,,,,,,240,note_off,,80.0,45.0,80.0,350880,365.5
3011,0.0,,,,,,52.0,,,,,,0,note_on,,95.0,52.0,95.0,350880,365.5
3012,0.0,,,,,,47.0,,,,,,0,note_on,,95.0,47.0,95.0,350880,365.5
3013,0.0,,,,,,40.0,,,,,,0,note_on,,95.0,40.0,95.0,350880,365.5
3014,0.0,,,,,,52.0,,,,,,20,note_off,,80.0,52.0,80.0,350900,365.5208333333333
3015,0.0,,,,,,47.0,,,,,,0,note_off,,80.0,47.0,80.0,350900,365.5208333333333
3016,0.0,,,,,,40.0,,,,,,0,note_off,,80.0,40.0,80.0,350900,365.5208333333333
3017,0.0,,,,,,55.0,,,,,,100,note_on,,95.0,55.0,95.0,351000,365.625
3018,0.0,,,,,,50.0,,,,,,0,note_on,,95.0,50.0,95.0,351000,365.625
3019,0.0,,,,,,43.0,,,,,,0,note_on,,95.0,43.0,95.0,351000,365.625
3020,0.0,,,,,,55.0,,,,,,360,note_off,,80.0,55.0,80.0,351360,366.0
3021,0.0,,,,,,50.0,,,,,,0,note_off,,80.0,50.0,80.0,351360,366.0
3022,0.0,,,,,,43.0,,,,,,0,note_off,,80.0,43.0,80.0,351360,366.0
3023,0.0,,,,,,52.0,,,,,,0,note_on,,95.0,52.0,95.0,351360,366.0
3024,0.0,,,,,,47.0,,,,,,0,note_on,,95.0,47.0,95.0,351360,366.0
3025,0.0,,,,,,40.0,,,,,,0,note_on,,95.0,40.0,95.0,351360,366.0
3026,0.0,,,,,,52.0,,,,,,240,note_off,,80.0,52.0,80.0,351600,366.25
3027,0.0,,,,,,47.0,,,,,,0,note_off,,80.0,47.0,80.0,351600,366.25
3028,0.0,,,,,,40.0,,,,,,0,note_off,,80.0,40.0,80.0,351600,366.25
3029,1.0,,,,,,55.0,,,,,,0,note_on,,95.0,55.0,95.0,351600,366.25
3030,1.0,,,,,,,,0.0,,,,0,pitchwheel,,,,,351600,366.25
3031,1.0,,,,,,,,256.0,,,,16,pitchwheel,,,,,351616,366.26666666666665
3032,1.0,,,,,,,,1152.0,,,,16,pitchwheel,,,,,351632,366.2833333333333
3033,1.0,,,,,,,,1408.0,,,,16,pitchwheel,,,,,351648,366.3
3034,1.0,,,,,,,,640.0,,,,48,pitchwheel,,,,,351696,366.35
3035,1.0,,,,,,,,128.0,,,,16,pitchwheel,,,,,351712,366.3666666666667
3036,1.0,,,,,,,,0.0,,,,16,pitchwheel,,,,,351728,366.3833333333333
3037,1.0,,,,,,55.0,,,,,,112,note_off,,80.0,55.0,80.0,351840,366.5
3038,1.0,,,,,,,,0.0,,,,0,pitchwheel,,,,,351840,366.5
3039,0.0,,,,,,55.0,,,,,,0,note_on,,95.0,55.0,95.0,351840,366.5
3040,0.0,,,,,,55.0,,,,,,120,note_off,,80.0,55.0,80.0,351960,366.625
3041,0.0,,,,,,54.0,,,,,,0,note_on,,95.0,54.0,95.0,351960,366.625
3042,0.0,,,,,,54.0,,,,,,120,note_off,,80.0,54.0,80.0,352080,366.75
3043,0.0,,,,,,50.0,,,,,,0,note_on,,95.0,50.0,95.0,352080,366.75
3044,0.0,,,,,,50.0,,,,,,120,note_off,,80.0,50.0,80.0,352200,366.875
3045,0.0,,,,,,62.0,,,,,,0,note_on,,95.0,62.0,95.0,352200,366.875
3046,0.0,,,,,,62.0,,,,,,240,note_off,,80.0,62.0,80.0,352440,367.125
3047,0.0,,,,,,61.0,,,,,,0,note_on,,95.0,61.0,95.0,352440,367.125
3048,0.0,,,,,,61.0,,,,,,120,note_off,,80.0,61.0,80.0,352560,367.25
3049,0.0,,,,,,57.0,,,,,,0,note_on,,95.0,57.0,95.0,352560,367.25
3050,0.0,,,,,,57.0,,,,,,240,note_off,,80.0,57.0,80.0,352800,367.5
3051,0.0,,,,,,52.0,,,,,,0,note_on,,95.0,52.0,95.0,352800,367.5
3052,0.0,,,,,,47.0,,,,,,0,note_on,,95.0,47.0,95.0,352800,367.5
3053,0.0,,,,,,40.0,,,,,,0,note_on,,95.0,40.0,95.0,352800,367.5
3054,0.0,,,,,,52.0,,,,,,120,note_off,,80.0,52.0,80.0,352920,367.625
3055,0.0,,,,,,47.0,,,,,,0,note_off,,80.0,47.0,80.0,352920,367.625
3056,0.0,,,,,,40.0,,,,,,0,note_off,,80.0,40.0,80.0,352920,367.625
3057,0.0,,,,,,55.0,,,,,,0,note_on,,95.0,55.0,95.0,352920,367.625
3058,0.0,,,,,,50.0,,,,,,0,note_on,,95.0,50.0,95.0,352920,367.625
3059,0.0,,,,,,43.0,,,,,,0,note_on,,95.0,43.0,95.0,352920,367.625
3060,0.0,,,,,,55.0,,,,,,360,note_off,,80.0,55.0,80.0,353280,368.0
3061,0.0,,,,,,50.0,,,,,,0,note_off,,80.0,50.0,80.0,353280,368.0
3062,0.0,,,,,,43.0,,,,,,0,note_off,,80.0,43.0,80.0,353280,368.0
3063,0.0,,,,,,52.0,,,,,,0,note_on,,95.0,52.0,95.0,353280,368.0
3064,0.0,,,,,,47.0,,,,,,0,note_on,,95.0,47.0,95.0,353280,368.0
3065,0.0,,,,,,40.0,,,,,,0,note_on,,95.0,40.0,95.0,353280,368.0
3066,0.0,,,,,,52.0,,,,,,240,note_off,,80.0,52.0,80.0,353520,368.25
3067,0.0,,,,,,47.0,,,,,,0,note_off,,80.0,47.0,80.0,353520,368.25
3068,0.0,,,,,,40.0,,,,,,0,note_off,,80.0,40.0,80.0,353520,368.25
3069,1.0,,,,,,55.0,,,,,,0,note_on,,95.0,55.0,95.0,353520,368.25
3070,1.0,,,,,,,,0.0,,,,0,pitchwheel,,,,,353520,368.25
3071,1.0,,,,,,,,256.0,,,,16,pitchwheel,,,,,353536,368.26666666666665
3072,1.0,,,,,,,,1152.0,,,,16,pitchwheel,,,,,353552,368.2833333333333
3073,1.0,,,,,,,,1408.0,,,,16,pitchwheel,,,,,353568,368.3
3074,1.0,,,,,,,,640.0,,,,48,pitchwheel,,,,,353616,368.35
3075,1.0,,,,,,,,128.0,,,,16,pitchwheel,,,,,353632,368.3666666666667
3076,1.0,,,,,,,,0.0,,,,16,pitchwheel,,,,,353648,368.3833333333333
3077,1.0,,,,,,55.0,,,,,,112,note_off,,80.0,55.0,80.0,353760,368.5
3078,1.0,,,,,,,,0.0,,,,0,pitchwheel,,,,,353760,368.5
3079,0.0,,,,,,55.0,,,,,,0,note_on,,95.0,55.0,95.0,353760,368.5
3080,0.0,,,,,,55.0,,,,,,120,note_off,,80.0,55.0,80.0,353880,368.625
3081,0.0,,,,,,54.0,,,,,,0,note_on,,95.0,54.0,95.0,353880,368.625
3082,0.0,,,,,,54.0,,,,,,120,note_off,,80.0,54.0,80.0,354000,368.75
3083,0.0,,,,,,50.0,,,,,,0,note_on,,95.0,50.0,95.0,354000,368.75
3084,0.0,,,,,,50.0,,,,,,120,note_off,,80.0,50.0,80.0,354120,368.875
3085,0.0,,,,,,50.0,,,,,,0,note_on,,95.0,50.0,95.0,354120,368.875
3086,0.0,,,,,,50.0,,,,,,240,note_off,,80.0,50.0,80.0,354360,369.125
3087,0.0,,,,,,49.0,,,,,,0,note_on,,95.0,49.0,95.0,354360,369.125
3088,0.0,,,,,,49.0,,,,,,120,note_off,,80.0,49.0,80.0,354480,369.25
3089,0.0,,,,,,45.0,,,,,,0,note_on,,95.0,45.0,95.0,354480,369.25
3090,0.0,,,,,,45.0,,,,,,240,note_off,,80.0,45.0,80.0,354720,369.5
3091,0.0,,,,,,52.0,,,,,,0,note_on,,95.0,52.0,95.0,354720,369.5
3092,0.0,,,,,,47.0,,,,,,0,note_on,,95.0,47.0,95.0,354720,369.5
3093,0.0,,,,,,40.0,,,,,,0,note_on,,95.0,40.0,95.0,354720,369.5
3094,0.0,,,,,,52.0,,,,,,120,note_off,,80.0,52.0,80.0,354840,369.625
3095,0.0,,,,,,47.0,,,,,,0,note_off,,80.0,47.0,80.0,354840,369.625
3096,0.0,,,,,,40.0,,,,,,0,note_off,,80.0,40.0,80.0,354840,369.625
3097,0.0,,,,,,55.0,,,,,,0,note_on,,95.0,55.0,95.0,354840,369.625
3098,0.0,,,,,,50.0,,,,,,0,note_on,,95.0,50.0,95.0,354840,369.625
3099,0.0,,,,,,43.0,,,,,,0,note_on,,95.0,43.0,95.0,354840,369.625
3100,0.0,,,,,,55.0,,,,,,360,note_off,,80.0,55.0,80.0,355200,370.0
3101,0.0,,,,,,50.0,,,,,,0,note_off,,80.0,50.0,80.0,355200,370.0
3102,0.0,,,,,,43.0,,,,,,0,note_off,,80.0,43.0,80.0,355200,370.0
3103,0.0,,,,,,52.0,,,,,,0,note_on,,95.0,52.0,95.0,355200,370.0
3104,0.0,,,,,,47.0,,,,,,0,note_on,,95.0,47.0,95.0,355200,370.0
3105,0.0,,,,,,40.0,,,,,,0,note_on,,95.0,40.0,95.0,355200,370.0
3106,0.0,,,,,,52.0,,,,,,240,note_off,,80.0,52.0,80.0,355440,370.25
3107,0.0,,,,,,47.0,,,,,,0,note_off,,80.0,47.0,80.0,355440,370.25
3108,0.0,,,,,,40.0,,,,,,0,note_off,,80.0,40.0,80.0,355440,370.25
3109,1.0,,,,,,55.0,,,,,,0,note_on,,95.0,55.0,95.0,355440,370.25
3110,1.0,,,,,,,,0.0,,,,0,pitchwheel,,,,,355440,370.25
3111,1.0,,,,,,,,256.0,,,,16,pitchwheel,,,,,355456,370.26666666666665
3112,1.0,,,,,,,,1152.0,,,,16,pitchwheel,,,,,355472,370.2833333333333
3113,1.0,,,,,,,,1408.0,,,,16,pitchwheel,,,,,355488,370.3
3114,1.0,,,,,,,,640.0,,,,48,pitchwheel,,,,,355536,370.35
3115,1.0,,,,,,,,128.0,,,,16,pitchwheel,,,,,355552,370.3666666666667
3116,1.0,,,,,,,,0.0,,,,16,pitchwheel,,,,,355568,370.3833333333333
3117,1.0,,,,,,55.0,,,,,,112,note_off,,80.0,55.0,80.0,355680,370.5
3118,1.0,,,,,,,,0.0,,,,0,pitchwheel,,,,,355680,370.5
3119,0.0,,,,,,55.0,,,,,,0,note_on,,95.0,55.0,95.0,355680,370.5
3120,0.0,,,,,,55.0,,,,,,120,note_off,,80.0,55.0,80.0,355800,370.625
3121,0.0,,,,,,54.0,,,,,,0,note_on,,95.0,54.0,95.0,355800,370.625
3122,0.0,,,,,,54.0,,,,,,120,note_off,,80.0,54.0,80.0,355920,370.75
3123,0.0,,,,,,50.0,,,,,,0,note_on,,95.0,50.0,95.0,355920,370.75
3124,0.0,,,,,,50.0,,,,,,120,note_off,,80.0,50.0,80.0,356040,370.875
3125,0.0,,,,,,62.0,,,,,,0,note_on,,95.0,62.0,95.0,356040,370.875
3126,0.0,,,,,,57.0,,,,,,0,note_on,,95.0,57.0,95.0,356040,370.875
3127,0.0,,,,,,50.0,,,,,,0,note_on,,95.0,50.0,95.0,356040,370.875
3128,0.0,,,,,,62.0,,,,,,120,note_off,,80.0,62.0,80.0,356160,371.0
3129,0.0,,,,,,57.0,,,,,,0,note_off,,80.0,57.0,80.0,356160,371.0
3130,0.0,,,,,,50.0,,,,,,0,note_off,,80.0,50.0,80.0,356160,371.0
3131,0.0,,,,,,64.0,,,,,,120,note_on,,95.0,64.0,95.0,356280,371.125
3132,0.0,,,,,,59.0,,,,,,0,note_on,,95.0,59.0,95.0,356280,371.125
3133,0.0,,,,,,52.0,,,,,,0,note_on,,95.0,52.0,95.0,356280,371.125
3134,0.0,,,,,,64.0,,,,,,120,note_off,,80.0,64.0,80.0,356400,371.25
3135,0.0,,,,,,59.0,,,,,,120,note_off,,80.0,59.0,80.0,356520,371.375
3136,0.0,,,,,,52.0,,,,,,0,note_off,,80.0,52.0,80.0,356520,371.375
3137,0.0,,,,,,62.0,,,,,,0,note_on,,95.0,62.0,95.0,356520,371.375
3138,0.0,,,,,,57.0,,,,,,0,note_on,,95.0,57.0,95.0,356520,371.375
3139,0.0,,,,,,50.0,,,,,,0,note_on,,95.0,50.0,95.0,356520,371.375
3140,0.0,,,,,,62.0,,,,,,120,note_off,,80.0,62.0,80.0,356640,371.5
3141,0.0,,,,,,57.0,,,,,,0,note_off,,80.0,57.0,80.0,356640,371.5
3142,0.0,,,,,,50.0,,,,,,0,note_off,,80.0,50.0,80.0,356640,371.5
3143,0.0,,,,,,64.0,,,,,,0,note_on,,95.0,64.0,95.0,356640,371.5
3144,0.0,,,,,,59.0,,,,,,0,note_on,,95.0,59.0,95.0,356640,371.5
3145,0.0,,,,,,52.0,,,,,,0,note_on,,95.0,52.0,95.0,356640,371.5
3146,0.0,,,,,,64.0,,,,,,480,note_off,,80.0,64.0,80.0,357120,372.0
3147,0.0,,,,,,59.0,,,,,,0,note_off,,80.0,59.0,80.0,357120,372.0
3148,0.0,,,,,,52.0,,,,,,0,note_off,,80.0,52.0,80.0,357120,372.0
3149,0.0,,,,,,52.0,,,,,,0,note_on,,95.0,52.0,95.0,357120,372.0
3150,0.0,,,,,,47.0,,,,,,0,note_on,,95.0,47.0,95.0,357120,372.0
3151,0.0,,,,,,40.0,,,,,,0,note_on,,95.0,40.0,95.0,357120,372.0
3152,0.0,,,,,,52.0,,,,,,240,note_off,,80.0,52.0,80.0,357360,372.25
3153,0.0,,,,,,47.0,,,,,,0,note_off,,80.0,47.0,80.0,357360,372.25
3154,0.0,,,,,,40.0,,,,,,0,note_off,,80.0,40.0,80.0,357360,372.25
3155,1.0,,,,,,55.0,,,,,,0,note_on,,95.0,55.0,95.0,357360,372.25
3156,1.0,,,,,,,,0.0,,,,0,pitchwheel,,,,,357360,372.25
3157,1.0,,,,,,,,256.0,,,,16,pitchwheel,,,,,357376,372.26666666666665
3158,1.0,,,,,,,,1152.0,,,,16,pitchwheel,,,,,357392,372.2833333333333
3159,1.0,,,,,,,,1408.0,,,,16,pitchwheel,,,,,357408,372.3
3160,1.0,,,,,,,,640.0,,,,48,pitchwheel,,,,,357456,372.35
3161,1.0,,,,,,,,128.0,,,,16,pitchwheel,,,,,357472,372.3666666666667
3162,1.0,,,,,,,,0.0,,,,16,pitchwheel,,,,,357488,372.3833333333333
3163,1.0,,,,,,55.0,,,,,,112,note_off,,80.0,55.0,80.0,357600,372.5
3164,1.0,,,,,,,,0.0,,,,0,pitchwheel,,,,,357600,372.5
3165,0.0,,,,,,55.0,,,,,,0,note_on,,95.0,55.0,95.0,357600,372.5
3166,0.0,,,,,,55.0,,,,,,120,note_off,,80.0,55.0,80.0,357720,372.625
3167,0.0,,,,,,54.0,,,,,,0,note_on,,95.0,54.0,95.0,357720,372.625
3168,0.0,,,,,,54.0,,,,,,120,note_off,,80.0,54.0,80.0,357840,372.75
3169,0.0,,,,,,50.0,,,,,,0,note_on,,95.0,50.0,95.0,357840,372.75
3170,0.0,,,,,,50.0,,,,,,120,note_off,,80.0,50.0,80.0,357960,372.875
3171,0.0,,,,,,50.0,,,,,,0,note_on,,95.0,50.0,95.0,357960,372.875
3172,0.0,,,,,,50.0,,,,,,240,note_off,,80.0,50.0,80.0,358200,373.125
3173,0.0,,,,,,49.0,,,,,,0,note_on,,95.0,49.0,95.0,358200,373.125
3174,0.0,,,,,,49.0,,,,,,120,note_off,,80.0,49.0,80.0,358320,373.25
3175,0.0,,,,,,45.0,,,,,,0,note_on,,95.0,45.0,95.0,358320,373.25
3176,0.0,,,,,,45.0,,,,,,240,note_off,,80.0,45.0,80.0,358560,373.5
3177,0.0,,,,,,52.0,,,,,,0,note_on,,95.0,52.0,95.0,358560,373.5
3178,0.0,,,,,,47.0,,,,,,0,note_on,,95.0,47.0,95.0,358560,373.5
3179,0.0,,,,,,40.0,,,,,,0,note_on,,95.0,40.0,95.0,358560,373.5
3180,0.0,,,,,,52.0,,,,,,20,note_off,,80.0,52.0,80.0,358580,373.5208333333333
3181,0.0,,,,,,47.0,,,,,,0,note_off,,80.0,47.0,80.0,358580,373.5208333333333
3182,0.0,,,,,,40.0,,,,,,0,note_off,,80.0,40.0,80.0,358580,373.5208333333333
3183,0.0,,,,,,55.0,,,,,,100,note_on,,95.0,55.0,95.0,358680,373.625
3184,0.0,,,,,,50.0,,,,,,0,note_on,,95.0,50.0,95.0,358680,373.625
3185,0.0,,,,,,43.0,,,,,,0,note_on,,95.0,43.0,95.0,358680,373.625
3186,0.0,,,,,,55.0,,,,,,360,note_off,,80.0,55.0,80.0,359040,374.0
3187,0.0,,,,,,50.0,,,,,,0,note_off,,80.0,50.0,80.0,359040,374.0
3188,0.0,,,,,,43.0,,,,,,0,note_off,,80.0,43.0,80.0,359040,374.0
3189,0.0,,,,,,52.0,,,,,,0,note_on,,95.0,52.0,95.0,359040,374.0
3190,0.0,,,,,,47.0,,,,,,0,note_on,,95.0,47.0,95.0,359040,374.0
3191,0.0,,,,,,40.0,,,,,,0,note_on,,95.0,40.0,95.0,359040,374.0
3192,0.0,,,,,,52.0,,,,,,240,note_off,,80.0,52.0,80.0,359280,374.25
3193,0.0,,,,,,47.0,,,,,,0,note_off,,80.0,47.0,80.0,359280,374.25
3194,0.0,,,,,,40.0,,,,,,0,note_off,,80.0,40.0,80.0,359280,374.25
3195,1.0,,,,,,55.0,,,,,,0,note_on,,95.0,55.0,95.0,359280,374.25
3196,1.0,,,,,,,,0.0,,,,0,pitchwheel,,,,,359280,374.25
3197,1.0,,,,,,,,256.0,,,,16,pitchwheel,,,,,359296,374.26666666666665
3198,1.0,,,,,,,,1152.0,,,,16,pitchwheel,,,,,359312,374.2833333333333
3199,1.0,,,,,,,,1408.0,,,,16,pitchwheel,,,,,359328,374.3
3200,1.0,,,,,,,,640.0,,,,48,pitchwheel,,,,,359376,374.35
3201,1.0,,,,,,,,128.0,,,,16,pitchwheel,,,,,359392,374.3666666666667
3202,1.0,,,,,,,,0.0,,,,16,pitchwheel,,,,,359408,374.3833333333333
3203,1.0,,,,,,55.0,,,,,,112,note_off,,80.0,55.0,80.0,359520,374.5
3204,1.0,,,,,,,,0.0,,,,0,pitchwheel,,,,,359520,374.5
3205,0.0,,,,,,55.0,,,,,,0,note_on,,95.0,55.0,95.0,359520,374.5
3206,0.0,,,,,,55.0,,,,,,120,note_off,,80.0,55.0,80.0,359640,374.625
3207,0.0,,,,,,54.0,,,,,,0,note_on,,95.0,54.0,95.0,359640,374.625
3208,0.0,,,,,,54.0,,,,,,120,note_off,,80.0,54.0,80.0,359760,374.75
3209,0.0,,,,,,50.0,,,,,,0,note_on,,95.0,50.0,95.0,359760,374.75
3210,0.0,,,,,,50.0,,,,,,120,note_off,,80.0,50.0,80.0,359880,374.875
3211,0.0,,,,,,62.0,,,,,,0,note_on,,95.0,62.0,95.0,359880,374.875
3212,0.0,,,,,,62.0,,,,,,240,note_off,,80.0,62.0,80.0,360120,375.125
3213,0.0,,,,,,61.0,,,,,,0,note_on,,95.0,61.0,95.0,360120,375.125
3214,0.0,,,,,,61.0,,,,,,120,note_off,,80.0,61.0,80.0,360240,375.25
3215,0.0,,,,,,57.0,,,,,,0,note_on,,95.0,57.0,95.0,360240,375.25
3216,0.0,,,,,,57.0,,,,,,240,note_off,,80.0,57.0,80.0,360480,375.5
3217,0.0,,,,,,52.0,,,,,,0,note_on,,95.0,52.0,95.0,360480,375.5
3218,0.0,,,,,,47.0,,,,,,0,note_on,,95.0,47.0,95.0,360480,375.5
3219,0.0,,,,,,40.0,,,,,,0,note_on,,95.0,40.0,95.0,360480,375.5
3220,0.0,,,,,,52.0,,,,,,120,note_off,,80.0,52.0,80.0,360600,375.625
3221,0.0,,,,,,47.0,,,,,,0,note_off,,80.0,47.0,80.0,360600,375.625
3222,0.0,,,,,,40.0,,,,,,0,note_off,,80.0,40.0,80.0,360600,375.625
3223,0.0,,,,,,55.0,,,,,,0,note_on,,95.0,55.0,95.0,360600,375.625
3224,0.0,,,,,,50.0,,,,,,0,note_on,,95.0,50.0,95.0,360600,375.625
3225,0.0,,,,,,43.0,,,,,,0,note_on,,95.0,43.0,95.0,360600,375.625
3226,0.0,,,,,,55.0,,,,,,360,note_off,,80.0,55.0,80.0,360960,376.0
3227,0.0,,,,,,50.0,,,,,,0,note_off,,80.0,50.0,80.0,360960,376.0
3228,0.0,,,,,,43.0,,,,,,0,note_off,,80.0,43.0,80.0,360960,376.0
3229,0.0,,,,,,52.0,,,,,,0,note_on,,95.0,52.0,95.0,360960,376.0
3230,0.0,,,,,,47.0,,,,,,0,note_on,,95.0,47.0,95.0,360960,376.0
3231,0.0,,,,,,40.0,,,,,,0,note_on,,95.0,40.0,95.0,360960,376.0
3232,0.0,,,,,,52.0,,,,,,240,note_off,,80.0,52.0,80.0,361200,376.25
3233,0.0,,,,,,47.0,,,,,,0,note_off,,80.0,47.0,80.0,361200,376.25
3234,0.0,,,,,,40.0,,,,,,0,note_off,,80.0,40.0,80.0,361200,376.25
3235,1.0,,,,,,55.0,,,,,,0,note_on,,95.0,55.0,95.0,361200,376.25
3236,1.0,,,,,,,,0.0,,,,0,pitchwheel,,,,,361200,376.25
3237,1.0,,,,,,,,256.0,,,,16,pitchwheel,,,,,361216,376.26666666666665
3238,1.0,,,,,,,,1152.0,,,,16,pitchwheel,,,,,361232,376.2833333333333
3239,1.0,,,,,,,,1408.0,,,,16,pitchwheel,,,,,361248,376.3
3240,1.0,,,,,,,,640.0,,,,48,pitchwheel,,,,,361296,376.35
3241,1.0,,,,,,,,128.0,,,,16,pitchwheel,,,,,361312,376.3666666666667
3242,1.0,,,,,,,,0.0,,,,16,pitchwheel,,,,,361328,376.3833333333333
3243,1.0,,,,,,55.0,,,,,,112,note_off,,80.0,55.0,80.0,361440,376.5
3244,1.0,,,,,,,,0.0,,,,0,pitchwheel,,,,,361440,376.5
3245,0.0,,,,,,55.0,,,,,,0,note_on,,95.0,55.0,95.0,361440,376.5
3246,0.0,,,,,,55.0,,,,,,120,note_off,,80.0,55.0,80.0,361560,376.625
3247,0.0,,,,,,54.0,,,,,,0,note_on,,95.0,54.0,95.0,361560,376.625
3248,0.0,,,,,,54.0,,,,,,120,note_off,,80.0,54.0,80.0,361680,376.75
3249,0.0,,,,,,50.0,,,,,,0,note_on,,95.0,50.0,95.0,361680,376.75
3250,0.0,,,,,,50.0,,,,,,120,note_off,,80.0,50.0,80.0,361800,376.875
3251,0.0,,,,,,50.0,,,,,,0,note_on,,95.0,50.0,95.0,361800,376.875
3252,0.0,,,,,,50.0,,,,,,240,note_off,,80.0,50.0,80.0,362040,377.125
3253,0.0,,,,,,49.0,,,,,,0,note_on,,95.0,49.0,95.0,362040,377.125
3254,0.0,,,,,,49.0,,,,,,120,note_off,,80.0,49.0,80.0,362160,377.25
3255,0.0,,,,,,45.0,,,,,,0,note_on,,95.0,45.0,95.0,362160,377.25
3256,0.0,,,,,,45.0,,,,,,240,note_off,,80.0,45.0,80.0,362400,377.5
3257,0.0,,,,,,52.0,,,,,,0,note_on,,95.0,52.0,95.0,362400,377.5
3258,0.0,,,,,,47.0,,,,,,0,note_on,,95.0,47.0,95.0,362400,377.5
3259,0.0,,,,,,40.0,,,,,,0,note_on,,95.0,40.0,95.0,362400,377.5
3260,0.0,,,,,,52.0,,,,,,120,note_off,,80.0,52.0,80.0,362520,377.625
3261,0.0,,,,,,47.0,,,,,,0,note_off,,80.0,47.0,80.0,362520,377.625
3262,0.0,,,,,,40.0,,,,,,0,note_off,,80.0,40.0,80.0,362520,377.625
3263,0.0,,,,,,55.0,,,,,,0,note_on,,95.0,55.0,95.0,362520,377.625
3264,0.0,,,,,,50.0,,,,,,0,note_on,,95.0,50.0,95.0,362520,377.625
3265,0.0,,,,,,43.0,,,,,,0,note_on,,95.0,43.0,95.0,362520,377.625
3266,0.0,,,,,,55.0,,,,,,360,note_off,,80.0,55.0,80.0,362880,378.0
3267,0.0,,,,,,50.0,,,,,,0,note_off,,80.0,50.0,80.0,362880,378.0
3268,0.0,,,,,,43.0,,,,,,0,note_off,,80.0,43.0,80.0,362880,378.0
3269,0.0,,,,,,52.0,,,,,,0,note_on,,95.0,52.0,95.0,362880,378.0
3270,0.0,,,,,,47.0,,,,,,0,note_on,,95.0,47.0,95.0,362880,378.0
3271,0.0,,,,,,40.0,,,,,,0,note_on,,95.0,40.0,95.0,362880,378.0
3272,0.0,,,,,,52.0,,,,,,240,note_off,,80.0,52.0,80.0,363120,378.25
3273,0.0,,,,,,47.0,,,,,,0,note_off,,80.0,47.0,80.0,363120,378.25
3274,0.0,,,,,,40.0,,,,,,0,note_off,,80.0,40.0,80.0,363120,378.25
3275,1.0,,,,,,55.0,,,,,,0,note_on,,95.0,55.0,95.0,363120,378.25
3276,1.0,,,,,,,,0.0,,,,0,pitchwheel,,,,,363120,378.25
3277,1.0,,,,,,,,256.0,,,,16,pitchwheel,,,,,363136,378.26666666666665
3278,1.0,,,,,,,,1152.0,,,,16,pitchwheel,,,,,363152,378.2833333333333
3279,1.0,,,,,,,,1408.0,,,,16,pitchwheel,,,,,363168,378.3
3280,1.0,,,,,,,,640.0,,,,48,pitchwheel,,,,,363216,378.35
3281,1.0,,,,,,,,128.0,,,,16,pitchwheel,,,,,363232,378.3666666666667
3282,1.0,,,,,,,,0.0,,,,16,pitchwheel,,,,,363248,378.3833333333333
3283,1.0,,,,,,55.0,,,,,,112,note_off,,80.0,55.0,80.0,363360,378.5
3284,1.0,,,,,,,,0.0,,,,0,pitchwheel,,,,,363360,378.5
3285,0.0,,,,,,55.0,,,,,,0,note_on,,95.0,55.0,95.0,363360,378.5
3286,0.0,,,,,,55.0,,,,,,120,note_off,,80.0,55.0,80.0,363480,378.625
3287,0.0,,,,,,54.0,,,,,,0,note_on,,95.0,54.0,95.0,363480,378.625
3288,0.0,,,,,,54.0,,,,,,120,note_off,,80.0,54.0,80.0,363600,378.75
3289,0.0,,,,,,50.0,,,,,,0,note_on,,95.0,50.0,95.0,363600,378.75
3290,0.0,,,,,,50.0,,,,,,120,note_off,,80.0,50.0,80.0,363720,378.875
3291,0.0,,,,,,62.0,,,,,,0,note_on,,95.0,62.0,95.0,363720,378.875
3292,0.0,,,,,,57.0,,,,,,0,note_on,,95.0,57.0,95.0,363720,378.875
3293,0.0,,,,,,50.0,,,,,,0,note_on,,95.0,50.0,95.0,363720,378.875
3294,0.0,,,,,,62.0,,,,,,240,note_off,,80.0,62.0,80.0,363960,379.125
3295,0.0,,,,,,57.0,,,,,,0,note_off,,80.0,57.0,80.0,363960,379.125
3296,0.0,,,,,,50.0,,,,,,0,note_off,,80.0,50.0,80.0,363960,379.125
3297,0.0,,,,,,64.0,,,,,,0,note_on,,95.0,64.0,95.0,363960,379.125
3298,0.0,,,,,,59.0,,,,,,0,note_on,,95.0,59.0,95.0,363960,379.125
3299,0.0,,,,,,52.0,,,,,,0,note_on,,95.0,52.0,95.0,363960,379.125
3300,0.0,,,,,,64.0,,,,,,240,note_off,,80.0,64.0,80.0,364200,379.375
3301,0.0,,,,,,59.0,,,,,,0,note_off,,80.0,59.0,80.0,364200,379.375
3302,0.0,,,,,,52.0,,,,,,0,note_off,,80.0,52.0,80.0,364200,379.375
3303,0.0,,,,,,62.0,,,,,,0,note_on,,95.0,62.0,95.0,364200,379.375
3304,0.0,,,,,,57.0,,,,,,0,note_on,,95.0,57.0,95.0,364200,379.375
3305,0.0,,,,,,50.0,,,,,,0,note_on,,95.0,50.0,95.0,364200,379.375
3306,0.0,,,,,,62.0,,,,,,120,note_off,,80.0,62.0,80.0,364320,379.5
3307,0.0,,,,,,57.0,,,,,,0,note_off,,80.0,57.0,80.0,364320,379.5
3308,0.0,,,,,,50.0,,,,,,0,note_off,,80.0,50.0,80.0,364320,379.5
3309,0.0,,,,,,64.0,,,,,,0,note_on,,95.0,64.0,95.0,364320,379.5
3310,0.0,,,,,,59.0,,,,,,0,note_on,,95.0,59.0,95.0,364320,379.5
3311,0.0,,,,,,52.0,,,,,,0,note_on,,95.0,52.0,95.0,364320,379.5
3312,0.0,,,,,,64.0,,,,,,480,note_off,,80.0,64.0,80.0,364800,380.0
3313,0.0,,,,,,59.0,,,,,,0,note_off,,80.0,59.0,80.0,364800,380.0
3314,0.0,,,,,,52.0,,,,,,0,note_off,,80.0,52.0,80.0,364800,380.0
3315,,,,,,,,,,,,,0,end_of_track,,,,,364800,380.0
3316,,,,,Track 2,,,,,,,,0,track_name,,,,,364800,380.0
3317,3.0,,100.0,,,,,,,,,,0,control_change,0.0,,,,364800,380.0
3318,3.0,,101.0,,,,,,,,,,0,control_change,0.0,,,,364800,380.0
3319,3.0,,6.0,,,,,,,,,,0,control_change,12.0,,,,364800,380.0
3320,3.0,,,,,,,,0.0,,,,0,pitchwheel,,,,,364800,380.0
3321,3.0,,101.0,,,,,,,,,,0,control_change,0.0,,,,364800,380.0
3322,3.0,,100.0,,,,,,,,,,0,control_change,1.0,,,,364800,380.0
3323,3.0,,6.0,,,,,,,,,,0,control_change,64.0,,,,364800,380.0
3324,3.0,,38.0,,,,,,,,,,0,control_change,0.0,,,,364800,380.0
3325,3.0,,101.0,,,,,,,,,,0,control_change,127.0,,,,364800,380.0
3326,3.0,,100.0,,,,,,,,,,0,control_change,127.0,,,,364800,380.0
3327,2.0,,100.0,,,,,,,,,,0,control_change,0.0,,,,364800,380.0
3328,2.0,,101.0,,,,,,,,,,0,control_change,0.0,,,,364800,380.0
3329,2.0,,6.0,,,,,,,,,,0,control_change,12.0,,,,364800,380.0
3330,2.0,,,,,,,,0.0,,,,0,pitchwheel,,,,,364800,380.0
3331,2.0,,101.0,,,,,,,,,,0,control_change,0.0,,,,364800,380.0
3332,2.0,,100.0,,,,,,,,,,0,control_change,1.0,,,,364800,380.0
3333,2.0,,6.0,,,,,,,,,,0,control_change,64.0,,,,364800,380.0
3334,2.0,,38.0,,,,,,,,,,0,control_change,0.0,,,,364800,380.0
3335,2.0,,101.0,,,,,,,,,,0,control_change,127.0,,,,364800,380.0
3336,2.0,,100.0,,,,,,,,,,0,control_change,127.0,,,,364800,380.0
3337,3.0,,101.0,,,,,,,,,,0,control_change,0.0,,,,364800,380.0
3338,3.0,,100.0,,,,,,,,,,0,control_change,2.0,,,,364800,380.0
3339,3.0,,6.0,,,,,,,,,,0,control_change,64.0,,,,364800,380.0
3340,3.0,,101.0,,,,,,,,,,0,control_change,127.0,,,,364800,380.0
3341,3.0,,100.0,,,,,,,,,,0,control_change,127.0,,,,364800,380.0
3342,2.0,,101.0,,,,,,,,,,0,control_change,0.0,,,,364800,380.0
3343,2.0,,100.0,,,,,,,,,,0,control_change,2.0,,,,364800,380.0
3344,2.0,,6.0,,,,,,,,,,0,control_change,64.0,,,,364800,380.0
3345,2.0,,101.0,,,,,,,,,,0,control_change,127.0,,,,364800,380.0
3346,2.0,,100.0,,,,,,,,,,0,control_change,127.0,,,,364800,380.0
3347,3.0,,,,,,,,,81.0,,,0,program_change,,,,,364800,380.0
3348,2.0,,,,,,,,,81.0,,,0,program_change,,,,,364800,380.0
3349,3.0,,0.0,,,,,,,,,,0,control_change,0.0,,,,364800,380.0
3350,2.0,,0.0,,,,,,,,,,0,control_change,0.0,,,,364800,380.0
3351,3.0,,7.0,,,,,,,,,,0,control_change,104.0,,,,364800,380.0
3352,2.0,,7.0,,,,,,,,,,0,control_change,104.0,,,,364800,380.0
3353,3.0,,10.0,,,,,,,,,,0,control_change,64.0,,,,364800,380.0
3354,2.0,,10.0,,,,,,,,,,0,control_change,64.0,,,,364800,380.0
3355,3.0,,93.0,,,,,,,,,,0,control_change,0.0,,,,364800,380.0
3356,2.0,,93.0,,,,,,,,,,0,control_change,0.0,,,,364800,380.0
3357,3.0,,91.0,,,,,,,,,,0,control_change,0.0,,,,364800,380.0
3358,2.0,,91.0,,,,,,,,,,0,control_change,0.0,,,,364800,380.0
3359,3.0,,92.0,,,,,,,,,,0,control_change,0.0,,,,364800,380.0
3360,2.0,,92.0,,,,,,,,,,0,control_change,0.0,,,,364800,380.0
3361,3.0,,95.0,,,,,,,,,,0,control_change,0.0,,,,364800,380.0
3362,2.0,,95.0,,,,,,,,,,0,control_change,0.0,,,,364800,380.0
3363,2.0,,,,,,40.0,,,,,,1440,note_on,,95.0,40.0,95.0,366240,381.5
3364,2.0,,,,,,40.0,,,,,,80,note_off,,80.0,40.0,80.0,366320,381.5833333333333
3365,2.0,,,,,,42.0,,,,,,0,note_on,,95.0,42.0,95.0,366320,381.5833333333333
3366,2.0,,,,,,42.0,,,,,,80,note_off,,80.0,42.0,80.0,366400,381.6666666666667
3367,2.0,,,,,,43.0,,,,,,0,note_on,,95.0,43.0,95.0,366400,381.6666666666667
3368,2.0,,,,,,43.0,,,,,,80,note_off,,80.0,43.0,80.0,366480,381.75
3369,2.0,,,,,,45.0,,,,,,0,note_on,,95.0,45.0,95.0,366480,381.75
3370,2.0,,,,,,45.0,,,,,,120,note_off,,80.0,45.0,80.0,366600,381.875
3371,2.0,,,,,,47.0,,,,,,0,note_on,,95.0,47.0,95.0,366600,381.875
3372,2.0,,,,,,47.0,,,,,,120,note_off,,80.0,47.0,80.0,366720,382.0
3373,2.0,,,,,,42.0,,,,,,0,note_on,,95.0,42.0,95.0,366720,382.0
3374,2.0,,,,,,42.0,,,,,,480,note_off,,80.0,42.0,80.0,367200,382.5
3375,2.0,,,,,,40.0,,,,,,0,note_on,,95.0,40.0,95.0,367200,382.5
3376,2.0,,,,,,40.0,,,,,,1680,note_off,,80.0,40.0,80.0,368880,384.25
3377,2.0,,,,,,52.0,,,,,,0,note_on,,95.0,52.0,95.0,368880,384.25
3378,2.0,,,,,,52.0,,,,,,120,note_off,,80.0,52.0,80.0,369000,384.375
3379,2.0,,,,,,50.0,,,,,,0,note_on,,95.0,50.0,95.0,369000,384.375
3380,2.0,,,,,,50.0,,,,,,360,note_off,,80.0,50.0,80.0,369360,384.75
3381,2.0,,,,,,52.0,,,,,,0,note_on,,95.0,52.0,95.0,369360,384.75
3382,2.0,,,,,,52.0,,,,,,240,note_off,,80.0,52.0,80.0,369600,385.0
3383,2.0,,,,,,52.0,,,,,,0,note_on,,95.0,52.0,95.0,369600,385.0
3384,2.0,,,,,,52.0,,,,,,120,note_off,,80.0,52.0,80.0,369720,385.125
3385,2.0,,,,,,50.0,,,,,,0,note_on,,95.0,50.0,95.0,369720,385.125
3386,2.0,,,,,,50.0,,,,,,360,note_off,,80.0,50.0,80.0,370080,385.5
3387,2.0,,,,,,47.0,,,,,,0,note_on,,95.0,47.0,95.0,370080,385.5
3388,2.0,,,,,,47.0,,,,,,120,note_off,,80.0,47.0,80.0,370200,385.625
3389,2.0,,,,,,45.0,,,,,,0,note_on,,95.0,45.0,95.0,370200,385.625
3390,2.0,,,,,,45.0,,,,,,360,note_off,,80.0,45.0,80.0,370560,386.0
3391,2.0,,,,,,40.0,,,,,,360,note_on,,95.0,40.0,95.0,370920,386.375
3392,2.0,,,,,,40.0,,,,,,240,note_off,,80.0,40.0,80.0,371160,386.625
3393,2.0,,,,,,40.0,,,,,,0,note_on,,95.0,40.0,95.0,371160,386.625
3394,2.0,,,,,,40.0,,,,,,80,note_off,,80.0,40.0,80.0,371240,386.7083333333333
3395,2.0,,,,,,42.0,,,,,,0,note_on,,95.0,42.0,95.0,371240,386.7083333333333
3396,2.0,,,,,,42.0,,,,,,80,note_off,,80.0,42.0,80.0,371320,386.7916666666667
3397,2.0,,,,,,43.0,,,,,,0,note_on,,95.0,43.0,95.0,371320,386.7916666666667
3398,2.0,,,,,,43.0,,,,,,80,note_off,,80.0,43.0,80.0,371400,386.875
3399,2.0,,,,,,45.0,,,,,,0,note_on,,95.0,45.0,95.0,371400,386.875
3400,2.0,,,,,,45.0,,,,,,120,note_off,,80.0,45.0,80.0,371520,387.0
3401,2.0,,,,,,48.0,,,,,,0,note_on,,95.0,48.0,95.0,371520,387.0
3402,2.0,,,,,,48.0,,,,,,240,note_off,,80.0,48.0,80.0,371760,387.25
3403,2.0,,,,,,45.0,,,,,,0,note_on,,95.0,45.0,95.0,371760,387.25
3404,2.0,,,,,,45.0,,,,,,120,note_off,,80.0,45.0,80.0,371880,387.375
3405,2.0,,,,,,42.0,,,,,,0,note_on,,95.0,42.0,95.0,371880,387.375
3406,2.0,,,,,,42.0,,,,,,240,note_off,,80.0,42.0,80.0,372120,387.625
3407,2.0,,,,,,40.0,,,,,,0,note_on,,95.0,40.0,95.0,372120,387.625
3408,2.0,,,,,,40.0,,,,,,360,note_off,,80.0,40.0,80.0,372480,388.0
3409,2.0,,,,,,50.0,,,,,,240,note_on,,95.0,50.0,95.0,372720,388.25
3410,2.0,,,,,,50.0,,,,,,120,note_off,,80.0,50.0,80.0,372840,388.375
3411,2.0,,,,,,52.0,,,,,,0,note_on,,95.0,52.0,95.0,372840,388.375
3412,2.0,,,,,,52.0,,,,,,80,note_off,,80.0,52.0,80.0,372920,388.4583333333333
3413,2.0,,,,,,54.0,,,,,,0,note_on,,95.0,54.0,95.0,372920,388.4583333333333
3414,2.0,,,,,,54.0,,,,,,80,note_off,,80.0,54.0,80.0,373000,388.5416666666667
3415,2.0,,,,,,52.0,,,,,,0,note_on,,95.0,52.0,95.0,373000,388.5416666666667
3416,2.0,,,,,,52.0,,,,,,80,note_off,,80.0,52.0,80.0,373080,388.625
3417,2.0,,,,,,50.0,,,,,,0,note_on,,95.0,50.0,95.0,373080,388.625
3418,2.0,,,,,,50.0,,,,,,120,note_off,,80.0,50.0,80.0,373200,388.75
3419,2.0,,,,,,52.0,,,,,,0,note_on,,95.0,52.0,95.0,373200,388.75
3420,2.0,,,,,,52.0,,,,,,240,note_off,,80.0,52.0,80.0,373440,389.0
3421,2.0,,,,,,50.0,,,,,,0,note_on,,95.0,50.0,95.0,373440,389.0
3422,2.0,,,,,,50.0,,,,,,240,note_off,,80.0,50.0,80.0,373680,389.25
3423,2.0,,,,,,47.0,,,,,,0,note_on,,95.0,47.0,95.0,373680,389.25
3424,2.0,,,,,,47.0,,,,,,240,note_off,,80.0,47.0,80.0,373920,389.5
3425,2.0,,,,,,45.0,,,,,,0,note_on,,95.0,45.0,95.0,373920,389.5
3426,2.0,,,,,,45.0,,,,,,120,note_off,,80.0,45.0,80.0,374040,389.625
3427,2.0,,,,,,47.0,,,,,,0,note_on,,95.0,47.0,95.0,374040,389.625
3428,2.0,,,,,,47.0,,,,,,240,note_off,,80.0,47.0,80.0,374280,389.875
3429,2.0,,,,,,50.0,,,,,,360,note_on,,95.0,50.0,95.0,374640,390.25
3430,2.0,,,,,,50.0,,,,,,120,note_off,,80.0,50.0,80.0,374760,390.375
3431,2.0,,,,,,52.0,,,,,,0,note_on,,95.0,52.0,95.0,374760,390.375
3432,2.0,,,,,,52.0,,,,,,80,note_off,,80.0,52.0,80.0,374840,390.4583333333333
3433,2.0,,,,,,54.0,,,,,,0,note_on,,95.0,54.0,95.0,374840,390.4583333333333
3434,2.0,,,,,,54.0,,,,,,80,note_off,,80.0,54.0,80.0,374920,390.5416666666667
3435,2.0,,,,,,52.0,,,,,,0,note_on,,95.0,52.0,95.0,374920,390.5416666666667
3436,2.0,,,,,,52.0,,,,,,80,note_off,,80.0,52.0,80.0,375000,390.625
3437,2.0,,,,,,57.0,,,,,,0,note_on,,95.0,57.0,95.0,375000,390.625
3438,2.0,,,,,,57.0,,,,,,120,note_off,,80.0,57.0,80.0,375120,390.75
3439,2.0,,,,,,59.0,,,,,,0,note_on,,95.0,59.0,95.0,375120,390.75
3440,2.0,,,,,,59.0,,,,,,240,note_off,,80.0,59.0,80.0,375360,391.0
3441,2.0,,,,,,57.0,,,,,,0,note_on,,95.0,57.0,95.0,375360,391.0
3442,2.0,,,,,,57.0,,,,,,360,note_off,,80.0,57.0,80.0,375720,391.375
3443,2.0,,,,,,55.0,,,,,,120,note_on,,95.0,55.0,95.0,375840,391.5
3444,2.0,,,,,,55.0,,,,,,80,note_off,,80.0,55.0,80.0,375920,391.5833333333333
3445,2.0,,,,,,57.0,,,,,,0,note_on,,95.0,57.0,95.0,375920,391.5833333333333
3446,2.0,,,,,,57.0,,,,,,80,note_off,,80.0,57.0,80.0,376000,391.6666666666667
3447,2.0,,,,,,55.0,,,,,,0,note_on,,95.0,55.0,95.0,376000,391.6666666666667
3448,2.0,,,,,,55.0,,,,,,80,note_off,,80.0,55.0,80.0,376080,391.75
3449,2.0,,,,,,55.0,,,,,,0,note_on,,95.0,55.0,95.0,376080,391.75
3450,2.0,,,,,,55.0,,,,,,240,note_off,,80.0,55.0,80.0,376320,392.0
3451,2.0,,,,,,54.0,,,,,,0,note_on,,95.0,54.0,95.0,376320,392.0
3452,2.0,,,,,,54.0,,,,,,80,note_off,,80.0,54.0,80.0,376400,392.0833333333333
3453,2.0,,,,,,55.0,,,,,,0,note_on,,95.0,55.0,95.0,376400,392.0833333333333
3454,2.0,,,,,,55.0,,,,,,80,note_off,,80.0,55.0,80.0,376480,392.1666666666667
3455,2.0,,,,,,54.0,,,,,,0,note_on,,95.0,54.0,95.0,376480,392.1666666666667
3456,2.0,,,,,,54.0,,,,,,80,note_off,,80.0,54.0,80.0,376560,392.25
3457,2.0,,,,,,52.0,,,,,,0,note_on,,95.0,52.0,95.0,376560,392.25
3458,2.0,,,,,,52.0,,,,,,240,note_off,,80.0,52.0,80.0,376800,392.5
3459,2.0,,,,,,52.0,,,,,,0,note_on,,95.0,52.0,95.0,376800,392.5
3460,2.0,,,,,,52.0,,,,,,80,note_off,,80.0,52.0,80.0,376880,392.5833333333333
3461,2.0,,,,,,54.0,,,,,,0,note_on,,95.0,54.0,95.0,376880,392.5833333333333
3462,2.0,,,,,,54.0,,,,,,80,note_off,,80.0,54.0,80.0,376960,392.6666666666667
3463,2.0,,,,,,52.0,,,,,,0,note_on,,95.0,52.0,95.0,376960,392.6666666666667
3464,2.0,,,,,,52.0,,,,,,80,note_off,,80.0,52.0,80.0,377040,392.75
3465,2.0,,,,,,50.0,,,,,,0,note_on,,95.0,50.0,95.0,377040,392.75
3466,2.0,,,,,,50.0,,,,,,240,note_off,,80.0,50.0,80.0,377280,393.0
3467,2.0,,,,,,50.0,,,,,,0,note_on,,95.0,50.0,95.0,377280,393.0
3468,2.0,,,,,,50.0,,,,,,80,note_off,,80.0,50.0,80.0,377360,393.0833333333333
3469,2.0,,,,,,52.0,,,,,,0,note_on,,95.0,52.0,95.0,377360,393.0833333333333
3470,2.0,,,,,,52.0,,,,,,80,note_off,,80.0,52.0,80.0,377440,393.1666666666667
3471,2.0,,,,,,50.0,,,,,,0,note_on,,95.0,50.0,95.0,377440,393.1666666666667
3472,2.0,,,,,,50.0,,,,,,240,note_off,,80.0,50.0,80.0,377680,393.4166666666667
3473,2.0,,,,,,47.0,,,,,,0,note_on,,95.0,47.0,95.0,377680,393.4166666666667
3474,2.0,,,,,,47.0,,,,,,120,note_off,,80.0,47.0,80.0,377800,393.5416666666667
3475,2.0,,,,,,45.0,,,,,,0,note_on,,95.0,45.0,95.0,377800,393.5416666666667
3476,2.0,,,,,,45.0,,,,,,160,note_off,,80.0,45.0,80.0,377960,393.7083333333333
3477,2.0,,,,,,52.0,,,,,,520,note_on,,95.0,52.0,95.0,378480,394.25
3478,2.0,,,,,,52.0,,,,,,120,note_off,,80.0,52.0,80.0,378600,394.375
3479,2.0,,,,,,54.0,,,,,,0,note_on,,95.0,54.0,95.0,378600,394.375
3480,2.0,,,,,,54.0,,,,,,120,note_off,,80.0,54.0,80.0,378720,394.5
3481,2.0,,,,,,55.0,,,,,,0,note_on,,95.0,55.0,95.0,378720,394.5
3482,2.0,,,,,,55.0,,,,,,160,note_off,,80.0,55.0,80.0,378880,394.6666666666667
3483,2.0,,,,,,54.0,,,,,,0,note_on,,95.0,54.0,95.0,378880,394.6666666666667
3484,2.0,,,,,,54.0,,,,,,160,note_off,,80.0,54.0,80.0,379040,394.8333333333333
3485,2.0,,,,,,52.0,,,,,,0,note_on,,95.0,52.0,95.0,379040,394.8333333333333
3486,2.0,,,,,,52.0,,,,,,160,note_off,,80.0,52.0,80.0,379200,395.0
3487,2.0,,,,,,50.0,,,,,,0,note_on,,95.0,50.0,95.0,379200,395.0
3488,2.0,,,,,,50.0,,,,,,320,note_off,,80.0,50.0,80.0,379520,395.3333333333333
3489,2.0,,,,,,52.0,,,,,,0,note_on,,95.0,52.0,95.0,379520,395.3333333333333
3490,2.0,,,,,,52.0,,,,,,2560,note_off,,80.0,52.0,80.0,382080,398.0
3491,2.0,,,,,,40.0,,,,,,30720,note_on,,95.0,40.0,95.0,412800,430.0
3492,2.0,,,,,,40.0,,,,,,20,note_off,,80.0,40.0,80.0,412820,430.0208333333333
3493,2.0,,,,,,40.0,,,,,,49900,note_on,,95.0,40.0,95.0,462720,482.0
3494,2.0,,,,,,40.0,,,,,,20,note_off,,80.0,40.0,80.0,462740,482.0208333333333
3495,2.0,,,,,,40.0,,,,,,460,note_on,,95.0,40.0,95.0,463200,482.5
3496,2.0,,,,,,40.0,,,,,,20,note_off,,80.0,40.0,80.0,463220,482.5208333333333
3497,2.0,,,,,,40.0,,,,,,460,note_on,,95.0,40.0,95.0,463680,483.0
3498,2.0,,,,,,40.0,,,,,,20,note_off,,80.0,40.0,80.0,463700,483.0208333333333
3499,2.0,,,,,,40.0,,,,,,460,note_on,,95.0,40.0,95.0,464160,483.5
3500,2.0,,,,,,40.0,,,,,,20,note_off,,80.0,40.0,80.0,464180,483.5208333333333
3501,2.0,,,,,,40.0,,,,,,13900,note_on,,95.0,40.0,95.0,478080,498.0
3502,2.0,,,,,,40.0,,,,,,20,note_off,,80.0,40.0,80.0,478100,498.0208333333333
3503,2.0,,,,,,40.0,,,,,,460,note_on,,95.0,40.0,95.0,478560,498.5
3504,2.0,,,,,,40.0,,,,,,20,note_off,,80.0,40.0,80.0,478580,498.5208333333333
3505,2.0,,,,,,40.0,,,,,,460,note_on,,95.0,40.0,95.0,479040,499.0
3506,2.0,,,,,,40.0,,,,,,20,note_off,,80.0,40.0,80.0,479060,499.0208333333333
3507,2.0,,,,,,40.0,,,,,,460,note_on,,95.0,40.0,95.0,479520,499.5
3508,2.0,,,,,,40.0,,,,,,20,note_off,,80.0,40.0,80.0,479540,499.5208333333333
3509,2.0,,,,,,40.0,,,,,,25420,note_on,,95.0,40.0,95.0,504960,526.0
3510,2.0,,,,,,40.0,,,,,,20,note_off,,80.0,40.0,80.0,504980,526.0208333333334
3511,,,,,,,,,,,,,0,end_of_track,,,,,504980,526.0208333333334
3512,,,,,Percussion,,,,,,,,0,track_name,,,,,504980,526.0208333333334
3513,9.0,,100.0,,,,,,,,,,0,control_change,0.0,,,,504980,526.0208333333334
3514,9.0,,101.0,,,,,,,,,,0,control_change,0.0,,,,504980,526.0208333333334
3515,9.0,,6.0,,,,,,,,,,0,control_change,12.0,,,,504980,526.0208333333334
3516,9.0,,,,,,,,0.0,,,,0,pitchwheel,,,,,504980,526.0208333333334
3517,9.0,,101.0,,,,,,,,,,0,control_change,0.0,,,,504980,526.0208333333334
3518,9.0,,100.0,,,,,,,,,,0,control_change,1.0,,,,504980,526.0208333333334
3519,9.0,,6.0,,,,,,,,,,0,control_change,64.0,,,,504980,526.0208333333334
3520,9.0,,38.0,,,,,,,,,,0,control_change,0.0,,,,504980,526.0208333333334
3521,9.0,,101.0,,,,,,,,,,0,control_change,127.0,,,,504980,526.0208333333334
3522,9.0,,100.0,,,,,,,,,,0,control_change,127.0,,,,504980,526.0208333333334
3523,9.0,,,,,,,,,0.0,,,0,program_change,,,,,504980,526.0208333333334
3524,9.0,,0.0,,,,,,,,,,0,control_change,0.0,,,,504980,526.0208333333334
3525,9.0,,7.0,,,,,,,,,,0,control_change,127.0,,,,504980,526.0208333333334
3526,9.0,,10.0,,,,,,,,,,0,control_change,64.0,,,,504980,526.0208333333334
3527,9.0,,93.0,,,,,,,,,,0,control_change,0.0,,,,504980,526.0208333333334
3528,9.0,,91.0,,,,,,,,,,0,control_change,0.0,,,,504980,526.0208333333334
3529,9.0,,92.0,,,,,,,,,,0,control_change,0.0,,,,504980,526.0208333333334
3530,9.0,,95.0,,,,,,,,,,0,control_change,0.0,,,,504980,526.0208333333334
3531,9.0,,,,,,35.0,,,,,,1920,note_on,,127.0,35.0,127.0,506900,528.0208333333334
3532,9.0,,,,,,36.0,,,,,,0,note_on,,127.0,36.0,127.0,506900,528.0208333333334
3533,9.0,,,,,,35.0,,,,,,480,note_off,,80.0,35.0,80.0,507380,528.5208333333334
3534,9.0,,,,,,36.0,,,,,,0,note_off,,80.0,36.0,80.0,507380,528.5208333333334
3535,9.0,,,,,,35.0,,,,,,0,note_on,,127.0,35.0,127.0,507380,528.5208333333334
3536,9.0,,,,,,36.0,,,,,,0,note_on,,127.0,36.0,127.0,507380,528.5208333333334
3537,9.0,,,,,,35.0,,,,,,480,note_off,,80.0,35.0,80.0,507860,529.0208333333334
3538,9.0,,,,,,36.0,,,,,,0,note_off,,80.0,36.0,80.0,507860,529.0208333333334
3539,9.0,,,,,,35.0,,,,,,0,note_on,,127.0,35.0,127.0,507860,529.0208333333334
3540,9.0,,,,,,36.0,,,,,,0,note_on,,127.0,36.0,127.0,507860,529.0208333333334
3541,9.0,,,,,,35.0,,,,,,480,note_off,,80.0,35.0,80.0,508340,529.5208333333334
3542,9.0,,,,,,36.0,,,,,,0,note_off,,80.0,36.0,80.0,508340,529.5208333333334
3543,9.0,,,,,,35.0,,,,,,0,note_on,,127.0,35.0,127.0,508340,529.5208333333334
3544,9.0,,,,,,36.0,,,,,,0,note_on,,127.0,36.0,127.0,508340,529.5208333333334
3545,9.0,,,,,,35.0,,,,,,480,note_off,,80.0,35.0,80.0,508820,530.0208333333334
3546,9.0,,,,,,36.0,,,,,,0,note_off,,80.0,36.0,80.0,508820,530.0208333333334
3547,9.0,,,,,,35.0,,,,,,0,note_on,,127.0,35.0,127.0,508820,530.0208333333334
3548,9.0,,,,,,36.0,,,,,,0,note_on,,127.0,36.0,127.0,508820,530.0208333333334
3549,9.0,,,,,,35.0,,,,,,480,note_off,,80.0,35.0,80.0,509300,530.5208333333334
3550,9.0,,,,,,36.0,,,,,,0,note_off,,80.0,36.0,80.0,509300,530.5208333333334
3551,9.0,,,,,,35.0,,,,,,0,note_on,,127.0,35.0,127.0,509300,530.5208333333334
3552,9.0,,,,,,36.0,,,,,,0,note_on,,127.0,36.0,127.0,509300,530.5208333333334
3553,9.0,,,,,,35.0,,,,,,480,note_off,,80.0,35.0,80.0,509780,531.0208333333334
3554,9.0,,,,,,36.0,,,,,,0,note_off,,80.0,36.0,80.0,509780,531.0208333333334
3555,9.0,,,,,,35.0,,,,,,0,note_on,,127.0,35.0,127.0,509780,531.0208333333334
3556,9.0,,,,,,36.0,,,,,,0,note_on,,127.0,36.0,127.0,509780,531.0208333333334
3557,9.0,,,,,,35.0,,,,,,480,note_off,,80.0,35.0,80.0,510260,531.5208333333334
3558,9.0,,,,,,36.0,,,,,,0,note_off,,80.0,36.0,80.0,510260,531.5208333333334
3559,9.0,,,,,,46.0,,,,,,0,note_on,,111.0,46.0,111.0,510260,531.5208333333334
3560,9.0,,,,,,38.0,,,,,,0,note_on,,127.0,38.0,127.0,510260,531.5208333333334
3561,9.0,,,,,,46.0,,,,,,120,note_off,,80.0,46.0,80.0,510380,531.6458333333334
3562,9.0,,,,,,38.0,,,,,,0,note_off,,80.0,38.0,80.0,510380,531.6458333333334
3563,9.0,,,,,,57.0,,,,,,0,note_on,,111.0,57.0,111.0,510380,531.6458333333334
3564,9.0,,,,,,57.0,,,,,,360,note_off,,80.0,57.0,80.0,510740,532.0208333333334
3565,9.0,,,,,,57.0,,,,,,0,note_on,,111.0,57.0,111.0,510740,532.0208333333334
3566,9.0,,,,,,35.0,,,,,,0,note_on,,127.0,35.0,127.0,510740,532.0208333333334
3567,9.0,,,,,,36.0,,,,,,0,note_on,,127.0,36.0,127.0,510740,532.0208333333334
3568,9.0,,,,,,57.0,,,,,,480,note_off,,80.0,57.0,80.0,511220,532.5208333333334
3569,9.0,,,,,,35.0,,,,,,0,note_off,,80.0,35.0,80.0,511220,532.5208333333334
3570,9.0,,,,,,36.0,,,,,,0,note_off,,80.0,36.0,80.0,511220,532.5208333333334
3571,9.0,,,,,,35.0,,,,,,0,note_on,,127.0,35.0,127.0,511220,532.5208333333334
3572,9.0,,,,,,36.0,,,,,,0,note_on,,127.0,36.0,127.0,511220,532.5208333333334
3573,9.0,,,,,,35.0,,,,,,480,note_off,,80.0,35.0,80.0,511700,533.0208333333334
3574,9.0,,,,,,36.0,,,,,,0,note_off,,80.0,36.0,80.0,511700,533.0208333333334
3575,9.0,,,,,,35.0,,,,,,0,note_on,,127.0,35.0,127.0,511700,533.0208333333334
3576,9.0,,,,,,36.0,,,,,,0,note_on,,127.0,36.0,127.0,511700,533.0208333333334
3577,9.0,,,,,,35.0,,,,,,480,note_off,,80.0,35.0,80.0,512180,533.5208333333334
3578,9.0,,,,,,36.0,,,,,,0,note_off,,80.0,36.0,80.0,512180,533.5208333333334
3579,9.0,,,,,,35.0,,,,,,0,note_on,,127.0,35.0,127.0,512180,533.5208333333334
3580,9.0,,,,,,36.0,,,,,,0,note_on,,127.0,36.0,127.0,512180,533.5208333333334
3581,9.0,,,,,,35.0,,,,,,480,note_off,,80.0,35.0,80.0,512660,534.0208333333334
3582,9.0,,,,,,36.0,,,,,,0,note_off,,80.0,36.0,80.0,512660,534.0208333333334
3583,9.0,,,,,,35.0,,,,,,0,note_on,,127.0,35.0,127.0,512660,534.0208333333334
3584,9.0,,,,,,36.0,,,,,,0,note_on,,127.0,36.0,127.0,512660,534.0208333333334
3585,9.0,,,,,,35.0,,,,,,480,note_off,,80.0,35.0,80.0,513140,534.5208333333334
3586,9.0,,,,,,36.0,,,,,,0,note_off,,80.0,36.0,80.0,513140,534.5208333333334
3587,9.0,,,,,,35.0,,,,,,0,note_on,,127.0,35.0,127.0,513140,534.5208333333334
3588,9.0,,,,,,36.0,,,,,,0,note_on,,127.0,36.0,127.0,513140,534.5208333333334
3589,9.0,,,,,,35.0,,,,,,480,note_off,,80.0,35.0,80.0,513620,535.0208333333334
3590,9.0,,,,,,36.0,,,,,,0,note_off,,80.0,36.0,80.0,513620,535.0208333333334
3591,9.0,,,,,,35.0,,,,,,0,note_on,,127.0,35.0,127.0,513620,535.0208333333334
3592,9.0,,,,,,36.0,,,,,,0,note_on,,127.0,36.0,127.0,513620,535.0208333333334
3593,9.0,,,,,,35.0,,,,,,480,note_off,,80.0,35.0,80.0,514100,535.5208333333334
3594,9.0,,,,,,36.0,,,,,,0,note_off,,80.0,36.0,80.0,514100,535.5208333333334
3595,9.0,,,,,,46.0,,,,,,0,note_on,,111.0,46.0,111.0,514100,535.5208333333334
3596,9.0,,,,,,38.0,,,,,,0,note_on,,127.0,38.0,127.0,514100,535.5208333333334
3597,9.0,,,,,,46.0,,,,,,120,note_off,,80.0,46.0,80.0,514220,535.6458333333334
3598,9.0,,,,,,38.0,,,,,,0,note_off,,80.0,38.0,80.0,514220,535.6458333333334
3599,9.0,,,,,,57.0,,,,,,0,note_on,,111.0,57.0,111.0,514220,535.6458333333334
3600,9.0,,,,,,57.0,,,,,,360,note_off,,80.0,57.0,80.0,514580,536.0208333333334
3601,9.0,,,,,,57.0,,,,,,0,note_on,,111.0,57.0,111.0,514580,536.0208333333334
3602,9.0,,,,,,35.0,,,,,,0,note_on,,127.0,35.0,127.0,514580,536.0208333333334
3603,9.0,,,,,,36.0,,,,,,0,note_on,,127.0,36.0,127.0,514580,536.0208333333334
3604,9.0,,,,,,57.0,,,,,,480,note_off,,80.0,57.0,80.0,515060,536.5208333333334
3605,9.0,,,,,,35.0,,,,,,0,note_off,,80.0,35.0,80.0,515060,536.5208333333334
3606,9.0,,,,,,36.0,,,,,,0,note_off,,80.0,36.0,80.0,515060,536.5208333333334
3607,9.0,,,,,,35.0,,,,,,0,note_on,,127.0,35.0,127.0,515060,536.5208333333334
3608,9.0,,,,,,36.0,,,,,,0,note_on,,127.0,36.0,127.0,515060,536.5208333333334
3609,9.0,,,,,,35.0,,,,,,480,note_off,,80.0,35.0,80.0,515540,537.0208333333334
3610,9.0,,,,,,36.0,,,,,,0,note_off,,80.0,36.0,80.0,515540,537.0208333333334
3611,9.0,,,,,,35.0,,,,,,0,note_on,,127.0,35.0,127.0,515540,537.0208333333334
3612,9.0,,,,,,36.0,,,,,,0,note_on,,127.0,36.0,127.0,515540,537.0208333333334
3613,9.0,,,,,,35.0,,,,,,480,note_off,,80.0,35.0,80.0,516020,537.5208333333334
3614,9.0,,,,,,36.0,,,,,,0,note_off,,80.0,36.0,80.0,516020,537.5208333333334
3615,9.0,,,,,,35.0,,,,,,0,note_on,,127.0,35.0,127.0,516020,537.5208333333334
3616,9.0,,,,,,36.0,,,,,,0,note_on,,127.0,36.0,127.0,516020,537.5208333333334
3617,9.0,,,,,,35.0,,,,,,480,note_off,,80.0,35.0,80.0,516500,538.0208333333334
3618,9.0,,,,,,36.0,,,,,,0,note_off,,80.0,36.0,80.0,516500,538.0208333333334
3619,9.0,,,,,,35.0,,,,,,0,note_on,,127.0,35.0,127.0,516500,538.0208333333334
3620,9.0,,,,,,36.0,,,,,,0,note_on,,127.0,36.0,127.0,516500,538.0208333333334
3621,9.0,,,,,,35.0,,,,,,480,note_off,,80.0,35.0,80.0,516980,538.5208333333334
3622,9.0,,,,,,36.0,,,,,,0,note_off,,80.0,36.0,80.0,516980,538.5208333333334
3623,9.0,,,,,,35.0,,,,,,0,note_on,,127.0,35.0,127.0,516980,538.5208333333334
3624,9.0,,,,,,36.0,,,,,,0,note_on,,127.0,36.0,127.0,516980,538.5208333333334
3625,9.0,,,,,,35.0,,,,,,480,note_off,,80.0,35.0,80.0,517460,539.0208333333334
3626,9.0,,,,,,36.0,,,,,,0,note_off,,80.0,36.0,80.0,517460,539.0208333333334
3627,9.0,,,,,,35.0,,,,,,0,note_on,,127.0,35.0,127.0,517460,539.0208333333334
3628,9.0,,,,,,36.0,,,,,,0,note_on,,127.0,36.0,127.0,517460,539.0208333333334
3629,9.0,,,,,,35.0,,,,,,480,note_off,,80.0,35.0,80.0,517940,539.5208333333334
3630,9.0,,,,,,36.0,,,,,,0,note_off,,80.0,36.0,80.0,517940,539.5208333333334
3631,9.0,,,,,,46.0,,,,,,0,note_on,,111.0,46.0,111.0,517940,539.5208333333334
3632,9.0,,,,,,38.0,,,,,,0,note_on,,127.0,38.0,127.0,517940,539.5208333333334
3633,9.0,,,,,,46.0,,,,,,120,note_off,,80.0,46.0,80.0,518060,539.6458333333334
3634,9.0,,,,,,38.0,,,,,,0,note_off,,80.0,38.0,80.0,518060,539.6458333333334
3635,9.0,,,,,,57.0,,,,,,0,note_on,,111.0,57.0,111.0,518060,539.6458333333334
3636,9.0,,,,,,57.0,,,,,,360,note_off,,80.0,57.0,80.0,518420,540.0208333333334
3637,9.0,,,,,,57.0,,,,,,0,note_on,,111.0,57.0,111.0,518420,540.0208333333334
3638,9.0,,,,,,35.0,,,,,,0,note_on,,127.0,35.0,127.0,518420,540.0208333333334
3639,9.0,,,,,,36.0,,,,,,0,note_on,,127.0,36.0,127.0,518420,540.0208333333334
3640,9.0,,,,,,57.0,,,,,,480,note_off,,80.0,57.0,80.0,518900,540.5208333333334
3641,9.0,,,,,,35.0,,,,,,0,note_off,,80.0,35.0,80.0,518900,540.5208333333334
3642,9.0,,,,,,36.0,,,,,,0,note_off,,80.0,36.0,80.0,518900,540.5208333333334
3643,9.0,,,,,,35.0,,,,,,0,note_on,,127.0,35.0,127.0,518900,540.5208333333334
3644,9.0,,,,,,36.0,,,,,,0,note_on,,127.0,36.0,127.0,518900,540.5208333333334
3645,9.0,,,,,,35.0,,,,,,480,note_off,,80.0,35.0,80.0,519380,541.0208333333334
3646,9.0,,,,,,36.0,,,,,,0,note_off,,80.0,36.0,80.0,519380,541.0208333333334
3647,9.0,,,,,,35.0,,,,,,0,note_on,,127.0,35.0,127.0,519380,541.0208333333334
3648,9.0,,,,,,36.0,,,,,,0,note_on,,127.0,36.0,127.0,519380,541.0208333333334
3649,9.0,,,,,,35.0,,,,,,480,note_off,,80.0,35.0,80.0,519860,541.5208333333334
3650,9.0,,,,,,36.0,,,,,,0,note_off,,80.0,36.0,80.0,519860,541.5208333333334
3651,9.0,,,,,,35.0,,,,,,0,note_on,,127.0,35.0,127.0,519860,541.5208333333334
3652,9.0,,,,,,36.0,,,,,,0,note_on,,127.0,36.0,127.0,519860,541.5208333333334
3653,9.0,,,,,,35.0,,,,,,480,note_off,,80.0,35.0,80.0,520340,542.0208333333334
3654,9.0,,,,,,36.0,,,,,,0,note_off,,80.0,36.0,80.0,520340,542.0208333333334
3655,9.0,,,,,,35.0,,,,,,0,note_on,,127.0,35.0,127.0,520340,542.0208333333334
3656,9.0,,,,,,36.0,,,,,,0,note_on,,127.0,36.0,127.0,520340,542.0208333333334
3657,9.0,,,,,,35.0,,,,,,480,note_off,,80.0,35.0,80.0,520820,542.5208333333334
3658,9.0,,,,,,36.0,,,,,,0,note_off,,80.0,36.0,80.0,520820,542.5208333333334
3659,9.0,,,,,,35.0,,,,,,0,note_on,,127.0,35.0,127.0,520820,542.5208333333334
3660,9.0,,,,,,36.0,,,,,,0,note_on,,127.0,36.0,127.0,520820,542.5208333333334
3661,9.0,,,,,,35.0,,,,,,480,note_off,,80.0,35.0,80.0,521300,543.0208333333334
3662,9.0,,,,,,36.0,,,,,,0,note_off,,80.0,36.0,80.0,521300,543.0208333333334
3663,9.0,,,,,,35.0,,,,,,0,note_on,,127.0,35.0,127.0,521300,543.0208333333334
3664,9.0,,,,,,36.0,,,,,,0,note_on,,127.0,36.0,127.0,521300,543.0208333333334
3665,9.0,,,,,,35.0,,,,,,480,note_off,,80.0,35.0,80.0,521780,543.5208333333334
3666,9.0,,,,,,36.0,,,,,,0,note_off,,80.0,36.0,80.0,521780,543.5208333333334
3667,9.0,,,,,,46.0,,,,,,0,note_on,,111.0,46.0,111.0,521780,543.5208333333334
3668,9.0,,,,,,38.0,,,,,,0,note_on,,127.0,38.0,127.0,521780,543.5208333333334
3669,9.0,,,,,,46.0,,,,,,120,note_off,,80.0,46.0,80.0,521900,543.6458333333334
3670,9.0,,,,,,38.0,,,,,,0,note_off,,80.0,38.0,80.0,521900,543.6458333333334
3671,9.0,,,,,,57.0,,,,,,0,note_on,,111.0,57.0,111.0,521900,543.6458333333334
3672,9.0,,,,,,57.0,,,,,,360,note_off,,80.0,57.0,80.0,522260,544.0208333333334
3673,9.0,,,,,,57.0,,,,,,0,note_on,,111.0,57.0,111.0,522260,544.0208333333334
3674,9.0,,,,,,35.0,,,,,,0,note_on,,127.0,35.0,127.0,522260,544.0208333333334
3675,9.0,,,,,,36.0,,,,,,0,note_on,,127.0,36.0,127.0,522260,544.0208333333334
3676,9.0,,,,,,57.0,,,,,,480,note_off,,80.0,57.0,80.0,522740,544.5208333333334
3677,9.0,,,,,,35.0,,,,,,0,note_off,,80.0,35.0,80.0,522740,544.5208333333334
3678,9.0,,,,,,36.0,,,,,,0,note_off,,80.0,36.0,80.0,522740,544.5208333333334
3679,9.0,,,,,,35.0,,,,,,0,note_on,,127.0,35.0,127.0,522740,544.5208333333334
3680,9.0,,,,,,36.0,,,,,,0,note_on,,127.0,36.0,127.0,522740,544.5208333333334
3681,9.0,,,,,,35.0,,,,,,480,note_off,,80.0,35.0,80.0,523220,545.0208333333334
3682,9.0,,,,,,36.0,,,,,,0,note_off,,80.0,36.0,80.0,523220,545.0208333333334
3683,9.0,,,,,,35.0,,,,,,0,note_on,,127.0,35.0,127.0,523220,545.0208333333334
3684,9.0,,,,,,36.0,,,,,,0,note_on,,127.0,36.0,127.0,523220,545.0208333333334
3685,9.0,,,,,,35.0,,,,,,480,note_off,,80.0,35.0,80.0,523700,545.5208333333334
3686,9.0,,,,,,36.0,,,,,,0,note_off,,80.0,36.0,80.0,523700,545.5208333333334
3687,9.0,,,,,,35.0,,,,,,0,note_on,,127.0,35.0,127.0,523700,545.5208333333334
3688,9.0,,,,,,36.0,,,,,,0,note_on,,127.0,36.0,127.0,523700,545.5208333333334
3689,9.0,,,,,,35.0,,,,,,480,note_off,,80.0,35.0,80.0,524180,546.0208333333334
3690,9.0,,,,,,36.0,,,,,,0,note_off,,80.0,36.0,80.0,524180,546.0208333333334
3691,9.0,,,,,,35.0,,,,,,0,note_on,,127.0,35.0,127.0,524180,546.0208333333334
3692,9.0,,,,,,36.0,,,,,,0,note_on,,127.0,36.0,127.0,524180,546.0208333333334
3693,9.0,,,,,,35.0,,,,,,480,note_off,,80.0,35.0,80.0,524660,546.5208333333334
3694,9.0,,,,,,36.0,,,,,,0,note_off,,80.0,36.0,80.0,524660,546.5208333333334
3695,9.0,,,,,,35.0,,,,,,0,note_on,,127.0,35.0,127.0,524660,546.5208333333334
3696,9.0,,,,,,36.0,,,,,,0,note_on,,127.0,36.0,127.0,524660,546.5208333333334
3697,9.0,,,,,,35.0,,,,,,480,note_off,,80.0,35.0,80.0,525140,547.0208333333334
3698,9.0,,,,,,36.0,,,,,,0,note_off,,80.0,36.0,80.0,525140,547.0208333333334
3699,9.0,,,,,,35.0,,,,,,0,note_on,,127.0,35.0,127.0,525140,547.0208333333334
3700,9.0,,,,,,36.0,,,,,,0,note_on,,127.0,36.0,127.0,525140,547.0208333333334
3701,9.0,,,,,,35.0,,,,,,480,note_off,,80.0,35.0,80.0,525620,547.5208333333334
3702,9.0,,,,,,36.0,,,,,,0,note_off,,80.0,36.0,80.0,525620,547.5208333333334
3703,9.0,,,,,,46.0,,,,,,0,note_on,,111.0,46.0,111.0,525620,547.5208333333334
3704,9.0,,,,,,38.0,,,,,,0,note_on,,127.0,38.0,127.0,525620,547.5208333333334
3705,9.0,,,,,,46.0,,,,,,120,note_off,,80.0,46.0,80.0,525740,547.6458333333334
3706,9.0,,,,,,38.0,,,,,,0,note_off,,80.0,38.0,80.0,525740,547.6458333333334
3707,9.0,,,,,,57.0,,,,,,0,note_on,,111.0,57.0,111.0,525740,547.6458333333334
3708,9.0,,,,,,57.0,,,,,,360,note_off,,80.0,57.0,80.0,526100,548.0208333333334
3709,9.0,,,,,,57.0,,,,,,0,note_on,,111.0,57.0,111.0,526100,548.0208333333334
3710,9.0,,,,,,35.0,,,,,,0,note_on,,127.0,35.0,127.0,526100,548.0208333333334
3711,9.0,,,,,,36.0,,,,,,0,note_on,,127.0,36.0,127.0,526100,548.0208333333334
3712,9.0,,,,,,57.0,,,,,,480,note_off,,80.0,57.0,80.0,526580,548.5208333333334
3713,9.0,,,,,,35.0,,,,,,0,note_off,,80.0,35.0,80.0,526580,548.5208333333334
3714,9.0,,,,,,36.0,,,,,,0,note_off,,80.0,36.0,80.0,526580,548.5208333333334
3715,9.0,,,,,,35.0,,,,,,0,note_on,,127.0,35.0,127.0,526580,548.5208333333334
3716,9.0,,,,,,36.0,,,,,,0,note_on,,127.0,36.0,127.0,526580,548.5208333333334
3717,9.0,,,,,,35.0,,,,,,480,note_off,,80.0,35.0,80.0,527060,549.0208333333334
3718,9.0,,,,,,36.0,,,,,,0,note_off,,80.0,36.0,80.0,527060,549.0208333333334
3719,9.0,,,,,,35.0,,,,,,0,note_on,,127.0,35.0,127.0,527060,549.0208333333334
3720,9.0,,,,,,36.0,,,,,,0,note_on,,127.0,36.0,127.0,527060,549.0208333333334
3721,9.0,,,,,,35.0,,,,,,480,note_off,,80.0,35.0,80.0,527540,549.5208333333334
3722,9.0,,,,,,36.0,,,,,,0,note_off,,80.0,36.0,80.0,527540,549.5208333333334
3723,9.0,,,,,,35.0,,,,,,0,note_on,,127.0,35.0,127.0,527540,549.5208333333334
3724,9.0,,,,,,36.0,,,,,,0,note_on,,127.0,36.0,127.0,527540,549.5208333333334
3725,9.0,,,,,,35.0,,,,,,480,note_off,,80.0,35.0,80.0,528020,550.0208333333334
3726,9.0,,,,,,36.0,,,,,,0,note_off,,80.0,36.0,80.0,528020,550.0208333333334
3727,9.0,,,,,,35.0,,,,,,0,note_on,,127.0,35.0,127.0,528020,550.0208333333334
3728,9.0,,,,,,36.0,,,,,,0,note_on,,127.0,36.0,127.0,528020,550.0208333333334
3729,9.0,,,,,,35.0,,,,,,480,note_off,,80.0,35.0,80.0,528500,550.5208333333334
3730,9.0,,,,,,36.0,,,,,,0,note_off,,80.0,36.0,80.0,528500,550.5208333333334
3731,9.0,,,,,,35.0,,,,,,0,note_on,,127.0,35.0,127.0,528500,550.5208333333334
3732,9.0,,,,,,36.0,,,,,,0,note_on,,127.0,36.0,127.0,528500,550.5208333333334
3733,9.0,,,,,,35.0,,,,,,480,note_off,,80.0,35.0,80.0,528980,551.0208333333334
3734,9.0,,,,,,36.0,,,,,,0,note_off,,80.0,36.0,80.0,528980,551.0208333333334
3735,9.0,,,,,,35.0,,,,,,0,note_on,,127.0,35.0,127.0,528980,551.0208333333334
3736,9.0,,,,,,36.0,,,,,,0,note_on,,127.0,36.0,127.0,528980,551.0208333333334
3737,9.0,,,,,,35.0,,,,,,480,note_off,,80.0,35.0,80.0,529460,551.5208333333334
3738,9.0,,,,,,36.0,,,,,,0,note_off,,80.0,36.0,80.0,529460,551.5208333333334
3739,9.0,,,,,,46.0,,,,,,0,note_on,,111.0,46.0,111.0,529460,551.5208333333334
3740,9.0,,,,,,38.0,,,,,,0,note_on,,127.0,38.0,127.0,529460,551.5208333333334
3741,9.0,,,,,,46.0,,,,,,120,note_off,,80.0,46.0,80.0,529580,551.6458333333334
3742,9.0,,,,,,38.0,,,,,,0,note_off,,80.0,38.0,80.0,529580,551.6458333333334
3743,9.0,,,,,,57.0,,,,,,0,note_on,,111.0,57.0,111.0,529580,551.6458333333334
3744,9.0,,,,,,57.0,,,,,,360,note_off,,80.0,57.0,80.0,529940,552.0208333333334
3745,9.0,,,,,,57.0,,,,,,0,note_on,,111.0,57.0,111.0,529940,552.0208333333334
3746,9.0,,,,,,35.0,,,,,,0,note_on,,127.0,35.0,127.0,529940,552.0208333333334
3747,9.0,,,,,,36.0,,,,,,0,note_on,,127.0,36.0,127.0,529940,552.0208333333334
3748,9.0,,,,,,57.0,,,,,,480,note_off,,80.0,57.0,80.0,530420,552.5208333333334
3749,9.0,,,,,,35.0,,,,,,0,note_off,,80.0,35.0,80.0,530420,552.5208333333334
3750,9.0,,,,,,36.0,,,,,,0,note_off,,80.0,36.0,80.0,530420,552.5208333333334
3751,9.0,,,,,,35.0,,,,,,0,note_on,,127.0,35.0,127.0,530420,552.5208333333334
3752,9.0,,,,,,36.0,,,,,,0,note_on,,127.0,36.0,127.0,530420,552.5208333333334
3753,9.0,,,,,,35.0,,,,,,480,note_off,,80.0,35.0,80.0,530900,553.0208333333334
3754,9.0,,,,,,36.0,,,,,,0,note_off,,80.0,36.0,80.0,530900,553.0208333333334
3755,9.0,,,,,,35.0,,,,,,0,note_on,,127.0,35.0,127.0,530900,553.0208333333334
3756,9.0,,,,,,36.0,,,,,,0,note_on,,127.0,36.0,127.0,530900,553.0208333333334
3757,9.0,,,,,,35.0,,,,,,480,note_off,,80.0,35.0,80.0,531380,553.5208333333334
3758,9.0,,,,,,36.0,,,,,,0,note_off,,80.0,36.0,80.0,531380,553.5208333333334
3759,9.0,,,,,,35.0,,,,,,0,note_on,,127.0,35.0,127.0,531380,553.5208333333334
3760,9.0,,,,,,36.0,,,,,,0,note_on,,127.0,36.0,127.0,531380,553.5208333333334
3761,9.0,,,,,,35.0,,,,,,480,note_off,,80.0,35.0,80.0,531860,554.0208333333334
3762,9.0,,,,,,36.0,,,,,,0,note_off,,80.0,36.0,80.0,531860,554.0208333333334
3763,9.0,,,,,,35.0,,,,,,0,note_on,,127.0,35.0,127.0,531860,554.0208333333334
3764,9.0,,,,,,36.0,,,,,,0,note_on,,127.0,36.0,127.0,531860,554.0208333333334
3765,9.0,,,,,,35.0,,,,,,480,note_off,,80.0,35.0,80.0,532340,554.5208333333334
3766,9.0,,,,,,36.0,,,,,,0,note_off,,80.0,36.0,80.0,532340,554.5208333333334
3767,9.0,,,,,,35.0,,,,,,0,note_on,,127.0,35.0,127.0,532340,554.5208333333334
3768,9.0,,,,,,36.0,,,,,,0,note_on,,127.0,36.0,127.0,532340,554.5208333333334
3769,9.0,,,,,,35.0,,,,,,480,note_off,,80.0,35.0,80.0,532820,555.0208333333334
3770,9.0,,,,,,36.0,,,,,,0,note_off,,80.0,36.0,80.0,532820,555.0208333333334
3771,9.0,,,,,,35.0,,,,,,0,note_on,,127.0,35.0,127.0,532820,555.0208333333334
3772,9.0,,,,,,36.0,,,,,,0,note_on,,127.0,36.0,127.0,532820,555.0208333333334
3773,9.0,,,,,,35.0,,,,,,480,note_off,,80.0,35.0,80.0,533300,555.5208333333334
3774,9.0,,,,,,36.0,,,,,,0,note_off,,80.0,36.0,80.0,533300,555.5208333333334
3775,9.0,,,,,,46.0,,,,,,0,note_on,,111.0,46.0,111.0,533300,555.5208333333334
3776,9.0,,,,,,38.0,,,,,,0,note_on,,127.0,38.0,127.0,533300,555.5208333333334
3777,9.0,,,,,,46.0,,,,,,120,note_off,,80.0,46.0,80.0,533420,555.6458333333334
3778,9.0,,,,,,38.0,,,,,,0,note_off,,80.0,38.0,80.0,533420,555.6458333333334
3779,9.0,,,,,,57.0,,,,,,0,note_on,,111.0,57.0,111.0,533420,555.6458333333334
3780,9.0,,,,,,57.0,,,,,,360,note_off,,80.0,57.0,80.0,533780,556.0208333333334
3781,9.0,,,,,,57.0,,,,,,0,note_on,,111.0,57.0,111.0,533780,556.0208333333334
3782,9.0,,,,,,35.0,,,,,,0,note_on,,127.0,35.0,127.0,533780,556.0208333333334
3783,9.0,,,,,,36.0,,,,,,0,note_on,,127.0,36.0,127.0,533780,556.0208333333334
3784,9.0,,,,,,57.0,,,,,,480,note_off,,80.0,57.0,80.0,534260,556.5208333333334
3785,9.0,,,,,,35.0,,,,,,0,note_off,,80.0,35.0,80.0,534260,556.5208333333334
3786,9.0,,,,,,36.0,,,,,,0,note_off,,80.0,36.0,80.0,534260,556.5208333333334
3787,9.0,,,,,,35.0,,,,,,0,note_on,,127.0,35.0,127.0,534260,556.5208333333334
3788,9.0,,,,,,36.0,,,,,,0,note_on,,127.0,36.0,127.0,534260,556.5208333333334
3789,9.0,,,,,,35.0,,,,,,480,note_off,,80.0,35.0,80.0,534740,557.0208333333334
3790,9.0,,,,,,36.0,,,,,,0,note_off,,80.0,36.0,80.0,534740,557.0208333333334
3791,9.0,,,,,,35.0,,,,,,0,note_on,,127.0,35.0,127.0,534740,557.0208333333334
3792,9.0,,,,,,36.0,,,,,,0,note_on,,127.0,36.0,127.0,534740,557.0208333333334
3793,9.0,,,,,,35.0,,,,,,480,note_off,,80.0,35.0,80.0,535220,557.5208333333334
3794,9.0,,,,,,36.0,,,,,,0,note_off,,80.0,36.0,80.0,535220,557.5208333333334
3795,9.0,,,,,,35.0,,,,,,0,note_on,,127.0,35.0,127.0,535220,557.5208333333334
3796,9.0,,,,,,36.0,,,,,,0,note_on,,127.0,36.0,127.0,535220,557.5208333333334
3797,9.0,,,,,,35.0,,,,,,480,note_off,,80.0,35.0,80.0,535700,558.0208333333334
3798,9.0,,,,,,36.0,,,,,,0,note_off,,80.0,36.0,80.0,535700,558.0208333333334
3799,9.0,,,,,,35.0,,,,,,0,note_on,,127.0,35.0,127.0,535700,558.0208333333334
3800,9.0,,,,,,36.0,,,,,,0,note_on,,127.0,36.0,127.0,535700,558.0208333333334
3801,9.0,,,,,,35.0,,,,,,480,note_off,,80.0,35.0,80.0,536180,558.5208333333334
3802,9.0,,,,,,36.0,,,,,,0,note_off,,80.0,36.0,80.0,536180,558.5208333333334
3803,9.0,,,,,,35.0,,,,,,0,note_on,,127.0,35.0,127.0,536180,558.5208333333334
3804,9.0,,,,,,36.0,,,,,,0,note_on,,127.0,36.0,127.0,536180,558.5208333333334
3805,9.0,,,,,,35.0,,,,,,480,note_off,,80.0,35.0,80.0,536660,559.0208333333334
3806,9.0,,,,,,36.0,,,,,,0,note_off,,80.0,36.0,80.0,536660,559.0208333333334
3807,9.0,,,,,,35.0,,,,,,0,note_on,,127.0,35.0,127.0,536660,559.0208333333334
3808,9.0,,,,,,36.0,,,,,,0,note_on,,127.0,36.0,127.0,536660,559.0208333333334
3809,9.0,,,,,,35.0,,,,,,480,note_off,,80.0,35.0,80.0,537140,559.5208333333334
3810,9.0,,,,,,36.0,,,,,,0,note_off,,80.0,36.0,80.0,537140,559.5208333333334
3811,9.0,,,,,,46.0,,,,,,0,note_on,,111.0,46.0,111.0,537140,559.5208333333334
3812,9.0,,,,,,38.0,,,,,,0,note_on,,127.0,38.0,127.0,537140,559.5208333333334
3813,9.0,,,,,,46.0,,,,,,120,note_off,,80.0,46.0,80.0,537260,559.6458333333334
3814,9.0,,,,,,38.0,,,,,,0,note_off,,80.0,38.0,80.0,537260,559.6458333333334
3815,9.0,,,,,,57.0,,,,,,0,note_on,,111.0,57.0,111.0,537260,559.6458333333334
3816,9.0,,,,,,57.0,,,,,,360,note_off,,80.0,57.0,80.0,537620,560.0208333333334
3817,9.0,,,,,,35.0,,,,,,3240,note_on,,127.0,35.0,127.0,540860,563.3958333333334
3818,9.0,,,,,,36.0,,,,,,0,note_on,,127.0,36.0,127.0,540860,563.3958333333334
3819,9.0,,,,,,35.0,,,,,,120,note_off,,80.0,35.0,80.0,540980,563.5208333333334
3820,9.0,,,,,,36.0,,,,,,0,note_off,,80.0,36.0,80.0,540980,563.5208333333334
3821,9.0,,,,,,46.0,,,,,,0,note_on,,111.0,46.0,111.0,540980,563.5208333333334
3822,9.0,,,,,,38.0,,,,,,0,note_on,,127.0,38.0,127.0,540980,563.5208333333334
3823,9.0,,,,,,46.0,,,,,,120,note_off,,80.0,46.0,80.0,541100,563.6458333333334
3824,9.0,,,,,,38.0,,,,,,0,note_off,,80.0,38.0,80.0,541100,563.6458333333334
3825,9.0,,,,,,57.0,,,,,,0,note_on,,111.0,57.0,111.0,541100,563.6458333333334
3826,9.0,,,,,,57.0,,,,,,360,note_off,,80.0,57.0,80.0,541460,564.0208333333334
3827,9.0,,,,,,46.0,,,,,,0,note_on,,111.0,46.0,111.0,541460,564.0208333333334
3828,9.0,,,,,,35.0,,,,,,0,note_on,,127.0,35.0,127.0,541460,564.0208333333334
3829,9.0,,,,,,36.0,,,,,,0,note_on,,127.0,36.0,127.0,541460,564.0208333333334
3830,9.0,,,,,,46.0,,,,,,480,note_off,,80.0,46.0,80.0,541940,564.5208333333334
3831,9.0,,,,,,35.0,,,,,,0,note_off,,80.0,35.0,80.0,541940,564.5208333333334
3832,9.0,,,,,,36.0,,,,,,0,note_off,,80.0,36.0,80.0,541940,564.5208333333334
3833,9.0,,,,,,46.0,,,,,,0,note_on,,111.0,46.0,111.0,541940,564.5208333333334
3834,9.0,,,,,,38.0,,,,,,0,note_on,,127.0,38.0,127.0,541940,564.5208333333334
3835,9.0,,,,,,46.0,,,,,,480,note_off,,80.0,46.0,80.0,542420,565.0208333333334
3836,9.0,,,,,,38.0,,,,,,0,note_off,,80.0,38.0,80.0,542420,565.0208333333334
3837,9.0,,,,,,46.0,,,,,,0,note_on,,111.0,46.0,111.0,542420,565.0208333333334
3838,9.0,,,,,,35.0,,,,,,0,note_on,,127.0,35.0,127.0,542420,565.0208333333334
3839,9.0,,,,,,36.0,,,,,,0,note_on,,127.0,36.0,127.0,542420,565.0208333333334
3840,9.0,,,,,,46.0,,,,,,360,note_off,,80.0,46.0,80.0,542780,565.3958333333334
3841,9.0,,,,,,35.0,,,,,,0,note_off,,80.0,35.0,80.0,542780,565.3958333333334
3842,9.0,,,,,,36.0,,,,,,0,note_off,,80.0,36.0,80.0,542780,565.3958333333334
3843,9.0,,,,,,35.0,,,,,,0,note_on,,127.0,35.0,127.0,542780,565.3958333333334
3844,9.0,,,,,,36.0,,,,,,0,note_on,,127.0,36.0,127.0,542780,565.3958333333334
3845,9.0,,,,,,35.0,,,,,,120,note_off,,80.0,35.0,80.0,542900,565.5208333333334
3846,9.0,,,,,,36.0,,,,,,0,note_off,,80.0,36.0,80.0,542900,565.5208333333334
3847,9.0,,,,,,46.0,,,,,,0,note_on,,111.0,46.0,111.0,542900,565.5208333333334
3848,9.0,,,,,,38.0,,,,,,0,note_on,,127.0,38.0,127.0,542900,565.5208333333334
3849,9.0,,,,,,46.0,,,,,,120,note_off,,80.0,46.0,80.0,543020,565.6458333333334
3850,9.0,,,,,,38.0,,,,,,0,note_off,,80.0,38.0,80.0,543020,565.6458333333334
3851,9.0,,,,,,57.0,,,,,,0,note_on,,111.0,57.0,111.0,543020,565.6458333333334
3852,9.0,,,,,,57.0,,,,,,360,note_off,,80.0,57.0,80.0,543380,566.0208333333334
3853,9.0,,,,,,46.0,,,,,,0,note_on,,111.0,46.0,111.0,543380,566.0208333333334
3854,9.0,,,,,,35.0,,,,,,0,note_on,,127.0,35.0,127.0,543380,566.0208333333334
3855,9.0,,,,,,36.0,,,,,,0,note_on,,127.0,36.0,127.0,543380,566.0208333333334
3856,9.0,,,,,,46.0,,,,,,480,note_off,,80.0,46.0,80.0,543860,566.5208333333334
3857,9.0,,,,,,35.0,,,,,,0,note_off,,80.0,35.0,80.0,543860,566.5208333333334
3858,9.0,,,,,,36.0,,,,,,0,note_off,,80.0,36.0,80.0,543860,566.5208333333334
3859,9.0,,,,,,46.0,,,,,,0,note_on,,111.0,46.0,111.0,543860,566.5208333333334
3860,9.0,,,,,,35.0,,,,,,0,note_on,,95.0,35.0,95.0,543860,566.5208333333334
3861,9.0,,,,,,36.0,,,,,,0,note_on,,95.0,36.0,95.0,543860,566.5208333333334
3862,9.0,,,,,,46.0,,,,,,360,note_off,,80.0,46.0,80.0,544220,566.8958333333334
3863,9.0,,,,,,35.0,,,,,,0,note_off,,80.0,35.0,80.0,544220,566.8958333333334
3864,9.0,,,,,,36.0,,,,,,0,note_off,,80.0,36.0,80.0,544220,566.8958333333334
3865,9.0,,,,,,46.0,,,,,,0,note_on,,111.0,46.0,111.0,544220,566.8958333333334
3866,9.0,,,,,,35.0,,,,,,0,note_on,,95.0,35.0,95.0,544220,566.8958333333334
3867,9.0,,,,,,36.0,,,,,,0,note_on,,95.0,36.0,95.0,544220,566.8958333333334
3868,9.0,,,,,,46.0,,,,,,240,note_off,,80.0,46.0,80.0,544460,567.1458333333334
3869,9.0,,,,,,35.0,,,,,,0,note_off,,80.0,35.0,80.0,544460,567.1458333333334
3870,9.0,,,,,,36.0,,,,,,0,note_off,,80.0,36.0,80.0,544460,567.1458333333334
3871,9.0,,,,,,46.0,,,,,,0,note_on,,111.0,46.0,111.0,544460,567.1458333333334
3872,9.0,,,,,,35.0,,,,,,0,note_on,,95.0,35.0,95.0,544460,567.1458333333334
3873,9.0,,,,,,36.0,,,,,,0,note_on,,95.0,36.0,95.0,544460,567.1458333333334
3874,9.0,,,,,,46.0,,,,,,240,note_off,,80.0,46.0,80.0,544700,567.3958333333334
3875,9.0,,,,,,35.0,,,,,,0,note_off,,80.0,35.0,80.0,544700,567.3958333333334
3876,9.0,,,,,,36.0,,,,,,0,note_off,,80.0,36.0,80.0,544700,567.3958333333334
3877,9.0,,,,,,35.0,,,,,,0,note_on,,95.0,35.0,95.0,544700,567.3958333333334
3878,9.0,,,,,,36.0,,,,,,0,note_on,,95.0,36.0,95.0,544700,567.3958333333334
3879,9.0,,,,,,35.0,,,,,,120,note_off,,80.0,35.0,80.0,544820,567.5208333333334
3880,9.0,,,,,,36.0,,,,,,0,note_off,,80.0,36.0,80.0,544820,567.5208333333334
3881,9.0,,,,,,57.0,,,,,,0,note_on,,111.0,57.0,111.0,544820,567.5208333333334
3882,9.0,,,,,,35.0,,,,,,0,note_on,,95.0,35.0,95.0,544820,567.5208333333334
3883,9.0,,,,,,36.0,,,,,,0,note_on,,95.0,36.0,95.0,544820,567.5208333333334
3884,9.0,,,,,,57.0,,,,,,480,note_off,,80.0,57.0,80.0,545300,568.0208333333334
3885,9.0,,,,,,35.0,,,,,,0,note_off,,80.0,35.0,80.0,545300,568.0208333333334
3886,9.0,,,,,,36.0,,,,,,0,note_off,,80.0,36.0,80.0,545300,568.0208333333334
3887,9.0,,,,,,46.0,,,,,,0,note_on,,111.0,46.0,111.0,545300,568.0208333333334
3888,9.0,,,,,,35.0,,,,,,0,note_on,,127.0,35.0,127.0,545300,568.0208333333334
3889,9.0,,,,,,36.0,,,,,,0,note_on,,127.0,36.0,127.0,545300,568.0208333333334
3890,9.0,,,,,,46.0,,,,,,480,note_off,,80.0,46.0,80.0,545780,568.5208333333334
3891,9.0,,,,,,35.0,,,,,,0,note_off,,80.0,35.0,80.0,545780,568.5208333333334
3892,9.0,,,,,,36.0,,,,,,0,note_off,,80.0,36.0,80.0,545780,568.5208333333334
3893,9.0,,,,,,46.0,,,,,,0,note_on,,111.0,46.0,111.0,545780,568.5208333333334
3894,9.0,,,,,,38.0,,,,,,0,note_on,,127.0,38.0,127.0,545780,568.5208333333334
3895,9.0,,,,,,46.0,,,,,,480,note_off,,80.0,46.0,80.0,546260,569.0208333333334
3896,9.0,,,,,,38.0,,,,,,0,note_off,,80.0,38.0,80.0,546260,569.0208333333334
3897,9.0,,,,,,46.0,,,,,,0,note_on,,111.0,46.0,111.0,546260,569.0208333333334
3898,9.0,,,,,,35.0,,,,,,0,note_on,,127.0,35.0,127.0,546260,569.0208333333334
3899,9.0,,,,,,36.0,,,,,,0,note_on,,127.0,36.0,127.0,546260,569.0208333333334
3900,9.0,,,,,,46.0,,,,,,360,note_off,,80.0,46.0,80.0,546620,569.3958333333334
3901,9.0,,,,,,35.0,,,,,,0,note_off,,80.0,35.0,80.0,546620,569.3958333333334
3902,9.0,,,,,,36.0,,,,,,0,note_off,,80.0,36.0,80.0,546620,569.3958333333334
3903,9.0,,,,,,35.0,,,,,,0,note_on,,127.0,35.0,127.0,546620,569.3958333333334
3904,9.0,,,,,,36.0,,,,,,0,note_on,,127.0,36.0,127.0,546620,569.3958333333334
3905,9.0,,,,,,35.0,,,,,,120,note_off,,80.0,35.0,80.0,546740,569.5208333333334
3906,9.0,,,,,,36.0,,,,,,0,note_off,,80.0,36.0,80.0,546740,569.5208333333334
3907,9.0,,,,,,46.0,,,,,,0,note_on,,111.0,46.0,111.0,546740,569.5208333333334
3908,9.0,,,,,,38.0,,,,,,0,note_on,,127.0,38.0,127.0,546740,569.5208333333334
3909,9.0,,,,,,46.0,,,,,,120,note_off,,80.0,46.0,80.0,546860,569.6458333333334
3910,9.0,,,,,,38.0,,,,,,0,note_off,,80.0,38.0,80.0,546860,569.6458333333334
3911,9.0,,,,,,57.0,,,,,,0,note_on,,111.0,57.0,111.0,546860,569.6458333333334
3912,9.0,,,,,,57.0,,,,,,360,note_off,,80.0,57.0,80.0,547220,570.0208333333334
3913,9.0,,,,,,46.0,,,,,,0,note_on,,111.0,46.0,111.0,547220,570.0208333333334
3914,9.0,,,,,,35.0,,,,,,0,note_on,,127.0,35.0,127.0,547220,570.0208333333334
3915,9.0,,,,,,36.0,,,,,,0,note_on,,127.0,36.0,127.0,547220,570.0208333333334
3916,9.0,,,,,,46.0,,,,,,480,note_off,,80.0,46.0,80.0,547700,570.5208333333334
3917,9.0,,,,,,35.0,,,,,,0,note_off,,80.0,35.0,80.0,547700,570.5208333333334
3918,9.0,,,,,,36.0,,,,,,0,note_off,,80.0,36.0,80.0,547700,570.5208333333334
3919,9.0,,,,,,46.0,,,,,,0,note_on,,111.0,46.0,111.0,547700,570.5208333333334
3920,9.0,,,,,,38.0,,,,,,0,note_on,,127.0,38.0,127.0,547700,570.5208333333334
3921,9.0,,,,,,46.0,,,,,,480,note_off,,80.0,46.0,80.0,548180,571.0208333333334
3922,9.0,,,,,,38.0,,,,,,0,note_off,,80.0,38.0,80.0,548180,571.0208333333334
3923,9.0,,,,,,46.0,,,,,,0,note_on,,111.0,46.0,111.0,548180,571.0208333333334
3924,9.0,,,,,,35.0,,,,,,0,note_on,,127.0,35.0,127.0,548180,571.0208333333334
3925,9.0,,,,,,36.0,,,,,,0,note_on,,127.0,36.0,127.0,548180,571.0208333333334
3926,9.0,,,,,,46.0,,,,,,360,note_off,,80.0,46.0,80.0,548540,571.3958333333334
3927,9.0,,,,,,35.0,,,,,,0,note_off,,80.0,35.0,80.0,548540,571.3958333333334
3928,9.0,,,,,,36.0,,,,,,0,note_off,,80.0,36.0,80.0,548540,571.3958333333334
3929,9.0,,,,,,35.0,,,,,,0,note_on,,127.0,35.0,127.0,548540,571.3958333333334
3930,9.0,,,,,,36.0,,,,,,0,note_on,,127.0,36.0,127.0,548540,571.3958333333334
3931,9.0,,,,,,35.0,,,,,,120,note_off,,80.0,35.0,80.0,548660,571.5208333333334
3932,9.0,,,,,,36.0,,,,,,0,note_off,,80.0,36.0,80.0,548660,571.5208333333334
3933,9.0,,,,,,46.0,,,,,,0,note_on,,111.0,46.0,111.0,548660,571.5208333333334
3934,9.0,,,,,,38.0,,,,,,0,note_on,,127.0,38.0,127.0,548660,571.5208333333334
3935,9.0,,,,,,46.0,,,,,,120,note_off,,80.0,46.0,80.0,548780,571.6458333333334
3936,9.0,,,,,,38.0,,,,,,0,note_off,,80.0,38.0,80.0,548780,571.6458333333334
3937,9.0,,,,,,57.0,,,,,,0,note_on,,111.0,57.0,111.0,548780,571.6458333333334
3938,9.0,,,,,,57.0,,,,,,360,note_off,,80.0,57.0,80.0,549140,572.0208333333334
3939,9.0,,,,,,46.0,,,,,,0,note_on,,111.0,46.0,111.0,549140,572.0208333333334
3940,9.0,,,,,,35.0,,,,,,0,note_on,,127.0,35.0,127.0,549140,572.0208333333334
3941,9.0,,,,,,36.0,,,,,,0,note_on,,127.0,36.0,127.0,549140,572.0208333333334
3942,9.0,,,,,,46.0,,,,,,480,note_off,,80.0,46.0,80.0,549620,572.5208333333334
3943,9.0,,,,,,35.0,,,,,,0,note_off,,80.0,35.0,80.0,549620,572.5208333333334
3944,9.0,,,,,,36.0,,,,,,0,note_off,,80.0,36.0,80.0,549620,572.5208333333334
3945,9.0,,,,,,46.0,,,,,,0,note_on,,111.0,46.0,111.0,549620,572.5208333333334
3946,9.0,,,,,,38.0,,,,,,0,note_on,,127.0,38.0,127.0,549620,572.5208333333334
3947,9.0,,,,,,46.0,,,,,,480,note_off,,80.0,46.0,80.0,550100,573.0208333333334
3948,9.0,,,,,,38.0,,,,,,0,note_off,,80.0,38.0,80.0,550100,573.0208333333334
3949,9.0,,,,,,46.0,,,,,,0,note_on,,111.0,46.0,111.0,550100,573.0208333333334
3950,9.0,,,,,,35.0,,,,,,0,note_on,,127.0,35.0,127.0,550100,573.0208333333334
3951,9.0,,,,,,36.0,,,,,,0,note_on,,127.0,36.0,127.0,550100,573.0208333333334
3952,9.0,,,,,,46.0,,,,,,360,note_off,,80.0,46.0,80.0,550460,573.3958333333334
3953,9.0,,,,,,35.0,,,,,,0,note_off,,80.0,35.0,80.0,550460,573.3958333333334
3954,9.0,,,,,,36.0,,,,,,0,note_off,,80.0,36.0,80.0,550460,573.3958333333334
3955,9.0,,,,,,35.0,,,,,,0,note_on,,127.0,35.0,127.0,550460,573.3958333333334
3956,9.0,,,,,,36.0,,,,,,0,note_on,,127.0,36.0,127.0,550460,573.3958333333334
3957,9.0,,,,,,35.0,,,,,,120,note_off,,80.0,35.0,80.0,550580,573.5208333333334
3958,9.0,,,,,,36.0,,,,,,0,note_off,,80.0,36.0,80.0,550580,573.5208333333334
3959,9.0,,,,,,46.0,,,,,,0,note_on,,111.0,46.0,111.0,550580,573.5208333333334
3960,9.0,,,,,,38.0,,,,,,0,note_on,,127.0,38.0,127.0,550580,573.5208333333334
3961,9.0,,,,,,46.0,,,,,,120,note_off,,80.0,46.0,80.0,550700,573.6458333333334
3962,9.0,,,,,,38.0,,,,,,0,note_off,,80.0,38.0,80.0,550700,573.6458333333334
3963,9.0,,,,,,57.0,,,,,,0,note_on,,111.0,57.0,111.0,550700,573.6458333333334
3964,9.0,,,,,,57.0,,,,,,360,note_off,,80.0,57.0,80.0,551060,574.0208333333334
3965,9.0,,,,,,46.0,,,,,,0,note_on,,111.0,46.0,111.0,551060,574.0208333333334
3966,9.0,,,,,,35.0,,,,,,0,note_on,,127.0,35.0,127.0,551060,574.0208333333334
3967,9.0,,,,,,36.0,,,,,,0,note_on,,127.0,36.0,127.0,551060,574.0208333333334
3968,9.0,,,,,,46.0,,,,,,480,note_off,,80.0,46.0,80.0,551540,574.5208333333334
3969,9.0,,,,,,35.0,,,,,,0,note_off,,80.0,35.0,80.0,551540,574.5208333333334
3970,9.0,,,,,,36.0,,,,,,0,note_off,,80.0,36.0,80.0,551540,574.5208333333334
3971,9.0,,,,,,46.0,,,,,,0,note_on,,111.0,46.0,111.0,551540,574.5208333333334
3972,9.0,,,,,,35.0,,,,,,0,note_on,,95.0,35.0,95.0,551540,574.5208333333334
3973,9.0,,,,,,36.0,,,,,,0,note_on,,95.0,36.0,95.0,551540,574.5208333333334
3974,9.0,,,,,,46.0,,,,,,360,note_off,,80.0,46.0,80.0,551900,574.8958333333334
3975,9.0,,,,,,35.0,,,,,,0,note_off,,80.0,35.0,80.0,551900,574.8958333333334
3976,9.0,,,,,,36.0,,,,,,0,note_off,,80.0,36.0,80.0,551900,574.8958333333334
3977,9.0,,,,,,46.0,,,,,,0,note_on,,111.0,46.0,111.0,551900,574.8958333333334
3978,9.0,,,,,,35.0,,,,,,0,note_on,,95.0,35.0,95.0,551900,574.8958333333334
3979,9.0,,,,,,36.0,,,,,,0,note_on,,95.0,36.0,95.0,551900,574.8958333333334
3980,9.0,,,,,,46.0,,,,,,240,note_off,,80.0,46.0,80.0,552140,575.1458333333334
3981,9.0,,,,,,35.0,,,,,,0,note_off,,80.0,35.0,80.0,552140,575.1458333333334
3982,9.0,,,,,,36.0,,,,,,0,note_off,,80.0,36.0,80.0,552140,575.1458333333334
3983,9.0,,,,,,46.0,,,,,,0,note_on,,111.0,46.0,111.0,552140,575.1458333333334
3984,9.0,,,,,,35.0,,,,,,0,note_on,,95.0,35.0,95.0,552140,575.1458333333334
3985,9.0,,,,,,36.0,,,,,,0,note_on,,95.0,36.0,95.0,552140,575.1458333333334
3986,9.0,,,,,,46.0,,,,,,240,note_off,,80.0,46.0,80.0,552380,575.3958333333334
3987,9.0,,,,,,35.0,,,,,,0,note_off,,80.0,35.0,80.0,552380,575.3958333333334
3988,9.0,,,,,,36.0,,,,,,0,note_off,,80.0,36.0,80.0,552380,575.3958333333334
3989,9.0,,,,,,35.0,,,,,,0,note_on,,95.0,35.0,95.0,552380,575.3958333333334
3990,9.0,,,,,,36.0,,,,,,0,note_on,,95.0,36.0,95.0,552380,575.3958333333334
3991,9.0,,,,,,35.0,,,,,,120,note_off,,80.0,35.0,80.0,552500,575.5208333333334
3992,9.0,,,,,,36.0,,,,,,0,note_off,,80.0,36.0,80.0,552500,575.5208333333334
3993,9.0,,,,,,57.0,,,,,,0,note_on,,111.0,57.0,111.0,552500,575.5208333333334
3994,9.0,,,,,,35.0,,,,,,0,note_on,,95.0,35.0,95.0,552500,575.5208333333334
3995,9.0,,,,,,36.0,,,,,,0,note_on,,95.0,36.0,95.0,552500,575.5208333333334
3996,9.0,,,,,,57.0,,,,,,480,note_off,,80.0,57.0,80.0,552980,576.0208333333334
3997,9.0,,,,,,35.0,,,,,,0,note_off,,80.0,35.0,80.0,552980,576.0208333333334
3998,9.0,,,,,,36.0,,,,,,0,note_off,,80.0,36.0,80.0,552980,576.0208333333334
3999,9.0,,,,,,57.0,,,,,,0,note_on,,95.0,57.0,95.0,552980,576.0208333333334
4000,9.0,,,,,,38.0,,,,,,0,note_on,,95.0,38.0,95.0,552980,576.0208333333334
4001,9.0,,,,,,57.0,,,,,,1920,note_off,,80.0,57.0,80.0,554900,578.0208333333334
4002,9.0,,,,,,38.0,,,,,,0,note_off,,80.0,38.0,80.0,554900,578.0208333333334
4003,9.0,,,,,,46.0,,,,,,1440,note_on,,111.0,46.0,111.0,556340,579.5208333333334
4004,9.0,,,,,,38.0,,,,,,0,note_on,,127.0,38.0,127.0,556340,579.5208333333334
4005,9.0,,,,,,46.0,,,,,,120,note_off,,80.0,46.0,80.0,556460,579.6458333333334
4006,9.0,,,,,,38.0,,,,,,0,note_off,,80.0,38.0,80.0,556460,579.6458333333334
4007,9.0,,,,,,57.0,,,,,,0,note_on,,111.0,57.0,111.0,556460,579.6458333333334
4008,9.0,,,,,,57.0,,,,,,360,note_off,,80.0,57.0,80.0,556820,580.0208333333334
4009,9.0,,,,,,57.0,,,,,,0,note_on,,111.0,57.0,111.0,556820,580.0208333333334
4010,9.0,,,,,,35.0,,,,,,0,note_on,,127.0,35.0,127.0,556820,580.0208333333334
4011,9.0,,,,,,36.0,,,,,,0,note_on,,127.0,36.0,127.0,556820,580.0208333333334
4012,9.0,,,,,,57.0,,,,,,480,note_off,,80.0,57.0,80.0,557300,580.5208333333334
4013,9.0,,,,,,35.0,,,,,,0,note_off,,80.0,35.0,80.0,557300,580.5208333333334
4014,9.0,,,,,,36.0,,,,,,0,note_off,,80.0,36.0,80.0,557300,580.5208333333334
4015,9.0,,,,,,35.0,,,,,,0,note_on,,127.0,35.0,127.0,557300,580.5208333333334
4016,9.0,,,,,,36.0,,,,,,0,note_on,,127.0,36.0,127.0,557300,580.5208333333334
4017,9.0,,,,,,35.0,,,,,,480,note_off,,80.0,35.0,80.0,557780,581.0208333333334
4018,9.0,,,,,,36.0,,,,,,0,note_off,,80.0,36.0,80.0,557780,581.0208333333334
4019,9.0,,,,,,35.0,,,,,,0,note_on,,127.0,35.0,127.0,557780,581.0208333333334
4020,9.0,,,,,,36.0,,,,,,0,note_on,,127.0,36.0,127.0,557780,581.0208333333334
4021,9.0,,,,,,35.0,,,,,,480,note_off,,80.0,35.0,80.0,558260,581.5208333333334
4022,9.0,,,,,,36.0,,,,,,0,note_off,,80.0,36.0,80.0,558260,581.5208333333334
4023,9.0,,,,,,35.0,,,,,,0,note_on,,127.0,35.0,127.0,558260,581.5208333333334
4024,9.0,,,,,,36.0,,,,,,0,note_on,,127.0,36.0,127.0,558260,581.5208333333334
4025,9.0,,,,,,35.0,,,,,,480,note_off,,80.0,35.0,80.0,558740,582.0208333333334
4026,9.0,,,,,,36.0,,,,,,0,note_off,,80.0,36.0,80.0,558740,582.0208333333334
4027,9.0,,,,,,35.0,,,,,,0,note_on,,127.0,35.0,127.0,558740,582.0208333333334
4028,9.0,,,,,,36.0,,,,,,0,note_on,,127.0,36.0,127.0,558740,582.0208333333334
4029,9.0,,,,,,35.0,,,,,,480,note_off,,80.0,35.0,80.0,559220,582.5208333333334
4030,9.0,,,,,,36.0,,,,,,0,note_off,,80.0,36.0,80.0,559220,582.5208333333334
4031,9.0,,,,,,35.0,,,,,,0,note_on,,127.0,35.0,127.0,559220,582.5208333333334
4032,9.0,,,,,,36.0,,,,,,0,note_on,,127.0,36.0,127.0,559220,582.5208333333334
4033,9.0,,,,,,35.0,,,,,,480,note_off,,80.0,35.0,80.0,559700,583.0208333333334
4034,9.0,,,,,,36.0,,,,,,0,note_off,,80.0,36.0,80.0,559700,583.0208333333334
4035,9.0,,,,,,35.0,,,,,,0,note_on,,127.0,35.0,127.0,559700,583.0208333333334
4036,9.0,,,,,,36.0,,,,,,0,note_on,,127.0,36.0,127.0,559700,583.0208333333334
4037,9.0,,,,,,35.0,,,,,,480,note_off,,80.0,35.0,80.0,560180,583.5208333333334
4038,9.0,,,,,,36.0,,,,,,0,note_off,,80.0,36.0,80.0,560180,583.5208333333334
4039,9.0,,,,,,46.0,,,,,,0,note_on,,111.0,46.0,111.0,560180,583.5208333333334
4040,9.0,,,,,,38.0,,,,,,0,note_on,,127.0,38.0,127.0,560180,583.5208333333334
4041,9.0,,,,,,46.0,,,,,,120,note_off,,80.0,46.0,80.0,560300,583.6458333333334
4042,9.0,,,,,,38.0,,,,,,0,note_off,,80.0,38.0,80.0,560300,583.6458333333334
4043,9.0,,,,,,57.0,,,,,,0,note_on,,111.0,57.0,111.0,560300,583.6458333333334
4044,9.0,,,,,,57.0,,,,,,360,note_off,,80.0,57.0,80.0,560660,584.0208333333334
4045,9.0,,,,,,57.0,,,,,,0,note_on,,111.0,57.0,111.0,560660,584.0208333333334
4046,9.0,,,,,,35.0,,,,,,0,note_on,,127.0,35.0,127.0,560660,584.0208333333334
4047,9.0,,,,,,36.0,,,,,,0,note_on,,127.0,36.0,127.0,560660,584.0208333333334
4048,9.0,,,,,,57.0,,,,,,480,note_off,,80.0,57.0,80.0,561140,584.5208333333334
4049,9.0,,,,,,35.0,,,,,,0,note_off,,80.0,35.0,80.0,561140,584.5208333333334
4050,9.0,,,,,,36.0,,,,,,0,note_off,,80.0,36.0,80.0,561140,584.5208333333334
4051,9.0,,,,,,35.0,,,,,,0,note_on,,127.0,35.0,127.0,561140,584.5208333333334
4052,9.0,,,,,,36.0,,,,,,0,note_on,,127.0,36.0,127.0,561140,584.5208333333334
4053,9.0,,,,,,35.0,,,,,,480,note_off,,80.0,35.0,80.0,561620,585.0208333333334
4054,9.0,,,,,,36.0,,,,,,0,note_off,,80.0,36.0,80.0,561620,585.0208333333334
4055,9.0,,,,,,35.0,,,,,,0,note_on,,127.0,35.0,127.0,561620,585.0208333333334
4056,9.0,,,,,,36.0,,,,,,0,note_on,,127.0,36.0,127.0,561620,585.0208333333334
4057,9.0,,,,,,35.0,,,,,,480,note_off,,80.0,35.0,80.0,562100,585.5208333333334
4058,9.0,,,,,,36.0,,,,,,0,note_off,,80.0,36.0,80.0,562100,585.5208333333334
4059,9.0,,,,,,35.0,,,,,,0,note_on,,127.0,35.0,127.0,562100,585.5208333333334
4060,9.0,,,,,,36.0,,,,,,0,note_on,,127.0,36.0,127.0,562100,585.5208333333334
4061,9.0,,,,,,35.0,,,,,,480,note_off,,80.0,35.0,80.0,562580,586.0208333333334
4062,9.0,,,,,,36.0,,,,,,0,note_off,,80.0,36.0,80.0,562580,586.0208333333334
4063,9.0,,,,,,35.0,,,,,,0,note_on,,127.0,35.0,127.0,562580,586.0208333333334
4064,9.0,,,,,,36.0,,,,,,0,note_on,,127.0,36.0,127.0,562580,586.0208333333334
4065,9.0,,,,,,35.0,,,,,,480,note_off,,80.0,35.0,80.0,563060,586.5208333333334
4066,9.0,,,,,,36.0,,,,,,0,note_off,,80.0,36.0,80.0,563060,586.5208333333334
4067,9.0,,,,,,35.0,,,,,,0,note_on,,127.0,35.0,127.0,563060,586.5208333333334
4068,9.0,,,,,,36.0,,,,,,0,note_on,,127.0,36.0,127.0,563060,586.5208333333334
4069,9.0,,,,,,35.0,,,,,,480,note_off,,80.0,35.0,80.0,563540,587.0208333333334
4070,9.0,,,,,,36.0,,,,,,0,note_off,,80.0,36.0,80.0,563540,587.0208333333334
4071,9.0,,,,,,35.0,,,,,,0,note_on,,127.0,35.0,127.0,563540,587.0208333333334
4072,9.0,,,,,,36.0,,,,,,0,note_on,,127.0,36.0,127.0,563540,587.0208333333334
4073,9.0,,,,,,35.0,,,,,,480,note_off,,80.0,35.0,80.0,564020,587.5208333333334
4074,9.0,,,,,,36.0,,,,,,0,note_off,,80.0,36.0,80.0,564020,587.5208333333334
4075,9.0,,,,,,46.0,,,,,,0,note_on,,111.0,46.0,111.0,564020,587.5208333333334
4076,9.0,,,,,,38.0,,,,,,0,note_on,,127.0,38.0,127.0,564020,587.5208333333334
4077,9.0,,,,,,46.0,,,,,,120,note_off,,80.0,46.0,80.0,564140,587.6458333333334
4078,9.0,,,,,,38.0,,,,,,0,note_off,,80.0,38.0,80.0,564140,587.6458333333334
4079,9.0,,,,,,57.0,,,,,,0,note_on,,111.0,57.0,111.0,564140,587.6458333333334
4080,9.0,,,,,,57.0,,,,,,360,note_off,,80.0,57.0,80.0,564500,588.0208333333334
4081,9.0,,,,,,57.0,,,,,,0,note_on,,111.0,57.0,111.0,564500,588.0208333333334
4082,9.0,,,,,,35.0,,,,,,0,note_on,,127.0,35.0,127.0,564500,588.0208333333334
4083,9.0,,,,,,36.0,,,,,,0,note_on,,127.0,36.0,127.0,564500,588.0208333333334
4084,9.0,,,,,,57.0,,,,,,480,note_off,,80.0,57.0,80.0,564980,588.5208333333334
4085,9.0,,,,,,35.0,,,,,,0,note_off,,80.0,35.0,80.0,564980,588.5208333333334
4086,9.0,,,,,,36.0,,,,,,0,note_off,,80.0,36.0,80.0,564980,588.5208333333334
4087,9.0,,,,,,35.0,,,,,,0,note_on,,127.0,35.0,127.0,564980,588.5208333333334
4088,9.0,,,,,,36.0,,,,,,0,note_on,,127.0,36.0,127.0,564980,588.5208333333334
4089,9.0,,,,,,35.0,,,,,,480,note_off,,80.0,35.0,80.0,565460,589.0208333333334
4090,9.0,,,,,,36.0,,,,,,0,note_off,,80.0,36.0,80.0,565460,589.0208333333334
4091,9.0,,,,,,35.0,,,,,,0,note_on,,127.0,35.0,127.0,565460,589.0208333333334
4092,9.0,,,,,,36.0,,,,,,0,note_on,,127.0,36.0,127.0,565460,589.0208333333334
4093,9.0,,,,,,35.0,,,,,,480,note_off,,80.0,35.0,80.0,565940,589.5208333333334
4094,9.0,,,,,,36.0,,,,,,0,note_off,,80.0,36.0,80.0,565940,589.5208333333334
4095,9.0,,,,,,35.0,,,,,,0,note_on,,127.0,35.0,127.0,565940,589.5208333333334
4096,9.0,,,,,,36.0,,,,,,0,note_on,,127.0,36.0,127.0,565940,589.5208333333334
4097,9.0,,,,,,35.0,,,,,,480,note_off,,80.0,35.0,80.0,566420,590.0208333333334
4098,9.0,,,,,,36.0,,,,,,0,note_off,,80.0,36.0,80.0,566420,590.0208333333334
4099,9.0,,,,,,35.0,,,,,,0,note_on,,127.0,35.0,127.0,566420,590.0208333333334
4100,9.0,,,,,,36.0,,,,,,0,note_on,,127.0,36.0,127.0,566420,590.0208333333334
4101,9.0,,,,,,35.0,,,,,,480,note_off,,80.0,35.0,80.0,566900,590.5208333333334
4102,9.0,,,,,,36.0,,,,,,0,note_off,,80.0,36.0,80.0,566900,590.5208333333334
4103,9.0,,,,,,35.0,,,,,,0,note_on,,127.0,35.0,127.0,566900,590.5208333333334
4104,9.0,,,,,,36.0,,,,,,0,note_on,,127.0,36.0,127.0,566900,590.5208333333334
4105,9.0,,,,,,35.0,,,,,,480,note_off,,80.0,35.0,80.0,567380,591.0208333333334
4106,9.0,,,,,,36.0,,,,,,0,note_off,,80.0,36.0,80.0,567380,591.0208333333334
4107,9.0,,,,,,35.0,,,,,,0,note_on,,127.0,35.0,127.0,567380,591.0208333333334
4108,9.0,,,,,,36.0,,,,,,0,note_on,,127.0,36.0,127.0,567380,591.0208333333334
4109,9.0,,,,,,35.0,,,,,,480,note_off,,80.0,35.0,80.0,567860,591.5208333333334
4110,9.0,,,,,,36.0,,,,,,0,note_off,,80.0,36.0,80.0,567860,591.5208333333334
4111,9.0,,,,,,46.0,,,,,,0,note_on,,111.0,46.0,111.0,567860,591.5208333333334
4112,9.0,,,,,,38.0,,,,,,0,note_on,,127.0,38.0,127.0,567860,591.5208333333334
4113,9.0,,,,,,46.0,,,,,,120,note_off,,80.0,46.0,80.0,567980,591.6458333333334
4114,9.0,,,,,,38.0,,,,,,0,note_off,,80.0,38.0,80.0,567980,591.6458333333334
4115,9.0,,,,,,57.0,,,,,,0,note_on,,111.0,57.0,111.0,567980,591.6458333333334
4116,9.0,,,,,,57.0,,,,,,360,note_off,,80.0,57.0,80.0,568340,592.0208333333334
4117,9.0,,,,,,57.0,,,,,,0,note_on,,111.0,57.0,111.0,568340,592.0208333333334
4118,9.0,,,,,,35.0,,,,,,0,note_on,,127.0,35.0,127.0,568340,592.0208333333334
4119,9.0,,,,,,36.0,,,,,,0,note_on,,127.0,36.0,127.0,568340,592.0208333333334
4120,9.0,,,,,,57.0,,,,,,480,note_off,,80.0,57.0,80.0,568820,592.5208333333334
4121,9.0,,,,,,35.0,,,,,,0,note_off,,80.0,35.0,80.0,568820,592.5208333333334
4122,9.0,,,,,,36.0,,,,,,0,note_off,,80.0,36.0,80.0,568820,592.5208333333334
4123,9.0,,,,,,35.0,,,,,,0,note_on,,127.0,35.0,127.0,568820,592.5208333333334
4124,9.0,,,,,,36.0,,,,,,0,note_on,,127.0,36.0,127.0,568820,592.5208333333334
4125,9.0,,,,,,35.0,,,,,,480,note_off,,80.0,35.0,80.0,569300,593.0208333333334
4126,9.0,,,,,,36.0,,,,,,0,note_off,,80.0,36.0,80.0,569300,593.0208333333334
4127,9.0,,,,,,35.0,,,,,,0,note_on,,127.0,35.0,127.0,569300,593.0208333333334
4128,9.0,,,,,,36.0,,,,,,0,note_on,,127.0,36.0,127.0,569300,593.0208333333334
4129,9.0,,,,,,35.0,,,,,,480,note_off,,80.0,35.0,80.0,569780,593.5208333333334
4130,9.0,,,,,,36.0,,,,,,0,note_off,,80.0,36.0,80.0,569780,593.5208333333334
4131,9.0,,,,,,35.0,,,,,,0,note_on,,127.0,35.0,127.0,569780,593.5208333333334
4132,9.0,,,,,,36.0,,,,,,0,note_on,,127.0,36.0,127.0,569780,593.5208333333334
4133,9.0,,,,,,35.0,,,,,,480,note_off,,80.0,35.0,80.0,570260,594.0208333333334
4134,9.0,,,,,,36.0,,,,,,0,note_off,,80.0,36.0,80.0,570260,594.0208333333334
4135,9.0,,,,,,35.0,,,,,,0,note_on,,127.0,35.0,127.0,570260,594.0208333333334
4136,9.0,,,,,,36.0,,,,,,0,note_on,,127.0,36.0,127.0,570260,594.0208333333334
4137,9.0,,,,,,35.0,,,,,,480,note_off,,80.0,35.0,80.0,570740,594.5208333333334
4138,9.0,,,,,,36.0,,,,,,0,note_off,,80.0,36.0,80.0,570740,594.5208333333334
4139,9.0,,,,,,35.0,,,,,,0,note_on,,127.0,35.0,127.0,570740,594.5208333333334
4140,9.0,,,,,,36.0,,,,,,0,note_on,,127.0,36.0,127.0,570740,594.5208333333334
4141,9.0,,,,,,35.0,,,,,,480,note_off,,80.0,35.0,80.0,571220,595.0208333333334
4142,9.0,,,,,,36.0,,,,,,0,note_off,,80.0,36.0,80.0,571220,595.0208333333334
4143,9.0,,,,,,35.0,,,,,,0,note_on,,127.0,35.0,127.0,571220,595.0208333333334
4144,9.0,,,,,,36.0,,,,,,0,note_on,,127.0,36.0,127.0,571220,595.0208333333334
4145,9.0,,,,,,35.0,,,,,,480,note_off,,80.0,35.0,80.0,571700,595.5208333333334
4146,9.0,,,,,,36.0,,,,,,0,note_off,,80.0,36.0,80.0,571700,595.5208333333334
4147,9.0,,,,,,46.0,,,,,,0,note_on,,111.0,46.0,111.0,571700,595.5208333333334
4148,9.0,,,,,,38.0,,,,,,0,note_on,,127.0,38.0,127.0,571700,595.5208333333334
4149,9.0,,,,,,46.0,,,,,,120,note_off,,80.0,46.0,80.0,571820,595.6458333333334
4150,9.0,,,,,,38.0,,,,,,0,note_off,,80.0,38.0,80.0,571820,595.6458333333334
4151,9.0,,,,,,57.0,,,,,,0,note_on,,111.0,57.0,111.0,571820,595.6458333333334
4152,9.0,,,,,,57.0,,,,,,360,note_off,,80.0,57.0,80.0,572180,596.0208333333334
4153,9.0,,,,,,57.0,,,,,,0,note_on,,111.0,57.0,111.0,572180,596.0208333333334
4154,9.0,,,,,,35.0,,,,,,0,note_on,,127.0,35.0,127.0,572180,596.0208333333334
4155,9.0,,,,,,36.0,,,,,,0,note_on,,127.0,36.0,127.0,572180,596.0208333333334
4156,9.0,,,,,,57.0,,,,,,480,note_off,,80.0,57.0,80.0,572660,596.5208333333334
4157,9.0,,,,,,35.0,,,,,,0,note_off,,80.0,35.0,80.0,572660,596.5208333333334
4158,9.0,,,,,,36.0,,,,,,0,note_off,,80.0,36.0,80.0,572660,596.5208333333334
4159,9.0,,,,,,35.0,,,,,,0,note_on,,127.0,35.0,127.0,572660,596.5208333333334
4160,9.0,,,,,,36.0,,,,,,0,note_on,,127.0,36.0,127.0,572660,596.5208333333334
4161,9.0,,,,,,35.0,,,,,,480,note_off,,80.0,35.0,80.0,573140,597.0208333333334
4162,9.0,,,,,,36.0,,,,,,0,note_off,,80.0,36.0,80.0,573140,597.0208333333334
4163,9.0,,,,,,35.0,,,,,,0,note_on,,127.0,35.0,127.0,573140,597.0208333333334
4164,9.0,,,,,,36.0,,,,,,0,note_on,,127.0,36.0,127.0,573140,597.0208333333334
4165,9.0,,,,,,35.0,,,,,,480,note_off,,80.0,35.0,80.0,573620,597.5208333333334
4166,9.0,,,,,,36.0,,,,,,0,note_off,,80.0,36.0,80.0,573620,597.5208333333334
4167,9.0,,,,,,35.0,,,,,,0,note_on,,127.0,35.0,127.0,573620,597.5208333333334
4168,9.0,,,,,,36.0,,,,,,0,note_on,,127.0,36.0,127.0,573620,597.5208333333334
4169,9.0,,,,,,35.0,,,,,,480,note_off,,80.0,35.0,80.0,574100,598.0208333333334
4170,9.0,,,,,,36.0,,,,,,0,note_off,,80.0,36.0,80.0,574100,598.0208333333334
4171,9.0,,,,,,35.0,,,,,,0,note_on,,127.0,35.0,127.0,574100,598.0208333333334
4172,9.0,,,,,,36.0,,,,,,0,note_on,,127.0,36.0,127.0,574100,598.0208333333334
4173,9.0,,,,,,35.0,,,,,,480,note_off,,80.0,35.0,80.0,574580,598.5208333333334
4174,9.0,,,,,,36.0,,,,,,0,note_off,,80.0,36.0,80.0,574580,598.5208333333334
4175,9.0,,,,,,35.0,,,,,,0,note_on,,127.0,35.0,127.0,574580,598.5208333333334
4176,9.0,,,,,,36.0,,,,,,0,note_on,,127.0,36.0,127.0,574580,598.5208333333334
4177,9.0,,,,,,35.0,,,,,,480,note_off,,80.0,35.0,80.0,575060,599.0208333333334
4178,9.0,,,,,,36.0,,,,,,0,note_off,,80.0,36.0,80.0,575060,599.0208333333334
4179,9.0,,,,,,35.0,,,,,,0,note_on,,127.0,35.0,127.0,575060,599.0208333333334
4180,9.0,,,,,,36.0,,,,,,0,note_on,,127.0,36.0,127.0,575060,599.0208333333334
4181,9.0,,,,,,35.0,,,,,,480,note_off,,80.0,35.0,80.0,575540,599.5208333333334
4182,9.0,,,,,,36.0,,,,,,0,note_off,,80.0,36.0,80.0,575540,599.5208333333334
4183,9.0,,,,,,46.0,,,,,,0,note_on,,111.0,46.0,111.0,575540,599.5208333333334
4184,9.0,,,,,,38.0,,,,,,0,note_on,,127.0,38.0,127.0,575540,599.5208333333334
4185,9.0,,,,,,46.0,,,,,,120,note_off,,80.0,46.0,80.0,575660,599.6458333333334
4186,9.0,,,,,,38.0,,,,,,0,note_off,,80.0,38.0,80.0,575660,599.6458333333334
4187,9.0,,,,,,57.0,,,,,,0,note_on,,111.0,57.0,111.0,575660,599.6458333333334
4188,9.0,,,,,,57.0,,,,,,360,note_off,,80.0,57.0,80.0,576020,600.0208333333334
4189,9.0,,,,,,57.0,,,,,,0,note_on,,111.0,57.0,111.0,576020,600.0208333333334
4190,9.0,,,,,,35.0,,,,,,0,note_on,,127.0,35.0,127.0,576020,600.0208333333334
4191,9.0,,,,,,36.0,,,,,,0,note_on,,127.0,36.0,127.0,576020,600.0208333333334
4192,9.0,,,,,,57.0,,,,,,480,note_off,,80.0,57.0,80.0,576500,600.5208333333334
4193,9.0,,,,,,35.0,,,,,,0,note_off,,80.0,35.0,80.0,576500,600.5208333333334
4194,9.0,,,,,,36.0,,,,,,0,note_off,,80.0,36.0,80.0,576500,600.5208333333334
4195,9.0,,,,,,35.0,,,,,,0,note_on,,127.0,35.0,127.0,576500,600.5208333333334
4196,9.0,,,,,,36.0,,,,,,0,note_on,,127.0,36.0,127.0,576500,600.5208333333334
4197,9.0,,,,,,35.0,,,,,,480,note_off,,80.0,35.0,80.0,576980,601.0208333333334
4198,9.0,,,,,,36.0,,,,,,0,note_off,,80.0,36.0,80.0,576980,601.0208333333334
4199,9.0,,,,,,35.0,,,,,,0,note_on,,127.0,35.0,127.0,576980,601.0208333333334
4200,9.0,,,,,,36.0,,,,,,0,note_on,,127.0,36.0,127.0,576980,601.0208333333334
4201,9.0,,,,,,35.0,,,,,,480,note_off,,80.0,35.0,80.0,577460,601.5208333333334
4202,9.0,,,,,,36.0,,,,,,0,note_off,,80.0,36.0,80.0,577460,601.5208333333334
4203,9.0,,,,,,35.0,,,,,,0,note_on,,127.0,35.0,127.0,577460,601.5208333333334
4204,9.0,,,,,,36.0,,,,,,0,note_on,,127.0,36.0,127.0,577460,601.5208333333334
4205,9.0,,,,,,35.0,,,,,,480,note_off,,80.0,35.0,80.0,577940,602.0208333333334
4206,9.0,,,,,,36.0,,,,,,0,note_off,,80.0,36.0,80.0,577940,602.0208333333334
4207,9.0,,,,,,35.0,,,,,,0,note_on,,127.0,35.0,127.0,577940,602.0208333333334
4208,9.0,,,,,,36.0,,,,,,0,note_on,,127.0,36.0,127.0,577940,602.0208333333334
4209,9.0,,,,,,35.0,,,,,,480,note_off,,80.0,35.0,80.0,578420,602.5208333333334
4210,9.0,,,,,,36.0,,,,,,0,note_off,,80.0,36.0,80.0,578420,602.5208333333334
4211,9.0,,,,,,35.0,,,,,,0,note_on,,127.0,35.0,127.0,578420,602.5208333333334
4212,9.0,,,,,,36.0,,,,,,0,note_on,,127.0,36.0,127.0,578420,602.5208333333334
4213,9.0,,,,,,35.0,,,,,,480,note_off,,80.0,35.0,80.0,578900,603.0208333333334
4214,9.0,,,,,,36.0,,,,,,0,note_off,,80.0,36.0,80.0,578900,603.0208333333334
4215,9.0,,,,,,35.0,,,,,,0,note_on,,127.0,35.0,127.0,578900,603.0208333333334
4216,9.0,,,,,,36.0,,,,,,0,note_on,,127.0,36.0,127.0,578900,603.0208333333334
4217,9.0,,,,,,35.0,,,,,,480,note_off,,80.0,35.0,80.0,579380,603.5208333333334
4218,9.0,,,,,,36.0,,,,,,0,note_off,,80.0,36.0,80.0,579380,603.5208333333334
4219,9.0,,,,,,46.0,,,,,,0,note_on,,111.0,46.0,111.0,579380,603.5208333333334
4220,9.0,,,,,,38.0,,,,,,0,note_on,,127.0,38.0,127.0,579380,603.5208333333334
4221,9.0,,,,,,46.0,,,,,,120,note_off,,80.0,46.0,80.0,579500,603.6458333333334
4222,9.0,,,,,,38.0,,,,,,0,note_off,,80.0,38.0,80.0,579500,603.6458333333334
4223,9.0,,,,,,57.0,,,,,,0,note_on,,111.0,57.0,111.0,579500,603.6458333333334
4224,9.0,,,,,,57.0,,,,,,360,note_off,,80.0,57.0,80.0,579860,604.0208333333334
4225,9.0,,,,,,35.0,,,,,,3240,note_on,,127.0,35.0,127.0,583100,607.3958333333334
4226,9.0,,,,,,36.0,,,,,,0,note_on,,127.0,36.0,127.0,583100,607.3958333333334
4227,9.0,,,,,,35.0,,,,,,120,note_off,,80.0,35.0,80.0,583220,607.5208333333334
4228,9.0,,,,,,36.0,,,,,,0,note_off,,80.0,36.0,80.0,583220,607.5208333333334
4229,9.0,,,,,,46.0,,,,,,0,note_on,,111.0,46.0,111.0,583220,607.5208333333334
4230,9.0,,,,,,38.0,,,,,,0,note_on,,127.0,38.0,127.0,583220,607.5208333333334
4231,9.0,,,,,,46.0,,,,,,120,note_off,,80.0,46.0,80.0,583340,607.6458333333334
4232,9.0,,,,,,38.0,,,,,,0,note_off,,80.0,38.0,80.0,583340,607.6458333333334
4233,9.0,,,,,,57.0,,,,,,0,note_on,,111.0,57.0,111.0,583340,607.6458333333334
4234,9.0,,,,,,57.0,,,,,,360,note_off,,80.0,57.0,80.0,583700,608.0208333333334
4235,9.0,,,,,,46.0,,,,,,0,note_on,,111.0,46.0,111.0,583700,608.0208333333334
4236,9.0,,,,,,35.0,,,,,,0,note_on,,127.0,35.0,127.0,583700,608.0208333333334
4237,9.0,,,,,,36.0,,,,,,0,note_on,,127.0,36.0,127.0,583700,608.0208333333334
4238,9.0,,,,,,46.0,,,,,,480,note_off,,80.0,46.0,80.0,584180,608.5208333333334
4239,9.0,,,,,,35.0,,,,,,0,note_off,,80.0,35.0,80.0,584180,608.5208333333334
4240,9.0,,,,,,36.0,,,,,,0,note_off,,80.0,36.0,80.0,584180,608.5208333333334
4241,9.0,,,,,,46.0,,,,,,0,note_on,,111.0,46.0,111.0,584180,608.5208333333334
4242,9.0,,,,,,38.0,,,,,,0,note_on,,127.0,38.0,127.0,584180,608.5208333333334
4243,9.0,,,,,,46.0,,,,,,480,note_off,,80.0,46.0,80.0,584660,609.0208333333334
4244,9.0,,,,,,38.0,,,,,,0,note_off,,80.0,38.0,80.0,584660,609.0208333333334
4245,9.0,,,,,,46.0,,,,,,0,note_on,,111.0,46.0,111.0,584660,609.0208333333334
4246,9.0,,,,,,35.0,,,,,,0,note_on,,127.0,35.0,127.0,584660,609.0208333333334
4247,9.0,,,,,,36.0,,,,,,0,note_on,,127.0,36.0,127.0,584660,609.0208333333334
4248,9.0,,,,,,46.0,,,,,,360,note_off,,80.0,46.0,80.0,585020,609.3958333333334
4249,9.0,,,,,,35.0,,,,,,0,note_off,,80.0,35.0,80.0,585020,609.3958333333334
4250,9.0,,,,,,36.0,,,,,,0,note_off,,80.0,36.0,80.0,585020,609.3958333333334
4251,9.0,,,,,,35.0,,,,,,0,note_on,,127.0,35.0,127.0,585020,609.3958333333334
4252,9.0,,,,,,36.0,,,,,,0,note_on,,127.0,36.0,127.0,585020,609.3958333333334
4253,9.0,,,,,,35.0,,,,,,120,note_off,,80.0,35.0,80.0,585140,609.5208333333334
4254,9.0,,,,,,36.0,,,,,,0,note_off,,80.0,36.0,80.0,585140,609.5208333333334
4255,9.0,,,,,,46.0,,,,,,0,note_on,,111.0,46.0,111.0,585140,609.5208333333334
4256,9.0,,,,,,38.0,,,,,,0,note_on,,127.0,38.0,127.0,585140,609.5208333333334
4257,9.0,,,,,,46.0,,,,,,120,note_off,,80.0,46.0,80.0,585260,609.6458333333334
4258,9.0,,,,,,38.0,,,,,,0,note_off,,80.0,38.0,80.0,585260,609.6458333333334
4259,9.0,,,,,,57.0,,,,,,0,note_on,,111.0,57.0,111.0,585260,609.6458333333334
4260,9.0,,,,,,57.0,,,,,,360,note_off,,80.0,57.0,80.0,585620,610.0208333333334
4261,9.0,,,,,,46.0,,,,,,0,note_on,,111.0,46.0,111.0,585620,610.0208333333334
4262,9.0,,,,,,35.0,,,,,,0,note_on,,127.0,35.0,127.0,585620,610.0208333333334
4263,9.0,,,,,,36.0,,,,,,0,note_on,,127.0,36.0,127.0,585620,610.0208333333334
4264,9.0,,,,,,46.0,,,,,,480,note_off,,80.0,46.0,80.0,586100,610.5208333333334
4265,9.0,,,,,,35.0,,,,,,0,note_off,,80.0,35.0,80.0,586100,610.5208333333334
4266,9.0,,,,,,36.0,,,,,,0,note_off,,80.0,36.0,80.0,586100,610.5208333333334
4267,9.0,,,,,,46.0,,,,,,0,note_on,,111.0,46.0,111.0,586100,610.5208333333334
4268,9.0,,,,,,35.0,,,,,,0,note_on,,95.0,35.0,95.0,586100,610.5208333333334
4269,9.0,,,,,,36.0,,,,,,0,note_on,,95.0,36.0,95.0,586100,610.5208333333334
4270,9.0,,,,,,46.0,,,,,,360,note_off,,80.0,46.0,80.0,586460,610.8958333333334
4271,9.0,,,,,,35.0,,,,,,0,note_off,,80.0,35.0,80.0,586460,610.8958333333334
4272,9.0,,,,,,36.0,,,,,,0,note_off,,80.0,36.0,80.0,586460,610.8958333333334
4273,9.0,,,,,,46.0,,,,,,0,note_on,,111.0,46.0,111.0,586460,610.8958333333334
4274,9.0,,,,,,35.0,,,,,,0,note_on,,95.0,35.0,95.0,586460,610.8958333333334
4275,9.0,,,,,,36.0,,,,,,0,note_on,,95.0,36.0,95.0,586460,610.8958333333334
4276,9.0,,,,,,46.0,,,,,,240,note_off,,80.0,46.0,80.0,586700,611.1458333333334
4277,9.0,,,,,,35.0,,,,,,0,note_off,,80.0,35.0,80.0,586700,611.1458333333334
4278,9.0,,,,,,36.0,,,,,,0,note_off,,80.0,36.0,80.0,586700,611.1458333333334
4279,9.0,,,,,,46.0,,,,,,0,note_on,,111.0,46.0,111.0,586700,611.1458333333334
4280,9.0,,,,,,35.0,,,,,,0,note_on,,95.0,35.0,95.0,586700,611.1458333333334
4281,9.0,,,,,,36.0,,,,,,0,note_on,,95.0,36.0,95.0,586700,611.1458333333334
4282,9.0,,,,,,46.0,,,,,,240,note_off,,80.0,46.0,80.0,586940,611.3958333333334
4283,9.0,,,,,,35.0,,,,,,0,note_off,,80.0,35.0,80.0,586940,611.3958333333334
4284,9.0,,,,,,36.0,,,,,,0,note_off,,80.0,36.0,80.0,586940,611.3958333333334
4285,9.0,,,,,,35.0,,,,,,0,note_on,,95.0,35.0,95.0,586940,611.3958333333334
4286,9.0,,,,,,36.0,,,,,,0,note_on,,95.0,36.0,95.0,586940,611.3958333333334
4287,9.0,,,,,,35.0,,,,,,120,note_off,,80.0,35.0,80.0,587060,611.5208333333334
4288,9.0,,,,,,36.0,,,,,,0,note_off,,80.0,36.0,80.0,587060,611.5208333333334
4289,9.0,,,,,,57.0,,,,,,0,note_on,,111.0,57.0,111.0,587060,611.5208333333334
4290,9.0,,,,,,35.0,,,,,,0,note_on,,95.0,35.0,95.0,587060,611.5208333333334
4291,9.0,,,,,,36.0,,,,,,0,note_on,,95.0,36.0,95.0,587060,611.5208333333334
4292,9.0,,,,,,57.0,,,,,,480,note_off,,80.0,57.0,80.0,587540,612.0208333333334
4293,9.0,,,,,,35.0,,,,,,0,note_off,,80.0,35.0,80.0,587540,612.0208333333334
4294,9.0,,,,,,36.0,,,,,,0,note_off,,80.0,36.0,80.0,587540,612.0208333333334
4295,9.0,,,,,,46.0,,,,,,0,note_on,,111.0,46.0,111.0,587540,612.0208333333334
4296,9.0,,,,,,35.0,,,,,,0,note_on,,127.0,35.0,127.0,587540,612.0208333333334
4297,9.0,,,,,,36.0,,,,,,0,note_on,,127.0,36.0,127.0,587540,612.0208333333334
4298,9.0,,,,,,46.0,,,,,,480,note_off,,80.0,46.0,80.0,588020,612.5208333333334
4299,9.0,,,,,,35.0,,,,,,0,note_off,,80.0,35.0,80.0,588020,612.5208333333334
4300,9.0,,,,,,36.0,,,,,,0,note_off,,80.0,36.0,80.0,588020,612.5208333333334
4301,9.0,,,,,,46.0,,,,,,0,note_on,,111.0,46.0,111.0,588020,612.5208333333334
4302,9.0,,,,,,38.0,,,,,,0,note_on,,127.0,38.0,127.0,588020,612.5208333333334
4303,9.0,,,,,,46.0,,,,,,480,note_off,,80.0,46.0,80.0,588500,613.0208333333334
4304,9.0,,,,,,38.0,,,,,,0,note_off,,80.0,38.0,80.0,588500,613.0208333333334
4305,9.0,,,,,,46.0,,,,,,0,note_on,,111.0,46.0,111.0,588500,613.0208333333334
4306,9.0,,,,,,35.0,,,,,,0,note_on,,127.0,35.0,127.0,588500,613.0208333333334
4307,9.0,,,,,,36.0,,,,,,0,note_on,,127.0,36.0,127.0,588500,613.0208333333334
4308,9.0,,,,,,46.0,,,,,,360,note_off,,80.0,46.0,80.0,588860,613.3958333333334
4309,9.0,,,,,,35.0,,,,,,0,note_off,,80.0,35.0,80.0,588860,613.3958333333334
4310,9.0,,,,,,36.0,,,,,,0,note_off,,80.0,36.0,80.0,588860,613.3958333333334
4311,9.0,,,,,,35.0,,,,,,0,note_on,,127.0,35.0,127.0,588860,613.3958333333334
4312,9.0,,,,,,36.0,,,,,,0,note_on,,127.0,36.0,127.0,588860,613.3958333333334
4313,9.0,,,,,,35.0,,,,,,120,note_off,,80.0,35.0,80.0,588980,613.5208333333334
4314,9.0,,,,,,36.0,,,,,,0,note_off,,80.0,36.0,80.0,588980,613.5208333333334
4315,9.0,,,,,,46.0,,,,,,0,note_on,,111.0,46.0,111.0,588980,613.5208333333334
4316,9.0,,,,,,38.0,,,,,,0,note_on,,127.0,38.0,127.0,588980,613.5208333333334
4317,9.0,,,,,,46.0,,,,,,120,note_off,,80.0,46.0,80.0,589100,613.6458333333334
4318,9.0,,,,,,38.0,,,,,,0,note_off,,80.0,38.0,80.0,589100,613.6458333333334
4319,9.0,,,,,,57.0,,,,,,0,note_on,,111.0,57.0,111.0,589100,613.6458333333334
4320,9.0,,,,,,57.0,,,,,,360,note_off,,80.0,57.0,80.0,589460,614.0208333333334
4321,9.0,,,,,,46.0,,,,,,0,note_on,,111.0,46.0,111.0,589460,614.0208333333334
4322,9.0,,,,,,35.0,,,,,,0,note_on,,127.0,35.0,127.0,589460,614.0208333333334
4323,9.0,,,,,,36.0,,,,,,0,note_on,,127.0,36.0,127.0,589460,614.0208333333334
4324,9.0,,,,,,46.0,,,,,,480,note_off,,80.0,46.0,80.0,589940,614.5208333333334
4325,9.0,,,,,,35.0,,,,,,0,note_off,,80.0,35.0,80.0,589940,614.5208333333334
4326,9.0,,,,,,36.0,,,,,,0,note_off,,80.0,36.0,80.0,589940,614.5208333333334
4327,9.0,,,,,,46.0,,,,,,0,note_on,,111.0,46.0,111.0,589940,614.5208333333334
4328,9.0,,,,,,38.0,,,,,,0,note_on,,127.0,38.0,127.0,589940,614.5208333333334
4329,9.0,,,,,,46.0,,,,,,480,note_off,,80.0,46.0,80.0,590420,615.0208333333334
4330,9.0,,,,,,38.0,,,,,,0,note_off,,80.0,38.0,80.0,590420,615.0208333333334
4331,9.0,,,,,,46.0,,,,,,0,note_on,,111.0,46.0,111.0,590420,615.0208333333334
4332,9.0,,,,,,35.0,,,,,,0,note_on,,127.0,35.0,127.0,590420,615.0208333333334
4333,9.0,,,,,,36.0,,,,,,0,note_on,,127.0,36.0,127.0,590420,615.0208333333334
4334,9.0,,,,,,46.0,,,,,,360,note_off,,80.0,46.0,80.0,590780,615.3958333333334
4335,9.0,,,,,,35.0,,,,,,0,note_off,,80.0,35.0,80.0,590780,615.3958333333334
4336,9.0,,,,,,36.0,,,,,,0,note_off,,80.0,36.0,80.0,590780,615.3958333333334
4337,9.0,,,,,,35.0,,,,,,0,note_on,,127.0,35.0,127.0,590780,615.3958333333334
4338,9.0,,,,,,36.0,,,,,,0,note_on,,127.0,36.0,127.0,590780,615.3958333333334
4339,9.0,,,,,,35.0,,,,,,120,note_off,,80.0,35.0,80.0,590900,615.5208333333334
4340,9.0,,,,,,36.0,,,,,,0,note_off,,80.0,36.0,80.0,590900,615.5208333333334
4341,9.0,,,,,,46.0,,,,,,0,note_on,,111.0,46.0,111.0,590900,615.5208333333334
4342,9.0,,,,,,38.0,,,,,,0,note_on,,127.0,38.0,127.0,590900,615.5208333333334
4343,9.0,,,,,,46.0,,,,,,120,note_off,,80.0,46.0,80.0,591020,615.6458333333334
4344,9.0,,,,,,38.0,,,,,,0,note_off,,80.0,38.0,80.0,591020,615.6458333333334
4345,9.0,,,,,,57.0,,,,,,0,note_on,,111.0,57.0,111.0,591020,615.6458333333334
4346,9.0,,,,,,57.0,,,,,,360,note_off,,80.0,57.0,80.0,591380,616.0208333333334
4347,9.0,,,,,,46.0,,,,,,0,note_on,,111.0,46.0,111.0,591380,616.0208333333334
4348,9.0,,,,,,35.0,,,,,,0,note_on,,127.0,35.0,127.0,591380,616.0208333333334
4349,9.0,,,,,,36.0,,,,,,0,note_on,,127.0,36.0,127.0,591380,616.0208333333334
4350,9.0,,,,,,46.0,,,,,,480,note_off,,80.0,46.0,80.0,591860,616.5208333333334
4351,9.0,,,,,,35.0,,,,,,0,note_off,,80.0,35.0,80.0,591860,616.5208333333334
4352,9.0,,,,,,36.0,,,,,,0,note_off,,80.0,36.0,80.0,591860,616.5208333333334
4353,9.0,,,,,,46.0,,,,,,0,note_on,,111.0,46.0,111.0,591860,616.5208333333334
4354,9.0,,,,,,38.0,,,,,,0,note_on,,127.0,38.0,127.0,591860,616.5208333333334
4355,9.0,,,,,,46.0,,,,,,480,note_off,,80.0,46.0,80.0,592340,617.0208333333334
4356,9.0,,,,,,38.0,,,,,,0,note_off,,80.0,38.0,80.0,592340,617.0208333333334
4357,9.0,,,,,,46.0,,,,,,0,note_on,,111.0,46.0,111.0,592340,617.0208333333334
4358,9.0,,,,,,35.0,,,,,,0,note_on,,127.0,35.0,127.0,592340,617.0208333333334
4359,9.0,,,,,,36.0,,,,,,0,note_on,,127.0,36.0,127.0,592340,617.0208333333334
4360,9.0,,,,,,46.0,,,,,,360,note_off,,80.0,46.0,80.0,592700,617.3958333333334
4361,9.0,,,,,,35.0,,,,,,0,note_off,,80.0,35.0,80.0,592700,617.3958333333334
4362,9.0,,,,,,36.0,,,,,,0,note_off,,80.0,36.0,80.0,592700,617.3958333333334
4363,9.0,,,,,,35.0,,,,,,0,note_on,,127.0,35.0,127.0,592700,617.3958333333334
4364,9.0,,,,,,36.0,,,,,,0,note_on,,127.0,36.0,127.0,592700,617.3958333333334
4365,9.0,,,,,,35.0,,,,,,120,note_off,,80.0,35.0,80.0,592820,617.5208333333334
4366,9.0,,,,,,36.0,,,,,,0,note_off,,80.0,36.0,80.0,592820,617.5208333333334
4367,9.0,,,,,,46.0,,,,,,0,note_on,,111.0,46.0,111.0,592820,617.5208333333334
4368,9.0,,,,,,38.0,,,,,,0,note_on,,127.0,38.0,127.0,592820,617.5208333333334
4369,9.0,,,,,,46.0,,,,,,120,note_off,,80.0,46.0,80.0,592940,617.6458333333334
4370,9.0,,,,,,38.0,,,,,,0,note_off,,80.0,38.0,80.0,592940,617.6458333333334
4371,9.0,,,,,,57.0,,,,,,0,note_on,,111.0,57.0,111.0,592940,617.6458333333334
4372,9.0,,,,,,57.0,,,,,,360,note_off,,80.0,57.0,80.0,593300,618.0208333333334
4373,9.0,,,,,,46.0,,,,,,0,note_on,,111.0,46.0,111.0,593300,618.0208333333334
4374,9.0,,,,,,35.0,,,,,,0,note_on,,127.0,35.0,127.0,593300,618.0208333333334
4375,9.0,,,,,,36.0,,,,,,0,note_on,,127.0,36.0,127.0,593300,618.0208333333334
4376,9.0,,,,,,46.0,,,,,,480,note_off,,80.0,46.0,80.0,593780,618.5208333333334
4377,9.0,,,,,,35.0,,,,,,0,note_off,,80.0,35.0,80.0,593780,618.5208333333334
4378,9.0,,,,,,36.0,,,,,,0,note_off,,80.0,36.0,80.0,593780,618.5208333333334
4379,9.0,,,,,,46.0,,,,,,0,note_on,,111.0,46.0,111.0,593780,618.5208333333334
4380,9.0,,,,,,35.0,,,,,,0,note_on,,95.0,35.0,95.0,593780,618.5208333333334
4381,9.0,,,,,,36.0,,,,,,0,note_on,,95.0,36.0,95.0,593780,618.5208333333334
4382,9.0,,,,,,46.0,,,,,,360,note_off,,80.0,46.0,80.0,594140,618.8958333333334
4383,9.0,,,,,,35.0,,,,,,0,note_off,,80.0,35.0,80.0,594140,618.8958333333334
4384,9.0,,,,,,36.0,,,,,,0,note_off,,80.0,36.0,80.0,594140,618.8958333333334
4385,9.0,,,,,,46.0,,,,,,0,note_on,,111.0,46.0,111.0,594140,618.8958333333334
4386,9.0,,,,,,35.0,,,,,,0,note_on,,95.0,35.0,95.0,594140,618.8958333333334
4387,9.0,,,,,,36.0,,,,,,0,note_on,,95.0,36.0,95.0,594140,618.8958333333334
4388,9.0,,,,,,46.0,,,,,,240,note_off,,80.0,46.0,80.0,594380,619.1458333333334
4389,9.0,,,,,,35.0,,,,,,0,note_off,,80.0,35.0,80.0,594380,619.1458333333334
4390,9.0,,,,,,36.0,,,,,,0,note_off,,80.0,36.0,80.0,594380,619.1458333333334
4391,9.0,,,,,,46.0,,,,,,0,note_on,,111.0,46.0,111.0,594380,619.1458333333334
4392,9.0,,,,,,35.0,,,,,,0,note_on,,95.0,35.0,95.0,594380,619.1458333333334
4393,9.0,,,,,,36.0,,,,,,0,note_on,,95.0,36.0,95.0,594380,619.1458333333334
4394,9.0,,,,,,46.0,,,,,,240,note_off,,80.0,46.0,80.0,594620,619.3958333333334
4395,9.0,,,,,,35.0,,,,,,0,note_off,,80.0,35.0,80.0,594620,619.3958333333334
4396,9.0,,,,,,36.0,,,,,,0,note_off,,80.0,36.0,80.0,594620,619.3958333333334
4397,9.0,,,,,,35.0,,,,,,0,note_on,,95.0,35.0,95.0,594620,619.3958333333334
4398,9.0,,,,,,36.0,,,,,,0,note_on,,95.0,36.0,95.0,594620,619.3958333333334
4399,9.0,,,,,,35.0,,,,,,120,note_off,,80.0,35.0,80.0,594740,619.5208333333334
4400,9.0,,,,,,36.0,,,,,,0,note_off,,80.0,36.0,80.0,594740,619.5208333333334
4401,9.0,,,,,,57.0,,,,,,0,note_on,,111.0,57.0,111.0,594740,619.5208333333334
4402,9.0,,,,,,35.0,,,,,,0,note_on,,95.0,35.0,95.0,594740,619.5208333333334
4403,9.0,,,,,,36.0,,,,,,0,note_on,,95.0,36.0,95.0,594740,619.5208333333334
4404,9.0,,,,,,57.0,,,,,,480,note_off,,80.0,57.0,80.0,595220,620.0208333333334
4405,9.0,,,,,,35.0,,,,,,0,note_off,,80.0,35.0,80.0,595220,620.0208333333334
4406,9.0,,,,,,36.0,,,,,,0,note_off,,80.0,36.0,80.0,595220,620.0208333333334
4407,9.0,,,,,,57.0,,,,,,0,note_on,,95.0,57.0,95.0,595220,620.0208333333334
4408,9.0,,,,,,35.0,,,,,,0,note_on,,95.0,35.0,95.0,595220,620.0208333333334
4409,9.0,,,,,,36.0,,,,,,0,note_on,,95.0,36.0,95.0,595220,620.0208333333334
4410,9.0,,,,,,57.0,,,,,,480,note_off,,80.0,57.0,80.0,595700,620.5208333333334
4411,9.0,,,,,,35.0,,,,,,0,note_off,,80.0,35.0,80.0,595700,620.5208333333334
4412,9.0,,,,,,36.0,,,,,,0,note_off,,80.0,36.0,80.0,595700,620.5208333333334
4413,9.0,,,,,,57.0,,,,,,0,note_on,,95.0,57.0,95.0,595700,620.5208333333334
4414,9.0,,,,,,35.0,,,,,,0,note_on,,95.0,35.0,95.0,595700,620.5208333333334
4415,9.0,,,,,,36.0,,,,,,0,note_on,,95.0,36.0,95.0,595700,620.5208333333334
4416,9.0,,,,,,57.0,,,,,,480,note_off,,80.0,57.0,80.0,596180,621.0208333333334
4417,9.0,,,,,,35.0,,,,,,0,note_off,,80.0,35.0,80.0,596180,621.0208333333334
4418,9.0,,,,,,36.0,,,,,,0,note_off,,80.0,36.0,80.0,596180,621.0208333333334
4419,9.0,,,,,,57.0,,,,,,0,note_on,,95.0,57.0,95.0,596180,621.0208333333334
4420,9.0,,,,,,35.0,,,,,,0,note_on,,95.0,35.0,95.0,596180,621.0208333333334
4421,9.0,,,,,,36.0,,,,,,0,note_on,,95.0,36.0,95.0,596180,621.0208333333334
4422,9.0,,,,,,57.0,,,,,,480,note_off,,80.0,57.0,80.0,596660,621.5208333333334
4423,9.0,,,,,,35.0,,,,,,0,note_off,,80.0,35.0,80.0,596660,621.5208333333334
4424,9.0,,,,,,36.0,,,,,,0,note_off,,80.0,36.0,80.0,596660,621.5208333333334
4425,9.0,,,,,,57.0,,,,,,0,note_on,,95.0,57.0,95.0,596660,621.5208333333334
4426,9.0,,,,,,35.0,,,,,,0,note_on,,95.0,35.0,95.0,596660,621.5208333333334
4427,9.0,,,,,,36.0,,,,,,0,note_on,,95.0,36.0,95.0,596660,621.5208333333334
4428,9.0,,,,,,57.0,,,,,,480,note_off,,80.0,57.0,80.0,597140,622.0208333333334
4429,9.0,,,,,,35.0,,,,,,0,note_off,,80.0,35.0,80.0,597140,622.0208333333334
4430,9.0,,,,,,36.0,,,,,,0,note_off,,80.0,36.0,80.0,597140,622.0208333333334
4431,9.0,,,,,,57.0,,,,,,0,note_on,,95.0,57.0,95.0,597140,622.0208333333334
4432,9.0,,,,,,35.0,,,,,,0,note_on,,95.0,35.0,95.0,597140,622.0208333333334
4433,9.0,,,,,,36.0,,,,,,0,note_on,,95.0,36.0,95.0,597140,622.0208333333334
4434,9.0,,,,,,57.0,,,,,,480,note_off,,80.0,57.0,80.0,597620,622.5208333333334
4435,9.0,,,,,,35.0,,,,,,0,note_off,,80.0,35.0,80.0,597620,622.5208333333334
4436,9.0,,,,,,36.0,,,,,,0,note_off,,80.0,36.0,80.0,597620,622.5208333333334
4437,9.0,,,,,,57.0,,,,,,0,note_on,,95.0,57.0,95.0,597620,622.5208333333334
4438,9.0,,,,,,35.0,,,,,,0,note_on,,95.0,35.0,95.0,597620,622.5208333333334
4439,9.0,,,,,,36.0,,,,,,0,note_on,,95.0,36.0,95.0,597620,622.5208333333334
4440,9.0,,,,,,57.0,,,,,,480,note_off,,80.0,57.0,80.0,598100,623.0208333333334
4441,9.0,,,,,,35.0,,,,,,0,note_off,,80.0,35.0,80.0,598100,623.0208333333334
4442,9.0,,,,,,36.0,,,,,,0,note_off,,80.0,36.0,80.0,598100,623.0208333333334
4443,9.0,,,,,,57.0,,,,,,0,note_on,,95.0,57.0,95.0,598100,623.0208333333334
4444,9.0,,,,,,35.0,,,,,,0,note_on,,95.0,35.0,95.0,598100,623.0208333333334
4445,9.0,,,,,,36.0,,,,,,0,note_on,,95.0,36.0,95.0,598100,623.0208333333334
4446,9.0,,,,,,57.0,,,,,,480,note_off,,80.0,57.0,80.0,598580,623.5208333333334
4447,9.0,,,,,,35.0,,,,,,0,note_off,,80.0,35.0,80.0,598580,623.5208333333334
4448,9.0,,,,,,36.0,,,,,,0,note_off,,80.0,36.0,80.0,598580,623.5208333333334
4449,9.0,,,,,,57.0,,,,,,0,note_on,,95.0,57.0,95.0,598580,623.5208333333334
4450,9.0,,,,,,35.0,,,,,,0,note_on,,95.0,35.0,95.0,598580,623.5208333333334
4451,9.0,,,,,,36.0,,,,,,0,note_on,,95.0,36.0,95.0,598580,623.5208333333334
4452,9.0,,,,,,57.0,,,,,,480,note_off,,80.0,57.0,80.0,599060,624.0208333333334
4453,9.0,,,,,,35.0,,,,,,0,note_off,,80.0,35.0,80.0,599060,624.0208333333334
4454,9.0,,,,,,36.0,,,,,,0,note_off,,80.0,36.0,80.0,599060,624.0208333333334
4455,9.0,,,,,,57.0,,,,,,0,note_on,,95.0,57.0,95.0,599060,624.0208333333334
4456,9.0,,,,,,35.0,,,,,,0,note_on,,95.0,35.0,95.0,599060,624.0208333333334
4457,9.0,,,,,,36.0,,,,,,0,note_on,,95.0,36.0,95.0,599060,624.0208333333334
4458,9.0,,,,,,57.0,,,,,,480,note_off,,80.0,57.0,80.0,599540,624.5208333333334
4459,9.0,,,,,,35.0,,,,,,0,note_off,,80.0,35.0,80.0,599540,624.5208333333334
4460,9.0,,,,,,36.0,,,,,,0,note_off,,80.0,36.0,80.0,599540,624.5208333333334
4461,9.0,,,,,,57.0,,,,,,0,note_on,,95.0,57.0,95.0,599540,624.5208333333334
4462,9.0,,,,,,35.0,,,,,,0,note_on,,95.0,35.0,95.0,599540,624.5208333333334
4463,9.0,,,,,,36.0,,,,,,0,note_on,,95.0,36.0,95.0,599540,624.5208333333334
4464,9.0,,,,,,57.0,,,,,,480,note_off,,80.0,57.0,80.0,600020,625.0208333333334
4465,9.0,,,,,,35.0,,,,,,0,note_off,,80.0,35.0,80.0,600020,625.0208333333334
4466,9.0,,,,,,36.0,,,,,,0,note_off,,80.0,36.0,80.0,600020,625.0208333333334
4467,9.0,,,,,,57.0,,,,,,0,note_on,,95.0,57.0,95.0,600020,625.0208333333334
4468,9.0,,,,,,35.0,,,,,,0,note_on,,95.0,35.0,95.0,600020,625.0208333333334
4469,9.0,,,,,,36.0,,,,,,0,note_on,,95.0,36.0,95.0,600020,625.0208333333334
4470,9.0,,,,,,57.0,,,,,,480,note_off,,80.0,57.0,80.0,600500,625.5208333333334
4471,9.0,,,,,,35.0,,,,,,0,note_off,,80.0,35.0,80.0,600500,625.5208333333334
4472,9.0,,,,,,36.0,,,,,,0,note_off,,80.0,36.0,80.0,600500,625.5208333333334
4473,9.0,,,,,,57.0,,,,,,0,note_on,,95.0,57.0,95.0,600500,625.5208333333334
4474,9.0,,,,,,35.0,,,,,,0,note_on,,95.0,35.0,95.0,600500,625.5208333333334
4475,9.0,,,,,,36.0,,,,,,0,note_on,,95.0,36.0,95.0,600500,625.5208333333334
4476,9.0,,,,,,57.0,,,,,,480,note_off,,80.0,57.0,80.0,600980,626.0208333333334
4477,9.0,,,,,,35.0,,,,,,0,note_off,,80.0,35.0,80.0,600980,626.0208333333334
4478,9.0,,,,,,36.0,,,,,,0,note_off,,80.0,36.0,80.0,600980,626.0208333333334
4479,9.0,,,,,,57.0,,,,,,0,note_on,,95.0,57.0,95.0,600980,626.0208333333334
4480,9.0,,,,,,35.0,,,,,,0,note_on,,95.0,35.0,95.0,600980,626.0208333333334
4481,9.0,,,,,,36.0,,,,,,0,note_on,,95.0,36.0,95.0,600980,626.0208333333334
4482,9.0,,,,,,57.0,,,,,,480,note_off,,80.0,57.0,80.0,601460,626.5208333333334
4483,9.0,,,,,,35.0,,,,,,0,note_off,,80.0,35.0,80.0,601460,626.5208333333334
4484,9.0,,,,,,36.0,,,,,,0,note_off,,80.0,36.0,80.0,601460,626.5208333333334
4485,9.0,,,,,,57.0,,,,,,0,note_on,,95.0,57.0,95.0,601460,626.5208333333334
4486,9.0,,,,,,35.0,,,,,,0,note_on,,95.0,35.0,95.0,601460,626.5208333333334
4487,9.0,,,,,,36.0,,,,,,0,note_on,,95.0,36.0,95.0,601460,626.5208333333334
4488,9.0,,,,,,57.0,,,,,,480,note_off,,80.0,57.0,80.0,601940,627.0208333333334
4489,9.0,,,,,,35.0,,,,,,0,note_off,,80.0,35.0,80.0,601940,627.0208333333334
4490,9.0,,,,,,36.0,,,,,,0,note_off,,80.0,36.0,80.0,601940,627.0208333333334
4491,9.0,,,,,,57.0,,,,,,0,note_on,,95.0,57.0,95.0,601940,627.0208333333334
4492,9.0,,,,,,35.0,,,,,,0,note_on,,95.0,35.0,95.0,601940,627.0208333333334
4493,9.0,,,,,,36.0,,,,,,0,note_on,,95.0,36.0,95.0,601940,627.0208333333334
4494,9.0,,,,,,57.0,,,,,,480,note_off,,80.0,57.0,80.0,602420,627.5208333333334
4495,9.0,,,,,,35.0,,,,,,0,note_off,,80.0,35.0,80.0,602420,627.5208333333334
4496,9.0,,,,,,36.0,,,,,,0,note_off,,80.0,36.0,80.0,602420,627.5208333333334
4497,9.0,,,,,,57.0,,,,,,0,note_on,,95.0,57.0,95.0,602420,627.5208333333334
4498,9.0,,,,,,35.0,,,,,,0,note_on,,95.0,35.0,95.0,602420,627.5208333333334
4499,9.0,,,,,,36.0,,,,,,0,note_on,,95.0,36.0,95.0,602420,627.5208333333334
4500,9.0,,,,,,57.0,,,,,,480,note_off,,80.0,57.0,80.0,602900,628.0208333333334
4501,9.0,,,,,,35.0,,,,,,0,note_off,,80.0,35.0,80.0,602900,628.0208333333334
4502,9.0,,,,,,36.0,,,,,,0,note_off,,80.0,36.0,80.0,602900,628.0208333333334
4503,9.0,,,,,,57.0,,,,,,0,note_on,,111.0,57.0,111.0,602900,628.0208333333334
4504,9.0,,,,,,35.0,,,,,,0,note_on,,127.0,35.0,127.0,602900,628.0208333333334
4505,9.0,,,,,,36.0,,,,,,0,note_on,,127.0,36.0,127.0,602900,628.0208333333334
4506,9.0,,,,,,57.0,,,,,,480,note_off,,80.0,57.0,80.0,603380,628.5208333333334
4507,9.0,,,,,,35.0,,,,,,0,note_off,,80.0,35.0,80.0,603380,628.5208333333334
4508,9.0,,,,,,36.0,,,,,,0,note_off,,80.0,36.0,80.0,603380,628.5208333333334
4509,9.0,,,,,,35.0,,,,,,0,note_on,,127.0,35.0,127.0,603380,628.5208333333334
4510,9.0,,,,,,36.0,,,,,,0,note_on,,127.0,36.0,127.0,603380,628.5208333333334
4511,9.0,,,,,,35.0,,,,,,480,note_off,,80.0,35.0,80.0,603860,629.0208333333334
4512,9.0,,,,,,36.0,,,,,,0,note_off,,80.0,36.0,80.0,603860,629.0208333333334
4513,9.0,,,,,,35.0,,,,,,0,note_on,,127.0,35.0,127.0,603860,629.0208333333334
4514,9.0,,,,,,36.0,,,,,,0,note_on,,127.0,36.0,127.0,603860,629.0208333333334
4515,9.0,,,,,,35.0,,,,,,480,note_off,,80.0,35.0,80.0,604340,629.5208333333334
4516,9.0,,,,,,36.0,,,,,,0,note_off,,80.0,36.0,80.0,604340,629.5208333333334
4517,9.0,,,,,,35.0,,,,,,0,note_on,,127.0,35.0,127.0,604340,629.5208333333334
4518,9.0,,,,,,36.0,,,,,,0,note_on,,127.0,36.0,127.0,604340,629.5208333333334
4519,9.0,,,,,,35.0,,,,,,480,note_off,,80.0,35.0,80.0,604820,630.0208333333334
4520,9.0,,,,,,36.0,,,,,,0,note_off,,80.0,36.0,80.0,604820,630.0208333333334
4521,9.0,,,,,,35.0,,,,,,0,note_on,,127.0,35.0,127.0,604820,630.0208333333334
4522,9.0,,,,,,36.0,,,,,,0,note_on,,127.0,36.0,127.0,604820,630.0208333333334
4523,9.0,,,,,,35.0,,,,,,480,note_off,,80.0,35.0,80.0,605300,630.5208333333334
4524,9.0,,,,,,36.0,,,,,,0,note_off,,80.0,36.0,80.0,605300,630.5208333333334
4525,9.0,,,,,,35.0,,,,,,0,note_on,,127.0,35.0,127.0,605300,630.5208333333334
4526,9.0,,,,,,36.0,,,,,,0,note_on,,127.0,36.0,127.0,605300,630.5208333333334
4527,9.0,,,,,,35.0,,,,,,480,note_off,,80.0,35.0,80.0,605780,631.0208333333334
4528,9.0,,,,,,36.0,,,,,,0,note_off,,80.0,36.0,80.0,605780,631.0208333333334
4529,9.0,,,,,,35.0,,,,,,0,note_on,,127.0,35.0,127.0,605780,631.0208333333334
4530,9.0,,,,,,36.0,,,,,,0,note_on,,127.0,36.0,127.0,605780,631.0208333333334
4531,9.0,,,,,,35.0,,,,,,480,note_off,,80.0,35.0,80.0,606260,631.5208333333334
4532,9.0,,,,,,36.0,,,,,,0,note_off,,80.0,36.0,80.0,606260,631.5208333333334
4533,9.0,,,,,,46.0,,,,,,0,note_on,,111.0,46.0,111.0,606260,631.5208333333334
4534,9.0,,,,,,38.0,,,,,,0,note_on,,127.0,38.0,127.0,606260,631.5208333333334
4535,9.0,,,,,,46.0,,,,,,120,note_off,,80.0,46.0,80.0,606380,631.6458333333334
4536,9.0,,,,,,38.0,,,,,,0,note_off,,80.0,38.0,80.0,606380,631.6458333333334
4537,9.0,,,,,,57.0,,,,,,0,note_on,,111.0,57.0,111.0,606380,631.6458333333334
4538,9.0,,,,,,57.0,,,,,,360,note_off,,80.0,57.0,80.0,606740,632.0208333333334
4539,9.0,,,,,,57.0,,,,,,0,note_on,,111.0,57.0,111.0,606740,632.0208333333334
4540,9.0,,,,,,35.0,,,,,,0,note_on,,127.0,35.0,127.0,606740,632.0208333333334
4541,9.0,,,,,,36.0,,,,,,0,note_on,,127.0,36.0,127.0,606740,632.0208333333334
4542,9.0,,,,,,57.0,,,,,,480,note_off,,80.0,57.0,80.0,607220,632.5208333333334
4543,9.0,,,,,,35.0,,,,,,0,note_off,,80.0,35.0,80.0,607220,632.5208333333334
4544,9.0,,,,,,36.0,,,,,,0,note_off,,80.0,36.0,80.0,607220,632.5208333333334
4545,9.0,,,,,,35.0,,,,,,0,note_on,,127.0,35.0,127.0,607220,632.5208333333334
4546,9.0,,,,,,36.0,,,,,,0,note_on,,127.0,36.0,127.0,607220,632.5208333333334
4547,9.0,,,,,,35.0,,,,,,480,note_off,,80.0,35.0,80.0,607700,633.0208333333334
4548,9.0,,,,,,36.0,,,,,,0,note_off,,80.0,36.0,80.0,607700,633.0208333333334
4549,9.0,,,,,,35.0,,,,,,0,note_on,,127.0,35.0,127.0,607700,633.0208333333334
4550,9.0,,,,,,36.0,,,,,,0,note_on,,127.0,36.0,127.0,607700,633.0208333333334
4551,9.0,,,,,,35.0,,,,,,480,note_off,,80.0,35.0,80.0,608180,633.5208333333334
4552,9.0,,,,,,36.0,,,,,,0,note_off,,80.0,36.0,80.0,608180,633.5208333333334
4553,9.0,,,,,,35.0,,,,,,0,note_on,,127.0,35.0,127.0,608180,633.5208333333334
4554,9.0,,,,,,36.0,,,,,,0,note_on,,127.0,36.0,127.0,608180,633.5208333333334
4555,9.0,,,,,,35.0,,,,,,480,note_off,,80.0,35.0,80.0,608660,634.0208333333334
4556,9.0,,,,,,36.0,,,,,,0,note_off,,80.0,36.0,80.0,608660,634.0208333333334
4557,9.0,,,,,,35.0,,,,,,0,note_on,,127.0,35.0,127.0,608660,634.0208333333334
4558,9.0,,,,,,36.0,,,,,,0,note_on,,127.0,36.0,127.0,608660,634.0208333333334
4559,9.0,,,,,,35.0,,,,,,480,note_off,,80.0,35.0,80.0,609140,634.5208333333334
4560,9.0,,,,,,36.0,,,,,,0,note_off,,80.0,36.0,80.0,609140,634.5208333333334
4561,9.0,,,,,,35.0,,,,,,0,note_on,,127.0,35.0,127.0,609140,634.5208333333334
4562,9.0,,,,,,36.0,,,,,,0,note_on,,127.0,36.0,127.0,609140,634.5208333333334
4563,9.0,,,,,,35.0,,,,,,480,note_off,,80.0,35.0,80.0,609620,635.0208333333334
4564,9.0,,,,,,36.0,,,,,,0,note_off,,80.0,36.0,80.0,609620,635.0208333333334
4565,9.0,,,,,,35.0,,,,,,0,note_on,,127.0,35.0,127.0,609620,635.0208333333334
4566,9.0,,,,,,36.0,,,,,,0,note_on,,127.0,36.0,127.0,609620,635.0208333333334
4567,9.0,,,,,,35.0,,,,,,480,note_off,,80.0,35.0,80.0,610100,635.5208333333334
4568,9.0,,,,,,36.0,,,,,,0,note_off,,80.0,36.0,80.0,610100,635.5208333333334
4569,9.0,,,,,,46.0,,,,,,0,note_on,,111.0,46.0,111.0,610100,635.5208333333334
4570,9.0,,,,,,38.0,,,,,,0,note_on,,127.0,38.0,127.0,610100,635.5208333333334
4571,9.0,,,,,,46.0,,,,,,120,note_off,,80.0,46.0,80.0,610220,635.6458333333334
4572,9.0,,,,,,38.0,,,,,,0,note_off,,80.0,38.0,80.0,610220,635.6458333333334
4573,9.0,,,,,,57.0,,,,,,0,note_on,,111.0,57.0,111.0,610220,635.6458333333334
4574,9.0,,,,,,57.0,,,,,,360,note_off,,80.0,57.0,80.0,610580,636.0208333333334
4575,9.0,,,,,,57.0,,,,,,0,note_on,,111.0,57.0,111.0,610580,636.0208333333334
4576,9.0,,,,,,35.0,,,,,,0,note_on,,127.0,35.0,127.0,610580,636.0208333333334
4577,9.0,,,,,,36.0,,,,,,0,note_on,,127.0,36.0,127.0,610580,636.0208333333334
4578,9.0,,,,,,57.0,,,,,,480,note_off,,80.0,57.0,80.0,611060,636.5208333333334
4579,9.0,,,,,,35.0,,,,,,0,note_off,,80.0,35.0,80.0,611060,636.5208333333334
4580,9.0,,,,,,36.0,,,,,,0,note_off,,80.0,36.0,80.0,611060,636.5208333333334
4581,9.0,,,,,,35.0,,,,,,0,note_on,,127.0,35.0,127.0,611060,636.5208333333334
4582,9.0,,,,,,36.0,,,,,,0,note_on,,127.0,36.0,127.0,611060,636.5208333333334
4583,9.0,,,,,,35.0,,,,,,480,note_off,,80.0,35.0,80.0,611540,637.0208333333334
4584,9.0,,,,,,36.0,,,,,,0,note_off,,80.0,36.0,80.0,611540,637.0208333333334
4585,9.0,,,,,,35.0,,,,,,0,note_on,,127.0,35.0,127.0,611540,637.0208333333334
4586,9.0,,,,,,36.0,,,,,,0,note_on,,127.0,36.0,127.0,611540,637.0208333333334
4587,9.0,,,,,,35.0,,,,,,480,note_off,,80.0,35.0,80.0,612020,637.5208333333334
4588,9.0,,,,,,36.0,,,,,,0,note_off,,80.0,36.0,80.0,612020,637.5208333333334
4589,9.0,,,,,,35.0,,,,,,0,note_on,,127.0,35.0,127.0,612020,637.5208333333334
4590,9.0,,,,,,36.0,,,,,,0,note_on,,127.0,36.0,127.0,612020,637.5208333333334
4591,9.0,,,,,,35.0,,,,,,480,note_off,,80.0,35.0,80.0,612500,638.0208333333334
4592,9.0,,,,,,36.0,,,,,,0,note_off,,80.0,36.0,80.0,612500,638.0208333333334
4593,9.0,,,,,,35.0,,,,,,0,note_on,,127.0,35.0,127.0,612500,638.0208333333334
4594,9.0,,,,,,36.0,,,,,,0,note_on,,127.0,36.0,127.0,612500,638.0208333333334
4595,9.0,,,,,,35.0,,,,,,480,note_off,,80.0,35.0,80.0,612980,638.5208333333334
4596,9.0,,,,,,36.0,,,,,,0,note_off,,80.0,36.0,80.0,612980,638.5208333333334
4597,9.0,,,,,,35.0,,,,,,0,note_on,,127.0,35.0,127.0,612980,638.5208333333334
4598,9.0,,,,,,36.0,,,,,,0,note_on,,127.0,36.0,127.0,612980,638.5208333333334
4599,9.0,,,,,,35.0,,,,,,480,note_off,,80.0,35.0,80.0,613460,639.0208333333334
4600,9.0,,,,,,36.0,,,,,,0,note_off,,80.0,36.0,80.0,613460,639.0208333333334
4601,9.0,,,,,,35.0,,,,,,0,note_on,,127.0,35.0,127.0,613460,639.0208333333334
4602,9.0,,,,,,36.0,,,,,,0,note_on,,127.0,36.0,127.0,613460,639.0208333333334
4603,9.0,,,,,,35.0,,,,,,480,note_off,,80.0,35.0,80.0,613940,639.5208333333334
4604,9.0,,,,,,36.0,,,,,,0,note_off,,80.0,36.0,80.0,613940,639.5208333333334
4605,9.0,,,,,,46.0,,,,,,0,note_on,,111.0,46.0,111.0,613940,639.5208333333334
4606,9.0,,,,,,38.0,,,,,,0,note_on,,127.0,38.0,127.0,613940,639.5208333333334
4607,9.0,,,,,,46.0,,,,,,120,note_off,,80.0,46.0,80.0,614060,639.6458333333334
4608,9.0,,,,,,38.0,,,,,,0,note_off,,80.0,38.0,80.0,614060,639.6458333333334
4609,9.0,,,,,,57.0,,,,,,0,note_on,,111.0,57.0,111.0,614060,639.6458333333334
4610,9.0,,,,,,57.0,,,,,,360,note_off,,80.0,57.0,80.0,614420,640.0208333333334
4611,9.0,,,,,,57.0,,,,,,0,note_on,,111.0,57.0,111.0,614420,640.0208333333334
4612,9.0,,,,,,35.0,,,,,,0,note_on,,127.0,35.0,127.0,614420,640.0208333333334
4613,9.0,,,,,,36.0,,,,,,0,note_on,,127.0,36.0,127.0,614420,640.0208333333334
4614,9.0,,,,,,57.0,,,,,,480,note_off,,80.0,57.0,80.0,614900,640.5208333333334
4615,9.0,,,,,,35.0,,,,,,0,note_off,,80.0,35.0,80.0,614900,640.5208333333334
4616,9.0,,,,,,36.0,,,,,,0,note_off,,80.0,36.0,80.0,614900,640.5208333333334
4617,9.0,,,,,,35.0,,,,,,0,note_on,,127.0,35.0,127.0,614900,640.5208333333334
4618,9.0,,,,,,36.0,,,,,,0,note_on,,127.0,36.0,127.0,614900,640.5208333333334
4619,9.0,,,,,,35.0,,,,,,480,note_off,,80.0,35.0,80.0,615380,641.0208333333334
4620,9.0,,,,,,36.0,,,,,,0,note_off,,80.0,36.0,80.0,615380,641.0208333333334
4621,9.0,,,,,,35.0,,,,,,0,note_on,,127.0,35.0,127.0,615380,641.0208333333334
4622,9.0,,,,,,36.0,,,,,,0,note_on,,127.0,36.0,127.0,615380,641.0208333333334
4623,9.0,,,,,,35.0,,,,,,480,note_off,,80.0,35.0,80.0,615860,641.5208333333334
4624,9.0,,,,,,36.0,,,,,,0,note_off,,80.0,36.0,80.0,615860,641.5208333333334
4625,9.0,,,,,,35.0,,,,,,0,note_on,,127.0,35.0,127.0,615860,641.5208333333334
4626,9.0,,,,,,36.0,,,,,,0,note_on,,127.0,36.0,127.0,615860,641.5208333333334
4627,9.0,,,,,,35.0,,,,,,480,note_off,,80.0,35.0,80.0,616340,642.0208333333334
4628,9.0,,,,,,36.0,,,,,,0,note_off,,80.0,36.0,80.0,616340,642.0208333333334
4629,9.0,,,,,,35.0,,,,,,0,note_on,,127.0,35.0,127.0,616340,642.0208333333334
4630,9.0,,,,,,36.0,,,,,,0,note_on,,127.0,36.0,127.0,616340,642.0208333333334
4631,9.0,,,,,,35.0,,,,,,480,note_off,,80.0,35.0,80.0,616820,642.5208333333334
4632,9.0,,,,,,36.0,,,,,,0,note_off,,80.0,36.0,80.0,616820,642.5208333333334
4633,9.0,,,,,,35.0,,,,,,0,note_on,,127.0,35.0,127.0,616820,642.5208333333334
4634,9.0,,,,,,36.0,,,,,,0,note_on,,127.0,36.0,127.0,616820,642.5208333333334
4635,9.0,,,,,,35.0,,,,,,480,note_off,,80.0,35.0,80.0,617300,643.0208333333334
4636,9.0,,,,,,36.0,,,,,,0,note_off,,80.0,36.0,80.0,617300,643.0208333333334
4637,9.0,,,,,,35.0,,,,,,0,note_on,,127.0,35.0,127.0,617300,643.0208333333334
4638,9.0,,,,,,36.0,,,,,,0,note_on,,127.0,36.0,127.0,617300,643.0208333333334
4639,9.0,,,,,,35.0,,,,,,480,note_off,,80.0,35.0,80.0,617780,643.5208333333334
4640,9.0,,,,,,36.0,,,,,,0,note_off,,80.0,36.0,80.0,617780,643.5208333333334
4641,9.0,,,,,,46.0,,,,,,0,note_on,,111.0,46.0,111.0,617780,643.5208333333334
4642,9.0,,,,,,38.0,,,,,,0,note_on,,127.0,38.0,127.0,617780,643.5208333333334
4643,9.0,,,,,,46.0,,,,,,120,note_off,,80.0,46.0,80.0,617900,643.6458333333334
4644,9.0,,,,,,38.0,,,,,,0,note_off,,80.0,38.0,80.0,617900,643.6458333333334
4645,9.0,,,,,,57.0,,,,,,0,note_on,,111.0,57.0,111.0,617900,643.6458333333334
4646,9.0,,,,,,57.0,,,,,,360,note_off,,80.0,57.0,80.0,618260,644.0208333333334
4647,9.0,,,,,,57.0,,,,,,0,note_on,,111.0,57.0,111.0,618260,644.0208333333334
4648,9.0,,,,,,35.0,,,,,,0,note_on,,127.0,35.0,127.0,618260,644.0208333333334
4649,9.0,,,,,,36.0,,,,,,0,note_on,,127.0,36.0,127.0,618260,644.0208333333334
4650,9.0,,,,,,57.0,,,,,,480,note_off,,80.0,57.0,80.0,618740,644.5208333333334
4651,9.0,,,,,,35.0,,,,,,0,note_off,,80.0,35.0,80.0,618740,644.5208333333334
4652,9.0,,,,,,36.0,,,,,,0,note_off,,80.0,36.0,80.0,618740,644.5208333333334
4653,9.0,,,,,,35.0,,,,,,0,note_on,,127.0,35.0,127.0,618740,644.5208333333334
4654,9.0,,,,,,36.0,,,,,,0,note_on,,127.0,36.0,127.0,618740,644.5208333333334
4655,9.0,,,,,,35.0,,,,,,480,note_off,,80.0,35.0,80.0,619220,645.0208333333334
4656,9.0,,,,,,36.0,,,,,,0,note_off,,80.0,36.0,80.0,619220,645.0208333333334
4657,9.0,,,,,,35.0,,,,,,0,note_on,,127.0,35.0,127.0,619220,645.0208333333334
4658,9.0,,,,,,36.0,,,,,,0,note_on,,127.0,36.0,127.0,619220,645.0208333333334
4659,9.0,,,,,,35.0,,,,,,480,note_off,,80.0,35.0,80.0,619700,645.5208333333334
4660,9.0,,,,,,36.0,,,,,,0,note_off,,80.0,36.0,80.0,619700,645.5208333333334
4661,9.0,,,,,,35.0,,,,,,0,note_on,,127.0,35.0,127.0,619700,645.5208333333334
4662,9.0,,,,,,36.0,,,,,,0,note_on,,127.0,36.0,127.0,619700,645.5208333333334
4663,9.0,,,,,,35.0,,,,,,480,note_off,,80.0,35.0,80.0,620180,646.0208333333334
4664,9.0,,,,,,36.0,,,,,,0,note_off,,80.0,36.0,80.0,620180,646.0208333333334
4665,9.0,,,,,,35.0,,,,,,0,note_on,,127.0,35.0,127.0,620180,646.0208333333334
4666,9.0,,,,,,36.0,,,,,,0,note_on,,127.0,36.0,127.0,620180,646.0208333333334
4667,9.0,,,,,,35.0,,,,,,480,note_off,,80.0,35.0,80.0,620660,646.5208333333334
4668,9.0,,,,,,36.0,,,,,,0,note_off,,80.0,36.0,80.0,620660,646.5208333333334
4669,9.0,,,,,,35.0,,,,,,0,note_on,,127.0,35.0,127.0,620660,646.5208333333334
4670,9.0,,,,,,36.0,,,,,,0,note_on,,127.0,36.0,127.0,620660,646.5208333333334
4671,9.0,,,,,,35.0,,,,,,480,note_off,,80.0,35.0,80.0,621140,647.0208333333334
4672,9.0,,,,,,36.0,,,,,,0,note_off,,80.0,36.0,80.0,621140,647.0208333333334
4673,9.0,,,,,,35.0,,,,,,0,note_on,,127.0,35.0,127.0,621140,647.0208333333334
4674,9.0,,,,,,36.0,,,,,,0,note_on,,127.0,36.0,127.0,621140,647.0208333333334
4675,9.0,,,,,,35.0,,,,,,480,note_off,,80.0,35.0,80.0,621620,647.5208333333334
4676,9.0,,,,,,36.0,,,,,,0,note_off,,80.0,36.0,80.0,621620,647.5208333333334
4677,9.0,,,,,,46.0,,,,,,0,note_on,,111.0,46.0,111.0,621620,647.5208333333334
4678,9.0,,,,,,38.0,,,,,,0,note_on,,127.0,38.0,127.0,621620,647.5208333333334
4679,9.0,,,,,,46.0,,,,,,120,note_off,,80.0,46.0,80.0,621740,647.6458333333334
4680,9.0,,,,,,38.0,,,,,,0,note_off,,80.0,38.0,80.0,621740,647.6458333333334
4681,9.0,,,,,,57.0,,,,,,0,note_on,,111.0,57.0,111.0,621740,647.6458333333334
4682,9.0,,,,,,57.0,,,,,,360,note_off,,80.0,57.0,80.0,622100,648.0208333333334
4683,9.0,,,,,,57.0,,,,,,0,note_on,,111.0,57.0,111.0,622100,648.0208333333334
4684,9.0,,,,,,35.0,,,,,,0,note_on,,127.0,35.0,127.0,622100,648.0208333333334
4685,9.0,,,,,,36.0,,,,,,0,note_on,,127.0,36.0,127.0,622100,648.0208333333334
4686,9.0,,,,,,57.0,,,,,,480,note_off,,80.0,57.0,80.0,622580,648.5208333333334
4687,9.0,,,,,,35.0,,,,,,0,note_off,,80.0,35.0,80.0,622580,648.5208333333334
4688,9.0,,,,,,36.0,,,,,,0,note_off,,80.0,36.0,80.0,622580,648.5208333333334
4689,9.0,,,,,,35.0,,,,,,0,note_on,,127.0,35.0,127.0,622580,648.5208333333334
4690,9.0,,,,,,36.0,,,,,,0,note_on,,127.0,36.0,127.0,622580,648.5208333333334
4691,9.0,,,,,,35.0,,,,,,480,note_off,,80.0,35.0,80.0,623060,649.0208333333334
4692,9.0,,,,,,36.0,,,,,,0,note_off,,80.0,36.0,80.0,623060,649.0208333333334
4693,9.0,,,,,,35.0,,,,,,0,note_on,,127.0,35.0,127.0,623060,649.0208333333334
4694,9.0,,,,,,36.0,,,,,,0,note_on,,127.0,36.0,127.0,623060,649.0208333333334
4695,9.0,,,,,,35.0,,,,,,480,note_off,,80.0,35.0,80.0,623540,649.5208333333334
4696,9.0,,,,,,36.0,,,,,,0,note_off,,80.0,36.0,80.0,623540,649.5208333333334
4697,9.0,,,,,,35.0,,,,,,0,note_on,,127.0,35.0,127.0,623540,649.5208333333334
4698,9.0,,,,,,36.0,,,,,,0,note_on,,127.0,36.0,127.0,623540,649.5208333333334
4699,9.0,,,,,,35.0,,,,,,480,note_off,,80.0,35.0,80.0,624020,650.0208333333334
4700,9.0,,,,,,36.0,,,,,,0,note_off,,80.0,36.0,80.0,624020,650.0208333333334
4701,9.0,,,,,,35.0,,,,,,0,note_on,,127.0,35.0,127.0,624020,650.0208333333334
4702,9.0,,,,,,36.0,,,,,,0,note_on,,127.0,36.0,127.0,624020,650.0208333333334
4703,9.0,,,,,,35.0,,,,,,480,note_off,,80.0,35.0,80.0,624500,650.5208333333334
4704,9.0,,,,,,36.0,,,,,,0,note_off,,80.0,36.0,80.0,624500,650.5208333333334
4705,9.0,,,,,,35.0,,,,,,0,note_on,,127.0,35.0,127.0,624500,650.5208333333334
4706,9.0,,,,,,36.0,,,,,,0,note_on,,127.0,36.0,127.0,624500,650.5208333333334
4707,9.0,,,,,,35.0,,,,,,480,note_off,,80.0,35.0,80.0,624980,651.0208333333334
4708,9.0,,,,,,36.0,,,,,,0,note_off,,80.0,36.0,80.0,624980,651.0208333333334
4709,9.0,,,,,,35.0,,,,,,0,note_on,,127.0,35.0,127.0,624980,651.0208333333334
4710,9.0,,,,,,36.0,,,,,,0,note_on,,127.0,36.0,127.0,624980,651.0208333333334
4711,9.0,,,,,,35.0,,,,,,480,note_off,,80.0,35.0,80.0,625460,651.5208333333334
4712,9.0,,,,,,36.0,,,,,,0,note_off,,80.0,36.0,80.0,625460,651.5208333333334
4713,9.0,,,,,,46.0,,,,,,0,note_on,,111.0,46.0,111.0,625460,651.5208333333334
4714,9.0,,,,,,38.0,,,,,,0,note_on,,127.0,38.0,127.0,625460,651.5208333333334
4715,9.0,,,,,,46.0,,,,,,120,note_off,,80.0,46.0,80.0,625580,651.6458333333334
4716,9.0,,,,,,38.0,,,,,,0,note_off,,80.0,38.0,80.0,625580,651.6458333333334
4717,9.0,,,,,,57.0,,,,,,0,note_on,,111.0,57.0,111.0,625580,651.6458333333334
4718,9.0,,,,,,57.0,,,,,,360,note_off,,80.0,57.0,80.0,625940,652.0208333333334
4719,9.0,,,,,,57.0,,,,,,0,note_on,,111.0,57.0,111.0,625940,652.0208333333334
4720,9.0,,,,,,35.0,,,,,,0,note_on,,127.0,35.0,127.0,625940,652.0208333333334
4721,9.0,,,,,,36.0,,,,,,0,note_on,,127.0,36.0,127.0,625940,652.0208333333334
4722,9.0,,,,,,57.0,,,,,,480,note_off,,80.0,57.0,80.0,626420,652.5208333333334
4723,9.0,,,,,,35.0,,,,,,0,note_off,,80.0,35.0,80.0,626420,652.5208333333334
4724,9.0,,,,,,36.0,,,,,,0,note_off,,80.0,36.0,80.0,626420,652.5208333333334
4725,9.0,,,,,,35.0,,,,,,0,note_on,,127.0,35.0,127.0,626420,652.5208333333334
4726,9.0,,,,,,36.0,,,,,,0,note_on,,127.0,36.0,127.0,626420,652.5208333333334
4727,9.0,,,,,,35.0,,,,,,480,note_off,,80.0,35.0,80.0,626900,653.0208333333334
4728,9.0,,,,,,36.0,,,,,,0,note_off,,80.0,36.0,80.0,626900,653.0208333333334
4729,9.0,,,,,,35.0,,,,,,0,note_on,,127.0,35.0,127.0,626900,653.0208333333334
4730,9.0,,,,,,36.0,,,,,,0,note_on,,127.0,36.0,127.0,626900,653.0208333333334
4731,9.0,,,,,,35.0,,,,,,480,note_off,,80.0,35.0,80.0,627380,653.5208333333334
4732,9.0,,,,,,36.0,,,,,,0,note_off,,80.0,36.0,80.0,627380,653.5208333333334
4733,9.0,,,,,,35.0,,,,,,0,note_on,,127.0,35.0,127.0,627380,653.5208333333334
4734,9.0,,,,,,36.0,,,,,,0,note_on,,127.0,36.0,127.0,627380,653.5208333333334
4735,9.0,,,,,,35.0,,,,,,480,note_off,,80.0,35.0,80.0,627860,654.0208333333334
4736,9.0,,,,,,36.0,,,,,,0,note_off,,80.0,36.0,80.0,627860,654.0208333333334
4737,9.0,,,,,,35.0,,,,,,0,note_on,,127.0,35.0,127.0,627860,654.0208333333334
4738,9.0,,,,,,36.0,,,,,,0,note_on,,127.0,36.0,127.0,627860,654.0208333333334
4739,9.0,,,,,,35.0,,,,,,480,note_off,,80.0,35.0,80.0,628340,654.5208333333334
4740,9.0,,,,,,36.0,,,,,,0,note_off,,80.0,36.0,80.0,628340,654.5208333333334
4741,9.0,,,,,,35.0,,,,,,0,note_on,,127.0,35.0,127.0,628340,654.5208333333334
4742,9.0,,,,,,36.0,,,,,,0,note_on,,127.0,36.0,127.0,628340,654.5208333333334
4743,9.0,,,,,,35.0,,,,,,480,note_off,,80.0,35.0,80.0,628820,655.0208333333334
4744,9.0,,,,,,36.0,,,,,,0,note_off,,80.0,36.0,80.0,628820,655.0208333333334
4745,9.0,,,,,,35.0,,,,,,0,note_on,,127.0,35.0,127.0,628820,655.0208333333334
4746,9.0,,,,,,36.0,,,,,,0,note_on,,127.0,36.0,127.0,628820,655.0208333333334
4747,9.0,,,,,,35.0,,,,,,480,note_off,,80.0,35.0,80.0,629300,655.5208333333334
4748,9.0,,,,,,36.0,,,,,,0,note_off,,80.0,36.0,80.0,629300,655.5208333333334
4749,9.0,,,,,,46.0,,,,,,0,note_on,,111.0,46.0,111.0,629300,655.5208333333334
4750,9.0,,,,,,38.0,,,,,,0,note_on,,127.0,38.0,127.0,629300,655.5208333333334
4751,9.0,,,,,,46.0,,,,,,120,note_off,,80.0,46.0,80.0,629420,655.6458333333334
4752,9.0,,,,,,38.0,,,,,,0,note_off,,80.0,38.0,80.0,629420,655.6458333333334
4753,9.0,,,,,,57.0,,,,,,0,note_on,,111.0,57.0,111.0,629420,655.6458333333334
4754,9.0,,,,,,57.0,,,,,,360,note_off,,80.0,57.0,80.0,629780,656.0208333333334
4755,9.0,,,,,,35.0,,,,,,3240,note_on,,127.0,35.0,127.0,633020,659.3958333333334
4756,9.0,,,,,,36.0,,,,,,0,note_on,,127.0,36.0,127.0,633020,659.3958333333334
4757,9.0,,,,,,35.0,,,,,,120,note_off,,80.0,35.0,80.0,633140,659.5208333333334
4758,9.0,,,,,,36.0,,,,,,0,note_off,,80.0,36.0,80.0,633140,659.5208333333334
4759,9.0,,,,,,46.0,,,,,,0,note_on,,111.0,46.0,111.0,633140,659.5208333333334
4760,9.0,,,,,,38.0,,,,,,0,note_on,,127.0,38.0,127.0,633140,659.5208333333334
4761,9.0,,,,,,46.0,,,,,,120,note_off,,80.0,46.0,80.0,633260,659.6458333333334
4762,9.0,,,,,,38.0,,,,,,0,note_off,,80.0,38.0,80.0,633260,659.6458333333334
4763,9.0,,,,,,57.0,,,,,,0,note_on,,111.0,57.0,111.0,633260,659.6458333333334
4764,9.0,,,,,,57.0,,,,,,360,note_off,,80.0,57.0,80.0,633620,660.0208333333334
4765,9.0,,,,,,46.0,,,,,,0,note_on,,111.0,46.0,111.0,633620,660.0208333333334
4766,9.0,,,,,,35.0,,,,,,0,note_on,,127.0,35.0,127.0,633620,660.0208333333334
4767,9.0,,,,,,36.0,,,,,,0,note_on,,127.0,36.0,127.0,633620,660.0208333333334
4768,9.0,,,,,,46.0,,,,,,480,note_off,,80.0,46.0,80.0,634100,660.5208333333334
4769,9.0,,,,,,35.0,,,,,,0,note_off,,80.0,35.0,80.0,634100,660.5208333333334
4770,9.0,,,,,,36.0,,,,,,0,note_off,,80.0,36.0,80.0,634100,660.5208333333334
4771,9.0,,,,,,46.0,,,,,,0,note_on,,111.0,46.0,111.0,634100,660.5208333333334
4772,9.0,,,,,,38.0,,,,,,0,note_on,,127.0,38.0,127.0,634100,660.5208333333334
4773,9.0,,,,,,46.0,,,,,,480,note_off,,80.0,46.0,80.0,634580,661.0208333333334
4774,9.0,,,,,,38.0,,,,,,0,note_off,,80.0,38.0,80.0,634580,661.0208333333334
4775,9.0,,,,,,46.0,,,,,,0,note_on,,111.0,46.0,111.0,634580,661.0208333333334
4776,9.0,,,,,,35.0,,,,,,0,note_on,,127.0,35.0,127.0,634580,661.0208333333334
4777,9.0,,,,,,36.0,,,,,,0,note_on,,127.0,36.0,127.0,634580,661.0208333333334
4778,9.0,,,,,,46.0,,,,,,360,note_off,,80.0,46.0,80.0,634940,661.3958333333334
4779,9.0,,,,,,35.0,,,,,,0,note_off,,80.0,35.0,80.0,634940,661.3958333333334
4780,9.0,,,,,,36.0,,,,,,0,note_off,,80.0,36.0,80.0,634940,661.3958333333334
4781,9.0,,,,,,35.0,,,,,,0,note_on,,127.0,35.0,127.0,634940,661.3958333333334
4782,9.0,,,,,,36.0,,,,,,0,note_on,,127.0,36.0,127.0,634940,661.3958333333334
4783,9.0,,,,,,35.0,,,,,,120,note_off,,80.0,35.0,80.0,635060,661.5208333333334
4784,9.0,,,,,,36.0,,,,,,0,note_off,,80.0,36.0,80.0,635060,661.5208333333334
4785,9.0,,,,,,46.0,,,,,,0,note_on,,111.0,46.0,111.0,635060,661.5208333333334
4786,9.0,,,,,,38.0,,,,,,0,note_on,,127.0,38.0,127.0,635060,661.5208333333334
4787,9.0,,,,,,46.0,,,,,,120,note_off,,80.0,46.0,80.0,635180,661.6458333333334
4788,9.0,,,,,,38.0,,,,,,0,note_off,,80.0,38.0,80.0,635180,661.6458333333334
4789,9.0,,,,,,57.0,,,,,,0,note_on,,111.0,57.0,111.0,635180,661.6458333333334
4790,9.0,,,,,,57.0,,,,,,360,note_off,,80.0,57.0,80.0,635540,662.0208333333334
4791,9.0,,,,,,46.0,,,,,,0,note_on,,111.0,46.0,111.0,635540,662.0208333333334
4792,9.0,,,,,,35.0,,,,,,0,note_on,,127.0,35.0,127.0,635540,662.0208333333334
4793,9.0,,,,,,36.0,,,,,,0,note_on,,127.0,36.0,127.0,635540,662.0208333333334
4794,9.0,,,,,,46.0,,,,,,480,note_off,,80.0,46.0,80.0,636020,662.5208333333334
4795,9.0,,,,,,35.0,,,,,,0,note_off,,80.0,35.0,80.0,636020,662.5208333333334
4796,9.0,,,,,,36.0,,,,,,0,note_off,,80.0,36.0,80.0,636020,662.5208333333334
4797,9.0,,,,,,46.0,,,,,,0,note_on,,111.0,46.0,111.0,636020,662.5208333333334
4798,9.0,,,,,,35.0,,,,,,0,note_on,,95.0,35.0,95.0,636020,662.5208333333334
4799,9.0,,,,,,36.0,,,,,,0,note_on,,95.0,36.0,95.0,636020,662.5208333333334
4800,9.0,,,,,,46.0,,,,,,360,note_off,,80.0,46.0,80.0,636380,662.8958333333334
4801,9.0,,,,,,35.0,,,,,,0,note_off,,80.0,35.0,80.0,636380,662.8958333333334
4802,9.0,,,,,,36.0,,,,,,0,note_off,,80.0,36.0,80.0,636380,662.8958333333334
4803,9.0,,,,,,46.0,,,,,,0,note_on,,111.0,46.0,111.0,636380,662.8958333333334
4804,9.0,,,,,,35.0,,,,,,0,note_on,,95.0,35.0,95.0,636380,662.8958333333334
4805,9.0,,,,,,36.0,,,,,,0,note_on,,95.0,36.0,95.0,636380,662.8958333333334
4806,9.0,,,,,,46.0,,,,,,240,note_off,,80.0,46.0,80.0,636620,663.1458333333334
4807,9.0,,,,,,35.0,,,,,,0,note_off,,80.0,35.0,80.0,636620,663.1458333333334
4808,9.0,,,,,,36.0,,,,,,0,note_off,,80.0,36.0,80.0,636620,663.1458333333334
4809,9.0,,,,,,46.0,,,,,,0,note_on,,111.0,46.0,111.0,636620,663.1458333333334
4810,9.0,,,,,,35.0,,,,,,0,note_on,,95.0,35.0,95.0,636620,663.1458333333334
4811,9.0,,,,,,36.0,,,,,,0,note_on,,95.0,36.0,95.0,636620,663.1458333333334
4812,9.0,,,,,,46.0,,,,,,240,note_off,,80.0,46.0,80.0,636860,663.3958333333334
4813,9.0,,,,,,35.0,,,,,,0,note_off,,80.0,35.0,80.0,636860,663.3958333333334
4814,9.0,,,,,,36.0,,,,,,0,note_off,,80.0,36.0,80.0,636860,663.3958333333334
4815,9.0,,,,,,35.0,,,,,,0,note_on,,95.0,35.0,95.0,636860,663.3958333333334
4816,9.0,,,,,,36.0,,,,,,0,note_on,,95.0,36.0,95.0,636860,663.3958333333334
4817,9.0,,,,,,35.0,,,,,,120,note_off,,80.0,35.0,80.0,636980,663.5208333333334
4818,9.0,,,,,,36.0,,,,,,0,note_off,,80.0,36.0,80.0,636980,663.5208333333334
4819,9.0,,,,,,57.0,,,,,,0,note_on,,111.0,57.0,111.0,636980,663.5208333333334
4820,9.0,,,,,,35.0,,,,,,0,note_on,,95.0,35.0,95.0,636980,663.5208333333334
4821,9.0,,,,,,36.0,,,,,,0,note_on,,95.0,36.0,95.0,636980,663.5208333333334
4822,9.0,,,,,,57.0,,,,,,480,note_off,,80.0,57.0,80.0,637460,664.0208333333334
4823,9.0,,,,,,35.0,,,,,,0,note_off,,80.0,35.0,80.0,637460,664.0208333333334
4824,9.0,,,,,,36.0,,,,,,0,note_off,,80.0,36.0,80.0,637460,664.0208333333334
4825,9.0,,,,,,46.0,,,,,,0,note_on,,111.0,46.0,111.0,637460,664.0208333333334
4826,9.0,,,,,,35.0,,,,,,0,note_on,,127.0,35.0,127.0,637460,664.0208333333334
4827,9.0,,,,,,36.0,,,,,,0,note_on,,127.0,36.0,127.0,637460,664.0208333333334
4828,9.0,,,,,,46.0,,,,,,480,note_off,,80.0,46.0,80.0,637940,664.5208333333334
4829,9.0,,,,,,35.0,,,,,,0,note_off,,80.0,35.0,80.0,637940,664.5208333333334
4830,9.0,,,,,,36.0,,,,,,0,note_off,,80.0,36.0,80.0,637940,664.5208333333334
4831,9.0,,,,,,46.0,,,,,,0,note_on,,111.0,46.0,111.0,637940,664.5208333333334
4832,9.0,,,,,,38.0,,,,,,0,note_on,,127.0,38.0,127.0,637940,664.5208333333334
4833,9.0,,,,,,46.0,,,,,,480,note_off,,80.0,46.0,80.0,638420,665.0208333333334
4834,9.0,,,,,,38.0,,,,,,0,note_off,,80.0,38.0,80.0,638420,665.0208333333334
4835,9.0,,,,,,46.0,,,,,,0,note_on,,111.0,46.0,111.0,638420,665.0208333333334
4836,9.0,,,,,,35.0,,,,,,0,note_on,,127.0,35.0,127.0,638420,665.0208333333334
4837,9.0,,,,,,36.0,,,,,,0,note_on,,127.0,36.0,127.0,638420,665.0208333333334
4838,9.0,,,,,,46.0,,,,,,360,note_off,,80.0,46.0,80.0,638780,665.3958333333334
4839,9.0,,,,,,35.0,,,,,,0,note_off,,80.0,35.0,80.0,638780,665.3958333333334
4840,9.0,,,,,,36.0,,,,,,0,note_off,,80.0,36.0,80.0,638780,665.3958333333334
4841,9.0,,,,,,35.0,,,,,,0,note_on,,127.0,35.0,127.0,638780,665.3958333333334
4842,9.0,,,,,,36.0,,,,,,0,note_on,,127.0,36.0,127.0,638780,665.3958333333334
4843,9.0,,,,,,35.0,,,,,,120,note_off,,80.0,35.0,80.0,638900,665.5208333333334
4844,9.0,,,,,,36.0,,,,,,0,note_off,,80.0,36.0,80.0,638900,665.5208333333334
4845,9.0,,,,,,46.0,,,,,,0,note_on,,111.0,46.0,111.0,638900,665.5208333333334
4846,9.0,,,,,,38.0,,,,,,0,note_on,,127.0,38.0,127.0,638900,665.5208333333334
4847,9.0,,,,,,46.0,,,,,,120,note_off,,80.0,46.0,80.0,639020,665.6458333333334
4848,9.0,,,,,,38.0,,,,,,0,note_off,,80.0,38.0,80.0,639020,665.6458333333334
4849,9.0,,,,,,57.0,,,,,,0,note_on,,111.0,57.0,111.0,639020,665.6458333333334
4850,9.0,,,,,,57.0,,,,,,360,note_off,,80.0,57.0,80.0,639380,666.0208333333334
4851,9.0,,,,,,46.0,,,,,,0,note_on,,111.0,46.0,111.0,639380,666.0208333333334
4852,9.0,,,,,,35.0,,,,,,0,note_on,,127.0,35.0,127.0,639380,666.0208333333334
4853,9.0,,,,,,36.0,,,,,,0,note_on,,127.0,36.0,127.0,639380,666.0208333333334
4854,9.0,,,,,,46.0,,,,,,480,note_off,,80.0,46.0,80.0,639860,666.5208333333334
4855,9.0,,,,,,35.0,,,,,,0,note_off,,80.0,35.0,80.0,639860,666.5208333333334
4856,9.0,,,,,,36.0,,,,,,0,note_off,,80.0,36.0,80.0,639860,666.5208333333334
4857,9.0,,,,,,46.0,,,,,,0,note_on,,111.0,46.0,111.0,639860,666.5208333333334
4858,9.0,,,,,,38.0,,,,,,0,note_on,,127.0,38.0,127.0,639860,666.5208333333334
4859,9.0,,,,,,46.0,,,,,,480,note_off,,80.0,46.0,80.0,640340,667.0208333333334
4860,9.0,,,,,,38.0,,,,,,0,note_off,,80.0,38.0,80.0,640340,667.0208333333334
4861,9.0,,,,,,46.0,,,,,,0,note_on,,111.0,46.0,111.0,640340,667.0208333333334
4862,9.0,,,,,,35.0,,,,,,0,note_on,,127.0,35.0,127.0,640340,667.0208333333334
4863,9.0,,,,,,36.0,,,,,,0,note_on,,127.0,36.0,127.0,640340,667.0208333333334
4864,9.0,,,,,,46.0,,,,,,360,note_off,,80.0,46.0,80.0,640700,667.3958333333334
4865,9.0,,,,,,35.0,,,,,,0,note_off,,80.0,35.0,80.0,640700,667.3958333333334
4866,9.0,,,,,,36.0,,,,,,0,note_off,,80.0,36.0,80.0,640700,667.3958333333334
4867,9.0,,,,,,35.0,,,,,,0,note_on,,127.0,35.0,127.0,640700,667.3958333333334
4868,9.0,,,,,,36.0,,,,,,0,note_on,,127.0,36.0,127.0,640700,667.3958333333334
4869,9.0,,,,,,35.0,,,,,,120,note_off,,80.0,35.0,80.0,640820,667.5208333333334
4870,9.0,,,,,,36.0,,,,,,0,note_off,,80.0,36.0,80.0,640820,667.5208333333334
4871,9.0,,,,,,46.0,,,,,,0,note_on,,111.0,46.0,111.0,640820,667.5208333333334
4872,9.0,,,,,,38.0,,,,,,0,note_on,,127.0,38.0,127.0,640820,667.5208333333334
4873,9.0,,,,,,46.0,,,,,,120,note_off,,80.0,46.0,80.0,640940,667.6458333333334
4874,9.0,,,,,,38.0,,,,,,0,note_off,,80.0,38.0,80.0,640940,667.6458333333334
4875,9.0,,,,,,57.0,,,,,,0,note_on,,111.0,57.0,111.0,640940,667.6458333333334
4876,9.0,,,,,,57.0,,,,,,360,note_off,,80.0,57.0,80.0,641300,668.0208333333334
4877,9.0,,,,,,46.0,,,,,,0,note_on,,111.0,46.0,111.0,641300,668.0208333333334
4878,9.0,,,,,,35.0,,,,,,0,note_on,,127.0,35.0,127.0,641300,668.0208333333334
4879,9.0,,,,,,36.0,,,,,,0,note_on,,127.0,36.0,127.0,641300,668.0208333333334
4880,9.0,,,,,,46.0,,,,,,480,note_off,,80.0,46.0,80.0,641780,668.5208333333334
4881,9.0,,,,,,35.0,,,,,,0,note_off,,80.0,35.0,80.0,641780,668.5208333333334
4882,9.0,,,,,,36.0,,,,,,0,note_off,,80.0,36.0,80.0,641780,668.5208333333334
4883,9.0,,,,,,46.0,,,,,,0,note_on,,111.0,46.0,111.0,641780,668.5208333333334
4884,9.0,,,,,,38.0,,,,,,0,note_on,,127.0,38.0,127.0,641780,668.5208333333334
4885,9.0,,,,,,46.0,,,,,,480,note_off,,80.0,46.0,80.0,642260,669.0208333333334
4886,9.0,,,,,,38.0,,,,,,0,note_off,,80.0,38.0,80.0,642260,669.0208333333334
4887,9.0,,,,,,46.0,,,,,,0,note_on,,111.0,46.0,111.0,642260,669.0208333333334
4888,9.0,,,,,,35.0,,,,,,0,note_on,,127.0,35.0,127.0,642260,669.0208333333334
4889,9.0,,,,,,36.0,,,,,,0,note_on,,127.0,36.0,127.0,642260,669.0208333333334
4890,9.0,,,,,,46.0,,,,,,360,note_off,,80.0,46.0,80.0,642620,669.3958333333334
4891,9.0,,,,,,35.0,,,,,,0,note_off,,80.0,35.0,80.0,642620,669.3958333333334
4892,9.0,,,,,,36.0,,,,,,0,note_off,,80.0,36.0,80.0,642620,669.3958333333334
4893,9.0,,,,,,35.0,,,,,,0,note_on,,127.0,35.0,127.0,642620,669.3958333333334
4894,9.0,,,,,,36.0,,,,,,0,note_on,,127.0,36.0,127.0,642620,669.3958333333334
4895,9.0,,,,,,35.0,,,,,,120,note_off,,80.0,35.0,80.0,642740,669.5208333333334
4896,9.0,,,,,,36.0,,,,,,0,note_off,,80.0,36.0,80.0,642740,669.5208333333334
4897,9.0,,,,,,46.0,,,,,,0,note_on,,111.0,46.0,111.0,642740,669.5208333333334
4898,9.0,,,,,,38.0,,,,,,0,note_on,,127.0,38.0,127.0,642740,669.5208333333334
4899,9.0,,,,,,46.0,,,,,,120,note_off,,80.0,46.0,80.0,642860,669.6458333333334
4900,9.0,,,,,,38.0,,,,,,0,note_off,,80.0,38.0,80.0,642860,669.6458333333334
4901,9.0,,,,,,57.0,,,,,,0,note_on,,111.0,57.0,111.0,642860,669.6458333333334
4902,9.0,,,,,,57.0,,,,,,360,note_off,,80.0,57.0,80.0,643220,670.0208333333334
4903,9.0,,,,,,46.0,,,,,,0,note_on,,111.0,46.0,111.0,643220,670.0208333333334
4904,9.0,,,,,,35.0,,,,,,0,note_on,,127.0,35.0,127.0,643220,670.0208333333334
4905,9.0,,,,,,36.0,,,,,,0,note_on,,127.0,36.0,127.0,643220,670.0208333333334
4906,9.0,,,,,,46.0,,,,,,480,note_off,,80.0,46.0,80.0,643700,670.5208333333334
4907,9.0,,,,,,35.0,,,,,,0,note_off,,80.0,35.0,80.0,643700,670.5208333333334
4908,9.0,,,,,,36.0,,,,,,0,note_off,,80.0,36.0,80.0,643700,670.5208333333334
4909,9.0,,,,,,46.0,,,,,,0,note_on,,111.0,46.0,111.0,643700,670.5208333333334
4910,9.0,,,,,,35.0,,,,,,0,note_on,,95.0,35.0,95.0,643700,670.5208333333334
4911,9.0,,,,,,36.0,,,,,,0,note_on,,95.0,36.0,95.0,643700,670.5208333333334
4912,9.0,,,,,,46.0,,,,,,360,note_off,,80.0,46.0,80.0,644060,670.8958333333334
4913,9.0,,,,,,35.0,,,,,,0,note_off,,80.0,35.0,80.0,644060,670.8958333333334
4914,9.0,,,,,,36.0,,,,,,0,note_off,,80.0,36.0,80.0,644060,670.8958333333334
4915,9.0,,,,,,46.0,,,,,,0,note_on,,111.0,46.0,111.0,644060,670.8958333333334
4916,9.0,,,,,,35.0,,,,,,0,note_on,,95.0,35.0,95.0,644060,670.8958333333334
4917,9.0,,,,,,36.0,,,,,,0,note_on,,95.0,36.0,95.0,644060,670.8958333333334
4918,9.0,,,,,,46.0,,,,,,240,note_off,,80.0,46.0,80.0,644300,671.1458333333334
4919,9.0,,,,,,35.0,,,,,,0,note_off,,80.0,35.0,80.0,644300,671.1458333333334
4920,9.0,,,,,,36.0,,,,,,0,note_off,,80.0,36.0,80.0,644300,671.1458333333334
4921,9.0,,,,,,46.0,,,,,,0,note_on,,111.0,46.0,111.0,644300,671.1458333333334
4922,9.0,,,,,,35.0,,,,,,0,note_on,,95.0,35.0,95.0,644300,671.1458333333334
4923,9.0,,,,,,36.0,,,,,,0,note_on,,95.0,36.0,95.0,644300,671.1458333333334
4924,9.0,,,,,,46.0,,,,,,240,note_off,,80.0,46.0,80.0,644540,671.3958333333334
4925,9.0,,,,,,35.0,,,,,,0,note_off,,80.0,35.0,80.0,644540,671.3958333333334
4926,9.0,,,,,,36.0,,,,,,0,note_off,,80.0,36.0,80.0,644540,671.3958333333334
4927,9.0,,,,,,35.0,,,,,,0,note_on,,95.0,35.0,95.0,644540,671.3958333333334
4928,9.0,,,,,,36.0,,,,,,0,note_on,,95.0,36.0,95.0,644540,671.3958333333334
4929,9.0,,,,,,35.0,,,,,,120,note_off,,80.0,35.0,80.0,644660,671.5208333333334
4930,9.0,,,,,,36.0,,,,,,0,note_off,,80.0,36.0,80.0,644660,671.5208333333334
4931,9.0,,,,,,57.0,,,,,,0,note_on,,111.0,57.0,111.0,644660,671.5208333333334
4932,9.0,,,,,,35.0,,,,,,0,note_on,,95.0,35.0,95.0,644660,671.5208333333334
4933,9.0,,,,,,36.0,,,,,,0,note_on,,95.0,36.0,95.0,644660,671.5208333333334
4934,9.0,,,,,,57.0,,,,,,480,note_off,,80.0,57.0,80.0,645140,672.0208333333334
4935,9.0,,,,,,35.0,,,,,,0,note_off,,80.0,35.0,80.0,645140,672.0208333333334
4936,9.0,,,,,,36.0,,,,,,0,note_off,,80.0,36.0,80.0,645140,672.0208333333334
4937,9.0,,,,,,57.0,,,,,,0,note_on,,95.0,57.0,95.0,645140,672.0208333333334
4938,9.0,,,,,,38.0,,,,,,0,note_on,,95.0,38.0,95.0,645140,672.0208333333334
4939,9.0,,,,,,57.0,,,,,,1920,note_off,,80.0,57.0,80.0,647060,674.0208333333334
4940,9.0,,,,,,38.0,,,,,,0,note_off,,80.0,38.0,80.0,647060,674.0208333333334
4941,9.0,,,,,,46.0,,,,,,1440,note_on,,111.0,46.0,111.0,648500,675.5208333333334
4942,9.0,,,,,,38.0,,,,,,0,note_on,,127.0,38.0,127.0,648500,675.5208333333334
4943,9.0,,,,,,46.0,,,,,,120,note_off,,80.0,46.0,80.0,648620,675.6458333333334
4944,9.0,,,,,,38.0,,,,,,0,note_off,,80.0,38.0,80.0,648620,675.6458333333334
4945,9.0,,,,,,57.0,,,,,,0,note_on,,111.0,57.0,111.0,648620,675.6458333333334
4946,9.0,,,,,,57.0,,,,,,360,note_off,,80.0,57.0,80.0,648980,676.0208333333334
4947,9.0,,,,,,57.0,,,,,,0,note_on,,111.0,57.0,111.0,648980,676.0208333333334
4948,9.0,,,,,,35.0,,,,,,0,note_on,,127.0,35.0,127.0,648980,676.0208333333334
4949,9.0,,,,,,36.0,,,,,,0,note_on,,127.0,36.0,127.0,648980,676.0208333333334
4950,9.0,,,,,,57.0,,,,,,480,note_off,,80.0,57.0,80.0,649460,676.5208333333334
4951,9.0,,,,,,35.0,,,,,,0,note_off,,80.0,35.0,80.0,649460,676.5208333333334
4952,9.0,,,,,,36.0,,,,,,0,note_off,,80.0,36.0,80.0,649460,676.5208333333334
4953,9.0,,,,,,35.0,,,,,,0,note_on,,127.0,35.0,127.0,649460,676.5208333333334
4954,9.0,,,,,,36.0,,,,,,0,note_on,,127.0,36.0,127.0,649460,676.5208333333334
4955,9.0,,,,,,35.0,,,,,,480,note_off,,80.0,35.0,80.0,649940,677.0208333333334
4956,9.0,,,,,,36.0,,,,,,0,note_off,,80.0,36.0,80.0,649940,677.0208333333334
4957,9.0,,,,,,35.0,,,,,,0,note_on,,127.0,35.0,127.0,649940,677.0208333333334
4958,9.0,,,,,,36.0,,,,,,0,note_on,,127.0,36.0,127.0,649940,677.0208333333334
4959,9.0,,,,,,35.0,,,,,,480,note_off,,80.0,35.0,80.0,650420,677.5208333333334
4960,9.0,,,,,,36.0,,,,,,0,note_off,,80.0,36.0,80.0,650420,677.5208333333334
4961,9.0,,,,,,35.0,,,,,,0,note_on,,127.0,35.0,127.0,650420,677.5208333333334
4962,9.0,,,,,,36.0,,,,,,0,note_on,,127.0,36.0,127.0,650420,677.5208333333334
4963,9.0,,,,,,35.0,,,,,,480,note_off,,80.0,35.0,80.0,650900,678.0208333333334
4964,9.0,,,,,,36.0,,,,,,0,note_off,,80.0,36.0,80.0,650900,678.0208333333334
4965,9.0,,,,,,35.0,,,,,,0,note_on,,127.0,35.0,127.0,650900,678.0208333333334
4966,9.0,,,,,,36.0,,,,,,0,note_on,,127.0,36.0,127.0,650900,678.0208333333334
4967,9.0,,,,,,35.0,,,,,,480,note_off,,80.0,35.0,80.0,651380,678.5208333333334
4968,9.0,,,,,,36.0,,,,,,0,note_off,,80.0,36.0,80.0,651380,678.5208333333334
4969,9.0,,,,,,35.0,,,,,,0,note_on,,127.0,35.0,127.0,651380,678.5208333333334
4970,9.0,,,,,,36.0,,,,,,0,note_on,,127.0,36.0,127.0,651380,678.5208333333334
4971,9.0,,,,,,35.0,,,,,,480,note_off,,80.0,35.0,80.0,651860,679.0208333333334
4972,9.0,,,,,,36.0,,,,,,0,note_off,,80.0,36.0,80.0,651860,679.0208333333334
4973,9.0,,,,,,35.0,,,,,,0,note_on,,127.0,35.0,127.0,651860,679.0208333333334
4974,9.0,,,,,,36.0,,,,,,0,note_on,,127.0,36.0,127.0,651860,679.0208333333334
4975,9.0,,,,,,35.0,,,,,,480,note_off,,80.0,35.0,80.0,652340,679.5208333333334
4976,9.0,,,,,,36.0,,,,,,0,note_off,,80.0,36.0,80.0,652340,679.5208333333334
4977,9.0,,,,,,46.0,,,,,,0,note_on,,111.0,46.0,111.0,652340,679.5208333333334
4978,9.0,,,,,,38.0,,,,,,0,note_on,,127.0,38.0,127.0,652340,679.5208333333334
4979,9.0,,,,,,46.0,,,,,,120,note_off,,80.0,46.0,80.0,652460,679.6458333333334
4980,9.0,,,,,,38.0,,,,,,0,note_off,,80.0,38.0,80.0,652460,679.6458333333334
4981,9.0,,,,,,57.0,,,,,,0,note_on,,111.0,57.0,111.0,652460,679.6458333333334
4982,9.0,,,,,,57.0,,,,,,360,note_off,,80.0,57.0,80.0,652820,680.0208333333334
4983,9.0,,,,,,57.0,,,,,,0,note_on,,111.0,57.0,111.0,652820,680.0208333333334
4984,9.0,,,,,,35.0,,,,,,0,note_on,,127.0,35.0,127.0,652820,680.0208333333334
4985,9.0,,,,,,36.0,,,,,,0,note_on,,127.0,36.0,127.0,652820,680.0208333333334
4986,9.0,,,,,,57.0,,,,,,480,note_off,,80.0,57.0,80.0,653300,680.5208333333334
4987,9.0,,,,,,35.0,,,,,,0,note_off,,80.0,35.0,80.0,653300,680.5208333333334
4988,9.0,,,,,,36.0,,,,,,0,note_off,,80.0,36.0,80.0,653300,680.5208333333334
4989,9.0,,,,,,35.0,,,,,,0,note_on,,127.0,35.0,127.0,653300,680.5208333333334
4990,9.0,,,,,,36.0,,,,,,0,note_on,,127.0,36.0,127.0,653300,680.5208333333334
4991,9.0,,,,,,35.0,,,,,,480,note_off,,80.0,35.0,80.0,653780,681.0208333333334
4992,9.0,,,,,,36.0,,,,,,0,note_off,,80.0,36.0,80.0,653780,681.0208333333334
4993,9.0,,,,,,35.0,,,,,,0,note_on,,127.0,35.0,127.0,653780,681.0208333333334
4994,9.0,,,,,,36.0,,,,,,0,note_on,,127.0,36.0,127.0,653780,681.0208333333334
4995,9.0,,,,,,35.0,,,,,,480,note_off,,80.0,35.0,80.0,654260,681.5208333333334
4996,9.0,,,,,,36.0,,,,,,0,note_off,,80.0,36.0,80.0,654260,681.5208333333334
4997,9.0,,,,,,35.0,,,,,,0,note_on,,127.0,35.0,127.0,654260,681.5208333333334
4998,9.0,,,,,,36.0,,,,,,0,note_on,,127.0,36.0,127.0,654260,681.5208333333334
4999,9.0,,,,,,35.0,,,,,,480,note_off,,80.0,35.0,80.0,654740,682.0208333333334
5000,9.0,,,,,,36.0,,,,,,0,note_off,,80.0,36.0,80.0,654740,682.0208333333334
5001,9.0,,,,,,35.0,,,,,,0,note_on,,127.0,35.0,127.0,654740,682.0208333333334
5002,9.0,,,,,,36.0,,,,,,0,note_on,,127.0,36.0,127.0,654740,682.0208333333334
5003,9.0,,,,,,35.0,,,,,,480,note_off,,80.0,35.0,80.0,655220,682.5208333333334
5004,9.0,,,,,,36.0,,,,,,0,note_off,,80.0,36.0,80.0,655220,682.5208333333334
5005,9.0,,,,,,35.0,,,,,,0,note_on,,127.0,35.0,127.0,655220,682.5208333333334
5006,9.0,,,,,,36.0,,,,,,0,note_on,,127.0,36.0,127.0,655220,682.5208333333334
5007,9.0,,,,,,35.0,,,,,,480,note_off,,80.0,35.0,80.0,655700,683.0208333333334
5008,9.0,,,,,,36.0,,,,,,0,note_off,,80.0,36.0,80.0,655700,683.0208333333334
5009,9.0,,,,,,35.0,,,,,,0,note_on,,127.0,35.0,127.0,655700,683.0208333333334
5010,9.0,,,,,,36.0,,,,,,0,note_on,,127.0,36.0,127.0,655700,683.0208333333334
5011,9.0,,,,,,35.0,,,,,,480,note_off,,80.0,35.0,80.0,656180,683.5208333333334
5012,9.0,,,,,,36.0,,,,,,0,note_off,,80.0,36.0,80.0,656180,683.5208333333334
5013,9.0,,,,,,46.0,,,,,,0,note_on,,111.0,46.0,111.0,656180,683.5208333333334
5014,9.0,,,,,,38.0,,,,,,0,note_on,,127.0,38.0,127.0,656180,683.5208333333334
5015,9.0,,,,,,46.0,,,,,,120,note_off,,80.0,46.0,80.0,656300,683.6458333333334
5016,9.0,,,,,,38.0,,,,,,0,note_off,,80.0,38.0,80.0,656300,683.6458333333334
5017,9.0,,,,,,57.0,,,,,,0,note_on,,111.0,57.0,111.0,656300,683.6458333333334
5018,9.0,,,,,,57.0,,,,,,360,note_off,,80.0,57.0,80.0,656660,684.0208333333334
5019,9.0,,,,,,57.0,,,,,,0,note_on,,111.0,57.0,111.0,656660,684.0208333333334
5020,9.0,,,,,,35.0,,,,,,0,note_on,,127.0,35.0,127.0,656660,684.0208333333334
5021,9.0,,,,,,36.0,,,,,,0,note_on,,127.0,36.0,127.0,656660,684.0208333333334
5022,9.0,,,,,,57.0,,,,,,480,note_off,,80.0,57.0,80.0,657140,684.5208333333334
5023,9.0,,,,,,35.0,,,,,,0,note_off,,80.0,35.0,80.0,657140,684.5208333333334
5024,9.0,,,,,,36.0,,,,,,0,note_off,,80.0,36.0,80.0,657140,684.5208333333334
5025,9.0,,,,,,35.0,,,,,,0,note_on,,127.0,35.0,127.0,657140,684.5208333333334
5026,9.0,,,,,,36.0,,,,,,0,note_on,,127.0,36.0,127.0,657140,684.5208333333334
5027,9.0,,,,,,35.0,,,,,,480,note_off,,80.0,35.0,80.0,657620,685.0208333333334
5028,9.0,,,,,,36.0,,,,,,0,note_off,,80.0,36.0,80.0,657620,685.0208333333334
5029,9.0,,,,,,35.0,,,,,,0,note_on,,127.0,35.0,127.0,657620,685.0208333333334
5030,9.0,,,,,,36.0,,,,,,0,note_on,,127.0,36.0,127.0,657620,685.0208333333334
5031,9.0,,,,,,35.0,,,,,,480,note_off,,80.0,35.0,80.0,658100,685.5208333333334
5032,9.0,,,,,,36.0,,,,,,0,note_off,,80.0,36.0,80.0,658100,685.5208333333334
5033,9.0,,,,,,35.0,,,,,,0,note_on,,127.0,35.0,127.0,658100,685.5208333333334
5034,9.0,,,,,,36.0,,,,,,0,note_on,,127.0,36.0,127.0,658100,685.5208333333334
5035,9.0,,,,,,35.0,,,,,,480,note_off,,80.0,35.0,80.0,658580,686.0208333333334
5036,9.0,,,,,,36.0,,,,,,0,note_off,,80.0,36.0,80.0,658580,686.0208333333334
5037,9.0,,,,,,35.0,,,,,,0,note_on,,127.0,35.0,127.0,658580,686.0208333333334
5038,9.0,,,,,,36.0,,,,,,0,note_on,,127.0,36.0,127.0,658580,686.0208333333334
5039,9.0,,,,,,35.0,,,,,,480,note_off,,80.0,35.0,80.0,659060,686.5208333333334
5040,9.0,,,,,,36.0,,,,,,0,note_off,,80.0,36.0,80.0,659060,686.5208333333334
5041,9.0,,,,,,35.0,,,,,,0,note_on,,127.0,35.0,127.0,659060,686.5208333333334
5042,9.0,,,,,,36.0,,,,,,0,note_on,,127.0,36.0,127.0,659060,686.5208333333334
5043,9.0,,,,,,35.0,,,,,,480,note_off,,80.0,35.0,80.0,659540,687.0208333333334
5044,9.0,,,,,,36.0,,,,,,0,note_off,,80.0,36.0,80.0,659540,687.0208333333334
5045,9.0,,,,,,35.0,,,,,,0,note_on,,127.0,35.0,127.0,659540,687.0208333333334
5046,9.0,,,,,,36.0,,,,,,0,note_on,,127.0,36.0,127.0,659540,687.0208333333334
5047,9.0,,,,,,35.0,,,,,,480,note_off,,80.0,35.0,80.0,660020,687.5208333333334
5048,9.0,,,,,,36.0,,,,,,0,note_off,,80.0,36.0,80.0,660020,687.5208333333334
5049,9.0,,,,,,46.0,,,,,,0,note_on,,111.0,46.0,111.0,660020,687.5208333333334
5050,9.0,,,,,,38.0,,,,,,0,note_on,,127.0,38.0,127.0,660020,687.5208333333334
5051,9.0,,,,,,46.0,,,,,,120,note_off,,80.0,46.0,80.0,660140,687.6458333333334
5052,9.0,,,,,,38.0,,,,,,0,note_off,,80.0,38.0,80.0,660140,687.6458333333334
5053,9.0,,,,,,57.0,,,,,,0,note_on,,111.0,57.0,111.0,660140,687.6458333333334
5054,9.0,,,,,,57.0,,,,,,360,note_off,,80.0,57.0,80.0,660500,688.0208333333334
5055,9.0,,,,,,57.0,,,,,,0,note_on,,111.0,57.0,111.0,660500,688.0208333333334
5056,9.0,,,,,,35.0,,,,,,0,note_on,,127.0,35.0,127.0,660500,688.0208333333334
5057,9.0,,,,,,36.0,,,,,,0,note_on,,127.0,36.0,127.0,660500,688.0208333333334
5058,9.0,,,,,,57.0,,,,,,480,note_off,,80.0,57.0,80.0,660980,688.5208333333334
5059,9.0,,,,,,35.0,,,,,,0,note_off,,80.0,35.0,80.0,660980,688.5208333333334
5060,9.0,,,,,,36.0,,,,,,0,note_off,,80.0,36.0,80.0,660980,688.5208333333334
5061,9.0,,,,,,35.0,,,,,,0,note_on,,127.0,35.0,127.0,660980,688.5208333333334
5062,9.0,,,,,,36.0,,,,,,0,note_on,,127.0,36.0,127.0,660980,688.5208333333334
5063,9.0,,,,,,35.0,,,,,,480,note_off,,80.0,35.0,80.0,661460,689.0208333333334
5064,9.0,,,,,,36.0,,,,,,0,note_off,,80.0,36.0,80.0,661460,689.0208333333334
5065,9.0,,,,,,35.0,,,,,,0,note_on,,127.0,35.0,127.0,661460,689.0208333333334
5066,9.0,,,,,,36.0,,,,,,0,note_on,,127.0,36.0,127.0,661460,689.0208333333334
5067,9.0,,,,,,35.0,,,,,,480,note_off,,80.0,35.0,80.0,661940,689.5208333333334
5068,9.0,,,,,,36.0,,,,,,0,note_off,,80.0,36.0,80.0,661940,689.5208333333334
5069,9.0,,,,,,35.0,,,,,,0,note_on,,127.0,35.0,127.0,661940,689.5208333333334
5070,9.0,,,,,,36.0,,,,,,0,note_on,,127.0,36.0,127.0,661940,689.5208333333334
5071,9.0,,,,,,35.0,,,,,,480,note_off,,80.0,35.0,80.0,662420,690.0208333333334
5072,9.0,,,,,,36.0,,,,,,0,note_off,,80.0,36.0,80.0,662420,690.0208333333334
5073,9.0,,,,,,35.0,,,,,,0,note_on,,127.0,35.0,127.0,662420,690.0208333333334
5074,9.0,,,,,,36.0,,,,,,0,note_on,,127.0,36.0,127.0,662420,690.0208333333334
5075,9.0,,,,,,35.0,,,,,,480,note_off,,80.0,35.0,80.0,662900,690.5208333333334
5076,9.0,,,,,,36.0,,,,,,0,note_off,,80.0,36.0,80.0,662900,690.5208333333334
5077,9.0,,,,,,35.0,,,,,,0,note_on,,127.0,35.0,127.0,662900,690.5208333333334
5078,9.0,,,,,,36.0,,,,,,0,note_on,,127.0,36.0,127.0,662900,690.5208333333334
5079,9.0,,,,,,35.0,,,,,,480,note_off,,80.0,35.0,80.0,663380,691.0208333333334
5080,9.0,,,,,,36.0,,,,,,0,note_off,,80.0,36.0,80.0,663380,691.0208333333334
5081,9.0,,,,,,35.0,,,,,,0,note_on,,127.0,35.0,127.0,663380,691.0208333333334
5082,9.0,,,,,,36.0,,,,,,0,note_on,,127.0,36.0,127.0,663380,691.0208333333334
5083,9.0,,,,,,35.0,,,,,,480,note_off,,80.0,35.0,80.0,663860,691.5208333333334
5084,9.0,,,,,,36.0,,,,,,0,note_off,,80.0,36.0,80.0,663860,691.5208333333334
5085,9.0,,,,,,46.0,,,,,,0,note_on,,111.0,46.0,111.0,663860,691.5208333333334
5086,9.0,,,,,,38.0,,,,,,0,note_on,,127.0,38.0,127.0,663860,691.5208333333334
5087,9.0,,,,,,46.0,,,,,,120,note_off,,80.0,46.0,80.0,663980,691.6458333333334
5088,9.0,,,,,,38.0,,,,,,0,note_off,,80.0,38.0,80.0,663980,691.6458333333334
5089,9.0,,,,,,57.0,,,,,,0,note_on,,111.0,57.0,111.0,663980,691.6458333333334
5090,9.0,,,,,,57.0,,,,,,360,note_off,,80.0,57.0,80.0,664340,692.0208333333334
5091,9.0,,,,,,57.0,,,,,,0,note_on,,111.0,57.0,111.0,664340,692.0208333333334
5092,9.0,,,,,,35.0,,,,,,0,note_on,,127.0,35.0,127.0,664340,692.0208333333334
5093,9.0,,,,,,36.0,,,,,,0,note_on,,127.0,36.0,127.0,664340,692.0208333333334
5094,9.0,,,,,,57.0,,,,,,480,note_off,,80.0,57.0,80.0,664820,692.5208333333334
5095,9.0,,,,,,35.0,,,,,,0,note_off,,80.0,35.0,80.0,664820,692.5208333333334
5096,9.0,,,,,,36.0,,,,,,0,note_off,,80.0,36.0,80.0,664820,692.5208333333334
5097,9.0,,,,,,35.0,,,,,,0,note_on,,127.0,35.0,127.0,664820,692.5208333333334
5098,9.0,,,,,,36.0,,,,,,0,note_on,,127.0,36.0,127.0,664820,692.5208333333334
5099,9.0,,,,,,35.0,,,,,,480,note_off,,80.0,35.0,80.0,665300,693.0208333333334
5100,9.0,,,,,,36.0,,,,,,0,note_off,,80.0,36.0,80.0,665300,693.0208333333334
5101,9.0,,,,,,35.0,,,,,,0,note_on,,127.0,35.0,127.0,665300,693.0208333333334
5102,9.0,,,,,,36.0,,,,,,0,note_on,,127.0,36.0,127.0,665300,693.0208333333334
5103,9.0,,,,,,35.0,,,,,,480,note_off,,80.0,35.0,80.0,665780,693.5208333333334
5104,9.0,,,,,,36.0,,,,,,0,note_off,,80.0,36.0,80.0,665780,693.5208333333334
5105,9.0,,,,,,35.0,,,,,,0,note_on,,127.0,35.0,127.0,665780,693.5208333333334
5106,9.0,,,,,,36.0,,,,,,0,note_on,,127.0,36.0,127.0,665780,693.5208333333334
5107,9.0,,,,,,35.0,,,,,,480,note_off,,80.0,35.0,80.0,666260,694.0208333333334
5108,9.0,,,,,,36.0,,,,,,0,note_off,,80.0,36.0,80.0,666260,694.0208333333334
5109,9.0,,,,,,35.0,,,,,,0,note_on,,127.0,35.0,127.0,666260,694.0208333333334
5110,9.0,,,,,,36.0,,,,,,0,note_on,,127.0,36.0,127.0,666260,694.0208333333334
5111,9.0,,,,,,35.0,,,,,,480,note_off,,80.0,35.0,80.0,666740,694.5208333333334
5112,9.0,,,,,,36.0,,,,,,0,note_off,,80.0,36.0,80.0,666740,694.5208333333334
5113,9.0,,,,,,35.0,,,,,,0,note_on,,127.0,35.0,127.0,666740,694.5208333333334
5114,9.0,,,,,,36.0,,,,,,0,note_on,,127.0,36.0,127.0,666740,694.5208333333334
5115,9.0,,,,,,35.0,,,,,,480,note_off,,80.0,35.0,80.0,667220,695.0208333333334
5116,9.0,,,,,,36.0,,,,,,0,note_off,,80.0,36.0,80.0,667220,695.0208333333334
5117,9.0,,,,,,35.0,,,,,,0,note_on,,127.0,35.0,127.0,667220,695.0208333333334
5118,9.0,,,,,,36.0,,,,,,0,note_on,,127.0,36.0,127.0,667220,695.0208333333334
5119,9.0,,,,,,35.0,,,,,,480,note_off,,80.0,35.0,80.0,667700,695.5208333333334
5120,9.0,,,,,,36.0,,,,,,0,note_off,,80.0,36.0,80.0,667700,695.5208333333334
5121,9.0,,,,,,46.0,,,,,,0,note_on,,111.0,46.0,111.0,667700,695.5208333333334
5122,9.0,,,,,,38.0,,,,,,0,note_on,,127.0,38.0,127.0,667700,695.5208333333334
5123,9.0,,,,,,46.0,,,,,,120,note_off,,80.0,46.0,80.0,667820,695.6458333333334
5124,9.0,,,,,,38.0,,,,,,0,note_off,,80.0,38.0,80.0,667820,695.6458333333334
5125,9.0,,,,,,57.0,,,,,,0,note_on,,111.0,57.0,111.0,667820,695.6458333333334
5126,9.0,,,,,,57.0,,,,,,360,note_off,,80.0,57.0,80.0,668180,696.0208333333334
5127,9.0,,,,,,57.0,,,,,,0,note_on,,111.0,57.0,111.0,668180,696.0208333333334
5128,9.0,,,,,,35.0,,,,,,0,note_on,,127.0,35.0,127.0,668180,696.0208333333334
5129,9.0,,,,,,36.0,,,,,,0,note_on,,127.0,36.0,127.0,668180,696.0208333333334
5130,9.0,,,,,,57.0,,,,,,480,note_off,,80.0,57.0,80.0,668660,696.5208333333334
5131,9.0,,,,,,35.0,,,,,,0,note_off,,80.0,35.0,80.0,668660,696.5208333333334
5132,9.0,,,,,,36.0,,,,,,0,note_off,,80.0,36.0,80.0,668660,696.5208333333334
5133,9.0,,,,,,35.0,,,,,,0,note_on,,127.0,35.0,127.0,668660,696.5208333333334
5134,9.0,,,,,,36.0,,,,,,0,note_on,,127.0,36.0,127.0,668660,696.5208333333334
5135,9.0,,,,,,35.0,,,,,,480,note_off,,80.0,35.0,80.0,669140,697.0208333333334
5136,9.0,,,,,,36.0,,,,,,0,note_off,,80.0,36.0,80.0,669140,697.0208333333334
5137,9.0,,,,,,35.0,,,,,,0,note_on,,127.0,35.0,127.0,669140,697.0208333333334
5138,9.0,,,,,,36.0,,,,,,0,note_on,,127.0,36.0,127.0,669140,697.0208333333334
5139,9.0,,,,,,35.0,,,,,,480,note_off,,80.0,35.0,80.0,669620,697.5208333333334
5140,9.0,,,,,,36.0,,,,,,0,note_off,,80.0,36.0,80.0,669620,697.5208333333334
5141,9.0,,,,,,35.0,,,,,,0,note_on,,127.0,35.0,127.0,669620,697.5208333333334
5142,9.0,,,,,,36.0,,,,,,0,note_on,,127.0,36.0,127.0,669620,697.5208333333334
5143,9.0,,,,,,35.0,,,,,,480,note_off,,80.0,35.0,80.0,670100,698.0208333333334
5144,9.0,,,,,,36.0,,,,,,0,note_off,,80.0,36.0,80.0,670100,698.0208333333334
5145,9.0,,,,,,35.0,,,,,,0,note_on,,127.0,35.0,127.0,670100,698.0208333333334
5146,9.0,,,,,,36.0,,,,,,0,note_on,,127.0,36.0,127.0,670100,698.0208333333334
5147,9.0,,,,,,35.0,,,,,,480,note_off,,80.0,35.0,80.0,670580,698.5208333333334
5148,9.0,,,,,,36.0,,,,,,0,note_off,,80.0,36.0,80.0,670580,698.5208333333334
5149,9.0,,,,,,35.0,,,,,,0,note_on,,127.0,35.0,127.0,670580,698.5208333333334
5150,9.0,,,,,,36.0,,,,,,0,note_on,,127.0,36.0,127.0,670580,698.5208333333334
5151,9.0,,,,,,35.0,,,,,,480,note_off,,80.0,35.0,80.0,671060,699.0208333333334
5152,9.0,,,,,,36.0,,,,,,0,note_off,,80.0,36.0,80.0,671060,699.0208333333334
5153,9.0,,,,,,35.0,,,,,,0,note_on,,127.0,35.0,127.0,671060,699.0208333333334
5154,9.0,,,,,,36.0,,,,,,0,note_on,,127.0,36.0,127.0,671060,699.0208333333334
5155,9.0,,,,,,35.0,,,,,,480,note_off,,80.0,35.0,80.0,671540,699.5208333333334
5156,9.0,,,,,,36.0,,,,,,0,note_off,,80.0,36.0,80.0,671540,699.5208333333334
5157,9.0,,,,,,46.0,,,,,,0,note_on,,111.0,46.0,111.0,671540,699.5208333333334
5158,9.0,,,,,,38.0,,,,,,0,note_on,,127.0,38.0,127.0,671540,699.5208333333334
5159,9.0,,,,,,46.0,,,,,,120,note_off,,80.0,46.0,80.0,671660,699.6458333333334
5160,9.0,,,,,,38.0,,,,,,0,note_off,,80.0,38.0,80.0,671660,699.6458333333334
5161,9.0,,,,,,57.0,,,,,,0,note_on,,111.0,57.0,111.0,671660,699.6458333333334
5162,9.0,,,,,,57.0,,,,,,360,note_off,,80.0,57.0,80.0,672020,700.0208333333334
5163,9.0,,,,,,35.0,,,,,,3240,note_on,,127.0,35.0,127.0,675260,703.3958333333334
5164,9.0,,,,,,36.0,,,,,,0,note_on,,127.0,36.0,127.0,675260,703.3958333333334
5165,9.0,,,,,,35.0,,,,,,120,note_off,,80.0,35.0,80.0,675380,703.5208333333334
5166,9.0,,,,,,36.0,,,,,,0,note_off,,80.0,36.0,80.0,675380,703.5208333333334
5167,9.0,,,,,,46.0,,,,,,0,note_on,,111.0,46.0,111.0,675380,703.5208333333334
5168,9.0,,,,,,38.0,,,,,,0,note_on,,127.0,38.0,127.0,675380,703.5208333333334
5169,9.0,,,,,,46.0,,,,,,120,note_off,,80.0,46.0,80.0,675500,703.6458333333334
5170,9.0,,,,,,38.0,,,,,,0,note_off,,80.0,38.0,80.0,675500,703.6458333333334
5171,9.0,,,,,,57.0,,,,,,0,note_on,,111.0,57.0,111.0,675500,703.6458333333334
5172,9.0,,,,,,57.0,,,,,,360,note_off,,80.0,57.0,80.0,675860,704.0208333333334
5173,9.0,,,,,,46.0,,,,,,0,note_on,,111.0,46.0,111.0,675860,704.0208333333334
5174,9.0,,,,,,35.0,,,,,,0,note_on,,127.0,35.0,127.0,675860,704.0208333333334
5175,9.0,,,,,,36.0,,,,,,0,note_on,,127.0,36.0,127.0,675860,704.0208333333334
5176,9.0,,,,,,46.0,,,,,,480,note_off,,80.0,46.0,80.0,676340,704.5208333333334
5177,9.0,,,,,,35.0,,,,,,0,note_off,,80.0,35.0,80.0,676340,704.5208333333334
5178,9.0,,,,,,36.0,,,,,,0,note_off,,80.0,36.0,80.0,676340,704.5208333333334
5179,9.0,,,,,,46.0,,,,,,0,note_on,,111.0,46.0,111.0,676340,704.5208333333334
5180,9.0,,,,,,38.0,,,,,,0,note_on,,127.0,38.0,127.0,676340,704.5208333333334
5181,9.0,,,,,,46.0,,,,,,480,note_off,,80.0,46.0,80.0,676820,705.0208333333334
5182,9.0,,,,,,38.0,,,,,,0,note_off,,80.0,38.0,80.0,676820,705.0208333333334
5183,9.0,,,,,,46.0,,,,,,0,note_on,,111.0,46.0,111.0,676820,705.0208333333334
5184,9.0,,,,,,35.0,,,,,,0,note_on,,127.0,35.0,127.0,676820,705.0208333333334
5185,9.0,,,,,,36.0,,,,,,0,note_on,,127.0,36.0,127.0,676820,705.0208333333334
5186,9.0,,,,,,46.0,,,,,,360,note_off,,80.0,46.0,80.0,677180,705.3958333333334
5187,9.0,,,,,,35.0,,,,,,0,note_off,,80.0,35.0,80.0,677180,705.3958333333334
5188,9.0,,,,,,36.0,,,,,,0,note_off,,80.0,36.0,80.0,677180,705.3958333333334
5189,9.0,,,,,,35.0,,,,,,0,note_on,,127.0,35.0,127.0,677180,705.3958333333334
5190,9.0,,,,,,36.0,,,,,,0,note_on,,127.0,36.0,127.0,677180,705.3958333333334
5191,9.0,,,,,,35.0,,,,,,120,note_off,,80.0,35.0,80.0,677300,705.5208333333334
5192,9.0,,,,,,36.0,,,,,,0,note_off,,80.0,36.0,80.0,677300,705.5208333333334
5193,9.0,,,,,,46.0,,,,,,0,note_on,,111.0,46.0,111.0,677300,705.5208333333334
5194,9.0,,,,,,38.0,,,,,,0,note_on,,127.0,38.0,127.0,677300,705.5208333333334
5195,9.0,,,,,,46.0,,,,,,120,note_off,,80.0,46.0,80.0,677420,705.6458333333334
5196,9.0,,,,,,38.0,,,,,,0,note_off,,80.0,38.0,80.0,677420,705.6458333333334
5197,9.0,,,,,,57.0,,,,,,0,note_on,,111.0,57.0,111.0,677420,705.6458333333334
5198,9.0,,,,,,57.0,,,,,,360,note_off,,80.0,57.0,80.0,677780,706.0208333333334
5199,9.0,,,,,,46.0,,,,,,0,note_on,,111.0,46.0,111.0,677780,706.0208333333334
5200,9.0,,,,,,35.0,,,,,,0,note_on,,127.0,35.0,127.0,677780,706.0208333333334
5201,9.0,,,,,,36.0,,,,,,0,note_on,,127.0,36.0,127.0,677780,706.0208333333334
5202,9.0,,,,,,46.0,,,,,,480,note_off,,80.0,46.0,80.0,678260,706.5208333333334
5203,9.0,,,,,,35.0,,,,,,0,note_off,,80.0,35.0,80.0,678260,706.5208333333334
5204,9.0,,,,,,36.0,,,,,,0,note_off,,80.0,36.0,80.0,678260,706.5208333333334
5205,9.0,,,,,,46.0,,,,,,0,note_on,,111.0,46.0,111.0,678260,706.5208333333334
5206,9.0,,,,,,35.0,,,,,,0,note_on,,95.0,35.0,95.0,678260,706.5208333333334
5207,9.0,,,,,,36.0,,,,,,0,note_on,,95.0,36.0,95.0,678260,706.5208333333334
5208,9.0,,,,,,46.0,,,,,,360,note_off,,80.0,46.0,80.0,678620,706.8958333333334
5209,9.0,,,,,,35.0,,,,,,0,note_off,,80.0,35.0,80.0,678620,706.8958333333334
5210,9.0,,,,,,36.0,,,,,,0,note_off,,80.0,36.0,80.0,678620,706.8958333333334
5211,9.0,,,,,,46.0,,,,,,0,note_on,,111.0,46.0,111.0,678620,706.8958333333334
5212,9.0,,,,,,35.0,,,,,,0,note_on,,95.0,35.0,95.0,678620,706.8958333333334
5213,9.0,,,,,,36.0,,,,,,0,note_on,,95.0,36.0,95.0,678620,706.8958333333334
5214,9.0,,,,,,46.0,,,,,,240,note_off,,80.0,46.0,80.0,678860,707.1458333333334
5215,9.0,,,,,,35.0,,,,,,0,note_off,,80.0,35.0,80.0,678860,707.1458333333334
5216,9.0,,,,,,36.0,,,,,,0,note_off,,80.0,36.0,80.0,678860,707.1458333333334
5217,9.0,,,,,,46.0,,,,,,0,note_on,,111.0,46.0,111.0,678860,707.1458333333334
5218,9.0,,,,,,35.0,,,,,,0,note_on,,95.0,35.0,95.0,678860,707.1458333333334
5219,9.0,,,,,,36.0,,,,,,0,note_on,,95.0,36.0,95.0,678860,707.1458333333334
5220,9.0,,,,,,46.0,,,,,,240,note_off,,80.0,46.0,80.0,679100,707.3958333333334
5221,9.0,,,,,,35.0,,,,,,0,note_off,,80.0,35.0,80.0,679100,707.3958333333334
5222,9.0,,,,,,36.0,,,,,,0,note_off,,80.0,36.0,80.0,679100,707.3958333333334
5223,9.0,,,,,,35.0,,,,,,0,note_on,,95.0,35.0,95.0,679100,707.3958333333334
5224,9.0,,,,,,36.0,,,,,,0,note_on,,95.0,36.0,95.0,679100,707.3958333333334
5225,9.0,,,,,,35.0,,,,,,120,note_off,,80.0,35.0,80.0,679220,707.5208333333334
5226,9.0,,,,,,36.0,,,,,,0,note_off,,80.0,36.0,80.0,679220,707.5208333333334
5227,9.0,,,,,,57.0,,,,,,0,note_on,,111.0,57.0,111.0,679220,707.5208333333334
5228,9.0,,,,,,35.0,,,,,,0,note_on,,95.0,35.0,95.0,679220,707.5208333333334
5229,9.0,,,,,,36.0,,,,,,0,note_on,,95.0,36.0,95.0,679220,707.5208333333334
5230,9.0,,,,,,57.0,,,,,,480,note_off,,80.0,57.0,80.0,679700,708.0208333333334
5231,9.0,,,,,,35.0,,,,,,0,note_off,,80.0,35.0,80.0,679700,708.0208333333334
5232,9.0,,,,,,36.0,,,,,,0,note_off,,80.0,36.0,80.0,679700,708.0208333333334
5233,9.0,,,,,,46.0,,,,,,0,note_on,,111.0,46.0,111.0,679700,708.0208333333334
5234,9.0,,,,,,35.0,,,,,,0,note_on,,127.0,35.0,127.0,679700,708.0208333333334
5235,9.0,,,,,,36.0,,,,,,0,note_on,,127.0,36.0,127.0,679700,708.0208333333334
5236,9.0,,,,,,46.0,,,,,,480,note_off,,80.0,46.0,80.0,680180,708.5208333333334
5237,9.0,,,,,,35.0,,,,,,0,note_off,,80.0,35.0,80.0,680180,708.5208333333334
5238,9.0,,,,,,36.0,,,,,,0,note_off,,80.0,36.0,80.0,680180,708.5208333333334
5239,9.0,,,,,,46.0,,,,,,0,note_on,,111.0,46.0,111.0,680180,708.5208333333334
5240,9.0,,,,,,38.0,,,,,,0,note_on,,127.0,38.0,127.0,680180,708.5208333333334
5241,9.0,,,,,,46.0,,,,,,480,note_off,,80.0,46.0,80.0,680660,709.0208333333334
5242,9.0,,,,,,38.0,,,,,,0,note_off,,80.0,38.0,80.0,680660,709.0208333333334
5243,9.0,,,,,,46.0,,,,,,0,note_on,,111.0,46.0,111.0,680660,709.0208333333334
5244,9.0,,,,,,35.0,,,,,,0,note_on,,127.0,35.0,127.0,680660,709.0208333333334
5245,9.0,,,,,,36.0,,,,,,0,note_on,,127.0,36.0,127.0,680660,709.0208333333334
5246,9.0,,,,,,46.0,,,,,,360,note_off,,80.0,46.0,80.0,681020,709.3958333333334
5247,9.0,,,,,,35.0,,,,,,0,note_off,,80.0,35.0,80.0,681020,709.3958333333334
5248,9.0,,,,,,36.0,,,,,,0,note_off,,80.0,36.0,80.0,681020,709.3958333333334
5249,9.0,,,,,,35.0,,,,,,0,note_on,,127.0,35.0,127.0,681020,709.3958333333334
5250,9.0,,,,,,36.0,,,,,,0,note_on,,127.0,36.0,127.0,681020,709.3958333333334
5251,9.0,,,,,,35.0,,,,,,120,note_off,,80.0,35.0,80.0,681140,709.5208333333334
5252,9.0,,,,,,36.0,,,,,,0,note_off,,80.0,36.0,80.0,681140,709.5208333333334
5253,9.0,,,,,,46.0,,,,,,0,note_on,,111.0,46.0,111.0,681140,709.5208333333334
5254,9.0,,,,,,38.0,,,,,,0,note_on,,127.0,38.0,127.0,681140,709.5208333333334
5255,9.0,,,,,,46.0,,,,,,120,note_off,,80.0,46.0,80.0,681260,709.6458333333334
5256,9.0,,,,,,38.0,,,,,,0,note_off,,80.0,38.0,80.0,681260,709.6458333333334
5257,9.0,,,,,,57.0,,,,,,0,note_on,,111.0,57.0,111.0,681260,709.6458333333334
5258,9.0,,,,,,57.0,,,,,,360,note_off,,80.0,57.0,80.0,681620,710.0208333333334
5259,9.0,,,,,,46.0,,,,,,0,note_on,,111.0,46.0,111.0,681620,710.0208333333334
5260,9.0,,,,,,35.0,,,,,,0,note_on,,127.0,35.0,127.0,681620,710.0208333333334
5261,9.0,,,,,,36.0,,,,,,0,note_on,,127.0,36.0,127.0,681620,710.0208333333334
5262,9.0,,,,,,46.0,,,,,,480,note_off,,80.0,46.0,80.0,682100,710.5208333333334
5263,9.0,,,,,,35.0,,,,,,0,note_off,,80.0,35.0,80.0,682100,710.5208333333334
5264,9.0,,,,,,36.0,,,,,,0,note_off,,80.0,36.0,80.0,682100,710.5208333333334
5265,9.0,,,,,,46.0,,,,,,0,note_on,,111.0,46.0,111.0,682100,710.5208333333334
5266,9.0,,,,,,38.0,,,,,,0,note_on,,127.0,38.0,127.0,682100,710.5208333333334
5267,9.0,,,,,,46.0,,,,,,480,note_off,,80.0,46.0,80.0,682580,711.0208333333334
5268,9.0,,,,,,38.0,,,,,,0,note_off,,80.0,38.0,80.0,682580,711.0208333333334
5269,9.0,,,,,,46.0,,,,,,0,note_on,,111.0,46.0,111.0,682580,711.0208333333334
5270,9.0,,,,,,35.0,,,,,,0,note_on,,127.0,35.0,127.0,682580,711.0208333333334
5271,9.0,,,,,,36.0,,,,,,0,note_on,,127.0,36.0,127.0,682580,711.0208333333334
5272,9.0,,,,,,46.0,,,,,,360,note_off,,80.0,46.0,80.0,682940,711.3958333333334
5273,9.0,,,,,,35.0,,,,,,0,note_off,,80.0,35.0,80.0,682940,711.3958333333334
5274,9.0,,,,,,36.0,,,,,,0,note_off,,80.0,36.0,80.0,682940,711.3958333333334
5275,9.0,,,,,,35.0,,,,,,0,note_on,,127.0,35.0,127.0,682940,711.3958333333334
5276,9.0,,,,,,36.0,,,,,,0,note_on,,127.0,36.0,127.0,682940,711.3958333333334
5277,9.0,,,,,,35.0,,,,,,120,note_off,,80.0,35.0,80.0,683060,711.5208333333334
5278,9.0,,,,,,36.0,,,,,,0,note_off,,80.0,36.0,80.0,683060,711.5208333333334
5279,9.0,,,,,,46.0,,,,,,0,note_on,,111.0,46.0,111.0,683060,711.5208333333334
5280,9.0,,,,,,38.0,,,,,,0,note_on,,127.0,38.0,127.0,683060,711.5208333333334
5281,9.0,,,,,,46.0,,,,,,120,note_off,,80.0,46.0,80.0,683180,711.6458333333334
5282,9.0,,,,,,38.0,,,,,,0,note_off,,80.0,38.0,80.0,683180,711.6458333333334
5283,9.0,,,,,,57.0,,,,,,0,note_on,,111.0,57.0,111.0,683180,711.6458333333334
5284,9.0,,,,,,57.0,,,,,,360,note_off,,80.0,57.0,80.0,683540,712.0208333333334
5285,9.0,,,,,,46.0,,,,,,0,note_on,,111.0,46.0,111.0,683540,712.0208333333334
5286,9.0,,,,,,35.0,,,,,,0,note_on,,127.0,35.0,127.0,683540,712.0208333333334
5287,9.0,,,,,,36.0,,,,,,0,note_on,,127.0,36.0,127.0,683540,712.0208333333334
5288,9.0,,,,,,46.0,,,,,,480,note_off,,80.0,46.0,80.0,684020,712.5208333333334
5289,9.0,,,,,,35.0,,,,,,0,note_off,,80.0,35.0,80.0,684020,712.5208333333334
5290,9.0,,,,,,36.0,,,,,,0,note_off,,80.0,36.0,80.0,684020,712.5208333333334
5291,9.0,,,,,,46.0,,,,,,0,note_on,,111.0,46.0,111.0,684020,712.5208333333334
5292,9.0,,,,,,38.0,,,,,,0,note_on,,127.0,38.0,127.0,684020,712.5208333333334
5293,9.0,,,,,,46.0,,,,,,480,note_off,,80.0,46.0,80.0,684500,713.0208333333334
5294,9.0,,,,,,38.0,,,,,,0,note_off,,80.0,38.0,80.0,684500,713.0208333333334
5295,9.0,,,,,,46.0,,,,,,0,note_on,,111.0,46.0,111.0,684500,713.0208333333334
5296,9.0,,,,,,35.0,,,,,,0,note_on,,127.0,35.0,127.0,684500,713.0208333333334
5297,9.0,,,,,,36.0,,,,,,0,note_on,,127.0,36.0,127.0,684500,713.0208333333334
5298,9.0,,,,,,46.0,,,,,,360,note_off,,80.0,46.0,80.0,684860,713.3958333333334
5299,9.0,,,,,,35.0,,,,,,0,note_off,,80.0,35.0,80.0,684860,713.3958333333334
5300,9.0,,,,,,36.0,,,,,,0,note_off,,80.0,36.0,80.0,684860,713.3958333333334
5301,9.0,,,,,,35.0,,,,,,0,note_on,,127.0,35.0,127.0,684860,713.3958333333334
5302,9.0,,,,,,36.0,,,,,,0,note_on,,127.0,36.0,127.0,684860,713.3958333333334
5303,9.0,,,,,,35.0,,,,,,120,note_off,,80.0,35.0,80.0,684980,713.5208333333334
5304,9.0,,,,,,36.0,,,,,,0,note_off,,80.0,36.0,80.0,684980,713.5208333333334
5305,9.0,,,,,,46.0,,,,,,0,note_on,,111.0,46.0,111.0,684980,713.5208333333334
5306,9.0,,,,,,38.0,,,,,,0,note_on,,127.0,38.0,127.0,684980,713.5208333333334
5307,9.0,,,,,,46.0,,,,,,120,note_off,,80.0,46.0,80.0,685100,713.6458333333334
5308,9.0,,,,,,38.0,,,,,,0,note_off,,80.0,38.0,80.0,685100,713.6458333333334
5309,9.0,,,,,,57.0,,,,,,0,note_on,,111.0,57.0,111.0,685100,713.6458333333334
5310,9.0,,,,,,57.0,,,,,,360,note_off,,80.0,57.0,80.0,685460,714.0208333333334
5311,9.0,,,,,,46.0,,,,,,0,note_on,,111.0,46.0,111.0,685460,714.0208333333334
5312,9.0,,,,,,35.0,,,,,,0,note_on,,127.0,35.0,127.0,685460,714.0208333333334
5313,9.0,,,,,,36.0,,,,,,0,note_on,,127.0,36.0,127.0,685460,714.0208333333334
5314,9.0,,,,,,46.0,,,,,,480,note_off,,80.0,46.0,80.0,685940,714.5208333333334
5315,9.0,,,,,,35.0,,,,,,0,note_off,,80.0,35.0,80.0,685940,714.5208333333334
5316,9.0,,,,,,36.0,,,,,,0,note_off,,80.0,36.0,80.0,685940,714.5208333333334
5317,9.0,,,,,,46.0,,,,,,0,note_on,,111.0,46.0,111.0,685940,714.5208333333334
5318,9.0,,,,,,35.0,,,,,,0,note_on,,95.0,35.0,95.0,685940,714.5208333333334
5319,9.0,,,,,,36.0,,,,,,0,note_on,,95.0,36.0,95.0,685940,714.5208333333334
5320,9.0,,,,,,46.0,,,,,,360,note_off,,80.0,46.0,80.0,686300,714.8958333333334
5321,9.0,,,,,,35.0,,,,,,0,note_off,,80.0,35.0,80.0,686300,714.8958333333334
5322,9.0,,,,,,36.0,,,,,,0,note_off,,80.0,36.0,80.0,686300,714.8958333333334
5323,9.0,,,,,,46.0,,,,,,0,note_on,,111.0,46.0,111.0,686300,714.8958333333334
5324,9.0,,,,,,35.0,,,,,,0,note_on,,95.0,35.0,95.0,686300,714.8958333333334
5325,9.0,,,,,,36.0,,,,,,0,note_on,,95.0,36.0,95.0,686300,714.8958333333334
5326,9.0,,,,,,46.0,,,,,,240,note_off,,80.0,46.0,80.0,686540,715.1458333333334
5327,9.0,,,,,,35.0,,,,,,0,note_off,,80.0,35.0,80.0,686540,715.1458333333334
5328,9.0,,,,,,36.0,,,,,,0,note_off,,80.0,36.0,80.0,686540,715.1458333333334
5329,9.0,,,,,,46.0,,,,,,0,note_on,,111.0,46.0,111.0,686540,715.1458333333334
5330,9.0,,,,,,35.0,,,,,,0,note_on,,95.0,35.0,95.0,686540,715.1458333333334
5331,9.0,,,,,,36.0,,,,,,0,note_on,,95.0,36.0,95.0,686540,715.1458333333334
5332,9.0,,,,,,46.0,,,,,,240,note_off,,80.0,46.0,80.0,686780,715.3958333333334
5333,9.0,,,,,,35.0,,,,,,0,note_off,,80.0,35.0,80.0,686780,715.3958333333334
5334,9.0,,,,,,36.0,,,,,,0,note_off,,80.0,36.0,80.0,686780,715.3958333333334
5335,9.0,,,,,,35.0,,,,,,0,note_on,,95.0,35.0,95.0,686780,715.3958333333334
5336,9.0,,,,,,36.0,,,,,,0,note_on,,95.0,36.0,95.0,686780,715.3958333333334
5337,9.0,,,,,,35.0,,,,,,120,note_off,,80.0,35.0,80.0,686900,715.5208333333334
5338,9.0,,,,,,36.0,,,,,,0,note_off,,80.0,36.0,80.0,686900,715.5208333333334
5339,9.0,,,,,,57.0,,,,,,0,note_on,,111.0,57.0,111.0,686900,715.5208333333334
5340,9.0,,,,,,35.0,,,,,,0,note_on,,95.0,35.0,95.0,686900,715.5208333333334
5341,9.0,,,,,,36.0,,,,,,0,note_on,,95.0,36.0,95.0,686900,715.5208333333334
5342,9.0,,,,,,57.0,,,,,,480,note_off,,80.0,57.0,80.0,687380,716.0208333333334
5343,9.0,,,,,,35.0,,,,,,0,note_off,,80.0,35.0,80.0,687380,716.0208333333334
5344,9.0,,,,,,36.0,,,,,,0,note_off,,80.0,36.0,80.0,687380,716.0208333333334
5345,9.0,,,,,,46.0,,,,,,0,note_on,,111.0,46.0,111.0,687380,716.0208333333334
5346,9.0,,,,,,35.0,,,,,,0,note_on,,127.0,35.0,127.0,687380,716.0208333333334
5347,9.0,,,,,,36.0,,,,,,0,note_on,,127.0,36.0,127.0,687380,716.0208333333334
5348,9.0,,,,,,46.0,,,,,,480,note_off,,80.0,46.0,80.0,687860,716.5208333333334
5349,9.0,,,,,,35.0,,,,,,0,note_off,,80.0,35.0,80.0,687860,716.5208333333334
5350,9.0,,,,,,36.0,,,,,,0,note_off,,80.0,36.0,80.0,687860,716.5208333333334
5351,9.0,,,,,,46.0,,,,,,0,note_on,,111.0,46.0,111.0,687860,716.5208333333334
5352,9.0,,,,,,38.0,,,,,,0,note_on,,127.0,38.0,127.0,687860,716.5208333333334
5353,9.0,,,,,,46.0,,,,,,480,note_off,,80.0,46.0,80.0,688340,717.0208333333334
5354,9.0,,,,,,38.0,,,,,,0,note_off,,80.0,38.0,80.0,688340,717.0208333333334
5355,9.0,,,,,,46.0,,,,,,0,note_on,,111.0,46.0,111.0,688340,717.0208333333334
5356,9.0,,,,,,35.0,,,,,,0,note_on,,127.0,35.0,127.0,688340,717.0208333333334
5357,9.0,,,,,,36.0,,,,,,0,note_on,,127.0,36.0,127.0,688340,717.0208333333334
5358,9.0,,,,,,46.0,,,,,,360,note_off,,80.0,46.0,80.0,688700,717.3958333333334
5359,9.0,,,,,,35.0,,,,,,0,note_off,,80.0,35.0,80.0,688700,717.3958333333334
5360,9.0,,,,,,36.0,,,,,,0,note_off,,80.0,36.0,80.0,688700,717.3958333333334
5361,9.0,,,,,,35.0,,,,,,0,note_on,,127.0,35.0,127.0,688700,717.3958333333334
5362,9.0,,,,,,36.0,,,,,,0,note_on,,127.0,36.0,127.0,688700,717.3958333333334
5363,9.0,,,,,,35.0,,,,,,120,note_off,,80.0,35.0,80.0,688820,717.5208333333334
5364,9.0,,,,,,36.0,,,,,,0,note_off,,80.0,36.0,80.0,688820,717.5208333333334
5365,9.0,,,,,,46.0,,,,,,0,note_on,,111.0,46.0,111.0,688820,717.5208333333334
5366,9.0,,,,,,38.0,,,,,,0,note_on,,127.0,38.0,127.0,688820,717.5208333333334
5367,9.0,,,,,,46.0,,,,,,120,note_off,,80.0,46.0,80.0,688940,717.6458333333334
5368,9.0,,,,,,38.0,,,,,,0,note_off,,80.0,38.0,80.0,688940,717.6458333333334
5369,9.0,,,,,,57.0,,,,,,0,note_on,,111.0,57.0,111.0,688940,717.6458333333334
5370,9.0,,,,,,57.0,,,,,,360,note_off,,80.0,57.0,80.0,689300,718.0208333333334
5371,9.0,,,,,,46.0,,,,,,0,note_on,,111.0,46.0,111.0,689300,718.0208333333334
5372,9.0,,,,,,35.0,,,,,,0,note_on,,127.0,35.0,127.0,689300,718.0208333333334
5373,9.0,,,,,,36.0,,,,,,0,note_on,,127.0,36.0,127.0,689300,718.0208333333334
5374,9.0,,,,,,46.0,,,,,,480,note_off,,80.0,46.0,80.0,689780,718.5208333333334
5375,9.0,,,,,,35.0,,,,,,0,note_off,,80.0,35.0,80.0,689780,718.5208333333334
5376,9.0,,,,,,36.0,,,,,,0,note_off,,80.0,36.0,80.0,689780,718.5208333333334
5377,9.0,,,,,,46.0,,,,,,0,note_on,,111.0,46.0,111.0,689780,718.5208333333334
5378,9.0,,,,,,38.0,,,,,,0,note_on,,127.0,38.0,127.0,689780,718.5208333333334
5379,9.0,,,,,,46.0,,,,,,480,note_off,,80.0,46.0,80.0,690260,719.0208333333334
5380,9.0,,,,,,38.0,,,,,,0,note_off,,80.0,38.0,80.0,690260,719.0208333333334
5381,9.0,,,,,,46.0,,,,,,0,note_on,,111.0,46.0,111.0,690260,719.0208333333334
5382,9.0,,,,,,35.0,,,,,,0,note_on,,127.0,35.0,127.0,690260,719.0208333333334
5383,9.0,,,,,,36.0,,,,,,0,note_on,,127.0,36.0,127.0,690260,719.0208333333334
5384,9.0,,,,,,46.0,,,,,,360,note_off,,80.0,46.0,80.0,690620,719.3958333333334
5385,9.0,,,,,,35.0,,,,,,0,note_off,,80.0,35.0,80.0,690620,719.3958333333334
5386,9.0,,,,,,36.0,,,,,,0,note_off,,80.0,36.0,80.0,690620,719.3958333333334
5387,9.0,,,,,,35.0,,,,,,0,note_on,,127.0,35.0,127.0,690620,719.3958333333334
5388,9.0,,,,,,36.0,,,,,,0,note_on,,127.0,36.0,127.0,690620,719.3958333333334
5389,9.0,,,,,,35.0,,,,,,120,note_off,,80.0,35.0,80.0,690740,719.5208333333334
5390,9.0,,,,,,36.0,,,,,,0,note_off,,80.0,36.0,80.0,690740,719.5208333333334
5391,9.0,,,,,,46.0,,,,,,0,note_on,,111.0,46.0,111.0,690740,719.5208333333334
5392,9.0,,,,,,38.0,,,,,,0,note_on,,127.0,38.0,127.0,690740,719.5208333333334
5393,9.0,,,,,,46.0,,,,,,120,note_off,,80.0,46.0,80.0,690860,719.6458333333334
5394,9.0,,,,,,38.0,,,,,,0,note_off,,80.0,38.0,80.0,690860,719.6458333333334
5395,9.0,,,,,,57.0,,,,,,0,note_on,,111.0,57.0,111.0,690860,719.6458333333334
5396,9.0,,,,,,57.0,,,,,,360,note_off,,80.0,57.0,80.0,691220,720.0208333333334
5397,9.0,,,,,,46.0,,,,,,0,note_on,,111.0,46.0,111.0,691220,720.0208333333334
5398,9.0,,,,,,35.0,,,,,,0,note_on,,127.0,35.0,127.0,691220,720.0208333333334
5399,9.0,,,,,,36.0,,,,,,0,note_on,,127.0,36.0,127.0,691220,720.0208333333334
5400,9.0,,,,,,46.0,,,,,,480,note_off,,80.0,46.0,80.0,691700,720.5208333333334
5401,9.0,,,,,,35.0,,,,,,0,note_off,,80.0,35.0,80.0,691700,720.5208333333334
5402,9.0,,,,,,36.0,,,,,,0,note_off,,80.0,36.0,80.0,691700,720.5208333333334
5403,9.0,,,,,,46.0,,,,,,0,note_on,,111.0,46.0,111.0,691700,720.5208333333334
5404,9.0,,,,,,38.0,,,,,,0,note_on,,127.0,38.0,127.0,691700,720.5208333333334
5405,9.0,,,,,,46.0,,,,,,480,note_off,,80.0,46.0,80.0,692180,721.0208333333334
5406,9.0,,,,,,38.0,,,,,,0,note_off,,80.0,38.0,80.0,692180,721.0208333333334
5407,9.0,,,,,,46.0,,,,,,0,note_on,,111.0,46.0,111.0,692180,721.0208333333334
5408,9.0,,,,,,35.0,,,,,,0,note_on,,127.0,35.0,127.0,692180,721.0208333333334
5409,9.0,,,,,,36.0,,,,,,0,note_on,,127.0,36.0,127.0,692180,721.0208333333334
5410,9.0,,,,,,46.0,,,,,,360,note_off,,80.0,46.0,80.0,692540,721.3958333333334
5411,9.0,,,,,,35.0,,,,,,0,note_off,,80.0,35.0,80.0,692540,721.3958333333334
5412,9.0,,,,,,36.0,,,,,,0,note_off,,80.0,36.0,80.0,692540,721.3958333333334
5413,9.0,,,,,,35.0,,,,,,0,note_on,,127.0,35.0,127.0,692540,721.3958333333334
5414,9.0,,,,,,36.0,,,,,,0,note_on,,127.0,36.0,127.0,692540,721.3958333333334
5415,9.0,,,,,,35.0,,,,,,120,note_off,,80.0,35.0,80.0,692660,721.5208333333334
5416,9.0,,,,,,36.0,,,,,,0,note_off,,80.0,36.0,80.0,692660,721.5208333333334
5417,9.0,,,,,,46.0,,,,,,0,note_on,,111.0,46.0,111.0,692660,721.5208333333334
5418,9.0,,,,,,38.0,,,,,,0,note_on,,127.0,38.0,127.0,692660,721.5208333333334
5419,9.0,,,,,,46.0,,,,,,120,note_off,,80.0,46.0,80.0,692780,721.6458333333334
5420,9.0,,,,,,38.0,,,,,,0,note_off,,80.0,38.0,80.0,692780,721.6458333333334
5421,9.0,,,,,,57.0,,,,,,0,note_on,,111.0,57.0,111.0,692780,721.6458333333334
5422,9.0,,,,,,57.0,,,,,,360,note_off,,80.0,57.0,80.0,693140,722.0208333333334
5423,9.0,,,,,,46.0,,,,,,0,note_on,,111.0,46.0,111.0,693140,722.0208333333334
5424,9.0,,,,,,35.0,,,,,,0,note_on,,127.0,35.0,127.0,693140,722.0208333333334
5425,9.0,,,,,,36.0,,,,,,0,note_on,,127.0,36.0,127.0,693140,722.0208333333334
5426,9.0,,,,,,46.0,,,,,,480,note_off,,80.0,46.0,80.0,693620,722.5208333333334
5427,9.0,,,,,,35.0,,,,,,0,note_off,,80.0,35.0,80.0,693620,722.5208333333334
5428,9.0,,,,,,36.0,,,,,,0,note_off,,80.0,36.0,80.0,693620,722.5208333333334
5429,9.0,,,,,,46.0,,,,,,0,note_on,,111.0,46.0,111.0,693620,722.5208333333334
5430,9.0,,,,,,35.0,,,,,,0,note_on,,95.0,35.0,95.0,693620,722.5208333333334
5431,9.0,,,,,,36.0,,,,,,0,note_on,,95.0,36.0,95.0,693620,722.5208333333334
5432,9.0,,,,,,46.0,,,,,,360,note_off,,80.0,46.0,80.0,693980,722.8958333333334
5433,9.0,,,,,,35.0,,,,,,0,note_off,,80.0,35.0,80.0,693980,722.8958333333334
5434,9.0,,,,,,36.0,,,,,,0,note_off,,80.0,36.0,80.0,693980,722.8958333333334
5435,9.0,,,,,,46.0,,,,,,0,note_on,,111.0,46.0,111.0,693980,722.8958333333334
5436,9.0,,,,,,35.0,,,,,,0,note_on,,95.0,35.0,95.0,693980,722.8958333333334
5437,9.0,,,,,,36.0,,,,,,0,note_on,,95.0,36.0,95.0,693980,722.8958333333334
5438,9.0,,,,,,46.0,,,,,,240,note_off,,80.0,46.0,80.0,694220,723.1458333333334
5439,9.0,,,,,,35.0,,,,,,0,note_off,,80.0,35.0,80.0,694220,723.1458333333334
5440,9.0,,,,,,36.0,,,,,,0,note_off,,80.0,36.0,80.0,694220,723.1458333333334
5441,9.0,,,,,,46.0,,,,,,0,note_on,,111.0,46.0,111.0,694220,723.1458333333334
5442,9.0,,,,,,35.0,,,,,,0,note_on,,95.0,35.0,95.0,694220,723.1458333333334
5443,9.0,,,,,,36.0,,,,,,0,note_on,,95.0,36.0,95.0,694220,723.1458333333334
5444,9.0,,,,,,46.0,,,,,,240,note_off,,80.0,46.0,80.0,694460,723.3958333333334
5445,9.0,,,,,,35.0,,,,,,0,note_off,,80.0,35.0,80.0,694460,723.3958333333334
5446,9.0,,,,,,36.0,,,,,,0,note_off,,80.0,36.0,80.0,694460,723.3958333333334
5447,9.0,,,,,,35.0,,,,,,0,note_on,,95.0,35.0,95.0,694460,723.3958333333334
5448,9.0,,,,,,36.0,,,,,,0,note_on,,95.0,36.0,95.0,694460,723.3958333333334
5449,9.0,,,,,,35.0,,,,,,120,note_off,,80.0,35.0,80.0,694580,723.5208333333334
5450,9.0,,,,,,36.0,,,,,,0,note_off,,80.0,36.0,80.0,694580,723.5208333333334
5451,9.0,,,,,,57.0,,,,,,0,note_on,,111.0,57.0,111.0,694580,723.5208333333334
5452,9.0,,,,,,35.0,,,,,,0,note_on,,95.0,35.0,95.0,694580,723.5208333333334
5453,9.0,,,,,,36.0,,,,,,0,note_on,,95.0,36.0,95.0,694580,723.5208333333334
5454,9.0,,,,,,57.0,,,,,,480,note_off,,80.0,57.0,80.0,695060,724.0208333333334
5455,9.0,,,,,,35.0,,,,,,0,note_off,,80.0,35.0,80.0,695060,724.0208333333334
5456,9.0,,,,,,36.0,,,,,,0,note_off,,80.0,36.0,80.0,695060,724.0208333333334
5457,9.0,,,,,,46.0,,,,,,0,note_on,,111.0,46.0,111.0,695060,724.0208333333334
5458,9.0,,,,,,35.0,,,,,,0,note_on,,127.0,35.0,127.0,695060,724.0208333333334
5459,9.0,,,,,,36.0,,,,,,0,note_on,,127.0,36.0,127.0,695060,724.0208333333334
5460,9.0,,,,,,46.0,,,,,,480,note_off,,80.0,46.0,80.0,695540,724.5208333333334
5461,9.0,,,,,,35.0,,,,,,0,note_off,,80.0,35.0,80.0,695540,724.5208333333334
5462,9.0,,,,,,36.0,,,,,,0,note_off,,80.0,36.0,80.0,695540,724.5208333333334
5463,9.0,,,,,,46.0,,,,,,0,note_on,,111.0,46.0,111.0,695540,724.5208333333334
5464,9.0,,,,,,38.0,,,,,,0,note_on,,127.0,38.0,127.0,695540,724.5208333333334
5465,9.0,,,,,,46.0,,,,,,480,note_off,,80.0,46.0,80.0,696020,725.0208333333334
5466,9.0,,,,,,38.0,,,,,,0,note_off,,80.0,38.0,80.0,696020,725.0208333333334
5467,9.0,,,,,,46.0,,,,,,0,note_on,,111.0,46.0,111.0,696020,725.0208333333334
5468,9.0,,,,,,35.0,,,,,,0,note_on,,127.0,35.0,127.0,696020,725.0208333333334
5469,9.0,,,,,,36.0,,,,,,0,note_on,,127.0,36.0,127.0,696020,725.0208333333334
5470,9.0,,,,,,46.0,,,,,,360,note_off,,80.0,46.0,80.0,696380,725.3958333333334
5471,9.0,,,,,,35.0,,,,,,0,note_off,,80.0,35.0,80.0,696380,725.3958333333334
5472,9.0,,,,,,36.0,,,,,,0,note_off,,80.0,36.0,80.0,696380,725.3958333333334
5473,9.0,,,,,,35.0,,,,,,0,note_on,,127.0,35.0,127.0,696380,725.3958333333334
5474,9.0,,,,,,36.0,,,,,,0,note_on,,127.0,36.0,127.0,696380,725.3958333333334
5475,9.0,,,,,,35.0,,,,,,120,note_off,,80.0,35.0,80.0,696500,725.5208333333334
5476,9.0,,,,,,36.0,,,,,,0,note_off,,80.0,36.0,80.0,696500,725.5208333333334
5477,9.0,,,,,,46.0,,,,,,0,note_on,,111.0,46.0,111.0,696500,725.5208333333334
5478,9.0,,,,,,38.0,,,,,,0,note_on,,127.0,38.0,127.0,696500,725.5208333333334
5479,9.0,,,,,,46.0,,,,,,120,note_off,,80.0,46.0,80.0,696620,725.6458333333334
5480,9.0,,,,,,38.0,,,,,,0,note_off,,80.0,38.0,80.0,696620,725.6458333333334
5481,9.0,,,,,,57.0,,,,,,0,note_on,,111.0,57.0,111.0,696620,725.6458333333334
5482,9.0,,,,,,57.0,,,,,,360,note_off,,80.0,57.0,80.0,696980,726.0208333333334
5483,9.0,,,,,,46.0,,,,,,0,note_on,,111.0,46.0,111.0,696980,726.0208333333334
5484,9.0,,,,,,35.0,,,,,,0,note_on,,127.0,35.0,127.0,696980,726.0208333333334
5485,9.0,,,,,,36.0,,,,,,0,note_on,,127.0,36.0,127.0,696980,726.0208333333334
5486,9.0,,,,,,46.0,,,,,,480,note_off,,80.0,46.0,80.0,697460,726.5208333333334
5487,9.0,,,,,,35.0,,,,,,0,note_off,,80.0,35.0,80.0,697460,726.5208333333334
5488,9.0,,,,,,36.0,,,,,,0,note_off,,80.0,36.0,80.0,697460,726.5208333333334
5489,9.0,,,,,,46.0,,,,,,0,note_on,,111.0,46.0,111.0,697460,726.5208333333334
5490,9.0,,,,,,38.0,,,,,,0,note_on,,127.0,38.0,127.0,697460,726.5208333333334
5491,9.0,,,,,,46.0,,,,,,480,note_off,,80.0,46.0,80.0,697940,727.0208333333334
5492,9.0,,,,,,38.0,,,,,,0,note_off,,80.0,38.0,80.0,697940,727.0208333333334
5493,9.0,,,,,,46.0,,,,,,0,note_on,,111.0,46.0,111.0,697940,727.0208333333334
5494,9.0,,,,,,35.0,,,,,,0,note_on,,127.0,35.0,127.0,697940,727.0208333333334
5495,9.0,,,,,,36.0,,,,,,0,note_on,,127.0,36.0,127.0,697940,727.0208333333334
5496,9.0,,,,,,46.0,,,,,,360,note_off,,80.0,46.0,80.0,698300,727.3958333333334
5497,9.0,,,,,,35.0,,,,,,0,note_off,,80.0,35.0,80.0,698300,727.3958333333334
5498,9.0,,,,,,36.0,,,,,,0,note_off,,80.0,36.0,80.0,698300,727.3958333333334
5499,9.0,,,,,,35.0,,,,,,0,note_on,,127.0,35.0,127.0,698300,727.3958333333334
5500,9.0,,,,,,36.0,,,,,,0,note_on,,127.0,36.0,127.0,698300,727.3958333333334
5501,9.0,,,,,,35.0,,,,,,120,note_off,,80.0,35.0,80.0,698420,727.5208333333334
5502,9.0,,,,,,36.0,,,,,,0,note_off,,80.0,36.0,80.0,698420,727.5208333333334
5503,9.0,,,,,,46.0,,,,,,0,note_on,,111.0,46.0,111.0,698420,727.5208333333334
5504,9.0,,,,,,38.0,,,,,,0,note_on,,127.0,38.0,127.0,698420,727.5208333333334
5505,9.0,,,,,,46.0,,,,,,120,note_off,,80.0,46.0,80.0,698540,727.6458333333334
5506,9.0,,,,,,38.0,,,,,,0,note_off,,80.0,38.0,80.0,698540,727.6458333333334
5507,9.0,,,,,,57.0,,,,,,0,note_on,,111.0,57.0,111.0,698540,727.6458333333334
5508,9.0,,,,,,57.0,,,,,,360,note_off,,80.0,57.0,80.0,698900,728.0208333333334
5509,9.0,,,,,,46.0,,,,,,0,note_on,,111.0,46.0,111.0,698900,728.0208333333334
5510,9.0,,,,,,35.0,,,,,,0,note_on,,127.0,35.0,127.0,698900,728.0208333333334
5511,9.0,,,,,,36.0,,,,,,0,note_on,,127.0,36.0,127.0,698900,728.0208333333334
5512,9.0,,,,,,46.0,,,,,,480,note_off,,80.0,46.0,80.0,699380,728.5208333333334
5513,9.0,,,,,,35.0,,,,,,0,note_off,,80.0,35.0,80.0,699380,728.5208333333334
5514,9.0,,,,,,36.0,,,,,,0,note_off,,80.0,36.0,80.0,699380,728.5208333333334
5515,9.0,,,,,,46.0,,,,,,0,note_on,,111.0,46.0,111.0,699380,728.5208333333334
5516,9.0,,,,,,38.0,,,,,,0,note_on,,127.0,38.0,127.0,699380,728.5208333333334
5517,9.0,,,,,,46.0,,,,,,480,note_off,,80.0,46.0,80.0,699860,729.0208333333334
5518,9.0,,,,,,38.0,,,,,,0,note_off,,80.0,38.0,80.0,699860,729.0208333333334
5519,9.0,,,,,,46.0,,,,,,0,note_on,,111.0,46.0,111.0,699860,729.0208333333334
5520,9.0,,,,,,35.0,,,,,,0,note_on,,127.0,35.0,127.0,699860,729.0208333333334
5521,9.0,,,,,,36.0,,,,,,0,note_on,,127.0,36.0,127.0,699860,729.0208333333334
5522,9.0,,,,,,46.0,,,,,,360,note_off,,80.0,46.0,80.0,700220,729.3958333333334
5523,9.0,,,,,,35.0,,,,,,0,note_off,,80.0,35.0,80.0,700220,729.3958333333334
5524,9.0,,,,,,36.0,,,,,,0,note_off,,80.0,36.0,80.0,700220,729.3958333333334
5525,9.0,,,,,,35.0,,,,,,0,note_on,,127.0,35.0,127.0,700220,729.3958333333334
5526,9.0,,,,,,36.0,,,,,,0,note_on,,127.0,36.0,127.0,700220,729.3958333333334
5527,9.0,,,,,,35.0,,,,,,120,note_off,,80.0,35.0,80.0,700340,729.5208333333334
5528,9.0,,,,,,36.0,,,,,,0,note_off,,80.0,36.0,80.0,700340,729.5208333333334
5529,9.0,,,,,,46.0,,,,,,0,note_on,,111.0,46.0,111.0,700340,729.5208333333334
5530,9.0,,,,,,38.0,,,,,,0,note_on,,127.0,38.0,127.0,700340,729.5208333333334
5531,9.0,,,,,,46.0,,,,,,120,note_off,,80.0,46.0,80.0,700460,729.6458333333334
5532,9.0,,,,,,38.0,,,,,,0,note_off,,80.0,38.0,80.0,700460,729.6458333333334
5533,9.0,,,,,,57.0,,,,,,0,note_on,,111.0,57.0,111.0,700460,729.6458333333334
5534,9.0,,,,,,57.0,,,,,,360,note_off,,80.0,57.0,80.0,700820,730.0208333333334
5535,9.0,,,,,,46.0,,,,,,0,note_on,,111.0,46.0,111.0,700820,730.0208333333334
5536,9.0,,,,,,35.0,,,,,,0,note_on,,127.0,35.0,127.0,700820,730.0208333333334
5537,9.0,,,,,,36.0,,,,,,0,note_on,,127.0,36.0,127.0,700820,730.0208333333334
5538,9.0,,,,,,46.0,,,,,,480,note_off,,80.0,46.0,80.0,701300,730.5208333333334
5539,9.0,,,,,,35.0,,,,,,0,note_off,,80.0,35.0,80.0,701300,730.5208333333334
5540,9.0,,,,,,36.0,,,,,,0,note_off,,80.0,36.0,80.0,701300,730.5208333333334
5541,9.0,,,,,,46.0,,,,,,0,note_on,,111.0,46.0,111.0,701300,730.5208333333334
5542,9.0,,,,,,35.0,,,,,,0,note_on,,95.0,35.0,95.0,701300,730.5208333333334
5543,9.0,,,,,,36.0,,,,,,0,note_on,,95.0,36.0,95.0,701300,730.5208333333334
5544,9.0,,,,,,46.0,,,,,,360,note_off,,80.0,46.0,80.0,701660,730.8958333333334
5545,9.0,,,,,,35.0,,,,,,0,note_off,,80.0,35.0,80.0,701660,730.8958333333334
5546,9.0,,,,,,36.0,,,,,,0,note_off,,80.0,36.0,80.0,701660,730.8958333333334
5547,9.0,,,,,,46.0,,,,,,0,note_on,,111.0,46.0,111.0,701660,730.8958333333334
5548,9.0,,,,,,35.0,,,,,,0,note_on,,95.0,35.0,95.0,701660,730.8958333333334
5549,9.0,,,,,,36.0,,,,,,0,note_on,,95.0,36.0,95.0,701660,730.8958333333334
5550,9.0,,,,,,46.0,,,,,,240,note_off,,80.0,46.0,80.0,701900,731.1458333333334
5551,9.0,,,,,,35.0,,,,,,0,note_off,,80.0,35.0,80.0,701900,731.1458333333334
5552,9.0,,,,,,36.0,,,,,,0,note_off,,80.0,36.0,80.0,701900,731.1458333333334
5553,9.0,,,,,,46.0,,,,,,0,note_on,,111.0,46.0,111.0,701900,731.1458333333334
5554,9.0,,,,,,35.0,,,,,,0,note_on,,95.0,35.0,95.0,701900,731.1458333333334
5555,9.0,,,,,,36.0,,,,,,0,note_on,,95.0,36.0,95.0,701900,731.1458333333334
5556,9.0,,,,,,46.0,,,,,,240,note_off,,80.0,46.0,80.0,702140,731.3958333333334
5557,9.0,,,,,,35.0,,,,,,0,note_off,,80.0,35.0,80.0,702140,731.3958333333334
5558,9.0,,,,,,36.0,,,,,,0,note_off,,80.0,36.0,80.0,702140,731.3958333333334
5559,9.0,,,,,,35.0,,,,,,0,note_on,,95.0,35.0,95.0,702140,731.3958333333334
5560,9.0,,,,,,36.0,,,,,,0,note_on,,95.0,36.0,95.0,702140,731.3958333333334
5561,9.0,,,,,,35.0,,,,,,120,note_off,,80.0,35.0,80.0,702260,731.5208333333334
5562,9.0,,,,,,36.0,,,,,,0,note_off,,80.0,36.0,80.0,702260,731.5208333333334
5563,9.0,,,,,,57.0,,,,,,0,note_on,,111.0,57.0,111.0,702260,731.5208333333334
5564,9.0,,,,,,35.0,,,,,,0,note_on,,95.0,35.0,95.0,702260,731.5208333333334
5565,9.0,,,,,,36.0,,,,,,0,note_on,,95.0,36.0,95.0,702260,731.5208333333334
5566,9.0,,,,,,57.0,,,,,,480,note_off,,80.0,57.0,80.0,702740,732.0208333333334
5567,9.0,,,,,,35.0,,,,,,0,note_off,,80.0,35.0,80.0,702740,732.0208333333334
5568,9.0,,,,,,36.0,,,,,,0,note_off,,80.0,36.0,80.0,702740,732.0208333333334
5569,,,,,,,,,,,,,0,end_of_track,,,,,702740,732.0208333333334
