,channel,clocks_per_click,control,denominator,name,notated_32nd_notes_per_beat,note,numerator,pitch,program,tempo,time,type,value,velocity,note_midi_value,note_velocity,note_time,note_seconds
0,,,,,,,,,,,500000.0,0,set_tempo,,,,,0,0.0
1,,,,,Seven Nation Army,,,,,,,0,track_name,,,,,4607182418800017416,4799148352916685.0
2,,7.0,,4.0,,161.0,,4.0,,,,0,time_signature,,,,,0,0.0
3,,,,,,,,,,,,0,end_of_track,,,,,4613937818241073160,4806185227334451.0
4,,,,,Guitar 1 (Jack White) Open A Tuning,,,,,,,0,track_name,,,,,4616189618054758400,4808530852140373.0
5,0.0,,100.0,,,,,,,,,0,control_change,0.0,,,,0,0.0
6,0.0,,101.0,,,,,,,,,0,control_change,0.0,,,,0,0.0
7,0.0,,6.0,,,,,,,,,0,control_change,12.0,,,,0,0.0
8,0.0,,,,,,,,0.0,,,0,pitchwheel,,,,,0,0.0
9,1.0,,100.0,,,,,,,,,0,control_change,0.0,,,,0,0.0
10,1.0,,101.0,,,,,,,,,0,control_change,0.0,,,,0,0.0
11,1.0,,6.0,,,,,,,,,0,control_change,12.0,,,,0,0.0
12,1.0,,,,,,,,0.0,,,0,pitchwheel,,,,,0,0.0
13,0.0,,,,,,,,,29.0,,0,program_change,,,,,0,0.0
14,1.0,,,,,,,,,29.0,,0,program_change,,,,,0,0.0
15,0.0,,7.0,,,,,,,,,0,control_change,104.0,,,,0,0.0
16,1.0,,7.0,,,,,,,,,0,control_change,104.0,,,,0,0.0
17,0.0,,10.0,,,,,,,,,0,control_change,64.0,,,,0,0.0
18,1.0,,10.0,,,,,,,,,0,control_change,64.0,,,,0,0.0
19,0.0,,93.0,,,,,,,,,0,control_change,0.0,,,,0,0.0
20,1.0,,93.0,,,,,,,,,0,control_change,0.0,,,,0,0.0
21,0.0,,91.0,,,,,,,,,0,control_change,0.0,,,,0,0.0
22,1.0,,91.0,,,,,,,,,0,control_change,0.0,,,,0,0.0
23,0.0,,92.0,,,,,,,,,0,control_change,0.0,,,,0,0.0
24,1.0,,92.0,,,,,,,,,0,control_change,0.0,,,,0,0.0
25,0.0,,95.0,,,,,,,,,0,control_change,0.0,,,,0,0.0
26,1.0,,95.0,,,,,,,,,0,control_change,0.0,,,,0,0.0
27,0.0,,,,,,50.0,,,,,46080,note_on,,95.0,50.0,95.0,46080,48.0
28,0.0,,,,,,43.0,,,,,0,note_on,,95.0,43.0,95.0,46080,48.0
29,0.0,,,,,,50.0,,,,,240,note_off,,80.0,50.0,80.0,46320,48.25
30,0.0,,,,,,43.0,,,,,0,note_off,,80.0,43.0,80.0,46320,48.25
31,0.0,,,,,,50.0,,,,,0,note_on,,95.0,50.0,95.0,46320,48.25
32,0.0,,,,,,43.0,,,,,0,note_on,,95.0,43.0,95.0,46320,48.25
33,0.0,,,,,,50.0,,,,,240,note_off,,80.0,50.0,80.0,46560,48.5
34,0.0,,,,,,43.0,,,,,0,note_off,,80.0,43.0,80.0,46560,48.5
35,0.0,,,,,,50.0,,,,,0,note_on,,95.0,50.0,95.0,46560,48.5
36,0.0,,,,,,43.0,,,,,0,note_on,,95.0,43.0,95.0,46560,48.5
37,0.0,,,,,,50.0,,,,,240,note_off,,80.0,50.0,80.0,46800,48.75
38,0.0,,,,,,43.0,,,,,0,note_off,,80.0,43.0,80.0,46800,48.75
39,0.0,,,,,,50.0,,,,,0,note_on,,95.0,50.0,95.0,46800,48.75
40,0.0,,,,,,43.0,,,,,0,note_on,,95.0,43.0,95.0,46800,48.75
41,0.0,,,,,,50.0,,,,,240,note_off,,80.0,50.0,80.0,47040,49.0
42,0.0,,,,,,43.0,,,,,0,note_off,,80.0,43.0,80.0,47040,49.0
43,0.0,,,,,,50.0,,,,,0,note_on,,95.0,50.0,95.0,47040,49.0
44,0.0,,,,,,43.0,,,,,0,note_on,,95.0,43.0,95.0,47040,49.0
45,0.0,,,,,,50.0,,,,,240,note_off,,80.0,50.0,80.0,47280,49.25
46,0.0,,,,,,43.0,,,,,0,note_off,,80.0,43.0,80.0,47280,49.25
47,0.0,,,,,,50.0,,,,,0,note_on,,95.0,50.0,95.0,47280,49.25
48,0.0,,,,,,43.0,,,,,0,note_on,,95.0,43.0,95.0,47280,49.25
49,0.0,,,,,,50.0,,,,,240,note_off,,80.0,50.0,80.0,47520,49.5
50,0.0,,,,,,43.0,,,,,0,note_off,,80.0,43.0,80.0,47520,49.5
51,0.0,,,,,,50.0,,,,,0,note_on,,95.0,50.0,95.0,47520,49.5
52,0.0,,,,,,43.0,,,,,0,note_on,,95.0,43.0,95.0,47520,49.5
53,0.0,,,,,,50.0,,,,,240,note_off,,80.0,50.0,80.0,47760,49.75
54,0.0,,,,,,43.0,,,,,0,note_off,,80.0,43.0,80.0,47760,49.75
55,0.0,,,,,,50.0,,,,,0,note_on,,95.0,50.0,95.0,47760,49.75
56,0.0,,,,,,43.0,,,,,0,note_on,,95.0,43.0,95.0,47760,49.75
57,0.0,,,,,,50.0,,,,,240,note_off,,80.0,50.0,80.0,48000,50.0
58,0.0,,,,,,43.0,,,,,0,note_off,,80.0,43.0,80.0,48000,50.0
59,0.0,,,,,,45.0,,,,,0,note_on,,95.0,45.0,95.0,48000,50.0
60,0.0,,,,,,40.0,,,,,0,note_on,,95.0,40.0,95.0,48000,50.0
61,0.0,,,,,,45.0,,,,,240,note_off,,80.0,45.0,80.0,48240,50.25
62,0.0,,,,,,40.0,,,,,0,note_off,,80.0,40.0,80.0,48240,50.25
63,0.0,,,,,,45.0,,,,,0,note_on,,95.0,45.0,95.0,48240,50.25
64,0.0,,,,,,40.0,,,,,0,note_on,,95.0,40.0,95.0,48240,50.25
65,0.0,,,,,,45.0,,,,,240,note_off,,80.0,45.0,80.0,48480,50.5
66,0.0,,,,,,40.0,,,,,0,note_off,,80.0,40.0,80.0,48480,50.5
67,0.0,,,,,,52.0,,,,,0,note_on,,95.0,52.0,95.0,48480,50.5
68,0.0,,,,,,45.0,,,,,0,note_on,,95.0,45.0,95.0,48480,50.5
69,0.0,,,,,,40.0,,,,,0,note_on,,95.0,40.0,95.0,48480,50.5
70,0.0,,,,,,52.0,,,,,240,note_off,,80.0,52.0,80.0,48720,50.75
71,0.0,,,,,,45.0,,,,,0,note_off,,80.0,45.0,80.0,48720,50.75
72,0.0,,,,,,40.0,,,,,0,note_off,,80.0,40.0,80.0,48720,50.75
73,0.0,,,,,,52.0,,,,,0,note_on,,95.0,52.0,95.0,48720,50.75
74,0.0,,,,,,45.0,,,,,0,note_on,,95.0,45.0,95.0,48720,50.75
75,0.0,,,,,,40.0,,,,,0,note_on,,95.0,40.0,95.0,48720,50.75
76,0.0,,,,,,52.0,,,,,240,note_off,,80.0,52.0,80.0,48960,51.0
77,0.0,,,,,,45.0,,,,,0,note_off,,80.0,45.0,80.0,48960,51.0
78,0.0,,,,,,40.0,,,,,0,note_off,,80.0,40.0,80.0,48960,51.0
79,0.0,,,,,,57.0,,,,,0,note_on,,95.0,57.0,95.0,48960,51.0
80,0.0,,,,,,52.0,,,,,0,note_on,,95.0,52.0,95.0,48960,51.0
81,0.0,,,,,,45.0,,,,,0,note_on,,95.0,45.0,95.0,48960,51.0
82,0.0,,,,,,40.0,,,,,0,note_on,,95.0,40.0,95.0,48960,51.0
83,0.0,,,,,,57.0,,,,,240,note_off,,80.0,57.0,80.0,49200,51.25
84,0.0,,,,,,52.0,,,,,0,note_off,,80.0,52.0,80.0,49200,51.25
85,0.0,,,,,,45.0,,,,,0,note_off,,80.0,45.0,80.0,49200,51.25
86,0.0,,,,,,40.0,,,,,0,note_off,,80.0,40.0,80.0,49200,51.25
87,0.0,,,,,,61.0,,,,,0,note_on,,95.0,61.0,95.0,49200,51.25
88,0.0,,,,,,57.0,,,,,0,note_on,,95.0,57.0,95.0,49200,51.25
89,0.0,,,,,,52.0,,,,,0,note_on,,95.0,52.0,95.0,49200,51.25
90,0.0,,,,,,45.0,,,,,0,note_on,,95.0,45.0,95.0,49200,51.25
91,0.0,,,,,,40.0,,,,,0,note_on,,95.0,40.0,95.0,49200,51.25
92,0.0,,,,,,61.0,,,,,240,note_off,,80.0,61.0,80.0,49440,51.5
93,0.0,,,,,,57.0,,,,,0,note_off,,80.0,57.0,80.0,49440,51.5
94,0.0,,,,,,52.0,,,,,0,note_off,,80.0,52.0,80.0,49440,51.5
95,0.0,,,,,,45.0,,,,,0,note_off,,80.0,45.0,80.0,49440,51.5
96,0.0,,,,,,40.0,,,,,0,note_off,,80.0,40.0,80.0,49440,51.5
97,0.0,,,,,,64.0,,,,,0,note_on,,95.0,64.0,95.0,49440,51.5
98,0.0,,,,,,61.0,,,,,0,note_on,,95.0,61.0,95.0,49440,51.5
99,0.0,,,,,,57.0,,,,,0,note_on,,95.0,57.0,95.0,49440,51.5
100,0.0,,,,,,52.0,,,,,0,note_on,,95.0,52.0,95.0,49440,51.5
101,0.0,,,,,,45.0,,,,,0,note_on,,95.0,45.0,95.0,49440,51.5
102,0.0,,,,,,40.0,,,,,0,note_on,,95.0,40.0,95.0,49440,51.5
103,0.0,,,,,,64.0,,,,,240,note_off,,80.0,64.0,80.0,49680,51.75
104,0.0,,,,,,61.0,,,,,0,note_off,,80.0,61.0,80.0,49680,51.75
105,0.0,,,,,,57.0,,,,,0,note_off,,80.0,57.0,80.0,49680,51.75
106,0.0,,,,,,52.0,,,,,0,note_off,,80.0,52.0,80.0,49680,51.75
107,0.0,,,,,,45.0,,,,,0,note_off,,80.0,45.0,80.0,49680,51.75
108,0.0,,,,,,40.0,,,,,0,note_off,,80.0,40.0,80.0,49680,51.75
109,0.0,,,,,,64.0,,,,,0,note_on,,95.0,64.0,95.0,49680,51.75
110,0.0,,,,,,61.0,,,,,0,note_on,,95.0,61.0,95.0,49680,51.75
111,0.0,,,,,,57.0,,,,,0,note_on,,95.0,57.0,95.0,49680,51.75
112,0.0,,,,,,52.0,,,,,0,note_on,,95.0,52.0,95.0,49680,51.75
113,0.0,,,,,,45.0,,,,,0,note_on,,95.0,45.0,95.0,49680,51.75
114,0.0,,,,,,40.0,,,,,0,note_on,,95.0,40.0,95.0,49680,51.75
115,0.0,,,,,,57.0,,,,,210,note_on,,95.0,57.0,95.0,49890,51.96875
116,0.0,,,,,,52.0,,,,,0,note_on,,95.0,52.0,95.0,49890,51.96875
117,0.0,,,,,,45.0,,,,,0,note_on,,95.0,45.0,95.0,49890,51.96875
118,0.0,,,,,,57.0,,,,,29,note_off,,80.0,57.0,80.0,49919,51.998958333333334
119,0.0,,,,,,52.0,,,,,0,note_off,,80.0,52.0,80.0,49919,51.998958333333334
120,0.0,,,,,,45.0,,,,,0,note_off,,80.0,45.0,80.0,49919,51.998958333333334
121,0.0,,,,,,64.0,,,,,1,note_off,,80.0,64.0,80.0,49920,52.0
122,0.0,,,,,,61.0,,,,,0,note_off,,80.0,61.0,80.0,49920,52.0
123,0.0,,,,,,57.0,,,,,0,note_off,,80.0,57.0,80.0,49920,52.0
124,0.0,,,,,,52.0,,,,,0,note_off,,80.0,52.0,80.0,49920,52.0
125,0.0,,,,,,45.0,,,,,0,note_off,,80.0,45.0,80.0,49920,52.0
126,0.0,,,,,,40.0,,,,,0,note_off,,80.0,40.0,80.0,49920,52.0
127,0.0,,,,,,64.0,,,,,0,note_on,,95.0,64.0,95.0,49920,52.0
128,0.0,,,,,,59.0,,,,,0,note_on,,95.0,59.0,95.0,49920,52.0
129,0.0,,,,,,52.0,,,,,0,note_on,,95.0,52.0,95.0,49920,52.0
130,0.0,,,,,,64.0,,,,,720,note_off,,80.0,64.0,80.0,50640,52.75
131,0.0,,,,,,59.0,,,,,0,note_off,,80.0,59.0,80.0,50640,52.75
132,0.0,,,,,,52.0,,,,,0,note_off,,80.0,52.0,80.0,50640,52.75
133,1.0,,,,,,64.0,,,,,0,note_on,,95.0,64.0,95.0,0,0.0
134,1.0,,,,,,59.0,,,,,0,note_on,,95.0,59.0,95.0,0,0.0
135,1.0,,,,,,52.0,,,,,0,note_on,,95.0,52.0,95.0,0,0.0
136,1.0,,,,,,,,640.0,,,120,pitchwheel,,,,,120,0.125
137,1.0,,,,,,,,640.0,,,0,pitchwheel,,,,,120,0.125
138,1.0,,,,,,,,640.0,,,0,pitchwheel,,,,,120,0.125
139,1.0,,,,,,,,1408.0,,,60,pitchwheel,,,,,180,0.1875
140,1.0,,,,,,,,1408.0,,,0,pitchwheel,,,,,180,0.1875
141,1.0,,,,,,,,1408.0,,,0,pitchwheel,,,,,180,0.1875
142,1.0,,,,,,64.0,,,,,60,note_off,,80.0,64.0,80.0,240,0.25
143,1.0,,,,,,,,0.0,,,0,pitchwheel,,,,,240,0.25
144,1.0,,,,,,59.0,,,,,0,note_off,,80.0,59.0,80.0,240,0.25
145,1.0,,,,,,,,0.0,,,0,pitchwheel,,,,,240,0.25
146,1.0,,,,,,52.0,,,,,0,note_off,,80.0,52.0,80.0,240,0.25
147,1.0,,,,,,,,0.0,,,0,pitchwheel,,,,,240,0.25
148,0.0,,,,,,67.0,,,,,0,note_on,,86.0,67.0,86.0,50640,52.75
149,0.0,,,,,,62.0,,,,,0,note_on,,86.0,62.0,86.0,50640,52.75
150,0.0,,,,,,55.0,,,,,0,note_on,,86.0,55.0,86.0,50640,52.75
151,0.0,,,,,,67.0,,,,,240,note_off,,80.0,67.0,80.0,50880,53.0
152,0.0,,,,,,62.0,,,,,0,note_off,,80.0,62.0,80.0,50880,53.0
153,0.0,,,,,,55.0,,,,,0,note_off,,80.0,55.0,80.0,50880,53.0
154,0.0,,,,,,64.0,,,,,120,note_on,,95.0,64.0,95.0,51000,53.125
155,0.0,,,,,,59.0,,,,,0,note_on,,95.0,59.0,95.0,51000,53.125
156,0.0,,,,,,52.0,,,,,0,note_on,,95.0,52.0,95.0,51000,53.125
157,0.0,,,,,,64.0,,,,,240,note_off,,80.0,64.0,80.0,51240,53.375
158,0.0,,,,,,59.0,,,,,0,note_off,,80.0,59.0,80.0,51240,53.375
159,0.0,,,,,,52.0,,,,,0,note_off,,80.0,52.0,80.0,51240,53.375
160,0.0,,,,,,62.0,,,,,120,note_on,,95.0,62.0,95.0,51360,53.5
161,0.0,,,,,,57.0,,,,,0,note_on,,95.0,57.0,95.0,51360,53.5
162,0.0,,,,,,50.0,,,,,0,note_on,,95.0,50.0,95.0,51360,53.5
163,0.0,,,,,,62.0,,,,,240,note_off,,80.0,62.0,80.0,51600,53.75
164,0.0,,,,,,57.0,,,,,0,note_off,,80.0,57.0,80.0,51600,53.75
165,0.0,,,,,,50.0,,,,,0,note_off,,80.0,50.0,80.0,51600,53.75
166,0.0,,,,,,60.0,,,,,0,note_on,,95.0,60.0,95.0,51600,53.75
167,0.0,,,,,,55.0,,,,,0,note_on,,95.0,55.0,95.0,51600,53.75
168,0.0,,,,,,48.0,,,,,0,note_on,,95.0,48.0,95.0,51600,53.75
169,0.0,,,,,,60.0,,,,,960,note_off,,80.0,60.0,80.0,52560,54.75
170,0.0,,,,,,55.0,,,,,0,note_off,,80.0,55.0,80.0,52560,54.75
171,0.0,,,,,,48.0,,,,,0,note_off,,80.0,48.0,80.0,52560,54.75
172,0.0,,,,,,59.0,,,,,0,note_on,,95.0,59.0,95.0,52560,54.75
173,0.0,,,,,,54.0,,,,,0,note_on,,95.0,54.0,95.0,52560,54.75
174,0.0,,,,,,47.0,,,,,0,note_on,,95.0,47.0,95.0,52560,54.75
175,0.0,,,,,,57.0,,,,,930,note_on,,95.0,57.0,95.0,53490,55.71875
176,0.0,,,,,,52.0,,,,,0,note_on,,95.0,52.0,95.0,53490,55.71875
177,0.0,,,,,,45.0,,,,,0,note_on,,95.0,45.0,95.0,53490,55.71875
178,0.0,,,,,,57.0,,,,,29,note_off,,80.0,57.0,80.0,53519,55.748958333333334
179,0.0,,,,,,52.0,,,,,0,note_off,,80.0,52.0,80.0,53519,55.748958333333334
180,0.0,,,,,,45.0,,,,,0,note_off,,80.0,45.0,80.0,53519,55.748958333333334
181,0.0,,,,,,59.0,,,,,1,note_off,,80.0,59.0,80.0,53520,55.75
182,0.0,,,,,,54.0,,,,,0,note_off,,80.0,54.0,80.0,53520,55.75
183,0.0,,,,,,47.0,,,,,0,note_off,,80.0,47.0,80.0,53520,55.75
184,0.0,,,,,,64.0,,,,,0,note_on,,95.0,64.0,95.0,53520,55.75
185,0.0,,,,,,59.0,,,,,0,note_on,,95.0,59.0,95.0,53520,55.75
186,0.0,,,,,,52.0,,,,,0,note_on,,95.0,52.0,95.0,53520,55.75
187,0.0,,,,,,64.0,,,,,720,note_off,,80.0,64.0,80.0,54240,56.5
188,0.0,,,,,,59.0,,,,,0,note_off,,80.0,59.0,80.0,54240,56.5
189,0.0,,,,,,52.0,,,,,0,note_off,,80.0,52.0,80.0,54240,56.5
190,1.0,,,,,,64.0,,,,,0,note_on,,95.0,64.0,95.0,240,0.25
191,1.0,,,,,,59.0,,,,,0,note_on,,95.0,59.0,95.0,240,0.25
192,1.0,,,,,,52.0,,,,,0,note_on,,95.0,52.0,95.0,240,0.25
193,1.0,,,,,,,,640.0,,,120,pitchwheel,,,,,360,0.375
194,1.0,,,,,,,,640.0,,,0,pitchwheel,,,,,360,0.375
195,1.0,,,,,,,,640.0,,,0,pitchwheel,,,,,360,0.375
196,1.0,,,,,,,,1408.0,,,60,pitchwheel,,,,,420,0.4375
197,1.0,,,,,,,,1408.0,,,0,pitchwheel,,,,,420,0.4375
198,1.0,,,,,,,,1408.0,,,0,pitchwheel,,,,,420,0.4375
199,1.0,,,,,,64.0,,,,,60,note_off,,80.0,64.0,80.0,480,0.5
200,1.0,,,,,,,,0.0,,,0,pitchwheel,,,,,480,0.5
201,1.0,,,,,,59.0,,,,,0,note_off,,80.0,59.0,80.0,480,0.5
202,1.0,,,,,,,,0.0,,,0,pitchwheel,,,,,480,0.5
203,1.0,,,,,,52.0,,,,,0,note_off,,80.0,52.0,80.0,480,0.5
204,1.0,,,,,,,,0.0,,,0,pitchwheel,,,,,480,0.5
205,0.0,,,,,,67.0,,,,,0,note_on,,86.0,67.0,86.0,54240,56.5
206,0.0,,,,,,62.0,,,,,0,note_on,,86.0,62.0,86.0,54240,56.5
207,0.0,,,,,,55.0,,,,,0,note_on,,86.0,55.0,86.0,54240,56.5
208,0.0,,,,,,67.0,,,,,240,note_off,,80.0,67.0,80.0,54480,56.75
209,0.0,,,,,,62.0,,,,,0,note_off,,80.0,62.0,80.0,54480,56.75
210,0.0,,,,,,55.0,,,,,0,note_off,,80.0,55.0,80.0,54480,56.75
211,0.0,,,,,,64.0,,,,,120,note_on,,95.0,64.0,95.0,54600,56.875
212,0.0,,,,,,59.0,,,,,0,note_on,,95.0,59.0,95.0,54600,56.875
213,0.0,,,,,,52.0,,,,,0,note_on,,95.0,52.0,95.0,54600,56.875
214,0.0,,,,,,64.0,,,,,240,note_off,,80.0,64.0,80.0,54840,57.125
215,0.0,,,,,,59.0,,,,,0,note_off,,80.0,59.0,80.0,54840,57.125
216,0.0,,,,,,52.0,,,,,0,note_off,,80.0,52.0,80.0,54840,57.125
217,0.0,,,,,,62.0,,,,,120,note_on,,95.0,62.0,95.0,54960,57.25
218,0.0,,,,,,57.0,,,,,0,note_on,,95.0,57.0,95.0,54960,57.25
219,0.0,,,,,,50.0,,,,,0,note_on,,95.0,50.0,95.0,54960,57.25
220,0.0,,,,,,62.0,,,,,240,note_off,,80.0,62.0,80.0,55200,57.5
221,0.0,,,,,,57.0,,,,,0,note_off,,80.0,57.0,80.0,55200,57.5
222,0.0,,,,,,50.0,,,,,0,note_off,,80.0,50.0,80.0,55200,57.5
223,0.0,,,,,,60.0,,,,,0,note_on,,95.0,60.0,95.0,55200,57.5
224,0.0,,,,,,55.0,,,,,0,note_on,,95.0,55.0,95.0,55200,57.5
225,0.0,,,,,,48.0,,,,,0,note_on,,95.0,48.0,95.0,55200,57.5
226,0.0,,,,,,60.0,,,,,360,note_off,,80.0,60.0,80.0,55560,57.875
227,0.0,,,,,,55.0,,,,,0,note_off,,80.0,55.0,80.0,55560,57.875
228,0.0,,,,,,48.0,,,,,0,note_off,,80.0,48.0,80.0,55560,57.875
229,0.0,,,,,,62.0,,,,,0,note_on,,95.0,62.0,95.0,55560,57.875
230,0.0,,,,,,57.0,,,,,0,note_on,,95.0,57.0,95.0,55560,57.875
231,0.0,,,,,,50.0,,,,,0,note_on,,95.0,50.0,95.0,55560,57.875
232,0.0,,,,,,62.0,,,,,360,note_off,,80.0,62.0,80.0,55920,58.25
233,0.0,,,,,,57.0,,,,,0,note_off,,80.0,57.0,80.0,55920,58.25
234,0.0,,,,,,50.0,,,,,0,note_off,,80.0,50.0,80.0,55920,58.25
235,0.0,,,,,,60.0,,,,,0,note_on,,95.0,60.0,95.0,55920,58.25
236,0.0,,,,,,55.0,,,,,0,note_on,,95.0,55.0,95.0,55920,58.25
237,0.0,,,,,,48.0,,,,,0,note_on,,95.0,48.0,95.0,55920,58.25
238,0.0,,,,,,60.0,,,,,240,note_off,,80.0,60.0,80.0,56160,58.5
239,0.0,,,,,,55.0,,,,,0,note_off,,80.0,55.0,80.0,56160,58.5
240,0.0,,,,,,48.0,,,,,0,note_off,,80.0,48.0,80.0,56160,58.5
241,0.0,,,,,,59.0,,,,,0,note_on,,95.0,59.0,95.0,56160,58.5
242,0.0,,,,,,54.0,,,,,0,note_on,,95.0,54.0,95.0,56160,58.5
243,0.0,,,,,,47.0,,,,,0,note_on,,95.0,47.0,95.0,56160,58.5
244,0.0,,,,,,57.0,,,,,930,note_on,,95.0,57.0,95.0,57090,59.46875
245,0.0,,,,,,52.0,,,,,0,note_on,,95.0,52.0,95.0,57090,59.46875
246,0.0,,,,,,45.0,,,,,0,note_on,,95.0,45.0,95.0,57090,59.46875
247,0.0,,,,,,57.0,,,,,29,note_off,,80.0,57.0,80.0,57119,59.498958333333334
248,0.0,,,,,,52.0,,,,,0,note_off,,80.0,52.0,80.0,57119,59.498958333333334
249,0.0,,,,,,45.0,,,,,0,note_off,,80.0,45.0,80.0,57119,59.498958333333334
250,0.0,,,,,,59.0,,,,,1,note_off,,80.0,59.0,80.0,57120,59.5
251,0.0,,,,,,54.0,,,,,0,note_off,,80.0,54.0,80.0,57120,59.5
252,0.0,,,,,,47.0,,,,,0,note_off,,80.0,47.0,80.0,57120,59.5
253,0.0,,,,,,64.0,,,,,0,note_on,,95.0,64.0,95.0,57120,59.5
254,0.0,,,,,,59.0,,,,,0,note_on,,95.0,59.0,95.0,57120,59.5
255,0.0,,,,,,52.0,,,,,0,note_on,,95.0,52.0,95.0,57120,59.5
256,0.0,,,,,,64.0,,,,,720,note_off,,80.0,64.0,80.0,57840,60.25
257,0.0,,,,,,59.0,,,,,0,note_off,,80.0,59.0,80.0,57840,60.25
258,0.0,,,,,,52.0,,,,,0,note_off,,80.0,52.0,80.0,57840,60.25
259,1.0,,,,,,64.0,,,,,0,note_on,,95.0,64.0,95.0,480,0.5
260,1.0,,,,,,59.0,,,,,0,note_on,,95.0,59.0,95.0,480,0.5
261,1.0,,,,,,52.0,,,,,0,note_on,,95.0,52.0,95.0,480,0.5
262,1.0,,,,,,,,640.0,,,120,pitchwheel,,,,,600,0.625
263,1.0,,,,,,,,640.0,,,0,pitchwheel,,,,,600,0.625
264,1.0,,,,,,,,640.0,,,0,pitchwheel,,,,,600,0.625
265,1.0,,,,,,,,1408.0,,,60,pitchwheel,,,,,660,0.6875
266,1.0,,,,,,,,1408.0,,,0,pitchwheel,,,,,660,0.6875
267,1.0,,,,,,,,1408.0,,,0,pitchwheel,,,,,660,0.6875
268,1.0,,,,,,64.0,,,,,60,note_off,,80.0,64.0,80.0,720,0.75
269,1.0,,,,,,,,0.0,,,0,pitchwheel,,,,,720,0.75
270,1.0,,,,,,59.0,,,,,0,note_off,,80.0,59.0,80.0,720,0.75
271,1.0,,,,,,,,0.0,,,0,pitchwheel,,,,,720,0.75
272,1.0,,,,,,52.0,,,,,0,note_off,,80.0,52.0,80.0,720,0.75
273,1.0,,,,,,,,0.0,,,0,pitchwheel,,,,,720,0.75
274,0.0,,,,,,67.0,,,,,0,note_on,,86.0,67.0,86.0,57840,60.25
275,0.0,,,,,,62.0,,,,,0,note_on,,86.0,62.0,86.0,57840,60.25
276,0.0,,,,,,55.0,,,,,0,note_on,,86.0,55.0,86.0,57840,60.25
277,0.0,,,,,,67.0,,,,,240,note_off,,80.0,67.0,80.0,58080,60.5
278,0.0,,,,,,62.0,,,,,0,note_off,,80.0,62.0,80.0,58080,60.5
279,0.0,,,,,,55.0,,,,,0,note_off,,80.0,55.0,80.0,58080,60.5
280,0.0,,,,,,64.0,,,,,120,note_on,,95.0,64.0,95.0,58200,60.625
281,0.0,,,,,,59.0,,,,,0,note_on,,95.0,59.0,95.0,58200,60.625
282,0.0,,,,,,52.0,,,,,0,note_on,,95.0,52.0,95.0,58200,60.625
283,0.0,,,,,,64.0,,,,,240,note_off,,80.0,64.0,80.0,58440,60.875
284,0.0,,,,,,59.0,,,,,0,note_off,,80.0,59.0,80.0,58440,60.875
285,0.0,,,,,,52.0,,,,,0,note_off,,80.0,52.0,80.0,58440,60.875
286,0.0,,,,,,62.0,,,,,120,note_on,,95.0,62.0,95.0,58560,61.0
287,0.0,,,,,,57.0,,,,,0,note_on,,95.0,57.0,95.0,58560,61.0
288,0.0,,,,,,50.0,,,,,0,note_on,,95.0,50.0,95.0,58560,61.0
289,0.0,,,,,,62.0,,,,,240,note_off,,80.0,62.0,80.0,58800,61.25
290,0.0,,,,,,57.0,,,,,0,note_off,,80.0,57.0,80.0,58800,61.25
291,0.0,,,,,,50.0,,,,,0,note_off,,80.0,50.0,80.0,58800,61.25
292,0.0,,,,,,60.0,,,,,0,note_on,,95.0,60.0,95.0,58800,61.25
293,0.0,,,,,,55.0,,,,,0,note_on,,95.0,55.0,95.0,58800,61.25
294,0.0,,,,,,48.0,,,,,0,note_on,,95.0,48.0,95.0,58800,61.25
295,0.0,,,,,,60.0,,,,,960,note_off,,80.0,60.0,80.0,59760,62.25
296,0.0,,,,,,55.0,,,,,0,note_off,,80.0,55.0,80.0,59760,62.25
297,0.0,,,,,,48.0,,,,,0,note_off,,80.0,48.0,80.0,59760,62.25
298,0.0,,,,,,59.0,,,,,0,note_on,,95.0,59.0,95.0,59760,62.25
299,0.0,,,,,,54.0,,,,,0,note_on,,95.0,54.0,95.0,59760,62.25
300,0.0,,,,,,47.0,,,,,0,note_on,,95.0,47.0,95.0,59760,62.25
301,0.0,,,,,,57.0,,,,,930,note_on,,95.0,57.0,95.0,60690,63.21875
302,0.0,,,,,,52.0,,,,,0,note_on,,95.0,52.0,95.0,60690,63.21875
303,0.0,,,,,,45.0,,,,,0,note_on,,95.0,45.0,95.0,60690,63.21875
304,0.0,,,,,,57.0,,,,,29,note_off,,80.0,57.0,80.0,60719,63.248958333333334
305,0.0,,,,,,52.0,,,,,0,note_off,,80.0,52.0,80.0,60719,63.248958333333334
306,0.0,,,,,,45.0,,,,,0,note_off,,80.0,45.0,80.0,60719,63.248958333333334
307,0.0,,,,,,59.0,,,,,1,note_off,,80.0,59.0,80.0,60720,63.25
308,0.0,,,,,,54.0,,,,,0,note_off,,80.0,54.0,80.0,60720,63.25
309,0.0,,,,,,47.0,,,,,0,note_off,,80.0,47.0,80.0,60720,63.25
310,0.0,,,,,,64.0,,,,,0,note_on,,95.0,64.0,95.0,60720,63.25
311,0.0,,,,,,59.0,,,,,0,note_on,,95.0,59.0,95.0,60720,63.25
312,0.0,,,,,,52.0,,,,,0,note_on,,95.0,52.0,95.0,60720,63.25
313,0.0,,,,,,64.0,,,,,720,note_off,,80.0,64.0,80.0,61440,64.0
314,0.0,,,,,,59.0,,,,,0,note_off,,80.0,59.0,80.0,61440,64.0
315,0.0,,,,,,52.0,,,,,0,note_off,,80.0,52.0,80.0,61440,64.0
316,1.0,,,,,,64.0,,,,,0,note_on,,95.0,64.0,95.0,720,0.75
317,1.0,,,,,,59.0,,,,,0,note_on,,95.0,59.0,95.0,720,0.75
318,1.0,,,,,,52.0,,,,,0,note_on,,95.0,52.0,95.0,720,0.75
319,1.0,,,,,,,,640.0,,,120,pitchwheel,,,,,840,0.875
320,1.0,,,,,,,,640.0,,,0,pitchwheel,,,,,840,0.875
321,1.0,,,,,,,,640.0,,,0,pitchwheel,,,,,840,0.875
322,1.0,,,,,,,,1408.0,,,60,pitchwheel,,,,,900,0.9375
323,1.0,,,,,,,,1408.0,,,0,pitchwheel,,,,,900,0.9375
324,1.0,,,,,,,,1408.0,,,0,pitchwheel,,,,,900,0.9375
325,1.0,,,,,,64.0,,,,,60,note_off,,80.0,64.0,80.0,960,1.0
326,1.0,,,,,,,,0.0,,,0,pitchwheel,,,,,960,1.0
327,1.0,,,,,,59.0,,,,,0,note_off,,80.0,59.0,80.0,960,1.0
328,1.0,,,,,,,,0.0,,,0,pitchwheel,,,,,960,1.0
329,1.0,,,,,,52.0,,,,,0,note_off,,80.0,52.0,80.0,960,1.0
330,1.0,,,,,,,,0.0,,,0,pitchwheel,,,,,960,1.0
331,0.0,,,,,,67.0,,,,,0,note_on,,86.0,67.0,86.0,61440,64.0
332,0.0,,,,,,62.0,,,,,0,note_on,,86.0,62.0,86.0,61440,64.0
333,0.0,,,,,,55.0,,,,,0,note_on,,86.0,55.0,86.0,61440,64.0
334,0.0,,,,,,67.0,,,,,240,note_off,,80.0,67.0,80.0,61680,64.25
335,0.0,,,,,,62.0,,,,,0,note_off,,80.0,62.0,80.0,61680,64.25
336,0.0,,,,,,55.0,,,,,0,note_off,,80.0,55.0,80.0,61680,64.25
337,0.0,,,,,,64.0,,,,,120,note_on,,95.0,64.0,95.0,61800,64.375
338,0.0,,,,,,59.0,,,,,0,note_on,,95.0,59.0,95.0,61800,64.375
339,0.0,,,,,,52.0,,,,,0,note_on,,95.0,52.0,95.0,61800,64.375
340,0.0,,,,,,64.0,,,,,240,note_off,,80.0,64.0,80.0,62040,64.625
341,0.0,,,,,,59.0,,,,,0,note_off,,80.0,59.0,80.0,62040,64.625
342,0.0,,,,,,52.0,,,,,0,note_off,,80.0,52.0,80.0,62040,64.625
343,0.0,,,,,,62.0,,,,,120,note_on,,95.0,62.0,95.0,62160,64.75
344,0.0,,,,,,57.0,,,,,0,note_on,,95.0,57.0,95.0,62160,64.75
345,0.0,,,,,,50.0,,,,,0,note_on,,95.0,50.0,95.0,62160,64.75
346,0.0,,,,,,62.0,,,,,240,note_off,,80.0,62.0,80.0,62400,65.0
347,0.0,,,,,,57.0,,,,,0,note_off,,80.0,57.0,80.0,62400,65.0
348,0.0,,,,,,50.0,,,,,0,note_off,,80.0,50.0,80.0,62400,65.0
349,0.0,,,,,,60.0,,,,,0,note_on,,95.0,60.0,95.0,62400,65.0
350,0.0,,,,,,55.0,,,,,0,note_on,,95.0,55.0,95.0,62400,65.0
351,0.0,,,,,,48.0,,,,,0,note_on,,95.0,48.0,95.0,62400,65.0
352,0.0,,,,,,60.0,,,,,360,note_off,,80.0,60.0,80.0,62760,65.375
353,0.0,,,,,,55.0,,,,,0,note_off,,80.0,55.0,80.0,62760,65.375
354,0.0,,,,,,48.0,,,,,0,note_off,,80.0,48.0,80.0,62760,65.375
355,0.0,,,,,,62.0,,,,,0,note_on,,95.0,62.0,95.0,62760,65.375
356,0.0,,,,,,57.0,,,,,0,note_on,,95.0,57.0,95.0,62760,65.375
357,0.0,,,,,,50.0,,,,,0,note_on,,95.0,50.0,95.0,62760,65.375
358,0.0,,,,,,62.0,,,,,360,note_off,,80.0,62.0,80.0,63120,65.75
359,0.0,,,,,,57.0,,,,,0,note_off,,80.0,57.0,80.0,63120,65.75
360,0.0,,,,,,50.0,,,,,0,note_off,,80.0,50.0,80.0,63120,65.75
361,0.0,,,,,,60.0,,,,,0,note_on,,95.0,60.0,95.0,63120,65.75
362,0.0,,,,,,55.0,,,,,0,note_on,,95.0,55.0,95.0,63120,65.75
363,0.0,,,,,,48.0,,,,,0,note_on,,95.0,48.0,95.0,63120,65.75
364,0.0,,,,,,60.0,,,,,240,note_off,,80.0,60.0,80.0,63360,66.0
365,0.0,,,,,,55.0,,,,,0,note_off,,80.0,55.0,80.0,63360,66.0
366,0.0,,,,,,48.0,,,,,0,note_off,,80.0,48.0,80.0,63360,66.0
367,0.0,,,,,,59.0,,,,,0,note_on,,95.0,59.0,95.0,63360,66.0
368,0.0,,,,,,54.0,,,,,0,note_on,,95.0,54.0,95.0,63360,66.0
369,0.0,,,,,,47.0,,,,,0,note_on,,95.0,47.0,95.0,63360,66.0
370,0.0,,,,,,59.0,,,,,960,note_off,,80.0,59.0,80.0,64320,67.0
371,0.0,,,,,,54.0,,,,,0,note_off,,80.0,54.0,80.0,64320,67.0
372,0.0,,,,,,47.0,,,,,0,note_off,,80.0,47.0,80.0,64320,67.0
373,0.0,,,,,,50.0,,,,,0,note_on,,95.0,50.0,95.0,64320,67.0
374,0.0,,,,,,43.0,,,,,0,note_on,,95.0,43.0,95.0,64320,67.0
375,0.0,,,,,,50.0,,,,,240,note_off,,80.0,50.0,80.0,64560,67.25
376,0.0,,,,,,43.0,,,,,0,note_off,,80.0,43.0,80.0,64560,67.25
377,0.0,,,,,,50.0,,,,,0,note_on,,95.0,50.0,95.0,64560,67.25
378,0.0,,,,,,43.0,,,,,0,note_on,,95.0,43.0,95.0,64560,67.25
379,0.0,,,,,,50.0,,,,,240,note_off,,80.0,50.0,80.0,64800,67.5
380,0.0,,,,,,43.0,,,,,0,note_off,,80.0,43.0,80.0,64800,67.5
381,0.0,,,,,,50.0,,,,,0,note_on,,95.0,50.0,95.0,64800,67.5
382,0.0,,,,,,43.0,,,,,0,note_on,,95.0,43.0,95.0,64800,67.5
383,0.0,,,,,,50.0,,,,,240,note_off,,80.0,50.0,80.0,65040,67.75
384,0.0,,,,,,43.0,,,,,0,note_off,,80.0,43.0,80.0,65040,67.75
385,0.0,,,,,,50.0,,,,,0,note_on,,95.0,50.0,95.0,65040,67.75
386,0.0,,,,,,43.0,,,,,0,note_on,,95.0,43.0,95.0,65040,67.75
387,0.0,,,,,,50.0,,,,,240,note_off,,80.0,50.0,80.0,65280,68.0
388,0.0,,,,,,43.0,,,,,0,note_off,,80.0,43.0,80.0,65280,68.0
389,0.0,,,,,,50.0,,,,,0,note_on,,95.0,50.0,95.0,65280,68.0
390,0.0,,,,,,43.0,,,,,0,note_on,,95.0,43.0,95.0,65280,68.0
391,0.0,,,,,,50.0,,,,,240,note_off,,80.0,50.0,80.0,65520,68.25
392,0.0,,,,,,43.0,,,,,0,note_off,,80.0,43.0,80.0,65520,68.25
393,0.0,,,,,,50.0,,,,,0,note_on,,95.0,50.0,95.0,65520,68.25
394,0.0,,,,,,43.0,,,,,0,note_on,,95.0,43.0,95.0,65520,68.25
395,0.0,,,,,,50.0,,,,,240,note_off,,80.0,50.0,80.0,65760,68.5
396,0.0,,,,,,43.0,,,,,0,note_off,,80.0,43.0,80.0,65760,68.5
397,0.0,,,,,,50.0,,,,,0,note_on,,95.0,50.0,95.0,65760,68.5
398,0.0,,,,,,43.0,,,,,0,note_on,,95.0,43.0,95.0,65760,68.5
399,0.0,,,,,,50.0,,,,,240,note_off,,80.0,50.0,80.0,66000,68.75
400,0.0,,,,,,43.0,,,,,0,note_off,,80.0,43.0,80.0,66000,68.75
401,0.0,,,,,,50.0,,,,,0,note_on,,95.0,50.0,95.0,66000,68.75
402,0.0,,,,,,43.0,,,,,0,note_on,,95.0,43.0,95.0,66000,68.75
403,0.0,,,,,,50.0,,,,,240,note_off,,80.0,50.0,80.0,66240,69.0
404,0.0,,,,,,43.0,,,,,0,note_off,,80.0,43.0,80.0,66240,69.0
405,0.0,,,,,,45.0,,,,,0,note_on,,95.0,45.0,95.0,66240,69.0
406,0.0,,,,,,40.0,,,,,0,note_on,,95.0,40.0,95.0,66240,69.0
407,0.0,,,,,,45.0,,,,,240,note_off,,80.0,45.0,80.0,66480,69.25
408,0.0,,,,,,40.0,,,,,0,note_off,,80.0,40.0,80.0,66480,69.25
409,0.0,,,,,,45.0,,,,,0,note_on,,95.0,45.0,95.0,66480,69.25
410,0.0,,,,,,40.0,,,,,0,note_on,,95.0,40.0,95.0,66480,69.25
411,0.0,,,,,,45.0,,,,,240,note_off,,80.0,45.0,80.0,66720,69.5
412,0.0,,,,,,40.0,,,,,0,note_off,,80.0,40.0,80.0,66720,69.5
413,0.0,,,,,,52.0,,,,,0,note_on,,95.0,52.0,95.0,66720,69.5
414,0.0,,,,,,45.0,,,,,0,note_on,,95.0,45.0,95.0,66720,69.5
415,0.0,,,,,,40.0,,,,,0,note_on,,95.0,40.0,95.0,66720,69.5
416,0.0,,,,,,52.0,,,,,240,note_off,,80.0,52.0,80.0,66960,69.75
417,0.0,,,,,,45.0,,,,,0,note_off,,80.0,45.0,80.0,66960,69.75
418,0.0,,,,,,40.0,,,,,0,note_off,,80.0,40.0,80.0,66960,69.75
419,0.0,,,,,,52.0,,,,,0,note_on,,95.0,52.0,95.0,66960,69.75
420,0.0,,,,,,45.0,,,,,0,note_on,,95.0,45.0,95.0,66960,69.75
421,0.0,,,,,,40.0,,,,,0,note_on,,95.0,40.0,95.0,66960,69.75
422,0.0,,,,,,52.0,,,,,240,note_off,,80.0,52.0,80.0,67200,70.0
423,0.0,,,,,,45.0,,,,,0,note_off,,80.0,45.0,80.0,67200,70.0
424,0.0,,,,,,40.0,,,,,0,note_off,,80.0,40.0,80.0,67200,70.0
425,0.0,,,,,,57.0,,,,,0,note_on,,95.0,57.0,95.0,67200,70.0
426,0.0,,,,,,52.0,,,,,0,note_on,,95.0,52.0,95.0,67200,70.0
427,0.0,,,,,,45.0,,,,,0,note_on,,95.0,45.0,95.0,67200,70.0
428,0.0,,,,,,40.0,,,,,0,note_on,,95.0,40.0,95.0,67200,70.0
429,0.0,,,,,,57.0,,,,,240,note_off,,80.0,57.0,80.0,67440,70.25
430,0.0,,,,,,52.0,,,,,0,note_off,,80.0,52.0,80.0,67440,70.25
431,0.0,,,,,,45.0,,,,,0,note_off,,80.0,45.0,80.0,67440,70.25
432,0.0,,,,,,40.0,,,,,0,note_off,,80.0,40.0,80.0,67440,70.25
433,0.0,,,,,,61.0,,,,,0,note_on,,95.0,61.0,95.0,67440,70.25
434,0.0,,,,,,57.0,,,,,0,note_on,,95.0,57.0,95.0,67440,70.25
435,0.0,,,,,,52.0,,,,,0,note_on,,95.0,52.0,95.0,67440,70.25
436,0.0,,,,,,45.0,,,,,0,note_on,,95.0,45.0,95.0,67440,70.25
437,0.0,,,,,,40.0,,,,,0,note_on,,95.0,40.0,95.0,67440,70.25
438,0.0,,,,,,61.0,,,,,240,note_off,,80.0,61.0,80.0,67680,70.5
439,0.0,,,,,,57.0,,,,,0,note_off,,80.0,57.0,80.0,67680,70.5
440,0.0,,,,,,52.0,,,,,0,note_off,,80.0,52.0,80.0,67680,70.5
441,0.0,,,,,,45.0,,,,,0,note_off,,80.0,45.0,80.0,67680,70.5
442,0.0,,,,,,40.0,,,,,0,note_off,,80.0,40.0,80.0,67680,70.5
443,0.0,,,,,,64.0,,,,,0,note_on,,95.0,64.0,95.0,67680,70.5
444,0.0,,,,,,61.0,,,,,0,note_on,,95.0,61.0,95.0,67680,70.5
445,0.0,,,,,,57.0,,,,,0,note_on,,95.0,57.0,95.0,67680,70.5
446,0.0,,,,,,52.0,,,,,0,note_on,,95.0,52.0,95.0,67680,70.5
447,0.0,,,,,,45.0,,,,,0,note_on,,95.0,45.0,95.0,67680,70.5
448,0.0,,,,,,40.0,,,,,0,note_on,,95.0,40.0,95.0,67680,70.5
449,0.0,,,,,,64.0,,,,,240,note_off,,80.0,64.0,80.0,67920,70.75
450,0.0,,,,,,61.0,,,,,0,note_off,,80.0,61.0,80.0,67920,70.75
451,0.0,,,,,,57.0,,,,,0,note_off,,80.0,57.0,80.0,67920,70.75
452,0.0,,,,,,52.0,,,,,0,note_off,,80.0,52.0,80.0,67920,70.75
453,0.0,,,,,,45.0,,,,,0,note_off,,80.0,45.0,80.0,67920,70.75
454,0.0,,,,,,40.0,,,,,0,note_off,,80.0,40.0,80.0,67920,70.75
455,0.0,,,,,,64.0,,,,,0,note_on,,95.0,64.0,95.0,67920,70.75
456,0.0,,,,,,61.0,,,,,0,note_on,,95.0,61.0,95.0,67920,70.75
457,0.0,,,,,,57.0,,,,,0,note_on,,95.0,57.0,95.0,67920,70.75
458,0.0,,,,,,52.0,,,,,0,note_on,,95.0,52.0,95.0,67920,70.75
459,0.0,,,,,,45.0,,,,,0,note_on,,95.0,45.0,95.0,67920,70.75
460,0.0,,,,,,40.0,,,,,0,note_on,,95.0,40.0,95.0,67920,70.75
461,0.0,,,,,,64.0,,,,,240,note_off,,80.0,64.0,80.0,68160,71.0
462,0.0,,,,,,61.0,,,,,0,note_off,,80.0,61.0,80.0,68160,71.0
463,0.0,,,,,,57.0,,,,,0,note_off,,80.0,57.0,80.0,68160,71.0
464,0.0,,,,,,52.0,,,,,0,note_off,,80.0,52.0,80.0,68160,71.0
465,0.0,,,,,,45.0,,,,,0,note_off,,80.0,45.0,80.0,68160,71.0
466,0.0,,,,,,40.0,,,,,0,note_off,,80.0,40.0,80.0,68160,71.0
467,0.0,,,,,,50.0,,,,,46080,note_on,,95.0,50.0,95.0,114240,119.0
468,0.0,,,,,,43.0,,,,,0,note_on,,95.0,43.0,95.0,114240,119.0
469,0.0,,,,,,50.0,,,,,240,note_off,,80.0,50.0,80.0,114480,119.25
470,0.0,,,,,,43.0,,,,,0,note_off,,80.0,43.0,80.0,114480,119.25
471,0.0,,,,,,50.0,,,,,0,note_on,,95.0,50.0,95.0,114480,119.25
472,0.0,,,,,,43.0,,,,,0,note_on,,95.0,43.0,95.0,114480,119.25
473,0.0,,,,,,50.0,,,,,240,note_off,,80.0,50.0,80.0,114720,119.5
474,0.0,,,,,,43.0,,,,,0,note_off,,80.0,43.0,80.0,114720,119.5
475,0.0,,,,,,50.0,,,,,0,note_on,,95.0,50.0,95.0,114720,119.5
476,0.0,,,,,,43.0,,,,,0,note_on,,95.0,43.0,95.0,114720,119.5
477,0.0,,,,,,50.0,,,,,240,note_off,,80.0,50.0,80.0,114960,119.75
478,0.0,,,,,,43.0,,,,,0,note_off,,80.0,43.0,80.0,114960,119.75
479,0.0,,,,,,50.0,,,,,0,note_on,,95.0,50.0,95.0,114960,119.75
480,0.0,,,,,,43.0,,,,,0,note_on,,95.0,43.0,95.0,114960,119.75
481,0.0,,,,,,50.0,,,,,240,note_off,,80.0,50.0,80.0,115200,120.0
482,0.0,,,,,,43.0,,,,,0,note_off,,80.0,43.0,80.0,115200,120.0
483,0.0,,,,,,50.0,,,,,0,note_on,,95.0,50.0,95.0,115200,120.0
484,0.0,,,,,,43.0,,,,,0,note_on,,95.0,43.0,95.0,115200,120.0
485,0.0,,,,,,50.0,,,,,240,note_off,,80.0,50.0,80.0,115440,120.25
486,0.0,,,,,,43.0,,,,,0,note_off,,80.0,43.0,80.0,115440,120.25
487,0.0,,,,,,50.0,,,,,0,note_on,,95.0,50.0,95.0,115440,120.25
488,0.0,,,,,,43.0,,,,,0,note_on,,95.0,43.0,95.0,115440,120.25
489,0.0,,,,,,50.0,,,,,240,note_off,,80.0,50.0,80.0,115680,120.5
490,0.0,,,,,,43.0,,,,,0,note_off,,80.0,43.0,80.0,115680,120.5
491,0.0,,,,,,50.0,,,,,0,note_on,,95.0,50.0,95.0,115680,120.5
492,0.0,,,,,,43.0,,,,,0,note_on,,95.0,43.0,95.0,115680,120.5
493,0.0,,,,,,50.0,,,,,240,note_off,,80.0,50.0,80.0,115920,120.75
494,0.0,,,,,,43.0,,,,,0,note_off,,80.0,43.0,80.0,115920,120.75
495,0.0,,,,,,50.0,,,,,0,note_on,,95.0,50.0,95.0,115920,120.75
496,0.0,,,,,,43.0,,,,,0,note_on,,95.0,43.0,95.0,115920,120.75
497,0.0,,,,,,50.0,,,,,240,note_off,,80.0,50.0,80.0,116160,121.0
498,0.0,,,,,,43.0,,,,,0,note_off,,80.0,43.0,80.0,116160,121.0
499,0.0,,,,,,45.0,,,,,0,note_on,,95.0,45.0,95.0,116160,121.0
500,0.0,,,,,,40.0,,,,,0,note_on,,95.0,40.0,95.0,116160,121.0
501,0.0,,,,,,45.0,,,,,240,note_off,,80.0,45.0,80.0,116400,121.25
502,0.0,,,,,,40.0,,,,,0,note_off,,80.0,40.0,80.0,116400,121.25
503,0.0,,,,,,45.0,,,,,0,note_on,,95.0,45.0,95.0,116400,121.25
504,0.0,,,,,,40.0,,,,,0,note_on,,95.0,40.0,95.0,116400,121.25
505,0.0,,,,,,45.0,,,,,240,note_off,,80.0,45.0,80.0,116640,121.5
506,0.0,,,,,,40.0,,,,,0,note_off,,80.0,40.0,80.0,116640,121.5
507,0.0,,,,,,52.0,,,,,0,note_on,,95.0,52.0,95.0,116640,121.5
508,0.0,,,,,,45.0,,,,,0,note_on,,95.0,45.0,95.0,116640,121.5
509,0.0,,,,,,40.0,,,,,0,note_on,,95.0,40.0,95.0,116640,121.5
510,0.0,,,,,,52.0,,,,,240,note_off,,80.0,52.0,80.0,116880,121.75
511,0.0,,,,,,45.0,,,,,0,note_off,,80.0,45.0,80.0,116880,121.75
512,0.0,,,,,,40.0,,,,,0,note_off,,80.0,40.0,80.0,116880,121.75
513,0.0,,,,,,52.0,,,,,0,note_on,,95.0,52.0,95.0,116880,121.75
514,0.0,,,,,,45.0,,,,,0,note_on,,95.0,45.0,95.0,116880,121.75
515,0.0,,,,,,40.0,,,,,0,note_on,,95.0,40.0,95.0,116880,121.75
516,0.0,,,,,,52.0,,,,,240,note_off,,80.0,52.0,80.0,117120,122.0
517,0.0,,,,,,45.0,,,,,0,note_off,,80.0,45.0,80.0,117120,122.0
518,0.0,,,,,,40.0,,,,,0,note_off,,80.0,40.0,80.0,117120,122.0
519,0.0,,,,,,57.0,,,,,0,note_on,,95.0,57.0,95.0,117120,122.0
520,0.0,,,,,,52.0,,,,,0,note_on,,95.0,52.0,95.0,117120,122.0
521,0.0,,,,,,45.0,,,,,0,note_on,,95.0,45.0,95.0,117120,122.0
522,0.0,,,,,,40.0,,,,,0,note_on,,95.0,40.0,95.0,117120,122.0
523,0.0,,,,,,57.0,,,,,240,note_off,,80.0,57.0,80.0,117360,122.25
524,0.0,,,,,,52.0,,,,,0,note_off,,80.0,52.0,80.0,117360,122.25
525,0.0,,,,,,45.0,,,,,0,note_off,,80.0,45.0,80.0,117360,122.25
526,0.0,,,,,,40.0,,,,,0,note_off,,80.0,40.0,80.0,117360,122.25
527,0.0,,,,,,61.0,,,,,0,note_on,,95.0,61.0,95.0,117360,122.25
528,0.0,,,,,,57.0,,,,,0,note_on,,95.0,57.0,95.0,117360,122.25
529,0.0,,,,,,52.0,,,,,0,note_on,,95.0,52.0,95.0,117360,122.25
530,0.0,,,,,,45.0,,,,,0,note_on,,95.0,45.0,95.0,117360,122.25
531,0.0,,,,,,40.0,,,,,0,note_on,,95.0,40.0,95.0,117360,122.25
532,0.0,,,,,,61.0,,,,,240,note_off,,80.0,61.0,80.0,117600,122.5
533,0.0,,,,,,57.0,,,,,0,note_off,,80.0,57.0,80.0,117600,122.5
534,0.0,,,,,,52.0,,,,,0,note_off,,80.0,52.0,80.0,117600,122.5
535,0.0,,,,,,45.0,,,,,0,note_off,,80.0,45.0,80.0,117600,122.5
536,0.0,,,,,,40.0,,,,,0,note_off,,80.0,40.0,80.0,117600,122.5
537,0.0,,,,,,64.0,,,,,0,note_on,,95.0,64.0,95.0,117600,122.5
538,0.0,,,,,,61.0,,,,,0,note_on,,95.0,61.0,95.0,117600,122.5
539,0.0,,,,,,57.0,,,,,0,note_on,,95.0,57.0,95.0,117600,122.5
540,0.0,,,,,,52.0,,,,,0,note_on,,95.0,52.0,95.0,117600,122.5
541,0.0,,,,,,45.0,,,,,0,note_on,,95.0,45.0,95.0,117600,122.5
542,0.0,,,,,,40.0,,,,,0,note_on,,95.0,40.0,95.0,117600,122.5
543,0.0,,,,,,64.0,,,,,240,note_off,,80.0,64.0,80.0,117840,122.75
544,0.0,,,,,,61.0,,,,,0,note_off,,80.0,61.0,80.0,117840,122.75
545,0.0,,,,,,57.0,,,,,0,note_off,,80.0,57.0,80.0,117840,122.75
546,0.0,,,,,,52.0,,,,,0,note_off,,80.0,52.0,80.0,117840,122.75
547,0.0,,,,,,45.0,,,,,0,note_off,,80.0,45.0,80.0,117840,122.75
548,0.0,,,,,,40.0,,,,,0,note_off,,80.0,40.0,80.0,117840,122.75
549,0.0,,,,,,64.0,,,,,0,note_on,,95.0,64.0,95.0,117840,122.75
550,0.0,,,,,,61.0,,,,,0,note_on,,95.0,61.0,95.0,117840,122.75
551,0.0,,,,,,57.0,,,,,0,note_on,,95.0,57.0,95.0,117840,122.75
552,0.0,,,,,,52.0,,,,,0,note_on,,95.0,52.0,95.0,117840,122.75
553,0.0,,,,,,45.0,,,,,0,note_on,,95.0,45.0,95.0,117840,122.75
554,0.0,,,,,,40.0,,,,,0,note_on,,95.0,40.0,95.0,117840,122.75
555,0.0,,,,,,57.0,,,,,210,note_on,,95.0,57.0,95.0,118050,122.96875
556,0.0,,,,,,52.0,,,,,0,note_on,,95.0,52.0,95.0,118050,122.96875
557,0.0,,,,,,45.0,,,,,0,note_on,,95.0,45.0,95.0,118050,122.96875
558,0.0,,,,,,57.0,,,,,29,note_off,,80.0,57.0,80.0,118079,122.99895833333333
559,0.0,,,,,,52.0,,,,,0,note_off,,80.0,52.0,80.0,118079,122.99895833333333
560,0.0,,,,,,45.0,,,,,0,note_off,,80.0,45.0,80.0,118079,122.99895833333333
561,0.0,,,,,,64.0,,,,,1,note_off,,80.0,64.0,80.0,118080,123.0
562,0.0,,,,,,61.0,,,,,0,note_off,,80.0,61.0,80.0,118080,123.0
563,0.0,,,,,,57.0,,,,,0,note_off,,80.0,57.0,80.0,118080,123.0
564,0.0,,,,,,52.0,,,,,0,note_off,,80.0,52.0,80.0,118080,123.0
565,0.0,,,,,,45.0,,,,,0,note_off,,80.0,45.0,80.0,118080,123.0
566,0.0,,,,,,40.0,,,,,0,note_off,,80.0,40.0,80.0,118080,123.0
567,0.0,,,,,,64.0,,,,,0,note_on,,95.0,64.0,95.0,118080,123.0
568,0.0,,,,,,59.0,,,,,0,note_on,,95.0,59.0,95.0,118080,123.0
569,0.0,,,,,,52.0,,,,,0,note_on,,95.0,52.0,95.0,118080,123.0
570,0.0,,,,,,64.0,,,,,720,note_off,,80.0,64.0,80.0,118800,123.75
571,0.0,,,,,,59.0,,,,,0,note_off,,80.0,59.0,80.0,118800,123.75
572,0.0,,,,,,52.0,,,,,0,note_off,,80.0,52.0,80.0,118800,123.75
573,1.0,,,,,,64.0,,,,,0,note_on,,95.0,64.0,95.0,960,1.0
574,1.0,,,,,,59.0,,,,,0,note_on,,95.0,59.0,95.0,960,1.0
575,1.0,,,,,,52.0,,,,,0,note_on,,95.0,52.0,95.0,960,1.0
576,1.0,,,,,,,,640.0,,,120,pitchwheel,,,,,1080,1.125
577,1.0,,,,,,,,640.0,,,0,pitchwheel,,,,,1080,1.125
578,1.0,,,,,,,,640.0,,,0,pitchwheel,,,,,1080,1.125
579,1.0,,,,,,,,1408.0,,,60,pitchwheel,,,,,1140,1.1875
580,1.0,,,,,,,,1408.0,,,0,pitchwheel,,,,,1140,1.1875
581,1.0,,,,,,,,1408.0,,,0,pitchwheel,,,,,1140,1.1875
582,1.0,,,,,,64.0,,,,,60,note_off,,80.0,64.0,80.0,1200,1.25
583,1.0,,,,,,,,0.0,,,0,pitchwheel,,,,,1200,1.25
584,1.0,,,,,,59.0,,,,,0,note_off,,80.0,59.0,80.0,1200,1.25
585,1.0,,,,,,,,0.0,,,0,pitchwheel,,,,,1200,1.25
586,1.0,,,,,,52.0,,,,,0,note_off,,80.0,52.0,80.0,1200,1.25
587,1.0,,,,,,,,0.0,,,0,pitchwheel,,,,,1200,1.25
588,0.0,,,,,,67.0,,,,,0,note_on,,86.0,67.0,86.0,118800,123.75
589,0.0,,,,,,62.0,,,,,0,note_on,,86.0,62.0,86.0,118800,123.75
590,0.0,,,,,,55.0,,,,,0,note_on,,86.0,55.0,86.0,118800,123.75
591,0.0,,,,,,67.0,,,,,240,note_off,,80.0,67.0,80.0,119040,124.0
592,0.0,,,,,,62.0,,,,,0,note_off,,80.0,62.0,80.0,119040,124.0
593,0.0,,,,,,55.0,,,,,0,note_off,,80.0,55.0,80.0,119040,124.0
594,0.0,,,,,,64.0,,,,,120,note_on,,95.0,64.0,95.0,119160,124.125
595,0.0,,,,,,59.0,,,,,0,note_on,,95.0,59.0,95.0,119160,124.125
596,0.0,,,,,,52.0,,,,,0,note_on,,95.0,52.0,95.0,119160,124.125
597,0.0,,,,,,64.0,,,,,240,note_off,,80.0,64.0,80.0,119400,124.375
598,0.0,,,,,,59.0,,,,,0,note_off,,80.0,59.0,80.0,119400,124.375
599,0.0,,,,,,52.0,,,,,0,note_off,,80.0,52.0,80.0,119400,124.375
600,0.0,,,,,,62.0,,,,,120,note_on,,95.0,62.0,95.0,119520,124.5
601,0.0,,,,,,57.0,,,,,0,note_on,,95.0,57.0,95.0,119520,124.5
602,0.0,,,,,,50.0,,,,,0,note_on,,95.0,50.0,95.0,119520,124.5
603,0.0,,,,,,62.0,,,,,240,note_off,,80.0,62.0,80.0,119760,124.75
604,0.0,,,,,,57.0,,,,,0,note_off,,80.0,57.0,80.0,119760,124.75
605,0.0,,,,,,50.0,,,,,0,note_off,,80.0,50.0,80.0,119760,124.75
606,0.0,,,,,,60.0,,,,,0,note_on,,95.0,60.0,95.0,119760,124.75
607,0.0,,,,,,55.0,,,,,0,note_on,,95.0,55.0,95.0,119760,124.75
608,0.0,,,,,,48.0,,,,,0,note_on,,95.0,48.0,95.0,119760,124.75
609,0.0,,,,,,60.0,,,,,960,note_off,,80.0,60.0,80.0,120720,125.75
610,0.0,,,,,,55.0,,,,,0,note_off,,80.0,55.0,80.0,120720,125.75
611,0.0,,,,,,48.0,,,,,0,note_off,,80.0,48.0,80.0,120720,125.75
612,0.0,,,,,,59.0,,,,,0,note_on,,95.0,59.0,95.0,120720,125.75
613,0.0,,,,,,54.0,,,,,0,note_on,,95.0,54.0,95.0,120720,125.75
614,0.0,,,,,,47.0,,,,,0,note_on,,95.0,47.0,95.0,120720,125.75
615,0.0,,,,,,57.0,,,,,930,note_on,,95.0,57.0,95.0,121650,126.71875
616,0.0,,,,,,52.0,,,,,0,note_on,,95.0,52.0,95.0,121650,126.71875
617,0.0,,,,,,45.0,,,,,0,note_on,,95.0,45.0,95.0,121650,126.71875
618,0.0,,,,,,57.0,,,,,29,note_off,,80.0,57.0,80.0,121679,126.74895833333333
619,0.0,,,,,,52.0,,,,,0,note_off,,80.0,52.0,80.0,121679,126.74895833333333
620,0.0,,,,,,45.0,,,,,0,note_off,,80.0,45.0,80.0,121679,126.74895833333333
621,0.0,,,,,,59.0,,,,,1,note_off,,80.0,59.0,80.0,121680,126.75
622,0.0,,,,,,54.0,,,,,0,note_off,,80.0,54.0,80.0,121680,126.75
623,0.0,,,,,,47.0,,,,,0,note_off,,80.0,47.0,80.0,121680,126.75
624,0.0,,,,,,64.0,,,,,0,note_on,,95.0,64.0,95.0,121680,126.75
625,0.0,,,,,,59.0,,,,,0,note_on,,95.0,59.0,95.0,121680,126.75
626,0.0,,,,,,52.0,,,,,0,note_on,,95.0,52.0,95.0,121680,126.75
627,0.0,,,,,,64.0,,,,,720,note_off,,80.0,64.0,80.0,122400,127.5
628,0.0,,,,,,59.0,,,,,0,note_off,,80.0,59.0,80.0,122400,127.5
629,0.0,,,,,,52.0,,,,,0,note_off,,80.0,52.0,80.0,122400,127.5
630,1.0,,,,,,64.0,,,,,0,note_on,,95.0,64.0,95.0,1200,1.25
631,1.0,,,,,,59.0,,,,,0,note_on,,95.0,59.0,95.0,1200,1.25
632,1.0,,,,,,52.0,,,,,0,note_on,,95.0,52.0,95.0,1200,1.25
633,1.0,,,,,,,,640.0,,,120,pitchwheel,,,,,1320,1.375
634,1.0,,,,,,,,640.0,,,0,pitchwheel,,,,,1320,1.375
635,1.0,,,,,,,,640.0,,,0,pitchwheel,,,,,1320,1.375
636,1.0,,,,,,,,1408.0,,,60,pitchwheel,,,,,1380,1.4375
637,1.0,,,,,,,,1408.0,,,0,pitchwheel,,,,,1380,1.4375
638,1.0,,,,,,,,1408.0,,,0,pitchwheel,,,,,1380,1.4375
639,1.0,,,,,,64.0,,,,,60,note_off,,80.0,64.0,80.0,1440,1.5
640,1.0,,,,,,,,0.0,,,0,pitchwheel,,,,,1440,1.5
641,1.0,,,,,,59.0,,,,,0,note_off,,80.0,59.0,80.0,1440,1.5
642,1.0,,,,,,,,0.0,,,0,pitchwheel,,,,,1440,1.5
643,1.0,,,,,,52.0,,,,,0,note_off,,80.0,52.0,80.0,1440,1.5
644,1.0,,,,,,,,0.0,,,0,pitchwheel,,,,,1440,1.5
645,0.0,,,,,,67.0,,,,,0,note_on,,86.0,67.0,86.0,122400,127.5
646,0.0,,,,,,62.0,,,,,0,note_on,,86.0,62.0,86.0,122400,127.5
647,0.0,,,,,,55.0,,,,,0,note_on,,86.0,55.0,86.0,122400,127.5
648,0.0,,,,,,67.0,,,,,240,note_off,,80.0,67.0,80.0,122640,127.75
649,0.0,,,,,,62.0,,,,,0,note_off,,80.0,62.0,80.0,122640,127.75
650,0.0,,,,,,55.0,,,,,0,note_off,,80.0,55.0,80.0,122640,127.75
651,0.0,,,,,,64.0,,,,,120,note_on,,95.0,64.0,95.0,122760,127.875
652,0.0,,,,,,59.0,,,,,0,note_on,,95.0,59.0,95.0,122760,127.875
653,0.0,,,,,,52.0,,,,,0,note_on,,95.0,52.0,95.0,122760,127.875
654,0.0,,,,,,64.0,,,,,240,note_off,,80.0,64.0,80.0,123000,128.125
655,0.0,,,,,,59.0,,,,,0,note_off,,80.0,59.0,80.0,123000,128.125
656,0.0,,,,,,52.0,,,,,0,note_off,,80.0,52.0,80.0,123000,128.125
657,0.0,,,,,,62.0,,,,,120,note_on,,95.0,62.0,95.0,123120,128.25
658,0.0,,,,,,57.0,,,,,0,note_on,,95.0,57.0,95.0,123120,128.25
659,0.0,,,,,,50.0,,,,,0,note_on,,95.0,50.0,95.0,123120,128.25
660,0.0,,,,,,62.0,,,,,240,note_off,,80.0,62.0,80.0,123360,128.5
661,0.0,,,,,,57.0,,,,,0,note_off,,80.0,57.0,80.0,123360,128.5
662,0.0,,,,,,50.0,,,,,0,note_off,,80.0,50.0,80.0,123360,128.5
663,0.0,,,,,,60.0,,,,,0,note_on,,95.0,60.0,95.0,123360,128.5
664,0.0,,,,,,55.0,,,,,0,note_on,,95.0,55.0,95.0,123360,128.5
665,0.0,,,,,,48.0,,,,,0,note_on,,95.0,48.0,95.0,123360,128.5
666,0.0,,,,,,60.0,,,,,360,note_off,,80.0,60.0,80.0,123720,128.875
667,0.0,,,,,,55.0,,,,,0,note_off,,80.0,55.0,80.0,123720,128.875
668,0.0,,,,,,48.0,,,,,0,note_off,,80.0,48.0,80.0,123720,128.875
669,0.0,,,,,,62.0,,,,,0,note_on,,95.0,62.0,95.0,123720,128.875
670,0.0,,,,,,57.0,,,,,0,note_on,,95.0,57.0,95.0,123720,128.875
671,0.0,,,,,,50.0,,,,,0,note_on,,95.0,50.0,95.0,123720,128.875
672,0.0,,,,,,62.0,,,,,360,note_off,,80.0,62.0,80.0,124080,129.25
673,0.0,,,,,,57.0,,,,,0,note_off,,80.0,57.0,80.0,124080,129.25
674,0.0,,,,,,50.0,,,,,0,note_off,,80.0,50.0,80.0,124080,129.25
675,0.0,,,,,,60.0,,,,,0,note_on,,95.0,60.0,95.0,124080,129.25
676,0.0,,,,,,55.0,,,,,0,note_on,,95.0,55.0,95.0,124080,129.25
677,0.0,,,,,,48.0,,,,,0,note_on,,95.0,48.0,95.0,124080,129.25
678,0.0,,,,,,60.0,,,,,240,note_off,,80.0,60.0,80.0,124320,129.5
679,0.0,,,,,,55.0,,,,,0,note_off,,80.0,55.0,80.0,124320,129.5
680,0.0,,,,,,48.0,,,,,0,note_off,,80.0,48.0,80.0,124320,129.5
681,0.0,,,,,,59.0,,,,,0,note_on,,95.0,59.0,95.0,124320,129.5
682,0.0,,,,,,54.0,,,,,0,note_on,,95.0,54.0,95.0,124320,129.5
683,0.0,,,,,,47.0,,,,,0,note_on,,95.0,47.0,95.0,124320,129.5
684,0.0,,,,,,57.0,,,,,930,note_on,,95.0,57.0,95.0,125250,130.46875
685,0.0,,,,,,52.0,,,,,0,note_on,,95.0,52.0,95.0,125250,130.46875
686,0.0,,,,,,45.0,,,,,0,note_on,,95.0,45.0,95.0,125250,130.46875
687,0.0,,,,,,57.0,,,,,29,note_off,,80.0,57.0,80.0,125279,130.49895833333332
688,0.0,,,,,,52.0,,,,,0,note_off,,80.0,52.0,80.0,125279,130.49895833333332
689,0.0,,,,,,45.0,,,,,0,note_off,,80.0,45.0,80.0,125279,130.49895833333332
690,0.0,,,,,,59.0,,,,,1,note_off,,80.0,59.0,80.0,125280,130.5
691,0.0,,,,,,54.0,,,,,0,note_off,,80.0,54.0,80.0,125280,130.5
692,0.0,,,,,,47.0,,,,,0,note_off,,80.0,47.0,80.0,125280,130.5
693,0.0,,,,,,64.0,,,,,0,note_on,,95.0,64.0,95.0,125280,130.5
694,0.0,,,,,,59.0,,,,,0,note_on,,95.0,59.0,95.0,125280,130.5
695,0.0,,,,,,52.0,,,,,0,note_on,,95.0,52.0,95.0,125280,130.5
696,0.0,,,,,,64.0,,,,,720,note_off,,80.0,64.0,80.0,126000,131.25
697,0.0,,,,,,59.0,,,,,0,note_off,,80.0,59.0,80.0,126000,131.25
698,0.0,,,,,,52.0,,,,,0,note_off,,80.0,52.0,80.0,126000,131.25
699,1.0,,,,,,64.0,,,,,0,note_on,,95.0,64.0,95.0,1440,1.5
700,1.0,,,,,,59.0,,,,,0,note_on,,95.0,59.0,95.0,1440,1.5
701,1.0,,,,,,52.0,,,,,0,note_on,,95.0,52.0,95.0,1440,1.5
702,1.0,,,,,,,,640.0,,,120,pitchwheel,,,,,1560,1.625
703,1.0,,,,,,,,640.0,,,0,pitchwheel,,,,,1560,1.625
704,1.0,,,,,,,,640.0,,,0,pitchwheel,,,,,1560,1.625
705,1.0,,,,,,,,1408.0,,,60,pitchwheel,,,,,1620,1.6875
706,1.0,,,,,,,,1408.0,,,0,pitchwheel,,,,,1620,1.6875
707,1.0,,,,,,,,1408.0,,,0,pitchwheel,,,,,1620,1.6875
708,1.0,,,,,,64.0,,,,,60,note_off,,80.0,64.0,80.0,1680,1.75
709,1.0,,,,,,,,0.0,,,0,pitchwheel,,,,,1680,1.75
710,1.0,,,,,,59.0,,,,,0,note_off,,80.0,59.0,80.0,1680,1.75
711,1.0,,,,,,,,0.0,,,0,pitchwheel,,,,,1680,1.75
712,1.0,,,,,,52.0,,,,,0,note_off,,80.0,52.0,80.0,1680,1.75
713,1.0,,,,,,,,0.0,,,0,pitchwheel,,,,,1680,1.75
714,0.0,,,,,,67.0,,,,,0,note_on,,86.0,67.0,86.0,126000,131.25
715,0.0,,,,,,62.0,,,,,0,note_on,,86.0,62.0,86.0,126000,131.25
716,0.0,,,,,,55.0,,,,,0,note_on,,86.0,55.0,86.0,126000,131.25
717,0.0,,,,,,67.0,,,,,240,note_off,,80.0,67.0,80.0,126240,131.5
718,0.0,,,,,,62.0,,,,,0,note_off,,80.0,62.0,80.0,126240,131.5
719,0.0,,,,,,55.0,,,,,0,note_off,,80.0,55.0,80.0,126240,131.5
720,0.0,,,,,,64.0,,,,,120,note_on,,95.0,64.0,95.0,126360,131.625
721,0.0,,,,,,59.0,,,,,0,note_on,,95.0,59.0,95.0,126360,131.625
722,0.0,,,,,,52.0,,,,,0,note_on,,95.0,52.0,95.0,126360,131.625
723,0.0,,,,,,64.0,,,,,240,note_off,,80.0,64.0,80.0,126600,131.875
724,0.0,,,,,,59.0,,,,,0,note_off,,80.0,59.0,80.0,126600,131.875
725,0.0,,,,,,52.0,,,,,0,note_off,,80.0,52.0,80.0,126600,131.875
726,0.0,,,,,,62.0,,,,,120,note_on,,95.0,62.0,95.0,126720,132.0
727,0.0,,,,,,57.0,,,,,0,note_on,,95.0,57.0,95.0,126720,132.0
728,0.0,,,,,,50.0,,,,,0,note_on,,95.0,50.0,95.0,126720,132.0
729,0.0,,,,,,62.0,,,,,240,note_off,,80.0,62.0,80.0,126960,132.25
730,0.0,,,,,,57.0,,,,,0,note_off,,80.0,57.0,80.0,126960,132.25
731,0.0,,,,,,50.0,,,,,0,note_off,,80.0,50.0,80.0,126960,132.25
732,0.0,,,,,,60.0,,,,,0,note_on,,95.0,60.0,95.0,126960,132.25
733,0.0,,,,,,55.0,,,,,0,note_on,,95.0,55.0,95.0,126960,132.25
734,0.0,,,,,,48.0,,,,,0,note_on,,95.0,48.0,95.0,126960,132.25
735,0.0,,,,,,60.0,,,,,960,note_off,,80.0,60.0,80.0,127920,133.25
736,0.0,,,,,,55.0,,,,,0,note_off,,80.0,55.0,80.0,127920,133.25
737,0.0,,,,,,48.0,,,,,0,note_off,,80.0,48.0,80.0,127920,133.25
738,0.0,,,,,,59.0,,,,,0,note_on,,95.0,59.0,95.0,127920,133.25
739,0.0,,,,,,54.0,,,,,0,note_on,,95.0,54.0,95.0,127920,133.25
740,0.0,,,,,,47.0,,,,,0,note_on,,95.0,47.0,95.0,127920,133.25
741,0.0,,,,,,57.0,,,,,930,note_on,,95.0,57.0,95.0,128850,134.21875
742,0.0,,,,,,52.0,,,,,0,note_on,,95.0,52.0,95.0,128850,134.21875
743,0.0,,,,,,45.0,,,,,0,note_on,,95.0,45.0,95.0,128850,134.21875
744,0.0,,,,,,57.0,,,,,29,note_off,,80.0,57.0,80.0,128879,134.24895833333332
745,0.0,,,,,,52.0,,,,,0,note_off,,80.0,52.0,80.0,128879,134.24895833333332
746,0.0,,,,,,45.0,,,,,0,note_off,,80.0,45.0,80.0,128879,134.24895833333332
747,0.0,,,,,,59.0,,,,,1,note_off,,80.0,59.0,80.0,128880,134.25
748,0.0,,,,,,54.0,,,,,0,note_off,,80.0,54.0,80.0,128880,134.25
749,0.0,,,,,,47.0,,,,,0,note_off,,80.0,47.0,80.0,128880,134.25
750,0.0,,,,,,64.0,,,,,0,note_on,,95.0,64.0,95.0,128880,134.25
751,0.0,,,,,,59.0,,,,,0,note_on,,95.0,59.0,95.0,128880,134.25
752,0.0,,,,,,52.0,,,,,0,note_on,,95.0,52.0,95.0,128880,134.25
753,0.0,,,,,,64.0,,,,,720,note_off,,80.0,64.0,80.0,129600,135.0
754,0.0,,,,,,59.0,,,,,0,note_off,,80.0,59.0,80.0,129600,135.0
755,0.0,,,,,,52.0,,,,,0,note_off,,80.0,52.0,80.0,129600,135.0
756,1.0,,,,,,64.0,,,,,0,note_on,,95.0,64.0,95.0,1680,1.75
757,1.0,,,,,,59.0,,,,,0,note_on,,95.0,59.0,95.0,1680,1.75
758,1.0,,,,,,52.0,,,,,0,note_on,,95.0,52.0,95.0,1680,1.75
759,1.0,,,,,,,,640.0,,,120,pitchwheel,,,,,1800,1.875
760,1.0,,,,,,,,640.0,,,0,pitchwheel,,,,,1800,1.875
761,1.0,,,,,,,,640.0,,,0,pitchwheel,,,,,1800,1.875
762,1.0,,,,,,,,1408.0,,,60,pitchwheel,,,,,1860,1.9375
763,1.0,,,,,,,,1408.0,,,0,pitchwheel,,,,,1860,1.9375
764,1.0,,,,,,,,1408.0,,,0,pitchwheel,,,,,1860,1.9375
765,1.0,,,,,,64.0,,,,,60,note_off,,80.0,64.0,80.0,1920,2.0
766,1.0,,,,,,,,0.0,,,0,pitchwheel,,,,,1920,2.0
767,1.0,,,,,,59.0,,,,,0,note_off,,80.0,59.0,80.0,1920,2.0
768,1.0,,,,,,,,0.0,,,0,pitchwheel,,,,,1920,2.0
769,1.0,,,,,,52.0,,,,,0,note_off,,80.0,52.0,80.0,1920,2.0
770,1.0,,,,,,,,0.0,,,0,pitchwheel,,,,,1920,2.0
771,0.0,,,,,,67.0,,,,,0,note_on,,86.0,67.0,86.0,129600,135.0
772,0.0,,,,,,62.0,,,,,0,note_on,,86.0,62.0,86.0,129600,135.0
773,0.0,,,,,,55.0,,,,,0,note_on,,86.0,55.0,86.0,129600,135.0
774,0.0,,,,,,67.0,,,,,240,note_off,,80.0,67.0,80.0,129840,135.25
775,0.0,,,,,,62.0,,,,,0,note_off,,80.0,62.0,80.0,129840,135.25
776,0.0,,,,,,55.0,,,,,0,note_off,,80.0,55.0,80.0,129840,135.25
777,0.0,,,,,,64.0,,,,,120,note_on,,95.0,64.0,95.0,129960,135.375
778,0.0,,,,,,59.0,,,,,0,note_on,,95.0,59.0,95.0,129960,135.375
779,0.0,,,,,,52.0,,,,,0,note_on,,95.0,52.0,95.0,129960,135.375
780,0.0,,,,,,64.0,,,,,240,note_off,,80.0,64.0,80.0,130200,135.625
781,0.0,,,,,,59.0,,,,,0,note_off,,80.0,59.0,80.0,130200,135.625
782,0.0,,,,,,52.0,,,,,0,note_off,,80.0,52.0,80.0,130200,135.625
783,0.0,,,,,,62.0,,,,,120,note_on,,95.0,62.0,95.0,130320,135.75
784,0.0,,,,,,57.0,,,,,0,note_on,,95.0,57.0,95.0,130320,135.75
785,0.0,,,,,,50.0,,,,,0,note_on,,95.0,50.0,95.0,130320,135.75
786,0.0,,,,,,62.0,,,,,240,note_off,,80.0,62.0,80.0,130560,136.0
787,0.0,,,,,,57.0,,,,,0,note_off,,80.0,57.0,80.0,130560,136.0
788,0.0,,,,,,50.0,,,,,0,note_off,,80.0,50.0,80.0,130560,136.0
789,0.0,,,,,,60.0,,,,,0,note_on,,95.0,60.0,95.0,130560,136.0
790,0.0,,,,,,55.0,,,,,0,note_on,,95.0,55.0,95.0,130560,136.0
791,0.0,,,,,,48.0,,,,,0,note_on,,95.0,48.0,95.0,130560,136.0
792,0.0,,,,,,60.0,,,,,360,note_off,,80.0,60.0,80.0,130920,136.375
793,0.0,,,,,,55.0,,,,,0,note_off,,80.0,55.0,80.0,130920,136.375
794,0.0,,,,,,48.0,,,,,0,note_off,,80.0,48.0,80.0,130920,136.375
795,0.0,,,,,,62.0,,,,,0,note_on,,95.0,62.0,95.0,130920,136.375
796,0.0,,,,,,57.0,,,,,0,note_on,,95.0,57.0,95.0,130920,136.375
797,0.0,,,,,,50.0,,,,,0,note_on,,95.0,50.0,95.0,130920,136.375
798,0.0,,,,,,62.0,,,,,360,note_off,,80.0,62.0,80.0,131280,136.75
799,0.0,,,,,,57.0,,,,,0,note_off,,80.0,57.0,80.0,131280,136.75
800,0.0,,,,,,50.0,,,,,0,note_off,,80.0,50.0,80.0,131280,136.75
801,0.0,,,,,,60.0,,,,,0,note_on,,95.0,60.0,95.0,131280,136.75
802,0.0,,,,,,55.0,,,,,0,note_on,,95.0,55.0,95.0,131280,136.75
803,0.0,,,,,,48.0,,,,,0,note_on,,95.0,48.0,95.0,131280,136.75
804,0.0,,,,,,60.0,,,,,240,note_off,,80.0,60.0,80.0,131520,137.0
805,0.0,,,,,,55.0,,,,,0,note_off,,80.0,55.0,80.0,131520,137.0
806,0.0,,,,,,48.0,,,,,0,note_off,,80.0,48.0,80.0,131520,137.0
807,0.0,,,,,,59.0,,,,,0,note_on,,95.0,59.0,95.0,131520,137.0
808,0.0,,,,,,54.0,,,,,0,note_on,,95.0,54.0,95.0,131520,137.0
809,0.0,,,,,,47.0,,,,,0,note_on,,95.0,47.0,95.0,131520,137.0
810,0.0,,,,,,57.0,,,,,930,note_on,,95.0,57.0,95.0,132450,137.96875
811,0.0,,,,,,52.0,,,,,0,note_on,,95.0,52.0,95.0,132450,137.96875
812,0.0,,,,,,45.0,,,,,0,note_on,,95.0,45.0,95.0,132450,137.96875
813,0.0,,,,,,57.0,,,,,29,note_off,,80.0,57.0,80.0,132479,137.99895833333332
814,0.0,,,,,,52.0,,,,,0,note_off,,80.0,52.0,80.0,132479,137.99895833333332
815,0.0,,,,,,45.0,,,,,0,note_off,,80.0,45.0,80.0,132479,137.99895833333332
816,0.0,,,,,,59.0,,,,,1,note_off,,80.0,59.0,80.0,132480,138.0
817,0.0,,,,,,54.0,,,,,0,note_off,,80.0,54.0,80.0,132480,138.0
818,0.0,,,,,,47.0,,,,,0,note_off,,80.0,47.0,80.0,132480,138.0
819,0.0,,,,,,64.0,,,,,0,note_on,,95.0,64.0,95.0,132480,138.0
820,0.0,,,,,,59.0,,,,,0,note_on,,95.0,59.0,95.0,132480,138.0
821,0.0,,,,,,52.0,,,,,0,note_on,,95.0,52.0,95.0,132480,138.0
822,0.0,,,,,,64.0,,,,,720,note_off,,80.0,64.0,80.0,133200,138.75
823,0.0,,,,,,59.0,,,,,0,note_off,,80.0,59.0,80.0,133200,138.75
824,0.0,,,,,,52.0,,,,,0,note_off,,80.0,52.0,80.0,133200,138.75
825,1.0,,,,,,64.0,,,,,0,note_on,,95.0,64.0,95.0,1920,2.0
826,1.0,,,,,,59.0,,,,,0,note_on,,95.0,59.0,95.0,1920,2.0
827,1.0,,,,,,52.0,,,,,0,note_on,,95.0,52.0,95.0,1920,2.0
828,1.0,,,,,,,,640.0,,,120,pitchwheel,,,,,2040,2.125
829,1.0,,,,,,,,640.0,,,0,pitchwheel,,,,,2040,2.125
830,1.0,,,,,,,,640.0,,,0,pitchwheel,,,,,2040,2.125
831,1.0,,,,,,,,1408.0,,,60,pitchwheel,,,,,2100,2.1875
832,1.0,,,,,,,,1408.0,,,0,pitchwheel,,,,,2100,2.1875
833,1.0,,,,,,,,1408.0,,,0,pitchwheel,,,,,2100,2.1875
834,1.0,,,,,,64.0,,,,,60,note_off,,80.0,64.0,80.0,2160,2.25
835,1.0,,,,,,,,0.0,,,0,pitchwheel,,,,,2160,2.25
836,1.0,,,,,,59.0,,,,,0,note_off,,80.0,59.0,80.0,2160,2.25
837,1.0,,,,,,,,0.0,,,0,pitchwheel,,,,,2160,2.25
838,1.0,,,,,,52.0,,,,,0,note_off,,80.0,52.0,80.0,2160,2.25
839,1.0,,,,,,,,0.0,,,0,pitchwheel,,,,,2160,2.25
840,0.0,,,,,,67.0,,,,,0,note_on,,86.0,67.0,86.0,133200,138.75
841,0.0,,,,,,62.0,,,,,0,note_on,,86.0,62.0,86.0,133200,138.75
842,0.0,,,,,,55.0,,,,,0,note_on,,86.0,55.0,86.0,133200,138.75
843,0.0,,,,,,67.0,,,,,240,note_off,,80.0,67.0,80.0,133440,139.0
844,0.0,,,,,,62.0,,,,,0,note_off,,80.0,62.0,80.0,133440,139.0
845,0.0,,,,,,55.0,,,,,0,note_off,,80.0,55.0,80.0,133440,139.0
846,0.0,,,,,,64.0,,,,,120,note_on,,95.0,64.0,95.0,133560,139.125
847,0.0,,,,,,59.0,,,,,0,note_on,,95.0,59.0,95.0,133560,139.125
848,0.0,,,,,,52.0,,,,,0,note_on,,95.0,52.0,95.0,133560,139.125
849,0.0,,,,,,64.0,,,,,240,note_off,,80.0,64.0,80.0,133800,139.375
850,0.0,,,,,,59.0,,,,,0,note_off,,80.0,59.0,80.0,133800,139.375
851,0.0,,,,,,52.0,,,,,0,note_off,,80.0,52.0,80.0,133800,139.375
852,0.0,,,,,,62.0,,,,,120,note_on,,95.0,62.0,95.0,133920,139.5
853,0.0,,,,,,57.0,,,,,0,note_on,,95.0,57.0,95.0,133920,139.5
854,0.0,,,,,,50.0,,,,,0,note_on,,95.0,50.0,95.0,133920,139.5
855,0.0,,,,,,62.0,,,,,240,note_off,,80.0,62.0,80.0,134160,139.75
856,0.0,,,,,,57.0,,,,,0,note_off,,80.0,57.0,80.0,134160,139.75
857,0.0,,,,,,50.0,,,,,0,note_off,,80.0,50.0,80.0,134160,139.75
858,0.0,,,,,,60.0,,,,,0,note_on,,95.0,60.0,95.0,134160,139.75
859,0.0,,,,,,55.0,,,,,0,note_on,,95.0,55.0,95.0,134160,139.75
860,0.0,,,,,,48.0,,,,,0,note_on,,95.0,48.0,95.0,134160,139.75
861,0.0,,,,,,60.0,,,,,960,note_off,,80.0,60.0,80.0,135120,140.75
862,0.0,,,,,,55.0,,,,,0,note_off,,80.0,55.0,80.0,135120,140.75
863,0.0,,,,,,48.0,,,,,0,note_off,,80.0,48.0,80.0,135120,140.75
864,0.0,,,,,,59.0,,,,,0,note_on,,95.0,59.0,95.0,135120,140.75
865,0.0,,,,,,54.0,,,,,0,note_on,,95.0,54.0,95.0,135120,140.75
866,0.0,,,,,,47.0,,,,,0,note_on,,95.0,47.0,95.0,135120,140.75
867,0.0,,,,,,57.0,,,,,930,note_on,,95.0,57.0,95.0,136050,141.71875
868,0.0,,,,,,52.0,,,,,0,note_on,,95.0,52.0,95.0,136050,141.71875
869,0.0,,,,,,45.0,,,,,0,note_on,,95.0,45.0,95.0,136050,141.71875
870,0.0,,,,,,57.0,,,,,29,note_off,,80.0,57.0,80.0,136079,141.74895833333332
871,0.0,,,,,,52.0,,,,,0,note_off,,80.0,52.0,80.0,136079,141.74895833333332
872,0.0,,,,,,45.0,,,,,0,note_off,,80.0,45.0,80.0,136079,141.74895833333332
873,0.0,,,,,,59.0,,,,,1,note_off,,80.0,59.0,80.0,136080,141.75
874,0.0,,,,,,54.0,,,,,0,note_off,,80.0,54.0,80.0,136080,141.75
875,0.0,,,,,,47.0,,,,,0,note_off,,80.0,47.0,80.0,136080,141.75
876,0.0,,,,,,64.0,,,,,0,note_on,,95.0,64.0,95.0,136080,141.75
877,0.0,,,,,,59.0,,,,,0,note_on,,95.0,59.0,95.0,136080,141.75
878,0.0,,,,,,52.0,,,,,0,note_on,,95.0,52.0,95.0,136080,141.75
879,0.0,,,,,,64.0,,,,,720,note_off,,80.0,64.0,80.0,136800,142.5
880,0.0,,,,,,59.0,,,,,0,note_off,,80.0,59.0,80.0,136800,142.5
881,0.0,,,,,,52.0,,,,,0,note_off,,80.0,52.0,80.0,136800,142.5
882,1.0,,,,,,64.0,,,,,0,note_on,,95.0,64.0,95.0,2160,2.25
883,1.0,,,,,,59.0,,,,,0,note_on,,95.0,59.0,95.0,2160,2.25
884,1.0,,,,,,52.0,,,,,0,note_on,,95.0,52.0,95.0,2160,2.25
885,1.0,,,,,,,,640.0,,,120,pitchwheel,,,,,2280,2.375
886,1.0,,,,,,,,640.0,,,0,pitchwheel,,,,,2280,2.375
887,1.0,,,,,,,,640.0,,,0,pitchwheel,,,,,2280,2.375
888,1.0,,,,,,,,1408.0,,,60,pitchwheel,,,,,2340,2.4375
889,1.0,,,,,,,,1408.0,,,0,pitchwheel,,,,,2340,2.4375
890,1.0,,,,,,,,1408.0,,,0,pitchwheel,,,,,2340,2.4375
891,1.0,,,,,,64.0,,,,,60,note_off,,80.0,64.0,80.0,2400,2.5
892,1.0,,,,,,,,0.0,,,0,pitchwheel,,,,,2400,2.5
893,1.0,,,,,,59.0,,,,,0,note_off,,80.0,59.0,80.0,2400,2.5
894,1.0,,,,,,,,0.0,,,0,pitchwheel,,,,,2400,2.5
895,1.0,,,,,,52.0,,,,,0,note_off,,80.0,52.0,80.0,2400,2.5
896,1.0,,,,,,,,0.0,,,0,pitchwheel,,,,,2400,2.5
897,0.0,,,,,,67.0,,,,,0,note_on,,86.0,67.0,86.0,136800,142.5
898,0.0,,,,,,62.0,,,,,0,note_on,,86.0,62.0,86.0,136800,142.5
899,0.0,,,,,,55.0,,,,,0,note_on,,86.0,55.0,86.0,136800,142.5
900,0.0,,,,,,67.0,,,,,240,note_off,,80.0,67.0,80.0,137040,142.75
901,0.0,,,,,,62.0,,,,,0,note_off,,80.0,62.0,80.0,137040,142.75
902,0.0,,,,,,55.0,,,,,0,note_off,,80.0,55.0,80.0,137040,142.75
903,0.0,,,,,,64.0,,,,,120,note_on,,95.0,64.0,95.0,137160,142.875
904,0.0,,,,,,59.0,,,,,0,note_on,,95.0,59.0,95.0,137160,142.875
905,0.0,,,,,,52.0,,,,,0,note_on,,95.0,52.0,95.0,137160,142.875
906,0.0,,,,,,64.0,,,,,240,note_off,,80.0,64.0,80.0,137400,143.125
907,0.0,,,,,,59.0,,,,,0,note_off,,80.0,59.0,80.0,137400,143.125
908,0.0,,,,,,52.0,,,,,0,note_off,,80.0,52.0,80.0,137400,143.125
909,0.0,,,,,,62.0,,,,,120,note_on,,95.0,62.0,95.0,137520,143.25
910,0.0,,,,,,57.0,,,,,0,note_on,,95.0,57.0,95.0,137520,143.25
911,0.0,,,,,,50.0,,,,,0,note_on,,95.0,50.0,95.0,137520,143.25
912,0.0,,,,,,62.0,,,,,240,note_off,,80.0,62.0,80.0,137760,143.5
913,0.0,,,,,,57.0,,,,,0,note_off,,80.0,57.0,80.0,137760,143.5
914,0.0,,,,,,50.0,,,,,0,note_off,,80.0,50.0,80.0,137760,143.5
915,0.0,,,,,,60.0,,,,,0,note_on,,95.0,60.0,95.0,137760,143.5
916,0.0,,,,,,55.0,,,,,0,note_on,,95.0,55.0,95.0,137760,143.5
917,0.0,,,,,,48.0,,,,,0,note_on,,95.0,48.0,95.0,137760,143.5
918,0.0,,,,,,60.0,,,,,360,note_off,,80.0,60.0,80.0,138120,143.875
919,0.0,,,,,,55.0,,,,,0,note_off,,80.0,55.0,80.0,138120,143.875
920,0.0,,,,,,48.0,,,,,0,note_off,,80.0,48.0,80.0,138120,143.875
921,0.0,,,,,,62.0,,,,,0,note_on,,95.0,62.0,95.0,138120,143.875
922,0.0,,,,,,57.0,,,,,0,note_on,,95.0,57.0,95.0,138120,143.875
923,0.0,,,,,,50.0,,,,,0,note_on,,95.0,50.0,95.0,138120,143.875
924,0.0,,,,,,62.0,,,,,360,note_off,,80.0,62.0,80.0,138480,144.25
925,0.0,,,,,,57.0,,,,,0,note_off,,80.0,57.0,80.0,138480,144.25
926,0.0,,,,,,50.0,,,,,0,note_off,,80.0,50.0,80.0,138480,144.25
927,0.0,,,,,,60.0,,,,,0,note_on,,95.0,60.0,95.0,138480,144.25
928,0.0,,,,,,55.0,,,,,0,note_on,,95.0,55.0,95.0,138480,144.25
929,0.0,,,,,,48.0,,,,,0,note_on,,95.0,48.0,95.0,138480,144.25
930,0.0,,,,,,60.0,,,,,240,note_off,,80.0,60.0,80.0,138720,144.5
931,0.0,,,,,,55.0,,,,,0,note_off,,80.0,55.0,80.0,138720,144.5
932,0.0,,,,,,48.0,,,,,0,note_off,,80.0,48.0,80.0,138720,144.5
933,0.0,,,,,,59.0,,,,,0,note_on,,95.0,59.0,95.0,138720,144.5
934,0.0,,,,,,54.0,,,,,0,note_on,,95.0,54.0,95.0,138720,144.5
935,0.0,,,,,,47.0,,,,,0,note_on,,95.0,47.0,95.0,138720,144.5
936,0.0,,,,,,57.0,,,,,930,note_on,,95.0,57.0,95.0,139650,145.46875
937,0.0,,,,,,52.0,,,,,0,note_on,,95.0,52.0,95.0,139650,145.46875
938,0.0,,,,,,45.0,,,,,0,note_on,,95.0,45.0,95.0,139650,145.46875
939,0.0,,,,,,57.0,,,,,29,note_off,,80.0,57.0,80.0,139679,145.49895833333332
940,0.0,,,,,,52.0,,,,,0,note_off,,80.0,52.0,80.0,139679,145.49895833333332
941,0.0,,,,,,45.0,,,,,0,note_off,,80.0,45.0,80.0,139679,145.49895833333332
942,0.0,,,,,,59.0,,,,,1,note_off,,80.0,59.0,80.0,139680,145.5
943,0.0,,,,,,54.0,,,,,0,note_off,,80.0,54.0,80.0,139680,145.5
944,0.0,,,,,,47.0,,,,,0,note_off,,80.0,47.0,80.0,139680,145.5
945,0.0,,,,,,64.0,,,,,0,note_on,,95.0,64.0,95.0,139680,145.5
946,0.0,,,,,,59.0,,,,,0,note_on,,95.0,59.0,95.0,139680,145.5
947,0.0,,,,,,52.0,,,,,0,note_on,,95.0,52.0,95.0,139680,145.5
948,0.0,,,,,,64.0,,,,,720,note_off,,80.0,64.0,80.0,140400,146.25
949,0.0,,,,,,59.0,,,,,0,note_off,,80.0,59.0,80.0,140400,146.25
950,0.0,,,,,,52.0,,,,,0,note_off,,80.0,52.0,80.0,140400,146.25
951,1.0,,,,,,64.0,,,,,0,note_on,,95.0,64.0,95.0,2400,2.5
952,1.0,,,,,,59.0,,,,,0,note_on,,95.0,59.0,95.0,2400,2.5
953,1.0,,,,,,52.0,,,,,0,note_on,,95.0,52.0,95.0,2400,2.5
954,1.0,,,,,,,,640.0,,,120,pitchwheel,,,,,2520,2.625
955,1.0,,,,,,,,640.0,,,0,pitchwheel,,,,,2520,2.625
956,1.0,,,,,,,,640.0,,,0,pitchwheel,,,,,2520,2.625
957,1.0,,,,,,,,1408.0,,,60,pitchwheel,,,,,2580,2.6875
958,1.0,,,,,,,,1408.0,,,0,pitchwheel,,,,,2580,2.6875
959,1.0,,,,,,,,1408.0,,,0,pitchwheel,,,,,2580,2.6875
960,1.0,,,,,,64.0,,,,,60,note_off,,80.0,64.0,80.0,2640,2.75
961,1.0,,,,,,,,0.0,,,0,pitchwheel,,,,,2640,2.75
962,1.0,,,,,,59.0,,,,,0,note_off,,80.0,59.0,80.0,2640,2.75
963,1.0,,,,,,,,0.0,,,0,pitchwheel,,,,,2640,2.75
964,1.0,,,,,,52.0,,,,,0,note_off,,80.0,52.0,80.0,2640,2.75
965,1.0,,,,,,,,0.0,,,0,pitchwheel,,,,,2640,2.75
966,0.0,,,,,,67.0,,,,,0,note_on,,86.0,67.0,86.0,140400,146.25
967,0.0,,,,,,62.0,,,,,0,note_on,,86.0,62.0,86.0,140400,146.25
968,0.0,,,,,,55.0,,,,,0,note_on,,86.0,55.0,86.0,140400,146.25
969,0.0,,,,,,67.0,,,,,240,note_off,,80.0,67.0,80.0,140640,146.5
970,0.0,,,,,,62.0,,,,,0,note_off,,80.0,62.0,80.0,140640,146.5
971,0.0,,,,,,55.0,,,,,0,note_off,,80.0,55.0,80.0,140640,146.5
972,0.0,,,,,,64.0,,,,,120,note_on,,95.0,64.0,95.0,140760,146.625
973,0.0,,,,,,59.0,,,,,0,note_on,,95.0,59.0,95.0,140760,146.625
974,0.0,,,,,,52.0,,,,,0,note_on,,95.0,52.0,95.0,140760,146.625
975,0.0,,,,,,64.0,,,,,240,note_off,,80.0,64.0,80.0,141000,146.875
976,0.0,,,,,,59.0,,,,,0,note_off,,80.0,59.0,80.0,141000,146.875
977,0.0,,,,,,52.0,,,,,0,note_off,,80.0,52.0,80.0,141000,146.875
978,0.0,,,,,,62.0,,,,,120,note_on,,95.0,62.0,95.0,141120,147.0
979,0.0,,,,,,57.0,,,,,0,note_on,,95.0,57.0,95.0,141120,147.0
980,0.0,,,,,,50.0,,,,,0,note_on,,95.0,50.0,95.0,141120,147.0
981,0.0,,,,,,62.0,,,,,240,note_off,,80.0,62.0,80.0,141360,147.25
982,0.0,,,,,,57.0,,,,,0,note_off,,80.0,57.0,80.0,141360,147.25
983,0.0,,,,,,50.0,,,,,0,note_off,,80.0,50.0,80.0,141360,147.25
984,0.0,,,,,,60.0,,,,,0,note_on,,95.0,60.0,95.0,141360,147.25
985,0.0,,,,,,55.0,,,,,0,note_on,,95.0,55.0,95.0,141360,147.25
986,0.0,,,,,,48.0,,,,,0,note_on,,95.0,48.0,95.0,141360,147.25
987,0.0,,,,,,60.0,,,,,960,note_off,,80.0,60.0,80.0,142320,148.25
988,0.0,,,,,,55.0,,,,,0,note_off,,80.0,55.0,80.0,142320,148.25
989,0.0,,,,,,48.0,,,,,0,note_off,,80.0,48.0,80.0,142320,148.25
990,0.0,,,,,,59.0,,,,,0,note_on,,95.0,59.0,95.0,142320,148.25
991,0.0,,,,,,54.0,,,,,0,note_on,,95.0,54.0,95.0,142320,148.25
992,0.0,,,,,,47.0,,,,,0,note_on,,95.0,47.0,95.0,142320,148.25
993,0.0,,,,,,57.0,,,,,930,note_on,,95.0,57.0,95.0,143250,149.21875
994,0.0,,,,,,52.0,,,,,0,note_on,,95.0,52.0,95.0,143250,149.21875
995,0.0,,,,,,45.0,,,,,0,note_on,,95.0,45.0,95.0,143250,149.21875
996,0.0,,,,,,57.0,,,,,29,note_off,,80.0,57.0,80.0,143279,149.24895833333332
997,0.0,,,,,,52.0,,,,,0,note_off,,80.0,52.0,80.0,143279,149.24895833333332
998,0.0,,,,,,45.0,,,,,0,note_off,,80.0,45.0,80.0,143279,149.24895833333332
999,0.0,,,,,,59.0,,,,,1,note_off,,80.0,59.0,80.0,143280,149.25
1000,0.0,,,,,,54.0,,,,,0,note_off,,80.0,54.0,80.0,143280,149.25
1001,0.0,,,,,,47.0,,,,,0,note_off,,80.0,47.0,80.0,143280,149.25
1002,0.0,,,,,,64.0,,,,,0,note_on,,95.0,64.0,95.0,143280,149.25
1003,0.0,,,,,,59.0,,,,,0,note_on,,95.0,59.0,95.0,143280,149.25
1004,0.0,,,,,,52.0,,,,,0,note_on,,95.0,52.0,95.0,143280,149.25
1005,0.0,,,,,,64.0,,,,,720,note_off,,80.0,64.0,80.0,144000,150.0
1006,0.0,,,,,,59.0,,,,,0,note_off,,80.0,59.0,80.0,144000,150.0
1007,0.0,,,,,,52.0,,,,,0,note_off,,80.0,52.0,80.0,144000,150.0
1008,1.0,,,,,,64.0,,,,,0,note_on,,95.0,64.0,95.0,2640,2.75
1009,1.0,,,,,,59.0,,,,,0,note_on,,95.0,59.0,95.0,2640,2.75
1010,1.0,,,,,,52.0,,,,,0,note_on,,95.0,52.0,95.0,2640,2.75
1011,1.0,,,,,,,,640.0,,,120,pitchwheel,,,,,2760,2.875
1012,1.0,,,,,,,,640.0,,,0,pitchwheel,,,,,2760,2.875
1013,1.0,,,,,,,,640.0,,,0,pitchwheel,,,,,2760,2.875
1014,1.0,,,,,,,,1408.0,,,60,pitchwheel,,,,,2820,2.9375
1015,1.0,,,,,,,,1408.0,,,0,pitchwheel,,,,,2820,2.9375
1016,1.0,,,,,,,,1408.0,,,0,pitchwheel,,,,,2820,2.9375
1017,1.0,,,,,,64.0,,,,,60,note_off,,80.0,64.0,80.0,2880,3.0
1018,1.0,,,,,,,,0.0,,,0,pitchwheel,,,,,2880,3.0
1019,1.0,,,,,,59.0,,,,,0,note_off,,80.0,59.0,80.0,2880,3.0
1020,1.0,,,,,,,,0.0,,,0,pitchwheel,,,,,2880,3.0
1021,1.0,,,,,,52.0,,,,,0,note_off,,80.0,52.0,80.0,2880,3.0
1022,1.0,,,,,,,,0.0,,,0,pitchwheel,,,,,2880,3.0
1023,0.0,,,,,,67.0,,,,,0,note_on,,86.0,67.0,86.0,144000,150.0
1024,0.0,,,,,,62.0,,,,,0,note_on,,86.0,62.0,86.0,144000,150.0
1025,0.0,,,,,,55.0,,,,,0,note_on,,86.0,55.0,86.0,144000,150.0
1026,0.0,,,,,,67.0,,,,,240,note_off,,80.0,67.0,80.0,144240,150.25
1027,0.0,,,,,,62.0,,,,,0,note_off,,80.0,62.0,80.0,144240,150.25
1028,0.0,,,,,,55.0,,,,,0,note_off,,80.0,55.0,80.0,144240,150.25
1029,0.0,,,,,,64.0,,,,,120,note_on,,95.0,64.0,95.0,144360,150.375
1030,0.0,,,,,,59.0,,,,,0,note_on,,95.0,59.0,95.0,144360,150.375
1031,0.0,,,,,,52.0,,,,,0,note_on,,95.0,52.0,95.0,144360,150.375
1032,0.0,,,,,,64.0,,,,,240,note_off,,80.0,64.0,80.0,144600,150.625
1033,0.0,,,,,,59.0,,,,,0,note_off,,80.0,59.0,80.0,144600,150.625
1034,0.0,,,,,,52.0,,,,,0,note_off,,80.0,52.0,80.0,144600,150.625
1035,0.0,,,,,,62.0,,,,,120,note_on,,95.0,62.0,95.0,144720,150.75
1036,0.0,,,,,,57.0,,,,,0,note_on,,95.0,57.0,95.0,144720,150.75
1037,0.0,,,,,,50.0,,,,,0,note_on,,95.0,50.0,95.0,144720,150.75
1038,0.0,,,,,,62.0,,,,,240,note_off,,80.0,62.0,80.0,144960,151.0
1039,0.0,,,,,,57.0,,,,,0,note_off,,80.0,57.0,80.0,144960,151.0
1040,0.0,,,,,,50.0,,,,,0,note_off,,80.0,50.0,80.0,144960,151.0
1041,0.0,,,,,,60.0,,,,,0,note_on,,95.0,60.0,95.0,144960,151.0
1042,0.0,,,,,,55.0,,,,,0,note_on,,95.0,55.0,95.0,144960,151.0
1043,0.0,,,,,,48.0,,,,,0,note_on,,95.0,48.0,95.0,144960,151.0
1044,0.0,,,,,,60.0,,,,,360,note_off,,80.0,60.0,80.0,145320,151.375
1045,0.0,,,,,,55.0,,,,,0,note_off,,80.0,55.0,80.0,145320,151.375
1046,0.0,,,,,,48.0,,,,,0,note_off,,80.0,48.0,80.0,145320,151.375
1047,0.0,,,,,,62.0,,,,,0,note_on,,95.0,62.0,95.0,145320,151.375
1048,0.0,,,,,,57.0,,,,,0,note_on,,95.0,57.0,95.0,145320,151.375
1049,0.0,,,,,,50.0,,,,,0,note_on,,95.0,50.0,95.0,145320,151.375
1050,0.0,,,,,,62.0,,,,,360,note_off,,80.0,62.0,80.0,145680,151.75
1051,0.0,,,,,,57.0,,,,,0,note_off,,80.0,57.0,80.0,145680,151.75
1052,0.0,,,,,,50.0,,,,,0,note_off,,80.0,50.0,80.0,145680,151.75
1053,0.0,,,,,,60.0,,,,,0,note_on,,95.0,60.0,95.0,145680,151.75
1054,0.0,,,,,,55.0,,,,,0,note_on,,95.0,55.0,95.0,145680,151.75
1055,0.0,,,,,,48.0,,,,,0,note_on,,95.0,48.0,95.0,145680,151.75
1056,0.0,,,,,,60.0,,,,,240,note_off,,80.0,60.0,80.0,145920,152.0
1057,0.0,,,,,,55.0,,,,,0,note_off,,80.0,55.0,80.0,145920,152.0
1058,0.0,,,,,,48.0,,,,,0,note_off,,80.0,48.0,80.0,145920,152.0
1059,0.0,,,,,,59.0,,,,,0,note_on,,95.0,59.0,95.0,145920,152.0
1060,0.0,,,,,,54.0,,,,,0,note_on,,95.0,54.0,95.0,145920,152.0
1061,0.0,,,,,,47.0,,,,,0,note_on,,95.0,47.0,95.0,145920,152.0
1062,0.0,,,,,,59.0,,,,,960,note_off,,80.0,59.0,80.0,146880,153.0
1063,0.0,,,,,,54.0,,,,,0,note_off,,80.0,54.0,80.0,146880,153.0
1064,0.0,,,,,,47.0,,,,,0,note_off,,80.0,47.0,80.0,146880,153.0
1065,0.0,,,,,,50.0,,,,,0,note_on,,95.0,50.0,95.0,146880,153.0
1066,0.0,,,,,,43.0,,,,,0,note_on,,95.0,43.0,95.0,146880,153.0
1067,0.0,,,,,,50.0,,,,,240,note_off,,80.0,50.0,80.0,147120,153.25
1068,0.0,,,,,,43.0,,,,,0,note_off,,80.0,43.0,80.0,147120,153.25
1069,0.0,,,,,,50.0,,,,,0,note_on,,95.0,50.0,95.0,147120,153.25
1070,0.0,,,,,,43.0,,,,,0,note_on,,95.0,43.0,95.0,147120,153.25
1071,0.0,,,,,,50.0,,,,,240,note_off,,80.0,50.0,80.0,147360,153.5
1072,0.0,,,,,,43.0,,,,,0,note_off,,80.0,43.0,80.0,147360,153.5
1073,0.0,,,,,,50.0,,,,,0,note_on,,95.0,50.0,95.0,147360,153.5
1074,0.0,,,,,,43.0,,,,,0,note_on,,95.0,43.0,95.0,147360,153.5
1075,0.0,,,,,,50.0,,,,,240,note_off,,80.0,50.0,80.0,147600,153.75
1076,0.0,,,,,,43.0,,,,,0,note_off,,80.0,43.0,80.0,147600,153.75
1077,0.0,,,,,,50.0,,,,,0,note_on,,95.0,50.0,95.0,147600,153.75
1078,0.0,,,,,,43.0,,,,,0,note_on,,95.0,43.0,95.0,147600,153.75
1079,0.0,,,,,,50.0,,,,,240,note_off,,80.0,50.0,80.0,147840,154.0
1080,0.0,,,,,,43.0,,,,,0,note_off,,80.0,43.0,80.0,147840,154.0
1081,0.0,,,,,,50.0,,,,,0,note_on,,95.0,50.0,95.0,147840,154.0
1082,0.0,,,,,,43.0,,,,,0,note_on,,95.0,43.0,95.0,147840,154.0
1083,0.0,,,,,,50.0,,,,,240,note_off,,80.0,50.0,80.0,148080,154.25
1084,0.0,,,,,,43.0,,,,,0,note_off,,80.0,43.0,80.0,148080,154.25
1085,0.0,,,,,,50.0,,,,,0,note_on,,95.0,50.0,95.0,148080,154.25
1086,0.0,,,,,,43.0,,,,,0,note_on,,95.0,43.0,95.0,148080,154.25
1087,0.0,,,,,,50.0,,,,,240,note_off,,80.0,50.0,80.0,148320,154.5
1088,0.0,,,,,,43.0,,,,,0,note_off,,80.0,43.0,80.0,148320,154.5
1089,0.0,,,,,,50.0,,,,,0,note_on,,95.0,50.0,95.0,148320,154.5
1090,0.0,,,,,,43.0,,,,,0,note_on,,95.0,43.0,95.0,148320,154.5
1091,0.0,,,,,,50.0,,,,,240,note_off,,80.0,50.0,80.0,148560,154.75
1092,0.0,,,,,,43.0,,,,,0,note_off,,80.0,43.0,80.0,148560,154.75
1093,0.0,,,,,,50.0,,,,,0,note_on,,95.0,50.0,95.0,148560,154.75
1094,0.0,,,,,,43.0,,,,,0,note_on,,95.0,43.0,95.0,148560,154.75
1095,0.0,,,,,,50.0,,,,,240,note_off,,80.0,50.0,80.0,148800,155.0
1096,0.0,,,,,,43.0,,,,,0,note_off,,80.0,43.0,80.0,148800,155.0
1097,0.0,,,,,,45.0,,,,,0,note_on,,95.0,45.0,95.0,148800,155.0
1098,0.0,,,,,,40.0,,,,,0,note_on,,95.0,40.0,95.0,148800,155.0
1099,0.0,,,,,,45.0,,,,,240,note_off,,80.0,45.0,80.0,149040,155.25
1100,0.0,,,,,,40.0,,,,,0,note_off,,80.0,40.0,80.0,149040,155.25
1101,0.0,,,,,,45.0,,,,,0,note_on,,95.0,45.0,95.0,149040,155.25
1102,0.0,,,,,,40.0,,,,,0,note_on,,95.0,40.0,95.0,149040,155.25
1103,0.0,,,,,,45.0,,,,,240,note_off,,80.0,45.0,80.0,149280,155.5
1104,0.0,,,,,,40.0,,,,,0,note_off,,80.0,40.0,80.0,149280,155.5
1105,0.0,,,,,,52.0,,,,,0,note_on,,95.0,52.0,95.0,149280,155.5
1106,0.0,,,,,,45.0,,,,,0,note_on,,95.0,45.0,95.0,149280,155.5
1107,0.0,,,,,,40.0,,,,,0,note_on,,95.0,40.0,95.0,149280,155.5
1108,0.0,,,,,,52.0,,,,,240,note_off,,80.0,52.0,80.0,149520,155.75
1109,0.0,,,,,,45.0,,,,,0,note_off,,80.0,45.0,80.0,149520,155.75
1110,0.0,,,,,,40.0,,,,,0,note_off,,80.0,40.0,80.0,149520,155.75
1111,0.0,,,,,,52.0,,,,,0,note_on,,95.0,52.0,95.0,149520,155.75
1112,0.0,,,,,,45.0,,,,,0,note_on,,95.0,45.0,95.0,149520,155.75
1113,0.0,,,,,,40.0,,,,,0,note_on,,95.0,40.0,95.0,149520,155.75
1114,0.0,,,,,,52.0,,,,,240,note_off,,80.0,52.0,80.0,149760,156.0
1115,0.0,,,,,,45.0,,,,,0,note_off,,80.0,45.0,80.0,149760,156.0
1116,0.0,,,,,,40.0,,,,,0,note_off,,80.0,40.0,80.0,149760,156.0
1117,0.0,,,,,,57.0,,,,,0,note_on,,95.0,57.0,95.0,149760,156.0
1118,0.0,,,,,,52.0,,,,,0,note_on,,95.0,52.0,95.0,149760,156.0
1119,0.0,,,,,,45.0,,,,,0,note_on,,95.0,45.0,95.0,149760,156.0
1120,0.0,,,,,,40.0,,,,,0,note_on,,95.0,40.0,95.0,149760,156.0
1121,0.0,,,,,,57.0,,,,,240,note_off,,80.0,57.0,80.0,150000,156.25
1122,0.0,,,,,,52.0,,,,,0,note_off,,80.0,52.0,80.0,150000,156.25
1123,0.0,,,,,,45.0,,,,,0,note_off,,80.0,45.0,80.0,150000,156.25
1124,0.0,,,,,,40.0,,,,,0,note_off,,80.0,40.0,80.0,150000,156.25
1125,0.0,,,,,,61.0,,,,,0,note_on,,95.0,61.0,95.0,150000,156.25
1126,0.0,,,,,,57.0,,,,,0,note_on,,95.0,57.0,95.0,150000,156.25
1127,0.0,,,,,,52.0,,,,,0,note_on,,95.0,52.0,95.0,150000,156.25
1128,0.0,,,,,,45.0,,,,,0,note_on,,95.0,45.0,95.0,150000,156.25
1129,0.0,,,,,,40.0,,,,,0,note_on,,95.0,40.0,95.0,150000,156.25
1130,0.0,,,,,,61.0,,,,,240,note_off,,80.0,61.0,80.0,150240,156.5
1131,0.0,,,,,,57.0,,,,,0,note_off,,80.0,57.0,80.0,150240,156.5
1132,0.0,,,,,,52.0,,,,,0,note_off,,80.0,52.0,80.0,150240,156.5
1133,0.0,,,,,,45.0,,,,,0,note_off,,80.0,45.0,80.0,150240,156.5
1134,0.0,,,,,,40.0,,,,,0,note_off,,80.0,40.0,80.0,150240,156.5
1135,0.0,,,,,,64.0,,,,,0,note_on,,95.0,64.0,95.0,150240,156.5
1136,0.0,,,,,,61.0,,,,,0,note_on,,95.0,61.0,95.0,150240,156.5
1137,0.0,,,,,,57.0,,,,,0,note_on,,95.0,57.0,95.0,150240,156.5
1138,0.0,,,,,,52.0,,,,,0,note_on,,95.0,52.0,95.0,150240,156.5
1139,0.0,,,,,,45.0,,,,,0,note_on,,95.0,45.0,95.0,150240,156.5
1140,0.0,,,,,,40.0,,,,,0,note_on,,95.0,40.0,95.0,150240,156.5
1141,0.0,,,,,,64.0,,,,,240,note_off,,80.0,64.0,80.0,150480,156.75
1142,0.0,,,,,,61.0,,,,,0,note_off,,80.0,61.0,80.0,150480,156.75
1143,0.0,,,,,,57.0,,,,,0,note_off,,80.0,57.0,80.0,150480,156.75
1144,0.0,,,,,,52.0,,,,,0,note_off,,80.0,52.0,80.0,150480,156.75
1145,0.0,,,,,,45.0,,,,,0,note_off,,80.0,45.0,80.0,150480,156.75
1146,0.0,,,,,,40.0,,,,,0,note_off,,80.0,40.0,80.0,150480,156.75
1147,0.0,,,,,,64.0,,,,,0,note_on,,95.0,64.0,95.0,150480,156.75
1148,0.0,,,,,,61.0,,,,,0,note_on,,95.0,61.0,95.0,150480,156.75
1149,0.0,,,,,,57.0,,,,,0,note_on,,95.0,57.0,95.0,150480,156.75
1150,0.0,,,,,,52.0,,,,,0,note_on,,95.0,52.0,95.0,150480,156.75
1151,0.0,,,,,,45.0,,,,,0,note_on,,95.0,45.0,95.0,150480,156.75
1152,0.0,,,,,,40.0,,,,,0,note_on,,95.0,40.0,95.0,150480,156.75
1153,0.0,,,,,,64.0,,,,,240,note_off,,80.0,64.0,80.0,150720,157.0
1154,0.0,,,,,,61.0,,,,,0,note_off,,80.0,61.0,80.0,150720,157.0
1155,0.0,,,,,,57.0,,,,,0,note_off,,80.0,57.0,80.0,150720,157.0
1156,0.0,,,,,,52.0,,,,,0,note_off,,80.0,52.0,80.0,150720,157.0
1157,0.0,,,,,,45.0,,,,,0,note_off,,80.0,45.0,80.0,150720,157.0
1158,0.0,,,,,,40.0,,,,,0,note_off,,80.0,40.0,80.0,150720,157.0
1159,0.0,,,,,,50.0,,,,,42240,note_on,,95.0,50.0,95.0,192960,201.0
1160,0.0,,,,,,43.0,,,,,0,note_on,,95.0,43.0,95.0,192960,201.0
1161,0.0,,,,,,50.0,,,,,240,note_off,,80.0,50.0,80.0,193200,201.25
1162,0.0,,,,,,43.0,,,,,0,note_off,,80.0,43.0,80.0,193200,201.25
1163,0.0,,,,,,50.0,,,,,0,note_on,,95.0,50.0,95.0,193200,201.25
1164,0.0,,,,,,43.0,,,,,0,note_on,,95.0,43.0,95.0,193200,201.25
1165,0.0,,,,,,50.0,,,,,240,note_off,,80.0,50.0,80.0,193440,201.5
1166,0.0,,,,,,43.0,,,,,0,note_off,,80.0,43.0,80.0,193440,201.5
1167,0.0,,,,,,50.0,,,,,0,note_on,,95.0,50.0,95.0,193440,201.5
1168,0.0,,,,,,43.0,,,,,0,note_on,,95.0,43.0,95.0,193440,201.5
1169,0.0,,,,,,50.0,,,,,240,note_off,,80.0,50.0,80.0,193680,201.75
1170,0.0,,,,,,43.0,,,,,0,note_off,,80.0,43.0,80.0,193680,201.75
1171,0.0,,,,,,50.0,,,,,0,note_on,,95.0,50.0,95.0,193680,201.75
1172,0.0,,,,,,43.0,,,,,0,note_on,,95.0,43.0,95.0,193680,201.75
1173,0.0,,,,,,50.0,,,,,240,note_off,,80.0,50.0,80.0,193920,202.0
1174,0.0,,,,,,43.0,,,,,0,note_off,,80.0,43.0,80.0,193920,202.0
1175,0.0,,,,,,50.0,,,,,0,note_on,,95.0,50.0,95.0,193920,202.0
1176,0.0,,,,,,43.0,,,,,0,note_on,,95.0,43.0,95.0,193920,202.0
1177,0.0,,,,,,50.0,,,,,240,note_off,,80.0,50.0,80.0,194160,202.25
1178,0.0,,,,,,43.0,,,,,0,note_off,,80.0,43.0,80.0,194160,202.25
1179,0.0,,,,,,50.0,,,,,0,note_on,,95.0,50.0,95.0,194160,202.25
1180,0.0,,,,,,43.0,,,,,0,note_on,,95.0,43.0,95.0,194160,202.25
1181,0.0,,,,,,50.0,,,,,240,note_off,,80.0,50.0,80.0,194400,202.5
1182,0.0,,,,,,43.0,,,,,0,note_off,,80.0,43.0,80.0,194400,202.5
1183,0.0,,,,,,50.0,,,,,0,note_on,,95.0,50.0,95.0,194400,202.5
1184,0.0,,,,,,43.0,,,,,0,note_on,,95.0,43.0,95.0,194400,202.5
1185,0.0,,,,,,50.0,,,,,240,note_off,,80.0,50.0,80.0,194640,202.75
1186,0.0,,,,,,43.0,,,,,0,note_off,,80.0,43.0,80.0,194640,202.75
1187,0.0,,,,,,50.0,,,,,0,note_on,,95.0,50.0,95.0,194640,202.75
1188,0.0,,,,,,43.0,,,,,0,note_on,,95.0,43.0,95.0,194640,202.75
1189,0.0,,,,,,50.0,,,,,240,note_off,,80.0,50.0,80.0,194880,203.0
1190,0.0,,,,,,43.0,,,,,0,note_off,,80.0,43.0,80.0,194880,203.0
1191,0.0,,,,,,45.0,,,,,0,note_on,,95.0,45.0,95.0,194880,203.0
1192,0.0,,,,,,40.0,,,,,0,note_on,,95.0,40.0,95.0,194880,203.0
1193,0.0,,,,,,45.0,,,,,240,note_off,,80.0,45.0,80.0,195120,203.25
1194,0.0,,,,,,40.0,,,,,0,note_off,,80.0,40.0,80.0,195120,203.25
1195,0.0,,,,,,45.0,,,,,0,note_on,,95.0,45.0,95.0,195120,203.25
1196,0.0,,,,,,40.0,,,,,0,note_on,,95.0,40.0,95.0,195120,203.25
1197,0.0,,,,,,45.0,,,,,240,note_off,,80.0,45.0,80.0,195360,203.5
1198,0.0,,,,,,40.0,,,,,0,note_off,,80.0,40.0,80.0,195360,203.5
1199,0.0,,,,,,52.0,,,,,0,note_on,,95.0,52.0,95.0,195360,203.5
1200,0.0,,,,,,45.0,,,,,0,note_on,,95.0,45.0,95.0,195360,203.5
1201,0.0,,,,,,40.0,,,,,0,note_on,,95.0,40.0,95.0,195360,203.5
1202,0.0,,,,,,52.0,,,,,240,note_off,,80.0,52.0,80.0,195600,203.75
1203,0.0,,,,,,45.0,,,,,0,note_off,,80.0,45.0,80.0,195600,203.75
1204,0.0,,,,,,40.0,,,,,0,note_off,,80.0,40.0,80.0,195600,203.75
1205,0.0,,,,,,52.0,,,,,0,note_on,,95.0,52.0,95.0,195600,203.75
1206,0.0,,,,,,45.0,,,,,0,note_on,,95.0,45.0,95.0,195600,203.75
1207,0.0,,,,,,40.0,,,,,0,note_on,,95.0,40.0,95.0,195600,203.75
1208,0.0,,,,,,52.0,,,,,240,note_off,,80.0,52.0,80.0,195840,204.0
1209,0.0,,,,,,45.0,,,,,0,note_off,,80.0,45.0,80.0,195840,204.0
1210,0.0,,,,,,40.0,,,,,0,note_off,,80.0,40.0,80.0,195840,204.0
1211,0.0,,,,,,57.0,,,,,0,note_on,,95.0,57.0,95.0,195840,204.0
1212,0.0,,,,,,52.0,,,,,0,note_on,,95.0,52.0,95.0,195840,204.0
1213,0.0,,,,,,45.0,,,,,0,note_on,,95.0,45.0,95.0,195840,204.0
1214,0.0,,,,,,40.0,,,,,0,note_on,,95.0,40.0,95.0,195840,204.0
1215,0.0,,,,,,57.0,,,,,240,note_off,,80.0,57.0,80.0,196080,204.25
1216,0.0,,,,,,52.0,,,,,0,note_off,,80.0,52.0,80.0,196080,204.25
1217,0.0,,,,,,45.0,,,,,0,note_off,,80.0,45.0,80.0,196080,204.25
1218,0.0,,,,,,40.0,,,,,0,note_off,,80.0,40.0,80.0,196080,204.25
1219,0.0,,,,,,61.0,,,,,0,note_on,,95.0,61.0,95.0,196080,204.25
1220,0.0,,,,,,57.0,,,,,0,note_on,,95.0,57.0,95.0,196080,204.25
1221,0.0,,,,,,52.0,,,,,0,note_on,,95.0,52.0,95.0,196080,204.25
1222,0.0,,,,,,45.0,,,,,0,note_on,,95.0,45.0,95.0,196080,204.25
1223,0.0,,,,,,40.0,,,,,0,note_on,,95.0,40.0,95.0,196080,204.25
1224,0.0,,,,,,61.0,,,,,240,note_off,,80.0,61.0,80.0,196320,204.5
1225,0.0,,,,,,57.0,,,,,0,note_off,,80.0,57.0,80.0,196320,204.5
1226,0.0,,,,,,52.0,,,,,0,note_off,,80.0,52.0,80.0,196320,204.5
1227,0.0,,,,,,45.0,,,,,0,note_off,,80.0,45.0,80.0,196320,204.5
1228,0.0,,,,,,40.0,,,,,0,note_off,,80.0,40.0,80.0,196320,204.5
1229,0.0,,,,,,64.0,,,,,0,note_on,,95.0,64.0,95.0,196320,204.5
1230,0.0,,,,,,61.0,,,,,0,note_on,,95.0,61.0,95.0,196320,204.5
1231,0.0,,,,,,57.0,,,,,0,note_on,,95.0,57.0,95.0,196320,204.5
1232,0.0,,,,,,52.0,,,,,0,note_on,,95.0,52.0,95.0,196320,204.5
1233,0.0,,,,,,45.0,,,,,0,note_on,,95.0,45.0,95.0,196320,204.5
1234,0.0,,,,,,40.0,,,,,0,note_on,,95.0,40.0,95.0,196320,204.5
1235,0.0,,,,,,64.0,,,,,240,note_off,,80.0,64.0,80.0,196560,204.75
1236,0.0,,,,,,61.0,,,,,0,note_off,,80.0,61.0,80.0,196560,204.75
1237,0.0,,,,,,57.0,,,,,0,note_off,,80.0,57.0,80.0,196560,204.75
1238,0.0,,,,,,52.0,,,,,0,note_off,,80.0,52.0,80.0,196560,204.75
1239,0.0,,,,,,45.0,,,,,0,note_off,,80.0,45.0,80.0,196560,204.75
1240,0.0,,,,,,40.0,,,,,0,note_off,,80.0,40.0,80.0,196560,204.75
1241,0.0,,,,,,64.0,,,,,0,note_on,,95.0,64.0,95.0,196560,204.75
1242,0.0,,,,,,61.0,,,,,0,note_on,,95.0,61.0,95.0,196560,204.75
1243,0.0,,,,,,57.0,,,,,0,note_on,,95.0,57.0,95.0,196560,204.75
1244,0.0,,,,,,52.0,,,,,0,note_on,,95.0,52.0,95.0,196560,204.75
1245,0.0,,,,,,45.0,,,,,0,note_on,,95.0,45.0,95.0,196560,204.75
1246,0.0,,,,,,40.0,,,,,0,note_on,,95.0,40.0,95.0,196560,204.75
1247,0.0,,,,,,57.0,,,,,210,note_on,,95.0,57.0,95.0,196770,204.96875
1248,0.0,,,,,,52.0,,,,,0,note_on,,95.0,52.0,95.0,196770,204.96875
1249,0.0,,,,,,45.0,,,,,0,note_on,,95.0,45.0,95.0,196770,204.96875
1250,0.0,,,,,,57.0,,,,,29,note_off,,80.0,57.0,80.0,196799,204.99895833333332
1251,0.0,,,,,,52.0,,,,,0,note_off,,80.0,52.0,80.0,196799,204.99895833333332
1252,0.0,,,,,,45.0,,,,,0,note_off,,80.0,45.0,80.0,196799,204.99895833333332
1253,0.0,,,,,,64.0,,,,,1,note_off,,80.0,64.0,80.0,196800,205.0
1254,0.0,,,,,,61.0,,,,,0,note_off,,80.0,61.0,80.0,196800,205.0
1255,0.0,,,,,,57.0,,,,,0,note_off,,80.0,57.0,80.0,196800,205.0
1256,0.0,,,,,,52.0,,,,,0,note_off,,80.0,52.0,80.0,196800,205.0
1257,0.0,,,,,,45.0,,,,,0,note_off,,80.0,45.0,80.0,196800,205.0
1258,0.0,,,,,,40.0,,,,,0,note_off,,80.0,40.0,80.0,196800,205.0
1259,0.0,,,,,,64.0,,,,,0,note_on,,95.0,64.0,95.0,196800,205.0
1260,0.0,,,,,,59.0,,,,,0,note_on,,95.0,59.0,95.0,196800,205.0
1261,0.0,,,,,,52.0,,,,,0,note_on,,95.0,52.0,95.0,196800,205.0
1262,0.0,,,,,,64.0,,,,,720,note_off,,80.0,64.0,80.0,197520,205.75
1263,0.0,,,,,,59.0,,,,,0,note_off,,80.0,59.0,80.0,197520,205.75
1264,0.0,,,,,,52.0,,,,,0,note_off,,80.0,52.0,80.0,197520,205.75
1265,1.0,,,,,,64.0,,,,,0,note_on,,95.0,64.0,95.0,2880,3.0
1266,1.0,,,,,,59.0,,,,,0,note_on,,95.0,59.0,95.0,2880,3.0
1267,1.0,,,,,,52.0,,,,,0,note_on,,95.0,52.0,95.0,2880,3.0
1268,1.0,,,,,,,,640.0,,,120,pitchwheel,,,,,3000,3.125
1269,1.0,,,,,,,,640.0,,,0,pitchwheel,,,,,3000,3.125
1270,1.0,,,,,,,,640.0,,,0,pitchwheel,,,,,3000,3.125
1271,1.0,,,,,,,,1408.0,,,60,pitchwheel,,,,,3060,3.1875
1272,1.0,,,,,,,,1408.0,,,0,pitchwheel,,,,,3060,3.1875
1273,1.0,,,,,,,,1408.0,,,0,pitchwheel,,,,,3060,3.1875
1274,1.0,,,,,,64.0,,,,,60,note_off,,80.0,64.0,80.0,3120,3.25
1275,1.0,,,,,,,,0.0,,,0,pitchwheel,,,,,3120,3.25
1276,1.0,,,,,,59.0,,,,,0,note_off,,80.0,59.0,80.0,3120,3.25
1277,1.0,,,,,,,,0.0,,,0,pitchwheel,,,,,3120,3.25
1278,1.0,,,,,,52.0,,,,,0,note_off,,80.0,52.0,80.0,3120,3.25
1279,1.0,,,,,,,,0.0,,,0,pitchwheel,,,,,3120,3.25
1280,0.0,,,,,,67.0,,,,,0,note_on,,86.0,67.0,86.0,197520,205.75
1281,0.0,,,,,,62.0,,,,,0,note_on,,86.0,62.0,86.0,197520,205.75
1282,0.0,,,,,,55.0,,,,,0,note_on,,86.0,55.0,86.0,197520,205.75
1283,0.0,,,,,,67.0,,,,,240,note_off,,80.0,67.0,80.0,197760,206.0
1284,0.0,,,,,,62.0,,,,,0,note_off,,80.0,62.0,80.0,197760,206.0
1285,0.0,,,,,,55.0,,,,,0,note_off,,80.0,55.0,80.0,197760,206.0
1286,0.0,,,,,,64.0,,,,,120,note_on,,95.0,64.0,95.0,197880,206.125
1287,0.0,,,,,,59.0,,,,,0,note_on,,95.0,59.0,95.0,197880,206.125
1288,0.0,,,,,,52.0,,,,,0,note_on,,95.0,52.0,95.0,197880,206.125
1289,0.0,,,,,,64.0,,,,,240,note_off,,80.0,64.0,80.0,198120,206.375
1290,0.0,,,,,,59.0,,,,,0,note_off,,80.0,59.0,80.0,198120,206.375
1291,0.0,,,,,,52.0,,,,,0,note_off,,80.0,52.0,80.0,198120,206.375
1292,0.0,,,,,,62.0,,,,,120,note_on,,95.0,62.0,95.0,198240,206.5
1293,0.0,,,,,,57.0,,,,,0,note_on,,95.0,57.0,95.0,198240,206.5
1294,0.0,,,,,,50.0,,,,,0,note_on,,95.0,50.0,95.0,198240,206.5
1295,0.0,,,,,,62.0,,,,,240,note_off,,80.0,62.0,80.0,198480,206.75
1296,0.0,,,,,,57.0,,,,,0,note_off,,80.0,57.0,80.0,198480,206.75
1297,0.0,,,,,,50.0,,,,,0,note_off,,80.0,50.0,80.0,198480,206.75
1298,0.0,,,,,,60.0,,,,,0,note_on,,95.0,60.0,95.0,198480,206.75
1299,0.0,,,,,,55.0,,,,,0,note_on,,95.0,55.0,95.0,198480,206.75
1300,0.0,,,,,,48.0,,,,,0,note_on,,95.0,48.0,95.0,198480,206.75
1301,0.0,,,,,,60.0,,,,,960,note_off,,80.0,60.0,80.0,199440,207.75
1302,0.0,,,,,,55.0,,,,,0,note_off,,80.0,55.0,80.0,199440,207.75
1303,0.0,,,,,,48.0,,,,,0,note_off,,80.0,48.0,80.0,199440,207.75
1304,0.0,,,,,,59.0,,,,,0,note_on,,95.0,59.0,95.0,199440,207.75
1305,0.0,,,,,,54.0,,,,,0,note_on,,95.0,54.0,95.0,199440,207.75
1306,0.0,,,,,,47.0,,,,,0,note_on,,95.0,47.0,95.0,199440,207.75
1307,0.0,,,,,,57.0,,,,,930,note_on,,95.0,57.0,95.0,200370,208.71875
1308,0.0,,,,,,52.0,,,,,0,note_on,,95.0,52.0,95.0,200370,208.71875
1309,0.0,,,,,,45.0,,,,,0,note_on,,95.0,45.0,95.0,200370,208.71875
1310,0.0,,,,,,57.0,,,,,29,note_off,,80.0,57.0,80.0,200399,208.74895833333332
1311,0.0,,,,,,52.0,,,,,0,note_off,,80.0,52.0,80.0,200399,208.74895833333332
1312,0.0,,,,,,45.0,,,,,0,note_off,,80.0,45.0,80.0,200399,208.74895833333332
1313,0.0,,,,,,59.0,,,,,1,note_off,,80.0,59.0,80.0,200400,208.75
1314,0.0,,,,,,54.0,,,,,0,note_off,,80.0,54.0,80.0,200400,208.75
1315,0.0,,,,,,47.0,,,,,0,note_off,,80.0,47.0,80.0,200400,208.75
1316,0.0,,,,,,64.0,,,,,0,note_on,,95.0,64.0,95.0,200400,208.75
1317,0.0,,,,,,59.0,,,,,0,note_on,,95.0,59.0,95.0,200400,208.75
1318,0.0,,,,,,52.0,,,,,0,note_on,,95.0,52.0,95.0,200400,208.75
1319,0.0,,,,,,64.0,,,,,720,note_off,,80.0,64.0,80.0,201120,209.5
1320,0.0,,,,,,59.0,,,,,0,note_off,,80.0,59.0,80.0,201120,209.5
1321,0.0,,,,,,52.0,,,,,0,note_off,,80.0,52.0,80.0,201120,209.5
1322,1.0,,,,,,64.0,,,,,0,note_on,,95.0,64.0,95.0,3120,3.25
1323,1.0,,,,,,59.0,,,,,0,note_on,,95.0,59.0,95.0,3120,3.25
1324,1.0,,,,,,52.0,,,,,0,note_on,,95.0,52.0,95.0,3120,3.25
1325,1.0,,,,,,,,640.0,,,120,pitchwheel,,,,,3240,3.375
1326,1.0,,,,,,,,640.0,,,0,pitchwheel,,,,,3240,3.375
1327,1.0,,,,,,,,640.0,,,0,pitchwheel,,,,,3240,3.375
1328,1.0,,,,,,,,1408.0,,,60,pitchwheel,,,,,3300,3.4375
1329,1.0,,,,,,,,1408.0,,,0,pitchwheel,,,,,3300,3.4375
1330,1.0,,,,,,,,1408.0,,,0,pitchwheel,,,,,3300,3.4375
1331,1.0,,,,,,64.0,,,,,60,note_off,,80.0,64.0,80.0,3360,3.5
1332,1.0,,,,,,,,0.0,,,0,pitchwheel,,,,,3360,3.5
1333,1.0,,,,,,59.0,,,,,0,note_off,,80.0,59.0,80.0,3360,3.5
1334,1.0,,,,,,,,0.0,,,0,pitchwheel,,,,,3360,3.5
1335,1.0,,,,,,52.0,,,,,0,note_off,,80.0,52.0,80.0,3360,3.5
1336,1.0,,,,,,,,0.0,,,0,pitchwheel,,,,,3360,3.5
1337,0.0,,,,,,67.0,,,,,0,note_on,,86.0,67.0,86.0,201120,209.5
1338,0.0,,,,,,62.0,,,,,0,note_on,,86.0,62.0,86.0,201120,209.5
1339,0.0,,,,,,55.0,,,,,0,note_on,,86.0,55.0,86.0,201120,209.5
1340,0.0,,,,,,67.0,,,,,240,note_off,,80.0,67.0,80.0,201360,209.75
1341,0.0,,,,,,62.0,,,,,0,note_off,,80.0,62.0,80.0,201360,209.75
1342,0.0,,,,,,55.0,,,,,0,note_off,,80.0,55.0,80.0,201360,209.75
1343,0.0,,,,,,64.0,,,,,120,note_on,,95.0,64.0,95.0,201480,209.875
1344,0.0,,,,,,59.0,,,,,0,note_on,,95.0,59.0,95.0,201480,209.875
1345,0.0,,,,,,52.0,,,,,0,note_on,,95.0,52.0,95.0,201480,209.875
1346,0.0,,,,,,64.0,,,,,240,note_off,,80.0,64.0,80.0,201720,210.125
1347,0.0,,,,,,59.0,,,,,0,note_off,,80.0,59.0,80.0,201720,210.125
1348,0.0,,,,,,52.0,,,,,0,note_off,,80.0,52.0,80.0,201720,210.125
1349,0.0,,,,,,62.0,,,,,120,note_on,,95.0,62.0,95.0,201840,210.25
1350,0.0,,,,,,57.0,,,,,0,note_on,,95.0,57.0,95.0,201840,210.25
1351,0.0,,,,,,50.0,,,,,0,note_on,,95.0,50.0,95.0,201840,210.25
1352,0.0,,,,,,62.0,,,,,240,note_off,,80.0,62.0,80.0,202080,210.5
1353,0.0,,,,,,57.0,,,,,0,note_off,,80.0,57.0,80.0,202080,210.5
1354,0.0,,,,,,50.0,,,,,0,note_off,,80.0,50.0,80.0,202080,210.5
1355,0.0,,,,,,60.0,,,,,0,note_on,,95.0,60.0,95.0,202080,210.5
1356,0.0,,,,,,55.0,,,,,0,note_on,,95.0,55.0,95.0,202080,210.5
1357,0.0,,,,,,48.0,,,,,0,note_on,,95.0,48.0,95.0,202080,210.5
1358,0.0,,,,,,60.0,,,,,360,note_off,,80.0,60.0,80.0,202440,210.875
1359,0.0,,,,,,55.0,,,,,0,note_off,,80.0,55.0,80.0,202440,210.875
1360,0.0,,,,,,48.0,,,,,0,note_off,,80.0,48.0,80.0,202440,210.875
1361,0.0,,,,,,62.0,,,,,0,note_on,,95.0,62.0,95.0,202440,210.875
1362,0.0,,,,,,57.0,,,,,0,note_on,,95.0,57.0,95.0,202440,210.875
1363,0.0,,,,,,50.0,,,,,0,note_on,,95.0,50.0,95.0,202440,210.875
1364,0.0,,,,,,62.0,,,,,360,note_off,,80.0,62.0,80.0,202800,211.25
1365,0.0,,,,,,57.0,,,,,0,note_off,,80.0,57.0,80.0,202800,211.25
1366,0.0,,,,,,50.0,,,,,0,note_off,,80.0,50.0,80.0,202800,211.25
1367,0.0,,,,,,60.0,,,,,0,note_on,,95.0,60.0,95.0,202800,211.25
1368,0.0,,,,,,55.0,,,,,0,note_on,,95.0,55.0,95.0,202800,211.25
1369,0.0,,,,,,48.0,,,,,0,note_on,,95.0,48.0,95.0,202800,211.25
1370,0.0,,,,,,60.0,,,,,240,note_off,,80.0,60.0,80.0,203040,211.5
1371,0.0,,,,,,55.0,,,,,0,note_off,,80.0,55.0,80.0,203040,211.5
1372,0.0,,,,,,48.0,,,,,0,note_off,,80.0,48.0,80.0,203040,211.5
1373,0.0,,,,,,59.0,,,,,0,note_on,,95.0,59.0,95.0,203040,211.5
1374,0.0,,,,,,54.0,,,,,0,note_on,,95.0,54.0,95.0,203040,211.5
1375,0.0,,,,,,47.0,,,,,0,note_on,,95.0,47.0,95.0,203040,211.5
1376,0.0,,,,,,57.0,,,,,930,note_on,,95.0,57.0,95.0,203970,212.46875
1377,0.0,,,,,,52.0,,,,,0,note_on,,95.0,52.0,95.0,203970,212.46875
1378,0.0,,,,,,45.0,,,,,0,note_on,,95.0,45.0,95.0,203970,212.46875
1379,0.0,,,,,,57.0,,,,,29,note_off,,80.0,57.0,80.0,203999,212.49895833333332
1380,0.0,,,,,,52.0,,,,,0,note_off,,80.0,52.0,80.0,203999,212.49895833333332
1381,0.0,,,,,,45.0,,,,,0,note_off,,80.0,45.0,80.0,203999,212.49895833333332
1382,0.0,,,,,,59.0,,,,,1,note_off,,80.0,59.0,80.0,204000,212.5
1383,0.0,,,,,,54.0,,,,,0,note_off,,80.0,54.0,80.0,204000,212.5
1384,0.0,,,,,,47.0,,,,,0,note_off,,80.0,47.0,80.0,204000,212.5
1385,0.0,,,,,,64.0,,,,,0,note_on,,95.0,64.0,95.0,204000,212.5
1386,0.0,,,,,,59.0,,,,,0,note_on,,95.0,59.0,95.0,204000,212.5
1387,0.0,,,,,,52.0,,,,,0,note_on,,95.0,52.0,95.0,204000,212.5
1388,0.0,,,,,,64.0,,,,,720,note_off,,80.0,64.0,80.0,204720,213.25
1389,0.0,,,,,,59.0,,,,,0,note_off,,80.0,59.0,80.0,204720,213.25
1390,0.0,,,,,,52.0,,,,,0,note_off,,80.0,52.0,80.0,204720,213.25
1391,1.0,,,,,,64.0,,,,,0,note_on,,95.0,64.0,95.0,3360,3.5
1392,1.0,,,,,,59.0,,,,,0,note_on,,95.0,59.0,95.0,3360,3.5
1393,1.0,,,,,,52.0,,,,,0,note_on,,95.0,52.0,95.0,3360,3.5
1394,1.0,,,,,,,,640.0,,,120,pitchwheel,,,,,3480,3.625
1395,1.0,,,,,,,,640.0,,,0,pitchwheel,,,,,3480,3.625
1396,1.0,,,,,,,,640.0,,,0,pitchwheel,,,,,3480,3.625
1397,1.0,,,,,,,,1408.0,,,60,pitchwheel,,,,,3540,3.6875
1398,1.0,,,,,,,,1408.0,,,0,pitchwheel,,,,,3540,3.6875
1399,1.0,,,,,,,,1408.0,,,0,pitchwheel,,,,,3540,3.6875
1400,1.0,,,,,,64.0,,,,,60,note_off,,80.0,64.0,80.0,3600,3.75
1401,1.0,,,,,,,,0.0,,,0,pitchwheel,,,,,3600,3.75
1402,1.0,,,,,,59.0,,,,,0,note_off,,80.0,59.0,80.0,3600,3.75
1403,1.0,,,,,,,,0.0,,,0,pitchwheel,,,,,3600,3.75
1404,1.0,,,,,,52.0,,,,,0,note_off,,80.0,52.0,80.0,3600,3.75
1405,1.0,,,,,,,,0.0,,,0,pitchwheel,,,,,3600,3.75
1406,0.0,,,,,,67.0,,,,,0,note_on,,86.0,67.0,86.0,204720,213.25
1407,0.0,,,,,,62.0,,,,,0,note_on,,86.0,62.0,86.0,204720,213.25
1408,0.0,,,,,,55.0,,,,,0,note_on,,86.0,55.0,86.0,204720,213.25
1409,0.0,,,,,,67.0,,,,,240,note_off,,80.0,67.0,80.0,204960,213.5
1410,0.0,,,,,,62.0,,,,,0,note_off,,80.0,62.0,80.0,204960,213.5
1411,0.0,,,,,,55.0,,,,,0,note_off,,80.0,55.0,80.0,204960,213.5
1412,0.0,,,,,,64.0,,,,,120,note_on,,95.0,64.0,95.0,205080,213.625
1413,0.0,,,,,,59.0,,,,,0,note_on,,95.0,59.0,95.0,205080,213.625
1414,0.0,,,,,,52.0,,,,,0,note_on,,95.0,52.0,95.0,205080,213.625
1415,0.0,,,,,,64.0,,,,,240,note_off,,80.0,64.0,80.0,205320,213.875
1416,0.0,,,,,,59.0,,,,,0,note_off,,80.0,59.0,80.0,205320,213.875
1417,0.0,,,,,,52.0,,,,,0,note_off,,80.0,52.0,80.0,205320,213.875
1418,0.0,,,,,,62.0,,,,,120,note_on,,95.0,62.0,95.0,205440,214.0
1419,0.0,,,,,,57.0,,,,,0,note_on,,95.0,57.0,95.0,205440,214.0
1420,0.0,,,,,,50.0,,,,,0,note_on,,95.0,50.0,95.0,205440,214.0
1421,0.0,,,,,,62.0,,,,,240,note_off,,80.0,62.0,80.0,205680,214.25
1422,0.0,,,,,,57.0,,,,,0,note_off,,80.0,57.0,80.0,205680,214.25
1423,0.0,,,,,,50.0,,,,,0,note_off,,80.0,50.0,80.0,205680,214.25
1424,0.0,,,,,,60.0,,,,,0,note_on,,95.0,60.0,95.0,205680,214.25
1425,0.0,,,,,,55.0,,,,,0,note_on,,95.0,55.0,95.0,205680,214.25
1426,0.0,,,,,,48.0,,,,,0,note_on,,95.0,48.0,95.0,205680,214.25
1427,0.0,,,,,,60.0,,,,,960,note_off,,80.0,60.0,80.0,206640,215.25
1428,0.0,,,,,,55.0,,,,,0,note_off,,80.0,55.0,80.0,206640,215.25
1429,0.0,,,,,,48.0,,,,,0,note_off,,80.0,48.0,80.0,206640,215.25
1430,0.0,,,,,,59.0,,,,,0,note_on,,95.0,59.0,95.0,206640,215.25
1431,0.0,,,,,,54.0,,,,,0,note_on,,95.0,54.0,95.0,206640,215.25
1432,0.0,,,,,,47.0,,,,,0,note_on,,95.0,47.0,95.0,206640,215.25
1433,0.0,,,,,,57.0,,,,,930,note_on,,95.0,57.0,95.0,207570,216.21875
1434,0.0,,,,,,52.0,,,,,0,note_on,,95.0,52.0,95.0,207570,216.21875
1435,0.0,,,,,,45.0,,,,,0,note_on,,95.0,45.0,95.0,207570,216.21875
1436,0.0,,,,,,57.0,,,,,29,note_off,,80.0,57.0,80.0,207599,216.24895833333332
1437,0.0,,,,,,52.0,,,,,0,note_off,,80.0,52.0,80.0,207599,216.24895833333332
1438,0.0,,,,,,45.0,,,,,0,note_off,,80.0,45.0,80.0,207599,216.24895833333332
1439,0.0,,,,,,59.0,,,,,1,note_off,,80.0,59.0,80.0,207600,216.25
1440,0.0,,,,,,54.0,,,,,0,note_off,,80.0,54.0,80.0,207600,216.25
1441,0.0,,,,,,47.0,,,,,0,note_off,,80.0,47.0,80.0,207600,216.25
1442,0.0,,,,,,64.0,,,,,0,note_on,,95.0,64.0,95.0,207600,216.25
1443,0.0,,,,,,59.0,,,,,0,note_on,,95.0,59.0,95.0,207600,216.25
1444,0.0,,,,,,52.0,,,,,0,note_on,,95.0,52.0,95.0,207600,216.25
1445,0.0,,,,,,64.0,,,,,720,note_off,,80.0,64.0,80.0,208320,217.0
1446,0.0,,,,,,59.0,,,,,0,note_off,,80.0,59.0,80.0,208320,217.0
1447,0.0,,,,,,52.0,,,,,0,note_off,,80.0,52.0,80.0,208320,217.0
1448,1.0,,,,,,64.0,,,,,0,note_on,,95.0,64.0,95.0,3600,3.75
1449,1.0,,,,,,59.0,,,,,0,note_on,,95.0,59.0,95.0,3600,3.75
1450,1.0,,,,,,52.0,,,,,0,note_on,,95.0,52.0,95.0,3600,3.75
1451,1.0,,,,,,,,640.0,,,120,pitchwheel,,,,,3720,3.875
1452,1.0,,,,,,,,640.0,,,0,pitchwheel,,,,,3720,3.875
1453,1.0,,,,,,,,640.0,,,0,pitchwheel,,,,,3720,3.875
1454,1.0,,,,,,,,1408.0,,,60,pitchwheel,,,,,3780,3.9375
1455,1.0,,,,,,,,1408.0,,,0,pitchwheel,,,,,3780,3.9375
1456,1.0,,,,,,,,1408.0,,,0,pitchwheel,,,,,3780,3.9375
1457,1.0,,,,,,64.0,,,,,60,note_off,,80.0,64.0,80.0,3840,4.0
1458,1.0,,,,,,,,0.0,,,0,pitchwheel,,,,,3840,4.0
1459,1.0,,,,,,59.0,,,,,0,note_off,,80.0,59.0,80.0,3840,4.0
1460,1.0,,,,,,,,0.0,,,0,pitchwheel,,,,,3840,4.0
1461,1.0,,,,,,52.0,,,,,0,note_off,,80.0,52.0,80.0,3840,4.0
1462,1.0,,,,,,,,0.0,,,0,pitchwheel,,,,,3840,4.0
1463,0.0,,,,,,67.0,,,,,0,note_on,,86.0,67.0,86.0,208320,217.0
1464,0.0,,,,,,62.0,,,,,0,note_on,,86.0,62.0,86.0,208320,217.0
1465,0.0,,,,,,55.0,,,,,0,note_on,,86.0,55.0,86.0,208320,217.0
1466,0.0,,,,,,67.0,,,,,240,note_off,,80.0,67.0,80.0,208560,217.25
1467,0.0,,,,,,62.0,,,,,0,note_off,,80.0,62.0,80.0,208560,217.25
1468,0.0,,,,,,55.0,,,,,0,note_off,,80.0,55.0,80.0,208560,217.25
1469,0.0,,,,,,64.0,,,,,120,note_on,,95.0,64.0,95.0,208680,217.375
1470,0.0,,,,,,59.0,,,,,0,note_on,,95.0,59.0,95.0,208680,217.375
1471,0.0,,,,,,52.0,,,,,0,note_on,,95.0,52.0,95.0,208680,217.375
1472,0.0,,,,,,64.0,,,,,240,note_off,,80.0,64.0,80.0,208920,217.625
1473,0.0,,,,,,59.0,,,,,0,note_off,,80.0,59.0,80.0,208920,217.625
1474,0.0,,,,,,52.0,,,,,0,note_off,,80.0,52.0,80.0,208920,217.625
1475,0.0,,,,,,62.0,,,,,120,note_on,,95.0,62.0,95.0,209040,217.75
1476,0.0,,,,,,57.0,,,,,0,note_on,,95.0,57.0,95.0,209040,217.75
1477,0.0,,,,,,50.0,,,,,0,note_on,,95.0,50.0,95.0,209040,217.75
1478,0.0,,,,,,62.0,,,,,240,note_off,,80.0,62.0,80.0,209280,218.0
1479,0.0,,,,,,57.0,,,,,0,note_off,,80.0,57.0,80.0,209280,218.0
1480,0.0,,,,,,50.0,,,,,0,note_off,,80.0,50.0,80.0,209280,218.0
1481,0.0,,,,,,60.0,,,,,0,note_on,,95.0,60.0,95.0,209280,218.0
1482,0.0,,,,,,55.0,,,,,0,note_on,,95.0,55.0,95.0,209280,218.0
1483,0.0,,,,,,48.0,,,,,0,note_on,,95.0,48.0,95.0,209280,218.0
1484,0.0,,,,,,60.0,,,,,360,note_off,,80.0,60.0,80.0,209640,218.375
1485,0.0,,,,,,55.0,,,,,0,note_off,,80.0,55.0,80.0,209640,218.375
1486,0.0,,,,,,48.0,,,,,0,note_off,,80.0,48.0,80.0,209640,218.375
1487,0.0,,,,,,62.0,,,,,0,note_on,,95.0,62.0,95.0,209640,218.375
1488,0.0,,,,,,57.0,,,,,0,note_on,,95.0,57.0,95.0,209640,218.375
1489,0.0,,,,,,50.0,,,,,0,note_on,,95.0,50.0,95.0,209640,218.375
1490,0.0,,,,,,62.0,,,,,360,note_off,,80.0,62.0,80.0,210000,218.75
1491,0.0,,,,,,57.0,,,,,0,note_off,,80.0,57.0,80.0,210000,218.75
1492,0.0,,,,,,50.0,,,,,0,note_off,,80.0,50.0,80.0,210000,218.75
1493,0.0,,,,,,60.0,,,,,0,note_on,,95.0,60.0,95.0,210000,218.75
1494,0.0,,,,,,55.0,,,,,0,note_on,,95.0,55.0,95.0,210000,218.75
1495,0.0,,,,,,48.0,,,,,0,note_on,,95.0,48.0,95.0,210000,218.75
1496,0.0,,,,,,60.0,,,,,240,note_off,,80.0,60.0,80.0,210240,219.0
1497,0.0,,,,,,55.0,,,,,0,note_off,,80.0,55.0,80.0,210240,219.0
1498,0.0,,,,,,48.0,,,,,0,note_off,,80.0,48.0,80.0,210240,219.0
1499,0.0,,,,,,59.0,,,,,0,note_on,,95.0,59.0,95.0,210240,219.0
1500,0.0,,,,,,54.0,,,,,0,note_on,,95.0,54.0,95.0,210240,219.0
1501,0.0,,,,,,47.0,,,,,0,note_on,,95.0,47.0,95.0,210240,219.0
1502,0.0,,,,,,59.0,,,,,960,note_off,,80.0,59.0,80.0,211200,220.0
1503,0.0,,,,,,54.0,,,,,0,note_off,,80.0,54.0,80.0,211200,220.0
1504,0.0,,,,,,47.0,,,,,0,note_off,,80.0,47.0,80.0,211200,220.0
1505,0.0,,,,,,68.0,,,,,0,note_on,,95.0,68.0,95.0,211200,220.0
1506,0.0,,,,,,64.0,,,,,0,note_on,,95.0,64.0,95.0,211200,220.0
1507,0.0,,,,,,59.0,,,,,0,note_on,,95.0,59.0,95.0,211200,220.0
1508,0.0,,,,,,52.0,,,,,0,note_on,,95.0,52.0,95.0,211200,220.0
1509,0.0,,,,,,68.0,,,,,1920,note_off,,80.0,68.0,80.0,213120,222.0
1510,0.0,,,,,,64.0,,,,,0,note_off,,80.0,64.0,80.0,213120,222.0
1511,0.0,,,,,,59.0,,,,,0,note_off,,80.0,59.0,80.0,213120,222.0
1512,0.0,,,,,,52.0,,,,,0,note_off,,80.0,52.0,80.0,213120,222.0
1513,,,,,,,,,,,,0,end_of_track,,,,,11644,12.129166666666666
1514,,,,,Solo Guitar ( Jack White)Standard Tuning,,,,,,,0,track_name,,,,,11647,12.132291666666667
1515,2.0,,100.0,,,,,,,,,0,control_change,0.0,,,,0,0.0
1516,2.0,,101.0,,,,,,,,,0,control_change,0.0,,,,0,0.0
1517,2.0,,6.0,,,,,,,,,0,control_change,12.0,,,,0,0.0
1518,2.0,,,,,,,,0.0,,,0,pitchwheel,,,,,0,0.0
1519,3.0,,100.0,,,,,,,,,0,control_change,0.0,,,,0,0.0
1520,3.0,,101.0,,,,,,,,,0,control_change,0.0,,,,0,0.0
1521,3.0,,6.0,,,,,,,,,0,control_change,12.0,,,,0,0.0
1522,3.0,,,,,,,,0.0,,,0,pitchwheel,,,,,0,0.0
1523,2.0,,,,,,,,,30.0,,0,program_change,,,,,0,0.0
1524,3.0,,,,,,,,,30.0,,0,program_change,,,,,0,0.0
1525,2.0,,7.0,,,,,,,,,0,control_change,127.0,,,,0,0.0
1526,3.0,,7.0,,,,,,,,,0,control_change,127.0,,,,0,0.0
1527,2.0,,10.0,,,,,,,,,0,control_change,64.0,,,,0,0.0
1528,3.0,,10.0,,,,,,,,,0,control_change,64.0,,,,0,0.0
1529,2.0,,93.0,,,,,,,,,0,control_change,0.0,,,,0,0.0
1530,3.0,,93.0,,,,,,,,,0,control_change,0.0,,,,0,0.0
1531,2.0,,91.0,,,,,,,,,0,control_change,0.0,,,,0,0.0
1532,3.0,,91.0,,,,,,,,,0,control_change,0.0,,,,0,0.0
1533,2.0,,92.0,,,,,,,,,0,control_change,0.0,,,,0,0.0
1534,3.0,,92.0,,,,,,,,,0,control_change,0.0,,,,0,0.0
1535,2.0,,95.0,,,,,,,,,0,control_change,0.0,,,,0,0.0
1536,3.0,,95.0,,,,,,,,,0,control_change,0.0,,,,0,0.0
1537,3.0,,,,,,64.0,,,,,119040,note_on,,95.0,64.0,95.0,119040,124.0
1538,3.0,,,,,,,,0.0,,,80,pitchwheel,,,,,119120,124.08333333333333
1539,3.0,,,,,,,,256.0,,,80,pitchwheel,,,,,119200,124.16666666666667
1540,3.0,,,,,,,,0.0,,,80,pitchwheel,,,,,119280,124.25
1541,3.0,,,,,,,,256.0,,,80,pitchwheel,,,,,119360,124.33333333333333
1542,3.0,,,,,,,,0.0,,,80,pitchwheel,,,,,119440,124.41666666666667
1543,3.0,,,,,,,,256.0,,,80,pitchwheel,,,,,119520,124.5
1544,3.0,,,,,,,,0.0,,,80,pitchwheel,,,,,119600,124.58333333333333
1545,3.0,,,,,,,,256.0,,,80,pitchwheel,,,,,119680,124.66666666666667
1546,3.0,,,,,,64.0,,,,,80,note_off,,80.0,64.0,80.0,119760,124.75
1547,3.0,,,,,,,,0.0,,,0,pitchwheel,,,,,119760,124.75
1548,3.0,,,,,,,,0.0,,,0,pitchwheel,,,,,119760,124.75
1549,3.0,,,,,,64.0,,,,,0,note_on,,95.0,64.0,95.0,119760,124.75
1550,3.0,,,,,,,,0.0,,,80,pitchwheel,,,,,119840,124.83333333333333
1551,3.0,,,,,,,,256.0,,,80,pitchwheel,,,,,119920,124.91666666666667
1552,3.0,,,,,,64.0,,,,,80,note_off,,80.0,64.0,80.0,120000,125.0
1553,3.0,,,,,,,,0.0,,,0,pitchwheel,,,,,120000,125.0
1554,3.0,,,,,,,,0.0,,,0,pitchwheel,,,,,120000,125.0
1555,3.0,,,,,,64.0,,,,,0,note_on,,95.0,64.0,95.0,120000,125.0
1556,3.0,,,,,,,,0.0,,,80,pitchwheel,,,,,120080,125.08333333333333
1557,3.0,,,,,,,,256.0,,,80,pitchwheel,,,,,120160,125.16666666666667
1558,3.0,,,,,,,,0.0,,,80,pitchwheel,,,,,120240,125.25
1559,3.0,,,,,,,,256.0,,,80,pitchwheel,,,,,120320,125.33333333333333
1560,3.0,,,,,,64.0,,,,,40,note_off,,80.0,64.0,80.0,120360,125.375
1561,3.0,,,,,,,,0.0,,,0,pitchwheel,,,,,120360,125.375
1562,3.0,,,,,,64.0,,,,,0,note_on,,95.0,64.0,95.0,120360,125.375
1563,3.0,,,,,,,,0.0,,,80,pitchwheel,,,,,120440,125.45833333333333
1564,3.0,,,,,,,,256.0,,,80,pitchwheel,,,,,120520,125.54166666666667
1565,3.0,,,,,,,,0.0,,,80,pitchwheel,,,,,120600,125.625
1566,3.0,,,,,,,,256.0,,,80,pitchwheel,,,,,120680,125.70833333333333
1567,3.0,,,,,,64.0,,,,,40,note_off,,80.0,64.0,80.0,120720,125.75
1568,3.0,,,,,,,,0.0,,,0,pitchwheel,,,,,120720,125.75
1569,3.0,,,,,,64.0,,,,,0,note_on,,95.0,64.0,95.0,120720,125.75
1570,3.0,,,,,,,,0.0,,,80,pitchwheel,,,,,120800,125.83333333333333
1571,3.0,,,,,,,,640.0,,,40,pitchwheel,,,,,120840,125.875
1572,3.0,,,,,,,,256.0,,,40,pitchwheel,,,,,120880,125.91666666666667
1573,3.0,,,,,,,,1408.0,,,20,pitchwheel,,,,,120900,125.9375
1574,3.0,,,,,,64.0,,,,,60,note_off,,80.0,64.0,80.0,120960,126.0
1575,3.0,,,,,,,,0.0,,,0,pitchwheel,,,,,120960,126.0
1576,3.0,,,,,,,,0.0,,,0,pitchwheel,,,,,120960,126.0
1577,3.0,,,,,,,,0.0,,,0,pitchwheel,,,,,120960,126.0
1578,3.0,,,,,,67.0,,,,,0,note_on,,86.0,67.0,86.0,120960,126.0
1579,3.0,,,,,,,,0.0,,,0,pitchwheel,,,,,120960,126.0
1580,3.0,,,,,,,,128.0,,,96,pitchwheel,,,,,121056,126.1
1581,3.0,,,,,,,,256.0,,,192,pitchwheel,,,,,121248,126.3
1582,3.0,,,,,,,,384.0,,,176,pitchwheel,,,,,121424,126.48333333333333
1583,3.0,,,,,,,,512.0,,,16,pitchwheel,,,,,121440,126.5
1584,3.0,,,,,,,,384.0,,,32,pitchwheel,,,,,121472,126.53333333333333
1585,3.0,,,,,,,,256.0,,,32,pitchwheel,,,,,121504,126.56666666666666
1586,3.0,,,,,,,,384.0,,,32,pitchwheel,,,,,121536,126.6
1587,3.0,,,,,,,,512.0,,,32,pitchwheel,,,,,121568,126.63333333333333
1588,3.0,,,,,,,,384.0,,,32,pitchwheel,,,,,121600,126.66666666666667
1589,3.0,,,,,,,,256.0,,,32,pitchwheel,,,,,121632,126.7
1590,3.0,,,,,,,,384.0,,,32,pitchwheel,,,,,121664,126.73333333333333
1591,3.0,,,,,,,,512.0,,,32,pitchwheel,,,,,121696,126.76666666666667
1592,3.0,,,,,,,,384.0,,,32,pitchwheel,,,,,121728,126.8
1593,3.0,,,,,,,,256.0,,,32,pitchwheel,,,,,121760,126.83333333333333
1594,3.0,,,,,,,,384.0,,,32,pitchwheel,,,,,121792,126.86666666666666
1595,3.0,,,,,,,,512.0,,,32,pitchwheel,,,,,121824,126.89999999999999
1596,3.0,,,,,,,,384.0,,,32,pitchwheel,,,,,121856,126.93333333333334
1597,3.0,,,,,,,,256.0,,,32,pitchwheel,,,,,121888,126.96666666666667
1598,3.0,,,,,,67.0,,,,,32,note_off,,80.0,67.0,80.0,121920,127.0
1599,3.0,,,,,,,,384.0,,,0,pitchwheel,,,,,121920,127.0
1600,3.0,,,,,,,,0.0,,,0,pitchwheel,,,,,121920,127.0
1601,3.0,,,,,,66.0,,,,,0,note_on,,95.0,66.0,95.0,121920,127.0
1602,3.0,,,,,,,,0.0,,,80,pitchwheel,,,,,122000,127.08333333333333
1603,3.0,,,,,,,,256.0,,,80,pitchwheel,,,,,122080,127.16666666666667
1604,3.0,,,,,,,,0.0,,,80,pitchwheel,,,,,122160,127.25
1605,3.0,,,,,,,,256.0,,,80,pitchwheel,,,,,122240,127.33333333333333
1606,3.0,,,,,,,,0.0,,,80,pitchwheel,,,,,122320,127.41666666666667
1607,3.0,,,,,,,,256.0,,,80,pitchwheel,,,,,122400,127.5
1608,3.0,,,,,,,,0.0,,,80,pitchwheel,,,,,122480,127.58333333333333
1609,3.0,,,,,,,,256.0,,,80,pitchwheel,,,,,122560,127.66666666666667
1610,3.0,,,,,,,,0.0,,,80,pitchwheel,,,,,122640,127.75
1611,3.0,,,,,,,,256.0,,,80,pitchwheel,,,,,122720,127.83333333333333
1612,3.0,,,,,,,,0.0,,,80,pitchwheel,,,,,122800,127.91666666666667
1613,3.0,,,,,,66.0,,,,,80,note_off,,80.0,66.0,80.0,122880,128.0
1614,3.0,,,,,,,,256.0,,,0,pitchwheel,,,,,122880,128.0
1615,3.0,,,,,,,,0.0,,,0,pitchwheel,,,,,122880,128.0
1616,3.0,,,,,,64.0,,,,,0,note_on,,95.0,64.0,95.0,122880,128.0
1617,3.0,,,,,,,,0.0,,,80,pitchwheel,,,,,122960,128.08333333333334
1618,3.0,,,,,,,,256.0,,,80,pitchwheel,,,,,123040,128.16666666666666
1619,3.0,,,,,,,,0.0,,,80,pitchwheel,,,,,123120,128.25
1620,3.0,,,,,,,,256.0,,,80,pitchwheel,,,,,123200,128.33333333333334
1621,3.0,,,,,,,,0.0,,,80,pitchwheel,,,,,123280,128.41666666666666
1622,3.0,,,,,,,,256.0,,,80,pitchwheel,,,,,123360,128.5
1623,3.0,,,,,,,,0.0,,,80,pitchwheel,,,,,123440,128.58333333333334
1624,3.0,,,,,,,,256.0,,,80,pitchwheel,,,,,123520,128.66666666666666
1625,3.0,,,,,,64.0,,,,,80,note_off,,80.0,64.0,80.0,123600,128.75
1626,3.0,,,,,,,,0.0,,,0,pitchwheel,,,,,123600,128.75
1627,3.0,,,,,,,,0.0,,,0,pitchwheel,,,,,123600,128.75
1628,3.0,,,,,,64.0,,,,,0,note_on,,95.0,64.0,95.0,123600,128.75
1629,3.0,,,,,,,,0.0,,,80,pitchwheel,,,,,123680,128.83333333333334
1630,3.0,,,,,,,,256.0,,,80,pitchwheel,,,,,123760,128.91666666666666
1631,3.0,,,,,,64.0,,,,,80,note_off,,80.0,64.0,80.0,123840,129.0
1632,3.0,,,,,,,,0.0,,,0,pitchwheel,,,,,123840,129.0
1633,3.0,,,,,,,,0.0,,,0,pitchwheel,,,,,123840,129.0
1634,3.0,,,,,,67.0,,,,,0,note_on,,95.0,67.0,95.0,123840,129.0
1635,3.0,,,,,,,,0.0,,,80,pitchwheel,,,,,123920,129.08333333333334
1636,3.0,,,,,,,,256.0,,,80,pitchwheel,,,,,124000,129.16666666666666
1637,3.0,,,,,,,,0.0,,,80,pitchwheel,,,,,124080,129.25
1638,3.0,,,,,,,,256.0,,,80,pitchwheel,,,,,124160,129.33333333333334
1639,3.0,,,,,,67.0,,,,,40,note_off,,80.0,67.0,80.0,124200,129.375
1640,3.0,,,,,,,,0.0,,,0,pitchwheel,,,,,124200,129.375
1641,3.0,,,,,,69.0,,,,,0,note_on,,95.0,69.0,95.0,124200,129.375
1642,3.0,,,,,,,,0.0,,,80,pitchwheel,,,,,124280,129.45833333333334
1643,3.0,,,,,,,,256.0,,,80,pitchwheel,,,,,124360,129.54166666666666
1644,3.0,,,,,,,,0.0,,,80,pitchwheel,,,,,124440,129.625
1645,3.0,,,,,,,,256.0,,,80,pitchwheel,,,,,124520,129.70833333333334
1646,3.0,,,,,,69.0,,,,,40,note_off,,80.0,69.0,80.0,124560,129.75
1647,3.0,,,,,,,,0.0,,,0,pitchwheel,,,,,124560,129.75
1648,3.0,,,,,,67.0,,,,,0,note_on,,95.0,67.0,95.0,124560,129.75
1649,3.0,,,,,,,,0.0,,,80,pitchwheel,,,,,124640,129.83333333333334
1650,3.0,,,,,,,,256.0,,,80,pitchwheel,,,,,124720,129.91666666666666
1651,3.0,,,,,,67.0,,,,,80,note_off,,80.0,67.0,80.0,124800,130.0
1652,3.0,,,,,,,,0.0,,,0,pitchwheel,,,,,124800,130.0
1653,3.0,,,,,,,,0.0,,,0,pitchwheel,,,,,124800,130.0
1654,3.0,,,,,,67.0,,,,,0,note_on,,95.0,67.0,95.0,124800,130.0
1655,3.0,,,,,,,,0.0,,,80,pitchwheel,,,,,124880,130.08333333333334
1656,3.0,,,,,,67.0,,,,,40,note_off,,80.0,67.0,80.0,124920,130.125
1657,3.0,,,,,,,,0.0,,,0,pitchwheel,,,,,124920,130.125
1658,3.0,,,,,,67.0,,,,,120,note_on,,95.0,67.0,95.0,125040,130.25
1659,3.0,,,,,,,,640.0,,,60,pitchwheel,,,,,125100,130.3125
1660,3.0,,,,,,,,0.0,,,20,pitchwheel,,,,,125120,130.33333333333334
1661,3.0,,,,,,67.0,,,,,40,note_off,,80.0,67.0,80.0,125160,130.375
1662,3.0,,,,,,,,0.0,,,0,pitchwheel,,,,,125160,130.375
1663,3.0,,,,,,,,0.0,,,0,pitchwheel,,,,,125160,130.375
1664,3.0,,,,,,69.0,,,,,0,note_on,,86.0,69.0,86.0,125160,130.375
1665,3.0,,,,,,,,0.0,,,80,pitchwheel,,,,,125240,130.45833333333334
1666,3.0,,,,,,,,256.0,,,80,pitchwheel,,,,,125320,130.54166666666666
1667,3.0,,,,,,69.0,,,,,80,note_off,,80.0,69.0,80.0,125400,130.625
1668,3.0,,,,,,,,0.0,,,0,pitchwheel,,,,,125400,130.625
1669,3.0,,,,,,,,0.0,,,0,pitchwheel,,,,,125400,130.625
1670,3.0,,,,,,67.0,,,,,120,note_on,,95.0,67.0,95.0,125520,130.75
1671,3.0,,,,,,,,0.0,,,80,pitchwheel,,,,,125600,130.83333333333334
1672,3.0,,,,,,67.0,,,,,40,note_off,,80.0,67.0,80.0,125640,130.875
1673,3.0,,,,,,,,0.0,,,0,pitchwheel,,,,,125640,130.875
1674,3.0,,,,,,66.0,,,,,120,note_on,,95.0,66.0,95.0,125760,131.0
1675,3.0,,,,,,,,0.0,,,80,pitchwheel,,,,,125840,131.08333333333334
1676,3.0,,,,,,,,256.0,,,80,pitchwheel,,,,,125920,131.16666666666666
1677,3.0,,,,,,,,0.0,,,80,pitchwheel,,,,,126000,131.25
1678,3.0,,,,,,,,256.0,,,80,pitchwheel,,,,,126080,131.33333333333334
1679,3.0,,,,,,,,0.0,,,80,pitchwheel,,,,,126160,131.41666666666666
1680,3.0,,,,,,,,256.0,,,80,pitchwheel,,,,,126240,131.5
1681,3.0,,,,,,,,0.0,,,80,pitchwheel,,,,,126320,131.58333333333334
1682,3.0,,,,,,,,256.0,,,80,pitchwheel,,,,,126400,131.66666666666666
1683,3.0,,,,,,,,0.0,,,80,pitchwheel,,,,,126480,131.75
1684,3.0,,,,,,,,256.0,,,80,pitchwheel,,,,,126560,131.83333333333334
1685,3.0,,,,,,,,0.0,,,80,pitchwheel,,,,,126640,131.91666666666666
1686,3.0,,,,,,66.0,,,,,80,note_off,,80.0,66.0,80.0,126720,132.0
1687,3.0,,,,,,,,256.0,,,0,pitchwheel,,,,,126720,132.0
1688,3.0,,,,,,,,0.0,,,0,pitchwheel,,,,,126720,132.0
1689,3.0,,,,,,64.0,,,,,0,note_on,,95.0,64.0,95.0,126720,132.0
1690,3.0,,,,,,,,0.0,,,80,pitchwheel,,,,,126800,132.08333333333334
1691,3.0,,,,,,,,256.0,,,80,pitchwheel,,,,,126880,132.16666666666666
1692,3.0,,,,,,,,0.0,,,80,pitchwheel,,,,,126960,132.25
1693,3.0,,,,,,,,256.0,,,80,pitchwheel,,,,,127040,132.33333333333334
1694,3.0,,,,,,,,0.0,,,80,pitchwheel,,,,,127120,132.41666666666666
1695,3.0,,,,,,,,256.0,,,80,pitchwheel,,,,,127200,132.5
1696,3.0,,,,,,,,0.0,,,80,pitchwheel,,,,,127280,132.58333333333334
1697,3.0,,,,,,,,256.0,,,80,pitchwheel,,,,,127360,132.66666666666666
1698,3.0,,,,,,64.0,,,,,80,note_off,,80.0,64.0,80.0,127440,132.75
1699,3.0,,,,,,,,0.0,,,0,pitchwheel,,,,,127440,132.75
1700,3.0,,,,,,,,0.0,,,0,pitchwheel,,,,,127440,132.75
1701,3.0,,,,,,64.0,,,,,0,note_on,,95.0,64.0,95.0,127440,132.75
1702,3.0,,,,,,,,0.0,,,80,pitchwheel,,,,,127520,132.83333333333334
1703,3.0,,,,,,,,256.0,,,80,pitchwheel,,,,,127600,132.91666666666666
1704,3.0,,,,,,64.0,,,,,80,note_off,,80.0,64.0,80.0,127680,133.0
1705,3.0,,,,,,,,0.0,,,0,pitchwheel,,,,,127680,133.0
1706,3.0,,,,,,,,0.0,,,0,pitchwheel,,,,,127680,133.0
1707,3.0,,,,,,64.0,,,,,0,note_on,,95.0,64.0,95.0,127680,133.0
1708,3.0,,,,,,,,0.0,,,80,pitchwheel,,,,,127760,133.08333333333334
1709,3.0,,,,,,,,256.0,,,80,pitchwheel,,,,,127840,133.16666666666666
1710,3.0,,,,,,,,0.0,,,80,pitchwheel,,,,,127920,133.25
1711,3.0,,,,,,,,256.0,,,80,pitchwheel,,,,,128000,133.33333333333334
1712,3.0,,,,,,64.0,,,,,40,note_off,,80.0,64.0,80.0,128040,133.375
1713,3.0,,,,,,,,0.0,,,0,pitchwheel,,,,,128040,133.375
1714,3.0,,,,,,64.0,,,,,0,note_on,,95.0,64.0,95.0,128040,133.375
1715,3.0,,,,,,,,0.0,,,80,pitchwheel,,,,,128120,133.45833333333334
1716,3.0,,,,,,,,256.0,,,80,pitchwheel,,,,,128200,133.54166666666666
1717,3.0,,,,,,,,0.0,,,80,pitchwheel,,,,,128280,133.625
1718,3.0,,,,,,,,256.0,,,80,pitchwheel,,,,,128360,133.70833333333334
1719,3.0,,,,,,64.0,,,,,40,note_off,,80.0,64.0,80.0,128400,133.75
1720,3.0,,,,,,,,0.0,,,0,pitchwheel,,,,,128400,133.75
1721,3.0,,,,,,64.0,,,,,0,note_on,,95.0,64.0,95.0,128400,133.75
1722,3.0,,,,,,,,0.0,,,80,pitchwheel,,,,,128480,133.83333333333334
1723,3.0,,,,,,,,640.0,,,40,pitchwheel,,,,,128520,133.875
1724,3.0,,,,,,,,256.0,,,40,pitchwheel,,,,,128560,133.91666666666666
1725,3.0,,,,,,,,1408.0,,,20,pitchwheel,,,,,128580,133.9375
1726,3.0,,,,,,64.0,,,,,60,note_off,,80.0,64.0,80.0,128640,134.0
1727,3.0,,,,,,,,0.0,,,0,pitchwheel,,,,,128640,134.0
1728,3.0,,,,,,,,0.0,,,0,pitchwheel,,,,,128640,134.0
1729,3.0,,,,,,,,0.0,,,0,pitchwheel,,,,,128640,134.0
1730,3.0,,,,,,67.0,,,,,0,note_on,,86.0,67.0,86.0,128640,134.0
1731,3.0,,,,,,,,0.0,,,0,pitchwheel,,,,,128640,134.0
1732,3.0,,,,,,,,128.0,,,96,pitchwheel,,,,,128736,134.1
1733,3.0,,,,,,,,256.0,,,192,pitchwheel,,,,,128928,134.3
1734,3.0,,,,,,,,384.0,,,176,pitchwheel,,,,,129104,134.48333333333332
1735,3.0,,,,,,,,512.0,,,16,pitchwheel,,,,,129120,134.5
1736,3.0,,,,,,,,384.0,,,32,pitchwheel,,,,,129152,134.53333333333333
1737,3.0,,,,,,,,256.0,,,32,pitchwheel,,,,,129184,134.56666666666666
1738,3.0,,,,,,,,384.0,,,32,pitchwheel,,,,,129216,134.6
1739,3.0,,,,,,,,512.0,,,32,pitchwheel,,,,,129248,134.63333333333333
1740,3.0,,,,,,,,384.0,,,32,pitchwheel,,,,,129280,134.66666666666666
1741,3.0,,,,,,,,256.0,,,32,pitchwheel,,,,,129312,134.7
1742,3.0,,,,,,,,384.0,,,32,pitchwheel,,,,,129344,134.73333333333332
1743,3.0,,,,,,,,512.0,,,32,pitchwheel,,,,,129376,134.76666666666665
1744,3.0,,,,,,,,384.0,,,32,pitchwheel,,,,,129408,134.8
1745,3.0,,,,,,,,256.0,,,32,pitchwheel,,,,,129440,134.83333333333334
1746,3.0,,,,,,,,384.0,,,32,pitchwheel,,,,,129472,134.86666666666667
1747,3.0,,,,,,,,512.0,,,32,pitchwheel,,,,,129504,134.9
1748,3.0,,,,,,,,384.0,,,32,pitchwheel,,,,,129536,134.93333333333334
1749,3.0,,,,,,,,256.0,,,32,pitchwheel,,,,,129568,134.96666666666667
1750,3.0,,,,,,67.0,,,,,32,note_off,,80.0,67.0,80.0,129600,135.0
1751,3.0,,,,,,,,384.0,,,0,pitchwheel,,,,,129600,135.0
1752,3.0,,,,,,,,0.0,,,0,pitchwheel,,,,,129600,135.0
1753,3.0,,,,,,66.0,,,,,0,note_on,,95.0,66.0,95.0,129600,135.0
1754,3.0,,,,,,,,0.0,,,80,pitchwheel,,,,,129680,135.08333333333334
1755,3.0,,,,,,,,256.0,,,80,pitchwheel,,,,,129760,135.16666666666666
1756,3.0,,,,,,,,0.0,,,80,pitchwheel,,,,,129840,135.25
1757,3.0,,,,,,,,256.0,,,80,pitchwheel,,,,,129920,135.33333333333334
1758,3.0,,,,,,,,0.0,,,80,pitchwheel,,,,,130000,135.41666666666666
1759,3.0,,,,,,,,256.0,,,80,pitchwheel,,,,,130080,135.5
1760,3.0,,,,,,,,0.0,,,80,pitchwheel,,,,,130160,135.58333333333334
1761,3.0,,,,,,,,256.0,,,80,pitchwheel,,,,,130240,135.66666666666666
1762,3.0,,,,,,,,0.0,,,80,pitchwheel,,,,,130320,135.75
1763,3.0,,,,,,,,256.0,,,80,pitchwheel,,,,,130400,135.83333333333334
1764,3.0,,,,,,,,0.0,,,80,pitchwheel,,,,,130480,135.91666666666666
1765,3.0,,,,,,66.0,,,,,80,note_off,,80.0,66.0,80.0,130560,136.0
1766,3.0,,,,,,,,256.0,,,0,pitchwheel,,,,,130560,136.0
1767,3.0,,,,,,,,0.0,,,0,pitchwheel,,,,,130560,136.0
1768,3.0,,,,,,64.0,,,,,0,note_on,,95.0,64.0,95.0,130560,136.0
1769,3.0,,,,,,,,0.0,,,80,pitchwheel,,,,,130640,136.08333333333334
1770,3.0,,,,,,,,256.0,,,80,pitchwheel,,,,,130720,136.16666666666666
1771,3.0,,,,,,,,0.0,,,80,pitchwheel,,,,,130800,136.25
1772,3.0,,,,,,,,256.0,,,80,pitchwheel,,,,,130880,136.33333333333334
1773,3.0,,,,,,,,0.0,,,80,pitchwheel,,,,,130960,136.41666666666666
1774,3.0,,,,,,,,256.0,,,80,pitchwheel,,,,,131040,136.5
1775,3.0,,,,,,,,0.0,,,80,pitchwheel,,,,,131120,136.58333333333334
1776,3.0,,,,,,,,256.0,,,80,pitchwheel,,,,,131200,136.66666666666666
1777,3.0,,,,,,64.0,,,,,80,note_off,,80.0,64.0,80.0,131280,136.75
1778,3.0,,,,,,,,0.0,,,0,pitchwheel,,,,,131280,136.75
1779,3.0,,,,,,,,0.0,,,0,pitchwheel,,,,,131280,136.75
1780,3.0,,,,,,64.0,,,,,0,note_on,,95.0,64.0,95.0,131280,136.75
1781,3.0,,,,,,,,0.0,,,80,pitchwheel,,,,,131360,136.83333333333334
1782,3.0,,,,,,,,256.0,,,80,pitchwheel,,,,,131440,136.91666666666666
1783,3.0,,,,,,64.0,,,,,80,note_off,,80.0,64.0,80.0,131520,137.0
1784,3.0,,,,,,,,0.0,,,0,pitchwheel,,,,,131520,137.0
1785,3.0,,,,,,,,0.0,,,0,pitchwheel,,,,,131520,137.0
1786,3.0,,,,,,67.0,,,,,0,note_on,,95.0,67.0,95.0,131520,137.0
1787,3.0,,,,,,,,0.0,,,80,pitchwheel,,,,,131600,137.08333333333334
1788,3.0,,,,,,,,256.0,,,80,pitchwheel,,,,,131680,137.16666666666666
1789,3.0,,,,,,,,0.0,,,80,pitchwheel,,,,,131760,137.25
1790,3.0,,,,,,,,256.0,,,80,pitchwheel,,,,,131840,137.33333333333334
1791,3.0,,,,,,67.0,,,,,40,note_off,,80.0,67.0,80.0,131880,137.375
1792,3.0,,,,,,,,0.0,,,0,pitchwheel,,,,,131880,137.375
1793,3.0,,,,,,69.0,,,,,0,note_on,,95.0,69.0,95.0,131880,137.375
1794,3.0,,,,,,,,0.0,,,80,pitchwheel,,,,,131960,137.45833333333334
1795,3.0,,,,,,,,256.0,,,80,pitchwheel,,,,,132040,137.54166666666666
1796,3.0,,,,,,,,0.0,,,80,pitchwheel,,,,,132120,137.625
1797,3.0,,,,,,,,256.0,,,80,pitchwheel,,,,,132200,137.70833333333334
1798,3.0,,,,,,69.0,,,,,40,note_off,,80.0,69.0,80.0,132240,137.75
1799,3.0,,,,,,,,0.0,,,0,pitchwheel,,,,,132240,137.75
1800,3.0,,,,,,67.0,,,,,0,note_on,,95.0,67.0,95.0,132240,137.75
1801,3.0,,,,,,,,0.0,,,80,pitchwheel,,,,,132320,137.83333333333334
1802,3.0,,,,,,,,256.0,,,80,pitchwheel,,,,,132400,137.91666666666666
1803,3.0,,,,,,67.0,,,,,80,note_off,,80.0,67.0,80.0,132480,138.0
1804,3.0,,,,,,,,0.0,,,0,pitchwheel,,,,,132480,138.0
1805,3.0,,,,,,,,0.0,,,0,pitchwheel,,,,,132480,138.0
1806,3.0,,,,,,67.0,,,,,0,note_on,,95.0,67.0,95.0,132480,138.0
1807,3.0,,,,,,,,0.0,,,80,pitchwheel,,,,,132560,138.08333333333334
1808,3.0,,,,,,67.0,,,,,40,note_off,,80.0,67.0,80.0,132600,138.125
1809,3.0,,,,,,,,0.0,,,0,pitchwheel,,,,,132600,138.125
1810,3.0,,,,,,67.0,,,,,120,note_on,,95.0,67.0,95.0,132720,138.25
1811,3.0,,,,,,,,640.0,,,60,pitchwheel,,,,,132780,138.3125
1812,3.0,,,,,,,,0.0,,,20,pitchwheel,,,,,132800,138.33333333333334
1813,3.0,,,,,,67.0,,,,,40,note_off,,80.0,67.0,80.0,132840,138.375
1814,3.0,,,,,,,,0.0,,,0,pitchwheel,,,,,132840,138.375
1815,3.0,,,,,,,,0.0,,,0,pitchwheel,,,,,132840,138.375
1816,3.0,,,,,,69.0,,,,,0,note_on,,86.0,69.0,86.0,132840,138.375
1817,3.0,,,,,,,,0.0,,,80,pitchwheel,,,,,132920,138.45833333333334
1818,3.0,,,,,,,,256.0,,,80,pitchwheel,,,,,133000,138.54166666666666
1819,3.0,,,,,,69.0,,,,,80,note_off,,80.0,69.0,80.0,133080,138.625
1820,3.0,,,,,,,,0.0,,,0,pitchwheel,,,,,133080,138.625
1821,3.0,,,,,,,,0.0,,,0,pitchwheel,,,,,133080,138.625
1822,3.0,,,,,,67.0,,,,,120,note_on,,95.0,67.0,95.0,133200,138.75
1823,3.0,,,,,,,,0.0,,,80,pitchwheel,,,,,133280,138.83333333333334
1824,3.0,,,,,,67.0,,,,,40,note_off,,80.0,67.0,80.0,133320,138.875
1825,3.0,,,,,,,,0.0,,,0,pitchwheel,,,,,133320,138.875
1826,3.0,,,,,,66.0,,,,,120,note_on,,95.0,66.0,95.0,133440,139.0
1827,3.0,,,,,,,,0.0,,,80,pitchwheel,,,,,133520,139.08333333333334
1828,3.0,,,,,,,,256.0,,,80,pitchwheel,,,,,133600,139.16666666666666
1829,3.0,,,,,,,,0.0,,,80,pitchwheel,,,,,133680,139.25
1830,3.0,,,,,,,,256.0,,,80,pitchwheel,,,,,133760,139.33333333333334
1831,3.0,,,,,,,,0.0,,,80,pitchwheel,,,,,133840,139.41666666666666
1832,3.0,,,,,,,,256.0,,,80,pitchwheel,,,,,133920,139.5
1833,3.0,,,,,,,,0.0,,,80,pitchwheel,,,,,134000,139.58333333333334
1834,3.0,,,,,,,,256.0,,,80,pitchwheel,,,,,134080,139.66666666666666
1835,3.0,,,,,,,,0.0,,,80,pitchwheel,,,,,134160,139.75
1836,3.0,,,,,,,,256.0,,,80,pitchwheel,,,,,134240,139.83333333333334
1837,3.0,,,,,,,,0.0,,,80,pitchwheel,,,,,134320,139.91666666666666
1838,2.0,,,,,,75.0,,,,,50,note_on,,95.0,75.0,95.0,50,0.052083333333333336
1839,2.0,,,,,,75.0,,,,,29,note_off,,80.0,75.0,80.0,79,0.08229166666666667
1840,3.0,,,,,,66.0,,,,,1,note_off,,80.0,66.0,80.0,134321,139.91770833333334
1841,3.0,,,,,,,,256.0,,,0,pitchwheel,,,,,134321,139.91770833333334
1842,3.0,,,,,,,,0.0,,,0,pitchwheel,,,,,134321,139.91770833333334
1843,3.0,,,,,,76.0,,,,,0,note_on,,95.0,76.0,95.0,134321,139.91770833333334
1844,3.0,,,,,,,,0.0,,,80,pitchwheel,,,,,134401,140.00104166666665
1845,3.0,,,,,,,,256.0,,,80,pitchwheel,,,,,134481,140.084375
1846,3.0,,,,,,,,0.0,,,80,pitchwheel,,,,,134561,140.16770833333334
1847,3.0,,,,,,,,256.0,,,80,pitchwheel,,,,,134641,140.25104166666665
1848,3.0,,,,,,,,0.0,,,80,pitchwheel,,,,,134721,140.334375
1849,3.0,,,,,,,,256.0,,,80,pitchwheel,,,,,134801,140.41770833333334
1850,3.0,,,,,,,,0.0,,,80,pitchwheel,,,,,134881,140.50104166666665
1851,3.0,,,,,,,,256.0,,,80,pitchwheel,,,,,134961,140.584375
1852,3.0,,,,,,76.0,,,,,80,note_off,,80.0,76.0,80.0,135041,140.66770833333334
1853,3.0,,,,,,,,0.0,,,0,pitchwheel,,,,,135041,140.66770833333334
1854,3.0,,,,,,,,0.0,,,0,pitchwheel,,,,,135041,140.66770833333334
1855,3.0,,,,,,76.0,,,,,0,note_on,,95.0,76.0,95.0,135041,140.66770833333334
1856,3.0,,,,,,,,0.0,,,80,pitchwheel,,,,,135121,140.75104166666665
1857,3.0,,,,,,,,256.0,,,80,pitchwheel,,,,,135201,140.834375
1858,2.0,,,,,,76.0,,,,,50,note_on,,95.0,76.0,95.0,129,0.134375
1859,2.0,,,,,,76.0,,,,,29,note_off,,80.0,76.0,80.0,158,0.16458333333333333
1860,3.0,,,,,,76.0,,,,,1,note_off,,80.0,76.0,80.0,135202,140.83541666666667
1861,3.0,,,,,,,,0.0,,,0,pitchwheel,,,,,135202,140.83541666666667
1862,3.0,,,,,,,,0.0,,,0,pitchwheel,,,,,135202,140.83541666666667
1863,3.0,,,,,,79.0,,,,,0,note_on,,95.0,79.0,95.0,135202,140.83541666666667
1864,3.0,,,,,,,,0.0,,,80,pitchwheel,,,,,135282,140.91875
1865,3.0,,,,,,,,256.0,,,80,pitchwheel,,,,,135362,141.00208333333333
1866,3.0,,,,,,,,0.0,,,80,pitchwheel,,,,,135442,141.08541666666667
1867,3.0,,,,,,,,256.0,,,80,pitchwheel,,,,,135522,141.16875
1868,3.0,,,,,,79.0,,,,,40,note_off,,80.0,79.0,80.0,135562,141.21041666666667
1869,3.0,,,,,,,,0.0,,,0,pitchwheel,,,,,135562,141.21041666666667
1870,3.0,,,,,,76.0,,,,,0,note_on,,95.0,76.0,95.0,135562,141.21041666666667
1871,3.0,,,,,,,,0.0,,,80,pitchwheel,,,,,135642,141.29375
1872,3.0,,,,,,,,256.0,,,80,pitchwheel,,,,,135722,141.37708333333333
1873,3.0,,,,,,,,0.0,,,80,pitchwheel,,,,,135802,141.46041666666667
1874,3.0,,,,,,,,256.0,,,80,pitchwheel,,,,,135882,141.54375
1875,3.0,,,,,,76.0,,,,,40,note_off,,80.0,76.0,80.0,135922,141.58541666666667
1876,3.0,,,,,,,,0.0,,,0,pitchwheel,,,,,135922,141.58541666666667
1877,3.0,,,,,,76.0,,,,,0,note_on,,95.0,76.0,95.0,135922,141.58541666666667
1878,3.0,,,,,,,,0.0,,,80,pitchwheel,,,,,136002,141.66875
1879,3.0,,,,,,,,256.0,,,80,pitchwheel,,,,,136082,141.75208333333333
1880,3.0,,,,,,76.0,,,,,80,note_off,,80.0,76.0,80.0,136162,141.83541666666667
1881,3.0,,,,,,,,0.0,,,0,pitchwheel,,,,,136162,141.83541666666667
1882,3.0,,,,,,,,0.0,,,0,pitchwheel,,,,,136162,141.83541666666667
1883,3.0,,,,,,79.0,,,,,0,note_on,,95.0,79.0,95.0,136162,141.83541666666667
1884,3.0,,,,,,,,0.0,,,0,pitchwheel,,,,,136162,141.83541666666667
1885,3.0,,,,,,,,128.0,,,96,pitchwheel,,,,,136258,141.93541666666667
1886,3.0,,,,,,,,256.0,,,192,pitchwheel,,,,,136450,142.13541666666666
1887,3.0,,,,,,,,384.0,,,176,pitchwheel,,,,,136626,142.31875
1888,3.0,,,,,,,,512.0,,,16,pitchwheel,,,,,136642,142.33541666666667
1889,3.0,,,,,,,,384.0,,,32,pitchwheel,,,,,136674,142.36875
1890,3.0,,,,,,,,256.0,,,32,pitchwheel,,,,,136706,142.40208333333334
1891,3.0,,,,,,,,384.0,,,32,pitchwheel,,,,,136738,142.43541666666667
1892,3.0,,,,,,,,512.0,,,32,pitchwheel,,,,,136770,142.46875
1893,3.0,,,,,,,,384.0,,,32,pitchwheel,,,,,136802,142.50208333333333
1894,3.0,,,,,,,,256.0,,,32,pitchwheel,,,,,136834,142.53541666666666
1895,3.0,,,,,,,,384.0,,,32,pitchwheel,,,,,136866,142.56875
1896,3.0,,,,,,,,512.0,,,32,pitchwheel,,,,,136898,142.60208333333333
1897,3.0,,,,,,,,384.0,,,32,pitchwheel,,,,,136930,142.63541666666666
1898,3.0,,,,,,,,256.0,,,32,pitchwheel,,,,,136962,142.66875
1899,3.0,,,,,,,,384.0,,,32,pitchwheel,,,,,136994,142.70208333333332
1900,3.0,,,,,,,,512.0,,,32,pitchwheel,,,,,137026,142.73541666666665
1901,3.0,,,,,,,,384.0,,,32,pitchwheel,,,,,137058,142.76875
1902,3.0,,,,,,,,256.0,,,32,pitchwheel,,,,,137090,142.80208333333334
1903,3.0,,,,,,79.0,,,,,32,note_off,,80.0,79.0,80.0,137122,142.83541666666667
1904,3.0,,,,,,,,384.0,,,0,pitchwheel,,,,,137122,142.83541666666667
1905,3.0,,,,,,,,0.0,,,0,pitchwheel,,,,,137122,142.83541666666667
1906,3.0,,,,,,78.0,,,,,0,note_on,,95.0,78.0,95.0,137122,142.83541666666667
1907,3.0,,,,,,,,0.0,,,80,pitchwheel,,,,,137202,142.91875
1908,3.0,,,,,,,,256.0,,,80,pitchwheel,,,,,137282,143.00208333333333
1909,3.0,,,,,,,,0.0,,,80,pitchwheel,,,,,137362,143.08541666666667
1910,3.0,,,,,,,,256.0,,,80,pitchwheel,,,,,137442,143.16875
1911,3.0,,,,,,,,0.0,,,80,pitchwheel,,,,,137522,143.25208333333333
1912,3.0,,,,,,,,256.0,,,80,pitchwheel,,,,,137602,143.33541666666667
1913,3.0,,,,,,,,0.0,,,80,pitchwheel,,,,,137682,143.41875
1914,3.0,,,,,,,,256.0,,,80,pitchwheel,,,,,137762,143.50208333333333
1915,3.0,,,,,,,,0.0,,,80,pitchwheel,,,,,137842,143.58541666666667
1916,3.0,,,,,,,,256.0,,,80,pitchwheel,,,,,137922,143.66875
1917,3.0,,,,,,,,0.0,,,80,pitchwheel,,,,,138002,143.75208333333333
1918,2.0,,,,,,75.0,,,,,50,note_on,,95.0,75.0,95.0,208,0.21666666666666667
1919,2.0,,,,,,75.0,,,,,29,note_off,,80.0,75.0,80.0,237,0.24687499999999998
1920,3.0,,,,,,78.0,,,,,1,note_off,,80.0,78.0,80.0,138003,143.753125
1921,3.0,,,,,,,,256.0,,,0,pitchwheel,,,,,138003,143.753125
1922,3.0,,,,,,,,0.0,,,0,pitchwheel,,,,,138003,143.753125
1923,3.0,,,,,,76.0,,,,,0,note_on,,95.0,76.0,95.0,138003,143.753125
1924,3.0,,,,,,76.0,,,,,11,note_off,,80.0,76.0,80.0,138014,143.76458333333332
1925,3.0,,,,,,,,0.0,,,0,pitchwheel,,,,,138014,143.76458333333332
1926,3.0,,,,,,76.0,,,,,709,note_on,,95.0,76.0,95.0,138723,144.503125
1927,3.0,,,,,,,,0.0,,,80,pitchwheel,,,,,138803,144.58645833333333
1928,3.0,,,,,,,,256.0,,,80,pitchwheel,,,,,138883,144.66979166666667
1929,3.0,,,,,,76.0,,,,,80,note_off,,80.0,76.0,80.0,138963,144.753125
1930,3.0,,,,,,,,0.0,,,0,pitchwheel,,,,,138963,144.753125
1931,3.0,,,,,,,,0.0,,,0,pitchwheel,,,,,138963,144.753125
1932,3.0,,,,,,79.0,,,,,0,note_on,,95.0,79.0,95.0,138963,144.753125
1933,3.0,,,,,,,,0.0,,,80,pitchwheel,,,,,139043,144.83645833333333
1934,3.0,,,,,,,,256.0,,,80,pitchwheel,,,,,139123,144.91979166666667
1935,3.0,,,,,,,,0.0,,,80,pitchwheel,,,,,139203,145.003125
1936,3.0,,,,,,,,256.0,,,80,pitchwheel,,,,,139283,145.08645833333333
1937,3.0,,,,,,79.0,,,,,40,note_off,,80.0,79.0,80.0,139323,145.128125
1938,3.0,,,,,,,,0.0,,,0,pitchwheel,,,,,139323,145.128125
1939,3.0,,,,,,81.0,,,,,0,note_on,,95.0,81.0,95.0,139323,145.128125
1940,3.0,,,,,,,,0.0,,,80,pitchwheel,,,,,139403,145.21145833333333
1941,3.0,,,,,,,,256.0,,,80,pitchwheel,,,,,139483,145.29479166666667
1942,3.0,,,,,,,,0.0,,,80,pitchwheel,,,,,139563,145.378125
1943,3.0,,,,,,,,256.0,,,80,pitchwheel,,,,,139643,145.46145833333333
1944,3.0,,,,,,81.0,,,,,40,note_off,,80.0,81.0,80.0,139683,145.503125
1945,3.0,,,,,,,,0.0,,,0,pitchwheel,,,,,139683,145.503125
1946,3.0,,,,,,79.0,,,,,0,note_on,,95.0,79.0,95.0,139683,145.503125
1947,3.0,,,,,,,,0.0,,,80,pitchwheel,,,,,139763,145.58645833333333
1948,3.0,,,,,,,,256.0,,,80,pitchwheel,,,,,139843,145.66979166666667
1949,3.0,,,,,,79.0,,,,,80,note_off,,80.0,79.0,80.0,139923,145.753125
1950,3.0,,,,,,,,0.0,,,0,pitchwheel,,,,,139923,145.753125
1951,3.0,,,,,,,,0.0,,,0,pitchwheel,,,,,139923,145.753125
1952,3.0,,,,,,79.0,,,,,0,note_on,,95.0,79.0,95.0,139923,145.753125
1953,3.0,,,,,,,,0.0,,,80,pitchwheel,,,,,140003,145.83645833333333
1954,3.0,,,,,,,,256.0,,,80,pitchwheel,,,,,140083,145.91979166666667
1955,3.0,,,,,,79.0,,,,,20,note_off,,80.0,79.0,80.0,140103,145.940625
1956,3.0,,,,,,,,0.0,,,0,pitchwheel,,,,,140103,145.940625
1957,3.0,,,,,,79.0,,,,,60,note_on,,95.0,79.0,95.0,140163,146.003125
1958,3.0,,,,,,,,640.0,,,60,pitchwheel,,,,,140223,146.065625
1959,3.0,,,,,,,,0.0,,,20,pitchwheel,,,,,140243,146.08645833333333
1960,3.0,,,,,,79.0,,,,,40,note_off,,80.0,79.0,80.0,140283,146.128125
1961,3.0,,,,,,,,0.0,,,0,pitchwheel,,,,,140283,146.128125
1962,3.0,,,,,,,,0.0,,,0,pitchwheel,,,,,140283,146.128125
1963,3.0,,,,,,81.0,,,,,0,note_on,,86.0,81.0,86.0,140283,146.128125
1964,3.0,,,,,,,,0.0,,,80,pitchwheel,,,,,140363,146.21145833333333
1965,3.0,,,,,,,,256.0,,,80,pitchwheel,,,,,140443,146.29479166666667
1966,3.0,,,,,,81.0,,,,,80,note_off,,80.0,81.0,80.0,140523,146.378125
1967,3.0,,,,,,,,0.0,,,0,pitchwheel,,,,,140523,146.378125
1968,3.0,,,,,,,,0.0,,,0,pitchwheel,,,,,140523,146.378125
1969,3.0,,,,,,79.0,,,,,120,note_on,,95.0,79.0,95.0,140643,146.503125
1970,3.0,,,,,,,,0.0,,,80,pitchwheel,,,,,140723,146.58645833333333
1971,3.0,,,,,,79.0,,,,,40,note_off,,80.0,79.0,80.0,140763,146.628125
1972,3.0,,,,,,,,0.0,,,0,pitchwheel,,,,,140763,146.628125
1973,3.0,,,,,,78.0,,,,,120,note_on,,95.0,78.0,95.0,140883,146.753125
1974,3.0,,,,,,,,0.0,,,80,pitchwheel,,,,,140963,146.83645833333333
1975,3.0,,,,,,,,256.0,,,80,pitchwheel,,,,,141043,146.91979166666667
1976,3.0,,,,,,,,0.0,,,80,pitchwheel,,,,,141123,147.003125
1977,3.0,,,,,,,,256.0,,,80,pitchwheel,,,,,141203,147.08645833333333
1978,3.0,,,,,,,,0.0,,,80,pitchwheel,,,,,141283,147.16979166666667
1979,3.0,,,,,,,,256.0,,,80,pitchwheel,,,,,141363,147.253125
1980,3.0,,,,,,,,0.0,,,80,pitchwheel,,,,,141443,147.33645833333333
1981,3.0,,,,,,,,256.0,,,80,pitchwheel,,,,,141523,147.41979166666667
1982,3.0,,,,,,,,0.0,,,80,pitchwheel,,,,,141603,147.503125
1983,3.0,,,,,,,,256.0,,,80,pitchwheel,,,,,141683,147.58645833333333
1984,3.0,,,,,,,,0.0,,,80,pitchwheel,,,,,141763,147.66979166666667
1985,2.0,,,,,,75.0,,,,,50,note_on,,95.0,75.0,95.0,287,0.2989583333333333
1986,2.0,,,,,,75.0,,,,,29,note_off,,80.0,75.0,80.0,316,0.32916666666666666
1987,3.0,,,,,,78.0,,,,,1,note_off,,80.0,78.0,80.0,141764,147.67083333333332
1988,3.0,,,,,,,,256.0,,,0,pitchwheel,,,,,141764,147.67083333333332
1989,3.0,,,,,,,,0.0,,,0,pitchwheel,,,,,141764,147.67083333333332
1990,3.0,,,,,,76.0,,,,,0,note_on,,95.0,76.0,95.0,141764,147.67083333333332
1991,3.0,,,,,,,,0.0,,,80,pitchwheel,,,,,141844,147.75416666666666
1992,3.0,,,,,,,,256.0,,,80,pitchwheel,,,,,141924,147.8375
1993,3.0,,,,,,,,0.0,,,80,pitchwheel,,,,,142004,147.92083333333332
1994,3.0,,,,,,,,256.0,,,80,pitchwheel,,,,,142084,148.00416666666666
1995,3.0,,,,,,,,0.0,,,80,pitchwheel,,,,,142164,148.0875
1996,3.0,,,,,,,,256.0,,,80,pitchwheel,,,,,142244,148.17083333333332
1997,3.0,,,,,,,,0.0,,,80,pitchwheel,,,,,142324,148.25416666666666
1998,3.0,,,,,,,,256.0,,,80,pitchwheel,,,,,142404,148.3375
1999,3.0,,,,,,76.0,,,,,80,note_off,,80.0,76.0,80.0,142484,148.42083333333332
2000,3.0,,,,,,,,0.0,,,0,pitchwheel,,,,,142484,148.42083333333332
2001,3.0,,,,,,,,0.0,,,0,pitchwheel,,,,,142484,148.42083333333332
2002,3.0,,,,,,76.0,,,,,0,note_on,,95.0,76.0,95.0,142484,148.42083333333332
2003,3.0,,,,,,,,0.0,,,80,pitchwheel,,,,,142564,148.50416666666666
2004,3.0,,,,,,,,256.0,,,80,pitchwheel,,,,,142644,148.5875
2005,2.0,,,,,,76.0,,,,,50,note_on,,95.0,76.0,95.0,366,0.38125
2006,2.0,,,,,,76.0,,,,,29,note_off,,80.0,76.0,80.0,395,0.4114583333333333
2007,3.0,,,,,,76.0,,,,,1,note_off,,80.0,76.0,80.0,142645,148.58854166666666
2008,3.0,,,,,,,,0.0,,,0,pitchwheel,,,,,142645,148.58854166666666
2009,3.0,,,,,,,,0.0,,,0,pitchwheel,,,,,142645,148.58854166666666
2010,3.0,,,,,,78.0,,,,,0,note_on,,95.0,78.0,95.0,142645,148.58854166666666
2011,3.0,,,,,,,,0.0,,,80,pitchwheel,,,,,142725,148.671875
2012,3.0,,,,,,,,256.0,,,80,pitchwheel,,,,,142805,148.75520833333334
2013,3.0,,,,,,,,0.0,,,80,pitchwheel,,,,,142885,148.83854166666666
2014,3.0,,,,,,,,256.0,,,80,pitchwheel,,,,,142965,148.921875
2015,3.0,,,,,,78.0,,,,,40,note_off,,80.0,78.0,80.0,143005,148.96354166666666
2016,3.0,,,,,,,,0.0,,,0,pitchwheel,,,,,143005,148.96354166666666
2017,3.0,,,,,,76.0,,,,,0,note_on,,95.0,76.0,95.0,143005,148.96354166666666
2018,3.0,,,,,,,,0.0,,,80,pitchwheel,,,,,143085,149.046875
2019,3.0,,,,,,,,256.0,,,80,pitchwheel,,,,,143165,149.13020833333334
2020,3.0,,,,,,,,0.0,,,80,pitchwheel,,,,,143245,149.21354166666666
2021,3.0,,,,,,,,256.0,,,80,pitchwheel,,,,,143325,149.296875
2022,3.0,,,,,,76.0,,,,,40,note_off,,80.0,76.0,80.0,143365,149.33854166666666
2023,3.0,,,,,,,,0.0,,,0,pitchwheel,,,,,143365,149.33854166666666
2024,3.0,,,,,,76.0,,,,,0,note_on,,95.0,76.0,95.0,143365,149.33854166666666
2025,3.0,,,,,,,,0.0,,,80,pitchwheel,,,,,143445,149.421875
2026,3.0,,,,,,,,256.0,,,80,pitchwheel,,,,,143525,149.50520833333334
2027,3.0,,,,,,76.0,,,,,80,note_off,,80.0,76.0,80.0,143605,149.58854166666666
2028,3.0,,,,,,,,0.0,,,0,pitchwheel,,,,,143605,149.58854166666666
2029,3.0,,,,,,,,0.0,,,0,pitchwheel,,,,,143605,149.58854166666666
2030,3.0,,,,,,79.0,,,,,0,note_on,,95.0,79.0,95.0,143605,149.58854166666666
2031,3.0,,,,,,,,0.0,,,0,pitchwheel,,,,,143605,149.58854166666666
2032,3.0,,,,,,,,128.0,,,32,pitchwheel,,,,,143637,149.621875
2033,3.0,,,,,,,,256.0,,,48,pitchwheel,,,,,143685,149.671875
2034,3.0,,,,,,,,384.0,,,48,pitchwheel,,,,,143733,149.721875
2035,3.0,,,,,,,,512.0,,,32,pitchwheel,,,,,143765,149.75520833333334
2036,3.0,,,,,,,,640.0,,,48,pitchwheel,,,,,143813,149.80520833333333
2037,3.0,,,,,,,,768.0,,,48,pitchwheel,,,,,143861,149.85520833333334
2038,3.0,,,,,,,,896.0,,,48,pitchwheel,,,,,143909,149.90520833333332
2039,3.0,,,,,,,,1024.0,,,48,pitchwheel,,,,,143957,149.95520833333333
2040,3.0,,,,,,,,1152.0,,,32,pitchwheel,,,,,143989,149.98854166666666
2041,3.0,,,,,,,,1280.0,,,48,pitchwheel,,,,,144037,150.03854166666667
2042,3.0,,,,,,,,1536.0,,,48,pitchwheel,,,,,144085,150.08854166666666
2043,3.0,,,,,,,,1408.0,,,32,pitchwheel,,,,,144117,150.121875
2044,3.0,,,,,,,,1280.0,,,32,pitchwheel,,,,,144149,150.15520833333332
2045,3.0,,,,,,,,1408.0,,,32,pitchwheel,,,,,144181,150.18854166666665
2046,3.0,,,,,,,,1536.0,,,32,pitchwheel,,,,,144213,150.221875
2047,3.0,,,,,,,,1408.0,,,32,pitchwheel,,,,,144245,150.25520833333334
2048,3.0,,,,,,,,1280.0,,,32,pitchwheel,,,,,144277,150.28854166666667
2049,3.0,,,,,,,,1408.0,,,32,pitchwheel,,,,,144309,150.321875
2050,3.0,,,,,,,,1536.0,,,32,pitchwheel,,,,,144341,150.35520833333334
2051,3.0,,,,,,,,1408.0,,,32,pitchwheel,,,,,144373,150.38854166666667
2052,3.0,,,,,,,,1280.0,,,32,pitchwheel,,,,,144405,150.421875
2053,3.0,,,,,,,,1408.0,,,32,pitchwheel,,,,,144437,150.45520833333333
2054,3.0,,,,,,,,1536.0,,,32,pitchwheel,,,,,144469,150.48854166666666
2055,3.0,,,,,,,,1408.0,,,32,pitchwheel,,,,,144501,150.521875
2056,3.0,,,,,,,,1280.0,,,32,pitchwheel,,,,,144533,150.55520833333333
2057,3.0,,,,,,79.0,,,,,32,note_off,,80.0,79.0,80.0,144565,150.58854166666666
2058,3.0,,,,,,,,1408.0,,,0,pitchwheel,,,,,144565,150.58854166666666
2059,3.0,,,,,,,,0.0,,,0,pitchwheel,,,,,144565,150.58854166666666
2060,3.0,,,,,,79.0,,,,,0,note_on,,95.0,79.0,95.0,144565,150.58854166666666
2061,3.0,,,,,,,,0.0,,,80,pitchwheel,,,,,144645,150.671875
2062,3.0,,,,,,,,256.0,,,80,pitchwheel,,,,,144725,150.75520833333334
2063,3.0,,,,,,,,0.0,,,80,pitchwheel,,,,,144805,150.83854166666666
2064,3.0,,,,,,,,256.0,,,80,pitchwheel,,,,,144885,150.921875
2065,3.0,,,,,,,,0.0,,,80,pitchwheel,,,,,144965,151.00520833333334
2066,3.0,,,,,,,,256.0,,,80,pitchwheel,,,,,145045,151.08854166666666
2067,3.0,,,,,,,,0.0,,,80,pitchwheel,,,,,145125,151.171875
2068,3.0,,,,,,,,256.0,,,80,pitchwheel,,,,,145205,151.25520833333334
2069,3.0,,,,,,,,0.0,,,80,pitchwheel,,,,,145285,151.33854166666666
2070,3.0,,,,,,,,256.0,,,80,pitchwheel,,,,,145365,151.421875
2071,3.0,,,,,,,,0.0,,,80,pitchwheel,,,,,145445,151.50520833333334
2072,2.0,,,,,,75.0,,,,,50,note_on,,95.0,75.0,95.0,445,0.4635416666666667
2073,2.0,,,,,,75.0,,,,,29,note_off,,80.0,75.0,80.0,474,0.49374999999999997
2074,3.0,,,,,,79.0,,,,,1,note_off,,80.0,79.0,80.0,145446,151.50625
2075,3.0,,,,,,,,256.0,,,0,pitchwheel,,,,,145446,151.50625
2076,3.0,,,,,,,,0.0,,,0,pitchwheel,,,,,145446,151.50625
2077,3.0,,,,,,76.0,,,,,0,note_on,,95.0,76.0,95.0,145446,151.50625
2078,3.0,,,,,,,,0.0,,,80,pitchwheel,,,,,145526,151.58958333333334
2079,3.0,,,,,,,,256.0,,,80,pitchwheel,,,,,145606,151.67291666666665
2080,3.0,,,,,,,,0.0,,,80,pitchwheel,,,,,145686,151.75625
2081,3.0,,,,,,,,256.0,,,80,pitchwheel,,,,,145766,151.83958333333334
2082,3.0,,,,,,,,0.0,,,80,pitchwheel,,,,,145846,151.92291666666665
2083,3.0,,,,,,,,256.0,,,80,pitchwheel,,,,,145926,152.00625
2084,3.0,,,,,,,,0.0,,,80,pitchwheel,,,,,146006,152.08958333333334
2085,3.0,,,,,,,,256.0,,,80,pitchwheel,,,,,146086,152.17291666666665
2086,3.0,,,,,,76.0,,,,,80,note_off,,80.0,76.0,80.0,146166,152.25625
2087,3.0,,,,,,,,0.0,,,0,pitchwheel,,,,,146166,152.25625
2088,3.0,,,,,,,,0.0,,,0,pitchwheel,,,,,146166,152.25625
2089,3.0,,,,,,76.0,,,,,0,note_on,,95.0,76.0,95.0,146166,152.25625
2090,3.0,,,,,,,,0.0,,,80,pitchwheel,,,,,146246,152.33958333333334
2091,3.0,,,,,,,,256.0,,,80,pitchwheel,,,,,146326,152.42291666666665
2092,2.0,,,,,,76.0,,,,,50,note_on,,95.0,76.0,95.0,524,0.5458333333333333
2093,2.0,,,,,,76.0,,,,,29,note_off,,80.0,76.0,80.0,553,0.5760416666666667
2094,3.0,,,,,,76.0,,,,,1,note_off,,80.0,76.0,80.0,146327,152.42395833333333
2095,3.0,,,,,,,,0.0,,,0,pitchwheel,,,,,146327,152.42395833333333
2096,3.0,,,,,,,,0.0,,,0,pitchwheel,,,,,146327,152.42395833333333
2097,3.0,,,,,,78.0,,,,,0,note_on,,95.0,78.0,95.0,146327,152.42395833333333
2098,3.0,,,,,,,,0.0,,,80,pitchwheel,,,,,146407,152.50729166666667
2099,3.0,,,,,,,,256.0,,,80,pitchwheel,,,,,146487,152.590625
2100,3.0,,,,,,,,0.0,,,80,pitchwheel,,,,,146567,152.67395833333333
2101,3.0,,,,,,,,256.0,,,80,pitchwheel,,,,,146647,152.75729166666667
2102,3.0,,,,,,78.0,,,,,40,note_off,,80.0,78.0,80.0,146687,152.79895833333333
2103,3.0,,,,,,,,0.0,,,0,pitchwheel,,,,,146687,152.79895833333333
2104,3.0,,,,,,76.0,,,,,0,note_on,,95.0,76.0,95.0,146687,152.79895833333333
2105,3.0,,,,,,,,0.0,,,80,pitchwheel,,,,,146767,152.88229166666667
2106,3.0,,,,,,,,256.0,,,80,pitchwheel,,,,,146847,152.965625
2107,3.0,,,,,,,,0.0,,,80,pitchwheel,,,,,146927,153.04895833333333
2108,3.0,,,,,,,,256.0,,,80,pitchwheel,,,,,147007,153.13229166666667
2109,3.0,,,,,,76.0,,,,,40,note_off,,80.0,76.0,80.0,147047,153.17395833333333
2110,3.0,,,,,,,,0.0,,,0,pitchwheel,,,,,147047,153.17395833333333
2111,3.0,,,,,,76.0,,,,,0,note_on,,95.0,76.0,95.0,147047,153.17395833333333
2112,3.0,,,,,,,,0.0,,,80,pitchwheel,,,,,147127,153.25729166666667
2113,3.0,,,,,,,,256.0,,,80,pitchwheel,,,,,147207,153.340625
2114,3.0,,,,,,76.0,,,,,80,note_off,,80.0,76.0,80.0,147287,153.42395833333333
2115,3.0,,,,,,,,0.0,,,0,pitchwheel,,,,,147287,153.42395833333333
2116,3.0,,,,,,,,0.0,,,0,pitchwheel,,,,,147287,153.42395833333333
2117,3.0,,,,,,78.0,,,,,0,note_on,,95.0,78.0,95.0,147287,153.42395833333333
2118,3.0,,,,,,,,0.0,,,80,pitchwheel,,,,,147367,153.50729166666667
2119,3.0,,,,,,,,256.0,,,80,pitchwheel,,,,,147447,153.590625
2120,3.0,,,,,,,,0.0,,,80,pitchwheel,,,,,147527,153.67395833333333
2121,3.0,,,,,,,,256.0,,,80,pitchwheel,,,,,147607,153.75729166666667
2122,3.0,,,,,,78.0,,,,,40,note_off,,80.0,78.0,80.0,147647,153.79895833333333
2123,3.0,,,,,,,,0.0,,,0,pitchwheel,,,,,147647,153.79895833333333
2124,3.0,,,,,,76.0,,,,,0,note_on,,95.0,76.0,95.0,147647,153.79895833333333
2125,3.0,,,,,,,,0.0,,,80,pitchwheel,,,,,147727,153.88229166666667
2126,3.0,,,,,,,,256.0,,,80,pitchwheel,,,,,147807,153.965625
2127,3.0,,,,,,,,0.0,,,80,pitchwheel,,,,,147887,154.04895833333333
2128,3.0,,,,,,,,256.0,,,80,pitchwheel,,,,,147967,154.13229166666667
2129,3.0,,,,,,76.0,,,,,40,note_off,,80.0,76.0,80.0,148007,154.17395833333333
2130,3.0,,,,,,,,0.0,,,0,pitchwheel,,,,,148007,154.17395833333333
2131,3.0,,,,,,72.0,,,,,0,note_on,,95.0,72.0,95.0,148007,154.17395833333333
2132,3.0,,,,,,,,0.0,,,80,pitchwheel,,,,,148087,154.25729166666667
2133,3.0,,,,,,,,256.0,,,80,pitchwheel,,,,,148167,154.340625
2134,3.0,,,,,,72.0,,,,,80,note_off,,80.0,72.0,80.0,148247,154.42395833333333
2135,3.0,,,,,,,,0.0,,,0,pitchwheel,,,,,148247,154.42395833333333
2136,3.0,,,,,,,,0.0,,,0,pitchwheel,,,,,148247,154.42395833333333
2137,3.0,,,,,,71.0,,,,,0,note_on,,95.0,71.0,95.0,148247,154.42395833333333
2138,3.0,,,,,,,,0.0,,,80,pitchwheel,,,,,148327,154.50729166666667
2139,3.0,,,,,,,,256.0,,,80,pitchwheel,,,,,148407,154.590625
2140,3.0,,,,,,,,0.0,,,80,pitchwheel,,,,,148487,154.67395833333333
2141,3.0,,,,,,,,256.0,,,80,pitchwheel,,,,,148567,154.75729166666667
2142,3.0,,,,,,,,0.0,,,80,pitchwheel,,,,,148647,154.840625
2143,3.0,,,,,,,,256.0,,,80,pitchwheel,,,,,148727,154.92395833333333
2144,3.0,,,,,,,,0.0,,,80,pitchwheel,,,,,148807,155.00729166666667
2145,3.0,,,,,,,,256.0,,,80,pitchwheel,,,,,148887,155.090625
2146,3.0,,,,,,,,0.0,,,80,pitchwheel,,,,,148967,155.17395833333333
2147,3.0,,,,,,,,256.0,,,80,pitchwheel,,,,,149047,155.25729166666667
2148,3.0,,,,,,,,0.0,,,80,pitchwheel,,,,,149127,155.340625
2149,3.0,,,,,,71.0,,,,,80,note_off,,80.0,71.0,80.0,149207,155.42395833333333
2150,3.0,,,,,,,,256.0,,,0,pitchwheel,,,,,149207,155.42395833333333
2151,3.0,,,,,,,,0.0,,,0,pitchwheel,,,,,149207,155.42395833333333
2152,2.0,,,,,,43.0,,,,,0,note_on,,95.0,43.0,95.0,553,0.5760416666666667
2153,2.0,,,,,,43.0,,,,,240,note_off,,80.0,43.0,80.0,793,0.8260416666666667
2154,2.0,,,,,,43.0,,,,,0,note_on,,95.0,43.0,95.0,793,0.8260416666666667
2155,2.0,,,,,,43.0,,,,,240,note_off,,80.0,43.0,80.0,1033,1.0760416666666666
2156,2.0,,,,,,43.0,,,,,0,note_on,,95.0,43.0,95.0,1033,1.0760416666666666
2157,2.0,,,,,,43.0,,,,,240,note_off,,80.0,43.0,80.0,1273,1.3260416666666666
2158,2.0,,,,,,43.0,,,,,0,note_on,,95.0,43.0,95.0,1273,1.3260416666666666
2159,2.0,,,,,,43.0,,,,,240,note_off,,80.0,43.0,80.0,1513,1.5760416666666666
2160,2.0,,,,,,43.0,,,,,0,note_on,,95.0,43.0,95.0,1513,1.5760416666666666
2161,2.0,,,,,,43.0,,,,,240,note_off,,80.0,43.0,80.0,1753,1.8260416666666666
2162,2.0,,,,,,43.0,,,,,0,note_on,,95.0,43.0,95.0,1753,1.8260416666666666
2163,2.0,,,,,,43.0,,,,,240,note_off,,80.0,43.0,80.0,1993,2.076041666666667
2164,2.0,,,,,,43.0,,,,,0,note_on,,95.0,43.0,95.0,1993,2.076041666666667
2165,2.0,,,,,,43.0,,,,,240,note_off,,80.0,43.0,80.0,2233,2.326041666666667
2166,2.0,,,,,,43.0,,,,,0,note_on,,95.0,43.0,95.0,2233,2.326041666666667
2167,2.0,,,,,,43.0,,,,,240,note_off,,80.0,43.0,80.0,2473,2.576041666666667
2168,2.0,,,,,,45.0,,,,,0,note_on,,95.0,45.0,95.0,2473,2.576041666666667
2169,2.0,,,,,,45.0,,,,,240,note_off,,80.0,45.0,80.0,2713,2.826041666666667
2170,2.0,,,,,,45.0,,,,,0,note_on,,95.0,45.0,95.0,2713,2.826041666666667
2171,2.0,,,,,,45.0,,,,,240,note_off,,80.0,45.0,80.0,2953,3.076041666666667
2172,2.0,,,,,,45.0,,,,,0,note_on,,95.0,45.0,95.0,2953,3.076041666666667
2173,2.0,,,,,,45.0,,,,,240,note_off,,80.0,45.0,80.0,3193,3.326041666666667
2174,2.0,,,,,,45.0,,,,,0,note_on,,95.0,45.0,95.0,3193,3.326041666666667
2175,2.0,,,,,,45.0,,,,,240,note_off,,80.0,45.0,80.0,3433,3.576041666666667
2176,2.0,,,,,,45.0,,,,,0,note_on,,95.0,45.0,95.0,3433,3.576041666666667
2177,2.0,,,,,,45.0,,,,,240,note_off,,80.0,45.0,80.0,3673,3.826041666666667
2178,2.0,,,,,,45.0,,,,,0,note_on,,95.0,45.0,95.0,3673,3.826041666666667
2179,2.0,,,,,,45.0,,,,,240,note_off,,80.0,45.0,80.0,3913,4.076041666666667
2180,2.0,,,,,,45.0,,,,,0,note_on,,95.0,45.0,95.0,3913,4.076041666666667
2181,2.0,,,,,,45.0,,,,,240,note_off,,80.0,45.0,80.0,4153,4.326041666666667
2182,2.0,,,,,,45.0,,,,,0,note_on,,95.0,45.0,95.0,4153,4.326041666666667
2183,2.0,,,,,,45.0,,,,,240,note_off,,80.0,45.0,80.0,4393,4.576041666666667
2184,2.0,,,,,,40.0,,,,,0,note_on,,95.0,40.0,95.0,4393,4.576041666666667
2185,2.0,,,,,,40.0,,,,,3840,note_off,,80.0,40.0,80.0,8233,8.576041666666667
2186,2.0,,,,,,40.0,,,,,0,note_on,,63.0,40.0,63.0,8233,8.576041666666667
2187,2.0,,,,,,40.0,,,,,3840,note_off,,80.0,40.0,80.0,12073,12.576041666666667
2188,,,,,,,,,,,,0,end_of_track,,,,,25864,26.941666666666666
2189,,,,,Guitar w/ Octave Bass,,,,,,,0,track_name,,,,,25867,26.944791666666667
2190,4.0,,100.0,,,,,,,,,0,control_change,0.0,,,,0,0.0
2191,4.0,,101.0,,,,,,,,,0,control_change,0.0,,,,0,0.0
2192,4.0,,6.0,,,,,,,,,0,control_change,12.0,,,,0,0.0
2193,4.0,,,,,,,,0.0,,,0,pitchwheel,,,,,0,0.0
2194,5.0,,100.0,,,,,,,,,0,control_change,0.0,,,,0,0.0
2195,5.0,,101.0,,,,,,,,,0,control_change,0.0,,,,0,0.0
2196,5.0,,6.0,,,,,,,,,0,control_change,12.0,,,,0,0.0
2197,5.0,,,,,,,,0.0,,,0,pitchwheel,,,,,0,0.0
2198,4.0,,,,,,,,,34.0,,0,program_change,,,,,0,0.0
2199,5.0,,,,,,,,,34.0,,0,program_change,,,,,0,0.0
2200,4.0,,7.0,,,,,,,,,0,control_change,120.0,,,,0,0.0
2201,5.0,,7.0,,,,,,,,,0,control_change,120.0,,,,0,0.0
2202,4.0,,10.0,,,,,,,,,0,control_change,64.0,,,,0,0.0
2203,5.0,,10.0,,,,,,,,,0,control_change,64.0,,,,0,0.0
2204,4.0,,93.0,,,,,,,,,0,control_change,0.0,,,,0,0.0
2205,5.0,,93.0,,,,,,,,,0,control_change,0.0,,,,0,0.0
2206,4.0,,91.0,,,,,,,,,0,control_change,0.0,,,,0,0.0
2207,5.0,,91.0,,,,,,,,,0,control_change,0.0,,,,0,0.0
2208,4.0,,92.0,,,,,,,,,0,control_change,0.0,,,,0,0.0
2209,5.0,,92.0,,,,,,,,,0,control_change,0.0,,,,0,0.0
2210,4.0,,95.0,,,,,,,,,0,control_change,0.0,,,,0,0.0
2211,5.0,,95.0,,,,,,,,,0,control_change,0.0,,,,0,0.0
2212,4.0,,,,,,40.0,,,,,0,note_on,,95.0,40.0,95.0,0,0.0
2213,4.0,,,,,,40.0,,,,,720,note_off,,80.0,40.0,80.0,720,0.75
2214,4.0,,,,,,40.0,,,,,0,note_on,,95.0,40.0,95.0,720,0.75
2215,4.0,,,,,,40.0,,,,,120,note_off,,80.0,40.0,80.0,840,0.875
2216,4.0,,,,,,43.0,,,,,120,note_on,,95.0,43.0,95.0,960,1.0
2217,4.0,,,,,,43.0,,,,,120,note_off,,80.0,43.0,80.0,1080,1.125
2218,4.0,,,,,,40.0,,,,,240,note_on,,95.0,40.0,95.0,1320,1.375
2219,4.0,,,,,,40.0,,,,,120,note_off,,80.0,40.0,80.0,1440,1.5
2220,4.0,,,,,,38.0,,,,,240,note_on,,95.0,38.0,95.0,1680,1.75
2221,4.0,,,,,,38.0,,,,,240,note_off,,80.0,38.0,80.0,1920,2.0
2222,4.0,,,,,,36.0,,,,,0,note_on,,95.0,36.0,95.0,1920,2.0
2223,4.0,,,,,,36.0,,,,,960,note_off,,80.0,36.0,80.0,2880,3.0
2224,4.0,,,,,,35.0,,,,,0,note_on,,95.0,35.0,95.0,2880,3.0
2225,4.0,,,,,,35.0,,,,,960,note_off,,80.0,35.0,80.0,3840,4.0
2226,4.0,,,,,,40.0,,,,,0,note_on,,95.0,40.0,95.0,3840,4.0
2227,4.0,,,,,,40.0,,,,,720,note_off,,80.0,40.0,80.0,4560,4.75
2228,4.0,,,,,,40.0,,,,,0,note_on,,95.0,40.0,95.0,4560,4.75
2229,4.0,,,,,,40.0,,,,,120,note_off,,80.0,40.0,80.0,4680,4.875
2230,4.0,,,,,,43.0,,,,,120,note_on,,95.0,43.0,95.0,4800,5.0
2231,4.0,,,,,,43.0,,,,,120,note_off,,80.0,43.0,80.0,4920,5.125
2232,4.0,,,,,,40.0,,,,,240,note_on,,95.0,40.0,95.0,5160,5.375
2233,4.0,,,,,,40.0,,,,,120,note_off,,80.0,40.0,80.0,5280,5.5
2234,4.0,,,,,,38.0,,,,,240,note_on,,95.0,38.0,95.0,5520,5.75
2235,4.0,,,,,,38.0,,,,,240,note_off,,80.0,38.0,80.0,5760,6.0
2236,4.0,,,,,,36.0,,,,,0,note_on,,95.0,36.0,95.0,5760,6.0
2237,4.0,,,,,,36.0,,,,,960,note_off,,80.0,36.0,80.0,6720,7.0
2238,4.0,,,,,,35.0,,,,,0,note_on,,95.0,35.0,95.0,6720,7.0
2239,4.0,,,,,,35.0,,,,,960,note_off,,80.0,35.0,80.0,7680,8.0
2240,4.0,,,,,,40.0,,,,,0,note_on,,95.0,40.0,95.0,7680,8.0
2241,4.0,,,,,,40.0,,,,,720,note_off,,80.0,40.0,80.0,8400,8.75
2242,4.0,,,,,,40.0,,,,,0,note_on,,95.0,40.0,95.0,8400,8.75
2243,4.0,,,,,,40.0,,,,,120,note_off,,80.0,40.0,80.0,8520,8.875
2244,4.0,,,,,,43.0,,,,,120,note_on,,95.0,43.0,95.0,8640,9.0
2245,4.0,,,,,,43.0,,,,,120,note_off,,80.0,43.0,80.0,8760,9.125
2246,4.0,,,,,,40.0,,,,,240,note_on,,95.0,40.0,95.0,9000,9.375
2247,4.0,,,,,,40.0,,,,,120,note_off,,80.0,40.0,80.0,9120,9.5
2248,4.0,,,,,,38.0,,,,,240,note_on,,95.0,38.0,95.0,9360,9.75
2249,4.0,,,,,,38.0,,,,,240,note_off,,80.0,38.0,80.0,9600,10.0
2250,4.0,,,,,,36.0,,,,,0,note_on,,95.0,36.0,95.0,9600,10.0
2251,4.0,,,,,,36.0,,,,,960,note_off,,80.0,36.0,80.0,10560,11.0
2252,4.0,,,,,,35.0,,,,,0,note_on,,95.0,35.0,95.0,10560,11.0
2253,4.0,,,,,,35.0,,,,,960,note_off,,80.0,35.0,80.0,11520,12.0
2254,4.0,,,,,,40.0,,,,,0,note_on,,95.0,40.0,95.0,11520,12.0
2255,4.0,,,,,,40.0,,,,,720,note_off,,80.0,40.0,80.0,12240,12.75
2256,4.0,,,,,,40.0,,,,,0,note_on,,95.0,40.0,95.0,12240,12.75
2257,4.0,,,,,,40.0,,,,,120,note_off,,80.0,40.0,80.0,12360,12.875
2258,4.0,,,,,,43.0,,,,,120,note_on,,95.0,43.0,95.0,12480,13.0
2259,4.0,,,,,,43.0,,,,,120,note_off,,80.0,43.0,80.0,12600,13.125
2260,4.0,,,,,,40.0,,,,,240,note_on,,95.0,40.0,95.0,12840,13.375
2261,4.0,,,,,,40.0,,,,,120,note_off,,80.0,40.0,80.0,12960,13.5
2262,4.0,,,,,,38.0,,,,,240,note_on,,95.0,38.0,95.0,13200,13.75
2263,4.0,,,,,,38.0,,,,,240,note_off,,80.0,38.0,80.0,13440,14.0
2264,4.0,,,,,,36.0,,,,,0,note_on,,95.0,36.0,95.0,13440,14.0
2265,4.0,,,,,,36.0,,,,,960,note_off,,80.0,36.0,80.0,14400,15.0
2266,4.0,,,,,,35.0,,,,,0,note_on,,95.0,35.0,95.0,14400,15.0
2267,4.0,,,,,,35.0,,,,,960,note_off,,80.0,35.0,80.0,15360,16.0
2268,4.0,,,,,,40.0,,,,,0,note_on,,95.0,40.0,95.0,15360,16.0
2269,4.0,,,,,,40.0,,,,,720,note_off,,80.0,40.0,80.0,16080,16.75
2270,4.0,,,,,,40.0,,,,,0,note_on,,95.0,40.0,95.0,16080,16.75
2271,4.0,,,,,,40.0,,,,,120,note_off,,80.0,40.0,80.0,16200,16.875
2272,4.0,,,,,,43.0,,,,,120,note_on,,95.0,43.0,95.0,16320,17.0
2273,4.0,,,,,,43.0,,,,,120,note_off,,80.0,43.0,80.0,16440,17.125
2274,4.0,,,,,,40.0,,,,,240,note_on,,95.0,40.0,95.0,16680,17.375
2275,4.0,,,,,,40.0,,,,,120,note_off,,80.0,40.0,80.0,16800,17.5
2276,4.0,,,,,,38.0,,,,,240,note_on,,95.0,38.0,95.0,17040,17.75
2277,4.0,,,,,,38.0,,,,,240,note_off,,80.0,38.0,80.0,17280,18.0
2278,4.0,,,,,,36.0,,,,,0,note_on,,95.0,36.0,95.0,17280,18.0
2279,4.0,,,,,,36.0,,,,,960,note_off,,80.0,36.0,80.0,18240,19.0
2280,4.0,,,,,,35.0,,,,,0,note_on,,95.0,35.0,95.0,18240,19.0
2281,4.0,,,,,,35.0,,,,,960,note_off,,80.0,35.0,80.0,19200,20.0
2282,4.0,,,,,,40.0,,,,,0,note_on,,95.0,40.0,95.0,19200,20.0
2283,4.0,,,,,,40.0,,,,,720,note_off,,80.0,40.0,80.0,19920,20.75
2284,4.0,,,,,,40.0,,,,,0,note_on,,95.0,40.0,95.0,19920,20.75
2285,4.0,,,,,,40.0,,,,,120,note_off,,80.0,40.0,80.0,20040,20.875
2286,4.0,,,,,,43.0,,,,,120,note_on,,95.0,43.0,95.0,20160,21.0
2287,4.0,,,,,,43.0,,,,,120,note_off,,80.0,43.0,80.0,20280,21.125
2288,4.0,,,,,,40.0,,,,,240,note_on,,95.0,40.0,95.0,20520,21.375
2289,4.0,,,,,,40.0,,,,,120,note_off,,80.0,40.0,80.0,20640,21.5
2290,4.0,,,,,,38.0,,,,,240,note_on,,95.0,38.0,95.0,20880,21.75
2291,4.0,,,,,,38.0,,,,,240,note_off,,80.0,38.0,80.0,21120,22.0
2292,4.0,,,,,,36.0,,,,,0,note_on,,95.0,36.0,95.0,21120,22.0
2293,4.0,,,,,,36.0,,,,,960,note_off,,80.0,36.0,80.0,22080,23.0
2294,4.0,,,,,,35.0,,,,,0,note_on,,95.0,35.0,95.0,22080,23.0
2295,4.0,,,,,,35.0,,,,,960,note_off,,80.0,35.0,80.0,23040,24.0
2296,4.0,,,,,,40.0,,,,,0,note_on,,95.0,40.0,95.0,23040,24.0
2297,4.0,,,,,,40.0,,,,,720,note_off,,80.0,40.0,80.0,23760,24.75
2298,4.0,,,,,,40.0,,,,,0,note_on,,95.0,40.0,95.0,23760,24.75
2299,4.0,,,,,,40.0,,,,,120,note_off,,80.0,40.0,80.0,23880,24.875
2300,4.0,,,,,,43.0,,,,,120,note_on,,95.0,43.0,95.0,24000,25.0
2301,4.0,,,,,,43.0,,,,,120,note_off,,80.0,43.0,80.0,24120,25.125
2302,4.0,,,,,,40.0,,,,,240,note_on,,95.0,40.0,95.0,24360,25.375
2303,4.0,,,,,,40.0,,,,,120,note_off,,80.0,40.0,80.0,24480,25.5
2304,4.0,,,,,,38.0,,,,,240,note_on,,95.0,38.0,95.0,24720,25.75
2305,4.0,,,,,,38.0,,,,,240,note_off,,80.0,38.0,80.0,24960,26.0
2306,4.0,,,,,,36.0,,,,,0,note_on,,95.0,36.0,95.0,24960,26.0
2307,4.0,,,,,,36.0,,,,,960,note_off,,80.0,36.0,80.0,25920,27.0
2308,4.0,,,,,,35.0,,,,,0,note_on,,95.0,35.0,95.0,25920,27.0
2309,4.0,,,,,,35.0,,,,,960,note_off,,80.0,35.0,80.0,26880,28.0
2310,4.0,,,,,,40.0,,,,,0,note_on,,95.0,40.0,95.0,26880,28.0
2311,4.0,,,,,,40.0,,,,,720,note_off,,80.0,40.0,80.0,27600,28.75
2312,4.0,,,,,,40.0,,,,,0,note_on,,95.0,40.0,95.0,27600,28.75
2313,4.0,,,,,,40.0,,,,,120,note_off,,80.0,40.0,80.0,27720,28.875
2314,4.0,,,,,,43.0,,,,,120,note_on,,95.0,43.0,95.0,27840,29.0
2315,4.0,,,,,,43.0,,,,,120,note_off,,80.0,43.0,80.0,27960,29.125
2316,4.0,,,,,,40.0,,,,,240,note_on,,95.0,40.0,95.0,28200,29.375
2317,4.0,,,,,,40.0,,,,,120,note_off,,80.0,40.0,80.0,28320,29.5
2318,4.0,,,,,,38.0,,,,,240,note_on,,95.0,38.0,95.0,28560,29.75
2319,4.0,,,,,,38.0,,,,,240,note_off,,80.0,38.0,80.0,28800,30.0
2320,4.0,,,,,,36.0,,,,,0,note_on,,95.0,36.0,95.0,28800,30.0
2321,4.0,,,,,,36.0,,,,,960,note_off,,80.0,36.0,80.0,29760,31.0
2322,4.0,,,,,,35.0,,,,,0,note_on,,95.0,35.0,95.0,29760,31.0
2323,4.0,,,,,,35.0,,,,,960,note_off,,80.0,35.0,80.0,30720,32.0
2324,4.0,,,,,,40.0,,,,,0,note_on,,95.0,40.0,95.0,30720,32.0
2325,4.0,,,,,,40.0,,,,,720,note_off,,80.0,40.0,80.0,31440,32.75
2326,4.0,,,,,,40.0,,,,,0,note_on,,95.0,40.0,95.0,31440,32.75
2327,4.0,,,,,,40.0,,,,,120,note_off,,80.0,40.0,80.0,31560,32.875
2328,4.0,,,,,,43.0,,,,,120,note_on,,95.0,43.0,95.0,31680,33.0
2329,4.0,,,,,,43.0,,,,,120,note_off,,80.0,43.0,80.0,31800,33.125
2330,4.0,,,,,,40.0,,,,,240,note_on,,95.0,40.0,95.0,32040,33.375
2331,4.0,,,,,,40.0,,,,,120,note_off,,80.0,40.0,80.0,32160,33.5
2332,4.0,,,,,,38.0,,,,,240,note_on,,95.0,38.0,95.0,32400,33.75
2333,4.0,,,,,,38.0,,,,,240,note_off,,80.0,38.0,80.0,32640,34.0
2334,4.0,,,,,,36.0,,,,,0,note_on,,95.0,36.0,95.0,32640,34.0
2335,4.0,,,,,,36.0,,,,,960,note_off,,80.0,36.0,80.0,33600,35.0
2336,4.0,,,,,,35.0,,,,,0,note_on,,95.0,35.0,95.0,33600,35.0
2337,4.0,,,,,,35.0,,,,,960,note_off,,80.0,35.0,80.0,34560,36.0
2338,4.0,,,,,,40.0,,,,,0,note_on,,95.0,40.0,95.0,34560,36.0
2339,4.0,,,,,,40.0,,,,,720,note_off,,80.0,40.0,80.0,35280,36.75
2340,4.0,,,,,,40.0,,,,,0,note_on,,95.0,40.0,95.0,35280,36.75
2341,4.0,,,,,,40.0,,,,,120,note_off,,80.0,40.0,80.0,35400,36.875
2342,4.0,,,,,,43.0,,,,,120,note_on,,95.0,43.0,95.0,35520,37.0
2343,4.0,,,,,,43.0,,,,,120,note_off,,80.0,43.0,80.0,35640,37.125
2344,4.0,,,,,,40.0,,,,,240,note_on,,95.0,40.0,95.0,35880,37.375
2345,4.0,,,,,,40.0,,,,,120,note_off,,80.0,40.0,80.0,36000,37.5
2346,4.0,,,,,,38.0,,,,,240,note_on,,95.0,38.0,95.0,36240,37.75
2347,4.0,,,,,,38.0,,,,,240,note_off,,80.0,38.0,80.0,36480,38.0
2348,4.0,,,,,,36.0,,,,,0,note_on,,95.0,36.0,95.0,36480,38.0
2349,4.0,,,,,,36.0,,,,,960,note_off,,80.0,36.0,80.0,37440,39.0
2350,4.0,,,,,,35.0,,,,,0,note_on,,95.0,35.0,95.0,37440,39.0
2351,4.0,,,,,,35.0,,,,,960,note_off,,80.0,35.0,80.0,38400,40.0
2352,4.0,,,,,,40.0,,,,,0,note_on,,95.0,40.0,95.0,38400,40.0
2353,4.0,,,,,,40.0,,,,,720,note_off,,80.0,40.0,80.0,39120,40.75
2354,4.0,,,,,,40.0,,,,,0,note_on,,95.0,40.0,95.0,39120,40.75
2355,4.0,,,,,,40.0,,,,,120,note_off,,80.0,40.0,80.0,39240,40.875
2356,4.0,,,,,,43.0,,,,,120,note_on,,95.0,43.0,95.0,39360,41.0
2357,4.0,,,,,,43.0,,,,,120,note_off,,80.0,43.0,80.0,39480,41.125
2358,4.0,,,,,,40.0,,,,,240,note_on,,95.0,40.0,95.0,39720,41.375
2359,4.0,,,,,,40.0,,,,,120,note_off,,80.0,40.0,80.0,39840,41.5
2360,4.0,,,,,,38.0,,,,,240,note_on,,95.0,38.0,95.0,40080,41.75
2361,4.0,,,,,,38.0,,,,,240,note_off,,80.0,38.0,80.0,40320,42.0
2362,4.0,,,,,,36.0,,,,,0,note_on,,95.0,36.0,95.0,40320,42.0
2363,4.0,,,,,,36.0,,,,,960,note_off,,80.0,36.0,80.0,41280,43.0
2364,4.0,,,,,,35.0,,,,,0,note_on,,95.0,35.0,95.0,41280,43.0
2365,4.0,,,,,,35.0,,,,,960,note_off,,80.0,35.0,80.0,42240,44.0
2366,4.0,,,,,,40.0,,,,,0,note_on,,95.0,40.0,95.0,42240,44.0
2367,4.0,,,,,,40.0,,,,,720,note_off,,80.0,40.0,80.0,42960,44.75
2368,4.0,,,,,,40.0,,,,,0,note_on,,95.0,40.0,95.0,42960,44.75
2369,4.0,,,,,,40.0,,,,,120,note_off,,80.0,40.0,80.0,43080,44.875
2370,4.0,,,,,,43.0,,,,,120,note_on,,95.0,43.0,95.0,43200,45.0
2371,4.0,,,,,,43.0,,,,,120,note_off,,80.0,43.0,80.0,43320,45.125
2372,4.0,,,,,,40.0,,,,,240,note_on,,95.0,40.0,95.0,43560,45.375
2373,4.0,,,,,,40.0,,,,,120,note_off,,80.0,40.0,80.0,43680,45.5
2374,4.0,,,,,,38.0,,,,,240,note_on,,95.0,38.0,95.0,43920,45.75
2375,4.0,,,,,,38.0,,,,,240,note_off,,80.0,38.0,80.0,44160,46.0
2376,4.0,,,,,,36.0,,,,,0,note_on,,95.0,36.0,95.0,44160,46.0
2377,4.0,,,,,,36.0,,,,,960,note_off,,80.0,36.0,80.0,45120,47.0
2378,4.0,,,,,,35.0,,,,,0,note_on,,95.0,35.0,95.0,45120,47.0
2379,4.0,,,,,,35.0,,,,,960,note_off,,80.0,35.0,80.0,46080,48.0
2380,4.0,,,,,,31.0,,,,,0,note_on,,95.0,31.0,95.0,46080,48.0
2381,4.0,,,,,,31.0,,,,,240,note_off,,80.0,31.0,80.0,46320,48.25
2382,4.0,,,,,,31.0,,,,,0,note_on,,95.0,31.0,95.0,46320,48.25
2383,4.0,,,,,,31.0,,,,,240,note_off,,80.0,31.0,80.0,46560,48.5
2384,4.0,,,,,,31.0,,,,,0,note_on,,95.0,31.0,95.0,46560,48.5
2385,4.0,,,,,,31.0,,,,,240,note_off,,80.0,31.0,80.0,46800,48.75
2386,4.0,,,,,,31.0,,,,,0,note_on,,95.0,31.0,95.0,46800,48.75
2387,4.0,,,,,,31.0,,,,,240,note_off,,80.0,31.0,80.0,47040,49.0
2388,4.0,,,,,,31.0,,,,,0,note_on,,95.0,31.0,95.0,47040,49.0
2389,4.0,,,,,,31.0,,,,,240,note_off,,80.0,31.0,80.0,47280,49.25
2390,4.0,,,,,,31.0,,,,,0,note_on,,95.0,31.0,95.0,47280,49.25
2391,4.0,,,,,,31.0,,,,,240,note_off,,80.0,31.0,80.0,47520,49.5
2392,4.0,,,,,,31.0,,,,,0,note_on,,95.0,31.0,95.0,47520,49.5
2393,4.0,,,,,,31.0,,,,,240,note_off,,80.0,31.0,80.0,47760,49.75
2394,4.0,,,,,,31.0,,,,,0,note_on,,95.0,31.0,95.0,47760,49.75
2395,4.0,,,,,,31.0,,,,,240,note_off,,80.0,31.0,80.0,48000,50.0
2396,4.0,,,,,,33.0,,,,,0,note_on,,95.0,33.0,95.0,48000,50.0
2397,4.0,,,,,,33.0,,,,,240,note_off,,80.0,33.0,80.0,48240,50.25
2398,4.0,,,,,,33.0,,,,,0,note_on,,95.0,33.0,95.0,48240,50.25
2399,4.0,,,,,,33.0,,,,,240,note_off,,80.0,33.0,80.0,48480,50.5
2400,4.0,,,,,,33.0,,,,,0,note_on,,95.0,33.0,95.0,48480,50.5
2401,4.0,,,,,,33.0,,,,,240,note_off,,80.0,33.0,80.0,48720,50.75
2402,4.0,,,,,,33.0,,,,,0,note_on,,95.0,33.0,95.0,48720,50.75
2403,4.0,,,,,,33.0,,,,,240,note_off,,80.0,33.0,80.0,48960,51.0
2404,4.0,,,,,,33.0,,,,,0,note_on,,95.0,33.0,95.0,48960,51.0
2405,4.0,,,,,,33.0,,,,,240,note_off,,80.0,33.0,80.0,49200,51.25
2406,4.0,,,,,,33.0,,,,,0,note_on,,95.0,33.0,95.0,49200,51.25
2407,4.0,,,,,,33.0,,,,,240,note_off,,80.0,33.0,80.0,49440,51.5
2408,4.0,,,,,,33.0,,,,,0,note_on,,95.0,33.0,95.0,49440,51.5
2409,4.0,,,,,,33.0,,,,,240,note_off,,80.0,33.0,80.0,49680,51.75
2410,4.0,,,,,,33.0,,,,,0,note_on,,95.0,33.0,95.0,49680,51.75
2411,4.0,,,,,,33.0,,,,,240,note_off,,80.0,33.0,80.0,49920,52.0
2412,4.0,,,,,,40.0,,,,,0,note_on,,95.0,40.0,95.0,49920,52.0
2413,4.0,,,,,,40.0,,,,,720,note_off,,80.0,40.0,80.0,50640,52.75
2414,4.0,,,,,,40.0,,,,,0,note_on,,95.0,40.0,95.0,50640,52.75
2415,4.0,,,,,,40.0,,,,,120,note_off,,80.0,40.0,80.0,50760,52.875
2416,4.0,,,,,,43.0,,,,,120,note_on,,95.0,43.0,95.0,50880,53.0
2417,4.0,,,,,,43.0,,,,,120,note_off,,80.0,43.0,80.0,51000,53.125
2418,4.0,,,,,,40.0,,,,,240,note_on,,95.0,40.0,95.0,51240,53.375
2419,4.0,,,,,,40.0,,,,,120,note_off,,80.0,40.0,80.0,51360,53.5
2420,4.0,,,,,,38.0,,,,,240,note_on,,95.0,38.0,95.0,51600,53.75
2421,4.0,,,,,,38.0,,,,,240,note_off,,80.0,38.0,80.0,51840,54.0
2422,4.0,,,,,,36.0,,,,,0,note_on,,95.0,36.0,95.0,51840,54.0
2423,4.0,,,,,,36.0,,,,,960,note_off,,80.0,36.0,80.0,52800,55.0
2424,4.0,,,,,,35.0,,,,,0,note_on,,95.0,35.0,95.0,52800,55.0
2425,4.0,,,,,,35.0,,,,,960,note_off,,80.0,35.0,80.0,53760,56.0
2426,4.0,,,,,,40.0,,,,,0,note_on,,95.0,40.0,95.0,53760,56.0
2427,4.0,,,,,,40.0,,,,,720,note_off,,80.0,40.0,80.0,54480,56.75
2428,4.0,,,,,,40.0,,,,,0,note_on,,95.0,40.0,95.0,54480,56.75
2429,4.0,,,,,,40.0,,,,,120,note_off,,80.0,40.0,80.0,54600,56.875
2430,4.0,,,,,,43.0,,,,,120,note_on,,95.0,43.0,95.0,54720,57.0
2431,4.0,,,,,,43.0,,,,,120,note_off,,80.0,43.0,80.0,54840,57.125
2432,4.0,,,,,,40.0,,,,,240,note_on,,95.0,40.0,95.0,55080,57.375
2433,4.0,,,,,,40.0,,,,,120,note_off,,80.0,40.0,80.0,55200,57.5
2434,4.0,,,,,,38.0,,,,,240,note_on,,95.0,38.0,95.0,55440,57.75
2435,4.0,,,,,,38.0,,,,,240,note_off,,80.0,38.0,80.0,55680,58.0
2436,4.0,,,,,,36.0,,,,,0,note_on,,95.0,36.0,95.0,55680,58.0
2437,4.0,,,,,,36.0,,,,,360,note_off,,80.0,36.0,80.0,56040,58.375
2438,4.0,,,,,,38.0,,,,,0,note_on,,95.0,38.0,95.0,56040,58.375
2439,4.0,,,,,,38.0,,,,,360,note_off,,80.0,38.0,80.0,56400,58.75
2440,4.0,,,,,,36.0,,,,,0,note_on,,95.0,36.0,95.0,56400,58.75
2441,4.0,,,,,,36.0,,,,,240,note_off,,80.0,36.0,80.0,56640,59.0
2442,4.0,,,,,,35.0,,,,,0,note_on,,95.0,35.0,95.0,56640,59.0
2443,4.0,,,,,,35.0,,,,,960,note_off,,80.0,35.0,80.0,57600,60.0
2444,4.0,,,,,,40.0,,,,,0,note_on,,95.0,40.0,95.0,57600,60.0
2445,4.0,,,,,,40.0,,,,,720,note_off,,80.0,40.0,80.0,58320,60.75
2446,4.0,,,,,,40.0,,,,,0,note_on,,95.0,40.0,95.0,58320,60.75
2447,4.0,,,,,,40.0,,,,,120,note_off,,80.0,40.0,80.0,58440,60.875
2448,4.0,,,,,,43.0,,,,,120,note_on,,95.0,43.0,95.0,58560,61.0
2449,4.0,,,,,,43.0,,,,,120,note_off,,80.0,43.0,80.0,58680,61.125
2450,4.0,,,,,,40.0,,,,,240,note_on,,95.0,40.0,95.0,58920,61.375
2451,4.0,,,,,,40.0,,,,,120,note_off,,80.0,40.0,80.0,59040,61.5
2452,4.0,,,,,,38.0,,,,,240,note_on,,95.0,38.0,95.0,59280,61.75
2453,4.0,,,,,,38.0,,,,,240,note_off,,80.0,38.0,80.0,59520,62.0
2454,4.0,,,,,,36.0,,,,,0,note_on,,95.0,36.0,95.0,59520,62.0
2455,4.0,,,,,,36.0,,,,,960,note_off,,80.0,36.0,80.0,60480,63.0
2456,4.0,,,,,,35.0,,,,,0,note_on,,95.0,35.0,95.0,60480,63.0
2457,4.0,,,,,,35.0,,,,,960,note_off,,80.0,35.0,80.0,61440,64.0
2458,4.0,,,,,,40.0,,,,,0,note_on,,95.0,40.0,95.0,61440,64.0
2459,4.0,,,,,,40.0,,,,,720,note_off,,80.0,40.0,80.0,62160,64.75
2460,4.0,,,,,,40.0,,,,,0,note_on,,95.0,40.0,95.0,62160,64.75
2461,4.0,,,,,,40.0,,,,,120,note_off,,80.0,40.0,80.0,62280,64.875
2462,4.0,,,,,,43.0,,,,,120,note_on,,95.0,43.0,95.0,62400,65.0
2463,4.0,,,,,,43.0,,,,,120,note_off,,80.0,43.0,80.0,62520,65.125
2464,4.0,,,,,,40.0,,,,,240,note_on,,95.0,40.0,95.0,62760,65.375
2465,4.0,,,,,,40.0,,,,,120,note_off,,80.0,40.0,80.0,62880,65.5
2466,4.0,,,,,,38.0,,,,,240,note_on,,95.0,38.0,95.0,63120,65.75
2467,4.0,,,,,,38.0,,,,,240,note_off,,80.0,38.0,80.0,63360,66.0
2468,4.0,,,,,,36.0,,,,,0,note_on,,95.0,36.0,95.0,63360,66.0
2469,4.0,,,,,,36.0,,,,,360,note_off,,80.0,36.0,80.0,63720,66.375
2470,4.0,,,,,,38.0,,,,,0,note_on,,95.0,38.0,95.0,63720,66.375
2471,4.0,,,,,,38.0,,,,,360,note_off,,80.0,38.0,80.0,64080,66.75
2472,4.0,,,,,,36.0,,,,,0,note_on,,95.0,36.0,95.0,64080,66.75
2473,4.0,,,,,,36.0,,,,,240,note_off,,80.0,36.0,80.0,64320,67.0
2474,4.0,,,,,,35.0,,,,,0,note_on,,95.0,35.0,95.0,64320,67.0
2475,4.0,,,,,,35.0,,,,,960,note_off,,80.0,35.0,80.0,65280,68.0
2476,4.0,,,,,,31.0,,,,,0,note_on,,95.0,31.0,95.0,65280,68.0
2477,4.0,,,,,,31.0,,,,,240,note_off,,80.0,31.0,80.0,65520,68.25
2478,4.0,,,,,,31.0,,,,,0,note_on,,95.0,31.0,95.0,65520,68.25
2479,4.0,,,,,,31.0,,,,,240,note_off,,80.0,31.0,80.0,65760,68.5
2480,4.0,,,,,,31.0,,,,,0,note_on,,95.0,31.0,95.0,65760,68.5
2481,4.0,,,,,,31.0,,,,,240,note_off,,80.0,31.0,80.0,66000,68.75
2482,4.0,,,,,,31.0,,,,,0,note_on,,95.0,31.0,95.0,66000,68.75
2483,4.0,,,,,,31.0,,,,,240,note_off,,80.0,31.0,80.0,66240,69.0
2484,4.0,,,,,,31.0,,,,,0,note_on,,95.0,31.0,95.0,66240,69.0
2485,4.0,,,,,,31.0,,,,,240,note_off,,80.0,31.0,80.0,66480,69.25
2486,4.0,,,,,,31.0,,,,,0,note_on,,95.0,31.0,95.0,66480,69.25
2487,4.0,,,,,,31.0,,,,,240,note_off,,80.0,31.0,80.0,66720,69.5
2488,4.0,,,,,,31.0,,,,,0,note_on,,95.0,31.0,95.0,66720,69.5
2489,4.0,,,,,,31.0,,,,,240,note_off,,80.0,31.0,80.0,66960,69.75
2490,4.0,,,,,,31.0,,,,,0,note_on,,95.0,31.0,95.0,66960,69.75
2491,4.0,,,,,,31.0,,,,,240,note_off,,80.0,31.0,80.0,67200,70.0
2492,4.0,,,,,,33.0,,,,,0,note_on,,95.0,33.0,95.0,67200,70.0
2493,4.0,,,,,,33.0,,,,,240,note_off,,80.0,33.0,80.0,67440,70.25
2494,4.0,,,,,,33.0,,,,,0,note_on,,95.0,33.0,95.0,67440,70.25
2495,4.0,,,,,,33.0,,,,,240,note_off,,80.0,33.0,80.0,67680,70.5
2496,4.0,,,,,,33.0,,,,,0,note_on,,95.0,33.0,95.0,67680,70.5
2497,4.0,,,,,,33.0,,,,,240,note_off,,80.0,33.0,80.0,67920,70.75
2498,4.0,,,,,,33.0,,,,,0,note_on,,95.0,33.0,95.0,67920,70.75
2499,4.0,,,,,,33.0,,,,,240,note_off,,80.0,33.0,80.0,68160,71.0
2500,4.0,,,,,,33.0,,,,,0,note_on,,95.0,33.0,95.0,68160,71.0
2501,4.0,,,,,,33.0,,,,,240,note_off,,80.0,33.0,80.0,68400,71.25
2502,4.0,,,,,,33.0,,,,,0,note_on,,95.0,33.0,95.0,68400,71.25
2503,4.0,,,,,,33.0,,,,,240,note_off,,80.0,33.0,80.0,68640,71.5
2504,4.0,,,,,,33.0,,,,,0,note_on,,95.0,33.0,95.0,68640,71.5
2505,4.0,,,,,,33.0,,,,,240,note_off,,80.0,33.0,80.0,68880,71.75
2506,4.0,,,,,,33.0,,,,,0,note_on,,95.0,33.0,95.0,68880,71.75
2507,4.0,,,,,,33.0,,,,,240,note_off,,80.0,33.0,80.0,69120,72.0
2508,4.0,,,,,,40.0,,,,,0,note_on,,95.0,40.0,95.0,69120,72.0
2509,4.0,,,,,,40.0,,,,,720,note_off,,80.0,40.0,80.0,69840,72.75
2510,4.0,,,,,,40.0,,,,,0,note_on,,95.0,40.0,95.0,69840,72.75
2511,4.0,,,,,,40.0,,,,,120,note_off,,80.0,40.0,80.0,69960,72.875
2512,4.0,,,,,,43.0,,,,,120,note_on,,95.0,43.0,95.0,70080,73.0
2513,4.0,,,,,,43.0,,,,,120,note_off,,80.0,43.0,80.0,70200,73.125
2514,4.0,,,,,,40.0,,,,,240,note_on,,95.0,40.0,95.0,70440,73.375
2515,4.0,,,,,,40.0,,,,,120,note_off,,80.0,40.0,80.0,70560,73.5
2516,4.0,,,,,,38.0,,,,,240,note_on,,95.0,38.0,95.0,70800,73.75
2517,4.0,,,,,,38.0,,,,,240,note_off,,80.0,38.0,80.0,71040,74.0
2518,4.0,,,,,,36.0,,,,,0,note_on,,95.0,36.0,95.0,71040,74.0
2519,4.0,,,,,,36.0,,,,,960,note_off,,80.0,36.0,80.0,72000,75.0
2520,4.0,,,,,,35.0,,,,,0,note_on,,95.0,35.0,95.0,72000,75.0
2521,4.0,,,,,,35.0,,,,,960,note_off,,80.0,35.0,80.0,72960,76.0
2522,4.0,,,,,,40.0,,,,,0,note_on,,95.0,40.0,95.0,72960,76.0
2523,4.0,,,,,,40.0,,,,,720,note_off,,80.0,40.0,80.0,73680,76.75
2524,4.0,,,,,,40.0,,,,,0,note_on,,95.0,40.0,95.0,73680,76.75
2525,4.0,,,,,,40.0,,,,,120,note_off,,80.0,40.0,80.0,73800,76.875
2526,4.0,,,,,,43.0,,,,,120,note_on,,95.0,43.0,95.0,73920,77.0
2527,4.0,,,,,,43.0,,,,,120,note_off,,80.0,43.0,80.0,74040,77.125
2528,4.0,,,,,,40.0,,,,,240,note_on,,95.0,40.0,95.0,74280,77.375
2529,4.0,,,,,,40.0,,,,,120,note_off,,80.0,40.0,80.0,74400,77.5
2530,4.0,,,,,,38.0,,,,,240,note_on,,95.0,38.0,95.0,74640,77.75
2531,4.0,,,,,,38.0,,,,,240,note_off,,80.0,38.0,80.0,74880,78.0
2532,4.0,,,,,,36.0,,,,,0,note_on,,95.0,36.0,95.0,74880,78.0
2533,4.0,,,,,,36.0,,,,,960,note_off,,80.0,36.0,80.0,75840,79.0
2534,4.0,,,,,,35.0,,,,,0,note_on,,95.0,35.0,95.0,75840,79.0
2535,4.0,,,,,,35.0,,,,,960,note_off,,80.0,35.0,80.0,76800,80.0
2536,4.0,,,,,,40.0,,,,,0,note_on,,95.0,40.0,95.0,76800,80.0
2537,4.0,,,,,,40.0,,,,,720,note_off,,80.0,40.0,80.0,77520,80.75
2538,4.0,,,,,,40.0,,,,,0,note_on,,95.0,40.0,95.0,77520,80.75
2539,4.0,,,,,,40.0,,,,,120,note_off,,80.0,40.0,80.0,77640,80.875
2540,4.0,,,,,,43.0,,,,,120,note_on,,95.0,43.0,95.0,77760,81.0
2541,4.0,,,,,,43.0,,,,,120,note_off,,80.0,43.0,80.0,77880,81.125
2542,4.0,,,,,,40.0,,,,,240,note_on,,95.0,40.0,95.0,78120,81.375
2543,4.0,,,,,,40.0,,,,,120,note_off,,80.0,40.0,80.0,78240,81.5
2544,4.0,,,,,,38.0,,,,,240,note_on,,95.0,38.0,95.0,78480,81.75
2545,4.0,,,,,,38.0,,,,,240,note_off,,80.0,38.0,80.0,78720,82.0
2546,4.0,,,,,,36.0,,,,,0,note_on,,95.0,36.0,95.0,78720,82.0
2547,4.0,,,,,,36.0,,,,,960,note_off,,80.0,36.0,80.0,79680,83.0
2548,4.0,,,,,,35.0,,,,,0,note_on,,95.0,35.0,95.0,79680,83.0
2549,4.0,,,,,,35.0,,,,,960,note_off,,80.0,35.0,80.0,80640,84.0
2550,4.0,,,,,,40.0,,,,,0,note_on,,95.0,40.0,95.0,80640,84.0
2551,4.0,,,,,,40.0,,,,,720,note_off,,80.0,40.0,80.0,81360,84.75
2552,4.0,,,,,,40.0,,,,,0,note_on,,95.0,40.0,95.0,81360,84.75
2553,4.0,,,,,,40.0,,,,,120,note_off,,80.0,40.0,80.0,81480,84.875
2554,4.0,,,,,,43.0,,,,,120,note_on,,95.0,43.0,95.0,81600,85.0
2555,4.0,,,,,,43.0,,,,,120,note_off,,80.0,43.0,80.0,81720,85.125
2556,4.0,,,,,,40.0,,,,,240,note_on,,95.0,40.0,95.0,81960,85.375
2557,4.0,,,,,,40.0,,,,,120,note_off,,80.0,40.0,80.0,82080,85.5
2558,4.0,,,,,,38.0,,,,,240,note_on,,95.0,38.0,95.0,82320,85.75
2559,4.0,,,,,,38.0,,,,,240,note_off,,80.0,38.0,80.0,82560,86.0
2560,4.0,,,,,,36.0,,,,,0,note_on,,95.0,36.0,95.0,82560,86.0
2561,4.0,,,,,,36.0,,,,,960,note_off,,80.0,36.0,80.0,83520,87.0
2562,4.0,,,,,,35.0,,,,,0,note_on,,95.0,35.0,95.0,83520,87.0
2563,4.0,,,,,,35.0,,,,,960,note_off,,80.0,35.0,80.0,84480,88.0
2564,4.0,,,,,,40.0,,,,,0,note_on,,95.0,40.0,95.0,84480,88.0
2565,4.0,,,,,,40.0,,,,,720,note_off,,80.0,40.0,80.0,85200,88.75
2566,4.0,,,,,,40.0,,,,,0,note_on,,95.0,40.0,95.0,85200,88.75
2567,4.0,,,,,,40.0,,,,,120,note_off,,80.0,40.0,80.0,85320,88.875
2568,4.0,,,,,,43.0,,,,,120,note_on,,95.0,43.0,95.0,85440,89.0
2569,4.0,,,,,,43.0,,,,,120,note_off,,80.0,43.0,80.0,85560,89.125
2570,4.0,,,,,,40.0,,,,,240,note_on,,95.0,40.0,95.0,85800,89.375
2571,4.0,,,,,,40.0,,,,,120,note_off,,80.0,40.0,80.0,85920,89.5
2572,4.0,,,,,,38.0,,,,,240,note_on,,95.0,38.0,95.0,86160,89.75
2573,4.0,,,,,,38.0,,,,,240,note_off,,80.0,38.0,80.0,86400,90.0
2574,4.0,,,,,,36.0,,,,,0,note_on,,95.0,36.0,95.0,86400,90.0
2575,4.0,,,,,,36.0,,,,,960,note_off,,80.0,36.0,80.0,87360,91.0
2576,4.0,,,,,,35.0,,,,,0,note_on,,95.0,35.0,95.0,87360,91.0
2577,4.0,,,,,,35.0,,,,,960,note_off,,80.0,35.0,80.0,88320,92.0
2578,4.0,,,,,,40.0,,,,,0,note_on,,95.0,40.0,95.0,88320,92.0
2579,4.0,,,,,,40.0,,,,,720,note_off,,80.0,40.0,80.0,89040,92.75
2580,4.0,,,,,,40.0,,,,,0,note_on,,95.0,40.0,95.0,89040,92.75
2581,4.0,,,,,,40.0,,,,,120,note_off,,80.0,40.0,80.0,89160,92.875
2582,4.0,,,,,,43.0,,,,,120,note_on,,95.0,43.0,95.0,89280,93.0
2583,4.0,,,,,,43.0,,,,,120,note_off,,80.0,43.0,80.0,89400,93.125
2584,4.0,,,,,,40.0,,,,,240,note_on,,95.0,40.0,95.0,89640,93.375
2585,4.0,,,,,,40.0,,,,,120,note_off,,80.0,40.0,80.0,89760,93.5
2586,4.0,,,,,,38.0,,,,,240,note_on,,95.0,38.0,95.0,90000,93.75
2587,4.0,,,,,,38.0,,,,,240,note_off,,80.0,38.0,80.0,90240,94.0
2588,4.0,,,,,,36.0,,,,,0,note_on,,95.0,36.0,95.0,90240,94.0
2589,4.0,,,,,,36.0,,,,,960,note_off,,80.0,36.0,80.0,91200,95.0
2590,4.0,,,,,,35.0,,,,,0,note_on,,95.0,35.0,95.0,91200,95.0
2591,4.0,,,,,,35.0,,,,,960,note_off,,80.0,35.0,80.0,92160,96.0
2592,4.0,,,,,,40.0,,,,,0,note_on,,95.0,40.0,95.0,92160,96.0
2593,4.0,,,,,,40.0,,,,,720,note_off,,80.0,40.0,80.0,92880,96.75
2594,4.0,,,,,,40.0,,,,,0,note_on,,95.0,40.0,95.0,92880,96.75
2595,4.0,,,,,,40.0,,,,,120,note_off,,80.0,40.0,80.0,93000,96.875
2596,4.0,,,,,,43.0,,,,,120,note_on,,95.0,43.0,95.0,93120,97.0
2597,4.0,,,,,,43.0,,,,,120,note_off,,80.0,43.0,80.0,93240,97.125
2598,4.0,,,,,,40.0,,,,,240,note_on,,95.0,40.0,95.0,93480,97.375
2599,4.0,,,,,,40.0,,,,,120,note_off,,80.0,40.0,80.0,93600,97.5
2600,4.0,,,,,,38.0,,,,,240,note_on,,95.0,38.0,95.0,93840,97.75
2601,4.0,,,,,,38.0,,,,,240,note_off,,80.0,38.0,80.0,94080,98.0
2602,4.0,,,,,,36.0,,,,,0,note_on,,95.0,36.0,95.0,94080,98.0
2603,4.0,,,,,,36.0,,,,,960,note_off,,80.0,36.0,80.0,95040,99.0
2604,4.0,,,,,,35.0,,,,,0,note_on,,95.0,35.0,95.0,95040,99.0
2605,4.0,,,,,,35.0,,,,,960,note_off,,80.0,35.0,80.0,96000,100.0
2606,4.0,,,,,,40.0,,,,,0,note_on,,95.0,40.0,95.0,96000,100.0
2607,4.0,,,,,,40.0,,,,,720,note_off,,80.0,40.0,80.0,96720,100.75
2608,4.0,,,,,,40.0,,,,,0,note_on,,95.0,40.0,95.0,96720,100.75
2609,4.0,,,,,,40.0,,,,,120,note_off,,80.0,40.0,80.0,96840,100.875
2610,4.0,,,,,,43.0,,,,,120,note_on,,95.0,43.0,95.0,96960,101.0
2611,4.0,,,,,,43.0,,,,,120,note_off,,80.0,43.0,80.0,97080,101.125
2612,4.0,,,,,,40.0,,,,,240,note_on,,95.0,40.0,95.0,97320,101.375
2613,4.0,,,,,,40.0,,,,,120,note_off,,80.0,40.0,80.0,97440,101.5
2614,4.0,,,,,,38.0,,,,,240,note_on,,95.0,38.0,95.0,97680,101.75
2615,4.0,,,,,,38.0,,,,,240,note_off,,80.0,38.0,80.0,97920,102.0
2616,4.0,,,,,,36.0,,,,,0,note_on,,95.0,36.0,95.0,97920,102.0
2617,4.0,,,,,,36.0,,,,,960,note_off,,80.0,36.0,80.0,98880,103.0
2618,4.0,,,,,,35.0,,,,,0,note_on,,95.0,35.0,95.0,98880,103.0
2619,4.0,,,,,,35.0,,,,,960,note_off,,80.0,35.0,80.0,99840,104.0
2620,4.0,,,,,,40.0,,,,,0,note_on,,95.0,40.0,95.0,99840,104.0
2621,4.0,,,,,,40.0,,,,,720,note_off,,80.0,40.0,80.0,100560,104.75
2622,4.0,,,,,,40.0,,,,,0,note_on,,95.0,40.0,95.0,100560,104.75
2623,4.0,,,,,,40.0,,,,,120,note_off,,80.0,40.0,80.0,100680,104.875
2624,4.0,,,,,,43.0,,,,,120,note_on,,95.0,43.0,95.0,100800,105.0
2625,4.0,,,,,,43.0,,,,,120,note_off,,80.0,43.0,80.0,100920,105.125
2626,4.0,,,,,,40.0,,,,,240,note_on,,95.0,40.0,95.0,101160,105.375
2627,4.0,,,,,,40.0,,,,,120,note_off,,80.0,40.0,80.0,101280,105.5
2628,4.0,,,,,,38.0,,,,,240,note_on,,95.0,38.0,95.0,101520,105.75
2629,4.0,,,,,,38.0,,,,,240,note_off,,80.0,38.0,80.0,101760,106.0
2630,4.0,,,,,,36.0,,,,,0,note_on,,95.0,36.0,95.0,101760,106.0
2631,4.0,,,,,,36.0,,,,,960,note_off,,80.0,36.0,80.0,102720,107.0
2632,4.0,,,,,,35.0,,,,,0,note_on,,95.0,35.0,95.0,102720,107.0
2633,4.0,,,,,,35.0,,,,,960,note_off,,80.0,35.0,80.0,103680,108.0
2634,4.0,,,,,,40.0,,,,,0,note_on,,95.0,40.0,95.0,103680,108.0
2635,4.0,,,,,,40.0,,,,,720,note_off,,80.0,40.0,80.0,104400,108.75
2636,4.0,,,,,,40.0,,,,,0,note_on,,95.0,40.0,95.0,104400,108.75
2637,4.0,,,,,,40.0,,,,,120,note_off,,80.0,40.0,80.0,104520,108.875
2638,4.0,,,,,,43.0,,,,,120,note_on,,95.0,43.0,95.0,104640,109.0
2639,4.0,,,,,,43.0,,,,,120,note_off,,80.0,43.0,80.0,104760,109.125
2640,4.0,,,,,,40.0,,,,,240,note_on,,95.0,40.0,95.0,105000,109.375
2641,4.0,,,,,,40.0,,,,,120,note_off,,80.0,40.0,80.0,105120,109.5
2642,4.0,,,,,,38.0,,,,,240,note_on,,95.0,38.0,95.0,105360,109.75
2643,4.0,,,,,,38.0,,,,,240,note_off,,80.0,38.0,80.0,105600,110.0
2644,4.0,,,,,,36.0,,,,,0,note_on,,95.0,36.0,95.0,105600,110.0
2645,4.0,,,,,,36.0,,,,,960,note_off,,80.0,36.0,80.0,106560,111.0
2646,4.0,,,,,,35.0,,,,,0,note_on,,95.0,35.0,95.0,106560,111.0
2647,4.0,,,,,,35.0,,,,,960,note_off,,80.0,35.0,80.0,107520,112.0
2648,4.0,,,,,,40.0,,,,,0,note_on,,95.0,40.0,95.0,107520,112.0
2649,4.0,,,,,,40.0,,,,,720,note_off,,80.0,40.0,80.0,108240,112.75
2650,4.0,,,,,,40.0,,,,,0,note_on,,95.0,40.0,95.0,108240,112.75
2651,4.0,,,,,,40.0,,,,,120,note_off,,80.0,40.0,80.0,108360,112.875
2652,4.0,,,,,,43.0,,,,,120,note_on,,95.0,43.0,95.0,108480,113.0
2653,4.0,,,,,,43.0,,,,,120,note_off,,80.0,43.0,80.0,108600,113.125
2654,4.0,,,,,,40.0,,,,,240,note_on,,95.0,40.0,95.0,108840,113.375
2655,4.0,,,,,,40.0,,,,,120,note_off,,80.0,40.0,80.0,108960,113.5
2656,4.0,,,,,,38.0,,,,,240,note_on,,95.0,38.0,95.0,109200,113.75
2657,4.0,,,,,,38.0,,,,,240,note_off,,80.0,38.0,80.0,109440,114.0
2658,4.0,,,,,,36.0,,,,,0,note_on,,95.0,36.0,95.0,109440,114.0
2659,4.0,,,,,,36.0,,,,,960,note_off,,80.0,36.0,80.0,110400,115.0
2660,4.0,,,,,,35.0,,,,,0,note_on,,95.0,35.0,95.0,110400,115.0
2661,4.0,,,,,,35.0,,,,,960,note_off,,80.0,35.0,80.0,111360,116.0
2662,4.0,,,,,,40.0,,,,,0,note_on,,95.0,40.0,95.0,111360,116.0
2663,4.0,,,,,,40.0,,,,,720,note_off,,80.0,40.0,80.0,112080,116.75
2664,4.0,,,,,,40.0,,,,,0,note_on,,95.0,40.0,95.0,112080,116.75
2665,4.0,,,,,,40.0,,,,,120,note_off,,80.0,40.0,80.0,112200,116.875
2666,4.0,,,,,,43.0,,,,,120,note_on,,95.0,43.0,95.0,112320,117.0
2667,4.0,,,,,,43.0,,,,,120,note_off,,80.0,43.0,80.0,112440,117.125
2668,4.0,,,,,,40.0,,,,,240,note_on,,95.0,40.0,95.0,112680,117.375
2669,4.0,,,,,,40.0,,,,,120,note_off,,80.0,40.0,80.0,112800,117.5
2670,4.0,,,,,,38.0,,,,,240,note_on,,95.0,38.0,95.0,113040,117.75
2671,4.0,,,,,,38.0,,,,,240,note_off,,80.0,38.0,80.0,113280,118.0
2672,4.0,,,,,,36.0,,,,,0,note_on,,95.0,36.0,95.0,113280,118.0
2673,4.0,,,,,,36.0,,,,,960,note_off,,80.0,36.0,80.0,114240,119.0
2674,4.0,,,,,,35.0,,,,,0,note_on,,95.0,35.0,95.0,114240,119.0
2675,4.0,,,,,,35.0,,,,,960,note_off,,80.0,35.0,80.0,115200,120.0
2676,4.0,,,,,,31.0,,,,,0,note_on,,95.0,31.0,95.0,115200,120.0
2677,4.0,,,,,,31.0,,,,,240,note_off,,80.0,31.0,80.0,115440,120.25
2678,4.0,,,,,,31.0,,,,,0,note_on,,95.0,31.0,95.0,115440,120.25
2679,4.0,,,,,,31.0,,,,,240,note_off,,80.0,31.0,80.0,115680,120.5
2680,4.0,,,,,,31.0,,,,,0,note_on,,95.0,31.0,95.0,115680,120.5
2681,4.0,,,,,,31.0,,,,,240,note_off,,80.0,31.0,80.0,115920,120.75
2682,4.0,,,,,,31.0,,,,,0,note_on,,95.0,31.0,95.0,115920,120.75
2683,4.0,,,,,,31.0,,,,,240,note_off,,80.0,31.0,80.0,116160,121.0
2684,4.0,,,,,,31.0,,,,,0,note_on,,95.0,31.0,95.0,116160,121.0
2685,4.0,,,,,,31.0,,,,,240,note_off,,80.0,31.0,80.0,116400,121.25
2686,4.0,,,,,,31.0,,,,,0,note_on,,95.0,31.0,95.0,116400,121.25
2687,4.0,,,,,,31.0,,,,,240,note_off,,80.0,31.0,80.0,116640,121.5
2688,4.0,,,,,,31.0,,,,,0,note_on,,95.0,31.0,95.0,116640,121.5
2689,4.0,,,,,,31.0,,,,,240,note_off,,80.0,31.0,80.0,116880,121.75
2690,4.0,,,,,,31.0,,,,,0,note_on,,95.0,31.0,95.0,116880,121.75
2691,4.0,,,,,,31.0,,,,,240,note_off,,80.0,31.0,80.0,117120,122.0
2692,4.0,,,,,,33.0,,,,,0,note_on,,95.0,33.0,95.0,117120,122.0
2693,4.0,,,,,,33.0,,,,,240,note_off,,80.0,33.0,80.0,117360,122.25
2694,4.0,,,,,,33.0,,,,,0,note_on,,95.0,33.0,95.0,117360,122.25
2695,4.0,,,,,,33.0,,,,,240,note_off,,80.0,33.0,80.0,117600,122.5
2696,4.0,,,,,,33.0,,,,,0,note_on,,95.0,33.0,95.0,117600,122.5
2697,4.0,,,,,,33.0,,,,,240,note_off,,80.0,33.0,80.0,117840,122.75
2698,4.0,,,,,,33.0,,,,,0,note_on,,95.0,33.0,95.0,117840,122.75
2699,4.0,,,,,,33.0,,,,,240,note_off,,80.0,33.0,80.0,118080,123.0
2700,4.0,,,,,,33.0,,,,,0,note_on,,95.0,33.0,95.0,118080,123.0
2701,4.0,,,,,,33.0,,,,,240,note_off,,80.0,33.0,80.0,118320,123.25
2702,4.0,,,,,,33.0,,,,,0,note_on,,95.0,33.0,95.0,118320,123.25
2703,4.0,,,,,,33.0,,,,,240,note_off,,80.0,33.0,80.0,118560,123.5
2704,4.0,,,,,,33.0,,,,,0,note_on,,95.0,33.0,95.0,118560,123.5
2705,4.0,,,,,,33.0,,,,,240,note_off,,80.0,33.0,80.0,118800,123.75
2706,4.0,,,,,,33.0,,,,,0,note_on,,95.0,33.0,95.0,118800,123.75
2707,4.0,,,,,,33.0,,,,,240,note_off,,80.0,33.0,80.0,119040,124.0
2708,4.0,,,,,,40.0,,,,,0,note_on,,95.0,40.0,95.0,119040,124.0
2709,4.0,,,,,,40.0,,,,,720,note_off,,80.0,40.0,80.0,119760,124.75
2710,4.0,,,,,,40.0,,,,,0,note_on,,95.0,40.0,95.0,119760,124.75
2711,4.0,,,,,,40.0,,,,,120,note_off,,80.0,40.0,80.0,119880,124.875
2712,4.0,,,,,,43.0,,,,,120,note_on,,95.0,43.0,95.0,120000,125.0
2713,4.0,,,,,,43.0,,,,,120,note_off,,80.0,43.0,80.0,120120,125.125
2714,4.0,,,,,,40.0,,,,,240,note_on,,95.0,40.0,95.0,120360,125.375
2715,4.0,,,,,,40.0,,,,,120,note_off,,80.0,40.0,80.0,120480,125.5
2716,4.0,,,,,,38.0,,,,,240,note_on,,95.0,38.0,95.0,120720,125.75
2717,4.0,,,,,,38.0,,,,,240,note_off,,80.0,38.0,80.0,120960,126.0
2718,4.0,,,,,,36.0,,,,,0,note_on,,95.0,36.0,95.0,120960,126.0
2719,4.0,,,,,,36.0,,,,,960,note_off,,80.0,36.0,80.0,121920,127.0
2720,4.0,,,,,,35.0,,,,,0,note_on,,95.0,35.0,95.0,121920,127.0
2721,4.0,,,,,,35.0,,,,,960,note_off,,80.0,35.0,80.0,122880,128.0
2722,4.0,,,,,,40.0,,,,,0,note_on,,95.0,40.0,95.0,122880,128.0
2723,4.0,,,,,,40.0,,,,,720,note_off,,80.0,40.0,80.0,123600,128.75
2724,4.0,,,,,,40.0,,,,,0,note_on,,95.0,40.0,95.0,123600,128.75
2725,4.0,,,,,,40.0,,,,,120,note_off,,80.0,40.0,80.0,123720,128.875
2726,4.0,,,,,,43.0,,,,,120,note_on,,95.0,43.0,95.0,123840,129.0
2727,4.0,,,,,,43.0,,,,,120,note_off,,80.0,43.0,80.0,123960,129.125
2728,4.0,,,,,,40.0,,,,,240,note_on,,95.0,40.0,95.0,124200,129.375
2729,4.0,,,,,,40.0,,,,,120,note_off,,80.0,40.0,80.0,124320,129.5
2730,4.0,,,,,,38.0,,,,,240,note_on,,95.0,38.0,95.0,124560,129.75
2731,4.0,,,,,,38.0,,,,,240,note_off,,80.0,38.0,80.0,124800,130.0
2732,4.0,,,,,,36.0,,,,,0,note_on,,95.0,36.0,95.0,124800,130.0
2733,4.0,,,,,,36.0,,,,,360,note_off,,80.0,36.0,80.0,125160,130.375
2734,4.0,,,,,,38.0,,,,,0,note_on,,95.0,38.0,95.0,125160,130.375
2735,4.0,,,,,,38.0,,,,,360,note_off,,80.0,38.0,80.0,125520,130.75
2736,4.0,,,,,,36.0,,,,,0,note_on,,95.0,36.0,95.0,125520,130.75
2737,4.0,,,,,,36.0,,,,,240,note_off,,80.0,36.0,80.0,125760,131.0
2738,4.0,,,,,,35.0,,,,,0,note_on,,95.0,35.0,95.0,125760,131.0
2739,4.0,,,,,,35.0,,,,,960,note_off,,80.0,35.0,80.0,126720,132.0
2740,4.0,,,,,,40.0,,,,,0,note_on,,95.0,40.0,95.0,126720,132.0
2741,4.0,,,,,,40.0,,,,,720,note_off,,80.0,40.0,80.0,127440,132.75
2742,4.0,,,,,,40.0,,,,,0,note_on,,95.0,40.0,95.0,127440,132.75
2743,4.0,,,,,,40.0,,,,,120,note_off,,80.0,40.0,80.0,127560,132.875
2744,4.0,,,,,,43.0,,,,,120,note_on,,95.0,43.0,95.0,127680,133.0
2745,4.0,,,,,,43.0,,,,,120,note_off,,80.0,43.0,80.0,127800,133.125
2746,4.0,,,,,,40.0,,,,,240,note_on,,95.0,40.0,95.0,128040,133.375
2747,4.0,,,,,,40.0,,,,,120,note_off,,80.0,40.0,80.0,128160,133.5
2748,4.0,,,,,,38.0,,,,,240,note_on,,95.0,38.0,95.0,128400,133.75
2749,4.0,,,,,,38.0,,,,,240,note_off,,80.0,38.0,80.0,128640,134.0
2750,4.0,,,,,,36.0,,,,,0,note_on,,95.0,36.0,95.0,128640,134.0
2751,4.0,,,,,,36.0,,,,,960,note_off,,80.0,36.0,80.0,129600,135.0
2752,4.0,,,,,,35.0,,,,,0,note_on,,95.0,35.0,95.0,129600,135.0
2753,4.0,,,,,,35.0,,,,,960,note_off,,80.0,35.0,80.0,130560,136.0
2754,4.0,,,,,,40.0,,,,,0,note_on,,95.0,40.0,95.0,130560,136.0
2755,4.0,,,,,,40.0,,,,,720,note_off,,80.0,40.0,80.0,131280,136.75
2756,4.0,,,,,,40.0,,,,,0,note_on,,95.0,40.0,95.0,131280,136.75
2757,4.0,,,,,,40.0,,,,,120,note_off,,80.0,40.0,80.0,131400,136.875
2758,4.0,,,,,,43.0,,,,,120,note_on,,95.0,43.0,95.0,131520,137.0
2759,4.0,,,,,,43.0,,,,,120,note_off,,80.0,43.0,80.0,131640,137.125
2760,4.0,,,,,,40.0,,,,,240,note_on,,95.0,40.0,95.0,131880,137.375
2761,4.0,,,,,,40.0,,,,,120,note_off,,80.0,40.0,80.0,132000,137.5
2762,4.0,,,,,,38.0,,,,,240,note_on,,95.0,38.0,95.0,132240,137.75
2763,4.0,,,,,,38.0,,,,,240,note_off,,80.0,38.0,80.0,132480,138.0
2764,4.0,,,,,,36.0,,,,,0,note_on,,95.0,36.0,95.0,132480,138.0
2765,4.0,,,,,,36.0,,,,,360,note_off,,80.0,36.0,80.0,132840,138.375
2766,4.0,,,,,,38.0,,,,,0,note_on,,95.0,38.0,95.0,132840,138.375
2767,4.0,,,,,,38.0,,,,,360,note_off,,80.0,38.0,80.0,133200,138.75
2768,4.0,,,,,,36.0,,,,,0,note_on,,95.0,36.0,95.0,133200,138.75
2769,4.0,,,,,,36.0,,,,,240,note_off,,80.0,36.0,80.0,133440,139.0
2770,4.0,,,,,,35.0,,,,,0,note_on,,95.0,35.0,95.0,133440,139.0
2771,4.0,,,,,,35.0,,,,,960,note_off,,80.0,35.0,80.0,134400,140.0
2772,4.0,,,,,,40.0,,,,,0,note_on,,95.0,40.0,95.0,134400,140.0
2773,4.0,,,,,,40.0,,,,,720,note_off,,80.0,40.0,80.0,135120,140.75
2774,4.0,,,,,,40.0,,,,,0,note_on,,95.0,40.0,95.0,135120,140.75
2775,4.0,,,,,,40.0,,,,,120,note_off,,80.0,40.0,80.0,135240,140.875
2776,4.0,,,,,,43.0,,,,,120,note_on,,95.0,43.0,95.0,135360,141.0
2777,4.0,,,,,,43.0,,,,,120,note_off,,80.0,43.0,80.0,135480,141.125
2778,4.0,,,,,,40.0,,,,,240,note_on,,95.0,40.0,95.0,135720,141.375
2779,4.0,,,,,,40.0,,,,,120,note_off,,80.0,40.0,80.0,135840,141.5
2780,4.0,,,,,,38.0,,,,,240,note_on,,95.0,38.0,95.0,136080,141.75
2781,4.0,,,,,,38.0,,,,,240,note_off,,80.0,38.0,80.0,136320,142.0
2782,4.0,,,,,,36.0,,,,,0,note_on,,95.0,36.0,95.0,136320,142.0
2783,4.0,,,,,,36.0,,,,,960,note_off,,80.0,36.0,80.0,137280,143.0
2784,4.0,,,,,,35.0,,,,,0,note_on,,95.0,35.0,95.0,137280,143.0
2785,4.0,,,,,,35.0,,,,,960,note_off,,80.0,35.0,80.0,138240,144.0
2786,4.0,,,,,,40.0,,,,,0,note_on,,95.0,40.0,95.0,138240,144.0
2787,4.0,,,,,,40.0,,,,,720,note_off,,80.0,40.0,80.0,138960,144.75
2788,4.0,,,,,,40.0,,,,,0,note_on,,95.0,40.0,95.0,138960,144.75
2789,4.0,,,,,,40.0,,,,,120,note_off,,80.0,40.0,80.0,139080,144.875
2790,4.0,,,,,,43.0,,,,,120,note_on,,95.0,43.0,95.0,139200,145.0
2791,4.0,,,,,,43.0,,,,,120,note_off,,80.0,43.0,80.0,139320,145.125
2792,4.0,,,,,,40.0,,,,,240,note_on,,95.0,40.0,95.0,139560,145.375
2793,4.0,,,,,,40.0,,,,,120,note_off,,80.0,40.0,80.0,139680,145.5
2794,4.0,,,,,,38.0,,,,,240,note_on,,95.0,38.0,95.0,139920,145.75
2795,4.0,,,,,,38.0,,,,,240,note_off,,80.0,38.0,80.0,140160,146.0
2796,4.0,,,,,,36.0,,,,,0,note_on,,95.0,36.0,95.0,140160,146.0
2797,4.0,,,,,,36.0,,,,,360,note_off,,80.0,36.0,80.0,140520,146.375
2798,4.0,,,,,,38.0,,,,,0,note_on,,95.0,38.0,95.0,140520,146.375
2799,4.0,,,,,,38.0,,,,,360,note_off,,80.0,38.0,80.0,140880,146.75
2800,4.0,,,,,,36.0,,,,,0,note_on,,95.0,36.0,95.0,140880,146.75
2801,4.0,,,,,,36.0,,,,,240,note_off,,80.0,36.0,80.0,141120,147.0
2802,4.0,,,,,,35.0,,,,,0,note_on,,95.0,35.0,95.0,141120,147.0
2803,4.0,,,,,,35.0,,,,,960,note_off,,80.0,35.0,80.0,142080,148.0
2804,4.0,,,,,,40.0,,,,,0,note_on,,95.0,40.0,95.0,142080,148.0
2805,4.0,,,,,,40.0,,,,,720,note_off,,80.0,40.0,80.0,142800,148.75
2806,4.0,,,,,,40.0,,,,,0,note_on,,95.0,40.0,95.0,142800,148.75
2807,4.0,,,,,,40.0,,,,,120,note_off,,80.0,40.0,80.0,142920,148.875
2808,4.0,,,,,,43.0,,,,,120,note_on,,95.0,43.0,95.0,143040,149.0
2809,4.0,,,,,,43.0,,,,,120,note_off,,80.0,43.0,80.0,143160,149.125
2810,4.0,,,,,,40.0,,,,,240,note_on,,95.0,40.0,95.0,143400,149.375
2811,4.0,,,,,,40.0,,,,,120,note_off,,80.0,40.0,80.0,143520,149.5
2812,4.0,,,,,,38.0,,,,,240,note_on,,95.0,38.0,95.0,143760,149.75
2813,4.0,,,,,,38.0,,,,,240,note_off,,80.0,38.0,80.0,144000,150.0
2814,4.0,,,,,,36.0,,,,,0,note_on,,95.0,36.0,95.0,144000,150.0
2815,4.0,,,,,,36.0,,,,,960,note_off,,80.0,36.0,80.0,144960,151.0
2816,4.0,,,,,,35.0,,,,,0,note_on,,95.0,35.0,95.0,144960,151.0
2817,4.0,,,,,,35.0,,,,,960,note_off,,80.0,35.0,80.0,145920,152.0
2818,4.0,,,,,,40.0,,,,,0,note_on,,95.0,40.0,95.0,145920,152.0
2819,4.0,,,,,,40.0,,,,,720,note_off,,80.0,40.0,80.0,146640,152.75
2820,4.0,,,,,,40.0,,,,,0,note_on,,95.0,40.0,95.0,146640,152.75
2821,4.0,,,,,,40.0,,,,,120,note_off,,80.0,40.0,80.0,146760,152.875
2822,4.0,,,,,,43.0,,,,,120,note_on,,95.0,43.0,95.0,146880,153.0
2823,4.0,,,,,,43.0,,,,,120,note_off,,80.0,43.0,80.0,147000,153.125
2824,4.0,,,,,,40.0,,,,,240,note_on,,95.0,40.0,95.0,147240,153.375
2825,4.0,,,,,,40.0,,,,,120,note_off,,80.0,40.0,80.0,147360,153.5
2826,4.0,,,,,,38.0,,,,,240,note_on,,95.0,38.0,95.0,147600,153.75
2827,4.0,,,,,,38.0,,,,,240,note_off,,80.0,38.0,80.0,147840,154.0
2828,4.0,,,,,,36.0,,,,,0,note_on,,95.0,36.0,95.0,147840,154.0
2829,4.0,,,,,,36.0,,,,,360,note_off,,80.0,36.0,80.0,148200,154.375
2830,4.0,,,,,,38.0,,,,,0,note_on,,95.0,38.0,95.0,148200,154.375
2831,4.0,,,,,,38.0,,,,,360,note_off,,80.0,38.0,80.0,148560,154.75
2832,4.0,,,,,,36.0,,,,,0,note_on,,95.0,36.0,95.0,148560,154.75
2833,4.0,,,,,,36.0,,,,,240,note_off,,80.0,36.0,80.0,148800,155.0
2834,4.0,,,,,,35.0,,,,,0,note_on,,95.0,35.0,95.0,148800,155.0
2835,4.0,,,,,,35.0,,,,,960,note_off,,80.0,35.0,80.0,149760,156.0
2836,4.0,,,,,,31.0,,,,,0,note_on,,95.0,31.0,95.0,149760,156.0
2837,4.0,,,,,,31.0,,,,,240,note_off,,80.0,31.0,80.0,150000,156.25
2838,4.0,,,,,,31.0,,,,,0,note_on,,95.0,31.0,95.0,150000,156.25
2839,4.0,,,,,,31.0,,,,,240,note_off,,80.0,31.0,80.0,150240,156.5
2840,4.0,,,,,,31.0,,,,,0,note_on,,95.0,31.0,95.0,150240,156.5
2841,4.0,,,,,,31.0,,,,,240,note_off,,80.0,31.0,80.0,150480,156.75
2842,4.0,,,,,,31.0,,,,,0,note_on,,95.0,31.0,95.0,150480,156.75
2843,4.0,,,,,,31.0,,,,,240,note_off,,80.0,31.0,80.0,150720,157.0
2844,4.0,,,,,,31.0,,,,,0,note_on,,95.0,31.0,95.0,150720,157.0
2845,4.0,,,,,,31.0,,,,,240,note_off,,80.0,31.0,80.0,150960,157.25
2846,4.0,,,,,,31.0,,,,,0,note_on,,95.0,31.0,95.0,150960,157.25
2847,4.0,,,,,,31.0,,,,,240,note_off,,80.0,31.0,80.0,151200,157.5
2848,4.0,,,,,,31.0,,,,,0,note_on,,95.0,31.0,95.0,151200,157.5
2849,4.0,,,,,,31.0,,,,,240,note_off,,80.0,31.0,80.0,151440,157.75
2850,4.0,,,,,,31.0,,,,,0,note_on,,95.0,31.0,95.0,151440,157.75
2851,4.0,,,,,,31.0,,,,,240,note_off,,80.0,31.0,80.0,151680,158.0
2852,4.0,,,,,,33.0,,,,,0,note_on,,95.0,33.0,95.0,151680,158.0
2853,4.0,,,,,,33.0,,,,,240,note_off,,80.0,33.0,80.0,151920,158.25
2854,4.0,,,,,,33.0,,,,,0,note_on,,95.0,33.0,95.0,151920,158.25
2855,4.0,,,,,,33.0,,,,,240,note_off,,80.0,33.0,80.0,152160,158.5
2856,4.0,,,,,,33.0,,,,,0,note_on,,95.0,33.0,95.0,152160,158.5
2857,4.0,,,,,,33.0,,,,,240,note_off,,80.0,33.0,80.0,152400,158.75
2858,4.0,,,,,,33.0,,,,,0,note_on,,95.0,33.0,95.0,152400,158.75
2859,4.0,,,,,,33.0,,,,,240,note_off,,80.0,33.0,80.0,152640,159.0
2860,4.0,,,,,,33.0,,,,,0,note_on,,95.0,33.0,95.0,152640,159.0
2861,4.0,,,,,,33.0,,,,,240,note_off,,80.0,33.0,80.0,152880,159.25
2862,4.0,,,,,,33.0,,,,,0,note_on,,95.0,33.0,95.0,152880,159.25
2863,4.0,,,,,,33.0,,,,,240,note_off,,80.0,33.0,80.0,153120,159.5
2864,4.0,,,,,,33.0,,,,,0,note_on,,95.0,33.0,95.0,153120,159.5
2865,4.0,,,,,,33.0,,,,,240,note_off,,80.0,33.0,80.0,153360,159.75
2866,4.0,,,,,,33.0,,,,,0,note_on,,95.0,33.0,95.0,153360,159.75
2867,4.0,,,,,,33.0,,,,,240,note_off,,80.0,33.0,80.0,153600,160.0
2868,4.0,,,,,,40.0,,,,,0,note_on,,95.0,40.0,95.0,153600,160.0
2869,4.0,,,,,,40.0,,,,,720,note_off,,80.0,40.0,80.0,154320,160.75
2870,4.0,,,,,,40.0,,,,,0,note_on,,95.0,40.0,95.0,154320,160.75
2871,4.0,,,,,,40.0,,,,,120,note_off,,80.0,40.0,80.0,154440,160.875
2872,4.0,,,,,,43.0,,,,,120,note_on,,95.0,43.0,95.0,154560,161.0
2873,4.0,,,,,,43.0,,,,,120,note_off,,80.0,43.0,80.0,154680,161.125
2874,4.0,,,,,,40.0,,,,,240,note_on,,95.0,40.0,95.0,154920,161.375
2875,4.0,,,,,,40.0,,,,,120,note_off,,80.0,40.0,80.0,155040,161.5
2876,4.0,,,,,,38.0,,,,,240,note_on,,95.0,38.0,95.0,155280,161.75
2877,4.0,,,,,,38.0,,,,,240,note_off,,80.0,38.0,80.0,155520,162.0
2878,4.0,,,,,,36.0,,,,,0,note_on,,95.0,36.0,95.0,155520,162.0
2879,4.0,,,,,,36.0,,,,,960,note_off,,80.0,36.0,80.0,156480,163.0
2880,4.0,,,,,,35.0,,,,,0,note_on,,95.0,35.0,95.0,156480,163.0
2881,4.0,,,,,,35.0,,,,,960,note_off,,80.0,35.0,80.0,157440,164.0
2882,4.0,,,,,,40.0,,,,,0,note_on,,95.0,40.0,95.0,157440,164.0
2883,4.0,,,,,,40.0,,,,,720,note_off,,80.0,40.0,80.0,158160,164.75
2884,4.0,,,,,,40.0,,,,,0,note_on,,95.0,40.0,95.0,158160,164.75
2885,4.0,,,,,,40.0,,,,,120,note_off,,80.0,40.0,80.0,158280,164.875
2886,4.0,,,,,,43.0,,,,,120,note_on,,95.0,43.0,95.0,158400,165.0
2887,4.0,,,,,,43.0,,,,,120,note_off,,80.0,43.0,80.0,158520,165.125
2888,4.0,,,,,,40.0,,,,,240,note_on,,95.0,40.0,95.0,158760,165.375
2889,4.0,,,,,,40.0,,,,,120,note_off,,80.0,40.0,80.0,158880,165.5
2890,4.0,,,,,,38.0,,,,,240,note_on,,95.0,38.0,95.0,159120,165.75
2891,4.0,,,,,,38.0,,,,,240,note_off,,80.0,38.0,80.0,159360,166.0
2892,4.0,,,,,,36.0,,,,,0,note_on,,95.0,36.0,95.0,159360,166.0
2893,4.0,,,,,,36.0,,,,,960,note_off,,80.0,36.0,80.0,160320,167.0
2894,4.0,,,,,,35.0,,,,,0,note_on,,95.0,35.0,95.0,160320,167.0
2895,4.0,,,,,,35.0,,,,,960,note_off,,80.0,35.0,80.0,161280,168.0
2896,4.0,,,,,,40.0,,,,,0,note_on,,95.0,40.0,95.0,161280,168.0
2897,4.0,,,,,,40.0,,,,,720,note_off,,80.0,40.0,80.0,162000,168.75
2898,4.0,,,,,,40.0,,,,,0,note_on,,95.0,40.0,95.0,162000,168.75
2899,4.0,,,,,,40.0,,,,,120,note_off,,80.0,40.0,80.0,162120,168.875
2900,4.0,,,,,,43.0,,,,,120,note_on,,95.0,43.0,95.0,162240,169.0
2901,4.0,,,,,,43.0,,,,,120,note_off,,80.0,43.0,80.0,162360,169.125
2902,4.0,,,,,,40.0,,,,,240,note_on,,95.0,40.0,95.0,162600,169.375
2903,4.0,,,,,,40.0,,,,,120,note_off,,80.0,40.0,80.0,162720,169.5
2904,4.0,,,,,,38.0,,,,,240,note_on,,95.0,38.0,95.0,162960,169.75
2905,4.0,,,,,,38.0,,,,,240,note_off,,80.0,38.0,80.0,163200,170.0
2906,4.0,,,,,,36.0,,,,,0,note_on,,95.0,36.0,95.0,163200,170.0
2907,4.0,,,,,,36.0,,,,,960,note_off,,80.0,36.0,80.0,164160,171.0
2908,4.0,,,,,,35.0,,,,,0,note_on,,95.0,35.0,95.0,164160,171.0
2909,4.0,,,,,,35.0,,,,,960,note_off,,80.0,35.0,80.0,165120,172.0
2910,4.0,,,,,,40.0,,,,,0,note_on,,95.0,40.0,95.0,165120,172.0
2911,4.0,,,,,,40.0,,,,,720,note_off,,80.0,40.0,80.0,165840,172.75
2912,4.0,,,,,,40.0,,,,,0,note_on,,95.0,40.0,95.0,165840,172.75
2913,4.0,,,,,,40.0,,,,,120,note_off,,80.0,40.0,80.0,165960,172.875
2914,4.0,,,,,,43.0,,,,,120,note_on,,95.0,43.0,95.0,166080,173.0
2915,4.0,,,,,,43.0,,,,,120,note_off,,80.0,43.0,80.0,166200,173.125
2916,4.0,,,,,,40.0,,,,,240,note_on,,95.0,40.0,95.0,166440,173.375
2917,4.0,,,,,,40.0,,,,,120,note_off,,80.0,40.0,80.0,166560,173.5
2918,4.0,,,,,,38.0,,,,,240,note_on,,95.0,38.0,95.0,166800,173.75
2919,4.0,,,,,,38.0,,,,,240,note_off,,80.0,38.0,80.0,167040,174.0
2920,4.0,,,,,,36.0,,,,,0,note_on,,95.0,36.0,95.0,167040,174.0
2921,4.0,,,,,,36.0,,,,,960,note_off,,80.0,36.0,80.0,168000,175.0
2922,4.0,,,,,,35.0,,,,,0,note_on,,95.0,35.0,95.0,168000,175.0
2923,4.0,,,,,,35.0,,,,,960,note_off,,80.0,35.0,80.0,168960,176.0
2924,4.0,,,,,,40.0,,,,,0,note_on,,95.0,40.0,95.0,168960,176.0
2925,4.0,,,,,,40.0,,,,,720,note_off,,80.0,40.0,80.0,169680,176.75
2926,4.0,,,,,,40.0,,,,,0,note_on,,95.0,40.0,95.0,169680,176.75
2927,4.0,,,,,,40.0,,,,,120,note_off,,80.0,40.0,80.0,169800,176.875
2928,4.0,,,,,,43.0,,,,,120,note_on,,95.0,43.0,95.0,169920,177.0
2929,4.0,,,,,,43.0,,,,,120,note_off,,80.0,43.0,80.0,170040,177.125
2930,4.0,,,,,,40.0,,,,,240,note_on,,95.0,40.0,95.0,170280,177.375
2931,4.0,,,,,,40.0,,,,,120,note_off,,80.0,40.0,80.0,170400,177.5
2932,4.0,,,,,,38.0,,,,,240,note_on,,95.0,38.0,95.0,170640,177.75
2933,4.0,,,,,,38.0,,,,,240,note_off,,80.0,38.0,80.0,170880,178.0
2934,4.0,,,,,,36.0,,,,,0,note_on,,95.0,36.0,95.0,170880,178.0
2935,4.0,,,,,,36.0,,,,,960,note_off,,80.0,36.0,80.0,171840,179.0
2936,4.0,,,,,,35.0,,,,,0,note_on,,95.0,35.0,95.0,171840,179.0
2937,4.0,,,,,,35.0,,,,,960,note_off,,80.0,35.0,80.0,172800,180.0
2938,4.0,,,,,,40.0,,,,,0,note_on,,95.0,40.0,95.0,172800,180.0
2939,4.0,,,,,,40.0,,,,,720,note_off,,80.0,40.0,80.0,173520,180.75
2940,4.0,,,,,,40.0,,,,,0,note_on,,95.0,40.0,95.0,173520,180.75
2941,4.0,,,,,,40.0,,,,,120,note_off,,80.0,40.0,80.0,173640,180.875
2942,4.0,,,,,,43.0,,,,,120,note_on,,95.0,43.0,95.0,173760,181.0
2943,4.0,,,,,,43.0,,,,,120,note_off,,80.0,43.0,80.0,173880,181.125
2944,4.0,,,,,,40.0,,,,,240,note_on,,95.0,40.0,95.0,174120,181.375
2945,4.0,,,,,,40.0,,,,,120,note_off,,80.0,40.0,80.0,174240,181.5
2946,4.0,,,,,,38.0,,,,,240,note_on,,95.0,38.0,95.0,174480,181.75
2947,4.0,,,,,,38.0,,,,,240,note_off,,80.0,38.0,80.0,174720,182.0
2948,4.0,,,,,,36.0,,,,,0,note_on,,95.0,36.0,95.0,174720,182.0
2949,4.0,,,,,,36.0,,,,,960,note_off,,80.0,36.0,80.0,175680,183.0
2950,4.0,,,,,,35.0,,,,,0,note_on,,95.0,35.0,95.0,175680,183.0
2951,4.0,,,,,,35.0,,,,,960,note_off,,80.0,35.0,80.0,176640,184.0
2952,4.0,,,,,,40.0,,,,,0,note_on,,95.0,40.0,95.0,176640,184.0
2953,4.0,,,,,,40.0,,,,,720,note_off,,80.0,40.0,80.0,177360,184.75
2954,4.0,,,,,,40.0,,,,,0,note_on,,95.0,40.0,95.0,177360,184.75
2955,4.0,,,,,,40.0,,,,,120,note_off,,80.0,40.0,80.0,177480,184.875
2956,4.0,,,,,,43.0,,,,,120,note_on,,95.0,43.0,95.0,177600,185.0
2957,4.0,,,,,,43.0,,,,,120,note_off,,80.0,43.0,80.0,177720,185.125
2958,4.0,,,,,,40.0,,,,,240,note_on,,95.0,40.0,95.0,177960,185.375
2959,4.0,,,,,,40.0,,,,,120,note_off,,80.0,40.0,80.0,178080,185.5
2960,4.0,,,,,,38.0,,,,,240,note_on,,95.0,38.0,95.0,178320,185.75
2961,4.0,,,,,,38.0,,,,,240,note_off,,80.0,38.0,80.0,178560,186.0
2962,4.0,,,,,,36.0,,,,,0,note_on,,95.0,36.0,95.0,178560,186.0
2963,4.0,,,,,,36.0,,,,,960,note_off,,80.0,36.0,80.0,179520,187.0
2964,4.0,,,,,,35.0,,,,,0,note_on,,95.0,35.0,95.0,179520,187.0
2965,4.0,,,,,,35.0,,,,,960,note_off,,80.0,35.0,80.0,180480,188.0
2966,4.0,,,,,,40.0,,,,,0,note_on,,95.0,40.0,95.0,180480,188.0
2967,4.0,,,,,,40.0,,,,,720,note_off,,80.0,40.0,80.0,181200,188.75
2968,4.0,,,,,,40.0,,,,,0,note_on,,95.0,40.0,95.0,181200,188.75
2969,4.0,,,,,,40.0,,,,,120,note_off,,80.0,40.0,80.0,181320,188.875
2970,4.0,,,,,,43.0,,,,,120,note_on,,95.0,43.0,95.0,181440,189.0
2971,4.0,,,,,,43.0,,,,,120,note_off,,80.0,43.0,80.0,181560,189.125
2972,4.0,,,,,,40.0,,,,,240,note_on,,95.0,40.0,95.0,181800,189.375
2973,4.0,,,,,,40.0,,,,,120,note_off,,80.0,40.0,80.0,181920,189.5
2974,4.0,,,,,,38.0,,,,,240,note_on,,95.0,38.0,95.0,182160,189.75
2975,4.0,,,,,,38.0,,,,,240,note_off,,80.0,38.0,80.0,182400,190.0
2976,4.0,,,,,,36.0,,,,,0,note_on,,95.0,36.0,95.0,182400,190.0
2977,4.0,,,,,,36.0,,,,,960,note_off,,80.0,36.0,80.0,183360,191.0
2978,4.0,,,,,,35.0,,,,,0,note_on,,95.0,35.0,95.0,183360,191.0
2979,4.0,,,,,,35.0,,,,,960,note_off,,80.0,35.0,80.0,184320,192.0
2980,4.0,,,,,,40.0,,,,,0,note_on,,95.0,40.0,95.0,184320,192.0
2981,4.0,,,,,,40.0,,,,,720,note_off,,80.0,40.0,80.0,185040,192.75
2982,4.0,,,,,,40.0,,,,,0,note_on,,95.0,40.0,95.0,185040,192.75
2983,4.0,,,,,,40.0,,,,,120,note_off,,80.0,40.0,80.0,185160,192.875
2984,4.0,,,,,,43.0,,,,,120,note_on,,95.0,43.0,95.0,185280,193.0
2985,4.0,,,,,,43.0,,,,,120,note_off,,80.0,43.0,80.0,185400,193.125
2986,4.0,,,,,,40.0,,,,,240,note_on,,95.0,40.0,95.0,185640,193.375
2987,4.0,,,,,,40.0,,,,,120,note_off,,80.0,40.0,80.0,185760,193.5
2988,4.0,,,,,,38.0,,,,,240,note_on,,95.0,38.0,95.0,186000,193.75
2989,4.0,,,,,,38.0,,,,,240,note_off,,80.0,38.0,80.0,186240,194.0
2990,4.0,,,,,,36.0,,,,,0,note_on,,95.0,36.0,95.0,186240,194.0
2991,4.0,,,,,,36.0,,,,,960,note_off,,80.0,36.0,80.0,187200,195.0
2992,4.0,,,,,,35.0,,,,,0,note_on,,95.0,35.0,95.0,187200,195.0
2993,4.0,,,,,,35.0,,,,,960,note_off,,80.0,35.0,80.0,188160,196.0
2994,4.0,,,,,,40.0,,,,,0,note_on,,95.0,40.0,95.0,188160,196.0
2995,4.0,,,,,,40.0,,,,,720,note_off,,80.0,40.0,80.0,188880,196.75
2996,4.0,,,,,,40.0,,,,,0,note_on,,95.0,40.0,95.0,188880,196.75
2997,4.0,,,,,,40.0,,,,,120,note_off,,80.0,40.0,80.0,189000,196.875
2998,4.0,,,,,,43.0,,,,,120,note_on,,95.0,43.0,95.0,189120,197.0
2999,4.0,,,,,,43.0,,,,,120,note_off,,80.0,43.0,80.0,189240,197.125
3000,4.0,,,,,,40.0,,,,,240,note_on,,95.0,40.0,95.0,189480,197.375
3001,4.0,,,,,,40.0,,,,,120,note_off,,80.0,40.0,80.0,189600,197.5
3002,4.0,,,,,,38.0,,,,,240,note_on,,95.0,38.0,95.0,189840,197.75
3003,4.0,,,,,,38.0,,,,,240,note_off,,80.0,38.0,80.0,190080,198.0
3004,4.0,,,,,,36.0,,,,,0,note_on,,95.0,36.0,95.0,190080,198.0
3005,4.0,,,,,,36.0,,,,,960,note_off,,80.0,36.0,80.0,191040,199.0
3006,4.0,,,,,,35.0,,,,,0,note_on,,95.0,35.0,95.0,191040,199.0
3007,4.0,,,,,,35.0,,,,,960,note_off,,80.0,35.0,80.0,192000,200.0
3008,4.0,,,,,,40.0,,,,,0,note_on,,95.0,40.0,95.0,192000,200.0
3009,4.0,,,,,,40.0,,,,,720,note_off,,80.0,40.0,80.0,192720,200.75
3010,4.0,,,,,,40.0,,,,,0,note_on,,95.0,40.0,95.0,192720,200.75
3011,4.0,,,,,,40.0,,,,,120,note_off,,80.0,40.0,80.0,192840,200.875
3012,4.0,,,,,,43.0,,,,,120,note_on,,95.0,43.0,95.0,192960,201.0
3013,4.0,,,,,,43.0,,,,,120,note_off,,80.0,43.0,80.0,193080,201.125
3014,4.0,,,,,,40.0,,,,,240,note_on,,95.0,40.0,95.0,193320,201.375
3015,4.0,,,,,,40.0,,,,,120,note_off,,80.0,40.0,80.0,193440,201.5
3016,4.0,,,,,,38.0,,,,,240,note_on,,95.0,38.0,95.0,193680,201.75
3017,4.0,,,,,,38.0,,,,,240,note_off,,80.0,38.0,80.0,193920,202.0
3018,4.0,,,,,,36.0,,,,,0,note_on,,95.0,36.0,95.0,193920,202.0
3019,4.0,,,,,,36.0,,,,,960,note_off,,80.0,36.0,80.0,194880,203.0
3020,4.0,,,,,,35.0,,,,,0,note_on,,95.0,35.0,95.0,194880,203.0
3021,4.0,,,,,,35.0,,,,,960,note_off,,80.0,35.0,80.0,195840,204.0
3022,4.0,,,,,,31.0,,,,,0,note_on,,95.0,31.0,95.0,195840,204.0
3023,4.0,,,,,,31.0,,,,,240,note_off,,80.0,31.0,80.0,196080,204.25
3024,4.0,,,,,,31.0,,,,,0,note_on,,95.0,31.0,95.0,196080,204.25
3025,4.0,,,,,,31.0,,,,,240,note_off,,80.0,31.0,80.0,196320,204.5
3026,4.0,,,,,,31.0,,,,,0,note_on,,95.0,31.0,95.0,196320,204.5
3027,4.0,,,,,,31.0,,,,,240,note_off,,80.0,31.0,80.0,196560,204.75
3028,4.0,,,,,,31.0,,,,,0,note_on,,95.0,31.0,95.0,196560,204.75
3029,4.0,,,,,,31.0,,,,,240,note_off,,80.0,31.0,80.0,196800,205.0
3030,4.0,,,,,,31.0,,,,,0,note_on,,95.0,31.0,95.0,196800,205.0
3031,4.0,,,,,,31.0,,,,,240,note_off,,80.0,31.0,80.0,197040,205.25
3032,4.0,,,,,,31.0,,,,,0,note_on,,95.0,31.0,95.0,197040,205.25
3033,4.0,,,,,,31.0,,,,,240,note_off,,80.0,31.0,80.0,197280,205.5
3034,4.0,,,,,,31.0,,,,,0,note_on,,95.0,31.0,95.0,197280,205.5
3035,4.0,,,,,,31.0,,,,,240,note_off,,80.0,31.0,80.0,197520,205.75
3036,4.0,,,,,,31.0,,,,,0,note_on,,95.0,31.0,95.0,197520,205.75
3037,4.0,,,,,,31.0,,,,,240,note_off,,80.0,31.0,80.0,197760,206.0
3038,4.0,,,,,,33.0,,,,,0,note_on,,95.0,33.0,95.0,197760,206.0
3039,4.0,,,,,,33.0,,,,,240,note_off,,80.0,33.0,80.0,198000,206.25
3040,4.0,,,,,,33.0,,,,,0,note_on,,95.0,33.0,95.0,198000,206.25
3041,4.0,,,,,,33.0,,,,,240,note_off,,80.0,33.0,80.0,198240,206.5
3042,4.0,,,,,,33.0,,,,,0,note_on,,95.0,33.0,95.0,198240,206.5
3043,4.0,,,,,,33.0,,,,,240,note_off,,80.0,33.0,80.0,198480,206.75
3044,4.0,,,,,,33.0,,,,,0,note_on,,95.0,33.0,95.0,198480,206.75
3045,4.0,,,,,,33.0,,,,,240,note_off,,80.0,33.0,80.0,198720,207.0
3046,4.0,,,,,,33.0,,,,,0,note_on,,95.0,33.0,95.0,198720,207.0
3047,4.0,,,,,,33.0,,,,,240,note_off,,80.0,33.0,80.0,198960,207.25
3048,4.0,,,,,,33.0,,,,,0,note_on,,95.0,33.0,95.0,198960,207.25
3049,4.0,,,,,,33.0,,,,,240,note_off,,80.0,33.0,80.0,199200,207.5
3050,4.0,,,,,,33.0,,,,,0,note_on,,95.0,33.0,95.0,199200,207.5
3051,4.0,,,,,,33.0,,,,,240,note_off,,80.0,33.0,80.0,199440,207.75
3052,4.0,,,,,,33.0,,,,,0,note_on,,95.0,33.0,95.0,199440,207.75
3053,4.0,,,,,,33.0,,,,,240,note_off,,80.0,33.0,80.0,199680,208.0
3054,4.0,,,,,,40.0,,,,,0,note_on,,95.0,40.0,95.0,199680,208.0
3055,4.0,,,,,,40.0,,,,,720,note_off,,80.0,40.0,80.0,200400,208.75
3056,4.0,,,,,,40.0,,,,,0,note_on,,95.0,40.0,95.0,200400,208.75
3057,4.0,,,,,,40.0,,,,,120,note_off,,80.0,40.0,80.0,200520,208.875
3058,4.0,,,,,,43.0,,,,,120,note_on,,95.0,43.0,95.0,200640,209.0
3059,4.0,,,,,,43.0,,,,,120,note_off,,80.0,43.0,80.0,200760,209.125
3060,4.0,,,,,,40.0,,,,,240,note_on,,95.0,40.0,95.0,201000,209.375
3061,4.0,,,,,,40.0,,,,,120,note_off,,80.0,40.0,80.0,201120,209.5
3062,4.0,,,,,,38.0,,,,,240,note_on,,95.0,38.0,95.0,201360,209.75
3063,4.0,,,,,,38.0,,,,,240,note_off,,80.0,38.0,80.0,201600,210.0
3064,4.0,,,,,,36.0,,,,,0,note_on,,95.0,36.0,95.0,201600,210.0
3065,4.0,,,,,,36.0,,,,,960,note_off,,80.0,36.0,80.0,202560,211.0
3066,4.0,,,,,,35.0,,,,,0,note_on,,95.0,35.0,95.0,202560,211.0
3067,4.0,,,,,,35.0,,,,,960,note_off,,80.0,35.0,80.0,203520,212.0
3068,4.0,,,,,,40.0,,,,,0,note_on,,95.0,40.0,95.0,203520,212.0
3069,4.0,,,,,,40.0,,,,,720,note_off,,80.0,40.0,80.0,204240,212.75
3070,4.0,,,,,,40.0,,,,,0,note_on,,95.0,40.0,95.0,204240,212.75
3071,4.0,,,,,,40.0,,,,,120,note_off,,80.0,40.0,80.0,204360,212.875
3072,4.0,,,,,,43.0,,,,,120,note_on,,95.0,43.0,95.0,204480,213.0
3073,4.0,,,,,,43.0,,,,,120,note_off,,80.0,43.0,80.0,204600,213.125
3074,4.0,,,,,,40.0,,,,,240,note_on,,95.0,40.0,95.0,204840,213.375
3075,4.0,,,,,,40.0,,,,,120,note_off,,80.0,40.0,80.0,204960,213.5
3076,4.0,,,,,,38.0,,,,,240,note_on,,95.0,38.0,95.0,205200,213.75
3077,4.0,,,,,,38.0,,,,,240,note_off,,80.0,38.0,80.0,205440,214.0
3078,4.0,,,,,,36.0,,,,,0,note_on,,95.0,36.0,95.0,205440,214.0
3079,4.0,,,,,,36.0,,,,,360,note_off,,80.0,36.0,80.0,205800,214.375
3080,4.0,,,,,,38.0,,,,,0,note_on,,95.0,38.0,95.0,205800,214.375
3081,4.0,,,,,,38.0,,,,,360,note_off,,80.0,38.0,80.0,206160,214.75
3082,4.0,,,,,,36.0,,,,,0,note_on,,95.0,36.0,95.0,206160,214.75
3083,4.0,,,,,,36.0,,,,,240,note_off,,80.0,36.0,80.0,206400,215.0
3084,4.0,,,,,,35.0,,,,,0,note_on,,95.0,35.0,95.0,206400,215.0
3085,4.0,,,,,,35.0,,,,,960,note_off,,80.0,35.0,80.0,207360,216.0
3086,4.0,,,,,,40.0,,,,,0,note_on,,95.0,40.0,95.0,207360,216.0
3087,4.0,,,,,,40.0,,,,,720,note_off,,80.0,40.0,80.0,208080,216.75
3088,4.0,,,,,,40.0,,,,,0,note_on,,95.0,40.0,95.0,208080,216.75
3089,4.0,,,,,,40.0,,,,,120,note_off,,80.0,40.0,80.0,208200,216.875
3090,4.0,,,,,,43.0,,,,,120,note_on,,95.0,43.0,95.0,208320,217.0
3091,4.0,,,,,,43.0,,,,,120,note_off,,80.0,43.0,80.0,208440,217.125
3092,4.0,,,,,,40.0,,,,,240,note_on,,95.0,40.0,95.0,208680,217.375
3093,4.0,,,,,,40.0,,,,,120,note_off,,80.0,40.0,80.0,208800,217.5
3094,4.0,,,,,,38.0,,,,,240,note_on,,95.0,38.0,95.0,209040,217.75
3095,4.0,,,,,,38.0,,,,,240,note_off,,80.0,38.0,80.0,209280,218.0
3096,4.0,,,,,,36.0,,,,,0,note_on,,95.0,36.0,95.0,209280,218.0
3097,4.0,,,,,,36.0,,,,,960,note_off,,80.0,36.0,80.0,210240,219.0
3098,4.0,,,,,,35.0,,,,,0,note_on,,95.0,35.0,95.0,210240,219.0
3099,4.0,,,,,,35.0,,,,,960,note_off,,80.0,35.0,80.0,211200,220.0
3100,4.0,,,,,,40.0,,,,,0,note_on,,95.0,40.0,95.0,211200,220.0
3101,4.0,,,,,,40.0,,,,,720,note_off,,80.0,40.0,80.0,211920,220.75
3102,4.0,,,,,,40.0,,,,,0,note_on,,95.0,40.0,95.0,211920,220.75
3103,4.0,,,,,,40.0,,,,,120,note_off,,80.0,40.0,80.0,212040,220.875
3104,4.0,,,,,,43.0,,,,,120,note_on,,95.0,43.0,95.0,212160,221.0
3105,4.0,,,,,,43.0,,,,,120,note_off,,80.0,43.0,80.0,212280,221.125
3106,4.0,,,,,,40.0,,,,,240,note_on,,95.0,40.0,95.0,212520,221.375
3107,4.0,,,,,,40.0,,,,,120,note_off,,80.0,40.0,80.0,212640,221.5
3108,4.0,,,,,,38.0,,,,,240,note_on,,95.0,38.0,95.0,212880,221.75
3109,4.0,,,,,,38.0,,,,,240,note_off,,80.0,38.0,80.0,213120,222.0
3110,4.0,,,,,,36.0,,,,,0,note_on,,95.0,36.0,95.0,213120,222.0
3111,4.0,,,,,,36.0,,,,,360,note_off,,80.0,36.0,80.0,213480,222.375
3112,4.0,,,,,,38.0,,,,,0,note_on,,95.0,38.0,95.0,213480,222.375
3113,4.0,,,,,,38.0,,,,,360,note_off,,80.0,38.0,80.0,213840,222.75
3114,4.0,,,,,,36.0,,,,,0,note_on,,95.0,36.0,95.0,213840,222.75
3115,4.0,,,,,,36.0,,,,,240,note_off,,80.0,36.0,80.0,214080,223.0
3116,4.0,,,,,,35.0,,,,,0,note_on,,95.0,35.0,95.0,214080,223.0
3117,4.0,,,,,,35.0,,,,,960,note_off,,80.0,35.0,80.0,215040,224.0
3118,4.0,,,,,,40.0,,,,,0,note_on,,95.0,40.0,95.0,215040,224.0
3119,4.0,,,,,,40.0,,,,,1920,note_off,,80.0,40.0,80.0,216960,226.0
3120,,,,,,,,,,,,0,end_of_track,,,,,45540,47.4375
3121,,,,,Drums (Meg White),,,,,,,0,track_name,,,,,45542,47.43958333333333
3122,9.0,,100.0,,,,,,,,,0,control_change,0.0,,,,0,0.0
3123,9.0,,101.0,,,,,,,,,0,control_change,0.0,,,,0,0.0
3124,9.0,,6.0,,,,,,,,,0,control_change,12.0,,,,0,0.0
3125,9.0,,,,,,,,0.0,,,0,pitchwheel,,,,,0,0.0
3126,9.0,,,,,,,,,0.0,,0,program_change,,,,,0,0.0
3127,9.0,,7.0,,,,,,,,,0,control_change,127.0,,,,0,0.0
3128,9.0,,10.0,,,,,,,,,0,control_change,64.0,,,,0,0.0
3129,9.0,,93.0,,,,,,,,,0,control_change,0.0,,,,0,0.0
3130,9.0,,91.0,,,,,,,,,0,control_change,0.0,,,,0,0.0
3131,9.0,,92.0,,,,,,,,,0,control_change,0.0,,,,0,0.0
3132,9.0,,95.0,,,,,,,,,0,control_change,0.0,,,,0,0.0
3133,9.0,,,,,,44.0,,,,,7680,note_on,,95.0,44.0,95.0,7680,8.0
3134,9.0,,,,,,41.0,,,,,0,note_on,,95.0,41.0,95.0,7680,8.0
3135,9.0,,,,,,36.0,,,,,0,note_on,,95.0,36.0,95.0,7680,8.0
3136,9.0,,,,,,44.0,,,,,480,note_off,,80.0,44.0,80.0,8160,8.5
3137,9.0,,,,,,41.0,,,,,0,note_off,,80.0,41.0,80.0,8160,8.5
3138,9.0,,,,,,36.0,,,,,0,note_off,,80.0,36.0,80.0,8160,8.5
3139,9.0,,,,,,44.0,,,,,0,note_on,,95.0,44.0,95.0,8160,8.5
3140,9.0,,,,,,41.0,,,,,0,note_on,,95.0,41.0,95.0,8160,8.5
3141,9.0,,,,,,36.0,,,,,0,note_on,,95.0,36.0,95.0,8160,8.5
3142,9.0,,,,,,44.0,,,,,480,note_off,,80.0,44.0,80.0,8640,9.0
3143,9.0,,,,,,41.0,,,,,0,note_off,,80.0,41.0,80.0,8640,9.0
3144,9.0,,,,,,36.0,,,,,0,note_off,,80.0,36.0,80.0,8640,9.0
3145,9.0,,,,,,44.0,,,,,0,note_on,,95.0,44.0,95.0,8640,9.0
3146,9.0,,,,,,41.0,,,,,0,note_on,,95.0,41.0,95.0,8640,9.0
3147,9.0,,,,,,36.0,,,,,0,note_on,,95.0,36.0,95.0,8640,9.0
3148,9.0,,,,,,44.0,,,,,480,note_off,,80.0,44.0,80.0,9120,9.5
3149,9.0,,,,,,41.0,,,,,0,note_off,,80.0,41.0,80.0,9120,9.5
3150,9.0,,,,,,36.0,,,,,0,note_off,,80.0,36.0,80.0,9120,9.5
3151,9.0,,,,,,44.0,,,,,0,note_on,,95.0,44.0,95.0,9120,9.5
3152,9.0,,,,,,41.0,,,,,0,note_on,,95.0,41.0,95.0,9120,9.5
3153,9.0,,,,,,36.0,,,,,0,note_on,,95.0,36.0,95.0,9120,9.5
3154,9.0,,,,,,44.0,,,,,480,note_off,,80.0,44.0,80.0,9600,10.0
3155,9.0,,,,,,41.0,,,,,0,note_off,,80.0,41.0,80.0,9600,10.0
3156,9.0,,,,,,36.0,,,,,0,note_off,,80.0,36.0,80.0,9600,10.0
3157,9.0,,,,,,44.0,,,,,0,note_on,,95.0,44.0,95.0,9600,10.0
3158,9.0,,,,,,41.0,,,,,0,note_on,,95.0,41.0,95.0,9600,10.0
3159,9.0,,,,,,36.0,,,,,0,note_on,,95.0,36.0,95.0,9600,10.0
3160,9.0,,,,,,44.0,,,,,480,note_off,,80.0,44.0,80.0,10080,10.5
3161,9.0,,,,,,41.0,,,,,0,note_off,,80.0,41.0,80.0,10080,10.5
3162,9.0,,,,,,36.0,,,,,0,note_off,,80.0,36.0,80.0,10080,10.5
3163,9.0,,,,,,44.0,,,,,0,note_on,,95.0,44.0,95.0,10080,10.5
3164,9.0,,,,,,41.0,,,,,0,note_on,,95.0,41.0,95.0,10080,10.5
3165,9.0,,,,,,36.0,,,,,0,note_on,,95.0,36.0,95.0,10080,10.5
3166,9.0,,,,,,44.0,,,,,480,note_off,,80.0,44.0,80.0,10560,11.0
3167,9.0,,,,,,41.0,,,,,0,note_off,,80.0,41.0,80.0,10560,11.0
3168,9.0,,,,,,36.0,,,,,0,note_off,,80.0,36.0,80.0,10560,11.0
3169,9.0,,,,,,44.0,,,,,0,note_on,,95.0,44.0,95.0,10560,11.0
3170,9.0,,,,,,41.0,,,,,0,note_on,,95.0,41.0,95.0,10560,11.0
3171,9.0,,,,,,36.0,,,,,0,note_on,,95.0,36.0,95.0,10560,11.0
3172,9.0,,,,,,44.0,,,,,480,note_off,,80.0,44.0,80.0,11040,11.5
3173,9.0,,,,,,41.0,,,,,0,note_off,,80.0,41.0,80.0,11040,11.5
3174,9.0,,,,,,36.0,,,,,0,note_off,,80.0,36.0,80.0,11040,11.5
3175,9.0,,,,,,44.0,,,,,0,note_on,,95.0,44.0,95.0,11040,11.5
3176,9.0,,,,,,41.0,,,,,0,note_on,,95.0,41.0,95.0,11040,11.5
3177,9.0,,,,,,36.0,,,,,0,note_on,,95.0,36.0,95.0,11040,11.5
3178,9.0,,,,,,44.0,,,,,480,note_off,,80.0,44.0,80.0,11520,12.0
3179,9.0,,,,,,41.0,,,,,0,note_off,,80.0,41.0,80.0,11520,12.0
3180,9.0,,,,,,36.0,,,,,0,note_off,,80.0,36.0,80.0,11520,12.0
3181,9.0,,,,,,44.0,,,,,0,note_on,,95.0,44.0,95.0,11520,12.0
3182,9.0,,,,,,41.0,,,,,0,note_on,,95.0,41.0,95.0,11520,12.0
3183,9.0,,,,,,36.0,,,,,0,note_on,,95.0,36.0,95.0,11520,12.0
3184,9.0,,,,,,44.0,,,,,480,note_off,,80.0,44.0,80.0,12000,12.5
3185,9.0,,,,,,41.0,,,,,0,note_off,,80.0,41.0,80.0,12000,12.5
3186,9.0,,,,,,36.0,,,,,0,note_off,,80.0,36.0,80.0,12000,12.5
3187,9.0,,,,,,44.0,,,,,0,note_on,,95.0,44.0,95.0,12000,12.5
3188,9.0,,,,,,41.0,,,,,0,note_on,,95.0,41.0,95.0,12000,12.5
3189,9.0,,,,,,36.0,,,,,0,note_on,,95.0,36.0,95.0,12000,12.5
3190,9.0,,,,,,44.0,,,,,480,note_off,,80.0,44.0,80.0,12480,13.0
3191,9.0,,,,,,41.0,,,,,0,note_off,,80.0,41.0,80.0,12480,13.0
3192,9.0,,,,,,36.0,,,,,0,note_off,,80.0,36.0,80.0,12480,13.0
3193,9.0,,,,,,44.0,,,,,0,note_on,,95.0,44.0,95.0,12480,13.0
3194,9.0,,,,,,41.0,,,,,0,note_on,,95.0,41.0,95.0,12480,13.0
3195,9.0,,,,,,36.0,,,,,0,note_on,,95.0,36.0,95.0,12480,13.0
3196,9.0,,,,,,44.0,,,,,480,note_off,,80.0,44.0,80.0,12960,13.5
3197,9.0,,,,,,41.0,,,,,0,note_off,,80.0,41.0,80.0,12960,13.5
3198,9.0,,,,,,36.0,,,,,0,note_off,,80.0,36.0,80.0,12960,13.5
3199,9.0,,,,,,44.0,,,,,0,note_on,,95.0,44.0,95.0,12960,13.5
3200,9.0,,,,,,41.0,,,,,0,note_on,,95.0,41.0,95.0,12960,13.5
3201,9.0,,,,,,36.0,,,,,0,note_on,,95.0,36.0,95.0,12960,13.5
3202,9.0,,,,,,44.0,,,,,480,note_off,,80.0,44.0,80.0,13440,14.0
3203,9.0,,,,,,41.0,,,,,0,note_off,,80.0,41.0,80.0,13440,14.0
3204,9.0,,,,,,36.0,,,,,0,note_off,,80.0,36.0,80.0,13440,14.0
3205,9.0,,,,,,44.0,,,,,0,note_on,,95.0,44.0,95.0,13440,14.0
3206,9.0,,,,,,41.0,,,,,0,note_on,,95.0,41.0,95.0,13440,14.0
3207,9.0,,,,,,36.0,,,,,0,note_on,,95.0,36.0,95.0,13440,14.0
3208,9.0,,,,,,44.0,,,,,480,note_off,,80.0,44.0,80.0,13920,14.5
3209,9.0,,,,,,41.0,,,,,0,note_off,,80.0,41.0,80.0,13920,14.5
3210,9.0,,,,,,36.0,,,,,0,note_off,,80.0,36.0,80.0,13920,14.5
3211,9.0,,,,,,44.0,,,,,0,note_on,,95.0,44.0,95.0,13920,14.5
3212,9.0,,,,,,41.0,,,,,0,note_on,,95.0,41.0,95.0,13920,14.5
3213,9.0,,,,,,36.0,,,,,0,note_on,,95.0,36.0,95.0,13920,14.5
3214,9.0,,,,,,44.0,,,,,480,note_off,,80.0,44.0,80.0,14400,15.0
3215,9.0,,,,,,41.0,,,,,0,note_off,,80.0,41.0,80.0,14400,15.0
3216,9.0,,,,,,36.0,,,,,0,note_off,,80.0,36.0,80.0,14400,15.0
3217,9.0,,,,,,44.0,,,,,0,note_on,,95.0,44.0,95.0,14400,15.0
3218,9.0,,,,,,41.0,,,,,0,note_on,,95.0,41.0,95.0,14400,15.0
3219,9.0,,,,,,36.0,,,,,0,note_on,,95.0,36.0,95.0,14400,15.0
3220,9.0,,,,,,44.0,,,,,480,note_off,,80.0,44.0,80.0,14880,15.5
3221,9.0,,,,,,41.0,,,,,0,note_off,,80.0,41.0,80.0,14880,15.5
3222,9.0,,,,,,36.0,,,,,0,note_off,,80.0,36.0,80.0,14880,15.5
3223,9.0,,,,,,44.0,,,,,0,note_on,,95.0,44.0,95.0,14880,15.5
3224,9.0,,,,,,41.0,,,,,0,note_on,,95.0,41.0,95.0,14880,15.5
3225,9.0,,,,,,36.0,,,,,0,note_on,,95.0,36.0,95.0,14880,15.5
3226,9.0,,,,,,44.0,,,,,480,note_off,,80.0,44.0,80.0,15360,16.0
3227,9.0,,,,,,41.0,,,,,0,note_off,,80.0,41.0,80.0,15360,16.0
3228,9.0,,,,,,36.0,,,,,0,note_off,,80.0,36.0,80.0,15360,16.0
3229,9.0,,,,,,44.0,,,,,0,note_on,,95.0,44.0,95.0,15360,16.0
3230,9.0,,,,,,41.0,,,,,0,note_on,,95.0,41.0,95.0,15360,16.0
3231,9.0,,,,,,36.0,,,,,0,note_on,,95.0,36.0,95.0,15360,16.0
3232,9.0,,,,,,44.0,,,,,480,note_off,,80.0,44.0,80.0,15840,16.5
3233,9.0,,,,,,41.0,,,,,0,note_off,,80.0,41.0,80.0,15840,16.5
3234,9.0,,,,,,36.0,,,,,0,note_off,,80.0,36.0,80.0,15840,16.5
3235,9.0,,,,,,44.0,,,,,0,note_on,,95.0,44.0,95.0,15840,16.5
3236,9.0,,,,,,41.0,,,,,0,note_on,,95.0,41.0,95.0,15840,16.5
3237,9.0,,,,,,36.0,,,,,0,note_on,,95.0,36.0,95.0,15840,16.5
3238,9.0,,,,,,44.0,,,,,480,note_off,,80.0,44.0,80.0,16320,17.0
3239,9.0,,,,,,41.0,,,,,0,note_off,,80.0,41.0,80.0,16320,17.0
3240,9.0,,,,,,36.0,,,,,0,note_off,,80.0,36.0,80.0,16320,17.0
3241,9.0,,,,,,44.0,,,,,0,note_on,,95.0,44.0,95.0,16320,17.0
3242,9.0,,,,,,41.0,,,,,0,note_on,,95.0,41.0,95.0,16320,17.0
3243,9.0,,,,,,36.0,,,,,0,note_on,,95.0,36.0,95.0,16320,17.0
3244,9.0,,,,,,44.0,,,,,480,note_off,,80.0,44.0,80.0,16800,17.5
3245,9.0,,,,,,41.0,,,,,0,note_off,,80.0,41.0,80.0,16800,17.5
3246,9.0,,,,,,36.0,,,,,0,note_off,,80.0,36.0,80.0,16800,17.5
3247,9.0,,,,,,44.0,,,,,0,note_on,,95.0,44.0,95.0,16800,17.5
3248,9.0,,,,,,41.0,,,,,0,note_on,,95.0,41.0,95.0,16800,17.5
3249,9.0,,,,,,36.0,,,,,0,note_on,,95.0,36.0,95.0,16800,17.5
3250,9.0,,,,,,44.0,,,,,480,note_off,,80.0,44.0,80.0,17280,18.0
3251,9.0,,,,,,41.0,,,,,0,note_off,,80.0,41.0,80.0,17280,18.0
3252,9.0,,,,,,36.0,,,,,0,note_off,,80.0,36.0,80.0,17280,18.0
3253,9.0,,,,,,44.0,,,,,0,note_on,,95.0,44.0,95.0,17280,18.0
3254,9.0,,,,,,41.0,,,,,0,note_on,,95.0,41.0,95.0,17280,18.0
3255,9.0,,,,,,36.0,,,,,0,note_on,,95.0,36.0,95.0,17280,18.0
3256,9.0,,,,,,44.0,,,,,480,note_off,,80.0,44.0,80.0,17760,18.5
3257,9.0,,,,,,41.0,,,,,0,note_off,,80.0,41.0,80.0,17760,18.5
3258,9.0,,,,,,36.0,,,,,0,note_off,,80.0,36.0,80.0,17760,18.5
3259,9.0,,,,,,44.0,,,,,0,note_on,,95.0,44.0,95.0,17760,18.5
3260,9.0,,,,,,41.0,,,,,0,note_on,,95.0,41.0,95.0,17760,18.5
3261,9.0,,,,,,36.0,,,,,0,note_on,,95.0,36.0,95.0,17760,18.5
3262,9.0,,,,,,44.0,,,,,480,note_off,,80.0,44.0,80.0,18240,19.0
3263,9.0,,,,,,41.0,,,,,0,note_off,,80.0,41.0,80.0,18240,19.0
3264,9.0,,,,,,36.0,,,,,0,note_off,,80.0,36.0,80.0,18240,19.0
3265,9.0,,,,,,44.0,,,,,0,note_on,,95.0,44.0,95.0,18240,19.0
3266,9.0,,,,,,41.0,,,,,0,note_on,,95.0,41.0,95.0,18240,19.0
3267,9.0,,,,,,36.0,,,,,0,note_on,,95.0,36.0,95.0,18240,19.0
3268,9.0,,,,,,44.0,,,,,480,note_off,,80.0,44.0,80.0,18720,19.5
3269,9.0,,,,,,41.0,,,,,0,note_off,,80.0,41.0,80.0,18720,19.5
3270,9.0,,,,,,36.0,,,,,0,note_off,,80.0,36.0,80.0,18720,19.5
3271,9.0,,,,,,44.0,,,,,0,note_on,,95.0,44.0,95.0,18720,19.5
3272,9.0,,,,,,41.0,,,,,0,note_on,,95.0,41.0,95.0,18720,19.5
3273,9.0,,,,,,36.0,,,,,0,note_on,,95.0,36.0,95.0,18720,19.5
3274,9.0,,,,,,44.0,,,,,480,note_off,,80.0,44.0,80.0,19200,20.0
3275,9.0,,,,,,41.0,,,,,0,note_off,,80.0,41.0,80.0,19200,20.0
3276,9.0,,,,,,36.0,,,,,0,note_off,,80.0,36.0,80.0,19200,20.0
3277,9.0,,,,,,44.0,,,,,0,note_on,,95.0,44.0,95.0,19200,20.0
3278,9.0,,,,,,41.0,,,,,0,note_on,,95.0,41.0,95.0,19200,20.0
3279,9.0,,,,,,36.0,,,,,0,note_on,,95.0,36.0,95.0,19200,20.0
3280,9.0,,,,,,44.0,,,,,480,note_off,,80.0,44.0,80.0,19680,20.5
3281,9.0,,,,,,41.0,,,,,0,note_off,,80.0,41.0,80.0,19680,20.5
3282,9.0,,,,,,36.0,,,,,0,note_off,,80.0,36.0,80.0,19680,20.5
3283,9.0,,,,,,44.0,,,,,0,note_on,,95.0,44.0,95.0,19680,20.5
3284,9.0,,,,,,41.0,,,,,0,note_on,,95.0,41.0,95.0,19680,20.5
3285,9.0,,,,,,36.0,,,,,0,note_on,,95.0,36.0,95.0,19680,20.5
3286,9.0,,,,,,44.0,,,,,480,note_off,,80.0,44.0,80.0,20160,21.0
3287,9.0,,,,,,41.0,,,,,0,note_off,,80.0,41.0,80.0,20160,21.0
3288,9.0,,,,,,36.0,,,,,0,note_off,,80.0,36.0,80.0,20160,21.0
3289,9.0,,,,,,44.0,,,,,0,note_on,,95.0,44.0,95.0,20160,21.0
3290,9.0,,,,,,41.0,,,,,0,note_on,,95.0,41.0,95.0,20160,21.0
3291,9.0,,,,,,36.0,,,,,0,note_on,,95.0,36.0,95.0,20160,21.0
3292,9.0,,,,,,44.0,,,,,480,note_off,,80.0,44.0,80.0,20640,21.5
3293,9.0,,,,,,41.0,,,,,0,note_off,,80.0,41.0,80.0,20640,21.5
3294,9.0,,,,,,36.0,,,,,0,note_off,,80.0,36.0,80.0,20640,21.5
3295,9.0,,,,,,44.0,,,,,0,note_on,,95.0,44.0,95.0,20640,21.5
3296,9.0,,,,,,41.0,,,,,0,note_on,,95.0,41.0,95.0,20640,21.5
3297,9.0,,,,,,36.0,,,,,0,note_on,,95.0,36.0,95.0,20640,21.5
3298,9.0,,,,,,44.0,,,,,480,note_off,,80.0,44.0,80.0,21120,22.0
3299,9.0,,,,,,41.0,,,,,0,note_off,,80.0,41.0,80.0,21120,22.0
3300,9.0,,,,,,36.0,,,,,0,note_off,,80.0,36.0,80.0,21120,22.0
3301,9.0,,,,,,44.0,,,,,0,note_on,,95.0,44.0,95.0,21120,22.0
3302,9.0,,,,,,41.0,,,,,0,note_on,,95.0,41.0,95.0,21120,22.0
3303,9.0,,,,,,36.0,,,,,0,note_on,,95.0,36.0,95.0,21120,22.0
3304,9.0,,,,,,44.0,,,,,480,note_off,,80.0,44.0,80.0,21600,22.5
3305,9.0,,,,,,41.0,,,,,0,note_off,,80.0,41.0,80.0,21600,22.5
3306,9.0,,,,,,36.0,,,,,0,note_off,,80.0,36.0,80.0,21600,22.5
3307,9.0,,,,,,44.0,,,,,0,note_on,,95.0,44.0,95.0,21600,22.5
3308,9.0,,,,,,41.0,,,,,0,note_on,,95.0,41.0,95.0,21600,22.5
3309,9.0,,,,,,36.0,,,,,0,note_on,,95.0,36.0,95.0,21600,22.5
3310,9.0,,,,,,44.0,,,,,480,note_off,,80.0,44.0,80.0,22080,23.0
3311,9.0,,,,,,41.0,,,,,0,note_off,,80.0,41.0,80.0,22080,23.0
3312,9.0,,,,,,36.0,,,,,0,note_off,,80.0,36.0,80.0,22080,23.0
3313,9.0,,,,,,44.0,,,,,0,note_on,,95.0,44.0,95.0,22080,23.0
3314,9.0,,,,,,41.0,,,,,0,note_on,,95.0,41.0,95.0,22080,23.0
3315,9.0,,,,,,36.0,,,,,0,note_on,,95.0,36.0,95.0,22080,23.0
3316,9.0,,,,,,44.0,,,,,480,note_off,,80.0,44.0,80.0,22560,23.5
3317,9.0,,,,,,41.0,,,,,0,note_off,,80.0,41.0,80.0,22560,23.5
3318,9.0,,,,,,36.0,,,,,0,note_off,,80.0,36.0,80.0,22560,23.5
3319,9.0,,,,,,44.0,,,,,0,note_on,,95.0,44.0,95.0,22560,23.5
3320,9.0,,,,,,41.0,,,,,0,note_on,,95.0,41.0,95.0,22560,23.5
3321,9.0,,,,,,36.0,,,,,0,note_on,,95.0,36.0,95.0,22560,23.5
3322,9.0,,,,,,44.0,,,,,480,note_off,,80.0,44.0,80.0,23040,24.0
3323,9.0,,,,,,41.0,,,,,0,note_off,,80.0,41.0,80.0,23040,24.0
3324,9.0,,,,,,36.0,,,,,0,note_off,,80.0,36.0,80.0,23040,24.0
3325,9.0,,,,,,44.0,,,,,0,note_on,,95.0,44.0,95.0,23040,24.0
3326,9.0,,,,,,41.0,,,,,0,note_on,,95.0,41.0,95.0,23040,24.0
3327,9.0,,,,,,36.0,,,,,0,note_on,,95.0,36.0,95.0,23040,24.0
3328,9.0,,,,,,44.0,,,,,480,note_off,,80.0,44.0,80.0,23520,24.5
3329,9.0,,,,,,41.0,,,,,0,note_off,,80.0,41.0,80.0,23520,24.5
3330,9.0,,,,,,36.0,,,,,0,note_off,,80.0,36.0,80.0,23520,24.5
3331,9.0,,,,,,44.0,,,,,0,note_on,,95.0,44.0,95.0,23520,24.5
3332,9.0,,,,,,41.0,,,,,0,note_on,,95.0,41.0,95.0,23520,24.5
3333,9.0,,,,,,36.0,,,,,0,note_on,,95.0,36.0,95.0,23520,24.5
3334,9.0,,,,,,44.0,,,,,480,note_off,,80.0,44.0,80.0,24000,25.0
3335,9.0,,,,,,41.0,,,,,0,note_off,,80.0,41.0,80.0,24000,25.0
3336,9.0,,,,,,36.0,,,,,0,note_off,,80.0,36.0,80.0,24000,25.0
3337,9.0,,,,,,44.0,,,,,0,note_on,,95.0,44.0,95.0,24000,25.0
3338,9.0,,,,,,41.0,,,,,0,note_on,,95.0,41.0,95.0,24000,25.0
3339,9.0,,,,,,36.0,,,,,0,note_on,,95.0,36.0,95.0,24000,25.0
3340,9.0,,,,,,44.0,,,,,480,note_off,,80.0,44.0,80.0,24480,25.5
3341,9.0,,,,,,41.0,,,,,0,note_off,,80.0,41.0,80.0,24480,25.5
3342,9.0,,,,,,36.0,,,,,0,note_off,,80.0,36.0,80.0,24480,25.5
3343,9.0,,,,,,44.0,,,,,0,note_on,,95.0,44.0,95.0,24480,25.5
3344,9.0,,,,,,41.0,,,,,0,note_on,,95.0,41.0,95.0,24480,25.5
3345,9.0,,,,,,36.0,,,,,0,note_on,,95.0,36.0,95.0,24480,25.5
3346,9.0,,,,,,44.0,,,,,480,note_off,,80.0,44.0,80.0,24960,26.0
3347,9.0,,,,,,41.0,,,,,0,note_off,,80.0,41.0,80.0,24960,26.0
3348,9.0,,,,,,36.0,,,,,0,note_off,,80.0,36.0,80.0,24960,26.0
3349,9.0,,,,,,44.0,,,,,0,note_on,,95.0,44.0,95.0,24960,26.0
3350,9.0,,,,,,41.0,,,,,0,note_on,,95.0,41.0,95.0,24960,26.0
3351,9.0,,,,,,36.0,,,,,0,note_on,,95.0,36.0,95.0,24960,26.0
3352,9.0,,,,,,44.0,,,,,480,note_off,,80.0,44.0,80.0,25440,26.5
3353,9.0,,,,,,41.0,,,,,0,note_off,,80.0,41.0,80.0,25440,26.5
3354,9.0,,,,,,36.0,,,,,0,note_off,,80.0,36.0,80.0,25440,26.5
3355,9.0,,,,,,44.0,,,,,0,note_on,,95.0,44.0,95.0,25440,26.5
3356,9.0,,,,,,41.0,,,,,0,note_on,,95.0,41.0,95.0,25440,26.5
3357,9.0,,,,,,36.0,,,,,0,note_on,,95.0,36.0,95.0,25440,26.5
3358,9.0,,,,,,44.0,,,,,480,note_off,,80.0,44.0,80.0,25920,27.0
3359,9.0,,,,,,41.0,,,,,0,note_off,,80.0,41.0,80.0,25920,27.0
3360,9.0,,,,,,36.0,,,,,0,note_off,,80.0,36.0,80.0,25920,27.0
3361,9.0,,,,,,44.0,,,,,0,note_on,,95.0,44.0,95.0,25920,27.0
3362,9.0,,,,,,41.0,,,,,0,note_on,,95.0,41.0,95.0,25920,27.0
3363,9.0,,,,,,36.0,,,,,0,note_on,,95.0,36.0,95.0,25920,27.0
3364,9.0,,,,,,44.0,,,,,480,note_off,,80.0,44.0,80.0,26400,27.5
3365,9.0,,,,,,41.0,,,,,0,note_off,,80.0,41.0,80.0,26400,27.5
3366,9.0,,,,,,36.0,,,,,0,note_off,,80.0,36.0,80.0,26400,27.5
3367,9.0,,,,,,44.0,,,,,0,note_on,,95.0,44.0,95.0,26400,27.5
3368,9.0,,,,,,41.0,,,,,0,note_on,,95.0,41.0,95.0,26400,27.5
3369,9.0,,,,,,36.0,,,,,0,note_on,,95.0,36.0,95.0,26400,27.5
3370,9.0,,,,,,44.0,,,,,480,note_off,,80.0,44.0,80.0,26880,28.0
3371,9.0,,,,,,41.0,,,,,0,note_off,,80.0,41.0,80.0,26880,28.0
3372,9.0,,,,,,36.0,,,,,0,note_off,,80.0,36.0,80.0,26880,28.0
3373,9.0,,,,,,44.0,,,,,0,note_on,,95.0,44.0,95.0,26880,28.0
3374,9.0,,,,,,41.0,,,,,0,note_on,,95.0,41.0,95.0,26880,28.0
3375,9.0,,,,,,36.0,,,,,0,note_on,,95.0,36.0,95.0,26880,28.0
3376,9.0,,,,,,44.0,,,,,480,note_off,,80.0,44.0,80.0,27360,28.5
3377,9.0,,,,,,41.0,,,,,0,note_off,,80.0,41.0,80.0,27360,28.5
3378,9.0,,,,,,36.0,,,,,0,note_off,,80.0,36.0,80.0,27360,28.5
3379,9.0,,,,,,44.0,,,,,0,note_on,,95.0,44.0,95.0,27360,28.5
3380,9.0,,,,,,41.0,,,,,0,note_on,,95.0,41.0,95.0,27360,28.5
3381,9.0,,,,,,36.0,,,,,0,note_on,,95.0,36.0,95.0,27360,28.5
3382,9.0,,,,,,44.0,,,,,480,note_off,,80.0,44.0,80.0,27840,29.0
3383,9.0,,,,,,41.0,,,,,0,note_off,,80.0,41.0,80.0,27840,29.0
3384,9.0,,,,,,36.0,,,,,0,note_off,,80.0,36.0,80.0,27840,29.0
3385,9.0,,,,,,44.0,,,,,0,note_on,,95.0,44.0,95.0,27840,29.0
3386,9.0,,,,,,41.0,,,,,0,note_on,,95.0,41.0,95.0,27840,29.0
3387,9.0,,,,,,36.0,,,,,0,note_on,,95.0,36.0,95.0,27840,29.0
3388,9.0,,,,,,44.0,,,,,480,note_off,,80.0,44.0,80.0,28320,29.5
3389,9.0,,,,,,41.0,,,,,0,note_off,,80.0,41.0,80.0,28320,29.5
3390,9.0,,,,,,36.0,,,,,0,note_off,,80.0,36.0,80.0,28320,29.5
3391,9.0,,,,,,44.0,,,,,0,note_on,,95.0,44.0,95.0,28320,29.5
3392,9.0,,,,,,41.0,,,,,0,note_on,,95.0,41.0,95.0,28320,29.5
3393,9.0,,,,,,36.0,,,,,0,note_on,,95.0,36.0,95.0,28320,29.5
3394,9.0,,,,,,44.0,,,,,480,note_off,,80.0,44.0,80.0,28800,30.0
3395,9.0,,,,,,41.0,,,,,0,note_off,,80.0,41.0,80.0,28800,30.0
3396,9.0,,,,,,36.0,,,,,0,note_off,,80.0,36.0,80.0,28800,30.0
3397,9.0,,,,,,44.0,,,,,0,note_on,,95.0,44.0,95.0,28800,30.0
3398,9.0,,,,,,41.0,,,,,0,note_on,,95.0,41.0,95.0,28800,30.0
3399,9.0,,,,,,36.0,,,,,0,note_on,,95.0,36.0,95.0,28800,30.0
3400,9.0,,,,,,44.0,,,,,480,note_off,,80.0,44.0,80.0,29280,30.5
3401,9.0,,,,,,41.0,,,,,0,note_off,,80.0,41.0,80.0,29280,30.5
3402,9.0,,,,,,36.0,,,,,0,note_off,,80.0,36.0,80.0,29280,30.5
3403,9.0,,,,,,44.0,,,,,0,note_on,,95.0,44.0,95.0,29280,30.5
3404,9.0,,,,,,41.0,,,,,0,note_on,,95.0,41.0,95.0,29280,30.5
3405,9.0,,,,,,36.0,,,,,0,note_on,,95.0,36.0,95.0,29280,30.5
3406,9.0,,,,,,44.0,,,,,480,note_off,,80.0,44.0,80.0,29760,31.0
3407,9.0,,,,,,41.0,,,,,0,note_off,,80.0,41.0,80.0,29760,31.0
3408,9.0,,,,,,36.0,,,,,0,note_off,,80.0,36.0,80.0,29760,31.0
3409,9.0,,,,,,44.0,,,,,0,note_on,,95.0,44.0,95.0,29760,31.0
3410,9.0,,,,,,41.0,,,,,0,note_on,,95.0,41.0,95.0,29760,31.0
3411,9.0,,,,,,36.0,,,,,0,note_on,,95.0,36.0,95.0,29760,31.0
3412,9.0,,,,,,44.0,,,,,480,note_off,,80.0,44.0,80.0,30240,31.5
3413,9.0,,,,,,41.0,,,,,0,note_off,,80.0,41.0,80.0,30240,31.5
3414,9.0,,,,,,36.0,,,,,0,note_off,,80.0,36.0,80.0,30240,31.5
3415,9.0,,,,,,44.0,,,,,0,note_on,,95.0,44.0,95.0,30240,31.5
3416,9.0,,,,,,41.0,,,,,0,note_on,,95.0,41.0,95.0,30240,31.5
3417,9.0,,,,,,36.0,,,,,0,note_on,,95.0,36.0,95.0,30240,31.5
3418,9.0,,,,,,44.0,,,,,480,note_off,,80.0,44.0,80.0,30720,32.0
3419,9.0,,,,,,41.0,,,,,0,note_off,,80.0,41.0,80.0,30720,32.0
3420,9.0,,,,,,36.0,,,,,0,note_off,,80.0,36.0,80.0,30720,32.0
3421,9.0,,,,,,44.0,,,,,0,note_on,,95.0,44.0,95.0,30720,32.0
3422,9.0,,,,,,36.0,,,,,0,note_on,,95.0,36.0,95.0,30720,32.0
3423,9.0,,,,,,44.0,,,,,480,note_off,,80.0,44.0,80.0,31200,32.5
3424,9.0,,,,,,36.0,,,,,0,note_off,,80.0,36.0,80.0,31200,32.5
3425,9.0,,,,,,44.0,,,,,0,note_on,,95.0,44.0,95.0,31200,32.5
3426,9.0,,,,,,38.0,,,,,0,note_on,,95.0,38.0,95.0,31200,32.5
3427,9.0,,,,,,44.0,,,,,480,note_off,,80.0,44.0,80.0,31680,33.0
3428,9.0,,,,,,38.0,,,,,0,note_off,,80.0,38.0,80.0,31680,33.0
3429,9.0,,,,,,44.0,,,,,0,note_on,,95.0,44.0,95.0,31680,33.0
3430,9.0,,,,,,36.0,,,,,0,note_on,,95.0,36.0,95.0,31680,33.0
3431,9.0,,,,,,44.0,,,,,480,note_off,,80.0,44.0,80.0,32160,33.5
3432,9.0,,,,,,36.0,,,,,0,note_off,,80.0,36.0,80.0,32160,33.5
3433,9.0,,,,,,44.0,,,,,0,note_on,,95.0,44.0,95.0,32160,33.5
3434,9.0,,,,,,38.0,,,,,0,note_on,,95.0,38.0,95.0,32160,33.5
3435,9.0,,,,,,44.0,,,,,480,note_off,,80.0,44.0,80.0,32640,34.0
3436,9.0,,,,,,38.0,,,,,0,note_off,,80.0,38.0,80.0,32640,34.0
3437,9.0,,,,,,44.0,,,,,0,note_on,,95.0,44.0,95.0,32640,34.0
3438,9.0,,,,,,36.0,,,,,0,note_on,,95.0,36.0,95.0,32640,34.0
3439,9.0,,,,,,44.0,,,,,480,note_off,,80.0,44.0,80.0,33120,34.5
3440,9.0,,,,,,36.0,,,,,0,note_off,,80.0,36.0,80.0,33120,34.5
3441,9.0,,,,,,44.0,,,,,0,note_on,,95.0,44.0,95.0,33120,34.5
3442,9.0,,,,,,38.0,,,,,0,note_on,,95.0,38.0,95.0,33120,34.5
3443,9.0,,,,,,44.0,,,,,480,note_off,,80.0,44.0,80.0,33600,35.0
3444,9.0,,,,,,38.0,,,,,0,note_off,,80.0,38.0,80.0,33600,35.0
3445,9.0,,,,,,44.0,,,,,0,note_on,,95.0,44.0,95.0,33600,35.0
3446,9.0,,,,,,36.0,,,,,0,note_on,,95.0,36.0,95.0,33600,35.0
3447,9.0,,,,,,44.0,,,,,480,note_off,,80.0,44.0,80.0,34080,35.5
3448,9.0,,,,,,36.0,,,,,0,note_off,,80.0,36.0,80.0,34080,35.5
3449,9.0,,,,,,44.0,,,,,0,note_on,,95.0,44.0,95.0,34080,35.5
3450,9.0,,,,,,38.0,,,,,0,note_on,,95.0,38.0,95.0,34080,35.5
3451,9.0,,,,,,44.0,,,,,480,note_off,,80.0,44.0,80.0,34560,36.0
3452,9.0,,,,,,38.0,,,,,0,note_off,,80.0,38.0,80.0,34560,36.0
3453,9.0,,,,,,44.0,,,,,0,note_on,,95.0,44.0,95.0,34560,36.0
3454,9.0,,,,,,36.0,,,,,0,note_on,,95.0,36.0,95.0,34560,36.0
3455,9.0,,,,,,44.0,,,,,480,note_off,,80.0,44.0,80.0,35040,36.5
3456,9.0,,,,,,36.0,,,,,0,note_off,,80.0,36.0,80.0,35040,36.5
3457,9.0,,,,,,44.0,,,,,0,note_on,,95.0,44.0,95.0,35040,36.5
3458,9.0,,,,,,38.0,,,,,0,note_on,,95.0,38.0,95.0,35040,36.5
3459,9.0,,,,,,44.0,,,,,480,note_off,,80.0,44.0,80.0,35520,37.0
3460,9.0,,,,,,38.0,,,,,0,note_off,,80.0,38.0,80.0,35520,37.0
3461,9.0,,,,,,44.0,,,,,0,note_on,,95.0,44.0,95.0,35520,37.0
3462,9.0,,,,,,36.0,,,,,0,note_on,,95.0,36.0,95.0,35520,37.0
3463,9.0,,,,,,44.0,,,,,480,note_off,,80.0,44.0,80.0,36000,37.5
3464,9.0,,,,,,36.0,,,,,0,note_off,,80.0,36.0,80.0,36000,37.5
3465,9.0,,,,,,44.0,,,,,0,note_on,,95.0,44.0,95.0,36000,37.5
3466,9.0,,,,,,38.0,,,,,0,note_on,,95.0,38.0,95.0,36000,37.5
3467,9.0,,,,,,44.0,,,,,480,note_off,,80.0,44.0,80.0,36480,38.0
3468,9.0,,,,,,38.0,,,,,0,note_off,,80.0,38.0,80.0,36480,38.0
3469,9.0,,,,,,44.0,,,,,0,note_on,,95.0,44.0,95.0,36480,38.0
3470,9.0,,,,,,36.0,,,,,0,note_on,,95.0,36.0,95.0,36480,38.0
3471,9.0,,,,,,44.0,,,,,480,note_off,,80.0,44.0,80.0,36960,38.5
3472,9.0,,,,,,36.0,,,,,0,note_off,,80.0,36.0,80.0,36960,38.5
3473,9.0,,,,,,44.0,,,,,0,note_on,,95.0,44.0,95.0,36960,38.5
3474,9.0,,,,,,38.0,,,,,0,note_on,,95.0,38.0,95.0,36960,38.5
3475,9.0,,,,,,44.0,,,,,480,note_off,,80.0,44.0,80.0,37440,39.0
3476,9.0,,,,,,38.0,,,,,0,note_off,,80.0,38.0,80.0,37440,39.0
3477,9.0,,,,,,44.0,,,,,0,note_on,,95.0,44.0,95.0,37440,39.0
3478,9.0,,,,,,36.0,,,,,0,note_on,,95.0,36.0,95.0,37440,39.0
3479,9.0,,,,,,44.0,,,,,480,note_off,,80.0,44.0,80.0,37920,39.5
3480,9.0,,,,,,36.0,,,,,0,note_off,,80.0,36.0,80.0,37920,39.5
3481,9.0,,,,,,44.0,,,,,0,note_on,,95.0,44.0,95.0,37920,39.5
3482,9.0,,,,,,38.0,,,,,0,note_on,,95.0,38.0,95.0,37920,39.5
3483,9.0,,,,,,44.0,,,,,480,note_off,,80.0,44.0,80.0,38400,40.0
3484,9.0,,,,,,38.0,,,,,0,note_off,,80.0,38.0,80.0,38400,40.0
3485,9.0,,,,,,44.0,,,,,0,note_on,,95.0,44.0,95.0,38400,40.0
3486,9.0,,,,,,36.0,,,,,0,note_on,,95.0,36.0,95.0,38400,40.0
3487,9.0,,,,,,44.0,,,,,480,note_off,,80.0,44.0,80.0,38880,40.5
3488,9.0,,,,,,36.0,,,,,0,note_off,,80.0,36.0,80.0,38880,40.5
3489,9.0,,,,,,44.0,,,,,0,note_on,,95.0,44.0,95.0,38880,40.5
3490,9.0,,,,,,38.0,,,,,0,note_on,,95.0,38.0,95.0,38880,40.5
3491,9.0,,,,,,44.0,,,,,480,note_off,,80.0,44.0,80.0,39360,41.0
3492,9.0,,,,,,38.0,,,,,0,note_off,,80.0,38.0,80.0,39360,41.0
3493,9.0,,,,,,44.0,,,,,0,note_on,,95.0,44.0,95.0,39360,41.0
3494,9.0,,,,,,36.0,,,,,0,note_on,,95.0,36.0,95.0,39360,41.0
3495,9.0,,,,,,44.0,,,,,480,note_off,,80.0,44.0,80.0,39840,41.5
3496,9.0,,,,,,36.0,,,,,0,note_off,,80.0,36.0,80.0,39840,41.5
3497,9.0,,,,,,44.0,,,,,0,note_on,,95.0,44.0,95.0,39840,41.5
3498,9.0,,,,,,38.0,,,,,0,note_on,,95.0,38.0,95.0,39840,41.5
3499,9.0,,,,,,44.0,,,,,480,note_off,,80.0,44.0,80.0,40320,42.0
3500,9.0,,,,,,38.0,,,,,0,note_off,,80.0,38.0,80.0,40320,42.0
3501,9.0,,,,,,44.0,,,,,0,note_on,,95.0,44.0,95.0,40320,42.0
3502,9.0,,,,,,36.0,,,,,0,note_on,,95.0,36.0,95.0,40320,42.0
3503,9.0,,,,,,44.0,,,,,480,note_off,,80.0,44.0,80.0,40800,42.5
3504,9.0,,,,,,36.0,,,,,0,note_off,,80.0,36.0,80.0,40800,42.5
3505,9.0,,,,,,44.0,,,,,0,note_on,,95.0,44.0,95.0,40800,42.5
3506,9.0,,,,,,38.0,,,,,0,note_on,,95.0,38.0,95.0,40800,42.5
3507,9.0,,,,,,44.0,,,,,480,note_off,,80.0,44.0,80.0,41280,43.0
3508,9.0,,,,,,38.0,,,,,0,note_off,,80.0,38.0,80.0,41280,43.0
3509,9.0,,,,,,44.0,,,,,0,note_on,,95.0,44.0,95.0,41280,43.0
3510,9.0,,,,,,36.0,,,,,0,note_on,,95.0,36.0,95.0,41280,43.0
3511,9.0,,,,,,44.0,,,,,480,note_off,,80.0,44.0,80.0,41760,43.5
3512,9.0,,,,,,36.0,,,,,0,note_off,,80.0,36.0,80.0,41760,43.5
3513,9.0,,,,,,44.0,,,,,0,note_on,,95.0,44.0,95.0,41760,43.5
3514,9.0,,,,,,38.0,,,,,0,note_on,,95.0,38.0,95.0,41760,43.5
3515,9.0,,,,,,44.0,,,,,480,note_off,,80.0,44.0,80.0,42240,44.0
3516,9.0,,,,,,38.0,,,,,0,note_off,,80.0,38.0,80.0,42240,44.0
3517,9.0,,,,,,44.0,,,,,0,note_on,,95.0,44.0,95.0,42240,44.0
3518,9.0,,,,,,36.0,,,,,0,note_on,,95.0,36.0,95.0,42240,44.0
3519,9.0,,,,,,44.0,,,,,480,note_off,,80.0,44.0,80.0,42720,44.5
3520,9.0,,,,,,36.0,,,,,0,note_off,,80.0,36.0,80.0,42720,44.5
3521,9.0,,,,,,44.0,,,,,0,note_on,,95.0,44.0,95.0,42720,44.5
3522,9.0,,,,,,38.0,,,,,0,note_on,,95.0,38.0,95.0,42720,44.5
3523,9.0,,,,,,44.0,,,,,480,note_off,,80.0,44.0,80.0,43200,45.0
3524,9.0,,,,,,38.0,,,,,0,note_off,,80.0,38.0,80.0,43200,45.0
3525,9.0,,,,,,44.0,,,,,0,note_on,,95.0,44.0,95.0,43200,45.0
3526,9.0,,,,,,36.0,,,,,0,note_on,,95.0,36.0,95.0,43200,45.0
3527,9.0,,,,,,44.0,,,,,480,note_off,,80.0,44.0,80.0,43680,45.5
3528,9.0,,,,,,36.0,,,,,0,note_off,,80.0,36.0,80.0,43680,45.5
3529,9.0,,,,,,44.0,,,,,0,note_on,,95.0,44.0,95.0,43680,45.5
3530,9.0,,,,,,38.0,,,,,0,note_on,,95.0,38.0,95.0,43680,45.5
3531,9.0,,,,,,44.0,,,,,480,note_off,,80.0,44.0,80.0,44160,46.0
3532,9.0,,,,,,38.0,,,,,0,note_off,,80.0,38.0,80.0,44160,46.0
3533,9.0,,,,,,44.0,,,,,0,note_on,,95.0,44.0,95.0,44160,46.0
3534,9.0,,,,,,36.0,,,,,0,note_on,,95.0,36.0,95.0,44160,46.0
3535,9.0,,,,,,44.0,,,,,480,note_off,,80.0,44.0,80.0,44640,46.5
3536,9.0,,,,,,36.0,,,,,0,note_off,,80.0,36.0,80.0,44640,46.5
3537,9.0,,,,,,44.0,,,,,0,note_on,,95.0,44.0,95.0,44640,46.5
3538,9.0,,,,,,38.0,,,,,0,note_on,,95.0,38.0,95.0,44640,46.5
3539,9.0,,,,,,44.0,,,,,480,note_off,,80.0,44.0,80.0,45120,47.0
3540,9.0,,,,,,38.0,,,,,0,note_off,,80.0,38.0,80.0,45120,47.0
3541,9.0,,,,,,44.0,,,,,0,note_on,,95.0,44.0,95.0,45120,47.0
3542,9.0,,,,,,36.0,,,,,0,note_on,,95.0,36.0,95.0,45120,47.0
3543,9.0,,,,,,44.0,,,,,480,note_off,,80.0,44.0,80.0,45600,47.5
3544,9.0,,,,,,36.0,,,,,0,note_off,,80.0,36.0,80.0,45600,47.5
3545,9.0,,,,,,44.0,,,,,0,note_on,,95.0,44.0,95.0,45600,47.5
3546,9.0,,,,,,38.0,,,,,0,note_on,,95.0,38.0,95.0,45600,47.5
3547,9.0,,,,,,44.0,,,,,480,note_off,,80.0,44.0,80.0,46080,48.0
3548,9.0,,,,,,38.0,,,,,0,note_off,,80.0,38.0,80.0,46080,48.0
3549,9.0,,,,,,57.0,,,,,0,note_on,,95.0,57.0,95.0,46080,48.0
3550,9.0,,,,,,36.0,,,,,0,note_on,,95.0,36.0,95.0,46080,48.0
3551,9.0,,,,,,57.0,,,,,480,note_off,,80.0,57.0,80.0,46560,48.5
3552,9.0,,,,,,36.0,,,,,0,note_off,,80.0,36.0,80.0,46560,48.5
3553,9.0,,,,,,42.0,,,,,0,note_on,,95.0,42.0,95.0,46560,48.5
3554,9.0,,,,,,42.0,,,,,480,note_off,,80.0,42.0,80.0,47040,49.0
3555,9.0,,,,,,42.0,,,,,0,note_on,,95.0,42.0,95.0,47040,49.0
3556,9.0,,,,,,42.0,,,,,480,note_off,,80.0,42.0,80.0,47520,49.5
3557,9.0,,,,,,42.0,,,,,0,note_on,,95.0,42.0,95.0,47520,49.5
3558,9.0,,,,,,42.0,,,,,480,note_off,,80.0,42.0,80.0,48000,50.0
3559,9.0,,,,,,57.0,,,,,0,note_on,,95.0,57.0,95.0,48000,50.0
3560,9.0,,,,,,36.0,,,,,0,note_on,,95.0,36.0,95.0,48000,50.0
3561,9.0,,,,,,57.0,,,,,480,note_off,,80.0,57.0,80.0,48480,50.5
3562,9.0,,,,,,36.0,,,,,0,note_off,,80.0,36.0,80.0,48480,50.5
3563,9.0,,,,,,42.0,,,,,0,note_on,,95.0,42.0,95.0,48480,50.5
3564,9.0,,,,,,42.0,,,,,480,note_off,,80.0,42.0,80.0,48960,51.0
3565,9.0,,,,,,42.0,,,,,0,note_on,,95.0,42.0,95.0,48960,51.0
3566,9.0,,,,,,42.0,,,,,480,note_off,,80.0,42.0,80.0,49440,51.5
3567,9.0,,,,,,42.0,,,,,0,note_on,,95.0,42.0,95.0,49440,51.5
3568,9.0,,,,,,42.0,,,,,480,note_off,,80.0,42.0,80.0,49920,52.0
3569,9.0,,,,,,57.0,,,,,0,note_on,,95.0,57.0,95.0,49920,52.0
3570,9.0,,,,,,36.0,,,,,0,note_on,,95.0,36.0,95.0,49920,52.0
3571,9.0,,,,,,57.0,,,,,480,note_off,,80.0,57.0,80.0,50400,52.5
3572,9.0,,,,,,36.0,,,,,0,note_off,,80.0,36.0,80.0,50400,52.5
3573,9.0,,,,,,57.0,,,,,0,note_on,,95.0,57.0,95.0,50400,52.5
3574,9.0,,,,,,38.0,,,,,0,note_on,,95.0,38.0,95.0,50400,52.5
3575,9.0,,,,,,57.0,,,,,480,note_off,,80.0,57.0,80.0,50880,53.0
3576,9.0,,,,,,38.0,,,,,0,note_off,,80.0,38.0,80.0,50880,53.0
3577,9.0,,,,,,57.0,,,,,0,note_on,,95.0,57.0,95.0,50880,53.0
3578,9.0,,,,,,36.0,,,,,0,note_on,,95.0,36.0,95.0,50880,53.0
3579,9.0,,,,,,57.0,,,,,480,note_off,,80.0,57.0,80.0,51360,53.5
3580,9.0,,,,,,36.0,,,,,0,note_off,,80.0,36.0,80.0,51360,53.5
3581,9.0,,,,,,57.0,,,,,0,note_on,,95.0,57.0,95.0,51360,53.5
3582,9.0,,,,,,38.0,,,,,0,note_on,,95.0,38.0,95.0,51360,53.5
3583,9.0,,,,,,57.0,,,,,480,note_off,,80.0,57.0,80.0,51840,54.0
3584,9.0,,,,,,38.0,,,,,0,note_off,,80.0,38.0,80.0,51840,54.0
3585,9.0,,,,,,57.0,,,,,0,note_on,,95.0,57.0,95.0,51840,54.0
3586,9.0,,,,,,36.0,,,,,0,note_on,,95.0,36.0,95.0,51840,54.0
3587,9.0,,,,,,57.0,,,,,480,note_off,,80.0,57.0,80.0,52320,54.5
3588,9.0,,,,,,36.0,,,,,0,note_off,,80.0,36.0,80.0,52320,54.5
3589,9.0,,,,,,57.0,,,,,0,note_on,,95.0,57.0,95.0,52320,54.5
3590,9.0,,,,,,38.0,,,,,0,note_on,,95.0,38.0,95.0,52320,54.5
3591,9.0,,,,,,57.0,,,,,480,note_off,,80.0,57.0,80.0,52800,55.0
3592,9.0,,,,,,38.0,,,,,0,note_off,,80.0,38.0,80.0,52800,55.0
3593,9.0,,,,,,57.0,,,,,0,note_on,,95.0,57.0,95.0,52800,55.0
3594,9.0,,,,,,36.0,,,,,0,note_on,,95.0,36.0,95.0,52800,55.0
3595,9.0,,,,,,57.0,,,,,480,note_off,,80.0,57.0,80.0,53280,55.5
3596,9.0,,,,,,36.0,,,,,0,note_off,,80.0,36.0,80.0,53280,55.5
3597,9.0,,,,,,57.0,,,,,0,note_on,,95.0,57.0,95.0,53280,55.5
3598,9.0,,,,,,38.0,,,,,0,note_on,,95.0,38.0,95.0,53280,55.5
3599,9.0,,,,,,57.0,,,,,480,note_off,,80.0,57.0,80.0,53760,56.0
3600,9.0,,,,,,38.0,,,,,0,note_off,,80.0,38.0,80.0,53760,56.0
3601,9.0,,,,,,57.0,,,,,0,note_on,,95.0,57.0,95.0,53760,56.0
3602,9.0,,,,,,36.0,,,,,0,note_on,,95.0,36.0,95.0,53760,56.0
3603,9.0,,,,,,57.0,,,,,480,note_off,,80.0,57.0,80.0,54240,56.5
3604,9.0,,,,,,36.0,,,,,0,note_off,,80.0,36.0,80.0,54240,56.5
3605,9.0,,,,,,57.0,,,,,0,note_on,,95.0,57.0,95.0,54240,56.5
3606,9.0,,,,,,38.0,,,,,0,note_on,,95.0,38.0,95.0,54240,56.5
3607,9.0,,,,,,38.0,,,,,240,note_off,,80.0,38.0,80.0,54480,56.75
3608,9.0,,,,,,36.0,,,,,0,note_on,,95.0,36.0,95.0,54480,56.75
3609,9.0,,,,,,57.0,,,,,240,note_off,,80.0,57.0,80.0,54720,57.0
3610,9.0,,,,,,36.0,,,,,0,note_off,,80.0,36.0,80.0,54720,57.0
3611,9.0,,,,,,57.0,,,,,0,note_on,,95.0,57.0,95.0,54720,57.0
3612,9.0,,,,,,36.0,,,,,0,note_on,,95.0,36.0,95.0,54720,57.0
3613,9.0,,,,,,57.0,,,,,480,note_off,,80.0,57.0,80.0,55200,57.5
3614,9.0,,,,,,36.0,,,,,0,note_off,,80.0,36.0,80.0,55200,57.5
3615,9.0,,,,,,57.0,,,,,0,note_on,,95.0,57.0,95.0,55200,57.5
3616,9.0,,,,,,36.0,,,,,0,note_on,,95.0,36.0,95.0,55200,57.5
3617,9.0,,,,,,36.0,,,,,240,note_off,,80.0,36.0,80.0,55440,57.75
3618,9.0,,,,,,38.0,,,,,0,note_on,,95.0,38.0,95.0,55440,57.75
3619,9.0,,,,,,57.0,,,,,240,note_off,,80.0,57.0,80.0,55680,58.0
3620,9.0,,,,,,38.0,,,,,0,note_off,,80.0,38.0,80.0,55680,58.0
3621,9.0,,,,,,57.0,,,,,0,note_on,,95.0,57.0,95.0,55680,58.0
3622,9.0,,,,,,36.0,,,,,0,note_on,,95.0,36.0,95.0,55680,58.0
3623,9.0,,,,,,57.0,,,,,480,note_off,,80.0,57.0,80.0,56160,58.5
3624,9.0,,,,,,36.0,,,,,0,note_off,,80.0,36.0,80.0,56160,58.5
3625,9.0,,,,,,57.0,,,,,0,note_on,,95.0,57.0,95.0,56160,58.5
3626,9.0,,,,,,38.0,,,,,0,note_on,,95.0,38.0,95.0,56160,58.5
3627,9.0,,,,,,57.0,,,,,480,note_off,,80.0,57.0,80.0,56640,59.0
3628,9.0,,,,,,38.0,,,,,0,note_off,,80.0,38.0,80.0,56640,59.0
3629,9.0,,,,,,57.0,,,,,0,note_on,,95.0,57.0,95.0,56640,59.0
3630,9.0,,,,,,36.0,,,,,0,note_on,,95.0,36.0,95.0,56640,59.0
3631,9.0,,,,,,57.0,,,,,480,note_off,,80.0,57.0,80.0,57120,59.5
3632,9.0,,,,,,36.0,,,,,0,note_off,,80.0,36.0,80.0,57120,59.5
3633,9.0,,,,,,57.0,,,,,0,note_on,,95.0,57.0,95.0,57120,59.5
3634,9.0,,,,,,38.0,,,,,0,note_on,,95.0,38.0,95.0,57120,59.5
3635,9.0,,,,,,57.0,,,,,480,note_off,,80.0,57.0,80.0,57600,60.0
3636,9.0,,,,,,38.0,,,,,0,note_off,,80.0,38.0,80.0,57600,60.0
3637,9.0,,,,,,57.0,,,,,0,note_on,,95.0,57.0,95.0,57600,60.0
3638,9.0,,,,,,36.0,,,,,0,note_on,,95.0,36.0,95.0,57600,60.0
3639,9.0,,,,,,57.0,,,,,480,note_off,,80.0,57.0,80.0,58080,60.5
3640,9.0,,,,,,36.0,,,,,0,note_off,,80.0,36.0,80.0,58080,60.5
3641,9.0,,,,,,57.0,,,,,0,note_on,,95.0,57.0,95.0,58080,60.5
3642,9.0,,,,,,38.0,,,,,0,note_on,,95.0,38.0,95.0,58080,60.5
3643,9.0,,,,,,57.0,,,,,480,note_off,,80.0,57.0,80.0,58560,61.0
3644,9.0,,,,,,38.0,,,,,0,note_off,,80.0,38.0,80.0,58560,61.0
3645,9.0,,,,,,57.0,,,,,0,note_on,,95.0,57.0,95.0,58560,61.0
3646,9.0,,,,,,36.0,,,,,0,note_on,,95.0,36.0,95.0,58560,61.0
3647,9.0,,,,,,57.0,,,,,480,note_off,,80.0,57.0,80.0,59040,61.5
3648,9.0,,,,,,36.0,,,,,0,note_off,,80.0,36.0,80.0,59040,61.5
3649,9.0,,,,,,57.0,,,,,0,note_on,,95.0,57.0,95.0,59040,61.5
3650,9.0,,,,,,38.0,,,,,0,note_on,,95.0,38.0,95.0,59040,61.5
3651,9.0,,,,,,57.0,,,,,480,note_off,,80.0,57.0,80.0,59520,62.0
3652,9.0,,,,,,38.0,,,,,0,note_off,,80.0,38.0,80.0,59520,62.0
3653,9.0,,,,,,57.0,,,,,0,note_on,,95.0,57.0,95.0,59520,62.0
3654,9.0,,,,,,36.0,,,,,0,note_on,,95.0,36.0,95.0,59520,62.0
3655,9.0,,,,,,57.0,,,,,480,note_off,,80.0,57.0,80.0,60000,62.5
3656,9.0,,,,,,36.0,,,,,0,note_off,,80.0,36.0,80.0,60000,62.5
3657,9.0,,,,,,57.0,,,,,0,note_on,,95.0,57.0,95.0,60000,62.5
3658,9.0,,,,,,38.0,,,,,0,note_on,,95.0,38.0,95.0,60000,62.5
3659,9.0,,,,,,57.0,,,,,480,note_off,,80.0,57.0,80.0,60480,63.0
3660,9.0,,,,,,38.0,,,,,0,note_off,,80.0,38.0,80.0,60480,63.0
3661,9.0,,,,,,57.0,,,,,0,note_on,,95.0,57.0,95.0,60480,63.0
3662,9.0,,,,,,36.0,,,,,0,note_on,,95.0,36.0,95.0,60480,63.0
3663,9.0,,,,,,57.0,,,,,480,note_off,,80.0,57.0,80.0,60960,63.5
3664,9.0,,,,,,36.0,,,,,0,note_off,,80.0,36.0,80.0,60960,63.5
3665,9.0,,,,,,57.0,,,,,0,note_on,,95.0,57.0,95.0,60960,63.5
3666,9.0,,,,,,38.0,,,,,0,note_on,,95.0,38.0,95.0,60960,63.5
3667,9.0,,,,,,57.0,,,,,480,note_off,,80.0,57.0,80.0,61440,64.0
3668,9.0,,,,,,38.0,,,,,0,note_off,,80.0,38.0,80.0,61440,64.0
3669,9.0,,,,,,57.0,,,,,0,note_on,,95.0,57.0,95.0,61440,64.0
3670,9.0,,,,,,36.0,,,,,0,note_on,,95.0,36.0,95.0,61440,64.0
3671,9.0,,,,,,57.0,,,,,480,note_off,,80.0,57.0,80.0,61920,64.5
3672,9.0,,,,,,36.0,,,,,0,note_off,,80.0,36.0,80.0,61920,64.5
3673,9.0,,,,,,57.0,,,,,0,note_on,,95.0,57.0,95.0,61920,64.5
3674,9.0,,,,,,38.0,,,,,0,note_on,,95.0,38.0,95.0,61920,64.5
3675,9.0,,,,,,38.0,,,,,240,note_off,,80.0,38.0,80.0,62160,64.75
3676,9.0,,,,,,36.0,,,,,0,note_on,,95.0,36.0,95.0,62160,64.75
3677,9.0,,,,,,57.0,,,,,240,note_off,,80.0,57.0,80.0,62400,65.0
3678,9.0,,,,,,36.0,,,,,0,note_off,,80.0,36.0,80.0,62400,65.0
3679,9.0,,,,,,57.0,,,,,0,note_on,,95.0,57.0,95.0,62400,65.0
3680,9.0,,,,,,36.0,,,,,0,note_on,,95.0,36.0,95.0,62400,65.0
3681,9.0,,,,,,57.0,,,,,480,note_off,,80.0,57.0,80.0,62880,65.5
3682,9.0,,,,,,36.0,,,,,0,note_off,,80.0,36.0,80.0,62880,65.5
3683,9.0,,,,,,57.0,,,,,0,note_on,,95.0,57.0,95.0,62880,65.5
3684,9.0,,,,,,36.0,,,,,0,note_on,,95.0,36.0,95.0,62880,65.5
3685,9.0,,,,,,36.0,,,,,240,note_off,,80.0,36.0,80.0,63120,65.75
3686,9.0,,,,,,38.0,,,,,0,note_on,,95.0,38.0,95.0,63120,65.75
3687,9.0,,,,,,57.0,,,,,240,note_off,,80.0,57.0,80.0,63360,66.0
3688,9.0,,,,,,38.0,,,,,0,note_off,,80.0,38.0,80.0,63360,66.0
3689,9.0,,,,,,57.0,,,,,0,note_on,,95.0,57.0,95.0,63360,66.0
3690,9.0,,,,,,36.0,,,,,0,note_on,,95.0,36.0,95.0,63360,66.0
3691,9.0,,,,,,57.0,,,,,480,note_off,,80.0,57.0,80.0,63840,66.5
3692,9.0,,,,,,36.0,,,,,0,note_off,,80.0,36.0,80.0,63840,66.5
3693,9.0,,,,,,57.0,,,,,0,note_on,,95.0,57.0,95.0,63840,66.5
3694,9.0,,,,,,38.0,,,,,0,note_on,,95.0,38.0,95.0,63840,66.5
3695,9.0,,,,,,57.0,,,,,480,note_off,,80.0,57.0,80.0,64320,67.0
3696,9.0,,,,,,38.0,,,,,0,note_off,,80.0,38.0,80.0,64320,67.0
3697,9.0,,,,,,57.0,,,,,0,note_on,,95.0,57.0,95.0,64320,67.0
3698,9.0,,,,,,36.0,,,,,0,note_on,,95.0,36.0,95.0,64320,67.0
3699,9.0,,,,,,57.0,,,,,480,note_off,,80.0,57.0,80.0,64800,67.5
3700,9.0,,,,,,36.0,,,,,0,note_off,,80.0,36.0,80.0,64800,67.5
3701,9.0,,,,,,57.0,,,,,0,note_on,,95.0,57.0,95.0,64800,67.5
3702,9.0,,,,,,38.0,,,,,0,note_on,,95.0,38.0,95.0,64800,67.5
3703,9.0,,,,,,57.0,,,,,480,note_off,,80.0,57.0,80.0,65280,68.0
3704,9.0,,,,,,38.0,,,,,0,note_off,,80.0,38.0,80.0,65280,68.0
3705,9.0,,,,,,57.0,,,,,0,note_on,,95.0,57.0,95.0,65280,68.0
3706,9.0,,,,,,36.0,,,,,0,note_on,,95.0,36.0,95.0,65280,68.0
3707,9.0,,,,,,57.0,,,,,480,note_off,,80.0,57.0,80.0,65760,68.5
3708,9.0,,,,,,36.0,,,,,0,note_off,,80.0,36.0,80.0,65760,68.5
3709,9.0,,,,,,42.0,,,,,0,note_on,,95.0,42.0,95.0,65760,68.5
3710,9.0,,,,,,42.0,,,,,480,note_off,,80.0,42.0,80.0,66240,69.0
3711,9.0,,,,,,42.0,,,,,0,note_on,,95.0,42.0,95.0,66240,69.0
3712,9.0,,,,,,42.0,,,,,480,note_off,,80.0,42.0,80.0,66720,69.5
3713,9.0,,,,,,42.0,,,,,0,note_on,,95.0,42.0,95.0,66720,69.5
3714,9.0,,,,,,42.0,,,,,480,note_off,,80.0,42.0,80.0,67200,70.0
3715,9.0,,,,,,57.0,,,,,0,note_on,,95.0,57.0,95.0,67200,70.0
3716,9.0,,,,,,36.0,,,,,0,note_on,,95.0,36.0,95.0,67200,70.0
3717,9.0,,,,,,57.0,,,,,480,note_off,,80.0,57.0,80.0,67680,70.5
3718,9.0,,,,,,36.0,,,,,0,note_off,,80.0,36.0,80.0,67680,70.5
3719,9.0,,,,,,42.0,,,,,0,note_on,,95.0,42.0,95.0,67680,70.5
3720,9.0,,,,,,42.0,,,,,480,note_off,,80.0,42.0,80.0,68160,71.0
3721,9.0,,,,,,42.0,,,,,0,note_on,,95.0,42.0,95.0,68160,71.0
3722,9.0,,,,,,42.0,,,,,480,note_off,,80.0,42.0,80.0,68640,71.5
3723,9.0,,,,,,42.0,,,,,0,note_on,,95.0,42.0,95.0,68640,71.5
3724,9.0,,,,,,42.0,,,,,480,note_off,,80.0,42.0,80.0,69120,72.0
3725,9.0,,,,,,57.0,,,,,0,note_on,,95.0,57.0,95.0,69120,72.0
3726,9.0,,,,,,36.0,,,,,0,note_on,,95.0,36.0,95.0,69120,72.0
3727,9.0,,,,,,57.0,,,,,1920,note_off,,80.0,57.0,80.0,71040,74.0
3728,9.0,,,,,,36.0,,,,,0,note_off,,80.0,36.0,80.0,71040,74.0
3729,9.0,,,,,,44.0,,,,,5760,note_on,,95.0,44.0,95.0,76800,80.0
3730,9.0,,,,,,41.0,,,,,0,note_on,,95.0,41.0,95.0,76800,80.0
3731,9.0,,,,,,36.0,,,,,0,note_on,,95.0,36.0,95.0,76800,80.0
3732,9.0,,,,,,44.0,,,,,480,note_off,,80.0,44.0,80.0,77280,80.5
3733,9.0,,,,,,41.0,,,,,0,note_off,,80.0,41.0,80.0,77280,80.5
3734,9.0,,,,,,36.0,,,,,0,note_off,,80.0,36.0,80.0,77280,80.5
3735,9.0,,,,,,44.0,,,,,0,note_on,,95.0,44.0,95.0,77280,80.5
3736,9.0,,,,,,41.0,,,,,0,note_on,,95.0,41.0,95.0,77280,80.5
3737,9.0,,,,,,36.0,,,,,0,note_on,,95.0,36.0,95.0,77280,80.5
3738,9.0,,,,,,44.0,,,,,480,note_off,,80.0,44.0,80.0,77760,81.0
3739,9.0,,,,,,41.0,,,,,0,note_off,,80.0,41.0,80.0,77760,81.0
3740,9.0,,,,,,36.0,,,,,0,note_off,,80.0,36.0,80.0,77760,81.0
3741,9.0,,,,,,44.0,,,,,0,note_on,,95.0,44.0,95.0,77760,81.0
3742,9.0,,,,,,41.0,,,,,0,note_on,,95.0,41.0,95.0,77760,81.0
3743,9.0,,,,,,36.0,,,,,0,note_on,,95.0,36.0,95.0,77760,81.0
3744,9.0,,,,,,44.0,,,,,480,note_off,,80.0,44.0,80.0,78240,81.5
3745,9.0,,,,,,41.0,,,,,0,note_off,,80.0,41.0,80.0,78240,81.5
3746,9.0,,,,,,36.0,,,,,0,note_off,,80.0,36.0,80.0,78240,81.5
3747,9.0,,,,,,44.0,,,,,0,note_on,,95.0,44.0,95.0,78240,81.5
3748,9.0,,,,,,41.0,,,,,0,note_on,,95.0,41.0,95.0,78240,81.5
3749,9.0,,,,,,36.0,,,,,0,note_on,,95.0,36.0,95.0,78240,81.5
3750,9.0,,,,,,44.0,,,,,480,note_off,,80.0,44.0,80.0,78720,82.0
3751,9.0,,,,,,41.0,,,,,0,note_off,,80.0,41.0,80.0,78720,82.0
3752,9.0,,,,,,36.0,,,,,0,note_off,,80.0,36.0,80.0,78720,82.0
3753,9.0,,,,,,44.0,,,,,0,note_on,,95.0,44.0,95.0,78720,82.0
3754,9.0,,,,,,41.0,,,,,0,note_on,,95.0,41.0,95.0,78720,82.0
3755,9.0,,,,,,36.0,,,,,0,note_on,,95.0,36.0,95.0,78720,82.0
3756,9.0,,,,,,44.0,,,,,480,note_off,,80.0,44.0,80.0,79200,82.5
3757,9.0,,,,,,41.0,,,,,0,note_off,,80.0,41.0,80.0,79200,82.5
3758,9.0,,,,,,36.0,,,,,0,note_off,,80.0,36.0,80.0,79200,82.5
3759,9.0,,,,,,44.0,,,,,0,note_on,,95.0,44.0,95.0,79200,82.5
3760,9.0,,,,,,41.0,,,,,0,note_on,,95.0,41.0,95.0,79200,82.5
3761,9.0,,,,,,36.0,,,,,0,note_on,,95.0,36.0,95.0,79200,82.5
3762,9.0,,,,,,44.0,,,,,480,note_off,,80.0,44.0,80.0,79680,83.0
3763,9.0,,,,,,41.0,,,,,0,note_off,,80.0,41.0,80.0,79680,83.0
3764,9.0,,,,,,36.0,,,,,0,note_off,,80.0,36.0,80.0,79680,83.0
3765,9.0,,,,,,44.0,,,,,0,note_on,,95.0,44.0,95.0,79680,83.0
3766,9.0,,,,,,41.0,,,,,0,note_on,,95.0,41.0,95.0,79680,83.0
3767,9.0,,,,,,36.0,,,,,0,note_on,,95.0,36.0,95.0,79680,83.0
3768,9.0,,,,,,44.0,,,,,480,note_off,,80.0,44.0,80.0,80160,83.5
3769,9.0,,,,,,41.0,,,,,0,note_off,,80.0,41.0,80.0,80160,83.5
3770,9.0,,,,,,36.0,,,,,0,note_off,,80.0,36.0,80.0,80160,83.5
3771,9.0,,,,,,44.0,,,,,0,note_on,,95.0,44.0,95.0,80160,83.5
3772,9.0,,,,,,41.0,,,,,0,note_on,,95.0,41.0,95.0,80160,83.5
3773,9.0,,,,,,36.0,,,,,0,note_on,,95.0,36.0,95.0,80160,83.5
3774,9.0,,,,,,44.0,,,,,480,note_off,,80.0,44.0,80.0,80640,84.0
3775,9.0,,,,,,41.0,,,,,0,note_off,,80.0,41.0,80.0,80640,84.0
3776,9.0,,,,,,36.0,,,,,0,note_off,,80.0,36.0,80.0,80640,84.0
3777,9.0,,,,,,44.0,,,,,0,note_on,,95.0,44.0,95.0,80640,84.0
3778,9.0,,,,,,41.0,,,,,0,note_on,,95.0,41.0,95.0,80640,84.0
3779,9.0,,,,,,36.0,,,,,0,note_on,,95.0,36.0,95.0,80640,84.0
3780,9.0,,,,,,44.0,,,,,480,note_off,,80.0,44.0,80.0,81120,84.5
3781,9.0,,,,,,41.0,,,,,0,note_off,,80.0,41.0,80.0,81120,84.5
3782,9.0,,,,,,36.0,,,,,0,note_off,,80.0,36.0,80.0,81120,84.5
3783,9.0,,,,,,44.0,,,,,0,note_on,,95.0,44.0,95.0,81120,84.5
3784,9.0,,,,,,41.0,,,,,0,note_on,,95.0,41.0,95.0,81120,84.5
3785,9.0,,,,,,36.0,,,,,0,note_on,,95.0,36.0,95.0,81120,84.5
3786,9.0,,,,,,44.0,,,,,480,note_off,,80.0,44.0,80.0,81600,85.0
3787,9.0,,,,,,41.0,,,,,0,note_off,,80.0,41.0,80.0,81600,85.0
3788,9.0,,,,,,36.0,,,,,0,note_off,,80.0,36.0,80.0,81600,85.0
3789,9.0,,,,,,44.0,,,,,0,note_on,,95.0,44.0,95.0,81600,85.0
3790,9.0,,,,,,41.0,,,,,0,note_on,,95.0,41.0,95.0,81600,85.0
3791,9.0,,,,,,36.0,,,,,0,note_on,,95.0,36.0,95.0,81600,85.0
3792,9.0,,,,,,44.0,,,,,480,note_off,,80.0,44.0,80.0,82080,85.5
3793,9.0,,,,,,41.0,,,,,0,note_off,,80.0,41.0,80.0,82080,85.5
3794,9.0,,,,,,36.0,,,,,0,note_off,,80.0,36.0,80.0,82080,85.5
3795,9.0,,,,,,44.0,,,,,0,note_on,,95.0,44.0,95.0,82080,85.5
3796,9.0,,,,,,41.0,,,,,0,note_on,,95.0,41.0,95.0,82080,85.5
3797,9.0,,,,,,36.0,,,,,0,note_on,,95.0,36.0,95.0,82080,85.5
3798,9.0,,,,,,44.0,,,,,480,note_off,,80.0,44.0,80.0,82560,86.0
3799,9.0,,,,,,41.0,,,,,0,note_off,,80.0,41.0,80.0,82560,86.0
3800,9.0,,,,,,36.0,,,,,0,note_off,,80.0,36.0,80.0,82560,86.0
3801,9.0,,,,,,44.0,,,,,0,note_on,,95.0,44.0,95.0,82560,86.0
3802,9.0,,,,,,41.0,,,,,0,note_on,,95.0,41.0,95.0,82560,86.0
3803,9.0,,,,,,36.0,,,,,0,note_on,,95.0,36.0,95.0,82560,86.0
3804,9.0,,,,,,44.0,,,,,480,note_off,,80.0,44.0,80.0,83040,86.5
3805,9.0,,,,,,41.0,,,,,0,note_off,,80.0,41.0,80.0,83040,86.5
3806,9.0,,,,,,36.0,,,,,0,note_off,,80.0,36.0,80.0,83040,86.5
3807,9.0,,,,,,44.0,,,,,0,note_on,,95.0,44.0,95.0,83040,86.5
3808,9.0,,,,,,41.0,,,,,0,note_on,,95.0,41.0,95.0,83040,86.5
3809,9.0,,,,,,36.0,,,,,0,note_on,,95.0,36.0,95.0,83040,86.5
3810,9.0,,,,,,44.0,,,,,480,note_off,,80.0,44.0,80.0,83520,87.0
3811,9.0,,,,,,41.0,,,,,0,note_off,,80.0,41.0,80.0,83520,87.0
3812,9.0,,,,,,36.0,,,,,0,note_off,,80.0,36.0,80.0,83520,87.0
3813,9.0,,,,,,44.0,,,,,0,note_on,,95.0,44.0,95.0,83520,87.0
3814,9.0,,,,,,41.0,,,,,0,note_on,,95.0,41.0,95.0,83520,87.0
3815,9.0,,,,,,36.0,,,,,0,note_on,,95.0,36.0,95.0,83520,87.0
3816,9.0,,,,,,44.0,,,,,480,note_off,,80.0,44.0,80.0,84000,87.5
3817,9.0,,,,,,41.0,,,,,0,note_off,,80.0,41.0,80.0,84000,87.5
3818,9.0,,,,,,36.0,,,,,0,note_off,,80.0,36.0,80.0,84000,87.5
3819,9.0,,,,,,44.0,,,,,0,note_on,,95.0,44.0,95.0,84000,87.5
3820,9.0,,,,,,41.0,,,,,0,note_on,,95.0,41.0,95.0,84000,87.5
3821,9.0,,,,,,36.0,,,,,0,note_on,,95.0,36.0,95.0,84000,87.5
3822,9.0,,,,,,44.0,,,,,480,note_off,,80.0,44.0,80.0,84480,88.0
3823,9.0,,,,,,41.0,,,,,0,note_off,,80.0,41.0,80.0,84480,88.0
3824,9.0,,,,,,36.0,,,,,0,note_off,,80.0,36.0,80.0,84480,88.0
3825,9.0,,,,,,44.0,,,,,0,note_on,,95.0,44.0,95.0,84480,88.0
3826,9.0,,,,,,41.0,,,,,0,note_on,,95.0,41.0,95.0,84480,88.0
3827,9.0,,,,,,36.0,,,,,0,note_on,,95.0,36.0,95.0,84480,88.0
3828,9.0,,,,,,44.0,,,,,480,note_off,,80.0,44.0,80.0,84960,88.5
3829,9.0,,,,,,41.0,,,,,0,note_off,,80.0,41.0,80.0,84960,88.5
3830,9.0,,,,,,36.0,,,,,0,note_off,,80.0,36.0,80.0,84960,88.5
3831,9.0,,,,,,44.0,,,,,0,note_on,,95.0,44.0,95.0,84960,88.5
3832,9.0,,,,,,41.0,,,,,0,note_on,,95.0,41.0,95.0,84960,88.5
3833,9.0,,,,,,36.0,,,,,0,note_on,,95.0,36.0,95.0,84960,88.5
3834,9.0,,,,,,44.0,,,,,480,note_off,,80.0,44.0,80.0,85440,89.0
3835,9.0,,,,,,41.0,,,,,0,note_off,,80.0,41.0,80.0,85440,89.0
3836,9.0,,,,,,36.0,,,,,0,note_off,,80.0,36.0,80.0,85440,89.0
3837,9.0,,,,,,44.0,,,,,0,note_on,,95.0,44.0,95.0,85440,89.0
3838,9.0,,,,,,41.0,,,,,0,note_on,,95.0,41.0,95.0,85440,89.0
3839,9.0,,,,,,36.0,,,,,0,note_on,,95.0,36.0,95.0,85440,89.0
3840,9.0,,,,,,44.0,,,,,480,note_off,,80.0,44.0,80.0,85920,89.5
3841,9.0,,,,,,41.0,,,,,0,note_off,,80.0,41.0,80.0,85920,89.5
3842,9.0,,,,,,36.0,,,,,0,note_off,,80.0,36.0,80.0,85920,89.5
3843,9.0,,,,,,44.0,,,,,0,note_on,,95.0,44.0,95.0,85920,89.5
3844,9.0,,,,,,41.0,,,,,0,note_on,,95.0,41.0,95.0,85920,89.5
3845,9.0,,,,,,36.0,,,,,0,note_on,,95.0,36.0,95.0,85920,89.5
3846,9.0,,,,,,44.0,,,,,480,note_off,,80.0,44.0,80.0,86400,90.0
3847,9.0,,,,,,41.0,,,,,0,note_off,,80.0,41.0,80.0,86400,90.0
3848,9.0,,,,,,36.0,,,,,0,note_off,,80.0,36.0,80.0,86400,90.0
3849,9.0,,,,,,44.0,,,,,0,note_on,,95.0,44.0,95.0,86400,90.0
3850,9.0,,,,,,41.0,,,,,0,note_on,,95.0,41.0,95.0,86400,90.0
3851,9.0,,,,,,36.0,,,,,0,note_on,,95.0,36.0,95.0,86400,90.0
3852,9.0,,,,,,44.0,,,,,480,note_off,,80.0,44.0,80.0,86880,90.5
3853,9.0,,,,,,41.0,,,,,0,note_off,,80.0,41.0,80.0,86880,90.5
3854,9.0,,,,,,36.0,,,,,0,note_off,,80.0,36.0,80.0,86880,90.5
3855,9.0,,,,,,44.0,,,,,0,note_on,,95.0,44.0,95.0,86880,90.5
3856,9.0,,,,,,41.0,,,,,0,note_on,,95.0,41.0,95.0,86880,90.5
3857,9.0,,,,,,36.0,,,,,0,note_on,,95.0,36.0,95.0,86880,90.5
3858,9.0,,,,,,44.0,,,,,480,note_off,,80.0,44.0,80.0,87360,91.0
3859,9.0,,,,,,41.0,,,,,0,note_off,,80.0,41.0,80.0,87360,91.0
3860,9.0,,,,,,36.0,,,,,0,note_off,,80.0,36.0,80.0,87360,91.0
3861,9.0,,,,,,44.0,,,,,0,note_on,,95.0,44.0,95.0,87360,91.0
3862,9.0,,,,,,41.0,,,,,0,note_on,,95.0,41.0,95.0,87360,91.0
3863,9.0,,,,,,36.0,,,,,0,note_on,,95.0,36.0,95.0,87360,91.0
3864,9.0,,,,,,44.0,,,,,480,note_off,,80.0,44.0,80.0,87840,91.5
3865,9.0,,,,,,41.0,,,,,0,note_off,,80.0,41.0,80.0,87840,91.5
3866,9.0,,,,,,36.0,,,,,0,note_off,,80.0,36.0,80.0,87840,91.5
3867,9.0,,,,,,44.0,,,,,0,note_on,,95.0,44.0,95.0,87840,91.5
3868,9.0,,,,,,41.0,,,,,0,note_on,,95.0,41.0,95.0,87840,91.5
3869,9.0,,,,,,36.0,,,,,0,note_on,,95.0,36.0,95.0,87840,91.5
3870,9.0,,,,,,44.0,,,,,480,note_off,,80.0,44.0,80.0,88320,92.0
3871,9.0,,,,,,41.0,,,,,0,note_off,,80.0,41.0,80.0,88320,92.0
3872,9.0,,,,,,36.0,,,,,0,note_off,,80.0,36.0,80.0,88320,92.0
3873,9.0,,,,,,44.0,,,,,0,note_on,,95.0,44.0,95.0,88320,92.0
3874,9.0,,,,,,41.0,,,,,0,note_on,,95.0,41.0,95.0,88320,92.0
3875,9.0,,,,,,36.0,,,,,0,note_on,,95.0,36.0,95.0,88320,92.0
3876,9.0,,,,,,44.0,,,,,480,note_off,,80.0,44.0,80.0,88800,92.5
3877,9.0,,,,,,41.0,,,,,0,note_off,,80.0,41.0,80.0,88800,92.5
3878,9.0,,,,,,36.0,,,,,0,note_off,,80.0,36.0,80.0,88800,92.5
3879,9.0,,,,,,44.0,,,,,0,note_on,,95.0,44.0,95.0,88800,92.5
3880,9.0,,,,,,41.0,,,,,0,note_on,,95.0,41.0,95.0,88800,92.5
3881,9.0,,,,,,36.0,,,,,0,note_on,,95.0,36.0,95.0,88800,92.5
3882,9.0,,,,,,44.0,,,,,480,note_off,,80.0,44.0,80.0,89280,93.0
3883,9.0,,,,,,41.0,,,,,0,note_off,,80.0,41.0,80.0,89280,93.0
3884,9.0,,,,,,36.0,,,,,0,note_off,,80.0,36.0,80.0,89280,93.0
3885,9.0,,,,,,44.0,,,,,0,note_on,,95.0,44.0,95.0,89280,93.0
3886,9.0,,,,,,41.0,,,,,0,note_on,,95.0,41.0,95.0,89280,93.0
3887,9.0,,,,,,36.0,,,,,0,note_on,,95.0,36.0,95.0,89280,93.0
3888,9.0,,,,,,44.0,,,,,480,note_off,,80.0,44.0,80.0,89760,93.5
3889,9.0,,,,,,41.0,,,,,0,note_off,,80.0,41.0,80.0,89760,93.5
3890,9.0,,,,,,36.0,,,,,0,note_off,,80.0,36.0,80.0,89760,93.5
3891,9.0,,,,,,44.0,,,,,0,note_on,,95.0,44.0,95.0,89760,93.5
3892,9.0,,,,,,41.0,,,,,0,note_on,,95.0,41.0,95.0,89760,93.5
3893,9.0,,,,,,36.0,,,,,0,note_on,,95.0,36.0,95.0,89760,93.5
3894,9.0,,,,,,44.0,,,,,480,note_off,,80.0,44.0,80.0,90240,94.0
3895,9.0,,,,,,41.0,,,,,0,note_off,,80.0,41.0,80.0,90240,94.0
3896,9.0,,,,,,36.0,,,,,0,note_off,,80.0,36.0,80.0,90240,94.0
3897,9.0,,,,,,44.0,,,,,0,note_on,,95.0,44.0,95.0,90240,94.0
3898,9.0,,,,,,41.0,,,,,0,note_on,,95.0,41.0,95.0,90240,94.0
3899,9.0,,,,,,36.0,,,,,0,note_on,,95.0,36.0,95.0,90240,94.0
3900,9.0,,,,,,44.0,,,,,480,note_off,,80.0,44.0,80.0,90720,94.5
3901,9.0,,,,,,41.0,,,,,0,note_off,,80.0,41.0,80.0,90720,94.5
3902,9.0,,,,,,36.0,,,,,0,note_off,,80.0,36.0,80.0,90720,94.5
3903,9.0,,,,,,44.0,,,,,0,note_on,,95.0,44.0,95.0,90720,94.5
3904,9.0,,,,,,41.0,,,,,0,note_on,,95.0,41.0,95.0,90720,94.5
3905,9.0,,,,,,36.0,,,,,0,note_on,,95.0,36.0,95.0,90720,94.5
3906,9.0,,,,,,44.0,,,,,480,note_off,,80.0,44.0,80.0,91200,95.0
3907,9.0,,,,,,41.0,,,,,0,note_off,,80.0,41.0,80.0,91200,95.0
3908,9.0,,,,,,36.0,,,,,0,note_off,,80.0,36.0,80.0,91200,95.0
3909,9.0,,,,,,44.0,,,,,0,note_on,,95.0,44.0,95.0,91200,95.0
3910,9.0,,,,,,41.0,,,,,0,note_on,,95.0,41.0,95.0,91200,95.0
3911,9.0,,,,,,36.0,,,,,0,note_on,,95.0,36.0,95.0,91200,95.0
3912,9.0,,,,,,44.0,,,,,480,note_off,,80.0,44.0,80.0,91680,95.5
3913,9.0,,,,,,41.0,,,,,0,note_off,,80.0,41.0,80.0,91680,95.5
3914,9.0,,,,,,36.0,,,,,0,note_off,,80.0,36.0,80.0,91680,95.5
3915,9.0,,,,,,44.0,,,,,0,note_on,,95.0,44.0,95.0,91680,95.5
3916,9.0,,,,,,41.0,,,,,0,note_on,,95.0,41.0,95.0,91680,95.5
3917,9.0,,,,,,36.0,,,,,0,note_on,,95.0,36.0,95.0,91680,95.5
3918,9.0,,,,,,44.0,,,,,480,note_off,,80.0,44.0,80.0,92160,96.0
3919,9.0,,,,,,41.0,,,,,0,note_off,,80.0,41.0,80.0,92160,96.0
3920,9.0,,,,,,36.0,,,,,0,note_off,,80.0,36.0,80.0,92160,96.0
3921,9.0,,,,,,44.0,,,,,0,note_on,,95.0,44.0,95.0,92160,96.0
3922,9.0,,,,,,41.0,,,,,0,note_on,,95.0,41.0,95.0,92160,96.0
3923,9.0,,,,,,36.0,,,,,0,note_on,,95.0,36.0,95.0,92160,96.0
3924,9.0,,,,,,44.0,,,,,480,note_off,,80.0,44.0,80.0,92640,96.5
3925,9.0,,,,,,41.0,,,,,0,note_off,,80.0,41.0,80.0,92640,96.5
3926,9.0,,,,,,36.0,,,,,0,note_off,,80.0,36.0,80.0,92640,96.5
3927,9.0,,,,,,44.0,,,,,0,note_on,,95.0,44.0,95.0,92640,96.5
3928,9.0,,,,,,41.0,,,,,0,note_on,,95.0,41.0,95.0,92640,96.5
3929,9.0,,,,,,36.0,,,,,0,note_on,,95.0,36.0,95.0,92640,96.5
3930,9.0,,,,,,44.0,,,,,480,note_off,,80.0,44.0,80.0,93120,97.0
3931,9.0,,,,,,41.0,,,,,0,note_off,,80.0,41.0,80.0,93120,97.0
3932,9.0,,,,,,36.0,,,,,0,note_off,,80.0,36.0,80.0,93120,97.0
3933,9.0,,,,,,44.0,,,,,0,note_on,,95.0,44.0,95.0,93120,97.0
3934,9.0,,,,,,41.0,,,,,0,note_on,,95.0,41.0,95.0,93120,97.0
3935,9.0,,,,,,36.0,,,,,0,note_on,,95.0,36.0,95.0,93120,97.0
3936,9.0,,,,,,44.0,,,,,480,note_off,,80.0,44.0,80.0,93600,97.5
3937,9.0,,,,,,41.0,,,,,0,note_off,,80.0,41.0,80.0,93600,97.5
3938,9.0,,,,,,36.0,,,,,0,note_off,,80.0,36.0,80.0,93600,97.5
3939,9.0,,,,,,44.0,,,,,0,note_on,,95.0,44.0,95.0,93600,97.5
3940,9.0,,,,,,41.0,,,,,0,note_on,,95.0,41.0,95.0,93600,97.5
3941,9.0,,,,,,36.0,,,,,0,note_on,,95.0,36.0,95.0,93600,97.5
3942,9.0,,,,,,44.0,,,,,480,note_off,,80.0,44.0,80.0,94080,98.0
3943,9.0,,,,,,41.0,,,,,0,note_off,,80.0,41.0,80.0,94080,98.0
3944,9.0,,,,,,36.0,,,,,0,note_off,,80.0,36.0,80.0,94080,98.0
3945,9.0,,,,,,44.0,,,,,0,note_on,,95.0,44.0,95.0,94080,98.0
3946,9.0,,,,,,41.0,,,,,0,note_on,,95.0,41.0,95.0,94080,98.0
3947,9.0,,,,,,36.0,,,,,0,note_on,,95.0,36.0,95.0,94080,98.0
3948,9.0,,,,,,44.0,,,,,480,note_off,,80.0,44.0,80.0,94560,98.5
3949,9.0,,,,,,41.0,,,,,0,note_off,,80.0,41.0,80.0,94560,98.5
3950,9.0,,,,,,36.0,,,,,0,note_off,,80.0,36.0,80.0,94560,98.5
3951,9.0,,,,,,44.0,,,,,0,note_on,,95.0,44.0,95.0,94560,98.5
3952,9.0,,,,,,41.0,,,,,0,note_on,,95.0,41.0,95.0,94560,98.5
3953,9.0,,,,,,36.0,,,,,0,note_on,,95.0,36.0,95.0,94560,98.5
3954,9.0,,,,,,44.0,,,,,480,note_off,,80.0,44.0,80.0,95040,99.0
3955,9.0,,,,,,41.0,,,,,0,note_off,,80.0,41.0,80.0,95040,99.0
3956,9.0,,,,,,36.0,,,,,0,note_off,,80.0,36.0,80.0,95040,99.0
3957,9.0,,,,,,44.0,,,,,0,note_on,,95.0,44.0,95.0,95040,99.0
3958,9.0,,,,,,41.0,,,,,0,note_on,,95.0,41.0,95.0,95040,99.0
3959,9.0,,,,,,36.0,,,,,0,note_on,,95.0,36.0,95.0,95040,99.0
3960,9.0,,,,,,44.0,,,,,480,note_off,,80.0,44.0,80.0,95520,99.5
3961,9.0,,,,,,41.0,,,,,0,note_off,,80.0,41.0,80.0,95520,99.5
3962,9.0,,,,,,36.0,,,,,0,note_off,,80.0,36.0,80.0,95520,99.5
3963,9.0,,,,,,44.0,,,,,0,note_on,,95.0,44.0,95.0,95520,99.5
3964,9.0,,,,,,41.0,,,,,0,note_on,,95.0,41.0,95.0,95520,99.5
3965,9.0,,,,,,36.0,,,,,0,note_on,,95.0,36.0,95.0,95520,99.5
3966,9.0,,,,,,44.0,,,,,480,note_off,,80.0,44.0,80.0,96000,100.0
3967,9.0,,,,,,41.0,,,,,0,note_off,,80.0,41.0,80.0,96000,100.0
3968,9.0,,,,,,36.0,,,,,0,note_off,,80.0,36.0,80.0,96000,100.0
3969,9.0,,,,,,44.0,,,,,0,note_on,,95.0,44.0,95.0,96000,100.0
3970,9.0,,,,,,41.0,,,,,0,note_on,,95.0,41.0,95.0,96000,100.0
3971,9.0,,,,,,36.0,,,,,0,note_on,,95.0,36.0,95.0,96000,100.0
3972,9.0,,,,,,44.0,,,,,480,note_off,,80.0,44.0,80.0,96480,100.5
3973,9.0,,,,,,41.0,,,,,0,note_off,,80.0,41.0,80.0,96480,100.5
3974,9.0,,,,,,36.0,,,,,0,note_off,,80.0,36.0,80.0,96480,100.5
3975,9.0,,,,,,44.0,,,,,0,note_on,,95.0,44.0,95.0,96480,100.5
3976,9.0,,,,,,41.0,,,,,0,note_on,,95.0,41.0,95.0,96480,100.5
3977,9.0,,,,,,36.0,,,,,0,note_on,,95.0,36.0,95.0,96480,100.5
3978,9.0,,,,,,44.0,,,,,480,note_off,,80.0,44.0,80.0,96960,101.0
3979,9.0,,,,,,41.0,,,,,0,note_off,,80.0,41.0,80.0,96960,101.0
3980,9.0,,,,,,36.0,,,,,0,note_off,,80.0,36.0,80.0,96960,101.0
3981,9.0,,,,,,44.0,,,,,0,note_on,,95.0,44.0,95.0,96960,101.0
3982,9.0,,,,,,41.0,,,,,0,note_on,,95.0,41.0,95.0,96960,101.0
3983,9.0,,,,,,36.0,,,,,0,note_on,,95.0,36.0,95.0,96960,101.0
3984,9.0,,,,,,44.0,,,,,480,note_off,,80.0,44.0,80.0,97440,101.5
3985,9.0,,,,,,41.0,,,,,0,note_off,,80.0,41.0,80.0,97440,101.5
3986,9.0,,,,,,36.0,,,,,0,note_off,,80.0,36.0,80.0,97440,101.5
3987,9.0,,,,,,44.0,,,,,0,note_on,,95.0,44.0,95.0,97440,101.5
3988,9.0,,,,,,41.0,,,,,0,note_on,,95.0,41.0,95.0,97440,101.5
3989,9.0,,,,,,36.0,,,,,0,note_on,,95.0,36.0,95.0,97440,101.5
3990,9.0,,,,,,44.0,,,,,480,note_off,,80.0,44.0,80.0,97920,102.0
3991,9.0,,,,,,41.0,,,,,0,note_off,,80.0,41.0,80.0,97920,102.0
3992,9.0,,,,,,36.0,,,,,0,note_off,,80.0,36.0,80.0,97920,102.0
3993,9.0,,,,,,44.0,,,,,0,note_on,,95.0,44.0,95.0,97920,102.0
3994,9.0,,,,,,41.0,,,,,0,note_on,,95.0,41.0,95.0,97920,102.0
3995,9.0,,,,,,36.0,,,,,0,note_on,,95.0,36.0,95.0,97920,102.0
3996,9.0,,,,,,44.0,,,,,480,note_off,,80.0,44.0,80.0,98400,102.5
3997,9.0,,,,,,41.0,,,,,0,note_off,,80.0,41.0,80.0,98400,102.5
3998,9.0,,,,,,36.0,,,,,0,note_off,,80.0,36.0,80.0,98400,102.5
3999,9.0,,,,,,44.0,,,,,0,note_on,,95.0,44.0,95.0,98400,102.5
4000,9.0,,,,,,41.0,,,,,0,note_on,,95.0,41.0,95.0,98400,102.5
4001,9.0,,,,,,36.0,,,,,0,note_on,,95.0,36.0,95.0,98400,102.5
4002,9.0,,,,,,44.0,,,,,480,note_off,,80.0,44.0,80.0,98880,103.0
4003,9.0,,,,,,41.0,,,,,0,note_off,,80.0,41.0,80.0,98880,103.0
4004,9.0,,,,,,36.0,,,,,0,note_off,,80.0,36.0,80.0,98880,103.0
4005,9.0,,,,,,44.0,,,,,0,note_on,,95.0,44.0,95.0,98880,103.0
4006,9.0,,,,,,41.0,,,,,0,note_on,,95.0,41.0,95.0,98880,103.0
4007,9.0,,,,,,36.0,,,,,0,note_on,,95.0,36.0,95.0,98880,103.0
4008,9.0,,,,,,44.0,,,,,480,note_off,,80.0,44.0,80.0,99360,103.5
4009,9.0,,,,,,41.0,,,,,0,note_off,,80.0,41.0,80.0,99360,103.5
4010,9.0,,,,,,36.0,,,,,0,note_off,,80.0,36.0,80.0,99360,103.5
4011,9.0,,,,,,44.0,,,,,0,note_on,,95.0,44.0,95.0,99360,103.5
4012,9.0,,,,,,41.0,,,,,0,note_on,,95.0,41.0,95.0,99360,103.5
4013,9.0,,,,,,36.0,,,,,0,note_on,,95.0,36.0,95.0,99360,103.5
4014,9.0,,,,,,44.0,,,,,480,note_off,,80.0,44.0,80.0,99840,104.0
4015,9.0,,,,,,41.0,,,,,0,note_off,,80.0,41.0,80.0,99840,104.0
4016,9.0,,,,,,36.0,,,,,0,note_off,,80.0,36.0,80.0,99840,104.0
4017,9.0,,,,,,44.0,,,,,0,note_on,,95.0,44.0,95.0,99840,104.0
4018,9.0,,,,,,36.0,,,,,0,note_on,,95.0,36.0,95.0,99840,104.0
4019,9.0,,,,,,44.0,,,,,480,note_off,,80.0,44.0,80.0,100320,104.5
4020,9.0,,,,,,36.0,,,,,0,note_off,,80.0,36.0,80.0,100320,104.5
4021,9.0,,,,,,44.0,,,,,0,note_on,,95.0,44.0,95.0,100320,104.5
4022,9.0,,,,,,38.0,,,,,0,note_on,,95.0,38.0,95.0,100320,104.5
4023,9.0,,,,,,44.0,,,,,480,note_off,,80.0,44.0,80.0,100800,105.0
4024,9.0,,,,,,38.0,,,,,0,note_off,,80.0,38.0,80.0,100800,105.0
4025,9.0,,,,,,44.0,,,,,0,note_on,,95.0,44.0,95.0,100800,105.0
4026,9.0,,,,,,36.0,,,,,0,note_on,,95.0,36.0,95.0,100800,105.0
4027,9.0,,,,,,44.0,,,,,480,note_off,,80.0,44.0,80.0,101280,105.5
4028,9.0,,,,,,36.0,,,,,0,note_off,,80.0,36.0,80.0,101280,105.5
4029,9.0,,,,,,44.0,,,,,0,note_on,,95.0,44.0,95.0,101280,105.5
4030,9.0,,,,,,38.0,,,,,0,note_on,,95.0,38.0,95.0,101280,105.5
4031,9.0,,,,,,44.0,,,,,480,note_off,,80.0,44.0,80.0,101760,106.0
4032,9.0,,,,,,38.0,,,,,0,note_off,,80.0,38.0,80.0,101760,106.0
4033,9.0,,,,,,44.0,,,,,0,note_on,,95.0,44.0,95.0,101760,106.0
4034,9.0,,,,,,36.0,,,,,0,note_on,,95.0,36.0,95.0,101760,106.0
4035,9.0,,,,,,44.0,,,,,480,note_off,,80.0,44.0,80.0,102240,106.5
4036,9.0,,,,,,36.0,,,,,0,note_off,,80.0,36.0,80.0,102240,106.5
4037,9.0,,,,,,44.0,,,,,0,note_on,,95.0,44.0,95.0,102240,106.5
4038,9.0,,,,,,38.0,,,,,0,note_on,,95.0,38.0,95.0,102240,106.5
4039,9.0,,,,,,44.0,,,,,480,note_off,,80.0,44.0,80.0,102720,107.0
4040,9.0,,,,,,38.0,,,,,0,note_off,,80.0,38.0,80.0,102720,107.0
4041,9.0,,,,,,44.0,,,,,0,note_on,,95.0,44.0,95.0,102720,107.0
4042,9.0,,,,,,36.0,,,,,0,note_on,,95.0,36.0,95.0,102720,107.0
4043,9.0,,,,,,44.0,,,,,480,note_off,,80.0,44.0,80.0,103200,107.5
4044,9.0,,,,,,36.0,,,,,0,note_off,,80.0,36.0,80.0,103200,107.5
4045,9.0,,,,,,44.0,,,,,0,note_on,,95.0,44.0,95.0,103200,107.5
4046,9.0,,,,,,38.0,,,,,0,note_on,,95.0,38.0,95.0,103200,107.5
4047,9.0,,,,,,44.0,,,,,480,note_off,,80.0,44.0,80.0,103680,108.0
4048,9.0,,,,,,38.0,,,,,0,note_off,,80.0,38.0,80.0,103680,108.0
4049,9.0,,,,,,44.0,,,,,0,note_on,,95.0,44.0,95.0,103680,108.0
4050,9.0,,,,,,36.0,,,,,0,note_on,,95.0,36.0,95.0,103680,108.0
4051,9.0,,,,,,44.0,,,,,480,note_off,,80.0,44.0,80.0,104160,108.5
4052,9.0,,,,,,36.0,,,,,0,note_off,,80.0,36.0,80.0,104160,108.5
4053,9.0,,,,,,44.0,,,,,0,note_on,,95.0,44.0,95.0,104160,108.5
4054,9.0,,,,,,38.0,,,,,0,note_on,,95.0,38.0,95.0,104160,108.5
4055,9.0,,,,,,44.0,,,,,480,note_off,,80.0,44.0,80.0,104640,109.0
4056,9.0,,,,,,38.0,,,,,0,note_off,,80.0,38.0,80.0,104640,109.0
4057,9.0,,,,,,44.0,,,,,0,note_on,,95.0,44.0,95.0,104640,109.0
4058,9.0,,,,,,36.0,,,,,0,note_on,,95.0,36.0,95.0,104640,109.0
4059,9.0,,,,,,44.0,,,,,480,note_off,,80.0,44.0,80.0,105120,109.5
4060,9.0,,,,,,36.0,,,,,0,note_off,,80.0,36.0,80.0,105120,109.5
4061,9.0,,,,,,44.0,,,,,0,note_on,,95.0,44.0,95.0,105120,109.5
4062,9.0,,,,,,38.0,,,,,0,note_on,,95.0,38.0,95.0,105120,109.5
4063,9.0,,,,,,44.0,,,,,480,note_off,,80.0,44.0,80.0,105600,110.0
4064,9.0,,,,,,38.0,,,,,0,note_off,,80.0,38.0,80.0,105600,110.0
4065,9.0,,,,,,44.0,,,,,0,note_on,,95.0,44.0,95.0,105600,110.0
4066,9.0,,,,,,36.0,,,,,0,note_on,,95.0,36.0,95.0,105600,110.0
4067,9.0,,,,,,44.0,,,,,480,note_off,,80.0,44.0,80.0,106080,110.5
4068,9.0,,,,,,36.0,,,,,0,note_off,,80.0,36.0,80.0,106080,110.5
4069,9.0,,,,,,44.0,,,,,0,note_on,,95.0,44.0,95.0,106080,110.5
4070,9.0,,,,,,38.0,,,,,0,note_on,,95.0,38.0,95.0,106080,110.5
4071,9.0,,,,,,44.0,,,,,480,note_off,,80.0,44.0,80.0,106560,111.0
4072,9.0,,,,,,38.0,,,,,0,note_off,,80.0,38.0,80.0,106560,111.0
4073,9.0,,,,,,44.0,,,,,0,note_on,,95.0,44.0,95.0,106560,111.0
4074,9.0,,,,,,36.0,,,,,0,note_on,,95.0,36.0,95.0,106560,111.0
4075,9.0,,,,,,44.0,,,,,480,note_off,,80.0,44.0,80.0,107040,111.5
4076,9.0,,,,,,36.0,,,,,0,note_off,,80.0,36.0,80.0,107040,111.5
4077,9.0,,,,,,44.0,,,,,0,note_on,,95.0,44.0,95.0,107040,111.5
4078,9.0,,,,,,38.0,,,,,0,note_on,,95.0,38.0,95.0,107040,111.5
4079,9.0,,,,,,44.0,,,,,480,note_off,,80.0,44.0,80.0,107520,112.0
4080,9.0,,,,,,38.0,,,,,0,note_off,,80.0,38.0,80.0,107520,112.0
4081,9.0,,,,,,44.0,,,,,0,note_on,,95.0,44.0,95.0,107520,112.0
4082,9.0,,,,,,36.0,,,,,0,note_on,,95.0,36.0,95.0,107520,112.0
4083,9.0,,,,,,44.0,,,,,480,note_off,,80.0,44.0,80.0,108000,112.5
4084,9.0,,,,,,36.0,,,,,0,note_off,,80.0,36.0,80.0,108000,112.5
4085,9.0,,,,,,44.0,,,,,0,note_on,,95.0,44.0,95.0,108000,112.5
4086,9.0,,,,,,38.0,,,,,0,note_on,,95.0,38.0,95.0,108000,112.5
4087,9.0,,,,,,44.0,,,,,480,note_off,,80.0,44.0,80.0,108480,113.0
4088,9.0,,,,,,38.0,,,,,0,note_off,,80.0,38.0,80.0,108480,113.0
4089,9.0,,,,,,44.0,,,,,0,note_on,,95.0,44.0,95.0,108480,113.0
4090,9.0,,,,,,36.0,,,,,0,note_on,,95.0,36.0,95.0,108480,113.0
4091,9.0,,,,,,44.0,,,,,480,note_off,,80.0,44.0,80.0,108960,113.5
4092,9.0,,,,,,36.0,,,,,0,note_off,,80.0,36.0,80.0,108960,113.5
4093,9.0,,,,,,44.0,,,,,0,note_on,,95.0,44.0,95.0,108960,113.5
4094,9.0,,,,,,38.0,,,,,0,note_on,,95.0,38.0,95.0,108960,113.5
4095,9.0,,,,,,44.0,,,,,480,note_off,,80.0,44.0,80.0,109440,114.0
4096,9.0,,,,,,38.0,,,,,0,note_off,,80.0,38.0,80.0,109440,114.0
4097,9.0,,,,,,44.0,,,,,0,note_on,,95.0,44.0,95.0,109440,114.0
4098,9.0,,,,,,36.0,,,,,0,note_on,,95.0,36.0,95.0,109440,114.0
4099,9.0,,,,,,44.0,,,,,480,note_off,,80.0,44.0,80.0,109920,114.5
4100,9.0,,,,,,36.0,,,,,0,note_off,,80.0,36.0,80.0,109920,114.5
4101,9.0,,,,,,44.0,,,,,0,note_on,,95.0,44.0,95.0,109920,114.5
4102,9.0,,,,,,38.0,,,,,0,note_on,,95.0,38.0,95.0,109920,114.5
4103,9.0,,,,,,44.0,,,,,480,note_off,,80.0,44.0,80.0,110400,115.0
4104,9.0,,,,,,38.0,,,,,0,note_off,,80.0,38.0,80.0,110400,115.0
4105,9.0,,,,,,44.0,,,,,0,note_on,,95.0,44.0,95.0,110400,115.0
4106,9.0,,,,,,36.0,,,,,0,note_on,,95.0,36.0,95.0,110400,115.0
4107,9.0,,,,,,44.0,,,,,480,note_off,,80.0,44.0,80.0,110880,115.5
4108,9.0,,,,,,36.0,,,,,0,note_off,,80.0,36.0,80.0,110880,115.5
4109,9.0,,,,,,44.0,,,,,0,note_on,,95.0,44.0,95.0,110880,115.5
4110,9.0,,,,,,38.0,,,,,0,note_on,,95.0,38.0,95.0,110880,115.5
4111,9.0,,,,,,44.0,,,,,480,note_off,,80.0,44.0,80.0,111360,116.0
4112,9.0,,,,,,38.0,,,,,0,note_off,,80.0,38.0,80.0,111360,116.0
4113,9.0,,,,,,44.0,,,,,0,note_on,,95.0,44.0,95.0,111360,116.0
4114,9.0,,,,,,36.0,,,,,0,note_on,,95.0,36.0,95.0,111360,116.0
4115,9.0,,,,,,44.0,,,,,480,note_off,,80.0,44.0,80.0,111840,116.5
4116,9.0,,,,,,36.0,,,,,0,note_off,,80.0,36.0,80.0,111840,116.5
4117,9.0,,,,,,44.0,,,,,0,note_on,,95.0,44.0,95.0,111840,116.5
4118,9.0,,,,,,38.0,,,,,0,note_on,,95.0,38.0,95.0,111840,116.5
4119,9.0,,,,,,44.0,,,,,480,note_off,,80.0,44.0,80.0,112320,117.0
4120,9.0,,,,,,38.0,,,,,0,note_off,,80.0,38.0,80.0,112320,117.0
4121,9.0,,,,,,44.0,,,,,0,note_on,,95.0,44.0,95.0,112320,117.0
4122,9.0,,,,,,36.0,,,,,0,note_on,,95.0,36.0,95.0,112320,117.0
4123,9.0,,,,,,44.0,,,,,480,note_off,,80.0,44.0,80.0,112800,117.5
4124,9.0,,,,,,36.0,,,,,0,note_off,,80.0,36.0,80.0,112800,117.5
4125,9.0,,,,,,44.0,,,,,0,note_on,,95.0,44.0,95.0,112800,117.5
4126,9.0,,,,,,38.0,,,,,0,note_on,,95.0,38.0,95.0,112800,117.5
4127,9.0,,,,,,44.0,,,,,480,note_off,,80.0,44.0,80.0,113280,118.0
4128,9.0,,,,,,38.0,,,,,0,note_off,,80.0,38.0,80.0,113280,118.0
4129,9.0,,,,,,44.0,,,,,0,note_on,,95.0,44.0,95.0,113280,118.0
4130,9.0,,,,,,36.0,,,,,0,note_on,,95.0,36.0,95.0,113280,118.0
4131,9.0,,,,,,44.0,,,,,480,note_off,,80.0,44.0,80.0,113760,118.5
4132,9.0,,,,,,36.0,,,,,0,note_off,,80.0,36.0,80.0,113760,118.5
4133,9.0,,,,,,44.0,,,,,0,note_on,,95.0,44.0,95.0,113760,118.5
4134,9.0,,,,,,38.0,,,,,0,note_on,,95.0,38.0,95.0,113760,118.5
4135,9.0,,,,,,44.0,,,,,480,note_off,,80.0,44.0,80.0,114240,119.0
4136,9.0,,,,,,38.0,,,,,0,note_off,,80.0,38.0,80.0,114240,119.0
4137,9.0,,,,,,44.0,,,,,0,note_on,,95.0,44.0,95.0,114240,119.0
4138,9.0,,,,,,36.0,,,,,0,note_on,,95.0,36.0,95.0,114240,119.0
4139,9.0,,,,,,44.0,,,,,480,note_off,,80.0,44.0,80.0,114720,119.5
4140,9.0,,,,,,36.0,,,,,0,note_off,,80.0,36.0,80.0,114720,119.5
4141,9.0,,,,,,44.0,,,,,0,note_on,,95.0,44.0,95.0,114720,119.5
4142,9.0,,,,,,38.0,,,,,0,note_on,,95.0,38.0,95.0,114720,119.5
4143,9.0,,,,,,44.0,,,,,480,note_off,,80.0,44.0,80.0,115200,120.0
4144,9.0,,,,,,38.0,,,,,0,note_off,,80.0,38.0,80.0,115200,120.0
4145,9.0,,,,,,57.0,,,,,0,note_on,,95.0,57.0,95.0,115200,120.0
4146,9.0,,,,,,36.0,,,,,0,note_on,,95.0,36.0,95.0,115200,120.0
4147,9.0,,,,,,57.0,,,,,480,note_off,,80.0,57.0,80.0,115680,120.5
4148,9.0,,,,,,36.0,,,,,0,note_off,,80.0,36.0,80.0,115680,120.5
4149,9.0,,,,,,42.0,,,,,0,note_on,,95.0,42.0,95.0,115680,120.5
4150,9.0,,,,,,42.0,,,,,480,note_off,,80.0,42.0,80.0,116160,121.0
4151,9.0,,,,,,42.0,,,,,0,note_on,,95.0,42.0,95.0,116160,121.0
4152,9.0,,,,,,42.0,,,,,480,note_off,,80.0,42.0,80.0,116640,121.5
4153,9.0,,,,,,42.0,,,,,0,note_on,,95.0,42.0,95.0,116640,121.5
4154,9.0,,,,,,42.0,,,,,480,note_off,,80.0,42.0,80.0,117120,122.0
4155,9.0,,,,,,57.0,,,,,0,note_on,,95.0,57.0,95.0,117120,122.0
4156,9.0,,,,,,36.0,,,,,0,note_on,,95.0,36.0,95.0,117120,122.0
4157,9.0,,,,,,57.0,,,,,480,note_off,,80.0,57.0,80.0,117600,122.5
4158,9.0,,,,,,36.0,,,,,0,note_off,,80.0,36.0,80.0,117600,122.5
4159,9.0,,,,,,42.0,,,,,0,note_on,,95.0,42.0,95.0,117600,122.5
4160,9.0,,,,,,42.0,,,,,480,note_off,,80.0,42.0,80.0,118080,123.0
4161,9.0,,,,,,42.0,,,,,0,note_on,,95.0,42.0,95.0,118080,123.0
4162,9.0,,,,,,42.0,,,,,480,note_off,,80.0,42.0,80.0,118560,123.5
4163,9.0,,,,,,42.0,,,,,0,note_on,,95.0,42.0,95.0,118560,123.5
4164,9.0,,,,,,42.0,,,,,480,note_off,,80.0,42.0,80.0,119040,124.0
4165,9.0,,,,,,57.0,,,,,0,note_on,,95.0,57.0,95.0,119040,124.0
4166,9.0,,,,,,36.0,,,,,0,note_on,,95.0,36.0,95.0,119040,124.0
4167,9.0,,,,,,57.0,,,,,480,note_off,,80.0,57.0,80.0,119520,124.5
4168,9.0,,,,,,36.0,,,,,0,note_off,,80.0,36.0,80.0,119520,124.5
4169,9.0,,,,,,57.0,,,,,0,note_on,,95.0,57.0,95.0,119520,124.5
4170,9.0,,,,,,38.0,,,,,0,note_on,,95.0,38.0,95.0,119520,124.5
4171,9.0,,,,,,57.0,,,,,480,note_off,,80.0,57.0,80.0,120000,125.0
4172,9.0,,,,,,38.0,,,,,0,note_off,,80.0,38.0,80.0,120000,125.0
4173,9.0,,,,,,57.0,,,,,0,note_on,,95.0,57.0,95.0,120000,125.0
4174,9.0,,,,,,36.0,,,,,0,note_on,,95.0,36.0,95.0,120000,125.0
4175,9.0,,,,,,57.0,,,,,480,note_off,,80.0,57.0,80.0,120480,125.5
4176,9.0,,,,,,36.0,,,,,0,note_off,,80.0,36.0,80.0,120480,125.5
4177,9.0,,,,,,57.0,,,,,0,note_on,,95.0,57.0,95.0,120480,125.5
4178,9.0,,,,,,38.0,,,,,0,note_on,,95.0,38.0,95.0,120480,125.5
4179,9.0,,,,,,57.0,,,,,480,note_off,,80.0,57.0,80.0,120960,126.0
4180,9.0,,,,,,38.0,,,,,0,note_off,,80.0,38.0,80.0,120960,126.0
4181,9.0,,,,,,57.0,,,,,0,note_on,,95.0,57.0,95.0,120960,126.0
4182,9.0,,,,,,36.0,,,,,0,note_on,,95.0,36.0,95.0,120960,126.0
4183,9.0,,,,,,57.0,,,,,480,note_off,,80.0,57.0,80.0,121440,126.5
4184,9.0,,,,,,36.0,,,,,0,note_off,,80.0,36.0,80.0,121440,126.5
4185,9.0,,,,,,57.0,,,,,0,note_on,,95.0,57.0,95.0,121440,126.5
4186,9.0,,,,,,38.0,,,,,0,note_on,,95.0,38.0,95.0,121440,126.5
4187,9.0,,,,,,57.0,,,,,480,note_off,,80.0,57.0,80.0,121920,127.0
4188,9.0,,,,,,38.0,,,,,0,note_off,,80.0,38.0,80.0,121920,127.0
4189,9.0,,,,,,57.0,,,,,0,note_on,,95.0,57.0,95.0,121920,127.0
4190,9.0,,,,,,36.0,,,,,0,note_on,,95.0,36.0,95.0,121920,127.0
4191,9.0,,,,,,57.0,,,,,480,note_off,,80.0,57.0,80.0,122400,127.5
4192,9.0,,,,,,36.0,,,,,0,note_off,,80.0,36.0,80.0,122400,127.5
4193,9.0,,,,,,57.0,,,,,0,note_on,,95.0,57.0,95.0,122400,127.5
4194,9.0,,,,,,38.0,,,,,0,note_on,,95.0,38.0,95.0,122400,127.5
4195,9.0,,,,,,57.0,,,,,480,note_off,,80.0,57.0,80.0,122880,128.0
4196,9.0,,,,,,38.0,,,,,0,note_off,,80.0,38.0,80.0,122880,128.0
4197,9.0,,,,,,57.0,,,,,0,note_on,,95.0,57.0,95.0,122880,128.0
4198,9.0,,,,,,36.0,,,,,0,note_on,,95.0,36.0,95.0,122880,128.0
4199,9.0,,,,,,57.0,,,,,480,note_off,,80.0,57.0,80.0,123360,128.5
4200,9.0,,,,,,36.0,,,,,0,note_off,,80.0,36.0,80.0,123360,128.5
4201,9.0,,,,,,57.0,,,,,0,note_on,,95.0,57.0,95.0,123360,128.5
4202,9.0,,,,,,38.0,,,,,0,note_on,,95.0,38.0,95.0,123360,128.5
4203,9.0,,,,,,38.0,,,,,240,note_off,,80.0,38.0,80.0,123600,128.75
4204,9.0,,,,,,36.0,,,,,0,note_on,,95.0,36.0,95.0,123600,128.75
4205,9.0,,,,,,57.0,,,,,240,note_off,,80.0,57.0,80.0,123840,129.0
4206,9.0,,,,,,36.0,,,,,0,note_off,,80.0,36.0,80.0,123840,129.0
4207,9.0,,,,,,57.0,,,,,0,note_on,,95.0,57.0,95.0,123840,129.0
4208,9.0,,,,,,36.0,,,,,0,note_on,,95.0,36.0,95.0,123840,129.0
4209,9.0,,,,,,57.0,,,,,480,note_off,,80.0,57.0,80.0,124320,129.5
4210,9.0,,,,,,36.0,,,,,0,note_off,,80.0,36.0,80.0,124320,129.5
4211,9.0,,,,,,57.0,,,,,0,note_on,,95.0,57.0,95.0,124320,129.5
4212,9.0,,,,,,36.0,,,,,0,note_on,,95.0,36.0,95.0,124320,129.5
4213,9.0,,,,,,36.0,,,,,240,note_off,,80.0,36.0,80.0,124560,129.75
4214,9.0,,,,,,38.0,,,,,0,note_on,,95.0,38.0,95.0,124560,129.75
4215,9.0,,,,,,57.0,,,,,240,note_off,,80.0,57.0,80.0,124800,130.0
4216,9.0,,,,,,38.0,,,,,0,note_off,,80.0,38.0,80.0,124800,130.0
4217,9.0,,,,,,57.0,,,,,0,note_on,,95.0,57.0,95.0,124800,130.0
4218,9.0,,,,,,36.0,,,,,0,note_on,,95.0,36.0,95.0,124800,130.0
4219,9.0,,,,,,57.0,,,,,480,note_off,,80.0,57.0,80.0,125280,130.5
4220,9.0,,,,,,36.0,,,,,0,note_off,,80.0,36.0,80.0,125280,130.5
4221,9.0,,,,,,57.0,,,,,0,note_on,,95.0,57.0,95.0,125280,130.5
4222,9.0,,,,,,38.0,,,,,0,note_on,,95.0,38.0,95.0,125280,130.5
4223,9.0,,,,,,57.0,,,,,480,note_off,,80.0,57.0,80.0,125760,131.0
4224,9.0,,,,,,38.0,,,,,0,note_off,,80.0,38.0,80.0,125760,131.0
4225,9.0,,,,,,57.0,,,,,0,note_on,,95.0,57.0,95.0,125760,131.0
4226,9.0,,,,,,36.0,,,,,0,note_on,,95.0,36.0,95.0,125760,131.0
4227,9.0,,,,,,57.0,,,,,480,note_off,,80.0,57.0,80.0,126240,131.5
4228,9.0,,,,,,36.0,,,,,0,note_off,,80.0,36.0,80.0,126240,131.5
4229,9.0,,,,,,57.0,,,,,0,note_on,,95.0,57.0,95.0,126240,131.5
4230,9.0,,,,,,38.0,,,,,0,note_on,,95.0,38.0,95.0,126240,131.5
4231,9.0,,,,,,57.0,,,,,480,note_off,,80.0,57.0,80.0,126720,132.0
4232,9.0,,,,,,38.0,,,,,0,note_off,,80.0,38.0,80.0,126720,132.0
4233,9.0,,,,,,57.0,,,,,0,note_on,,95.0,57.0,95.0,126720,132.0
4234,9.0,,,,,,36.0,,,,,0,note_on,,95.0,36.0,95.0,126720,132.0
4235,9.0,,,,,,57.0,,,,,480,note_off,,80.0,57.0,80.0,127200,132.5
4236,9.0,,,,,,36.0,,,,,0,note_off,,80.0,36.0,80.0,127200,132.5
4237,9.0,,,,,,57.0,,,,,0,note_on,,95.0,57.0,95.0,127200,132.5
4238,9.0,,,,,,38.0,,,,,0,note_on,,95.0,38.0,95.0,127200,132.5
4239,9.0,,,,,,57.0,,,,,480,note_off,,80.0,57.0,80.0,127680,133.0
4240,9.0,,,,,,38.0,,,,,0,note_off,,80.0,38.0,80.0,127680,133.0
4241,9.0,,,,,,57.0,,,,,0,note_on,,95.0,57.0,95.0,127680,133.0
4242,9.0,,,,,,36.0,,,,,0,note_on,,95.0,36.0,95.0,127680,133.0
4243,9.0,,,,,,57.0,,,,,480,note_off,,80.0,57.0,80.0,128160,133.5
4244,9.0,,,,,,36.0,,,,,0,note_off,,80.0,36.0,80.0,128160,133.5
4245,9.0,,,,,,57.0,,,,,0,note_on,,95.0,57.0,95.0,128160,133.5
4246,9.0,,,,,,38.0,,,,,0,note_on,,95.0,38.0,95.0,128160,133.5
4247,9.0,,,,,,57.0,,,,,480,note_off,,80.0,57.0,80.0,128640,134.0
4248,9.0,,,,,,38.0,,,,,0,note_off,,80.0,38.0,80.0,128640,134.0
4249,9.0,,,,,,57.0,,,,,0,note_on,,95.0,57.0,95.0,128640,134.0
4250,9.0,,,,,,36.0,,,,,0,note_on,,95.0,36.0,95.0,128640,134.0
4251,9.0,,,,,,57.0,,,,,480,note_off,,80.0,57.0,80.0,129120,134.5
4252,9.0,,,,,,36.0,,,,,0,note_off,,80.0,36.0,80.0,129120,134.5
4253,9.0,,,,,,57.0,,,,,0,note_on,,95.0,57.0,95.0,129120,134.5
4254,9.0,,,,,,38.0,,,,,0,note_on,,95.0,38.0,95.0,129120,134.5
4255,9.0,,,,,,57.0,,,,,480,note_off,,80.0,57.0,80.0,129600,135.0
4256,9.0,,,,,,38.0,,,,,0,note_off,,80.0,38.0,80.0,129600,135.0
4257,9.0,,,,,,57.0,,,,,0,note_on,,95.0,57.0,95.0,129600,135.0
4258,9.0,,,,,,36.0,,,,,0,note_on,,95.0,36.0,95.0,129600,135.0
4259,9.0,,,,,,57.0,,,,,480,note_off,,80.0,57.0,80.0,130080,135.5
4260,9.0,,,,,,36.0,,,,,0,note_off,,80.0,36.0,80.0,130080,135.5
4261,9.0,,,,,,57.0,,,,,0,note_on,,95.0,57.0,95.0,130080,135.5
4262,9.0,,,,,,38.0,,,,,0,note_on,,95.0,38.0,95.0,130080,135.5
4263,9.0,,,,,,57.0,,,,,480,note_off,,80.0,57.0,80.0,130560,136.0
4264,9.0,,,,,,38.0,,,,,0,note_off,,80.0,38.0,80.0,130560,136.0
4265,9.0,,,,,,57.0,,,,,0,note_on,,95.0,57.0,95.0,130560,136.0
4266,9.0,,,,,,36.0,,,,,0,note_on,,95.0,36.0,95.0,130560,136.0
4267,9.0,,,,,,57.0,,,,,480,note_off,,80.0,57.0,80.0,131040,136.5
4268,9.0,,,,,,36.0,,,,,0,note_off,,80.0,36.0,80.0,131040,136.5
4269,9.0,,,,,,57.0,,,,,0,note_on,,95.0,57.0,95.0,131040,136.5
4270,9.0,,,,,,38.0,,,,,0,note_on,,95.0,38.0,95.0,131040,136.5
4271,9.0,,,,,,38.0,,,,,240,note_off,,80.0,38.0,80.0,131280,136.75
4272,9.0,,,,,,36.0,,,,,0,note_on,,95.0,36.0,95.0,131280,136.75
4273,9.0,,,,,,57.0,,,,,240,note_off,,80.0,57.0,80.0,131520,137.0
4274,9.0,,,,,,36.0,,,,,0,note_off,,80.0,36.0,80.0,131520,137.0
4275,9.0,,,,,,57.0,,,,,0,note_on,,95.0,57.0,95.0,131520,137.0
4276,9.0,,,,,,36.0,,,,,0,note_on,,95.0,36.0,95.0,131520,137.0
4277,9.0,,,,,,57.0,,,,,480,note_off,,80.0,57.0,80.0,132000,137.5
4278,9.0,,,,,,36.0,,,,,0,note_off,,80.0,36.0,80.0,132000,137.5
4279,9.0,,,,,,57.0,,,,,0,note_on,,95.0,57.0,95.0,132000,137.5
4280,9.0,,,,,,36.0,,,,,0,note_on,,95.0,36.0,95.0,132000,137.5
4281,9.0,,,,,,36.0,,,,,240,note_off,,80.0,36.0,80.0,132240,137.75
4282,9.0,,,,,,38.0,,,,,0,note_on,,95.0,38.0,95.0,132240,137.75
4283,9.0,,,,,,57.0,,,,,240,note_off,,80.0,57.0,80.0,132480,138.0
4284,9.0,,,,,,38.0,,,,,0,note_off,,80.0,38.0,80.0,132480,138.0
4285,9.0,,,,,,57.0,,,,,0,note_on,,95.0,57.0,95.0,132480,138.0
4286,9.0,,,,,,36.0,,,,,0,note_on,,95.0,36.0,95.0,132480,138.0
4287,9.0,,,,,,57.0,,,,,480,note_off,,80.0,57.0,80.0,132960,138.5
4288,9.0,,,,,,36.0,,,,,0,note_off,,80.0,36.0,80.0,132960,138.5
4289,9.0,,,,,,57.0,,,,,0,note_on,,95.0,57.0,95.0,132960,138.5
4290,9.0,,,,,,38.0,,,,,0,note_on,,95.0,38.0,95.0,132960,138.5
4291,9.0,,,,,,57.0,,,,,480,note_off,,80.0,57.0,80.0,133440,139.0
4292,9.0,,,,,,38.0,,,,,0,note_off,,80.0,38.0,80.0,133440,139.0
4293,9.0,,,,,,57.0,,,,,0,note_on,,95.0,57.0,95.0,133440,139.0
4294,9.0,,,,,,36.0,,,,,0,note_on,,95.0,36.0,95.0,133440,139.0
4295,9.0,,,,,,57.0,,,,,480,note_off,,80.0,57.0,80.0,133920,139.5
4296,9.0,,,,,,36.0,,,,,0,note_off,,80.0,36.0,80.0,133920,139.5
4297,9.0,,,,,,57.0,,,,,0,note_on,,95.0,57.0,95.0,133920,139.5
4298,9.0,,,,,,38.0,,,,,0,note_on,,95.0,38.0,95.0,133920,139.5
4299,9.0,,,,,,57.0,,,,,480,note_off,,80.0,57.0,80.0,134400,140.0
4300,9.0,,,,,,38.0,,,,,0,note_off,,80.0,38.0,80.0,134400,140.0
4301,9.0,,,,,,57.0,,,,,0,note_on,,95.0,57.0,95.0,134400,140.0
4302,9.0,,,,,,36.0,,,,,0,note_on,,95.0,36.0,95.0,134400,140.0
4303,9.0,,,,,,57.0,,,,,480,note_off,,80.0,57.0,80.0,134880,140.5
4304,9.0,,,,,,36.0,,,,,0,note_off,,80.0,36.0,80.0,134880,140.5
4305,9.0,,,,,,57.0,,,,,0,note_on,,95.0,57.0,95.0,134880,140.5
4306,9.0,,,,,,38.0,,,,,0,note_on,,95.0,38.0,95.0,134880,140.5
4307,9.0,,,,,,57.0,,,,,480,note_off,,80.0,57.0,80.0,135360,141.0
4308,9.0,,,,,,38.0,,,,,0,note_off,,80.0,38.0,80.0,135360,141.0
4309,9.0,,,,,,57.0,,,,,0,note_on,,95.0,57.0,95.0,135360,141.0
4310,9.0,,,,,,36.0,,,,,0,note_on,,95.0,36.0,95.0,135360,141.0
4311,9.0,,,,,,57.0,,,,,480,note_off,,80.0,57.0,80.0,135840,141.5
4312,9.0,,,,,,36.0,,,,,0,note_off,,80.0,36.0,80.0,135840,141.5
4313,9.0,,,,,,57.0,,,,,0,note_on,,95.0,57.0,95.0,135840,141.5
4314,9.0,,,,,,38.0,,,,,0,note_on,,95.0,38.0,95.0,135840,141.5
4315,9.0,,,,,,57.0,,,,,480,note_off,,80.0,57.0,80.0,136320,142.0
4316,9.0,,,,,,38.0,,,,,0,note_off,,80.0,38.0,80.0,136320,142.0
4317,9.0,,,,,,57.0,,,,,0,note_on,,95.0,57.0,95.0,136320,142.0
4318,9.0,,,,,,36.0,,,,,0,note_on,,95.0,36.0,95.0,136320,142.0
4319,9.0,,,,,,57.0,,,,,480,note_off,,80.0,57.0,80.0,136800,142.5
4320,9.0,,,,,,36.0,,,,,0,note_off,,80.0,36.0,80.0,136800,142.5
4321,9.0,,,,,,57.0,,,,,0,note_on,,95.0,57.0,95.0,136800,142.5
4322,9.0,,,,,,38.0,,,,,0,note_on,,95.0,38.0,95.0,136800,142.5
4323,9.0,,,,,,57.0,,,,,480,note_off,,80.0,57.0,80.0,137280,143.0
4324,9.0,,,,,,38.0,,,,,0,note_off,,80.0,38.0,80.0,137280,143.0
4325,9.0,,,,,,57.0,,,,,0,note_on,,95.0,57.0,95.0,137280,143.0
4326,9.0,,,,,,36.0,,,,,0,note_on,,95.0,36.0,95.0,137280,143.0
4327,9.0,,,,,,57.0,,,,,480,note_off,,80.0,57.0,80.0,137760,143.5
4328,9.0,,,,,,36.0,,,,,0,note_off,,80.0,36.0,80.0,137760,143.5
4329,9.0,,,,,,57.0,,,,,0,note_on,,95.0,57.0,95.0,137760,143.5
4330,9.0,,,,,,38.0,,,,,0,note_on,,95.0,38.0,95.0,137760,143.5
4331,9.0,,,,,,57.0,,,,,480,note_off,,80.0,57.0,80.0,138240,144.0
4332,9.0,,,,,,38.0,,,,,0,note_off,,80.0,38.0,80.0,138240,144.0
4333,9.0,,,,,,57.0,,,,,0,note_on,,95.0,57.0,95.0,138240,144.0
4334,9.0,,,,,,36.0,,,,,0,note_on,,95.0,36.0,95.0,138240,144.0
4335,9.0,,,,,,57.0,,,,,480,note_off,,80.0,57.0,80.0,138720,144.5
4336,9.0,,,,,,36.0,,,,,0,note_off,,80.0,36.0,80.0,138720,144.5
4337,9.0,,,,,,57.0,,,,,0,note_on,,95.0,57.0,95.0,138720,144.5
4338,9.0,,,,,,38.0,,,,,0,note_on,,95.0,38.0,95.0,138720,144.5
4339,9.0,,,,,,38.0,,,,,240,note_off,,80.0,38.0,80.0,138960,144.75
4340,9.0,,,,,,36.0,,,,,0,note_on,,95.0,36.0,95.0,138960,144.75
4341,9.0,,,,,,57.0,,,,,240,note_off,,80.0,57.0,80.0,139200,145.0
4342,9.0,,,,,,36.0,,,,,0,note_off,,80.0,36.0,80.0,139200,145.0
4343,9.0,,,,,,57.0,,,,,0,note_on,,95.0,57.0,95.0,139200,145.0
4344,9.0,,,,,,36.0,,,,,0,note_on,,95.0,36.0,95.0,139200,145.0
4345,9.0,,,,,,57.0,,,,,480,note_off,,80.0,57.0,80.0,139680,145.5
4346,9.0,,,,,,36.0,,,,,0,note_off,,80.0,36.0,80.0,139680,145.5
4347,9.0,,,,,,57.0,,,,,0,note_on,,95.0,57.0,95.0,139680,145.5
4348,9.0,,,,,,36.0,,,,,0,note_on,,95.0,36.0,95.0,139680,145.5
4349,9.0,,,,,,36.0,,,,,240,note_off,,80.0,36.0,80.0,139920,145.75
4350,9.0,,,,,,38.0,,,,,0,note_on,,95.0,38.0,95.0,139920,145.75
4351,9.0,,,,,,57.0,,,,,240,note_off,,80.0,57.0,80.0,140160,146.0
4352,9.0,,,,,,38.0,,,,,0,note_off,,80.0,38.0,80.0,140160,146.0
4353,9.0,,,,,,57.0,,,,,0,note_on,,95.0,57.0,95.0,140160,146.0
4354,9.0,,,,,,36.0,,,,,0,note_on,,95.0,36.0,95.0,140160,146.0
4355,9.0,,,,,,57.0,,,,,480,note_off,,80.0,57.0,80.0,140640,146.5
4356,9.0,,,,,,36.0,,,,,0,note_off,,80.0,36.0,80.0,140640,146.5
4357,9.0,,,,,,57.0,,,,,0,note_on,,95.0,57.0,95.0,140640,146.5
4358,9.0,,,,,,38.0,,,,,0,note_on,,95.0,38.0,95.0,140640,146.5
4359,9.0,,,,,,57.0,,,,,480,note_off,,80.0,57.0,80.0,141120,147.0
4360,9.0,,,,,,38.0,,,,,0,note_off,,80.0,38.0,80.0,141120,147.0
4361,9.0,,,,,,57.0,,,,,0,note_on,,95.0,57.0,95.0,141120,147.0
4362,9.0,,,,,,36.0,,,,,0,note_on,,95.0,36.0,95.0,141120,147.0
4363,9.0,,,,,,57.0,,,,,480,note_off,,80.0,57.0,80.0,141600,147.5
4364,9.0,,,,,,36.0,,,,,0,note_off,,80.0,36.0,80.0,141600,147.5
4365,9.0,,,,,,57.0,,,,,0,note_on,,95.0,57.0,95.0,141600,147.5
4366,9.0,,,,,,38.0,,,,,0,note_on,,95.0,38.0,95.0,141600,147.5
4367,9.0,,,,,,57.0,,,,,480,note_off,,80.0,57.0,80.0,142080,148.0
4368,9.0,,,,,,38.0,,,,,0,note_off,,80.0,38.0,80.0,142080,148.0
4369,9.0,,,,,,57.0,,,,,0,note_on,,95.0,57.0,95.0,142080,148.0
4370,9.0,,,,,,36.0,,,,,0,note_on,,95.0,36.0,95.0,142080,148.0
4371,9.0,,,,,,57.0,,,,,480,note_off,,80.0,57.0,80.0,142560,148.5
4372,9.0,,,,,,36.0,,,,,0,note_off,,80.0,36.0,80.0,142560,148.5
4373,9.0,,,,,,57.0,,,,,0,note_on,,95.0,57.0,95.0,142560,148.5
4374,9.0,,,,,,38.0,,,,,0,note_on,,95.0,38.0,95.0,142560,148.5
4375,9.0,,,,,,57.0,,,,,480,note_off,,80.0,57.0,80.0,143040,149.0
4376,9.0,,,,,,38.0,,,,,0,note_off,,80.0,38.0,80.0,143040,149.0
4377,9.0,,,,,,57.0,,,,,0,note_on,,95.0,57.0,95.0,143040,149.0
4378,9.0,,,,,,36.0,,,,,0,note_on,,95.0,36.0,95.0,143040,149.0
4379,9.0,,,,,,57.0,,,,,480,note_off,,80.0,57.0,80.0,143520,149.5
4380,9.0,,,,,,36.0,,,,,0,note_off,,80.0,36.0,80.0,143520,149.5
4381,9.0,,,,,,57.0,,,,,0,note_on,,95.0,57.0,95.0,143520,149.5
4382,9.0,,,,,,38.0,,,,,0,note_on,,95.0,38.0,95.0,143520,149.5
4383,9.0,,,,,,57.0,,,,,480,note_off,,80.0,57.0,80.0,144000,150.0
4384,9.0,,,,,,38.0,,,,,0,note_off,,80.0,38.0,80.0,144000,150.0
4385,9.0,,,,,,57.0,,,,,0,note_on,,95.0,57.0,95.0,144000,150.0
4386,9.0,,,,,,36.0,,,,,0,note_on,,95.0,36.0,95.0,144000,150.0
4387,9.0,,,,,,57.0,,,,,480,note_off,,80.0,57.0,80.0,144480,150.5
4388,9.0,,,,,,36.0,,,,,0,note_off,,80.0,36.0,80.0,144480,150.5
4389,9.0,,,,,,57.0,,,,,0,note_on,,95.0,57.0,95.0,144480,150.5
4390,9.0,,,,,,38.0,,,,,0,note_on,,95.0,38.0,95.0,144480,150.5
4391,9.0,,,,,,57.0,,,,,480,note_off,,80.0,57.0,80.0,144960,151.0
4392,9.0,,,,,,38.0,,,,,0,note_off,,80.0,38.0,80.0,144960,151.0
4393,9.0,,,,,,57.0,,,,,0,note_on,,95.0,57.0,95.0,144960,151.0
4394,9.0,,,,,,36.0,,,,,0,note_on,,95.0,36.0,95.0,144960,151.0
4395,9.0,,,,,,57.0,,,,,480,note_off,,80.0,57.0,80.0,145440,151.5
4396,9.0,,,,,,36.0,,,,,0,note_off,,80.0,36.0,80.0,145440,151.5
4397,9.0,,,,,,57.0,,,,,0,note_on,,95.0,57.0,95.0,145440,151.5
4398,9.0,,,,,,38.0,,,,,0,note_on,,95.0,38.0,95.0,145440,151.5
4399,9.0,,,,,,57.0,,,,,480,note_off,,80.0,57.0,80.0,145920,152.0
4400,9.0,,,,,,38.0,,,,,0,note_off,,80.0,38.0,80.0,145920,152.0
4401,9.0,,,,,,57.0,,,,,0,note_on,,95.0,57.0,95.0,145920,152.0
4402,9.0,,,,,,36.0,,,,,0,note_on,,95.0,36.0,95.0,145920,152.0
4403,9.0,,,,,,57.0,,,,,480,note_off,,80.0,57.0,80.0,146400,152.5
4404,9.0,,,,,,36.0,,,,,0,note_off,,80.0,36.0,80.0,146400,152.5
4405,9.0,,,,,,57.0,,,,,0,note_on,,95.0,57.0,95.0,146400,152.5
4406,9.0,,,,,,38.0,,,,,0,note_on,,95.0,38.0,95.0,146400,152.5
4407,9.0,,,,,,38.0,,,,,240,note_off,,80.0,38.0,80.0,146640,152.75
4408,9.0,,,,,,36.0,,,,,0,note_on,,95.0,36.0,95.0,146640,152.75
4409,9.0,,,,,,57.0,,,,,240,note_off,,80.0,57.0,80.0,146880,153.0
4410,9.0,,,,,,36.0,,,,,0,note_off,,80.0,36.0,80.0,146880,153.0
4411,9.0,,,,,,57.0,,,,,0,note_on,,95.0,57.0,95.0,146880,153.0
4412,9.0,,,,,,36.0,,,,,0,note_on,,95.0,36.0,95.0,146880,153.0
4413,9.0,,,,,,57.0,,,,,480,note_off,,80.0,57.0,80.0,147360,153.5
4414,9.0,,,,,,36.0,,,,,0,note_off,,80.0,36.0,80.0,147360,153.5
4415,9.0,,,,,,57.0,,,,,0,note_on,,95.0,57.0,95.0,147360,153.5
4416,9.0,,,,,,36.0,,,,,0,note_on,,95.0,36.0,95.0,147360,153.5
4417,9.0,,,,,,36.0,,,,,240,note_off,,80.0,36.0,80.0,147600,153.75
4418,9.0,,,,,,38.0,,,,,0,note_on,,95.0,38.0,95.0,147600,153.75
4419,9.0,,,,,,57.0,,,,,240,note_off,,80.0,57.0,80.0,147840,154.0
4420,9.0,,,,,,38.0,,,,,0,note_off,,80.0,38.0,80.0,147840,154.0
4421,9.0,,,,,,57.0,,,,,0,note_on,,95.0,57.0,95.0,147840,154.0
4422,9.0,,,,,,36.0,,,,,0,note_on,,95.0,36.0,95.0,147840,154.0
4423,9.0,,,,,,57.0,,,,,480,note_off,,80.0,57.0,80.0,148320,154.5
4424,9.0,,,,,,36.0,,,,,0,note_off,,80.0,36.0,80.0,148320,154.5
4425,9.0,,,,,,57.0,,,,,0,note_on,,95.0,57.0,95.0,148320,154.5
4426,9.0,,,,,,38.0,,,,,0,note_on,,95.0,38.0,95.0,148320,154.5
4427,9.0,,,,,,57.0,,,,,480,note_off,,80.0,57.0,80.0,148800,155.0
4428,9.0,,,,,,38.0,,,,,0,note_off,,80.0,38.0,80.0,148800,155.0
4429,9.0,,,,,,57.0,,,,,0,note_on,,95.0,57.0,95.0,148800,155.0
4430,9.0,,,,,,36.0,,,,,0,note_on,,95.0,36.0,95.0,148800,155.0
4431,9.0,,,,,,57.0,,,,,480,note_off,,80.0,57.0,80.0,149280,155.5
4432,9.0,,,,,,36.0,,,,,0,note_off,,80.0,36.0,80.0,149280,155.5
4433,9.0,,,,,,57.0,,,,,0,note_on,,95.0,57.0,95.0,149280,155.5
4434,9.0,,,,,,38.0,,,,,0,note_on,,95.0,38.0,95.0,149280,155.5
4435,9.0,,,,,,57.0,,,,,480,note_off,,80.0,57.0,80.0,149760,156.0
4436,9.0,,,,,,38.0,,,,,0,note_off,,80.0,38.0,80.0,149760,156.0
4437,9.0,,,,,,57.0,,,,,0,note_on,,95.0,57.0,95.0,149760,156.0
4438,9.0,,,,,,36.0,,,,,0,note_on,,95.0,36.0,95.0,149760,156.0
4439,9.0,,,,,,57.0,,,,,480,note_off,,80.0,57.0,80.0,150240,156.5
4440,9.0,,,,,,36.0,,,,,0,note_off,,80.0,36.0,80.0,150240,156.5
4441,9.0,,,,,,42.0,,,,,0,note_on,,95.0,42.0,95.0,150240,156.5
4442,9.0,,,,,,42.0,,,,,480,note_off,,80.0,42.0,80.0,150720,157.0
4443,9.0,,,,,,42.0,,,,,0,note_on,,95.0,42.0,95.0,150720,157.0
4444,9.0,,,,,,42.0,,,,,480,note_off,,80.0,42.0,80.0,151200,157.5
4445,9.0,,,,,,42.0,,,,,0,note_on,,95.0,42.0,95.0,151200,157.5
4446,9.0,,,,,,42.0,,,,,480,note_off,,80.0,42.0,80.0,151680,158.0
4447,9.0,,,,,,57.0,,,,,0,note_on,,95.0,57.0,95.0,151680,158.0
4448,9.0,,,,,,36.0,,,,,0,note_on,,95.0,36.0,95.0,151680,158.0
4449,9.0,,,,,,57.0,,,,,480,note_off,,80.0,57.0,80.0,152160,158.5
4450,9.0,,,,,,36.0,,,,,0,note_off,,80.0,36.0,80.0,152160,158.5
4451,9.0,,,,,,42.0,,,,,0,note_on,,95.0,42.0,95.0,152160,158.5
4452,9.0,,,,,,42.0,,,,,480,note_off,,80.0,42.0,80.0,152640,159.0
4453,9.0,,,,,,42.0,,,,,0,note_on,,95.0,42.0,95.0,152640,159.0
4454,9.0,,,,,,42.0,,,,,480,note_off,,80.0,42.0,80.0,153120,159.5
4455,9.0,,,,,,42.0,,,,,0,note_on,,95.0,42.0,95.0,153120,159.5
4456,9.0,,,,,,42.0,,,,,480,note_off,,80.0,42.0,80.0,153600,160.0
4457,9.0,,,,,,44.0,,,,,3840,note_on,,95.0,44.0,95.0,157440,164.0
4458,9.0,,,,,,41.0,,,,,0,note_on,,95.0,41.0,95.0,157440,164.0
4459,9.0,,,,,,36.0,,,,,0,note_on,,95.0,36.0,95.0,157440,164.0
4460,9.0,,,,,,44.0,,,,,480,note_off,,80.0,44.0,80.0,157920,164.5
4461,9.0,,,,,,41.0,,,,,0,note_off,,80.0,41.0,80.0,157920,164.5
4462,9.0,,,,,,36.0,,,,,0,note_off,,80.0,36.0,80.0,157920,164.5
4463,9.0,,,,,,44.0,,,,,0,note_on,,95.0,44.0,95.0,157920,164.5
4464,9.0,,,,,,41.0,,,,,0,note_on,,95.0,41.0,95.0,157920,164.5
4465,9.0,,,,,,36.0,,,,,0,note_on,,95.0,36.0,95.0,157920,164.5
4466,9.0,,,,,,44.0,,,,,480,note_off,,80.0,44.0,80.0,158400,165.0
4467,9.0,,,,,,41.0,,,,,0,note_off,,80.0,41.0,80.0,158400,165.0
4468,9.0,,,,,,36.0,,,,,0,note_off,,80.0,36.0,80.0,158400,165.0
4469,9.0,,,,,,44.0,,,,,0,note_on,,95.0,44.0,95.0,158400,165.0
4470,9.0,,,,,,41.0,,,,,0,note_on,,95.0,41.0,95.0,158400,165.0
4471,9.0,,,,,,36.0,,,,,0,note_on,,95.0,36.0,95.0,158400,165.0
4472,9.0,,,,,,44.0,,,,,480,note_off,,80.0,44.0,80.0,158880,165.5
4473,9.0,,,,,,41.0,,,,,0,note_off,,80.0,41.0,80.0,158880,165.5
4474,9.0,,,,,,36.0,,,,,0,note_off,,80.0,36.0,80.0,158880,165.5
4475,9.0,,,,,,44.0,,,,,0,note_on,,95.0,44.0,95.0,158880,165.5
4476,9.0,,,,,,41.0,,,,,0,note_on,,95.0,41.0,95.0,158880,165.5
4477,9.0,,,,,,36.0,,,,,0,note_on,,95.0,36.0,95.0,158880,165.5
4478,9.0,,,,,,44.0,,,,,480,note_off,,80.0,44.0,80.0,159360,166.0
4479,9.0,,,,,,41.0,,,,,0,note_off,,80.0,41.0,80.0,159360,166.0
4480,9.0,,,,,,36.0,,,,,0,note_off,,80.0,36.0,80.0,159360,166.0
4481,9.0,,,,,,44.0,,,,,0,note_on,,95.0,44.0,95.0,159360,166.0
4482,9.0,,,,,,41.0,,,,,0,note_on,,95.0,41.0,95.0,159360,166.0
4483,9.0,,,,,,36.0,,,,,0,note_on,,95.0,36.0,95.0,159360,166.0
4484,9.0,,,,,,44.0,,,,,480,note_off,,80.0,44.0,80.0,159840,166.5
4485,9.0,,,,,,41.0,,,,,0,note_off,,80.0,41.0,80.0,159840,166.5
4486,9.0,,,,,,36.0,,,,,0,note_off,,80.0,36.0,80.0,159840,166.5
4487,9.0,,,,,,44.0,,,,,0,note_on,,95.0,44.0,95.0,159840,166.5
4488,9.0,,,,,,41.0,,,,,0,note_on,,95.0,41.0,95.0,159840,166.5
4489,9.0,,,,,,36.0,,,,,0,note_on,,95.0,36.0,95.0,159840,166.5
4490,9.0,,,,,,44.0,,,,,480,note_off,,80.0,44.0,80.0,160320,167.0
4491,9.0,,,,,,41.0,,,,,0,note_off,,80.0,41.0,80.0,160320,167.0
4492,9.0,,,,,,36.0,,,,,0,note_off,,80.0,36.0,80.0,160320,167.0
4493,9.0,,,,,,44.0,,,,,0,note_on,,95.0,44.0,95.0,160320,167.0
4494,9.0,,,,,,41.0,,,,,0,note_on,,95.0,41.0,95.0,160320,167.0
4495,9.0,,,,,,36.0,,,,,0,note_on,,95.0,36.0,95.0,160320,167.0
4496,9.0,,,,,,44.0,,,,,480,note_off,,80.0,44.0,80.0,160800,167.5
4497,9.0,,,,,,41.0,,,,,0,note_off,,80.0,41.0,80.0,160800,167.5
4498,9.0,,,,,,36.0,,,,,0,note_off,,80.0,36.0,80.0,160800,167.5
4499,9.0,,,,,,44.0,,,,,0,note_on,,95.0,44.0,95.0,160800,167.5
4500,9.0,,,,,,41.0,,,,,0,note_on,,95.0,41.0,95.0,160800,167.5
4501,9.0,,,,,,36.0,,,,,0,note_on,,95.0,36.0,95.0,160800,167.5
4502,9.0,,,,,,44.0,,,,,480,note_off,,80.0,44.0,80.0,161280,168.0
4503,9.0,,,,,,41.0,,,,,0,note_off,,80.0,41.0,80.0,161280,168.0
4504,9.0,,,,,,36.0,,,,,0,note_off,,80.0,36.0,80.0,161280,168.0
4505,9.0,,,,,,44.0,,,,,0,note_on,,95.0,44.0,95.0,161280,168.0
4506,9.0,,,,,,41.0,,,,,0,note_on,,95.0,41.0,95.0,161280,168.0
4507,9.0,,,,,,36.0,,,,,0,note_on,,95.0,36.0,95.0,161280,168.0
4508,9.0,,,,,,44.0,,,,,480,note_off,,80.0,44.0,80.0,161760,168.5
4509,9.0,,,,,,41.0,,,,,0,note_off,,80.0,41.0,80.0,161760,168.5
4510,9.0,,,,,,36.0,,,,,0,note_off,,80.0,36.0,80.0,161760,168.5
4511,9.0,,,,,,44.0,,,,,0,note_on,,95.0,44.0,95.0,161760,168.5
4512,9.0,,,,,,41.0,,,,,0,note_on,,95.0,41.0,95.0,161760,168.5
4513,9.0,,,,,,36.0,,,,,0,note_on,,95.0,36.0,95.0,161760,168.5
4514,9.0,,,,,,44.0,,,,,480,note_off,,80.0,44.0,80.0,162240,169.0
4515,9.0,,,,,,41.0,,,,,0,note_off,,80.0,41.0,80.0,162240,169.0
4516,9.0,,,,,,36.0,,,,,0,note_off,,80.0,36.0,80.0,162240,169.0
4517,9.0,,,,,,44.0,,,,,0,note_on,,95.0,44.0,95.0,162240,169.0
4518,9.0,,,,,,41.0,,,,,0,note_on,,95.0,41.0,95.0,162240,169.0
4519,9.0,,,,,,36.0,,,,,0,note_on,,95.0,36.0,95.0,162240,169.0
4520,9.0,,,,,,44.0,,,,,480,note_off,,80.0,44.0,80.0,162720,169.5
4521,9.0,,,,,,41.0,,,,,0,note_off,,80.0,41.0,80.0,162720,169.5
4522,9.0,,,,,,36.0,,,,,0,note_off,,80.0,36.0,80.0,162720,169.5
4523,9.0,,,,,,44.0,,,,,0,note_on,,95.0,44.0,95.0,162720,169.5
4524,9.0,,,,,,41.0,,,,,0,note_on,,95.0,41.0,95.0,162720,169.5
4525,9.0,,,,,,36.0,,,,,0,note_on,,95.0,36.0,95.0,162720,169.5
4526,9.0,,,,,,44.0,,,,,480,note_off,,80.0,44.0,80.0,163200,170.0
4527,9.0,,,,,,41.0,,,,,0,note_off,,80.0,41.0,80.0,163200,170.0
4528,9.0,,,,,,36.0,,,,,0,note_off,,80.0,36.0,80.0,163200,170.0
4529,9.0,,,,,,44.0,,,,,0,note_on,,95.0,44.0,95.0,163200,170.0
4530,9.0,,,,,,41.0,,,,,0,note_on,,95.0,41.0,95.0,163200,170.0
4531,9.0,,,,,,36.0,,,,,0,note_on,,95.0,36.0,95.0,163200,170.0
4532,9.0,,,,,,44.0,,,,,480,note_off,,80.0,44.0,80.0,163680,170.5
4533,9.0,,,,,,41.0,,,,,0,note_off,,80.0,41.0,80.0,163680,170.5
4534,9.0,,,,,,36.0,,,,,0,note_off,,80.0,36.0,80.0,163680,170.5
4535,9.0,,,,,,44.0,,,,,0,note_on,,95.0,44.0,95.0,163680,170.5
4536,9.0,,,,,,41.0,,,,,0,note_on,,95.0,41.0,95.0,163680,170.5
4537,9.0,,,,,,36.0,,,,,0,note_on,,95.0,36.0,95.0,163680,170.5
4538,9.0,,,,,,44.0,,,,,480,note_off,,80.0,44.0,80.0,164160,171.0
4539,9.0,,,,,,41.0,,,,,0,note_off,,80.0,41.0,80.0,164160,171.0
4540,9.0,,,,,,36.0,,,,,0,note_off,,80.0,36.0,80.0,164160,171.0
4541,9.0,,,,,,44.0,,,,,0,note_on,,95.0,44.0,95.0,164160,171.0
4542,9.0,,,,,,41.0,,,,,0,note_on,,95.0,41.0,95.0,164160,171.0
4543,9.0,,,,,,36.0,,,,,0,note_on,,95.0,36.0,95.0,164160,171.0
4544,9.0,,,,,,44.0,,,,,480,note_off,,80.0,44.0,80.0,164640,171.5
4545,9.0,,,,,,41.0,,,,,0,note_off,,80.0,41.0,80.0,164640,171.5
4546,9.0,,,,,,36.0,,,,,0,note_off,,80.0,36.0,80.0,164640,171.5
4547,9.0,,,,,,44.0,,,,,0,note_on,,95.0,44.0,95.0,164640,171.5
4548,9.0,,,,,,41.0,,,,,0,note_on,,95.0,41.0,95.0,164640,171.5
4549,9.0,,,,,,36.0,,,,,0,note_on,,95.0,36.0,95.0,164640,171.5
4550,9.0,,,,,,44.0,,,,,480,note_off,,80.0,44.0,80.0,165120,172.0
4551,9.0,,,,,,41.0,,,,,0,note_off,,80.0,41.0,80.0,165120,172.0
4552,9.0,,,,,,36.0,,,,,0,note_off,,80.0,36.0,80.0,165120,172.0
4553,9.0,,,,,,44.0,,,,,0,note_on,,95.0,44.0,95.0,165120,172.0
4554,9.0,,,,,,41.0,,,,,0,note_on,,95.0,41.0,95.0,165120,172.0
4555,9.0,,,,,,36.0,,,,,0,note_on,,95.0,36.0,95.0,165120,172.0
4556,9.0,,,,,,44.0,,,,,480,note_off,,80.0,44.0,80.0,165600,172.5
4557,9.0,,,,,,41.0,,,,,0,note_off,,80.0,41.0,80.0,165600,172.5
4558,9.0,,,,,,36.0,,,,,0,note_off,,80.0,36.0,80.0,165600,172.5
4559,9.0,,,,,,44.0,,,,,0,note_on,,95.0,44.0,95.0,165600,172.5
4560,9.0,,,,,,41.0,,,,,0,note_on,,95.0,41.0,95.0,165600,172.5
4561,9.0,,,,,,36.0,,,,,0,note_on,,95.0,36.0,95.0,165600,172.5
4562,9.0,,,,,,44.0,,,,,480,note_off,,80.0,44.0,80.0,166080,173.0
4563,9.0,,,,,,41.0,,,,,0,note_off,,80.0,41.0,80.0,166080,173.0
4564,9.0,,,,,,36.0,,,,,0,note_off,,80.0,36.0,80.0,166080,173.0
4565,9.0,,,,,,44.0,,,,,0,note_on,,95.0,44.0,95.0,166080,173.0
4566,9.0,,,,,,41.0,,,,,0,note_on,,95.0,41.0,95.0,166080,173.0
4567,9.0,,,,,,36.0,,,,,0,note_on,,95.0,36.0,95.0,166080,173.0
4568,9.0,,,,,,44.0,,,,,480,note_off,,80.0,44.0,80.0,166560,173.5
4569,9.0,,,,,,41.0,,,,,0,note_off,,80.0,41.0,80.0,166560,173.5
4570,9.0,,,,,,36.0,,,,,0,note_off,,80.0,36.0,80.0,166560,173.5
4571,9.0,,,,,,44.0,,,,,0,note_on,,95.0,44.0,95.0,166560,173.5
4572,9.0,,,,,,41.0,,,,,0,note_on,,95.0,41.0,95.0,166560,173.5
4573,9.0,,,,,,36.0,,,,,0,note_on,,95.0,36.0,95.0,166560,173.5
4574,9.0,,,,,,44.0,,,,,480,note_off,,80.0,44.0,80.0,167040,174.0
4575,9.0,,,,,,41.0,,,,,0,note_off,,80.0,41.0,80.0,167040,174.0
4576,9.0,,,,,,36.0,,,,,0,note_off,,80.0,36.0,80.0,167040,174.0
4577,9.0,,,,,,44.0,,,,,0,note_on,,95.0,44.0,95.0,167040,174.0
4578,9.0,,,,,,41.0,,,,,0,note_on,,95.0,41.0,95.0,167040,174.0
4579,9.0,,,,,,36.0,,,,,0,note_on,,95.0,36.0,95.0,167040,174.0
4580,9.0,,,,,,44.0,,,,,480,note_off,,80.0,44.0,80.0,167520,174.5
4581,9.0,,,,,,41.0,,,,,0,note_off,,80.0,41.0,80.0,167520,174.5
4582,9.0,,,,,,36.0,,,,,0,note_off,,80.0,36.0,80.0,167520,174.5
4583,9.0,,,,,,44.0,,,,,0,note_on,,95.0,44.0,95.0,167520,174.5
4584,9.0,,,,,,41.0,,,,,0,note_on,,95.0,41.0,95.0,167520,174.5
4585,9.0,,,,,,36.0,,,,,0,note_on,,95.0,36.0,95.0,167520,174.5
4586,9.0,,,,,,44.0,,,,,480,note_off,,80.0,44.0,80.0,168000,175.0
4587,9.0,,,,,,41.0,,,,,0,note_off,,80.0,41.0,80.0,168000,175.0
4588,9.0,,,,,,36.0,,,,,0,note_off,,80.0,36.0,80.0,168000,175.0
4589,9.0,,,,,,44.0,,,,,0,note_on,,95.0,44.0,95.0,168000,175.0
4590,9.0,,,,,,41.0,,,,,0,note_on,,95.0,41.0,95.0,168000,175.0
4591,9.0,,,,,,36.0,,,,,0,note_on,,95.0,36.0,95.0,168000,175.0
4592,9.0,,,,,,44.0,,,,,480,note_off,,80.0,44.0,80.0,168480,175.5
4593,9.0,,,,,,41.0,,,,,0,note_off,,80.0,41.0,80.0,168480,175.5
4594,9.0,,,,,,36.0,,,,,0,note_off,,80.0,36.0,80.0,168480,175.5
4595,9.0,,,,,,44.0,,,,,0,note_on,,95.0,44.0,95.0,168480,175.5
4596,9.0,,,,,,41.0,,,,,0,note_on,,95.0,41.0,95.0,168480,175.5
4597,9.0,,,,,,36.0,,,,,0,note_on,,95.0,36.0,95.0,168480,175.5
4598,9.0,,,,,,44.0,,,,,480,note_off,,80.0,44.0,80.0,168960,176.0
4599,9.0,,,,,,41.0,,,,,0,note_off,,80.0,41.0,80.0,168960,176.0
4600,9.0,,,,,,36.0,,,,,0,note_off,,80.0,36.0,80.0,168960,176.0
4601,9.0,,,,,,44.0,,,,,0,note_on,,95.0,44.0,95.0,168960,176.0
4602,9.0,,,,,,41.0,,,,,0,note_on,,95.0,41.0,95.0,168960,176.0
4603,9.0,,,,,,36.0,,,,,0,note_on,,95.0,36.0,95.0,168960,176.0
4604,9.0,,,,,,44.0,,,,,480,note_off,,80.0,44.0,80.0,169440,176.5
4605,9.0,,,,,,41.0,,,,,0,note_off,,80.0,41.0,80.0,169440,176.5
4606,9.0,,,,,,36.0,,,,,0,note_off,,80.0,36.0,80.0,169440,176.5
4607,9.0,,,,,,44.0,,,,,0,note_on,,95.0,44.0,95.0,169440,176.5
4608,9.0,,,,,,41.0,,,,,0,note_on,,95.0,41.0,95.0,169440,176.5
4609,9.0,,,,,,36.0,,,,,0,note_on,,95.0,36.0,95.0,169440,176.5
4610,9.0,,,,,,44.0,,,,,480,note_off,,80.0,44.0,80.0,169920,177.0
4611,9.0,,,,,,41.0,,,,,0,note_off,,80.0,41.0,80.0,169920,177.0
4612,9.0,,,,,,36.0,,,,,0,note_off,,80.0,36.0,80.0,169920,177.0
4613,9.0,,,,,,44.0,,,,,0,note_on,,95.0,44.0,95.0,169920,177.0
4614,9.0,,,,,,41.0,,,,,0,note_on,,95.0,41.0,95.0,169920,177.0
4615,9.0,,,,,,36.0,,,,,0,note_on,,95.0,36.0,95.0,169920,177.0
4616,9.0,,,,,,44.0,,,,,480,note_off,,80.0,44.0,80.0,170400,177.5
4617,9.0,,,,,,41.0,,,,,0,note_off,,80.0,41.0,80.0,170400,177.5
4618,9.0,,,,,,36.0,,,,,0,note_off,,80.0,36.0,80.0,170400,177.5
4619,9.0,,,,,,44.0,,,,,0,note_on,,95.0,44.0,95.0,170400,177.5
4620,9.0,,,,,,41.0,,,,,0,note_on,,95.0,41.0,95.0,170400,177.5
4621,9.0,,,,,,36.0,,,,,0,note_on,,95.0,36.0,95.0,170400,177.5
4622,9.0,,,,,,44.0,,,,,480,note_off,,80.0,44.0,80.0,170880,178.0
4623,9.0,,,,,,41.0,,,,,0,note_off,,80.0,41.0,80.0,170880,178.0
4624,9.0,,,,,,36.0,,,,,0,note_off,,80.0,36.0,80.0,170880,178.0
4625,9.0,,,,,,44.0,,,,,0,note_on,,95.0,44.0,95.0,170880,178.0
4626,9.0,,,,,,41.0,,,,,0,note_on,,95.0,41.0,95.0,170880,178.0
4627,9.0,,,,,,36.0,,,,,0,note_on,,95.0,36.0,95.0,170880,178.0
4628,9.0,,,,,,44.0,,,,,480,note_off,,80.0,44.0,80.0,171360,178.5
4629,9.0,,,,,,41.0,,,,,0,note_off,,80.0,41.0,80.0,171360,178.5
4630,9.0,,,,,,36.0,,,,,0,note_off,,80.0,36.0,80.0,171360,178.5
4631,9.0,,,,,,44.0,,,,,0,note_on,,95.0,44.0,95.0,171360,178.5
4632,9.0,,,,,,41.0,,,,,0,note_on,,95.0,41.0,95.0,171360,178.5
4633,9.0,,,,,,36.0,,,,,0,note_on,,95.0,36.0,95.0,171360,178.5
4634,9.0,,,,,,44.0,,,,,480,note_off,,80.0,44.0,80.0,171840,179.0
4635,9.0,,,,,,41.0,,,,,0,note_off,,80.0,41.0,80.0,171840,179.0
4636,9.0,,,,,,36.0,,,,,0,note_off,,80.0,36.0,80.0,171840,179.0
4637,9.0,,,,,,44.0,,,,,0,note_on,,95.0,44.0,95.0,171840,179.0
4638,9.0,,,,,,41.0,,,,,0,note_on,,95.0,41.0,95.0,171840,179.0
4639,9.0,,,,,,36.0,,,,,0,note_on,,95.0,36.0,95.0,171840,179.0
4640,9.0,,,,,,44.0,,,,,480,note_off,,80.0,44.0,80.0,172320,179.5
4641,9.0,,,,,,41.0,,,,,0,note_off,,80.0,41.0,80.0,172320,179.5
4642,9.0,,,,,,36.0,,,,,0,note_off,,80.0,36.0,80.0,172320,179.5
4643,9.0,,,,,,44.0,,,,,0,note_on,,95.0,44.0,95.0,172320,179.5
4644,9.0,,,,,,41.0,,,,,0,note_on,,95.0,41.0,95.0,172320,179.5
4645,9.0,,,,,,36.0,,,,,0,note_on,,95.0,36.0,95.0,172320,179.5
4646,9.0,,,,,,44.0,,,,,480,note_off,,80.0,44.0,80.0,172800,180.0
4647,9.0,,,,,,41.0,,,,,0,note_off,,80.0,41.0,80.0,172800,180.0
4648,9.0,,,,,,36.0,,,,,0,note_off,,80.0,36.0,80.0,172800,180.0
4649,9.0,,,,,,44.0,,,,,0,note_on,,95.0,44.0,95.0,172800,180.0
4650,9.0,,,,,,41.0,,,,,0,note_on,,95.0,41.0,95.0,172800,180.0
4651,9.0,,,,,,36.0,,,,,0,note_on,,95.0,36.0,95.0,172800,180.0
4652,9.0,,,,,,44.0,,,,,480,note_off,,80.0,44.0,80.0,173280,180.5
4653,9.0,,,,,,41.0,,,,,0,note_off,,80.0,41.0,80.0,173280,180.5
4654,9.0,,,,,,36.0,,,,,0,note_off,,80.0,36.0,80.0,173280,180.5
4655,9.0,,,,,,44.0,,,,,0,note_on,,95.0,44.0,95.0,173280,180.5
4656,9.0,,,,,,41.0,,,,,0,note_on,,95.0,41.0,95.0,173280,180.5
4657,9.0,,,,,,36.0,,,,,0,note_on,,95.0,36.0,95.0,173280,180.5
4658,9.0,,,,,,44.0,,,,,480,note_off,,80.0,44.0,80.0,173760,181.0
4659,9.0,,,,,,41.0,,,,,0,note_off,,80.0,41.0,80.0,173760,181.0
4660,9.0,,,,,,36.0,,,,,0,note_off,,80.0,36.0,80.0,173760,181.0
4661,9.0,,,,,,44.0,,,,,0,note_on,,95.0,44.0,95.0,173760,181.0
4662,9.0,,,,,,41.0,,,,,0,note_on,,95.0,41.0,95.0,173760,181.0
4663,9.0,,,,,,36.0,,,,,0,note_on,,95.0,36.0,95.0,173760,181.0
4664,9.0,,,,,,44.0,,,,,480,note_off,,80.0,44.0,80.0,174240,181.5
4665,9.0,,,,,,41.0,,,,,0,note_off,,80.0,41.0,80.0,174240,181.5
4666,9.0,,,,,,36.0,,,,,0,note_off,,80.0,36.0,80.0,174240,181.5
4667,9.0,,,,,,44.0,,,,,0,note_on,,95.0,44.0,95.0,174240,181.5
4668,9.0,,,,,,41.0,,,,,0,note_on,,95.0,41.0,95.0,174240,181.5
4669,9.0,,,,,,36.0,,,,,0,note_on,,95.0,36.0,95.0,174240,181.5
4670,9.0,,,,,,44.0,,,,,480,note_off,,80.0,44.0,80.0,174720,182.0
4671,9.0,,,,,,41.0,,,,,0,note_off,,80.0,41.0,80.0,174720,182.0
4672,9.0,,,,,,36.0,,,,,0,note_off,,80.0,36.0,80.0,174720,182.0
4673,9.0,,,,,,44.0,,,,,0,note_on,,95.0,44.0,95.0,174720,182.0
4674,9.0,,,,,,41.0,,,,,0,note_on,,95.0,41.0,95.0,174720,182.0
4675,9.0,,,,,,36.0,,,,,0,note_on,,95.0,36.0,95.0,174720,182.0
4676,9.0,,,,,,44.0,,,,,480,note_off,,80.0,44.0,80.0,175200,182.5
4677,9.0,,,,,,41.0,,,,,0,note_off,,80.0,41.0,80.0,175200,182.5
4678,9.0,,,,,,36.0,,,,,0,note_off,,80.0,36.0,80.0,175200,182.5
4679,9.0,,,,,,44.0,,,,,0,note_on,,95.0,44.0,95.0,175200,182.5
4680,9.0,,,,,,41.0,,,,,0,note_on,,95.0,41.0,95.0,175200,182.5
4681,9.0,,,,,,36.0,,,,,0,note_on,,95.0,36.0,95.0,175200,182.5
4682,9.0,,,,,,44.0,,,,,480,note_off,,80.0,44.0,80.0,175680,183.0
4683,9.0,,,,,,41.0,,,,,0,note_off,,80.0,41.0,80.0,175680,183.0
4684,9.0,,,,,,36.0,,,,,0,note_off,,80.0,36.0,80.0,175680,183.0
4685,9.0,,,,,,44.0,,,,,0,note_on,,95.0,44.0,95.0,175680,183.0
4686,9.0,,,,,,41.0,,,,,0,note_on,,95.0,41.0,95.0,175680,183.0
4687,9.0,,,,,,36.0,,,,,0,note_on,,95.0,36.0,95.0,175680,183.0
4688,9.0,,,,,,44.0,,,,,480,note_off,,80.0,44.0,80.0,176160,183.5
4689,9.0,,,,,,41.0,,,,,0,note_off,,80.0,41.0,80.0,176160,183.5
4690,9.0,,,,,,36.0,,,,,0,note_off,,80.0,36.0,80.0,176160,183.5
4691,9.0,,,,,,44.0,,,,,0,note_on,,95.0,44.0,95.0,176160,183.5
4692,9.0,,,,,,41.0,,,,,0,note_on,,95.0,41.0,95.0,176160,183.5
4693,9.0,,,,,,36.0,,,,,0,note_on,,95.0,36.0,95.0,176160,183.5
4694,9.0,,,,,,44.0,,,,,480,note_off,,80.0,44.0,80.0,176640,184.0
4695,9.0,,,,,,41.0,,,,,0,note_off,,80.0,41.0,80.0,176640,184.0
4696,9.0,,,,,,36.0,,,,,0,note_off,,80.0,36.0,80.0,176640,184.0
4697,9.0,,,,,,44.0,,,,,0,note_on,,95.0,44.0,95.0,176640,184.0
4698,9.0,,,,,,41.0,,,,,0,note_on,,95.0,41.0,95.0,176640,184.0
4699,9.0,,,,,,36.0,,,,,0,note_on,,95.0,36.0,95.0,176640,184.0
4700,9.0,,,,,,44.0,,,,,480,note_off,,80.0,44.0,80.0,177120,184.5
4701,9.0,,,,,,41.0,,,,,0,note_off,,80.0,41.0,80.0,177120,184.5
4702,9.0,,,,,,36.0,,,,,0,note_off,,80.0,36.0,80.0,177120,184.5
4703,9.0,,,,,,44.0,,,,,0,note_on,,95.0,44.0,95.0,177120,184.5
4704,9.0,,,,,,41.0,,,,,0,note_on,,95.0,41.0,95.0,177120,184.5
4705,9.0,,,,,,36.0,,,,,0,note_on,,95.0,36.0,95.0,177120,184.5
4706,9.0,,,,,,44.0,,,,,480,note_off,,80.0,44.0,80.0,177600,185.0
4707,9.0,,,,,,41.0,,,,,0,note_off,,80.0,41.0,80.0,177600,185.0
4708,9.0,,,,,,36.0,,,,,0,note_off,,80.0,36.0,80.0,177600,185.0
4709,9.0,,,,,,44.0,,,,,0,note_on,,95.0,44.0,95.0,177600,185.0
4710,9.0,,,,,,41.0,,,,,0,note_on,,95.0,41.0,95.0,177600,185.0
4711,9.0,,,,,,36.0,,,,,0,note_on,,95.0,36.0,95.0,177600,185.0
4712,9.0,,,,,,44.0,,,,,480,note_off,,80.0,44.0,80.0,178080,185.5
4713,9.0,,,,,,41.0,,,,,0,note_off,,80.0,41.0,80.0,178080,185.5
4714,9.0,,,,,,36.0,,,,,0,note_off,,80.0,36.0,80.0,178080,185.5
4715,9.0,,,,,,44.0,,,,,0,note_on,,95.0,44.0,95.0,178080,185.5
4716,9.0,,,,,,41.0,,,,,0,note_on,,95.0,41.0,95.0,178080,185.5
4717,9.0,,,,,,36.0,,,,,0,note_on,,95.0,36.0,95.0,178080,185.5
4718,9.0,,,,,,44.0,,,,,480,note_off,,80.0,44.0,80.0,178560,186.0
4719,9.0,,,,,,41.0,,,,,0,note_off,,80.0,41.0,80.0,178560,186.0
4720,9.0,,,,,,36.0,,,,,0,note_off,,80.0,36.0,80.0,178560,186.0
4721,9.0,,,,,,44.0,,,,,0,note_on,,95.0,44.0,95.0,178560,186.0
4722,9.0,,,,,,41.0,,,,,0,note_on,,95.0,41.0,95.0,178560,186.0
4723,9.0,,,,,,36.0,,,,,0,note_on,,95.0,36.0,95.0,178560,186.0
4724,9.0,,,,,,44.0,,,,,480,note_off,,80.0,44.0,80.0,179040,186.5
4725,9.0,,,,,,41.0,,,,,0,note_off,,80.0,41.0,80.0,179040,186.5
4726,9.0,,,,,,36.0,,,,,0,note_off,,80.0,36.0,80.0,179040,186.5
4727,9.0,,,,,,44.0,,,,,0,note_on,,95.0,44.0,95.0,179040,186.5
4728,9.0,,,,,,41.0,,,,,0,note_on,,95.0,41.0,95.0,179040,186.5
4729,9.0,,,,,,36.0,,,,,0,note_on,,95.0,36.0,95.0,179040,186.5
4730,9.0,,,,,,44.0,,,,,480,note_off,,80.0,44.0,80.0,179520,187.0
4731,9.0,,,,,,41.0,,,,,0,note_off,,80.0,41.0,80.0,179520,187.0
4732,9.0,,,,,,36.0,,,,,0,note_off,,80.0,36.0,80.0,179520,187.0
4733,9.0,,,,,,44.0,,,,,0,note_on,,95.0,44.0,95.0,179520,187.0
4734,9.0,,,,,,41.0,,,,,0,note_on,,95.0,41.0,95.0,179520,187.0
4735,9.0,,,,,,36.0,,,,,0,note_on,,95.0,36.0,95.0,179520,187.0
4736,9.0,,,,,,44.0,,,,,480,note_off,,80.0,44.0,80.0,180000,187.5
4737,9.0,,,,,,41.0,,,,,0,note_off,,80.0,41.0,80.0,180000,187.5
4738,9.0,,,,,,36.0,,,,,0,note_off,,80.0,36.0,80.0,180000,187.5
4739,9.0,,,,,,44.0,,,,,0,note_on,,95.0,44.0,95.0,180000,187.5
4740,9.0,,,,,,41.0,,,,,0,note_on,,95.0,41.0,95.0,180000,187.5
4741,9.0,,,,,,36.0,,,,,0,note_on,,95.0,36.0,95.0,180000,187.5
4742,9.0,,,,,,44.0,,,,,480,note_off,,80.0,44.0,80.0,180480,188.0
4743,9.0,,,,,,41.0,,,,,0,note_off,,80.0,41.0,80.0,180480,188.0
4744,9.0,,,,,,36.0,,,,,0,note_off,,80.0,36.0,80.0,180480,188.0
4745,9.0,,,,,,44.0,,,,,0,note_on,,95.0,44.0,95.0,180480,188.0
4746,9.0,,,,,,36.0,,,,,0,note_on,,95.0,36.0,95.0,180480,188.0
4747,9.0,,,,,,44.0,,,,,480,note_off,,80.0,44.0,80.0,180960,188.5
4748,9.0,,,,,,36.0,,,,,0,note_off,,80.0,36.0,80.0,180960,188.5
4749,9.0,,,,,,44.0,,,,,0,note_on,,95.0,44.0,95.0,180960,188.5
4750,9.0,,,,,,38.0,,,,,0,note_on,,95.0,38.0,95.0,180960,188.5
4751,9.0,,,,,,44.0,,,,,480,note_off,,80.0,44.0,80.0,181440,189.0
4752,9.0,,,,,,38.0,,,,,0,note_off,,80.0,38.0,80.0,181440,189.0
4753,9.0,,,,,,44.0,,,,,0,note_on,,95.0,44.0,95.0,181440,189.0
4754,9.0,,,,,,36.0,,,,,0,note_on,,95.0,36.0,95.0,181440,189.0
4755,9.0,,,,,,44.0,,,,,480,note_off,,80.0,44.0,80.0,181920,189.5
4756,9.0,,,,,,36.0,,,,,0,note_off,,80.0,36.0,80.0,181920,189.5
4757,9.0,,,,,,44.0,,,,,0,note_on,,95.0,44.0,95.0,181920,189.5
4758,9.0,,,,,,38.0,,,,,0,note_on,,95.0,38.0,95.0,181920,189.5
4759,9.0,,,,,,44.0,,,,,480,note_off,,80.0,44.0,80.0,182400,190.0
4760,9.0,,,,,,38.0,,,,,0,note_off,,80.0,38.0,80.0,182400,190.0
4761,9.0,,,,,,44.0,,,,,0,note_on,,95.0,44.0,95.0,182400,190.0
4762,9.0,,,,,,36.0,,,,,0,note_on,,95.0,36.0,95.0,182400,190.0
4763,9.0,,,,,,44.0,,,,,480,note_off,,80.0,44.0,80.0,182880,190.5
4764,9.0,,,,,,36.0,,,,,0,note_off,,80.0,36.0,80.0,182880,190.5
4765,9.0,,,,,,44.0,,,,,0,note_on,,95.0,44.0,95.0,182880,190.5
4766,9.0,,,,,,38.0,,,,,0,note_on,,95.0,38.0,95.0,182880,190.5
4767,9.0,,,,,,44.0,,,,,480,note_off,,80.0,44.0,80.0,183360,191.0
4768,9.0,,,,,,38.0,,,,,0,note_off,,80.0,38.0,80.0,183360,191.0
4769,9.0,,,,,,44.0,,,,,0,note_on,,95.0,44.0,95.0,183360,191.0
4770,9.0,,,,,,36.0,,,,,0,note_on,,95.0,36.0,95.0,183360,191.0
4771,9.0,,,,,,44.0,,,,,480,note_off,,80.0,44.0,80.0,183840,191.5
4772,9.0,,,,,,36.0,,,,,0,note_off,,80.0,36.0,80.0,183840,191.5
4773,9.0,,,,,,44.0,,,,,0,note_on,,95.0,44.0,95.0,183840,191.5
4774,9.0,,,,,,38.0,,,,,0,note_on,,95.0,38.0,95.0,183840,191.5
4775,9.0,,,,,,44.0,,,,,480,note_off,,80.0,44.0,80.0,184320,192.0
4776,9.0,,,,,,38.0,,,,,0,note_off,,80.0,38.0,80.0,184320,192.0
4777,9.0,,,,,,44.0,,,,,0,note_on,,95.0,44.0,95.0,184320,192.0
4778,9.0,,,,,,36.0,,,,,0,note_on,,95.0,36.0,95.0,184320,192.0
4779,9.0,,,,,,44.0,,,,,480,note_off,,80.0,44.0,80.0,184800,192.5
4780,9.0,,,,,,36.0,,,,,0,note_off,,80.0,36.0,80.0,184800,192.5
4781,9.0,,,,,,44.0,,,,,0,note_on,,95.0,44.0,95.0,184800,192.5
4782,9.0,,,,,,38.0,,,,,0,note_on,,95.0,38.0,95.0,184800,192.5
4783,9.0,,,,,,44.0,,,,,480,note_off,,80.0,44.0,80.0,185280,193.0
4784,9.0,,,,,,38.0,,,,,0,note_off,,80.0,38.0,80.0,185280,193.0
4785,9.0,,,,,,44.0,,,,,0,note_on,,95.0,44.0,95.0,185280,193.0
4786,9.0,,,,,,36.0,,,,,0,note_on,,95.0,36.0,95.0,185280,193.0
4787,9.0,,,,,,44.0,,,,,480,note_off,,80.0,44.0,80.0,185760,193.5
4788,9.0,,,,,,36.0,,,,,0,note_off,,80.0,36.0,80.0,185760,193.5
4789,9.0,,,,,,44.0,,,,,0,note_on,,95.0,44.0,95.0,185760,193.5
4790,9.0,,,,,,38.0,,,,,0,note_on,,95.0,38.0,95.0,185760,193.5
4791,9.0,,,,,,44.0,,,,,480,note_off,,80.0,44.0,80.0,186240,194.0
4792,9.0,,,,,,38.0,,,,,0,note_off,,80.0,38.0,80.0,186240,194.0
4793,9.0,,,,,,44.0,,,,,0,note_on,,95.0,44.0,95.0,186240,194.0
4794,9.0,,,,,,36.0,,,,,0,note_on,,95.0,36.0,95.0,186240,194.0
4795,9.0,,,,,,44.0,,,,,480,note_off,,80.0,44.0,80.0,186720,194.5
4796,9.0,,,,,,36.0,,,,,0,note_off,,80.0,36.0,80.0,186720,194.5
4797,9.0,,,,,,44.0,,,,,0,note_on,,95.0,44.0,95.0,186720,194.5
4798,9.0,,,,,,38.0,,,,,0,note_on,,95.0,38.0,95.0,186720,194.5
4799,9.0,,,,,,44.0,,,,,480,note_off,,80.0,44.0,80.0,187200,195.0
4800,9.0,,,,,,38.0,,,,,0,note_off,,80.0,38.0,80.0,187200,195.0
4801,9.0,,,,,,44.0,,,,,0,note_on,,95.0,44.0,95.0,187200,195.0
4802,9.0,,,,,,36.0,,,,,0,note_on,,95.0,36.0,95.0,187200,195.0
4803,9.0,,,,,,44.0,,,,,480,note_off,,80.0,44.0,80.0,187680,195.5
4804,9.0,,,,,,36.0,,,,,0,note_off,,80.0,36.0,80.0,187680,195.5
4805,9.0,,,,,,44.0,,,,,0,note_on,,95.0,44.0,95.0,187680,195.5
4806,9.0,,,,,,38.0,,,,,0,note_on,,95.0,38.0,95.0,187680,195.5
4807,9.0,,,,,,44.0,,,,,480,note_off,,80.0,44.0,80.0,188160,196.0
4808,9.0,,,,,,38.0,,,,,0,note_off,,80.0,38.0,80.0,188160,196.0
4809,9.0,,,,,,44.0,,,,,0,note_on,,95.0,44.0,95.0,188160,196.0
4810,9.0,,,,,,36.0,,,,,0,note_on,,95.0,36.0,95.0,188160,196.0
4811,9.0,,,,,,44.0,,,,,480,note_off,,80.0,44.0,80.0,188640,196.5
4812,9.0,,,,,,36.0,,,,,0,note_off,,80.0,36.0,80.0,188640,196.5
4813,9.0,,,,,,44.0,,,,,0,note_on,,95.0,44.0,95.0,188640,196.5
4814,9.0,,,,,,38.0,,,,,0,note_on,,95.0,38.0,95.0,188640,196.5
4815,9.0,,,,,,44.0,,,,,480,note_off,,80.0,44.0,80.0,189120,197.0
4816,9.0,,,,,,38.0,,,,,0,note_off,,80.0,38.0,80.0,189120,197.0
4817,9.0,,,,,,44.0,,,,,0,note_on,,95.0,44.0,95.0,189120,197.0
4818,9.0,,,,,,36.0,,,,,0,note_on,,95.0,36.0,95.0,189120,197.0
4819,9.0,,,,,,44.0,,,,,480,note_off,,80.0,44.0,80.0,189600,197.5
4820,9.0,,,,,,36.0,,,,,0,note_off,,80.0,36.0,80.0,189600,197.5
4821,9.0,,,,,,44.0,,,,,0,note_on,,95.0,44.0,95.0,189600,197.5
4822,9.0,,,,,,38.0,,,,,0,note_on,,95.0,38.0,95.0,189600,197.5
4823,9.0,,,,,,44.0,,,,,480,note_off,,80.0,44.0,80.0,190080,198.0
4824,9.0,,,,,,38.0,,,,,0,note_off,,80.0,38.0,80.0,190080,198.0
4825,9.0,,,,,,44.0,,,,,0,note_on,,95.0,44.0,95.0,190080,198.0
4826,9.0,,,,,,36.0,,,,,0,note_on,,95.0,36.0,95.0,190080,198.0
4827,9.0,,,,,,44.0,,,,,480,note_off,,80.0,44.0,80.0,190560,198.5
4828,9.0,,,,,,36.0,,,,,0,note_off,,80.0,36.0,80.0,190560,198.5
4829,9.0,,,,,,44.0,,,,,0,note_on,,95.0,44.0,95.0,190560,198.5
4830,9.0,,,,,,38.0,,,,,0,note_on,,95.0,38.0,95.0,190560,198.5
4831,9.0,,,,,,44.0,,,,,480,note_off,,80.0,44.0,80.0,191040,199.0
4832,9.0,,,,,,38.0,,,,,0,note_off,,80.0,38.0,80.0,191040,199.0
4833,9.0,,,,,,44.0,,,,,0,note_on,,95.0,44.0,95.0,191040,199.0
4834,9.0,,,,,,36.0,,,,,0,note_on,,95.0,36.0,95.0,191040,199.0
4835,9.0,,,,,,44.0,,,,,480,note_off,,80.0,44.0,80.0,191520,199.5
4836,9.0,,,,,,36.0,,,,,0,note_off,,80.0,36.0,80.0,191520,199.5
4837,9.0,,,,,,44.0,,,,,0,note_on,,95.0,44.0,95.0,191520,199.5
4838,9.0,,,,,,38.0,,,,,0,note_on,,95.0,38.0,95.0,191520,199.5
4839,9.0,,,,,,44.0,,,,,480,note_off,,80.0,44.0,80.0,192000,200.0
4840,9.0,,,,,,38.0,,,,,0,note_off,,80.0,38.0,80.0,192000,200.0
4841,9.0,,,,,,44.0,,,,,0,note_on,,95.0,44.0,95.0,192000,200.0
4842,9.0,,,,,,36.0,,,,,0,note_on,,95.0,36.0,95.0,192000,200.0
4843,9.0,,,,,,44.0,,,,,480,note_off,,80.0,44.0,80.0,192480,200.5
4844,9.0,,,,,,36.0,,,,,0,note_off,,80.0,36.0,80.0,192480,200.5
4845,9.0,,,,,,44.0,,,,,0,note_on,,95.0,44.0,95.0,192480,200.5
4846,9.0,,,,,,38.0,,,,,0,note_on,,95.0,38.0,95.0,192480,200.5
4847,9.0,,,,,,44.0,,,,,480,note_off,,80.0,44.0,80.0,192960,201.0
4848,9.0,,,,,,38.0,,,,,0,note_off,,80.0,38.0,80.0,192960,201.0
4849,9.0,,,,,,44.0,,,,,0,note_on,,95.0,44.0,95.0,192960,201.0
4850,9.0,,,,,,36.0,,,,,0,note_on,,95.0,36.0,95.0,192960,201.0
4851,9.0,,,,,,44.0,,,,,480,note_off,,80.0,44.0,80.0,193440,201.5
4852,9.0,,,,,,36.0,,,,,0,note_off,,80.0,36.0,80.0,193440,201.5
4853,9.0,,,,,,44.0,,,,,0,note_on,,95.0,44.0,95.0,193440,201.5
4854,9.0,,,,,,38.0,,,,,0,note_on,,95.0,38.0,95.0,193440,201.5
4855,9.0,,,,,,44.0,,,,,480,note_off,,80.0,44.0,80.0,193920,202.0
4856,9.0,,,,,,38.0,,,,,0,note_off,,80.0,38.0,80.0,193920,202.0
4857,9.0,,,,,,44.0,,,,,0,note_on,,95.0,44.0,95.0,193920,202.0
4858,9.0,,,,,,36.0,,,,,0,note_on,,95.0,36.0,95.0,193920,202.0
4859,9.0,,,,,,44.0,,,,,480,note_off,,80.0,44.0,80.0,194400,202.5
4860,9.0,,,,,,36.0,,,,,0,note_off,,80.0,36.0,80.0,194400,202.5
4861,9.0,,,,,,44.0,,,,,0,note_on,,95.0,44.0,95.0,194400,202.5
4862,9.0,,,,,,38.0,,,,,0,note_on,,95.0,38.0,95.0,194400,202.5
4863,9.0,,,,,,44.0,,,,,480,note_off,,80.0,44.0,80.0,194880,203.0
4864,9.0,,,,,,38.0,,,,,0,note_off,,80.0,38.0,80.0,194880,203.0
4865,9.0,,,,,,44.0,,,,,0,note_on,,95.0,44.0,95.0,194880,203.0
4866,9.0,,,,,,36.0,,,,,0,note_on,,95.0,36.0,95.0,194880,203.0
4867,9.0,,,,,,44.0,,,,,480,note_off,,80.0,44.0,80.0,195360,203.5
4868,9.0,,,,,,36.0,,,,,0,note_off,,80.0,36.0,80.0,195360,203.5
4869,9.0,,,,,,44.0,,,,,0,note_on,,95.0,44.0,95.0,195360,203.5
4870,9.0,,,,,,38.0,,,,,0,note_on,,95.0,38.0,95.0,195360,203.5
4871,9.0,,,,,,44.0,,,,,480,note_off,,80.0,44.0,80.0,195840,204.0
4872,9.0,,,,,,38.0,,,,,0,note_off,,80.0,38.0,80.0,195840,204.0
4873,9.0,,,,,,57.0,,,,,0,note_on,,95.0,57.0,95.0,195840,204.0
4874,9.0,,,,,,36.0,,,,,0,note_on,,95.0,36.0,95.0,195840,204.0
4875,9.0,,,,,,57.0,,,,,480,note_off,,80.0,57.0,80.0,196320,204.5
4876,9.0,,,,,,36.0,,,,,0,note_off,,80.0,36.0,80.0,196320,204.5
4877,9.0,,,,,,42.0,,,,,0,note_on,,95.0,42.0,95.0,196320,204.5
4878,9.0,,,,,,42.0,,,,,480,note_off,,80.0,42.0,80.0,196800,205.0
4879,9.0,,,,,,42.0,,,,,0,note_on,,95.0,42.0,95.0,196800,205.0
4880,9.0,,,,,,42.0,,,,,480,note_off,,80.0,42.0,80.0,197280,205.5
4881,9.0,,,,,,42.0,,,,,0,note_on,,95.0,42.0,95.0,197280,205.5
4882,9.0,,,,,,42.0,,,,,480,note_off,,80.0,42.0,80.0,197760,206.0
4883,9.0,,,,,,57.0,,,,,0,note_on,,95.0,57.0,95.0,197760,206.0
4884,9.0,,,,,,36.0,,,,,0,note_on,,95.0,36.0,95.0,197760,206.0
4885,9.0,,,,,,57.0,,,,,480,note_off,,80.0,57.0,80.0,198240,206.5
4886,9.0,,,,,,36.0,,,,,0,note_off,,80.0,36.0,80.0,198240,206.5
4887,9.0,,,,,,42.0,,,,,0,note_on,,95.0,42.0,95.0,198240,206.5
4888,9.0,,,,,,42.0,,,,,480,note_off,,80.0,42.0,80.0,198720,207.0
4889,9.0,,,,,,42.0,,,,,0,note_on,,95.0,42.0,95.0,198720,207.0
4890,9.0,,,,,,42.0,,,,,480,note_off,,80.0,42.0,80.0,199200,207.5
4891,9.0,,,,,,42.0,,,,,0,note_on,,95.0,42.0,95.0,199200,207.5
4892,9.0,,,,,,42.0,,,,,480,note_off,,80.0,42.0,80.0,199680,208.0
4893,9.0,,,,,,57.0,,,,,0,note_on,,95.0,57.0,95.0,199680,208.0
4894,9.0,,,,,,36.0,,,,,0,note_on,,95.0,36.0,95.0,199680,208.0
4895,9.0,,,,,,57.0,,,,,480,note_off,,80.0,57.0,80.0,200160,208.5
4896,9.0,,,,,,36.0,,,,,0,note_off,,80.0,36.0,80.0,200160,208.5
4897,9.0,,,,,,57.0,,,,,0,note_on,,95.0,57.0,95.0,200160,208.5
4898,9.0,,,,,,38.0,,,,,0,note_on,,95.0,38.0,95.0,200160,208.5
4899,9.0,,,,,,57.0,,,,,480,note_off,,80.0,57.0,80.0,200640,209.0
4900,9.0,,,,,,38.0,,,,,0,note_off,,80.0,38.0,80.0,200640,209.0
4901,9.0,,,,,,57.0,,,,,0,note_on,,95.0,57.0,95.0,200640,209.0
4902,9.0,,,,,,36.0,,,,,0,note_on,,95.0,36.0,95.0,200640,209.0
4903,9.0,,,,,,57.0,,,,,480,note_off,,80.0,57.0,80.0,201120,209.5
4904,9.0,,,,,,36.0,,,,,0,note_off,,80.0,36.0,80.0,201120,209.5
4905,9.0,,,,,,57.0,,,,,0,note_on,,95.0,57.0,95.0,201120,209.5
4906,9.0,,,,,,38.0,,,,,0,note_on,,95.0,38.0,95.0,201120,209.5
4907,9.0,,,,,,57.0,,,,,480,note_off,,80.0,57.0,80.0,201600,210.0
4908,9.0,,,,,,38.0,,,,,0,note_off,,80.0,38.0,80.0,201600,210.0
4909,9.0,,,,,,57.0,,,,,0,note_on,,95.0,57.0,95.0,201600,210.0
4910,9.0,,,,,,36.0,,,,,0,note_on,,95.0,36.0,95.0,201600,210.0
4911,9.0,,,,,,57.0,,,,,480,note_off,,80.0,57.0,80.0,202080,210.5
4912,9.0,,,,,,36.0,,,,,0,note_off,,80.0,36.0,80.0,202080,210.5
4913,9.0,,,,,,57.0,,,,,0,note_on,,95.0,57.0,95.0,202080,210.5
4914,9.0,,,,,,38.0,,,,,0,note_on,,95.0,38.0,95.0,202080,210.5
4915,9.0,,,,,,57.0,,,,,480,note_off,,80.0,57.0,80.0,202560,211.0
4916,9.0,,,,,,38.0,,,,,0,note_off,,80.0,38.0,80.0,202560,211.0
4917,9.0,,,,,,57.0,,,,,0,note_on,,95.0,57.0,95.0,202560,211.0
4918,9.0,,,,,,36.0,,,,,0,note_on,,95.0,36.0,95.0,202560,211.0
4919,9.0,,,,,,57.0,,,,,480,note_off,,80.0,57.0,80.0,203040,211.5
4920,9.0,,,,,,36.0,,,,,0,note_off,,80.0,36.0,80.0,203040,211.5
4921,9.0,,,,,,57.0,,,,,0,note_on,,95.0,57.0,95.0,203040,211.5
4922,9.0,,,,,,38.0,,,,,0,note_on,,95.0,38.0,95.0,203040,211.5
4923,9.0,,,,,,57.0,,,,,480,note_off,,80.0,57.0,80.0,203520,212.0
4924,9.0,,,,,,38.0,,,,,0,note_off,,80.0,38.0,80.0,203520,212.0
4925,9.0,,,,,,57.0,,,,,0,note_on,,95.0,57.0,95.0,203520,212.0
4926,9.0,,,,,,36.0,,,,,0,note_on,,95.0,36.0,95.0,203520,212.0
4927,9.0,,,,,,57.0,,,,,480,note_off,,80.0,57.0,80.0,204000,212.5
4928,9.0,,,,,,36.0,,,,,0,note_off,,80.0,36.0,80.0,204000,212.5
4929,9.0,,,,,,57.0,,,,,0,note_on,,95.0,57.0,95.0,204000,212.5
4930,9.0,,,,,,38.0,,,,,0,note_on,,95.0,38.0,95.0,204000,212.5
4931,9.0,,,,,,38.0,,,,,240,note_off,,80.0,38.0,80.0,204240,212.75
4932,9.0,,,,,,36.0,,,,,0,note_on,,95.0,36.0,95.0,204240,212.75
4933,9.0,,,,,,57.0,,,,,240,note_off,,80.0,57.0,80.0,204480,213.0
4934,9.0,,,,,,36.0,,,,,0,note_off,,80.0,36.0,80.0,204480,213.0
4935,9.0,,,,,,57.0,,,,,0,note_on,,95.0,57.0,95.0,204480,213.0
4936,9.0,,,,,,36.0,,,,,0,note_on,,95.0,36.0,95.0,204480,213.0
4937,9.0,,,,,,57.0,,,,,480,note_off,,80.0,57.0,80.0,204960,213.5
4938,9.0,,,,,,36.0,,,,,0,note_off,,80.0,36.0,80.0,204960,213.5
4939,9.0,,,,,,57.0,,,,,0,note_on,,95.0,57.0,95.0,204960,213.5
4940,9.0,,,,,,36.0,,,,,0,note_on,,95.0,36.0,95.0,204960,213.5
4941,9.0,,,,,,36.0,,,,,240,note_off,,80.0,36.0,80.0,205200,213.75
4942,9.0,,,,,,38.0,,,,,0,note_on,,95.0,38.0,95.0,205200,213.75
4943,9.0,,,,,,57.0,,,,,240,note_off,,80.0,57.0,80.0,205440,214.0
4944,9.0,,,,,,38.0,,,,,0,note_off,,80.0,38.0,80.0,205440,214.0
4945,9.0,,,,,,57.0,,,,,0,note_on,,95.0,57.0,95.0,205440,214.0
4946,9.0,,,,,,36.0,,,,,0,note_on,,95.0,36.0,95.0,205440,214.0
4947,9.0,,,,,,57.0,,,,,480,note_off,,80.0,57.0,80.0,205920,214.5
4948,9.0,,,,,,36.0,,,,,0,note_off,,80.0,36.0,80.0,205920,214.5
4949,9.0,,,,,,57.0,,,,,0,note_on,,95.0,57.0,95.0,205920,214.5
4950,9.0,,,,,,38.0,,,,,0,note_on,,95.0,38.0,95.0,205920,214.5
4951,9.0,,,,,,57.0,,,,,480,note_off,,80.0,57.0,80.0,206400,215.0
4952,9.0,,,,,,38.0,,,,,0,note_off,,80.0,38.0,80.0,206400,215.0
4953,9.0,,,,,,57.0,,,,,0,note_on,,95.0,57.0,95.0,206400,215.0
4954,9.0,,,,,,36.0,,,,,0,note_on,,95.0,36.0,95.0,206400,215.0
4955,9.0,,,,,,57.0,,,,,480,note_off,,80.0,57.0,80.0,206880,215.5
4956,9.0,,,,,,36.0,,,,,0,note_off,,80.0,36.0,80.0,206880,215.5
4957,9.0,,,,,,57.0,,,,,0,note_on,,95.0,57.0,95.0,206880,215.5
4958,9.0,,,,,,38.0,,,,,0,note_on,,95.0,38.0,95.0,206880,215.5
4959,9.0,,,,,,57.0,,,,,480,note_off,,80.0,57.0,80.0,207360,216.0
4960,9.0,,,,,,38.0,,,,,0,note_off,,80.0,38.0,80.0,207360,216.0
4961,9.0,,,,,,57.0,,,,,0,note_on,,95.0,57.0,95.0,207360,216.0
4962,9.0,,,,,,36.0,,,,,0,note_on,,95.0,36.0,95.0,207360,216.0
4963,9.0,,,,,,57.0,,,,,480,note_off,,80.0,57.0,80.0,207840,216.5
4964,9.0,,,,,,36.0,,,,,0,note_off,,80.0,36.0,80.0,207840,216.5
4965,9.0,,,,,,57.0,,,,,0,note_on,,95.0,57.0,95.0,207840,216.5
4966,9.0,,,,,,38.0,,,,,0,note_on,,95.0,38.0,95.0,207840,216.5
4967,9.0,,,,,,57.0,,,,,480,note_off,,80.0,57.0,80.0,208320,217.0
4968,9.0,,,,,,38.0,,,,,0,note_off,,80.0,38.0,80.0,208320,217.0
4969,9.0,,,,,,57.0,,,,,0,note_on,,95.0,57.0,95.0,208320,217.0
4970,9.0,,,,,,36.0,,,,,0,note_on,,95.0,36.0,95.0,208320,217.0
4971,9.0,,,,,,57.0,,,,,480,note_off,,80.0,57.0,80.0,208800,217.5
4972,9.0,,,,,,36.0,,,,,0,note_off,,80.0,36.0,80.0,208800,217.5
4973,9.0,,,,,,57.0,,,,,0,note_on,,95.0,57.0,95.0,208800,217.5
4974,9.0,,,,,,38.0,,,,,0,note_on,,95.0,38.0,95.0,208800,217.5
4975,9.0,,,,,,57.0,,,,,480,note_off,,80.0,57.0,80.0,209280,218.0
4976,9.0,,,,,,38.0,,,,,0,note_off,,80.0,38.0,80.0,209280,218.0
4977,9.0,,,,,,57.0,,,,,0,note_on,,95.0,57.0,95.0,209280,218.0
4978,9.0,,,,,,36.0,,,,,0,note_on,,95.0,36.0,95.0,209280,218.0
4979,9.0,,,,,,57.0,,,,,480,note_off,,80.0,57.0,80.0,209760,218.5
4980,9.0,,,,,,36.0,,,,,0,note_off,,80.0,36.0,80.0,209760,218.5
4981,9.0,,,,,,57.0,,,,,0,note_on,,95.0,57.0,95.0,209760,218.5
4982,9.0,,,,,,38.0,,,,,0,note_on,,95.0,38.0,95.0,209760,218.5
4983,9.0,,,,,,57.0,,,,,480,note_off,,80.0,57.0,80.0,210240,219.0
4984,9.0,,,,,,38.0,,,,,0,note_off,,80.0,38.0,80.0,210240,219.0
4985,9.0,,,,,,57.0,,,,,0,note_on,,95.0,57.0,95.0,210240,219.0
4986,9.0,,,,,,36.0,,,,,0,note_on,,95.0,36.0,95.0,210240,219.0
4987,9.0,,,,,,57.0,,,,,480,note_off,,80.0,57.0,80.0,210720,219.5
4988,9.0,,,,,,36.0,,,,,0,note_off,,80.0,36.0,80.0,210720,219.5
4989,9.0,,,,,,57.0,,,,,0,note_on,,95.0,57.0,95.0,210720,219.5
4990,9.0,,,,,,38.0,,,,,0,note_on,,95.0,38.0,95.0,210720,219.5
4991,9.0,,,,,,57.0,,,,,480,note_off,,80.0,57.0,80.0,211200,220.0
4992,9.0,,,,,,38.0,,,,,0,note_off,,80.0,38.0,80.0,211200,220.0
4993,9.0,,,,,,57.0,,,,,0,note_on,,95.0,57.0,95.0,211200,220.0
4994,9.0,,,,,,36.0,,,,,0,note_on,,95.0,36.0,95.0,211200,220.0
4995,9.0,,,,,,57.0,,,,,480,note_off,,80.0,57.0,80.0,211680,220.5
4996,9.0,,,,,,36.0,,,,,0,note_off,,80.0,36.0,80.0,211680,220.5
4997,9.0,,,,,,57.0,,,,,0,note_on,,95.0,57.0,95.0,211680,220.5
4998,9.0,,,,,,38.0,,,,,0,note_on,,95.0,38.0,95.0,211680,220.5
4999,9.0,,,,,,38.0,,,,,240,note_off,,80.0,38.0,80.0,211920,220.75
5000,9.0,,,,,,36.0,,,,,0,note_on,,95.0,36.0,95.0,211920,220.75
5001,9.0,,,,,,57.0,,,,,240,note_off,,80.0,57.0,80.0,212160,221.0
5002,9.0,,,,,,36.0,,,,,0,note_off,,80.0,36.0,80.0,212160,221.0
5003,9.0,,,,,,57.0,,,,,0,note_on,,95.0,57.0,95.0,212160,221.0
5004,9.0,,,,,,36.0,,,,,0,note_on,,95.0,36.0,95.0,212160,221.0
5005,9.0,,,,,,57.0,,,,,480,note_off,,80.0,57.0,80.0,212640,221.5
5006,9.0,,,,,,36.0,,,,,0,note_off,,80.0,36.0,80.0,212640,221.5
5007,9.0,,,,,,57.0,,,,,0,note_on,,95.0,57.0,95.0,212640,221.5
5008,9.0,,,,,,36.0,,,,,0,note_on,,95.0,36.0,95.0,212640,221.5
5009,9.0,,,,,,36.0,,,,,240,note_off,,80.0,36.0,80.0,212880,221.75
5010,9.0,,,,,,38.0,,,,,0,note_on,,95.0,38.0,95.0,212880,221.75
5011,9.0,,,,,,57.0,,,,,240,note_off,,80.0,57.0,80.0,213120,222.0
5012,9.0,,,,,,38.0,,,,,0,note_off,,80.0,38.0,80.0,213120,222.0
5013,9.0,,,,,,57.0,,,,,0,note_on,,95.0,57.0,95.0,213120,222.0
5014,9.0,,,,,,36.0,,,,,0,note_on,,95.0,36.0,95.0,213120,222.0
5015,9.0,,,,,,57.0,,,,,480,note_off,,80.0,57.0,80.0,213600,222.5
5016,9.0,,,,,,36.0,,,,,0,note_off,,80.0,36.0,80.0,213600,222.5
5017,9.0,,,,,,57.0,,,,,0,note_on,,95.0,57.0,95.0,213600,222.5
5018,9.0,,,,,,38.0,,,,,0,note_on,,95.0,38.0,95.0,213600,222.5
5019,9.0,,,,,,57.0,,,,,480,note_off,,80.0,57.0,80.0,214080,223.0
5020,9.0,,,,,,38.0,,,,,0,note_off,,80.0,38.0,80.0,214080,223.0
5021,9.0,,,,,,57.0,,,,,0,note_on,,95.0,57.0,95.0,214080,223.0
5022,9.0,,,,,,36.0,,,,,0,note_on,,95.0,36.0,95.0,214080,223.0
5023,9.0,,,,,,57.0,,,,,480,note_off,,80.0,57.0,80.0,214560,223.5
5024,9.0,,,,,,36.0,,,,,0,note_off,,80.0,36.0,80.0,214560,223.5
5025,9.0,,,,,,57.0,,,,,0,note_on,,95.0,57.0,95.0,214560,223.5
5026,9.0,,,,,,38.0,,,,,0,note_on,,95.0,38.0,95.0,214560,223.5
5027,9.0,,,,,,57.0,,,,,480,note_off,,80.0,57.0,80.0,215040,224.0
5028,9.0,,,,,,38.0,,,,,0,note_off,,80.0,38.0,80.0,215040,224.0
5029,9.0,,,,,,57.0,,,,,0,note_on,,95.0,57.0,95.0,215040,224.0
5030,9.0,,,,,,36.0,,,,,0,note_on,,95.0,36.0,95.0,215040,224.0
5031,9.0,,,,,,57.0,,,,,1920,note_off,,80.0,57.0,80.0,216960,226.0
5032,9.0,,,,,,36.0,,,,,0,note_off,,80.0,36.0,80.0,216960,226.0
5033,,,,,,,,,,,,0,end_of_track,,,,,3,0.003125
