,channel,clocks_per_click,control,denominator,notated_32nd_notes_per_beat,note,numerator,pitch,program,tempo,time,type,value,velocity,note_midi_value,note_velocity,note_time,note_seconds
0,0.0,,101.0,,,,,,,,0,control_change,0.0,,,,0,0.0
1,0.0,,100.0,,,,,,,,0,control_change,0.0,,,,0,0.0
2,0.0,,6.0,,,,,,,,0,control_change,12.0,,,,0,0.0
3,0.0,,38.0,,,,,,,,0,control_change,0.0,,,,0,0.0
4,1.0,,101.0,,,,,,,,0,control_change,0.0,,,,0,0.0
5,1.0,,100.0,,,,,,,,0,control_change,0.0,,,,0,0.0
6,1.0,,6.0,,,,,,,,0,control_change,12.0,,,,0,0.0
7,1.0,,38.0,,,,,,,,0,control_change,0.0,,,,0,0.0
8,2.0,,101.0,,,,,,,,0,control_change,0.0,,,,0,0.0
9,2.0,,100.0,,,,,,,,0,control_change,0.0,,,,0,0.0
10,2.0,,6.0,,,,,,,,0,control_change,12.0,,,,0,0.0
11,2.0,,38.0,,,,,,,,0,control_change,0.0,,,,0,0.0
12,3.0,,101.0,,,,,,,,0,control_change,0.0,,,,0,0.0
13,3.0,,100.0,,,,,,,,0,control_change,0.0,,,,0,0.0
14,3.0,,6.0,,,,,,,,0,control_change,12.0,,,,0,0.0
15,3.0,,38.0,,,,,,,,0,control_change,0.0,,,,0,0.0
16,4.0,,101.0,,,,,,,,0,control_change,0.0,,,,0,0.0
17,4.0,,100.0,,,,,,,,0,control_change,0.0,,,,0,0.0
18,4.0,,6.0,,,,,,,,0,control_change,12.0,,,,0,0.0
19,4.0,,38.0,,,,,,,,0,control_change,0.0,,,,0,0.0
20,5.0,,101.0,,,,,,,,0,control_change,0.0,,,,0,0.0
21,5.0,,100.0,,,,,,,,0,control_change,0.0,,,,0,0.0
22,5.0,,6.0,,,,,,,,0,control_change,12.0,,,,0,0.0
23,5.0,,38.0,,,,,,,,0,control_change,0.0,,,,0,0.0
24,6.0,,101.0,,,,,,,,0,control_change,0.0,,,,0,0.0
25,6.0,,100.0,,,,,,,,0,control_change,0.0,,,,0,0.0
26,6.0,,6.0,,,,,,,,0,control_change,12.0,,,,0,0.0
27,6.0,,38.0,,,,,,,,0,control_change,0.0,,,,0,0.0
28,7.0,,101.0,,,,,,,,0,control_change,0.0,,,,0,0.0
29,7.0,,100.0,,,,,,,,0,control_change,0.0,,,,0,0.0
30,7.0,,6.0,,,,,,,,0,control_change,12.0,,,,0,0.0
31,7.0,,38.0,,,,,,,,0,control_change,0.0,,,,0,0.0
32,8.0,,101.0,,,,,,,,0,control_change,0.0,,,,0,0.0
33,8.0,,100.0,,,,,,,,0,control_change,0.0,,,,0,0.0
34,8.0,,6.0,,,,,,,,0,control_change,12.0,,,,0,0.0
35,8.0,,38.0,,,,,,,,0,control_change,0.0,,,,0,0.0
36,9.0,,101.0,,,,,,,,0,control_change,0.0,,,,0,0.0
37,9.0,,100.0,,,,,,,,0,control_change,0.0,,,,0,0.0
38,9.0,,6.0,,,,,,,,0,control_change,12.0,,,,0,0.0
39,9.0,,38.0,,,,,,,,0,control_change,0.0,,,,0,0.0
40,10.0,,101.0,,,,,,,,0,control_change,0.0,,,,0,0.0
41,10.0,,100.0,,,,,,,,0,control_change,0.0,,,,0,0.0
42,10.0,,6.0,,,,,,,,0,control_change,12.0,,,,0,0.0
43,10.0,,38.0,,,,,,,,0,control_change,0.0,,,,0,0.0
44,11.0,,101.0,,,,,,,,0,control_change,0.0,,,,0,0.0
45,11.0,,100.0,,,,,,,,0,control_change,0.0,,,,0,0.0
46,11.0,,6.0,,,,,,,,0,control_change,12.0,,,,0,0.0
47,11.0,,38.0,,,,,,,,0,control_change,0.0,,,,0,0.0
48,12.0,,101.0,,,,,,,,0,control_change,0.0,,,,0,0.0
49,12.0,,100.0,,,,,,,,0,control_change,0.0,,,,0,0.0
50,12.0,,6.0,,,,,,,,0,control_change,12.0,,,,0,0.0
51,12.0,,38.0,,,,,,,,0,control_change,0.0,,,,0,0.0
52,13.0,,101.0,,,,,,,,0,control_change,0.0,,,,0,0.0
53,13.0,,100.0,,,,,,,,0,control_change,0.0,,,,0,0.0
54,13.0,,6.0,,,,,,,,0,control_change,12.0,,,,0,0.0
55,13.0,,38.0,,,,,,,,0,control_change,0.0,,,,0,0.0
56,14.0,,101.0,,,,,,,,0,control_change,0.0,,,,0,0.0
57,14.0,,100.0,,,,,,,,0,control_change,0.0,,,,0,0.0
58,14.0,,6.0,,,,,,,,0,control_change,12.0,,,,0,0.0
59,14.0,,38.0,,,,,,,,0,control_change,0.0,,,,0,0.0
60,15.0,,101.0,,,,,,,,0,control_change,0.0,,,,0,0.0
61,15.0,,100.0,,,,,,,,0,control_change,0.0,,,,0,0.0
62,15.0,,6.0,,,,,,,,0,control_change,12.0,,,,0,0.0
63,15.0,,38.0,,,,,,,,0,control_change,0.0,,,,0,0.0
64,,24.0,,4.0,8.0,,4.0,,,,0,time_signature,,,,,4616189618054758400,2404265426070186.5
65,,,,,,,,,,540540.0,0,set_tempo,,,,,9221120237041090560,4802666790125568.0
66,,,,,,,,,,,0,end_of_track,,,,,9221120237041090560,4802666790125568.0
67,0.0,,,,,,,0.0,,,0,pitchwheel,,,,,0,0.0
68,0.0,,7.0,,,,,,,,0,control_change,103.0,,,,0,0.0
69,0.0,,10.0,,,,,,,,0,control_change,23.0,,,,0,0.0
70,0.0,,93.0,,,,,,,,0,control_change,0.0,,,,0,0.0
71,0.0,,91.0,,,,,,,,0,control_change,0.0,,,,0,0.0
72,0.0,,95.0,,,,,,,,0,control_change,0.0,,,,0,0.0
73,0.0,,92.0,,,,,,,,0,control_change,0.0,,,,0,0.0
74,0.0,,11.0,,,,,,,,0,control_change,127.0,,,,0,0.0
75,0.0,,,,,,,,30.0,,0,program_change,,,,,0,0.0
76,1.0,,7.0,,,,,,,,0,control_change,103.0,,,,0,0.0
77,1.0,,10.0,,,,,,,,0,control_change,23.0,,,,0,0.0
78,1.0,,93.0,,,,,,,,0,control_change,0.0,,,,0,0.0
79,1.0,,91.0,,,,,,,,0,control_change,0.0,,,,0,0.0
80,1.0,,95.0,,,,,,,,0,control_change,0.0,,,,0,0.0
81,1.0,,92.0,,,,,,,,0,control_change,0.0,,,,0,0.0
82,1.0,,11.0,,,,,,,,0,control_change,127.0,,,,0,0.0
83,1.0,,,,,,,,30.0,,0,program_change,,,,,0,0.0
84,0.0,,,,,39.0,,,,,0,note_on,,95.0,39.0,95.0,0,0.0
85,0.0,,,,,39.0,,,,,240,note_off,,95.0,39.0,95.0,240,0.125
86,0.0,,,,,39.0,,,,,0,note_on,,95.0,39.0,95.0,240,0.125
87,0.0,,,,,39.0,,,,,240,note_off,,95.0,39.0,95.0,480,0.25
88,0.0,,,,,39.0,,,,,240,note_on,,95.0,39.0,95.0,720,0.375
89,1.0,,,,,49.0,,,,,180,note_on,,95.0,49.0,95.0,180,0.09375
90,0.0,,,,,39.0,,,,,60,note_off,,95.0,39.0,95.0,780,0.40625
91,1.0,,,,,49.0,,,,,0,note_off,,95.0,49.0,95.0,180,0.09375
92,1.0,,,,,51.0,,,,,0,note_on,,95.0,51.0,95.0,180,0.09375
93,0.0,,,,,39.0,,,,,0,note_on,,95.0,39.0,95.0,780,0.40625
94,1.0,,,,,51.0,,,,,480,note_off,,95.0,51.0,95.0,660,0.34375
95,0.0,,,,,39.0,,,,,0,note_off,,95.0,39.0,95.0,780,0.40625
96,0.0,,,,,39.0,,,,,0,note_on,,95.0,39.0,95.0,780,0.40625
97,0.0,,,,,39.0,,,,,240,note_off,,95.0,39.0,95.0,1020,0.53125
98,0.0,,,,,39.0,,,,,0,note_on,,95.0,39.0,95.0,1020,0.53125
99,0.0,,,,,39.0,,,,,240,note_off,,95.0,39.0,95.0,1260,0.65625
100,0.0,,,,,39.0,,,,,240,note_on,,95.0,39.0,95.0,1500,0.78125
101,0.0,,,,,39.0,,,,,240,note_off,,95.0,39.0,95.0,1740,0.90625
102,0.0,,,,,59.0,,,,,0,note_on,,95.0,59.0,95.0,1740,0.90625
103,0.0,,,,,52.0,,,,,0,note_on,,95.0,52.0,95.0,1740,0.90625
104,0.0,,,,,59.0,,,,,480,note_off,,95.0,59.0,95.0,2220,1.15625
105,0.0,,,,,52.0,,,,,0,note_off,,95.0,52.0,95.0,2220,1.15625
106,0.0,,,,,39.0,,,,,0,note_on,,95.0,39.0,95.0,2220,1.15625
107,0.0,,,,,39.0,,,,,240,note_off,,95.0,39.0,95.0,2460,1.28125
108,0.0,,,,,39.0,,,,,0,note_on,,95.0,39.0,95.0,2460,1.28125
109,0.0,,,,,39.0,,,,,240,note_off,,95.0,39.0,95.0,2700,1.40625
110,0.0,,,,,57.0,,,,,0,note_on,,95.0,57.0,95.0,2700,1.40625
111,0.0,,,,,50.0,,,,,0,note_on,,95.0,50.0,95.0,2700,1.40625
112,0.0,,,,,57.0,,,,,480,note_off,,95.0,57.0,95.0,3180,1.65625
113,0.0,,,,,50.0,,,,,0,note_off,,95.0,50.0,95.0,3180,1.65625
114,0.0,,,,,39.0,,,,,0,note_on,,95.0,39.0,95.0,3180,1.65625
115,0.0,,,,,39.0,,,,,240,note_off,,95.0,39.0,95.0,3420,1.78125
116,0.0,,,,,39.0,,,,,0,note_on,,95.0,39.0,95.0,3420,1.78125
117,0.0,,,,,39.0,,,,,240,note_off,,95.0,39.0,95.0,3660,1.90625
118,0.0,,,,,39.0,,,,,240,note_on,,95.0,39.0,95.0,3900,2.03125
119,1.0,,,,,49.0,,,,,180,note_on,,95.0,49.0,95.0,840,0.4375
120,0.0,,,,,39.0,,,,,60,note_off,,95.0,39.0,95.0,3960,2.0625
121,1.0,,,,,49.0,,,,,0,note_off,,95.0,49.0,95.0,840,0.4375
122,1.0,,,,,51.0,,,,,0,note_on,,95.0,51.0,95.0,840,0.4375
123,0.0,,,,,39.0,,,,,0,note_on,,95.0,39.0,95.0,3960,2.0625
124,1.0,,,,,51.0,,,,,480,note_off,,95.0,51.0,95.0,1320,0.6875
125,0.0,,,,,39.0,,,,,0,note_off,,95.0,39.0,95.0,3960,2.0625
126,0.0,,,,,39.0,,,,,0,note_on,,95.0,39.0,95.0,3960,2.0625
127,0.0,,,,,39.0,,,,,240,note_off,,95.0,39.0,95.0,4200,2.1875
128,0.0,,,,,39.0,,,,,0,note_on,,95.0,39.0,95.0,4200,2.1875
129,0.0,,,,,39.0,,,,,240,note_off,,95.0,39.0,95.0,4440,2.3125
130,0.0,,,,,39.0,,,,,240,note_on,,95.0,39.0,95.0,4680,2.4375
131,0.0,,,,,39.0,,,,,240,note_off,,95.0,39.0,95.0,4920,2.5625
132,0.0,,,,,61.0,,,,,0,note_on,,95.0,61.0,95.0,4920,2.5625
133,0.0,,,,,54.0,,,,,0,note_on,,95.0,54.0,95.0,4920,2.5625
134,0.0,,,,,61.0,,,,,480,note_off,,95.0,61.0,95.0,5400,2.8125
135,0.0,,,,,54.0,,,,,0,note_off,,95.0,54.0,95.0,5400,2.8125
136,0.0,,,,,39.0,,,,,0,note_on,,95.0,39.0,95.0,5400,2.8125
137,0.0,,,,,39.0,,,,,240,note_off,,95.0,39.0,95.0,5640,2.9375
138,0.0,,,,,39.0,,,,,0,note_on,,95.0,39.0,95.0,5640,2.9375
139,0.0,,,,,39.0,,,,,240,note_off,,95.0,39.0,95.0,5880,3.0625
140,0.0,,,,,60.0,,,,,0,note_on,,95.0,60.0,95.0,5880,3.0625
141,0.0,,,,,53.0,,,,,0,note_on,,95.0,53.0,95.0,5880,3.0625
142,0.0,,,,,60.0,,,,,480,note_off,,95.0,60.0,95.0,6360,3.3125
143,0.0,,,,,53.0,,,,,0,note_off,,95.0,53.0,95.0,6360,3.3125
144,0.0,,,,,39.0,,,,,0,note_on,,95.0,39.0,95.0,6360,3.3125
145,0.0,,,,,39.0,,,,,240,note_off,,95.0,39.0,95.0,6600,3.4375
146,0.0,,,,,39.0,,,,,0,note_on,,95.0,39.0,95.0,6600,3.4375
147,0.0,,,,,39.0,,,,,240,note_off,,95.0,39.0,95.0,6840,3.5625
148,0.0,,,,,39.0,,,,,240,note_on,,95.0,39.0,95.0,7080,3.6875
149,1.0,,,,,49.0,,,,,180,note_on,,95.0,49.0,95.0,1500,0.78125
150,0.0,,,,,39.0,,,,,60,note_off,,95.0,39.0,95.0,7140,3.71875
151,1.0,,,,,49.0,,,,,0,note_off,,95.0,49.0,95.0,1500,0.78125
152,1.0,,,,,51.0,,,,,0,note_on,,95.0,51.0,95.0,1500,0.78125
153,0.0,,,,,39.0,,,,,0,note_on,,95.0,39.0,95.0,7140,3.71875
154,1.0,,,,,51.0,,,,,480,note_off,,95.0,51.0,95.0,1980,1.03125
155,0.0,,,,,39.0,,,,,0,note_off,,95.0,39.0,95.0,7140,3.71875
156,0.0,,,,,39.0,,,,,0,note_on,,95.0,39.0,95.0,7140,3.71875
157,0.0,,,,,39.0,,,,,240,note_off,,95.0,39.0,95.0,7380,3.84375
158,0.0,,,,,39.0,,,,,0,note_on,,95.0,39.0,95.0,7380,3.84375
159,0.0,,,,,39.0,,,,,240,note_off,,95.0,39.0,95.0,7620,3.96875
160,0.0,,,,,39.0,,,,,240,note_on,,95.0,39.0,95.0,7860,4.09375
161,0.0,,,,,39.0,,,,,240,note_off,,95.0,39.0,95.0,8100,4.21875
162,0.0,,,,,59.0,,,,,0,note_on,,95.0,59.0,95.0,8100,4.21875
163,0.0,,,,,52.0,,,,,0,note_on,,95.0,52.0,95.0,8100,4.21875
164,0.0,,,,,59.0,,,,,480,note_off,,95.0,59.0,95.0,8580,4.46875
165,0.0,,,,,52.0,,,,,0,note_off,,95.0,52.0,95.0,8580,4.46875
166,0.0,,,,,39.0,,,,,0,note_on,,95.0,39.0,95.0,8580,4.46875
167,0.0,,,,,39.0,,,,,240,note_off,,95.0,39.0,95.0,8820,4.59375
168,0.0,,,,,39.0,,,,,0,note_on,,95.0,39.0,95.0,8820,4.59375
169,0.0,,,,,39.0,,,,,240,note_off,,95.0,39.0,95.0,9060,4.71875
170,0.0,,,,,57.0,,,,,0,note_on,,95.0,57.0,95.0,9060,4.71875
171,0.0,,,,,50.0,,,,,0,note_on,,95.0,50.0,95.0,9060,4.71875
172,0.0,,,,,57.0,,,,,480,note_off,,95.0,57.0,95.0,9540,4.96875
173,0.0,,,,,50.0,,,,,0,note_off,,95.0,50.0,95.0,9540,4.96875
174,0.0,,,,,39.0,,,,,0,note_on,,95.0,39.0,95.0,9540,4.96875
175,0.0,,,,,39.0,,,,,240,note_off,,95.0,39.0,95.0,9780,5.09375
176,0.0,,,,,39.0,,,,,0,note_on,,95.0,39.0,95.0,9780,5.09375
177,0.0,,,,,39.0,,,,,240,note_off,,95.0,39.0,95.0,10020,5.21875
178,0.0,,,,,39.0,,,,,240,note_on,,95.0,39.0,95.0,10260,5.34375
179,1.0,,,,,49.0,,,,,180,note_on,,95.0,49.0,95.0,2160,1.125
180,0.0,,,,,39.0,,,,,60,note_off,,95.0,39.0,95.0,10320,5.375
181,1.0,,,,,49.0,,,,,0,note_off,,95.0,49.0,95.0,2160,1.125
182,1.0,,,,,51.0,,,,,0,note_on,,95.0,51.0,95.0,2160,1.125
183,0.0,,,,,39.0,,,,,0,note_on,,95.0,39.0,95.0,10320,5.375
184,1.0,,,,,51.0,,,,,480,note_off,,95.0,51.0,95.0,2640,1.375
185,0.0,,,,,39.0,,,,,0,note_off,,95.0,39.0,95.0,10320,5.375
186,0.0,,,,,39.0,,,,,0,note_on,,95.0,39.0,95.0,10320,5.375
187,0.0,,,,,39.0,,,,,240,note_off,,95.0,39.0,95.0,10560,5.5
188,0.0,,,,,39.0,,,,,0,note_on,,95.0,39.0,95.0,10560,5.5
189,0.0,,,,,39.0,,,,,240,note_off,,95.0,39.0,95.0,10800,5.625
190,0.0,,,,,39.0,,,,,240,note_on,,95.0,39.0,95.0,11040,5.75
191,0.0,,,,,39.0,,,,,240,note_off,,95.0,39.0,95.0,11280,5.875
192,0.0,,,,,49.0,,,,,0,note_on,,95.0,49.0,95.0,11280,5.875
193,0.0,,,,,42.0,,,,,0,note_on,,95.0,42.0,95.0,11280,5.875
194,0.0,,,,,49.0,,,,,480,note_off,,95.0,49.0,95.0,11760,6.125
195,0.0,,,,,42.0,,,,,0,note_off,,95.0,42.0,95.0,11760,6.125
196,0.0,,,,,39.0,,,,,0,note_on,,95.0,39.0,95.0,11760,6.125
197,0.0,,,,,39.0,,,,,240,note_off,,95.0,39.0,95.0,12000,6.25
198,0.0,,,,,39.0,,,,,0,note_on,,95.0,39.0,95.0,12000,6.25
199,0.0,,,,,39.0,,,,,240,note_off,,95.0,39.0,95.0,12240,6.375
200,0.0,,,,,48.0,,,,,0,note_on,,95.0,48.0,95.0,12240,6.375
201,0.0,,,,,41.0,,,,,0,note_on,,95.0,41.0,95.0,12240,6.375
202,0.0,,,,,48.0,,,,,480,note_off,,95.0,48.0,95.0,12720,6.625
203,0.0,,,,,41.0,,,,,0,note_off,,95.0,41.0,95.0,12720,6.625
204,0.0,,,,,39.0,,,,,0,note_on,,95.0,39.0,95.0,12720,6.625
205,0.0,,,,,39.0,,,,,240,note_off,,95.0,39.0,95.0,12960,6.75
206,0.0,,,,,39.0,,,,,0,note_on,,95.0,39.0,95.0,12960,6.75
207,0.0,,,,,39.0,,,,,240,note_off,,95.0,39.0,95.0,13200,6.875
208,0.0,,,,,39.0,,,,,240,note_on,,95.0,39.0,95.0,13440,7.0
209,1.0,,,,,49.0,,,,,180,note_on,,95.0,49.0,95.0,2820,1.46875
210,0.0,,,,,39.0,,,,,60,note_off,,95.0,39.0,95.0,13500,7.03125
211,1.0,,,,,49.0,,,,,0,note_off,,95.0,49.0,95.0,2820,1.46875
212,1.0,,,,,51.0,,,,,0,note_on,,95.0,51.0,95.0,2820,1.46875
213,0.0,,,,,39.0,,,,,0,note_on,,95.0,39.0,95.0,13500,7.03125
214,1.0,,,,,51.0,,,,,480,note_off,,95.0,51.0,95.0,3300,1.71875
215,0.0,,,,,39.0,,,,,0,note_off,,95.0,39.0,95.0,13500,7.03125
216,0.0,,,,,39.0,,,,,0,note_on,,95.0,39.0,95.0,13500,7.03125
217,0.0,,,,,39.0,,,,,240,note_off,,95.0,39.0,95.0,13740,7.15625
218,0.0,,,,,39.0,,,,,0,note_on,,95.0,39.0,95.0,13740,7.15625
219,0.0,,,,,39.0,,,,,240,note_off,,95.0,39.0,95.0,13980,7.28125
220,0.0,,,,,39.0,,,,,240,note_on,,95.0,39.0,95.0,14220,7.40625
221,0.0,,,,,39.0,,,,,240,note_off,,95.0,39.0,95.0,14460,7.53125
222,0.0,,,,,59.0,,,,,0,note_on,,95.0,59.0,95.0,14460,7.53125
223,0.0,,,,,52.0,,,,,0,note_on,,95.0,52.0,95.0,14460,7.53125
224,0.0,,,,,59.0,,,,,480,note_off,,95.0,59.0,95.0,14940,7.78125
225,0.0,,,,,52.0,,,,,0,note_off,,95.0,52.0,95.0,14940,7.78125
226,0.0,,,,,39.0,,,,,0,note_on,,95.0,39.0,95.0,14940,7.78125
227,0.0,,,,,39.0,,,,,240,note_off,,95.0,39.0,95.0,15180,7.90625
228,0.0,,,,,39.0,,,,,0,note_on,,95.0,39.0,95.0,15180,7.90625
229,0.0,,,,,39.0,,,,,240,note_off,,95.0,39.0,95.0,15420,8.03125
230,0.0,,,,,57.0,,,,,0,note_on,,95.0,57.0,95.0,15420,8.03125
231,0.0,,,,,50.0,,,,,0,note_on,,95.0,50.0,95.0,15420,8.03125
232,0.0,,,,,57.0,,,,,480,note_off,,95.0,57.0,95.0,15900,8.28125
233,0.0,,,,,50.0,,,,,0,note_off,,95.0,50.0,95.0,15900,8.28125
234,0.0,,,,,39.0,,,,,0,note_on,,95.0,39.0,95.0,15900,8.28125
235,0.0,,,,,39.0,,,,,240,note_off,,95.0,39.0,95.0,16140,8.40625
236,0.0,,,,,39.0,,,,,0,note_on,,95.0,39.0,95.0,16140,8.40625
237,0.0,,,,,39.0,,,,,240,note_off,,95.0,39.0,95.0,16380,8.53125
238,0.0,,,,,39.0,,,,,240,note_on,,95.0,39.0,95.0,16620,8.65625
239,1.0,,,,,49.0,,,,,180,note_on,,95.0,49.0,95.0,3480,1.8125
240,0.0,,,,,39.0,,,,,60,note_off,,95.0,39.0,95.0,16680,8.6875
241,1.0,,,,,49.0,,,,,0,note_off,,95.0,49.0,95.0,3480,1.8125
242,1.0,,,,,51.0,,,,,0,note_on,,95.0,51.0,95.0,3480,1.8125
243,0.0,,,,,39.0,,,,,0,note_on,,95.0,39.0,95.0,16680,8.6875
244,1.0,,,,,51.0,,,,,480,note_off,,95.0,51.0,95.0,3960,2.0625
245,0.0,,,,,39.0,,,,,0,note_off,,95.0,39.0,95.0,16680,8.6875
246,0.0,,,,,39.0,,,,,0,note_on,,95.0,39.0,95.0,16680,8.6875
247,0.0,,,,,39.0,,,,,240,note_off,,95.0,39.0,95.0,16920,8.8125
248,0.0,,,,,39.0,,,,,0,note_on,,95.0,39.0,95.0,16920,8.8125
249,0.0,,,,,39.0,,,,,240,note_off,,95.0,39.0,95.0,17160,8.9375
250,0.0,,,,,39.0,,,,,240,note_on,,95.0,39.0,95.0,17400,9.0625
251,0.0,,,,,39.0,,,,,240,note_off,,95.0,39.0,95.0,17640,9.1875
252,0.0,,,,,61.0,,,,,0,note_on,,95.0,61.0,95.0,17640,9.1875
253,0.0,,,,,54.0,,,,,0,note_on,,95.0,54.0,95.0,17640,9.1875
254,0.0,,,,,61.0,,,,,480,note_off,,95.0,61.0,95.0,18120,9.4375
255,0.0,,,,,54.0,,,,,0,note_off,,95.0,54.0,95.0,18120,9.4375
256,0.0,,,,,39.0,,,,,0,note_on,,95.0,39.0,95.0,18120,9.4375
257,0.0,,,,,39.0,,,,,240,note_off,,95.0,39.0,95.0,18360,9.5625
258,0.0,,,,,39.0,,,,,0,note_on,,95.0,39.0,95.0,18360,9.5625
259,0.0,,,,,39.0,,,,,240,note_off,,95.0,39.0,95.0,18600,9.6875
260,0.0,,,,,60.0,,,,,0,note_on,,95.0,60.0,95.0,18600,9.6875
261,0.0,,,,,53.0,,,,,0,note_on,,95.0,53.0,95.0,18600,9.6875
262,0.0,,,,,60.0,,,,,480,note_off,,95.0,60.0,95.0,19080,9.9375
263,0.0,,,,,53.0,,,,,0,note_off,,95.0,53.0,95.0,19080,9.9375
264,0.0,,,,,39.0,,,,,0,note_on,,95.0,39.0,95.0,19080,9.9375
265,0.0,,,,,39.0,,,,,240,note_off,,95.0,39.0,95.0,19320,10.0625
266,0.0,,,,,39.0,,,,,0,note_on,,95.0,39.0,95.0,19320,10.0625
267,0.0,,,,,39.0,,,,,240,note_off,,95.0,39.0,95.0,19560,10.1875
268,0.0,,,,,39.0,,,,,240,note_on,,95.0,39.0,95.0,19800,10.3125
269,1.0,,,,,49.0,,,,,180,note_on,,95.0,49.0,95.0,4140,2.15625
270,0.0,,,,,39.0,,,,,60,note_off,,95.0,39.0,95.0,19860,10.34375
271,1.0,,,,,49.0,,,,,0,note_off,,95.0,49.0,95.0,4140,2.15625
272,1.0,,,,,51.0,,,,,0,note_on,,95.0,51.0,95.0,4140,2.15625
273,0.0,,,,,39.0,,,,,0,note_on,,95.0,39.0,95.0,19860,10.34375
274,1.0,,,,,51.0,,,,,480,note_off,,95.0,51.0,95.0,4620,2.40625
275,0.0,,,,,39.0,,,,,0,note_off,,95.0,39.0,95.0,19860,10.34375
276,0.0,,,,,39.0,,,,,0,note_on,,95.0,39.0,95.0,19860,10.34375
277,0.0,,,,,39.0,,,,,240,note_off,,95.0,39.0,95.0,20100,10.46875
278,0.0,,,,,39.0,,,,,0,note_on,,95.0,39.0,95.0,20100,10.46875
279,0.0,,,,,39.0,,,,,240,note_off,,95.0,39.0,95.0,20340,10.59375
280,0.0,,,,,39.0,,,,,240,note_on,,95.0,39.0,95.0,20580,10.71875
281,0.0,,,,,39.0,,,,,240,note_off,,95.0,39.0,95.0,20820,10.84375
282,0.0,,,,,59.0,,,,,0,note_on,,95.0,59.0,95.0,20820,10.84375
283,0.0,,,,,52.0,,,,,0,note_on,,95.0,52.0,95.0,20820,10.84375
284,0.0,,,,,59.0,,,,,480,note_off,,95.0,59.0,95.0,21300,11.09375
285,0.0,,,,,52.0,,,,,0,note_off,,95.0,52.0,95.0,21300,11.09375
286,0.0,,,,,39.0,,,,,0,note_on,,95.0,39.0,95.0,21300,11.09375
287,0.0,,,,,39.0,,,,,240,note_off,,95.0,39.0,95.0,21540,11.21875
288,0.0,,,,,39.0,,,,,0,note_on,,95.0,39.0,95.0,21540,11.21875
289,0.0,,,,,39.0,,,,,240,note_off,,95.0,39.0,95.0,21780,11.34375
290,0.0,,,,,57.0,,,,,0,note_on,,95.0,57.0,95.0,21780,11.34375
291,0.0,,,,,50.0,,,,,0,note_on,,95.0,50.0,95.0,21780,11.34375
292,0.0,,,,,57.0,,,,,480,note_off,,95.0,57.0,95.0,22260,11.59375
293,0.0,,,,,50.0,,,,,0,note_off,,95.0,50.0,95.0,22260,11.59375
294,0.0,,,,,39.0,,,,,0,note_on,,95.0,39.0,95.0,22260,11.59375
295,0.0,,,,,39.0,,,,,240,note_off,,95.0,39.0,95.0,22500,11.71875
296,0.0,,,,,39.0,,,,,0,note_on,,95.0,39.0,95.0,22500,11.71875
297,0.0,,,,,39.0,,,,,240,note_off,,95.0,39.0,95.0,22740,11.84375
298,0.0,,,,,39.0,,,,,240,note_on,,95.0,39.0,95.0,22980,11.96875
299,1.0,,,,,49.0,,,,,180,note_on,,95.0,49.0,95.0,4800,2.5
300,0.0,,,,,39.0,,,,,60,note_off,,95.0,39.0,95.0,23040,12.0
301,1.0,,,,,49.0,,,,,0,note_off,,95.0,49.0,95.0,4800,2.5
302,1.0,,,,,51.0,,,,,0,note_on,,95.0,51.0,95.0,4800,2.5
303,0.0,,,,,39.0,,,,,0,note_on,,95.0,39.0,95.0,23040,12.0
304,1.0,,,,,51.0,,,,,480,note_off,,95.0,51.0,95.0,5280,2.75
305,0.0,,,,,39.0,,,,,0,note_off,,95.0,39.0,95.0,23040,12.0
306,0.0,,,,,39.0,,,,,0,note_on,,95.0,39.0,95.0,23040,12.0
307,0.0,,,,,39.0,,,,,240,note_off,,95.0,39.0,95.0,23280,12.125
308,0.0,,,,,39.0,,,,,0,note_on,,95.0,39.0,95.0,23280,12.125
309,0.0,,,,,39.0,,,,,240,note_off,,95.0,39.0,95.0,23520,12.25
310,0.0,,,,,39.0,,,,,240,note_on,,95.0,39.0,95.0,23760,12.375
311,0.0,,,,,39.0,,,,,240,note_off,,95.0,39.0,95.0,24000,12.5
312,0.0,,,,,49.0,,,,,0,note_on,,95.0,49.0,95.0,24000,12.5
313,0.0,,,,,42.0,,,,,0,note_on,,95.0,42.0,95.0,24000,12.5
314,0.0,,,,,49.0,,,,,480,note_off,,95.0,49.0,95.0,24480,12.75
315,0.0,,,,,42.0,,,,,0,note_off,,95.0,42.0,95.0,24480,12.75
316,0.0,,,,,39.0,,,,,0,note_on,,95.0,39.0,95.0,24480,12.75
317,0.0,,,,,39.0,,,,,240,note_off,,95.0,39.0,95.0,24720,12.875
318,0.0,,,,,39.0,,,,,0,note_on,,95.0,39.0,95.0,24720,12.875
319,0.0,,,,,39.0,,,,,240,note_off,,95.0,39.0,95.0,24960,13.0
320,0.0,,,,,48.0,,,,,0,note_on,,95.0,48.0,95.0,24960,13.0
321,0.0,,,,,41.0,,,,,0,note_on,,95.0,41.0,95.0,24960,13.0
322,0.0,,,,,48.0,,,,,480,note_off,,95.0,48.0,95.0,25440,13.25
323,0.0,,,,,41.0,,,,,0,note_off,,95.0,41.0,95.0,25440,13.25
324,0.0,,,,,39.0,,,,,0,note_on,,95.0,39.0,95.0,25440,13.25
325,0.0,,,,,39.0,,,,,240,note_off,,95.0,39.0,95.0,25680,13.375
326,0.0,,,,,39.0,,,,,0,note_on,,95.0,39.0,95.0,25680,13.375
327,0.0,,,,,39.0,,,,,240,note_off,,95.0,39.0,95.0,25920,13.5
328,0.0,,,,,39.0,,,,,240,note_on,,95.0,39.0,95.0,26160,13.625
329,1.0,,,,,49.0,,,,,180,note_on,,95.0,49.0,95.0,5460,2.84375
330,0.0,,,,,39.0,,,,,60,note_off,,95.0,39.0,95.0,26220,13.65625
331,1.0,,,,,49.0,,,,,0,note_off,,95.0,49.0,95.0,5460,2.84375
332,1.0,,,,,51.0,,,,,0,note_on,,95.0,51.0,95.0,5460,2.84375
333,0.0,,,,,39.0,,,,,0,note_on,,95.0,39.0,95.0,26220,13.65625
334,1.0,,,,,51.0,,,,,480,note_off,,95.0,51.0,95.0,5940,3.09375
335,0.0,,,,,39.0,,,,,0,note_off,,95.0,39.0,95.0,26220,13.65625
336,0.0,,,,,39.0,,,,,0,note_on,,95.0,39.0,95.0,26220,13.65625
337,0.0,,,,,39.0,,,,,240,note_off,,95.0,39.0,95.0,26460,13.78125
338,0.0,,,,,39.0,,,,,0,note_on,,95.0,39.0,95.0,26460,13.78125
339,0.0,,,,,39.0,,,,,240,note_off,,95.0,39.0,95.0,26700,13.90625
340,0.0,,,,,39.0,,,,,240,note_on,,95.0,39.0,95.0,26940,14.03125
341,0.0,,,,,39.0,,,,,240,note_off,,95.0,39.0,95.0,27180,14.15625
342,0.0,,,,,59.0,,,,,0,note_on,,95.0,59.0,95.0,27180,14.15625
343,0.0,,,,,52.0,,,,,0,note_on,,95.0,52.0,95.0,27180,14.15625
344,0.0,,,,,59.0,,,,,480,note_off,,95.0,59.0,95.0,27660,14.40625
345,0.0,,,,,52.0,,,,,0,note_off,,95.0,52.0,95.0,27660,14.40625
346,0.0,,,,,39.0,,,,,0,note_on,,95.0,39.0,95.0,27660,14.40625
347,0.0,,,,,39.0,,,,,240,note_off,,95.0,39.0,95.0,27900,14.53125
348,0.0,,,,,39.0,,,,,0,note_on,,95.0,39.0,95.0,27900,14.53125
349,0.0,,,,,39.0,,,,,240,note_off,,95.0,39.0,95.0,28140,14.65625
350,0.0,,,,,57.0,,,,,0,note_on,,95.0,57.0,95.0,28140,14.65625
351,0.0,,,,,50.0,,,,,0,note_on,,95.0,50.0,95.0,28140,14.65625
352,0.0,,,,,57.0,,,,,480,note_off,,95.0,57.0,95.0,28620,14.90625
353,0.0,,,,,50.0,,,,,0,note_off,,95.0,50.0,95.0,28620,14.90625
354,0.0,,,,,39.0,,,,,0,note_on,,95.0,39.0,95.0,28620,14.90625
355,0.0,,,,,39.0,,,,,240,note_off,,95.0,39.0,95.0,28860,15.03125
356,0.0,,,,,39.0,,,,,0,note_on,,95.0,39.0,95.0,28860,15.03125
357,0.0,,,,,39.0,,,,,240,note_off,,95.0,39.0,95.0,29100,15.15625
358,0.0,,,,,39.0,,,,,240,note_on,,95.0,39.0,95.0,29340,15.28125
359,1.0,,,,,49.0,,,,,180,note_on,,95.0,49.0,95.0,6120,3.1875
360,0.0,,,,,39.0,,,,,60,note_off,,95.0,39.0,95.0,29400,15.3125
361,1.0,,,,,49.0,,,,,0,note_off,,95.0,49.0,95.0,6120,3.1875
362,1.0,,,,,51.0,,,,,0,note_on,,95.0,51.0,95.0,6120,3.1875
363,0.0,,,,,39.0,,,,,0,note_on,,95.0,39.0,95.0,29400,15.3125
364,1.0,,,,,51.0,,,,,480,note_off,,95.0,51.0,95.0,6600,3.4375
365,0.0,,,,,39.0,,,,,0,note_off,,95.0,39.0,95.0,29400,15.3125
366,0.0,,,,,39.0,,,,,0,note_on,,95.0,39.0,95.0,29400,15.3125
367,0.0,,,,,39.0,,,,,240,note_off,,95.0,39.0,95.0,29640,15.4375
368,0.0,,,,,39.0,,,,,0,note_on,,95.0,39.0,95.0,29640,15.4375
369,0.0,,,,,39.0,,,,,240,note_off,,95.0,39.0,95.0,29880,15.5625
370,0.0,,,,,39.0,,,,,240,note_on,,95.0,39.0,95.0,30120,15.6875
371,0.0,,,,,39.0,,,,,240,note_off,,95.0,39.0,95.0,30360,15.8125
372,0.0,,,,,61.0,,,,,0,note_on,,95.0,61.0,95.0,30360,15.8125
373,0.0,,,,,54.0,,,,,0,note_on,,95.0,54.0,95.0,30360,15.8125
374,0.0,,,,,61.0,,,,,480,note_off,,95.0,61.0,95.0,30840,16.0625
375,0.0,,,,,54.0,,,,,0,note_off,,95.0,54.0,95.0,30840,16.0625
376,0.0,,,,,39.0,,,,,0,note_on,,95.0,39.0,95.0,30840,16.0625
377,0.0,,,,,39.0,,,,,240,note_off,,95.0,39.0,95.0,31080,16.1875
378,0.0,,,,,39.0,,,,,0,note_on,,95.0,39.0,95.0,31080,16.1875
379,0.0,,,,,39.0,,,,,240,note_off,,95.0,39.0,95.0,31320,16.3125
380,0.0,,,,,60.0,,,,,0,note_on,,95.0,60.0,95.0,31320,16.3125
381,0.0,,,,,53.0,,,,,0,note_on,,95.0,53.0,95.0,31320,16.3125
382,0.0,,,,,60.0,,,,,480,note_off,,95.0,60.0,95.0,31800,16.5625
383,0.0,,,,,53.0,,,,,0,note_off,,95.0,53.0,95.0,31800,16.5625
384,0.0,,,,,39.0,,,,,0,note_on,,95.0,39.0,95.0,31800,16.5625
385,0.0,,,,,39.0,,,,,240,note_off,,95.0,39.0,95.0,32040,16.6875
386,0.0,,,,,39.0,,,,,0,note_on,,95.0,39.0,95.0,32040,16.6875
387,0.0,,,,,39.0,,,,,240,note_off,,95.0,39.0,95.0,32280,16.8125
388,0.0,,,,,39.0,,,,,240,note_on,,95.0,39.0,95.0,32520,16.9375
389,1.0,,,,,49.0,,,,,180,note_on,,95.0,49.0,95.0,6780,3.53125
390,0.0,,,,,39.0,,,,,60,note_off,,95.0,39.0,95.0,32580,16.96875
391,1.0,,,,,49.0,,,,,0,note_off,,95.0,49.0,95.0,6780,3.53125
392,1.0,,,,,51.0,,,,,0,note_on,,95.0,51.0,95.0,6780,3.53125
393,0.0,,,,,39.0,,,,,0,note_on,,95.0,39.0,95.0,32580,16.96875
394,1.0,,,,,51.0,,,,,480,note_off,,95.0,51.0,95.0,7260,3.78125
395,0.0,,,,,39.0,,,,,0,note_off,,95.0,39.0,95.0,32580,16.96875
396,0.0,,,,,39.0,,,,,0,note_on,,95.0,39.0,95.0,32580,16.96875
397,0.0,,,,,39.0,,,,,240,note_off,,95.0,39.0,95.0,32820,17.09375
398,0.0,,,,,39.0,,,,,0,note_on,,95.0,39.0,95.0,32820,17.09375
399,0.0,,,,,39.0,,,,,240,note_off,,95.0,39.0,95.0,33060,17.21875
400,0.0,,,,,39.0,,,,,240,note_on,,95.0,39.0,95.0,33300,17.34375
401,0.0,,,,,39.0,,,,,240,note_off,,95.0,39.0,95.0,33540,17.46875
402,0.0,,,,,59.0,,,,,0,note_on,,95.0,59.0,95.0,33540,17.46875
403,0.0,,,,,52.0,,,,,0,note_on,,95.0,52.0,95.0,33540,17.46875
404,0.0,,,,,59.0,,,,,480,note_off,,95.0,59.0,95.0,34020,17.71875
405,0.0,,,,,52.0,,,,,0,note_off,,95.0,52.0,95.0,34020,17.71875
406,0.0,,,,,39.0,,,,,0,note_on,,95.0,39.0,95.0,34020,17.71875
407,0.0,,,,,39.0,,,,,240,note_off,,95.0,39.0,95.0,34260,17.84375
408,0.0,,,,,39.0,,,,,0,note_on,,95.0,39.0,95.0,34260,17.84375
409,0.0,,,,,39.0,,,,,240,note_off,,95.0,39.0,95.0,34500,17.96875
410,0.0,,,,,57.0,,,,,0,note_on,,95.0,57.0,95.0,34500,17.96875
411,0.0,,,,,50.0,,,,,0,note_on,,95.0,50.0,95.0,34500,17.96875
412,0.0,,,,,57.0,,,,,480,note_off,,95.0,57.0,95.0,34980,18.21875
413,0.0,,,,,50.0,,,,,0,note_off,,95.0,50.0,95.0,34980,18.21875
414,0.0,,,,,39.0,,,,,0,note_on,,95.0,39.0,95.0,34980,18.21875
415,0.0,,,,,39.0,,,,,240,note_off,,95.0,39.0,95.0,35220,18.34375
416,0.0,,,,,39.0,,,,,0,note_on,,95.0,39.0,95.0,35220,18.34375
417,0.0,,,,,39.0,,,,,240,note_off,,95.0,39.0,95.0,35460,18.46875
418,0.0,,,,,39.0,,,,,240,note_on,,95.0,39.0,95.0,35700,18.59375
419,1.0,,,,,49.0,,,,,180,note_on,,95.0,49.0,95.0,7440,3.875
420,0.0,,,,,39.0,,,,,60,note_off,,95.0,39.0,95.0,35760,18.625
421,1.0,,,,,49.0,,,,,0,note_off,,95.0,49.0,95.0,7440,3.875
422,1.0,,,,,51.0,,,,,0,note_on,,95.0,51.0,95.0,7440,3.875
423,0.0,,,,,39.0,,,,,0,note_on,,95.0,39.0,95.0,35760,18.625
424,1.0,,,,,51.0,,,,,480,note_off,,95.0,51.0,95.0,7920,4.125
425,0.0,,,,,39.0,,,,,0,note_off,,95.0,39.0,95.0,35760,18.625
426,0.0,,,,,39.0,,,,,0,note_on,,95.0,39.0,95.0,35760,18.625
427,0.0,,,,,39.0,,,,,240,note_off,,95.0,39.0,95.0,36000,18.75
428,0.0,,,,,39.0,,,,,0,note_on,,95.0,39.0,95.0,36000,18.75
429,0.0,,,,,39.0,,,,,240,note_off,,95.0,39.0,95.0,36240,18.875
430,0.0,,,,,39.0,,,,,240,note_on,,95.0,39.0,95.0,36480,19.0
431,0.0,,,,,39.0,,,,,240,note_off,,95.0,39.0,95.0,36720,19.125
432,0.0,,,,,49.0,,,,,0,note_on,,95.0,49.0,95.0,36720,19.125
433,0.0,,,,,42.0,,,,,0,note_on,,95.0,42.0,95.0,36720,19.125
434,0.0,,,,,49.0,,,,,480,note_off,,95.0,49.0,95.0,37200,19.375
435,0.0,,,,,42.0,,,,,0,note_off,,95.0,42.0,95.0,37200,19.375
436,0.0,,,,,39.0,,,,,0,note_on,,95.0,39.0,95.0,37200,19.375
437,0.0,,,,,39.0,,,,,240,note_off,,95.0,39.0,95.0,37440,19.5
438,0.0,,,,,39.0,,,,,0,note_on,,95.0,39.0,95.0,37440,19.5
439,0.0,,,,,39.0,,,,,240,note_off,,95.0,39.0,95.0,37680,19.625
440,0.0,,,,,48.0,,,,,0,note_on,,95.0,48.0,95.0,37680,19.625
441,0.0,,,,,41.0,,,,,0,note_on,,95.0,41.0,95.0,37680,19.625
442,0.0,,,,,48.0,,,,,480,note_off,,95.0,48.0,95.0,38160,19.875
443,0.0,,,,,41.0,,,,,0,note_off,,95.0,41.0,95.0,38160,19.875
444,0.0,,,,,39.0,,,,,0,note_on,,95.0,39.0,95.0,38160,19.875
445,0.0,,,,,39.0,,,,,240,note_off,,95.0,39.0,95.0,38400,20.0
446,0.0,,,,,39.0,,,,,0,note_on,,95.0,39.0,95.0,38400,20.0
447,0.0,,,,,39.0,,,,,240,note_off,,95.0,39.0,95.0,38640,20.125
448,0.0,,,,,39.0,,,,,240,note_on,,95.0,39.0,95.0,38880,20.25
449,1.0,,,,,49.0,,,,,180,note_on,,95.0,49.0,95.0,8100,4.21875
450,0.0,,,,,39.0,,,,,60,note_off,,95.0,39.0,95.0,38940,20.28125
451,1.0,,,,,49.0,,,,,0,note_off,,95.0,49.0,95.0,8100,4.21875
452,1.0,,,,,51.0,,,,,0,note_on,,95.0,51.0,95.0,8100,4.21875
453,0.0,,,,,39.0,,,,,0,note_on,,95.0,39.0,95.0,38940,20.28125
454,1.0,,,,,51.0,,,,,480,note_off,,95.0,51.0,95.0,8580,4.46875
455,0.0,,,,,39.0,,,,,0,note_off,,95.0,39.0,95.0,38940,20.28125
456,0.0,,,,,39.0,,,,,0,note_on,,95.0,39.0,95.0,38940,20.28125
457,0.0,,,,,39.0,,,,,240,note_off,,95.0,39.0,95.0,39180,20.40625
458,0.0,,,,,39.0,,,,,0,note_on,,95.0,39.0,95.0,39180,20.40625
459,0.0,,,,,39.0,,,,,240,note_off,,95.0,39.0,95.0,39420,20.53125
460,0.0,,,,,39.0,,,,,240,note_on,,95.0,39.0,95.0,39660,20.65625
461,0.0,,,,,39.0,,,,,240,note_off,,95.0,39.0,95.0,39900,20.78125
462,0.0,,,,,59.0,,,,,0,note_on,,95.0,59.0,95.0,39900,20.78125
463,0.0,,,,,52.0,,,,,0,note_on,,95.0,52.0,95.0,39900,20.78125
464,0.0,,,,,59.0,,,,,480,note_off,,95.0,59.0,95.0,40380,21.03125
465,0.0,,,,,52.0,,,,,0,note_off,,95.0,52.0,95.0,40380,21.03125
466,0.0,,,,,39.0,,,,,0,note_on,,95.0,39.0,95.0,40380,21.03125
467,0.0,,,,,39.0,,,,,240,note_off,,95.0,39.0,95.0,40620,21.15625
468,0.0,,,,,39.0,,,,,0,note_on,,95.0,39.0,95.0,40620,21.15625
469,0.0,,,,,39.0,,,,,240,note_off,,95.0,39.0,95.0,40860,21.28125
470,0.0,,,,,57.0,,,,,0,note_on,,95.0,57.0,95.0,40860,21.28125
471,0.0,,,,,50.0,,,,,0,note_on,,95.0,50.0,95.0,40860,21.28125
472,0.0,,,,,57.0,,,,,480,note_off,,95.0,57.0,95.0,41340,21.53125
473,0.0,,,,,50.0,,,,,0,note_off,,95.0,50.0,95.0,41340,21.53125
474,0.0,,,,,39.0,,,,,0,note_on,,95.0,39.0,95.0,41340,21.53125
475,0.0,,,,,39.0,,,,,240,note_off,,95.0,39.0,95.0,41580,21.65625
476,0.0,,,,,39.0,,,,,0,note_on,,95.0,39.0,95.0,41580,21.65625
477,0.0,,,,,39.0,,,,,240,note_off,,95.0,39.0,95.0,41820,21.78125
478,0.0,,,,,39.0,,,,,240,note_on,,95.0,39.0,95.0,42060,21.90625
479,1.0,,,,,49.0,,,,,180,note_on,,95.0,49.0,95.0,8760,4.5625
480,0.0,,,,,39.0,,,,,60,note_off,,95.0,39.0,95.0,42120,21.9375
481,1.0,,,,,49.0,,,,,0,note_off,,95.0,49.0,95.0,8760,4.5625
482,1.0,,,,,51.0,,,,,0,note_on,,95.0,51.0,95.0,8760,4.5625
483,0.0,,,,,39.0,,,,,0,note_on,,95.0,39.0,95.0,42120,21.9375
484,1.0,,,,,51.0,,,,,480,note_off,,95.0,51.0,95.0,9240,4.8125
485,0.0,,,,,39.0,,,,,0,note_off,,95.0,39.0,95.0,42120,21.9375
486,0.0,,,,,39.0,,,,,0,note_on,,95.0,39.0,95.0,42120,21.9375
487,0.0,,,,,39.0,,,,,240,note_off,,95.0,39.0,95.0,42360,22.0625
488,0.0,,,,,39.0,,,,,0,note_on,,95.0,39.0,95.0,42360,22.0625
489,0.0,,,,,39.0,,,,,240,note_off,,95.0,39.0,95.0,42600,22.1875
490,0.0,,,,,39.0,,,,,240,note_on,,95.0,39.0,95.0,42840,22.3125
491,0.0,,,,,39.0,,,,,240,note_off,,95.0,39.0,95.0,43080,22.4375
492,0.0,,,,,61.0,,,,,0,note_on,,95.0,61.0,95.0,43080,22.4375
493,0.0,,,,,54.0,,,,,0,note_on,,95.0,54.0,95.0,43080,22.4375
494,0.0,,,,,61.0,,,,,480,note_off,,95.0,61.0,95.0,43560,22.6875
495,0.0,,,,,54.0,,,,,0,note_off,,95.0,54.0,95.0,43560,22.6875
496,0.0,,,,,39.0,,,,,0,note_on,,95.0,39.0,95.0,43560,22.6875
497,0.0,,,,,39.0,,,,,240,note_off,,95.0,39.0,95.0,43800,22.8125
498,0.0,,,,,39.0,,,,,0,note_on,,95.0,39.0,95.0,43800,22.8125
499,0.0,,,,,39.0,,,,,240,note_off,,95.0,39.0,95.0,44040,22.9375
500,0.0,,,,,60.0,,,,,0,note_on,,95.0,60.0,95.0,44040,22.9375
501,0.0,,,,,53.0,,,,,0,note_on,,95.0,53.0,95.0,44040,22.9375
502,0.0,,,,,60.0,,,,,480,note_off,,95.0,60.0,95.0,44520,23.1875
503,0.0,,,,,53.0,,,,,0,note_off,,95.0,53.0,95.0,44520,23.1875
504,0.0,,,,,39.0,,,,,0,note_on,,95.0,39.0,95.0,44520,23.1875
505,0.0,,,,,39.0,,,,,240,note_off,,95.0,39.0,95.0,44760,23.3125
506,0.0,,,,,39.0,,,,,0,note_on,,95.0,39.0,95.0,44760,23.3125
507,0.0,,,,,39.0,,,,,240,note_off,,95.0,39.0,95.0,45000,23.4375
508,0.0,,,,,39.0,,,,,240,note_on,,95.0,39.0,95.0,45240,23.5625
509,1.0,,,,,49.0,,,,,180,note_on,,95.0,49.0,95.0,9420,4.90625
510,0.0,,,,,39.0,,,,,60,note_off,,95.0,39.0,95.0,45300,23.59375
511,1.0,,,,,49.0,,,,,0,note_off,,95.0,49.0,95.0,9420,4.90625
512,1.0,,,,,51.0,,,,,0,note_on,,95.0,51.0,95.0,9420,4.90625
513,0.0,,,,,39.0,,,,,0,note_on,,95.0,39.0,95.0,45300,23.59375
514,1.0,,,,,51.0,,,,,480,note_off,,95.0,51.0,95.0,9900,5.15625
515,0.0,,,,,39.0,,,,,0,note_off,,95.0,39.0,95.0,45300,23.59375
516,0.0,,,,,39.0,,,,,0,note_on,,95.0,39.0,95.0,45300,23.59375
517,0.0,,,,,39.0,,,,,240,note_off,,95.0,39.0,95.0,45540,23.71875
518,0.0,,,,,39.0,,,,,0,note_on,,95.0,39.0,95.0,45540,23.71875
519,0.0,,,,,39.0,,,,,240,note_off,,95.0,39.0,95.0,45780,23.84375
520,0.0,,,,,39.0,,,,,240,note_on,,95.0,39.0,95.0,46020,23.96875
521,0.0,,,,,39.0,,,,,240,note_off,,95.0,39.0,95.0,46260,24.09375
522,0.0,,,,,59.0,,,,,0,note_on,,95.0,59.0,95.0,46260,24.09375
523,0.0,,,,,52.0,,,,,0,note_on,,95.0,52.0,95.0,46260,24.09375
524,0.0,,,,,59.0,,,,,480,note_off,,95.0,59.0,95.0,46740,24.34375
525,0.0,,,,,52.0,,,,,0,note_off,,95.0,52.0,95.0,46740,24.34375
526,0.0,,,,,39.0,,,,,0,note_on,,95.0,39.0,95.0,46740,24.34375
527,0.0,,,,,39.0,,,,,240,note_off,,95.0,39.0,95.0,46980,24.46875
528,0.0,,,,,39.0,,,,,0,note_on,,95.0,39.0,95.0,46980,24.46875
529,0.0,,,,,39.0,,,,,240,note_off,,95.0,39.0,95.0,47220,24.59375
530,0.0,,,,,57.0,,,,,0,note_on,,95.0,57.0,95.0,47220,24.59375
531,0.0,,,,,50.0,,,,,0,note_on,,95.0,50.0,95.0,47220,24.59375
532,0.0,,,,,57.0,,,,,480,note_off,,95.0,57.0,95.0,47700,24.84375
533,0.0,,,,,50.0,,,,,0,note_off,,95.0,50.0,95.0,47700,24.84375
534,0.0,,,,,39.0,,,,,0,note_on,,95.0,39.0,95.0,47700,24.84375
535,0.0,,,,,39.0,,,,,240,note_off,,95.0,39.0,95.0,47940,24.96875
536,0.0,,,,,39.0,,,,,0,note_on,,95.0,39.0,95.0,47940,24.96875
537,0.0,,,,,39.0,,,,,240,note_off,,95.0,39.0,95.0,48180,25.09375
538,0.0,,,,,39.0,,,,,240,note_on,,95.0,39.0,95.0,48420,25.21875
539,1.0,,,,,49.0,,,,,180,note_on,,95.0,49.0,95.0,10080,5.25
540,0.0,,,,,39.0,,,,,60,note_off,,95.0,39.0,95.0,48480,25.25
541,1.0,,,,,49.0,,,,,0,note_off,,95.0,49.0,95.0,10080,5.25
542,1.0,,,,,51.0,,,,,0,note_on,,95.0,51.0,95.0,10080,5.25
543,0.0,,,,,39.0,,,,,0,note_on,,95.0,39.0,95.0,48480,25.25
544,1.0,,,,,51.0,,,,,480,note_off,,95.0,51.0,95.0,10560,5.5
545,0.0,,,,,39.0,,,,,0,note_off,,95.0,39.0,95.0,48480,25.25
546,0.0,,,,,39.0,,,,,0,note_on,,95.0,39.0,95.0,48480,25.25
547,0.0,,,,,39.0,,,,,240,note_off,,95.0,39.0,95.0,48720,25.375
548,0.0,,,,,39.0,,,,,0,note_on,,95.0,39.0,95.0,48720,25.375
549,0.0,,,,,39.0,,,,,240,note_off,,95.0,39.0,95.0,48960,25.5
550,0.0,,,,,39.0,,,,,240,note_on,,95.0,39.0,95.0,49200,25.625
551,0.0,,,,,39.0,,,,,240,note_off,,95.0,39.0,95.0,49440,25.75
552,0.0,,,,,49.0,,,,,0,note_on,,95.0,49.0,95.0,49440,25.75
553,0.0,,,,,42.0,,,,,0,note_on,,95.0,42.0,95.0,49440,25.75
554,0.0,,,,,49.0,,,,,480,note_off,,95.0,49.0,95.0,49920,26.0
555,0.0,,,,,42.0,,,,,0,note_off,,95.0,42.0,95.0,49920,26.0
556,0.0,,,,,39.0,,,,,0,note_on,,95.0,39.0,95.0,49920,26.0
557,0.0,,,,,39.0,,,,,240,note_off,,95.0,39.0,95.0,50160,26.125
558,0.0,,,,,39.0,,,,,0,note_on,,95.0,39.0,95.0,50160,26.125
559,0.0,,,,,39.0,,,,,240,note_off,,95.0,39.0,95.0,50400,26.25
560,0.0,,,,,48.0,,,,,0,note_on,,95.0,48.0,95.0,50400,26.25
561,0.0,,,,,41.0,,,,,0,note_on,,95.0,41.0,95.0,50400,26.25
562,0.0,,,,,48.0,,,,,480,note_off,,95.0,48.0,95.0,50880,26.5
563,0.0,,,,,41.0,,,,,0,note_off,,95.0,41.0,95.0,50880,26.5
564,0.0,,,,,39.0,,,,,0,note_on,,95.0,39.0,95.0,50880,26.5
565,0.0,,,,,39.0,,,,,240,note_off,,95.0,39.0,95.0,51120,26.625
566,0.0,,,,,39.0,,,,,240,note_on,,95.0,39.0,95.0,51360,26.75
567,0.0,,,,,39.0,,,,,240,note_off,,95.0,39.0,95.0,51600,26.875
568,0.0,,,,,39.0,,,,,0,note_on,,95.0,39.0,95.0,51600,26.875
569,1.0,,,,,49.0,,,,,180,note_on,,95.0,49.0,95.0,10740,5.59375
570,0.0,,,,,39.0,,,,,60,note_off,,95.0,39.0,95.0,51660,26.90625
571,1.0,,,,,49.0,,,,,0,note_off,,95.0,49.0,95.0,10740,5.59375
572,1.0,,,,,51.0,,,,,0,note_on,,95.0,51.0,95.0,10740,5.59375
573,0.0,,,,,39.0,,,,,0,note_on,,95.0,39.0,95.0,51660,26.90625
574,1.0,,,,,51.0,,,,,960,note_off,,95.0,51.0,95.0,11700,6.09375
575,0.0,,,,,39.0,,,,,0,note_off,,95.0,39.0,95.0,51660,26.90625
576,0.0,,,,,39.0,,,,,0,note_on,,95.0,39.0,95.0,51660,26.90625
577,0.0,,,,,39.0,,,,,240,note_off,,95.0,39.0,95.0,51900,27.03125
578,0.0,,,,,39.0,,,,,240,note_on,,95.0,39.0,95.0,52140,27.15625
579,0.0,,,,,39.0,,,,,240,note_off,,95.0,39.0,95.0,52380,27.28125
580,0.0,,,,,39.0,,,,,0,note_on,,95.0,39.0,95.0,52380,27.28125
581,0.0,,,,,39.0,,,,,240,note_off,,95.0,39.0,95.0,52620,27.40625
582,0.0,,,,,59.0,,,,,0,note_on,,95.0,59.0,95.0,52620,27.40625
583,0.0,,,,,52.0,,,,,0,note_on,,95.0,52.0,95.0,52620,27.40625
584,0.0,,,,,59.0,,,,,240,note_off,,95.0,59.0,95.0,52860,27.53125
585,0.0,,,,,52.0,,,,,0,note_off,,95.0,52.0,95.0,52860,27.53125
586,0.0,,,,,58.0,,,,,0,note_on,,95.0,58.0,95.0,52860,27.53125
587,0.0,,,,,51.0,,,,,0,note_on,,95.0,51.0,95.0,52860,27.53125
588,0.0,,,,,58.0,,,,,240,note_off,,95.0,58.0,95.0,53100,27.65625
589,0.0,,,,,51.0,,,,,0,note_off,,95.0,51.0,95.0,53100,27.65625
590,0.0,,,,,57.0,,,,,0,note_on,,95.0,57.0,95.0,53100,27.65625
591,0.0,,,,,50.0,,,,,0,note_on,,95.0,50.0,95.0,53100,27.65625
592,0.0,,,,,57.0,,,,,480,note_off,,95.0,57.0,95.0,53580,27.90625
593,0.0,,,,,50.0,,,,,0,note_off,,95.0,50.0,95.0,53580,27.90625
594,0.0,,,,,39.0,,,,,0,note_on,,95.0,39.0,95.0,53580,27.90625
595,0.0,,,,,39.0,,,,,240,note_off,,95.0,39.0,95.0,53820,28.03125
596,0.0,,,,,39.0,,,,,240,note_on,,95.0,39.0,95.0,54060,28.15625
597,0.0,,,,,39.0,,,,,240,note_off,,95.0,39.0,95.0,54300,28.28125
598,0.0,,,,,39.0,,,,,0,note_on,,95.0,39.0,95.0,54300,28.28125
599,1.0,,,,,49.0,,,,,180,note_on,,95.0,49.0,95.0,11880,6.1875
600,0.0,,,,,39.0,,,,,60,note_off,,95.0,39.0,95.0,54360,28.3125
601,1.0,,,,,49.0,,,,,0,note_off,,95.0,49.0,95.0,11880,6.1875
602,1.0,,,,,51.0,,,,,0,note_on,,95.0,51.0,95.0,11880,6.1875
603,0.0,,,,,39.0,,,,,0,note_on,,95.0,39.0,95.0,54360,28.3125
604,1.0,,,,,51.0,,,,,960,note_off,,95.0,51.0,95.0,12840,6.6875
605,0.0,,,,,39.0,,,,,0,note_off,,95.0,39.0,95.0,54360,28.3125
606,0.0,,,,,39.0,,,,,0,note_on,,95.0,39.0,95.0,54360,28.3125
607,0.0,,,,,39.0,,,,,240,note_off,,95.0,39.0,95.0,54600,28.4375
608,0.0,,,,,39.0,,,,,240,note_on,,95.0,39.0,95.0,54840,28.5625
609,0.0,,,,,39.0,,,,,240,note_off,,95.0,39.0,95.0,55080,28.6875
610,0.0,,,,,39.0,,,,,0,note_on,,95.0,39.0,95.0,55080,28.6875
611,0.0,,,,,39.0,,,,,240,note_off,,95.0,39.0,95.0,55320,28.8125
612,0.0,,,,,61.0,,,,,0,note_on,,95.0,61.0,95.0,55320,28.8125
613,0.0,,,,,54.0,,,,,0,note_on,,95.0,54.0,95.0,55320,28.8125
614,0.0,,,,,61.0,,,,,240,note_off,,95.0,61.0,95.0,55560,28.9375
615,0.0,,,,,54.0,,,,,0,note_off,,95.0,54.0,95.0,55560,28.9375
616,0.0,,,,,60.0,,,,,0,note_on,,95.0,60.0,95.0,55560,28.9375
617,0.0,,,,,53.0,,,,,0,note_on,,95.0,53.0,95.0,55560,28.9375
618,0.0,,,,,60.0,,,,,240,note_off,,95.0,60.0,95.0,55800,29.0625
619,0.0,,,,,53.0,,,,,0,note_off,,95.0,53.0,95.0,55800,29.0625
620,0.0,,,,,59.0,,,,,0,note_on,,95.0,59.0,95.0,55800,29.0625
621,0.0,,,,,52.0,,,,,0,note_on,,95.0,52.0,95.0,55800,29.0625
622,0.0,,,,,59.0,,,,,480,note_off,,95.0,59.0,95.0,56280,29.3125
623,0.0,,,,,52.0,,,,,0,note_off,,95.0,52.0,95.0,56280,29.3125
624,0.0,,,,,39.0,,,,,0,note_on,,95.0,39.0,95.0,56280,29.3125
625,0.0,,,,,39.0,,,,,240,note_off,,95.0,39.0,95.0,56520,29.4375
626,0.0,,,,,39.0,,,,,240,note_on,,95.0,39.0,95.0,56760,29.5625
627,0.0,,,,,39.0,,,,,240,note_off,,95.0,39.0,95.0,57000,29.6875
628,0.0,,,,,39.0,,,,,0,note_on,,95.0,39.0,95.0,57000,29.6875
629,1.0,,,,,49.0,,,,,180,note_on,,95.0,49.0,95.0,13020,6.78125
630,0.0,,,,,39.0,,,,,60,note_off,,95.0,39.0,95.0,57060,29.71875
631,1.0,,,,,49.0,,,,,0,note_off,,95.0,49.0,95.0,13020,6.78125
632,1.0,,,,,51.0,,,,,0,note_on,,95.0,51.0,95.0,13020,6.78125
633,0.0,,,,,39.0,,,,,0,note_on,,95.0,39.0,95.0,57060,29.71875
634,1.0,,,,,51.0,,,,,960,note_off,,95.0,51.0,95.0,13980,7.28125
635,0.0,,,,,39.0,,,,,0,note_off,,95.0,39.0,95.0,57060,29.71875
636,0.0,,,,,39.0,,,,,0,note_on,,95.0,39.0,95.0,57060,29.71875
637,0.0,,,,,39.0,,,,,240,note_off,,95.0,39.0,95.0,57300,29.84375
638,0.0,,,,,39.0,,,,,240,note_on,,95.0,39.0,95.0,57540,29.96875
639,0.0,,,,,39.0,,,,,240,note_off,,95.0,39.0,95.0,57780,30.09375
640,0.0,,,,,39.0,,,,,0,note_on,,95.0,39.0,95.0,57780,30.09375
641,0.0,,,,,39.0,,,,,240,note_off,,95.0,39.0,95.0,58020,30.21875
642,0.0,,,,,59.0,,,,,0,note_on,,95.0,59.0,95.0,58020,30.21875
643,0.0,,,,,52.0,,,,,0,note_on,,95.0,52.0,95.0,58020,30.21875
644,0.0,,,,,59.0,,,,,240,note_off,,95.0,59.0,95.0,58260,30.34375
645,0.0,,,,,52.0,,,,,0,note_off,,95.0,52.0,95.0,58260,30.34375
646,0.0,,,,,58.0,,,,,0,note_on,,95.0,58.0,95.0,58260,30.34375
647,0.0,,,,,51.0,,,,,0,note_on,,95.0,51.0,95.0,58260,30.34375
648,0.0,,,,,58.0,,,,,240,note_off,,95.0,58.0,95.0,58500,30.46875
649,0.0,,,,,51.0,,,,,0,note_off,,95.0,51.0,95.0,58500,30.46875
650,0.0,,,,,57.0,,,,,0,note_on,,95.0,57.0,95.0,58500,30.46875
651,0.0,,,,,50.0,,,,,0,note_on,,95.0,50.0,95.0,58500,30.46875
652,0.0,,,,,57.0,,,,,480,note_off,,95.0,57.0,95.0,58980,30.71875
653,0.0,,,,,50.0,,,,,0,note_off,,95.0,50.0,95.0,58980,30.71875
654,0.0,,,,,39.0,,,,,0,note_on,,95.0,39.0,95.0,58980,30.71875
655,0.0,,,,,39.0,,,,,240,note_off,,95.0,39.0,95.0,59220,30.84375
656,0.0,,,,,39.0,,,,,240,note_on,,95.0,39.0,95.0,59460,30.96875
657,0.0,,,,,39.0,,,,,240,note_off,,95.0,39.0,95.0,59700,31.09375
658,0.0,,,,,39.0,,,,,0,note_on,,95.0,39.0,95.0,59700,31.09375
659,1.0,,,,,49.0,,,,,180,note_on,,95.0,49.0,95.0,14160,7.375
660,0.0,,,,,39.0,,,,,60,note_off,,95.0,39.0,95.0,59760,31.125
661,1.0,,,,,49.0,,,,,0,note_off,,95.0,49.0,95.0,14160,7.375
662,1.0,,,,,51.0,,,,,0,note_on,,95.0,51.0,95.0,14160,7.375
663,0.0,,,,,39.0,,,,,0,note_on,,95.0,39.0,95.0,59760,31.125
664,1.0,,,,,51.0,,,,,960,note_off,,95.0,51.0,95.0,15120,7.875
665,0.0,,,,,39.0,,,,,0,note_off,,95.0,39.0,95.0,59760,31.125
666,0.0,,,,,39.0,,,,,0,note_on,,95.0,39.0,95.0,59760,31.125
667,0.0,,,,,39.0,,,,,240,note_off,,95.0,39.0,95.0,60000,31.25
668,0.0,,,,,39.0,,,,,0,note_on,,95.0,39.0,95.0,60000,31.25
669,0.0,,,,,39.0,,,,,240,note_off,,95.0,39.0,95.0,60240,31.375
670,0.0,,,,,39.0,,,,,0,note_on,,95.0,39.0,95.0,60240,31.375
671,0.0,,,,,39.0,,,,,240,note_off,,95.0,39.0,95.0,60480,31.5
672,0.0,,,,,39.0,,,,,0,note_on,,95.0,39.0,95.0,60480,31.5
673,0.0,,,,,39.0,,,,,240,note_off,,95.0,39.0,95.0,60720,31.625
674,0.0,,,,,49.0,,,,,0,note_on,,95.0,49.0,95.0,60720,31.625
675,0.0,,,,,42.0,,,,,0,note_on,,95.0,42.0,95.0,60720,31.625
676,0.0,,,,,49.0,,,,,240,note_off,,95.0,49.0,95.0,60960,31.75
677,0.0,,,,,42.0,,,,,0,note_off,,95.0,42.0,95.0,60960,31.75
678,0.0,,,,,48.0,,,,,0,note_on,,95.0,48.0,95.0,60960,31.75
679,0.0,,,,,41.0,,,,,0,note_on,,95.0,41.0,95.0,60960,31.75
680,0.0,,,,,48.0,,,,,240,note_off,,95.0,48.0,95.0,61200,31.875
681,0.0,,,,,41.0,,,,,0,note_off,,95.0,41.0,95.0,61200,31.875
682,0.0,,,,,47.0,,,,,0,note_on,,95.0,47.0,95.0,61200,31.875
683,0.0,,,,,40.0,,,,,0,note_on,,95.0,40.0,95.0,61200,31.875
684,0.0,,,,,47.0,,,,,480,note_off,,95.0,47.0,95.0,61680,32.125
685,0.0,,,,,40.0,,,,,0,note_off,,95.0,40.0,95.0,61680,32.125
686,0.0,,,,,39.0,,,,,0,note_on,,95.0,39.0,95.0,61680,32.125
687,0.0,,,,,39.0,,,,,240,note_off,,95.0,39.0,95.0,61920,32.25
688,0.0,,,,,39.0,,,,,240,note_on,,95.0,39.0,95.0,62160,32.375
689,0.0,,,,,39.0,,,,,240,note_off,,95.0,39.0,95.0,62400,32.5
690,0.0,,,,,39.0,,,,,0,note_on,,95.0,39.0,95.0,62400,32.5
691,1.0,,,,,49.0,,,,,180,note_on,,95.0,49.0,95.0,15300,7.96875
692,0.0,,,,,39.0,,,,,60,note_off,,95.0,39.0,95.0,62460,32.53125
693,1.0,,,,,49.0,,,,,0,note_off,,95.0,49.0,95.0,15300,7.96875
694,1.0,,,,,51.0,,,,,0,note_on,,95.0,51.0,95.0,15300,7.96875
695,0.0,,,,,39.0,,,,,0,note_on,,95.0,39.0,95.0,62460,32.53125
696,1.0,,,,,51.0,,,,,960,note_off,,95.0,51.0,95.0,16260,8.46875
697,0.0,,,,,39.0,,,,,0,note_off,,95.0,39.0,95.0,62460,32.53125
698,0.0,,,,,39.0,,,,,0,note_on,,95.0,39.0,95.0,62460,32.53125
699,0.0,,,,,39.0,,,,,240,note_off,,95.0,39.0,95.0,62700,32.65625
700,0.0,,,,,39.0,,,,,240,note_on,,95.0,39.0,95.0,62940,32.78125
701,0.0,,,,,39.0,,,,,240,note_off,,95.0,39.0,95.0,63180,32.90625
702,0.0,,,,,39.0,,,,,0,note_on,,95.0,39.0,95.0,63180,32.90625
703,0.0,,,,,39.0,,,,,240,note_off,,95.0,39.0,95.0,63420,33.03125
704,0.0,,,,,59.0,,,,,0,note_on,,95.0,59.0,95.0,63420,33.03125
705,0.0,,,,,52.0,,,,,0,note_on,,95.0,52.0,95.0,63420,33.03125
706,0.0,,,,,59.0,,,,,240,note_off,,95.0,59.0,95.0,63660,33.15625
707,0.0,,,,,52.0,,,,,0,note_off,,95.0,52.0,95.0,63660,33.15625
708,0.0,,,,,58.0,,,,,0,note_on,,95.0,58.0,95.0,63660,33.15625
709,0.0,,,,,51.0,,,,,0,note_on,,95.0,51.0,95.0,63660,33.15625
710,0.0,,,,,58.0,,,,,240,note_off,,95.0,58.0,95.0,63900,33.28125
711,0.0,,,,,51.0,,,,,0,note_off,,95.0,51.0,95.0,63900,33.28125
712,0.0,,,,,57.0,,,,,0,note_on,,95.0,57.0,95.0,63900,33.28125
713,0.0,,,,,50.0,,,,,0,note_on,,95.0,50.0,95.0,63900,33.28125
714,0.0,,,,,57.0,,,,,480,note_off,,95.0,57.0,95.0,64380,33.53125
715,0.0,,,,,50.0,,,,,0,note_off,,95.0,50.0,95.0,64380,33.53125
716,0.0,,,,,39.0,,,,,0,note_on,,95.0,39.0,95.0,64380,33.53125
717,0.0,,,,,39.0,,,,,240,note_off,,95.0,39.0,95.0,64620,33.65625
718,0.0,,,,,39.0,,,,,240,note_on,,95.0,39.0,95.0,64860,33.78125
719,0.0,,,,,39.0,,,,,240,note_off,,95.0,39.0,95.0,65100,33.90625
720,0.0,,,,,39.0,,,,,0,note_on,,95.0,39.0,95.0,65100,33.90625
721,1.0,,,,,49.0,,,,,180,note_on,,95.0,49.0,95.0,16440,8.5625
722,0.0,,,,,39.0,,,,,60,note_off,,95.0,39.0,95.0,65160,33.9375
723,1.0,,,,,49.0,,,,,0,note_off,,95.0,49.0,95.0,16440,8.5625
724,1.0,,,,,51.0,,,,,0,note_on,,95.0,51.0,95.0,16440,8.5625
725,0.0,,,,,39.0,,,,,0,note_on,,95.0,39.0,95.0,65160,33.9375
726,1.0,,,,,51.0,,,,,960,note_off,,95.0,51.0,95.0,17400,9.0625
727,0.0,,,,,39.0,,,,,0,note_off,,95.0,39.0,95.0,65160,33.9375
728,0.0,,,,,39.0,,,,,0,note_on,,95.0,39.0,95.0,65160,33.9375
729,0.0,,,,,39.0,,,,,240,note_off,,95.0,39.0,95.0,65400,34.0625
730,0.0,,,,,39.0,,,,,240,note_on,,95.0,39.0,95.0,65640,34.1875
731,0.0,,,,,39.0,,,,,240,note_off,,95.0,39.0,95.0,65880,34.3125
732,0.0,,,,,39.0,,,,,0,note_on,,95.0,39.0,95.0,65880,34.3125
733,0.0,,,,,39.0,,,,,240,note_off,,95.0,39.0,95.0,66120,34.4375
734,0.0,,,,,61.0,,,,,0,note_on,,95.0,61.0,95.0,66120,34.4375
735,0.0,,,,,54.0,,,,,0,note_on,,95.0,54.0,95.0,66120,34.4375
736,0.0,,,,,61.0,,,,,240,note_off,,95.0,61.0,95.0,66360,34.5625
737,0.0,,,,,54.0,,,,,0,note_off,,95.0,54.0,95.0,66360,34.5625
738,0.0,,,,,60.0,,,,,0,note_on,,95.0,60.0,95.0,66360,34.5625
739,0.0,,,,,53.0,,,,,0,note_on,,95.0,53.0,95.0,66360,34.5625
740,0.0,,,,,60.0,,,,,240,note_off,,95.0,60.0,95.0,66600,34.6875
741,0.0,,,,,53.0,,,,,0,note_off,,95.0,53.0,95.0,66600,34.6875
742,0.0,,,,,59.0,,,,,0,note_on,,95.0,59.0,95.0,66600,34.6875
743,0.0,,,,,52.0,,,,,0,note_on,,95.0,52.0,95.0,66600,34.6875
744,0.0,,,,,59.0,,,,,480,note_off,,95.0,59.0,95.0,67080,34.9375
745,0.0,,,,,52.0,,,,,0,note_off,,95.0,52.0,95.0,67080,34.9375
746,0.0,,,,,39.0,,,,,0,note_on,,95.0,39.0,95.0,67080,34.9375
747,0.0,,,,,39.0,,,,,240,note_off,,95.0,39.0,95.0,67320,35.0625
748,0.0,,,,,39.0,,,,,240,note_on,,95.0,39.0,95.0,67560,35.1875
749,0.0,,,,,39.0,,,,,240,note_off,,95.0,39.0,95.0,67800,35.3125
750,0.0,,,,,39.0,,,,,0,note_on,,95.0,39.0,95.0,67800,35.3125
751,1.0,,,,,49.0,,,,,180,note_on,,95.0,49.0,95.0,17580,9.15625
752,0.0,,,,,39.0,,,,,60,note_off,,95.0,39.0,95.0,67860,35.34375
753,1.0,,,,,49.0,,,,,0,note_off,,95.0,49.0,95.0,17580,9.15625
754,1.0,,,,,51.0,,,,,0,note_on,,95.0,51.0,95.0,17580,9.15625
755,0.0,,,,,39.0,,,,,0,note_on,,95.0,39.0,95.0,67860,35.34375
756,1.0,,,,,51.0,,,,,960,note_off,,95.0,51.0,95.0,18540,9.65625
757,0.0,,,,,39.0,,,,,0,note_off,,95.0,39.0,95.0,67860,35.34375
758,0.0,,,,,39.0,,,,,0,note_on,,95.0,39.0,95.0,67860,35.34375
759,0.0,,,,,39.0,,,,,240,note_off,,95.0,39.0,95.0,68100,35.46875
760,0.0,,,,,39.0,,,,,240,note_on,,95.0,39.0,95.0,68340,35.59375
761,0.0,,,,,39.0,,,,,240,note_off,,95.0,39.0,95.0,68580,35.71875
762,0.0,,,,,39.0,,,,,0,note_on,,95.0,39.0,95.0,68580,35.71875
763,0.0,,,,,39.0,,,,,240,note_off,,95.0,39.0,95.0,68820,35.84375
764,0.0,,,,,59.0,,,,,0,note_on,,95.0,59.0,95.0,68820,35.84375
765,0.0,,,,,52.0,,,,,0,note_on,,95.0,52.0,95.0,68820,35.84375
766,0.0,,,,,59.0,,,,,240,note_off,,95.0,59.0,95.0,69060,35.96875
767,0.0,,,,,52.0,,,,,0,note_off,,95.0,52.0,95.0,69060,35.96875
768,0.0,,,,,58.0,,,,,0,note_on,,95.0,58.0,95.0,69060,35.96875
769,0.0,,,,,51.0,,,,,0,note_on,,95.0,51.0,95.0,69060,35.96875
770,0.0,,,,,58.0,,,,,240,note_off,,95.0,58.0,95.0,69300,36.09375
771,0.0,,,,,51.0,,,,,0,note_off,,95.0,51.0,95.0,69300,36.09375
772,0.0,,,,,57.0,,,,,0,note_on,,95.0,57.0,95.0,69300,36.09375
773,0.0,,,,,50.0,,,,,0,note_on,,95.0,50.0,95.0,69300,36.09375
774,0.0,,,,,57.0,,,,,480,note_off,,95.0,57.0,95.0,69780,36.34375
775,0.0,,,,,50.0,,,,,0,note_off,,95.0,50.0,95.0,69780,36.34375
776,0.0,,,,,39.0,,,,,0,note_on,,95.0,39.0,95.0,69780,36.34375
777,0.0,,,,,39.0,,,,,240,note_off,,95.0,39.0,95.0,70020,36.46875
778,0.0,,,,,39.0,,,,,240,note_on,,95.0,39.0,95.0,70260,36.59375
779,0.0,,,,,39.0,,,,,240,note_off,,95.0,39.0,95.0,70500,36.71875
780,0.0,,,,,39.0,,,,,0,note_on,,95.0,39.0,95.0,70500,36.71875
781,1.0,,,,,49.0,,,,,180,note_on,,95.0,49.0,95.0,18720,9.75
782,0.0,,,,,39.0,,,,,60,note_off,,95.0,39.0,95.0,70560,36.75
783,1.0,,,,,49.0,,,,,0,note_off,,95.0,49.0,95.0,18720,9.75
784,1.0,,,,,51.0,,,,,0,note_on,,95.0,51.0,95.0,18720,9.75
785,0.0,,,,,39.0,,,,,0,note_on,,95.0,39.0,95.0,70560,36.75
786,1.0,,,,,51.0,,,,,960,note_off,,95.0,51.0,95.0,19680,10.25
787,0.0,,,,,39.0,,,,,0,note_off,,95.0,39.0,95.0,70560,36.75
788,0.0,,,,,39.0,,,,,0,note_on,,95.0,39.0,95.0,70560,36.75
789,0.0,,,,,39.0,,,,,240,note_off,,95.0,39.0,95.0,70800,36.875
790,0.0,,,,,39.0,,,,,0,note_on,,95.0,39.0,95.0,70800,36.875
791,0.0,,,,,39.0,,,,,240,note_off,,95.0,39.0,95.0,71040,37.0
792,0.0,,,,,39.0,,,,,0,note_on,,95.0,39.0,95.0,71040,37.0
793,0.0,,,,,39.0,,,,,240,note_off,,95.0,39.0,95.0,71280,37.125
794,0.0,,,,,39.0,,,,,0,note_on,,95.0,39.0,95.0,71280,37.125
795,0.0,,,,,39.0,,,,,240,note_off,,95.0,39.0,95.0,71520,37.25
796,0.0,,,,,49.0,,,,,0,note_on,,95.0,49.0,95.0,71520,37.25
797,0.0,,,,,42.0,,,,,0,note_on,,95.0,42.0,95.0,71520,37.25
798,0.0,,,,,49.0,,,,,240,note_off,,95.0,49.0,95.0,71760,37.375
799,0.0,,,,,42.0,,,,,0,note_off,,95.0,42.0,95.0,71760,37.375
800,0.0,,,,,48.0,,,,,0,note_on,,95.0,48.0,95.0,71760,37.375
801,0.0,,,,,41.0,,,,,0,note_on,,95.0,41.0,95.0,71760,37.375
802,0.0,,,,,48.0,,,,,240,note_off,,95.0,48.0,95.0,72000,37.5
803,0.0,,,,,41.0,,,,,0,note_off,,95.0,41.0,95.0,72000,37.5
804,0.0,,,,,47.0,,,,,0,note_on,,95.0,47.0,95.0,72000,37.5
805,0.0,,,,,40.0,,,,,0,note_on,,95.0,40.0,95.0,72000,37.5
806,0.0,,,,,47.0,,,,,480,note_off,,95.0,47.0,95.0,72480,37.75
807,0.0,,,,,40.0,,,,,0,note_off,,95.0,40.0,95.0,72480,37.75
808,0.0,,,,,39.0,,,,,0,note_on,,95.0,39.0,95.0,72480,37.75
809,0.0,,,,,39.0,,,,,240,note_off,,95.0,39.0,95.0,72720,37.875
810,0.0,,,,,39.0,,,,,240,note_on,,95.0,39.0,95.0,72960,38.0
811,0.0,,,,,39.0,,,,,240,note_off,,95.0,39.0,95.0,73200,38.125
812,0.0,,,,,39.0,,,,,0,note_on,,95.0,39.0,95.0,73200,38.125
813,1.0,,,,,49.0,,,,,180,note_on,,95.0,49.0,95.0,19860,10.34375
814,0.0,,,,,39.0,,,,,60,note_off,,95.0,39.0,95.0,73260,38.15625
815,1.0,,,,,49.0,,,,,0,note_off,,95.0,49.0,95.0,19860,10.34375
816,1.0,,,,,51.0,,,,,0,note_on,,95.0,51.0,95.0,19860,10.34375
817,0.0,,,,,39.0,,,,,0,note_on,,95.0,39.0,95.0,73260,38.15625
818,1.0,,,,,51.0,,,,,960,note_off,,95.0,51.0,95.0,20820,10.84375
819,0.0,,,,,39.0,,,,,0,note_off,,95.0,39.0,95.0,73260,38.15625
820,0.0,,,,,39.0,,,,,0,note_on,,95.0,39.0,95.0,73260,38.15625
821,0.0,,,,,39.0,,,,,240,note_off,,95.0,39.0,95.0,73500,38.28125
822,0.0,,,,,39.0,,,,,240,note_on,,95.0,39.0,95.0,73740,38.40625
823,0.0,,,,,39.0,,,,,240,note_off,,95.0,39.0,95.0,73980,38.53125
824,0.0,,,,,39.0,,,,,0,note_on,,95.0,39.0,95.0,73980,38.53125
825,0.0,,,,,39.0,,,,,240,note_off,,95.0,39.0,95.0,74220,38.65625
826,0.0,,,,,59.0,,,,,0,note_on,,95.0,59.0,95.0,74220,38.65625
827,0.0,,,,,52.0,,,,,0,note_on,,95.0,52.0,95.0,74220,38.65625
828,0.0,,,,,59.0,,,,,240,note_off,,95.0,59.0,95.0,74460,38.78125
829,0.0,,,,,52.0,,,,,0,note_off,,95.0,52.0,95.0,74460,38.78125
830,0.0,,,,,58.0,,,,,0,note_on,,95.0,58.0,95.0,74460,38.78125
831,0.0,,,,,51.0,,,,,0,note_on,,95.0,51.0,95.0,74460,38.78125
832,0.0,,,,,58.0,,,,,240,note_off,,95.0,58.0,95.0,74700,38.90625
833,0.0,,,,,51.0,,,,,0,note_off,,95.0,51.0,95.0,74700,38.90625
834,0.0,,,,,57.0,,,,,0,note_on,,95.0,57.0,95.0,74700,38.90625
835,0.0,,,,,50.0,,,,,0,note_on,,95.0,50.0,95.0,74700,38.90625
836,0.0,,,,,57.0,,,,,480,note_off,,95.0,57.0,95.0,75180,39.15625
837,0.0,,,,,50.0,,,,,0,note_off,,95.0,50.0,95.0,75180,39.15625
838,0.0,,,,,39.0,,,,,0,note_on,,95.0,39.0,95.0,75180,39.15625
839,0.0,,,,,39.0,,,,,240,note_off,,95.0,39.0,95.0,75420,39.28125
840,0.0,,,,,39.0,,,,,240,note_on,,95.0,39.0,95.0,75660,39.40625
841,0.0,,,,,39.0,,,,,240,note_off,,95.0,39.0,95.0,75900,39.53125
842,0.0,,,,,39.0,,,,,0,note_on,,95.0,39.0,95.0,75900,39.53125
843,1.0,,,,,49.0,,,,,180,note_on,,95.0,49.0,95.0,21000,10.9375
844,0.0,,,,,39.0,,,,,60,note_off,,95.0,39.0,95.0,75960,39.5625
845,1.0,,,,,49.0,,,,,0,note_off,,95.0,49.0,95.0,21000,10.9375
846,1.0,,,,,51.0,,,,,0,note_on,,95.0,51.0,95.0,21000,10.9375
847,0.0,,,,,39.0,,,,,0,note_on,,95.0,39.0,95.0,75960,39.5625
848,1.0,,,,,51.0,,,,,960,note_off,,95.0,51.0,95.0,21960,11.4375
849,0.0,,,,,39.0,,,,,0,note_off,,95.0,39.0,95.0,75960,39.5625
850,0.0,,,,,39.0,,,,,0,note_on,,95.0,39.0,95.0,75960,39.5625
851,0.0,,,,,39.0,,,,,240,note_off,,95.0,39.0,95.0,76200,39.6875
852,0.0,,,,,39.0,,,,,240,note_on,,95.0,39.0,95.0,76440,39.8125
853,0.0,,,,,39.0,,,,,240,note_off,,95.0,39.0,95.0,76680,39.9375
854,0.0,,,,,39.0,,,,,0,note_on,,95.0,39.0,95.0,76680,39.9375
855,0.0,,,,,39.0,,,,,240,note_off,,95.0,39.0,95.0,76920,40.0625
856,0.0,,,,,61.0,,,,,0,note_on,,95.0,61.0,95.0,76920,40.0625
857,0.0,,,,,54.0,,,,,0,note_on,,95.0,54.0,95.0,76920,40.0625
858,0.0,,,,,61.0,,,,,240,note_off,,95.0,61.0,95.0,77160,40.1875
859,0.0,,,,,54.0,,,,,0,note_off,,95.0,54.0,95.0,77160,40.1875
860,0.0,,,,,60.0,,,,,0,note_on,,95.0,60.0,95.0,77160,40.1875
861,0.0,,,,,53.0,,,,,0,note_on,,95.0,53.0,95.0,77160,40.1875
862,0.0,,,,,60.0,,,,,240,note_off,,95.0,60.0,95.0,77400,40.3125
863,0.0,,,,,53.0,,,,,0,note_off,,95.0,53.0,95.0,77400,40.3125
864,0.0,,,,,59.0,,,,,0,note_on,,95.0,59.0,95.0,77400,40.3125
865,0.0,,,,,52.0,,,,,0,note_on,,95.0,52.0,95.0,77400,40.3125
866,0.0,,,,,59.0,,,,,480,note_off,,95.0,59.0,95.0,77880,40.5625
867,0.0,,,,,52.0,,,,,0,note_off,,95.0,52.0,95.0,77880,40.5625
868,0.0,,,,,39.0,,,,,0,note_on,,95.0,39.0,95.0,77880,40.5625
869,0.0,,,,,39.0,,,,,240,note_off,,95.0,39.0,95.0,78120,40.6875
870,0.0,,,,,39.0,,,,,240,note_on,,95.0,39.0,95.0,78360,40.8125
871,0.0,,,,,39.0,,,,,240,note_off,,95.0,39.0,95.0,78600,40.9375
872,0.0,,,,,39.0,,,,,0,note_on,,95.0,39.0,95.0,78600,40.9375
873,1.0,,,,,49.0,,,,,180,note_on,,95.0,49.0,95.0,22140,11.53125
874,0.0,,,,,39.0,,,,,60,note_off,,95.0,39.0,95.0,78660,40.96875
875,1.0,,,,,49.0,,,,,0,note_off,,95.0,49.0,95.0,22140,11.53125
876,1.0,,,,,51.0,,,,,0,note_on,,95.0,51.0,95.0,22140,11.53125
877,0.0,,,,,39.0,,,,,0,note_on,,95.0,39.0,95.0,78660,40.96875
878,1.0,,,,,51.0,,,,,960,note_off,,95.0,51.0,95.0,23100,12.03125
879,0.0,,,,,39.0,,,,,0,note_off,,95.0,39.0,95.0,78660,40.96875
880,0.0,,,,,39.0,,,,,0,note_on,,95.0,39.0,95.0,78660,40.96875
881,0.0,,,,,39.0,,,,,240,note_off,,95.0,39.0,95.0,78900,41.09375
882,0.0,,,,,39.0,,,,,240,note_on,,95.0,39.0,95.0,79140,41.21875
883,0.0,,,,,39.0,,,,,240,note_off,,95.0,39.0,95.0,79380,41.34375
884,0.0,,,,,39.0,,,,,0,note_on,,95.0,39.0,95.0,79380,41.34375
885,0.0,,,,,39.0,,,,,240,note_off,,95.0,39.0,95.0,79620,41.46875
886,0.0,,,,,59.0,,,,,0,note_on,,95.0,59.0,95.0,79620,41.46875
887,0.0,,,,,52.0,,,,,0,note_on,,95.0,52.0,95.0,79620,41.46875
888,0.0,,,,,59.0,,,,,240,note_off,,95.0,59.0,95.0,79860,41.59375
889,0.0,,,,,52.0,,,,,0,note_off,,95.0,52.0,95.0,79860,41.59375
890,0.0,,,,,58.0,,,,,0,note_on,,95.0,58.0,95.0,79860,41.59375
891,0.0,,,,,51.0,,,,,0,note_on,,95.0,51.0,95.0,79860,41.59375
892,0.0,,,,,58.0,,,,,240,note_off,,95.0,58.0,95.0,80100,41.71875
893,0.0,,,,,51.0,,,,,0,note_off,,95.0,51.0,95.0,80100,41.71875
894,0.0,,,,,57.0,,,,,0,note_on,,95.0,57.0,95.0,80100,41.71875
895,0.0,,,,,50.0,,,,,0,note_on,,95.0,50.0,95.0,80100,41.71875
896,0.0,,,,,57.0,,,,,480,note_off,,95.0,57.0,95.0,80580,41.96875
897,0.0,,,,,50.0,,,,,0,note_off,,95.0,50.0,95.0,80580,41.96875
898,0.0,,,,,39.0,,,,,0,note_on,,95.0,39.0,95.0,80580,41.96875
899,0.0,,,,,39.0,,,,,240,note_off,,95.0,39.0,95.0,80820,42.09375
900,0.0,,,,,39.0,,,,,240,note_on,,95.0,39.0,95.0,81060,42.21875
901,0.0,,,,,39.0,,,,,240,note_off,,95.0,39.0,95.0,81300,42.34375
902,0.0,,,,,39.0,,,,,0,note_on,,95.0,39.0,95.0,81300,42.34375
903,1.0,,,,,49.0,,,,,180,note_on,,95.0,49.0,95.0,23280,12.125
904,0.0,,,,,39.0,,,,,60,note_off,,95.0,39.0,95.0,81360,42.375
905,1.0,,,,,49.0,,,,,0,note_off,,95.0,49.0,95.0,23280,12.125
906,1.0,,,,,51.0,,,,,0,note_on,,95.0,51.0,95.0,23280,12.125
907,0.0,,,,,39.0,,,,,0,note_on,,95.0,39.0,95.0,81360,42.375
908,1.0,,,,,51.0,,,,,960,note_off,,95.0,51.0,95.0,24240,12.625
909,0.0,,,,,39.0,,,,,0,note_off,,95.0,39.0,95.0,81360,42.375
910,0.0,,,,,39.0,,,,,0,note_on,,95.0,39.0,95.0,81360,42.375
911,0.0,,,,,39.0,,,,,240,note_off,,95.0,39.0,95.0,81600,42.5
912,0.0,,,,,39.0,,,,,0,note_on,,95.0,39.0,95.0,81600,42.5
913,0.0,,,,,39.0,,,,,240,note_off,,95.0,39.0,95.0,81840,42.625
914,0.0,,,,,39.0,,,,,0,note_on,,95.0,39.0,95.0,81840,42.625
915,0.0,,,,,39.0,,,,,240,note_off,,95.0,39.0,95.0,82080,42.75
916,0.0,,,,,39.0,,,,,0,note_on,,95.0,39.0,95.0,82080,42.75
917,0.0,,,,,39.0,,,,,240,note_off,,95.0,39.0,95.0,82320,42.875
918,0.0,,,,,49.0,,,,,0,note_on,,95.0,49.0,95.0,82320,42.875
919,0.0,,,,,42.0,,,,,0,note_on,,95.0,42.0,95.0,82320,42.875
920,0.0,,,,,49.0,,,,,240,note_off,,95.0,49.0,95.0,82560,43.0
921,0.0,,,,,42.0,,,,,0,note_off,,95.0,42.0,95.0,82560,43.0
922,0.0,,,,,48.0,,,,,0,note_on,,95.0,48.0,95.0,82560,43.0
923,0.0,,,,,41.0,,,,,0,note_on,,95.0,41.0,95.0,82560,43.0
924,0.0,,,,,48.0,,,,,240,note_off,,95.0,48.0,95.0,82800,43.125
925,0.0,,,,,41.0,,,,,0,note_off,,95.0,41.0,95.0,82800,43.125
926,0.0,,,,,47.0,,,,,0,note_on,,95.0,47.0,95.0,82800,43.125
927,0.0,,,,,40.0,,,,,0,note_on,,95.0,40.0,95.0,82800,43.125
928,0.0,,,,,47.0,,,,,480,note_off,,95.0,47.0,95.0,83280,43.375
929,0.0,,,,,40.0,,,,,0,note_off,,95.0,40.0,95.0,83280,43.375
930,0.0,,,,,39.0,,,,,0,note_on,,95.0,39.0,95.0,83280,43.375
931,0.0,,,,,39.0,,,,,240,note_off,,95.0,39.0,95.0,83520,43.5
932,0.0,,,,,39.0,,,,,240,note_on,,95.0,39.0,95.0,83760,43.625
933,0.0,,,,,39.0,,,,,240,note_off,,95.0,39.0,95.0,84000,43.75
934,0.0,,,,,39.0,,,,,0,note_on,,95.0,39.0,95.0,84000,43.75
935,1.0,,,,,49.0,,,,,180,note_on,,95.0,49.0,95.0,24420,12.71875
936,0.0,,,,,39.0,,,,,60,note_off,,95.0,39.0,95.0,84060,43.78125
937,1.0,,,,,49.0,,,,,0,note_off,,95.0,49.0,95.0,24420,12.71875
938,1.0,,,,,51.0,,,,,0,note_on,,95.0,51.0,95.0,24420,12.71875
939,0.0,,,,,39.0,,,,,0,note_on,,95.0,39.0,95.0,84060,43.78125
940,1.0,,,,,51.0,,,,,960,note_off,,95.0,51.0,95.0,25380,13.21875
941,0.0,,,,,39.0,,,,,0,note_off,,95.0,39.0,95.0,84060,43.78125
942,0.0,,,,,39.0,,,,,0,note_on,,95.0,39.0,95.0,84060,43.78125
943,0.0,,,,,39.0,,,,,240,note_off,,95.0,39.0,95.0,84300,43.90625
944,0.0,,,,,39.0,,,,,240,note_on,,95.0,39.0,95.0,84540,44.03125
945,0.0,,,,,39.0,,,,,240,note_off,,95.0,39.0,95.0,84780,44.15625
946,0.0,,,,,39.0,,,,,0,note_on,,95.0,39.0,95.0,84780,44.15625
947,0.0,,,,,39.0,,,,,240,note_off,,95.0,39.0,95.0,85020,44.28125
948,0.0,,,,,59.0,,,,,0,note_on,,95.0,59.0,95.0,85020,44.28125
949,0.0,,,,,52.0,,,,,0,note_on,,95.0,52.0,95.0,85020,44.28125
950,0.0,,,,,59.0,,,,,240,note_off,,95.0,59.0,95.0,85260,44.40625
951,0.0,,,,,52.0,,,,,0,note_off,,95.0,52.0,95.0,85260,44.40625
952,0.0,,,,,58.0,,,,,0,note_on,,95.0,58.0,95.0,85260,44.40625
953,0.0,,,,,51.0,,,,,0,note_on,,95.0,51.0,95.0,85260,44.40625
954,0.0,,,,,58.0,,,,,240,note_off,,95.0,58.0,95.0,85500,44.53125
955,0.0,,,,,51.0,,,,,0,note_off,,95.0,51.0,95.0,85500,44.53125
956,0.0,,,,,57.0,,,,,0,note_on,,95.0,57.0,95.0,85500,44.53125
957,0.0,,,,,50.0,,,,,0,note_on,,95.0,50.0,95.0,85500,44.53125
958,0.0,,,,,57.0,,,,,480,note_off,,95.0,57.0,95.0,85980,44.78125
959,0.0,,,,,50.0,,,,,0,note_off,,95.0,50.0,95.0,85980,44.78125
960,0.0,,,,,39.0,,,,,0,note_on,,95.0,39.0,95.0,85980,44.78125
961,0.0,,,,,39.0,,,,,240,note_off,,95.0,39.0,95.0,86220,44.90625
962,0.0,,,,,39.0,,,,,240,note_on,,95.0,39.0,95.0,86460,45.03125
963,0.0,,,,,39.0,,,,,240,note_off,,95.0,39.0,95.0,86700,45.15625
964,0.0,,,,,39.0,,,,,0,note_on,,95.0,39.0,95.0,86700,45.15625
965,1.0,,,,,49.0,,,,,180,note_on,,95.0,49.0,95.0,25560,13.3125
966,0.0,,,,,39.0,,,,,60,note_off,,95.0,39.0,95.0,86760,45.1875
967,1.0,,,,,49.0,,,,,0,note_off,,95.0,49.0,95.0,25560,13.3125
968,1.0,,,,,51.0,,,,,0,note_on,,95.0,51.0,95.0,25560,13.3125
969,0.0,,,,,39.0,,,,,0,note_on,,95.0,39.0,95.0,86760,45.1875
970,1.0,,,,,51.0,,,,,960,note_off,,95.0,51.0,95.0,26520,13.8125
971,0.0,,,,,39.0,,,,,0,note_off,,95.0,39.0,95.0,86760,45.1875
972,0.0,,,,,39.0,,,,,0,note_on,,95.0,39.0,95.0,86760,45.1875
973,0.0,,,,,39.0,,,,,240,note_off,,95.0,39.0,95.0,87000,45.3125
974,0.0,,,,,39.0,,,,,240,note_on,,95.0,39.0,95.0,87240,45.4375
975,0.0,,,,,39.0,,,,,240,note_off,,95.0,39.0,95.0,87480,45.5625
976,0.0,,,,,39.0,,,,,0,note_on,,95.0,39.0,95.0,87480,45.5625
977,0.0,,,,,39.0,,,,,240,note_off,,95.0,39.0,95.0,87720,45.6875
978,0.0,,,,,61.0,,,,,0,note_on,,95.0,61.0,95.0,87720,45.6875
979,0.0,,,,,54.0,,,,,0,note_on,,95.0,54.0,95.0,87720,45.6875
980,0.0,,,,,61.0,,,,,240,note_off,,95.0,61.0,95.0,87960,45.8125
981,0.0,,,,,54.0,,,,,0,note_off,,95.0,54.0,95.0,87960,45.8125
982,0.0,,,,,60.0,,,,,0,note_on,,95.0,60.0,95.0,87960,45.8125
983,0.0,,,,,53.0,,,,,0,note_on,,95.0,53.0,95.0,87960,45.8125
984,0.0,,,,,60.0,,,,,240,note_off,,95.0,60.0,95.0,88200,45.9375
985,0.0,,,,,53.0,,,,,0,note_off,,95.0,53.0,95.0,88200,45.9375
986,0.0,,,,,59.0,,,,,0,note_on,,95.0,59.0,95.0,88200,45.9375
987,0.0,,,,,52.0,,,,,0,note_on,,95.0,52.0,95.0,88200,45.9375
988,0.0,,,,,59.0,,,,,480,note_off,,95.0,59.0,95.0,88680,46.1875
989,0.0,,,,,52.0,,,,,0,note_off,,95.0,52.0,95.0,88680,46.1875
990,0.0,,,,,39.0,,,,,0,note_on,,95.0,39.0,95.0,88680,46.1875
991,0.0,,,,,39.0,,,,,240,note_off,,95.0,39.0,95.0,88920,46.3125
992,0.0,,,,,39.0,,,,,240,note_on,,95.0,39.0,95.0,89160,46.4375
993,0.0,,,,,39.0,,,,,240,note_off,,95.0,39.0,95.0,89400,46.5625
994,0.0,,,,,39.0,,,,,0,note_on,,95.0,39.0,95.0,89400,46.5625
995,1.0,,,,,49.0,,,,,180,note_on,,95.0,49.0,95.0,26700,13.90625
996,0.0,,,,,39.0,,,,,60,note_off,,95.0,39.0,95.0,89460,46.59375
997,1.0,,,,,49.0,,,,,0,note_off,,95.0,49.0,95.0,26700,13.90625
998,1.0,,,,,51.0,,,,,0,note_on,,95.0,51.0,95.0,26700,13.90625
999,0.0,,,,,39.0,,,,,0,note_on,,95.0,39.0,95.0,89460,46.59375
1000,1.0,,,,,51.0,,,,,960,note_off,,95.0,51.0,95.0,27660,14.40625
1001,0.0,,,,,39.0,,,,,0,note_off,,95.0,39.0,95.0,89460,46.59375
1002,0.0,,,,,39.0,,,,,0,note_on,,95.0,39.0,95.0,89460,46.59375
1003,0.0,,,,,39.0,,,,,240,note_off,,95.0,39.0,95.0,89700,46.71875
1004,0.0,,,,,39.0,,,,,240,note_on,,95.0,39.0,95.0,89940,46.84375
1005,0.0,,,,,39.0,,,,,240,note_off,,95.0,39.0,95.0,90180,46.96875
1006,0.0,,,,,39.0,,,,,0,note_on,,95.0,39.0,95.0,90180,46.96875
1007,0.0,,,,,39.0,,,,,240,note_off,,95.0,39.0,95.0,90420,47.09375
1008,0.0,,,,,59.0,,,,,0,note_on,,95.0,59.0,95.0,90420,47.09375
1009,0.0,,,,,52.0,,,,,0,note_on,,95.0,52.0,95.0,90420,47.09375
1010,0.0,,,,,59.0,,,,,240,note_off,,95.0,59.0,95.0,90660,47.21875
1011,0.0,,,,,52.0,,,,,0,note_off,,95.0,52.0,95.0,90660,47.21875
1012,0.0,,,,,58.0,,,,,0,note_on,,95.0,58.0,95.0,90660,47.21875
1013,0.0,,,,,51.0,,,,,0,note_on,,95.0,51.0,95.0,90660,47.21875
1014,0.0,,,,,58.0,,,,,240,note_off,,95.0,58.0,95.0,90900,47.34375
1015,0.0,,,,,51.0,,,,,0,note_off,,95.0,51.0,95.0,90900,47.34375
1016,0.0,,,,,57.0,,,,,0,note_on,,95.0,57.0,95.0,90900,47.34375
1017,0.0,,,,,50.0,,,,,0,note_on,,95.0,50.0,95.0,90900,47.34375
1018,0.0,,,,,57.0,,,,,480,note_off,,95.0,57.0,95.0,91380,47.59375
1019,0.0,,,,,50.0,,,,,0,note_off,,95.0,50.0,95.0,91380,47.59375
1020,0.0,,,,,39.0,,,,,0,note_on,,95.0,39.0,95.0,91380,47.59375
1021,0.0,,,,,39.0,,,,,240,note_off,,95.0,39.0,95.0,91620,47.71875
1022,0.0,,,,,39.0,,,,,240,note_on,,95.0,39.0,95.0,91860,47.84375
1023,0.0,,,,,39.0,,,,,240,note_off,,95.0,39.0,95.0,92100,47.96875
1024,0.0,,,,,39.0,,,,,0,note_on,,95.0,39.0,95.0,92100,47.96875
1025,1.0,,,,,49.0,,,,,180,note_on,,95.0,49.0,95.0,27840,14.5
1026,0.0,,,,,39.0,,,,,60,note_off,,95.0,39.0,95.0,92160,48.0
1027,1.0,,,,,49.0,,,,,0,note_off,,95.0,49.0,95.0,27840,14.5
1028,1.0,,,,,51.0,,,,,0,note_on,,95.0,51.0,95.0,27840,14.5
1029,0.0,,,,,39.0,,,,,0,note_on,,95.0,39.0,95.0,92160,48.0
1030,1.0,,,,,51.0,,,,,960,note_off,,95.0,51.0,95.0,28800,15.0
1031,0.0,,,,,39.0,,,,,0,note_off,,95.0,39.0,95.0,92160,48.0
1032,0.0,,,,,39.0,,,,,0,note_on,,95.0,39.0,95.0,92160,48.0
1033,0.0,,,,,39.0,,,,,240,note_off,,95.0,39.0,95.0,92400,48.125
1034,0.0,,,,,39.0,,,,,0,note_on,,95.0,39.0,95.0,92400,48.125
1035,0.0,,,,,39.0,,,,,240,note_off,,95.0,39.0,95.0,92640,48.25
1036,0.0,,,,,39.0,,,,,0,note_on,,95.0,39.0,95.0,92640,48.25
1037,0.0,,,,,39.0,,,,,240,note_off,,95.0,39.0,95.0,92880,48.375
1038,0.0,,,,,39.0,,,,,0,note_on,,95.0,39.0,95.0,92880,48.375
1039,0.0,,,,,39.0,,,,,240,note_off,,95.0,39.0,95.0,93120,48.5
1040,0.0,,,,,49.0,,,,,0,note_on,,95.0,49.0,95.0,93120,48.5
1041,0.0,,,,,42.0,,,,,0,note_on,,95.0,42.0,95.0,93120,48.5
1042,0.0,,,,,49.0,,,,,240,note_off,,95.0,49.0,95.0,93360,48.625
1043,0.0,,,,,42.0,,,,,0,note_off,,95.0,42.0,95.0,93360,48.625
1044,0.0,,,,,48.0,,,,,0,note_on,,95.0,48.0,95.0,93360,48.625
1045,0.0,,,,,41.0,,,,,0,note_on,,95.0,41.0,95.0,93360,48.625
1046,0.0,,,,,48.0,,,,,240,note_off,,95.0,48.0,95.0,93600,48.75
1047,0.0,,,,,41.0,,,,,0,note_off,,95.0,41.0,95.0,93600,48.75
1048,0.0,,,,,47.0,,,,,0,note_on,,95.0,47.0,95.0,93600,48.75
1049,0.0,,,,,40.0,,,,,0,note_on,,95.0,40.0,95.0,93600,48.75
1050,0.0,,,,,47.0,,,,,480,note_off,,95.0,47.0,95.0,94080,49.0
1051,0.0,,,,,40.0,,,,,0,note_off,,95.0,40.0,95.0,94080,49.0
1052,0.0,,,,,48.0,,,,,0,note_on,,95.0,48.0,95.0,94080,49.0
1053,0.0,,,,,41.0,,,,,0,note_on,,95.0,41.0,95.0,94080,49.0
1054,0.0,,,,,48.0,,,,,2880,note_off,,95.0,48.0,95.0,96960,50.5
1055,0.0,,,,,41.0,,,,,0,note_off,,95.0,41.0,95.0,96960,50.5
1056,0.0,,,,,49.0,,,,,0,note_on,,95.0,49.0,95.0,96960,50.5
1057,0.0,,,,,42.0,,,,,0,note_on,,95.0,42.0,95.0,96960,50.5
1058,0.0,,,,,49.0,,,,,960,note_off,,95.0,49.0,95.0,97920,51.0
1059,0.0,,,,,42.0,,,,,0,note_off,,95.0,42.0,95.0,97920,51.0
1060,0.0,,,,,39.0,,,,,0,note_on,,95.0,39.0,95.0,97920,51.0
1061,0.0,,,,,39.0,,,,,240,note_off,,95.0,39.0,95.0,98160,51.125
1062,0.0,,,,,39.0,,,,,0,note_on,,95.0,39.0,95.0,98160,51.125
1063,0.0,,,,,39.0,,,,,240,note_off,,95.0,39.0,95.0,98400,51.25
1064,0.0,,,,,39.0,,,,,0,note_on,,95.0,39.0,95.0,98400,51.25
1065,0.0,,,,,39.0,,,,,240,note_off,,95.0,39.0,95.0,98640,51.375
1066,0.0,,,,,39.0,,,,,0,note_on,,95.0,39.0,95.0,98640,51.375
1067,0.0,,,,,39.0,,,,,240,note_off,,95.0,39.0,95.0,98880,51.5
1068,0.0,,,,,39.0,,,,,0,note_on,,95.0,39.0,95.0,98880,51.5
1069,0.0,,,,,39.0,,,,,240,note_off,,95.0,39.0,95.0,99120,51.625
1070,0.0,,,,,39.0,,,,,0,note_on,,95.0,39.0,95.0,99120,51.625
1071,0.0,,,,,39.0,,,,,240,note_off,,95.0,39.0,95.0,99360,51.75
1072,0.0,,,,,39.0,,,,,0,note_on,,95.0,39.0,95.0,99360,51.75
1073,0.0,,,,,39.0,,,,,240,note_off,,95.0,39.0,95.0,99600,51.875
1074,0.0,,,,,39.0,,,,,0,note_on,,95.0,39.0,95.0,99600,51.875
1075,0.0,,,,,39.0,,,,,240,note_off,,95.0,39.0,95.0,99840,52.0
1076,0.0,,,,,39.0,,,,,0,note_on,,95.0,39.0,95.0,99840,52.0
1077,0.0,,,,,39.0,,,,,240,note_off,,95.0,39.0,95.0,100080,52.125
1078,0.0,,,,,39.0,,,,,0,note_on,,95.0,39.0,95.0,100080,52.125
1079,0.0,,,,,39.0,,,,,240,note_off,,95.0,39.0,95.0,100320,52.25
1080,0.0,,,,,49.0,,,,,0,note_on,,95.0,49.0,95.0,100320,52.25
1081,0.0,,,,,42.0,,,,,0,note_on,,95.0,42.0,95.0,100320,52.25
1082,0.0,,,,,49.0,,,,,480,note_off,,95.0,49.0,95.0,100800,52.5
1083,0.0,,,,,42.0,,,,,0,note_off,,95.0,42.0,95.0,100800,52.5
1084,0.0,,,,,39.0,,,,,0,note_on,,95.0,39.0,95.0,100800,52.5
1085,0.0,,,,,39.0,,,,,240,note_off,,95.0,39.0,95.0,101040,52.625
1086,0.0,,,,,39.0,,,,,0,note_on,,95.0,39.0,95.0,101040,52.625
1087,0.0,,,,,39.0,,,,,240,note_off,,95.0,39.0,95.0,101280,52.75
1088,0.0,,,,,49.0,,,,,0,note_on,,95.0,49.0,95.0,101280,52.75
1089,0.0,,,,,42.0,,,,,0,note_on,,95.0,42.0,95.0,101280,52.75
1090,0.0,,,,,49.0,,,,,480,note_off,,95.0,49.0,95.0,101760,53.0
1091,0.0,,,,,42.0,,,,,0,note_off,,95.0,42.0,95.0,101760,53.0
1092,0.0,,,,,48.0,,,,,0,note_on,,95.0,48.0,95.0,101760,53.0
1093,0.0,,,,,41.0,,,,,0,note_on,,95.0,41.0,95.0,101760,53.0
1094,0.0,,,,,48.0,,,,,2880,note_off,,95.0,48.0,95.0,104640,54.5
1095,0.0,,,,,41.0,,,,,0,note_off,,95.0,41.0,95.0,104640,54.5
1096,0.0,,,,,52.0,,,,,0,note_on,,95.0,52.0,95.0,104640,54.5
1097,0.0,,,,,45.0,,,,,0,note_on,,95.0,45.0,95.0,104640,54.5
1098,0.0,,,,,52.0,,,,,960,note_off,,95.0,52.0,95.0,105600,55.0
1099,0.0,,,,,45.0,,,,,0,note_off,,95.0,45.0,95.0,105600,55.0
1100,0.0,,,,,39.0,,,,,0,note_on,,95.0,39.0,95.0,105600,55.0
1101,0.0,,,,,39.0,,,,,240,note_off,,95.0,39.0,95.0,105840,55.125
1102,0.0,,,,,39.0,,,,,0,note_on,,95.0,39.0,95.0,105840,55.125
1103,0.0,,,,,39.0,,,,,240,note_off,,95.0,39.0,95.0,106080,55.25
1104,0.0,,,,,39.0,,,,,0,note_on,,95.0,39.0,95.0,106080,55.25
1105,0.0,,,,,39.0,,,,,240,note_off,,95.0,39.0,95.0,106320,55.375
1106,0.0,,,,,39.0,,,,,0,note_on,,95.0,39.0,95.0,106320,55.375
1107,0.0,,,,,39.0,,,,,240,note_off,,95.0,39.0,95.0,106560,55.5
1108,0.0,,,,,39.0,,,,,0,note_on,,95.0,39.0,95.0,106560,55.5
1109,0.0,,,,,39.0,,,,,240,note_off,,95.0,39.0,95.0,106800,55.625
1110,0.0,,,,,39.0,,,,,0,note_on,,95.0,39.0,95.0,106800,55.625
1111,0.0,,,,,39.0,,,,,240,note_off,,95.0,39.0,95.0,107040,55.75
1112,0.0,,,,,39.0,,,,,0,note_on,,95.0,39.0,95.0,107040,55.75
1113,0.0,,,,,39.0,,,,,240,note_off,,95.0,39.0,95.0,107280,55.875
1114,0.0,,,,,39.0,,,,,0,note_on,,95.0,39.0,95.0,107280,55.875
1115,0.0,,,,,39.0,,,,,240,note_off,,95.0,39.0,95.0,107520,56.0
1116,0.0,,,,,39.0,,,,,0,note_on,,95.0,39.0,95.0,107520,56.0
1117,0.0,,,,,39.0,,,,,240,note_off,,95.0,39.0,95.0,107760,56.125
1118,0.0,,,,,39.0,,,,,0,note_on,,95.0,39.0,95.0,107760,56.125
1119,0.0,,,,,39.0,,,,,240,note_off,,95.0,39.0,95.0,108000,56.25
1120,0.0,,,,,46.0,,,,,0,note_on,,95.0,46.0,95.0,108000,56.25
1121,0.0,,,,,39.0,,,,,0,note_on,,95.0,39.0,95.0,108000,56.25
1122,0.0,,,,,46.0,,,,,480,note_off,,95.0,46.0,95.0,108480,56.5
1123,0.0,,,,,39.0,,,,,0,note_off,,95.0,39.0,95.0,108480,56.5
1124,0.0,,,,,39.0,,,,,0,note_on,,95.0,39.0,95.0,108480,56.5
1125,0.0,,,,,39.0,,,,,240,note_off,,95.0,39.0,95.0,108720,56.625
1126,0.0,,,,,39.0,,,,,0,note_on,,95.0,39.0,95.0,108720,56.625
1127,0.0,,,,,39.0,,,,,240,note_off,,95.0,39.0,95.0,108960,56.75
1128,0.0,,,,,47.0,,,,,0,note_on,,95.0,47.0,95.0,108960,56.75
1129,0.0,,,,,40.0,,,,,0,note_on,,95.0,40.0,95.0,108960,56.75
1130,0.0,,,,,47.0,,,,,480,note_off,,95.0,47.0,95.0,109440,57.0
1131,0.0,,,,,40.0,,,,,0,note_off,,95.0,40.0,95.0,109440,57.0
1132,0.0,,,,,48.0,,,,,0,note_on,,95.0,48.0,95.0,109440,57.0
1133,0.0,,,,,41.0,,,,,0,note_on,,95.0,41.0,95.0,109440,57.0
1134,0.0,,,,,48.0,,,,,2880,note_off,,95.0,48.0,95.0,112320,58.5
1135,0.0,,,,,41.0,,,,,0,note_off,,95.0,41.0,95.0,112320,58.5
1136,0.0,,,,,49.0,,,,,0,note_on,,95.0,49.0,95.0,112320,58.5
1137,0.0,,,,,42.0,,,,,0,note_on,,95.0,42.0,95.0,112320,58.5
1138,0.0,,,,,49.0,,,,,960,note_off,,95.0,49.0,95.0,113280,59.0
1139,0.0,,,,,42.0,,,,,0,note_off,,95.0,42.0,95.0,113280,59.0
1140,0.0,,,,,39.0,,,,,0,note_on,,95.0,39.0,95.0,113280,59.0
1141,0.0,,,,,39.0,,,,,240,note_off,,95.0,39.0,95.0,113520,59.125
1142,0.0,,,,,39.0,,,,,0,note_on,,95.0,39.0,95.0,113520,59.125
1143,0.0,,,,,39.0,,,,,240,note_off,,95.0,39.0,95.0,113760,59.25
1144,0.0,,,,,39.0,,,,,0,note_on,,95.0,39.0,95.0,113760,59.25
1145,0.0,,,,,39.0,,,,,240,note_off,,95.0,39.0,95.0,114000,59.375
1146,0.0,,,,,39.0,,,,,0,note_on,,95.0,39.0,95.0,114000,59.375
1147,0.0,,,,,39.0,,,,,240,note_off,,95.0,39.0,95.0,114240,59.5
1148,0.0,,,,,39.0,,,,,0,note_on,,95.0,39.0,95.0,114240,59.5
1149,0.0,,,,,39.0,,,,,240,note_off,,95.0,39.0,95.0,114480,59.625
1150,0.0,,,,,39.0,,,,,0,note_on,,95.0,39.0,95.0,114480,59.625
1151,0.0,,,,,39.0,,,,,240,note_off,,95.0,39.0,95.0,114720,59.75
1152,0.0,,,,,39.0,,,,,0,note_on,,95.0,39.0,95.0,114720,59.75
1153,0.0,,,,,39.0,,,,,240,note_off,,95.0,39.0,95.0,114960,59.875
1154,0.0,,,,,39.0,,,,,0,note_on,,95.0,39.0,95.0,114960,59.875
1155,0.0,,,,,39.0,,,,,240,note_off,,95.0,39.0,95.0,115200,60.0
1156,0.0,,,,,39.0,,,,,0,note_on,,95.0,39.0,95.0,115200,60.0
1157,0.0,,,,,39.0,,,,,240,note_off,,95.0,39.0,95.0,115440,60.125
1158,0.0,,,,,39.0,,,,,0,note_on,,95.0,39.0,95.0,115440,60.125
1159,0.0,,,,,39.0,,,,,240,note_off,,95.0,39.0,95.0,115680,60.25
1160,0.0,,,,,49.0,,,,,0,note_on,,95.0,49.0,95.0,115680,60.25
1161,0.0,,,,,42.0,,,,,0,note_on,,95.0,42.0,95.0,115680,60.25
1162,0.0,,,,,49.0,,,,,480,note_off,,95.0,49.0,95.0,116160,60.5
1163,0.0,,,,,42.0,,,,,0,note_off,,95.0,42.0,95.0,116160,60.5
1164,0.0,,,,,39.0,,,,,0,note_on,,95.0,39.0,95.0,116160,60.5
1165,0.0,,,,,39.0,,,,,240,note_off,,95.0,39.0,95.0,116400,60.625
1166,0.0,,,,,39.0,,,,,0,note_on,,95.0,39.0,95.0,116400,60.625
1167,0.0,,,,,39.0,,,,,240,note_off,,95.0,39.0,95.0,116640,60.75
1168,0.0,,,,,49.0,,,,,0,note_on,,95.0,49.0,95.0,116640,60.75
1169,0.0,,,,,42.0,,,,,0,note_on,,95.0,42.0,95.0,116640,60.75
1170,0.0,,,,,49.0,,,,,480,note_off,,95.0,49.0,95.0,117120,61.0
1171,0.0,,,,,42.0,,,,,0,note_off,,95.0,42.0,95.0,117120,61.0
1172,0.0,,,,,48.0,,,,,0,note_on,,95.0,48.0,95.0,117120,61.0
1173,0.0,,,,,41.0,,,,,0,note_on,,95.0,41.0,95.0,117120,61.0
1174,0.0,,,,,48.0,,,,,1920,note_off,,95.0,48.0,95.0,119040,62.0
1175,0.0,,,,,41.0,,,,,0,note_off,,95.0,41.0,95.0,119040,62.0
1176,0.0,,,,,51.0,,,,,0,note_on,,95.0,51.0,95.0,119040,62.0
1177,0.0,,,,,44.0,,,,,0,note_on,,95.0,44.0,95.0,119040,62.0
1178,0.0,,,,,51.0,,,,,960,note_off,,95.0,51.0,95.0,120000,62.5
1179,0.0,,,,,44.0,,,,,0,note_off,,95.0,44.0,95.0,120000,62.5
1180,0.0,,,,,50.0,,,,,0,note_on,,95.0,50.0,95.0,120000,62.5
1181,0.0,,,,,43.0,,,,,0,note_on,,95.0,43.0,95.0,120000,62.5
1182,0.0,,,,,50.0,,,,,480,note_off,,95.0,50.0,95.0,120480,62.75
1183,0.0,,,,,43.0,,,,,0,note_off,,95.0,43.0,95.0,120480,62.75
1184,0.0,,,,,49.0,,,,,0,note_on,,95.0,49.0,95.0,120480,62.75
1185,0.0,,,,,42.0,,,,,0,note_on,,95.0,42.0,95.0,120480,62.75
1186,0.0,,,,,49.0,,,,,480,note_off,,95.0,49.0,95.0,120960,63.0
1187,0.0,,,,,42.0,,,,,0,note_off,,95.0,42.0,95.0,120960,63.0
1188,0.0,,,,,39.0,,,,,0,note_on,,95.0,39.0,95.0,120960,63.0
1189,0.0,,,,,39.0,,,,,240,note_off,,95.0,39.0,95.0,121200,63.125
1190,0.0,,,,,39.0,,,,,0,note_on,,95.0,39.0,95.0,121200,63.125
1191,0.0,,,,,39.0,,,,,240,note_off,,95.0,39.0,95.0,121440,63.25
1192,0.0,,,,,39.0,,,,,240,note_on,,95.0,39.0,95.0,121680,63.375
1193,1.0,,,,,49.0,,,,,180,note_on,,95.0,49.0,95.0,28980,15.09375
1194,0.0,,,,,39.0,,,,,60,note_off,,95.0,39.0,95.0,121740,63.40625
1195,1.0,,,,,49.0,,,,,0,note_off,,95.0,49.0,95.0,28980,15.09375
1196,1.0,,,,,51.0,,,,,0,note_on,,95.0,51.0,95.0,28980,15.09375
1197,0.0,,,,,39.0,,,,,0,note_on,,95.0,39.0,95.0,121740,63.40625
1198,1.0,,,,,51.0,,,,,480,note_off,,95.0,51.0,95.0,29460,15.34375
1199,0.0,,,,,39.0,,,,,0,note_off,,95.0,39.0,95.0,121740,63.40625
1200,0.0,,,,,39.0,,,,,0,note_on,,95.0,39.0,95.0,121740,63.40625
1201,0.0,,,,,39.0,,,,,240,note_off,,95.0,39.0,95.0,121980,63.53125
1202,0.0,,,,,39.0,,,,,0,note_on,,95.0,39.0,95.0,121980,63.53125
1203,0.0,,,,,39.0,,,,,240,note_off,,95.0,39.0,95.0,122220,63.65625
1204,0.0,,,,,39.0,,,,,240,note_on,,95.0,39.0,95.0,122460,63.78125
1205,0.0,,,,,39.0,,,,,240,note_off,,95.0,39.0,95.0,122700,63.90625
1206,0.0,,,,,59.0,,,,,0,note_on,,95.0,59.0,95.0,122700,63.90625
1207,0.0,,,,,52.0,,,,,0,note_on,,95.0,52.0,95.0,122700,63.90625
1208,0.0,,,,,59.0,,,,,480,note_off,,95.0,59.0,95.0,123180,64.15625
1209,0.0,,,,,52.0,,,,,0,note_off,,95.0,52.0,95.0,123180,64.15625
1210,0.0,,,,,39.0,,,,,0,note_on,,95.0,39.0,95.0,123180,64.15625
1211,0.0,,,,,39.0,,,,,240,note_off,,95.0,39.0,95.0,123420,64.28125
1212,0.0,,,,,39.0,,,,,0,note_on,,95.0,39.0,95.0,123420,64.28125
1213,0.0,,,,,39.0,,,,,240,note_off,,95.0,39.0,95.0,123660,64.40625
1214,0.0,,,,,57.0,,,,,0,note_on,,95.0,57.0,95.0,123660,64.40625
1215,0.0,,,,,50.0,,,,,0,note_on,,95.0,50.0,95.0,123660,64.40625
1216,0.0,,,,,57.0,,,,,480,note_off,,95.0,57.0,95.0,124140,64.65625
1217,0.0,,,,,50.0,,,,,0,note_off,,95.0,50.0,95.0,124140,64.65625
1218,0.0,,,,,39.0,,,,,0,note_on,,95.0,39.0,95.0,124140,64.65625
1219,0.0,,,,,39.0,,,,,240,note_off,,95.0,39.0,95.0,124380,64.78125
1220,0.0,,,,,39.0,,,,,0,note_on,,95.0,39.0,95.0,124380,64.78125
1221,0.0,,,,,39.0,,,,,240,note_off,,95.0,39.0,95.0,124620,64.90625
1222,0.0,,,,,39.0,,,,,240,note_on,,95.0,39.0,95.0,124860,65.03125
1223,1.0,,,,,49.0,,,,,180,note_on,,95.0,49.0,95.0,29640,15.4375
1224,0.0,,,,,39.0,,,,,60,note_off,,95.0,39.0,95.0,124920,65.0625
1225,1.0,,,,,49.0,,,,,0,note_off,,95.0,49.0,95.0,29640,15.4375
1226,1.0,,,,,51.0,,,,,0,note_on,,95.0,51.0,95.0,29640,15.4375
1227,0.0,,,,,39.0,,,,,0,note_on,,95.0,39.0,95.0,124920,65.0625
1228,1.0,,,,,51.0,,,,,480,note_off,,95.0,51.0,95.0,30120,15.6875
1229,0.0,,,,,39.0,,,,,0,note_off,,95.0,39.0,95.0,124920,65.0625
1230,0.0,,,,,39.0,,,,,0,note_on,,95.0,39.0,95.0,124920,65.0625
1231,0.0,,,,,39.0,,,,,240,note_off,,95.0,39.0,95.0,125160,65.1875
1232,0.0,,,,,39.0,,,,,0,note_on,,95.0,39.0,95.0,125160,65.1875
1233,0.0,,,,,39.0,,,,,240,note_off,,95.0,39.0,95.0,125400,65.3125
1234,0.0,,,,,39.0,,,,,240,note_on,,95.0,39.0,95.0,125640,65.4375
1235,0.0,,,,,39.0,,,,,240,note_off,,95.0,39.0,95.0,125880,65.5625
1236,0.0,,,,,61.0,,,,,0,note_on,,95.0,61.0,95.0,125880,65.5625
1237,0.0,,,,,54.0,,,,,0,note_on,,95.0,54.0,95.0,125880,65.5625
1238,0.0,,,,,61.0,,,,,480,note_off,,95.0,61.0,95.0,126360,65.8125
1239,0.0,,,,,54.0,,,,,0,note_off,,95.0,54.0,95.0,126360,65.8125
1240,0.0,,,,,39.0,,,,,0,note_on,,95.0,39.0,95.0,126360,65.8125
1241,0.0,,,,,39.0,,,,,240,note_off,,95.0,39.0,95.0,126600,65.9375
1242,0.0,,,,,39.0,,,,,0,note_on,,95.0,39.0,95.0,126600,65.9375
1243,0.0,,,,,39.0,,,,,240,note_off,,95.0,39.0,95.0,126840,66.0625
1244,0.0,,,,,60.0,,,,,0,note_on,,95.0,60.0,95.0,126840,66.0625
1245,0.0,,,,,53.0,,,,,0,note_on,,95.0,53.0,95.0,126840,66.0625
1246,0.0,,,,,60.0,,,,,480,note_off,,95.0,60.0,95.0,127320,66.3125
1247,0.0,,,,,53.0,,,,,0,note_off,,95.0,53.0,95.0,127320,66.3125
1248,0.0,,,,,39.0,,,,,0,note_on,,95.0,39.0,95.0,127320,66.3125
1249,0.0,,,,,39.0,,,,,240,note_off,,95.0,39.0,95.0,127560,66.4375
1250,0.0,,,,,39.0,,,,,0,note_on,,95.0,39.0,95.0,127560,66.4375
1251,0.0,,,,,39.0,,,,,240,note_off,,95.0,39.0,95.0,127800,66.5625
1252,0.0,,,,,39.0,,,,,240,note_on,,95.0,39.0,95.0,128040,66.6875
1253,1.0,,,,,49.0,,,,,180,note_on,,95.0,49.0,95.0,30300,15.78125
1254,0.0,,,,,39.0,,,,,60,note_off,,95.0,39.0,95.0,128100,66.71875
1255,1.0,,,,,49.0,,,,,0,note_off,,95.0,49.0,95.0,30300,15.78125
1256,1.0,,,,,51.0,,,,,0,note_on,,95.0,51.0,95.0,30300,15.78125
1257,0.0,,,,,39.0,,,,,0,note_on,,95.0,39.0,95.0,128100,66.71875
1258,1.0,,,,,51.0,,,,,480,note_off,,95.0,51.0,95.0,30780,16.03125
1259,0.0,,,,,39.0,,,,,0,note_off,,95.0,39.0,95.0,128100,66.71875
1260,0.0,,,,,39.0,,,,,0,note_on,,95.0,39.0,95.0,128100,66.71875
1261,0.0,,,,,39.0,,,,,240,note_off,,95.0,39.0,95.0,128340,66.84375
1262,0.0,,,,,39.0,,,,,0,note_on,,95.0,39.0,95.0,128340,66.84375
1263,0.0,,,,,39.0,,,,,240,note_off,,95.0,39.0,95.0,128580,66.96875
1264,0.0,,,,,39.0,,,,,240,note_on,,95.0,39.0,95.0,128820,67.09375
1265,0.0,,,,,39.0,,,,,240,note_off,,95.0,39.0,95.0,129060,67.21875
1266,0.0,,,,,59.0,,,,,0,note_on,,95.0,59.0,95.0,129060,67.21875
1267,0.0,,,,,52.0,,,,,0,note_on,,95.0,52.0,95.0,129060,67.21875
1268,0.0,,,,,59.0,,,,,480,note_off,,95.0,59.0,95.0,129540,67.46875
1269,0.0,,,,,52.0,,,,,0,note_off,,95.0,52.0,95.0,129540,67.46875
1270,0.0,,,,,39.0,,,,,0,note_on,,95.0,39.0,95.0,129540,67.46875
1271,0.0,,,,,39.0,,,,,240,note_off,,95.0,39.0,95.0,129780,67.59375
1272,0.0,,,,,39.0,,,,,0,note_on,,95.0,39.0,95.0,129780,67.59375
1273,0.0,,,,,39.0,,,,,240,note_off,,95.0,39.0,95.0,130020,67.71875
1274,0.0,,,,,57.0,,,,,0,note_on,,95.0,57.0,95.0,130020,67.71875
1275,0.0,,,,,50.0,,,,,0,note_on,,95.0,50.0,95.0,130020,67.71875
1276,0.0,,,,,57.0,,,,,480,note_off,,95.0,57.0,95.0,130500,67.96875
1277,0.0,,,,,50.0,,,,,0,note_off,,95.0,50.0,95.0,130500,67.96875
1278,0.0,,,,,39.0,,,,,0,note_on,,95.0,39.0,95.0,130500,67.96875
1279,0.0,,,,,39.0,,,,,240,note_off,,95.0,39.0,95.0,130740,68.09375
1280,0.0,,,,,39.0,,,,,0,note_on,,95.0,39.0,95.0,130740,68.09375
1281,0.0,,,,,39.0,,,,,240,note_off,,95.0,39.0,95.0,130980,68.21875
1282,0.0,,,,,39.0,,,,,240,note_on,,95.0,39.0,95.0,131220,68.34375
1283,1.0,,,,,49.0,,,,,180,note_on,,95.0,49.0,95.0,30960,16.125
1284,0.0,,,,,39.0,,,,,60,note_off,,95.0,39.0,95.0,131280,68.375
1285,1.0,,,,,49.0,,,,,0,note_off,,95.0,49.0,95.0,30960,16.125
1286,1.0,,,,,51.0,,,,,0,note_on,,95.0,51.0,95.0,30960,16.125
1287,0.0,,,,,39.0,,,,,0,note_on,,95.0,39.0,95.0,131280,68.375
1288,1.0,,,,,51.0,,,,,480,note_off,,95.0,51.0,95.0,31440,16.375
1289,0.0,,,,,39.0,,,,,0,note_off,,95.0,39.0,95.0,131280,68.375
1290,0.0,,,,,39.0,,,,,0,note_on,,95.0,39.0,95.0,131280,68.375
1291,0.0,,,,,39.0,,,,,240,note_off,,95.0,39.0,95.0,131520,68.5
1292,0.0,,,,,39.0,,,,,0,note_on,,95.0,39.0,95.0,131520,68.5
1293,0.0,,,,,39.0,,,,,240,note_off,,95.0,39.0,95.0,131760,68.625
1294,0.0,,,,,39.0,,,,,240,note_on,,95.0,39.0,95.0,132000,68.75
1295,0.0,,,,,39.0,,,,,240,note_off,,95.0,39.0,95.0,132240,68.875
1296,0.0,,,,,49.0,,,,,0,note_on,,95.0,49.0,95.0,132240,68.875
1297,0.0,,,,,42.0,,,,,0,note_on,,95.0,42.0,95.0,132240,68.875
1298,0.0,,,,,49.0,,,,,480,note_off,,95.0,49.0,95.0,132720,69.125
1299,0.0,,,,,42.0,,,,,0,note_off,,95.0,42.0,95.0,132720,69.125
1300,0.0,,,,,39.0,,,,,0,note_on,,95.0,39.0,95.0,132720,69.125
1301,0.0,,,,,39.0,,,,,240,note_off,,95.0,39.0,95.0,132960,69.25
1302,0.0,,,,,39.0,,,,,0,note_on,,95.0,39.0,95.0,132960,69.25
1303,0.0,,,,,39.0,,,,,240,note_off,,95.0,39.0,95.0,133200,69.375
1304,0.0,,,,,48.0,,,,,0,note_on,,95.0,48.0,95.0,133200,69.375
1305,0.0,,,,,41.0,,,,,0,note_on,,95.0,41.0,95.0,133200,69.375
1306,0.0,,,,,48.0,,,,,480,note_off,,95.0,48.0,95.0,133680,69.625
1307,0.0,,,,,41.0,,,,,0,note_off,,95.0,41.0,95.0,133680,69.625
1308,0.0,,,,,39.0,,,,,0,note_on,,95.0,39.0,95.0,133680,69.625
1309,0.0,,,,,39.0,,,,,240,note_off,,95.0,39.0,95.0,133920,69.75
1310,0.0,,,,,39.0,,,,,0,note_on,,95.0,39.0,95.0,133920,69.75
1311,0.0,,,,,39.0,,,,,240,note_off,,95.0,39.0,95.0,134160,69.875
1312,0.0,,,,,39.0,,,,,240,note_on,,95.0,39.0,95.0,134400,70.0
1313,1.0,,,,,49.0,,,,,180,note_on,,95.0,49.0,95.0,31620,16.46875
1314,0.0,,,,,39.0,,,,,60,note_off,,95.0,39.0,95.0,134460,70.03125
1315,1.0,,,,,49.0,,,,,0,note_off,,95.0,49.0,95.0,31620,16.46875
1316,1.0,,,,,51.0,,,,,0,note_on,,95.0,51.0,95.0,31620,16.46875
1317,0.0,,,,,39.0,,,,,0,note_on,,95.0,39.0,95.0,134460,70.03125
1318,1.0,,,,,51.0,,,,,480,note_off,,95.0,51.0,95.0,32100,16.71875
1319,0.0,,,,,39.0,,,,,0,note_off,,95.0,39.0,95.0,134460,70.03125
1320,0.0,,,,,39.0,,,,,0,note_on,,95.0,39.0,95.0,134460,70.03125
1321,0.0,,,,,39.0,,,,,240,note_off,,95.0,39.0,95.0,134700,70.15625
1322,0.0,,,,,39.0,,,,,0,note_on,,95.0,39.0,95.0,134700,70.15625
1323,0.0,,,,,39.0,,,,,240,note_off,,95.0,39.0,95.0,134940,70.28125
1324,0.0,,,,,39.0,,,,,240,note_on,,95.0,39.0,95.0,135180,70.40625
1325,0.0,,,,,39.0,,,,,240,note_off,,95.0,39.0,95.0,135420,70.53125
1326,0.0,,,,,59.0,,,,,0,note_on,,95.0,59.0,95.0,135420,70.53125
1327,0.0,,,,,52.0,,,,,0,note_on,,95.0,52.0,95.0,135420,70.53125
1328,0.0,,,,,59.0,,,,,480,note_off,,95.0,59.0,95.0,135900,70.78125
1329,0.0,,,,,52.0,,,,,0,note_off,,95.0,52.0,95.0,135900,70.78125
1330,0.0,,,,,39.0,,,,,0,note_on,,95.0,39.0,95.0,135900,70.78125
1331,0.0,,,,,39.0,,,,,240,note_off,,95.0,39.0,95.0,136140,70.90625
1332,0.0,,,,,39.0,,,,,0,note_on,,95.0,39.0,95.0,136140,70.90625
1333,0.0,,,,,39.0,,,,,240,note_off,,95.0,39.0,95.0,136380,71.03125
1334,0.0,,,,,57.0,,,,,0,note_on,,95.0,57.0,95.0,136380,71.03125
1335,0.0,,,,,50.0,,,,,0,note_on,,95.0,50.0,95.0,136380,71.03125
1336,0.0,,,,,57.0,,,,,480,note_off,,95.0,57.0,95.0,136860,71.28125
1337,0.0,,,,,50.0,,,,,0,note_off,,95.0,50.0,95.0,136860,71.28125
1338,0.0,,,,,39.0,,,,,0,note_on,,95.0,39.0,95.0,136860,71.28125
1339,0.0,,,,,39.0,,,,,240,note_off,,95.0,39.0,95.0,137100,71.40625
1340,0.0,,,,,39.0,,,,,0,note_on,,95.0,39.0,95.0,137100,71.40625
1341,0.0,,,,,39.0,,,,,240,note_off,,95.0,39.0,95.0,137340,71.53125
1342,0.0,,,,,39.0,,,,,240,note_on,,95.0,39.0,95.0,137580,71.65625
1343,1.0,,,,,49.0,,,,,180,note_on,,95.0,49.0,95.0,32280,16.8125
1344,0.0,,,,,39.0,,,,,60,note_off,,95.0,39.0,95.0,137640,71.6875
1345,1.0,,,,,49.0,,,,,0,note_off,,95.0,49.0,95.0,32280,16.8125
1346,1.0,,,,,51.0,,,,,0,note_on,,95.0,51.0,95.0,32280,16.8125
1347,0.0,,,,,39.0,,,,,0,note_on,,95.0,39.0,95.0,137640,71.6875
1348,1.0,,,,,51.0,,,,,480,note_off,,95.0,51.0,95.0,32760,17.0625
1349,0.0,,,,,39.0,,,,,0,note_off,,95.0,39.0,95.0,137640,71.6875
1350,0.0,,,,,39.0,,,,,0,note_on,,95.0,39.0,95.0,137640,71.6875
1351,0.0,,,,,39.0,,,,,240,note_off,,95.0,39.0,95.0,137880,71.8125
1352,0.0,,,,,39.0,,,,,0,note_on,,95.0,39.0,95.0,137880,71.8125
1353,0.0,,,,,39.0,,,,,240,note_off,,95.0,39.0,95.0,138120,71.9375
1354,0.0,,,,,39.0,,,,,240,note_on,,95.0,39.0,95.0,138360,72.0625
1355,0.0,,,,,39.0,,,,,240,note_off,,95.0,39.0,95.0,138600,72.1875
1356,0.0,,,,,61.0,,,,,0,note_on,,95.0,61.0,95.0,138600,72.1875
1357,0.0,,,,,54.0,,,,,0,note_on,,95.0,54.0,95.0,138600,72.1875
1358,0.0,,,,,61.0,,,,,480,note_off,,95.0,61.0,95.0,139080,72.4375
1359,0.0,,,,,54.0,,,,,0,note_off,,95.0,54.0,95.0,139080,72.4375
1360,0.0,,,,,39.0,,,,,0,note_on,,95.0,39.0,95.0,139080,72.4375
1361,0.0,,,,,39.0,,,,,240,note_off,,95.0,39.0,95.0,139320,72.5625
1362,0.0,,,,,39.0,,,,,0,note_on,,95.0,39.0,95.0,139320,72.5625
1363,0.0,,,,,39.0,,,,,240,note_off,,95.0,39.0,95.0,139560,72.6875
1364,0.0,,,,,60.0,,,,,0,note_on,,95.0,60.0,95.0,139560,72.6875
1365,0.0,,,,,53.0,,,,,0,note_on,,95.0,53.0,95.0,139560,72.6875
1366,0.0,,,,,60.0,,,,,480,note_off,,95.0,60.0,95.0,140040,72.9375
1367,0.0,,,,,53.0,,,,,0,note_off,,95.0,53.0,95.0,140040,72.9375
1368,0.0,,,,,39.0,,,,,0,note_on,,95.0,39.0,95.0,140040,72.9375
1369,0.0,,,,,39.0,,,,,240,note_off,,95.0,39.0,95.0,140280,73.0625
1370,0.0,,,,,39.0,,,,,0,note_on,,95.0,39.0,95.0,140280,73.0625
1371,0.0,,,,,39.0,,,,,240,note_off,,95.0,39.0,95.0,140520,73.1875
1372,0.0,,,,,39.0,,,,,240,note_on,,95.0,39.0,95.0,140760,73.3125
1373,1.0,,,,,49.0,,,,,180,note_on,,95.0,49.0,95.0,32940,17.15625
1374,0.0,,,,,39.0,,,,,60,note_off,,95.0,39.0,95.0,140820,73.34375
1375,1.0,,,,,49.0,,,,,0,note_off,,95.0,49.0,95.0,32940,17.15625
1376,1.0,,,,,51.0,,,,,0,note_on,,95.0,51.0,95.0,32940,17.15625
1377,0.0,,,,,39.0,,,,,0,note_on,,95.0,39.0,95.0,140820,73.34375
1378,1.0,,,,,51.0,,,,,480,note_off,,95.0,51.0,95.0,33420,17.40625
1379,0.0,,,,,39.0,,,,,0,note_off,,95.0,39.0,95.0,140820,73.34375
1380,0.0,,,,,39.0,,,,,0,note_on,,95.0,39.0,95.0,140820,73.34375
1381,0.0,,,,,39.0,,,,,240,note_off,,95.0,39.0,95.0,141060,73.46875
1382,0.0,,,,,39.0,,,,,0,note_on,,95.0,39.0,95.0,141060,73.46875
1383,0.0,,,,,39.0,,,,,240,note_off,,95.0,39.0,95.0,141300,73.59375
1384,0.0,,,,,39.0,,,,,240,note_on,,95.0,39.0,95.0,141540,73.71875
1385,0.0,,,,,39.0,,,,,240,note_off,,95.0,39.0,95.0,141780,73.84375
1386,0.0,,,,,59.0,,,,,0,note_on,,95.0,59.0,95.0,141780,73.84375
1387,0.0,,,,,52.0,,,,,0,note_on,,95.0,52.0,95.0,141780,73.84375
1388,0.0,,,,,59.0,,,,,480,note_off,,95.0,59.0,95.0,142260,74.09375
1389,0.0,,,,,52.0,,,,,0,note_off,,95.0,52.0,95.0,142260,74.09375
1390,0.0,,,,,39.0,,,,,0,note_on,,95.0,39.0,95.0,142260,74.09375
1391,0.0,,,,,39.0,,,,,240,note_off,,95.0,39.0,95.0,142500,74.21875
1392,0.0,,,,,39.0,,,,,0,note_on,,95.0,39.0,95.0,142500,74.21875
1393,0.0,,,,,39.0,,,,,240,note_off,,95.0,39.0,95.0,142740,74.34375
1394,0.0,,,,,57.0,,,,,0,note_on,,95.0,57.0,95.0,142740,74.34375
1395,0.0,,,,,50.0,,,,,0,note_on,,95.0,50.0,95.0,142740,74.34375
1396,0.0,,,,,57.0,,,,,480,note_off,,95.0,57.0,95.0,143220,74.59375
1397,0.0,,,,,50.0,,,,,0,note_off,,95.0,50.0,95.0,143220,74.59375
1398,0.0,,,,,39.0,,,,,0,note_on,,95.0,39.0,95.0,143220,74.59375
1399,0.0,,,,,39.0,,,,,240,note_off,,95.0,39.0,95.0,143460,74.71875
1400,0.0,,,,,39.0,,,,,0,note_on,,95.0,39.0,95.0,143460,74.71875
1401,0.0,,,,,39.0,,,,,240,note_off,,95.0,39.0,95.0,143700,74.84375
1402,0.0,,,,,39.0,,,,,240,note_on,,95.0,39.0,95.0,143940,74.96875
1403,1.0,,,,,49.0,,,,,180,note_on,,95.0,49.0,95.0,33600,17.5
1404,0.0,,,,,39.0,,,,,60,note_off,,95.0,39.0,95.0,144000,75.0
1405,1.0,,,,,49.0,,,,,0,note_off,,95.0,49.0,95.0,33600,17.5
1406,1.0,,,,,51.0,,,,,0,note_on,,95.0,51.0,95.0,33600,17.5
1407,0.0,,,,,39.0,,,,,0,note_on,,95.0,39.0,95.0,144000,75.0
1408,1.0,,,,,51.0,,,,,480,note_off,,95.0,51.0,95.0,34080,17.75
1409,0.0,,,,,39.0,,,,,0,note_off,,95.0,39.0,95.0,144000,75.0
1410,0.0,,,,,39.0,,,,,0,note_on,,95.0,39.0,95.0,144000,75.0
1411,0.0,,,,,39.0,,,,,240,note_off,,95.0,39.0,95.0,144240,75.125
1412,0.0,,,,,39.0,,,,,0,note_on,,95.0,39.0,95.0,144240,75.125
1413,0.0,,,,,39.0,,,,,240,note_off,,95.0,39.0,95.0,144480,75.25
1414,0.0,,,,,39.0,,,,,240,note_on,,95.0,39.0,95.0,144720,75.375
1415,0.0,,,,,39.0,,,,,240,note_off,,95.0,39.0,95.0,144960,75.5
1416,0.0,,,,,49.0,,,,,0,note_on,,95.0,49.0,95.0,144960,75.5
1417,0.0,,,,,42.0,,,,,0,note_on,,95.0,42.0,95.0,144960,75.5
1418,0.0,,,,,49.0,,,,,480,note_off,,95.0,49.0,95.0,145440,75.75
1419,0.0,,,,,42.0,,,,,0,note_off,,95.0,42.0,95.0,145440,75.75
1420,0.0,,,,,39.0,,,,,0,note_on,,95.0,39.0,95.0,145440,75.75
1421,0.0,,,,,39.0,,,,,240,note_off,,95.0,39.0,95.0,145680,75.875
1422,0.0,,,,,39.0,,,,,0,note_on,,95.0,39.0,95.0,145680,75.875
1423,0.0,,,,,39.0,,,,,240,note_off,,95.0,39.0,95.0,145920,76.0
1424,0.0,,,,,48.0,,,,,0,note_on,,95.0,48.0,95.0,145920,76.0
1425,0.0,,,,,41.0,,,,,0,note_on,,95.0,41.0,95.0,145920,76.0
1426,0.0,,,,,48.0,,,,,480,note_off,,95.0,48.0,95.0,146400,76.25
1427,0.0,,,,,41.0,,,,,0,note_off,,95.0,41.0,95.0,146400,76.25
1428,0.0,,,,,39.0,,,,,0,note_on,,95.0,39.0,95.0,146400,76.25
1429,0.0,,,,,39.0,,,,,240,note_off,,95.0,39.0,95.0,146640,76.375
1430,0.0,,,,,39.0,,,,,240,note_on,,95.0,39.0,95.0,146880,76.5
1431,0.0,,,,,39.0,,,,,240,note_off,,95.0,39.0,95.0,147120,76.625
1432,0.0,,,,,39.0,,,,,0,note_on,,95.0,39.0,95.0,147120,76.625
1433,1.0,,,,,49.0,,,,,180,note_on,,95.0,49.0,95.0,34260,17.84375
1434,0.0,,,,,39.0,,,,,60,note_off,,95.0,39.0,95.0,147180,76.65625
1435,1.0,,,,,49.0,,,,,0,note_off,,95.0,49.0,95.0,34260,17.84375
1436,1.0,,,,,51.0,,,,,0,note_on,,95.0,51.0,95.0,34260,17.84375
1437,0.0,,,,,39.0,,,,,0,note_on,,95.0,39.0,95.0,147180,76.65625
1438,1.0,,,,,51.0,,,,,960,note_off,,95.0,51.0,95.0,35220,18.34375
1439,0.0,,,,,39.0,,,,,0,note_off,,95.0,39.0,95.0,147180,76.65625
1440,0.0,,,,,39.0,,,,,0,note_on,,95.0,39.0,95.0,147180,76.65625
1441,0.0,,,,,39.0,,,,,240,note_off,,95.0,39.0,95.0,147420,76.78125
1442,0.0,,,,,39.0,,,,,240,note_on,,95.0,39.0,95.0,147660,76.90625
1443,0.0,,,,,39.0,,,,,240,note_off,,95.0,39.0,95.0,147900,77.03125
1444,0.0,,,,,39.0,,,,,0,note_on,,95.0,39.0,95.0,147900,77.03125
1445,0.0,,,,,39.0,,,,,240,note_off,,95.0,39.0,95.0,148140,77.15625
1446,0.0,,,,,59.0,,,,,0,note_on,,95.0,59.0,95.0,148140,77.15625
1447,0.0,,,,,52.0,,,,,0,note_on,,95.0,52.0,95.0,148140,77.15625
1448,0.0,,,,,59.0,,,,,240,note_off,,95.0,59.0,95.0,148380,77.28125
1449,0.0,,,,,52.0,,,,,0,note_off,,95.0,52.0,95.0,148380,77.28125
1450,0.0,,,,,58.0,,,,,0,note_on,,95.0,58.0,95.0,148380,77.28125
1451,0.0,,,,,51.0,,,,,0,note_on,,95.0,51.0,95.0,148380,77.28125
1452,0.0,,,,,58.0,,,,,240,note_off,,95.0,58.0,95.0,148620,77.40625
1453,0.0,,,,,51.0,,,,,0,note_off,,95.0,51.0,95.0,148620,77.40625
1454,0.0,,,,,57.0,,,,,0,note_on,,95.0,57.0,95.0,148620,77.40625
1455,0.0,,,,,50.0,,,,,0,note_on,,95.0,50.0,95.0,148620,77.40625
1456,0.0,,,,,57.0,,,,,480,note_off,,95.0,57.0,95.0,149100,77.65625
1457,0.0,,,,,50.0,,,,,0,note_off,,95.0,50.0,95.0,149100,77.65625
1458,0.0,,,,,39.0,,,,,0,note_on,,95.0,39.0,95.0,149100,77.65625
1459,0.0,,,,,39.0,,,,,240,note_off,,95.0,39.0,95.0,149340,77.78125
1460,0.0,,,,,39.0,,,,,240,note_on,,95.0,39.0,95.0,149580,77.90625
1461,0.0,,,,,39.0,,,,,240,note_off,,95.0,39.0,95.0,149820,78.03125
1462,0.0,,,,,39.0,,,,,0,note_on,,95.0,39.0,95.0,149820,78.03125
1463,1.0,,,,,49.0,,,,,180,note_on,,95.0,49.0,95.0,35400,18.4375
1464,0.0,,,,,39.0,,,,,60,note_off,,95.0,39.0,95.0,149880,78.0625
1465,1.0,,,,,49.0,,,,,0,note_off,,95.0,49.0,95.0,35400,18.4375
1466,1.0,,,,,51.0,,,,,0,note_on,,95.0,51.0,95.0,35400,18.4375
1467,0.0,,,,,39.0,,,,,0,note_on,,95.0,39.0,95.0,149880,78.0625
1468,1.0,,,,,51.0,,,,,960,note_off,,95.0,51.0,95.0,36360,18.9375
1469,0.0,,,,,39.0,,,,,0,note_off,,95.0,39.0,95.0,149880,78.0625
1470,0.0,,,,,39.0,,,,,0,note_on,,95.0,39.0,95.0,149880,78.0625
1471,0.0,,,,,39.0,,,,,240,note_off,,95.0,39.0,95.0,150120,78.1875
1472,0.0,,,,,39.0,,,,,240,note_on,,95.0,39.0,95.0,150360,78.3125
1473,0.0,,,,,39.0,,,,,240,note_off,,95.0,39.0,95.0,150600,78.4375
1474,0.0,,,,,39.0,,,,,0,note_on,,95.0,39.0,95.0,150600,78.4375
1475,0.0,,,,,39.0,,,,,240,note_off,,95.0,39.0,95.0,150840,78.5625
1476,0.0,,,,,61.0,,,,,0,note_on,,95.0,61.0,95.0,150840,78.5625
1477,0.0,,,,,54.0,,,,,0,note_on,,95.0,54.0,95.0,150840,78.5625
1478,0.0,,,,,61.0,,,,,240,note_off,,95.0,61.0,95.0,151080,78.6875
1479,0.0,,,,,54.0,,,,,0,note_off,,95.0,54.0,95.0,151080,78.6875
1480,0.0,,,,,60.0,,,,,0,note_on,,95.0,60.0,95.0,151080,78.6875
1481,0.0,,,,,53.0,,,,,0,note_on,,95.0,53.0,95.0,151080,78.6875
1482,0.0,,,,,60.0,,,,,240,note_off,,95.0,60.0,95.0,151320,78.8125
1483,0.0,,,,,53.0,,,,,0,note_off,,95.0,53.0,95.0,151320,78.8125
1484,0.0,,,,,59.0,,,,,0,note_on,,95.0,59.0,95.0,151320,78.8125
1485,0.0,,,,,52.0,,,,,0,note_on,,95.0,52.0,95.0,151320,78.8125
1486,0.0,,,,,59.0,,,,,480,note_off,,95.0,59.0,95.0,151800,79.0625
1487,0.0,,,,,52.0,,,,,0,note_off,,95.0,52.0,95.0,151800,79.0625
1488,0.0,,,,,39.0,,,,,0,note_on,,95.0,39.0,95.0,151800,79.0625
1489,0.0,,,,,39.0,,,,,240,note_off,,95.0,39.0,95.0,152040,79.1875
1490,0.0,,,,,39.0,,,,,240,note_on,,95.0,39.0,95.0,152280,79.3125
1491,0.0,,,,,39.0,,,,,240,note_off,,95.0,39.0,95.0,152520,79.4375
1492,0.0,,,,,39.0,,,,,0,note_on,,95.0,39.0,95.0,152520,79.4375
1493,1.0,,,,,49.0,,,,,180,note_on,,95.0,49.0,95.0,36540,19.03125
1494,0.0,,,,,39.0,,,,,60,note_off,,95.0,39.0,95.0,152580,79.46875
1495,1.0,,,,,49.0,,,,,0,note_off,,95.0,49.0,95.0,36540,19.03125
1496,1.0,,,,,51.0,,,,,0,note_on,,95.0,51.0,95.0,36540,19.03125
1497,0.0,,,,,39.0,,,,,0,note_on,,95.0,39.0,95.0,152580,79.46875
1498,1.0,,,,,51.0,,,,,960,note_off,,95.0,51.0,95.0,37500,19.53125
1499,0.0,,,,,39.0,,,,,0,note_off,,95.0,39.0,95.0,152580,79.46875
1500,0.0,,,,,39.0,,,,,0,note_on,,95.0,39.0,95.0,152580,79.46875
1501,0.0,,,,,39.0,,,,,240,note_off,,95.0,39.0,95.0,152820,79.59375
1502,0.0,,,,,39.0,,,,,240,note_on,,95.0,39.0,95.0,153060,79.71875
1503,0.0,,,,,39.0,,,,,240,note_off,,95.0,39.0,95.0,153300,79.84375
1504,0.0,,,,,39.0,,,,,0,note_on,,95.0,39.0,95.0,153300,79.84375
1505,0.0,,,,,39.0,,,,,240,note_off,,95.0,39.0,95.0,153540,79.96875
1506,0.0,,,,,59.0,,,,,0,note_on,,95.0,59.0,95.0,153540,79.96875
1507,0.0,,,,,52.0,,,,,0,note_on,,95.0,52.0,95.0,153540,79.96875
1508,0.0,,,,,59.0,,,,,240,note_off,,95.0,59.0,95.0,153780,80.09375
1509,0.0,,,,,52.0,,,,,0,note_off,,95.0,52.0,95.0,153780,80.09375
1510,0.0,,,,,58.0,,,,,0,note_on,,95.0,58.0,95.0,153780,80.09375
1511,0.0,,,,,51.0,,,,,0,note_on,,95.0,51.0,95.0,153780,80.09375
1512,0.0,,,,,58.0,,,,,240,note_off,,95.0,58.0,95.0,154020,80.21875
1513,0.0,,,,,51.0,,,,,0,note_off,,95.0,51.0,95.0,154020,80.21875
1514,0.0,,,,,57.0,,,,,0,note_on,,95.0,57.0,95.0,154020,80.21875
1515,0.0,,,,,50.0,,,,,0,note_on,,95.0,50.0,95.0,154020,80.21875
1516,0.0,,,,,57.0,,,,,480,note_off,,95.0,57.0,95.0,154500,80.46875
1517,0.0,,,,,50.0,,,,,0,note_off,,95.0,50.0,95.0,154500,80.46875
1518,0.0,,,,,39.0,,,,,0,note_on,,95.0,39.0,95.0,154500,80.46875
1519,0.0,,,,,39.0,,,,,240,note_off,,95.0,39.0,95.0,154740,80.59375
1520,0.0,,,,,39.0,,,,,240,note_on,,95.0,39.0,95.0,154980,80.71875
1521,0.0,,,,,39.0,,,,,240,note_off,,95.0,39.0,95.0,155220,80.84375
1522,0.0,,,,,39.0,,,,,0,note_on,,95.0,39.0,95.0,155220,80.84375
1523,1.0,,,,,49.0,,,,,180,note_on,,95.0,49.0,95.0,37680,19.625
1524,0.0,,,,,39.0,,,,,60,note_off,,95.0,39.0,95.0,155280,80.875
1525,1.0,,,,,49.0,,,,,0,note_off,,95.0,49.0,95.0,37680,19.625
1526,1.0,,,,,51.0,,,,,0,note_on,,95.0,51.0,95.0,37680,19.625
1527,0.0,,,,,39.0,,,,,0,note_on,,95.0,39.0,95.0,155280,80.875
1528,1.0,,,,,51.0,,,,,960,note_off,,95.0,51.0,95.0,38640,20.125
1529,0.0,,,,,39.0,,,,,0,note_off,,95.0,39.0,95.0,155280,80.875
1530,0.0,,,,,39.0,,,,,0,note_on,,95.0,39.0,95.0,155280,80.875
1531,0.0,,,,,39.0,,,,,240,note_off,,95.0,39.0,95.0,155520,81.0
1532,0.0,,,,,39.0,,,,,0,note_on,,95.0,39.0,95.0,155520,81.0
1533,0.0,,,,,39.0,,,,,240,note_off,,95.0,39.0,95.0,155760,81.125
1534,0.0,,,,,39.0,,,,,0,note_on,,95.0,39.0,95.0,155760,81.125
1535,0.0,,,,,39.0,,,,,240,note_off,,95.0,39.0,95.0,156000,81.25
1536,0.0,,,,,39.0,,,,,0,note_on,,95.0,39.0,95.0,156000,81.25
1537,0.0,,,,,39.0,,,,,240,note_off,,95.0,39.0,95.0,156240,81.375
1538,0.0,,,,,49.0,,,,,0,note_on,,95.0,49.0,95.0,156240,81.375
1539,0.0,,,,,42.0,,,,,0,note_on,,95.0,42.0,95.0,156240,81.375
1540,0.0,,,,,49.0,,,,,240,note_off,,95.0,49.0,95.0,156480,81.5
1541,0.0,,,,,42.0,,,,,0,note_off,,95.0,42.0,95.0,156480,81.5
1542,0.0,,,,,48.0,,,,,0,note_on,,95.0,48.0,95.0,156480,81.5
1543,0.0,,,,,41.0,,,,,0,note_on,,95.0,41.0,95.0,156480,81.5
1544,0.0,,,,,48.0,,,,,240,note_off,,95.0,48.0,95.0,156720,81.625
1545,0.0,,,,,41.0,,,,,0,note_off,,95.0,41.0,95.0,156720,81.625
1546,0.0,,,,,47.0,,,,,0,note_on,,95.0,47.0,95.0,156720,81.625
1547,0.0,,,,,40.0,,,,,0,note_on,,95.0,40.0,95.0,156720,81.625
1548,0.0,,,,,47.0,,,,,480,note_off,,95.0,47.0,95.0,157200,81.875
1549,0.0,,,,,40.0,,,,,0,note_off,,95.0,40.0,95.0,157200,81.875
1550,0.0,,,,,39.0,,,,,0,note_on,,95.0,39.0,95.0,157200,81.875
1551,0.0,,,,,39.0,,,,,240,note_off,,95.0,39.0,95.0,157440,82.0
1552,0.0,,,,,39.0,,,,,240,note_on,,95.0,39.0,95.0,157680,82.125
1553,0.0,,,,,39.0,,,,,240,note_off,,95.0,39.0,95.0,157920,82.25
1554,0.0,,,,,39.0,,,,,0,note_on,,95.0,39.0,95.0,157920,82.25
1555,1.0,,,,,49.0,,,,,180,note_on,,95.0,49.0,95.0,38820,20.21875
1556,0.0,,,,,39.0,,,,,60,note_off,,95.0,39.0,95.0,157980,82.28125
1557,1.0,,,,,49.0,,,,,0,note_off,,95.0,49.0,95.0,38820,20.21875
1558,1.0,,,,,51.0,,,,,0,note_on,,95.0,51.0,95.0,38820,20.21875
1559,0.0,,,,,39.0,,,,,0,note_on,,95.0,39.0,95.0,157980,82.28125
1560,1.0,,,,,51.0,,,,,960,note_off,,95.0,51.0,95.0,39780,20.71875
1561,0.0,,,,,39.0,,,,,0,note_off,,95.0,39.0,95.0,157980,82.28125
1562,0.0,,,,,39.0,,,,,0,note_on,,95.0,39.0,95.0,157980,82.28125
1563,0.0,,,,,39.0,,,,,240,note_off,,95.0,39.0,95.0,158220,82.40625
1564,0.0,,,,,39.0,,,,,240,note_on,,95.0,39.0,95.0,158460,82.53125
1565,0.0,,,,,39.0,,,,,240,note_off,,95.0,39.0,95.0,158700,82.65625
1566,0.0,,,,,39.0,,,,,0,note_on,,95.0,39.0,95.0,158700,82.65625
1567,0.0,,,,,39.0,,,,,240,note_off,,95.0,39.0,95.0,158940,82.78125
1568,0.0,,,,,59.0,,,,,0,note_on,,95.0,59.0,95.0,158940,82.78125
1569,0.0,,,,,52.0,,,,,0,note_on,,95.0,52.0,95.0,158940,82.78125
1570,0.0,,,,,59.0,,,,,240,note_off,,95.0,59.0,95.0,159180,82.90625
1571,0.0,,,,,52.0,,,,,0,note_off,,95.0,52.0,95.0,159180,82.90625
1572,0.0,,,,,58.0,,,,,0,note_on,,95.0,58.0,95.0,159180,82.90625
1573,0.0,,,,,51.0,,,,,0,note_on,,95.0,51.0,95.0,159180,82.90625
1574,0.0,,,,,58.0,,,,,240,note_off,,95.0,58.0,95.0,159420,83.03125
1575,0.0,,,,,51.0,,,,,0,note_off,,95.0,51.0,95.0,159420,83.03125
1576,0.0,,,,,57.0,,,,,0,note_on,,95.0,57.0,95.0,159420,83.03125
1577,0.0,,,,,50.0,,,,,0,note_on,,95.0,50.0,95.0,159420,83.03125
1578,0.0,,,,,57.0,,,,,480,note_off,,95.0,57.0,95.0,159900,83.28125
1579,0.0,,,,,50.0,,,,,0,note_off,,95.0,50.0,95.0,159900,83.28125
1580,0.0,,,,,39.0,,,,,0,note_on,,95.0,39.0,95.0,159900,83.28125
1581,0.0,,,,,39.0,,,,,240,note_off,,95.0,39.0,95.0,160140,83.40625
1582,0.0,,,,,39.0,,,,,240,note_on,,95.0,39.0,95.0,160380,83.53125
1583,0.0,,,,,39.0,,,,,240,note_off,,95.0,39.0,95.0,160620,83.65625
1584,0.0,,,,,39.0,,,,,0,note_on,,95.0,39.0,95.0,160620,83.65625
1585,1.0,,,,,49.0,,,,,180,note_on,,95.0,49.0,95.0,39960,20.8125
1586,0.0,,,,,39.0,,,,,60,note_off,,95.0,39.0,95.0,160680,83.6875
1587,1.0,,,,,49.0,,,,,0,note_off,,95.0,49.0,95.0,39960,20.8125
1588,1.0,,,,,51.0,,,,,0,note_on,,95.0,51.0,95.0,39960,20.8125
1589,0.0,,,,,39.0,,,,,0,note_on,,95.0,39.0,95.0,160680,83.6875
1590,1.0,,,,,51.0,,,,,960,note_off,,95.0,51.0,95.0,40920,21.3125
1591,0.0,,,,,39.0,,,,,0,note_off,,95.0,39.0,95.0,160680,83.6875
1592,0.0,,,,,39.0,,,,,0,note_on,,95.0,39.0,95.0,160680,83.6875
1593,0.0,,,,,39.0,,,,,240,note_off,,95.0,39.0,95.0,160920,83.8125
1594,0.0,,,,,39.0,,,,,240,note_on,,95.0,39.0,95.0,161160,83.9375
1595,0.0,,,,,39.0,,,,,240,note_off,,95.0,39.0,95.0,161400,84.0625
1596,0.0,,,,,39.0,,,,,0,note_on,,95.0,39.0,95.0,161400,84.0625
1597,0.0,,,,,39.0,,,,,240,note_off,,95.0,39.0,95.0,161640,84.1875
1598,0.0,,,,,61.0,,,,,0,note_on,,95.0,61.0,95.0,161640,84.1875
1599,0.0,,,,,54.0,,,,,0,note_on,,95.0,54.0,95.0,161640,84.1875
1600,0.0,,,,,61.0,,,,,240,note_off,,95.0,61.0,95.0,161880,84.3125
1601,0.0,,,,,54.0,,,,,0,note_off,,95.0,54.0,95.0,161880,84.3125
1602,0.0,,,,,60.0,,,,,0,note_on,,95.0,60.0,95.0,161880,84.3125
1603,0.0,,,,,53.0,,,,,0,note_on,,95.0,53.0,95.0,161880,84.3125
1604,0.0,,,,,60.0,,,,,240,note_off,,95.0,60.0,95.0,162120,84.4375
1605,0.0,,,,,53.0,,,,,0,note_off,,95.0,53.0,95.0,162120,84.4375
1606,0.0,,,,,59.0,,,,,0,note_on,,95.0,59.0,95.0,162120,84.4375
1607,0.0,,,,,52.0,,,,,0,note_on,,95.0,52.0,95.0,162120,84.4375
1608,0.0,,,,,59.0,,,,,480,note_off,,95.0,59.0,95.0,162600,84.6875
1609,0.0,,,,,52.0,,,,,0,note_off,,95.0,52.0,95.0,162600,84.6875
1610,0.0,,,,,39.0,,,,,0,note_on,,95.0,39.0,95.0,162600,84.6875
1611,0.0,,,,,39.0,,,,,240,note_off,,95.0,39.0,95.0,162840,84.8125
1612,0.0,,,,,39.0,,,,,240,note_on,,95.0,39.0,95.0,163080,84.9375
1613,0.0,,,,,39.0,,,,,240,note_off,,95.0,39.0,95.0,163320,85.0625
1614,0.0,,,,,39.0,,,,,0,note_on,,95.0,39.0,95.0,163320,85.0625
1615,1.0,,,,,49.0,,,,,180,note_on,,95.0,49.0,95.0,41100,21.40625
1616,0.0,,,,,39.0,,,,,60,note_off,,95.0,39.0,95.0,163380,85.09375
1617,1.0,,,,,49.0,,,,,0,note_off,,95.0,49.0,95.0,41100,21.40625
1618,1.0,,,,,51.0,,,,,0,note_on,,95.0,51.0,95.0,41100,21.40625
1619,0.0,,,,,39.0,,,,,0,note_on,,95.0,39.0,95.0,163380,85.09375
1620,1.0,,,,,51.0,,,,,960,note_off,,95.0,51.0,95.0,42060,21.90625
1621,0.0,,,,,39.0,,,,,0,note_off,,95.0,39.0,95.0,163380,85.09375
1622,0.0,,,,,39.0,,,,,0,note_on,,95.0,39.0,95.0,163380,85.09375
1623,0.0,,,,,39.0,,,,,240,note_off,,95.0,39.0,95.0,163620,85.21875
1624,0.0,,,,,39.0,,,,,240,note_on,,95.0,39.0,95.0,163860,85.34375
1625,0.0,,,,,39.0,,,,,240,note_off,,95.0,39.0,95.0,164100,85.46875
1626,0.0,,,,,39.0,,,,,0,note_on,,95.0,39.0,95.0,164100,85.46875
1627,0.0,,,,,39.0,,,,,240,note_off,,95.0,39.0,95.0,164340,85.59375
1628,0.0,,,,,59.0,,,,,0,note_on,,95.0,59.0,95.0,164340,85.59375
1629,0.0,,,,,52.0,,,,,0,note_on,,95.0,52.0,95.0,164340,85.59375
1630,0.0,,,,,59.0,,,,,240,note_off,,95.0,59.0,95.0,164580,85.71875
1631,0.0,,,,,52.0,,,,,0,note_off,,95.0,52.0,95.0,164580,85.71875
1632,0.0,,,,,58.0,,,,,0,note_on,,95.0,58.0,95.0,164580,85.71875
1633,0.0,,,,,51.0,,,,,0,note_on,,95.0,51.0,95.0,164580,85.71875
1634,0.0,,,,,58.0,,,,,240,note_off,,95.0,58.0,95.0,164820,85.84375
1635,0.0,,,,,51.0,,,,,0,note_off,,95.0,51.0,95.0,164820,85.84375
1636,0.0,,,,,57.0,,,,,0,note_on,,95.0,57.0,95.0,164820,85.84375
1637,0.0,,,,,50.0,,,,,0,note_on,,95.0,50.0,95.0,164820,85.84375
1638,0.0,,,,,57.0,,,,,480,note_off,,95.0,57.0,95.0,165300,86.09375
1639,0.0,,,,,50.0,,,,,0,note_off,,95.0,50.0,95.0,165300,86.09375
1640,0.0,,,,,39.0,,,,,0,note_on,,95.0,39.0,95.0,165300,86.09375
1641,0.0,,,,,39.0,,,,,240,note_off,,95.0,39.0,95.0,165540,86.21875
1642,0.0,,,,,39.0,,,,,240,note_on,,95.0,39.0,95.0,165780,86.34375
1643,0.0,,,,,39.0,,,,,240,note_off,,95.0,39.0,95.0,166020,86.46875
1644,0.0,,,,,39.0,,,,,0,note_on,,95.0,39.0,95.0,166020,86.46875
1645,1.0,,,,,49.0,,,,,180,note_on,,95.0,49.0,95.0,42240,22.0
1646,0.0,,,,,39.0,,,,,60,note_off,,95.0,39.0,95.0,166080,86.5
1647,1.0,,,,,49.0,,,,,0,note_off,,95.0,49.0,95.0,42240,22.0
1648,1.0,,,,,51.0,,,,,0,note_on,,95.0,51.0,95.0,42240,22.0
1649,0.0,,,,,39.0,,,,,0,note_on,,95.0,39.0,95.0,166080,86.5
1650,1.0,,,,,51.0,,,,,960,note_off,,95.0,51.0,95.0,43200,22.5
1651,0.0,,,,,39.0,,,,,0,note_off,,95.0,39.0,95.0,166080,86.5
1652,0.0,,,,,39.0,,,,,0,note_on,,95.0,39.0,95.0,166080,86.5
1653,0.0,,,,,39.0,,,,,240,note_off,,95.0,39.0,95.0,166320,86.625
1654,0.0,,,,,39.0,,,,,0,note_on,,95.0,39.0,95.0,166320,86.625
1655,0.0,,,,,39.0,,,,,240,note_off,,95.0,39.0,95.0,166560,86.75
1656,0.0,,,,,39.0,,,,,0,note_on,,95.0,39.0,95.0,166560,86.75
1657,0.0,,,,,39.0,,,,,240,note_off,,95.0,39.0,95.0,166800,86.875
1658,0.0,,,,,39.0,,,,,0,note_on,,95.0,39.0,95.0,166800,86.875
1659,0.0,,,,,39.0,,,,,240,note_off,,95.0,39.0,95.0,167040,87.0
1660,0.0,,,,,49.0,,,,,0,note_on,,95.0,49.0,95.0,167040,87.0
1661,0.0,,,,,42.0,,,,,0,note_on,,95.0,42.0,95.0,167040,87.0
1662,0.0,,,,,49.0,,,,,240,note_off,,95.0,49.0,95.0,167280,87.125
1663,0.0,,,,,42.0,,,,,0,note_off,,95.0,42.0,95.0,167280,87.125
1664,0.0,,,,,48.0,,,,,0,note_on,,95.0,48.0,95.0,167280,87.125
1665,0.0,,,,,41.0,,,,,0,note_on,,95.0,41.0,95.0,167280,87.125
1666,0.0,,,,,48.0,,,,,240,note_off,,95.0,48.0,95.0,167520,87.25
1667,0.0,,,,,41.0,,,,,0,note_off,,95.0,41.0,95.0,167520,87.25
1668,0.0,,,,,47.0,,,,,0,note_on,,95.0,47.0,95.0,167520,87.25
1669,0.0,,,,,40.0,,,,,0,note_on,,95.0,40.0,95.0,167520,87.25
1670,0.0,,,,,47.0,,,,,480,note_off,,95.0,47.0,95.0,168000,87.5
1671,0.0,,,,,40.0,,,,,0,note_off,,95.0,40.0,95.0,168000,87.5
1672,0.0,,,,,48.0,,,,,0,note_on,,95.0,48.0,95.0,168000,87.5
1673,0.0,,,,,41.0,,,,,0,note_on,,95.0,41.0,95.0,168000,87.5
1674,0.0,,,,,48.0,,,,,2880,note_off,,95.0,48.0,95.0,170880,89.0
1675,0.0,,,,,41.0,,,,,0,note_off,,95.0,41.0,95.0,170880,89.0
1676,0.0,,,,,49.0,,,,,0,note_on,,95.0,49.0,95.0,170880,89.0
1677,0.0,,,,,42.0,,,,,0,note_on,,95.0,42.0,95.0,170880,89.0
1678,0.0,,,,,49.0,,,,,960,note_off,,95.0,49.0,95.0,171840,89.5
1679,0.0,,,,,42.0,,,,,0,note_off,,95.0,42.0,95.0,171840,89.5
1680,0.0,,,,,39.0,,,,,0,note_on,,95.0,39.0,95.0,171840,89.5
1681,0.0,,,,,39.0,,,,,240,note_off,,95.0,39.0,95.0,172080,89.625
1682,0.0,,,,,39.0,,,,,0,note_on,,95.0,39.0,95.0,172080,89.625
1683,0.0,,,,,39.0,,,,,240,note_off,,95.0,39.0,95.0,172320,89.75
1684,0.0,,,,,39.0,,,,,0,note_on,,95.0,39.0,95.0,172320,89.75
1685,0.0,,,,,39.0,,,,,240,note_off,,95.0,39.0,95.0,172560,89.875
1686,0.0,,,,,39.0,,,,,0,note_on,,95.0,39.0,95.0,172560,89.875
1687,0.0,,,,,39.0,,,,,240,note_off,,95.0,39.0,95.0,172800,90.0
1688,0.0,,,,,39.0,,,,,0,note_on,,95.0,39.0,95.0,172800,90.0
1689,0.0,,,,,39.0,,,,,240,note_off,,95.0,39.0,95.0,173040,90.125
1690,0.0,,,,,39.0,,,,,0,note_on,,95.0,39.0,95.0,173040,90.125
1691,0.0,,,,,39.0,,,,,240,note_off,,95.0,39.0,95.0,173280,90.25
1692,0.0,,,,,39.0,,,,,0,note_on,,95.0,39.0,95.0,173280,90.25
1693,0.0,,,,,39.0,,,,,240,note_off,,95.0,39.0,95.0,173520,90.375
1694,0.0,,,,,39.0,,,,,0,note_on,,95.0,39.0,95.0,173520,90.375
1695,0.0,,,,,39.0,,,,,240,note_off,,95.0,39.0,95.0,173760,90.5
1696,0.0,,,,,39.0,,,,,0,note_on,,95.0,39.0,95.0,173760,90.5
1697,0.0,,,,,39.0,,,,,240,note_off,,95.0,39.0,95.0,174000,90.625
1698,0.0,,,,,39.0,,,,,0,note_on,,95.0,39.0,95.0,174000,90.625
1699,0.0,,,,,39.0,,,,,240,note_off,,95.0,39.0,95.0,174240,90.75
1700,0.0,,,,,49.0,,,,,0,note_on,,95.0,49.0,95.0,174240,90.75
1701,0.0,,,,,42.0,,,,,0,note_on,,95.0,42.0,95.0,174240,90.75
1702,0.0,,,,,49.0,,,,,480,note_off,,95.0,49.0,95.0,174720,91.0
1703,0.0,,,,,42.0,,,,,0,note_off,,95.0,42.0,95.0,174720,91.0
1704,0.0,,,,,39.0,,,,,0,note_on,,95.0,39.0,95.0,174720,91.0
1705,0.0,,,,,39.0,,,,,240,note_off,,95.0,39.0,95.0,174960,91.125
1706,0.0,,,,,39.0,,,,,0,note_on,,95.0,39.0,95.0,174960,91.125
1707,0.0,,,,,39.0,,,,,240,note_off,,95.0,39.0,95.0,175200,91.25
1708,0.0,,,,,49.0,,,,,0,note_on,,95.0,49.0,95.0,175200,91.25
1709,0.0,,,,,42.0,,,,,0,note_on,,95.0,42.0,95.0,175200,91.25
1710,0.0,,,,,49.0,,,,,480,note_off,,95.0,49.0,95.0,175680,91.5
1711,0.0,,,,,42.0,,,,,0,note_off,,95.0,42.0,95.0,175680,91.5
1712,0.0,,,,,48.0,,,,,0,note_on,,95.0,48.0,95.0,175680,91.5
1713,0.0,,,,,41.0,,,,,0,note_on,,95.0,41.0,95.0,175680,91.5
1714,0.0,,,,,48.0,,,,,2880,note_off,,95.0,48.0,95.0,178560,93.0
1715,0.0,,,,,41.0,,,,,0,note_off,,95.0,41.0,95.0,178560,93.0
1716,0.0,,,,,52.0,,,,,0,note_on,,95.0,52.0,95.0,178560,93.0
1717,0.0,,,,,45.0,,,,,0,note_on,,95.0,45.0,95.0,178560,93.0
1718,0.0,,,,,52.0,,,,,960,note_off,,95.0,52.0,95.0,179520,93.5
1719,0.0,,,,,45.0,,,,,0,note_off,,95.0,45.0,95.0,179520,93.5
1720,0.0,,,,,39.0,,,,,0,note_on,,95.0,39.0,95.0,179520,93.5
1721,0.0,,,,,39.0,,,,,240,note_off,,95.0,39.0,95.0,179760,93.625
1722,0.0,,,,,39.0,,,,,0,note_on,,95.0,39.0,95.0,179760,93.625
1723,0.0,,,,,39.0,,,,,240,note_off,,95.0,39.0,95.0,180000,93.75
1724,0.0,,,,,39.0,,,,,0,note_on,,95.0,39.0,95.0,180000,93.75
1725,0.0,,,,,39.0,,,,,240,note_off,,95.0,39.0,95.0,180240,93.875
1726,0.0,,,,,39.0,,,,,0,note_on,,95.0,39.0,95.0,180240,93.875
1727,0.0,,,,,39.0,,,,,240,note_off,,95.0,39.0,95.0,180480,94.0
1728,0.0,,,,,39.0,,,,,0,note_on,,95.0,39.0,95.0,180480,94.0
1729,0.0,,,,,39.0,,,,,240,note_off,,95.0,39.0,95.0,180720,94.125
1730,0.0,,,,,39.0,,,,,0,note_on,,95.0,39.0,95.0,180720,94.125
1731,0.0,,,,,39.0,,,,,240,note_off,,95.0,39.0,95.0,180960,94.25
1732,0.0,,,,,39.0,,,,,0,note_on,,95.0,39.0,95.0,180960,94.25
1733,0.0,,,,,39.0,,,,,240,note_off,,95.0,39.0,95.0,181200,94.375
1734,0.0,,,,,39.0,,,,,0,note_on,,95.0,39.0,95.0,181200,94.375
1735,0.0,,,,,39.0,,,,,240,note_off,,95.0,39.0,95.0,181440,94.5
1736,0.0,,,,,39.0,,,,,0,note_on,,95.0,39.0,95.0,181440,94.5
1737,0.0,,,,,39.0,,,,,240,note_off,,95.0,39.0,95.0,181680,94.625
1738,0.0,,,,,39.0,,,,,0,note_on,,95.0,39.0,95.0,181680,94.625
1739,0.0,,,,,39.0,,,,,240,note_off,,95.0,39.0,95.0,181920,94.75
1740,0.0,,,,,46.0,,,,,0,note_on,,95.0,46.0,95.0,181920,94.75
1741,0.0,,,,,39.0,,,,,0,note_on,,95.0,39.0,95.0,181920,94.75
1742,0.0,,,,,46.0,,,,,480,note_off,,95.0,46.0,95.0,182400,95.0
1743,0.0,,,,,39.0,,,,,0,note_off,,95.0,39.0,95.0,182400,95.0
1744,0.0,,,,,39.0,,,,,0,note_on,,95.0,39.0,95.0,182400,95.0
1745,0.0,,,,,39.0,,,,,240,note_off,,95.0,39.0,95.0,182640,95.125
1746,0.0,,,,,39.0,,,,,0,note_on,,95.0,39.0,95.0,182640,95.125
1747,0.0,,,,,39.0,,,,,240,note_off,,95.0,39.0,95.0,182880,95.25
1748,0.0,,,,,47.0,,,,,0,note_on,,95.0,47.0,95.0,182880,95.25
1749,0.0,,,,,40.0,,,,,0,note_on,,95.0,40.0,95.0,182880,95.25
1750,0.0,,,,,47.0,,,,,480,note_off,,95.0,47.0,95.0,183360,95.5
1751,0.0,,,,,40.0,,,,,0,note_off,,95.0,40.0,95.0,183360,95.5
1752,0.0,,,,,48.0,,,,,0,note_on,,95.0,48.0,95.0,183360,95.5
1753,0.0,,,,,41.0,,,,,0,note_on,,95.0,41.0,95.0,183360,95.5
1754,0.0,,,,,48.0,,,,,2880,note_off,,95.0,48.0,95.0,186240,97.0
1755,0.0,,,,,41.0,,,,,0,note_off,,95.0,41.0,95.0,186240,97.0
1756,0.0,,,,,49.0,,,,,0,note_on,,95.0,49.0,95.0,186240,97.0
1757,0.0,,,,,42.0,,,,,0,note_on,,95.0,42.0,95.0,186240,97.0
1758,0.0,,,,,49.0,,,,,960,note_off,,95.0,49.0,95.0,187200,97.5
1759,0.0,,,,,42.0,,,,,0,note_off,,95.0,42.0,95.0,187200,97.5
1760,0.0,,,,,39.0,,,,,0,note_on,,95.0,39.0,95.0,187200,97.5
1761,0.0,,,,,39.0,,,,,240,note_off,,95.0,39.0,95.0,187440,97.625
1762,0.0,,,,,39.0,,,,,0,note_on,,95.0,39.0,95.0,187440,97.625
1763,0.0,,,,,39.0,,,,,240,note_off,,95.0,39.0,95.0,187680,97.75
1764,0.0,,,,,39.0,,,,,0,note_on,,95.0,39.0,95.0,187680,97.75
1765,0.0,,,,,39.0,,,,,240,note_off,,95.0,39.0,95.0,187920,97.875
1766,0.0,,,,,39.0,,,,,0,note_on,,95.0,39.0,95.0,187920,97.875
1767,0.0,,,,,39.0,,,,,240,note_off,,95.0,39.0,95.0,188160,98.0
1768,0.0,,,,,39.0,,,,,0,note_on,,95.0,39.0,95.0,188160,98.0
1769,0.0,,,,,39.0,,,,,240,note_off,,95.0,39.0,95.0,188400,98.125
1770,0.0,,,,,39.0,,,,,0,note_on,,95.0,39.0,95.0,188400,98.125
1771,0.0,,,,,39.0,,,,,240,note_off,,95.0,39.0,95.0,188640,98.25
1772,0.0,,,,,39.0,,,,,0,note_on,,95.0,39.0,95.0,188640,98.25
1773,0.0,,,,,39.0,,,,,240,note_off,,95.0,39.0,95.0,188880,98.375
1774,0.0,,,,,39.0,,,,,0,note_on,,95.0,39.0,95.0,188880,98.375
1775,0.0,,,,,39.0,,,,,240,note_off,,95.0,39.0,95.0,189120,98.5
1776,0.0,,,,,39.0,,,,,0,note_on,,95.0,39.0,95.0,189120,98.5
1777,0.0,,,,,39.0,,,,,240,note_off,,95.0,39.0,95.0,189360,98.625
1778,0.0,,,,,39.0,,,,,0,note_on,,95.0,39.0,95.0,189360,98.625
1779,0.0,,,,,39.0,,,,,240,note_off,,95.0,39.0,95.0,189600,98.75
1780,0.0,,,,,49.0,,,,,0,note_on,,95.0,49.0,95.0,189600,98.75
1781,0.0,,,,,42.0,,,,,0,note_on,,95.0,42.0,95.0,189600,98.75
1782,0.0,,,,,49.0,,,,,480,note_off,,95.0,49.0,95.0,190080,99.0
1783,0.0,,,,,42.0,,,,,0,note_off,,95.0,42.0,95.0,190080,99.0
1784,0.0,,,,,39.0,,,,,0,note_on,,95.0,39.0,95.0,190080,99.0
1785,0.0,,,,,39.0,,,,,240,note_off,,95.0,39.0,95.0,190320,99.125
1786,0.0,,,,,39.0,,,,,0,note_on,,95.0,39.0,95.0,190320,99.125
1787,0.0,,,,,39.0,,,,,240,note_off,,95.0,39.0,95.0,190560,99.25
1788,0.0,,,,,49.0,,,,,0,note_on,,95.0,49.0,95.0,190560,99.25
1789,0.0,,,,,42.0,,,,,0,note_on,,95.0,42.0,95.0,190560,99.25
1790,0.0,,,,,49.0,,,,,480,note_off,,95.0,49.0,95.0,191040,99.5
1791,0.0,,,,,42.0,,,,,0,note_off,,95.0,42.0,95.0,191040,99.5
1792,0.0,,,,,48.0,,,,,0,note_on,,95.0,48.0,95.0,191040,99.5
1793,0.0,,,,,41.0,,,,,0,note_on,,95.0,41.0,95.0,191040,99.5
1794,0.0,,,,,48.0,,,,,2880,note_off,,95.0,48.0,95.0,193920,101.0
1795,0.0,,,,,41.0,,,,,0,note_off,,95.0,41.0,95.0,193920,101.0
1796,0.0,,,,,49.0,,,,,0,note_on,,95.0,49.0,95.0,193920,101.0
1797,0.0,,,,,42.0,,,,,0,note_on,,95.0,42.0,95.0,193920,101.0
1798,0.0,,,,,49.0,,,,,240,note_off,,95.0,49.0,95.0,194160,101.125
1799,0.0,,,,,42.0,,,,,0,note_off,,95.0,42.0,95.0,194160,101.125
1800,0.0,,,,,51.0,,,,,0,note_on,,95.0,51.0,95.0,194160,101.125
1801,0.0,,,,,44.0,,,,,0,note_on,,95.0,44.0,95.0,194160,101.125
1802,0.0,,,,,51.0,,,,,720,note_off,,95.0,51.0,95.0,194880,101.5
1803,0.0,,,,,44.0,,,,,0,note_off,,95.0,44.0,95.0,194880,101.5
1804,0.0,,,,,39.0,,,,,0,note_on,,95.0,39.0,95.0,194880,101.5
1805,0.0,,,,,39.0,,,,,240,note_off,,95.0,39.0,95.0,195120,101.625
1806,0.0,,,,,39.0,,,,,240,note_on,,95.0,39.0,95.0,195360,101.75
1807,0.0,,,,,39.0,,,,,240,note_off,,95.0,39.0,95.0,195600,101.875
1808,0.0,,,,,39.0,,,,,0,note_on,,95.0,39.0,95.0,195600,101.875
1809,0.0,,,,,39.0,,,,,240,note_off,,95.0,39.0,95.0,195840,102.0
1810,0.0,,,,,51.0,,,,,0,note_on,,95.0,51.0,95.0,195840,102.0
1811,0.0,,,,,51.0,,,,,240,note_off,,95.0,51.0,95.0,196080,102.125
1812,0.0,,,,,52.0,,,,,0,note_on,,95.0,52.0,95.0,196080,102.125
1813,0.0,,,,,52.0,,,,,720,note_off,,95.0,52.0,95.0,196800,102.5
1814,0.0,,,,,39.0,,,,,0,note_on,,95.0,39.0,95.0,196800,102.5
1815,0.0,,,,,39.0,,,,,240,note_off,,95.0,39.0,95.0,197040,102.625
1816,0.0,,,,,39.0,,,,,240,note_on,,95.0,39.0,95.0,197280,102.75
1817,0.0,,,,,39.0,,,,,240,note_off,,95.0,39.0,95.0,197520,102.875
1818,0.0,,,,,39.0,,,,,0,note_on,,95.0,39.0,95.0,197520,102.875
1819,0.0,,,,,39.0,,,,,240,note_off,,95.0,39.0,95.0,197760,103.0
1820,0.0,,,,,51.0,,,,,0,note_on,,95.0,51.0,95.0,197760,103.0
1821,0.0,,,,,51.0,,,,,240,note_off,,95.0,51.0,95.0,198000,103.125
1822,0.0,,,,,52.0,,,,,0,note_on,,95.0,52.0,95.0,198000,103.125
1823,0.0,,,,,52.0,,,,,240,note_off,,95.0,52.0,95.0,198240,103.25
1824,0.0,,,,,54.0,,,,,0,note_on,,95.0,54.0,95.0,198240,103.25
1825,0.0,,,,,54.0,,,,,480,note_off,,95.0,54.0,95.0,198720,103.5
1826,0.0,,,,,39.0,,,,,0,note_on,,95.0,39.0,95.0,198720,103.5
1827,0.0,,,,,39.0,,,,,240,note_off,,95.0,39.0,95.0,198960,103.625
1828,0.0,,,,,39.0,,,,,240,note_on,,95.0,39.0,95.0,199200,103.75
1829,0.0,,,,,39.0,,,,,240,note_off,,95.0,39.0,95.0,199440,103.875
1830,0.0,,,,,39.0,,,,,0,note_on,,95.0,39.0,95.0,199440,103.875
1831,0.0,,,,,39.0,,,,,240,note_off,,95.0,39.0,95.0,199680,104.0
1832,0.0,,,,,51.0,,,,,0,note_on,,95.0,51.0,95.0,199680,104.0
1833,0.0,,,,,51.0,,,,,240,note_off,,95.0,51.0,95.0,199920,104.125
1834,0.0,,,,,52.0,,,,,0,note_on,,95.0,52.0,95.0,199920,104.125
1835,0.0,,,,,52.0,,,,,240,note_off,,95.0,52.0,95.0,200160,104.25
1836,0.0,,,,,56.0,,,,,0,note_on,,95.0,56.0,95.0,200160,104.25
1837,0.0,,,,,56.0,,,,,480,note_off,,95.0,56.0,95.0,200640,104.5
1838,0.0,,,,,55.0,,,,,0,note_on,,95.0,55.0,95.0,200640,104.5
1839,0.0,,,,,55.0,,,,,240,note_off,,95.0,55.0,95.0,200880,104.625
1840,0.0,,,,,54.0,,,,,0,note_on,,95.0,54.0,95.0,200880,104.625
1841,0.0,,,,,54.0,,,,,240,note_off,,95.0,54.0,95.0,201120,104.75
1842,0.0,,,,,53.0,,,,,0,note_on,,95.0,53.0,95.0,201120,104.75
1843,0.0,,,,,53.0,,,,,240,note_off,,95.0,53.0,95.0,201360,104.875
1844,0.0,,,,,50.0,,,,,0,note_on,,95.0,50.0,95.0,201360,104.875
1845,0.0,,,,,50.0,,,,,240,note_off,,95.0,50.0,95.0,201600,105.0
1846,0.0,,,,,49.0,,,,,0,note_on,,95.0,49.0,95.0,201600,105.0
1847,0.0,,,,,49.0,,,,,240,note_off,,95.0,49.0,95.0,201840,105.125
1848,0.0,,,,,47.0,,,,,0,note_on,,95.0,47.0,95.0,201840,105.125
1849,0.0,,,,,47.0,,,,,240,note_off,,95.0,47.0,95.0,202080,105.25
1850,0.0,,,,,46.0,,,,,0,note_on,,95.0,46.0,95.0,202080,105.25
1851,0.0,,,,,46.0,,,,,240,note_off,,95.0,46.0,95.0,202320,105.375
1852,0.0,,,,,45.0,,,,,0,note_on,,95.0,45.0,95.0,202320,105.375
1853,0.0,,,,,45.0,,,,,240,note_off,,95.0,45.0,95.0,202560,105.5
1854,0.0,,,,,39.0,,,,,0,note_on,,95.0,39.0,95.0,202560,105.5
1855,0.0,,,,,39.0,,,,,240,note_off,,95.0,39.0,95.0,202800,105.625
1856,0.0,,,,,39.0,,,,,240,note_on,,95.0,39.0,95.0,203040,105.75
1857,0.0,,,,,39.0,,,,,240,note_off,,95.0,39.0,95.0,203280,105.875
1858,0.0,,,,,39.0,,,,,0,note_on,,95.0,39.0,95.0,203280,105.875
1859,0.0,,,,,39.0,,,,,240,note_off,,95.0,39.0,95.0,203520,106.0
1860,0.0,,,,,51.0,,,,,0,note_on,,95.0,51.0,95.0,203520,106.0
1861,0.0,,,,,51.0,,,,,240,note_off,,95.0,51.0,95.0,203760,106.125
1862,0.0,,,,,52.0,,,,,0,note_on,,95.0,52.0,95.0,203760,106.125
1863,0.0,,,,,52.0,,,,,720,note_off,,95.0,52.0,95.0,204480,106.5
1864,0.0,,,,,39.0,,,,,0,note_on,,95.0,39.0,95.0,204480,106.5
1865,0.0,,,,,39.0,,,,,240,note_off,,95.0,39.0,95.0,204720,106.625
1866,0.0,,,,,39.0,,,,,240,note_on,,95.0,39.0,95.0,204960,106.75
1867,0.0,,,,,39.0,,,,,240,note_off,,95.0,39.0,95.0,205200,106.875
1868,0.0,,,,,39.0,,,,,0,note_on,,95.0,39.0,95.0,205200,106.875
1869,0.0,,,,,39.0,,,,,240,note_off,,95.0,39.0,95.0,205440,107.0
1870,0.0,,,,,51.0,,,,,0,note_on,,95.0,51.0,95.0,205440,107.0
1871,0.0,,,,,51.0,,,,,240,note_off,,95.0,51.0,95.0,205680,107.125
1872,0.0,,,,,52.0,,,,,0,note_on,,95.0,52.0,95.0,205680,107.125
1873,0.0,,,,,52.0,,,,,240,note_off,,95.0,52.0,95.0,205920,107.25
1874,0.0,,,,,54.0,,,,,0,note_on,,95.0,54.0,95.0,205920,107.25
1875,0.0,,,,,54.0,,,,,480,note_off,,95.0,54.0,95.0,206400,107.5
1876,0.0,,,,,39.0,,,,,0,note_on,,95.0,39.0,95.0,206400,107.5
1877,0.0,,,,,39.0,,,,,240,note_off,,95.0,39.0,95.0,206640,107.625
1878,0.0,,,,,39.0,,,,,240,note_on,,95.0,39.0,95.0,206880,107.75
1879,0.0,,,,,39.0,,,,,240,note_off,,95.0,39.0,95.0,207120,107.875
1880,0.0,,,,,39.0,,,,,0,note_on,,95.0,39.0,95.0,207120,107.875
1881,0.0,,,,,39.0,,,,,240,note_off,,95.0,39.0,95.0,207360,108.0
1882,0.0,,,,,51.0,,,,,0,note_on,,95.0,51.0,95.0,207360,108.0
1883,0.0,,,,,51.0,,,,,240,note_off,,95.0,51.0,95.0,207600,108.125
1884,0.0,,,,,52.0,,,,,0,note_on,,95.0,52.0,95.0,207600,108.125
1885,0.0,,,,,52.0,,,,,240,note_off,,95.0,52.0,95.0,207840,108.25
1886,0.0,,,,,56.0,,,,,0,note_on,,95.0,56.0,95.0,207840,108.25
1887,0.0,,,,,56.0,,,,,480,note_off,,95.0,56.0,95.0,208320,108.5
1888,0.0,,,,,55.0,,,,,0,note_on,,95.0,55.0,95.0,208320,108.5
1889,0.0,,,,,55.0,,,,,240,note_off,,95.0,55.0,95.0,208560,108.625
1890,0.0,,,,,54.0,,,,,0,note_on,,95.0,54.0,95.0,208560,108.625
1891,0.0,,,,,54.0,,,,,240,note_off,,95.0,54.0,95.0,208800,108.75
1892,0.0,,,,,53.0,,,,,0,note_on,,95.0,53.0,95.0,208800,108.75
1893,0.0,,,,,53.0,,,,,240,note_off,,95.0,53.0,95.0,209040,108.875
1894,0.0,,,,,50.0,,,,,0,note_on,,95.0,50.0,95.0,209040,108.875
1895,0.0,,,,,50.0,,,,,240,note_off,,95.0,50.0,95.0,209280,109.0
1896,0.0,,,,,49.0,,,,,0,note_on,,95.0,49.0,95.0,209280,109.0
1897,0.0,,,,,49.0,,,,,240,note_off,,95.0,49.0,95.0,209520,109.125
1898,0.0,,,,,48.0,,,,,0,note_on,,95.0,48.0,95.0,209520,109.125
1899,0.0,,,,,48.0,,,,,240,note_off,,95.0,48.0,95.0,209760,109.25
1900,0.0,,,,,57.0,,,,,0,note_on,,95.0,57.0,95.0,209760,109.25
1901,0.0,,,,,57.0,,,,,480,note_off,,95.0,57.0,95.0,210240,109.5
1902,0.0,,,,,39.0,,,,,0,note_on,,95.0,39.0,95.0,210240,109.5
1903,0.0,,,,,39.0,,,,,240,note_off,,95.0,39.0,95.0,210480,109.625
1904,0.0,,,,,39.0,,,,,240,note_on,,95.0,39.0,95.0,210720,109.75
1905,0.0,,,,,39.0,,,,,240,note_off,,95.0,39.0,95.0,210960,109.875
1906,0.0,,,,,39.0,,,,,0,note_on,,95.0,39.0,95.0,210960,109.875
1907,0.0,,,,,39.0,,,,,240,note_off,,95.0,39.0,95.0,211200,110.0
1908,0.0,,,,,51.0,,,,,0,note_on,,95.0,51.0,95.0,211200,110.0
1909,0.0,,,,,51.0,,,,,240,note_off,,95.0,51.0,95.0,211440,110.125
1910,0.0,,,,,52.0,,,,,0,note_on,,95.0,52.0,95.0,211440,110.125
1911,0.0,,,,,52.0,,,,,720,note_off,,95.0,52.0,95.0,212160,110.5
1912,0.0,,,,,39.0,,,,,0,note_on,,95.0,39.0,95.0,212160,110.5
1913,0.0,,,,,39.0,,,,,240,note_off,,95.0,39.0,95.0,212400,110.625
1914,0.0,,,,,39.0,,,,,240,note_on,,95.0,39.0,95.0,212640,110.75
1915,0.0,,,,,39.0,,,,,240,note_off,,95.0,39.0,95.0,212880,110.875
1916,0.0,,,,,39.0,,,,,0,note_on,,95.0,39.0,95.0,212880,110.875
1917,0.0,,,,,39.0,,,,,240,note_off,,95.0,39.0,95.0,213120,111.0
1918,0.0,,,,,51.0,,,,,0,note_on,,95.0,51.0,95.0,213120,111.0
1919,0.0,,,,,51.0,,,,,240,note_off,,95.0,51.0,95.0,213360,111.125
1920,0.0,,,,,52.0,,,,,0,note_on,,95.0,52.0,95.0,213360,111.125
1921,0.0,,,,,52.0,,,,,240,note_off,,95.0,52.0,95.0,213600,111.25
1922,0.0,,,,,54.0,,,,,0,note_on,,95.0,54.0,95.0,213600,111.25
1923,0.0,,,,,54.0,,,,,480,note_off,,95.0,54.0,95.0,214080,111.5
1924,0.0,,,,,39.0,,,,,0,note_on,,95.0,39.0,95.0,214080,111.5
1925,0.0,,,,,39.0,,,,,240,note_off,,95.0,39.0,95.0,214320,111.625
1926,0.0,,,,,39.0,,,,,240,note_on,,95.0,39.0,95.0,214560,111.75
1927,0.0,,,,,39.0,,,,,240,note_off,,95.0,39.0,95.0,214800,111.875
1928,0.0,,,,,39.0,,,,,0,note_on,,95.0,39.0,95.0,214800,111.875
1929,0.0,,,,,39.0,,,,,240,note_off,,95.0,39.0,95.0,215040,112.0
1930,0.0,,,,,51.0,,,,,0,note_on,,95.0,51.0,95.0,215040,112.0
1931,0.0,,,,,51.0,,,,,240,note_off,,95.0,51.0,95.0,215280,112.125
1932,0.0,,,,,52.0,,,,,0,note_on,,95.0,52.0,95.0,215280,112.125
1933,0.0,,,,,52.0,,,,,240,note_off,,95.0,52.0,95.0,215520,112.25
1934,0.0,,,,,56.0,,,,,0,note_on,,95.0,56.0,95.0,215520,112.25
1935,0.0,,,,,56.0,,,,,480,note_off,,95.0,56.0,95.0,216000,112.5
1936,0.0,,,,,55.0,,,,,0,note_on,,95.0,55.0,95.0,216000,112.5
1937,0.0,,,,,55.0,,,,,240,note_off,,95.0,55.0,95.0,216240,112.625
1938,0.0,,,,,54.0,,,,,0,note_on,,95.0,54.0,95.0,216240,112.625
1939,0.0,,,,,54.0,,,,,240,note_off,,95.0,54.0,95.0,216480,112.75
1940,0.0,,,,,53.0,,,,,0,note_on,,95.0,53.0,95.0,216480,112.75
1941,0.0,,,,,53.0,,,,,240,note_off,,95.0,53.0,95.0,216720,112.875
1942,0.0,,,,,50.0,,,,,0,note_on,,95.0,50.0,95.0,216720,112.875
1943,0.0,,,,,50.0,,,,,240,note_off,,95.0,50.0,95.0,216960,113.0
1944,0.0,,,,,49.0,,,,,0,note_on,,95.0,49.0,95.0,216960,113.0
1945,0.0,,,,,49.0,,,,,240,note_off,,95.0,49.0,95.0,217200,113.125
1946,0.0,,,,,47.0,,,,,0,note_on,,95.0,47.0,95.0,217200,113.125
1947,0.0,,,,,47.0,,,,,240,note_off,,95.0,47.0,95.0,217440,113.25
1948,0.0,,,,,46.0,,,,,0,note_on,,95.0,46.0,95.0,217440,113.25
1949,0.0,,,,,46.0,,,,,240,note_off,,95.0,46.0,95.0,217680,113.375
1950,0.0,,,,,45.0,,,,,0,note_on,,95.0,45.0,95.0,217680,113.375
1951,0.0,,,,,45.0,,,,,240,note_off,,95.0,45.0,95.0,217920,113.5
1952,0.0,,,,,39.0,,,,,0,note_on,,95.0,39.0,95.0,217920,113.5
1953,0.0,,,,,39.0,,,,,240,note_off,,95.0,39.0,95.0,218160,113.625
1954,0.0,,,,,39.0,,,,,240,note_on,,95.0,39.0,95.0,218400,113.75
1955,0.0,,,,,39.0,,,,,240,note_off,,95.0,39.0,95.0,218640,113.875
1956,0.0,,,,,39.0,,,,,0,note_on,,95.0,39.0,95.0,218640,113.875
1957,0.0,,,,,39.0,,,,,240,note_off,,95.0,39.0,95.0,218880,114.0
1958,0.0,,,,,51.0,,,,,0,note_on,,95.0,51.0,95.0,218880,114.0
1959,0.0,,,,,51.0,,,,,240,note_off,,95.0,51.0,95.0,219120,114.125
1960,0.0,,,,,52.0,,,,,0,note_on,,95.0,52.0,95.0,219120,114.125
1961,0.0,,,,,52.0,,,,,720,note_off,,95.0,52.0,95.0,219840,114.5
1962,0.0,,,,,39.0,,,,,0,note_on,,95.0,39.0,95.0,219840,114.5
1963,0.0,,,,,39.0,,,,,240,note_off,,95.0,39.0,95.0,220080,114.625
1964,0.0,,,,,39.0,,,,,240,note_on,,95.0,39.0,95.0,220320,114.75
1965,0.0,,,,,39.0,,,,,240,note_off,,95.0,39.0,95.0,220560,114.875
1966,0.0,,,,,39.0,,,,,0,note_on,,95.0,39.0,95.0,220560,114.875
1967,0.0,,,,,39.0,,,,,240,note_off,,95.0,39.0,95.0,220800,115.0
1968,0.0,,,,,51.0,,,,,0,note_on,,95.0,51.0,95.0,220800,115.0
1969,0.0,,,,,51.0,,,,,240,note_off,,95.0,51.0,95.0,221040,115.125
1970,0.0,,,,,52.0,,,,,0,note_on,,95.0,52.0,95.0,221040,115.125
1971,0.0,,,,,52.0,,,,,240,note_off,,95.0,52.0,95.0,221280,115.25
1972,0.0,,,,,54.0,,,,,0,note_on,,95.0,54.0,95.0,221280,115.25
1973,0.0,,,,,54.0,,,,,480,note_off,,95.0,54.0,95.0,221760,115.5
1974,0.0,,,,,39.0,,,,,0,note_on,,95.0,39.0,95.0,221760,115.5
1975,0.0,,,,,39.0,,,,,240,note_off,,95.0,39.0,95.0,222000,115.625
1976,0.0,,,,,39.0,,,,,240,note_on,,95.0,39.0,95.0,222240,115.75
1977,0.0,,,,,39.0,,,,,240,note_off,,95.0,39.0,95.0,222480,115.875
1978,0.0,,,,,39.0,,,,,0,note_on,,95.0,39.0,95.0,222480,115.875
1979,0.0,,,,,39.0,,,,,240,note_off,,95.0,39.0,95.0,222720,116.0
1980,0.0,,,,,51.0,,,,,0,note_on,,95.0,51.0,95.0,222720,116.0
1981,0.0,,,,,51.0,,,,,240,note_off,,95.0,51.0,95.0,222960,116.125
1982,0.0,,,,,52.0,,,,,0,note_on,,95.0,52.0,95.0,222960,116.125
1983,0.0,,,,,52.0,,,,,240,note_off,,95.0,52.0,95.0,223200,116.25
1984,0.0,,,,,56.0,,,,,0,note_on,,95.0,56.0,95.0,223200,116.25
1985,0.0,,,,,56.0,,,,,480,note_off,,95.0,56.0,95.0,223680,116.5
1986,0.0,,,,,55.0,,,,,0,note_on,,95.0,55.0,95.0,223680,116.5
1987,0.0,,,,,55.0,,,,,240,note_off,,95.0,55.0,95.0,223920,116.625
1988,0.0,,,,,54.0,,,,,0,note_on,,95.0,54.0,95.0,223920,116.625
1989,0.0,,,,,54.0,,,,,240,note_off,,95.0,54.0,95.0,224160,116.75
1990,0.0,,,,,53.0,,,,,0,note_on,,95.0,53.0,95.0,224160,116.75
1991,0.0,,,,,53.0,,,,,240,note_off,,95.0,53.0,95.0,224400,116.875
1992,0.0,,,,,49.0,,,,,0,note_on,,95.0,49.0,95.0,224400,116.875
1993,0.0,,,,,49.0,,,,,240,note_off,,95.0,49.0,95.0,224640,117.0
1994,0.0,,,,,48.0,,,,,0,note_on,,95.0,48.0,95.0,224640,117.0
1995,0.0,,,,,48.0,,,,,240,note_off,,95.0,48.0,95.0,224880,117.125
1996,0.0,,,,,47.0,,,,,0,note_on,,95.0,47.0,95.0,224880,117.125
1997,0.0,,,,,47.0,,,,,240,note_off,,95.0,47.0,95.0,225120,117.25
1998,0.0,,,,,43.0,,,,,0,note_on,,95.0,43.0,95.0,225120,117.25
1999,0.0,,,,,43.0,,,,,240,note_off,,95.0,43.0,95.0,225360,117.375
2000,0.0,,,,,42.0,,,,,0,note_on,,95.0,42.0,95.0,225360,117.375
2001,0.0,,,,,42.0,,,,,240,note_off,,95.0,42.0,95.0,225600,117.5
2002,0.0,,,,,48.0,,,,,0,note_on,,95.0,48.0,95.0,225600,117.5
2003,0.0,,,,,41.0,,,,,0,note_on,,95.0,41.0,95.0,225600,117.5
2004,0.0,,,,,48.0,,,,,240,note_off,,95.0,48.0,95.0,225840,117.625
2005,0.0,,,,,41.0,,,,,0,note_off,,95.0,41.0,95.0,225840,117.625
2006,0.0,,,,,41.0,,,,,0,note_on,,95.0,41.0,95.0,225840,117.625
2007,0.0,,,,,41.0,,,,,240,note_off,,95.0,41.0,95.0,226080,117.75
2008,0.0,,,,,41.0,,,,,0,note_on,,95.0,41.0,95.0,226080,117.75
2009,0.0,,,,,41.0,,,,,240,note_off,,95.0,41.0,95.0,226320,117.875
2010,0.0,,,,,41.0,,,,,0,note_on,,95.0,41.0,95.0,226320,117.875
2011,0.0,,,,,41.0,,,,,240,note_off,,95.0,41.0,95.0,226560,118.0
2012,0.0,,,,,41.0,,,,,0,note_on,,95.0,41.0,95.0,226560,118.0
2013,0.0,,,,,41.0,,,,,240,note_off,,95.0,41.0,95.0,226800,118.125
2014,0.0,,,,,41.0,,,,,0,note_on,,95.0,41.0,95.0,226800,118.125
2015,0.0,,,,,41.0,,,,,240,note_off,,95.0,41.0,95.0,227040,118.25
2016,0.0,,,,,41.0,,,,,0,note_on,,95.0,41.0,95.0,227040,118.25
2017,0.0,,,,,41.0,,,,,240,note_off,,95.0,41.0,95.0,227280,118.375
2018,0.0,,,,,41.0,,,,,0,note_on,,95.0,41.0,95.0,227280,118.375
2019,0.0,,,,,41.0,,,,,240,note_off,,95.0,41.0,95.0,227520,118.5
2020,0.0,,,,,48.0,,,,,0,note_on,,95.0,48.0,95.0,227520,118.5
2021,0.0,,,,,39.0,,,,,0,note_on,,95.0,39.0,95.0,227520,118.5
2022,0.0,,,,,48.0,,,,,240,note_off,,95.0,48.0,95.0,227760,118.625
2023,0.0,,,,,39.0,,,,,0,note_off,,95.0,39.0,95.0,227760,118.625
2024,0.0,,,,,41.0,,,,,0,note_on,,95.0,41.0,95.0,227760,118.625
2025,0.0,,,,,41.0,,,,,240,note_off,,95.0,41.0,95.0,228000,118.75
2026,0.0,,,,,41.0,,,,,0,note_on,,95.0,41.0,95.0,228000,118.75
2027,0.0,,,,,41.0,,,,,240,note_off,,95.0,41.0,95.0,228240,118.875
2028,0.0,,,,,41.0,,,,,0,note_on,,95.0,41.0,95.0,228240,118.875
2029,0.0,,,,,41.0,,,,,240,note_off,,95.0,41.0,95.0,228480,119.0
2030,0.0,,,,,41.0,,,,,0,note_on,,95.0,41.0,95.0,228480,119.0
2031,0.0,,,,,41.0,,,,,240,note_off,,95.0,41.0,95.0,228720,119.125
2032,0.0,,,,,41.0,,,,,0,note_on,,95.0,41.0,95.0,228720,119.125
2033,0.0,,,,,41.0,,,,,240,note_off,,95.0,41.0,95.0,228960,119.25
2034,0.0,,,,,41.0,,,,,0,note_on,,95.0,41.0,95.0,228960,119.25
2035,0.0,,,,,41.0,,,,,240,note_off,,95.0,41.0,95.0,229200,119.375
2036,0.0,,,,,41.0,,,,,0,note_on,,95.0,41.0,95.0,229200,119.375
2037,0.0,,,,,41.0,,,,,240,note_off,,95.0,41.0,95.0,229440,119.5
2038,0.0,,,,,41.0,,,,,0,note_on,,95.0,41.0,95.0,229440,119.5
2039,0.0,,,,,41.0,,,,,240,note_off,,95.0,41.0,95.0,229680,119.625
2040,0.0,,,,,41.0,,,,,0,note_on,,95.0,41.0,95.0,229680,119.625
2041,0.0,,,,,41.0,,,,,240,note_off,,95.0,41.0,95.0,229920,119.75
2042,0.0,,,,,41.0,,,,,0,note_on,,95.0,41.0,95.0,229920,119.75
2043,0.0,,,,,41.0,,,,,240,note_off,,95.0,41.0,95.0,230160,119.875
2044,0.0,,,,,41.0,,,,,0,note_on,,95.0,41.0,95.0,230160,119.875
2045,0.0,,,,,41.0,,,,,240,note_off,,95.0,41.0,95.0,230400,120.0
2046,0.0,,,,,41.0,,,,,0,note_on,,95.0,41.0,95.0,230400,120.0
2047,0.0,,,,,41.0,,,,,240,note_off,,95.0,41.0,95.0,230640,120.125
2048,0.0,,,,,41.0,,,,,0,note_on,,95.0,41.0,95.0,230640,120.125
2049,0.0,,,,,41.0,,,,,240,note_off,,95.0,41.0,95.0,230880,120.25
2050,0.0,,,,,41.0,,,,,0,note_on,,95.0,41.0,95.0,230880,120.25
2051,0.0,,,,,41.0,,,,,240,note_off,,95.0,41.0,95.0,231120,120.375
2052,0.0,,,,,41.0,,,,,0,note_on,,95.0,41.0,95.0,231120,120.375
2053,0.0,,,,,41.0,,,,,240,note_off,,95.0,41.0,95.0,231360,120.5
2054,0.0,,,,,48.0,,,,,0,note_on,,95.0,48.0,95.0,231360,120.5
2055,0.0,,,,,39.0,,,,,0,note_on,,95.0,39.0,95.0,231360,120.5
2056,0.0,,,,,48.0,,,,,240,note_off,,95.0,48.0,95.0,231600,120.625
2057,0.0,,,,,39.0,,,,,0,note_off,,95.0,39.0,95.0,231600,120.625
2058,0.0,,,,,41.0,,,,,0,note_on,,95.0,41.0,95.0,231600,120.625
2059,0.0,,,,,41.0,,,,,240,note_off,,95.0,41.0,95.0,231840,120.75
2060,0.0,,,,,41.0,,,,,0,note_on,,95.0,41.0,95.0,231840,120.75
2061,0.0,,,,,41.0,,,,,240,note_off,,95.0,41.0,95.0,232080,120.875
2062,0.0,,,,,41.0,,,,,0,note_on,,95.0,41.0,95.0,232080,120.875
2063,0.0,,,,,41.0,,,,,240,note_off,,95.0,41.0,95.0,232320,121.0
2064,0.0,,,,,41.0,,,,,0,note_on,,95.0,41.0,95.0,232320,121.0
2065,0.0,,,,,41.0,,,,,240,note_off,,95.0,41.0,95.0,232560,121.125
2066,0.0,,,,,41.0,,,,,0,note_on,,95.0,41.0,95.0,232560,121.125
2067,0.0,,,,,41.0,,,,,240,note_off,,95.0,41.0,95.0,232800,121.25
2068,0.0,,,,,52.0,,,,,0,note_on,,95.0,52.0,95.0,232800,121.25
2069,0.0,,,,,45.0,,,,,0,note_on,,95.0,45.0,95.0,232800,121.25
2070,0.0,,,,,52.0,,,,,480,note_off,,95.0,52.0,95.0,233280,121.5
2071,0.0,,,,,45.0,,,,,0,note_off,,95.0,45.0,95.0,233280,121.5
2072,0.0,,,,,48.0,,,,,0,note_on,,95.0,48.0,95.0,233280,121.5
2073,0.0,,,,,41.0,,,,,0,note_on,,95.0,41.0,95.0,233280,121.5
2074,0.0,,,,,48.0,,,,,240,note_off,,95.0,48.0,95.0,233520,121.625
2075,0.0,,,,,41.0,,,,,0,note_off,,95.0,41.0,95.0,233520,121.625
2076,0.0,,,,,41.0,,,,,0,note_on,,95.0,41.0,95.0,233520,121.625
2077,0.0,,,,,41.0,,,,,240,note_off,,95.0,41.0,95.0,233760,121.75
2078,0.0,,,,,41.0,,,,,0,note_on,,95.0,41.0,95.0,233760,121.75
2079,0.0,,,,,41.0,,,,,240,note_off,,95.0,41.0,95.0,234000,121.875
2080,0.0,,,,,41.0,,,,,0,note_on,,95.0,41.0,95.0,234000,121.875
2081,0.0,,,,,41.0,,,,,240,note_off,,95.0,41.0,95.0,234240,122.0
2082,0.0,,,,,41.0,,,,,0,note_on,,95.0,41.0,95.0,234240,122.0
2083,0.0,,,,,41.0,,,,,240,note_off,,95.0,41.0,95.0,234480,122.125
2084,0.0,,,,,41.0,,,,,0,note_on,,95.0,41.0,95.0,234480,122.125
2085,0.0,,,,,41.0,,,,,240,note_off,,95.0,41.0,95.0,234720,122.25
2086,0.0,,,,,41.0,,,,,0,note_on,,95.0,41.0,95.0,234720,122.25
2087,0.0,,,,,41.0,,,,,240,note_off,,95.0,41.0,95.0,234960,122.375
2088,0.0,,,,,41.0,,,,,0,note_on,,95.0,41.0,95.0,234960,122.375
2089,0.0,,,,,41.0,,,,,240,note_off,,95.0,41.0,95.0,235200,122.5
2090,0.0,,,,,48.0,,,,,0,note_on,,95.0,48.0,95.0,235200,122.5
2091,0.0,,,,,39.0,,,,,0,note_on,,95.0,39.0,95.0,235200,122.5
2092,0.0,,,,,48.0,,,,,240,note_off,,95.0,48.0,95.0,235440,122.625
2093,0.0,,,,,39.0,,,,,0,note_off,,95.0,39.0,95.0,235440,122.625
2094,0.0,,,,,41.0,,,,,0,note_on,,95.0,41.0,95.0,235440,122.625
2095,0.0,,,,,41.0,,,,,240,note_off,,95.0,41.0,95.0,235680,122.75
2096,0.0,,,,,41.0,,,,,0,note_on,,95.0,41.0,95.0,235680,122.75
2097,0.0,,,,,41.0,,,,,240,note_off,,95.0,41.0,95.0,235920,122.875
2098,0.0,,,,,41.0,,,,,0,note_on,,95.0,41.0,95.0,235920,122.875
2099,0.0,,,,,41.0,,,,,240,note_off,,95.0,41.0,95.0,236160,123.0
2100,0.0,,,,,41.0,,,,,0,note_on,,95.0,41.0,95.0,236160,123.0
2101,0.0,,,,,41.0,,,,,240,note_off,,95.0,41.0,95.0,236400,123.125
2102,0.0,,,,,41.0,,,,,0,note_on,,95.0,41.0,95.0,236400,123.125
2103,0.0,,,,,41.0,,,,,240,note_off,,95.0,41.0,95.0,236640,123.25
2104,0.0,,,,,41.0,,,,,0,note_on,,95.0,41.0,95.0,236640,123.25
2105,0.0,,,,,41.0,,,,,240,note_off,,95.0,41.0,95.0,236880,123.375
2106,0.0,,,,,41.0,,,,,0,note_on,,95.0,41.0,95.0,236880,123.375
2107,0.0,,,,,41.0,,,,,240,note_off,,95.0,41.0,95.0,237120,123.5
2108,0.0,,,,,41.0,,,,,0,note_on,,95.0,41.0,95.0,237120,123.5
2109,0.0,,,,,41.0,,,,,240,note_off,,95.0,41.0,95.0,237360,123.625
2110,0.0,,,,,41.0,,,,,0,note_on,,95.0,41.0,95.0,237360,123.625
2111,0.0,,,,,41.0,,,,,240,note_off,,95.0,41.0,95.0,237600,123.75
2112,0.0,,,,,41.0,,,,,0,note_on,,95.0,41.0,95.0,237600,123.75
2113,0.0,,,,,41.0,,,,,240,note_off,,95.0,41.0,95.0,237840,123.875
2114,0.0,,,,,41.0,,,,,0,note_on,,95.0,41.0,95.0,237840,123.875
2115,0.0,,,,,41.0,,,,,240,note_off,,95.0,41.0,95.0,238080,124.0
2116,0.0,,,,,41.0,,,,,0,note_on,,95.0,41.0,95.0,238080,124.0
2117,0.0,,,,,41.0,,,,,240,note_off,,95.0,41.0,95.0,238320,124.125
2118,0.0,,,,,41.0,,,,,0,note_on,,95.0,41.0,95.0,238320,124.125
2119,0.0,,,,,41.0,,,,,240,note_off,,95.0,41.0,95.0,238560,124.25
2120,0.0,,,,,41.0,,,,,0,note_on,,95.0,41.0,95.0,238560,124.25
2121,0.0,,,,,41.0,,,,,240,note_off,,95.0,41.0,95.0,238800,124.375
2122,0.0,,,,,41.0,,,,,0,note_on,,95.0,41.0,95.0,238800,124.375
2123,0.0,,,,,41.0,,,,,240,note_off,,95.0,41.0,95.0,239040,124.5
2124,0.0,,,,,48.0,,,,,0,note_on,,95.0,48.0,95.0,239040,124.5
2125,0.0,,,,,39.0,,,,,0,note_on,,95.0,39.0,95.0,239040,124.5
2126,0.0,,,,,48.0,,,,,240,note_off,,95.0,48.0,95.0,239280,124.625
2127,0.0,,,,,39.0,,,,,0,note_off,,95.0,39.0,95.0,239280,124.625
2128,0.0,,,,,41.0,,,,,0,note_on,,95.0,41.0,95.0,239280,124.625
2129,0.0,,,,,41.0,,,,,240,note_off,,95.0,41.0,95.0,239520,124.75
2130,0.0,,,,,41.0,,,,,0,note_on,,95.0,41.0,95.0,239520,124.75
2131,0.0,,,,,41.0,,,,,240,note_off,,95.0,41.0,95.0,239760,124.875
2132,0.0,,,,,41.0,,,,,0,note_on,,95.0,41.0,95.0,239760,124.875
2133,0.0,,,,,41.0,,,,,240,note_off,,95.0,41.0,95.0,240000,125.0
2134,0.0,,,,,41.0,,,,,0,note_on,,95.0,41.0,95.0,240000,125.0
2135,0.0,,,,,41.0,,,,,240,note_off,,95.0,41.0,95.0,240240,125.125
2136,0.0,,,,,41.0,,,,,0,note_on,,95.0,41.0,95.0,240240,125.125
2137,0.0,,,,,41.0,,,,,240,note_off,,95.0,41.0,95.0,240480,125.25
2138,0.0,,,,,49.0,,,,,0,note_on,,95.0,49.0,95.0,240480,125.25
2139,0.0,,,,,42.0,,,,,0,note_on,,95.0,42.0,95.0,240480,125.25
2140,0.0,,,,,49.0,,,,,480,note_off,,95.0,49.0,95.0,240960,125.5
2141,0.0,,,,,42.0,,,,,0,note_off,,95.0,42.0,95.0,240960,125.5
2142,0.0,,,,,48.0,,,,,0,note_on,,95.0,48.0,95.0,240960,125.5
2143,0.0,,,,,41.0,,,,,0,note_on,,95.0,41.0,95.0,240960,125.5
2144,0.0,,,,,48.0,,,,,240,note_off,,95.0,48.0,95.0,241200,125.625
2145,0.0,,,,,41.0,,,,,0,note_off,,95.0,41.0,95.0,241200,125.625
2146,0.0,,,,,41.0,,,,,0,note_on,,95.0,41.0,95.0,241200,125.625
2147,0.0,,,,,41.0,,,,,240,note_off,,95.0,41.0,95.0,241440,125.75
2148,0.0,,,,,41.0,,,,,0,note_on,,95.0,41.0,95.0,241440,125.75
2149,0.0,,,,,41.0,,,,,240,note_off,,95.0,41.0,95.0,241680,125.875
2150,0.0,,,,,41.0,,,,,0,note_on,,95.0,41.0,95.0,241680,125.875
2151,0.0,,,,,41.0,,,,,240,note_off,,95.0,41.0,95.0,241920,126.0
2152,0.0,,,,,41.0,,,,,0,note_on,,95.0,41.0,95.0,241920,126.0
2153,0.0,,,,,41.0,,,,,240,note_off,,95.0,41.0,95.0,242160,126.125
2154,0.0,,,,,41.0,,,,,0,note_on,,95.0,41.0,95.0,242160,126.125
2155,0.0,,,,,41.0,,,,,240,note_off,,95.0,41.0,95.0,242400,126.25
2156,0.0,,,,,41.0,,,,,0,note_on,,95.0,41.0,95.0,242400,126.25
2157,0.0,,,,,41.0,,,,,240,note_off,,95.0,41.0,95.0,242640,126.375
2158,0.0,,,,,41.0,,,,,0,note_on,,95.0,41.0,95.0,242640,126.375
2159,0.0,,,,,41.0,,,,,240,note_off,,95.0,41.0,95.0,242880,126.5
2160,0.0,,,,,48.0,,,,,0,note_on,,95.0,48.0,95.0,242880,126.5
2161,0.0,,,,,39.0,,,,,0,note_on,,95.0,39.0,95.0,242880,126.5
2162,0.0,,,,,48.0,,,,,240,note_off,,95.0,48.0,95.0,243120,126.625
2163,0.0,,,,,39.0,,,,,0,note_off,,95.0,39.0,95.0,243120,126.625
2164,0.0,,,,,41.0,,,,,0,note_on,,95.0,41.0,95.0,243120,126.625
2165,0.0,,,,,41.0,,,,,240,note_off,,95.0,41.0,95.0,243360,126.75
2166,0.0,,,,,41.0,,,,,0,note_on,,95.0,41.0,95.0,243360,126.75
2167,0.0,,,,,41.0,,,,,240,note_off,,95.0,41.0,95.0,243600,126.875
2168,0.0,,,,,41.0,,,,,0,note_on,,95.0,41.0,95.0,243600,126.875
2169,0.0,,,,,41.0,,,,,240,note_off,,95.0,41.0,95.0,243840,127.0
2170,0.0,,,,,41.0,,,,,0,note_on,,95.0,41.0,95.0,243840,127.0
2171,0.0,,,,,41.0,,,,,240,note_off,,95.0,41.0,95.0,244080,127.125
2172,0.0,,,,,41.0,,,,,0,note_on,,95.0,41.0,95.0,244080,127.125
2173,0.0,,,,,41.0,,,,,240,note_off,,95.0,41.0,95.0,244320,127.25
2174,0.0,,,,,41.0,,,,,0,note_on,,95.0,41.0,95.0,244320,127.25
2175,0.0,,,,,41.0,,,,,240,note_off,,95.0,41.0,95.0,244560,127.375
2176,0.0,,,,,41.0,,,,,0,note_on,,95.0,41.0,95.0,244560,127.375
2177,0.0,,,,,41.0,,,,,240,note_off,,95.0,41.0,95.0,244800,127.5
2178,0.0,,,,,41.0,,,,,0,note_on,,95.0,41.0,95.0,244800,127.5
2179,0.0,,,,,41.0,,,,,240,note_off,,95.0,41.0,95.0,245040,127.625
2180,0.0,,,,,41.0,,,,,0,note_on,,95.0,41.0,95.0,245040,127.625
2181,0.0,,,,,41.0,,,,,240,note_off,,95.0,41.0,95.0,245280,127.75
2182,0.0,,,,,41.0,,,,,0,note_on,,95.0,41.0,95.0,245280,127.75
2183,0.0,,,,,41.0,,,,,240,note_off,,95.0,41.0,95.0,245520,127.875
2184,0.0,,,,,41.0,,,,,0,note_on,,95.0,41.0,95.0,245520,127.875
2185,0.0,,,,,41.0,,,,,240,note_off,,95.0,41.0,95.0,245760,128.0
2186,0.0,,,,,41.0,,,,,0,note_on,,95.0,41.0,95.0,245760,128.0
2187,0.0,,,,,41.0,,,,,240,note_off,,95.0,41.0,95.0,246000,128.125
2188,0.0,,,,,41.0,,,,,0,note_on,,95.0,41.0,95.0,246000,128.125
2189,0.0,,,,,41.0,,,,,240,note_off,,95.0,41.0,95.0,246240,128.25
2190,0.0,,,,,41.0,,,,,0,note_on,,95.0,41.0,95.0,246240,128.25
2191,0.0,,,,,41.0,,,,,240,note_off,,95.0,41.0,95.0,246480,128.375
2192,0.0,,,,,41.0,,,,,0,note_on,,95.0,41.0,95.0,246480,128.375
2193,0.0,,,,,41.0,,,,,240,note_off,,95.0,41.0,95.0,246720,128.5
2194,0.0,,,,,48.0,,,,,0,note_on,,95.0,48.0,95.0,246720,128.5
2195,0.0,,,,,39.0,,,,,0,note_on,,95.0,39.0,95.0,246720,128.5
2196,0.0,,,,,48.0,,,,,240,note_off,,95.0,48.0,95.0,246960,128.625
2197,0.0,,,,,39.0,,,,,0,note_off,,95.0,39.0,95.0,246960,128.625
2198,0.0,,,,,41.0,,,,,0,note_on,,95.0,41.0,95.0,246960,128.625
2199,0.0,,,,,41.0,,,,,240,note_off,,95.0,41.0,95.0,247200,128.75
2200,0.0,,,,,41.0,,,,,0,note_on,,95.0,41.0,95.0,247200,128.75
2201,0.0,,,,,41.0,,,,,240,note_off,,95.0,41.0,95.0,247440,128.875
2202,0.0,,,,,41.0,,,,,0,note_on,,95.0,41.0,95.0,247440,128.875
2203,0.0,,,,,41.0,,,,,240,note_off,,95.0,41.0,95.0,247680,129.0
2204,0.0,,,,,41.0,,,,,0,note_on,,95.0,41.0,95.0,247680,129.0
2205,0.0,,,,,41.0,,,,,240,note_off,,95.0,41.0,95.0,247920,129.125
2206,0.0,,,,,41.0,,,,,0,note_on,,95.0,41.0,95.0,247920,129.125
2207,0.0,,,,,41.0,,,,,240,note_off,,95.0,41.0,95.0,248160,129.25
2208,0.0,,,,,52.0,,,,,0,note_on,,95.0,52.0,95.0,248160,129.25
2209,0.0,,,,,45.0,,,,,0,note_on,,95.0,45.0,95.0,248160,129.25
2210,0.0,,,,,52.0,,,,,480,note_off,,95.0,52.0,95.0,248640,129.5
2211,0.0,,,,,45.0,,,,,0,note_off,,95.0,45.0,95.0,248640,129.5
2212,0.0,,,,,48.0,,,,,0,note_on,,95.0,48.0,95.0,248640,129.5
2213,0.0,,,,,41.0,,,,,0,note_on,,95.0,41.0,95.0,248640,129.5
2214,0.0,,,,,48.0,,,,,240,note_off,,95.0,48.0,95.0,248880,129.625
2215,0.0,,,,,41.0,,,,,0,note_off,,95.0,41.0,95.0,248880,129.625
2216,0.0,,,,,41.0,,,,,0,note_on,,95.0,41.0,95.0,248880,129.625
2217,0.0,,,,,41.0,,,,,240,note_off,,95.0,41.0,95.0,249120,129.75
2218,0.0,,,,,41.0,,,,,0,note_on,,95.0,41.0,95.0,249120,129.75
2219,0.0,,,,,41.0,,,,,240,note_off,,95.0,41.0,95.0,249360,129.875
2220,0.0,,,,,41.0,,,,,0,note_on,,95.0,41.0,95.0,249360,129.875
2221,0.0,,,,,41.0,,,,,240,note_off,,95.0,41.0,95.0,249600,130.0
2222,0.0,,,,,41.0,,,,,0,note_on,,95.0,41.0,95.0,249600,130.0
2223,0.0,,,,,41.0,,,,,240,note_off,,95.0,41.0,95.0,249840,130.125
2224,0.0,,,,,41.0,,,,,0,note_on,,95.0,41.0,95.0,249840,130.125
2225,0.0,,,,,41.0,,,,,240,note_off,,95.0,41.0,95.0,250080,130.25
2226,0.0,,,,,41.0,,,,,0,note_on,,95.0,41.0,95.0,250080,130.25
2227,0.0,,,,,41.0,,,,,240,note_off,,95.0,41.0,95.0,250320,130.375
2228,0.0,,,,,41.0,,,,,0,note_on,,95.0,41.0,95.0,250320,130.375
2229,0.0,,,,,41.0,,,,,240,note_off,,95.0,41.0,95.0,250560,130.5
2230,0.0,,,,,48.0,,,,,0,note_on,,95.0,48.0,95.0,250560,130.5
2231,0.0,,,,,39.0,,,,,0,note_on,,95.0,39.0,95.0,250560,130.5
2232,0.0,,,,,48.0,,,,,240,note_off,,95.0,48.0,95.0,250800,130.625
2233,0.0,,,,,39.0,,,,,0,note_off,,95.0,39.0,95.0,250800,130.625
2234,0.0,,,,,41.0,,,,,0,note_on,,95.0,41.0,95.0,250800,130.625
2235,0.0,,,,,41.0,,,,,240,note_off,,95.0,41.0,95.0,251040,130.75
2236,0.0,,,,,41.0,,,,,0,note_on,,95.0,41.0,95.0,251040,130.75
2237,0.0,,,,,41.0,,,,,240,note_off,,95.0,41.0,95.0,251280,130.875
2238,0.0,,,,,41.0,,,,,0,note_on,,95.0,41.0,95.0,251280,130.875
2239,0.0,,,,,41.0,,,,,240,note_off,,95.0,41.0,95.0,251520,131.0
2240,0.0,,,,,41.0,,,,,0,note_on,,95.0,41.0,95.0,251520,131.0
2241,0.0,,,,,41.0,,,,,240,note_off,,95.0,41.0,95.0,251760,131.125
2242,0.0,,,,,41.0,,,,,0,note_on,,95.0,41.0,95.0,251760,131.125
2243,0.0,,,,,41.0,,,,,240,note_off,,95.0,41.0,95.0,252000,131.25
2244,0.0,,,,,41.0,,,,,0,note_on,,95.0,41.0,95.0,252000,131.25
2245,0.0,,,,,41.0,,,,,240,note_off,,95.0,41.0,95.0,252240,131.375
2246,0.0,,,,,41.0,,,,,0,note_on,,95.0,41.0,95.0,252240,131.375
2247,0.0,,,,,41.0,,,,,240,note_off,,95.0,41.0,95.0,252480,131.5
2248,0.0,,,,,41.0,,,,,0,note_on,,95.0,41.0,95.0,252480,131.5
2249,0.0,,,,,41.0,,,,,240,note_off,,95.0,41.0,95.0,252720,131.625
2250,0.0,,,,,41.0,,,,,0,note_on,,95.0,41.0,95.0,252720,131.625
2251,0.0,,,,,41.0,,,,,240,note_off,,95.0,41.0,95.0,252960,131.75
2252,0.0,,,,,41.0,,,,,0,note_on,,95.0,41.0,95.0,252960,131.75
2253,0.0,,,,,41.0,,,,,240,note_off,,95.0,41.0,95.0,253200,131.875
2254,0.0,,,,,41.0,,,,,0,note_on,,95.0,41.0,95.0,253200,131.875
2255,0.0,,,,,41.0,,,,,240,note_off,,95.0,41.0,95.0,253440,132.0
2256,0.0,,,,,41.0,,,,,0,note_on,,95.0,41.0,95.0,253440,132.0
2257,0.0,,,,,41.0,,,,,240,note_off,,95.0,41.0,95.0,253680,132.125
2258,0.0,,,,,41.0,,,,,0,note_on,,95.0,41.0,95.0,253680,132.125
2259,0.0,,,,,41.0,,,,,240,note_off,,95.0,41.0,95.0,253920,132.25
2260,0.0,,,,,41.0,,,,,0,note_on,,95.0,41.0,95.0,253920,132.25
2261,0.0,,,,,41.0,,,,,240,note_off,,95.0,41.0,95.0,254160,132.375
2262,0.0,,,,,41.0,,,,,0,note_on,,95.0,41.0,95.0,254160,132.375
2263,0.0,,,,,41.0,,,,,240,note_off,,95.0,41.0,95.0,254400,132.5
2264,0.0,,,,,48.0,,,,,0,note_on,,95.0,48.0,95.0,254400,132.5
2265,0.0,,,,,39.0,,,,,0,note_on,,95.0,39.0,95.0,254400,132.5
2266,0.0,,,,,48.0,,,,,240,note_off,,95.0,48.0,95.0,254640,132.625
2267,0.0,,,,,39.0,,,,,0,note_off,,95.0,39.0,95.0,254640,132.625
2268,0.0,,,,,41.0,,,,,0,note_on,,95.0,41.0,95.0,254640,132.625
2269,0.0,,,,,41.0,,,,,240,note_off,,95.0,41.0,95.0,254880,132.75
2270,0.0,,,,,41.0,,,,,0,note_on,,95.0,41.0,95.0,254880,132.75
2271,0.0,,,,,41.0,,,,,240,note_off,,95.0,41.0,95.0,255120,132.875
2272,0.0,,,,,41.0,,,,,0,note_on,,95.0,41.0,95.0,255120,132.875
2273,0.0,,,,,41.0,,,,,240,note_off,,95.0,41.0,95.0,255360,133.0
2274,0.0,,,,,49.0,,,,,0,note_on,,95.0,49.0,95.0,255360,133.0
2275,0.0,,,,,42.0,,,,,0,note_on,,95.0,42.0,95.0,255360,133.0
2276,0.0,,,,,49.0,,,,,960,note_off,,95.0,49.0,95.0,256320,133.5
2277,0.0,,,,,42.0,,,,,0,note_off,,95.0,42.0,95.0,256320,133.5
2278,0.0,,,,,44.0,,,,,0,note_on,,95.0,44.0,95.0,256320,133.5
2279,0.0,,,,,44.0,,,,,240,note_off,,95.0,44.0,95.0,256560,133.625
2280,0.0,,,,,44.0,,,,,0,note_on,,95.0,44.0,95.0,256560,133.625
2281,0.0,,,,,44.0,,,,,240,note_off,,95.0,44.0,95.0,256800,133.75
2282,0.0,,,,,44.0,,,,,0,note_on,,95.0,44.0,95.0,256800,133.75
2283,0.0,,,,,44.0,,,,,240,note_off,,95.0,44.0,95.0,257040,133.875
2284,0.0,,,,,44.0,,,,,0,note_on,,95.0,44.0,95.0,257040,133.875
2285,0.0,,,,,44.0,,,,,240,note_off,,95.0,44.0,95.0,257280,134.0
2286,0.0,,,,,44.0,,,,,0,note_on,,95.0,44.0,95.0,257280,134.0
2287,0.0,,,,,44.0,,,,,240,note_off,,95.0,44.0,95.0,257520,134.125
2288,0.0,,,,,44.0,,,,,0,note_on,,95.0,44.0,95.0,257520,134.125
2289,0.0,,,,,44.0,,,,,240,note_off,,95.0,44.0,95.0,257760,134.25
2290,0.0,,,,,44.0,,,,,0,note_on,,95.0,44.0,95.0,257760,134.25
2291,0.0,,,,,44.0,,,,,240,note_off,,95.0,44.0,95.0,258000,134.375
2292,0.0,,,,,44.0,,,,,0,note_on,,95.0,44.0,95.0,258000,134.375
2293,0.0,,,,,44.0,,,,,240,note_off,,95.0,44.0,95.0,258240,134.5
2294,0.0,,,,,42.0,,,,,0,note_on,,95.0,42.0,95.0,258240,134.5
2295,0.0,,,,,42.0,,,,,240,note_off,,95.0,42.0,95.0,258480,134.625
2296,0.0,,,,,44.0,,,,,0,note_on,,95.0,44.0,95.0,258480,134.625
2297,0.0,,,,,44.0,,,,,240,note_off,,95.0,44.0,95.0,258720,134.75
2298,0.0,,,,,44.0,,,,,0,note_on,,95.0,44.0,95.0,258720,134.75
2299,0.0,,,,,44.0,,,,,240,note_off,,95.0,44.0,95.0,258960,134.875
2300,0.0,,,,,44.0,,,,,0,note_on,,95.0,44.0,95.0,258960,134.875
2301,0.0,,,,,44.0,,,,,240,note_off,,95.0,44.0,95.0,259200,135.0
2302,0.0,,,,,44.0,,,,,0,note_on,,95.0,44.0,95.0,259200,135.0
2303,0.0,,,,,44.0,,,,,240,note_off,,95.0,44.0,95.0,259440,135.125
2304,0.0,,,,,44.0,,,,,0,note_on,,95.0,44.0,95.0,259440,135.125
2305,0.0,,,,,44.0,,,,,240,note_off,,95.0,44.0,95.0,259680,135.25
2306,0.0,,,,,44.0,,,,,0,note_on,,95.0,44.0,95.0,259680,135.25
2307,0.0,,,,,44.0,,,,,240,note_off,,95.0,44.0,95.0,259920,135.375
2308,0.0,,,,,44.0,,,,,0,note_on,,95.0,44.0,95.0,259920,135.375
2309,0.0,,,,,44.0,,,,,240,note_off,,95.0,44.0,95.0,260160,135.5
2310,0.0,,,,,44.0,,,,,0,note_on,,95.0,44.0,95.0,260160,135.5
2311,0.0,,,,,44.0,,,,,240,note_off,,95.0,44.0,95.0,260400,135.625
2312,0.0,,,,,44.0,,,,,0,note_on,,95.0,44.0,95.0,260400,135.625
2313,0.0,,,,,44.0,,,,,240,note_off,,95.0,44.0,95.0,260640,135.75
2314,0.0,,,,,44.0,,,,,0,note_on,,95.0,44.0,95.0,260640,135.75
2315,0.0,,,,,44.0,,,,,240,note_off,,95.0,44.0,95.0,260880,135.875
2316,0.0,,,,,44.0,,,,,0,note_on,,95.0,44.0,95.0,260880,135.875
2317,0.0,,,,,44.0,,,,,240,note_off,,95.0,44.0,95.0,261120,136.0
2318,0.0,,,,,44.0,,,,,0,note_on,,95.0,44.0,95.0,261120,136.0
2319,0.0,,,,,44.0,,,,,240,note_off,,95.0,44.0,95.0,261360,136.125
2320,0.0,,,,,44.0,,,,,0,note_on,,95.0,44.0,95.0,261360,136.125
2321,0.0,,,,,44.0,,,,,240,note_off,,95.0,44.0,95.0,261600,136.25
2322,0.0,,,,,44.0,,,,,0,note_on,,95.0,44.0,95.0,261600,136.25
2323,0.0,,,,,44.0,,,,,240,note_off,,95.0,44.0,95.0,261840,136.375
2324,0.0,,,,,44.0,,,,,0,note_on,,95.0,44.0,95.0,261840,136.375
2325,0.0,,,,,44.0,,,,,240,note_off,,95.0,44.0,95.0,262080,136.5
2326,0.0,,,,,42.0,,,,,0,note_on,,95.0,42.0,95.0,262080,136.5
2327,0.0,,,,,42.0,,,,,240,note_off,,95.0,42.0,95.0,262320,136.625
2328,0.0,,,,,44.0,,,,,0,note_on,,95.0,44.0,95.0,262320,136.625
2329,0.0,,,,,44.0,,,,,240,note_off,,95.0,44.0,95.0,262560,136.75
2330,0.0,,,,,44.0,,,,,0,note_on,,95.0,44.0,95.0,262560,136.75
2331,0.0,,,,,44.0,,,,,240,note_off,,95.0,44.0,95.0,262800,136.875
2332,0.0,,,,,44.0,,,,,0,note_on,,95.0,44.0,95.0,262800,136.875
2333,0.0,,,,,44.0,,,,,240,note_off,,95.0,44.0,95.0,263040,137.0
2334,0.0,,,,,44.0,,,,,0,note_on,,95.0,44.0,95.0,263040,137.0
2335,0.0,,,,,44.0,,,,,240,note_off,,95.0,44.0,95.0,263280,137.125
2336,0.0,,,,,44.0,,,,,0,note_on,,95.0,44.0,95.0,263280,137.125
2337,0.0,,,,,44.0,,,,,240,note_off,,95.0,44.0,95.0,263520,137.25
2338,0.0,,,,,55.0,,,,,0,note_on,,95.0,55.0,95.0,263520,137.25
2339,0.0,,,,,48.0,,,,,0,note_on,,95.0,48.0,95.0,263520,137.25
2340,0.0,,,,,55.0,,,,,480,note_off,,95.0,55.0,95.0,264000,137.5
2341,0.0,,,,,48.0,,,,,0,note_off,,95.0,48.0,95.0,264000,137.5
2342,0.0,,,,,44.0,,,,,0,note_on,,95.0,44.0,95.0,264000,137.5
2343,0.0,,,,,44.0,,,,,240,note_off,,95.0,44.0,95.0,264240,137.625
2344,0.0,,,,,44.0,,,,,0,note_on,,95.0,44.0,95.0,264240,137.625
2345,0.0,,,,,44.0,,,,,240,note_off,,95.0,44.0,95.0,264480,137.75
2346,0.0,,,,,44.0,,,,,0,note_on,,95.0,44.0,95.0,264480,137.75
2347,0.0,,,,,44.0,,,,,240,note_off,,95.0,44.0,95.0,264720,137.875
2348,0.0,,,,,44.0,,,,,0,note_on,,95.0,44.0,95.0,264720,137.875
2349,0.0,,,,,44.0,,,,,240,note_off,,95.0,44.0,95.0,264960,138.0
2350,0.0,,,,,44.0,,,,,0,note_on,,95.0,44.0,95.0,264960,138.0
2351,0.0,,,,,44.0,,,,,240,note_off,,95.0,44.0,95.0,265200,138.125
2352,0.0,,,,,44.0,,,,,0,note_on,,95.0,44.0,95.0,265200,138.125
2353,0.0,,,,,44.0,,,,,240,note_off,,95.0,44.0,95.0,265440,138.25
2354,0.0,,,,,44.0,,,,,0,note_on,,95.0,44.0,95.0,265440,138.25
2355,0.0,,,,,44.0,,,,,240,note_off,,95.0,44.0,95.0,265680,138.375
2356,0.0,,,,,44.0,,,,,0,note_on,,95.0,44.0,95.0,265680,138.375
2357,0.0,,,,,44.0,,,,,240,note_off,,95.0,44.0,95.0,265920,138.5
2358,0.0,,,,,42.0,,,,,0,note_on,,95.0,42.0,95.0,265920,138.5
2359,0.0,,,,,42.0,,,,,240,note_off,,95.0,42.0,95.0,266160,138.625
2360,0.0,,,,,44.0,,,,,0,note_on,,95.0,44.0,95.0,266160,138.625
2361,0.0,,,,,44.0,,,,,240,note_off,,95.0,44.0,95.0,266400,138.75
2362,0.0,,,,,44.0,,,,,0,note_on,,95.0,44.0,95.0,266400,138.75
2363,0.0,,,,,44.0,,,,,240,note_off,,95.0,44.0,95.0,266640,138.875
2364,0.0,,,,,44.0,,,,,0,note_on,,95.0,44.0,95.0,266640,138.875
2365,0.0,,,,,44.0,,,,,240,note_off,,95.0,44.0,95.0,266880,139.0
2366,0.0,,,,,44.0,,,,,0,note_on,,95.0,44.0,95.0,266880,139.0
2367,0.0,,,,,44.0,,,,,240,note_off,,95.0,44.0,95.0,267120,139.125
2368,0.0,,,,,44.0,,,,,0,note_on,,95.0,44.0,95.0,267120,139.125
2369,0.0,,,,,44.0,,,,,240,note_off,,95.0,44.0,95.0,267360,139.25
2370,0.0,,,,,44.0,,,,,0,note_on,,95.0,44.0,95.0,267360,139.25
2371,0.0,,,,,44.0,,,,,240,note_off,,95.0,44.0,95.0,267600,139.375
2372,0.0,,,,,44.0,,,,,0,note_on,,95.0,44.0,95.0,267600,139.375
2373,0.0,,,,,44.0,,,,,240,note_off,,95.0,44.0,95.0,267840,139.5
2374,0.0,,,,,44.0,,,,,0,note_on,,95.0,44.0,95.0,267840,139.5
2375,0.0,,,,,44.0,,,,,240,note_off,,95.0,44.0,95.0,268080,139.625
2376,0.0,,,,,44.0,,,,,0,note_on,,95.0,44.0,95.0,268080,139.625
2377,0.0,,,,,44.0,,,,,240,note_off,,95.0,44.0,95.0,268320,139.75
2378,0.0,,,,,44.0,,,,,0,note_on,,95.0,44.0,95.0,268320,139.75
2379,0.0,,,,,44.0,,,,,240,note_off,,95.0,44.0,95.0,268560,139.875
2380,0.0,,,,,44.0,,,,,0,note_on,,95.0,44.0,95.0,268560,139.875
2381,0.0,,,,,44.0,,,,,240,note_off,,95.0,44.0,95.0,268800,140.0
2382,0.0,,,,,44.0,,,,,0,note_on,,95.0,44.0,95.0,268800,140.0
2383,0.0,,,,,44.0,,,,,240,note_off,,95.0,44.0,95.0,269040,140.125
2384,0.0,,,,,44.0,,,,,0,note_on,,95.0,44.0,95.0,269040,140.125
2385,0.0,,,,,44.0,,,,,240,note_off,,95.0,44.0,95.0,269280,140.25
2386,0.0,,,,,44.0,,,,,0,note_on,,95.0,44.0,95.0,269280,140.25
2387,0.0,,,,,44.0,,,,,240,note_off,,95.0,44.0,95.0,269520,140.375
2388,0.0,,,,,44.0,,,,,0,note_on,,95.0,44.0,95.0,269520,140.375
2389,0.0,,,,,44.0,,,,,240,note_off,,95.0,44.0,95.0,269760,140.5
2390,0.0,,,,,42.0,,,,,0,note_on,,95.0,42.0,95.0,269760,140.5
2391,0.0,,,,,42.0,,,,,240,note_off,,95.0,42.0,95.0,270000,140.625
2392,0.0,,,,,44.0,,,,,0,note_on,,95.0,44.0,95.0,270000,140.625
2393,0.0,,,,,44.0,,,,,240,note_off,,95.0,44.0,95.0,270240,140.75
2394,0.0,,,,,44.0,,,,,0,note_on,,95.0,44.0,95.0,270240,140.75
2395,0.0,,,,,44.0,,,,,240,note_off,,95.0,44.0,95.0,270480,140.875
2396,0.0,,,,,44.0,,,,,0,note_on,,95.0,44.0,95.0,270480,140.875
2397,0.0,,,,,44.0,,,,,240,note_off,,95.0,44.0,95.0,270720,141.0
2398,0.0,,,,,44.0,,,,,0,note_on,,95.0,44.0,95.0,270720,141.0
2399,0.0,,,,,44.0,,,,,240,note_off,,95.0,44.0,95.0,270960,141.125
2400,0.0,,,,,44.0,,,,,0,note_on,,95.0,44.0,95.0,270960,141.125
2401,0.0,,,,,44.0,,,,,240,note_off,,95.0,44.0,95.0,271200,141.25
2402,0.0,,,,,52.0,,,,,0,note_on,,95.0,52.0,95.0,271200,141.25
2403,0.0,,,,,45.0,,,,,0,note_on,,95.0,45.0,95.0,271200,141.25
2404,0.0,,,,,52.0,,,,,480,note_off,,95.0,52.0,95.0,271680,141.5
2405,0.0,,,,,45.0,,,,,0,note_off,,95.0,45.0,95.0,271680,141.5
2406,0.0,,,,,44.0,,,,,0,note_on,,95.0,44.0,95.0,271680,141.5
2407,0.0,,,,,44.0,,,,,240,note_off,,95.0,44.0,95.0,271920,141.625
2408,0.0,,,,,44.0,,,,,0,note_on,,95.0,44.0,95.0,271920,141.625
2409,0.0,,,,,44.0,,,,,240,note_off,,95.0,44.0,95.0,272160,141.75
2410,0.0,,,,,44.0,,,,,0,note_on,,95.0,44.0,95.0,272160,141.75
2411,0.0,,,,,44.0,,,,,240,note_off,,95.0,44.0,95.0,272400,141.875
2412,0.0,,,,,44.0,,,,,0,note_on,,95.0,44.0,95.0,272400,141.875
2413,0.0,,,,,44.0,,,,,240,note_off,,95.0,44.0,95.0,272640,142.0
2414,0.0,,,,,44.0,,,,,0,note_on,,95.0,44.0,95.0,272640,142.0
2415,0.0,,,,,44.0,,,,,240,note_off,,95.0,44.0,95.0,272880,142.125
2416,0.0,,,,,44.0,,,,,0,note_on,,95.0,44.0,95.0,272880,142.125
2417,0.0,,,,,44.0,,,,,240,note_off,,95.0,44.0,95.0,273120,142.25
2418,0.0,,,,,44.0,,,,,0,note_on,,95.0,44.0,95.0,273120,142.25
2419,0.0,,,,,44.0,,,,,240,note_off,,95.0,44.0,95.0,273360,142.375
2420,0.0,,,,,44.0,,,,,0,note_on,,95.0,44.0,95.0,273360,142.375
2421,0.0,,,,,44.0,,,,,240,note_off,,95.0,44.0,95.0,273600,142.5
2422,0.0,,,,,42.0,,,,,0,note_on,,95.0,42.0,95.0,273600,142.5
2423,0.0,,,,,42.0,,,,,240,note_off,,95.0,42.0,95.0,273840,142.625
2424,0.0,,,,,44.0,,,,,0,note_on,,95.0,44.0,95.0,273840,142.625
2425,0.0,,,,,44.0,,,,,240,note_off,,95.0,44.0,95.0,274080,142.75
2426,0.0,,,,,44.0,,,,,0,note_on,,95.0,44.0,95.0,274080,142.75
2427,0.0,,,,,44.0,,,,,240,note_off,,95.0,44.0,95.0,274320,142.875
2428,0.0,,,,,44.0,,,,,0,note_on,,95.0,44.0,95.0,274320,142.875
2429,0.0,,,,,44.0,,,,,240,note_off,,95.0,44.0,95.0,274560,143.0
2430,0.0,,,,,44.0,,,,,0,note_on,,95.0,44.0,95.0,274560,143.0
2431,0.0,,,,,44.0,,,,,240,note_off,,95.0,44.0,95.0,274800,143.125
2432,0.0,,,,,44.0,,,,,0,note_on,,95.0,44.0,95.0,274800,143.125
2433,0.0,,,,,44.0,,,,,240,note_off,,95.0,44.0,95.0,275040,143.25
2434,0.0,,,,,44.0,,,,,0,note_on,,95.0,44.0,95.0,275040,143.25
2435,0.0,,,,,44.0,,,,,240,note_off,,95.0,44.0,95.0,275280,143.375
2436,0.0,,,,,44.0,,,,,0,note_on,,95.0,44.0,95.0,275280,143.375
2437,0.0,,,,,44.0,,,,,240,note_off,,95.0,44.0,95.0,275520,143.5
2438,0.0,,,,,44.0,,,,,0,note_on,,95.0,44.0,95.0,275520,143.5
2439,0.0,,,,,44.0,,,,,240,note_off,,95.0,44.0,95.0,275760,143.625
2440,0.0,,,,,44.0,,,,,0,note_on,,95.0,44.0,95.0,275760,143.625
2441,0.0,,,,,44.0,,,,,240,note_off,,95.0,44.0,95.0,276000,143.75
2442,0.0,,,,,44.0,,,,,0,note_on,,95.0,44.0,95.0,276000,143.75
2443,0.0,,,,,44.0,,,,,240,note_off,,95.0,44.0,95.0,276240,143.875
2444,0.0,,,,,44.0,,,,,0,note_on,,95.0,44.0,95.0,276240,143.875
2445,0.0,,,,,44.0,,,,,240,note_off,,95.0,44.0,95.0,276480,144.0
2446,0.0,,,,,44.0,,,,,0,note_on,,95.0,44.0,95.0,276480,144.0
2447,0.0,,,,,44.0,,,,,240,note_off,,95.0,44.0,95.0,276720,144.125
2448,0.0,,,,,44.0,,,,,0,note_on,,95.0,44.0,95.0,276720,144.125
2449,0.0,,,,,44.0,,,,,240,note_off,,95.0,44.0,95.0,276960,144.25
2450,0.0,,,,,44.0,,,,,0,note_on,,95.0,44.0,95.0,276960,144.25
2451,0.0,,,,,44.0,,,,,240,note_off,,95.0,44.0,95.0,277200,144.375
2452,0.0,,,,,44.0,,,,,0,note_on,,95.0,44.0,95.0,277200,144.375
2453,0.0,,,,,44.0,,,,,240,note_off,,95.0,44.0,95.0,277440,144.5
2454,0.0,,,,,42.0,,,,,0,note_on,,95.0,42.0,95.0,277440,144.5
2455,0.0,,,,,42.0,,,,,240,note_off,,95.0,42.0,95.0,277680,144.625
2456,0.0,,,,,44.0,,,,,0,note_on,,95.0,44.0,95.0,277680,144.625
2457,0.0,,,,,44.0,,,,,240,note_off,,95.0,44.0,95.0,277920,144.75
2458,0.0,,,,,44.0,,,,,0,note_on,,95.0,44.0,95.0,277920,144.75
2459,0.0,,,,,44.0,,,,,240,note_off,,95.0,44.0,95.0,278160,144.875
2460,0.0,,,,,44.0,,,,,0,note_on,,95.0,44.0,95.0,278160,144.875
2461,0.0,,,,,44.0,,,,,240,note_off,,95.0,44.0,95.0,278400,145.0
2462,0.0,,,,,44.0,,,,,0,note_on,,95.0,44.0,95.0,278400,145.0
2463,0.0,,,,,44.0,,,,,240,note_off,,95.0,44.0,95.0,278640,145.125
2464,0.0,,,,,44.0,,,,,0,note_on,,95.0,44.0,95.0,278640,145.125
2465,0.0,,,,,44.0,,,,,240,note_off,,95.0,44.0,95.0,278880,145.25
2466,0.0,,,,,55.0,,,,,0,note_on,,95.0,55.0,95.0,278880,145.25
2467,0.0,,,,,48.0,,,,,0,note_on,,95.0,48.0,95.0,278880,145.25
2468,0.0,,,,,55.0,,,,,480,note_off,,95.0,55.0,95.0,279360,145.5
2469,0.0,,,,,48.0,,,,,0,note_off,,95.0,48.0,95.0,279360,145.5
2470,0.0,,,,,44.0,,,,,0,note_on,,95.0,44.0,95.0,279360,145.5
2471,0.0,,,,,44.0,,,,,240,note_off,,95.0,44.0,95.0,279600,145.625
2472,0.0,,,,,44.0,,,,,0,note_on,,95.0,44.0,95.0,279600,145.625
2473,0.0,,,,,44.0,,,,,240,note_off,,95.0,44.0,95.0,279840,145.75
2474,0.0,,,,,44.0,,,,,0,note_on,,95.0,44.0,95.0,279840,145.75
2475,0.0,,,,,44.0,,,,,240,note_off,,95.0,44.0,95.0,280080,145.875
2476,0.0,,,,,44.0,,,,,0,note_on,,95.0,44.0,95.0,280080,145.875
2477,0.0,,,,,44.0,,,,,240,note_off,,95.0,44.0,95.0,280320,146.0
2478,0.0,,,,,44.0,,,,,0,note_on,,95.0,44.0,95.0,280320,146.0
2479,0.0,,,,,44.0,,,,,240,note_off,,95.0,44.0,95.0,280560,146.125
2480,0.0,,,,,44.0,,,,,0,note_on,,95.0,44.0,95.0,280560,146.125
2481,0.0,,,,,44.0,,,,,240,note_off,,95.0,44.0,95.0,280800,146.25
2482,0.0,,,,,44.0,,,,,0,note_on,,95.0,44.0,95.0,280800,146.25
2483,0.0,,,,,44.0,,,,,240,note_off,,95.0,44.0,95.0,281040,146.375
2484,0.0,,,,,44.0,,,,,0,note_on,,95.0,44.0,95.0,281040,146.375
2485,0.0,,,,,44.0,,,,,240,note_off,,95.0,44.0,95.0,281280,146.5
2486,0.0,,,,,42.0,,,,,0,note_on,,95.0,42.0,95.0,281280,146.5
2487,0.0,,,,,42.0,,,,,240,note_off,,95.0,42.0,95.0,281520,146.625
2488,0.0,,,,,44.0,,,,,0,note_on,,95.0,44.0,95.0,281520,146.625
2489,0.0,,,,,44.0,,,,,240,note_off,,95.0,44.0,95.0,281760,146.75
2490,0.0,,,,,44.0,,,,,0,note_on,,95.0,44.0,95.0,281760,146.75
2491,0.0,,,,,44.0,,,,,240,note_off,,95.0,44.0,95.0,282000,146.875
2492,0.0,,,,,44.0,,,,,0,note_on,,95.0,44.0,95.0,282000,146.875
2493,0.0,,,,,44.0,,,,,240,note_off,,95.0,44.0,95.0,282240,147.0
2494,0.0,,,,,44.0,,,,,0,note_on,,95.0,44.0,95.0,282240,147.0
2495,0.0,,,,,44.0,,,,,240,note_off,,95.0,44.0,95.0,282480,147.125
2496,0.0,,,,,44.0,,,,,0,note_on,,95.0,44.0,95.0,282480,147.125
2497,0.0,,,,,44.0,,,,,240,note_off,,95.0,44.0,95.0,282720,147.25
2498,0.0,,,,,44.0,,,,,0,note_on,,95.0,44.0,95.0,282720,147.25
2499,0.0,,,,,44.0,,,,,240,note_off,,95.0,44.0,95.0,282960,147.375
2500,0.0,,,,,44.0,,,,,0,note_on,,95.0,44.0,95.0,282960,147.375
2501,0.0,,,,,44.0,,,,,240,note_off,,95.0,44.0,95.0,283200,147.5
2502,0.0,,,,,44.0,,,,,0,note_on,,95.0,44.0,95.0,283200,147.5
2503,0.0,,,,,44.0,,,,,240,note_off,,95.0,44.0,95.0,283440,147.625
2504,0.0,,,,,44.0,,,,,0,note_on,,95.0,44.0,95.0,283440,147.625
2505,0.0,,,,,44.0,,,,,240,note_off,,95.0,44.0,95.0,283680,147.75
2506,0.0,,,,,44.0,,,,,0,note_on,,95.0,44.0,95.0,283680,147.75
2507,0.0,,,,,44.0,,,,,240,note_off,,95.0,44.0,95.0,283920,147.875
2508,0.0,,,,,44.0,,,,,0,note_on,,95.0,44.0,95.0,283920,147.875
2509,0.0,,,,,44.0,,,,,240,note_off,,95.0,44.0,95.0,284160,148.0
2510,0.0,,,,,44.0,,,,,0,note_on,,95.0,44.0,95.0,284160,148.0
2511,0.0,,,,,44.0,,,,,240,note_off,,95.0,44.0,95.0,284400,148.125
2512,0.0,,,,,44.0,,,,,0,note_on,,95.0,44.0,95.0,284400,148.125
2513,0.0,,,,,44.0,,,,,240,note_off,,95.0,44.0,95.0,284640,148.25
2514,0.0,,,,,44.0,,,,,0,note_on,,95.0,44.0,95.0,284640,148.25
2515,0.0,,,,,44.0,,,,,240,note_off,,95.0,44.0,95.0,284880,148.375
2516,0.0,,,,,44.0,,,,,0,note_on,,95.0,44.0,95.0,284880,148.375
2517,0.0,,,,,44.0,,,,,240,note_off,,95.0,44.0,95.0,285120,148.5
2518,0.0,,,,,42.0,,,,,0,note_on,,95.0,42.0,95.0,285120,148.5
2519,0.0,,,,,42.0,,,,,240,note_off,,95.0,42.0,95.0,285360,148.625
2520,0.0,,,,,44.0,,,,,0,note_on,,95.0,44.0,95.0,285360,148.625
2521,0.0,,,,,44.0,,,,,240,note_off,,95.0,44.0,95.0,285600,148.75
2522,0.0,,,,,44.0,,,,,0,note_on,,95.0,44.0,95.0,285600,148.75
2523,0.0,,,,,44.0,,,,,240,note_off,,95.0,44.0,95.0,285840,148.875
2524,0.0,,,,,44.0,,,,,0,note_on,,95.0,44.0,95.0,285840,148.875
2525,0.0,,,,,44.0,,,,,240,note_off,,95.0,44.0,95.0,286080,149.0
2526,0.0,,,,,52.0,,,,,0,note_on,,95.0,52.0,95.0,286080,149.0
2527,0.0,,,,,45.0,,,,,0,note_on,,95.0,45.0,95.0,286080,149.0
2528,0.0,,,,,52.0,,,,,960,note_off,,95.0,52.0,95.0,287040,149.5
2529,0.0,,,,,45.0,,,,,0,note_off,,95.0,45.0,95.0,287040,149.5
2530,0.0,,,,,48.0,,,,,0,note_on,,95.0,48.0,95.0,287040,149.5
2531,0.0,,,,,41.0,,,,,0,note_on,,95.0,41.0,95.0,287040,149.5
2532,0.0,,,,,48.0,,,,,2880,note_off,,95.0,48.0,95.0,289920,151.0
2533,0.0,,,,,41.0,,,,,0,note_off,,95.0,41.0,95.0,289920,151.0
2534,0.0,,,,,49.0,,,,,0,note_on,,95.0,49.0,95.0,289920,151.0
2535,0.0,,,,,42.0,,,,,0,note_on,,95.0,42.0,95.0,289920,151.0
2536,0.0,,,,,49.0,,,,,960,note_off,,95.0,49.0,95.0,290880,151.5
2537,0.0,,,,,42.0,,,,,0,note_off,,95.0,42.0,95.0,290880,151.5
2538,0.0,,,,,39.0,,,,,0,note_on,,95.0,39.0,95.0,290880,151.5
2539,0.0,,,,,39.0,,,,,240,note_off,,95.0,39.0,95.0,291120,151.625
2540,0.0,,,,,39.0,,,,,0,note_on,,95.0,39.0,95.0,291120,151.625
2541,0.0,,,,,39.0,,,,,240,note_off,,95.0,39.0,95.0,291360,151.75
2542,0.0,,,,,39.0,,,,,0,note_on,,95.0,39.0,95.0,291360,151.75
2543,0.0,,,,,39.0,,,,,240,note_off,,95.0,39.0,95.0,291600,151.875
2544,0.0,,,,,39.0,,,,,0,note_on,,95.0,39.0,95.0,291600,151.875
2545,0.0,,,,,39.0,,,,,240,note_off,,95.0,39.0,95.0,291840,152.0
2546,0.0,,,,,39.0,,,,,0,note_on,,95.0,39.0,95.0,291840,152.0
2547,0.0,,,,,39.0,,,,,240,note_off,,95.0,39.0,95.0,292080,152.125
2548,0.0,,,,,39.0,,,,,0,note_on,,95.0,39.0,95.0,292080,152.125
2549,0.0,,,,,39.0,,,,,240,note_off,,95.0,39.0,95.0,292320,152.25
2550,0.0,,,,,39.0,,,,,0,note_on,,95.0,39.0,95.0,292320,152.25
2551,0.0,,,,,39.0,,,,,240,note_off,,95.0,39.0,95.0,292560,152.375
2552,0.0,,,,,39.0,,,,,0,note_on,,95.0,39.0,95.0,292560,152.375
2553,0.0,,,,,39.0,,,,,240,note_off,,95.0,39.0,95.0,292800,152.5
2554,0.0,,,,,39.0,,,,,0,note_on,,95.0,39.0,95.0,292800,152.5
2555,0.0,,,,,39.0,,,,,240,note_off,,95.0,39.0,95.0,293040,152.625
2556,0.0,,,,,39.0,,,,,0,note_on,,95.0,39.0,95.0,293040,152.625
2557,0.0,,,,,39.0,,,,,240,note_off,,95.0,39.0,95.0,293280,152.75
2558,0.0,,,,,49.0,,,,,0,note_on,,95.0,49.0,95.0,293280,152.75
2559,0.0,,,,,42.0,,,,,0,note_on,,95.0,42.0,95.0,293280,152.75
2560,0.0,,,,,49.0,,,,,480,note_off,,95.0,49.0,95.0,293760,153.0
2561,0.0,,,,,42.0,,,,,0,note_off,,95.0,42.0,95.0,293760,153.0
2562,0.0,,,,,39.0,,,,,0,note_on,,95.0,39.0,95.0,293760,153.0
2563,0.0,,,,,39.0,,,,,240,note_off,,95.0,39.0,95.0,294000,153.125
2564,0.0,,,,,39.0,,,,,0,note_on,,95.0,39.0,95.0,294000,153.125
2565,0.0,,,,,39.0,,,,,240,note_off,,95.0,39.0,95.0,294240,153.25
2566,0.0,,,,,49.0,,,,,0,note_on,,95.0,49.0,95.0,294240,153.25
2567,0.0,,,,,42.0,,,,,0,note_on,,95.0,42.0,95.0,294240,153.25
2568,0.0,,,,,49.0,,,,,480,note_off,,95.0,49.0,95.0,294720,153.5
2569,0.0,,,,,42.0,,,,,0,note_off,,95.0,42.0,95.0,294720,153.5
2570,0.0,,,,,48.0,,,,,0,note_on,,95.0,48.0,95.0,294720,153.5
2571,0.0,,,,,41.0,,,,,0,note_on,,95.0,41.0,95.0,294720,153.5
2572,0.0,,,,,48.0,,,,,2880,note_off,,95.0,48.0,95.0,297600,155.0
2573,0.0,,,,,41.0,,,,,0,note_off,,95.0,41.0,95.0,297600,155.0
2574,0.0,,,,,52.0,,,,,0,note_on,,95.0,52.0,95.0,297600,155.0
2575,0.0,,,,,45.0,,,,,0,note_on,,95.0,45.0,95.0,297600,155.0
2576,0.0,,,,,52.0,,,,,960,note_off,,95.0,52.0,95.0,298560,155.5
2577,0.0,,,,,45.0,,,,,0,note_off,,95.0,45.0,95.0,298560,155.5
2578,0.0,,,,,39.0,,,,,0,note_on,,95.0,39.0,95.0,298560,155.5
2579,0.0,,,,,39.0,,,,,240,note_off,,95.0,39.0,95.0,298800,155.625
2580,0.0,,,,,39.0,,,,,0,note_on,,95.0,39.0,95.0,298800,155.625
2581,0.0,,,,,39.0,,,,,240,note_off,,95.0,39.0,95.0,299040,155.75
2582,0.0,,,,,39.0,,,,,0,note_on,,95.0,39.0,95.0,299040,155.75
2583,0.0,,,,,39.0,,,,,240,note_off,,95.0,39.0,95.0,299280,155.875
2584,0.0,,,,,39.0,,,,,0,note_on,,95.0,39.0,95.0,299280,155.875
2585,0.0,,,,,39.0,,,,,240,note_off,,95.0,39.0,95.0,299520,156.0
2586,0.0,,,,,39.0,,,,,0,note_on,,95.0,39.0,95.0,299520,156.0
2587,0.0,,,,,39.0,,,,,240,note_off,,95.0,39.0,95.0,299760,156.125
2588,0.0,,,,,39.0,,,,,0,note_on,,95.0,39.0,95.0,299760,156.125
2589,0.0,,,,,39.0,,,,,240,note_off,,95.0,39.0,95.0,300000,156.25
2590,0.0,,,,,39.0,,,,,0,note_on,,95.0,39.0,95.0,300000,156.25
2591,0.0,,,,,39.0,,,,,240,note_off,,95.0,39.0,95.0,300240,156.375
2592,0.0,,,,,39.0,,,,,0,note_on,,95.0,39.0,95.0,300240,156.375
2593,0.0,,,,,39.0,,,,,240,note_off,,95.0,39.0,95.0,300480,156.5
2594,0.0,,,,,39.0,,,,,0,note_on,,95.0,39.0,95.0,300480,156.5
2595,0.0,,,,,39.0,,,,,240,note_off,,95.0,39.0,95.0,300720,156.625
2596,0.0,,,,,39.0,,,,,0,note_on,,95.0,39.0,95.0,300720,156.625
2597,0.0,,,,,39.0,,,,,240,note_off,,95.0,39.0,95.0,300960,156.75
2598,0.0,,,,,46.0,,,,,0,note_on,,95.0,46.0,95.0,300960,156.75
2599,0.0,,,,,39.0,,,,,0,note_on,,95.0,39.0,95.0,300960,156.75
2600,0.0,,,,,46.0,,,,,480,note_off,,95.0,46.0,95.0,301440,157.0
2601,0.0,,,,,39.0,,,,,0,note_off,,95.0,39.0,95.0,301440,157.0
2602,0.0,,,,,39.0,,,,,0,note_on,,95.0,39.0,95.0,301440,157.0
2603,0.0,,,,,39.0,,,,,240,note_off,,95.0,39.0,95.0,301680,157.125
2604,0.0,,,,,39.0,,,,,0,note_on,,95.0,39.0,95.0,301680,157.125
2605,0.0,,,,,39.0,,,,,240,note_off,,95.0,39.0,95.0,301920,157.25
2606,0.0,,,,,47.0,,,,,0,note_on,,95.0,47.0,95.0,301920,157.25
2607,0.0,,,,,40.0,,,,,0,note_on,,95.0,40.0,95.0,301920,157.25
2608,0.0,,,,,47.0,,,,,480,note_off,,95.0,47.0,95.0,302400,157.5
2609,0.0,,,,,40.0,,,,,0,note_off,,95.0,40.0,95.0,302400,157.5
2610,0.0,,,,,48.0,,,,,0,note_on,,95.0,48.0,95.0,302400,157.5
2611,0.0,,,,,41.0,,,,,0,note_on,,95.0,41.0,95.0,302400,157.5
2612,0.0,,,,,48.0,,,,,2880,note_off,,95.0,48.0,95.0,305280,159.0
2613,0.0,,,,,41.0,,,,,0,note_off,,95.0,41.0,95.0,305280,159.0
2614,0.0,,,,,49.0,,,,,0,note_on,,95.0,49.0,95.0,305280,159.0
2615,0.0,,,,,42.0,,,,,0,note_on,,95.0,42.0,95.0,305280,159.0
2616,0.0,,,,,49.0,,,,,960,note_off,,95.0,49.0,95.0,306240,159.5
2617,0.0,,,,,42.0,,,,,0,note_off,,95.0,42.0,95.0,306240,159.5
2618,0.0,,,,,39.0,,,,,0,note_on,,95.0,39.0,95.0,306240,159.5
2619,0.0,,,,,39.0,,,,,240,note_off,,95.0,39.0,95.0,306480,159.625
2620,0.0,,,,,39.0,,,,,0,note_on,,95.0,39.0,95.0,306480,159.625
2621,0.0,,,,,39.0,,,,,240,note_off,,95.0,39.0,95.0,306720,159.75
2622,0.0,,,,,39.0,,,,,0,note_on,,95.0,39.0,95.0,306720,159.75
2623,0.0,,,,,39.0,,,,,240,note_off,,95.0,39.0,95.0,306960,159.875
2624,0.0,,,,,39.0,,,,,0,note_on,,95.0,39.0,95.0,306960,159.875
2625,0.0,,,,,39.0,,,,,240,note_off,,95.0,39.0,95.0,307200,160.0
2626,0.0,,,,,39.0,,,,,0,note_on,,95.0,39.0,95.0,307200,160.0
2627,0.0,,,,,39.0,,,,,240,note_off,,95.0,39.0,95.0,307440,160.125
2628,0.0,,,,,39.0,,,,,0,note_on,,95.0,39.0,95.0,307440,160.125
2629,0.0,,,,,39.0,,,,,240,note_off,,95.0,39.0,95.0,307680,160.25
2630,0.0,,,,,39.0,,,,,0,note_on,,95.0,39.0,95.0,307680,160.25
2631,0.0,,,,,39.0,,,,,240,note_off,,95.0,39.0,95.0,307920,160.375
2632,0.0,,,,,39.0,,,,,0,note_on,,95.0,39.0,95.0,307920,160.375
2633,0.0,,,,,39.0,,,,,240,note_off,,95.0,39.0,95.0,308160,160.5
2634,0.0,,,,,39.0,,,,,0,note_on,,95.0,39.0,95.0,308160,160.5
2635,0.0,,,,,39.0,,,,,240,note_off,,95.0,39.0,95.0,308400,160.625
2636,0.0,,,,,39.0,,,,,0,note_on,,95.0,39.0,95.0,308400,160.625
2637,0.0,,,,,39.0,,,,,240,note_off,,95.0,39.0,95.0,308640,160.75
2638,0.0,,,,,49.0,,,,,0,note_on,,95.0,49.0,95.0,308640,160.75
2639,0.0,,,,,42.0,,,,,0,note_on,,95.0,42.0,95.0,308640,160.75
2640,0.0,,,,,49.0,,,,,480,note_off,,95.0,49.0,95.0,309120,161.0
2641,0.0,,,,,42.0,,,,,0,note_off,,95.0,42.0,95.0,309120,161.0
2642,0.0,,,,,39.0,,,,,0,note_on,,95.0,39.0,95.0,309120,161.0
2643,0.0,,,,,39.0,,,,,240,note_off,,95.0,39.0,95.0,309360,161.125
2644,0.0,,,,,39.0,,,,,0,note_on,,95.0,39.0,95.0,309360,161.125
2645,0.0,,,,,39.0,,,,,240,note_off,,95.0,39.0,95.0,309600,161.25
2646,0.0,,,,,49.0,,,,,0,note_on,,95.0,49.0,95.0,309600,161.25
2647,0.0,,,,,42.0,,,,,0,note_on,,95.0,42.0,95.0,309600,161.25
2648,0.0,,,,,49.0,,,,,480,note_off,,95.0,49.0,95.0,310080,161.5
2649,0.0,,,,,42.0,,,,,0,note_off,,95.0,42.0,95.0,310080,161.5
2650,0.0,,,,,48.0,,,,,0,note_on,,95.0,48.0,95.0,310080,161.5
2651,0.0,,,,,41.0,,,,,0,note_on,,95.0,41.0,95.0,310080,161.5
2652,0.0,,,,,48.0,,,,,1920,note_off,,95.0,48.0,95.0,312000,162.5
2653,0.0,,,,,41.0,,,,,0,note_off,,95.0,41.0,95.0,312000,162.5
2654,0.0,,,,,51.0,,,,,0,note_on,,95.0,51.0,95.0,312000,162.5
2655,0.0,,,,,44.0,,,,,0,note_on,,95.0,44.0,95.0,312000,162.5
2656,0.0,,,,,51.0,,,,,960,note_off,,95.0,51.0,95.0,312960,163.0
2657,0.0,,,,,44.0,,,,,0,note_off,,95.0,44.0,95.0,312960,163.0
2658,0.0,,,,,50.0,,,,,0,note_on,,95.0,50.0,95.0,312960,163.0
2659,0.0,,,,,43.0,,,,,0,note_on,,95.0,43.0,95.0,312960,163.0
2660,0.0,,,,,50.0,,,,,480,note_off,,95.0,50.0,95.0,313440,163.25
2661,0.0,,,,,43.0,,,,,0,note_off,,95.0,43.0,95.0,313440,163.25
2662,0.0,,,,,49.0,,,,,0,note_on,,95.0,49.0,95.0,313440,163.25
2663,0.0,,,,,42.0,,,,,0,note_on,,95.0,42.0,95.0,313440,163.25
2664,0.0,,,,,49.0,,,,,480,note_off,,95.0,49.0,95.0,313920,163.5
2665,0.0,,,,,42.0,,,,,0,note_off,,95.0,42.0,95.0,313920,163.5
2666,0.0,,,,,39.0,,,,,0,note_on,,95.0,39.0,95.0,313920,163.5
2667,0.0,,,,,39.0,,,,,240,note_off,,95.0,39.0,95.0,314160,163.625
2668,0.0,,,,,39.0,,,,,0,note_on,,95.0,39.0,95.0,314160,163.625
2669,0.0,,,,,39.0,,,,,240,note_off,,95.0,39.0,95.0,314400,163.75
2670,0.0,,,,,39.0,,,,,240,note_on,,95.0,39.0,95.0,314640,163.875
2671,1.0,,,,,49.0,,,,,180,note_on,,95.0,49.0,95.0,43380,22.59375
2672,0.0,,,,,39.0,,,,,60,note_off,,95.0,39.0,95.0,314700,163.90625
2673,1.0,,,,,49.0,,,,,0,note_off,,95.0,49.0,95.0,43380,22.59375
2674,1.0,,,,,51.0,,,,,0,note_on,,95.0,51.0,95.0,43380,22.59375
2675,0.0,,,,,39.0,,,,,0,note_on,,95.0,39.0,95.0,314700,163.90625
2676,1.0,,,,,51.0,,,,,480,note_off,,95.0,51.0,95.0,43860,22.84375
2677,0.0,,,,,39.0,,,,,0,note_off,,95.0,39.0,95.0,314700,163.90625
2678,0.0,,,,,39.0,,,,,0,note_on,,95.0,39.0,95.0,314700,163.90625
2679,0.0,,,,,39.0,,,,,240,note_off,,95.0,39.0,95.0,314940,164.03125
2680,0.0,,,,,39.0,,,,,0,note_on,,95.0,39.0,95.0,314940,164.03125
2681,0.0,,,,,39.0,,,,,240,note_off,,95.0,39.0,95.0,315180,164.15625
2682,0.0,,,,,39.0,,,,,240,note_on,,95.0,39.0,95.0,315420,164.28125
2683,0.0,,,,,39.0,,,,,240,note_off,,95.0,39.0,95.0,315660,164.40625
2684,0.0,,,,,59.0,,,,,0,note_on,,95.0,59.0,95.0,315660,164.40625
2685,0.0,,,,,52.0,,,,,0,note_on,,95.0,52.0,95.0,315660,164.40625
2686,0.0,,,,,59.0,,,,,480,note_off,,95.0,59.0,95.0,316140,164.65625
2687,0.0,,,,,52.0,,,,,0,note_off,,95.0,52.0,95.0,316140,164.65625
2688,0.0,,,,,39.0,,,,,0,note_on,,95.0,39.0,95.0,316140,164.65625
2689,0.0,,,,,39.0,,,,,240,note_off,,95.0,39.0,95.0,316380,164.78125
2690,0.0,,,,,39.0,,,,,0,note_on,,95.0,39.0,95.0,316380,164.78125
2691,0.0,,,,,39.0,,,,,240,note_off,,95.0,39.0,95.0,316620,164.90625
2692,0.0,,,,,57.0,,,,,0,note_on,,95.0,57.0,95.0,316620,164.90625
2693,0.0,,,,,50.0,,,,,0,note_on,,95.0,50.0,95.0,316620,164.90625
2694,0.0,,,,,57.0,,,,,480,note_off,,95.0,57.0,95.0,317100,165.15625
2695,0.0,,,,,50.0,,,,,0,note_off,,95.0,50.0,95.0,317100,165.15625
2696,0.0,,,,,39.0,,,,,0,note_on,,95.0,39.0,95.0,317100,165.15625
2697,0.0,,,,,39.0,,,,,240,note_off,,95.0,39.0,95.0,317340,165.28125
2698,0.0,,,,,39.0,,,,,0,note_on,,95.0,39.0,95.0,317340,165.28125
2699,0.0,,,,,39.0,,,,,240,note_off,,95.0,39.0,95.0,317580,165.40625
2700,0.0,,,,,39.0,,,,,240,note_on,,95.0,39.0,95.0,317820,165.53125
2701,1.0,,,,,49.0,,,,,180,note_on,,95.0,49.0,95.0,44040,22.9375
2702,0.0,,,,,39.0,,,,,60,note_off,,95.0,39.0,95.0,317880,165.5625
2703,1.0,,,,,49.0,,,,,0,note_off,,95.0,49.0,95.0,44040,22.9375
2704,1.0,,,,,51.0,,,,,0,note_on,,95.0,51.0,95.0,44040,22.9375
2705,0.0,,,,,39.0,,,,,0,note_on,,95.0,39.0,95.0,317880,165.5625
2706,1.0,,,,,51.0,,,,,480,note_off,,95.0,51.0,95.0,44520,23.1875
2707,0.0,,,,,39.0,,,,,0,note_off,,95.0,39.0,95.0,317880,165.5625
2708,0.0,,,,,39.0,,,,,0,note_on,,95.0,39.0,95.0,317880,165.5625
2709,0.0,,,,,39.0,,,,,240,note_off,,95.0,39.0,95.0,318120,165.6875
2710,0.0,,,,,39.0,,,,,0,note_on,,95.0,39.0,95.0,318120,165.6875
2711,0.0,,,,,39.0,,,,,240,note_off,,95.0,39.0,95.0,318360,165.8125
2712,0.0,,,,,39.0,,,,,240,note_on,,95.0,39.0,95.0,318600,165.9375
2713,0.0,,,,,39.0,,,,,240,note_off,,95.0,39.0,95.0,318840,166.0625
2714,0.0,,,,,61.0,,,,,0,note_on,,95.0,61.0,95.0,318840,166.0625
2715,0.0,,,,,54.0,,,,,0,note_on,,95.0,54.0,95.0,318840,166.0625
2716,0.0,,,,,61.0,,,,,480,note_off,,95.0,61.0,95.0,319320,166.3125
2717,0.0,,,,,54.0,,,,,0,note_off,,95.0,54.0,95.0,319320,166.3125
2718,0.0,,,,,39.0,,,,,0,note_on,,95.0,39.0,95.0,319320,166.3125
2719,0.0,,,,,39.0,,,,,240,note_off,,95.0,39.0,95.0,319560,166.4375
2720,0.0,,,,,39.0,,,,,0,note_on,,95.0,39.0,95.0,319560,166.4375
2721,0.0,,,,,39.0,,,,,240,note_off,,95.0,39.0,95.0,319800,166.5625
2722,0.0,,,,,60.0,,,,,0,note_on,,95.0,60.0,95.0,319800,166.5625
2723,0.0,,,,,53.0,,,,,0,note_on,,95.0,53.0,95.0,319800,166.5625
2724,0.0,,,,,60.0,,,,,480,note_off,,95.0,60.0,95.0,320280,166.8125
2725,0.0,,,,,53.0,,,,,0,note_off,,95.0,53.0,95.0,320280,166.8125
2726,0.0,,,,,39.0,,,,,0,note_on,,95.0,39.0,95.0,320280,166.8125
2727,0.0,,,,,39.0,,,,,240,note_off,,95.0,39.0,95.0,320520,166.9375
2728,0.0,,,,,39.0,,,,,0,note_on,,95.0,39.0,95.0,320520,166.9375
2729,0.0,,,,,39.0,,,,,240,note_off,,95.0,39.0,95.0,320760,167.0625
2730,0.0,,,,,39.0,,,,,240,note_on,,95.0,39.0,95.0,321000,167.1875
2731,1.0,,,,,49.0,,,,,180,note_on,,95.0,49.0,95.0,44700,23.28125
2732,0.0,,,,,39.0,,,,,60,note_off,,95.0,39.0,95.0,321060,167.21875
2733,1.0,,,,,49.0,,,,,0,note_off,,95.0,49.0,95.0,44700,23.28125
2734,1.0,,,,,51.0,,,,,0,note_on,,95.0,51.0,95.0,44700,23.28125
2735,0.0,,,,,39.0,,,,,0,note_on,,95.0,39.0,95.0,321060,167.21875
2736,1.0,,,,,51.0,,,,,480,note_off,,95.0,51.0,95.0,45180,23.53125
2737,0.0,,,,,39.0,,,,,0,note_off,,95.0,39.0,95.0,321060,167.21875
2738,0.0,,,,,39.0,,,,,0,note_on,,95.0,39.0,95.0,321060,167.21875
2739,0.0,,,,,39.0,,,,,240,note_off,,95.0,39.0,95.0,321300,167.34375
2740,0.0,,,,,39.0,,,,,0,note_on,,95.0,39.0,95.0,321300,167.34375
2741,0.0,,,,,39.0,,,,,240,note_off,,95.0,39.0,95.0,321540,167.46875
2742,0.0,,,,,39.0,,,,,240,note_on,,95.0,39.0,95.0,321780,167.59375
2743,0.0,,,,,39.0,,,,,240,note_off,,95.0,39.0,95.0,322020,167.71875
2744,0.0,,,,,59.0,,,,,0,note_on,,95.0,59.0,95.0,322020,167.71875
2745,0.0,,,,,52.0,,,,,0,note_on,,95.0,52.0,95.0,322020,167.71875
2746,0.0,,,,,59.0,,,,,480,note_off,,95.0,59.0,95.0,322500,167.96875
2747,0.0,,,,,52.0,,,,,0,note_off,,95.0,52.0,95.0,322500,167.96875
2748,0.0,,,,,39.0,,,,,0,note_on,,95.0,39.0,95.0,322500,167.96875
2749,0.0,,,,,39.0,,,,,240,note_off,,95.0,39.0,95.0,322740,168.09375
2750,0.0,,,,,39.0,,,,,0,note_on,,95.0,39.0,95.0,322740,168.09375
2751,0.0,,,,,39.0,,,,,240,note_off,,95.0,39.0,95.0,322980,168.21875
2752,0.0,,,,,57.0,,,,,0,note_on,,95.0,57.0,95.0,322980,168.21875
2753,0.0,,,,,50.0,,,,,0,note_on,,95.0,50.0,95.0,322980,168.21875
2754,0.0,,,,,57.0,,,,,480,note_off,,95.0,57.0,95.0,323460,168.46875
2755,0.0,,,,,50.0,,,,,0,note_off,,95.0,50.0,95.0,323460,168.46875
2756,0.0,,,,,39.0,,,,,0,note_on,,95.0,39.0,95.0,323460,168.46875
2757,0.0,,,,,39.0,,,,,240,note_off,,95.0,39.0,95.0,323700,168.59375
2758,0.0,,,,,39.0,,,,,0,note_on,,95.0,39.0,95.0,323700,168.59375
2759,0.0,,,,,39.0,,,,,240,note_off,,95.0,39.0,95.0,323940,168.71875
2760,0.0,,,,,39.0,,,,,240,note_on,,95.0,39.0,95.0,324180,168.84375
2761,1.0,,,,,49.0,,,,,180,note_on,,95.0,49.0,95.0,45360,23.625
2762,0.0,,,,,39.0,,,,,60,note_off,,95.0,39.0,95.0,324240,168.875
2763,1.0,,,,,49.0,,,,,0,note_off,,95.0,49.0,95.0,45360,23.625
2764,1.0,,,,,51.0,,,,,0,note_on,,95.0,51.0,95.0,45360,23.625
2765,0.0,,,,,39.0,,,,,0,note_on,,95.0,39.0,95.0,324240,168.875
2766,1.0,,,,,51.0,,,,,480,note_off,,95.0,51.0,95.0,45840,23.875
2767,0.0,,,,,39.0,,,,,0,note_off,,95.0,39.0,95.0,324240,168.875
2768,0.0,,,,,39.0,,,,,0,note_on,,95.0,39.0,95.0,324240,168.875
2769,0.0,,,,,39.0,,,,,240,note_off,,95.0,39.0,95.0,324480,169.0
2770,0.0,,,,,39.0,,,,,0,note_on,,95.0,39.0,95.0,324480,169.0
2771,0.0,,,,,39.0,,,,,240,note_off,,95.0,39.0,95.0,324720,169.125
2772,0.0,,,,,39.0,,,,,240,note_on,,95.0,39.0,95.0,324960,169.25
2773,0.0,,,,,39.0,,,,,240,note_off,,95.0,39.0,95.0,325200,169.375
2774,0.0,,,,,49.0,,,,,0,note_on,,95.0,49.0,95.0,325200,169.375
2775,0.0,,,,,42.0,,,,,0,note_on,,95.0,42.0,95.0,325200,169.375
2776,0.0,,,,,49.0,,,,,480,note_off,,95.0,49.0,95.0,325680,169.625
2777,0.0,,,,,42.0,,,,,0,note_off,,95.0,42.0,95.0,325680,169.625
2778,0.0,,,,,39.0,,,,,0,note_on,,95.0,39.0,95.0,325680,169.625
2779,0.0,,,,,39.0,,,,,240,note_off,,95.0,39.0,95.0,325920,169.75
2780,0.0,,,,,39.0,,,,,0,note_on,,95.0,39.0,95.0,325920,169.75
2781,0.0,,,,,39.0,,,,,240,note_off,,95.0,39.0,95.0,326160,169.875
2782,0.0,,,,,47.0,,,,,0,note_on,,95.0,47.0,95.0,326160,169.875
2783,0.0,,,,,40.0,,,,,0,note_on,,95.0,40.0,95.0,326160,169.875
2784,0.0,,,,,47.0,,,,,480,note_off,,95.0,47.0,95.0,326640,170.125
2785,0.0,,,,,40.0,,,,,0,note_off,,95.0,40.0,95.0,326640,170.125
2786,0.0,,,,,48.0,,,,,0,note_on,,95.0,48.0,95.0,326640,170.125
2787,0.0,,,,,41.0,,,,,0,note_on,,95.0,41.0,95.0,326640,170.125
2788,0.0,,,,,48.0,,,,,2880,note_off,,95.0,48.0,95.0,329520,171.625
2789,0.0,,,,,41.0,,,,,0,note_off,,95.0,41.0,95.0,329520,171.625
2790,0.0,,,,,49.0,,,,,0,note_on,,95.0,49.0,95.0,329520,171.625
2791,0.0,,,,,42.0,,,,,0,note_on,,95.0,42.0,95.0,329520,171.625
2792,0.0,,,,,49.0,,,,,960,note_off,,95.0,49.0,95.0,330480,172.125
2793,0.0,,,,,42.0,,,,,0,note_off,,95.0,42.0,95.0,330480,172.125
2794,0.0,,,,,39.0,,,,,0,note_on,,95.0,39.0,95.0,330480,172.125
2795,0.0,,,,,39.0,,,,,240,note_off,,95.0,39.0,95.0,330720,172.25
2796,0.0,,,,,39.0,,,,,0,note_on,,95.0,39.0,95.0,330720,172.25
2797,0.0,,,,,39.0,,,,,240,note_off,,95.0,39.0,95.0,330960,172.375
2798,0.0,,,,,39.0,,,,,0,note_on,,95.0,39.0,95.0,330960,172.375
2799,0.0,,,,,39.0,,,,,240,note_off,,95.0,39.0,95.0,331200,172.5
2800,0.0,,,,,39.0,,,,,0,note_on,,95.0,39.0,95.0,331200,172.5
2801,0.0,,,,,39.0,,,,,240,note_off,,95.0,39.0,95.0,331440,172.625
2802,0.0,,,,,39.0,,,,,0,note_on,,95.0,39.0,95.0,331440,172.625
2803,0.0,,,,,39.0,,,,,240,note_off,,95.0,39.0,95.0,331680,172.75
2804,0.0,,,,,39.0,,,,,0,note_on,,95.0,39.0,95.0,331680,172.75
2805,0.0,,,,,39.0,,,,,240,note_off,,95.0,39.0,95.0,331920,172.875
2806,0.0,,,,,39.0,,,,,0,note_on,,95.0,39.0,95.0,331920,172.875
2807,0.0,,,,,39.0,,,,,240,note_off,,95.0,39.0,95.0,332160,173.0
2808,0.0,,,,,39.0,,,,,0,note_on,,95.0,39.0,95.0,332160,173.0
2809,0.0,,,,,39.0,,,,,240,note_off,,95.0,39.0,95.0,332400,173.125
2810,0.0,,,,,39.0,,,,,0,note_on,,95.0,39.0,95.0,332400,173.125
2811,0.0,,,,,39.0,,,,,240,note_off,,95.0,39.0,95.0,332640,173.25
2812,0.0,,,,,39.0,,,,,0,note_on,,95.0,39.0,95.0,332640,173.25
2813,0.0,,,,,39.0,,,,,240,note_off,,95.0,39.0,95.0,332880,173.375
2814,0.0,,,,,49.0,,,,,0,note_on,,95.0,49.0,95.0,332880,173.375
2815,0.0,,,,,42.0,,,,,0,note_on,,95.0,42.0,95.0,332880,173.375
2816,0.0,,,,,49.0,,,,,480,note_off,,95.0,49.0,95.0,333360,173.625
2817,0.0,,,,,42.0,,,,,0,note_off,,95.0,42.0,95.0,333360,173.625
2818,0.0,,,,,39.0,,,,,0,note_on,,95.0,39.0,95.0,333360,173.625
2819,0.0,,,,,39.0,,,,,240,note_off,,95.0,39.0,95.0,333600,173.75
2820,0.0,,,,,39.0,,,,,0,note_on,,95.0,39.0,95.0,333600,173.75
2821,0.0,,,,,39.0,,,,,240,note_off,,95.0,39.0,95.0,333840,173.875
2822,0.0,,,,,49.0,,,,,0,note_on,,95.0,49.0,95.0,333840,173.875
2823,0.0,,,,,42.0,,,,,0,note_on,,95.0,42.0,95.0,333840,173.875
2824,0.0,,,,,49.0,,,,,480,note_off,,95.0,49.0,95.0,334320,174.125
2825,0.0,,,,,42.0,,,,,0,note_off,,95.0,42.0,95.0,334320,174.125
2826,0.0,,,,,48.0,,,,,0,note_on,,95.0,48.0,95.0,334320,174.125
2827,0.0,,,,,41.0,,,,,0,note_on,,95.0,41.0,95.0,334320,174.125
2828,0.0,,,,,48.0,,,,,2880,note_off,,95.0,48.0,95.0,337200,175.625
2829,0.0,,,,,41.0,,,,,0,note_off,,95.0,41.0,95.0,337200,175.625
2830,0.0,,,,,52.0,,,,,0,note_on,,95.0,52.0,95.0,337200,175.625
2831,0.0,,,,,45.0,,,,,0,note_on,,95.0,45.0,95.0,337200,175.625
2832,0.0,,,,,52.0,,,,,960,note_off,,95.0,52.0,95.0,338160,176.125
2833,0.0,,,,,45.0,,,,,0,note_off,,95.0,45.0,95.0,338160,176.125
2834,0.0,,,,,39.0,,,,,0,note_on,,95.0,39.0,95.0,338160,176.125
2835,0.0,,,,,39.0,,,,,240,note_off,,95.0,39.0,95.0,338400,176.25
2836,0.0,,,,,39.0,,,,,0,note_on,,95.0,39.0,95.0,338400,176.25
2837,0.0,,,,,39.0,,,,,240,note_off,,95.0,39.0,95.0,338640,176.375
2838,0.0,,,,,39.0,,,,,0,note_on,,95.0,39.0,95.0,338640,176.375
2839,0.0,,,,,39.0,,,,,240,note_off,,95.0,39.0,95.0,338880,176.5
2840,0.0,,,,,39.0,,,,,0,note_on,,95.0,39.0,95.0,338880,176.5
2841,0.0,,,,,39.0,,,,,240,note_off,,95.0,39.0,95.0,339120,176.625
2842,0.0,,,,,39.0,,,,,0,note_on,,95.0,39.0,95.0,339120,176.625
2843,0.0,,,,,39.0,,,,,240,note_off,,95.0,39.0,95.0,339360,176.75
2844,0.0,,,,,39.0,,,,,0,note_on,,95.0,39.0,95.0,339360,176.75
2845,0.0,,,,,39.0,,,,,240,note_off,,95.0,39.0,95.0,339600,176.875
2846,0.0,,,,,39.0,,,,,0,note_on,,95.0,39.0,95.0,339600,176.875
2847,0.0,,,,,39.0,,,,,240,note_off,,95.0,39.0,95.0,339840,177.0
2848,0.0,,,,,39.0,,,,,0,note_on,,95.0,39.0,95.0,339840,177.0
2849,0.0,,,,,39.0,,,,,240,note_off,,95.0,39.0,95.0,340080,177.125
2850,0.0,,,,,39.0,,,,,0,note_on,,95.0,39.0,95.0,340080,177.125
2851,0.0,,,,,39.0,,,,,240,note_off,,95.0,39.0,95.0,340320,177.25
2852,0.0,,,,,39.0,,,,,0,note_on,,95.0,39.0,95.0,340320,177.25
2853,0.0,,,,,39.0,,,,,240,note_off,,95.0,39.0,95.0,340560,177.375
2854,0.0,,,,,46.0,,,,,0,note_on,,95.0,46.0,95.0,340560,177.375
2855,0.0,,,,,39.0,,,,,0,note_on,,95.0,39.0,95.0,340560,177.375
2856,0.0,,,,,46.0,,,,,480,note_off,,95.0,46.0,95.0,341040,177.625
2857,0.0,,,,,39.0,,,,,0,note_off,,95.0,39.0,95.0,341040,177.625
2858,0.0,,,,,39.0,,,,,0,note_on,,95.0,39.0,95.0,341040,177.625
2859,0.0,,,,,39.0,,,,,240,note_off,,95.0,39.0,95.0,341280,177.75
2860,0.0,,,,,39.0,,,,,0,note_on,,95.0,39.0,95.0,341280,177.75
2861,0.0,,,,,39.0,,,,,240,note_off,,95.0,39.0,95.0,341520,177.875
2862,0.0,,,,,47.0,,,,,0,note_on,,95.0,47.0,95.0,341520,177.875
2863,0.0,,,,,40.0,,,,,0,note_on,,95.0,40.0,95.0,341520,177.875
2864,0.0,,,,,47.0,,,,,480,note_off,,95.0,47.0,95.0,342000,178.125
2865,0.0,,,,,40.0,,,,,0,note_off,,95.0,40.0,95.0,342000,178.125
2866,0.0,,,,,48.0,,,,,0,note_on,,95.0,48.0,95.0,342000,178.125
2867,0.0,,,,,41.0,,,,,0,note_on,,95.0,41.0,95.0,342000,178.125
2868,0.0,,,,,48.0,,,,,2880,note_off,,95.0,48.0,95.0,344880,179.625
2869,0.0,,,,,41.0,,,,,0,note_off,,95.0,41.0,95.0,344880,179.625
2870,0.0,,,,,49.0,,,,,0,note_on,,95.0,49.0,95.0,344880,179.625
2871,0.0,,,,,42.0,,,,,0,note_on,,95.0,42.0,95.0,344880,179.625
2872,0.0,,,,,49.0,,,,,960,note_off,,95.0,49.0,95.0,345840,180.125
2873,0.0,,,,,42.0,,,,,0,note_off,,95.0,42.0,95.0,345840,180.125
2874,0.0,,,,,39.0,,,,,0,note_on,,95.0,39.0,95.0,345840,180.125
2875,0.0,,,,,39.0,,,,,240,note_off,,95.0,39.0,95.0,346080,180.25
2876,0.0,,,,,39.0,,,,,0,note_on,,95.0,39.0,95.0,346080,180.25
2877,0.0,,,,,39.0,,,,,240,note_off,,95.0,39.0,95.0,346320,180.375
2878,0.0,,,,,39.0,,,,,0,note_on,,95.0,39.0,95.0,346320,180.375
2879,0.0,,,,,39.0,,,,,240,note_off,,95.0,39.0,95.0,346560,180.5
2880,0.0,,,,,39.0,,,,,0,note_on,,95.0,39.0,95.0,346560,180.5
2881,0.0,,,,,39.0,,,,,240,note_off,,95.0,39.0,95.0,346800,180.625
2882,0.0,,,,,39.0,,,,,0,note_on,,95.0,39.0,95.0,346800,180.625
2883,0.0,,,,,39.0,,,,,240,note_off,,95.0,39.0,95.0,347040,180.75
2884,0.0,,,,,39.0,,,,,0,note_on,,95.0,39.0,95.0,347040,180.75
2885,0.0,,,,,39.0,,,,,240,note_off,,95.0,39.0,95.0,347280,180.875
2886,0.0,,,,,39.0,,,,,0,note_on,,95.0,39.0,95.0,347280,180.875
2887,0.0,,,,,39.0,,,,,240,note_off,,95.0,39.0,95.0,347520,181.0
2888,0.0,,,,,39.0,,,,,0,note_on,,95.0,39.0,95.0,347520,181.0
2889,0.0,,,,,39.0,,,,,240,note_off,,95.0,39.0,95.0,347760,181.125
2890,0.0,,,,,39.0,,,,,0,note_on,,95.0,39.0,95.0,347760,181.125
2891,0.0,,,,,39.0,,,,,240,note_off,,95.0,39.0,95.0,348000,181.25
2892,0.0,,,,,39.0,,,,,0,note_on,,95.0,39.0,95.0,348000,181.25
2893,0.0,,,,,39.0,,,,,240,note_off,,95.0,39.0,95.0,348240,181.375
2894,0.0,,,,,49.0,,,,,0,note_on,,95.0,49.0,95.0,348240,181.375
2895,0.0,,,,,42.0,,,,,0,note_on,,95.0,42.0,95.0,348240,181.375
2896,0.0,,,,,49.0,,,,,480,note_off,,95.0,49.0,95.0,348720,181.625
2897,0.0,,,,,42.0,,,,,0,note_off,,95.0,42.0,95.0,348720,181.625
2898,0.0,,,,,39.0,,,,,0,note_on,,95.0,39.0,95.0,348720,181.625
2899,0.0,,,,,39.0,,,,,240,note_off,,95.0,39.0,95.0,348960,181.75
2900,0.0,,,,,39.0,,,,,0,note_on,,95.0,39.0,95.0,348960,181.75
2901,0.0,,,,,39.0,,,,,240,note_off,,95.0,39.0,95.0,349200,181.875
2902,0.0,,,,,49.0,,,,,0,note_on,,95.0,49.0,95.0,349200,181.875
2903,0.0,,,,,42.0,,,,,0,note_on,,95.0,42.0,95.0,349200,181.875
2904,0.0,,,,,49.0,,,,,480,note_off,,95.0,49.0,95.0,349680,182.125
2905,0.0,,,,,42.0,,,,,0,note_off,,95.0,42.0,95.0,349680,182.125
2906,0.0,,,,,48.0,,,,,0,note_on,,95.0,48.0,95.0,349680,182.125
2907,0.0,,,,,41.0,,,,,0,note_on,,95.0,41.0,95.0,349680,182.125
2908,0.0,,,,,48.0,,,,,480,note_off,,95.0,48.0,95.0,350160,182.375
2909,0.0,,,,,41.0,,,,,0,note_off,,95.0,41.0,95.0,350160,182.375
2910,0.0,,,,,49.0,,,,,2400,note_on,,95.0,49.0,95.0,352560,183.625
2911,0.0,,,,,42.0,,,,,0,note_on,,95.0,42.0,95.0,352560,183.625
2912,0.0,,,,,49.0,,,,,240,note_off,,95.0,49.0,95.0,352800,183.75
2913,0.0,,,,,42.0,,,,,0,note_off,,95.0,42.0,95.0,352800,183.75
2914,0.0,,,,,51.0,,,,,0,note_on,,95.0,51.0,95.0,352800,183.75
2915,0.0,,,,,44.0,,,,,0,note_on,,95.0,44.0,95.0,352800,183.75
2916,0.0,,,,,51.0,,,,,720,note_off,,95.0,51.0,95.0,353520,184.125
2917,0.0,,,,,44.0,,,,,0,note_off,,95.0,44.0,95.0,353520,184.125
2918,0.0,,,,,39.0,,,,,0,note_on,,95.0,39.0,95.0,353520,184.125
2919,0.0,,,,,39.0,,,,,240,note_off,,95.0,39.0,95.0,353760,184.25
2920,0.0,,,,,39.0,,,,,240,note_on,,95.0,39.0,95.0,354000,184.375
2921,0.0,,,,,39.0,,,,,240,note_off,,95.0,39.0,95.0,354240,184.5
2922,0.0,,,,,39.0,,,,,0,note_on,,95.0,39.0,95.0,354240,184.5
2923,0.0,,,,,39.0,,,,,240,note_off,,95.0,39.0,95.0,354480,184.625
2924,0.0,,,,,51.0,,,,,0,note_on,,95.0,51.0,95.0,354480,184.625
2925,0.0,,,,,51.0,,,,,240,note_off,,95.0,51.0,95.0,354720,184.75
2926,0.0,,,,,52.0,,,,,0,note_on,,95.0,52.0,95.0,354720,184.75
2927,0.0,,,,,52.0,,,,,720,note_off,,95.0,52.0,95.0,355440,185.125
2928,0.0,,,,,39.0,,,,,0,note_on,,95.0,39.0,95.0,355440,185.125
2929,0.0,,,,,39.0,,,,,240,note_off,,95.0,39.0,95.0,355680,185.25
2930,0.0,,,,,39.0,,,,,240,note_on,,95.0,39.0,95.0,355920,185.375
2931,0.0,,,,,39.0,,,,,240,note_off,,95.0,39.0,95.0,356160,185.5
2932,0.0,,,,,39.0,,,,,0,note_on,,95.0,39.0,95.0,356160,185.5
2933,0.0,,,,,39.0,,,,,240,note_off,,95.0,39.0,95.0,356400,185.625
2934,0.0,,,,,51.0,,,,,0,note_on,,95.0,51.0,95.0,356400,185.625
2935,0.0,,,,,51.0,,,,,240,note_off,,95.0,51.0,95.0,356640,185.75
2936,0.0,,,,,52.0,,,,,0,note_on,,95.0,52.0,95.0,356640,185.75
2937,0.0,,,,,52.0,,,,,240,note_off,,95.0,52.0,95.0,356880,185.875
2938,0.0,,,,,54.0,,,,,0,note_on,,95.0,54.0,95.0,356880,185.875
2939,0.0,,,,,54.0,,,,,480,note_off,,95.0,54.0,95.0,357360,186.125
2940,0.0,,,,,39.0,,,,,0,note_on,,95.0,39.0,95.0,357360,186.125
2941,0.0,,,,,39.0,,,,,240,note_off,,95.0,39.0,95.0,357600,186.25
2942,0.0,,,,,39.0,,,,,240,note_on,,95.0,39.0,95.0,357840,186.375
2943,0.0,,,,,39.0,,,,,240,note_off,,95.0,39.0,95.0,358080,186.5
2944,0.0,,,,,39.0,,,,,0,note_on,,95.0,39.0,95.0,358080,186.5
2945,0.0,,,,,39.0,,,,,240,note_off,,95.0,39.0,95.0,358320,186.625
2946,0.0,,,,,51.0,,,,,0,note_on,,95.0,51.0,95.0,358320,186.625
2947,0.0,,,,,51.0,,,,,240,note_off,,95.0,51.0,95.0,358560,186.75
2948,0.0,,,,,52.0,,,,,0,note_on,,95.0,52.0,95.0,358560,186.75
2949,0.0,,,,,52.0,,,,,240,note_off,,95.0,52.0,95.0,358800,186.875
2950,0.0,,,,,56.0,,,,,0,note_on,,95.0,56.0,95.0,358800,186.875
2951,0.0,,,,,56.0,,,,,480,note_off,,95.0,56.0,95.0,359280,187.125
2952,0.0,,,,,55.0,,,,,0,note_on,,95.0,55.0,95.0,359280,187.125
2953,0.0,,,,,55.0,,,,,240,note_off,,95.0,55.0,95.0,359520,187.25
2954,0.0,,,,,54.0,,,,,0,note_on,,95.0,54.0,95.0,359520,187.25
2955,0.0,,,,,54.0,,,,,240,note_off,,95.0,54.0,95.0,359760,187.375
2956,0.0,,,,,53.0,,,,,0,note_on,,95.0,53.0,95.0,359760,187.375
2957,0.0,,,,,53.0,,,,,240,note_off,,95.0,53.0,95.0,360000,187.5
2958,0.0,,,,,50.0,,,,,0,note_on,,95.0,50.0,95.0,360000,187.5
2959,0.0,,,,,50.0,,,,,240,note_off,,95.0,50.0,95.0,360240,187.625
2960,0.0,,,,,49.0,,,,,0,note_on,,95.0,49.0,95.0,360240,187.625
2961,0.0,,,,,49.0,,,,,240,note_off,,95.0,49.0,95.0,360480,187.75
2962,0.0,,,,,47.0,,,,,0,note_on,,95.0,47.0,95.0,360480,187.75
2963,0.0,,,,,47.0,,,,,240,note_off,,95.0,47.0,95.0,360720,187.875
2964,0.0,,,,,46.0,,,,,0,note_on,,95.0,46.0,95.0,360720,187.875
2965,0.0,,,,,46.0,,,,,240,note_off,,95.0,46.0,95.0,360960,188.0
2966,0.0,,,,,45.0,,,,,0,note_on,,95.0,45.0,95.0,360960,188.0
2967,0.0,,,,,45.0,,,,,240,note_off,,95.0,45.0,95.0,361200,188.125
2968,0.0,,,,,39.0,,,,,0,note_on,,95.0,39.0,95.0,361200,188.125
2969,0.0,,,,,39.0,,,,,240,note_off,,95.0,39.0,95.0,361440,188.25
2970,0.0,,,,,39.0,,,,,240,note_on,,95.0,39.0,95.0,361680,188.375
2971,0.0,,,,,39.0,,,,,240,note_off,,95.0,39.0,95.0,361920,188.5
2972,0.0,,,,,39.0,,,,,0,note_on,,95.0,39.0,95.0,361920,188.5
2973,0.0,,,,,39.0,,,,,240,note_off,,95.0,39.0,95.0,362160,188.625
2974,0.0,,,,,51.0,,,,,0,note_on,,95.0,51.0,95.0,362160,188.625
2975,0.0,,,,,51.0,,,,,240,note_off,,95.0,51.0,95.0,362400,188.75
2976,0.0,,,,,52.0,,,,,0,note_on,,95.0,52.0,95.0,362400,188.75
2977,0.0,,,,,52.0,,,,,720,note_off,,95.0,52.0,95.0,363120,189.125
2978,0.0,,,,,39.0,,,,,0,note_on,,95.0,39.0,95.0,363120,189.125
2979,0.0,,,,,39.0,,,,,240,note_off,,95.0,39.0,95.0,363360,189.25
2980,0.0,,,,,39.0,,,,,240,note_on,,95.0,39.0,95.0,363600,189.375
2981,0.0,,,,,39.0,,,,,240,note_off,,95.0,39.0,95.0,363840,189.5
2982,0.0,,,,,39.0,,,,,0,note_on,,95.0,39.0,95.0,363840,189.5
2983,0.0,,,,,39.0,,,,,240,note_off,,95.0,39.0,95.0,364080,189.625
2984,0.0,,,,,51.0,,,,,0,note_on,,95.0,51.0,95.0,364080,189.625
2985,0.0,,,,,51.0,,,,,240,note_off,,95.0,51.0,95.0,364320,189.75
2986,0.0,,,,,52.0,,,,,0,note_on,,95.0,52.0,95.0,364320,189.75
2987,0.0,,,,,52.0,,,,,240,note_off,,95.0,52.0,95.0,364560,189.875
2988,0.0,,,,,54.0,,,,,0,note_on,,95.0,54.0,95.0,364560,189.875
2989,0.0,,,,,54.0,,,,,480,note_off,,95.0,54.0,95.0,365040,190.125
2990,0.0,,,,,39.0,,,,,0,note_on,,95.0,39.0,95.0,365040,190.125
2991,0.0,,,,,39.0,,,,,240,note_off,,95.0,39.0,95.0,365280,190.25
2992,0.0,,,,,39.0,,,,,240,note_on,,95.0,39.0,95.0,365520,190.375
2993,0.0,,,,,39.0,,,,,240,note_off,,95.0,39.0,95.0,365760,190.5
2994,0.0,,,,,39.0,,,,,0,note_on,,95.0,39.0,95.0,365760,190.5
2995,0.0,,,,,39.0,,,,,240,note_off,,95.0,39.0,95.0,366000,190.625
2996,0.0,,,,,51.0,,,,,0,note_on,,95.0,51.0,95.0,366000,190.625
2997,0.0,,,,,51.0,,,,,240,note_off,,95.0,51.0,95.0,366240,190.75
2998,0.0,,,,,52.0,,,,,0,note_on,,95.0,52.0,95.0,366240,190.75
2999,0.0,,,,,52.0,,,,,240,note_off,,95.0,52.0,95.0,366480,190.875
3000,0.0,,,,,56.0,,,,,0,note_on,,95.0,56.0,95.0,366480,190.875
3001,0.0,,,,,56.0,,,,,480,note_off,,95.0,56.0,95.0,366960,191.125
3002,0.0,,,,,55.0,,,,,0,note_on,,95.0,55.0,95.0,366960,191.125
3003,0.0,,,,,55.0,,,,,240,note_off,,95.0,55.0,95.0,367200,191.25
3004,0.0,,,,,54.0,,,,,0,note_on,,95.0,54.0,95.0,367200,191.25
3005,0.0,,,,,54.0,,,,,240,note_off,,95.0,54.0,95.0,367440,191.375
3006,0.0,,,,,53.0,,,,,0,note_on,,95.0,53.0,95.0,367440,191.375
3007,0.0,,,,,53.0,,,,,240,note_off,,95.0,53.0,95.0,367680,191.5
3008,0.0,,,,,50.0,,,,,0,note_on,,95.0,50.0,95.0,367680,191.5
3009,0.0,,,,,50.0,,,,,240,note_off,,95.0,50.0,95.0,367920,191.625
3010,0.0,,,,,49.0,,,,,0,note_on,,95.0,49.0,95.0,367920,191.625
3011,0.0,,,,,49.0,,,,,240,note_off,,95.0,49.0,95.0,368160,191.75
3012,0.0,,,,,48.0,,,,,0,note_on,,95.0,48.0,95.0,368160,191.75
3013,0.0,,,,,48.0,,,,,240,note_off,,95.0,48.0,95.0,368400,191.875
3014,0.0,,,,,57.0,,,,,0,note_on,,95.0,57.0,95.0,368400,191.875
3015,0.0,,,,,57.0,,,,,480,note_off,,95.0,57.0,95.0,368880,192.125
3016,0.0,,,,,39.0,,,,,0,note_on,,95.0,39.0,95.0,368880,192.125
3017,0.0,,,,,39.0,,,,,240,note_off,,95.0,39.0,95.0,369120,192.25
3018,0.0,,,,,39.0,,,,,240,note_on,,95.0,39.0,95.0,369360,192.375
3019,0.0,,,,,39.0,,,,,240,note_off,,95.0,39.0,95.0,369600,192.5
3020,0.0,,,,,39.0,,,,,0,note_on,,95.0,39.0,95.0,369600,192.5
3021,0.0,,,,,39.0,,,,,240,note_off,,95.0,39.0,95.0,369840,192.625
3022,0.0,,,,,51.0,,,,,0,note_on,,95.0,51.0,95.0,369840,192.625
3023,0.0,,,,,51.0,,,,,240,note_off,,95.0,51.0,95.0,370080,192.75
3024,0.0,,,,,52.0,,,,,0,note_on,,95.0,52.0,95.0,370080,192.75
3025,0.0,,,,,52.0,,,,,720,note_off,,95.0,52.0,95.0,370800,193.125
3026,0.0,,,,,39.0,,,,,0,note_on,,95.0,39.0,95.0,370800,193.125
3027,0.0,,,,,39.0,,,,,240,note_off,,95.0,39.0,95.0,371040,193.25
3028,0.0,,,,,39.0,,,,,240,note_on,,95.0,39.0,95.0,371280,193.375
3029,0.0,,,,,39.0,,,,,240,note_off,,95.0,39.0,95.0,371520,193.5
3030,0.0,,,,,39.0,,,,,0,note_on,,95.0,39.0,95.0,371520,193.5
3031,0.0,,,,,39.0,,,,,240,note_off,,95.0,39.0,95.0,371760,193.625
3032,0.0,,,,,51.0,,,,,0,note_on,,95.0,51.0,95.0,371760,193.625
3033,0.0,,,,,51.0,,,,,240,note_off,,95.0,51.0,95.0,372000,193.75
3034,0.0,,,,,52.0,,,,,0,note_on,,95.0,52.0,95.0,372000,193.75
3035,0.0,,,,,52.0,,,,,240,note_off,,95.0,52.0,95.0,372240,193.875
3036,0.0,,,,,54.0,,,,,0,note_on,,95.0,54.0,95.0,372240,193.875
3037,0.0,,,,,54.0,,,,,480,note_off,,95.0,54.0,95.0,372720,194.125
3038,0.0,,,,,39.0,,,,,0,note_on,,95.0,39.0,95.0,372720,194.125
3039,0.0,,,,,39.0,,,,,240,note_off,,95.0,39.0,95.0,372960,194.25
3040,0.0,,,,,39.0,,,,,240,note_on,,95.0,39.0,95.0,373200,194.375
3041,0.0,,,,,39.0,,,,,240,note_off,,95.0,39.0,95.0,373440,194.5
3042,0.0,,,,,39.0,,,,,0,note_on,,95.0,39.0,95.0,373440,194.5
3043,0.0,,,,,39.0,,,,,240,note_off,,95.0,39.0,95.0,373680,194.625
3044,0.0,,,,,51.0,,,,,0,note_on,,95.0,51.0,95.0,373680,194.625
3045,0.0,,,,,51.0,,,,,240,note_off,,95.0,51.0,95.0,373920,194.75
3046,0.0,,,,,52.0,,,,,0,note_on,,95.0,52.0,95.0,373920,194.75
3047,0.0,,,,,52.0,,,,,240,note_off,,95.0,52.0,95.0,374160,194.875
3048,0.0,,,,,56.0,,,,,0,note_on,,95.0,56.0,95.0,374160,194.875
3049,0.0,,,,,56.0,,,,,480,note_off,,95.0,56.0,95.0,374640,195.125
3050,0.0,,,,,55.0,,,,,0,note_on,,95.0,55.0,95.0,374640,195.125
3051,0.0,,,,,55.0,,,,,240,note_off,,95.0,55.0,95.0,374880,195.25
3052,0.0,,,,,54.0,,,,,0,note_on,,95.0,54.0,95.0,374880,195.25
3053,0.0,,,,,54.0,,,,,240,note_off,,95.0,54.0,95.0,375120,195.375
3054,0.0,,,,,53.0,,,,,0,note_on,,95.0,53.0,95.0,375120,195.375
3055,0.0,,,,,53.0,,,,,240,note_off,,95.0,53.0,95.0,375360,195.5
3056,0.0,,,,,50.0,,,,,0,note_on,,95.0,50.0,95.0,375360,195.5
3057,0.0,,,,,50.0,,,,,240,note_off,,95.0,50.0,95.0,375600,195.625
3058,0.0,,,,,49.0,,,,,0,note_on,,95.0,49.0,95.0,375600,195.625
3059,0.0,,,,,49.0,,,,,240,note_off,,95.0,49.0,95.0,375840,195.75
3060,0.0,,,,,47.0,,,,,0,note_on,,95.0,47.0,95.0,375840,195.75
3061,0.0,,,,,47.0,,,,,240,note_off,,95.0,47.0,95.0,376080,195.875
3062,0.0,,,,,46.0,,,,,0,note_on,,95.0,46.0,95.0,376080,195.875
3063,0.0,,,,,46.0,,,,,240,note_off,,95.0,46.0,95.0,376320,196.0
3064,0.0,,,,,45.0,,,,,0,note_on,,95.0,45.0,95.0,376320,196.0
3065,0.0,,,,,45.0,,,,,240,note_off,,95.0,45.0,95.0,376560,196.125
3066,0.0,,,,,39.0,,,,,0,note_on,,95.0,39.0,95.0,376560,196.125
3067,0.0,,,,,39.0,,,,,240,note_off,,95.0,39.0,95.0,376800,196.25
3068,0.0,,,,,39.0,,,,,240,note_on,,95.0,39.0,95.0,377040,196.375
3069,0.0,,,,,39.0,,,,,240,note_off,,95.0,39.0,95.0,377280,196.5
3070,0.0,,,,,39.0,,,,,0,note_on,,95.0,39.0,95.0,377280,196.5
3071,0.0,,,,,39.0,,,,,240,note_off,,95.0,39.0,95.0,377520,196.625
3072,0.0,,,,,51.0,,,,,0,note_on,,95.0,51.0,95.0,377520,196.625
3073,0.0,,,,,51.0,,,,,240,note_off,,95.0,51.0,95.0,377760,196.75
3074,0.0,,,,,52.0,,,,,0,note_on,,95.0,52.0,95.0,377760,196.75
3075,0.0,,,,,52.0,,,,,720,note_off,,95.0,52.0,95.0,378480,197.125
3076,0.0,,,,,39.0,,,,,0,note_on,,95.0,39.0,95.0,378480,197.125
3077,0.0,,,,,39.0,,,,,240,note_off,,95.0,39.0,95.0,378720,197.25
3078,0.0,,,,,39.0,,,,,240,note_on,,95.0,39.0,95.0,378960,197.375
3079,0.0,,,,,39.0,,,,,240,note_off,,95.0,39.0,95.0,379200,197.5
3080,0.0,,,,,39.0,,,,,0,note_on,,95.0,39.0,95.0,379200,197.5
3081,0.0,,,,,39.0,,,,,240,note_off,,95.0,39.0,95.0,379440,197.625
3082,0.0,,,,,51.0,,,,,0,note_on,,95.0,51.0,95.0,379440,197.625
3083,0.0,,,,,51.0,,,,,240,note_off,,95.0,51.0,95.0,379680,197.75
3084,0.0,,,,,52.0,,,,,0,note_on,,95.0,52.0,95.0,379680,197.75
3085,0.0,,,,,52.0,,,,,240,note_off,,95.0,52.0,95.0,379920,197.875
3086,0.0,,,,,54.0,,,,,0,note_on,,95.0,54.0,95.0,379920,197.875
3087,0.0,,,,,54.0,,,,,480,note_off,,95.0,54.0,95.0,380400,198.125
3088,0.0,,,,,39.0,,,,,0,note_on,,95.0,39.0,95.0,380400,198.125
3089,0.0,,,,,39.0,,,,,240,note_off,,95.0,39.0,95.0,380640,198.25
3090,0.0,,,,,39.0,,,,,240,note_on,,95.0,39.0,95.0,380880,198.375
3091,0.0,,,,,39.0,,,,,240,note_off,,95.0,39.0,95.0,381120,198.5
3092,0.0,,,,,39.0,,,,,0,note_on,,95.0,39.0,95.0,381120,198.5
3093,0.0,,,,,39.0,,,,,240,note_off,,95.0,39.0,95.0,381360,198.625
3094,0.0,,,,,51.0,,,,,0,note_on,,95.0,51.0,95.0,381360,198.625
3095,0.0,,,,,51.0,,,,,240,note_off,,95.0,51.0,95.0,381600,198.75
3096,0.0,,,,,52.0,,,,,0,note_on,,95.0,52.0,95.0,381600,198.75
3097,0.0,,,,,52.0,,,,,240,note_off,,95.0,52.0,95.0,381840,198.875
3098,0.0,,,,,56.0,,,,,0,note_on,,95.0,56.0,95.0,381840,198.875
3099,0.0,,,,,56.0,,,,,480,note_off,,95.0,56.0,95.0,382320,199.125
3100,0.0,,,,,55.0,,,,,0,note_on,,95.0,55.0,95.0,382320,199.125
3101,0.0,,,,,55.0,,,,,240,note_off,,95.0,55.0,95.0,382560,199.25
3102,0.0,,,,,54.0,,,,,0,note_on,,95.0,54.0,95.0,382560,199.25
3103,0.0,,,,,54.0,,,,,240,note_off,,95.0,54.0,95.0,382800,199.375
3104,0.0,,,,,53.0,,,,,0,note_on,,95.0,53.0,95.0,382800,199.375
3105,0.0,,,,,53.0,,,,,240,note_off,,95.0,53.0,95.0,383040,199.5
3106,0.0,,,,,50.0,,,,,0,note_on,,95.0,50.0,95.0,383040,199.5
3107,0.0,,,,,50.0,,,,,240,note_off,,95.0,50.0,95.0,383280,199.625
3108,0.0,,,,,49.0,,,,,0,note_on,,95.0,49.0,95.0,383280,199.625
3109,0.0,,,,,49.0,,,,,240,note_off,,95.0,49.0,95.0,383520,199.75
3110,0.0,,,,,47.0,,,,,0,note_on,,95.0,47.0,95.0,383520,199.75
3111,0.0,,,,,47.0,,,,,240,note_off,,95.0,47.0,95.0,383760,199.875
3112,0.0,,,,,46.0,,,,,0,note_on,,95.0,46.0,95.0,383760,199.875
3113,0.0,,,,,46.0,,,,,240,note_off,,95.0,46.0,95.0,384000,200.0
3114,0.0,,,,,45.0,,,,,0,note_on,,95.0,45.0,95.0,384000,200.0
3115,0.0,,,,,45.0,,,,,240,note_off,,95.0,45.0,95.0,384240,200.125
3116,0.0,,,,,55.0,,,,,0,note_on,,95.0,55.0,95.0,384240,200.125
3117,0.0,,,,,55.0,,,,,240,note_off,,95.0,55.0,95.0,384480,200.25
3118,0.0,,,,,54.0,,,,,0,note_on,,95.0,54.0,95.0,384480,200.25
3119,0.0,,,,,54.0,,,,,240,note_off,,95.0,54.0,95.0,384720,200.375
3120,0.0,,,,,53.0,,,,,0,note_on,,95.0,53.0,95.0,384720,200.375
3121,0.0,,,,,53.0,,,,,240,note_off,,95.0,53.0,95.0,384960,200.5
3122,0.0,,,,,49.0,,,,,0,note_on,,95.0,49.0,95.0,384960,200.5
3123,0.0,,,,,49.0,,,,,240,note_off,,95.0,49.0,95.0,385200,200.625
3124,0.0,,,,,48.0,,,,,0,note_on,,95.0,48.0,95.0,385200,200.625
3125,0.0,,,,,48.0,,,,,240,note_off,,95.0,48.0,95.0,385440,200.75
3126,0.0,,,,,47.0,,,,,0,note_on,,95.0,47.0,95.0,385440,200.75
3127,0.0,,,,,47.0,,,,,240,note_off,,95.0,47.0,95.0,385680,200.875
3128,0.0,,,,,42.0,,,,,0,note_on,,95.0,42.0,95.0,385680,200.875
3129,0.0,,,,,42.0,,,,,240,note_off,,95.0,42.0,95.0,385920,201.0
3130,0.0,,,,,41.0,,,,,0,note_on,,95.0,41.0,95.0,385920,201.0
3131,0.0,,,,,41.0,,,,,240,note_off,,95.0,41.0,95.0,386160,201.125
3132,0.0,,,,,46.0,,,,,0,note_on,,95.0,46.0,95.0,386160,201.125
3133,0.0,,,,,39.0,,,,,0,note_on,,95.0,39.0,95.0,386160,201.125
3134,0.0,,,,,46.0,,,,,480,note_off,,95.0,46.0,95.0,386640,201.375
3135,0.0,,,,,39.0,,,,,0,note_off,,95.0,39.0,95.0,386640,201.375
3136,,,,,,,,,,,0,end_of_track,,,,,9221120237041090560,4802666790125568.0
3137,2.0,,,,,,,0.0,,,0,pitchwheel,,,,,0,0.0
3138,2.0,,7.0,,,,,,,,0,control_change,103.0,,,,0,0.0
3139,2.0,,10.0,,,,,,,,0,control_change,103.0,,,,0,0.0
3140,2.0,,93.0,,,,,,,,0,control_change,0.0,,,,0,0.0
3141,2.0,,91.0,,,,,,,,0,control_change,0.0,,,,0,0.0
3142,2.0,,95.0,,,,,,,,0,control_change,0.0,,,,0,0.0
3143,2.0,,92.0,,,,,,,,0,control_change,0.0,,,,0,0.0
3144,2.0,,11.0,,,,,,,,0,control_change,127.0,,,,0,0.0
3145,2.0,,,,,,,,30.0,,0,program_change,,,,,0,0.0
3146,3.0,,7.0,,,,,,,,0,control_change,103.0,,,,0,0.0
3147,3.0,,10.0,,,,,,,,0,control_change,103.0,,,,0,0.0
3148,3.0,,93.0,,,,,,,,0,control_change,0.0,,,,0,0.0
3149,3.0,,91.0,,,,,,,,0,control_change,0.0,,,,0,0.0
3150,3.0,,95.0,,,,,,,,0,control_change,0.0,,,,0,0.0
3151,3.0,,92.0,,,,,,,,0,control_change,0.0,,,,0,0.0
3152,3.0,,11.0,,,,,,,,0,control_change,127.0,,,,0,0.0
3153,3.0,,,,,,,,30.0,,0,program_change,,,,,0,0.0
3154,2.0,,,,,39.0,,,,,0,note_on,,95.0,39.0,95.0,0,0.0
3155,2.0,,,,,39.0,,,,,240,note_off,,95.0,39.0,95.0,240,0.125
3156,2.0,,,,,39.0,,,,,0,note_on,,95.0,39.0,95.0,240,0.125
3157,2.0,,,,,39.0,,,,,240,note_off,,95.0,39.0,95.0,480,0.25
3158,2.0,,,,,39.0,,,,,240,note_on,,95.0,39.0,95.0,720,0.375
3159,3.0,,,,,49.0,,,,,180,note_on,,95.0,49.0,95.0,180,0.09375
3160,2.0,,,,,39.0,,,,,60,note_off,,95.0,39.0,95.0,780,0.40625
3161,3.0,,,,,49.0,,,,,0,note_off,,95.0,49.0,95.0,180,0.09375
3162,3.0,,,,,51.0,,,,,0,note_on,,95.0,51.0,95.0,180,0.09375
3163,2.0,,,,,39.0,,,,,0,note_on,,95.0,39.0,95.0,780,0.40625
3164,3.0,,,,,51.0,,,,,480,note_off,,95.0,51.0,95.0,660,0.34375
3165,2.0,,,,,39.0,,,,,0,note_off,,95.0,39.0,95.0,780,0.40625
3166,2.0,,,,,39.0,,,,,0,note_on,,95.0,39.0,95.0,780,0.40625
3167,2.0,,,,,39.0,,,,,240,note_off,,95.0,39.0,95.0,1020,0.53125
3168,2.0,,,,,39.0,,,,,0,note_on,,95.0,39.0,95.0,1020,0.53125
3169,2.0,,,,,39.0,,,,,240,note_off,,95.0,39.0,95.0,1260,0.65625
3170,2.0,,,,,39.0,,,,,240,note_on,,95.0,39.0,95.0,1500,0.78125
3171,2.0,,,,,39.0,,,,,240,note_off,,95.0,39.0,95.0,1740,0.90625
3172,2.0,,,,,59.0,,,,,0,note_on,,95.0,59.0,95.0,1740,0.90625
3173,2.0,,,,,52.0,,,,,0,note_on,,95.0,52.0,95.0,1740,0.90625
3174,2.0,,,,,59.0,,,,,480,note_off,,95.0,59.0,95.0,2220,1.15625
3175,2.0,,,,,52.0,,,,,0,note_off,,95.0,52.0,95.0,2220,1.15625
3176,2.0,,,,,39.0,,,,,0,note_on,,95.0,39.0,95.0,2220,1.15625
3177,2.0,,,,,39.0,,,,,240,note_off,,95.0,39.0,95.0,2460,1.28125
3178,2.0,,,,,39.0,,,,,0,note_on,,95.0,39.0,95.0,2460,1.28125
3179,2.0,,,,,39.0,,,,,240,note_off,,95.0,39.0,95.0,2700,1.40625
3180,2.0,,,,,57.0,,,,,0,note_on,,95.0,57.0,95.0,2700,1.40625
3181,2.0,,,,,50.0,,,,,0,note_on,,95.0,50.0,95.0,2700,1.40625
3182,2.0,,,,,57.0,,,,,480,note_off,,95.0,57.0,95.0,3180,1.65625
3183,2.0,,,,,50.0,,,,,0,note_off,,95.0,50.0,95.0,3180,1.65625
3184,2.0,,,,,39.0,,,,,0,note_on,,95.0,39.0,95.0,3180,1.65625
3185,2.0,,,,,39.0,,,,,240,note_off,,95.0,39.0,95.0,3420,1.78125
3186,2.0,,,,,39.0,,,,,0,note_on,,95.0,39.0,95.0,3420,1.78125
3187,2.0,,,,,39.0,,,,,240,note_off,,95.0,39.0,95.0,3660,1.90625
3188,2.0,,,,,39.0,,,,,240,note_on,,95.0,39.0,95.0,3900,2.03125
3189,3.0,,,,,49.0,,,,,180,note_on,,95.0,49.0,95.0,840,0.4375
3190,2.0,,,,,39.0,,,,,60,note_off,,95.0,39.0,95.0,3960,2.0625
3191,3.0,,,,,49.0,,,,,0,note_off,,95.0,49.0,95.0,840,0.4375
3192,3.0,,,,,51.0,,,,,0,note_on,,95.0,51.0,95.0,840,0.4375
3193,2.0,,,,,39.0,,,,,0,note_on,,95.0,39.0,95.0,3960,2.0625
3194,3.0,,,,,51.0,,,,,480,note_off,,95.0,51.0,95.0,1320,0.6875
3195,2.0,,,,,39.0,,,,,0,note_off,,95.0,39.0,95.0,3960,2.0625
3196,2.0,,,,,39.0,,,,,0,note_on,,95.0,39.0,95.0,3960,2.0625
3197,2.0,,,,,39.0,,,,,240,note_off,,95.0,39.0,95.0,4200,2.1875
3198,2.0,,,,,39.0,,,,,0,note_on,,95.0,39.0,95.0,4200,2.1875
3199,2.0,,,,,39.0,,,,,240,note_off,,95.0,39.0,95.0,4440,2.3125
3200,2.0,,,,,39.0,,,,,240,note_on,,95.0,39.0,95.0,4680,2.4375
3201,2.0,,,,,39.0,,,,,240,note_off,,95.0,39.0,95.0,4920,2.5625
3202,2.0,,,,,61.0,,,,,0,note_on,,95.0,61.0,95.0,4920,2.5625
3203,2.0,,,,,54.0,,,,,0,note_on,,95.0,54.0,95.0,4920,2.5625
3204,2.0,,,,,61.0,,,,,480,note_off,,95.0,61.0,95.0,5400,2.8125
3205,2.0,,,,,54.0,,,,,0,note_off,,95.0,54.0,95.0,5400,2.8125
3206,2.0,,,,,39.0,,,,,0,note_on,,95.0,39.0,95.0,5400,2.8125
3207,2.0,,,,,39.0,,,,,240,note_off,,95.0,39.0,95.0,5640,2.9375
3208,2.0,,,,,39.0,,,,,0,note_on,,95.0,39.0,95.0,5640,2.9375
3209,2.0,,,,,39.0,,,,,240,note_off,,95.0,39.0,95.0,5880,3.0625
3210,2.0,,,,,60.0,,,,,0,note_on,,95.0,60.0,95.0,5880,3.0625
3211,2.0,,,,,53.0,,,,,0,note_on,,95.0,53.0,95.0,5880,3.0625
3212,2.0,,,,,60.0,,,,,480,note_off,,95.0,60.0,95.0,6360,3.3125
3213,2.0,,,,,53.0,,,,,0,note_off,,95.0,53.0,95.0,6360,3.3125
3214,2.0,,,,,39.0,,,,,0,note_on,,95.0,39.0,95.0,6360,3.3125
3215,2.0,,,,,39.0,,,,,240,note_off,,95.0,39.0,95.0,6600,3.4375
3216,2.0,,,,,39.0,,,,,0,note_on,,95.0,39.0,95.0,6600,3.4375
3217,2.0,,,,,39.0,,,,,240,note_off,,95.0,39.0,95.0,6840,3.5625
3218,2.0,,,,,39.0,,,,,240,note_on,,95.0,39.0,95.0,7080,3.6875
3219,3.0,,,,,49.0,,,,,180,note_on,,95.0,49.0,95.0,1500,0.78125
3220,2.0,,,,,39.0,,,,,60,note_off,,95.0,39.0,95.0,7140,3.71875
3221,3.0,,,,,49.0,,,,,0,note_off,,95.0,49.0,95.0,1500,0.78125
3222,3.0,,,,,51.0,,,,,0,note_on,,95.0,51.0,95.0,1500,0.78125
3223,2.0,,,,,39.0,,,,,0,note_on,,95.0,39.0,95.0,7140,3.71875
3224,3.0,,,,,51.0,,,,,480,note_off,,95.0,51.0,95.0,1980,1.03125
3225,2.0,,,,,39.0,,,,,0,note_off,,95.0,39.0,95.0,7140,3.71875
3226,2.0,,,,,39.0,,,,,0,note_on,,95.0,39.0,95.0,7140,3.71875
3227,2.0,,,,,39.0,,,,,240,note_off,,95.0,39.0,95.0,7380,3.84375
3228,2.0,,,,,39.0,,,,,0,note_on,,95.0,39.0,95.0,7380,3.84375
3229,2.0,,,,,39.0,,,,,240,note_off,,95.0,39.0,95.0,7620,3.96875
3230,2.0,,,,,39.0,,,,,240,note_on,,95.0,39.0,95.0,7860,4.09375
3231,2.0,,,,,39.0,,,,,240,note_off,,95.0,39.0,95.0,8100,4.21875
3232,2.0,,,,,59.0,,,,,0,note_on,,95.0,59.0,95.0,8100,4.21875
3233,2.0,,,,,52.0,,,,,0,note_on,,95.0,52.0,95.0,8100,4.21875
3234,2.0,,,,,59.0,,,,,480,note_off,,95.0,59.0,95.0,8580,4.46875
3235,2.0,,,,,52.0,,,,,0,note_off,,95.0,52.0,95.0,8580,4.46875
3236,2.0,,,,,39.0,,,,,0,note_on,,95.0,39.0,95.0,8580,4.46875
3237,2.0,,,,,39.0,,,,,240,note_off,,95.0,39.0,95.0,8820,4.59375
3238,2.0,,,,,39.0,,,,,0,note_on,,95.0,39.0,95.0,8820,4.59375
3239,2.0,,,,,39.0,,,,,240,note_off,,95.0,39.0,95.0,9060,4.71875
3240,2.0,,,,,57.0,,,,,0,note_on,,95.0,57.0,95.0,9060,4.71875
3241,2.0,,,,,50.0,,,,,0,note_on,,95.0,50.0,95.0,9060,4.71875
3242,2.0,,,,,57.0,,,,,480,note_off,,95.0,57.0,95.0,9540,4.96875
3243,2.0,,,,,50.0,,,,,0,note_off,,95.0,50.0,95.0,9540,4.96875
3244,2.0,,,,,39.0,,,,,0,note_on,,95.0,39.0,95.0,9540,4.96875
3245,2.0,,,,,39.0,,,,,240,note_off,,95.0,39.0,95.0,9780,5.09375
3246,2.0,,,,,39.0,,,,,0,note_on,,95.0,39.0,95.0,9780,5.09375
3247,2.0,,,,,39.0,,,,,240,note_off,,95.0,39.0,95.0,10020,5.21875
3248,2.0,,,,,39.0,,,,,240,note_on,,95.0,39.0,95.0,10260,5.34375
3249,3.0,,,,,49.0,,,,,180,note_on,,95.0,49.0,95.0,2160,1.125
3250,2.0,,,,,39.0,,,,,60,note_off,,95.0,39.0,95.0,10320,5.375
3251,3.0,,,,,49.0,,,,,0,note_off,,95.0,49.0,95.0,2160,1.125
3252,3.0,,,,,51.0,,,,,0,note_on,,95.0,51.0,95.0,2160,1.125
3253,2.0,,,,,39.0,,,,,0,note_on,,95.0,39.0,95.0,10320,5.375
3254,3.0,,,,,51.0,,,,,480,note_off,,95.0,51.0,95.0,2640,1.375
3255,2.0,,,,,39.0,,,,,0,note_off,,95.0,39.0,95.0,10320,5.375
3256,2.0,,,,,39.0,,,,,0,note_on,,95.0,39.0,95.0,10320,5.375
3257,2.0,,,,,39.0,,,,,240,note_off,,95.0,39.0,95.0,10560,5.5
3258,2.0,,,,,39.0,,,,,0,note_on,,95.0,39.0,95.0,10560,5.5
3259,2.0,,,,,39.0,,,,,240,note_off,,95.0,39.0,95.0,10800,5.625
3260,2.0,,,,,39.0,,,,,240,note_on,,95.0,39.0,95.0,11040,5.75
3261,2.0,,,,,39.0,,,,,240,note_off,,95.0,39.0,95.0,11280,5.875
3262,2.0,,,,,49.0,,,,,0,note_on,,95.0,49.0,95.0,11280,5.875
3263,2.0,,,,,42.0,,,,,0,note_on,,95.0,42.0,95.0,11280,5.875
3264,2.0,,,,,49.0,,,,,480,note_off,,95.0,49.0,95.0,11760,6.125
3265,2.0,,,,,42.0,,,,,0,note_off,,95.0,42.0,95.0,11760,6.125
3266,2.0,,,,,39.0,,,,,0,note_on,,95.0,39.0,95.0,11760,6.125
3267,2.0,,,,,39.0,,,,,240,note_off,,95.0,39.0,95.0,12000,6.25
3268,2.0,,,,,39.0,,,,,0,note_on,,95.0,39.0,95.0,12000,6.25
3269,2.0,,,,,39.0,,,,,240,note_off,,95.0,39.0,95.0,12240,6.375
3270,2.0,,,,,48.0,,,,,0,note_on,,95.0,48.0,95.0,12240,6.375
3271,2.0,,,,,41.0,,,,,0,note_on,,95.0,41.0,95.0,12240,6.375
3272,2.0,,,,,48.0,,,,,480,note_off,,95.0,48.0,95.0,12720,6.625
3273,2.0,,,,,41.0,,,,,0,note_off,,95.0,41.0,95.0,12720,6.625
3274,2.0,,,,,39.0,,,,,0,note_on,,95.0,39.0,95.0,12720,6.625
3275,2.0,,,,,39.0,,,,,240,note_off,,95.0,39.0,95.0,12960,6.75
3276,2.0,,,,,39.0,,,,,0,note_on,,95.0,39.0,95.0,12960,6.75
3277,2.0,,,,,39.0,,,,,240,note_off,,95.0,39.0,95.0,13200,6.875
3278,2.0,,,,,39.0,,,,,240,note_on,,95.0,39.0,95.0,13440,7.0
3279,3.0,,,,,49.0,,,,,180,note_on,,95.0,49.0,95.0,2820,1.46875
3280,2.0,,,,,39.0,,,,,60,note_off,,95.0,39.0,95.0,13500,7.03125
3281,3.0,,,,,49.0,,,,,0,note_off,,95.0,49.0,95.0,2820,1.46875
3282,3.0,,,,,51.0,,,,,0,note_on,,95.0,51.0,95.0,2820,1.46875
3283,2.0,,,,,39.0,,,,,0,note_on,,95.0,39.0,95.0,13500,7.03125
3284,3.0,,,,,51.0,,,,,480,note_off,,95.0,51.0,95.0,3300,1.71875
3285,2.0,,,,,39.0,,,,,0,note_off,,95.0,39.0,95.0,13500,7.03125
3286,2.0,,,,,39.0,,,,,0,note_on,,95.0,39.0,95.0,13500,7.03125
3287,2.0,,,,,39.0,,,,,240,note_off,,95.0,39.0,95.0,13740,7.15625
3288,2.0,,,,,39.0,,,,,0,note_on,,95.0,39.0,95.0,13740,7.15625
3289,2.0,,,,,39.0,,,,,240,note_off,,95.0,39.0,95.0,13980,7.28125
3290,2.0,,,,,39.0,,,,,240,note_on,,95.0,39.0,95.0,14220,7.40625
3291,2.0,,,,,39.0,,,,,240,note_off,,95.0,39.0,95.0,14460,7.53125
3292,2.0,,,,,59.0,,,,,0,note_on,,95.0,59.0,95.0,14460,7.53125
3293,2.0,,,,,52.0,,,,,0,note_on,,95.0,52.0,95.0,14460,7.53125
3294,2.0,,,,,59.0,,,,,480,note_off,,95.0,59.0,95.0,14940,7.78125
3295,2.0,,,,,52.0,,,,,0,note_off,,95.0,52.0,95.0,14940,7.78125
3296,2.0,,,,,39.0,,,,,0,note_on,,95.0,39.0,95.0,14940,7.78125
3297,2.0,,,,,39.0,,,,,240,note_off,,95.0,39.0,95.0,15180,7.90625
3298,2.0,,,,,39.0,,,,,0,note_on,,95.0,39.0,95.0,15180,7.90625
3299,2.0,,,,,39.0,,,,,240,note_off,,95.0,39.0,95.0,15420,8.03125
3300,2.0,,,,,57.0,,,,,0,note_on,,95.0,57.0,95.0,15420,8.03125
3301,2.0,,,,,50.0,,,,,0,note_on,,95.0,50.0,95.0,15420,8.03125
3302,2.0,,,,,57.0,,,,,480,note_off,,95.0,57.0,95.0,15900,8.28125
3303,2.0,,,,,50.0,,,,,0,note_off,,95.0,50.0,95.0,15900,8.28125
3304,2.0,,,,,39.0,,,,,0,note_on,,95.0,39.0,95.0,15900,8.28125
3305,2.0,,,,,39.0,,,,,240,note_off,,95.0,39.0,95.0,16140,8.40625
3306,2.0,,,,,39.0,,,,,0,note_on,,95.0,39.0,95.0,16140,8.40625
3307,2.0,,,,,39.0,,,,,240,note_off,,95.0,39.0,95.0,16380,8.53125
3308,2.0,,,,,39.0,,,,,240,note_on,,95.0,39.0,95.0,16620,8.65625
3309,3.0,,,,,49.0,,,,,180,note_on,,95.0,49.0,95.0,3480,1.8125
3310,2.0,,,,,39.0,,,,,60,note_off,,95.0,39.0,95.0,16680,8.6875
3311,3.0,,,,,49.0,,,,,0,note_off,,95.0,49.0,95.0,3480,1.8125
3312,3.0,,,,,51.0,,,,,0,note_on,,95.0,51.0,95.0,3480,1.8125
3313,2.0,,,,,39.0,,,,,0,note_on,,95.0,39.0,95.0,16680,8.6875
3314,3.0,,,,,51.0,,,,,480,note_off,,95.0,51.0,95.0,3960,2.0625
3315,2.0,,,,,39.0,,,,,0,note_off,,95.0,39.0,95.0,16680,8.6875
3316,2.0,,,,,39.0,,,,,0,note_on,,95.0,39.0,95.0,16680,8.6875
3317,2.0,,,,,39.0,,,,,240,note_off,,95.0,39.0,95.0,16920,8.8125
3318,2.0,,,,,39.0,,,,,0,note_on,,95.0,39.0,95.0,16920,8.8125
3319,2.0,,,,,39.0,,,,,240,note_off,,95.0,39.0,95.0,17160,8.9375
3320,2.0,,,,,39.0,,,,,240,note_on,,95.0,39.0,95.0,17400,9.0625
3321,2.0,,,,,39.0,,,,,240,note_off,,95.0,39.0,95.0,17640,9.1875
3322,2.0,,,,,61.0,,,,,0,note_on,,95.0,61.0,95.0,17640,9.1875
3323,2.0,,,,,54.0,,,,,0,note_on,,95.0,54.0,95.0,17640,9.1875
3324,2.0,,,,,61.0,,,,,480,note_off,,95.0,61.0,95.0,18120,9.4375
3325,2.0,,,,,54.0,,,,,0,note_off,,95.0,54.0,95.0,18120,9.4375
3326,2.0,,,,,39.0,,,,,0,note_on,,95.0,39.0,95.0,18120,9.4375
3327,2.0,,,,,39.0,,,,,240,note_off,,95.0,39.0,95.0,18360,9.5625
3328,2.0,,,,,39.0,,,,,0,note_on,,95.0,39.0,95.0,18360,9.5625
3329,2.0,,,,,39.0,,,,,240,note_off,,95.0,39.0,95.0,18600,9.6875
3330,2.0,,,,,60.0,,,,,0,note_on,,95.0,60.0,95.0,18600,9.6875
3331,2.0,,,,,53.0,,,,,0,note_on,,95.0,53.0,95.0,18600,9.6875
3332,2.0,,,,,60.0,,,,,480,note_off,,95.0,60.0,95.0,19080,9.9375
3333,2.0,,,,,53.0,,,,,0,note_off,,95.0,53.0,95.0,19080,9.9375
3334,2.0,,,,,39.0,,,,,0,note_on,,95.0,39.0,95.0,19080,9.9375
3335,2.0,,,,,39.0,,,,,240,note_off,,95.0,39.0,95.0,19320,10.0625
3336,2.0,,,,,39.0,,,,,0,note_on,,95.0,39.0,95.0,19320,10.0625
3337,2.0,,,,,39.0,,,,,240,note_off,,95.0,39.0,95.0,19560,10.1875
3338,2.0,,,,,39.0,,,,,240,note_on,,95.0,39.0,95.0,19800,10.3125
3339,3.0,,,,,49.0,,,,,180,note_on,,95.0,49.0,95.0,4140,2.15625
3340,2.0,,,,,39.0,,,,,60,note_off,,95.0,39.0,95.0,19860,10.34375
3341,3.0,,,,,49.0,,,,,0,note_off,,95.0,49.0,95.0,4140,2.15625
3342,3.0,,,,,51.0,,,,,0,note_on,,95.0,51.0,95.0,4140,2.15625
3343,2.0,,,,,39.0,,,,,0,note_on,,95.0,39.0,95.0,19860,10.34375
3344,3.0,,,,,51.0,,,,,480,note_off,,95.0,51.0,95.0,4620,2.40625
3345,2.0,,,,,39.0,,,,,0,note_off,,95.0,39.0,95.0,19860,10.34375
3346,2.0,,,,,39.0,,,,,0,note_on,,95.0,39.0,95.0,19860,10.34375
3347,2.0,,,,,39.0,,,,,240,note_off,,95.0,39.0,95.0,20100,10.46875
3348,2.0,,,,,39.0,,,,,0,note_on,,95.0,39.0,95.0,20100,10.46875
3349,2.0,,,,,39.0,,,,,240,note_off,,95.0,39.0,95.0,20340,10.59375
3350,2.0,,,,,39.0,,,,,240,note_on,,95.0,39.0,95.0,20580,10.71875
3351,2.0,,,,,39.0,,,,,240,note_off,,95.0,39.0,95.0,20820,10.84375
3352,2.0,,,,,59.0,,,,,0,note_on,,95.0,59.0,95.0,20820,10.84375
3353,2.0,,,,,52.0,,,,,0,note_on,,95.0,52.0,95.0,20820,10.84375
3354,2.0,,,,,59.0,,,,,480,note_off,,95.0,59.0,95.0,21300,11.09375
3355,2.0,,,,,52.0,,,,,0,note_off,,95.0,52.0,95.0,21300,11.09375
3356,2.0,,,,,39.0,,,,,0,note_on,,95.0,39.0,95.0,21300,11.09375
3357,2.0,,,,,39.0,,,,,240,note_off,,95.0,39.0,95.0,21540,11.21875
3358,2.0,,,,,39.0,,,,,0,note_on,,95.0,39.0,95.0,21540,11.21875
3359,2.0,,,,,39.0,,,,,240,note_off,,95.0,39.0,95.0,21780,11.34375
3360,2.0,,,,,57.0,,,,,0,note_on,,95.0,57.0,95.0,21780,11.34375
3361,2.0,,,,,50.0,,,,,0,note_on,,95.0,50.0,95.0,21780,11.34375
3362,2.0,,,,,57.0,,,,,480,note_off,,95.0,57.0,95.0,22260,11.59375
3363,2.0,,,,,50.0,,,,,0,note_off,,95.0,50.0,95.0,22260,11.59375
3364,2.0,,,,,39.0,,,,,0,note_on,,95.0,39.0,95.0,22260,11.59375
3365,2.0,,,,,39.0,,,,,240,note_off,,95.0,39.0,95.0,22500,11.71875
3366,2.0,,,,,39.0,,,,,0,note_on,,95.0,39.0,95.0,22500,11.71875
3367,2.0,,,,,39.0,,,,,240,note_off,,95.0,39.0,95.0,22740,11.84375
3368,2.0,,,,,39.0,,,,,240,note_on,,95.0,39.0,95.0,22980,11.96875
3369,3.0,,,,,49.0,,,,,180,note_on,,95.0,49.0,95.0,4800,2.5
3370,2.0,,,,,39.0,,,,,60,note_off,,95.0,39.0,95.0,23040,12.0
3371,3.0,,,,,49.0,,,,,0,note_off,,95.0,49.0,95.0,4800,2.5
3372,3.0,,,,,51.0,,,,,0,note_on,,95.0,51.0,95.0,4800,2.5
3373,2.0,,,,,39.0,,,,,0,note_on,,95.0,39.0,95.0,23040,12.0
3374,3.0,,,,,51.0,,,,,480,note_off,,95.0,51.0,95.0,5280,2.75
3375,2.0,,,,,39.0,,,,,0,note_off,,95.0,39.0,95.0,23040,12.0
3376,2.0,,,,,39.0,,,,,0,note_on,,95.0,39.0,95.0,23040,12.0
3377,2.0,,,,,39.0,,,,,240,note_off,,95.0,39.0,95.0,23280,12.125
3378,2.0,,,,,39.0,,,,,0,note_on,,95.0,39.0,95.0,23280,12.125
3379,2.0,,,,,39.0,,,,,240,note_off,,95.0,39.0,95.0,23520,12.25
3380,2.0,,,,,39.0,,,,,240,note_on,,95.0,39.0,95.0,23760,12.375
3381,2.0,,,,,39.0,,,,,240,note_off,,95.0,39.0,95.0,24000,12.5
3382,2.0,,,,,49.0,,,,,0,note_on,,95.0,49.0,95.0,24000,12.5
3383,2.0,,,,,42.0,,,,,0,note_on,,95.0,42.0,95.0,24000,12.5
3384,2.0,,,,,49.0,,,,,480,note_off,,95.0,49.0,95.0,24480,12.75
3385,2.0,,,,,42.0,,,,,0,note_off,,95.0,42.0,95.0,24480,12.75
3386,2.0,,,,,39.0,,,,,0,note_on,,95.0,39.0,95.0,24480,12.75
3387,2.0,,,,,39.0,,,,,240,note_off,,95.0,39.0,95.0,24720,12.875
3388,2.0,,,,,39.0,,,,,0,note_on,,95.0,39.0,95.0,24720,12.875
3389,2.0,,,,,39.0,,,,,240,note_off,,95.0,39.0,95.0,24960,13.0
3390,2.0,,,,,48.0,,,,,0,note_on,,95.0,48.0,95.0,24960,13.0
3391,2.0,,,,,41.0,,,,,0,note_on,,95.0,41.0,95.0,24960,13.0
3392,2.0,,,,,48.0,,,,,480,note_off,,95.0,48.0,95.0,25440,13.25
3393,2.0,,,,,41.0,,,,,0,note_off,,95.0,41.0,95.0,25440,13.25
3394,2.0,,,,,39.0,,,,,0,note_on,,95.0,39.0,95.0,25440,13.25
3395,2.0,,,,,39.0,,,,,240,note_off,,95.0,39.0,95.0,25680,13.375
3396,2.0,,,,,39.0,,,,,0,note_on,,95.0,39.0,95.0,25680,13.375
3397,2.0,,,,,39.0,,,,,240,note_off,,95.0,39.0,95.0,25920,13.5
3398,2.0,,,,,39.0,,,,,240,note_on,,95.0,39.0,95.0,26160,13.625
3399,3.0,,,,,49.0,,,,,180,note_on,,95.0,49.0,95.0,5460,2.84375
3400,2.0,,,,,39.0,,,,,60,note_off,,95.0,39.0,95.0,26220,13.65625
3401,3.0,,,,,49.0,,,,,0,note_off,,95.0,49.0,95.0,5460,2.84375
3402,3.0,,,,,51.0,,,,,0,note_on,,95.0,51.0,95.0,5460,2.84375
3403,2.0,,,,,39.0,,,,,0,note_on,,95.0,39.0,95.0,26220,13.65625
3404,3.0,,,,,51.0,,,,,480,note_off,,95.0,51.0,95.0,5940,3.09375
3405,2.0,,,,,39.0,,,,,0,note_off,,95.0,39.0,95.0,26220,13.65625
3406,2.0,,,,,39.0,,,,,0,note_on,,95.0,39.0,95.0,26220,13.65625
3407,2.0,,,,,39.0,,,,,240,note_off,,95.0,39.0,95.0,26460,13.78125
3408,2.0,,,,,39.0,,,,,0,note_on,,95.0,39.0,95.0,26460,13.78125
3409,2.0,,,,,39.0,,,,,240,note_off,,95.0,39.0,95.0,26700,13.90625
3410,2.0,,,,,39.0,,,,,240,note_on,,95.0,39.0,95.0,26940,14.03125
3411,2.0,,,,,39.0,,,,,240,note_off,,95.0,39.0,95.0,27180,14.15625
3412,2.0,,,,,59.0,,,,,0,note_on,,95.0,59.0,95.0,27180,14.15625
3413,2.0,,,,,52.0,,,,,0,note_on,,95.0,52.0,95.0,27180,14.15625
3414,2.0,,,,,59.0,,,,,480,note_off,,95.0,59.0,95.0,27660,14.40625
3415,2.0,,,,,52.0,,,,,0,note_off,,95.0,52.0,95.0,27660,14.40625
3416,2.0,,,,,39.0,,,,,0,note_on,,95.0,39.0,95.0,27660,14.40625
3417,2.0,,,,,39.0,,,,,240,note_off,,95.0,39.0,95.0,27900,14.53125
3418,2.0,,,,,39.0,,,,,0,note_on,,95.0,39.0,95.0,27900,14.53125
3419,2.0,,,,,39.0,,,,,240,note_off,,95.0,39.0,95.0,28140,14.65625
3420,2.0,,,,,57.0,,,,,0,note_on,,95.0,57.0,95.0,28140,14.65625
3421,2.0,,,,,50.0,,,,,0,note_on,,95.0,50.0,95.0,28140,14.65625
3422,2.0,,,,,57.0,,,,,480,note_off,,95.0,57.0,95.0,28620,14.90625
3423,2.0,,,,,50.0,,,,,0,note_off,,95.0,50.0,95.0,28620,14.90625
3424,2.0,,,,,39.0,,,,,0,note_on,,95.0,39.0,95.0,28620,14.90625
3425,2.0,,,,,39.0,,,,,240,note_off,,95.0,39.0,95.0,28860,15.03125
3426,2.0,,,,,39.0,,,,,0,note_on,,95.0,39.0,95.0,28860,15.03125
3427,2.0,,,,,39.0,,,,,240,note_off,,95.0,39.0,95.0,29100,15.15625
3428,2.0,,,,,39.0,,,,,240,note_on,,95.0,39.0,95.0,29340,15.28125
3429,3.0,,,,,49.0,,,,,180,note_on,,95.0,49.0,95.0,6120,3.1875
3430,2.0,,,,,39.0,,,,,60,note_off,,95.0,39.0,95.0,29400,15.3125
3431,3.0,,,,,49.0,,,,,0,note_off,,95.0,49.0,95.0,6120,3.1875
3432,3.0,,,,,51.0,,,,,0,note_on,,95.0,51.0,95.0,6120,3.1875
3433,2.0,,,,,39.0,,,,,0,note_on,,95.0,39.0,95.0,29400,15.3125
3434,3.0,,,,,51.0,,,,,480,note_off,,95.0,51.0,95.0,6600,3.4375
3435,2.0,,,,,39.0,,,,,0,note_off,,95.0,39.0,95.0,29400,15.3125
3436,2.0,,,,,39.0,,,,,0,note_on,,95.0,39.0,95.0,29400,15.3125
3437,2.0,,,,,39.0,,,,,240,note_off,,95.0,39.0,95.0,29640,15.4375
3438,2.0,,,,,39.0,,,,,0,note_on,,95.0,39.0,95.0,29640,15.4375
3439,2.0,,,,,39.0,,,,,240,note_off,,95.0,39.0,95.0,29880,15.5625
3440,2.0,,,,,39.0,,,,,240,note_on,,95.0,39.0,95.0,30120,15.6875
3441,2.0,,,,,39.0,,,,,240,note_off,,95.0,39.0,95.0,30360,15.8125
3442,2.0,,,,,61.0,,,,,0,note_on,,95.0,61.0,95.0,30360,15.8125
3443,2.0,,,,,54.0,,,,,0,note_on,,95.0,54.0,95.0,30360,15.8125
3444,2.0,,,,,61.0,,,,,480,note_off,,95.0,61.0,95.0,30840,16.0625
3445,2.0,,,,,54.0,,,,,0,note_off,,95.0,54.0,95.0,30840,16.0625
3446,2.0,,,,,39.0,,,,,0,note_on,,95.0,39.0,95.0,30840,16.0625
3447,2.0,,,,,39.0,,,,,240,note_off,,95.0,39.0,95.0,31080,16.1875
3448,2.0,,,,,39.0,,,,,0,note_on,,95.0,39.0,95.0,31080,16.1875
3449,2.0,,,,,39.0,,,,,240,note_off,,95.0,39.0,95.0,31320,16.3125
3450,2.0,,,,,60.0,,,,,0,note_on,,95.0,60.0,95.0,31320,16.3125
3451,2.0,,,,,53.0,,,,,0,note_on,,95.0,53.0,95.0,31320,16.3125
3452,2.0,,,,,60.0,,,,,480,note_off,,95.0,60.0,95.0,31800,16.5625
3453,2.0,,,,,53.0,,,,,0,note_off,,95.0,53.0,95.0,31800,16.5625
3454,2.0,,,,,39.0,,,,,0,note_on,,95.0,39.0,95.0,31800,16.5625
3455,2.0,,,,,39.0,,,,,240,note_off,,95.0,39.0,95.0,32040,16.6875
3456,2.0,,,,,39.0,,,,,0,note_on,,95.0,39.0,95.0,32040,16.6875
3457,2.0,,,,,39.0,,,,,240,note_off,,95.0,39.0,95.0,32280,16.8125
3458,2.0,,,,,39.0,,,,,240,note_on,,95.0,39.0,95.0,32520,16.9375
3459,3.0,,,,,49.0,,,,,180,note_on,,95.0,49.0,95.0,6780,3.53125
3460,2.0,,,,,39.0,,,,,60,note_off,,95.0,39.0,95.0,32580,16.96875
3461,3.0,,,,,49.0,,,,,0,note_off,,95.0,49.0,95.0,6780,3.53125
3462,3.0,,,,,51.0,,,,,0,note_on,,95.0,51.0,95.0,6780,3.53125
3463,2.0,,,,,39.0,,,,,0,note_on,,95.0,39.0,95.0,32580,16.96875
3464,3.0,,,,,51.0,,,,,480,note_off,,95.0,51.0,95.0,7260,3.78125
3465,2.0,,,,,39.0,,,,,0,note_off,,95.0,39.0,95.0,32580,16.96875
3466,2.0,,,,,39.0,,,,,0,note_on,,95.0,39.0,95.0,32580,16.96875
3467,2.0,,,,,39.0,,,,,240,note_off,,95.0,39.0,95.0,32820,17.09375
3468,2.0,,,,,39.0,,,,,0,note_on,,95.0,39.0,95.0,32820,17.09375
3469,2.0,,,,,39.0,,,,,240,note_off,,95.0,39.0,95.0,33060,17.21875
3470,2.0,,,,,39.0,,,,,240,note_on,,95.0,39.0,95.0,33300,17.34375
3471,2.0,,,,,39.0,,,,,240,note_off,,95.0,39.0,95.0,33540,17.46875
3472,2.0,,,,,59.0,,,,,0,note_on,,95.0,59.0,95.0,33540,17.46875
3473,2.0,,,,,52.0,,,,,0,note_on,,95.0,52.0,95.0,33540,17.46875
3474,2.0,,,,,59.0,,,,,480,note_off,,95.0,59.0,95.0,34020,17.71875
3475,2.0,,,,,52.0,,,,,0,note_off,,95.0,52.0,95.0,34020,17.71875
3476,2.0,,,,,39.0,,,,,0,note_on,,95.0,39.0,95.0,34020,17.71875
3477,2.0,,,,,39.0,,,,,240,note_off,,95.0,39.0,95.0,34260,17.84375
3478,2.0,,,,,39.0,,,,,0,note_on,,95.0,39.0,95.0,34260,17.84375
3479,2.0,,,,,39.0,,,,,240,note_off,,95.0,39.0,95.0,34500,17.96875
3480,2.0,,,,,57.0,,,,,0,note_on,,95.0,57.0,95.0,34500,17.96875
3481,2.0,,,,,50.0,,,,,0,note_on,,95.0,50.0,95.0,34500,17.96875
3482,2.0,,,,,57.0,,,,,480,note_off,,95.0,57.0,95.0,34980,18.21875
3483,2.0,,,,,50.0,,,,,0,note_off,,95.0,50.0,95.0,34980,18.21875
3484,2.0,,,,,39.0,,,,,0,note_on,,95.0,39.0,95.0,34980,18.21875
3485,2.0,,,,,39.0,,,,,240,note_off,,95.0,39.0,95.0,35220,18.34375
3486,2.0,,,,,39.0,,,,,0,note_on,,95.0,39.0,95.0,35220,18.34375
3487,2.0,,,,,39.0,,,,,240,note_off,,95.0,39.0,95.0,35460,18.46875
3488,2.0,,,,,39.0,,,,,240,note_on,,95.0,39.0,95.0,35700,18.59375
3489,3.0,,,,,49.0,,,,,180,note_on,,95.0,49.0,95.0,7440,3.875
3490,2.0,,,,,39.0,,,,,60,note_off,,95.0,39.0,95.0,35760,18.625
3491,3.0,,,,,49.0,,,,,0,note_off,,95.0,49.0,95.0,7440,3.875
3492,3.0,,,,,51.0,,,,,0,note_on,,95.0,51.0,95.0,7440,3.875
3493,2.0,,,,,39.0,,,,,0,note_on,,95.0,39.0,95.0,35760,18.625
3494,3.0,,,,,51.0,,,,,480,note_off,,95.0,51.0,95.0,7920,4.125
3495,2.0,,,,,39.0,,,,,0,note_off,,95.0,39.0,95.0,35760,18.625
3496,2.0,,,,,39.0,,,,,0,note_on,,95.0,39.0,95.0,35760,18.625
3497,2.0,,,,,39.0,,,,,240,note_off,,95.0,39.0,95.0,36000,18.75
3498,2.0,,,,,39.0,,,,,0,note_on,,95.0,39.0,95.0,36000,18.75
3499,2.0,,,,,39.0,,,,,240,note_off,,95.0,39.0,95.0,36240,18.875
3500,2.0,,,,,39.0,,,,,240,note_on,,95.0,39.0,95.0,36480,19.0
3501,2.0,,,,,39.0,,,,,240,note_off,,95.0,39.0,95.0,36720,19.125
3502,2.0,,,,,49.0,,,,,0,note_on,,95.0,49.0,95.0,36720,19.125
3503,2.0,,,,,42.0,,,,,0,note_on,,95.0,42.0,95.0,36720,19.125
3504,2.0,,,,,49.0,,,,,480,note_off,,95.0,49.0,95.0,37200,19.375
3505,2.0,,,,,42.0,,,,,0,note_off,,95.0,42.0,95.0,37200,19.375
3506,2.0,,,,,39.0,,,,,0,note_on,,95.0,39.0,95.0,37200,19.375
3507,2.0,,,,,39.0,,,,,240,note_off,,95.0,39.0,95.0,37440,19.5
3508,2.0,,,,,39.0,,,,,0,note_on,,95.0,39.0,95.0,37440,19.5
3509,2.0,,,,,39.0,,,,,240,note_off,,95.0,39.0,95.0,37680,19.625
3510,2.0,,,,,48.0,,,,,0,note_on,,95.0,48.0,95.0,37680,19.625
3511,2.0,,,,,41.0,,,,,0,note_on,,95.0,41.0,95.0,37680,19.625
3512,2.0,,,,,48.0,,,,,480,note_off,,95.0,48.0,95.0,38160,19.875
3513,2.0,,,,,41.0,,,,,0,note_off,,95.0,41.0,95.0,38160,19.875
3514,2.0,,,,,39.0,,,,,0,note_on,,95.0,39.0,95.0,38160,19.875
3515,2.0,,,,,39.0,,,,,240,note_off,,95.0,39.0,95.0,38400,20.0
3516,2.0,,,,,39.0,,,,,0,note_on,,95.0,39.0,95.0,38400,20.0
3517,2.0,,,,,39.0,,,,,240,note_off,,95.0,39.0,95.0,38640,20.125
3518,2.0,,,,,39.0,,,,,240,note_on,,95.0,39.0,95.0,38880,20.25
3519,3.0,,,,,49.0,,,,,180,note_on,,95.0,49.0,95.0,8100,4.21875
3520,2.0,,,,,39.0,,,,,60,note_off,,95.0,39.0,95.0,38940,20.28125
3521,3.0,,,,,49.0,,,,,0,note_off,,95.0,49.0,95.0,8100,4.21875
3522,3.0,,,,,51.0,,,,,0,note_on,,95.0,51.0,95.0,8100,4.21875
3523,2.0,,,,,39.0,,,,,0,note_on,,95.0,39.0,95.0,38940,20.28125
3524,3.0,,,,,51.0,,,,,480,note_off,,95.0,51.0,95.0,8580,4.46875
3525,2.0,,,,,39.0,,,,,0,note_off,,95.0,39.0,95.0,38940,20.28125
3526,2.0,,,,,39.0,,,,,0,note_on,,95.0,39.0,95.0,38940,20.28125
3527,2.0,,,,,39.0,,,,,240,note_off,,95.0,39.0,95.0,39180,20.40625
3528,2.0,,,,,39.0,,,,,0,note_on,,95.0,39.0,95.0,39180,20.40625
3529,2.0,,,,,39.0,,,,,240,note_off,,95.0,39.0,95.0,39420,20.53125
3530,2.0,,,,,39.0,,,,,240,note_on,,95.0,39.0,95.0,39660,20.65625
3531,2.0,,,,,39.0,,,,,240,note_off,,95.0,39.0,95.0,39900,20.78125
3532,2.0,,,,,59.0,,,,,0,note_on,,95.0,59.0,95.0,39900,20.78125
3533,2.0,,,,,52.0,,,,,0,note_on,,95.0,52.0,95.0,39900,20.78125
3534,2.0,,,,,59.0,,,,,480,note_off,,95.0,59.0,95.0,40380,21.03125
3535,2.0,,,,,52.0,,,,,0,note_off,,95.0,52.0,95.0,40380,21.03125
3536,2.0,,,,,39.0,,,,,0,note_on,,95.0,39.0,95.0,40380,21.03125
3537,2.0,,,,,39.0,,,,,240,note_off,,95.0,39.0,95.0,40620,21.15625
3538,2.0,,,,,39.0,,,,,0,note_on,,95.0,39.0,95.0,40620,21.15625
3539,2.0,,,,,39.0,,,,,240,note_off,,95.0,39.0,95.0,40860,21.28125
3540,2.0,,,,,57.0,,,,,0,note_on,,95.0,57.0,95.0,40860,21.28125
3541,2.0,,,,,50.0,,,,,0,note_on,,95.0,50.0,95.0,40860,21.28125
3542,2.0,,,,,57.0,,,,,480,note_off,,95.0,57.0,95.0,41340,21.53125
3543,2.0,,,,,50.0,,,,,0,note_off,,95.0,50.0,95.0,41340,21.53125
3544,2.0,,,,,39.0,,,,,0,note_on,,95.0,39.0,95.0,41340,21.53125
3545,2.0,,,,,39.0,,,,,240,note_off,,95.0,39.0,95.0,41580,21.65625
3546,2.0,,,,,39.0,,,,,0,note_on,,95.0,39.0,95.0,41580,21.65625
3547,2.0,,,,,39.0,,,,,240,note_off,,95.0,39.0,95.0,41820,21.78125
3548,2.0,,,,,39.0,,,,,240,note_on,,95.0,39.0,95.0,42060,21.90625
3549,3.0,,,,,49.0,,,,,180,note_on,,95.0,49.0,95.0,8760,4.5625
3550,2.0,,,,,39.0,,,,,60,note_off,,95.0,39.0,95.0,42120,21.9375
3551,3.0,,,,,49.0,,,,,0,note_off,,95.0,49.0,95.0,8760,4.5625
3552,3.0,,,,,51.0,,,,,0,note_on,,95.0,51.0,95.0,8760,4.5625
3553,2.0,,,,,39.0,,,,,0,note_on,,95.0,39.0,95.0,42120,21.9375
3554,3.0,,,,,51.0,,,,,480,note_off,,95.0,51.0,95.0,9240,4.8125
3555,2.0,,,,,39.0,,,,,0,note_off,,95.0,39.0,95.0,42120,21.9375
3556,2.0,,,,,39.0,,,,,0,note_on,,95.0,39.0,95.0,42120,21.9375
3557,2.0,,,,,39.0,,,,,240,note_off,,95.0,39.0,95.0,42360,22.0625
3558,2.0,,,,,39.0,,,,,0,note_on,,95.0,39.0,95.0,42360,22.0625
3559,2.0,,,,,39.0,,,,,240,note_off,,95.0,39.0,95.0,42600,22.1875
3560,2.0,,,,,39.0,,,,,240,note_on,,95.0,39.0,95.0,42840,22.3125
3561,2.0,,,,,39.0,,,,,240,note_off,,95.0,39.0,95.0,43080,22.4375
3562,2.0,,,,,61.0,,,,,0,note_on,,95.0,61.0,95.0,43080,22.4375
3563,2.0,,,,,54.0,,,,,0,note_on,,95.0,54.0,95.0,43080,22.4375
3564,2.0,,,,,61.0,,,,,480,note_off,,95.0,61.0,95.0,43560,22.6875
3565,2.0,,,,,54.0,,,,,0,note_off,,95.0,54.0,95.0,43560,22.6875
3566,2.0,,,,,39.0,,,,,0,note_on,,95.0,39.0,95.0,43560,22.6875
3567,2.0,,,,,39.0,,,,,240,note_off,,95.0,39.0,95.0,43800,22.8125
3568,2.0,,,,,39.0,,,,,0,note_on,,95.0,39.0,95.0,43800,22.8125
3569,2.0,,,,,39.0,,,,,240,note_off,,95.0,39.0,95.0,44040,22.9375
3570,2.0,,,,,60.0,,,,,0,note_on,,95.0,60.0,95.0,44040,22.9375
3571,2.0,,,,,53.0,,,,,0,note_on,,95.0,53.0,95.0,44040,22.9375
3572,2.0,,,,,60.0,,,,,480,note_off,,95.0,60.0,95.0,44520,23.1875
3573,2.0,,,,,53.0,,,,,0,note_off,,95.0,53.0,95.0,44520,23.1875
3574,2.0,,,,,39.0,,,,,0,note_on,,95.0,39.0,95.0,44520,23.1875
3575,2.0,,,,,39.0,,,,,240,note_off,,95.0,39.0,95.0,44760,23.3125
3576,2.0,,,,,39.0,,,,,0,note_on,,95.0,39.0,95.0,44760,23.3125
3577,2.0,,,,,39.0,,,,,240,note_off,,95.0,39.0,95.0,45000,23.4375
3578,2.0,,,,,39.0,,,,,240,note_on,,95.0,39.0,95.0,45240,23.5625
3579,3.0,,,,,49.0,,,,,180,note_on,,95.0,49.0,95.0,9420,4.90625
3580,2.0,,,,,39.0,,,,,60,note_off,,95.0,39.0,95.0,45300,23.59375
3581,3.0,,,,,49.0,,,,,0,note_off,,95.0,49.0,95.0,9420,4.90625
3582,3.0,,,,,51.0,,,,,0,note_on,,95.0,51.0,95.0,9420,4.90625
3583,2.0,,,,,39.0,,,,,0,note_on,,95.0,39.0,95.0,45300,23.59375
3584,3.0,,,,,51.0,,,,,480,note_off,,95.0,51.0,95.0,9900,5.15625
3585,2.0,,,,,39.0,,,,,0,note_off,,95.0,39.0,95.0,45300,23.59375
3586,2.0,,,,,39.0,,,,,0,note_on,,95.0,39.0,95.0,45300,23.59375
3587,2.0,,,,,39.0,,,,,240,note_off,,95.0,39.0,95.0,45540,23.71875
3588,2.0,,,,,39.0,,,,,0,note_on,,95.0,39.0,95.0,45540,23.71875
3589,2.0,,,,,39.0,,,,,240,note_off,,95.0,39.0,95.0,45780,23.84375
3590,2.0,,,,,39.0,,,,,240,note_on,,95.0,39.0,95.0,46020,23.96875
3591,2.0,,,,,39.0,,,,,240,note_off,,95.0,39.0,95.0,46260,24.09375
3592,2.0,,,,,59.0,,,,,0,note_on,,95.0,59.0,95.0,46260,24.09375
3593,2.0,,,,,52.0,,,,,0,note_on,,95.0,52.0,95.0,46260,24.09375
3594,2.0,,,,,59.0,,,,,480,note_off,,95.0,59.0,95.0,46740,24.34375
3595,2.0,,,,,52.0,,,,,0,note_off,,95.0,52.0,95.0,46740,24.34375
3596,2.0,,,,,39.0,,,,,0,note_on,,95.0,39.0,95.0,46740,24.34375
3597,2.0,,,,,39.0,,,,,240,note_off,,95.0,39.0,95.0,46980,24.46875
3598,2.0,,,,,39.0,,,,,0,note_on,,95.0,39.0,95.0,46980,24.46875
3599,2.0,,,,,39.0,,,,,240,note_off,,95.0,39.0,95.0,47220,24.59375
3600,2.0,,,,,57.0,,,,,0,note_on,,95.0,57.0,95.0,47220,24.59375
3601,2.0,,,,,50.0,,,,,0,note_on,,95.0,50.0,95.0,47220,24.59375
3602,2.0,,,,,57.0,,,,,480,note_off,,95.0,57.0,95.0,47700,24.84375
3603,2.0,,,,,50.0,,,,,0,note_off,,95.0,50.0,95.0,47700,24.84375
3604,2.0,,,,,39.0,,,,,0,note_on,,95.0,39.0,95.0,47700,24.84375
3605,2.0,,,,,39.0,,,,,240,note_off,,95.0,39.0,95.0,47940,24.96875
3606,2.0,,,,,39.0,,,,,0,note_on,,95.0,39.0,95.0,47940,24.96875
3607,2.0,,,,,39.0,,,,,240,note_off,,95.0,39.0,95.0,48180,25.09375
3608,2.0,,,,,39.0,,,,,240,note_on,,95.0,39.0,95.0,48420,25.21875
3609,3.0,,,,,49.0,,,,,180,note_on,,95.0,49.0,95.0,10080,5.25
3610,2.0,,,,,39.0,,,,,60,note_off,,95.0,39.0,95.0,48480,25.25
3611,3.0,,,,,49.0,,,,,0,note_off,,95.0,49.0,95.0,10080,5.25
3612,3.0,,,,,51.0,,,,,0,note_on,,95.0,51.0,95.0,10080,5.25
3613,2.0,,,,,39.0,,,,,0,note_on,,95.0,39.0,95.0,48480,25.25
3614,3.0,,,,,51.0,,,,,480,note_off,,95.0,51.0,95.0,10560,5.5
3615,2.0,,,,,39.0,,,,,0,note_off,,95.0,39.0,95.0,48480,25.25
3616,2.0,,,,,39.0,,,,,0,note_on,,95.0,39.0,95.0,48480,25.25
3617,2.0,,,,,39.0,,,,,240,note_off,,95.0,39.0,95.0,48720,25.375
3618,2.0,,,,,39.0,,,,,0,note_on,,95.0,39.0,95.0,48720,25.375
3619,2.0,,,,,39.0,,,,,240,note_off,,95.0,39.0,95.0,48960,25.5
3620,2.0,,,,,39.0,,,,,240,note_on,,95.0,39.0,95.0,49200,25.625
3621,2.0,,,,,39.0,,,,,240,note_off,,95.0,39.0,95.0,49440,25.75
3622,2.0,,,,,49.0,,,,,0,note_on,,95.0,49.0,95.0,49440,25.75
3623,2.0,,,,,42.0,,,,,0,note_on,,95.0,42.0,95.0,49440,25.75
3624,2.0,,,,,49.0,,,,,480,note_off,,95.0,49.0,95.0,49920,26.0
3625,2.0,,,,,42.0,,,,,0,note_off,,95.0,42.0,95.0,49920,26.0
3626,2.0,,,,,39.0,,,,,0,note_on,,95.0,39.0,95.0,49920,26.0
3627,2.0,,,,,39.0,,,,,240,note_off,,95.0,39.0,95.0,50160,26.125
3628,2.0,,,,,39.0,,,,,0,note_on,,95.0,39.0,95.0,50160,26.125
3629,2.0,,,,,39.0,,,,,240,note_off,,95.0,39.0,95.0,50400,26.25
3630,2.0,,,,,48.0,,,,,0,note_on,,95.0,48.0,95.0,50400,26.25
3631,2.0,,,,,41.0,,,,,0,note_on,,95.0,41.0,95.0,50400,26.25
3632,2.0,,,,,48.0,,,,,480,note_off,,95.0,48.0,95.0,50880,26.5
3633,2.0,,,,,41.0,,,,,0,note_off,,95.0,41.0,95.0,50880,26.5
3634,2.0,,,,,39.0,,,,,0,note_on,,95.0,39.0,95.0,50880,26.5
3635,2.0,,,,,39.0,,,,,240,note_off,,95.0,39.0,95.0,51120,26.625
3636,2.0,,,,,39.0,,,,,240,note_on,,95.0,39.0,95.0,51360,26.75
3637,2.0,,,,,39.0,,,,,240,note_off,,95.0,39.0,95.0,51600,26.875
3638,2.0,,,,,39.0,,,,,0,note_on,,95.0,39.0,95.0,51600,26.875
3639,3.0,,,,,49.0,,,,,180,note_on,,95.0,49.0,95.0,10740,5.59375
3640,2.0,,,,,39.0,,,,,60,note_off,,95.0,39.0,95.0,51660,26.90625
3641,3.0,,,,,49.0,,,,,0,note_off,,95.0,49.0,95.0,10740,5.59375
3642,3.0,,,,,51.0,,,,,0,note_on,,95.0,51.0,95.0,10740,5.59375
3643,2.0,,,,,39.0,,,,,0,note_on,,95.0,39.0,95.0,51660,26.90625
3644,3.0,,,,,51.0,,,,,960,note_off,,95.0,51.0,95.0,11700,6.09375
3645,2.0,,,,,39.0,,,,,0,note_off,,95.0,39.0,95.0,51660,26.90625
3646,2.0,,,,,39.0,,,,,0,note_on,,95.0,39.0,95.0,51660,26.90625
3647,2.0,,,,,39.0,,,,,240,note_off,,95.0,39.0,95.0,51900,27.03125
3648,2.0,,,,,39.0,,,,,240,note_on,,95.0,39.0,95.0,52140,27.15625
3649,2.0,,,,,39.0,,,,,240,note_off,,95.0,39.0,95.0,52380,27.28125
3650,2.0,,,,,39.0,,,,,0,note_on,,95.0,39.0,95.0,52380,27.28125
3651,2.0,,,,,39.0,,,,,240,note_off,,95.0,39.0,95.0,52620,27.40625
3652,2.0,,,,,59.0,,,,,0,note_on,,95.0,59.0,95.0,52620,27.40625
3653,2.0,,,,,52.0,,,,,0,note_on,,95.0,52.0,95.0,52620,27.40625
3654,2.0,,,,,59.0,,,,,240,note_off,,95.0,59.0,95.0,52860,27.53125
3655,2.0,,,,,52.0,,,,,0,note_off,,95.0,52.0,95.0,52860,27.53125
3656,2.0,,,,,58.0,,,,,0,note_on,,95.0,58.0,95.0,52860,27.53125
3657,2.0,,,,,51.0,,,,,0,note_on,,95.0,51.0,95.0,52860,27.53125
3658,2.0,,,,,58.0,,,,,240,note_off,,95.0,58.0,95.0,53100,27.65625
3659,2.0,,,,,51.0,,,,,0,note_off,,95.0,51.0,95.0,53100,27.65625
3660,2.0,,,,,57.0,,,,,0,note_on,,95.0,57.0,95.0,53100,27.65625
3661,2.0,,,,,50.0,,,,,0,note_on,,95.0,50.0,95.0,53100,27.65625
3662,2.0,,,,,57.0,,,,,480,note_off,,95.0,57.0,95.0,53580,27.90625
3663,2.0,,,,,50.0,,,,,0,note_off,,95.0,50.0,95.0,53580,27.90625
3664,2.0,,,,,39.0,,,,,0,note_on,,95.0,39.0,95.0,53580,27.90625
3665,2.0,,,,,39.0,,,,,240,note_off,,95.0,39.0,95.0,53820,28.03125
3666,2.0,,,,,39.0,,,,,240,note_on,,95.0,39.0,95.0,54060,28.15625
3667,2.0,,,,,39.0,,,,,240,note_off,,95.0,39.0,95.0,54300,28.28125
3668,2.0,,,,,39.0,,,,,0,note_on,,95.0,39.0,95.0,54300,28.28125
3669,3.0,,,,,49.0,,,,,180,note_on,,95.0,49.0,95.0,11880,6.1875
3670,2.0,,,,,39.0,,,,,60,note_off,,95.0,39.0,95.0,54360,28.3125
3671,3.0,,,,,49.0,,,,,0,note_off,,95.0,49.0,95.0,11880,6.1875
3672,3.0,,,,,51.0,,,,,0,note_on,,95.0,51.0,95.0,11880,6.1875
3673,2.0,,,,,39.0,,,,,0,note_on,,95.0,39.0,95.0,54360,28.3125
3674,3.0,,,,,51.0,,,,,960,note_off,,95.0,51.0,95.0,12840,6.6875
3675,2.0,,,,,39.0,,,,,0,note_off,,95.0,39.0,95.0,54360,28.3125
3676,2.0,,,,,39.0,,,,,0,note_on,,95.0,39.0,95.0,54360,28.3125
3677,2.0,,,,,39.0,,,,,240,note_off,,95.0,39.0,95.0,54600,28.4375
3678,2.0,,,,,39.0,,,,,240,note_on,,95.0,39.0,95.0,54840,28.5625
3679,2.0,,,,,39.0,,,,,240,note_off,,95.0,39.0,95.0,55080,28.6875
3680,2.0,,,,,39.0,,,,,0,note_on,,95.0,39.0,95.0,55080,28.6875
3681,2.0,,,,,39.0,,,,,240,note_off,,95.0,39.0,95.0,55320,28.8125
3682,2.0,,,,,61.0,,,,,0,note_on,,95.0,61.0,95.0,55320,28.8125
3683,2.0,,,,,54.0,,,,,0,note_on,,95.0,54.0,95.0,55320,28.8125
3684,2.0,,,,,61.0,,,,,240,note_off,,95.0,61.0,95.0,55560,28.9375
3685,2.0,,,,,54.0,,,,,0,note_off,,95.0,54.0,95.0,55560,28.9375
3686,2.0,,,,,60.0,,,,,0,note_on,,95.0,60.0,95.0,55560,28.9375
3687,2.0,,,,,53.0,,,,,0,note_on,,95.0,53.0,95.0,55560,28.9375
3688,2.0,,,,,60.0,,,,,240,note_off,,95.0,60.0,95.0,55800,29.0625
3689,2.0,,,,,53.0,,,,,0,note_off,,95.0,53.0,95.0,55800,29.0625
3690,2.0,,,,,59.0,,,,,0,note_on,,95.0,59.0,95.0,55800,29.0625
3691,2.0,,,,,52.0,,,,,0,note_on,,95.0,52.0,95.0,55800,29.0625
3692,2.0,,,,,59.0,,,,,480,note_off,,95.0,59.0,95.0,56280,29.3125
3693,2.0,,,,,52.0,,,,,0,note_off,,95.0,52.0,95.0,56280,29.3125
3694,2.0,,,,,39.0,,,,,0,note_on,,95.0,39.0,95.0,56280,29.3125
3695,2.0,,,,,39.0,,,,,240,note_off,,95.0,39.0,95.0,56520,29.4375
3696,2.0,,,,,39.0,,,,,240,note_on,,95.0,39.0,95.0,56760,29.5625
3697,2.0,,,,,39.0,,,,,240,note_off,,95.0,39.0,95.0,57000,29.6875
3698,2.0,,,,,39.0,,,,,0,note_on,,95.0,39.0,95.0,57000,29.6875
3699,3.0,,,,,49.0,,,,,180,note_on,,95.0,49.0,95.0,13020,6.78125
3700,2.0,,,,,39.0,,,,,60,note_off,,95.0,39.0,95.0,57060,29.71875
3701,3.0,,,,,49.0,,,,,0,note_off,,95.0,49.0,95.0,13020,6.78125
3702,3.0,,,,,51.0,,,,,0,note_on,,95.0,51.0,95.0,13020,6.78125
3703,2.0,,,,,39.0,,,,,0,note_on,,95.0,39.0,95.0,57060,29.71875
3704,3.0,,,,,51.0,,,,,960,note_off,,95.0,51.0,95.0,13980,7.28125
3705,2.0,,,,,39.0,,,,,0,note_off,,95.0,39.0,95.0,57060,29.71875
3706,2.0,,,,,39.0,,,,,0,note_on,,95.0,39.0,95.0,57060,29.71875
3707,2.0,,,,,39.0,,,,,240,note_off,,95.0,39.0,95.0,57300,29.84375
3708,2.0,,,,,39.0,,,,,240,note_on,,95.0,39.0,95.0,57540,29.96875
3709,2.0,,,,,39.0,,,,,240,note_off,,95.0,39.0,95.0,57780,30.09375
3710,2.0,,,,,39.0,,,,,0,note_on,,95.0,39.0,95.0,57780,30.09375
3711,2.0,,,,,39.0,,,,,240,note_off,,95.0,39.0,95.0,58020,30.21875
3712,2.0,,,,,59.0,,,,,0,note_on,,95.0,59.0,95.0,58020,30.21875
3713,2.0,,,,,52.0,,,,,0,note_on,,95.0,52.0,95.0,58020,30.21875
3714,2.0,,,,,59.0,,,,,240,note_off,,95.0,59.0,95.0,58260,30.34375
3715,2.0,,,,,52.0,,,,,0,note_off,,95.0,52.0,95.0,58260,30.34375
3716,2.0,,,,,58.0,,,,,0,note_on,,95.0,58.0,95.0,58260,30.34375
3717,2.0,,,,,51.0,,,,,0,note_on,,95.0,51.0,95.0,58260,30.34375
3718,2.0,,,,,58.0,,,,,240,note_off,,95.0,58.0,95.0,58500,30.46875
3719,2.0,,,,,51.0,,,,,0,note_off,,95.0,51.0,95.0,58500,30.46875
3720,2.0,,,,,57.0,,,,,0,note_on,,95.0,57.0,95.0,58500,30.46875
3721,2.0,,,,,50.0,,,,,0,note_on,,95.0,50.0,95.0,58500,30.46875
3722,2.0,,,,,57.0,,,,,480,note_off,,95.0,57.0,95.0,58980,30.71875
3723,2.0,,,,,50.0,,,,,0,note_off,,95.0,50.0,95.0,58980,30.71875
3724,2.0,,,,,39.0,,,,,0,note_on,,95.0,39.0,95.0,58980,30.71875
3725,2.0,,,,,39.0,,,,,240,note_off,,95.0,39.0,95.0,59220,30.84375
3726,2.0,,,,,39.0,,,,,240,note_on,,95.0,39.0,95.0,59460,30.96875
3727,2.0,,,,,39.0,,,,,240,note_off,,95.0,39.0,95.0,59700,31.09375
3728,2.0,,,,,39.0,,,,,0,note_on,,95.0,39.0,95.0,59700,31.09375
3729,3.0,,,,,49.0,,,,,180,note_on,,95.0,49.0,95.0,14160,7.375
3730,2.0,,,,,39.0,,,,,60,note_off,,95.0,39.0,95.0,59760,31.125
3731,3.0,,,,,49.0,,,,,0,note_off,,95.0,49.0,95.0,14160,7.375
3732,3.0,,,,,51.0,,,,,0,note_on,,95.0,51.0,95.0,14160,7.375
3733,2.0,,,,,39.0,,,,,0,note_on,,95.0,39.0,95.0,59760,31.125
3734,3.0,,,,,51.0,,,,,960,note_off,,95.0,51.0,95.0,15120,7.875
3735,2.0,,,,,39.0,,,,,0,note_off,,95.0,39.0,95.0,59760,31.125
3736,2.0,,,,,39.0,,,,,0,note_on,,95.0,39.0,95.0,59760,31.125
3737,2.0,,,,,39.0,,,,,240,note_off,,95.0,39.0,95.0,60000,31.25
3738,2.0,,,,,39.0,,,,,0,note_on,,95.0,39.0,95.0,60000,31.25
3739,2.0,,,,,39.0,,,,,240,note_off,,95.0,39.0,95.0,60240,31.375
3740,2.0,,,,,39.0,,,,,0,note_on,,95.0,39.0,95.0,60240,31.375
3741,2.0,,,,,39.0,,,,,240,note_off,,95.0,39.0,95.0,60480,31.5
3742,2.0,,,,,39.0,,,,,0,note_on,,95.0,39.0,95.0,60480,31.5
3743,2.0,,,,,39.0,,,,,240,note_off,,95.0,39.0,95.0,60720,31.625
3744,2.0,,,,,49.0,,,,,0,note_on,,95.0,49.0,95.0,60720,31.625
3745,2.0,,,,,42.0,,,,,0,note_on,,95.0,42.0,95.0,60720,31.625
3746,2.0,,,,,49.0,,,,,240,note_off,,95.0,49.0,95.0,60960,31.75
3747,2.0,,,,,42.0,,,,,0,note_off,,95.0,42.0,95.0,60960,31.75
3748,2.0,,,,,48.0,,,,,0,note_on,,95.0,48.0,95.0,60960,31.75
3749,2.0,,,,,41.0,,,,,0,note_on,,95.0,41.0,95.0,60960,31.75
3750,2.0,,,,,48.0,,,,,240,note_off,,95.0,48.0,95.0,61200,31.875
3751,2.0,,,,,41.0,,,,,0,note_off,,95.0,41.0,95.0,61200,31.875
3752,2.0,,,,,47.0,,,,,0,note_on,,95.0,47.0,95.0,61200,31.875
3753,2.0,,,,,40.0,,,,,0,note_on,,95.0,40.0,95.0,61200,31.875
3754,2.0,,,,,47.0,,,,,480,note_off,,95.0,47.0,95.0,61680,32.125
3755,2.0,,,,,40.0,,,,,0,note_off,,95.0,40.0,95.0,61680,32.125
3756,2.0,,,,,39.0,,,,,0,note_on,,95.0,39.0,95.0,61680,32.125
3757,2.0,,,,,39.0,,,,,240,note_off,,95.0,39.0,95.0,61920,32.25
3758,2.0,,,,,39.0,,,,,240,note_on,,95.0,39.0,95.0,62160,32.375
3759,2.0,,,,,39.0,,,,,240,note_off,,95.0,39.0,95.0,62400,32.5
3760,2.0,,,,,39.0,,,,,0,note_on,,95.0,39.0,95.0,62400,32.5
3761,3.0,,,,,49.0,,,,,180,note_on,,95.0,49.0,95.0,15300,7.96875
3762,2.0,,,,,39.0,,,,,60,note_off,,95.0,39.0,95.0,62460,32.53125
3763,3.0,,,,,49.0,,,,,0,note_off,,95.0,49.0,95.0,15300,7.96875
3764,3.0,,,,,51.0,,,,,0,note_on,,95.0,51.0,95.0,15300,7.96875
3765,2.0,,,,,39.0,,,,,0,note_on,,95.0,39.0,95.0,62460,32.53125
3766,3.0,,,,,51.0,,,,,960,note_off,,95.0,51.0,95.0,16260,8.46875
3767,2.0,,,,,39.0,,,,,0,note_off,,95.0,39.0,95.0,62460,32.53125
3768,2.0,,,,,39.0,,,,,0,note_on,,95.0,39.0,95.0,62460,32.53125
3769,2.0,,,,,39.0,,,,,240,note_off,,95.0,39.0,95.0,62700,32.65625
3770,2.0,,,,,39.0,,,,,240,note_on,,95.0,39.0,95.0,62940,32.78125
3771,2.0,,,,,39.0,,,,,240,note_off,,95.0,39.0,95.0,63180,32.90625
3772,2.0,,,,,39.0,,,,,0,note_on,,95.0,39.0,95.0,63180,32.90625
3773,2.0,,,,,39.0,,,,,240,note_off,,95.0,39.0,95.0,63420,33.03125
3774,2.0,,,,,59.0,,,,,0,note_on,,95.0,59.0,95.0,63420,33.03125
3775,2.0,,,,,52.0,,,,,0,note_on,,95.0,52.0,95.0,63420,33.03125
3776,2.0,,,,,59.0,,,,,240,note_off,,95.0,59.0,95.0,63660,33.15625
3777,2.0,,,,,52.0,,,,,0,note_off,,95.0,52.0,95.0,63660,33.15625
3778,2.0,,,,,58.0,,,,,0,note_on,,95.0,58.0,95.0,63660,33.15625
3779,2.0,,,,,51.0,,,,,0,note_on,,95.0,51.0,95.0,63660,33.15625
3780,2.0,,,,,58.0,,,,,240,note_off,,95.0,58.0,95.0,63900,33.28125
3781,2.0,,,,,51.0,,,,,0,note_off,,95.0,51.0,95.0,63900,33.28125
3782,2.0,,,,,57.0,,,,,0,note_on,,95.0,57.0,95.0,63900,33.28125
3783,2.0,,,,,50.0,,,,,0,note_on,,95.0,50.0,95.0,63900,33.28125
3784,2.0,,,,,57.0,,,,,480,note_off,,95.0,57.0,95.0,64380,33.53125
3785,2.0,,,,,50.0,,,,,0,note_off,,95.0,50.0,95.0,64380,33.53125
3786,2.0,,,,,39.0,,,,,0,note_on,,95.0,39.0,95.0,64380,33.53125
3787,2.0,,,,,39.0,,,,,240,note_off,,95.0,39.0,95.0,64620,33.65625
3788,2.0,,,,,39.0,,,,,240,note_on,,95.0,39.0,95.0,64860,33.78125
3789,2.0,,,,,39.0,,,,,240,note_off,,95.0,39.0,95.0,65100,33.90625
3790,2.0,,,,,39.0,,,,,0,note_on,,95.0,39.0,95.0,65100,33.90625
3791,3.0,,,,,49.0,,,,,180,note_on,,95.0,49.0,95.0,16440,8.5625
3792,2.0,,,,,39.0,,,,,60,note_off,,95.0,39.0,95.0,65160,33.9375
3793,3.0,,,,,49.0,,,,,0,note_off,,95.0,49.0,95.0,16440,8.5625
3794,3.0,,,,,51.0,,,,,0,note_on,,95.0,51.0,95.0,16440,8.5625
3795,2.0,,,,,39.0,,,,,0,note_on,,95.0,39.0,95.0,65160,33.9375
3796,3.0,,,,,51.0,,,,,960,note_off,,95.0,51.0,95.0,17400,9.0625
3797,2.0,,,,,39.0,,,,,0,note_off,,95.0,39.0,95.0,65160,33.9375
3798,2.0,,,,,39.0,,,,,0,note_on,,95.0,39.0,95.0,65160,33.9375
3799,2.0,,,,,39.0,,,,,240,note_off,,95.0,39.0,95.0,65400,34.0625
3800,2.0,,,,,39.0,,,,,240,note_on,,95.0,39.0,95.0,65640,34.1875
3801,2.0,,,,,39.0,,,,,240,note_off,,95.0,39.0,95.0,65880,34.3125
3802,2.0,,,,,39.0,,,,,0,note_on,,95.0,39.0,95.0,65880,34.3125
3803,2.0,,,,,39.0,,,,,240,note_off,,95.0,39.0,95.0,66120,34.4375
3804,2.0,,,,,61.0,,,,,0,note_on,,95.0,61.0,95.0,66120,34.4375
3805,2.0,,,,,54.0,,,,,0,note_on,,95.0,54.0,95.0,66120,34.4375
3806,2.0,,,,,61.0,,,,,240,note_off,,95.0,61.0,95.0,66360,34.5625
3807,2.0,,,,,54.0,,,,,0,note_off,,95.0,54.0,95.0,66360,34.5625
3808,2.0,,,,,60.0,,,,,0,note_on,,95.0,60.0,95.0,66360,34.5625
3809,2.0,,,,,53.0,,,,,0,note_on,,95.0,53.0,95.0,66360,34.5625
3810,2.0,,,,,60.0,,,,,240,note_off,,95.0,60.0,95.0,66600,34.6875
3811,2.0,,,,,53.0,,,,,0,note_off,,95.0,53.0,95.0,66600,34.6875
3812,2.0,,,,,59.0,,,,,0,note_on,,95.0,59.0,95.0,66600,34.6875
3813,2.0,,,,,52.0,,,,,0,note_on,,95.0,52.0,95.0,66600,34.6875
3814,2.0,,,,,59.0,,,,,480,note_off,,95.0,59.0,95.0,67080,34.9375
3815,2.0,,,,,52.0,,,,,0,note_off,,95.0,52.0,95.0,67080,34.9375
3816,2.0,,,,,39.0,,,,,0,note_on,,95.0,39.0,95.0,67080,34.9375
3817,2.0,,,,,39.0,,,,,240,note_off,,95.0,39.0,95.0,67320,35.0625
3818,2.0,,,,,39.0,,,,,240,note_on,,95.0,39.0,95.0,67560,35.1875
3819,2.0,,,,,39.0,,,,,240,note_off,,95.0,39.0,95.0,67800,35.3125
3820,2.0,,,,,39.0,,,,,0,note_on,,95.0,39.0,95.0,67800,35.3125
3821,3.0,,,,,49.0,,,,,180,note_on,,95.0,49.0,95.0,17580,9.15625
3822,2.0,,,,,39.0,,,,,60,note_off,,95.0,39.0,95.0,67860,35.34375
3823,3.0,,,,,49.0,,,,,0,note_off,,95.0,49.0,95.0,17580,9.15625
3824,3.0,,,,,51.0,,,,,0,note_on,,95.0,51.0,95.0,17580,9.15625
3825,2.0,,,,,39.0,,,,,0,note_on,,95.0,39.0,95.0,67860,35.34375
3826,3.0,,,,,51.0,,,,,960,note_off,,95.0,51.0,95.0,18540,9.65625
3827,2.0,,,,,39.0,,,,,0,note_off,,95.0,39.0,95.0,67860,35.34375
3828,2.0,,,,,39.0,,,,,0,note_on,,95.0,39.0,95.0,67860,35.34375
3829,2.0,,,,,39.0,,,,,240,note_off,,95.0,39.0,95.0,68100,35.46875
3830,2.0,,,,,39.0,,,,,240,note_on,,95.0,39.0,95.0,68340,35.59375
3831,2.0,,,,,39.0,,,,,240,note_off,,95.0,39.0,95.0,68580,35.71875
3832,2.0,,,,,39.0,,,,,0,note_on,,95.0,39.0,95.0,68580,35.71875
3833,2.0,,,,,39.0,,,,,240,note_off,,95.0,39.0,95.0,68820,35.84375
3834,2.0,,,,,59.0,,,,,0,note_on,,95.0,59.0,95.0,68820,35.84375
3835,2.0,,,,,52.0,,,,,0,note_on,,95.0,52.0,95.0,68820,35.84375
3836,2.0,,,,,59.0,,,,,240,note_off,,95.0,59.0,95.0,69060,35.96875
3837,2.0,,,,,52.0,,,,,0,note_off,,95.0,52.0,95.0,69060,35.96875
3838,2.0,,,,,58.0,,,,,0,note_on,,95.0,58.0,95.0,69060,35.96875
3839,2.0,,,,,51.0,,,,,0,note_on,,95.0,51.0,95.0,69060,35.96875
3840,2.0,,,,,58.0,,,,,240,note_off,,95.0,58.0,95.0,69300,36.09375
3841,2.0,,,,,51.0,,,,,0,note_off,,95.0,51.0,95.0,69300,36.09375
3842,2.0,,,,,57.0,,,,,0,note_on,,95.0,57.0,95.0,69300,36.09375
3843,2.0,,,,,50.0,,,,,0,note_on,,95.0,50.0,95.0,69300,36.09375
3844,2.0,,,,,57.0,,,,,480,note_off,,95.0,57.0,95.0,69780,36.34375
3845,2.0,,,,,50.0,,,,,0,note_off,,95.0,50.0,95.0,69780,36.34375
3846,2.0,,,,,39.0,,,,,0,note_on,,95.0,39.0,95.0,69780,36.34375
3847,2.0,,,,,39.0,,,,,240,note_off,,95.0,39.0,95.0,70020,36.46875
3848,2.0,,,,,39.0,,,,,240,note_on,,95.0,39.0,95.0,70260,36.59375
3849,2.0,,,,,39.0,,,,,240,note_off,,95.0,39.0,95.0,70500,36.71875
3850,2.0,,,,,39.0,,,,,0,note_on,,95.0,39.0,95.0,70500,36.71875
3851,3.0,,,,,49.0,,,,,180,note_on,,95.0,49.0,95.0,18720,9.75
3852,2.0,,,,,39.0,,,,,60,note_off,,95.0,39.0,95.0,70560,36.75
3853,3.0,,,,,49.0,,,,,0,note_off,,95.0,49.0,95.0,18720,9.75
3854,3.0,,,,,51.0,,,,,0,note_on,,95.0,51.0,95.0,18720,9.75
3855,2.0,,,,,39.0,,,,,0,note_on,,95.0,39.0,95.0,70560,36.75
3856,3.0,,,,,51.0,,,,,960,note_off,,95.0,51.0,95.0,19680,10.25
3857,2.0,,,,,39.0,,,,,0,note_off,,95.0,39.0,95.0,70560,36.75
3858,2.0,,,,,39.0,,,,,0,note_on,,95.0,39.0,95.0,70560,36.75
3859,2.0,,,,,39.0,,,,,240,note_off,,95.0,39.0,95.0,70800,36.875
3860,2.0,,,,,39.0,,,,,0,note_on,,95.0,39.0,95.0,70800,36.875
3861,2.0,,,,,39.0,,,,,240,note_off,,95.0,39.0,95.0,71040,37.0
3862,2.0,,,,,39.0,,,,,0,note_on,,95.0,39.0,95.0,71040,37.0
3863,2.0,,,,,39.0,,,,,240,note_off,,95.0,39.0,95.0,71280,37.125
3864,2.0,,,,,39.0,,,,,0,note_on,,95.0,39.0,95.0,71280,37.125
3865,2.0,,,,,39.0,,,,,240,note_off,,95.0,39.0,95.0,71520,37.25
3866,2.0,,,,,49.0,,,,,0,note_on,,95.0,49.0,95.0,71520,37.25
3867,2.0,,,,,42.0,,,,,0,note_on,,95.0,42.0,95.0,71520,37.25
3868,2.0,,,,,49.0,,,,,240,note_off,,95.0,49.0,95.0,71760,37.375
3869,2.0,,,,,42.0,,,,,0,note_off,,95.0,42.0,95.0,71760,37.375
3870,2.0,,,,,48.0,,,,,0,note_on,,95.0,48.0,95.0,71760,37.375
3871,2.0,,,,,41.0,,,,,0,note_on,,95.0,41.0,95.0,71760,37.375
3872,2.0,,,,,48.0,,,,,240,note_off,,95.0,48.0,95.0,72000,37.5
3873,2.0,,,,,41.0,,,,,0,note_off,,95.0,41.0,95.0,72000,37.5
3874,2.0,,,,,47.0,,,,,0,note_on,,95.0,47.0,95.0,72000,37.5
3875,2.0,,,,,40.0,,,,,0,note_on,,95.0,40.0,95.0,72000,37.5
3876,2.0,,,,,47.0,,,,,480,note_off,,95.0,47.0,95.0,72480,37.75
3877,2.0,,,,,40.0,,,,,0,note_off,,95.0,40.0,95.0,72480,37.75
3878,2.0,,,,,39.0,,,,,0,note_on,,95.0,39.0,95.0,72480,37.75
3879,2.0,,,,,39.0,,,,,240,note_off,,95.0,39.0,95.0,72720,37.875
3880,2.0,,,,,39.0,,,,,240,note_on,,95.0,39.0,95.0,72960,38.0
3881,2.0,,,,,39.0,,,,,240,note_off,,95.0,39.0,95.0,73200,38.125
3882,2.0,,,,,39.0,,,,,0,note_on,,95.0,39.0,95.0,73200,38.125
3883,3.0,,,,,49.0,,,,,180,note_on,,95.0,49.0,95.0,19860,10.34375
3884,2.0,,,,,39.0,,,,,60,note_off,,95.0,39.0,95.0,73260,38.15625
3885,3.0,,,,,49.0,,,,,0,note_off,,95.0,49.0,95.0,19860,10.34375
3886,3.0,,,,,51.0,,,,,0,note_on,,95.0,51.0,95.0,19860,10.34375
3887,2.0,,,,,39.0,,,,,0,note_on,,95.0,39.0,95.0,73260,38.15625
3888,3.0,,,,,51.0,,,,,960,note_off,,95.0,51.0,95.0,20820,10.84375
3889,2.0,,,,,39.0,,,,,0,note_off,,95.0,39.0,95.0,73260,38.15625
3890,2.0,,,,,39.0,,,,,0,note_on,,95.0,39.0,95.0,73260,38.15625
3891,2.0,,,,,39.0,,,,,240,note_off,,95.0,39.0,95.0,73500,38.28125
3892,2.0,,,,,39.0,,,,,240,note_on,,95.0,39.0,95.0,73740,38.40625
3893,2.0,,,,,39.0,,,,,240,note_off,,95.0,39.0,95.0,73980,38.53125
3894,2.0,,,,,39.0,,,,,0,note_on,,95.0,39.0,95.0,73980,38.53125
3895,2.0,,,,,39.0,,,,,240,note_off,,95.0,39.0,95.0,74220,38.65625
3896,2.0,,,,,59.0,,,,,0,note_on,,95.0,59.0,95.0,74220,38.65625
3897,2.0,,,,,52.0,,,,,0,note_on,,95.0,52.0,95.0,74220,38.65625
3898,2.0,,,,,59.0,,,,,240,note_off,,95.0,59.0,95.0,74460,38.78125
3899,2.0,,,,,52.0,,,,,0,note_off,,95.0,52.0,95.0,74460,38.78125
3900,2.0,,,,,58.0,,,,,0,note_on,,95.0,58.0,95.0,74460,38.78125
3901,2.0,,,,,51.0,,,,,0,note_on,,95.0,51.0,95.0,74460,38.78125
3902,2.0,,,,,58.0,,,,,240,note_off,,95.0,58.0,95.0,74700,38.90625
3903,2.0,,,,,51.0,,,,,0,note_off,,95.0,51.0,95.0,74700,38.90625
3904,2.0,,,,,57.0,,,,,0,note_on,,95.0,57.0,95.0,74700,38.90625
3905,2.0,,,,,50.0,,,,,0,note_on,,95.0,50.0,95.0,74700,38.90625
3906,2.0,,,,,57.0,,,,,480,note_off,,95.0,57.0,95.0,75180,39.15625
3907,2.0,,,,,50.0,,,,,0,note_off,,95.0,50.0,95.0,75180,39.15625
3908,2.0,,,,,39.0,,,,,0,note_on,,95.0,39.0,95.0,75180,39.15625
3909,2.0,,,,,39.0,,,,,240,note_off,,95.0,39.0,95.0,75420,39.28125
3910,2.0,,,,,39.0,,,,,240,note_on,,95.0,39.0,95.0,75660,39.40625
3911,2.0,,,,,39.0,,,,,240,note_off,,95.0,39.0,95.0,75900,39.53125
3912,2.0,,,,,39.0,,,,,0,note_on,,95.0,39.0,95.0,75900,39.53125
3913,3.0,,,,,49.0,,,,,180,note_on,,95.0,49.0,95.0,21000,10.9375
3914,2.0,,,,,39.0,,,,,60,note_off,,95.0,39.0,95.0,75960,39.5625
3915,3.0,,,,,49.0,,,,,0,note_off,,95.0,49.0,95.0,21000,10.9375
3916,3.0,,,,,51.0,,,,,0,note_on,,95.0,51.0,95.0,21000,10.9375
3917,2.0,,,,,39.0,,,,,0,note_on,,95.0,39.0,95.0,75960,39.5625
3918,3.0,,,,,51.0,,,,,960,note_off,,95.0,51.0,95.0,21960,11.4375
3919,2.0,,,,,39.0,,,,,0,note_off,,95.0,39.0,95.0,75960,39.5625
3920,2.0,,,,,39.0,,,,,0,note_on,,95.0,39.0,95.0,75960,39.5625
3921,2.0,,,,,39.0,,,,,240,note_off,,95.0,39.0,95.0,76200,39.6875
3922,2.0,,,,,39.0,,,,,240,note_on,,95.0,39.0,95.0,76440,39.8125
3923,2.0,,,,,39.0,,,,,240,note_off,,95.0,39.0,95.0,76680,39.9375
3924,2.0,,,,,39.0,,,,,0,note_on,,95.0,39.0,95.0,76680,39.9375
3925,2.0,,,,,39.0,,,,,240,note_off,,95.0,39.0,95.0,76920,40.0625
3926,2.0,,,,,61.0,,,,,0,note_on,,95.0,61.0,95.0,76920,40.0625
3927,2.0,,,,,54.0,,,,,0,note_on,,95.0,54.0,95.0,76920,40.0625
3928,2.0,,,,,61.0,,,,,240,note_off,,95.0,61.0,95.0,77160,40.1875
3929,2.0,,,,,54.0,,,,,0,note_off,,95.0,54.0,95.0,77160,40.1875
3930,2.0,,,,,60.0,,,,,0,note_on,,95.0,60.0,95.0,77160,40.1875
3931,2.0,,,,,53.0,,,,,0,note_on,,95.0,53.0,95.0,77160,40.1875
3932,2.0,,,,,60.0,,,,,240,note_off,,95.0,60.0,95.0,77400,40.3125
3933,2.0,,,,,53.0,,,,,0,note_off,,95.0,53.0,95.0,77400,40.3125
3934,2.0,,,,,59.0,,,,,0,note_on,,95.0,59.0,95.0,77400,40.3125
3935,2.0,,,,,52.0,,,,,0,note_on,,95.0,52.0,95.0,77400,40.3125
3936,2.0,,,,,59.0,,,,,480,note_off,,95.0,59.0,95.0,77880,40.5625
3937,2.0,,,,,52.0,,,,,0,note_off,,95.0,52.0,95.0,77880,40.5625
3938,2.0,,,,,39.0,,,,,0,note_on,,95.0,39.0,95.0,77880,40.5625
3939,2.0,,,,,39.0,,,,,240,note_off,,95.0,39.0,95.0,78120,40.6875
3940,2.0,,,,,39.0,,,,,240,note_on,,95.0,39.0,95.0,78360,40.8125
3941,2.0,,,,,39.0,,,,,240,note_off,,95.0,39.0,95.0,78600,40.9375
3942,2.0,,,,,39.0,,,,,0,note_on,,95.0,39.0,95.0,78600,40.9375
3943,3.0,,,,,49.0,,,,,180,note_on,,95.0,49.0,95.0,22140,11.53125
3944,2.0,,,,,39.0,,,,,60,note_off,,95.0,39.0,95.0,78660,40.96875
3945,3.0,,,,,49.0,,,,,0,note_off,,95.0,49.0,95.0,22140,11.53125
3946,3.0,,,,,51.0,,,,,0,note_on,,95.0,51.0,95.0,22140,11.53125
3947,2.0,,,,,39.0,,,,,0,note_on,,95.0,39.0,95.0,78660,40.96875
3948,3.0,,,,,51.0,,,,,960,note_off,,95.0,51.0,95.0,23100,12.03125
3949,2.0,,,,,39.0,,,,,0,note_off,,95.0,39.0,95.0,78660,40.96875
3950,2.0,,,,,39.0,,,,,0,note_on,,95.0,39.0,95.0,78660,40.96875
3951,2.0,,,,,39.0,,,,,240,note_off,,95.0,39.0,95.0,78900,41.09375
3952,2.0,,,,,39.0,,,,,240,note_on,,95.0,39.0,95.0,79140,41.21875
3953,2.0,,,,,39.0,,,,,240,note_off,,95.0,39.0,95.0,79380,41.34375
3954,2.0,,,,,39.0,,,,,0,note_on,,95.0,39.0,95.0,79380,41.34375
3955,2.0,,,,,39.0,,,,,240,note_off,,95.0,39.0,95.0,79620,41.46875
3956,2.0,,,,,59.0,,,,,0,note_on,,95.0,59.0,95.0,79620,41.46875
3957,2.0,,,,,52.0,,,,,0,note_on,,95.0,52.0,95.0,79620,41.46875
3958,2.0,,,,,59.0,,,,,240,note_off,,95.0,59.0,95.0,79860,41.59375
3959,2.0,,,,,52.0,,,,,0,note_off,,95.0,52.0,95.0,79860,41.59375
3960,2.0,,,,,58.0,,,,,0,note_on,,95.0,58.0,95.0,79860,41.59375
3961,2.0,,,,,51.0,,,,,0,note_on,,95.0,51.0,95.0,79860,41.59375
3962,2.0,,,,,58.0,,,,,240,note_off,,95.0,58.0,95.0,80100,41.71875
3963,2.0,,,,,51.0,,,,,0,note_off,,95.0,51.0,95.0,80100,41.71875
3964,2.0,,,,,57.0,,,,,0,note_on,,95.0,57.0,95.0,80100,41.71875
3965,2.0,,,,,50.0,,,,,0,note_on,,95.0,50.0,95.0,80100,41.71875
3966,2.0,,,,,57.0,,,,,480,note_off,,95.0,57.0,95.0,80580,41.96875
3967,2.0,,,,,50.0,,,,,0,note_off,,95.0,50.0,95.0,80580,41.96875
3968,2.0,,,,,39.0,,,,,0,note_on,,95.0,39.0,95.0,80580,41.96875
3969,2.0,,,,,39.0,,,,,240,note_off,,95.0,39.0,95.0,80820,42.09375
3970,2.0,,,,,39.0,,,,,240,note_on,,95.0,39.0,95.0,81060,42.21875
3971,2.0,,,,,39.0,,,,,240,note_off,,95.0,39.0,95.0,81300,42.34375
3972,2.0,,,,,39.0,,,,,0,note_on,,95.0,39.0,95.0,81300,42.34375
3973,3.0,,,,,49.0,,,,,180,note_on,,95.0,49.0,95.0,23280,12.125
3974,2.0,,,,,39.0,,,,,60,note_off,,95.0,39.0,95.0,81360,42.375
3975,3.0,,,,,49.0,,,,,0,note_off,,95.0,49.0,95.0,23280,12.125
3976,3.0,,,,,51.0,,,,,0,note_on,,95.0,51.0,95.0,23280,12.125
3977,2.0,,,,,39.0,,,,,0,note_on,,95.0,39.0,95.0,81360,42.375
3978,3.0,,,,,51.0,,,,,960,note_off,,95.0,51.0,95.0,24240,12.625
3979,2.0,,,,,39.0,,,,,0,note_off,,95.0,39.0,95.0,81360,42.375
3980,2.0,,,,,39.0,,,,,0,note_on,,95.0,39.0,95.0,81360,42.375
3981,2.0,,,,,39.0,,,,,240,note_off,,95.0,39.0,95.0,81600,42.5
3982,2.0,,,,,39.0,,,,,0,note_on,,95.0,39.0,95.0,81600,42.5
3983,2.0,,,,,39.0,,,,,240,note_off,,95.0,39.0,95.0,81840,42.625
3984,2.0,,,,,39.0,,,,,0,note_on,,95.0,39.0,95.0,81840,42.625
3985,2.0,,,,,39.0,,,,,240,note_off,,95.0,39.0,95.0,82080,42.75
3986,2.0,,,,,39.0,,,,,0,note_on,,95.0,39.0,95.0,82080,42.75
3987,2.0,,,,,39.0,,,,,240,note_off,,95.0,39.0,95.0,82320,42.875
3988,2.0,,,,,49.0,,,,,0,note_on,,95.0,49.0,95.0,82320,42.875
3989,2.0,,,,,42.0,,,,,0,note_on,,95.0,42.0,95.0,82320,42.875
3990,2.0,,,,,49.0,,,,,240,note_off,,95.0,49.0,95.0,82560,43.0
3991,2.0,,,,,42.0,,,,,0,note_off,,95.0,42.0,95.0,82560,43.0
3992,2.0,,,,,48.0,,,,,0,note_on,,95.0,48.0,95.0,82560,43.0
3993,2.0,,,,,41.0,,,,,0,note_on,,95.0,41.0,95.0,82560,43.0
3994,2.0,,,,,48.0,,,,,240,note_off,,95.0,48.0,95.0,82800,43.125
3995,2.0,,,,,41.0,,,,,0,note_off,,95.0,41.0,95.0,82800,43.125
3996,2.0,,,,,47.0,,,,,0,note_on,,95.0,47.0,95.0,82800,43.125
3997,2.0,,,,,40.0,,,,,0,note_on,,95.0,40.0,95.0,82800,43.125
3998,2.0,,,,,47.0,,,,,480,note_off,,95.0,47.0,95.0,83280,43.375
3999,2.0,,,,,40.0,,,,,0,note_off,,95.0,40.0,95.0,83280,43.375
4000,2.0,,,,,39.0,,,,,0,note_on,,95.0,39.0,95.0,83280,43.375
4001,2.0,,,,,39.0,,,,,240,note_off,,95.0,39.0,95.0,83520,43.5
4002,2.0,,,,,39.0,,,,,240,note_on,,95.0,39.0,95.0,83760,43.625
4003,2.0,,,,,39.0,,,,,240,note_off,,95.0,39.0,95.0,84000,43.75
4004,2.0,,,,,39.0,,,,,0,note_on,,95.0,39.0,95.0,84000,43.75
4005,3.0,,,,,49.0,,,,,180,note_on,,95.0,49.0,95.0,24420,12.71875
4006,2.0,,,,,39.0,,,,,60,note_off,,95.0,39.0,95.0,84060,43.78125
4007,3.0,,,,,49.0,,,,,0,note_off,,95.0,49.0,95.0,24420,12.71875
4008,3.0,,,,,51.0,,,,,0,note_on,,95.0,51.0,95.0,24420,12.71875
4009,2.0,,,,,39.0,,,,,0,note_on,,95.0,39.0,95.0,84060,43.78125
4010,3.0,,,,,51.0,,,,,960,note_off,,95.0,51.0,95.0,25380,13.21875
4011,2.0,,,,,39.0,,,,,0,note_off,,95.0,39.0,95.0,84060,43.78125
4012,2.0,,,,,39.0,,,,,0,note_on,,95.0,39.0,95.0,84060,43.78125
4013,2.0,,,,,39.0,,,,,240,note_off,,95.0,39.0,95.0,84300,43.90625
4014,2.0,,,,,39.0,,,,,240,note_on,,95.0,39.0,95.0,84540,44.03125
4015,2.0,,,,,39.0,,,,,240,note_off,,95.0,39.0,95.0,84780,44.15625
4016,2.0,,,,,39.0,,,,,0,note_on,,95.0,39.0,95.0,84780,44.15625
4017,2.0,,,,,39.0,,,,,240,note_off,,95.0,39.0,95.0,85020,44.28125
4018,2.0,,,,,59.0,,,,,0,note_on,,95.0,59.0,95.0,85020,44.28125
4019,2.0,,,,,52.0,,,,,0,note_on,,95.0,52.0,95.0,85020,44.28125
4020,2.0,,,,,59.0,,,,,240,note_off,,95.0,59.0,95.0,85260,44.40625
4021,2.0,,,,,52.0,,,,,0,note_off,,95.0,52.0,95.0,85260,44.40625
4022,2.0,,,,,58.0,,,,,0,note_on,,95.0,58.0,95.0,85260,44.40625
4023,2.0,,,,,51.0,,,,,0,note_on,,95.0,51.0,95.0,85260,44.40625
4024,2.0,,,,,58.0,,,,,240,note_off,,95.0,58.0,95.0,85500,44.53125
4025,2.0,,,,,51.0,,,,,0,note_off,,95.0,51.0,95.0,85500,44.53125
4026,2.0,,,,,57.0,,,,,0,note_on,,95.0,57.0,95.0,85500,44.53125
4027,2.0,,,,,50.0,,,,,0,note_on,,95.0,50.0,95.0,85500,44.53125
4028,2.0,,,,,57.0,,,,,480,note_off,,95.0,57.0,95.0,85980,44.78125
4029,2.0,,,,,50.0,,,,,0,note_off,,95.0,50.0,95.0,85980,44.78125
4030,2.0,,,,,39.0,,,,,0,note_on,,95.0,39.0,95.0,85980,44.78125
4031,2.0,,,,,39.0,,,,,240,note_off,,95.0,39.0,95.0,86220,44.90625
4032,2.0,,,,,39.0,,,,,240,note_on,,95.0,39.0,95.0,86460,45.03125
4033,2.0,,,,,39.0,,,,,240,note_off,,95.0,39.0,95.0,86700,45.15625
4034,2.0,,,,,39.0,,,,,0,note_on,,95.0,39.0,95.0,86700,45.15625
4035,3.0,,,,,49.0,,,,,180,note_on,,95.0,49.0,95.0,25560,13.3125
4036,2.0,,,,,39.0,,,,,60,note_off,,95.0,39.0,95.0,86760,45.1875
4037,3.0,,,,,49.0,,,,,0,note_off,,95.0,49.0,95.0,25560,13.3125
4038,3.0,,,,,51.0,,,,,0,note_on,,95.0,51.0,95.0,25560,13.3125
4039,2.0,,,,,39.0,,,,,0,note_on,,95.0,39.0,95.0,86760,45.1875
4040,3.0,,,,,51.0,,,,,960,note_off,,95.0,51.0,95.0,26520,13.8125
4041,2.0,,,,,39.0,,,,,0,note_off,,95.0,39.0,95.0,86760,45.1875
4042,2.0,,,,,39.0,,,,,0,note_on,,95.0,39.0,95.0,86760,45.1875
4043,2.0,,,,,39.0,,,,,240,note_off,,95.0,39.0,95.0,87000,45.3125
4044,2.0,,,,,39.0,,,,,240,note_on,,95.0,39.0,95.0,87240,45.4375
4045,2.0,,,,,39.0,,,,,240,note_off,,95.0,39.0,95.0,87480,45.5625
4046,2.0,,,,,39.0,,,,,0,note_on,,95.0,39.0,95.0,87480,45.5625
4047,2.0,,,,,39.0,,,,,240,note_off,,95.0,39.0,95.0,87720,45.6875
4048,2.0,,,,,61.0,,,,,0,note_on,,95.0,61.0,95.0,87720,45.6875
4049,2.0,,,,,54.0,,,,,0,note_on,,95.0,54.0,95.0,87720,45.6875
4050,2.0,,,,,61.0,,,,,240,note_off,,95.0,61.0,95.0,87960,45.8125
4051,2.0,,,,,54.0,,,,,0,note_off,,95.0,54.0,95.0,87960,45.8125
4052,2.0,,,,,60.0,,,,,0,note_on,,95.0,60.0,95.0,87960,45.8125
4053,2.0,,,,,53.0,,,,,0,note_on,,95.0,53.0,95.0,87960,45.8125
4054,2.0,,,,,60.0,,,,,240,note_off,,95.0,60.0,95.0,88200,45.9375
4055,2.0,,,,,53.0,,,,,0,note_off,,95.0,53.0,95.0,88200,45.9375
4056,2.0,,,,,59.0,,,,,0,note_on,,95.0,59.0,95.0,88200,45.9375
4057,2.0,,,,,52.0,,,,,0,note_on,,95.0,52.0,95.0,88200,45.9375
4058,2.0,,,,,59.0,,,,,480,note_off,,95.0,59.0,95.0,88680,46.1875
4059,2.0,,,,,52.0,,,,,0,note_off,,95.0,52.0,95.0,88680,46.1875
4060,2.0,,,,,39.0,,,,,0,note_on,,95.0,39.0,95.0,88680,46.1875
4061,2.0,,,,,39.0,,,,,240,note_off,,95.0,39.0,95.0,88920,46.3125
4062,2.0,,,,,39.0,,,,,240,note_on,,95.0,39.0,95.0,89160,46.4375
4063,2.0,,,,,39.0,,,,,240,note_off,,95.0,39.0,95.0,89400,46.5625
4064,2.0,,,,,39.0,,,,,0,note_on,,95.0,39.0,95.0,89400,46.5625
4065,3.0,,,,,49.0,,,,,180,note_on,,95.0,49.0,95.0,26700,13.90625
4066,2.0,,,,,39.0,,,,,60,note_off,,95.0,39.0,95.0,89460,46.59375
4067,3.0,,,,,49.0,,,,,0,note_off,,95.0,49.0,95.0,26700,13.90625
4068,3.0,,,,,51.0,,,,,0,note_on,,95.0,51.0,95.0,26700,13.90625
4069,2.0,,,,,39.0,,,,,0,note_on,,95.0,39.0,95.0,89460,46.59375
4070,3.0,,,,,51.0,,,,,960,note_off,,95.0,51.0,95.0,27660,14.40625
4071,2.0,,,,,39.0,,,,,0,note_off,,95.0,39.0,95.0,89460,46.59375
4072,2.0,,,,,39.0,,,,,0,note_on,,95.0,39.0,95.0,89460,46.59375
4073,2.0,,,,,39.0,,,,,240,note_off,,95.0,39.0,95.0,89700,46.71875
4074,2.0,,,,,39.0,,,,,240,note_on,,95.0,39.0,95.0,89940,46.84375
4075,2.0,,,,,39.0,,,,,240,note_off,,95.0,39.0,95.0,90180,46.96875
4076,2.0,,,,,39.0,,,,,0,note_on,,95.0,39.0,95.0,90180,46.96875
4077,2.0,,,,,39.0,,,,,240,note_off,,95.0,39.0,95.0,90420,47.09375
4078,2.0,,,,,59.0,,,,,0,note_on,,95.0,59.0,95.0,90420,47.09375
4079,2.0,,,,,52.0,,,,,0,note_on,,95.0,52.0,95.0,90420,47.09375
4080,2.0,,,,,59.0,,,,,240,note_off,,95.0,59.0,95.0,90660,47.21875
4081,2.0,,,,,52.0,,,,,0,note_off,,95.0,52.0,95.0,90660,47.21875
4082,2.0,,,,,58.0,,,,,0,note_on,,95.0,58.0,95.0,90660,47.21875
4083,2.0,,,,,51.0,,,,,0,note_on,,95.0,51.0,95.0,90660,47.21875
4084,2.0,,,,,58.0,,,,,240,note_off,,95.0,58.0,95.0,90900,47.34375
4085,2.0,,,,,51.0,,,,,0,note_off,,95.0,51.0,95.0,90900,47.34375
4086,2.0,,,,,57.0,,,,,0,note_on,,95.0,57.0,95.0,90900,47.34375
4087,2.0,,,,,50.0,,,,,0,note_on,,95.0,50.0,95.0,90900,47.34375
4088,2.0,,,,,57.0,,,,,480,note_off,,95.0,57.0,95.0,91380,47.59375
4089,2.0,,,,,50.0,,,,,0,note_off,,95.0,50.0,95.0,91380,47.59375
4090,2.0,,,,,39.0,,,,,0,note_on,,95.0,39.0,95.0,91380,47.59375
4091,2.0,,,,,39.0,,,,,240,note_off,,95.0,39.0,95.0,91620,47.71875
4092,2.0,,,,,39.0,,,,,240,note_on,,95.0,39.0,95.0,91860,47.84375
4093,2.0,,,,,39.0,,,,,240,note_off,,95.0,39.0,95.0,92100,47.96875
4094,2.0,,,,,39.0,,,,,0,note_on,,95.0,39.0,95.0,92100,47.96875
4095,3.0,,,,,49.0,,,,,180,note_on,,95.0,49.0,95.0,27840,14.5
4096,2.0,,,,,39.0,,,,,60,note_off,,95.0,39.0,95.0,92160,48.0
4097,3.0,,,,,49.0,,,,,0,note_off,,95.0,49.0,95.0,27840,14.5
4098,3.0,,,,,51.0,,,,,0,note_on,,95.0,51.0,95.0,27840,14.5
4099,2.0,,,,,39.0,,,,,0,note_on,,95.0,39.0,95.0,92160,48.0
4100,3.0,,,,,51.0,,,,,960,note_off,,95.0,51.0,95.0,28800,15.0
4101,2.0,,,,,39.0,,,,,0,note_off,,95.0,39.0,95.0,92160,48.0
4102,2.0,,,,,39.0,,,,,0,note_on,,95.0,39.0,95.0,92160,48.0
4103,2.0,,,,,39.0,,,,,240,note_off,,95.0,39.0,95.0,92400,48.125
4104,2.0,,,,,39.0,,,,,0,note_on,,95.0,39.0,95.0,92400,48.125
4105,2.0,,,,,39.0,,,,,240,note_off,,95.0,39.0,95.0,92640,48.25
4106,2.0,,,,,39.0,,,,,0,note_on,,95.0,39.0,95.0,92640,48.25
4107,2.0,,,,,39.0,,,,,240,note_off,,95.0,39.0,95.0,92880,48.375
4108,2.0,,,,,39.0,,,,,0,note_on,,95.0,39.0,95.0,92880,48.375
4109,2.0,,,,,39.0,,,,,240,note_off,,95.0,39.0,95.0,93120,48.5
4110,2.0,,,,,49.0,,,,,0,note_on,,95.0,49.0,95.0,93120,48.5
4111,2.0,,,,,42.0,,,,,0,note_on,,95.0,42.0,95.0,93120,48.5
4112,2.0,,,,,49.0,,,,,240,note_off,,95.0,49.0,95.0,93360,48.625
4113,2.0,,,,,42.0,,,,,0,note_off,,95.0,42.0,95.0,93360,48.625
4114,2.0,,,,,48.0,,,,,0,note_on,,95.0,48.0,95.0,93360,48.625
4115,2.0,,,,,41.0,,,,,0,note_on,,95.0,41.0,95.0,93360,48.625
4116,2.0,,,,,48.0,,,,,240,note_off,,95.0,48.0,95.0,93600,48.75
4117,2.0,,,,,41.0,,,,,0,note_off,,95.0,41.0,95.0,93600,48.75
4118,2.0,,,,,47.0,,,,,0,note_on,,95.0,47.0,95.0,93600,48.75
4119,2.0,,,,,40.0,,,,,0,note_on,,95.0,40.0,95.0,93600,48.75
4120,2.0,,,,,47.0,,,,,480,note_off,,95.0,47.0,95.0,94080,49.0
4121,2.0,,,,,40.0,,,,,0,note_off,,95.0,40.0,95.0,94080,49.0
4122,2.0,,,,,48.0,,,,,0,note_on,,95.0,48.0,95.0,94080,49.0
4123,2.0,,,,,41.0,,,,,0,note_on,,95.0,41.0,95.0,94080,49.0
4124,2.0,,,,,48.0,,,,,2880,note_off,,95.0,48.0,95.0,96960,50.5
4125,2.0,,,,,41.0,,,,,0,note_off,,95.0,41.0,95.0,96960,50.5
4126,2.0,,,,,49.0,,,,,0,note_on,,95.0,49.0,95.0,96960,50.5
4127,2.0,,,,,42.0,,,,,0,note_on,,95.0,42.0,95.0,96960,50.5
4128,2.0,,,,,49.0,,,,,960,note_off,,95.0,49.0,95.0,97920,51.0
4129,2.0,,,,,42.0,,,,,0,note_off,,95.0,42.0,95.0,97920,51.0
4130,2.0,,,,,39.0,,,,,0,note_on,,95.0,39.0,95.0,97920,51.0
4131,2.0,,,,,39.0,,,,,240,note_off,,95.0,39.0,95.0,98160,51.125
4132,2.0,,,,,39.0,,,,,0,note_on,,95.0,39.0,95.0,98160,51.125
4133,2.0,,,,,39.0,,,,,240,note_off,,95.0,39.0,95.0,98400,51.25
4134,2.0,,,,,39.0,,,,,0,note_on,,95.0,39.0,95.0,98400,51.25
4135,2.0,,,,,39.0,,,,,240,note_off,,95.0,39.0,95.0,98640,51.375
4136,2.0,,,,,39.0,,,,,0,note_on,,95.0,39.0,95.0,98640,51.375
4137,2.0,,,,,39.0,,,,,240,note_off,,95.0,39.0,95.0,98880,51.5
4138,2.0,,,,,39.0,,,,,0,note_on,,95.0,39.0,95.0,98880,51.5
4139,2.0,,,,,39.0,,,,,240,note_off,,95.0,39.0,95.0,99120,51.625
4140,2.0,,,,,39.0,,,,,0,note_on,,95.0,39.0,95.0,99120,51.625
4141,2.0,,,,,39.0,,,,,240,note_off,,95.0,39.0,95.0,99360,51.75
4142,2.0,,,,,39.0,,,,,0,note_on,,95.0,39.0,95.0,99360,51.75
4143,2.0,,,,,39.0,,,,,240,note_off,,95.0,39.0,95.0,99600,51.875
4144,2.0,,,,,39.0,,,,,0,note_on,,95.0,39.0,95.0,99600,51.875
4145,2.0,,,,,39.0,,,,,240,note_off,,95.0,39.0,95.0,99840,52.0
4146,2.0,,,,,39.0,,,,,0,note_on,,95.0,39.0,95.0,99840,52.0
4147,2.0,,,,,39.0,,,,,240,note_off,,95.0,39.0,95.0,100080,52.125
4148,2.0,,,,,39.0,,,,,0,note_on,,95.0,39.0,95.0,100080,52.125
4149,2.0,,,,,39.0,,,,,240,note_off,,95.0,39.0,95.0,100320,52.25
4150,2.0,,,,,49.0,,,,,0,note_on,,95.0,49.0,95.0,100320,52.25
4151,2.0,,,,,42.0,,,,,0,note_on,,95.0,42.0,95.0,100320,52.25
4152,2.0,,,,,49.0,,,,,480,note_off,,95.0,49.0,95.0,100800,52.5
4153,2.0,,,,,42.0,,,,,0,note_off,,95.0,42.0,95.0,100800,52.5
4154,2.0,,,,,39.0,,,,,0,note_on,,95.0,39.0,95.0,100800,52.5
4155,2.0,,,,,39.0,,,,,240,note_off,,95.0,39.0,95.0,101040,52.625
4156,2.0,,,,,39.0,,,,,0,note_on,,95.0,39.0,95.0,101040,52.625
4157,2.0,,,,,39.0,,,,,240,note_off,,95.0,39.0,95.0,101280,52.75
4158,2.0,,,,,49.0,,,,,0,note_on,,95.0,49.0,95.0,101280,52.75
4159,2.0,,,,,42.0,,,,,0,note_on,,95.0,42.0,95.0,101280,52.75
4160,2.0,,,,,49.0,,,,,480,note_off,,95.0,49.0,95.0,101760,53.0
4161,2.0,,,,,42.0,,,,,0,note_off,,95.0,42.0,95.0,101760,53.0
4162,2.0,,,,,48.0,,,,,0,note_on,,95.0,48.0,95.0,101760,53.0
4163,2.0,,,,,41.0,,,,,0,note_on,,95.0,41.0,95.0,101760,53.0
4164,2.0,,,,,48.0,,,,,2880,note_off,,95.0,48.0,95.0,104640,54.5
4165,2.0,,,,,41.0,,,,,0,note_off,,95.0,41.0,95.0,104640,54.5
4166,2.0,,,,,52.0,,,,,0,note_on,,95.0,52.0,95.0,104640,54.5
4167,2.0,,,,,45.0,,,,,0,note_on,,95.0,45.0,95.0,104640,54.5
4168,2.0,,,,,52.0,,,,,960,note_off,,95.0,52.0,95.0,105600,55.0
4169,2.0,,,,,45.0,,,,,0,note_off,,95.0,45.0,95.0,105600,55.0
4170,2.0,,,,,39.0,,,,,0,note_on,,95.0,39.0,95.0,105600,55.0
4171,2.0,,,,,39.0,,,,,240,note_off,,95.0,39.0,95.0,105840,55.125
4172,2.0,,,,,39.0,,,,,0,note_on,,95.0,39.0,95.0,105840,55.125
4173,2.0,,,,,39.0,,,,,240,note_off,,95.0,39.0,95.0,106080,55.25
4174,2.0,,,,,39.0,,,,,0,note_on,,95.0,39.0,95.0,106080,55.25
4175,2.0,,,,,39.0,,,,,240,note_off,,95.0,39.0,95.0,106320,55.375
4176,2.0,,,,,39.0,,,,,0,note_on,,95.0,39.0,95.0,106320,55.375
4177,2.0,,,,,39.0,,,,,240,note_off,,95.0,39.0,95.0,106560,55.5
4178,2.0,,,,,39.0,,,,,0,note_on,,95.0,39.0,95.0,106560,55.5
4179,2.0,,,,,39.0,,,,,240,note_off,,95.0,39.0,95.0,106800,55.625
4180,2.0,,,,,39.0,,,,,0,note_on,,95.0,39.0,95.0,106800,55.625
4181,2.0,,,,,39.0,,,,,240,note_off,,95.0,39.0,95.0,107040,55.75
4182,2.0,,,,,39.0,,,,,0,note_on,,95.0,39.0,95.0,107040,55.75
4183,2.0,,,,,39.0,,,,,240,note_off,,95.0,39.0,95.0,107280,55.875
4184,2.0,,,,,39.0,,,,,0,note_on,,95.0,39.0,95.0,107280,55.875
4185,2.0,,,,,39.0,,,,,240,note_off,,95.0,39.0,95.0,107520,56.0
4186,2.0,,,,,39.0,,,,,0,note_on,,95.0,39.0,95.0,107520,56.0
4187,2.0,,,,,39.0,,,,,240,note_off,,95.0,39.0,95.0,107760,56.125
4188,2.0,,,,,39.0,,,,,0,note_on,,95.0,39.0,95.0,107760,56.125
4189,2.0,,,,,39.0,,,,,240,note_off,,95.0,39.0,95.0,108000,56.25
4190,2.0,,,,,46.0,,,,,0,note_on,,95.0,46.0,95.0,108000,56.25
4191,2.0,,,,,39.0,,,,,0,note_on,,95.0,39.0,95.0,108000,56.25
4192,2.0,,,,,46.0,,,,,480,note_off,,95.0,46.0,95.0,108480,56.5
4193,2.0,,,,,39.0,,,,,0,note_off,,95.0,39.0,95.0,108480,56.5
4194,2.0,,,,,39.0,,,,,0,note_on,,95.0,39.0,95.0,108480,56.5
4195,2.0,,,,,39.0,,,,,240,note_off,,95.0,39.0,95.0,108720,56.625
4196,2.0,,,,,39.0,,,,,0,note_on,,95.0,39.0,95.0,108720,56.625
4197,2.0,,,,,39.0,,,,,240,note_off,,95.0,39.0,95.0,108960,56.75
4198,2.0,,,,,47.0,,,,,0,note_on,,95.0,47.0,95.0,108960,56.75
4199,2.0,,,,,40.0,,,,,0,note_on,,95.0,40.0,95.0,108960,56.75
4200,2.0,,,,,47.0,,,,,480,note_off,,95.0,47.0,95.0,109440,57.0
4201,2.0,,,,,40.0,,,,,0,note_off,,95.0,40.0,95.0,109440,57.0
4202,2.0,,,,,48.0,,,,,0,note_on,,95.0,48.0,95.0,109440,57.0
4203,2.0,,,,,41.0,,,,,0,note_on,,95.0,41.0,95.0,109440,57.0
4204,2.0,,,,,48.0,,,,,2880,note_off,,95.0,48.0,95.0,112320,58.5
4205,2.0,,,,,41.0,,,,,0,note_off,,95.0,41.0,95.0,112320,58.5
4206,2.0,,,,,49.0,,,,,0,note_on,,95.0,49.0,95.0,112320,58.5
4207,2.0,,,,,42.0,,,,,0,note_on,,95.0,42.0,95.0,112320,58.5
4208,2.0,,,,,49.0,,,,,960,note_off,,95.0,49.0,95.0,113280,59.0
4209,2.0,,,,,42.0,,,,,0,note_off,,95.0,42.0,95.0,113280,59.0
4210,2.0,,,,,39.0,,,,,0,note_on,,95.0,39.0,95.0,113280,59.0
4211,2.0,,,,,39.0,,,,,240,note_off,,95.0,39.0,95.0,113520,59.125
4212,2.0,,,,,39.0,,,,,0,note_on,,95.0,39.0,95.0,113520,59.125
4213,2.0,,,,,39.0,,,,,240,note_off,,95.0,39.0,95.0,113760,59.25
4214,2.0,,,,,39.0,,,,,0,note_on,,95.0,39.0,95.0,113760,59.25
4215,2.0,,,,,39.0,,,,,240,note_off,,95.0,39.0,95.0,114000,59.375
4216,2.0,,,,,39.0,,,,,0,note_on,,95.0,39.0,95.0,114000,59.375
4217,2.0,,,,,39.0,,,,,240,note_off,,95.0,39.0,95.0,114240,59.5
4218,2.0,,,,,39.0,,,,,0,note_on,,95.0,39.0,95.0,114240,59.5
4219,2.0,,,,,39.0,,,,,240,note_off,,95.0,39.0,95.0,114480,59.625
4220,2.0,,,,,39.0,,,,,0,note_on,,95.0,39.0,95.0,114480,59.625
4221,2.0,,,,,39.0,,,,,240,note_off,,95.0,39.0,95.0,114720,59.75
4222,2.0,,,,,39.0,,,,,0,note_on,,95.0,39.0,95.0,114720,59.75
4223,2.0,,,,,39.0,,,,,240,note_off,,95.0,39.0,95.0,114960,59.875
4224,2.0,,,,,39.0,,,,,0,note_on,,95.0,39.0,95.0,114960,59.875
4225,2.0,,,,,39.0,,,,,240,note_off,,95.0,39.0,95.0,115200,60.0
4226,2.0,,,,,39.0,,,,,0,note_on,,95.0,39.0,95.0,115200,60.0
4227,2.0,,,,,39.0,,,,,240,note_off,,95.0,39.0,95.0,115440,60.125
4228,2.0,,,,,39.0,,,,,0,note_on,,95.0,39.0,95.0,115440,60.125
4229,2.0,,,,,39.0,,,,,240,note_off,,95.0,39.0,95.0,115680,60.25
4230,2.0,,,,,49.0,,,,,0,note_on,,95.0,49.0,95.0,115680,60.25
4231,2.0,,,,,42.0,,,,,0,note_on,,95.0,42.0,95.0,115680,60.25
4232,2.0,,,,,49.0,,,,,480,note_off,,95.0,49.0,95.0,116160,60.5
4233,2.0,,,,,42.0,,,,,0,note_off,,95.0,42.0,95.0,116160,60.5
4234,2.0,,,,,39.0,,,,,0,note_on,,95.0,39.0,95.0,116160,60.5
4235,2.0,,,,,39.0,,,,,240,note_off,,95.0,39.0,95.0,116400,60.625
4236,2.0,,,,,39.0,,,,,0,note_on,,95.0,39.0,95.0,116400,60.625
4237,2.0,,,,,39.0,,,,,240,note_off,,95.0,39.0,95.0,116640,60.75
4238,2.0,,,,,49.0,,,,,0,note_on,,95.0,49.0,95.0,116640,60.75
4239,2.0,,,,,42.0,,,,,0,note_on,,95.0,42.0,95.0,116640,60.75
4240,2.0,,,,,49.0,,,,,480,note_off,,95.0,49.0,95.0,117120,61.0
4241,2.0,,,,,42.0,,,,,0,note_off,,95.0,42.0,95.0,117120,61.0
4242,2.0,,,,,48.0,,,,,0,note_on,,95.0,48.0,95.0,117120,61.0
4243,2.0,,,,,41.0,,,,,0,note_on,,95.0,41.0,95.0,117120,61.0
4244,2.0,,,,,48.0,,,,,1920,note_off,,95.0,48.0,95.0,119040,62.0
4245,2.0,,,,,41.0,,,,,0,note_off,,95.0,41.0,95.0,119040,62.0
4246,2.0,,,,,51.0,,,,,0,note_on,,95.0,51.0,95.0,119040,62.0
4247,2.0,,,,,44.0,,,,,0,note_on,,95.0,44.0,95.0,119040,62.0
4248,2.0,,,,,51.0,,,,,960,note_off,,95.0,51.0,95.0,120000,62.5
4249,2.0,,,,,44.0,,,,,0,note_off,,95.0,44.0,95.0,120000,62.5
4250,2.0,,,,,50.0,,,,,0,note_on,,95.0,50.0,95.0,120000,62.5
4251,2.0,,,,,43.0,,,,,0,note_on,,95.0,43.0,95.0,120000,62.5
4252,2.0,,,,,50.0,,,,,480,note_off,,95.0,50.0,95.0,120480,62.75
4253,2.0,,,,,43.0,,,,,0,note_off,,95.0,43.0,95.0,120480,62.75
4254,2.0,,,,,49.0,,,,,0,note_on,,95.0,49.0,95.0,120480,62.75
4255,2.0,,,,,42.0,,,,,0,note_on,,95.0,42.0,95.0,120480,62.75
4256,2.0,,,,,49.0,,,,,480,note_off,,95.0,49.0,95.0,120960,63.0
4257,2.0,,,,,42.0,,,,,0,note_off,,95.0,42.0,95.0,120960,63.0
4258,2.0,,,,,39.0,,,,,0,note_on,,95.0,39.0,95.0,120960,63.0
4259,2.0,,,,,39.0,,,,,240,note_off,,95.0,39.0,95.0,121200,63.125
4260,2.0,,,,,39.0,,,,,0,note_on,,95.0,39.0,95.0,121200,63.125
4261,2.0,,,,,39.0,,,,,240,note_off,,95.0,39.0,95.0,121440,63.25
4262,2.0,,,,,39.0,,,,,240,note_on,,95.0,39.0,95.0,121680,63.375
4263,3.0,,,,,49.0,,,,,180,note_on,,95.0,49.0,95.0,28980,15.09375
4264,2.0,,,,,39.0,,,,,60,note_off,,95.0,39.0,95.0,121740,63.40625
4265,3.0,,,,,49.0,,,,,0,note_off,,95.0,49.0,95.0,28980,15.09375
4266,3.0,,,,,51.0,,,,,0,note_on,,95.0,51.0,95.0,28980,15.09375
4267,2.0,,,,,39.0,,,,,0,note_on,,95.0,39.0,95.0,121740,63.40625
4268,3.0,,,,,51.0,,,,,480,note_off,,95.0,51.0,95.0,29460,15.34375
4269,2.0,,,,,39.0,,,,,0,note_off,,95.0,39.0,95.0,121740,63.40625
4270,2.0,,,,,39.0,,,,,0,note_on,,95.0,39.0,95.0,121740,63.40625
4271,2.0,,,,,39.0,,,,,240,note_off,,95.0,39.0,95.0,121980,63.53125
4272,2.0,,,,,39.0,,,,,0,note_on,,95.0,39.0,95.0,121980,63.53125
4273,2.0,,,,,39.0,,,,,240,note_off,,95.0,39.0,95.0,122220,63.65625
4274,2.0,,,,,39.0,,,,,240,note_on,,95.0,39.0,95.0,122460,63.78125
4275,2.0,,,,,39.0,,,,,240,note_off,,95.0,39.0,95.0,122700,63.90625
4276,2.0,,,,,59.0,,,,,0,note_on,,95.0,59.0,95.0,122700,63.90625
4277,2.0,,,,,52.0,,,,,0,note_on,,95.0,52.0,95.0,122700,63.90625
4278,2.0,,,,,59.0,,,,,480,note_off,,95.0,59.0,95.0,123180,64.15625
4279,2.0,,,,,52.0,,,,,0,note_off,,95.0,52.0,95.0,123180,64.15625
4280,2.0,,,,,39.0,,,,,0,note_on,,95.0,39.0,95.0,123180,64.15625
4281,2.0,,,,,39.0,,,,,240,note_off,,95.0,39.0,95.0,123420,64.28125
4282,2.0,,,,,39.0,,,,,0,note_on,,95.0,39.0,95.0,123420,64.28125
4283,2.0,,,,,39.0,,,,,240,note_off,,95.0,39.0,95.0,123660,64.40625
4284,2.0,,,,,57.0,,,,,0,note_on,,95.0,57.0,95.0,123660,64.40625
4285,2.0,,,,,50.0,,,,,0,note_on,,95.0,50.0,95.0,123660,64.40625
4286,2.0,,,,,57.0,,,,,480,note_off,,95.0,57.0,95.0,124140,64.65625
4287,2.0,,,,,50.0,,,,,0,note_off,,95.0,50.0,95.0,124140,64.65625
4288,2.0,,,,,39.0,,,,,0,note_on,,95.0,39.0,95.0,124140,64.65625
4289,2.0,,,,,39.0,,,,,240,note_off,,95.0,39.0,95.0,124380,64.78125
4290,2.0,,,,,39.0,,,,,0,note_on,,95.0,39.0,95.0,124380,64.78125
4291,2.0,,,,,39.0,,,,,240,note_off,,95.0,39.0,95.0,124620,64.90625
4292,2.0,,,,,39.0,,,,,240,note_on,,95.0,39.0,95.0,124860,65.03125
4293,3.0,,,,,49.0,,,,,180,note_on,,95.0,49.0,95.0,29640,15.4375
4294,2.0,,,,,39.0,,,,,60,note_off,,95.0,39.0,95.0,124920,65.0625
4295,3.0,,,,,49.0,,,,,0,note_off,,95.0,49.0,95.0,29640,15.4375
4296,3.0,,,,,51.0,,,,,0,note_on,,95.0,51.0,95.0,29640,15.4375
4297,2.0,,,,,39.0,,,,,0,note_on,,95.0,39.0,95.0,124920,65.0625
4298,3.0,,,,,51.0,,,,,480,note_off,,95.0,51.0,95.0,30120,15.6875
4299,2.0,,,,,39.0,,,,,0,note_off,,95.0,39.0,95.0,124920,65.0625
4300,2.0,,,,,39.0,,,,,0,note_on,,95.0,39.0,95.0,124920,65.0625
4301,2.0,,,,,39.0,,,,,240,note_off,,95.0,39.0,95.0,125160,65.1875
4302,2.0,,,,,39.0,,,,,0,note_on,,95.0,39.0,95.0,125160,65.1875
4303,2.0,,,,,39.0,,,,,240,note_off,,95.0,39.0,95.0,125400,65.3125
4304,2.0,,,,,39.0,,,,,240,note_on,,95.0,39.0,95.0,125640,65.4375
4305,2.0,,,,,39.0,,,,,240,note_off,,95.0,39.0,95.0,125880,65.5625
4306,2.0,,,,,61.0,,,,,0,note_on,,95.0,61.0,95.0,125880,65.5625
4307,2.0,,,,,54.0,,,,,0,note_on,,95.0,54.0,95.0,125880,65.5625
4308,2.0,,,,,61.0,,,,,480,note_off,,95.0,61.0,95.0,126360,65.8125
4309,2.0,,,,,54.0,,,,,0,note_off,,95.0,54.0,95.0,126360,65.8125
4310,2.0,,,,,39.0,,,,,0,note_on,,95.0,39.0,95.0,126360,65.8125
4311,2.0,,,,,39.0,,,,,240,note_off,,95.0,39.0,95.0,126600,65.9375
4312,2.0,,,,,39.0,,,,,0,note_on,,95.0,39.0,95.0,126600,65.9375
4313,2.0,,,,,39.0,,,,,240,note_off,,95.0,39.0,95.0,126840,66.0625
4314,2.0,,,,,60.0,,,,,0,note_on,,95.0,60.0,95.0,126840,66.0625
4315,2.0,,,,,53.0,,,,,0,note_on,,95.0,53.0,95.0,126840,66.0625
4316,2.0,,,,,60.0,,,,,480,note_off,,95.0,60.0,95.0,127320,66.3125
4317,2.0,,,,,53.0,,,,,0,note_off,,95.0,53.0,95.0,127320,66.3125
4318,2.0,,,,,39.0,,,,,0,note_on,,95.0,39.0,95.0,127320,66.3125
4319,2.0,,,,,39.0,,,,,240,note_off,,95.0,39.0,95.0,127560,66.4375
4320,2.0,,,,,39.0,,,,,0,note_on,,95.0,39.0,95.0,127560,66.4375
4321,2.0,,,,,39.0,,,,,240,note_off,,95.0,39.0,95.0,127800,66.5625
4322,2.0,,,,,39.0,,,,,240,note_on,,95.0,39.0,95.0,128040,66.6875
4323,3.0,,,,,49.0,,,,,180,note_on,,95.0,49.0,95.0,30300,15.78125
4324,2.0,,,,,39.0,,,,,60,note_off,,95.0,39.0,95.0,128100,66.71875
4325,3.0,,,,,49.0,,,,,0,note_off,,95.0,49.0,95.0,30300,15.78125
4326,3.0,,,,,51.0,,,,,0,note_on,,95.0,51.0,95.0,30300,15.78125
4327,2.0,,,,,39.0,,,,,0,note_on,,95.0,39.0,95.0,128100,66.71875
4328,3.0,,,,,51.0,,,,,480,note_off,,95.0,51.0,95.0,30780,16.03125
4329,2.0,,,,,39.0,,,,,0,note_off,,95.0,39.0,95.0,128100,66.71875
4330,2.0,,,,,39.0,,,,,0,note_on,,95.0,39.0,95.0,128100,66.71875
4331,2.0,,,,,39.0,,,,,240,note_off,,95.0,39.0,95.0,128340,66.84375
4332,2.0,,,,,39.0,,,,,0,note_on,,95.0,39.0,95.0,128340,66.84375
4333,2.0,,,,,39.0,,,,,240,note_off,,95.0,39.0,95.0,128580,66.96875
4334,2.0,,,,,39.0,,,,,240,note_on,,95.0,39.0,95.0,128820,67.09375
4335,2.0,,,,,39.0,,,,,240,note_off,,95.0,39.0,95.0,129060,67.21875
4336,2.0,,,,,59.0,,,,,0,note_on,,95.0,59.0,95.0,129060,67.21875
4337,2.0,,,,,52.0,,,,,0,note_on,,95.0,52.0,95.0,129060,67.21875
4338,2.0,,,,,59.0,,,,,480,note_off,,95.0,59.0,95.0,129540,67.46875
4339,2.0,,,,,52.0,,,,,0,note_off,,95.0,52.0,95.0,129540,67.46875
4340,2.0,,,,,39.0,,,,,0,note_on,,95.0,39.0,95.0,129540,67.46875
4341,2.0,,,,,39.0,,,,,240,note_off,,95.0,39.0,95.0,129780,67.59375
4342,2.0,,,,,39.0,,,,,0,note_on,,95.0,39.0,95.0,129780,67.59375
4343,2.0,,,,,39.0,,,,,240,note_off,,95.0,39.0,95.0,130020,67.71875
4344,2.0,,,,,57.0,,,,,0,note_on,,95.0,57.0,95.0,130020,67.71875
4345,2.0,,,,,50.0,,,,,0,note_on,,95.0,50.0,95.0,130020,67.71875
4346,2.0,,,,,57.0,,,,,480,note_off,,95.0,57.0,95.0,130500,67.96875
4347,2.0,,,,,50.0,,,,,0,note_off,,95.0,50.0,95.0,130500,67.96875
4348,2.0,,,,,39.0,,,,,0,note_on,,95.0,39.0,95.0,130500,67.96875
4349,2.0,,,,,39.0,,,,,240,note_off,,95.0,39.0,95.0,130740,68.09375
4350,2.0,,,,,39.0,,,,,0,note_on,,95.0,39.0,95.0,130740,68.09375
4351,2.0,,,,,39.0,,,,,240,note_off,,95.0,39.0,95.0,130980,68.21875
4352,2.0,,,,,39.0,,,,,240,note_on,,95.0,39.0,95.0,131220,68.34375
4353,3.0,,,,,49.0,,,,,180,note_on,,95.0,49.0,95.0,30960,16.125
4354,2.0,,,,,39.0,,,,,60,note_off,,95.0,39.0,95.0,131280,68.375
4355,3.0,,,,,49.0,,,,,0,note_off,,95.0,49.0,95.0,30960,16.125
4356,3.0,,,,,51.0,,,,,0,note_on,,95.0,51.0,95.0,30960,16.125
4357,2.0,,,,,39.0,,,,,0,note_on,,95.0,39.0,95.0,131280,68.375
4358,3.0,,,,,51.0,,,,,480,note_off,,95.0,51.0,95.0,31440,16.375
4359,2.0,,,,,39.0,,,,,0,note_off,,95.0,39.0,95.0,131280,68.375
4360,2.0,,,,,39.0,,,,,0,note_on,,95.0,39.0,95.0,131280,68.375
4361,2.0,,,,,39.0,,,,,240,note_off,,95.0,39.0,95.0,131520,68.5
4362,2.0,,,,,39.0,,,,,0,note_on,,95.0,39.0,95.0,131520,68.5
4363,2.0,,,,,39.0,,,,,240,note_off,,95.0,39.0,95.0,131760,68.625
4364,2.0,,,,,39.0,,,,,240,note_on,,95.0,39.0,95.0,132000,68.75
4365,2.0,,,,,39.0,,,,,240,note_off,,95.0,39.0,95.0,132240,68.875
4366,2.0,,,,,49.0,,,,,0,note_on,,95.0,49.0,95.0,132240,68.875
4367,2.0,,,,,42.0,,,,,0,note_on,,95.0,42.0,95.0,132240,68.875
4368,2.0,,,,,49.0,,,,,480,note_off,,95.0,49.0,95.0,132720,69.125
4369,2.0,,,,,42.0,,,,,0,note_off,,95.0,42.0,95.0,132720,69.125
4370,2.0,,,,,39.0,,,,,0,note_on,,95.0,39.0,95.0,132720,69.125
4371,2.0,,,,,39.0,,,,,240,note_off,,95.0,39.0,95.0,132960,69.25
4372,2.0,,,,,39.0,,,,,0,note_on,,95.0,39.0,95.0,132960,69.25
4373,2.0,,,,,39.0,,,,,240,note_off,,95.0,39.0,95.0,133200,69.375
4374,2.0,,,,,48.0,,,,,0,note_on,,95.0,48.0,95.0,133200,69.375
4375,2.0,,,,,41.0,,,,,0,note_on,,95.0,41.0,95.0,133200,69.375
4376,2.0,,,,,48.0,,,,,480,note_off,,95.0,48.0,95.0,133680,69.625
4377,2.0,,,,,41.0,,,,,0,note_off,,95.0,41.0,95.0,133680,69.625
4378,2.0,,,,,39.0,,,,,0,note_on,,95.0,39.0,95.0,133680,69.625
4379,2.0,,,,,39.0,,,,,240,note_off,,95.0,39.0,95.0,133920,69.75
4380,2.0,,,,,39.0,,,,,0,note_on,,95.0,39.0,95.0,133920,69.75
4381,2.0,,,,,39.0,,,,,240,note_off,,95.0,39.0,95.0,134160,69.875
4382,2.0,,,,,39.0,,,,,240,note_on,,95.0,39.0,95.0,134400,70.0
4383,3.0,,,,,49.0,,,,,180,note_on,,95.0,49.0,95.0,31620,16.46875
4384,2.0,,,,,39.0,,,,,60,note_off,,95.0,39.0,95.0,134460,70.03125
4385,3.0,,,,,49.0,,,,,0,note_off,,95.0,49.0,95.0,31620,16.46875
4386,3.0,,,,,51.0,,,,,0,note_on,,95.0,51.0,95.0,31620,16.46875
4387,2.0,,,,,39.0,,,,,0,note_on,,95.0,39.0,95.0,134460,70.03125
4388,3.0,,,,,51.0,,,,,480,note_off,,95.0,51.0,95.0,32100,16.71875
4389,2.0,,,,,39.0,,,,,0,note_off,,95.0,39.0,95.0,134460,70.03125
4390,2.0,,,,,39.0,,,,,0,note_on,,95.0,39.0,95.0,134460,70.03125
4391,2.0,,,,,39.0,,,,,240,note_off,,95.0,39.0,95.0,134700,70.15625
4392,2.0,,,,,39.0,,,,,0,note_on,,95.0,39.0,95.0,134700,70.15625
4393,2.0,,,,,39.0,,,,,240,note_off,,95.0,39.0,95.0,134940,70.28125
4394,2.0,,,,,39.0,,,,,240,note_on,,95.0,39.0,95.0,135180,70.40625
4395,2.0,,,,,39.0,,,,,240,note_off,,95.0,39.0,95.0,135420,70.53125
4396,2.0,,,,,59.0,,,,,0,note_on,,95.0,59.0,95.0,135420,70.53125
4397,2.0,,,,,52.0,,,,,0,note_on,,95.0,52.0,95.0,135420,70.53125
4398,2.0,,,,,59.0,,,,,480,note_off,,95.0,59.0,95.0,135900,70.78125
4399,2.0,,,,,52.0,,,,,0,note_off,,95.0,52.0,95.0,135900,70.78125
4400,2.0,,,,,39.0,,,,,0,note_on,,95.0,39.0,95.0,135900,70.78125
4401,2.0,,,,,39.0,,,,,240,note_off,,95.0,39.0,95.0,136140,70.90625
4402,2.0,,,,,39.0,,,,,0,note_on,,95.0,39.0,95.0,136140,70.90625
4403,2.0,,,,,39.0,,,,,240,note_off,,95.0,39.0,95.0,136380,71.03125
4404,2.0,,,,,57.0,,,,,0,note_on,,95.0,57.0,95.0,136380,71.03125
4405,2.0,,,,,50.0,,,,,0,note_on,,95.0,50.0,95.0,136380,71.03125
4406,2.0,,,,,57.0,,,,,480,note_off,,95.0,57.0,95.0,136860,71.28125
4407,2.0,,,,,50.0,,,,,0,note_off,,95.0,50.0,95.0,136860,71.28125
4408,2.0,,,,,39.0,,,,,0,note_on,,95.0,39.0,95.0,136860,71.28125
4409,2.0,,,,,39.0,,,,,240,note_off,,95.0,39.0,95.0,137100,71.40625
4410,2.0,,,,,39.0,,,,,0,note_on,,95.0,39.0,95.0,137100,71.40625
4411,2.0,,,,,39.0,,,,,240,note_off,,95.0,39.0,95.0,137340,71.53125
4412,2.0,,,,,39.0,,,,,240,note_on,,95.0,39.0,95.0,137580,71.65625
4413,3.0,,,,,49.0,,,,,180,note_on,,95.0,49.0,95.0,32280,16.8125
4414,2.0,,,,,39.0,,,,,60,note_off,,95.0,39.0,95.0,137640,71.6875
4415,3.0,,,,,49.0,,,,,0,note_off,,95.0,49.0,95.0,32280,16.8125
4416,3.0,,,,,51.0,,,,,0,note_on,,95.0,51.0,95.0,32280,16.8125
4417,2.0,,,,,39.0,,,,,0,note_on,,95.0,39.0,95.0,137640,71.6875
4418,3.0,,,,,51.0,,,,,480,note_off,,95.0,51.0,95.0,32760,17.0625
4419,2.0,,,,,39.0,,,,,0,note_off,,95.0,39.0,95.0,137640,71.6875
4420,2.0,,,,,39.0,,,,,0,note_on,,95.0,39.0,95.0,137640,71.6875
4421,2.0,,,,,39.0,,,,,240,note_off,,95.0,39.0,95.0,137880,71.8125
4422,2.0,,,,,39.0,,,,,0,note_on,,95.0,39.0,95.0,137880,71.8125
4423,2.0,,,,,39.0,,,,,240,note_off,,95.0,39.0,95.0,138120,71.9375
4424,2.0,,,,,39.0,,,,,240,note_on,,95.0,39.0,95.0,138360,72.0625
4425,2.0,,,,,39.0,,,,,240,note_off,,95.0,39.0,95.0,138600,72.1875
4426,2.0,,,,,61.0,,,,,0,note_on,,95.0,61.0,95.0,138600,72.1875
4427,2.0,,,,,54.0,,,,,0,note_on,,95.0,54.0,95.0,138600,72.1875
4428,2.0,,,,,61.0,,,,,480,note_off,,95.0,61.0,95.0,139080,72.4375
4429,2.0,,,,,54.0,,,,,0,note_off,,95.0,54.0,95.0,139080,72.4375
4430,2.0,,,,,39.0,,,,,0,note_on,,95.0,39.0,95.0,139080,72.4375
4431,2.0,,,,,39.0,,,,,240,note_off,,95.0,39.0,95.0,139320,72.5625
4432,2.0,,,,,39.0,,,,,0,note_on,,95.0,39.0,95.0,139320,72.5625
4433,2.0,,,,,39.0,,,,,240,note_off,,95.0,39.0,95.0,139560,72.6875
4434,2.0,,,,,60.0,,,,,0,note_on,,95.0,60.0,95.0,139560,72.6875
4435,2.0,,,,,53.0,,,,,0,note_on,,95.0,53.0,95.0,139560,72.6875
4436,2.0,,,,,60.0,,,,,480,note_off,,95.0,60.0,95.0,140040,72.9375
4437,2.0,,,,,53.0,,,,,0,note_off,,95.0,53.0,95.0,140040,72.9375
4438,2.0,,,,,39.0,,,,,0,note_on,,95.0,39.0,95.0,140040,72.9375
4439,2.0,,,,,39.0,,,,,240,note_off,,95.0,39.0,95.0,140280,73.0625
4440,2.0,,,,,39.0,,,,,0,note_on,,95.0,39.0,95.0,140280,73.0625
4441,2.0,,,,,39.0,,,,,240,note_off,,95.0,39.0,95.0,140520,73.1875
4442,2.0,,,,,39.0,,,,,240,note_on,,95.0,39.0,95.0,140760,73.3125
4443,3.0,,,,,49.0,,,,,180,note_on,,95.0,49.0,95.0,32940,17.15625
4444,2.0,,,,,39.0,,,,,60,note_off,,95.0,39.0,95.0,140820,73.34375
4445,3.0,,,,,49.0,,,,,0,note_off,,95.0,49.0,95.0,32940,17.15625
4446,3.0,,,,,51.0,,,,,0,note_on,,95.0,51.0,95.0,32940,17.15625
4447,2.0,,,,,39.0,,,,,0,note_on,,95.0,39.0,95.0,140820,73.34375
4448,3.0,,,,,51.0,,,,,480,note_off,,95.0,51.0,95.0,33420,17.40625
4449,2.0,,,,,39.0,,,,,0,note_off,,95.0,39.0,95.0,140820,73.34375
4450,2.0,,,,,39.0,,,,,0,note_on,,95.0,39.0,95.0,140820,73.34375
4451,2.0,,,,,39.0,,,,,240,note_off,,95.0,39.0,95.0,141060,73.46875
4452,2.0,,,,,39.0,,,,,0,note_on,,95.0,39.0,95.0,141060,73.46875
4453,2.0,,,,,39.0,,,,,240,note_off,,95.0,39.0,95.0,141300,73.59375
4454,2.0,,,,,39.0,,,,,240,note_on,,95.0,39.0,95.0,141540,73.71875
4455,2.0,,,,,39.0,,,,,240,note_off,,95.0,39.0,95.0,141780,73.84375
4456,2.0,,,,,59.0,,,,,0,note_on,,95.0,59.0,95.0,141780,73.84375
4457,2.0,,,,,52.0,,,,,0,note_on,,95.0,52.0,95.0,141780,73.84375
4458,2.0,,,,,59.0,,,,,480,note_off,,95.0,59.0,95.0,142260,74.09375
4459,2.0,,,,,52.0,,,,,0,note_off,,95.0,52.0,95.0,142260,74.09375
4460,2.0,,,,,39.0,,,,,0,note_on,,95.0,39.0,95.0,142260,74.09375
4461,2.0,,,,,39.0,,,,,240,note_off,,95.0,39.0,95.0,142500,74.21875
4462,2.0,,,,,39.0,,,,,0,note_on,,95.0,39.0,95.0,142500,74.21875
4463,2.0,,,,,39.0,,,,,240,note_off,,95.0,39.0,95.0,142740,74.34375
4464,2.0,,,,,57.0,,,,,0,note_on,,95.0,57.0,95.0,142740,74.34375
4465,2.0,,,,,50.0,,,,,0,note_on,,95.0,50.0,95.0,142740,74.34375
4466,2.0,,,,,57.0,,,,,480,note_off,,95.0,57.0,95.0,143220,74.59375
4467,2.0,,,,,50.0,,,,,0,note_off,,95.0,50.0,95.0,143220,74.59375
4468,2.0,,,,,39.0,,,,,0,note_on,,95.0,39.0,95.0,143220,74.59375
4469,2.0,,,,,39.0,,,,,240,note_off,,95.0,39.0,95.0,143460,74.71875
4470,2.0,,,,,39.0,,,,,0,note_on,,95.0,39.0,95.0,143460,74.71875
4471,2.0,,,,,39.0,,,,,240,note_off,,95.0,39.0,95.0,143700,74.84375
4472,2.0,,,,,39.0,,,,,240,note_on,,95.0,39.0,95.0,143940,74.96875
4473,3.0,,,,,49.0,,,,,180,note_on,,95.0,49.0,95.0,33600,17.5
4474,2.0,,,,,39.0,,,,,60,note_off,,95.0,39.0,95.0,144000,75.0
4475,3.0,,,,,49.0,,,,,0,note_off,,95.0,49.0,95.0,33600,17.5
4476,3.0,,,,,51.0,,,,,0,note_on,,95.0,51.0,95.0,33600,17.5
4477,2.0,,,,,39.0,,,,,0,note_on,,95.0,39.0,95.0,144000,75.0
4478,3.0,,,,,51.0,,,,,480,note_off,,95.0,51.0,95.0,34080,17.75
4479,2.0,,,,,39.0,,,,,0,note_off,,95.0,39.0,95.0,144000,75.0
4480,2.0,,,,,39.0,,,,,0,note_on,,95.0,39.0,95.0,144000,75.0
4481,2.0,,,,,39.0,,,,,240,note_off,,95.0,39.0,95.0,144240,75.125
4482,2.0,,,,,39.0,,,,,0,note_on,,95.0,39.0,95.0,144240,75.125
4483,2.0,,,,,39.0,,,,,240,note_off,,95.0,39.0,95.0,144480,75.25
4484,2.0,,,,,39.0,,,,,240,note_on,,95.0,39.0,95.0,144720,75.375
4485,2.0,,,,,39.0,,,,,240,note_off,,95.0,39.0,95.0,144960,75.5
4486,2.0,,,,,49.0,,,,,0,note_on,,95.0,49.0,95.0,144960,75.5
4487,2.0,,,,,42.0,,,,,0,note_on,,95.0,42.0,95.0,144960,75.5
4488,2.0,,,,,49.0,,,,,480,note_off,,95.0,49.0,95.0,145440,75.75
4489,2.0,,,,,42.0,,,,,0,note_off,,95.0,42.0,95.0,145440,75.75
4490,2.0,,,,,39.0,,,,,0,note_on,,95.0,39.0,95.0,145440,75.75
4491,2.0,,,,,39.0,,,,,240,note_off,,95.0,39.0,95.0,145680,75.875
4492,2.0,,,,,39.0,,,,,0,note_on,,95.0,39.0,95.0,145680,75.875
4493,2.0,,,,,39.0,,,,,240,note_off,,95.0,39.0,95.0,145920,76.0
4494,2.0,,,,,48.0,,,,,0,note_on,,95.0,48.0,95.0,145920,76.0
4495,2.0,,,,,41.0,,,,,0,note_on,,95.0,41.0,95.0,145920,76.0
4496,2.0,,,,,48.0,,,,,480,note_off,,95.0,48.0,95.0,146400,76.25
4497,2.0,,,,,41.0,,,,,0,note_off,,95.0,41.0,95.0,146400,76.25
4498,2.0,,,,,39.0,,,,,0,note_on,,95.0,39.0,95.0,146400,76.25
4499,2.0,,,,,39.0,,,,,240,note_off,,95.0,39.0,95.0,146640,76.375
4500,2.0,,,,,39.0,,,,,240,note_on,,95.0,39.0,95.0,146880,76.5
4501,2.0,,,,,39.0,,,,,240,note_off,,95.0,39.0,95.0,147120,76.625
4502,2.0,,,,,39.0,,,,,0,note_on,,95.0,39.0,95.0,147120,76.625
4503,3.0,,,,,49.0,,,,,180,note_on,,95.0,49.0,95.0,34260,17.84375
4504,2.0,,,,,39.0,,,,,60,note_off,,95.0,39.0,95.0,147180,76.65625
4505,3.0,,,,,49.0,,,,,0,note_off,,95.0,49.0,95.0,34260,17.84375
4506,3.0,,,,,51.0,,,,,0,note_on,,95.0,51.0,95.0,34260,17.84375
4507,2.0,,,,,39.0,,,,,0,note_on,,95.0,39.0,95.0,147180,76.65625
4508,3.0,,,,,51.0,,,,,960,note_off,,95.0,51.0,95.0,35220,18.34375
4509,2.0,,,,,39.0,,,,,0,note_off,,95.0,39.0,95.0,147180,76.65625
4510,2.0,,,,,39.0,,,,,0,note_on,,95.0,39.0,95.0,147180,76.65625
4511,2.0,,,,,39.0,,,,,240,note_off,,95.0,39.0,95.0,147420,76.78125
4512,2.0,,,,,39.0,,,,,240,note_on,,95.0,39.0,95.0,147660,76.90625
4513,2.0,,,,,39.0,,,,,240,note_off,,95.0,39.0,95.0,147900,77.03125
4514,2.0,,,,,39.0,,,,,0,note_on,,95.0,39.0,95.0,147900,77.03125
4515,2.0,,,,,39.0,,,,,240,note_off,,95.0,39.0,95.0,148140,77.15625
4516,2.0,,,,,59.0,,,,,0,note_on,,95.0,59.0,95.0,148140,77.15625
4517,2.0,,,,,52.0,,,,,0,note_on,,95.0,52.0,95.0,148140,77.15625
4518,2.0,,,,,59.0,,,,,240,note_off,,95.0,59.0,95.0,148380,77.28125
4519,2.0,,,,,52.0,,,,,0,note_off,,95.0,52.0,95.0,148380,77.28125
4520,2.0,,,,,58.0,,,,,0,note_on,,95.0,58.0,95.0,148380,77.28125
4521,2.0,,,,,51.0,,,,,0,note_on,,95.0,51.0,95.0,148380,77.28125
4522,2.0,,,,,58.0,,,,,240,note_off,,95.0,58.0,95.0,148620,77.40625
4523,2.0,,,,,51.0,,,,,0,note_off,,95.0,51.0,95.0,148620,77.40625
4524,2.0,,,,,57.0,,,,,0,note_on,,95.0,57.0,95.0,148620,77.40625
4525,2.0,,,,,50.0,,,,,0,note_on,,95.0,50.0,95.0,148620,77.40625
4526,2.0,,,,,57.0,,,,,480,note_off,,95.0,57.0,95.0,149100,77.65625
4527,2.0,,,,,50.0,,,,,0,note_off,,95.0,50.0,95.0,149100,77.65625
4528,2.0,,,,,39.0,,,,,0,note_on,,95.0,39.0,95.0,149100,77.65625
4529,2.0,,,,,39.0,,,,,240,note_off,,95.0,39.0,95.0,149340,77.78125
4530,2.0,,,,,39.0,,,,,240,note_on,,95.0,39.0,95.0,149580,77.90625
4531,2.0,,,,,39.0,,,,,240,note_off,,95.0,39.0,95.0,149820,78.03125
4532,2.0,,,,,39.0,,,,,0,note_on,,95.0,39.0,95.0,149820,78.03125
4533,3.0,,,,,49.0,,,,,180,note_on,,95.0,49.0,95.0,35400,18.4375
4534,2.0,,,,,39.0,,,,,60,note_off,,95.0,39.0,95.0,149880,78.0625
4535,3.0,,,,,49.0,,,,,0,note_off,,95.0,49.0,95.0,35400,18.4375
4536,3.0,,,,,51.0,,,,,0,note_on,,95.0,51.0,95.0,35400,18.4375
4537,2.0,,,,,39.0,,,,,0,note_on,,95.0,39.0,95.0,149880,78.0625
4538,3.0,,,,,51.0,,,,,960,note_off,,95.0,51.0,95.0,36360,18.9375
4539,2.0,,,,,39.0,,,,,0,note_off,,95.0,39.0,95.0,149880,78.0625
4540,2.0,,,,,39.0,,,,,0,note_on,,95.0,39.0,95.0,149880,78.0625
4541,2.0,,,,,39.0,,,,,240,note_off,,95.0,39.0,95.0,150120,78.1875
4542,2.0,,,,,39.0,,,,,240,note_on,,95.0,39.0,95.0,150360,78.3125
4543,2.0,,,,,39.0,,,,,240,note_off,,95.0,39.0,95.0,150600,78.4375
4544,2.0,,,,,39.0,,,,,0,note_on,,95.0,39.0,95.0,150600,78.4375
4545,2.0,,,,,39.0,,,,,240,note_off,,95.0,39.0,95.0,150840,78.5625
4546,2.0,,,,,61.0,,,,,0,note_on,,95.0,61.0,95.0,150840,78.5625
4547,2.0,,,,,54.0,,,,,0,note_on,,95.0,54.0,95.0,150840,78.5625
4548,2.0,,,,,61.0,,,,,240,note_off,,95.0,61.0,95.0,151080,78.6875
4549,2.0,,,,,54.0,,,,,0,note_off,,95.0,54.0,95.0,151080,78.6875
4550,2.0,,,,,60.0,,,,,0,note_on,,95.0,60.0,95.0,151080,78.6875
4551,2.0,,,,,53.0,,,,,0,note_on,,95.0,53.0,95.0,151080,78.6875
4552,2.0,,,,,60.0,,,,,240,note_off,,95.0,60.0,95.0,151320,78.8125
4553,2.0,,,,,53.0,,,,,0,note_off,,95.0,53.0,95.0,151320,78.8125
4554,2.0,,,,,59.0,,,,,0,note_on,,95.0,59.0,95.0,151320,78.8125
4555,2.0,,,,,52.0,,,,,0,note_on,,95.0,52.0,95.0,151320,78.8125
4556,2.0,,,,,59.0,,,,,480,note_off,,95.0,59.0,95.0,151800,79.0625
4557,2.0,,,,,52.0,,,,,0,note_off,,95.0,52.0,95.0,151800,79.0625
4558,2.0,,,,,39.0,,,,,0,note_on,,95.0,39.0,95.0,151800,79.0625
4559,2.0,,,,,39.0,,,,,240,note_off,,95.0,39.0,95.0,152040,79.1875
4560,2.0,,,,,39.0,,,,,240,note_on,,95.0,39.0,95.0,152280,79.3125
4561,2.0,,,,,39.0,,,,,240,note_off,,95.0,39.0,95.0,152520,79.4375
4562,2.0,,,,,39.0,,,,,0,note_on,,95.0,39.0,95.0,152520,79.4375
4563,3.0,,,,,49.0,,,,,180,note_on,,95.0,49.0,95.0,36540,19.03125
4564,2.0,,,,,39.0,,,,,60,note_off,,95.0,39.0,95.0,152580,79.46875
4565,3.0,,,,,49.0,,,,,0,note_off,,95.0,49.0,95.0,36540,19.03125
4566,3.0,,,,,51.0,,,,,0,note_on,,95.0,51.0,95.0,36540,19.03125
4567,2.0,,,,,39.0,,,,,0,note_on,,95.0,39.0,95.0,152580,79.46875
4568,3.0,,,,,51.0,,,,,960,note_off,,95.0,51.0,95.0,37500,19.53125
4569,2.0,,,,,39.0,,,,,0,note_off,,95.0,39.0,95.0,152580,79.46875
4570,2.0,,,,,39.0,,,,,0,note_on,,95.0,39.0,95.0,152580,79.46875
4571,2.0,,,,,39.0,,,,,240,note_off,,95.0,39.0,95.0,152820,79.59375
4572,2.0,,,,,39.0,,,,,240,note_on,,95.0,39.0,95.0,153060,79.71875
4573,2.0,,,,,39.0,,,,,240,note_off,,95.0,39.0,95.0,153300,79.84375
4574,2.0,,,,,39.0,,,,,0,note_on,,95.0,39.0,95.0,153300,79.84375
4575,2.0,,,,,39.0,,,,,240,note_off,,95.0,39.0,95.0,153540,79.96875
4576,2.0,,,,,59.0,,,,,0,note_on,,95.0,59.0,95.0,153540,79.96875
4577,2.0,,,,,52.0,,,,,0,note_on,,95.0,52.0,95.0,153540,79.96875
4578,2.0,,,,,59.0,,,,,240,note_off,,95.0,59.0,95.0,153780,80.09375
4579,2.0,,,,,52.0,,,,,0,note_off,,95.0,52.0,95.0,153780,80.09375
4580,2.0,,,,,58.0,,,,,0,note_on,,95.0,58.0,95.0,153780,80.09375
4581,2.0,,,,,51.0,,,,,0,note_on,,95.0,51.0,95.0,153780,80.09375
4582,2.0,,,,,58.0,,,,,240,note_off,,95.0,58.0,95.0,154020,80.21875
4583,2.0,,,,,51.0,,,,,0,note_off,,95.0,51.0,95.0,154020,80.21875
4584,2.0,,,,,57.0,,,,,0,note_on,,95.0,57.0,95.0,154020,80.21875
4585,2.0,,,,,50.0,,,,,0,note_on,,95.0,50.0,95.0,154020,80.21875
4586,2.0,,,,,57.0,,,,,480,note_off,,95.0,57.0,95.0,154500,80.46875
4587,2.0,,,,,50.0,,,,,0,note_off,,95.0,50.0,95.0,154500,80.46875
4588,2.0,,,,,39.0,,,,,0,note_on,,95.0,39.0,95.0,154500,80.46875
4589,2.0,,,,,39.0,,,,,240,note_off,,95.0,39.0,95.0,154740,80.59375
4590,2.0,,,,,39.0,,,,,240,note_on,,95.0,39.0,95.0,154980,80.71875
4591,2.0,,,,,39.0,,,,,240,note_off,,95.0,39.0,95.0,155220,80.84375
4592,2.0,,,,,39.0,,,,,0,note_on,,95.0,39.0,95.0,155220,80.84375
4593,3.0,,,,,49.0,,,,,180,note_on,,95.0,49.0,95.0,37680,19.625
4594,2.0,,,,,39.0,,,,,60,note_off,,95.0,39.0,95.0,155280,80.875
4595,3.0,,,,,49.0,,,,,0,note_off,,95.0,49.0,95.0,37680,19.625
4596,3.0,,,,,51.0,,,,,0,note_on,,95.0,51.0,95.0,37680,19.625
4597,2.0,,,,,39.0,,,,,0,note_on,,95.0,39.0,95.0,155280,80.875
4598,3.0,,,,,51.0,,,,,960,note_off,,95.0,51.0,95.0,38640,20.125
4599,2.0,,,,,39.0,,,,,0,note_off,,95.0,39.0,95.0,155280,80.875
4600,2.0,,,,,39.0,,,,,0,note_on,,95.0,39.0,95.0,155280,80.875
4601,2.0,,,,,39.0,,,,,240,note_off,,95.0,39.0,95.0,155520,81.0
4602,2.0,,,,,39.0,,,,,0,note_on,,95.0,39.0,95.0,155520,81.0
4603,2.0,,,,,39.0,,,,,240,note_off,,95.0,39.0,95.0,155760,81.125
4604,2.0,,,,,39.0,,,,,0,note_on,,95.0,39.0,95.0,155760,81.125
4605,2.0,,,,,39.0,,,,,240,note_off,,95.0,39.0,95.0,156000,81.25
4606,2.0,,,,,39.0,,,,,0,note_on,,95.0,39.0,95.0,156000,81.25
4607,2.0,,,,,39.0,,,,,240,note_off,,95.0,39.0,95.0,156240,81.375
4608,2.0,,,,,49.0,,,,,0,note_on,,95.0,49.0,95.0,156240,81.375
4609,2.0,,,,,42.0,,,,,0,note_on,,95.0,42.0,95.0,156240,81.375
4610,2.0,,,,,49.0,,,,,240,note_off,,95.0,49.0,95.0,156480,81.5
4611,2.0,,,,,42.0,,,,,0,note_off,,95.0,42.0,95.0,156480,81.5
4612,2.0,,,,,48.0,,,,,0,note_on,,95.0,48.0,95.0,156480,81.5
4613,2.0,,,,,41.0,,,,,0,note_on,,95.0,41.0,95.0,156480,81.5
4614,2.0,,,,,48.0,,,,,240,note_off,,95.0,48.0,95.0,156720,81.625
4615,2.0,,,,,41.0,,,,,0,note_off,,95.0,41.0,95.0,156720,81.625
4616,2.0,,,,,47.0,,,,,0,note_on,,95.0,47.0,95.0,156720,81.625
4617,2.0,,,,,40.0,,,,,0,note_on,,95.0,40.0,95.0,156720,81.625
4618,2.0,,,,,47.0,,,,,480,note_off,,95.0,47.0,95.0,157200,81.875
4619,2.0,,,,,40.0,,,,,0,note_off,,95.0,40.0,95.0,157200,81.875
4620,2.0,,,,,39.0,,,,,0,note_on,,95.0,39.0,95.0,157200,81.875
4621,2.0,,,,,39.0,,,,,240,note_off,,95.0,39.0,95.0,157440,82.0
4622,2.0,,,,,39.0,,,,,240,note_on,,95.0,39.0,95.0,157680,82.125
4623,2.0,,,,,39.0,,,,,240,note_off,,95.0,39.0,95.0,157920,82.25
4624,2.0,,,,,39.0,,,,,0,note_on,,95.0,39.0,95.0,157920,82.25
4625,3.0,,,,,49.0,,,,,180,note_on,,95.0,49.0,95.0,38820,20.21875
4626,2.0,,,,,39.0,,,,,60,note_off,,95.0,39.0,95.0,157980,82.28125
4627,3.0,,,,,49.0,,,,,0,note_off,,95.0,49.0,95.0,38820,20.21875
4628,3.0,,,,,51.0,,,,,0,note_on,,95.0,51.0,95.0,38820,20.21875
4629,2.0,,,,,39.0,,,,,0,note_on,,95.0,39.0,95.0,157980,82.28125
4630,3.0,,,,,51.0,,,,,960,note_off,,95.0,51.0,95.0,39780,20.71875
4631,2.0,,,,,39.0,,,,,0,note_off,,95.0,39.0,95.0,157980,82.28125
4632,2.0,,,,,39.0,,,,,0,note_on,,95.0,39.0,95.0,157980,82.28125
4633,2.0,,,,,39.0,,,,,240,note_off,,95.0,39.0,95.0,158220,82.40625
4634,2.0,,,,,39.0,,,,,240,note_on,,95.0,39.0,95.0,158460,82.53125
4635,2.0,,,,,39.0,,,,,240,note_off,,95.0,39.0,95.0,158700,82.65625
4636,2.0,,,,,39.0,,,,,0,note_on,,95.0,39.0,95.0,158700,82.65625
4637,2.0,,,,,39.0,,,,,240,note_off,,95.0,39.0,95.0,158940,82.78125
4638,2.0,,,,,59.0,,,,,0,note_on,,95.0,59.0,95.0,158940,82.78125
4639,2.0,,,,,52.0,,,,,0,note_on,,95.0,52.0,95.0,158940,82.78125
4640,2.0,,,,,59.0,,,,,240,note_off,,95.0,59.0,95.0,159180,82.90625
4641,2.0,,,,,52.0,,,,,0,note_off,,95.0,52.0,95.0,159180,82.90625
4642,2.0,,,,,58.0,,,,,0,note_on,,95.0,58.0,95.0,159180,82.90625
4643,2.0,,,,,51.0,,,,,0,note_on,,95.0,51.0,95.0,159180,82.90625
4644,2.0,,,,,58.0,,,,,240,note_off,,95.0,58.0,95.0,159420,83.03125
4645,2.0,,,,,51.0,,,,,0,note_off,,95.0,51.0,95.0,159420,83.03125
4646,2.0,,,,,57.0,,,,,0,note_on,,95.0,57.0,95.0,159420,83.03125
4647,2.0,,,,,50.0,,,,,0,note_on,,95.0,50.0,95.0,159420,83.03125
4648,2.0,,,,,57.0,,,,,480,note_off,,95.0,57.0,95.0,159900,83.28125
4649,2.0,,,,,50.0,,,,,0,note_off,,95.0,50.0,95.0,159900,83.28125
4650,2.0,,,,,39.0,,,,,0,note_on,,95.0,39.0,95.0,159900,83.28125
4651,2.0,,,,,39.0,,,,,240,note_off,,95.0,39.0,95.0,160140,83.40625
4652,2.0,,,,,39.0,,,,,240,note_on,,95.0,39.0,95.0,160380,83.53125
4653,2.0,,,,,39.0,,,,,240,note_off,,95.0,39.0,95.0,160620,83.65625
4654,2.0,,,,,39.0,,,,,0,note_on,,95.0,39.0,95.0,160620,83.65625
4655,3.0,,,,,49.0,,,,,180,note_on,,95.0,49.0,95.0,39960,20.8125
4656,2.0,,,,,39.0,,,,,60,note_off,,95.0,39.0,95.0,160680,83.6875
4657,3.0,,,,,49.0,,,,,0,note_off,,95.0,49.0,95.0,39960,20.8125
4658,3.0,,,,,51.0,,,,,0,note_on,,95.0,51.0,95.0,39960,20.8125
4659,2.0,,,,,39.0,,,,,0,note_on,,95.0,39.0,95.0,160680,83.6875
4660,3.0,,,,,51.0,,,,,960,note_off,,95.0,51.0,95.0,40920,21.3125
4661,2.0,,,,,39.0,,,,,0,note_off,,95.0,39.0,95.0,160680,83.6875
4662,2.0,,,,,39.0,,,,,0,note_on,,95.0,39.0,95.0,160680,83.6875
4663,2.0,,,,,39.0,,,,,240,note_off,,95.0,39.0,95.0,160920,83.8125
4664,2.0,,,,,39.0,,,,,240,note_on,,95.0,39.0,95.0,161160,83.9375
4665,2.0,,,,,39.0,,,,,240,note_off,,95.0,39.0,95.0,161400,84.0625
4666,2.0,,,,,39.0,,,,,0,note_on,,95.0,39.0,95.0,161400,84.0625
4667,2.0,,,,,39.0,,,,,240,note_off,,95.0,39.0,95.0,161640,84.1875
4668,2.0,,,,,61.0,,,,,0,note_on,,95.0,61.0,95.0,161640,84.1875
4669,2.0,,,,,54.0,,,,,0,note_on,,95.0,54.0,95.0,161640,84.1875
4670,2.0,,,,,61.0,,,,,240,note_off,,95.0,61.0,95.0,161880,84.3125
4671,2.0,,,,,54.0,,,,,0,note_off,,95.0,54.0,95.0,161880,84.3125
4672,2.0,,,,,60.0,,,,,0,note_on,,95.0,60.0,95.0,161880,84.3125
4673,2.0,,,,,53.0,,,,,0,note_on,,95.0,53.0,95.0,161880,84.3125
4674,2.0,,,,,60.0,,,,,240,note_off,,95.0,60.0,95.0,162120,84.4375
4675,2.0,,,,,53.0,,,,,0,note_off,,95.0,53.0,95.0,162120,84.4375
4676,2.0,,,,,59.0,,,,,0,note_on,,95.0,59.0,95.0,162120,84.4375
4677,2.0,,,,,52.0,,,,,0,note_on,,95.0,52.0,95.0,162120,84.4375
4678,2.0,,,,,59.0,,,,,480,note_off,,95.0,59.0,95.0,162600,84.6875
4679,2.0,,,,,52.0,,,,,0,note_off,,95.0,52.0,95.0,162600,84.6875
4680,2.0,,,,,39.0,,,,,0,note_on,,95.0,39.0,95.0,162600,84.6875
4681,2.0,,,,,39.0,,,,,240,note_off,,95.0,39.0,95.0,162840,84.8125
4682,2.0,,,,,39.0,,,,,240,note_on,,95.0,39.0,95.0,163080,84.9375
4683,2.0,,,,,39.0,,,,,240,note_off,,95.0,39.0,95.0,163320,85.0625
4684,2.0,,,,,39.0,,,,,0,note_on,,95.0,39.0,95.0,163320,85.0625
4685,3.0,,,,,49.0,,,,,180,note_on,,95.0,49.0,95.0,41100,21.40625
4686,2.0,,,,,39.0,,,,,60,note_off,,95.0,39.0,95.0,163380,85.09375
4687,3.0,,,,,49.0,,,,,0,note_off,,95.0,49.0,95.0,41100,21.40625
4688,3.0,,,,,51.0,,,,,0,note_on,,95.0,51.0,95.0,41100,21.40625
4689,2.0,,,,,39.0,,,,,0,note_on,,95.0,39.0,95.0,163380,85.09375
4690,3.0,,,,,51.0,,,,,960,note_off,,95.0,51.0,95.0,42060,21.90625
4691,2.0,,,,,39.0,,,,,0,note_off,,95.0,39.0,95.0,163380,85.09375
4692,2.0,,,,,39.0,,,,,0,note_on,,95.0,39.0,95.0,163380,85.09375
4693,2.0,,,,,39.0,,,,,240,note_off,,95.0,39.0,95.0,163620,85.21875
4694,2.0,,,,,39.0,,,,,240,note_on,,95.0,39.0,95.0,163860,85.34375
4695,2.0,,,,,39.0,,,,,240,note_off,,95.0,39.0,95.0,164100,85.46875
4696,2.0,,,,,39.0,,,,,0,note_on,,95.0,39.0,95.0,164100,85.46875
4697,2.0,,,,,39.0,,,,,240,note_off,,95.0,39.0,95.0,164340,85.59375
4698,2.0,,,,,59.0,,,,,0,note_on,,95.0,59.0,95.0,164340,85.59375
4699,2.0,,,,,52.0,,,,,0,note_on,,95.0,52.0,95.0,164340,85.59375
4700,2.0,,,,,59.0,,,,,240,note_off,,95.0,59.0,95.0,164580,85.71875
4701,2.0,,,,,52.0,,,,,0,note_off,,95.0,52.0,95.0,164580,85.71875
4702,2.0,,,,,58.0,,,,,0,note_on,,95.0,58.0,95.0,164580,85.71875
4703,2.0,,,,,51.0,,,,,0,note_on,,95.0,51.0,95.0,164580,85.71875
4704,2.0,,,,,58.0,,,,,240,note_off,,95.0,58.0,95.0,164820,85.84375
4705,2.0,,,,,51.0,,,,,0,note_off,,95.0,51.0,95.0,164820,85.84375
4706,2.0,,,,,57.0,,,,,0,note_on,,95.0,57.0,95.0,164820,85.84375
4707,2.0,,,,,50.0,,,,,0,note_on,,95.0,50.0,95.0,164820,85.84375
4708,2.0,,,,,57.0,,,,,480,note_off,,95.0,57.0,95.0,165300,86.09375
4709,2.0,,,,,50.0,,,,,0,note_off,,95.0,50.0,95.0,165300,86.09375
4710,2.0,,,,,39.0,,,,,0,note_on,,95.0,39.0,95.0,165300,86.09375
4711,2.0,,,,,39.0,,,,,240,note_off,,95.0,39.0,95.0,165540,86.21875
4712,2.0,,,,,39.0,,,,,240,note_on,,95.0,39.0,95.0,165780,86.34375
4713,2.0,,,,,39.0,,,,,240,note_off,,95.0,39.0,95.0,166020,86.46875
4714,2.0,,,,,39.0,,,,,0,note_on,,95.0,39.0,95.0,166020,86.46875
4715,3.0,,,,,49.0,,,,,180,note_on,,95.0,49.0,95.0,42240,22.0
4716,2.0,,,,,39.0,,,,,60,note_off,,95.0,39.0,95.0,166080,86.5
4717,3.0,,,,,49.0,,,,,0,note_off,,95.0,49.0,95.0,42240,22.0
4718,3.0,,,,,51.0,,,,,0,note_on,,95.0,51.0,95.0,42240,22.0
4719,2.0,,,,,39.0,,,,,0,note_on,,95.0,39.0,95.0,166080,86.5
4720,3.0,,,,,51.0,,,,,960,note_off,,95.0,51.0,95.0,43200,22.5
4721,2.0,,,,,39.0,,,,,0,note_off,,95.0,39.0,95.0,166080,86.5
4722,2.0,,,,,39.0,,,,,0,note_on,,95.0,39.0,95.0,166080,86.5
4723,2.0,,,,,39.0,,,,,240,note_off,,95.0,39.0,95.0,166320,86.625
4724,2.0,,,,,39.0,,,,,0,note_on,,95.0,39.0,95.0,166320,86.625
4725,2.0,,,,,39.0,,,,,240,note_off,,95.0,39.0,95.0,166560,86.75
4726,2.0,,,,,39.0,,,,,0,note_on,,95.0,39.0,95.0,166560,86.75
4727,2.0,,,,,39.0,,,,,240,note_off,,95.0,39.0,95.0,166800,86.875
4728,2.0,,,,,39.0,,,,,0,note_on,,95.0,39.0,95.0,166800,86.875
4729,2.0,,,,,39.0,,,,,240,note_off,,95.0,39.0,95.0,167040,87.0
4730,2.0,,,,,49.0,,,,,0,note_on,,95.0,49.0,95.0,167040,87.0
4731,2.0,,,,,42.0,,,,,0,note_on,,95.0,42.0,95.0,167040,87.0
4732,2.0,,,,,49.0,,,,,240,note_off,,95.0,49.0,95.0,167280,87.125
4733,2.0,,,,,42.0,,,,,0,note_off,,95.0,42.0,95.0,167280,87.125
4734,2.0,,,,,48.0,,,,,0,note_on,,95.0,48.0,95.0,167280,87.125
4735,2.0,,,,,41.0,,,,,0,note_on,,95.0,41.0,95.0,167280,87.125
4736,2.0,,,,,48.0,,,,,240,note_off,,95.0,48.0,95.0,167520,87.25
4737,2.0,,,,,41.0,,,,,0,note_off,,95.0,41.0,95.0,167520,87.25
4738,2.0,,,,,47.0,,,,,0,note_on,,95.0,47.0,95.0,167520,87.25
4739,2.0,,,,,40.0,,,,,0,note_on,,95.0,40.0,95.0,167520,87.25
4740,2.0,,,,,47.0,,,,,480,note_off,,95.0,47.0,95.0,168000,87.5
4741,2.0,,,,,40.0,,,,,0,note_off,,95.0,40.0,95.0,168000,87.5
4742,2.0,,,,,48.0,,,,,0,note_on,,95.0,48.0,95.0,168000,87.5
4743,2.0,,,,,41.0,,,,,0,note_on,,95.0,41.0,95.0,168000,87.5
4744,2.0,,,,,48.0,,,,,2880,note_off,,95.0,48.0,95.0,170880,89.0
4745,2.0,,,,,41.0,,,,,0,note_off,,95.0,41.0,95.0,170880,89.0
4746,2.0,,,,,49.0,,,,,0,note_on,,95.0,49.0,95.0,170880,89.0
4747,2.0,,,,,42.0,,,,,0,note_on,,95.0,42.0,95.0,170880,89.0
4748,2.0,,,,,49.0,,,,,960,note_off,,95.0,49.0,95.0,171840,89.5
4749,2.0,,,,,42.0,,,,,0,note_off,,95.0,42.0,95.0,171840,89.5
4750,2.0,,,,,39.0,,,,,0,note_on,,95.0,39.0,95.0,171840,89.5
4751,2.0,,,,,39.0,,,,,240,note_off,,95.0,39.0,95.0,172080,89.625
4752,2.0,,,,,39.0,,,,,0,note_on,,95.0,39.0,95.0,172080,89.625
4753,2.0,,,,,39.0,,,,,240,note_off,,95.0,39.0,95.0,172320,89.75
4754,2.0,,,,,39.0,,,,,0,note_on,,95.0,39.0,95.0,172320,89.75
4755,2.0,,,,,39.0,,,,,240,note_off,,95.0,39.0,95.0,172560,89.875
4756,2.0,,,,,39.0,,,,,0,note_on,,95.0,39.0,95.0,172560,89.875
4757,2.0,,,,,39.0,,,,,240,note_off,,95.0,39.0,95.0,172800,90.0
4758,2.0,,,,,39.0,,,,,0,note_on,,95.0,39.0,95.0,172800,90.0
4759,2.0,,,,,39.0,,,,,240,note_off,,95.0,39.0,95.0,173040,90.125
4760,2.0,,,,,39.0,,,,,0,note_on,,95.0,39.0,95.0,173040,90.125
4761,2.0,,,,,39.0,,,,,240,note_off,,95.0,39.0,95.0,173280,90.25
4762,2.0,,,,,39.0,,,,,0,note_on,,95.0,39.0,95.0,173280,90.25
4763,2.0,,,,,39.0,,,,,240,note_off,,95.0,39.0,95.0,173520,90.375
4764,2.0,,,,,39.0,,,,,0,note_on,,95.0,39.0,95.0,173520,90.375
4765,2.0,,,,,39.0,,,,,240,note_off,,95.0,39.0,95.0,173760,90.5
4766,2.0,,,,,39.0,,,,,0,note_on,,95.0,39.0,95.0,173760,90.5
4767,2.0,,,,,39.0,,,,,240,note_off,,95.0,39.0,95.0,174000,90.625
4768,2.0,,,,,39.0,,,,,0,note_on,,95.0,39.0,95.0,174000,90.625
4769,2.0,,,,,39.0,,,,,240,note_off,,95.0,39.0,95.0,174240,90.75
4770,2.0,,,,,49.0,,,,,0,note_on,,95.0,49.0,95.0,174240,90.75
4771,2.0,,,,,42.0,,,,,0,note_on,,95.0,42.0,95.0,174240,90.75
4772,2.0,,,,,49.0,,,,,480,note_off,,95.0,49.0,95.0,174720,91.0
4773,2.0,,,,,42.0,,,,,0,note_off,,95.0,42.0,95.0,174720,91.0
4774,2.0,,,,,39.0,,,,,0,note_on,,95.0,39.0,95.0,174720,91.0
4775,2.0,,,,,39.0,,,,,240,note_off,,95.0,39.0,95.0,174960,91.125
4776,2.0,,,,,39.0,,,,,0,note_on,,95.0,39.0,95.0,174960,91.125
4777,2.0,,,,,39.0,,,,,240,note_off,,95.0,39.0,95.0,175200,91.25
4778,2.0,,,,,49.0,,,,,0,note_on,,95.0,49.0,95.0,175200,91.25
4779,2.0,,,,,42.0,,,,,0,note_on,,95.0,42.0,95.0,175200,91.25
4780,2.0,,,,,49.0,,,,,480,note_off,,95.0,49.0,95.0,175680,91.5
4781,2.0,,,,,42.0,,,,,0,note_off,,95.0,42.0,95.0,175680,91.5
4782,2.0,,,,,48.0,,,,,0,note_on,,95.0,48.0,95.0,175680,91.5
4783,2.0,,,,,41.0,,,,,0,note_on,,95.0,41.0,95.0,175680,91.5
4784,2.0,,,,,48.0,,,,,2880,note_off,,95.0,48.0,95.0,178560,93.0
4785,2.0,,,,,41.0,,,,,0,note_off,,95.0,41.0,95.0,178560,93.0
4786,2.0,,,,,52.0,,,,,0,note_on,,95.0,52.0,95.0,178560,93.0
4787,2.0,,,,,45.0,,,,,0,note_on,,95.0,45.0,95.0,178560,93.0
4788,2.0,,,,,52.0,,,,,960,note_off,,95.0,52.0,95.0,179520,93.5
4789,2.0,,,,,45.0,,,,,0,note_off,,95.0,45.0,95.0,179520,93.5
4790,2.0,,,,,39.0,,,,,0,note_on,,95.0,39.0,95.0,179520,93.5
4791,2.0,,,,,39.0,,,,,240,note_off,,95.0,39.0,95.0,179760,93.625
4792,2.0,,,,,39.0,,,,,0,note_on,,95.0,39.0,95.0,179760,93.625
4793,2.0,,,,,39.0,,,,,240,note_off,,95.0,39.0,95.0,180000,93.75
4794,2.0,,,,,39.0,,,,,0,note_on,,95.0,39.0,95.0,180000,93.75
4795,2.0,,,,,39.0,,,,,240,note_off,,95.0,39.0,95.0,180240,93.875
4796,2.0,,,,,39.0,,,,,0,note_on,,95.0,39.0,95.0,180240,93.875
4797,2.0,,,,,39.0,,,,,240,note_off,,95.0,39.0,95.0,180480,94.0
4798,2.0,,,,,39.0,,,,,0,note_on,,95.0,39.0,95.0,180480,94.0
4799,2.0,,,,,39.0,,,,,240,note_off,,95.0,39.0,95.0,180720,94.125
4800,2.0,,,,,39.0,,,,,0,note_on,,95.0,39.0,95.0,180720,94.125
4801,2.0,,,,,39.0,,,,,240,note_off,,95.0,39.0,95.0,180960,94.25
4802,2.0,,,,,39.0,,,,,0,note_on,,95.0,39.0,95.0,180960,94.25
4803,2.0,,,,,39.0,,,,,240,note_off,,95.0,39.0,95.0,181200,94.375
4804,2.0,,,,,39.0,,,,,0,note_on,,95.0,39.0,95.0,181200,94.375
4805,2.0,,,,,39.0,,,,,240,note_off,,95.0,39.0,95.0,181440,94.5
4806,2.0,,,,,39.0,,,,,0,note_on,,95.0,39.0,95.0,181440,94.5
4807,2.0,,,,,39.0,,,,,240,note_off,,95.0,39.0,95.0,181680,94.625
4808,2.0,,,,,39.0,,,,,0,note_on,,95.0,39.0,95.0,181680,94.625
4809,2.0,,,,,39.0,,,,,240,note_off,,95.0,39.0,95.0,181920,94.75
4810,2.0,,,,,46.0,,,,,0,note_on,,95.0,46.0,95.0,181920,94.75
4811,2.0,,,,,39.0,,,,,0,note_on,,95.0,39.0,95.0,181920,94.75
4812,2.0,,,,,46.0,,,,,480,note_off,,95.0,46.0,95.0,182400,95.0
4813,2.0,,,,,39.0,,,,,0,note_off,,95.0,39.0,95.0,182400,95.0
4814,2.0,,,,,39.0,,,,,0,note_on,,95.0,39.0,95.0,182400,95.0
4815,2.0,,,,,39.0,,,,,240,note_off,,95.0,39.0,95.0,182640,95.125
4816,2.0,,,,,39.0,,,,,0,note_on,,95.0,39.0,95.0,182640,95.125
4817,2.0,,,,,39.0,,,,,240,note_off,,95.0,39.0,95.0,182880,95.25
4818,2.0,,,,,47.0,,,,,0,note_on,,95.0,47.0,95.0,182880,95.25
4819,2.0,,,,,40.0,,,,,0,note_on,,95.0,40.0,95.0,182880,95.25
4820,2.0,,,,,47.0,,,,,480,note_off,,95.0,47.0,95.0,183360,95.5
4821,2.0,,,,,40.0,,,,,0,note_off,,95.0,40.0,95.0,183360,95.5
4822,2.0,,,,,48.0,,,,,0,note_on,,95.0,48.0,95.0,183360,95.5
4823,2.0,,,,,41.0,,,,,0,note_on,,95.0,41.0,95.0,183360,95.5
4824,2.0,,,,,48.0,,,,,2880,note_off,,95.0,48.0,95.0,186240,97.0
4825,2.0,,,,,41.0,,,,,0,note_off,,95.0,41.0,95.0,186240,97.0
4826,2.0,,,,,49.0,,,,,0,note_on,,95.0,49.0,95.0,186240,97.0
4827,2.0,,,,,42.0,,,,,0,note_on,,95.0,42.0,95.0,186240,97.0
4828,2.0,,,,,49.0,,,,,960,note_off,,95.0,49.0,95.0,187200,97.5
4829,2.0,,,,,42.0,,,,,0,note_off,,95.0,42.0,95.0,187200,97.5
4830,2.0,,,,,39.0,,,,,0,note_on,,95.0,39.0,95.0,187200,97.5
4831,2.0,,,,,39.0,,,,,240,note_off,,95.0,39.0,95.0,187440,97.625
4832,2.0,,,,,39.0,,,,,0,note_on,,95.0,39.0,95.0,187440,97.625
4833,2.0,,,,,39.0,,,,,240,note_off,,95.0,39.0,95.0,187680,97.75
4834,2.0,,,,,39.0,,,,,0,note_on,,95.0,39.0,95.0,187680,97.75
4835,2.0,,,,,39.0,,,,,240,note_off,,95.0,39.0,95.0,187920,97.875
4836,2.0,,,,,39.0,,,,,0,note_on,,95.0,39.0,95.0,187920,97.875
4837,2.0,,,,,39.0,,,,,240,note_off,,95.0,39.0,95.0,188160,98.0
4838,2.0,,,,,39.0,,,,,0,note_on,,95.0,39.0,95.0,188160,98.0
4839,2.0,,,,,39.0,,,,,240,note_off,,95.0,39.0,95.0,188400,98.125
4840,2.0,,,,,39.0,,,,,0,note_on,,95.0,39.0,95.0,188400,98.125
4841,2.0,,,,,39.0,,,,,240,note_off,,95.0,39.0,95.0,188640,98.25
4842,2.0,,,,,39.0,,,,,0,note_on,,95.0,39.0,95.0,188640,98.25
4843,2.0,,,,,39.0,,,,,240,note_off,,95.0,39.0,95.0,188880,98.375
4844,2.0,,,,,39.0,,,,,0,note_on,,95.0,39.0,95.0,188880,98.375
4845,2.0,,,,,39.0,,,,,240,note_off,,95.0,39.0,95.0,189120,98.5
4846,2.0,,,,,39.0,,,,,0,note_on,,95.0,39.0,95.0,189120,98.5
4847,2.0,,,,,39.0,,,,,240,note_off,,95.0,39.0,95.0,189360,98.625
4848,2.0,,,,,39.0,,,,,0,note_on,,95.0,39.0,95.0,189360,98.625
4849,2.0,,,,,39.0,,,,,240,note_off,,95.0,39.0,95.0,189600,98.75
4850,2.0,,,,,49.0,,,,,0,note_on,,95.0,49.0,95.0,189600,98.75
4851,2.0,,,,,42.0,,,,,0,note_on,,95.0,42.0,95.0,189600,98.75
4852,2.0,,,,,49.0,,,,,480,note_off,,95.0,49.0,95.0,190080,99.0
4853,2.0,,,,,42.0,,,,,0,note_off,,95.0,42.0,95.0,190080,99.0
4854,2.0,,,,,39.0,,,,,0,note_on,,95.0,39.0,95.0,190080,99.0
4855,2.0,,,,,39.0,,,,,240,note_off,,95.0,39.0,95.0,190320,99.125
4856,2.0,,,,,39.0,,,,,0,note_on,,95.0,39.0,95.0,190320,99.125
4857,2.0,,,,,39.0,,,,,240,note_off,,95.0,39.0,95.0,190560,99.25
4858,2.0,,,,,49.0,,,,,0,note_on,,95.0,49.0,95.0,190560,99.25
4859,2.0,,,,,42.0,,,,,0,note_on,,95.0,42.0,95.0,190560,99.25
4860,2.0,,,,,49.0,,,,,480,note_off,,95.0,49.0,95.0,191040,99.5
4861,2.0,,,,,42.0,,,,,0,note_off,,95.0,42.0,95.0,191040,99.5
4862,2.0,,,,,48.0,,,,,0,note_on,,95.0,48.0,95.0,191040,99.5
4863,2.0,,,,,41.0,,,,,0,note_on,,95.0,41.0,95.0,191040,99.5
4864,2.0,,,,,48.0,,,,,2880,note_off,,95.0,48.0,95.0,193920,101.0
4865,2.0,,,,,41.0,,,,,0,note_off,,95.0,41.0,95.0,193920,101.0
4866,2.0,,,,,49.0,,,,,0,note_on,,95.0,49.0,95.0,193920,101.0
4867,2.0,,,,,42.0,,,,,0,note_on,,95.0,42.0,95.0,193920,101.0
4868,2.0,,,,,49.0,,,,,240,note_off,,95.0,49.0,95.0,194160,101.125
4869,2.0,,,,,42.0,,,,,0,note_off,,95.0,42.0,95.0,194160,101.125
4870,2.0,,,,,51.0,,,,,0,note_on,,95.0,51.0,95.0,194160,101.125
4871,2.0,,,,,44.0,,,,,0,note_on,,95.0,44.0,95.0,194160,101.125
4872,2.0,,,,,51.0,,,,,720,note_off,,95.0,51.0,95.0,194880,101.5
4873,2.0,,,,,44.0,,,,,0,note_off,,95.0,44.0,95.0,194880,101.5
4874,2.0,,,,,39.0,,,,,0,note_on,,95.0,39.0,95.0,194880,101.5
4875,2.0,,,,,39.0,,,,,240,note_off,,95.0,39.0,95.0,195120,101.625
4876,2.0,,,,,39.0,,,,,240,note_on,,95.0,39.0,95.0,195360,101.75
4877,2.0,,,,,39.0,,,,,240,note_off,,95.0,39.0,95.0,195600,101.875
4878,2.0,,,,,39.0,,,,,0,note_on,,95.0,39.0,95.0,195600,101.875
4879,2.0,,,,,39.0,,,,,240,note_off,,95.0,39.0,95.0,195840,102.0
4880,2.0,,,,,51.0,,,,,0,note_on,,95.0,51.0,95.0,195840,102.0
4881,2.0,,,,,51.0,,,,,240,note_off,,95.0,51.0,95.0,196080,102.125
4882,2.0,,,,,52.0,,,,,0,note_on,,95.0,52.0,95.0,196080,102.125
4883,2.0,,,,,52.0,,,,,720,note_off,,95.0,52.0,95.0,196800,102.5
4884,2.0,,,,,39.0,,,,,0,note_on,,95.0,39.0,95.0,196800,102.5
4885,2.0,,,,,39.0,,,,,240,note_off,,95.0,39.0,95.0,197040,102.625
4886,2.0,,,,,39.0,,,,,240,note_on,,95.0,39.0,95.0,197280,102.75
4887,2.0,,,,,39.0,,,,,240,note_off,,95.0,39.0,95.0,197520,102.875
4888,2.0,,,,,39.0,,,,,0,note_on,,95.0,39.0,95.0,197520,102.875
4889,2.0,,,,,39.0,,,,,240,note_off,,95.0,39.0,95.0,197760,103.0
4890,2.0,,,,,51.0,,,,,0,note_on,,95.0,51.0,95.0,197760,103.0
4891,2.0,,,,,51.0,,,,,240,note_off,,95.0,51.0,95.0,198000,103.125
4892,2.0,,,,,52.0,,,,,0,note_on,,95.0,52.0,95.0,198000,103.125
4893,2.0,,,,,52.0,,,,,240,note_off,,95.0,52.0,95.0,198240,103.25
4894,2.0,,,,,54.0,,,,,0,note_on,,95.0,54.0,95.0,198240,103.25
4895,2.0,,,,,54.0,,,,,480,note_off,,95.0,54.0,95.0,198720,103.5
4896,2.0,,,,,39.0,,,,,0,note_on,,95.0,39.0,95.0,198720,103.5
4897,2.0,,,,,39.0,,,,,240,note_off,,95.0,39.0,95.0,198960,103.625
4898,2.0,,,,,39.0,,,,,240,note_on,,95.0,39.0,95.0,199200,103.75
4899,2.0,,,,,39.0,,,,,240,note_off,,95.0,39.0,95.0,199440,103.875
4900,2.0,,,,,39.0,,,,,0,note_on,,95.0,39.0,95.0,199440,103.875
4901,2.0,,,,,39.0,,,,,240,note_off,,95.0,39.0,95.0,199680,104.0
4902,2.0,,,,,51.0,,,,,0,note_on,,95.0,51.0,95.0,199680,104.0
4903,2.0,,,,,51.0,,,,,240,note_off,,95.0,51.0,95.0,199920,104.125
4904,2.0,,,,,52.0,,,,,0,note_on,,95.0,52.0,95.0,199920,104.125
4905,2.0,,,,,52.0,,,,,240,note_off,,95.0,52.0,95.0,200160,104.25
4906,2.0,,,,,56.0,,,,,0,note_on,,95.0,56.0,95.0,200160,104.25
4907,2.0,,,,,56.0,,,,,480,note_off,,95.0,56.0,95.0,200640,104.5
4908,2.0,,,,,55.0,,,,,0,note_on,,95.0,55.0,95.0,200640,104.5
4909,2.0,,,,,55.0,,,,,240,note_off,,95.0,55.0,95.0,200880,104.625
4910,2.0,,,,,54.0,,,,,0,note_on,,95.0,54.0,95.0,200880,104.625
4911,2.0,,,,,54.0,,,,,240,note_off,,95.0,54.0,95.0,201120,104.75
4912,2.0,,,,,53.0,,,,,0,note_on,,95.0,53.0,95.0,201120,104.75
4913,2.0,,,,,53.0,,,,,240,note_off,,95.0,53.0,95.0,201360,104.875
4914,2.0,,,,,50.0,,,,,0,note_on,,95.0,50.0,95.0,201360,104.875
4915,2.0,,,,,50.0,,,,,240,note_off,,95.0,50.0,95.0,201600,105.0
4916,2.0,,,,,49.0,,,,,0,note_on,,95.0,49.0,95.0,201600,105.0
4917,2.0,,,,,49.0,,,,,240,note_off,,95.0,49.0,95.0,201840,105.125
4918,2.0,,,,,47.0,,,,,0,note_on,,95.0,47.0,95.0,201840,105.125
4919,2.0,,,,,47.0,,,,,240,note_off,,95.0,47.0,95.0,202080,105.25
4920,2.0,,,,,46.0,,,,,0,note_on,,95.0,46.0,95.0,202080,105.25
4921,2.0,,,,,46.0,,,,,240,note_off,,95.0,46.0,95.0,202320,105.375
4922,2.0,,,,,45.0,,,,,0,note_on,,95.0,45.0,95.0,202320,105.375
4923,2.0,,,,,45.0,,,,,240,note_off,,95.0,45.0,95.0,202560,105.5
4924,2.0,,,,,39.0,,,,,0,note_on,,95.0,39.0,95.0,202560,105.5
4925,2.0,,,,,39.0,,,,,240,note_off,,95.0,39.0,95.0,202800,105.625
4926,2.0,,,,,39.0,,,,,240,note_on,,95.0,39.0,95.0,203040,105.75
4927,2.0,,,,,39.0,,,,,240,note_off,,95.0,39.0,95.0,203280,105.875
4928,2.0,,,,,39.0,,,,,0,note_on,,95.0,39.0,95.0,203280,105.875
4929,2.0,,,,,39.0,,,,,240,note_off,,95.0,39.0,95.0,203520,106.0
4930,2.0,,,,,51.0,,,,,0,note_on,,95.0,51.0,95.0,203520,106.0
4931,2.0,,,,,51.0,,,,,240,note_off,,95.0,51.0,95.0,203760,106.125
4932,2.0,,,,,52.0,,,,,0,note_on,,95.0,52.0,95.0,203760,106.125
4933,2.0,,,,,52.0,,,,,720,note_off,,95.0,52.0,95.0,204480,106.5
4934,2.0,,,,,39.0,,,,,0,note_on,,95.0,39.0,95.0,204480,106.5
4935,2.0,,,,,39.0,,,,,240,note_off,,95.0,39.0,95.0,204720,106.625
4936,2.0,,,,,39.0,,,,,240,note_on,,95.0,39.0,95.0,204960,106.75
4937,2.0,,,,,39.0,,,,,240,note_off,,95.0,39.0,95.0,205200,106.875
4938,2.0,,,,,39.0,,,,,0,note_on,,95.0,39.0,95.0,205200,106.875
4939,2.0,,,,,39.0,,,,,240,note_off,,95.0,39.0,95.0,205440,107.0
4940,2.0,,,,,51.0,,,,,0,note_on,,95.0,51.0,95.0,205440,107.0
4941,2.0,,,,,51.0,,,,,240,note_off,,95.0,51.0,95.0,205680,107.125
4942,2.0,,,,,52.0,,,,,0,note_on,,95.0,52.0,95.0,205680,107.125
4943,2.0,,,,,52.0,,,,,240,note_off,,95.0,52.0,95.0,205920,107.25
4944,2.0,,,,,54.0,,,,,0,note_on,,95.0,54.0,95.0,205920,107.25
4945,2.0,,,,,54.0,,,,,480,note_off,,95.0,54.0,95.0,206400,107.5
4946,2.0,,,,,39.0,,,,,0,note_on,,95.0,39.0,95.0,206400,107.5
4947,2.0,,,,,39.0,,,,,240,note_off,,95.0,39.0,95.0,206640,107.625
4948,2.0,,,,,39.0,,,,,240,note_on,,95.0,39.0,95.0,206880,107.75
4949,2.0,,,,,39.0,,,,,240,note_off,,95.0,39.0,95.0,207120,107.875
4950,2.0,,,,,39.0,,,,,0,note_on,,95.0,39.0,95.0,207120,107.875
4951,2.0,,,,,39.0,,,,,240,note_off,,95.0,39.0,95.0,207360,108.0
4952,2.0,,,,,51.0,,,,,0,note_on,,95.0,51.0,95.0,207360,108.0
4953,2.0,,,,,51.0,,,,,240,note_off,,95.0,51.0,95.0,207600,108.125
4954,2.0,,,,,52.0,,,,,0,note_on,,95.0,52.0,95.0,207600,108.125
4955,2.0,,,,,52.0,,,,,240,note_off,,95.0,52.0,95.0,207840,108.25
4956,2.0,,,,,56.0,,,,,0,note_on,,95.0,56.0,95.0,207840,108.25
4957,2.0,,,,,56.0,,,,,480,note_off,,95.0,56.0,95.0,208320,108.5
4958,2.0,,,,,55.0,,,,,0,note_on,,95.0,55.0,95.0,208320,108.5
4959,2.0,,,,,55.0,,,,,240,note_off,,95.0,55.0,95.0,208560,108.625
4960,2.0,,,,,54.0,,,,,0,note_on,,95.0,54.0,95.0,208560,108.625
4961,2.0,,,,,54.0,,,,,240,note_off,,95.0,54.0,95.0,208800,108.75
4962,2.0,,,,,53.0,,,,,0,note_on,,95.0,53.0,95.0,208800,108.75
4963,2.0,,,,,53.0,,,,,240,note_off,,95.0,53.0,95.0,209040,108.875
4964,2.0,,,,,50.0,,,,,0,note_on,,95.0,50.0,95.0,209040,108.875
4965,2.0,,,,,50.0,,,,,240,note_off,,95.0,50.0,95.0,209280,109.0
4966,2.0,,,,,49.0,,,,,0,note_on,,95.0,49.0,95.0,209280,109.0
4967,2.0,,,,,49.0,,,,,240,note_off,,95.0,49.0,95.0,209520,109.125
4968,2.0,,,,,48.0,,,,,0,note_on,,95.0,48.0,95.0,209520,109.125
4969,2.0,,,,,48.0,,,,,240,note_off,,95.0,48.0,95.0,209760,109.25
4970,2.0,,,,,57.0,,,,,0,note_on,,95.0,57.0,95.0,209760,109.25
4971,2.0,,,,,57.0,,,,,480,note_off,,95.0,57.0,95.0,210240,109.5
4972,2.0,,,,,39.0,,,,,0,note_on,,95.0,39.0,95.0,210240,109.5
4973,2.0,,,,,39.0,,,,,240,note_off,,95.0,39.0,95.0,210480,109.625
4974,2.0,,,,,39.0,,,,,240,note_on,,95.0,39.0,95.0,210720,109.75
4975,2.0,,,,,39.0,,,,,240,note_off,,95.0,39.0,95.0,210960,109.875
4976,2.0,,,,,39.0,,,,,0,note_on,,95.0,39.0,95.0,210960,109.875
4977,2.0,,,,,39.0,,,,,240,note_off,,95.0,39.0,95.0,211200,110.0
4978,2.0,,,,,51.0,,,,,0,note_on,,95.0,51.0,95.0,211200,110.0
4979,2.0,,,,,51.0,,,,,240,note_off,,95.0,51.0,95.0,211440,110.125
4980,2.0,,,,,52.0,,,,,0,note_on,,95.0,52.0,95.0,211440,110.125
4981,2.0,,,,,52.0,,,,,720,note_off,,95.0,52.0,95.0,212160,110.5
4982,2.0,,,,,39.0,,,,,0,note_on,,95.0,39.0,95.0,212160,110.5
4983,2.0,,,,,39.0,,,,,240,note_off,,95.0,39.0,95.0,212400,110.625
4984,2.0,,,,,39.0,,,,,240,note_on,,95.0,39.0,95.0,212640,110.75
4985,2.0,,,,,39.0,,,,,240,note_off,,95.0,39.0,95.0,212880,110.875
4986,2.0,,,,,39.0,,,,,0,note_on,,95.0,39.0,95.0,212880,110.875
4987,2.0,,,,,39.0,,,,,240,note_off,,95.0,39.0,95.0,213120,111.0
4988,2.0,,,,,51.0,,,,,0,note_on,,95.0,51.0,95.0,213120,111.0
4989,2.0,,,,,51.0,,,,,240,note_off,,95.0,51.0,95.0,213360,111.125
4990,2.0,,,,,52.0,,,,,0,note_on,,95.0,52.0,95.0,213360,111.125
4991,2.0,,,,,52.0,,,,,240,note_off,,95.0,52.0,95.0,213600,111.25
4992,2.0,,,,,54.0,,,,,0,note_on,,95.0,54.0,95.0,213600,111.25
4993,2.0,,,,,54.0,,,,,480,note_off,,95.0,54.0,95.0,214080,111.5
4994,2.0,,,,,39.0,,,,,0,note_on,,95.0,39.0,95.0,214080,111.5
4995,2.0,,,,,39.0,,,,,240,note_off,,95.0,39.0,95.0,214320,111.625
4996,2.0,,,,,39.0,,,,,240,note_on,,95.0,39.0,95.0,214560,111.75
4997,2.0,,,,,39.0,,,,,240,note_off,,95.0,39.0,95.0,214800,111.875
4998,2.0,,,,,39.0,,,,,0,note_on,,95.0,39.0,95.0,214800,111.875
4999,2.0,,,,,39.0,,,,,240,note_off,,95.0,39.0,95.0,215040,112.0
5000,2.0,,,,,51.0,,,,,0,note_on,,95.0,51.0,95.0,215040,112.0
5001,2.0,,,,,51.0,,,,,240,note_off,,95.0,51.0,95.0,215280,112.125
5002,2.0,,,,,52.0,,,,,0,note_on,,95.0,52.0,95.0,215280,112.125
5003,2.0,,,,,52.0,,,,,240,note_off,,95.0,52.0,95.0,215520,112.25
5004,2.0,,,,,56.0,,,,,0,note_on,,95.0,56.0,95.0,215520,112.25
5005,2.0,,,,,56.0,,,,,480,note_off,,95.0,56.0,95.0,216000,112.5
5006,2.0,,,,,55.0,,,,,0,note_on,,95.0,55.0,95.0,216000,112.5
5007,2.0,,,,,55.0,,,,,240,note_off,,95.0,55.0,95.0,216240,112.625
5008,2.0,,,,,54.0,,,,,0,note_on,,95.0,54.0,95.0,216240,112.625
5009,2.0,,,,,54.0,,,,,240,note_off,,95.0,54.0,95.0,216480,112.75
5010,2.0,,,,,53.0,,,,,0,note_on,,95.0,53.0,95.0,216480,112.75
5011,2.0,,,,,53.0,,,,,240,note_off,,95.0,53.0,95.0,216720,112.875
5012,2.0,,,,,50.0,,,,,0,note_on,,95.0,50.0,95.0,216720,112.875
5013,2.0,,,,,50.0,,,,,240,note_off,,95.0,50.0,95.0,216960,113.0
5014,2.0,,,,,49.0,,,,,0,note_on,,95.0,49.0,95.0,216960,113.0
5015,2.0,,,,,49.0,,,,,240,note_off,,95.0,49.0,95.0,217200,113.125
5016,2.0,,,,,47.0,,,,,0,note_on,,95.0,47.0,95.0,217200,113.125
5017,2.0,,,,,47.0,,,,,240,note_off,,95.0,47.0,95.0,217440,113.25
5018,2.0,,,,,46.0,,,,,0,note_on,,95.0,46.0,95.0,217440,113.25
5019,2.0,,,,,46.0,,,,,240,note_off,,95.0,46.0,95.0,217680,113.375
5020,2.0,,,,,45.0,,,,,0,note_on,,95.0,45.0,95.0,217680,113.375
5021,2.0,,,,,45.0,,,,,240,note_off,,95.0,45.0,95.0,217920,113.5
5022,2.0,,,,,39.0,,,,,0,note_on,,95.0,39.0,95.0,217920,113.5
5023,2.0,,,,,39.0,,,,,240,note_off,,95.0,39.0,95.0,218160,113.625
5024,2.0,,,,,39.0,,,,,240,note_on,,95.0,39.0,95.0,218400,113.75
5025,2.0,,,,,39.0,,,,,240,note_off,,95.0,39.0,95.0,218640,113.875
5026,2.0,,,,,39.0,,,,,0,note_on,,95.0,39.0,95.0,218640,113.875
5027,2.0,,,,,39.0,,,,,240,note_off,,95.0,39.0,95.0,218880,114.0
5028,2.0,,,,,51.0,,,,,0,note_on,,95.0,51.0,95.0,218880,114.0
5029,2.0,,,,,51.0,,,,,240,note_off,,95.0,51.0,95.0,219120,114.125
5030,2.0,,,,,52.0,,,,,0,note_on,,95.0,52.0,95.0,219120,114.125
5031,2.0,,,,,52.0,,,,,720,note_off,,95.0,52.0,95.0,219840,114.5
5032,2.0,,,,,39.0,,,,,0,note_on,,95.0,39.0,95.0,219840,114.5
5033,2.0,,,,,39.0,,,,,240,note_off,,95.0,39.0,95.0,220080,114.625
5034,2.0,,,,,39.0,,,,,240,note_on,,95.0,39.0,95.0,220320,114.75
5035,2.0,,,,,39.0,,,,,240,note_off,,95.0,39.0,95.0,220560,114.875
5036,2.0,,,,,39.0,,,,,0,note_on,,95.0,39.0,95.0,220560,114.875
5037,2.0,,,,,39.0,,,,,240,note_off,,95.0,39.0,95.0,220800,115.0
5038,2.0,,,,,51.0,,,,,0,note_on,,95.0,51.0,95.0,220800,115.0
5039,2.0,,,,,51.0,,,,,240,note_off,,95.0,51.0,95.0,221040,115.125
5040,2.0,,,,,52.0,,,,,0,note_on,,95.0,52.0,95.0,221040,115.125
5041,2.0,,,,,52.0,,,,,240,note_off,,95.0,52.0,95.0,221280,115.25
5042,2.0,,,,,54.0,,,,,0,note_on,,95.0,54.0,95.0,221280,115.25
5043,2.0,,,,,54.0,,,,,480,note_off,,95.0,54.0,95.0,221760,115.5
5044,2.0,,,,,39.0,,,,,0,note_on,,95.0,39.0,95.0,221760,115.5
5045,2.0,,,,,39.0,,,,,240,note_off,,95.0,39.0,95.0,222000,115.625
5046,2.0,,,,,39.0,,,,,240,note_on,,95.0,39.0,95.0,222240,115.75
5047,2.0,,,,,39.0,,,,,240,note_off,,95.0,39.0,95.0,222480,115.875
5048,2.0,,,,,39.0,,,,,0,note_on,,95.0,39.0,95.0,222480,115.875
5049,2.0,,,,,39.0,,,,,240,note_off,,95.0,39.0,95.0,222720,116.0
5050,2.0,,,,,51.0,,,,,0,note_on,,95.0,51.0,95.0,222720,116.0
5051,2.0,,,,,51.0,,,,,240,note_off,,95.0,51.0,95.0,222960,116.125
5052,2.0,,,,,52.0,,,,,0,note_on,,95.0,52.0,95.0,222960,116.125
5053,2.0,,,,,52.0,,,,,240,note_off,,95.0,52.0,95.0,223200,116.25
5054,2.0,,,,,56.0,,,,,0,note_on,,95.0,56.0,95.0,223200,116.25
5055,2.0,,,,,56.0,,,,,480,note_off,,95.0,56.0,95.0,223680,116.5
5056,2.0,,,,,55.0,,,,,0,note_on,,95.0,55.0,95.0,223680,116.5
5057,2.0,,,,,55.0,,,,,240,note_off,,95.0,55.0,95.0,223920,116.625
5058,2.0,,,,,54.0,,,,,0,note_on,,95.0,54.0,95.0,223920,116.625
5059,2.0,,,,,54.0,,,,,240,note_off,,95.0,54.0,95.0,224160,116.75
5060,2.0,,,,,53.0,,,,,0,note_on,,95.0,53.0,95.0,224160,116.75
5061,2.0,,,,,53.0,,,,,240,note_off,,95.0,53.0,95.0,224400,116.875
5062,2.0,,,,,49.0,,,,,0,note_on,,95.0,49.0,95.0,224400,116.875
5063,2.0,,,,,49.0,,,,,240,note_off,,95.0,49.0,95.0,224640,117.0
5064,2.0,,,,,48.0,,,,,0,note_on,,95.0,48.0,95.0,224640,117.0
5065,2.0,,,,,48.0,,,,,240,note_off,,95.0,48.0,95.0,224880,117.125
5066,2.0,,,,,47.0,,,,,0,note_on,,95.0,47.0,95.0,224880,117.125
5067,2.0,,,,,47.0,,,,,240,note_off,,95.0,47.0,95.0,225120,117.25
5068,2.0,,,,,43.0,,,,,0,note_on,,95.0,43.0,95.0,225120,117.25
5069,2.0,,,,,43.0,,,,,240,note_off,,95.0,43.0,95.0,225360,117.375
5070,2.0,,,,,42.0,,,,,0,note_on,,95.0,42.0,95.0,225360,117.375
5071,2.0,,,,,42.0,,,,,240,note_off,,95.0,42.0,95.0,225600,117.5
5072,3.0,,,,,,,0.0,,,0,pitchwheel,,,,,43200,22.5
5073,3.0,,,,,79.0,,,,,0,note_on,,95.0,79.0,95.0,43200,22.5
5074,3.0,,,,,,,0.0,,,0,pitchwheel,,,,,43200,22.5
5075,3.0,,,,,75.0,,,,,0,note_on,,95.0,75.0,95.0,43200,22.5
5076,3.0,,,,,,,128.0,,,43,pitchwheel,,,,,43243,22.522395833333334
5077,3.0,,,,,,,256.0,,,43,pitchwheel,,,,,43286,22.544791666666665
5078,3.0,,,,,,,128.0,,,10,pitchwheel,,,,,43296,22.55
5079,3.0,,,,,,,384.0,,,33,pitchwheel,,,,,43329,22.5671875
5080,3.0,,,,,,,512.0,,,43,pitchwheel,,,,,43372,22.589583333333334
5081,3.0,,,,,,,256.0,,,20,pitchwheel,,,,,43392,22.6
5082,3.0,,,,,,,640.0,,,23,pitchwheel,,,,,43415,22.611979166666668
5083,3.0,,,,,,,768.0,,,43,pitchwheel,,,,,43458,22.634375
5084,3.0,,,,,,,384.0,,,30,pitchwheel,,,,,43488,22.65
5085,3.0,,,,,,,896.0,,,13,pitchwheel,,,,,43501,22.656770833333333
5086,3.0,,,,,,,1024.0,,,43,pitchwheel,,,,,43544,22.679166666666667
5087,3.0,,,,,,,512.0,,,40,pitchwheel,,,,,43584,22.7
5088,3.0,,,,,,,1152.0,,,3,pitchwheel,,,,,43587,22.7015625
5089,3.0,,,,,,,1280.0,,,43,pitchwheel,,,,,43630,22.723958333333332
5090,3.0,,,,,,,1408.0,,,43,pitchwheel,,,,,43673,22.746354166666666
5091,3.0,,,,,,,640.0,,,7,pitchwheel,,,,,43680,22.75
5092,3.0,,,,,,,640.0,,,0,pitchwheel,,,,,43680,22.75
5093,3.0,,,,,,,1408.0,,,0,pitchwheel,,,,,43680,22.75
5094,3.0,,,,,,,640.0,,,480,pitchwheel,,,,,44160,23.0
5095,3.0,,,,,,,0.0,,,0,pitchwheel,,,,,44160,23.0
5096,3.0,,,,,79.0,,,,,0,note_off,,95.0,79.0,95.0,44160,23.0
5097,3.0,,,,,,,1408.0,,,0,pitchwheel,,,,,44160,23.0
5098,3.0,,,,,,,0.0,,,0,pitchwheel,,,,,44160,23.0
5099,3.0,,,,,75.0,,,,,0,note_off,,95.0,75.0,95.0,44160,23.0
5100,3.0,,,,,,,0.0,,,0,pitchwheel,,,,,44160,23.0
5101,3.0,,,,,79.0,,,,,0,note_on,,95.0,79.0,95.0,44160,23.0
5102,3.0,,,,,,,0.0,,,0,pitchwheel,,,,,44160,23.0
5103,3.0,,,,,75.0,,,,,0,note_on,,95.0,75.0,95.0,44160,23.0
5104,3.0,,,,,,,128.0,,,43,pitchwheel,,,,,44203,23.022395833333334
5105,3.0,,,,,,,256.0,,,43,pitchwheel,,,,,44246,23.044791666666665
5106,3.0,,,,,,,128.0,,,10,pitchwheel,,,,,44256,23.05
5107,3.0,,,,,,,384.0,,,33,pitchwheel,,,,,44289,23.0671875
5108,3.0,,,,,,,512.0,,,43,pitchwheel,,,,,44332,23.089583333333334
5109,3.0,,,,,,,256.0,,,20,pitchwheel,,,,,44352,23.1
5110,3.0,,,,,,,640.0,,,23,pitchwheel,,,,,44375,23.111979166666668
5111,3.0,,,,,,,768.0,,,43,pitchwheel,,,,,44418,23.134375
5112,3.0,,,,,,,384.0,,,30,pitchwheel,,,,,44448,23.15
5113,3.0,,,,,,,896.0,,,13,pitchwheel,,,,,44461,23.156770833333333
5114,3.0,,,,,,,1024.0,,,43,pitchwheel,,,,,44504,23.179166666666667
5115,3.0,,,,,,,512.0,,,40,pitchwheel,,,,,44544,23.2
5116,3.0,,,,,,,1152.0,,,3,pitchwheel,,,,,44547,23.2015625
5117,3.0,,,,,,,1280.0,,,43,pitchwheel,,,,,44590,23.223958333333332
5118,3.0,,,,,,,1408.0,,,43,pitchwheel,,,,,44633,23.246354166666666
5119,3.0,,,,,,,640.0,,,7,pitchwheel,,,,,44640,23.25
5120,3.0,,,,,,,640.0,,,0,pitchwheel,,,,,44640,23.25
5121,3.0,,,,,,,1408.0,,,0,pitchwheel,,,,,44640,23.25
5122,3.0,,,,,,,640.0,,,480,pitchwheel,,,,,45120,23.5
5123,3.0,,,,,,,0.0,,,0,pitchwheel,,,,,45120,23.5
5124,3.0,,,,,79.0,,,,,0,note_off,,95.0,79.0,95.0,45120,23.5
5125,3.0,,,,,,,1408.0,,,0,pitchwheel,,,,,45120,23.5
5126,3.0,,,,,,,0.0,,,0,pitchwheel,,,,,45120,23.5
5127,3.0,,,,,75.0,,,,,0,note_off,,95.0,75.0,95.0,45120,23.5
5128,3.0,,,,,,,0.0,,,0,pitchwheel,,,,,45120,23.5
5129,3.0,,,,,79.0,,,,,0,note_on,,95.0,79.0,95.0,45120,23.5
5130,3.0,,,,,,,0.0,,,0,pitchwheel,,,,,45120,23.5
5131,3.0,,,,,75.0,,,,,0,note_on,,95.0,75.0,95.0,45120,23.5
5132,3.0,,,,,,,128.0,,,43,pitchwheel,,,,,45163,23.522395833333334
5133,3.0,,,,,,,256.0,,,43,pitchwheel,,,,,45206,23.544791666666665
5134,3.0,,,,,,,128.0,,,10,pitchwheel,,,,,45216,23.55
5135,3.0,,,,,,,384.0,,,33,pitchwheel,,,,,45249,23.5671875
5136,3.0,,,,,,,512.0,,,43,pitchwheel,,,,,45292,23.589583333333334
5137,3.0,,,,,,,256.0,,,20,pitchwheel,,,,,45312,23.6
5138,3.0,,,,,,,640.0,,,23,pitchwheel,,,,,45335,23.611979166666668
5139,3.0,,,,,,,768.0,,,43,pitchwheel,,,,,45378,23.634375
5140,3.0,,,,,,,384.0,,,30,pitchwheel,,,,,45408,23.65
5141,3.0,,,,,,,896.0,,,13,pitchwheel,,,,,45421,23.656770833333333
5142,3.0,,,,,,,1024.0,,,43,pitchwheel,,,,,45464,23.679166666666667
5143,3.0,,,,,,,512.0,,,40,pitchwheel,,,,,45504,23.7
5144,3.0,,,,,,,1152.0,,,3,pitchwheel,,,,,45507,23.7015625
5145,3.0,,,,,,,1280.0,,,43,pitchwheel,,,,,45550,23.723958333333332
5146,3.0,,,,,,,1408.0,,,43,pitchwheel,,,,,45593,23.746354166666666
5147,3.0,,,,,,,640.0,,,7,pitchwheel,,,,,45600,23.75
5148,3.0,,,,,,,640.0,,,0,pitchwheel,,,,,45600,23.75
5149,3.0,,,,,,,1408.0,,,0,pitchwheel,,,,,45600,23.75
5150,3.0,,,,,,,640.0,,,480,pitchwheel,,,,,46080,24.0
5151,3.0,,,,,,,0.0,,,0,pitchwheel,,,,,46080,24.0
5152,3.0,,,,,79.0,,,,,0,note_off,,95.0,79.0,95.0,46080,24.0
5153,3.0,,,,,,,1408.0,,,0,pitchwheel,,,,,46080,24.0
5154,3.0,,,,,,,0.0,,,0,pitchwheel,,,,,46080,24.0
5155,3.0,,,,,75.0,,,,,0,note_off,,95.0,75.0,95.0,46080,24.0
5156,3.0,,,,,,,0.0,,,0,pitchwheel,,,,,46080,24.0
5157,3.0,,,,,79.0,,,,,0,note_on,,95.0,79.0,95.0,46080,24.0
5158,3.0,,,,,,,0.0,,,0,pitchwheel,,,,,46080,24.0
5159,3.0,,,,,75.0,,,,,0,note_on,,95.0,75.0,95.0,46080,24.0
5160,3.0,,,,,,,128.0,,,43,pitchwheel,,,,,46123,24.022395833333334
5161,3.0,,,,,,,128.0,,,0,pitchwheel,,,,,46123,24.022395833333334
5162,3.0,,,,,,,256.0,,,43,pitchwheel,,,,,46166,24.044791666666665
5163,3.0,,,,,,,256.0,,,0,pitchwheel,,,,,46166,24.044791666666665
5164,3.0,,,,,,,384.0,,,43,pitchwheel,,,,,46209,24.0671875
5165,3.0,,,,,,,384.0,,,0,pitchwheel,,,,,46209,24.0671875
5166,3.0,,,,,,,512.0,,,43,pitchwheel,,,,,46252,24.089583333333334
5167,3.0,,,,,,,512.0,,,0,pitchwheel,,,,,46252,24.089583333333334
5168,3.0,,,,,,,640.0,,,43,pitchwheel,,,,,46295,24.111979166666668
5169,3.0,,,,,,,640.0,,,0,pitchwheel,,,,,46295,24.111979166666668
5170,3.0,,,,,,,768.0,,,43,pitchwheel,,,,,46338,24.134375
5171,3.0,,,,,,,768.0,,,0,pitchwheel,,,,,46338,24.134375
5172,3.0,,,,,,,896.0,,,43,pitchwheel,,,,,46381,24.156770833333333
5173,3.0,,,,,,,896.0,,,0,pitchwheel,,,,,46381,24.156770833333333
5174,3.0,,,,,,,1024.0,,,43,pitchwheel,,,,,46424,24.179166666666667
5175,3.0,,,,,,,1024.0,,,0,pitchwheel,,,,,46424,24.179166666666667
5176,3.0,,,,,,,1152.0,,,43,pitchwheel,,,,,46467,24.2015625
5177,3.0,,,,,,,1152.0,,,0,pitchwheel,,,,,46467,24.2015625
5178,3.0,,,,,,,1280.0,,,43,pitchwheel,,,,,46510,24.223958333333332
5179,3.0,,,,,,,1280.0,,,0,pitchwheel,,,,,46510,24.223958333333332
5180,3.0,,,,,,,1408.0,,,43,pitchwheel,,,,,46553,24.246354166666666
5181,3.0,,,,,,,1408.0,,,0,pitchwheel,,,,,46553,24.246354166666666
5182,3.0,,,,,,,1536.0,,,43,pitchwheel,,,,,46596,24.26875
5183,3.0,,,,,,,1536.0,,,0,pitchwheel,,,,,46596,24.26875
5184,3.0,,,,,,,1664.0,,,43,pitchwheel,,,,,46639,24.29114583333333
5185,3.0,,,,,,,1664.0,,,0,pitchwheel,,,,,46639,24.29114583333333
5186,3.0,,,,,,,1792.0,,,43,pitchwheel,,,,,46682,24.313541666666666
5187,3.0,,,,,,,1792.0,,,0,pitchwheel,,,,,46682,24.313541666666666
5188,3.0,,,,,,,1920.0,,,43,pitchwheel,,,,,46725,24.3359375
5189,3.0,,,,,,,1920.0,,,0,pitchwheel,,,,,46725,24.3359375
5190,3.0,,,,,,,2048.0,,,43,pitchwheel,,,,,46768,24.358333333333334
5191,3.0,,,,,,,2048.0,,,0,pitchwheel,,,,,46768,24.358333333333334
5192,3.0,,,,,,,2176.0,,,43,pitchwheel,,,,,46811,24.380729166666665
5193,3.0,,,,,,,2176.0,,,0,pitchwheel,,,,,46811,24.380729166666665
5194,3.0,,,,,,,2304.0,,,43,pitchwheel,,,,,46854,24.403125
5195,3.0,,,,,,,2304.0,,,0,pitchwheel,,,,,46854,24.403125
5196,3.0,,,,,,,2432.0,,,43,pitchwheel,,,,,46897,24.425520833333334
5197,3.0,,,,,,,2432.0,,,0,pitchwheel,,,,,46897,24.425520833333334
5198,3.0,,,,,,,2560.0,,,43,pitchwheel,,,,,46940,24.447916666666668
5199,3.0,,,,,,,2560.0,,,0,pitchwheel,,,,,46940,24.447916666666668
5200,3.0,,,,,,,2688.0,,,43,pitchwheel,,,,,46983,24.4703125
5201,3.0,,,,,,,2688.0,,,0,pitchwheel,,,,,46983,24.4703125
5202,3.0,,,,,,,2816.0,,,43,pitchwheel,,,,,47026,24.492708333333333
5203,3.0,,,,,,,2816.0,,,0,pitchwheel,,,,,47026,24.492708333333333
5204,3.0,,,,,,,2816.0,,,14,pitchwheel,,,,,47040,24.5
5205,3.0,,,,,,,2816.0,,,0,pitchwheel,,,,,47040,24.5
5206,3.0,,,,,,,2816.0,,,960,pitchwheel,,,,,48000,25.0
5207,3.0,,,,,,,0.0,,,0,pitchwheel,,,,,48000,25.0
5208,3.0,,,,,79.0,,,,,0,note_off,,95.0,79.0,95.0,48000,25.0
5209,3.0,,,,,,,2816.0,,,0,pitchwheel,,,,,48000,25.0
5210,3.0,,,,,,,0.0,,,0,pitchwheel,,,,,48000,25.0
5211,3.0,,,,,75.0,,,,,0,note_off,,95.0,75.0,95.0,48000,25.0
5212,3.0,,,,,,,0.0,,,0,pitchwheel,,,,,48000,25.0
5213,3.0,,,,,79.0,,,,,0,note_on,,95.0,79.0,95.0,48000,25.0
5214,3.0,,,,,,,0.0,,,0,pitchwheel,,,,,48000,25.0
5215,3.0,,,,,75.0,,,,,0,note_on,,95.0,75.0,95.0,48000,25.0
5216,3.0,,,,,,,128.0,,,21,pitchwheel,,,,,48021,25.0109375
5217,3.0,,,,,,,128.0,,,0,pitchwheel,,,,,48021,25.0109375
5218,3.0,,,,,,,256.0,,,21,pitchwheel,,,,,48042,25.021875
5219,3.0,,,,,,,256.0,,,0,pitchwheel,,,,,48042,25.021875
5220,3.0,,,,,,,384.0,,,21,pitchwheel,,,,,48063,25.0328125
5221,3.0,,,,,,,384.0,,,0,pitchwheel,,,,,48063,25.0328125
5222,3.0,,,,,,,512.0,,,21,pitchwheel,,,,,48084,25.04375
5223,3.0,,,,,,,512.0,,,0,pitchwheel,,,,,48084,25.04375
5224,3.0,,,,,,,640.0,,,21,pitchwheel,,,,,48105,25.0546875
5225,3.0,,,,,,,640.0,,,0,pitchwheel,,,,,48105,25.0546875
5226,3.0,,,,,,,768.0,,,21,pitchwheel,,,,,48126,25.065625
5227,3.0,,,,,,,768.0,,,0,pitchwheel,,,,,48126,25.065625
5228,3.0,,,,,,,896.0,,,21,pitchwheel,,,,,48147,25.0765625
5229,3.0,,,,,,,896.0,,,0,pitchwheel,,,,,48147,25.0765625
5230,3.0,,,,,,,1024.0,,,21,pitchwheel,,,,,48168,25.0875
5231,3.0,,,,,,,1024.0,,,0,pitchwheel,,,,,48168,25.0875
5232,3.0,,,,,,,1152.0,,,21,pitchwheel,,,,,48189,25.0984375
5233,3.0,,,,,,,1152.0,,,0,pitchwheel,,,,,48189,25.0984375
5234,3.0,,,,,,,1280.0,,,21,pitchwheel,,,,,48210,25.109375
5235,3.0,,,,,,,1280.0,,,0,pitchwheel,,,,,48210,25.109375
5236,3.0,,,,,,,1408.0,,,21,pitchwheel,,,,,48231,25.1203125
5237,3.0,,,,,,,1408.0,,,0,pitchwheel,,,,,48231,25.1203125
5238,3.0,,,,,,,1408.0,,,9,pitchwheel,,,,,48240,25.125
5239,3.0,,,,,,,1408.0,,,0,pitchwheel,,,,,48240,25.125
5240,3.0,,,,,,,1408.0,,,240,pitchwheel,,,,,48480,25.25
5241,3.0,,,,,,,0.0,,,0,pitchwheel,,,,,48480,25.25
5242,3.0,,,,,79.0,,,,,0,note_off,,95.0,79.0,95.0,48480,25.25
5243,3.0,,,,,,,1408.0,,,0,pitchwheel,,,,,48480,25.25
5244,3.0,,,,,,,0.0,,,0,pitchwheel,,,,,48480,25.25
5245,3.0,,,,,75.0,,,,,0,note_off,,95.0,75.0,95.0,48480,25.25
5246,3.0,,,,,,,0.0,,,0,pitchwheel,,,,,48480,25.25
5247,3.0,,,,,79.0,,,,,0,note_on,,95.0,79.0,95.0,48480,25.25
5248,3.0,,,,,,,0.0,,,0,pitchwheel,,,,,48480,25.25
5249,3.0,,,,,75.0,,,,,0,note_on,,95.0,75.0,95.0,48480,25.25
5250,3.0,,,,,,,-128.0,,,48,pitchwheel,,,,,48528,25.275
5251,3.0,,,,,,,-128.0,,,0,pitchwheel,,,,,48528,25.275
5252,3.0,,,,,,,-256.0,,,48,pitchwheel,,,,,48576,25.3
5253,3.0,,,,,,,-256.0,,,0,pitchwheel,,,,,48576,25.3
5254,3.0,,,,,,,-384.0,,,48,pitchwheel,,,,,48624,25.325
5255,3.0,,,,,,,-384.0,,,0,pitchwheel,,,,,48624,25.325
5256,3.0,,,,,,,-512.0,,,48,pitchwheel,,,,,48672,25.35
5257,3.0,,,,,,,-512.0,,,0,pitchwheel,,,,,48672,25.35
5258,3.0,,,,,,,-640.0,,,48,pitchwheel,,,,,48720,25.375
5259,3.0,,,,,,,-640.0,,,0,pitchwheel,,,,,48720,25.375
5260,3.0,,,,,,,-640.0,,,0,pitchwheel,,,,,48720,25.375
5261,3.0,,,,,,,-640.0,,,0,pitchwheel,,,,,48720,25.375
5262,3.0,,,,,,,-512.0,,,48,pitchwheel,,,,,48768,25.4
5263,3.0,,,,,,,-512.0,,,0,pitchwheel,,,,,48768,25.4
5264,3.0,,,,,,,-384.0,,,48,pitchwheel,,,,,48816,25.425
5265,3.0,,,,,,,-384.0,,,0,pitchwheel,,,,,48816,25.425
5266,3.0,,,,,,,-256.0,,,48,pitchwheel,,,,,48864,25.45
5267,3.0,,,,,,,-256.0,,,0,pitchwheel,,,,,48864,25.45
5268,3.0,,,,,,,-128.0,,,48,pitchwheel,,,,,48912,25.475
5269,3.0,,,,,,,-128.0,,,0,pitchwheel,,,,,48912,25.475
5270,3.0,,,,,,,0.0,,,48,pitchwheel,,,,,48960,25.5
5271,3.0,,,,,,,0.0,,,0,pitchwheel,,,,,48960,25.5
5272,3.0,,,,,,,0.0,,,0,pitchwheel,,,,,48960,25.5
5273,3.0,,,,,79.0,,,,,0,note_off,,95.0,79.0,95.0,48960,25.5
5274,3.0,,,,,,,0.0,,,0,pitchwheel,,,,,48960,25.5
5275,3.0,,,,,,,0.0,,,0,pitchwheel,,,,,48960,25.5
5276,3.0,,,,,,,0.0,,,0,pitchwheel,,,,,48960,25.5
5277,3.0,,,,,75.0,,,,,0,note_off,,95.0,75.0,95.0,48960,25.5
5278,3.0,,,,,,,0.0,,,0,pitchwheel,,,,,48960,25.5
5279,3.0,,,,,79.0,,,,,0,note_on,,95.0,79.0,95.0,48960,25.5
5280,3.0,,,,,,,0.0,,,0,pitchwheel,,,,,48960,25.5
5281,3.0,,,,,75.0,,,,,0,note_on,,95.0,75.0,95.0,48960,25.5
5282,3.0,,,,,,,128.0,,,21,pitchwheel,,,,,48981,25.5109375
5283,3.0,,,,,,,256.0,,,21,pitchwheel,,,,,49002,25.521875
5284,3.0,,,,,,,128.0,,,12,pitchwheel,,,,,49014,25.528125
5285,3.0,,,,,,,384.0,,,9,pitchwheel,,,,,49023,25.5328125
5286,3.0,,,,,,,512.0,,,21,pitchwheel,,,,,49044,25.54375
5287,3.0,,,,,,,640.0,,,21,pitchwheel,,,,,49065,25.5546875
5288,3.0,,,,,,,256.0,,,3,pitchwheel,,,,,49068,25.55625
5289,3.0,,,,,,,768.0,,,18,pitchwheel,,,,,49086,25.565625
5290,3.0,,,,,,,896.0,,,21,pitchwheel,,,,,49107,25.5765625
5291,3.0,,,,,,,384.0,,,15,pitchwheel,,,,,49122,25.584375
5292,3.0,,,,,,,1024.0,,,6,pitchwheel,,,,,49128,25.5875
5293,3.0,,,,,,,1152.0,,,21,pitchwheel,,,,,49149,25.5984375
5294,3.0,,,,,,,1280.0,,,21,pitchwheel,,,,,49170,25.609375
5295,3.0,,,,,,,512.0,,,6,pitchwheel,,,,,49176,25.6125
5296,3.0,,,,,,,1408.0,,,15,pitchwheel,,,,,49191,25.6203125
5297,3.0,,,,,,,1408.0,,,9,pitchwheel,,,,,49200,25.625
5298,3.0,,,,,,,640.0,,,30,pitchwheel,,,,,49230,25.640625
5299,3.0,,,,,,,768.0,,,54,pitchwheel,,,,,49284,25.66875
5300,3.0,,,,,,,896.0,,,54,pitchwheel,,,,,49338,25.696875
5301,3.0,,,,,,,1024.0,,,54,pitchwheel,,,,,49392,25.724999999999998
5302,3.0,,,,,,,1408.0,,,48,pitchwheel,,,,,49440,25.75
5303,3.0,,,,,,,0.0,,,0,pitchwheel,,,,,49440,25.75
5304,3.0,,,,,75.0,,,,,0,note_off,,95.0,75.0,95.0,49440,25.75
5305,3.0,,,,,,,1152.0,,,6,pitchwheel,,,,,49446,25.753125
5306,3.0,,,,,,,1280.0,,,54,pitchwheel,,,,,49500,25.78125
5307,3.0,,,,,,,1408.0,,,54,pitchwheel,,,,,49554,25.809375
5308,3.0,,,,,,,1408.0,,,6,pitchwheel,,,,,49560,25.8125
5309,3.0,,,,,,,1408.0,,,600,pitchwheel,,,,,50160,26.125
5310,3.0,,,,,,,0.0,,,0,pitchwheel,,,,,50160,26.125
5311,3.0,,,,,79.0,,,,,0,note_off,,95.0,79.0,95.0,50160,26.125
5312,2.0,,,,,51.0,,,,,0,note_on,,95.0,51.0,95.0,225600,117.5
5313,2.0,,,,,51.0,,,,,240,note_off,,95.0,51.0,95.0,225840,117.625
5314,2.0,,,,,54.0,,,,,0,note_on,,95.0,54.0,95.0,225840,117.625
5315,2.0,,,,,54.0,,,,,240,note_off,,95.0,54.0,95.0,226080,117.75
5316,2.0,,,,,51.0,,,,,0,note_on,,95.0,51.0,95.0,226080,117.75
5317,2.0,,,,,51.0,,,,,240,note_off,,95.0,51.0,95.0,226320,117.875
5318,2.0,,,,,54.0,,,,,0,note_on,,95.0,54.0,95.0,226320,117.875
5319,2.0,,,,,54.0,,,,,240,note_off,,95.0,54.0,95.0,226560,118.0
5320,2.0,,,,,56.0,,,,,0,note_on,,95.0,56.0,95.0,226560,118.0
5321,2.0,,,,,56.0,,,,,240,note_off,,95.0,56.0,95.0,226800,118.125
5322,2.0,,,,,59.0,,,,,0,note_on,,95.0,59.0,95.0,226800,118.125
5323,2.0,,,,,59.0,,,,,240,note_off,,95.0,59.0,95.0,227040,118.25
5324,2.0,,,,,56.0,,,,,0,note_on,,70.0,56.0,70.0,227040,118.25
5325,2.0,,,,,56.0,,,,,240,note_off,,70.0,56.0,70.0,227280,118.375
5326,2.0,,,,,59.0,,,,,0,note_on,,95.0,59.0,95.0,227280,118.375
5327,2.0,,,,,59.0,,,,,192,note_off,,95.0,59.0,95.0,227472,118.475
5328,2.0,,,,,56.0,,,,,0,note_on,,70.0,56.0,70.0,227472,118.475
5329,2.0,,,,,56.0,,,,,192,note_off,,70.0,56.0,70.0,227664,118.575
5330,2.0,,,,,61.0,,,,,0,note_on,,95.0,61.0,95.0,227664,118.575
5331,2.0,,,,,61.0,,,,,192,note_off,,95.0,61.0,95.0,227856,118.675
5332,2.0,,,,,62.0,,,,,0,note_on,,70.0,62.0,70.0,227856,118.675
5333,2.0,,,,,62.0,,,,,192,note_off,,70.0,62.0,70.0,228048,118.77499999999999
5334,2.0,,,,,63.0,,,,,0,note_on,,70.0,63.0,70.0,228048,118.77499999999999
5335,2.0,,,,,63.0,,,,,192,note_off,,70.0,63.0,70.0,228240,118.875
5336,2.0,,,,,61.0,,,,,0,note_on,,95.0,61.0,95.0,228240,118.875
5337,2.0,,,,,61.0,,,,,160,note_off,,95.0,61.0,95.0,228400,118.95833333333333
5338,2.0,,,,,62.0,,,,,0,note_on,,70.0,62.0,70.0,228400,118.95833333333333
5339,2.0,,,,,62.0,,,,,160,note_off,,70.0,62.0,70.0,228560,119.04166666666667
5340,2.0,,,,,63.0,,,,,0,note_on,,70.0,63.0,70.0,228560,119.04166666666667
5341,2.0,,,,,63.0,,,,,160,note_off,,70.0,63.0,70.0,228720,119.125
5342,2.0,,,,,66.0,,,,,0,note_on,,95.0,66.0,95.0,228720,119.125
5343,2.0,,,,,66.0,,,,,240,note_off,,95.0,66.0,95.0,228960,119.25
5344,2.0,,,,,68.0,,,,,0,note_on,,70.0,68.0,70.0,228960,119.25
5345,2.0,,,,,68.0,,,,,240,note_off,,70.0,68.0,70.0,229200,119.375
5346,3.0,,,,,,,0.0,,,0,pitchwheel,,,,,50160,26.125
5347,3.0,,,,,68.0,,,,,0,note_on,,95.0,68.0,95.0,50160,26.125
5348,3.0,,,,,,,128.0,,,7,pitchwheel,,,,,50167,26.128645833333334
5349,3.0,,,,,,,256.0,,,7,pitchwheel,,,,,50174,26.132291666666667
5350,3.0,,,,,,,384.0,,,7,pitchwheel,,,,,50181,26.1359375
5351,3.0,,,,,,,512.0,,,7,pitchwheel,,,,,50188,26.139583333333334
5352,3.0,,,,,,,640.0,,,7,pitchwheel,,,,,50195,26.143229166666668
5353,3.0,,,,,,,768.0,,,7,pitchwheel,,,,,50202,26.146874999999998
5354,3.0,,,,,,,896.0,,,7,pitchwheel,,,,,50209,26.15052083333333
5355,3.0,,,,,,,1024.0,,,7,pitchwheel,,,,,50216,26.154166666666665
5356,3.0,,,,,,,1152.0,,,7,pitchwheel,,,,,50223,26.1578125
5357,3.0,,,,,,,1280.0,,,7,pitchwheel,,,,,50230,26.161458333333332
5358,3.0,,,,,,,1408.0,,,7,pitchwheel,,,,,50237,26.165104166666666
5359,3.0,,,,,,,1536.0,,,7,pitchwheel,,,,,50244,26.16875
5360,3.0,,,,,,,1664.0,,,7,pitchwheel,,,,,50251,26.172395833333333
5361,3.0,,,,,,,1792.0,,,7,pitchwheel,,,,,50258,26.176041666666666
5362,3.0,,,,,,,1920.0,,,7,pitchwheel,,,,,50265,26.1796875
5363,3.0,,,,,,,2048.0,,,7,pitchwheel,,,,,50272,26.183333333333334
5364,3.0,,,,,,,2048.0,,,8,pitchwheel,,,,,50280,26.1875
5365,3.0,,,,,,,2048.0,,,120,pitchwheel,,,,,50400,26.25
5366,3.0,,,,,,,1920.0,,,7,pitchwheel,,,,,50407,26.253645833333334
5367,3.0,,,,,,,1792.0,,,7,pitchwheel,,,,,50414,26.257291666666667
5368,3.0,,,,,,,1664.0,,,7,pitchwheel,,,,,50421,26.2609375
5369,3.0,,,,,,,1536.0,,,7,pitchwheel,,,,,50428,26.264583333333334
5370,3.0,,,,,,,1408.0,,,7,pitchwheel,,,,,50435,26.268229166666668
5371,3.0,,,,,,,1280.0,,,7,pitchwheel,,,,,50442,26.271874999999998
5372,3.0,,,,,,,1152.0,,,7,pitchwheel,,,,,50449,26.27552083333333
5373,3.0,,,,,,,1024.0,,,7,pitchwheel,,,,,50456,26.279166666666665
5374,3.0,,,,,,,896.0,,,7,pitchwheel,,,,,50463,26.2828125
5375,3.0,,,,,,,768.0,,,7,pitchwheel,,,,,50470,26.286458333333332
5376,3.0,,,,,,,640.0,,,7,pitchwheel,,,,,50477,26.290104166666666
5377,3.0,,,,,,,512.0,,,7,pitchwheel,,,,,50484,26.29375
5378,3.0,,,,,,,384.0,,,7,pitchwheel,,,,,50491,26.297395833333333
5379,3.0,,,,,,,256.0,,,7,pitchwheel,,,,,50498,26.301041666666666
5380,3.0,,,,,,,128.0,,,7,pitchwheel,,,,,50505,26.3046875
5381,3.0,,,,,,,0.0,,,7,pitchwheel,,,,,50512,26.308333333333334
5382,3.0,,,,,,,0.0,,,8,pitchwheel,,,,,50520,26.3125
5383,3.0,,,,,,,0.0,,,120,pitchwheel,,,,,50640,26.375
5384,3.0,,,,,,,128.0,,,7,pitchwheel,,,,,50647,26.378645833333334
5385,3.0,,,,,,,256.0,,,7,pitchwheel,,,,,50654,26.382291666666667
5386,3.0,,,,,,,384.0,,,7,pitchwheel,,,,,50661,26.3859375
5387,3.0,,,,,,,512.0,,,7,pitchwheel,,,,,50668,26.389583333333334
5388,3.0,,,,,,,640.0,,,7,pitchwheel,,,,,50675,26.393229166666668
5389,3.0,,,,,,,768.0,,,7,pitchwheel,,,,,50682,26.396874999999998
5390,3.0,,,,,,,896.0,,,7,pitchwheel,,,,,50689,26.40052083333333
5391,3.0,,,,,,,1024.0,,,7,pitchwheel,,,,,50696,26.404166666666665
5392,3.0,,,,,,,1152.0,,,7,pitchwheel,,,,,50703,26.4078125
5393,3.0,,,,,,,1280.0,,,7,pitchwheel,,,,,50710,26.411458333333332
5394,3.0,,,,,,,1408.0,,,7,pitchwheel,,,,,50717,26.415104166666666
5395,3.0,,,,,,,1536.0,,,7,pitchwheel,,,,,50724,26.41875
5396,3.0,,,,,,,1664.0,,,7,pitchwheel,,,,,50731,26.422395833333333
5397,3.0,,,,,,,1792.0,,,7,pitchwheel,,,,,50738,26.426041666666666
5398,3.0,,,,,,,1920.0,,,7,pitchwheel,,,,,50745,26.4296875
5399,3.0,,,,,,,2048.0,,,7,pitchwheel,,,,,50752,26.433333333333334
5400,3.0,,,,,,,2048.0,,,8,pitchwheel,,,,,50760,26.4375
5401,3.0,,,,,,,2048.0,,,120,pitchwheel,,,,,50880,26.5
5402,3.0,,,,,,,0.0,,,0,pitchwheel,,,,,50880,26.5
5403,3.0,,,,,68.0,,,,,0,note_off,,95.0,68.0,95.0,50880,26.5
5404,2.0,,,,,44.0,,,,,0,note_on,,95.0,44.0,95.0,229200,119.375
5405,2.0,,,,,44.0,,,,,55,note_off,,95.0,44.0,95.0,229255,119.40364583333333
5406,3.0,,,,,,,0.0,,,185,pitchwheel,,,,,51065,26.596354166666668
5407,3.0,,,,,68.0,,,,,0,note_on,,31.0,68.0,31.0,51065,26.596354166666668
5408,3.0,,,,,80.0,,,,,0,note_on,,95.0,80.0,95.0,51065,26.596354166666668
5409,3.0,,,,,,,128.0,,,32,pitchwheel,,,,,51097,26.613020833333334
5410,3.0,,,,,,,256.0,,,32,pitchwheel,,,,,51129,26.6296875
5411,3.0,,,,,,,384.0,,,32,pitchwheel,,,,,51161,26.646354166666665
5412,3.0,,,,,,,512.0,,,32,pitchwheel,,,,,51193,26.663020833333334
5413,3.0,,,,,,,640.0,,,32,pitchwheel,,,,,51225,26.6796875
5414,3.0,,,,,,,768.0,,,32,pitchwheel,,,,,51257,26.696354166666666
5415,3.0,,,,,,,896.0,,,32,pitchwheel,,,,,51289,26.71302083333333
5416,3.0,,,,,,,1024.0,,,32,pitchwheel,,,,,51321,26.7296875
5417,3.0,,,,,,,1152.0,,,32,pitchwheel,,,,,51353,26.746354166666666
5418,3.0,,,,,,,1280.0,,,32,pitchwheel,,,,,51385,26.763020833333332
5419,3.0,,,,,,,1408.0,,,32,pitchwheel,,,,,51417,26.779687499999998
5420,3.0,,,,,,,1408.0,,,8,pitchwheel,,,,,51425,26.783854166666668
5421,3.0,,,,,,,1408.0,,,360,pitchwheel,,,,,51785,26.971354166666668
5422,3.0,,,,,,,1280.0,,,120,pitchwheel,,,,,51905,27.033854166666668
5423,3.0,,,,,,,1152.0,,,120,pitchwheel,,,,,52025,27.096354166666668
5424,3.0,,,,,,,1024.0,,,120,pitchwheel,,,,,52145,27.158854166666668
5425,3.0,,,,,,,896.0,,,120,pitchwheel,,,,,52265,27.221354166666668
5426,3.0,,,,,,,768.0,,,120,pitchwheel,,,,,52385,27.283854166666668
5427,3.0,,,,,,,640.0,,,120,pitchwheel,,,,,52505,27.346354166666668
5428,3.0,,,,,,,640.0,,,0,pitchwheel,,,,,52505,27.346354166666668
5429,3.0,,,,,,,0.0,,,0,pitchwheel,,,,,52505,27.346354166666668
5430,3.0,,,,,68.0,,,,,0,note_off,,31.0,68.0,31.0,52505,27.346354166666668
5431,3.0,,,,,80.0,,,,,0,note_off,,95.0,80.0,95.0,52505,27.346354166666668
5432,3.0,,,,,,,0.0,,,0,pitchwheel,,,,,52505,27.346354166666668
5433,3.0,,,,,68.0,,,,,0,note_on,,95.0,68.0,95.0,52505,27.346354166666668
5434,3.0,,,,,,,128.0,,,30,pitchwheel,,,,,52535,27.361979166666668
5435,3.0,,,,,,,256.0,,,30,pitchwheel,,,,,52565,27.377604166666668
5436,3.0,,,,,,,384.0,,,30,pitchwheel,,,,,52595,27.393229166666668
5437,3.0,,,,,,,512.0,,,30,pitchwheel,,,,,52625,27.408854166666668
5438,3.0,,,,,,,640.0,,,30,pitchwheel,,,,,52655,27.424479166666668
5439,3.0,,,,,,,768.0,,,30,pitchwheel,,,,,52685,27.440104166666668
5440,3.0,,,,,,,896.0,,,30,pitchwheel,,,,,52715,27.455729166666668
5441,3.0,,,,,,,1024.0,,,30,pitchwheel,,,,,52745,27.471354166666668
5442,3.0,,,,,,,1152.0,,,30,pitchwheel,,,,,52775,27.486979166666668
5443,3.0,,,,,,,1280.0,,,30,pitchwheel,,,,,52805,27.502604166666668
5444,3.0,,,,,,,1408.0,,,30,pitchwheel,,,,,52835,27.518229166666668
5445,3.0,,,,,,,1536.0,,,30,pitchwheel,,,,,52865,27.533854166666668
5446,3.0,,,,,,,1664.0,,,30,pitchwheel,,,,,52895,27.549479166666668
5447,3.0,,,,,,,1792.0,,,30,pitchwheel,,,,,52925,27.565104166666668
5448,3.0,,,,,,,1920.0,,,30,pitchwheel,,,,,52955,27.580729166666668
5449,3.0,,,,,,,2048.0,,,30,pitchwheel,,,,,52985,27.596354166666668
5450,3.0,,,,,,,2048.0,,,0,pitchwheel,,,,,52985,27.596354166666668
5451,3.0,,,,,,,2048.0,,,480,pitchwheel,,,,,53465,27.846354166666668
5452,3.0,,,,,,,0.0,,,0,pitchwheel,,,,,53465,27.846354166666668
5453,3.0,,,,,68.0,,,,,0,note_off,,95.0,68.0,95.0,53465,27.846354166666668
5454,3.0,,,,,,,0.0,,,0,pitchwheel,,,,,53465,27.846354166666668
5455,3.0,,,,,49.0,,,,,0,note_on,,95.0,49.0,95.0,53465,27.846354166666668
5456,3.0,,,,,,,128.0,,,21,pitchwheel,,,,,53486,27.857291666666665
5457,3.0,,,,,,,256.0,,,21,pitchwheel,,,,,53507,27.868229166666666
5458,3.0,,,,,,,384.0,,,21,pitchwheel,,,,,53528,27.879166666666666
5459,3.0,,,,,,,512.0,,,21,pitchwheel,,,,,53549,27.890104166666667
5460,3.0,,,,,,,640.0,,,21,pitchwheel,,,,,53570,27.901041666666668
5461,3.0,,,,,,,768.0,,,21,pitchwheel,,,,,53591,27.911979166666665
5462,3.0,,,,,,,896.0,,,21,pitchwheel,,,,,53612,27.922916666666666
5463,3.0,,,,,,,1024.0,,,21,pitchwheel,,,,,53633,27.933854166666666
5464,3.0,,,,,,,1152.0,,,21,pitchwheel,,,,,53654,27.944791666666667
5465,3.0,,,,,,,1280.0,,,21,pitchwheel,,,,,53675,27.955729166666668
5466,3.0,,,,,,,1408.0,,,21,pitchwheel,,,,,53696,27.966666666666665
5467,3.0,,,,,,,1408.0,,,9,pitchwheel,,,,,53705,27.971354166666668
5468,3.0,,,,,,,1408.0,,,240,pitchwheel,,,,,53945,28.096354166666668
5469,3.0,,,,,,,1280.0,,,21,pitchwheel,,,,,53966,28.107291666666665
5470,3.0,,,,,,,1152.0,,,21,pitchwheel,,,,,53987,28.118229166666666
5471,3.0,,,,,,,1024.0,,,21,pitchwheel,,,,,54008,28.129166666666666
5472,3.0,,,,,,,896.0,,,21,pitchwheel,,,,,54029,28.140104166666667
5473,3.0,,,,,,,768.0,,,21,pitchwheel,,,,,54050,28.151041666666668
5474,3.0,,,,,,,640.0,,,21,pitchwheel,,,,,54071,28.161979166666665
5475,3.0,,,,,,,512.0,,,21,pitchwheel,,,,,54092,28.172916666666666
5476,3.0,,,,,,,384.0,,,21,pitchwheel,,,,,54113,28.183854166666666
5477,3.0,,,,,,,256.0,,,21,pitchwheel,,,,,54134,28.194791666666667
5478,3.0,,,,,,,128.0,,,21,pitchwheel,,,,,54155,28.205729166666668
5479,3.0,,,,,,,0.0,,,21,pitchwheel,,,,,54176,28.216666666666665
5480,3.0,,,,,,,0.0,,,9,pitchwheel,,,,,54185,28.221354166666668
5481,3.0,,,,,,,0.0,,,240,pitchwheel,,,,,54425,28.346354166666668
5482,3.0,,,,,,,128.0,,,21,pitchwheel,,,,,54446,28.357291666666665
5483,3.0,,,,,,,256.0,,,21,pitchwheel,,,,,54467,28.368229166666666
5484,3.0,,,,,,,384.0,,,21,pitchwheel,,,,,54488,28.379166666666666
5485,3.0,,,,,,,512.0,,,21,pitchwheel,,,,,54509,28.390104166666667
5486,3.0,,,,,,,640.0,,,21,pitchwheel,,,,,54530,28.401041666666668
5487,3.0,,,,,,,768.0,,,21,pitchwheel,,,,,54551,28.411979166666665
5488,3.0,,,,,,,896.0,,,21,pitchwheel,,,,,54572,28.422916666666666
5489,3.0,,,,,,,1024.0,,,21,pitchwheel,,,,,54593,28.433854166666666
5490,3.0,,,,,,,1152.0,,,21,pitchwheel,,,,,54614,28.444791666666667
5491,3.0,,,,,,,1280.0,,,21,pitchwheel,,,,,54635,28.455729166666668
5492,3.0,,,,,,,1408.0,,,21,pitchwheel,,,,,54656,28.466666666666665
5493,3.0,,,,,,,1408.0,,,9,pitchwheel,,,,,54665,28.471354166666668
5494,3.0,,,,,,,1408.0,,,240,pitchwheel,,,,,54905,28.596354166666668
5495,3.0,,,,,,,0.0,,,0,pitchwheel,,,,,54905,28.596354166666668
5496,3.0,,,,,49.0,,,,,0,note_off,,95.0,49.0,95.0,54905,28.596354166666668
5497,2.0,,,,,39.0,,,,,0,note_on,,95.0,39.0,95.0,229255,119.40364583333333
5498,2.0,,,,,39.0,,,,,240,note_off,,95.0,39.0,95.0,229495,119.52864583333333
5499,2.0,,,,,42.0,,,,,0,note_on,,70.0,42.0,70.0,229495,119.52864583333333
5500,2.0,,,,,42.0,,,,,240,note_off,,70.0,42.0,70.0,229735,119.65364583333333
5501,2.0,,,,,44.0,,,,,0,note_on,,95.0,44.0,95.0,229735,119.65364583333333
5502,2.0,,,,,44.0,,,,,240,note_off,,95.0,44.0,95.0,229975,119.77864583333333
5503,2.0,,,,,46.0,,,,,0,note_on,,95.0,46.0,95.0,229975,119.77864583333333
5504,2.0,,,,,46.0,,,,,240,note_off,,95.0,46.0,95.0,230215,119.90364583333333
5505,2.0,,,,,44.0,,,,,0,note_on,,95.0,44.0,95.0,230215,119.90364583333333
5506,2.0,,,,,44.0,,,,,240,note_off,,95.0,44.0,95.0,230455,120.02864583333333
5507,2.0,,,,,46.0,,,,,0,note_on,,70.0,46.0,70.0,230455,120.02864583333333
5508,2.0,,,,,46.0,,,,,240,note_off,,70.0,46.0,70.0,230695,120.15364583333333
5509,2.0,,,,,49.0,,,,,0,note_on,,95.0,49.0,95.0,230695,120.15364583333333
5510,2.0,,,,,49.0,,,,,240,note_off,,95.0,49.0,95.0,230935,120.27864583333333
5511,2.0,,,,,51.0,,,,,0,note_on,,70.0,51.0,70.0,230935,120.27864583333333
5512,2.0,,,,,51.0,,,,,240,note_off,,70.0,51.0,70.0,231175,120.40364583333333
5513,2.0,,,,,46.0,,,,,0,note_on,,95.0,46.0,95.0,231175,120.40364583333333
5514,2.0,,,,,46.0,,,,,240,note_off,,95.0,46.0,95.0,231415,120.52864583333333
5515,2.0,,,,,49.0,,,,,0,note_on,,70.0,49.0,70.0,231415,120.52864583333333
5516,2.0,,,,,49.0,,,,,240,note_off,,70.0,49.0,70.0,231655,120.65364583333333
5517,2.0,,,,,52.0,,,,,0,note_on,,95.0,52.0,95.0,231655,120.65364583333333
5518,2.0,,,,,52.0,,,,,160,note_off,,95.0,52.0,95.0,231815,120.73697916666667
5519,2.0,,,,,53.0,,,,,0,note_on,,70.0,53.0,70.0,231815,120.73697916666667
5520,2.0,,,,,53.0,,,,,160,note_off,,70.0,53.0,70.0,231975,120.8203125
5521,2.0,,,,,56.0,,,,,0,note_on,,95.0,56.0,95.0,231975,120.8203125
5522,2.0,,,,,56.0,,,,,160,note_off,,95.0,56.0,95.0,232135,120.90364583333333
5523,2.0,,,,,51.0,,,,,0,note_on,,95.0,51.0,95.0,232135,120.90364583333333
5524,2.0,,,,,51.0,,,,,192,note_off,,95.0,51.0,95.0,232327,121.00364583333334
5525,2.0,,,,,53.0,,,,,0,note_on,,70.0,53.0,70.0,232327,121.00364583333334
5526,2.0,,,,,53.0,,,,,192,note_off,,70.0,53.0,70.0,232519,121.10364583333333
5527,2.0,,,,,56.0,,,,,0,note_on,,95.0,56.0,95.0,232519,121.10364583333333
5528,2.0,,,,,56.0,,,,,192,note_off,,95.0,56.0,95.0,232711,121.20364583333333
5529,2.0,,,,,57.0,,,,,0,note_on,,70.0,57.0,70.0,232711,121.20364583333333
5530,2.0,,,,,57.0,,,,,192,note_off,,70.0,57.0,70.0,232903,121.30364583333333
5531,2.0,,,,,58.0,,,,,0,note_on,,70.0,58.0,70.0,232903,121.30364583333333
5532,2.0,,,,,58.0,,,,,192,note_off,,70.0,58.0,70.0,233095,121.40364583333333
5533,2.0,,,,,56.0,,,,,0,note_on,,95.0,56.0,95.0,233095,121.40364583333333
5534,2.0,,,,,56.0,,,,,160,note_off,,95.0,56.0,95.0,233255,121.48697916666667
5535,2.0,,,,,57.0,,,,,0,note_on,,70.0,57.0,70.0,233255,121.48697916666667
5536,2.0,,,,,57.0,,,,,160,note_off,,70.0,57.0,70.0,233415,121.5703125
5537,2.0,,,,,58.0,,,,,0,note_on,,70.0,58.0,70.0,233415,121.5703125
5538,2.0,,,,,58.0,,,,,160,note_off,,70.0,58.0,70.0,233575,121.65364583333333
5539,2.0,,,,,56.0,,,,,0,note_on,,95.0,56.0,95.0,233575,121.65364583333333
5540,2.0,,,,,56.0,,,,,240,note_off,,95.0,56.0,95.0,233815,121.77864583333333
5541,3.0,,,,,,,0.0,,,0,pitchwheel,,,,,54905,28.596354166666668
5542,3.0,,,,,58.0,,,,,0,note_on,,31.0,58.0,31.0,54905,28.596354166666668
5543,3.0,,,,,70.0,,,,,0,note_on,,95.0,70.0,95.0,54905,28.596354166666668
5544,3.0,,,,,,,128.0,,,54,pitchwheel,,,,,54959,28.624479166666667
5545,3.0,,,,,,,256.0,,,54,pitchwheel,,,,,55013,28.652604166666666
5546,3.0,,,,,,,384.0,,,54,pitchwheel,,,,,55067,28.680729166666666
5547,3.0,,,,,,,512.0,,,54,pitchwheel,,,,,55121,28.708854166666665
5548,3.0,,,,,,,640.0,,,54,pitchwheel,,,,,55175,28.736979166666668
5549,3.0,,,,,,,768.0,,,54,pitchwheel,,,,,55229,28.765104166666667
5550,3.0,,,,,,,896.0,,,54,pitchwheel,,,,,55283,28.793229166666666
5551,3.0,,,,,,,1024.0,,,54,pitchwheel,,,,,55337,28.821354166666666
5552,3.0,,,,,,,1152.0,,,54,pitchwheel,,,,,55391,28.849479166666665
5553,3.0,,,,,,,1280.0,,,54,pitchwheel,,,,,55445,28.877604166666668
5554,3.0,,,,,,,1408.0,,,54,pitchwheel,,,,,55499,28.905729166666667
5555,3.0,,,,,,,1408.0,,,6,pitchwheel,,,,,55505,28.908854166666668
5556,3.0,,,,,,,1408.0,,,600,pitchwheel,,,,,56105,29.221354166666668
5557,3.0,,,,,,,0.0,,,0,pitchwheel,,,,,56105,29.221354166666668
5558,3.0,,,,,58.0,,,,,0,note_off,,31.0,58.0,31.0,56105,29.221354166666668
5559,3.0,,,,,70.0,,,,,0,note_off,,95.0,70.0,95.0,56105,29.221354166666668
5560,2.0,,,,,58.0,,,,,0,note_on,,95.0,58.0,95.0,233815,121.77864583333333
5561,2.0,,,,,58.0,,,,,960,note_off,,95.0,58.0,95.0,234775,122.27864583333333
5562,2.0,,,,,44.0,,,,,0,note_on,,95.0,44.0,95.0,234775,122.27864583333333
5563,2.0,,,,,44.0,,,,,160,note_off,,95.0,44.0,95.0,234935,122.36197916666667
5564,2.0,,,,,46.0,,,,,0,note_on,,70.0,46.0,70.0,234935,122.36197916666667
5565,2.0,,,,,46.0,,,,,160,note_off,,70.0,46.0,70.0,235095,122.4453125
5566,2.0,,,,,48.0,,,,,0,note_on,,70.0,48.0,70.0,235095,122.4453125
5567,2.0,,,,,48.0,,,,,160,note_off,,70.0,48.0,70.0,235255,122.52864583333333
5568,2.0,,,,,44.0,,,,,0,note_on,,95.0,44.0,95.0,235255,122.52864583333333
5569,2.0,,,,,44.0,,,,,160,note_off,,95.0,44.0,95.0,235415,122.61197916666667
5570,2.0,,,,,46.0,,,,,0,note_on,,70.0,46.0,70.0,235415,122.61197916666667
5571,2.0,,,,,46.0,,,,,160,note_off,,70.0,46.0,70.0,235575,122.6953125
5572,2.0,,,,,48.0,,,,,0,note_on,,70.0,48.0,70.0,235575,122.6953125
5573,2.0,,,,,48.0,,,,,160,note_off,,70.0,48.0,70.0,235735,122.77864583333333
5574,2.0,,,,,46.0,,,,,0,note_on,,95.0,46.0,95.0,235735,122.77864583333333
5575,2.0,,,,,46.0,,,,,160,note_off,,95.0,46.0,95.0,235895,122.86197916666667
5576,2.0,,,,,48.0,,,,,0,note_on,,70.0,48.0,70.0,235895,122.86197916666667
5577,2.0,,,,,48.0,,,,,160,note_off,,70.0,48.0,70.0,236055,122.9453125
5578,2.0,,,,,49.0,,,,,0,note_on,,70.0,49.0,70.0,236055,122.9453125
5579,2.0,,,,,49.0,,,,,160,note_off,,70.0,49.0,70.0,236215,123.02864583333333
5580,2.0,,,,,46.0,,,,,0,note_on,,95.0,46.0,95.0,236215,123.02864583333333
5581,2.0,,,,,46.0,,,,,160,note_off,,95.0,46.0,95.0,236375,123.11197916666667
5582,2.0,,,,,48.0,,,,,0,note_on,,70.0,48.0,70.0,236375,123.11197916666667
5583,2.0,,,,,48.0,,,,,160,note_off,,70.0,48.0,70.0,236535,123.1953125
5584,2.0,,,,,49.0,,,,,0,note_on,,70.0,49.0,70.0,236535,123.1953125
5585,2.0,,,,,49.0,,,,,160,note_off,,70.0,49.0,70.0,236695,123.27864583333333
5586,2.0,,,,,51.0,,,,,0,note_on,,95.0,51.0,95.0,236695,123.27864583333333
5587,2.0,,,,,51.0,,,,,160,note_off,,95.0,51.0,95.0,236855,123.36197916666667
5588,2.0,,,,,53.0,,,,,0,note_on,,70.0,53.0,70.0,236855,123.36197916666667
5589,2.0,,,,,53.0,,,,,160,note_off,,70.0,53.0,70.0,237015,123.4453125
5590,2.0,,,,,53.0,,,,,0,note_on,,95.0,53.0,95.0,237015,123.4453125
5591,2.0,,,,,53.0,,,,,160,note_off,,95.0,53.0,95.0,237175,123.52864583333333
5592,2.0,,,,,56.0,,,,,0,note_on,,95.0,56.0,95.0,237175,123.52864583333333
5593,2.0,,,,,56.0,,,,,160,note_off,,95.0,56.0,95.0,237335,123.61197916666667
5594,2.0,,,,,58.0,,,,,0,note_on,,70.0,58.0,70.0,237335,123.61197916666667
5595,2.0,,,,,58.0,,,,,160,note_off,,70.0,58.0,70.0,237495,123.6953125
5596,2.0,,,,,60.0,,,,,0,note_on,,70.0,60.0,70.0,237495,123.6953125
5597,2.0,,,,,60.0,,,,,160,note_off,,70.0,60.0,70.0,237655,123.77864583333333
5598,2.0,,,,,58.0,,,,,0,note_on,,95.0,58.0,95.0,237655,123.77864583333333
5599,2.0,,,,,58.0,,,,,160,note_off,,95.0,58.0,95.0,237815,123.86197916666667
5600,2.0,,,,,60.0,,,,,0,note_on,,70.0,60.0,70.0,237815,123.86197916666667
5601,2.0,,,,,60.0,,,,,160,note_off,,70.0,60.0,70.0,237975,123.9453125
5602,2.0,,,,,61.0,,,,,0,note_on,,70.0,61.0,70.0,237975,123.9453125
5603,2.0,,,,,61.0,,,,,160,note_off,,70.0,61.0,70.0,238135,124.02864583333333
5604,2.0,,,,,58.0,,,,,0,note_on,,95.0,58.0,95.0,238135,124.02864583333333
5605,2.0,,,,,58.0,,,,,160,note_off,,95.0,58.0,95.0,238295,124.11197916666667
5606,2.0,,,,,60.0,,,,,0,note_on,,70.0,60.0,70.0,238295,124.11197916666667
5607,2.0,,,,,60.0,,,,,160,note_off,,70.0,60.0,70.0,238455,124.1953125
5608,2.0,,,,,61.0,,,,,0,note_on,,70.0,61.0,70.0,238455,124.1953125
5609,2.0,,,,,61.0,,,,,160,note_off,,70.0,61.0,70.0,238615,124.27864583333333
5610,2.0,,,,,63.0,,,,,0,note_on,,95.0,63.0,95.0,238615,124.27864583333333
5611,2.0,,,,,63.0,,,,,160,note_off,,95.0,63.0,95.0,238775,124.36197916666667
5612,2.0,,,,,65.0,,,,,0,note_on,,70.0,65.0,70.0,238775,124.36197916666667
5613,2.0,,,,,65.0,,,,,160,note_off,,70.0,65.0,70.0,238935,124.4453125
5614,3.0,,,,,63.0,,,,,0,note_on,,70.0,63.0,70.0,56105,29.221354166666668
5615,3.0,,,,,,,2048.0,,,160,pitchwheel,,,,,56265,29.3046875
5616,3.0,,,,,,,0.0,,,0,pitchwheel,,,,,56265,29.3046875
5617,3.0,,,,,63.0,,,,,0,note_off,,70.0,63.0,70.0,56265,29.3046875
5618,2.0,,,,,66.0,,,,,0,note_on,,95.0,66.0,95.0,238935,124.4453125
5619,2.0,,,,,66.0,,,,,160,note_off,,95.0,66.0,95.0,239095,124.52864583333333
5620,2.0,,,,,68.0,,,,,0,note_on,,70.0,68.0,70.0,239095,124.52864583333333
5621,2.0,,,,,68.0,,,,,160,note_off,,70.0,68.0,70.0,239255,124.61197916666667
5622,2.0,,,,,66.0,,,,,0,note_on,,70.0,66.0,70.0,239255,124.61197916666667
5623,2.0,,,,,66.0,,,,,160,note_off,,70.0,66.0,70.0,239415,124.6953125
5624,2.0,,,,,73.0,,,,,0,note_on,,95.0,73.0,95.0,239415,124.6953125
5625,3.0,,,,,,,0.0,,,0,pitchwheel,,,,,56265,29.3046875
5626,3.0,,,,,68.0,,,,,0,note_on,,95.0,68.0,95.0,56265,29.3046875
5627,3.0,,,,,,,128.0,,,43,pitchwheel,,,,,56308,29.327083333333334
5628,3.0,,,,,,,256.0,,,43,pitchwheel,,,,,56351,29.349479166666665
5629,3.0,,,,,,,384.0,,,43,pitchwheel,,,,,56394,29.371875
5630,3.0,,,,,,,512.0,,,43,pitchwheel,,,,,56437,29.394270833333334
5631,3.0,,,,,,,640.0,,,43,pitchwheel,,,,,56480,29.416666666666668
5632,3.0,,,,,,,768.0,,,43,pitchwheel,,,,,56523,29.4390625
5633,3.0,,,,,,,896.0,,,43,pitchwheel,,,,,56566,29.461458333333333
5634,3.0,,,,,,,1024.0,,,43,pitchwheel,,,,,56609,29.483854166666667
5635,3.0,,,,,,,1152.0,,,43,pitchwheel,,,,,56652,29.506249999999998
5636,3.0,,,,,,,1280.0,,,43,pitchwheel,,,,,56695,29.528645833333332
5637,3.0,,,,,,,1408.0,,,43,pitchwheel,,,,,56738,29.551041666666666
5638,3.0,,,,,,,1408.0,,,7,pitchwheel,,,,,56745,29.5546875
5639,3.0,,,,,,,1408.0,,,480,pitchwheel,,,,,57225,29.8046875
5640,3.0,,,,,,,1280.0,,,43,pitchwheel,,,,,57268,29.827083333333334
5641,3.0,,,,,,,1152.0,,,43,pitchwheel,,,,,57311,29.849479166666665
5642,3.0,,,,,,,1024.0,,,43,pitchwheel,,,,,57354,29.871875
5643,3.0,,,,,,,896.0,,,43,pitchwheel,,,,,57397,29.894270833333334
5644,3.0,,,,,,,768.0,,,43,pitchwheel,,,,,57440,29.916666666666668
5645,3.0,,,,,,,640.0,,,43,pitchwheel,,,,,57483,29.9390625
5646,3.0,,,,,,,512.0,,,43,pitchwheel,,,,,57526,29.961458333333333
5647,3.0,,,,,,,384.0,,,43,pitchwheel,,,,,57569,29.983854166666667
5648,3.0,,,,,,,256.0,,,43,pitchwheel,,,,,57612,30.006249999999998
5649,3.0,,,,,,,128.0,,,43,pitchwheel,,,,,57655,30.028645833333332
5650,3.0,,,,,,,0.0,,,43,pitchwheel,,,,,57698,30.051041666666666
5651,2.0,,,,,73.0,,,,,7,note_off,,95.0,73.0,95.0,239422,124.69895833333334
5652,3.0,,,,,,,0.0,,,0,pitchwheel,,,,,57698,30.051041666666666
5653,3.0,,,,,,,0.0,,,480,pitchwheel,,,,,58178,30.301041666666666
5654,3.0,,,,,,,0.0,,,0,pitchwheel,,,,,58178,30.301041666666666
5655,3.0,,,,,68.0,,,,,0,note_off,,95.0,68.0,95.0,58178,30.301041666666666
5656,3.0,,,,,,,0.0,,,0,pitchwheel,,,,,58178,30.301041666666666
5657,3.0,,,,,73.0,,,,,0,note_on,,95.0,73.0,95.0,58178,30.301041666666666
5658,3.0,,,,,,,0.0,,,0,pitchwheel,,,,,58178,30.301041666666666
5659,3.0,,,,,68.0,,,,,0,note_on,,95.0,68.0,95.0,58178,30.301041666666666
5660,3.0,,,,,,,128.0,,,87,pitchwheel,,,,,58265,30.346354166666668
5661,3.0,,,,,,,128.0,,,0,pitchwheel,,,,,58265,30.346354166666668
5662,3.0,,,,,,,256.0,,,87,pitchwheel,,,,,58352,30.391666666666666
5663,3.0,,,,,,,256.0,,,0,pitchwheel,,,,,58352,30.391666666666666
5664,3.0,,,,,,,384.0,,,87,pitchwheel,,,,,58439,30.436979166666667
5665,3.0,,,,,,,384.0,,,0,pitchwheel,,,,,58439,30.436979166666667
5666,3.0,,,,,,,512.0,,,87,pitchwheel,,,,,58526,30.482291666666665
5667,3.0,,,,,,,512.0,,,0,pitchwheel,,,,,58526,30.482291666666665
5668,3.0,,,,,,,640.0,,,87,pitchwheel,,,,,58613,30.527604166666666
5669,3.0,,,,,,,640.0,,,0,pitchwheel,,,,,58613,30.527604166666666
5670,3.0,,,,,,,768.0,,,87,pitchwheel,,,,,58700,30.572916666666668
5671,3.0,,,,,,,768.0,,,0,pitchwheel,,,,,58700,30.572916666666668
5672,3.0,,,,,,,896.0,,,87,pitchwheel,,,,,58787,30.618229166666666
5673,3.0,,,,,,,896.0,,,0,pitchwheel,,,,,58787,30.618229166666666
5674,3.0,,,,,,,1024.0,,,87,pitchwheel,,,,,58874,30.663541666666667
5675,3.0,,,,,,,1024.0,,,0,pitchwheel,,,,,58874,30.663541666666667
5676,3.0,,,,,,,1152.0,,,87,pitchwheel,,,,,58961,30.708854166666665
5677,3.0,,,,,,,1152.0,,,0,pitchwheel,,,,,58961,30.708854166666665
5678,3.0,,,,,,,1280.0,,,87,pitchwheel,,,,,59048,30.754166666666666
5679,3.0,,,,,,,1280.0,,,0,pitchwheel,,,,,59048,30.754166666666666
5680,3.0,,,,,,,1408.0,,,87,pitchwheel,,,,,59135,30.799479166666668
5681,3.0,,,,,,,1408.0,,,0,pitchwheel,,,,,59135,30.799479166666668
5682,3.0,,,,,,,1408.0,,,3,pitchwheel,,,,,59138,30.801041666666666
5683,3.0,,,,,,,1408.0,,,0,pitchwheel,,,,,59138,30.801041666666666
5684,3.0,,,,,,,1408.0,,,960,pitchwheel,,,,,60098,31.301041666666666
5685,3.0,,,,,,,0.0,,,0,pitchwheel,,,,,60098,31.301041666666666
5686,3.0,,,,,73.0,,,,,0,note_off,,95.0,73.0,95.0,60098,31.301041666666666
5687,3.0,,,,,,,1408.0,,,0,pitchwheel,,,,,60098,31.301041666666666
5688,3.0,,,,,,,0.0,,,0,pitchwheel,,,,,60098,31.301041666666666
5689,3.0,,,,,68.0,,,,,0,note_off,,95.0,68.0,95.0,60098,31.301041666666666
5690,3.0,,,,,,,0.0,,,0,pitchwheel,,,,,60098,31.301041666666666
5691,3.0,,,,,70.0,,,,,0,note_on,,95.0,70.0,95.0,60098,31.301041666666666
5692,3.0,,,,,,,128.0,,,48,pitchwheel,,,,,60146,31.326041666666665
5693,3.0,,,,,,,256.0,,,48,pitchwheel,,,,,60194,31.351041666666667
5694,3.0,,,,,,,384.0,,,48,pitchwheel,,,,,60242,31.376041666666666
5695,3.0,,,,,,,512.0,,,48,pitchwheel,,,,,60290,31.401041666666668
5696,3.0,,,,,,,640.0,,,48,pitchwheel,,,,,60338,31.426041666666666
5697,3.0,,,,,,,640.0,,,0,pitchwheel,,,,,60338,31.426041666666666
5698,3.0,,,,,,,640.0,,,240,pitchwheel,,,,,60578,31.551041666666666
5699,3.0,,,,,,,512.0,,,48,pitchwheel,,,,,60626,31.576041666666665
5700,3.0,,,,,,,384.0,,,48,pitchwheel,,,,,60674,31.601041666666667
5701,3.0,,,,,,,256.0,,,48,pitchwheel,,,,,60722,31.626041666666666
5702,3.0,,,,,,,128.0,,,48,pitchwheel,,,,,60770,31.651041666666668
5703,3.0,,,,,,,0.0,,,48,pitchwheel,,,,,60818,31.676041666666666
5704,3.0,,,,,,,0.0,,,0,pitchwheel,,,,,60818,31.676041666666666
5705,3.0,,,,,,,0.0,,,240,pitchwheel,,,,,61058,31.801041666666666
5706,3.0,,,,,,,0.0,,,0,pitchwheel,,,,,61058,31.801041666666666
5707,3.0,,,,,70.0,,,,,0,note_off,,95.0,70.0,95.0,61058,31.801041666666666
5708,2.0,,,,,54.0,,,,,0,note_on,,95.0,54.0,95.0,239422,124.69895833333334
5709,2.0,,,,,54.0,,,,,480,note_off,,95.0,54.0,95.0,239902,124.94895833333334
5710,3.0,,,,,,,0.0,,,0,pitchwheel,,,,,61058,31.801041666666666
5711,3.0,,,,,54.0,,,,,0,note_on,,95.0,54.0,95.0,61058,31.801041666666666
5712,3.0,,,,,,,128.0,,,10,pitchwheel,,,,,61068,31.80625
5713,3.0,,,,,,,256.0,,,10,pitchwheel,,,,,61078,31.811458333333334
5714,3.0,,,,,,,384.0,,,10,pitchwheel,,,,,61088,31.816666666666666
5715,3.0,,,,,,,512.0,,,10,pitchwheel,,,,,61098,31.821875
5716,3.0,,,,,,,640.0,,,10,pitchwheel,,,,,61108,31.827083333333334
5717,3.0,,,,,,,768.0,,,10,pitchwheel,,,,,61118,31.832291666666666
5718,3.0,,,,,,,896.0,,,10,pitchwheel,,,,,61128,31.8375
5719,3.0,,,,,,,1024.0,,,10,pitchwheel,,,,,61138,31.842708333333334
5720,3.0,,,,,,,1152.0,,,10,pitchwheel,,,,,61148,31.847916666666666
5721,3.0,,,,,,,1280.0,,,10,pitchwheel,,,,,61158,31.853125
5722,3.0,,,,,,,1408.0,,,10,pitchwheel,,,,,61168,31.858333333333334
5723,3.0,,,,,,,1408.0,,,10,pitchwheel,,,,,61178,31.863541666666666
5724,3.0,,,,,,,1408.0,,,120,pitchwheel,,,,,61298,31.926041666666666
5725,3.0,,,,,,,1280.0,,,10,pitchwheel,,,,,61308,31.93125
5726,3.0,,,,,,,1152.0,,,10,pitchwheel,,,,,61318,31.936458333333334
5727,3.0,,,,,,,1024.0,,,10,pitchwheel,,,,,61328,31.941666666666666
5728,3.0,,,,,,,896.0,,,10,pitchwheel,,,,,61338,31.946875
5729,3.0,,,,,,,768.0,,,10,pitchwheel,,,,,61348,31.952083333333334
5730,3.0,,,,,,,640.0,,,10,pitchwheel,,,,,61358,31.957291666666666
5731,3.0,,,,,,,512.0,,,10,pitchwheel,,,,,61368,31.9625
5732,3.0,,,,,,,384.0,,,10,pitchwheel,,,,,61378,31.967708333333334
5733,3.0,,,,,,,256.0,,,10,pitchwheel,,,,,61388,31.972916666666666
5734,3.0,,,,,,,128.0,,,10,pitchwheel,,,,,61398,31.978125
5735,3.0,,,,,,,0.0,,,10,pitchwheel,,,,,61408,31.983333333333334
5736,3.0,,,,,,,0.0,,,10,pitchwheel,,,,,61418,31.988541666666666
5737,3.0,,,,,,,0.0,,,120,pitchwheel,,,,,61538,32.05104166666666
5738,3.0,,,,,,,0.0,,,0,pitchwheel,,,,,61538,32.05104166666666
5739,3.0,,,,,54.0,,,,,0,note_off,,95.0,54.0,95.0,61538,32.05104166666666
5740,3.0,,,,,,,0.0,,,0,pitchwheel,,,,,61538,32.05104166666666
5741,3.0,,,,,54.0,,,,,0,note_on,,95.0,54.0,95.0,61538,32.05104166666666
5742,3.0,,,,,,,128.0,,,30,pitchwheel,,,,,61568,32.06666666666666
5743,3.0,,,,,,,256.0,,,30,pitchwheel,,,,,61598,32.08229166666666
5744,3.0,,,,,,,384.0,,,30,pitchwheel,,,,,61628,32.09791666666666
5745,3.0,,,,,,,512.0,,,30,pitchwheel,,,,,61658,32.11354166666666
5746,3.0,,,,,,,640.0,,,30,pitchwheel,,,,,61688,32.12916666666666
5747,3.0,,,,,,,768.0,,,30,pitchwheel,,,,,61718,32.14479166666666
5748,3.0,,,,,,,896.0,,,30,pitchwheel,,,,,61748,32.16041666666666
5749,3.0,,,,,,,1024.0,,,30,pitchwheel,,,,,61778,32.17604166666666
5750,3.0,,,,,,,1152.0,,,30,pitchwheel,,,,,61808,32.19166666666666
5751,3.0,,,,,,,1280.0,,,30,pitchwheel,,,,,61838,32.20729166666666
5752,3.0,,,,,,,1408.0,,,30,pitchwheel,,,,,61868,32.22291666666666
5753,3.0,,,,,,,1536.0,,,30,pitchwheel,,,,,61898,32.23854166666666
5754,3.0,,,,,,,1664.0,,,30,pitchwheel,,,,,61928,32.25416666666666
5755,3.0,,,,,,,1792.0,,,30,pitchwheel,,,,,61958,32.26979166666666
5756,3.0,,,,,,,1920.0,,,30,pitchwheel,,,,,61988,32.28541666666666
5757,3.0,,,,,,,2048.0,,,30,pitchwheel,,,,,62018,32.30104166666666
5758,3.0,,,,,,,2048.0,,,0,pitchwheel,,,,,62018,32.30104166666666
5759,3.0,,,,,,,1920.0,,,90,pitchwheel,,,,,62108,32.34791666666666
5760,3.0,,,,,,,1792.0,,,90,pitchwheel,,,,,62198,32.39479166666666
5761,3.0,,,,,,,1664.0,,,90,pitchwheel,,,,,62288,32.44166666666666
5762,3.0,,,,,,,1536.0,,,90,pitchwheel,,,,,62378,32.48854166666666
5763,3.0,,,,,,,1408.0,,,90,pitchwheel,,,,,62468,32.53541666666666
5764,3.0,,,,,,,1280.0,,,90,pitchwheel,,,,,62558,32.58229166666666
5765,3.0,,,,,,,1152.0,,,90,pitchwheel,,,,,62648,32.62916666666666
5766,3.0,,,,,,,1024.0,,,90,pitchwheel,,,,,62738,32.67604166666666
5767,3.0,,,,,,,896.0,,,90,pitchwheel,,,,,62828,32.72291666666666
5768,3.0,,,,,,,768.0,,,90,pitchwheel,,,,,62918,32.76979166666666
5769,3.0,,,,,,,640.0,,,90,pitchwheel,,,,,63008,32.81666666666666
5770,3.0,,,,,,,512.0,,,90,pitchwheel,,,,,63098,32.86354166666666
5771,3.0,,,,,,,384.0,,,90,pitchwheel,,,,,63188,32.91041666666666
5772,3.0,,,,,,,256.0,,,90,pitchwheel,,,,,63278,32.95729166666666
5773,3.0,,,,,,,128.0,,,90,pitchwheel,,,,,63368,33.00416666666666
5774,3.0,,,,,,,0.0,,,90,pitchwheel,,,,,63458,33.05104166666666
5775,3.0,,,,,,,0.0,,,0,pitchwheel,,,,,63458,33.05104166666666
5776,3.0,,,,,,,0.0,,,0,pitchwheel,,,,,63458,33.05104166666666
5777,3.0,,,,,54.0,,,,,0,note_off,,95.0,54.0,95.0,63458,33.05104166666666
5778,3.0,,,,,,,0.0,,,0,pitchwheel,,,,,63458,33.05104166666666
5779,3.0,,,,,71.0,,,,,0,note_on,,95.0,71.0,95.0,63458,33.05104166666666
5780,3.0,,,,,,,-128.0,,,26,pitchwheel,,,,,63484,33.06458333333333
5781,3.0,,,,,,,-256.0,,,26,pitchwheel,,,,,63510,33.078125
5782,3.0,,,,,,,-384.0,,,26,pitchwheel,,,,,63536,33.09166666666667
5783,3.0,,,,,,,-512.0,,,26,pitchwheel,,,,,63562,33.10520833333333
5784,3.0,,,,,,,-640.0,,,26,pitchwheel,,,,,63588,33.11875
5785,3.0,,,,,,,-768.0,,,26,pitchwheel,,,,,63614,33.13229166666667
5786,3.0,,,,,,,-896.0,,,26,pitchwheel,,,,,63640,33.145833333333336
5787,3.0,,,,,,,-1024.0,,,26,pitchwheel,,,,,63666,33.159375
5788,3.0,,,,,,,-1152.0,,,26,pitchwheel,,,,,63692,33.172916666666666
5789,3.0,,,,,,,-1280.0,,,26,pitchwheel,,,,,63718,33.186458333333334
5790,3.0,,,,,,,-1408.0,,,26,pitchwheel,,,,,63744,33.2
5791,3.0,,,,,,,-1536.0,,,26,pitchwheel,,,,,63770,33.213541666666664
5792,3.0,,,,,,,-1664.0,,,26,pitchwheel,,,,,63796,33.22708333333333
5793,3.0,,,,,,,-1792.0,,,26,pitchwheel,,,,,63822,33.240625
5794,3.0,,,,,,,-1920.0,,,26,pitchwheel,,,,,63848,33.25416666666666
5795,3.0,,,,,,,-2048.0,,,26,pitchwheel,,,,,63874,33.26770833333333
5796,3.0,,,,,,,-2176.0,,,26,pitchwheel,,,,,63900,33.28125
5797,3.0,,,,,,,-2304.0,,,26,pitchwheel,,,,,63926,33.29479166666667
5798,3.0,,,,,,,-2432.0,,,26,pitchwheel,,,,,63952,33.30833333333333
5799,3.0,,,,,,,-2560.0,,,26,pitchwheel,,,,,63978,33.321875
5800,3.0,,,,,,,-2688.0,,,26,pitchwheel,,,,,64004,33.33541666666667
5801,3.0,,,,,,,-2816.0,,,26,pitchwheel,,,,,64030,33.348958333333336
5802,3.0,,,,,,,-2944.0,,,26,pitchwheel,,,,,64056,33.3625
5803,3.0,,,,,,,-3072.0,,,26,pitchwheel,,,,,64082,33.376041666666666
5804,3.0,,,,,,,-3200.0,,,26,pitchwheel,,,,,64108,33.389583333333334
5805,3.0,,,,,,,-3328.0,,,26,pitchwheel,,,,,64134,33.403125
5806,3.0,,,,,,,-3456.0,,,26,pitchwheel,,,,,64160,33.416666666666664
5807,3.0,,,,,,,-3456.0,,,18,pitchwheel,,,,,64178,33.42604166666666
5808,3.0,,,,,,,-3328.0,,,26,pitchwheel,,,,,64204,33.43958333333333
5809,3.0,,,,,,,-3200.0,,,26,pitchwheel,,,,,64230,33.453125
5810,3.0,,,,,,,-3072.0,,,26,pitchwheel,,,,,64256,33.46666666666667
5811,3.0,,,,,,,-2944.0,,,26,pitchwheel,,,,,64282,33.48020833333333
5812,3.0,,,,,,,-2816.0,,,26,pitchwheel,,,,,64308,33.49375
5813,3.0,,,,,,,-2688.0,,,26,pitchwheel,,,,,64334,33.50729166666667
5814,3.0,,,,,,,-2560.0,,,26,pitchwheel,,,,,64360,33.520833333333336
5815,3.0,,,,,,,-2432.0,,,26,pitchwheel,,,,,64386,33.534375
5816,3.0,,,,,,,-2304.0,,,26,pitchwheel,,,,,64412,33.547916666666666
5817,3.0,,,,,,,-2176.0,,,26,pitchwheel,,,,,64438,33.561458333333334
5818,3.0,,,,,,,-2048.0,,,26,pitchwheel,,,,,64464,33.575
5819,3.0,,,,,,,-1920.0,,,26,pitchwheel,,,,,64490,33.588541666666664
5820,3.0,,,,,,,-1792.0,,,26,pitchwheel,,,,,64516,33.60208333333333
5821,3.0,,,,,,,-1664.0,,,26,pitchwheel,,,,,64542,33.615625
5822,3.0,,,,,,,-1536.0,,,26,pitchwheel,,,,,64568,33.62916666666666
5823,3.0,,,,,,,-1408.0,,,26,pitchwheel,,,,,64594,33.64270833333333
5824,3.0,,,,,,,-1280.0,,,26,pitchwheel,,,,,64620,33.65625
5825,3.0,,,,,,,-1152.0,,,26,pitchwheel,,,,,64646,33.66979166666667
5826,3.0,,,,,,,-1024.0,,,26,pitchwheel,,,,,64672,33.68333333333333
5827,3.0,,,,,,,-896.0,,,26,pitchwheel,,,,,64698,33.696875
5828,3.0,,,,,,,-768.0,,,26,pitchwheel,,,,,64724,33.71041666666667
5829,3.0,,,,,,,-640.0,,,26,pitchwheel,,,,,64750,33.723958333333336
5830,3.0,,,,,,,-512.0,,,26,pitchwheel,,,,,64776,33.7375
5831,3.0,,,,,,,-384.0,,,26,pitchwheel,,,,,64802,33.751041666666666
5832,3.0,,,,,,,-256.0,,,26,pitchwheel,,,,,64828,33.764583333333334
5833,3.0,,,,,,,-128.0,,,26,pitchwheel,,,,,64854,33.778125
5834,3.0,,,,,,,0.0,,,26,pitchwheel,,,,,64880,33.791666666666664
5835,3.0,,,,,,,0.0,,,18,pitchwheel,,,,,64898,33.80104166666666
5836,3.0,,,,,,,0.0,,,0,pitchwheel,,,,,64898,33.80104166666666
5837,3.0,,,,,71.0,,,,,0,note_off,,95.0,71.0,95.0,64898,33.80104166666666
5838,3.0,,,,,,,0.0,,,0,pitchwheel,,,,,64898,33.80104166666666
5839,3.0,,,,,54.0,,,,,0,note_on,,95.0,54.0,95.0,64898,33.80104166666666
5840,3.0,,,,,,,-128.0,,,44,pitchwheel,,,,,64942,33.82395833333333
5841,3.0,,,,,,,-256.0,,,44,pitchwheel,,,,,64986,33.846875
5842,3.0,,,,,,,-384.0,,,44,pitchwheel,,,,,65030,33.869791666666664
5843,3.0,,,,,,,-512.0,,,44,pitchwheel,,,,,65074,33.89270833333333
5844,3.0,,,,,,,-640.0,,,44,pitchwheel,,,,,65118,33.915625
5845,3.0,,,,,,,-768.0,,,44,pitchwheel,,,,,65162,33.938541666666666
5846,3.0,,,,,,,-896.0,,,44,pitchwheel,,,,,65206,33.96145833333333
5847,3.0,,,,,,,-1024.0,,,44,pitchwheel,,,,,65250,33.984375
5848,3.0,,,,,,,-1152.0,,,44,pitchwheel,,,,,65294,34.00729166666667
5849,3.0,,,,,,,-1280.0,,,44,pitchwheel,,,,,65338,34.030208333333334
5850,3.0,,,,,,,-1408.0,,,44,pitchwheel,,,,,65382,34.053125
5851,3.0,,,,,,,-1536.0,,,44,pitchwheel,,,,,65426,34.07604166666667
5852,3.0,,,,,,,-1664.0,,,44,pitchwheel,,,,,65470,34.098958333333336
5853,3.0,,,,,,,-1792.0,,,44,pitchwheel,,,,,65514,34.121875
5854,3.0,,,,,,,-1920.0,,,44,pitchwheel,,,,,65558,34.14479166666666
5855,3.0,,,,,,,-2048.0,,,44,pitchwheel,,,,,65602,34.16770833333333
5856,3.0,,,,,,,-2176.0,,,44,pitchwheel,,,,,65646,34.190625
5857,3.0,,,,,,,-2304.0,,,44,pitchwheel,,,,,65690,34.213541666666664
5858,3.0,,,,,,,-2432.0,,,44,pitchwheel,,,,,65734,34.23645833333333
5859,3.0,,,,,,,-2560.0,,,44,pitchwheel,,,,,65778,34.259375
5860,3.0,,,,,,,-2688.0,,,44,pitchwheel,,,,,65822,34.282291666666666
5861,3.0,,,,,,,-2816.0,,,44,pitchwheel,,,,,65866,34.30520833333333
5862,3.0,,,,,,,-2944.0,,,44,pitchwheel,,,,,65910,34.328125
5863,3.0,,,,,,,-3072.0,,,44,pitchwheel,,,,,65954,34.35104166666667
5864,3.0,,,,,,,-3200.0,,,44,pitchwheel,,,,,65998,34.373958333333334
5865,3.0,,,,,,,-3328.0,,,44,pitchwheel,,,,,66042,34.396875
5866,3.0,,,,,,,-3456.0,,,44,pitchwheel,,,,,66086,34.41979166666667
5867,3.0,,,,,,,-3456.0,,,12,pitchwheel,,,,,66098,34.42604166666666
5868,3.0,,,,,,,-3328.0,,,44,pitchwheel,,,,,66142,34.44895833333333
5869,3.0,,,,,,,-3200.0,,,44,pitchwheel,,,,,66186,34.471875
5870,3.0,,,,,,,-3072.0,,,44,pitchwheel,,,,,66230,34.494791666666664
5871,3.0,,,,,,,-2944.0,,,44,pitchwheel,,,,,66274,34.51770833333333
5872,3.0,,,,,,,-2816.0,,,44,pitchwheel,,,,,66318,34.540625
5873,3.0,,,,,,,-2688.0,,,44,pitchwheel,,,,,66362,34.563541666666666
5874,3.0,,,,,,,-2560.0,,,44,pitchwheel,,,,,66406,34.58645833333333
5875,3.0,,,,,,,-2432.0,,,44,pitchwheel,,,,,66450,34.609375
5876,3.0,,,,,,,-2304.0,,,44,pitchwheel,,,,,66494,34.63229166666667
5877,3.0,,,,,,,-2176.0,,,44,pitchwheel,,,,,66538,34.655208333333334
5878,3.0,,,,,,,-2048.0,,,44,pitchwheel,,,,,66582,34.678125
5879,3.0,,,,,,,-1920.0,,,44,pitchwheel,,,,,66626,34.70104166666667
5880,3.0,,,,,,,-1792.0,,,44,pitchwheel,,,,,66670,34.723958333333336
5881,3.0,,,,,,,-1664.0,,,44,pitchwheel,,,,,66714,34.746875
5882,3.0,,,,,,,-1536.0,,,44,pitchwheel,,,,,66758,34.76979166666666
5883,3.0,,,,,,,-1408.0,,,44,pitchwheel,,,,,66802,34.79270833333333
5884,3.0,,,,,,,-1280.0,,,44,pitchwheel,,,,,66846,34.815625
5885,3.0,,,,,,,-1152.0,,,44,pitchwheel,,,,,66890,34.838541666666664
5886,3.0,,,,,,,-1024.0,,,44,pitchwheel,,,,,66934,34.86145833333333
5887,3.0,,,,,,,-896.0,,,44,pitchwheel,,,,,66978,34.884375
5888,3.0,,,,,,,-768.0,,,44,pitchwheel,,,,,67022,34.907291666666666
5889,3.0,,,,,,,-640.0,,,44,pitchwheel,,,,,67066,34.93020833333333
5890,3.0,,,,,,,-512.0,,,44,pitchwheel,,,,,67110,34.953125
5891,3.0,,,,,,,-384.0,,,44,pitchwheel,,,,,67154,34.97604166666667
5892,3.0,,,,,,,-256.0,,,44,pitchwheel,,,,,67198,34.998958333333334
5893,3.0,,,,,,,-128.0,,,44,pitchwheel,,,,,67242,35.021875
5894,3.0,,,,,,,0.0,,,44,pitchwheel,,,,,67286,35.04479166666667
5895,3.0,,,,,,,0.0,,,12,pitchwheel,,,,,67298,35.05104166666666
5896,3.0,,,,,,,0.0,,,0,pitchwheel,,,,,67298,35.05104166666666
5897,3.0,,,,,54.0,,,,,0,note_off,,95.0,54.0,95.0,67298,35.05104166666666
5898,3.0,,,,,,,0.0,,,0,pitchwheel,,,,,67298,35.05104166666666
5899,3.0,,,,,61.0,,,,,0,note_on,,95.0,61.0,95.0,67298,35.05104166666666
5900,3.0,,,,,,,-128.0,,,2,pitchwheel,,,,,67300,35.052083333333336
5901,3.0,,,,,,,-256.0,,,2,pitchwheel,,,,,67302,35.053125
5902,3.0,,,,,,,-384.0,,,2,pitchwheel,,,,,67304,35.05416666666667
5903,3.0,,,,,,,-512.0,,,2,pitchwheel,,,,,67306,35.05520833333333
5904,3.0,,,,,,,-640.0,,,2,pitchwheel,,,,,67308,35.05625
5905,3.0,,,,,,,-768.0,,,2,pitchwheel,,,,,67310,35.057291666666664
5906,3.0,,,,,,,-896.0,,,2,pitchwheel,,,,,67312,35.05833333333333
5907,3.0,,,,,,,-1024.0,,,2,pitchwheel,,,,,67314,35.059375
5908,3.0,,,,,,,-1152.0,,,2,pitchwheel,,,,,67316,35.06041666666667
5909,3.0,,,,,,,-1280.0,,,2,pitchwheel,,,,,67318,35.061458333333334
5910,3.0,,,,,,,-1408.0,,,2,pitchwheel,,,,,67320,35.0625
5911,3.0,,,,,,,-1536.0,,,2,pitchwheel,,,,,67322,35.063541666666666
5912,3.0,,,,,,,-1664.0,,,2,pitchwheel,,,,,67324,35.06458333333333
5913,3.0,,,,,,,-1792.0,,,2,pitchwheel,,,,,67326,35.065625
5914,3.0,,,,,,,-1920.0,,,2,pitchwheel,,,,,67328,35.06666666666666
5915,3.0,,,,,,,-2048.0,,,2,pitchwheel,,,,,67330,35.067708333333336
5916,3.0,,,,,,,-2176.0,,,2,pitchwheel,,,,,67332,35.06875
5917,3.0,,,,,,,-2304.0,,,2,pitchwheel,,,,,67334,35.06979166666667
5918,3.0,,,,,,,-2432.0,,,2,pitchwheel,,,,,67336,35.07083333333333
5919,3.0,,,,,,,-2560.0,,,2,pitchwheel,,,,,67338,35.071875
5920,3.0,,,,,,,-2688.0,,,2,pitchwheel,,,,,67340,35.072916666666664
5921,3.0,,,,,,,-2816.0,,,2,pitchwheel,,,,,67342,35.07395833333333
5922,3.0,,,,,,,-2944.0,,,2,pitchwheel,,,,,67344,35.075
5923,3.0,,,,,,,-3072.0,,,2,pitchwheel,,,,,67346,35.07604166666667
5924,3.0,,,,,,,-3200.0,,,2,pitchwheel,,,,,67348,35.077083333333334
5925,3.0,,,,,,,-3328.0,,,2,pitchwheel,,,,,67350,35.078125
5926,3.0,,,,,,,-3456.0,,,2,pitchwheel,,,,,67352,35.079166666666666
5927,3.0,,,,,,,-3584.0,,,2,pitchwheel,,,,,67354,35.08020833333333
5928,3.0,,,,,,,-3712.0,,,2,pitchwheel,,,,,67356,35.08125
5929,3.0,,,,,,,-3840.0,,,2,pitchwheel,,,,,67358,35.08229166666666
5930,3.0,,,,,,,-3968.0,,,2,pitchwheel,,,,,67360,35.083333333333336
5931,3.0,,,,,,,-4096.0,,,2,pitchwheel,,,,,67362,35.084375
5932,3.0,,,,,,,-4224.0,,,2,pitchwheel,,,,,67364,35.08541666666667
5933,3.0,,,,,,,-4224.0,,,14,pitchwheel,,,,,67378,35.092708333333334
5934,3.0,,,,,,,-4096.0,,,2,pitchwheel,,,,,67380,35.09375
5935,3.0,,,,,,,-3968.0,,,2,pitchwheel,,,,,67382,35.094791666666666
5936,3.0,,,,,,,-3840.0,,,2,pitchwheel,,,,,67384,35.09583333333333
5937,3.0,,,,,,,-3712.0,,,2,pitchwheel,,,,,67386,35.096875
5938,3.0,,,,,,,-3584.0,,,2,pitchwheel,,,,,67388,35.09791666666666
5939,3.0,,,,,,,-3456.0,,,2,pitchwheel,,,,,67390,35.098958333333336
5940,3.0,,,,,,,-3328.0,,,2,pitchwheel,,,,,67392,35.1
5941,3.0,,,,,,,-3200.0,,,2,pitchwheel,,,,,67394,35.10104166666667
5942,3.0,,,,,,,-3072.0,,,2,pitchwheel,,,,,67396,35.10208333333333
5943,3.0,,,,,,,-2944.0,,,2,pitchwheel,,,,,67398,35.103125
5944,3.0,,,,,,,-2816.0,,,2,pitchwheel,,,,,67400,35.104166666666664
5945,3.0,,,,,,,-2688.0,,,2,pitchwheel,,,,,67402,35.10520833333333
5946,3.0,,,,,,,-2560.0,,,2,pitchwheel,,,,,67404,35.10625
5947,3.0,,,,,,,-2432.0,,,2,pitchwheel,,,,,67406,35.10729166666667
5948,3.0,,,,,,,-2304.0,,,2,pitchwheel,,,,,67408,35.108333333333334
5949,3.0,,,,,,,-2176.0,,,2,pitchwheel,,,,,67410,35.109375
5950,3.0,,,,,,,-2048.0,,,2,pitchwheel,,,,,67412,35.110416666666666
5951,3.0,,,,,,,-1920.0,,,2,pitchwheel,,,,,67414,35.11145833333333
5952,3.0,,,,,,,-1792.0,,,2,pitchwheel,,,,,67416,35.1125
5953,3.0,,,,,,,-1664.0,,,2,pitchwheel,,,,,67418,35.11354166666666
5954,3.0,,,,,,,-1536.0,,,2,pitchwheel,,,,,67420,35.114583333333336
5955,3.0,,,,,,,-1408.0,,,2,pitchwheel,,,,,67422,35.115625
5956,3.0,,,,,,,-1280.0,,,2,pitchwheel,,,,,67424,35.11666666666667
5957,3.0,,,,,,,-1152.0,,,2,pitchwheel,,,,,67426,35.11770833333333
5958,3.0,,,,,,,-1024.0,,,2,pitchwheel,,,,,67428,35.11875
5959,3.0,,,,,,,-896.0,,,2,pitchwheel,,,,,67430,35.119791666666664
5960,3.0,,,,,,,-768.0,,,2,pitchwheel,,,,,67432,35.12083333333333
5961,3.0,,,,,,,-640.0,,,2,pitchwheel,,,,,67434,35.121875
5962,3.0,,,,,,,-512.0,,,2,pitchwheel,,,,,67436,35.12291666666667
5963,3.0,,,,,,,-384.0,,,2,pitchwheel,,,,,67438,35.123958333333334
5964,3.0,,,,,,,-256.0,,,2,pitchwheel,,,,,67440,35.125
5965,3.0,,,,,,,-128.0,,,2,pitchwheel,,,,,67442,35.126041666666666
5966,3.0,,,,,,,0.0,,,2,pitchwheel,,,,,67444,35.12708333333333
5967,3.0,,,,,,,0.0,,,14,pitchwheel,,,,,67458,35.134375
5968,3.0,,,,,,,0.0,,,0,pitchwheel,,,,,67458,35.134375
5969,3.0,,,,,61.0,,,,,0,note_off,,95.0,61.0,95.0,67458,35.134375
5970,2.0,,,,,59.0,,,,,0,note_on,,95.0,59.0,95.0,239902,124.94895833333334
5971,2.0,,,,,59.0,,,,,160,note_off,,95.0,59.0,95.0,240062,125.03229166666667
5972,3.0,,,,,,,0.0,,,0,pitchwheel,,,,,67458,35.134375
5973,3.0,,,,,54.0,,,,,0,note_on,,95.0,54.0,95.0,67458,35.134375
5974,3.0,,,,,,,-128.0,,,1,pitchwheel,,,,,67459,35.13489583333333
5975,3.0,,,,,,,-256.0,,,1,pitchwheel,,,,,67460,35.135416666666664
5976,3.0,,,,,,,-384.0,,,1,pitchwheel,,,,,67461,35.1359375
5977,3.0,,,,,,,-512.0,,,1,pitchwheel,,,,,67462,35.13645833333333
5978,3.0,,,,,,,-640.0,,,1,pitchwheel,,,,,67463,35.13697916666666
5979,3.0,,,,,,,-768.0,,,1,pitchwheel,,,,,67464,35.1375
5980,3.0,,,,,,,-896.0,,,1,pitchwheel,,,,,67465,35.138020833333336
5981,3.0,,,,,,,-1024.0,,,1,pitchwheel,,,,,67466,35.13854166666667
5982,3.0,,,,,,,-1152.0,,,1,pitchwheel,,,,,67467,35.1390625
5983,3.0,,,,,,,-1280.0,,,1,pitchwheel,,,,,67468,35.139583333333334
5984,3.0,,,,,,,-1408.0,,,1,pitchwheel,,,,,67469,35.14010416666667
5985,3.0,,,,,,,-1536.0,,,1,pitchwheel,,,,,67470,35.140625
5986,3.0,,,,,,,-1664.0,,,1,pitchwheel,,,,,67471,35.14114583333333
5987,3.0,,,,,,,-1792.0,,,1,pitchwheel,,,,,67472,35.141666666666666
5988,3.0,,,,,,,-1920.0,,,1,pitchwheel,,,,,67473,35.1421875
5989,3.0,,,,,,,-2048.0,,,1,pitchwheel,,,,,67474,35.14270833333333
5990,3.0,,,,,,,-2176.0,,,1,pitchwheel,,,,,67475,35.143229166666664
5991,3.0,,,,,,,-2304.0,,,1,pitchwheel,,,,,67476,35.14375
5992,3.0,,,,,,,-2432.0,,,1,pitchwheel,,,,,67477,35.14427083333333
5993,3.0,,,,,,,-2560.0,,,1,pitchwheel,,,,,67478,35.14479166666666
5994,3.0,,,,,,,-2688.0,,,1,pitchwheel,,,,,67479,35.1453125
5995,3.0,,,,,,,-2816.0,,,1,pitchwheel,,,,,67480,35.145833333333336
5996,3.0,,,,,,,-2944.0,,,1,pitchwheel,,,,,67481,35.14635416666667
5997,3.0,,,,,,,-3072.0,,,1,pitchwheel,,,,,67482,35.146875
5998,3.0,,,,,,,-3200.0,,,1,pitchwheel,,,,,67483,35.147395833333334
5999,3.0,,,,,,,-3328.0,,,1,pitchwheel,,,,,67484,35.14791666666667
6000,3.0,,,,,,,-3456.0,,,1,pitchwheel,,,,,67485,35.1484375
6001,3.0,,,,,,,-3584.0,,,1,pitchwheel,,,,,67486,35.14895833333333
6002,3.0,,,,,,,-3712.0,,,1,pitchwheel,,,,,67487,35.149479166666666
6003,3.0,,,,,,,-3840.0,,,1,pitchwheel,,,,,67488,35.15
6004,3.0,,,,,,,-3968.0,,,1,pitchwheel,,,,,67489,35.15052083333333
6005,3.0,,,,,,,-4096.0,,,1,pitchwheel,,,,,67490,35.151041666666664
6006,3.0,,,,,,,-4224.0,,,1,pitchwheel,,,,,67491,35.1515625
6007,3.0,,,,,,,-4352.0,,,1,pitchwheel,,,,,67492,35.15208333333333
6008,3.0,,,,,,,-4480.0,,,1,pitchwheel,,,,,67493,35.15260416666666
6009,3.0,,,,,,,-4608.0,,,1,pitchwheel,,,,,67494,35.153125
6010,3.0,,,,,,,-4736.0,,,1,pitchwheel,,,,,67495,35.153645833333336
6011,3.0,,,,,,,-4864.0,,,1,pitchwheel,,,,,67496,35.15416666666667
6012,3.0,,,,,,,-4992.0,,,1,pitchwheel,,,,,67497,35.1546875
6013,3.0,,,,,,,-5120.0,,,1,pitchwheel,,,,,67498,35.155208333333334
6014,3.0,,,,,,,-5248.0,,,1,pitchwheel,,,,,67499,35.15572916666667
6015,3.0,,,,,,,-5376.0,,,1,pitchwheel,,,,,67500,35.15625
6016,3.0,,,,,,,-5504.0,,,1,pitchwheel,,,,,67501,35.15677083333333
6017,3.0,,,,,,,-5632.0,,,1,pitchwheel,,,,,67502,35.157291666666666
6018,3.0,,,,,,,-5760.0,,,1,pitchwheel,,,,,67503,35.1578125
6019,3.0,,,,,,,-5888.0,,,1,pitchwheel,,,,,67504,35.15833333333333
6020,3.0,,,,,,,-6016.0,,,1,pitchwheel,,,,,67505,35.158854166666664
6021,3.0,,,,,,,-6144.0,,,1,pitchwheel,,,,,67506,35.159375
6022,3.0,,,,,,,-6272.0,,,1,pitchwheel,,,,,67507,35.15989583333333
6023,3.0,,,,,,,-6400.0,,,1,pitchwheel,,,,,67508,35.16041666666666
6024,3.0,,,,,,,-6528.0,,,1,pitchwheel,,,,,67509,35.1609375
6025,3.0,,,,,,,-6656.0,,,1,pitchwheel,,,,,67510,35.161458333333336
6026,3.0,,,,,,,-6784.0,,,1,pitchwheel,,,,,67511,35.16197916666667
6027,3.0,,,,,,,-6912.0,,,1,pitchwheel,,,,,67512,35.1625
6028,3.0,,,,,,,-7040.0,,,1,pitchwheel,,,,,67513,35.163020833333334
6029,3.0,,,,,,,-7040.0,,,25,pitchwheel,,,,,67538,35.17604166666666
6030,3.0,,,,,,,-6912.0,,,1,pitchwheel,,,,,67539,35.1765625
6031,3.0,,,,,,,-6784.0,,,1,pitchwheel,,,,,67540,35.177083333333336
6032,3.0,,,,,,,-6656.0,,,1,pitchwheel,,,,,67541,35.17760416666667
6033,3.0,,,,,,,-6528.0,,,1,pitchwheel,,,,,67542,35.178125
6034,3.0,,,,,,,-6400.0,,,1,pitchwheel,,,,,67543,35.178645833333334
6035,3.0,,,,,,,-6272.0,,,1,pitchwheel,,,,,67544,35.17916666666667
6036,3.0,,,,,,,-6144.0,,,1,pitchwheel,,,,,67545,35.1796875
6037,3.0,,,,,,,-6016.0,,,1,pitchwheel,,,,,67546,35.18020833333333
6038,3.0,,,,,,,-5888.0,,,1,pitchwheel,,,,,67547,35.180729166666666
6039,3.0,,,,,,,-5760.0,,,1,pitchwheel,,,,,67548,35.18125
6040,3.0,,,,,,,-5632.0,,,1,pitchwheel,,,,,67549,35.18177083333333
6041,3.0,,,,,,,-5504.0,,,1,pitchwheel,,,,,67550,35.182291666666664
6042,3.0,,,,,,,-5376.0,,,1,pitchwheel,,,,,67551,35.1828125
6043,3.0,,,,,,,-5248.0,,,1,pitchwheel,,,,,67552,35.18333333333333
6044,3.0,,,,,,,-5120.0,,,1,pitchwheel,,,,,67553,35.18385416666666
6045,3.0,,,,,,,-4992.0,,,1,pitchwheel,,,,,67554,35.184375
6046,3.0,,,,,,,-4864.0,,,1,pitchwheel,,,,,67555,35.184895833333336
6047,3.0,,,,,,,-4736.0,,,1,pitchwheel,,,,,67556,35.18541666666667
6048,3.0,,,,,,,-4608.0,,,1,pitchwheel,,,,,67557,35.1859375
6049,3.0,,,,,,,-4480.0,,,1,pitchwheel,,,,,67558,35.186458333333334
6050,3.0,,,,,,,-4352.0,,,1,pitchwheel,,,,,67559,35.18697916666667
6051,3.0,,,,,,,-4224.0,,,1,pitchwheel,,,,,67560,35.1875
6052,3.0,,,,,,,-4096.0,,,1,pitchwheel,,,,,67561,35.18802083333333
6053,3.0,,,,,,,-3968.0,,,1,pitchwheel,,,,,67562,35.188541666666666
6054,3.0,,,,,,,-3840.0,,,1,pitchwheel,,,,,67563,35.1890625
6055,3.0,,,,,,,-3712.0,,,1,pitchwheel,,,,,67564,35.18958333333333
6056,3.0,,,,,,,-3584.0,,,1,pitchwheel,,,,,67565,35.190104166666664
6057,3.0,,,,,,,-3456.0,,,1,pitchwheel,,,,,67566,35.190625
6058,3.0,,,,,,,-3328.0,,,1,pitchwheel,,,,,67567,35.19114583333333
6059,3.0,,,,,,,-3200.0,,,1,pitchwheel,,,,,67568,35.19166666666666
6060,3.0,,,,,,,-3072.0,,,1,pitchwheel,,,,,67569,35.1921875
6061,3.0,,,,,,,-2944.0,,,1,pitchwheel,,,,,67570,35.192708333333336
6062,3.0,,,,,,,-2816.0,,,1,pitchwheel,,,,,67571,35.19322916666667
6063,3.0,,,,,,,-2688.0,,,1,pitchwheel,,,,,67572,35.19375
6064,3.0,,,,,,,-2560.0,,,1,pitchwheel,,,,,67573,35.194270833333334
6065,3.0,,,,,,,-2432.0,,,1,pitchwheel,,,,,67574,35.19479166666667
6066,3.0,,,,,,,-2304.0,,,1,pitchwheel,,,,,67575,35.1953125
6067,3.0,,,,,,,-2176.0,,,1,pitchwheel,,,,,67576,35.19583333333333
6068,3.0,,,,,,,-2048.0,,,1,pitchwheel,,,,,67577,35.196354166666666
6069,3.0,,,,,,,-1920.0,,,1,pitchwheel,,,,,67578,35.196875
6070,3.0,,,,,,,-1792.0,,,1,pitchwheel,,,,,67579,35.19739583333333
6071,3.0,,,,,,,-1664.0,,,1,pitchwheel,,,,,67580,35.197916666666664
6072,3.0,,,,,,,-1536.0,,,1,pitchwheel,,,,,67581,35.1984375
6073,3.0,,,,,,,-1408.0,,,1,pitchwheel,,,,,67582,35.19895833333333
6074,3.0,,,,,,,-1280.0,,,1,pitchwheel,,,,,67583,35.19947916666666
6075,3.0,,,,,,,-1152.0,,,1,pitchwheel,,,,,67584,35.2
6076,3.0,,,,,,,-1024.0,,,1,pitchwheel,,,,,67585,35.200520833333336
6077,3.0,,,,,,,-896.0,,,1,pitchwheel,,,,,67586,35.20104166666667
6078,3.0,,,,,,,-768.0,,,1,pitchwheel,,,,,67587,35.2015625
6079,3.0,,,,,,,-640.0,,,1,pitchwheel,,,,,67588,35.202083333333334
6080,3.0,,,,,,,-512.0,,,1,pitchwheel,,,,,67589,35.20260416666667
6081,3.0,,,,,,,-384.0,,,1,pitchwheel,,,,,67590,35.203125
6082,3.0,,,,,,,-256.0,,,1,pitchwheel,,,,,67591,35.20364583333333
6083,3.0,,,,,,,-128.0,,,1,pitchwheel,,,,,67592,35.204166666666666
6084,3.0,,,,,,,0.0,,,1,pitchwheel,,,,,67593,35.2046875
6085,3.0,,,,,,,0.0,,,25,pitchwheel,,,,,67618,35.217708333333334
6086,3.0,,,,,,,0.0,,,0,pitchwheel,,,,,67618,35.217708333333334
6087,3.0,,,,,54.0,,,,,0,note_off,,95.0,54.0,95.0,67618,35.217708333333334
6088,2.0,,,,,61.0,,,,,0,note_on,,95.0,61.0,95.0,240062,125.03229166666667
6089,2.0,,,,,61.0,,,,,160,note_off,,95.0,61.0,95.0,240222,125.115625
6090,3.0,,,,,,,0.0,,,0,pitchwheel,,,,,67618,35.217708333333334
6091,3.0,,,,,59.0,,,,,0,note_on,,95.0,59.0,95.0,67618,35.217708333333334
6092,3.0,,,,,,,-128.0,,,2,pitchwheel,,,,,67620,35.21875
6093,3.0,,,,,,,-256.0,,,2,pitchwheel,,,,,67622,35.219791666666666
6094,3.0,,,,,,,-384.0,,,2,pitchwheel,,,,,67624,35.22083333333333
6095,3.0,,,,,,,-512.0,,,2,pitchwheel,,,,,67626,35.221875
6096,3.0,,,,,,,-640.0,,,2,pitchwheel,,,,,67628,35.22291666666666
6097,3.0,,,,,,,-768.0,,,2,pitchwheel,,,,,67630,35.223958333333336
6098,3.0,,,,,,,-896.0,,,2,pitchwheel,,,,,67632,35.225
6099,3.0,,,,,,,-1024.0,,,2,pitchwheel,,,,,67634,35.22604166666667
6100,3.0,,,,,,,-1152.0,,,2,pitchwheel,,,,,67636,35.22708333333333
6101,3.0,,,,,,,-1280.0,,,2,pitchwheel,,,,,67638,35.228125
6102,3.0,,,,,,,-1408.0,,,2,pitchwheel,,,,,67640,35.229166666666664
6103,3.0,,,,,,,-1536.0,,,2,pitchwheel,,,,,67642,35.23020833333333
6104,3.0,,,,,,,-1664.0,,,2,pitchwheel,,,,,67644,35.23125
6105,3.0,,,,,,,-1792.0,,,2,pitchwheel,,,,,67646,35.23229166666667
6106,3.0,,,,,,,-1920.0,,,2,pitchwheel,,,,,67648,35.233333333333334
6107,3.0,,,,,,,-2048.0,,,2,pitchwheel,,,,,67650,35.234375
6108,3.0,,,,,,,-2176.0,,,2,pitchwheel,,,,,67652,35.235416666666666
6109,3.0,,,,,,,-2304.0,,,2,pitchwheel,,,,,67654,35.23645833333333
6110,3.0,,,,,,,-2432.0,,,2,pitchwheel,,,,,67656,35.2375
6111,3.0,,,,,,,-2560.0,,,2,pitchwheel,,,,,67658,35.23854166666666
6112,3.0,,,,,,,-2688.0,,,2,pitchwheel,,,,,67660,35.239583333333336
6113,3.0,,,,,,,-2816.0,,,2,pitchwheel,,,,,67662,35.240625
6114,3.0,,,,,,,-2944.0,,,2,pitchwheel,,,,,67664,35.24166666666667
6115,3.0,,,,,,,-3072.0,,,2,pitchwheel,,,,,67666,35.24270833333333
6116,3.0,,,,,,,-3200.0,,,2,pitchwheel,,,,,67668,35.24375
6117,3.0,,,,,,,-3328.0,,,2,pitchwheel,,,,,67670,35.244791666666664
6118,3.0,,,,,,,-3456.0,,,2,pitchwheel,,,,,67672,35.24583333333333
6119,3.0,,,,,,,-3584.0,,,2,pitchwheel,,,,,67674,35.246875
6120,3.0,,,,,,,-3712.0,,,2,pitchwheel,,,,,67676,35.24791666666667
6121,3.0,,,,,,,-3840.0,,,2,pitchwheel,,,,,67678,35.248958333333334
6122,3.0,,,,,,,-3968.0,,,2,pitchwheel,,,,,67680,35.25
6123,3.0,,,,,,,-4096.0,,,2,pitchwheel,,,,,67682,35.251041666666666
6124,3.0,,,,,,,-4224.0,,,2,pitchwheel,,,,,67684,35.25208333333333
6125,3.0,,,,,,,-4224.0,,,14,pitchwheel,,,,,67698,35.259375
6126,3.0,,,,,,,-4096.0,,,2,pitchwheel,,,,,67700,35.260416666666664
6127,3.0,,,,,,,-3968.0,,,2,pitchwheel,,,,,67702,35.26145833333333
6128,3.0,,,,,,,-3840.0,,,2,pitchwheel,,,,,67704,35.2625
6129,3.0,,,,,,,-3712.0,,,2,pitchwheel,,,,,67706,35.26354166666667
6130,3.0,,,,,,,-3584.0,,,2,pitchwheel,,,,,67708,35.264583333333334
6131,3.0,,,,,,,-3456.0,,,2,pitchwheel,,,,,67710,35.265625
6132,3.0,,,,,,,-3328.0,,,2,pitchwheel,,,,,67712,35.266666666666666
6133,3.0,,,,,,,-3200.0,,,2,pitchwheel,,,,,67714,35.26770833333333
6134,3.0,,,,,,,-3072.0,,,2,pitchwheel,,,,,67716,35.26875
6135,3.0,,,,,,,-2944.0,,,2,pitchwheel,,,,,67718,35.26979166666666
6136,3.0,,,,,,,-2816.0,,,2,pitchwheel,,,,,67720,35.270833333333336
6137,3.0,,,,,,,-2688.0,,,2,pitchwheel,,,,,67722,35.271875
6138,3.0,,,,,,,-2560.0,,,2,pitchwheel,,,,,67724,35.27291666666667
6139,3.0,,,,,,,-2432.0,,,2,pitchwheel,,,,,67726,35.27395833333333
6140,3.0,,,,,,,-2304.0,,,2,pitchwheel,,,,,67728,35.275
6141,3.0,,,,,,,-2176.0,,,2,pitchwheel,,,,,67730,35.276041666666664
6142,3.0,,,,,,,-2048.0,,,2,pitchwheel,,,,,67732,35.27708333333333
6143,3.0,,,,,,,-1920.0,,,2,pitchwheel,,,,,67734,35.278125
6144,3.0,,,,,,,-1792.0,,,2,pitchwheel,,,,,67736,35.27916666666667
6145,3.0,,,,,,,-1664.0,,,2,pitchwheel,,,,,67738,35.280208333333334
6146,3.0,,,,,,,-1536.0,,,2,pitchwheel,,,,,67740,35.28125
6147,3.0,,,,,,,-1408.0,,,2,pitchwheel,,,,,67742,35.282291666666666
6148,3.0,,,,,,,-1280.0,,,2,pitchwheel,,,,,67744,35.28333333333333
6149,3.0,,,,,,,-1152.0,,,2,pitchwheel,,,,,67746,35.284375
6150,3.0,,,,,,,-1024.0,,,2,pitchwheel,,,,,67748,35.28541666666666
6151,3.0,,,,,,,-896.0,,,2,pitchwheel,,,,,67750,35.286458333333336
6152,3.0,,,,,,,-768.0,,,2,pitchwheel,,,,,67752,35.2875
6153,3.0,,,,,,,-640.0,,,2,pitchwheel,,,,,67754,35.28854166666667
6154,3.0,,,,,,,-512.0,,,2,pitchwheel,,,,,67756,35.28958333333333
6155,3.0,,,,,,,-384.0,,,2,pitchwheel,,,,,67758,35.290625
6156,3.0,,,,,,,-256.0,,,2,pitchwheel,,,,,67760,35.291666666666664
6157,3.0,,,,,,,-128.0,,,2,pitchwheel,,,,,67762,35.29270833333333
6158,3.0,,,,,,,0.0,,,2,pitchwheel,,,,,67764,35.29375
6159,3.0,,,,,,,0.0,,,14,pitchwheel,,,,,67778,35.30104166666666
6160,3.0,,,,,,,0.0,,,0,pitchwheel,,,,,67778,35.30104166666666
6161,3.0,,,,,59.0,,,,,0,note_off,,95.0,59.0,95.0,67778,35.30104166666666
6162,2.0,,,,,54.0,,,,,0,note_on,,95.0,54.0,95.0,240222,125.115625
6163,2.0,,,,,54.0,,,,,160,note_off,,95.0,54.0,95.0,240382,125.19895833333334
6164,3.0,,,,,,,0.0,,,0,pitchwheel,,,,,67778,35.30104166666666
6165,3.0,,,,,61.0,,,,,0,note_on,,95.0,61.0,95.0,67778,35.30104166666666
6166,3.0,,,,,,,-128.0,,,3,pitchwheel,,,,,67781,35.30260416666667
6167,3.0,,,,,,,-256.0,,,3,pitchwheel,,,,,67784,35.30416666666667
6168,3.0,,,,,,,-384.0,,,3,pitchwheel,,,,,67787,35.305729166666666
6169,3.0,,,,,,,-512.0,,,3,pitchwheel,,,,,67790,35.307291666666664
6170,3.0,,,,,,,-640.0,,,3,pitchwheel,,,,,67793,35.30885416666666
6171,3.0,,,,,,,-768.0,,,3,pitchwheel,,,,,67796,35.31041666666667
6172,3.0,,,,,,,-896.0,,,3,pitchwheel,,,,,67799,35.31197916666667
6173,3.0,,,,,,,-1024.0,,,3,pitchwheel,,,,,67802,35.313541666666666
6174,3.0,,,,,,,-1152.0,,,3,pitchwheel,,,,,67805,35.315104166666664
6175,3.0,,,,,,,-1280.0,,,3,pitchwheel,,,,,67808,35.31666666666666
6176,3.0,,,,,,,-1408.0,,,3,pitchwheel,,,,,67811,35.31822916666667
6177,3.0,,,,,,,-1536.0,,,3,pitchwheel,,,,,67814,35.31979166666667
6178,3.0,,,,,,,-1664.0,,,3,pitchwheel,,,,,67817,35.321354166666666
6179,3.0,,,,,,,-1792.0,,,3,pitchwheel,,,,,67820,35.322916666666664
6180,3.0,,,,,,,-1920.0,,,3,pitchwheel,,,,,67823,35.32447916666666
6181,3.0,,,,,,,-2048.0,,,3,pitchwheel,,,,,67826,35.32604166666667
6182,3.0,,,,,,,-2176.0,,,3,pitchwheel,,,,,67829,35.32760416666667
6183,3.0,,,,,,,-2304.0,,,3,pitchwheel,,,,,67832,35.329166666666666
6184,3.0,,,,,,,-2432.0,,,3,pitchwheel,,,,,67835,35.330729166666664
6185,3.0,,,,,,,-2560.0,,,3,pitchwheel,,,,,67838,35.33229166666666
6186,3.0,,,,,,,-2688.0,,,3,pitchwheel,,,,,67841,35.33385416666667
6187,3.0,,,,,,,-2816.0,,,3,pitchwheel,,,,,67844,35.33541666666667
6188,3.0,,,,,,,-2816.0,,,14,pitchwheel,,,,,67858,35.342708333333334
6189,3.0,,,,,,,-2688.0,,,3,pitchwheel,,,,,67861,35.34427083333333
6190,3.0,,,,,,,-2560.0,,,3,pitchwheel,,,,,67864,35.34583333333333
6191,3.0,,,,,,,-2432.0,,,3,pitchwheel,,,,,67867,35.34739583333333
6192,3.0,,,,,,,-2304.0,,,3,pitchwheel,,,,,67870,35.348958333333336
6193,3.0,,,,,,,-2176.0,,,3,pitchwheel,,,,,67873,35.350520833333334
6194,3.0,,,,,,,-2048.0,,,3,pitchwheel,,,,,67876,35.35208333333333
6195,3.0,,,,,,,-1920.0,,,3,pitchwheel,,,,,67879,35.35364583333333
6196,3.0,,,,,,,-1792.0,,,3,pitchwheel,,,,,67882,35.35520833333333
6197,3.0,,,,,,,-1664.0,,,3,pitchwheel,,,,,67885,35.356770833333336
6198,3.0,,,,,,,-1536.0,,,3,pitchwheel,,,,,67888,35.358333333333334
6199,3.0,,,,,,,-1408.0,,,3,pitchwheel,,,,,67891,35.35989583333333
6200,3.0,,,,,,,-1280.0,,,3,pitchwheel,,,,,67894,35.36145833333333
6201,3.0,,,,,,,-1152.0,,,3,pitchwheel,,,,,67897,35.36302083333333
6202,3.0,,,,,,,-1024.0,,,3,pitchwheel,,,,,67900,35.364583333333336
6203,3.0,,,,,,,-896.0,,,3,pitchwheel,,,,,67903,35.366145833333334
6204,3.0,,,,,,,-768.0,,,3,pitchwheel,,,,,67906,35.36770833333333
6205,3.0,,,,,,,-640.0,,,3,pitchwheel,,,,,67909,35.36927083333333
6206,3.0,,,,,,,-512.0,,,3,pitchwheel,,,,,67912,35.37083333333333
6207,3.0,,,,,,,-384.0,,,3,pitchwheel,,,,,67915,35.372395833333336
6208,3.0,,,,,,,-256.0,,,3,pitchwheel,,,,,67918,35.373958333333334
6209,3.0,,,,,,,-128.0,,,3,pitchwheel,,,,,67921,35.37552083333333
6210,3.0,,,,,,,0.0,,,3,pitchwheel,,,,,67924,35.37708333333333
6211,3.0,,,,,,,0.0,,,14,pitchwheel,,,,,67938,35.384375
6212,3.0,,,,,,,0.0,,,0,pitchwheel,,,,,67938,35.384375
6213,3.0,,,,,61.0,,,,,0,note_off,,95.0,61.0,95.0,67938,35.384375
6214,3.0,,,,,,,0.0,,,0,pitchwheel,,,,,67938,35.384375
6215,3.0,,,,,59.0,,,,,0,note_on,,95.0,59.0,95.0,67938,35.384375
6216,3.0,,,,,,,-128.0,,,3,pitchwheel,,,,,67941,35.3859375
6217,3.0,,,,,,,-256.0,,,3,pitchwheel,,,,,67944,35.3875
6218,3.0,,,,,,,-384.0,,,3,pitchwheel,,,,,67947,35.3890625
6219,3.0,,,,,,,-512.0,,,3,pitchwheel,,,,,67950,35.390625
6220,3.0,,,,,,,-640.0,,,3,pitchwheel,,,,,67953,35.3921875
6221,3.0,,,,,,,-768.0,,,3,pitchwheel,,,,,67956,35.39375
6222,3.0,,,,,,,-896.0,,,3,pitchwheel,,,,,67959,35.3953125
6223,3.0,,,,,,,-1024.0,,,3,pitchwheel,,,,,67962,35.396875
6224,3.0,,,,,,,-1152.0,,,3,pitchwheel,,,,,67965,35.3984375
6225,3.0,,,,,,,-1280.0,,,3,pitchwheel,,,,,67968,35.4
6226,3.0,,,,,,,-1408.0,,,3,pitchwheel,,,,,67971,35.4015625
6227,3.0,,,,,,,-1536.0,,,3,pitchwheel,,,,,67974,35.403125
6228,3.0,,,,,,,-1664.0,,,3,pitchwheel,,,,,67977,35.4046875
6229,3.0,,,,,,,-1792.0,,,3,pitchwheel,,,,,67980,35.40625
6230,3.0,,,,,,,-1920.0,,,3,pitchwheel,,,,,67983,35.4078125
6231,3.0,,,,,,,-2048.0,,,3,pitchwheel,,,,,67986,35.409375
6232,3.0,,,,,,,-2176.0,,,3,pitchwheel,,,,,67989,35.4109375
6233,3.0,,,,,,,-2304.0,,,3,pitchwheel,,,,,67992,35.4125
6234,3.0,,,,,,,-2432.0,,,3,pitchwheel,,,,,67995,35.4140625
6235,3.0,,,,,,,-2560.0,,,3,pitchwheel,,,,,67998,35.415625
6236,3.0,,,,,,,-2688.0,,,3,pitchwheel,,,,,68001,35.4171875
6237,3.0,,,,,,,-2816.0,,,3,pitchwheel,,,,,68004,35.41875
6238,3.0,,,,,,,-2816.0,,,14,pitchwheel,,,,,68018,35.42604166666666
6239,3.0,,,,,,,-2688.0,,,3,pitchwheel,,,,,68021,35.42760416666667
6240,3.0,,,,,,,-2560.0,,,3,pitchwheel,,,,,68024,35.42916666666667
6241,3.0,,,,,,,-2432.0,,,3,pitchwheel,,,,,68027,35.430729166666666
6242,3.0,,,,,,,-2304.0,,,3,pitchwheel,,,,,68030,35.432291666666664
6243,3.0,,,,,,,-2176.0,,,3,pitchwheel,,,,,68033,35.43385416666666
6244,3.0,,,,,,,-2048.0,,,3,pitchwheel,,,,,68036,35.43541666666667
6245,3.0,,,,,,,-1920.0,,,3,pitchwheel,,,,,68039,35.43697916666667
6246,3.0,,,,,,,-1792.0,,,3,pitchwheel,,,,,68042,35.438541666666666
6247,3.0,,,,,,,-1664.0,,,3,pitchwheel,,,,,68045,35.440104166666664
6248,3.0,,,,,,,-1536.0,,,3,pitchwheel,,,,,68048,35.44166666666666
6249,3.0,,,,,,,-1408.0,,,3,pitchwheel,,,,,68051,35.44322916666667
6250,3.0,,,,,,,-1280.0,,,3,pitchwheel,,,,,68054,35.44479166666667
6251,3.0,,,,,,,-1152.0,,,3,pitchwheel,,,,,68057,35.446354166666666
6252,3.0,,,,,,,-1024.0,,,3,pitchwheel,,,,,68060,35.447916666666664
6253,3.0,,,,,,,-896.0,,,3,pitchwheel,,,,,68063,35.44947916666666
6254,3.0,,,,,,,-768.0,,,3,pitchwheel,,,,,68066,35.45104166666667
6255,3.0,,,,,,,-640.0,,,3,pitchwheel,,,,,68069,35.45260416666667
6256,3.0,,,,,,,-512.0,,,3,pitchwheel,,,,,68072,35.454166666666666
6257,3.0,,,,,,,-384.0,,,3,pitchwheel,,,,,68075,35.455729166666664
6258,3.0,,,,,,,-256.0,,,3,pitchwheel,,,,,68078,35.45729166666666
6259,3.0,,,,,,,-128.0,,,3,pitchwheel,,,,,68081,35.45885416666667
6260,3.0,,,,,,,0.0,,,3,pitchwheel,,,,,68084,35.46041666666667
6261,3.0,,,,,,,0.0,,,14,pitchwheel,,,,,68098,35.467708333333334
6262,3.0,,,,,,,0.0,,,0,pitchwheel,,,,,68098,35.467708333333334
6263,3.0,,,,,59.0,,,,,0,note_off,,95.0,59.0,95.0,68098,35.467708333333334
6264,3.0,,,,,,,0.0,,,0,pitchwheel,,,,,68098,35.467708333333334
6265,3.0,,,,,54.0,,,,,0,note_on,,95.0,54.0,95.0,68098,35.467708333333334
6266,3.0,,,,,,,-128.0,,,2,pitchwheel,,,,,68100,35.46875
6267,3.0,,,,,,,-256.0,,,2,pitchwheel,,,,,68102,35.469791666666666
6268,3.0,,,,,,,-384.0,,,2,pitchwheel,,,,,68104,35.47083333333333
6269,3.0,,,,,,,-512.0,,,2,pitchwheel,,,,,68106,35.471875
6270,3.0,,,,,,,-640.0,,,2,pitchwheel,,,,,68108,35.47291666666666
6271,3.0,,,,,,,-768.0,,,2,pitchwheel,,,,,68110,35.473958333333336
6272,3.0,,,,,,,-896.0,,,2,pitchwheel,,,,,68112,35.475
6273,3.0,,,,,,,-1024.0,,,2,pitchwheel,,,,,68114,35.47604166666667
6274,3.0,,,,,,,-1152.0,,,2,pitchwheel,,,,,68116,35.47708333333333
6275,3.0,,,,,,,-1280.0,,,2,pitchwheel,,,,,68118,35.478125
6276,3.0,,,,,,,-1408.0,,,2,pitchwheel,,,,,68120,35.479166666666664
6277,3.0,,,,,,,-1536.0,,,2,pitchwheel,,,,,68122,35.48020833333333
6278,3.0,,,,,,,-1664.0,,,2,pitchwheel,,,,,68124,35.48125
6279,3.0,,,,,,,-1792.0,,,2,pitchwheel,,,,,68126,35.48229166666667
6280,3.0,,,,,,,-1920.0,,,2,pitchwheel,,,,,68128,35.483333333333334
6281,3.0,,,,,,,-2048.0,,,2,pitchwheel,,,,,68130,35.484375
6282,3.0,,,,,,,-2176.0,,,2,pitchwheel,,,,,68132,35.485416666666666
6283,3.0,,,,,,,-2304.0,,,2,pitchwheel,,,,,68134,35.48645833333333
6284,3.0,,,,,,,-2432.0,,,2,pitchwheel,,,,,68136,35.4875
6285,3.0,,,,,,,-2560.0,,,2,pitchwheel,,,,,68138,35.48854166666666
6286,3.0,,,,,,,-2688.0,,,2,pitchwheel,,,,,68140,35.489583333333336
6287,3.0,,,,,,,-2816.0,,,2,pitchwheel,,,,,68142,35.490625
6288,3.0,,,,,,,-2944.0,,,2,pitchwheel,,,,,68144,35.49166666666667
6289,3.0,,,,,,,-3072.0,,,2,pitchwheel,,,,,68146,35.49270833333333
6290,3.0,,,,,,,-3200.0,,,2,pitchwheel,,,,,68148,35.49375
6291,3.0,,,,,,,-3328.0,,,2,pitchwheel,,,,,68150,35.494791666666664
6292,3.0,,,,,,,-3456.0,,,2,pitchwheel,,,,,68152,35.49583333333333
6293,3.0,,,,,,,-3584.0,,,2,pitchwheel,,,,,68154,35.496875
6294,3.0,,,,,,,-3712.0,,,2,pitchwheel,,,,,68156,35.49791666666667
6295,3.0,,,,,,,-3840.0,,,2,pitchwheel,,,,,68158,35.498958333333334
6296,3.0,,,,,,,-3968.0,,,2,pitchwheel,,,,,68160,35.5
6297,3.0,,,,,,,-4096.0,,,2,pitchwheel,,,,,68162,35.501041666666666
6298,3.0,,,,,,,-4224.0,,,2,pitchwheel,,,,,68164,35.50208333333333
6299,3.0,,,,,,,-4224.0,,,14,pitchwheel,,,,,68178,35.509375
6300,3.0,,,,,,,-4096.0,,,2,pitchwheel,,,,,68180,35.510416666666664
6301,3.0,,,,,,,-3968.0,,,2,pitchwheel,,,,,68182,35.51145833333333
6302,3.0,,,,,,,-3840.0,,,2,pitchwheel,,,,,68184,35.5125
6303,3.0,,,,,,,-3712.0,,,2,pitchwheel,,,,,68186,35.51354166666667
6304,3.0,,,,,,,-3584.0,,,2,pitchwheel,,,,,68188,35.514583333333334
6305,3.0,,,,,,,-3456.0,,,2,pitchwheel,,,,,68190,35.515625
6306,3.0,,,,,,,-3328.0,,,2,pitchwheel,,,,,68192,35.516666666666666
6307,3.0,,,,,,,-3200.0,,,2,pitchwheel,,,,,68194,35.51770833333333
6308,3.0,,,,,,,-3072.0,,,2,pitchwheel,,,,,68196,35.51875
6309,3.0,,,,,,,-2944.0,,,2,pitchwheel,,,,,68198,35.51979166666666
6310,3.0,,,,,,,-2816.0,,,2,pitchwheel,,,,,68200,35.520833333333336
6311,3.0,,,,,,,-2688.0,,,2,pitchwheel,,,,,68202,35.521875
6312,3.0,,,,,,,-2560.0,,,2,pitchwheel,,,,,68204,35.52291666666667
6313,3.0,,,,,,,-2432.0,,,2,pitchwheel,,,,,68206,35.52395833333333
6314,3.0,,,,,,,-2304.0,,,2,pitchwheel,,,,,68208,35.525
6315,3.0,,,,,,,-2176.0,,,2,pitchwheel,,,,,68210,35.526041666666664
6316,3.0,,,,,,,-2048.0,,,2,pitchwheel,,,,,68212,35.52708333333333
6317,3.0,,,,,,,-1920.0,,,2,pitchwheel,,,,,68214,35.528125
6318,3.0,,,,,,,-1792.0,,,2,pitchwheel,,,,,68216,35.52916666666667
6319,3.0,,,,,,,-1664.0,,,2,pitchwheel,,,,,68218,35.530208333333334
6320,3.0,,,,,,,-1536.0,,,2,pitchwheel,,,,,68220,35.53125
6321,3.0,,,,,,,-1408.0,,,2,pitchwheel,,,,,68222,35.532291666666666
6322,3.0,,,,,,,-1280.0,,,2,pitchwheel,,,,,68224,35.53333333333333
6323,3.0,,,,,,,-1152.0,,,2,pitchwheel,,,,,68226,35.534375
6324,3.0,,,,,,,-1024.0,,,2,pitchwheel,,,,,68228,35.53541666666666
6325,3.0,,,,,,,-896.0,,,2,pitchwheel,,,,,68230,35.536458333333336
6326,3.0,,,,,,,-768.0,,,2,pitchwheel,,,,,68232,35.5375
6327,3.0,,,,,,,-640.0,,,2,pitchwheel,,,,,68234,35.53854166666667
6328,3.0,,,,,,,-512.0,,,2,pitchwheel,,,,,68236,35.53958333333333
6329,3.0,,,,,,,-384.0,,,2,pitchwheel,,,,,68238,35.540625
6330,3.0,,,,,,,-256.0,,,2,pitchwheel,,,,,68240,35.541666666666664
6331,3.0,,,,,,,-128.0,,,2,pitchwheel,,,,,68242,35.54270833333333
6332,3.0,,,,,,,0.0,,,2,pitchwheel,,,,,68244,35.54375
6333,3.0,,,,,,,0.0,,,14,pitchwheel,,,,,68258,35.55104166666666
6334,3.0,,,,,,,0.0,,,0,pitchwheel,,,,,68258,35.55104166666666
6335,3.0,,,,,54.0,,,,,0,note_off,,95.0,54.0,95.0,68258,35.55104166666666
6336,3.0,,,,,,,0.0,,,0,pitchwheel,,,,,68258,35.55104166666666
6337,3.0,,,,,61.0,,,,,0,note_on,,95.0,61.0,95.0,68258,35.55104166666666
6338,3.0,,,,,,,-128.0,,,2,pitchwheel,,,,,68260,35.552083333333336
6339,3.0,,,,,,,-256.0,,,2,pitchwheel,,,,,68262,35.553125
6340,3.0,,,,,,,-384.0,,,2,pitchwheel,,,,,68264,35.55416666666667
6341,3.0,,,,,,,-512.0,,,2,pitchwheel,,,,,68266,35.55520833333333
6342,3.0,,,,,,,-640.0,,,2,pitchwheel,,,,,68268,35.55625
6343,3.0,,,,,,,-768.0,,,2,pitchwheel,,,,,68270,35.557291666666664
6344,3.0,,,,,,,-896.0,,,2,pitchwheel,,,,,68272,35.55833333333333
6345,3.0,,,,,,,-1024.0,,,2,pitchwheel,,,,,68274,35.559375
6346,3.0,,,,,,,-1152.0,,,2,pitchwheel,,,,,68276,35.56041666666667
6347,3.0,,,,,,,-1280.0,,,2,pitchwheel,,,,,68278,35.561458333333334
6348,3.0,,,,,,,-1408.0,,,2,pitchwheel,,,,,68280,35.5625
6349,3.0,,,,,,,-1536.0,,,2,pitchwheel,,,,,68282,35.563541666666666
6350,3.0,,,,,,,-1664.0,,,2,pitchwheel,,,,,68284,35.56458333333333
6351,3.0,,,,,,,-1792.0,,,2,pitchwheel,,,,,68286,35.565625
6352,3.0,,,,,,,-1920.0,,,2,pitchwheel,,,,,68288,35.56666666666666
6353,3.0,,,,,,,-2048.0,,,2,pitchwheel,,,,,68290,35.567708333333336
6354,3.0,,,,,,,-2176.0,,,2,pitchwheel,,,,,68292,35.56875
6355,3.0,,,,,,,-2304.0,,,2,pitchwheel,,,,,68294,35.56979166666667
6356,3.0,,,,,,,-2432.0,,,2,pitchwheel,,,,,68296,35.57083333333333
6357,3.0,,,,,,,-2560.0,,,2,pitchwheel,,,,,68298,35.571875
6358,3.0,,,,,,,-2688.0,,,2,pitchwheel,,,,,68300,35.572916666666664
6359,3.0,,,,,,,-2816.0,,,2,pitchwheel,,,,,68302,35.57395833333333
6360,3.0,,,,,,,-2944.0,,,2,pitchwheel,,,,,68304,35.575
6361,3.0,,,,,,,-3072.0,,,2,pitchwheel,,,,,68306,35.57604166666667
6362,3.0,,,,,,,-3200.0,,,2,pitchwheel,,,,,68308,35.577083333333334
6363,3.0,,,,,,,-3328.0,,,2,pitchwheel,,,,,68310,35.578125
6364,3.0,,,,,,,-3456.0,,,2,pitchwheel,,,,,68312,35.579166666666666
6365,3.0,,,,,,,-3584.0,,,2,pitchwheel,,,,,68314,35.58020833333333
6366,3.0,,,,,,,-3712.0,,,2,pitchwheel,,,,,68316,35.58125
6367,3.0,,,,,,,-3840.0,,,2,pitchwheel,,,,,68318,35.58229166666666
6368,3.0,,,,,,,-3968.0,,,2,pitchwheel,,,,,68320,35.583333333333336
6369,3.0,,,,,,,-4096.0,,,2,pitchwheel,,,,,68322,35.584375
6370,3.0,,,,,,,-4224.0,,,2,pitchwheel,,,,,68324,35.58541666666667
6371,3.0,,,,,,,-4224.0,,,14,pitchwheel,,,,,68338,35.592708333333334
6372,3.0,,,,,,,-4096.0,,,2,pitchwheel,,,,,68340,35.59375
6373,3.0,,,,,,,-3968.0,,,2,pitchwheel,,,,,68342,35.594791666666666
6374,3.0,,,,,,,-3840.0,,,2,pitchwheel,,,,,68344,35.59583333333333
6375,3.0,,,,,,,-3712.0,,,2,pitchwheel,,,,,68346,35.596875
6376,3.0,,,,,,,-3584.0,,,2,pitchwheel,,,,,68348,35.59791666666666
6377,3.0,,,,,,,-3456.0,,,2,pitchwheel,,,,,68350,35.598958333333336
6378,3.0,,,,,,,-3328.0,,,2,pitchwheel,,,,,68352,35.6
6379,3.0,,,,,,,-3200.0,,,2,pitchwheel,,,,,68354,35.60104166666667
6380,3.0,,,,,,,-3072.0,,,2,pitchwheel,,,,,68356,35.60208333333333
6381,3.0,,,,,,,-2944.0,,,2,pitchwheel,,,,,68358,35.603125
6382,3.0,,,,,,,-2816.0,,,2,pitchwheel,,,,,68360,35.604166666666664
6383,3.0,,,,,,,-2688.0,,,2,pitchwheel,,,,,68362,35.60520833333333
6384,3.0,,,,,,,-2560.0,,,2,pitchwheel,,,,,68364,35.60625
6385,3.0,,,,,,,-2432.0,,,2,pitchwheel,,,,,68366,35.60729166666667
6386,3.0,,,,,,,-2304.0,,,2,pitchwheel,,,,,68368,35.608333333333334
6387,3.0,,,,,,,-2176.0,,,2,pitchwheel,,,,,68370,35.609375
6388,3.0,,,,,,,-2048.0,,,2,pitchwheel,,,,,68372,35.610416666666666
6389,3.0,,,,,,,-1920.0,,,2,pitchwheel,,,,,68374,35.61145833333333
6390,3.0,,,,,,,-1792.0,,,2,pitchwheel,,,,,68376,35.6125
6391,3.0,,,,,,,-1664.0,,,2,pitchwheel,,,,,68378,35.61354166666666
6392,3.0,,,,,,,-1536.0,,,2,pitchwheel,,,,,68380,35.614583333333336
6393,3.0,,,,,,,-1408.0,,,2,pitchwheel,,,,,68382,35.615625
6394,3.0,,,,,,,-1280.0,,,2,pitchwheel,,,,,68384,35.61666666666667
6395,3.0,,,,,,,-1152.0,,,2,pitchwheel,,,,,68386,35.61770833333333
6396,3.0,,,,,,,-1024.0,,,2,pitchwheel,,,,,68388,35.61875
6397,3.0,,,,,,,-896.0,,,2,pitchwheel,,,,,68390,35.619791666666664
6398,3.0,,,,,,,-768.0,,,2,pitchwheel,,,,,68392,35.62083333333333
6399,3.0,,,,,,,-640.0,,,2,pitchwheel,,,,,68394,35.621875
6400,3.0,,,,,,,-512.0,,,2,pitchwheel,,,,,68396,35.62291666666667
6401,3.0,,,,,,,-384.0,,,2,pitchwheel,,,,,68398,35.623958333333334
6402,3.0,,,,,,,-256.0,,,2,pitchwheel,,,,,68400,35.625
6403,3.0,,,,,,,-128.0,,,2,pitchwheel,,,,,68402,35.626041666666666
6404,3.0,,,,,,,0.0,,,2,pitchwheel,,,,,68404,35.62708333333333
6405,3.0,,,,,,,0.0,,,14,pitchwheel,,,,,68418,35.634375
6406,3.0,,,,,,,0.0,,,0,pitchwheel,,,,,68418,35.634375
6407,3.0,,,,,61.0,,,,,0,note_off,,95.0,61.0,95.0,68418,35.634375
6408,2.0,,,,,59.0,,,,,0,note_on,,95.0,59.0,95.0,240382,125.19895833333334
6409,2.0,,,,,59.0,,,,,160,note_off,,95.0,59.0,95.0,240542,125.28229166666667
6410,2.0,,,,,54.0,,,,,0,note_on,,95.0,54.0,95.0,240542,125.28229166666667
6411,2.0,,,,,54.0,,,,,160,note_off,,95.0,54.0,95.0,240702,125.365625
6412,2.0,,,,,61.0,,,,,0,note_on,,95.0,61.0,95.0,240702,125.365625
6413,2.0,,,,,61.0,,,,,160,note_off,,95.0,61.0,95.0,240862,125.44895833333334
6414,3.0,,,,,,,0.0,,,0,pitchwheel,,,,,68418,35.634375
6415,3.0,,,,,59.0,,,,,0,note_on,,95.0,59.0,95.0,68418,35.634375
6416,3.0,,,,,,,-128.0,,,1,pitchwheel,,,,,68419,35.63489583333333
6417,3.0,,,,,,,-256.0,,,1,pitchwheel,,,,,68420,35.635416666666664
6418,3.0,,,,,,,-384.0,,,1,pitchwheel,,,,,68421,35.6359375
6419,3.0,,,,,,,-512.0,,,1,pitchwheel,,,,,68422,35.63645833333333
6420,3.0,,,,,,,-640.0,,,1,pitchwheel,,,,,68423,35.63697916666666
6421,3.0,,,,,,,-768.0,,,1,pitchwheel,,,,,68424,35.6375
6422,3.0,,,,,,,-896.0,,,1,pitchwheel,,,,,68425,35.638020833333336
6423,3.0,,,,,,,-1024.0,,,1,pitchwheel,,,,,68426,35.63854166666667
6424,3.0,,,,,,,-1152.0,,,1,pitchwheel,,,,,68427,35.6390625
6425,3.0,,,,,,,-1280.0,,,1,pitchwheel,,,,,68428,35.639583333333334
6426,3.0,,,,,,,-1408.0,,,1,pitchwheel,,,,,68429,35.64010416666667
6427,3.0,,,,,,,-1536.0,,,1,pitchwheel,,,,,68430,35.640625
6428,3.0,,,,,,,-1664.0,,,1,pitchwheel,,,,,68431,35.64114583333333
6429,3.0,,,,,,,-1792.0,,,1,pitchwheel,,,,,68432,35.641666666666666
6430,3.0,,,,,,,-1920.0,,,1,pitchwheel,,,,,68433,35.6421875
6431,3.0,,,,,,,-2048.0,,,1,pitchwheel,,,,,68434,35.64270833333333
6432,3.0,,,,,,,-2176.0,,,1,pitchwheel,,,,,68435,35.643229166666664
6433,3.0,,,,,,,-2304.0,,,1,pitchwheel,,,,,68436,35.64375
6434,3.0,,,,,,,-2432.0,,,1,pitchwheel,,,,,68437,35.64427083333333
6435,3.0,,,,,,,-2560.0,,,1,pitchwheel,,,,,68438,35.64479166666666
6436,3.0,,,,,,,-2688.0,,,1,pitchwheel,,,,,68439,35.6453125
6437,3.0,,,,,,,-2816.0,,,1,pitchwheel,,,,,68440,35.645833333333336
6438,3.0,,,,,,,-2944.0,,,1,pitchwheel,,,,,68441,35.64635416666667
6439,3.0,,,,,,,-3072.0,,,1,pitchwheel,,,,,68442,35.646875
6440,3.0,,,,,,,-3200.0,,,1,pitchwheel,,,,,68443,35.647395833333334
6441,3.0,,,,,,,-3328.0,,,1,pitchwheel,,,,,68444,35.64791666666667
6442,3.0,,,,,,,-3456.0,,,1,pitchwheel,,,,,68445,35.6484375
6443,3.0,,,,,,,-3584.0,,,1,pitchwheel,,,,,68446,35.64895833333333
6444,3.0,,,,,,,-3712.0,,,1,pitchwheel,,,,,68447,35.649479166666666
6445,3.0,,,,,,,-3840.0,,,1,pitchwheel,,,,,68448,35.65
6446,3.0,,,,,,,-3968.0,,,1,pitchwheel,,,,,68449,35.65052083333333
6447,3.0,,,,,,,-4096.0,,,1,pitchwheel,,,,,68450,35.651041666666664
6448,3.0,,,,,,,-4224.0,,,1,pitchwheel,,,,,68451,35.6515625
6449,3.0,,,,,,,-4352.0,,,1,pitchwheel,,,,,68452,35.65208333333333
6450,3.0,,,,,,,-4480.0,,,1,pitchwheel,,,,,68453,35.65260416666666
6451,3.0,,,,,,,-4608.0,,,1,pitchwheel,,,,,68454,35.653125
6452,3.0,,,,,,,-4736.0,,,1,pitchwheel,,,,,68455,35.653645833333336
6453,3.0,,,,,,,-4864.0,,,1,pitchwheel,,,,,68456,35.65416666666667
6454,3.0,,,,,,,-4992.0,,,1,pitchwheel,,,,,68457,35.6546875
6455,3.0,,,,,,,-5120.0,,,1,pitchwheel,,,,,68458,35.655208333333334
6456,3.0,,,,,,,-5248.0,,,1,pitchwheel,,,,,68459,35.65572916666667
6457,3.0,,,,,,,-5376.0,,,1,pitchwheel,,,,,68460,35.65625
6458,3.0,,,,,,,-5504.0,,,1,pitchwheel,,,,,68461,35.65677083333333
6459,3.0,,,,,,,-5632.0,,,1,pitchwheel,,,,,68462,35.657291666666666
6460,3.0,,,,,,,-5760.0,,,1,pitchwheel,,,,,68463,35.6578125
6461,3.0,,,,,,,-5888.0,,,1,pitchwheel,,,,,68464,35.65833333333333
6462,3.0,,,,,,,-6016.0,,,1,pitchwheel,,,,,68465,35.658854166666664
6463,3.0,,,,,,,-6144.0,,,1,pitchwheel,,,,,68466,35.659375
6464,3.0,,,,,,,-6272.0,,,1,pitchwheel,,,,,68467,35.65989583333333
6465,3.0,,,,,,,-6400.0,,,1,pitchwheel,,,,,68468,35.66041666666666
6466,3.0,,,,,,,-6528.0,,,1,pitchwheel,,,,,68469,35.6609375
6467,3.0,,,,,,,-6656.0,,,1,pitchwheel,,,,,68470,35.661458333333336
6468,3.0,,,,,,,-6784.0,,,1,pitchwheel,,,,,68471,35.66197916666667
6469,3.0,,,,,,,-6912.0,,,1,pitchwheel,,,,,68472,35.6625
6470,3.0,,,,,,,-7040.0,,,1,pitchwheel,,,,,68473,35.663020833333334
6471,3.0,,,,,,,-7040.0,,,25,pitchwheel,,,,,68498,35.67604166666666
6472,3.0,,,,,,,-6912.0,,,1,pitchwheel,,,,,68499,35.6765625
6473,3.0,,,,,,,-6784.0,,,1,pitchwheel,,,,,68500,35.677083333333336
6474,3.0,,,,,,,-6656.0,,,1,pitchwheel,,,,,68501,35.67760416666667
6475,3.0,,,,,,,-6528.0,,,1,pitchwheel,,,,,68502,35.678125
6476,3.0,,,,,,,-6400.0,,,1,pitchwheel,,,,,68503,35.678645833333334
6477,3.0,,,,,,,-6272.0,,,1,pitchwheel,,,,,68504,35.67916666666667
6478,3.0,,,,,,,-6144.0,,,1,pitchwheel,,,,,68505,35.6796875
6479,3.0,,,,,,,-6016.0,,,1,pitchwheel,,,,,68506,35.68020833333333
6480,3.0,,,,,,,-5888.0,,,1,pitchwheel,,,,,68507,35.680729166666666
6481,3.0,,,,,,,-5760.0,,,1,pitchwheel,,,,,68508,35.68125
6482,3.0,,,,,,,-5632.0,,,1,pitchwheel,,,,,68509,35.68177083333333
6483,3.0,,,,,,,-5504.0,,,1,pitchwheel,,,,,68510,35.682291666666664
6484,3.0,,,,,,,-5376.0,,,1,pitchwheel,,,,,68511,35.6828125
6485,3.0,,,,,,,-5248.0,,,1,pitchwheel,,,,,68512,35.68333333333333
6486,3.0,,,,,,,-5120.0,,,1,pitchwheel,,,,,68513,35.68385416666666
6487,3.0,,,,,,,-4992.0,,,1,pitchwheel,,,,,68514,35.684375
6488,3.0,,,,,,,-4864.0,,,1,pitchwheel,,,,,68515,35.684895833333336
6489,3.0,,,,,,,-4736.0,,,1,pitchwheel,,,,,68516,35.68541666666667
6490,3.0,,,,,,,-4608.0,,,1,pitchwheel,,,,,68517,35.6859375
6491,3.0,,,,,,,-4480.0,,,1,pitchwheel,,,,,68518,35.686458333333334
6492,3.0,,,,,,,-4352.0,,,1,pitchwheel,,,,,68519,35.68697916666667
6493,3.0,,,,,,,-4224.0,,,1,pitchwheel,,,,,68520,35.6875
6494,3.0,,,,,,,-4096.0,,,1,pitchwheel,,,,,68521,35.68802083333333
6495,3.0,,,,,,,-3968.0,,,1,pitchwheel,,,,,68522,35.688541666666666
6496,3.0,,,,,,,-3840.0,,,1,pitchwheel,,,,,68523,35.6890625
6497,3.0,,,,,,,-3712.0,,,1,pitchwheel,,,,,68524,35.68958333333333
6498,3.0,,,,,,,-3584.0,,,1,pitchwheel,,,,,68525,35.690104166666664
6499,3.0,,,,,,,-3456.0,,,1,pitchwheel,,,,,68526,35.690625
6500,3.0,,,,,,,-3328.0,,,1,pitchwheel,,,,,68527,35.69114583333333
6501,3.0,,,,,,,-3200.0,,,1,pitchwheel,,,,,68528,35.69166666666666
6502,3.0,,,,,,,-3072.0,,,1,pitchwheel,,,,,68529,35.6921875
6503,3.0,,,,,,,-2944.0,,,1,pitchwheel,,,,,68530,35.692708333333336
6504,3.0,,,,,,,-2816.0,,,1,pitchwheel,,,,,68531,35.69322916666667
6505,3.0,,,,,,,-2688.0,,,1,pitchwheel,,,,,68532,35.69375
6506,3.0,,,,,,,-2560.0,,,1,pitchwheel,,,,,68533,35.694270833333334
6507,3.0,,,,,,,-2432.0,,,1,pitchwheel,,,,,68534,35.69479166666667
6508,3.0,,,,,,,-2304.0,,,1,pitchwheel,,,,,68535,35.6953125
6509,3.0,,,,,,,-2176.0,,,1,pitchwheel,,,,,68536,35.69583333333333
6510,3.0,,,,,,,-2048.0,,,1,pitchwheel,,,,,68537,35.696354166666666
6511,3.0,,,,,,,-1920.0,,,1,pitchwheel,,,,,68538,35.696875
6512,3.0,,,,,,,-1792.0,,,1,pitchwheel,,,,,68539,35.69739583333333
6513,3.0,,,,,,,-1664.0,,,1,pitchwheel,,,,,68540,35.697916666666664
6514,3.0,,,,,,,-1536.0,,,1,pitchwheel,,,,,68541,35.6984375
6515,3.0,,,,,,,-1408.0,,,1,pitchwheel,,,,,68542,35.69895833333333
6516,3.0,,,,,,,-1280.0,,,1,pitchwheel,,,,,68543,35.69947916666666
6517,3.0,,,,,,,-1152.0,,,1,pitchwheel,,,,,68544,35.7
6518,3.0,,,,,,,-1024.0,,,1,pitchwheel,,,,,68545,35.700520833333336
6519,3.0,,,,,,,-896.0,,,1,pitchwheel,,,,,68546,35.70104166666667
6520,3.0,,,,,,,-768.0,,,1,pitchwheel,,,,,68547,35.7015625
6521,3.0,,,,,,,-640.0,,,1,pitchwheel,,,,,68548,35.702083333333334
6522,3.0,,,,,,,-512.0,,,1,pitchwheel,,,,,68549,35.70260416666667
6523,3.0,,,,,,,-384.0,,,1,pitchwheel,,,,,68550,35.703125
6524,3.0,,,,,,,-256.0,,,1,pitchwheel,,,,,68551,35.70364583333333
6525,3.0,,,,,,,-128.0,,,1,pitchwheel,,,,,68552,35.704166666666666
6526,3.0,,,,,,,0.0,,,1,pitchwheel,,,,,68553,35.7046875
6527,3.0,,,,,,,0.0,,,25,pitchwheel,,,,,68578,35.717708333333334
6528,3.0,,,,,,,0.0,,,0,pitchwheel,,,,,68578,35.717708333333334
6529,3.0,,,,,59.0,,,,,0,note_off,,95.0,59.0,95.0,68578,35.717708333333334
6530,2.0,,,,,54.0,,,,,0,note_on,,95.0,54.0,95.0,240862,125.44895833333334
6531,2.0,,,,,54.0,,,,,160,note_off,,95.0,54.0,95.0,241022,125.53229166666667
6532,2.0,,,,,61.0,,,,,0,note_on,,95.0,61.0,95.0,241022,125.53229166666667
6533,2.0,,,,,61.0,,,,,160,note_off,,95.0,61.0,95.0,241182,125.615625
6534,3.0,,,,,,,0.0,,,0,pitchwheel,,,,,68578,35.717708333333334
6535,3.0,,,,,59.0,,,,,0,note_on,,95.0,59.0,95.0,68578,35.717708333333334
6536,3.0,,,,,,,-128.0,,,1,pitchwheel,,,,,68579,35.71822916666667
6537,3.0,,,,,,,-256.0,,,1,pitchwheel,,,,,68580,35.71875
6538,3.0,,,,,,,-384.0,,,1,pitchwheel,,,,,68581,35.71927083333333
6539,3.0,,,,,,,-512.0,,,1,pitchwheel,,,,,68582,35.719791666666666
6540,3.0,,,,,,,-640.0,,,1,pitchwheel,,,,,68583,35.7203125
6541,3.0,,,,,,,-768.0,,,1,pitchwheel,,,,,68584,35.72083333333333
6542,3.0,,,,,,,-896.0,,,1,pitchwheel,,,,,68585,35.721354166666664
6543,3.0,,,,,,,-1024.0,,,1,pitchwheel,,,,,68586,35.721875
6544,3.0,,,,,,,-1152.0,,,1,pitchwheel,,,,,68587,35.72239583333333
6545,3.0,,,,,,,-1280.0,,,1,pitchwheel,,,,,68588,35.72291666666666
6546,3.0,,,,,,,-1408.0,,,1,pitchwheel,,,,,68589,35.7234375
6547,3.0,,,,,,,-1536.0,,,1,pitchwheel,,,,,68590,35.723958333333336
6548,3.0,,,,,,,-1664.0,,,1,pitchwheel,,,,,68591,35.72447916666667
6549,3.0,,,,,,,-1792.0,,,1,pitchwheel,,,,,68592,35.725
6550,3.0,,,,,,,-1920.0,,,1,pitchwheel,,,,,68593,35.725520833333334
6551,3.0,,,,,,,-2048.0,,,1,pitchwheel,,,,,68594,35.72604166666667
6552,3.0,,,,,,,-2176.0,,,1,pitchwheel,,,,,68595,35.7265625
6553,3.0,,,,,,,-2304.0,,,1,pitchwheel,,,,,68596,35.72708333333333
6554,3.0,,,,,,,-2432.0,,,1,pitchwheel,,,,,68597,35.727604166666666
6555,3.0,,,,,,,-2560.0,,,1,pitchwheel,,,,,68598,35.728125
6556,3.0,,,,,,,-2688.0,,,1,pitchwheel,,,,,68599,35.72864583333333
6557,3.0,,,,,,,-2816.0,,,1,pitchwheel,,,,,68600,35.729166666666664
6558,3.0,,,,,,,-2944.0,,,1,pitchwheel,,,,,68601,35.7296875
6559,3.0,,,,,,,-3072.0,,,1,pitchwheel,,,,,68602,35.73020833333333
6560,3.0,,,,,,,-3200.0,,,1,pitchwheel,,,,,68603,35.73072916666666
6561,3.0,,,,,,,-3328.0,,,1,pitchwheel,,,,,68604,35.73125
6562,3.0,,,,,,,-3456.0,,,1,pitchwheel,,,,,68605,35.731770833333336
6563,3.0,,,,,,,-3584.0,,,1,pitchwheel,,,,,68606,35.73229166666667
6564,3.0,,,,,,,-3712.0,,,1,pitchwheel,,,,,68607,35.7328125
6565,3.0,,,,,,,-3840.0,,,1,pitchwheel,,,,,68608,35.733333333333334
6566,3.0,,,,,,,-3968.0,,,1,pitchwheel,,,,,68609,35.73385416666667
6567,3.0,,,,,,,-4096.0,,,1,pitchwheel,,,,,68610,35.734375
6568,3.0,,,,,,,-4224.0,,,1,pitchwheel,,,,,68611,35.73489583333333
6569,3.0,,,,,,,-4352.0,,,1,pitchwheel,,,,,68612,35.735416666666666
6570,3.0,,,,,,,-4480.0,,,1,pitchwheel,,,,,68613,35.7359375
6571,3.0,,,,,,,-4608.0,,,1,pitchwheel,,,,,68614,35.73645833333333
6572,3.0,,,,,,,-4736.0,,,1,pitchwheel,,,,,68615,35.736979166666664
6573,3.0,,,,,,,-4864.0,,,1,pitchwheel,,,,,68616,35.7375
6574,3.0,,,,,,,-4992.0,,,1,pitchwheel,,,,,68617,35.73802083333333
6575,3.0,,,,,,,-5120.0,,,1,pitchwheel,,,,,68618,35.73854166666666
6576,3.0,,,,,,,-5248.0,,,1,pitchwheel,,,,,68619,35.7390625
6577,3.0,,,,,,,-5376.0,,,1,pitchwheel,,,,,68620,35.739583333333336
6578,3.0,,,,,,,-5504.0,,,1,pitchwheel,,,,,68621,35.74010416666667
6579,3.0,,,,,,,-5632.0,,,1,pitchwheel,,,,,68622,35.740625
6580,3.0,,,,,,,-5760.0,,,1,pitchwheel,,,,,68623,35.741145833333334
6581,3.0,,,,,,,-5888.0,,,1,pitchwheel,,,,,68624,35.74166666666667
6582,3.0,,,,,,,-6016.0,,,1,pitchwheel,,,,,68625,35.7421875
6583,3.0,,,,,,,-6144.0,,,1,pitchwheel,,,,,68626,35.74270833333333
6584,3.0,,,,,,,-6272.0,,,1,pitchwheel,,,,,68627,35.743229166666666
6585,3.0,,,,,,,-6400.0,,,1,pitchwheel,,,,,68628,35.74375
6586,3.0,,,,,,,-6528.0,,,1,pitchwheel,,,,,68629,35.74427083333333
6587,3.0,,,,,,,-6656.0,,,1,pitchwheel,,,,,68630,35.744791666666664
6588,3.0,,,,,,,-6784.0,,,1,pitchwheel,,,,,68631,35.7453125
6589,3.0,,,,,,,-6912.0,,,1,pitchwheel,,,,,68632,35.74583333333333
6590,3.0,,,,,,,-7040.0,,,1,pitchwheel,,,,,68633,35.74635416666666
6591,3.0,,,,,,,-7040.0,,,25,pitchwheel,,,,,68658,35.759375
6592,3.0,,,,,,,-6912.0,,,1,pitchwheel,,,,,68659,35.75989583333333
6593,3.0,,,,,,,-6784.0,,,1,pitchwheel,,,,,68660,35.760416666666664
6594,3.0,,,,,,,-6656.0,,,1,pitchwheel,,,,,68661,35.7609375
6595,3.0,,,,,,,-6528.0,,,1,pitchwheel,,,,,68662,35.76145833333333
6596,3.0,,,,,,,-6400.0,,,1,pitchwheel,,,,,68663,35.76197916666666
6597,3.0,,,,,,,-6272.0,,,1,pitchwheel,,,,,68664,35.7625
6598,3.0,,,,,,,-6144.0,,,1,pitchwheel,,,,,68665,35.763020833333336
6599,3.0,,,,,,,-6016.0,,,1,pitchwheel,,,,,68666,35.76354166666667
6600,3.0,,,,,,,-5888.0,,,1,pitchwheel,,,,,68667,35.7640625
6601,3.0,,,,,,,-5760.0,,,1,pitchwheel,,,,,68668,35.764583333333334
6602,3.0,,,,,,,-5632.0,,,1,pitchwheel,,,,,68669,35.76510416666667
6603,3.0,,,,,,,-5504.0,,,1,pitchwheel,,,,,68670,35.765625
6604,3.0,,,,,,,-5376.0,,,1,pitchwheel,,,,,68671,35.76614583333333
6605,3.0,,,,,,,-5248.0,,,1,pitchwheel,,,,,68672,35.766666666666666
6606,3.0,,,,,,,-5120.0,,,1,pitchwheel,,,,,68673,35.7671875
6607,3.0,,,,,,,-4992.0,,,1,pitchwheel,,,,,68674,35.76770833333333
6608,3.0,,,,,,,-4864.0,,,1,pitchwheel,,,,,68675,35.768229166666664
6609,3.0,,,,,,,-4736.0,,,1,pitchwheel,,,,,68676,35.76875
6610,3.0,,,,,,,-4608.0,,,1,pitchwheel,,,,,68677,35.76927083333333
6611,3.0,,,,,,,-4480.0,,,1,pitchwheel,,,,,68678,35.76979166666666
6612,3.0,,,,,,,-4352.0,,,1,pitchwheel,,,,,68679,35.7703125
6613,3.0,,,,,,,-4224.0,,,1,pitchwheel,,,,,68680,35.770833333333336
6614,3.0,,,,,,,-4096.0,,,1,pitchwheel,,,,,68681,35.77135416666667
6615,3.0,,,,,,,-3968.0,,,1,pitchwheel,,,,,68682,35.771875
6616,3.0,,,,,,,-3840.0,,,1,pitchwheel,,,,,68683,35.772395833333334
6617,3.0,,,,,,,-3712.0,,,1,pitchwheel,,,,,68684,35.77291666666667
6618,3.0,,,,,,,-3584.0,,,1,pitchwheel,,,,,68685,35.7734375
6619,3.0,,,,,,,-3456.0,,,1,pitchwheel,,,,,68686,35.77395833333333
6620,3.0,,,,,,,-3328.0,,,1,pitchwheel,,,,,68687,35.774479166666666
6621,3.0,,,,,,,-3200.0,,,1,pitchwheel,,,,,68688,35.775
6622,3.0,,,,,,,-3072.0,,,1,pitchwheel,,,,,68689,35.77552083333333
6623,3.0,,,,,,,-2944.0,,,1,pitchwheel,,,,,68690,35.776041666666664
6624,3.0,,,,,,,-2816.0,,,1,pitchwheel,,,,,68691,35.7765625
6625,3.0,,,,,,,-2688.0,,,1,pitchwheel,,,,,68692,35.77708333333333
6626,3.0,,,,,,,-2560.0,,,1,pitchwheel,,,,,68693,35.77760416666666
6627,3.0,,,,,,,-2432.0,,,1,pitchwheel,,,,,68694,35.778125
6628,3.0,,,,,,,-2304.0,,,1,pitchwheel,,,,,68695,35.778645833333336
6629,3.0,,,,,,,-2176.0,,,1,pitchwheel,,,,,68696,35.77916666666667
6630,3.0,,,,,,,-2048.0,,,1,pitchwheel,,,,,68697,35.7796875
6631,3.0,,,,,,,-1920.0,,,1,pitchwheel,,,,,68698,35.780208333333334
6632,3.0,,,,,,,-1792.0,,,1,pitchwheel,,,,,68699,35.78072916666667
6633,3.0,,,,,,,-1664.0,,,1,pitchwheel,,,,,68700,35.78125
6634,3.0,,,,,,,-1536.0,,,1,pitchwheel,,,,,68701,35.78177083333333
6635,3.0,,,,,,,-1408.0,,,1,pitchwheel,,,,,68702,35.782291666666666
6636,3.0,,,,,,,-1280.0,,,1,pitchwheel,,,,,68703,35.7828125
6637,3.0,,,,,,,-1152.0,,,1,pitchwheel,,,,,68704,35.78333333333333
6638,3.0,,,,,,,-1024.0,,,1,pitchwheel,,,,,68705,35.783854166666664
6639,3.0,,,,,,,-896.0,,,1,pitchwheel,,,,,68706,35.784375
6640,3.0,,,,,,,-768.0,,,1,pitchwheel,,,,,68707,35.78489583333333
6641,3.0,,,,,,,-640.0,,,1,pitchwheel,,,,,68708,35.78541666666666
6642,3.0,,,,,,,-512.0,,,1,pitchwheel,,,,,68709,35.7859375
6643,3.0,,,,,,,-384.0,,,1,pitchwheel,,,,,68710,35.786458333333336
6644,3.0,,,,,,,-256.0,,,1,pitchwheel,,,,,68711,35.78697916666667
6645,3.0,,,,,,,-128.0,,,1,pitchwheel,,,,,68712,35.7875
6646,3.0,,,,,,,0.0,,,1,pitchwheel,,,,,68713,35.788020833333334
6647,3.0,,,,,,,0.0,,,25,pitchwheel,,,,,68738,35.80104166666666
6648,3.0,,,,,,,0.0,,,0,pitchwheel,,,,,68738,35.80104166666666
6649,3.0,,,,,59.0,,,,,0,note_off,,95.0,59.0,95.0,68738,35.80104166666666
6650,2.0,,,,,54.0,,,,,0,note_on,,95.0,54.0,95.0,241182,125.615625
6651,2.0,,,,,54.0,,,,,160,note_off,,95.0,54.0,95.0,241342,125.69895833333334
6652,2.0,,,,,61.0,,,,,0,note_on,,95.0,61.0,95.0,241342,125.69895833333334
6653,2.0,,,,,61.0,,,,,160,note_off,,95.0,61.0,95.0,241502,125.78229166666667
6654,2.0,,,,,59.0,,,,,0,note_on,,95.0,59.0,95.0,241502,125.78229166666667
6655,2.0,,,,,59.0,,,,,160,note_off,,95.0,59.0,95.0,241662,125.865625
6656,3.0,,,,,,,0.0,,,0,pitchwheel,,,,,68738,35.80104166666666
6657,3.0,,,,,54.0,,,,,0,note_on,,95.0,54.0,95.0,68738,35.80104166666666
6658,3.0,,,,,,,-128.0,,,2,pitchwheel,,,,,68740,35.802083333333336
6659,3.0,,,,,,,-256.0,,,2,pitchwheel,,,,,68742,35.803125
6660,3.0,,,,,,,-384.0,,,2,pitchwheel,,,,,68744,35.80416666666667
6661,3.0,,,,,,,-512.0,,,2,pitchwheel,,,,,68746,35.80520833333333
6662,3.0,,,,,,,-640.0,,,2,pitchwheel,,,,,68748,35.80625
6663,3.0,,,,,,,-768.0,,,2,pitchwheel,,,,,68750,35.807291666666664
6664,3.0,,,,,,,-896.0,,,2,pitchwheel,,,,,68752,35.80833333333333
6665,3.0,,,,,,,-1024.0,,,2,pitchwheel,,,,,68754,35.809375
6666,3.0,,,,,,,-1152.0,,,2,pitchwheel,,,,,68756,35.81041666666667
6667,3.0,,,,,,,-1280.0,,,2,pitchwheel,,,,,68758,35.811458333333334
6668,3.0,,,,,,,-1408.0,,,2,pitchwheel,,,,,68760,35.8125
6669,3.0,,,,,,,-1536.0,,,2,pitchwheel,,,,,68762,35.813541666666666
6670,3.0,,,,,,,-1664.0,,,2,pitchwheel,,,,,68764,35.81458333333333
6671,3.0,,,,,,,-1792.0,,,2,pitchwheel,,,,,68766,35.815625
6672,3.0,,,,,,,-1920.0,,,2,pitchwheel,,,,,68768,35.81666666666666
6673,3.0,,,,,,,-2048.0,,,2,pitchwheel,,,,,68770,35.817708333333336
6674,3.0,,,,,,,-2176.0,,,2,pitchwheel,,,,,68772,35.81875
6675,3.0,,,,,,,-2304.0,,,2,pitchwheel,,,,,68774,35.81979166666667
6676,3.0,,,,,,,-2432.0,,,2,pitchwheel,,,,,68776,35.82083333333333
6677,3.0,,,,,,,-2560.0,,,2,pitchwheel,,,,,68778,35.821875
6678,3.0,,,,,,,-2688.0,,,2,pitchwheel,,,,,68780,35.822916666666664
6679,3.0,,,,,,,-2816.0,,,2,pitchwheel,,,,,68782,35.82395833333333
6680,3.0,,,,,,,-2944.0,,,2,pitchwheel,,,,,68784,35.825
6681,3.0,,,,,,,-3072.0,,,2,pitchwheel,,,,,68786,35.82604166666667
6682,3.0,,,,,,,-3200.0,,,2,pitchwheel,,,,,68788,35.827083333333334
6683,3.0,,,,,,,-3328.0,,,2,pitchwheel,,,,,68790,35.828125
6684,3.0,,,,,,,-3456.0,,,2,pitchwheel,,,,,68792,35.829166666666666
6685,3.0,,,,,,,-3584.0,,,2,pitchwheel,,,,,68794,35.83020833333333
6686,3.0,,,,,,,-3712.0,,,2,pitchwheel,,,,,68796,35.83125
6687,3.0,,,,,,,-3840.0,,,2,pitchwheel,,,,,68798,35.83229166666666
6688,3.0,,,,,,,-3968.0,,,2,pitchwheel,,,,,68800,35.833333333333336
6689,3.0,,,,,,,-4096.0,,,2,pitchwheel,,,,,68802,35.834375
6690,3.0,,,,,,,-4224.0,,,2,pitchwheel,,,,,68804,35.83541666666667
6691,3.0,,,,,,,-4224.0,,,14,pitchwheel,,,,,68818,35.842708333333334
6692,3.0,,,,,,,-4096.0,,,2,pitchwheel,,,,,68820,35.84375
6693,3.0,,,,,,,-3968.0,,,2,pitchwheel,,,,,68822,35.844791666666666
6694,3.0,,,,,,,-3840.0,,,2,pitchwheel,,,,,68824,35.84583333333333
6695,3.0,,,,,,,-3712.0,,,2,pitchwheel,,,,,68826,35.846875
6696,3.0,,,,,,,-3584.0,,,2,pitchwheel,,,,,68828,35.84791666666666
6697,3.0,,,,,,,-3456.0,,,2,pitchwheel,,,,,68830,35.848958333333336
6698,3.0,,,,,,,-3328.0,,,2,pitchwheel,,,,,68832,35.85
6699,3.0,,,,,,,-3200.0,,,2,pitchwheel,,,,,68834,35.85104166666667
6700,3.0,,,,,,,-3072.0,,,2,pitchwheel,,,,,68836,35.85208333333333
6701,3.0,,,,,,,-2944.0,,,2,pitchwheel,,,,,68838,35.853125
6702,3.0,,,,,,,-2816.0,,,2,pitchwheel,,,,,68840,35.854166666666664
6703,3.0,,,,,,,-2688.0,,,2,pitchwheel,,,,,68842,35.85520833333333
6704,3.0,,,,,,,-2560.0,,,2,pitchwheel,,,,,68844,35.85625
6705,3.0,,,,,,,-2432.0,,,2,pitchwheel,,,,,68846,35.85729166666667
6706,3.0,,,,,,,-2304.0,,,2,pitchwheel,,,,,68848,35.858333333333334
6707,3.0,,,,,,,-2176.0,,,2,pitchwheel,,,,,68850,35.859375
6708,3.0,,,,,,,-2048.0,,,2,pitchwheel,,,,,68852,35.860416666666666
6709,3.0,,,,,,,-1920.0,,,2,pitchwheel,,,,,68854,35.86145833333333
6710,3.0,,,,,,,-1792.0,,,2,pitchwheel,,,,,68856,35.8625
6711,3.0,,,,,,,-1664.0,,,2,pitchwheel,,,,,68858,35.86354166666666
6712,3.0,,,,,,,-1536.0,,,2,pitchwheel,,,,,68860,35.864583333333336
6713,3.0,,,,,,,-1408.0,,,2,pitchwheel,,,,,68862,35.865625
6714,3.0,,,,,,,-1280.0,,,2,pitchwheel,,,,,68864,35.86666666666667
6715,3.0,,,,,,,-1152.0,,,2,pitchwheel,,,,,68866,35.86770833333333
6716,3.0,,,,,,,-1024.0,,,2,pitchwheel,,,,,68868,35.86875
6717,3.0,,,,,,,-896.0,,,2,pitchwheel,,,,,68870,35.869791666666664
6718,3.0,,,,,,,-768.0,,,2,pitchwheel,,,,,68872,35.87083333333333
6719,3.0,,,,,,,-640.0,,,2,pitchwheel,,,,,68874,35.871875
6720,3.0,,,,,,,-512.0,,,2,pitchwheel,,,,,68876,35.87291666666667
6721,3.0,,,,,,,-384.0,,,2,pitchwheel,,,,,68878,35.873958333333334
6722,3.0,,,,,,,-256.0,,,2,pitchwheel,,,,,68880,35.875
6723,3.0,,,,,,,-128.0,,,2,pitchwheel,,,,,68882,35.876041666666666
6724,3.0,,,,,,,0.0,,,2,pitchwheel,,,,,68884,35.87708333333333
6725,3.0,,,,,,,0.0,,,14,pitchwheel,,,,,68898,35.884375
6726,3.0,,,,,,,0.0,,,0,pitchwheel,,,,,68898,35.884375
6727,3.0,,,,,54.0,,,,,0,note_off,,95.0,54.0,95.0,68898,35.884375
6728,3.0,,,,,,,0.0,,,0,pitchwheel,,,,,68898,35.884375
6729,3.0,,,,,61.0,,,,,0,note_on,,95.0,61.0,95.0,68898,35.884375
6730,3.0,,,,,,,-128.0,,,1,pitchwheel,,,,,68899,35.88489583333333
6731,3.0,,,,,,,-256.0,,,1,pitchwheel,,,,,68900,35.885416666666664
6732,3.0,,,,,,,-384.0,,,1,pitchwheel,,,,,68901,35.8859375
6733,3.0,,,,,,,-512.0,,,1,pitchwheel,,,,,68902,35.88645833333333
6734,3.0,,,,,,,-640.0,,,1,pitchwheel,,,,,68903,35.88697916666666
6735,3.0,,,,,,,-768.0,,,1,pitchwheel,,,,,68904,35.8875
6736,3.0,,,,,,,-896.0,,,1,pitchwheel,,,,,68905,35.888020833333336
6737,3.0,,,,,,,-1024.0,,,1,pitchwheel,,,,,68906,35.88854166666667
6738,3.0,,,,,,,-1152.0,,,1,pitchwheel,,,,,68907,35.8890625
6739,3.0,,,,,,,-1280.0,,,1,pitchwheel,,,,,68908,35.889583333333334
6740,3.0,,,,,,,-1408.0,,,1,pitchwheel,,,,,68909,35.89010416666667
6741,3.0,,,,,,,-1536.0,,,1,pitchwheel,,,,,68910,35.890625
6742,3.0,,,,,,,-1664.0,,,1,pitchwheel,,,,,68911,35.89114583333333
6743,3.0,,,,,,,-1792.0,,,1,pitchwheel,,,,,68912,35.891666666666666
6744,3.0,,,,,,,-1920.0,,,1,pitchwheel,,,,,68913,35.8921875
6745,3.0,,,,,,,-2048.0,,,1,pitchwheel,,,,,68914,35.89270833333333
6746,3.0,,,,,,,-2176.0,,,1,pitchwheel,,,,,68915,35.893229166666664
6747,3.0,,,,,,,-2304.0,,,1,pitchwheel,,,,,68916,35.89375
6748,3.0,,,,,,,-2432.0,,,1,pitchwheel,,,,,68917,35.89427083333333
6749,3.0,,,,,,,-2560.0,,,1,pitchwheel,,,,,68918,35.89479166666666
6750,3.0,,,,,,,-2688.0,,,1,pitchwheel,,,,,68919,35.8953125
6751,3.0,,,,,,,-2816.0,,,1,pitchwheel,,,,,68920,35.895833333333336
6752,3.0,,,,,,,-2944.0,,,1,pitchwheel,,,,,68921,35.89635416666667
6753,3.0,,,,,,,-3072.0,,,1,pitchwheel,,,,,68922,35.896875
6754,3.0,,,,,,,-3200.0,,,1,pitchwheel,,,,,68923,35.897395833333334
6755,3.0,,,,,,,-3328.0,,,1,pitchwheel,,,,,68924,35.89791666666667
6756,3.0,,,,,,,-3456.0,,,1,pitchwheel,,,,,68925,35.8984375
6757,3.0,,,,,,,-3584.0,,,1,pitchwheel,,,,,68926,35.89895833333333
6758,3.0,,,,,,,-3712.0,,,1,pitchwheel,,,,,68927,35.899479166666666
6759,3.0,,,,,,,-3840.0,,,1,pitchwheel,,,,,68928,35.9
6760,3.0,,,,,,,-3968.0,,,1,pitchwheel,,,,,68929,35.90052083333333
6761,3.0,,,,,,,-4096.0,,,1,pitchwheel,,,,,68930,35.901041666666664
6762,3.0,,,,,,,-4224.0,,,1,pitchwheel,,,,,68931,35.9015625
6763,3.0,,,,,,,-4352.0,,,1,pitchwheel,,,,,68932,35.90208333333333
6764,3.0,,,,,,,-4480.0,,,1,pitchwheel,,,,,68933,35.90260416666666
6765,3.0,,,,,,,-4608.0,,,1,pitchwheel,,,,,68934,35.903125
6766,3.0,,,,,,,-4736.0,,,1,pitchwheel,,,,,68935,35.903645833333336
6767,3.0,,,,,,,-4864.0,,,1,pitchwheel,,,,,68936,35.90416666666667
6768,3.0,,,,,,,-4992.0,,,1,pitchwheel,,,,,68937,35.9046875
6769,3.0,,,,,,,-5120.0,,,1,pitchwheel,,,,,68938,35.905208333333334
6770,3.0,,,,,,,-5248.0,,,1,pitchwheel,,,,,68939,35.90572916666667
6771,3.0,,,,,,,-5376.0,,,1,pitchwheel,,,,,68940,35.90625
6772,3.0,,,,,,,-5504.0,,,1,pitchwheel,,,,,68941,35.90677083333333
6773,3.0,,,,,,,-5632.0,,,1,pitchwheel,,,,,68942,35.907291666666666
6774,3.0,,,,,,,-5760.0,,,1,pitchwheel,,,,,68943,35.9078125
6775,3.0,,,,,,,-5888.0,,,1,pitchwheel,,,,,68944,35.90833333333333
6776,3.0,,,,,,,-6016.0,,,1,pitchwheel,,,,,68945,35.908854166666664
6777,3.0,,,,,,,-6144.0,,,1,pitchwheel,,,,,68946,35.909375
6778,3.0,,,,,,,-6272.0,,,1,pitchwheel,,,,,68947,35.90989583333333
6779,3.0,,,,,,,-6400.0,,,1,pitchwheel,,,,,68948,35.91041666666666
6780,3.0,,,,,,,-6528.0,,,1,pitchwheel,,,,,68949,35.9109375
6781,3.0,,,,,,,-6656.0,,,1,pitchwheel,,,,,68950,35.911458333333336
6782,3.0,,,,,,,-6784.0,,,1,pitchwheel,,,,,68951,35.91197916666667
6783,3.0,,,,,,,-6912.0,,,1,pitchwheel,,,,,68952,35.9125
6784,3.0,,,,,,,-7040.0,,,1,pitchwheel,,,,,68953,35.913020833333334
6785,3.0,,,,,,,-7040.0,,,25,pitchwheel,,,,,68978,35.92604166666666
6786,3.0,,,,,,,-6912.0,,,1,pitchwheel,,,,,68979,35.9265625
6787,3.0,,,,,,,-6784.0,,,1,pitchwheel,,,,,68980,35.927083333333336
6788,3.0,,,,,,,-6656.0,,,1,pitchwheel,,,,,68981,35.92760416666667
6789,3.0,,,,,,,-6528.0,,,1,pitchwheel,,,,,68982,35.928125
6790,3.0,,,,,,,-6400.0,,,1,pitchwheel,,,,,68983,35.928645833333334
6791,3.0,,,,,,,-6272.0,,,1,pitchwheel,,,,,68984,35.92916666666667
6792,3.0,,,,,,,-6144.0,,,1,pitchwheel,,,,,68985,35.9296875
6793,3.0,,,,,,,-6016.0,,,1,pitchwheel,,,,,68986,35.93020833333333
6794,3.0,,,,,,,-5888.0,,,1,pitchwheel,,,,,68987,35.930729166666666
6795,3.0,,,,,,,-5760.0,,,1,pitchwheel,,,,,68988,35.93125
6796,3.0,,,,,,,-5632.0,,,1,pitchwheel,,,,,68989,35.93177083333333
6797,3.0,,,,,,,-5504.0,,,1,pitchwheel,,,,,68990,35.932291666666664
6798,3.0,,,,,,,-5376.0,,,1,pitchwheel,,,,,68991,35.9328125
6799,3.0,,,,,,,-5248.0,,,1,pitchwheel,,,,,68992,35.93333333333333
6800,3.0,,,,,,,-5120.0,,,1,pitchwheel,,,,,68993,35.93385416666666
6801,3.0,,,,,,,-4992.0,,,1,pitchwheel,,,,,68994,35.934375
6802,3.0,,,,,,,-4864.0,,,1,pitchwheel,,,,,68995,35.934895833333336
6803,3.0,,,,,,,-4736.0,,,1,pitchwheel,,,,,68996,35.93541666666667
6804,3.0,,,,,,,-4608.0,,,1,pitchwheel,,,,,68997,35.9359375
6805,3.0,,,,,,,-4480.0,,,1,pitchwheel,,,,,68998,35.936458333333334
6806,3.0,,,,,,,-4352.0,,,1,pitchwheel,,,,,68999,35.93697916666667
6807,3.0,,,,,,,-4224.0,,,1,pitchwheel,,,,,69000,35.9375
6808,3.0,,,,,,,-4096.0,,,1,pitchwheel,,,,,69001,35.93802083333333
6809,3.0,,,,,,,-3968.0,,,1,pitchwheel,,,,,69002,35.938541666666666
6810,3.0,,,,,,,-3840.0,,,1,pitchwheel,,,,,69003,35.9390625
6811,3.0,,,,,,,-3712.0,,,1,pitchwheel,,,,,69004,35.93958333333333
6812,3.0,,,,,,,-3584.0,,,1,pitchwheel,,,,,69005,35.940104166666664
6813,3.0,,,,,,,-3456.0,,,1,pitchwheel,,,,,69006,35.940625
6814,3.0,,,,,,,-3328.0,,,1,pitchwheel,,,,,69007,35.94114583333333
6815,3.0,,,,,,,-3200.0,,,1,pitchwheel,,,,,69008,35.94166666666666
6816,3.0,,,,,,,-3072.0,,,1,pitchwheel,,,,,69009,35.9421875
6817,3.0,,,,,,,-2944.0,,,1,pitchwheel,,,,,69010,35.942708333333336
6818,3.0,,,,,,,-2816.0,,,1,pitchwheel,,,,,69011,35.94322916666667
6819,3.0,,,,,,,-2688.0,,,1,pitchwheel,,,,,69012,35.94375
6820,3.0,,,,,,,-2560.0,,,1,pitchwheel,,,,,69013,35.944270833333334
6821,3.0,,,,,,,-2432.0,,,1,pitchwheel,,,,,69014,35.94479166666667
6822,3.0,,,,,,,-2304.0,,,1,pitchwheel,,,,,69015,35.9453125
6823,3.0,,,,,,,-2176.0,,,1,pitchwheel,,,,,69016,35.94583333333333
6824,3.0,,,,,,,-2048.0,,,1,pitchwheel,,,,,69017,35.946354166666666
6825,3.0,,,,,,,-1920.0,,,1,pitchwheel,,,,,69018,35.946875
6826,3.0,,,,,,,-1792.0,,,1,pitchwheel,,,,,69019,35.94739583333333
6827,3.0,,,,,,,-1664.0,,,1,pitchwheel,,,,,69020,35.947916666666664
6828,3.0,,,,,,,-1536.0,,,1,pitchwheel,,,,,69021,35.9484375
6829,3.0,,,,,,,-1408.0,,,1,pitchwheel,,,,,69022,35.94895833333333
6830,3.0,,,,,,,-1280.0,,,1,pitchwheel,,,,,69023,35.94947916666666
6831,3.0,,,,,,,-1152.0,,,1,pitchwheel,,,,,69024,35.95
6832,3.0,,,,,,,-1024.0,,,1,pitchwheel,,,,,69025,35.950520833333336
6833,3.0,,,,,,,-896.0,,,1,pitchwheel,,,,,69026,35.95104166666667
6834,3.0,,,,,,,-768.0,,,1,pitchwheel,,,,,69027,35.9515625
6835,3.0,,,,,,,-640.0,,,1,pitchwheel,,,,,69028,35.952083333333334
6836,3.0,,,,,,,-512.0,,,1,pitchwheel,,,,,69029,35.95260416666667
6837,3.0,,,,,,,-384.0,,,1,pitchwheel,,,,,69030,35.953125
6838,3.0,,,,,,,-256.0,,,1,pitchwheel,,,,,69031,35.95364583333333
6839,3.0,,,,,,,-128.0,,,1,pitchwheel,,,,,69032,35.954166666666666
6840,3.0,,,,,,,0.0,,,1,pitchwheel,,,,,69033,35.9546875
6841,3.0,,,,,,,0.0,,,25,pitchwheel,,,,,69058,35.967708333333334
6842,3.0,,,,,,,0.0,,,0,pitchwheel,,,,,69058,35.967708333333334
6843,3.0,,,,,61.0,,,,,0,note_off,,95.0,61.0,95.0,69058,35.967708333333334
6844,3.0,,,,,,,0.0,,,0,pitchwheel,,,,,69058,35.967708333333334
6845,3.0,,,,,59.0,,,,,0,note_on,,95.0,59.0,95.0,69058,35.967708333333334
6846,3.0,,,,,,,-128.0,,,1,pitchwheel,,,,,69059,35.96822916666667
6847,3.0,,,,,,,-256.0,,,1,pitchwheel,,,,,69060,35.96875
6848,3.0,,,,,,,-384.0,,,1,pitchwheel,,,,,69061,35.96927083333333
6849,3.0,,,,,,,-512.0,,,1,pitchwheel,,,,,69062,35.969791666666666
6850,3.0,,,,,,,-640.0,,,1,pitchwheel,,,,,69063,35.9703125
6851,3.0,,,,,,,-768.0,,,1,pitchwheel,,,,,69064,35.97083333333333
6852,3.0,,,,,,,-896.0,,,1,pitchwheel,,,,,69065,35.971354166666664
6853,3.0,,,,,,,-1024.0,,,1,pitchwheel,,,,,69066,35.971875
6854,3.0,,,,,,,-1152.0,,,1,pitchwheel,,,,,69067,35.97239583333333
6855,3.0,,,,,,,-1280.0,,,1,pitchwheel,,,,,69068,35.97291666666666
6856,3.0,,,,,,,-1408.0,,,1,pitchwheel,,,,,69069,35.9734375
6857,3.0,,,,,,,-1536.0,,,1,pitchwheel,,,,,69070,35.973958333333336
6858,3.0,,,,,,,-1664.0,,,1,pitchwheel,,,,,69071,35.97447916666667
6859,3.0,,,,,,,-1792.0,,,1,pitchwheel,,,,,69072,35.975
6860,3.0,,,,,,,-1920.0,,,1,pitchwheel,,,,,69073,35.975520833333334
6861,3.0,,,,,,,-2048.0,,,1,pitchwheel,,,,,69074,35.97604166666667
6862,3.0,,,,,,,-2176.0,,,1,pitchwheel,,,,,69075,35.9765625
6863,3.0,,,,,,,-2304.0,,,1,pitchwheel,,,,,69076,35.97708333333333
6864,3.0,,,,,,,-2432.0,,,1,pitchwheel,,,,,69077,35.977604166666666
6865,3.0,,,,,,,-2560.0,,,1,pitchwheel,,,,,69078,35.978125
6866,3.0,,,,,,,-2688.0,,,1,pitchwheel,,,,,69079,35.97864583333333
6867,3.0,,,,,,,-2816.0,,,1,pitchwheel,,,,,69080,35.979166666666664
6868,3.0,,,,,,,-2944.0,,,1,pitchwheel,,,,,69081,35.9796875
6869,3.0,,,,,,,-3072.0,,,1,pitchwheel,,,,,69082,35.98020833333333
6870,3.0,,,,,,,-3200.0,,,1,pitchwheel,,,,,69083,35.98072916666666
6871,3.0,,,,,,,-3328.0,,,1,pitchwheel,,,,,69084,35.98125
6872,3.0,,,,,,,-3456.0,,,1,pitchwheel,,,,,69085,35.981770833333336
6873,3.0,,,,,,,-3584.0,,,1,pitchwheel,,,,,69086,35.98229166666667
6874,3.0,,,,,,,-3712.0,,,1,pitchwheel,,,,,69087,35.9828125
6875,3.0,,,,,,,-3840.0,,,1,pitchwheel,,,,,69088,35.983333333333334
6876,3.0,,,,,,,-3968.0,,,1,pitchwheel,,,,,69089,35.98385416666667
6877,3.0,,,,,,,-4096.0,,,1,pitchwheel,,,,,69090,35.984375
6878,3.0,,,,,,,-4224.0,,,1,pitchwheel,,,,,69091,35.98489583333333
6879,3.0,,,,,,,-4352.0,,,1,pitchwheel,,,,,69092,35.985416666666666
6880,3.0,,,,,,,-4480.0,,,1,pitchwheel,,,,,69093,35.9859375
6881,3.0,,,,,,,-4608.0,,,1,pitchwheel,,,,,69094,35.98645833333333
6882,3.0,,,,,,,-4736.0,,,1,pitchwheel,,,,,69095,35.986979166666664
6883,3.0,,,,,,,-4864.0,,,1,pitchwheel,,,,,69096,35.9875
6884,3.0,,,,,,,-4992.0,,,1,pitchwheel,,,,,69097,35.98802083333333
6885,3.0,,,,,,,-5120.0,,,1,pitchwheel,,,,,69098,35.98854166666666
6886,3.0,,,,,,,-5248.0,,,1,pitchwheel,,,,,69099,35.9890625
6887,3.0,,,,,,,-5376.0,,,1,pitchwheel,,,,,69100,35.989583333333336
6888,3.0,,,,,,,-5504.0,,,1,pitchwheel,,,,,69101,35.99010416666667
6889,3.0,,,,,,,-5632.0,,,1,pitchwheel,,,,,69102,35.990625
6890,3.0,,,,,,,-5760.0,,,1,pitchwheel,,,,,69103,35.991145833333334
6891,3.0,,,,,,,-5888.0,,,1,pitchwheel,,,,,69104,35.99166666666667
6892,3.0,,,,,,,-6016.0,,,1,pitchwheel,,,,,69105,35.9921875
6893,3.0,,,,,,,-6144.0,,,1,pitchwheel,,,,,69106,35.99270833333333
6894,3.0,,,,,,,-6272.0,,,1,pitchwheel,,,,,69107,35.993229166666666
6895,3.0,,,,,,,-6400.0,,,1,pitchwheel,,,,,69108,35.99375
6896,3.0,,,,,,,-6528.0,,,1,pitchwheel,,,,,69109,35.99427083333333
6897,3.0,,,,,,,-6656.0,,,1,pitchwheel,,,,,69110,35.994791666666664
6898,3.0,,,,,,,-6784.0,,,1,pitchwheel,,,,,69111,35.9953125
6899,3.0,,,,,,,-6912.0,,,1,pitchwheel,,,,,69112,35.99583333333333
6900,3.0,,,,,,,-7040.0,,,1,pitchwheel,,,,,69113,35.99635416666666
6901,3.0,,,,,,,-7040.0,,,25,pitchwheel,,,,,69138,36.009375
6902,3.0,,,,,,,-6912.0,,,1,pitchwheel,,,,,69139,36.00989583333333
6903,3.0,,,,,,,-6784.0,,,1,pitchwheel,,,,,69140,36.010416666666664
6904,3.0,,,,,,,-6656.0,,,1,pitchwheel,,,,,69141,36.0109375
6905,3.0,,,,,,,-6528.0,,,1,pitchwheel,,,,,69142,36.01145833333333
6906,3.0,,,,,,,-6400.0,,,1,pitchwheel,,,,,69143,36.01197916666666
6907,3.0,,,,,,,-6272.0,,,1,pitchwheel,,,,,69144,36.0125
6908,3.0,,,,,,,-6144.0,,,1,pitchwheel,,,,,69145,36.013020833333336
6909,3.0,,,,,,,-6016.0,,,1,pitchwheel,,,,,69146,36.01354166666667
6910,3.0,,,,,,,-5888.0,,,1,pitchwheel,,,,,69147,36.0140625
6911,3.0,,,,,,,-5760.0,,,1,pitchwheel,,,,,69148,36.014583333333334
6912,3.0,,,,,,,-5632.0,,,1,pitchwheel,,,,,69149,36.01510416666667
6913,3.0,,,,,,,-5504.0,,,1,pitchwheel,,,,,69150,36.015625
6914,3.0,,,,,,,-5376.0,,,1,pitchwheel,,,,,69151,36.01614583333333
6915,3.0,,,,,,,-5248.0,,,1,pitchwheel,,,,,69152,36.016666666666666
6916,3.0,,,,,,,-5120.0,,,1,pitchwheel,,,,,69153,36.0171875
6917,3.0,,,,,,,-4992.0,,,1,pitchwheel,,,,,69154,36.01770833333333
6918,3.0,,,,,,,-4864.0,,,1,pitchwheel,,,,,69155,36.018229166666664
6919,3.0,,,,,,,-4736.0,,,1,pitchwheel,,,,,69156,36.01875
6920,3.0,,,,,,,-4608.0,,,1,pitchwheel,,,,,69157,36.01927083333333
6921,3.0,,,,,,,-4480.0,,,1,pitchwheel,,,,,69158,36.01979166666666
6922,3.0,,,,,,,-4352.0,,,1,pitchwheel,,,,,69159,36.0203125
6923,3.0,,,,,,,-4224.0,,,1,pitchwheel,,,,,69160,36.020833333333336
6924,3.0,,,,,,,-4096.0,,,1,pitchwheel,,,,,69161,36.02135416666667
6925,3.0,,,,,,,-3968.0,,,1,pitchwheel,,,,,69162,36.021875
6926,3.0,,,,,,,-3840.0,,,1,pitchwheel,,,,,69163,36.022395833333334
6927,3.0,,,,,,,-3712.0,,,1,pitchwheel,,,,,69164,36.02291666666667
6928,3.0,,,,,,,-3584.0,,,1,pitchwheel,,,,,69165,36.0234375
6929,3.0,,,,,,,-3456.0,,,1,pitchwheel,,,,,69166,36.02395833333333
6930,3.0,,,,,,,-3328.0,,,1,pitchwheel,,,,,69167,36.024479166666666
6931,3.0,,,,,,,-3200.0,,,1,pitchwheel,,,,,69168,36.025
6932,3.0,,,,,,,-3072.0,,,1,pitchwheel,,,,,69169,36.02552083333333
6933,3.0,,,,,,,-2944.0,,,1,pitchwheel,,,,,69170,36.026041666666664
6934,3.0,,,,,,,-2816.0,,,1,pitchwheel,,,,,69171,36.0265625
6935,3.0,,,,,,,-2688.0,,,1,pitchwheel,,,,,69172,36.02708333333333
6936,3.0,,,,,,,-2560.0,,,1,pitchwheel,,,,,69173,36.02760416666666
6937,3.0,,,,,,,-2432.0,,,1,pitchwheel,,,,,69174,36.028125
6938,3.0,,,,,,,-2304.0,,,1,pitchwheel,,,,,69175,36.028645833333336
6939,3.0,,,,,,,-2176.0,,,1,pitchwheel,,,,,69176,36.02916666666667
6940,3.0,,,,,,,-2048.0,,,1,pitchwheel,,,,,69177,36.0296875
6941,3.0,,,,,,,-1920.0,,,1,pitchwheel,,,,,69178,36.030208333333334
6942,3.0,,,,,,,-1792.0,,,1,pitchwheel,,,,,69179,36.03072916666667
6943,3.0,,,,,,,-1664.0,,,1,pitchwheel,,,,,69180,36.03125
6944,3.0,,,,,,,-1536.0,,,1,pitchwheel,,,,,69181,36.03177083333333
6945,3.0,,,,,,,-1408.0,,,1,pitchwheel,,,,,69182,36.032291666666666
6946,3.0,,,,,,,-1280.0,,,1,pitchwheel,,,,,69183,36.0328125
6947,3.0,,,,,,,-1152.0,,,1,pitchwheel,,,,,69184,36.03333333333333
6948,3.0,,,,,,,-1024.0,,,1,pitchwheel,,,,,69185,36.033854166666664
6949,3.0,,,,,,,-896.0,,,1,pitchwheel,,,,,69186,36.034375
6950,3.0,,,,,,,-768.0,,,1,pitchwheel,,,,,69187,36.03489583333333
6951,3.0,,,,,,,-640.0,,,1,pitchwheel,,,,,69188,36.03541666666666
6952,3.0,,,,,,,-512.0,,,1,pitchwheel,,,,,69189,36.0359375
6953,3.0,,,,,,,-384.0,,,1,pitchwheel,,,,,69190,36.036458333333336
6954,3.0,,,,,,,-256.0,,,1,pitchwheel,,,,,69191,36.03697916666667
6955,3.0,,,,,,,-128.0,,,1,pitchwheel,,,,,69192,36.0375
6956,3.0,,,,,,,0.0,,,1,pitchwheel,,,,,69193,36.038020833333334
6957,3.0,,,,,,,0.0,,,25,pitchwheel,,,,,69218,36.05104166666666
6958,3.0,,,,,,,0.0,,,0,pitchwheel,,,,,69218,36.05104166666666
6959,3.0,,,,,59.0,,,,,0,note_off,,95.0,59.0,95.0,69218,36.05104166666666
6960,3.0,,,,,,,0.0,,,0,pitchwheel,,,,,69218,36.05104166666666
6961,3.0,,,,,54.0,,,,,0,note_on,,95.0,54.0,95.0,69218,36.05104166666666
6962,3.0,,,,,,,-128.0,,,1,pitchwheel,,,,,69219,36.0515625
6963,3.0,,,,,,,-256.0,,,1,pitchwheel,,,,,69220,36.052083333333336
6964,3.0,,,,,,,-384.0,,,1,pitchwheel,,,,,69221,36.05260416666667
6965,3.0,,,,,,,-512.0,,,1,pitchwheel,,,,,69222,36.053125
6966,3.0,,,,,,,-640.0,,,1,pitchwheel,,,,,69223,36.053645833333334
6967,3.0,,,,,,,-768.0,,,1,pitchwheel,,,,,69224,36.05416666666667
6968,3.0,,,,,,,-896.0,,,1,pitchwheel,,,,,69225,36.0546875
6969,3.0,,,,,,,-1024.0,,,1,pitchwheel,,,,,69226,36.05520833333333
6970,3.0,,,,,,,-1152.0,,,1,pitchwheel,,,,,69227,36.055729166666666
6971,3.0,,,,,,,-1280.0,,,1,pitchwheel,,,,,69228,36.05625
6972,3.0,,,,,,,-1408.0,,,1,pitchwheel,,,,,69229,36.05677083333333
6973,3.0,,,,,,,-1536.0,,,1,pitchwheel,,,,,69230,36.057291666666664
6974,3.0,,,,,,,-1664.0,,,1,pitchwheel,,,,,69231,36.0578125
6975,3.0,,,,,,,-1792.0,,,1,pitchwheel,,,,,69232,36.05833333333333
6976,3.0,,,,,,,-1920.0,,,1,pitchwheel,,,,,69233,36.05885416666666
6977,3.0,,,,,,,-2048.0,,,1,pitchwheel,,,,,69234,36.059375
6978,3.0,,,,,,,-2176.0,,,1,pitchwheel,,,,,69235,36.059895833333336
6979,3.0,,,,,,,-2304.0,,,1,pitchwheel,,,,,69236,36.06041666666667
6980,3.0,,,,,,,-2432.0,,,1,pitchwheel,,,,,69237,36.0609375
6981,3.0,,,,,,,-2560.0,,,1,pitchwheel,,,,,69238,36.061458333333334
6982,3.0,,,,,,,-2688.0,,,1,pitchwheel,,,,,69239,36.06197916666667
6983,3.0,,,,,,,-2816.0,,,1,pitchwheel,,,,,69240,36.0625
6984,3.0,,,,,,,-2944.0,,,1,pitchwheel,,,,,69241,36.06302083333333
6985,3.0,,,,,,,-3072.0,,,1,pitchwheel,,,,,69242,36.063541666666666
6986,3.0,,,,,,,-3200.0,,,1,pitchwheel,,,,,69243,36.0640625
6987,3.0,,,,,,,-3328.0,,,1,pitchwheel,,,,,69244,36.06458333333333
6988,3.0,,,,,,,-3456.0,,,1,pitchwheel,,,,,69245,36.065104166666664
6989,3.0,,,,,,,-3584.0,,,1,pitchwheel,,,,,69246,36.065625
6990,3.0,,,,,,,-3712.0,,,1,pitchwheel,,,,,69247,36.06614583333333
6991,3.0,,,,,,,-3840.0,,,1,pitchwheel,,,,,69248,36.06666666666666
6992,3.0,,,,,,,-3968.0,,,1,pitchwheel,,,,,69249,36.0671875
6993,3.0,,,,,,,-4096.0,,,1,pitchwheel,,,,,69250,36.067708333333336
6994,3.0,,,,,,,-4224.0,,,1,pitchwheel,,,,,69251,36.06822916666667
6995,3.0,,,,,,,-4352.0,,,1,pitchwheel,,,,,69252,36.06875
6996,3.0,,,,,,,-4480.0,,,1,pitchwheel,,,,,69253,36.069270833333334
6997,3.0,,,,,,,-4608.0,,,1,pitchwheel,,,,,69254,36.06979166666667
6998,3.0,,,,,,,-4736.0,,,1,pitchwheel,,,,,69255,36.0703125
6999,3.0,,,,,,,-4864.0,,,1,pitchwheel,,,,,69256,36.07083333333333
7000,3.0,,,,,,,-4992.0,,,1,pitchwheel,,,,,69257,36.071354166666666
7001,3.0,,,,,,,-5120.0,,,1,pitchwheel,,,,,69258,36.071875
7002,3.0,,,,,,,-5248.0,,,1,pitchwheel,,,,,69259,36.07239583333333
7003,3.0,,,,,,,-5376.0,,,1,pitchwheel,,,,,69260,36.072916666666664
7004,3.0,,,,,,,-5504.0,,,1,pitchwheel,,,,,69261,36.0734375
7005,3.0,,,,,,,-5632.0,,,1,pitchwheel,,,,,69262,36.07395833333333
7006,3.0,,,,,,,-5760.0,,,1,pitchwheel,,,,,69263,36.07447916666666
7007,3.0,,,,,,,-5888.0,,,1,pitchwheel,,,,,69264,36.075
7008,3.0,,,,,,,-6016.0,,,1,pitchwheel,,,,,69265,36.075520833333336
7009,3.0,,,,,,,-6144.0,,,1,pitchwheel,,,,,69266,36.07604166666667
7010,3.0,,,,,,,-6272.0,,,1,pitchwheel,,,,,69267,36.0765625
7011,3.0,,,,,,,-6400.0,,,1,pitchwheel,,,,,69268,36.077083333333334
7012,3.0,,,,,,,-6528.0,,,1,pitchwheel,,,,,69269,36.07760416666667
7013,3.0,,,,,,,-6656.0,,,1,pitchwheel,,,,,69270,36.078125
7014,3.0,,,,,,,-6784.0,,,1,pitchwheel,,,,,69271,36.07864583333333
7015,3.0,,,,,,,-6912.0,,,1,pitchwheel,,,,,69272,36.079166666666666
7016,3.0,,,,,,,-7040.0,,,1,pitchwheel,,,,,69273,36.0796875
7017,3.0,,,,,,,-7040.0,,,25,pitchwheel,,,,,69298,36.092708333333334
7018,3.0,,,,,,,-6912.0,,,1,pitchwheel,,,,,69299,36.09322916666667
7019,3.0,,,,,,,-6784.0,,,1,pitchwheel,,,,,69300,36.09375
7020,3.0,,,,,,,-6656.0,,,1,pitchwheel,,,,,69301,36.09427083333333
7021,3.0,,,,,,,-6528.0,,,1,pitchwheel,,,,,69302,36.094791666666666
7022,3.0,,,,,,,-6400.0,,,1,pitchwheel,,,,,69303,36.0953125
7023,3.0,,,,,,,-6272.0,,,1,pitchwheel,,,,,69304,36.09583333333333
7024,3.0,,,,,,,-6144.0,,,1,pitchwheel,,,,,69305,36.096354166666664
7025,3.0,,,,,,,-6016.0,,,1,pitchwheel,,,,,69306,36.096875
7026,3.0,,,,,,,-5888.0,,,1,pitchwheel,,,,,69307,36.09739583333333
7027,3.0,,,,,,,-5760.0,,,1,pitchwheel,,,,,69308,36.09791666666666
7028,3.0,,,,,,,-5632.0,,,1,pitchwheel,,,,,69309,36.0984375
7029,3.0,,,,,,,-5504.0,,,1,pitchwheel,,,,,69310,36.098958333333336
7030,3.0,,,,,,,-5376.0,,,1,pitchwheel,,,,,69311,36.09947916666667
7031,3.0,,,,,,,-5248.0,,,1,pitchwheel,,,,,69312,36.1
7032,3.0,,,,,,,-5120.0,,,1,pitchwheel,,,,,69313,36.100520833333334
7033,3.0,,,,,,,-4992.0,,,1,pitchwheel,,,,,69314,36.10104166666667
7034,3.0,,,,,,,-4864.0,,,1,pitchwheel,,,,,69315,36.1015625
7035,3.0,,,,,,,-4736.0,,,1,pitchwheel,,,,,69316,36.10208333333333
7036,3.0,,,,,,,-4608.0,,,1,pitchwheel,,,,,69317,36.102604166666666
7037,3.0,,,,,,,-4480.0,,,1,pitchwheel,,,,,69318,36.103125
7038,3.0,,,,,,,-4352.0,,,1,pitchwheel,,,,,69319,36.10364583333333
7039,3.0,,,,,,,-4224.0,,,1,pitchwheel,,,,,69320,36.104166666666664
7040,3.0,,,,,,,-4096.0,,,1,pitchwheel,,,,,69321,36.1046875
7041,3.0,,,,,,,-3968.0,,,1,pitchwheel,,,,,69322,36.10520833333333
7042,3.0,,,,,,,-3840.0,,,1,pitchwheel,,,,,69323,36.10572916666666
7043,3.0,,,,,,,-3712.0,,,1,pitchwheel,,,,,69324,36.10625
7044,3.0,,,,,,,-3584.0,,,1,pitchwheel,,,,,69325,36.106770833333336
7045,3.0,,,,,,,-3456.0,,,1,pitchwheel,,,,,69326,36.10729166666667
7046,3.0,,,,,,,-3328.0,,,1,pitchwheel,,,,,69327,36.1078125
7047,3.0,,,,,,,-3200.0,,,1,pitchwheel,,,,,69328,36.108333333333334
7048,3.0,,,,,,,-3072.0,,,1,pitchwheel,,,,,69329,36.10885416666667
7049,3.0,,,,,,,-2944.0,,,1,pitchwheel,,,,,69330,36.109375
7050,3.0,,,,,,,-2816.0,,,1,pitchwheel,,,,,69331,36.10989583333333
7051,3.0,,,,,,,-2688.0,,,1,pitchwheel,,,,,69332,36.110416666666666
7052,3.0,,,,,,,-2560.0,,,1,pitchwheel,,,,,69333,36.1109375
7053,3.0,,,,,,,-2432.0,,,1,pitchwheel,,,,,69334,36.11145833333333
7054,3.0,,,,,,,-2304.0,,,1,pitchwheel,,,,,69335,36.111979166666664
7055,3.0,,,,,,,-2176.0,,,1,pitchwheel,,,,,69336,36.1125
7056,3.0,,,,,,,-2048.0,,,1,pitchwheel,,,,,69337,36.11302083333333
7057,3.0,,,,,,,-1920.0,,,1,pitchwheel,,,,,69338,36.11354166666666
7058,3.0,,,,,,,-1792.0,,,1,pitchwheel,,,,,69339,36.1140625
7059,3.0,,,,,,,-1664.0,,,1,pitchwheel,,,,,69340,36.114583333333336
7060,3.0,,,,,,,-1536.0,,,1,pitchwheel,,,,,69341,36.11510416666667
7061,3.0,,,,,,,-1408.0,,,1,pitchwheel,,,,,69342,36.115625
7062,3.0,,,,,,,-1280.0,,,1,pitchwheel,,,,,69343,36.116145833333334
7063,3.0,,,,,,,-1152.0,,,1,pitchwheel,,,,,69344,36.11666666666667
7064,3.0,,,,,,,-1024.0,,,1,pitchwheel,,,,,69345,36.1171875
7065,3.0,,,,,,,-896.0,,,1,pitchwheel,,,,,69346,36.11770833333333
7066,3.0,,,,,,,-768.0,,,1,pitchwheel,,,,,69347,36.118229166666666
7067,3.0,,,,,,,-640.0,,,1,pitchwheel,,,,,69348,36.11875
7068,3.0,,,,,,,-512.0,,,1,pitchwheel,,,,,69349,36.11927083333333
7069,3.0,,,,,,,-384.0,,,1,pitchwheel,,,,,69350,36.119791666666664
7070,3.0,,,,,,,-256.0,,,1,pitchwheel,,,,,69351,36.1203125
7071,3.0,,,,,,,-128.0,,,1,pitchwheel,,,,,69352,36.12083333333333
7072,3.0,,,,,,,0.0,,,1,pitchwheel,,,,,69353,36.12135416666666
7073,3.0,,,,,,,0.0,,,25,pitchwheel,,,,,69378,36.134375
7074,3.0,,,,,,,0.0,,,0,pitchwheel,,,,,69378,36.134375
7075,3.0,,,,,54.0,,,,,0,note_off,,95.0,54.0,95.0,69378,36.134375
7076,3.0,,,,,,,0.0,,,0,pitchwheel,,,,,69378,36.134375
7077,3.0,,,,,54.0,,,,,0,note_on,,95.0,54.0,95.0,69378,36.134375
7078,3.0,,,,,,,-128.0,,,17,pitchwheel,,,,,69395,36.143229166666664
7079,3.0,,,,,,,-256.0,,,17,pitchwheel,,,,,69412,36.15208333333333
7080,3.0,,,,,,,-384.0,,,17,pitchwheel,,,,,69429,36.1609375
7081,3.0,,,,,,,-512.0,,,17,pitchwheel,,,,,69446,36.16979166666667
7082,3.0,,,,,,,-640.0,,,17,pitchwheel,,,,,69463,36.178645833333334
7083,3.0,,,,,,,-768.0,,,17,pitchwheel,,,,,69480,36.1875
7084,3.0,,,,,,,-896.0,,,17,pitchwheel,,,,,69497,36.196354166666666
7085,3.0,,,,,,,-1024.0,,,17,pitchwheel,,,,,69514,36.20520833333333
7086,3.0,,,,,,,-1152.0,,,17,pitchwheel,,,,,69531,36.2140625
7087,3.0,,,,,,,-1280.0,,,17,pitchwheel,,,,,69548,36.22291666666666
7088,3.0,,,,,,,-1408.0,,,17,pitchwheel,,,,,69565,36.231770833333336
7089,3.0,,,,,,,-1536.0,,,17,pitchwheel,,,,,69582,36.240625
7090,3.0,,,,,,,-1664.0,,,17,pitchwheel,,,,,69599,36.24947916666667
7091,3.0,,,,,,,-1792.0,,,17,pitchwheel,,,,,69616,36.25833333333333
7092,3.0,,,,,,,-1920.0,,,17,pitchwheel,,,,,69633,36.2671875
7093,3.0,,,,,,,-2048.0,,,17,pitchwheel,,,,,69650,36.276041666666664
7094,3.0,,,,,,,-2176.0,,,17,pitchwheel,,,,,69667,36.28489583333333
7095,3.0,,,,,,,-2304.0,,,17,pitchwheel,,,,,69684,36.29375
7096,3.0,,,,,,,-2432.0,,,17,pitchwheel,,,,,69701,36.30260416666667
7097,3.0,,,,,,,-2560.0,,,17,pitchwheel,,,,,69718,36.311458333333334
7098,3.0,,,,,,,-2688.0,,,17,pitchwheel,,,,,69735,36.3203125
7099,3.0,,,,,,,-2816.0,,,17,pitchwheel,,,,,69752,36.329166666666666
7100,3.0,,,,,,,-2944.0,,,17,pitchwheel,,,,,69769,36.33802083333333
7101,3.0,,,,,,,-3072.0,,,17,pitchwheel,,,,,69786,36.346875
7102,3.0,,,,,,,-3200.0,,,17,pitchwheel,,,,,69803,36.35572916666666
7103,3.0,,,,,,,-3328.0,,,17,pitchwheel,,,,,69820,36.364583333333336
7104,3.0,,,,,,,-3456.0,,,17,pitchwheel,,,,,69837,36.3734375
7105,3.0,,,,,,,-3584.0,,,17,pitchwheel,,,,,69854,36.38229166666667
7106,3.0,,,,,,,-3712.0,,,17,pitchwheel,,,,,69871,36.39114583333333
7107,3.0,,,,,,,-3840.0,,,17,pitchwheel,,,,,69888,36.4
7108,3.0,,,,,,,-3968.0,,,17,pitchwheel,,,,,69905,36.408854166666664
7109,3.0,,,,,,,-4096.0,,,17,pitchwheel,,,,,69922,36.41770833333333
7110,3.0,,,,,,,-4224.0,,,17,pitchwheel,,,,,69939,36.4265625
7111,3.0,,,,,,,-4352.0,,,17,pitchwheel,,,,,69956,36.43541666666667
7112,3.0,,,,,,,-4480.0,,,17,pitchwheel,,,,,69973,36.444270833333334
7113,3.0,,,,,,,-4608.0,,,17,pitchwheel,,,,,69990,36.453125
7114,3.0,,,,,,,-4736.0,,,17,pitchwheel,,,,,70007,36.461979166666666
7115,3.0,,,,,,,-4864.0,,,17,pitchwheel,,,,,70024,36.47083333333333
7116,3.0,,,,,,,-4992.0,,,17,pitchwheel,,,,,70041,36.4796875
7117,3.0,,,,,,,-5120.0,,,17,pitchwheel,,,,,70058,36.48854166666666
7118,3.0,,,,,,,-5248.0,,,17,pitchwheel,,,,,70075,36.497395833333336
7119,3.0,,,,,,,-5376.0,,,17,pitchwheel,,,,,70092,36.50625
7120,3.0,,,,,,,-5504.0,,,17,pitchwheel,,,,,70109,36.51510416666667
7121,3.0,,,,,,,-5632.0,,,17,pitchwheel,,,,,70126,36.52395833333333
7122,3.0,,,,,,,-5760.0,,,17,pitchwheel,,,,,70143,36.5328125
7123,3.0,,,,,,,-5888.0,,,17,pitchwheel,,,,,70160,36.541666666666664
7124,3.0,,,,,,,-6016.0,,,17,pitchwheel,,,,,70177,36.55052083333333
7125,3.0,,,,,,,-6144.0,,,17,pitchwheel,,,,,70194,36.559375
7126,3.0,,,,,,,-6272.0,,,17,pitchwheel,,,,,70211,36.56822916666667
7127,3.0,,,,,,,-6400.0,,,17,pitchwheel,,,,,70228,36.577083333333334
7128,3.0,,,,,,,-6528.0,,,17,pitchwheel,,,,,70245,36.5859375
7129,3.0,,,,,,,-6656.0,,,17,pitchwheel,,,,,70262,36.594791666666666
7130,3.0,,,,,,,-6784.0,,,17,pitchwheel,,,,,70279,36.60364583333333
7131,3.0,,,,,,,-6912.0,,,17,pitchwheel,,,,,70296,36.6125
7132,3.0,,,,,,,-7040.0,,,17,pitchwheel,,,,,70313,36.62135416666666
7133,3.0,,,,,,,-7040.0,,,25,pitchwheel,,,,,70338,36.634375
7134,3.0,,,,,,,-6912.0,,,17,pitchwheel,,,,,70355,36.643229166666664
7135,3.0,,,,,,,-6784.0,,,17,pitchwheel,,,,,70372,36.65208333333333
7136,3.0,,,,,,,-6656.0,,,17,pitchwheel,,,,,70389,36.6609375
7137,3.0,,,,,,,-6528.0,,,17,pitchwheel,,,,,70406,36.66979166666667
7138,3.0,,,,,,,-6400.0,,,17,pitchwheel,,,,,70423,36.678645833333334
7139,3.0,,,,,,,-6272.0,,,17,pitchwheel,,,,,70440,36.6875
7140,3.0,,,,,,,-6144.0,,,17,pitchwheel,,,,,70457,36.696354166666666
7141,3.0,,,,,,,-6016.0,,,17,pitchwheel,,,,,70474,36.70520833333333
7142,3.0,,,,,,,-5888.0,,,17,pitchwheel,,,,,70491,36.7140625
7143,3.0,,,,,,,-5760.0,,,17,pitchwheel,,,,,70508,36.72291666666666
7144,3.0,,,,,,,-5632.0,,,17,pitchwheel,,,,,70525,36.731770833333336
7145,3.0,,,,,,,-5504.0,,,17,pitchwheel,,,,,70542,36.740625
7146,3.0,,,,,,,-5376.0,,,17,pitchwheel,,,,,70559,36.74947916666667
7147,3.0,,,,,,,-5248.0,,,17,pitchwheel,,,,,70576,36.75833333333333
7148,3.0,,,,,,,-5120.0,,,17,pitchwheel,,,,,70593,36.7671875
7149,3.0,,,,,,,-4992.0,,,17,pitchwheel,,,,,70610,36.776041666666664
7150,3.0,,,,,,,-4864.0,,,17,pitchwheel,,,,,70627,36.78489583333333
7151,3.0,,,,,,,-4736.0,,,17,pitchwheel,,,,,70644,36.79375
7152,3.0,,,,,,,-4608.0,,,17,pitchwheel,,,,,70661,36.80260416666667
7153,3.0,,,,,,,-4480.0,,,17,pitchwheel,,,,,70678,36.811458333333334
7154,3.0,,,,,,,-4352.0,,,17,pitchwheel,,,,,70695,36.8203125
7155,3.0,,,,,,,-4224.0,,,17,pitchwheel,,,,,70712,36.829166666666666
7156,3.0,,,,,,,-4096.0,,,17,pitchwheel,,,,,70729,36.83802083333333
7157,3.0,,,,,,,-3968.0,,,17,pitchwheel,,,,,70746,36.846875
7158,3.0,,,,,,,-3840.0,,,17,pitchwheel,,,,,70763,36.85572916666666
7159,3.0,,,,,,,-3712.0,,,17,pitchwheel,,,,,70780,36.864583333333336
7160,3.0,,,,,,,-3584.0,,,17,pitchwheel,,,,,70797,36.8734375
7161,3.0,,,,,,,-3456.0,,,17,pitchwheel,,,,,70814,36.88229166666667
7162,3.0,,,,,,,-3328.0,,,17,pitchwheel,,,,,70831,36.89114583333333
7163,3.0,,,,,,,-3200.0,,,17,pitchwheel,,,,,70848,36.9
7164,3.0,,,,,,,-3072.0,,,17,pitchwheel,,,,,70865,36.908854166666664
7165,3.0,,,,,,,-2944.0,,,17,pitchwheel,,,,,70882,36.91770833333333
7166,3.0,,,,,,,-2816.0,,,17,pitchwheel,,,,,70899,36.9265625
7167,3.0,,,,,,,-2688.0,,,17,pitchwheel,,,,,70916,36.93541666666667
7168,3.0,,,,,,,-2560.0,,,17,pitchwheel,,,,,70933,36.944270833333334
7169,3.0,,,,,,,-2432.0,,,17,pitchwheel,,,,,70950,36.953125
7170,3.0,,,,,,,-2304.0,,,17,pitchwheel,,,,,70967,36.961979166666666
7171,3.0,,,,,,,-2176.0,,,17,pitchwheel,,,,,70984,36.97083333333333
7172,3.0,,,,,,,-2048.0,,,17,pitchwheel,,,,,71001,36.9796875
7173,3.0,,,,,,,-1920.0,,,17,pitchwheel,,,,,71018,36.98854166666666
7174,3.0,,,,,,,-1792.0,,,17,pitchwheel,,,,,71035,36.997395833333336
7175,3.0,,,,,,,-1664.0,,,17,pitchwheel,,,,,71052,37.00625
7176,3.0,,,,,,,-1536.0,,,17,pitchwheel,,,,,71069,37.01510416666667
7177,3.0,,,,,,,-1408.0,,,17,pitchwheel,,,,,71086,37.02395833333333
7178,3.0,,,,,,,-1280.0,,,17,pitchwheel,,,,,71103,37.0328125
7179,3.0,,,,,,,-1152.0,,,17,pitchwheel,,,,,71120,37.041666666666664
7180,3.0,,,,,,,-1024.0,,,17,pitchwheel,,,,,71137,37.05052083333333
7181,3.0,,,,,,,-896.0,,,17,pitchwheel,,,,,71154,37.059375
7182,3.0,,,,,,,-768.0,,,17,pitchwheel,,,,,71171,37.06822916666667
7183,3.0,,,,,,,-640.0,,,17,pitchwheel,,,,,71188,37.077083333333334
7184,3.0,,,,,,,-512.0,,,17,pitchwheel,,,,,71205,37.0859375
7185,3.0,,,,,,,-384.0,,,17,pitchwheel,,,,,71222,37.094791666666666
7186,3.0,,,,,,,-256.0,,,17,pitchwheel,,,,,71239,37.10364583333333
7187,3.0,,,,,,,-128.0,,,17,pitchwheel,,,,,71256,37.1125
7188,3.0,,,,,,,0.0,,,17,pitchwheel,,,,,71273,37.12135416666666
7189,3.0,,,,,,,0.0,,,25,pitchwheel,,,,,71298,37.134375
7190,3.0,,,,,,,0.0,,,0,pitchwheel,,,,,71298,37.134375
7191,3.0,,,,,54.0,,,,,0,note_off,,95.0,54.0,95.0,71298,37.134375
7192,3.0,,,,,,,0.0,,,0,pitchwheel,,,,,71298,37.134375
7193,3.0,,,,,72.0,,,,,0,note_on,,95.0,72.0,95.0,71298,37.134375
7194,3.0,,,,,,,128.0,,,5,pitchwheel,,,,,71303,37.13697916666666
7195,3.0,,,,,,,256.0,,,5,pitchwheel,,,,,71308,37.139583333333334
7196,3.0,,,,,,,384.0,,,5,pitchwheel,,,,,71313,37.1421875
7197,3.0,,,,,,,512.0,,,5,pitchwheel,,,,,71318,37.14479166666666
7198,3.0,,,,,,,640.0,,,5,pitchwheel,,,,,71323,37.147395833333334
7199,3.0,,,,,,,768.0,,,5,pitchwheel,,,,,71328,37.15
7200,3.0,,,,,,,896.0,,,5,pitchwheel,,,,,71333,37.15260416666666
7201,3.0,,,,,,,1024.0,,,5,pitchwheel,,,,,71338,37.155208333333334
7202,3.0,,,,,,,1152.0,,,5,pitchwheel,,,,,71343,37.1578125
7203,3.0,,,,,,,1280.0,,,5,pitchwheel,,,,,71348,37.16041666666666
7204,3.0,,,,,,,1408.0,,,5,pitchwheel,,,,,71353,37.163020833333334
7205,3.0,,,,,,,1408.0,,,5,pitchwheel,,,,,71358,37.165625
7206,3.0,,,,,,,1408.0,,,60,pitchwheel,,,,,71418,37.196875
7207,3.0,,,,,,,0.0,,,0,pitchwheel,,,,,71418,37.196875
7208,3.0,,,,,72.0,,,,,0,note_off,,95.0,72.0,95.0,71418,37.196875
7209,3.0,,,,,,,0.0,,,0,pitchwheel,,,,,71418,37.196875
7210,3.0,,,,,72.0,,,,,0,note_on,,95.0,72.0,95.0,71418,37.196875
7211,3.0,,,,,,,128.0,,,5,pitchwheel,,,,,71423,37.19947916666666
7212,3.0,,,,,,,256.0,,,5,pitchwheel,,,,,71428,37.202083333333334
7213,3.0,,,,,,,384.0,,,5,pitchwheel,,,,,71433,37.2046875
7214,3.0,,,,,,,512.0,,,5,pitchwheel,,,,,71438,37.20729166666666
7215,3.0,,,,,,,640.0,,,5,pitchwheel,,,,,71443,37.209895833333334
7216,3.0,,,,,,,768.0,,,5,pitchwheel,,,,,71448,37.2125
7217,3.0,,,,,,,896.0,,,5,pitchwheel,,,,,71453,37.21510416666666
7218,3.0,,,,,,,1024.0,,,5,pitchwheel,,,,,71458,37.217708333333334
7219,3.0,,,,,,,1152.0,,,5,pitchwheel,,,,,71463,37.2203125
7220,3.0,,,,,,,1280.0,,,5,pitchwheel,,,,,71468,37.22291666666666
7221,3.0,,,,,,,1408.0,,,5,pitchwheel,,,,,71473,37.225520833333334
7222,3.0,,,,,,,1408.0,,,5,pitchwheel,,,,,71478,37.228125
7223,3.0,,,,,,,1408.0,,,60,pitchwheel,,,,,71538,37.259375
7224,3.0,,,,,,,0.0,,,0,pitchwheel,,,,,71538,37.259375
7225,3.0,,,,,72.0,,,,,0,note_off,,95.0,72.0,95.0,71538,37.259375
7226,3.0,,,,,,,0.0,,,0,pitchwheel,,,,,71538,37.259375
7227,3.0,,,,,72.0,,,,,0,note_on,,95.0,72.0,95.0,71538,37.259375
7228,3.0,,,,,,,128.0,,,5,pitchwheel,,,,,71543,37.26197916666666
7229,3.0,,,,,,,256.0,,,5,pitchwheel,,,,,71548,37.264583333333334
7230,3.0,,,,,,,384.0,,,5,pitchwheel,,,,,71553,37.2671875
7231,3.0,,,,,,,512.0,,,5,pitchwheel,,,,,71558,37.26979166666666
7232,3.0,,,,,,,640.0,,,5,pitchwheel,,,,,71563,37.272395833333334
7233,3.0,,,,,,,768.0,,,5,pitchwheel,,,,,71568,37.275
7234,3.0,,,,,,,896.0,,,5,pitchwheel,,,,,71573,37.27760416666666
7235,3.0,,,,,,,1024.0,,,5,pitchwheel,,,,,71578,37.280208333333334
7236,3.0,,,,,,,1152.0,,,5,pitchwheel,,,,,71583,37.2828125
7237,3.0,,,,,,,1280.0,,,5,pitchwheel,,,,,71588,37.28541666666666
7238,3.0,,,,,,,1408.0,,,5,pitchwheel,,,,,71593,37.288020833333334
7239,3.0,,,,,,,1408.0,,,5,pitchwheel,,,,,71598,37.290625
7240,3.0,,,,,,,1408.0,,,60,pitchwheel,,,,,71658,37.321875
7241,3.0,,,,,,,0.0,,,0,pitchwheel,,,,,71658,37.321875
7242,3.0,,,,,72.0,,,,,0,note_off,,95.0,72.0,95.0,71658,37.321875
7243,3.0,,,,,,,0.0,,,0,pitchwheel,,,,,71658,37.321875
7244,3.0,,,,,72.0,,,,,0,note_on,,95.0,72.0,95.0,71658,37.321875
7245,3.0,,,,,,,128.0,,,5,pitchwheel,,,,,71663,37.32447916666666
7246,3.0,,,,,,,256.0,,,5,pitchwheel,,,,,71668,37.327083333333334
7247,3.0,,,,,,,384.0,,,5,pitchwheel,,,,,71673,37.3296875
7248,3.0,,,,,,,512.0,,,5,pitchwheel,,,,,71678,37.33229166666666
7249,3.0,,,,,,,640.0,,,5,pitchwheel,,,,,71683,37.334895833333334
7250,3.0,,,,,,,768.0,,,5,pitchwheel,,,,,71688,37.3375
7251,3.0,,,,,,,896.0,,,5,pitchwheel,,,,,71693,37.34010416666666
7252,3.0,,,,,,,1024.0,,,5,pitchwheel,,,,,71698,37.342708333333334
7253,3.0,,,,,,,1152.0,,,5,pitchwheel,,,,,71703,37.3453125
7254,3.0,,,,,,,1280.0,,,5,pitchwheel,,,,,71708,37.34791666666666
7255,3.0,,,,,,,1408.0,,,5,pitchwheel,,,,,71713,37.350520833333334
7256,3.0,,,,,,,1408.0,,,5,pitchwheel,,,,,71718,37.353125
7257,3.0,,,,,,,1408.0,,,60,pitchwheel,,,,,71778,37.384375
7258,3.0,,,,,,,0.0,,,0,pitchwheel,,,,,71778,37.384375
7259,3.0,,,,,72.0,,,,,0,note_off,,95.0,72.0,95.0,71778,37.384375
7260,3.0,,,,,,,0.0,,,0,pitchwheel,,,,,71778,37.384375
7261,3.0,,,,,72.0,,,,,0,note_on,,95.0,72.0,95.0,71778,37.384375
7262,3.0,,,,,,,128.0,,,65,pitchwheel,,,,,71843,37.41822916666666
7263,3.0,,,,,,,256.0,,,65,pitchwheel,,,,,71908,37.452083333333334
7264,3.0,,,,,,,384.0,,,65,pitchwheel,,,,,71973,37.4859375
7265,3.0,,,,,,,512.0,,,65,pitchwheel,,,,,72038,37.51979166666666
7266,3.0,,,,,,,640.0,,,65,pitchwheel,,,,,72103,37.553645833333334
7267,3.0,,,,,,,768.0,,,65,pitchwheel,,,,,72168,37.5875
7268,3.0,,,,,,,896.0,,,65,pitchwheel,,,,,72233,37.62135416666666
7269,3.0,,,,,,,1024.0,,,65,pitchwheel,,,,,72298,37.655208333333334
7270,3.0,,,,,,,1152.0,,,65,pitchwheel,,,,,72363,37.6890625
7271,3.0,,,,,,,1280.0,,,65,pitchwheel,,,,,72428,37.72291666666666
7272,3.0,,,,,,,1408.0,,,65,pitchwheel,,,,,72493,37.756770833333334
7273,3.0,,,,,,,1408.0,,,5,pitchwheel,,,,,72498,37.759375
7274,3.0,,,,,,,1408.0,,,720,pitchwheel,,,,,73218,38.134375
7275,3.0,,,,,,,0.0,,,0,pitchwheel,,,,,73218,38.134375
7276,3.0,,,,,72.0,,,,,0,note_off,,95.0,72.0,95.0,73218,38.134375
7277,3.0,,,,,,,0.0,,,0,pitchwheel,,,,,73218,38.134375
7278,3.0,,,,,39.0,,,,,0,note_on,,95.0,39.0,95.0,73218,38.134375
7279,3.0,,,,,,,-128.0,,,14,pitchwheel,,,,,73232,38.141666666666666
7280,3.0,,,,,,,-256.0,,,14,pitchwheel,,,,,73246,38.14895833333333
7281,3.0,,,,,,,-384.0,,,14,pitchwheel,,,,,73260,38.15625
7282,3.0,,,,,,,-512.0,,,14,pitchwheel,,,,,73274,38.16354166666667
7283,3.0,,,,,,,-640.0,,,14,pitchwheel,,,,,73288,38.170833333333334
7284,3.0,,,,,,,-768.0,,,14,pitchwheel,,,,,73302,38.178125
7285,3.0,,,,,,,-896.0,,,14,pitchwheel,,,,,73316,38.18541666666667
7286,3.0,,,,,,,-1024.0,,,14,pitchwheel,,,,,73330,38.192708333333336
7287,3.0,,,,,,,-1152.0,,,14,pitchwheel,,,,,73344,38.2
7288,3.0,,,,,,,-1280.0,,,14,pitchwheel,,,,,73358,38.20729166666666
7289,3.0,,,,,,,-1408.0,,,14,pitchwheel,,,,,73372,38.21458333333333
7290,3.0,,,,,,,-1536.0,,,14,pitchwheel,,,,,73386,38.221875
7291,3.0,,,,,,,-1664.0,,,14,pitchwheel,,,,,73400,38.229166666666664
7292,3.0,,,,,,,-1792.0,,,14,pitchwheel,,,,,73414,38.23645833333333
7293,3.0,,,,,,,-1920.0,,,14,pitchwheel,,,,,73428,38.24375
7294,3.0,,,,,,,-2048.0,,,14,pitchwheel,,,,,73442,38.251041666666666
7295,3.0,,,,,,,-2176.0,,,14,pitchwheel,,,,,73456,38.25833333333333
7296,3.0,,,,,,,-2304.0,,,14,pitchwheel,,,,,73470,38.265625
7297,3.0,,,,,,,-2432.0,,,14,pitchwheel,,,,,73484,38.27291666666667
7298,3.0,,,,,,,-2560.0,,,14,pitchwheel,,,,,73498,38.280208333333334
7299,3.0,,,,,,,-2688.0,,,14,pitchwheel,,,,,73512,38.2875
7300,3.0,,,,,,,-2816.0,,,14,pitchwheel,,,,,73526,38.29479166666667
7301,3.0,,,,,,,-2944.0,,,14,pitchwheel,,,,,73540,38.302083333333336
7302,3.0,,,,,,,-3072.0,,,14,pitchwheel,,,,,73554,38.309375
7303,3.0,,,,,,,-3200.0,,,14,pitchwheel,,,,,73568,38.31666666666666
7304,3.0,,,,,,,-3328.0,,,14,pitchwheel,,,,,73582,38.32395833333333
7305,3.0,,,,,,,-3456.0,,,14,pitchwheel,,,,,73596,38.33125
7306,3.0,,,,,,,-3584.0,,,14,pitchwheel,,,,,73610,38.338541666666664
7307,3.0,,,,,,,-3712.0,,,14,pitchwheel,,,,,73624,38.34583333333333
7308,3.0,,,,,,,-3840.0,,,14,pitchwheel,,,,,73638,38.353125
7309,3.0,,,,,,,-3968.0,,,14,pitchwheel,,,,,73652,38.360416666666666
7310,3.0,,,,,,,-4096.0,,,14,pitchwheel,,,,,73666,38.36770833333333
7311,3.0,,,,,,,-4224.0,,,14,pitchwheel,,,,,73680,38.375
7312,3.0,,,,,,,-4352.0,,,14,pitchwheel,,,,,73694,38.38229166666667
7313,3.0,,,,,,,-4480.0,,,14,pitchwheel,,,,,73708,38.389583333333334
7314,3.0,,,,,,,-4608.0,,,14,pitchwheel,,,,,73722,38.396875
7315,3.0,,,,,,,-4736.0,,,14,pitchwheel,,,,,73736,38.40416666666667
7316,3.0,,,,,,,-4864.0,,,14,pitchwheel,,,,,73750,38.411458333333336
7317,3.0,,,,,,,-4992.0,,,14,pitchwheel,,,,,73764,38.41875
7318,3.0,,,,,,,-5120.0,,,14,pitchwheel,,,,,73778,38.42604166666666
7319,3.0,,,,,,,-5248.0,,,14,pitchwheel,,,,,73792,38.43333333333333
7320,3.0,,,,,,,-5376.0,,,14,pitchwheel,,,,,73806,38.440625
7321,3.0,,,,,,,-5504.0,,,14,pitchwheel,,,,,73820,38.447916666666664
7322,3.0,,,,,,,-5632.0,,,14,pitchwheel,,,,,73834,38.45520833333333
7323,3.0,,,,,,,-5760.0,,,14,pitchwheel,,,,,73848,38.4625
7324,3.0,,,,,,,-5888.0,,,14,pitchwheel,,,,,73862,38.469791666666666
7325,3.0,,,,,,,-6016.0,,,14,pitchwheel,,,,,73876,38.47708333333333
7326,3.0,,,,,,,-6144.0,,,14,pitchwheel,,,,,73890,38.484375
7327,3.0,,,,,,,-6272.0,,,14,pitchwheel,,,,,73904,38.49166666666667
7328,3.0,,,,,,,-6400.0,,,14,pitchwheel,,,,,73918,38.498958333333334
7329,3.0,,,,,,,-6528.0,,,14,pitchwheel,,,,,73932,38.50625
7330,3.0,,,,,,,-6656.0,,,14,pitchwheel,,,,,73946,38.51354166666667
7331,3.0,,,,,,,-6784.0,,,14,pitchwheel,,,,,73960,38.520833333333336
7332,3.0,,,,,,,-6912.0,,,14,pitchwheel,,,,,73974,38.528125
7333,3.0,,,,,,,-7040.0,,,14,pitchwheel,,,,,73988,38.53541666666666
7334,3.0,,,,,,,-7168.0,,,14,pitchwheel,,,,,74002,38.54270833333333
7335,3.0,,,,,,,-7296.0,,,14,pitchwheel,,,,,74016,38.55
7336,3.0,,,,,,,-7424.0,,,14,pitchwheel,,,,,74030,38.557291666666664
7337,3.0,,,,,,,-7552.0,,,14,pitchwheel,,,,,74044,38.56458333333333
7338,3.0,,,,,,,-7680.0,,,14,pitchwheel,,,,,74058,38.571875
7339,3.0,,,,,,,-7808.0,,,14,pitchwheel,,,,,74072,38.579166666666666
7340,3.0,,,,,,,-7936.0,,,14,pitchwheel,,,,,74086,38.58645833333333
7341,3.0,,,,,,,-8064.0,,,14,pitchwheel,,,,,74100,38.59375
7342,3.0,,,,,,,-8192.0,,,14,pitchwheel,,,,,74114,38.60104166666667
7343,3.0,,,,,,,-8192.0,,,14,pitchwheel,,,,,74128,38.608333333333334
7344,3.0,,,,,,,-8192.0,,,14,pitchwheel,,,,,74142,38.615625
7345,3.0,,,,,,,-8192.0,,,36,pitchwheel,,,,,74178,38.634375
7346,3.0,,,,,,,-8064.0,,,15,pitchwheel,,,,,74193,38.6421875
7347,3.0,,,,,,,-7936.0,,,15,pitchwheel,,,,,74208,38.65
7348,3.0,,,,,,,-7808.0,,,15,pitchwheel,,,,,74223,38.6578125
7349,3.0,,,,,,,-7680.0,,,15,pitchwheel,,,,,74238,38.665625
7350,3.0,,,,,,,-7552.0,,,15,pitchwheel,,,,,74253,38.6734375
7351,3.0,,,,,,,-7424.0,,,15,pitchwheel,,,,,74268,38.68125
7352,3.0,,,,,,,-7296.0,,,15,pitchwheel,,,,,74283,38.6890625
7353,3.0,,,,,,,-7168.0,,,15,pitchwheel,,,,,74298,38.696875
7354,3.0,,,,,,,-7040.0,,,15,pitchwheel,,,,,74313,38.7046875
7355,3.0,,,,,,,-6912.0,,,15,pitchwheel,,,,,74328,38.7125
7356,3.0,,,,,,,-6784.0,,,15,pitchwheel,,,,,74343,38.7203125
7357,3.0,,,,,,,-6656.0,,,15,pitchwheel,,,,,74358,38.728125
7358,3.0,,,,,,,-6528.0,,,15,pitchwheel,,,,,74373,38.7359375
7359,3.0,,,,,,,-6400.0,,,15,pitchwheel,,,,,74388,38.74375
7360,3.0,,,,,,,-6272.0,,,15,pitchwheel,,,,,74403,38.7515625
7361,3.0,,,,,,,-6144.0,,,15,pitchwheel,,,,,74418,38.759375
7362,3.0,,,,,,,-6016.0,,,15,pitchwheel,,,,,74433,38.7671875
7363,3.0,,,,,,,-5888.0,,,15,pitchwheel,,,,,74448,38.775
7364,3.0,,,,,,,-5760.0,,,15,pitchwheel,,,,,74463,38.7828125
7365,3.0,,,,,,,-5632.0,,,15,pitchwheel,,,,,74478,38.790625
7366,3.0,,,,,,,-5504.0,,,15,pitchwheel,,,,,74493,38.7984375
7367,3.0,,,,,,,-5376.0,,,15,pitchwheel,,,,,74508,38.80625
7368,3.0,,,,,,,-5248.0,,,15,pitchwheel,,,,,74523,38.8140625
7369,3.0,,,,,,,-5120.0,,,15,pitchwheel,,,,,74538,38.821875
7370,3.0,,,,,,,-4992.0,,,15,pitchwheel,,,,,74553,38.8296875
7371,3.0,,,,,,,-4864.0,,,15,pitchwheel,,,,,74568,38.8375
7372,3.0,,,,,,,-4736.0,,,15,pitchwheel,,,,,74583,38.8453125
7373,3.0,,,,,,,-4608.0,,,15,pitchwheel,,,,,74598,38.853125
7374,3.0,,,,,,,-4480.0,,,15,pitchwheel,,,,,74613,38.8609375
7375,3.0,,,,,,,-4352.0,,,15,pitchwheel,,,,,74628,38.86875
7376,3.0,,,,,,,-4224.0,,,15,pitchwheel,,,,,74643,38.8765625
7377,3.0,,,,,,,-4096.0,,,15,pitchwheel,,,,,74658,38.884375
7378,3.0,,,,,,,-3968.0,,,15,pitchwheel,,,,,74673,38.8921875
7379,3.0,,,,,,,-3840.0,,,15,pitchwheel,,,,,74688,38.9
7380,3.0,,,,,,,-3712.0,,,15,pitchwheel,,,,,74703,38.9078125
7381,3.0,,,,,,,-3584.0,,,15,pitchwheel,,,,,74718,38.915625
7382,3.0,,,,,,,-3456.0,,,15,pitchwheel,,,,,74733,38.9234375
7383,3.0,,,,,,,-3328.0,,,15,pitchwheel,,,,,74748,38.93125
7384,3.0,,,,,,,-3200.0,,,15,pitchwheel,,,,,74763,38.9390625
7385,3.0,,,,,,,-3072.0,,,15,pitchwheel,,,,,74778,38.946875
7386,3.0,,,,,,,-2944.0,,,15,pitchwheel,,,,,74793,38.9546875
7387,3.0,,,,,,,-2816.0,,,15,pitchwheel,,,,,74808,38.9625
7388,3.0,,,,,,,-2688.0,,,15,pitchwheel,,,,,74823,38.9703125
7389,3.0,,,,,,,-2560.0,,,15,pitchwheel,,,,,74838,38.978125
7390,3.0,,,,,,,-2432.0,,,15,pitchwheel,,,,,74853,38.9859375
7391,3.0,,,,,,,-2304.0,,,15,pitchwheel,,,,,74868,38.99375
7392,3.0,,,,,,,-2176.0,,,15,pitchwheel,,,,,74883,39.0015625
7393,3.0,,,,,,,-2048.0,,,15,pitchwheel,,,,,74898,39.009375
7394,3.0,,,,,,,-1920.0,,,15,pitchwheel,,,,,74913,39.0171875
7395,3.0,,,,,,,-1792.0,,,15,pitchwheel,,,,,74928,39.025
7396,3.0,,,,,,,-1664.0,,,15,pitchwheel,,,,,74943,39.0328125
7397,3.0,,,,,,,-1536.0,,,15,pitchwheel,,,,,74958,39.040625
7398,3.0,,,,,,,-1408.0,,,15,pitchwheel,,,,,74973,39.0484375
7399,3.0,,,,,,,-1280.0,,,15,pitchwheel,,,,,74988,39.05625
7400,3.0,,,,,,,-1152.0,,,15,pitchwheel,,,,,75003,39.0640625
7401,3.0,,,,,,,-1024.0,,,15,pitchwheel,,,,,75018,39.071875
7402,3.0,,,,,,,-896.0,,,15,pitchwheel,,,,,75033,39.0796875
7403,3.0,,,,,,,-768.0,,,15,pitchwheel,,,,,75048,39.0875
7404,3.0,,,,,,,-640.0,,,15,pitchwheel,,,,,75063,39.0953125
7405,3.0,,,,,,,-512.0,,,15,pitchwheel,,,,,75078,39.103125
7406,3.0,,,,,,,-384.0,,,15,pitchwheel,,,,,75093,39.1109375
7407,3.0,,,,,,,-256.0,,,15,pitchwheel,,,,,75108,39.11875
7408,3.0,,,,,,,-128.0,,,15,pitchwheel,,,,,75123,39.1265625
7409,3.0,,,,,,,0.0,,,15,pitchwheel,,,,,75138,39.134375
7410,3.0,,,,,,,0.0,,,0,pitchwheel,,,,,75138,39.134375
7411,3.0,,,,,,,0.0,,,0,pitchwheel,,,,,75138,39.134375
7412,3.0,,,,,39.0,,,,,0,note_off,,95.0,39.0,95.0,75138,39.134375
7413,3.0,,,,,,,0.0,,,0,pitchwheel,,,,,75138,39.134375
7414,3.0,,,,,59.0,,,,,0,note_on,,95.0,59.0,95.0,75138,39.134375
7415,3.0,,,,,,,-128.0,,,43,pitchwheel,,,,,75181,39.15677083333333
7416,3.0,,,,,,,-256.0,,,43,pitchwheel,,,,,75224,39.17916666666667
7417,3.0,,,,,,,-384.0,,,43,pitchwheel,,,,,75267,39.2015625
7418,3.0,,,,,,,-512.0,,,43,pitchwheel,,,,,75310,39.223958333333336
7419,3.0,,,,,,,-640.0,,,43,pitchwheel,,,,,75353,39.24635416666666
7420,3.0,,,,,,,-768.0,,,43,pitchwheel,,,,,75396,39.26875
7421,3.0,,,,,,,-896.0,,,43,pitchwheel,,,,,75439,39.29114583333333
7422,3.0,,,,,,,-1024.0,,,43,pitchwheel,,,,,75482,39.313541666666666
7423,3.0,,,,,,,-1152.0,,,43,pitchwheel,,,,,75525,39.3359375
7424,3.0,,,,,,,-1280.0,,,43,pitchwheel,,,,,75568,39.358333333333334
7425,3.0,,,,,,,-1408.0,,,43,pitchwheel,,,,,75611,39.38072916666667
7426,3.0,,,,,,,-1536.0,,,43,pitchwheel,,,,,75654,39.403125
7427,3.0,,,,,,,-1664.0,,,43,pitchwheel,,,,,75697,39.42552083333333
7428,3.0,,,,,,,-1792.0,,,43,pitchwheel,,,,,75740,39.447916666666664
7429,3.0,,,,,,,-1920.0,,,43,pitchwheel,,,,,75783,39.4703125
7430,3.0,,,,,,,-2048.0,,,43,pitchwheel,,,,,75826,39.49270833333333
7431,3.0,,,,,,,-2176.0,,,43,pitchwheel,,,,,75869,39.51510416666667
7432,3.0,,,,,,,-2304.0,,,43,pitchwheel,,,,,75912,39.5375
7433,3.0,,,,,,,-2432.0,,,43,pitchwheel,,,,,75955,39.559895833333336
7434,3.0,,,,,,,-2560.0,,,43,pitchwheel,,,,,75998,39.58229166666666
7435,3.0,,,,,,,-2688.0,,,43,pitchwheel,,,,,76041,39.6046875
7436,3.0,,,,,,,-2816.0,,,43,pitchwheel,,,,,76084,39.62708333333333
7437,3.0,,,,,,,-2944.0,,,43,pitchwheel,,,,,76127,39.649479166666666
7438,3.0,,,,,,,-3072.0,,,43,pitchwheel,,,,,76170,39.671875
7439,3.0,,,,,,,-3200.0,,,43,pitchwheel,,,,,76213,39.694270833333334
7440,3.0,,,,,,,-3328.0,,,43,pitchwheel,,,,,76256,39.71666666666667
7441,3.0,,,,,,,-3456.0,,,43,pitchwheel,,,,,76299,39.7390625
7442,3.0,,,,,,,-3584.0,,,43,pitchwheel,,,,,76342,39.76145833333333
7443,3.0,,,,,,,-3712.0,,,43,pitchwheel,,,,,76385,39.783854166666664
7444,3.0,,,,,,,-3840.0,,,43,pitchwheel,,,,,76428,39.80625
7445,3.0,,,,,,,-3968.0,,,43,pitchwheel,,,,,76471,39.82864583333333
7446,3.0,,,,,,,-4096.0,,,43,pitchwheel,,,,,76514,39.85104166666667
7447,3.0,,,,,,,-4224.0,,,43,pitchwheel,,,,,76557,39.8734375
7448,3.0,,,,,,,-4352.0,,,43,pitchwheel,,,,,76600,39.895833333333336
7449,3.0,,,,,,,-4480.0,,,43,pitchwheel,,,,,76643,39.91822916666666
7450,3.0,,,,,,,-4608.0,,,43,pitchwheel,,,,,76686,39.940625
7451,3.0,,,,,,,-4736.0,,,43,pitchwheel,,,,,76729,39.96302083333333
7452,3.0,,,,,,,-4864.0,,,43,pitchwheel,,,,,76772,39.985416666666666
7453,3.0,,,,,,,-4992.0,,,43,pitchwheel,,,,,76815,40.0078125
7454,3.0,,,,,,,-5120.0,,,43,pitchwheel,,,,,76858,40.030208333333334
7455,3.0,,,,,,,-5248.0,,,43,pitchwheel,,,,,76901,40.05260416666667
7456,3.0,,,,,,,-5376.0,,,43,pitchwheel,,,,,76944,40.075
7457,3.0,,,,,,,-5504.0,,,43,pitchwheel,,,,,76987,40.09739583333333
7458,3.0,,,,,,,-5632.0,,,43,pitchwheel,,,,,77030,40.119791666666664
7459,3.0,,,,,,,-5760.0,,,43,pitchwheel,,,,,77073,40.1421875
7460,3.0,,,,,,,-5888.0,,,43,pitchwheel,,,,,77116,40.16458333333333
7461,3.0,,,,,,,-6016.0,,,43,pitchwheel,,,,,77159,40.18697916666667
7462,3.0,,,,,,,-6144.0,,,43,pitchwheel,,,,,77202,40.209375
7463,3.0,,,,,,,-6272.0,,,43,pitchwheel,,,,,77245,40.231770833333336
7464,3.0,,,,,,,-6400.0,,,43,pitchwheel,,,,,77288,40.25416666666666
7465,3.0,,,,,,,-6528.0,,,43,pitchwheel,,,,,77331,40.2765625
7466,3.0,,,,,,,-6656.0,,,43,pitchwheel,,,,,77374,40.29895833333333
7467,3.0,,,,,,,-6784.0,,,43,pitchwheel,,,,,77417,40.321354166666666
7468,3.0,,,,,,,-6912.0,,,43,pitchwheel,,,,,77460,40.34375
7469,3.0,,,,,,,-7040.0,,,43,pitchwheel,,,,,77503,40.366145833333334
7470,3.0,,,,,,,-7168.0,,,43,pitchwheel,,,,,77546,40.38854166666667
7471,3.0,,,,,,,-7296.0,,,43,pitchwheel,,,,,77589,40.4109375
7472,3.0,,,,,,,-7424.0,,,43,pitchwheel,,,,,77632,40.43333333333333
7473,3.0,,,,,,,-7552.0,,,43,pitchwheel,,,,,77675,40.455729166666664
7474,3.0,,,,,,,-7680.0,,,43,pitchwheel,,,,,77718,40.478125
7475,3.0,,,,,,,-7808.0,,,43,pitchwheel,,,,,77761,40.50052083333333
7476,3.0,,,,,,,-7936.0,,,43,pitchwheel,,,,,77804,40.52291666666667
7477,3.0,,,,,,,-8064.0,,,43,pitchwheel,,,,,77847,40.5453125
7478,3.0,,,,,,,-8192.0,,,43,pitchwheel,,,,,77890,40.567708333333336
7479,3.0,,,,,,,-8192.0,,,43,pitchwheel,,,,,77933,40.59010416666666
7480,3.0,,,,,,,-8192.0,,,43,pitchwheel,,,,,77976,40.6125
7481,3.0,,,,,,,-8192.0,,,42,pitchwheel,,,,,78018,40.634375
7482,3.0,,,,,,,-8064.0,,,45,pitchwheel,,,,,78063,40.6578125
7483,3.0,,,,,,,-7936.0,,,45,pitchwheel,,,,,78108,40.68125
7484,3.0,,,,,,,-7808.0,,,45,pitchwheel,,,,,78153,40.7046875
7485,3.0,,,,,,,-7680.0,,,45,pitchwheel,,,,,78198,40.728125
7486,3.0,,,,,,,-7552.0,,,45,pitchwheel,,,,,78243,40.7515625
7487,3.0,,,,,,,-7424.0,,,45,pitchwheel,,,,,78288,40.775
7488,3.0,,,,,,,-7296.0,,,45,pitchwheel,,,,,78333,40.7984375
7489,3.0,,,,,,,-7168.0,,,45,pitchwheel,,,,,78378,40.821875
7490,3.0,,,,,,,-7040.0,,,45,pitchwheel,,,,,78423,40.8453125
7491,3.0,,,,,,,-6912.0,,,45,pitchwheel,,,,,78468,40.86875
7492,3.0,,,,,,,-6784.0,,,45,pitchwheel,,,,,78513,40.8921875
7493,3.0,,,,,,,-6656.0,,,45,pitchwheel,,,,,78558,40.915625
7494,3.0,,,,,,,-6528.0,,,45,pitchwheel,,,,,78603,40.9390625
7495,3.0,,,,,,,-6400.0,,,45,pitchwheel,,,,,78648,40.9625
7496,3.0,,,,,,,-6272.0,,,45,pitchwheel,,,,,78693,40.9859375
7497,3.0,,,,,,,-6144.0,,,45,pitchwheel,,,,,78738,41.009375
7498,3.0,,,,,,,-6016.0,,,45,pitchwheel,,,,,78783,41.0328125
7499,3.0,,,,,,,-5888.0,,,45,pitchwheel,,,,,78828,41.05625
7500,3.0,,,,,,,-5760.0,,,45,pitchwheel,,,,,78873,41.0796875
7501,3.0,,,,,,,-5632.0,,,45,pitchwheel,,,,,78918,41.103125
7502,3.0,,,,,,,-5504.0,,,45,pitchwheel,,,,,78963,41.1265625
7503,3.0,,,,,,,-5376.0,,,45,pitchwheel,,,,,79008,41.15
7504,3.0,,,,,,,-5248.0,,,45,pitchwheel,,,,,79053,41.1734375
7505,3.0,,,,,,,-5120.0,,,45,pitchwheel,,,,,79098,41.196875
7506,3.0,,,,,,,-4992.0,,,45,pitchwheel,,,,,79143,41.2203125
7507,3.0,,,,,,,-4864.0,,,45,pitchwheel,,,,,79188,41.24375
7508,3.0,,,,,,,-4736.0,,,45,pitchwheel,,,,,79233,41.2671875
7509,3.0,,,,,,,-4608.0,,,45,pitchwheel,,,,,79278,41.290625
7510,3.0,,,,,,,-4480.0,,,45,pitchwheel,,,,,79323,41.3140625
7511,3.0,,,,,,,-4352.0,,,45,pitchwheel,,,,,79368,41.3375
7512,3.0,,,,,,,-4224.0,,,45,pitchwheel,,,,,79413,41.3609375
7513,3.0,,,,,,,-4096.0,,,45,pitchwheel,,,,,79458,41.384375
7514,3.0,,,,,,,-3968.0,,,45,pitchwheel,,,,,79503,41.4078125
7515,3.0,,,,,,,-3840.0,,,45,pitchwheel,,,,,79548,41.43125
7516,3.0,,,,,,,-3712.0,,,45,pitchwheel,,,,,79593,41.4546875
7517,3.0,,,,,,,-3584.0,,,45,pitchwheel,,,,,79638,41.478125
7518,3.0,,,,,,,-3456.0,,,45,pitchwheel,,,,,79683,41.5015625
7519,3.0,,,,,,,-3328.0,,,45,pitchwheel,,,,,79728,41.525
7520,3.0,,,,,,,-3200.0,,,45,pitchwheel,,,,,79773,41.5484375
7521,3.0,,,,,,,-3072.0,,,45,pitchwheel,,,,,79818,41.571875
7522,3.0,,,,,,,-2944.0,,,45,pitchwheel,,,,,79863,41.5953125
7523,3.0,,,,,,,-2816.0,,,45,pitchwheel,,,,,79908,41.61875
7524,3.0,,,,,,,-2688.0,,,45,pitchwheel,,,,,79953,41.6421875
7525,3.0,,,,,,,-2560.0,,,45,pitchwheel,,,,,79998,41.665625
7526,3.0,,,,,,,-2432.0,,,45,pitchwheel,,,,,80043,41.6890625
7527,3.0,,,,,,,-2304.0,,,45,pitchwheel,,,,,80088,41.7125
7528,3.0,,,,,,,-2176.0,,,45,pitchwheel,,,,,80133,41.7359375
7529,3.0,,,,,,,-2048.0,,,45,pitchwheel,,,,,80178,41.759375
7530,3.0,,,,,,,-1920.0,,,45,pitchwheel,,,,,80223,41.7828125
7531,3.0,,,,,,,-1792.0,,,45,pitchwheel,,,,,80268,41.80625
7532,3.0,,,,,,,-1664.0,,,45,pitchwheel,,,,,80313,41.8296875
7533,3.0,,,,,,,-1536.0,,,45,pitchwheel,,,,,80358,41.853125
7534,3.0,,,,,,,-1408.0,,,45,pitchwheel,,,,,80403,41.8765625
7535,3.0,,,,,,,-1280.0,,,45,pitchwheel,,,,,80448,41.9
7536,3.0,,,,,,,-1152.0,,,45,pitchwheel,,,,,80493,41.9234375
7537,3.0,,,,,,,-1024.0,,,45,pitchwheel,,,,,80538,41.946875
7538,3.0,,,,,,,-896.0,,,45,pitchwheel,,,,,80583,41.9703125
7539,3.0,,,,,,,-768.0,,,45,pitchwheel,,,,,80628,41.99375
7540,3.0,,,,,,,-640.0,,,45,pitchwheel,,,,,80673,42.0171875
7541,3.0,,,,,,,-512.0,,,45,pitchwheel,,,,,80718,42.040625
7542,3.0,,,,,,,-384.0,,,45,pitchwheel,,,,,80763,42.0640625
7543,3.0,,,,,,,-256.0,,,45,pitchwheel,,,,,80808,42.0875
7544,3.0,,,,,,,-128.0,,,45,pitchwheel,,,,,80853,42.1109375
7545,3.0,,,,,,,0.0,,,45,pitchwheel,,,,,80898,42.134375
7546,3.0,,,,,,,0.0,,,0,pitchwheel,,,,,80898,42.134375
7547,3.0,,,,,,,0.0,,,0,pitchwheel,,,,,80898,42.134375
7548,3.0,,,,,59.0,,,,,0,note_off,,95.0,59.0,95.0,80898,42.134375
7549,2.0,,,,,58.0,,,,,0,note_on,,95.0,58.0,95.0,241662,125.865625
7550,2.0,,,,,58.0,,,,,55,note_off,,95.0,58.0,95.0,241717,125.89427083333334
7551,2.0,,,,,49.0,,,,,905,note_on,,95.0,49.0,95.0,242622,126.365625
7552,2.0,,,,,44.0,,,,,0,note_on,,95.0,44.0,95.0,242622,126.365625
7553,2.0,,,,,39.0,,,,,0,note_on,,95.0,39.0,95.0,242622,126.365625
7554,2.0,,,,,49.0,,,,,55,note_off,,95.0,49.0,95.0,242677,126.39427083333334
7555,2.0,,,,,44.0,,,,,0,note_off,,95.0,44.0,95.0,242677,126.39427083333334
7556,2.0,,,,,39.0,,,,,0,note_off,,95.0,39.0,95.0,242677,126.39427083333334
7557,2.0,,,,,58.0,,,,,905,note_on,,95.0,58.0,95.0,243582,126.865625
7558,2.0,,,,,58.0,,,,,55,note_off,,95.0,58.0,95.0,243637,126.89427083333334
7559,2.0,,,,,49.0,,,,,905,note_on,,95.0,49.0,95.0,244542,127.365625
7560,2.0,,,,,44.0,,,,,0,note_on,,95.0,44.0,95.0,244542,127.365625
7561,2.0,,,,,39.0,,,,,0,note_on,,95.0,39.0,95.0,244542,127.365625
7562,2.0,,,,,49.0,,,,,55,note_off,,95.0,49.0,95.0,244597,127.39427083333334
7563,2.0,,,,,44.0,,,,,0,note_off,,95.0,44.0,95.0,244597,127.39427083333334
7564,2.0,,,,,39.0,,,,,0,note_off,,95.0,39.0,95.0,244597,127.39427083333334
7565,3.0,,,,,,,0.0,,,905,pitchwheel,,,,,81803,42.60572916666666
7566,3.0,,,,,61.0,,,,,0,note_on,,95.0,61.0,95.0,81803,42.60572916666666
7567,3.0,,,,,,,128.0,,,65,pitchwheel,,,,,81868,42.639583333333334
7568,3.0,,,,,,,256.0,,,65,pitchwheel,,,,,81933,42.6734375
7569,3.0,,,,,,,384.0,,,65,pitchwheel,,,,,81998,42.70729166666666
7570,3.0,,,,,,,512.0,,,65,pitchwheel,,,,,82063,42.741145833333334
7571,3.0,,,,,,,640.0,,,65,pitchwheel,,,,,82128,42.775
7572,3.0,,,,,,,768.0,,,65,pitchwheel,,,,,82193,42.80885416666666
7573,3.0,,,,,,,896.0,,,65,pitchwheel,,,,,82258,42.842708333333334
7574,3.0,,,,,,,1024.0,,,65,pitchwheel,,,,,82323,42.8765625
7575,3.0,,,,,,,1152.0,,,65,pitchwheel,,,,,82388,42.91041666666666
7576,3.0,,,,,,,1280.0,,,65,pitchwheel,,,,,82453,42.944270833333334
7577,3.0,,,,,,,1408.0,,,65,pitchwheel,,,,,82518,42.978125
7578,3.0,,,,,,,1408.0,,,5,pitchwheel,,,,,82523,42.98072916666666
7579,3.0,,,,,,,1408.0,,,720,pitchwheel,,,,,83243,43.35572916666666
7580,3.0,,,,,,,0.0,,,0,pitchwheel,,,,,83243,43.35572916666666
7581,3.0,,,,,61.0,,,,,0,note_off,,95.0,61.0,95.0,83243,43.35572916666666
7582,3.0,,,,,,,0.0,,,0,pitchwheel,,,,,83243,43.35572916666666
7583,3.0,,,,,61.0,,,,,0,note_on,,95.0,61.0,95.0,83243,43.35572916666666
7584,3.0,,,,,,,128.0,,,3,pitchwheel,,,,,83246,43.35729166666667
7585,3.0,,,,,,,256.0,,,3,pitchwheel,,,,,83249,43.35885416666667
7586,3.0,,,,,,,384.0,,,3,pitchwheel,,,,,83252,43.360416666666666
7587,3.0,,,,,,,512.0,,,3,pitchwheel,,,,,83255,43.361979166666664
7588,3.0,,,,,,,640.0,,,3,pitchwheel,,,,,83258,43.36354166666666
7589,3.0,,,,,,,768.0,,,3,pitchwheel,,,,,83261,43.36510416666667
7590,3.0,,,,,,,896.0,,,3,pitchwheel,,,,,83264,43.36666666666667
7591,3.0,,,,,,,1024.0,,,3,pitchwheel,,,,,83267,43.368229166666666
7592,3.0,,,,,,,1152.0,,,3,pitchwheel,,,,,83270,43.369791666666664
7593,3.0,,,,,,,1280.0,,,3,pitchwheel,,,,,83273,43.37135416666666
7594,3.0,,,,,,,1408.0,,,3,pitchwheel,,,,,83276,43.37291666666667
7595,3.0,,,,,,,1408.0,,,7,pitchwheel,,,,,83283,43.3765625
7596,3.0,,,,,,,1408.0,,,40,pitchwheel,,,,,83323,43.397395833333334
7597,3.0,,,,,,,1280.0,,,3,pitchwheel,,,,,83326,43.39895833333333
7598,3.0,,,,,,,1152.0,,,3,pitchwheel,,,,,83329,43.40052083333333
7599,3.0,,,,,,,1024.0,,,3,pitchwheel,,,,,83332,43.40208333333333
7600,3.0,,,,,,,896.0,,,3,pitchwheel,,,,,83335,43.403645833333336
7601,3.0,,,,,,,768.0,,,3,pitchwheel,,,,,83338,43.405208333333334
7602,3.0,,,,,,,640.0,,,3,pitchwheel,,,,,83341,43.40677083333333
7603,3.0,,,,,,,512.0,,,3,pitchwheel,,,,,83344,43.40833333333333
7604,3.0,,,,,,,384.0,,,3,pitchwheel,,,,,83347,43.40989583333333
7605,3.0,,,,,,,256.0,,,3,pitchwheel,,,,,83350,43.411458333333336
7606,3.0,,,,,,,128.0,,,3,pitchwheel,,,,,83353,43.413020833333334
7607,3.0,,,,,,,0.0,,,3,pitchwheel,,,,,83356,43.41458333333333
7608,3.0,,,,,,,0.0,,,7,pitchwheel,,,,,83363,43.41822916666666
7609,3.0,,,,,,,0.0,,,40,pitchwheel,,,,,83403,43.4390625
7610,3.0,,,,,,,0.0,,,0,pitchwheel,,,,,83403,43.4390625
7611,3.0,,,,,61.0,,,,,0,note_off,,95.0,61.0,95.0,83403,43.4390625
7612,2.0,,,,,61.0,,,,,0,note_on,,95.0,61.0,95.0,244597,127.39427083333334
7613,2.0,,,,,61.0,,,,,160,note_off,,95.0,61.0,95.0,244757,127.47760416666667
7614,2.0,,,,,59.0,,,,,0,note_on,,95.0,59.0,95.0,244757,127.47760416666667
7615,2.0,,,,,59.0,,,,,160,note_off,,95.0,59.0,95.0,244917,127.5609375
7616,3.0,,,,,,,0.0,,,0,pitchwheel,,,,,83403,43.4390625
7617,3.0,,,,,85.0,,,,,0,note_on,,95.0,85.0,95.0,83403,43.4390625
7618,3.0,,,,,,,128.0,,,87,pitchwheel,,,,,83490,43.484375
7619,3.0,,,,,,,256.0,,,87,pitchwheel,,,,,83577,43.5296875
7620,3.0,,,,,,,384.0,,,87,pitchwheel,,,,,83664,43.575
7621,3.0,,,,,,,512.0,,,87,pitchwheel,,,,,83751,43.6203125
7622,3.0,,,,,,,640.0,,,87,pitchwheel,,,,,83838,43.665625
7623,3.0,,,,,,,768.0,,,87,pitchwheel,,,,,83925,43.7109375
7624,3.0,,,,,,,896.0,,,87,pitchwheel,,,,,84012,43.75625
7625,3.0,,,,,,,1024.0,,,87,pitchwheel,,,,,84099,43.8015625
7626,3.0,,,,,,,1152.0,,,87,pitchwheel,,,,,84186,43.846875
7627,3.0,,,,,,,1280.0,,,87,pitchwheel,,,,,84273,43.8921875
7628,3.0,,,,,,,1408.0,,,87,pitchwheel,,,,,84360,43.9375
7629,3.0,,,,,,,1408.0,,,3,pitchwheel,,,,,84363,43.9390625
7630,3.0,,,,,,,1408.0,,,960,pitchwheel,,,,,85323,44.4390625
7631,3.0,,,,,,,0.0,,,0,pitchwheel,,,,,85323,44.4390625
7632,3.0,,,,,85.0,,,,,0,note_off,,95.0,85.0,95.0,85323,44.4390625
7633,2.0,,,,,48.0,,,,,0,note_on,,95.0,48.0,95.0,244917,127.5609375
7634,2.0,,,,,41.0,,,,,0,note_on,,95.0,41.0,95.0,244917,127.5609375
7635,2.0,,,,,48.0,,,,,2880,note_off,,95.0,48.0,95.0,247797,129.0609375
7636,2.0,,,,,41.0,,,,,0,note_off,,95.0,41.0,95.0,247797,129.0609375
7637,2.0,,,,,49.0,,,,,0,note_on,,95.0,49.0,95.0,247797,129.0609375
7638,2.0,,,,,42.0,,,,,0,note_on,,95.0,42.0,95.0,247797,129.0609375
7639,2.0,,,,,49.0,,,,,960,note_off,,95.0,49.0,95.0,248757,129.5609375
7640,2.0,,,,,42.0,,,,,0,note_off,,95.0,42.0,95.0,248757,129.5609375
7641,2.0,,,,,39.0,,,,,0,note_on,,95.0,39.0,95.0,248757,129.5609375
7642,2.0,,,,,39.0,,,,,240,note_off,,95.0,39.0,95.0,248997,129.6859375
7643,2.0,,,,,39.0,,,,,0,note_on,,95.0,39.0,95.0,248997,129.6859375
7644,2.0,,,,,39.0,,,,,240,note_off,,95.0,39.0,95.0,249237,129.8109375
7645,2.0,,,,,39.0,,,,,0,note_on,,95.0,39.0,95.0,249237,129.8109375
7646,2.0,,,,,39.0,,,,,240,note_off,,95.0,39.0,95.0,249477,129.9359375
7647,2.0,,,,,39.0,,,,,0,note_on,,95.0,39.0,95.0,249477,129.9359375
7648,2.0,,,,,39.0,,,,,240,note_off,,95.0,39.0,95.0,249717,130.0609375
7649,2.0,,,,,39.0,,,,,0,note_on,,95.0,39.0,95.0,249717,130.0609375
7650,2.0,,,,,39.0,,,,,240,note_off,,95.0,39.0,95.0,249957,130.1859375
7651,2.0,,,,,39.0,,,,,0,note_on,,95.0,39.0,95.0,249957,130.1859375
7652,2.0,,,,,39.0,,,,,240,note_off,,95.0,39.0,95.0,250197,130.3109375
7653,2.0,,,,,39.0,,,,,0,note_on,,95.0,39.0,95.0,250197,130.3109375
7654,2.0,,,,,39.0,,,,,240,note_off,,95.0,39.0,95.0,250437,130.4359375
7655,2.0,,,,,39.0,,,,,0,note_on,,95.0,39.0,95.0,250437,130.4359375
7656,2.0,,,,,39.0,,,,,240,note_off,,95.0,39.0,95.0,250677,130.5609375
7657,2.0,,,,,39.0,,,,,0,note_on,,95.0,39.0,95.0,250677,130.5609375
7658,2.0,,,,,39.0,,,,,240,note_off,,95.0,39.0,95.0,250917,130.6859375
7659,2.0,,,,,39.0,,,,,0,note_on,,95.0,39.0,95.0,250917,130.6859375
7660,2.0,,,,,39.0,,,,,240,note_off,,95.0,39.0,95.0,251157,130.8109375
7661,2.0,,,,,49.0,,,,,0,note_on,,95.0,49.0,95.0,251157,130.8109375
7662,2.0,,,,,42.0,,,,,0,note_on,,95.0,42.0,95.0,251157,130.8109375
7663,2.0,,,,,49.0,,,,,480,note_off,,95.0,49.0,95.0,251637,131.0609375
7664,2.0,,,,,42.0,,,,,0,note_off,,95.0,42.0,95.0,251637,131.0609375
7665,2.0,,,,,39.0,,,,,0,note_on,,95.0,39.0,95.0,251637,131.0609375
7666,2.0,,,,,39.0,,,,,240,note_off,,95.0,39.0,95.0,251877,131.1859375
7667,2.0,,,,,39.0,,,,,0,note_on,,95.0,39.0,95.0,251877,131.1859375
7668,2.0,,,,,39.0,,,,,240,note_off,,95.0,39.0,95.0,252117,131.3109375
7669,2.0,,,,,49.0,,,,,0,note_on,,95.0,49.0,95.0,252117,131.3109375
7670,2.0,,,,,42.0,,,,,0,note_on,,95.0,42.0,95.0,252117,131.3109375
7671,2.0,,,,,49.0,,,,,480,note_off,,95.0,49.0,95.0,252597,131.5609375
7672,2.0,,,,,42.0,,,,,0,note_off,,95.0,42.0,95.0,252597,131.5609375
7673,2.0,,,,,48.0,,,,,0,note_on,,95.0,48.0,95.0,252597,131.5609375
7674,2.0,,,,,41.0,,,,,0,note_on,,95.0,41.0,95.0,252597,131.5609375
7675,2.0,,,,,48.0,,,,,2880,note_off,,95.0,48.0,95.0,255477,133.0609375
7676,2.0,,,,,41.0,,,,,0,note_off,,95.0,41.0,95.0,255477,133.0609375
7677,2.0,,,,,52.0,,,,,0,note_on,,95.0,52.0,95.0,255477,133.0609375
7678,2.0,,,,,45.0,,,,,0,note_on,,95.0,45.0,95.0,255477,133.0609375
7679,2.0,,,,,52.0,,,,,960,note_off,,95.0,52.0,95.0,256437,133.5609375
7680,2.0,,,,,45.0,,,,,0,note_off,,95.0,45.0,95.0,256437,133.5609375
7681,2.0,,,,,39.0,,,,,0,note_on,,95.0,39.0,95.0,256437,133.5609375
7682,2.0,,,,,39.0,,,,,240,note_off,,95.0,39.0,95.0,256677,133.6859375
7683,2.0,,,,,39.0,,,,,0,note_on,,95.0,39.0,95.0,256677,133.6859375
7684,2.0,,,,,39.0,,,,,240,note_off,,95.0,39.0,95.0,256917,133.8109375
7685,2.0,,,,,39.0,,,,,0,note_on,,95.0,39.0,95.0,256917,133.8109375
7686,2.0,,,,,39.0,,,,,240,note_off,,95.0,39.0,95.0,257157,133.9359375
7687,2.0,,,,,39.0,,,,,0,note_on,,95.0,39.0,95.0,257157,133.9359375
7688,2.0,,,,,39.0,,,,,240,note_off,,95.0,39.0,95.0,257397,134.0609375
7689,2.0,,,,,39.0,,,,,0,note_on,,95.0,39.0,95.0,257397,134.0609375
7690,2.0,,,,,39.0,,,,,240,note_off,,95.0,39.0,95.0,257637,134.1859375
7691,2.0,,,,,39.0,,,,,0,note_on,,95.0,39.0,95.0,257637,134.1859375
7692,2.0,,,,,39.0,,,,,240,note_off,,95.0,39.0,95.0,257877,134.3109375
7693,2.0,,,,,39.0,,,,,0,note_on,,95.0,39.0,95.0,257877,134.3109375
7694,2.0,,,,,39.0,,,,,240,note_off,,95.0,39.0,95.0,258117,134.4359375
7695,2.0,,,,,39.0,,,,,0,note_on,,95.0,39.0,95.0,258117,134.4359375
7696,2.0,,,,,39.0,,,,,240,note_off,,95.0,39.0,95.0,258357,134.5609375
7697,2.0,,,,,39.0,,,,,0,note_on,,95.0,39.0,95.0,258357,134.5609375
7698,2.0,,,,,39.0,,,,,240,note_off,,95.0,39.0,95.0,258597,134.6859375
7699,2.0,,,,,39.0,,,,,0,note_on,,95.0,39.0,95.0,258597,134.6859375
7700,2.0,,,,,39.0,,,,,240,note_off,,95.0,39.0,95.0,258837,134.8109375
7701,2.0,,,,,46.0,,,,,0,note_on,,95.0,46.0,95.0,258837,134.8109375
7702,2.0,,,,,39.0,,,,,0,note_on,,95.0,39.0,95.0,258837,134.8109375
7703,2.0,,,,,46.0,,,,,480,note_off,,95.0,46.0,95.0,259317,135.0609375
7704,2.0,,,,,39.0,,,,,0,note_off,,95.0,39.0,95.0,259317,135.0609375
7705,2.0,,,,,39.0,,,,,0,note_on,,95.0,39.0,95.0,259317,135.0609375
7706,2.0,,,,,39.0,,,,,240,note_off,,95.0,39.0,95.0,259557,135.1859375
7707,2.0,,,,,39.0,,,,,0,note_on,,95.0,39.0,95.0,259557,135.1859375
7708,2.0,,,,,39.0,,,,,240,note_off,,95.0,39.0,95.0,259797,135.3109375
7709,2.0,,,,,47.0,,,,,0,note_on,,95.0,47.0,95.0,259797,135.3109375
7710,2.0,,,,,40.0,,,,,0,note_on,,95.0,40.0,95.0,259797,135.3109375
7711,2.0,,,,,47.0,,,,,480,note_off,,95.0,47.0,95.0,260277,135.5609375
7712,2.0,,,,,40.0,,,,,0,note_off,,95.0,40.0,95.0,260277,135.5609375
7713,2.0,,,,,48.0,,,,,0,note_on,,95.0,48.0,95.0,260277,135.5609375
7714,2.0,,,,,41.0,,,,,0,note_on,,95.0,41.0,95.0,260277,135.5609375
7715,2.0,,,,,48.0,,,,,2880,note_off,,95.0,48.0,95.0,263157,137.0609375
7716,2.0,,,,,41.0,,,,,0,note_off,,95.0,41.0,95.0,263157,137.0609375
7717,2.0,,,,,49.0,,,,,0,note_on,,95.0,49.0,95.0,263157,137.0609375
7718,2.0,,,,,42.0,,,,,0,note_on,,95.0,42.0,95.0,263157,137.0609375
7719,2.0,,,,,49.0,,,,,960,note_off,,95.0,49.0,95.0,264117,137.5609375
7720,2.0,,,,,42.0,,,,,0,note_off,,95.0,42.0,95.0,264117,137.5609375
7721,2.0,,,,,39.0,,,,,0,note_on,,95.0,39.0,95.0,264117,137.5609375
7722,2.0,,,,,39.0,,,,,240,note_off,,95.0,39.0,95.0,264357,137.6859375
7723,2.0,,,,,39.0,,,,,0,note_on,,95.0,39.0,95.0,264357,137.6859375
7724,2.0,,,,,39.0,,,,,240,note_off,,95.0,39.0,95.0,264597,137.8109375
7725,2.0,,,,,39.0,,,,,0,note_on,,95.0,39.0,95.0,264597,137.8109375
7726,2.0,,,,,39.0,,,,,240,note_off,,95.0,39.0,95.0,264837,137.9359375
7727,2.0,,,,,39.0,,,,,0,note_on,,95.0,39.0,95.0,264837,137.9359375
7728,2.0,,,,,39.0,,,,,240,note_off,,95.0,39.0,95.0,265077,138.0609375
7729,2.0,,,,,39.0,,,,,0,note_on,,95.0,39.0,95.0,265077,138.0609375
7730,2.0,,,,,39.0,,,,,240,note_off,,95.0,39.0,95.0,265317,138.1859375
7731,2.0,,,,,39.0,,,,,0,note_on,,95.0,39.0,95.0,265317,138.1859375
7732,2.0,,,,,39.0,,,,,240,note_off,,95.0,39.0,95.0,265557,138.3109375
7733,2.0,,,,,39.0,,,,,0,note_on,,95.0,39.0,95.0,265557,138.3109375
7734,2.0,,,,,39.0,,,,,240,note_off,,95.0,39.0,95.0,265797,138.4359375
7735,2.0,,,,,39.0,,,,,0,note_on,,95.0,39.0,95.0,265797,138.4359375
7736,2.0,,,,,39.0,,,,,240,note_off,,95.0,39.0,95.0,266037,138.5609375
7737,2.0,,,,,39.0,,,,,0,note_on,,95.0,39.0,95.0,266037,138.5609375
7738,2.0,,,,,39.0,,,,,240,note_off,,95.0,39.0,95.0,266277,138.6859375
7739,2.0,,,,,39.0,,,,,0,note_on,,95.0,39.0,95.0,266277,138.6859375
7740,2.0,,,,,39.0,,,,,240,note_off,,95.0,39.0,95.0,266517,138.8109375
7741,2.0,,,,,49.0,,,,,0,note_on,,95.0,49.0,95.0,266517,138.8109375
7742,2.0,,,,,42.0,,,,,0,note_on,,95.0,42.0,95.0,266517,138.8109375
7743,2.0,,,,,49.0,,,,,480,note_off,,95.0,49.0,95.0,266997,139.0609375
7744,2.0,,,,,42.0,,,,,0,note_off,,95.0,42.0,95.0,266997,139.0609375
7745,2.0,,,,,39.0,,,,,0,note_on,,95.0,39.0,95.0,266997,139.0609375
7746,2.0,,,,,39.0,,,,,240,note_off,,95.0,39.0,95.0,267237,139.1859375
7747,2.0,,,,,39.0,,,,,0,note_on,,95.0,39.0,95.0,267237,139.1859375
7748,2.0,,,,,39.0,,,,,240,note_off,,95.0,39.0,95.0,267477,139.3109375
7749,2.0,,,,,49.0,,,,,0,note_on,,95.0,49.0,95.0,267477,139.3109375
7750,2.0,,,,,42.0,,,,,0,note_on,,95.0,42.0,95.0,267477,139.3109375
7751,2.0,,,,,49.0,,,,,480,note_off,,95.0,49.0,95.0,267957,139.5609375
7752,2.0,,,,,42.0,,,,,0,note_off,,95.0,42.0,95.0,267957,139.5609375
7753,2.0,,,,,48.0,,,,,0,note_on,,95.0,48.0,95.0,267957,139.5609375
7754,2.0,,,,,41.0,,,,,0,note_on,,95.0,41.0,95.0,267957,139.5609375
7755,2.0,,,,,48.0,,,,,1920,note_off,,95.0,48.0,95.0,269877,140.5609375
7756,2.0,,,,,41.0,,,,,0,note_off,,95.0,41.0,95.0,269877,140.5609375
7757,2.0,,,,,51.0,,,,,0,note_on,,95.0,51.0,95.0,269877,140.5609375
7758,2.0,,,,,44.0,,,,,0,note_on,,95.0,44.0,95.0,269877,140.5609375
7759,2.0,,,,,51.0,,,,,960,note_off,,95.0,51.0,95.0,270837,141.0609375
7760,2.0,,,,,44.0,,,,,0,note_off,,95.0,44.0,95.0,270837,141.0609375
7761,2.0,,,,,50.0,,,,,0,note_on,,95.0,50.0,95.0,270837,141.0609375
7762,2.0,,,,,43.0,,,,,0,note_on,,95.0,43.0,95.0,270837,141.0609375
7763,2.0,,,,,50.0,,,,,480,note_off,,95.0,50.0,95.0,271317,141.3109375
7764,2.0,,,,,43.0,,,,,0,note_off,,95.0,43.0,95.0,271317,141.3109375
7765,2.0,,,,,49.0,,,,,0,note_on,,95.0,49.0,95.0,271317,141.3109375
7766,2.0,,,,,42.0,,,,,0,note_on,,95.0,42.0,95.0,271317,141.3109375
7767,2.0,,,,,49.0,,,,,480,note_off,,95.0,49.0,95.0,271797,141.5609375
7768,2.0,,,,,42.0,,,,,0,note_off,,95.0,42.0,95.0,271797,141.5609375
7769,2.0,,,,,39.0,,,,,0,note_on,,95.0,39.0,95.0,271797,141.5609375
7770,2.0,,,,,39.0,,,,,240,note_off,,95.0,39.0,95.0,272037,141.6859375
7771,2.0,,,,,39.0,,,,,0,note_on,,95.0,39.0,95.0,272037,141.6859375
7772,2.0,,,,,39.0,,,,,240,note_off,,95.0,39.0,95.0,272277,141.8109375
7773,2.0,,,,,39.0,,,,,240,note_on,,95.0,39.0,95.0,272517,141.9359375
7774,3.0,,,,,49.0,,,,,180,note_on,,95.0,49.0,95.0,85503,44.5328125
7775,2.0,,,,,39.0,,,,,60,note_off,,95.0,39.0,95.0,272577,141.9671875
7776,3.0,,,,,49.0,,,,,0,note_off,,95.0,49.0,95.0,85503,44.5328125
7777,3.0,,,,,51.0,,,,,0,note_on,,95.0,51.0,95.0,85503,44.5328125
7778,2.0,,,,,39.0,,,,,0,note_on,,95.0,39.0,95.0,272577,141.9671875
7779,3.0,,,,,51.0,,,,,480,note_off,,95.0,51.0,95.0,85983,44.7828125
7780,2.0,,,,,39.0,,,,,0,note_off,,95.0,39.0,95.0,272577,141.9671875
7781,2.0,,,,,39.0,,,,,0,note_on,,95.0,39.0,95.0,272577,141.9671875
7782,2.0,,,,,39.0,,,,,240,note_off,,95.0,39.0,95.0,272817,142.0921875
7783,2.0,,,,,39.0,,,,,0,note_on,,95.0,39.0,95.0,272817,142.0921875
7784,2.0,,,,,39.0,,,,,240,note_off,,95.0,39.0,95.0,273057,142.2171875
7785,2.0,,,,,39.0,,,,,240,note_on,,95.0,39.0,95.0,273297,142.3421875
7786,2.0,,,,,39.0,,,,,240,note_off,,95.0,39.0,95.0,273537,142.4671875
7787,2.0,,,,,59.0,,,,,0,note_on,,95.0,59.0,95.0,273537,142.4671875
7788,2.0,,,,,52.0,,,,,0,note_on,,95.0,52.0,95.0,273537,142.4671875
7789,2.0,,,,,59.0,,,,,480,note_off,,95.0,59.0,95.0,274017,142.7171875
7790,2.0,,,,,52.0,,,,,0,note_off,,95.0,52.0,95.0,274017,142.7171875
7791,2.0,,,,,39.0,,,,,0,note_on,,95.0,39.0,95.0,274017,142.7171875
7792,2.0,,,,,39.0,,,,,240,note_off,,95.0,39.0,95.0,274257,142.8421875
7793,2.0,,,,,39.0,,,,,0,note_on,,95.0,39.0,95.0,274257,142.8421875
7794,2.0,,,,,39.0,,,,,240,note_off,,95.0,39.0,95.0,274497,142.9671875
7795,2.0,,,,,57.0,,,,,0,note_on,,95.0,57.0,95.0,274497,142.9671875
7796,2.0,,,,,50.0,,,,,0,note_on,,95.0,50.0,95.0,274497,142.9671875
7797,2.0,,,,,57.0,,,,,480,note_off,,95.0,57.0,95.0,274977,143.2171875
7798,2.0,,,,,50.0,,,,,0,note_off,,95.0,50.0,95.0,274977,143.2171875
7799,2.0,,,,,39.0,,,,,0,note_on,,95.0,39.0,95.0,274977,143.2171875
7800,2.0,,,,,39.0,,,,,240,note_off,,95.0,39.0,95.0,275217,143.3421875
7801,2.0,,,,,39.0,,,,,0,note_on,,95.0,39.0,95.0,275217,143.3421875
7802,2.0,,,,,39.0,,,,,240,note_off,,95.0,39.0,95.0,275457,143.4671875
7803,2.0,,,,,39.0,,,,,240,note_on,,95.0,39.0,95.0,275697,143.5921875
7804,3.0,,,,,49.0,,,,,180,note_on,,95.0,49.0,95.0,86163,44.8765625
7805,2.0,,,,,39.0,,,,,60,note_off,,95.0,39.0,95.0,275757,143.6234375
7806,3.0,,,,,49.0,,,,,0,note_off,,95.0,49.0,95.0,86163,44.8765625
7807,3.0,,,,,51.0,,,,,0,note_on,,95.0,51.0,95.0,86163,44.8765625
7808,2.0,,,,,39.0,,,,,0,note_on,,95.0,39.0,95.0,275757,143.6234375
7809,3.0,,,,,51.0,,,,,480,note_off,,95.0,51.0,95.0,86643,45.1265625
7810,2.0,,,,,39.0,,,,,0,note_off,,95.0,39.0,95.0,275757,143.6234375
7811,2.0,,,,,39.0,,,,,0,note_on,,95.0,39.0,95.0,275757,143.6234375
7812,2.0,,,,,39.0,,,,,240,note_off,,95.0,39.0,95.0,275997,143.7484375
7813,2.0,,,,,39.0,,,,,0,note_on,,95.0,39.0,95.0,275997,143.7484375
7814,2.0,,,,,39.0,,,,,240,note_off,,95.0,39.0,95.0,276237,143.8734375
7815,2.0,,,,,39.0,,,,,240,note_on,,95.0,39.0,95.0,276477,143.9984375
7816,2.0,,,,,39.0,,,,,240,note_off,,95.0,39.0,95.0,276717,144.1234375
7817,2.0,,,,,61.0,,,,,0,note_on,,95.0,61.0,95.0,276717,144.1234375
7818,2.0,,,,,54.0,,,,,0,note_on,,95.0,54.0,95.0,276717,144.1234375
7819,2.0,,,,,61.0,,,,,480,note_off,,95.0,61.0,95.0,277197,144.3734375
7820,2.0,,,,,54.0,,,,,0,note_off,,95.0,54.0,95.0,277197,144.3734375
7821,2.0,,,,,39.0,,,,,0,note_on,,95.0,39.0,95.0,277197,144.3734375
7822,2.0,,,,,39.0,,,,,240,note_off,,95.0,39.0,95.0,277437,144.4984375
7823,2.0,,,,,39.0,,,,,0,note_on,,95.0,39.0,95.0,277437,144.4984375
7824,2.0,,,,,39.0,,,,,240,note_off,,95.0,39.0,95.0,277677,144.6234375
7825,2.0,,,,,60.0,,,,,0,note_on,,95.0,60.0,95.0,277677,144.6234375
7826,2.0,,,,,53.0,,,,,0,note_on,,95.0,53.0,95.0,277677,144.6234375
7827,2.0,,,,,60.0,,,,,480,note_off,,95.0,60.0,95.0,278157,144.8734375
7828,2.0,,,,,53.0,,,,,0,note_off,,95.0,53.0,95.0,278157,144.8734375
7829,2.0,,,,,39.0,,,,,0,note_on,,95.0,39.0,95.0,278157,144.8734375
7830,2.0,,,,,39.0,,,,,240,note_off,,95.0,39.0,95.0,278397,144.9984375
7831,2.0,,,,,39.0,,,,,0,note_on,,95.0,39.0,95.0,278397,144.9984375
7832,2.0,,,,,39.0,,,,,240,note_off,,95.0,39.0,95.0,278637,145.1234375
7833,2.0,,,,,39.0,,,,,240,note_on,,95.0,39.0,95.0,278877,145.2484375
7834,3.0,,,,,49.0,,,,,180,note_on,,95.0,49.0,95.0,86823,45.2203125
7835,2.0,,,,,39.0,,,,,60,note_off,,95.0,39.0,95.0,278937,145.2796875
7836,3.0,,,,,49.0,,,,,0,note_off,,95.0,49.0,95.0,86823,45.2203125
7837,3.0,,,,,51.0,,,,,0,note_on,,95.0,51.0,95.0,86823,45.2203125
7838,2.0,,,,,39.0,,,,,0,note_on,,95.0,39.0,95.0,278937,145.2796875
7839,3.0,,,,,51.0,,,,,480,note_off,,95.0,51.0,95.0,87303,45.4703125
7840,2.0,,,,,39.0,,,,,0,note_off,,95.0,39.0,95.0,278937,145.2796875
7841,2.0,,,,,39.0,,,,,0,note_on,,95.0,39.0,95.0,278937,145.2796875
7842,2.0,,,,,39.0,,,,,240,note_off,,95.0,39.0,95.0,279177,145.4046875
7843,2.0,,,,,39.0,,,,,0,note_on,,95.0,39.0,95.0,279177,145.4046875
7844,2.0,,,,,39.0,,,,,240,note_off,,95.0,39.0,95.0,279417,145.5296875
7845,2.0,,,,,39.0,,,,,240,note_on,,95.0,39.0,95.0,279657,145.6546875
7846,2.0,,,,,39.0,,,,,240,note_off,,95.0,39.0,95.0,279897,145.7796875
7847,2.0,,,,,59.0,,,,,0,note_on,,95.0,59.0,95.0,279897,145.7796875
7848,2.0,,,,,52.0,,,,,0,note_on,,95.0,52.0,95.0,279897,145.7796875
7849,2.0,,,,,59.0,,,,,480,note_off,,95.0,59.0,95.0,280377,146.0296875
7850,2.0,,,,,52.0,,,,,0,note_off,,95.0,52.0,95.0,280377,146.0296875
7851,2.0,,,,,39.0,,,,,0,note_on,,95.0,39.0,95.0,280377,146.0296875
7852,2.0,,,,,39.0,,,,,240,note_off,,95.0,39.0,95.0,280617,146.1546875
7853,2.0,,,,,39.0,,,,,0,note_on,,95.0,39.0,95.0,280617,146.1546875
7854,2.0,,,,,39.0,,,,,240,note_off,,95.0,39.0,95.0,280857,146.2796875
7855,2.0,,,,,57.0,,,,,0,note_on,,95.0,57.0,95.0,280857,146.2796875
7856,2.0,,,,,50.0,,,,,0,note_on,,95.0,50.0,95.0,280857,146.2796875
7857,2.0,,,,,57.0,,,,,480,note_off,,95.0,57.0,95.0,281337,146.5296875
7858,2.0,,,,,50.0,,,,,0,note_off,,95.0,50.0,95.0,281337,146.5296875
7859,2.0,,,,,39.0,,,,,0,note_on,,95.0,39.0,95.0,281337,146.5296875
7860,2.0,,,,,39.0,,,,,240,note_off,,95.0,39.0,95.0,281577,146.6546875
7861,2.0,,,,,39.0,,,,,0,note_on,,95.0,39.0,95.0,281577,146.6546875
7862,2.0,,,,,39.0,,,,,240,note_off,,95.0,39.0,95.0,281817,146.7796875
7863,2.0,,,,,39.0,,,,,240,note_on,,95.0,39.0,95.0,282057,146.9046875
7864,3.0,,,,,49.0,,,,,180,note_on,,95.0,49.0,95.0,87483,45.5640625
7865,2.0,,,,,39.0,,,,,60,note_off,,95.0,39.0,95.0,282117,146.9359375
7866,3.0,,,,,49.0,,,,,0,note_off,,95.0,49.0,95.0,87483,45.5640625
7867,3.0,,,,,51.0,,,,,0,note_on,,95.0,51.0,95.0,87483,45.5640625
7868,2.0,,,,,39.0,,,,,0,note_on,,95.0,39.0,95.0,282117,146.9359375
7869,3.0,,,,,51.0,,,,,480,note_off,,95.0,51.0,95.0,87963,45.8140625
7870,2.0,,,,,39.0,,,,,0,note_off,,95.0,39.0,95.0,282117,146.9359375
7871,2.0,,,,,39.0,,,,,0,note_on,,95.0,39.0,95.0,282117,146.9359375
7872,2.0,,,,,39.0,,,,,240,note_off,,95.0,39.0,95.0,282357,147.0609375
7873,2.0,,,,,39.0,,,,,0,note_on,,95.0,39.0,95.0,282357,147.0609375
7874,2.0,,,,,39.0,,,,,240,note_off,,95.0,39.0,95.0,282597,147.1859375
7875,2.0,,,,,39.0,,,,,240,note_on,,95.0,39.0,95.0,282837,147.3109375
7876,2.0,,,,,39.0,,,,,240,note_off,,95.0,39.0,95.0,283077,147.4359375
7877,2.0,,,,,49.0,,,,,0,note_on,,95.0,49.0,95.0,283077,147.4359375
7878,2.0,,,,,42.0,,,,,0,note_on,,95.0,42.0,95.0,283077,147.4359375
7879,2.0,,,,,49.0,,,,,480,note_off,,95.0,49.0,95.0,283557,147.6859375
7880,2.0,,,,,42.0,,,,,0,note_off,,95.0,42.0,95.0,283557,147.6859375
7881,2.0,,,,,39.0,,,,,0,note_on,,95.0,39.0,95.0,283557,147.6859375
7882,2.0,,,,,39.0,,,,,240,note_off,,95.0,39.0,95.0,283797,147.8109375
7883,2.0,,,,,39.0,,,,,0,note_on,,95.0,39.0,95.0,283797,147.8109375
7884,2.0,,,,,39.0,,,,,240,note_off,,95.0,39.0,95.0,284037,147.9359375
7885,2.0,,,,,47.0,,,,,0,note_on,,95.0,47.0,95.0,284037,147.9359375
7886,2.0,,,,,40.0,,,,,0,note_on,,95.0,40.0,95.0,284037,147.9359375
7887,2.0,,,,,47.0,,,,,480,note_off,,95.0,47.0,95.0,284517,148.1859375
7888,2.0,,,,,40.0,,,,,0,note_off,,95.0,40.0,95.0,284517,148.1859375
7889,2.0,,,,,48.0,,,,,0,note_on,,95.0,48.0,95.0,284517,148.1859375
7890,2.0,,,,,41.0,,,,,0,note_on,,95.0,41.0,95.0,284517,148.1859375
7891,2.0,,,,,48.0,,,,,2880,note_off,,95.0,48.0,95.0,287397,149.6859375
7892,2.0,,,,,41.0,,,,,0,note_off,,95.0,41.0,95.0,287397,149.6859375
7893,2.0,,,,,49.0,,,,,0,note_on,,95.0,49.0,95.0,287397,149.6859375
7894,2.0,,,,,42.0,,,,,0,note_on,,95.0,42.0,95.0,287397,149.6859375
7895,2.0,,,,,49.0,,,,,960,note_off,,95.0,49.0,95.0,288357,150.1859375
7896,2.0,,,,,42.0,,,,,0,note_off,,95.0,42.0,95.0,288357,150.1859375
7897,2.0,,,,,39.0,,,,,0,note_on,,95.0,39.0,95.0,288357,150.1859375
7898,2.0,,,,,39.0,,,,,240,note_off,,95.0,39.0,95.0,288597,150.3109375
7899,2.0,,,,,39.0,,,,,0,note_on,,95.0,39.0,95.0,288597,150.3109375
7900,2.0,,,,,39.0,,,,,240,note_off,,95.0,39.0,95.0,288837,150.4359375
7901,2.0,,,,,39.0,,,,,0,note_on,,95.0,39.0,95.0,288837,150.4359375
7902,2.0,,,,,39.0,,,,,240,note_off,,95.0,39.0,95.0,289077,150.5609375
7903,2.0,,,,,39.0,,,,,0,note_on,,95.0,39.0,95.0,289077,150.5609375
7904,2.0,,,,,39.0,,,,,240,note_off,,95.0,39.0,95.0,289317,150.6859375
7905,2.0,,,,,39.0,,,,,0,note_on,,95.0,39.0,95.0,289317,150.6859375
7906,2.0,,,,,39.0,,,,,240,note_off,,95.0,39.0,95.0,289557,150.8109375
7907,2.0,,,,,39.0,,,,,0,note_on,,95.0,39.0,95.0,289557,150.8109375
7908,2.0,,,,,39.0,,,,,240,note_off,,95.0,39.0,95.0,289797,150.9359375
7909,2.0,,,,,39.0,,,,,0,note_on,,95.0,39.0,95.0,289797,150.9359375
7910,2.0,,,,,39.0,,,,,240,note_off,,95.0,39.0,95.0,290037,151.0609375
7911,2.0,,,,,39.0,,,,,0,note_on,,95.0,39.0,95.0,290037,151.0609375
7912,2.0,,,,,39.0,,,,,240,note_off,,95.0,39.0,95.0,290277,151.1859375
7913,2.0,,,,,39.0,,,,,0,note_on,,95.0,39.0,95.0,290277,151.1859375
7914,2.0,,,,,39.0,,,,,240,note_off,,95.0,39.0,95.0,290517,151.3109375
7915,2.0,,,,,39.0,,,,,0,note_on,,95.0,39.0,95.0,290517,151.3109375
7916,2.0,,,,,39.0,,,,,240,note_off,,95.0,39.0,95.0,290757,151.4359375
7917,2.0,,,,,49.0,,,,,0,note_on,,95.0,49.0,95.0,290757,151.4359375
7918,2.0,,,,,42.0,,,,,0,note_on,,95.0,42.0,95.0,290757,151.4359375
7919,2.0,,,,,49.0,,,,,480,note_off,,95.0,49.0,95.0,291237,151.6859375
7920,2.0,,,,,42.0,,,,,0,note_off,,95.0,42.0,95.0,291237,151.6859375
7921,2.0,,,,,39.0,,,,,0,note_on,,95.0,39.0,95.0,291237,151.6859375
7922,2.0,,,,,39.0,,,,,240,note_off,,95.0,39.0,95.0,291477,151.8109375
7923,2.0,,,,,39.0,,,,,0,note_on,,95.0,39.0,95.0,291477,151.8109375
7924,2.0,,,,,39.0,,,,,240,note_off,,95.0,39.0,95.0,291717,151.9359375
7925,2.0,,,,,49.0,,,,,0,note_on,,95.0,49.0,95.0,291717,151.9359375
7926,2.0,,,,,42.0,,,,,0,note_on,,95.0,42.0,95.0,291717,151.9359375
7927,2.0,,,,,49.0,,,,,480,note_off,,95.0,49.0,95.0,292197,152.1859375
7928,2.0,,,,,42.0,,,,,0,note_off,,95.0,42.0,95.0,292197,152.1859375
7929,2.0,,,,,48.0,,,,,0,note_on,,95.0,48.0,95.0,292197,152.1859375
7930,2.0,,,,,41.0,,,,,0,note_on,,95.0,41.0,95.0,292197,152.1859375
7931,2.0,,,,,48.0,,,,,2880,note_off,,95.0,48.0,95.0,295077,153.6859375
7932,2.0,,,,,41.0,,,,,0,note_off,,95.0,41.0,95.0,295077,153.6859375
7933,2.0,,,,,52.0,,,,,0,note_on,,95.0,52.0,95.0,295077,153.6859375
7934,2.0,,,,,45.0,,,,,0,note_on,,95.0,45.0,95.0,295077,153.6859375
7935,2.0,,,,,52.0,,,,,960,note_off,,95.0,52.0,95.0,296037,154.1859375
7936,2.0,,,,,45.0,,,,,0,note_off,,95.0,45.0,95.0,296037,154.1859375
7937,2.0,,,,,39.0,,,,,0,note_on,,95.0,39.0,95.0,296037,154.1859375
7938,2.0,,,,,39.0,,,,,240,note_off,,95.0,39.0,95.0,296277,154.3109375
7939,2.0,,,,,39.0,,,,,0,note_on,,95.0,39.0,95.0,296277,154.3109375
7940,2.0,,,,,39.0,,,,,240,note_off,,95.0,39.0,95.0,296517,154.4359375
7941,2.0,,,,,39.0,,,,,0,note_on,,95.0,39.0,95.0,296517,154.4359375
7942,2.0,,,,,39.0,,,,,240,note_off,,95.0,39.0,95.0,296757,154.5609375
7943,2.0,,,,,39.0,,,,,0,note_on,,95.0,39.0,95.0,296757,154.5609375
7944,2.0,,,,,39.0,,,,,240,note_off,,95.0,39.0,95.0,296997,154.6859375
7945,2.0,,,,,39.0,,,,,0,note_on,,95.0,39.0,95.0,296997,154.6859375
7946,2.0,,,,,39.0,,,,,240,note_off,,95.0,39.0,95.0,297237,154.8109375
7947,2.0,,,,,39.0,,,,,0,note_on,,95.0,39.0,95.0,297237,154.8109375
7948,2.0,,,,,39.0,,,,,240,note_off,,95.0,39.0,95.0,297477,154.9359375
7949,2.0,,,,,39.0,,,,,0,note_on,,95.0,39.0,95.0,297477,154.9359375
7950,2.0,,,,,39.0,,,,,240,note_off,,95.0,39.0,95.0,297717,155.0609375
7951,2.0,,,,,39.0,,,,,0,note_on,,95.0,39.0,95.0,297717,155.0609375
7952,2.0,,,,,39.0,,,,,240,note_off,,95.0,39.0,95.0,297957,155.1859375
7953,2.0,,,,,39.0,,,,,0,note_on,,95.0,39.0,95.0,297957,155.1859375
7954,2.0,,,,,39.0,,,,,240,note_off,,95.0,39.0,95.0,298197,155.3109375
7955,2.0,,,,,39.0,,,,,0,note_on,,95.0,39.0,95.0,298197,155.3109375
7956,2.0,,,,,39.0,,,,,240,note_off,,95.0,39.0,95.0,298437,155.4359375
7957,2.0,,,,,46.0,,,,,0,note_on,,95.0,46.0,95.0,298437,155.4359375
7958,2.0,,,,,39.0,,,,,0,note_on,,95.0,39.0,95.0,298437,155.4359375
7959,2.0,,,,,46.0,,,,,480,note_off,,95.0,46.0,95.0,298917,155.6859375
7960,2.0,,,,,39.0,,,,,0,note_off,,95.0,39.0,95.0,298917,155.6859375
7961,2.0,,,,,39.0,,,,,0,note_on,,95.0,39.0,95.0,298917,155.6859375
7962,2.0,,,,,39.0,,,,,240,note_off,,95.0,39.0,95.0,299157,155.8109375
7963,2.0,,,,,39.0,,,,,0,note_on,,95.0,39.0,95.0,299157,155.8109375
7964,2.0,,,,,39.0,,,,,240,note_off,,95.0,39.0,95.0,299397,155.9359375
7965,2.0,,,,,47.0,,,,,0,note_on,,95.0,47.0,95.0,299397,155.9359375
7966,2.0,,,,,40.0,,,,,0,note_on,,95.0,40.0,95.0,299397,155.9359375
7967,2.0,,,,,47.0,,,,,480,note_off,,95.0,47.0,95.0,299877,156.1859375
7968,2.0,,,,,40.0,,,,,0,note_off,,95.0,40.0,95.0,299877,156.1859375
7969,2.0,,,,,48.0,,,,,0,note_on,,95.0,48.0,95.0,299877,156.1859375
7970,2.0,,,,,41.0,,,,,0,note_on,,95.0,41.0,95.0,299877,156.1859375
7971,2.0,,,,,48.0,,,,,2880,note_off,,95.0,48.0,95.0,302757,157.6859375
7972,2.0,,,,,41.0,,,,,0,note_off,,95.0,41.0,95.0,302757,157.6859375
7973,2.0,,,,,49.0,,,,,0,note_on,,95.0,49.0,95.0,302757,157.6859375
7974,2.0,,,,,42.0,,,,,0,note_on,,95.0,42.0,95.0,302757,157.6859375
7975,2.0,,,,,49.0,,,,,960,note_off,,95.0,49.0,95.0,303717,158.1859375
7976,2.0,,,,,42.0,,,,,0,note_off,,95.0,42.0,95.0,303717,158.1859375
7977,2.0,,,,,39.0,,,,,0,note_on,,95.0,39.0,95.0,303717,158.1859375
7978,2.0,,,,,39.0,,,,,240,note_off,,95.0,39.0,95.0,303957,158.3109375
7979,2.0,,,,,39.0,,,,,0,note_on,,95.0,39.0,95.0,303957,158.3109375
7980,2.0,,,,,39.0,,,,,240,note_off,,95.0,39.0,95.0,304197,158.4359375
7981,2.0,,,,,39.0,,,,,0,note_on,,95.0,39.0,95.0,304197,158.4359375
7982,2.0,,,,,39.0,,,,,240,note_off,,95.0,39.0,95.0,304437,158.5609375
7983,2.0,,,,,39.0,,,,,0,note_on,,95.0,39.0,95.0,304437,158.5609375
7984,2.0,,,,,39.0,,,,,240,note_off,,95.0,39.0,95.0,304677,158.6859375
7985,2.0,,,,,39.0,,,,,0,note_on,,95.0,39.0,95.0,304677,158.6859375
7986,2.0,,,,,39.0,,,,,240,note_off,,95.0,39.0,95.0,304917,158.8109375
7987,2.0,,,,,39.0,,,,,0,note_on,,95.0,39.0,95.0,304917,158.8109375
7988,2.0,,,,,39.0,,,,,240,note_off,,95.0,39.0,95.0,305157,158.9359375
7989,2.0,,,,,39.0,,,,,0,note_on,,95.0,39.0,95.0,305157,158.9359375
7990,2.0,,,,,39.0,,,,,240,note_off,,95.0,39.0,95.0,305397,159.0609375
7991,2.0,,,,,39.0,,,,,0,note_on,,95.0,39.0,95.0,305397,159.0609375
7992,2.0,,,,,39.0,,,,,240,note_off,,95.0,39.0,95.0,305637,159.1859375
7993,2.0,,,,,39.0,,,,,0,note_on,,95.0,39.0,95.0,305637,159.1859375
7994,2.0,,,,,39.0,,,,,240,note_off,,95.0,39.0,95.0,305877,159.3109375
7995,2.0,,,,,39.0,,,,,0,note_on,,95.0,39.0,95.0,305877,159.3109375
7996,2.0,,,,,39.0,,,,,240,note_off,,95.0,39.0,95.0,306117,159.4359375
7997,2.0,,,,,49.0,,,,,0,note_on,,95.0,49.0,95.0,306117,159.4359375
7998,2.0,,,,,42.0,,,,,0,note_on,,95.0,42.0,95.0,306117,159.4359375
7999,2.0,,,,,49.0,,,,,480,note_off,,95.0,49.0,95.0,306597,159.6859375
8000,2.0,,,,,42.0,,,,,0,note_off,,95.0,42.0,95.0,306597,159.6859375
8001,2.0,,,,,39.0,,,,,0,note_on,,95.0,39.0,95.0,306597,159.6859375
8002,2.0,,,,,39.0,,,,,240,note_off,,95.0,39.0,95.0,306837,159.8109375
8003,2.0,,,,,39.0,,,,,0,note_on,,95.0,39.0,95.0,306837,159.8109375
8004,2.0,,,,,39.0,,,,,240,note_off,,95.0,39.0,95.0,307077,159.9359375
8005,2.0,,,,,49.0,,,,,0,note_on,,95.0,49.0,95.0,307077,159.9359375
8006,2.0,,,,,42.0,,,,,0,note_on,,95.0,42.0,95.0,307077,159.9359375
8007,2.0,,,,,49.0,,,,,480,note_off,,95.0,49.0,95.0,307557,160.1859375
8008,2.0,,,,,42.0,,,,,0,note_off,,95.0,42.0,95.0,307557,160.1859375
8009,2.0,,,,,48.0,,,,,0,note_on,,95.0,48.0,95.0,307557,160.1859375
8010,2.0,,,,,41.0,,,,,0,note_on,,95.0,41.0,95.0,307557,160.1859375
8011,2.0,,,,,48.0,,,,,480,note_off,,95.0,48.0,95.0,308037,160.4359375
8012,2.0,,,,,41.0,,,,,0,note_off,,95.0,41.0,95.0,308037,160.4359375
8013,2.0,,,,,49.0,,,,,2400,note_on,,95.0,49.0,95.0,310437,161.6859375
8014,2.0,,,,,42.0,,,,,0,note_on,,95.0,42.0,95.0,310437,161.6859375
8015,2.0,,,,,49.0,,,,,240,note_off,,95.0,49.0,95.0,310677,161.8109375
8016,2.0,,,,,42.0,,,,,0,note_off,,95.0,42.0,95.0,310677,161.8109375
8017,2.0,,,,,51.0,,,,,0,note_on,,95.0,51.0,95.0,310677,161.8109375
8018,2.0,,,,,44.0,,,,,0,note_on,,95.0,44.0,95.0,310677,161.8109375
8019,2.0,,,,,51.0,,,,,720,note_off,,95.0,51.0,95.0,311397,162.1859375
8020,2.0,,,,,44.0,,,,,0,note_off,,95.0,44.0,95.0,311397,162.1859375
8021,2.0,,,,,39.0,,,,,0,note_on,,95.0,39.0,95.0,311397,162.1859375
8022,2.0,,,,,39.0,,,,,240,note_off,,95.0,39.0,95.0,311637,162.3109375
8023,2.0,,,,,39.0,,,,,240,note_on,,95.0,39.0,95.0,311877,162.4359375
8024,2.0,,,,,39.0,,,,,240,note_off,,95.0,39.0,95.0,312117,162.5609375
8025,2.0,,,,,39.0,,,,,0,note_on,,95.0,39.0,95.0,312117,162.5609375
8026,2.0,,,,,39.0,,,,,240,note_off,,95.0,39.0,95.0,312357,162.6859375
8027,2.0,,,,,51.0,,,,,0,note_on,,95.0,51.0,95.0,312357,162.6859375
8028,2.0,,,,,51.0,,,,,240,note_off,,95.0,51.0,95.0,312597,162.8109375
8029,2.0,,,,,52.0,,,,,0,note_on,,95.0,52.0,95.0,312597,162.8109375
8030,2.0,,,,,52.0,,,,,720,note_off,,95.0,52.0,95.0,313317,163.1859375
8031,2.0,,,,,39.0,,,,,0,note_on,,95.0,39.0,95.0,313317,163.1859375
8032,2.0,,,,,39.0,,,,,240,note_off,,95.0,39.0,95.0,313557,163.3109375
8033,2.0,,,,,39.0,,,,,240,note_on,,95.0,39.0,95.0,313797,163.4359375
8034,2.0,,,,,39.0,,,,,240,note_off,,95.0,39.0,95.0,314037,163.5609375
8035,2.0,,,,,39.0,,,,,0,note_on,,95.0,39.0,95.0,314037,163.5609375
8036,2.0,,,,,39.0,,,,,240,note_off,,95.0,39.0,95.0,314277,163.6859375
8037,2.0,,,,,51.0,,,,,0,note_on,,95.0,51.0,95.0,314277,163.6859375
8038,2.0,,,,,51.0,,,,,240,note_off,,95.0,51.0,95.0,314517,163.8109375
8039,2.0,,,,,52.0,,,,,0,note_on,,95.0,52.0,95.0,314517,163.8109375
8040,2.0,,,,,52.0,,,,,240,note_off,,95.0,52.0,95.0,314757,163.9359375
8041,2.0,,,,,54.0,,,,,0,note_on,,95.0,54.0,95.0,314757,163.9359375
8042,2.0,,,,,54.0,,,,,480,note_off,,95.0,54.0,95.0,315237,164.1859375
8043,2.0,,,,,39.0,,,,,0,note_on,,95.0,39.0,95.0,315237,164.1859375
8044,2.0,,,,,39.0,,,,,240,note_off,,95.0,39.0,95.0,315477,164.3109375
8045,2.0,,,,,39.0,,,,,240,note_on,,95.0,39.0,95.0,315717,164.4359375
8046,2.0,,,,,39.0,,,,,240,note_off,,95.0,39.0,95.0,315957,164.5609375
8047,2.0,,,,,39.0,,,,,0,note_on,,95.0,39.0,95.0,315957,164.5609375
8048,2.0,,,,,39.0,,,,,240,note_off,,95.0,39.0,95.0,316197,164.6859375
8049,2.0,,,,,51.0,,,,,0,note_on,,95.0,51.0,95.0,316197,164.6859375
8050,2.0,,,,,51.0,,,,,240,note_off,,95.0,51.0,95.0,316437,164.8109375
8051,2.0,,,,,52.0,,,,,0,note_on,,95.0,52.0,95.0,316437,164.8109375
8052,2.0,,,,,52.0,,,,,240,note_off,,95.0,52.0,95.0,316677,164.9359375
8053,2.0,,,,,56.0,,,,,0,note_on,,95.0,56.0,95.0,316677,164.9359375
8054,2.0,,,,,56.0,,,,,480,note_off,,95.0,56.0,95.0,317157,165.1859375
8055,2.0,,,,,55.0,,,,,0,note_on,,95.0,55.0,95.0,317157,165.1859375
8056,2.0,,,,,55.0,,,,,240,note_off,,95.0,55.0,95.0,317397,165.3109375
8057,2.0,,,,,54.0,,,,,0,note_on,,95.0,54.0,95.0,317397,165.3109375
8058,2.0,,,,,54.0,,,,,240,note_off,,95.0,54.0,95.0,317637,165.4359375
8059,2.0,,,,,53.0,,,,,0,note_on,,95.0,53.0,95.0,317637,165.4359375
8060,2.0,,,,,53.0,,,,,240,note_off,,95.0,53.0,95.0,317877,165.5609375
8061,2.0,,,,,50.0,,,,,0,note_on,,95.0,50.0,95.0,317877,165.5609375
8062,2.0,,,,,50.0,,,,,240,note_off,,95.0,50.0,95.0,318117,165.6859375
8063,2.0,,,,,49.0,,,,,0,note_on,,95.0,49.0,95.0,318117,165.6859375
8064,2.0,,,,,49.0,,,,,240,note_off,,95.0,49.0,95.0,318357,165.8109375
8065,2.0,,,,,47.0,,,,,0,note_on,,95.0,47.0,95.0,318357,165.8109375
8066,2.0,,,,,47.0,,,,,240,note_off,,95.0,47.0,95.0,318597,165.9359375
8067,2.0,,,,,46.0,,,,,0,note_on,,95.0,46.0,95.0,318597,165.9359375
8068,2.0,,,,,46.0,,,,,240,note_off,,95.0,46.0,95.0,318837,166.0609375
8069,2.0,,,,,45.0,,,,,0,note_on,,95.0,45.0,95.0,318837,166.0609375
8070,2.0,,,,,45.0,,,,,240,note_off,,95.0,45.0,95.0,319077,166.1859375
8071,2.0,,,,,39.0,,,,,0,note_on,,95.0,39.0,95.0,319077,166.1859375
8072,2.0,,,,,39.0,,,,,240,note_off,,95.0,39.0,95.0,319317,166.3109375
8073,2.0,,,,,39.0,,,,,240,note_on,,95.0,39.0,95.0,319557,166.4359375
8074,2.0,,,,,39.0,,,,,240,note_off,,95.0,39.0,95.0,319797,166.5609375
8075,2.0,,,,,39.0,,,,,0,note_on,,95.0,39.0,95.0,319797,166.5609375
8076,2.0,,,,,39.0,,,,,240,note_off,,95.0,39.0,95.0,320037,166.6859375
8077,2.0,,,,,51.0,,,,,0,note_on,,95.0,51.0,95.0,320037,166.6859375
8078,2.0,,,,,51.0,,,,,240,note_off,,95.0,51.0,95.0,320277,166.8109375
8079,2.0,,,,,52.0,,,,,0,note_on,,95.0,52.0,95.0,320277,166.8109375
8080,2.0,,,,,52.0,,,,,720,note_off,,95.0,52.0,95.0,320997,167.1859375
8081,2.0,,,,,39.0,,,,,0,note_on,,95.0,39.0,95.0,320997,167.1859375
8082,2.0,,,,,39.0,,,,,240,note_off,,95.0,39.0,95.0,321237,167.3109375
8083,2.0,,,,,39.0,,,,,240,note_on,,95.0,39.0,95.0,321477,167.4359375
8084,2.0,,,,,39.0,,,,,240,note_off,,95.0,39.0,95.0,321717,167.5609375
8085,2.0,,,,,39.0,,,,,0,note_on,,95.0,39.0,95.0,321717,167.5609375
8086,2.0,,,,,39.0,,,,,240,note_off,,95.0,39.0,95.0,321957,167.6859375
8087,2.0,,,,,51.0,,,,,0,note_on,,95.0,51.0,95.0,321957,167.6859375
8088,2.0,,,,,51.0,,,,,240,note_off,,95.0,51.0,95.0,322197,167.8109375
8089,2.0,,,,,52.0,,,,,0,note_on,,95.0,52.0,95.0,322197,167.8109375
8090,2.0,,,,,52.0,,,,,240,note_off,,95.0,52.0,95.0,322437,167.9359375
8091,2.0,,,,,54.0,,,,,0,note_on,,95.0,54.0,95.0,322437,167.9359375
8092,2.0,,,,,54.0,,,,,480,note_off,,95.0,54.0,95.0,322917,168.1859375
8093,2.0,,,,,39.0,,,,,0,note_on,,95.0,39.0,95.0,322917,168.1859375
8094,2.0,,,,,39.0,,,,,240,note_off,,95.0,39.0,95.0,323157,168.3109375
8095,2.0,,,,,39.0,,,,,240,note_on,,95.0,39.0,95.0,323397,168.4359375
8096,2.0,,,,,39.0,,,,,240,note_off,,95.0,39.0,95.0,323637,168.5609375
8097,2.0,,,,,39.0,,,,,0,note_on,,95.0,39.0,95.0,323637,168.5609375
8098,2.0,,,,,39.0,,,,,240,note_off,,95.0,39.0,95.0,323877,168.6859375
8099,2.0,,,,,51.0,,,,,0,note_on,,95.0,51.0,95.0,323877,168.6859375
8100,2.0,,,,,51.0,,,,,240,note_off,,95.0,51.0,95.0,324117,168.8109375
8101,2.0,,,,,52.0,,,,,0,note_on,,95.0,52.0,95.0,324117,168.8109375
8102,2.0,,,,,52.0,,,,,240,note_off,,95.0,52.0,95.0,324357,168.9359375
8103,2.0,,,,,56.0,,,,,0,note_on,,95.0,56.0,95.0,324357,168.9359375
8104,2.0,,,,,56.0,,,,,480,note_off,,95.0,56.0,95.0,324837,169.1859375
8105,2.0,,,,,55.0,,,,,0,note_on,,95.0,55.0,95.0,324837,169.1859375
8106,2.0,,,,,55.0,,,,,240,note_off,,95.0,55.0,95.0,325077,169.3109375
8107,2.0,,,,,54.0,,,,,0,note_on,,95.0,54.0,95.0,325077,169.3109375
8108,2.0,,,,,54.0,,,,,240,note_off,,95.0,54.0,95.0,325317,169.4359375
8109,2.0,,,,,53.0,,,,,0,note_on,,95.0,53.0,95.0,325317,169.4359375
8110,2.0,,,,,53.0,,,,,240,note_off,,95.0,53.0,95.0,325557,169.5609375
8111,2.0,,,,,50.0,,,,,0,note_on,,95.0,50.0,95.0,325557,169.5609375
8112,2.0,,,,,50.0,,,,,240,note_off,,95.0,50.0,95.0,325797,169.6859375
8113,2.0,,,,,49.0,,,,,0,note_on,,95.0,49.0,95.0,325797,169.6859375
8114,2.0,,,,,49.0,,,,,240,note_off,,95.0,49.0,95.0,326037,169.8109375
8115,2.0,,,,,48.0,,,,,0,note_on,,95.0,48.0,95.0,326037,169.8109375
8116,2.0,,,,,48.0,,,,,240,note_off,,95.0,48.0,95.0,326277,169.9359375
8117,2.0,,,,,57.0,,,,,0,note_on,,95.0,57.0,95.0,326277,169.9359375
8118,2.0,,,,,57.0,,,,,480,note_off,,95.0,57.0,95.0,326757,170.1859375
8119,2.0,,,,,39.0,,,,,0,note_on,,95.0,39.0,95.0,326757,170.1859375
8120,2.0,,,,,39.0,,,,,240,note_off,,95.0,39.0,95.0,326997,170.3109375
8121,2.0,,,,,39.0,,,,,240,note_on,,95.0,39.0,95.0,327237,170.4359375
8122,2.0,,,,,39.0,,,,,240,note_off,,95.0,39.0,95.0,327477,170.5609375
8123,2.0,,,,,39.0,,,,,0,note_on,,95.0,39.0,95.0,327477,170.5609375
8124,2.0,,,,,39.0,,,,,240,note_off,,95.0,39.0,95.0,327717,170.6859375
8125,2.0,,,,,51.0,,,,,0,note_on,,95.0,51.0,95.0,327717,170.6859375
8126,2.0,,,,,51.0,,,,,240,note_off,,95.0,51.0,95.0,327957,170.8109375
8127,2.0,,,,,52.0,,,,,0,note_on,,95.0,52.0,95.0,327957,170.8109375
8128,2.0,,,,,52.0,,,,,720,note_off,,95.0,52.0,95.0,328677,171.1859375
8129,2.0,,,,,39.0,,,,,0,note_on,,95.0,39.0,95.0,328677,171.1859375
8130,2.0,,,,,39.0,,,,,240,note_off,,95.0,39.0,95.0,328917,171.3109375
8131,2.0,,,,,39.0,,,,,240,note_on,,95.0,39.0,95.0,329157,171.4359375
8132,2.0,,,,,39.0,,,,,240,note_off,,95.0,39.0,95.0,329397,171.5609375
8133,2.0,,,,,39.0,,,,,0,note_on,,95.0,39.0,95.0,329397,171.5609375
8134,2.0,,,,,39.0,,,,,240,note_off,,95.0,39.0,95.0,329637,171.6859375
8135,2.0,,,,,51.0,,,,,0,note_on,,95.0,51.0,95.0,329637,171.6859375
8136,2.0,,,,,51.0,,,,,240,note_off,,95.0,51.0,95.0,329877,171.8109375
8137,2.0,,,,,52.0,,,,,0,note_on,,95.0,52.0,95.0,329877,171.8109375
8138,2.0,,,,,52.0,,,,,240,note_off,,95.0,52.0,95.0,330117,171.9359375
8139,2.0,,,,,54.0,,,,,0,note_on,,95.0,54.0,95.0,330117,171.9359375
8140,2.0,,,,,54.0,,,,,480,note_off,,95.0,54.0,95.0,330597,172.1859375
8141,2.0,,,,,39.0,,,,,0,note_on,,95.0,39.0,95.0,330597,172.1859375
8142,2.0,,,,,39.0,,,,,240,note_off,,95.0,39.0,95.0,330837,172.3109375
8143,2.0,,,,,39.0,,,,,240,note_on,,95.0,39.0,95.0,331077,172.4359375
8144,2.0,,,,,39.0,,,,,240,note_off,,95.0,39.0,95.0,331317,172.5609375
8145,2.0,,,,,39.0,,,,,0,note_on,,95.0,39.0,95.0,331317,172.5609375
8146,2.0,,,,,39.0,,,,,240,note_off,,95.0,39.0,95.0,331557,172.6859375
8147,2.0,,,,,51.0,,,,,0,note_on,,95.0,51.0,95.0,331557,172.6859375
8148,2.0,,,,,51.0,,,,,240,note_off,,95.0,51.0,95.0,331797,172.8109375
8149,2.0,,,,,52.0,,,,,0,note_on,,95.0,52.0,95.0,331797,172.8109375
8150,2.0,,,,,52.0,,,,,240,note_off,,95.0,52.0,95.0,332037,172.9359375
8151,2.0,,,,,56.0,,,,,0,note_on,,95.0,56.0,95.0,332037,172.9359375
8152,2.0,,,,,56.0,,,,,480,note_off,,95.0,56.0,95.0,332517,173.1859375
8153,2.0,,,,,55.0,,,,,0,note_on,,95.0,55.0,95.0,332517,173.1859375
8154,2.0,,,,,55.0,,,,,240,note_off,,95.0,55.0,95.0,332757,173.3109375
8155,2.0,,,,,54.0,,,,,0,note_on,,95.0,54.0,95.0,332757,173.3109375
8156,2.0,,,,,54.0,,,,,240,note_off,,95.0,54.0,95.0,332997,173.4359375
8157,2.0,,,,,53.0,,,,,0,note_on,,95.0,53.0,95.0,332997,173.4359375
8158,2.0,,,,,53.0,,,,,240,note_off,,95.0,53.0,95.0,333237,173.5609375
8159,2.0,,,,,50.0,,,,,0,note_on,,95.0,50.0,95.0,333237,173.5609375
8160,2.0,,,,,50.0,,,,,240,note_off,,95.0,50.0,95.0,333477,173.6859375
8161,2.0,,,,,49.0,,,,,0,note_on,,95.0,49.0,95.0,333477,173.6859375
8162,2.0,,,,,49.0,,,,,240,note_off,,95.0,49.0,95.0,333717,173.8109375
8163,2.0,,,,,47.0,,,,,0,note_on,,95.0,47.0,95.0,333717,173.8109375
8164,2.0,,,,,47.0,,,,,240,note_off,,95.0,47.0,95.0,333957,173.9359375
8165,2.0,,,,,46.0,,,,,0,note_on,,95.0,46.0,95.0,333957,173.9359375
8166,2.0,,,,,46.0,,,,,240,note_off,,95.0,46.0,95.0,334197,174.0609375
8167,2.0,,,,,45.0,,,,,0,note_on,,95.0,45.0,95.0,334197,174.0609375
8168,2.0,,,,,45.0,,,,,240,note_off,,95.0,45.0,95.0,334437,174.1859375
8169,2.0,,,,,39.0,,,,,0,note_on,,95.0,39.0,95.0,334437,174.1859375
8170,2.0,,,,,39.0,,,,,240,note_off,,95.0,39.0,95.0,334677,174.3109375
8171,2.0,,,,,39.0,,,,,240,note_on,,95.0,39.0,95.0,334917,174.4359375
8172,2.0,,,,,39.0,,,,,240,note_off,,95.0,39.0,95.0,335157,174.5609375
8173,2.0,,,,,39.0,,,,,0,note_on,,95.0,39.0,95.0,335157,174.5609375
8174,2.0,,,,,39.0,,,,,240,note_off,,95.0,39.0,95.0,335397,174.6859375
8175,2.0,,,,,51.0,,,,,0,note_on,,95.0,51.0,95.0,335397,174.6859375
8176,2.0,,,,,51.0,,,,,240,note_off,,95.0,51.0,95.0,335637,174.8109375
8177,2.0,,,,,52.0,,,,,0,note_on,,95.0,52.0,95.0,335637,174.8109375
8178,2.0,,,,,52.0,,,,,720,note_off,,95.0,52.0,95.0,336357,175.1859375
8179,2.0,,,,,39.0,,,,,0,note_on,,95.0,39.0,95.0,336357,175.1859375
8180,2.0,,,,,39.0,,,,,240,note_off,,95.0,39.0,95.0,336597,175.3109375
8181,2.0,,,,,39.0,,,,,240,note_on,,95.0,39.0,95.0,336837,175.4359375
8182,2.0,,,,,39.0,,,,,240,note_off,,95.0,39.0,95.0,337077,175.5609375
8183,2.0,,,,,39.0,,,,,0,note_on,,95.0,39.0,95.0,337077,175.5609375
8184,2.0,,,,,39.0,,,,,240,note_off,,95.0,39.0,95.0,337317,175.6859375
8185,2.0,,,,,51.0,,,,,0,note_on,,95.0,51.0,95.0,337317,175.6859375
8186,2.0,,,,,51.0,,,,,240,note_off,,95.0,51.0,95.0,337557,175.8109375
8187,2.0,,,,,52.0,,,,,0,note_on,,95.0,52.0,95.0,337557,175.8109375
8188,2.0,,,,,52.0,,,,,240,note_off,,95.0,52.0,95.0,337797,175.9359375
8189,2.0,,,,,54.0,,,,,0,note_on,,95.0,54.0,95.0,337797,175.9359375
8190,2.0,,,,,54.0,,,,,480,note_off,,95.0,54.0,95.0,338277,176.1859375
8191,2.0,,,,,39.0,,,,,0,note_on,,95.0,39.0,95.0,338277,176.1859375
8192,2.0,,,,,39.0,,,,,240,note_off,,95.0,39.0,95.0,338517,176.3109375
8193,2.0,,,,,39.0,,,,,240,note_on,,95.0,39.0,95.0,338757,176.4359375
8194,2.0,,,,,39.0,,,,,240,note_off,,95.0,39.0,95.0,338997,176.5609375
8195,2.0,,,,,39.0,,,,,0,note_on,,95.0,39.0,95.0,338997,176.5609375
8196,2.0,,,,,39.0,,,,,240,note_off,,95.0,39.0,95.0,339237,176.6859375
8197,2.0,,,,,51.0,,,,,0,note_on,,95.0,51.0,95.0,339237,176.6859375
8198,2.0,,,,,51.0,,,,,240,note_off,,95.0,51.0,95.0,339477,176.8109375
8199,2.0,,,,,52.0,,,,,0,note_on,,95.0,52.0,95.0,339477,176.8109375
8200,2.0,,,,,52.0,,,,,240,note_off,,95.0,52.0,95.0,339717,176.9359375
8201,2.0,,,,,56.0,,,,,0,note_on,,95.0,56.0,95.0,339717,176.9359375
8202,2.0,,,,,56.0,,,,,480,note_off,,95.0,56.0,95.0,340197,177.1859375
8203,2.0,,,,,55.0,,,,,0,note_on,,95.0,55.0,95.0,340197,177.1859375
8204,2.0,,,,,55.0,,,,,240,note_off,,95.0,55.0,95.0,340437,177.3109375
8205,2.0,,,,,54.0,,,,,0,note_on,,95.0,54.0,95.0,340437,177.3109375
8206,2.0,,,,,54.0,,,,,240,note_off,,95.0,54.0,95.0,340677,177.4359375
8207,2.0,,,,,53.0,,,,,0,note_on,,95.0,53.0,95.0,340677,177.4359375
8208,2.0,,,,,53.0,,,,,240,note_off,,95.0,53.0,95.0,340917,177.5609375
8209,2.0,,,,,50.0,,,,,0,note_on,,95.0,50.0,95.0,340917,177.5609375
8210,2.0,,,,,50.0,,,,,240,note_off,,95.0,50.0,95.0,341157,177.6859375
8211,2.0,,,,,49.0,,,,,0,note_on,,95.0,49.0,95.0,341157,177.6859375
8212,2.0,,,,,49.0,,,,,240,note_off,,95.0,49.0,95.0,341397,177.8109375
8213,2.0,,,,,47.0,,,,,0,note_on,,95.0,47.0,95.0,341397,177.8109375
8214,2.0,,,,,47.0,,,,,240,note_off,,95.0,47.0,95.0,341637,177.9359375
8215,2.0,,,,,46.0,,,,,0,note_on,,95.0,46.0,95.0,341637,177.9359375
8216,2.0,,,,,46.0,,,,,240,note_off,,95.0,46.0,95.0,341877,178.0609375
8217,2.0,,,,,45.0,,,,,0,note_on,,95.0,45.0,95.0,341877,178.0609375
8218,2.0,,,,,45.0,,,,,240,note_off,,95.0,45.0,95.0,342117,178.1859375
8219,2.0,,,,,55.0,,,,,0,note_on,,95.0,55.0,95.0,342117,178.1859375
8220,2.0,,,,,55.0,,,,,240,note_off,,95.0,55.0,95.0,342357,178.3109375
8221,2.0,,,,,54.0,,,,,0,note_on,,95.0,54.0,95.0,342357,178.3109375
8222,2.0,,,,,54.0,,,,,240,note_off,,95.0,54.0,95.0,342597,178.4359375
8223,2.0,,,,,53.0,,,,,0,note_on,,95.0,53.0,95.0,342597,178.4359375
8224,2.0,,,,,53.0,,,,,240,note_off,,95.0,53.0,95.0,342837,178.5609375
8225,2.0,,,,,49.0,,,,,0,note_on,,95.0,49.0,95.0,342837,178.5609375
8226,2.0,,,,,49.0,,,,,240,note_off,,95.0,49.0,95.0,343077,178.6859375
8227,2.0,,,,,48.0,,,,,0,note_on,,95.0,48.0,95.0,343077,178.6859375
8228,2.0,,,,,48.0,,,,,240,note_off,,95.0,48.0,95.0,343317,178.8109375
8229,2.0,,,,,47.0,,,,,0,note_on,,95.0,47.0,95.0,343317,178.8109375
8230,2.0,,,,,47.0,,,,,240,note_off,,95.0,47.0,95.0,343557,178.9359375
8231,2.0,,,,,42.0,,,,,0,note_on,,95.0,42.0,95.0,343557,178.9359375
8232,2.0,,,,,42.0,,,,,240,note_off,,95.0,42.0,95.0,343797,179.0609375
8233,2.0,,,,,41.0,,,,,0,note_on,,95.0,41.0,95.0,343797,179.0609375
8234,2.0,,,,,41.0,,,,,240,note_off,,95.0,41.0,95.0,344037,179.1859375
8235,2.0,,,,,46.0,,,,,0,note_on,,95.0,46.0,95.0,344037,179.1859375
8236,2.0,,,,,39.0,,,,,0,note_on,,95.0,39.0,95.0,344037,179.1859375
8237,2.0,,,,,46.0,,,,,480,note_off,,95.0,46.0,95.0,344517,179.4359375
8238,2.0,,,,,39.0,,,,,0,note_off,,95.0,39.0,95.0,344517,179.4359375
8239,,,,,,,,,,,0,end_of_track,,,,,9221120237041090560,4802666790125568.0
