,channel,clocks_per_click,control,denominator,name,notated_32nd_notes_per_beat,note,numerator,program,tempo,time,type,value,velocity,note_midi_value,note_velocity,note_time,note_seconds
0,,96.0,,4.0,,8.0,,4.0,,,0,time_signature,,,,,0,0.0
1,,,,,,,,,,571428.0,0,set_tempo,,,,,0,0.0
2,,,,,,,,,,,0,end_of_track,,,,,0,0.0
3,,,,,Sequenced by P.J. Barnes,,,,,,0,track_name,,,,,0,0.0
4,0.0,,0.0,,,,,,,,0,control_change,0.0,,,,0,0.0
5,0.0,,,,,,,,26.0,,0,program_change,,,,,0,0.0
6,,96.0,,4.0,,8.0,,4.0,,,0,time_signature,,,,,0,0.0
7,,,,,,,,,,571428.0,0,set_tempo,,,,,0,0.0
8,0.0,,,,,,76.0,,,,0,note_on,,64.0,76.0,64.0,0,0.0
9,0.0,,,,,,76.0,,,,16,note_off,,64.0,76.0,64.0,16,0.08333333333333333
10,0.0,,,,,,76.0,,,,8,note_on,,64.0,76.0,64.0,24,0.125
11,0.0,,,,,,76.0,,,,16,note_off,,64.0,76.0,64.0,40,0.20833333333333331
12,0.0,,,,,,76.0,,,,32,note_on,,64.0,76.0,64.0,72,0.375
13,0.0,,,,,,76.0,,,,16,note_off,,64.0,76.0,64.0,88,0.4583333333333333
14,0.0,,,,,,72.0,,,,32,note_on,,64.0,72.0,64.0,120,0.625
15,0.0,,,,,,72.0,,,,16,note_off,,64.0,72.0,64.0,136,0.7083333333333333
16,0.0,,,,,,76.0,,,,8,note_on,,64.0,76.0,64.0,144,0.75
17,0.0,,,,,,76.0,,,,16,note_off,,64.0,76.0,64.0,160,0.8333333333333333
18,0.0,,,,,,79.0,,,,32,note_on,,64.0,79.0,64.0,192,1.0
19,0.0,,,,,,79.0,,,,16,note_off,,64.0,79.0,64.0,208,1.0833333333333333
20,0.0,,,,,,72.0,,,,176,note_on,,64.0,72.0,64.0,384,2.0
21,0.0,,,,,,72.0,,,,16,note_off,,64.0,72.0,64.0,400,2.083333333333333
22,0.0,,,,,,67.0,,,,56,note_on,,64.0,67.0,64.0,456,2.375
23,0.0,,,,,,67.0,,,,16,note_off,,64.0,67.0,64.0,472,2.458333333333333
24,0.0,,,,,,64.0,,,,56,note_on,,64.0,64.0,64.0,528,2.75
25,0.0,,,,,,64.0,,,,16,note_off,,64.0,64.0,64.0,544,2.833333333333333
26,0.0,,,,,,69.0,,,,56,note_on,,64.0,69.0,64.0,600,3.125
27,0.0,,,,,,69.0,,,,16,note_off,,64.0,69.0,64.0,616,3.208333333333333
28,0.0,,,,,,71.0,,,,32,note_on,,64.0,71.0,64.0,648,3.375
29,0.0,,,,,,71.0,,,,16,note_off,,64.0,71.0,64.0,664,3.458333333333333
30,0.0,,,,,,70.0,,,,32,note_on,,64.0,70.0,64.0,696,3.625
31,0.0,,,,,,70.0,,,,16,note_off,,64.0,70.0,64.0,712,3.708333333333333
32,0.0,,,,,,69.0,,,,8,note_on,,64.0,69.0,64.0,720,3.75
33,0.0,,,,,,69.0,,,,16,note_off,,64.0,69.0,64.0,736,3.833333333333333
34,0.0,,,,,,67.0,,,,32,note_on,,64.0,67.0,64.0,768,4.0
35,0.0,,,,,,67.0,,,,16,note_off,,64.0,67.0,64.0,784,4.083333333333333
36,0.0,,,,,,76.0,,,,16,note_on,,64.0,76.0,64.0,800,4.166666666666666
37,0.0,,,,,,76.0,,,,16,note_off,,64.0,76.0,64.0,816,4.25
38,0.0,,,,,,79.0,,,,16,note_on,,64.0,79.0,64.0,832,4.333333333333333
39,0.0,,,,,,79.0,,,,16,note_off,,64.0,79.0,64.0,848,4.416666666666666
40,0.0,,,,,,81.0,,,,16,note_on,,64.0,81.0,64.0,864,4.5
41,0.0,,,,,,81.0,,,,16,note_off,,64.0,81.0,64.0,880,4.583333333333333
42,0.0,,,,,,77.0,,,,32,note_on,,64.0,77.0,64.0,912,4.75
43,0.0,,,,,,77.0,,,,16,note_off,,64.0,77.0,64.0,928,4.833333333333333
44,0.0,,,,,,79.0,,,,8,note_on,,64.0,79.0,64.0,936,4.875
45,0.0,,,,,,79.0,,,,16,note_off,,64.0,79.0,64.0,952,4.958333333333333
46,0.0,,,,,,76.0,,,,32,note_on,,64.0,76.0,64.0,984,5.125
47,0.0,,,,,,76.0,,,,16,note_off,,64.0,76.0,64.0,1000,5.208333333333333
48,0.0,,,,,,72.0,,,,32,note_on,,64.0,72.0,64.0,1032,5.375
49,0.0,,,,,,72.0,,,,16,note_off,,64.0,72.0,64.0,1048,5.458333333333333
50,0.0,,,,,,74.0,,,,8,note_on,,64.0,74.0,64.0,1056,5.5
51,0.0,,,,,,74.0,,,,16,note_off,,64.0,74.0,64.0,1072,5.583333333333333
52,0.0,,,,,,71.0,,,,8,note_on,,64.0,71.0,64.0,1080,5.625
53,0.0,,,,,,71.0,,,,16,note_off,,64.0,71.0,64.0,1096,5.708333333333333
54,0.0,,,,,,72.0,,,,56,note_on,,64.0,72.0,64.0,1152,6.0
55,0.0,,,,,,72.0,,,,16,note_off,,64.0,72.0,64.0,1168,6.083333333333333
56,0.0,,,,,,67.0,,,,56,note_on,,64.0,67.0,64.0,1224,6.375
57,0.0,,,,,,67.0,,,,16,note_off,,64.0,67.0,64.0,1240,6.458333333333333
58,0.0,,,,,,64.0,,,,56,note_on,,64.0,64.0,64.0,1296,6.75
59,0.0,,,,,,64.0,,,,16,note_off,,64.0,64.0,64.0,1312,6.833333333333333
60,0.0,,,,,,69.0,,,,56,note_on,,64.0,69.0,64.0,1368,7.125
61,0.0,,,,,,69.0,,,,16,note_off,,64.0,69.0,64.0,1384,7.208333333333333
62,0.0,,,,,,71.0,,,,32,note_on,,64.0,71.0,64.0,1416,7.375
63,0.0,,,,,,71.0,,,,16,note_off,,64.0,71.0,64.0,1432,7.458333333333333
64,0.0,,,,,,70.0,,,,32,note_on,,64.0,70.0,64.0,1464,7.625
65,0.0,,,,,,70.0,,,,16,note_off,,64.0,70.0,64.0,1480,7.708333333333333
66,0.0,,,,,,69.0,,,,8,note_on,,64.0,69.0,64.0,1488,7.75
67,0.0,,,,,,69.0,,,,16,note_off,,64.0,69.0,64.0,1504,7.833333333333333
68,0.0,,,,,,67.0,,,,32,note_on,,64.0,67.0,64.0,1536,8.0
69,0.0,,,,,,67.0,,,,16,note_off,,64.0,67.0,64.0,1552,8.083333333333332
70,0.0,,,,,,76.0,,,,16,note_on,,64.0,76.0,64.0,1568,8.166666666666666
71,0.0,,,,,,76.0,,,,16,note_off,,64.0,76.0,64.0,1584,8.25
72,0.0,,,,,,79.0,,,,16,note_on,,64.0,79.0,64.0,1600,8.333333333333332
73,0.0,,,,,,79.0,,,,16,note_off,,64.0,79.0,64.0,1616,8.416666666666666
74,0.0,,,,,,81.0,,,,16,note_on,,64.0,81.0,64.0,1632,8.5
75,0.0,,,,,,81.0,,,,16,note_off,,64.0,81.0,64.0,1648,8.583333333333332
76,0.0,,,,,,77.0,,,,32,note_on,,64.0,77.0,64.0,1680,8.75
77,0.0,,,,,,77.0,,,,16,note_off,,64.0,77.0,64.0,1696,8.833333333333332
78,0.0,,,,,,79.0,,,,8,note_on,,64.0,79.0,64.0,1704,8.875
79,0.0,,,,,,79.0,,,,16,note_off,,64.0,79.0,64.0,1720,8.958333333333332
80,0.0,,,,,,76.0,,,,32,note_on,,64.0,76.0,64.0,1752,9.125
81,0.0,,,,,,76.0,,,,16,note_off,,64.0,76.0,64.0,1768,9.208333333333332
82,0.0,,,,,,72.0,,,,32,note_on,,64.0,72.0,64.0,1800,9.375
83,0.0,,,,,,72.0,,,,16,note_off,,64.0,72.0,64.0,1816,9.458333333333332
84,0.0,,,,,,74.0,,,,8,note_on,,64.0,74.0,64.0,1824,9.5
85,0.0,,,,,,74.0,,,,16,note_off,,64.0,74.0,64.0,1840,9.583333333333332
86,0.0,,,,,,71.0,,,,8,note_on,,64.0,71.0,64.0,1848,9.625
87,0.0,,,,,,71.0,,,,16,note_off,,64.0,71.0,64.0,1864,9.708333333333332
88,0.0,,,,,,79.0,,,,104,note_on,,64.0,79.0,64.0,1968,10.25
89,0.0,,,,,,79.0,,,,16,note_off,,64.0,79.0,64.0,1984,10.333333333333332
90,0.0,,,,,,78.0,,,,8,note_on,,64.0,78.0,64.0,1992,10.375
91,0.0,,,,,,78.0,,,,16,note_off,,64.0,78.0,64.0,2008,10.458333333333332
92,0.0,,,,,,77.0,,,,8,note_on,,64.0,77.0,64.0,2016,10.5
93,0.0,,,,,,77.0,,,,16,note_off,,64.0,77.0,64.0,2032,10.583333333333332
94,0.0,,,,,,75.0,,,,8,note_on,,64.0,75.0,64.0,2040,10.625
95,0.0,,,,,,75.0,,,,16,note_off,,64.0,75.0,64.0,2056,10.708333333333332
96,0.0,,,,,,76.0,,,,32,note_on,,64.0,76.0,64.0,2088,10.875
97,0.0,,,,,,76.0,,,,16,note_off,,64.0,76.0,64.0,2104,10.958333333333332
98,0.0,,,,,,68.0,,,,32,note_on,,64.0,68.0,64.0,2136,11.125
99,0.0,,,,,,68.0,,,,16,note_off,,64.0,68.0,64.0,2152,11.208333333333332
100,0.0,,,,,,69.0,,,,8,note_on,,64.0,69.0,64.0,2160,11.25
101,0.0,,,,,,69.0,,,,16,note_off,,64.0,69.0,64.0,2176,11.333333333333332
102,0.0,,,,,,72.0,,,,8,note_on,,64.0,72.0,64.0,2184,11.375
103,0.0,,,,,,72.0,,,,16,note_off,,64.0,72.0,64.0,2200,11.458333333333332
104,0.0,,,,,,69.0,,,,32,note_on,,64.0,69.0,64.0,2232,11.625
105,0.0,,,,,,69.0,,,,16,note_off,,64.0,69.0,64.0,2248,11.708333333333332
106,0.0,,,,,,72.0,,,,8,note_on,,64.0,72.0,64.0,2256,11.75
107,0.0,,,,,,72.0,,,,16,note_off,,64.0,72.0,64.0,2272,11.833333333333332
108,0.0,,,,,,74.0,,,,8,note_on,,64.0,74.0,64.0,2280,11.875
109,0.0,,,,,,74.0,,,,16,note_off,,64.0,74.0,64.0,2296,11.958333333333332
110,0.0,,,,,,79.0,,,,56,note_on,,64.0,79.0,64.0,2352,12.25
111,0.0,,,,,,79.0,,,,16,note_off,,64.0,79.0,64.0,2368,12.333333333333332
112,0.0,,,,,,78.0,,,,8,note_on,,64.0,78.0,64.0,2376,12.375
113,0.0,,,,,,78.0,,,,16,note_off,,64.0,78.0,64.0,2392,12.458333333333332
114,0.0,,,,,,77.0,,,,8,note_on,,64.0,77.0,64.0,2400,12.5
115,0.0,,,,,,77.0,,,,16,note_off,,64.0,77.0,64.0,2416,12.583333333333332
116,0.0,,,,,,75.0,,,,8,note_on,,64.0,75.0,64.0,2424,12.625
117,0.0,,,,,,75.0,,,,16,note_off,,64.0,75.0,64.0,2440,12.708333333333332
118,0.0,,,,,,76.0,,,,32,note_on,,64.0,76.0,64.0,2472,12.875
119,0.0,,,,,,76.0,,,,16,note_off,,64.0,76.0,64.0,2488,12.958333333333332
120,0.0,,,,,,84.0,,,,32,note_on,,64.0,84.0,64.0,2520,13.125
121,0.0,,,,,,84.0,,,,16,note_off,,64.0,84.0,64.0,2536,13.208333333333332
122,0.0,,,,,,84.0,,,,32,note_on,,64.0,84.0,64.0,2568,13.375
123,0.0,,,,,,84.0,,,,16,note_off,,64.0,84.0,64.0,2584,13.458333333333332
124,0.0,,,,,,84.0,,,,8,note_on,,64.0,84.0,64.0,2592,13.5
125,0.0,,,,,,84.0,,,,16,note_off,,64.0,84.0,64.0,2608,13.583333333333332
126,0.0,,,,,,79.0,,,,128,note_on,,64.0,79.0,64.0,2736,14.25
127,0.0,,,,,,79.0,,,,16,note_off,,64.0,79.0,64.0,2752,14.333333333333332
128,0.0,,,,,,78.0,,,,8,note_on,,64.0,78.0,64.0,2760,14.375
129,0.0,,,,,,78.0,,,,16,note_off,,64.0,78.0,64.0,2776,14.458333333333332
130,0.0,,,,,,77.0,,,,8,note_on,,64.0,77.0,64.0,2784,14.5
131,0.0,,,,,,77.0,,,,16,note_off,,64.0,77.0,64.0,2800,14.583333333333332
132,0.0,,,,,,75.0,,,,8,note_on,,64.0,75.0,64.0,2808,14.625
133,0.0,,,,,,75.0,,,,16,note_off,,64.0,75.0,64.0,2824,14.708333333333332
134,0.0,,,,,,76.0,,,,32,note_on,,64.0,76.0,64.0,2856,14.875
135,0.0,,,,,,76.0,,,,16,note_off,,64.0,76.0,64.0,2872,14.958333333333332
136,0.0,,,,,,68.0,,,,32,note_on,,64.0,68.0,64.0,2904,15.125
137,0.0,,,,,,68.0,,,,16,note_off,,64.0,68.0,64.0,2920,15.208333333333332
138,0.0,,,,,,69.0,,,,8,note_on,,64.0,69.0,64.0,2928,15.25
139,0.0,,,,,,69.0,,,,16,note_off,,64.0,69.0,64.0,2944,15.333333333333332
140,0.0,,,,,,72.0,,,,8,note_on,,64.0,72.0,64.0,2952,15.375
141,0.0,,,,,,72.0,,,,16,note_off,,64.0,72.0,64.0,2968,15.458333333333332
142,0.0,,,,,,69.0,,,,32,note_on,,64.0,69.0,64.0,3000,15.625
143,0.0,,,,,,69.0,,,,16,note_off,,64.0,69.0,64.0,3016,15.708333333333332
144,0.0,,,,,,72.0,,,,8,note_on,,64.0,72.0,64.0,3024,15.75
145,0.0,,,,,,72.0,,,,16,note_off,,64.0,72.0,64.0,3040,15.833333333333332
146,0.0,,,,,,74.0,,,,8,note_on,,64.0,74.0,64.0,3048,15.875
147,0.0,,,,,,74.0,,,,16,note_off,,64.0,74.0,64.0,3064,15.958333333333332
148,0.0,,,,,,75.0,,,,56,note_on,,64.0,75.0,64.0,3120,16.25
149,0.0,,,,,,75.0,,,,16,note_off,,64.0,75.0,64.0,3136,16.333333333333332
150,0.0,,,,,,74.0,,,,56,note_on,,64.0,74.0,64.0,3192,16.625
151,0.0,,,,,,74.0,,,,16,note_off,,64.0,74.0,64.0,3208,16.708333333333332
152,0.0,,,,,,72.0,,,,56,note_on,,64.0,72.0,64.0,3264,17.0
153,0.0,,,,,,72.0,,,,16,note_off,,64.0,72.0,64.0,3280,17.083333333333332
154,0.0,,,,,,79.0,,,,224,note_on,,64.0,79.0,64.0,3504,18.25
155,0.0,,,,,,79.0,,,,16,note_off,,64.0,79.0,64.0,3520,18.333333333333332
156,0.0,,,,,,78.0,,,,8,note_on,,64.0,78.0,64.0,3528,18.375
157,0.0,,,,,,78.0,,,,16,note_off,,64.0,78.0,64.0,3544,18.458333333333332
158,0.0,,,,,,77.0,,,,8,note_on,,64.0,77.0,64.0,3552,18.5
159,0.0,,,,,,77.0,,,,16,note_off,,64.0,77.0,64.0,3568,18.583333333333332
160,0.0,,,,,,75.0,,,,8,note_on,,64.0,75.0,64.0,3576,18.625
161,0.0,,,,,,75.0,,,,16,note_off,,64.0,75.0,64.0,3592,18.708333333333332
162,0.0,,,,,,76.0,,,,32,note_on,,64.0,76.0,64.0,3624,18.875
163,0.0,,,,,,76.0,,,,16,note_off,,64.0,76.0,64.0,3640,18.958333333333332
164,0.0,,,,,,68.0,,,,32,note_on,,64.0,68.0,64.0,3672,19.125
165,0.0,,,,,,68.0,,,,16,note_off,,64.0,68.0,64.0,3688,19.208333333333332
166,0.0,,,,,,69.0,,,,8,note_on,,64.0,69.0,64.0,3696,19.25
167,0.0,,,,,,69.0,,,,16,note_off,,64.0,69.0,64.0,3712,19.333333333333332
168,0.0,,,,,,72.0,,,,8,note_on,,64.0,72.0,64.0,3720,19.375
169,0.0,,,,,,72.0,,,,16,note_off,,64.0,72.0,64.0,3736,19.458333333333332
170,0.0,,,,,,69.0,,,,32,note_on,,64.0,69.0,64.0,3768,19.625
171,0.0,,,,,,69.0,,,,16,note_off,,64.0,69.0,64.0,3784,19.708333333333332
172,0.0,,,,,,72.0,,,,8,note_on,,64.0,72.0,64.0,3792,19.75
173,0.0,,,,,,72.0,,,,16,note_off,,64.0,72.0,64.0,3808,19.833333333333332
174,0.0,,,,,,74.0,,,,8,note_on,,64.0,74.0,64.0,3816,19.875
175,0.0,,,,,,74.0,,,,16,note_off,,64.0,74.0,64.0,3832,19.958333333333332
176,0.0,,,,,,79.0,,,,56,note_on,,64.0,79.0,64.0,3888,20.25
177,0.0,,,,,,79.0,,,,16,note_off,,64.0,79.0,64.0,3904,20.333333333333332
178,0.0,,,,,,78.0,,,,8,note_on,,64.0,78.0,64.0,3912,20.375
179,0.0,,,,,,78.0,,,,16,note_off,,64.0,78.0,64.0,3928,20.458333333333332
180,0.0,,,,,,77.0,,,,8,note_on,,64.0,77.0,64.0,3936,20.5
181,0.0,,,,,,77.0,,,,16,note_off,,64.0,77.0,64.0,3952,20.583333333333332
182,0.0,,,,,,75.0,,,,8,note_on,,64.0,75.0,64.0,3960,20.625
183,0.0,,,,,,75.0,,,,16,note_off,,64.0,75.0,64.0,3976,20.708333333333332
184,0.0,,,,,,76.0,,,,32,note_on,,64.0,76.0,64.0,4008,20.875
185,0.0,,,,,,76.0,,,,16,note_off,,64.0,76.0,64.0,4024,20.958333333333332
186,0.0,,,,,,84.0,,,,32,note_on,,64.0,84.0,64.0,4056,21.125
187,0.0,,,,,,84.0,,,,16,note_off,,64.0,84.0,64.0,4072,21.208333333333332
188,0.0,,,,,,84.0,,,,32,note_on,,64.0,84.0,64.0,4104,21.375
189,0.0,,,,,,84.0,,,,16,note_off,,64.0,84.0,64.0,4120,21.458333333333332
190,0.0,,,,,,84.0,,,,8,note_on,,64.0,84.0,64.0,4128,21.5
191,0.0,,,,,,84.0,,,,16,note_off,,64.0,84.0,64.0,4144,21.583333333333332
192,0.0,,,,,,79.0,,,,128,note_on,,64.0,79.0,64.0,4272,22.25
193,0.0,,,,,,79.0,,,,16,note_off,,64.0,79.0,64.0,4288,22.333333333333332
194,0.0,,,,,,78.0,,,,8,note_on,,64.0,78.0,64.0,4296,22.375
195,0.0,,,,,,78.0,,,,16,note_off,,64.0,78.0,64.0,4312,22.458333333333332
196,0.0,,,,,,77.0,,,,8,note_on,,64.0,77.0,64.0,4320,22.5
197,0.0,,,,,,77.0,,,,16,note_off,,64.0,77.0,64.0,4336,22.583333333333332
198,0.0,,,,,,75.0,,,,8,note_on,,64.0,75.0,64.0,4344,22.625
199,0.0,,,,,,75.0,,,,16,note_off,,64.0,75.0,64.0,4360,22.708333333333332
200,0.0,,,,,,76.0,,,,32,note_on,,64.0,76.0,64.0,4392,22.875
201,0.0,,,,,,76.0,,,,16,note_off,,64.0,76.0,64.0,4408,22.958333333333332
202,0.0,,,,,,68.0,,,,32,note_on,,64.0,68.0,64.0,4440,23.125
203,0.0,,,,,,68.0,,,,16,note_off,,64.0,68.0,64.0,4456,23.208333333333332
204,0.0,,,,,,69.0,,,,8,note_on,,64.0,69.0,64.0,4464,23.25
205,0.0,,,,,,69.0,,,,16,note_off,,64.0,69.0,64.0,4480,23.333333333333332
206,0.0,,,,,,72.0,,,,8,note_on,,64.0,72.0,64.0,4488,23.375
207,0.0,,,,,,72.0,,,,16,note_off,,64.0,72.0,64.0,4504,23.458333333333332
208,0.0,,,,,,69.0,,,,32,note_on,,64.0,69.0,64.0,4536,23.625
209,0.0,,,,,,69.0,,,,16,note_off,,64.0,69.0,64.0,4552,23.708333333333332
210,0.0,,,,,,72.0,,,,8,note_on,,64.0,72.0,64.0,4560,23.75
211,0.0,,,,,,72.0,,,,16,note_off,,64.0,72.0,64.0,4576,23.833333333333332
212,0.0,,,,,,74.0,,,,8,note_on,,64.0,74.0,64.0,4584,23.875
213,0.0,,,,,,74.0,,,,16,note_off,,64.0,74.0,64.0,4600,23.958333333333332
214,0.0,,,,,,75.0,,,,56,note_on,,64.0,75.0,64.0,4656,24.25
215,0.0,,,,,,75.0,,,,16,note_off,,64.0,75.0,64.0,4672,24.333333333333332
216,0.0,,,,,,74.0,,,,56,note_on,,64.0,74.0,64.0,4728,24.625
217,0.0,,,,,,74.0,,,,16,note_off,,64.0,74.0,64.0,4744,24.708333333333332
218,0.0,,,,,,72.0,,,,56,note_on,,64.0,72.0,64.0,4800,25.0
219,0.0,,,,,,72.0,,,,16,note_off,,64.0,72.0,64.0,4816,25.083333333333332
220,0.0,,,,,,72.0,,,,176,note_on,,64.0,72.0,64.0,4992,26.0
221,0.0,,,,,,72.0,,,,16,note_off,,64.0,72.0,64.0,5008,26.083333333333332
222,0.0,,,,,,72.0,,,,8,note_on,,64.0,72.0,64.0,5016,26.125
223,0.0,,,,,,72.0,,,,16,note_off,,64.0,72.0,64.0,5032,26.208333333333332
224,0.0,,,,,,72.0,,,,32,note_on,,64.0,72.0,64.0,5064,26.375
225,0.0,,,,,,72.0,,,,16,note_off,,64.0,72.0,64.0,5080,26.458333333333332
226,0.0,,,,,,72.0,,,,32,note_on,,64.0,72.0,64.0,5112,26.625
227,0.0,,,,,,72.0,,,,16,note_off,,64.0,72.0,64.0,5128,26.708333333333332
228,0.0,,,,,,74.0,,,,8,note_on,,64.0,74.0,64.0,5136,26.75
229,0.0,,,,,,74.0,,,,16,note_off,,64.0,74.0,64.0,5152,26.833333333333332
230,0.0,,,,,,76.0,,,,32,note_on,,64.0,76.0,64.0,5184,27.0
231,0.0,,,,,,76.0,,,,16,note_off,,64.0,76.0,64.0,5200,27.083333333333332
232,0.0,,,,,,72.0,,,,8,note_on,,64.0,72.0,64.0,5208,27.125
233,0.0,,,,,,72.0,,,,16,note_off,,64.0,72.0,64.0,5224,27.208333333333332
234,0.0,,,,,,69.0,,,,32,note_on,,64.0,69.0,64.0,5256,27.375
235,0.0,,,,,,69.0,,,,16,note_off,,64.0,69.0,64.0,5272,27.458333333333332
236,0.0,,,,,,67.0,,,,8,note_on,,64.0,67.0,64.0,5280,27.5
237,0.0,,,,,,67.0,,,,16,note_off,,64.0,67.0,64.0,5296,27.583333333333332
238,0.0,,,,,,72.0,,,,80,note_on,,64.0,72.0,64.0,5376,28.0
239,0.0,,,,,,72.0,,,,16,note_off,,64.0,72.0,64.0,5392,28.083333333333332
240,0.0,,,,,,72.0,,,,8,note_on,,64.0,72.0,64.0,5400,28.125
241,0.0,,,,,,72.0,,,,16,note_off,,64.0,72.0,64.0,5416,28.208333333333332
242,0.0,,,,,,72.0,,,,32,note_on,,64.0,72.0,64.0,5448,28.375
243,0.0,,,,,,72.0,,,,16,note_off,,64.0,72.0,64.0,5464,28.458333333333332
244,0.0,,,,,,72.0,,,,32,note_on,,64.0,72.0,64.0,5496,28.625
245,0.0,,,,,,72.0,,,,16,note_off,,64.0,72.0,64.0,5512,28.708333333333332
246,0.0,,,,,,74.0,,,,8,note_on,,64.0,74.0,64.0,5520,28.75
247,0.0,,,,,,74.0,,,,16,note_off,,64.0,74.0,64.0,5536,28.833333333333332
248,0.0,,,,,,76.0,,,,8,note_on,,64.0,76.0,64.0,5544,28.875
249,0.0,,,,,,76.0,,,,16,note_off,,64.0,76.0,64.0,5560,28.958333333333332
250,0.0,,,,,,72.0,,,,200,note_on,,64.0,72.0,64.0,5760,30.0
251,0.0,,,,,,72.0,,,,16,note_off,,64.0,72.0,64.0,5776,30.083333333333332
252,0.0,,,,,,72.0,,,,8,note_on,,64.0,72.0,64.0,5784,30.125
253,0.0,,,,,,72.0,,,,16,note_off,,64.0,72.0,64.0,5800,30.208333333333332
254,0.0,,,,,,72.0,,,,32,note_on,,64.0,72.0,64.0,5832,30.375
255,0.0,,,,,,72.0,,,,16,note_off,,64.0,72.0,64.0,5848,30.458333333333332
256,0.0,,,,,,72.0,,,,32,note_on,,64.0,72.0,64.0,5880,30.625
257,0.0,,,,,,72.0,,,,16,note_off,,64.0,72.0,64.0,5896,30.708333333333332
258,0.0,,,,,,74.0,,,,8,note_on,,64.0,74.0,64.0,5904,30.75
259,0.0,,,,,,74.0,,,,16,note_off,,64.0,74.0,64.0,5920,30.833333333333332
260,0.0,,,,,,76.0,,,,32,note_on,,64.0,76.0,64.0,5952,31.0
261,0.0,,,,,,76.0,,,,16,note_off,,64.0,76.0,64.0,5968,31.083333333333332
262,0.0,,,,,,72.0,,,,8,note_on,,64.0,72.0,64.0,5976,31.125
263,0.0,,,,,,72.0,,,,16,note_off,,64.0,72.0,64.0,5992,31.208333333333332
264,0.0,,,,,,69.0,,,,32,note_on,,64.0,69.0,64.0,6024,31.375
265,0.0,,,,,,69.0,,,,16,note_off,,64.0,69.0,64.0,6040,31.458333333333332
266,0.0,,,,,,67.0,,,,8,note_on,,64.0,67.0,64.0,6048,31.5
267,0.0,,,,,,67.0,,,,16,note_off,,64.0,67.0,64.0,6064,31.583333333333332
268,0.0,,,,,,76.0,,,,80,note_on,,64.0,76.0,64.0,6144,32.0
269,0.0,,,,,,76.0,,,,16,note_off,,64.0,76.0,64.0,6160,32.08333333333333
270,0.0,,,,,,76.0,,,,8,note_on,,64.0,76.0,64.0,6168,32.125
271,0.0,,,,,,76.0,,,,16,note_off,,64.0,76.0,64.0,6184,32.20833333333333
272,0.0,,,,,,76.0,,,,32,note_on,,64.0,76.0,64.0,6216,32.375
273,0.0,,,,,,76.0,,,,16,note_off,,64.0,76.0,64.0,6232,32.45833333333333
274,0.0,,,,,,72.0,,,,32,note_on,,64.0,72.0,64.0,6264,32.625
275,0.0,,,,,,72.0,,,,16,note_off,,64.0,72.0,64.0,6280,32.70833333333333
276,0.0,,,,,,76.0,,,,8,note_on,,64.0,76.0,64.0,6288,32.75
277,0.0,,,,,,76.0,,,,16,note_off,,64.0,76.0,64.0,6304,32.83333333333333
278,0.0,,,,,,79.0,,,,32,note_on,,64.0,79.0,64.0,6336,33.0
279,0.0,,,,,,79.0,,,,16,note_off,,64.0,79.0,64.0,6352,33.08333333333333
280,0.0,,,,,,72.0,,,,176,note_on,,64.0,72.0,64.0,6528,34.0
281,0.0,,,,,,72.0,,,,16,note_off,,64.0,72.0,64.0,6544,34.08333333333333
282,0.0,,,,,,67.0,,,,56,note_on,,64.0,67.0,64.0,6600,34.375
283,0.0,,,,,,67.0,,,,16,note_off,,64.0,67.0,64.0,6616,34.45833333333333
284,0.0,,,,,,64.0,,,,56,note_on,,64.0,64.0,64.0,6672,34.75
285,0.0,,,,,,64.0,,,,16,note_off,,64.0,64.0,64.0,6688,34.83333333333333
286,0.0,,,,,,69.0,,,,56,note_on,,64.0,69.0,64.0,6744,35.125
287,0.0,,,,,,69.0,,,,16,note_off,,64.0,69.0,64.0,6760,35.20833333333333
288,0.0,,,,,,71.0,,,,32,note_on,,64.0,71.0,64.0,6792,35.375
289,0.0,,,,,,71.0,,,,16,note_off,,64.0,71.0,64.0,6808,35.45833333333333
290,0.0,,,,,,70.0,,,,32,note_on,,64.0,70.0,64.0,6840,35.625
291,0.0,,,,,,70.0,,,,16,note_off,,64.0,70.0,64.0,6856,35.70833333333333
292,0.0,,,,,,69.0,,,,8,note_on,,64.0,69.0,64.0,6864,35.75
293,0.0,,,,,,69.0,,,,16,note_off,,64.0,69.0,64.0,6880,35.83333333333333
294,0.0,,,,,,67.0,,,,32,note_on,,64.0,67.0,64.0,6912,36.0
295,0.0,,,,,,67.0,,,,16,note_off,,64.0,67.0,64.0,6928,36.08333333333333
296,0.0,,,,,,76.0,,,,16,note_on,,64.0,76.0,64.0,6944,36.166666666666664
297,0.0,,,,,,76.0,,,,16,note_off,,64.0,76.0,64.0,6960,36.25
298,0.0,,,,,,79.0,,,,16,note_on,,64.0,79.0,64.0,6976,36.33333333333333
299,0.0,,,,,,79.0,,,,16,note_off,,64.0,79.0,64.0,6992,36.416666666666664
300,0.0,,,,,,81.0,,,,16,note_on,,64.0,81.0,64.0,7008,36.5
301,0.0,,,,,,81.0,,,,16,note_off,,64.0,81.0,64.0,7024,36.58333333333333
302,0.0,,,,,,77.0,,,,32,note_on,,64.0,77.0,64.0,7056,36.75
303,0.0,,,,,,77.0,,,,16,note_off,,64.0,77.0,64.0,7072,36.83333333333333
304,0.0,,,,,,79.0,,,,8,note_on,,64.0,79.0,64.0,7080,36.875
305,0.0,,,,,,79.0,,,,16,note_off,,64.0,79.0,64.0,7096,36.95833333333333
306,0.0,,,,,,76.0,,,,32,note_on,,64.0,76.0,64.0,7128,37.125
307,0.0,,,,,,76.0,,,,16,note_off,,64.0,76.0,64.0,7144,37.20833333333333
308,0.0,,,,,,72.0,,,,32,note_on,,64.0,72.0,64.0,7176,37.375
309,0.0,,,,,,72.0,,,,16,note_off,,64.0,72.0,64.0,7192,37.45833333333333
310,0.0,,,,,,74.0,,,,8,note_on,,64.0,74.0,64.0,7200,37.5
311,0.0,,,,,,74.0,,,,16,note_off,,64.0,74.0,64.0,7216,37.58333333333333
312,0.0,,,,,,71.0,,,,8,note_on,,64.0,71.0,64.0,7224,37.625
313,0.0,,,,,,71.0,,,,16,note_off,,64.0,71.0,64.0,7240,37.70833333333333
314,0.0,,,,,,72.0,,,,56,note_on,,64.0,72.0,64.0,7296,38.0
315,0.0,,,,,,72.0,,,,16,note_off,,64.0,72.0,64.0,7312,38.08333333333333
316,0.0,,,,,,67.0,,,,56,note_on,,64.0,67.0,64.0,7368,38.375
317,0.0,,,,,,67.0,,,,16,note_off,,64.0,67.0,64.0,7384,38.45833333333333
318,0.0,,,,,,64.0,,,,56,note_on,,64.0,64.0,64.0,7440,38.75
319,0.0,,,,,,64.0,,,,16,note_off,,64.0,64.0,64.0,7456,38.83333333333333
320,0.0,,,,,,69.0,,,,56,note_on,,64.0,69.0,64.0,7512,39.125
321,0.0,,,,,,69.0,,,,16,note_off,,64.0,69.0,64.0,7528,39.20833333333333
322,0.0,,,,,,71.0,,,,32,note_on,,64.0,71.0,64.0,7560,39.375
323,0.0,,,,,,71.0,,,,16,note_off,,64.0,71.0,64.0,7576,39.45833333333333
324,0.0,,,,,,70.0,,,,32,note_on,,64.0,70.0,64.0,7608,39.625
325,0.0,,,,,,70.0,,,,16,note_off,,64.0,70.0,64.0,7624,39.70833333333333
326,0.0,,,,,,69.0,,,,8,note_on,,64.0,69.0,64.0,7632,39.75
327,0.0,,,,,,69.0,,,,16,note_off,,64.0,69.0,64.0,7648,39.83333333333333
328,0.0,,,,,,67.0,,,,32,note_on,,64.0,67.0,64.0,7680,40.0
329,0.0,,,,,,67.0,,,,16,note_off,,64.0,67.0,64.0,7696,40.08333333333333
330,0.0,,,,,,76.0,,,,16,note_on,,64.0,76.0,64.0,7712,40.166666666666664
331,0.0,,,,,,76.0,,,,16,note_off,,64.0,76.0,64.0,7728,40.25
332,0.0,,,,,,79.0,,,,16,note_on,,64.0,79.0,64.0,7744,40.33333333333333
333,0.0,,,,,,79.0,,,,16,note_off,,64.0,79.0,64.0,7760,40.416666666666664
334,0.0,,,,,,81.0,,,,16,note_on,,64.0,81.0,64.0,7776,40.5
335,0.0,,,,,,81.0,,,,16,note_off,,64.0,81.0,64.0,7792,40.58333333333333
336,0.0,,,,,,77.0,,,,32,note_on,,64.0,77.0,64.0,7824,40.75
337,0.0,,,,,,77.0,,,,16,note_off,,64.0,77.0,64.0,7840,40.83333333333333
338,0.0,,,,,,79.0,,,,8,note_on,,64.0,79.0,64.0,7848,40.875
339,0.0,,,,,,79.0,,,,16,note_off,,64.0,79.0,64.0,7864,40.95833333333333
340,0.0,,,,,,76.0,,,,32,note_on,,64.0,76.0,64.0,7896,41.125
341,0.0,,,,,,76.0,,,,16,note_off,,64.0,76.0,64.0,7912,41.20833333333333
342,0.0,,,,,,72.0,,,,32,note_on,,64.0,72.0,64.0,7944,41.375
343,0.0,,,,,,72.0,,,,16,note_off,,64.0,72.0,64.0,7960,41.45833333333333
344,0.0,,,,,,74.0,,,,8,note_on,,64.0,74.0,64.0,7968,41.5
345,0.0,,,,,,74.0,,,,16,note_off,,64.0,74.0,64.0,7984,41.58333333333333
346,0.0,,,,,,71.0,,,,8,note_on,,64.0,71.0,64.0,7992,41.625
347,0.0,,,,,,71.0,,,,16,note_off,,64.0,71.0,64.0,8008,41.70833333333333
348,0.0,,,,,,76.0,,,,56,note_on,,64.0,76.0,64.0,8064,42.0
349,0.0,,,,,,76.0,,,,16,note_off,,64.0,76.0,64.0,8080,42.08333333333333
350,0.0,,,,,,72.0,,,,8,note_on,,64.0,72.0,64.0,8088,42.125
351,0.0,,,,,,72.0,,,,16,note_off,,64.0,72.0,64.0,8104,42.20833333333333
352,0.0,,,,,,67.0,,,,32,note_on,,64.0,67.0,64.0,8136,42.375
353,0.0,,,,,,67.0,,,,16,note_off,,64.0,67.0,64.0,8152,42.45833333333333
354,0.0,,,,,,68.0,,,,56,note_on,,64.0,68.0,64.0,8208,42.75
355,0.0,,,,,,68.0,,,,16,note_off,,64.0,68.0,64.0,8224,42.83333333333333
356,0.0,,,,,,69.0,,,,32,note_on,,64.0,69.0,64.0,8256,43.0
357,0.0,,,,,,69.0,,,,16,note_off,,64.0,69.0,64.0,8272,43.08333333333333
358,0.0,,,,,,77.0,,,,8,note_on,,64.0,77.0,64.0,8280,43.125
359,0.0,,,,,,77.0,,,,16,note_off,,64.0,77.0,64.0,8296,43.20833333333333
360,0.0,,,,,,77.0,,,,32,note_on,,64.0,77.0,64.0,8328,43.375
361,0.0,,,,,,77.0,,,,16,note_off,,64.0,77.0,64.0,8344,43.45833333333333
362,0.0,,,,,,69.0,,,,8,note_on,,64.0,69.0,64.0,8352,43.5
363,0.0,,,,,,69.0,,,,16,note_off,,64.0,69.0,64.0,8368,43.58333333333333
364,0.0,,,,,,71.0,,,,80,note_on,,64.0,71.0,64.0,8448,44.0
365,0.0,,,,,,71.0,,,,16,note_off,,64.0,71.0,64.0,8464,44.08333333333333
366,0.0,,,,,,81.0,,,,16,note_on,,64.0,81.0,64.0,8480,44.166666666666664
367,0.0,,,,,,81.0,,,,16,note_off,,64.0,81.0,64.0,8496,44.25
368,0.0,,,,,,81.0,,,,16,note_on,,64.0,81.0,64.0,8512,44.33333333333333
369,0.0,,,,,,81.0,,,,16,note_off,,64.0,81.0,64.0,8528,44.416666666666664
370,0.0,,,,,,81.0,,,,16,note_on,,64.0,81.0,64.0,8544,44.5
371,0.0,,,,,,81.0,,,,16,note_off,,64.0,81.0,64.0,8560,44.58333333333333
372,0.0,,,,,,79.0,,,,16,note_on,,64.0,79.0,64.0,8576,44.666666666666664
373,0.0,,,,,,79.0,,,,16,note_off,,64.0,79.0,64.0,8592,44.75
374,0.0,,,,,,77.0,,,,16,note_on,,64.0,77.0,64.0,8608,44.83333333333333
375,0.0,,,,,,77.0,,,,16,note_off,,64.0,77.0,64.0,8624,44.916666666666664
376,0.0,,,,,,76.0,,,,16,note_on,,64.0,76.0,64.0,8640,45.0
377,0.0,,,,,,76.0,,,,16,note_off,,64.0,76.0,64.0,8656,45.08333333333333
378,0.0,,,,,,72.0,,,,8,note_on,,64.0,72.0,64.0,8664,45.125
379,0.0,,,,,,72.0,,,,16,note_off,,64.0,72.0,64.0,8680,45.20833333333333
380,0.0,,,,,,69.0,,,,32,note_on,,64.0,69.0,64.0,8712,45.375
381,0.0,,,,,,69.0,,,,16,note_off,,64.0,69.0,64.0,8728,45.45833333333333
382,0.0,,,,,,67.0,,,,8,note_on,,64.0,67.0,64.0,8736,45.5
383,0.0,,,,,,67.0,,,,16,note_off,,64.0,67.0,64.0,8752,45.58333333333333
384,0.0,,,,,,76.0,,,,80,note_on,,64.0,76.0,64.0,8832,46.0
385,0.0,,,,,,76.0,,,,16,note_off,,64.0,76.0,64.0,8848,46.08333333333333
386,0.0,,,,,,72.0,,,,8,note_on,,64.0,72.0,64.0,8856,46.125
387,0.0,,,,,,72.0,,,,16,note_off,,64.0,72.0,64.0,8872,46.20833333333333
388,0.0,,,,,,67.0,,,,32,note_on,,64.0,67.0,64.0,8904,46.375
389,0.0,,,,,,67.0,,,,16,note_off,,64.0,67.0,64.0,8920,46.45833333333333
390,0.0,,,,,,68.0,,,,56,note_on,,64.0,68.0,64.0,8976,46.75
391,0.0,,,,,,68.0,,,,16,note_off,,64.0,68.0,64.0,8992,46.83333333333333
392,0.0,,,,,,69.0,,,,32,note_on,,64.0,69.0,64.0,9024,47.0
393,0.0,,,,,,69.0,,,,16,note_off,,64.0,69.0,64.0,9040,47.08333333333333
394,0.0,,,,,,77.0,,,,8,note_on,,64.0,77.0,64.0,9048,47.125
395,0.0,,,,,,77.0,,,,16,note_off,,64.0,77.0,64.0,9064,47.20833333333333
396,0.0,,,,,,77.0,,,,32,note_on,,64.0,77.0,64.0,9096,47.375
397,0.0,,,,,,77.0,,,,16,note_off,,64.0,77.0,64.0,9112,47.45833333333333
398,0.0,,,,,,69.0,,,,8,note_on,,64.0,69.0,64.0,9120,47.5
399,0.0,,,,,,69.0,,,,16,note_off,,64.0,69.0,64.0,9136,47.58333333333333
400,0.0,,,,,,71.0,,,,80,note_on,,64.0,71.0,64.0,9216,48.0
401,0.0,,,,,,71.0,,,,16,note_off,,64.0,71.0,64.0,9232,48.08333333333333
402,0.0,,,,,,77.0,,,,8,note_on,,64.0,77.0,64.0,9240,48.125
403,0.0,,,,,,77.0,,,,16,note_off,,64.0,77.0,64.0,9256,48.20833333333333
404,0.0,,,,,,77.0,,,,32,note_on,,64.0,77.0,64.0,9288,48.375
405,0.0,,,,,,77.0,,,,16,note_off,,64.0,77.0,64.0,9304,48.45833333333333
406,0.0,,,,,,77.0,,,,8,note_on,,64.0,77.0,64.0,9312,48.5
407,0.0,,,,,,77.0,,,,16,note_off,,64.0,77.0,64.0,9328,48.58333333333333
408,0.0,,,,,,76.0,,,,16,note_on,,64.0,76.0,64.0,9344,48.666666666666664
409,0.0,,,,,,76.0,,,,16,note_off,,64.0,76.0,64.0,9360,48.75
410,0.0,,,,,,74.0,,,,16,note_on,,64.0,74.0,64.0,9376,48.83333333333333
411,0.0,,,,,,74.0,,,,16,note_off,,64.0,74.0,64.0,9392,48.916666666666664
412,0.0,,,,,,72.0,,,,16,note_on,,64.0,72.0,64.0,9408,49.0
413,0.0,,,,,,72.0,,,,16,note_off,,64.0,72.0,64.0,9424,49.08333333333333
414,0.0,,,,,,76.0,,,,176,note_on,,64.0,76.0,64.0,9600,50.0
415,0.0,,,,,,76.0,,,,16,note_off,,64.0,76.0,64.0,9616,50.08333333333333
416,0.0,,,,,,72.0,,,,8,note_on,,64.0,72.0,64.0,9624,50.125
417,0.0,,,,,,72.0,,,,16,note_off,,64.0,72.0,64.0,9640,50.20833333333333
418,0.0,,,,,,67.0,,,,32,note_on,,64.0,67.0,64.0,9672,50.375
419,0.0,,,,,,67.0,,,,16,note_off,,64.0,67.0,64.0,9688,50.45833333333333
420,0.0,,,,,,68.0,,,,56,note_on,,64.0,68.0,64.0,9744,50.75
421,0.0,,,,,,68.0,,,,16,note_off,,64.0,68.0,64.0,9760,50.83333333333333
422,0.0,,,,,,69.0,,,,32,note_on,,64.0,69.0,64.0,9792,51.0
423,0.0,,,,,,69.0,,,,16,note_off,,64.0,69.0,64.0,9808,51.08333333333333
424,0.0,,,,,,77.0,,,,8,note_on,,64.0,77.0,64.0,9816,51.125
425,0.0,,,,,,77.0,,,,16,note_off,,64.0,77.0,64.0,9832,51.20833333333333
426,0.0,,,,,,77.0,,,,32,note_on,,64.0,77.0,64.0,9864,51.375
427,0.0,,,,,,77.0,,,,16,note_off,,64.0,77.0,64.0,9880,51.45833333333333
428,0.0,,,,,,69.0,,,,8,note_on,,64.0,69.0,64.0,9888,51.5
429,0.0,,,,,,69.0,,,,16,note_off,,64.0,69.0,64.0,9904,51.58333333333333
430,0.0,,,,,,71.0,,,,80,note_on,,64.0,71.0,64.0,9984,52.0
431,0.0,,,,,,71.0,,,,16,note_off,,64.0,71.0,64.0,10000,52.08333333333333
432,0.0,,,,,,81.0,,,,16,note_on,,64.0,81.0,64.0,10016,52.166666666666664
433,0.0,,,,,,81.0,,,,16,note_off,,64.0,81.0,64.0,10032,52.25
434,0.0,,,,,,81.0,,,,16,note_on,,64.0,81.0,64.0,10048,52.33333333333333
435,0.0,,,,,,81.0,,,,16,note_off,,64.0,81.0,64.0,10064,52.416666666666664
436,0.0,,,,,,81.0,,,,16,note_on,,64.0,81.0,64.0,10080,52.5
437,0.0,,,,,,81.0,,,,16,note_off,,64.0,81.0,64.0,10096,52.58333333333333
438,0.0,,,,,,79.0,,,,16,note_on,,64.0,79.0,64.0,10112,52.666666666666664
439,0.0,,,,,,79.0,,,,16,note_off,,64.0,79.0,64.0,10128,52.75
440,0.0,,,,,,77.0,,,,16,note_on,,64.0,77.0,64.0,10144,52.83333333333333
441,0.0,,,,,,77.0,,,,16,note_off,,64.0,77.0,64.0,10160,52.916666666666664
442,0.0,,,,,,76.0,,,,16,note_on,,64.0,76.0,64.0,10176,53.0
443,0.0,,,,,,76.0,,,,16,note_off,,64.0,76.0,64.0,10192,53.08333333333333
444,0.0,,,,,,72.0,,,,8,note_on,,64.0,72.0,64.0,10200,53.125
445,0.0,,,,,,72.0,,,,16,note_off,,64.0,72.0,64.0,10216,53.20833333333333
446,0.0,,,,,,69.0,,,,32,note_on,,64.0,69.0,64.0,10248,53.375
447,0.0,,,,,,69.0,,,,16,note_off,,64.0,69.0,64.0,10264,53.45833333333333
448,0.0,,,,,,67.0,,,,8,note_on,,64.0,67.0,64.0,10272,53.5
449,0.0,,,,,,67.0,,,,16,note_off,,64.0,67.0,64.0,10288,53.58333333333333
450,0.0,,,,,,76.0,,,,80,note_on,,64.0,76.0,64.0,10368,54.0
451,0.0,,,,,,76.0,,,,16,note_off,,64.0,76.0,64.0,10384,54.08333333333333
452,0.0,,,,,,72.0,,,,8,note_on,,64.0,72.0,64.0,10392,54.125
453,0.0,,,,,,72.0,,,,16,note_off,,64.0,72.0,64.0,10408,54.20833333333333
454,0.0,,,,,,67.0,,,,32,note_on,,64.0,67.0,64.0,10440,54.375
455,0.0,,,,,,67.0,,,,16,note_off,,64.0,67.0,64.0,10456,54.45833333333333
456,0.0,,,,,,68.0,,,,56,note_on,,64.0,68.0,64.0,10512,54.75
457,0.0,,,,,,68.0,,,,16,note_off,,64.0,68.0,64.0,10528,54.83333333333333
458,0.0,,,,,,69.0,,,,32,note_on,,64.0,69.0,64.0,10560,55.0
459,0.0,,,,,,69.0,,,,16,note_off,,64.0,69.0,64.0,10576,55.08333333333333
460,0.0,,,,,,77.0,,,,8,note_on,,64.0,77.0,64.0,10584,55.125
461,0.0,,,,,,77.0,,,,16,note_off,,64.0,77.0,64.0,10600,55.20833333333333
462,0.0,,,,,,77.0,,,,32,note_on,,64.0,77.0,64.0,10632,55.375
463,0.0,,,,,,77.0,,,,16,note_off,,64.0,77.0,64.0,10648,55.45833333333333
464,0.0,,,,,,69.0,,,,8,note_on,,64.0,69.0,64.0,10656,55.5
465,0.0,,,,,,69.0,,,,16,note_off,,64.0,69.0,64.0,10672,55.58333333333333
466,0.0,,,,,,71.0,,,,80,note_on,,64.0,71.0,64.0,10752,56.0
467,0.0,,,,,,71.0,,,,16,note_off,,64.0,71.0,64.0,10768,56.08333333333333
468,0.0,,,,,,77.0,,,,8,note_on,,64.0,77.0,64.0,10776,56.125
469,0.0,,,,,,77.0,,,,16,note_off,,64.0,77.0,64.0,10792,56.20833333333333
470,0.0,,,,,,77.0,,,,32,note_on,,64.0,77.0,64.0,10824,56.375
471,0.0,,,,,,77.0,,,,16,note_off,,64.0,77.0,64.0,10840,56.45833333333333
472,0.0,,,,,,77.0,,,,8,note_on,,64.0,77.0,64.0,10848,56.5
473,0.0,,,,,,77.0,,,,16,note_off,,64.0,77.0,64.0,10864,56.58333333333333
474,0.0,,,,,,76.0,,,,16,note_on,,64.0,76.0,64.0,10880,56.666666666666664
475,0.0,,,,,,76.0,,,,16,note_off,,64.0,76.0,64.0,10896,56.75
476,0.0,,,,,,74.0,,,,16,note_on,,64.0,74.0,64.0,10912,56.83333333333333
477,0.0,,,,,,74.0,,,,16,note_off,,64.0,74.0,64.0,10928,56.916666666666664
478,0.0,,,,,,72.0,,,,16,note_on,,64.0,72.0,64.0,10944,57.0
479,0.0,,,,,,72.0,,,,16,note_off,,64.0,72.0,64.0,10960,57.08333333333333
480,0.0,,,,,,72.0,,,,176,note_on,,64.0,72.0,64.0,11136,58.0
481,0.0,,,,,,72.0,,,,16,note_off,,64.0,72.0,64.0,11152,58.08333333333333
482,0.0,,,,,,72.0,,,,8,note_on,,64.0,72.0,64.0,11160,58.125
483,0.0,,,,,,72.0,,,,16,note_off,,64.0,72.0,64.0,11176,58.20833333333333
484,0.0,,,,,,72.0,,,,32,note_on,,64.0,72.0,64.0,11208,58.375
485,0.0,,,,,,72.0,,,,16,note_off,,64.0,72.0,64.0,11224,58.45833333333333
486,0.0,,,,,,72.0,,,,32,note_on,,64.0,72.0,64.0,11256,58.625
487,0.0,,,,,,72.0,,,,16,note_off,,64.0,72.0,64.0,11272,58.70833333333333
488,0.0,,,,,,74.0,,,,8,note_on,,64.0,74.0,64.0,11280,58.75
489,0.0,,,,,,74.0,,,,16,note_off,,64.0,74.0,64.0,11296,58.83333333333333
490,0.0,,,,,,76.0,,,,32,note_on,,64.0,76.0,64.0,11328,59.0
491,0.0,,,,,,76.0,,,,16,note_off,,64.0,76.0,64.0,11344,59.08333333333333
492,0.0,,,,,,72.0,,,,8,note_on,,64.0,72.0,64.0,11352,59.125
493,0.0,,,,,,72.0,,,,16,note_off,,64.0,72.0,64.0,11368,59.20833333333333
494,0.0,,,,,,69.0,,,,32,note_on,,64.0,69.0,64.0,11400,59.375
495,0.0,,,,,,69.0,,,,16,note_off,,64.0,69.0,64.0,11416,59.45833333333333
496,0.0,,,,,,67.0,,,,8,note_on,,64.0,67.0,64.0,11424,59.5
497,0.0,,,,,,67.0,,,,16,note_off,,64.0,67.0,64.0,11440,59.58333333333333
498,0.0,,,,,,72.0,,,,80,note_on,,64.0,72.0,64.0,11520,60.0
499,0.0,,,,,,72.0,,,,16,note_off,,64.0,72.0,64.0,11536,60.08333333333333
500,0.0,,,,,,72.0,,,,8,note_on,,64.0,72.0,64.0,11544,60.125
501,0.0,,,,,,72.0,,,,16,note_off,,64.0,72.0,64.0,11560,60.20833333333333
502,0.0,,,,,,72.0,,,,32,note_on,,64.0,72.0,64.0,11592,60.375
503,0.0,,,,,,72.0,,,,16,note_off,,64.0,72.0,64.0,11608,60.45833333333333
504,0.0,,,,,,72.0,,,,32,note_on,,64.0,72.0,64.0,11640,60.625
505,0.0,,,,,,72.0,,,,16,note_off,,64.0,72.0,64.0,11656,60.70833333333333
506,0.0,,,,,,74.0,,,,8,note_on,,64.0,74.0,64.0,11664,60.75
507,0.0,,,,,,74.0,,,,16,note_off,,64.0,74.0,64.0,11680,60.83333333333333
508,0.0,,,,,,76.0,,,,8,note_on,,64.0,76.0,64.0,11688,60.875
509,0.0,,,,,,76.0,,,,16,note_off,,64.0,76.0,64.0,11704,60.95833333333333
510,0.0,,,,,,72.0,,,,200,note_on,,64.0,72.0,64.0,11904,62.0
511,0.0,,,,,,72.0,,,,16,note_off,,64.0,72.0,64.0,11920,62.08333333333333
512,0.0,,,,,,72.0,,,,8,note_on,,64.0,72.0,64.0,11928,62.125
513,0.0,,,,,,72.0,,,,16,note_off,,64.0,72.0,64.0,11944,62.20833333333333
514,0.0,,,,,,72.0,,,,32,note_on,,64.0,72.0,64.0,11976,62.375
515,0.0,,,,,,72.0,,,,16,note_off,,64.0,72.0,64.0,11992,62.45833333333333
516,0.0,,,,,,72.0,,,,32,note_on,,64.0,72.0,64.0,12024,62.625
517,0.0,,,,,,72.0,,,,16,note_off,,64.0,72.0,64.0,12040,62.70833333333333
518,0.0,,,,,,74.0,,,,8,note_on,,64.0,74.0,64.0,12048,62.75
519,0.0,,,,,,74.0,,,,16,note_off,,64.0,74.0,64.0,12064,62.83333333333333
520,0.0,,,,,,76.0,,,,32,note_on,,64.0,76.0,64.0,12096,63.0
521,0.0,,,,,,76.0,,,,16,note_off,,64.0,76.0,64.0,12112,63.08333333333333
522,0.0,,,,,,72.0,,,,8,note_on,,64.0,72.0,64.0,12120,63.125
523,0.0,,,,,,72.0,,,,16,note_off,,64.0,72.0,64.0,12136,63.20833333333333
524,0.0,,,,,,69.0,,,,32,note_on,,64.0,69.0,64.0,12168,63.375
525,0.0,,,,,,69.0,,,,16,note_off,,64.0,69.0,64.0,12184,63.45833333333333
526,0.0,,,,,,67.0,,,,8,note_on,,64.0,67.0,64.0,12192,63.5
527,0.0,,,,,,67.0,,,,16,note_off,,64.0,67.0,64.0,12208,63.58333333333333
528,0.0,,,,,,76.0,,,,80,note_on,,64.0,76.0,64.0,12288,64.0
529,0.0,,,,,,76.0,,,,16,note_off,,64.0,76.0,64.0,12304,64.08333333333333
530,0.0,,,,,,76.0,,,,8,note_on,,64.0,76.0,64.0,12312,64.125
531,0.0,,,,,,76.0,,,,16,note_off,,64.0,76.0,64.0,12328,64.20833333333333
532,0.0,,,,,,76.0,,,,32,note_on,,64.0,76.0,64.0,12360,64.375
533,0.0,,,,,,76.0,,,,16,note_off,,64.0,76.0,64.0,12376,64.45833333333333
534,0.0,,,,,,72.0,,,,32,note_on,,64.0,72.0,64.0,12408,64.625
535,0.0,,,,,,72.0,,,,16,note_off,,64.0,72.0,64.0,12424,64.70833333333333
536,0.0,,,,,,76.0,,,,8,note_on,,64.0,76.0,64.0,12432,64.75
537,0.0,,,,,,76.0,,,,16,note_off,,64.0,76.0,64.0,12448,64.83333333333333
538,0.0,,,,,,79.0,,,,32,note_on,,64.0,79.0,64.0,12480,65.0
539,0.0,,,,,,79.0,,,,16,note_off,,64.0,79.0,64.0,12496,65.08333333333333
540,0.0,,,,,,76.0,,,,176,note_on,,64.0,76.0,64.0,12672,66.0
541,0.0,,,,,,76.0,,,,16,note_off,,64.0,76.0,64.0,12688,66.08333333333333
542,0.0,,,,,,72.0,,,,8,note_on,,64.0,72.0,64.0,12696,66.125
543,0.0,,,,,,72.0,,,,16,note_off,,64.0,72.0,64.0,12712,66.20833333333333
544,0.0,,,,,,67.0,,,,32,note_on,,64.0,67.0,64.0,12744,66.375
545,0.0,,,,,,67.0,,,,16,note_off,,64.0,67.0,64.0,12760,66.45833333333333
546,0.0,,,,,,68.0,,,,56,note_on,,64.0,68.0,64.0,12816,66.75
547,0.0,,,,,,68.0,,,,16,note_off,,64.0,68.0,64.0,12832,66.83333333333333
548,0.0,,,,,,69.0,,,,32,note_on,,64.0,69.0,64.0,12864,67.0
549,0.0,,,,,,69.0,,,,16,note_off,,64.0,69.0,64.0,12880,67.08333333333333
550,0.0,,,,,,77.0,,,,8,note_on,,64.0,77.0,64.0,12888,67.125
551,0.0,,,,,,77.0,,,,16,note_off,,64.0,77.0,64.0,12904,67.20833333333333
552,0.0,,,,,,77.0,,,,32,note_on,,64.0,77.0,64.0,12936,67.375
553,0.0,,,,,,77.0,,,,16,note_off,,64.0,77.0,64.0,12952,67.45833333333333
554,0.0,,,,,,69.0,,,,8,note_on,,64.0,69.0,64.0,12960,67.5
555,0.0,,,,,,69.0,,,,16,note_off,,64.0,69.0,64.0,12976,67.58333333333333
556,0.0,,,,,,71.0,,,,80,note_on,,64.0,71.0,64.0,13056,68.0
557,0.0,,,,,,71.0,,,,16,note_off,,64.0,71.0,64.0,13072,68.08333333333333
558,0.0,,,,,,81.0,,,,16,note_on,,64.0,81.0,64.0,13088,68.16666666666666
559,0.0,,,,,,81.0,,,,16,note_off,,64.0,81.0,64.0,13104,68.25
560,0.0,,,,,,81.0,,,,16,note_on,,64.0,81.0,64.0,13120,68.33333333333333
561,0.0,,,,,,81.0,,,,16,note_off,,64.0,81.0,64.0,13136,68.41666666666666
562,0.0,,,,,,81.0,,,,16,note_on,,64.0,81.0,64.0,13152,68.5
563,0.0,,,,,,81.0,,,,16,note_off,,64.0,81.0,64.0,13168,68.58333333333333
564,0.0,,,,,,79.0,,,,16,note_on,,64.0,79.0,64.0,13184,68.66666666666666
565,0.0,,,,,,79.0,,,,16,note_off,,64.0,79.0,64.0,13200,68.75
566,0.0,,,,,,77.0,,,,16,note_on,,64.0,77.0,64.0,13216,68.83333333333333
567,0.0,,,,,,77.0,,,,16,note_off,,64.0,77.0,64.0,13232,68.91666666666666
568,0.0,,,,,,76.0,,,,16,note_on,,64.0,76.0,64.0,13248,69.0
569,0.0,,,,,,76.0,,,,16,note_off,,64.0,76.0,64.0,13264,69.08333333333333
570,0.0,,,,,,72.0,,,,8,note_on,,64.0,72.0,64.0,13272,69.125
571,0.0,,,,,,72.0,,,,16,note_off,,64.0,72.0,64.0,13288,69.20833333333333
572,0.0,,,,,,69.0,,,,32,note_on,,64.0,69.0,64.0,13320,69.375
573,0.0,,,,,,69.0,,,,16,note_off,,64.0,69.0,64.0,13336,69.45833333333333
574,0.0,,,,,,67.0,,,,8,note_on,,64.0,67.0,64.0,13344,69.5
575,0.0,,,,,,67.0,,,,16,note_off,,64.0,67.0,64.0,13360,69.58333333333333
576,0.0,,,,,,76.0,,,,80,note_on,,64.0,76.0,64.0,13440,70.0
577,0.0,,,,,,76.0,,,,16,note_off,,64.0,76.0,64.0,13456,70.08333333333333
578,0.0,,,,,,72.0,,,,8,note_on,,64.0,72.0,64.0,13464,70.125
579,0.0,,,,,,72.0,,,,16,note_off,,64.0,72.0,64.0,13480,70.20833333333333
580,0.0,,,,,,67.0,,,,32,note_on,,64.0,67.0,64.0,13512,70.375
581,0.0,,,,,,67.0,,,,16,note_off,,64.0,67.0,64.0,13528,70.45833333333333
582,0.0,,,,,,68.0,,,,56,note_on,,64.0,68.0,64.0,13584,70.75
583,0.0,,,,,,68.0,,,,16,note_off,,64.0,68.0,64.0,13600,70.83333333333333
584,0.0,,,,,,69.0,,,,32,note_on,,64.0,69.0,64.0,13632,71.0
585,0.0,,,,,,69.0,,,,16,note_off,,64.0,69.0,64.0,13648,71.08333333333333
586,0.0,,,,,,77.0,,,,8,note_on,,64.0,77.0,64.0,13656,71.125
587,0.0,,,,,,77.0,,,,16,note_off,,64.0,77.0,64.0,13672,71.20833333333333
588,0.0,,,,,,77.0,,,,32,note_on,,64.0,77.0,64.0,13704,71.375
589,0.0,,,,,,77.0,,,,16,note_off,,64.0,77.0,64.0,13720,71.45833333333333
590,0.0,,,,,,69.0,,,,8,note_on,,64.0,69.0,64.0,13728,71.5
591,0.0,,,,,,69.0,,,,16,note_off,,64.0,69.0,64.0,13744,71.58333333333333
592,0.0,,,,,,71.0,,,,80,note_on,,64.0,71.0,64.0,13824,72.0
593,0.0,,,,,,71.0,,,,16,note_off,,64.0,71.0,64.0,13840,72.08333333333333
594,0.0,,,,,,77.0,,,,8,note_on,,64.0,77.0,64.0,13848,72.125
595,0.0,,,,,,77.0,,,,16,note_off,,64.0,77.0,64.0,13864,72.20833333333333
596,0.0,,,,,,77.0,,,,32,note_on,,64.0,77.0,64.0,13896,72.375
597,0.0,,,,,,77.0,,,,16,note_off,,64.0,77.0,64.0,13912,72.45833333333333
598,0.0,,,,,,77.0,,,,8,note_on,,64.0,77.0,64.0,13920,72.5
599,0.0,,,,,,77.0,,,,16,note_off,,64.0,77.0,64.0,13936,72.58333333333333
600,0.0,,,,,,76.0,,,,16,note_on,,64.0,76.0,64.0,13952,72.66666666666666
601,0.0,,,,,,76.0,,,,16,note_off,,64.0,76.0,64.0,13968,72.75
602,0.0,,,,,,74.0,,,,16,note_on,,64.0,74.0,64.0,13984,72.83333333333333
603,0.0,,,,,,74.0,,,,16,note_off,,64.0,74.0,64.0,14000,72.91666666666666
604,0.0,,,,,,72.0,,,,16,note_on,,64.0,72.0,64.0,14016,73.0
605,0.0,,,,,,72.0,,,,16,note_off,,64.0,72.0,64.0,14032,73.08333333333333
606,,,,,,,,,,,0,end_of_track,,,,,14032,73.08333333333333
607,,,,,Countermelody,,,,,,0,track_name,,,,,14032,73.08333333333333
608,1.0,,0.0,,,,,,,,0,control_change,0.0,,,,14032,73.08333333333333
609,1.0,,,,,,,,26.0,,0,program_change,,,,,14032,73.08333333333333
610,,96.0,,4.0,,8.0,,4.0,,,0,time_signature,,,,,14032,73.08333333333333
611,,,,,,,,,,571428.0,0,set_tempo,,,,,14032,73.08333333333333
612,1.0,,,,,,66.0,,,,0,note_on,,64.0,66.0,64.0,14032,73.08333333333333
613,1.0,,,,,,66.0,,,,16,note_off,,64.0,66.0,64.0,14048,73.16666666666666
614,1.0,,,,,,66.0,,,,8,note_on,,64.0,66.0,64.0,14056,73.20833333333333
615,1.0,,,,,,66.0,,,,16,note_off,,64.0,66.0,64.0,14072,73.29166666666666
616,1.0,,,,,,66.0,,,,32,note_on,,64.0,66.0,64.0,14104,73.45833333333333
617,1.0,,,,,,66.0,,,,16,note_off,,64.0,66.0,64.0,14120,73.54166666666666
618,1.0,,,,,,66.0,,,,32,note_on,,64.0,66.0,64.0,14152,73.70833333333333
619,1.0,,,,,,66.0,,,,16,note_off,,64.0,66.0,64.0,14168,73.79166666666666
620,1.0,,,,,,66.0,,,,8,note_on,,64.0,66.0,64.0,14176,73.83333333333333
621,1.0,,,,,,66.0,,,,16,note_off,,64.0,66.0,64.0,14192,73.91666666666666
622,1.0,,,,,,71.0,,,,32,note_on,,64.0,71.0,64.0,14224,74.08333333333333
623,1.0,,,,,,71.0,,,,16,note_off,,64.0,71.0,64.0,14240,74.16666666666666
624,1.0,,,,,,67.0,,,,80,note_on,,64.0,67.0,64.0,14320,74.58333333333333
625,1.0,,,,,,67.0,,,,16,note_off,,64.0,67.0,64.0,14336,74.66666666666666
626,1.0,,,,,,64.0,,,,80,note_on,,64.0,64.0,64.0,14416,75.08333333333333
627,1.0,,,,,,64.0,,,,16,note_off,,64.0,64.0,64.0,14432,75.16666666666666
628,1.0,,,,,,60.0,,,,56,note_on,,64.0,60.0,64.0,14488,75.45833333333333
629,1.0,,,,,,60.0,,,,16,note_off,,64.0,60.0,64.0,14504,75.54166666666666
630,1.0,,,,,,55.0,,,,56,note_on,,64.0,55.0,64.0,14560,75.83333333333333
631,1.0,,,,,,55.0,,,,16,note_off,,64.0,55.0,64.0,14576,75.91666666666666
632,1.0,,,,,,60.0,,,,56,note_on,,64.0,60.0,64.0,14632,76.20833333333333
633,1.0,,,,,,60.0,,,,16,note_off,,64.0,60.0,64.0,14648,76.29166666666666
634,1.0,,,,,,62.0,,,,32,note_on,,64.0,62.0,64.0,14680,76.45833333333333
635,1.0,,,,,,62.0,,,,16,note_off,,64.0,62.0,64.0,14696,76.54166666666666
636,1.0,,,,,,61.0,,,,32,note_on,,64.0,61.0,64.0,14728,76.70833333333333
637,1.0,,,,,,61.0,,,,16,note_off,,64.0,61.0,64.0,14744,76.79166666666666
638,1.0,,,,,,60.0,,,,8,note_on,,64.0,60.0,64.0,14752,76.83333333333333
639,1.0,,,,,,60.0,,,,16,note_off,,64.0,60.0,64.0,14768,76.91666666666666
640,1.0,,,,,,60.0,,,,32,note_on,,64.0,60.0,64.0,14800,77.08333333333333
641,1.0,,,,,,60.0,,,,16,note_off,,64.0,60.0,64.0,14816,77.16666666666666
642,1.0,,,,,,67.0,,,,16,note_on,,64.0,67.0,64.0,14832,77.25
643,1.0,,,,,,67.0,,,,16,note_off,,64.0,67.0,64.0,14848,77.33333333333333
644,1.0,,,,,,71.0,,,,16,note_on,,64.0,71.0,64.0,14864,77.41666666666666
645,1.0,,,,,,71.0,,,,16,note_off,,64.0,71.0,64.0,14880,77.5
646,1.0,,,,,,72.0,,,,16,note_on,,64.0,72.0,64.0,14896,77.58333333333333
647,1.0,,,,,,72.0,,,,16,note_off,,64.0,72.0,64.0,14912,77.66666666666666
648,1.0,,,,,,69.0,,,,32,note_on,,64.0,69.0,64.0,14944,77.83333333333333
649,1.0,,,,,,69.0,,,,16,note_off,,64.0,69.0,64.0,14960,77.91666666666666
650,1.0,,,,,,71.0,,,,8,note_on,,64.0,71.0,64.0,14968,77.95833333333333
651,1.0,,,,,,71.0,,,,16,note_off,,64.0,71.0,64.0,14984,78.04166666666666
652,1.0,,,,,,69.0,,,,32,note_on,,64.0,69.0,64.0,15016,78.20833333333333
653,1.0,,,,,,69.0,,,,16,note_off,,64.0,69.0,64.0,15032,78.29166666666666
654,1.0,,,,,,64.0,,,,32,note_on,,64.0,64.0,64.0,15064,78.45833333333333
655,1.0,,,,,,64.0,,,,16,note_off,,64.0,64.0,64.0,15080,78.54166666666666
656,1.0,,,,,,65.0,,,,8,note_on,,64.0,65.0,64.0,15088,78.58333333333333
657,1.0,,,,,,65.0,,,,16,note_off,,64.0,65.0,64.0,15104,78.66666666666666
658,1.0,,,,,,62.0,,,,8,note_on,,64.0,62.0,64.0,15112,78.70833333333333
659,1.0,,,,,,62.0,,,,16,note_off,,64.0,62.0,64.0,15128,78.79166666666666
660,1.0,,,,,,64.0,,,,56,note_on,,64.0,64.0,64.0,15184,79.08333333333333
661,1.0,,,,,,64.0,,,,16,note_off,,64.0,64.0,64.0,15200,79.16666666666666
662,1.0,,,,,,60.0,,,,56,note_on,,64.0,60.0,64.0,15256,79.45833333333333
663,1.0,,,,,,60.0,,,,16,note_off,,64.0,60.0,64.0,15272,79.54166666666666
664,1.0,,,,,,55.0,,,,56,note_on,,64.0,55.0,64.0,15328,79.83333333333333
665,1.0,,,,,,55.0,,,,16,note_off,,64.0,55.0,64.0,15344,79.91666666666666
666,1.0,,,,,,60.0,,,,56,note_on,,64.0,60.0,64.0,15400,80.20833333333333
667,1.0,,,,,,60.0,,,,16,note_off,,64.0,60.0,64.0,15416,80.29166666666666
668,1.0,,,,,,62.0,,,,32,note_on,,64.0,62.0,64.0,15448,80.45833333333333
669,1.0,,,,,,62.0,,,,16,note_off,,64.0,62.0,64.0,15464,80.54166666666666
670,1.0,,,,,,61.0,,,,32,note_on,,64.0,61.0,64.0,15496,80.70833333333333
671,1.0,,,,,,61.0,,,,16,note_off,,64.0,61.0,64.0,15512,80.79166666666666
672,1.0,,,,,,60.0,,,,8,note_on,,64.0,60.0,64.0,15520,80.83333333333333
673,1.0,,,,,,60.0,,,,16,note_off,,64.0,60.0,64.0,15536,80.91666666666666
674,1.0,,,,,,60.0,,,,32,note_on,,64.0,60.0,64.0,15568,81.08333333333333
675,1.0,,,,,,60.0,,,,16,note_off,,64.0,60.0,64.0,15584,81.16666666666666
676,1.0,,,,,,67.0,,,,16,note_on,,64.0,67.0,64.0,15600,81.25
677,1.0,,,,,,67.0,,,,16,note_off,,64.0,67.0,64.0,15616,81.33333333333333
678,1.0,,,,,,71.0,,,,16,note_on,,64.0,71.0,64.0,15632,81.41666666666666
679,1.0,,,,,,71.0,,,,16,note_off,,64.0,71.0,64.0,15648,81.5
680,1.0,,,,,,72.0,,,,16,note_on,,64.0,72.0,64.0,15664,81.58333333333333
681,1.0,,,,,,72.0,,,,16,note_off,,64.0,72.0,64.0,15680,81.66666666666666
682,1.0,,,,,,69.0,,,,32,note_on,,64.0,69.0,64.0,15712,81.83333333333333
683,1.0,,,,,,69.0,,,,16,note_off,,64.0,69.0,64.0,15728,81.91666666666666
684,1.0,,,,,,71.0,,,,8,note_on,,64.0,71.0,64.0,15736,81.95833333333333
685,1.0,,,,,,71.0,,,,16,note_off,,64.0,71.0,64.0,15752,82.04166666666666
686,1.0,,,,,,69.0,,,,32,note_on,,64.0,69.0,64.0,15784,82.20833333333333
687,1.0,,,,,,69.0,,,,16,note_off,,64.0,69.0,64.0,15800,82.29166666666666
688,1.0,,,,,,64.0,,,,32,note_on,,64.0,64.0,64.0,15832,82.45833333333333
689,1.0,,,,,,64.0,,,,16,note_off,,64.0,64.0,64.0,15848,82.54166666666666
690,1.0,,,,,,65.0,,,,8,note_on,,64.0,65.0,64.0,15856,82.58333333333333
691,1.0,,,,,,65.0,,,,16,note_off,,64.0,65.0,64.0,15872,82.66666666666666
692,1.0,,,,,,62.0,,,,8,note_on,,64.0,62.0,64.0,15880,82.70833333333333
693,1.0,,,,,,62.0,,,,16,note_off,,64.0,62.0,64.0,15896,82.79166666666666
694,1.0,,,,,,76.0,,,,104,note_on,,64.0,76.0,64.0,16000,83.33333333333333
695,1.0,,,,,,76.0,,,,16,note_off,,64.0,76.0,64.0,16016,83.41666666666666
696,1.0,,,,,,75.0,,,,8,note_on,,64.0,75.0,64.0,16024,83.45833333333333
697,1.0,,,,,,75.0,,,,16,note_off,,64.0,75.0,64.0,16040,83.54166666666666
698,1.0,,,,,,74.0,,,,8,note_on,,64.0,74.0,64.0,16048,83.58333333333333
699,1.0,,,,,,74.0,,,,16,note_off,,64.0,74.0,64.0,16064,83.66666666666666
700,1.0,,,,,,71.0,,,,8,note_on,,64.0,71.0,64.0,16072,83.70833333333333
701,1.0,,,,,,71.0,,,,16,note_off,,64.0,71.0,64.0,16088,83.79166666666666
702,1.0,,,,,,72.0,,,,32,note_on,,64.0,72.0,64.0,16120,83.95833333333333
703,1.0,,,,,,72.0,,,,16,note_off,,64.0,72.0,64.0,16136,84.04166666666666
704,1.0,,,,,,64.0,,,,32,note_on,,64.0,64.0,64.0,16168,84.20833333333333
705,1.0,,,,,,64.0,,,,16,note_off,,64.0,64.0,64.0,16184,84.29166666666666
706,1.0,,,,,,65.0,,,,8,note_on,,64.0,65.0,64.0,16192,84.33333333333333
707,1.0,,,,,,65.0,,,,16,note_off,,64.0,65.0,64.0,16208,84.41666666666666
708,1.0,,,,,,67.0,,,,8,note_on,,64.0,67.0,64.0,16216,84.45833333333333
709,1.0,,,,,,67.0,,,,16,note_off,,64.0,67.0,64.0,16232,84.54166666666666
710,1.0,,,,,,60.0,,,,32,note_on,,64.0,60.0,64.0,16264,84.70833333333333
711,1.0,,,,,,60.0,,,,16,note_off,,64.0,60.0,64.0,16280,84.79166666666666
712,1.0,,,,,,64.0,,,,8,note_on,,64.0,64.0,64.0,16288,84.83333333333333
713,1.0,,,,,,64.0,,,,16,note_off,,64.0,64.0,64.0,16304,84.91666666666666
714,1.0,,,,,,65.0,,,,8,note_on,,64.0,65.0,64.0,16312,84.95833333333333
715,1.0,,,,,,65.0,,,,16,note_off,,64.0,65.0,64.0,16328,85.04166666666666
716,1.0,,,,,,76.0,,,,56,note_on,,64.0,76.0,64.0,16384,85.33333333333333
717,1.0,,,,,,76.0,,,,16,note_off,,64.0,76.0,64.0,16400,85.41666666666666
718,1.0,,,,,,75.0,,,,8,note_on,,64.0,75.0,64.0,16408,85.45833333333333
719,1.0,,,,,,75.0,,,,16,note_off,,64.0,75.0,64.0,16424,85.54166666666666
720,1.0,,,,,,74.0,,,,8,note_on,,64.0,74.0,64.0,16432,85.58333333333333
721,1.0,,,,,,74.0,,,,16,note_off,,64.0,74.0,64.0,16448,85.66666666666666
722,1.0,,,,,,71.0,,,,8,note_on,,64.0,71.0,64.0,16456,85.70833333333333
723,1.0,,,,,,71.0,,,,16,note_off,,64.0,71.0,64.0,16472,85.79166666666666
724,1.0,,,,,,72.0,,,,32,note_on,,64.0,72.0,64.0,16504,85.95833333333333
725,1.0,,,,,,72.0,,,,16,note_off,,64.0,72.0,64.0,16520,86.04166666666666
726,1.0,,,,,,77.0,,,,32,note_on,,64.0,77.0,64.0,16552,86.20833333333333
727,1.0,,,,,,77.0,,,,16,note_off,,64.0,77.0,64.0,16568,86.29166666666666
728,1.0,,,,,,77.0,,,,32,note_on,,64.0,77.0,64.0,16600,86.45833333333333
729,1.0,,,,,,77.0,,,,16,note_off,,64.0,77.0,64.0,16616,86.54166666666666
730,1.0,,,,,,77.0,,,,8,note_on,,64.0,77.0,64.0,16624,86.58333333333333
731,1.0,,,,,,77.0,,,,16,note_off,,64.0,77.0,64.0,16640,86.66666666666666
732,1.0,,,,,,76.0,,,,128,note_on,,64.0,76.0,64.0,16768,87.33333333333333
733,1.0,,,,,,76.0,,,,16,note_off,,64.0,76.0,64.0,16784,87.41666666666666
734,1.0,,,,,,75.0,,,,8,note_on,,64.0,75.0,64.0,16792,87.45833333333333
735,1.0,,,,,,75.0,,,,16,note_off,,64.0,75.0,64.0,16808,87.54166666666666
736,1.0,,,,,,74.0,,,,8,note_on,,64.0,74.0,64.0,16816,87.58333333333333
737,1.0,,,,,,74.0,,,,16,note_off,,64.0,74.0,64.0,16832,87.66666666666666
738,1.0,,,,,,71.0,,,,8,note_on,,64.0,71.0,64.0,16840,87.70833333333333
739,1.0,,,,,,71.0,,,,16,note_off,,64.0,71.0,64.0,16856,87.79166666666666
740,1.0,,,,,,72.0,,,,32,note_on,,64.0,72.0,64.0,16888,87.95833333333333
741,1.0,,,,,,72.0,,,,16,note_off,,64.0,72.0,64.0,16904,88.04166666666666
742,1.0,,,,,,64.0,,,,32,note_on,,64.0,64.0,64.0,16936,88.20833333333333
743,1.0,,,,,,64.0,,,,16,note_off,,64.0,64.0,64.0,16952,88.29166666666666
744,1.0,,,,,,65.0,,,,8,note_on,,64.0,65.0,64.0,16960,88.33333333333333
745,1.0,,,,,,65.0,,,,16,note_off,,64.0,65.0,64.0,16976,88.41666666666666
746,1.0,,,,,,67.0,,,,8,note_on,,64.0,67.0,64.0,16984,88.45833333333333
747,1.0,,,,,,67.0,,,,16,note_off,,64.0,67.0,64.0,17000,88.54166666666666
748,1.0,,,,,,60.0,,,,32,note_on,,64.0,60.0,64.0,17032,88.70833333333333
749,1.0,,,,,,60.0,,,,16,note_off,,64.0,60.0,64.0,17048,88.79166666666666
750,1.0,,,,,,64.0,,,,8,note_on,,64.0,64.0,64.0,17056,88.83333333333333
751,1.0,,,,,,64.0,,,,16,note_off,,64.0,64.0,64.0,17072,88.91666666666666
752,1.0,,,,,,65.0,,,,8,note_on,,64.0,65.0,64.0,17080,88.95833333333333
753,1.0,,,,,,65.0,,,,16,note_off,,64.0,65.0,64.0,17096,89.04166666666666
754,1.0,,,,,,68.0,,,,56,note_on,,64.0,68.0,64.0,17152,89.33333333333333
755,1.0,,,,,,68.0,,,,16,note_off,,64.0,68.0,64.0,17168,89.41666666666666
756,1.0,,,,,,65.0,,,,56,note_on,,64.0,65.0,64.0,17224,89.70833333333333
757,1.0,,,,,,65.0,,,,16,note_off,,64.0,65.0,64.0,17240,89.79166666666666
758,1.0,,,,,,64.0,,,,56,note_on,,64.0,64.0,64.0,17296,90.08333333333333
759,1.0,,,,,,64.0,,,,16,note_off,,64.0,64.0,64.0,17312,90.16666666666666
760,1.0,,,,,,76.0,,,,224,note_on,,64.0,76.0,64.0,17536,91.33333333333333
761,1.0,,,,,,76.0,,,,16,note_off,,64.0,76.0,64.0,17552,91.41666666666666
762,1.0,,,,,,75.0,,,,8,note_on,,64.0,75.0,64.0,17560,91.45833333333333
763,1.0,,,,,,75.0,,,,16,note_off,,64.0,75.0,64.0,17576,91.54166666666666
764,1.0,,,,,,74.0,,,,8,note_on,,64.0,74.0,64.0,17584,91.58333333333333
765,1.0,,,,,,74.0,,,,16,note_off,,64.0,74.0,64.0,17600,91.66666666666666
766,1.0,,,,,,71.0,,,,8,note_on,,64.0,71.0,64.0,17608,91.70833333333333
767,1.0,,,,,,71.0,,,,16,note_off,,64.0,71.0,64.0,17624,91.79166666666666
768,1.0,,,,,,72.0,,,,32,note_on,,64.0,72.0,64.0,17656,91.95833333333333
769,1.0,,,,,,72.0,,,,16,note_off,,64.0,72.0,64.0,17672,92.04166666666666
770,1.0,,,,,,64.0,,,,32,note_on,,64.0,64.0,64.0,17704,92.20833333333333
771,1.0,,,,,,64.0,,,,16,note_off,,64.0,64.0,64.0,17720,92.29166666666666
772,1.0,,,,,,65.0,,,,8,note_on,,64.0,65.0,64.0,17728,92.33333333333333
773,1.0,,,,,,65.0,,,,16,note_off,,64.0,65.0,64.0,17744,92.41666666666666
774,1.0,,,,,,67.0,,,,8,note_on,,64.0,67.0,64.0,17752,92.45833333333333
775,1.0,,,,,,67.0,,,,16,note_off,,64.0,67.0,64.0,17768,92.54166666666666
776,1.0,,,,,,60.0,,,,32,note_on,,64.0,60.0,64.0,17800,92.70833333333333
777,1.0,,,,,,60.0,,,,16,note_off,,64.0,60.0,64.0,17816,92.79166666666666
778,1.0,,,,,,64.0,,,,8,note_on,,64.0,64.0,64.0,17824,92.83333333333333
779,1.0,,,,,,64.0,,,,16,note_off,,64.0,64.0,64.0,17840,92.91666666666666
780,1.0,,,,,,65.0,,,,8,note_on,,64.0,65.0,64.0,17848,92.95833333333333
781,1.0,,,,,,65.0,,,,16,note_off,,64.0,65.0,64.0,17864,93.04166666666666
782,1.0,,,,,,76.0,,,,56,note_on,,64.0,76.0,64.0,17920,93.33333333333333
783,1.0,,,,,,76.0,,,,16,note_off,,64.0,76.0,64.0,17936,93.41666666666666
784,1.0,,,,,,75.0,,,,8,note_on,,64.0,75.0,64.0,17944,93.45833333333333
785,1.0,,,,,,75.0,,,,16,note_off,,64.0,75.0,64.0,17960,93.54166666666666
786,1.0,,,,,,74.0,,,,8,note_on,,64.0,74.0,64.0,17968,93.58333333333333
787,1.0,,,,,,74.0,,,,16,note_off,,64.0,74.0,64.0,17984,93.66666666666666
788,1.0,,,,,,71.0,,,,8,note_on,,64.0,71.0,64.0,17992,93.70833333333333
789,1.0,,,,,,71.0,,,,16,note_off,,64.0,71.0,64.0,18008,93.79166666666666
790,1.0,,,,,,72.0,,,,32,note_on,,64.0,72.0,64.0,18040,93.95833333333333
791,1.0,,,,,,72.0,,,,16,note_off,,64.0,72.0,64.0,18056,94.04166666666666
792,1.0,,,,,,77.0,,,,32,note_on,,64.0,77.0,64.0,18088,94.20833333333333
793,1.0,,,,,,77.0,,,,16,note_off,,64.0,77.0,64.0,18104,94.29166666666666
794,1.0,,,,,,77.0,,,,32,note_on,,64.0,77.0,64.0,18136,94.45833333333333
795,1.0,,,,,,77.0,,,,16,note_off,,64.0,77.0,64.0,18152,94.54166666666666
796,1.0,,,,,,77.0,,,,8,note_on,,64.0,77.0,64.0,18160,94.58333333333333
797,1.0,,,,,,77.0,,,,16,note_off,,64.0,77.0,64.0,18176,94.66666666666666
798,1.0,,,,,,76.0,,,,128,note_on,,64.0,76.0,64.0,18304,95.33333333333333
799,1.0,,,,,,76.0,,,,16,note_off,,64.0,76.0,64.0,18320,95.41666666666666
800,1.0,,,,,,75.0,,,,8,note_on,,64.0,75.0,64.0,18328,95.45833333333333
801,1.0,,,,,,75.0,,,,16,note_off,,64.0,75.0,64.0,18344,95.54166666666666
802,1.0,,,,,,74.0,,,,8,note_on,,64.0,74.0,64.0,18352,95.58333333333333
803,1.0,,,,,,74.0,,,,16,note_off,,64.0,74.0,64.0,18368,95.66666666666666
804,1.0,,,,,,71.0,,,,8,note_on,,64.0,71.0,64.0,18376,95.70833333333333
805,1.0,,,,,,71.0,,,,16,note_off,,64.0,71.0,64.0,18392,95.79166666666666
806,1.0,,,,,,72.0,,,,32,note_on,,64.0,72.0,64.0,18424,95.95833333333333
807,1.0,,,,,,72.0,,,,16,note_off,,64.0,72.0,64.0,18440,96.04166666666666
808,1.0,,,,,,64.0,,,,32,note_on,,64.0,64.0,64.0,18472,96.20833333333333
809,1.0,,,,,,64.0,,,,16,note_off,,64.0,64.0,64.0,18488,96.29166666666666
810,1.0,,,,,,65.0,,,,8,note_on,,64.0,65.0,64.0,18496,96.33333333333333
811,1.0,,,,,,65.0,,,,16,note_off,,64.0,65.0,64.0,18512,96.41666666666666
812,1.0,,,,,,67.0,,,,8,note_on,,64.0,67.0,64.0,18520,96.45833333333333
813,1.0,,,,,,67.0,,,,16,note_off,,64.0,67.0,64.0,18536,96.54166666666666
814,1.0,,,,,,60.0,,,,32,note_on,,64.0,60.0,64.0,18568,96.70833333333333
815,1.0,,,,,,60.0,,,,16,note_off,,64.0,60.0,64.0,18584,96.79166666666666
816,1.0,,,,,,64.0,,,,8,note_on,,64.0,64.0,64.0,18592,96.83333333333333
817,1.0,,,,,,64.0,,,,16,note_off,,64.0,64.0,64.0,18608,96.91666666666666
818,1.0,,,,,,65.0,,,,8,note_on,,64.0,65.0,64.0,18616,96.95833333333333
819,1.0,,,,,,65.0,,,,16,note_off,,64.0,65.0,64.0,18632,97.04166666666666
820,1.0,,,,,,68.0,,,,56,note_on,,64.0,68.0,64.0,18688,97.33333333333333
821,1.0,,,,,,68.0,,,,16,note_off,,64.0,68.0,64.0,18704,97.41666666666666
822,1.0,,,,,,65.0,,,,56,note_on,,64.0,65.0,64.0,18760,97.70833333333333
823,1.0,,,,,,65.0,,,,16,note_off,,64.0,65.0,64.0,18776,97.79166666666666
824,1.0,,,,,,64.0,,,,56,note_on,,64.0,64.0,64.0,18832,98.08333333333333
825,1.0,,,,,,64.0,,,,16,note_off,,64.0,64.0,64.0,18848,98.16666666666666
826,1.0,,,,,,68.0,,,,176,note_on,,64.0,68.0,64.0,19024,99.08333333333333
827,1.0,,,,,,68.0,,,,16,note_off,,64.0,68.0,64.0,19040,99.16666666666666
828,1.0,,,,,,68.0,,,,8,note_on,,64.0,68.0,64.0,19048,99.20833333333333
829,1.0,,,,,,68.0,,,,16,note_off,,64.0,68.0,64.0,19064,99.29166666666666
830,1.0,,,,,,68.0,,,,32,note_on,,64.0,68.0,64.0,19096,99.45833333333333
831,1.0,,,,,,68.0,,,,16,note_off,,64.0,68.0,64.0,19112,99.54166666666666
832,1.0,,,,,,68.0,,,,32,note_on,,64.0,68.0,64.0,19144,99.70833333333333
833,1.0,,,,,,68.0,,,,16,note_off,,64.0,68.0,64.0,19160,99.79166666666666
834,1.0,,,,,,70.0,,,,8,note_on,,64.0,70.0,64.0,19168,99.83333333333333
835,1.0,,,,,,70.0,,,,16,note_off,,64.0,70.0,64.0,19184,99.91666666666666
836,1.0,,,,,,67.0,,,,32,note_on,,64.0,67.0,64.0,19216,100.08333333333333
837,1.0,,,,,,67.0,,,,16,note_off,,64.0,67.0,64.0,19232,100.16666666666666
838,1.0,,,,,,64.0,,,,8,note_on,,64.0,64.0,64.0,19240,100.20833333333333
839,1.0,,,,,,64.0,,,,16,note_off,,64.0,64.0,64.0,19256,100.29166666666666
840,1.0,,,,,,64.0,,,,32,note_on,,64.0,64.0,64.0,19288,100.45833333333333
841,1.0,,,,,,64.0,,,,16,note_off,,64.0,64.0,64.0,19304,100.54166666666666
842,1.0,,,,,,60.0,,,,8,note_on,,64.0,60.0,64.0,19312,100.58333333333333
843,1.0,,,,,,60.0,,,,16,note_off,,64.0,60.0,64.0,19328,100.66666666666666
844,1.0,,,,,,68.0,,,,80,note_on,,64.0,68.0,64.0,19408,101.08333333333333
845,1.0,,,,,,68.0,,,,16,note_off,,64.0,68.0,64.0,19424,101.16666666666666
846,1.0,,,,,,68.0,,,,8,note_on,,64.0,68.0,64.0,19432,101.20833333333333
847,1.0,,,,,,68.0,,,,16,note_off,,64.0,68.0,64.0,19448,101.29166666666666
848,1.0,,,,,,68.0,,,,32,note_on,,64.0,68.0,64.0,19480,101.45833333333333
849,1.0,,,,,,68.0,,,,16,note_off,,64.0,68.0,64.0,19496,101.54166666666666
850,1.0,,,,,,68.0,,,,32,note_on,,64.0,68.0,64.0,19528,101.70833333333333
851,1.0,,,,,,68.0,,,,16,note_off,,64.0,68.0,64.0,19544,101.79166666666666
852,1.0,,,,,,70.0,,,,8,note_on,,64.0,70.0,64.0,19552,101.83333333333333
853,1.0,,,,,,70.0,,,,16,note_off,,64.0,70.0,64.0,19568,101.91666666666666
854,1.0,,,,,,67.0,,,,8,note_on,,64.0,67.0,64.0,19576,101.95833333333333
855,1.0,,,,,,67.0,,,,16,note_off,,64.0,67.0,64.0,19592,102.04166666666666
856,1.0,,,,,,68.0,,,,200,note_on,,64.0,68.0,64.0,19792,103.08333333333333
857,1.0,,,,,,68.0,,,,16,note_off,,64.0,68.0,64.0,19808,103.16666666666666
858,1.0,,,,,,68.0,,,,8,note_on,,64.0,68.0,64.0,19816,103.20833333333333
859,1.0,,,,,,68.0,,,,16,note_off,,64.0,68.0,64.0,19832,103.29166666666666
860,1.0,,,,,,68.0,,,,32,note_on,,64.0,68.0,64.0,19864,103.45833333333333
861,1.0,,,,,,68.0,,,,16,note_off,,64.0,68.0,64.0,19880,103.54166666666666
862,1.0,,,,,,68.0,,,,32,note_on,,64.0,68.0,64.0,19912,103.70833333333333
863,1.0,,,,,,68.0,,,,16,note_off,,64.0,68.0,64.0,19928,103.79166666666666
864,1.0,,,,,,70.0,,,,8,note_on,,64.0,70.0,64.0,19936,103.83333333333333
865,1.0,,,,,,70.0,,,,16,note_off,,64.0,70.0,64.0,19952,103.91666666666666
866,1.0,,,,,,67.0,,,,32,note_on,,64.0,67.0,64.0,19984,104.08333333333333
867,1.0,,,,,,67.0,,,,16,note_off,,64.0,67.0,64.0,20000,104.16666666666666
868,1.0,,,,,,64.0,,,,8,note_on,,64.0,64.0,64.0,20008,104.20833333333333
869,1.0,,,,,,64.0,,,,16,note_off,,64.0,64.0,64.0,20024,104.29166666666666
870,1.0,,,,,,64.0,,,,32,note_on,,64.0,64.0,64.0,20056,104.45833333333333
871,1.0,,,,,,64.0,,,,16,note_off,,64.0,64.0,64.0,20072,104.54166666666666
872,1.0,,,,,,60.0,,,,8,note_on,,64.0,60.0,64.0,20080,104.58333333333333
873,1.0,,,,,,60.0,,,,16,note_off,,64.0,60.0,64.0,20096,104.66666666666666
874,1.0,,,,,,66.0,,,,80,note_on,,64.0,66.0,64.0,20176,105.08333333333333
875,1.0,,,,,,66.0,,,,16,note_off,,64.0,66.0,64.0,20192,105.16666666666666
876,1.0,,,,,,66.0,,,,8,note_on,,64.0,66.0,64.0,20200,105.20833333333333
877,1.0,,,,,,66.0,,,,16,note_off,,64.0,66.0,64.0,20216,105.29166666666666
878,1.0,,,,,,66.0,,,,32,note_on,,64.0,66.0,64.0,20248,105.45833333333333
879,1.0,,,,,,66.0,,,,16,note_off,,64.0,66.0,64.0,20264,105.54166666666666
880,1.0,,,,,,66.0,,,,32,note_on,,64.0,66.0,64.0,20296,105.70833333333333
881,1.0,,,,,,66.0,,,,16,note_off,,64.0,66.0,64.0,20312,105.79166666666666
882,1.0,,,,,,66.0,,,,8,note_on,,64.0,66.0,64.0,20320,105.83333333333333
883,1.0,,,,,,66.0,,,,16,note_off,,64.0,66.0,64.0,20336,105.91666666666666
884,1.0,,,,,,71.0,,,,32,note_on,,64.0,71.0,64.0,20368,106.08333333333333
885,1.0,,,,,,71.0,,,,16,note_off,,64.0,71.0,64.0,20384,106.16666666666666
886,1.0,,,,,,67.0,,,,80,note_on,,64.0,67.0,64.0,20464,106.58333333333333
887,1.0,,,,,,67.0,,,,16,note_off,,64.0,67.0,64.0,20480,106.66666666666666
888,1.0,,,,,,64.0,,,,80,note_on,,64.0,64.0,64.0,20560,107.08333333333333
889,1.0,,,,,,64.0,,,,16,note_off,,64.0,64.0,64.0,20576,107.16666666666666
890,1.0,,,,,,60.0,,,,56,note_on,,64.0,60.0,64.0,20632,107.45833333333333
891,1.0,,,,,,60.0,,,,16,note_off,,64.0,60.0,64.0,20648,107.54166666666666
892,1.0,,,,,,55.0,,,,56,note_on,,64.0,55.0,64.0,20704,107.83333333333333
893,1.0,,,,,,55.0,,,,16,note_off,,64.0,55.0,64.0,20720,107.91666666666666
894,1.0,,,,,,60.0,,,,56,note_on,,64.0,60.0,64.0,20776,108.20833333333333
895,1.0,,,,,,60.0,,,,16,note_off,,64.0,60.0,64.0,20792,108.29166666666666
896,1.0,,,,,,62.0,,,,32,note_on,,64.0,62.0,64.0,20824,108.45833333333333
897,1.0,,,,,,62.0,,,,16,note_off,,64.0,62.0,64.0,20840,108.54166666666666
898,1.0,,,,,,61.0,,,,32,note_on,,64.0,61.0,64.0,20872,108.70833333333333
899,1.0,,,,,,61.0,,,,16,note_off,,64.0,61.0,64.0,20888,108.79166666666666
900,1.0,,,,,,60.0,,,,8,note_on,,64.0,60.0,64.0,20896,108.83333333333333
901,1.0,,,,,,60.0,,,,16,note_off,,64.0,60.0,64.0,20912,108.91666666666666
902,1.0,,,,,,60.0,,,,32,note_on,,64.0,60.0,64.0,20944,109.08333333333333
903,1.0,,,,,,60.0,,,,16,note_off,,64.0,60.0,64.0,20960,109.16666666666666
904,1.0,,,,,,67.0,,,,16,note_on,,64.0,67.0,64.0,20976,109.25
905,1.0,,,,,,67.0,,,,16,note_off,,64.0,67.0,64.0,20992,109.33333333333333
906,1.0,,,,,,71.0,,,,16,note_on,,64.0,71.0,64.0,21008,109.41666666666666
907,1.0,,,,,,71.0,,,,16,note_off,,64.0,71.0,64.0,21024,109.5
908,1.0,,,,,,72.0,,,,16,note_on,,64.0,72.0,64.0,21040,109.58333333333333
909,1.0,,,,,,72.0,,,,16,note_off,,64.0,72.0,64.0,21056,109.66666666666666
910,1.0,,,,,,69.0,,,,32,note_on,,64.0,69.0,64.0,21088,109.83333333333333
911,1.0,,,,,,69.0,,,,16,note_off,,64.0,69.0,64.0,21104,109.91666666666666
912,1.0,,,,,,71.0,,,,8,note_on,,64.0,71.0,64.0,21112,109.95833333333333
913,1.0,,,,,,71.0,,,,16,note_off,,64.0,71.0,64.0,21128,110.04166666666666
914,1.0,,,,,,69.0,,,,32,note_on,,64.0,69.0,64.0,21160,110.20833333333333
915,1.0,,,,,,69.0,,,,16,note_off,,64.0,69.0,64.0,21176,110.29166666666666
916,1.0,,,,,,64.0,,,,32,note_on,,64.0,64.0,64.0,21208,110.45833333333333
917,1.0,,,,,,64.0,,,,16,note_off,,64.0,64.0,64.0,21224,110.54166666666666
918,1.0,,,,,,65.0,,,,8,note_on,,64.0,65.0,64.0,21232,110.58333333333333
919,1.0,,,,,,65.0,,,,16,note_off,,64.0,65.0,64.0,21248,110.66666666666666
920,1.0,,,,,,62.0,,,,8,note_on,,64.0,62.0,64.0,21256,110.70833333333333
921,1.0,,,,,,62.0,,,,16,note_off,,64.0,62.0,64.0,21272,110.79166666666666
922,1.0,,,,,,64.0,,,,56,note_on,,64.0,64.0,64.0,21328,111.08333333333333
923,1.0,,,,,,64.0,,,,16,note_off,,64.0,64.0,64.0,21344,111.16666666666666
924,1.0,,,,,,60.0,,,,56,note_on,,64.0,60.0,64.0,21400,111.45833333333333
925,1.0,,,,,,60.0,,,,16,note_off,,64.0,60.0,64.0,21416,111.54166666666666
926,1.0,,,,,,55.0,,,,56,note_on,,64.0,55.0,64.0,21472,111.83333333333333
927,1.0,,,,,,55.0,,,,16,note_off,,64.0,55.0,64.0,21488,111.91666666666666
928,1.0,,,,,,60.0,,,,56,note_on,,64.0,60.0,64.0,21544,112.20833333333333
929,1.0,,,,,,60.0,,,,16,note_off,,64.0,60.0,64.0,21560,112.29166666666666
930,1.0,,,,,,62.0,,,,32,note_on,,64.0,62.0,64.0,21592,112.45833333333333
931,1.0,,,,,,62.0,,,,16,note_off,,64.0,62.0,64.0,21608,112.54166666666666
932,1.0,,,,,,61.0,,,,32,note_on,,64.0,61.0,64.0,21640,112.70833333333333
933,1.0,,,,,,61.0,,,,16,note_off,,64.0,61.0,64.0,21656,112.79166666666666
934,1.0,,,,,,60.0,,,,8,note_on,,64.0,60.0,64.0,21664,112.83333333333333
935,1.0,,,,,,60.0,,,,16,note_off,,64.0,60.0,64.0,21680,112.91666666666666
936,1.0,,,,,,60.0,,,,32,note_on,,64.0,60.0,64.0,21712,113.08333333333333
937,1.0,,,,,,60.0,,,,16,note_off,,64.0,60.0,64.0,21728,113.16666666666666
938,1.0,,,,,,67.0,,,,16,note_on,,64.0,67.0,64.0,21744,113.25
939,1.0,,,,,,67.0,,,,16,note_off,,64.0,67.0,64.0,21760,113.33333333333333
940,1.0,,,,,,71.0,,,,16,note_on,,64.0,71.0,64.0,21776,113.41666666666666
941,1.0,,,,,,71.0,,,,16,note_off,,64.0,71.0,64.0,21792,113.5
942,1.0,,,,,,72.0,,,,16,note_on,,64.0,72.0,64.0,21808,113.58333333333333
943,1.0,,,,,,72.0,,,,16,note_off,,64.0,72.0,64.0,21824,113.66666666666666
944,1.0,,,,,,69.0,,,,32,note_on,,64.0,69.0,64.0,21856,113.83333333333333
945,1.0,,,,,,69.0,,,,16,note_off,,64.0,69.0,64.0,21872,113.91666666666666
946,1.0,,,,,,71.0,,,,8,note_on,,64.0,71.0,64.0,21880,113.95833333333333
947,1.0,,,,,,71.0,,,,16,note_off,,64.0,71.0,64.0,21896,114.04166666666666
948,1.0,,,,,,69.0,,,,32,note_on,,64.0,69.0,64.0,21928,114.20833333333333
949,1.0,,,,,,69.0,,,,16,note_off,,64.0,69.0,64.0,21944,114.29166666666666
950,1.0,,,,,,64.0,,,,32,note_on,,64.0,64.0,64.0,21976,114.45833333333333
951,1.0,,,,,,64.0,,,,16,note_off,,64.0,64.0,64.0,21992,114.54166666666666
952,1.0,,,,,,65.0,,,,8,note_on,,64.0,65.0,64.0,22000,114.58333333333333
953,1.0,,,,,,65.0,,,,16,note_off,,64.0,65.0,64.0,22016,114.66666666666666
954,1.0,,,,,,62.0,,,,8,note_on,,64.0,62.0,64.0,22024,114.70833333333333
955,1.0,,,,,,62.0,,,,16,note_off,,64.0,62.0,64.0,22040,114.79166666666666
956,1.0,,,,,,72.0,,,,56,note_on,,64.0,72.0,64.0,22096,115.08333333333333
957,1.0,,,,,,72.0,,,,16,note_off,,64.0,72.0,64.0,22112,115.16666666666666
958,1.0,,,,,,69.0,,,,8,note_on,,64.0,69.0,64.0,22120,115.20833333333333
959,1.0,,,,,,69.0,,,,16,note_off,,64.0,69.0,64.0,22136,115.29166666666666
960,1.0,,,,,,64.0,,,,32,note_on,,64.0,64.0,64.0,22168,115.45833333333333
961,1.0,,,,,,64.0,,,,16,note_off,,64.0,64.0,64.0,22184,115.54166666666666
962,1.0,,,,,,64.0,,,,56,note_on,,64.0,64.0,64.0,22240,115.83333333333333
963,1.0,,,,,,64.0,,,,16,note_off,,64.0,64.0,64.0,22256,115.91666666666666
964,1.0,,,,,,65.0,,,,32,note_on,,64.0,65.0,64.0,22288,116.08333333333333
965,1.0,,,,,,65.0,,,,16,note_off,,64.0,65.0,64.0,22304,116.16666666666666
966,1.0,,,,,,72.0,,,,8,note_on,,64.0,72.0,64.0,22312,116.20833333333333
967,1.0,,,,,,72.0,,,,16,note_off,,64.0,72.0,64.0,22328,116.29166666666666
968,1.0,,,,,,72.0,,,,32,note_on,,64.0,72.0,64.0,22360,116.45833333333333
969,1.0,,,,,,72.0,,,,16,note_off,,64.0,72.0,64.0,22376,116.54166666666666
970,1.0,,,,,,65.0,,,,8,note_on,,64.0,65.0,64.0,22384,116.58333333333333
971,1.0,,,,,,65.0,,,,16,note_off,,64.0,65.0,64.0,22400,116.66666666666666
972,1.0,,,,,,67.0,,,,80,note_on,,64.0,67.0,64.0,22480,117.08333333333333
973,1.0,,,,,,67.0,,,,16,note_off,,64.0,67.0,64.0,22496,117.16666666666666
974,1.0,,,,,,77.0,,,,16,note_on,,64.0,77.0,64.0,22512,117.25
975,1.0,,,,,,77.0,,,,16,note_off,,64.0,77.0,64.0,22528,117.33333333333333
976,1.0,,,,,,77.0,,,,16,note_on,,64.0,77.0,64.0,22544,117.41666666666666
977,1.0,,,,,,77.0,,,,16,note_off,,64.0,77.0,64.0,22560,117.5
978,1.0,,,,,,77.0,,,,16,note_on,,64.0,77.0,64.0,22576,117.58333333333333
979,1.0,,,,,,77.0,,,,16,note_off,,64.0,77.0,64.0,22592,117.66666666666666
980,1.0,,,,,,76.0,,,,16,note_on,,64.0,76.0,64.0,22608,117.75
981,1.0,,,,,,76.0,,,,16,note_off,,64.0,76.0,64.0,22624,117.83333333333333
982,1.0,,,,,,74.0,,,,16,note_on,,64.0,74.0,64.0,22640,117.91666666666666
983,1.0,,,,,,74.0,,,,16,note_off,,64.0,74.0,64.0,22656,118.0
984,1.0,,,,,,72.0,,,,16,note_on,,64.0,72.0,64.0,22672,118.08333333333333
985,1.0,,,,,,72.0,,,,16,note_off,,64.0,72.0,64.0,22688,118.16666666666666
986,1.0,,,,,,69.0,,,,8,note_on,,64.0,69.0,64.0,22696,118.20833333333333
987,1.0,,,,,,69.0,,,,16,note_off,,64.0,69.0,64.0,22712,118.29166666666666
988,1.0,,,,,,65.0,,,,32,note_on,,64.0,65.0,64.0,22744,118.45833333333333
989,1.0,,,,,,65.0,,,,16,note_off,,64.0,65.0,64.0,22760,118.54166666666666
990,1.0,,,,,,64.0,,,,8,note_on,,64.0,64.0,64.0,22768,118.58333333333333
991,1.0,,,,,,64.0,,,,16,note_off,,64.0,64.0,64.0,22784,118.66666666666666
992,1.0,,,,,,72.0,,,,80,note_on,,64.0,72.0,64.0,22864,119.08333333333333
993,1.0,,,,,,72.0,,,,16,note_off,,64.0,72.0,64.0,22880,119.16666666666666
994,1.0,,,,,,69.0,,,,8,note_on,,64.0,69.0,64.0,22888,119.20833333333333
995,1.0,,,,,,69.0,,,,16,note_off,,64.0,69.0,64.0,22904,119.29166666666666
996,1.0,,,,,,64.0,,,,32,note_on,,64.0,64.0,64.0,22936,119.45833333333333
997,1.0,,,,,,64.0,,,,16,note_off,,64.0,64.0,64.0,22952,119.54166666666666
998,1.0,,,,,,64.0,,,,56,note_on,,64.0,64.0,64.0,23008,119.83333333333333
999,1.0,,,,,,64.0,,,,16,note_off,,64.0,64.0,64.0,23024,119.91666666666666
1000,1.0,,,,,,65.0,,,,32,note_on,,64.0,65.0,64.0,23056,120.08333333333333
1001,1.0,,,,,,65.0,,,,16,note_off,,64.0,65.0,64.0,23072,120.16666666666666
1002,1.0,,,,,,72.0,,,,8,note_on,,64.0,72.0,64.0,23080,120.20833333333333
1003,1.0,,,,,,72.0,,,,16,note_off,,64.0,72.0,64.0,23096,120.29166666666666
1004,1.0,,,,,,72.0,,,,32,note_on,,64.0,72.0,64.0,23128,120.45833333333333
1005,1.0,,,,,,72.0,,,,16,note_off,,64.0,72.0,64.0,23144,120.54166666666666
1006,1.0,,,,,,65.0,,,,8,note_on,,64.0,65.0,64.0,23152,120.58333333333333
1007,1.0,,,,,,65.0,,,,16,note_off,,64.0,65.0,64.0,23168,120.66666666666666
1008,1.0,,,,,,67.0,,,,80,note_on,,64.0,67.0,64.0,23248,121.08333333333333
1009,1.0,,,,,,67.0,,,,16,note_off,,64.0,67.0,64.0,23264,121.16666666666666
1010,1.0,,,,,,74.0,,,,8,note_on,,64.0,74.0,64.0,23272,121.20833333333333
1011,1.0,,,,,,74.0,,,,16,note_off,,64.0,74.0,64.0,23288,121.29166666666666
1012,1.0,,,,,,74.0,,,,32,note_on,,64.0,74.0,64.0,23320,121.45833333333333
1013,1.0,,,,,,74.0,,,,16,note_off,,64.0,74.0,64.0,23336,121.54166666666666
1014,1.0,,,,,,74.0,,,,8,note_on,,64.0,74.0,64.0,23344,121.58333333333333
1015,1.0,,,,,,74.0,,,,16,note_off,,64.0,74.0,64.0,23360,121.66666666666666
1016,1.0,,,,,,72.0,,,,16,note_on,,64.0,72.0,64.0,23376,121.75
1017,1.0,,,,,,72.0,,,,16,note_off,,64.0,72.0,64.0,23392,121.83333333333333
1018,1.0,,,,,,71.0,,,,16,note_on,,64.0,71.0,64.0,23408,121.91666666666666
1019,1.0,,,,,,71.0,,,,16,note_off,,64.0,71.0,64.0,23424,122.0
1020,1.0,,,,,,67.0,,,,16,note_on,,64.0,67.0,64.0,23440,122.08333333333333
1021,1.0,,,,,,67.0,,,,16,note_off,,64.0,67.0,64.0,23456,122.16666666666666
1022,1.0,,,,,,64.0,,,,8,note_on,,64.0,64.0,64.0,23464,122.20833333333333
1023,1.0,,,,,,64.0,,,,16,note_off,,64.0,64.0,64.0,23480,122.29166666666666
1024,1.0,,,,,,64.0,,,,32,note_on,,64.0,64.0,64.0,23512,122.45833333333333
1025,1.0,,,,,,64.0,,,,16,note_off,,64.0,64.0,64.0,23528,122.54166666666666
1026,1.0,,,,,,60.0,,,,8,note_on,,64.0,60.0,64.0,23536,122.58333333333333
1027,1.0,,,,,,60.0,,,,16,note_off,,64.0,60.0,64.0,23552,122.66666666666666
1028,1.0,,,,,,72.0,,,,80,note_on,,64.0,72.0,64.0,23632,123.08333333333333
1029,1.0,,,,,,72.0,,,,16,note_off,,64.0,72.0,64.0,23648,123.16666666666666
1030,1.0,,,,,,69.0,,,,8,note_on,,64.0,69.0,64.0,23656,123.20833333333333
1031,1.0,,,,,,69.0,,,,16,note_off,,64.0,69.0,64.0,23672,123.29166666666666
1032,1.0,,,,,,64.0,,,,32,note_on,,64.0,64.0,64.0,23704,123.45833333333333
1033,1.0,,,,,,64.0,,,,16,note_off,,64.0,64.0,64.0,23720,123.54166666666666
1034,1.0,,,,,,64.0,,,,56,note_on,,64.0,64.0,64.0,23776,123.83333333333333
1035,1.0,,,,,,64.0,,,,16,note_off,,64.0,64.0,64.0,23792,123.91666666666666
1036,1.0,,,,,,65.0,,,,32,note_on,,64.0,65.0,64.0,23824,124.08333333333333
1037,1.0,,,,,,65.0,,,,16,note_off,,64.0,65.0,64.0,23840,124.16666666666666
1038,1.0,,,,,,72.0,,,,8,note_on,,64.0,72.0,64.0,23848,124.20833333333333
1039,1.0,,,,,,72.0,,,,16,note_off,,64.0,72.0,64.0,23864,124.29166666666666
1040,1.0,,,,,,72.0,,,,32,note_on,,64.0,72.0,64.0,23896,124.45833333333333
1041,1.0,,,,,,72.0,,,,16,note_off,,64.0,72.0,64.0,23912,124.54166666666666
1042,1.0,,,,,,65.0,,,,8,note_on,,64.0,65.0,64.0,23920,124.58333333333333
1043,1.0,,,,,,65.0,,,,16,note_off,,64.0,65.0,64.0,23936,124.66666666666666
1044,1.0,,,,,,67.0,,,,80,note_on,,64.0,67.0,64.0,24016,125.08333333333333
1045,1.0,,,,,,67.0,,,,16,note_off,,64.0,67.0,64.0,24032,125.16666666666666
1046,1.0,,,,,,77.0,,,,16,note_on,,64.0,77.0,64.0,24048,125.25
1047,1.0,,,,,,77.0,,,,16,note_off,,64.0,77.0,64.0,24064,125.33333333333333
1048,1.0,,,,,,77.0,,,,16,note_on,,64.0,77.0,64.0,24080,125.41666666666666
1049,1.0,,,,,,77.0,,,,16,note_off,,64.0,77.0,64.0,24096,125.5
1050,1.0,,,,,,77.0,,,,16,note_on,,64.0,77.0,64.0,24112,125.58333333333333
1051,1.0,,,,,,77.0,,,,16,note_off,,64.0,77.0,64.0,24128,125.66666666666666
1052,1.0,,,,,,76.0,,,,16,note_on,,64.0,76.0,64.0,24144,125.75
1053,1.0,,,,,,76.0,,,,16,note_off,,64.0,76.0,64.0,24160,125.83333333333333
1054,1.0,,,,,,74.0,,,,16,note_on,,64.0,74.0,64.0,24176,125.91666666666666
1055,1.0,,,,,,74.0,,,,16,note_off,,64.0,74.0,64.0,24192,126.0
1056,1.0,,,,,,72.0,,,,16,note_on,,64.0,72.0,64.0,24208,126.08333333333333
1057,1.0,,,,,,72.0,,,,16,note_off,,64.0,72.0,64.0,24224,126.16666666666666
1058,1.0,,,,,,69.0,,,,8,note_on,,64.0,69.0,64.0,24232,126.20833333333333
1059,1.0,,,,,,69.0,,,,16,note_off,,64.0,69.0,64.0,24248,126.29166666666666
1060,1.0,,,,,,65.0,,,,32,note_on,,64.0,65.0,64.0,24280,126.45833333333333
1061,1.0,,,,,,65.0,,,,16,note_off,,64.0,65.0,64.0,24296,126.54166666666666
1062,1.0,,,,,,64.0,,,,8,note_on,,64.0,64.0,64.0,24304,126.58333333333333
1063,1.0,,,,,,64.0,,,,16,note_off,,64.0,64.0,64.0,24320,126.66666666666666
1064,1.0,,,,,,72.0,,,,80,note_on,,64.0,72.0,64.0,24400,127.08333333333333
1065,1.0,,,,,,72.0,,,,16,note_off,,64.0,72.0,64.0,24416,127.16666666666666
1066,1.0,,,,,,69.0,,,,8,note_on,,64.0,69.0,64.0,24424,127.20833333333333
1067,1.0,,,,,,69.0,,,,16,note_off,,64.0,69.0,64.0,24440,127.29166666666666
1068,1.0,,,,,,64.0,,,,32,note_on,,64.0,64.0,64.0,24472,127.45833333333333
1069,1.0,,,,,,64.0,,,,16,note_off,,64.0,64.0,64.0,24488,127.54166666666666
1070,1.0,,,,,,64.0,,,,56,note_on,,64.0,64.0,64.0,24544,127.83333333333333
1071,1.0,,,,,,64.0,,,,16,note_off,,64.0,64.0,64.0,24560,127.91666666666666
1072,1.0,,,,,,65.0,,,,32,note_on,,64.0,65.0,64.0,24592,128.08333333333331
1073,1.0,,,,,,65.0,,,,16,note_off,,64.0,65.0,64.0,24608,128.16666666666666
1074,1.0,,,,,,72.0,,,,8,note_on,,64.0,72.0,64.0,24616,128.20833333333331
1075,1.0,,,,,,72.0,,,,16,note_off,,64.0,72.0,64.0,24632,128.29166666666666
1076,1.0,,,,,,72.0,,,,32,note_on,,64.0,72.0,64.0,24664,128.45833333333331
1077,1.0,,,,,,72.0,,,,16,note_off,,64.0,72.0,64.0,24680,128.54166666666666
1078,1.0,,,,,,65.0,,,,8,note_on,,64.0,65.0,64.0,24688,128.58333333333331
1079,1.0,,,,,,65.0,,,,16,note_off,,64.0,65.0,64.0,24704,128.66666666666666
1080,1.0,,,,,,67.0,,,,80,note_on,,64.0,67.0,64.0,24784,129.08333333333331
1081,1.0,,,,,,67.0,,,,16,note_off,,64.0,67.0,64.0,24800,129.16666666666666
1082,1.0,,,,,,74.0,,,,8,note_on,,64.0,74.0,64.0,24808,129.20833333333331
1083,1.0,,,,,,74.0,,,,16,note_off,,64.0,74.0,64.0,24824,129.29166666666666
1084,1.0,,,,,,74.0,,,,32,note_on,,64.0,74.0,64.0,24856,129.45833333333331
1085,1.0,,,,,,74.0,,,,16,note_off,,64.0,74.0,64.0,24872,129.54166666666666
1086,1.0,,,,,,74.0,,,,8,note_on,,64.0,74.0,64.0,24880,129.58333333333331
1087,1.0,,,,,,74.0,,,,16,note_off,,64.0,74.0,64.0,24896,129.66666666666666
1088,1.0,,,,,,72.0,,,,16,note_on,,64.0,72.0,64.0,24912,129.75
1089,1.0,,,,,,72.0,,,,16,note_off,,64.0,72.0,64.0,24928,129.83333333333331
1090,1.0,,,,,,71.0,,,,16,note_on,,64.0,71.0,64.0,24944,129.91666666666666
1091,1.0,,,,,,71.0,,,,16,note_off,,64.0,71.0,64.0,24960,130.0
1092,1.0,,,,,,67.0,,,,16,note_on,,64.0,67.0,64.0,24976,130.08333333333331
1093,1.0,,,,,,67.0,,,,16,note_off,,64.0,67.0,64.0,24992,130.16666666666666
1094,1.0,,,,,,64.0,,,,8,note_on,,64.0,64.0,64.0,25000,130.20833333333331
1095,1.0,,,,,,64.0,,,,16,note_off,,64.0,64.0,64.0,25016,130.29166666666666
1096,1.0,,,,,,64.0,,,,32,note_on,,64.0,64.0,64.0,25048,130.45833333333331
1097,1.0,,,,,,64.0,,,,16,note_off,,64.0,64.0,64.0,25064,130.54166666666666
1098,1.0,,,,,,60.0,,,,8,note_on,,64.0,60.0,64.0,25072,130.58333333333331
1099,1.0,,,,,,60.0,,,,16,note_off,,64.0,60.0,64.0,25088,130.66666666666666
1100,1.0,,,,,,68.0,,,,80,note_on,,64.0,68.0,64.0,25168,131.08333333333331
1101,1.0,,,,,,68.0,,,,16,note_off,,64.0,68.0,64.0,25184,131.16666666666666
1102,1.0,,,,,,68.0,,,,8,note_on,,64.0,68.0,64.0,25192,131.20833333333331
1103,1.0,,,,,,68.0,,,,16,note_off,,64.0,68.0,64.0,25208,131.29166666666666
1104,1.0,,,,,,68.0,,,,32,note_on,,64.0,68.0,64.0,25240,131.45833333333331
1105,1.0,,,,,,68.0,,,,16,note_off,,64.0,68.0,64.0,25256,131.54166666666666
1106,1.0,,,,,,68.0,,,,32,note_on,,64.0,68.0,64.0,25288,131.70833333333331
1107,1.0,,,,,,68.0,,,,16,note_off,,64.0,68.0,64.0,25304,131.79166666666666
1108,1.0,,,,,,70.0,,,,8,note_on,,64.0,70.0,64.0,25312,131.83333333333331
1109,1.0,,,,,,70.0,,,,16,note_off,,64.0,70.0,64.0,25328,131.91666666666666
1110,1.0,,,,,,67.0,,,,32,note_on,,64.0,67.0,64.0,25360,132.08333333333331
1111,1.0,,,,,,67.0,,,,16,note_off,,64.0,67.0,64.0,25376,132.16666666666666
1112,1.0,,,,,,64.0,,,,8,note_on,,64.0,64.0,64.0,25384,132.20833333333331
1113,1.0,,,,,,64.0,,,,16,note_off,,64.0,64.0,64.0,25400,132.29166666666666
1114,1.0,,,,,,64.0,,,,32,note_on,,64.0,64.0,64.0,25432,132.45833333333331
1115,1.0,,,,,,64.0,,,,16,note_off,,64.0,64.0,64.0,25448,132.54166666666666
1116,1.0,,,,,,60.0,,,,8,note_on,,64.0,60.0,64.0,25456,132.58333333333331
1117,1.0,,,,,,60.0,,,,16,note_off,,64.0,60.0,64.0,25472,132.66666666666666
1118,1.0,,,,,,68.0,,,,80,note_on,,64.0,68.0,64.0,25552,133.08333333333331
1119,1.0,,,,,,68.0,,,,16,note_off,,64.0,68.0,64.0,25568,133.16666666666666
1120,1.0,,,,,,68.0,,,,8,note_on,,64.0,68.0,64.0,25576,133.20833333333331
1121,1.0,,,,,,68.0,,,,16,note_off,,64.0,68.0,64.0,25592,133.29166666666666
1122,1.0,,,,,,68.0,,,,32,note_on,,64.0,68.0,64.0,25624,133.45833333333331
1123,1.0,,,,,,68.0,,,,16,note_off,,64.0,68.0,64.0,25640,133.54166666666666
1124,1.0,,,,,,68.0,,,,32,note_on,,64.0,68.0,64.0,25672,133.70833333333331
1125,1.0,,,,,,68.0,,,,16,note_off,,64.0,68.0,64.0,25688,133.79166666666666
1126,1.0,,,,,,70.0,,,,8,note_on,,64.0,70.0,64.0,25696,133.83333333333331
1127,1.0,,,,,,70.0,,,,16,note_off,,64.0,70.0,64.0,25712,133.91666666666666
1128,1.0,,,,,,67.0,,,,8,note_on,,64.0,67.0,64.0,25720,133.95833333333331
1129,1.0,,,,,,67.0,,,,16,note_off,,64.0,67.0,64.0,25736,134.04166666666666
1130,1.0,,,,,,68.0,,,,200,note_on,,64.0,68.0,64.0,25936,135.08333333333331
1131,1.0,,,,,,68.0,,,,16,note_off,,64.0,68.0,64.0,25952,135.16666666666666
1132,1.0,,,,,,68.0,,,,8,note_on,,64.0,68.0,64.0,25960,135.20833333333331
1133,1.0,,,,,,68.0,,,,16,note_off,,64.0,68.0,64.0,25976,135.29166666666666
1134,1.0,,,,,,68.0,,,,32,note_on,,64.0,68.0,64.0,26008,135.45833333333331
1135,1.0,,,,,,68.0,,,,16,note_off,,64.0,68.0,64.0,26024,135.54166666666666
1136,1.0,,,,,,68.0,,,,32,note_on,,64.0,68.0,64.0,26056,135.70833333333331
1137,1.0,,,,,,68.0,,,,16,note_off,,64.0,68.0,64.0,26072,135.79166666666666
1138,1.0,,,,,,70.0,,,,8,note_on,,64.0,70.0,64.0,26080,135.83333333333331
1139,1.0,,,,,,70.0,,,,16,note_off,,64.0,70.0,64.0,26096,135.91666666666666
1140,1.0,,,,,,67.0,,,,32,note_on,,64.0,67.0,64.0,26128,136.08333333333331
1141,1.0,,,,,,67.0,,,,16,note_off,,64.0,67.0,64.0,26144,136.16666666666666
1142,1.0,,,,,,64.0,,,,8,note_on,,64.0,64.0,64.0,26152,136.20833333333331
1143,1.0,,,,,,64.0,,,,16,note_off,,64.0,64.0,64.0,26168,136.29166666666666
1144,1.0,,,,,,64.0,,,,32,note_on,,64.0,64.0,64.0,26200,136.45833333333331
1145,1.0,,,,,,64.0,,,,16,note_off,,64.0,64.0,64.0,26216,136.54166666666666
1146,1.0,,,,,,60.0,,,,8,note_on,,64.0,60.0,64.0,26224,136.58333333333331
1147,1.0,,,,,,60.0,,,,16,note_off,,64.0,60.0,64.0,26240,136.66666666666666
1148,1.0,,,,,,66.0,,,,80,note_on,,64.0,66.0,64.0,26320,137.08333333333331
1149,1.0,,,,,,66.0,,,,16,note_off,,64.0,66.0,64.0,26336,137.16666666666666
1150,1.0,,,,,,66.0,,,,8,note_on,,64.0,66.0,64.0,26344,137.20833333333331
1151,1.0,,,,,,66.0,,,,16,note_off,,64.0,66.0,64.0,26360,137.29166666666666
1152,1.0,,,,,,66.0,,,,32,note_on,,64.0,66.0,64.0,26392,137.45833333333331
1153,1.0,,,,,,66.0,,,,16,note_off,,64.0,66.0,64.0,26408,137.54166666666666
1154,1.0,,,,,,66.0,,,,32,note_on,,64.0,66.0,64.0,26440,137.70833333333331
1155,1.0,,,,,,66.0,,,,16,note_off,,64.0,66.0,64.0,26456,137.79166666666666
1156,1.0,,,,,,66.0,,,,8,note_on,,64.0,66.0,64.0,26464,137.83333333333331
1157,1.0,,,,,,66.0,,,,16,note_off,,64.0,66.0,64.0,26480,137.91666666666666
1158,1.0,,,,,,71.0,,,,32,note_on,,64.0,71.0,64.0,26512,138.08333333333331
1159,1.0,,,,,,71.0,,,,16,note_off,,64.0,71.0,64.0,26528,138.16666666666666
1160,1.0,,,,,,67.0,,,,80,note_on,,64.0,67.0,64.0,26608,138.58333333333331
1161,1.0,,,,,,67.0,,,,16,note_off,,64.0,67.0,64.0,26624,138.66666666666666
1162,1.0,,,,,,72.0,,,,80,note_on,,64.0,72.0,64.0,26704,139.08333333333331
1163,1.0,,,,,,72.0,,,,16,note_off,,64.0,72.0,64.0,26720,139.16666666666666
1164,1.0,,,,,,69.0,,,,8,note_on,,64.0,69.0,64.0,26728,139.20833333333331
1165,1.0,,,,,,69.0,,,,16,note_off,,64.0,69.0,64.0,26744,139.29166666666666
1166,1.0,,,,,,64.0,,,,32,note_on,,64.0,64.0,64.0,26776,139.45833333333331
1167,1.0,,,,,,64.0,,,,16,note_off,,64.0,64.0,64.0,26792,139.54166666666666
1168,1.0,,,,,,64.0,,,,56,note_on,,64.0,64.0,64.0,26848,139.83333333333331
1169,1.0,,,,,,64.0,,,,16,note_off,,64.0,64.0,64.0,26864,139.91666666666666
1170,1.0,,,,,,65.0,,,,32,note_on,,64.0,65.0,64.0,26896,140.08333333333331
1171,1.0,,,,,,65.0,,,,16,note_off,,64.0,65.0,64.0,26912,140.16666666666666
1172,1.0,,,,,,72.0,,,,8,note_on,,64.0,72.0,64.0,26920,140.20833333333331
1173,1.0,,,,,,72.0,,,,16,note_off,,64.0,72.0,64.0,26936,140.29166666666666
1174,1.0,,,,,,72.0,,,,32,note_on,,64.0,72.0,64.0,26968,140.45833333333331
1175,1.0,,,,,,72.0,,,,16,note_off,,64.0,72.0,64.0,26984,140.54166666666666
1176,1.0,,,,,,65.0,,,,8,note_on,,64.0,65.0,64.0,26992,140.58333333333331
1177,1.0,,,,,,65.0,,,,16,note_off,,64.0,65.0,64.0,27008,140.66666666666666
1178,1.0,,,,,,67.0,,,,80,note_on,,64.0,67.0,64.0,27088,141.08333333333331
1179,1.0,,,,,,67.0,,,,16,note_off,,64.0,67.0,64.0,27104,141.16666666666666
1180,1.0,,,,,,77.0,,,,16,note_on,,64.0,77.0,64.0,27120,141.25
1181,1.0,,,,,,77.0,,,,16,note_off,,64.0,77.0,64.0,27136,141.33333333333331
1182,1.0,,,,,,77.0,,,,16,note_on,,64.0,77.0,64.0,27152,141.41666666666666
1183,1.0,,,,,,77.0,,,,16,note_off,,64.0,77.0,64.0,27168,141.5
1184,1.0,,,,,,77.0,,,,16,note_on,,64.0,77.0,64.0,27184,141.58333333333331
1185,1.0,,,,,,77.0,,,,16,note_off,,64.0,77.0,64.0,27200,141.66666666666666
1186,1.0,,,,,,76.0,,,,16,note_on,,64.0,76.0,64.0,27216,141.75
1187,1.0,,,,,,76.0,,,,16,note_off,,64.0,76.0,64.0,27232,141.83333333333331
1188,1.0,,,,,,74.0,,,,16,note_on,,64.0,74.0,64.0,27248,141.91666666666666
1189,1.0,,,,,,74.0,,,,16,note_off,,64.0,74.0,64.0,27264,142.0
1190,1.0,,,,,,72.0,,,,16,note_on,,64.0,72.0,64.0,27280,142.08333333333331
1191,1.0,,,,,,72.0,,,,16,note_off,,64.0,72.0,64.0,27296,142.16666666666666
1192,1.0,,,,,,69.0,,,,8,note_on,,64.0,69.0,64.0,27304,142.20833333333331
1193,1.0,,,,,,69.0,,,,16,note_off,,64.0,69.0,64.0,27320,142.29166666666666
1194,1.0,,,,,,65.0,,,,32,note_on,,64.0,65.0,64.0,27352,142.45833333333331
1195,1.0,,,,,,65.0,,,,16,note_off,,64.0,65.0,64.0,27368,142.54166666666666
1196,1.0,,,,,,64.0,,,,8,note_on,,64.0,64.0,64.0,27376,142.58333333333331
1197,1.0,,,,,,64.0,,,,16,note_off,,64.0,64.0,64.0,27392,142.66666666666666
1198,1.0,,,,,,72.0,,,,80,note_on,,64.0,72.0,64.0,27472,143.08333333333331
1199,1.0,,,,,,72.0,,,,16,note_off,,64.0,72.0,64.0,27488,143.16666666666666
1200,1.0,,,,,,69.0,,,,8,note_on,,64.0,69.0,64.0,27496,143.20833333333331
1201,1.0,,,,,,69.0,,,,16,note_off,,64.0,69.0,64.0,27512,143.29166666666666
1202,1.0,,,,,,64.0,,,,32,note_on,,64.0,64.0,64.0,27544,143.45833333333331
1203,1.0,,,,,,64.0,,,,16,note_off,,64.0,64.0,64.0,27560,143.54166666666666
1204,1.0,,,,,,64.0,,,,56,note_on,,64.0,64.0,64.0,27616,143.83333333333331
1205,1.0,,,,,,64.0,,,,16,note_off,,64.0,64.0,64.0,27632,143.91666666666666
1206,1.0,,,,,,65.0,,,,32,note_on,,64.0,65.0,64.0,27664,144.08333333333331
1207,1.0,,,,,,65.0,,,,16,note_off,,64.0,65.0,64.0,27680,144.16666666666666
1208,1.0,,,,,,72.0,,,,8,note_on,,64.0,72.0,64.0,27688,144.20833333333331
1209,1.0,,,,,,72.0,,,,16,note_off,,64.0,72.0,64.0,27704,144.29166666666666
1210,1.0,,,,,,72.0,,,,32,note_on,,64.0,72.0,64.0,27736,144.45833333333331
1211,1.0,,,,,,72.0,,,,16,note_off,,64.0,72.0,64.0,27752,144.54166666666666
1212,1.0,,,,,,65.0,,,,8,note_on,,64.0,65.0,64.0,27760,144.58333333333331
1213,1.0,,,,,,65.0,,,,16,note_off,,64.0,65.0,64.0,27776,144.66666666666666
1214,1.0,,,,,,67.0,,,,80,note_on,,64.0,67.0,64.0,27856,145.08333333333331
1215,1.0,,,,,,67.0,,,,16,note_off,,64.0,67.0,64.0,27872,145.16666666666666
1216,1.0,,,,,,74.0,,,,8,note_on,,64.0,74.0,64.0,27880,145.20833333333331
1217,1.0,,,,,,74.0,,,,16,note_off,,64.0,74.0,64.0,27896,145.29166666666666
1218,1.0,,,,,,74.0,,,,32,note_on,,64.0,74.0,64.0,27928,145.45833333333331
1219,1.0,,,,,,74.0,,,,16,note_off,,64.0,74.0,64.0,27944,145.54166666666666
1220,1.0,,,,,,74.0,,,,8,note_on,,64.0,74.0,64.0,27952,145.58333333333331
1221,1.0,,,,,,74.0,,,,16,note_off,,64.0,74.0,64.0,27968,145.66666666666666
1222,1.0,,,,,,72.0,,,,16,note_on,,64.0,72.0,64.0,27984,145.75
1223,1.0,,,,,,72.0,,,,16,note_off,,64.0,72.0,64.0,28000,145.83333333333331
1224,1.0,,,,,,71.0,,,,16,note_on,,64.0,71.0,64.0,28016,145.91666666666666
1225,1.0,,,,,,71.0,,,,16,note_off,,64.0,71.0,64.0,28032,146.0
1226,1.0,,,,,,67.0,,,,16,note_on,,64.0,67.0,64.0,28048,146.08333333333331
1227,1.0,,,,,,67.0,,,,16,note_off,,64.0,67.0,64.0,28064,146.16666666666666
1228,1.0,,,,,,64.0,,,,8,note_on,,64.0,64.0,64.0,28072,146.20833333333331
1229,1.0,,,,,,64.0,,,,16,note_off,,64.0,64.0,64.0,28088,146.29166666666666
1230,1.0,,,,,,64.0,,,,32,note_on,,64.0,64.0,64.0,28120,146.45833333333331
1231,1.0,,,,,,64.0,,,,16,note_off,,64.0,64.0,64.0,28136,146.54166666666666
1232,1.0,,,,,,60.0,,,,8,note_on,,64.0,60.0,64.0,28144,146.58333333333331
1233,1.0,,,,,,60.0,,,,16,note_off,,64.0,60.0,64.0,28160,146.66666666666666
1234,,,,,,,,,,,0,end_of_track,,,,,28160,146.66666666666666
1235,,,,,Bass Line,,,,,,0,track_name,,,,,28160,146.66666666666666
1236,2.0,,0.0,,,,,,,,0,control_change,0.0,,,,28160,146.66666666666666
1237,2.0,,,,,,,,26.0,,0,program_change,,,,,28160,146.66666666666666
1238,,96.0,,4.0,,8.0,,4.0,,,0,time_signature,,,,,28160,146.66666666666666
1239,,,,,,,,,,571428.0,0,set_tempo,,,,,28160,146.66666666666666
1240,2.0,,,,,,50.0,,,,0,note_on,,64.0,50.0,64.0,28160,146.66666666666666
1241,2.0,,,,,,50.0,,,,16,note_off,,64.0,50.0,64.0,28176,146.75
1242,2.0,,,,,,50.0,,,,8,note_on,,64.0,50.0,64.0,28184,146.79166666666666
1243,2.0,,,,,,50.0,,,,16,note_off,,64.0,50.0,64.0,28200,146.875
1244,2.0,,,,,,50.0,,,,32,note_on,,64.0,50.0,64.0,28232,147.04166666666666
1245,2.0,,,,,,50.0,,,,16,note_off,,64.0,50.0,64.0,28248,147.125
1246,2.0,,,,,,50.0,,,,32,note_on,,64.0,50.0,64.0,28280,147.29166666666666
1247,2.0,,,,,,50.0,,,,16,note_off,,64.0,50.0,64.0,28296,147.375
1248,2.0,,,,,,50.0,,,,8,note_on,,64.0,50.0,64.0,28304,147.41666666666666
1249,2.0,,,,,,50.0,,,,16,note_off,,64.0,50.0,64.0,28320,147.5
1250,2.0,,,,,,67.0,,,,32,note_on,,64.0,67.0,64.0,28352,147.66666666666666
1251,2.0,,,,,,67.0,,,,16,note_off,,64.0,67.0,64.0,28368,147.75
1252,2.0,,,,,,55.0,,,,80,note_on,,64.0,55.0,64.0,28448,148.16666666666666
1253,2.0,,,,,,55.0,,,,16,note_off,,64.0,55.0,64.0,28464,148.25
1254,2.0,,,,,,55.0,,,,80,note_on,,64.0,55.0,64.0,28544,148.66666666666666
1255,2.0,,,,,,55.0,,,,16,note_off,,64.0,55.0,64.0,28560,148.75
1256,2.0,,,,,,52.0,,,,56,note_on,,64.0,52.0,64.0,28616,149.04166666666666
1257,2.0,,,,,,52.0,,,,16,note_off,,64.0,52.0,64.0,28632,149.125
1258,2.0,,,,,,48.0,,,,56,note_on,,64.0,48.0,64.0,28688,149.41666666666666
1259,2.0,,,,,,48.0,,,,16,note_off,,64.0,48.0,64.0,28704,149.5
1260,2.0,,,,,,53.0,,,,56,note_on,,64.0,53.0,64.0,28760,149.79166666666666
1261,2.0,,,,,,53.0,,,,16,note_off,,64.0,53.0,64.0,28776,149.875
1262,2.0,,,,,,55.0,,,,32,note_on,,64.0,55.0,64.0,28808,150.04166666666666
1263,2.0,,,,,,55.0,,,,16,note_off,,64.0,55.0,64.0,28824,150.125
1264,2.0,,,,,,54.0,,,,32,note_on,,64.0,54.0,64.0,28856,150.29166666666666
1265,2.0,,,,,,54.0,,,,16,note_off,,64.0,54.0,64.0,28872,150.375
1266,2.0,,,,,,53.0,,,,8,note_on,,64.0,53.0,64.0,28880,150.41666666666666
1267,2.0,,,,,,53.0,,,,16,note_off,,64.0,53.0,64.0,28896,150.5
1268,2.0,,,,,,52.0,,,,32,note_on,,64.0,52.0,64.0,28928,150.66666666666666
1269,2.0,,,,,,52.0,,,,16,note_off,,64.0,52.0,64.0,28944,150.75
1270,2.0,,,,,,60.0,,,,16,note_on,,64.0,60.0,64.0,28960,150.83333333333331
1271,2.0,,,,,,60.0,,,,16,note_off,,64.0,60.0,64.0,28976,150.91666666666666
1272,2.0,,,,,,64.0,,,,16,note_on,,64.0,64.0,64.0,28992,151.0
1273,2.0,,,,,,64.0,,,,16,note_off,,64.0,64.0,64.0,29008,151.08333333333331
1274,2.0,,,,,,65.0,,,,16,note_on,,64.0,65.0,64.0,29024,151.16666666666666
1275,2.0,,,,,,65.0,,,,16,note_off,,64.0,65.0,64.0,29040,151.25
1276,2.0,,,,,,62.0,,,,32,note_on,,64.0,62.0,64.0,29072,151.41666666666666
1277,2.0,,,,,,62.0,,,,16,note_off,,64.0,62.0,64.0,29088,151.5
1278,2.0,,,,,,64.0,,,,8,note_on,,64.0,64.0,64.0,29096,151.54166666666666
1279,2.0,,,,,,64.0,,,,16,note_off,,64.0,64.0,64.0,29112,151.625
1280,2.0,,,,,,60.0,,,,32,note_on,,64.0,60.0,64.0,29144,151.79166666666666
1281,2.0,,,,,,60.0,,,,16,note_off,,64.0,60.0,64.0,29160,151.875
1282,2.0,,,,,,57.0,,,,32,note_on,,64.0,57.0,64.0,29192,152.04166666666666
1283,2.0,,,,,,57.0,,,,16,note_off,,64.0,57.0,64.0,29208,152.125
1284,2.0,,,,,,59.0,,,,8,note_on,,64.0,59.0,64.0,29216,152.16666666666666
1285,2.0,,,,,,59.0,,,,16,note_off,,64.0,59.0,64.0,29232,152.25
1286,2.0,,,,,,55.0,,,,8,note_on,,64.0,55.0,64.0,29240,152.29166666666666
1287,2.0,,,,,,55.0,,,,16,note_off,,64.0,55.0,64.0,29256,152.375
1288,2.0,,,,,,55.0,,,,56,note_on,,64.0,55.0,64.0,29312,152.66666666666666
1289,2.0,,,,,,55.0,,,,16,note_off,,64.0,55.0,64.0,29328,152.75
1290,2.0,,,,,,52.0,,,,56,note_on,,64.0,52.0,64.0,29384,153.04166666666666
1291,2.0,,,,,,52.0,,,,16,note_off,,64.0,52.0,64.0,29400,153.125
1292,2.0,,,,,,48.0,,,,56,note_on,,64.0,48.0,64.0,29456,153.41666666666666
1293,2.0,,,,,,48.0,,,,16,note_off,,64.0,48.0,64.0,29472,153.5
1294,2.0,,,,,,53.0,,,,56,note_on,,64.0,53.0,64.0,29528,153.79166666666666
1295,2.0,,,,,,53.0,,,,16,note_off,,64.0,53.0,64.0,29544,153.875
1296,2.0,,,,,,55.0,,,,32,note_on,,64.0,55.0,64.0,29576,154.04166666666666
1297,2.0,,,,,,55.0,,,,16,note_off,,64.0,55.0,64.0,29592,154.125
1298,2.0,,,,,,54.0,,,,32,note_on,,64.0,54.0,64.0,29624,154.29166666666666
1299,2.0,,,,,,54.0,,,,16,note_off,,64.0,54.0,64.0,29640,154.375
1300,2.0,,,,,,53.0,,,,8,note_on,,64.0,53.0,64.0,29648,154.41666666666666
1301,2.0,,,,,,53.0,,,,16,note_off,,64.0,53.0,64.0,29664,154.5
1302,2.0,,,,,,52.0,,,,32,note_on,,64.0,52.0,64.0,29696,154.66666666666666
1303,2.0,,,,,,52.0,,,,16,note_off,,64.0,52.0,64.0,29712,154.75
1304,2.0,,,,,,60.0,,,,16,note_on,,64.0,60.0,64.0,29728,154.83333333333331
1305,2.0,,,,,,60.0,,,,16,note_off,,64.0,60.0,64.0,29744,154.91666666666666
1306,2.0,,,,,,64.0,,,,16,note_on,,64.0,64.0,64.0,29760,155.0
1307,2.0,,,,,,64.0,,,,16,note_off,,64.0,64.0,64.0,29776,155.08333333333331
1308,2.0,,,,,,65.0,,,,16,note_on,,64.0,65.0,64.0,29792,155.16666666666666
1309,2.0,,,,,,65.0,,,,16,note_off,,64.0,65.0,64.0,29808,155.25
1310,2.0,,,,,,62.0,,,,32,note_on,,64.0,62.0,64.0,29840,155.41666666666666
1311,2.0,,,,,,62.0,,,,16,note_off,,64.0,62.0,64.0,29856,155.5
1312,2.0,,,,,,64.0,,,,8,note_on,,64.0,64.0,64.0,29864,155.54166666666666
1313,2.0,,,,,,64.0,,,,16,note_off,,64.0,64.0,64.0,29880,155.625
1314,2.0,,,,,,60.0,,,,32,note_on,,64.0,60.0,64.0,29912,155.79166666666666
1315,2.0,,,,,,60.0,,,,16,note_off,,64.0,60.0,64.0,29928,155.875
1316,2.0,,,,,,57.0,,,,32,note_on,,64.0,57.0,64.0,29960,156.04166666666666
1317,2.0,,,,,,57.0,,,,16,note_off,,64.0,57.0,64.0,29976,156.125
1318,2.0,,,,,,59.0,,,,8,note_on,,64.0,59.0,64.0,29984,156.16666666666666
1319,2.0,,,,,,59.0,,,,16,note_off,,64.0,59.0,64.0,30000,156.25
1320,2.0,,,,,,55.0,,,,8,note_on,,64.0,55.0,64.0,30008,156.29166666666666
1321,2.0,,,,,,55.0,,,,16,note_off,,64.0,55.0,64.0,30024,156.375
1322,2.0,,,,,,48.0,,,,56,note_on,,64.0,48.0,64.0,30080,156.66666666666666
1323,2.0,,,,,,48.0,,,,16,note_off,,64.0,48.0,64.0,30096,156.75
1324,2.0,,,,,,55.0,,,,56,note_on,,64.0,55.0,64.0,30152,157.04166666666666
1325,2.0,,,,,,55.0,,,,16,note_off,,64.0,55.0,64.0,30168,157.125
1326,2.0,,,,,,60.0,,,,56,note_on,,64.0,60.0,64.0,30224,157.41666666666666
1327,2.0,,,,,,60.0,,,,16,note_off,,64.0,60.0,64.0,30240,157.5
1328,2.0,,,,,,53.0,,,,32,note_on,,64.0,53.0,64.0,30272,157.66666666666666
1329,2.0,,,,,,53.0,,,,16,note_off,,64.0,53.0,64.0,30288,157.75
1330,2.0,,,,,,60.0,,,,56,note_on,,64.0,60.0,64.0,30344,158.04166666666666
1331,2.0,,,,,,60.0,,,,16,note_off,,64.0,60.0,64.0,30360,158.125
1332,2.0,,,,,,60.0,,,,8,note_on,,64.0,60.0,64.0,30368,158.16666666666666
1333,2.0,,,,,,60.0,,,,16,note_off,,64.0,60.0,64.0,30384,158.25
1334,2.0,,,,,,53.0,,,,32,note_on,,64.0,53.0,64.0,30416,158.41666666666666
1335,2.0,,,,,,53.0,,,,16,note_off,,64.0,53.0,64.0,30432,158.5
1336,2.0,,,,,,48.0,,,,32,note_on,,64.0,48.0,64.0,30464,158.66666666666666
1337,2.0,,,,,,48.0,,,,16,note_off,,64.0,48.0,64.0,30480,158.75
1338,2.0,,,,,,52.0,,,,56,note_on,,64.0,52.0,64.0,30536,159.04166666666666
1339,2.0,,,,,,52.0,,,,16,note_off,,64.0,52.0,64.0,30552,159.125
1340,2.0,,,,,,55.0,,,,56,note_on,,64.0,55.0,64.0,30608,159.41666666666666
1341,2.0,,,,,,55.0,,,,16,note_off,,64.0,55.0,64.0,30624,159.5
1342,2.0,,,,,,60.0,,,,8,note_on,,64.0,60.0,64.0,30632,159.54166666666666
1343,2.0,,,,,,60.0,,,,16,note_off,,64.0,60.0,64.0,30648,159.625
1344,2.0,,,,,,79.0,,,,32,note_on,,64.0,79.0,64.0,30680,159.79166666666666
1345,2.0,,,,,,79.0,,,,16,note_off,,64.0,79.0,64.0,30696,159.875
1346,2.0,,,,,,79.0,,,,32,note_on,,64.0,79.0,64.0,30728,160.04166666666666
1347,2.0,,,,,,79.0,,,,16,note_off,,64.0,79.0,64.0,30744,160.125
1348,2.0,,,,,,79.0,,,,8,note_on,,64.0,79.0,64.0,30752,160.16666666666666
1349,2.0,,,,,,79.0,,,,16,note_off,,64.0,79.0,64.0,30768,160.25
1350,2.0,,,,,,55.0,,,,32,note_on,,64.0,55.0,64.0,30800,160.41666666666666
1351,2.0,,,,,,55.0,,,,16,note_off,,64.0,55.0,64.0,30816,160.5
1352,2.0,,,,,,48.0,,,,32,note_on,,64.0,48.0,64.0,30848,160.66666666666666
1353,2.0,,,,,,48.0,,,,16,note_off,,64.0,48.0,64.0,30864,160.75
1354,2.0,,,,,,55.0,,,,56,note_on,,64.0,55.0,64.0,30920,161.04166666666666
1355,2.0,,,,,,55.0,,,,16,note_off,,64.0,55.0,64.0,30936,161.125
1356,2.0,,,,,,60.0,,,,56,note_on,,64.0,60.0,64.0,30992,161.41666666666666
1357,2.0,,,,,,60.0,,,,16,note_off,,64.0,60.0,64.0,31008,161.5
1358,2.0,,,,,,53.0,,,,32,note_on,,64.0,53.0,64.0,31040,161.66666666666666
1359,2.0,,,,,,53.0,,,,16,note_off,,64.0,53.0,64.0,31056,161.75
1360,2.0,,,,,,60.0,,,,56,note_on,,64.0,60.0,64.0,31112,162.04166666666666
1361,2.0,,,,,,60.0,,,,16,note_off,,64.0,60.0,64.0,31128,162.125
1362,2.0,,,,,,60.0,,,,8,note_on,,64.0,60.0,64.0,31136,162.16666666666666
1363,2.0,,,,,,60.0,,,,16,note_off,,64.0,60.0,64.0,31152,162.25
1364,2.0,,,,,,53.0,,,,32,note_on,,64.0,53.0,64.0,31184,162.41666666666666
1365,2.0,,,,,,53.0,,,,16,note_off,,64.0,53.0,64.0,31200,162.5
1366,2.0,,,,,,48.0,,,,32,note_on,,64.0,48.0,64.0,31232,162.66666666666666
1367,2.0,,,,,,48.0,,,,16,note_off,,64.0,48.0,64.0,31248,162.75
1368,2.0,,,,,,56.0,,,,32,note_on,,64.0,56.0,64.0,31280,162.91666666666666
1369,2.0,,,,,,56.0,,,,16,note_off,,64.0,56.0,64.0,31296,163.0
1370,2.0,,,,,,58.0,,,,56,note_on,,64.0,58.0,64.0,31352,163.29166666666666
1371,2.0,,,,,,58.0,,,,16,note_off,,64.0,58.0,64.0,31368,163.375
1372,2.0,,,,,,60.0,,,,56,note_on,,64.0,60.0,64.0,31424,163.66666666666666
1373,2.0,,,,,,60.0,,,,16,note_off,,64.0,60.0,64.0,31440,163.75
1374,2.0,,,,,,55.0,,,,56,note_on,,64.0,55.0,64.0,31496,164.04166666666666
1375,2.0,,,,,,55.0,,,,16,note_off,,64.0,55.0,64.0,31512,164.125
1376,2.0,,,,,,55.0,,,,8,note_on,,64.0,55.0,64.0,31520,164.16666666666666
1377,2.0,,,,,,55.0,,,,16,note_off,,64.0,55.0,64.0,31536,164.25
1378,2.0,,,,,,48.0,,,,32,note_on,,64.0,48.0,64.0,31568,164.41666666666666
1379,2.0,,,,,,48.0,,,,16,note_off,,64.0,48.0,64.0,31584,164.5
1380,2.0,,,,,,48.0,,,,32,note_on,,64.0,48.0,64.0,31616,164.66666666666666
1381,2.0,,,,,,48.0,,,,16,note_off,,64.0,48.0,64.0,31632,164.75
1382,2.0,,,,,,55.0,,,,56,note_on,,64.0,55.0,64.0,31688,165.04166666666666
1383,2.0,,,,,,55.0,,,,16,note_off,,64.0,55.0,64.0,31704,165.125
1384,2.0,,,,,,60.0,,,,56,note_on,,64.0,60.0,64.0,31760,165.41666666666666
1385,2.0,,,,,,60.0,,,,16,note_off,,64.0,60.0,64.0,31776,165.5
1386,2.0,,,,,,53.0,,,,32,note_on,,64.0,53.0,64.0,31808,165.66666666666666
1387,2.0,,,,,,53.0,,,,16,note_off,,64.0,53.0,64.0,31824,165.75
1388,2.0,,,,,,60.0,,,,56,note_on,,64.0,60.0,64.0,31880,166.04166666666666
1389,2.0,,,,,,60.0,,,,16,note_off,,64.0,60.0,64.0,31896,166.125
1390,2.0,,,,,,60.0,,,,8,note_on,,64.0,60.0,64.0,31904,166.16666666666666
1391,2.0,,,,,,60.0,,,,16,note_off,,64.0,60.0,64.0,31920,166.25
1392,2.0,,,,,,53.0,,,,32,note_on,,64.0,53.0,64.0,31952,166.41666666666666
1393,2.0,,,,,,53.0,,,,16,note_off,,64.0,53.0,64.0,31968,166.5
1394,2.0,,,,,,48.0,,,,32,note_on,,64.0,48.0,64.0,32000,166.66666666666666
1395,2.0,,,,,,48.0,,,,16,note_off,,64.0,48.0,64.0,32016,166.75
1396,2.0,,,,,,52.0,,,,56,note_on,,64.0,52.0,64.0,32072,167.04166666666666
1397,2.0,,,,,,52.0,,,,16,note_off,,64.0,52.0,64.0,32088,167.125
1398,2.0,,,,,,55.0,,,,56,note_on,,64.0,55.0,64.0,32144,167.41666666666666
1399,2.0,,,,,,55.0,,,,16,note_off,,64.0,55.0,64.0,32160,167.5
1400,2.0,,,,,,60.0,,,,8,note_on,,64.0,60.0,64.0,32168,167.54166666666666
1401,2.0,,,,,,60.0,,,,16,note_off,,64.0,60.0,64.0,32184,167.625
1402,2.0,,,,,,79.0,,,,32,note_on,,64.0,79.0,64.0,32216,167.79166666666666
1403,2.0,,,,,,79.0,,,,16,note_off,,64.0,79.0,64.0,32232,167.875
1404,2.0,,,,,,79.0,,,,32,note_on,,64.0,79.0,64.0,32264,168.04166666666666
1405,2.0,,,,,,79.0,,,,16,note_off,,64.0,79.0,64.0,32280,168.125
1406,2.0,,,,,,79.0,,,,8,note_on,,64.0,79.0,64.0,32288,168.16666666666666
1407,2.0,,,,,,79.0,,,,16,note_off,,64.0,79.0,64.0,32304,168.25
1408,2.0,,,,,,55.0,,,,32,note_on,,64.0,55.0,64.0,32336,168.41666666666666
1409,2.0,,,,,,55.0,,,,16,note_off,,64.0,55.0,64.0,32352,168.5
1410,2.0,,,,,,48.0,,,,32,note_on,,64.0,48.0,64.0,32384,168.66666666666666
1411,2.0,,,,,,48.0,,,,16,note_off,,64.0,48.0,64.0,32400,168.75
1412,2.0,,,,,,55.0,,,,56,note_on,,64.0,55.0,64.0,32456,169.04166666666666
1413,2.0,,,,,,55.0,,,,16,note_off,,64.0,55.0,64.0,32472,169.125
1414,2.0,,,,,,60.0,,,,56,note_on,,64.0,60.0,64.0,32528,169.41666666666666
1415,2.0,,,,,,60.0,,,,16,note_off,,64.0,60.0,64.0,32544,169.5
1416,2.0,,,,,,53.0,,,,32,note_on,,64.0,53.0,64.0,32576,169.66666666666666
1417,2.0,,,,,,53.0,,,,16,note_off,,64.0,53.0,64.0,32592,169.75
1418,2.0,,,,,,60.0,,,,56,note_on,,64.0,60.0,64.0,32648,170.04166666666666
1419,2.0,,,,,,60.0,,,,16,note_off,,64.0,60.0,64.0,32664,170.125
1420,2.0,,,,,,60.0,,,,8,note_on,,64.0,60.0,64.0,32672,170.16666666666666
1421,2.0,,,,,,60.0,,,,16,note_off,,64.0,60.0,64.0,32688,170.25
1422,2.0,,,,,,53.0,,,,32,note_on,,64.0,53.0,64.0,32720,170.41666666666666
1423,2.0,,,,,,53.0,,,,16,note_off,,64.0,53.0,64.0,32736,170.5
1424,2.0,,,,,,48.0,,,,32,note_on,,64.0,48.0,64.0,32768,170.66666666666666
1425,2.0,,,,,,48.0,,,,16,note_off,,64.0,48.0,64.0,32784,170.75
1426,2.0,,,,,,56.0,,,,32,note_on,,64.0,56.0,64.0,32816,170.91666666666666
1427,2.0,,,,,,56.0,,,,16,note_off,,64.0,56.0,64.0,32832,171.0
1428,2.0,,,,,,58.0,,,,56,note_on,,64.0,58.0,64.0,32888,171.29166666666666
1429,2.0,,,,,,58.0,,,,16,note_off,,64.0,58.0,64.0,32904,171.375
1430,2.0,,,,,,60.0,,,,56,note_on,,64.0,60.0,64.0,32960,171.66666666666666
1431,2.0,,,,,,60.0,,,,16,note_off,,64.0,60.0,64.0,32976,171.75
1432,2.0,,,,,,55.0,,,,56,note_on,,64.0,55.0,64.0,33032,172.04166666666666
1433,2.0,,,,,,55.0,,,,16,note_off,,64.0,55.0,64.0,33048,172.125
1434,2.0,,,,,,55.0,,,,8,note_on,,64.0,55.0,64.0,33056,172.16666666666666
1435,2.0,,,,,,55.0,,,,16,note_off,,64.0,55.0,64.0,33072,172.25
1436,2.0,,,,,,48.0,,,,32,note_on,,64.0,48.0,64.0,33104,172.41666666666666
1437,2.0,,,,,,48.0,,,,16,note_off,,64.0,48.0,64.0,33120,172.5
1438,2.0,,,,,,44.0,,,,32,note_on,,64.0,44.0,64.0,33152,172.66666666666666
1439,2.0,,,,,,44.0,,,,16,note_off,,64.0,44.0,64.0,33168,172.75
1440,2.0,,,,,,51.0,,,,56,note_on,,64.0,51.0,64.0,33224,173.04166666666666
1441,2.0,,,,,,51.0,,,,16,note_off,,64.0,51.0,64.0,33240,173.125
1442,2.0,,,,,,56.0,,,,56,note_on,,64.0,56.0,64.0,33296,173.41666666666666
1443,2.0,,,,,,56.0,,,,16,note_off,,64.0,56.0,64.0,33312,173.5
1444,2.0,,,,,,55.0,,,,32,note_on,,64.0,55.0,64.0,33344,173.66666666666666
1445,2.0,,,,,,55.0,,,,16,note_off,,64.0,55.0,64.0,33360,173.75
1446,2.0,,,,,,48.0,,,,56,note_on,,64.0,48.0,64.0,33416,174.04166666666666
1447,2.0,,,,,,48.0,,,,16,note_off,,64.0,48.0,64.0,33432,174.125
1448,2.0,,,,,,43.0,,,,56,note_on,,64.0,43.0,64.0,33488,174.41666666666666
1449,2.0,,,,,,43.0,,,,16,note_off,,64.0,43.0,64.0,33504,174.5
1450,2.0,,,,,,44.0,,,,32,note_on,,64.0,44.0,64.0,33536,174.66666666666666
1451,2.0,,,,,,44.0,,,,16,note_off,,64.0,44.0,64.0,33552,174.75
1452,2.0,,,,,,51.0,,,,56,note_on,,64.0,51.0,64.0,33608,175.04166666666666
1453,2.0,,,,,,51.0,,,,16,note_off,,64.0,51.0,64.0,33624,175.125
1454,2.0,,,,,,56.0,,,,56,note_on,,64.0,56.0,64.0,33680,175.41666666666666
1455,2.0,,,,,,56.0,,,,16,note_off,,64.0,56.0,64.0,33696,175.5
1456,2.0,,,,,,55.0,,,,32,note_on,,64.0,55.0,64.0,33728,175.66666666666666
1457,2.0,,,,,,55.0,,,,16,note_off,,64.0,55.0,64.0,33744,175.75
1458,2.0,,,,,,48.0,,,,56,note_on,,64.0,48.0,64.0,33800,176.04166666666666
1459,2.0,,,,,,48.0,,,,16,note_off,,64.0,48.0,64.0,33816,176.125
1460,2.0,,,,,,43.0,,,,56,note_on,,64.0,43.0,64.0,33872,176.41666666666666
1461,2.0,,,,,,43.0,,,,16,note_off,,64.0,43.0,64.0,33888,176.5
1462,2.0,,,,,,44.0,,,,32,note_on,,64.0,44.0,64.0,33920,176.66666666666666
1463,2.0,,,,,,44.0,,,,16,note_off,,64.0,44.0,64.0,33936,176.75
1464,2.0,,,,,,51.0,,,,56,note_on,,64.0,51.0,64.0,33992,177.04166666666666
1465,2.0,,,,,,51.0,,,,16,note_off,,64.0,51.0,64.0,34008,177.125
1466,2.0,,,,,,56.0,,,,56,note_on,,64.0,56.0,64.0,34064,177.41666666666666
1467,2.0,,,,,,56.0,,,,16,note_off,,64.0,56.0,64.0,34080,177.5
1468,2.0,,,,,,55.0,,,,32,note_on,,64.0,55.0,64.0,34112,177.66666666666666
1469,2.0,,,,,,55.0,,,,16,note_off,,64.0,55.0,64.0,34128,177.75
1470,2.0,,,,,,48.0,,,,56,note_on,,64.0,48.0,64.0,34184,178.04166666666666
1471,2.0,,,,,,48.0,,,,16,note_off,,64.0,48.0,64.0,34200,178.125
1472,2.0,,,,,,43.0,,,,56,note_on,,64.0,43.0,64.0,34256,178.41666666666666
1473,2.0,,,,,,43.0,,,,16,note_off,,64.0,43.0,64.0,34272,178.5
1474,2.0,,,,,,50.0,,,,32,note_on,,64.0,50.0,64.0,34304,178.66666666666666
1475,2.0,,,,,,50.0,,,,16,note_off,,64.0,50.0,64.0,34320,178.75
1476,2.0,,,,,,50.0,,,,8,note_on,,64.0,50.0,64.0,34328,178.79166666666666
1477,2.0,,,,,,50.0,,,,16,note_off,,64.0,50.0,64.0,34344,178.875
1478,2.0,,,,,,50.0,,,,32,note_on,,64.0,50.0,64.0,34376,179.04166666666666
1479,2.0,,,,,,50.0,,,,16,note_off,,64.0,50.0,64.0,34392,179.125
1480,2.0,,,,,,50.0,,,,32,note_on,,64.0,50.0,64.0,34424,179.29166666666666
1481,2.0,,,,,,50.0,,,,16,note_off,,64.0,50.0,64.0,34440,179.375
1482,2.0,,,,,,50.0,,,,8,note_on,,64.0,50.0,64.0,34448,179.41666666666666
1483,2.0,,,,,,50.0,,,,16,note_off,,64.0,50.0,64.0,34464,179.5
1484,2.0,,,,,,67.0,,,,32,note_on,,64.0,67.0,64.0,34496,179.66666666666666
1485,2.0,,,,,,67.0,,,,16,note_off,,64.0,67.0,64.0,34512,179.75
1486,2.0,,,,,,55.0,,,,80,note_on,,64.0,55.0,64.0,34592,180.16666666666666
1487,2.0,,,,,,55.0,,,,16,note_off,,64.0,55.0,64.0,34608,180.25
1488,2.0,,,,,,55.0,,,,80,note_on,,64.0,55.0,64.0,34688,180.66666666666666
1489,2.0,,,,,,55.0,,,,16,note_off,,64.0,55.0,64.0,34704,180.75
1490,2.0,,,,,,52.0,,,,56,note_on,,64.0,52.0,64.0,34760,181.04166666666666
1491,2.0,,,,,,52.0,,,,16,note_off,,64.0,52.0,64.0,34776,181.125
1492,2.0,,,,,,48.0,,,,56,note_on,,64.0,48.0,64.0,34832,181.41666666666666
1493,2.0,,,,,,48.0,,,,16,note_off,,64.0,48.0,64.0,34848,181.5
1494,2.0,,,,,,53.0,,,,56,note_on,,64.0,53.0,64.0,34904,181.79166666666666
1495,2.0,,,,,,53.0,,,,16,note_off,,64.0,53.0,64.0,34920,181.875
1496,2.0,,,,,,55.0,,,,32,note_on,,64.0,55.0,64.0,34952,182.04166666666666
1497,2.0,,,,,,55.0,,,,16,note_off,,64.0,55.0,64.0,34968,182.125
1498,2.0,,,,,,54.0,,,,32,note_on,,64.0,54.0,64.0,35000,182.29166666666666
1499,2.0,,,,,,54.0,,,,16,note_off,,64.0,54.0,64.0,35016,182.375
1500,2.0,,,,,,53.0,,,,8,note_on,,64.0,53.0,64.0,35024,182.41666666666666
1501,2.0,,,,,,53.0,,,,16,note_off,,64.0,53.0,64.0,35040,182.5
1502,2.0,,,,,,52.0,,,,32,note_on,,64.0,52.0,64.0,35072,182.66666666666666
1503,2.0,,,,,,52.0,,,,16,note_off,,64.0,52.0,64.0,35088,182.75
1504,2.0,,,,,,60.0,,,,16,note_on,,64.0,60.0,64.0,35104,182.83333333333331
1505,2.0,,,,,,60.0,,,,16,note_off,,64.0,60.0,64.0,35120,182.91666666666666
1506,2.0,,,,,,64.0,,,,16,note_on,,64.0,64.0,64.0,35136,183.0
1507,2.0,,,,,,64.0,,,,16,note_off,,64.0,64.0,64.0,35152,183.08333333333331
1508,2.0,,,,,,65.0,,,,16,note_on,,64.0,65.0,64.0,35168,183.16666666666666
1509,2.0,,,,,,65.0,,,,16,note_off,,64.0,65.0,64.0,35184,183.25
1510,2.0,,,,,,62.0,,,,32,note_on,,64.0,62.0,64.0,35216,183.41666666666666
1511,2.0,,,,,,62.0,,,,16,note_off,,64.0,62.0,64.0,35232,183.5
1512,2.0,,,,,,64.0,,,,8,note_on,,64.0,64.0,64.0,35240,183.54166666666666
1513,2.0,,,,,,64.0,,,,16,note_off,,64.0,64.0,64.0,35256,183.625
1514,2.0,,,,,,60.0,,,,32,note_on,,64.0,60.0,64.0,35288,183.79166666666666
1515,2.0,,,,,,60.0,,,,16,note_off,,64.0,60.0,64.0,35304,183.875
1516,2.0,,,,,,57.0,,,,32,note_on,,64.0,57.0,64.0,35336,184.04166666666666
1517,2.0,,,,,,57.0,,,,16,note_off,,64.0,57.0,64.0,35352,184.125
1518,2.0,,,,,,59.0,,,,8,note_on,,64.0,59.0,64.0,35360,184.16666666666666
1519,2.0,,,,,,59.0,,,,16,note_off,,64.0,59.0,64.0,35376,184.25
1520,2.0,,,,,,55.0,,,,8,note_on,,64.0,55.0,64.0,35384,184.29166666666666
1521,2.0,,,,,,55.0,,,,16,note_off,,64.0,55.0,64.0,35400,184.375
1522,2.0,,,,,,55.0,,,,56,note_on,,64.0,55.0,64.0,35456,184.66666666666666
1523,2.0,,,,,,55.0,,,,16,note_off,,64.0,55.0,64.0,35472,184.75
1524,2.0,,,,,,52.0,,,,56,note_on,,64.0,52.0,64.0,35528,185.04166666666666
1525,2.0,,,,,,52.0,,,,16,note_off,,64.0,52.0,64.0,35544,185.125
1526,2.0,,,,,,48.0,,,,56,note_on,,64.0,48.0,64.0,35600,185.41666666666666
1527,2.0,,,,,,48.0,,,,16,note_off,,64.0,48.0,64.0,35616,185.5
1528,2.0,,,,,,53.0,,,,56,note_on,,64.0,53.0,64.0,35672,185.79166666666666
1529,2.0,,,,,,53.0,,,,16,note_off,,64.0,53.0,64.0,35688,185.875
1530,2.0,,,,,,55.0,,,,32,note_on,,64.0,55.0,64.0,35720,186.04166666666666
1531,2.0,,,,,,55.0,,,,16,note_off,,64.0,55.0,64.0,35736,186.125
1532,2.0,,,,,,54.0,,,,32,note_on,,64.0,54.0,64.0,35768,186.29166666666666
1533,2.0,,,,,,54.0,,,,16,note_off,,64.0,54.0,64.0,35784,186.375
1534,2.0,,,,,,53.0,,,,8,note_on,,64.0,53.0,64.0,35792,186.41666666666666
1535,2.0,,,,,,53.0,,,,16,note_off,,64.0,53.0,64.0,35808,186.5
1536,2.0,,,,,,52.0,,,,32,note_on,,64.0,52.0,64.0,35840,186.66666666666666
1537,2.0,,,,,,52.0,,,,16,note_off,,64.0,52.0,64.0,35856,186.75
1538,2.0,,,,,,60.0,,,,16,note_on,,64.0,60.0,64.0,35872,186.83333333333331
1539,2.0,,,,,,60.0,,,,16,note_off,,64.0,60.0,64.0,35888,186.91666666666666
1540,2.0,,,,,,64.0,,,,16,note_on,,64.0,64.0,64.0,35904,187.0
1541,2.0,,,,,,64.0,,,,16,note_off,,64.0,64.0,64.0,35920,187.08333333333331
1542,2.0,,,,,,65.0,,,,16,note_on,,64.0,65.0,64.0,35936,187.16666666666666
1543,2.0,,,,,,65.0,,,,16,note_off,,64.0,65.0,64.0,35952,187.25
1544,2.0,,,,,,62.0,,,,32,note_on,,64.0,62.0,64.0,35984,187.41666666666666
1545,2.0,,,,,,62.0,,,,16,note_off,,64.0,62.0,64.0,36000,187.5
1546,2.0,,,,,,64.0,,,,8,note_on,,64.0,64.0,64.0,36008,187.54166666666666
1547,2.0,,,,,,64.0,,,,16,note_off,,64.0,64.0,64.0,36024,187.625
1548,2.0,,,,,,60.0,,,,32,note_on,,64.0,60.0,64.0,36056,187.79166666666666
1549,2.0,,,,,,60.0,,,,16,note_off,,64.0,60.0,64.0,36072,187.875
1550,2.0,,,,,,57.0,,,,32,note_on,,64.0,57.0,64.0,36104,188.04166666666666
1551,2.0,,,,,,57.0,,,,16,note_off,,64.0,57.0,64.0,36120,188.125
1552,2.0,,,,,,59.0,,,,8,note_on,,64.0,59.0,64.0,36128,188.16666666666666
1553,2.0,,,,,,59.0,,,,16,note_off,,64.0,59.0,64.0,36144,188.25
1554,2.0,,,,,,55.0,,,,8,note_on,,64.0,55.0,64.0,36152,188.29166666666666
1555,2.0,,,,,,55.0,,,,16,note_off,,64.0,55.0,64.0,36168,188.375
1556,2.0,,,,,,48.0,,,,56,note_on,,64.0,48.0,64.0,36224,188.66666666666666
1557,2.0,,,,,,48.0,,,,16,note_off,,64.0,48.0,64.0,36240,188.75
1558,2.0,,,,,,54.0,,,,56,note_on,,64.0,54.0,64.0,36296,189.04166666666666
1559,2.0,,,,,,54.0,,,,16,note_off,,64.0,54.0,64.0,36312,189.125
1560,2.0,,,,,,55.0,,,,8,note_on,,64.0,55.0,64.0,36320,189.16666666666666
1561,2.0,,,,,,55.0,,,,16,note_off,,64.0,55.0,64.0,36336,189.25
1562,2.0,,,,,,60.0,,,,32,note_on,,64.0,60.0,64.0,36368,189.41666666666666
1563,2.0,,,,,,60.0,,,,16,note_off,,64.0,60.0,64.0,36384,189.5
1564,2.0,,,,,,53.0,,,,32,note_on,,64.0,53.0,64.0,36416,189.66666666666666
1565,2.0,,,,,,53.0,,,,16,note_off,,64.0,53.0,64.0,36432,189.75
1566,2.0,,,,,,53.0,,,,32,note_on,,64.0,53.0,64.0,36464,189.91666666666666
1567,2.0,,,,,,53.0,,,,16,note_off,,64.0,53.0,64.0,36480,190.0
1568,2.0,,,,,,60.0,,,,32,note_on,,64.0,60.0,64.0,36512,190.16666666666666
1569,2.0,,,,,,60.0,,,,16,note_off,,64.0,60.0,64.0,36528,190.25
1570,2.0,,,,,,60.0,,,,8,note_on,,64.0,60.0,64.0,36536,190.29166666666666
1571,2.0,,,,,,60.0,,,,16,note_off,,64.0,60.0,64.0,36552,190.375
1572,2.0,,,,,,53.0,,,,8,note_on,,64.0,53.0,64.0,36560,190.41666666666666
1573,2.0,,,,,,53.0,,,,16,note_off,,64.0,53.0,64.0,36576,190.5
1574,2.0,,,,,,50.0,,,,32,note_on,,64.0,50.0,64.0,36608,190.66666666666666
1575,2.0,,,,,,50.0,,,,16,note_off,,64.0,50.0,64.0,36624,190.75
1576,2.0,,,,,,53.0,,,,56,note_on,,64.0,53.0,64.0,36680,191.04166666666666
1577,2.0,,,,,,53.0,,,,16,note_off,,64.0,53.0,64.0,36696,191.125
1578,2.0,,,,,,55.0,,,,8,note_on,,64.0,55.0,64.0,36704,191.16666666666666
1579,2.0,,,,,,55.0,,,,16,note_off,,64.0,55.0,64.0,36720,191.25
1580,2.0,,,,,,59.0,,,,32,note_on,,64.0,59.0,64.0,36752,191.41666666666666
1581,2.0,,,,,,59.0,,,,16,note_off,,64.0,59.0,64.0,36768,191.5
1582,2.0,,,,,,55.0,,,,32,note_on,,64.0,55.0,64.0,36800,191.66666666666666
1583,2.0,,,,,,55.0,,,,16,note_off,,64.0,55.0,64.0,36816,191.75
1584,2.0,,,,,,55.0,,,,32,note_on,,64.0,55.0,64.0,36848,191.91666666666666
1585,2.0,,,,,,55.0,,,,16,note_off,,64.0,55.0,64.0,36864,192.0
1586,2.0,,,,,,60.0,,,,32,note_on,,64.0,60.0,64.0,36896,192.16666666666666
1587,2.0,,,,,,60.0,,,,16,note_off,,64.0,60.0,64.0,36912,192.25
1588,2.0,,,,,,60.0,,,,8,note_on,,64.0,60.0,64.0,36920,192.29166666666666
1589,2.0,,,,,,60.0,,,,16,note_off,,64.0,60.0,64.0,36936,192.375
1590,2.0,,,,,,55.0,,,,8,note_on,,64.0,55.0,64.0,36944,192.41666666666666
1591,2.0,,,,,,55.0,,,,16,note_off,,64.0,55.0,64.0,36960,192.5
1592,2.0,,,,,,48.0,,,,32,note_on,,64.0,48.0,64.0,36992,192.66666666666666
1593,2.0,,,,,,48.0,,,,16,note_off,,64.0,48.0,64.0,37008,192.75
1594,2.0,,,,,,54.0,,,,56,note_on,,64.0,54.0,64.0,37064,193.04166666666666
1595,2.0,,,,,,54.0,,,,16,note_off,,64.0,54.0,64.0,37080,193.125
1596,2.0,,,,,,55.0,,,,8,note_on,,64.0,55.0,64.0,37088,193.16666666666666
1597,2.0,,,,,,55.0,,,,16,note_off,,64.0,55.0,64.0,37104,193.25
1598,2.0,,,,,,60.0,,,,32,note_on,,64.0,60.0,64.0,37136,193.41666666666666
1599,2.0,,,,,,60.0,,,,16,note_off,,64.0,60.0,64.0,37152,193.5
1600,2.0,,,,,,53.0,,,,32,note_on,,64.0,53.0,64.0,37184,193.66666666666666
1601,2.0,,,,,,53.0,,,,16,note_off,,64.0,53.0,64.0,37200,193.75
1602,2.0,,,,,,53.0,,,,32,note_on,,64.0,53.0,64.0,37232,193.91666666666666
1603,2.0,,,,,,53.0,,,,16,note_off,,64.0,53.0,64.0,37248,194.0
1604,2.0,,,,,,60.0,,,,32,note_on,,64.0,60.0,64.0,37280,194.16666666666666
1605,2.0,,,,,,60.0,,,,16,note_off,,64.0,60.0,64.0,37296,194.25
1606,2.0,,,,,,60.0,,,,8,note_on,,64.0,60.0,64.0,37304,194.29166666666666
1607,2.0,,,,,,60.0,,,,16,note_off,,64.0,60.0,64.0,37320,194.375
1608,2.0,,,,,,53.0,,,,8,note_on,,64.0,53.0,64.0,37328,194.41666666666666
1609,2.0,,,,,,53.0,,,,16,note_off,,64.0,53.0,64.0,37344,194.5
1610,2.0,,,,,,55.0,,,,32,note_on,,64.0,55.0,64.0,37376,194.66666666666666
1611,2.0,,,,,,55.0,,,,16,note_off,,64.0,55.0,64.0,37392,194.75
1612,2.0,,,,,,55.0,,,,8,note_on,,64.0,55.0,64.0,37400,194.79166666666666
1613,2.0,,,,,,55.0,,,,16,note_off,,64.0,55.0,64.0,37416,194.875
1614,2.0,,,,,,55.0,,,,32,note_on,,64.0,55.0,64.0,37448,195.04166666666666
1615,2.0,,,,,,55.0,,,,16,note_off,,64.0,55.0,64.0,37464,195.125
1616,2.0,,,,,,55.0,,,,8,note_on,,64.0,55.0,64.0,37472,195.16666666666666
1617,2.0,,,,,,55.0,,,,16,note_off,,64.0,55.0,64.0,37488,195.25
1618,2.0,,,,,,57.0,,,,16,note_on,,64.0,57.0,64.0,37504,195.33333333333331
1619,2.0,,,,,,57.0,,,,16,note_off,,64.0,57.0,64.0,37520,195.41666666666666
1620,2.0,,,,,,59.0,,,,16,note_on,,64.0,59.0,64.0,37536,195.5
1621,2.0,,,,,,59.0,,,,16,note_off,,64.0,59.0,64.0,37552,195.58333333333331
1622,2.0,,,,,,60.0,,,,16,note_on,,64.0,60.0,64.0,37568,195.66666666666666
1623,2.0,,,,,,60.0,,,,16,note_off,,64.0,60.0,64.0,37584,195.75
1624,2.0,,,,,,55.0,,,,32,note_on,,64.0,55.0,64.0,37616,195.91666666666666
1625,2.0,,,,,,55.0,,,,16,note_off,,64.0,55.0,64.0,37632,196.0
1626,2.0,,,,,,48.0,,,,32,note_on,,64.0,48.0,64.0,37664,196.16666666666666
1627,2.0,,,,,,48.0,,,,16,note_off,,64.0,48.0,64.0,37680,196.25
1628,2.0,,,,,,48.0,,,,80,note_on,,64.0,48.0,64.0,37760,196.66666666666666
1629,2.0,,,,,,48.0,,,,16,note_off,,64.0,48.0,64.0,37776,196.75
1630,2.0,,,,,,54.0,,,,56,note_on,,64.0,54.0,64.0,37832,197.04166666666666
1631,2.0,,,,,,54.0,,,,16,note_off,,64.0,54.0,64.0,37848,197.125
1632,2.0,,,,,,55.0,,,,8,note_on,,64.0,55.0,64.0,37856,197.16666666666666
1633,2.0,,,,,,55.0,,,,16,note_off,,64.0,55.0,64.0,37872,197.25
1634,2.0,,,,,,60.0,,,,32,note_on,,64.0,60.0,64.0,37904,197.41666666666666
1635,2.0,,,,,,60.0,,,,16,note_off,,64.0,60.0,64.0,37920,197.5
1636,2.0,,,,,,53.0,,,,32,note_on,,64.0,53.0,64.0,37952,197.66666666666666
1637,2.0,,,,,,53.0,,,,16,note_off,,64.0,53.0,64.0,37968,197.75
1638,2.0,,,,,,53.0,,,,32,note_on,,64.0,53.0,64.0,38000,197.91666666666666
1639,2.0,,,,,,53.0,,,,16,note_off,,64.0,53.0,64.0,38016,198.0
1640,2.0,,,,,,60.0,,,,32,note_on,,64.0,60.0,64.0,38048,198.16666666666666
1641,2.0,,,,,,60.0,,,,16,note_off,,64.0,60.0,64.0,38064,198.25
1642,2.0,,,,,,60.0,,,,8,note_on,,64.0,60.0,64.0,38072,198.29166666666666
1643,2.0,,,,,,60.0,,,,16,note_off,,64.0,60.0,64.0,38088,198.375
1644,2.0,,,,,,53.0,,,,8,note_on,,64.0,53.0,64.0,38096,198.41666666666666
1645,2.0,,,,,,53.0,,,,16,note_off,,64.0,53.0,64.0,38112,198.5
1646,2.0,,,,,,50.0,,,,32,note_on,,64.0,50.0,64.0,38144,198.66666666666666
1647,2.0,,,,,,50.0,,,,16,note_off,,64.0,50.0,64.0,38160,198.75
1648,2.0,,,,,,53.0,,,,56,note_on,,64.0,53.0,64.0,38216,199.04166666666666
1649,2.0,,,,,,53.0,,,,16,note_off,,64.0,53.0,64.0,38232,199.125
1650,2.0,,,,,,55.0,,,,8,note_on,,64.0,55.0,64.0,38240,199.16666666666666
1651,2.0,,,,,,55.0,,,,16,note_off,,64.0,55.0,64.0,38256,199.25
1652,2.0,,,,,,59.0,,,,32,note_on,,64.0,59.0,64.0,38288,199.41666666666666
1653,2.0,,,,,,59.0,,,,16,note_off,,64.0,59.0,64.0,38304,199.5
1654,2.0,,,,,,55.0,,,,32,note_on,,64.0,55.0,64.0,38336,199.66666666666666
1655,2.0,,,,,,55.0,,,,16,note_off,,64.0,55.0,64.0,38352,199.75
1656,2.0,,,,,,55.0,,,,32,note_on,,64.0,55.0,64.0,38384,199.91666666666666
1657,2.0,,,,,,55.0,,,,16,note_off,,64.0,55.0,64.0,38400,200.0
1658,2.0,,,,,,60.0,,,,32,note_on,,64.0,60.0,64.0,38432,200.16666666666666
1659,2.0,,,,,,60.0,,,,16,note_off,,64.0,60.0,64.0,38448,200.25
1660,2.0,,,,,,60.0,,,,8,note_on,,64.0,60.0,64.0,38456,200.29166666666666
1661,2.0,,,,,,60.0,,,,16,note_off,,64.0,60.0,64.0,38472,200.375
1662,2.0,,,,,,55.0,,,,8,note_on,,64.0,55.0,64.0,38480,200.41666666666666
1663,2.0,,,,,,55.0,,,,16,note_off,,64.0,55.0,64.0,38496,200.5
1664,2.0,,,,,,48.0,,,,32,note_on,,64.0,48.0,64.0,38528,200.66666666666666
1665,2.0,,,,,,48.0,,,,16,note_off,,64.0,48.0,64.0,38544,200.75
1666,2.0,,,,,,54.0,,,,56,note_on,,64.0,54.0,64.0,38600,201.04166666666666
1667,2.0,,,,,,54.0,,,,16,note_off,,64.0,54.0,64.0,38616,201.125
1668,2.0,,,,,,55.0,,,,8,note_on,,64.0,55.0,64.0,38624,201.16666666666666
1669,2.0,,,,,,55.0,,,,16,note_off,,64.0,55.0,64.0,38640,201.25
1670,2.0,,,,,,60.0,,,,32,note_on,,64.0,60.0,64.0,38672,201.41666666666666
1671,2.0,,,,,,60.0,,,,16,note_off,,64.0,60.0,64.0,38688,201.5
1672,2.0,,,,,,53.0,,,,32,note_on,,64.0,53.0,64.0,38720,201.66666666666666
1673,2.0,,,,,,53.0,,,,16,note_off,,64.0,53.0,64.0,38736,201.75
1674,2.0,,,,,,53.0,,,,32,note_on,,64.0,53.0,64.0,38768,201.91666666666666
1675,2.0,,,,,,53.0,,,,16,note_off,,64.0,53.0,64.0,38784,202.0
1676,2.0,,,,,,60.0,,,,32,note_on,,64.0,60.0,64.0,38816,202.16666666666666
1677,2.0,,,,,,60.0,,,,16,note_off,,64.0,60.0,64.0,38832,202.25
1678,2.0,,,,,,60.0,,,,8,note_on,,64.0,60.0,64.0,38840,202.29166666666666
1679,2.0,,,,,,60.0,,,,16,note_off,,64.0,60.0,64.0,38856,202.375
1680,2.0,,,,,,53.0,,,,8,note_on,,64.0,53.0,64.0,38864,202.41666666666666
1681,2.0,,,,,,53.0,,,,16,note_off,,64.0,53.0,64.0,38880,202.5
1682,2.0,,,,,,55.0,,,,32,note_on,,64.0,55.0,64.0,38912,202.66666666666666
1683,2.0,,,,,,55.0,,,,16,note_off,,64.0,55.0,64.0,38928,202.75
1684,2.0,,,,,,55.0,,,,8,note_on,,64.0,55.0,64.0,38936,202.79166666666666
1685,2.0,,,,,,55.0,,,,16,note_off,,64.0,55.0,64.0,38952,202.875
1686,2.0,,,,,,55.0,,,,32,note_on,,64.0,55.0,64.0,38984,203.04166666666666
1687,2.0,,,,,,55.0,,,,16,note_off,,64.0,55.0,64.0,39000,203.125
1688,2.0,,,,,,55.0,,,,8,note_on,,64.0,55.0,64.0,39008,203.16666666666666
1689,2.0,,,,,,55.0,,,,16,note_off,,64.0,55.0,64.0,39024,203.25
1690,2.0,,,,,,57.0,,,,16,note_on,,64.0,57.0,64.0,39040,203.33333333333331
1691,2.0,,,,,,57.0,,,,16,note_off,,64.0,57.0,64.0,39056,203.41666666666666
1692,2.0,,,,,,59.0,,,,16,note_on,,64.0,59.0,64.0,39072,203.5
1693,2.0,,,,,,59.0,,,,16,note_off,,64.0,59.0,64.0,39088,203.58333333333331
1694,2.0,,,,,,60.0,,,,16,note_on,,64.0,60.0,64.0,39104,203.66666666666666
1695,2.0,,,,,,60.0,,,,16,note_off,,64.0,60.0,64.0,39120,203.75
1696,2.0,,,,,,55.0,,,,32,note_on,,64.0,55.0,64.0,39152,203.91666666666666
1697,2.0,,,,,,55.0,,,,16,note_off,,64.0,55.0,64.0,39168,204.0
1698,2.0,,,,,,48.0,,,,32,note_on,,64.0,48.0,64.0,39200,204.16666666666666
1699,2.0,,,,,,48.0,,,,16,note_off,,64.0,48.0,64.0,39216,204.25
1700,2.0,,,,,,44.0,,,,80,note_on,,64.0,44.0,64.0,39296,204.66666666666666
1701,2.0,,,,,,44.0,,,,16,note_off,,64.0,44.0,64.0,39312,204.75
1702,2.0,,,,,,51.0,,,,56,note_on,,64.0,51.0,64.0,39368,205.04166666666666
1703,2.0,,,,,,51.0,,,,16,note_off,,64.0,51.0,64.0,39384,205.125
1704,2.0,,,,,,56.0,,,,56,note_on,,64.0,56.0,64.0,39440,205.41666666666666
1705,2.0,,,,,,56.0,,,,16,note_off,,64.0,56.0,64.0,39456,205.5
1706,2.0,,,,,,55.0,,,,32,note_on,,64.0,55.0,64.0,39488,205.66666666666666
1707,2.0,,,,,,55.0,,,,16,note_off,,64.0,55.0,64.0,39504,205.75
1708,2.0,,,,,,48.0,,,,56,note_on,,64.0,48.0,64.0,39560,206.04166666666666
1709,2.0,,,,,,48.0,,,,16,note_off,,64.0,48.0,64.0,39576,206.125
1710,2.0,,,,,,43.0,,,,56,note_on,,64.0,43.0,64.0,39632,206.41666666666666
1711,2.0,,,,,,43.0,,,,16,note_off,,64.0,43.0,64.0,39648,206.5
1712,2.0,,,,,,44.0,,,,32,note_on,,64.0,44.0,64.0,39680,206.66666666666666
1713,2.0,,,,,,44.0,,,,16,note_off,,64.0,44.0,64.0,39696,206.75
1714,2.0,,,,,,51.0,,,,56,note_on,,64.0,51.0,64.0,39752,207.04166666666666
1715,2.0,,,,,,51.0,,,,16,note_off,,64.0,51.0,64.0,39768,207.125
1716,2.0,,,,,,56.0,,,,56,note_on,,64.0,56.0,64.0,39824,207.41666666666666
1717,2.0,,,,,,56.0,,,,16,note_off,,64.0,56.0,64.0,39840,207.5
1718,2.0,,,,,,55.0,,,,32,note_on,,64.0,55.0,64.0,39872,207.66666666666666
1719,2.0,,,,,,55.0,,,,16,note_off,,64.0,55.0,64.0,39888,207.75
1720,2.0,,,,,,48.0,,,,56,note_on,,64.0,48.0,64.0,39944,208.04166666666666
1721,2.0,,,,,,48.0,,,,16,note_off,,64.0,48.0,64.0,39960,208.125
1722,2.0,,,,,,43.0,,,,56,note_on,,64.0,43.0,64.0,40016,208.41666666666666
1723,2.0,,,,,,43.0,,,,16,note_off,,64.0,43.0,64.0,40032,208.5
1724,2.0,,,,,,44.0,,,,32,note_on,,64.0,44.0,64.0,40064,208.66666666666666
1725,2.0,,,,,,44.0,,,,16,note_off,,64.0,44.0,64.0,40080,208.75
1726,2.0,,,,,,51.0,,,,56,note_on,,64.0,51.0,64.0,40136,209.04166666666666
1727,2.0,,,,,,51.0,,,,16,note_off,,64.0,51.0,64.0,40152,209.125
1728,2.0,,,,,,56.0,,,,56,note_on,,64.0,56.0,64.0,40208,209.41666666666666
1729,2.0,,,,,,56.0,,,,16,note_off,,64.0,56.0,64.0,40224,209.5
1730,2.0,,,,,,55.0,,,,32,note_on,,64.0,55.0,64.0,40256,209.66666666666666
1731,2.0,,,,,,55.0,,,,16,note_off,,64.0,55.0,64.0,40272,209.75
1732,2.0,,,,,,48.0,,,,56,note_on,,64.0,48.0,64.0,40328,210.04166666666666
1733,2.0,,,,,,48.0,,,,16,note_off,,64.0,48.0,64.0,40344,210.125
1734,2.0,,,,,,43.0,,,,56,note_on,,64.0,43.0,64.0,40400,210.41666666666666
1735,2.0,,,,,,43.0,,,,16,note_off,,64.0,43.0,64.0,40416,210.5
1736,2.0,,,,,,50.0,,,,32,note_on,,64.0,50.0,64.0,40448,210.66666666666666
1737,2.0,,,,,,50.0,,,,16,note_off,,64.0,50.0,64.0,40464,210.75
1738,2.0,,,,,,50.0,,,,8,note_on,,64.0,50.0,64.0,40472,210.79166666666666
1739,2.0,,,,,,50.0,,,,16,note_off,,64.0,50.0,64.0,40488,210.875
1740,2.0,,,,,,50.0,,,,32,note_on,,64.0,50.0,64.0,40520,211.04166666666666
1741,2.0,,,,,,50.0,,,,16,note_off,,64.0,50.0,64.0,40536,211.125
1742,2.0,,,,,,50.0,,,,32,note_on,,64.0,50.0,64.0,40568,211.29166666666666
1743,2.0,,,,,,50.0,,,,16,note_off,,64.0,50.0,64.0,40584,211.375
1744,2.0,,,,,,50.0,,,,8,note_on,,64.0,50.0,64.0,40592,211.41666666666666
1745,2.0,,,,,,50.0,,,,16,note_off,,64.0,50.0,64.0,40608,211.5
1746,2.0,,,,,,67.0,,,,32,note_on,,64.0,67.0,64.0,40640,211.66666666666666
1747,2.0,,,,,,67.0,,,,16,note_off,,64.0,67.0,64.0,40656,211.75
1748,2.0,,,,,,55.0,,,,80,note_on,,64.0,55.0,64.0,40736,212.16666666666666
1749,2.0,,,,,,55.0,,,,16,note_off,,64.0,55.0,64.0,40752,212.25
1750,2.0,,,,,,48.0,,,,80,note_on,,64.0,48.0,64.0,40832,212.66666666666666
1751,2.0,,,,,,48.0,,,,16,note_off,,64.0,48.0,64.0,40848,212.75
1752,2.0,,,,,,54.0,,,,56,note_on,,64.0,54.0,64.0,40904,213.04166666666666
1753,2.0,,,,,,54.0,,,,16,note_off,,64.0,54.0,64.0,40920,213.125
1754,2.0,,,,,,55.0,,,,8,note_on,,64.0,55.0,64.0,40928,213.16666666666666
1755,2.0,,,,,,55.0,,,,16,note_off,,64.0,55.0,64.0,40944,213.25
1756,2.0,,,,,,60.0,,,,32,note_on,,64.0,60.0,64.0,40976,213.41666666666666
1757,2.0,,,,,,60.0,,,,16,note_off,,64.0,60.0,64.0,40992,213.5
1758,2.0,,,,,,53.0,,,,32,note_on,,64.0,53.0,64.0,41024,213.66666666666666
1759,2.0,,,,,,53.0,,,,16,note_off,,64.0,53.0,64.0,41040,213.75
1760,2.0,,,,,,53.0,,,,32,note_on,,64.0,53.0,64.0,41072,213.91666666666666
1761,2.0,,,,,,53.0,,,,16,note_off,,64.0,53.0,64.0,41088,214.0
1762,2.0,,,,,,60.0,,,,32,note_on,,64.0,60.0,64.0,41120,214.16666666666666
1763,2.0,,,,,,60.0,,,,16,note_off,,64.0,60.0,64.0,41136,214.25
1764,2.0,,,,,,60.0,,,,8,note_on,,64.0,60.0,64.0,41144,214.29166666666666
1765,2.0,,,,,,60.0,,,,16,note_off,,64.0,60.0,64.0,41160,214.375
1766,2.0,,,,,,53.0,,,,8,note_on,,64.0,53.0,64.0,41168,214.41666666666666
1767,2.0,,,,,,53.0,,,,16,note_off,,64.0,53.0,64.0,41184,214.5
1768,2.0,,,,,,50.0,,,,32,note_on,,64.0,50.0,64.0,41216,214.66666666666666
1769,2.0,,,,,,50.0,,,,16,note_off,,64.0,50.0,64.0,41232,214.75
1770,2.0,,,,,,53.0,,,,56,note_on,,64.0,53.0,64.0,41288,215.04166666666666
1771,2.0,,,,,,53.0,,,,16,note_off,,64.0,53.0,64.0,41304,215.125
1772,2.0,,,,,,55.0,,,,8,note_on,,64.0,55.0,64.0,41312,215.16666666666666
1773,2.0,,,,,,55.0,,,,16,note_off,,64.0,55.0,64.0,41328,215.25
1774,2.0,,,,,,59.0,,,,32,note_on,,64.0,59.0,64.0,41360,215.41666666666666
1775,2.0,,,,,,59.0,,,,16,note_off,,64.0,59.0,64.0,41376,215.5
1776,2.0,,,,,,55.0,,,,32,note_on,,64.0,55.0,64.0,41408,215.66666666666666
1777,2.0,,,,,,55.0,,,,16,note_off,,64.0,55.0,64.0,41424,215.75
1778,2.0,,,,,,55.0,,,,32,note_on,,64.0,55.0,64.0,41456,215.91666666666666
1779,2.0,,,,,,55.0,,,,16,note_off,,64.0,55.0,64.0,41472,216.0
1780,2.0,,,,,,60.0,,,,32,note_on,,64.0,60.0,64.0,41504,216.16666666666666
1781,2.0,,,,,,60.0,,,,16,note_off,,64.0,60.0,64.0,41520,216.25
1782,2.0,,,,,,60.0,,,,8,note_on,,64.0,60.0,64.0,41528,216.29166666666666
1783,2.0,,,,,,60.0,,,,16,note_off,,64.0,60.0,64.0,41544,216.375
1784,2.0,,,,,,55.0,,,,8,note_on,,64.0,55.0,64.0,41552,216.41666666666666
1785,2.0,,,,,,55.0,,,,16,note_off,,64.0,55.0,64.0,41568,216.5
1786,2.0,,,,,,48.0,,,,32,note_on,,64.0,48.0,64.0,41600,216.66666666666666
1787,2.0,,,,,,48.0,,,,16,note_off,,64.0,48.0,64.0,41616,216.75
1788,2.0,,,,,,54.0,,,,56,note_on,,64.0,54.0,64.0,41672,217.04166666666666
1789,2.0,,,,,,54.0,,,,16,note_off,,64.0,54.0,64.0,41688,217.125
1790,2.0,,,,,,55.0,,,,8,note_on,,64.0,55.0,64.0,41696,217.16666666666666
1791,2.0,,,,,,55.0,,,,16,note_off,,64.0,55.0,64.0,41712,217.25
1792,2.0,,,,,,60.0,,,,32,note_on,,64.0,60.0,64.0,41744,217.41666666666666
1793,2.0,,,,,,60.0,,,,16,note_off,,64.0,60.0,64.0,41760,217.5
1794,2.0,,,,,,53.0,,,,32,note_on,,64.0,53.0,64.0,41792,217.66666666666666
1795,2.0,,,,,,53.0,,,,16,note_off,,64.0,53.0,64.0,41808,217.75
1796,2.0,,,,,,53.0,,,,32,note_on,,64.0,53.0,64.0,41840,217.91666666666666
1797,2.0,,,,,,53.0,,,,16,note_off,,64.0,53.0,64.0,41856,218.0
1798,2.0,,,,,,60.0,,,,32,note_on,,64.0,60.0,64.0,41888,218.16666666666666
1799,2.0,,,,,,60.0,,,,16,note_off,,64.0,60.0,64.0,41904,218.25
1800,2.0,,,,,,60.0,,,,8,note_on,,64.0,60.0,64.0,41912,218.29166666666666
1801,2.0,,,,,,60.0,,,,16,note_off,,64.0,60.0,64.0,41928,218.375
1802,2.0,,,,,,53.0,,,,8,note_on,,64.0,53.0,64.0,41936,218.41666666666666
1803,2.0,,,,,,53.0,,,,16,note_off,,64.0,53.0,64.0,41952,218.5
1804,2.0,,,,,,55.0,,,,32,note_on,,64.0,55.0,64.0,41984,218.66666666666666
1805,2.0,,,,,,55.0,,,,16,note_off,,64.0,55.0,64.0,42000,218.75
1806,2.0,,,,,,55.0,,,,8,note_on,,64.0,55.0,64.0,42008,218.79166666666666
1807,2.0,,,,,,55.0,,,,16,note_off,,64.0,55.0,64.0,42024,218.875
1808,2.0,,,,,,55.0,,,,32,note_on,,64.0,55.0,64.0,42056,219.04166666666666
1809,2.0,,,,,,55.0,,,,16,note_off,,64.0,55.0,64.0,42072,219.125
1810,2.0,,,,,,55.0,,,,8,note_on,,64.0,55.0,64.0,42080,219.16666666666666
1811,2.0,,,,,,55.0,,,,16,note_off,,64.0,55.0,64.0,42096,219.25
1812,2.0,,,,,,57.0,,,,16,note_on,,64.0,57.0,64.0,42112,219.33333333333331
1813,2.0,,,,,,57.0,,,,16,note_off,,64.0,57.0,64.0,42128,219.41666666666666
1814,2.0,,,,,,59.0,,,,16,note_on,,64.0,59.0,64.0,42144,219.5
1815,2.0,,,,,,59.0,,,,16,note_off,,64.0,59.0,64.0,42160,219.58333333333331
1816,2.0,,,,,,60.0,,,,16,note_on,,64.0,60.0,64.0,42176,219.66666666666666
1817,2.0,,,,,,60.0,,,,16,note_off,,64.0,60.0,64.0,42192,219.75
1818,2.0,,,,,,55.0,,,,32,note_on,,64.0,55.0,64.0,42224,219.91666666666666
1819,2.0,,,,,,55.0,,,,16,note_off,,64.0,55.0,64.0,42240,220.0
1820,2.0,,,,,,48.0,,,,32,note_on,,64.0,48.0,64.0,42272,220.16666666666666
1821,2.0,,,,,,48.0,,,,16,note_off,,64.0,48.0,64.0,42288,220.25
1822,,,,,,,,,,,0,end_of_track,,,,,42288,220.25
1823,,,,,Percussion,,,,,,0,track_name,,,,,42288,220.25
1824,9.0,,0.0,,,,,,,,0,control_change,0.0,,,,42288,220.25
1825,9.0,,,,,,,,0.0,,0,program_change,,,,,42288,220.25
1826,,96.0,,4.0,,8.0,,4.0,,,0,time_signature,,,,,42288,220.25
1827,,,,,,,,,,571428.0,0,set_tempo,,,,,42288,220.25
1828,9.0,,,,,,42.0,,,,0,note_on,,96.0,42.0,96.0,42288,220.25
1829,9.0,,,,,,42.0,,,,32,note_off,,64.0,42.0,64.0,42320,220.41666666666666
1830,9.0,,,,,,42.0,,,,16,note_on,,96.0,42.0,96.0,42336,220.5
1831,9.0,,,,,,42.0,,,,16,note_off,,64.0,42.0,64.0,42352,220.58333333333331
1832,9.0,,,,,,42.0,,,,8,note_on,,96.0,42.0,96.0,42360,220.625
1833,9.0,,,,,,42.0,,,,32,note_off,,64.0,42.0,64.0,42392,220.79166666666666
1834,9.0,,,,,,42.0,,,,16,note_on,,96.0,42.0,96.0,42408,220.875
1835,9.0,,,,,,42.0,,,,16,note_off,,64.0,42.0,64.0,42424,220.95833333333331
1836,9.0,,,,,,42.0,,,,8,note_on,,96.0,42.0,96.0,42432,221.0
1837,9.0,,,,,,42.0,,,,32,note_off,,64.0,42.0,64.0,42464,221.16666666666666
1838,9.0,,,,,,42.0,,,,16,note_on,,96.0,42.0,96.0,42480,221.25
1839,9.0,,,,,,42.0,,,,32,note_off,,64.0,42.0,64.0,42512,221.41666666666666
1840,9.0,,,,,,42.0,,,,40,note_on,,96.0,42.0,96.0,42552,221.625
1841,9.0,,,,,,42.0,,,,32,note_off,,64.0,42.0,64.0,42584,221.79166666666666
1842,9.0,,,,,,42.0,,,,16,note_on,,96.0,42.0,96.0,42600,221.875
1843,9.0,,,,,,42.0,,,,16,note_off,,64.0,42.0,64.0,42616,221.95833333333331
1844,9.0,,,,,,42.0,,,,8,note_on,,96.0,42.0,96.0,42624,222.0
1845,9.0,,,,,,42.0,,,,16,note_off,,64.0,42.0,64.0,42640,222.08333333333331
1846,9.0,,,,,,42.0,,,,8,note_on,,96.0,42.0,96.0,42648,222.125
1847,9.0,,,,,,42.0,,,,16,note_off,,64.0,42.0,64.0,42664,222.20833333333331
1848,9.0,,,,,,42.0,,,,8,note_on,,96.0,42.0,96.0,42672,222.25
1849,9.0,,,,,,42.0,,,,16,note_off,,64.0,42.0,64.0,42688,222.33333333333331
1850,9.0,,,,,,42.0,,,,32,note_on,,96.0,42.0,96.0,42720,222.5
1851,9.0,,,,,,42.0,,,,16,note_off,,64.0,42.0,64.0,42736,222.58333333333331
1852,9.0,,,,,,42.0,,,,16,note_on,,96.0,42.0,96.0,42752,222.66666666666666
1853,9.0,,,,,,42.0,,,,16,note_off,,64.0,42.0,64.0,42768,222.75
1854,9.0,,,,,,42.0,,,,0,note_on,,96.0,42.0,96.0,42768,222.75
1855,9.0,,,,,,42.0,,,,32,note_off,,64.0,42.0,64.0,42800,222.91666666666666
1856,9.0,,,,,,42.0,,,,16,note_on,,96.0,42.0,96.0,42816,223.0
1857,9.0,,,,,,42.0,,,,16,note_off,,64.0,42.0,64.0,42832,223.08333333333331
1858,9.0,,,,,,42.0,,,,16,note_on,,96.0,42.0,96.0,42848,223.16666666666666
1859,9.0,,,,,,42.0,,,,16,note_off,,64.0,42.0,64.0,42864,223.25
1860,9.0,,,,,,42.0,,,,0,note_on,,96.0,42.0,96.0,42864,223.25
1861,9.0,,,,,,42.0,,,,16,note_off,,64.0,42.0,64.0,42880,223.33333333333331
1862,9.0,,,,,,42.0,,,,32,note_on,,96.0,42.0,96.0,42912,223.5
1863,9.0,,,,,,42.0,,,,16,note_off,,64.0,42.0,64.0,42928,223.58333333333331
1864,9.0,,,,,,42.0,,,,16,note_on,,96.0,42.0,96.0,42944,223.66666666666666
1865,9.0,,,,,,42.0,,,,16,note_off,,64.0,42.0,64.0,42960,223.75
1866,9.0,,,,,,42.0,,,,0,note_on,,96.0,42.0,96.0,42960,223.75
1867,9.0,,,,,,42.0,,,,32,note_off,,64.0,42.0,64.0,42992,223.91666666666666
1868,9.0,,,,,,42.0,,,,16,note_on,,96.0,42.0,96.0,43008,224.0
1869,9.0,,,,,,42.0,,,,16,note_off,,64.0,42.0,64.0,43024,224.08333333333331
1870,9.0,,,,,,42.0,,,,16,note_on,,96.0,42.0,96.0,43040,224.16666666666666
1871,9.0,,,,,,42.0,,,,16,note_off,,64.0,42.0,64.0,43056,224.25
1872,9.0,,,,,,42.0,,,,0,note_on,,96.0,42.0,96.0,43056,224.25
1873,9.0,,,,,,42.0,,,,16,note_off,,64.0,42.0,64.0,43072,224.33333333333331
1874,9.0,,,,,,42.0,,,,32,note_on,,96.0,42.0,96.0,43104,224.5
1875,9.0,,,,,,42.0,,,,16,note_off,,64.0,42.0,64.0,43120,224.58333333333331
1876,9.0,,,,,,42.0,,,,16,note_on,,96.0,42.0,96.0,43136,224.66666666666666
1877,9.0,,,,,,42.0,,,,16,note_off,,64.0,42.0,64.0,43152,224.75
1878,9.0,,,,,,42.0,,,,0,note_on,,96.0,42.0,96.0,43152,224.75
1879,9.0,,,,,,42.0,,,,32,note_off,,64.0,42.0,64.0,43184,224.91666666666666
1880,9.0,,,,,,42.0,,,,16,note_on,,96.0,42.0,96.0,43200,225.0
1881,9.0,,,,,,42.0,,,,16,note_off,,64.0,42.0,64.0,43216,225.08333333333331
1882,9.0,,,,,,42.0,,,,16,note_on,,96.0,42.0,96.0,43232,225.16666666666666
1883,9.0,,,,,,42.0,,,,16,note_off,,64.0,42.0,64.0,43248,225.25
1884,9.0,,,,,,42.0,,,,0,note_on,,96.0,42.0,96.0,43248,225.25
1885,9.0,,,,,,42.0,,,,16,note_off,,64.0,42.0,64.0,43264,225.33333333333331
1886,9.0,,,,,,42.0,,,,32,note_on,,96.0,42.0,96.0,43296,225.5
1887,9.0,,,,,,42.0,,,,16,note_off,,64.0,42.0,64.0,43312,225.58333333333331
1888,9.0,,,,,,42.0,,,,16,note_on,,96.0,42.0,96.0,43328,225.66666666666666
1889,9.0,,,,,,42.0,,,,16,note_off,,64.0,42.0,64.0,43344,225.75
1890,9.0,,,,,,42.0,,,,0,note_on,,96.0,42.0,96.0,43344,225.75
1891,9.0,,,,,,42.0,,,,32,note_off,,64.0,42.0,64.0,43376,225.91666666666666
1892,9.0,,,,,,42.0,,,,16,note_on,,96.0,42.0,96.0,43392,226.0
1893,9.0,,,,,,42.0,,,,16,note_off,,64.0,42.0,64.0,43408,226.08333333333331
1894,9.0,,,,,,42.0,,,,16,note_on,,96.0,42.0,96.0,43424,226.16666666666666
1895,9.0,,,,,,42.0,,,,16,note_off,,64.0,42.0,64.0,43440,226.25
1896,9.0,,,,,,42.0,,,,0,note_on,,96.0,42.0,96.0,43440,226.25
1897,9.0,,,,,,42.0,,,,16,note_off,,64.0,42.0,64.0,43456,226.33333333333331
1898,9.0,,,,,,42.0,,,,32,note_on,,96.0,42.0,96.0,43488,226.5
1899,9.0,,,,,,42.0,,,,16,note_off,,64.0,42.0,64.0,43504,226.58333333333331
1900,9.0,,,,,,42.0,,,,16,note_on,,96.0,42.0,96.0,43520,226.66666666666666
1901,9.0,,,,,,42.0,,,,16,note_off,,64.0,42.0,64.0,43536,226.75
1902,9.0,,,,,,42.0,,,,0,note_on,,96.0,42.0,96.0,43536,226.75
1903,9.0,,,,,,42.0,,,,32,note_off,,64.0,42.0,64.0,43568,226.91666666666666
1904,9.0,,,,,,42.0,,,,16,note_on,,96.0,42.0,96.0,43584,227.0
1905,9.0,,,,,,42.0,,,,16,note_off,,64.0,42.0,64.0,43600,227.08333333333331
1906,9.0,,,,,,42.0,,,,16,note_on,,96.0,42.0,96.0,43616,227.16666666666666
1907,9.0,,,,,,42.0,,,,16,note_off,,64.0,42.0,64.0,43632,227.25
1908,9.0,,,,,,42.0,,,,0,note_on,,96.0,42.0,96.0,43632,227.25
1909,9.0,,,,,,42.0,,,,16,note_off,,64.0,42.0,64.0,43648,227.33333333333331
1910,9.0,,,,,,42.0,,,,32,note_on,,96.0,42.0,96.0,43680,227.5
1911,9.0,,,,,,42.0,,,,16,note_off,,64.0,42.0,64.0,43696,227.58333333333331
1912,9.0,,,,,,42.0,,,,16,note_on,,96.0,42.0,96.0,43712,227.66666666666666
1913,9.0,,,,,,42.0,,,,16,note_off,,64.0,42.0,64.0,43728,227.75
1914,9.0,,,,,,42.0,,,,0,note_on,,96.0,42.0,96.0,43728,227.75
1915,9.0,,,,,,42.0,,,,32,note_off,,64.0,42.0,64.0,43760,227.91666666666666
1916,9.0,,,,,,42.0,,,,16,note_on,,96.0,42.0,96.0,43776,228.0
1917,9.0,,,,,,42.0,,,,16,note_off,,64.0,42.0,64.0,43792,228.08333333333331
1918,9.0,,,,,,42.0,,,,16,note_on,,96.0,42.0,96.0,43808,228.16666666666666
1919,9.0,,,,,,42.0,,,,16,note_off,,64.0,42.0,64.0,43824,228.25
1920,9.0,,,,,,42.0,,,,0,note_on,,96.0,42.0,96.0,43824,228.25
1921,9.0,,,,,,42.0,,,,16,note_off,,64.0,42.0,64.0,43840,228.33333333333331
1922,9.0,,,,,,42.0,,,,32,note_on,,96.0,42.0,96.0,43872,228.5
1923,9.0,,,,,,42.0,,,,16,note_off,,64.0,42.0,64.0,43888,228.58333333333331
1924,9.0,,,,,,42.0,,,,16,note_on,,96.0,42.0,96.0,43904,228.66666666666666
1925,9.0,,,,,,42.0,,,,16,note_off,,64.0,42.0,64.0,43920,228.75
1926,9.0,,,,,,42.0,,,,0,note_on,,96.0,42.0,96.0,43920,228.75
1927,9.0,,,,,,42.0,,,,32,note_off,,64.0,42.0,64.0,43952,228.91666666666666
1928,9.0,,,,,,42.0,,,,16,note_on,,96.0,42.0,96.0,43968,229.0
1929,9.0,,,,,,42.0,,,,16,note_off,,64.0,42.0,64.0,43984,229.08333333333331
1930,9.0,,,,,,42.0,,,,16,note_on,,96.0,42.0,96.0,44000,229.16666666666666
1931,9.0,,,,,,42.0,,,,16,note_off,,64.0,42.0,64.0,44016,229.25
1932,9.0,,,,,,42.0,,,,0,note_on,,96.0,42.0,96.0,44016,229.25
1933,9.0,,,,,,42.0,,,,16,note_off,,64.0,42.0,64.0,44032,229.33333333333331
1934,9.0,,,,,,42.0,,,,32,note_on,,96.0,42.0,96.0,44064,229.5
1935,9.0,,,,,,42.0,,,,16,note_off,,64.0,42.0,64.0,44080,229.58333333333331
1936,9.0,,,,,,42.0,,,,16,note_on,,96.0,42.0,96.0,44096,229.66666666666666
1937,9.0,,,,,,42.0,,,,16,note_off,,64.0,42.0,64.0,44112,229.75
1938,9.0,,,,,,42.0,,,,0,note_on,,96.0,42.0,96.0,44112,229.75
1939,9.0,,,,,,42.0,,,,32,note_off,,64.0,42.0,64.0,44144,229.91666666666666
1940,9.0,,,,,,42.0,,,,16,note_on,,96.0,42.0,96.0,44160,230.0
1941,9.0,,,,,,42.0,,,,16,note_off,,64.0,42.0,64.0,44176,230.08333333333331
1942,9.0,,,,,,42.0,,,,16,note_on,,96.0,42.0,96.0,44192,230.16666666666666
1943,9.0,,,,,,42.0,,,,16,note_off,,64.0,42.0,64.0,44208,230.25
1944,9.0,,,,,,42.0,,,,0,note_on,,96.0,42.0,96.0,44208,230.25
1945,9.0,,,,,,42.0,,,,16,note_off,,64.0,42.0,64.0,44224,230.33333333333331
1946,9.0,,,,,,42.0,,,,32,note_on,,96.0,42.0,96.0,44256,230.5
1947,9.0,,,,,,42.0,,,,16,note_off,,64.0,42.0,64.0,44272,230.58333333333331
1948,9.0,,,,,,42.0,,,,16,note_on,,96.0,42.0,96.0,44288,230.66666666666666
1949,9.0,,,,,,42.0,,,,16,note_off,,64.0,42.0,64.0,44304,230.75
1950,9.0,,,,,,42.0,,,,0,note_on,,96.0,42.0,96.0,44304,230.75
1951,9.0,,,,,,42.0,,,,32,note_off,,64.0,42.0,64.0,44336,230.91666666666666
1952,9.0,,,,,,42.0,,,,16,note_on,,96.0,42.0,96.0,44352,231.0
1953,9.0,,,,,,42.0,,,,16,note_off,,64.0,42.0,64.0,44368,231.08333333333331
1954,9.0,,,,,,42.0,,,,16,note_on,,96.0,42.0,96.0,44384,231.16666666666666
1955,9.0,,,,,,42.0,,,,16,note_off,,64.0,42.0,64.0,44400,231.25
1956,9.0,,,,,,42.0,,,,0,note_on,,96.0,42.0,96.0,44400,231.25
1957,9.0,,,,,,42.0,,,,16,note_off,,64.0,42.0,64.0,44416,231.33333333333331
1958,9.0,,,,,,42.0,,,,32,note_on,,96.0,42.0,96.0,44448,231.5
1959,9.0,,,,,,42.0,,,,16,note_off,,64.0,42.0,64.0,44464,231.58333333333331
1960,9.0,,,,,,42.0,,,,16,note_on,,96.0,42.0,96.0,44480,231.66666666666666
1961,9.0,,,,,,42.0,,,,16,note_off,,64.0,42.0,64.0,44496,231.75
1962,9.0,,,,,,42.0,,,,0,note_on,,96.0,42.0,96.0,44496,231.75
1963,9.0,,,,,,42.0,,,,32,note_off,,64.0,42.0,64.0,44528,231.91666666666666
1964,9.0,,,,,,42.0,,,,16,note_on,,96.0,42.0,96.0,44544,232.0
1965,9.0,,,,,,42.0,,,,16,note_off,,64.0,42.0,64.0,44560,232.08333333333331
1966,9.0,,,,,,42.0,,,,16,note_on,,96.0,42.0,96.0,44576,232.16666666666666
1967,9.0,,,,,,42.0,,,,16,note_off,,64.0,42.0,64.0,44592,232.25
1968,9.0,,,,,,42.0,,,,0,note_on,,96.0,42.0,96.0,44592,232.25
1969,9.0,,,,,,42.0,,,,16,note_off,,64.0,42.0,64.0,44608,232.33333333333331
1970,9.0,,,,,,42.0,,,,32,note_on,,96.0,42.0,96.0,44640,232.5
1971,9.0,,,,,,42.0,,,,16,note_off,,64.0,42.0,64.0,44656,232.58333333333331
1972,9.0,,,,,,42.0,,,,16,note_on,,96.0,42.0,96.0,44672,232.66666666666666
1973,9.0,,,,,,42.0,,,,16,note_off,,64.0,42.0,64.0,44688,232.75
1974,9.0,,,,,,42.0,,,,0,note_on,,96.0,42.0,96.0,44688,232.75
1975,9.0,,,,,,42.0,,,,32,note_off,,64.0,42.0,64.0,44720,232.91666666666666
1976,9.0,,,,,,42.0,,,,16,note_on,,96.0,42.0,96.0,44736,233.0
1977,9.0,,,,,,42.0,,,,16,note_off,,64.0,42.0,64.0,44752,233.08333333333331
1978,9.0,,,,,,42.0,,,,16,note_on,,96.0,42.0,96.0,44768,233.16666666666666
1979,9.0,,,,,,42.0,,,,16,note_off,,64.0,42.0,64.0,44784,233.25
1980,9.0,,,,,,42.0,,,,0,note_on,,96.0,42.0,96.0,44784,233.25
1981,9.0,,,,,,42.0,,,,16,note_off,,64.0,42.0,64.0,44800,233.33333333333331
1982,9.0,,,,,,42.0,,,,32,note_on,,96.0,42.0,96.0,44832,233.5
1983,9.0,,,,,,42.0,,,,16,note_off,,64.0,42.0,64.0,44848,233.58333333333331
1984,9.0,,,,,,42.0,,,,16,note_on,,96.0,42.0,96.0,44864,233.66666666666666
1985,9.0,,,,,,42.0,,,,16,note_off,,64.0,42.0,64.0,44880,233.75
1986,9.0,,,,,,42.0,,,,0,note_on,,96.0,42.0,96.0,44880,233.75
1987,9.0,,,,,,42.0,,,,32,note_off,,64.0,42.0,64.0,44912,233.91666666666666
1988,9.0,,,,,,42.0,,,,16,note_on,,96.0,42.0,96.0,44928,234.0
1989,9.0,,,,,,42.0,,,,16,note_off,,64.0,42.0,64.0,44944,234.08333333333331
1990,9.0,,,,,,42.0,,,,16,note_on,,96.0,42.0,96.0,44960,234.16666666666666
1991,9.0,,,,,,42.0,,,,16,note_off,,64.0,42.0,64.0,44976,234.25
1992,9.0,,,,,,42.0,,,,0,note_on,,96.0,42.0,96.0,44976,234.25
1993,9.0,,,,,,42.0,,,,16,note_off,,64.0,42.0,64.0,44992,234.33333333333331
1994,9.0,,,,,,42.0,,,,32,note_on,,96.0,42.0,96.0,45024,234.5
1995,9.0,,,,,,42.0,,,,16,note_off,,64.0,42.0,64.0,45040,234.58333333333331
1996,9.0,,,,,,42.0,,,,16,note_on,,96.0,42.0,96.0,45056,234.66666666666666
1997,9.0,,,,,,42.0,,,,16,note_off,,64.0,42.0,64.0,45072,234.75
1998,9.0,,,,,,42.0,,,,0,note_on,,96.0,42.0,96.0,45072,234.75
1999,9.0,,,,,,42.0,,,,32,note_off,,64.0,42.0,64.0,45104,234.91666666666666
2000,9.0,,,,,,42.0,,,,16,note_on,,96.0,42.0,96.0,45120,235.0
2001,9.0,,,,,,42.0,,,,16,note_off,,64.0,42.0,64.0,45136,235.08333333333331
2002,9.0,,,,,,42.0,,,,16,note_on,,96.0,42.0,96.0,45152,235.16666666666666
2003,9.0,,,,,,42.0,,,,16,note_off,,64.0,42.0,64.0,45168,235.25
2004,9.0,,,,,,42.0,,,,0,note_on,,96.0,42.0,96.0,45168,235.25
2005,9.0,,,,,,42.0,,,,16,note_off,,64.0,42.0,64.0,45184,235.33333333333331
2006,9.0,,,,,,42.0,,,,32,note_on,,96.0,42.0,96.0,45216,235.5
2007,9.0,,,,,,42.0,,,,16,note_off,,64.0,42.0,64.0,45232,235.58333333333331
2008,9.0,,,,,,42.0,,,,16,note_on,,96.0,42.0,96.0,45248,235.66666666666666
2009,9.0,,,,,,42.0,,,,16,note_off,,64.0,42.0,64.0,45264,235.75
2010,9.0,,,,,,42.0,,,,0,note_on,,96.0,42.0,96.0,45264,235.75
2011,9.0,,,,,,42.0,,,,32,note_off,,64.0,42.0,64.0,45296,235.91666666666666
2012,9.0,,,,,,42.0,,,,16,note_on,,96.0,42.0,96.0,45312,236.0
2013,9.0,,,,,,42.0,,,,16,note_off,,64.0,42.0,64.0,45328,236.08333333333331
2014,9.0,,,,,,42.0,,,,16,note_on,,96.0,42.0,96.0,45344,236.16666666666666
2015,9.0,,,,,,42.0,,,,16,note_off,,64.0,42.0,64.0,45360,236.25
2016,9.0,,,,,,42.0,,,,0,note_on,,96.0,42.0,96.0,45360,236.25
2017,9.0,,,,,,42.0,,,,16,note_off,,64.0,42.0,64.0,45376,236.33333333333331
2018,9.0,,,,,,42.0,,,,32,note_on,,96.0,42.0,96.0,45408,236.5
2019,9.0,,,,,,42.0,,,,16,note_off,,64.0,42.0,64.0,45424,236.58333333333331
2020,9.0,,,,,,42.0,,,,16,note_on,,96.0,42.0,96.0,45440,236.66666666666666
2021,9.0,,,,,,42.0,,,,16,note_off,,64.0,42.0,64.0,45456,236.75
2022,9.0,,,,,,42.0,,,,0,note_on,,96.0,42.0,96.0,45456,236.75
2023,9.0,,,,,,42.0,,,,32,note_off,,64.0,42.0,64.0,45488,236.91666666666666
2024,9.0,,,,,,42.0,,,,16,note_on,,96.0,42.0,96.0,45504,237.0
2025,9.0,,,,,,42.0,,,,16,note_off,,64.0,42.0,64.0,45520,237.08333333333331
2026,9.0,,,,,,42.0,,,,16,note_on,,96.0,42.0,96.0,45536,237.16666666666666
2027,9.0,,,,,,42.0,,,,16,note_off,,64.0,42.0,64.0,45552,237.25
2028,9.0,,,,,,42.0,,,,0,note_on,,96.0,42.0,96.0,45552,237.25
2029,9.0,,,,,,42.0,,,,16,note_off,,64.0,42.0,64.0,45568,237.33333333333331
2030,9.0,,,,,,42.0,,,,32,note_on,,96.0,42.0,96.0,45600,237.5
2031,9.0,,,,,,42.0,,,,16,note_off,,64.0,42.0,64.0,45616,237.58333333333331
2032,9.0,,,,,,42.0,,,,16,note_on,,96.0,42.0,96.0,45632,237.66666666666666
2033,9.0,,,,,,42.0,,,,16,note_off,,64.0,42.0,64.0,45648,237.75
2034,9.0,,,,,,42.0,,,,0,note_on,,96.0,42.0,96.0,45648,237.75
2035,9.0,,,,,,42.0,,,,32,note_off,,64.0,42.0,64.0,45680,237.91666666666666
2036,9.0,,,,,,42.0,,,,16,note_on,,96.0,42.0,96.0,45696,238.0
2037,9.0,,,,,,42.0,,,,16,note_off,,64.0,42.0,64.0,45712,238.08333333333331
2038,9.0,,,,,,42.0,,,,16,note_on,,96.0,42.0,96.0,45728,238.16666666666666
2039,9.0,,,,,,42.0,,,,16,note_off,,64.0,42.0,64.0,45744,238.25
2040,9.0,,,,,,42.0,,,,0,note_on,,96.0,42.0,96.0,45744,238.25
2041,9.0,,,,,,42.0,,,,16,note_off,,64.0,42.0,64.0,45760,238.33333333333331
2042,9.0,,,,,,42.0,,,,32,note_on,,96.0,42.0,96.0,45792,238.5
2043,9.0,,,,,,42.0,,,,16,note_off,,64.0,42.0,64.0,45808,238.58333333333331
2044,9.0,,,,,,42.0,,,,16,note_on,,96.0,42.0,96.0,45824,238.66666666666666
2045,9.0,,,,,,42.0,,,,16,note_off,,64.0,42.0,64.0,45840,238.75
2046,9.0,,,,,,42.0,,,,0,note_on,,96.0,42.0,96.0,45840,238.75
2047,9.0,,,,,,42.0,,,,32,note_off,,64.0,42.0,64.0,45872,238.91666666666666
2048,9.0,,,,,,42.0,,,,16,note_on,,96.0,42.0,96.0,45888,239.0
2049,9.0,,,,,,42.0,,,,16,note_off,,64.0,42.0,64.0,45904,239.08333333333331
2050,9.0,,,,,,42.0,,,,16,note_on,,96.0,42.0,96.0,45920,239.16666666666666
2051,9.0,,,,,,42.0,,,,16,note_off,,64.0,42.0,64.0,45936,239.25
2052,9.0,,,,,,42.0,,,,0,note_on,,96.0,42.0,96.0,45936,239.25
2053,9.0,,,,,,42.0,,,,16,note_off,,64.0,42.0,64.0,45952,239.33333333333331
2054,9.0,,,,,,42.0,,,,32,note_on,,96.0,42.0,96.0,45984,239.5
2055,9.0,,,,,,42.0,,,,16,note_off,,64.0,42.0,64.0,46000,239.58333333333331
2056,9.0,,,,,,42.0,,,,16,note_on,,96.0,42.0,96.0,46016,239.66666666666666
2057,9.0,,,,,,42.0,,,,16,note_off,,64.0,42.0,64.0,46032,239.75
2058,9.0,,,,,,42.0,,,,0,note_on,,96.0,42.0,96.0,46032,239.75
2059,9.0,,,,,,42.0,,,,32,note_off,,64.0,42.0,64.0,46064,239.91666666666666
2060,9.0,,,,,,42.0,,,,16,note_on,,96.0,42.0,96.0,46080,240.0
2061,9.0,,,,,,42.0,,,,16,note_off,,64.0,42.0,64.0,46096,240.08333333333331
2062,9.0,,,,,,42.0,,,,16,note_on,,96.0,42.0,96.0,46112,240.16666666666666
2063,9.0,,,,,,42.0,,,,16,note_off,,64.0,42.0,64.0,46128,240.25
2064,9.0,,,,,,42.0,,,,0,note_on,,96.0,42.0,96.0,46128,240.25
2065,9.0,,,,,,42.0,,,,16,note_off,,64.0,42.0,64.0,46144,240.33333333333331
2066,9.0,,,,,,42.0,,,,32,note_on,,96.0,42.0,96.0,46176,240.5
2067,9.0,,,,,,42.0,,,,16,note_off,,64.0,42.0,64.0,46192,240.58333333333331
2068,9.0,,,,,,42.0,,,,16,note_on,,96.0,42.0,96.0,46208,240.66666666666666
2069,9.0,,,,,,42.0,,,,16,note_off,,64.0,42.0,64.0,46224,240.75
2070,9.0,,,,,,42.0,,,,0,note_on,,96.0,42.0,96.0,46224,240.75
2071,9.0,,,,,,42.0,,,,32,note_off,,64.0,42.0,64.0,46256,240.91666666666666
2072,9.0,,,,,,42.0,,,,16,note_on,,96.0,42.0,96.0,46272,241.0
2073,9.0,,,,,,42.0,,,,16,note_off,,64.0,42.0,64.0,46288,241.08333333333331
2074,9.0,,,,,,42.0,,,,16,note_on,,96.0,42.0,96.0,46304,241.16666666666666
2075,9.0,,,,,,42.0,,,,16,note_off,,64.0,42.0,64.0,46320,241.25
2076,9.0,,,,,,42.0,,,,0,note_on,,96.0,42.0,96.0,46320,241.25
2077,9.0,,,,,,42.0,,,,16,note_off,,64.0,42.0,64.0,46336,241.33333333333331
2078,9.0,,,,,,42.0,,,,32,note_on,,96.0,42.0,96.0,46368,241.5
2079,9.0,,,,,,42.0,,,,16,note_off,,64.0,42.0,64.0,46384,241.58333333333331
2080,9.0,,,,,,42.0,,,,16,note_on,,96.0,42.0,96.0,46400,241.66666666666666
2081,9.0,,,,,,42.0,,,,16,note_off,,64.0,42.0,64.0,46416,241.75
2082,9.0,,,,,,42.0,,,,0,note_on,,96.0,42.0,96.0,46416,241.75
2083,9.0,,,,,,42.0,,,,32,note_off,,64.0,42.0,64.0,46448,241.91666666666666
2084,9.0,,,,,,42.0,,,,16,note_on,,96.0,42.0,96.0,46464,242.0
2085,9.0,,,,,,42.0,,,,16,note_off,,64.0,42.0,64.0,46480,242.08333333333331
2086,9.0,,,,,,42.0,,,,16,note_on,,96.0,42.0,96.0,46496,242.16666666666666
2087,9.0,,,,,,42.0,,,,16,note_off,,64.0,42.0,64.0,46512,242.25
2088,9.0,,,,,,42.0,,,,0,note_on,,96.0,42.0,96.0,46512,242.25
2089,9.0,,,,,,42.0,,,,16,note_off,,64.0,42.0,64.0,46528,242.33333333333331
2090,9.0,,,,,,42.0,,,,32,note_on,,96.0,42.0,96.0,46560,242.5
2091,9.0,,,,,,42.0,,,,16,note_off,,64.0,42.0,64.0,46576,242.58333333333331
2092,9.0,,,,,,42.0,,,,16,note_on,,96.0,42.0,96.0,46592,242.66666666666666
2093,9.0,,,,,,42.0,,,,16,note_off,,64.0,42.0,64.0,46608,242.75
2094,9.0,,,,,,42.0,,,,0,note_on,,96.0,42.0,96.0,46608,242.75
2095,9.0,,,,,,42.0,,,,32,note_off,,64.0,42.0,64.0,46640,242.91666666666666
2096,9.0,,,,,,42.0,,,,16,note_on,,96.0,42.0,96.0,46656,243.0
2097,9.0,,,,,,42.0,,,,16,note_off,,64.0,42.0,64.0,46672,243.08333333333331
2098,9.0,,,,,,42.0,,,,16,note_on,,96.0,42.0,96.0,46688,243.16666666666666
2099,9.0,,,,,,42.0,,,,16,note_off,,64.0,42.0,64.0,46704,243.25
2100,9.0,,,,,,42.0,,,,0,note_on,,96.0,42.0,96.0,46704,243.25
2101,9.0,,,,,,42.0,,,,16,note_off,,64.0,42.0,64.0,46720,243.33333333333331
2102,9.0,,,,,,42.0,,,,32,note_on,,96.0,42.0,96.0,46752,243.5
2103,9.0,,,,,,42.0,,,,16,note_off,,64.0,42.0,64.0,46768,243.58333333333331
2104,9.0,,,,,,42.0,,,,16,note_on,,96.0,42.0,96.0,46784,243.66666666666666
2105,9.0,,,,,,42.0,,,,16,note_off,,64.0,42.0,64.0,46800,243.75
2106,9.0,,,,,,42.0,,,,0,note_on,,96.0,42.0,96.0,46800,243.75
2107,9.0,,,,,,42.0,,,,32,note_off,,64.0,42.0,64.0,46832,243.91666666666666
2108,9.0,,,,,,42.0,,,,16,note_on,,96.0,42.0,96.0,46848,244.0
2109,9.0,,,,,,42.0,,,,16,note_off,,64.0,42.0,64.0,46864,244.08333333333331
2110,9.0,,,,,,42.0,,,,16,note_on,,96.0,42.0,96.0,46880,244.16666666666666
2111,9.0,,,,,,42.0,,,,16,note_off,,64.0,42.0,64.0,46896,244.25
2112,9.0,,,,,,42.0,,,,0,note_on,,96.0,42.0,96.0,46896,244.25
2113,9.0,,,,,,42.0,,,,16,note_off,,64.0,42.0,64.0,46912,244.33333333333331
2114,9.0,,,,,,42.0,,,,32,note_on,,96.0,42.0,96.0,46944,244.5
2115,9.0,,,,,,42.0,,,,16,note_off,,64.0,42.0,64.0,46960,244.58333333333331
2116,9.0,,,,,,42.0,,,,16,note_on,,96.0,42.0,96.0,46976,244.66666666666666
2117,9.0,,,,,,42.0,,,,16,note_off,,64.0,42.0,64.0,46992,244.75
2118,9.0,,,,,,42.0,,,,0,note_on,,96.0,42.0,96.0,46992,244.75
2119,9.0,,,,,,42.0,,,,32,note_off,,64.0,42.0,64.0,47024,244.91666666666666
2120,9.0,,,,,,42.0,,,,16,note_on,,96.0,42.0,96.0,47040,245.0
2121,9.0,,,,,,42.0,,,,16,note_off,,64.0,42.0,64.0,47056,245.08333333333331
2122,9.0,,,,,,42.0,,,,16,note_on,,96.0,42.0,96.0,47072,245.16666666666666
2123,9.0,,,,,,42.0,,,,16,note_off,,64.0,42.0,64.0,47088,245.25
2124,9.0,,,,,,42.0,,,,0,note_on,,96.0,42.0,96.0,47088,245.25
2125,9.0,,,,,,42.0,,,,16,note_off,,64.0,42.0,64.0,47104,245.33333333333331
2126,9.0,,,,,,42.0,,,,32,note_on,,96.0,42.0,96.0,47136,245.5
2127,9.0,,,,,,42.0,,,,16,note_off,,64.0,42.0,64.0,47152,245.58333333333331
2128,9.0,,,,,,42.0,,,,16,note_on,,96.0,42.0,96.0,47168,245.66666666666666
2129,9.0,,,,,,42.0,,,,16,note_off,,64.0,42.0,64.0,47184,245.75
2130,9.0,,,,,,42.0,,,,0,note_on,,96.0,42.0,96.0,47184,245.75
2131,9.0,,,,,,42.0,,,,32,note_off,,64.0,42.0,64.0,47216,245.91666666666666
2132,9.0,,,,,,42.0,,,,16,note_on,,96.0,42.0,96.0,47232,246.0
2133,9.0,,,,,,42.0,,,,16,note_off,,64.0,42.0,64.0,47248,246.08333333333331
2134,9.0,,,,,,42.0,,,,16,note_on,,96.0,42.0,96.0,47264,246.16666666666666
2135,9.0,,,,,,42.0,,,,16,note_off,,64.0,42.0,64.0,47280,246.25
2136,9.0,,,,,,42.0,,,,0,note_on,,96.0,42.0,96.0,47280,246.25
2137,9.0,,,,,,42.0,,,,32,note_off,,64.0,42.0,64.0,47312,246.41666666666666
2138,9.0,,,,,,42.0,,,,16,note_on,,96.0,42.0,96.0,47328,246.5
2139,9.0,,,,,,42.0,,,,16,note_off,,64.0,42.0,64.0,47344,246.58333333333331
2140,9.0,,,,,,42.0,,,,8,note_on,,96.0,42.0,96.0,47352,246.625
2141,9.0,,,,,,42.0,,,,32,note_off,,64.0,42.0,64.0,47384,246.79166666666666
2142,9.0,,,,,,42.0,,,,16,note_on,,96.0,42.0,96.0,47400,246.875
2143,9.0,,,,,,42.0,,,,16,note_off,,64.0,42.0,64.0,47416,246.95833333333331
2144,9.0,,,,,,42.0,,,,8,note_on,,96.0,42.0,96.0,47424,247.0
2145,9.0,,,,,,42.0,,,,32,note_off,,64.0,42.0,64.0,47456,247.16666666666666
2146,9.0,,,,,,42.0,,,,16,note_on,,96.0,42.0,96.0,47472,247.25
2147,9.0,,,,,,42.0,,,,32,note_off,,64.0,42.0,64.0,47504,247.41666666666666
2148,9.0,,,,,,42.0,,,,40,note_on,,96.0,42.0,96.0,47544,247.625
2149,9.0,,,,,,42.0,,,,32,note_off,,64.0,42.0,64.0,47576,247.79166666666666
2150,9.0,,,,,,42.0,,,,16,note_on,,96.0,42.0,96.0,47592,247.875
2151,9.0,,,,,,42.0,,,,16,note_off,,64.0,42.0,64.0,47608,247.95833333333331
2152,9.0,,,,,,42.0,,,,8,note_on,,96.0,42.0,96.0,47616,248.0
2153,9.0,,,,,,42.0,,,,16,note_off,,64.0,42.0,64.0,47632,248.08333333333331
2154,9.0,,,,,,42.0,,,,8,note_on,,96.0,42.0,96.0,47640,248.125
2155,9.0,,,,,,42.0,,,,16,note_off,,64.0,42.0,64.0,47656,248.20833333333331
2156,9.0,,,,,,42.0,,,,8,note_on,,96.0,42.0,96.0,47664,248.25
2157,9.0,,,,,,42.0,,,,32,note_off,,64.0,42.0,64.0,47696,248.41666666666666
2158,9.0,,,,,,42.0,,,,16,note_on,,96.0,42.0,96.0,47712,248.5
2159,9.0,,,,,,42.0,,,,16,note_off,,64.0,42.0,64.0,47728,248.58333333333331
2160,9.0,,,,,,42.0,,,,8,note_on,,96.0,42.0,96.0,47736,248.625
2161,9.0,,,,,,42.0,,,,32,note_off,,64.0,42.0,64.0,47768,248.79166666666666
2162,9.0,,,,,,42.0,,,,16,note_on,,96.0,42.0,96.0,47784,248.875
2163,9.0,,,,,,42.0,,,,16,note_off,,64.0,42.0,64.0,47800,248.95833333333331
2164,9.0,,,,,,42.0,,,,8,note_on,,96.0,42.0,96.0,47808,249.0
2165,9.0,,,,,,42.0,,,,32,note_off,,64.0,42.0,64.0,47840,249.16666666666666
2166,9.0,,,,,,42.0,,,,16,note_on,,96.0,42.0,96.0,47856,249.25
2167,9.0,,,,,,42.0,,,,32,note_off,,64.0,42.0,64.0,47888,249.41666666666666
2168,9.0,,,,,,42.0,,,,40,note_on,,96.0,42.0,96.0,47928,249.625
2169,9.0,,,,,,42.0,,,,32,note_off,,64.0,42.0,64.0,47960,249.79166666666666
2170,9.0,,,,,,42.0,,,,16,note_on,,96.0,42.0,96.0,47976,249.875
2171,9.0,,,,,,42.0,,,,16,note_off,,64.0,42.0,64.0,47992,249.95833333333331
2172,9.0,,,,,,42.0,,,,8,note_on,,96.0,42.0,96.0,48000,250.0
2173,9.0,,,,,,42.0,,,,16,note_off,,64.0,42.0,64.0,48016,250.08333333333331
2174,9.0,,,,,,42.0,,,,8,note_on,,96.0,42.0,96.0,48024,250.125
2175,9.0,,,,,,42.0,,,,16,note_off,,64.0,42.0,64.0,48040,250.20833333333331
2176,9.0,,,,,,42.0,,,,8,note_on,,96.0,42.0,96.0,48048,250.25
2177,9.0,,,,,,42.0,,,,32,note_off,,64.0,42.0,64.0,48080,250.41666666666666
2178,9.0,,,,,,42.0,,,,16,note_on,,96.0,42.0,96.0,48096,250.5
2179,9.0,,,,,,42.0,,,,16,note_off,,64.0,42.0,64.0,48112,250.58333333333331
2180,9.0,,,,,,42.0,,,,8,note_on,,96.0,42.0,96.0,48120,250.625
2181,9.0,,,,,,42.0,,,,32,note_off,,64.0,42.0,64.0,48152,250.79166666666666
2182,9.0,,,,,,42.0,,,,16,note_on,,96.0,42.0,96.0,48168,250.875
2183,9.0,,,,,,42.0,,,,16,note_off,,64.0,42.0,64.0,48184,250.95833333333331
2184,9.0,,,,,,42.0,,,,8,note_on,,96.0,42.0,96.0,48192,251.0
2185,9.0,,,,,,42.0,,,,32,note_off,,64.0,42.0,64.0,48224,251.16666666666666
2186,9.0,,,,,,42.0,,,,16,note_on,,96.0,42.0,96.0,48240,251.25
2187,9.0,,,,,,42.0,,,,32,note_off,,64.0,42.0,64.0,48272,251.41666666666666
2188,9.0,,,,,,42.0,,,,40,note_on,,96.0,42.0,96.0,48312,251.625
2189,9.0,,,,,,42.0,,,,32,note_off,,64.0,42.0,64.0,48344,251.79166666666666
2190,9.0,,,,,,42.0,,,,16,note_on,,96.0,42.0,96.0,48360,251.875
2191,9.0,,,,,,42.0,,,,16,note_off,,64.0,42.0,64.0,48376,251.95833333333331
2192,9.0,,,,,,42.0,,,,8,note_on,,96.0,42.0,96.0,48384,252.0
2193,9.0,,,,,,42.0,,,,16,note_off,,64.0,42.0,64.0,48400,252.08333333333331
2194,9.0,,,,,,42.0,,,,8,note_on,,96.0,42.0,96.0,48408,252.125
2195,9.0,,,,,,42.0,,,,16,note_off,,64.0,42.0,64.0,48424,252.20833333333331
2196,9.0,,,,,,42.0,,,,8,note_on,,96.0,42.0,96.0,48432,252.25
2197,9.0,,,,,,42.0,,,,32,note_off,,64.0,42.0,64.0,48464,252.41666666666666
2198,9.0,,,,,,42.0,,,,16,note_on,,96.0,42.0,96.0,48480,252.5
2199,9.0,,,,,,42.0,,,,16,note_off,,64.0,42.0,64.0,48496,252.58333333333331
2200,9.0,,,,,,42.0,,,,8,note_on,,96.0,42.0,96.0,48504,252.625
2201,9.0,,,,,,42.0,,,,32,note_off,,64.0,42.0,64.0,48536,252.79166666666666
2202,9.0,,,,,,42.0,,,,16,note_on,,96.0,42.0,96.0,48552,252.875
2203,9.0,,,,,,42.0,,,,16,note_off,,64.0,42.0,64.0,48568,252.95833333333331
2204,9.0,,,,,,42.0,,,,8,note_on,,96.0,42.0,96.0,48576,253.0
2205,9.0,,,,,,42.0,,,,32,note_off,,64.0,42.0,64.0,48608,253.16666666666666
2206,9.0,,,,,,42.0,,,,16,note_on,,96.0,42.0,96.0,48624,253.25
2207,9.0,,,,,,42.0,,,,32,note_off,,64.0,42.0,64.0,48656,253.41666666666666
2208,9.0,,,,,,42.0,,,,40,note_on,,96.0,42.0,96.0,48696,253.625
2209,9.0,,,,,,42.0,,,,32,note_off,,64.0,42.0,64.0,48728,253.79166666666666
2210,9.0,,,,,,42.0,,,,16,note_on,,96.0,42.0,96.0,48744,253.875
2211,9.0,,,,,,42.0,,,,16,note_off,,64.0,42.0,64.0,48760,253.95833333333331
2212,9.0,,,,,,42.0,,,,8,note_on,,96.0,42.0,96.0,48768,254.0
2213,9.0,,,,,,42.0,,,,16,note_off,,64.0,42.0,64.0,48784,254.08333333333331
2214,9.0,,,,,,42.0,,,,8,note_on,,96.0,42.0,96.0,48792,254.125
2215,9.0,,,,,,42.0,,,,16,note_off,,64.0,42.0,64.0,48808,254.20833333333331
2216,9.0,,,,,,42.0,,,,8,note_on,,96.0,42.0,96.0,48816,254.25
2217,9.0,,,,,,42.0,,,,16,note_off,,64.0,42.0,64.0,48832,254.33333333333331
2218,9.0,,,,,,42.0,,,,32,note_on,,96.0,42.0,96.0,48864,254.5
2219,9.0,,,,,,42.0,,,,16,note_off,,64.0,42.0,64.0,48880,254.58333333333331
2220,9.0,,,,,,42.0,,,,16,note_on,,96.0,42.0,96.0,48896,254.66666666666666
2221,9.0,,,,,,42.0,,,,16,note_off,,64.0,42.0,64.0,48912,254.75
2222,9.0,,,,,,42.0,,,,0,note_on,,96.0,42.0,96.0,48912,254.75
2223,9.0,,,,,,42.0,,,,32,note_off,,64.0,42.0,64.0,48944,254.91666666666666
2224,9.0,,,,,,42.0,,,,16,note_on,,96.0,42.0,96.0,48960,255.0
2225,9.0,,,,,,42.0,,,,16,note_off,,64.0,42.0,64.0,48976,255.08333333333331
2226,9.0,,,,,,42.0,,,,16,note_on,,96.0,42.0,96.0,48992,255.16666666666666
2227,9.0,,,,,,42.0,,,,16,note_off,,64.0,42.0,64.0,49008,255.25
2228,9.0,,,,,,42.0,,,,0,note_on,,96.0,42.0,96.0,49008,255.25
2229,9.0,,,,,,42.0,,,,16,note_off,,64.0,42.0,64.0,49024,255.33333333333331
2230,9.0,,,,,,42.0,,,,32,note_on,,96.0,42.0,96.0,49056,255.5
2231,9.0,,,,,,42.0,,,,16,note_off,,64.0,42.0,64.0,49072,255.58333333333331
2232,9.0,,,,,,42.0,,,,16,note_on,,96.0,42.0,96.0,49088,255.66666666666666
2233,9.0,,,,,,42.0,,,,16,note_off,,64.0,42.0,64.0,49104,255.75
2234,9.0,,,,,,42.0,,,,0,note_on,,96.0,42.0,96.0,49104,255.75
2235,9.0,,,,,,42.0,,,,32,note_off,,64.0,42.0,64.0,49136,255.91666666666666
2236,9.0,,,,,,42.0,,,,16,note_on,,96.0,42.0,96.0,49152,256.0
2237,9.0,,,,,,42.0,,,,16,note_off,,64.0,42.0,64.0,49168,256.0833333333333
2238,9.0,,,,,,42.0,,,,16,note_on,,96.0,42.0,96.0,49184,256.16666666666663
2239,9.0,,,,,,42.0,,,,16,note_off,,64.0,42.0,64.0,49200,256.25
2240,9.0,,,,,,42.0,,,,0,note_on,,96.0,42.0,96.0,49200,256.25
2241,9.0,,,,,,42.0,,,,16,note_off,,64.0,42.0,64.0,49216,256.3333333333333
2242,9.0,,,,,,42.0,,,,32,note_on,,96.0,42.0,96.0,49248,256.5
2243,9.0,,,,,,42.0,,,,16,note_off,,64.0,42.0,64.0,49264,256.5833333333333
2244,9.0,,,,,,42.0,,,,16,note_on,,96.0,42.0,96.0,49280,256.66666666666663
2245,9.0,,,,,,42.0,,,,16,note_off,,64.0,42.0,64.0,49296,256.75
2246,9.0,,,,,,42.0,,,,0,note_on,,96.0,42.0,96.0,49296,256.75
2247,9.0,,,,,,42.0,,,,32,note_off,,64.0,42.0,64.0,49328,256.91666666666663
2248,9.0,,,,,,42.0,,,,16,note_on,,96.0,42.0,96.0,49344,257.0
2249,9.0,,,,,,42.0,,,,16,note_off,,64.0,42.0,64.0,49360,257.0833333333333
2250,9.0,,,,,,42.0,,,,16,note_on,,96.0,42.0,96.0,49376,257.16666666666663
2251,9.0,,,,,,42.0,,,,16,note_off,,64.0,42.0,64.0,49392,257.25
2252,9.0,,,,,,42.0,,,,0,note_on,,96.0,42.0,96.0,49392,257.25
2253,9.0,,,,,,42.0,,,,16,note_off,,64.0,42.0,64.0,49408,257.3333333333333
2254,9.0,,,,,,42.0,,,,32,note_on,,96.0,42.0,96.0,49440,257.5
2255,9.0,,,,,,42.0,,,,16,note_off,,64.0,42.0,64.0,49456,257.5833333333333
2256,9.0,,,,,,42.0,,,,16,note_on,,96.0,42.0,96.0,49472,257.66666666666663
2257,9.0,,,,,,42.0,,,,16,note_off,,64.0,42.0,64.0,49488,257.75
2258,9.0,,,,,,42.0,,,,0,note_on,,96.0,42.0,96.0,49488,257.75
2259,9.0,,,,,,42.0,,,,32,note_off,,64.0,42.0,64.0,49520,257.91666666666663
2260,9.0,,,,,,42.0,,,,16,note_on,,96.0,42.0,96.0,49536,258.0
2261,9.0,,,,,,42.0,,,,16,note_off,,64.0,42.0,64.0,49552,258.0833333333333
2262,9.0,,,,,,42.0,,,,16,note_on,,96.0,42.0,96.0,49568,258.16666666666663
2263,9.0,,,,,,42.0,,,,16,note_off,,64.0,42.0,64.0,49584,258.25
2264,9.0,,,,,,42.0,,,,0,note_on,,96.0,42.0,96.0,49584,258.25
2265,9.0,,,,,,42.0,,,,16,note_off,,64.0,42.0,64.0,49600,258.3333333333333
2266,9.0,,,,,,42.0,,,,32,note_on,,96.0,42.0,96.0,49632,258.5
2267,9.0,,,,,,42.0,,,,16,note_off,,64.0,42.0,64.0,49648,258.5833333333333
2268,9.0,,,,,,42.0,,,,16,note_on,,96.0,42.0,96.0,49664,258.66666666666663
2269,9.0,,,,,,42.0,,,,16,note_off,,64.0,42.0,64.0,49680,258.75
2270,9.0,,,,,,42.0,,,,0,note_on,,96.0,42.0,96.0,49680,258.75
2271,9.0,,,,,,42.0,,,,32,note_off,,64.0,42.0,64.0,49712,258.91666666666663
2272,9.0,,,,,,42.0,,,,16,note_on,,96.0,42.0,96.0,49728,259.0
2273,9.0,,,,,,42.0,,,,16,note_off,,64.0,42.0,64.0,49744,259.0833333333333
2274,9.0,,,,,,42.0,,,,16,note_on,,96.0,42.0,96.0,49760,259.16666666666663
2275,9.0,,,,,,42.0,,,,16,note_off,,64.0,42.0,64.0,49776,259.25
2276,9.0,,,,,,42.0,,,,0,note_on,,96.0,42.0,96.0,49776,259.25
2277,9.0,,,,,,42.0,,,,16,note_off,,64.0,42.0,64.0,49792,259.3333333333333
2278,9.0,,,,,,42.0,,,,32,note_on,,96.0,42.0,96.0,49824,259.5
2279,9.0,,,,,,42.0,,,,16,note_off,,64.0,42.0,64.0,49840,259.5833333333333
2280,9.0,,,,,,42.0,,,,16,note_on,,96.0,42.0,96.0,49856,259.66666666666663
2281,9.0,,,,,,42.0,,,,16,note_off,,64.0,42.0,64.0,49872,259.75
2282,9.0,,,,,,42.0,,,,0,note_on,,96.0,42.0,96.0,49872,259.75
2283,9.0,,,,,,42.0,,,,32,note_off,,64.0,42.0,64.0,49904,259.91666666666663
2284,9.0,,,,,,42.0,,,,16,note_on,,96.0,42.0,96.0,49920,260.0
2285,9.0,,,,,,42.0,,,,16,note_off,,64.0,42.0,64.0,49936,260.0833333333333
2286,9.0,,,,,,42.0,,,,16,note_on,,96.0,42.0,96.0,49952,260.16666666666663
2287,9.0,,,,,,42.0,,,,16,note_off,,64.0,42.0,64.0,49968,260.25
2288,9.0,,,,,,42.0,,,,0,note_on,,96.0,42.0,96.0,49968,260.25
2289,9.0,,,,,,42.0,,,,16,note_off,,64.0,42.0,64.0,49984,260.3333333333333
2290,9.0,,,,,,42.0,,,,32,note_on,,96.0,42.0,96.0,50016,260.5
2291,9.0,,,,,,42.0,,,,16,note_off,,64.0,42.0,64.0,50032,260.5833333333333
2292,9.0,,,,,,42.0,,,,16,note_on,,96.0,42.0,96.0,50048,260.66666666666663
2293,9.0,,,,,,42.0,,,,16,note_off,,64.0,42.0,64.0,50064,260.75
2294,9.0,,,,,,42.0,,,,0,note_on,,96.0,42.0,96.0,50064,260.75
2295,9.0,,,,,,42.0,,,,32,note_off,,64.0,42.0,64.0,50096,260.91666666666663
2296,9.0,,,,,,42.0,,,,16,note_on,,96.0,42.0,96.0,50112,261.0
2297,9.0,,,,,,42.0,,,,16,note_off,,64.0,42.0,64.0,50128,261.0833333333333
2298,9.0,,,,,,42.0,,,,16,note_on,,96.0,42.0,96.0,50144,261.16666666666663
2299,9.0,,,,,,42.0,,,,16,note_off,,64.0,42.0,64.0,50160,261.25
2300,9.0,,,,,,42.0,,,,0,note_on,,96.0,42.0,96.0,50160,261.25
2301,9.0,,,,,,42.0,,,,16,note_off,,64.0,42.0,64.0,50176,261.3333333333333
2302,9.0,,,,,,42.0,,,,32,note_on,,96.0,42.0,96.0,50208,261.5
2303,9.0,,,,,,42.0,,,,16,note_off,,64.0,42.0,64.0,50224,261.5833333333333
2304,9.0,,,,,,42.0,,,,16,note_on,,96.0,42.0,96.0,50240,261.66666666666663
2305,9.0,,,,,,42.0,,,,16,note_off,,64.0,42.0,64.0,50256,261.75
2306,9.0,,,,,,42.0,,,,0,note_on,,96.0,42.0,96.0,50256,261.75
2307,9.0,,,,,,42.0,,,,32,note_off,,64.0,42.0,64.0,50288,261.91666666666663
2308,9.0,,,,,,42.0,,,,16,note_on,,96.0,42.0,96.0,50304,262.0
2309,9.0,,,,,,42.0,,,,16,note_off,,64.0,42.0,64.0,50320,262.0833333333333
2310,9.0,,,,,,42.0,,,,16,note_on,,96.0,42.0,96.0,50336,262.16666666666663
2311,9.0,,,,,,42.0,,,,16,note_off,,64.0,42.0,64.0,50352,262.25
2312,9.0,,,,,,42.0,,,,0,note_on,,96.0,42.0,96.0,50352,262.25
2313,9.0,,,,,,42.0,,,,16,note_off,,64.0,42.0,64.0,50368,262.3333333333333
2314,9.0,,,,,,42.0,,,,56,note_on,,96.0,42.0,96.0,50424,262.625
2315,9.0,,,,,,42.0,,,,16,note_off,,64.0,42.0,64.0,50440,262.7083333333333
2316,9.0,,,,,,42.0,,,,8,note_on,,96.0,42.0,96.0,50448,262.75
2317,9.0,,,,,,42.0,,,,32,note_off,,64.0,42.0,64.0,50480,262.91666666666663
2318,9.0,,,,,,42.0,,,,16,note_on,,96.0,42.0,96.0,50496,263.0
2319,9.0,,,,,,42.0,,,,16,note_off,,64.0,42.0,64.0,50512,263.0833333333333
2320,9.0,,,,,,42.0,,,,32,note_on,,96.0,42.0,96.0,50544,263.25
2321,9.0,,,,,,42.0,,,,16,note_off,,64.0,42.0,64.0,50560,263.3333333333333
2322,9.0,,,,,,42.0,,,,56,note_on,,96.0,42.0,96.0,50616,263.625
2323,9.0,,,,,,42.0,,,,16,note_off,,64.0,42.0,64.0,50632,263.7083333333333
2324,9.0,,,,,,42.0,,,,8,note_on,,96.0,42.0,96.0,50640,263.75
2325,9.0,,,,,,42.0,,,,32,note_off,,64.0,42.0,64.0,50672,263.91666666666663
2326,9.0,,,,,,42.0,,,,16,note_on,,96.0,42.0,96.0,50688,264.0
2327,9.0,,,,,,42.0,,,,16,note_off,,64.0,42.0,64.0,50704,264.0833333333333
2328,9.0,,,,,,42.0,,,,32,note_on,,96.0,42.0,96.0,50736,264.25
2329,9.0,,,,,,42.0,,,,16,note_off,,64.0,42.0,64.0,50752,264.3333333333333
2330,9.0,,,,,,42.0,,,,56,note_on,,96.0,42.0,96.0,50808,264.625
2331,9.0,,,,,,42.0,,,,16,note_off,,64.0,42.0,64.0,50824,264.7083333333333
2332,9.0,,,,,,42.0,,,,8,note_on,,96.0,42.0,96.0,50832,264.75
2333,9.0,,,,,,42.0,,,,32,note_off,,64.0,42.0,64.0,50864,264.91666666666663
2334,9.0,,,,,,42.0,,,,16,note_on,,96.0,42.0,96.0,50880,265.0
2335,9.0,,,,,,42.0,,,,16,note_off,,64.0,42.0,64.0,50896,265.0833333333333
2336,9.0,,,,,,42.0,,,,32,note_on,,96.0,42.0,96.0,50928,265.25
2337,9.0,,,,,,42.0,,,,16,note_off,,64.0,42.0,64.0,50944,265.3333333333333
2338,9.0,,,,,,42.0,,,,56,note_on,,96.0,42.0,96.0,51000,265.625
2339,9.0,,,,,,42.0,,,,16,note_off,,64.0,42.0,64.0,51016,265.7083333333333
2340,9.0,,,,,,42.0,,,,8,note_on,,96.0,42.0,96.0,51024,265.75
2341,9.0,,,,,,42.0,,,,32,note_off,,64.0,42.0,64.0,51056,265.91666666666663
2342,9.0,,,,,,42.0,,,,16,note_on,,96.0,42.0,96.0,51072,266.0
2343,9.0,,,,,,42.0,,,,16,note_off,,64.0,42.0,64.0,51088,266.0833333333333
2344,9.0,,,,,,42.0,,,,32,note_on,,96.0,42.0,96.0,51120,266.25
2345,9.0,,,,,,42.0,,,,16,note_off,,64.0,42.0,64.0,51136,266.3333333333333
2346,9.0,,,,,,42.0,,,,56,note_on,,96.0,42.0,96.0,51192,266.625
2347,9.0,,,,,,42.0,,,,16,note_off,,64.0,42.0,64.0,51208,266.7083333333333
2348,9.0,,,,,,42.0,,,,8,note_on,,96.0,42.0,96.0,51216,266.75
2349,9.0,,,,,,42.0,,,,32,note_off,,64.0,42.0,64.0,51248,266.91666666666663
2350,9.0,,,,,,42.0,,,,16,note_on,,96.0,42.0,96.0,51264,267.0
2351,9.0,,,,,,42.0,,,,16,note_off,,64.0,42.0,64.0,51280,267.0833333333333
2352,9.0,,,,,,42.0,,,,32,note_on,,96.0,42.0,96.0,51312,267.25
2353,9.0,,,,,,42.0,,,,16,note_off,,64.0,42.0,64.0,51328,267.3333333333333
2354,9.0,,,,,,42.0,,,,56,note_on,,96.0,42.0,96.0,51384,267.625
2355,9.0,,,,,,42.0,,,,16,note_off,,64.0,42.0,64.0,51400,267.7083333333333
2356,9.0,,,,,,42.0,,,,8,note_on,,96.0,42.0,96.0,51408,267.75
2357,9.0,,,,,,42.0,,,,32,note_off,,64.0,42.0,64.0,51440,267.91666666666663
2358,9.0,,,,,,42.0,,,,16,note_on,,96.0,42.0,96.0,51456,268.0
2359,9.0,,,,,,42.0,,,,16,note_off,,64.0,42.0,64.0,51472,268.0833333333333
2360,9.0,,,,,,42.0,,,,32,note_on,,96.0,42.0,96.0,51504,268.25
2361,9.0,,,,,,42.0,,,,16,note_off,,64.0,42.0,64.0,51520,268.3333333333333
2362,9.0,,,,,,42.0,,,,56,note_on,,96.0,42.0,96.0,51576,268.625
2363,9.0,,,,,,42.0,,,,16,note_off,,64.0,42.0,64.0,51592,268.7083333333333
2364,9.0,,,,,,42.0,,,,8,note_on,,96.0,42.0,96.0,51600,268.75
2365,9.0,,,,,,42.0,,,,32,note_off,,64.0,42.0,64.0,51632,268.91666666666663
2366,9.0,,,,,,42.0,,,,16,note_on,,96.0,42.0,96.0,51648,269.0
2367,9.0,,,,,,42.0,,,,16,note_off,,64.0,42.0,64.0,51664,269.0833333333333
2368,9.0,,,,,,42.0,,,,32,note_on,,96.0,42.0,96.0,51696,269.25
2369,9.0,,,,,,42.0,,,,16,note_off,,64.0,42.0,64.0,51712,269.3333333333333
2370,9.0,,,,,,42.0,,,,56,note_on,,96.0,42.0,96.0,51768,269.625
2371,9.0,,,,,,42.0,,,,16,note_off,,64.0,42.0,64.0,51784,269.7083333333333
2372,9.0,,,,,,42.0,,,,8,note_on,,96.0,42.0,96.0,51792,269.75
2373,9.0,,,,,,42.0,,,,32,note_off,,64.0,42.0,64.0,51824,269.91666666666663
2374,9.0,,,,,,42.0,,,,16,note_on,,96.0,42.0,96.0,51840,270.0
2375,9.0,,,,,,42.0,,,,16,note_off,,64.0,42.0,64.0,51856,270.0833333333333
2376,9.0,,,,,,42.0,,,,32,note_on,,96.0,42.0,96.0,51888,270.25
2377,9.0,,,,,,42.0,,,,16,note_off,,64.0,42.0,64.0,51904,270.3333333333333
2378,9.0,,,,,,42.0,,,,56,note_on,,96.0,42.0,96.0,51960,270.625
2379,9.0,,,,,,42.0,,,,16,note_off,,64.0,42.0,64.0,51976,270.7083333333333
2380,9.0,,,,,,42.0,,,,8,note_on,,96.0,42.0,96.0,51984,270.75
2381,9.0,,,,,,42.0,,,,32,note_off,,64.0,42.0,64.0,52016,270.91666666666663
2382,9.0,,,,,,42.0,,,,16,note_on,,96.0,42.0,96.0,52032,271.0
2383,9.0,,,,,,42.0,,,,16,note_off,,64.0,42.0,64.0,52048,271.0833333333333
2384,9.0,,,,,,42.0,,,,32,note_on,,96.0,42.0,96.0,52080,271.25
2385,9.0,,,,,,42.0,,,,16,note_off,,64.0,42.0,64.0,52096,271.3333333333333
2386,9.0,,,,,,42.0,,,,56,note_on,,96.0,42.0,96.0,52152,271.625
2387,9.0,,,,,,42.0,,,,16,note_off,,64.0,42.0,64.0,52168,271.7083333333333
2388,9.0,,,,,,42.0,,,,8,note_on,,96.0,42.0,96.0,52176,271.75
2389,9.0,,,,,,42.0,,,,32,note_off,,64.0,42.0,64.0,52208,271.91666666666663
2390,9.0,,,,,,42.0,,,,16,note_on,,96.0,42.0,96.0,52224,272.0
2391,9.0,,,,,,42.0,,,,16,note_off,,64.0,42.0,64.0,52240,272.0833333333333
2392,9.0,,,,,,42.0,,,,32,note_on,,96.0,42.0,96.0,52272,272.25
2393,9.0,,,,,,42.0,,,,16,note_off,,64.0,42.0,64.0,52288,272.3333333333333
2394,9.0,,,,,,42.0,,,,56,note_on,,96.0,42.0,96.0,52344,272.625
2395,9.0,,,,,,42.0,,,,16,note_off,,64.0,42.0,64.0,52360,272.7083333333333
2396,9.0,,,,,,42.0,,,,8,note_on,,96.0,42.0,96.0,52368,272.75
2397,9.0,,,,,,42.0,,,,32,note_off,,64.0,42.0,64.0,52400,272.91666666666663
2398,9.0,,,,,,42.0,,,,16,note_on,,96.0,42.0,96.0,52416,273.0
2399,9.0,,,,,,42.0,,,,16,note_off,,64.0,42.0,64.0,52432,273.0833333333333
2400,9.0,,,,,,42.0,,,,32,note_on,,96.0,42.0,96.0,52464,273.25
2401,9.0,,,,,,42.0,,,,16,note_off,,64.0,42.0,64.0,52480,273.3333333333333
2402,9.0,,,,,,42.0,,,,56,note_on,,96.0,42.0,96.0,52536,273.625
2403,9.0,,,,,,42.0,,,,16,note_off,,64.0,42.0,64.0,52552,273.7083333333333
2404,9.0,,,,,,42.0,,,,8,note_on,,96.0,42.0,96.0,52560,273.75
2405,9.0,,,,,,42.0,,,,32,note_off,,64.0,42.0,64.0,52592,273.91666666666663
2406,9.0,,,,,,42.0,,,,16,note_on,,96.0,42.0,96.0,52608,274.0
2407,9.0,,,,,,42.0,,,,16,note_off,,64.0,42.0,64.0,52624,274.0833333333333
2408,9.0,,,,,,42.0,,,,32,note_on,,96.0,42.0,96.0,52656,274.25
2409,9.0,,,,,,42.0,,,,16,note_off,,64.0,42.0,64.0,52672,274.3333333333333
2410,9.0,,,,,,42.0,,,,56,note_on,,96.0,42.0,96.0,52728,274.625
2411,9.0,,,,,,42.0,,,,16,note_off,,64.0,42.0,64.0,52744,274.7083333333333
2412,9.0,,,,,,42.0,,,,8,note_on,,96.0,42.0,96.0,52752,274.75
2413,9.0,,,,,,42.0,,,,32,note_off,,64.0,42.0,64.0,52784,274.91666666666663
2414,9.0,,,,,,42.0,,,,16,note_on,,96.0,42.0,96.0,52800,275.0
2415,9.0,,,,,,42.0,,,,16,note_off,,64.0,42.0,64.0,52816,275.0833333333333
2416,9.0,,,,,,42.0,,,,32,note_on,,96.0,42.0,96.0,52848,275.25
2417,9.0,,,,,,42.0,,,,16,note_off,,64.0,42.0,64.0,52864,275.3333333333333
2418,9.0,,,,,,42.0,,,,56,note_on,,96.0,42.0,96.0,52920,275.625
2419,9.0,,,,,,42.0,,,,16,note_off,,64.0,42.0,64.0,52936,275.7083333333333
2420,9.0,,,,,,42.0,,,,8,note_on,,96.0,42.0,96.0,52944,275.75
2421,9.0,,,,,,42.0,,,,32,note_off,,64.0,42.0,64.0,52976,275.91666666666663
2422,9.0,,,,,,42.0,,,,16,note_on,,96.0,42.0,96.0,52992,276.0
2423,9.0,,,,,,42.0,,,,16,note_off,,64.0,42.0,64.0,53008,276.0833333333333
2424,9.0,,,,,,42.0,,,,32,note_on,,96.0,42.0,96.0,53040,276.25
2425,9.0,,,,,,42.0,,,,16,note_off,,64.0,42.0,64.0,53056,276.3333333333333
2426,9.0,,,,,,42.0,,,,56,note_on,,96.0,42.0,96.0,53112,276.625
2427,9.0,,,,,,42.0,,,,16,note_off,,64.0,42.0,64.0,53128,276.7083333333333
2428,9.0,,,,,,42.0,,,,8,note_on,,96.0,42.0,96.0,53136,276.75
2429,9.0,,,,,,42.0,,,,32,note_off,,64.0,42.0,64.0,53168,276.91666666666663
2430,9.0,,,,,,42.0,,,,16,note_on,,96.0,42.0,96.0,53184,277.0
2431,9.0,,,,,,42.0,,,,16,note_off,,64.0,42.0,64.0,53200,277.0833333333333
2432,9.0,,,,,,42.0,,,,32,note_on,,96.0,42.0,96.0,53232,277.25
2433,9.0,,,,,,42.0,,,,16,note_off,,64.0,42.0,64.0,53248,277.3333333333333
2434,9.0,,,,,,42.0,,,,56,note_on,,96.0,42.0,96.0,53304,277.625
2435,9.0,,,,,,42.0,,,,16,note_off,,64.0,42.0,64.0,53320,277.7083333333333
2436,9.0,,,,,,42.0,,,,8,note_on,,96.0,42.0,96.0,53328,277.75
2437,9.0,,,,,,42.0,,,,32,note_off,,64.0,42.0,64.0,53360,277.91666666666663
2438,9.0,,,,,,42.0,,,,16,note_on,,96.0,42.0,96.0,53376,278.0
2439,9.0,,,,,,42.0,,,,16,note_off,,64.0,42.0,64.0,53392,278.0833333333333
2440,9.0,,,,,,42.0,,,,32,note_on,,96.0,42.0,96.0,53424,278.25
2441,9.0,,,,,,42.0,,,,32,note_off,,64.0,42.0,64.0,53456,278.41666666666663
2442,9.0,,,,,,42.0,,,,16,note_on,,96.0,42.0,96.0,53472,278.5
2443,9.0,,,,,,42.0,,,,16,note_off,,64.0,42.0,64.0,53488,278.5833333333333
2444,9.0,,,,,,42.0,,,,8,note_on,,96.0,42.0,96.0,53496,278.625
2445,9.0,,,,,,42.0,,,,32,note_off,,64.0,42.0,64.0,53528,278.79166666666663
2446,9.0,,,,,,42.0,,,,16,note_on,,96.0,42.0,96.0,53544,278.875
2447,9.0,,,,,,42.0,,,,16,note_off,,64.0,42.0,64.0,53560,278.9583333333333
2448,9.0,,,,,,42.0,,,,8,note_on,,96.0,42.0,96.0,53568,279.0
2449,9.0,,,,,,42.0,,,,32,note_off,,64.0,42.0,64.0,53600,279.16666666666663
2450,9.0,,,,,,42.0,,,,16,note_on,,96.0,42.0,96.0,53616,279.25
2451,9.0,,,,,,42.0,,,,32,note_off,,64.0,42.0,64.0,53648,279.41666666666663
2452,9.0,,,,,,42.0,,,,40,note_on,,96.0,42.0,96.0,53688,279.625
2453,9.0,,,,,,42.0,,,,32,note_off,,64.0,42.0,64.0,53720,279.79166666666663
2454,9.0,,,,,,42.0,,,,16,note_on,,96.0,42.0,96.0,53736,279.875
2455,9.0,,,,,,42.0,,,,16,note_off,,64.0,42.0,64.0,53752,279.9583333333333
2456,9.0,,,,,,42.0,,,,8,note_on,,96.0,42.0,96.0,53760,280.0
2457,9.0,,,,,,42.0,,,,16,note_off,,64.0,42.0,64.0,53776,280.0833333333333
2458,9.0,,,,,,42.0,,,,8,note_on,,96.0,42.0,96.0,53784,280.125
2459,9.0,,,,,,42.0,,,,16,note_off,,64.0,42.0,64.0,53800,280.2083333333333
2460,9.0,,,,,,42.0,,,,8,note_on,,96.0,42.0,96.0,53808,280.25
2461,9.0,,,,,,42.0,,,,32,note_off,,64.0,42.0,64.0,53840,280.41666666666663
2462,9.0,,,,,,42.0,,,,16,note_on,,96.0,42.0,96.0,53856,280.5
2463,9.0,,,,,,42.0,,,,16,note_off,,64.0,42.0,64.0,53872,280.5833333333333
2464,9.0,,,,,,42.0,,,,8,note_on,,96.0,42.0,96.0,53880,280.625
2465,9.0,,,,,,42.0,,,,32,note_off,,64.0,42.0,64.0,53912,280.79166666666663
2466,9.0,,,,,,42.0,,,,16,note_on,,96.0,42.0,96.0,53928,280.875
2467,9.0,,,,,,42.0,,,,16,note_off,,64.0,42.0,64.0,53944,280.9583333333333
2468,9.0,,,,,,42.0,,,,8,note_on,,96.0,42.0,96.0,53952,281.0
2469,9.0,,,,,,42.0,,,,32,note_off,,64.0,42.0,64.0,53984,281.16666666666663
2470,9.0,,,,,,42.0,,,,16,note_on,,96.0,42.0,96.0,54000,281.25
2471,9.0,,,,,,42.0,,,,32,note_off,,64.0,42.0,64.0,54032,281.41666666666663
2472,9.0,,,,,,42.0,,,,40,note_on,,96.0,42.0,96.0,54072,281.625
2473,9.0,,,,,,42.0,,,,32,note_off,,64.0,42.0,64.0,54104,281.79166666666663
2474,9.0,,,,,,42.0,,,,16,note_on,,96.0,42.0,96.0,54120,281.875
2475,9.0,,,,,,42.0,,,,16,note_off,,64.0,42.0,64.0,54136,281.9583333333333
2476,9.0,,,,,,42.0,,,,8,note_on,,96.0,42.0,96.0,54144,282.0
2477,9.0,,,,,,42.0,,,,16,note_off,,64.0,42.0,64.0,54160,282.0833333333333
2478,9.0,,,,,,42.0,,,,8,note_on,,96.0,42.0,96.0,54168,282.125
2479,9.0,,,,,,42.0,,,,16,note_off,,64.0,42.0,64.0,54184,282.2083333333333
2480,9.0,,,,,,42.0,,,,8,note_on,,96.0,42.0,96.0,54192,282.25
2481,9.0,,,,,,42.0,,,,32,note_off,,64.0,42.0,64.0,54224,282.41666666666663
2482,9.0,,,,,,42.0,,,,16,note_on,,96.0,42.0,96.0,54240,282.5
2483,9.0,,,,,,42.0,,,,16,note_off,,64.0,42.0,64.0,54256,282.5833333333333
2484,9.0,,,,,,42.0,,,,8,note_on,,96.0,42.0,96.0,54264,282.625
2485,9.0,,,,,,42.0,,,,32,note_off,,64.0,42.0,64.0,54296,282.79166666666663
2486,9.0,,,,,,42.0,,,,16,note_on,,96.0,42.0,96.0,54312,282.875
2487,9.0,,,,,,42.0,,,,16,note_off,,64.0,42.0,64.0,54328,282.9583333333333
2488,9.0,,,,,,42.0,,,,8,note_on,,96.0,42.0,96.0,54336,283.0
2489,9.0,,,,,,42.0,,,,32,note_off,,64.0,42.0,64.0,54368,283.16666666666663
2490,9.0,,,,,,42.0,,,,16,note_on,,96.0,42.0,96.0,54384,283.25
2491,9.0,,,,,,42.0,,,,32,note_off,,64.0,42.0,64.0,54416,283.41666666666663
2492,9.0,,,,,,42.0,,,,40,note_on,,96.0,42.0,96.0,54456,283.625
2493,9.0,,,,,,42.0,,,,32,note_off,,64.0,42.0,64.0,54488,283.79166666666663
2494,9.0,,,,,,42.0,,,,16,note_on,,96.0,42.0,96.0,54504,283.875
2495,9.0,,,,,,42.0,,,,16,note_off,,64.0,42.0,64.0,54520,283.9583333333333
2496,9.0,,,,,,42.0,,,,8,note_on,,96.0,42.0,96.0,54528,284.0
2497,9.0,,,,,,42.0,,,,16,note_off,,64.0,42.0,64.0,54544,284.0833333333333
2498,9.0,,,,,,42.0,,,,8,note_on,,96.0,42.0,96.0,54552,284.125
2499,9.0,,,,,,42.0,,,,16,note_off,,64.0,42.0,64.0,54568,284.2083333333333
2500,9.0,,,,,,42.0,,,,8,note_on,,96.0,42.0,96.0,54576,284.25
2501,9.0,,,,,,42.0,,,,32,note_off,,64.0,42.0,64.0,54608,284.41666666666663
2502,9.0,,,,,,42.0,,,,16,note_on,,96.0,42.0,96.0,54624,284.5
2503,9.0,,,,,,42.0,,,,16,note_off,,64.0,42.0,64.0,54640,284.5833333333333
2504,9.0,,,,,,42.0,,,,8,note_on,,96.0,42.0,96.0,54648,284.625
2505,9.0,,,,,,42.0,,,,32,note_off,,64.0,42.0,64.0,54680,284.79166666666663
2506,9.0,,,,,,42.0,,,,16,note_on,,96.0,42.0,96.0,54696,284.875
2507,9.0,,,,,,42.0,,,,16,note_off,,64.0,42.0,64.0,54712,284.9583333333333
2508,9.0,,,,,,42.0,,,,8,note_on,,96.0,42.0,96.0,54720,285.0
2509,9.0,,,,,,42.0,,,,32,note_off,,64.0,42.0,64.0,54752,285.16666666666663
2510,9.0,,,,,,42.0,,,,16,note_on,,96.0,42.0,96.0,54768,285.25
2511,9.0,,,,,,42.0,,,,32,note_off,,64.0,42.0,64.0,54800,285.41666666666663
2512,9.0,,,,,,42.0,,,,40,note_on,,96.0,42.0,96.0,54840,285.625
2513,9.0,,,,,,42.0,,,,32,note_off,,64.0,42.0,64.0,54872,285.79166666666663
2514,9.0,,,,,,42.0,,,,16,note_on,,96.0,42.0,96.0,54888,285.875
2515,9.0,,,,,,42.0,,,,16,note_off,,64.0,42.0,64.0,54904,285.9583333333333
2516,9.0,,,,,,42.0,,,,8,note_on,,96.0,42.0,96.0,54912,286.0
2517,9.0,,,,,,42.0,,,,16,note_off,,64.0,42.0,64.0,54928,286.0833333333333
2518,9.0,,,,,,42.0,,,,8,note_on,,96.0,42.0,96.0,54936,286.125
2519,9.0,,,,,,42.0,,,,16,note_off,,64.0,42.0,64.0,54952,286.2083333333333
2520,9.0,,,,,,42.0,,,,8,note_on,,96.0,42.0,96.0,54960,286.25
2521,9.0,,,,,,42.0,,,,16,note_off,,64.0,42.0,64.0,54976,286.3333333333333
2522,9.0,,,,,,42.0,,,,56,note_on,,96.0,42.0,96.0,55032,286.625
2523,9.0,,,,,,42.0,,,,16,note_off,,64.0,42.0,64.0,55048,286.7083333333333
2524,9.0,,,,,,42.0,,,,8,note_on,,96.0,42.0,96.0,55056,286.75
2525,9.0,,,,,,42.0,,,,32,note_off,,64.0,42.0,64.0,55088,286.91666666666663
2526,9.0,,,,,,42.0,,,,16,note_on,,96.0,42.0,96.0,55104,287.0
2527,9.0,,,,,,42.0,,,,16,note_off,,64.0,42.0,64.0,55120,287.0833333333333
2528,9.0,,,,,,42.0,,,,32,note_on,,96.0,42.0,96.0,55152,287.25
2529,9.0,,,,,,42.0,,,,16,note_off,,64.0,42.0,64.0,55168,287.3333333333333
2530,9.0,,,,,,42.0,,,,56,note_on,,96.0,42.0,96.0,55224,287.625
2531,9.0,,,,,,42.0,,,,16,note_off,,64.0,42.0,64.0,55240,287.7083333333333
2532,9.0,,,,,,42.0,,,,8,note_on,,96.0,42.0,96.0,55248,287.75
2533,9.0,,,,,,42.0,,,,32,note_off,,64.0,42.0,64.0,55280,287.91666666666663
2534,9.0,,,,,,42.0,,,,16,note_on,,96.0,42.0,96.0,55296,288.0
2535,9.0,,,,,,42.0,,,,16,note_off,,64.0,42.0,64.0,55312,288.0833333333333
2536,9.0,,,,,,42.0,,,,32,note_on,,96.0,42.0,96.0,55344,288.25
2537,9.0,,,,,,42.0,,,,16,note_off,,64.0,42.0,64.0,55360,288.3333333333333
2538,9.0,,,,,,42.0,,,,56,note_on,,96.0,42.0,96.0,55416,288.625
2539,9.0,,,,,,42.0,,,,16,note_off,,64.0,42.0,64.0,55432,288.7083333333333
2540,9.0,,,,,,42.0,,,,8,note_on,,96.0,42.0,96.0,55440,288.75
2541,9.0,,,,,,42.0,,,,32,note_off,,64.0,42.0,64.0,55472,288.91666666666663
2542,9.0,,,,,,42.0,,,,16,note_on,,96.0,42.0,96.0,55488,289.0
2543,9.0,,,,,,42.0,,,,16,note_off,,64.0,42.0,64.0,55504,289.0833333333333
2544,9.0,,,,,,42.0,,,,32,note_on,,96.0,42.0,96.0,55536,289.25
2545,9.0,,,,,,42.0,,,,16,note_off,,64.0,42.0,64.0,55552,289.3333333333333
2546,9.0,,,,,,42.0,,,,56,note_on,,96.0,42.0,96.0,55608,289.625
2547,9.0,,,,,,42.0,,,,16,note_off,,64.0,42.0,64.0,55624,289.7083333333333
2548,9.0,,,,,,42.0,,,,8,note_on,,96.0,42.0,96.0,55632,289.75
2549,9.0,,,,,,42.0,,,,32,note_off,,64.0,42.0,64.0,55664,289.91666666666663
2550,9.0,,,,,,42.0,,,,16,note_on,,96.0,42.0,96.0,55680,290.0
2551,9.0,,,,,,42.0,,,,16,note_off,,64.0,42.0,64.0,55696,290.0833333333333
2552,9.0,,,,,,42.0,,,,32,note_on,,96.0,42.0,96.0,55728,290.25
2553,9.0,,,,,,42.0,,,,16,note_off,,64.0,42.0,64.0,55744,290.3333333333333
2554,9.0,,,,,,42.0,,,,56,note_on,,96.0,42.0,96.0,55800,290.625
2555,9.0,,,,,,42.0,,,,16,note_off,,64.0,42.0,64.0,55816,290.7083333333333
2556,9.0,,,,,,42.0,,,,8,note_on,,96.0,42.0,96.0,55824,290.75
2557,9.0,,,,,,42.0,,,,32,note_off,,64.0,42.0,64.0,55856,290.91666666666663
2558,9.0,,,,,,42.0,,,,16,note_on,,96.0,42.0,96.0,55872,291.0
2559,9.0,,,,,,42.0,,,,16,note_off,,64.0,42.0,64.0,55888,291.0833333333333
2560,9.0,,,,,,42.0,,,,32,note_on,,96.0,42.0,96.0,55920,291.25
2561,9.0,,,,,,42.0,,,,16,note_off,,64.0,42.0,64.0,55936,291.3333333333333
2562,9.0,,,,,,42.0,,,,56,note_on,,96.0,42.0,96.0,55992,291.625
2563,9.0,,,,,,42.0,,,,16,note_off,,64.0,42.0,64.0,56008,291.7083333333333
2564,9.0,,,,,,42.0,,,,8,note_on,,96.0,42.0,96.0,56016,291.75
2565,9.0,,,,,,42.0,,,,32,note_off,,64.0,42.0,64.0,56048,291.91666666666663
2566,9.0,,,,,,42.0,,,,16,note_on,,96.0,42.0,96.0,56064,292.0
2567,9.0,,,,,,42.0,,,,16,note_off,,64.0,42.0,64.0,56080,292.0833333333333
2568,9.0,,,,,,42.0,,,,32,note_on,,96.0,42.0,96.0,56112,292.25
2569,9.0,,,,,,42.0,,,,16,note_off,,64.0,42.0,64.0,56128,292.3333333333333
2570,9.0,,,,,,42.0,,,,56,note_on,,96.0,42.0,96.0,56184,292.625
2571,9.0,,,,,,42.0,,,,16,note_off,,64.0,42.0,64.0,56200,292.7083333333333
2572,9.0,,,,,,42.0,,,,8,note_on,,96.0,42.0,96.0,56208,292.75
2573,9.0,,,,,,42.0,,,,32,note_off,,64.0,42.0,64.0,56240,292.91666666666663
2574,9.0,,,,,,42.0,,,,16,note_on,,96.0,42.0,96.0,56256,293.0
2575,9.0,,,,,,42.0,,,,16,note_off,,64.0,42.0,64.0,56272,293.0833333333333
2576,9.0,,,,,,42.0,,,,32,note_on,,96.0,42.0,96.0,56304,293.25
2577,9.0,,,,,,42.0,,,,16,note_off,,64.0,42.0,64.0,56320,293.3333333333333
2578,9.0,,,,,,42.0,,,,56,note_on,,96.0,42.0,96.0,56376,293.625
2579,9.0,,,,,,42.0,,,,16,note_off,,64.0,42.0,64.0,56392,293.7083333333333
2580,9.0,,,,,,42.0,,,,8,note_on,,96.0,42.0,96.0,56400,293.75
2581,9.0,,,,,,42.0,,,,32,note_off,,64.0,42.0,64.0,56432,293.91666666666663
2582,9.0,,,,,,42.0,,,,16,note_on,,96.0,42.0,96.0,56448,294.0
2583,9.0,,,,,,42.0,,,,16,note_off,,64.0,42.0,64.0,56464,294.0833333333333
2584,,,,,,,,,,,0,end_of_track,,,,,56464,294.0833333333333
