,channel,clocks_per_click,control,denominator,name,notated_32nd_notes_per_beat,note,numerator,pitch,program,tempo,time,type,value,velocity,note_midi_value,note_velocity,note_time,note_seconds
0,,,,,,,,,,,500000.0,0,set_tempo,,,,,0,0.0
1,,,,,Seven Nation Army,,,,,,,0,track_name,,,,,0,0.0
2,,7.0,,4.0,,161.0,,4.0,,,,0,time_signature,,,,,0,0.0
3,,,,,,,,,,,,0,end_of_track,,,,,0,0.0
4,,,,,Guitar 1 (Jack White) Open A Tuning,,,,,,,0,track_name,,,,,0,0.0
5,0.0,,100.0,,,,,,,,,0,control_change,0.0,,,,0,0.0
6,0.0,,101.0,,,,,,,,,0,control_change,0.0,,,,0,0.0
7,0.0,,6.0,,,,,,,,,0,control_change,12.0,,,,0,0.0
8,0.0,,,,,,,,0.0,,,0,pitchwheel,,,,,0,0.0
9,1.0,,100.0,,,,,,,,,0,control_change,0.0,,,,0,0.0
10,1.0,,101.0,,,,,,,,,0,control_change,0.0,,,,0,0.0
11,1.0,,6.0,,,,,,,,,0,control_change,12.0,,,,0,0.0
12,1.0,,,,,,,,0.0,,,0,pitchwheel,,,,,0,0.0
13,0.0,,,,,,,,,29.0,,0,program_change,,,,,0,0.0
14,1.0,,,,,,,,,29.0,,0,program_change,,,,,0,0.0
15,0.0,,7.0,,,,,,,,,0,control_change,104.0,,,,0,0.0
16,1.0,,7.0,,,,,,,,,0,control_change,104.0,,,,0,0.0
17,0.0,,10.0,,,,,,,,,0,control_change,64.0,,,,0,0.0
18,1.0,,10.0,,,,,,,,,0,control_change,64.0,,,,0,0.0
19,0.0,,93.0,,,,,,,,,0,control_change,0.0,,,,0,0.0
20,1.0,,93.0,,,,,,,,,0,control_change,0.0,,,,0,0.0
21,0.0,,91.0,,,,,,,,,0,control_change,0.0,,,,0,0.0
22,1.0,,91.0,,,,,,,,,0,control_change,0.0,,,,0,0.0
23,0.0,,92.0,,,,,,,,,0,control_change,0.0,,,,0,0.0
24,1.0,,92.0,,,,,,,,,0,control_change,0.0,,,,0,0.0
25,0.0,,95.0,,,,,,,,,0,control_change,0.0,,,,0,0.0
26,1.0,,95.0,,,,,,,,,0,control_change,0.0,,,,0,0.0
27,0.0,,,,,,50.0,,,,,46080,note_on,,95.0,50.0,95.0,46080,48.0
28,0.0,,,,,,43.0,,,,,0,note_on,,95.0,43.0,95.0,46080,48.0
29,0.0,,,,,,50.0,,,,,240,note_off,,80.0,50.0,80.0,46320,48.25
30,0.0,,,,,,43.0,,,,,0,note_off,,80.0,43.0,80.0,46320,48.25
31,0.0,,,,,,50.0,,,,,0,note_on,,95.0,50.0,95.0,46320,48.25
32,0.0,,,,,,43.0,,,,,0,note_on,,95.0,43.0,95.0,46320,48.25
33,0.0,,,,,,50.0,,,,,240,note_off,,80.0,50.0,80.0,46560,48.5
34,0.0,,,,,,43.0,,,,,0,note_off,,80.0,43.0,80.0,46560,48.5
35,0.0,,,,,,50.0,,,,,0,note_on,,95.0,50.0,95.0,46560,48.5
36,0.0,,,,,,43.0,,,,,0,note_on,,95.0,43.0,95.0,46560,48.5
37,0.0,,,,,,50.0,,,,,240,note_off,,80.0,50.0,80.0,46800,48.75
38,0.0,,,,,,43.0,,,,,0,note_off,,80.0,43.0,80.0,46800,48.75
39,0.0,,,,,,50.0,,,,,0,note_on,,95.0,50.0,95.0,46800,48.75
40,0.0,,,,,,43.0,,,,,0,note_on,,95.0,43.0,95.0,46800,48.75
41,0.0,,,,,,50.0,,,,,240,note_off,,80.0,50.0,80.0,47040,49.0
42,0.0,,,,,,43.0,,,,,0,note_off,,80.0,43.0,80.0,47040,49.0
43,0.0,,,,,,50.0,,,,,0,note_on,,95.0,50.0,95.0,47040,49.0
44,0.0,,,,,,43.0,,,,,0,note_on,,95.0,43.0,95.0,47040,49.0
45,0.0,,,,,,50.0,,,,,240,note_off,,80.0,50.0,80.0,47280,49.25
46,0.0,,,,,,43.0,,,,,0,note_off,,80.0,43.0,80.0,47280,49.25
47,0.0,,,,,,50.0,,,,,0,note_on,,95.0,50.0,95.0,47280,49.25
48,0.0,,,,,,43.0,,,,,0,note_on,,95.0,43.0,95.0,47280,49.25
49,0.0,,,,,,50.0,,,,,240,note_off,,80.0,50.0,80.0,47520,49.5
50,0.0,,,,,,43.0,,,,,0,note_off,,80.0,43.0,80.0,47520,49.5
51,0.0,,,,,,50.0,,,,,0,note_on,,95.0,50.0,95.0,47520,49.5
52,0.0,,,,,,43.0,,,,,0,note_on,,95.0,43.0,95.0,47520,49.5
53,0.0,,,,,,50.0,,,,,240,note_off,,80.0,50.0,80.0,47760,49.75
54,0.0,,,,,,43.0,,,,,0,note_off,,80.0,43.0,80.0,47760,49.75
55,0.0,,,,,,50.0,,,,,0,note_on,,95.0,50.0,95.0,47760,49.75
56,0.0,,,,,,43.0,,,,,0,note_on,,95.0,43.0,95.0,47760,49.75
57,0.0,,,,,,50.0,,,,,240,note_off,,80.0,50.0,80.0,48000,50.0
58,0.0,,,,,,43.0,,,,,0,note_off,,80.0,43.0,80.0,48000,50.0
59,0.0,,,,,,45.0,,,,,0,note_on,,95.0,45.0,95.0,48000,50.0
60,0.0,,,,,,40.0,,,,,0,note_on,,95.0,40.0,95.0,48000,50.0
61,0.0,,,,,,45.0,,,,,240,note_off,,80.0,45.0,80.0,48240,50.25
62,0.0,,,,,,40.0,,,,,0,note_off,,80.0,40.0,80.0,48240,50.25
63,0.0,,,,,,45.0,,,,,0,note_on,,95.0,45.0,95.0,48240,50.25
64,0.0,,,,,,40.0,,,,,0,note_on,,95.0,40.0,95.0,48240,50.25
65,0.0,,,,,,45.0,,,,,240,note_off,,80.0,45.0,80.0,48480,50.5
66,0.0,,,,,,40.0,,,,,0,note_off,,80.0,40.0,80.0,48480,50.5
67,0.0,,,,,,52.0,,,,,0,note_on,,95.0,52.0,95.0,48480,50.5
68,0.0,,,,,,45.0,,,,,0,note_on,,95.0,45.0,95.0,48480,50.5
69,0.0,,,,,,40.0,,,,,0,note_on,,95.0,40.0,95.0,48480,50.5
70,0.0,,,,,,52.0,,,,,240,note_off,,80.0,52.0,80.0,48720,50.75
71,0.0,,,,,,45.0,,,,,0,note_off,,80.0,45.0,80.0,48720,50.75
72,0.0,,,,,,40.0,,,,,0,note_off,,80.0,40.0,80.0,48720,50.75
73,0.0,,,,,,52.0,,,,,0,note_on,,95.0,52.0,95.0,48720,50.75
74,0.0,,,,,,45.0,,,,,0,note_on,,95.0,45.0,95.0,48720,50.75
75,0.0,,,,,,40.0,,,,,0,note_on,,95.0,40.0,95.0,48720,50.75
76,0.0,,,,,,52.0,,,,,240,note_off,,80.0,52.0,80.0,48960,51.0
77,0.0,,,,,,45.0,,,,,0,note_off,,80.0,45.0,80.0,48960,51.0
78,0.0,,,,,,40.0,,,,,0,note_off,,80.0,40.0,80.0,48960,51.0
79,0.0,,,,,,57.0,,,,,0,note_on,,95.0,57.0,95.0,48960,51.0
80,0.0,,,,,,52.0,,,,,0,note_on,,95.0,52.0,95.0,48960,51.0
81,0.0,,,,,,45.0,,,,,0,note_on,,95.0,45.0,95.0,48960,51.0
82,0.0,,,,,,40.0,,,,,0,note_on,,95.0,40.0,95.0,48960,51.0
83,0.0,,,,,,57.0,,,,,240,note_off,,80.0,57.0,80.0,49200,51.25
84,0.0,,,,,,52.0,,,,,0,note_off,,80.0,52.0,80.0,49200,51.25
85,0.0,,,,,,45.0,,,,,0,note_off,,80.0,45.0,80.0,49200,51.25
86,0.0,,,,,,40.0,,,,,0,note_off,,80.0,40.0,80.0,49200,51.25
87,0.0,,,,,,61.0,,,,,0,note_on,,95.0,61.0,95.0,49200,51.25
88,0.0,,,,,,57.0,,,,,0,note_on,,95.0,57.0,95.0,49200,51.25
89,0.0,,,,,,52.0,,,,,0,note_on,,95.0,52.0,95.0,49200,51.25
90,0.0,,,,,,45.0,,,,,0,note_on,,95.0,45.0,95.0,49200,51.25
91,0.0,,,,,,40.0,,,,,0,note_on,,95.0,40.0,95.0,49200,51.25
92,0.0,,,,,,61.0,,,,,240,note_off,,80.0,61.0,80.0,49440,51.5
93,0.0,,,,,,57.0,,,,,0,note_off,,80.0,57.0,80.0,49440,51.5
94,0.0,,,,,,52.0,,,,,0,note_off,,80.0,52.0,80.0,49440,51.5
95,0.0,,,,,,45.0,,,,,0,note_off,,80.0,45.0,80.0,49440,51.5
96,0.0,,,,,,40.0,,,,,0,note_off,,80.0,40.0,80.0,49440,51.5
97,0.0,,,,,,64.0,,,,,0,note_on,,95.0,64.0,95.0,49440,51.5
98,0.0,,,,,,61.0,,,,,0,note_on,,95.0,61.0,95.0,49440,51.5
99,0.0,,,,,,57.0,,,,,0,note_on,,95.0,57.0,95.0,49440,51.5
100,0.0,,,,,,52.0,,,,,0,note_on,,95.0,52.0,95.0,49440,51.5
101,0.0,,,,,,45.0,,,,,0,note_on,,95.0,45.0,95.0,49440,51.5
102,0.0,,,,,,40.0,,,,,0,note_on,,95.0,40.0,95.0,49440,51.5
103,0.0,,,,,,64.0,,,,,240,note_off,,80.0,64.0,80.0,49680,51.75
104,0.0,,,,,,61.0,,,,,0,note_off,,80.0,61.0,80.0,49680,51.75
105,0.0,,,,,,57.0,,,,,0,note_off,,80.0,57.0,80.0,49680,51.75
106,0.0,,,,,,52.0,,,,,0,note_off,,80.0,52.0,80.0,49680,51.75
107,0.0,,,,,,45.0,,,,,0,note_off,,80.0,45.0,80.0,49680,51.75
108,0.0,,,,,,40.0,,,,,0,note_off,,80.0,40.0,80.0,49680,51.75
109,0.0,,,,,,64.0,,,,,0,note_on,,95.0,64.0,95.0,49680,51.75
110,0.0,,,,,,61.0,,,,,0,note_on,,95.0,61.0,95.0,49680,51.75
111,0.0,,,,,,57.0,,,,,0,note_on,,95.0,57.0,95.0,49680,51.75
112,0.0,,,,,,52.0,,,,,0,note_on,,95.0,52.0,95.0,49680,51.75
113,0.0,,,,,,45.0,,,,,0,note_on,,95.0,45.0,95.0,49680,51.75
114,0.0,,,,,,40.0,,,,,0,note_on,,95.0,40.0,95.0,49680,51.75
115,0.0,,,,,,57.0,,,,,210,note_on,,95.0,57.0,95.0,49890,51.96875
116,0.0,,,,,,52.0,,,,,0,note_on,,95.0,52.0,95.0,49890,51.96875
117,0.0,,,,,,45.0,,,,,0,note_on,,95.0,45.0,95.0,49890,51.96875
118,0.0,,,,,,57.0,,,,,29,note_off,,80.0,57.0,80.0,49919,51.998958333333334
119,0.0,,,,,,52.0,,,,,0,note_off,,80.0,52.0,80.0,49919,51.998958333333334
120,0.0,,,,,,45.0,,,,,0,note_off,,80.0,45.0,80.0,49919,51.998958333333334
121,0.0,,,,,,64.0,,,,,1,note_off,,80.0,64.0,80.0,49920,52.0
122,0.0,,,,,,61.0,,,,,0,note_off,,80.0,61.0,80.0,49920,52.0
123,0.0,,,,,,57.0,,,,,0,note_off,,80.0,57.0,80.0,49920,52.0
124,0.0,,,,,,52.0,,,,,0,note_off,,80.0,52.0,80.0,49920,52.0
125,0.0,,,,,,45.0,,,,,0,note_off,,80.0,45.0,80.0,49920,52.0
126,0.0,,,,,,40.0,,,,,0,note_off,,80.0,40.0,80.0,49920,52.0
127,0.0,,,,,,64.0,,,,,0,note_on,,95.0,64.0,95.0,49920,52.0
128,0.0,,,,,,59.0,,,,,0,note_on,,95.0,59.0,95.0,49920,52.0
129,0.0,,,,,,52.0,,,,,0,note_on,,95.0,52.0,95.0,49920,52.0
130,0.0,,,,,,64.0,,,,,720,note_off,,80.0,64.0,80.0,50640,52.75
131,0.0,,,,,,59.0,,,,,0,note_off,,80.0,59.0,80.0,50640,52.75
132,0.0,,,,,,52.0,,,,,0,note_off,,80.0,52.0,80.0,50640,52.75
133,1.0,,,,,,64.0,,,,,0,note_on,,95.0,64.0,95.0,50640,52.75
134,1.0,,,,,,59.0,,,,,0,note_on,,95.0,59.0,95.0,50640,52.75
135,1.0,,,,,,52.0,,,,,0,note_on,,95.0,52.0,95.0,50640,52.75
136,1.0,,,,,,,,640.0,,,120,pitchwheel,,,,,50760,52.875
137,1.0,,,,,,,,640.0,,,0,pitchwheel,,,,,50760,52.875
138,1.0,,,,,,,,640.0,,,0,pitchwheel,,,,,50760,52.875
139,1.0,,,,,,,,1408.0,,,60,pitchwheel,,,,,50820,52.9375
140,1.0,,,,,,,,1408.0,,,0,pitchwheel,,,,,50820,52.9375
141,1.0,,,,,,,,1408.0,,,0,pitchwheel,,,,,50820,52.9375
142,1.0,,,,,,64.0,,,,,60,note_off,,80.0,64.0,80.0,50880,53.0
143,1.0,,,,,,,,0.0,,,0,pitchwheel,,,,,50880,53.0
144,1.0,,,,,,59.0,,,,,0,note_off,,80.0,59.0,80.0,50880,53.0
145,1.0,,,,,,,,0.0,,,0,pitchwheel,,,,,50880,53.0
146,1.0,,,,,,52.0,,,,,0,note_off,,80.0,52.0,80.0,50880,53.0
147,1.0,,,,,,,,0.0,,,0,pitchwheel,,,,,50880,53.0
148,0.0,,,,,,67.0,,,,,0,note_on,,86.0,67.0,86.0,50880,53.0
149,0.0,,,,,,62.0,,,,,0,note_on,,86.0,62.0,86.0,50880,53.0
150,0.0,,,,,,55.0,,,,,0,note_on,,86.0,55.0,86.0,50880,53.0
151,0.0,,,,,,67.0,,,,,240,note_off,,80.0,67.0,80.0,51120,53.25
152,0.0,,,,,,62.0,,,,,0,note_off,,80.0,62.0,80.0,51120,53.25
153,0.0,,,,,,55.0,,,,,0,note_off,,80.0,55.0,80.0,51120,53.25
154,0.0,,,,,,64.0,,,,,120,note_on,,95.0,64.0,95.0,51240,53.375
155,0.0,,,,,,59.0,,,,,0,note_on,,95.0,59.0,95.0,51240,53.375
156,0.0,,,,,,52.0,,,,,0,note_on,,95.0,52.0,95.0,51240,53.375
157,0.0,,,,,,64.0,,,,,240,note_off,,80.0,64.0,80.0,51480,53.625
158,0.0,,,,,,59.0,,,,,0,note_off,,80.0,59.0,80.0,51480,53.625
159,0.0,,,,,,52.0,,,,,0,note_off,,80.0,52.0,80.0,51480,53.625
160,0.0,,,,,,62.0,,,,,120,note_on,,95.0,62.0,95.0,51600,53.75
161,0.0,,,,,,57.0,,,,,0,note_on,,95.0,57.0,95.0,51600,53.75
162,0.0,,,,,,50.0,,,,,0,note_on,,95.0,50.0,95.0,51600,53.75
163,0.0,,,,,,62.0,,,,,240,note_off,,80.0,62.0,80.0,51840,54.0
164,0.0,,,,,,57.0,,,,,0,note_off,,80.0,57.0,80.0,51840,54.0
165,0.0,,,,,,50.0,,,,,0,note_off,,80.0,50.0,80.0,51840,54.0
166,0.0,,,,,,60.0,,,,,0,note_on,,95.0,60.0,95.0,51840,54.0
167,0.0,,,,,,55.0,,,,,0,note_on,,95.0,55.0,95.0,51840,54.0
168,0.0,,,,,,48.0,,,,,0,note_on,,95.0,48.0,95.0,51840,54.0
169,0.0,,,,,,60.0,,,,,960,note_off,,80.0,60.0,80.0,52800,55.0
170,0.0,,,,,,55.0,,,,,0,note_off,,80.0,55.0,80.0,52800,55.0
171,0.0,,,,,,48.0,,,,,0,note_off,,80.0,48.0,80.0,52800,55.0
172,0.0,,,,,,59.0,,,,,0,note_on,,95.0,59.0,95.0,52800,55.0
173,0.0,,,,,,54.0,,,,,0,note_on,,95.0,54.0,95.0,52800,55.0
174,0.0,,,,,,47.0,,,,,0,note_on,,95.0,47.0,95.0,52800,55.0
175,0.0,,,,,,57.0,,,,,930,note_on,,95.0,57.0,95.0,53730,55.96875
176,0.0,,,,,,52.0,,,,,0,note_on,,95.0,52.0,95.0,53730,55.96875
177,0.0,,,,,,45.0,,,,,0,note_on,,95.0,45.0,95.0,53730,55.96875
178,0.0,,,,,,57.0,,,,,29,note_off,,80.0,57.0,80.0,53759,55.998958333333334
179,0.0,,,,,,52.0,,,,,0,note_off,,80.0,52.0,80.0,53759,55.998958333333334
180,0.0,,,,,,45.0,,,,,0,note_off,,80.0,45.0,80.0,53759,55.998958333333334
181,0.0,,,,,,59.0,,,,,1,note_off,,80.0,59.0,80.0,53760,56.0
182,0.0,,,,,,54.0,,,,,0,note_off,,80.0,54.0,80.0,53760,56.0
183,0.0,,,,,,47.0,,,,,0,note_off,,80.0,47.0,80.0,53760,56.0
184,0.0,,,,,,64.0,,,,,0,note_on,,95.0,64.0,95.0,53760,56.0
185,0.0,,,,,,59.0,,,,,0,note_on,,95.0,59.0,95.0,53760,56.0
186,0.0,,,,,,52.0,,,,,0,note_on,,95.0,52.0,95.0,53760,56.0
187,0.0,,,,,,64.0,,,,,720,note_off,,80.0,64.0,80.0,54480,56.75
188,0.0,,,,,,59.0,,,,,0,note_off,,80.0,59.0,80.0,54480,56.75
189,0.0,,,,,,52.0,,,,,0,note_off,,80.0,52.0,80.0,54480,56.75
190,1.0,,,,,,64.0,,,,,0,note_on,,95.0,64.0,95.0,54480,56.75
191,1.0,,,,,,59.0,,,,,0,note_on,,95.0,59.0,95.0,54480,56.75
192,1.0,,,,,,52.0,,,,,0,note_on,,95.0,52.0,95.0,54480,56.75
193,1.0,,,,,,,,640.0,,,120,pitchwheel,,,,,54600,56.875
194,1.0,,,,,,,,640.0,,,0,pitchwheel,,,,,54600,56.875
195,1.0,,,,,,,,640.0,,,0,pitchwheel,,,,,54600,56.875
196,1.0,,,,,,,,1408.0,,,60,pitchwheel,,,,,54660,56.9375
197,1.0,,,,,,,,1408.0,,,0,pitchwheel,,,,,54660,56.9375
198,1.0,,,,,,,,1408.0,,,0,pitchwheel,,,,,54660,56.9375
199,1.0,,,,,,64.0,,,,,60,note_off,,80.0,64.0,80.0,54720,57.0
200,1.0,,,,,,,,0.0,,,0,pitchwheel,,,,,54720,57.0
201,1.0,,,,,,59.0,,,,,0,note_off,,80.0,59.0,80.0,54720,57.0
202,1.0,,,,,,,,0.0,,,0,pitchwheel,,,,,54720,57.0
203,1.0,,,,,,52.0,,,,,0,note_off,,80.0,52.0,80.0,54720,57.0
204,1.0,,,,,,,,0.0,,,0,pitchwheel,,,,,54720,57.0
205,0.0,,,,,,67.0,,,,,0,note_on,,86.0,67.0,86.0,54720,57.0
206,0.0,,,,,,62.0,,,,,0,note_on,,86.0,62.0,86.0,54720,57.0
207,0.0,,,,,,55.0,,,,,0,note_on,,86.0,55.0,86.0,54720,57.0
208,0.0,,,,,,67.0,,,,,240,note_off,,80.0,67.0,80.0,54960,57.25
209,0.0,,,,,,62.0,,,,,0,note_off,,80.0,62.0,80.0,54960,57.25
210,0.0,,,,,,55.0,,,,,0,note_off,,80.0,55.0,80.0,54960,57.25
211,0.0,,,,,,64.0,,,,,120,note_on,,95.0,64.0,95.0,55080,57.375
212,0.0,,,,,,59.0,,,,,0,note_on,,95.0,59.0,95.0,55080,57.375
213,0.0,,,,,,52.0,,,,,0,note_on,,95.0,52.0,95.0,55080,57.375
214,0.0,,,,,,64.0,,,,,240,note_off,,80.0,64.0,80.0,55320,57.625
215,0.0,,,,,,59.0,,,,,0,note_off,,80.0,59.0,80.0,55320,57.625
216,0.0,,,,,,52.0,,,,,0,note_off,,80.0,52.0,80.0,55320,57.625
217,0.0,,,,,,62.0,,,,,120,note_on,,95.0,62.0,95.0,55440,57.75
218,0.0,,,,,,57.0,,,,,0,note_on,,95.0,57.0,95.0,55440,57.75
219,0.0,,,,,,50.0,,,,,0,note_on,,95.0,50.0,95.0,55440,57.75
220,0.0,,,,,,62.0,,,,,240,note_off,,80.0,62.0,80.0,55680,58.0
221,0.0,,,,,,57.0,,,,,0,note_off,,80.0,57.0,80.0,55680,58.0
222,0.0,,,,,,50.0,,,,,0,note_off,,80.0,50.0,80.0,55680,58.0
223,0.0,,,,,,60.0,,,,,0,note_on,,95.0,60.0,95.0,55680,58.0
224,0.0,,,,,,55.0,,,,,0,note_on,,95.0,55.0,95.0,55680,58.0
225,0.0,,,,,,48.0,,,,,0,note_on,,95.0,48.0,95.0,55680,58.0
226,0.0,,,,,,60.0,,,,,360,note_off,,80.0,60.0,80.0,56040,58.375
227,0.0,,,,,,55.0,,,,,0,note_off,,80.0,55.0,80.0,56040,58.375
228,0.0,,,,,,48.0,,,,,0,note_off,,80.0,48.0,80.0,56040,58.375
229,0.0,,,,,,62.0,,,,,0,note_on,,95.0,62.0,95.0,56040,58.375
230,0.0,,,,,,57.0,,,,,0,note_on,,95.0,57.0,95.0,56040,58.375
231,0.0,,,,,,50.0,,,,,0,note_on,,95.0,50.0,95.0,56040,58.375
232,0.0,,,,,,62.0,,,,,360,note_off,,80.0,62.0,80.0,56400,58.75
233,0.0,,,,,,57.0,,,,,0,note_off,,80.0,57.0,80.0,56400,58.75
234,0.0,,,,,,50.0,,,,,0,note_off,,80.0,50.0,80.0,56400,58.75
235,0.0,,,,,,60.0,,,,,0,note_on,,95.0,60.0,95.0,56400,58.75
236,0.0,,,,,,55.0,,,,,0,note_on,,95.0,55.0,95.0,56400,58.75
237,0.0,,,,,,48.0,,,,,0,note_on,,95.0,48.0,95.0,56400,58.75
238,0.0,,,,,,60.0,,,,,240,note_off,,80.0,60.0,80.0,56640,59.0
239,0.0,,,,,,55.0,,,,,0,note_off,,80.0,55.0,80.0,56640,59.0
240,0.0,,,,,,48.0,,,,,0,note_off,,80.0,48.0,80.0,56640,59.0
241,0.0,,,,,,59.0,,,,,0,note_on,,95.0,59.0,95.0,56640,59.0
242,0.0,,,,,,54.0,,,,,0,note_on,,95.0,54.0,95.0,56640,59.0
243,0.0,,,,,,47.0,,,,,0,note_on,,95.0,47.0,95.0,56640,59.0
244,0.0,,,,,,57.0,,,,,930,note_on,,95.0,57.0,95.0,57570,59.96875
245,0.0,,,,,,52.0,,,,,0,note_on,,95.0,52.0,95.0,57570,59.96875
246,0.0,,,,,,45.0,,,,,0,note_on,,95.0,45.0,95.0,57570,59.96875
247,0.0,,,,,,57.0,,,,,29,note_off,,80.0,57.0,80.0,57599,59.998958333333334
248,0.0,,,,,,52.0,,,,,0,note_off,,80.0,52.0,80.0,57599,59.998958333333334
249,0.0,,,,,,45.0,,,,,0,note_off,,80.0,45.0,80.0,57599,59.998958333333334
250,0.0,,,,,,59.0,,,,,1,note_off,,80.0,59.0,80.0,57600,60.0
251,0.0,,,,,,54.0,,,,,0,note_off,,80.0,54.0,80.0,57600,60.0
252,0.0,,,,,,47.0,,,,,0,note_off,,80.0,47.0,80.0,57600,60.0
253,0.0,,,,,,64.0,,,,,0,note_on,,95.0,64.0,95.0,57600,60.0
254,0.0,,,,,,59.0,,,,,0,note_on,,95.0,59.0,95.0,57600,60.0
255,0.0,,,,,,52.0,,,,,0,note_on,,95.0,52.0,95.0,57600,60.0
256,0.0,,,,,,64.0,,,,,720,note_off,,80.0,64.0,80.0,58320,60.75
257,0.0,,,,,,59.0,,,,,0,note_off,,80.0,59.0,80.0,58320,60.75
258,0.0,,,,,,52.0,,,,,0,note_off,,80.0,52.0,80.0,58320,60.75
259,1.0,,,,,,64.0,,,,,0,note_on,,95.0,64.0,95.0,58320,60.75
260,1.0,,,,,,59.0,,,,,0,note_on,,95.0,59.0,95.0,58320,60.75
261,1.0,,,,,,52.0,,,,,0,note_on,,95.0,52.0,95.0,58320,60.75
262,1.0,,,,,,,,640.0,,,120,pitchwheel,,,,,58440,60.875
263,1.0,,,,,,,,640.0,,,0,pitchwheel,,,,,58440,60.875
264,1.0,,,,,,,,640.0,,,0,pitchwheel,,,,,58440,60.875
265,1.0,,,,,,,,1408.0,,,60,pitchwheel,,,,,58500,60.9375
266,1.0,,,,,,,,1408.0,,,0,pitchwheel,,,,,58500,60.9375
267,1.0,,,,,,,,1408.0,,,0,pitchwheel,,,,,58500,60.9375
268,1.0,,,,,,64.0,,,,,60,note_off,,80.0,64.0,80.0,58560,61.0
269,1.0,,,,,,,,0.0,,,0,pitchwheel,,,,,58560,61.0
270,1.0,,,,,,59.0,,,,,0,note_off,,80.0,59.0,80.0,58560,61.0
271,1.0,,,,,,,,0.0,,,0,pitchwheel,,,,,58560,61.0
272,1.0,,,,,,52.0,,,,,0,note_off,,80.0,52.0,80.0,58560,61.0
273,1.0,,,,,,,,0.0,,,0,pitchwheel,,,,,58560,61.0
274,0.0,,,,,,67.0,,,,,0,note_on,,86.0,67.0,86.0,58560,61.0
275,0.0,,,,,,62.0,,,,,0,note_on,,86.0,62.0,86.0,58560,61.0
276,0.0,,,,,,55.0,,,,,0,note_on,,86.0,55.0,86.0,58560,61.0
277,0.0,,,,,,67.0,,,,,240,note_off,,80.0,67.0,80.0,58800,61.25
278,0.0,,,,,,62.0,,,,,0,note_off,,80.0,62.0,80.0,58800,61.25
279,0.0,,,,,,55.0,,,,,0,note_off,,80.0,55.0,80.0,58800,61.25
280,0.0,,,,,,64.0,,,,,120,note_on,,95.0,64.0,95.0,58920,61.375
281,0.0,,,,,,59.0,,,,,0,note_on,,95.0,59.0,95.0,58920,61.375
282,0.0,,,,,,52.0,,,,,0,note_on,,95.0,52.0,95.0,58920,61.375
283,0.0,,,,,,64.0,,,,,240,note_off,,80.0,64.0,80.0,59160,61.625
284,0.0,,,,,,59.0,,,,,0,note_off,,80.0,59.0,80.0,59160,61.625
285,0.0,,,,,,52.0,,,,,0,note_off,,80.0,52.0,80.0,59160,61.625
286,0.0,,,,,,62.0,,,,,120,note_on,,95.0,62.0,95.0,59280,61.75
287,0.0,,,,,,57.0,,,,,0,note_on,,95.0,57.0,95.0,59280,61.75
288,0.0,,,,,,50.0,,,,,0,note_on,,95.0,50.0,95.0,59280,61.75
289,0.0,,,,,,62.0,,,,,240,note_off,,80.0,62.0,80.0,59520,62.0
290,0.0,,,,,,57.0,,,,,0,note_off,,80.0,57.0,80.0,59520,62.0
291,0.0,,,,,,50.0,,,,,0,note_off,,80.0,50.0,80.0,59520,62.0
292,0.0,,,,,,60.0,,,,,0,note_on,,95.0,60.0,95.0,59520,62.0
293,0.0,,,,,,55.0,,,,,0,note_on,,95.0,55.0,95.0,59520,62.0
294,0.0,,,,,,48.0,,,,,0,note_on,,95.0,48.0,95.0,59520,62.0
295,0.0,,,,,,60.0,,,,,960,note_off,,80.0,60.0,80.0,60480,63.0
296,0.0,,,,,,55.0,,,,,0,note_off,,80.0,55.0,80.0,60480,63.0
297,0.0,,,,,,48.0,,,,,0,note_off,,80.0,48.0,80.0,60480,63.0
298,0.0,,,,,,59.0,,,,,0,note_on,,95.0,59.0,95.0,60480,63.0
299,0.0,,,,,,54.0,,,,,0,note_on,,95.0,54.0,95.0,60480,63.0
300,0.0,,,,,,47.0,,,,,0,note_on,,95.0,47.0,95.0,60480,63.0
301,0.0,,,,,,57.0,,,,,930,note_on,,95.0,57.0,95.0,61410,63.96875
302,0.0,,,,,,52.0,,,,,0,note_on,,95.0,52.0,95.0,61410,63.96875
303,0.0,,,,,,45.0,,,,,0,note_on,,95.0,45.0,95.0,61410,63.96875
304,0.0,,,,,,57.0,,,,,29,note_off,,80.0,57.0,80.0,61439,63.998958333333334
305,0.0,,,,,,52.0,,,,,0,note_off,,80.0,52.0,80.0,61439,63.998958333333334
306,0.0,,,,,,45.0,,,,,0,note_off,,80.0,45.0,80.0,61439,63.998958333333334
307,0.0,,,,,,59.0,,,,,1,note_off,,80.0,59.0,80.0,61440,64.0
308,0.0,,,,,,54.0,,,,,0,note_off,,80.0,54.0,80.0,61440,64.0
309,0.0,,,,,,47.0,,,,,0,note_off,,80.0,47.0,80.0,61440,64.0
310,0.0,,,,,,64.0,,,,,0,note_on,,95.0,64.0,95.0,61440,64.0
311,0.0,,,,,,59.0,,,,,0,note_on,,95.0,59.0,95.0,61440,64.0
312,0.0,,,,,,52.0,,,,,0,note_on,,95.0,52.0,95.0,61440,64.0
313,0.0,,,,,,64.0,,,,,720,note_off,,80.0,64.0,80.0,62160,64.75
314,0.0,,,,,,59.0,,,,,0,note_off,,80.0,59.0,80.0,62160,64.75
315,0.0,,,,,,52.0,,,,,0,note_off,,80.0,52.0,80.0,62160,64.75
316,1.0,,,,,,64.0,,,,,0,note_on,,95.0,64.0,95.0,62160,64.75
317,1.0,,,,,,59.0,,,,,0,note_on,,95.0,59.0,95.0,62160,64.75
318,1.0,,,,,,52.0,,,,,0,note_on,,95.0,52.0,95.0,62160,64.75
319,1.0,,,,,,,,640.0,,,120,pitchwheel,,,,,62280,64.875
320,1.0,,,,,,,,640.0,,,0,pitchwheel,,,,,62280,64.875
321,1.0,,,,,,,,640.0,,,0,pitchwheel,,,,,62280,64.875
322,1.0,,,,,,,,1408.0,,,60,pitchwheel,,,,,62340,64.9375
323,1.0,,,,,,,,1408.0,,,0,pitchwheel,,,,,62340,64.9375
324,1.0,,,,,,,,1408.0,,,0,pitchwheel,,,,,62340,64.9375
325,1.0,,,,,,64.0,,,,,60,note_off,,80.0,64.0,80.0,62400,65.0
326,1.0,,,,,,,,0.0,,,0,pitchwheel,,,,,62400,65.0
327,1.0,,,,,,59.0,,,,,0,note_off,,80.0,59.0,80.0,62400,65.0
328,1.0,,,,,,,,0.0,,,0,pitchwheel,,,,,62400,65.0
329,1.0,,,,,,52.0,,,,,0,note_off,,80.0,52.0,80.0,62400,65.0
330,1.0,,,,,,,,0.0,,,0,pitchwheel,,,,,62400,65.0
331,0.0,,,,,,67.0,,,,,0,note_on,,86.0,67.0,86.0,62400,65.0
332,0.0,,,,,,62.0,,,,,0,note_on,,86.0,62.0,86.0,62400,65.0
333,0.0,,,,,,55.0,,,,,0,note_on,,86.0,55.0,86.0,62400,65.0
334,0.0,,,,,,67.0,,,,,240,note_off,,80.0,67.0,80.0,62640,65.25
335,0.0,,,,,,62.0,,,,,0,note_off,,80.0,62.0,80.0,62640,65.25
336,0.0,,,,,,55.0,,,,,0,note_off,,80.0,55.0,80.0,62640,65.25
337,0.0,,,,,,64.0,,,,,120,note_on,,95.0,64.0,95.0,62760,65.375
338,0.0,,,,,,59.0,,,,,0,note_on,,95.0,59.0,95.0,62760,65.375
339,0.0,,,,,,52.0,,,,,0,note_on,,95.0,52.0,95.0,62760,65.375
340,0.0,,,,,,64.0,,,,,240,note_off,,80.0,64.0,80.0,63000,65.625
341,0.0,,,,,,59.0,,,,,0,note_off,,80.0,59.0,80.0,63000,65.625
342,0.0,,,,,,52.0,,,,,0,note_off,,80.0,52.0,80.0,63000,65.625
343,0.0,,,,,,62.0,,,,,120,note_on,,95.0,62.0,95.0,63120,65.75
344,0.0,,,,,,57.0,,,,,0,note_on,,95.0,57.0,95.0,63120,65.75
345,0.0,,,,,,50.0,,,,,0,note_on,,95.0,50.0,95.0,63120,65.75
346,0.0,,,,,,62.0,,,,,240,note_off,,80.0,62.0,80.0,63360,66.0
347,0.0,,,,,,57.0,,,,,0,note_off,,80.0,57.0,80.0,63360,66.0
348,0.0,,,,,,50.0,,,,,0,note_off,,80.0,50.0,80.0,63360,66.0
349,0.0,,,,,,60.0,,,,,0,note_on,,95.0,60.0,95.0,63360,66.0
350,0.0,,,,,,55.0,,,,,0,note_on,,95.0,55.0,95.0,63360,66.0
351,0.0,,,,,,48.0,,,,,0,note_on,,95.0,48.0,95.0,63360,66.0
352,0.0,,,,,,60.0,,,,,360,note_off,,80.0,60.0,80.0,63720,66.375
353,0.0,,,,,,55.0,,,,,0,note_off,,80.0,55.0,80.0,63720,66.375
354,0.0,,,,,,48.0,,,,,0,note_off,,80.0,48.0,80.0,63720,66.375
355,0.0,,,,,,62.0,,,,,0,note_on,,95.0,62.0,95.0,63720,66.375
356,0.0,,,,,,57.0,,,,,0,note_on,,95.0,57.0,95.0,63720,66.375
357,0.0,,,,,,50.0,,,,,0,note_on,,95.0,50.0,95.0,63720,66.375
358,0.0,,,,,,62.0,,,,,360,note_off,,80.0,62.0,80.0,64080,66.75
359,0.0,,,,,,57.0,,,,,0,note_off,,80.0,57.0,80.0,64080,66.75
360,0.0,,,,,,50.0,,,,,0,note_off,,80.0,50.0,80.0,64080,66.75
361,0.0,,,,,,60.0,,,,,0,note_on,,95.0,60.0,95.0,64080,66.75
362,0.0,,,,,,55.0,,,,,0,note_on,,95.0,55.0,95.0,64080,66.75
363,0.0,,,,,,48.0,,,,,0,note_on,,95.0,48.0,95.0,64080,66.75
364,0.0,,,,,,60.0,,,,,240,note_off,,80.0,60.0,80.0,64320,67.0
365,0.0,,,,,,55.0,,,,,0,note_off,,80.0,55.0,80.0,64320,67.0
366,0.0,,,,,,48.0,,,,,0,note_off,,80.0,48.0,80.0,64320,67.0
367,0.0,,,,,,59.0,,,,,0,note_on,,95.0,59.0,95.0,64320,67.0
368,0.0,,,,,,54.0,,,,,0,note_on,,95.0,54.0,95.0,64320,67.0
369,0.0,,,,,,47.0,,,,,0,note_on,,95.0,47.0,95.0,64320,67.0
370,0.0,,,,,,59.0,,,,,960,note_off,,80.0,59.0,80.0,65280,68.0
371,0.0,,,,,,54.0,,,,,0,note_off,,80.0,54.0,80.0,65280,68.0
372,0.0,,,,,,47.0,,,,,0,note_off,,80.0,47.0,80.0,65280,68.0
373,0.0,,,,,,50.0,,,,,0,note_on,,95.0,50.0,95.0,65280,68.0
374,0.0,,,,,,43.0,,,,,0,note_on,,95.0,43.0,95.0,65280,68.0
375,0.0,,,,,,50.0,,,,,240,note_off,,80.0,50.0,80.0,65520,68.25
376,0.0,,,,,,43.0,,,,,0,note_off,,80.0,43.0,80.0,65520,68.25
377,0.0,,,,,,50.0,,,,,0,note_on,,95.0,50.0,95.0,65520,68.25
378,0.0,,,,,,43.0,,,,,0,note_on,,95.0,43.0,95.0,65520,68.25
379,0.0,,,,,,50.0,,,,,240,note_off,,80.0,50.0,80.0,65760,68.5
380,0.0,,,,,,43.0,,,,,0,note_off,,80.0,43.0,80.0,65760,68.5
381,0.0,,,,,,50.0,,,,,0,note_on,,95.0,50.0,95.0,65760,68.5
382,0.0,,,,,,43.0,,,,,0,note_on,,95.0,43.0,95.0,65760,68.5
383,0.0,,,,,,50.0,,,,,240,note_off,,80.0,50.0,80.0,66000,68.75
384,0.0,,,,,,43.0,,,,,0,note_off,,80.0,43.0,80.0,66000,68.75
385,0.0,,,,,,50.0,,,,,0,note_on,,95.0,50.0,95.0,66000,68.75
386,0.0,,,,,,43.0,,,,,0,note_on,,95.0,43.0,95.0,66000,68.75
387,0.0,,,,,,50.0,,,,,240,note_off,,80.0,50.0,80.0,66240,69.0
388,0.0,,,,,,43.0,,,,,0,note_off,,80.0,43.0,80.0,66240,69.0
389,0.0,,,,,,50.0,,,,,0,note_on,,95.0,50.0,95.0,66240,69.0
390,0.0,,,,,,43.0,,,,,0,note_on,,95.0,43.0,95.0,66240,69.0
391,0.0,,,,,,50.0,,,,,240,note_off,,80.0,50.0,80.0,66480,69.25
392,0.0,,,,,,43.0,,,,,0,note_off,,80.0,43.0,80.0,66480,69.25
393,0.0,,,,,,50.0,,,,,0,note_on,,95.0,50.0,95.0,66480,69.25
394,0.0,,,,,,43.0,,,,,0,note_on,,95.0,43.0,95.0,66480,69.25
395,0.0,,,,,,50.0,,,,,240,note_off,,80.0,50.0,80.0,66720,69.5
396,0.0,,,,,,43.0,,,,,0,note_off,,80.0,43.0,80.0,66720,69.5
397,0.0,,,,,,50.0,,,,,0,note_on,,95.0,50.0,95.0,66720,69.5
398,0.0,,,,,,43.0,,,,,0,note_on,,95.0,43.0,95.0,66720,69.5
399,0.0,,,,,,50.0,,,,,240,note_off,,80.0,50.0,80.0,66960,69.75
400,0.0,,,,,,43.0,,,,,0,note_off,,80.0,43.0,80.0,66960,69.75
401,0.0,,,,,,50.0,,,,,0,note_on,,95.0,50.0,95.0,66960,69.75
402,0.0,,,,,,43.0,,,,,0,note_on,,95.0,43.0,95.0,66960,69.75
403,0.0,,,,,,50.0,,,,,240,note_off,,80.0,50.0,80.0,67200,70.0
404,0.0,,,,,,43.0,,,,,0,note_off,,80.0,43.0,80.0,67200,70.0
405,0.0,,,,,,45.0,,,,,0,note_on,,95.0,45.0,95.0,67200,70.0
406,0.0,,,,,,40.0,,,,,0,note_on,,95.0,40.0,95.0,67200,70.0
407,0.0,,,,,,45.0,,,,,240,note_off,,80.0,45.0,80.0,67440,70.25
408,0.0,,,,,,40.0,,,,,0,note_off,,80.0,40.0,80.0,67440,70.25
409,0.0,,,,,,45.0,,,,,0,note_on,,95.0,45.0,95.0,67440,70.25
410,0.0,,,,,,40.0,,,,,0,note_on,,95.0,40.0,95.0,67440,70.25
411,0.0,,,,,,45.0,,,,,240,note_off,,80.0,45.0,80.0,67680,70.5
412,0.0,,,,,,40.0,,,,,0,note_off,,80.0,40.0,80.0,67680,70.5
413,0.0,,,,,,52.0,,,,,0,note_on,,95.0,52.0,95.0,67680,70.5
414,0.0,,,,,,45.0,,,,,0,note_on,,95.0,45.0,95.0,67680,70.5
415,0.0,,,,,,40.0,,,,,0,note_on,,95.0,40.0,95.0,67680,70.5
416,0.0,,,,,,52.0,,,,,240,note_off,,80.0,52.0,80.0,67920,70.75
417,0.0,,,,,,45.0,,,,,0,note_off,,80.0,45.0,80.0,67920,70.75
418,0.0,,,,,,40.0,,,,,0,note_off,,80.0,40.0,80.0,67920,70.75
419,0.0,,,,,,52.0,,,,,0,note_on,,95.0,52.0,95.0,67920,70.75
420,0.0,,,,,,45.0,,,,,0,note_on,,95.0,45.0,95.0,67920,70.75
421,0.0,,,,,,40.0,,,,,0,note_on,,95.0,40.0,95.0,67920,70.75
422,0.0,,,,,,52.0,,,,,240,note_off,,80.0,52.0,80.0,68160,71.0
423,0.0,,,,,,45.0,,,,,0,note_off,,80.0,45.0,80.0,68160,71.0
424,0.0,,,,,,40.0,,,,,0,note_off,,80.0,40.0,80.0,68160,71.0
425,0.0,,,,,,57.0,,,,,0,note_on,,95.0,57.0,95.0,68160,71.0
426,0.0,,,,,,52.0,,,,,0,note_on,,95.0,52.0,95.0,68160,71.0
427,0.0,,,,,,45.0,,,,,0,note_on,,95.0,45.0,95.0,68160,71.0
428,0.0,,,,,,40.0,,,,,0,note_on,,95.0,40.0,95.0,68160,71.0
429,0.0,,,,,,57.0,,,,,240,note_off,,80.0,57.0,80.0,68400,71.25
430,0.0,,,,,,52.0,,,,,0,note_off,,80.0,52.0,80.0,68400,71.25
431,0.0,,,,,,45.0,,,,,0,note_off,,80.0,45.0,80.0,68400,71.25
432,0.0,,,,,,40.0,,,,,0,note_off,,80.0,40.0,80.0,68400,71.25
433,0.0,,,,,,61.0,,,,,0,note_on,,95.0,61.0,95.0,68400,71.25
434,0.0,,,,,,57.0,,,,,0,note_on,,95.0,57.0,95.0,68400,71.25
435,0.0,,,,,,52.0,,,,,0,note_on,,95.0,52.0,95.0,68400,71.25
436,0.0,,,,,,45.0,,,,,0,note_on,,95.0,45.0,95.0,68400,71.25
437,0.0,,,,,,40.0,,,,,0,note_on,,95.0,40.0,95.0,68400,71.25
438,0.0,,,,,,61.0,,,,,240,note_off,,80.0,61.0,80.0,68640,71.5
439,0.0,,,,,,57.0,,,,,0,note_off,,80.0,57.0,80.0,68640,71.5
440,0.0,,,,,,52.0,,,,,0,note_off,,80.0,52.0,80.0,68640,71.5
441,0.0,,,,,,45.0,,,,,0,note_off,,80.0,45.0,80.0,68640,71.5
442,0.0,,,,,,40.0,,,,,0,note_off,,80.0,40.0,80.0,68640,71.5
443,0.0,,,,,,64.0,,,,,0,note_on,,95.0,64.0,95.0,68640,71.5
444,0.0,,,,,,61.0,,,,,0,note_on,,95.0,61.0,95.0,68640,71.5
445,0.0,,,,,,57.0,,,,,0,note_on,,95.0,57.0,95.0,68640,71.5
446,0.0,,,,,,52.0,,,,,0,note_on,,95.0,52.0,95.0,68640,71.5
447,0.0,,,,,,45.0,,,,,0,note_on,,95.0,45.0,95.0,68640,71.5
448,0.0,,,,,,40.0,,,,,0,note_on,,95.0,40.0,95.0,68640,71.5
449,0.0,,,,,,64.0,,,,,240,note_off,,80.0,64.0,80.0,68880,71.75
450,0.0,,,,,,61.0,,,,,0,note_off,,80.0,61.0,80.0,68880,71.75
451,0.0,,,,,,57.0,,,,,0,note_off,,80.0,57.0,80.0,68880,71.75
452,0.0,,,,,,52.0,,,,,0,note_off,,80.0,52.0,80.0,68880,71.75
453,0.0,,,,,,45.0,,,,,0,note_off,,80.0,45.0,80.0,68880,71.75
454,0.0,,,,,,40.0,,,,,0,note_off,,80.0,40.0,80.0,68880,71.75
455,0.0,,,,,,64.0,,,,,0,note_on,,95.0,64.0,95.0,68880,71.75
456,0.0,,,,,,61.0,,,,,0,note_on,,95.0,61.0,95.0,68880,71.75
457,0.0,,,,,,57.0,,,,,0,note_on,,95.0,57.0,95.0,68880,71.75
458,0.0,,,,,,52.0,,,,,0,note_on,,95.0,52.0,95.0,68880,71.75
459,0.0,,,,,,45.0,,,,,0,note_on,,95.0,45.0,95.0,68880,71.75
460,0.0,,,,,,40.0,,,,,0,note_on,,95.0,40.0,95.0,68880,71.75
461,0.0,,,,,,64.0,,,,,240,note_off,,80.0,64.0,80.0,69120,72.0
462,0.0,,,,,,61.0,,,,,0,note_off,,80.0,61.0,80.0,69120,72.0
463,0.0,,,,,,57.0,,,,,0,note_off,,80.0,57.0,80.0,69120,72.0
464,0.0,,,,,,52.0,,,,,0,note_off,,80.0,52.0,80.0,69120,72.0
465,0.0,,,,,,45.0,,,,,0,note_off,,80.0,45.0,80.0,69120,72.0
466,0.0,,,,,,40.0,,,,,0,note_off,,80.0,40.0,80.0,69120,72.0
467,0.0,,,,,,50.0,,,,,46080,note_on,,95.0,50.0,95.0,115200,120.0
468,0.0,,,,,,43.0,,,,,0,note_on,,95.0,43.0,95.0,115200,120.0
469,0.0,,,,,,50.0,,,,,240,note_off,,80.0,50.0,80.0,115440,120.25
470,0.0,,,,,,43.0,,,,,0,note_off,,80.0,43.0,80.0,115440,120.25
471,0.0,,,,,,50.0,,,,,0,note_on,,95.0,50.0,95.0,115440,120.25
472,0.0,,,,,,43.0,,,,,0,note_on,,95.0,43.0,95.0,115440,120.25
473,0.0,,,,,,50.0,,,,,240,note_off,,80.0,50.0,80.0,115680,120.5
474,0.0,,,,,,43.0,,,,,0,note_off,,80.0,43.0,80.0,115680,120.5
475,0.0,,,,,,50.0,,,,,0,note_on,,95.0,50.0,95.0,115680,120.5
476,0.0,,,,,,43.0,,,,,0,note_on,,95.0,43.0,95.0,115680,120.5
477,0.0,,,,,,50.0,,,,,240,note_off,,80.0,50.0,80.0,115920,120.75
478,0.0,,,,,,43.0,,,,,0,note_off,,80.0,43.0,80.0,115920,120.75
479,0.0,,,,,,50.0,,,,,0,note_on,,95.0,50.0,95.0,115920,120.75
480,0.0,,,,,,43.0,,,,,0,note_on,,95.0,43.0,95.0,115920,120.75
481,0.0,,,,,,50.0,,,,,240,note_off,,80.0,50.0,80.0,116160,121.0
482,0.0,,,,,,43.0,,,,,0,note_off,,80.0,43.0,80.0,116160,121.0
483,0.0,,,,,,50.0,,,,,0,note_on,,95.0,50.0,95.0,116160,121.0
484,0.0,,,,,,43.0,,,,,0,note_on,,95.0,43.0,95.0,116160,121.0
485,0.0,,,,,,50.0,,,,,240,note_off,,80.0,50.0,80.0,116400,121.25
486,0.0,,,,,,43.0,,,,,0,note_off,,80.0,43.0,80.0,116400,121.25
487,0.0,,,,,,50.0,,,,,0,note_on,,95.0,50.0,95.0,116400,121.25
488,0.0,,,,,,43.0,,,,,0,note_on,,95.0,43.0,95.0,116400,121.25
489,0.0,,,,,,50.0,,,,,240,note_off,,80.0,50.0,80.0,116640,121.5
490,0.0,,,,,,43.0,,,,,0,note_off,,80.0,43.0,80.0,116640,121.5
491,0.0,,,,,,50.0,,,,,0,note_on,,95.0,50.0,95.0,116640,121.5
492,0.0,,,,,,43.0,,,,,0,note_on,,95.0,43.0,95.0,116640,121.5
493,0.0,,,,,,50.0,,,,,240,note_off,,80.0,50.0,80.0,116880,121.75
494,0.0,,,,,,43.0,,,,,0,note_off,,80.0,43.0,80.0,116880,121.75
495,0.0,,,,,,50.0,,,,,0,note_on,,95.0,50.0,95.0,116880,121.75
496,0.0,,,,,,43.0,,,,,0,note_on,,95.0,43.0,95.0,116880,121.75
497,0.0,,,,,,50.0,,,,,240,note_off,,80.0,50.0,80.0,117120,122.0
498,0.0,,,,,,43.0,,,,,0,note_off,,80.0,43.0,80.0,117120,122.0
499,0.0,,,,,,45.0,,,,,0,note_on,,95.0,45.0,95.0,117120,122.0
500,0.0,,,,,,40.0,,,,,0,note_on,,95.0,40.0,95.0,117120,122.0
501,0.0,,,,,,45.0,,,,,240,note_off,,80.0,45.0,80.0,117360,122.25
502,0.0,,,,,,40.0,,,,,0,note_off,,80.0,40.0,80.0,117360,122.25
503,0.0,,,,,,45.0,,,,,0,note_on,,95.0,45.0,95.0,117360,122.25
504,0.0,,,,,,40.0,,,,,0,note_on,,95.0,40.0,95.0,117360,122.25
505,0.0,,,,,,45.0,,,,,240,note_off,,80.0,45.0,80.0,117600,122.5
506,0.0,,,,,,40.0,,,,,0,note_off,,80.0,40.0,80.0,117600,122.5
507,0.0,,,,,,52.0,,,,,0,note_on,,95.0,52.0,95.0,117600,122.5
508,0.0,,,,,,45.0,,,,,0,note_on,,95.0,45.0,95.0,117600,122.5
509,0.0,,,,,,40.0,,,,,0,note_on,,95.0,40.0,95.0,117600,122.5
510,0.0,,,,,,52.0,,,,,240,note_off,,80.0,52.0,80.0,117840,122.75
511,0.0,,,,,,45.0,,,,,0,note_off,,80.0,45.0,80.0,117840,122.75
512,0.0,,,,,,40.0,,,,,0,note_off,,80.0,40.0,80.0,117840,122.75
513,0.0,,,,,,52.0,,,,,0,note_on,,95.0,52.0,95.0,117840,122.75
514,0.0,,,,,,45.0,,,,,0,note_on,,95.0,45.0,95.0,117840,122.75
515,0.0,,,,,,40.0,,,,,0,note_on,,95.0,40.0,95.0,117840,122.75
516,0.0,,,,,,52.0,,,,,240,note_off,,80.0,52.0,80.0,118080,123.0
517,0.0,,,,,,45.0,,,,,0,note_off,,80.0,45.0,80.0,118080,123.0
518,0.0,,,,,,40.0,,,,,0,note_off,,80.0,40.0,80.0,118080,123.0
519,0.0,,,,,,57.0,,,,,0,note_on,,95.0,57.0,95.0,118080,123.0
520,0.0,,,,,,52.0,,,,,0,note_on,,95.0,52.0,95.0,118080,123.0
521,0.0,,,,,,45.0,,,,,0,note_on,,95.0,45.0,95.0,118080,123.0
522,0.0,,,,,,40.0,,,,,0,note_on,,95.0,40.0,95.0,118080,123.0
523,0.0,,,,,,57.0,,,,,240,note_off,,80.0,57.0,80.0,118320,123.25
524,0.0,,,,,,52.0,,,,,0,note_off,,80.0,52.0,80.0,118320,123.25
525,0.0,,,,,,45.0,,,,,0,note_off,,80.0,45.0,80.0,118320,123.25
526,0.0,,,,,,40.0,,,,,0,note_off,,80.0,40.0,80.0,118320,123.25
527,0.0,,,,,,61.0,,,,,0,note_on,,95.0,61.0,95.0,118320,123.25
528,0.0,,,,,,57.0,,,,,0,note_on,,95.0,57.0,95.0,118320,123.25
529,0.0,,,,,,52.0,,,,,0,note_on,,95.0,52.0,95.0,118320,123.25
530,0.0,,,,,,45.0,,,,,0,note_on,,95.0,45.0,95.0,118320,123.25
531,0.0,,,,,,40.0,,,,,0,note_on,,95.0,40.0,95.0,118320,123.25
532,0.0,,,,,,61.0,,,,,240,note_off,,80.0,61.0,80.0,118560,123.5
533,0.0,,,,,,57.0,,,,,0,note_off,,80.0,57.0,80.0,118560,123.5
534,0.0,,,,,,52.0,,,,,0,note_off,,80.0,52.0,80.0,118560,123.5
535,0.0,,,,,,45.0,,,,,0,note_off,,80.0,45.0,80.0,118560,123.5
536,0.0,,,,,,40.0,,,,,0,note_off,,80.0,40.0,80.0,118560,123.5
537,0.0,,,,,,64.0,,,,,0,note_on,,95.0,64.0,95.0,118560,123.5
538,0.0,,,,,,61.0,,,,,0,note_on,,95.0,61.0,95.0,118560,123.5
539,0.0,,,,,,57.0,,,,,0,note_on,,95.0,57.0,95.0,118560,123.5
540,0.0,,,,,,52.0,,,,,0,note_on,,95.0,52.0,95.0,118560,123.5
541,0.0,,,,,,45.0,,,,,0,note_on,,95.0,45.0,95.0,118560,123.5
542,0.0,,,,,,40.0,,,,,0,note_on,,95.0,40.0,95.0,118560,123.5
543,0.0,,,,,,64.0,,,,,240,note_off,,80.0,64.0,80.0,118800,123.75
544,0.0,,,,,,61.0,,,,,0,note_off,,80.0,61.0,80.0,118800,123.75
545,0.0,,,,,,57.0,,,,,0,note_off,,80.0,57.0,80.0,118800,123.75
546,0.0,,,,,,52.0,,,,,0,note_off,,80.0,52.0,80.0,118800,123.75
547,0.0,,,,,,45.0,,,,,0,note_off,,80.0,45.0,80.0,118800,123.75
548,0.0,,,,,,40.0,,,,,0,note_off,,80.0,40.0,80.0,118800,123.75
549,0.0,,,,,,64.0,,,,,0,note_on,,95.0,64.0,95.0,118800,123.75
550,0.0,,,,,,61.0,,,,,0,note_on,,95.0,61.0,95.0,118800,123.75
551,0.0,,,,,,57.0,,,,,0,note_on,,95.0,57.0,95.0,118800,123.75
552,0.0,,,,,,52.0,,,,,0,note_on,,95.0,52.0,95.0,118800,123.75
553,0.0,,,,,,45.0,,,,,0,note_on,,95.0,45.0,95.0,118800,123.75
554,0.0,,,,,,40.0,,,,,0,note_on,,95.0,40.0,95.0,118800,123.75
555,0.0,,,,,,57.0,,,,,210,note_on,,95.0,57.0,95.0,119010,123.96875
556,0.0,,,,,,52.0,,,,,0,note_on,,95.0,52.0,95.0,119010,123.96875
557,0.0,,,,,,45.0,,,,,0,note_on,,95.0,45.0,95.0,119010,123.96875
558,0.0,,,,,,57.0,,,,,29,note_off,,80.0,57.0,80.0,119039,123.99895833333333
559,0.0,,,,,,52.0,,,,,0,note_off,,80.0,52.0,80.0,119039,123.99895833333333
560,0.0,,,,,,45.0,,,,,0,note_off,,80.0,45.0,80.0,119039,123.99895833333333
561,0.0,,,,,,64.0,,,,,1,note_off,,80.0,64.0,80.0,119040,124.0
562,0.0,,,,,,61.0,,,,,0,note_off,,80.0,61.0,80.0,119040,124.0
563,0.0,,,,,,57.0,,,,,0,note_off,,80.0,57.0,80.0,119040,124.0
564,0.0,,,,,,52.0,,,,,0,note_off,,80.0,52.0,80.0,119040,124.0
565,0.0,,,,,,45.0,,,,,0,note_off,,80.0,45.0,80.0,119040,124.0
566,0.0,,,,,,40.0,,,,,0,note_off,,80.0,40.0,80.0,119040,124.0
567,0.0,,,,,,64.0,,,,,0,note_on,,95.0,64.0,95.0,119040,124.0
568,0.0,,,,,,59.0,,,,,0,note_on,,95.0,59.0,95.0,119040,124.0
569,0.0,,,,,,52.0,,,,,0,note_on,,95.0,52.0,95.0,119040,124.0
570,0.0,,,,,,64.0,,,,,720,note_off,,80.0,64.0,80.0,119760,124.75
571,0.0,,,,,,59.0,,,,,0,note_off,,80.0,59.0,80.0,119760,124.75
572,0.0,,,,,,52.0,,,,,0,note_off,,80.0,52.0,80.0,119760,124.75
573,1.0,,,,,,64.0,,,,,0,note_on,,95.0,64.0,95.0,119760,124.75
574,1.0,,,,,,59.0,,,,,0,note_on,,95.0,59.0,95.0,119760,124.75
575,1.0,,,,,,52.0,,,,,0,note_on,,95.0,52.0,95.0,119760,124.75
576,1.0,,,,,,,,640.0,,,120,pitchwheel,,,,,119880,124.875
577,1.0,,,,,,,,640.0,,,0,pitchwheel,,,,,119880,124.875
578,1.0,,,,,,,,640.0,,,0,pitchwheel,,,,,119880,124.875
579,1.0,,,,,,,,1408.0,,,60,pitchwheel,,,,,119940,124.9375
580,1.0,,,,,,,,1408.0,,,0,pitchwheel,,,,,119940,124.9375
581,1.0,,,,,,,,1408.0,,,0,pitchwheel,,,,,119940,124.9375
582,1.0,,,,,,64.0,,,,,60,note_off,,80.0,64.0,80.0,120000,125.0
583,1.0,,,,,,,,0.0,,,0,pitchwheel,,,,,120000,125.0
584,1.0,,,,,,59.0,,,,,0,note_off,,80.0,59.0,80.0,120000,125.0
585,1.0,,,,,,,,0.0,,,0,pitchwheel,,,,,120000,125.0
586,1.0,,,,,,52.0,,,,,0,note_off,,80.0,52.0,80.0,120000,125.0
587,1.0,,,,,,,,0.0,,,0,pitchwheel,,,,,120000,125.0
588,0.0,,,,,,67.0,,,,,0,note_on,,86.0,67.0,86.0,120000,125.0
589,0.0,,,,,,62.0,,,,,0,note_on,,86.0,62.0,86.0,120000,125.0
590,0.0,,,,,,55.0,,,,,0,note_on,,86.0,55.0,86.0,120000,125.0
591,0.0,,,,,,67.0,,,,,240,note_off,,80.0,67.0,80.0,120240,125.25
592,0.0,,,,,,62.0,,,,,0,note_off,,80.0,62.0,80.0,120240,125.25
593,0.0,,,,,,55.0,,,,,0,note_off,,80.0,55.0,80.0,120240,125.25
594,0.0,,,,,,64.0,,,,,120,note_on,,95.0,64.0,95.0,120360,125.375
595,0.0,,,,,,59.0,,,,,0,note_on,,95.0,59.0,95.0,120360,125.375
596,0.0,,,,,,52.0,,,,,0,note_on,,95.0,52.0,95.0,120360,125.375
597,0.0,,,,,,64.0,,,,,240,note_off,,80.0,64.0,80.0,120600,125.625
598,0.0,,,,,,59.0,,,,,0,note_off,,80.0,59.0,80.0,120600,125.625
599,0.0,,,,,,52.0,,,,,0,note_off,,80.0,52.0,80.0,120600,125.625
600,0.0,,,,,,62.0,,,,,120,note_on,,95.0,62.0,95.0,120720,125.75
601,0.0,,,,,,57.0,,,,,0,note_on,,95.0,57.0,95.0,120720,125.75
602,0.0,,,,,,50.0,,,,,0,note_on,,95.0,50.0,95.0,120720,125.75
603,0.0,,,,,,62.0,,,,,240,note_off,,80.0,62.0,80.0,120960,126.0
604,0.0,,,,,,57.0,,,,,0,note_off,,80.0,57.0,80.0,120960,126.0
605,0.0,,,,,,50.0,,,,,0,note_off,,80.0,50.0,80.0,120960,126.0
606,0.0,,,,,,60.0,,,,,0,note_on,,95.0,60.0,95.0,120960,126.0
607,0.0,,,,,,55.0,,,,,0,note_on,,95.0,55.0,95.0,120960,126.0
608,0.0,,,,,,48.0,,,,,0,note_on,,95.0,48.0,95.0,120960,126.0
609,0.0,,,,,,60.0,,,,,960,note_off,,80.0,60.0,80.0,121920,127.0
610,0.0,,,,,,55.0,,,,,0,note_off,,80.0,55.0,80.0,121920,127.0
611,0.0,,,,,,48.0,,,,,0,note_off,,80.0,48.0,80.0,121920,127.0
612,0.0,,,,,,59.0,,,,,0,note_on,,95.0,59.0,95.0,121920,127.0
613,0.0,,,,,,54.0,,,,,0,note_on,,95.0,54.0,95.0,121920,127.0
614,0.0,,,,,,47.0,,,,,0,note_on,,95.0,47.0,95.0,121920,127.0
615,0.0,,,,,,57.0,,,,,930,note_on,,95.0,57.0,95.0,122850,127.96875
616,0.0,,,,,,52.0,,,,,0,note_on,,95.0,52.0,95.0,122850,127.96875
617,0.0,,,,,,45.0,,,,,0,note_on,,95.0,45.0,95.0,122850,127.96875
618,0.0,,,,,,57.0,,,,,29,note_off,,80.0,57.0,80.0,122879,127.99895833333333
619,0.0,,,,,,52.0,,,,,0,note_off,,80.0,52.0,80.0,122879,127.99895833333333
620,0.0,,,,,,45.0,,,,,0,note_off,,80.0,45.0,80.0,122879,127.99895833333333
621,0.0,,,,,,59.0,,,,,1,note_off,,80.0,59.0,80.0,122880,128.0
622,0.0,,,,,,54.0,,,,,0,note_off,,80.0,54.0,80.0,122880,128.0
623,0.0,,,,,,47.0,,,,,0,note_off,,80.0,47.0,80.0,122880,128.0
624,0.0,,,,,,64.0,,,,,0,note_on,,95.0,64.0,95.0,122880,128.0
625,0.0,,,,,,59.0,,,,,0,note_on,,95.0,59.0,95.0,122880,128.0
626,0.0,,,,,,52.0,,,,,0,note_on,,95.0,52.0,95.0,122880,128.0
627,0.0,,,,,,64.0,,,,,720,note_off,,80.0,64.0,80.0,123600,128.75
628,0.0,,,,,,59.0,,,,,0,note_off,,80.0,59.0,80.0,123600,128.75
629,0.0,,,,,,52.0,,,,,0,note_off,,80.0,52.0,80.0,123600,128.75
630,1.0,,,,,,64.0,,,,,0,note_on,,95.0,64.0,95.0,123600,128.75
631,1.0,,,,,,59.0,,,,,0,note_on,,95.0,59.0,95.0,123600,128.75
632,1.0,,,,,,52.0,,,,,0,note_on,,95.0,52.0,95.0,123600,128.75
633,1.0,,,,,,,,640.0,,,120,pitchwheel,,,,,123720,128.875
634,1.0,,,,,,,,640.0,,,0,pitchwheel,,,,,123720,128.875
635,1.0,,,,,,,,640.0,,,0,pitchwheel,,,,,123720,128.875
636,1.0,,,,,,,,1408.0,,,60,pitchwheel,,,,,123780,128.9375
637,1.0,,,,,,,,1408.0,,,0,pitchwheel,,,,,123780,128.9375
638,1.0,,,,,,,,1408.0,,,0,pitchwheel,,,,,123780,128.9375
639,1.0,,,,,,64.0,,,,,60,note_off,,80.0,64.0,80.0,123840,129.0
640,1.0,,,,,,,,0.0,,,0,pitchwheel,,,,,123840,129.0
641,1.0,,,,,,59.0,,,,,0,note_off,,80.0,59.0,80.0,123840,129.0
642,1.0,,,,,,,,0.0,,,0,pitchwheel,,,,,123840,129.0
643,1.0,,,,,,52.0,,,,,0,note_off,,80.0,52.0,80.0,123840,129.0
644,1.0,,,,,,,,0.0,,,0,pitchwheel,,,,,123840,129.0
645,0.0,,,,,,67.0,,,,,0,note_on,,86.0,67.0,86.0,123840,129.0
646,0.0,,,,,,62.0,,,,,0,note_on,,86.0,62.0,86.0,123840,129.0
647,0.0,,,,,,55.0,,,,,0,note_on,,86.0,55.0,86.0,123840,129.0
648,0.0,,,,,,67.0,,,,,240,note_off,,80.0,67.0,80.0,124080,129.25
649,0.0,,,,,,62.0,,,,,0,note_off,,80.0,62.0,80.0,124080,129.25
650,0.0,,,,,,55.0,,,,,0,note_off,,80.0,55.0,80.0,124080,129.25
651,0.0,,,,,,64.0,,,,,120,note_on,,95.0,64.0,95.0,124200,129.375
652,0.0,,,,,,59.0,,,,,0,note_on,,95.0,59.0,95.0,124200,129.375
653,0.0,,,,,,52.0,,,,,0,note_on,,95.0,52.0,95.0,124200,129.375
654,0.0,,,,,,64.0,,,,,240,note_off,,80.0,64.0,80.0,124440,129.625
655,0.0,,,,,,59.0,,,,,0,note_off,,80.0,59.0,80.0,124440,129.625
656,0.0,,,,,,52.0,,,,,0,note_off,,80.0,52.0,80.0,124440,129.625
657,0.0,,,,,,62.0,,,,,120,note_on,,95.0,62.0,95.0,124560,129.75
658,0.0,,,,,,57.0,,,,,0,note_on,,95.0,57.0,95.0,124560,129.75
659,0.0,,,,,,50.0,,,,,0,note_on,,95.0,50.0,95.0,124560,129.75
660,0.0,,,,,,62.0,,,,,240,note_off,,80.0,62.0,80.0,124800,130.0
661,0.0,,,,,,57.0,,,,,0,note_off,,80.0,57.0,80.0,124800,130.0
662,0.0,,,,,,50.0,,,,,0,note_off,,80.0,50.0,80.0,124800,130.0
663,0.0,,,,,,60.0,,,,,0,note_on,,95.0,60.0,95.0,124800,130.0
664,0.0,,,,,,55.0,,,,,0,note_on,,95.0,55.0,95.0,124800,130.0
665,0.0,,,,,,48.0,,,,,0,note_on,,95.0,48.0,95.0,124800,130.0
666,0.0,,,,,,60.0,,,,,360,note_off,,80.0,60.0,80.0,125160,130.375
667,0.0,,,,,,55.0,,,,,0,note_off,,80.0,55.0,80.0,125160,130.375
668,0.0,,,,,,48.0,,,,,0,note_off,,80.0,48.0,80.0,125160,130.375
669,0.0,,,,,,62.0,,,,,0,note_on,,95.0,62.0,95.0,125160,130.375
670,0.0,,,,,,57.0,,,,,0,note_on,,95.0,57.0,95.0,125160,130.375
671,0.0,,,,,,50.0,,,,,0,note_on,,95.0,50.0,95.0,125160,130.375
672,0.0,,,,,,62.0,,,,,360,note_off,,80.0,62.0,80.0,125520,130.75
673,0.0,,,,,,57.0,,,,,0,note_off,,80.0,57.0,80.0,125520,130.75
674,0.0,,,,,,50.0,,,,,0,note_off,,80.0,50.0,80.0,125520,130.75
675,0.0,,,,,,60.0,,,,,0,note_on,,95.0,60.0,95.0,125520,130.75
676,0.0,,,,,,55.0,,,,,0,note_on,,95.0,55.0,95.0,125520,130.75
677,0.0,,,,,,48.0,,,,,0,note_on,,95.0,48.0,95.0,125520,130.75
678,0.0,,,,,,60.0,,,,,240,note_off,,80.0,60.0,80.0,125760,131.0
679,0.0,,,,,,55.0,,,,,0,note_off,,80.0,55.0,80.0,125760,131.0
680,0.0,,,,,,48.0,,,,,0,note_off,,80.0,48.0,80.0,125760,131.0
681,0.0,,,,,,59.0,,,,,0,note_on,,95.0,59.0,95.0,125760,131.0
682,0.0,,,,,,54.0,,,,,0,note_on,,95.0,54.0,95.0,125760,131.0
683,0.0,,,,,,47.0,,,,,0,note_on,,95.0,47.0,95.0,125760,131.0
684,0.0,,,,,,57.0,,,,,930,note_on,,95.0,57.0,95.0,126690,131.96875
685,0.0,,,,,,52.0,,,,,0,note_on,,95.0,52.0,95.0,126690,131.96875
686,0.0,,,,,,45.0,,,,,0,note_on,,95.0,45.0,95.0,126690,131.96875
687,0.0,,,,,,57.0,,,,,29,note_off,,80.0,57.0,80.0,126719,131.99895833333332
688,0.0,,,,,,52.0,,,,,0,note_off,,80.0,52.0,80.0,126719,131.99895833333332
689,0.0,,,,,,45.0,,,,,0,note_off,,80.0,45.0,80.0,126719,131.99895833333332
690,0.0,,,,,,59.0,,,,,1,note_off,,80.0,59.0,80.0,126720,132.0
691,0.0,,,,,,54.0,,,,,0,note_off,,80.0,54.0,80.0,126720,132.0
692,0.0,,,,,,47.0,,,,,0,note_off,,80.0,47.0,80.0,126720,132.0
693,0.0,,,,,,64.0,,,,,0,note_on,,95.0,64.0,95.0,126720,132.0
694,0.0,,,,,,59.0,,,,,0,note_on,,95.0,59.0,95.0,126720,132.0
695,0.0,,,,,,52.0,,,,,0,note_on,,95.0,52.0,95.0,126720,132.0
696,0.0,,,,,,64.0,,,,,720,note_off,,80.0,64.0,80.0,127440,132.75
697,0.0,,,,,,59.0,,,,,0,note_off,,80.0,59.0,80.0,127440,132.75
698,0.0,,,,,,52.0,,,,,0,note_off,,80.0,52.0,80.0,127440,132.75
699,1.0,,,,,,64.0,,,,,0,note_on,,95.0,64.0,95.0,127440,132.75
700,1.0,,,,,,59.0,,,,,0,note_on,,95.0,59.0,95.0,127440,132.75
701,1.0,,,,,,52.0,,,,,0,note_on,,95.0,52.0,95.0,127440,132.75
702,1.0,,,,,,,,640.0,,,120,pitchwheel,,,,,127560,132.875
703,1.0,,,,,,,,640.0,,,0,pitchwheel,,,,,127560,132.875
704,1.0,,,,,,,,640.0,,,0,pitchwheel,,,,,127560,132.875
705,1.0,,,,,,,,1408.0,,,60,pitchwheel,,,,,127620,132.9375
706,1.0,,,,,,,,1408.0,,,0,pitchwheel,,,,,127620,132.9375
707,1.0,,,,,,,,1408.0,,,0,pitchwheel,,,,,127620,132.9375
708,1.0,,,,,,64.0,,,,,60,note_off,,80.0,64.0,80.0,127680,133.0
709,1.0,,,,,,,,0.0,,,0,pitchwheel,,,,,127680,133.0
710,1.0,,,,,,59.0,,,,,0,note_off,,80.0,59.0,80.0,127680,133.0
711,1.0,,,,,,,,0.0,,,0,pitchwheel,,,,,127680,133.0
712,1.0,,,,,,52.0,,,,,0,note_off,,80.0,52.0,80.0,127680,133.0
713,1.0,,,,,,,,0.0,,,0,pitchwheel,,,,,127680,133.0
714,0.0,,,,,,67.0,,,,,0,note_on,,86.0,67.0,86.0,127680,133.0
715,0.0,,,,,,62.0,,,,,0,note_on,,86.0,62.0,86.0,127680,133.0
716,0.0,,,,,,55.0,,,,,0,note_on,,86.0,55.0,86.0,127680,133.0
717,0.0,,,,,,67.0,,,,,240,note_off,,80.0,67.0,80.0,127920,133.25
718,0.0,,,,,,62.0,,,,,0,note_off,,80.0,62.0,80.0,127920,133.25
719,0.0,,,,,,55.0,,,,,0,note_off,,80.0,55.0,80.0,127920,133.25
720,0.0,,,,,,64.0,,,,,120,note_on,,95.0,64.0,95.0,128040,133.375
721,0.0,,,,,,59.0,,,,,0,note_on,,95.0,59.0,95.0,128040,133.375
722,0.0,,,,,,52.0,,,,,0,note_on,,95.0,52.0,95.0,128040,133.375
723,0.0,,,,,,64.0,,,,,240,note_off,,80.0,64.0,80.0,128280,133.625
724,0.0,,,,,,59.0,,,,,0,note_off,,80.0,59.0,80.0,128280,133.625
725,0.0,,,,,,52.0,,,,,0,note_off,,80.0,52.0,80.0,128280,133.625
726,0.0,,,,,,62.0,,,,,120,note_on,,95.0,62.0,95.0,128400,133.75
727,0.0,,,,,,57.0,,,,,0,note_on,,95.0,57.0,95.0,128400,133.75
728,0.0,,,,,,50.0,,,,,0,note_on,,95.0,50.0,95.0,128400,133.75
729,0.0,,,,,,62.0,,,,,240,note_off,,80.0,62.0,80.0,128640,134.0
730,0.0,,,,,,57.0,,,,,0,note_off,,80.0,57.0,80.0,128640,134.0
731,0.0,,,,,,50.0,,,,,0,note_off,,80.0,50.0,80.0,128640,134.0
732,0.0,,,,,,60.0,,,,,0,note_on,,95.0,60.0,95.0,128640,134.0
733,0.0,,,,,,55.0,,,,,0,note_on,,95.0,55.0,95.0,128640,134.0
734,0.0,,,,,,48.0,,,,,0,note_on,,95.0,48.0,95.0,128640,134.0
735,0.0,,,,,,60.0,,,,,960,note_off,,80.0,60.0,80.0,129600,135.0
736,0.0,,,,,,55.0,,,,,0,note_off,,80.0,55.0,80.0,129600,135.0
737,0.0,,,,,,48.0,,,,,0,note_off,,80.0,48.0,80.0,129600,135.0
738,0.0,,,,,,59.0,,,,,0,note_on,,95.0,59.0,95.0,129600,135.0
739,0.0,,,,,,54.0,,,,,0,note_on,,95.0,54.0,95.0,129600,135.0
740,0.0,,,,,,47.0,,,,,0,note_on,,95.0,47.0,95.0,129600,135.0
741,0.0,,,,,,57.0,,,,,930,note_on,,95.0,57.0,95.0,130530,135.96875
742,0.0,,,,,,52.0,,,,,0,note_on,,95.0,52.0,95.0,130530,135.96875
743,0.0,,,,,,45.0,,,,,0,note_on,,95.0,45.0,95.0,130530,135.96875
744,0.0,,,,,,57.0,,,,,29,note_off,,80.0,57.0,80.0,130559,135.99895833333332
745,0.0,,,,,,52.0,,,,,0,note_off,,80.0,52.0,80.0,130559,135.99895833333332
746,0.0,,,,,,45.0,,,,,0,note_off,,80.0,45.0,80.0,130559,135.99895833333332
747,0.0,,,,,,59.0,,,,,1,note_off,,80.0,59.0,80.0,130560,136.0
748,0.0,,,,,,54.0,,,,,0,note_off,,80.0,54.0,80.0,130560,136.0
749,0.0,,,,,,47.0,,,,,0,note_off,,80.0,47.0,80.0,130560,136.0
750,0.0,,,,,,64.0,,,,,0,note_on,,95.0,64.0,95.0,130560,136.0
751,0.0,,,,,,59.0,,,,,0,note_on,,95.0,59.0,95.0,130560,136.0
752,0.0,,,,,,52.0,,,,,0,note_on,,95.0,52.0,95.0,130560,136.0
753,0.0,,,,,,64.0,,,,,720,note_off,,80.0,64.0,80.0,131280,136.75
754,0.0,,,,,,59.0,,,,,0,note_off,,80.0,59.0,80.0,131280,136.75
755,0.0,,,,,,52.0,,,,,0,note_off,,80.0,52.0,80.0,131280,136.75
756,1.0,,,,,,64.0,,,,,0,note_on,,95.0,64.0,95.0,131280,136.75
757,1.0,,,,,,59.0,,,,,0,note_on,,95.0,59.0,95.0,131280,136.75
758,1.0,,,,,,52.0,,,,,0,note_on,,95.0,52.0,95.0,131280,136.75
759,1.0,,,,,,,,640.0,,,120,pitchwheel,,,,,131400,136.875
760,1.0,,,,,,,,640.0,,,0,pitchwheel,,,,,131400,136.875
761,1.0,,,,,,,,640.0,,,0,pitchwheel,,,,,131400,136.875
762,1.0,,,,,,,,1408.0,,,60,pitchwheel,,,,,131460,136.9375
763,1.0,,,,,,,,1408.0,,,0,pitchwheel,,,,,131460,136.9375
764,1.0,,,,,,,,1408.0,,,0,pitchwheel,,,,,131460,136.9375
765,1.0,,,,,,64.0,,,,,60,note_off,,80.0,64.0,80.0,131520,137.0
766,1.0,,,,,,,,0.0,,,0,pitchwheel,,,,,131520,137.0
767,1.0,,,,,,59.0,,,,,0,note_off,,80.0,59.0,80.0,131520,137.0
768,1.0,,,,,,,,0.0,,,0,pitchwheel,,,,,131520,137.0
769,1.0,,,,,,52.0,,,,,0,note_off,,80.0,52.0,80.0,131520,137.0
770,1.0,,,,,,,,0.0,,,0,pitchwheel,,,,,131520,137.0
771,0.0,,,,,,67.0,,,,,0,note_on,,86.0,67.0,86.0,131520,137.0
772,0.0,,,,,,62.0,,,,,0,note_on,,86.0,62.0,86.0,131520,137.0
773,0.0,,,,,,55.0,,,,,0,note_on,,86.0,55.0,86.0,131520,137.0
774,0.0,,,,,,67.0,,,,,240,note_off,,80.0,67.0,80.0,131760,137.25
775,0.0,,,,,,62.0,,,,,0,note_off,,80.0,62.0,80.0,131760,137.25
776,0.0,,,,,,55.0,,,,,0,note_off,,80.0,55.0,80.0,131760,137.25
777,0.0,,,,,,64.0,,,,,120,note_on,,95.0,64.0,95.0,131880,137.375
778,0.0,,,,,,59.0,,,,,0,note_on,,95.0,59.0,95.0,131880,137.375
779,0.0,,,,,,52.0,,,,,0,note_on,,95.0,52.0,95.0,131880,137.375
780,0.0,,,,,,64.0,,,,,240,note_off,,80.0,64.0,80.0,132120,137.625
781,0.0,,,,,,59.0,,,,,0,note_off,,80.0,59.0,80.0,132120,137.625
782,0.0,,,,,,52.0,,,,,0,note_off,,80.0,52.0,80.0,132120,137.625
783,0.0,,,,,,62.0,,,,,120,note_on,,95.0,62.0,95.0,132240,137.75
784,0.0,,,,,,57.0,,,,,0,note_on,,95.0,57.0,95.0,132240,137.75
785,0.0,,,,,,50.0,,,,,0,note_on,,95.0,50.0,95.0,132240,137.75
786,0.0,,,,,,62.0,,,,,240,note_off,,80.0,62.0,80.0,132480,138.0
787,0.0,,,,,,57.0,,,,,0,note_off,,80.0,57.0,80.0,132480,138.0
788,0.0,,,,,,50.0,,,,,0,note_off,,80.0,50.0,80.0,132480,138.0
789,0.0,,,,,,60.0,,,,,0,note_on,,95.0,60.0,95.0,132480,138.0
790,0.0,,,,,,55.0,,,,,0,note_on,,95.0,55.0,95.0,132480,138.0
791,0.0,,,,,,48.0,,,,,0,note_on,,95.0,48.0,95.0,132480,138.0
792,0.0,,,,,,60.0,,,,,360,note_off,,80.0,60.0,80.0,132840,138.375
793,0.0,,,,,,55.0,,,,,0,note_off,,80.0,55.0,80.0,132840,138.375
794,0.0,,,,,,48.0,,,,,0,note_off,,80.0,48.0,80.0,132840,138.375
795,0.0,,,,,,62.0,,,,,0,note_on,,95.0,62.0,95.0,132840,138.375
796,0.0,,,,,,57.0,,,,,0,note_on,,95.0,57.0,95.0,132840,138.375
797,0.0,,,,,,50.0,,,,,0,note_on,,95.0,50.0,95.0,132840,138.375
798,0.0,,,,,,62.0,,,,,360,note_off,,80.0,62.0,80.0,133200,138.75
799,0.0,,,,,,57.0,,,,,0,note_off,,80.0,57.0,80.0,133200,138.75
800,0.0,,,,,,50.0,,,,,0,note_off,,80.0,50.0,80.0,133200,138.75
801,0.0,,,,,,60.0,,,,,0,note_on,,95.0,60.0,95.0,133200,138.75
802,0.0,,,,,,55.0,,,,,0,note_on,,95.0,55.0,95.0,133200,138.75
803,0.0,,,,,,48.0,,,,,0,note_on,,95.0,48.0,95.0,133200,138.75
804,0.0,,,,,,60.0,,,,,240,note_off,,80.0,60.0,80.0,133440,139.0
805,0.0,,,,,,55.0,,,,,0,note_off,,80.0,55.0,80.0,133440,139.0
806,0.0,,,,,,48.0,,,,,0,note_off,,80.0,48.0,80.0,133440,139.0
807,0.0,,,,,,59.0,,,,,0,note_on,,95.0,59.0,95.0,133440,139.0
808,0.0,,,,,,54.0,,,,,0,note_on,,95.0,54.0,95.0,133440,139.0
809,0.0,,,,,,47.0,,,,,0,note_on,,95.0,47.0,95.0,133440,139.0
810,0.0,,,,,,57.0,,,,,930,note_on,,95.0,57.0,95.0,134370,139.96875
811,0.0,,,,,,52.0,,,,,0,note_on,,95.0,52.0,95.0,134370,139.96875
812,0.0,,,,,,45.0,,,,,0,note_on,,95.0,45.0,95.0,134370,139.96875
813,0.0,,,,,,57.0,,,,,29,note_off,,80.0,57.0,80.0,134399,139.99895833333332
814,0.0,,,,,,52.0,,,,,0,note_off,,80.0,52.0,80.0,134399,139.99895833333332
815,0.0,,,,,,45.0,,,,,0,note_off,,80.0,45.0,80.0,134399,139.99895833333332
816,0.0,,,,,,59.0,,,,,1,note_off,,80.0,59.0,80.0,134400,140.0
817,0.0,,,,,,54.0,,,,,0,note_off,,80.0,54.0,80.0,134400,140.0
818,0.0,,,,,,47.0,,,,,0,note_off,,80.0,47.0,80.0,134400,140.0
819,0.0,,,,,,64.0,,,,,0,note_on,,95.0,64.0,95.0,134400,140.0
820,0.0,,,,,,59.0,,,,,0,note_on,,95.0,59.0,95.0,134400,140.0
821,0.0,,,,,,52.0,,,,,0,note_on,,95.0,52.0,95.0,134400,140.0
822,0.0,,,,,,64.0,,,,,720,note_off,,80.0,64.0,80.0,135120,140.75
823,0.0,,,,,,59.0,,,,,0,note_off,,80.0,59.0,80.0,135120,140.75
824,0.0,,,,,,52.0,,,,,0,note_off,,80.0,52.0,80.0,135120,140.75
825,1.0,,,,,,64.0,,,,,0,note_on,,95.0,64.0,95.0,135120,140.75
826,1.0,,,,,,59.0,,,,,0,note_on,,95.0,59.0,95.0,135120,140.75
827,1.0,,,,,,52.0,,,,,0,note_on,,95.0,52.0,95.0,135120,140.75
828,1.0,,,,,,,,640.0,,,120,pitchwheel,,,,,135240,140.875
829,1.0,,,,,,,,640.0,,,0,pitchwheel,,,,,135240,140.875
830,1.0,,,,,,,,640.0,,,0,pitchwheel,,,,,135240,140.875
831,1.0,,,,,,,,1408.0,,,60,pitchwheel,,,,,135300,140.9375
832,1.0,,,,,,,,1408.0,,,0,pitchwheel,,,,,135300,140.9375
833,1.0,,,,,,,,1408.0,,,0,pitchwheel,,,,,135300,140.9375
834,1.0,,,,,,64.0,,,,,60,note_off,,80.0,64.0,80.0,135360,141.0
835,1.0,,,,,,,,0.0,,,0,pitchwheel,,,,,135360,141.0
836,1.0,,,,,,59.0,,,,,0,note_off,,80.0,59.0,80.0,135360,141.0
837,1.0,,,,,,,,0.0,,,0,pitchwheel,,,,,135360,141.0
838,1.0,,,,,,52.0,,,,,0,note_off,,80.0,52.0,80.0,135360,141.0
839,1.0,,,,,,,,0.0,,,0,pitchwheel,,,,,135360,141.0
840,0.0,,,,,,67.0,,,,,0,note_on,,86.0,67.0,86.0,135360,141.0
841,0.0,,,,,,62.0,,,,,0,note_on,,86.0,62.0,86.0,135360,141.0
842,0.0,,,,,,55.0,,,,,0,note_on,,86.0,55.0,86.0,135360,141.0
843,0.0,,,,,,67.0,,,,,240,note_off,,80.0,67.0,80.0,135600,141.25
844,0.0,,,,,,62.0,,,,,0,note_off,,80.0,62.0,80.0,135600,141.25
845,0.0,,,,,,55.0,,,,,0,note_off,,80.0,55.0,80.0,135600,141.25
846,0.0,,,,,,64.0,,,,,120,note_on,,95.0,64.0,95.0,135720,141.375
847,0.0,,,,,,59.0,,,,,0,note_on,,95.0,59.0,95.0,135720,141.375
848,0.0,,,,,,52.0,,,,,0,note_on,,95.0,52.0,95.0,135720,141.375
849,0.0,,,,,,64.0,,,,,240,note_off,,80.0,64.0,80.0,135960,141.625
850,0.0,,,,,,59.0,,,,,0,note_off,,80.0,59.0,80.0,135960,141.625
851,0.0,,,,,,52.0,,,,,0,note_off,,80.0,52.0,80.0,135960,141.625
852,0.0,,,,,,62.0,,,,,120,note_on,,95.0,62.0,95.0,136080,141.75
853,0.0,,,,,,57.0,,,,,0,note_on,,95.0,57.0,95.0,136080,141.75
854,0.0,,,,,,50.0,,,,,0,note_on,,95.0,50.0,95.0,136080,141.75
855,0.0,,,,,,62.0,,,,,240,note_off,,80.0,62.0,80.0,136320,142.0
856,0.0,,,,,,57.0,,,,,0,note_off,,80.0,57.0,80.0,136320,142.0
857,0.0,,,,,,50.0,,,,,0,note_off,,80.0,50.0,80.0,136320,142.0
858,0.0,,,,,,60.0,,,,,0,note_on,,95.0,60.0,95.0,136320,142.0
859,0.0,,,,,,55.0,,,,,0,note_on,,95.0,55.0,95.0,136320,142.0
860,0.0,,,,,,48.0,,,,,0,note_on,,95.0,48.0,95.0,136320,142.0
861,0.0,,,,,,60.0,,,,,960,note_off,,80.0,60.0,80.0,137280,143.0
862,0.0,,,,,,55.0,,,,,0,note_off,,80.0,55.0,80.0,137280,143.0
863,0.0,,,,,,48.0,,,,,0,note_off,,80.0,48.0,80.0,137280,143.0
864,0.0,,,,,,59.0,,,,,0,note_on,,95.0,59.0,95.0,137280,143.0
865,0.0,,,,,,54.0,,,,,0,note_on,,95.0,54.0,95.0,137280,143.0
866,0.0,,,,,,47.0,,,,,0,note_on,,95.0,47.0,95.0,137280,143.0
867,0.0,,,,,,57.0,,,,,930,note_on,,95.0,57.0,95.0,138210,143.96875
868,0.0,,,,,,52.0,,,,,0,note_on,,95.0,52.0,95.0,138210,143.96875
869,0.0,,,,,,45.0,,,,,0,note_on,,95.0,45.0,95.0,138210,143.96875
870,0.0,,,,,,57.0,,,,,29,note_off,,80.0,57.0,80.0,138239,143.99895833333332
871,0.0,,,,,,52.0,,,,,0,note_off,,80.0,52.0,80.0,138239,143.99895833333332
872,0.0,,,,,,45.0,,,,,0,note_off,,80.0,45.0,80.0,138239,143.99895833333332
873,0.0,,,,,,59.0,,,,,1,note_off,,80.0,59.0,80.0,138240,144.0
874,0.0,,,,,,54.0,,,,,0,note_off,,80.0,54.0,80.0,138240,144.0
875,0.0,,,,,,47.0,,,,,0,note_off,,80.0,47.0,80.0,138240,144.0
876,0.0,,,,,,64.0,,,,,0,note_on,,95.0,64.0,95.0,138240,144.0
877,0.0,,,,,,59.0,,,,,0,note_on,,95.0,59.0,95.0,138240,144.0
878,0.0,,,,,,52.0,,,,,0,note_on,,95.0,52.0,95.0,138240,144.0
879,0.0,,,,,,64.0,,,,,720,note_off,,80.0,64.0,80.0,138960,144.75
880,0.0,,,,,,59.0,,,,,0,note_off,,80.0,59.0,80.0,138960,144.75
881,0.0,,,,,,52.0,,,,,0,note_off,,80.0,52.0,80.0,138960,144.75
882,1.0,,,,,,64.0,,,,,0,note_on,,95.0,64.0,95.0,138960,144.75
883,1.0,,,,,,59.0,,,,,0,note_on,,95.0,59.0,95.0,138960,144.75
884,1.0,,,,,,52.0,,,,,0,note_on,,95.0,52.0,95.0,138960,144.75
885,1.0,,,,,,,,640.0,,,120,pitchwheel,,,,,139080,144.875
886,1.0,,,,,,,,640.0,,,0,pitchwheel,,,,,139080,144.875
887,1.0,,,,,,,,640.0,,,0,pitchwheel,,,,,139080,144.875
888,1.0,,,,,,,,1408.0,,,60,pitchwheel,,,,,139140,144.9375
889,1.0,,,,,,,,1408.0,,,0,pitchwheel,,,,,139140,144.9375
890,1.0,,,,,,,,1408.0,,,0,pitchwheel,,,,,139140,144.9375
891,1.0,,,,,,64.0,,,,,60,note_off,,80.0,64.0,80.0,139200,145.0
892,1.0,,,,,,,,0.0,,,0,pitchwheel,,,,,139200,145.0
893,1.0,,,,,,59.0,,,,,0,note_off,,80.0,59.0,80.0,139200,145.0
894,1.0,,,,,,,,0.0,,,0,pitchwheel,,,,,139200,145.0
895,1.0,,,,,,52.0,,,,,0,note_off,,80.0,52.0,80.0,139200,145.0
896,1.0,,,,,,,,0.0,,,0,pitchwheel,,,,,139200,145.0
897,0.0,,,,,,67.0,,,,,0,note_on,,86.0,67.0,86.0,139200,145.0
898,0.0,,,,,,62.0,,,,,0,note_on,,86.0,62.0,86.0,139200,145.0
899,0.0,,,,,,55.0,,,,,0,note_on,,86.0,55.0,86.0,139200,145.0
900,0.0,,,,,,67.0,,,,,240,note_off,,80.0,67.0,80.0,139440,145.25
901,0.0,,,,,,62.0,,,,,0,note_off,,80.0,62.0,80.0,139440,145.25
902,0.0,,,,,,55.0,,,,,0,note_off,,80.0,55.0,80.0,139440,145.25
903,0.0,,,,,,64.0,,,,,120,note_on,,95.0,64.0,95.0,139560,145.375
904,0.0,,,,,,59.0,,,,,0,note_on,,95.0,59.0,95.0,139560,145.375
905,0.0,,,,,,52.0,,,,,0,note_on,,95.0,52.0,95.0,139560,145.375
906,0.0,,,,,,64.0,,,,,240,note_off,,80.0,64.0,80.0,139800,145.625
907,0.0,,,,,,59.0,,,,,0,note_off,,80.0,59.0,80.0,139800,145.625
908,0.0,,,,,,52.0,,,,,0,note_off,,80.0,52.0,80.0,139800,145.625
909,0.0,,,,,,62.0,,,,,120,note_on,,95.0,62.0,95.0,139920,145.75
910,0.0,,,,,,57.0,,,,,0,note_on,,95.0,57.0,95.0,139920,145.75
911,0.0,,,,,,50.0,,,,,0,note_on,,95.0,50.0,95.0,139920,145.75
912,0.0,,,,,,62.0,,,,,240,note_off,,80.0,62.0,80.0,140160,146.0
913,0.0,,,,,,57.0,,,,,0,note_off,,80.0,57.0,80.0,140160,146.0
914,0.0,,,,,,50.0,,,,,0,note_off,,80.0,50.0,80.0,140160,146.0
915,0.0,,,,,,60.0,,,,,0,note_on,,95.0,60.0,95.0,140160,146.0
916,0.0,,,,,,55.0,,,,,0,note_on,,95.0,55.0,95.0,140160,146.0
917,0.0,,,,,,48.0,,,,,0,note_on,,95.0,48.0,95.0,140160,146.0
918,0.0,,,,,,60.0,,,,,360,note_off,,80.0,60.0,80.0,140520,146.375
919,0.0,,,,,,55.0,,,,,0,note_off,,80.0,55.0,80.0,140520,146.375
920,0.0,,,,,,48.0,,,,,0,note_off,,80.0,48.0,80.0,140520,146.375
921,0.0,,,,,,62.0,,,,,0,note_on,,95.0,62.0,95.0,140520,146.375
922,0.0,,,,,,57.0,,,,,0,note_on,,95.0,57.0,95.0,140520,146.375
923,0.0,,,,,,50.0,,,,,0,note_on,,95.0,50.0,95.0,140520,146.375
924,0.0,,,,,,62.0,,,,,360,note_off,,80.0,62.0,80.0,140880,146.75
925,0.0,,,,,,57.0,,,,,0,note_off,,80.0,57.0,80.0,140880,146.75
926,0.0,,,,,,50.0,,,,,0,note_off,,80.0,50.0,80.0,140880,146.75
927,0.0,,,,,,60.0,,,,,0,note_on,,95.0,60.0,95.0,140880,146.75
928,0.0,,,,,,55.0,,,,,0,note_on,,95.0,55.0,95.0,140880,146.75
929,0.0,,,,,,48.0,,,,,0,note_on,,95.0,48.0,95.0,140880,146.75
930,0.0,,,,,,60.0,,,,,240,note_off,,80.0,60.0,80.0,141120,147.0
931,0.0,,,,,,55.0,,,,,0,note_off,,80.0,55.0,80.0,141120,147.0
932,0.0,,,,,,48.0,,,,,0,note_off,,80.0,48.0,80.0,141120,147.0
933,0.0,,,,,,59.0,,,,,0,note_on,,95.0,59.0,95.0,141120,147.0
934,0.0,,,,,,54.0,,,,,0,note_on,,95.0,54.0,95.0,141120,147.0
935,0.0,,,,,,47.0,,,,,0,note_on,,95.0,47.0,95.0,141120,147.0
936,0.0,,,,,,57.0,,,,,930,note_on,,95.0,57.0,95.0,142050,147.96875
937,0.0,,,,,,52.0,,,,,0,note_on,,95.0,52.0,95.0,142050,147.96875
938,0.0,,,,,,45.0,,,,,0,note_on,,95.0,45.0,95.0,142050,147.96875
939,0.0,,,,,,57.0,,,,,29,note_off,,80.0,57.0,80.0,142079,147.99895833333332
940,0.0,,,,,,52.0,,,,,0,note_off,,80.0,52.0,80.0,142079,147.99895833333332
941,0.0,,,,,,45.0,,,,,0,note_off,,80.0,45.0,80.0,142079,147.99895833333332
942,0.0,,,,,,59.0,,,,,1,note_off,,80.0,59.0,80.0,142080,148.0
943,0.0,,,,,,54.0,,,,,0,note_off,,80.0,54.0,80.0,142080,148.0
944,0.0,,,,,,47.0,,,,,0,note_off,,80.0,47.0,80.0,142080,148.0
945,0.0,,,,,,64.0,,,,,0,note_on,,95.0,64.0,95.0,142080,148.0
946,0.0,,,,,,59.0,,,,,0,note_on,,95.0,59.0,95.0,142080,148.0
947,0.0,,,,,,52.0,,,,,0,note_on,,95.0,52.0,95.0,142080,148.0
948,0.0,,,,,,64.0,,,,,720,note_off,,80.0,64.0,80.0,142800,148.75
949,0.0,,,,,,59.0,,,,,0,note_off,,80.0,59.0,80.0,142800,148.75
950,0.0,,,,,,52.0,,,,,0,note_off,,80.0,52.0,80.0,142800,148.75
951,1.0,,,,,,64.0,,,,,0,note_on,,95.0,64.0,95.0,142800,148.75
952,1.0,,,,,,59.0,,,,,0,note_on,,95.0,59.0,95.0,142800,148.75
953,1.0,,,,,,52.0,,,,,0,note_on,,95.0,52.0,95.0,142800,148.75
954,1.0,,,,,,,,640.0,,,120,pitchwheel,,,,,142920,148.875
955,1.0,,,,,,,,640.0,,,0,pitchwheel,,,,,142920,148.875
956,1.0,,,,,,,,640.0,,,0,pitchwheel,,,,,142920,148.875
957,1.0,,,,,,,,1408.0,,,60,pitchwheel,,,,,142980,148.9375
958,1.0,,,,,,,,1408.0,,,0,pitchwheel,,,,,142980,148.9375
959,1.0,,,,,,,,1408.0,,,0,pitchwheel,,,,,142980,148.9375
960,1.0,,,,,,64.0,,,,,60,note_off,,80.0,64.0,80.0,143040,149.0
961,1.0,,,,,,,,0.0,,,0,pitchwheel,,,,,143040,149.0
962,1.0,,,,,,59.0,,,,,0,note_off,,80.0,59.0,80.0,143040,149.0
963,1.0,,,,,,,,0.0,,,0,pitchwheel,,,,,143040,149.0
964,1.0,,,,,,52.0,,,,,0,note_off,,80.0,52.0,80.0,143040,149.0
965,1.0,,,,,,,,0.0,,,0,pitchwheel,,,,,143040,149.0
966,0.0,,,,,,67.0,,,,,0,note_on,,86.0,67.0,86.0,143040,149.0
967,0.0,,,,,,62.0,,,,,0,note_on,,86.0,62.0,86.0,143040,149.0
968,0.0,,,,,,55.0,,,,,0,note_on,,86.0,55.0,86.0,143040,149.0
969,0.0,,,,,,67.0,,,,,240,note_off,,80.0,67.0,80.0,143280,149.25
970,0.0,,,,,,62.0,,,,,0,note_off,,80.0,62.0,80.0,143280,149.25
971,0.0,,,,,,55.0,,,,,0,note_off,,80.0,55.0,80.0,143280,149.25
972,0.0,,,,,,64.0,,,,,120,note_on,,95.0,64.0,95.0,143400,149.375
973,0.0,,,,,,59.0,,,,,0,note_on,,95.0,59.0,95.0,143400,149.375
974,0.0,,,,,,52.0,,,,,0,note_on,,95.0,52.0,95.0,143400,149.375
975,0.0,,,,,,64.0,,,,,240,note_off,,80.0,64.0,80.0,143640,149.625
976,0.0,,,,,,59.0,,,,,0,note_off,,80.0,59.0,80.0,143640,149.625
977,0.0,,,,,,52.0,,,,,0,note_off,,80.0,52.0,80.0,143640,149.625
978,0.0,,,,,,62.0,,,,,120,note_on,,95.0,62.0,95.0,143760,149.75
979,0.0,,,,,,57.0,,,,,0,note_on,,95.0,57.0,95.0,143760,149.75
980,0.0,,,,,,50.0,,,,,0,note_on,,95.0,50.0,95.0,143760,149.75
981,0.0,,,,,,62.0,,,,,240,note_off,,80.0,62.0,80.0,144000,150.0
982,0.0,,,,,,57.0,,,,,0,note_off,,80.0,57.0,80.0,144000,150.0
983,0.0,,,,,,50.0,,,,,0,note_off,,80.0,50.0,80.0,144000,150.0
984,0.0,,,,,,60.0,,,,,0,note_on,,95.0,60.0,95.0,144000,150.0
985,0.0,,,,,,55.0,,,,,0,note_on,,95.0,55.0,95.0,144000,150.0
986,0.0,,,,,,48.0,,,,,0,note_on,,95.0,48.0,95.0,144000,150.0
987,0.0,,,,,,60.0,,,,,960,note_off,,80.0,60.0,80.0,144960,151.0
988,0.0,,,,,,55.0,,,,,0,note_off,,80.0,55.0,80.0,144960,151.0
989,0.0,,,,,,48.0,,,,,0,note_off,,80.0,48.0,80.0,144960,151.0
990,0.0,,,,,,59.0,,,,,0,note_on,,95.0,59.0,95.0,144960,151.0
991,0.0,,,,,,54.0,,,,,0,note_on,,95.0,54.0,95.0,144960,151.0
992,0.0,,,,,,47.0,,,,,0,note_on,,95.0,47.0,95.0,144960,151.0
993,0.0,,,,,,57.0,,,,,930,note_on,,95.0,57.0,95.0,145890,151.96875
994,0.0,,,,,,52.0,,,,,0,note_on,,95.0,52.0,95.0,145890,151.96875
995,0.0,,,,,,45.0,,,,,0,note_on,,95.0,45.0,95.0,145890,151.96875
996,0.0,,,,,,57.0,,,,,29,note_off,,80.0,57.0,80.0,145919,151.99895833333332
997,0.0,,,,,,52.0,,,,,0,note_off,,80.0,52.0,80.0,145919,151.99895833333332
998,0.0,,,,,,45.0,,,,,0,note_off,,80.0,45.0,80.0,145919,151.99895833333332
999,0.0,,,,,,59.0,,,,,1,note_off,,80.0,59.0,80.0,145920,152.0
1000,0.0,,,,,,54.0,,,,,0,note_off,,80.0,54.0,80.0,145920,152.0
1001,0.0,,,,,,47.0,,,,,0,note_off,,80.0,47.0,80.0,145920,152.0
1002,0.0,,,,,,64.0,,,,,0,note_on,,95.0,64.0,95.0,145920,152.0
1003,0.0,,,,,,59.0,,,,,0,note_on,,95.0,59.0,95.0,145920,152.0
1004,0.0,,,,,,52.0,,,,,0,note_on,,95.0,52.0,95.0,145920,152.0
1005,0.0,,,,,,64.0,,,,,720,note_off,,80.0,64.0,80.0,146640,152.75
1006,0.0,,,,,,59.0,,,,,0,note_off,,80.0,59.0,80.0,146640,152.75
1007,0.0,,,,,,52.0,,,,,0,note_off,,80.0,52.0,80.0,146640,152.75
1008,1.0,,,,,,64.0,,,,,0,note_on,,95.0,64.0,95.0,146640,152.75
1009,1.0,,,,,,59.0,,,,,0,note_on,,95.0,59.0,95.0,146640,152.75
1010,1.0,,,,,,52.0,,,,,0,note_on,,95.0,52.0,95.0,146640,152.75
1011,1.0,,,,,,,,640.0,,,120,pitchwheel,,,,,146760,152.875
1012,1.0,,,,,,,,640.0,,,0,pitchwheel,,,,,146760,152.875
1013,1.0,,,,,,,,640.0,,,0,pitchwheel,,,,,146760,152.875
1014,1.0,,,,,,,,1408.0,,,60,pitchwheel,,,,,146820,152.9375
1015,1.0,,,,,,,,1408.0,,,0,pitchwheel,,,,,146820,152.9375
1016,1.0,,,,,,,,1408.0,,,0,pitchwheel,,,,,146820,152.9375
1017,1.0,,,,,,64.0,,,,,60,note_off,,80.0,64.0,80.0,146880,153.0
1018,1.0,,,,,,,,0.0,,,0,pitchwheel,,,,,146880,153.0
1019,1.0,,,,,,59.0,,,,,0,note_off,,80.0,59.0,80.0,146880,153.0
1020,1.0,,,,,,,,0.0,,,0,pitchwheel,,,,,146880,153.0
1021,1.0,,,,,,52.0,,,,,0,note_off,,80.0,52.0,80.0,146880,153.0
1022,1.0,,,,,,,,0.0,,,0,pitchwheel,,,,,146880,153.0
1023,0.0,,,,,,67.0,,,,,0,note_on,,86.0,67.0,86.0,146880,153.0
1024,0.0,,,,,,62.0,,,,,0,note_on,,86.0,62.0,86.0,146880,153.0
1025,0.0,,,,,,55.0,,,,,0,note_on,,86.0,55.0,86.0,146880,153.0
1026,0.0,,,,,,67.0,,,,,240,note_off,,80.0,67.0,80.0,147120,153.25
1027,0.0,,,,,,62.0,,,,,0,note_off,,80.0,62.0,80.0,147120,153.25
1028,0.0,,,,,,55.0,,,,,0,note_off,,80.0,55.0,80.0,147120,153.25
1029,0.0,,,,,,64.0,,,,,120,note_on,,95.0,64.0,95.0,147240,153.375
1030,0.0,,,,,,59.0,,,,,0,note_on,,95.0,59.0,95.0,147240,153.375
1031,0.0,,,,,,52.0,,,,,0,note_on,,95.0,52.0,95.0,147240,153.375
1032,0.0,,,,,,64.0,,,,,240,note_off,,80.0,64.0,80.0,147480,153.625
1033,0.0,,,,,,59.0,,,,,0,note_off,,80.0,59.0,80.0,147480,153.625
1034,0.0,,,,,,52.0,,,,,0,note_off,,80.0,52.0,80.0,147480,153.625
1035,0.0,,,,,,62.0,,,,,120,note_on,,95.0,62.0,95.0,147600,153.75
1036,0.0,,,,,,57.0,,,,,0,note_on,,95.0,57.0,95.0,147600,153.75
1037,0.0,,,,,,50.0,,,,,0,note_on,,95.0,50.0,95.0,147600,153.75
1038,0.0,,,,,,62.0,,,,,240,note_off,,80.0,62.0,80.0,147840,154.0
1039,0.0,,,,,,57.0,,,,,0,note_off,,80.0,57.0,80.0,147840,154.0
1040,0.0,,,,,,50.0,,,,,0,note_off,,80.0,50.0,80.0,147840,154.0
1041,0.0,,,,,,60.0,,,,,0,note_on,,95.0,60.0,95.0,147840,154.0
1042,0.0,,,,,,55.0,,,,,0,note_on,,95.0,55.0,95.0,147840,154.0
1043,0.0,,,,,,48.0,,,,,0,note_on,,95.0,48.0,95.0,147840,154.0
1044,0.0,,,,,,60.0,,,,,360,note_off,,80.0,60.0,80.0,148200,154.375
1045,0.0,,,,,,55.0,,,,,0,note_off,,80.0,55.0,80.0,148200,154.375
1046,0.0,,,,,,48.0,,,,,0,note_off,,80.0,48.0,80.0,148200,154.375
1047,0.0,,,,,,62.0,,,,,0,note_on,,95.0,62.0,95.0,148200,154.375
1048,0.0,,,,,,57.0,,,,,0,note_on,,95.0,57.0,95.0,148200,154.375
1049,0.0,,,,,,50.0,,,,,0,note_on,,95.0,50.0,95.0,148200,154.375
1050,0.0,,,,,,62.0,,,,,360,note_off,,80.0,62.0,80.0,148560,154.75
1051,0.0,,,,,,57.0,,,,,0,note_off,,80.0,57.0,80.0,148560,154.75
1052,0.0,,,,,,50.0,,,,,0,note_off,,80.0,50.0,80.0,148560,154.75
1053,0.0,,,,,,60.0,,,,,0,note_on,,95.0,60.0,95.0,148560,154.75
1054,0.0,,,,,,55.0,,,,,0,note_on,,95.0,55.0,95.0,148560,154.75
1055,0.0,,,,,,48.0,,,,,0,note_on,,95.0,48.0,95.0,148560,154.75
1056,0.0,,,,,,60.0,,,,,240,note_off,,80.0,60.0,80.0,148800,155.0
1057,0.0,,,,,,55.0,,,,,0,note_off,,80.0,55.0,80.0,148800,155.0
1058,0.0,,,,,,48.0,,,,,0,note_off,,80.0,48.0,80.0,148800,155.0
1059,0.0,,,,,,59.0,,,,,0,note_on,,95.0,59.0,95.0,148800,155.0
1060,0.0,,,,,,54.0,,,,,0,note_on,,95.0,54.0,95.0,148800,155.0
1061,0.0,,,,,,47.0,,,,,0,note_on,,95.0,47.0,95.0,148800,155.0
1062,0.0,,,,,,59.0,,,,,960,note_off,,80.0,59.0,80.0,149760,156.0
1063,0.0,,,,,,54.0,,,,,0,note_off,,80.0,54.0,80.0,149760,156.0
1064,0.0,,,,,,47.0,,,,,0,note_off,,80.0,47.0,80.0,149760,156.0
1065,0.0,,,,,,50.0,,,,,0,note_on,,95.0,50.0,95.0,149760,156.0
1066,0.0,,,,,,43.0,,,,,0,note_on,,95.0,43.0,95.0,149760,156.0
1067,0.0,,,,,,50.0,,,,,240,note_off,,80.0,50.0,80.0,150000,156.25
1068,0.0,,,,,,43.0,,,,,0,note_off,,80.0,43.0,80.0,150000,156.25
1069,0.0,,,,,,50.0,,,,,0,note_on,,95.0,50.0,95.0,150000,156.25
1070,0.0,,,,,,43.0,,,,,0,note_on,,95.0,43.0,95.0,150000,156.25
1071,0.0,,,,,,50.0,,,,,240,note_off,,80.0,50.0,80.0,150240,156.5
1072,0.0,,,,,,43.0,,,,,0,note_off,,80.0,43.0,80.0,150240,156.5
1073,0.0,,,,,,50.0,,,,,0,note_on,,95.0,50.0,95.0,150240,156.5
1074,0.0,,,,,,43.0,,,,,0,note_on,,95.0,43.0,95.0,150240,156.5
1075,0.0,,,,,,50.0,,,,,240,note_off,,80.0,50.0,80.0,150480,156.75
1076,0.0,,,,,,43.0,,,,,0,note_off,,80.0,43.0,80.0,150480,156.75
1077,0.0,,,,,,50.0,,,,,0,note_on,,95.0,50.0,95.0,150480,156.75
1078,0.0,,,,,,43.0,,,,,0,note_on,,95.0,43.0,95.0,150480,156.75
1079,0.0,,,,,,50.0,,,,,240,note_off,,80.0,50.0,80.0,150720,157.0
1080,0.0,,,,,,43.0,,,,,0,note_off,,80.0,43.0,80.0,150720,157.0
1081,0.0,,,,,,50.0,,,,,0,note_on,,95.0,50.0,95.0,150720,157.0
1082,0.0,,,,,,43.0,,,,,0,note_on,,95.0,43.0,95.0,150720,157.0
1083,0.0,,,,,,50.0,,,,,240,note_off,,80.0,50.0,80.0,150960,157.25
1084,0.0,,,,,,43.0,,,,,0,note_off,,80.0,43.0,80.0,150960,157.25
1085,0.0,,,,,,50.0,,,,,0,note_on,,95.0,50.0,95.0,150960,157.25
1086,0.0,,,,,,43.0,,,,,0,note_on,,95.0,43.0,95.0,150960,157.25
1087,0.0,,,,,,50.0,,,,,240,note_off,,80.0,50.0,80.0,151200,157.5
1088,0.0,,,,,,43.0,,,,,0,note_off,,80.0,43.0,80.0,151200,157.5
1089,0.0,,,,,,50.0,,,,,0,note_on,,95.0,50.0,95.0,151200,157.5
1090,0.0,,,,,,43.0,,,,,0,note_on,,95.0,43.0,95.0,151200,157.5
1091,0.0,,,,,,50.0,,,,,240,note_off,,80.0,50.0,80.0,151440,157.75
1092,0.0,,,,,,43.0,,,,,0,note_off,,80.0,43.0,80.0,151440,157.75
1093,0.0,,,,,,50.0,,,,,0,note_on,,95.0,50.0,95.0,151440,157.75
1094,0.0,,,,,,43.0,,,,,0,note_on,,95.0,43.0,95.0,151440,157.75
1095,0.0,,,,,,50.0,,,,,240,note_off,,80.0,50.0,80.0,151680,158.0
1096,0.0,,,,,,43.0,,,,,0,note_off,,80.0,43.0,80.0,151680,158.0
1097,0.0,,,,,,45.0,,,,,0,note_on,,95.0,45.0,95.0,151680,158.0
1098,0.0,,,,,,40.0,,,,,0,note_on,,95.0,40.0,95.0,151680,158.0
1099,0.0,,,,,,45.0,,,,,240,note_off,,80.0,45.0,80.0,151920,158.25
1100,0.0,,,,,,40.0,,,,,0,note_off,,80.0,40.0,80.0,151920,158.25
1101,0.0,,,,,,45.0,,,,,0,note_on,,95.0,45.0,95.0,151920,158.25
1102,0.0,,,,,,40.0,,,,,0,note_on,,95.0,40.0,95.0,151920,158.25
1103,0.0,,,,,,45.0,,,,,240,note_off,,80.0,45.0,80.0,152160,158.5
1104,0.0,,,,,,40.0,,,,,0,note_off,,80.0,40.0,80.0,152160,158.5
1105,0.0,,,,,,52.0,,,,,0,note_on,,95.0,52.0,95.0,152160,158.5
1106,0.0,,,,,,45.0,,,,,0,note_on,,95.0,45.0,95.0,152160,158.5
1107,0.0,,,,,,40.0,,,,,0,note_on,,95.0,40.0,95.0,152160,158.5
1108,0.0,,,,,,52.0,,,,,240,note_off,,80.0,52.0,80.0,152400,158.75
1109,0.0,,,,,,45.0,,,,,0,note_off,,80.0,45.0,80.0,152400,158.75
1110,0.0,,,,,,40.0,,,,,0,note_off,,80.0,40.0,80.0,152400,158.75
1111,0.0,,,,,,52.0,,,,,0,note_on,,95.0,52.0,95.0,152400,158.75
1112,0.0,,,,,,45.0,,,,,0,note_on,,95.0,45.0,95.0,152400,158.75
1113,0.0,,,,,,40.0,,,,,0,note_on,,95.0,40.0,95.0,152400,158.75
1114,0.0,,,,,,52.0,,,,,240,note_off,,80.0,52.0,80.0,152640,159.0
1115,0.0,,,,,,45.0,,,,,0,note_off,,80.0,45.0,80.0,152640,159.0
1116,0.0,,,,,,40.0,,,,,0,note_off,,80.0,40.0,80.0,152640,159.0
1117,0.0,,,,,,57.0,,,,,0,note_on,,95.0,57.0,95.0,152640,159.0
1118,0.0,,,,,,52.0,,,,,0,note_on,,95.0,52.0,95.0,152640,159.0
1119,0.0,,,,,,45.0,,,,,0,note_on,,95.0,45.0,95.0,152640,159.0
1120,0.0,,,,,,40.0,,,,,0,note_on,,95.0,40.0,95.0,152640,159.0
1121,0.0,,,,,,57.0,,,,,240,note_off,,80.0,57.0,80.0,152880,159.25
1122,0.0,,,,,,52.0,,,,,0,note_off,,80.0,52.0,80.0,152880,159.25
1123,0.0,,,,,,45.0,,,,,0,note_off,,80.0,45.0,80.0,152880,159.25
1124,0.0,,,,,,40.0,,,,,0,note_off,,80.0,40.0,80.0,152880,159.25
1125,0.0,,,,,,61.0,,,,,0,note_on,,95.0,61.0,95.0,152880,159.25
1126,0.0,,,,,,57.0,,,,,0,note_on,,95.0,57.0,95.0,152880,159.25
1127,0.0,,,,,,52.0,,,,,0,note_on,,95.0,52.0,95.0,152880,159.25
1128,0.0,,,,,,45.0,,,,,0,note_on,,95.0,45.0,95.0,152880,159.25
1129,0.0,,,,,,40.0,,,,,0,note_on,,95.0,40.0,95.0,152880,159.25
1130,0.0,,,,,,61.0,,,,,240,note_off,,80.0,61.0,80.0,153120,159.5
1131,0.0,,,,,,57.0,,,,,0,note_off,,80.0,57.0,80.0,153120,159.5
1132,0.0,,,,,,52.0,,,,,0,note_off,,80.0,52.0,80.0,153120,159.5
1133,0.0,,,,,,45.0,,,,,0,note_off,,80.0,45.0,80.0,153120,159.5
1134,0.0,,,,,,40.0,,,,,0,note_off,,80.0,40.0,80.0,153120,159.5
1135,0.0,,,,,,64.0,,,,,0,note_on,,95.0,64.0,95.0,153120,159.5
1136,0.0,,,,,,61.0,,,,,0,note_on,,95.0,61.0,95.0,153120,159.5
1137,0.0,,,,,,57.0,,,,,0,note_on,,95.0,57.0,95.0,153120,159.5
1138,0.0,,,,,,52.0,,,,,0,note_on,,95.0,52.0,95.0,153120,159.5
1139,0.0,,,,,,45.0,,,,,0,note_on,,95.0,45.0,95.0,153120,159.5
1140,0.0,,,,,,40.0,,,,,0,note_on,,95.0,40.0,95.0,153120,159.5
1141,0.0,,,,,,64.0,,,,,240,note_off,,80.0,64.0,80.0,153360,159.75
1142,0.0,,,,,,61.0,,,,,0,note_off,,80.0,61.0,80.0,153360,159.75
1143,0.0,,,,,,57.0,,,,,0,note_off,,80.0,57.0,80.0,153360,159.75
1144,0.0,,,,,,52.0,,,,,0,note_off,,80.0,52.0,80.0,153360,159.75
1145,0.0,,,,,,45.0,,,,,0,note_off,,80.0,45.0,80.0,153360,159.75
1146,0.0,,,,,,40.0,,,,,0,note_off,,80.0,40.0,80.0,153360,159.75
1147,0.0,,,,,,64.0,,,,,0,note_on,,95.0,64.0,95.0,153360,159.75
1148,0.0,,,,,,61.0,,,,,0,note_on,,95.0,61.0,95.0,153360,159.75
1149,0.0,,,,,,57.0,,,,,0,note_on,,95.0,57.0,95.0,153360,159.75
1150,0.0,,,,,,52.0,,,,,0,note_on,,95.0,52.0,95.0,153360,159.75
1151,0.0,,,,,,45.0,,,,,0,note_on,,95.0,45.0,95.0,153360,159.75
1152,0.0,,,,,,40.0,,,,,0,note_on,,95.0,40.0,95.0,153360,159.75
1153,0.0,,,,,,64.0,,,,,240,note_off,,80.0,64.0,80.0,153600,160.0
1154,0.0,,,,,,61.0,,,,,0,note_off,,80.0,61.0,80.0,153600,160.0
1155,0.0,,,,,,57.0,,,,,0,note_off,,80.0,57.0,80.0,153600,160.0
1156,0.0,,,,,,52.0,,,,,0,note_off,,80.0,52.0,80.0,153600,160.0
1157,0.0,,,,,,45.0,,,,,0,note_off,,80.0,45.0,80.0,153600,160.0
1158,0.0,,,,,,40.0,,,,,0,note_off,,80.0,40.0,80.0,153600,160.0
1159,0.0,,,,,,50.0,,,,,42240,note_on,,95.0,50.0,95.0,195840,204.0
1160,0.0,,,,,,43.0,,,,,0,note_on,,95.0,43.0,95.0,195840,204.0
1161,0.0,,,,,,50.0,,,,,240,note_off,,80.0,50.0,80.0,196080,204.25
1162,0.0,,,,,,43.0,,,,,0,note_off,,80.0,43.0,80.0,196080,204.25
1163,0.0,,,,,,50.0,,,,,0,note_on,,95.0,50.0,95.0,196080,204.25
1164,0.0,,,,,,43.0,,,,,0,note_on,,95.0,43.0,95.0,196080,204.25
1165,0.0,,,,,,50.0,,,,,240,note_off,,80.0,50.0,80.0,196320,204.5
1166,0.0,,,,,,43.0,,,,,0,note_off,,80.0,43.0,80.0,196320,204.5
1167,0.0,,,,,,50.0,,,,,0,note_on,,95.0,50.0,95.0,196320,204.5
1168,0.0,,,,,,43.0,,,,,0,note_on,,95.0,43.0,95.0,196320,204.5
1169,0.0,,,,,,50.0,,,,,240,note_off,,80.0,50.0,80.0,196560,204.75
1170,0.0,,,,,,43.0,,,,,0,note_off,,80.0,43.0,80.0,196560,204.75
1171,0.0,,,,,,50.0,,,,,0,note_on,,95.0,50.0,95.0,196560,204.75
1172,0.0,,,,,,43.0,,,,,0,note_on,,95.0,43.0,95.0,196560,204.75
1173,0.0,,,,,,50.0,,,,,240,note_off,,80.0,50.0,80.0,196800,205.0
1174,0.0,,,,,,43.0,,,,,0,note_off,,80.0,43.0,80.0,196800,205.0
1175,0.0,,,,,,50.0,,,,,0,note_on,,95.0,50.0,95.0,196800,205.0
1176,0.0,,,,,,43.0,,,,,0,note_on,,95.0,43.0,95.0,196800,205.0
1177,0.0,,,,,,50.0,,,,,240,note_off,,80.0,50.0,80.0,197040,205.25
1178,0.0,,,,,,43.0,,,,,0,note_off,,80.0,43.0,80.0,197040,205.25
1179,0.0,,,,,,50.0,,,,,0,note_on,,95.0,50.0,95.0,197040,205.25
1180,0.0,,,,,,43.0,,,,,0,note_on,,95.0,43.0,95.0,197040,205.25
1181,0.0,,,,,,50.0,,,,,240,note_off,,80.0,50.0,80.0,197280,205.5
1182,0.0,,,,,,43.0,,,,,0,note_off,,80.0,43.0,80.0,197280,205.5
1183,0.0,,,,,,50.0,,,,,0,note_on,,95.0,50.0,95.0,197280,205.5
1184,0.0,,,,,,43.0,,,,,0,note_on,,95.0,43.0,95.0,197280,205.5
1185,0.0,,,,,,50.0,,,,,240,note_off,,80.0,50.0,80.0,197520,205.75
1186,0.0,,,,,,43.0,,,,,0,note_off,,80.0,43.0,80.0,197520,205.75
1187,0.0,,,,,,50.0,,,,,0,note_on,,95.0,50.0,95.0,197520,205.75
1188,0.0,,,,,,43.0,,,,,0,note_on,,95.0,43.0,95.0,197520,205.75
1189,0.0,,,,,,50.0,,,,,240,note_off,,80.0,50.0,80.0,197760,206.0
1190,0.0,,,,,,43.0,,,,,0,note_off,,80.0,43.0,80.0,197760,206.0
1191,0.0,,,,,,45.0,,,,,0,note_on,,95.0,45.0,95.0,197760,206.0
1192,0.0,,,,,,40.0,,,,,0,note_on,,95.0,40.0,95.0,197760,206.0
1193,0.0,,,,,,45.0,,,,,240,note_off,,80.0,45.0,80.0,198000,206.25
1194,0.0,,,,,,40.0,,,,,0,note_off,,80.0,40.0,80.0,198000,206.25
1195,0.0,,,,,,45.0,,,,,0,note_on,,95.0,45.0,95.0,198000,206.25
1196,0.0,,,,,,40.0,,,,,0,note_on,,95.0,40.0,95.0,198000,206.25
1197,0.0,,,,,,45.0,,,,,240,note_off,,80.0,45.0,80.0,198240,206.5
1198,0.0,,,,,,40.0,,,,,0,note_off,,80.0,40.0,80.0,198240,206.5
1199,0.0,,,,,,52.0,,,,,0,note_on,,95.0,52.0,95.0,198240,206.5
1200,0.0,,,,,,45.0,,,,,0,note_on,,95.0,45.0,95.0,198240,206.5
1201,0.0,,,,,,40.0,,,,,0,note_on,,95.0,40.0,95.0,198240,206.5
1202,0.0,,,,,,52.0,,,,,240,note_off,,80.0,52.0,80.0,198480,206.75
1203,0.0,,,,,,45.0,,,,,0,note_off,,80.0,45.0,80.0,198480,206.75
1204,0.0,,,,,,40.0,,,,,0,note_off,,80.0,40.0,80.0,198480,206.75
1205,0.0,,,,,,52.0,,,,,0,note_on,,95.0,52.0,95.0,198480,206.75
1206,0.0,,,,,,45.0,,,,,0,note_on,,95.0,45.0,95.0,198480,206.75
1207,0.0,,,,,,40.0,,,,,0,note_on,,95.0,40.0,95.0,198480,206.75
1208,0.0,,,,,,52.0,,,,,240,note_off,,80.0,52.0,80.0,198720,207.0
1209,0.0,,,,,,45.0,,,,,0,note_off,,80.0,45.0,80.0,198720,207.0
1210,0.0,,,,,,40.0,,,,,0,note_off,,80.0,40.0,80.0,198720,207.0
1211,0.0,,,,,,57.0,,,,,0,note_on,,95.0,57.0,95.0,198720,207.0
1212,0.0,,,,,,52.0,,,,,0,note_on,,95.0,52.0,95.0,198720,207.0
1213,0.0,,,,,,45.0,,,,,0,note_on,,95.0,45.0,95.0,198720,207.0
1214,0.0,,,,,,40.0,,,,,0,note_on,,95.0,40.0,95.0,198720,207.0
1215,0.0,,,,,,57.0,,,,,240,note_off,,80.0,57.0,80.0,198960,207.25
1216,0.0,,,,,,52.0,,,,,0,note_off,,80.0,52.0,80.0,198960,207.25
1217,0.0,,,,,,45.0,,,,,0,note_off,,80.0,45.0,80.0,198960,207.25
1218,0.0,,,,,,40.0,,,,,0,note_off,,80.0,40.0,80.0,198960,207.25
1219,0.0,,,,,,61.0,,,,,0,note_on,,95.0,61.0,95.0,198960,207.25
1220,0.0,,,,,,57.0,,,,,0,note_on,,95.0,57.0,95.0,198960,207.25
1221,0.0,,,,,,52.0,,,,,0,note_on,,95.0,52.0,95.0,198960,207.25
1222,0.0,,,,,,45.0,,,,,0,note_on,,95.0,45.0,95.0,198960,207.25
1223,0.0,,,,,,40.0,,,,,0,note_on,,95.0,40.0,95.0,198960,207.25
1224,0.0,,,,,,61.0,,,,,240,note_off,,80.0,61.0,80.0,199200,207.5
1225,0.0,,,,,,57.0,,,,,0,note_off,,80.0,57.0,80.0,199200,207.5
1226,0.0,,,,,,52.0,,,,,0,note_off,,80.0,52.0,80.0,199200,207.5
1227,0.0,,,,,,45.0,,,,,0,note_off,,80.0,45.0,80.0,199200,207.5
1228,0.0,,,,,,40.0,,,,,0,note_off,,80.0,40.0,80.0,199200,207.5
1229,0.0,,,,,,64.0,,,,,0,note_on,,95.0,64.0,95.0,199200,207.5
1230,0.0,,,,,,61.0,,,,,0,note_on,,95.0,61.0,95.0,199200,207.5
1231,0.0,,,,,,57.0,,,,,0,note_on,,95.0,57.0,95.0,199200,207.5
1232,0.0,,,,,,52.0,,,,,0,note_on,,95.0,52.0,95.0,199200,207.5
1233,0.0,,,,,,45.0,,,,,0,note_on,,95.0,45.0,95.0,199200,207.5
1234,0.0,,,,,,40.0,,,,,0,note_on,,95.0,40.0,95.0,199200,207.5
1235,0.0,,,,,,64.0,,,,,240,note_off,,80.0,64.0,80.0,199440,207.75
1236,0.0,,,,,,61.0,,,,,0,note_off,,80.0,61.0,80.0,199440,207.75
1237,0.0,,,,,,57.0,,,,,0,note_off,,80.0,57.0,80.0,199440,207.75
1238,0.0,,,,,,52.0,,,,,0,note_off,,80.0,52.0,80.0,199440,207.75
1239,0.0,,,,,,45.0,,,,,0,note_off,,80.0,45.0,80.0,199440,207.75
1240,0.0,,,,,,40.0,,,,,0,note_off,,80.0,40.0,80.0,199440,207.75
1241,0.0,,,,,,64.0,,,,,0,note_on,,95.0,64.0,95.0,199440,207.75
1242,0.0,,,,,,61.0,,,,,0,note_on,,95.0,61.0,95.0,199440,207.75
1243,0.0,,,,,,57.0,,,,,0,note_on,,95.0,57.0,95.0,199440,207.75
1244,0.0,,,,,,52.0,,,,,0,note_on,,95.0,52.0,95.0,199440,207.75
1245,0.0,,,,,,45.0,,,,,0,note_on,,95.0,45.0,95.0,199440,207.75
1246,0.0,,,,,,40.0,,,,,0,note_on,,95.0,40.0,95.0,199440,207.75
1247,0.0,,,,,,57.0,,,,,210,note_on,,95.0,57.0,95.0,199650,207.96875
1248,0.0,,,,,,52.0,,,,,0,note_on,,95.0,52.0,95.0,199650,207.96875
1249,0.0,,,,,,45.0,,,,,0,note_on,,95.0,45.0,95.0,199650,207.96875
1250,0.0,,,,,,57.0,,,,,29,note_off,,80.0,57.0,80.0,199679,207.99895833333332
1251,0.0,,,,,,52.0,,,,,0,note_off,,80.0,52.0,80.0,199679,207.99895833333332
1252,0.0,,,,,,45.0,,,,,0,note_off,,80.0,45.0,80.0,199679,207.99895833333332
1253,0.0,,,,,,64.0,,,,,1,note_off,,80.0,64.0,80.0,199680,208.0
1254,0.0,,,,,,61.0,,,,,0,note_off,,80.0,61.0,80.0,199680,208.0
1255,0.0,,,,,,57.0,,,,,0,note_off,,80.0,57.0,80.0,199680,208.0
1256,0.0,,,,,,52.0,,,,,0,note_off,,80.0,52.0,80.0,199680,208.0
1257,0.0,,,,,,45.0,,,,,0,note_off,,80.0,45.0,80.0,199680,208.0
1258,0.0,,,,,,40.0,,,,,0,note_off,,80.0,40.0,80.0,199680,208.0
1259,0.0,,,,,,64.0,,,,,0,note_on,,95.0,64.0,95.0,199680,208.0
1260,0.0,,,,,,59.0,,,,,0,note_on,,95.0,59.0,95.0,199680,208.0
1261,0.0,,,,,,52.0,,,,,0,note_on,,95.0,52.0,95.0,199680,208.0
1262,0.0,,,,,,64.0,,,,,720,note_off,,80.0,64.0,80.0,200400,208.75
1263,0.0,,,,,,59.0,,,,,0,note_off,,80.0,59.0,80.0,200400,208.75
1264,0.0,,,,,,52.0,,,,,0,note_off,,80.0,52.0,80.0,200400,208.75
1265,1.0,,,,,,64.0,,,,,0,note_on,,95.0,64.0,95.0,200400,208.75
1266,1.0,,,,,,59.0,,,,,0,note_on,,95.0,59.0,95.0,200400,208.75
1267,1.0,,,,,,52.0,,,,,0,note_on,,95.0,52.0,95.0,200400,208.75
1268,1.0,,,,,,,,640.0,,,120,pitchwheel,,,,,200520,208.875
1269,1.0,,,,,,,,640.0,,,0,pitchwheel,,,,,200520,208.875
1270,1.0,,,,,,,,640.0,,,0,pitchwheel,,,,,200520,208.875
1271,1.0,,,,,,,,1408.0,,,60,pitchwheel,,,,,200580,208.9375
1272,1.0,,,,,,,,1408.0,,,0,pitchwheel,,,,,200580,208.9375
1273,1.0,,,,,,,,1408.0,,,0,pitchwheel,,,,,200580,208.9375
1274,1.0,,,,,,64.0,,,,,60,note_off,,80.0,64.0,80.0,200640,209.0
1275,1.0,,,,,,,,0.0,,,0,pitchwheel,,,,,200640,209.0
1276,1.0,,,,,,59.0,,,,,0,note_off,,80.0,59.0,80.0,200640,209.0
1277,1.0,,,,,,,,0.0,,,0,pitchwheel,,,,,200640,209.0
1278,1.0,,,,,,52.0,,,,,0,note_off,,80.0,52.0,80.0,200640,209.0
1279,1.0,,,,,,,,0.0,,,0,pitchwheel,,,,,200640,209.0
1280,0.0,,,,,,67.0,,,,,0,note_on,,86.0,67.0,86.0,200640,209.0
1281,0.0,,,,,,62.0,,,,,0,note_on,,86.0,62.0,86.0,200640,209.0
1282,0.0,,,,,,55.0,,,,,0,note_on,,86.0,55.0,86.0,200640,209.0
1283,0.0,,,,,,67.0,,,,,240,note_off,,80.0,67.0,80.0,200880,209.25
1284,0.0,,,,,,62.0,,,,,0,note_off,,80.0,62.0,80.0,200880,209.25
1285,0.0,,,,,,55.0,,,,,0,note_off,,80.0,55.0,80.0,200880,209.25
1286,0.0,,,,,,64.0,,,,,120,note_on,,95.0,64.0,95.0,201000,209.375
1287,0.0,,,,,,59.0,,,,,0,note_on,,95.0,59.0,95.0,201000,209.375
1288,0.0,,,,,,52.0,,,,,0,note_on,,95.0,52.0,95.0,201000,209.375
1289,0.0,,,,,,64.0,,,,,240,note_off,,80.0,64.0,80.0,201240,209.625
1290,0.0,,,,,,59.0,,,,,0,note_off,,80.0,59.0,80.0,201240,209.625
1291,0.0,,,,,,52.0,,,,,0,note_off,,80.0,52.0,80.0,201240,209.625
1292,0.0,,,,,,62.0,,,,,120,note_on,,95.0,62.0,95.0,201360,209.75
1293,0.0,,,,,,57.0,,,,,0,note_on,,95.0,57.0,95.0,201360,209.75
1294,0.0,,,,,,50.0,,,,,0,note_on,,95.0,50.0,95.0,201360,209.75
1295,0.0,,,,,,62.0,,,,,240,note_off,,80.0,62.0,80.0,201600,210.0
1296,0.0,,,,,,57.0,,,,,0,note_off,,80.0,57.0,80.0,201600,210.0
1297,0.0,,,,,,50.0,,,,,0,note_off,,80.0,50.0,80.0,201600,210.0
1298,0.0,,,,,,60.0,,,,,0,note_on,,95.0,60.0,95.0,201600,210.0
1299,0.0,,,,,,55.0,,,,,0,note_on,,95.0,55.0,95.0,201600,210.0
1300,0.0,,,,,,48.0,,,,,0,note_on,,95.0,48.0,95.0,201600,210.0
1301,0.0,,,,,,60.0,,,,,960,note_off,,80.0,60.0,80.0,202560,211.0
1302,0.0,,,,,,55.0,,,,,0,note_off,,80.0,55.0,80.0,202560,211.0
1303,0.0,,,,,,48.0,,,,,0,note_off,,80.0,48.0,80.0,202560,211.0
1304,0.0,,,,,,59.0,,,,,0,note_on,,95.0,59.0,95.0,202560,211.0
1305,0.0,,,,,,54.0,,,,,0,note_on,,95.0,54.0,95.0,202560,211.0
1306,0.0,,,,,,47.0,,,,,0,note_on,,95.0,47.0,95.0,202560,211.0
1307,0.0,,,,,,57.0,,,,,930,note_on,,95.0,57.0,95.0,203490,211.96875
1308,0.0,,,,,,52.0,,,,,0,note_on,,95.0,52.0,95.0,203490,211.96875
1309,0.0,,,,,,45.0,,,,,0,note_on,,95.0,45.0,95.0,203490,211.96875
1310,0.0,,,,,,57.0,,,,,29,note_off,,80.0,57.0,80.0,203519,211.99895833333332
1311,0.0,,,,,,52.0,,,,,0,note_off,,80.0,52.0,80.0,203519,211.99895833333332
1312,0.0,,,,,,45.0,,,,,0,note_off,,80.0,45.0,80.0,203519,211.99895833333332
1313,0.0,,,,,,59.0,,,,,1,note_off,,80.0,59.0,80.0,203520,212.0
1314,0.0,,,,,,54.0,,,,,0,note_off,,80.0,54.0,80.0,203520,212.0
1315,0.0,,,,,,47.0,,,,,0,note_off,,80.0,47.0,80.0,203520,212.0
1316,0.0,,,,,,64.0,,,,,0,note_on,,95.0,64.0,95.0,203520,212.0
1317,0.0,,,,,,59.0,,,,,0,note_on,,95.0,59.0,95.0,203520,212.0
1318,0.0,,,,,,52.0,,,,,0,note_on,,95.0,52.0,95.0,203520,212.0
1319,0.0,,,,,,64.0,,,,,720,note_off,,80.0,64.0,80.0,204240,212.75
1320,0.0,,,,,,59.0,,,,,0,note_off,,80.0,59.0,80.0,204240,212.75
1321,0.0,,,,,,52.0,,,,,0,note_off,,80.0,52.0,80.0,204240,212.75
1322,1.0,,,,,,64.0,,,,,0,note_on,,95.0,64.0,95.0,204240,212.75
1323,1.0,,,,,,59.0,,,,,0,note_on,,95.0,59.0,95.0,204240,212.75
1324,1.0,,,,,,52.0,,,,,0,note_on,,95.0,52.0,95.0,204240,212.75
1325,1.0,,,,,,,,640.0,,,120,pitchwheel,,,,,204360,212.875
1326,1.0,,,,,,,,640.0,,,0,pitchwheel,,,,,204360,212.875
1327,1.0,,,,,,,,640.0,,,0,pitchwheel,,,,,204360,212.875
1328,1.0,,,,,,,,1408.0,,,60,pitchwheel,,,,,204420,212.9375
1329,1.0,,,,,,,,1408.0,,,0,pitchwheel,,,,,204420,212.9375
1330,1.0,,,,,,,,1408.0,,,0,pitchwheel,,,,,204420,212.9375
1331,1.0,,,,,,64.0,,,,,60,note_off,,80.0,64.0,80.0,204480,213.0
1332,1.0,,,,,,,,0.0,,,0,pitchwheel,,,,,204480,213.0
1333,1.0,,,,,,59.0,,,,,0,note_off,,80.0,59.0,80.0,204480,213.0
1334,1.0,,,,,,,,0.0,,,0,pitchwheel,,,,,204480,213.0
1335,1.0,,,,,,52.0,,,,,0,note_off,,80.0,52.0,80.0,204480,213.0
1336,1.0,,,,,,,,0.0,,,0,pitchwheel,,,,,204480,213.0
1337,0.0,,,,,,67.0,,,,,0,note_on,,86.0,67.0,86.0,204480,213.0
1338,0.0,,,,,,62.0,,,,,0,note_on,,86.0,62.0,86.0,204480,213.0
1339,0.0,,,,,,55.0,,,,,0,note_on,,86.0,55.0,86.0,204480,213.0
1340,0.0,,,,,,67.0,,,,,240,note_off,,80.0,67.0,80.0,204720,213.25
1341,0.0,,,,,,62.0,,,,,0,note_off,,80.0,62.0,80.0,204720,213.25
1342,0.0,,,,,,55.0,,,,,0,note_off,,80.0,55.0,80.0,204720,213.25
1343,0.0,,,,,,64.0,,,,,120,note_on,,95.0,64.0,95.0,204840,213.375
1344,0.0,,,,,,59.0,,,,,0,note_on,,95.0,59.0,95.0,204840,213.375
1345,0.0,,,,,,52.0,,,,,0,note_on,,95.0,52.0,95.0,204840,213.375
1346,0.0,,,,,,64.0,,,,,240,note_off,,80.0,64.0,80.0,205080,213.625
1347,0.0,,,,,,59.0,,,,,0,note_off,,80.0,59.0,80.0,205080,213.625
1348,0.0,,,,,,52.0,,,,,0,note_off,,80.0,52.0,80.0,205080,213.625
1349,0.0,,,,,,62.0,,,,,120,note_on,,95.0,62.0,95.0,205200,213.75
1350,0.0,,,,,,57.0,,,,,0,note_on,,95.0,57.0,95.0,205200,213.75
1351,0.0,,,,,,50.0,,,,,0,note_on,,95.0,50.0,95.0,205200,213.75
1352,0.0,,,,,,62.0,,,,,240,note_off,,80.0,62.0,80.0,205440,214.0
1353,0.0,,,,,,57.0,,,,,0,note_off,,80.0,57.0,80.0,205440,214.0
1354,0.0,,,,,,50.0,,,,,0,note_off,,80.0,50.0,80.0,205440,214.0
1355,0.0,,,,,,60.0,,,,,0,note_on,,95.0,60.0,95.0,205440,214.0
1356,0.0,,,,,,55.0,,,,,0,note_on,,95.0,55.0,95.0,205440,214.0
1357,0.0,,,,,,48.0,,,,,0,note_on,,95.0,48.0,95.0,205440,214.0
1358,0.0,,,,,,60.0,,,,,360,note_off,,80.0,60.0,80.0,205800,214.375
1359,0.0,,,,,,55.0,,,,,0,note_off,,80.0,55.0,80.0,205800,214.375
1360,0.0,,,,,,48.0,,,,,0,note_off,,80.0,48.0,80.0,205800,214.375
1361,0.0,,,,,,62.0,,,,,0,note_on,,95.0,62.0,95.0,205800,214.375
1362,0.0,,,,,,57.0,,,,,0,note_on,,95.0,57.0,95.0,205800,214.375
1363,0.0,,,,,,50.0,,,,,0,note_on,,95.0,50.0,95.0,205800,214.375
1364,0.0,,,,,,62.0,,,,,360,note_off,,80.0,62.0,80.0,206160,214.75
1365,0.0,,,,,,57.0,,,,,0,note_off,,80.0,57.0,80.0,206160,214.75
1366,0.0,,,,,,50.0,,,,,0,note_off,,80.0,50.0,80.0,206160,214.75
1367,0.0,,,,,,60.0,,,,,0,note_on,,95.0,60.0,95.0,206160,214.75
1368,0.0,,,,,,55.0,,,,,0,note_on,,95.0,55.0,95.0,206160,214.75
1369,0.0,,,,,,48.0,,,,,0,note_on,,95.0,48.0,95.0,206160,214.75
1370,0.0,,,,,,60.0,,,,,240,note_off,,80.0,60.0,80.0,206400,215.0
1371,0.0,,,,,,55.0,,,,,0,note_off,,80.0,55.0,80.0,206400,215.0
1372,0.0,,,,,,48.0,,,,,0,note_off,,80.0,48.0,80.0,206400,215.0
1373,0.0,,,,,,59.0,,,,,0,note_on,,95.0,59.0,95.0,206400,215.0
1374,0.0,,,,,,54.0,,,,,0,note_on,,95.0,54.0,95.0,206400,215.0
1375,0.0,,,,,,47.0,,,,,0,note_on,,95.0,47.0,95.0,206400,215.0
1376,0.0,,,,,,57.0,,,,,930,note_on,,95.0,57.0,95.0,207330,215.96875
1377,0.0,,,,,,52.0,,,,,0,note_on,,95.0,52.0,95.0,207330,215.96875
1378,0.0,,,,,,45.0,,,,,0,note_on,,95.0,45.0,95.0,207330,215.96875
1379,0.0,,,,,,57.0,,,,,29,note_off,,80.0,57.0,80.0,207359,215.99895833333332
1380,0.0,,,,,,52.0,,,,,0,note_off,,80.0,52.0,80.0,207359,215.99895833333332
1381,0.0,,,,,,45.0,,,,,0,note_off,,80.0,45.0,80.0,207359,215.99895833333332
1382,0.0,,,,,,59.0,,,,,1,note_off,,80.0,59.0,80.0,207360,216.0
1383,0.0,,,,,,54.0,,,,,0,note_off,,80.0,54.0,80.0,207360,216.0
1384,0.0,,,,,,47.0,,,,,0,note_off,,80.0,47.0,80.0,207360,216.0
1385,0.0,,,,,,64.0,,,,,0,note_on,,95.0,64.0,95.0,207360,216.0
1386,0.0,,,,,,59.0,,,,,0,note_on,,95.0,59.0,95.0,207360,216.0
1387,0.0,,,,,,52.0,,,,,0,note_on,,95.0,52.0,95.0,207360,216.0
1388,0.0,,,,,,64.0,,,,,720,note_off,,80.0,64.0,80.0,208080,216.75
1389,0.0,,,,,,59.0,,,,,0,note_off,,80.0,59.0,80.0,208080,216.75
1390,0.0,,,,,,52.0,,,,,0,note_off,,80.0,52.0,80.0,208080,216.75
1391,1.0,,,,,,64.0,,,,,0,note_on,,95.0,64.0,95.0,208080,216.75
1392,1.0,,,,,,59.0,,,,,0,note_on,,95.0,59.0,95.0,208080,216.75
1393,1.0,,,,,,52.0,,,,,0,note_on,,95.0,52.0,95.0,208080,216.75
1394,1.0,,,,,,,,640.0,,,120,pitchwheel,,,,,208200,216.875
1395,1.0,,,,,,,,640.0,,,0,pitchwheel,,,,,208200,216.875
1396,1.0,,,,,,,,640.0,,,0,pitchwheel,,,,,208200,216.875
1397,1.0,,,,,,,,1408.0,,,60,pitchwheel,,,,,208260,216.9375
1398,1.0,,,,,,,,1408.0,,,0,pitchwheel,,,,,208260,216.9375
1399,1.0,,,,,,,,1408.0,,,0,pitchwheel,,,,,208260,216.9375
1400,1.0,,,,,,64.0,,,,,60,note_off,,80.0,64.0,80.0,208320,217.0
1401,1.0,,,,,,,,0.0,,,0,pitchwheel,,,,,208320,217.0
1402,1.0,,,,,,59.0,,,,,0,note_off,,80.0,59.0,80.0,208320,217.0
1403,1.0,,,,,,,,0.0,,,0,pitchwheel,,,,,208320,217.0
1404,1.0,,,,,,52.0,,,,,0,note_off,,80.0,52.0,80.0,208320,217.0
1405,1.0,,,,,,,,0.0,,,0,pitchwheel,,,,,208320,217.0
1406,0.0,,,,,,67.0,,,,,0,note_on,,86.0,67.0,86.0,208320,217.0
1407,0.0,,,,,,62.0,,,,,0,note_on,,86.0,62.0,86.0,208320,217.0
1408,0.0,,,,,,55.0,,,,,0,note_on,,86.0,55.0,86.0,208320,217.0
1409,0.0,,,,,,67.0,,,,,240,note_off,,80.0,67.0,80.0,208560,217.25
1410,0.0,,,,,,62.0,,,,,0,note_off,,80.0,62.0,80.0,208560,217.25
1411,0.0,,,,,,55.0,,,,,0,note_off,,80.0,55.0,80.0,208560,217.25
1412,0.0,,,,,,64.0,,,,,120,note_on,,95.0,64.0,95.0,208680,217.375
1413,0.0,,,,,,59.0,,,,,0,note_on,,95.0,59.0,95.0,208680,217.375
1414,0.0,,,,,,52.0,,,,,0,note_on,,95.0,52.0,95.0,208680,217.375
1415,0.0,,,,,,64.0,,,,,240,note_off,,80.0,64.0,80.0,208920,217.625
1416,0.0,,,,,,59.0,,,,,0,note_off,,80.0,59.0,80.0,208920,217.625
1417,0.0,,,,,,52.0,,,,,0,note_off,,80.0,52.0,80.0,208920,217.625
1418,0.0,,,,,,62.0,,,,,120,note_on,,95.0,62.0,95.0,209040,217.75
1419,0.0,,,,,,57.0,,,,,0,note_on,,95.0,57.0,95.0,209040,217.75
1420,0.0,,,,,,50.0,,,,,0,note_on,,95.0,50.0,95.0,209040,217.75
1421,0.0,,,,,,62.0,,,,,240,note_off,,80.0,62.0,80.0,209280,218.0
1422,0.0,,,,,,57.0,,,,,0,note_off,,80.0,57.0,80.0,209280,218.0
1423,0.0,,,,,,50.0,,,,,0,note_off,,80.0,50.0,80.0,209280,218.0
1424,0.0,,,,,,60.0,,,,,0,note_on,,95.0,60.0,95.0,209280,218.0
1425,0.0,,,,,,55.0,,,,,0,note_on,,95.0,55.0,95.0,209280,218.0
1426,0.0,,,,,,48.0,,,,,0,note_on,,95.0,48.0,95.0,209280,218.0
1427,0.0,,,,,,60.0,,,,,960,note_off,,80.0,60.0,80.0,210240,219.0
1428,0.0,,,,,,55.0,,,,,0,note_off,,80.0,55.0,80.0,210240,219.0
1429,0.0,,,,,,48.0,,,,,0,note_off,,80.0,48.0,80.0,210240,219.0
1430,0.0,,,,,,59.0,,,,,0,note_on,,95.0,59.0,95.0,210240,219.0
1431,0.0,,,,,,54.0,,,,,0,note_on,,95.0,54.0,95.0,210240,219.0
1432,0.0,,,,,,47.0,,,,,0,note_on,,95.0,47.0,95.0,210240,219.0
1433,0.0,,,,,,57.0,,,,,930,note_on,,95.0,57.0,95.0,211170,219.96875
1434,0.0,,,,,,52.0,,,,,0,note_on,,95.0,52.0,95.0,211170,219.96875
1435,0.0,,,,,,45.0,,,,,0,note_on,,95.0,45.0,95.0,211170,219.96875
1436,0.0,,,,,,57.0,,,,,29,note_off,,80.0,57.0,80.0,211199,219.99895833333332
1437,0.0,,,,,,52.0,,,,,0,note_off,,80.0,52.0,80.0,211199,219.99895833333332
1438,0.0,,,,,,45.0,,,,,0,note_off,,80.0,45.0,80.0,211199,219.99895833333332
1439,0.0,,,,,,59.0,,,,,1,note_off,,80.0,59.0,80.0,211200,220.0
1440,0.0,,,,,,54.0,,,,,0,note_off,,80.0,54.0,80.0,211200,220.0
1441,0.0,,,,,,47.0,,,,,0,note_off,,80.0,47.0,80.0,211200,220.0
1442,0.0,,,,,,64.0,,,,,0,note_on,,95.0,64.0,95.0,211200,220.0
1443,0.0,,,,,,59.0,,,,,0,note_on,,95.0,59.0,95.0,211200,220.0
1444,0.0,,,,,,52.0,,,,,0,note_on,,95.0,52.0,95.0,211200,220.0
1445,0.0,,,,,,64.0,,,,,720,note_off,,80.0,64.0,80.0,211920,220.75
1446,0.0,,,,,,59.0,,,,,0,note_off,,80.0,59.0,80.0,211920,220.75
1447,0.0,,,,,,52.0,,,,,0,note_off,,80.0,52.0,80.0,211920,220.75
1448,1.0,,,,,,64.0,,,,,0,note_on,,95.0,64.0,95.0,211920,220.75
1449,1.0,,,,,,59.0,,,,,0,note_on,,95.0,59.0,95.0,211920,220.75
1450,1.0,,,,,,52.0,,,,,0,note_on,,95.0,52.0,95.0,211920,220.75
1451,1.0,,,,,,,,640.0,,,120,pitchwheel,,,,,212040,220.875
1452,1.0,,,,,,,,640.0,,,0,pitchwheel,,,,,212040,220.875
1453,1.0,,,,,,,,640.0,,,0,pitchwheel,,,,,212040,220.875
1454,1.0,,,,,,,,1408.0,,,60,pitchwheel,,,,,212100,220.9375
1455,1.0,,,,,,,,1408.0,,,0,pitchwheel,,,,,212100,220.9375
1456,1.0,,,,,,,,1408.0,,,0,pitchwheel,,,,,212100,220.9375
1457,1.0,,,,,,64.0,,,,,60,note_off,,80.0,64.0,80.0,212160,221.0
1458,1.0,,,,,,,,0.0,,,0,pitchwheel,,,,,212160,221.0
1459,1.0,,,,,,59.0,,,,,0,note_off,,80.0,59.0,80.0,212160,221.0
1460,1.0,,,,,,,,0.0,,,0,pitchwheel,,,,,212160,221.0
1461,1.0,,,,,,52.0,,,,,0,note_off,,80.0,52.0,80.0,212160,221.0
1462,1.0,,,,,,,,0.0,,,0,pitchwheel,,,,,212160,221.0
1463,0.0,,,,,,67.0,,,,,0,note_on,,86.0,67.0,86.0,212160,221.0
1464,0.0,,,,,,62.0,,,,,0,note_on,,86.0,62.0,86.0,212160,221.0
1465,0.0,,,,,,55.0,,,,,0,note_on,,86.0,55.0,86.0,212160,221.0
1466,0.0,,,,,,67.0,,,,,240,note_off,,80.0,67.0,80.0,212400,221.25
1467,0.0,,,,,,62.0,,,,,0,note_off,,80.0,62.0,80.0,212400,221.25
1468,0.0,,,,,,55.0,,,,,0,note_off,,80.0,55.0,80.0,212400,221.25
1469,0.0,,,,,,64.0,,,,,120,note_on,,95.0,64.0,95.0,212520,221.375
1470,0.0,,,,,,59.0,,,,,0,note_on,,95.0,59.0,95.0,212520,221.375
1471,0.0,,,,,,52.0,,,,,0,note_on,,95.0,52.0,95.0,212520,221.375
1472,0.0,,,,,,64.0,,,,,240,note_off,,80.0,64.0,80.0,212760,221.625
1473,0.0,,,,,,59.0,,,,,0,note_off,,80.0,59.0,80.0,212760,221.625
1474,0.0,,,,,,52.0,,,,,0,note_off,,80.0,52.0,80.0,212760,221.625
1475,0.0,,,,,,62.0,,,,,120,note_on,,95.0,62.0,95.0,212880,221.75
1476,0.0,,,,,,57.0,,,,,0,note_on,,95.0,57.0,95.0,212880,221.75
1477,0.0,,,,,,50.0,,,,,0,note_on,,95.0,50.0,95.0,212880,221.75
1478,0.0,,,,,,62.0,,,,,240,note_off,,80.0,62.0,80.0,213120,222.0
1479,0.0,,,,,,57.0,,,,,0,note_off,,80.0,57.0,80.0,213120,222.0
1480,0.0,,,,,,50.0,,,,,0,note_off,,80.0,50.0,80.0,213120,222.0
1481,0.0,,,,,,60.0,,,,,0,note_on,,95.0,60.0,95.0,213120,222.0
1482,0.0,,,,,,55.0,,,,,0,note_on,,95.0,55.0,95.0,213120,222.0
1483,0.0,,,,,,48.0,,,,,0,note_on,,95.0,48.0,95.0,213120,222.0
1484,0.0,,,,,,60.0,,,,,360,note_off,,80.0,60.0,80.0,213480,222.375
1485,0.0,,,,,,55.0,,,,,0,note_off,,80.0,55.0,80.0,213480,222.375
1486,0.0,,,,,,48.0,,,,,0,note_off,,80.0,48.0,80.0,213480,222.375
1487,0.0,,,,,,62.0,,,,,0,note_on,,95.0,62.0,95.0,213480,222.375
1488,0.0,,,,,,57.0,,,,,0,note_on,,95.0,57.0,95.0,213480,222.375
1489,0.0,,,,,,50.0,,,,,0,note_on,,95.0,50.0,95.0,213480,222.375
1490,0.0,,,,,,62.0,,,,,360,note_off,,80.0,62.0,80.0,213840,222.75
1491,0.0,,,,,,57.0,,,,,0,note_off,,80.0,57.0,80.0,213840,222.75
1492,0.0,,,,,,50.0,,,,,0,note_off,,80.0,50.0,80.0,213840,222.75
1493,0.0,,,,,,60.0,,,,,0,note_on,,95.0,60.0,95.0,213840,222.75
1494,0.0,,,,,,55.0,,,,,0,note_on,,95.0,55.0,95.0,213840,222.75
1495,0.0,,,,,,48.0,,,,,0,note_on,,95.0,48.0,95.0,213840,222.75
1496,0.0,,,,,,60.0,,,,,240,note_off,,80.0,60.0,80.0,214080,223.0
1497,0.0,,,,,,55.0,,,,,0,note_off,,80.0,55.0,80.0,214080,223.0
1498,0.0,,,,,,48.0,,,,,0,note_off,,80.0,48.0,80.0,214080,223.0
1499,0.0,,,,,,59.0,,,,,0,note_on,,95.0,59.0,95.0,214080,223.0
1500,0.0,,,,,,54.0,,,,,0,note_on,,95.0,54.0,95.0,214080,223.0
1501,0.0,,,,,,47.0,,,,,0,note_on,,95.0,47.0,95.0,214080,223.0
1502,0.0,,,,,,59.0,,,,,960,note_off,,80.0,59.0,80.0,215040,224.0
1503,0.0,,,,,,54.0,,,,,0,note_off,,80.0,54.0,80.0,215040,224.0
1504,0.0,,,,,,47.0,,,,,0,note_off,,80.0,47.0,80.0,215040,224.0
1505,0.0,,,,,,68.0,,,,,0,note_on,,95.0,68.0,95.0,215040,224.0
1506,0.0,,,,,,64.0,,,,,0,note_on,,95.0,64.0,95.0,215040,224.0
1507,0.0,,,,,,59.0,,,,,0,note_on,,95.0,59.0,95.0,215040,224.0
1508,0.0,,,,,,52.0,,,,,0,note_on,,95.0,52.0,95.0,215040,224.0
1509,0.0,,,,,,68.0,,,,,1920,note_off,,80.0,68.0,80.0,216960,226.0
1510,0.0,,,,,,64.0,,,,,0,note_off,,80.0,64.0,80.0,216960,226.0
1511,0.0,,,,,,59.0,,,,,0,note_off,,80.0,59.0,80.0,216960,226.0
1512,0.0,,,,,,52.0,,,,,0,note_off,,80.0,52.0,80.0,216960,226.0
1513,,,,,,,,,,,,0,end_of_track,,,,,216960,226.0
1514,,,,,Solo Guitar ( Jack White)Standard Tuning,,,,,,,0,track_name,,,,,216960,226.0
1515,2.0,,100.0,,,,,,,,,0,control_change,0.0,,,,216960,226.0
1516,2.0,,101.0,,,,,,,,,0,control_change,0.0,,,,216960,226.0
1517,2.0,,6.0,,,,,,,,,0,control_change,12.0,,,,216960,226.0
1518,2.0,,,,,,,,0.0,,,0,pitchwheel,,,,,216960,226.0
1519,3.0,,100.0,,,,,,,,,0,control_change,0.0,,,,216960,226.0
1520,3.0,,101.0,,,,,,,,,0,control_change,0.0,,,,216960,226.0
1521,3.0,,6.0,,,,,,,,,0,control_change,12.0,,,,216960,226.0
1522,3.0,,,,,,,,0.0,,,0,pitchwheel,,,,,216960,226.0
1523,2.0,,,,,,,,,30.0,,0,program_change,,,,,216960,226.0
1524,3.0,,,,,,,,,30.0,,0,program_change,,,,,216960,226.0
1525,2.0,,7.0,,,,,,,,,0,control_change,127.0,,,,216960,226.0
1526,3.0,,7.0,,,,,,,,,0,control_change,127.0,,,,216960,226.0
1527,2.0,,10.0,,,,,,,,,0,control_change,64.0,,,,216960,226.0
1528,3.0,,10.0,,,,,,,,,0,control_change,64.0,,,,216960,226.0
1529,2.0,,93.0,,,,,,,,,0,control_change,0.0,,,,216960,226.0
1530,3.0,,93.0,,,,,,,,,0,control_change,0.0,,,,216960,226.0
1531,2.0,,91.0,,,,,,,,,0,control_change,0.0,,,,216960,226.0
1532,3.0,,91.0,,,,,,,,,0,control_change,0.0,,,,216960,226.0
1533,2.0,,92.0,,,,,,,,,0,control_change,0.0,,,,216960,226.0
1534,3.0,,92.0,,,,,,,,,0,control_change,0.0,,,,216960,226.0
1535,2.0,,95.0,,,,,,,,,0,control_change,0.0,,,,216960,226.0
1536,3.0,,95.0,,,,,,,,,0,control_change,0.0,,,,216960,226.0
1537,3.0,,,,,,64.0,,,,,119040,note_on,,95.0,64.0,95.0,336000,350.0
1538,3.0,,,,,,,,0.0,,,80,pitchwheel,,,,,336080,350.0833333333333
1539,3.0,,,,,,,,256.0,,,80,pitchwheel,,,,,336160,350.1666666666667
1540,3.0,,,,,,,,0.0,,,80,pitchwheel,,,,,336240,350.25
1541,3.0,,,,,,,,256.0,,,80,pitchwheel,,,,,336320,350.3333333333333
1542,3.0,,,,,,,,0.0,,,80,pitchwheel,,,,,336400,350.4166666666667
1543,3.0,,,,,,,,256.0,,,80,pitchwheel,,,,,336480,350.5
1544,3.0,,,,,,,,0.0,,,80,pitchwheel,,,,,336560,350.5833333333333
1545,3.0,,,,,,,,256.0,,,80,pitchwheel,,,,,336640,350.6666666666667
1546,3.0,,,,,,64.0,,,,,80,note_off,,80.0,64.0,80.0,336720,350.75
1547,3.0,,,,,,,,0.0,,,0,pitchwheel,,,,,336720,350.75
1548,3.0,,,,,,,,0.0,,,0,pitchwheel,,,,,336720,350.75
1549,3.0,,,,,,64.0,,,,,0,note_on,,95.0,64.0,95.0,336720,350.75
1550,3.0,,,,,,,,0.0,,,80,pitchwheel,,,,,336800,350.8333333333333
1551,3.0,,,,,,,,256.0,,,80,pitchwheel,,,,,336880,350.9166666666667
1552,3.0,,,,,,64.0,,,,,80,note_off,,80.0,64.0,80.0,336960,351.0
1553,3.0,,,,,,,,0.0,,,0,pitchwheel,,,,,336960,351.0
1554,3.0,,,,,,,,0.0,,,0,pitchwheel,,,,,336960,351.0
1555,3.0,,,,,,64.0,,,,,0,note_on,,95.0,64.0,95.0,336960,351.0
1556,3.0,,,,,,,,0.0,,,80,pitchwheel,,,,,337040,351.0833333333333
1557,3.0,,,,,,,,256.0,,,80,pitchwheel,,,,,337120,351.1666666666667
1558,3.0,,,,,,,,0.0,,,80,pitchwheel,,,,,337200,351.25
1559,3.0,,,,,,,,256.0,,,80,pitchwheel,,,,,337280,351.3333333333333
1560,3.0,,,,,,64.0,,,,,40,note_off,,80.0,64.0,80.0,337320,351.375
1561,3.0,,,,,,,,0.0,,,0,pitchwheel,,,,,337320,351.375
1562,3.0,,,,,,64.0,,,,,0,note_on,,95.0,64.0,95.0,337320,351.375
1563,3.0,,,,,,,,0.0,,,80,pitchwheel,,,,,337400,351.4583333333333
1564,3.0,,,,,,,,256.0,,,80,pitchwheel,,,,,337480,351.5416666666667
1565,3.0,,,,,,,,0.0,,,80,pitchwheel,,,,,337560,351.625
1566,3.0,,,,,,,,256.0,,,80,pitchwheel,,,,,337640,351.7083333333333
1567,3.0,,,,,,64.0,,,,,40,note_off,,80.0,64.0,80.0,337680,351.75
1568,3.0,,,,,,,,0.0,,,0,pitchwheel,,,,,337680,351.75
1569,3.0,,,,,,64.0,,,,,0,note_on,,95.0,64.0,95.0,337680,351.75
1570,3.0,,,,,,,,0.0,,,80,pitchwheel,,,,,337760,351.8333333333333
1571,3.0,,,,,,,,640.0,,,40,pitchwheel,,,,,337800,351.875
1572,3.0,,,,,,,,256.0,,,40,pitchwheel,,,,,337840,351.9166666666667
1573,3.0,,,,,,,,1408.0,,,20,pitchwheel,,,,,337860,351.9375
1574,3.0,,,,,,64.0,,,,,60,note_off,,80.0,64.0,80.0,337920,352.0
1575,3.0,,,,,,,,0.0,,,0,pitchwheel,,,,,337920,352.0
1576,3.0,,,,,,,,0.0,,,0,pitchwheel,,,,,337920,352.0
1577,3.0,,,,,,,,0.0,,,0,pitchwheel,,,,,337920,352.0
1578,3.0,,,,,,67.0,,,,,0,note_on,,86.0,67.0,86.0,337920,352.0
1579,3.0,,,,,,,,0.0,,,0,pitchwheel,,,,,337920,352.0
1580,3.0,,,,,,,,128.0,,,96,pitchwheel,,,,,338016,352.1
1581,3.0,,,,,,,,256.0,,,192,pitchwheel,,,,,338208,352.3
1582,3.0,,,,,,,,384.0,,,176,pitchwheel,,,,,338384,352.48333333333335
1583,3.0,,,,,,,,512.0,,,16,pitchwheel,,,,,338400,352.5
1584,3.0,,,,,,,,384.0,,,32,pitchwheel,,,,,338432,352.5333333333333
1585,3.0,,,,,,,,256.0,,,32,pitchwheel,,,,,338464,352.56666666666666
1586,3.0,,,,,,,,384.0,,,32,pitchwheel,,,,,338496,352.6
1587,3.0,,,,,,,,512.0,,,32,pitchwheel,,,,,338528,352.6333333333333
1588,3.0,,,,,,,,384.0,,,32,pitchwheel,,,,,338560,352.6666666666667
1589,3.0,,,,,,,,256.0,,,32,pitchwheel,,,,,338592,352.7
1590,3.0,,,,,,,,384.0,,,32,pitchwheel,,,,,338624,352.73333333333335
1591,3.0,,,,,,,,512.0,,,32,pitchwheel,,,,,338656,352.76666666666665
1592,3.0,,,,,,,,384.0,,,32,pitchwheel,,,,,338688,352.8
1593,3.0,,,,,,,,256.0,,,32,pitchwheel,,,,,338720,352.8333333333333
1594,3.0,,,,,,,,384.0,,,32,pitchwheel,,,,,338752,352.8666666666667
1595,3.0,,,,,,,,512.0,,,32,pitchwheel,,,,,338784,352.9
1596,3.0,,,,,,,,384.0,,,32,pitchwheel,,,,,338816,352.93333333333334
1597,3.0,,,,,,,,256.0,,,32,pitchwheel,,,,,338848,352.96666666666664
1598,3.0,,,,,,67.0,,,,,32,note_off,,80.0,67.0,80.0,338880,353.0
1599,3.0,,,,,,,,384.0,,,0,pitchwheel,,,,,338880,353.0
1600,3.0,,,,,,,,0.0,,,0,pitchwheel,,,,,338880,353.0
1601,3.0,,,,,,66.0,,,,,0,note_on,,95.0,66.0,95.0,338880,353.0
1602,3.0,,,,,,,,0.0,,,80,pitchwheel,,,,,338960,353.0833333333333
1603,3.0,,,,,,,,256.0,,,80,pitchwheel,,,,,339040,353.1666666666667
1604,3.0,,,,,,,,0.0,,,80,pitchwheel,,,,,339120,353.25
1605,3.0,,,,,,,,256.0,,,80,pitchwheel,,,,,339200,353.3333333333333
1606,3.0,,,,,,,,0.0,,,80,pitchwheel,,,,,339280,353.4166666666667
1607,3.0,,,,,,,,256.0,,,80,pitchwheel,,,,,339360,353.5
1608,3.0,,,,,,,,0.0,,,80,pitchwheel,,,,,339440,353.5833333333333
1609,3.0,,,,,,,,256.0,,,80,pitchwheel,,,,,339520,353.6666666666667
1610,3.0,,,,,,,,0.0,,,80,pitchwheel,,,,,339600,353.75
1611,3.0,,,,,,,,256.0,,,80,pitchwheel,,,,,339680,353.8333333333333
1612,3.0,,,,,,,,0.0,,,80,pitchwheel,,,,,339760,353.9166666666667
1613,3.0,,,,,,66.0,,,,,80,note_off,,80.0,66.0,80.0,339840,354.0
1614,3.0,,,,,,,,256.0,,,0,pitchwheel,,,,,339840,354.0
1615,3.0,,,,,,,,0.0,,,0,pitchwheel,,,,,339840,354.0
1616,3.0,,,,,,64.0,,,,,0,note_on,,95.0,64.0,95.0,339840,354.0
1617,3.0,,,,,,,,0.0,,,80,pitchwheel,,,,,339920,354.0833333333333
1618,3.0,,,,,,,,256.0,,,80,pitchwheel,,,,,340000,354.1666666666667
1619,3.0,,,,,,,,0.0,,,80,pitchwheel,,,,,340080,354.25
1620,3.0,,,,,,,,256.0,,,80,pitchwheel,,,,,340160,354.3333333333333
1621,3.0,,,,,,,,0.0,,,80,pitchwheel,,,,,340240,354.4166666666667
1622,3.0,,,,,,,,256.0,,,80,pitchwheel,,,,,340320,354.5
1623,3.0,,,,,,,,0.0,,,80,pitchwheel,,,,,340400,354.5833333333333
1624,3.0,,,,,,,,256.0,,,80,pitchwheel,,,,,340480,354.6666666666667
1625,3.0,,,,,,64.0,,,,,80,note_off,,80.0,64.0,80.0,340560,354.75
1626,3.0,,,,,,,,0.0,,,0,pitchwheel,,,,,340560,354.75
1627,3.0,,,,,,,,0.0,,,0,pitchwheel,,,,,340560,354.75
1628,3.0,,,,,,64.0,,,,,0,note_on,,95.0,64.0,95.0,340560,354.75
1629,3.0,,,,,,,,0.0,,,80,pitchwheel,,,,,340640,354.8333333333333
1630,3.0,,,,,,,,256.0,,,80,pitchwheel,,,,,340720,354.9166666666667
1631,3.0,,,,,,64.0,,,,,80,note_off,,80.0,64.0,80.0,340800,355.0
1632,3.0,,,,,,,,0.0,,,0,pitchwheel,,,,,340800,355.0
1633,3.0,,,,,,,,0.0,,,0,pitchwheel,,,,,340800,355.0
1634,3.0,,,,,,67.0,,,,,0,note_on,,95.0,67.0,95.0,340800,355.0
1635,3.0,,,,,,,,0.0,,,80,pitchwheel,,,,,340880,355.0833333333333
1636,3.0,,,,,,,,256.0,,,80,pitchwheel,,,,,340960,355.1666666666667
1637,3.0,,,,,,,,0.0,,,80,pitchwheel,,,,,341040,355.25
1638,3.0,,,,,,,,256.0,,,80,pitchwheel,,,,,341120,355.3333333333333
1639,3.0,,,,,,67.0,,,,,40,note_off,,80.0,67.0,80.0,341160,355.375
1640,3.0,,,,,,,,0.0,,,0,pitchwheel,,,,,341160,355.375
1641,3.0,,,,,,69.0,,,,,0,note_on,,95.0,69.0,95.0,341160,355.375
1642,3.0,,,,,,,,0.0,,,80,pitchwheel,,,,,341240,355.4583333333333
1643,3.0,,,,,,,,256.0,,,80,pitchwheel,,,,,341320,355.5416666666667
1644,3.0,,,,,,,,0.0,,,80,pitchwheel,,,,,341400,355.625
1645,3.0,,,,,,,,256.0,,,80,pitchwheel,,,,,341480,355.7083333333333
1646,3.0,,,,,,69.0,,,,,40,note_off,,80.0,69.0,80.0,341520,355.75
1647,3.0,,,,,,,,0.0,,,0,pitchwheel,,,,,341520,355.75
1648,3.0,,,,,,67.0,,,,,0,note_on,,95.0,67.0,95.0,341520,355.75
1649,3.0,,,,,,,,0.0,,,80,pitchwheel,,,,,341600,355.8333333333333
1650,3.0,,,,,,,,256.0,,,80,pitchwheel,,,,,341680,355.9166666666667
1651,3.0,,,,,,67.0,,,,,80,note_off,,80.0,67.0,80.0,341760,356.0
1652,3.0,,,,,,,,0.0,,,0,pitchwheel,,,,,341760,356.0
1653,3.0,,,,,,,,0.0,,,0,pitchwheel,,,,,341760,356.0
1654,3.0,,,,,,67.0,,,,,0,note_on,,95.0,67.0,95.0,341760,356.0
1655,3.0,,,,,,,,0.0,,,80,pitchwheel,,,,,341840,356.0833333333333
1656,3.0,,,,,,67.0,,,,,40,note_off,,80.0,67.0,80.0,341880,356.125
1657,3.0,,,,,,,,0.0,,,0,pitchwheel,,,,,341880,356.125
1658,3.0,,,,,,67.0,,,,,120,note_on,,95.0,67.0,95.0,342000,356.25
1659,3.0,,,,,,,,640.0,,,60,pitchwheel,,,,,342060,356.3125
1660,3.0,,,,,,,,0.0,,,20,pitchwheel,,,,,342080,356.3333333333333
1661,3.0,,,,,,67.0,,,,,40,note_off,,80.0,67.0,80.0,342120,356.375
1662,3.0,,,,,,,,0.0,,,0,pitchwheel,,,,,342120,356.375
1663,3.0,,,,,,,,0.0,,,0,pitchwheel,,,,,342120,356.375
1664,3.0,,,,,,69.0,,,,,0,note_on,,86.0,69.0,86.0,342120,356.375
1665,3.0,,,,,,,,0.0,,,80,pitchwheel,,,,,342200,356.4583333333333
1666,3.0,,,,,,,,256.0,,,80,pitchwheel,,,,,342280,356.5416666666667
1667,3.0,,,,,,69.0,,,,,80,note_off,,80.0,69.0,80.0,342360,356.625
1668,3.0,,,,,,,,0.0,,,0,pitchwheel,,,,,342360,356.625
1669,3.0,,,,,,,,0.0,,,0,pitchwheel,,,,,342360,356.625
1670,3.0,,,,,,67.0,,,,,120,note_on,,95.0,67.0,95.0,342480,356.75
1671,3.0,,,,,,,,0.0,,,80,pitchwheel,,,,,342560,356.8333333333333
1672,3.0,,,,,,67.0,,,,,40,note_off,,80.0,67.0,80.0,342600,356.875
1673,3.0,,,,,,,,0.0,,,0,pitchwheel,,,,,342600,356.875
1674,3.0,,,,,,66.0,,,,,120,note_on,,95.0,66.0,95.0,342720,357.0
1675,3.0,,,,,,,,0.0,,,80,pitchwheel,,,,,342800,357.0833333333333
1676,3.0,,,,,,,,256.0,,,80,pitchwheel,,,,,342880,357.1666666666667
1677,3.0,,,,,,,,0.0,,,80,pitchwheel,,,,,342960,357.25
1678,3.0,,,,,,,,256.0,,,80,pitchwheel,,,,,343040,357.3333333333333
1679,3.0,,,,,,,,0.0,,,80,pitchwheel,,,,,343120,357.4166666666667
1680,3.0,,,,,,,,256.0,,,80,pitchwheel,,,,,343200,357.5
1681,3.0,,,,,,,,0.0,,,80,pitchwheel,,,,,343280,357.5833333333333
1682,3.0,,,,,,,,256.0,,,80,pitchwheel,,,,,343360,357.6666666666667
1683,3.0,,,,,,,,0.0,,,80,pitchwheel,,,,,343440,357.75
1684,3.0,,,,,,,,256.0,,,80,pitchwheel,,,,,343520,357.8333333333333
1685,3.0,,,,,,,,0.0,,,80,pitchwheel,,,,,343600,357.9166666666667
1686,3.0,,,,,,66.0,,,,,80,note_off,,80.0,66.0,80.0,343680,358.0
1687,3.0,,,,,,,,256.0,,,0,pitchwheel,,,,,343680,358.0
1688,3.0,,,,,,,,0.0,,,0,pitchwheel,,,,,343680,358.0
1689,3.0,,,,,,64.0,,,,,0,note_on,,95.0,64.0,95.0,343680,358.0
1690,3.0,,,,,,,,0.0,,,80,pitchwheel,,,,,343760,358.0833333333333
1691,3.0,,,,,,,,256.0,,,80,pitchwheel,,,,,343840,358.1666666666667
1692,3.0,,,,,,,,0.0,,,80,pitchwheel,,,,,343920,358.25
1693,3.0,,,,,,,,256.0,,,80,pitchwheel,,,,,344000,358.3333333333333
1694,3.0,,,,,,,,0.0,,,80,pitchwheel,,,,,344080,358.4166666666667
1695,3.0,,,,,,,,256.0,,,80,pitchwheel,,,,,344160,358.5
1696,3.0,,,,,,,,0.0,,,80,pitchwheel,,,,,344240,358.5833333333333
1697,3.0,,,,,,,,256.0,,,80,pitchwheel,,,,,344320,358.6666666666667
1698,3.0,,,,,,64.0,,,,,80,note_off,,80.0,64.0,80.0,344400,358.75
1699,3.0,,,,,,,,0.0,,,0,pitchwheel,,,,,344400,358.75
1700,3.0,,,,,,,,0.0,,,0,pitchwheel,,,,,344400,358.75
1701,3.0,,,,,,64.0,,,,,0,note_on,,95.0,64.0,95.0,344400,358.75
1702,3.0,,,,,,,,0.0,,,80,pitchwheel,,,,,344480,358.8333333333333
1703,3.0,,,,,,,,256.0,,,80,pitchwheel,,,,,344560,358.9166666666667
1704,3.0,,,,,,64.0,,,,,80,note_off,,80.0,64.0,80.0,344640,359.0
1705,3.0,,,,,,,,0.0,,,0,pitchwheel,,,,,344640,359.0
1706,3.0,,,,,,,,0.0,,,0,pitchwheel,,,,,344640,359.0
1707,3.0,,,,,,64.0,,,,,0,note_on,,95.0,64.0,95.0,344640,359.0
1708,3.0,,,,,,,,0.0,,,80,pitchwheel,,,,,344720,359.0833333333333
1709,3.0,,,,,,,,256.0,,,80,pitchwheel,,,,,344800,359.1666666666667
1710,3.0,,,,,,,,0.0,,,80,pitchwheel,,,,,344880,359.25
1711,3.0,,,,,,,,256.0,,,80,pitchwheel,,,,,344960,359.3333333333333
1712,3.0,,,,,,64.0,,,,,40,note_off,,80.0,64.0,80.0,345000,359.375
1713,3.0,,,,,,,,0.0,,,0,pitchwheel,,,,,345000,359.375
1714,3.0,,,,,,64.0,,,,,0,note_on,,95.0,64.0,95.0,345000,359.375
1715,3.0,,,,,,,,0.0,,,80,pitchwheel,,,,,345080,359.4583333333333
1716,3.0,,,,,,,,256.0,,,80,pitchwheel,,,,,345160,359.5416666666667
1717,3.0,,,,,,,,0.0,,,80,pitchwheel,,,,,345240,359.625
1718,3.0,,,,,,,,256.0,,,80,pitchwheel,,,,,345320,359.7083333333333
1719,3.0,,,,,,64.0,,,,,40,note_off,,80.0,64.0,80.0,345360,359.75
1720,3.0,,,,,,,,0.0,,,0,pitchwheel,,,,,345360,359.75
1721,3.0,,,,,,64.0,,,,,0,note_on,,95.0,64.0,95.0,345360,359.75
1722,3.0,,,,,,,,0.0,,,80,pitchwheel,,,,,345440,359.8333333333333
1723,3.0,,,,,,,,640.0,,,40,pitchwheel,,,,,345480,359.875
1724,3.0,,,,,,,,256.0,,,40,pitchwheel,,,,,345520,359.9166666666667
1725,3.0,,,,,,,,1408.0,,,20,pitchwheel,,,,,345540,359.9375
1726,3.0,,,,,,64.0,,,,,60,note_off,,80.0,64.0,80.0,345600,360.0
1727,3.0,,,,,,,,0.0,,,0,pitchwheel,,,,,345600,360.0
1728,3.0,,,,,,,,0.0,,,0,pitchwheel,,,,,345600,360.0
1729,3.0,,,,,,,,0.0,,,0,pitchwheel,,,,,345600,360.0
1730,3.0,,,,,,67.0,,,,,0,note_on,,86.0,67.0,86.0,345600,360.0
1731,3.0,,,,,,,,0.0,,,0,pitchwheel,,,,,345600,360.0
1732,3.0,,,,,,,,128.0,,,96,pitchwheel,,,,,345696,360.1
1733,3.0,,,,,,,,256.0,,,192,pitchwheel,,,,,345888,360.3
1734,3.0,,,,,,,,384.0,,,176,pitchwheel,,,,,346064,360.48333333333335
1735,3.0,,,,,,,,512.0,,,16,pitchwheel,,,,,346080,360.5
1736,3.0,,,,,,,,384.0,,,32,pitchwheel,,,,,346112,360.5333333333333
1737,3.0,,,,,,,,256.0,,,32,pitchwheel,,,,,346144,360.56666666666666
1738,3.0,,,,,,,,384.0,,,32,pitchwheel,,,,,346176,360.6
1739,3.0,,,,,,,,512.0,,,32,pitchwheel,,,,,346208,360.6333333333333
1740,3.0,,,,,,,,384.0,,,32,pitchwheel,,,,,346240,360.6666666666667
1741,3.0,,,,,,,,256.0,,,32,pitchwheel,,,,,346272,360.7
1742,3.0,,,,,,,,384.0,,,32,pitchwheel,,,,,346304,360.73333333333335
1743,3.0,,,,,,,,512.0,,,32,pitchwheel,,,,,346336,360.76666666666665
1744,3.0,,,,,,,,384.0,,,32,pitchwheel,,,,,346368,360.8
1745,3.0,,,,,,,,256.0,,,32,pitchwheel,,,,,346400,360.8333333333333
1746,3.0,,,,,,,,384.0,,,32,pitchwheel,,,,,346432,360.8666666666667
1747,3.0,,,,,,,,512.0,,,32,pitchwheel,,,,,346464,360.9
1748,3.0,,,,,,,,384.0,,,32,pitchwheel,,,,,346496,360.93333333333334
1749,3.0,,,,,,,,256.0,,,32,pitchwheel,,,,,346528,360.96666666666664
1750,3.0,,,,,,67.0,,,,,32,note_off,,80.0,67.0,80.0,346560,361.0
1751,3.0,,,,,,,,384.0,,,0,pitchwheel,,,,,346560,361.0
1752,3.0,,,,,,,,0.0,,,0,pitchwheel,,,,,346560,361.0
1753,3.0,,,,,,66.0,,,,,0,note_on,,95.0,66.0,95.0,346560,361.0
1754,3.0,,,,,,,,0.0,,,80,pitchwheel,,,,,346640,361.0833333333333
1755,3.0,,,,,,,,256.0,,,80,pitchwheel,,,,,346720,361.1666666666667
1756,3.0,,,,,,,,0.0,,,80,pitchwheel,,,,,346800,361.25
1757,3.0,,,,,,,,256.0,,,80,pitchwheel,,,,,346880,361.3333333333333
1758,3.0,,,,,,,,0.0,,,80,pitchwheel,,,,,346960,361.4166666666667
1759,3.0,,,,,,,,256.0,,,80,pitchwheel,,,,,347040,361.5
1760,3.0,,,,,,,,0.0,,,80,pitchwheel,,,,,347120,361.5833333333333
1761,3.0,,,,,,,,256.0,,,80,pitchwheel,,,,,347200,361.6666666666667
1762,3.0,,,,,,,,0.0,,,80,pitchwheel,,,,,347280,361.75
1763,3.0,,,,,,,,256.0,,,80,pitchwheel,,,,,347360,361.8333333333333
1764,3.0,,,,,,,,0.0,,,80,pitchwheel,,,,,347440,361.9166666666667
1765,3.0,,,,,,66.0,,,,,80,note_off,,80.0,66.0,80.0,347520,362.0
1766,3.0,,,,,,,,256.0,,,0,pitchwheel,,,,,347520,362.0
1767,3.0,,,,,,,,0.0,,,0,pitchwheel,,,,,347520,362.0
1768,3.0,,,,,,64.0,,,,,0,note_on,,95.0,64.0,95.0,347520,362.0
1769,3.0,,,,,,,,0.0,,,80,pitchwheel,,,,,347600,362.0833333333333
1770,3.0,,,,,,,,256.0,,,80,pitchwheel,,,,,347680,362.1666666666667
1771,3.0,,,,,,,,0.0,,,80,pitchwheel,,,,,347760,362.25
1772,3.0,,,,,,,,256.0,,,80,pitchwheel,,,,,347840,362.3333333333333
1773,3.0,,,,,,,,0.0,,,80,pitchwheel,,,,,347920,362.4166666666667
1774,3.0,,,,,,,,256.0,,,80,pitchwheel,,,,,348000,362.5
1775,3.0,,,,,,,,0.0,,,80,pitchwheel,,,,,348080,362.5833333333333
1776,3.0,,,,,,,,256.0,,,80,pitchwheel,,,,,348160,362.6666666666667
1777,3.0,,,,,,64.0,,,,,80,note_off,,80.0,64.0,80.0,348240,362.75
1778,3.0,,,,,,,,0.0,,,0,pitchwheel,,,,,348240,362.75
1779,3.0,,,,,,,,0.0,,,0,pitchwheel,,,,,348240,362.75
1780,3.0,,,,,,64.0,,,,,0,note_on,,95.0,64.0,95.0,348240,362.75
1781,3.0,,,,,,,,0.0,,,80,pitchwheel,,,,,348320,362.8333333333333
1782,3.0,,,,,,,,256.0,,,80,pitchwheel,,,,,348400,362.9166666666667
1783,3.0,,,,,,64.0,,,,,80,note_off,,80.0,64.0,80.0,348480,363.0
1784,3.0,,,,,,,,0.0,,,0,pitchwheel,,,,,348480,363.0
1785,3.0,,,,,,,,0.0,,,0,pitchwheel,,,,,348480,363.0
1786,3.0,,,,,,67.0,,,,,0,note_on,,95.0,67.0,95.0,348480,363.0
1787,3.0,,,,,,,,0.0,,,80,pitchwheel,,,,,348560,363.0833333333333
1788,3.0,,,,,,,,256.0,,,80,pitchwheel,,,,,348640,363.1666666666667
1789,3.0,,,,,,,,0.0,,,80,pitchwheel,,,,,348720,363.25
1790,3.0,,,,,,,,256.0,,,80,pitchwheel,,,,,348800,363.3333333333333
1791,3.0,,,,,,67.0,,,,,40,note_off,,80.0,67.0,80.0,348840,363.375
1792,3.0,,,,,,,,0.0,,,0,pitchwheel,,,,,348840,363.375
1793,3.0,,,,,,69.0,,,,,0,note_on,,95.0,69.0,95.0,348840,363.375
1794,3.0,,,,,,,,0.0,,,80,pitchwheel,,,,,348920,363.4583333333333
1795,3.0,,,,,,,,256.0,,,80,pitchwheel,,,,,349000,363.5416666666667
1796,3.0,,,,,,,,0.0,,,80,pitchwheel,,,,,349080,363.625
1797,3.0,,,,,,,,256.0,,,80,pitchwheel,,,,,349160,363.7083333333333
1798,3.0,,,,,,69.0,,,,,40,note_off,,80.0,69.0,80.0,349200,363.75
1799,3.0,,,,,,,,0.0,,,0,pitchwheel,,,,,349200,363.75
1800,3.0,,,,,,67.0,,,,,0,note_on,,95.0,67.0,95.0,349200,363.75
1801,3.0,,,,,,,,0.0,,,80,pitchwheel,,,,,349280,363.8333333333333
1802,3.0,,,,,,,,256.0,,,80,pitchwheel,,,,,349360,363.9166666666667
1803,3.0,,,,,,67.0,,,,,80,note_off,,80.0,67.0,80.0,349440,364.0
1804,3.0,,,,,,,,0.0,,,0,pitchwheel,,,,,349440,364.0
1805,3.0,,,,,,,,0.0,,,0,pitchwheel,,,,,349440,364.0
1806,3.0,,,,,,67.0,,,,,0,note_on,,95.0,67.0,95.0,349440,364.0
1807,3.0,,,,,,,,0.0,,,80,pitchwheel,,,,,349520,364.0833333333333
1808,3.0,,,,,,67.0,,,,,40,note_off,,80.0,67.0,80.0,349560,364.125
1809,3.0,,,,,,,,0.0,,,0,pitchwheel,,,,,349560,364.125
1810,3.0,,,,,,67.0,,,,,120,note_on,,95.0,67.0,95.0,349680,364.25
1811,3.0,,,,,,,,640.0,,,60,pitchwheel,,,,,349740,364.3125
1812,3.0,,,,,,,,0.0,,,20,pitchwheel,,,,,349760,364.3333333333333
1813,3.0,,,,,,67.0,,,,,40,note_off,,80.0,67.0,80.0,349800,364.375
1814,3.0,,,,,,,,0.0,,,0,pitchwheel,,,,,349800,364.375
1815,3.0,,,,,,,,0.0,,,0,pitchwheel,,,,,349800,364.375
1816,3.0,,,,,,69.0,,,,,0,note_on,,86.0,69.0,86.0,349800,364.375
1817,3.0,,,,,,,,0.0,,,80,pitchwheel,,,,,349880,364.4583333333333
1818,3.0,,,,,,,,256.0,,,80,pitchwheel,,,,,349960,364.5416666666667
1819,3.0,,,,,,69.0,,,,,80,note_off,,80.0,69.0,80.0,350040,364.625
1820,3.0,,,,,,,,0.0,,,0,pitchwheel,,,,,350040,364.625
1821,3.0,,,,,,,,0.0,,,0,pitchwheel,,,,,350040,364.625
1822,3.0,,,,,,67.0,,,,,120,note_on,,95.0,67.0,95.0,350160,364.75
1823,3.0,,,,,,,,0.0,,,80,pitchwheel,,,,,350240,364.8333333333333
1824,3.0,,,,,,67.0,,,,,40,note_off,,80.0,67.0,80.0,350280,364.875
1825,3.0,,,,,,,,0.0,,,0,pitchwheel,,,,,350280,364.875
1826,3.0,,,,,,66.0,,,,,120,note_on,,95.0,66.0,95.0,350400,365.0
1827,3.0,,,,,,,,0.0,,,80,pitchwheel,,,,,350480,365.0833333333333
1828,3.0,,,,,,,,256.0,,,80,pitchwheel,,,,,350560,365.1666666666667
1829,3.0,,,,,,,,0.0,,,80,pitchwheel,,,,,350640,365.25
1830,3.0,,,,,,,,256.0,,,80,pitchwheel,,,,,350720,365.3333333333333
1831,3.0,,,,,,,,0.0,,,80,pitchwheel,,,,,350800,365.4166666666667
1832,3.0,,,,,,,,256.0,,,80,pitchwheel,,,,,350880,365.5
1833,3.0,,,,,,,,0.0,,,80,pitchwheel,,,,,350960,365.5833333333333
1834,3.0,,,,,,,,256.0,,,80,pitchwheel,,,,,351040,365.6666666666667
1835,3.0,,,,,,,,0.0,,,80,pitchwheel,,,,,351120,365.75
1836,3.0,,,,,,,,256.0,,,80,pitchwheel,,,,,351200,365.8333333333333
1837,3.0,,,,,,,,0.0,,,80,pitchwheel,,,,,351280,365.9166666666667
1838,2.0,,,,,,75.0,,,,,50,note_on,,95.0,75.0,95.0,351330,365.96875
1839,2.0,,,,,,75.0,,,,,29,note_off,,80.0,75.0,80.0,351359,365.99895833333335
1840,3.0,,,,,,66.0,,,,,1,note_off,,80.0,66.0,80.0,351360,366.0
1841,3.0,,,,,,,,256.0,,,0,pitchwheel,,,,,351360,366.0
1842,3.0,,,,,,,,0.0,,,0,pitchwheel,,,,,351360,366.0
1843,3.0,,,,,,76.0,,,,,0,note_on,,95.0,76.0,95.0,351360,366.0
1844,3.0,,,,,,,,0.0,,,80,pitchwheel,,,,,351440,366.0833333333333
1845,3.0,,,,,,,,256.0,,,80,pitchwheel,,,,,351520,366.1666666666667
1846,3.0,,,,,,,,0.0,,,80,pitchwheel,,,,,351600,366.25
1847,3.0,,,,,,,,256.0,,,80,pitchwheel,,,,,351680,366.3333333333333
1848,3.0,,,,,,,,0.0,,,80,pitchwheel,,,,,351760,366.4166666666667
1849,3.0,,,,,,,,256.0,,,80,pitchwheel,,,,,351840,366.5
1850,3.0,,,,,,,,0.0,,,80,pitchwheel,,,,,351920,366.5833333333333
1851,3.0,,,,,,,,256.0,,,80,pitchwheel,,,,,352000,366.6666666666667
1852,3.0,,,,,,76.0,,,,,80,note_off,,80.0,76.0,80.0,352080,366.75
1853,3.0,,,,,,,,0.0,,,0,pitchwheel,,,,,352080,366.75
1854,3.0,,,,,,,,0.0,,,0,pitchwheel,,,,,352080,366.75
1855,3.0,,,,,,76.0,,,,,0,note_on,,95.0,76.0,95.0,352080,366.75
1856,3.0,,,,,,,,0.0,,,80,pitchwheel,,,,,352160,366.8333333333333
1857,3.0,,,,,,,,256.0,,,80,pitchwheel,,,,,352240,366.9166666666667
1858,2.0,,,,,,76.0,,,,,50,note_on,,95.0,76.0,95.0,352290,366.96875
1859,2.0,,,,,,76.0,,,,,29,note_off,,80.0,76.0,80.0,352319,366.99895833333335
1860,3.0,,,,,,76.0,,,,,1,note_off,,80.0,76.0,80.0,352320,367.0
1861,3.0,,,,,,,,0.0,,,0,pitchwheel,,,,,352320,367.0
1862,3.0,,,,,,,,0.0,,,0,pitchwheel,,,,,352320,367.0
1863,3.0,,,,,,79.0,,,,,0,note_on,,95.0,79.0,95.0,352320,367.0
1864,3.0,,,,,,,,0.0,,,80,pitchwheel,,,,,352400,367.0833333333333
1865,3.0,,,,,,,,256.0,,,80,pitchwheel,,,,,352480,367.1666666666667
1866,3.0,,,,,,,,0.0,,,80,pitchwheel,,,,,352560,367.25
1867,3.0,,,,,,,,256.0,,,80,pitchwheel,,,,,352640,367.3333333333333
1868,3.0,,,,,,79.0,,,,,40,note_off,,80.0,79.0,80.0,352680,367.375
1869,3.0,,,,,,,,0.0,,,0,pitchwheel,,,,,352680,367.375
1870,3.0,,,,,,76.0,,,,,0,note_on,,95.0,76.0,95.0,352680,367.375
1871,3.0,,,,,,,,0.0,,,80,pitchwheel,,,,,352760,367.4583333333333
1872,3.0,,,,,,,,256.0,,,80,pitchwheel,,,,,352840,367.5416666666667
1873,3.0,,,,,,,,0.0,,,80,pitchwheel,,,,,352920,367.625
1874,3.0,,,,,,,,256.0,,,80,pitchwheel,,,,,353000,367.7083333333333
1875,3.0,,,,,,76.0,,,,,40,note_off,,80.0,76.0,80.0,353040,367.75
1876,3.0,,,,,,,,0.0,,,0,pitchwheel,,,,,353040,367.75
1877,3.0,,,,,,76.0,,,,,0,note_on,,95.0,76.0,95.0,353040,367.75
1878,3.0,,,,,,,,0.0,,,80,pitchwheel,,,,,353120,367.8333333333333
1879,3.0,,,,,,,,256.0,,,80,pitchwheel,,,,,353200,367.9166666666667
1880,3.0,,,,,,76.0,,,,,80,note_off,,80.0,76.0,80.0,353280,368.0
1881,3.0,,,,,,,,0.0,,,0,pitchwheel,,,,,353280,368.0
1882,3.0,,,,,,,,0.0,,,0,pitchwheel,,,,,353280,368.0
1883,3.0,,,,,,79.0,,,,,0,note_on,,95.0,79.0,95.0,353280,368.0
1884,3.0,,,,,,,,0.0,,,0,pitchwheel,,,,,353280,368.0
1885,3.0,,,,,,,,128.0,,,96,pitchwheel,,,,,353376,368.1
1886,3.0,,,,,,,,256.0,,,192,pitchwheel,,,,,353568,368.3
1887,3.0,,,,,,,,384.0,,,176,pitchwheel,,,,,353744,368.48333333333335
1888,3.0,,,,,,,,512.0,,,16,pitchwheel,,,,,353760,368.5
1889,3.0,,,,,,,,384.0,,,32,pitchwheel,,,,,353792,368.5333333333333
1890,3.0,,,,,,,,256.0,,,32,pitchwheel,,,,,353824,368.56666666666666
1891,3.0,,,,,,,,384.0,,,32,pitchwheel,,,,,353856,368.6
1892,3.0,,,,,,,,512.0,,,32,pitchwheel,,,,,353888,368.6333333333333
1893,3.0,,,,,,,,384.0,,,32,pitchwheel,,,,,353920,368.6666666666667
1894,3.0,,,,,,,,256.0,,,32,pitchwheel,,,,,353952,368.7
1895,3.0,,,,,,,,384.0,,,32,pitchwheel,,,,,353984,368.73333333333335
1896,3.0,,,,,,,,512.0,,,32,pitchwheel,,,,,354016,368.76666666666665
1897,3.0,,,,,,,,384.0,,,32,pitchwheel,,,,,354048,368.8
1898,3.0,,,,,,,,256.0,,,32,pitchwheel,,,,,354080,368.8333333333333
1899,3.0,,,,,,,,384.0,,,32,pitchwheel,,,,,354112,368.8666666666667
1900,3.0,,,,,,,,512.0,,,32,pitchwheel,,,,,354144,368.9
1901,3.0,,,,,,,,384.0,,,32,pitchwheel,,,,,354176,368.93333333333334
1902,3.0,,,,,,,,256.0,,,32,pitchwheel,,,,,354208,368.96666666666664
1903,3.0,,,,,,79.0,,,,,32,note_off,,80.0,79.0,80.0,354240,369.0
1904,3.0,,,,,,,,384.0,,,0,pitchwheel,,,,,354240,369.0
1905,3.0,,,,,,,,0.0,,,0,pitchwheel,,,,,354240,369.0
1906,3.0,,,,,,78.0,,,,,0,note_on,,95.0,78.0,95.0,354240,369.0
1907,3.0,,,,,,,,0.0,,,80,pitchwheel,,,,,354320,369.0833333333333
1908,3.0,,,,,,,,256.0,,,80,pitchwheel,,,,,354400,369.1666666666667
1909,3.0,,,,,,,,0.0,,,80,pitchwheel,,,,,354480,369.25
1910,3.0,,,,,,,,256.0,,,80,pitchwheel,,,,,354560,369.3333333333333
1911,3.0,,,,,,,,0.0,,,80,pitchwheel,,,,,354640,369.4166666666667
1912,3.0,,,,,,,,256.0,,,80,pitchwheel,,,,,354720,369.5
1913,3.0,,,,,,,,0.0,,,80,pitchwheel,,,,,354800,369.5833333333333
1914,3.0,,,,,,,,256.0,,,80,pitchwheel,,,,,354880,369.6666666666667
1915,3.0,,,,,,,,0.0,,,80,pitchwheel,,,,,354960,369.75
1916,3.0,,,,,,,,256.0,,,80,pitchwheel,,,,,355040,369.8333333333333
1917,3.0,,,,,,,,0.0,,,80,pitchwheel,,,,,355120,369.9166666666667
1918,2.0,,,,,,75.0,,,,,50,note_on,,95.0,75.0,95.0,355170,369.96875
1919,2.0,,,,,,75.0,,,,,29,note_off,,80.0,75.0,80.0,355199,369.99895833333335
1920,3.0,,,,,,78.0,,,,,1,note_off,,80.0,78.0,80.0,355200,370.0
1921,3.0,,,,,,,,256.0,,,0,pitchwheel,,,,,355200,370.0
1922,3.0,,,,,,,,0.0,,,0,pitchwheel,,,,,355200,370.0
1923,3.0,,,,,,76.0,,,,,0,note_on,,95.0,76.0,95.0,355200,370.0
1924,3.0,,,,,,76.0,,,,,11,note_off,,80.0,76.0,80.0,355211,370.01145833333334
1925,3.0,,,,,,,,0.0,,,0,pitchwheel,,,,,355211,370.01145833333334
1926,3.0,,,,,,76.0,,,,,709,note_on,,95.0,76.0,95.0,355920,370.75
1927,3.0,,,,,,,,0.0,,,80,pitchwheel,,,,,356000,370.8333333333333
1928,3.0,,,,,,,,256.0,,,80,pitchwheel,,,,,356080,370.9166666666667
1929,3.0,,,,,,76.0,,,,,80,note_off,,80.0,76.0,80.0,356160,371.0
1930,3.0,,,,,,,,0.0,,,0,pitchwheel,,,,,356160,371.0
1931,3.0,,,,,,,,0.0,,,0,pitchwheel,,,,,356160,371.0
1932,3.0,,,,,,79.0,,,,,0,note_on,,95.0,79.0,95.0,356160,371.0
1933,3.0,,,,,,,,0.0,,,80,pitchwheel,,,,,356240,371.0833333333333
1934,3.0,,,,,,,,256.0,,,80,pitchwheel,,,,,356320,371.1666666666667
1935,3.0,,,,,,,,0.0,,,80,pitchwheel,,,,,356400,371.25
1936,3.0,,,,,,,,256.0,,,80,pitchwheel,,,,,356480,371.3333333333333
1937,3.0,,,,,,79.0,,,,,40,note_off,,80.0,79.0,80.0,356520,371.375
1938,3.0,,,,,,,,0.0,,,0,pitchwheel,,,,,356520,371.375
1939,3.0,,,,,,81.0,,,,,0,note_on,,95.0,81.0,95.0,356520,371.375
1940,3.0,,,,,,,,0.0,,,80,pitchwheel,,,,,356600,371.4583333333333
1941,3.0,,,,,,,,256.0,,,80,pitchwheel,,,,,356680,371.5416666666667
1942,3.0,,,,,,,,0.0,,,80,pitchwheel,,,,,356760,371.625
1943,3.0,,,,,,,,256.0,,,80,pitchwheel,,,,,356840,371.7083333333333
1944,3.0,,,,,,81.0,,,,,40,note_off,,80.0,81.0,80.0,356880,371.75
1945,3.0,,,,,,,,0.0,,,0,pitchwheel,,,,,356880,371.75
1946,3.0,,,,,,79.0,,,,,0,note_on,,95.0,79.0,95.0,356880,371.75
1947,3.0,,,,,,,,0.0,,,80,pitchwheel,,,,,356960,371.8333333333333
1948,3.0,,,,,,,,256.0,,,80,pitchwheel,,,,,357040,371.9166666666667
1949,3.0,,,,,,79.0,,,,,80,note_off,,80.0,79.0,80.0,357120,372.0
1950,3.0,,,,,,,,0.0,,,0,pitchwheel,,,,,357120,372.0
1951,3.0,,,,,,,,0.0,,,0,pitchwheel,,,,,357120,372.0
1952,3.0,,,,,,79.0,,,,,0,note_on,,95.0,79.0,95.0,357120,372.0
1953,3.0,,,,,,,,0.0,,,80,pitchwheel,,,,,357200,372.0833333333333
1954,3.0,,,,,,,,256.0,,,80,pitchwheel,,,,,357280,372.1666666666667
1955,3.0,,,,,,79.0,,,,,20,note_off,,80.0,79.0,80.0,357300,372.1875
1956,3.0,,,,,,,,0.0,,,0,pitchwheel,,,,,357300,372.1875
1957,3.0,,,,,,79.0,,,,,60,note_on,,95.0,79.0,95.0,357360,372.25
1958,3.0,,,,,,,,640.0,,,60,pitchwheel,,,,,357420,372.3125
1959,3.0,,,,,,,,0.0,,,20,pitchwheel,,,,,357440,372.3333333333333
1960,3.0,,,,,,79.0,,,,,40,note_off,,80.0,79.0,80.0,357480,372.375
1961,3.0,,,,,,,,0.0,,,0,pitchwheel,,,,,357480,372.375
1962,3.0,,,,,,,,0.0,,,0,pitchwheel,,,,,357480,372.375
1963,3.0,,,,,,81.0,,,,,0,note_on,,86.0,81.0,86.0,357480,372.375
1964,3.0,,,,,,,,0.0,,,80,pitchwheel,,,,,357560,372.4583333333333
1965,3.0,,,,,,,,256.0,,,80,pitchwheel,,,,,357640,372.5416666666667
1966,3.0,,,,,,81.0,,,,,80,note_off,,80.0,81.0,80.0,357720,372.625
1967,3.0,,,,,,,,0.0,,,0,pitchwheel,,,,,357720,372.625
1968,3.0,,,,,,,,0.0,,,0,pitchwheel,,,,,357720,372.625
1969,3.0,,,,,,79.0,,,,,120,note_on,,95.0,79.0,95.0,357840,372.75
1970,3.0,,,,,,,,0.0,,,80,pitchwheel,,,,,357920,372.8333333333333
1971,3.0,,,,,,79.0,,,,,40,note_off,,80.0,79.0,80.0,357960,372.875
1972,3.0,,,,,,,,0.0,,,0,pitchwheel,,,,,357960,372.875
1973,3.0,,,,,,78.0,,,,,120,note_on,,95.0,78.0,95.0,358080,373.0
1974,3.0,,,,,,,,0.0,,,80,pitchwheel,,,,,358160,373.0833333333333
1975,3.0,,,,,,,,256.0,,,80,pitchwheel,,,,,358240,373.1666666666667
1976,3.0,,,,,,,,0.0,,,80,pitchwheel,,,,,358320,373.25
1977,3.0,,,,,,,,256.0,,,80,pitchwheel,,,,,358400,373.3333333333333
1978,3.0,,,,,,,,0.0,,,80,pitchwheel,,,,,358480,373.4166666666667
1979,3.0,,,,,,,,256.0,,,80,pitchwheel,,,,,358560,373.5
1980,3.0,,,,,,,,0.0,,,80,pitchwheel,,,,,358640,373.5833333333333
1981,3.0,,,,,,,,256.0,,,80,pitchwheel,,,,,358720,373.6666666666667
1982,3.0,,,,,,,,0.0,,,80,pitchwheel,,,,,358800,373.75
1983,3.0,,,,,,,,256.0,,,80,pitchwheel,,,,,358880,373.8333333333333
1984,3.0,,,,,,,,0.0,,,80,pitchwheel,,,,,358960,373.9166666666667
1985,2.0,,,,,,75.0,,,,,50,note_on,,95.0,75.0,95.0,359010,373.96875
1986,2.0,,,,,,75.0,,,,,29,note_off,,80.0,75.0,80.0,359039,373.99895833333335
1987,3.0,,,,,,78.0,,,,,1,note_off,,80.0,78.0,80.0,359040,374.0
1988,3.0,,,,,,,,256.0,,,0,pitchwheel,,,,,359040,374.0
1989,3.0,,,,,,,,0.0,,,0,pitchwheel,,,,,359040,374.0
1990,3.0,,,,,,76.0,,,,,0,note_on,,95.0,76.0,95.0,359040,374.0
1991,3.0,,,,,,,,0.0,,,80,pitchwheel,,,,,359120,374.0833333333333
1992,3.0,,,,,,,,256.0,,,80,pitchwheel,,,,,359200,374.1666666666667
1993,3.0,,,,,,,,0.0,,,80,pitchwheel,,,,,359280,374.25
1994,3.0,,,,,,,,256.0,,,80,pitchwheel,,,,,359360,374.3333333333333
1995,3.0,,,,,,,,0.0,,,80,pitchwheel,,,,,359440,374.4166666666667
1996,3.0,,,,,,,,256.0,,,80,pitchwheel,,,,,359520,374.5
1997,3.0,,,,,,,,0.0,,,80,pitchwheel,,,,,359600,374.5833333333333
1998,3.0,,,,,,,,256.0,,,80,pitchwheel,,,,,359680,374.6666666666667
1999,3.0,,,,,,76.0,,,,,80,note_off,,80.0,76.0,80.0,359760,374.75
2000,3.0,,,,,,,,0.0,,,0,pitchwheel,,,,,359760,374.75
2001,3.0,,,,,,,,0.0,,,0,pitchwheel,,,,,359760,374.75
2002,3.0,,,,,,76.0,,,,,0,note_on,,95.0,76.0,95.0,359760,374.75
2003,3.0,,,,,,,,0.0,,,80,pitchwheel,,,,,359840,374.8333333333333
2004,3.0,,,,,,,,256.0,,,80,pitchwheel,,,,,359920,374.9166666666667
2005,2.0,,,,,,76.0,,,,,50,note_on,,95.0,76.0,95.0,359970,374.96875
2006,2.0,,,,,,76.0,,,,,29,note_off,,80.0,76.0,80.0,359999,374.99895833333335
2007,3.0,,,,,,76.0,,,,,1,note_off,,80.0,76.0,80.0,360000,375.0
2008,3.0,,,,,,,,0.0,,,0,pitchwheel,,,,,360000,375.0
2009,3.0,,,,,,,,0.0,,,0,pitchwheel,,,,,360000,375.0
2010,3.0,,,,,,78.0,,,,,0,note_on,,95.0,78.0,95.0,360000,375.0
2011,3.0,,,,,,,,0.0,,,80,pitchwheel,,,,,360080,375.0833333333333
2012,3.0,,,,,,,,256.0,,,80,pitchwheel,,,,,360160,375.1666666666667
2013,3.0,,,,,,,,0.0,,,80,pitchwheel,,,,,360240,375.25
2014,3.0,,,,,,,,256.0,,,80,pitchwheel,,,,,360320,375.3333333333333
2015,3.0,,,,,,78.0,,,,,40,note_off,,80.0,78.0,80.0,360360,375.375
2016,3.0,,,,,,,,0.0,,,0,pitchwheel,,,,,360360,375.375
2017,3.0,,,,,,76.0,,,,,0,note_on,,95.0,76.0,95.0,360360,375.375
2018,3.0,,,,,,,,0.0,,,80,pitchwheel,,,,,360440,375.4583333333333
2019,3.0,,,,,,,,256.0,,,80,pitchwheel,,,,,360520,375.5416666666667
2020,3.0,,,,,,,,0.0,,,80,pitchwheel,,,,,360600,375.625
2021,3.0,,,,,,,,256.0,,,80,pitchwheel,,,,,360680,375.7083333333333
2022,3.0,,,,,,76.0,,,,,40,note_off,,80.0,76.0,80.0,360720,375.75
2023,3.0,,,,,,,,0.0,,,0,pitchwheel,,,,,360720,375.75
2024,3.0,,,,,,76.0,,,,,0,note_on,,95.0,76.0,95.0,360720,375.75
2025,3.0,,,,,,,,0.0,,,80,pitchwheel,,,,,360800,375.8333333333333
2026,3.0,,,,,,,,256.0,,,80,pitchwheel,,,,,360880,375.9166666666667
2027,3.0,,,,,,76.0,,,,,80,note_off,,80.0,76.0,80.0,360960,376.0
2028,3.0,,,,,,,,0.0,,,0,pitchwheel,,,,,360960,376.0
2029,3.0,,,,,,,,0.0,,,0,pitchwheel,,,,,360960,376.0
2030,3.0,,,,,,79.0,,,,,0,note_on,,95.0,79.0,95.0,360960,376.0
2031,3.0,,,,,,,,0.0,,,0,pitchwheel,,,,,360960,376.0
2032,3.0,,,,,,,,128.0,,,32,pitchwheel,,,,,360992,376.0333333333333
2033,3.0,,,,,,,,256.0,,,48,pitchwheel,,,,,361040,376.0833333333333
2034,3.0,,,,,,,,384.0,,,48,pitchwheel,,,,,361088,376.1333333333333
2035,3.0,,,,,,,,512.0,,,32,pitchwheel,,,,,361120,376.1666666666667
2036,3.0,,,,,,,,640.0,,,48,pitchwheel,,,,,361168,376.21666666666664
2037,3.0,,,,,,,,768.0,,,48,pitchwheel,,,,,361216,376.26666666666665
2038,3.0,,,,,,,,896.0,,,48,pitchwheel,,,,,361264,376.31666666666666
2039,3.0,,,,,,,,1024.0,,,48,pitchwheel,,,,,361312,376.3666666666667
2040,3.0,,,,,,,,1152.0,,,32,pitchwheel,,,,,361344,376.4
2041,3.0,,,,,,,,1280.0,,,48,pitchwheel,,,,,361392,376.45
2042,3.0,,,,,,,,1536.0,,,48,pitchwheel,,,,,361440,376.5
2043,3.0,,,,,,,,1408.0,,,32,pitchwheel,,,,,361472,376.5333333333333
2044,3.0,,,,,,,,1280.0,,,32,pitchwheel,,,,,361504,376.56666666666666
2045,3.0,,,,,,,,1408.0,,,32,pitchwheel,,,,,361536,376.6
2046,3.0,,,,,,,,1536.0,,,32,pitchwheel,,,,,361568,376.6333333333333
2047,3.0,,,,,,,,1408.0,,,32,pitchwheel,,,,,361600,376.6666666666667
2048,3.0,,,,,,,,1280.0,,,32,pitchwheel,,,,,361632,376.7
2049,3.0,,,,,,,,1408.0,,,32,pitchwheel,,,,,361664,376.73333333333335
2050,3.0,,,,,,,,1536.0,,,32,pitchwheel,,,,,361696,376.76666666666665
2051,3.0,,,,,,,,1408.0,,,32,pitchwheel,,,,,361728,376.8
2052,3.0,,,,,,,,1280.0,,,32,pitchwheel,,,,,361760,376.8333333333333
2053,3.0,,,,,,,,1408.0,,,32,pitchwheel,,,,,361792,376.8666666666667
2054,3.0,,,,,,,,1536.0,,,32,pitchwheel,,,,,361824,376.9
2055,3.0,,,,,,,,1408.0,,,32,pitchwheel,,,,,361856,376.93333333333334
2056,3.0,,,,,,,,1280.0,,,32,pitchwheel,,,,,361888,376.96666666666664
2057,3.0,,,,,,79.0,,,,,32,note_off,,80.0,79.0,80.0,361920,377.0
2058,3.0,,,,,,,,1408.0,,,0,pitchwheel,,,,,361920,377.0
2059,3.0,,,,,,,,0.0,,,0,pitchwheel,,,,,361920,377.0
2060,3.0,,,,,,79.0,,,,,0,note_on,,95.0,79.0,95.0,361920,377.0
2061,3.0,,,,,,,,0.0,,,80,pitchwheel,,,,,362000,377.0833333333333
2062,3.0,,,,,,,,256.0,,,80,pitchwheel,,,,,362080,377.1666666666667
2063,3.0,,,,,,,,0.0,,,80,pitchwheel,,,,,362160,377.25
2064,3.0,,,,,,,,256.0,,,80,pitchwheel,,,,,362240,377.3333333333333
2065,3.0,,,,,,,,0.0,,,80,pitchwheel,,,,,362320,377.4166666666667
2066,3.0,,,,,,,,256.0,,,80,pitchwheel,,,,,362400,377.5
2067,3.0,,,,,,,,0.0,,,80,pitchwheel,,,,,362480,377.5833333333333
2068,3.0,,,,,,,,256.0,,,80,pitchwheel,,,,,362560,377.6666666666667
2069,3.0,,,,,,,,0.0,,,80,pitchwheel,,,,,362640,377.75
2070,3.0,,,,,,,,256.0,,,80,pitchwheel,,,,,362720,377.8333333333333
2071,3.0,,,,,,,,0.0,,,80,pitchwheel,,,,,362800,377.9166666666667
2072,2.0,,,,,,75.0,,,,,50,note_on,,95.0,75.0,95.0,362850,377.96875
2073,2.0,,,,,,75.0,,,,,29,note_off,,80.0,75.0,80.0,362879,377.99895833333335
2074,3.0,,,,,,79.0,,,,,1,note_off,,80.0,79.0,80.0,362880,378.0
2075,3.0,,,,,,,,256.0,,,0,pitchwheel,,,,,362880,378.0
2076,3.0,,,,,,,,0.0,,,0,pitchwheel,,,,,362880,378.0
2077,3.0,,,,,,76.0,,,,,0,note_on,,95.0,76.0,95.0,362880,378.0
2078,3.0,,,,,,,,0.0,,,80,pitchwheel,,,,,362960,378.0833333333333
2079,3.0,,,,,,,,256.0,,,80,pitchwheel,,,,,363040,378.1666666666667
2080,3.0,,,,,,,,0.0,,,80,pitchwheel,,,,,363120,378.25
2081,3.0,,,,,,,,256.0,,,80,pitchwheel,,,,,363200,378.3333333333333
2082,3.0,,,,,,,,0.0,,,80,pitchwheel,,,,,363280,378.4166666666667
2083,3.0,,,,,,,,256.0,,,80,pitchwheel,,,,,363360,378.5
2084,3.0,,,,,,,,0.0,,,80,pitchwheel,,,,,363440,378.5833333333333
2085,3.0,,,,,,,,256.0,,,80,pitchwheel,,,,,363520,378.6666666666667
2086,3.0,,,,,,76.0,,,,,80,note_off,,80.0,76.0,80.0,363600,378.75
2087,3.0,,,,,,,,0.0,,,0,pitchwheel,,,,,363600,378.75
2088,3.0,,,,,,,,0.0,,,0,pitchwheel,,,,,363600,378.75
2089,3.0,,,,,,76.0,,,,,0,note_on,,95.0,76.0,95.0,363600,378.75
2090,3.0,,,,,,,,0.0,,,80,pitchwheel,,,,,363680,378.8333333333333
2091,3.0,,,,,,,,256.0,,,80,pitchwheel,,,,,363760,378.9166666666667
2092,2.0,,,,,,76.0,,,,,50,note_on,,95.0,76.0,95.0,363810,378.96875
2093,2.0,,,,,,76.0,,,,,29,note_off,,80.0,76.0,80.0,363839,378.99895833333335
2094,3.0,,,,,,76.0,,,,,1,note_off,,80.0,76.0,80.0,363840,379.0
2095,3.0,,,,,,,,0.0,,,0,pitchwheel,,,,,363840,379.0
2096,3.0,,,,,,,,0.0,,,0,pitchwheel,,,,,363840,379.0
2097,3.0,,,,,,78.0,,,,,0,note_on,,95.0,78.0,95.0,363840,379.0
2098,3.0,,,,,,,,0.0,,,80,pitchwheel,,,,,363920,379.0833333333333
2099,3.0,,,,,,,,256.0,,,80,pitchwheel,,,,,364000,379.1666666666667
2100,3.0,,,,,,,,0.0,,,80,pitchwheel,,,,,364080,379.25
2101,3.0,,,,,,,,256.0,,,80,pitchwheel,,,,,364160,379.3333333333333
2102,3.0,,,,,,78.0,,,,,40,note_off,,80.0,78.0,80.0,364200,379.375
2103,3.0,,,,,,,,0.0,,,0,pitchwheel,,,,,364200,379.375
2104,3.0,,,,,,76.0,,,,,0,note_on,,95.0,76.0,95.0,364200,379.375
2105,3.0,,,,,,,,0.0,,,80,pitchwheel,,,,,364280,379.4583333333333
2106,3.0,,,,,,,,256.0,,,80,pitchwheel,,,,,364360,379.5416666666667
2107,3.0,,,,,,,,0.0,,,80,pitchwheel,,,,,364440,379.625
2108,3.0,,,,,,,,256.0,,,80,pitchwheel,,,,,364520,379.7083333333333
2109,3.0,,,,,,76.0,,,,,40,note_off,,80.0,76.0,80.0,364560,379.75
2110,3.0,,,,,,,,0.0,,,0,pitchwheel,,,,,364560,379.75
2111,3.0,,,,,,76.0,,,,,0,note_on,,95.0,76.0,95.0,364560,379.75
2112,3.0,,,,,,,,0.0,,,80,pitchwheel,,,,,364640,379.8333333333333
2113,3.0,,,,,,,,256.0,,,80,pitchwheel,,,,,364720,379.9166666666667
2114,3.0,,,,,,76.0,,,,,80,note_off,,80.0,76.0,80.0,364800,380.0
2115,3.0,,,,,,,,0.0,,,0,pitchwheel,,,,,364800,380.0
2116,3.0,,,,,,,,0.0,,,0,pitchwheel,,,,,364800,380.0
2117,3.0,,,,,,78.0,,,,,0,note_on,,95.0,78.0,95.0,364800,380.0
2118,3.0,,,,,,,,0.0,,,80,pitchwheel,,,,,364880,380.0833333333333
2119,3.0,,,,,,,,256.0,,,80,pitchwheel,,,,,364960,380.1666666666667
2120,3.0,,,,,,,,0.0,,,80,pitchwheel,,,,,365040,380.25
2121,3.0,,,,,,,,256.0,,,80,pitchwheel,,,,,365120,380.3333333333333
2122,3.0,,,,,,78.0,,,,,40,note_off,,80.0,78.0,80.0,365160,380.375
2123,3.0,,,,,,,,0.0,,,0,pitchwheel,,,,,365160,380.375
2124,3.0,,,,,,76.0,,,,,0,note_on,,95.0,76.0,95.0,365160,380.375
2125,3.0,,,,,,,,0.0,,,80,pitchwheel,,,,,365240,380.4583333333333
2126,3.0,,,,,,,,256.0,,,80,pitchwheel,,,,,365320,380.5416666666667
2127,3.0,,,,,,,,0.0,,,80,pitchwheel,,,,,365400,380.625
2128,3.0,,,,,,,,256.0,,,80,pitchwheel,,,,,365480,380.7083333333333
2129,3.0,,,,,,76.0,,,,,40,note_off,,80.0,76.0,80.0,365520,380.75
2130,3.0,,,,,,,,0.0,,,0,pitchwheel,,,,,365520,380.75
2131,3.0,,,,,,72.0,,,,,0,note_on,,95.0,72.0,95.0,365520,380.75
2132,3.0,,,,,,,,0.0,,,80,pitchwheel,,,,,365600,380.8333333333333
2133,3.0,,,,,,,,256.0,,,80,pitchwheel,,,,,365680,380.9166666666667
2134,3.0,,,,,,72.0,,,,,80,note_off,,80.0,72.0,80.0,365760,381.0
2135,3.0,,,,,,,,0.0,,,0,pitchwheel,,,,,365760,381.0
2136,3.0,,,,,,,,0.0,,,0,pitchwheel,,,,,365760,381.0
2137,3.0,,,,,,71.0,,,,,0,note_on,,95.0,71.0,95.0,365760,381.0
2138,3.0,,,,,,,,0.0,,,80,pitchwheel,,,,,365840,381.0833333333333
2139,3.0,,,,,,,,256.0,,,80,pitchwheel,,,,,365920,381.1666666666667
2140,3.0,,,,,,,,0.0,,,80,pitchwheel,,,,,366000,381.25
2141,3.0,,,,,,,,256.0,,,80,pitchwheel,,,,,366080,381.3333333333333
2142,3.0,,,,,,,,0.0,,,80,pitchwheel,,,,,366160,381.4166666666667
2143,3.0,,,,,,,,256.0,,,80,pitchwheel,,,,,366240,381.5
2144,3.0,,,,,,,,0.0,,,80,pitchwheel,,,,,366320,381.5833333333333
2145,3.0,,,,,,,,256.0,,,80,pitchwheel,,,,,366400,381.6666666666667
2146,3.0,,,,,,,,0.0,,,80,pitchwheel,,,,,366480,381.75
2147,3.0,,,,,,,,256.0,,,80,pitchwheel,,,,,366560,381.8333333333333
2148,3.0,,,,,,,,0.0,,,80,pitchwheel,,,,,366640,381.9166666666667
2149,3.0,,,,,,71.0,,,,,80,note_off,,80.0,71.0,80.0,366720,382.0
2150,3.0,,,,,,,,256.0,,,0,pitchwheel,,,,,366720,382.0
2151,3.0,,,,,,,,0.0,,,0,pitchwheel,,,,,366720,382.0
2152,2.0,,,,,,43.0,,,,,0,note_on,,95.0,43.0,95.0,366720,382.0
2153,2.0,,,,,,43.0,,,,,240,note_off,,80.0,43.0,80.0,366960,382.25
2154,2.0,,,,,,43.0,,,,,0,note_on,,95.0,43.0,95.0,366960,382.25
2155,2.0,,,,,,43.0,,,,,240,note_off,,80.0,43.0,80.0,367200,382.5
2156,2.0,,,,,,43.0,,,,,0,note_on,,95.0,43.0,95.0,367200,382.5
2157,2.0,,,,,,43.0,,,,,240,note_off,,80.0,43.0,80.0,367440,382.75
2158,2.0,,,,,,43.0,,,,,0,note_on,,95.0,43.0,95.0,367440,382.75
2159,2.0,,,,,,43.0,,,,,240,note_off,,80.0,43.0,80.0,367680,383.0
2160,2.0,,,,,,43.0,,,,,0,note_on,,95.0,43.0,95.0,367680,383.0
2161,2.0,,,,,,43.0,,,,,240,note_off,,80.0,43.0,80.0,367920,383.25
2162,2.0,,,,,,43.0,,,,,0,note_on,,95.0,43.0,95.0,367920,383.25
2163,2.0,,,,,,43.0,,,,,240,note_off,,80.0,43.0,80.0,368160,383.5
2164,2.0,,,,,,43.0,,,,,0,note_on,,95.0,43.0,95.0,368160,383.5
2165,2.0,,,,,,43.0,,,,,240,note_off,,80.0,43.0,80.0,368400,383.75
2166,2.0,,,,,,43.0,,,,,0,note_on,,95.0,43.0,95.0,368400,383.75
2167,2.0,,,,,,43.0,,,,,240,note_off,,80.0,43.0,80.0,368640,384.0
2168,2.0,,,,,,45.0,,,,,0,note_on,,95.0,45.0,95.0,368640,384.0
2169,2.0,,,,,,45.0,,,,,240,note_off,,80.0,45.0,80.0,368880,384.25
2170,2.0,,,,,,45.0,,,,,0,note_on,,95.0,45.0,95.0,368880,384.25
2171,2.0,,,,,,45.0,,,,,240,note_off,,80.0,45.0,80.0,369120,384.5
2172,2.0,,,,,,45.0,,,,,0,note_on,,95.0,45.0,95.0,369120,384.5
2173,2.0,,,,,,45.0,,,,,240,note_off,,80.0,45.0,80.0,369360,384.75
2174,2.0,,,,,,45.0,,,,,0,note_on,,95.0,45.0,95.0,369360,384.75
2175,2.0,,,,,,45.0,,,,,240,note_off,,80.0,45.0,80.0,369600,385.0
2176,2.0,,,,,,45.0,,,,,0,note_on,,95.0,45.0,95.0,369600,385.0
2177,2.0,,,,,,45.0,,,,,240,note_off,,80.0,45.0,80.0,369840,385.25
2178,2.0,,,,,,45.0,,,,,0,note_on,,95.0,45.0,95.0,369840,385.25
2179,2.0,,,,,,45.0,,,,,240,note_off,,80.0,45.0,80.0,370080,385.5
2180,2.0,,,,,,45.0,,,,,0,note_on,,95.0,45.0,95.0,370080,385.5
2181,2.0,,,,,,45.0,,,,,240,note_off,,80.0,45.0,80.0,370320,385.75
2182,2.0,,,,,,45.0,,,,,0,note_on,,95.0,45.0,95.0,370320,385.75
2183,2.0,,,,,,45.0,,,,,240,note_off,,80.0,45.0,80.0,370560,386.0
2184,2.0,,,,,,40.0,,,,,0,note_on,,95.0,40.0,95.0,370560,386.0
2185,2.0,,,,,,40.0,,,,,3840,note_off,,80.0,40.0,80.0,374400,390.0
2186,2.0,,,,,,40.0,,,,,0,note_on,,63.0,40.0,63.0,374400,390.0
2187,2.0,,,,,,40.0,,,,,3840,note_off,,80.0,40.0,80.0,378240,394.0
2188,,,,,,,,,,,,0,end_of_track,,,,,378240,394.0
2189,,,,,Guitar w/ Octave Bass,,,,,,,0,track_name,,,,,378240,394.0
2190,4.0,,100.0,,,,,,,,,0,control_change,0.0,,,,378240,394.0
2191,4.0,,101.0,,,,,,,,,0,control_change,0.0,,,,378240,394.0
2192,4.0,,6.0,,,,,,,,,0,control_change,12.0,,,,378240,394.0
2193,4.0,,,,,,,,0.0,,,0,pitchwheel,,,,,378240,394.0
2194,5.0,,100.0,,,,,,,,,0,control_change,0.0,,,,378240,394.0
2195,5.0,,101.0,,,,,,,,,0,control_change,0.0,,,,378240,394.0
2196,5.0,,6.0,,,,,,,,,0,control_change,12.0,,,,378240,394.0
2197,5.0,,,,,,,,0.0,,,0,pitchwheel,,,,,378240,394.0
2198,4.0,,,,,,,,,34.0,,0,program_change,,,,,378240,394.0
2199,5.0,,,,,,,,,34.0,,0,program_change,,,,,378240,394.0
2200,4.0,,7.0,,,,,,,,,0,control_change,120.0,,,,378240,394.0
2201,5.0,,7.0,,,,,,,,,0,control_change,120.0,,,,378240,394.0
2202,4.0,,10.0,,,,,,,,,0,control_change,64.0,,,,378240,394.0
2203,5.0,,10.0,,,,,,,,,0,control_change,64.0,,,,378240,394.0
2204,4.0,,93.0,,,,,,,,,0,control_change,0.0,,,,378240,394.0
2205,5.0,,93.0,,,,,,,,,0,control_change,0.0,,,,378240,394.0
2206,4.0,,91.0,,,,,,,,,0,control_change,0.0,,,,378240,394.0
2207,5.0,,91.0,,,,,,,,,0,control_change,0.0,,,,378240,394.0
2208,4.0,,92.0,,,,,,,,,0,control_change,0.0,,,,378240,394.0
2209,5.0,,92.0,,,,,,,,,0,control_change,0.0,,,,378240,394.0
2210,4.0,,95.0,,,,,,,,,0,control_change,0.0,,,,378240,394.0
2211,5.0,,95.0,,,,,,,,,0,control_change,0.0,,,,378240,394.0
2212,4.0,,,,,,40.0,,,,,0,note_on,,95.0,40.0,95.0,378240,394.0
2213,4.0,,,,,,40.0,,,,,720,note_off,,80.0,40.0,80.0,378960,394.75
2214,4.0,,,,,,40.0,,,,,0,note_on,,95.0,40.0,95.0,378960,394.75
2215,4.0,,,,,,40.0,,,,,120,note_off,,80.0,40.0,80.0,379080,394.875
2216,4.0,,,,,,43.0,,,,,120,note_on,,95.0,43.0,95.0,379200,395.0
2217,4.0,,,,,,43.0,,,,,120,note_off,,80.0,43.0,80.0,379320,395.125
2218,4.0,,,,,,40.0,,,,,240,note_on,,95.0,40.0,95.0,379560,395.375
2219,4.0,,,,,,40.0,,,,,120,note_off,,80.0,40.0,80.0,379680,395.5
2220,4.0,,,,,,38.0,,,,,240,note_on,,95.0,38.0,95.0,379920,395.75
2221,4.0,,,,,,38.0,,,,,240,note_off,,80.0,38.0,80.0,380160,396.0
2222,4.0,,,,,,36.0,,,,,0,note_on,,95.0,36.0,95.0,380160,396.0
2223,4.0,,,,,,36.0,,,,,960,note_off,,80.0,36.0,80.0,381120,397.0
2224,4.0,,,,,,35.0,,,,,0,note_on,,95.0,35.0,95.0,381120,397.0
2225,4.0,,,,,,35.0,,,,,960,note_off,,80.0,35.0,80.0,382080,398.0
2226,4.0,,,,,,40.0,,,,,0,note_on,,95.0,40.0,95.0,382080,398.0
2227,4.0,,,,,,40.0,,,,,720,note_off,,80.0,40.0,80.0,382800,398.75
2228,4.0,,,,,,40.0,,,,,0,note_on,,95.0,40.0,95.0,382800,398.75
2229,4.0,,,,,,40.0,,,,,120,note_off,,80.0,40.0,80.0,382920,398.875
2230,4.0,,,,,,43.0,,,,,120,note_on,,95.0,43.0,95.0,383040,399.0
2231,4.0,,,,,,43.0,,,,,120,note_off,,80.0,43.0,80.0,383160,399.125
2232,4.0,,,,,,40.0,,,,,240,note_on,,95.0,40.0,95.0,383400,399.375
2233,4.0,,,,,,40.0,,,,,120,note_off,,80.0,40.0,80.0,383520,399.5
2234,4.0,,,,,,38.0,,,,,240,note_on,,95.0,38.0,95.0,383760,399.75
2235,4.0,,,,,,38.0,,,,,240,note_off,,80.0,38.0,80.0,384000,400.0
2236,4.0,,,,,,36.0,,,,,0,note_on,,95.0,36.0,95.0,384000,400.0
2237,4.0,,,,,,36.0,,,,,960,note_off,,80.0,36.0,80.0,384960,401.0
2238,4.0,,,,,,35.0,,,,,0,note_on,,95.0,35.0,95.0,384960,401.0
2239,4.0,,,,,,35.0,,,,,960,note_off,,80.0,35.0,80.0,385920,402.0
2240,4.0,,,,,,40.0,,,,,0,note_on,,95.0,40.0,95.0,385920,402.0
2241,4.0,,,,,,40.0,,,,,720,note_off,,80.0,40.0,80.0,386640,402.75
2242,4.0,,,,,,40.0,,,,,0,note_on,,95.0,40.0,95.0,386640,402.75
2243,4.0,,,,,,40.0,,,,,120,note_off,,80.0,40.0,80.0,386760,402.875
2244,4.0,,,,,,43.0,,,,,120,note_on,,95.0,43.0,95.0,386880,403.0
2245,4.0,,,,,,43.0,,,,,120,note_off,,80.0,43.0,80.0,387000,403.125
2246,4.0,,,,,,40.0,,,,,240,note_on,,95.0,40.0,95.0,387240,403.375
2247,4.0,,,,,,40.0,,,,,120,note_off,,80.0,40.0,80.0,387360,403.5
2248,4.0,,,,,,38.0,,,,,240,note_on,,95.0,38.0,95.0,387600,403.75
2249,4.0,,,,,,38.0,,,,,240,note_off,,80.0,38.0,80.0,387840,404.0
2250,4.0,,,,,,36.0,,,,,0,note_on,,95.0,36.0,95.0,387840,404.0
2251,4.0,,,,,,36.0,,,,,960,note_off,,80.0,36.0,80.0,388800,405.0
2252,4.0,,,,,,35.0,,,,,0,note_on,,95.0,35.0,95.0,388800,405.0
2253,4.0,,,,,,35.0,,,,,960,note_off,,80.0,35.0,80.0,389760,406.0
2254,4.0,,,,,,40.0,,,,,0,note_on,,95.0,40.0,95.0,389760,406.0
2255,4.0,,,,,,40.0,,,,,720,note_off,,80.0,40.0,80.0,390480,406.75
2256,4.0,,,,,,40.0,,,,,0,note_on,,95.0,40.0,95.0,390480,406.75
2257,4.0,,,,,,40.0,,,,,120,note_off,,80.0,40.0,80.0,390600,406.875
2258,4.0,,,,,,43.0,,,,,120,note_on,,95.0,43.0,95.0,390720,407.0
2259,4.0,,,,,,43.0,,,,,120,note_off,,80.0,43.0,80.0,390840,407.125
2260,4.0,,,,,,40.0,,,,,240,note_on,,95.0,40.0,95.0,391080,407.375
2261,4.0,,,,,,40.0,,,,,120,note_off,,80.0,40.0,80.0,391200,407.5
2262,4.0,,,,,,38.0,,,,,240,note_on,,95.0,38.0,95.0,391440,407.75
2263,4.0,,,,,,38.0,,,,,240,note_off,,80.0,38.0,80.0,391680,408.0
2264,4.0,,,,,,36.0,,,,,0,note_on,,95.0,36.0,95.0,391680,408.0
2265,4.0,,,,,,36.0,,,,,960,note_off,,80.0,36.0,80.0,392640,409.0
2266,4.0,,,,,,35.0,,,,,0,note_on,,95.0,35.0,95.0,392640,409.0
2267,4.0,,,,,,35.0,,,,,960,note_off,,80.0,35.0,80.0,393600,410.0
2268,4.0,,,,,,40.0,,,,,0,note_on,,95.0,40.0,95.0,393600,410.0
2269,4.0,,,,,,40.0,,,,,720,note_off,,80.0,40.0,80.0,394320,410.75
2270,4.0,,,,,,40.0,,,,,0,note_on,,95.0,40.0,95.0,394320,410.75
2271,4.0,,,,,,40.0,,,,,120,note_off,,80.0,40.0,80.0,394440,410.875
2272,4.0,,,,,,43.0,,,,,120,note_on,,95.0,43.0,95.0,394560,411.0
2273,4.0,,,,,,43.0,,,,,120,note_off,,80.0,43.0,80.0,394680,411.125
2274,4.0,,,,,,40.0,,,,,240,note_on,,95.0,40.0,95.0,394920,411.375
2275,4.0,,,,,,40.0,,,,,120,note_off,,80.0,40.0,80.0,395040,411.5
2276,4.0,,,,,,38.0,,,,,240,note_on,,95.0,38.0,95.0,395280,411.75
2277,4.0,,,,,,38.0,,,,,240,note_off,,80.0,38.0,80.0,395520,412.0
2278,4.0,,,,,,36.0,,,,,0,note_on,,95.0,36.0,95.0,395520,412.0
2279,4.0,,,,,,36.0,,,,,960,note_off,,80.0,36.0,80.0,396480,413.0
2280,4.0,,,,,,35.0,,,,,0,note_on,,95.0,35.0,95.0,396480,413.0
2281,4.0,,,,,,35.0,,,,,960,note_off,,80.0,35.0,80.0,397440,414.0
2282,4.0,,,,,,40.0,,,,,0,note_on,,95.0,40.0,95.0,397440,414.0
2283,4.0,,,,,,40.0,,,,,720,note_off,,80.0,40.0,80.0,398160,414.75
2284,4.0,,,,,,40.0,,,,,0,note_on,,95.0,40.0,95.0,398160,414.75
2285,4.0,,,,,,40.0,,,,,120,note_off,,80.0,40.0,80.0,398280,414.875
2286,4.0,,,,,,43.0,,,,,120,note_on,,95.0,43.0,95.0,398400,415.0
2287,4.0,,,,,,43.0,,,,,120,note_off,,80.0,43.0,80.0,398520,415.125
2288,4.0,,,,,,40.0,,,,,240,note_on,,95.0,40.0,95.0,398760,415.375
2289,4.0,,,,,,40.0,,,,,120,note_off,,80.0,40.0,80.0,398880,415.5
2290,4.0,,,,,,38.0,,,,,240,note_on,,95.0,38.0,95.0,399120,415.75
2291,4.0,,,,,,38.0,,,,,240,note_off,,80.0,38.0,80.0,399360,416.0
2292,4.0,,,,,,36.0,,,,,0,note_on,,95.0,36.0,95.0,399360,416.0
2293,4.0,,,,,,36.0,,,,,960,note_off,,80.0,36.0,80.0,400320,417.0
2294,4.0,,,,,,35.0,,,,,0,note_on,,95.0,35.0,95.0,400320,417.0
2295,4.0,,,,,,35.0,,,,,960,note_off,,80.0,35.0,80.0,401280,418.0
2296,4.0,,,,,,40.0,,,,,0,note_on,,95.0,40.0,95.0,401280,418.0
2297,4.0,,,,,,40.0,,,,,720,note_off,,80.0,40.0,80.0,402000,418.75
2298,4.0,,,,,,40.0,,,,,0,note_on,,95.0,40.0,95.0,402000,418.75
2299,4.0,,,,,,40.0,,,,,120,note_off,,80.0,40.0,80.0,402120,418.875
2300,4.0,,,,,,43.0,,,,,120,note_on,,95.0,43.0,95.0,402240,419.0
2301,4.0,,,,,,43.0,,,,,120,note_off,,80.0,43.0,80.0,402360,419.125
2302,4.0,,,,,,40.0,,,,,240,note_on,,95.0,40.0,95.0,402600,419.375
2303,4.0,,,,,,40.0,,,,,120,note_off,,80.0,40.0,80.0,402720,419.5
2304,4.0,,,,,,38.0,,,,,240,note_on,,95.0,38.0,95.0,402960,419.75
2305,4.0,,,,,,38.0,,,,,240,note_off,,80.0,38.0,80.0,403200,420.0
2306,4.0,,,,,,36.0,,,,,0,note_on,,95.0,36.0,95.0,403200,420.0
2307,4.0,,,,,,36.0,,,,,960,note_off,,80.0,36.0,80.0,404160,421.0
2308,4.0,,,,,,35.0,,,,,0,note_on,,95.0,35.0,95.0,404160,421.0
2309,4.0,,,,,,35.0,,,,,960,note_off,,80.0,35.0,80.0,405120,422.0
2310,4.0,,,,,,40.0,,,,,0,note_on,,95.0,40.0,95.0,405120,422.0
2311,4.0,,,,,,40.0,,,,,720,note_off,,80.0,40.0,80.0,405840,422.75
2312,4.0,,,,,,40.0,,,,,0,note_on,,95.0,40.0,95.0,405840,422.75
2313,4.0,,,,,,40.0,,,,,120,note_off,,80.0,40.0,80.0,405960,422.875
2314,4.0,,,,,,43.0,,,,,120,note_on,,95.0,43.0,95.0,406080,423.0
2315,4.0,,,,,,43.0,,,,,120,note_off,,80.0,43.0,80.0,406200,423.125
2316,4.0,,,,,,40.0,,,,,240,note_on,,95.0,40.0,95.0,406440,423.375
2317,4.0,,,,,,40.0,,,,,120,note_off,,80.0,40.0,80.0,406560,423.5
2318,4.0,,,,,,38.0,,,,,240,note_on,,95.0,38.0,95.0,406800,423.75
2319,4.0,,,,,,38.0,,,,,240,note_off,,80.0,38.0,80.0,407040,424.0
2320,4.0,,,,,,36.0,,,,,0,note_on,,95.0,36.0,95.0,407040,424.0
2321,4.0,,,,,,36.0,,,,,960,note_off,,80.0,36.0,80.0,408000,425.0
2322,4.0,,,,,,35.0,,,,,0,note_on,,95.0,35.0,95.0,408000,425.0
2323,4.0,,,,,,35.0,,,,,960,note_off,,80.0,35.0,80.0,408960,426.0
2324,4.0,,,,,,40.0,,,,,0,note_on,,95.0,40.0,95.0,408960,426.0
2325,4.0,,,,,,40.0,,,,,720,note_off,,80.0,40.0,80.0,409680,426.75
2326,4.0,,,,,,40.0,,,,,0,note_on,,95.0,40.0,95.0,409680,426.75
2327,4.0,,,,,,40.0,,,,,120,note_off,,80.0,40.0,80.0,409800,426.875
2328,4.0,,,,,,43.0,,,,,120,note_on,,95.0,43.0,95.0,409920,427.0
2329,4.0,,,,,,43.0,,,,,120,note_off,,80.0,43.0,80.0,410040,427.125
2330,4.0,,,,,,40.0,,,,,240,note_on,,95.0,40.0,95.0,410280,427.375
2331,4.0,,,,,,40.0,,,,,120,note_off,,80.0,40.0,80.0,410400,427.5
2332,4.0,,,,,,38.0,,,,,240,note_on,,95.0,38.0,95.0,410640,427.75
2333,4.0,,,,,,38.0,,,,,240,note_off,,80.0,38.0,80.0,410880,428.0
2334,4.0,,,,,,36.0,,,,,0,note_on,,95.0,36.0,95.0,410880,428.0
2335,4.0,,,,,,36.0,,,,,960,note_off,,80.0,36.0,80.0,411840,429.0
2336,4.0,,,,,,35.0,,,,,0,note_on,,95.0,35.0,95.0,411840,429.0
2337,4.0,,,,,,35.0,,,,,960,note_off,,80.0,35.0,80.0,412800,430.0
2338,4.0,,,,,,40.0,,,,,0,note_on,,95.0,40.0,95.0,412800,430.0
2339,4.0,,,,,,40.0,,,,,720,note_off,,80.0,40.0,80.0,413520,430.75
2340,4.0,,,,,,40.0,,,,,0,note_on,,95.0,40.0,95.0,413520,430.75
2341,4.0,,,,,,40.0,,,,,120,note_off,,80.0,40.0,80.0,413640,430.875
2342,4.0,,,,,,43.0,,,,,120,note_on,,95.0,43.0,95.0,413760,431.0
2343,4.0,,,,,,43.0,,,,,120,note_off,,80.0,43.0,80.0,413880,431.125
2344,4.0,,,,,,40.0,,,,,240,note_on,,95.0,40.0,95.0,414120,431.375
2345,4.0,,,,,,40.0,,,,,120,note_off,,80.0,40.0,80.0,414240,431.5
2346,4.0,,,,,,38.0,,,,,240,note_on,,95.0,38.0,95.0,414480,431.75
2347,4.0,,,,,,38.0,,,,,240,note_off,,80.0,38.0,80.0,414720,432.0
2348,4.0,,,,,,36.0,,,,,0,note_on,,95.0,36.0,95.0,414720,432.0
2349,4.0,,,,,,36.0,,,,,960,note_off,,80.0,36.0,80.0,415680,433.0
2350,4.0,,,,,,35.0,,,,,0,note_on,,95.0,35.0,95.0,415680,433.0
2351,4.0,,,,,,35.0,,,,,960,note_off,,80.0,35.0,80.0,416640,434.0
2352,4.0,,,,,,40.0,,,,,0,note_on,,95.0,40.0,95.0,416640,434.0
2353,4.0,,,,,,40.0,,,,,720,note_off,,80.0,40.0,80.0,417360,434.75
2354,4.0,,,,,,40.0,,,,,0,note_on,,95.0,40.0,95.0,417360,434.75
2355,4.0,,,,,,40.0,,,,,120,note_off,,80.0,40.0,80.0,417480,434.875
2356,4.0,,,,,,43.0,,,,,120,note_on,,95.0,43.0,95.0,417600,435.0
2357,4.0,,,,,,43.0,,,,,120,note_off,,80.0,43.0,80.0,417720,435.125
2358,4.0,,,,,,40.0,,,,,240,note_on,,95.0,40.0,95.0,417960,435.375
2359,4.0,,,,,,40.0,,,,,120,note_off,,80.0,40.0,80.0,418080,435.5
2360,4.0,,,,,,38.0,,,,,240,note_on,,95.0,38.0,95.0,418320,435.75
2361,4.0,,,,,,38.0,,,,,240,note_off,,80.0,38.0,80.0,418560,436.0
2362,4.0,,,,,,36.0,,,,,0,note_on,,95.0,36.0,95.0,418560,436.0
2363,4.0,,,,,,36.0,,,,,960,note_off,,80.0,36.0,80.0,419520,437.0
2364,4.0,,,,,,35.0,,,,,0,note_on,,95.0,35.0,95.0,419520,437.0
2365,4.0,,,,,,35.0,,,,,960,note_off,,80.0,35.0,80.0,420480,438.0
2366,4.0,,,,,,40.0,,,,,0,note_on,,95.0,40.0,95.0,420480,438.0
2367,4.0,,,,,,40.0,,,,,720,note_off,,80.0,40.0,80.0,421200,438.75
2368,4.0,,,,,,40.0,,,,,0,note_on,,95.0,40.0,95.0,421200,438.75
2369,4.0,,,,,,40.0,,,,,120,note_off,,80.0,40.0,80.0,421320,438.875
2370,4.0,,,,,,43.0,,,,,120,note_on,,95.0,43.0,95.0,421440,439.0
2371,4.0,,,,,,43.0,,,,,120,note_off,,80.0,43.0,80.0,421560,439.125
2372,4.0,,,,,,40.0,,,,,240,note_on,,95.0,40.0,95.0,421800,439.375
2373,4.0,,,,,,40.0,,,,,120,note_off,,80.0,40.0,80.0,421920,439.5
2374,4.0,,,,,,38.0,,,,,240,note_on,,95.0,38.0,95.0,422160,439.75
2375,4.0,,,,,,38.0,,,,,240,note_off,,80.0,38.0,80.0,422400,440.0
2376,4.0,,,,,,36.0,,,,,0,note_on,,95.0,36.0,95.0,422400,440.0
2377,4.0,,,,,,36.0,,,,,960,note_off,,80.0,36.0,80.0,423360,441.0
2378,4.0,,,,,,35.0,,,,,0,note_on,,95.0,35.0,95.0,423360,441.0
2379,4.0,,,,,,35.0,,,,,960,note_off,,80.0,35.0,80.0,424320,442.0
2380,4.0,,,,,,31.0,,,,,0,note_on,,95.0,31.0,95.0,424320,442.0
2381,4.0,,,,,,31.0,,,,,240,note_off,,80.0,31.0,80.0,424560,442.25
2382,4.0,,,,,,31.0,,,,,0,note_on,,95.0,31.0,95.0,424560,442.25
2383,4.0,,,,,,31.0,,,,,240,note_off,,80.0,31.0,80.0,424800,442.5
2384,4.0,,,,,,31.0,,,,,0,note_on,,95.0,31.0,95.0,424800,442.5
2385,4.0,,,,,,31.0,,,,,240,note_off,,80.0,31.0,80.0,425040,442.75
2386,4.0,,,,,,31.0,,,,,0,note_on,,95.0,31.0,95.0,425040,442.75
2387,4.0,,,,,,31.0,,,,,240,note_off,,80.0,31.0,80.0,425280,443.0
2388,4.0,,,,,,31.0,,,,,0,note_on,,95.0,31.0,95.0,425280,443.0
2389,4.0,,,,,,31.0,,,,,240,note_off,,80.0,31.0,80.0,425520,443.25
2390,4.0,,,,,,31.0,,,,,0,note_on,,95.0,31.0,95.0,425520,443.25
2391,4.0,,,,,,31.0,,,,,240,note_off,,80.0,31.0,80.0,425760,443.5
2392,4.0,,,,,,31.0,,,,,0,note_on,,95.0,31.0,95.0,425760,443.5
2393,4.0,,,,,,31.0,,,,,240,note_off,,80.0,31.0,80.0,426000,443.75
2394,4.0,,,,,,31.0,,,,,0,note_on,,95.0,31.0,95.0,426000,443.75
2395,4.0,,,,,,31.0,,,,,240,note_off,,80.0,31.0,80.0,426240,444.0
2396,4.0,,,,,,33.0,,,,,0,note_on,,95.0,33.0,95.0,426240,444.0
2397,4.0,,,,,,33.0,,,,,240,note_off,,80.0,33.0,80.0,426480,444.25
2398,4.0,,,,,,33.0,,,,,0,note_on,,95.0,33.0,95.0,426480,444.25
2399,4.0,,,,,,33.0,,,,,240,note_off,,80.0,33.0,80.0,426720,444.5
2400,4.0,,,,,,33.0,,,,,0,note_on,,95.0,33.0,95.0,426720,444.5
2401,4.0,,,,,,33.0,,,,,240,note_off,,80.0,33.0,80.0,426960,444.75
2402,4.0,,,,,,33.0,,,,,0,note_on,,95.0,33.0,95.0,426960,444.75
2403,4.0,,,,,,33.0,,,,,240,note_off,,80.0,33.0,80.0,427200,445.0
2404,4.0,,,,,,33.0,,,,,0,note_on,,95.0,33.0,95.0,427200,445.0
2405,4.0,,,,,,33.0,,,,,240,note_off,,80.0,33.0,80.0,427440,445.25
2406,4.0,,,,,,33.0,,,,,0,note_on,,95.0,33.0,95.0,427440,445.25
2407,4.0,,,,,,33.0,,,,,240,note_off,,80.0,33.0,80.0,427680,445.5
2408,4.0,,,,,,33.0,,,,,0,note_on,,95.0,33.0,95.0,427680,445.5
2409,4.0,,,,,,33.0,,,,,240,note_off,,80.0,33.0,80.0,427920,445.75
2410,4.0,,,,,,33.0,,,,,0,note_on,,95.0,33.0,95.0,427920,445.75
2411,4.0,,,,,,33.0,,,,,240,note_off,,80.0,33.0,80.0,428160,446.0
2412,4.0,,,,,,40.0,,,,,0,note_on,,95.0,40.0,95.0,428160,446.0
2413,4.0,,,,,,40.0,,,,,720,note_off,,80.0,40.0,80.0,428880,446.75
2414,4.0,,,,,,40.0,,,,,0,note_on,,95.0,40.0,95.0,428880,446.75
2415,4.0,,,,,,40.0,,,,,120,note_off,,80.0,40.0,80.0,429000,446.875
2416,4.0,,,,,,43.0,,,,,120,note_on,,95.0,43.0,95.0,429120,447.0
2417,4.0,,,,,,43.0,,,,,120,note_off,,80.0,43.0,80.0,429240,447.125
2418,4.0,,,,,,40.0,,,,,240,note_on,,95.0,40.0,95.0,429480,447.375
2419,4.0,,,,,,40.0,,,,,120,note_off,,80.0,40.0,80.0,429600,447.5
2420,4.0,,,,,,38.0,,,,,240,note_on,,95.0,38.0,95.0,429840,447.75
2421,4.0,,,,,,38.0,,,,,240,note_off,,80.0,38.0,80.0,430080,448.0
2422,4.0,,,,,,36.0,,,,,0,note_on,,95.0,36.0,95.0,430080,448.0
2423,4.0,,,,,,36.0,,,,,960,note_off,,80.0,36.0,80.0,431040,449.0
2424,4.0,,,,,,35.0,,,,,0,note_on,,95.0,35.0,95.0,431040,449.0
2425,4.0,,,,,,35.0,,,,,960,note_off,,80.0,35.0,80.0,432000,450.0
2426,4.0,,,,,,40.0,,,,,0,note_on,,95.0,40.0,95.0,432000,450.0
2427,4.0,,,,,,40.0,,,,,720,note_off,,80.0,40.0,80.0,432720,450.75
2428,4.0,,,,,,40.0,,,,,0,note_on,,95.0,40.0,95.0,432720,450.75
2429,4.0,,,,,,40.0,,,,,120,note_off,,80.0,40.0,80.0,432840,450.875
2430,4.0,,,,,,43.0,,,,,120,note_on,,95.0,43.0,95.0,432960,451.0
2431,4.0,,,,,,43.0,,,,,120,note_off,,80.0,43.0,80.0,433080,451.125
2432,4.0,,,,,,40.0,,,,,240,note_on,,95.0,40.0,95.0,433320,451.375
2433,4.0,,,,,,40.0,,,,,120,note_off,,80.0,40.0,80.0,433440,451.5
2434,4.0,,,,,,38.0,,,,,240,note_on,,95.0,38.0,95.0,433680,451.75
2435,4.0,,,,,,38.0,,,,,240,note_off,,80.0,38.0,80.0,433920,452.0
2436,4.0,,,,,,36.0,,,,,0,note_on,,95.0,36.0,95.0,433920,452.0
2437,4.0,,,,,,36.0,,,,,360,note_off,,80.0,36.0,80.0,434280,452.375
2438,4.0,,,,,,38.0,,,,,0,note_on,,95.0,38.0,95.0,434280,452.375
2439,4.0,,,,,,38.0,,,,,360,note_off,,80.0,38.0,80.0,434640,452.75
2440,4.0,,,,,,36.0,,,,,0,note_on,,95.0,36.0,95.0,434640,452.75
2441,4.0,,,,,,36.0,,,,,240,note_off,,80.0,36.0,80.0,434880,453.0
2442,4.0,,,,,,35.0,,,,,0,note_on,,95.0,35.0,95.0,434880,453.0
2443,4.0,,,,,,35.0,,,,,960,note_off,,80.0,35.0,80.0,435840,454.0
2444,4.0,,,,,,40.0,,,,,0,note_on,,95.0,40.0,95.0,435840,454.0
2445,4.0,,,,,,40.0,,,,,720,note_off,,80.0,40.0,80.0,436560,454.75
2446,4.0,,,,,,40.0,,,,,0,note_on,,95.0,40.0,95.0,436560,454.75
2447,4.0,,,,,,40.0,,,,,120,note_off,,80.0,40.0,80.0,436680,454.875
2448,4.0,,,,,,43.0,,,,,120,note_on,,95.0,43.0,95.0,436800,455.0
2449,4.0,,,,,,43.0,,,,,120,note_off,,80.0,43.0,80.0,436920,455.125
2450,4.0,,,,,,40.0,,,,,240,note_on,,95.0,40.0,95.0,437160,455.375
2451,4.0,,,,,,40.0,,,,,120,note_off,,80.0,40.0,80.0,437280,455.5
2452,4.0,,,,,,38.0,,,,,240,note_on,,95.0,38.0,95.0,437520,455.75
2453,4.0,,,,,,38.0,,,,,240,note_off,,80.0,38.0,80.0,437760,456.0
2454,4.0,,,,,,36.0,,,,,0,note_on,,95.0,36.0,95.0,437760,456.0
2455,4.0,,,,,,36.0,,,,,960,note_off,,80.0,36.0,80.0,438720,457.0
2456,4.0,,,,,,35.0,,,,,0,note_on,,95.0,35.0,95.0,438720,457.0
2457,4.0,,,,,,35.0,,,,,960,note_off,,80.0,35.0,80.0,439680,458.0
2458,4.0,,,,,,40.0,,,,,0,note_on,,95.0,40.0,95.0,439680,458.0
2459,4.0,,,,,,40.0,,,,,720,note_off,,80.0,40.0,80.0,440400,458.75
2460,4.0,,,,,,40.0,,,,,0,note_on,,95.0,40.0,95.0,440400,458.75
2461,4.0,,,,,,40.0,,,,,120,note_off,,80.0,40.0,80.0,440520,458.875
2462,4.0,,,,,,43.0,,,,,120,note_on,,95.0,43.0,95.0,440640,459.0
2463,4.0,,,,,,43.0,,,,,120,note_off,,80.0,43.0,80.0,440760,459.125
2464,4.0,,,,,,40.0,,,,,240,note_on,,95.0,40.0,95.0,441000,459.375
2465,4.0,,,,,,40.0,,,,,120,note_off,,80.0,40.0,80.0,441120,459.5
2466,4.0,,,,,,38.0,,,,,240,note_on,,95.0,38.0,95.0,441360,459.75
2467,4.0,,,,,,38.0,,,,,240,note_off,,80.0,38.0,80.0,441600,460.0
2468,4.0,,,,,,36.0,,,,,0,note_on,,95.0,36.0,95.0,441600,460.0
2469,4.0,,,,,,36.0,,,,,360,note_off,,80.0,36.0,80.0,441960,460.375
2470,4.0,,,,,,38.0,,,,,0,note_on,,95.0,38.0,95.0,441960,460.375
2471,4.0,,,,,,38.0,,,,,360,note_off,,80.0,38.0,80.0,442320,460.75
2472,4.0,,,,,,36.0,,,,,0,note_on,,95.0,36.0,95.0,442320,460.75
2473,4.0,,,,,,36.0,,,,,240,note_off,,80.0,36.0,80.0,442560,461.0
2474,4.0,,,,,,35.0,,,,,0,note_on,,95.0,35.0,95.0,442560,461.0
2475,4.0,,,,,,35.0,,,,,960,note_off,,80.0,35.0,80.0,443520,462.0
2476,4.0,,,,,,31.0,,,,,0,note_on,,95.0,31.0,95.0,443520,462.0
2477,4.0,,,,,,31.0,,,,,240,note_off,,80.0,31.0,80.0,443760,462.25
2478,4.0,,,,,,31.0,,,,,0,note_on,,95.0,31.0,95.0,443760,462.25
2479,4.0,,,,,,31.0,,,,,240,note_off,,80.0,31.0,80.0,444000,462.5
2480,4.0,,,,,,31.0,,,,,0,note_on,,95.0,31.0,95.0,444000,462.5
2481,4.0,,,,,,31.0,,,,,240,note_off,,80.0,31.0,80.0,444240,462.75
2482,4.0,,,,,,31.0,,,,,0,note_on,,95.0,31.0,95.0,444240,462.75
2483,4.0,,,,,,31.0,,,,,240,note_off,,80.0,31.0,80.0,444480,463.0
2484,4.0,,,,,,31.0,,,,,0,note_on,,95.0,31.0,95.0,444480,463.0
2485,4.0,,,,,,31.0,,,,,240,note_off,,80.0,31.0,80.0,444720,463.25
2486,4.0,,,,,,31.0,,,,,0,note_on,,95.0,31.0,95.0,444720,463.25
2487,4.0,,,,,,31.0,,,,,240,note_off,,80.0,31.0,80.0,444960,463.5
2488,4.0,,,,,,31.0,,,,,0,note_on,,95.0,31.0,95.0,444960,463.5
2489,4.0,,,,,,31.0,,,,,240,note_off,,80.0,31.0,80.0,445200,463.75
2490,4.0,,,,,,31.0,,,,,0,note_on,,95.0,31.0,95.0,445200,463.75
2491,4.0,,,,,,31.0,,,,,240,note_off,,80.0,31.0,80.0,445440,464.0
2492,4.0,,,,,,33.0,,,,,0,note_on,,95.0,33.0,95.0,445440,464.0
2493,4.0,,,,,,33.0,,,,,240,note_off,,80.0,33.0,80.0,445680,464.25
2494,4.0,,,,,,33.0,,,,,0,note_on,,95.0,33.0,95.0,445680,464.25
2495,4.0,,,,,,33.0,,,,,240,note_off,,80.0,33.0,80.0,445920,464.5
2496,4.0,,,,,,33.0,,,,,0,note_on,,95.0,33.0,95.0,445920,464.5
2497,4.0,,,,,,33.0,,,,,240,note_off,,80.0,33.0,80.0,446160,464.75
2498,4.0,,,,,,33.0,,,,,0,note_on,,95.0,33.0,95.0,446160,464.75
2499,4.0,,,,,,33.0,,,,,240,note_off,,80.0,33.0,80.0,446400,465.0
2500,4.0,,,,,,33.0,,,,,0,note_on,,95.0,33.0,95.0,446400,465.0
2501,4.0,,,,,,33.0,,,,,240,note_off,,80.0,33.0,80.0,446640,465.25
2502,4.0,,,,,,33.0,,,,,0,note_on,,95.0,33.0,95.0,446640,465.25
2503,4.0,,,,,,33.0,,,,,240,note_off,,80.0,33.0,80.0,446880,465.5
2504,4.0,,,,,,33.0,,,,,0,note_on,,95.0,33.0,95.0,446880,465.5
2505,4.0,,,,,,33.0,,,,,240,note_off,,80.0,33.0,80.0,447120,465.75
2506,4.0,,,,,,33.0,,,,,0,note_on,,95.0,33.0,95.0,447120,465.75
2507,4.0,,,,,,33.0,,,,,240,note_off,,80.0,33.0,80.0,447360,466.0
2508,4.0,,,,,,40.0,,,,,0,note_on,,95.0,40.0,95.0,447360,466.0
2509,4.0,,,,,,40.0,,,,,720,note_off,,80.0,40.0,80.0,448080,466.75
2510,4.0,,,,,,40.0,,,,,0,note_on,,95.0,40.0,95.0,448080,466.75
2511,4.0,,,,,,40.0,,,,,120,note_off,,80.0,40.0,80.0,448200,466.875
2512,4.0,,,,,,43.0,,,,,120,note_on,,95.0,43.0,95.0,448320,467.0
2513,4.0,,,,,,43.0,,,,,120,note_off,,80.0,43.0,80.0,448440,467.125
2514,4.0,,,,,,40.0,,,,,240,note_on,,95.0,40.0,95.0,448680,467.375
2515,4.0,,,,,,40.0,,,,,120,note_off,,80.0,40.0,80.0,448800,467.5
2516,4.0,,,,,,38.0,,,,,240,note_on,,95.0,38.0,95.0,449040,467.75
2517,4.0,,,,,,38.0,,,,,240,note_off,,80.0,38.0,80.0,449280,468.0
2518,4.0,,,,,,36.0,,,,,0,note_on,,95.0,36.0,95.0,449280,468.0
2519,4.0,,,,,,36.0,,,,,960,note_off,,80.0,36.0,80.0,450240,469.0
2520,4.0,,,,,,35.0,,,,,0,note_on,,95.0,35.0,95.0,450240,469.0
2521,4.0,,,,,,35.0,,,,,960,note_off,,80.0,35.0,80.0,451200,470.0
2522,4.0,,,,,,40.0,,,,,0,note_on,,95.0,40.0,95.0,451200,470.0
2523,4.0,,,,,,40.0,,,,,720,note_off,,80.0,40.0,80.0,451920,470.75
2524,4.0,,,,,,40.0,,,,,0,note_on,,95.0,40.0,95.0,451920,470.75
2525,4.0,,,,,,40.0,,,,,120,note_off,,80.0,40.0,80.0,452040,470.875
2526,4.0,,,,,,43.0,,,,,120,note_on,,95.0,43.0,95.0,452160,471.0
2527,4.0,,,,,,43.0,,,,,120,note_off,,80.0,43.0,80.0,452280,471.125
2528,4.0,,,,,,40.0,,,,,240,note_on,,95.0,40.0,95.0,452520,471.375
2529,4.0,,,,,,40.0,,,,,120,note_off,,80.0,40.0,80.0,452640,471.5
2530,4.0,,,,,,38.0,,,,,240,note_on,,95.0,38.0,95.0,452880,471.75
2531,4.0,,,,,,38.0,,,,,240,note_off,,80.0,38.0,80.0,453120,472.0
2532,4.0,,,,,,36.0,,,,,0,note_on,,95.0,36.0,95.0,453120,472.0
2533,4.0,,,,,,36.0,,,,,960,note_off,,80.0,36.0,80.0,454080,473.0
2534,4.0,,,,,,35.0,,,,,0,note_on,,95.0,35.0,95.0,454080,473.0
2535,4.0,,,,,,35.0,,,,,960,note_off,,80.0,35.0,80.0,455040,474.0
2536,4.0,,,,,,40.0,,,,,0,note_on,,95.0,40.0,95.0,455040,474.0
2537,4.0,,,,,,40.0,,,,,720,note_off,,80.0,40.0,80.0,455760,474.75
2538,4.0,,,,,,40.0,,,,,0,note_on,,95.0,40.0,95.0,455760,474.75
2539,4.0,,,,,,40.0,,,,,120,note_off,,80.0,40.0,80.0,455880,474.875
2540,4.0,,,,,,43.0,,,,,120,note_on,,95.0,43.0,95.0,456000,475.0
2541,4.0,,,,,,43.0,,,,,120,note_off,,80.0,43.0,80.0,456120,475.125
2542,4.0,,,,,,40.0,,,,,240,note_on,,95.0,40.0,95.0,456360,475.375
2543,4.0,,,,,,40.0,,,,,120,note_off,,80.0,40.0,80.0,456480,475.5
2544,4.0,,,,,,38.0,,,,,240,note_on,,95.0,38.0,95.0,456720,475.75
2545,4.0,,,,,,38.0,,,,,240,note_off,,80.0,38.0,80.0,456960,476.0
2546,4.0,,,,,,36.0,,,,,0,note_on,,95.0,36.0,95.0,456960,476.0
2547,4.0,,,,,,36.0,,,,,960,note_off,,80.0,36.0,80.0,457920,477.0
2548,4.0,,,,,,35.0,,,,,0,note_on,,95.0,35.0,95.0,457920,477.0
2549,4.0,,,,,,35.0,,,,,960,note_off,,80.0,35.0,80.0,458880,478.0
2550,4.0,,,,,,40.0,,,,,0,note_on,,95.0,40.0,95.0,458880,478.0
2551,4.0,,,,,,40.0,,,,,720,note_off,,80.0,40.0,80.0,459600,478.75
2552,4.0,,,,,,40.0,,,,,0,note_on,,95.0,40.0,95.0,459600,478.75
2553,4.0,,,,,,40.0,,,,,120,note_off,,80.0,40.0,80.0,459720,478.875
2554,4.0,,,,,,43.0,,,,,120,note_on,,95.0,43.0,95.0,459840,479.0
2555,4.0,,,,,,43.0,,,,,120,note_off,,80.0,43.0,80.0,459960,479.125
2556,4.0,,,,,,40.0,,,,,240,note_on,,95.0,40.0,95.0,460200,479.375
2557,4.0,,,,,,40.0,,,,,120,note_off,,80.0,40.0,80.0,460320,479.5
2558,4.0,,,,,,38.0,,,,,240,note_on,,95.0,38.0,95.0,460560,479.75
2559,4.0,,,,,,38.0,,,,,240,note_off,,80.0,38.0,80.0,460800,480.0
2560,4.0,,,,,,36.0,,,,,0,note_on,,95.0,36.0,95.0,460800,480.0
2561,4.0,,,,,,36.0,,,,,960,note_off,,80.0,36.0,80.0,461760,481.0
2562,4.0,,,,,,35.0,,,,,0,note_on,,95.0,35.0,95.0,461760,481.0
2563,4.0,,,,,,35.0,,,,,960,note_off,,80.0,35.0,80.0,462720,482.0
2564,4.0,,,,,,40.0,,,,,0,note_on,,95.0,40.0,95.0,462720,482.0
2565,4.0,,,,,,40.0,,,,,720,note_off,,80.0,40.0,80.0,463440,482.75
2566,4.0,,,,,,40.0,,,,,0,note_on,,95.0,40.0,95.0,463440,482.75
2567,4.0,,,,,,40.0,,,,,120,note_off,,80.0,40.0,80.0,463560,482.875
2568,4.0,,,,,,43.0,,,,,120,note_on,,95.0,43.0,95.0,463680,483.0
2569,4.0,,,,,,43.0,,,,,120,note_off,,80.0,43.0,80.0,463800,483.125
2570,4.0,,,,,,40.0,,,,,240,note_on,,95.0,40.0,95.0,464040,483.375
2571,4.0,,,,,,40.0,,,,,120,note_off,,80.0,40.0,80.0,464160,483.5
2572,4.0,,,,,,38.0,,,,,240,note_on,,95.0,38.0,95.0,464400,483.75
2573,4.0,,,,,,38.0,,,,,240,note_off,,80.0,38.0,80.0,464640,484.0
2574,4.0,,,,,,36.0,,,,,0,note_on,,95.0,36.0,95.0,464640,484.0
2575,4.0,,,,,,36.0,,,,,960,note_off,,80.0,36.0,80.0,465600,485.0
2576,4.0,,,,,,35.0,,,,,0,note_on,,95.0,35.0,95.0,465600,485.0
2577,4.0,,,,,,35.0,,,,,960,note_off,,80.0,35.0,80.0,466560,486.0
2578,4.0,,,,,,40.0,,,,,0,note_on,,95.0,40.0,95.0,466560,486.0
2579,4.0,,,,,,40.0,,,,,720,note_off,,80.0,40.0,80.0,467280,486.75
2580,4.0,,,,,,40.0,,,,,0,note_on,,95.0,40.0,95.0,467280,486.75
2581,4.0,,,,,,40.0,,,,,120,note_off,,80.0,40.0,80.0,467400,486.875
2582,4.0,,,,,,43.0,,,,,120,note_on,,95.0,43.0,95.0,467520,487.0
2583,4.0,,,,,,43.0,,,,,120,note_off,,80.0,43.0,80.0,467640,487.125
2584,4.0,,,,,,40.0,,,,,240,note_on,,95.0,40.0,95.0,467880,487.375
2585,4.0,,,,,,40.0,,,,,120,note_off,,80.0,40.0,80.0,468000,487.5
2586,4.0,,,,,,38.0,,,,,240,note_on,,95.0,38.0,95.0,468240,487.75
2587,4.0,,,,,,38.0,,,,,240,note_off,,80.0,38.0,80.0,468480,488.0
2588,4.0,,,,,,36.0,,,,,0,note_on,,95.0,36.0,95.0,468480,488.0
2589,4.0,,,,,,36.0,,,,,960,note_off,,80.0,36.0,80.0,469440,489.0
2590,4.0,,,,,,35.0,,,,,0,note_on,,95.0,35.0,95.0,469440,489.0
2591,4.0,,,,,,35.0,,,,,960,note_off,,80.0,35.0,80.0,470400,490.0
2592,4.0,,,,,,40.0,,,,,0,note_on,,95.0,40.0,95.0,470400,490.0
2593,4.0,,,,,,40.0,,,,,720,note_off,,80.0,40.0,80.0,471120,490.75
2594,4.0,,,,,,40.0,,,,,0,note_on,,95.0,40.0,95.0,471120,490.75
2595,4.0,,,,,,40.0,,,,,120,note_off,,80.0,40.0,80.0,471240,490.875
2596,4.0,,,,,,43.0,,,,,120,note_on,,95.0,43.0,95.0,471360,491.0
2597,4.0,,,,,,43.0,,,,,120,note_off,,80.0,43.0,80.0,471480,491.125
2598,4.0,,,,,,40.0,,,,,240,note_on,,95.0,40.0,95.0,471720,491.375
2599,4.0,,,,,,40.0,,,,,120,note_off,,80.0,40.0,80.0,471840,491.5
2600,4.0,,,,,,38.0,,,,,240,note_on,,95.0,38.0,95.0,472080,491.75
2601,4.0,,,,,,38.0,,,,,240,note_off,,80.0,38.0,80.0,472320,492.0
2602,4.0,,,,,,36.0,,,,,0,note_on,,95.0,36.0,95.0,472320,492.0
2603,4.0,,,,,,36.0,,,,,960,note_off,,80.0,36.0,80.0,473280,493.0
2604,4.0,,,,,,35.0,,,,,0,note_on,,95.0,35.0,95.0,473280,493.0
2605,4.0,,,,,,35.0,,,,,960,note_off,,80.0,35.0,80.0,474240,494.0
2606,4.0,,,,,,40.0,,,,,0,note_on,,95.0,40.0,95.0,474240,494.0
2607,4.0,,,,,,40.0,,,,,720,note_off,,80.0,40.0,80.0,474960,494.75
2608,4.0,,,,,,40.0,,,,,0,note_on,,95.0,40.0,95.0,474960,494.75
2609,4.0,,,,,,40.0,,,,,120,note_off,,80.0,40.0,80.0,475080,494.875
2610,4.0,,,,,,43.0,,,,,120,note_on,,95.0,43.0,95.0,475200,495.0
2611,4.0,,,,,,43.0,,,,,120,note_off,,80.0,43.0,80.0,475320,495.125
2612,4.0,,,,,,40.0,,,,,240,note_on,,95.0,40.0,95.0,475560,495.375
2613,4.0,,,,,,40.0,,,,,120,note_off,,80.0,40.0,80.0,475680,495.5
2614,4.0,,,,,,38.0,,,,,240,note_on,,95.0,38.0,95.0,475920,495.75
2615,4.0,,,,,,38.0,,,,,240,note_off,,80.0,38.0,80.0,476160,496.0
2616,4.0,,,,,,36.0,,,,,0,note_on,,95.0,36.0,95.0,476160,496.0
2617,4.0,,,,,,36.0,,,,,960,note_off,,80.0,36.0,80.0,477120,497.0
2618,4.0,,,,,,35.0,,,,,0,note_on,,95.0,35.0,95.0,477120,497.0
2619,4.0,,,,,,35.0,,,,,960,note_off,,80.0,35.0,80.0,478080,498.0
2620,4.0,,,,,,40.0,,,,,0,note_on,,95.0,40.0,95.0,478080,498.0
2621,4.0,,,,,,40.0,,,,,720,note_off,,80.0,40.0,80.0,478800,498.75
2622,4.0,,,,,,40.0,,,,,0,note_on,,95.0,40.0,95.0,478800,498.75
2623,4.0,,,,,,40.0,,,,,120,note_off,,80.0,40.0,80.0,478920,498.875
2624,4.0,,,,,,43.0,,,,,120,note_on,,95.0,43.0,95.0,479040,499.0
2625,4.0,,,,,,43.0,,,,,120,note_off,,80.0,43.0,80.0,479160,499.125
2626,4.0,,,,,,40.0,,,,,240,note_on,,95.0,40.0,95.0,479400,499.375
2627,4.0,,,,,,40.0,,,,,120,note_off,,80.0,40.0,80.0,479520,499.5
2628,4.0,,,,,,38.0,,,,,240,note_on,,95.0,38.0,95.0,479760,499.75
2629,4.0,,,,,,38.0,,,,,240,note_off,,80.0,38.0,80.0,480000,500.0
2630,4.0,,,,,,36.0,,,,,0,note_on,,95.0,36.0,95.0,480000,500.0
2631,4.0,,,,,,36.0,,,,,960,note_off,,80.0,36.0,80.0,480960,501.0
2632,4.0,,,,,,35.0,,,,,0,note_on,,95.0,35.0,95.0,480960,501.0
2633,4.0,,,,,,35.0,,,,,960,note_off,,80.0,35.0,80.0,481920,502.0
2634,4.0,,,,,,40.0,,,,,0,note_on,,95.0,40.0,95.0,481920,502.0
2635,4.0,,,,,,40.0,,,,,720,note_off,,80.0,40.0,80.0,482640,502.75
2636,4.0,,,,,,40.0,,,,,0,note_on,,95.0,40.0,95.0,482640,502.75
2637,4.0,,,,,,40.0,,,,,120,note_off,,80.0,40.0,80.0,482760,502.875
2638,4.0,,,,,,43.0,,,,,120,note_on,,95.0,43.0,95.0,482880,503.0
2639,4.0,,,,,,43.0,,,,,120,note_off,,80.0,43.0,80.0,483000,503.125
2640,4.0,,,,,,40.0,,,,,240,note_on,,95.0,40.0,95.0,483240,503.375
2641,4.0,,,,,,40.0,,,,,120,note_off,,80.0,40.0,80.0,483360,503.5
2642,4.0,,,,,,38.0,,,,,240,note_on,,95.0,38.0,95.0,483600,503.75
2643,4.0,,,,,,38.0,,,,,240,note_off,,80.0,38.0,80.0,483840,504.0
2644,4.0,,,,,,36.0,,,,,0,note_on,,95.0,36.0,95.0,483840,504.0
2645,4.0,,,,,,36.0,,,,,960,note_off,,80.0,36.0,80.0,484800,505.0
2646,4.0,,,,,,35.0,,,,,0,note_on,,95.0,35.0,95.0,484800,505.0
2647,4.0,,,,,,35.0,,,,,960,note_off,,80.0,35.0,80.0,485760,506.0
2648,4.0,,,,,,40.0,,,,,0,note_on,,95.0,40.0,95.0,485760,506.0
2649,4.0,,,,,,40.0,,,,,720,note_off,,80.0,40.0,80.0,486480,506.75
2650,4.0,,,,,,40.0,,,,,0,note_on,,95.0,40.0,95.0,486480,506.75
2651,4.0,,,,,,40.0,,,,,120,note_off,,80.0,40.0,80.0,486600,506.875
2652,4.0,,,,,,43.0,,,,,120,note_on,,95.0,43.0,95.0,486720,507.0
2653,4.0,,,,,,43.0,,,,,120,note_off,,80.0,43.0,80.0,486840,507.125
2654,4.0,,,,,,40.0,,,,,240,note_on,,95.0,40.0,95.0,487080,507.375
2655,4.0,,,,,,40.0,,,,,120,note_off,,80.0,40.0,80.0,487200,507.5
2656,4.0,,,,,,38.0,,,,,240,note_on,,95.0,38.0,95.0,487440,507.75
2657,4.0,,,,,,38.0,,,,,240,note_off,,80.0,38.0,80.0,487680,508.0
2658,4.0,,,,,,36.0,,,,,0,note_on,,95.0,36.0,95.0,487680,508.0
2659,4.0,,,,,,36.0,,,,,960,note_off,,80.0,36.0,80.0,488640,509.0
2660,4.0,,,,,,35.0,,,,,0,note_on,,95.0,35.0,95.0,488640,509.0
2661,4.0,,,,,,35.0,,,,,960,note_off,,80.0,35.0,80.0,489600,510.0
2662,4.0,,,,,,40.0,,,,,0,note_on,,95.0,40.0,95.0,489600,510.0
2663,4.0,,,,,,40.0,,,,,720,note_off,,80.0,40.0,80.0,490320,510.75
2664,4.0,,,,,,40.0,,,,,0,note_on,,95.0,40.0,95.0,490320,510.75
2665,4.0,,,,,,40.0,,,,,120,note_off,,80.0,40.0,80.0,490440,510.875
2666,4.0,,,,,,43.0,,,,,120,note_on,,95.0,43.0,95.0,490560,511.0
2667,4.0,,,,,,43.0,,,,,120,note_off,,80.0,43.0,80.0,490680,511.125
2668,4.0,,,,,,40.0,,,,,240,note_on,,95.0,40.0,95.0,490920,511.375
2669,4.0,,,,,,40.0,,,,,120,note_off,,80.0,40.0,80.0,491040,511.5
2670,4.0,,,,,,38.0,,,,,240,note_on,,95.0,38.0,95.0,491280,511.75
2671,4.0,,,,,,38.0,,,,,240,note_off,,80.0,38.0,80.0,491520,512.0
2672,4.0,,,,,,36.0,,,,,0,note_on,,95.0,36.0,95.0,491520,512.0
2673,4.0,,,,,,36.0,,,,,960,note_off,,80.0,36.0,80.0,492480,513.0
2674,4.0,,,,,,35.0,,,,,0,note_on,,95.0,35.0,95.0,492480,513.0
2675,4.0,,,,,,35.0,,,,,960,note_off,,80.0,35.0,80.0,493440,514.0
2676,4.0,,,,,,31.0,,,,,0,note_on,,95.0,31.0,95.0,493440,514.0
2677,4.0,,,,,,31.0,,,,,240,note_off,,80.0,31.0,80.0,493680,514.25
2678,4.0,,,,,,31.0,,,,,0,note_on,,95.0,31.0,95.0,493680,514.25
2679,4.0,,,,,,31.0,,,,,240,note_off,,80.0,31.0,80.0,493920,514.5
2680,4.0,,,,,,31.0,,,,,0,note_on,,95.0,31.0,95.0,493920,514.5
2681,4.0,,,,,,31.0,,,,,240,note_off,,80.0,31.0,80.0,494160,514.75
2682,4.0,,,,,,31.0,,,,,0,note_on,,95.0,31.0,95.0,494160,514.75
2683,4.0,,,,,,31.0,,,,,240,note_off,,80.0,31.0,80.0,494400,515.0
2684,4.0,,,,,,31.0,,,,,0,note_on,,95.0,31.0,95.0,494400,515.0
2685,4.0,,,,,,31.0,,,,,240,note_off,,80.0,31.0,80.0,494640,515.25
2686,4.0,,,,,,31.0,,,,,0,note_on,,95.0,31.0,95.0,494640,515.25
2687,4.0,,,,,,31.0,,,,,240,note_off,,80.0,31.0,80.0,494880,515.5
2688,4.0,,,,,,31.0,,,,,0,note_on,,95.0,31.0,95.0,494880,515.5
2689,4.0,,,,,,31.0,,,,,240,note_off,,80.0,31.0,80.0,495120,515.75
2690,4.0,,,,,,31.0,,,,,0,note_on,,95.0,31.0,95.0,495120,515.75
2691,4.0,,,,,,31.0,,,,,240,note_off,,80.0,31.0,80.0,495360,516.0
2692,4.0,,,,,,33.0,,,,,0,note_on,,95.0,33.0,95.0,495360,516.0
2693,4.0,,,,,,33.0,,,,,240,note_off,,80.0,33.0,80.0,495600,516.25
2694,4.0,,,,,,33.0,,,,,0,note_on,,95.0,33.0,95.0,495600,516.25
2695,4.0,,,,,,33.0,,,,,240,note_off,,80.0,33.0,80.0,495840,516.5
2696,4.0,,,,,,33.0,,,,,0,note_on,,95.0,33.0,95.0,495840,516.5
2697,4.0,,,,,,33.0,,,,,240,note_off,,80.0,33.0,80.0,496080,516.75
2698,4.0,,,,,,33.0,,,,,0,note_on,,95.0,33.0,95.0,496080,516.75
2699,4.0,,,,,,33.0,,,,,240,note_off,,80.0,33.0,80.0,496320,517.0
2700,4.0,,,,,,33.0,,,,,0,note_on,,95.0,33.0,95.0,496320,517.0
2701,4.0,,,,,,33.0,,,,,240,note_off,,80.0,33.0,80.0,496560,517.25
2702,4.0,,,,,,33.0,,,,,0,note_on,,95.0,33.0,95.0,496560,517.25
2703,4.0,,,,,,33.0,,,,,240,note_off,,80.0,33.0,80.0,496800,517.5
2704,4.0,,,,,,33.0,,,,,0,note_on,,95.0,33.0,95.0,496800,517.5
2705,4.0,,,,,,33.0,,,,,240,note_off,,80.0,33.0,80.0,497040,517.75
2706,4.0,,,,,,33.0,,,,,0,note_on,,95.0,33.0,95.0,497040,517.75
2707,4.0,,,,,,33.0,,,,,240,note_off,,80.0,33.0,80.0,497280,518.0
2708,4.0,,,,,,40.0,,,,,0,note_on,,95.0,40.0,95.0,497280,518.0
2709,4.0,,,,,,40.0,,,,,720,note_off,,80.0,40.0,80.0,498000,518.75
2710,4.0,,,,,,40.0,,,,,0,note_on,,95.0,40.0,95.0,498000,518.75
2711,4.0,,,,,,40.0,,,,,120,note_off,,80.0,40.0,80.0,498120,518.875
2712,4.0,,,,,,43.0,,,,,120,note_on,,95.0,43.0,95.0,498240,519.0
2713,4.0,,,,,,43.0,,,,,120,note_off,,80.0,43.0,80.0,498360,519.125
2714,4.0,,,,,,40.0,,,,,240,note_on,,95.0,40.0,95.0,498600,519.375
2715,4.0,,,,,,40.0,,,,,120,note_off,,80.0,40.0,80.0,498720,519.5
2716,4.0,,,,,,38.0,,,,,240,note_on,,95.0,38.0,95.0,498960,519.75
2717,4.0,,,,,,38.0,,,,,240,note_off,,80.0,38.0,80.0,499200,520.0
2718,4.0,,,,,,36.0,,,,,0,note_on,,95.0,36.0,95.0,499200,520.0
2719,4.0,,,,,,36.0,,,,,960,note_off,,80.0,36.0,80.0,500160,521.0
2720,4.0,,,,,,35.0,,,,,0,note_on,,95.0,35.0,95.0,500160,521.0
2721,4.0,,,,,,35.0,,,,,960,note_off,,80.0,35.0,80.0,501120,522.0
2722,4.0,,,,,,40.0,,,,,0,note_on,,95.0,40.0,95.0,501120,522.0
2723,4.0,,,,,,40.0,,,,,720,note_off,,80.0,40.0,80.0,501840,522.75
2724,4.0,,,,,,40.0,,,,,0,note_on,,95.0,40.0,95.0,501840,522.75
2725,4.0,,,,,,40.0,,,,,120,note_off,,80.0,40.0,80.0,501960,522.875
2726,4.0,,,,,,43.0,,,,,120,note_on,,95.0,43.0,95.0,502080,523.0
2727,4.0,,,,,,43.0,,,,,120,note_off,,80.0,43.0,80.0,502200,523.125
2728,4.0,,,,,,40.0,,,,,240,note_on,,95.0,40.0,95.0,502440,523.375
2729,4.0,,,,,,40.0,,,,,120,note_off,,80.0,40.0,80.0,502560,523.5
2730,4.0,,,,,,38.0,,,,,240,note_on,,95.0,38.0,95.0,502800,523.75
2731,4.0,,,,,,38.0,,,,,240,note_off,,80.0,38.0,80.0,503040,524.0
2732,4.0,,,,,,36.0,,,,,0,note_on,,95.0,36.0,95.0,503040,524.0
2733,4.0,,,,,,36.0,,,,,360,note_off,,80.0,36.0,80.0,503400,524.375
2734,4.0,,,,,,38.0,,,,,0,note_on,,95.0,38.0,95.0,503400,524.375
2735,4.0,,,,,,38.0,,,,,360,note_off,,80.0,38.0,80.0,503760,524.75
2736,4.0,,,,,,36.0,,,,,0,note_on,,95.0,36.0,95.0,503760,524.75
2737,4.0,,,,,,36.0,,,,,240,note_off,,80.0,36.0,80.0,504000,525.0
2738,4.0,,,,,,35.0,,,,,0,note_on,,95.0,35.0,95.0,504000,525.0
2739,4.0,,,,,,35.0,,,,,960,note_off,,80.0,35.0,80.0,504960,526.0
2740,4.0,,,,,,40.0,,,,,0,note_on,,95.0,40.0,95.0,504960,526.0
2741,4.0,,,,,,40.0,,,,,720,note_off,,80.0,40.0,80.0,505680,526.75
2742,4.0,,,,,,40.0,,,,,0,note_on,,95.0,40.0,95.0,505680,526.75
2743,4.0,,,,,,40.0,,,,,120,note_off,,80.0,40.0,80.0,505800,526.875
2744,4.0,,,,,,43.0,,,,,120,note_on,,95.0,43.0,95.0,505920,527.0
2745,4.0,,,,,,43.0,,,,,120,note_off,,80.0,43.0,80.0,506040,527.125
2746,4.0,,,,,,40.0,,,,,240,note_on,,95.0,40.0,95.0,506280,527.375
2747,4.0,,,,,,40.0,,,,,120,note_off,,80.0,40.0,80.0,506400,527.5
2748,4.0,,,,,,38.0,,,,,240,note_on,,95.0,38.0,95.0,506640,527.75
2749,4.0,,,,,,38.0,,,,,240,note_off,,80.0,38.0,80.0,506880,528.0
2750,4.0,,,,,,36.0,,,,,0,note_on,,95.0,36.0,95.0,506880,528.0
2751,4.0,,,,,,36.0,,,,,960,note_off,,80.0,36.0,80.0,507840,529.0
2752,4.0,,,,,,35.0,,,,,0,note_on,,95.0,35.0,95.0,507840,529.0
2753,4.0,,,,,,35.0,,,,,960,note_off,,80.0,35.0,80.0,508800,530.0
2754,4.0,,,,,,40.0,,,,,0,note_on,,95.0,40.0,95.0,508800,530.0
2755,4.0,,,,,,40.0,,,,,720,note_off,,80.0,40.0,80.0,509520,530.75
2756,4.0,,,,,,40.0,,,,,0,note_on,,95.0,40.0,95.0,509520,530.75
2757,4.0,,,,,,40.0,,,,,120,note_off,,80.0,40.0,80.0,509640,530.875
2758,4.0,,,,,,43.0,,,,,120,note_on,,95.0,43.0,95.0,509760,531.0
2759,4.0,,,,,,43.0,,,,,120,note_off,,80.0,43.0,80.0,509880,531.125
2760,4.0,,,,,,40.0,,,,,240,note_on,,95.0,40.0,95.0,510120,531.375
2761,4.0,,,,,,40.0,,,,,120,note_off,,80.0,40.0,80.0,510240,531.5
2762,4.0,,,,,,38.0,,,,,240,note_on,,95.0,38.0,95.0,510480,531.75
2763,4.0,,,,,,38.0,,,,,240,note_off,,80.0,38.0,80.0,510720,532.0
2764,4.0,,,,,,36.0,,,,,0,note_on,,95.0,36.0,95.0,510720,532.0
2765,4.0,,,,,,36.0,,,,,360,note_off,,80.0,36.0,80.0,511080,532.375
2766,4.0,,,,,,38.0,,,,,0,note_on,,95.0,38.0,95.0,511080,532.375
2767,4.0,,,,,,38.0,,,,,360,note_off,,80.0,38.0,80.0,511440,532.75
2768,4.0,,,,,,36.0,,,,,0,note_on,,95.0,36.0,95.0,511440,532.75
2769,4.0,,,,,,36.0,,,,,240,note_off,,80.0,36.0,80.0,511680,533.0
2770,4.0,,,,,,35.0,,,,,0,note_on,,95.0,35.0,95.0,511680,533.0
2771,4.0,,,,,,35.0,,,,,960,note_off,,80.0,35.0,80.0,512640,534.0
2772,4.0,,,,,,40.0,,,,,0,note_on,,95.0,40.0,95.0,512640,534.0
2773,4.0,,,,,,40.0,,,,,720,note_off,,80.0,40.0,80.0,513360,534.75
2774,4.0,,,,,,40.0,,,,,0,note_on,,95.0,40.0,95.0,513360,534.75
2775,4.0,,,,,,40.0,,,,,120,note_off,,80.0,40.0,80.0,513480,534.875
2776,4.0,,,,,,43.0,,,,,120,note_on,,95.0,43.0,95.0,513600,535.0
2777,4.0,,,,,,43.0,,,,,120,note_off,,80.0,43.0,80.0,513720,535.125
2778,4.0,,,,,,40.0,,,,,240,note_on,,95.0,40.0,95.0,513960,535.375
2779,4.0,,,,,,40.0,,,,,120,note_off,,80.0,40.0,80.0,514080,535.5
2780,4.0,,,,,,38.0,,,,,240,note_on,,95.0,38.0,95.0,514320,535.75
2781,4.0,,,,,,38.0,,,,,240,note_off,,80.0,38.0,80.0,514560,536.0
2782,4.0,,,,,,36.0,,,,,0,note_on,,95.0,36.0,95.0,514560,536.0
2783,4.0,,,,,,36.0,,,,,960,note_off,,80.0,36.0,80.0,515520,537.0
2784,4.0,,,,,,35.0,,,,,0,note_on,,95.0,35.0,95.0,515520,537.0
2785,4.0,,,,,,35.0,,,,,960,note_off,,80.0,35.0,80.0,516480,538.0
2786,4.0,,,,,,40.0,,,,,0,note_on,,95.0,40.0,95.0,516480,538.0
2787,4.0,,,,,,40.0,,,,,720,note_off,,80.0,40.0,80.0,517200,538.75
2788,4.0,,,,,,40.0,,,,,0,note_on,,95.0,40.0,95.0,517200,538.75
2789,4.0,,,,,,40.0,,,,,120,note_off,,80.0,40.0,80.0,517320,538.875
2790,4.0,,,,,,43.0,,,,,120,note_on,,95.0,43.0,95.0,517440,539.0
2791,4.0,,,,,,43.0,,,,,120,note_off,,80.0,43.0,80.0,517560,539.125
2792,4.0,,,,,,40.0,,,,,240,note_on,,95.0,40.0,95.0,517800,539.375
2793,4.0,,,,,,40.0,,,,,120,note_off,,80.0,40.0,80.0,517920,539.5
2794,4.0,,,,,,38.0,,,,,240,note_on,,95.0,38.0,95.0,518160,539.75
2795,4.0,,,,,,38.0,,,,,240,note_off,,80.0,38.0,80.0,518400,540.0
2796,4.0,,,,,,36.0,,,,,0,note_on,,95.0,36.0,95.0,518400,540.0
2797,4.0,,,,,,36.0,,,,,360,note_off,,80.0,36.0,80.0,518760,540.375
2798,4.0,,,,,,38.0,,,,,0,note_on,,95.0,38.0,95.0,518760,540.375
2799,4.0,,,,,,38.0,,,,,360,note_off,,80.0,38.0,80.0,519120,540.75
2800,4.0,,,,,,36.0,,,,,0,note_on,,95.0,36.0,95.0,519120,540.75
2801,4.0,,,,,,36.0,,,,,240,note_off,,80.0,36.0,80.0,519360,541.0
2802,4.0,,,,,,35.0,,,,,0,note_on,,95.0,35.0,95.0,519360,541.0
2803,4.0,,,,,,35.0,,,,,960,note_off,,80.0,35.0,80.0,520320,542.0
2804,4.0,,,,,,40.0,,,,,0,note_on,,95.0,40.0,95.0,520320,542.0
2805,4.0,,,,,,40.0,,,,,720,note_off,,80.0,40.0,80.0,521040,542.75
2806,4.0,,,,,,40.0,,,,,0,note_on,,95.0,40.0,95.0,521040,542.75
2807,4.0,,,,,,40.0,,,,,120,note_off,,80.0,40.0,80.0,521160,542.875
2808,4.0,,,,,,43.0,,,,,120,note_on,,95.0,43.0,95.0,521280,543.0
2809,4.0,,,,,,43.0,,,,,120,note_off,,80.0,43.0,80.0,521400,543.125
2810,4.0,,,,,,40.0,,,,,240,note_on,,95.0,40.0,95.0,521640,543.375
2811,4.0,,,,,,40.0,,,,,120,note_off,,80.0,40.0,80.0,521760,543.5
2812,4.0,,,,,,38.0,,,,,240,note_on,,95.0,38.0,95.0,522000,543.75
2813,4.0,,,,,,38.0,,,,,240,note_off,,80.0,38.0,80.0,522240,544.0
2814,4.0,,,,,,36.0,,,,,0,note_on,,95.0,36.0,95.0,522240,544.0
2815,4.0,,,,,,36.0,,,,,960,note_off,,80.0,36.0,80.0,523200,545.0
2816,4.0,,,,,,35.0,,,,,0,note_on,,95.0,35.0,95.0,523200,545.0
2817,4.0,,,,,,35.0,,,,,960,note_off,,80.0,35.0,80.0,524160,546.0
2818,4.0,,,,,,40.0,,,,,0,note_on,,95.0,40.0,95.0,524160,546.0
2819,4.0,,,,,,40.0,,,,,720,note_off,,80.0,40.0,80.0,524880,546.75
2820,4.0,,,,,,40.0,,,,,0,note_on,,95.0,40.0,95.0,524880,546.75
2821,4.0,,,,,,40.0,,,,,120,note_off,,80.0,40.0,80.0,525000,546.875
2822,4.0,,,,,,43.0,,,,,120,note_on,,95.0,43.0,95.0,525120,547.0
2823,4.0,,,,,,43.0,,,,,120,note_off,,80.0,43.0,80.0,525240,547.125
2824,4.0,,,,,,40.0,,,,,240,note_on,,95.0,40.0,95.0,525480,547.375
2825,4.0,,,,,,40.0,,,,,120,note_off,,80.0,40.0,80.0,525600,547.5
2826,4.0,,,,,,38.0,,,,,240,note_on,,95.0,38.0,95.0,525840,547.75
2827,4.0,,,,,,38.0,,,,,240,note_off,,80.0,38.0,80.0,526080,548.0
2828,4.0,,,,,,36.0,,,,,0,note_on,,95.0,36.0,95.0,526080,548.0
2829,4.0,,,,,,36.0,,,,,360,note_off,,80.0,36.0,80.0,526440,548.375
2830,4.0,,,,,,38.0,,,,,0,note_on,,95.0,38.0,95.0,526440,548.375
2831,4.0,,,,,,38.0,,,,,360,note_off,,80.0,38.0,80.0,526800,548.75
2832,4.0,,,,,,36.0,,,,,0,note_on,,95.0,36.0,95.0,526800,548.75
2833,4.0,,,,,,36.0,,,,,240,note_off,,80.0,36.0,80.0,527040,549.0
2834,4.0,,,,,,35.0,,,,,0,note_on,,95.0,35.0,95.0,527040,549.0
2835,4.0,,,,,,35.0,,,,,960,note_off,,80.0,35.0,80.0,528000,550.0
2836,4.0,,,,,,31.0,,,,,0,note_on,,95.0,31.0,95.0,528000,550.0
2837,4.0,,,,,,31.0,,,,,240,note_off,,80.0,31.0,80.0,528240,550.25
2838,4.0,,,,,,31.0,,,,,0,note_on,,95.0,31.0,95.0,528240,550.25
2839,4.0,,,,,,31.0,,,,,240,note_off,,80.0,31.0,80.0,528480,550.5
2840,4.0,,,,,,31.0,,,,,0,note_on,,95.0,31.0,95.0,528480,550.5
2841,4.0,,,,,,31.0,,,,,240,note_off,,80.0,31.0,80.0,528720,550.75
2842,4.0,,,,,,31.0,,,,,0,note_on,,95.0,31.0,95.0,528720,550.75
2843,4.0,,,,,,31.0,,,,,240,note_off,,80.0,31.0,80.0,528960,551.0
2844,4.0,,,,,,31.0,,,,,0,note_on,,95.0,31.0,95.0,528960,551.0
2845,4.0,,,,,,31.0,,,,,240,note_off,,80.0,31.0,80.0,529200,551.25
2846,4.0,,,,,,31.0,,,,,0,note_on,,95.0,31.0,95.0,529200,551.25
2847,4.0,,,,,,31.0,,,,,240,note_off,,80.0,31.0,80.0,529440,551.5
2848,4.0,,,,,,31.0,,,,,0,note_on,,95.0,31.0,95.0,529440,551.5
2849,4.0,,,,,,31.0,,,,,240,note_off,,80.0,31.0,80.0,529680,551.75
2850,4.0,,,,,,31.0,,,,,0,note_on,,95.0,31.0,95.0,529680,551.75
2851,4.0,,,,,,31.0,,,,,240,note_off,,80.0,31.0,80.0,529920,552.0
2852,4.0,,,,,,33.0,,,,,0,note_on,,95.0,33.0,95.0,529920,552.0
2853,4.0,,,,,,33.0,,,,,240,note_off,,80.0,33.0,80.0,530160,552.25
2854,4.0,,,,,,33.0,,,,,0,note_on,,95.0,33.0,95.0,530160,552.25
2855,4.0,,,,,,33.0,,,,,240,note_off,,80.0,33.0,80.0,530400,552.5
2856,4.0,,,,,,33.0,,,,,0,note_on,,95.0,33.0,95.0,530400,552.5
2857,4.0,,,,,,33.0,,,,,240,note_off,,80.0,33.0,80.0,530640,552.75
2858,4.0,,,,,,33.0,,,,,0,note_on,,95.0,33.0,95.0,530640,552.75
2859,4.0,,,,,,33.0,,,,,240,note_off,,80.0,33.0,80.0,530880,553.0
2860,4.0,,,,,,33.0,,,,,0,note_on,,95.0,33.0,95.0,530880,553.0
2861,4.0,,,,,,33.0,,,,,240,note_off,,80.0,33.0,80.0,531120,553.25
2862,4.0,,,,,,33.0,,,,,0,note_on,,95.0,33.0,95.0,531120,553.25
2863,4.0,,,,,,33.0,,,,,240,note_off,,80.0,33.0,80.0,531360,553.5
2864,4.0,,,,,,33.0,,,,,0,note_on,,95.0,33.0,95.0,531360,553.5
2865,4.0,,,,,,33.0,,,,,240,note_off,,80.0,33.0,80.0,531600,553.75
2866,4.0,,,,,,33.0,,,,,0,note_on,,95.0,33.0,95.0,531600,553.75
2867,4.0,,,,,,33.0,,,,,240,note_off,,80.0,33.0,80.0,531840,554.0
2868,4.0,,,,,,40.0,,,,,0,note_on,,95.0,40.0,95.0,531840,554.0
2869,4.0,,,,,,40.0,,,,,720,note_off,,80.0,40.0,80.0,532560,554.75
2870,4.0,,,,,,40.0,,,,,0,note_on,,95.0,40.0,95.0,532560,554.75
2871,4.0,,,,,,40.0,,,,,120,note_off,,80.0,40.0,80.0,532680,554.875
2872,4.0,,,,,,43.0,,,,,120,note_on,,95.0,43.0,95.0,532800,555.0
2873,4.0,,,,,,43.0,,,,,120,note_off,,80.0,43.0,80.0,532920,555.125
2874,4.0,,,,,,40.0,,,,,240,note_on,,95.0,40.0,95.0,533160,555.375
2875,4.0,,,,,,40.0,,,,,120,note_off,,80.0,40.0,80.0,533280,555.5
2876,4.0,,,,,,38.0,,,,,240,note_on,,95.0,38.0,95.0,533520,555.75
2877,4.0,,,,,,38.0,,,,,240,note_off,,80.0,38.0,80.0,533760,556.0
2878,4.0,,,,,,36.0,,,,,0,note_on,,95.0,36.0,95.0,533760,556.0
2879,4.0,,,,,,36.0,,,,,960,note_off,,80.0,36.0,80.0,534720,557.0
2880,4.0,,,,,,35.0,,,,,0,note_on,,95.0,35.0,95.0,534720,557.0
2881,4.0,,,,,,35.0,,,,,960,note_off,,80.0,35.0,80.0,535680,558.0
2882,4.0,,,,,,40.0,,,,,0,note_on,,95.0,40.0,95.0,535680,558.0
2883,4.0,,,,,,40.0,,,,,720,note_off,,80.0,40.0,80.0,536400,558.75
2884,4.0,,,,,,40.0,,,,,0,note_on,,95.0,40.0,95.0,536400,558.75
2885,4.0,,,,,,40.0,,,,,120,note_off,,80.0,40.0,80.0,536520,558.875
2886,4.0,,,,,,43.0,,,,,120,note_on,,95.0,43.0,95.0,536640,559.0
2887,4.0,,,,,,43.0,,,,,120,note_off,,80.0,43.0,80.0,536760,559.125
2888,4.0,,,,,,40.0,,,,,240,note_on,,95.0,40.0,95.0,537000,559.375
2889,4.0,,,,,,40.0,,,,,120,note_off,,80.0,40.0,80.0,537120,559.5
2890,4.0,,,,,,38.0,,,,,240,note_on,,95.0,38.0,95.0,537360,559.75
2891,4.0,,,,,,38.0,,,,,240,note_off,,80.0,38.0,80.0,537600,560.0
2892,4.0,,,,,,36.0,,,,,0,note_on,,95.0,36.0,95.0,537600,560.0
2893,4.0,,,,,,36.0,,,,,960,note_off,,80.0,36.0,80.0,538560,561.0
2894,4.0,,,,,,35.0,,,,,0,note_on,,95.0,35.0,95.0,538560,561.0
2895,4.0,,,,,,35.0,,,,,960,note_off,,80.0,35.0,80.0,539520,562.0
2896,4.0,,,,,,40.0,,,,,0,note_on,,95.0,40.0,95.0,539520,562.0
2897,4.0,,,,,,40.0,,,,,720,note_off,,80.0,40.0,80.0,540240,562.75
2898,4.0,,,,,,40.0,,,,,0,note_on,,95.0,40.0,95.0,540240,562.75
2899,4.0,,,,,,40.0,,,,,120,note_off,,80.0,40.0,80.0,540360,562.875
2900,4.0,,,,,,43.0,,,,,120,note_on,,95.0,43.0,95.0,540480,563.0
2901,4.0,,,,,,43.0,,,,,120,note_off,,80.0,43.0,80.0,540600,563.125
2902,4.0,,,,,,40.0,,,,,240,note_on,,95.0,40.0,95.0,540840,563.375
2903,4.0,,,,,,40.0,,,,,120,note_off,,80.0,40.0,80.0,540960,563.5
2904,4.0,,,,,,38.0,,,,,240,note_on,,95.0,38.0,95.0,541200,563.75
2905,4.0,,,,,,38.0,,,,,240,note_off,,80.0,38.0,80.0,541440,564.0
2906,4.0,,,,,,36.0,,,,,0,note_on,,95.0,36.0,95.0,541440,564.0
2907,4.0,,,,,,36.0,,,,,960,note_off,,80.0,36.0,80.0,542400,565.0
2908,4.0,,,,,,35.0,,,,,0,note_on,,95.0,35.0,95.0,542400,565.0
2909,4.0,,,,,,35.0,,,,,960,note_off,,80.0,35.0,80.0,543360,566.0
2910,4.0,,,,,,40.0,,,,,0,note_on,,95.0,40.0,95.0,543360,566.0
2911,4.0,,,,,,40.0,,,,,720,note_off,,80.0,40.0,80.0,544080,566.75
2912,4.0,,,,,,40.0,,,,,0,note_on,,95.0,40.0,95.0,544080,566.75
2913,4.0,,,,,,40.0,,,,,120,note_off,,80.0,40.0,80.0,544200,566.875
2914,4.0,,,,,,43.0,,,,,120,note_on,,95.0,43.0,95.0,544320,567.0
2915,4.0,,,,,,43.0,,,,,120,note_off,,80.0,43.0,80.0,544440,567.125
2916,4.0,,,,,,40.0,,,,,240,note_on,,95.0,40.0,95.0,544680,567.375
2917,4.0,,,,,,40.0,,,,,120,note_off,,80.0,40.0,80.0,544800,567.5
2918,4.0,,,,,,38.0,,,,,240,note_on,,95.0,38.0,95.0,545040,567.75
2919,4.0,,,,,,38.0,,,,,240,note_off,,80.0,38.0,80.0,545280,568.0
2920,4.0,,,,,,36.0,,,,,0,note_on,,95.0,36.0,95.0,545280,568.0
2921,4.0,,,,,,36.0,,,,,960,note_off,,80.0,36.0,80.0,546240,569.0
2922,4.0,,,,,,35.0,,,,,0,note_on,,95.0,35.0,95.0,546240,569.0
2923,4.0,,,,,,35.0,,,,,960,note_off,,80.0,35.0,80.0,547200,570.0
2924,4.0,,,,,,40.0,,,,,0,note_on,,95.0,40.0,95.0,547200,570.0
2925,4.0,,,,,,40.0,,,,,720,note_off,,80.0,40.0,80.0,547920,570.75
2926,4.0,,,,,,40.0,,,,,0,note_on,,95.0,40.0,95.0,547920,570.75
2927,4.0,,,,,,40.0,,,,,120,note_off,,80.0,40.0,80.0,548040,570.875
2928,4.0,,,,,,43.0,,,,,120,note_on,,95.0,43.0,95.0,548160,571.0
2929,4.0,,,,,,43.0,,,,,120,note_off,,80.0,43.0,80.0,548280,571.125
2930,4.0,,,,,,40.0,,,,,240,note_on,,95.0,40.0,95.0,548520,571.375
2931,4.0,,,,,,40.0,,,,,120,note_off,,80.0,40.0,80.0,548640,571.5
2932,4.0,,,,,,38.0,,,,,240,note_on,,95.0,38.0,95.0,548880,571.75
2933,4.0,,,,,,38.0,,,,,240,note_off,,80.0,38.0,80.0,549120,572.0
2934,4.0,,,,,,36.0,,,,,0,note_on,,95.0,36.0,95.0,549120,572.0
2935,4.0,,,,,,36.0,,,,,960,note_off,,80.0,36.0,80.0,550080,573.0
2936,4.0,,,,,,35.0,,,,,0,note_on,,95.0,35.0,95.0,550080,573.0
2937,4.0,,,,,,35.0,,,,,960,note_off,,80.0,35.0,80.0,551040,574.0
2938,4.0,,,,,,40.0,,,,,0,note_on,,95.0,40.0,95.0,551040,574.0
2939,4.0,,,,,,40.0,,,,,720,note_off,,80.0,40.0,80.0,551760,574.75
2940,4.0,,,,,,40.0,,,,,0,note_on,,95.0,40.0,95.0,551760,574.75
2941,4.0,,,,,,40.0,,,,,120,note_off,,80.0,40.0,80.0,551880,574.875
2942,4.0,,,,,,43.0,,,,,120,note_on,,95.0,43.0,95.0,552000,575.0
2943,4.0,,,,,,43.0,,,,,120,note_off,,80.0,43.0,80.0,552120,575.125
2944,4.0,,,,,,40.0,,,,,240,note_on,,95.0,40.0,95.0,552360,575.375
2945,4.0,,,,,,40.0,,,,,120,note_off,,80.0,40.0,80.0,552480,575.5
2946,4.0,,,,,,38.0,,,,,240,note_on,,95.0,38.0,95.0,552720,575.75
2947,4.0,,,,,,38.0,,,,,240,note_off,,80.0,38.0,80.0,552960,576.0
2948,4.0,,,,,,36.0,,,,,0,note_on,,95.0,36.0,95.0,552960,576.0
2949,4.0,,,,,,36.0,,,,,960,note_off,,80.0,36.0,80.0,553920,577.0
2950,4.0,,,,,,35.0,,,,,0,note_on,,95.0,35.0,95.0,553920,577.0
2951,4.0,,,,,,35.0,,,,,960,note_off,,80.0,35.0,80.0,554880,578.0
2952,4.0,,,,,,40.0,,,,,0,note_on,,95.0,40.0,95.0,554880,578.0
2953,4.0,,,,,,40.0,,,,,720,note_off,,80.0,40.0,80.0,555600,578.75
2954,4.0,,,,,,40.0,,,,,0,note_on,,95.0,40.0,95.0,555600,578.75
2955,4.0,,,,,,40.0,,,,,120,note_off,,80.0,40.0,80.0,555720,578.875
2956,4.0,,,,,,43.0,,,,,120,note_on,,95.0,43.0,95.0,555840,579.0
2957,4.0,,,,,,43.0,,,,,120,note_off,,80.0,43.0,80.0,555960,579.125
2958,4.0,,,,,,40.0,,,,,240,note_on,,95.0,40.0,95.0,556200,579.375
2959,4.0,,,,,,40.0,,,,,120,note_off,,80.0,40.0,80.0,556320,579.5
2960,4.0,,,,,,38.0,,,,,240,note_on,,95.0,38.0,95.0,556560,579.75
2961,4.0,,,,,,38.0,,,,,240,note_off,,80.0,38.0,80.0,556800,580.0
2962,4.0,,,,,,36.0,,,,,0,note_on,,95.0,36.0,95.0,556800,580.0
2963,4.0,,,,,,36.0,,,,,960,note_off,,80.0,36.0,80.0,557760,581.0
2964,4.0,,,,,,35.0,,,,,0,note_on,,95.0,35.0,95.0,557760,581.0
2965,4.0,,,,,,35.0,,,,,960,note_off,,80.0,35.0,80.0,558720,582.0
2966,4.0,,,,,,40.0,,,,,0,note_on,,95.0,40.0,95.0,558720,582.0
2967,4.0,,,,,,40.0,,,,,720,note_off,,80.0,40.0,80.0,559440,582.75
2968,4.0,,,,,,40.0,,,,,0,note_on,,95.0,40.0,95.0,559440,582.75
2969,4.0,,,,,,40.0,,,,,120,note_off,,80.0,40.0,80.0,559560,582.875
2970,4.0,,,,,,43.0,,,,,120,note_on,,95.0,43.0,95.0,559680,583.0
2971,4.0,,,,,,43.0,,,,,120,note_off,,80.0,43.0,80.0,559800,583.125
2972,4.0,,,,,,40.0,,,,,240,note_on,,95.0,40.0,95.0,560040,583.375
2973,4.0,,,,,,40.0,,,,,120,note_off,,80.0,40.0,80.0,560160,583.5
2974,4.0,,,,,,38.0,,,,,240,note_on,,95.0,38.0,95.0,560400,583.75
2975,4.0,,,,,,38.0,,,,,240,note_off,,80.0,38.0,80.0,560640,584.0
2976,4.0,,,,,,36.0,,,,,0,note_on,,95.0,36.0,95.0,560640,584.0
2977,4.0,,,,,,36.0,,,,,960,note_off,,80.0,36.0,80.0,561600,585.0
2978,4.0,,,,,,35.0,,,,,0,note_on,,95.0,35.0,95.0,561600,585.0
2979,4.0,,,,,,35.0,,,,,960,note_off,,80.0,35.0,80.0,562560,586.0
2980,4.0,,,,,,40.0,,,,,0,note_on,,95.0,40.0,95.0,562560,586.0
2981,4.0,,,,,,40.0,,,,,720,note_off,,80.0,40.0,80.0,563280,586.75
2982,4.0,,,,,,40.0,,,,,0,note_on,,95.0,40.0,95.0,563280,586.75
2983,4.0,,,,,,40.0,,,,,120,note_off,,80.0,40.0,80.0,563400,586.875
2984,4.0,,,,,,43.0,,,,,120,note_on,,95.0,43.0,95.0,563520,587.0
2985,4.0,,,,,,43.0,,,,,120,note_off,,80.0,43.0,80.0,563640,587.125
2986,4.0,,,,,,40.0,,,,,240,note_on,,95.0,40.0,95.0,563880,587.375
2987,4.0,,,,,,40.0,,,,,120,note_off,,80.0,40.0,80.0,564000,587.5
2988,4.0,,,,,,38.0,,,,,240,note_on,,95.0,38.0,95.0,564240,587.75
2989,4.0,,,,,,38.0,,,,,240,note_off,,80.0,38.0,80.0,564480,588.0
2990,4.0,,,,,,36.0,,,,,0,note_on,,95.0,36.0,95.0,564480,588.0
2991,4.0,,,,,,36.0,,,,,960,note_off,,80.0,36.0,80.0,565440,589.0
2992,4.0,,,,,,35.0,,,,,0,note_on,,95.0,35.0,95.0,565440,589.0
2993,4.0,,,,,,35.0,,,,,960,note_off,,80.0,35.0,80.0,566400,590.0
2994,4.0,,,,,,40.0,,,,,0,note_on,,95.0,40.0,95.0,566400,590.0
2995,4.0,,,,,,40.0,,,,,720,note_off,,80.0,40.0,80.0,567120,590.75
2996,4.0,,,,,,40.0,,,,,0,note_on,,95.0,40.0,95.0,567120,590.75
2997,4.0,,,,,,40.0,,,,,120,note_off,,80.0,40.0,80.0,567240,590.875
2998,4.0,,,,,,43.0,,,,,120,note_on,,95.0,43.0,95.0,567360,591.0
2999,4.0,,,,,,43.0,,,,,120,note_off,,80.0,43.0,80.0,567480,591.125
3000,4.0,,,,,,40.0,,,,,240,note_on,,95.0,40.0,95.0,567720,591.375
3001,4.0,,,,,,40.0,,,,,120,note_off,,80.0,40.0,80.0,567840,591.5
3002,4.0,,,,,,38.0,,,,,240,note_on,,95.0,38.0,95.0,568080,591.75
3003,4.0,,,,,,38.0,,,,,240,note_off,,80.0,38.0,80.0,568320,592.0
3004,4.0,,,,,,36.0,,,,,0,note_on,,95.0,36.0,95.0,568320,592.0
3005,4.0,,,,,,36.0,,,,,960,note_off,,80.0,36.0,80.0,569280,593.0
3006,4.0,,,,,,35.0,,,,,0,note_on,,95.0,35.0,95.0,569280,593.0
3007,4.0,,,,,,35.0,,,,,960,note_off,,80.0,35.0,80.0,570240,594.0
3008,4.0,,,,,,40.0,,,,,0,note_on,,95.0,40.0,95.0,570240,594.0
3009,4.0,,,,,,40.0,,,,,720,note_off,,80.0,40.0,80.0,570960,594.75
3010,4.0,,,,,,40.0,,,,,0,note_on,,95.0,40.0,95.0,570960,594.75
3011,4.0,,,,,,40.0,,,,,120,note_off,,80.0,40.0,80.0,571080,594.875
3012,4.0,,,,,,43.0,,,,,120,note_on,,95.0,43.0,95.0,571200,595.0
3013,4.0,,,,,,43.0,,,,,120,note_off,,80.0,43.0,80.0,571320,595.125
3014,4.0,,,,,,40.0,,,,,240,note_on,,95.0,40.0,95.0,571560,595.375
3015,4.0,,,,,,40.0,,,,,120,note_off,,80.0,40.0,80.0,571680,595.5
3016,4.0,,,,,,38.0,,,,,240,note_on,,95.0,38.0,95.0,571920,595.75
3017,4.0,,,,,,38.0,,,,,240,note_off,,80.0,38.0,80.0,572160,596.0
3018,4.0,,,,,,36.0,,,,,0,note_on,,95.0,36.0,95.0,572160,596.0
3019,4.0,,,,,,36.0,,,,,960,note_off,,80.0,36.0,80.0,573120,597.0
3020,4.0,,,,,,35.0,,,,,0,note_on,,95.0,35.0,95.0,573120,597.0
3021,4.0,,,,,,35.0,,,,,960,note_off,,80.0,35.0,80.0,574080,598.0
3022,4.0,,,,,,31.0,,,,,0,note_on,,95.0,31.0,95.0,574080,598.0
3023,4.0,,,,,,31.0,,,,,240,note_off,,80.0,31.0,80.0,574320,598.25
3024,4.0,,,,,,31.0,,,,,0,note_on,,95.0,31.0,95.0,574320,598.25
3025,4.0,,,,,,31.0,,,,,240,note_off,,80.0,31.0,80.0,574560,598.5
3026,4.0,,,,,,31.0,,,,,0,note_on,,95.0,31.0,95.0,574560,598.5
3027,4.0,,,,,,31.0,,,,,240,note_off,,80.0,31.0,80.0,574800,598.75
3028,4.0,,,,,,31.0,,,,,0,note_on,,95.0,31.0,95.0,574800,598.75
3029,4.0,,,,,,31.0,,,,,240,note_off,,80.0,31.0,80.0,575040,599.0
3030,4.0,,,,,,31.0,,,,,0,note_on,,95.0,31.0,95.0,575040,599.0
3031,4.0,,,,,,31.0,,,,,240,note_off,,80.0,31.0,80.0,575280,599.25
3032,4.0,,,,,,31.0,,,,,0,note_on,,95.0,31.0,95.0,575280,599.25
3033,4.0,,,,,,31.0,,,,,240,note_off,,80.0,31.0,80.0,575520,599.5
3034,4.0,,,,,,31.0,,,,,0,note_on,,95.0,31.0,95.0,575520,599.5
3035,4.0,,,,,,31.0,,,,,240,note_off,,80.0,31.0,80.0,575760,599.75
3036,4.0,,,,,,31.0,,,,,0,note_on,,95.0,31.0,95.0,575760,599.75
3037,4.0,,,,,,31.0,,,,,240,note_off,,80.0,31.0,80.0,576000,600.0
3038,4.0,,,,,,33.0,,,,,0,note_on,,95.0,33.0,95.0,576000,600.0
3039,4.0,,,,,,33.0,,,,,240,note_off,,80.0,33.0,80.0,576240,600.25
3040,4.0,,,,,,33.0,,,,,0,note_on,,95.0,33.0,95.0,576240,600.25
3041,4.0,,,,,,33.0,,,,,240,note_off,,80.0,33.0,80.0,576480,600.5
3042,4.0,,,,,,33.0,,,,,0,note_on,,95.0,33.0,95.0,576480,600.5
3043,4.0,,,,,,33.0,,,,,240,note_off,,80.0,33.0,80.0,576720,600.75
3044,4.0,,,,,,33.0,,,,,0,note_on,,95.0,33.0,95.0,576720,600.75
3045,4.0,,,,,,33.0,,,,,240,note_off,,80.0,33.0,80.0,576960,601.0
3046,4.0,,,,,,33.0,,,,,0,note_on,,95.0,33.0,95.0,576960,601.0
3047,4.0,,,,,,33.0,,,,,240,note_off,,80.0,33.0,80.0,577200,601.25
3048,4.0,,,,,,33.0,,,,,0,note_on,,95.0,33.0,95.0,577200,601.25
3049,4.0,,,,,,33.0,,,,,240,note_off,,80.0,33.0,80.0,577440,601.5
3050,4.0,,,,,,33.0,,,,,0,note_on,,95.0,33.0,95.0,577440,601.5
3051,4.0,,,,,,33.0,,,,,240,note_off,,80.0,33.0,80.0,577680,601.75
3052,4.0,,,,,,33.0,,,,,0,note_on,,95.0,33.0,95.0,577680,601.75
3053,4.0,,,,,,33.0,,,,,240,note_off,,80.0,33.0,80.0,577920,602.0
3054,4.0,,,,,,40.0,,,,,0,note_on,,95.0,40.0,95.0,577920,602.0
3055,4.0,,,,,,40.0,,,,,720,note_off,,80.0,40.0,80.0,578640,602.75
3056,4.0,,,,,,40.0,,,,,0,note_on,,95.0,40.0,95.0,578640,602.75
3057,4.0,,,,,,40.0,,,,,120,note_off,,80.0,40.0,80.0,578760,602.875
3058,4.0,,,,,,43.0,,,,,120,note_on,,95.0,43.0,95.0,578880,603.0
3059,4.0,,,,,,43.0,,,,,120,note_off,,80.0,43.0,80.0,579000,603.125
3060,4.0,,,,,,40.0,,,,,240,note_on,,95.0,40.0,95.0,579240,603.375
3061,4.0,,,,,,40.0,,,,,120,note_off,,80.0,40.0,80.0,579360,603.5
3062,4.0,,,,,,38.0,,,,,240,note_on,,95.0,38.0,95.0,579600,603.75
3063,4.0,,,,,,38.0,,,,,240,note_off,,80.0,38.0,80.0,579840,604.0
3064,4.0,,,,,,36.0,,,,,0,note_on,,95.0,36.0,95.0,579840,604.0
3065,4.0,,,,,,36.0,,,,,960,note_off,,80.0,36.0,80.0,580800,605.0
3066,4.0,,,,,,35.0,,,,,0,note_on,,95.0,35.0,95.0,580800,605.0
3067,4.0,,,,,,35.0,,,,,960,note_off,,80.0,35.0,80.0,581760,606.0
3068,4.0,,,,,,40.0,,,,,0,note_on,,95.0,40.0,95.0,581760,606.0
3069,4.0,,,,,,40.0,,,,,720,note_off,,80.0,40.0,80.0,582480,606.75
3070,4.0,,,,,,40.0,,,,,0,note_on,,95.0,40.0,95.0,582480,606.75
3071,4.0,,,,,,40.0,,,,,120,note_off,,80.0,40.0,80.0,582600,606.875
3072,4.0,,,,,,43.0,,,,,120,note_on,,95.0,43.0,95.0,582720,607.0
3073,4.0,,,,,,43.0,,,,,120,note_off,,80.0,43.0,80.0,582840,607.125
3074,4.0,,,,,,40.0,,,,,240,note_on,,95.0,40.0,95.0,583080,607.375
3075,4.0,,,,,,40.0,,,,,120,note_off,,80.0,40.0,80.0,583200,607.5
3076,4.0,,,,,,38.0,,,,,240,note_on,,95.0,38.0,95.0,583440,607.75
3077,4.0,,,,,,38.0,,,,,240,note_off,,80.0,38.0,80.0,583680,608.0
3078,4.0,,,,,,36.0,,,,,0,note_on,,95.0,36.0,95.0,583680,608.0
3079,4.0,,,,,,36.0,,,,,360,note_off,,80.0,36.0,80.0,584040,608.375
3080,4.0,,,,,,38.0,,,,,0,note_on,,95.0,38.0,95.0,584040,608.375
3081,4.0,,,,,,38.0,,,,,360,note_off,,80.0,38.0,80.0,584400,608.75
3082,4.0,,,,,,36.0,,,,,0,note_on,,95.0,36.0,95.0,584400,608.75
3083,4.0,,,,,,36.0,,,,,240,note_off,,80.0,36.0,80.0,584640,609.0
3084,4.0,,,,,,35.0,,,,,0,note_on,,95.0,35.0,95.0,584640,609.0
3085,4.0,,,,,,35.0,,,,,960,note_off,,80.0,35.0,80.0,585600,610.0
3086,4.0,,,,,,40.0,,,,,0,note_on,,95.0,40.0,95.0,585600,610.0
3087,4.0,,,,,,40.0,,,,,720,note_off,,80.0,40.0,80.0,586320,610.75
3088,4.0,,,,,,40.0,,,,,0,note_on,,95.0,40.0,95.0,586320,610.75
3089,4.0,,,,,,40.0,,,,,120,note_off,,80.0,40.0,80.0,586440,610.875
3090,4.0,,,,,,43.0,,,,,120,note_on,,95.0,43.0,95.0,586560,611.0
3091,4.0,,,,,,43.0,,,,,120,note_off,,80.0,43.0,80.0,586680,611.125
3092,4.0,,,,,,40.0,,,,,240,note_on,,95.0,40.0,95.0,586920,611.375
3093,4.0,,,,,,40.0,,,,,120,note_off,,80.0,40.0,80.0,587040,611.5
3094,4.0,,,,,,38.0,,,,,240,note_on,,95.0,38.0,95.0,587280,611.75
3095,4.0,,,,,,38.0,,,,,240,note_off,,80.0,38.0,80.0,587520,612.0
3096,4.0,,,,,,36.0,,,,,0,note_on,,95.0,36.0,95.0,587520,612.0
3097,4.0,,,,,,36.0,,,,,960,note_off,,80.0,36.0,80.0,588480,613.0
3098,4.0,,,,,,35.0,,,,,0,note_on,,95.0,35.0,95.0,588480,613.0
3099,4.0,,,,,,35.0,,,,,960,note_off,,80.0,35.0,80.0,589440,614.0
3100,4.0,,,,,,40.0,,,,,0,note_on,,95.0,40.0,95.0,589440,614.0
3101,4.0,,,,,,40.0,,,,,720,note_off,,80.0,40.0,80.0,590160,614.75
3102,4.0,,,,,,40.0,,,,,0,note_on,,95.0,40.0,95.0,590160,614.75
3103,4.0,,,,,,40.0,,,,,120,note_off,,80.0,40.0,80.0,590280,614.875
3104,4.0,,,,,,43.0,,,,,120,note_on,,95.0,43.0,95.0,590400,615.0
3105,4.0,,,,,,43.0,,,,,120,note_off,,80.0,43.0,80.0,590520,615.125
3106,4.0,,,,,,40.0,,,,,240,note_on,,95.0,40.0,95.0,590760,615.375
3107,4.0,,,,,,40.0,,,,,120,note_off,,80.0,40.0,80.0,590880,615.5
3108,4.0,,,,,,38.0,,,,,240,note_on,,95.0,38.0,95.0,591120,615.75
3109,4.0,,,,,,38.0,,,,,240,note_off,,80.0,38.0,80.0,591360,616.0
3110,4.0,,,,,,36.0,,,,,0,note_on,,95.0,36.0,95.0,591360,616.0
3111,4.0,,,,,,36.0,,,,,360,note_off,,80.0,36.0,80.0,591720,616.375
3112,4.0,,,,,,38.0,,,,,0,note_on,,95.0,38.0,95.0,591720,616.375
3113,4.0,,,,,,38.0,,,,,360,note_off,,80.0,38.0,80.0,592080,616.75
3114,4.0,,,,,,36.0,,,,,0,note_on,,95.0,36.0,95.0,592080,616.75
3115,4.0,,,,,,36.0,,,,,240,note_off,,80.0,36.0,80.0,592320,617.0
3116,4.0,,,,,,35.0,,,,,0,note_on,,95.0,35.0,95.0,592320,617.0
3117,4.0,,,,,,35.0,,,,,960,note_off,,80.0,35.0,80.0,593280,618.0
3118,4.0,,,,,,40.0,,,,,0,note_on,,95.0,40.0,95.0,593280,618.0
3119,4.0,,,,,,40.0,,,,,1920,note_off,,80.0,40.0,80.0,595200,620.0
3120,,,,,,,,,,,,0,end_of_track,,,,,595200,620.0
3121,,,,,Drums (Meg White),,,,,,,0,track_name,,,,,595200,620.0
3122,9.0,,100.0,,,,,,,,,0,control_change,0.0,,,,595200,620.0
3123,9.0,,101.0,,,,,,,,,0,control_change,0.0,,,,595200,620.0
3124,9.0,,6.0,,,,,,,,,0,control_change,12.0,,,,595200,620.0
3125,9.0,,,,,,,,0.0,,,0,pitchwheel,,,,,595200,620.0
3126,9.0,,,,,,,,,0.0,,0,program_change,,,,,595200,620.0
3127,9.0,,7.0,,,,,,,,,0,control_change,127.0,,,,595200,620.0
3128,9.0,,10.0,,,,,,,,,0,control_change,64.0,,,,595200,620.0
3129,9.0,,93.0,,,,,,,,,0,control_change,0.0,,,,595200,620.0
3130,9.0,,91.0,,,,,,,,,0,control_change,0.0,,,,595200,620.0
3131,9.0,,92.0,,,,,,,,,0,control_change,0.0,,,,595200,620.0
3132,9.0,,95.0,,,,,,,,,0,control_change,0.0,,,,595200,620.0
3133,9.0,,,,,,44.0,,,,,7680,note_on,,95.0,44.0,95.0,602880,628.0
3134,9.0,,,,,,41.0,,,,,0,note_on,,95.0,41.0,95.0,602880,628.0
3135,9.0,,,,,,36.0,,,,,0,note_on,,95.0,36.0,95.0,602880,628.0
3136,9.0,,,,,,44.0,,,,,480,note_off,,80.0,44.0,80.0,603360,628.5
3137,9.0,,,,,,41.0,,,,,0,note_off,,80.0,41.0,80.0,603360,628.5
3138,9.0,,,,,,36.0,,,,,0,note_off,,80.0,36.0,80.0,603360,628.5
3139,9.0,,,,,,44.0,,,,,0,note_on,,95.0,44.0,95.0,603360,628.5
3140,9.0,,,,,,41.0,,,,,0,note_on,,95.0,41.0,95.0,603360,628.5
3141,9.0,,,,,,36.0,,,,,0,note_on,,95.0,36.0,95.0,603360,628.5
3142,9.0,,,,,,44.0,,,,,480,note_off,,80.0,44.0,80.0,603840,629.0
3143,9.0,,,,,,41.0,,,,,0,note_off,,80.0,41.0,80.0,603840,629.0
3144,9.0,,,,,,36.0,,,,,0,note_off,,80.0,36.0,80.0,603840,629.0
3145,9.0,,,,,,44.0,,,,,0,note_on,,95.0,44.0,95.0,603840,629.0
3146,9.0,,,,,,41.0,,,,,0,note_on,,95.0,41.0,95.0,603840,629.0
3147,9.0,,,,,,36.0,,,,,0,note_on,,95.0,36.0,95.0,603840,629.0
3148,9.0,,,,,,44.0,,,,,480,note_off,,80.0,44.0,80.0,604320,629.5
3149,9.0,,,,,,41.0,,,,,0,note_off,,80.0,41.0,80.0,604320,629.5
3150,9.0,,,,,,36.0,,,,,0,note_off,,80.0,36.0,80.0,604320,629.5
3151,9.0,,,,,,44.0,,,,,0,note_on,,95.0,44.0,95.0,604320,629.5
3152,9.0,,,,,,41.0,,,,,0,note_on,,95.0,41.0,95.0,604320,629.5
3153,9.0,,,,,,36.0,,,,,0,note_on,,95.0,36.0,95.0,604320,629.5
3154,9.0,,,,,,44.0,,,,,480,note_off,,80.0,44.0,80.0,604800,630.0
3155,9.0,,,,,,41.0,,,,,0,note_off,,80.0,41.0,80.0,604800,630.0
3156,9.0,,,,,,36.0,,,,,0,note_off,,80.0,36.0,80.0,604800,630.0
3157,9.0,,,,,,44.0,,,,,0,note_on,,95.0,44.0,95.0,604800,630.0
3158,9.0,,,,,,41.0,,,,,0,note_on,,95.0,41.0,95.0,604800,630.0
3159,9.0,,,,,,36.0,,,,,0,note_on,,95.0,36.0,95.0,604800,630.0
3160,9.0,,,,,,44.0,,,,,480,note_off,,80.0,44.0,80.0,605280,630.5
3161,9.0,,,,,,41.0,,,,,0,note_off,,80.0,41.0,80.0,605280,630.5
3162,9.0,,,,,,36.0,,,,,0,note_off,,80.0,36.0,80.0,605280,630.5
3163,9.0,,,,,,44.0,,,,,0,note_on,,95.0,44.0,95.0,605280,630.5
3164,9.0,,,,,,41.0,,,,,0,note_on,,95.0,41.0,95.0,605280,630.5
3165,9.0,,,,,,36.0,,,,,0,note_on,,95.0,36.0,95.0,605280,630.5
3166,9.0,,,,,,44.0,,,,,480,note_off,,80.0,44.0,80.0,605760,631.0
3167,9.0,,,,,,41.0,,,,,0,note_off,,80.0,41.0,80.0,605760,631.0
3168,9.0,,,,,,36.0,,,,,0,note_off,,80.0,36.0,80.0,605760,631.0
3169,9.0,,,,,,44.0,,,,,0,note_on,,95.0,44.0,95.0,605760,631.0
3170,9.0,,,,,,41.0,,,,,0,note_on,,95.0,41.0,95.0,605760,631.0
3171,9.0,,,,,,36.0,,,,,0,note_on,,95.0,36.0,95.0,605760,631.0
3172,9.0,,,,,,44.0,,,,,480,note_off,,80.0,44.0,80.0,606240,631.5
3173,9.0,,,,,,41.0,,,,,0,note_off,,80.0,41.0,80.0,606240,631.5
3174,9.0,,,,,,36.0,,,,,0,note_off,,80.0,36.0,80.0,606240,631.5
3175,9.0,,,,,,44.0,,,,,0,note_on,,95.0,44.0,95.0,606240,631.5
3176,9.0,,,,,,41.0,,,,,0,note_on,,95.0,41.0,95.0,606240,631.5
3177,9.0,,,,,,36.0,,,,,0,note_on,,95.0,36.0,95.0,606240,631.5
3178,9.0,,,,,,44.0,,,,,480,note_off,,80.0,44.0,80.0,606720,632.0
3179,9.0,,,,,,41.0,,,,,0,note_off,,80.0,41.0,80.0,606720,632.0
3180,9.0,,,,,,36.0,,,,,0,note_off,,80.0,36.0,80.0,606720,632.0
3181,9.0,,,,,,44.0,,,,,0,note_on,,95.0,44.0,95.0,606720,632.0
3182,9.0,,,,,,41.0,,,,,0,note_on,,95.0,41.0,95.0,606720,632.0
3183,9.0,,,,,,36.0,,,,,0,note_on,,95.0,36.0,95.0,606720,632.0
3184,9.0,,,,,,44.0,,,,,480,note_off,,80.0,44.0,80.0,607200,632.5
3185,9.0,,,,,,41.0,,,,,0,note_off,,80.0,41.0,80.0,607200,632.5
3186,9.0,,,,,,36.0,,,,,0,note_off,,80.0,36.0,80.0,607200,632.5
3187,9.0,,,,,,44.0,,,,,0,note_on,,95.0,44.0,95.0,607200,632.5
3188,9.0,,,,,,41.0,,,,,0,note_on,,95.0,41.0,95.0,607200,632.5
3189,9.0,,,,,,36.0,,,,,0,note_on,,95.0,36.0,95.0,607200,632.5
3190,9.0,,,,,,44.0,,,,,480,note_off,,80.0,44.0,80.0,607680,633.0
3191,9.0,,,,,,41.0,,,,,0,note_off,,80.0,41.0,80.0,607680,633.0
3192,9.0,,,,,,36.0,,,,,0,note_off,,80.0,36.0,80.0,607680,633.0
3193,9.0,,,,,,44.0,,,,,0,note_on,,95.0,44.0,95.0,607680,633.0
3194,9.0,,,,,,41.0,,,,,0,note_on,,95.0,41.0,95.0,607680,633.0
3195,9.0,,,,,,36.0,,,,,0,note_on,,95.0,36.0,95.0,607680,633.0
3196,9.0,,,,,,44.0,,,,,480,note_off,,80.0,44.0,80.0,608160,633.5
3197,9.0,,,,,,41.0,,,,,0,note_off,,80.0,41.0,80.0,608160,633.5
3198,9.0,,,,,,36.0,,,,,0,note_off,,80.0,36.0,80.0,608160,633.5
3199,9.0,,,,,,44.0,,,,,0,note_on,,95.0,44.0,95.0,608160,633.5
3200,9.0,,,,,,41.0,,,,,0,note_on,,95.0,41.0,95.0,608160,633.5
3201,9.0,,,,,,36.0,,,,,0,note_on,,95.0,36.0,95.0,608160,633.5
3202,9.0,,,,,,44.0,,,,,480,note_off,,80.0,44.0,80.0,608640,634.0
3203,9.0,,,,,,41.0,,,,,0,note_off,,80.0,41.0,80.0,608640,634.0
3204,9.0,,,,,,36.0,,,,,0,note_off,,80.0,36.0,80.0,608640,634.0
3205,9.0,,,,,,44.0,,,,,0,note_on,,95.0,44.0,95.0,608640,634.0
3206,9.0,,,,,,41.0,,,,,0,note_on,,95.0,41.0,95.0,608640,634.0
3207,9.0,,,,,,36.0,,,,,0,note_on,,95.0,36.0,95.0,608640,634.0
3208,9.0,,,,,,44.0,,,,,480,note_off,,80.0,44.0,80.0,609120,634.5
3209,9.0,,,,,,41.0,,,,,0,note_off,,80.0,41.0,80.0,609120,634.5
3210,9.0,,,,,,36.0,,,,,0,note_off,,80.0,36.0,80.0,609120,634.5
3211,9.0,,,,,,44.0,,,,,0,note_on,,95.0,44.0,95.0,609120,634.5
3212,9.0,,,,,,41.0,,,,,0,note_on,,95.0,41.0,95.0,609120,634.5
3213,9.0,,,,,,36.0,,,,,0,note_on,,95.0,36.0,95.0,609120,634.5
3214,9.0,,,,,,44.0,,,,,480,note_off,,80.0,44.0,80.0,609600,635.0
3215,9.0,,,,,,41.0,,,,,0,note_off,,80.0,41.0,80.0,609600,635.0
3216,9.0,,,,,,36.0,,,,,0,note_off,,80.0,36.0,80.0,609600,635.0
3217,9.0,,,,,,44.0,,,,,0,note_on,,95.0,44.0,95.0,609600,635.0
3218,9.0,,,,,,41.0,,,,,0,note_on,,95.0,41.0,95.0,609600,635.0
3219,9.0,,,,,,36.0,,,,,0,note_on,,95.0,36.0,95.0,609600,635.0
3220,9.0,,,,,,44.0,,,,,480,note_off,,80.0,44.0,80.0,610080,635.5
3221,9.0,,,,,,41.0,,,,,0,note_off,,80.0,41.0,80.0,610080,635.5
3222,9.0,,,,,,36.0,,,,,0,note_off,,80.0,36.0,80.0,610080,635.5
3223,9.0,,,,,,44.0,,,,,0,note_on,,95.0,44.0,95.0,610080,635.5
3224,9.0,,,,,,41.0,,,,,0,note_on,,95.0,41.0,95.0,610080,635.5
3225,9.0,,,,,,36.0,,,,,0,note_on,,95.0,36.0,95.0,610080,635.5
3226,9.0,,,,,,44.0,,,,,480,note_off,,80.0,44.0,80.0,610560,636.0
3227,9.0,,,,,,41.0,,,,,0,note_off,,80.0,41.0,80.0,610560,636.0
3228,9.0,,,,,,36.0,,,,,0,note_off,,80.0,36.0,80.0,610560,636.0
3229,9.0,,,,,,44.0,,,,,0,note_on,,95.0,44.0,95.0,610560,636.0
3230,9.0,,,,,,41.0,,,,,0,note_on,,95.0,41.0,95.0,610560,636.0
3231,9.0,,,,,,36.0,,,,,0,note_on,,95.0,36.0,95.0,610560,636.0
3232,9.0,,,,,,44.0,,,,,480,note_off,,80.0,44.0,80.0,611040,636.5
3233,9.0,,,,,,41.0,,,,,0,note_off,,80.0,41.0,80.0,611040,636.5
3234,9.0,,,,,,36.0,,,,,0,note_off,,80.0,36.0,80.0,611040,636.5
3235,9.0,,,,,,44.0,,,,,0,note_on,,95.0,44.0,95.0,611040,636.5
3236,9.0,,,,,,41.0,,,,,0,note_on,,95.0,41.0,95.0,611040,636.5
3237,9.0,,,,,,36.0,,,,,0,note_on,,95.0,36.0,95.0,611040,636.5
3238,9.0,,,,,,44.0,,,,,480,note_off,,80.0,44.0,80.0,611520,637.0
3239,9.0,,,,,,41.0,,,,,0,note_off,,80.0,41.0,80.0,611520,637.0
3240,9.0,,,,,,36.0,,,,,0,note_off,,80.0,36.0,80.0,611520,637.0
3241,9.0,,,,,,44.0,,,,,0,note_on,,95.0,44.0,95.0,611520,637.0
3242,9.0,,,,,,41.0,,,,,0,note_on,,95.0,41.0,95.0,611520,637.0
3243,9.0,,,,,,36.0,,,,,0,note_on,,95.0,36.0,95.0,611520,637.0
3244,9.0,,,,,,44.0,,,,,480,note_off,,80.0,44.0,80.0,612000,637.5
3245,9.0,,,,,,41.0,,,,,0,note_off,,80.0,41.0,80.0,612000,637.5
3246,9.0,,,,,,36.0,,,,,0,note_off,,80.0,36.0,80.0,612000,637.5
3247,9.0,,,,,,44.0,,,,,0,note_on,,95.0,44.0,95.0,612000,637.5
3248,9.0,,,,,,41.0,,,,,0,note_on,,95.0,41.0,95.0,612000,637.5
3249,9.0,,,,,,36.0,,,,,0,note_on,,95.0,36.0,95.0,612000,637.5
3250,9.0,,,,,,44.0,,,,,480,note_off,,80.0,44.0,80.0,612480,638.0
3251,9.0,,,,,,41.0,,,,,0,note_off,,80.0,41.0,80.0,612480,638.0
3252,9.0,,,,,,36.0,,,,,0,note_off,,80.0,36.0,80.0,612480,638.0
3253,9.0,,,,,,44.0,,,,,0,note_on,,95.0,44.0,95.0,612480,638.0
3254,9.0,,,,,,41.0,,,,,0,note_on,,95.0,41.0,95.0,612480,638.0
3255,9.0,,,,,,36.0,,,,,0,note_on,,95.0,36.0,95.0,612480,638.0
3256,9.0,,,,,,44.0,,,,,480,note_off,,80.0,44.0,80.0,612960,638.5
3257,9.0,,,,,,41.0,,,,,0,note_off,,80.0,41.0,80.0,612960,638.5
3258,9.0,,,,,,36.0,,,,,0,note_off,,80.0,36.0,80.0,612960,638.5
3259,9.0,,,,,,44.0,,,,,0,note_on,,95.0,44.0,95.0,612960,638.5
3260,9.0,,,,,,41.0,,,,,0,note_on,,95.0,41.0,95.0,612960,638.5
3261,9.0,,,,,,36.0,,,,,0,note_on,,95.0,36.0,95.0,612960,638.5
3262,9.0,,,,,,44.0,,,,,480,note_off,,80.0,44.0,80.0,613440,639.0
3263,9.0,,,,,,41.0,,,,,0,note_off,,80.0,41.0,80.0,613440,639.0
3264,9.0,,,,,,36.0,,,,,0,note_off,,80.0,36.0,80.0,613440,639.0
3265,9.0,,,,,,44.0,,,,,0,note_on,,95.0,44.0,95.0,613440,639.0
3266,9.0,,,,,,41.0,,,,,0,note_on,,95.0,41.0,95.0,613440,639.0
3267,9.0,,,,,,36.0,,,,,0,note_on,,95.0,36.0,95.0,613440,639.0
3268,9.0,,,,,,44.0,,,,,480,note_off,,80.0,44.0,80.0,613920,639.5
3269,9.0,,,,,,41.0,,,,,0,note_off,,80.0,41.0,80.0,613920,639.5
3270,9.0,,,,,,36.0,,,,,0,note_off,,80.0,36.0,80.0,613920,639.5
3271,9.0,,,,,,44.0,,,,,0,note_on,,95.0,44.0,95.0,613920,639.5
3272,9.0,,,,,,41.0,,,,,0,note_on,,95.0,41.0,95.0,613920,639.5
3273,9.0,,,,,,36.0,,,,,0,note_on,,95.0,36.0,95.0,613920,639.5
3274,9.0,,,,,,44.0,,,,,480,note_off,,80.0,44.0,80.0,614400,640.0
3275,9.0,,,,,,41.0,,,,,0,note_off,,80.0,41.0,80.0,614400,640.0
3276,9.0,,,,,,36.0,,,,,0,note_off,,80.0,36.0,80.0,614400,640.0
3277,9.0,,,,,,44.0,,,,,0,note_on,,95.0,44.0,95.0,614400,640.0
3278,9.0,,,,,,41.0,,,,,0,note_on,,95.0,41.0,95.0,614400,640.0
3279,9.0,,,,,,36.0,,,,,0,note_on,,95.0,36.0,95.0,614400,640.0
3280,9.0,,,,,,44.0,,,,,480,note_off,,80.0,44.0,80.0,614880,640.5
3281,9.0,,,,,,41.0,,,,,0,note_off,,80.0,41.0,80.0,614880,640.5
3282,9.0,,,,,,36.0,,,,,0,note_off,,80.0,36.0,80.0,614880,640.5
3283,9.0,,,,,,44.0,,,,,0,note_on,,95.0,44.0,95.0,614880,640.5
3284,9.0,,,,,,41.0,,,,,0,note_on,,95.0,41.0,95.0,614880,640.5
3285,9.0,,,,,,36.0,,,,,0,note_on,,95.0,36.0,95.0,614880,640.5
3286,9.0,,,,,,44.0,,,,,480,note_off,,80.0,44.0,80.0,615360,641.0
3287,9.0,,,,,,41.0,,,,,0,note_off,,80.0,41.0,80.0,615360,641.0
3288,9.0,,,,,,36.0,,,,,0,note_off,,80.0,36.0,80.0,615360,641.0
3289,9.0,,,,,,44.0,,,,,0,note_on,,95.0,44.0,95.0,615360,641.0
3290,9.0,,,,,,41.0,,,,,0,note_on,,95.0,41.0,95.0,615360,641.0
3291,9.0,,,,,,36.0,,,,,0,note_on,,95.0,36.0,95.0,615360,641.0
3292,9.0,,,,,,44.0,,,,,480,note_off,,80.0,44.0,80.0,615840,641.5
3293,9.0,,,,,,41.0,,,,,0,note_off,,80.0,41.0,80.0,615840,641.5
3294,9.0,,,,,,36.0,,,,,0,note_off,,80.0,36.0,80.0,615840,641.5
3295,9.0,,,,,,44.0,,,,,0,note_on,,95.0,44.0,95.0,615840,641.5
3296,9.0,,,,,,41.0,,,,,0,note_on,,95.0,41.0,95.0,615840,641.5
3297,9.0,,,,,,36.0,,,,,0,note_on,,95.0,36.0,95.0,615840,641.5
3298,9.0,,,,,,44.0,,,,,480,note_off,,80.0,44.0,80.0,616320,642.0
3299,9.0,,,,,,41.0,,,,,0,note_off,,80.0,41.0,80.0,616320,642.0
3300,9.0,,,,,,36.0,,,,,0,note_off,,80.0,36.0,80.0,616320,642.0
3301,9.0,,,,,,44.0,,,,,0,note_on,,95.0,44.0,95.0,616320,642.0
3302,9.0,,,,,,41.0,,,,,0,note_on,,95.0,41.0,95.0,616320,642.0
3303,9.0,,,,,,36.0,,,,,0,note_on,,95.0,36.0,95.0,616320,642.0
3304,9.0,,,,,,44.0,,,,,480,note_off,,80.0,44.0,80.0,616800,642.5
3305,9.0,,,,,,41.0,,,,,0,note_off,,80.0,41.0,80.0,616800,642.5
3306,9.0,,,,,,36.0,,,,,0,note_off,,80.0,36.0,80.0,616800,642.5
3307,9.0,,,,,,44.0,,,,,0,note_on,,95.0,44.0,95.0,616800,642.5
3308,9.0,,,,,,41.0,,,,,0,note_on,,95.0,41.0,95.0,616800,642.5
3309,9.0,,,,,,36.0,,,,,0,note_on,,95.0,36.0,95.0,616800,642.5
3310,9.0,,,,,,44.0,,,,,480,note_off,,80.0,44.0,80.0,617280,643.0
3311,9.0,,,,,,41.0,,,,,0,note_off,,80.0,41.0,80.0,617280,643.0
3312,9.0,,,,,,36.0,,,,,0,note_off,,80.0,36.0,80.0,617280,643.0
3313,9.0,,,,,,44.0,,,,,0,note_on,,95.0,44.0,95.0,617280,643.0
3314,9.0,,,,,,41.0,,,,,0,note_on,,95.0,41.0,95.0,617280,643.0
3315,9.0,,,,,,36.0,,,,,0,note_on,,95.0,36.0,95.0,617280,643.0
3316,9.0,,,,,,44.0,,,,,480,note_off,,80.0,44.0,80.0,617760,643.5
3317,9.0,,,,,,41.0,,,,,0,note_off,,80.0,41.0,80.0,617760,643.5
3318,9.0,,,,,,36.0,,,,,0,note_off,,80.0,36.0,80.0,617760,643.5
3319,9.0,,,,,,44.0,,,,,0,note_on,,95.0,44.0,95.0,617760,643.5
3320,9.0,,,,,,41.0,,,,,0,note_on,,95.0,41.0,95.0,617760,643.5
3321,9.0,,,,,,36.0,,,,,0,note_on,,95.0,36.0,95.0,617760,643.5
3322,9.0,,,,,,44.0,,,,,480,note_off,,80.0,44.0,80.0,618240,644.0
3323,9.0,,,,,,41.0,,,,,0,note_off,,80.0,41.0,80.0,618240,644.0
3324,9.0,,,,,,36.0,,,,,0,note_off,,80.0,36.0,80.0,618240,644.0
3325,9.0,,,,,,44.0,,,,,0,note_on,,95.0,44.0,95.0,618240,644.0
3326,9.0,,,,,,41.0,,,,,0,note_on,,95.0,41.0,95.0,618240,644.0
3327,9.0,,,,,,36.0,,,,,0,note_on,,95.0,36.0,95.0,618240,644.0
3328,9.0,,,,,,44.0,,,,,480,note_off,,80.0,44.0,80.0,618720,644.5
3329,9.0,,,,,,41.0,,,,,0,note_off,,80.0,41.0,80.0,618720,644.5
3330,9.0,,,,,,36.0,,,,,0,note_off,,80.0,36.0,80.0,618720,644.5
3331,9.0,,,,,,44.0,,,,,0,note_on,,95.0,44.0,95.0,618720,644.5
3332,9.0,,,,,,41.0,,,,,0,note_on,,95.0,41.0,95.0,618720,644.5
3333,9.0,,,,,,36.0,,,,,0,note_on,,95.0,36.0,95.0,618720,644.5
3334,9.0,,,,,,44.0,,,,,480,note_off,,80.0,44.0,80.0,619200,645.0
3335,9.0,,,,,,41.0,,,,,0,note_off,,80.0,41.0,80.0,619200,645.0
3336,9.0,,,,,,36.0,,,,,0,note_off,,80.0,36.0,80.0,619200,645.0
3337,9.0,,,,,,44.0,,,,,0,note_on,,95.0,44.0,95.0,619200,645.0
3338,9.0,,,,,,41.0,,,,,0,note_on,,95.0,41.0,95.0,619200,645.0
3339,9.0,,,,,,36.0,,,,,0,note_on,,95.0,36.0,95.0,619200,645.0
3340,9.0,,,,,,44.0,,,,,480,note_off,,80.0,44.0,80.0,619680,645.5
3341,9.0,,,,,,41.0,,,,,0,note_off,,80.0,41.0,80.0,619680,645.5
3342,9.0,,,,,,36.0,,,,,0,note_off,,80.0,36.0,80.0,619680,645.5
3343,9.0,,,,,,44.0,,,,,0,note_on,,95.0,44.0,95.0,619680,645.5
3344,9.0,,,,,,41.0,,,,,0,note_on,,95.0,41.0,95.0,619680,645.5
3345,9.0,,,,,,36.0,,,,,0,note_on,,95.0,36.0,95.0,619680,645.5
3346,9.0,,,,,,44.0,,,,,480,note_off,,80.0,44.0,80.0,620160,646.0
3347,9.0,,,,,,41.0,,,,,0,note_off,,80.0,41.0,80.0,620160,646.0
3348,9.0,,,,,,36.0,,,,,0,note_off,,80.0,36.0,80.0,620160,646.0
3349,9.0,,,,,,44.0,,,,,0,note_on,,95.0,44.0,95.0,620160,646.0
3350,9.0,,,,,,41.0,,,,,0,note_on,,95.0,41.0,95.0,620160,646.0
3351,9.0,,,,,,36.0,,,,,0,note_on,,95.0,36.0,95.0,620160,646.0
3352,9.0,,,,,,44.0,,,,,480,note_off,,80.0,44.0,80.0,620640,646.5
3353,9.0,,,,,,41.0,,,,,0,note_off,,80.0,41.0,80.0,620640,646.5
3354,9.0,,,,,,36.0,,,,,0,note_off,,80.0,36.0,80.0,620640,646.5
3355,9.0,,,,,,44.0,,,,,0,note_on,,95.0,44.0,95.0,620640,646.5
3356,9.0,,,,,,41.0,,,,,0,note_on,,95.0,41.0,95.0,620640,646.5
3357,9.0,,,,,,36.0,,,,,0,note_on,,95.0,36.0,95.0,620640,646.5
3358,9.0,,,,,,44.0,,,,,480,note_off,,80.0,44.0,80.0,621120,647.0
3359,9.0,,,,,,41.0,,,,,0,note_off,,80.0,41.0,80.0,621120,647.0
3360,9.0,,,,,,36.0,,,,,0,note_off,,80.0,36.0,80.0,621120,647.0
3361,9.0,,,,,,44.0,,,,,0,note_on,,95.0,44.0,95.0,621120,647.0
3362,9.0,,,,,,41.0,,,,,0,note_on,,95.0,41.0,95.0,621120,647.0
3363,9.0,,,,,,36.0,,,,,0,note_on,,95.0,36.0,95.0,621120,647.0
3364,9.0,,,,,,44.0,,,,,480,note_off,,80.0,44.0,80.0,621600,647.5
3365,9.0,,,,,,41.0,,,,,0,note_off,,80.0,41.0,80.0,621600,647.5
3366,9.0,,,,,,36.0,,,,,0,note_off,,80.0,36.0,80.0,621600,647.5
3367,9.0,,,,,,44.0,,,,,0,note_on,,95.0,44.0,95.0,621600,647.5
3368,9.0,,,,,,41.0,,,,,0,note_on,,95.0,41.0,95.0,621600,647.5
3369,9.0,,,,,,36.0,,,,,0,note_on,,95.0,36.0,95.0,621600,647.5
3370,9.0,,,,,,44.0,,,,,480,note_off,,80.0,44.0,80.0,622080,648.0
3371,9.0,,,,,,41.0,,,,,0,note_off,,80.0,41.0,80.0,622080,648.0
3372,9.0,,,,,,36.0,,,,,0,note_off,,80.0,36.0,80.0,622080,648.0
3373,9.0,,,,,,44.0,,,,,0,note_on,,95.0,44.0,95.0,622080,648.0
3374,9.0,,,,,,41.0,,,,,0,note_on,,95.0,41.0,95.0,622080,648.0
3375,9.0,,,,,,36.0,,,,,0,note_on,,95.0,36.0,95.0,622080,648.0
3376,9.0,,,,,,44.0,,,,,480,note_off,,80.0,44.0,80.0,622560,648.5
3377,9.0,,,,,,41.0,,,,,0,note_off,,80.0,41.0,80.0,622560,648.5
3378,9.0,,,,,,36.0,,,,,0,note_off,,80.0,36.0,80.0,622560,648.5
3379,9.0,,,,,,44.0,,,,,0,note_on,,95.0,44.0,95.0,622560,648.5
3380,9.0,,,,,,41.0,,,,,0,note_on,,95.0,41.0,95.0,622560,648.5
3381,9.0,,,,,,36.0,,,,,0,note_on,,95.0,36.0,95.0,622560,648.5
3382,9.0,,,,,,44.0,,,,,480,note_off,,80.0,44.0,80.0,623040,649.0
3383,9.0,,,,,,41.0,,,,,0,note_off,,80.0,41.0,80.0,623040,649.0
3384,9.0,,,,,,36.0,,,,,0,note_off,,80.0,36.0,80.0,623040,649.0
3385,9.0,,,,,,44.0,,,,,0,note_on,,95.0,44.0,95.0,623040,649.0
3386,9.0,,,,,,41.0,,,,,0,note_on,,95.0,41.0,95.0,623040,649.0
3387,9.0,,,,,,36.0,,,,,0,note_on,,95.0,36.0,95.0,623040,649.0
3388,9.0,,,,,,44.0,,,,,480,note_off,,80.0,44.0,80.0,623520,649.5
3389,9.0,,,,,,41.0,,,,,0,note_off,,80.0,41.0,80.0,623520,649.5
3390,9.0,,,,,,36.0,,,,,0,note_off,,80.0,36.0,80.0,623520,649.5
3391,9.0,,,,,,44.0,,,,,0,note_on,,95.0,44.0,95.0,623520,649.5
3392,9.0,,,,,,41.0,,,,,0,note_on,,95.0,41.0,95.0,623520,649.5
3393,9.0,,,,,,36.0,,,,,0,note_on,,95.0,36.0,95.0,623520,649.5
3394,9.0,,,,,,44.0,,,,,480,note_off,,80.0,44.0,80.0,624000,650.0
3395,9.0,,,,,,41.0,,,,,0,note_off,,80.0,41.0,80.0,624000,650.0
3396,9.0,,,,,,36.0,,,,,0,note_off,,80.0,36.0,80.0,624000,650.0
3397,9.0,,,,,,44.0,,,,,0,note_on,,95.0,44.0,95.0,624000,650.0
3398,9.0,,,,,,41.0,,,,,0,note_on,,95.0,41.0,95.0,624000,650.0
3399,9.0,,,,,,36.0,,,,,0,note_on,,95.0,36.0,95.0,624000,650.0
3400,9.0,,,,,,44.0,,,,,480,note_off,,80.0,44.0,80.0,624480,650.5
3401,9.0,,,,,,41.0,,,,,0,note_off,,80.0,41.0,80.0,624480,650.5
3402,9.0,,,,,,36.0,,,,,0,note_off,,80.0,36.0,80.0,624480,650.5
3403,9.0,,,,,,44.0,,,,,0,note_on,,95.0,44.0,95.0,624480,650.5
3404,9.0,,,,,,41.0,,,,,0,note_on,,95.0,41.0,95.0,624480,650.5
3405,9.0,,,,,,36.0,,,,,0,note_on,,95.0,36.0,95.0,624480,650.5
3406,9.0,,,,,,44.0,,,,,480,note_off,,80.0,44.0,80.0,624960,651.0
3407,9.0,,,,,,41.0,,,,,0,note_off,,80.0,41.0,80.0,624960,651.0
3408,9.0,,,,,,36.0,,,,,0,note_off,,80.0,36.0,80.0,624960,651.0
3409,9.0,,,,,,44.0,,,,,0,note_on,,95.0,44.0,95.0,624960,651.0
3410,9.0,,,,,,41.0,,,,,0,note_on,,95.0,41.0,95.0,624960,651.0
3411,9.0,,,,,,36.0,,,,,0,note_on,,95.0,36.0,95.0,624960,651.0
3412,9.0,,,,,,44.0,,,,,480,note_off,,80.0,44.0,80.0,625440,651.5
3413,9.0,,,,,,41.0,,,,,0,note_off,,80.0,41.0,80.0,625440,651.5
3414,9.0,,,,,,36.0,,,,,0,note_off,,80.0,36.0,80.0,625440,651.5
3415,9.0,,,,,,44.0,,,,,0,note_on,,95.0,44.0,95.0,625440,651.5
3416,9.0,,,,,,41.0,,,,,0,note_on,,95.0,41.0,95.0,625440,651.5
3417,9.0,,,,,,36.0,,,,,0,note_on,,95.0,36.0,95.0,625440,651.5
3418,9.0,,,,,,44.0,,,,,480,note_off,,80.0,44.0,80.0,625920,652.0
3419,9.0,,,,,,41.0,,,,,0,note_off,,80.0,41.0,80.0,625920,652.0
3420,9.0,,,,,,36.0,,,,,0,note_off,,80.0,36.0,80.0,625920,652.0
3421,9.0,,,,,,44.0,,,,,0,note_on,,95.0,44.0,95.0,625920,652.0
3422,9.0,,,,,,36.0,,,,,0,note_on,,95.0,36.0,95.0,625920,652.0
3423,9.0,,,,,,44.0,,,,,480,note_off,,80.0,44.0,80.0,626400,652.5
3424,9.0,,,,,,36.0,,,,,0,note_off,,80.0,36.0,80.0,626400,652.5
3425,9.0,,,,,,44.0,,,,,0,note_on,,95.0,44.0,95.0,626400,652.5
3426,9.0,,,,,,38.0,,,,,0,note_on,,95.0,38.0,95.0,626400,652.5
3427,9.0,,,,,,44.0,,,,,480,note_off,,80.0,44.0,80.0,626880,653.0
3428,9.0,,,,,,38.0,,,,,0,note_off,,80.0,38.0,80.0,626880,653.0
3429,9.0,,,,,,44.0,,,,,0,note_on,,95.0,44.0,95.0,626880,653.0
3430,9.0,,,,,,36.0,,,,,0,note_on,,95.0,36.0,95.0,626880,653.0
3431,9.0,,,,,,44.0,,,,,480,note_off,,80.0,44.0,80.0,627360,653.5
3432,9.0,,,,,,36.0,,,,,0,note_off,,80.0,36.0,80.0,627360,653.5
3433,9.0,,,,,,44.0,,,,,0,note_on,,95.0,44.0,95.0,627360,653.5
3434,9.0,,,,,,38.0,,,,,0,note_on,,95.0,38.0,95.0,627360,653.5
3435,9.0,,,,,,44.0,,,,,480,note_off,,80.0,44.0,80.0,627840,654.0
3436,9.0,,,,,,38.0,,,,,0,note_off,,80.0,38.0,80.0,627840,654.0
3437,9.0,,,,,,44.0,,,,,0,note_on,,95.0,44.0,95.0,627840,654.0
3438,9.0,,,,,,36.0,,,,,0,note_on,,95.0,36.0,95.0,627840,654.0
3439,9.0,,,,,,44.0,,,,,480,note_off,,80.0,44.0,80.0,628320,654.5
3440,9.0,,,,,,36.0,,,,,0,note_off,,80.0,36.0,80.0,628320,654.5
3441,9.0,,,,,,44.0,,,,,0,note_on,,95.0,44.0,95.0,628320,654.5
3442,9.0,,,,,,38.0,,,,,0,note_on,,95.0,38.0,95.0,628320,654.5
3443,9.0,,,,,,44.0,,,,,480,note_off,,80.0,44.0,80.0,628800,655.0
3444,9.0,,,,,,38.0,,,,,0,note_off,,80.0,38.0,80.0,628800,655.0
3445,9.0,,,,,,44.0,,,,,0,note_on,,95.0,44.0,95.0,628800,655.0
3446,9.0,,,,,,36.0,,,,,0,note_on,,95.0,36.0,95.0,628800,655.0
3447,9.0,,,,,,44.0,,,,,480,note_off,,80.0,44.0,80.0,629280,655.5
3448,9.0,,,,,,36.0,,,,,0,note_off,,80.0,36.0,80.0,629280,655.5
3449,9.0,,,,,,44.0,,,,,0,note_on,,95.0,44.0,95.0,629280,655.5
3450,9.0,,,,,,38.0,,,,,0,note_on,,95.0,38.0,95.0,629280,655.5
3451,9.0,,,,,,44.0,,,,,480,note_off,,80.0,44.0,80.0,629760,656.0
3452,9.0,,,,,,38.0,,,,,0,note_off,,80.0,38.0,80.0,629760,656.0
3453,9.0,,,,,,44.0,,,,,0,note_on,,95.0,44.0,95.0,629760,656.0
3454,9.0,,,,,,36.0,,,,,0,note_on,,95.0,36.0,95.0,629760,656.0
3455,9.0,,,,,,44.0,,,,,480,note_off,,80.0,44.0,80.0,630240,656.5
3456,9.0,,,,,,36.0,,,,,0,note_off,,80.0,36.0,80.0,630240,656.5
3457,9.0,,,,,,44.0,,,,,0,note_on,,95.0,44.0,95.0,630240,656.5
3458,9.0,,,,,,38.0,,,,,0,note_on,,95.0,38.0,95.0,630240,656.5
3459,9.0,,,,,,44.0,,,,,480,note_off,,80.0,44.0,80.0,630720,657.0
3460,9.0,,,,,,38.0,,,,,0,note_off,,80.0,38.0,80.0,630720,657.0
3461,9.0,,,,,,44.0,,,,,0,note_on,,95.0,44.0,95.0,630720,657.0
3462,9.0,,,,,,36.0,,,,,0,note_on,,95.0,36.0,95.0,630720,657.0
3463,9.0,,,,,,44.0,,,,,480,note_off,,80.0,44.0,80.0,631200,657.5
3464,9.0,,,,,,36.0,,,,,0,note_off,,80.0,36.0,80.0,631200,657.5
3465,9.0,,,,,,44.0,,,,,0,note_on,,95.0,44.0,95.0,631200,657.5
3466,9.0,,,,,,38.0,,,,,0,note_on,,95.0,38.0,95.0,631200,657.5
3467,9.0,,,,,,44.0,,,,,480,note_off,,80.0,44.0,80.0,631680,658.0
3468,9.0,,,,,,38.0,,,,,0,note_off,,80.0,38.0,80.0,631680,658.0
3469,9.0,,,,,,44.0,,,,,0,note_on,,95.0,44.0,95.0,631680,658.0
3470,9.0,,,,,,36.0,,,,,0,note_on,,95.0,36.0,95.0,631680,658.0
3471,9.0,,,,,,44.0,,,,,480,note_off,,80.0,44.0,80.0,632160,658.5
3472,9.0,,,,,,36.0,,,,,0,note_off,,80.0,36.0,80.0,632160,658.5
3473,9.0,,,,,,44.0,,,,,0,note_on,,95.0,44.0,95.0,632160,658.5
3474,9.0,,,,,,38.0,,,,,0,note_on,,95.0,38.0,95.0,632160,658.5
3475,9.0,,,,,,44.0,,,,,480,note_off,,80.0,44.0,80.0,632640,659.0
3476,9.0,,,,,,38.0,,,,,0,note_off,,80.0,38.0,80.0,632640,659.0
3477,9.0,,,,,,44.0,,,,,0,note_on,,95.0,44.0,95.0,632640,659.0
3478,9.0,,,,,,36.0,,,,,0,note_on,,95.0,36.0,95.0,632640,659.0
3479,9.0,,,,,,44.0,,,,,480,note_off,,80.0,44.0,80.0,633120,659.5
3480,9.0,,,,,,36.0,,,,,0,note_off,,80.0,36.0,80.0,633120,659.5
3481,9.0,,,,,,44.0,,,,,0,note_on,,95.0,44.0,95.0,633120,659.5
3482,9.0,,,,,,38.0,,,,,0,note_on,,95.0,38.0,95.0,633120,659.5
3483,9.0,,,,,,44.0,,,,,480,note_off,,80.0,44.0,80.0,633600,660.0
3484,9.0,,,,,,38.0,,,,,0,note_off,,80.0,38.0,80.0,633600,660.0
3485,9.0,,,,,,44.0,,,,,0,note_on,,95.0,44.0,95.0,633600,660.0
3486,9.0,,,,,,36.0,,,,,0,note_on,,95.0,36.0,95.0,633600,660.0
3487,9.0,,,,,,44.0,,,,,480,note_off,,80.0,44.0,80.0,634080,660.5
3488,9.0,,,,,,36.0,,,,,0,note_off,,80.0,36.0,80.0,634080,660.5
3489,9.0,,,,,,44.0,,,,,0,note_on,,95.0,44.0,95.0,634080,660.5
3490,9.0,,,,,,38.0,,,,,0,note_on,,95.0,38.0,95.0,634080,660.5
3491,9.0,,,,,,44.0,,,,,480,note_off,,80.0,44.0,80.0,634560,661.0
3492,9.0,,,,,,38.0,,,,,0,note_off,,80.0,38.0,80.0,634560,661.0
3493,9.0,,,,,,44.0,,,,,0,note_on,,95.0,44.0,95.0,634560,661.0
3494,9.0,,,,,,36.0,,,,,0,note_on,,95.0,36.0,95.0,634560,661.0
3495,9.0,,,,,,44.0,,,,,480,note_off,,80.0,44.0,80.0,635040,661.5
3496,9.0,,,,,,36.0,,,,,0,note_off,,80.0,36.0,80.0,635040,661.5
3497,9.0,,,,,,44.0,,,,,0,note_on,,95.0,44.0,95.0,635040,661.5
3498,9.0,,,,,,38.0,,,,,0,note_on,,95.0,38.0,95.0,635040,661.5
3499,9.0,,,,,,44.0,,,,,480,note_off,,80.0,44.0,80.0,635520,662.0
3500,9.0,,,,,,38.0,,,,,0,note_off,,80.0,38.0,80.0,635520,662.0
3501,9.0,,,,,,44.0,,,,,0,note_on,,95.0,44.0,95.0,635520,662.0
3502,9.0,,,,,,36.0,,,,,0,note_on,,95.0,36.0,95.0,635520,662.0
3503,9.0,,,,,,44.0,,,,,480,note_off,,80.0,44.0,80.0,636000,662.5
3504,9.0,,,,,,36.0,,,,,0,note_off,,80.0,36.0,80.0,636000,662.5
3505,9.0,,,,,,44.0,,,,,0,note_on,,95.0,44.0,95.0,636000,662.5
3506,9.0,,,,,,38.0,,,,,0,note_on,,95.0,38.0,95.0,636000,662.5
3507,9.0,,,,,,44.0,,,,,480,note_off,,80.0,44.0,80.0,636480,663.0
3508,9.0,,,,,,38.0,,,,,0,note_off,,80.0,38.0,80.0,636480,663.0
3509,9.0,,,,,,44.0,,,,,0,note_on,,95.0,44.0,95.0,636480,663.0
3510,9.0,,,,,,36.0,,,,,0,note_on,,95.0,36.0,95.0,636480,663.0
3511,9.0,,,,,,44.0,,,,,480,note_off,,80.0,44.0,80.0,636960,663.5
3512,9.0,,,,,,36.0,,,,,0,note_off,,80.0,36.0,80.0,636960,663.5
3513,9.0,,,,,,44.0,,,,,0,note_on,,95.0,44.0,95.0,636960,663.5
3514,9.0,,,,,,38.0,,,,,0,note_on,,95.0,38.0,95.0,636960,663.5
3515,9.0,,,,,,44.0,,,,,480,note_off,,80.0,44.0,80.0,637440,664.0
3516,9.0,,,,,,38.0,,,,,0,note_off,,80.0,38.0,80.0,637440,664.0
3517,9.0,,,,,,44.0,,,,,0,note_on,,95.0,44.0,95.0,637440,664.0
3518,9.0,,,,,,36.0,,,,,0,note_on,,95.0,36.0,95.0,637440,664.0
3519,9.0,,,,,,44.0,,,,,480,note_off,,80.0,44.0,80.0,637920,664.5
3520,9.0,,,,,,36.0,,,,,0,note_off,,80.0,36.0,80.0,637920,664.5
3521,9.0,,,,,,44.0,,,,,0,note_on,,95.0,44.0,95.0,637920,664.5
3522,9.0,,,,,,38.0,,,,,0,note_on,,95.0,38.0,95.0,637920,664.5
3523,9.0,,,,,,44.0,,,,,480,note_off,,80.0,44.0,80.0,638400,665.0
3524,9.0,,,,,,38.0,,,,,0,note_off,,80.0,38.0,80.0,638400,665.0
3525,9.0,,,,,,44.0,,,,,0,note_on,,95.0,44.0,95.0,638400,665.0
3526,9.0,,,,,,36.0,,,,,0,note_on,,95.0,36.0,95.0,638400,665.0
3527,9.0,,,,,,44.0,,,,,480,note_off,,80.0,44.0,80.0,638880,665.5
3528,9.0,,,,,,36.0,,,,,0,note_off,,80.0,36.0,80.0,638880,665.5
3529,9.0,,,,,,44.0,,,,,0,note_on,,95.0,44.0,95.0,638880,665.5
3530,9.0,,,,,,38.0,,,,,0,note_on,,95.0,38.0,95.0,638880,665.5
3531,9.0,,,,,,44.0,,,,,480,note_off,,80.0,44.0,80.0,639360,666.0
3532,9.0,,,,,,38.0,,,,,0,note_off,,80.0,38.0,80.0,639360,666.0
3533,9.0,,,,,,44.0,,,,,0,note_on,,95.0,44.0,95.0,639360,666.0
3534,9.0,,,,,,36.0,,,,,0,note_on,,95.0,36.0,95.0,639360,666.0
3535,9.0,,,,,,44.0,,,,,480,note_off,,80.0,44.0,80.0,639840,666.5
3536,9.0,,,,,,36.0,,,,,0,note_off,,80.0,36.0,80.0,639840,666.5
3537,9.0,,,,,,44.0,,,,,0,note_on,,95.0,44.0,95.0,639840,666.5
3538,9.0,,,,,,38.0,,,,,0,note_on,,95.0,38.0,95.0,639840,666.5
3539,9.0,,,,,,44.0,,,,,480,note_off,,80.0,44.0,80.0,640320,667.0
3540,9.0,,,,,,38.0,,,,,0,note_off,,80.0,38.0,80.0,640320,667.0
3541,9.0,,,,,,44.0,,,,,0,note_on,,95.0,44.0,95.0,640320,667.0
3542,9.0,,,,,,36.0,,,,,0,note_on,,95.0,36.0,95.0,640320,667.0
3543,9.0,,,,,,44.0,,,,,480,note_off,,80.0,44.0,80.0,640800,667.5
3544,9.0,,,,,,36.0,,,,,0,note_off,,80.0,36.0,80.0,640800,667.5
3545,9.0,,,,,,44.0,,,,,0,note_on,,95.0,44.0,95.0,640800,667.5
3546,9.0,,,,,,38.0,,,,,0,note_on,,95.0,38.0,95.0,640800,667.5
3547,9.0,,,,,,44.0,,,,,480,note_off,,80.0,44.0,80.0,641280,668.0
3548,9.0,,,,,,38.0,,,,,0,note_off,,80.0,38.0,80.0,641280,668.0
3549,9.0,,,,,,57.0,,,,,0,note_on,,95.0,57.0,95.0,641280,668.0
3550,9.0,,,,,,36.0,,,,,0,note_on,,95.0,36.0,95.0,641280,668.0
3551,9.0,,,,,,57.0,,,,,480,note_off,,80.0,57.0,80.0,641760,668.5
3552,9.0,,,,,,36.0,,,,,0,note_off,,80.0,36.0,80.0,641760,668.5
3553,9.0,,,,,,42.0,,,,,0,note_on,,95.0,42.0,95.0,641760,668.5
3554,9.0,,,,,,42.0,,,,,480,note_off,,80.0,42.0,80.0,642240,669.0
3555,9.0,,,,,,42.0,,,,,0,note_on,,95.0,42.0,95.0,642240,669.0
3556,9.0,,,,,,42.0,,,,,480,note_off,,80.0,42.0,80.0,642720,669.5
3557,9.0,,,,,,42.0,,,,,0,note_on,,95.0,42.0,95.0,642720,669.5
3558,9.0,,,,,,42.0,,,,,480,note_off,,80.0,42.0,80.0,643200,670.0
3559,9.0,,,,,,57.0,,,,,0,note_on,,95.0,57.0,95.0,643200,670.0
3560,9.0,,,,,,36.0,,,,,0,note_on,,95.0,36.0,95.0,643200,670.0
3561,9.0,,,,,,57.0,,,,,480,note_off,,80.0,57.0,80.0,643680,670.5
3562,9.0,,,,,,36.0,,,,,0,note_off,,80.0,36.0,80.0,643680,670.5
3563,9.0,,,,,,42.0,,,,,0,note_on,,95.0,42.0,95.0,643680,670.5
3564,9.0,,,,,,42.0,,,,,480,note_off,,80.0,42.0,80.0,644160,671.0
3565,9.0,,,,,,42.0,,,,,0,note_on,,95.0,42.0,95.0,644160,671.0
3566,9.0,,,,,,42.0,,,,,480,note_off,,80.0,42.0,80.0,644640,671.5
3567,9.0,,,,,,42.0,,,,,0,note_on,,95.0,42.0,95.0,644640,671.5
3568,9.0,,,,,,42.0,,,,,480,note_off,,80.0,42.0,80.0,645120,672.0
3569,9.0,,,,,,57.0,,,,,0,note_on,,95.0,57.0,95.0,645120,672.0
3570,9.0,,,,,,36.0,,,,,0,note_on,,95.0,36.0,95.0,645120,672.0
3571,9.0,,,,,,57.0,,,,,480,note_off,,80.0,57.0,80.0,645600,672.5
3572,9.0,,,,,,36.0,,,,,0,note_off,,80.0,36.0,80.0,645600,672.5
3573,9.0,,,,,,57.0,,,,,0,note_on,,95.0,57.0,95.0,645600,672.5
3574,9.0,,,,,,38.0,,,,,0,note_on,,95.0,38.0,95.0,645600,672.5
3575,9.0,,,,,,57.0,,,,,480,note_off,,80.0,57.0,80.0,646080,673.0
3576,9.0,,,,,,38.0,,,,,0,note_off,,80.0,38.0,80.0,646080,673.0
3577,9.0,,,,,,57.0,,,,,0,note_on,,95.0,57.0,95.0,646080,673.0
3578,9.0,,,,,,36.0,,,,,0,note_on,,95.0,36.0,95.0,646080,673.0
3579,9.0,,,,,,57.0,,,,,480,note_off,,80.0,57.0,80.0,646560,673.5
3580,9.0,,,,,,36.0,,,,,0,note_off,,80.0,36.0,80.0,646560,673.5
3581,9.0,,,,,,57.0,,,,,0,note_on,,95.0,57.0,95.0,646560,673.5
3582,9.0,,,,,,38.0,,,,,0,note_on,,95.0,38.0,95.0,646560,673.5
3583,9.0,,,,,,57.0,,,,,480,note_off,,80.0,57.0,80.0,647040,674.0
3584,9.0,,,,,,38.0,,,,,0,note_off,,80.0,38.0,80.0,647040,674.0
3585,9.0,,,,,,57.0,,,,,0,note_on,,95.0,57.0,95.0,647040,674.0
3586,9.0,,,,,,36.0,,,,,0,note_on,,95.0,36.0,95.0,647040,674.0
3587,9.0,,,,,,57.0,,,,,480,note_off,,80.0,57.0,80.0,647520,674.5
3588,9.0,,,,,,36.0,,,,,0,note_off,,80.0,36.0,80.0,647520,674.5
3589,9.0,,,,,,57.0,,,,,0,note_on,,95.0,57.0,95.0,647520,674.5
3590,9.0,,,,,,38.0,,,,,0,note_on,,95.0,38.0,95.0,647520,674.5
3591,9.0,,,,,,57.0,,,,,480,note_off,,80.0,57.0,80.0,648000,675.0
3592,9.0,,,,,,38.0,,,,,0,note_off,,80.0,38.0,80.0,648000,675.0
3593,9.0,,,,,,57.0,,,,,0,note_on,,95.0,57.0,95.0,648000,675.0
3594,9.0,,,,,,36.0,,,,,0,note_on,,95.0,36.0,95.0,648000,675.0
3595,9.0,,,,,,57.0,,,,,480,note_off,,80.0,57.0,80.0,648480,675.5
3596,9.0,,,,,,36.0,,,,,0,note_off,,80.0,36.0,80.0,648480,675.5
3597,9.0,,,,,,57.0,,,,,0,note_on,,95.0,57.0,95.0,648480,675.5
3598,9.0,,,,,,38.0,,,,,0,note_on,,95.0,38.0,95.0,648480,675.5
3599,9.0,,,,,,57.0,,,,,480,note_off,,80.0,57.0,80.0,648960,676.0
3600,9.0,,,,,,38.0,,,,,0,note_off,,80.0,38.0,80.0,648960,676.0
3601,9.0,,,,,,57.0,,,,,0,note_on,,95.0,57.0,95.0,648960,676.0
3602,9.0,,,,,,36.0,,,,,0,note_on,,95.0,36.0,95.0,648960,676.0
3603,9.0,,,,,,57.0,,,,,480,note_off,,80.0,57.0,80.0,649440,676.5
3604,9.0,,,,,,36.0,,,,,0,note_off,,80.0,36.0,80.0,649440,676.5
3605,9.0,,,,,,57.0,,,,,0,note_on,,95.0,57.0,95.0,649440,676.5
3606,9.0,,,,,,38.0,,,,,0,note_on,,95.0,38.0,95.0,649440,676.5
3607,9.0,,,,,,38.0,,,,,240,note_off,,80.0,38.0,80.0,649680,676.75
3608,9.0,,,,,,36.0,,,,,0,note_on,,95.0,36.0,95.0,649680,676.75
3609,9.0,,,,,,57.0,,,,,240,note_off,,80.0,57.0,80.0,649920,677.0
3610,9.0,,,,,,36.0,,,,,0,note_off,,80.0,36.0,80.0,649920,677.0
3611,9.0,,,,,,57.0,,,,,0,note_on,,95.0,57.0,95.0,649920,677.0
3612,9.0,,,,,,36.0,,,,,0,note_on,,95.0,36.0,95.0,649920,677.0
3613,9.0,,,,,,57.0,,,,,480,note_off,,80.0,57.0,80.0,650400,677.5
3614,9.0,,,,,,36.0,,,,,0,note_off,,80.0,36.0,80.0,650400,677.5
3615,9.0,,,,,,57.0,,,,,0,note_on,,95.0,57.0,95.0,650400,677.5
3616,9.0,,,,,,36.0,,,,,0,note_on,,95.0,36.0,95.0,650400,677.5
3617,9.0,,,,,,36.0,,,,,240,note_off,,80.0,36.0,80.0,650640,677.75
3618,9.0,,,,,,38.0,,,,,0,note_on,,95.0,38.0,95.0,650640,677.75
3619,9.0,,,,,,57.0,,,,,240,note_off,,80.0,57.0,80.0,650880,678.0
3620,9.0,,,,,,38.0,,,,,0,note_off,,80.0,38.0,80.0,650880,678.0
3621,9.0,,,,,,57.0,,,,,0,note_on,,95.0,57.0,95.0,650880,678.0
3622,9.0,,,,,,36.0,,,,,0,note_on,,95.0,36.0,95.0,650880,678.0
3623,9.0,,,,,,57.0,,,,,480,note_off,,80.0,57.0,80.0,651360,678.5
3624,9.0,,,,,,36.0,,,,,0,note_off,,80.0,36.0,80.0,651360,678.5
3625,9.0,,,,,,57.0,,,,,0,note_on,,95.0,57.0,95.0,651360,678.5
3626,9.0,,,,,,38.0,,,,,0,note_on,,95.0,38.0,95.0,651360,678.5
3627,9.0,,,,,,57.0,,,,,480,note_off,,80.0,57.0,80.0,651840,679.0
3628,9.0,,,,,,38.0,,,,,0,note_off,,80.0,38.0,80.0,651840,679.0
3629,9.0,,,,,,57.0,,,,,0,note_on,,95.0,57.0,95.0,651840,679.0
3630,9.0,,,,,,36.0,,,,,0,note_on,,95.0,36.0,95.0,651840,679.0
3631,9.0,,,,,,57.0,,,,,480,note_off,,80.0,57.0,80.0,652320,679.5
3632,9.0,,,,,,36.0,,,,,0,note_off,,80.0,36.0,80.0,652320,679.5
3633,9.0,,,,,,57.0,,,,,0,note_on,,95.0,57.0,95.0,652320,679.5
3634,9.0,,,,,,38.0,,,,,0,note_on,,95.0,38.0,95.0,652320,679.5
3635,9.0,,,,,,57.0,,,,,480,note_off,,80.0,57.0,80.0,652800,680.0
3636,9.0,,,,,,38.0,,,,,0,note_off,,80.0,38.0,80.0,652800,680.0
3637,9.0,,,,,,57.0,,,,,0,note_on,,95.0,57.0,95.0,652800,680.0
3638,9.0,,,,,,36.0,,,,,0,note_on,,95.0,36.0,95.0,652800,680.0
3639,9.0,,,,,,57.0,,,,,480,note_off,,80.0,57.0,80.0,653280,680.5
3640,9.0,,,,,,36.0,,,,,0,note_off,,80.0,36.0,80.0,653280,680.5
3641,9.0,,,,,,57.0,,,,,0,note_on,,95.0,57.0,95.0,653280,680.5
3642,9.0,,,,,,38.0,,,,,0,note_on,,95.0,38.0,95.0,653280,680.5
3643,9.0,,,,,,57.0,,,,,480,note_off,,80.0,57.0,80.0,653760,681.0
3644,9.0,,,,,,38.0,,,,,0,note_off,,80.0,38.0,80.0,653760,681.0
3645,9.0,,,,,,57.0,,,,,0,note_on,,95.0,57.0,95.0,653760,681.0
3646,9.0,,,,,,36.0,,,,,0,note_on,,95.0,36.0,95.0,653760,681.0
3647,9.0,,,,,,57.0,,,,,480,note_off,,80.0,57.0,80.0,654240,681.5
3648,9.0,,,,,,36.0,,,,,0,note_off,,80.0,36.0,80.0,654240,681.5
3649,9.0,,,,,,57.0,,,,,0,note_on,,95.0,57.0,95.0,654240,681.5
3650,9.0,,,,,,38.0,,,,,0,note_on,,95.0,38.0,95.0,654240,681.5
3651,9.0,,,,,,57.0,,,,,480,note_off,,80.0,57.0,80.0,654720,682.0
3652,9.0,,,,,,38.0,,,,,0,note_off,,80.0,38.0,80.0,654720,682.0
3653,9.0,,,,,,57.0,,,,,0,note_on,,95.0,57.0,95.0,654720,682.0
3654,9.0,,,,,,36.0,,,,,0,note_on,,95.0,36.0,95.0,654720,682.0
3655,9.0,,,,,,57.0,,,,,480,note_off,,80.0,57.0,80.0,655200,682.5
3656,9.0,,,,,,36.0,,,,,0,note_off,,80.0,36.0,80.0,655200,682.5
3657,9.0,,,,,,57.0,,,,,0,note_on,,95.0,57.0,95.0,655200,682.5
3658,9.0,,,,,,38.0,,,,,0,note_on,,95.0,38.0,95.0,655200,682.5
3659,9.0,,,,,,57.0,,,,,480,note_off,,80.0,57.0,80.0,655680,683.0
3660,9.0,,,,,,38.0,,,,,0,note_off,,80.0,38.0,80.0,655680,683.0
3661,9.0,,,,,,57.0,,,,,0,note_on,,95.0,57.0,95.0,655680,683.0
3662,9.0,,,,,,36.0,,,,,0,note_on,,95.0,36.0,95.0,655680,683.0
3663,9.0,,,,,,57.0,,,,,480,note_off,,80.0,57.0,80.0,656160,683.5
3664,9.0,,,,,,36.0,,,,,0,note_off,,80.0,36.0,80.0,656160,683.5
3665,9.0,,,,,,57.0,,,,,0,note_on,,95.0,57.0,95.0,656160,683.5
3666,9.0,,,,,,38.0,,,,,0,note_on,,95.0,38.0,95.0,656160,683.5
3667,9.0,,,,,,57.0,,,,,480,note_off,,80.0,57.0,80.0,656640,684.0
3668,9.0,,,,,,38.0,,,,,0,note_off,,80.0,38.0,80.0,656640,684.0
3669,9.0,,,,,,57.0,,,,,0,note_on,,95.0,57.0,95.0,656640,684.0
3670,9.0,,,,,,36.0,,,,,0,note_on,,95.0,36.0,95.0,656640,684.0
3671,9.0,,,,,,57.0,,,,,480,note_off,,80.0,57.0,80.0,657120,684.5
3672,9.0,,,,,,36.0,,,,,0,note_off,,80.0,36.0,80.0,657120,684.5
3673,9.0,,,,,,57.0,,,,,0,note_on,,95.0,57.0,95.0,657120,684.5
3674,9.0,,,,,,38.0,,,,,0,note_on,,95.0,38.0,95.0,657120,684.5
3675,9.0,,,,,,38.0,,,,,240,note_off,,80.0,38.0,80.0,657360,684.75
3676,9.0,,,,,,36.0,,,,,0,note_on,,95.0,36.0,95.0,657360,684.75
3677,9.0,,,,,,57.0,,,,,240,note_off,,80.0,57.0,80.0,657600,685.0
3678,9.0,,,,,,36.0,,,,,0,note_off,,80.0,36.0,80.0,657600,685.0
3679,9.0,,,,,,57.0,,,,,0,note_on,,95.0,57.0,95.0,657600,685.0
3680,9.0,,,,,,36.0,,,,,0,note_on,,95.0,36.0,95.0,657600,685.0
3681,9.0,,,,,,57.0,,,,,480,note_off,,80.0,57.0,80.0,658080,685.5
3682,9.0,,,,,,36.0,,,,,0,note_off,,80.0,36.0,80.0,658080,685.5
3683,9.0,,,,,,57.0,,,,,0,note_on,,95.0,57.0,95.0,658080,685.5
3684,9.0,,,,,,36.0,,,,,0,note_on,,95.0,36.0,95.0,658080,685.5
3685,9.0,,,,,,36.0,,,,,240,note_off,,80.0,36.0,80.0,658320,685.75
3686,9.0,,,,,,38.0,,,,,0,note_on,,95.0,38.0,95.0,658320,685.75
3687,9.0,,,,,,57.0,,,,,240,note_off,,80.0,57.0,80.0,658560,686.0
3688,9.0,,,,,,38.0,,,,,0,note_off,,80.0,38.0,80.0,658560,686.0
3689,9.0,,,,,,57.0,,,,,0,note_on,,95.0,57.0,95.0,658560,686.0
3690,9.0,,,,,,36.0,,,,,0,note_on,,95.0,36.0,95.0,658560,686.0
3691,9.0,,,,,,57.0,,,,,480,note_off,,80.0,57.0,80.0,659040,686.5
3692,9.0,,,,,,36.0,,,,,0,note_off,,80.0,36.0,80.0,659040,686.5
3693,9.0,,,,,,57.0,,,,,0,note_on,,95.0,57.0,95.0,659040,686.5
3694,9.0,,,,,,38.0,,,,,0,note_on,,95.0,38.0,95.0,659040,686.5
3695,9.0,,,,,,57.0,,,,,480,note_off,,80.0,57.0,80.0,659520,687.0
3696,9.0,,,,,,38.0,,,,,0,note_off,,80.0,38.0,80.0,659520,687.0
3697,9.0,,,,,,57.0,,,,,0,note_on,,95.0,57.0,95.0,659520,687.0
3698,9.0,,,,,,36.0,,,,,0,note_on,,95.0,36.0,95.0,659520,687.0
3699,9.0,,,,,,57.0,,,,,480,note_off,,80.0,57.0,80.0,660000,687.5
3700,9.0,,,,,,36.0,,,,,0,note_off,,80.0,36.0,80.0,660000,687.5
3701,9.0,,,,,,57.0,,,,,0,note_on,,95.0,57.0,95.0,660000,687.5
3702,9.0,,,,,,38.0,,,,,0,note_on,,95.0,38.0,95.0,660000,687.5
3703,9.0,,,,,,57.0,,,,,480,note_off,,80.0,57.0,80.0,660480,688.0
3704,9.0,,,,,,38.0,,,,,0,note_off,,80.0,38.0,80.0,660480,688.0
3705,9.0,,,,,,57.0,,,,,0,note_on,,95.0,57.0,95.0,660480,688.0
3706,9.0,,,,,,36.0,,,,,0,note_on,,95.0,36.0,95.0,660480,688.0
3707,9.0,,,,,,57.0,,,,,480,note_off,,80.0,57.0,80.0,660960,688.5
3708,9.0,,,,,,36.0,,,,,0,note_off,,80.0,36.0,80.0,660960,688.5
3709,9.0,,,,,,42.0,,,,,0,note_on,,95.0,42.0,95.0,660960,688.5
3710,9.0,,,,,,42.0,,,,,480,note_off,,80.0,42.0,80.0,661440,689.0
3711,9.0,,,,,,42.0,,,,,0,note_on,,95.0,42.0,95.0,661440,689.0
3712,9.0,,,,,,42.0,,,,,480,note_off,,80.0,42.0,80.0,661920,689.5
3713,9.0,,,,,,42.0,,,,,0,note_on,,95.0,42.0,95.0,661920,689.5
3714,9.0,,,,,,42.0,,,,,480,note_off,,80.0,42.0,80.0,662400,690.0
3715,9.0,,,,,,57.0,,,,,0,note_on,,95.0,57.0,95.0,662400,690.0
3716,9.0,,,,,,36.0,,,,,0,note_on,,95.0,36.0,95.0,662400,690.0
3717,9.0,,,,,,57.0,,,,,480,note_off,,80.0,57.0,80.0,662880,690.5
3718,9.0,,,,,,36.0,,,,,0,note_off,,80.0,36.0,80.0,662880,690.5
3719,9.0,,,,,,42.0,,,,,0,note_on,,95.0,42.0,95.0,662880,690.5
3720,9.0,,,,,,42.0,,,,,480,note_off,,80.0,42.0,80.0,663360,691.0
3721,9.0,,,,,,42.0,,,,,0,note_on,,95.0,42.0,95.0,663360,691.0
3722,9.0,,,,,,42.0,,,,,480,note_off,,80.0,42.0,80.0,663840,691.5
3723,9.0,,,,,,42.0,,,,,0,note_on,,95.0,42.0,95.0,663840,691.5
3724,9.0,,,,,,42.0,,,,,480,note_off,,80.0,42.0,80.0,664320,692.0
3725,9.0,,,,,,57.0,,,,,0,note_on,,95.0,57.0,95.0,664320,692.0
3726,9.0,,,,,,36.0,,,,,0,note_on,,95.0,36.0,95.0,664320,692.0
3727,9.0,,,,,,57.0,,,,,1920,note_off,,80.0,57.0,80.0,666240,694.0
3728,9.0,,,,,,36.0,,,,,0,note_off,,80.0,36.0,80.0,666240,694.0
3729,9.0,,,,,,44.0,,,,,5760,note_on,,95.0,44.0,95.0,672000,700.0
3730,9.0,,,,,,41.0,,,,,0,note_on,,95.0,41.0,95.0,672000,700.0
3731,9.0,,,,,,36.0,,,,,0,note_on,,95.0,36.0,95.0,672000,700.0
3732,9.0,,,,,,44.0,,,,,480,note_off,,80.0,44.0,80.0,672480,700.5
3733,9.0,,,,,,41.0,,,,,0,note_off,,80.0,41.0,80.0,672480,700.5
3734,9.0,,,,,,36.0,,,,,0,note_off,,80.0,36.0,80.0,672480,700.5
3735,9.0,,,,,,44.0,,,,,0,note_on,,95.0,44.0,95.0,672480,700.5
3736,9.0,,,,,,41.0,,,,,0,note_on,,95.0,41.0,95.0,672480,700.5
3737,9.0,,,,,,36.0,,,,,0,note_on,,95.0,36.0,95.0,672480,700.5
3738,9.0,,,,,,44.0,,,,,480,note_off,,80.0,44.0,80.0,672960,701.0
3739,9.0,,,,,,41.0,,,,,0,note_off,,80.0,41.0,80.0,672960,701.0
3740,9.0,,,,,,36.0,,,,,0,note_off,,80.0,36.0,80.0,672960,701.0
3741,9.0,,,,,,44.0,,,,,0,note_on,,95.0,44.0,95.0,672960,701.0
3742,9.0,,,,,,41.0,,,,,0,note_on,,95.0,41.0,95.0,672960,701.0
3743,9.0,,,,,,36.0,,,,,0,note_on,,95.0,36.0,95.0,672960,701.0
3744,9.0,,,,,,44.0,,,,,480,note_off,,80.0,44.0,80.0,673440,701.5
3745,9.0,,,,,,41.0,,,,,0,note_off,,80.0,41.0,80.0,673440,701.5
3746,9.0,,,,,,36.0,,,,,0,note_off,,80.0,36.0,80.0,673440,701.5
3747,9.0,,,,,,44.0,,,,,0,note_on,,95.0,44.0,95.0,673440,701.5
3748,9.0,,,,,,41.0,,,,,0,note_on,,95.0,41.0,95.0,673440,701.5
3749,9.0,,,,,,36.0,,,,,0,note_on,,95.0,36.0,95.0,673440,701.5
3750,9.0,,,,,,44.0,,,,,480,note_off,,80.0,44.0,80.0,673920,702.0
3751,9.0,,,,,,41.0,,,,,0,note_off,,80.0,41.0,80.0,673920,702.0
3752,9.0,,,,,,36.0,,,,,0,note_off,,80.0,36.0,80.0,673920,702.0
3753,9.0,,,,,,44.0,,,,,0,note_on,,95.0,44.0,95.0,673920,702.0
3754,9.0,,,,,,41.0,,,,,0,note_on,,95.0,41.0,95.0,673920,702.0
3755,9.0,,,,,,36.0,,,,,0,note_on,,95.0,36.0,95.0,673920,702.0
3756,9.0,,,,,,44.0,,,,,480,note_off,,80.0,44.0,80.0,674400,702.5
3757,9.0,,,,,,41.0,,,,,0,note_off,,80.0,41.0,80.0,674400,702.5
3758,9.0,,,,,,36.0,,,,,0,note_off,,80.0,36.0,80.0,674400,702.5
3759,9.0,,,,,,44.0,,,,,0,note_on,,95.0,44.0,95.0,674400,702.5
3760,9.0,,,,,,41.0,,,,,0,note_on,,95.0,41.0,95.0,674400,702.5
3761,9.0,,,,,,36.0,,,,,0,note_on,,95.0,36.0,95.0,674400,702.5
3762,9.0,,,,,,44.0,,,,,480,note_off,,80.0,44.0,80.0,674880,703.0
3763,9.0,,,,,,41.0,,,,,0,note_off,,80.0,41.0,80.0,674880,703.0
3764,9.0,,,,,,36.0,,,,,0,note_off,,80.0,36.0,80.0,674880,703.0
3765,9.0,,,,,,44.0,,,,,0,note_on,,95.0,44.0,95.0,674880,703.0
3766,9.0,,,,,,41.0,,,,,0,note_on,,95.0,41.0,95.0,674880,703.0
3767,9.0,,,,,,36.0,,,,,0,note_on,,95.0,36.0,95.0,674880,703.0
3768,9.0,,,,,,44.0,,,,,480,note_off,,80.0,44.0,80.0,675360,703.5
3769,9.0,,,,,,41.0,,,,,0,note_off,,80.0,41.0,80.0,675360,703.5
3770,9.0,,,,,,36.0,,,,,0,note_off,,80.0,36.0,80.0,675360,703.5
3771,9.0,,,,,,44.0,,,,,0,note_on,,95.0,44.0,95.0,675360,703.5
3772,9.0,,,,,,41.0,,,,,0,note_on,,95.0,41.0,95.0,675360,703.5
3773,9.0,,,,,,36.0,,,,,0,note_on,,95.0,36.0,95.0,675360,703.5
3774,9.0,,,,,,44.0,,,,,480,note_off,,80.0,44.0,80.0,675840,704.0
3775,9.0,,,,,,41.0,,,,,0,note_off,,80.0,41.0,80.0,675840,704.0
3776,9.0,,,,,,36.0,,,,,0,note_off,,80.0,36.0,80.0,675840,704.0
3777,9.0,,,,,,44.0,,,,,0,note_on,,95.0,44.0,95.0,675840,704.0
3778,9.0,,,,,,41.0,,,,,0,note_on,,95.0,41.0,95.0,675840,704.0
3779,9.0,,,,,,36.0,,,,,0,note_on,,95.0,36.0,95.0,675840,704.0
3780,9.0,,,,,,44.0,,,,,480,note_off,,80.0,44.0,80.0,676320,704.5
3781,9.0,,,,,,41.0,,,,,0,note_off,,80.0,41.0,80.0,676320,704.5
3782,9.0,,,,,,36.0,,,,,0,note_off,,80.0,36.0,80.0,676320,704.5
3783,9.0,,,,,,44.0,,,,,0,note_on,,95.0,44.0,95.0,676320,704.5
3784,9.0,,,,,,41.0,,,,,0,note_on,,95.0,41.0,95.0,676320,704.5
3785,9.0,,,,,,36.0,,,,,0,note_on,,95.0,36.0,95.0,676320,704.5
3786,9.0,,,,,,44.0,,,,,480,note_off,,80.0,44.0,80.0,676800,705.0
3787,9.0,,,,,,41.0,,,,,0,note_off,,80.0,41.0,80.0,676800,705.0
3788,9.0,,,,,,36.0,,,,,0,note_off,,80.0,36.0,80.0,676800,705.0
3789,9.0,,,,,,44.0,,,,,0,note_on,,95.0,44.0,95.0,676800,705.0
3790,9.0,,,,,,41.0,,,,,0,note_on,,95.0,41.0,95.0,676800,705.0
3791,9.0,,,,,,36.0,,,,,0,note_on,,95.0,36.0,95.0,676800,705.0
3792,9.0,,,,,,44.0,,,,,480,note_off,,80.0,44.0,80.0,677280,705.5
3793,9.0,,,,,,41.0,,,,,0,note_off,,80.0,41.0,80.0,677280,705.5
3794,9.0,,,,,,36.0,,,,,0,note_off,,80.0,36.0,80.0,677280,705.5
3795,9.0,,,,,,44.0,,,,,0,note_on,,95.0,44.0,95.0,677280,705.5
3796,9.0,,,,,,41.0,,,,,0,note_on,,95.0,41.0,95.0,677280,705.5
3797,9.0,,,,,,36.0,,,,,0,note_on,,95.0,36.0,95.0,677280,705.5
3798,9.0,,,,,,44.0,,,,,480,note_off,,80.0,44.0,80.0,677760,706.0
3799,9.0,,,,,,41.0,,,,,0,note_off,,80.0,41.0,80.0,677760,706.0
3800,9.0,,,,,,36.0,,,,,0,note_off,,80.0,36.0,80.0,677760,706.0
3801,9.0,,,,,,44.0,,,,,0,note_on,,95.0,44.0,95.0,677760,706.0
3802,9.0,,,,,,41.0,,,,,0,note_on,,95.0,41.0,95.0,677760,706.0
3803,9.0,,,,,,36.0,,,,,0,note_on,,95.0,36.0,95.0,677760,706.0
3804,9.0,,,,,,44.0,,,,,480,note_off,,80.0,44.0,80.0,678240,706.5
3805,9.0,,,,,,41.0,,,,,0,note_off,,80.0,41.0,80.0,678240,706.5
3806,9.0,,,,,,36.0,,,,,0,note_off,,80.0,36.0,80.0,678240,706.5
3807,9.0,,,,,,44.0,,,,,0,note_on,,95.0,44.0,95.0,678240,706.5
3808,9.0,,,,,,41.0,,,,,0,note_on,,95.0,41.0,95.0,678240,706.5
3809,9.0,,,,,,36.0,,,,,0,note_on,,95.0,36.0,95.0,678240,706.5
3810,9.0,,,,,,44.0,,,,,480,note_off,,80.0,44.0,80.0,678720,707.0
3811,9.0,,,,,,41.0,,,,,0,note_off,,80.0,41.0,80.0,678720,707.0
3812,9.0,,,,,,36.0,,,,,0,note_off,,80.0,36.0,80.0,678720,707.0
3813,9.0,,,,,,44.0,,,,,0,note_on,,95.0,44.0,95.0,678720,707.0
3814,9.0,,,,,,41.0,,,,,0,note_on,,95.0,41.0,95.0,678720,707.0
3815,9.0,,,,,,36.0,,,,,0,note_on,,95.0,36.0,95.0,678720,707.0
3816,9.0,,,,,,44.0,,,,,480,note_off,,80.0,44.0,80.0,679200,707.5
3817,9.0,,,,,,41.0,,,,,0,note_off,,80.0,41.0,80.0,679200,707.5
3818,9.0,,,,,,36.0,,,,,0,note_off,,80.0,36.0,80.0,679200,707.5
3819,9.0,,,,,,44.0,,,,,0,note_on,,95.0,44.0,95.0,679200,707.5
3820,9.0,,,,,,41.0,,,,,0,note_on,,95.0,41.0,95.0,679200,707.5
3821,9.0,,,,,,36.0,,,,,0,note_on,,95.0,36.0,95.0,679200,707.5
3822,9.0,,,,,,44.0,,,,,480,note_off,,80.0,44.0,80.0,679680,708.0
3823,9.0,,,,,,41.0,,,,,0,note_off,,80.0,41.0,80.0,679680,708.0
3824,9.0,,,,,,36.0,,,,,0,note_off,,80.0,36.0,80.0,679680,708.0
3825,9.0,,,,,,44.0,,,,,0,note_on,,95.0,44.0,95.0,679680,708.0
3826,9.0,,,,,,41.0,,,,,0,note_on,,95.0,41.0,95.0,679680,708.0
3827,9.0,,,,,,36.0,,,,,0,note_on,,95.0,36.0,95.0,679680,708.0
3828,9.0,,,,,,44.0,,,,,480,note_off,,80.0,44.0,80.0,680160,708.5
3829,9.0,,,,,,41.0,,,,,0,note_off,,80.0,41.0,80.0,680160,708.5
3830,9.0,,,,,,36.0,,,,,0,note_off,,80.0,36.0,80.0,680160,708.5
3831,9.0,,,,,,44.0,,,,,0,note_on,,95.0,44.0,95.0,680160,708.5
3832,9.0,,,,,,41.0,,,,,0,note_on,,95.0,41.0,95.0,680160,708.5
3833,9.0,,,,,,36.0,,,,,0,note_on,,95.0,36.0,95.0,680160,708.5
3834,9.0,,,,,,44.0,,,,,480,note_off,,80.0,44.0,80.0,680640,709.0
3835,9.0,,,,,,41.0,,,,,0,note_off,,80.0,41.0,80.0,680640,709.0
3836,9.0,,,,,,36.0,,,,,0,note_off,,80.0,36.0,80.0,680640,709.0
3837,9.0,,,,,,44.0,,,,,0,note_on,,95.0,44.0,95.0,680640,709.0
3838,9.0,,,,,,41.0,,,,,0,note_on,,95.0,41.0,95.0,680640,709.0
3839,9.0,,,,,,36.0,,,,,0,note_on,,95.0,36.0,95.0,680640,709.0
3840,9.0,,,,,,44.0,,,,,480,note_off,,80.0,44.0,80.0,681120,709.5
3841,9.0,,,,,,41.0,,,,,0,note_off,,80.0,41.0,80.0,681120,709.5
3842,9.0,,,,,,36.0,,,,,0,note_off,,80.0,36.0,80.0,681120,709.5
3843,9.0,,,,,,44.0,,,,,0,note_on,,95.0,44.0,95.0,681120,709.5
3844,9.0,,,,,,41.0,,,,,0,note_on,,95.0,41.0,95.0,681120,709.5
3845,9.0,,,,,,36.0,,,,,0,note_on,,95.0,36.0,95.0,681120,709.5
3846,9.0,,,,,,44.0,,,,,480,note_off,,80.0,44.0,80.0,681600,710.0
3847,9.0,,,,,,41.0,,,,,0,note_off,,80.0,41.0,80.0,681600,710.0
3848,9.0,,,,,,36.0,,,,,0,note_off,,80.0,36.0,80.0,681600,710.0
3849,9.0,,,,,,44.0,,,,,0,note_on,,95.0,44.0,95.0,681600,710.0
3850,9.0,,,,,,41.0,,,,,0,note_on,,95.0,41.0,95.0,681600,710.0
3851,9.0,,,,,,36.0,,,,,0,note_on,,95.0,36.0,95.0,681600,710.0
3852,9.0,,,,,,44.0,,,,,480,note_off,,80.0,44.0,80.0,682080,710.5
3853,9.0,,,,,,41.0,,,,,0,note_off,,80.0,41.0,80.0,682080,710.5
3854,9.0,,,,,,36.0,,,,,0,note_off,,80.0,36.0,80.0,682080,710.5
3855,9.0,,,,,,44.0,,,,,0,note_on,,95.0,44.0,95.0,682080,710.5
3856,9.0,,,,,,41.0,,,,,0,note_on,,95.0,41.0,95.0,682080,710.5
3857,9.0,,,,,,36.0,,,,,0,note_on,,95.0,36.0,95.0,682080,710.5
3858,9.0,,,,,,44.0,,,,,480,note_off,,80.0,44.0,80.0,682560,711.0
3859,9.0,,,,,,41.0,,,,,0,note_off,,80.0,41.0,80.0,682560,711.0
3860,9.0,,,,,,36.0,,,,,0,note_off,,80.0,36.0,80.0,682560,711.0
3861,9.0,,,,,,44.0,,,,,0,note_on,,95.0,44.0,95.0,682560,711.0
3862,9.0,,,,,,41.0,,,,,0,note_on,,95.0,41.0,95.0,682560,711.0
3863,9.0,,,,,,36.0,,,,,0,note_on,,95.0,36.0,95.0,682560,711.0
3864,9.0,,,,,,44.0,,,,,480,note_off,,80.0,44.0,80.0,683040,711.5
3865,9.0,,,,,,41.0,,,,,0,note_off,,80.0,41.0,80.0,683040,711.5
3866,9.0,,,,,,36.0,,,,,0,note_off,,80.0,36.0,80.0,683040,711.5
3867,9.0,,,,,,44.0,,,,,0,note_on,,95.0,44.0,95.0,683040,711.5
3868,9.0,,,,,,41.0,,,,,0,note_on,,95.0,41.0,95.0,683040,711.5
3869,9.0,,,,,,36.0,,,,,0,note_on,,95.0,36.0,95.0,683040,711.5
3870,9.0,,,,,,44.0,,,,,480,note_off,,80.0,44.0,80.0,683520,712.0
3871,9.0,,,,,,41.0,,,,,0,note_off,,80.0,41.0,80.0,683520,712.0
3872,9.0,,,,,,36.0,,,,,0,note_off,,80.0,36.0,80.0,683520,712.0
3873,9.0,,,,,,44.0,,,,,0,note_on,,95.0,44.0,95.0,683520,712.0
3874,9.0,,,,,,41.0,,,,,0,note_on,,95.0,41.0,95.0,683520,712.0
3875,9.0,,,,,,36.0,,,,,0,note_on,,95.0,36.0,95.0,683520,712.0
3876,9.0,,,,,,44.0,,,,,480,note_off,,80.0,44.0,80.0,684000,712.5
3877,9.0,,,,,,41.0,,,,,0,note_off,,80.0,41.0,80.0,684000,712.5
3878,9.0,,,,,,36.0,,,,,0,note_off,,80.0,36.0,80.0,684000,712.5
3879,9.0,,,,,,44.0,,,,,0,note_on,,95.0,44.0,95.0,684000,712.5
3880,9.0,,,,,,41.0,,,,,0,note_on,,95.0,41.0,95.0,684000,712.5
3881,9.0,,,,,,36.0,,,,,0,note_on,,95.0,36.0,95.0,684000,712.5
3882,9.0,,,,,,44.0,,,,,480,note_off,,80.0,44.0,80.0,684480,713.0
3883,9.0,,,,,,41.0,,,,,0,note_off,,80.0,41.0,80.0,684480,713.0
3884,9.0,,,,,,36.0,,,,,0,note_off,,80.0,36.0,80.0,684480,713.0
3885,9.0,,,,,,44.0,,,,,0,note_on,,95.0,44.0,95.0,684480,713.0
3886,9.0,,,,,,41.0,,,,,0,note_on,,95.0,41.0,95.0,684480,713.0
3887,9.0,,,,,,36.0,,,,,0,note_on,,95.0,36.0,95.0,684480,713.0
3888,9.0,,,,,,44.0,,,,,480,note_off,,80.0,44.0,80.0,684960,713.5
3889,9.0,,,,,,41.0,,,,,0,note_off,,80.0,41.0,80.0,684960,713.5
3890,9.0,,,,,,36.0,,,,,0,note_off,,80.0,36.0,80.0,684960,713.5
3891,9.0,,,,,,44.0,,,,,0,note_on,,95.0,44.0,95.0,684960,713.5
3892,9.0,,,,,,41.0,,,,,0,note_on,,95.0,41.0,95.0,684960,713.5
3893,9.0,,,,,,36.0,,,,,0,note_on,,95.0,36.0,95.0,684960,713.5
3894,9.0,,,,,,44.0,,,,,480,note_off,,80.0,44.0,80.0,685440,714.0
3895,9.0,,,,,,41.0,,,,,0,note_off,,80.0,41.0,80.0,685440,714.0
3896,9.0,,,,,,36.0,,,,,0,note_off,,80.0,36.0,80.0,685440,714.0
3897,9.0,,,,,,44.0,,,,,0,note_on,,95.0,44.0,95.0,685440,714.0
3898,9.0,,,,,,41.0,,,,,0,note_on,,95.0,41.0,95.0,685440,714.0
3899,9.0,,,,,,36.0,,,,,0,note_on,,95.0,36.0,95.0,685440,714.0
3900,9.0,,,,,,44.0,,,,,480,note_off,,80.0,44.0,80.0,685920,714.5
3901,9.0,,,,,,41.0,,,,,0,note_off,,80.0,41.0,80.0,685920,714.5
3902,9.0,,,,,,36.0,,,,,0,note_off,,80.0,36.0,80.0,685920,714.5
3903,9.0,,,,,,44.0,,,,,0,note_on,,95.0,44.0,95.0,685920,714.5
3904,9.0,,,,,,41.0,,,,,0,note_on,,95.0,41.0,95.0,685920,714.5
3905,9.0,,,,,,36.0,,,,,0,note_on,,95.0,36.0,95.0,685920,714.5
3906,9.0,,,,,,44.0,,,,,480,note_off,,80.0,44.0,80.0,686400,715.0
3907,9.0,,,,,,41.0,,,,,0,note_off,,80.0,41.0,80.0,686400,715.0
3908,9.0,,,,,,36.0,,,,,0,note_off,,80.0,36.0,80.0,686400,715.0
3909,9.0,,,,,,44.0,,,,,0,note_on,,95.0,44.0,95.0,686400,715.0
3910,9.0,,,,,,41.0,,,,,0,note_on,,95.0,41.0,95.0,686400,715.0
3911,9.0,,,,,,36.0,,,,,0,note_on,,95.0,36.0,95.0,686400,715.0
3912,9.0,,,,,,44.0,,,,,480,note_off,,80.0,44.0,80.0,686880,715.5
3913,9.0,,,,,,41.0,,,,,0,note_off,,80.0,41.0,80.0,686880,715.5
3914,9.0,,,,,,36.0,,,,,0,note_off,,80.0,36.0,80.0,686880,715.5
3915,9.0,,,,,,44.0,,,,,0,note_on,,95.0,44.0,95.0,686880,715.5
3916,9.0,,,,,,41.0,,,,,0,note_on,,95.0,41.0,95.0,686880,715.5
3917,9.0,,,,,,36.0,,,,,0,note_on,,95.0,36.0,95.0,686880,715.5
3918,9.0,,,,,,44.0,,,,,480,note_off,,80.0,44.0,80.0,687360,716.0
3919,9.0,,,,,,41.0,,,,,0,note_off,,80.0,41.0,80.0,687360,716.0
3920,9.0,,,,,,36.0,,,,,0,note_off,,80.0,36.0,80.0,687360,716.0
3921,9.0,,,,,,44.0,,,,,0,note_on,,95.0,44.0,95.0,687360,716.0
3922,9.0,,,,,,41.0,,,,,0,note_on,,95.0,41.0,95.0,687360,716.0
3923,9.0,,,,,,36.0,,,,,0,note_on,,95.0,36.0,95.0,687360,716.0
3924,9.0,,,,,,44.0,,,,,480,note_off,,80.0,44.0,80.0,687840,716.5
3925,9.0,,,,,,41.0,,,,,0,note_off,,80.0,41.0,80.0,687840,716.5
3926,9.0,,,,,,36.0,,,,,0,note_off,,80.0,36.0,80.0,687840,716.5
3927,9.0,,,,,,44.0,,,,,0,note_on,,95.0,44.0,95.0,687840,716.5
3928,9.0,,,,,,41.0,,,,,0,note_on,,95.0,41.0,95.0,687840,716.5
3929,9.0,,,,,,36.0,,,,,0,note_on,,95.0,36.0,95.0,687840,716.5
3930,9.0,,,,,,44.0,,,,,480,note_off,,80.0,44.0,80.0,688320,717.0
3931,9.0,,,,,,41.0,,,,,0,note_off,,80.0,41.0,80.0,688320,717.0
3932,9.0,,,,,,36.0,,,,,0,note_off,,80.0,36.0,80.0,688320,717.0
3933,9.0,,,,,,44.0,,,,,0,note_on,,95.0,44.0,95.0,688320,717.0
3934,9.0,,,,,,41.0,,,,,0,note_on,,95.0,41.0,95.0,688320,717.0
3935,9.0,,,,,,36.0,,,,,0,note_on,,95.0,36.0,95.0,688320,717.0
3936,9.0,,,,,,44.0,,,,,480,note_off,,80.0,44.0,80.0,688800,717.5
3937,9.0,,,,,,41.0,,,,,0,note_off,,80.0,41.0,80.0,688800,717.5
3938,9.0,,,,,,36.0,,,,,0,note_off,,80.0,36.0,80.0,688800,717.5
3939,9.0,,,,,,44.0,,,,,0,note_on,,95.0,44.0,95.0,688800,717.5
3940,9.0,,,,,,41.0,,,,,0,note_on,,95.0,41.0,95.0,688800,717.5
3941,9.0,,,,,,36.0,,,,,0,note_on,,95.0,36.0,95.0,688800,717.5
3942,9.0,,,,,,44.0,,,,,480,note_off,,80.0,44.0,80.0,689280,718.0
3943,9.0,,,,,,41.0,,,,,0,note_off,,80.0,41.0,80.0,689280,718.0
3944,9.0,,,,,,36.0,,,,,0,note_off,,80.0,36.0,80.0,689280,718.0
3945,9.0,,,,,,44.0,,,,,0,note_on,,95.0,44.0,95.0,689280,718.0
3946,9.0,,,,,,41.0,,,,,0,note_on,,95.0,41.0,95.0,689280,718.0
3947,9.0,,,,,,36.0,,,,,0,note_on,,95.0,36.0,95.0,689280,718.0
3948,9.0,,,,,,44.0,,,,,480,note_off,,80.0,44.0,80.0,689760,718.5
3949,9.0,,,,,,41.0,,,,,0,note_off,,80.0,41.0,80.0,689760,718.5
3950,9.0,,,,,,36.0,,,,,0,note_off,,80.0,36.0,80.0,689760,718.5
3951,9.0,,,,,,44.0,,,,,0,note_on,,95.0,44.0,95.0,689760,718.5
3952,9.0,,,,,,41.0,,,,,0,note_on,,95.0,41.0,95.0,689760,718.5
3953,9.0,,,,,,36.0,,,,,0,note_on,,95.0,36.0,95.0,689760,718.5
3954,9.0,,,,,,44.0,,,,,480,note_off,,80.0,44.0,80.0,690240,719.0
3955,9.0,,,,,,41.0,,,,,0,note_off,,80.0,41.0,80.0,690240,719.0
3956,9.0,,,,,,36.0,,,,,0,note_off,,80.0,36.0,80.0,690240,719.0
3957,9.0,,,,,,44.0,,,,,0,note_on,,95.0,44.0,95.0,690240,719.0
3958,9.0,,,,,,41.0,,,,,0,note_on,,95.0,41.0,95.0,690240,719.0
3959,9.0,,,,,,36.0,,,,,0,note_on,,95.0,36.0,95.0,690240,719.0
3960,9.0,,,,,,44.0,,,,,480,note_off,,80.0,44.0,80.0,690720,719.5
3961,9.0,,,,,,41.0,,,,,0,note_off,,80.0,41.0,80.0,690720,719.5
3962,9.0,,,,,,36.0,,,,,0,note_off,,80.0,36.0,80.0,690720,719.5
3963,9.0,,,,,,44.0,,,,,0,note_on,,95.0,44.0,95.0,690720,719.5
3964,9.0,,,,,,41.0,,,,,0,note_on,,95.0,41.0,95.0,690720,719.5
3965,9.0,,,,,,36.0,,,,,0,note_on,,95.0,36.0,95.0,690720,719.5
3966,9.0,,,,,,44.0,,,,,480,note_off,,80.0,44.0,80.0,691200,720.0
3967,9.0,,,,,,41.0,,,,,0,note_off,,80.0,41.0,80.0,691200,720.0
3968,9.0,,,,,,36.0,,,,,0,note_off,,80.0,36.0,80.0,691200,720.0
3969,9.0,,,,,,44.0,,,,,0,note_on,,95.0,44.0,95.0,691200,720.0
3970,9.0,,,,,,41.0,,,,,0,note_on,,95.0,41.0,95.0,691200,720.0
3971,9.0,,,,,,36.0,,,,,0,note_on,,95.0,36.0,95.0,691200,720.0
3972,9.0,,,,,,44.0,,,,,480,note_off,,80.0,44.0,80.0,691680,720.5
3973,9.0,,,,,,41.0,,,,,0,note_off,,80.0,41.0,80.0,691680,720.5
3974,9.0,,,,,,36.0,,,,,0,note_off,,80.0,36.0,80.0,691680,720.5
3975,9.0,,,,,,44.0,,,,,0,note_on,,95.0,44.0,95.0,691680,720.5
3976,9.0,,,,,,41.0,,,,,0,note_on,,95.0,41.0,95.0,691680,720.5
3977,9.0,,,,,,36.0,,,,,0,note_on,,95.0,36.0,95.0,691680,720.5
3978,9.0,,,,,,44.0,,,,,480,note_off,,80.0,44.0,80.0,692160,721.0
3979,9.0,,,,,,41.0,,,,,0,note_off,,80.0,41.0,80.0,692160,721.0
3980,9.0,,,,,,36.0,,,,,0,note_off,,80.0,36.0,80.0,692160,721.0
3981,9.0,,,,,,44.0,,,,,0,note_on,,95.0,44.0,95.0,692160,721.0
3982,9.0,,,,,,41.0,,,,,0,note_on,,95.0,41.0,95.0,692160,721.0
3983,9.0,,,,,,36.0,,,,,0,note_on,,95.0,36.0,95.0,692160,721.0
3984,9.0,,,,,,44.0,,,,,480,note_off,,80.0,44.0,80.0,692640,721.5
3985,9.0,,,,,,41.0,,,,,0,note_off,,80.0,41.0,80.0,692640,721.5
3986,9.0,,,,,,36.0,,,,,0,note_off,,80.0,36.0,80.0,692640,721.5
3987,9.0,,,,,,44.0,,,,,0,note_on,,95.0,44.0,95.0,692640,721.5
3988,9.0,,,,,,41.0,,,,,0,note_on,,95.0,41.0,95.0,692640,721.5
3989,9.0,,,,,,36.0,,,,,0,note_on,,95.0,36.0,95.0,692640,721.5
3990,9.0,,,,,,44.0,,,,,480,note_off,,80.0,44.0,80.0,693120,722.0
3991,9.0,,,,,,41.0,,,,,0,note_off,,80.0,41.0,80.0,693120,722.0
3992,9.0,,,,,,36.0,,,,,0,note_off,,80.0,36.0,80.0,693120,722.0
3993,9.0,,,,,,44.0,,,,,0,note_on,,95.0,44.0,95.0,693120,722.0
3994,9.0,,,,,,41.0,,,,,0,note_on,,95.0,41.0,95.0,693120,722.0
3995,9.0,,,,,,36.0,,,,,0,note_on,,95.0,36.0,95.0,693120,722.0
3996,9.0,,,,,,44.0,,,,,480,note_off,,80.0,44.0,80.0,693600,722.5
3997,9.0,,,,,,41.0,,,,,0,note_off,,80.0,41.0,80.0,693600,722.5
3998,9.0,,,,,,36.0,,,,,0,note_off,,80.0,36.0,80.0,693600,722.5
3999,9.0,,,,,,44.0,,,,,0,note_on,,95.0,44.0,95.0,693600,722.5
4000,9.0,,,,,,41.0,,,,,0,note_on,,95.0,41.0,95.0,693600,722.5
4001,9.0,,,,,,36.0,,,,,0,note_on,,95.0,36.0,95.0,693600,722.5
4002,9.0,,,,,,44.0,,,,,480,note_off,,80.0,44.0,80.0,694080,723.0
4003,9.0,,,,,,41.0,,,,,0,note_off,,80.0,41.0,80.0,694080,723.0
4004,9.0,,,,,,36.0,,,,,0,note_off,,80.0,36.0,80.0,694080,723.0
4005,9.0,,,,,,44.0,,,,,0,note_on,,95.0,44.0,95.0,694080,723.0
4006,9.0,,,,,,41.0,,,,,0,note_on,,95.0,41.0,95.0,694080,723.0
4007,9.0,,,,,,36.0,,,,,0,note_on,,95.0,36.0,95.0,694080,723.0
4008,9.0,,,,,,44.0,,,,,480,note_off,,80.0,44.0,80.0,694560,723.5
4009,9.0,,,,,,41.0,,,,,0,note_off,,80.0,41.0,80.0,694560,723.5
4010,9.0,,,,,,36.0,,,,,0,note_off,,80.0,36.0,80.0,694560,723.5
4011,9.0,,,,,,44.0,,,,,0,note_on,,95.0,44.0,95.0,694560,723.5
4012,9.0,,,,,,41.0,,,,,0,note_on,,95.0,41.0,95.0,694560,723.5
4013,9.0,,,,,,36.0,,,,,0,note_on,,95.0,36.0,95.0,694560,723.5
4014,9.0,,,,,,44.0,,,,,480,note_off,,80.0,44.0,80.0,695040,724.0
4015,9.0,,,,,,41.0,,,,,0,note_off,,80.0,41.0,80.0,695040,724.0
4016,9.0,,,,,,36.0,,,,,0,note_off,,80.0,36.0,80.0,695040,724.0
4017,9.0,,,,,,44.0,,,,,0,note_on,,95.0,44.0,95.0,695040,724.0
4018,9.0,,,,,,36.0,,,,,0,note_on,,95.0,36.0,95.0,695040,724.0
4019,9.0,,,,,,44.0,,,,,480,note_off,,80.0,44.0,80.0,695520,724.5
4020,9.0,,,,,,36.0,,,,,0,note_off,,80.0,36.0,80.0,695520,724.5
4021,9.0,,,,,,44.0,,,,,0,note_on,,95.0,44.0,95.0,695520,724.5
4022,9.0,,,,,,38.0,,,,,0,note_on,,95.0,38.0,95.0,695520,724.5
4023,9.0,,,,,,44.0,,,,,480,note_off,,80.0,44.0,80.0,696000,725.0
4024,9.0,,,,,,38.0,,,,,0,note_off,,80.0,38.0,80.0,696000,725.0
4025,9.0,,,,,,44.0,,,,,0,note_on,,95.0,44.0,95.0,696000,725.0
4026,9.0,,,,,,36.0,,,,,0,note_on,,95.0,36.0,95.0,696000,725.0
4027,9.0,,,,,,44.0,,,,,480,note_off,,80.0,44.0,80.0,696480,725.5
4028,9.0,,,,,,36.0,,,,,0,note_off,,80.0,36.0,80.0,696480,725.5
4029,9.0,,,,,,44.0,,,,,0,note_on,,95.0,44.0,95.0,696480,725.5
4030,9.0,,,,,,38.0,,,,,0,note_on,,95.0,38.0,95.0,696480,725.5
4031,9.0,,,,,,44.0,,,,,480,note_off,,80.0,44.0,80.0,696960,726.0
4032,9.0,,,,,,38.0,,,,,0,note_off,,80.0,38.0,80.0,696960,726.0
4033,9.0,,,,,,44.0,,,,,0,note_on,,95.0,44.0,95.0,696960,726.0
4034,9.0,,,,,,36.0,,,,,0,note_on,,95.0,36.0,95.0,696960,726.0
4035,9.0,,,,,,44.0,,,,,480,note_off,,80.0,44.0,80.0,697440,726.5
4036,9.0,,,,,,36.0,,,,,0,note_off,,80.0,36.0,80.0,697440,726.5
4037,9.0,,,,,,44.0,,,,,0,note_on,,95.0,44.0,95.0,697440,726.5
4038,9.0,,,,,,38.0,,,,,0,note_on,,95.0,38.0,95.0,697440,726.5
4039,9.0,,,,,,44.0,,,,,480,note_off,,80.0,44.0,80.0,697920,727.0
4040,9.0,,,,,,38.0,,,,,0,note_off,,80.0,38.0,80.0,697920,727.0
4041,9.0,,,,,,44.0,,,,,0,note_on,,95.0,44.0,95.0,697920,727.0
4042,9.0,,,,,,36.0,,,,,0,note_on,,95.0,36.0,95.0,697920,727.0
4043,9.0,,,,,,44.0,,,,,480,note_off,,80.0,44.0,80.0,698400,727.5
4044,9.0,,,,,,36.0,,,,,0,note_off,,80.0,36.0,80.0,698400,727.5
4045,9.0,,,,,,44.0,,,,,0,note_on,,95.0,44.0,95.0,698400,727.5
4046,9.0,,,,,,38.0,,,,,0,note_on,,95.0,38.0,95.0,698400,727.5
4047,9.0,,,,,,44.0,,,,,480,note_off,,80.0,44.0,80.0,698880,728.0
4048,9.0,,,,,,38.0,,,,,0,note_off,,80.0,38.0,80.0,698880,728.0
4049,9.0,,,,,,44.0,,,,,0,note_on,,95.0,44.0,95.0,698880,728.0
4050,9.0,,,,,,36.0,,,,,0,note_on,,95.0,36.0,95.0,698880,728.0
4051,9.0,,,,,,44.0,,,,,480,note_off,,80.0,44.0,80.0,699360,728.5
4052,9.0,,,,,,36.0,,,,,0,note_off,,80.0,36.0,80.0,699360,728.5
4053,9.0,,,,,,44.0,,,,,0,note_on,,95.0,44.0,95.0,699360,728.5
4054,9.0,,,,,,38.0,,,,,0,note_on,,95.0,38.0,95.0,699360,728.5
4055,9.0,,,,,,44.0,,,,,480,note_off,,80.0,44.0,80.0,699840,729.0
4056,9.0,,,,,,38.0,,,,,0,note_off,,80.0,38.0,80.0,699840,729.0
4057,9.0,,,,,,44.0,,,,,0,note_on,,95.0,44.0,95.0,699840,729.0
4058,9.0,,,,,,36.0,,,,,0,note_on,,95.0,36.0,95.0,699840,729.0
4059,9.0,,,,,,44.0,,,,,480,note_off,,80.0,44.0,80.0,700320,729.5
4060,9.0,,,,,,36.0,,,,,0,note_off,,80.0,36.0,80.0,700320,729.5
4061,9.0,,,,,,44.0,,,,,0,note_on,,95.0,44.0,95.0,700320,729.5
4062,9.0,,,,,,38.0,,,,,0,note_on,,95.0,38.0,95.0,700320,729.5
4063,9.0,,,,,,44.0,,,,,480,note_off,,80.0,44.0,80.0,700800,730.0
4064,9.0,,,,,,38.0,,,,,0,note_off,,80.0,38.0,80.0,700800,730.0
4065,9.0,,,,,,44.0,,,,,0,note_on,,95.0,44.0,95.0,700800,730.0
4066,9.0,,,,,,36.0,,,,,0,note_on,,95.0,36.0,95.0,700800,730.0
4067,9.0,,,,,,44.0,,,,,480,note_off,,80.0,44.0,80.0,701280,730.5
4068,9.0,,,,,,36.0,,,,,0,note_off,,80.0,36.0,80.0,701280,730.5
4069,9.0,,,,,,44.0,,,,,0,note_on,,95.0,44.0,95.0,701280,730.5
4070,9.0,,,,,,38.0,,,,,0,note_on,,95.0,38.0,95.0,701280,730.5
4071,9.0,,,,,,44.0,,,,,480,note_off,,80.0,44.0,80.0,701760,731.0
4072,9.0,,,,,,38.0,,,,,0,note_off,,80.0,38.0,80.0,701760,731.0
4073,9.0,,,,,,44.0,,,,,0,note_on,,95.0,44.0,95.0,701760,731.0
4074,9.0,,,,,,36.0,,,,,0,note_on,,95.0,36.0,95.0,701760,731.0
4075,9.0,,,,,,44.0,,,,,480,note_off,,80.0,44.0,80.0,702240,731.5
4076,9.0,,,,,,36.0,,,,,0,note_off,,80.0,36.0,80.0,702240,731.5
4077,9.0,,,,,,44.0,,,,,0,note_on,,95.0,44.0,95.0,702240,731.5
4078,9.0,,,,,,38.0,,,,,0,note_on,,95.0,38.0,95.0,702240,731.5
4079,9.0,,,,,,44.0,,,,,480,note_off,,80.0,44.0,80.0,702720,732.0
4080,9.0,,,,,,38.0,,,,,0,note_off,,80.0,38.0,80.0,702720,732.0
4081,9.0,,,,,,44.0,,,,,0,note_on,,95.0,44.0,95.0,702720,732.0
4082,9.0,,,,,,36.0,,,,,0,note_on,,95.0,36.0,95.0,702720,732.0
4083,9.0,,,,,,44.0,,,,,480,note_off,,80.0,44.0,80.0,703200,732.5
4084,9.0,,,,,,36.0,,,,,0,note_off,,80.0,36.0,80.0,703200,732.5
4085,9.0,,,,,,44.0,,,,,0,note_on,,95.0,44.0,95.0,703200,732.5
4086,9.0,,,,,,38.0,,,,,0,note_on,,95.0,38.0,95.0,703200,732.5
4087,9.0,,,,,,44.0,,,,,480,note_off,,80.0,44.0,80.0,703680,733.0
4088,9.0,,,,,,38.0,,,,,0,note_off,,80.0,38.0,80.0,703680,733.0
4089,9.0,,,,,,44.0,,,,,0,note_on,,95.0,44.0,95.0,703680,733.0
4090,9.0,,,,,,36.0,,,,,0,note_on,,95.0,36.0,95.0,703680,733.0
4091,9.0,,,,,,44.0,,,,,480,note_off,,80.0,44.0,80.0,704160,733.5
4092,9.0,,,,,,36.0,,,,,0,note_off,,80.0,36.0,80.0,704160,733.5
4093,9.0,,,,,,44.0,,,,,0,note_on,,95.0,44.0,95.0,704160,733.5
4094,9.0,,,,,,38.0,,,,,0,note_on,,95.0,38.0,95.0,704160,733.5
4095,9.0,,,,,,44.0,,,,,480,note_off,,80.0,44.0,80.0,704640,734.0
4096,9.0,,,,,,38.0,,,,,0,note_off,,80.0,38.0,80.0,704640,734.0
4097,9.0,,,,,,44.0,,,,,0,note_on,,95.0,44.0,95.0,704640,734.0
4098,9.0,,,,,,36.0,,,,,0,note_on,,95.0,36.0,95.0,704640,734.0
4099,9.0,,,,,,44.0,,,,,480,note_off,,80.0,44.0,80.0,705120,734.5
4100,9.0,,,,,,36.0,,,,,0,note_off,,80.0,36.0,80.0,705120,734.5
4101,9.0,,,,,,44.0,,,,,0,note_on,,95.0,44.0,95.0,705120,734.5
4102,9.0,,,,,,38.0,,,,,0,note_on,,95.0,38.0,95.0,705120,734.5
4103,9.0,,,,,,44.0,,,,,480,note_off,,80.0,44.0,80.0,705600,735.0
4104,9.0,,,,,,38.0,,,,,0,note_off,,80.0,38.0,80.0,705600,735.0
4105,9.0,,,,,,44.0,,,,,0,note_on,,95.0,44.0,95.0,705600,735.0
4106,9.0,,,,,,36.0,,,,,0,note_on,,95.0,36.0,95.0,705600,735.0
4107,9.0,,,,,,44.0,,,,,480,note_off,,80.0,44.0,80.0,706080,735.5
4108,9.0,,,,,,36.0,,,,,0,note_off,,80.0,36.0,80.0,706080,735.5
4109,9.0,,,,,,44.0,,,,,0,note_on,,95.0,44.0,95.0,706080,735.5
4110,9.0,,,,,,38.0,,,,,0,note_on,,95.0,38.0,95.0,706080,735.5
4111,9.0,,,,,,44.0,,,,,480,note_off,,80.0,44.0,80.0,706560,736.0
4112,9.0,,,,,,38.0,,,,,0,note_off,,80.0,38.0,80.0,706560,736.0
4113,9.0,,,,,,44.0,,,,,0,note_on,,95.0,44.0,95.0,706560,736.0
4114,9.0,,,,,,36.0,,,,,0,note_on,,95.0,36.0,95.0,706560,736.0
4115,9.0,,,,,,44.0,,,,,480,note_off,,80.0,44.0,80.0,707040,736.5
4116,9.0,,,,,,36.0,,,,,0,note_off,,80.0,36.0,80.0,707040,736.5
4117,9.0,,,,,,44.0,,,,,0,note_on,,95.0,44.0,95.0,707040,736.5
4118,9.0,,,,,,38.0,,,,,0,note_on,,95.0,38.0,95.0,707040,736.5
4119,9.0,,,,,,44.0,,,,,480,note_off,,80.0,44.0,80.0,707520,737.0
4120,9.0,,,,,,38.0,,,,,0,note_off,,80.0,38.0,80.0,707520,737.0
4121,9.0,,,,,,44.0,,,,,0,note_on,,95.0,44.0,95.0,707520,737.0
4122,9.0,,,,,,36.0,,,,,0,note_on,,95.0,36.0,95.0,707520,737.0
4123,9.0,,,,,,44.0,,,,,480,note_off,,80.0,44.0,80.0,708000,737.5
4124,9.0,,,,,,36.0,,,,,0,note_off,,80.0,36.0,80.0,708000,737.5
4125,9.0,,,,,,44.0,,,,,0,note_on,,95.0,44.0,95.0,708000,737.5
4126,9.0,,,,,,38.0,,,,,0,note_on,,95.0,38.0,95.0,708000,737.5
4127,9.0,,,,,,44.0,,,,,480,note_off,,80.0,44.0,80.0,708480,738.0
4128,9.0,,,,,,38.0,,,,,0,note_off,,80.0,38.0,80.0,708480,738.0
4129,9.0,,,,,,44.0,,,,,0,note_on,,95.0,44.0,95.0,708480,738.0
4130,9.0,,,,,,36.0,,,,,0,note_on,,95.0,36.0,95.0,708480,738.0
4131,9.0,,,,,,44.0,,,,,480,note_off,,80.0,44.0,80.0,708960,738.5
4132,9.0,,,,,,36.0,,,,,0,note_off,,80.0,36.0,80.0,708960,738.5
4133,9.0,,,,,,44.0,,,,,0,note_on,,95.0,44.0,95.0,708960,738.5
4134,9.0,,,,,,38.0,,,,,0,note_on,,95.0,38.0,95.0,708960,738.5
4135,9.0,,,,,,44.0,,,,,480,note_off,,80.0,44.0,80.0,709440,739.0
4136,9.0,,,,,,38.0,,,,,0,note_off,,80.0,38.0,80.0,709440,739.0
4137,9.0,,,,,,44.0,,,,,0,note_on,,95.0,44.0,95.0,709440,739.0
4138,9.0,,,,,,36.0,,,,,0,note_on,,95.0,36.0,95.0,709440,739.0
4139,9.0,,,,,,44.0,,,,,480,note_off,,80.0,44.0,80.0,709920,739.5
4140,9.0,,,,,,36.0,,,,,0,note_off,,80.0,36.0,80.0,709920,739.5
4141,9.0,,,,,,44.0,,,,,0,note_on,,95.0,44.0,95.0,709920,739.5
4142,9.0,,,,,,38.0,,,,,0,note_on,,95.0,38.0,95.0,709920,739.5
4143,9.0,,,,,,44.0,,,,,480,note_off,,80.0,44.0,80.0,710400,740.0
4144,9.0,,,,,,38.0,,,,,0,note_off,,80.0,38.0,80.0,710400,740.0
4145,9.0,,,,,,57.0,,,,,0,note_on,,95.0,57.0,95.0,710400,740.0
4146,9.0,,,,,,36.0,,,,,0,note_on,,95.0,36.0,95.0,710400,740.0
4147,9.0,,,,,,57.0,,,,,480,note_off,,80.0,57.0,80.0,710880,740.5
4148,9.0,,,,,,36.0,,,,,0,note_off,,80.0,36.0,80.0,710880,740.5
4149,9.0,,,,,,42.0,,,,,0,note_on,,95.0,42.0,95.0,710880,740.5
4150,9.0,,,,,,42.0,,,,,480,note_off,,80.0,42.0,80.0,711360,741.0
4151,9.0,,,,,,42.0,,,,,0,note_on,,95.0,42.0,95.0,711360,741.0
4152,9.0,,,,,,42.0,,,,,480,note_off,,80.0,42.0,80.0,711840,741.5
4153,9.0,,,,,,42.0,,,,,0,note_on,,95.0,42.0,95.0,711840,741.5
4154,9.0,,,,,,42.0,,,,,480,note_off,,80.0,42.0,80.0,712320,742.0
4155,9.0,,,,,,57.0,,,,,0,note_on,,95.0,57.0,95.0,712320,742.0
4156,9.0,,,,,,36.0,,,,,0,note_on,,95.0,36.0,95.0,712320,742.0
4157,9.0,,,,,,57.0,,,,,480,note_off,,80.0,57.0,80.0,712800,742.5
4158,9.0,,,,,,36.0,,,,,0,note_off,,80.0,36.0,80.0,712800,742.5
4159,9.0,,,,,,42.0,,,,,0,note_on,,95.0,42.0,95.0,712800,742.5
4160,9.0,,,,,,42.0,,,,,480,note_off,,80.0,42.0,80.0,713280,743.0
4161,9.0,,,,,,42.0,,,,,0,note_on,,95.0,42.0,95.0,713280,743.0
4162,9.0,,,,,,42.0,,,,,480,note_off,,80.0,42.0,80.0,713760,743.5
4163,9.0,,,,,,42.0,,,,,0,note_on,,95.0,42.0,95.0,713760,743.5
4164,9.0,,,,,,42.0,,,,,480,note_off,,80.0,42.0,80.0,714240,744.0
4165,9.0,,,,,,57.0,,,,,0,note_on,,95.0,57.0,95.0,714240,744.0
4166,9.0,,,,,,36.0,,,,,0,note_on,,95.0,36.0,95.0,714240,744.0
4167,9.0,,,,,,57.0,,,,,480,note_off,,80.0,57.0,80.0,714720,744.5
4168,9.0,,,,,,36.0,,,,,0,note_off,,80.0,36.0,80.0,714720,744.5
4169,9.0,,,,,,57.0,,,,,0,note_on,,95.0,57.0,95.0,714720,744.5
4170,9.0,,,,,,38.0,,,,,0,note_on,,95.0,38.0,95.0,714720,744.5
4171,9.0,,,,,,57.0,,,,,480,note_off,,80.0,57.0,80.0,715200,745.0
4172,9.0,,,,,,38.0,,,,,0,note_off,,80.0,38.0,80.0,715200,745.0
4173,9.0,,,,,,57.0,,,,,0,note_on,,95.0,57.0,95.0,715200,745.0
4174,9.0,,,,,,36.0,,,,,0,note_on,,95.0,36.0,95.0,715200,745.0
4175,9.0,,,,,,57.0,,,,,480,note_off,,80.0,57.0,80.0,715680,745.5
4176,9.0,,,,,,36.0,,,,,0,note_off,,80.0,36.0,80.0,715680,745.5
4177,9.0,,,,,,57.0,,,,,0,note_on,,95.0,57.0,95.0,715680,745.5
4178,9.0,,,,,,38.0,,,,,0,note_on,,95.0,38.0,95.0,715680,745.5
4179,9.0,,,,,,57.0,,,,,480,note_off,,80.0,57.0,80.0,716160,746.0
4180,9.0,,,,,,38.0,,,,,0,note_off,,80.0,38.0,80.0,716160,746.0
4181,9.0,,,,,,57.0,,,,,0,note_on,,95.0,57.0,95.0,716160,746.0
4182,9.0,,,,,,36.0,,,,,0,note_on,,95.0,36.0,95.0,716160,746.0
4183,9.0,,,,,,57.0,,,,,480,note_off,,80.0,57.0,80.0,716640,746.5
4184,9.0,,,,,,36.0,,,,,0,note_off,,80.0,36.0,80.0,716640,746.5
4185,9.0,,,,,,57.0,,,,,0,note_on,,95.0,57.0,95.0,716640,746.5
4186,9.0,,,,,,38.0,,,,,0,note_on,,95.0,38.0,95.0,716640,746.5
4187,9.0,,,,,,57.0,,,,,480,note_off,,80.0,57.0,80.0,717120,747.0
4188,9.0,,,,,,38.0,,,,,0,note_off,,80.0,38.0,80.0,717120,747.0
4189,9.0,,,,,,57.0,,,,,0,note_on,,95.0,57.0,95.0,717120,747.0
4190,9.0,,,,,,36.0,,,,,0,note_on,,95.0,36.0,95.0,717120,747.0
4191,9.0,,,,,,57.0,,,,,480,note_off,,80.0,57.0,80.0,717600,747.5
4192,9.0,,,,,,36.0,,,,,0,note_off,,80.0,36.0,80.0,717600,747.5
4193,9.0,,,,,,57.0,,,,,0,note_on,,95.0,57.0,95.0,717600,747.5
4194,9.0,,,,,,38.0,,,,,0,note_on,,95.0,38.0,95.0,717600,747.5
4195,9.0,,,,,,57.0,,,,,480,note_off,,80.0,57.0,80.0,718080,748.0
4196,9.0,,,,,,38.0,,,,,0,note_off,,80.0,38.0,80.0,718080,748.0
4197,9.0,,,,,,57.0,,,,,0,note_on,,95.0,57.0,95.0,718080,748.0
4198,9.0,,,,,,36.0,,,,,0,note_on,,95.0,36.0,95.0,718080,748.0
4199,9.0,,,,,,57.0,,,,,480,note_off,,80.0,57.0,80.0,718560,748.5
4200,9.0,,,,,,36.0,,,,,0,note_off,,80.0,36.0,80.0,718560,748.5
4201,9.0,,,,,,57.0,,,,,0,note_on,,95.0,57.0,95.0,718560,748.5
4202,9.0,,,,,,38.0,,,,,0,note_on,,95.0,38.0,95.0,718560,748.5
4203,9.0,,,,,,38.0,,,,,240,note_off,,80.0,38.0,80.0,718800,748.75
4204,9.0,,,,,,36.0,,,,,0,note_on,,95.0,36.0,95.0,718800,748.75
4205,9.0,,,,,,57.0,,,,,240,note_off,,80.0,57.0,80.0,719040,749.0
4206,9.0,,,,,,36.0,,,,,0,note_off,,80.0,36.0,80.0,719040,749.0
4207,9.0,,,,,,57.0,,,,,0,note_on,,95.0,57.0,95.0,719040,749.0
4208,9.0,,,,,,36.0,,,,,0,note_on,,95.0,36.0,95.0,719040,749.0
4209,9.0,,,,,,57.0,,,,,480,note_off,,80.0,57.0,80.0,719520,749.5
4210,9.0,,,,,,36.0,,,,,0,note_off,,80.0,36.0,80.0,719520,749.5
4211,9.0,,,,,,57.0,,,,,0,note_on,,95.0,57.0,95.0,719520,749.5
4212,9.0,,,,,,36.0,,,,,0,note_on,,95.0,36.0,95.0,719520,749.5
4213,9.0,,,,,,36.0,,,,,240,note_off,,80.0,36.0,80.0,719760,749.75
4214,9.0,,,,,,38.0,,,,,0,note_on,,95.0,38.0,95.0,719760,749.75
4215,9.0,,,,,,57.0,,,,,240,note_off,,80.0,57.0,80.0,720000,750.0
4216,9.0,,,,,,38.0,,,,,0,note_off,,80.0,38.0,80.0,720000,750.0
4217,9.0,,,,,,57.0,,,,,0,note_on,,95.0,57.0,95.0,720000,750.0
4218,9.0,,,,,,36.0,,,,,0,note_on,,95.0,36.0,95.0,720000,750.0
4219,9.0,,,,,,57.0,,,,,480,note_off,,80.0,57.0,80.0,720480,750.5
4220,9.0,,,,,,36.0,,,,,0,note_off,,80.0,36.0,80.0,720480,750.5
4221,9.0,,,,,,57.0,,,,,0,note_on,,95.0,57.0,95.0,720480,750.5
4222,9.0,,,,,,38.0,,,,,0,note_on,,95.0,38.0,95.0,720480,750.5
4223,9.0,,,,,,57.0,,,,,480,note_off,,80.0,57.0,80.0,720960,751.0
4224,9.0,,,,,,38.0,,,,,0,note_off,,80.0,38.0,80.0,720960,751.0
4225,9.0,,,,,,57.0,,,,,0,note_on,,95.0,57.0,95.0,720960,751.0
4226,9.0,,,,,,36.0,,,,,0,note_on,,95.0,36.0,95.0,720960,751.0
4227,9.0,,,,,,57.0,,,,,480,note_off,,80.0,57.0,80.0,721440,751.5
4228,9.0,,,,,,36.0,,,,,0,note_off,,80.0,36.0,80.0,721440,751.5
4229,9.0,,,,,,57.0,,,,,0,note_on,,95.0,57.0,95.0,721440,751.5
4230,9.0,,,,,,38.0,,,,,0,note_on,,95.0,38.0,95.0,721440,751.5
4231,9.0,,,,,,57.0,,,,,480,note_off,,80.0,57.0,80.0,721920,752.0
4232,9.0,,,,,,38.0,,,,,0,note_off,,80.0,38.0,80.0,721920,752.0
4233,9.0,,,,,,57.0,,,,,0,note_on,,95.0,57.0,95.0,721920,752.0
4234,9.0,,,,,,36.0,,,,,0,note_on,,95.0,36.0,95.0,721920,752.0
4235,9.0,,,,,,57.0,,,,,480,note_off,,80.0,57.0,80.0,722400,752.5
4236,9.0,,,,,,36.0,,,,,0,note_off,,80.0,36.0,80.0,722400,752.5
4237,9.0,,,,,,57.0,,,,,0,note_on,,95.0,57.0,95.0,722400,752.5
4238,9.0,,,,,,38.0,,,,,0,note_on,,95.0,38.0,95.0,722400,752.5
4239,9.0,,,,,,57.0,,,,,480,note_off,,80.0,57.0,80.0,722880,753.0
4240,9.0,,,,,,38.0,,,,,0,note_off,,80.0,38.0,80.0,722880,753.0
4241,9.0,,,,,,57.0,,,,,0,note_on,,95.0,57.0,95.0,722880,753.0
4242,9.0,,,,,,36.0,,,,,0,note_on,,95.0,36.0,95.0,722880,753.0
4243,9.0,,,,,,57.0,,,,,480,note_off,,80.0,57.0,80.0,723360,753.5
4244,9.0,,,,,,36.0,,,,,0,note_off,,80.0,36.0,80.0,723360,753.5
4245,9.0,,,,,,57.0,,,,,0,note_on,,95.0,57.0,95.0,723360,753.5
4246,9.0,,,,,,38.0,,,,,0,note_on,,95.0,38.0,95.0,723360,753.5
4247,9.0,,,,,,57.0,,,,,480,note_off,,80.0,57.0,80.0,723840,754.0
4248,9.0,,,,,,38.0,,,,,0,note_off,,80.0,38.0,80.0,723840,754.0
4249,9.0,,,,,,57.0,,,,,0,note_on,,95.0,57.0,95.0,723840,754.0
4250,9.0,,,,,,36.0,,,,,0,note_on,,95.0,36.0,95.0,723840,754.0
4251,9.0,,,,,,57.0,,,,,480,note_off,,80.0,57.0,80.0,724320,754.5
4252,9.0,,,,,,36.0,,,,,0,note_off,,80.0,36.0,80.0,724320,754.5
4253,9.0,,,,,,57.0,,,,,0,note_on,,95.0,57.0,95.0,724320,754.5
4254,9.0,,,,,,38.0,,,,,0,note_on,,95.0,38.0,95.0,724320,754.5
4255,9.0,,,,,,57.0,,,,,480,note_off,,80.0,57.0,80.0,724800,755.0
4256,9.0,,,,,,38.0,,,,,0,note_off,,80.0,38.0,80.0,724800,755.0
4257,9.0,,,,,,57.0,,,,,0,note_on,,95.0,57.0,95.0,724800,755.0
4258,9.0,,,,,,36.0,,,,,0,note_on,,95.0,36.0,95.0,724800,755.0
4259,9.0,,,,,,57.0,,,,,480,note_off,,80.0,57.0,80.0,725280,755.5
4260,9.0,,,,,,36.0,,,,,0,note_off,,80.0,36.0,80.0,725280,755.5
4261,9.0,,,,,,57.0,,,,,0,note_on,,95.0,57.0,95.0,725280,755.5
4262,9.0,,,,,,38.0,,,,,0,note_on,,95.0,38.0,95.0,725280,755.5
4263,9.0,,,,,,57.0,,,,,480,note_off,,80.0,57.0,80.0,725760,756.0
4264,9.0,,,,,,38.0,,,,,0,note_off,,80.0,38.0,80.0,725760,756.0
4265,9.0,,,,,,57.0,,,,,0,note_on,,95.0,57.0,95.0,725760,756.0
4266,9.0,,,,,,36.0,,,,,0,note_on,,95.0,36.0,95.0,725760,756.0
4267,9.0,,,,,,57.0,,,,,480,note_off,,80.0,57.0,80.0,726240,756.5
4268,9.0,,,,,,36.0,,,,,0,note_off,,80.0,36.0,80.0,726240,756.5
4269,9.0,,,,,,57.0,,,,,0,note_on,,95.0,57.0,95.0,726240,756.5
4270,9.0,,,,,,38.0,,,,,0,note_on,,95.0,38.0,95.0,726240,756.5
4271,9.0,,,,,,38.0,,,,,240,note_off,,80.0,38.0,80.0,726480,756.75
4272,9.0,,,,,,36.0,,,,,0,note_on,,95.0,36.0,95.0,726480,756.75
4273,9.0,,,,,,57.0,,,,,240,note_off,,80.0,57.0,80.0,726720,757.0
4274,9.0,,,,,,36.0,,,,,0,note_off,,80.0,36.0,80.0,726720,757.0
4275,9.0,,,,,,57.0,,,,,0,note_on,,95.0,57.0,95.0,726720,757.0
4276,9.0,,,,,,36.0,,,,,0,note_on,,95.0,36.0,95.0,726720,757.0
4277,9.0,,,,,,57.0,,,,,480,note_off,,80.0,57.0,80.0,727200,757.5
4278,9.0,,,,,,36.0,,,,,0,note_off,,80.0,36.0,80.0,727200,757.5
4279,9.0,,,,,,57.0,,,,,0,note_on,,95.0,57.0,95.0,727200,757.5
4280,9.0,,,,,,36.0,,,,,0,note_on,,95.0,36.0,95.0,727200,757.5
4281,9.0,,,,,,36.0,,,,,240,note_off,,80.0,36.0,80.0,727440,757.75
4282,9.0,,,,,,38.0,,,,,0,note_on,,95.0,38.0,95.0,727440,757.75
4283,9.0,,,,,,57.0,,,,,240,note_off,,80.0,57.0,80.0,727680,758.0
4284,9.0,,,,,,38.0,,,,,0,note_off,,80.0,38.0,80.0,727680,758.0
4285,9.0,,,,,,57.0,,,,,0,note_on,,95.0,57.0,95.0,727680,758.0
4286,9.0,,,,,,36.0,,,,,0,note_on,,95.0,36.0,95.0,727680,758.0
4287,9.0,,,,,,57.0,,,,,480,note_off,,80.0,57.0,80.0,728160,758.5
4288,9.0,,,,,,36.0,,,,,0,note_off,,80.0,36.0,80.0,728160,758.5
4289,9.0,,,,,,57.0,,,,,0,note_on,,95.0,57.0,95.0,728160,758.5
4290,9.0,,,,,,38.0,,,,,0,note_on,,95.0,38.0,95.0,728160,758.5
4291,9.0,,,,,,57.0,,,,,480,note_off,,80.0,57.0,80.0,728640,759.0
4292,9.0,,,,,,38.0,,,,,0,note_off,,80.0,38.0,80.0,728640,759.0
4293,9.0,,,,,,57.0,,,,,0,note_on,,95.0,57.0,95.0,728640,759.0
4294,9.0,,,,,,36.0,,,,,0,note_on,,95.0,36.0,95.0,728640,759.0
4295,9.0,,,,,,57.0,,,,,480,note_off,,80.0,57.0,80.0,729120,759.5
4296,9.0,,,,,,36.0,,,,,0,note_off,,80.0,36.0,80.0,729120,759.5
4297,9.0,,,,,,57.0,,,,,0,note_on,,95.0,57.0,95.0,729120,759.5
4298,9.0,,,,,,38.0,,,,,0,note_on,,95.0,38.0,95.0,729120,759.5
4299,9.0,,,,,,57.0,,,,,480,note_off,,80.0,57.0,80.0,729600,760.0
4300,9.0,,,,,,38.0,,,,,0,note_off,,80.0,38.0,80.0,729600,760.0
4301,9.0,,,,,,57.0,,,,,0,note_on,,95.0,57.0,95.0,729600,760.0
4302,9.0,,,,,,36.0,,,,,0,note_on,,95.0,36.0,95.0,729600,760.0
4303,9.0,,,,,,57.0,,,,,480,note_off,,80.0,57.0,80.0,730080,760.5
4304,9.0,,,,,,36.0,,,,,0,note_off,,80.0,36.0,80.0,730080,760.5
4305,9.0,,,,,,57.0,,,,,0,note_on,,95.0,57.0,95.0,730080,760.5
4306,9.0,,,,,,38.0,,,,,0,note_on,,95.0,38.0,95.0,730080,760.5
4307,9.0,,,,,,57.0,,,,,480,note_off,,80.0,57.0,80.0,730560,761.0
4308,9.0,,,,,,38.0,,,,,0,note_off,,80.0,38.0,80.0,730560,761.0
4309,9.0,,,,,,57.0,,,,,0,note_on,,95.0,57.0,95.0,730560,761.0
4310,9.0,,,,,,36.0,,,,,0,note_on,,95.0,36.0,95.0,730560,761.0
4311,9.0,,,,,,57.0,,,,,480,note_off,,80.0,57.0,80.0,731040,761.5
4312,9.0,,,,,,36.0,,,,,0,note_off,,80.0,36.0,80.0,731040,761.5
4313,9.0,,,,,,57.0,,,,,0,note_on,,95.0,57.0,95.0,731040,761.5
4314,9.0,,,,,,38.0,,,,,0,note_on,,95.0,38.0,95.0,731040,761.5
4315,9.0,,,,,,57.0,,,,,480,note_off,,80.0,57.0,80.0,731520,762.0
4316,9.0,,,,,,38.0,,,,,0,note_off,,80.0,38.0,80.0,731520,762.0
4317,9.0,,,,,,57.0,,,,,0,note_on,,95.0,57.0,95.0,731520,762.0
4318,9.0,,,,,,36.0,,,,,0,note_on,,95.0,36.0,95.0,731520,762.0
4319,9.0,,,,,,57.0,,,,,480,note_off,,80.0,57.0,80.0,732000,762.5
4320,9.0,,,,,,36.0,,,,,0,note_off,,80.0,36.0,80.0,732000,762.5
4321,9.0,,,,,,57.0,,,,,0,note_on,,95.0,57.0,95.0,732000,762.5
4322,9.0,,,,,,38.0,,,,,0,note_on,,95.0,38.0,95.0,732000,762.5
4323,9.0,,,,,,57.0,,,,,480,note_off,,80.0,57.0,80.0,732480,763.0
4324,9.0,,,,,,38.0,,,,,0,note_off,,80.0,38.0,80.0,732480,763.0
4325,9.0,,,,,,57.0,,,,,0,note_on,,95.0,57.0,95.0,732480,763.0
4326,9.0,,,,,,36.0,,,,,0,note_on,,95.0,36.0,95.0,732480,763.0
4327,9.0,,,,,,57.0,,,,,480,note_off,,80.0,57.0,80.0,732960,763.5
4328,9.0,,,,,,36.0,,,,,0,note_off,,80.0,36.0,80.0,732960,763.5
4329,9.0,,,,,,57.0,,,,,0,note_on,,95.0,57.0,95.0,732960,763.5
4330,9.0,,,,,,38.0,,,,,0,note_on,,95.0,38.0,95.0,732960,763.5
4331,9.0,,,,,,57.0,,,,,480,note_off,,80.0,57.0,80.0,733440,764.0
4332,9.0,,,,,,38.0,,,,,0,note_off,,80.0,38.0,80.0,733440,764.0
4333,9.0,,,,,,57.0,,,,,0,note_on,,95.0,57.0,95.0,733440,764.0
4334,9.0,,,,,,36.0,,,,,0,note_on,,95.0,36.0,95.0,733440,764.0
4335,9.0,,,,,,57.0,,,,,480,note_off,,80.0,57.0,80.0,733920,764.5
4336,9.0,,,,,,36.0,,,,,0,note_off,,80.0,36.0,80.0,733920,764.5
4337,9.0,,,,,,57.0,,,,,0,note_on,,95.0,57.0,95.0,733920,764.5
4338,9.0,,,,,,38.0,,,,,0,note_on,,95.0,38.0,95.0,733920,764.5
4339,9.0,,,,,,38.0,,,,,240,note_off,,80.0,38.0,80.0,734160,764.75
4340,9.0,,,,,,36.0,,,,,0,note_on,,95.0,36.0,95.0,734160,764.75
4341,9.0,,,,,,57.0,,,,,240,note_off,,80.0,57.0,80.0,734400,765.0
4342,9.0,,,,,,36.0,,,,,0,note_off,,80.0,36.0,80.0,734400,765.0
4343,9.0,,,,,,57.0,,,,,0,note_on,,95.0,57.0,95.0,734400,765.0
4344,9.0,,,,,,36.0,,,,,0,note_on,,95.0,36.0,95.0,734400,765.0
4345,9.0,,,,,,57.0,,,,,480,note_off,,80.0,57.0,80.0,734880,765.5
4346,9.0,,,,,,36.0,,,,,0,note_off,,80.0,36.0,80.0,734880,765.5
4347,9.0,,,,,,57.0,,,,,0,note_on,,95.0,57.0,95.0,734880,765.5
4348,9.0,,,,,,36.0,,,,,0,note_on,,95.0,36.0,95.0,734880,765.5
4349,9.0,,,,,,36.0,,,,,240,note_off,,80.0,36.0,80.0,735120,765.75
4350,9.0,,,,,,38.0,,,,,0,note_on,,95.0,38.0,95.0,735120,765.75
4351,9.0,,,,,,57.0,,,,,240,note_off,,80.0,57.0,80.0,735360,766.0
4352,9.0,,,,,,38.0,,,,,0,note_off,,80.0,38.0,80.0,735360,766.0
4353,9.0,,,,,,57.0,,,,,0,note_on,,95.0,57.0,95.0,735360,766.0
4354,9.0,,,,,,36.0,,,,,0,note_on,,95.0,36.0,95.0,735360,766.0
4355,9.0,,,,,,57.0,,,,,480,note_off,,80.0,57.0,80.0,735840,766.5
4356,9.0,,,,,,36.0,,,,,0,note_off,,80.0,36.0,80.0,735840,766.5
4357,9.0,,,,,,57.0,,,,,0,note_on,,95.0,57.0,95.0,735840,766.5
4358,9.0,,,,,,38.0,,,,,0,note_on,,95.0,38.0,95.0,735840,766.5
4359,9.0,,,,,,57.0,,,,,480,note_off,,80.0,57.0,80.0,736320,767.0
4360,9.0,,,,,,38.0,,,,,0,note_off,,80.0,38.0,80.0,736320,767.0
4361,9.0,,,,,,57.0,,,,,0,note_on,,95.0,57.0,95.0,736320,767.0
4362,9.0,,,,,,36.0,,,,,0,note_on,,95.0,36.0,95.0,736320,767.0
4363,9.0,,,,,,57.0,,,,,480,note_off,,80.0,57.0,80.0,736800,767.5
4364,9.0,,,,,,36.0,,,,,0,note_off,,80.0,36.0,80.0,736800,767.5
4365,9.0,,,,,,57.0,,,,,0,note_on,,95.0,57.0,95.0,736800,767.5
4366,9.0,,,,,,38.0,,,,,0,note_on,,95.0,38.0,95.0,736800,767.5
4367,9.0,,,,,,57.0,,,,,480,note_off,,80.0,57.0,80.0,737280,768.0
4368,9.0,,,,,,38.0,,,,,0,note_off,,80.0,38.0,80.0,737280,768.0
4369,9.0,,,,,,57.0,,,,,0,note_on,,95.0,57.0,95.0,737280,768.0
4370,9.0,,,,,,36.0,,,,,0,note_on,,95.0,36.0,95.0,737280,768.0
4371,9.0,,,,,,57.0,,,,,480,note_off,,80.0,57.0,80.0,737760,768.5
4372,9.0,,,,,,36.0,,,,,0,note_off,,80.0,36.0,80.0,737760,768.5
4373,9.0,,,,,,57.0,,,,,0,note_on,,95.0,57.0,95.0,737760,768.5
4374,9.0,,,,,,38.0,,,,,0,note_on,,95.0,38.0,95.0,737760,768.5
4375,9.0,,,,,,57.0,,,,,480,note_off,,80.0,57.0,80.0,738240,769.0
4376,9.0,,,,,,38.0,,,,,0,note_off,,80.0,38.0,80.0,738240,769.0
4377,9.0,,,,,,57.0,,,,,0,note_on,,95.0,57.0,95.0,738240,769.0
4378,9.0,,,,,,36.0,,,,,0,note_on,,95.0,36.0,95.0,738240,769.0
4379,9.0,,,,,,57.0,,,,,480,note_off,,80.0,57.0,80.0,738720,769.5
4380,9.0,,,,,,36.0,,,,,0,note_off,,80.0,36.0,80.0,738720,769.5
4381,9.0,,,,,,57.0,,,,,0,note_on,,95.0,57.0,95.0,738720,769.5
4382,9.0,,,,,,38.0,,,,,0,note_on,,95.0,38.0,95.0,738720,769.5
4383,9.0,,,,,,57.0,,,,,480,note_off,,80.0,57.0,80.0,739200,770.0
4384,9.0,,,,,,38.0,,,,,0,note_off,,80.0,38.0,80.0,739200,770.0
4385,9.0,,,,,,57.0,,,,,0,note_on,,95.0,57.0,95.0,739200,770.0
4386,9.0,,,,,,36.0,,,,,0,note_on,,95.0,36.0,95.0,739200,770.0
4387,9.0,,,,,,57.0,,,,,480,note_off,,80.0,57.0,80.0,739680,770.5
4388,9.0,,,,,,36.0,,,,,0,note_off,,80.0,36.0,80.0,739680,770.5
4389,9.0,,,,,,57.0,,,,,0,note_on,,95.0,57.0,95.0,739680,770.5
4390,9.0,,,,,,38.0,,,,,0,note_on,,95.0,38.0,95.0,739680,770.5
4391,9.0,,,,,,57.0,,,,,480,note_off,,80.0,57.0,80.0,740160,771.0
4392,9.0,,,,,,38.0,,,,,0,note_off,,80.0,38.0,80.0,740160,771.0
4393,9.0,,,,,,57.0,,,,,0,note_on,,95.0,57.0,95.0,740160,771.0
4394,9.0,,,,,,36.0,,,,,0,note_on,,95.0,36.0,95.0,740160,771.0
4395,9.0,,,,,,57.0,,,,,480,note_off,,80.0,57.0,80.0,740640,771.5
4396,9.0,,,,,,36.0,,,,,0,note_off,,80.0,36.0,80.0,740640,771.5
4397,9.0,,,,,,57.0,,,,,0,note_on,,95.0,57.0,95.0,740640,771.5
4398,9.0,,,,,,38.0,,,,,0,note_on,,95.0,38.0,95.0,740640,771.5
4399,9.0,,,,,,57.0,,,,,480,note_off,,80.0,57.0,80.0,741120,772.0
4400,9.0,,,,,,38.0,,,,,0,note_off,,80.0,38.0,80.0,741120,772.0
4401,9.0,,,,,,57.0,,,,,0,note_on,,95.0,57.0,95.0,741120,772.0
4402,9.0,,,,,,36.0,,,,,0,note_on,,95.0,36.0,95.0,741120,772.0
4403,9.0,,,,,,57.0,,,,,480,note_off,,80.0,57.0,80.0,741600,772.5
4404,9.0,,,,,,36.0,,,,,0,note_off,,80.0,36.0,80.0,741600,772.5
4405,9.0,,,,,,57.0,,,,,0,note_on,,95.0,57.0,95.0,741600,772.5
4406,9.0,,,,,,38.0,,,,,0,note_on,,95.0,38.0,95.0,741600,772.5
4407,9.0,,,,,,38.0,,,,,240,note_off,,80.0,38.0,80.0,741840,772.75
4408,9.0,,,,,,36.0,,,,,0,note_on,,95.0,36.0,95.0,741840,772.75
4409,9.0,,,,,,57.0,,,,,240,note_off,,80.0,57.0,80.0,742080,773.0
4410,9.0,,,,,,36.0,,,,,0,note_off,,80.0,36.0,80.0,742080,773.0
4411,9.0,,,,,,57.0,,,,,0,note_on,,95.0,57.0,95.0,742080,773.0
4412,9.0,,,,,,36.0,,,,,0,note_on,,95.0,36.0,95.0,742080,773.0
4413,9.0,,,,,,57.0,,,,,480,note_off,,80.0,57.0,80.0,742560,773.5
4414,9.0,,,,,,36.0,,,,,0,note_off,,80.0,36.0,80.0,742560,773.5
4415,9.0,,,,,,57.0,,,,,0,note_on,,95.0,57.0,95.0,742560,773.5
4416,9.0,,,,,,36.0,,,,,0,note_on,,95.0,36.0,95.0,742560,773.5
4417,9.0,,,,,,36.0,,,,,240,note_off,,80.0,36.0,80.0,742800,773.75
4418,9.0,,,,,,38.0,,,,,0,note_on,,95.0,38.0,95.0,742800,773.75
4419,9.0,,,,,,57.0,,,,,240,note_off,,80.0,57.0,80.0,743040,774.0
4420,9.0,,,,,,38.0,,,,,0,note_off,,80.0,38.0,80.0,743040,774.0
4421,9.0,,,,,,57.0,,,,,0,note_on,,95.0,57.0,95.0,743040,774.0
4422,9.0,,,,,,36.0,,,,,0,note_on,,95.0,36.0,95.0,743040,774.0
4423,9.0,,,,,,57.0,,,,,480,note_off,,80.0,57.0,80.0,743520,774.5
4424,9.0,,,,,,36.0,,,,,0,note_off,,80.0,36.0,80.0,743520,774.5
4425,9.0,,,,,,57.0,,,,,0,note_on,,95.0,57.0,95.0,743520,774.5
4426,9.0,,,,,,38.0,,,,,0,note_on,,95.0,38.0,95.0,743520,774.5
4427,9.0,,,,,,57.0,,,,,480,note_off,,80.0,57.0,80.0,744000,775.0
4428,9.0,,,,,,38.0,,,,,0,note_off,,80.0,38.0,80.0,744000,775.0
4429,9.0,,,,,,57.0,,,,,0,note_on,,95.0,57.0,95.0,744000,775.0
4430,9.0,,,,,,36.0,,,,,0,note_on,,95.0,36.0,95.0,744000,775.0
4431,9.0,,,,,,57.0,,,,,480,note_off,,80.0,57.0,80.0,744480,775.5
4432,9.0,,,,,,36.0,,,,,0,note_off,,80.0,36.0,80.0,744480,775.5
4433,9.0,,,,,,57.0,,,,,0,note_on,,95.0,57.0,95.0,744480,775.5
4434,9.0,,,,,,38.0,,,,,0,note_on,,95.0,38.0,95.0,744480,775.5
4435,9.0,,,,,,57.0,,,,,480,note_off,,80.0,57.0,80.0,744960,776.0
4436,9.0,,,,,,38.0,,,,,0,note_off,,80.0,38.0,80.0,744960,776.0
4437,9.0,,,,,,57.0,,,,,0,note_on,,95.0,57.0,95.0,744960,776.0
4438,9.0,,,,,,36.0,,,,,0,note_on,,95.0,36.0,95.0,744960,776.0
4439,9.0,,,,,,57.0,,,,,480,note_off,,80.0,57.0,80.0,745440,776.5
4440,9.0,,,,,,36.0,,,,,0,note_off,,80.0,36.0,80.0,745440,776.5
4441,9.0,,,,,,42.0,,,,,0,note_on,,95.0,42.0,95.0,745440,776.5
4442,9.0,,,,,,42.0,,,,,480,note_off,,80.0,42.0,80.0,745920,777.0
4443,9.0,,,,,,42.0,,,,,0,note_on,,95.0,42.0,95.0,745920,777.0
4444,9.0,,,,,,42.0,,,,,480,note_off,,80.0,42.0,80.0,746400,777.5
4445,9.0,,,,,,42.0,,,,,0,note_on,,95.0,42.0,95.0,746400,777.5
4446,9.0,,,,,,42.0,,,,,480,note_off,,80.0,42.0,80.0,746880,778.0
4447,9.0,,,,,,57.0,,,,,0,note_on,,95.0,57.0,95.0,746880,778.0
4448,9.0,,,,,,36.0,,,,,0,note_on,,95.0,36.0,95.0,746880,778.0
4449,9.0,,,,,,57.0,,,,,480,note_off,,80.0,57.0,80.0,747360,778.5
4450,9.0,,,,,,36.0,,,,,0,note_off,,80.0,36.0,80.0,747360,778.5
4451,9.0,,,,,,42.0,,,,,0,note_on,,95.0,42.0,95.0,747360,778.5
4452,9.0,,,,,,42.0,,,,,480,note_off,,80.0,42.0,80.0,747840,779.0
4453,9.0,,,,,,42.0,,,,,0,note_on,,95.0,42.0,95.0,747840,779.0
4454,9.0,,,,,,42.0,,,,,480,note_off,,80.0,42.0,80.0,748320,779.5
4455,9.0,,,,,,42.0,,,,,0,note_on,,95.0,42.0,95.0,748320,779.5
4456,9.0,,,,,,42.0,,,,,480,note_off,,80.0,42.0,80.0,748800,780.0
4457,9.0,,,,,,44.0,,,,,3840,note_on,,95.0,44.0,95.0,752640,784.0
4458,9.0,,,,,,41.0,,,,,0,note_on,,95.0,41.0,95.0,752640,784.0
4459,9.0,,,,,,36.0,,,,,0,note_on,,95.0,36.0,95.0,752640,784.0
4460,9.0,,,,,,44.0,,,,,480,note_off,,80.0,44.0,80.0,753120,784.5
4461,9.0,,,,,,41.0,,,,,0,note_off,,80.0,41.0,80.0,753120,784.5
4462,9.0,,,,,,36.0,,,,,0,note_off,,80.0,36.0,80.0,753120,784.5
4463,9.0,,,,,,44.0,,,,,0,note_on,,95.0,44.0,95.0,753120,784.5
4464,9.0,,,,,,41.0,,,,,0,note_on,,95.0,41.0,95.0,753120,784.5
4465,9.0,,,,,,36.0,,,,,0,note_on,,95.0,36.0,95.0,753120,784.5
4466,9.0,,,,,,44.0,,,,,480,note_off,,80.0,44.0,80.0,753600,785.0
4467,9.0,,,,,,41.0,,,,,0,note_off,,80.0,41.0,80.0,753600,785.0
4468,9.0,,,,,,36.0,,,,,0,note_off,,80.0,36.0,80.0,753600,785.0
4469,9.0,,,,,,44.0,,,,,0,note_on,,95.0,44.0,95.0,753600,785.0
4470,9.0,,,,,,41.0,,,,,0,note_on,,95.0,41.0,95.0,753600,785.0
4471,9.0,,,,,,36.0,,,,,0,note_on,,95.0,36.0,95.0,753600,785.0
4472,9.0,,,,,,44.0,,,,,480,note_off,,80.0,44.0,80.0,754080,785.5
4473,9.0,,,,,,41.0,,,,,0,note_off,,80.0,41.0,80.0,754080,785.5
4474,9.0,,,,,,36.0,,,,,0,note_off,,80.0,36.0,80.0,754080,785.5
4475,9.0,,,,,,44.0,,,,,0,note_on,,95.0,44.0,95.0,754080,785.5
4476,9.0,,,,,,41.0,,,,,0,note_on,,95.0,41.0,95.0,754080,785.5
4477,9.0,,,,,,36.0,,,,,0,note_on,,95.0,36.0,95.0,754080,785.5
4478,9.0,,,,,,44.0,,,,,480,note_off,,80.0,44.0,80.0,754560,786.0
4479,9.0,,,,,,41.0,,,,,0,note_off,,80.0,41.0,80.0,754560,786.0
4480,9.0,,,,,,36.0,,,,,0,note_off,,80.0,36.0,80.0,754560,786.0
4481,9.0,,,,,,44.0,,,,,0,note_on,,95.0,44.0,95.0,754560,786.0
4482,9.0,,,,,,41.0,,,,,0,note_on,,95.0,41.0,95.0,754560,786.0
4483,9.0,,,,,,36.0,,,,,0,note_on,,95.0,36.0,95.0,754560,786.0
4484,9.0,,,,,,44.0,,,,,480,note_off,,80.0,44.0,80.0,755040,786.5
4485,9.0,,,,,,41.0,,,,,0,note_off,,80.0,41.0,80.0,755040,786.5
4486,9.0,,,,,,36.0,,,,,0,note_off,,80.0,36.0,80.0,755040,786.5
4487,9.0,,,,,,44.0,,,,,0,note_on,,95.0,44.0,95.0,755040,786.5
4488,9.0,,,,,,41.0,,,,,0,note_on,,95.0,41.0,95.0,755040,786.5
4489,9.0,,,,,,36.0,,,,,0,note_on,,95.0,36.0,95.0,755040,786.5
4490,9.0,,,,,,44.0,,,,,480,note_off,,80.0,44.0,80.0,755520,787.0
4491,9.0,,,,,,41.0,,,,,0,note_off,,80.0,41.0,80.0,755520,787.0
4492,9.0,,,,,,36.0,,,,,0,note_off,,80.0,36.0,80.0,755520,787.0
4493,9.0,,,,,,44.0,,,,,0,note_on,,95.0,44.0,95.0,755520,787.0
4494,9.0,,,,,,41.0,,,,,0,note_on,,95.0,41.0,95.0,755520,787.0
4495,9.0,,,,,,36.0,,,,,0,note_on,,95.0,36.0,95.0,755520,787.0
4496,9.0,,,,,,44.0,,,,,480,note_off,,80.0,44.0,80.0,756000,787.5
4497,9.0,,,,,,41.0,,,,,0,note_off,,80.0,41.0,80.0,756000,787.5
4498,9.0,,,,,,36.0,,,,,0,note_off,,80.0,36.0,80.0,756000,787.5
4499,9.0,,,,,,44.0,,,,,0,note_on,,95.0,44.0,95.0,756000,787.5
4500,9.0,,,,,,41.0,,,,,0,note_on,,95.0,41.0,95.0,756000,787.5
4501,9.0,,,,,,36.0,,,,,0,note_on,,95.0,36.0,95.0,756000,787.5
4502,9.0,,,,,,44.0,,,,,480,note_off,,80.0,44.0,80.0,756480,788.0
4503,9.0,,,,,,41.0,,,,,0,note_off,,80.0,41.0,80.0,756480,788.0
4504,9.0,,,,,,36.0,,,,,0,note_off,,80.0,36.0,80.0,756480,788.0
4505,9.0,,,,,,44.0,,,,,0,note_on,,95.0,44.0,95.0,756480,788.0
4506,9.0,,,,,,41.0,,,,,0,note_on,,95.0,41.0,95.0,756480,788.0
4507,9.0,,,,,,36.0,,,,,0,note_on,,95.0,36.0,95.0,756480,788.0
4508,9.0,,,,,,44.0,,,,,480,note_off,,80.0,44.0,80.0,756960,788.5
4509,9.0,,,,,,41.0,,,,,0,note_off,,80.0,41.0,80.0,756960,788.5
4510,9.0,,,,,,36.0,,,,,0,note_off,,80.0,36.0,80.0,756960,788.5
4511,9.0,,,,,,44.0,,,,,0,note_on,,95.0,44.0,95.0,756960,788.5
4512,9.0,,,,,,41.0,,,,,0,note_on,,95.0,41.0,95.0,756960,788.5
4513,9.0,,,,,,36.0,,,,,0,note_on,,95.0,36.0,95.0,756960,788.5
4514,9.0,,,,,,44.0,,,,,480,note_off,,80.0,44.0,80.0,757440,789.0
4515,9.0,,,,,,41.0,,,,,0,note_off,,80.0,41.0,80.0,757440,789.0
4516,9.0,,,,,,36.0,,,,,0,note_off,,80.0,36.0,80.0,757440,789.0
4517,9.0,,,,,,44.0,,,,,0,note_on,,95.0,44.0,95.0,757440,789.0
4518,9.0,,,,,,41.0,,,,,0,note_on,,95.0,41.0,95.0,757440,789.0
4519,9.0,,,,,,36.0,,,,,0,note_on,,95.0,36.0,95.0,757440,789.0
4520,9.0,,,,,,44.0,,,,,480,note_off,,80.0,44.0,80.0,757920,789.5
4521,9.0,,,,,,41.0,,,,,0,note_off,,80.0,41.0,80.0,757920,789.5
4522,9.0,,,,,,36.0,,,,,0,note_off,,80.0,36.0,80.0,757920,789.5
4523,9.0,,,,,,44.0,,,,,0,note_on,,95.0,44.0,95.0,757920,789.5
4524,9.0,,,,,,41.0,,,,,0,note_on,,95.0,41.0,95.0,757920,789.5
4525,9.0,,,,,,36.0,,,,,0,note_on,,95.0,36.0,95.0,757920,789.5
4526,9.0,,,,,,44.0,,,,,480,note_off,,80.0,44.0,80.0,758400,790.0
4527,9.0,,,,,,41.0,,,,,0,note_off,,80.0,41.0,80.0,758400,790.0
4528,9.0,,,,,,36.0,,,,,0,note_off,,80.0,36.0,80.0,758400,790.0
4529,9.0,,,,,,44.0,,,,,0,note_on,,95.0,44.0,95.0,758400,790.0
4530,9.0,,,,,,41.0,,,,,0,note_on,,95.0,41.0,95.0,758400,790.0
4531,9.0,,,,,,36.0,,,,,0,note_on,,95.0,36.0,95.0,758400,790.0
4532,9.0,,,,,,44.0,,,,,480,note_off,,80.0,44.0,80.0,758880,790.5
4533,9.0,,,,,,41.0,,,,,0,note_off,,80.0,41.0,80.0,758880,790.5
4534,9.0,,,,,,36.0,,,,,0,note_off,,80.0,36.0,80.0,758880,790.5
4535,9.0,,,,,,44.0,,,,,0,note_on,,95.0,44.0,95.0,758880,790.5
4536,9.0,,,,,,41.0,,,,,0,note_on,,95.0,41.0,95.0,758880,790.5
4537,9.0,,,,,,36.0,,,,,0,note_on,,95.0,36.0,95.0,758880,790.5
4538,9.0,,,,,,44.0,,,,,480,note_off,,80.0,44.0,80.0,759360,791.0
4539,9.0,,,,,,41.0,,,,,0,note_off,,80.0,41.0,80.0,759360,791.0
4540,9.0,,,,,,36.0,,,,,0,note_off,,80.0,36.0,80.0,759360,791.0
4541,9.0,,,,,,44.0,,,,,0,note_on,,95.0,44.0,95.0,759360,791.0
4542,9.0,,,,,,41.0,,,,,0,note_on,,95.0,41.0,95.0,759360,791.0
4543,9.0,,,,,,36.0,,,,,0,note_on,,95.0,36.0,95.0,759360,791.0
4544,9.0,,,,,,44.0,,,,,480,note_off,,80.0,44.0,80.0,759840,791.5
4545,9.0,,,,,,41.0,,,,,0,note_off,,80.0,41.0,80.0,759840,791.5
4546,9.0,,,,,,36.0,,,,,0,note_off,,80.0,36.0,80.0,759840,791.5
4547,9.0,,,,,,44.0,,,,,0,note_on,,95.0,44.0,95.0,759840,791.5
4548,9.0,,,,,,41.0,,,,,0,note_on,,95.0,41.0,95.0,759840,791.5
4549,9.0,,,,,,36.0,,,,,0,note_on,,95.0,36.0,95.0,759840,791.5
4550,9.0,,,,,,44.0,,,,,480,note_off,,80.0,44.0,80.0,760320,792.0
4551,9.0,,,,,,41.0,,,,,0,note_off,,80.0,41.0,80.0,760320,792.0
4552,9.0,,,,,,36.0,,,,,0,note_off,,80.0,36.0,80.0,760320,792.0
4553,9.0,,,,,,44.0,,,,,0,note_on,,95.0,44.0,95.0,760320,792.0
4554,9.0,,,,,,41.0,,,,,0,note_on,,95.0,41.0,95.0,760320,792.0
4555,9.0,,,,,,36.0,,,,,0,note_on,,95.0,36.0,95.0,760320,792.0
4556,9.0,,,,,,44.0,,,,,480,note_off,,80.0,44.0,80.0,760800,792.5
4557,9.0,,,,,,41.0,,,,,0,note_off,,80.0,41.0,80.0,760800,792.5
4558,9.0,,,,,,36.0,,,,,0,note_off,,80.0,36.0,80.0,760800,792.5
4559,9.0,,,,,,44.0,,,,,0,note_on,,95.0,44.0,95.0,760800,792.5
4560,9.0,,,,,,41.0,,,,,0,note_on,,95.0,41.0,95.0,760800,792.5
4561,9.0,,,,,,36.0,,,,,0,note_on,,95.0,36.0,95.0,760800,792.5
4562,9.0,,,,,,44.0,,,,,480,note_off,,80.0,44.0,80.0,761280,793.0
4563,9.0,,,,,,41.0,,,,,0,note_off,,80.0,41.0,80.0,761280,793.0
4564,9.0,,,,,,36.0,,,,,0,note_off,,80.0,36.0,80.0,761280,793.0
4565,9.0,,,,,,44.0,,,,,0,note_on,,95.0,44.0,95.0,761280,793.0
4566,9.0,,,,,,41.0,,,,,0,note_on,,95.0,41.0,95.0,761280,793.0
4567,9.0,,,,,,36.0,,,,,0,note_on,,95.0,36.0,95.0,761280,793.0
4568,9.0,,,,,,44.0,,,,,480,note_off,,80.0,44.0,80.0,761760,793.5
4569,9.0,,,,,,41.0,,,,,0,note_off,,80.0,41.0,80.0,761760,793.5
4570,9.0,,,,,,36.0,,,,,0,note_off,,80.0,36.0,80.0,761760,793.5
4571,9.0,,,,,,44.0,,,,,0,note_on,,95.0,44.0,95.0,761760,793.5
4572,9.0,,,,,,41.0,,,,,0,note_on,,95.0,41.0,95.0,761760,793.5
4573,9.0,,,,,,36.0,,,,,0,note_on,,95.0,36.0,95.0,761760,793.5
4574,9.0,,,,,,44.0,,,,,480,note_off,,80.0,44.0,80.0,762240,794.0
4575,9.0,,,,,,41.0,,,,,0,note_off,,80.0,41.0,80.0,762240,794.0
4576,9.0,,,,,,36.0,,,,,0,note_off,,80.0,36.0,80.0,762240,794.0
4577,9.0,,,,,,44.0,,,,,0,note_on,,95.0,44.0,95.0,762240,794.0
4578,9.0,,,,,,41.0,,,,,0,note_on,,95.0,41.0,95.0,762240,794.0
4579,9.0,,,,,,36.0,,,,,0,note_on,,95.0,36.0,95.0,762240,794.0
4580,9.0,,,,,,44.0,,,,,480,note_off,,80.0,44.0,80.0,762720,794.5
4581,9.0,,,,,,41.0,,,,,0,note_off,,80.0,41.0,80.0,762720,794.5
4582,9.0,,,,,,36.0,,,,,0,note_off,,80.0,36.0,80.0,762720,794.5
4583,9.0,,,,,,44.0,,,,,0,note_on,,95.0,44.0,95.0,762720,794.5
4584,9.0,,,,,,41.0,,,,,0,note_on,,95.0,41.0,95.0,762720,794.5
4585,9.0,,,,,,36.0,,,,,0,note_on,,95.0,36.0,95.0,762720,794.5
4586,9.0,,,,,,44.0,,,,,480,note_off,,80.0,44.0,80.0,763200,795.0
4587,9.0,,,,,,41.0,,,,,0,note_off,,80.0,41.0,80.0,763200,795.0
4588,9.0,,,,,,36.0,,,,,0,note_off,,80.0,36.0,80.0,763200,795.0
4589,9.0,,,,,,44.0,,,,,0,note_on,,95.0,44.0,95.0,763200,795.0
4590,9.0,,,,,,41.0,,,,,0,note_on,,95.0,41.0,95.0,763200,795.0
4591,9.0,,,,,,36.0,,,,,0,note_on,,95.0,36.0,95.0,763200,795.0
4592,9.0,,,,,,44.0,,,,,480,note_off,,80.0,44.0,80.0,763680,795.5
4593,9.0,,,,,,41.0,,,,,0,note_off,,80.0,41.0,80.0,763680,795.5
4594,9.0,,,,,,36.0,,,,,0,note_off,,80.0,36.0,80.0,763680,795.5
4595,9.0,,,,,,44.0,,,,,0,note_on,,95.0,44.0,95.0,763680,795.5
4596,9.0,,,,,,41.0,,,,,0,note_on,,95.0,41.0,95.0,763680,795.5
4597,9.0,,,,,,36.0,,,,,0,note_on,,95.0,36.0,95.0,763680,795.5
4598,9.0,,,,,,44.0,,,,,480,note_off,,80.0,44.0,80.0,764160,796.0
4599,9.0,,,,,,41.0,,,,,0,note_off,,80.0,41.0,80.0,764160,796.0
4600,9.0,,,,,,36.0,,,,,0,note_off,,80.0,36.0,80.0,764160,796.0
4601,9.0,,,,,,44.0,,,,,0,note_on,,95.0,44.0,95.0,764160,796.0
4602,9.0,,,,,,41.0,,,,,0,note_on,,95.0,41.0,95.0,764160,796.0
4603,9.0,,,,,,36.0,,,,,0,note_on,,95.0,36.0,95.0,764160,796.0
4604,9.0,,,,,,44.0,,,,,480,note_off,,80.0,44.0,80.0,764640,796.5
4605,9.0,,,,,,41.0,,,,,0,note_off,,80.0,41.0,80.0,764640,796.5
4606,9.0,,,,,,36.0,,,,,0,note_off,,80.0,36.0,80.0,764640,796.5
4607,9.0,,,,,,44.0,,,,,0,note_on,,95.0,44.0,95.0,764640,796.5
4608,9.0,,,,,,41.0,,,,,0,note_on,,95.0,41.0,95.0,764640,796.5
4609,9.0,,,,,,36.0,,,,,0,note_on,,95.0,36.0,95.0,764640,796.5
4610,9.0,,,,,,44.0,,,,,480,note_off,,80.0,44.0,80.0,765120,797.0
4611,9.0,,,,,,41.0,,,,,0,note_off,,80.0,41.0,80.0,765120,797.0
4612,9.0,,,,,,36.0,,,,,0,note_off,,80.0,36.0,80.0,765120,797.0
4613,9.0,,,,,,44.0,,,,,0,note_on,,95.0,44.0,95.0,765120,797.0
4614,9.0,,,,,,41.0,,,,,0,note_on,,95.0,41.0,95.0,765120,797.0
4615,9.0,,,,,,36.0,,,,,0,note_on,,95.0,36.0,95.0,765120,797.0
4616,9.0,,,,,,44.0,,,,,480,note_off,,80.0,44.0,80.0,765600,797.5
4617,9.0,,,,,,41.0,,,,,0,note_off,,80.0,41.0,80.0,765600,797.5
4618,9.0,,,,,,36.0,,,,,0,note_off,,80.0,36.0,80.0,765600,797.5
4619,9.0,,,,,,44.0,,,,,0,note_on,,95.0,44.0,95.0,765600,797.5
4620,9.0,,,,,,41.0,,,,,0,note_on,,95.0,41.0,95.0,765600,797.5
4621,9.0,,,,,,36.0,,,,,0,note_on,,95.0,36.0,95.0,765600,797.5
4622,9.0,,,,,,44.0,,,,,480,note_off,,80.0,44.0,80.0,766080,798.0
4623,9.0,,,,,,41.0,,,,,0,note_off,,80.0,41.0,80.0,766080,798.0
4624,9.0,,,,,,36.0,,,,,0,note_off,,80.0,36.0,80.0,766080,798.0
4625,9.0,,,,,,44.0,,,,,0,note_on,,95.0,44.0,95.0,766080,798.0
4626,9.0,,,,,,41.0,,,,,0,note_on,,95.0,41.0,95.0,766080,798.0
4627,9.0,,,,,,36.0,,,,,0,note_on,,95.0,36.0,95.0,766080,798.0
4628,9.0,,,,,,44.0,,,,,480,note_off,,80.0,44.0,80.0,766560,798.5
4629,9.0,,,,,,41.0,,,,,0,note_off,,80.0,41.0,80.0,766560,798.5
4630,9.0,,,,,,36.0,,,,,0,note_off,,80.0,36.0,80.0,766560,798.5
4631,9.0,,,,,,44.0,,,,,0,note_on,,95.0,44.0,95.0,766560,798.5
4632,9.0,,,,,,41.0,,,,,0,note_on,,95.0,41.0,95.0,766560,798.5
4633,9.0,,,,,,36.0,,,,,0,note_on,,95.0,36.0,95.0,766560,798.5
4634,9.0,,,,,,44.0,,,,,480,note_off,,80.0,44.0,80.0,767040,799.0
4635,9.0,,,,,,41.0,,,,,0,note_off,,80.0,41.0,80.0,767040,799.0
4636,9.0,,,,,,36.0,,,,,0,note_off,,80.0,36.0,80.0,767040,799.0
4637,9.0,,,,,,44.0,,,,,0,note_on,,95.0,44.0,95.0,767040,799.0
4638,9.0,,,,,,41.0,,,,,0,note_on,,95.0,41.0,95.0,767040,799.0
4639,9.0,,,,,,36.0,,,,,0,note_on,,95.0,36.0,95.0,767040,799.0
4640,9.0,,,,,,44.0,,,,,480,note_off,,80.0,44.0,80.0,767520,799.5
4641,9.0,,,,,,41.0,,,,,0,note_off,,80.0,41.0,80.0,767520,799.5
4642,9.0,,,,,,36.0,,,,,0,note_off,,80.0,36.0,80.0,767520,799.5
4643,9.0,,,,,,44.0,,,,,0,note_on,,95.0,44.0,95.0,767520,799.5
4644,9.0,,,,,,41.0,,,,,0,note_on,,95.0,41.0,95.0,767520,799.5
4645,9.0,,,,,,36.0,,,,,0,note_on,,95.0,36.0,95.0,767520,799.5
4646,9.0,,,,,,44.0,,,,,480,note_off,,80.0,44.0,80.0,768000,800.0
4647,9.0,,,,,,41.0,,,,,0,note_off,,80.0,41.0,80.0,768000,800.0
4648,9.0,,,,,,36.0,,,,,0,note_off,,80.0,36.0,80.0,768000,800.0
4649,9.0,,,,,,44.0,,,,,0,note_on,,95.0,44.0,95.0,768000,800.0
4650,9.0,,,,,,41.0,,,,,0,note_on,,95.0,41.0,95.0,768000,800.0
4651,9.0,,,,,,36.0,,,,,0,note_on,,95.0,36.0,95.0,768000,800.0
4652,9.0,,,,,,44.0,,,,,480,note_off,,80.0,44.0,80.0,768480,800.5
4653,9.0,,,,,,41.0,,,,,0,note_off,,80.0,41.0,80.0,768480,800.5
4654,9.0,,,,,,36.0,,,,,0,note_off,,80.0,36.0,80.0,768480,800.5
4655,9.0,,,,,,44.0,,,,,0,note_on,,95.0,44.0,95.0,768480,800.5
4656,9.0,,,,,,41.0,,,,,0,note_on,,95.0,41.0,95.0,768480,800.5
4657,9.0,,,,,,36.0,,,,,0,note_on,,95.0,36.0,95.0,768480,800.5
4658,9.0,,,,,,44.0,,,,,480,note_off,,80.0,44.0,80.0,768960,801.0
4659,9.0,,,,,,41.0,,,,,0,note_off,,80.0,41.0,80.0,768960,801.0
4660,9.0,,,,,,36.0,,,,,0,note_off,,80.0,36.0,80.0,768960,801.0
4661,9.0,,,,,,44.0,,,,,0,note_on,,95.0,44.0,95.0,768960,801.0
4662,9.0,,,,,,41.0,,,,,0,note_on,,95.0,41.0,95.0,768960,801.0
4663,9.0,,,,,,36.0,,,,,0,note_on,,95.0,36.0,95.0,768960,801.0
4664,9.0,,,,,,44.0,,,,,480,note_off,,80.0,44.0,80.0,769440,801.5
4665,9.0,,,,,,41.0,,,,,0,note_off,,80.0,41.0,80.0,769440,801.5
4666,9.0,,,,,,36.0,,,,,0,note_off,,80.0,36.0,80.0,769440,801.5
4667,9.0,,,,,,44.0,,,,,0,note_on,,95.0,44.0,95.0,769440,801.5
4668,9.0,,,,,,41.0,,,,,0,note_on,,95.0,41.0,95.0,769440,801.5
4669,9.0,,,,,,36.0,,,,,0,note_on,,95.0,36.0,95.0,769440,801.5
4670,9.0,,,,,,44.0,,,,,480,note_off,,80.0,44.0,80.0,769920,802.0
4671,9.0,,,,,,41.0,,,,,0,note_off,,80.0,41.0,80.0,769920,802.0
4672,9.0,,,,,,36.0,,,,,0,note_off,,80.0,36.0,80.0,769920,802.0
4673,9.0,,,,,,44.0,,,,,0,note_on,,95.0,44.0,95.0,769920,802.0
4674,9.0,,,,,,41.0,,,,,0,note_on,,95.0,41.0,95.0,769920,802.0
4675,9.0,,,,,,36.0,,,,,0,note_on,,95.0,36.0,95.0,769920,802.0
4676,9.0,,,,,,44.0,,,,,480,note_off,,80.0,44.0,80.0,770400,802.5
4677,9.0,,,,,,41.0,,,,,0,note_off,,80.0,41.0,80.0,770400,802.5
4678,9.0,,,,,,36.0,,,,,0,note_off,,80.0,36.0,80.0,770400,802.5
4679,9.0,,,,,,44.0,,,,,0,note_on,,95.0,44.0,95.0,770400,802.5
4680,9.0,,,,,,41.0,,,,,0,note_on,,95.0,41.0,95.0,770400,802.5
4681,9.0,,,,,,36.0,,,,,0,note_on,,95.0,36.0,95.0,770400,802.5
4682,9.0,,,,,,44.0,,,,,480,note_off,,80.0,44.0,80.0,770880,803.0
4683,9.0,,,,,,41.0,,,,,0,note_off,,80.0,41.0,80.0,770880,803.0
4684,9.0,,,,,,36.0,,,,,0,note_off,,80.0,36.0,80.0,770880,803.0
4685,9.0,,,,,,44.0,,,,,0,note_on,,95.0,44.0,95.0,770880,803.0
4686,9.0,,,,,,41.0,,,,,0,note_on,,95.0,41.0,95.0,770880,803.0
4687,9.0,,,,,,36.0,,,,,0,note_on,,95.0,36.0,95.0,770880,803.0
4688,9.0,,,,,,44.0,,,,,480,note_off,,80.0,44.0,80.0,771360,803.5
4689,9.0,,,,,,41.0,,,,,0,note_off,,80.0,41.0,80.0,771360,803.5
4690,9.0,,,,,,36.0,,,,,0,note_off,,80.0,36.0,80.0,771360,803.5
4691,9.0,,,,,,44.0,,,,,0,note_on,,95.0,44.0,95.0,771360,803.5
4692,9.0,,,,,,41.0,,,,,0,note_on,,95.0,41.0,95.0,771360,803.5
4693,9.0,,,,,,36.0,,,,,0,note_on,,95.0,36.0,95.0,771360,803.5
4694,9.0,,,,,,44.0,,,,,480,note_off,,80.0,44.0,80.0,771840,804.0
4695,9.0,,,,,,41.0,,,,,0,note_off,,80.0,41.0,80.0,771840,804.0
4696,9.0,,,,,,36.0,,,,,0,note_off,,80.0,36.0,80.0,771840,804.0
4697,9.0,,,,,,44.0,,,,,0,note_on,,95.0,44.0,95.0,771840,804.0
4698,9.0,,,,,,41.0,,,,,0,note_on,,95.0,41.0,95.0,771840,804.0
4699,9.0,,,,,,36.0,,,,,0,note_on,,95.0,36.0,95.0,771840,804.0
4700,9.0,,,,,,44.0,,,,,480,note_off,,80.0,44.0,80.0,772320,804.5
4701,9.0,,,,,,41.0,,,,,0,note_off,,80.0,41.0,80.0,772320,804.5
4702,9.0,,,,,,36.0,,,,,0,note_off,,80.0,36.0,80.0,772320,804.5
4703,9.0,,,,,,44.0,,,,,0,note_on,,95.0,44.0,95.0,772320,804.5
4704,9.0,,,,,,41.0,,,,,0,note_on,,95.0,41.0,95.0,772320,804.5
4705,9.0,,,,,,36.0,,,,,0,note_on,,95.0,36.0,95.0,772320,804.5
4706,9.0,,,,,,44.0,,,,,480,note_off,,80.0,44.0,80.0,772800,805.0
4707,9.0,,,,,,41.0,,,,,0,note_off,,80.0,41.0,80.0,772800,805.0
4708,9.0,,,,,,36.0,,,,,0,note_off,,80.0,36.0,80.0,772800,805.0
4709,9.0,,,,,,44.0,,,,,0,note_on,,95.0,44.0,95.0,772800,805.0
4710,9.0,,,,,,41.0,,,,,0,note_on,,95.0,41.0,95.0,772800,805.0
4711,9.0,,,,,,36.0,,,,,0,note_on,,95.0,36.0,95.0,772800,805.0
4712,9.0,,,,,,44.0,,,,,480,note_off,,80.0,44.0,80.0,773280,805.5
4713,9.0,,,,,,41.0,,,,,0,note_off,,80.0,41.0,80.0,773280,805.5
4714,9.0,,,,,,36.0,,,,,0,note_off,,80.0,36.0,80.0,773280,805.5
4715,9.0,,,,,,44.0,,,,,0,note_on,,95.0,44.0,95.0,773280,805.5
4716,9.0,,,,,,41.0,,,,,0,note_on,,95.0,41.0,95.0,773280,805.5
4717,9.0,,,,,,36.0,,,,,0,note_on,,95.0,36.0,95.0,773280,805.5
4718,9.0,,,,,,44.0,,,,,480,note_off,,80.0,44.0,80.0,773760,806.0
4719,9.0,,,,,,41.0,,,,,0,note_off,,80.0,41.0,80.0,773760,806.0
4720,9.0,,,,,,36.0,,,,,0,note_off,,80.0,36.0,80.0,773760,806.0
4721,9.0,,,,,,44.0,,,,,0,note_on,,95.0,44.0,95.0,773760,806.0
4722,9.0,,,,,,41.0,,,,,0,note_on,,95.0,41.0,95.0,773760,806.0
4723,9.0,,,,,,36.0,,,,,0,note_on,,95.0,36.0,95.0,773760,806.0
4724,9.0,,,,,,44.0,,,,,480,note_off,,80.0,44.0,80.0,774240,806.5
4725,9.0,,,,,,41.0,,,,,0,note_off,,80.0,41.0,80.0,774240,806.5
4726,9.0,,,,,,36.0,,,,,0,note_off,,80.0,36.0,80.0,774240,806.5
4727,9.0,,,,,,44.0,,,,,0,note_on,,95.0,44.0,95.0,774240,806.5
4728,9.0,,,,,,41.0,,,,,0,note_on,,95.0,41.0,95.0,774240,806.5
4729,9.0,,,,,,36.0,,,,,0,note_on,,95.0,36.0,95.0,774240,806.5
4730,9.0,,,,,,44.0,,,,,480,note_off,,80.0,44.0,80.0,774720,807.0
4731,9.0,,,,,,41.0,,,,,0,note_off,,80.0,41.0,80.0,774720,807.0
4732,9.0,,,,,,36.0,,,,,0,note_off,,80.0,36.0,80.0,774720,807.0
4733,9.0,,,,,,44.0,,,,,0,note_on,,95.0,44.0,95.0,774720,807.0
4734,9.0,,,,,,41.0,,,,,0,note_on,,95.0,41.0,95.0,774720,807.0
4735,9.0,,,,,,36.0,,,,,0,note_on,,95.0,36.0,95.0,774720,807.0
4736,9.0,,,,,,44.0,,,,,480,note_off,,80.0,44.0,80.0,775200,807.5
4737,9.0,,,,,,41.0,,,,,0,note_off,,80.0,41.0,80.0,775200,807.5
4738,9.0,,,,,,36.0,,,,,0,note_off,,80.0,36.0,80.0,775200,807.5
4739,9.0,,,,,,44.0,,,,,0,note_on,,95.0,44.0,95.0,775200,807.5
4740,9.0,,,,,,41.0,,,,,0,note_on,,95.0,41.0,95.0,775200,807.5
4741,9.0,,,,,,36.0,,,,,0,note_on,,95.0,36.0,95.0,775200,807.5
4742,9.0,,,,,,44.0,,,,,480,note_off,,80.0,44.0,80.0,775680,808.0
4743,9.0,,,,,,41.0,,,,,0,note_off,,80.0,41.0,80.0,775680,808.0
4744,9.0,,,,,,36.0,,,,,0,note_off,,80.0,36.0,80.0,775680,808.0
4745,9.0,,,,,,44.0,,,,,0,note_on,,95.0,44.0,95.0,775680,808.0
4746,9.0,,,,,,36.0,,,,,0,note_on,,95.0,36.0,95.0,775680,808.0
4747,9.0,,,,,,44.0,,,,,480,note_off,,80.0,44.0,80.0,776160,808.5
4748,9.0,,,,,,36.0,,,,,0,note_off,,80.0,36.0,80.0,776160,808.5
4749,9.0,,,,,,44.0,,,,,0,note_on,,95.0,44.0,95.0,776160,808.5
4750,9.0,,,,,,38.0,,,,,0,note_on,,95.0,38.0,95.0,776160,808.5
4751,9.0,,,,,,44.0,,,,,480,note_off,,80.0,44.0,80.0,776640,809.0
4752,9.0,,,,,,38.0,,,,,0,note_off,,80.0,38.0,80.0,776640,809.0
4753,9.0,,,,,,44.0,,,,,0,note_on,,95.0,44.0,95.0,776640,809.0
4754,9.0,,,,,,36.0,,,,,0,note_on,,95.0,36.0,95.0,776640,809.0
4755,9.0,,,,,,44.0,,,,,480,note_off,,80.0,44.0,80.0,777120,809.5
4756,9.0,,,,,,36.0,,,,,0,note_off,,80.0,36.0,80.0,777120,809.5
4757,9.0,,,,,,44.0,,,,,0,note_on,,95.0,44.0,95.0,777120,809.5
4758,9.0,,,,,,38.0,,,,,0,note_on,,95.0,38.0,95.0,777120,809.5
4759,9.0,,,,,,44.0,,,,,480,note_off,,80.0,44.0,80.0,777600,810.0
4760,9.0,,,,,,38.0,,,,,0,note_off,,80.0,38.0,80.0,777600,810.0
4761,9.0,,,,,,44.0,,,,,0,note_on,,95.0,44.0,95.0,777600,810.0
4762,9.0,,,,,,36.0,,,,,0,note_on,,95.0,36.0,95.0,777600,810.0
4763,9.0,,,,,,44.0,,,,,480,note_off,,80.0,44.0,80.0,778080,810.5
4764,9.0,,,,,,36.0,,,,,0,note_off,,80.0,36.0,80.0,778080,810.5
4765,9.0,,,,,,44.0,,,,,0,note_on,,95.0,44.0,95.0,778080,810.5
4766,9.0,,,,,,38.0,,,,,0,note_on,,95.0,38.0,95.0,778080,810.5
4767,9.0,,,,,,44.0,,,,,480,note_off,,80.0,44.0,80.0,778560,811.0
4768,9.0,,,,,,38.0,,,,,0,note_off,,80.0,38.0,80.0,778560,811.0
4769,9.0,,,,,,44.0,,,,,0,note_on,,95.0,44.0,95.0,778560,811.0
4770,9.0,,,,,,36.0,,,,,0,note_on,,95.0,36.0,95.0,778560,811.0
4771,9.0,,,,,,44.0,,,,,480,note_off,,80.0,44.0,80.0,779040,811.5
4772,9.0,,,,,,36.0,,,,,0,note_off,,80.0,36.0,80.0,779040,811.5
4773,9.0,,,,,,44.0,,,,,0,note_on,,95.0,44.0,95.0,779040,811.5
4774,9.0,,,,,,38.0,,,,,0,note_on,,95.0,38.0,95.0,779040,811.5
4775,9.0,,,,,,44.0,,,,,480,note_off,,80.0,44.0,80.0,779520,812.0
4776,9.0,,,,,,38.0,,,,,0,note_off,,80.0,38.0,80.0,779520,812.0
4777,9.0,,,,,,44.0,,,,,0,note_on,,95.0,44.0,95.0,779520,812.0
4778,9.0,,,,,,36.0,,,,,0,note_on,,95.0,36.0,95.0,779520,812.0
4779,9.0,,,,,,44.0,,,,,480,note_off,,80.0,44.0,80.0,780000,812.5
4780,9.0,,,,,,36.0,,,,,0,note_off,,80.0,36.0,80.0,780000,812.5
4781,9.0,,,,,,44.0,,,,,0,note_on,,95.0,44.0,95.0,780000,812.5
4782,9.0,,,,,,38.0,,,,,0,note_on,,95.0,38.0,95.0,780000,812.5
4783,9.0,,,,,,44.0,,,,,480,note_off,,80.0,44.0,80.0,780480,813.0
4784,9.0,,,,,,38.0,,,,,0,note_off,,80.0,38.0,80.0,780480,813.0
4785,9.0,,,,,,44.0,,,,,0,note_on,,95.0,44.0,95.0,780480,813.0
4786,9.0,,,,,,36.0,,,,,0,note_on,,95.0,36.0,95.0,780480,813.0
4787,9.0,,,,,,44.0,,,,,480,note_off,,80.0,44.0,80.0,780960,813.5
4788,9.0,,,,,,36.0,,,,,0,note_off,,80.0,36.0,80.0,780960,813.5
4789,9.0,,,,,,44.0,,,,,0,note_on,,95.0,44.0,95.0,780960,813.5
4790,9.0,,,,,,38.0,,,,,0,note_on,,95.0,38.0,95.0,780960,813.5
4791,9.0,,,,,,44.0,,,,,480,note_off,,80.0,44.0,80.0,781440,814.0
4792,9.0,,,,,,38.0,,,,,0,note_off,,80.0,38.0,80.0,781440,814.0
4793,9.0,,,,,,44.0,,,,,0,note_on,,95.0,44.0,95.0,781440,814.0
4794,9.0,,,,,,36.0,,,,,0,note_on,,95.0,36.0,95.0,781440,814.0
4795,9.0,,,,,,44.0,,,,,480,note_off,,80.0,44.0,80.0,781920,814.5
4796,9.0,,,,,,36.0,,,,,0,note_off,,80.0,36.0,80.0,781920,814.5
4797,9.0,,,,,,44.0,,,,,0,note_on,,95.0,44.0,95.0,781920,814.5
4798,9.0,,,,,,38.0,,,,,0,note_on,,95.0,38.0,95.0,781920,814.5
4799,9.0,,,,,,44.0,,,,,480,note_off,,80.0,44.0,80.0,782400,815.0
4800,9.0,,,,,,38.0,,,,,0,note_off,,80.0,38.0,80.0,782400,815.0
4801,9.0,,,,,,44.0,,,,,0,note_on,,95.0,44.0,95.0,782400,815.0
4802,9.0,,,,,,36.0,,,,,0,note_on,,95.0,36.0,95.0,782400,815.0
4803,9.0,,,,,,44.0,,,,,480,note_off,,80.0,44.0,80.0,782880,815.5
4804,9.0,,,,,,36.0,,,,,0,note_off,,80.0,36.0,80.0,782880,815.5
4805,9.0,,,,,,44.0,,,,,0,note_on,,95.0,44.0,95.0,782880,815.5
4806,9.0,,,,,,38.0,,,,,0,note_on,,95.0,38.0,95.0,782880,815.5
4807,9.0,,,,,,44.0,,,,,480,note_off,,80.0,44.0,80.0,783360,816.0
4808,9.0,,,,,,38.0,,,,,0,note_off,,80.0,38.0,80.0,783360,816.0
4809,9.0,,,,,,44.0,,,,,0,note_on,,95.0,44.0,95.0,783360,816.0
4810,9.0,,,,,,36.0,,,,,0,note_on,,95.0,36.0,95.0,783360,816.0
4811,9.0,,,,,,44.0,,,,,480,note_off,,80.0,44.0,80.0,783840,816.5
4812,9.0,,,,,,36.0,,,,,0,note_off,,80.0,36.0,80.0,783840,816.5
4813,9.0,,,,,,44.0,,,,,0,note_on,,95.0,44.0,95.0,783840,816.5
4814,9.0,,,,,,38.0,,,,,0,note_on,,95.0,38.0,95.0,783840,816.5
4815,9.0,,,,,,44.0,,,,,480,note_off,,80.0,44.0,80.0,784320,817.0
4816,9.0,,,,,,38.0,,,,,0,note_off,,80.0,38.0,80.0,784320,817.0
4817,9.0,,,,,,44.0,,,,,0,note_on,,95.0,44.0,95.0,784320,817.0
4818,9.0,,,,,,36.0,,,,,0,note_on,,95.0,36.0,95.0,784320,817.0
4819,9.0,,,,,,44.0,,,,,480,note_off,,80.0,44.0,80.0,784800,817.5
4820,9.0,,,,,,36.0,,,,,0,note_off,,80.0,36.0,80.0,784800,817.5
4821,9.0,,,,,,44.0,,,,,0,note_on,,95.0,44.0,95.0,784800,817.5
4822,9.0,,,,,,38.0,,,,,0,note_on,,95.0,38.0,95.0,784800,817.5
4823,9.0,,,,,,44.0,,,,,480,note_off,,80.0,44.0,80.0,785280,818.0
4824,9.0,,,,,,38.0,,,,,0,note_off,,80.0,38.0,80.0,785280,818.0
4825,9.0,,,,,,44.0,,,,,0,note_on,,95.0,44.0,95.0,785280,818.0
4826,9.0,,,,,,36.0,,,,,0,note_on,,95.0,36.0,95.0,785280,818.0
4827,9.0,,,,,,44.0,,,,,480,note_off,,80.0,44.0,80.0,785760,818.5
4828,9.0,,,,,,36.0,,,,,0,note_off,,80.0,36.0,80.0,785760,818.5
4829,9.0,,,,,,44.0,,,,,0,note_on,,95.0,44.0,95.0,785760,818.5
4830,9.0,,,,,,38.0,,,,,0,note_on,,95.0,38.0,95.0,785760,818.5
4831,9.0,,,,,,44.0,,,,,480,note_off,,80.0,44.0,80.0,786240,819.0
4832,9.0,,,,,,38.0,,,,,0,note_off,,80.0,38.0,80.0,786240,819.0
4833,9.0,,,,,,44.0,,,,,0,note_on,,95.0,44.0,95.0,786240,819.0
4834,9.0,,,,,,36.0,,,,,0,note_on,,95.0,36.0,95.0,786240,819.0
4835,9.0,,,,,,44.0,,,,,480,note_off,,80.0,44.0,80.0,786720,819.5
4836,9.0,,,,,,36.0,,,,,0,note_off,,80.0,36.0,80.0,786720,819.5
4837,9.0,,,,,,44.0,,,,,0,note_on,,95.0,44.0,95.0,786720,819.5
4838,9.0,,,,,,38.0,,,,,0,note_on,,95.0,38.0,95.0,786720,819.5
4839,9.0,,,,,,44.0,,,,,480,note_off,,80.0,44.0,80.0,787200,820.0
4840,9.0,,,,,,38.0,,,,,0,note_off,,80.0,38.0,80.0,787200,820.0
4841,9.0,,,,,,44.0,,,,,0,note_on,,95.0,44.0,95.0,787200,820.0
4842,9.0,,,,,,36.0,,,,,0,note_on,,95.0,36.0,95.0,787200,820.0
4843,9.0,,,,,,44.0,,,,,480,note_off,,80.0,44.0,80.0,787680,820.5
4844,9.0,,,,,,36.0,,,,,0,note_off,,80.0,36.0,80.0,787680,820.5
4845,9.0,,,,,,44.0,,,,,0,note_on,,95.0,44.0,95.0,787680,820.5
4846,9.0,,,,,,38.0,,,,,0,note_on,,95.0,38.0,95.0,787680,820.5
4847,9.0,,,,,,44.0,,,,,480,note_off,,80.0,44.0,80.0,788160,821.0
4848,9.0,,,,,,38.0,,,,,0,note_off,,80.0,38.0,80.0,788160,821.0
4849,9.0,,,,,,44.0,,,,,0,note_on,,95.0,44.0,95.0,788160,821.0
4850,9.0,,,,,,36.0,,,,,0,note_on,,95.0,36.0,95.0,788160,821.0
4851,9.0,,,,,,44.0,,,,,480,note_off,,80.0,44.0,80.0,788640,821.5
4852,9.0,,,,,,36.0,,,,,0,note_off,,80.0,36.0,80.0,788640,821.5
4853,9.0,,,,,,44.0,,,,,0,note_on,,95.0,44.0,95.0,788640,821.5
4854,9.0,,,,,,38.0,,,,,0,note_on,,95.0,38.0,95.0,788640,821.5
4855,9.0,,,,,,44.0,,,,,480,note_off,,80.0,44.0,80.0,789120,822.0
4856,9.0,,,,,,38.0,,,,,0,note_off,,80.0,38.0,80.0,789120,822.0
4857,9.0,,,,,,44.0,,,,,0,note_on,,95.0,44.0,95.0,789120,822.0
4858,9.0,,,,,,36.0,,,,,0,note_on,,95.0,36.0,95.0,789120,822.0
4859,9.0,,,,,,44.0,,,,,480,note_off,,80.0,44.0,80.0,789600,822.5
4860,9.0,,,,,,36.0,,,,,0,note_off,,80.0,36.0,80.0,789600,822.5
4861,9.0,,,,,,44.0,,,,,0,note_on,,95.0,44.0,95.0,789600,822.5
4862,9.0,,,,,,38.0,,,,,0,note_on,,95.0,38.0,95.0,789600,822.5
4863,9.0,,,,,,44.0,,,,,480,note_off,,80.0,44.0,80.0,790080,823.0
4864,9.0,,,,,,38.0,,,,,0,note_off,,80.0,38.0,80.0,790080,823.0
4865,9.0,,,,,,44.0,,,,,0,note_on,,95.0,44.0,95.0,790080,823.0
4866,9.0,,,,,,36.0,,,,,0,note_on,,95.0,36.0,95.0,790080,823.0
4867,9.0,,,,,,44.0,,,,,480,note_off,,80.0,44.0,80.0,790560,823.5
4868,9.0,,,,,,36.0,,,,,0,note_off,,80.0,36.0,80.0,790560,823.5
4869,9.0,,,,,,44.0,,,,,0,note_on,,95.0,44.0,95.0,790560,823.5
4870,9.0,,,,,,38.0,,,,,0,note_on,,95.0,38.0,95.0,790560,823.5
4871,9.0,,,,,,44.0,,,,,480,note_off,,80.0,44.0,80.0,791040,824.0
4872,9.0,,,,,,38.0,,,,,0,note_off,,80.0,38.0,80.0,791040,824.0
4873,9.0,,,,,,57.0,,,,,0,note_on,,95.0,57.0,95.0,791040,824.0
4874,9.0,,,,,,36.0,,,,,0,note_on,,95.0,36.0,95.0,791040,824.0
4875,9.0,,,,,,57.0,,,,,480,note_off,,80.0,57.0,80.0,791520,824.5
4876,9.0,,,,,,36.0,,,,,0,note_off,,80.0,36.0,80.0,791520,824.5
4877,9.0,,,,,,42.0,,,,,0,note_on,,95.0,42.0,95.0,791520,824.5
4878,9.0,,,,,,42.0,,,,,480,note_off,,80.0,42.0,80.0,792000,825.0
4879,9.0,,,,,,42.0,,,,,0,note_on,,95.0,42.0,95.0,792000,825.0
4880,9.0,,,,,,42.0,,,,,480,note_off,,80.0,42.0,80.0,792480,825.5
4881,9.0,,,,,,42.0,,,,,0,note_on,,95.0,42.0,95.0,792480,825.5
4882,9.0,,,,,,42.0,,,,,480,note_off,,80.0,42.0,80.0,792960,826.0
4883,9.0,,,,,,57.0,,,,,0,note_on,,95.0,57.0,95.0,792960,826.0
4884,9.0,,,,,,36.0,,,,,0,note_on,,95.0,36.0,95.0,792960,826.0
4885,9.0,,,,,,57.0,,,,,480,note_off,,80.0,57.0,80.0,793440,826.5
4886,9.0,,,,,,36.0,,,,,0,note_off,,80.0,36.0,80.0,793440,826.5
4887,9.0,,,,,,42.0,,,,,0,note_on,,95.0,42.0,95.0,793440,826.5
4888,9.0,,,,,,42.0,,,,,480,note_off,,80.0,42.0,80.0,793920,827.0
4889,9.0,,,,,,42.0,,,,,0,note_on,,95.0,42.0,95.0,793920,827.0
4890,9.0,,,,,,42.0,,,,,480,note_off,,80.0,42.0,80.0,794400,827.5
4891,9.0,,,,,,42.0,,,,,0,note_on,,95.0,42.0,95.0,794400,827.5
4892,9.0,,,,,,42.0,,,,,480,note_off,,80.0,42.0,80.0,794880,828.0
4893,9.0,,,,,,57.0,,,,,0,note_on,,95.0,57.0,95.0,794880,828.0
4894,9.0,,,,,,36.0,,,,,0,note_on,,95.0,36.0,95.0,794880,828.0
4895,9.0,,,,,,57.0,,,,,480,note_off,,80.0,57.0,80.0,795360,828.5
4896,9.0,,,,,,36.0,,,,,0,note_off,,80.0,36.0,80.0,795360,828.5
4897,9.0,,,,,,57.0,,,,,0,note_on,,95.0,57.0,95.0,795360,828.5
4898,9.0,,,,,,38.0,,,,,0,note_on,,95.0,38.0,95.0,795360,828.5
4899,9.0,,,,,,57.0,,,,,480,note_off,,80.0,57.0,80.0,795840,829.0
4900,9.0,,,,,,38.0,,,,,0,note_off,,80.0,38.0,80.0,795840,829.0
4901,9.0,,,,,,57.0,,,,,0,note_on,,95.0,57.0,95.0,795840,829.0
4902,9.0,,,,,,36.0,,,,,0,note_on,,95.0,36.0,95.0,795840,829.0
4903,9.0,,,,,,57.0,,,,,480,note_off,,80.0,57.0,80.0,796320,829.5
4904,9.0,,,,,,36.0,,,,,0,note_off,,80.0,36.0,80.0,796320,829.5
4905,9.0,,,,,,57.0,,,,,0,note_on,,95.0,57.0,95.0,796320,829.5
4906,9.0,,,,,,38.0,,,,,0,note_on,,95.0,38.0,95.0,796320,829.5
4907,9.0,,,,,,57.0,,,,,480,note_off,,80.0,57.0,80.0,796800,830.0
4908,9.0,,,,,,38.0,,,,,0,note_off,,80.0,38.0,80.0,796800,830.0
4909,9.0,,,,,,57.0,,,,,0,note_on,,95.0,57.0,95.0,796800,830.0
4910,9.0,,,,,,36.0,,,,,0,note_on,,95.0,36.0,95.0,796800,830.0
4911,9.0,,,,,,57.0,,,,,480,note_off,,80.0,57.0,80.0,797280,830.5
4912,9.0,,,,,,36.0,,,,,0,note_off,,80.0,36.0,80.0,797280,830.5
4913,9.0,,,,,,57.0,,,,,0,note_on,,95.0,57.0,95.0,797280,830.5
4914,9.0,,,,,,38.0,,,,,0,note_on,,95.0,38.0,95.0,797280,830.5
4915,9.0,,,,,,57.0,,,,,480,note_off,,80.0,57.0,80.0,797760,831.0
4916,9.0,,,,,,38.0,,,,,0,note_off,,80.0,38.0,80.0,797760,831.0
4917,9.0,,,,,,57.0,,,,,0,note_on,,95.0,57.0,95.0,797760,831.0
4918,9.0,,,,,,36.0,,,,,0,note_on,,95.0,36.0,95.0,797760,831.0
4919,9.0,,,,,,57.0,,,,,480,note_off,,80.0,57.0,80.0,798240,831.5
4920,9.0,,,,,,36.0,,,,,0,note_off,,80.0,36.0,80.0,798240,831.5
4921,9.0,,,,,,57.0,,,,,0,note_on,,95.0,57.0,95.0,798240,831.5
4922,9.0,,,,,,38.0,,,,,0,note_on,,95.0,38.0,95.0,798240,831.5
4923,9.0,,,,,,57.0,,,,,480,note_off,,80.0,57.0,80.0,798720,832.0
4924,9.0,,,,,,38.0,,,,,0,note_off,,80.0,38.0,80.0,798720,832.0
4925,9.0,,,,,,57.0,,,,,0,note_on,,95.0,57.0,95.0,798720,832.0
4926,9.0,,,,,,36.0,,,,,0,note_on,,95.0,36.0,95.0,798720,832.0
4927,9.0,,,,,,57.0,,,,,480,note_off,,80.0,57.0,80.0,799200,832.5
4928,9.0,,,,,,36.0,,,,,0,note_off,,80.0,36.0,80.0,799200,832.5
4929,9.0,,,,,,57.0,,,,,0,note_on,,95.0,57.0,95.0,799200,832.5
4930,9.0,,,,,,38.0,,,,,0,note_on,,95.0,38.0,95.0,799200,832.5
4931,9.0,,,,,,38.0,,,,,240,note_off,,80.0,38.0,80.0,799440,832.75
4932,9.0,,,,,,36.0,,,,,0,note_on,,95.0,36.0,95.0,799440,832.75
4933,9.0,,,,,,57.0,,,,,240,note_off,,80.0,57.0,80.0,799680,833.0
4934,9.0,,,,,,36.0,,,,,0,note_off,,80.0,36.0,80.0,799680,833.0
4935,9.0,,,,,,57.0,,,,,0,note_on,,95.0,57.0,95.0,799680,833.0
4936,9.0,,,,,,36.0,,,,,0,note_on,,95.0,36.0,95.0,799680,833.0
4937,9.0,,,,,,57.0,,,,,480,note_off,,80.0,57.0,80.0,800160,833.5
4938,9.0,,,,,,36.0,,,,,0,note_off,,80.0,36.0,80.0,800160,833.5
4939,9.0,,,,,,57.0,,,,,0,note_on,,95.0,57.0,95.0,800160,833.5
4940,9.0,,,,,,36.0,,,,,0,note_on,,95.0,36.0,95.0,800160,833.5
4941,9.0,,,,,,36.0,,,,,240,note_off,,80.0,36.0,80.0,800400,833.75
4942,9.0,,,,,,38.0,,,,,0,note_on,,95.0,38.0,95.0,800400,833.75
4943,9.0,,,,,,57.0,,,,,240,note_off,,80.0,57.0,80.0,800640,834.0
4944,9.0,,,,,,38.0,,,,,0,note_off,,80.0,38.0,80.0,800640,834.0
4945,9.0,,,,,,57.0,,,,,0,note_on,,95.0,57.0,95.0,800640,834.0
4946,9.0,,,,,,36.0,,,,,0,note_on,,95.0,36.0,95.0,800640,834.0
4947,9.0,,,,,,57.0,,,,,480,note_off,,80.0,57.0,80.0,801120,834.5
4948,9.0,,,,,,36.0,,,,,0,note_off,,80.0,36.0,80.0,801120,834.5
4949,9.0,,,,,,57.0,,,,,0,note_on,,95.0,57.0,95.0,801120,834.5
4950,9.0,,,,,,38.0,,,,,0,note_on,,95.0,38.0,95.0,801120,834.5
4951,9.0,,,,,,57.0,,,,,480,note_off,,80.0,57.0,80.0,801600,835.0
4952,9.0,,,,,,38.0,,,,,0,note_off,,80.0,38.0,80.0,801600,835.0
4953,9.0,,,,,,57.0,,,,,0,note_on,,95.0,57.0,95.0,801600,835.0
4954,9.0,,,,,,36.0,,,,,0,note_on,,95.0,36.0,95.0,801600,835.0
4955,9.0,,,,,,57.0,,,,,480,note_off,,80.0,57.0,80.0,802080,835.5
4956,9.0,,,,,,36.0,,,,,0,note_off,,80.0,36.0,80.0,802080,835.5
4957,9.0,,,,,,57.0,,,,,0,note_on,,95.0,57.0,95.0,802080,835.5
4958,9.0,,,,,,38.0,,,,,0,note_on,,95.0,38.0,95.0,802080,835.5
4959,9.0,,,,,,57.0,,,,,480,note_off,,80.0,57.0,80.0,802560,836.0
4960,9.0,,,,,,38.0,,,,,0,note_off,,80.0,38.0,80.0,802560,836.0
4961,9.0,,,,,,57.0,,,,,0,note_on,,95.0,57.0,95.0,802560,836.0
4962,9.0,,,,,,36.0,,,,,0,note_on,,95.0,36.0,95.0,802560,836.0
4963,9.0,,,,,,57.0,,,,,480,note_off,,80.0,57.0,80.0,803040,836.5
4964,9.0,,,,,,36.0,,,,,0,note_off,,80.0,36.0,80.0,803040,836.5
4965,9.0,,,,,,57.0,,,,,0,note_on,,95.0,57.0,95.0,803040,836.5
4966,9.0,,,,,,38.0,,,,,0,note_on,,95.0,38.0,95.0,803040,836.5
4967,9.0,,,,,,57.0,,,,,480,note_off,,80.0,57.0,80.0,803520,837.0
4968,9.0,,,,,,38.0,,,,,0,note_off,,80.0,38.0,80.0,803520,837.0
4969,9.0,,,,,,57.0,,,,,0,note_on,,95.0,57.0,95.0,803520,837.0
4970,9.0,,,,,,36.0,,,,,0,note_on,,95.0,36.0,95.0,803520,837.0
4971,9.0,,,,,,57.0,,,,,480,note_off,,80.0,57.0,80.0,804000,837.5
4972,9.0,,,,,,36.0,,,,,0,note_off,,80.0,36.0,80.0,804000,837.5
4973,9.0,,,,,,57.0,,,,,0,note_on,,95.0,57.0,95.0,804000,837.5
4974,9.0,,,,,,38.0,,,,,0,note_on,,95.0,38.0,95.0,804000,837.5
4975,9.0,,,,,,57.0,,,,,480,note_off,,80.0,57.0,80.0,804480,838.0
4976,9.0,,,,,,38.0,,,,,0,note_off,,80.0,38.0,80.0,804480,838.0
4977,9.0,,,,,,57.0,,,,,0,note_on,,95.0,57.0,95.0,804480,838.0
4978,9.0,,,,,,36.0,,,,,0,note_on,,95.0,36.0,95.0,804480,838.0
4979,9.0,,,,,,57.0,,,,,480,note_off,,80.0,57.0,80.0,804960,838.5
4980,9.0,,,,,,36.0,,,,,0,note_off,,80.0,36.0,80.0,804960,838.5
4981,9.0,,,,,,57.0,,,,,0,note_on,,95.0,57.0,95.0,804960,838.5
4982,9.0,,,,,,38.0,,,,,0,note_on,,95.0,38.0,95.0,804960,838.5
4983,9.0,,,,,,57.0,,,,,480,note_off,,80.0,57.0,80.0,805440,839.0
4984,9.0,,,,,,38.0,,,,,0,note_off,,80.0,38.0,80.0,805440,839.0
4985,9.0,,,,,,57.0,,,,,0,note_on,,95.0,57.0,95.0,805440,839.0
4986,9.0,,,,,,36.0,,,,,0,note_on,,95.0,36.0,95.0,805440,839.0
4987,9.0,,,,,,57.0,,,,,480,note_off,,80.0,57.0,80.0,805920,839.5
4988,9.0,,,,,,36.0,,,,,0,note_off,,80.0,36.0,80.0,805920,839.5
4989,9.0,,,,,,57.0,,,,,0,note_on,,95.0,57.0,95.0,805920,839.5
4990,9.0,,,,,,38.0,,,,,0,note_on,,95.0,38.0,95.0,805920,839.5
4991,9.0,,,,,,57.0,,,,,480,note_off,,80.0,57.0,80.0,806400,840.0
4992,9.0,,,,,,38.0,,,,,0,note_off,,80.0,38.0,80.0,806400,840.0
4993,9.0,,,,,,57.0,,,,,0,note_on,,95.0,57.0,95.0,806400,840.0
4994,9.0,,,,,,36.0,,,,,0,note_on,,95.0,36.0,95.0,806400,840.0
4995,9.0,,,,,,57.0,,,,,480,note_off,,80.0,57.0,80.0,806880,840.5
4996,9.0,,,,,,36.0,,,,,0,note_off,,80.0,36.0,80.0,806880,840.5
4997,9.0,,,,,,57.0,,,,,0,note_on,,95.0,57.0,95.0,806880,840.5
4998,9.0,,,,,,38.0,,,,,0,note_on,,95.0,38.0,95.0,806880,840.5
4999,9.0,,,,,,38.0,,,,,240,note_off,,80.0,38.0,80.0,807120,840.75
5000,9.0,,,,,,36.0,,,,,0,note_on,,95.0,36.0,95.0,807120,840.75
5001,9.0,,,,,,57.0,,,,,240,note_off,,80.0,57.0,80.0,807360,841.0
5002,9.0,,,,,,36.0,,,,,0,note_off,,80.0,36.0,80.0,807360,841.0
5003,9.0,,,,,,57.0,,,,,0,note_on,,95.0,57.0,95.0,807360,841.0
5004,9.0,,,,,,36.0,,,,,0,note_on,,95.0,36.0,95.0,807360,841.0
5005,9.0,,,,,,57.0,,,,,480,note_off,,80.0,57.0,80.0,807840,841.5
5006,9.0,,,,,,36.0,,,,,0,note_off,,80.0,36.0,80.0,807840,841.5
5007,9.0,,,,,,57.0,,,,,0,note_on,,95.0,57.0,95.0,807840,841.5
5008,9.0,,,,,,36.0,,,,,0,note_on,,95.0,36.0,95.0,807840,841.5
5009,9.0,,,,,,36.0,,,,,240,note_off,,80.0,36.0,80.0,808080,841.75
5010,9.0,,,,,,38.0,,,,,0,note_on,,95.0,38.0,95.0,808080,841.75
5011,9.0,,,,,,57.0,,,,,240,note_off,,80.0,57.0,80.0,808320,842.0
5012,9.0,,,,,,38.0,,,,,0,note_off,,80.0,38.0,80.0,808320,842.0
5013,9.0,,,,,,57.0,,,,,0,note_on,,95.0,57.0,95.0,808320,842.0
5014,9.0,,,,,,36.0,,,,,0,note_on,,95.0,36.0,95.0,808320,842.0
5015,9.0,,,,,,57.0,,,,,480,note_off,,80.0,57.0,80.0,808800,842.5
5016,9.0,,,,,,36.0,,,,,0,note_off,,80.0,36.0,80.0,808800,842.5
5017,9.0,,,,,,57.0,,,,,0,note_on,,95.0,57.0,95.0,808800,842.5
5018,9.0,,,,,,38.0,,,,,0,note_on,,95.0,38.0,95.0,808800,842.5
5019,9.0,,,,,,57.0,,,,,480,note_off,,80.0,57.0,80.0,809280,843.0
5020,9.0,,,,,,38.0,,,,,0,note_off,,80.0,38.0,80.0,809280,843.0
5021,9.0,,,,,,57.0,,,,,0,note_on,,95.0,57.0,95.0,809280,843.0
5022,9.0,,,,,,36.0,,,,,0,note_on,,95.0,36.0,95.0,809280,843.0
5023,9.0,,,,,,57.0,,,,,480,note_off,,80.0,57.0,80.0,809760,843.5
5024,9.0,,,,,,36.0,,,,,0,note_off,,80.0,36.0,80.0,809760,843.5
5025,9.0,,,,,,57.0,,,,,0,note_on,,95.0,57.0,95.0,809760,843.5
5026,9.0,,,,,,38.0,,,,,0,note_on,,95.0,38.0,95.0,809760,843.5
5027,9.0,,,,,,57.0,,,,,480,note_off,,80.0,57.0,80.0,810240,844.0
5028,9.0,,,,,,38.0,,,,,0,note_off,,80.0,38.0,80.0,810240,844.0
5029,9.0,,,,,,57.0,,,,,0,note_on,,95.0,57.0,95.0,810240,844.0
5030,9.0,,,,,,36.0,,,,,0,note_on,,95.0,36.0,95.0,810240,844.0
5031,9.0,,,,,,57.0,,,,,1920,note_off,,80.0,57.0,80.0,812160,846.0
5032,9.0,,,,,,36.0,,,,,0,note_off,,80.0,36.0,80.0,812160,846.0
5033,,,,,,,,,,,,0,end_of_track,,,,,812160,846.0
