,channel,clocks_per_click,control,denominator,notated_32nd_notes_per_beat,note,numerator,pitch,program,tempo,time,type,value,velocity,note_midi_value,note_velocity,note_time,note_seconds
0,0.0,,101.0,,,,,,,,0,control_change,0.0,,,,0,0.0
1,0.0,,100.0,,,,,,,,0,control_change,0.0,,,,0,0.0
2,0.0,,6.0,,,,,,,,0,control_change,12.0,,,,0,0.0
3,0.0,,38.0,,,,,,,,0,control_change,0.0,,,,0,0.0
4,1.0,,101.0,,,,,,,,0,control_change,0.0,,,,0,0.0
5,1.0,,100.0,,,,,,,,0,control_change,0.0,,,,0,0.0
6,1.0,,6.0,,,,,,,,0,control_change,12.0,,,,0,0.0
7,1.0,,38.0,,,,,,,,0,control_change,0.0,,,,0,0.0
8,2.0,,101.0,,,,,,,,0,control_change,0.0,,,,0,0.0
9,2.0,,100.0,,,,,,,,0,control_change,0.0,,,,0,0.0
10,2.0,,6.0,,,,,,,,0,control_change,12.0,,,,0,0.0
11,2.0,,38.0,,,,,,,,0,control_change,0.0,,,,0,0.0
12,3.0,,101.0,,,,,,,,0,control_change,0.0,,,,0,0.0
13,3.0,,100.0,,,,,,,,0,control_change,0.0,,,,0,0.0
14,3.0,,6.0,,,,,,,,0,control_change,12.0,,,,0,0.0
15,3.0,,38.0,,,,,,,,0,control_change,0.0,,,,0,0.0
16,4.0,,101.0,,,,,,,,0,control_change,0.0,,,,0,0.0
17,4.0,,100.0,,,,,,,,0,control_change,0.0,,,,0,0.0
18,4.0,,6.0,,,,,,,,0,control_change,12.0,,,,0,0.0
19,4.0,,38.0,,,,,,,,0,control_change,0.0,,,,0,0.0
20,5.0,,101.0,,,,,,,,0,control_change,0.0,,,,0,0.0
21,5.0,,100.0,,,,,,,,0,control_change,0.0,,,,0,0.0
22,5.0,,6.0,,,,,,,,0,control_change,12.0,,,,0,0.0
23,5.0,,38.0,,,,,,,,0,control_change,0.0,,,,0,0.0
24,6.0,,101.0,,,,,,,,0,control_change,0.0,,,,0,0.0
25,6.0,,100.0,,,,,,,,0,control_change,0.0,,,,0,0.0
26,6.0,,6.0,,,,,,,,0,control_change,12.0,,,,0,0.0
27,6.0,,38.0,,,,,,,,0,control_change,0.0,,,,0,0.0
28,7.0,,101.0,,,,,,,,0,control_change,0.0,,,,0,0.0
29,7.0,,100.0,,,,,,,,0,control_change,0.0,,,,0,0.0
30,7.0,,6.0,,,,,,,,0,control_change,12.0,,,,0,0.0
31,7.0,,38.0,,,,,,,,0,control_change,0.0,,,,0,0.0
32,8.0,,101.0,,,,,,,,0,control_change,0.0,,,,0,0.0
33,8.0,,100.0,,,,,,,,0,control_change,0.0,,,,0,0.0
34,8.0,,6.0,,,,,,,,0,control_change,12.0,,,,0,0.0
35,8.0,,38.0,,,,,,,,0,control_change,0.0,,,,0,0.0
36,9.0,,101.0,,,,,,,,0,control_change,0.0,,,,0,0.0
37,9.0,,100.0,,,,,,,,0,control_change,0.0,,,,0,0.0
38,9.0,,6.0,,,,,,,,0,control_change,12.0,,,,0,0.0
39,9.0,,38.0,,,,,,,,0,control_change,0.0,,,,0,0.0
40,10.0,,101.0,,,,,,,,0,control_change,0.0,,,,0,0.0
41,10.0,,100.0,,,,,,,,0,control_change,0.0,,,,0,0.0
42,10.0,,6.0,,,,,,,,0,control_change,12.0,,,,0,0.0
43,10.0,,38.0,,,,,,,,0,control_change,0.0,,,,0,0.0
44,11.0,,101.0,,,,,,,,0,control_change,0.0,,,,0,0.0
45,11.0,,100.0,,,,,,,,0,control_change,0.0,,,,0,0.0
46,11.0,,6.0,,,,,,,,0,control_change,12.0,,,,0,0.0
47,11.0,,38.0,,,,,,,,0,control_change,0.0,,,,0,0.0
48,12.0,,101.0,,,,,,,,0,control_change,0.0,,,,0,0.0
49,12.0,,100.0,,,,,,,,0,control_change,0.0,,,,0,0.0
50,12.0,,6.0,,,,,,,,0,control_change,12.0,,,,0,0.0
51,12.0,,38.0,,,,,,,,0,control_change,0.0,,,,0,0.0
52,13.0,,101.0,,,,,,,,0,control_change,0.0,,,,0,0.0
53,13.0,,100.0,,,,,,,,0,control_change,0.0,,,,0,0.0
54,13.0,,6.0,,,,,,,,0,control_change,12.0,,,,0,0.0
55,13.0,,38.0,,,,,,,,0,control_change,0.0,,,,0,0.0
56,14.0,,101.0,,,,,,,,0,control_change,0.0,,,,0,0.0
57,14.0,,100.0,,,,,,,,0,control_change,0.0,,,,0,0.0
58,14.0,,6.0,,,,,,,,0,control_change,12.0,,,,0,0.0
59,14.0,,38.0,,,,,,,,0,control_change,0.0,,,,0,0.0
60,15.0,,101.0,,,,,,,,0,control_change,0.0,,,,0,0.0
61,15.0,,100.0,,,,,,,,0,control_change,0.0,,,,0,0.0
62,15.0,,6.0,,,,,,,,0,control_change,12.0,,,,0,0.0
63,15.0,,38.0,,,,,,,,0,control_change,0.0,,,,0,0.0
64,,24.0,,4.0,8.0,,4.0,,,,0,time_signature,,,,,0,0.0
65,,,,,,,,,,540540.0,0,set_tempo,,,,,0,0.0
66,,,,,,,,,,,0,end_of_track,,,,,0,0.0
67,0.0,,,,,,,0.0,,,0,pitchwheel,,,,,0,0.0
68,0.0,,7.0,,,,,,,,0,control_change,103.0,,,,0,0.0
69,0.0,,10.0,,,,,,,,0,control_change,23.0,,,,0,0.0
70,0.0,,93.0,,,,,,,,0,control_change,0.0,,,,0,0.0
71,0.0,,91.0,,,,,,,,0,control_change,0.0,,,,0,0.0
72,0.0,,95.0,,,,,,,,0,control_change,0.0,,,,0,0.0
73,0.0,,92.0,,,,,,,,0,control_change,0.0,,,,0,0.0
74,0.0,,11.0,,,,,,,,0,control_change,127.0,,,,0,0.0
75,0.0,,,,,,,,30.0,,0,program_change,,,,,0,0.0
76,1.0,,7.0,,,,,,,,0,control_change,103.0,,,,0,0.0
77,1.0,,10.0,,,,,,,,0,control_change,23.0,,,,0,0.0
78,1.0,,93.0,,,,,,,,0,control_change,0.0,,,,0,0.0
79,1.0,,91.0,,,,,,,,0,control_change,0.0,,,,0,0.0
80,1.0,,95.0,,,,,,,,0,control_change,0.0,,,,0,0.0
81,1.0,,92.0,,,,,,,,0,control_change,0.0,,,,0,0.0
82,1.0,,11.0,,,,,,,,0,control_change,127.0,,,,0,0.0
83,1.0,,,,,,,,30.0,,0,program_change,,,,,0,0.0
84,0.0,,,,,39.0,,,,,0,note_on,,95.0,39.0,95.0,0,0.0
85,0.0,,,,,39.0,,,,,240,note_off,,95.0,39.0,95.0,240,0.125
86,0.0,,,,,39.0,,,,,0,note_on,,95.0,39.0,95.0,240,0.125
87,0.0,,,,,39.0,,,,,240,note_off,,95.0,39.0,95.0,480,0.25
88,0.0,,,,,39.0,,,,,240,note_on,,95.0,39.0,95.0,720,0.375
89,1.0,,,,,49.0,,,,,180,note_on,,95.0,49.0,95.0,900,0.46875
90,0.0,,,,,39.0,,,,,60,note_off,,95.0,39.0,95.0,960,0.5
91,1.0,,,,,49.0,,,,,0,note_off,,95.0,49.0,95.0,960,0.5
92,1.0,,,,,51.0,,,,,0,note_on,,95.0,51.0,95.0,960,0.5
93,0.0,,,,,39.0,,,,,0,note_on,,95.0,39.0,95.0,960,0.5
94,1.0,,,,,51.0,,,,,480,note_off,,95.0,51.0,95.0,1440,0.75
95,0.0,,,,,39.0,,,,,0,note_off,,95.0,39.0,95.0,1440,0.75
96,0.0,,,,,39.0,,,,,0,note_on,,95.0,39.0,95.0,1440,0.75
97,0.0,,,,,39.0,,,,,240,note_off,,95.0,39.0,95.0,1680,0.875
98,0.0,,,,,39.0,,,,,0,note_on,,95.0,39.0,95.0,1680,0.875
99,0.0,,,,,39.0,,,,,240,note_off,,95.0,39.0,95.0,1920,1.0
100,0.0,,,,,39.0,,,,,240,note_on,,95.0,39.0,95.0,2160,1.125
101,0.0,,,,,39.0,,,,,240,note_off,,95.0,39.0,95.0,2400,1.25
102,0.0,,,,,59.0,,,,,0,note_on,,95.0,59.0,95.0,2400,1.25
103,0.0,,,,,52.0,,,,,0,note_on,,95.0,52.0,95.0,2400,1.25
104,0.0,,,,,59.0,,,,,480,note_off,,95.0,59.0,95.0,2880,1.5
105,0.0,,,,,52.0,,,,,0,note_off,,95.0,52.0,95.0,2880,1.5
106,0.0,,,,,39.0,,,,,0,note_on,,95.0,39.0,95.0,2880,1.5
107,0.0,,,,,39.0,,,,,240,note_off,,95.0,39.0,95.0,3120,1.625
108,0.0,,,,,39.0,,,,,0,note_on,,95.0,39.0,95.0,3120,1.625
109,0.0,,,,,39.0,,,,,240,note_off,,95.0,39.0,95.0,3360,1.75
110,0.0,,,,,57.0,,,,,0,note_on,,95.0,57.0,95.0,3360,1.75
111,0.0,,,,,50.0,,,,,0,note_on,,95.0,50.0,95.0,3360,1.75
112,0.0,,,,,57.0,,,,,480,note_off,,95.0,57.0,95.0,3840,2.0
113,0.0,,,,,50.0,,,,,0,note_off,,95.0,50.0,95.0,3840,2.0
114,0.0,,,,,39.0,,,,,0,note_on,,95.0,39.0,95.0,3840,2.0
115,0.0,,,,,39.0,,,,,240,note_off,,95.0,39.0,95.0,4080,2.125
116,0.0,,,,,39.0,,,,,0,note_on,,95.0,39.0,95.0,4080,2.125
117,0.0,,,,,39.0,,,,,240,note_off,,95.0,39.0,95.0,4320,2.25
118,0.0,,,,,39.0,,,,,240,note_on,,95.0,39.0,95.0,4560,2.375
119,1.0,,,,,49.0,,,,,180,note_on,,95.0,49.0,95.0,4740,2.46875
120,0.0,,,,,39.0,,,,,60,note_off,,95.0,39.0,95.0,4800,2.5
121,1.0,,,,,49.0,,,,,0,note_off,,95.0,49.0,95.0,4800,2.5
122,1.0,,,,,51.0,,,,,0,note_on,,95.0,51.0,95.0,4800,2.5
123,0.0,,,,,39.0,,,,,0,note_on,,95.0,39.0,95.0,4800,2.5
124,1.0,,,,,51.0,,,,,480,note_off,,95.0,51.0,95.0,5280,2.75
125,0.0,,,,,39.0,,,,,0,note_off,,95.0,39.0,95.0,5280,2.75
126,0.0,,,,,39.0,,,,,0,note_on,,95.0,39.0,95.0,5280,2.75
127,0.0,,,,,39.0,,,,,240,note_off,,95.0,39.0,95.0,5520,2.875
128,0.0,,,,,39.0,,,,,0,note_on,,95.0,39.0,95.0,5520,2.875
129,0.0,,,,,39.0,,,,,240,note_off,,95.0,39.0,95.0,5760,3.0
130,0.0,,,,,39.0,,,,,240,note_on,,95.0,39.0,95.0,6000,3.125
131,0.0,,,,,39.0,,,,,240,note_off,,95.0,39.0,95.0,6240,3.25
132,0.0,,,,,61.0,,,,,0,note_on,,95.0,61.0,95.0,6240,3.25
133,0.0,,,,,54.0,,,,,0,note_on,,95.0,54.0,95.0,6240,3.25
134,0.0,,,,,61.0,,,,,480,note_off,,95.0,61.0,95.0,6720,3.5
135,0.0,,,,,54.0,,,,,0,note_off,,95.0,54.0,95.0,6720,3.5
136,0.0,,,,,39.0,,,,,0,note_on,,95.0,39.0,95.0,6720,3.5
137,0.0,,,,,39.0,,,,,240,note_off,,95.0,39.0,95.0,6960,3.625
138,0.0,,,,,39.0,,,,,0,note_on,,95.0,39.0,95.0,6960,3.625
139,0.0,,,,,39.0,,,,,240,note_off,,95.0,39.0,95.0,7200,3.75
140,0.0,,,,,60.0,,,,,0,note_on,,95.0,60.0,95.0,7200,3.75
141,0.0,,,,,53.0,,,,,0,note_on,,95.0,53.0,95.0,7200,3.75
142,0.0,,,,,60.0,,,,,480,note_off,,95.0,60.0,95.0,7680,4.0
143,0.0,,,,,53.0,,,,,0,note_off,,95.0,53.0,95.0,7680,4.0
144,0.0,,,,,39.0,,,,,0,note_on,,95.0,39.0,95.0,7680,4.0
145,0.0,,,,,39.0,,,,,240,note_off,,95.0,39.0,95.0,7920,4.125
146,0.0,,,,,39.0,,,,,0,note_on,,95.0,39.0,95.0,7920,4.125
147,0.0,,,,,39.0,,,,,240,note_off,,95.0,39.0,95.0,8160,4.25
148,0.0,,,,,39.0,,,,,240,note_on,,95.0,39.0,95.0,8400,4.375
149,1.0,,,,,49.0,,,,,180,note_on,,95.0,49.0,95.0,8580,4.46875
150,0.0,,,,,39.0,,,,,60,note_off,,95.0,39.0,95.0,8640,4.5
151,1.0,,,,,49.0,,,,,0,note_off,,95.0,49.0,95.0,8640,4.5
152,1.0,,,,,51.0,,,,,0,note_on,,95.0,51.0,95.0,8640,4.5
153,0.0,,,,,39.0,,,,,0,note_on,,95.0,39.0,95.0,8640,4.5
154,1.0,,,,,51.0,,,,,480,note_off,,95.0,51.0,95.0,9120,4.75
155,0.0,,,,,39.0,,,,,0,note_off,,95.0,39.0,95.0,9120,4.75
156,0.0,,,,,39.0,,,,,0,note_on,,95.0,39.0,95.0,9120,4.75
157,0.0,,,,,39.0,,,,,240,note_off,,95.0,39.0,95.0,9360,4.875
158,0.0,,,,,39.0,,,,,0,note_on,,95.0,39.0,95.0,9360,4.875
159,0.0,,,,,39.0,,,,,240,note_off,,95.0,39.0,95.0,9600,5.0
160,0.0,,,,,39.0,,,,,240,note_on,,95.0,39.0,95.0,9840,5.125
161,0.0,,,,,39.0,,,,,240,note_off,,95.0,39.0,95.0,10080,5.25
162,0.0,,,,,59.0,,,,,0,note_on,,95.0,59.0,95.0,10080,5.25
163,0.0,,,,,52.0,,,,,0,note_on,,95.0,52.0,95.0,10080,5.25
164,0.0,,,,,59.0,,,,,480,note_off,,95.0,59.0,95.0,10560,5.5
165,0.0,,,,,52.0,,,,,0,note_off,,95.0,52.0,95.0,10560,5.5
166,0.0,,,,,39.0,,,,,0,note_on,,95.0,39.0,95.0,10560,5.5
167,0.0,,,,,39.0,,,,,240,note_off,,95.0,39.0,95.0,10800,5.625
168,0.0,,,,,39.0,,,,,0,note_on,,95.0,39.0,95.0,10800,5.625
169,0.0,,,,,39.0,,,,,240,note_off,,95.0,39.0,95.0,11040,5.75
170,0.0,,,,,57.0,,,,,0,note_on,,95.0,57.0,95.0,11040,5.75
171,0.0,,,,,50.0,,,,,0,note_on,,95.0,50.0,95.0,11040,5.75
172,0.0,,,,,57.0,,,,,480,note_off,,95.0,57.0,95.0,11520,6.0
173,0.0,,,,,50.0,,,,,0,note_off,,95.0,50.0,95.0,11520,6.0
174,0.0,,,,,39.0,,,,,0,note_on,,95.0,39.0,95.0,11520,6.0
175,0.0,,,,,39.0,,,,,240,note_off,,95.0,39.0,95.0,11760,6.125
176,0.0,,,,,39.0,,,,,0,note_on,,95.0,39.0,95.0,11760,6.125
177,0.0,,,,,39.0,,,,,240,note_off,,95.0,39.0,95.0,12000,6.25
178,0.0,,,,,39.0,,,,,240,note_on,,95.0,39.0,95.0,12240,6.375
179,1.0,,,,,49.0,,,,,180,note_on,,95.0,49.0,95.0,12420,6.46875
180,0.0,,,,,39.0,,,,,60,note_off,,95.0,39.0,95.0,12480,6.5
181,1.0,,,,,49.0,,,,,0,note_off,,95.0,49.0,95.0,12480,6.5
182,1.0,,,,,51.0,,,,,0,note_on,,95.0,51.0,95.0,12480,6.5
183,0.0,,,,,39.0,,,,,0,note_on,,95.0,39.0,95.0,12480,6.5
184,1.0,,,,,51.0,,,,,480,note_off,,95.0,51.0,95.0,12960,6.75
185,0.0,,,,,39.0,,,,,0,note_off,,95.0,39.0,95.0,12960,6.75
186,0.0,,,,,39.0,,,,,0,note_on,,95.0,39.0,95.0,12960,6.75
187,0.0,,,,,39.0,,,,,240,note_off,,95.0,39.0,95.0,13200,6.875
188,0.0,,,,,39.0,,,,,0,note_on,,95.0,39.0,95.0,13200,6.875
189,0.0,,,,,39.0,,,,,240,note_off,,95.0,39.0,95.0,13440,7.0
190,0.0,,,,,39.0,,,,,240,note_on,,95.0,39.0,95.0,13680,7.125
191,0.0,,,,,39.0,,,,,240,note_off,,95.0,39.0,95.0,13920,7.25
192,0.0,,,,,49.0,,,,,0,note_on,,95.0,49.0,95.0,13920,7.25
193,0.0,,,,,42.0,,,,,0,note_on,,95.0,42.0,95.0,13920,7.25
194,0.0,,,,,49.0,,,,,480,note_off,,95.0,49.0,95.0,14400,7.5
195,0.0,,,,,42.0,,,,,0,note_off,,95.0,42.0,95.0,14400,7.5
196,0.0,,,,,39.0,,,,,0,note_on,,95.0,39.0,95.0,14400,7.5
197,0.0,,,,,39.0,,,,,240,note_off,,95.0,39.0,95.0,14640,7.625
198,0.0,,,,,39.0,,,,,0,note_on,,95.0,39.0,95.0,14640,7.625
199,0.0,,,,,39.0,,,,,240,note_off,,95.0,39.0,95.0,14880,7.75
200,0.0,,,,,48.0,,,,,0,note_on,,95.0,48.0,95.0,14880,7.75
201,0.0,,,,,41.0,,,,,0,note_on,,95.0,41.0,95.0,14880,7.75
202,0.0,,,,,48.0,,,,,480,note_off,,95.0,48.0,95.0,15360,8.0
203,0.0,,,,,41.0,,,,,0,note_off,,95.0,41.0,95.0,15360,8.0
204,0.0,,,,,39.0,,,,,0,note_on,,95.0,39.0,95.0,15360,8.0
205,0.0,,,,,39.0,,,,,240,note_off,,95.0,39.0,95.0,15600,8.125
206,0.0,,,,,39.0,,,,,0,note_on,,95.0,39.0,95.0,15600,8.125
207,0.0,,,,,39.0,,,,,240,note_off,,95.0,39.0,95.0,15840,8.25
208,0.0,,,,,39.0,,,,,240,note_on,,95.0,39.0,95.0,16080,8.375
209,1.0,,,,,49.0,,,,,180,note_on,,95.0,49.0,95.0,16260,8.46875
210,0.0,,,,,39.0,,,,,60,note_off,,95.0,39.0,95.0,16320,8.5
211,1.0,,,,,49.0,,,,,0,note_off,,95.0,49.0,95.0,16320,8.5
212,1.0,,,,,51.0,,,,,0,note_on,,95.0,51.0,95.0,16320,8.5
213,0.0,,,,,39.0,,,,,0,note_on,,95.0,39.0,95.0,16320,8.5
214,1.0,,,,,51.0,,,,,480,note_off,,95.0,51.0,95.0,16800,8.75
215,0.0,,,,,39.0,,,,,0,note_off,,95.0,39.0,95.0,16800,8.75
216,0.0,,,,,39.0,,,,,0,note_on,,95.0,39.0,95.0,16800,8.75
217,0.0,,,,,39.0,,,,,240,note_off,,95.0,39.0,95.0,17040,8.875
218,0.0,,,,,39.0,,,,,0,note_on,,95.0,39.0,95.0,17040,8.875
219,0.0,,,,,39.0,,,,,240,note_off,,95.0,39.0,95.0,17280,9.0
220,0.0,,,,,39.0,,,,,240,note_on,,95.0,39.0,95.0,17520,9.125
221,0.0,,,,,39.0,,,,,240,note_off,,95.0,39.0,95.0,17760,9.25
222,0.0,,,,,59.0,,,,,0,note_on,,95.0,59.0,95.0,17760,9.25
223,0.0,,,,,52.0,,,,,0,note_on,,95.0,52.0,95.0,17760,9.25
224,0.0,,,,,59.0,,,,,480,note_off,,95.0,59.0,95.0,18240,9.5
225,0.0,,,,,52.0,,,,,0,note_off,,95.0,52.0,95.0,18240,9.5
226,0.0,,,,,39.0,,,,,0,note_on,,95.0,39.0,95.0,18240,9.5
227,0.0,,,,,39.0,,,,,240,note_off,,95.0,39.0,95.0,18480,9.625
228,0.0,,,,,39.0,,,,,0,note_on,,95.0,39.0,95.0,18480,9.625
229,0.0,,,,,39.0,,,,,240,note_off,,95.0,39.0,95.0,18720,9.75
230,0.0,,,,,57.0,,,,,0,note_on,,95.0,57.0,95.0,18720,9.75
231,0.0,,,,,50.0,,,,,0,note_on,,95.0,50.0,95.0,18720,9.75
232,0.0,,,,,57.0,,,,,480,note_off,,95.0,57.0,95.0,19200,10.0
233,0.0,,,,,50.0,,,,,0,note_off,,95.0,50.0,95.0,19200,10.0
234,0.0,,,,,39.0,,,,,0,note_on,,95.0,39.0,95.0,19200,10.0
235,0.0,,,,,39.0,,,,,240,note_off,,95.0,39.0,95.0,19440,10.125
236,0.0,,,,,39.0,,,,,0,note_on,,95.0,39.0,95.0,19440,10.125
237,0.0,,,,,39.0,,,,,240,note_off,,95.0,39.0,95.0,19680,10.25
238,0.0,,,,,39.0,,,,,240,note_on,,95.0,39.0,95.0,19920,10.375
239,1.0,,,,,49.0,,,,,180,note_on,,95.0,49.0,95.0,20100,10.46875
240,0.0,,,,,39.0,,,,,60,note_off,,95.0,39.0,95.0,20160,10.5
241,1.0,,,,,49.0,,,,,0,note_off,,95.0,49.0,95.0,20160,10.5
242,1.0,,,,,51.0,,,,,0,note_on,,95.0,51.0,95.0,20160,10.5
243,0.0,,,,,39.0,,,,,0,note_on,,95.0,39.0,95.0,20160,10.5
244,1.0,,,,,51.0,,,,,480,note_off,,95.0,51.0,95.0,20640,10.75
245,0.0,,,,,39.0,,,,,0,note_off,,95.0,39.0,95.0,20640,10.75
246,0.0,,,,,39.0,,,,,0,note_on,,95.0,39.0,95.0,20640,10.75
247,0.0,,,,,39.0,,,,,240,note_off,,95.0,39.0,95.0,20880,10.875
248,0.0,,,,,39.0,,,,,0,note_on,,95.0,39.0,95.0,20880,10.875
249,0.0,,,,,39.0,,,,,240,note_off,,95.0,39.0,95.0,21120,11.0
250,0.0,,,,,39.0,,,,,240,note_on,,95.0,39.0,95.0,21360,11.125
251,0.0,,,,,39.0,,,,,240,note_off,,95.0,39.0,95.0,21600,11.25
252,0.0,,,,,61.0,,,,,0,note_on,,95.0,61.0,95.0,21600,11.25
253,0.0,,,,,54.0,,,,,0,note_on,,95.0,54.0,95.0,21600,11.25
254,0.0,,,,,61.0,,,,,480,note_off,,95.0,61.0,95.0,22080,11.5
255,0.0,,,,,54.0,,,,,0,note_off,,95.0,54.0,95.0,22080,11.5
256,0.0,,,,,39.0,,,,,0,note_on,,95.0,39.0,95.0,22080,11.5
257,0.0,,,,,39.0,,,,,240,note_off,,95.0,39.0,95.0,22320,11.625
258,0.0,,,,,39.0,,,,,0,note_on,,95.0,39.0,95.0,22320,11.625
259,0.0,,,,,39.0,,,,,240,note_off,,95.0,39.0,95.0,22560,11.75
260,0.0,,,,,60.0,,,,,0,note_on,,95.0,60.0,95.0,22560,11.75
261,0.0,,,,,53.0,,,,,0,note_on,,95.0,53.0,95.0,22560,11.75
262,0.0,,,,,60.0,,,,,480,note_off,,95.0,60.0,95.0,23040,12.0
263,0.0,,,,,53.0,,,,,0,note_off,,95.0,53.0,95.0,23040,12.0
264,0.0,,,,,39.0,,,,,0,note_on,,95.0,39.0,95.0,23040,12.0
265,0.0,,,,,39.0,,,,,240,note_off,,95.0,39.0,95.0,23280,12.125
266,0.0,,,,,39.0,,,,,0,note_on,,95.0,39.0,95.0,23280,12.125
267,0.0,,,,,39.0,,,,,240,note_off,,95.0,39.0,95.0,23520,12.25
268,0.0,,,,,39.0,,,,,240,note_on,,95.0,39.0,95.0,23760,12.375
269,1.0,,,,,49.0,,,,,180,note_on,,95.0,49.0,95.0,23940,12.46875
270,0.0,,,,,39.0,,,,,60,note_off,,95.0,39.0,95.0,24000,12.5
271,1.0,,,,,49.0,,,,,0,note_off,,95.0,49.0,95.0,24000,12.5
272,1.0,,,,,51.0,,,,,0,note_on,,95.0,51.0,95.0,24000,12.5
273,0.0,,,,,39.0,,,,,0,note_on,,95.0,39.0,95.0,24000,12.5
274,1.0,,,,,51.0,,,,,480,note_off,,95.0,51.0,95.0,24480,12.75
275,0.0,,,,,39.0,,,,,0,note_off,,95.0,39.0,95.0,24480,12.75
276,0.0,,,,,39.0,,,,,0,note_on,,95.0,39.0,95.0,24480,12.75
277,0.0,,,,,39.0,,,,,240,note_off,,95.0,39.0,95.0,24720,12.875
278,0.0,,,,,39.0,,,,,0,note_on,,95.0,39.0,95.0,24720,12.875
279,0.0,,,,,39.0,,,,,240,note_off,,95.0,39.0,95.0,24960,13.0
280,0.0,,,,,39.0,,,,,240,note_on,,95.0,39.0,95.0,25200,13.125
281,0.0,,,,,39.0,,,,,240,note_off,,95.0,39.0,95.0,25440,13.25
282,0.0,,,,,59.0,,,,,0,note_on,,95.0,59.0,95.0,25440,13.25
283,0.0,,,,,52.0,,,,,0,note_on,,95.0,52.0,95.0,25440,13.25
284,0.0,,,,,59.0,,,,,480,note_off,,95.0,59.0,95.0,25920,13.5
285,0.0,,,,,52.0,,,,,0,note_off,,95.0,52.0,95.0,25920,13.5
286,0.0,,,,,39.0,,,,,0,note_on,,95.0,39.0,95.0,25920,13.5
287,0.0,,,,,39.0,,,,,240,note_off,,95.0,39.0,95.0,26160,13.625
288,0.0,,,,,39.0,,,,,0,note_on,,95.0,39.0,95.0,26160,13.625
289,0.0,,,,,39.0,,,,,240,note_off,,95.0,39.0,95.0,26400,13.75
290,0.0,,,,,57.0,,,,,0,note_on,,95.0,57.0,95.0,26400,13.75
291,0.0,,,,,50.0,,,,,0,note_on,,95.0,50.0,95.0,26400,13.75
292,0.0,,,,,57.0,,,,,480,note_off,,95.0,57.0,95.0,26880,14.0
293,0.0,,,,,50.0,,,,,0,note_off,,95.0,50.0,95.0,26880,14.0
294,0.0,,,,,39.0,,,,,0,note_on,,95.0,39.0,95.0,26880,14.0
295,0.0,,,,,39.0,,,,,240,note_off,,95.0,39.0,95.0,27120,14.125
296,0.0,,,,,39.0,,,,,0,note_on,,95.0,39.0,95.0,27120,14.125
297,0.0,,,,,39.0,,,,,240,note_off,,95.0,39.0,95.0,27360,14.25
298,0.0,,,,,39.0,,,,,240,note_on,,95.0,39.0,95.0,27600,14.375
299,1.0,,,,,49.0,,,,,180,note_on,,95.0,49.0,95.0,27780,14.46875
300,0.0,,,,,39.0,,,,,60,note_off,,95.0,39.0,95.0,27840,14.5
301,1.0,,,,,49.0,,,,,0,note_off,,95.0,49.0,95.0,27840,14.5
302,1.0,,,,,51.0,,,,,0,note_on,,95.0,51.0,95.0,27840,14.5
303,0.0,,,,,39.0,,,,,0,note_on,,95.0,39.0,95.0,27840,14.5
304,1.0,,,,,51.0,,,,,480,note_off,,95.0,51.0,95.0,28320,14.75
305,0.0,,,,,39.0,,,,,0,note_off,,95.0,39.0,95.0,28320,14.75
306,0.0,,,,,39.0,,,,,0,note_on,,95.0,39.0,95.0,28320,14.75
307,0.0,,,,,39.0,,,,,240,note_off,,95.0,39.0,95.0,28560,14.875
308,0.0,,,,,39.0,,,,,0,note_on,,95.0,39.0,95.0,28560,14.875
309,0.0,,,,,39.0,,,,,240,note_off,,95.0,39.0,95.0,28800,15.0
310,0.0,,,,,39.0,,,,,240,note_on,,95.0,39.0,95.0,29040,15.125
311,0.0,,,,,39.0,,,,,240,note_off,,95.0,39.0,95.0,29280,15.25
312,0.0,,,,,49.0,,,,,0,note_on,,95.0,49.0,95.0,29280,15.25
313,0.0,,,,,42.0,,,,,0,note_on,,95.0,42.0,95.0,29280,15.25
314,0.0,,,,,49.0,,,,,480,note_off,,95.0,49.0,95.0,29760,15.5
315,0.0,,,,,42.0,,,,,0,note_off,,95.0,42.0,95.0,29760,15.5
316,0.0,,,,,39.0,,,,,0,note_on,,95.0,39.0,95.0,29760,15.5
317,0.0,,,,,39.0,,,,,240,note_off,,95.0,39.0,95.0,30000,15.625
318,0.0,,,,,39.0,,,,,0,note_on,,95.0,39.0,95.0,30000,15.625
319,0.0,,,,,39.0,,,,,240,note_off,,95.0,39.0,95.0,30240,15.75
320,0.0,,,,,48.0,,,,,0,note_on,,95.0,48.0,95.0,30240,15.75
321,0.0,,,,,41.0,,,,,0,note_on,,95.0,41.0,95.0,30240,15.75
322,0.0,,,,,48.0,,,,,480,note_off,,95.0,48.0,95.0,30720,16.0
323,0.0,,,,,41.0,,,,,0,note_off,,95.0,41.0,95.0,30720,16.0
324,0.0,,,,,39.0,,,,,0,note_on,,95.0,39.0,95.0,30720,16.0
325,0.0,,,,,39.0,,,,,240,note_off,,95.0,39.0,95.0,30960,16.125
326,0.0,,,,,39.0,,,,,0,note_on,,95.0,39.0,95.0,30960,16.125
327,0.0,,,,,39.0,,,,,240,note_off,,95.0,39.0,95.0,31200,16.25
328,0.0,,,,,39.0,,,,,240,note_on,,95.0,39.0,95.0,31440,16.375
329,1.0,,,,,49.0,,,,,180,note_on,,95.0,49.0,95.0,31620,16.46875
330,0.0,,,,,39.0,,,,,60,note_off,,95.0,39.0,95.0,31680,16.5
331,1.0,,,,,49.0,,,,,0,note_off,,95.0,49.0,95.0,31680,16.5
332,1.0,,,,,51.0,,,,,0,note_on,,95.0,51.0,95.0,31680,16.5
333,0.0,,,,,39.0,,,,,0,note_on,,95.0,39.0,95.0,31680,16.5
334,1.0,,,,,51.0,,,,,480,note_off,,95.0,51.0,95.0,32160,16.75
335,0.0,,,,,39.0,,,,,0,note_off,,95.0,39.0,95.0,32160,16.75
336,0.0,,,,,39.0,,,,,0,note_on,,95.0,39.0,95.0,32160,16.75
337,0.0,,,,,39.0,,,,,240,note_off,,95.0,39.0,95.0,32400,16.875
338,0.0,,,,,39.0,,,,,0,note_on,,95.0,39.0,95.0,32400,16.875
339,0.0,,,,,39.0,,,,,240,note_off,,95.0,39.0,95.0,32640,17.0
340,0.0,,,,,39.0,,,,,240,note_on,,95.0,39.0,95.0,32880,17.125
341,0.0,,,,,39.0,,,,,240,note_off,,95.0,39.0,95.0,33120,17.25
342,0.0,,,,,59.0,,,,,0,note_on,,95.0,59.0,95.0,33120,17.25
343,0.0,,,,,52.0,,,,,0,note_on,,95.0,52.0,95.0,33120,17.25
344,0.0,,,,,59.0,,,,,480,note_off,,95.0,59.0,95.0,33600,17.5
345,0.0,,,,,52.0,,,,,0,note_off,,95.0,52.0,95.0,33600,17.5
346,0.0,,,,,39.0,,,,,0,note_on,,95.0,39.0,95.0,33600,17.5
347,0.0,,,,,39.0,,,,,240,note_off,,95.0,39.0,95.0,33840,17.625
348,0.0,,,,,39.0,,,,,0,note_on,,95.0,39.0,95.0,33840,17.625
349,0.0,,,,,39.0,,,,,240,note_off,,95.0,39.0,95.0,34080,17.75
350,0.0,,,,,57.0,,,,,0,note_on,,95.0,57.0,95.0,34080,17.75
351,0.0,,,,,50.0,,,,,0,note_on,,95.0,50.0,95.0,34080,17.75
352,0.0,,,,,57.0,,,,,480,note_off,,95.0,57.0,95.0,34560,18.0
353,0.0,,,,,50.0,,,,,0,note_off,,95.0,50.0,95.0,34560,18.0
354,0.0,,,,,39.0,,,,,0,note_on,,95.0,39.0,95.0,34560,18.0
355,0.0,,,,,39.0,,,,,240,note_off,,95.0,39.0,95.0,34800,18.125
356,0.0,,,,,39.0,,,,,0,note_on,,95.0,39.0,95.0,34800,18.125
357,0.0,,,,,39.0,,,,,240,note_off,,95.0,39.0,95.0,35040,18.25
358,0.0,,,,,39.0,,,,,240,note_on,,95.0,39.0,95.0,35280,18.375
359,1.0,,,,,49.0,,,,,180,note_on,,95.0,49.0,95.0,35460,18.46875
360,0.0,,,,,39.0,,,,,60,note_off,,95.0,39.0,95.0,35520,18.5
361,1.0,,,,,49.0,,,,,0,note_off,,95.0,49.0,95.0,35520,18.5
362,1.0,,,,,51.0,,,,,0,note_on,,95.0,51.0,95.0,35520,18.5
363,0.0,,,,,39.0,,,,,0,note_on,,95.0,39.0,95.0,35520,18.5
364,1.0,,,,,51.0,,,,,480,note_off,,95.0,51.0,95.0,36000,18.75
365,0.0,,,,,39.0,,,,,0,note_off,,95.0,39.0,95.0,36000,18.75
366,0.0,,,,,39.0,,,,,0,note_on,,95.0,39.0,95.0,36000,18.75
367,0.0,,,,,39.0,,,,,240,note_off,,95.0,39.0,95.0,36240,18.875
368,0.0,,,,,39.0,,,,,0,note_on,,95.0,39.0,95.0,36240,18.875
369,0.0,,,,,39.0,,,,,240,note_off,,95.0,39.0,95.0,36480,19.0
370,0.0,,,,,39.0,,,,,240,note_on,,95.0,39.0,95.0,36720,19.125
371,0.0,,,,,39.0,,,,,240,note_off,,95.0,39.0,95.0,36960,19.25
372,0.0,,,,,61.0,,,,,0,note_on,,95.0,61.0,95.0,36960,19.25
373,0.0,,,,,54.0,,,,,0,note_on,,95.0,54.0,95.0,36960,19.25
374,0.0,,,,,61.0,,,,,480,note_off,,95.0,61.0,95.0,37440,19.5
375,0.0,,,,,54.0,,,,,0,note_off,,95.0,54.0,95.0,37440,19.5
376,0.0,,,,,39.0,,,,,0,note_on,,95.0,39.0,95.0,37440,19.5
377,0.0,,,,,39.0,,,,,240,note_off,,95.0,39.0,95.0,37680,19.625
378,0.0,,,,,39.0,,,,,0,note_on,,95.0,39.0,95.0,37680,19.625
379,0.0,,,,,39.0,,,,,240,note_off,,95.0,39.0,95.0,37920,19.75
380,0.0,,,,,60.0,,,,,0,note_on,,95.0,60.0,95.0,37920,19.75
381,0.0,,,,,53.0,,,,,0,note_on,,95.0,53.0,95.0,37920,19.75
382,0.0,,,,,60.0,,,,,480,note_off,,95.0,60.0,95.0,38400,20.0
383,0.0,,,,,53.0,,,,,0,note_off,,95.0,53.0,95.0,38400,20.0
384,0.0,,,,,39.0,,,,,0,note_on,,95.0,39.0,95.0,38400,20.0
385,0.0,,,,,39.0,,,,,240,note_off,,95.0,39.0,95.0,38640,20.125
386,0.0,,,,,39.0,,,,,0,note_on,,95.0,39.0,95.0,38640,20.125
387,0.0,,,,,39.0,,,,,240,note_off,,95.0,39.0,95.0,38880,20.25
388,0.0,,,,,39.0,,,,,240,note_on,,95.0,39.0,95.0,39120,20.375
389,1.0,,,,,49.0,,,,,180,note_on,,95.0,49.0,95.0,39300,20.46875
390,0.0,,,,,39.0,,,,,60,note_off,,95.0,39.0,95.0,39360,20.5
391,1.0,,,,,49.0,,,,,0,note_off,,95.0,49.0,95.0,39360,20.5
392,1.0,,,,,51.0,,,,,0,note_on,,95.0,51.0,95.0,39360,20.5
393,0.0,,,,,39.0,,,,,0,note_on,,95.0,39.0,95.0,39360,20.5
394,1.0,,,,,51.0,,,,,480,note_off,,95.0,51.0,95.0,39840,20.75
395,0.0,,,,,39.0,,,,,0,note_off,,95.0,39.0,95.0,39840,20.75
396,0.0,,,,,39.0,,,,,0,note_on,,95.0,39.0,95.0,39840,20.75
397,0.0,,,,,39.0,,,,,240,note_off,,95.0,39.0,95.0,40080,20.875
398,0.0,,,,,39.0,,,,,0,note_on,,95.0,39.0,95.0,40080,20.875
399,0.0,,,,,39.0,,,,,240,note_off,,95.0,39.0,95.0,40320,21.0
400,0.0,,,,,39.0,,,,,240,note_on,,95.0,39.0,95.0,40560,21.125
401,0.0,,,,,39.0,,,,,240,note_off,,95.0,39.0,95.0,40800,21.25
402,0.0,,,,,59.0,,,,,0,note_on,,95.0,59.0,95.0,40800,21.25
403,0.0,,,,,52.0,,,,,0,note_on,,95.0,52.0,95.0,40800,21.25
404,0.0,,,,,59.0,,,,,480,note_off,,95.0,59.0,95.0,41280,21.5
405,0.0,,,,,52.0,,,,,0,note_off,,95.0,52.0,95.0,41280,21.5
406,0.0,,,,,39.0,,,,,0,note_on,,95.0,39.0,95.0,41280,21.5
407,0.0,,,,,39.0,,,,,240,note_off,,95.0,39.0,95.0,41520,21.625
408,0.0,,,,,39.0,,,,,0,note_on,,95.0,39.0,95.0,41520,21.625
409,0.0,,,,,39.0,,,,,240,note_off,,95.0,39.0,95.0,41760,21.75
410,0.0,,,,,57.0,,,,,0,note_on,,95.0,57.0,95.0,41760,21.75
411,0.0,,,,,50.0,,,,,0,note_on,,95.0,50.0,95.0,41760,21.75
412,0.0,,,,,57.0,,,,,480,note_off,,95.0,57.0,95.0,42240,22.0
413,0.0,,,,,50.0,,,,,0,note_off,,95.0,50.0,95.0,42240,22.0
414,0.0,,,,,39.0,,,,,0,note_on,,95.0,39.0,95.0,42240,22.0
415,0.0,,,,,39.0,,,,,240,note_off,,95.0,39.0,95.0,42480,22.125
416,0.0,,,,,39.0,,,,,0,note_on,,95.0,39.0,95.0,42480,22.125
417,0.0,,,,,39.0,,,,,240,note_off,,95.0,39.0,95.0,42720,22.25
418,0.0,,,,,39.0,,,,,240,note_on,,95.0,39.0,95.0,42960,22.375
419,1.0,,,,,49.0,,,,,180,note_on,,95.0,49.0,95.0,43140,22.46875
420,0.0,,,,,39.0,,,,,60,note_off,,95.0,39.0,95.0,43200,22.5
421,1.0,,,,,49.0,,,,,0,note_off,,95.0,49.0,95.0,43200,22.5
422,1.0,,,,,51.0,,,,,0,note_on,,95.0,51.0,95.0,43200,22.5
423,0.0,,,,,39.0,,,,,0,note_on,,95.0,39.0,95.0,43200,22.5
424,1.0,,,,,51.0,,,,,480,note_off,,95.0,51.0,95.0,43680,22.75
425,0.0,,,,,39.0,,,,,0,note_off,,95.0,39.0,95.0,43680,22.75
426,0.0,,,,,39.0,,,,,0,note_on,,95.0,39.0,95.0,43680,22.75
427,0.0,,,,,39.0,,,,,240,note_off,,95.0,39.0,95.0,43920,22.875
428,0.0,,,,,39.0,,,,,0,note_on,,95.0,39.0,95.0,43920,22.875
429,0.0,,,,,39.0,,,,,240,note_off,,95.0,39.0,95.0,44160,23.0
430,0.0,,,,,39.0,,,,,240,note_on,,95.0,39.0,95.0,44400,23.125
431,0.0,,,,,39.0,,,,,240,note_off,,95.0,39.0,95.0,44640,23.25
432,0.0,,,,,49.0,,,,,0,note_on,,95.0,49.0,95.0,44640,23.25
433,0.0,,,,,42.0,,,,,0,note_on,,95.0,42.0,95.0,44640,23.25
434,0.0,,,,,49.0,,,,,480,note_off,,95.0,49.0,95.0,45120,23.5
435,0.0,,,,,42.0,,,,,0,note_off,,95.0,42.0,95.0,45120,23.5
436,0.0,,,,,39.0,,,,,0,note_on,,95.0,39.0,95.0,45120,23.5
437,0.0,,,,,39.0,,,,,240,note_off,,95.0,39.0,95.0,45360,23.625
438,0.0,,,,,39.0,,,,,0,note_on,,95.0,39.0,95.0,45360,23.625
439,0.0,,,,,39.0,,,,,240,note_off,,95.0,39.0,95.0,45600,23.75
440,0.0,,,,,48.0,,,,,0,note_on,,95.0,48.0,95.0,45600,23.75
441,0.0,,,,,41.0,,,,,0,note_on,,95.0,41.0,95.0,45600,23.75
442,0.0,,,,,48.0,,,,,480,note_off,,95.0,48.0,95.0,46080,24.0
443,0.0,,,,,41.0,,,,,0,note_off,,95.0,41.0,95.0,46080,24.0
444,0.0,,,,,39.0,,,,,0,note_on,,95.0,39.0,95.0,46080,24.0
445,0.0,,,,,39.0,,,,,240,note_off,,95.0,39.0,95.0,46320,24.125
446,0.0,,,,,39.0,,,,,0,note_on,,95.0,39.0,95.0,46320,24.125
447,0.0,,,,,39.0,,,,,240,note_off,,95.0,39.0,95.0,46560,24.25
448,0.0,,,,,39.0,,,,,240,note_on,,95.0,39.0,95.0,46800,24.375
449,1.0,,,,,49.0,,,,,180,note_on,,95.0,49.0,95.0,46980,24.46875
450,0.0,,,,,39.0,,,,,60,note_off,,95.0,39.0,95.0,47040,24.5
451,1.0,,,,,49.0,,,,,0,note_off,,95.0,49.0,95.0,47040,24.5
452,1.0,,,,,51.0,,,,,0,note_on,,95.0,51.0,95.0,47040,24.5
453,0.0,,,,,39.0,,,,,0,note_on,,95.0,39.0,95.0,47040,24.5
454,1.0,,,,,51.0,,,,,480,note_off,,95.0,51.0,95.0,47520,24.75
455,0.0,,,,,39.0,,,,,0,note_off,,95.0,39.0,95.0,47520,24.75
456,0.0,,,,,39.0,,,,,0,note_on,,95.0,39.0,95.0,47520,24.75
457,0.0,,,,,39.0,,,,,240,note_off,,95.0,39.0,95.0,47760,24.875
458,0.0,,,,,39.0,,,,,0,note_on,,95.0,39.0,95.0,47760,24.875
459,0.0,,,,,39.0,,,,,240,note_off,,95.0,39.0,95.0,48000,25.0
460,0.0,,,,,39.0,,,,,240,note_on,,95.0,39.0,95.0,48240,25.125
461,0.0,,,,,39.0,,,,,240,note_off,,95.0,39.0,95.0,48480,25.25
462,0.0,,,,,59.0,,,,,0,note_on,,95.0,59.0,95.0,48480,25.25
463,0.0,,,,,52.0,,,,,0,note_on,,95.0,52.0,95.0,48480,25.25
464,0.0,,,,,59.0,,,,,480,note_off,,95.0,59.0,95.0,48960,25.5
465,0.0,,,,,52.0,,,,,0,note_off,,95.0,52.0,95.0,48960,25.5
466,0.0,,,,,39.0,,,,,0,note_on,,95.0,39.0,95.0,48960,25.5
467,0.0,,,,,39.0,,,,,240,note_off,,95.0,39.0,95.0,49200,25.625
468,0.0,,,,,39.0,,,,,0,note_on,,95.0,39.0,95.0,49200,25.625
469,0.0,,,,,39.0,,,,,240,note_off,,95.0,39.0,95.0,49440,25.75
470,0.0,,,,,57.0,,,,,0,note_on,,95.0,57.0,95.0,49440,25.75
471,0.0,,,,,50.0,,,,,0,note_on,,95.0,50.0,95.0,49440,25.75
472,0.0,,,,,57.0,,,,,480,note_off,,95.0,57.0,95.0,49920,26.0
473,0.0,,,,,50.0,,,,,0,note_off,,95.0,50.0,95.0,49920,26.0
474,0.0,,,,,39.0,,,,,0,note_on,,95.0,39.0,95.0,49920,26.0
475,0.0,,,,,39.0,,,,,240,note_off,,95.0,39.0,95.0,50160,26.125
476,0.0,,,,,39.0,,,,,0,note_on,,95.0,39.0,95.0,50160,26.125
477,0.0,,,,,39.0,,,,,240,note_off,,95.0,39.0,95.0,50400,26.25
478,0.0,,,,,39.0,,,,,240,note_on,,95.0,39.0,95.0,50640,26.375
479,1.0,,,,,49.0,,,,,180,note_on,,95.0,49.0,95.0,50820,26.46875
480,0.0,,,,,39.0,,,,,60,note_off,,95.0,39.0,95.0,50880,26.5
481,1.0,,,,,49.0,,,,,0,note_off,,95.0,49.0,95.0,50880,26.5
482,1.0,,,,,51.0,,,,,0,note_on,,95.0,51.0,95.0,50880,26.5
483,0.0,,,,,39.0,,,,,0,note_on,,95.0,39.0,95.0,50880,26.5
484,1.0,,,,,51.0,,,,,480,note_off,,95.0,51.0,95.0,51360,26.75
485,0.0,,,,,39.0,,,,,0,note_off,,95.0,39.0,95.0,51360,26.75
486,0.0,,,,,39.0,,,,,0,note_on,,95.0,39.0,95.0,51360,26.75
487,0.0,,,,,39.0,,,,,240,note_off,,95.0,39.0,95.0,51600,26.875
488,0.0,,,,,39.0,,,,,0,note_on,,95.0,39.0,95.0,51600,26.875
489,0.0,,,,,39.0,,,,,240,note_off,,95.0,39.0,95.0,51840,27.0
490,0.0,,,,,39.0,,,,,240,note_on,,95.0,39.0,95.0,52080,27.125
491,0.0,,,,,39.0,,,,,240,note_off,,95.0,39.0,95.0,52320,27.25
492,0.0,,,,,61.0,,,,,0,note_on,,95.0,61.0,95.0,52320,27.25
493,0.0,,,,,54.0,,,,,0,note_on,,95.0,54.0,95.0,52320,27.25
494,0.0,,,,,61.0,,,,,480,note_off,,95.0,61.0,95.0,52800,27.5
495,0.0,,,,,54.0,,,,,0,note_off,,95.0,54.0,95.0,52800,27.5
496,0.0,,,,,39.0,,,,,0,note_on,,95.0,39.0,95.0,52800,27.5
497,0.0,,,,,39.0,,,,,240,note_off,,95.0,39.0,95.0,53040,27.625
498,0.0,,,,,39.0,,,,,0,note_on,,95.0,39.0,95.0,53040,27.625
499,0.0,,,,,39.0,,,,,240,note_off,,95.0,39.0,95.0,53280,27.75
500,0.0,,,,,60.0,,,,,0,note_on,,95.0,60.0,95.0,53280,27.75
501,0.0,,,,,53.0,,,,,0,note_on,,95.0,53.0,95.0,53280,27.75
502,0.0,,,,,60.0,,,,,480,note_off,,95.0,60.0,95.0,53760,28.0
503,0.0,,,,,53.0,,,,,0,note_off,,95.0,53.0,95.0,53760,28.0
504,0.0,,,,,39.0,,,,,0,note_on,,95.0,39.0,95.0,53760,28.0
505,0.0,,,,,39.0,,,,,240,note_off,,95.0,39.0,95.0,54000,28.125
506,0.0,,,,,39.0,,,,,0,note_on,,95.0,39.0,95.0,54000,28.125
507,0.0,,,,,39.0,,,,,240,note_off,,95.0,39.0,95.0,54240,28.25
508,0.0,,,,,39.0,,,,,240,note_on,,95.0,39.0,95.0,54480,28.375
509,1.0,,,,,49.0,,,,,180,note_on,,95.0,49.0,95.0,54660,28.46875
510,0.0,,,,,39.0,,,,,60,note_off,,95.0,39.0,95.0,54720,28.5
511,1.0,,,,,49.0,,,,,0,note_off,,95.0,49.0,95.0,54720,28.5
512,1.0,,,,,51.0,,,,,0,note_on,,95.0,51.0,95.0,54720,28.5
513,0.0,,,,,39.0,,,,,0,note_on,,95.0,39.0,95.0,54720,28.5
514,1.0,,,,,51.0,,,,,480,note_off,,95.0,51.0,95.0,55200,28.75
515,0.0,,,,,39.0,,,,,0,note_off,,95.0,39.0,95.0,55200,28.75
516,0.0,,,,,39.0,,,,,0,note_on,,95.0,39.0,95.0,55200,28.75
517,0.0,,,,,39.0,,,,,240,note_off,,95.0,39.0,95.0,55440,28.875
518,0.0,,,,,39.0,,,,,0,note_on,,95.0,39.0,95.0,55440,28.875
519,0.0,,,,,39.0,,,,,240,note_off,,95.0,39.0,95.0,55680,29.0
520,0.0,,,,,39.0,,,,,240,note_on,,95.0,39.0,95.0,55920,29.125
521,0.0,,,,,39.0,,,,,240,note_off,,95.0,39.0,95.0,56160,29.25
522,0.0,,,,,59.0,,,,,0,note_on,,95.0,59.0,95.0,56160,29.25
523,0.0,,,,,52.0,,,,,0,note_on,,95.0,52.0,95.0,56160,29.25
524,0.0,,,,,59.0,,,,,480,note_off,,95.0,59.0,95.0,56640,29.5
525,0.0,,,,,52.0,,,,,0,note_off,,95.0,52.0,95.0,56640,29.5
526,0.0,,,,,39.0,,,,,0,note_on,,95.0,39.0,95.0,56640,29.5
527,0.0,,,,,39.0,,,,,240,note_off,,95.0,39.0,95.0,56880,29.625
528,0.0,,,,,39.0,,,,,0,note_on,,95.0,39.0,95.0,56880,29.625
529,0.0,,,,,39.0,,,,,240,note_off,,95.0,39.0,95.0,57120,29.75
530,0.0,,,,,57.0,,,,,0,note_on,,95.0,57.0,95.0,57120,29.75
531,0.0,,,,,50.0,,,,,0,note_on,,95.0,50.0,95.0,57120,29.75
532,0.0,,,,,57.0,,,,,480,note_off,,95.0,57.0,95.0,57600,30.0
533,0.0,,,,,50.0,,,,,0,note_off,,95.0,50.0,95.0,57600,30.0
534,0.0,,,,,39.0,,,,,0,note_on,,95.0,39.0,95.0,57600,30.0
535,0.0,,,,,39.0,,,,,240,note_off,,95.0,39.0,95.0,57840,30.125
536,0.0,,,,,39.0,,,,,0,note_on,,95.0,39.0,95.0,57840,30.125
537,0.0,,,,,39.0,,,,,240,note_off,,95.0,39.0,95.0,58080,30.25
538,0.0,,,,,39.0,,,,,240,note_on,,95.0,39.0,95.0,58320,30.375
539,1.0,,,,,49.0,,,,,180,note_on,,95.0,49.0,95.0,58500,30.46875
540,0.0,,,,,39.0,,,,,60,note_off,,95.0,39.0,95.0,58560,30.5
541,1.0,,,,,49.0,,,,,0,note_off,,95.0,49.0,95.0,58560,30.5
542,1.0,,,,,51.0,,,,,0,note_on,,95.0,51.0,95.0,58560,30.5
543,0.0,,,,,39.0,,,,,0,note_on,,95.0,39.0,95.0,58560,30.5
544,1.0,,,,,51.0,,,,,480,note_off,,95.0,51.0,95.0,59040,30.75
545,0.0,,,,,39.0,,,,,0,note_off,,95.0,39.0,95.0,59040,30.75
546,0.0,,,,,39.0,,,,,0,note_on,,95.0,39.0,95.0,59040,30.75
547,0.0,,,,,39.0,,,,,240,note_off,,95.0,39.0,95.0,59280,30.875
548,0.0,,,,,39.0,,,,,0,note_on,,95.0,39.0,95.0,59280,30.875
549,0.0,,,,,39.0,,,,,240,note_off,,95.0,39.0,95.0,59520,31.0
550,0.0,,,,,39.0,,,,,240,note_on,,95.0,39.0,95.0,59760,31.125
551,0.0,,,,,39.0,,,,,240,note_off,,95.0,39.0,95.0,60000,31.25
552,0.0,,,,,49.0,,,,,0,note_on,,95.0,49.0,95.0,60000,31.25
553,0.0,,,,,42.0,,,,,0,note_on,,95.0,42.0,95.0,60000,31.25
554,0.0,,,,,49.0,,,,,480,note_off,,95.0,49.0,95.0,60480,31.5
555,0.0,,,,,42.0,,,,,0,note_off,,95.0,42.0,95.0,60480,31.5
556,0.0,,,,,39.0,,,,,0,note_on,,95.0,39.0,95.0,60480,31.5
557,0.0,,,,,39.0,,,,,240,note_off,,95.0,39.0,95.0,60720,31.625
558,0.0,,,,,39.0,,,,,0,note_on,,95.0,39.0,95.0,60720,31.625
559,0.0,,,,,39.0,,,,,240,note_off,,95.0,39.0,95.0,60960,31.75
560,0.0,,,,,48.0,,,,,0,note_on,,95.0,48.0,95.0,60960,31.75
561,0.0,,,,,41.0,,,,,0,note_on,,95.0,41.0,95.0,60960,31.75
562,0.0,,,,,48.0,,,,,480,note_off,,95.0,48.0,95.0,61440,32.0
563,0.0,,,,,41.0,,,,,0,note_off,,95.0,41.0,95.0,61440,32.0
564,0.0,,,,,39.0,,,,,0,note_on,,95.0,39.0,95.0,61440,32.0
565,0.0,,,,,39.0,,,,,240,note_off,,95.0,39.0,95.0,61680,32.125
566,0.0,,,,,39.0,,,,,240,note_on,,95.0,39.0,95.0,61920,32.25
567,0.0,,,,,39.0,,,,,240,note_off,,95.0,39.0,95.0,62160,32.375
568,0.0,,,,,39.0,,,,,0,note_on,,95.0,39.0,95.0,62160,32.375
569,1.0,,,,,49.0,,,,,180,note_on,,95.0,49.0,95.0,62340,32.46875
570,0.0,,,,,39.0,,,,,60,note_off,,95.0,39.0,95.0,62400,32.5
571,1.0,,,,,49.0,,,,,0,note_off,,95.0,49.0,95.0,62400,32.5
572,1.0,,,,,51.0,,,,,0,note_on,,95.0,51.0,95.0,62400,32.5
573,0.0,,,,,39.0,,,,,0,note_on,,95.0,39.0,95.0,62400,32.5
574,1.0,,,,,51.0,,,,,960,note_off,,95.0,51.0,95.0,63360,33.0
575,0.0,,,,,39.0,,,,,0,note_off,,95.0,39.0,95.0,63360,33.0
576,0.0,,,,,39.0,,,,,0,note_on,,95.0,39.0,95.0,63360,33.0
577,0.0,,,,,39.0,,,,,240,note_off,,95.0,39.0,95.0,63600,33.125
578,0.0,,,,,39.0,,,,,240,note_on,,95.0,39.0,95.0,63840,33.25
579,0.0,,,,,39.0,,,,,240,note_off,,95.0,39.0,95.0,64080,33.375
580,0.0,,,,,39.0,,,,,0,note_on,,95.0,39.0,95.0,64080,33.375
581,0.0,,,,,39.0,,,,,240,note_off,,95.0,39.0,95.0,64320,33.5
582,0.0,,,,,59.0,,,,,0,note_on,,95.0,59.0,95.0,64320,33.5
583,0.0,,,,,52.0,,,,,0,note_on,,95.0,52.0,95.0,64320,33.5
584,0.0,,,,,59.0,,,,,240,note_off,,95.0,59.0,95.0,64560,33.625
585,0.0,,,,,52.0,,,,,0,note_off,,95.0,52.0,95.0,64560,33.625
586,0.0,,,,,58.0,,,,,0,note_on,,95.0,58.0,95.0,64560,33.625
587,0.0,,,,,51.0,,,,,0,note_on,,95.0,51.0,95.0,64560,33.625
588,0.0,,,,,58.0,,,,,240,note_off,,95.0,58.0,95.0,64800,33.75
589,0.0,,,,,51.0,,,,,0,note_off,,95.0,51.0,95.0,64800,33.75
590,0.0,,,,,57.0,,,,,0,note_on,,95.0,57.0,95.0,64800,33.75
591,0.0,,,,,50.0,,,,,0,note_on,,95.0,50.0,95.0,64800,33.75
592,0.0,,,,,57.0,,,,,480,note_off,,95.0,57.0,95.0,65280,34.0
593,0.0,,,,,50.0,,,,,0,note_off,,95.0,50.0,95.0,65280,34.0
594,0.0,,,,,39.0,,,,,0,note_on,,95.0,39.0,95.0,65280,34.0
595,0.0,,,,,39.0,,,,,240,note_off,,95.0,39.0,95.0,65520,34.125
596,0.0,,,,,39.0,,,,,240,note_on,,95.0,39.0,95.0,65760,34.25
597,0.0,,,,,39.0,,,,,240,note_off,,95.0,39.0,95.0,66000,34.375
598,0.0,,,,,39.0,,,,,0,note_on,,95.0,39.0,95.0,66000,34.375
599,1.0,,,,,49.0,,,,,180,note_on,,95.0,49.0,95.0,66180,34.46875
600,0.0,,,,,39.0,,,,,60,note_off,,95.0,39.0,95.0,66240,34.5
601,1.0,,,,,49.0,,,,,0,note_off,,95.0,49.0,95.0,66240,34.5
602,1.0,,,,,51.0,,,,,0,note_on,,95.0,51.0,95.0,66240,34.5
603,0.0,,,,,39.0,,,,,0,note_on,,95.0,39.0,95.0,66240,34.5
604,1.0,,,,,51.0,,,,,960,note_off,,95.0,51.0,95.0,67200,35.0
605,0.0,,,,,39.0,,,,,0,note_off,,95.0,39.0,95.0,67200,35.0
606,0.0,,,,,39.0,,,,,0,note_on,,95.0,39.0,95.0,67200,35.0
607,0.0,,,,,39.0,,,,,240,note_off,,95.0,39.0,95.0,67440,35.125
608,0.0,,,,,39.0,,,,,240,note_on,,95.0,39.0,95.0,67680,35.25
609,0.0,,,,,39.0,,,,,240,note_off,,95.0,39.0,95.0,67920,35.375
610,0.0,,,,,39.0,,,,,0,note_on,,95.0,39.0,95.0,67920,35.375
611,0.0,,,,,39.0,,,,,240,note_off,,95.0,39.0,95.0,68160,35.5
612,0.0,,,,,61.0,,,,,0,note_on,,95.0,61.0,95.0,68160,35.5
613,0.0,,,,,54.0,,,,,0,note_on,,95.0,54.0,95.0,68160,35.5
614,0.0,,,,,61.0,,,,,240,note_off,,95.0,61.0,95.0,68400,35.625
615,0.0,,,,,54.0,,,,,0,note_off,,95.0,54.0,95.0,68400,35.625
616,0.0,,,,,60.0,,,,,0,note_on,,95.0,60.0,95.0,68400,35.625
617,0.0,,,,,53.0,,,,,0,note_on,,95.0,53.0,95.0,68400,35.625
618,0.0,,,,,60.0,,,,,240,note_off,,95.0,60.0,95.0,68640,35.75
619,0.0,,,,,53.0,,,,,0,note_off,,95.0,53.0,95.0,68640,35.75
620,0.0,,,,,59.0,,,,,0,note_on,,95.0,59.0,95.0,68640,35.75
621,0.0,,,,,52.0,,,,,0,note_on,,95.0,52.0,95.0,68640,35.75
622,0.0,,,,,59.0,,,,,480,note_off,,95.0,59.0,95.0,69120,36.0
623,0.0,,,,,52.0,,,,,0,note_off,,95.0,52.0,95.0,69120,36.0
624,0.0,,,,,39.0,,,,,0,note_on,,95.0,39.0,95.0,69120,36.0
625,0.0,,,,,39.0,,,,,240,note_off,,95.0,39.0,95.0,69360,36.125
626,0.0,,,,,39.0,,,,,240,note_on,,95.0,39.0,95.0,69600,36.25
627,0.0,,,,,39.0,,,,,240,note_off,,95.0,39.0,95.0,69840,36.375
628,0.0,,,,,39.0,,,,,0,note_on,,95.0,39.0,95.0,69840,36.375
629,1.0,,,,,49.0,,,,,180,note_on,,95.0,49.0,95.0,70020,36.46875
630,0.0,,,,,39.0,,,,,60,note_off,,95.0,39.0,95.0,70080,36.5
631,1.0,,,,,49.0,,,,,0,note_off,,95.0,49.0,95.0,70080,36.5
632,1.0,,,,,51.0,,,,,0,note_on,,95.0,51.0,95.0,70080,36.5
633,0.0,,,,,39.0,,,,,0,note_on,,95.0,39.0,95.0,70080,36.5
634,1.0,,,,,51.0,,,,,960,note_off,,95.0,51.0,95.0,71040,37.0
635,0.0,,,,,39.0,,,,,0,note_off,,95.0,39.0,95.0,71040,37.0
636,0.0,,,,,39.0,,,,,0,note_on,,95.0,39.0,95.0,71040,37.0
637,0.0,,,,,39.0,,,,,240,note_off,,95.0,39.0,95.0,71280,37.125
638,0.0,,,,,39.0,,,,,240,note_on,,95.0,39.0,95.0,71520,37.25
639,0.0,,,,,39.0,,,,,240,note_off,,95.0,39.0,95.0,71760,37.375
640,0.0,,,,,39.0,,,,,0,note_on,,95.0,39.0,95.0,71760,37.375
641,0.0,,,,,39.0,,,,,240,note_off,,95.0,39.0,95.0,72000,37.5
642,0.0,,,,,59.0,,,,,0,note_on,,95.0,59.0,95.0,72000,37.5
643,0.0,,,,,52.0,,,,,0,note_on,,95.0,52.0,95.0,72000,37.5
644,0.0,,,,,59.0,,,,,240,note_off,,95.0,59.0,95.0,72240,37.625
645,0.0,,,,,52.0,,,,,0,note_off,,95.0,52.0,95.0,72240,37.625
646,0.0,,,,,58.0,,,,,0,note_on,,95.0,58.0,95.0,72240,37.625
647,0.0,,,,,51.0,,,,,0,note_on,,95.0,51.0,95.0,72240,37.625
648,0.0,,,,,58.0,,,,,240,note_off,,95.0,58.0,95.0,72480,37.75
649,0.0,,,,,51.0,,,,,0,note_off,,95.0,51.0,95.0,72480,37.75
650,0.0,,,,,57.0,,,,,0,note_on,,95.0,57.0,95.0,72480,37.75
651,0.0,,,,,50.0,,,,,0,note_on,,95.0,50.0,95.0,72480,37.75
652,0.0,,,,,57.0,,,,,480,note_off,,95.0,57.0,95.0,72960,38.0
653,0.0,,,,,50.0,,,,,0,note_off,,95.0,50.0,95.0,72960,38.0
654,0.0,,,,,39.0,,,,,0,note_on,,95.0,39.0,95.0,72960,38.0
655,0.0,,,,,39.0,,,,,240,note_off,,95.0,39.0,95.0,73200,38.125
656,0.0,,,,,39.0,,,,,240,note_on,,95.0,39.0,95.0,73440,38.25
657,0.0,,,,,39.0,,,,,240,note_off,,95.0,39.0,95.0,73680,38.375
658,0.0,,,,,39.0,,,,,0,note_on,,95.0,39.0,95.0,73680,38.375
659,1.0,,,,,49.0,,,,,180,note_on,,95.0,49.0,95.0,73860,38.46875
660,0.0,,,,,39.0,,,,,60,note_off,,95.0,39.0,95.0,73920,38.5
661,1.0,,,,,49.0,,,,,0,note_off,,95.0,49.0,95.0,73920,38.5
662,1.0,,,,,51.0,,,,,0,note_on,,95.0,51.0,95.0,73920,38.5
663,0.0,,,,,39.0,,,,,0,note_on,,95.0,39.0,95.0,73920,38.5
664,1.0,,,,,51.0,,,,,960,note_off,,95.0,51.0,95.0,74880,39.0
665,0.0,,,,,39.0,,,,,0,note_off,,95.0,39.0,95.0,74880,39.0
666,0.0,,,,,39.0,,,,,0,note_on,,95.0,39.0,95.0,74880,39.0
667,0.0,,,,,39.0,,,,,240,note_off,,95.0,39.0,95.0,75120,39.125
668,0.0,,,,,39.0,,,,,0,note_on,,95.0,39.0,95.0,75120,39.125
669,0.0,,,,,39.0,,,,,240,note_off,,95.0,39.0,95.0,75360,39.25
670,0.0,,,,,39.0,,,,,0,note_on,,95.0,39.0,95.0,75360,39.25
671,0.0,,,,,39.0,,,,,240,note_off,,95.0,39.0,95.0,75600,39.375
672,0.0,,,,,39.0,,,,,0,note_on,,95.0,39.0,95.0,75600,39.375
673,0.0,,,,,39.0,,,,,240,note_off,,95.0,39.0,95.0,75840,39.5
674,0.0,,,,,49.0,,,,,0,note_on,,95.0,49.0,95.0,75840,39.5
675,0.0,,,,,42.0,,,,,0,note_on,,95.0,42.0,95.0,75840,39.5
676,0.0,,,,,49.0,,,,,240,note_off,,95.0,49.0,95.0,76080,39.625
677,0.0,,,,,42.0,,,,,0,note_off,,95.0,42.0,95.0,76080,39.625
678,0.0,,,,,48.0,,,,,0,note_on,,95.0,48.0,95.0,76080,39.625
679,0.0,,,,,41.0,,,,,0,note_on,,95.0,41.0,95.0,76080,39.625
680,0.0,,,,,48.0,,,,,240,note_off,,95.0,48.0,95.0,76320,39.75
681,0.0,,,,,41.0,,,,,0,note_off,,95.0,41.0,95.0,76320,39.75
682,0.0,,,,,47.0,,,,,0,note_on,,95.0,47.0,95.0,76320,39.75
683,0.0,,,,,40.0,,,,,0,note_on,,95.0,40.0,95.0,76320,39.75
684,0.0,,,,,47.0,,,,,480,note_off,,95.0,47.0,95.0,76800,40.0
685,0.0,,,,,40.0,,,,,0,note_off,,95.0,40.0,95.0,76800,40.0
686,0.0,,,,,39.0,,,,,0,note_on,,95.0,39.0,95.0,76800,40.0
687,0.0,,,,,39.0,,,,,240,note_off,,95.0,39.0,95.0,77040,40.125
688,0.0,,,,,39.0,,,,,240,note_on,,95.0,39.0,95.0,77280,40.25
689,0.0,,,,,39.0,,,,,240,note_off,,95.0,39.0,95.0,77520,40.375
690,0.0,,,,,39.0,,,,,0,note_on,,95.0,39.0,95.0,77520,40.375
691,1.0,,,,,49.0,,,,,180,note_on,,95.0,49.0,95.0,77700,40.46875
692,0.0,,,,,39.0,,,,,60,note_off,,95.0,39.0,95.0,77760,40.5
693,1.0,,,,,49.0,,,,,0,note_off,,95.0,49.0,95.0,77760,40.5
694,1.0,,,,,51.0,,,,,0,note_on,,95.0,51.0,95.0,77760,40.5
695,0.0,,,,,39.0,,,,,0,note_on,,95.0,39.0,95.0,77760,40.5
696,1.0,,,,,51.0,,,,,960,note_off,,95.0,51.0,95.0,78720,41.0
697,0.0,,,,,39.0,,,,,0,note_off,,95.0,39.0,95.0,78720,41.0
698,0.0,,,,,39.0,,,,,0,note_on,,95.0,39.0,95.0,78720,41.0
699,0.0,,,,,39.0,,,,,240,note_off,,95.0,39.0,95.0,78960,41.125
700,0.0,,,,,39.0,,,,,240,note_on,,95.0,39.0,95.0,79200,41.25
701,0.0,,,,,39.0,,,,,240,note_off,,95.0,39.0,95.0,79440,41.375
702,0.0,,,,,39.0,,,,,0,note_on,,95.0,39.0,95.0,79440,41.375
703,0.0,,,,,39.0,,,,,240,note_off,,95.0,39.0,95.0,79680,41.5
704,0.0,,,,,59.0,,,,,0,note_on,,95.0,59.0,95.0,79680,41.5
705,0.0,,,,,52.0,,,,,0,note_on,,95.0,52.0,95.0,79680,41.5
706,0.0,,,,,59.0,,,,,240,note_off,,95.0,59.0,95.0,79920,41.625
707,0.0,,,,,52.0,,,,,0,note_off,,95.0,52.0,95.0,79920,41.625
708,0.0,,,,,58.0,,,,,0,note_on,,95.0,58.0,95.0,79920,41.625
709,0.0,,,,,51.0,,,,,0,note_on,,95.0,51.0,95.0,79920,41.625
710,0.0,,,,,58.0,,,,,240,note_off,,95.0,58.0,95.0,80160,41.75
711,0.0,,,,,51.0,,,,,0,note_off,,95.0,51.0,95.0,80160,41.75
712,0.0,,,,,57.0,,,,,0,note_on,,95.0,57.0,95.0,80160,41.75
713,0.0,,,,,50.0,,,,,0,note_on,,95.0,50.0,95.0,80160,41.75
714,0.0,,,,,57.0,,,,,480,note_off,,95.0,57.0,95.0,80640,42.0
715,0.0,,,,,50.0,,,,,0,note_off,,95.0,50.0,95.0,80640,42.0
716,0.0,,,,,39.0,,,,,0,note_on,,95.0,39.0,95.0,80640,42.0
717,0.0,,,,,39.0,,,,,240,note_off,,95.0,39.0,95.0,80880,42.125
718,0.0,,,,,39.0,,,,,240,note_on,,95.0,39.0,95.0,81120,42.25
719,0.0,,,,,39.0,,,,,240,note_off,,95.0,39.0,95.0,81360,42.375
720,0.0,,,,,39.0,,,,,0,note_on,,95.0,39.0,95.0,81360,42.375
721,1.0,,,,,49.0,,,,,180,note_on,,95.0,49.0,95.0,81540,42.46875
722,0.0,,,,,39.0,,,,,60,note_off,,95.0,39.0,95.0,81600,42.5
723,1.0,,,,,49.0,,,,,0,note_off,,95.0,49.0,95.0,81600,42.5
724,1.0,,,,,51.0,,,,,0,note_on,,95.0,51.0,95.0,81600,42.5
725,0.0,,,,,39.0,,,,,0,note_on,,95.0,39.0,95.0,81600,42.5
726,1.0,,,,,51.0,,,,,960,note_off,,95.0,51.0,95.0,82560,43.0
727,0.0,,,,,39.0,,,,,0,note_off,,95.0,39.0,95.0,82560,43.0
728,0.0,,,,,39.0,,,,,0,note_on,,95.0,39.0,95.0,82560,43.0
729,0.0,,,,,39.0,,,,,240,note_off,,95.0,39.0,95.0,82800,43.125
730,0.0,,,,,39.0,,,,,240,note_on,,95.0,39.0,95.0,83040,43.25
731,0.0,,,,,39.0,,,,,240,note_off,,95.0,39.0,95.0,83280,43.375
732,0.0,,,,,39.0,,,,,0,note_on,,95.0,39.0,95.0,83280,43.375
733,0.0,,,,,39.0,,,,,240,note_off,,95.0,39.0,95.0,83520,43.5
734,0.0,,,,,61.0,,,,,0,note_on,,95.0,61.0,95.0,83520,43.5
735,0.0,,,,,54.0,,,,,0,note_on,,95.0,54.0,95.0,83520,43.5
736,0.0,,,,,61.0,,,,,240,note_off,,95.0,61.0,95.0,83760,43.625
737,0.0,,,,,54.0,,,,,0,note_off,,95.0,54.0,95.0,83760,43.625
738,0.0,,,,,60.0,,,,,0,note_on,,95.0,60.0,95.0,83760,43.625
739,0.0,,,,,53.0,,,,,0,note_on,,95.0,53.0,95.0,83760,43.625
740,0.0,,,,,60.0,,,,,240,note_off,,95.0,60.0,95.0,84000,43.75
741,0.0,,,,,53.0,,,,,0,note_off,,95.0,53.0,95.0,84000,43.75
742,0.0,,,,,59.0,,,,,0,note_on,,95.0,59.0,95.0,84000,43.75
743,0.0,,,,,52.0,,,,,0,note_on,,95.0,52.0,95.0,84000,43.75
744,0.0,,,,,59.0,,,,,480,note_off,,95.0,59.0,95.0,84480,44.0
745,0.0,,,,,52.0,,,,,0,note_off,,95.0,52.0,95.0,84480,44.0
746,0.0,,,,,39.0,,,,,0,note_on,,95.0,39.0,95.0,84480,44.0
747,0.0,,,,,39.0,,,,,240,note_off,,95.0,39.0,95.0,84720,44.125
748,0.0,,,,,39.0,,,,,240,note_on,,95.0,39.0,95.0,84960,44.25
749,0.0,,,,,39.0,,,,,240,note_off,,95.0,39.0,95.0,85200,44.375
750,0.0,,,,,39.0,,,,,0,note_on,,95.0,39.0,95.0,85200,44.375
751,1.0,,,,,49.0,,,,,180,note_on,,95.0,49.0,95.0,85380,44.46875
752,0.0,,,,,39.0,,,,,60,note_off,,95.0,39.0,95.0,85440,44.5
753,1.0,,,,,49.0,,,,,0,note_off,,95.0,49.0,95.0,85440,44.5
754,1.0,,,,,51.0,,,,,0,note_on,,95.0,51.0,95.0,85440,44.5
755,0.0,,,,,39.0,,,,,0,note_on,,95.0,39.0,95.0,85440,44.5
756,1.0,,,,,51.0,,,,,960,note_off,,95.0,51.0,95.0,86400,45.0
757,0.0,,,,,39.0,,,,,0,note_off,,95.0,39.0,95.0,86400,45.0
758,0.0,,,,,39.0,,,,,0,note_on,,95.0,39.0,95.0,86400,45.0
759,0.0,,,,,39.0,,,,,240,note_off,,95.0,39.0,95.0,86640,45.125
760,0.0,,,,,39.0,,,,,240,note_on,,95.0,39.0,95.0,86880,45.25
761,0.0,,,,,39.0,,,,,240,note_off,,95.0,39.0,95.0,87120,45.375
762,0.0,,,,,39.0,,,,,0,note_on,,95.0,39.0,95.0,87120,45.375
763,0.0,,,,,39.0,,,,,240,note_off,,95.0,39.0,95.0,87360,45.5
764,0.0,,,,,59.0,,,,,0,note_on,,95.0,59.0,95.0,87360,45.5
765,0.0,,,,,52.0,,,,,0,note_on,,95.0,52.0,95.0,87360,45.5
766,0.0,,,,,59.0,,,,,240,note_off,,95.0,59.0,95.0,87600,45.625
767,0.0,,,,,52.0,,,,,0,note_off,,95.0,52.0,95.0,87600,45.625
768,0.0,,,,,58.0,,,,,0,note_on,,95.0,58.0,95.0,87600,45.625
769,0.0,,,,,51.0,,,,,0,note_on,,95.0,51.0,95.0,87600,45.625
770,0.0,,,,,58.0,,,,,240,note_off,,95.0,58.0,95.0,87840,45.75
771,0.0,,,,,51.0,,,,,0,note_off,,95.0,51.0,95.0,87840,45.75
772,0.0,,,,,57.0,,,,,0,note_on,,95.0,57.0,95.0,87840,45.75
773,0.0,,,,,50.0,,,,,0,note_on,,95.0,50.0,95.0,87840,45.75
774,0.0,,,,,57.0,,,,,480,note_off,,95.0,57.0,95.0,88320,46.0
775,0.0,,,,,50.0,,,,,0,note_off,,95.0,50.0,95.0,88320,46.0
776,0.0,,,,,39.0,,,,,0,note_on,,95.0,39.0,95.0,88320,46.0
777,0.0,,,,,39.0,,,,,240,note_off,,95.0,39.0,95.0,88560,46.125
778,0.0,,,,,39.0,,,,,240,note_on,,95.0,39.0,95.0,88800,46.25
779,0.0,,,,,39.0,,,,,240,note_off,,95.0,39.0,95.0,89040,46.375
780,0.0,,,,,39.0,,,,,0,note_on,,95.0,39.0,95.0,89040,46.375
781,1.0,,,,,49.0,,,,,180,note_on,,95.0,49.0,95.0,89220,46.46875
782,0.0,,,,,39.0,,,,,60,note_off,,95.0,39.0,95.0,89280,46.5
783,1.0,,,,,49.0,,,,,0,note_off,,95.0,49.0,95.0,89280,46.5
784,1.0,,,,,51.0,,,,,0,note_on,,95.0,51.0,95.0,89280,46.5
785,0.0,,,,,39.0,,,,,0,note_on,,95.0,39.0,95.0,89280,46.5
786,1.0,,,,,51.0,,,,,960,note_off,,95.0,51.0,95.0,90240,47.0
787,0.0,,,,,39.0,,,,,0,note_off,,95.0,39.0,95.0,90240,47.0
788,0.0,,,,,39.0,,,,,0,note_on,,95.0,39.0,95.0,90240,47.0
789,0.0,,,,,39.0,,,,,240,note_off,,95.0,39.0,95.0,90480,47.125
790,0.0,,,,,39.0,,,,,0,note_on,,95.0,39.0,95.0,90480,47.125
791,0.0,,,,,39.0,,,,,240,note_off,,95.0,39.0,95.0,90720,47.25
792,0.0,,,,,39.0,,,,,0,note_on,,95.0,39.0,95.0,90720,47.25
793,0.0,,,,,39.0,,,,,240,note_off,,95.0,39.0,95.0,90960,47.375
794,0.0,,,,,39.0,,,,,0,note_on,,95.0,39.0,95.0,90960,47.375
795,0.0,,,,,39.0,,,,,240,note_off,,95.0,39.0,95.0,91200,47.5
796,0.0,,,,,49.0,,,,,0,note_on,,95.0,49.0,95.0,91200,47.5
797,0.0,,,,,42.0,,,,,0,note_on,,95.0,42.0,95.0,91200,47.5
798,0.0,,,,,49.0,,,,,240,note_off,,95.0,49.0,95.0,91440,47.625
799,0.0,,,,,42.0,,,,,0,note_off,,95.0,42.0,95.0,91440,47.625
800,0.0,,,,,48.0,,,,,0,note_on,,95.0,48.0,95.0,91440,47.625
801,0.0,,,,,41.0,,,,,0,note_on,,95.0,41.0,95.0,91440,47.625
802,0.0,,,,,48.0,,,,,240,note_off,,95.0,48.0,95.0,91680,47.75
803,0.0,,,,,41.0,,,,,0,note_off,,95.0,41.0,95.0,91680,47.75
804,0.0,,,,,47.0,,,,,0,note_on,,95.0,47.0,95.0,91680,47.75
805,0.0,,,,,40.0,,,,,0,note_on,,95.0,40.0,95.0,91680,47.75
806,0.0,,,,,47.0,,,,,480,note_off,,95.0,47.0,95.0,92160,48.0
807,0.0,,,,,40.0,,,,,0,note_off,,95.0,40.0,95.0,92160,48.0
808,0.0,,,,,39.0,,,,,0,note_on,,95.0,39.0,95.0,92160,48.0
809,0.0,,,,,39.0,,,,,240,note_off,,95.0,39.0,95.0,92400,48.125
810,0.0,,,,,39.0,,,,,240,note_on,,95.0,39.0,95.0,92640,48.25
811,0.0,,,,,39.0,,,,,240,note_off,,95.0,39.0,95.0,92880,48.375
812,0.0,,,,,39.0,,,,,0,note_on,,95.0,39.0,95.0,92880,48.375
813,1.0,,,,,49.0,,,,,180,note_on,,95.0,49.0,95.0,93060,48.46875
814,0.0,,,,,39.0,,,,,60,note_off,,95.0,39.0,95.0,93120,48.5
815,1.0,,,,,49.0,,,,,0,note_off,,95.0,49.0,95.0,93120,48.5
816,1.0,,,,,51.0,,,,,0,note_on,,95.0,51.0,95.0,93120,48.5
817,0.0,,,,,39.0,,,,,0,note_on,,95.0,39.0,95.0,93120,48.5
818,1.0,,,,,51.0,,,,,960,note_off,,95.0,51.0,95.0,94080,49.0
819,0.0,,,,,39.0,,,,,0,note_off,,95.0,39.0,95.0,94080,49.0
820,0.0,,,,,39.0,,,,,0,note_on,,95.0,39.0,95.0,94080,49.0
821,0.0,,,,,39.0,,,,,240,note_off,,95.0,39.0,95.0,94320,49.125
822,0.0,,,,,39.0,,,,,240,note_on,,95.0,39.0,95.0,94560,49.25
823,0.0,,,,,39.0,,,,,240,note_off,,95.0,39.0,95.0,94800,49.375
824,0.0,,,,,39.0,,,,,0,note_on,,95.0,39.0,95.0,94800,49.375
825,0.0,,,,,39.0,,,,,240,note_off,,95.0,39.0,95.0,95040,49.5
826,0.0,,,,,59.0,,,,,0,note_on,,95.0,59.0,95.0,95040,49.5
827,0.0,,,,,52.0,,,,,0,note_on,,95.0,52.0,95.0,95040,49.5
828,0.0,,,,,59.0,,,,,240,note_off,,95.0,59.0,95.0,95280,49.625
829,0.0,,,,,52.0,,,,,0,note_off,,95.0,52.0,95.0,95280,49.625
830,0.0,,,,,58.0,,,,,0,note_on,,95.0,58.0,95.0,95280,49.625
831,0.0,,,,,51.0,,,,,0,note_on,,95.0,51.0,95.0,95280,49.625
832,0.0,,,,,58.0,,,,,240,note_off,,95.0,58.0,95.0,95520,49.75
833,0.0,,,,,51.0,,,,,0,note_off,,95.0,51.0,95.0,95520,49.75
834,0.0,,,,,57.0,,,,,0,note_on,,95.0,57.0,95.0,95520,49.75
835,0.0,,,,,50.0,,,,,0,note_on,,95.0,50.0,95.0,95520,49.75
836,0.0,,,,,57.0,,,,,480,note_off,,95.0,57.0,95.0,96000,50.0
837,0.0,,,,,50.0,,,,,0,note_off,,95.0,50.0,95.0,96000,50.0
838,0.0,,,,,39.0,,,,,0,note_on,,95.0,39.0,95.0,96000,50.0
839,0.0,,,,,39.0,,,,,240,note_off,,95.0,39.0,95.0,96240,50.125
840,0.0,,,,,39.0,,,,,240,note_on,,95.0,39.0,95.0,96480,50.25
841,0.0,,,,,39.0,,,,,240,note_off,,95.0,39.0,95.0,96720,50.375
842,0.0,,,,,39.0,,,,,0,note_on,,95.0,39.0,95.0,96720,50.375
843,1.0,,,,,49.0,,,,,180,note_on,,95.0,49.0,95.0,96900,50.46875
844,0.0,,,,,39.0,,,,,60,note_off,,95.0,39.0,95.0,96960,50.5
845,1.0,,,,,49.0,,,,,0,note_off,,95.0,49.0,95.0,96960,50.5
846,1.0,,,,,51.0,,,,,0,note_on,,95.0,51.0,95.0,96960,50.5
847,0.0,,,,,39.0,,,,,0,note_on,,95.0,39.0,95.0,96960,50.5
848,1.0,,,,,51.0,,,,,960,note_off,,95.0,51.0,95.0,97920,51.0
849,0.0,,,,,39.0,,,,,0,note_off,,95.0,39.0,95.0,97920,51.0
850,0.0,,,,,39.0,,,,,0,note_on,,95.0,39.0,95.0,97920,51.0
851,0.0,,,,,39.0,,,,,240,note_off,,95.0,39.0,95.0,98160,51.125
852,0.0,,,,,39.0,,,,,240,note_on,,95.0,39.0,95.0,98400,51.25
853,0.0,,,,,39.0,,,,,240,note_off,,95.0,39.0,95.0,98640,51.375
854,0.0,,,,,39.0,,,,,0,note_on,,95.0,39.0,95.0,98640,51.375
855,0.0,,,,,39.0,,,,,240,note_off,,95.0,39.0,95.0,98880,51.5
856,0.0,,,,,61.0,,,,,0,note_on,,95.0,61.0,95.0,98880,51.5
857,0.0,,,,,54.0,,,,,0,note_on,,95.0,54.0,95.0,98880,51.5
858,0.0,,,,,61.0,,,,,240,note_off,,95.0,61.0,95.0,99120,51.625
859,0.0,,,,,54.0,,,,,0,note_off,,95.0,54.0,95.0,99120,51.625
860,0.0,,,,,60.0,,,,,0,note_on,,95.0,60.0,95.0,99120,51.625
861,0.0,,,,,53.0,,,,,0,note_on,,95.0,53.0,95.0,99120,51.625
862,0.0,,,,,60.0,,,,,240,note_off,,95.0,60.0,95.0,99360,51.75
863,0.0,,,,,53.0,,,,,0,note_off,,95.0,53.0,95.0,99360,51.75
864,0.0,,,,,59.0,,,,,0,note_on,,95.0,59.0,95.0,99360,51.75
865,0.0,,,,,52.0,,,,,0,note_on,,95.0,52.0,95.0,99360,51.75
866,0.0,,,,,59.0,,,,,480,note_off,,95.0,59.0,95.0,99840,52.0
867,0.0,,,,,52.0,,,,,0,note_off,,95.0,52.0,95.0,99840,52.0
868,0.0,,,,,39.0,,,,,0,note_on,,95.0,39.0,95.0,99840,52.0
869,0.0,,,,,39.0,,,,,240,note_off,,95.0,39.0,95.0,100080,52.125
870,0.0,,,,,39.0,,,,,240,note_on,,95.0,39.0,95.0,100320,52.25
871,0.0,,,,,39.0,,,,,240,note_off,,95.0,39.0,95.0,100560,52.375
872,0.0,,,,,39.0,,,,,0,note_on,,95.0,39.0,95.0,100560,52.375
873,1.0,,,,,49.0,,,,,180,note_on,,95.0,49.0,95.0,100740,52.46875
874,0.0,,,,,39.0,,,,,60,note_off,,95.0,39.0,95.0,100800,52.5
875,1.0,,,,,49.0,,,,,0,note_off,,95.0,49.0,95.0,100800,52.5
876,1.0,,,,,51.0,,,,,0,note_on,,95.0,51.0,95.0,100800,52.5
877,0.0,,,,,39.0,,,,,0,note_on,,95.0,39.0,95.0,100800,52.5
878,1.0,,,,,51.0,,,,,960,note_off,,95.0,51.0,95.0,101760,53.0
879,0.0,,,,,39.0,,,,,0,note_off,,95.0,39.0,95.0,101760,53.0
880,0.0,,,,,39.0,,,,,0,note_on,,95.0,39.0,95.0,101760,53.0
881,0.0,,,,,39.0,,,,,240,note_off,,95.0,39.0,95.0,102000,53.125
882,0.0,,,,,39.0,,,,,240,note_on,,95.0,39.0,95.0,102240,53.25
883,0.0,,,,,39.0,,,,,240,note_off,,95.0,39.0,95.0,102480,53.375
884,0.0,,,,,39.0,,,,,0,note_on,,95.0,39.0,95.0,102480,53.375
885,0.0,,,,,39.0,,,,,240,note_off,,95.0,39.0,95.0,102720,53.5
886,0.0,,,,,59.0,,,,,0,note_on,,95.0,59.0,95.0,102720,53.5
887,0.0,,,,,52.0,,,,,0,note_on,,95.0,52.0,95.0,102720,53.5
888,0.0,,,,,59.0,,,,,240,note_off,,95.0,59.0,95.0,102960,53.625
889,0.0,,,,,52.0,,,,,0,note_off,,95.0,52.0,95.0,102960,53.625
890,0.0,,,,,58.0,,,,,0,note_on,,95.0,58.0,95.0,102960,53.625
891,0.0,,,,,51.0,,,,,0,note_on,,95.0,51.0,95.0,102960,53.625
892,0.0,,,,,58.0,,,,,240,note_off,,95.0,58.0,95.0,103200,53.75
893,0.0,,,,,51.0,,,,,0,note_off,,95.0,51.0,95.0,103200,53.75
894,0.0,,,,,57.0,,,,,0,note_on,,95.0,57.0,95.0,103200,53.75
895,0.0,,,,,50.0,,,,,0,note_on,,95.0,50.0,95.0,103200,53.75
896,0.0,,,,,57.0,,,,,480,note_off,,95.0,57.0,95.0,103680,54.0
897,0.0,,,,,50.0,,,,,0,note_off,,95.0,50.0,95.0,103680,54.0
898,0.0,,,,,39.0,,,,,0,note_on,,95.0,39.0,95.0,103680,54.0
899,0.0,,,,,39.0,,,,,240,note_off,,95.0,39.0,95.0,103920,54.125
900,0.0,,,,,39.0,,,,,240,note_on,,95.0,39.0,95.0,104160,54.25
901,0.0,,,,,39.0,,,,,240,note_off,,95.0,39.0,95.0,104400,54.375
902,0.0,,,,,39.0,,,,,0,note_on,,95.0,39.0,95.0,104400,54.375
903,1.0,,,,,49.0,,,,,180,note_on,,95.0,49.0,95.0,104580,54.46875
904,0.0,,,,,39.0,,,,,60,note_off,,95.0,39.0,95.0,104640,54.5
905,1.0,,,,,49.0,,,,,0,note_off,,95.0,49.0,95.0,104640,54.5
906,1.0,,,,,51.0,,,,,0,note_on,,95.0,51.0,95.0,104640,54.5
907,0.0,,,,,39.0,,,,,0,note_on,,95.0,39.0,95.0,104640,54.5
908,1.0,,,,,51.0,,,,,960,note_off,,95.0,51.0,95.0,105600,55.0
909,0.0,,,,,39.0,,,,,0,note_off,,95.0,39.0,95.0,105600,55.0
910,0.0,,,,,39.0,,,,,0,note_on,,95.0,39.0,95.0,105600,55.0
911,0.0,,,,,39.0,,,,,240,note_off,,95.0,39.0,95.0,105840,55.125
912,0.0,,,,,39.0,,,,,0,note_on,,95.0,39.0,95.0,105840,55.125
913,0.0,,,,,39.0,,,,,240,note_off,,95.0,39.0,95.0,106080,55.25
914,0.0,,,,,39.0,,,,,0,note_on,,95.0,39.0,95.0,106080,55.25
915,0.0,,,,,39.0,,,,,240,note_off,,95.0,39.0,95.0,106320,55.375
916,0.0,,,,,39.0,,,,,0,note_on,,95.0,39.0,95.0,106320,55.375
917,0.0,,,,,39.0,,,,,240,note_off,,95.0,39.0,95.0,106560,55.5
918,0.0,,,,,49.0,,,,,0,note_on,,95.0,49.0,95.0,106560,55.5
919,0.0,,,,,42.0,,,,,0,note_on,,95.0,42.0,95.0,106560,55.5
920,0.0,,,,,49.0,,,,,240,note_off,,95.0,49.0,95.0,106800,55.625
921,0.0,,,,,42.0,,,,,0,note_off,,95.0,42.0,95.0,106800,55.625
922,0.0,,,,,48.0,,,,,0,note_on,,95.0,48.0,95.0,106800,55.625
923,0.0,,,,,41.0,,,,,0,note_on,,95.0,41.0,95.0,106800,55.625
924,0.0,,,,,48.0,,,,,240,note_off,,95.0,48.0,95.0,107040,55.75
925,0.0,,,,,41.0,,,,,0,note_off,,95.0,41.0,95.0,107040,55.75
926,0.0,,,,,47.0,,,,,0,note_on,,95.0,47.0,95.0,107040,55.75
927,0.0,,,,,40.0,,,,,0,note_on,,95.0,40.0,95.0,107040,55.75
928,0.0,,,,,47.0,,,,,480,note_off,,95.0,47.0,95.0,107520,56.0
929,0.0,,,,,40.0,,,,,0,note_off,,95.0,40.0,95.0,107520,56.0
930,0.0,,,,,39.0,,,,,0,note_on,,95.0,39.0,95.0,107520,56.0
931,0.0,,,,,39.0,,,,,240,note_off,,95.0,39.0,95.0,107760,56.125
932,0.0,,,,,39.0,,,,,240,note_on,,95.0,39.0,95.0,108000,56.25
933,0.0,,,,,39.0,,,,,240,note_off,,95.0,39.0,95.0,108240,56.375
934,0.0,,,,,39.0,,,,,0,note_on,,95.0,39.0,95.0,108240,56.375
935,1.0,,,,,49.0,,,,,180,note_on,,95.0,49.0,95.0,108420,56.46875
936,0.0,,,,,39.0,,,,,60,note_off,,95.0,39.0,95.0,108480,56.5
937,1.0,,,,,49.0,,,,,0,note_off,,95.0,49.0,95.0,108480,56.5
938,1.0,,,,,51.0,,,,,0,note_on,,95.0,51.0,95.0,108480,56.5
939,0.0,,,,,39.0,,,,,0,note_on,,95.0,39.0,95.0,108480,56.5
940,1.0,,,,,51.0,,,,,960,note_off,,95.0,51.0,95.0,109440,57.0
941,0.0,,,,,39.0,,,,,0,note_off,,95.0,39.0,95.0,109440,57.0
942,0.0,,,,,39.0,,,,,0,note_on,,95.0,39.0,95.0,109440,57.0
943,0.0,,,,,39.0,,,,,240,note_off,,95.0,39.0,95.0,109680,57.125
944,0.0,,,,,39.0,,,,,240,note_on,,95.0,39.0,95.0,109920,57.25
945,0.0,,,,,39.0,,,,,240,note_off,,95.0,39.0,95.0,110160,57.375
946,0.0,,,,,39.0,,,,,0,note_on,,95.0,39.0,95.0,110160,57.375
947,0.0,,,,,39.0,,,,,240,note_off,,95.0,39.0,95.0,110400,57.5
948,0.0,,,,,59.0,,,,,0,note_on,,95.0,59.0,95.0,110400,57.5
949,0.0,,,,,52.0,,,,,0,note_on,,95.0,52.0,95.0,110400,57.5
950,0.0,,,,,59.0,,,,,240,note_off,,95.0,59.0,95.0,110640,57.625
951,0.0,,,,,52.0,,,,,0,note_off,,95.0,52.0,95.0,110640,57.625
952,0.0,,,,,58.0,,,,,0,note_on,,95.0,58.0,95.0,110640,57.625
953,0.0,,,,,51.0,,,,,0,note_on,,95.0,51.0,95.0,110640,57.625
954,0.0,,,,,58.0,,,,,240,note_off,,95.0,58.0,95.0,110880,57.75
955,0.0,,,,,51.0,,,,,0,note_off,,95.0,51.0,95.0,110880,57.75
956,0.0,,,,,57.0,,,,,0,note_on,,95.0,57.0,95.0,110880,57.75
957,0.0,,,,,50.0,,,,,0,note_on,,95.0,50.0,95.0,110880,57.75
958,0.0,,,,,57.0,,,,,480,note_off,,95.0,57.0,95.0,111360,58.0
959,0.0,,,,,50.0,,,,,0,note_off,,95.0,50.0,95.0,111360,58.0
960,0.0,,,,,39.0,,,,,0,note_on,,95.0,39.0,95.0,111360,58.0
961,0.0,,,,,39.0,,,,,240,note_off,,95.0,39.0,95.0,111600,58.125
962,0.0,,,,,39.0,,,,,240,note_on,,95.0,39.0,95.0,111840,58.25
963,0.0,,,,,39.0,,,,,240,note_off,,95.0,39.0,95.0,112080,58.375
964,0.0,,,,,39.0,,,,,0,note_on,,95.0,39.0,95.0,112080,58.375
965,1.0,,,,,49.0,,,,,180,note_on,,95.0,49.0,95.0,112260,58.46875
966,0.0,,,,,39.0,,,,,60,note_off,,95.0,39.0,95.0,112320,58.5
967,1.0,,,,,49.0,,,,,0,note_off,,95.0,49.0,95.0,112320,58.5
968,1.0,,,,,51.0,,,,,0,note_on,,95.0,51.0,95.0,112320,58.5
969,0.0,,,,,39.0,,,,,0,note_on,,95.0,39.0,95.0,112320,58.5
970,1.0,,,,,51.0,,,,,960,note_off,,95.0,51.0,95.0,113280,59.0
971,0.0,,,,,39.0,,,,,0,note_off,,95.0,39.0,95.0,113280,59.0
972,0.0,,,,,39.0,,,,,0,note_on,,95.0,39.0,95.0,113280,59.0
973,0.0,,,,,39.0,,,,,240,note_off,,95.0,39.0,95.0,113520,59.125
974,0.0,,,,,39.0,,,,,240,note_on,,95.0,39.0,95.0,113760,59.25
975,0.0,,,,,39.0,,,,,240,note_off,,95.0,39.0,95.0,114000,59.375
976,0.0,,,,,39.0,,,,,0,note_on,,95.0,39.0,95.0,114000,59.375
977,0.0,,,,,39.0,,,,,240,note_off,,95.0,39.0,95.0,114240,59.5
978,0.0,,,,,61.0,,,,,0,note_on,,95.0,61.0,95.0,114240,59.5
979,0.0,,,,,54.0,,,,,0,note_on,,95.0,54.0,95.0,114240,59.5
980,0.0,,,,,61.0,,,,,240,note_off,,95.0,61.0,95.0,114480,59.625
981,0.0,,,,,54.0,,,,,0,note_off,,95.0,54.0,95.0,114480,59.625
982,0.0,,,,,60.0,,,,,0,note_on,,95.0,60.0,95.0,114480,59.625
983,0.0,,,,,53.0,,,,,0,note_on,,95.0,53.0,95.0,114480,59.625
984,0.0,,,,,60.0,,,,,240,note_off,,95.0,60.0,95.0,114720,59.75
985,0.0,,,,,53.0,,,,,0,note_off,,95.0,53.0,95.0,114720,59.75
986,0.0,,,,,59.0,,,,,0,note_on,,95.0,59.0,95.0,114720,59.75
987,0.0,,,,,52.0,,,,,0,note_on,,95.0,52.0,95.0,114720,59.75
988,0.0,,,,,59.0,,,,,480,note_off,,95.0,59.0,95.0,115200,60.0
989,0.0,,,,,52.0,,,,,0,note_off,,95.0,52.0,95.0,115200,60.0
990,0.0,,,,,39.0,,,,,0,note_on,,95.0,39.0,95.0,115200,60.0
991,0.0,,,,,39.0,,,,,240,note_off,,95.0,39.0,95.0,115440,60.125
992,0.0,,,,,39.0,,,,,240,note_on,,95.0,39.0,95.0,115680,60.25
993,0.0,,,,,39.0,,,,,240,note_off,,95.0,39.0,95.0,115920,60.375
994,0.0,,,,,39.0,,,,,0,note_on,,95.0,39.0,95.0,115920,60.375
995,1.0,,,,,49.0,,,,,180,note_on,,95.0,49.0,95.0,116100,60.46875
996,0.0,,,,,39.0,,,,,60,note_off,,95.0,39.0,95.0,116160,60.5
997,1.0,,,,,49.0,,,,,0,note_off,,95.0,49.0,95.0,116160,60.5
998,1.0,,,,,51.0,,,,,0,note_on,,95.0,51.0,95.0,116160,60.5
999,0.0,,,,,39.0,,,,,0,note_on,,95.0,39.0,95.0,116160,60.5
1000,1.0,,,,,51.0,,,,,960,note_off,,95.0,51.0,95.0,117120,61.0
1001,0.0,,,,,39.0,,,,,0,note_off,,95.0,39.0,95.0,117120,61.0
1002,0.0,,,,,39.0,,,,,0,note_on,,95.0,39.0,95.0,117120,61.0
1003,0.0,,,,,39.0,,,,,240,note_off,,95.0,39.0,95.0,117360,61.125
1004,0.0,,,,,39.0,,,,,240,note_on,,95.0,39.0,95.0,117600,61.25
1005,0.0,,,,,39.0,,,,,240,note_off,,95.0,39.0,95.0,117840,61.375
1006,0.0,,,,,39.0,,,,,0,note_on,,95.0,39.0,95.0,117840,61.375
1007,0.0,,,,,39.0,,,,,240,note_off,,95.0,39.0,95.0,118080,61.5
1008,0.0,,,,,59.0,,,,,0,note_on,,95.0,59.0,95.0,118080,61.5
1009,0.0,,,,,52.0,,,,,0,note_on,,95.0,52.0,95.0,118080,61.5
1010,0.0,,,,,59.0,,,,,240,note_off,,95.0,59.0,95.0,118320,61.625
1011,0.0,,,,,52.0,,,,,0,note_off,,95.0,52.0,95.0,118320,61.625
1012,0.0,,,,,58.0,,,,,0,note_on,,95.0,58.0,95.0,118320,61.625
1013,0.0,,,,,51.0,,,,,0,note_on,,95.0,51.0,95.0,118320,61.625
1014,0.0,,,,,58.0,,,,,240,note_off,,95.0,58.0,95.0,118560,61.75
1015,0.0,,,,,51.0,,,,,0,note_off,,95.0,51.0,95.0,118560,61.75
1016,0.0,,,,,57.0,,,,,0,note_on,,95.0,57.0,95.0,118560,61.75
1017,0.0,,,,,50.0,,,,,0,note_on,,95.0,50.0,95.0,118560,61.75
1018,0.0,,,,,57.0,,,,,480,note_off,,95.0,57.0,95.0,119040,62.0
1019,0.0,,,,,50.0,,,,,0,note_off,,95.0,50.0,95.0,119040,62.0
1020,0.0,,,,,39.0,,,,,0,note_on,,95.0,39.0,95.0,119040,62.0
1021,0.0,,,,,39.0,,,,,240,note_off,,95.0,39.0,95.0,119280,62.125
1022,0.0,,,,,39.0,,,,,240,note_on,,95.0,39.0,95.0,119520,62.25
1023,0.0,,,,,39.0,,,,,240,note_off,,95.0,39.0,95.0,119760,62.375
1024,0.0,,,,,39.0,,,,,0,note_on,,95.0,39.0,95.0,119760,62.375
1025,1.0,,,,,49.0,,,,,180,note_on,,95.0,49.0,95.0,119940,62.46875
1026,0.0,,,,,39.0,,,,,60,note_off,,95.0,39.0,95.0,120000,62.5
1027,1.0,,,,,49.0,,,,,0,note_off,,95.0,49.0,95.0,120000,62.5
1028,1.0,,,,,51.0,,,,,0,note_on,,95.0,51.0,95.0,120000,62.5
1029,0.0,,,,,39.0,,,,,0,note_on,,95.0,39.0,95.0,120000,62.5
1030,1.0,,,,,51.0,,,,,960,note_off,,95.0,51.0,95.0,120960,63.0
1031,0.0,,,,,39.0,,,,,0,note_off,,95.0,39.0,95.0,120960,63.0
1032,0.0,,,,,39.0,,,,,0,note_on,,95.0,39.0,95.0,120960,63.0
1033,0.0,,,,,39.0,,,,,240,note_off,,95.0,39.0,95.0,121200,63.125
1034,0.0,,,,,39.0,,,,,0,note_on,,95.0,39.0,95.0,121200,63.125
1035,0.0,,,,,39.0,,,,,240,note_off,,95.0,39.0,95.0,121440,63.25
1036,0.0,,,,,39.0,,,,,0,note_on,,95.0,39.0,95.0,121440,63.25
1037,0.0,,,,,39.0,,,,,240,note_off,,95.0,39.0,95.0,121680,63.375
1038,0.0,,,,,39.0,,,,,0,note_on,,95.0,39.0,95.0,121680,63.375
1039,0.0,,,,,39.0,,,,,240,note_off,,95.0,39.0,95.0,121920,63.5
1040,0.0,,,,,49.0,,,,,0,note_on,,95.0,49.0,95.0,121920,63.5
1041,0.0,,,,,42.0,,,,,0,note_on,,95.0,42.0,95.0,121920,63.5
1042,0.0,,,,,49.0,,,,,240,note_off,,95.0,49.0,95.0,122160,63.625
1043,0.0,,,,,42.0,,,,,0,note_off,,95.0,42.0,95.0,122160,63.625
1044,0.0,,,,,48.0,,,,,0,note_on,,95.0,48.0,95.0,122160,63.625
1045,0.0,,,,,41.0,,,,,0,note_on,,95.0,41.0,95.0,122160,63.625
1046,0.0,,,,,48.0,,,,,240,note_off,,95.0,48.0,95.0,122400,63.75
1047,0.0,,,,,41.0,,,,,0,note_off,,95.0,41.0,95.0,122400,63.75
1048,0.0,,,,,47.0,,,,,0,note_on,,95.0,47.0,95.0,122400,63.75
1049,0.0,,,,,40.0,,,,,0,note_on,,95.0,40.0,95.0,122400,63.75
1050,0.0,,,,,47.0,,,,,480,note_off,,95.0,47.0,95.0,122880,64.0
1051,0.0,,,,,40.0,,,,,0,note_off,,95.0,40.0,95.0,122880,64.0
1052,0.0,,,,,48.0,,,,,0,note_on,,95.0,48.0,95.0,122880,64.0
1053,0.0,,,,,41.0,,,,,0,note_on,,95.0,41.0,95.0,122880,64.0
1054,0.0,,,,,48.0,,,,,2880,note_off,,95.0,48.0,95.0,125760,65.5
1055,0.0,,,,,41.0,,,,,0,note_off,,95.0,41.0,95.0,125760,65.5
1056,0.0,,,,,49.0,,,,,0,note_on,,95.0,49.0,95.0,125760,65.5
1057,0.0,,,,,42.0,,,,,0,note_on,,95.0,42.0,95.0,125760,65.5
1058,0.0,,,,,49.0,,,,,960,note_off,,95.0,49.0,95.0,126720,66.0
1059,0.0,,,,,42.0,,,,,0,note_off,,95.0,42.0,95.0,126720,66.0
1060,0.0,,,,,39.0,,,,,0,note_on,,95.0,39.0,95.0,126720,66.0
1061,0.0,,,,,39.0,,,,,240,note_off,,95.0,39.0,95.0,126960,66.125
1062,0.0,,,,,39.0,,,,,0,note_on,,95.0,39.0,95.0,126960,66.125
1063,0.0,,,,,39.0,,,,,240,note_off,,95.0,39.0,95.0,127200,66.25
1064,0.0,,,,,39.0,,,,,0,note_on,,95.0,39.0,95.0,127200,66.25
1065,0.0,,,,,39.0,,,,,240,note_off,,95.0,39.0,95.0,127440,66.375
1066,0.0,,,,,39.0,,,,,0,note_on,,95.0,39.0,95.0,127440,66.375
1067,0.0,,,,,39.0,,,,,240,note_off,,95.0,39.0,95.0,127680,66.5
1068,0.0,,,,,39.0,,,,,0,note_on,,95.0,39.0,95.0,127680,66.5
1069,0.0,,,,,39.0,,,,,240,note_off,,95.0,39.0,95.0,127920,66.625
1070,0.0,,,,,39.0,,,,,0,note_on,,95.0,39.0,95.0,127920,66.625
1071,0.0,,,,,39.0,,,,,240,note_off,,95.0,39.0,95.0,128160,66.75
1072,0.0,,,,,39.0,,,,,0,note_on,,95.0,39.0,95.0,128160,66.75
1073,0.0,,,,,39.0,,,,,240,note_off,,95.0,39.0,95.0,128400,66.875
1074,0.0,,,,,39.0,,,,,0,note_on,,95.0,39.0,95.0,128400,66.875
1075,0.0,,,,,39.0,,,,,240,note_off,,95.0,39.0,95.0,128640,67.0
1076,0.0,,,,,39.0,,,,,0,note_on,,95.0,39.0,95.0,128640,67.0
1077,0.0,,,,,39.0,,,,,240,note_off,,95.0,39.0,95.0,128880,67.125
1078,0.0,,,,,39.0,,,,,0,note_on,,95.0,39.0,95.0,128880,67.125
1079,0.0,,,,,39.0,,,,,240,note_off,,95.0,39.0,95.0,129120,67.25
1080,0.0,,,,,49.0,,,,,0,note_on,,95.0,49.0,95.0,129120,67.25
1081,0.0,,,,,42.0,,,,,0,note_on,,95.0,42.0,95.0,129120,67.25
1082,0.0,,,,,49.0,,,,,480,note_off,,95.0,49.0,95.0,129600,67.5
1083,0.0,,,,,42.0,,,,,0,note_off,,95.0,42.0,95.0,129600,67.5
1084,0.0,,,,,39.0,,,,,0,note_on,,95.0,39.0,95.0,129600,67.5
1085,0.0,,,,,39.0,,,,,240,note_off,,95.0,39.0,95.0,129840,67.625
1086,0.0,,,,,39.0,,,,,0,note_on,,95.0,39.0,95.0,129840,67.625
1087,0.0,,,,,39.0,,,,,240,note_off,,95.0,39.0,95.0,130080,67.75
1088,0.0,,,,,49.0,,,,,0,note_on,,95.0,49.0,95.0,130080,67.75
1089,0.0,,,,,42.0,,,,,0,note_on,,95.0,42.0,95.0,130080,67.75
1090,0.0,,,,,49.0,,,,,480,note_off,,95.0,49.0,95.0,130560,68.0
1091,0.0,,,,,42.0,,,,,0,note_off,,95.0,42.0,95.0,130560,68.0
1092,0.0,,,,,48.0,,,,,0,note_on,,95.0,48.0,95.0,130560,68.0
1093,0.0,,,,,41.0,,,,,0,note_on,,95.0,41.0,95.0,130560,68.0
1094,0.0,,,,,48.0,,,,,2880,note_off,,95.0,48.0,95.0,133440,69.5
1095,0.0,,,,,41.0,,,,,0,note_off,,95.0,41.0,95.0,133440,69.5
1096,0.0,,,,,52.0,,,,,0,note_on,,95.0,52.0,95.0,133440,69.5
1097,0.0,,,,,45.0,,,,,0,note_on,,95.0,45.0,95.0,133440,69.5
1098,0.0,,,,,52.0,,,,,960,note_off,,95.0,52.0,95.0,134400,70.0
1099,0.0,,,,,45.0,,,,,0,note_off,,95.0,45.0,95.0,134400,70.0
1100,0.0,,,,,39.0,,,,,0,note_on,,95.0,39.0,95.0,134400,70.0
1101,0.0,,,,,39.0,,,,,240,note_off,,95.0,39.0,95.0,134640,70.125
1102,0.0,,,,,39.0,,,,,0,note_on,,95.0,39.0,95.0,134640,70.125
1103,0.0,,,,,39.0,,,,,240,note_off,,95.0,39.0,95.0,134880,70.25
1104,0.0,,,,,39.0,,,,,0,note_on,,95.0,39.0,95.0,134880,70.25
1105,0.0,,,,,39.0,,,,,240,note_off,,95.0,39.0,95.0,135120,70.375
1106,0.0,,,,,39.0,,,,,0,note_on,,95.0,39.0,95.0,135120,70.375
1107,0.0,,,,,39.0,,,,,240,note_off,,95.0,39.0,95.0,135360,70.5
1108,0.0,,,,,39.0,,,,,0,note_on,,95.0,39.0,95.0,135360,70.5
1109,0.0,,,,,39.0,,,,,240,note_off,,95.0,39.0,95.0,135600,70.625
1110,0.0,,,,,39.0,,,,,0,note_on,,95.0,39.0,95.0,135600,70.625
1111,0.0,,,,,39.0,,,,,240,note_off,,95.0,39.0,95.0,135840,70.75
1112,0.0,,,,,39.0,,,,,0,note_on,,95.0,39.0,95.0,135840,70.75
1113,0.0,,,,,39.0,,,,,240,note_off,,95.0,39.0,95.0,136080,70.875
1114,0.0,,,,,39.0,,,,,0,note_on,,95.0,39.0,95.0,136080,70.875
1115,0.0,,,,,39.0,,,,,240,note_off,,95.0,39.0,95.0,136320,71.0
1116,0.0,,,,,39.0,,,,,0,note_on,,95.0,39.0,95.0,136320,71.0
1117,0.0,,,,,39.0,,,,,240,note_off,,95.0,39.0,95.0,136560,71.125
1118,0.0,,,,,39.0,,,,,0,note_on,,95.0,39.0,95.0,136560,71.125
1119,0.0,,,,,39.0,,,,,240,note_off,,95.0,39.0,95.0,136800,71.25
1120,0.0,,,,,46.0,,,,,0,note_on,,95.0,46.0,95.0,136800,71.25
1121,0.0,,,,,39.0,,,,,0,note_on,,95.0,39.0,95.0,136800,71.25
1122,0.0,,,,,46.0,,,,,480,note_off,,95.0,46.0,95.0,137280,71.5
1123,0.0,,,,,39.0,,,,,0,note_off,,95.0,39.0,95.0,137280,71.5
1124,0.0,,,,,39.0,,,,,0,note_on,,95.0,39.0,95.0,137280,71.5
1125,0.0,,,,,39.0,,,,,240,note_off,,95.0,39.0,95.0,137520,71.625
1126,0.0,,,,,39.0,,,,,0,note_on,,95.0,39.0,95.0,137520,71.625
1127,0.0,,,,,39.0,,,,,240,note_off,,95.0,39.0,95.0,137760,71.75
1128,0.0,,,,,47.0,,,,,0,note_on,,95.0,47.0,95.0,137760,71.75
1129,0.0,,,,,40.0,,,,,0,note_on,,95.0,40.0,95.0,137760,71.75
1130,0.0,,,,,47.0,,,,,480,note_off,,95.0,47.0,95.0,138240,72.0
1131,0.0,,,,,40.0,,,,,0,note_off,,95.0,40.0,95.0,138240,72.0
1132,0.0,,,,,48.0,,,,,0,note_on,,95.0,48.0,95.0,138240,72.0
1133,0.0,,,,,41.0,,,,,0,note_on,,95.0,41.0,95.0,138240,72.0
1134,0.0,,,,,48.0,,,,,2880,note_off,,95.0,48.0,95.0,141120,73.5
1135,0.0,,,,,41.0,,,,,0,note_off,,95.0,41.0,95.0,141120,73.5
1136,0.0,,,,,49.0,,,,,0,note_on,,95.0,49.0,95.0,141120,73.5
1137,0.0,,,,,42.0,,,,,0,note_on,,95.0,42.0,95.0,141120,73.5
1138,0.0,,,,,49.0,,,,,960,note_off,,95.0,49.0,95.0,142080,74.0
1139,0.0,,,,,42.0,,,,,0,note_off,,95.0,42.0,95.0,142080,74.0
1140,0.0,,,,,39.0,,,,,0,note_on,,95.0,39.0,95.0,142080,74.0
1141,0.0,,,,,39.0,,,,,240,note_off,,95.0,39.0,95.0,142320,74.125
1142,0.0,,,,,39.0,,,,,0,note_on,,95.0,39.0,95.0,142320,74.125
1143,0.0,,,,,39.0,,,,,240,note_off,,95.0,39.0,95.0,142560,74.25
1144,0.0,,,,,39.0,,,,,0,note_on,,95.0,39.0,95.0,142560,74.25
1145,0.0,,,,,39.0,,,,,240,note_off,,95.0,39.0,95.0,142800,74.375
1146,0.0,,,,,39.0,,,,,0,note_on,,95.0,39.0,95.0,142800,74.375
1147,0.0,,,,,39.0,,,,,240,note_off,,95.0,39.0,95.0,143040,74.5
1148,0.0,,,,,39.0,,,,,0,note_on,,95.0,39.0,95.0,143040,74.5
1149,0.0,,,,,39.0,,,,,240,note_off,,95.0,39.0,95.0,143280,74.625
1150,0.0,,,,,39.0,,,,,0,note_on,,95.0,39.0,95.0,143280,74.625
1151,0.0,,,,,39.0,,,,,240,note_off,,95.0,39.0,95.0,143520,74.75
1152,0.0,,,,,39.0,,,,,0,note_on,,95.0,39.0,95.0,143520,74.75
1153,0.0,,,,,39.0,,,,,240,note_off,,95.0,39.0,95.0,143760,74.875
1154,0.0,,,,,39.0,,,,,0,note_on,,95.0,39.0,95.0,143760,74.875
1155,0.0,,,,,39.0,,,,,240,note_off,,95.0,39.0,95.0,144000,75.0
1156,0.0,,,,,39.0,,,,,0,note_on,,95.0,39.0,95.0,144000,75.0
1157,0.0,,,,,39.0,,,,,240,note_off,,95.0,39.0,95.0,144240,75.125
1158,0.0,,,,,39.0,,,,,0,note_on,,95.0,39.0,95.0,144240,75.125
1159,0.0,,,,,39.0,,,,,240,note_off,,95.0,39.0,95.0,144480,75.25
1160,0.0,,,,,49.0,,,,,0,note_on,,95.0,49.0,95.0,144480,75.25
1161,0.0,,,,,42.0,,,,,0,note_on,,95.0,42.0,95.0,144480,75.25
1162,0.0,,,,,49.0,,,,,480,note_off,,95.0,49.0,95.0,144960,75.5
1163,0.0,,,,,42.0,,,,,0,note_off,,95.0,42.0,95.0,144960,75.5
1164,0.0,,,,,39.0,,,,,0,note_on,,95.0,39.0,95.0,144960,75.5
1165,0.0,,,,,39.0,,,,,240,note_off,,95.0,39.0,95.0,145200,75.625
1166,0.0,,,,,39.0,,,,,0,note_on,,95.0,39.0,95.0,145200,75.625
1167,0.0,,,,,39.0,,,,,240,note_off,,95.0,39.0,95.0,145440,75.75
1168,0.0,,,,,49.0,,,,,0,note_on,,95.0,49.0,95.0,145440,75.75
1169,0.0,,,,,42.0,,,,,0,note_on,,95.0,42.0,95.0,145440,75.75
1170,0.0,,,,,49.0,,,,,480,note_off,,95.0,49.0,95.0,145920,76.0
1171,0.0,,,,,42.0,,,,,0,note_off,,95.0,42.0,95.0,145920,76.0
1172,0.0,,,,,48.0,,,,,0,note_on,,95.0,48.0,95.0,145920,76.0
1173,0.0,,,,,41.0,,,,,0,note_on,,95.0,41.0,95.0,145920,76.0
1174,0.0,,,,,48.0,,,,,1920,note_off,,95.0,48.0,95.0,147840,77.0
1175,0.0,,,,,41.0,,,,,0,note_off,,95.0,41.0,95.0,147840,77.0
1176,0.0,,,,,51.0,,,,,0,note_on,,95.0,51.0,95.0,147840,77.0
1177,0.0,,,,,44.0,,,,,0,note_on,,95.0,44.0,95.0,147840,77.0
1178,0.0,,,,,51.0,,,,,960,note_off,,95.0,51.0,95.0,148800,77.5
1179,0.0,,,,,44.0,,,,,0,note_off,,95.0,44.0,95.0,148800,77.5
1180,0.0,,,,,50.0,,,,,0,note_on,,95.0,50.0,95.0,148800,77.5
1181,0.0,,,,,43.0,,,,,0,note_on,,95.0,43.0,95.0,148800,77.5
1182,0.0,,,,,50.0,,,,,480,note_off,,95.0,50.0,95.0,149280,77.75
1183,0.0,,,,,43.0,,,,,0,note_off,,95.0,43.0,95.0,149280,77.75
1184,0.0,,,,,49.0,,,,,0,note_on,,95.0,49.0,95.0,149280,77.75
1185,0.0,,,,,42.0,,,,,0,note_on,,95.0,42.0,95.0,149280,77.75
1186,0.0,,,,,49.0,,,,,480,note_off,,95.0,49.0,95.0,149760,78.0
1187,0.0,,,,,42.0,,,,,0,note_off,,95.0,42.0,95.0,149760,78.0
1188,0.0,,,,,39.0,,,,,0,note_on,,95.0,39.0,95.0,149760,78.0
1189,0.0,,,,,39.0,,,,,240,note_off,,95.0,39.0,95.0,150000,78.125
1190,0.0,,,,,39.0,,,,,0,note_on,,95.0,39.0,95.0,150000,78.125
1191,0.0,,,,,39.0,,,,,240,note_off,,95.0,39.0,95.0,150240,78.25
1192,0.0,,,,,39.0,,,,,240,note_on,,95.0,39.0,95.0,150480,78.375
1193,1.0,,,,,49.0,,,,,180,note_on,,95.0,49.0,95.0,150660,78.46875
1194,0.0,,,,,39.0,,,,,60,note_off,,95.0,39.0,95.0,150720,78.5
1195,1.0,,,,,49.0,,,,,0,note_off,,95.0,49.0,95.0,150720,78.5
1196,1.0,,,,,51.0,,,,,0,note_on,,95.0,51.0,95.0,150720,78.5
1197,0.0,,,,,39.0,,,,,0,note_on,,95.0,39.0,95.0,150720,78.5
1198,1.0,,,,,51.0,,,,,480,note_off,,95.0,51.0,95.0,151200,78.75
1199,0.0,,,,,39.0,,,,,0,note_off,,95.0,39.0,95.0,151200,78.75
1200,0.0,,,,,39.0,,,,,0,note_on,,95.0,39.0,95.0,151200,78.75
1201,0.0,,,,,39.0,,,,,240,note_off,,95.0,39.0,95.0,151440,78.875
1202,0.0,,,,,39.0,,,,,0,note_on,,95.0,39.0,95.0,151440,78.875
1203,0.0,,,,,39.0,,,,,240,note_off,,95.0,39.0,95.0,151680,79.0
1204,0.0,,,,,39.0,,,,,240,note_on,,95.0,39.0,95.0,151920,79.125
1205,0.0,,,,,39.0,,,,,240,note_off,,95.0,39.0,95.0,152160,79.25
1206,0.0,,,,,59.0,,,,,0,note_on,,95.0,59.0,95.0,152160,79.25
1207,0.0,,,,,52.0,,,,,0,note_on,,95.0,52.0,95.0,152160,79.25
1208,0.0,,,,,59.0,,,,,480,note_off,,95.0,59.0,95.0,152640,79.5
1209,0.0,,,,,52.0,,,,,0,note_off,,95.0,52.0,95.0,152640,79.5
1210,0.0,,,,,39.0,,,,,0,note_on,,95.0,39.0,95.0,152640,79.5
1211,0.0,,,,,39.0,,,,,240,note_off,,95.0,39.0,95.0,152880,79.625
1212,0.0,,,,,39.0,,,,,0,note_on,,95.0,39.0,95.0,152880,79.625
1213,0.0,,,,,39.0,,,,,240,note_off,,95.0,39.0,95.0,153120,79.75
1214,0.0,,,,,57.0,,,,,0,note_on,,95.0,57.0,95.0,153120,79.75
1215,0.0,,,,,50.0,,,,,0,note_on,,95.0,50.0,95.0,153120,79.75
1216,0.0,,,,,57.0,,,,,480,note_off,,95.0,57.0,95.0,153600,80.0
1217,0.0,,,,,50.0,,,,,0,note_off,,95.0,50.0,95.0,153600,80.0
1218,0.0,,,,,39.0,,,,,0,note_on,,95.0,39.0,95.0,153600,80.0
1219,0.0,,,,,39.0,,,,,240,note_off,,95.0,39.0,95.0,153840,80.125
1220,0.0,,,,,39.0,,,,,0,note_on,,95.0,39.0,95.0,153840,80.125
1221,0.0,,,,,39.0,,,,,240,note_off,,95.0,39.0,95.0,154080,80.25
1222,0.0,,,,,39.0,,,,,240,note_on,,95.0,39.0,95.0,154320,80.375
1223,1.0,,,,,49.0,,,,,180,note_on,,95.0,49.0,95.0,154500,80.46875
1224,0.0,,,,,39.0,,,,,60,note_off,,95.0,39.0,95.0,154560,80.5
1225,1.0,,,,,49.0,,,,,0,note_off,,95.0,49.0,95.0,154560,80.5
1226,1.0,,,,,51.0,,,,,0,note_on,,95.0,51.0,95.0,154560,80.5
1227,0.0,,,,,39.0,,,,,0,note_on,,95.0,39.0,95.0,154560,80.5
1228,1.0,,,,,51.0,,,,,480,note_off,,95.0,51.0,95.0,155040,80.75
1229,0.0,,,,,39.0,,,,,0,note_off,,95.0,39.0,95.0,155040,80.75
1230,0.0,,,,,39.0,,,,,0,note_on,,95.0,39.0,95.0,155040,80.75
1231,0.0,,,,,39.0,,,,,240,note_off,,95.0,39.0,95.0,155280,80.875
1232,0.0,,,,,39.0,,,,,0,note_on,,95.0,39.0,95.0,155280,80.875
1233,0.0,,,,,39.0,,,,,240,note_off,,95.0,39.0,95.0,155520,81.0
1234,0.0,,,,,39.0,,,,,240,note_on,,95.0,39.0,95.0,155760,81.125
1235,0.0,,,,,39.0,,,,,240,note_off,,95.0,39.0,95.0,156000,81.25
1236,0.0,,,,,61.0,,,,,0,note_on,,95.0,61.0,95.0,156000,81.25
1237,0.0,,,,,54.0,,,,,0,note_on,,95.0,54.0,95.0,156000,81.25
1238,0.0,,,,,61.0,,,,,480,note_off,,95.0,61.0,95.0,156480,81.5
1239,0.0,,,,,54.0,,,,,0,note_off,,95.0,54.0,95.0,156480,81.5
1240,0.0,,,,,39.0,,,,,0,note_on,,95.0,39.0,95.0,156480,81.5
1241,0.0,,,,,39.0,,,,,240,note_off,,95.0,39.0,95.0,156720,81.625
1242,0.0,,,,,39.0,,,,,0,note_on,,95.0,39.0,95.0,156720,81.625
1243,0.0,,,,,39.0,,,,,240,note_off,,95.0,39.0,95.0,156960,81.75
1244,0.0,,,,,60.0,,,,,0,note_on,,95.0,60.0,95.0,156960,81.75
1245,0.0,,,,,53.0,,,,,0,note_on,,95.0,53.0,95.0,156960,81.75
1246,0.0,,,,,60.0,,,,,480,note_off,,95.0,60.0,95.0,157440,82.0
1247,0.0,,,,,53.0,,,,,0,note_off,,95.0,53.0,95.0,157440,82.0
1248,0.0,,,,,39.0,,,,,0,note_on,,95.0,39.0,95.0,157440,82.0
1249,0.0,,,,,39.0,,,,,240,note_off,,95.0,39.0,95.0,157680,82.125
1250,0.0,,,,,39.0,,,,,0,note_on,,95.0,39.0,95.0,157680,82.125
1251,0.0,,,,,39.0,,,,,240,note_off,,95.0,39.0,95.0,157920,82.25
1252,0.0,,,,,39.0,,,,,240,note_on,,95.0,39.0,95.0,158160,82.375
1253,1.0,,,,,49.0,,,,,180,note_on,,95.0,49.0,95.0,158340,82.46875
1254,0.0,,,,,39.0,,,,,60,note_off,,95.0,39.0,95.0,158400,82.5
1255,1.0,,,,,49.0,,,,,0,note_off,,95.0,49.0,95.0,158400,82.5
1256,1.0,,,,,51.0,,,,,0,note_on,,95.0,51.0,95.0,158400,82.5
1257,0.0,,,,,39.0,,,,,0,note_on,,95.0,39.0,95.0,158400,82.5
1258,1.0,,,,,51.0,,,,,480,note_off,,95.0,51.0,95.0,158880,82.75
1259,0.0,,,,,39.0,,,,,0,note_off,,95.0,39.0,95.0,158880,82.75
1260,0.0,,,,,39.0,,,,,0,note_on,,95.0,39.0,95.0,158880,82.75
1261,0.0,,,,,39.0,,,,,240,note_off,,95.0,39.0,95.0,159120,82.875
1262,0.0,,,,,39.0,,,,,0,note_on,,95.0,39.0,95.0,159120,82.875
1263,0.0,,,,,39.0,,,,,240,note_off,,95.0,39.0,95.0,159360,83.0
1264,0.0,,,,,39.0,,,,,240,note_on,,95.0,39.0,95.0,159600,83.125
1265,0.0,,,,,39.0,,,,,240,note_off,,95.0,39.0,95.0,159840,83.25
1266,0.0,,,,,59.0,,,,,0,note_on,,95.0,59.0,95.0,159840,83.25
1267,0.0,,,,,52.0,,,,,0,note_on,,95.0,52.0,95.0,159840,83.25
1268,0.0,,,,,59.0,,,,,480,note_off,,95.0,59.0,95.0,160320,83.5
1269,0.0,,,,,52.0,,,,,0,note_off,,95.0,52.0,95.0,160320,83.5
1270,0.0,,,,,39.0,,,,,0,note_on,,95.0,39.0,95.0,160320,83.5
1271,0.0,,,,,39.0,,,,,240,note_off,,95.0,39.0,95.0,160560,83.625
1272,0.0,,,,,39.0,,,,,0,note_on,,95.0,39.0,95.0,160560,83.625
1273,0.0,,,,,39.0,,,,,240,note_off,,95.0,39.0,95.0,160800,83.75
1274,0.0,,,,,57.0,,,,,0,note_on,,95.0,57.0,95.0,160800,83.75
1275,0.0,,,,,50.0,,,,,0,note_on,,95.0,50.0,95.0,160800,83.75
1276,0.0,,,,,57.0,,,,,480,note_off,,95.0,57.0,95.0,161280,84.0
1277,0.0,,,,,50.0,,,,,0,note_off,,95.0,50.0,95.0,161280,84.0
1278,0.0,,,,,39.0,,,,,0,note_on,,95.0,39.0,95.0,161280,84.0
1279,0.0,,,,,39.0,,,,,240,note_off,,95.0,39.0,95.0,161520,84.125
1280,0.0,,,,,39.0,,,,,0,note_on,,95.0,39.0,95.0,161520,84.125
1281,0.0,,,,,39.0,,,,,240,note_off,,95.0,39.0,95.0,161760,84.25
1282,0.0,,,,,39.0,,,,,240,note_on,,95.0,39.0,95.0,162000,84.375
1283,1.0,,,,,49.0,,,,,180,note_on,,95.0,49.0,95.0,162180,84.46875
1284,0.0,,,,,39.0,,,,,60,note_off,,95.0,39.0,95.0,162240,84.5
1285,1.0,,,,,49.0,,,,,0,note_off,,95.0,49.0,95.0,162240,84.5
1286,1.0,,,,,51.0,,,,,0,note_on,,95.0,51.0,95.0,162240,84.5
1287,0.0,,,,,39.0,,,,,0,note_on,,95.0,39.0,95.0,162240,84.5
1288,1.0,,,,,51.0,,,,,480,note_off,,95.0,51.0,95.0,162720,84.75
1289,0.0,,,,,39.0,,,,,0,note_off,,95.0,39.0,95.0,162720,84.75
1290,0.0,,,,,39.0,,,,,0,note_on,,95.0,39.0,95.0,162720,84.75
1291,0.0,,,,,39.0,,,,,240,note_off,,95.0,39.0,95.0,162960,84.875
1292,0.0,,,,,39.0,,,,,0,note_on,,95.0,39.0,95.0,162960,84.875
1293,0.0,,,,,39.0,,,,,240,note_off,,95.0,39.0,95.0,163200,85.0
1294,0.0,,,,,39.0,,,,,240,note_on,,95.0,39.0,95.0,163440,85.125
1295,0.0,,,,,39.0,,,,,240,note_off,,95.0,39.0,95.0,163680,85.25
1296,0.0,,,,,49.0,,,,,0,note_on,,95.0,49.0,95.0,163680,85.25
1297,0.0,,,,,42.0,,,,,0,note_on,,95.0,42.0,95.0,163680,85.25
1298,0.0,,,,,49.0,,,,,480,note_off,,95.0,49.0,95.0,164160,85.5
1299,0.0,,,,,42.0,,,,,0,note_off,,95.0,42.0,95.0,164160,85.5
1300,0.0,,,,,39.0,,,,,0,note_on,,95.0,39.0,95.0,164160,85.5
1301,0.0,,,,,39.0,,,,,240,note_off,,95.0,39.0,95.0,164400,85.625
1302,0.0,,,,,39.0,,,,,0,note_on,,95.0,39.0,95.0,164400,85.625
1303,0.0,,,,,39.0,,,,,240,note_off,,95.0,39.0,95.0,164640,85.75
1304,0.0,,,,,48.0,,,,,0,note_on,,95.0,48.0,95.0,164640,85.75
1305,0.0,,,,,41.0,,,,,0,note_on,,95.0,41.0,95.0,164640,85.75
1306,0.0,,,,,48.0,,,,,480,note_off,,95.0,48.0,95.0,165120,86.0
1307,0.0,,,,,41.0,,,,,0,note_off,,95.0,41.0,95.0,165120,86.0
1308,0.0,,,,,39.0,,,,,0,note_on,,95.0,39.0,95.0,165120,86.0
1309,0.0,,,,,39.0,,,,,240,note_off,,95.0,39.0,95.0,165360,86.125
1310,0.0,,,,,39.0,,,,,0,note_on,,95.0,39.0,95.0,165360,86.125
1311,0.0,,,,,39.0,,,,,240,note_off,,95.0,39.0,95.0,165600,86.25
1312,0.0,,,,,39.0,,,,,240,note_on,,95.0,39.0,95.0,165840,86.375
1313,1.0,,,,,49.0,,,,,180,note_on,,95.0,49.0,95.0,166020,86.46875
1314,0.0,,,,,39.0,,,,,60,note_off,,95.0,39.0,95.0,166080,86.5
1315,1.0,,,,,49.0,,,,,0,note_off,,95.0,49.0,95.0,166080,86.5
1316,1.0,,,,,51.0,,,,,0,note_on,,95.0,51.0,95.0,166080,86.5
1317,0.0,,,,,39.0,,,,,0,note_on,,95.0,39.0,95.0,166080,86.5
1318,1.0,,,,,51.0,,,,,480,note_off,,95.0,51.0,95.0,166560,86.75
1319,0.0,,,,,39.0,,,,,0,note_off,,95.0,39.0,95.0,166560,86.75
1320,0.0,,,,,39.0,,,,,0,note_on,,95.0,39.0,95.0,166560,86.75
1321,0.0,,,,,39.0,,,,,240,note_off,,95.0,39.0,95.0,166800,86.875
1322,0.0,,,,,39.0,,,,,0,note_on,,95.0,39.0,95.0,166800,86.875
1323,0.0,,,,,39.0,,,,,240,note_off,,95.0,39.0,95.0,167040,87.0
1324,0.0,,,,,39.0,,,,,240,note_on,,95.0,39.0,95.0,167280,87.125
1325,0.0,,,,,39.0,,,,,240,note_off,,95.0,39.0,95.0,167520,87.25
1326,0.0,,,,,59.0,,,,,0,note_on,,95.0,59.0,95.0,167520,87.25
1327,0.0,,,,,52.0,,,,,0,note_on,,95.0,52.0,95.0,167520,87.25
1328,0.0,,,,,59.0,,,,,480,note_off,,95.0,59.0,95.0,168000,87.5
1329,0.0,,,,,52.0,,,,,0,note_off,,95.0,52.0,95.0,168000,87.5
1330,0.0,,,,,39.0,,,,,0,note_on,,95.0,39.0,95.0,168000,87.5
1331,0.0,,,,,39.0,,,,,240,note_off,,95.0,39.0,95.0,168240,87.625
1332,0.0,,,,,39.0,,,,,0,note_on,,95.0,39.0,95.0,168240,87.625
1333,0.0,,,,,39.0,,,,,240,note_off,,95.0,39.0,95.0,168480,87.75
1334,0.0,,,,,57.0,,,,,0,note_on,,95.0,57.0,95.0,168480,87.75
1335,0.0,,,,,50.0,,,,,0,note_on,,95.0,50.0,95.0,168480,87.75
1336,0.0,,,,,57.0,,,,,480,note_off,,95.0,57.0,95.0,168960,88.0
1337,0.0,,,,,50.0,,,,,0,note_off,,95.0,50.0,95.0,168960,88.0
1338,0.0,,,,,39.0,,,,,0,note_on,,95.0,39.0,95.0,168960,88.0
1339,0.0,,,,,39.0,,,,,240,note_off,,95.0,39.0,95.0,169200,88.125
1340,0.0,,,,,39.0,,,,,0,note_on,,95.0,39.0,95.0,169200,88.125
1341,0.0,,,,,39.0,,,,,240,note_off,,95.0,39.0,95.0,169440,88.25
1342,0.0,,,,,39.0,,,,,240,note_on,,95.0,39.0,95.0,169680,88.375
1343,1.0,,,,,49.0,,,,,180,note_on,,95.0,49.0,95.0,169860,88.46875
1344,0.0,,,,,39.0,,,,,60,note_off,,95.0,39.0,95.0,169920,88.5
1345,1.0,,,,,49.0,,,,,0,note_off,,95.0,49.0,95.0,169920,88.5
1346,1.0,,,,,51.0,,,,,0,note_on,,95.0,51.0,95.0,169920,88.5
1347,0.0,,,,,39.0,,,,,0,note_on,,95.0,39.0,95.0,169920,88.5
1348,1.0,,,,,51.0,,,,,480,note_off,,95.0,51.0,95.0,170400,88.75
1349,0.0,,,,,39.0,,,,,0,note_off,,95.0,39.0,95.0,170400,88.75
1350,0.0,,,,,39.0,,,,,0,note_on,,95.0,39.0,95.0,170400,88.75
1351,0.0,,,,,39.0,,,,,240,note_off,,95.0,39.0,95.0,170640,88.875
1352,0.0,,,,,39.0,,,,,0,note_on,,95.0,39.0,95.0,170640,88.875
1353,0.0,,,,,39.0,,,,,240,note_off,,95.0,39.0,95.0,170880,89.0
1354,0.0,,,,,39.0,,,,,240,note_on,,95.0,39.0,95.0,171120,89.125
1355,0.0,,,,,39.0,,,,,240,note_off,,95.0,39.0,95.0,171360,89.25
1356,0.0,,,,,61.0,,,,,0,note_on,,95.0,61.0,95.0,171360,89.25
1357,0.0,,,,,54.0,,,,,0,note_on,,95.0,54.0,95.0,171360,89.25
1358,0.0,,,,,61.0,,,,,480,note_off,,95.0,61.0,95.0,171840,89.5
1359,0.0,,,,,54.0,,,,,0,note_off,,95.0,54.0,95.0,171840,89.5
1360,0.0,,,,,39.0,,,,,0,note_on,,95.0,39.0,95.0,171840,89.5
1361,0.0,,,,,39.0,,,,,240,note_off,,95.0,39.0,95.0,172080,89.625
1362,0.0,,,,,39.0,,,,,0,note_on,,95.0,39.0,95.0,172080,89.625
1363,0.0,,,,,39.0,,,,,240,note_off,,95.0,39.0,95.0,172320,89.75
1364,0.0,,,,,60.0,,,,,0,note_on,,95.0,60.0,95.0,172320,89.75
1365,0.0,,,,,53.0,,,,,0,note_on,,95.0,53.0,95.0,172320,89.75
1366,0.0,,,,,60.0,,,,,480,note_off,,95.0,60.0,95.0,172800,90.0
1367,0.0,,,,,53.0,,,,,0,note_off,,95.0,53.0,95.0,172800,90.0
1368,0.0,,,,,39.0,,,,,0,note_on,,95.0,39.0,95.0,172800,90.0
1369,0.0,,,,,39.0,,,,,240,note_off,,95.0,39.0,95.0,173040,90.125
1370,0.0,,,,,39.0,,,,,0,note_on,,95.0,39.0,95.0,173040,90.125
1371,0.0,,,,,39.0,,,,,240,note_off,,95.0,39.0,95.0,173280,90.25
1372,0.0,,,,,39.0,,,,,240,note_on,,95.0,39.0,95.0,173520,90.375
1373,1.0,,,,,49.0,,,,,180,note_on,,95.0,49.0,95.0,173700,90.46875
1374,0.0,,,,,39.0,,,,,60,note_off,,95.0,39.0,95.0,173760,90.5
1375,1.0,,,,,49.0,,,,,0,note_off,,95.0,49.0,95.0,173760,90.5
1376,1.0,,,,,51.0,,,,,0,note_on,,95.0,51.0,95.0,173760,90.5
1377,0.0,,,,,39.0,,,,,0,note_on,,95.0,39.0,95.0,173760,90.5
1378,1.0,,,,,51.0,,,,,480,note_off,,95.0,51.0,95.0,174240,90.75
1379,0.0,,,,,39.0,,,,,0,note_off,,95.0,39.0,95.0,174240,90.75
1380,0.0,,,,,39.0,,,,,0,note_on,,95.0,39.0,95.0,174240,90.75
1381,0.0,,,,,39.0,,,,,240,note_off,,95.0,39.0,95.0,174480,90.875
1382,0.0,,,,,39.0,,,,,0,note_on,,95.0,39.0,95.0,174480,90.875
1383,0.0,,,,,39.0,,,,,240,note_off,,95.0,39.0,95.0,174720,91.0
1384,0.0,,,,,39.0,,,,,240,note_on,,95.0,39.0,95.0,174960,91.125
1385,0.0,,,,,39.0,,,,,240,note_off,,95.0,39.0,95.0,175200,91.25
1386,0.0,,,,,59.0,,,,,0,note_on,,95.0,59.0,95.0,175200,91.25
1387,0.0,,,,,52.0,,,,,0,note_on,,95.0,52.0,95.0,175200,91.25
1388,0.0,,,,,59.0,,,,,480,note_off,,95.0,59.0,95.0,175680,91.5
1389,0.0,,,,,52.0,,,,,0,note_off,,95.0,52.0,95.0,175680,91.5
1390,0.0,,,,,39.0,,,,,0,note_on,,95.0,39.0,95.0,175680,91.5
1391,0.0,,,,,39.0,,,,,240,note_off,,95.0,39.0,95.0,175920,91.625
1392,0.0,,,,,39.0,,,,,0,note_on,,95.0,39.0,95.0,175920,91.625
1393,0.0,,,,,39.0,,,,,240,note_off,,95.0,39.0,95.0,176160,91.75
1394,0.0,,,,,57.0,,,,,0,note_on,,95.0,57.0,95.0,176160,91.75
1395,0.0,,,,,50.0,,,,,0,note_on,,95.0,50.0,95.0,176160,91.75
1396,0.0,,,,,57.0,,,,,480,note_off,,95.0,57.0,95.0,176640,92.0
1397,0.0,,,,,50.0,,,,,0,note_off,,95.0,50.0,95.0,176640,92.0
1398,0.0,,,,,39.0,,,,,0,note_on,,95.0,39.0,95.0,176640,92.0
1399,0.0,,,,,39.0,,,,,240,note_off,,95.0,39.0,95.0,176880,92.125
1400,0.0,,,,,39.0,,,,,0,note_on,,95.0,39.0,95.0,176880,92.125
1401,0.0,,,,,39.0,,,,,240,note_off,,95.0,39.0,95.0,177120,92.25
1402,0.0,,,,,39.0,,,,,240,note_on,,95.0,39.0,95.0,177360,92.375
1403,1.0,,,,,49.0,,,,,180,note_on,,95.0,49.0,95.0,177540,92.46875
1404,0.0,,,,,39.0,,,,,60,note_off,,95.0,39.0,95.0,177600,92.5
1405,1.0,,,,,49.0,,,,,0,note_off,,95.0,49.0,95.0,177600,92.5
1406,1.0,,,,,51.0,,,,,0,note_on,,95.0,51.0,95.0,177600,92.5
1407,0.0,,,,,39.0,,,,,0,note_on,,95.0,39.0,95.0,177600,92.5
1408,1.0,,,,,51.0,,,,,480,note_off,,95.0,51.0,95.0,178080,92.75
1409,0.0,,,,,39.0,,,,,0,note_off,,95.0,39.0,95.0,178080,92.75
1410,0.0,,,,,39.0,,,,,0,note_on,,95.0,39.0,95.0,178080,92.75
1411,0.0,,,,,39.0,,,,,240,note_off,,95.0,39.0,95.0,178320,92.875
1412,0.0,,,,,39.0,,,,,0,note_on,,95.0,39.0,95.0,178320,92.875
1413,0.0,,,,,39.0,,,,,240,note_off,,95.0,39.0,95.0,178560,93.0
1414,0.0,,,,,39.0,,,,,240,note_on,,95.0,39.0,95.0,178800,93.125
1415,0.0,,,,,39.0,,,,,240,note_off,,95.0,39.0,95.0,179040,93.25
1416,0.0,,,,,49.0,,,,,0,note_on,,95.0,49.0,95.0,179040,93.25
1417,0.0,,,,,42.0,,,,,0,note_on,,95.0,42.0,95.0,179040,93.25
1418,0.0,,,,,49.0,,,,,480,note_off,,95.0,49.0,95.0,179520,93.5
1419,0.0,,,,,42.0,,,,,0,note_off,,95.0,42.0,95.0,179520,93.5
1420,0.0,,,,,39.0,,,,,0,note_on,,95.0,39.0,95.0,179520,93.5
1421,0.0,,,,,39.0,,,,,240,note_off,,95.0,39.0,95.0,179760,93.625
1422,0.0,,,,,39.0,,,,,0,note_on,,95.0,39.0,95.0,179760,93.625
1423,0.0,,,,,39.0,,,,,240,note_off,,95.0,39.0,95.0,180000,93.75
1424,0.0,,,,,48.0,,,,,0,note_on,,95.0,48.0,95.0,180000,93.75
1425,0.0,,,,,41.0,,,,,0,note_on,,95.0,41.0,95.0,180000,93.75
1426,0.0,,,,,48.0,,,,,480,note_off,,95.0,48.0,95.0,180480,94.0
1427,0.0,,,,,41.0,,,,,0,note_off,,95.0,41.0,95.0,180480,94.0
1428,0.0,,,,,39.0,,,,,0,note_on,,95.0,39.0,95.0,180480,94.0
1429,0.0,,,,,39.0,,,,,240,note_off,,95.0,39.0,95.0,180720,94.125
1430,0.0,,,,,39.0,,,,,240,note_on,,95.0,39.0,95.0,180960,94.25
1431,0.0,,,,,39.0,,,,,240,note_off,,95.0,39.0,95.0,181200,94.375
1432,0.0,,,,,39.0,,,,,0,note_on,,95.0,39.0,95.0,181200,94.375
1433,1.0,,,,,49.0,,,,,180,note_on,,95.0,49.0,95.0,181380,94.46875
1434,0.0,,,,,39.0,,,,,60,note_off,,95.0,39.0,95.0,181440,94.5
1435,1.0,,,,,49.0,,,,,0,note_off,,95.0,49.0,95.0,181440,94.5
1436,1.0,,,,,51.0,,,,,0,note_on,,95.0,51.0,95.0,181440,94.5
1437,0.0,,,,,39.0,,,,,0,note_on,,95.0,39.0,95.0,181440,94.5
1438,1.0,,,,,51.0,,,,,960,note_off,,95.0,51.0,95.0,182400,95.0
1439,0.0,,,,,39.0,,,,,0,note_off,,95.0,39.0,95.0,182400,95.0
1440,0.0,,,,,39.0,,,,,0,note_on,,95.0,39.0,95.0,182400,95.0
1441,0.0,,,,,39.0,,,,,240,note_off,,95.0,39.0,95.0,182640,95.125
1442,0.0,,,,,39.0,,,,,240,note_on,,95.0,39.0,95.0,182880,95.25
1443,0.0,,,,,39.0,,,,,240,note_off,,95.0,39.0,95.0,183120,95.375
1444,0.0,,,,,39.0,,,,,0,note_on,,95.0,39.0,95.0,183120,95.375
1445,0.0,,,,,39.0,,,,,240,note_off,,95.0,39.0,95.0,183360,95.5
1446,0.0,,,,,59.0,,,,,0,note_on,,95.0,59.0,95.0,183360,95.5
1447,0.0,,,,,52.0,,,,,0,note_on,,95.0,52.0,95.0,183360,95.5
1448,0.0,,,,,59.0,,,,,240,note_off,,95.0,59.0,95.0,183600,95.625
1449,0.0,,,,,52.0,,,,,0,note_off,,95.0,52.0,95.0,183600,95.625
1450,0.0,,,,,58.0,,,,,0,note_on,,95.0,58.0,95.0,183600,95.625
1451,0.0,,,,,51.0,,,,,0,note_on,,95.0,51.0,95.0,183600,95.625
1452,0.0,,,,,58.0,,,,,240,note_off,,95.0,58.0,95.0,183840,95.75
1453,0.0,,,,,51.0,,,,,0,note_off,,95.0,51.0,95.0,183840,95.75
1454,0.0,,,,,57.0,,,,,0,note_on,,95.0,57.0,95.0,183840,95.75
1455,0.0,,,,,50.0,,,,,0,note_on,,95.0,50.0,95.0,183840,95.75
1456,0.0,,,,,57.0,,,,,480,note_off,,95.0,57.0,95.0,184320,96.0
1457,0.0,,,,,50.0,,,,,0,note_off,,95.0,50.0,95.0,184320,96.0
1458,0.0,,,,,39.0,,,,,0,note_on,,95.0,39.0,95.0,184320,96.0
1459,0.0,,,,,39.0,,,,,240,note_off,,95.0,39.0,95.0,184560,96.125
1460,0.0,,,,,39.0,,,,,240,note_on,,95.0,39.0,95.0,184800,96.25
1461,0.0,,,,,39.0,,,,,240,note_off,,95.0,39.0,95.0,185040,96.375
1462,0.0,,,,,39.0,,,,,0,note_on,,95.0,39.0,95.0,185040,96.375
1463,1.0,,,,,49.0,,,,,180,note_on,,95.0,49.0,95.0,185220,96.46875
1464,0.0,,,,,39.0,,,,,60,note_off,,95.0,39.0,95.0,185280,96.5
1465,1.0,,,,,49.0,,,,,0,note_off,,95.0,49.0,95.0,185280,96.5
1466,1.0,,,,,51.0,,,,,0,note_on,,95.0,51.0,95.0,185280,96.5
1467,0.0,,,,,39.0,,,,,0,note_on,,95.0,39.0,95.0,185280,96.5
1468,1.0,,,,,51.0,,,,,960,note_off,,95.0,51.0,95.0,186240,97.0
1469,0.0,,,,,39.0,,,,,0,note_off,,95.0,39.0,95.0,186240,97.0
1470,0.0,,,,,39.0,,,,,0,note_on,,95.0,39.0,95.0,186240,97.0
1471,0.0,,,,,39.0,,,,,240,note_off,,95.0,39.0,95.0,186480,97.125
1472,0.0,,,,,39.0,,,,,240,note_on,,95.0,39.0,95.0,186720,97.25
1473,0.0,,,,,39.0,,,,,240,note_off,,95.0,39.0,95.0,186960,97.375
1474,0.0,,,,,39.0,,,,,0,note_on,,95.0,39.0,95.0,186960,97.375
1475,0.0,,,,,39.0,,,,,240,note_off,,95.0,39.0,95.0,187200,97.5
1476,0.0,,,,,61.0,,,,,0,note_on,,95.0,61.0,95.0,187200,97.5
1477,0.0,,,,,54.0,,,,,0,note_on,,95.0,54.0,95.0,187200,97.5
1478,0.0,,,,,61.0,,,,,240,note_off,,95.0,61.0,95.0,187440,97.625
1479,0.0,,,,,54.0,,,,,0,note_off,,95.0,54.0,95.0,187440,97.625
1480,0.0,,,,,60.0,,,,,0,note_on,,95.0,60.0,95.0,187440,97.625
1481,0.0,,,,,53.0,,,,,0,note_on,,95.0,53.0,95.0,187440,97.625
1482,0.0,,,,,60.0,,,,,240,note_off,,95.0,60.0,95.0,187680,97.75
1483,0.0,,,,,53.0,,,,,0,note_off,,95.0,53.0,95.0,187680,97.75
1484,0.0,,,,,59.0,,,,,0,note_on,,95.0,59.0,95.0,187680,97.75
1485,0.0,,,,,52.0,,,,,0,note_on,,95.0,52.0,95.0,187680,97.75
1486,0.0,,,,,59.0,,,,,480,note_off,,95.0,59.0,95.0,188160,98.0
1487,0.0,,,,,52.0,,,,,0,note_off,,95.0,52.0,95.0,188160,98.0
1488,0.0,,,,,39.0,,,,,0,note_on,,95.0,39.0,95.0,188160,98.0
1489,0.0,,,,,39.0,,,,,240,note_off,,95.0,39.0,95.0,188400,98.125
1490,0.0,,,,,39.0,,,,,240,note_on,,95.0,39.0,95.0,188640,98.25
1491,0.0,,,,,39.0,,,,,240,note_off,,95.0,39.0,95.0,188880,98.375
1492,0.0,,,,,39.0,,,,,0,note_on,,95.0,39.0,95.0,188880,98.375
1493,1.0,,,,,49.0,,,,,180,note_on,,95.0,49.0,95.0,189060,98.46875
1494,0.0,,,,,39.0,,,,,60,note_off,,95.0,39.0,95.0,189120,98.5
1495,1.0,,,,,49.0,,,,,0,note_off,,95.0,49.0,95.0,189120,98.5
1496,1.0,,,,,51.0,,,,,0,note_on,,95.0,51.0,95.0,189120,98.5
1497,0.0,,,,,39.0,,,,,0,note_on,,95.0,39.0,95.0,189120,98.5
1498,1.0,,,,,51.0,,,,,960,note_off,,95.0,51.0,95.0,190080,99.0
1499,0.0,,,,,39.0,,,,,0,note_off,,95.0,39.0,95.0,190080,99.0
1500,0.0,,,,,39.0,,,,,0,note_on,,95.0,39.0,95.0,190080,99.0
1501,0.0,,,,,39.0,,,,,240,note_off,,95.0,39.0,95.0,190320,99.125
1502,0.0,,,,,39.0,,,,,240,note_on,,95.0,39.0,95.0,190560,99.25
1503,0.0,,,,,39.0,,,,,240,note_off,,95.0,39.0,95.0,190800,99.375
1504,0.0,,,,,39.0,,,,,0,note_on,,95.0,39.0,95.0,190800,99.375
1505,0.0,,,,,39.0,,,,,240,note_off,,95.0,39.0,95.0,191040,99.5
1506,0.0,,,,,59.0,,,,,0,note_on,,95.0,59.0,95.0,191040,99.5
1507,0.0,,,,,52.0,,,,,0,note_on,,95.0,52.0,95.0,191040,99.5
1508,0.0,,,,,59.0,,,,,240,note_off,,95.0,59.0,95.0,191280,99.625
1509,0.0,,,,,52.0,,,,,0,note_off,,95.0,52.0,95.0,191280,99.625
1510,0.0,,,,,58.0,,,,,0,note_on,,95.0,58.0,95.0,191280,99.625
1511,0.0,,,,,51.0,,,,,0,note_on,,95.0,51.0,95.0,191280,99.625
1512,0.0,,,,,58.0,,,,,240,note_off,,95.0,58.0,95.0,191520,99.75
1513,0.0,,,,,51.0,,,,,0,note_off,,95.0,51.0,95.0,191520,99.75
1514,0.0,,,,,57.0,,,,,0,note_on,,95.0,57.0,95.0,191520,99.75
1515,0.0,,,,,50.0,,,,,0,note_on,,95.0,50.0,95.0,191520,99.75
1516,0.0,,,,,57.0,,,,,480,note_off,,95.0,57.0,95.0,192000,100.0
1517,0.0,,,,,50.0,,,,,0,note_off,,95.0,50.0,95.0,192000,100.0
1518,0.0,,,,,39.0,,,,,0,note_on,,95.0,39.0,95.0,192000,100.0
1519,0.0,,,,,39.0,,,,,240,note_off,,95.0,39.0,95.0,192240,100.125
1520,0.0,,,,,39.0,,,,,240,note_on,,95.0,39.0,95.0,192480,100.25
1521,0.0,,,,,39.0,,,,,240,note_off,,95.0,39.0,95.0,192720,100.375
1522,0.0,,,,,39.0,,,,,0,note_on,,95.0,39.0,95.0,192720,100.375
1523,1.0,,,,,49.0,,,,,180,note_on,,95.0,49.0,95.0,192900,100.46875
1524,0.0,,,,,39.0,,,,,60,note_off,,95.0,39.0,95.0,192960,100.5
1525,1.0,,,,,49.0,,,,,0,note_off,,95.0,49.0,95.0,192960,100.5
1526,1.0,,,,,51.0,,,,,0,note_on,,95.0,51.0,95.0,192960,100.5
1527,0.0,,,,,39.0,,,,,0,note_on,,95.0,39.0,95.0,192960,100.5
1528,1.0,,,,,51.0,,,,,960,note_off,,95.0,51.0,95.0,193920,101.0
1529,0.0,,,,,39.0,,,,,0,note_off,,95.0,39.0,95.0,193920,101.0
1530,0.0,,,,,39.0,,,,,0,note_on,,95.0,39.0,95.0,193920,101.0
1531,0.0,,,,,39.0,,,,,240,note_off,,95.0,39.0,95.0,194160,101.125
1532,0.0,,,,,39.0,,,,,0,note_on,,95.0,39.0,95.0,194160,101.125
1533,0.0,,,,,39.0,,,,,240,note_off,,95.0,39.0,95.0,194400,101.25
1534,0.0,,,,,39.0,,,,,0,note_on,,95.0,39.0,95.0,194400,101.25
1535,0.0,,,,,39.0,,,,,240,note_off,,95.0,39.0,95.0,194640,101.375
1536,0.0,,,,,39.0,,,,,0,note_on,,95.0,39.0,95.0,194640,101.375
1537,0.0,,,,,39.0,,,,,240,note_off,,95.0,39.0,95.0,194880,101.5
1538,0.0,,,,,49.0,,,,,0,note_on,,95.0,49.0,95.0,194880,101.5
1539,0.0,,,,,42.0,,,,,0,note_on,,95.0,42.0,95.0,194880,101.5
1540,0.0,,,,,49.0,,,,,240,note_off,,95.0,49.0,95.0,195120,101.625
1541,0.0,,,,,42.0,,,,,0,note_off,,95.0,42.0,95.0,195120,101.625
1542,0.0,,,,,48.0,,,,,0,note_on,,95.0,48.0,95.0,195120,101.625
1543,0.0,,,,,41.0,,,,,0,note_on,,95.0,41.0,95.0,195120,101.625
1544,0.0,,,,,48.0,,,,,240,note_off,,95.0,48.0,95.0,195360,101.75
1545,0.0,,,,,41.0,,,,,0,note_off,,95.0,41.0,95.0,195360,101.75
1546,0.0,,,,,47.0,,,,,0,note_on,,95.0,47.0,95.0,195360,101.75
1547,0.0,,,,,40.0,,,,,0,note_on,,95.0,40.0,95.0,195360,101.75
1548,0.0,,,,,47.0,,,,,480,note_off,,95.0,47.0,95.0,195840,102.0
1549,0.0,,,,,40.0,,,,,0,note_off,,95.0,40.0,95.0,195840,102.0
1550,0.0,,,,,39.0,,,,,0,note_on,,95.0,39.0,95.0,195840,102.0
1551,0.0,,,,,39.0,,,,,240,note_off,,95.0,39.0,95.0,196080,102.125
1552,0.0,,,,,39.0,,,,,240,note_on,,95.0,39.0,95.0,196320,102.25
1553,0.0,,,,,39.0,,,,,240,note_off,,95.0,39.0,95.0,196560,102.375
1554,0.0,,,,,39.0,,,,,0,note_on,,95.0,39.0,95.0,196560,102.375
1555,1.0,,,,,49.0,,,,,180,note_on,,95.0,49.0,95.0,196740,102.46875
1556,0.0,,,,,39.0,,,,,60,note_off,,95.0,39.0,95.0,196800,102.5
1557,1.0,,,,,49.0,,,,,0,note_off,,95.0,49.0,95.0,196800,102.5
1558,1.0,,,,,51.0,,,,,0,note_on,,95.0,51.0,95.0,196800,102.5
1559,0.0,,,,,39.0,,,,,0,note_on,,95.0,39.0,95.0,196800,102.5
1560,1.0,,,,,51.0,,,,,960,note_off,,95.0,51.0,95.0,197760,103.0
1561,0.0,,,,,39.0,,,,,0,note_off,,95.0,39.0,95.0,197760,103.0
1562,0.0,,,,,39.0,,,,,0,note_on,,95.0,39.0,95.0,197760,103.0
1563,0.0,,,,,39.0,,,,,240,note_off,,95.0,39.0,95.0,198000,103.125
1564,0.0,,,,,39.0,,,,,240,note_on,,95.0,39.0,95.0,198240,103.25
1565,0.0,,,,,39.0,,,,,240,note_off,,95.0,39.0,95.0,198480,103.375
1566,0.0,,,,,39.0,,,,,0,note_on,,95.0,39.0,95.0,198480,103.375
1567,0.0,,,,,39.0,,,,,240,note_off,,95.0,39.0,95.0,198720,103.5
1568,0.0,,,,,59.0,,,,,0,note_on,,95.0,59.0,95.0,198720,103.5
1569,0.0,,,,,52.0,,,,,0,note_on,,95.0,52.0,95.0,198720,103.5
1570,0.0,,,,,59.0,,,,,240,note_off,,95.0,59.0,95.0,198960,103.625
1571,0.0,,,,,52.0,,,,,0,note_off,,95.0,52.0,95.0,198960,103.625
1572,0.0,,,,,58.0,,,,,0,note_on,,95.0,58.0,95.0,198960,103.625
1573,0.0,,,,,51.0,,,,,0,note_on,,95.0,51.0,95.0,198960,103.625
1574,0.0,,,,,58.0,,,,,240,note_off,,95.0,58.0,95.0,199200,103.75
1575,0.0,,,,,51.0,,,,,0,note_off,,95.0,51.0,95.0,199200,103.75
1576,0.0,,,,,57.0,,,,,0,note_on,,95.0,57.0,95.0,199200,103.75
1577,0.0,,,,,50.0,,,,,0,note_on,,95.0,50.0,95.0,199200,103.75
1578,0.0,,,,,57.0,,,,,480,note_off,,95.0,57.0,95.0,199680,104.0
1579,0.0,,,,,50.0,,,,,0,note_off,,95.0,50.0,95.0,199680,104.0
1580,0.0,,,,,39.0,,,,,0,note_on,,95.0,39.0,95.0,199680,104.0
1581,0.0,,,,,39.0,,,,,240,note_off,,95.0,39.0,95.0,199920,104.125
1582,0.0,,,,,39.0,,,,,240,note_on,,95.0,39.0,95.0,200160,104.25
1583,0.0,,,,,39.0,,,,,240,note_off,,95.0,39.0,95.0,200400,104.375
1584,0.0,,,,,39.0,,,,,0,note_on,,95.0,39.0,95.0,200400,104.375
1585,1.0,,,,,49.0,,,,,180,note_on,,95.0,49.0,95.0,200580,104.46875
1586,0.0,,,,,39.0,,,,,60,note_off,,95.0,39.0,95.0,200640,104.5
1587,1.0,,,,,49.0,,,,,0,note_off,,95.0,49.0,95.0,200640,104.5
1588,1.0,,,,,51.0,,,,,0,note_on,,95.0,51.0,95.0,200640,104.5
1589,0.0,,,,,39.0,,,,,0,note_on,,95.0,39.0,95.0,200640,104.5
1590,1.0,,,,,51.0,,,,,960,note_off,,95.0,51.0,95.0,201600,105.0
1591,0.0,,,,,39.0,,,,,0,note_off,,95.0,39.0,95.0,201600,105.0
1592,0.0,,,,,39.0,,,,,0,note_on,,95.0,39.0,95.0,201600,105.0
1593,0.0,,,,,39.0,,,,,240,note_off,,95.0,39.0,95.0,201840,105.125
1594,0.0,,,,,39.0,,,,,240,note_on,,95.0,39.0,95.0,202080,105.25
1595,0.0,,,,,39.0,,,,,240,note_off,,95.0,39.0,95.0,202320,105.375
1596,0.0,,,,,39.0,,,,,0,note_on,,95.0,39.0,95.0,202320,105.375
1597,0.0,,,,,39.0,,,,,240,note_off,,95.0,39.0,95.0,202560,105.5
1598,0.0,,,,,61.0,,,,,0,note_on,,95.0,61.0,95.0,202560,105.5
1599,0.0,,,,,54.0,,,,,0,note_on,,95.0,54.0,95.0,202560,105.5
1600,0.0,,,,,61.0,,,,,240,note_off,,95.0,61.0,95.0,202800,105.625
1601,0.0,,,,,54.0,,,,,0,note_off,,95.0,54.0,95.0,202800,105.625
1602,0.0,,,,,60.0,,,,,0,note_on,,95.0,60.0,95.0,202800,105.625
1603,0.0,,,,,53.0,,,,,0,note_on,,95.0,53.0,95.0,202800,105.625
1604,0.0,,,,,60.0,,,,,240,note_off,,95.0,60.0,95.0,203040,105.75
1605,0.0,,,,,53.0,,,,,0,note_off,,95.0,53.0,95.0,203040,105.75
1606,0.0,,,,,59.0,,,,,0,note_on,,95.0,59.0,95.0,203040,105.75
1607,0.0,,,,,52.0,,,,,0,note_on,,95.0,52.0,95.0,203040,105.75
1608,0.0,,,,,59.0,,,,,480,note_off,,95.0,59.0,95.0,203520,106.0
1609,0.0,,,,,52.0,,,,,0,note_off,,95.0,52.0,95.0,203520,106.0
1610,0.0,,,,,39.0,,,,,0,note_on,,95.0,39.0,95.0,203520,106.0
1611,0.0,,,,,39.0,,,,,240,note_off,,95.0,39.0,95.0,203760,106.125
1612,0.0,,,,,39.0,,,,,240,note_on,,95.0,39.0,95.0,204000,106.25
1613,0.0,,,,,39.0,,,,,240,note_off,,95.0,39.0,95.0,204240,106.375
1614,0.0,,,,,39.0,,,,,0,note_on,,95.0,39.0,95.0,204240,106.375
1615,1.0,,,,,49.0,,,,,180,note_on,,95.0,49.0,95.0,204420,106.46875
1616,0.0,,,,,39.0,,,,,60,note_off,,95.0,39.0,95.0,204480,106.5
1617,1.0,,,,,49.0,,,,,0,note_off,,95.0,49.0,95.0,204480,106.5
1618,1.0,,,,,51.0,,,,,0,note_on,,95.0,51.0,95.0,204480,106.5
1619,0.0,,,,,39.0,,,,,0,note_on,,95.0,39.0,95.0,204480,106.5
1620,1.0,,,,,51.0,,,,,960,note_off,,95.0,51.0,95.0,205440,107.0
1621,0.0,,,,,39.0,,,,,0,note_off,,95.0,39.0,95.0,205440,107.0
1622,0.0,,,,,39.0,,,,,0,note_on,,95.0,39.0,95.0,205440,107.0
1623,0.0,,,,,39.0,,,,,240,note_off,,95.0,39.0,95.0,205680,107.125
1624,0.0,,,,,39.0,,,,,240,note_on,,95.0,39.0,95.0,205920,107.25
1625,0.0,,,,,39.0,,,,,240,note_off,,95.0,39.0,95.0,206160,107.375
1626,0.0,,,,,39.0,,,,,0,note_on,,95.0,39.0,95.0,206160,107.375
1627,0.0,,,,,39.0,,,,,240,note_off,,95.0,39.0,95.0,206400,107.5
1628,0.0,,,,,59.0,,,,,0,note_on,,95.0,59.0,95.0,206400,107.5
1629,0.0,,,,,52.0,,,,,0,note_on,,95.0,52.0,95.0,206400,107.5
1630,0.0,,,,,59.0,,,,,240,note_off,,95.0,59.0,95.0,206640,107.625
1631,0.0,,,,,52.0,,,,,0,note_off,,95.0,52.0,95.0,206640,107.625
1632,0.0,,,,,58.0,,,,,0,note_on,,95.0,58.0,95.0,206640,107.625
1633,0.0,,,,,51.0,,,,,0,note_on,,95.0,51.0,95.0,206640,107.625
1634,0.0,,,,,58.0,,,,,240,note_off,,95.0,58.0,95.0,206880,107.75
1635,0.0,,,,,51.0,,,,,0,note_off,,95.0,51.0,95.0,206880,107.75
1636,0.0,,,,,57.0,,,,,0,note_on,,95.0,57.0,95.0,206880,107.75
1637,0.0,,,,,50.0,,,,,0,note_on,,95.0,50.0,95.0,206880,107.75
1638,0.0,,,,,57.0,,,,,480,note_off,,95.0,57.0,95.0,207360,108.0
1639,0.0,,,,,50.0,,,,,0,note_off,,95.0,50.0,95.0,207360,108.0
1640,0.0,,,,,39.0,,,,,0,note_on,,95.0,39.0,95.0,207360,108.0
1641,0.0,,,,,39.0,,,,,240,note_off,,95.0,39.0,95.0,207600,108.125
1642,0.0,,,,,39.0,,,,,240,note_on,,95.0,39.0,95.0,207840,108.25
1643,0.0,,,,,39.0,,,,,240,note_off,,95.0,39.0,95.0,208080,108.375
1644,0.0,,,,,39.0,,,,,0,note_on,,95.0,39.0,95.0,208080,108.375
1645,1.0,,,,,49.0,,,,,180,note_on,,95.0,49.0,95.0,208260,108.46875
1646,0.0,,,,,39.0,,,,,60,note_off,,95.0,39.0,95.0,208320,108.5
1647,1.0,,,,,49.0,,,,,0,note_off,,95.0,49.0,95.0,208320,108.5
1648,1.0,,,,,51.0,,,,,0,note_on,,95.0,51.0,95.0,208320,108.5
1649,0.0,,,,,39.0,,,,,0,note_on,,95.0,39.0,95.0,208320,108.5
1650,1.0,,,,,51.0,,,,,960,note_off,,95.0,51.0,95.0,209280,109.0
1651,0.0,,,,,39.0,,,,,0,note_off,,95.0,39.0,95.0,209280,109.0
1652,0.0,,,,,39.0,,,,,0,note_on,,95.0,39.0,95.0,209280,109.0
1653,0.0,,,,,39.0,,,,,240,note_off,,95.0,39.0,95.0,209520,109.125
1654,0.0,,,,,39.0,,,,,0,note_on,,95.0,39.0,95.0,209520,109.125
1655,0.0,,,,,39.0,,,,,240,note_off,,95.0,39.0,95.0,209760,109.25
1656,0.0,,,,,39.0,,,,,0,note_on,,95.0,39.0,95.0,209760,109.25
1657,0.0,,,,,39.0,,,,,240,note_off,,95.0,39.0,95.0,210000,109.375
1658,0.0,,,,,39.0,,,,,0,note_on,,95.0,39.0,95.0,210000,109.375
1659,0.0,,,,,39.0,,,,,240,note_off,,95.0,39.0,95.0,210240,109.5
1660,0.0,,,,,49.0,,,,,0,note_on,,95.0,49.0,95.0,210240,109.5
1661,0.0,,,,,42.0,,,,,0,note_on,,95.0,42.0,95.0,210240,109.5
1662,0.0,,,,,49.0,,,,,240,note_off,,95.0,49.0,95.0,210480,109.625
1663,0.0,,,,,42.0,,,,,0,note_off,,95.0,42.0,95.0,210480,109.625
1664,0.0,,,,,48.0,,,,,0,note_on,,95.0,48.0,95.0,210480,109.625
1665,0.0,,,,,41.0,,,,,0,note_on,,95.0,41.0,95.0,210480,109.625
1666,0.0,,,,,48.0,,,,,240,note_off,,95.0,48.0,95.0,210720,109.75
1667,0.0,,,,,41.0,,,,,0,note_off,,95.0,41.0,95.0,210720,109.75
1668,0.0,,,,,47.0,,,,,0,note_on,,95.0,47.0,95.0,210720,109.75
1669,0.0,,,,,40.0,,,,,0,note_on,,95.0,40.0,95.0,210720,109.75
1670,0.0,,,,,47.0,,,,,480,note_off,,95.0,47.0,95.0,211200,110.0
1671,0.0,,,,,40.0,,,,,0,note_off,,95.0,40.0,95.0,211200,110.0
1672,0.0,,,,,48.0,,,,,0,note_on,,95.0,48.0,95.0,211200,110.0
1673,0.0,,,,,41.0,,,,,0,note_on,,95.0,41.0,95.0,211200,110.0
1674,0.0,,,,,48.0,,,,,2880,note_off,,95.0,48.0,95.0,214080,111.5
1675,0.0,,,,,41.0,,,,,0,note_off,,95.0,41.0,95.0,214080,111.5
1676,0.0,,,,,49.0,,,,,0,note_on,,95.0,49.0,95.0,214080,111.5
1677,0.0,,,,,42.0,,,,,0,note_on,,95.0,42.0,95.0,214080,111.5
1678,0.0,,,,,49.0,,,,,960,note_off,,95.0,49.0,95.0,215040,112.0
1679,0.0,,,,,42.0,,,,,0,note_off,,95.0,42.0,95.0,215040,112.0
1680,0.0,,,,,39.0,,,,,0,note_on,,95.0,39.0,95.0,215040,112.0
1681,0.0,,,,,39.0,,,,,240,note_off,,95.0,39.0,95.0,215280,112.125
1682,0.0,,,,,39.0,,,,,0,note_on,,95.0,39.0,95.0,215280,112.125
1683,0.0,,,,,39.0,,,,,240,note_off,,95.0,39.0,95.0,215520,112.25
1684,0.0,,,,,39.0,,,,,0,note_on,,95.0,39.0,95.0,215520,112.25
1685,0.0,,,,,39.0,,,,,240,note_off,,95.0,39.0,95.0,215760,112.375
1686,0.0,,,,,39.0,,,,,0,note_on,,95.0,39.0,95.0,215760,112.375
1687,0.0,,,,,39.0,,,,,240,note_off,,95.0,39.0,95.0,216000,112.5
1688,0.0,,,,,39.0,,,,,0,note_on,,95.0,39.0,95.0,216000,112.5
1689,0.0,,,,,39.0,,,,,240,note_off,,95.0,39.0,95.0,216240,112.625
1690,0.0,,,,,39.0,,,,,0,note_on,,95.0,39.0,95.0,216240,112.625
1691,0.0,,,,,39.0,,,,,240,note_off,,95.0,39.0,95.0,216480,112.75
1692,0.0,,,,,39.0,,,,,0,note_on,,95.0,39.0,95.0,216480,112.75
1693,0.0,,,,,39.0,,,,,240,note_off,,95.0,39.0,95.0,216720,112.875
1694,0.0,,,,,39.0,,,,,0,note_on,,95.0,39.0,95.0,216720,112.875
1695,0.0,,,,,39.0,,,,,240,note_off,,95.0,39.0,95.0,216960,113.0
1696,0.0,,,,,39.0,,,,,0,note_on,,95.0,39.0,95.0,216960,113.0
1697,0.0,,,,,39.0,,,,,240,note_off,,95.0,39.0,95.0,217200,113.125
1698,0.0,,,,,39.0,,,,,0,note_on,,95.0,39.0,95.0,217200,113.125
1699,0.0,,,,,39.0,,,,,240,note_off,,95.0,39.0,95.0,217440,113.25
1700,0.0,,,,,49.0,,,,,0,note_on,,95.0,49.0,95.0,217440,113.25
1701,0.0,,,,,42.0,,,,,0,note_on,,95.0,42.0,95.0,217440,113.25
1702,0.0,,,,,49.0,,,,,480,note_off,,95.0,49.0,95.0,217920,113.5
1703,0.0,,,,,42.0,,,,,0,note_off,,95.0,42.0,95.0,217920,113.5
1704,0.0,,,,,39.0,,,,,0,note_on,,95.0,39.0,95.0,217920,113.5
1705,0.0,,,,,39.0,,,,,240,note_off,,95.0,39.0,95.0,218160,113.625
1706,0.0,,,,,39.0,,,,,0,note_on,,95.0,39.0,95.0,218160,113.625
1707,0.0,,,,,39.0,,,,,240,note_off,,95.0,39.0,95.0,218400,113.75
1708,0.0,,,,,49.0,,,,,0,note_on,,95.0,49.0,95.0,218400,113.75
1709,0.0,,,,,42.0,,,,,0,note_on,,95.0,42.0,95.0,218400,113.75
1710,0.0,,,,,49.0,,,,,480,note_off,,95.0,49.0,95.0,218880,114.0
1711,0.0,,,,,42.0,,,,,0,note_off,,95.0,42.0,95.0,218880,114.0
1712,0.0,,,,,48.0,,,,,0,note_on,,95.0,48.0,95.0,218880,114.0
1713,0.0,,,,,41.0,,,,,0,note_on,,95.0,41.0,95.0,218880,114.0
1714,0.0,,,,,48.0,,,,,2880,note_off,,95.0,48.0,95.0,221760,115.5
1715,0.0,,,,,41.0,,,,,0,note_off,,95.0,41.0,95.0,221760,115.5
1716,0.0,,,,,52.0,,,,,0,note_on,,95.0,52.0,95.0,221760,115.5
1717,0.0,,,,,45.0,,,,,0,note_on,,95.0,45.0,95.0,221760,115.5
1718,0.0,,,,,52.0,,,,,960,note_off,,95.0,52.0,95.0,222720,116.0
1719,0.0,,,,,45.0,,,,,0,note_off,,95.0,45.0,95.0,222720,116.0
1720,0.0,,,,,39.0,,,,,0,note_on,,95.0,39.0,95.0,222720,116.0
1721,0.0,,,,,39.0,,,,,240,note_off,,95.0,39.0,95.0,222960,116.125
1722,0.0,,,,,39.0,,,,,0,note_on,,95.0,39.0,95.0,222960,116.125
1723,0.0,,,,,39.0,,,,,240,note_off,,95.0,39.0,95.0,223200,116.25
1724,0.0,,,,,39.0,,,,,0,note_on,,95.0,39.0,95.0,223200,116.25
1725,0.0,,,,,39.0,,,,,240,note_off,,95.0,39.0,95.0,223440,116.375
1726,0.0,,,,,39.0,,,,,0,note_on,,95.0,39.0,95.0,223440,116.375
1727,0.0,,,,,39.0,,,,,240,note_off,,95.0,39.0,95.0,223680,116.5
1728,0.0,,,,,39.0,,,,,0,note_on,,95.0,39.0,95.0,223680,116.5
1729,0.0,,,,,39.0,,,,,240,note_off,,95.0,39.0,95.0,223920,116.625
1730,0.0,,,,,39.0,,,,,0,note_on,,95.0,39.0,95.0,223920,116.625
1731,0.0,,,,,39.0,,,,,240,note_off,,95.0,39.0,95.0,224160,116.75
1732,0.0,,,,,39.0,,,,,0,note_on,,95.0,39.0,95.0,224160,116.75
1733,0.0,,,,,39.0,,,,,240,note_off,,95.0,39.0,95.0,224400,116.875
1734,0.0,,,,,39.0,,,,,0,note_on,,95.0,39.0,95.0,224400,116.875
1735,0.0,,,,,39.0,,,,,240,note_off,,95.0,39.0,95.0,224640,117.0
1736,0.0,,,,,39.0,,,,,0,note_on,,95.0,39.0,95.0,224640,117.0
1737,0.0,,,,,39.0,,,,,240,note_off,,95.0,39.0,95.0,224880,117.125
1738,0.0,,,,,39.0,,,,,0,note_on,,95.0,39.0,95.0,224880,117.125
1739,0.0,,,,,39.0,,,,,240,note_off,,95.0,39.0,95.0,225120,117.25
1740,0.0,,,,,46.0,,,,,0,note_on,,95.0,46.0,95.0,225120,117.25
1741,0.0,,,,,39.0,,,,,0,note_on,,95.0,39.0,95.0,225120,117.25
1742,0.0,,,,,46.0,,,,,480,note_off,,95.0,46.0,95.0,225600,117.5
1743,0.0,,,,,39.0,,,,,0,note_off,,95.0,39.0,95.0,225600,117.5
1744,0.0,,,,,39.0,,,,,0,note_on,,95.0,39.0,95.0,225600,117.5
1745,0.0,,,,,39.0,,,,,240,note_off,,95.0,39.0,95.0,225840,117.625
1746,0.0,,,,,39.0,,,,,0,note_on,,95.0,39.0,95.0,225840,117.625
1747,0.0,,,,,39.0,,,,,240,note_off,,95.0,39.0,95.0,226080,117.75
1748,0.0,,,,,47.0,,,,,0,note_on,,95.0,47.0,95.0,226080,117.75
1749,0.0,,,,,40.0,,,,,0,note_on,,95.0,40.0,95.0,226080,117.75
1750,0.0,,,,,47.0,,,,,480,note_off,,95.0,47.0,95.0,226560,118.0
1751,0.0,,,,,40.0,,,,,0,note_off,,95.0,40.0,95.0,226560,118.0
1752,0.0,,,,,48.0,,,,,0,note_on,,95.0,48.0,95.0,226560,118.0
1753,0.0,,,,,41.0,,,,,0,note_on,,95.0,41.0,95.0,226560,118.0
1754,0.0,,,,,48.0,,,,,2880,note_off,,95.0,48.0,95.0,229440,119.5
1755,0.0,,,,,41.0,,,,,0,note_off,,95.0,41.0,95.0,229440,119.5
1756,0.0,,,,,49.0,,,,,0,note_on,,95.0,49.0,95.0,229440,119.5
1757,0.0,,,,,42.0,,,,,0,note_on,,95.0,42.0,95.0,229440,119.5
1758,0.0,,,,,49.0,,,,,960,note_off,,95.0,49.0,95.0,230400,120.0
1759,0.0,,,,,42.0,,,,,0,note_off,,95.0,42.0,95.0,230400,120.0
1760,0.0,,,,,39.0,,,,,0,note_on,,95.0,39.0,95.0,230400,120.0
1761,0.0,,,,,39.0,,,,,240,note_off,,95.0,39.0,95.0,230640,120.125
1762,0.0,,,,,39.0,,,,,0,note_on,,95.0,39.0,95.0,230640,120.125
1763,0.0,,,,,39.0,,,,,240,note_off,,95.0,39.0,95.0,230880,120.25
1764,0.0,,,,,39.0,,,,,0,note_on,,95.0,39.0,95.0,230880,120.25
1765,0.0,,,,,39.0,,,,,240,note_off,,95.0,39.0,95.0,231120,120.375
1766,0.0,,,,,39.0,,,,,0,note_on,,95.0,39.0,95.0,231120,120.375
1767,0.0,,,,,39.0,,,,,240,note_off,,95.0,39.0,95.0,231360,120.5
1768,0.0,,,,,39.0,,,,,0,note_on,,95.0,39.0,95.0,231360,120.5
1769,0.0,,,,,39.0,,,,,240,note_off,,95.0,39.0,95.0,231600,120.625
1770,0.0,,,,,39.0,,,,,0,note_on,,95.0,39.0,95.0,231600,120.625
1771,0.0,,,,,39.0,,,,,240,note_off,,95.0,39.0,95.0,231840,120.75
1772,0.0,,,,,39.0,,,,,0,note_on,,95.0,39.0,95.0,231840,120.75
1773,0.0,,,,,39.0,,,,,240,note_off,,95.0,39.0,95.0,232080,120.875
1774,0.0,,,,,39.0,,,,,0,note_on,,95.0,39.0,95.0,232080,120.875
1775,0.0,,,,,39.0,,,,,240,note_off,,95.0,39.0,95.0,232320,121.0
1776,0.0,,,,,39.0,,,,,0,note_on,,95.0,39.0,95.0,232320,121.0
1777,0.0,,,,,39.0,,,,,240,note_off,,95.0,39.0,95.0,232560,121.125
1778,0.0,,,,,39.0,,,,,0,note_on,,95.0,39.0,95.0,232560,121.125
1779,0.0,,,,,39.0,,,,,240,note_off,,95.0,39.0,95.0,232800,121.25
1780,0.0,,,,,49.0,,,,,0,note_on,,95.0,49.0,95.0,232800,121.25
1781,0.0,,,,,42.0,,,,,0,note_on,,95.0,42.0,95.0,232800,121.25
1782,0.0,,,,,49.0,,,,,480,note_off,,95.0,49.0,95.0,233280,121.5
1783,0.0,,,,,42.0,,,,,0,note_off,,95.0,42.0,95.0,233280,121.5
1784,0.0,,,,,39.0,,,,,0,note_on,,95.0,39.0,95.0,233280,121.5
1785,0.0,,,,,39.0,,,,,240,note_off,,95.0,39.0,95.0,233520,121.625
1786,0.0,,,,,39.0,,,,,0,note_on,,95.0,39.0,95.0,233520,121.625
1787,0.0,,,,,39.0,,,,,240,note_off,,95.0,39.0,95.0,233760,121.75
1788,0.0,,,,,49.0,,,,,0,note_on,,95.0,49.0,95.0,233760,121.75
1789,0.0,,,,,42.0,,,,,0,note_on,,95.0,42.0,95.0,233760,121.75
1790,0.0,,,,,49.0,,,,,480,note_off,,95.0,49.0,95.0,234240,122.0
1791,0.0,,,,,42.0,,,,,0,note_off,,95.0,42.0,95.0,234240,122.0
1792,0.0,,,,,48.0,,,,,0,note_on,,95.0,48.0,95.0,234240,122.0
1793,0.0,,,,,41.0,,,,,0,note_on,,95.0,41.0,95.0,234240,122.0
1794,0.0,,,,,48.0,,,,,2880,note_off,,95.0,48.0,95.0,237120,123.5
1795,0.0,,,,,41.0,,,,,0,note_off,,95.0,41.0,95.0,237120,123.5
1796,0.0,,,,,49.0,,,,,0,note_on,,95.0,49.0,95.0,237120,123.5
1797,0.0,,,,,42.0,,,,,0,note_on,,95.0,42.0,95.0,237120,123.5
1798,0.0,,,,,49.0,,,,,240,note_off,,95.0,49.0,95.0,237360,123.625
1799,0.0,,,,,42.0,,,,,0,note_off,,95.0,42.0,95.0,237360,123.625
1800,0.0,,,,,51.0,,,,,0,note_on,,95.0,51.0,95.0,237360,123.625
1801,0.0,,,,,44.0,,,,,0,note_on,,95.0,44.0,95.0,237360,123.625
1802,0.0,,,,,51.0,,,,,720,note_off,,95.0,51.0,95.0,238080,124.0
1803,0.0,,,,,44.0,,,,,0,note_off,,95.0,44.0,95.0,238080,124.0
1804,0.0,,,,,39.0,,,,,0,note_on,,95.0,39.0,95.0,238080,124.0
1805,0.0,,,,,39.0,,,,,240,note_off,,95.0,39.0,95.0,238320,124.125
1806,0.0,,,,,39.0,,,,,240,note_on,,95.0,39.0,95.0,238560,124.25
1807,0.0,,,,,39.0,,,,,240,note_off,,95.0,39.0,95.0,238800,124.375
1808,0.0,,,,,39.0,,,,,0,note_on,,95.0,39.0,95.0,238800,124.375
1809,0.0,,,,,39.0,,,,,240,note_off,,95.0,39.0,95.0,239040,124.5
1810,0.0,,,,,51.0,,,,,0,note_on,,95.0,51.0,95.0,239040,124.5
1811,0.0,,,,,51.0,,,,,240,note_off,,95.0,51.0,95.0,239280,124.625
1812,0.0,,,,,52.0,,,,,0,note_on,,95.0,52.0,95.0,239280,124.625
1813,0.0,,,,,52.0,,,,,720,note_off,,95.0,52.0,95.0,240000,125.0
1814,0.0,,,,,39.0,,,,,0,note_on,,95.0,39.0,95.0,240000,125.0
1815,0.0,,,,,39.0,,,,,240,note_off,,95.0,39.0,95.0,240240,125.125
1816,0.0,,,,,39.0,,,,,240,note_on,,95.0,39.0,95.0,240480,125.25
1817,0.0,,,,,39.0,,,,,240,note_off,,95.0,39.0,95.0,240720,125.375
1818,0.0,,,,,39.0,,,,,0,note_on,,95.0,39.0,95.0,240720,125.375
1819,0.0,,,,,39.0,,,,,240,note_off,,95.0,39.0,95.0,240960,125.5
1820,0.0,,,,,51.0,,,,,0,note_on,,95.0,51.0,95.0,240960,125.5
1821,0.0,,,,,51.0,,,,,240,note_off,,95.0,51.0,95.0,241200,125.625
1822,0.0,,,,,52.0,,,,,0,note_on,,95.0,52.0,95.0,241200,125.625
1823,0.0,,,,,52.0,,,,,240,note_off,,95.0,52.0,95.0,241440,125.75
1824,0.0,,,,,54.0,,,,,0,note_on,,95.0,54.0,95.0,241440,125.75
1825,0.0,,,,,54.0,,,,,480,note_off,,95.0,54.0,95.0,241920,126.0
1826,0.0,,,,,39.0,,,,,0,note_on,,95.0,39.0,95.0,241920,126.0
1827,0.0,,,,,39.0,,,,,240,note_off,,95.0,39.0,95.0,242160,126.125
1828,0.0,,,,,39.0,,,,,240,note_on,,95.0,39.0,95.0,242400,126.25
1829,0.0,,,,,39.0,,,,,240,note_off,,95.0,39.0,95.0,242640,126.375
1830,0.0,,,,,39.0,,,,,0,note_on,,95.0,39.0,95.0,242640,126.375
1831,0.0,,,,,39.0,,,,,240,note_off,,95.0,39.0,95.0,242880,126.5
1832,0.0,,,,,51.0,,,,,0,note_on,,95.0,51.0,95.0,242880,126.5
1833,0.0,,,,,51.0,,,,,240,note_off,,95.0,51.0,95.0,243120,126.625
1834,0.0,,,,,52.0,,,,,0,note_on,,95.0,52.0,95.0,243120,126.625
1835,0.0,,,,,52.0,,,,,240,note_off,,95.0,52.0,95.0,243360,126.75
1836,0.0,,,,,56.0,,,,,0,note_on,,95.0,56.0,95.0,243360,126.75
1837,0.0,,,,,56.0,,,,,480,note_off,,95.0,56.0,95.0,243840,127.0
1838,0.0,,,,,55.0,,,,,0,note_on,,95.0,55.0,95.0,243840,127.0
1839,0.0,,,,,55.0,,,,,240,note_off,,95.0,55.0,95.0,244080,127.125
1840,0.0,,,,,54.0,,,,,0,note_on,,95.0,54.0,95.0,244080,127.125
1841,0.0,,,,,54.0,,,,,240,note_off,,95.0,54.0,95.0,244320,127.25
1842,0.0,,,,,53.0,,,,,0,note_on,,95.0,53.0,95.0,244320,127.25
1843,0.0,,,,,53.0,,,,,240,note_off,,95.0,53.0,95.0,244560,127.375
1844,0.0,,,,,50.0,,,,,0,note_on,,95.0,50.0,95.0,244560,127.375
1845,0.0,,,,,50.0,,,,,240,note_off,,95.0,50.0,95.0,244800,127.5
1846,0.0,,,,,49.0,,,,,0,note_on,,95.0,49.0,95.0,244800,127.5
1847,0.0,,,,,49.0,,,,,240,note_off,,95.0,49.0,95.0,245040,127.625
1848,0.0,,,,,47.0,,,,,0,note_on,,95.0,47.0,95.0,245040,127.625
1849,0.0,,,,,47.0,,,,,240,note_off,,95.0,47.0,95.0,245280,127.75
1850,0.0,,,,,46.0,,,,,0,note_on,,95.0,46.0,95.0,245280,127.75
1851,0.0,,,,,46.0,,,,,240,note_off,,95.0,46.0,95.0,245520,127.875
1852,0.0,,,,,45.0,,,,,0,note_on,,95.0,45.0,95.0,245520,127.875
1853,0.0,,,,,45.0,,,,,240,note_off,,95.0,45.0,95.0,245760,128.0
1854,0.0,,,,,39.0,,,,,0,note_on,,95.0,39.0,95.0,245760,128.0
1855,0.0,,,,,39.0,,,,,240,note_off,,95.0,39.0,95.0,246000,128.125
1856,0.0,,,,,39.0,,,,,240,note_on,,95.0,39.0,95.0,246240,128.25
1857,0.0,,,,,39.0,,,,,240,note_off,,95.0,39.0,95.0,246480,128.375
1858,0.0,,,,,39.0,,,,,0,note_on,,95.0,39.0,95.0,246480,128.375
1859,0.0,,,,,39.0,,,,,240,note_off,,95.0,39.0,95.0,246720,128.5
1860,0.0,,,,,51.0,,,,,0,note_on,,95.0,51.0,95.0,246720,128.5
1861,0.0,,,,,51.0,,,,,240,note_off,,95.0,51.0,95.0,246960,128.625
1862,0.0,,,,,52.0,,,,,0,note_on,,95.0,52.0,95.0,246960,128.625
1863,0.0,,,,,52.0,,,,,720,note_off,,95.0,52.0,95.0,247680,129.0
1864,0.0,,,,,39.0,,,,,0,note_on,,95.0,39.0,95.0,247680,129.0
1865,0.0,,,,,39.0,,,,,240,note_off,,95.0,39.0,95.0,247920,129.125
1866,0.0,,,,,39.0,,,,,240,note_on,,95.0,39.0,95.0,248160,129.25
1867,0.0,,,,,39.0,,,,,240,note_off,,95.0,39.0,95.0,248400,129.375
1868,0.0,,,,,39.0,,,,,0,note_on,,95.0,39.0,95.0,248400,129.375
1869,0.0,,,,,39.0,,,,,240,note_off,,95.0,39.0,95.0,248640,129.5
1870,0.0,,,,,51.0,,,,,0,note_on,,95.0,51.0,95.0,248640,129.5
1871,0.0,,,,,51.0,,,,,240,note_off,,95.0,51.0,95.0,248880,129.625
1872,0.0,,,,,52.0,,,,,0,note_on,,95.0,52.0,95.0,248880,129.625
1873,0.0,,,,,52.0,,,,,240,note_off,,95.0,52.0,95.0,249120,129.75
1874,0.0,,,,,54.0,,,,,0,note_on,,95.0,54.0,95.0,249120,129.75
1875,0.0,,,,,54.0,,,,,480,note_off,,95.0,54.0,95.0,249600,130.0
1876,0.0,,,,,39.0,,,,,0,note_on,,95.0,39.0,95.0,249600,130.0
1877,0.0,,,,,39.0,,,,,240,note_off,,95.0,39.0,95.0,249840,130.125
1878,0.0,,,,,39.0,,,,,240,note_on,,95.0,39.0,95.0,250080,130.25
1879,0.0,,,,,39.0,,,,,240,note_off,,95.0,39.0,95.0,250320,130.375
1880,0.0,,,,,39.0,,,,,0,note_on,,95.0,39.0,95.0,250320,130.375
1881,0.0,,,,,39.0,,,,,240,note_off,,95.0,39.0,95.0,250560,130.5
1882,0.0,,,,,51.0,,,,,0,note_on,,95.0,51.0,95.0,250560,130.5
1883,0.0,,,,,51.0,,,,,240,note_off,,95.0,51.0,95.0,250800,130.625
1884,0.0,,,,,52.0,,,,,0,note_on,,95.0,52.0,95.0,250800,130.625
1885,0.0,,,,,52.0,,,,,240,note_off,,95.0,52.0,95.0,251040,130.75
1886,0.0,,,,,56.0,,,,,0,note_on,,95.0,56.0,95.0,251040,130.75
1887,0.0,,,,,56.0,,,,,480,note_off,,95.0,56.0,95.0,251520,131.0
1888,0.0,,,,,55.0,,,,,0,note_on,,95.0,55.0,95.0,251520,131.0
1889,0.0,,,,,55.0,,,,,240,note_off,,95.0,55.0,95.0,251760,131.125
1890,0.0,,,,,54.0,,,,,0,note_on,,95.0,54.0,95.0,251760,131.125
1891,0.0,,,,,54.0,,,,,240,note_off,,95.0,54.0,95.0,252000,131.25
1892,0.0,,,,,53.0,,,,,0,note_on,,95.0,53.0,95.0,252000,131.25
1893,0.0,,,,,53.0,,,,,240,note_off,,95.0,53.0,95.0,252240,131.375
1894,0.0,,,,,50.0,,,,,0,note_on,,95.0,50.0,95.0,252240,131.375
1895,0.0,,,,,50.0,,,,,240,note_off,,95.0,50.0,95.0,252480,131.5
1896,0.0,,,,,49.0,,,,,0,note_on,,95.0,49.0,95.0,252480,131.5
1897,0.0,,,,,49.0,,,,,240,note_off,,95.0,49.0,95.0,252720,131.625
1898,0.0,,,,,48.0,,,,,0,note_on,,95.0,48.0,95.0,252720,131.625
1899,0.0,,,,,48.0,,,,,240,note_off,,95.0,48.0,95.0,252960,131.75
1900,0.0,,,,,57.0,,,,,0,note_on,,95.0,57.0,95.0,252960,131.75
1901,0.0,,,,,57.0,,,,,480,note_off,,95.0,57.0,95.0,253440,132.0
1902,0.0,,,,,39.0,,,,,0,note_on,,95.0,39.0,95.0,253440,132.0
1903,0.0,,,,,39.0,,,,,240,note_off,,95.0,39.0,95.0,253680,132.125
1904,0.0,,,,,39.0,,,,,240,note_on,,95.0,39.0,95.0,253920,132.25
1905,0.0,,,,,39.0,,,,,240,note_off,,95.0,39.0,95.0,254160,132.375
1906,0.0,,,,,39.0,,,,,0,note_on,,95.0,39.0,95.0,254160,132.375
1907,0.0,,,,,39.0,,,,,240,note_off,,95.0,39.0,95.0,254400,132.5
1908,0.0,,,,,51.0,,,,,0,note_on,,95.0,51.0,95.0,254400,132.5
1909,0.0,,,,,51.0,,,,,240,note_off,,95.0,51.0,95.0,254640,132.625
1910,0.0,,,,,52.0,,,,,0,note_on,,95.0,52.0,95.0,254640,132.625
1911,0.0,,,,,52.0,,,,,720,note_off,,95.0,52.0,95.0,255360,133.0
1912,0.0,,,,,39.0,,,,,0,note_on,,95.0,39.0,95.0,255360,133.0
1913,0.0,,,,,39.0,,,,,240,note_off,,95.0,39.0,95.0,255600,133.125
1914,0.0,,,,,39.0,,,,,240,note_on,,95.0,39.0,95.0,255840,133.25
1915,0.0,,,,,39.0,,,,,240,note_off,,95.0,39.0,95.0,256080,133.375
1916,0.0,,,,,39.0,,,,,0,note_on,,95.0,39.0,95.0,256080,133.375
1917,0.0,,,,,39.0,,,,,240,note_off,,95.0,39.0,95.0,256320,133.5
1918,0.0,,,,,51.0,,,,,0,note_on,,95.0,51.0,95.0,256320,133.5
1919,0.0,,,,,51.0,,,,,240,note_off,,95.0,51.0,95.0,256560,133.625
1920,0.0,,,,,52.0,,,,,0,note_on,,95.0,52.0,95.0,256560,133.625
1921,0.0,,,,,52.0,,,,,240,note_off,,95.0,52.0,95.0,256800,133.75
1922,0.0,,,,,54.0,,,,,0,note_on,,95.0,54.0,95.0,256800,133.75
1923,0.0,,,,,54.0,,,,,480,note_off,,95.0,54.0,95.0,257280,134.0
1924,0.0,,,,,39.0,,,,,0,note_on,,95.0,39.0,95.0,257280,134.0
1925,0.0,,,,,39.0,,,,,240,note_off,,95.0,39.0,95.0,257520,134.125
1926,0.0,,,,,39.0,,,,,240,note_on,,95.0,39.0,95.0,257760,134.25
1927,0.0,,,,,39.0,,,,,240,note_off,,95.0,39.0,95.0,258000,134.375
1928,0.0,,,,,39.0,,,,,0,note_on,,95.0,39.0,95.0,258000,134.375
1929,0.0,,,,,39.0,,,,,240,note_off,,95.0,39.0,95.0,258240,134.5
1930,0.0,,,,,51.0,,,,,0,note_on,,95.0,51.0,95.0,258240,134.5
1931,0.0,,,,,51.0,,,,,240,note_off,,95.0,51.0,95.0,258480,134.625
1932,0.0,,,,,52.0,,,,,0,note_on,,95.0,52.0,95.0,258480,134.625
1933,0.0,,,,,52.0,,,,,240,note_off,,95.0,52.0,95.0,258720,134.75
1934,0.0,,,,,56.0,,,,,0,note_on,,95.0,56.0,95.0,258720,134.75
1935,0.0,,,,,56.0,,,,,480,note_off,,95.0,56.0,95.0,259200,135.0
1936,0.0,,,,,55.0,,,,,0,note_on,,95.0,55.0,95.0,259200,135.0
1937,0.0,,,,,55.0,,,,,240,note_off,,95.0,55.0,95.0,259440,135.125
1938,0.0,,,,,54.0,,,,,0,note_on,,95.0,54.0,95.0,259440,135.125
1939,0.0,,,,,54.0,,,,,240,note_off,,95.0,54.0,95.0,259680,135.25
1940,0.0,,,,,53.0,,,,,0,note_on,,95.0,53.0,95.0,259680,135.25
1941,0.0,,,,,53.0,,,,,240,note_off,,95.0,53.0,95.0,259920,135.375
1942,0.0,,,,,50.0,,,,,0,note_on,,95.0,50.0,95.0,259920,135.375
1943,0.0,,,,,50.0,,,,,240,note_off,,95.0,50.0,95.0,260160,135.5
1944,0.0,,,,,49.0,,,,,0,note_on,,95.0,49.0,95.0,260160,135.5
1945,0.0,,,,,49.0,,,,,240,note_off,,95.0,49.0,95.0,260400,135.625
1946,0.0,,,,,47.0,,,,,0,note_on,,95.0,47.0,95.0,260400,135.625
1947,0.0,,,,,47.0,,,,,240,note_off,,95.0,47.0,95.0,260640,135.75
1948,0.0,,,,,46.0,,,,,0,note_on,,95.0,46.0,95.0,260640,135.75
1949,0.0,,,,,46.0,,,,,240,note_off,,95.0,46.0,95.0,260880,135.875
1950,0.0,,,,,45.0,,,,,0,note_on,,95.0,45.0,95.0,260880,135.875
1951,0.0,,,,,45.0,,,,,240,note_off,,95.0,45.0,95.0,261120,136.0
1952,0.0,,,,,39.0,,,,,0,note_on,,95.0,39.0,95.0,261120,136.0
1953,0.0,,,,,39.0,,,,,240,note_off,,95.0,39.0,95.0,261360,136.125
1954,0.0,,,,,39.0,,,,,240,note_on,,95.0,39.0,95.0,261600,136.25
1955,0.0,,,,,39.0,,,,,240,note_off,,95.0,39.0,95.0,261840,136.375
1956,0.0,,,,,39.0,,,,,0,note_on,,95.0,39.0,95.0,261840,136.375
1957,0.0,,,,,39.0,,,,,240,note_off,,95.0,39.0,95.0,262080,136.5
1958,0.0,,,,,51.0,,,,,0,note_on,,95.0,51.0,95.0,262080,136.5
1959,0.0,,,,,51.0,,,,,240,note_off,,95.0,51.0,95.0,262320,136.625
1960,0.0,,,,,52.0,,,,,0,note_on,,95.0,52.0,95.0,262320,136.625
1961,0.0,,,,,52.0,,,,,720,note_off,,95.0,52.0,95.0,263040,137.0
1962,0.0,,,,,39.0,,,,,0,note_on,,95.0,39.0,95.0,263040,137.0
1963,0.0,,,,,39.0,,,,,240,note_off,,95.0,39.0,95.0,263280,137.125
1964,0.0,,,,,39.0,,,,,240,note_on,,95.0,39.0,95.0,263520,137.25
1965,0.0,,,,,39.0,,,,,240,note_off,,95.0,39.0,95.0,263760,137.375
1966,0.0,,,,,39.0,,,,,0,note_on,,95.0,39.0,95.0,263760,137.375
1967,0.0,,,,,39.0,,,,,240,note_off,,95.0,39.0,95.0,264000,137.5
1968,0.0,,,,,51.0,,,,,0,note_on,,95.0,51.0,95.0,264000,137.5
1969,0.0,,,,,51.0,,,,,240,note_off,,95.0,51.0,95.0,264240,137.625
1970,0.0,,,,,52.0,,,,,0,note_on,,95.0,52.0,95.0,264240,137.625
1971,0.0,,,,,52.0,,,,,240,note_off,,95.0,52.0,95.0,264480,137.75
1972,0.0,,,,,54.0,,,,,0,note_on,,95.0,54.0,95.0,264480,137.75
1973,0.0,,,,,54.0,,,,,480,note_off,,95.0,54.0,95.0,264960,138.0
1974,0.0,,,,,39.0,,,,,0,note_on,,95.0,39.0,95.0,264960,138.0
1975,0.0,,,,,39.0,,,,,240,note_off,,95.0,39.0,95.0,265200,138.125
1976,0.0,,,,,39.0,,,,,240,note_on,,95.0,39.0,95.0,265440,138.25
1977,0.0,,,,,39.0,,,,,240,note_off,,95.0,39.0,95.0,265680,138.375
1978,0.0,,,,,39.0,,,,,0,note_on,,95.0,39.0,95.0,265680,138.375
1979,0.0,,,,,39.0,,,,,240,note_off,,95.0,39.0,95.0,265920,138.5
1980,0.0,,,,,51.0,,,,,0,note_on,,95.0,51.0,95.0,265920,138.5
1981,0.0,,,,,51.0,,,,,240,note_off,,95.0,51.0,95.0,266160,138.625
1982,0.0,,,,,52.0,,,,,0,note_on,,95.0,52.0,95.0,266160,138.625
1983,0.0,,,,,52.0,,,,,240,note_off,,95.0,52.0,95.0,266400,138.75
1984,0.0,,,,,56.0,,,,,0,note_on,,95.0,56.0,95.0,266400,138.75
1985,0.0,,,,,56.0,,,,,480,note_off,,95.0,56.0,95.0,266880,139.0
1986,0.0,,,,,55.0,,,,,0,note_on,,95.0,55.0,95.0,266880,139.0
1987,0.0,,,,,55.0,,,,,240,note_off,,95.0,55.0,95.0,267120,139.125
1988,0.0,,,,,54.0,,,,,0,note_on,,95.0,54.0,95.0,267120,139.125
1989,0.0,,,,,54.0,,,,,240,note_off,,95.0,54.0,95.0,267360,139.25
1990,0.0,,,,,53.0,,,,,0,note_on,,95.0,53.0,95.0,267360,139.25
1991,0.0,,,,,53.0,,,,,240,note_off,,95.0,53.0,95.0,267600,139.375
1992,0.0,,,,,49.0,,,,,0,note_on,,95.0,49.0,95.0,267600,139.375
1993,0.0,,,,,49.0,,,,,240,note_off,,95.0,49.0,95.0,267840,139.5
1994,0.0,,,,,48.0,,,,,0,note_on,,95.0,48.0,95.0,267840,139.5
1995,0.0,,,,,48.0,,,,,240,note_off,,95.0,48.0,95.0,268080,139.625
1996,0.0,,,,,47.0,,,,,0,note_on,,95.0,47.0,95.0,268080,139.625
1997,0.0,,,,,47.0,,,,,240,note_off,,95.0,47.0,95.0,268320,139.75
1998,0.0,,,,,43.0,,,,,0,note_on,,95.0,43.0,95.0,268320,139.75
1999,0.0,,,,,43.0,,,,,240,note_off,,95.0,43.0,95.0,268560,139.875
2000,0.0,,,,,42.0,,,,,0,note_on,,95.0,42.0,95.0,268560,139.875
2001,0.0,,,,,42.0,,,,,240,note_off,,95.0,42.0,95.0,268800,140.0
2002,0.0,,,,,48.0,,,,,0,note_on,,95.0,48.0,95.0,268800,140.0
2003,0.0,,,,,41.0,,,,,0,note_on,,95.0,41.0,95.0,268800,140.0
2004,0.0,,,,,48.0,,,,,240,note_off,,95.0,48.0,95.0,269040,140.125
2005,0.0,,,,,41.0,,,,,0,note_off,,95.0,41.0,95.0,269040,140.125
2006,0.0,,,,,41.0,,,,,0,note_on,,95.0,41.0,95.0,269040,140.125
2007,0.0,,,,,41.0,,,,,240,note_off,,95.0,41.0,95.0,269280,140.25
2008,0.0,,,,,41.0,,,,,0,note_on,,95.0,41.0,95.0,269280,140.25
2009,0.0,,,,,41.0,,,,,240,note_off,,95.0,41.0,95.0,269520,140.375
2010,0.0,,,,,41.0,,,,,0,note_on,,95.0,41.0,95.0,269520,140.375
2011,0.0,,,,,41.0,,,,,240,note_off,,95.0,41.0,95.0,269760,140.5
2012,0.0,,,,,41.0,,,,,0,note_on,,95.0,41.0,95.0,269760,140.5
2013,0.0,,,,,41.0,,,,,240,note_off,,95.0,41.0,95.0,270000,140.625
2014,0.0,,,,,41.0,,,,,0,note_on,,95.0,41.0,95.0,270000,140.625
2015,0.0,,,,,41.0,,,,,240,note_off,,95.0,41.0,95.0,270240,140.75
2016,0.0,,,,,41.0,,,,,0,note_on,,95.0,41.0,95.0,270240,140.75
2017,0.0,,,,,41.0,,,,,240,note_off,,95.0,41.0,95.0,270480,140.875
2018,0.0,,,,,41.0,,,,,0,note_on,,95.0,41.0,95.0,270480,140.875
2019,0.0,,,,,41.0,,,,,240,note_off,,95.0,41.0,95.0,270720,141.0
2020,0.0,,,,,48.0,,,,,0,note_on,,95.0,48.0,95.0,270720,141.0
2021,0.0,,,,,39.0,,,,,0,note_on,,95.0,39.0,95.0,270720,141.0
2022,0.0,,,,,48.0,,,,,240,note_off,,95.0,48.0,95.0,270960,141.125
2023,0.0,,,,,39.0,,,,,0,note_off,,95.0,39.0,95.0,270960,141.125
2024,0.0,,,,,41.0,,,,,0,note_on,,95.0,41.0,95.0,270960,141.125
2025,0.0,,,,,41.0,,,,,240,note_off,,95.0,41.0,95.0,271200,141.25
2026,0.0,,,,,41.0,,,,,0,note_on,,95.0,41.0,95.0,271200,141.25
2027,0.0,,,,,41.0,,,,,240,note_off,,95.0,41.0,95.0,271440,141.375
2028,0.0,,,,,41.0,,,,,0,note_on,,95.0,41.0,95.0,271440,141.375
2029,0.0,,,,,41.0,,,,,240,note_off,,95.0,41.0,95.0,271680,141.5
2030,0.0,,,,,41.0,,,,,0,note_on,,95.0,41.0,95.0,271680,141.5
2031,0.0,,,,,41.0,,,,,240,note_off,,95.0,41.0,95.0,271920,141.625
2032,0.0,,,,,41.0,,,,,0,note_on,,95.0,41.0,95.0,271920,141.625
2033,0.0,,,,,41.0,,,,,240,note_off,,95.0,41.0,95.0,272160,141.75
2034,0.0,,,,,41.0,,,,,0,note_on,,95.0,41.0,95.0,272160,141.75
2035,0.0,,,,,41.0,,,,,240,note_off,,95.0,41.0,95.0,272400,141.875
2036,0.0,,,,,41.0,,,,,0,note_on,,95.0,41.0,95.0,272400,141.875
2037,0.0,,,,,41.0,,,,,240,note_off,,95.0,41.0,95.0,272640,142.0
2038,0.0,,,,,41.0,,,,,0,note_on,,95.0,41.0,95.0,272640,142.0
2039,0.0,,,,,41.0,,,,,240,note_off,,95.0,41.0,95.0,272880,142.125
2040,0.0,,,,,41.0,,,,,0,note_on,,95.0,41.0,95.0,272880,142.125
2041,0.0,,,,,41.0,,,,,240,note_off,,95.0,41.0,95.0,273120,142.25
2042,0.0,,,,,41.0,,,,,0,note_on,,95.0,41.0,95.0,273120,142.25
2043,0.0,,,,,41.0,,,,,240,note_off,,95.0,41.0,95.0,273360,142.375
2044,0.0,,,,,41.0,,,,,0,note_on,,95.0,41.0,95.0,273360,142.375
2045,0.0,,,,,41.0,,,,,240,note_off,,95.0,41.0,95.0,273600,142.5
2046,0.0,,,,,41.0,,,,,0,note_on,,95.0,41.0,95.0,273600,142.5
2047,0.0,,,,,41.0,,,,,240,note_off,,95.0,41.0,95.0,273840,142.625
2048,0.0,,,,,41.0,,,,,0,note_on,,95.0,41.0,95.0,273840,142.625
2049,0.0,,,,,41.0,,,,,240,note_off,,95.0,41.0,95.0,274080,142.75
2050,0.0,,,,,41.0,,,,,0,note_on,,95.0,41.0,95.0,274080,142.75
2051,0.0,,,,,41.0,,,,,240,note_off,,95.0,41.0,95.0,274320,142.875
2052,0.0,,,,,41.0,,,,,0,note_on,,95.0,41.0,95.0,274320,142.875
2053,0.0,,,,,41.0,,,,,240,note_off,,95.0,41.0,95.0,274560,143.0
2054,0.0,,,,,48.0,,,,,0,note_on,,95.0,48.0,95.0,274560,143.0
2055,0.0,,,,,39.0,,,,,0,note_on,,95.0,39.0,95.0,274560,143.0
2056,0.0,,,,,48.0,,,,,240,note_off,,95.0,48.0,95.0,274800,143.125
2057,0.0,,,,,39.0,,,,,0,note_off,,95.0,39.0,95.0,274800,143.125
2058,0.0,,,,,41.0,,,,,0,note_on,,95.0,41.0,95.0,274800,143.125
2059,0.0,,,,,41.0,,,,,240,note_off,,95.0,41.0,95.0,275040,143.25
2060,0.0,,,,,41.0,,,,,0,note_on,,95.0,41.0,95.0,275040,143.25
2061,0.0,,,,,41.0,,,,,240,note_off,,95.0,41.0,95.0,275280,143.375
2062,0.0,,,,,41.0,,,,,0,note_on,,95.0,41.0,95.0,275280,143.375
2063,0.0,,,,,41.0,,,,,240,note_off,,95.0,41.0,95.0,275520,143.5
2064,0.0,,,,,41.0,,,,,0,note_on,,95.0,41.0,95.0,275520,143.5
2065,0.0,,,,,41.0,,,,,240,note_off,,95.0,41.0,95.0,275760,143.625
2066,0.0,,,,,41.0,,,,,0,note_on,,95.0,41.0,95.0,275760,143.625
2067,0.0,,,,,41.0,,,,,240,note_off,,95.0,41.0,95.0,276000,143.75
2068,0.0,,,,,52.0,,,,,0,note_on,,95.0,52.0,95.0,276000,143.75
2069,0.0,,,,,45.0,,,,,0,note_on,,95.0,45.0,95.0,276000,143.75
2070,0.0,,,,,52.0,,,,,480,note_off,,95.0,52.0,95.0,276480,144.0
2071,0.0,,,,,45.0,,,,,0,note_off,,95.0,45.0,95.0,276480,144.0
2072,0.0,,,,,48.0,,,,,0,note_on,,95.0,48.0,95.0,276480,144.0
2073,0.0,,,,,41.0,,,,,0,note_on,,95.0,41.0,95.0,276480,144.0
2074,0.0,,,,,48.0,,,,,240,note_off,,95.0,48.0,95.0,276720,144.125
2075,0.0,,,,,41.0,,,,,0,note_off,,95.0,41.0,95.0,276720,144.125
2076,0.0,,,,,41.0,,,,,0,note_on,,95.0,41.0,95.0,276720,144.125
2077,0.0,,,,,41.0,,,,,240,note_off,,95.0,41.0,95.0,276960,144.25
2078,0.0,,,,,41.0,,,,,0,note_on,,95.0,41.0,95.0,276960,144.25
2079,0.0,,,,,41.0,,,,,240,note_off,,95.0,41.0,95.0,277200,144.375
2080,0.0,,,,,41.0,,,,,0,note_on,,95.0,41.0,95.0,277200,144.375
2081,0.0,,,,,41.0,,,,,240,note_off,,95.0,41.0,95.0,277440,144.5
2082,0.0,,,,,41.0,,,,,0,note_on,,95.0,41.0,95.0,277440,144.5
2083,0.0,,,,,41.0,,,,,240,note_off,,95.0,41.0,95.0,277680,144.625
2084,0.0,,,,,41.0,,,,,0,note_on,,95.0,41.0,95.0,277680,144.625
2085,0.0,,,,,41.0,,,,,240,note_off,,95.0,41.0,95.0,277920,144.75
2086,0.0,,,,,41.0,,,,,0,note_on,,95.0,41.0,95.0,277920,144.75
2087,0.0,,,,,41.0,,,,,240,note_off,,95.0,41.0,95.0,278160,144.875
2088,0.0,,,,,41.0,,,,,0,note_on,,95.0,41.0,95.0,278160,144.875
2089,0.0,,,,,41.0,,,,,240,note_off,,95.0,41.0,95.0,278400,145.0
2090,0.0,,,,,48.0,,,,,0,note_on,,95.0,48.0,95.0,278400,145.0
2091,0.0,,,,,39.0,,,,,0,note_on,,95.0,39.0,95.0,278400,145.0
2092,0.0,,,,,48.0,,,,,240,note_off,,95.0,48.0,95.0,278640,145.125
2093,0.0,,,,,39.0,,,,,0,note_off,,95.0,39.0,95.0,278640,145.125
2094,0.0,,,,,41.0,,,,,0,note_on,,95.0,41.0,95.0,278640,145.125
2095,0.0,,,,,41.0,,,,,240,note_off,,95.0,41.0,95.0,278880,145.25
2096,0.0,,,,,41.0,,,,,0,note_on,,95.0,41.0,95.0,278880,145.25
2097,0.0,,,,,41.0,,,,,240,note_off,,95.0,41.0,95.0,279120,145.375
2098,0.0,,,,,41.0,,,,,0,note_on,,95.0,41.0,95.0,279120,145.375
2099,0.0,,,,,41.0,,,,,240,note_off,,95.0,41.0,95.0,279360,145.5
2100,0.0,,,,,41.0,,,,,0,note_on,,95.0,41.0,95.0,279360,145.5
2101,0.0,,,,,41.0,,,,,240,note_off,,95.0,41.0,95.0,279600,145.625
2102,0.0,,,,,41.0,,,,,0,note_on,,95.0,41.0,95.0,279600,145.625
2103,0.0,,,,,41.0,,,,,240,note_off,,95.0,41.0,95.0,279840,145.75
2104,0.0,,,,,41.0,,,,,0,note_on,,95.0,41.0,95.0,279840,145.75
2105,0.0,,,,,41.0,,,,,240,note_off,,95.0,41.0,95.0,280080,145.875
2106,0.0,,,,,41.0,,,,,0,note_on,,95.0,41.0,95.0,280080,145.875
2107,0.0,,,,,41.0,,,,,240,note_off,,95.0,41.0,95.0,280320,146.0
2108,0.0,,,,,41.0,,,,,0,note_on,,95.0,41.0,95.0,280320,146.0
2109,0.0,,,,,41.0,,,,,240,note_off,,95.0,41.0,95.0,280560,146.125
2110,0.0,,,,,41.0,,,,,0,note_on,,95.0,41.0,95.0,280560,146.125
2111,0.0,,,,,41.0,,,,,240,note_off,,95.0,41.0,95.0,280800,146.25
2112,0.0,,,,,41.0,,,,,0,note_on,,95.0,41.0,95.0,280800,146.25
2113,0.0,,,,,41.0,,,,,240,note_off,,95.0,41.0,95.0,281040,146.375
2114,0.0,,,,,41.0,,,,,0,note_on,,95.0,41.0,95.0,281040,146.375
2115,0.0,,,,,41.0,,,,,240,note_off,,95.0,41.0,95.0,281280,146.5
2116,0.0,,,,,41.0,,,,,0,note_on,,95.0,41.0,95.0,281280,146.5
2117,0.0,,,,,41.0,,,,,240,note_off,,95.0,41.0,95.0,281520,146.625
2118,0.0,,,,,41.0,,,,,0,note_on,,95.0,41.0,95.0,281520,146.625
2119,0.0,,,,,41.0,,,,,240,note_off,,95.0,41.0,95.0,281760,146.75
2120,0.0,,,,,41.0,,,,,0,note_on,,95.0,41.0,95.0,281760,146.75
2121,0.0,,,,,41.0,,,,,240,note_off,,95.0,41.0,95.0,282000,146.875
2122,0.0,,,,,41.0,,,,,0,note_on,,95.0,41.0,95.0,282000,146.875
2123,0.0,,,,,41.0,,,,,240,note_off,,95.0,41.0,95.0,282240,147.0
2124,0.0,,,,,48.0,,,,,0,note_on,,95.0,48.0,95.0,282240,147.0
2125,0.0,,,,,39.0,,,,,0,note_on,,95.0,39.0,95.0,282240,147.0
2126,0.0,,,,,48.0,,,,,240,note_off,,95.0,48.0,95.0,282480,147.125
2127,0.0,,,,,39.0,,,,,0,note_off,,95.0,39.0,95.0,282480,147.125
2128,0.0,,,,,41.0,,,,,0,note_on,,95.0,41.0,95.0,282480,147.125
2129,0.0,,,,,41.0,,,,,240,note_off,,95.0,41.0,95.0,282720,147.25
2130,0.0,,,,,41.0,,,,,0,note_on,,95.0,41.0,95.0,282720,147.25
2131,0.0,,,,,41.0,,,,,240,note_off,,95.0,41.0,95.0,282960,147.375
2132,0.0,,,,,41.0,,,,,0,note_on,,95.0,41.0,95.0,282960,147.375
2133,0.0,,,,,41.0,,,,,240,note_off,,95.0,41.0,95.0,283200,147.5
2134,0.0,,,,,41.0,,,,,0,note_on,,95.0,41.0,95.0,283200,147.5
2135,0.0,,,,,41.0,,,,,240,note_off,,95.0,41.0,95.0,283440,147.625
2136,0.0,,,,,41.0,,,,,0,note_on,,95.0,41.0,95.0,283440,147.625
2137,0.0,,,,,41.0,,,,,240,note_off,,95.0,41.0,95.0,283680,147.75
2138,0.0,,,,,49.0,,,,,0,note_on,,95.0,49.0,95.0,283680,147.75
2139,0.0,,,,,42.0,,,,,0,note_on,,95.0,42.0,95.0,283680,147.75
2140,0.0,,,,,49.0,,,,,480,note_off,,95.0,49.0,95.0,284160,148.0
2141,0.0,,,,,42.0,,,,,0,note_off,,95.0,42.0,95.0,284160,148.0
2142,0.0,,,,,48.0,,,,,0,note_on,,95.0,48.0,95.0,284160,148.0
2143,0.0,,,,,41.0,,,,,0,note_on,,95.0,41.0,95.0,284160,148.0
2144,0.0,,,,,48.0,,,,,240,note_off,,95.0,48.0,95.0,284400,148.125
2145,0.0,,,,,41.0,,,,,0,note_off,,95.0,41.0,95.0,284400,148.125
2146,0.0,,,,,41.0,,,,,0,note_on,,95.0,41.0,95.0,284400,148.125
2147,0.0,,,,,41.0,,,,,240,note_off,,95.0,41.0,95.0,284640,148.25
2148,0.0,,,,,41.0,,,,,0,note_on,,95.0,41.0,95.0,284640,148.25
2149,0.0,,,,,41.0,,,,,240,note_off,,95.0,41.0,95.0,284880,148.375
2150,0.0,,,,,41.0,,,,,0,note_on,,95.0,41.0,95.0,284880,148.375
2151,0.0,,,,,41.0,,,,,240,note_off,,95.0,41.0,95.0,285120,148.5
2152,0.0,,,,,41.0,,,,,0,note_on,,95.0,41.0,95.0,285120,148.5
2153,0.0,,,,,41.0,,,,,240,note_off,,95.0,41.0,95.0,285360,148.625
2154,0.0,,,,,41.0,,,,,0,note_on,,95.0,41.0,95.0,285360,148.625
2155,0.0,,,,,41.0,,,,,240,note_off,,95.0,41.0,95.0,285600,148.75
2156,0.0,,,,,41.0,,,,,0,note_on,,95.0,41.0,95.0,285600,148.75
2157,0.0,,,,,41.0,,,,,240,note_off,,95.0,41.0,95.0,285840,148.875
2158,0.0,,,,,41.0,,,,,0,note_on,,95.0,41.0,95.0,285840,148.875
2159,0.0,,,,,41.0,,,,,240,note_off,,95.0,41.0,95.0,286080,149.0
2160,0.0,,,,,48.0,,,,,0,note_on,,95.0,48.0,95.0,286080,149.0
2161,0.0,,,,,39.0,,,,,0,note_on,,95.0,39.0,95.0,286080,149.0
2162,0.0,,,,,48.0,,,,,240,note_off,,95.0,48.0,95.0,286320,149.125
2163,0.0,,,,,39.0,,,,,0,note_off,,95.0,39.0,95.0,286320,149.125
2164,0.0,,,,,41.0,,,,,0,note_on,,95.0,41.0,95.0,286320,149.125
2165,0.0,,,,,41.0,,,,,240,note_off,,95.0,41.0,95.0,286560,149.25
2166,0.0,,,,,41.0,,,,,0,note_on,,95.0,41.0,95.0,286560,149.25
2167,0.0,,,,,41.0,,,,,240,note_off,,95.0,41.0,95.0,286800,149.375
2168,0.0,,,,,41.0,,,,,0,note_on,,95.0,41.0,95.0,286800,149.375
2169,0.0,,,,,41.0,,,,,240,note_off,,95.0,41.0,95.0,287040,149.5
2170,0.0,,,,,41.0,,,,,0,note_on,,95.0,41.0,95.0,287040,149.5
2171,0.0,,,,,41.0,,,,,240,note_off,,95.0,41.0,95.0,287280,149.625
2172,0.0,,,,,41.0,,,,,0,note_on,,95.0,41.0,95.0,287280,149.625
2173,0.0,,,,,41.0,,,,,240,note_off,,95.0,41.0,95.0,287520,149.75
2174,0.0,,,,,41.0,,,,,0,note_on,,95.0,41.0,95.0,287520,149.75
2175,0.0,,,,,41.0,,,,,240,note_off,,95.0,41.0,95.0,287760,149.875
2176,0.0,,,,,41.0,,,,,0,note_on,,95.0,41.0,95.0,287760,149.875
2177,0.0,,,,,41.0,,,,,240,note_off,,95.0,41.0,95.0,288000,150.0
2178,0.0,,,,,41.0,,,,,0,note_on,,95.0,41.0,95.0,288000,150.0
2179,0.0,,,,,41.0,,,,,240,note_off,,95.0,41.0,95.0,288240,150.125
2180,0.0,,,,,41.0,,,,,0,note_on,,95.0,41.0,95.0,288240,150.125
2181,0.0,,,,,41.0,,,,,240,note_off,,95.0,41.0,95.0,288480,150.25
2182,0.0,,,,,41.0,,,,,0,note_on,,95.0,41.0,95.0,288480,150.25
2183,0.0,,,,,41.0,,,,,240,note_off,,95.0,41.0,95.0,288720,150.375
2184,0.0,,,,,41.0,,,,,0,note_on,,95.0,41.0,95.0,288720,150.375
2185,0.0,,,,,41.0,,,,,240,note_off,,95.0,41.0,95.0,288960,150.5
2186,0.0,,,,,41.0,,,,,0,note_on,,95.0,41.0,95.0,288960,150.5
2187,0.0,,,,,41.0,,,,,240,note_off,,95.0,41.0,95.0,289200,150.625
2188,0.0,,,,,41.0,,,,,0,note_on,,95.0,41.0,95.0,289200,150.625
2189,0.0,,,,,41.0,,,,,240,note_off,,95.0,41.0,95.0,289440,150.75
2190,0.0,,,,,41.0,,,,,0,note_on,,95.0,41.0,95.0,289440,150.75
2191,0.0,,,,,41.0,,,,,240,note_off,,95.0,41.0,95.0,289680,150.875
2192,0.0,,,,,41.0,,,,,0,note_on,,95.0,41.0,95.0,289680,150.875
2193,0.0,,,,,41.0,,,,,240,note_off,,95.0,41.0,95.0,289920,151.0
2194,0.0,,,,,48.0,,,,,0,note_on,,95.0,48.0,95.0,289920,151.0
2195,0.0,,,,,39.0,,,,,0,note_on,,95.0,39.0,95.0,289920,151.0
2196,0.0,,,,,48.0,,,,,240,note_off,,95.0,48.0,95.0,290160,151.125
2197,0.0,,,,,39.0,,,,,0,note_off,,95.0,39.0,95.0,290160,151.125
2198,0.0,,,,,41.0,,,,,0,note_on,,95.0,41.0,95.0,290160,151.125
2199,0.0,,,,,41.0,,,,,240,note_off,,95.0,41.0,95.0,290400,151.25
2200,0.0,,,,,41.0,,,,,0,note_on,,95.0,41.0,95.0,290400,151.25
2201,0.0,,,,,41.0,,,,,240,note_off,,95.0,41.0,95.0,290640,151.375
2202,0.0,,,,,41.0,,,,,0,note_on,,95.0,41.0,95.0,290640,151.375
2203,0.0,,,,,41.0,,,,,240,note_off,,95.0,41.0,95.0,290880,151.5
2204,0.0,,,,,41.0,,,,,0,note_on,,95.0,41.0,95.0,290880,151.5
2205,0.0,,,,,41.0,,,,,240,note_off,,95.0,41.0,95.0,291120,151.625
2206,0.0,,,,,41.0,,,,,0,note_on,,95.0,41.0,95.0,291120,151.625
2207,0.0,,,,,41.0,,,,,240,note_off,,95.0,41.0,95.0,291360,151.75
2208,0.0,,,,,52.0,,,,,0,note_on,,95.0,52.0,95.0,291360,151.75
2209,0.0,,,,,45.0,,,,,0,note_on,,95.0,45.0,95.0,291360,151.75
2210,0.0,,,,,52.0,,,,,480,note_off,,95.0,52.0,95.0,291840,152.0
2211,0.0,,,,,45.0,,,,,0,note_off,,95.0,45.0,95.0,291840,152.0
2212,0.0,,,,,48.0,,,,,0,note_on,,95.0,48.0,95.0,291840,152.0
2213,0.0,,,,,41.0,,,,,0,note_on,,95.0,41.0,95.0,291840,152.0
2214,0.0,,,,,48.0,,,,,240,note_off,,95.0,48.0,95.0,292080,152.125
2215,0.0,,,,,41.0,,,,,0,note_off,,95.0,41.0,95.0,292080,152.125
2216,0.0,,,,,41.0,,,,,0,note_on,,95.0,41.0,95.0,292080,152.125
2217,0.0,,,,,41.0,,,,,240,note_off,,95.0,41.0,95.0,292320,152.25
2218,0.0,,,,,41.0,,,,,0,note_on,,95.0,41.0,95.0,292320,152.25
2219,0.0,,,,,41.0,,,,,240,note_off,,95.0,41.0,95.0,292560,152.375
2220,0.0,,,,,41.0,,,,,0,note_on,,95.0,41.0,95.0,292560,152.375
2221,0.0,,,,,41.0,,,,,240,note_off,,95.0,41.0,95.0,292800,152.5
2222,0.0,,,,,41.0,,,,,0,note_on,,95.0,41.0,95.0,292800,152.5
2223,0.0,,,,,41.0,,,,,240,note_off,,95.0,41.0,95.0,293040,152.625
2224,0.0,,,,,41.0,,,,,0,note_on,,95.0,41.0,95.0,293040,152.625
2225,0.0,,,,,41.0,,,,,240,note_off,,95.0,41.0,95.0,293280,152.75
2226,0.0,,,,,41.0,,,,,0,note_on,,95.0,41.0,95.0,293280,152.75
2227,0.0,,,,,41.0,,,,,240,note_off,,95.0,41.0,95.0,293520,152.875
2228,0.0,,,,,41.0,,,,,0,note_on,,95.0,41.0,95.0,293520,152.875
2229,0.0,,,,,41.0,,,,,240,note_off,,95.0,41.0,95.0,293760,153.0
2230,0.0,,,,,48.0,,,,,0,note_on,,95.0,48.0,95.0,293760,153.0
2231,0.0,,,,,39.0,,,,,0,note_on,,95.0,39.0,95.0,293760,153.0
2232,0.0,,,,,48.0,,,,,240,note_off,,95.0,48.0,95.0,294000,153.125
2233,0.0,,,,,39.0,,,,,0,note_off,,95.0,39.0,95.0,294000,153.125
2234,0.0,,,,,41.0,,,,,0,note_on,,95.0,41.0,95.0,294000,153.125
2235,0.0,,,,,41.0,,,,,240,note_off,,95.0,41.0,95.0,294240,153.25
2236,0.0,,,,,41.0,,,,,0,note_on,,95.0,41.0,95.0,294240,153.25
2237,0.0,,,,,41.0,,,,,240,note_off,,95.0,41.0,95.0,294480,153.375
2238,0.0,,,,,41.0,,,,,0,note_on,,95.0,41.0,95.0,294480,153.375
2239,0.0,,,,,41.0,,,,,240,note_off,,95.0,41.0,95.0,294720,153.5
2240,0.0,,,,,41.0,,,,,0,note_on,,95.0,41.0,95.0,294720,153.5
2241,0.0,,,,,41.0,,,,,240,note_off,,95.0,41.0,95.0,294960,153.625
2242,0.0,,,,,41.0,,,,,0,note_on,,95.0,41.0,95.0,294960,153.625
2243,0.0,,,,,41.0,,,,,240,note_off,,95.0,41.0,95.0,295200,153.75
2244,0.0,,,,,41.0,,,,,0,note_on,,95.0,41.0,95.0,295200,153.75
2245,0.0,,,,,41.0,,,,,240,note_off,,95.0,41.0,95.0,295440,153.875
2246,0.0,,,,,41.0,,,,,0,note_on,,95.0,41.0,95.0,295440,153.875
2247,0.0,,,,,41.0,,,,,240,note_off,,95.0,41.0,95.0,295680,154.0
2248,0.0,,,,,41.0,,,,,0,note_on,,95.0,41.0,95.0,295680,154.0
2249,0.0,,,,,41.0,,,,,240,note_off,,95.0,41.0,95.0,295920,154.125
2250,0.0,,,,,41.0,,,,,0,note_on,,95.0,41.0,95.0,295920,154.125
2251,0.0,,,,,41.0,,,,,240,note_off,,95.0,41.0,95.0,296160,154.25
2252,0.0,,,,,41.0,,,,,0,note_on,,95.0,41.0,95.0,296160,154.25
2253,0.0,,,,,41.0,,,,,240,note_off,,95.0,41.0,95.0,296400,154.375
2254,0.0,,,,,41.0,,,,,0,note_on,,95.0,41.0,95.0,296400,154.375
2255,0.0,,,,,41.0,,,,,240,note_off,,95.0,41.0,95.0,296640,154.5
2256,0.0,,,,,41.0,,,,,0,note_on,,95.0,41.0,95.0,296640,154.5
2257,0.0,,,,,41.0,,,,,240,note_off,,95.0,41.0,95.0,296880,154.625
2258,0.0,,,,,41.0,,,,,0,note_on,,95.0,41.0,95.0,296880,154.625
2259,0.0,,,,,41.0,,,,,240,note_off,,95.0,41.0,95.0,297120,154.75
2260,0.0,,,,,41.0,,,,,0,note_on,,95.0,41.0,95.0,297120,154.75
2261,0.0,,,,,41.0,,,,,240,note_off,,95.0,41.0,95.0,297360,154.875
2262,0.0,,,,,41.0,,,,,0,note_on,,95.0,41.0,95.0,297360,154.875
2263,0.0,,,,,41.0,,,,,240,note_off,,95.0,41.0,95.0,297600,155.0
2264,0.0,,,,,48.0,,,,,0,note_on,,95.0,48.0,95.0,297600,155.0
2265,0.0,,,,,39.0,,,,,0,note_on,,95.0,39.0,95.0,297600,155.0
2266,0.0,,,,,48.0,,,,,240,note_off,,95.0,48.0,95.0,297840,155.125
2267,0.0,,,,,39.0,,,,,0,note_off,,95.0,39.0,95.0,297840,155.125
2268,0.0,,,,,41.0,,,,,0,note_on,,95.0,41.0,95.0,297840,155.125
2269,0.0,,,,,41.0,,,,,240,note_off,,95.0,41.0,95.0,298080,155.25
2270,0.0,,,,,41.0,,,,,0,note_on,,95.0,41.0,95.0,298080,155.25
2271,0.0,,,,,41.0,,,,,240,note_off,,95.0,41.0,95.0,298320,155.375
2272,0.0,,,,,41.0,,,,,0,note_on,,95.0,41.0,95.0,298320,155.375
2273,0.0,,,,,41.0,,,,,240,note_off,,95.0,41.0,95.0,298560,155.5
2274,0.0,,,,,49.0,,,,,0,note_on,,95.0,49.0,95.0,298560,155.5
2275,0.0,,,,,42.0,,,,,0,note_on,,95.0,42.0,95.0,298560,155.5
2276,0.0,,,,,49.0,,,,,960,note_off,,95.0,49.0,95.0,299520,156.0
2277,0.0,,,,,42.0,,,,,0,note_off,,95.0,42.0,95.0,299520,156.0
2278,0.0,,,,,44.0,,,,,0,note_on,,95.0,44.0,95.0,299520,156.0
2279,0.0,,,,,44.0,,,,,240,note_off,,95.0,44.0,95.0,299760,156.125
2280,0.0,,,,,44.0,,,,,0,note_on,,95.0,44.0,95.0,299760,156.125
2281,0.0,,,,,44.0,,,,,240,note_off,,95.0,44.0,95.0,300000,156.25
2282,0.0,,,,,44.0,,,,,0,note_on,,95.0,44.0,95.0,300000,156.25
2283,0.0,,,,,44.0,,,,,240,note_off,,95.0,44.0,95.0,300240,156.375
2284,0.0,,,,,44.0,,,,,0,note_on,,95.0,44.0,95.0,300240,156.375
2285,0.0,,,,,44.0,,,,,240,note_off,,95.0,44.0,95.0,300480,156.5
2286,0.0,,,,,44.0,,,,,0,note_on,,95.0,44.0,95.0,300480,156.5
2287,0.0,,,,,44.0,,,,,240,note_off,,95.0,44.0,95.0,300720,156.625
2288,0.0,,,,,44.0,,,,,0,note_on,,95.0,44.0,95.0,300720,156.625
2289,0.0,,,,,44.0,,,,,240,note_off,,95.0,44.0,95.0,300960,156.75
2290,0.0,,,,,44.0,,,,,0,note_on,,95.0,44.0,95.0,300960,156.75
2291,0.0,,,,,44.0,,,,,240,note_off,,95.0,44.0,95.0,301200,156.875
2292,0.0,,,,,44.0,,,,,0,note_on,,95.0,44.0,95.0,301200,156.875
2293,0.0,,,,,44.0,,,,,240,note_off,,95.0,44.0,95.0,301440,157.0
2294,0.0,,,,,42.0,,,,,0,note_on,,95.0,42.0,95.0,301440,157.0
2295,0.0,,,,,42.0,,,,,240,note_off,,95.0,42.0,95.0,301680,157.125
2296,0.0,,,,,44.0,,,,,0,note_on,,95.0,44.0,95.0,301680,157.125
2297,0.0,,,,,44.0,,,,,240,note_off,,95.0,44.0,95.0,301920,157.25
2298,0.0,,,,,44.0,,,,,0,note_on,,95.0,44.0,95.0,301920,157.25
2299,0.0,,,,,44.0,,,,,240,note_off,,95.0,44.0,95.0,302160,157.375
2300,0.0,,,,,44.0,,,,,0,note_on,,95.0,44.0,95.0,302160,157.375
2301,0.0,,,,,44.0,,,,,240,note_off,,95.0,44.0,95.0,302400,157.5
2302,0.0,,,,,44.0,,,,,0,note_on,,95.0,44.0,95.0,302400,157.5
2303,0.0,,,,,44.0,,,,,240,note_off,,95.0,44.0,95.0,302640,157.625
2304,0.0,,,,,44.0,,,,,0,note_on,,95.0,44.0,95.0,302640,157.625
2305,0.0,,,,,44.0,,,,,240,note_off,,95.0,44.0,95.0,302880,157.75
2306,0.0,,,,,44.0,,,,,0,note_on,,95.0,44.0,95.0,302880,157.75
2307,0.0,,,,,44.0,,,,,240,note_off,,95.0,44.0,95.0,303120,157.875
2308,0.0,,,,,44.0,,,,,0,note_on,,95.0,44.0,95.0,303120,157.875
2309,0.0,,,,,44.0,,,,,240,note_off,,95.0,44.0,95.0,303360,158.0
2310,0.0,,,,,44.0,,,,,0,note_on,,95.0,44.0,95.0,303360,158.0
2311,0.0,,,,,44.0,,,,,240,note_off,,95.0,44.0,95.0,303600,158.125
2312,0.0,,,,,44.0,,,,,0,note_on,,95.0,44.0,95.0,303600,158.125
2313,0.0,,,,,44.0,,,,,240,note_off,,95.0,44.0,95.0,303840,158.25
2314,0.0,,,,,44.0,,,,,0,note_on,,95.0,44.0,95.0,303840,158.25
2315,0.0,,,,,44.0,,,,,240,note_off,,95.0,44.0,95.0,304080,158.375
2316,0.0,,,,,44.0,,,,,0,note_on,,95.0,44.0,95.0,304080,158.375
2317,0.0,,,,,44.0,,,,,240,note_off,,95.0,44.0,95.0,304320,158.5
2318,0.0,,,,,44.0,,,,,0,note_on,,95.0,44.0,95.0,304320,158.5
2319,0.0,,,,,44.0,,,,,240,note_off,,95.0,44.0,95.0,304560,158.625
2320,0.0,,,,,44.0,,,,,0,note_on,,95.0,44.0,95.0,304560,158.625
2321,0.0,,,,,44.0,,,,,240,note_off,,95.0,44.0,95.0,304800,158.75
2322,0.0,,,,,44.0,,,,,0,note_on,,95.0,44.0,95.0,304800,158.75
2323,0.0,,,,,44.0,,,,,240,note_off,,95.0,44.0,95.0,305040,158.875
2324,0.0,,,,,44.0,,,,,0,note_on,,95.0,44.0,95.0,305040,158.875
2325,0.0,,,,,44.0,,,,,240,note_off,,95.0,44.0,95.0,305280,159.0
2326,0.0,,,,,42.0,,,,,0,note_on,,95.0,42.0,95.0,305280,159.0
2327,0.0,,,,,42.0,,,,,240,note_off,,95.0,42.0,95.0,305520,159.125
2328,0.0,,,,,44.0,,,,,0,note_on,,95.0,44.0,95.0,305520,159.125
2329,0.0,,,,,44.0,,,,,240,note_off,,95.0,44.0,95.0,305760,159.25
2330,0.0,,,,,44.0,,,,,0,note_on,,95.0,44.0,95.0,305760,159.25
2331,0.0,,,,,44.0,,,,,240,note_off,,95.0,44.0,95.0,306000,159.375
2332,0.0,,,,,44.0,,,,,0,note_on,,95.0,44.0,95.0,306000,159.375
2333,0.0,,,,,44.0,,,,,240,note_off,,95.0,44.0,95.0,306240,159.5
2334,0.0,,,,,44.0,,,,,0,note_on,,95.0,44.0,95.0,306240,159.5
2335,0.0,,,,,44.0,,,,,240,note_off,,95.0,44.0,95.0,306480,159.625
2336,0.0,,,,,44.0,,,,,0,note_on,,95.0,44.0,95.0,306480,159.625
2337,0.0,,,,,44.0,,,,,240,note_off,,95.0,44.0,95.0,306720,159.75
2338,0.0,,,,,55.0,,,,,0,note_on,,95.0,55.0,95.0,306720,159.75
2339,0.0,,,,,48.0,,,,,0,note_on,,95.0,48.0,95.0,306720,159.75
2340,0.0,,,,,55.0,,,,,480,note_off,,95.0,55.0,95.0,307200,160.0
2341,0.0,,,,,48.0,,,,,0,note_off,,95.0,48.0,95.0,307200,160.0
2342,0.0,,,,,44.0,,,,,0,note_on,,95.0,44.0,95.0,307200,160.0
2343,0.0,,,,,44.0,,,,,240,note_off,,95.0,44.0,95.0,307440,160.125
2344,0.0,,,,,44.0,,,,,0,note_on,,95.0,44.0,95.0,307440,160.125
2345,0.0,,,,,44.0,,,,,240,note_off,,95.0,44.0,95.0,307680,160.25
2346,0.0,,,,,44.0,,,,,0,note_on,,95.0,44.0,95.0,307680,160.25
2347,0.0,,,,,44.0,,,,,240,note_off,,95.0,44.0,95.0,307920,160.375
2348,0.0,,,,,44.0,,,,,0,note_on,,95.0,44.0,95.0,307920,160.375
2349,0.0,,,,,44.0,,,,,240,note_off,,95.0,44.0,95.0,308160,160.5
2350,0.0,,,,,44.0,,,,,0,note_on,,95.0,44.0,95.0,308160,160.5
2351,0.0,,,,,44.0,,,,,240,note_off,,95.0,44.0,95.0,308400,160.625
2352,0.0,,,,,44.0,,,,,0,note_on,,95.0,44.0,95.0,308400,160.625
2353,0.0,,,,,44.0,,,,,240,note_off,,95.0,44.0,95.0,308640,160.75
2354,0.0,,,,,44.0,,,,,0,note_on,,95.0,44.0,95.0,308640,160.75
2355,0.0,,,,,44.0,,,,,240,note_off,,95.0,44.0,95.0,308880,160.875
2356,0.0,,,,,44.0,,,,,0,note_on,,95.0,44.0,95.0,308880,160.875
2357,0.0,,,,,44.0,,,,,240,note_off,,95.0,44.0,95.0,309120,161.0
2358,0.0,,,,,42.0,,,,,0,note_on,,95.0,42.0,95.0,309120,161.0
2359,0.0,,,,,42.0,,,,,240,note_off,,95.0,42.0,95.0,309360,161.125
2360,0.0,,,,,44.0,,,,,0,note_on,,95.0,44.0,95.0,309360,161.125
2361,0.0,,,,,44.0,,,,,240,note_off,,95.0,44.0,95.0,309600,161.25
2362,0.0,,,,,44.0,,,,,0,note_on,,95.0,44.0,95.0,309600,161.25
2363,0.0,,,,,44.0,,,,,240,note_off,,95.0,44.0,95.0,309840,161.375
2364,0.0,,,,,44.0,,,,,0,note_on,,95.0,44.0,95.0,309840,161.375
2365,0.0,,,,,44.0,,,,,240,note_off,,95.0,44.0,95.0,310080,161.5
2366,0.0,,,,,44.0,,,,,0,note_on,,95.0,44.0,95.0,310080,161.5
2367,0.0,,,,,44.0,,,,,240,note_off,,95.0,44.0,95.0,310320,161.625
2368,0.0,,,,,44.0,,,,,0,note_on,,95.0,44.0,95.0,310320,161.625
2369,0.0,,,,,44.0,,,,,240,note_off,,95.0,44.0,95.0,310560,161.75
2370,0.0,,,,,44.0,,,,,0,note_on,,95.0,44.0,95.0,310560,161.75
2371,0.0,,,,,44.0,,,,,240,note_off,,95.0,44.0,95.0,310800,161.875
2372,0.0,,,,,44.0,,,,,0,note_on,,95.0,44.0,95.0,310800,161.875
2373,0.0,,,,,44.0,,,,,240,note_off,,95.0,44.0,95.0,311040,162.0
2374,0.0,,,,,44.0,,,,,0,note_on,,95.0,44.0,95.0,311040,162.0
2375,0.0,,,,,44.0,,,,,240,note_off,,95.0,44.0,95.0,311280,162.125
2376,0.0,,,,,44.0,,,,,0,note_on,,95.0,44.0,95.0,311280,162.125
2377,0.0,,,,,44.0,,,,,240,note_off,,95.0,44.0,95.0,311520,162.25
2378,0.0,,,,,44.0,,,,,0,note_on,,95.0,44.0,95.0,311520,162.25
2379,0.0,,,,,44.0,,,,,240,note_off,,95.0,44.0,95.0,311760,162.375
2380,0.0,,,,,44.0,,,,,0,note_on,,95.0,44.0,95.0,311760,162.375
2381,0.0,,,,,44.0,,,,,240,note_off,,95.0,44.0,95.0,312000,162.5
2382,0.0,,,,,44.0,,,,,0,note_on,,95.0,44.0,95.0,312000,162.5
2383,0.0,,,,,44.0,,,,,240,note_off,,95.0,44.0,95.0,312240,162.625
2384,0.0,,,,,44.0,,,,,0,note_on,,95.0,44.0,95.0,312240,162.625
2385,0.0,,,,,44.0,,,,,240,note_off,,95.0,44.0,95.0,312480,162.75
2386,0.0,,,,,44.0,,,,,0,note_on,,95.0,44.0,95.0,312480,162.75
2387,0.0,,,,,44.0,,,,,240,note_off,,95.0,44.0,95.0,312720,162.875
2388,0.0,,,,,44.0,,,,,0,note_on,,95.0,44.0,95.0,312720,162.875
2389,0.0,,,,,44.0,,,,,240,note_off,,95.0,44.0,95.0,312960,163.0
2390,0.0,,,,,42.0,,,,,0,note_on,,95.0,42.0,95.0,312960,163.0
2391,0.0,,,,,42.0,,,,,240,note_off,,95.0,42.0,95.0,313200,163.125
2392,0.0,,,,,44.0,,,,,0,note_on,,95.0,44.0,95.0,313200,163.125
2393,0.0,,,,,44.0,,,,,240,note_off,,95.0,44.0,95.0,313440,163.25
2394,0.0,,,,,44.0,,,,,0,note_on,,95.0,44.0,95.0,313440,163.25
2395,0.0,,,,,44.0,,,,,240,note_off,,95.0,44.0,95.0,313680,163.375
2396,0.0,,,,,44.0,,,,,0,note_on,,95.0,44.0,95.0,313680,163.375
2397,0.0,,,,,44.0,,,,,240,note_off,,95.0,44.0,95.0,313920,163.5
2398,0.0,,,,,44.0,,,,,0,note_on,,95.0,44.0,95.0,313920,163.5
2399,0.0,,,,,44.0,,,,,240,note_off,,95.0,44.0,95.0,314160,163.625
2400,0.0,,,,,44.0,,,,,0,note_on,,95.0,44.0,95.0,314160,163.625
2401,0.0,,,,,44.0,,,,,240,note_off,,95.0,44.0,95.0,314400,163.75
2402,0.0,,,,,52.0,,,,,0,note_on,,95.0,52.0,95.0,314400,163.75
2403,0.0,,,,,45.0,,,,,0,note_on,,95.0,45.0,95.0,314400,163.75
2404,0.0,,,,,52.0,,,,,480,note_off,,95.0,52.0,95.0,314880,164.0
2405,0.0,,,,,45.0,,,,,0,note_off,,95.0,45.0,95.0,314880,164.0
2406,0.0,,,,,44.0,,,,,0,note_on,,95.0,44.0,95.0,314880,164.0
2407,0.0,,,,,44.0,,,,,240,note_off,,95.0,44.0,95.0,315120,164.125
2408,0.0,,,,,44.0,,,,,0,note_on,,95.0,44.0,95.0,315120,164.125
2409,0.0,,,,,44.0,,,,,240,note_off,,95.0,44.0,95.0,315360,164.25
2410,0.0,,,,,44.0,,,,,0,note_on,,95.0,44.0,95.0,315360,164.25
2411,0.0,,,,,44.0,,,,,240,note_off,,95.0,44.0,95.0,315600,164.375
2412,0.0,,,,,44.0,,,,,0,note_on,,95.0,44.0,95.0,315600,164.375
2413,0.0,,,,,44.0,,,,,240,note_off,,95.0,44.0,95.0,315840,164.5
2414,0.0,,,,,44.0,,,,,0,note_on,,95.0,44.0,95.0,315840,164.5
2415,0.0,,,,,44.0,,,,,240,note_off,,95.0,44.0,95.0,316080,164.625
2416,0.0,,,,,44.0,,,,,0,note_on,,95.0,44.0,95.0,316080,164.625
2417,0.0,,,,,44.0,,,,,240,note_off,,95.0,44.0,95.0,316320,164.75
2418,0.0,,,,,44.0,,,,,0,note_on,,95.0,44.0,95.0,316320,164.75
2419,0.0,,,,,44.0,,,,,240,note_off,,95.0,44.0,95.0,316560,164.875
2420,0.0,,,,,44.0,,,,,0,note_on,,95.0,44.0,95.0,316560,164.875
2421,0.0,,,,,44.0,,,,,240,note_off,,95.0,44.0,95.0,316800,165.0
2422,0.0,,,,,42.0,,,,,0,note_on,,95.0,42.0,95.0,316800,165.0
2423,0.0,,,,,42.0,,,,,240,note_off,,95.0,42.0,95.0,317040,165.125
2424,0.0,,,,,44.0,,,,,0,note_on,,95.0,44.0,95.0,317040,165.125
2425,0.0,,,,,44.0,,,,,240,note_off,,95.0,44.0,95.0,317280,165.25
2426,0.0,,,,,44.0,,,,,0,note_on,,95.0,44.0,95.0,317280,165.25
2427,0.0,,,,,44.0,,,,,240,note_off,,95.0,44.0,95.0,317520,165.375
2428,0.0,,,,,44.0,,,,,0,note_on,,95.0,44.0,95.0,317520,165.375
2429,0.0,,,,,44.0,,,,,240,note_off,,95.0,44.0,95.0,317760,165.5
2430,0.0,,,,,44.0,,,,,0,note_on,,95.0,44.0,95.0,317760,165.5
2431,0.0,,,,,44.0,,,,,240,note_off,,95.0,44.0,95.0,318000,165.625
2432,0.0,,,,,44.0,,,,,0,note_on,,95.0,44.0,95.0,318000,165.625
2433,0.0,,,,,44.0,,,,,240,note_off,,95.0,44.0,95.0,318240,165.75
2434,0.0,,,,,44.0,,,,,0,note_on,,95.0,44.0,95.0,318240,165.75
2435,0.0,,,,,44.0,,,,,240,note_off,,95.0,44.0,95.0,318480,165.875
2436,0.0,,,,,44.0,,,,,0,note_on,,95.0,44.0,95.0,318480,165.875
2437,0.0,,,,,44.0,,,,,240,note_off,,95.0,44.0,95.0,318720,166.0
2438,0.0,,,,,44.0,,,,,0,note_on,,95.0,44.0,95.0,318720,166.0
2439,0.0,,,,,44.0,,,,,240,note_off,,95.0,44.0,95.0,318960,166.125
2440,0.0,,,,,44.0,,,,,0,note_on,,95.0,44.0,95.0,318960,166.125
2441,0.0,,,,,44.0,,,,,240,note_off,,95.0,44.0,95.0,319200,166.25
2442,0.0,,,,,44.0,,,,,0,note_on,,95.0,44.0,95.0,319200,166.25
2443,0.0,,,,,44.0,,,,,240,note_off,,95.0,44.0,95.0,319440,166.375
2444,0.0,,,,,44.0,,,,,0,note_on,,95.0,44.0,95.0,319440,166.375
2445,0.0,,,,,44.0,,,,,240,note_off,,95.0,44.0,95.0,319680,166.5
2446,0.0,,,,,44.0,,,,,0,note_on,,95.0,44.0,95.0,319680,166.5
2447,0.0,,,,,44.0,,,,,240,note_off,,95.0,44.0,95.0,319920,166.625
2448,0.0,,,,,44.0,,,,,0,note_on,,95.0,44.0,95.0,319920,166.625
2449,0.0,,,,,44.0,,,,,240,note_off,,95.0,44.0,95.0,320160,166.75
2450,0.0,,,,,44.0,,,,,0,note_on,,95.0,44.0,95.0,320160,166.75
2451,0.0,,,,,44.0,,,,,240,note_off,,95.0,44.0,95.0,320400,166.875
2452,0.0,,,,,44.0,,,,,0,note_on,,95.0,44.0,95.0,320400,166.875
2453,0.0,,,,,44.0,,,,,240,note_off,,95.0,44.0,95.0,320640,167.0
2454,0.0,,,,,42.0,,,,,0,note_on,,95.0,42.0,95.0,320640,167.0
2455,0.0,,,,,42.0,,,,,240,note_off,,95.0,42.0,95.0,320880,167.125
2456,0.0,,,,,44.0,,,,,0,note_on,,95.0,44.0,95.0,320880,167.125
2457,0.0,,,,,44.0,,,,,240,note_off,,95.0,44.0,95.0,321120,167.25
2458,0.0,,,,,44.0,,,,,0,note_on,,95.0,44.0,95.0,321120,167.25
2459,0.0,,,,,44.0,,,,,240,note_off,,95.0,44.0,95.0,321360,167.375
2460,0.0,,,,,44.0,,,,,0,note_on,,95.0,44.0,95.0,321360,167.375
2461,0.0,,,,,44.0,,,,,240,note_off,,95.0,44.0,95.0,321600,167.5
2462,0.0,,,,,44.0,,,,,0,note_on,,95.0,44.0,95.0,321600,167.5
2463,0.0,,,,,44.0,,,,,240,note_off,,95.0,44.0,95.0,321840,167.625
2464,0.0,,,,,44.0,,,,,0,note_on,,95.0,44.0,95.0,321840,167.625
2465,0.0,,,,,44.0,,,,,240,note_off,,95.0,44.0,95.0,322080,167.75
2466,0.0,,,,,55.0,,,,,0,note_on,,95.0,55.0,95.0,322080,167.75
2467,0.0,,,,,48.0,,,,,0,note_on,,95.0,48.0,95.0,322080,167.75
2468,0.0,,,,,55.0,,,,,480,note_off,,95.0,55.0,95.0,322560,168.0
2469,0.0,,,,,48.0,,,,,0,note_off,,95.0,48.0,95.0,322560,168.0
2470,0.0,,,,,44.0,,,,,0,note_on,,95.0,44.0,95.0,322560,168.0
2471,0.0,,,,,44.0,,,,,240,note_off,,95.0,44.0,95.0,322800,168.125
2472,0.0,,,,,44.0,,,,,0,note_on,,95.0,44.0,95.0,322800,168.125
2473,0.0,,,,,44.0,,,,,240,note_off,,95.0,44.0,95.0,323040,168.25
2474,0.0,,,,,44.0,,,,,0,note_on,,95.0,44.0,95.0,323040,168.25
2475,0.0,,,,,44.0,,,,,240,note_off,,95.0,44.0,95.0,323280,168.375
2476,0.0,,,,,44.0,,,,,0,note_on,,95.0,44.0,95.0,323280,168.375
2477,0.0,,,,,44.0,,,,,240,note_off,,95.0,44.0,95.0,323520,168.5
2478,0.0,,,,,44.0,,,,,0,note_on,,95.0,44.0,95.0,323520,168.5
2479,0.0,,,,,44.0,,,,,240,note_off,,95.0,44.0,95.0,323760,168.625
2480,0.0,,,,,44.0,,,,,0,note_on,,95.0,44.0,95.0,323760,168.625
2481,0.0,,,,,44.0,,,,,240,note_off,,95.0,44.0,95.0,324000,168.75
2482,0.0,,,,,44.0,,,,,0,note_on,,95.0,44.0,95.0,324000,168.75
2483,0.0,,,,,44.0,,,,,240,note_off,,95.0,44.0,95.0,324240,168.875
2484,0.0,,,,,44.0,,,,,0,note_on,,95.0,44.0,95.0,324240,168.875
2485,0.0,,,,,44.0,,,,,240,note_off,,95.0,44.0,95.0,324480,169.0
2486,0.0,,,,,42.0,,,,,0,note_on,,95.0,42.0,95.0,324480,169.0
2487,0.0,,,,,42.0,,,,,240,note_off,,95.0,42.0,95.0,324720,169.125
2488,0.0,,,,,44.0,,,,,0,note_on,,95.0,44.0,95.0,324720,169.125
2489,0.0,,,,,44.0,,,,,240,note_off,,95.0,44.0,95.0,324960,169.25
2490,0.0,,,,,44.0,,,,,0,note_on,,95.0,44.0,95.0,324960,169.25
2491,0.0,,,,,44.0,,,,,240,note_off,,95.0,44.0,95.0,325200,169.375
2492,0.0,,,,,44.0,,,,,0,note_on,,95.0,44.0,95.0,325200,169.375
2493,0.0,,,,,44.0,,,,,240,note_off,,95.0,44.0,95.0,325440,169.5
2494,0.0,,,,,44.0,,,,,0,note_on,,95.0,44.0,95.0,325440,169.5
2495,0.0,,,,,44.0,,,,,240,note_off,,95.0,44.0,95.0,325680,169.625
2496,0.0,,,,,44.0,,,,,0,note_on,,95.0,44.0,95.0,325680,169.625
2497,0.0,,,,,44.0,,,,,240,note_off,,95.0,44.0,95.0,325920,169.75
2498,0.0,,,,,44.0,,,,,0,note_on,,95.0,44.0,95.0,325920,169.75
2499,0.0,,,,,44.0,,,,,240,note_off,,95.0,44.0,95.0,326160,169.875
2500,0.0,,,,,44.0,,,,,0,note_on,,95.0,44.0,95.0,326160,169.875
2501,0.0,,,,,44.0,,,,,240,note_off,,95.0,44.0,95.0,326400,170.0
2502,0.0,,,,,44.0,,,,,0,note_on,,95.0,44.0,95.0,326400,170.0
2503,0.0,,,,,44.0,,,,,240,note_off,,95.0,44.0,95.0,326640,170.125
2504,0.0,,,,,44.0,,,,,0,note_on,,95.0,44.0,95.0,326640,170.125
2505,0.0,,,,,44.0,,,,,240,note_off,,95.0,44.0,95.0,326880,170.25
2506,0.0,,,,,44.0,,,,,0,note_on,,95.0,44.0,95.0,326880,170.25
2507,0.0,,,,,44.0,,,,,240,note_off,,95.0,44.0,95.0,327120,170.375
2508,0.0,,,,,44.0,,,,,0,note_on,,95.0,44.0,95.0,327120,170.375
2509,0.0,,,,,44.0,,,,,240,note_off,,95.0,44.0,95.0,327360,170.5
2510,0.0,,,,,44.0,,,,,0,note_on,,95.0,44.0,95.0,327360,170.5
2511,0.0,,,,,44.0,,,,,240,note_off,,95.0,44.0,95.0,327600,170.625
2512,0.0,,,,,44.0,,,,,0,note_on,,95.0,44.0,95.0,327600,170.625
2513,0.0,,,,,44.0,,,,,240,note_off,,95.0,44.0,95.0,327840,170.75
2514,0.0,,,,,44.0,,,,,0,note_on,,95.0,44.0,95.0,327840,170.75
2515,0.0,,,,,44.0,,,,,240,note_off,,95.0,44.0,95.0,328080,170.875
2516,0.0,,,,,44.0,,,,,0,note_on,,95.0,44.0,95.0,328080,170.875
2517,0.0,,,,,44.0,,,,,240,note_off,,95.0,44.0,95.0,328320,171.0
2518,0.0,,,,,42.0,,,,,0,note_on,,95.0,42.0,95.0,328320,171.0
2519,0.0,,,,,42.0,,,,,240,note_off,,95.0,42.0,95.0,328560,171.125
2520,0.0,,,,,44.0,,,,,0,note_on,,95.0,44.0,95.0,328560,171.125
2521,0.0,,,,,44.0,,,,,240,note_off,,95.0,44.0,95.0,328800,171.25
2522,0.0,,,,,44.0,,,,,0,note_on,,95.0,44.0,95.0,328800,171.25
2523,0.0,,,,,44.0,,,,,240,note_off,,95.0,44.0,95.0,329040,171.375
2524,0.0,,,,,44.0,,,,,0,note_on,,95.0,44.0,95.0,329040,171.375
2525,0.0,,,,,44.0,,,,,240,note_off,,95.0,44.0,95.0,329280,171.5
2526,0.0,,,,,52.0,,,,,0,note_on,,95.0,52.0,95.0,329280,171.5
2527,0.0,,,,,45.0,,,,,0,note_on,,95.0,45.0,95.0,329280,171.5
2528,0.0,,,,,52.0,,,,,960,note_off,,95.0,52.0,95.0,330240,172.0
2529,0.0,,,,,45.0,,,,,0,note_off,,95.0,45.0,95.0,330240,172.0
2530,0.0,,,,,48.0,,,,,0,note_on,,95.0,48.0,95.0,330240,172.0
2531,0.0,,,,,41.0,,,,,0,note_on,,95.0,41.0,95.0,330240,172.0
2532,0.0,,,,,48.0,,,,,2880,note_off,,95.0,48.0,95.0,333120,173.5
2533,0.0,,,,,41.0,,,,,0,note_off,,95.0,41.0,95.0,333120,173.5
2534,0.0,,,,,49.0,,,,,0,note_on,,95.0,49.0,95.0,333120,173.5
2535,0.0,,,,,42.0,,,,,0,note_on,,95.0,42.0,95.0,333120,173.5
2536,0.0,,,,,49.0,,,,,960,note_off,,95.0,49.0,95.0,334080,174.0
2537,0.0,,,,,42.0,,,,,0,note_off,,95.0,42.0,95.0,334080,174.0
2538,0.0,,,,,39.0,,,,,0,note_on,,95.0,39.0,95.0,334080,174.0
2539,0.0,,,,,39.0,,,,,240,note_off,,95.0,39.0,95.0,334320,174.125
2540,0.0,,,,,39.0,,,,,0,note_on,,95.0,39.0,95.0,334320,174.125
2541,0.0,,,,,39.0,,,,,240,note_off,,95.0,39.0,95.0,334560,174.25
2542,0.0,,,,,39.0,,,,,0,note_on,,95.0,39.0,95.0,334560,174.25
2543,0.0,,,,,39.0,,,,,240,note_off,,95.0,39.0,95.0,334800,174.375
2544,0.0,,,,,39.0,,,,,0,note_on,,95.0,39.0,95.0,334800,174.375
2545,0.0,,,,,39.0,,,,,240,note_off,,95.0,39.0,95.0,335040,174.5
2546,0.0,,,,,39.0,,,,,0,note_on,,95.0,39.0,95.0,335040,174.5
2547,0.0,,,,,39.0,,,,,240,note_off,,95.0,39.0,95.0,335280,174.625
2548,0.0,,,,,39.0,,,,,0,note_on,,95.0,39.0,95.0,335280,174.625
2549,0.0,,,,,39.0,,,,,240,note_off,,95.0,39.0,95.0,335520,174.75
2550,0.0,,,,,39.0,,,,,0,note_on,,95.0,39.0,95.0,335520,174.75
2551,0.0,,,,,39.0,,,,,240,note_off,,95.0,39.0,95.0,335760,174.875
2552,0.0,,,,,39.0,,,,,0,note_on,,95.0,39.0,95.0,335760,174.875
2553,0.0,,,,,39.0,,,,,240,note_off,,95.0,39.0,95.0,336000,175.0
2554,0.0,,,,,39.0,,,,,0,note_on,,95.0,39.0,95.0,336000,175.0
2555,0.0,,,,,39.0,,,,,240,note_off,,95.0,39.0,95.0,336240,175.125
2556,0.0,,,,,39.0,,,,,0,note_on,,95.0,39.0,95.0,336240,175.125
2557,0.0,,,,,39.0,,,,,240,note_off,,95.0,39.0,95.0,336480,175.25
2558,0.0,,,,,49.0,,,,,0,note_on,,95.0,49.0,95.0,336480,175.25
2559,0.0,,,,,42.0,,,,,0,note_on,,95.0,42.0,95.0,336480,175.25
2560,0.0,,,,,49.0,,,,,480,note_off,,95.0,49.0,95.0,336960,175.5
2561,0.0,,,,,42.0,,,,,0,note_off,,95.0,42.0,95.0,336960,175.5
2562,0.0,,,,,39.0,,,,,0,note_on,,95.0,39.0,95.0,336960,175.5
2563,0.0,,,,,39.0,,,,,240,note_off,,95.0,39.0,95.0,337200,175.625
2564,0.0,,,,,39.0,,,,,0,note_on,,95.0,39.0,95.0,337200,175.625
2565,0.0,,,,,39.0,,,,,240,note_off,,95.0,39.0,95.0,337440,175.75
2566,0.0,,,,,49.0,,,,,0,note_on,,95.0,49.0,95.0,337440,175.75
2567,0.0,,,,,42.0,,,,,0,note_on,,95.0,42.0,95.0,337440,175.75
2568,0.0,,,,,49.0,,,,,480,note_off,,95.0,49.0,95.0,337920,176.0
2569,0.0,,,,,42.0,,,,,0,note_off,,95.0,42.0,95.0,337920,176.0
2570,0.0,,,,,48.0,,,,,0,note_on,,95.0,48.0,95.0,337920,176.0
2571,0.0,,,,,41.0,,,,,0,note_on,,95.0,41.0,95.0,337920,176.0
2572,0.0,,,,,48.0,,,,,2880,note_off,,95.0,48.0,95.0,340800,177.5
2573,0.0,,,,,41.0,,,,,0,note_off,,95.0,41.0,95.0,340800,177.5
2574,0.0,,,,,52.0,,,,,0,note_on,,95.0,52.0,95.0,340800,177.5
2575,0.0,,,,,45.0,,,,,0,note_on,,95.0,45.0,95.0,340800,177.5
2576,0.0,,,,,52.0,,,,,960,note_off,,95.0,52.0,95.0,341760,178.0
2577,0.0,,,,,45.0,,,,,0,note_off,,95.0,45.0,95.0,341760,178.0
2578,0.0,,,,,39.0,,,,,0,note_on,,95.0,39.0,95.0,341760,178.0
2579,0.0,,,,,39.0,,,,,240,note_off,,95.0,39.0,95.0,342000,178.125
2580,0.0,,,,,39.0,,,,,0,note_on,,95.0,39.0,95.0,342000,178.125
2581,0.0,,,,,39.0,,,,,240,note_off,,95.0,39.0,95.0,342240,178.25
2582,0.0,,,,,39.0,,,,,0,note_on,,95.0,39.0,95.0,342240,178.25
2583,0.0,,,,,39.0,,,,,240,note_off,,95.0,39.0,95.0,342480,178.375
2584,0.0,,,,,39.0,,,,,0,note_on,,95.0,39.0,95.0,342480,178.375
2585,0.0,,,,,39.0,,,,,240,note_off,,95.0,39.0,95.0,342720,178.5
2586,0.0,,,,,39.0,,,,,0,note_on,,95.0,39.0,95.0,342720,178.5
2587,0.0,,,,,39.0,,,,,240,note_off,,95.0,39.0,95.0,342960,178.625
2588,0.0,,,,,39.0,,,,,0,note_on,,95.0,39.0,95.0,342960,178.625
2589,0.0,,,,,39.0,,,,,240,note_off,,95.0,39.0,95.0,343200,178.75
2590,0.0,,,,,39.0,,,,,0,note_on,,95.0,39.0,95.0,343200,178.75
2591,0.0,,,,,39.0,,,,,240,note_off,,95.0,39.0,95.0,343440,178.875
2592,0.0,,,,,39.0,,,,,0,note_on,,95.0,39.0,95.0,343440,178.875
2593,0.0,,,,,39.0,,,,,240,note_off,,95.0,39.0,95.0,343680,179.0
2594,0.0,,,,,39.0,,,,,0,note_on,,95.0,39.0,95.0,343680,179.0
2595,0.0,,,,,39.0,,,,,240,note_off,,95.0,39.0,95.0,343920,179.125
2596,0.0,,,,,39.0,,,,,0,note_on,,95.0,39.0,95.0,343920,179.125
2597,0.0,,,,,39.0,,,,,240,note_off,,95.0,39.0,95.0,344160,179.25
2598,0.0,,,,,46.0,,,,,0,note_on,,95.0,46.0,95.0,344160,179.25
2599,0.0,,,,,39.0,,,,,0,note_on,,95.0,39.0,95.0,344160,179.25
2600,0.0,,,,,46.0,,,,,480,note_off,,95.0,46.0,95.0,344640,179.5
2601,0.0,,,,,39.0,,,,,0,note_off,,95.0,39.0,95.0,344640,179.5
2602,0.0,,,,,39.0,,,,,0,note_on,,95.0,39.0,95.0,344640,179.5
2603,0.0,,,,,39.0,,,,,240,note_off,,95.0,39.0,95.0,344880,179.625
2604,0.0,,,,,39.0,,,,,0,note_on,,95.0,39.0,95.0,344880,179.625
2605,0.0,,,,,39.0,,,,,240,note_off,,95.0,39.0,95.0,345120,179.75
2606,0.0,,,,,47.0,,,,,0,note_on,,95.0,47.0,95.0,345120,179.75
2607,0.0,,,,,40.0,,,,,0,note_on,,95.0,40.0,95.0,345120,179.75
2608,0.0,,,,,47.0,,,,,480,note_off,,95.0,47.0,95.0,345600,180.0
2609,0.0,,,,,40.0,,,,,0,note_off,,95.0,40.0,95.0,345600,180.0
2610,0.0,,,,,48.0,,,,,0,note_on,,95.0,48.0,95.0,345600,180.0
2611,0.0,,,,,41.0,,,,,0,note_on,,95.0,41.0,95.0,345600,180.0
2612,0.0,,,,,48.0,,,,,2880,note_off,,95.0,48.0,95.0,348480,181.5
2613,0.0,,,,,41.0,,,,,0,note_off,,95.0,41.0,95.0,348480,181.5
2614,0.0,,,,,49.0,,,,,0,note_on,,95.0,49.0,95.0,348480,181.5
2615,0.0,,,,,42.0,,,,,0,note_on,,95.0,42.0,95.0,348480,181.5
2616,0.0,,,,,49.0,,,,,960,note_off,,95.0,49.0,95.0,349440,182.0
2617,0.0,,,,,42.0,,,,,0,note_off,,95.0,42.0,95.0,349440,182.0
2618,0.0,,,,,39.0,,,,,0,note_on,,95.0,39.0,95.0,349440,182.0
2619,0.0,,,,,39.0,,,,,240,note_off,,95.0,39.0,95.0,349680,182.125
2620,0.0,,,,,39.0,,,,,0,note_on,,95.0,39.0,95.0,349680,182.125
2621,0.0,,,,,39.0,,,,,240,note_off,,95.0,39.0,95.0,349920,182.25
2622,0.0,,,,,39.0,,,,,0,note_on,,95.0,39.0,95.0,349920,182.25
2623,0.0,,,,,39.0,,,,,240,note_off,,95.0,39.0,95.0,350160,182.375
2624,0.0,,,,,39.0,,,,,0,note_on,,95.0,39.0,95.0,350160,182.375
2625,0.0,,,,,39.0,,,,,240,note_off,,95.0,39.0,95.0,350400,182.5
2626,0.0,,,,,39.0,,,,,0,note_on,,95.0,39.0,95.0,350400,182.5
2627,0.0,,,,,39.0,,,,,240,note_off,,95.0,39.0,95.0,350640,182.625
2628,0.0,,,,,39.0,,,,,0,note_on,,95.0,39.0,95.0,350640,182.625
2629,0.0,,,,,39.0,,,,,240,note_off,,95.0,39.0,95.0,350880,182.75
2630,0.0,,,,,39.0,,,,,0,note_on,,95.0,39.0,95.0,350880,182.75
2631,0.0,,,,,39.0,,,,,240,note_off,,95.0,39.0,95.0,351120,182.875
2632,0.0,,,,,39.0,,,,,0,note_on,,95.0,39.0,95.0,351120,182.875
2633,0.0,,,,,39.0,,,,,240,note_off,,95.0,39.0,95.0,351360,183.0
2634,0.0,,,,,39.0,,,,,0,note_on,,95.0,39.0,95.0,351360,183.0
2635,0.0,,,,,39.0,,,,,240,note_off,,95.0,39.0,95.0,351600,183.125
2636,0.0,,,,,39.0,,,,,0,note_on,,95.0,39.0,95.0,351600,183.125
2637,0.0,,,,,39.0,,,,,240,note_off,,95.0,39.0,95.0,351840,183.25
2638,0.0,,,,,49.0,,,,,0,note_on,,95.0,49.0,95.0,351840,183.25
2639,0.0,,,,,42.0,,,,,0,note_on,,95.0,42.0,95.0,351840,183.25
2640,0.0,,,,,49.0,,,,,480,note_off,,95.0,49.0,95.0,352320,183.5
2641,0.0,,,,,42.0,,,,,0,note_off,,95.0,42.0,95.0,352320,183.5
2642,0.0,,,,,39.0,,,,,0,note_on,,95.0,39.0,95.0,352320,183.5
2643,0.0,,,,,39.0,,,,,240,note_off,,95.0,39.0,95.0,352560,183.625
2644,0.0,,,,,39.0,,,,,0,note_on,,95.0,39.0,95.0,352560,183.625
2645,0.0,,,,,39.0,,,,,240,note_off,,95.0,39.0,95.0,352800,183.75
2646,0.0,,,,,49.0,,,,,0,note_on,,95.0,49.0,95.0,352800,183.75
2647,0.0,,,,,42.0,,,,,0,note_on,,95.0,42.0,95.0,352800,183.75
2648,0.0,,,,,49.0,,,,,480,note_off,,95.0,49.0,95.0,353280,184.0
2649,0.0,,,,,42.0,,,,,0,note_off,,95.0,42.0,95.0,353280,184.0
2650,0.0,,,,,48.0,,,,,0,note_on,,95.0,48.0,95.0,353280,184.0
2651,0.0,,,,,41.0,,,,,0,note_on,,95.0,41.0,95.0,353280,184.0
2652,0.0,,,,,48.0,,,,,1920,note_off,,95.0,48.0,95.0,355200,185.0
2653,0.0,,,,,41.0,,,,,0,note_off,,95.0,41.0,95.0,355200,185.0
2654,0.0,,,,,51.0,,,,,0,note_on,,95.0,51.0,95.0,355200,185.0
2655,0.0,,,,,44.0,,,,,0,note_on,,95.0,44.0,95.0,355200,185.0
2656,0.0,,,,,51.0,,,,,960,note_off,,95.0,51.0,95.0,356160,185.5
2657,0.0,,,,,44.0,,,,,0,note_off,,95.0,44.0,95.0,356160,185.5
2658,0.0,,,,,50.0,,,,,0,note_on,,95.0,50.0,95.0,356160,185.5
2659,0.0,,,,,43.0,,,,,0,note_on,,95.0,43.0,95.0,356160,185.5
2660,0.0,,,,,50.0,,,,,480,note_off,,95.0,50.0,95.0,356640,185.75
2661,0.0,,,,,43.0,,,,,0,note_off,,95.0,43.0,95.0,356640,185.75
2662,0.0,,,,,49.0,,,,,0,note_on,,95.0,49.0,95.0,356640,185.75
2663,0.0,,,,,42.0,,,,,0,note_on,,95.0,42.0,95.0,356640,185.75
2664,0.0,,,,,49.0,,,,,480,note_off,,95.0,49.0,95.0,357120,186.0
2665,0.0,,,,,42.0,,,,,0,note_off,,95.0,42.0,95.0,357120,186.0
2666,0.0,,,,,39.0,,,,,0,note_on,,95.0,39.0,95.0,357120,186.0
2667,0.0,,,,,39.0,,,,,240,note_off,,95.0,39.0,95.0,357360,186.125
2668,0.0,,,,,39.0,,,,,0,note_on,,95.0,39.0,95.0,357360,186.125
2669,0.0,,,,,39.0,,,,,240,note_off,,95.0,39.0,95.0,357600,186.25
2670,0.0,,,,,39.0,,,,,240,note_on,,95.0,39.0,95.0,357840,186.375
2671,1.0,,,,,49.0,,,,,180,note_on,,95.0,49.0,95.0,358020,186.46875
2672,0.0,,,,,39.0,,,,,60,note_off,,95.0,39.0,95.0,358080,186.5
2673,1.0,,,,,49.0,,,,,0,note_off,,95.0,49.0,95.0,358080,186.5
2674,1.0,,,,,51.0,,,,,0,note_on,,95.0,51.0,95.0,358080,186.5
2675,0.0,,,,,39.0,,,,,0,note_on,,95.0,39.0,95.0,358080,186.5
2676,1.0,,,,,51.0,,,,,480,note_off,,95.0,51.0,95.0,358560,186.75
2677,0.0,,,,,39.0,,,,,0,note_off,,95.0,39.0,95.0,358560,186.75
2678,0.0,,,,,39.0,,,,,0,note_on,,95.0,39.0,95.0,358560,186.75
2679,0.0,,,,,39.0,,,,,240,note_off,,95.0,39.0,95.0,358800,186.875
2680,0.0,,,,,39.0,,,,,0,note_on,,95.0,39.0,95.0,358800,186.875
2681,0.0,,,,,39.0,,,,,240,note_off,,95.0,39.0,95.0,359040,187.0
2682,0.0,,,,,39.0,,,,,240,note_on,,95.0,39.0,95.0,359280,187.125
2683,0.0,,,,,39.0,,,,,240,note_off,,95.0,39.0,95.0,359520,187.25
2684,0.0,,,,,59.0,,,,,0,note_on,,95.0,59.0,95.0,359520,187.25
2685,0.0,,,,,52.0,,,,,0,note_on,,95.0,52.0,95.0,359520,187.25
2686,0.0,,,,,59.0,,,,,480,note_off,,95.0,59.0,95.0,360000,187.5
2687,0.0,,,,,52.0,,,,,0,note_off,,95.0,52.0,95.0,360000,187.5
2688,0.0,,,,,39.0,,,,,0,note_on,,95.0,39.0,95.0,360000,187.5
2689,0.0,,,,,39.0,,,,,240,note_off,,95.0,39.0,95.0,360240,187.625
2690,0.0,,,,,39.0,,,,,0,note_on,,95.0,39.0,95.0,360240,187.625
2691,0.0,,,,,39.0,,,,,240,note_off,,95.0,39.0,95.0,360480,187.75
2692,0.0,,,,,57.0,,,,,0,note_on,,95.0,57.0,95.0,360480,187.75
2693,0.0,,,,,50.0,,,,,0,note_on,,95.0,50.0,95.0,360480,187.75
2694,0.0,,,,,57.0,,,,,480,note_off,,95.0,57.0,95.0,360960,188.0
2695,0.0,,,,,50.0,,,,,0,note_off,,95.0,50.0,95.0,360960,188.0
2696,0.0,,,,,39.0,,,,,0,note_on,,95.0,39.0,95.0,360960,188.0
2697,0.0,,,,,39.0,,,,,240,note_off,,95.0,39.0,95.0,361200,188.125
2698,0.0,,,,,39.0,,,,,0,note_on,,95.0,39.0,95.0,361200,188.125
2699,0.0,,,,,39.0,,,,,240,note_off,,95.0,39.0,95.0,361440,188.25
2700,0.0,,,,,39.0,,,,,240,note_on,,95.0,39.0,95.0,361680,188.375
2701,1.0,,,,,49.0,,,,,180,note_on,,95.0,49.0,95.0,361860,188.46875
2702,0.0,,,,,39.0,,,,,60,note_off,,95.0,39.0,95.0,361920,188.5
2703,1.0,,,,,49.0,,,,,0,note_off,,95.0,49.0,95.0,361920,188.5
2704,1.0,,,,,51.0,,,,,0,note_on,,95.0,51.0,95.0,361920,188.5
2705,0.0,,,,,39.0,,,,,0,note_on,,95.0,39.0,95.0,361920,188.5
2706,1.0,,,,,51.0,,,,,480,note_off,,95.0,51.0,95.0,362400,188.75
2707,0.0,,,,,39.0,,,,,0,note_off,,95.0,39.0,95.0,362400,188.75
2708,0.0,,,,,39.0,,,,,0,note_on,,95.0,39.0,95.0,362400,188.75
2709,0.0,,,,,39.0,,,,,240,note_off,,95.0,39.0,95.0,362640,188.875
2710,0.0,,,,,39.0,,,,,0,note_on,,95.0,39.0,95.0,362640,188.875
2711,0.0,,,,,39.0,,,,,240,note_off,,95.0,39.0,95.0,362880,189.0
2712,0.0,,,,,39.0,,,,,240,note_on,,95.0,39.0,95.0,363120,189.125
2713,0.0,,,,,39.0,,,,,240,note_off,,95.0,39.0,95.0,363360,189.25
2714,0.0,,,,,61.0,,,,,0,note_on,,95.0,61.0,95.0,363360,189.25
2715,0.0,,,,,54.0,,,,,0,note_on,,95.0,54.0,95.0,363360,189.25
2716,0.0,,,,,61.0,,,,,480,note_off,,95.0,61.0,95.0,363840,189.5
2717,0.0,,,,,54.0,,,,,0,note_off,,95.0,54.0,95.0,363840,189.5
2718,0.0,,,,,39.0,,,,,0,note_on,,95.0,39.0,95.0,363840,189.5
2719,0.0,,,,,39.0,,,,,240,note_off,,95.0,39.0,95.0,364080,189.625
2720,0.0,,,,,39.0,,,,,0,note_on,,95.0,39.0,95.0,364080,189.625
2721,0.0,,,,,39.0,,,,,240,note_off,,95.0,39.0,95.0,364320,189.75
2722,0.0,,,,,60.0,,,,,0,note_on,,95.0,60.0,95.0,364320,189.75
2723,0.0,,,,,53.0,,,,,0,note_on,,95.0,53.0,95.0,364320,189.75
2724,0.0,,,,,60.0,,,,,480,note_off,,95.0,60.0,95.0,364800,190.0
2725,0.0,,,,,53.0,,,,,0,note_off,,95.0,53.0,95.0,364800,190.0
2726,0.0,,,,,39.0,,,,,0,note_on,,95.0,39.0,95.0,364800,190.0
2727,0.0,,,,,39.0,,,,,240,note_off,,95.0,39.0,95.0,365040,190.125
2728,0.0,,,,,39.0,,,,,0,note_on,,95.0,39.0,95.0,365040,190.125
2729,0.0,,,,,39.0,,,,,240,note_off,,95.0,39.0,95.0,365280,190.25
2730,0.0,,,,,39.0,,,,,240,note_on,,95.0,39.0,95.0,365520,190.375
2731,1.0,,,,,49.0,,,,,180,note_on,,95.0,49.0,95.0,365700,190.46875
2732,0.0,,,,,39.0,,,,,60,note_off,,95.0,39.0,95.0,365760,190.5
2733,1.0,,,,,49.0,,,,,0,note_off,,95.0,49.0,95.0,365760,190.5
2734,1.0,,,,,51.0,,,,,0,note_on,,95.0,51.0,95.0,365760,190.5
2735,0.0,,,,,39.0,,,,,0,note_on,,95.0,39.0,95.0,365760,190.5
2736,1.0,,,,,51.0,,,,,480,note_off,,95.0,51.0,95.0,366240,190.75
2737,0.0,,,,,39.0,,,,,0,note_off,,95.0,39.0,95.0,366240,190.75
2738,0.0,,,,,39.0,,,,,0,note_on,,95.0,39.0,95.0,366240,190.75
2739,0.0,,,,,39.0,,,,,240,note_off,,95.0,39.0,95.0,366480,190.875
2740,0.0,,,,,39.0,,,,,0,note_on,,95.0,39.0,95.0,366480,190.875
2741,0.0,,,,,39.0,,,,,240,note_off,,95.0,39.0,95.0,366720,191.0
2742,0.0,,,,,39.0,,,,,240,note_on,,95.0,39.0,95.0,366960,191.125
2743,0.0,,,,,39.0,,,,,240,note_off,,95.0,39.0,95.0,367200,191.25
2744,0.0,,,,,59.0,,,,,0,note_on,,95.0,59.0,95.0,367200,191.25
2745,0.0,,,,,52.0,,,,,0,note_on,,95.0,52.0,95.0,367200,191.25
2746,0.0,,,,,59.0,,,,,480,note_off,,95.0,59.0,95.0,367680,191.5
2747,0.0,,,,,52.0,,,,,0,note_off,,95.0,52.0,95.0,367680,191.5
2748,0.0,,,,,39.0,,,,,0,note_on,,95.0,39.0,95.0,367680,191.5
2749,0.0,,,,,39.0,,,,,240,note_off,,95.0,39.0,95.0,367920,191.625
2750,0.0,,,,,39.0,,,,,0,note_on,,95.0,39.0,95.0,367920,191.625
2751,0.0,,,,,39.0,,,,,240,note_off,,95.0,39.0,95.0,368160,191.75
2752,0.0,,,,,57.0,,,,,0,note_on,,95.0,57.0,95.0,368160,191.75
2753,0.0,,,,,50.0,,,,,0,note_on,,95.0,50.0,95.0,368160,191.75
2754,0.0,,,,,57.0,,,,,480,note_off,,95.0,57.0,95.0,368640,192.0
2755,0.0,,,,,50.0,,,,,0,note_off,,95.0,50.0,95.0,368640,192.0
2756,0.0,,,,,39.0,,,,,0,note_on,,95.0,39.0,95.0,368640,192.0
2757,0.0,,,,,39.0,,,,,240,note_off,,95.0,39.0,95.0,368880,192.125
2758,0.0,,,,,39.0,,,,,0,note_on,,95.0,39.0,95.0,368880,192.125
2759,0.0,,,,,39.0,,,,,240,note_off,,95.0,39.0,95.0,369120,192.25
2760,0.0,,,,,39.0,,,,,240,note_on,,95.0,39.0,95.0,369360,192.375
2761,1.0,,,,,49.0,,,,,180,note_on,,95.0,49.0,95.0,369540,192.46875
2762,0.0,,,,,39.0,,,,,60,note_off,,95.0,39.0,95.0,369600,192.5
2763,1.0,,,,,49.0,,,,,0,note_off,,95.0,49.0,95.0,369600,192.5
2764,1.0,,,,,51.0,,,,,0,note_on,,95.0,51.0,95.0,369600,192.5
2765,0.0,,,,,39.0,,,,,0,note_on,,95.0,39.0,95.0,369600,192.5
2766,1.0,,,,,51.0,,,,,480,note_off,,95.0,51.0,95.0,370080,192.75
2767,0.0,,,,,39.0,,,,,0,note_off,,95.0,39.0,95.0,370080,192.75
2768,0.0,,,,,39.0,,,,,0,note_on,,95.0,39.0,95.0,370080,192.75
2769,0.0,,,,,39.0,,,,,240,note_off,,95.0,39.0,95.0,370320,192.875
2770,0.0,,,,,39.0,,,,,0,note_on,,95.0,39.0,95.0,370320,192.875
2771,0.0,,,,,39.0,,,,,240,note_off,,95.0,39.0,95.0,370560,193.0
2772,0.0,,,,,39.0,,,,,240,note_on,,95.0,39.0,95.0,370800,193.125
2773,0.0,,,,,39.0,,,,,240,note_off,,95.0,39.0,95.0,371040,193.25
2774,0.0,,,,,49.0,,,,,0,note_on,,95.0,49.0,95.0,371040,193.25
2775,0.0,,,,,42.0,,,,,0,note_on,,95.0,42.0,95.0,371040,193.25
2776,0.0,,,,,49.0,,,,,480,note_off,,95.0,49.0,95.0,371520,193.5
2777,0.0,,,,,42.0,,,,,0,note_off,,95.0,42.0,95.0,371520,193.5
2778,0.0,,,,,39.0,,,,,0,note_on,,95.0,39.0,95.0,371520,193.5
2779,0.0,,,,,39.0,,,,,240,note_off,,95.0,39.0,95.0,371760,193.625
2780,0.0,,,,,39.0,,,,,0,note_on,,95.0,39.0,95.0,371760,193.625
2781,0.0,,,,,39.0,,,,,240,note_off,,95.0,39.0,95.0,372000,193.75
2782,0.0,,,,,47.0,,,,,0,note_on,,95.0,47.0,95.0,372000,193.75
2783,0.0,,,,,40.0,,,,,0,note_on,,95.0,40.0,95.0,372000,193.75
2784,0.0,,,,,47.0,,,,,480,note_off,,95.0,47.0,95.0,372480,194.0
2785,0.0,,,,,40.0,,,,,0,note_off,,95.0,40.0,95.0,372480,194.0
2786,0.0,,,,,48.0,,,,,0,note_on,,95.0,48.0,95.0,372480,194.0
2787,0.0,,,,,41.0,,,,,0,note_on,,95.0,41.0,95.0,372480,194.0
2788,0.0,,,,,48.0,,,,,2880,note_off,,95.0,48.0,95.0,375360,195.5
2789,0.0,,,,,41.0,,,,,0,note_off,,95.0,41.0,95.0,375360,195.5
2790,0.0,,,,,49.0,,,,,0,note_on,,95.0,49.0,95.0,375360,195.5
2791,0.0,,,,,42.0,,,,,0,note_on,,95.0,42.0,95.0,375360,195.5
2792,0.0,,,,,49.0,,,,,960,note_off,,95.0,49.0,95.0,376320,196.0
2793,0.0,,,,,42.0,,,,,0,note_off,,95.0,42.0,95.0,376320,196.0
2794,0.0,,,,,39.0,,,,,0,note_on,,95.0,39.0,95.0,376320,196.0
2795,0.0,,,,,39.0,,,,,240,note_off,,95.0,39.0,95.0,376560,196.125
2796,0.0,,,,,39.0,,,,,0,note_on,,95.0,39.0,95.0,376560,196.125
2797,0.0,,,,,39.0,,,,,240,note_off,,95.0,39.0,95.0,376800,196.25
2798,0.0,,,,,39.0,,,,,0,note_on,,95.0,39.0,95.0,376800,196.25
2799,0.0,,,,,39.0,,,,,240,note_off,,95.0,39.0,95.0,377040,196.375
2800,0.0,,,,,39.0,,,,,0,note_on,,95.0,39.0,95.0,377040,196.375
2801,0.0,,,,,39.0,,,,,240,note_off,,95.0,39.0,95.0,377280,196.5
2802,0.0,,,,,39.0,,,,,0,note_on,,95.0,39.0,95.0,377280,196.5
2803,0.0,,,,,39.0,,,,,240,note_off,,95.0,39.0,95.0,377520,196.625
2804,0.0,,,,,39.0,,,,,0,note_on,,95.0,39.0,95.0,377520,196.625
2805,0.0,,,,,39.0,,,,,240,note_off,,95.0,39.0,95.0,377760,196.75
2806,0.0,,,,,39.0,,,,,0,note_on,,95.0,39.0,95.0,377760,196.75
2807,0.0,,,,,39.0,,,,,240,note_off,,95.0,39.0,95.0,378000,196.875
2808,0.0,,,,,39.0,,,,,0,note_on,,95.0,39.0,95.0,378000,196.875
2809,0.0,,,,,39.0,,,,,240,note_off,,95.0,39.0,95.0,378240,197.0
2810,0.0,,,,,39.0,,,,,0,note_on,,95.0,39.0,95.0,378240,197.0
2811,0.0,,,,,39.0,,,,,240,note_off,,95.0,39.0,95.0,378480,197.125
2812,0.0,,,,,39.0,,,,,0,note_on,,95.0,39.0,95.0,378480,197.125
2813,0.0,,,,,39.0,,,,,240,note_off,,95.0,39.0,95.0,378720,197.25
2814,0.0,,,,,49.0,,,,,0,note_on,,95.0,49.0,95.0,378720,197.25
2815,0.0,,,,,42.0,,,,,0,note_on,,95.0,42.0,95.0,378720,197.25
2816,0.0,,,,,49.0,,,,,480,note_off,,95.0,49.0,95.0,379200,197.5
2817,0.0,,,,,42.0,,,,,0,note_off,,95.0,42.0,95.0,379200,197.5
2818,0.0,,,,,39.0,,,,,0,note_on,,95.0,39.0,95.0,379200,197.5
2819,0.0,,,,,39.0,,,,,240,note_off,,95.0,39.0,95.0,379440,197.625
2820,0.0,,,,,39.0,,,,,0,note_on,,95.0,39.0,95.0,379440,197.625
2821,0.0,,,,,39.0,,,,,240,note_off,,95.0,39.0,95.0,379680,197.75
2822,0.0,,,,,49.0,,,,,0,note_on,,95.0,49.0,95.0,379680,197.75
2823,0.0,,,,,42.0,,,,,0,note_on,,95.0,42.0,95.0,379680,197.75
2824,0.0,,,,,49.0,,,,,480,note_off,,95.0,49.0,95.0,380160,198.0
2825,0.0,,,,,42.0,,,,,0,note_off,,95.0,42.0,95.0,380160,198.0
2826,0.0,,,,,48.0,,,,,0,note_on,,95.0,48.0,95.0,380160,198.0
2827,0.0,,,,,41.0,,,,,0,note_on,,95.0,41.0,95.0,380160,198.0
2828,0.0,,,,,48.0,,,,,2880,note_off,,95.0,48.0,95.0,383040,199.5
2829,0.0,,,,,41.0,,,,,0,note_off,,95.0,41.0,95.0,383040,199.5
2830,0.0,,,,,52.0,,,,,0,note_on,,95.0,52.0,95.0,383040,199.5
2831,0.0,,,,,45.0,,,,,0,note_on,,95.0,45.0,95.0,383040,199.5
2832,0.0,,,,,52.0,,,,,960,note_off,,95.0,52.0,95.0,384000,200.0
2833,0.0,,,,,45.0,,,,,0,note_off,,95.0,45.0,95.0,384000,200.0
2834,0.0,,,,,39.0,,,,,0,note_on,,95.0,39.0,95.0,384000,200.0
2835,0.0,,,,,39.0,,,,,240,note_off,,95.0,39.0,95.0,384240,200.125
2836,0.0,,,,,39.0,,,,,0,note_on,,95.0,39.0,95.0,384240,200.125
2837,0.0,,,,,39.0,,,,,240,note_off,,95.0,39.0,95.0,384480,200.25
2838,0.0,,,,,39.0,,,,,0,note_on,,95.0,39.0,95.0,384480,200.25
2839,0.0,,,,,39.0,,,,,240,note_off,,95.0,39.0,95.0,384720,200.375
2840,0.0,,,,,39.0,,,,,0,note_on,,95.0,39.0,95.0,384720,200.375
2841,0.0,,,,,39.0,,,,,240,note_off,,95.0,39.0,95.0,384960,200.5
2842,0.0,,,,,39.0,,,,,0,note_on,,95.0,39.0,95.0,384960,200.5
2843,0.0,,,,,39.0,,,,,240,note_off,,95.0,39.0,95.0,385200,200.625
2844,0.0,,,,,39.0,,,,,0,note_on,,95.0,39.0,95.0,385200,200.625
2845,0.0,,,,,39.0,,,,,240,note_off,,95.0,39.0,95.0,385440,200.75
2846,0.0,,,,,39.0,,,,,0,note_on,,95.0,39.0,95.0,385440,200.75
2847,0.0,,,,,39.0,,,,,240,note_off,,95.0,39.0,95.0,385680,200.875
2848,0.0,,,,,39.0,,,,,0,note_on,,95.0,39.0,95.0,385680,200.875
2849,0.0,,,,,39.0,,,,,240,note_off,,95.0,39.0,95.0,385920,201.0
2850,0.0,,,,,39.0,,,,,0,note_on,,95.0,39.0,95.0,385920,201.0
2851,0.0,,,,,39.0,,,,,240,note_off,,95.0,39.0,95.0,386160,201.125
2852,0.0,,,,,39.0,,,,,0,note_on,,95.0,39.0,95.0,386160,201.125
2853,0.0,,,,,39.0,,,,,240,note_off,,95.0,39.0,95.0,386400,201.25
2854,0.0,,,,,46.0,,,,,0,note_on,,95.0,46.0,95.0,386400,201.25
2855,0.0,,,,,39.0,,,,,0,note_on,,95.0,39.0,95.0,386400,201.25
2856,0.0,,,,,46.0,,,,,480,note_off,,95.0,46.0,95.0,386880,201.5
2857,0.0,,,,,39.0,,,,,0,note_off,,95.0,39.0,95.0,386880,201.5
2858,0.0,,,,,39.0,,,,,0,note_on,,95.0,39.0,95.0,386880,201.5
2859,0.0,,,,,39.0,,,,,240,note_off,,95.0,39.0,95.0,387120,201.625
2860,0.0,,,,,39.0,,,,,0,note_on,,95.0,39.0,95.0,387120,201.625
2861,0.0,,,,,39.0,,,,,240,note_off,,95.0,39.0,95.0,387360,201.75
2862,0.0,,,,,47.0,,,,,0,note_on,,95.0,47.0,95.0,387360,201.75
2863,0.0,,,,,40.0,,,,,0,note_on,,95.0,40.0,95.0,387360,201.75
2864,0.0,,,,,47.0,,,,,480,note_off,,95.0,47.0,95.0,387840,202.0
2865,0.0,,,,,40.0,,,,,0,note_off,,95.0,40.0,95.0,387840,202.0
2866,0.0,,,,,48.0,,,,,0,note_on,,95.0,48.0,95.0,387840,202.0
2867,0.0,,,,,41.0,,,,,0,note_on,,95.0,41.0,95.0,387840,202.0
2868,0.0,,,,,48.0,,,,,2880,note_off,,95.0,48.0,95.0,390720,203.5
2869,0.0,,,,,41.0,,,,,0,note_off,,95.0,41.0,95.0,390720,203.5
2870,0.0,,,,,49.0,,,,,0,note_on,,95.0,49.0,95.0,390720,203.5
2871,0.0,,,,,42.0,,,,,0,note_on,,95.0,42.0,95.0,390720,203.5
2872,0.0,,,,,49.0,,,,,960,note_off,,95.0,49.0,95.0,391680,204.0
2873,0.0,,,,,42.0,,,,,0,note_off,,95.0,42.0,95.0,391680,204.0
2874,0.0,,,,,39.0,,,,,0,note_on,,95.0,39.0,95.0,391680,204.0
2875,0.0,,,,,39.0,,,,,240,note_off,,95.0,39.0,95.0,391920,204.125
2876,0.0,,,,,39.0,,,,,0,note_on,,95.0,39.0,95.0,391920,204.125
2877,0.0,,,,,39.0,,,,,240,note_off,,95.0,39.0,95.0,392160,204.25
2878,0.0,,,,,39.0,,,,,0,note_on,,95.0,39.0,95.0,392160,204.25
2879,0.0,,,,,39.0,,,,,240,note_off,,95.0,39.0,95.0,392400,204.375
2880,0.0,,,,,39.0,,,,,0,note_on,,95.0,39.0,95.0,392400,204.375
2881,0.0,,,,,39.0,,,,,240,note_off,,95.0,39.0,95.0,392640,204.5
2882,0.0,,,,,39.0,,,,,0,note_on,,95.0,39.0,95.0,392640,204.5
2883,0.0,,,,,39.0,,,,,240,note_off,,95.0,39.0,95.0,392880,204.625
2884,0.0,,,,,39.0,,,,,0,note_on,,95.0,39.0,95.0,392880,204.625
2885,0.0,,,,,39.0,,,,,240,note_off,,95.0,39.0,95.0,393120,204.75
2886,0.0,,,,,39.0,,,,,0,note_on,,95.0,39.0,95.0,393120,204.75
2887,0.0,,,,,39.0,,,,,240,note_off,,95.0,39.0,95.0,393360,204.875
2888,0.0,,,,,39.0,,,,,0,note_on,,95.0,39.0,95.0,393360,204.875
2889,0.0,,,,,39.0,,,,,240,note_off,,95.0,39.0,95.0,393600,205.0
2890,0.0,,,,,39.0,,,,,0,note_on,,95.0,39.0,95.0,393600,205.0
2891,0.0,,,,,39.0,,,,,240,note_off,,95.0,39.0,95.0,393840,205.125
2892,0.0,,,,,39.0,,,,,0,note_on,,95.0,39.0,95.0,393840,205.125
2893,0.0,,,,,39.0,,,,,240,note_off,,95.0,39.0,95.0,394080,205.25
2894,0.0,,,,,49.0,,,,,0,note_on,,95.0,49.0,95.0,394080,205.25
2895,0.0,,,,,42.0,,,,,0,note_on,,95.0,42.0,95.0,394080,205.25
2896,0.0,,,,,49.0,,,,,480,note_off,,95.0,49.0,95.0,394560,205.5
2897,0.0,,,,,42.0,,,,,0,note_off,,95.0,42.0,95.0,394560,205.5
2898,0.0,,,,,39.0,,,,,0,note_on,,95.0,39.0,95.0,394560,205.5
2899,0.0,,,,,39.0,,,,,240,note_off,,95.0,39.0,95.0,394800,205.625
2900,0.0,,,,,39.0,,,,,0,note_on,,95.0,39.0,95.0,394800,205.625
2901,0.0,,,,,39.0,,,,,240,note_off,,95.0,39.0,95.0,395040,205.75
2902,0.0,,,,,49.0,,,,,0,note_on,,95.0,49.0,95.0,395040,205.75
2903,0.0,,,,,42.0,,,,,0,note_on,,95.0,42.0,95.0,395040,205.75
2904,0.0,,,,,49.0,,,,,480,note_off,,95.0,49.0,95.0,395520,206.0
2905,0.0,,,,,42.0,,,,,0,note_off,,95.0,42.0,95.0,395520,206.0
2906,0.0,,,,,48.0,,,,,0,note_on,,95.0,48.0,95.0,395520,206.0
2907,0.0,,,,,41.0,,,,,0,note_on,,95.0,41.0,95.0,395520,206.0
2908,0.0,,,,,48.0,,,,,480,note_off,,95.0,48.0,95.0,396000,206.25
2909,0.0,,,,,41.0,,,,,0,note_off,,95.0,41.0,95.0,396000,206.25
2910,0.0,,,,,49.0,,,,,2400,note_on,,95.0,49.0,95.0,398400,207.5
2911,0.0,,,,,42.0,,,,,0,note_on,,95.0,42.0,95.0,398400,207.5
2912,0.0,,,,,49.0,,,,,240,note_off,,95.0,49.0,95.0,398640,207.625
2913,0.0,,,,,42.0,,,,,0,note_off,,95.0,42.0,95.0,398640,207.625
2914,0.0,,,,,51.0,,,,,0,note_on,,95.0,51.0,95.0,398640,207.625
2915,0.0,,,,,44.0,,,,,0,note_on,,95.0,44.0,95.0,398640,207.625
2916,0.0,,,,,51.0,,,,,720,note_off,,95.0,51.0,95.0,399360,208.0
2917,0.0,,,,,44.0,,,,,0,note_off,,95.0,44.0,95.0,399360,208.0
2918,0.0,,,,,39.0,,,,,0,note_on,,95.0,39.0,95.0,399360,208.0
2919,0.0,,,,,39.0,,,,,240,note_off,,95.0,39.0,95.0,399600,208.125
2920,0.0,,,,,39.0,,,,,240,note_on,,95.0,39.0,95.0,399840,208.25
2921,0.0,,,,,39.0,,,,,240,note_off,,95.0,39.0,95.0,400080,208.375
2922,0.0,,,,,39.0,,,,,0,note_on,,95.0,39.0,95.0,400080,208.375
2923,0.0,,,,,39.0,,,,,240,note_off,,95.0,39.0,95.0,400320,208.5
2924,0.0,,,,,51.0,,,,,0,note_on,,95.0,51.0,95.0,400320,208.5
2925,0.0,,,,,51.0,,,,,240,note_off,,95.0,51.0,95.0,400560,208.625
2926,0.0,,,,,52.0,,,,,0,note_on,,95.0,52.0,95.0,400560,208.625
2927,0.0,,,,,52.0,,,,,720,note_off,,95.0,52.0,95.0,401280,209.0
2928,0.0,,,,,39.0,,,,,0,note_on,,95.0,39.0,95.0,401280,209.0
2929,0.0,,,,,39.0,,,,,240,note_off,,95.0,39.0,95.0,401520,209.125
2930,0.0,,,,,39.0,,,,,240,note_on,,95.0,39.0,95.0,401760,209.25
2931,0.0,,,,,39.0,,,,,240,note_off,,95.0,39.0,95.0,402000,209.375
2932,0.0,,,,,39.0,,,,,0,note_on,,95.0,39.0,95.0,402000,209.375
2933,0.0,,,,,39.0,,,,,240,note_off,,95.0,39.0,95.0,402240,209.5
2934,0.0,,,,,51.0,,,,,0,note_on,,95.0,51.0,95.0,402240,209.5
2935,0.0,,,,,51.0,,,,,240,note_off,,95.0,51.0,95.0,402480,209.625
2936,0.0,,,,,52.0,,,,,0,note_on,,95.0,52.0,95.0,402480,209.625
2937,0.0,,,,,52.0,,,,,240,note_off,,95.0,52.0,95.0,402720,209.75
2938,0.0,,,,,54.0,,,,,0,note_on,,95.0,54.0,95.0,402720,209.75
2939,0.0,,,,,54.0,,,,,480,note_off,,95.0,54.0,95.0,403200,210.0
2940,0.0,,,,,39.0,,,,,0,note_on,,95.0,39.0,95.0,403200,210.0
2941,0.0,,,,,39.0,,,,,240,note_off,,95.0,39.0,95.0,403440,210.125
2942,0.0,,,,,39.0,,,,,240,note_on,,95.0,39.0,95.0,403680,210.25
2943,0.0,,,,,39.0,,,,,240,note_off,,95.0,39.0,95.0,403920,210.375
2944,0.0,,,,,39.0,,,,,0,note_on,,95.0,39.0,95.0,403920,210.375
2945,0.0,,,,,39.0,,,,,240,note_off,,95.0,39.0,95.0,404160,210.5
2946,0.0,,,,,51.0,,,,,0,note_on,,95.0,51.0,95.0,404160,210.5
2947,0.0,,,,,51.0,,,,,240,note_off,,95.0,51.0,95.0,404400,210.625
2948,0.0,,,,,52.0,,,,,0,note_on,,95.0,52.0,95.0,404400,210.625
2949,0.0,,,,,52.0,,,,,240,note_off,,95.0,52.0,95.0,404640,210.75
2950,0.0,,,,,56.0,,,,,0,note_on,,95.0,56.0,95.0,404640,210.75
2951,0.0,,,,,56.0,,,,,480,note_off,,95.0,56.0,95.0,405120,211.0
2952,0.0,,,,,55.0,,,,,0,note_on,,95.0,55.0,95.0,405120,211.0
2953,0.0,,,,,55.0,,,,,240,note_off,,95.0,55.0,95.0,405360,211.125
2954,0.0,,,,,54.0,,,,,0,note_on,,95.0,54.0,95.0,405360,211.125
2955,0.0,,,,,54.0,,,,,240,note_off,,95.0,54.0,95.0,405600,211.25
2956,0.0,,,,,53.0,,,,,0,note_on,,95.0,53.0,95.0,405600,211.25
2957,0.0,,,,,53.0,,,,,240,note_off,,95.0,53.0,95.0,405840,211.375
2958,0.0,,,,,50.0,,,,,0,note_on,,95.0,50.0,95.0,405840,211.375
2959,0.0,,,,,50.0,,,,,240,note_off,,95.0,50.0,95.0,406080,211.5
2960,0.0,,,,,49.0,,,,,0,note_on,,95.0,49.0,95.0,406080,211.5
2961,0.0,,,,,49.0,,,,,240,note_off,,95.0,49.0,95.0,406320,211.625
2962,0.0,,,,,47.0,,,,,0,note_on,,95.0,47.0,95.0,406320,211.625
2963,0.0,,,,,47.0,,,,,240,note_off,,95.0,47.0,95.0,406560,211.75
2964,0.0,,,,,46.0,,,,,0,note_on,,95.0,46.0,95.0,406560,211.75
2965,0.0,,,,,46.0,,,,,240,note_off,,95.0,46.0,95.0,406800,211.875
2966,0.0,,,,,45.0,,,,,0,note_on,,95.0,45.0,95.0,406800,211.875
2967,0.0,,,,,45.0,,,,,240,note_off,,95.0,45.0,95.0,407040,212.0
2968,0.0,,,,,39.0,,,,,0,note_on,,95.0,39.0,95.0,407040,212.0
2969,0.0,,,,,39.0,,,,,240,note_off,,95.0,39.0,95.0,407280,212.125
2970,0.0,,,,,39.0,,,,,240,note_on,,95.0,39.0,95.0,407520,212.25
2971,0.0,,,,,39.0,,,,,240,note_off,,95.0,39.0,95.0,407760,212.375
2972,0.0,,,,,39.0,,,,,0,note_on,,95.0,39.0,95.0,407760,212.375
2973,0.0,,,,,39.0,,,,,240,note_off,,95.0,39.0,95.0,408000,212.5
2974,0.0,,,,,51.0,,,,,0,note_on,,95.0,51.0,95.0,408000,212.5
2975,0.0,,,,,51.0,,,,,240,note_off,,95.0,51.0,95.0,408240,212.625
2976,0.0,,,,,52.0,,,,,0,note_on,,95.0,52.0,95.0,408240,212.625
2977,0.0,,,,,52.0,,,,,720,note_off,,95.0,52.0,95.0,408960,213.0
2978,0.0,,,,,39.0,,,,,0,note_on,,95.0,39.0,95.0,408960,213.0
2979,0.0,,,,,39.0,,,,,240,note_off,,95.0,39.0,95.0,409200,213.125
2980,0.0,,,,,39.0,,,,,240,note_on,,95.0,39.0,95.0,409440,213.25
2981,0.0,,,,,39.0,,,,,240,note_off,,95.0,39.0,95.0,409680,213.375
2982,0.0,,,,,39.0,,,,,0,note_on,,95.0,39.0,95.0,409680,213.375
2983,0.0,,,,,39.0,,,,,240,note_off,,95.0,39.0,95.0,409920,213.5
2984,0.0,,,,,51.0,,,,,0,note_on,,95.0,51.0,95.0,409920,213.5
2985,0.0,,,,,51.0,,,,,240,note_off,,95.0,51.0,95.0,410160,213.625
2986,0.0,,,,,52.0,,,,,0,note_on,,95.0,52.0,95.0,410160,213.625
2987,0.0,,,,,52.0,,,,,240,note_off,,95.0,52.0,95.0,410400,213.75
2988,0.0,,,,,54.0,,,,,0,note_on,,95.0,54.0,95.0,410400,213.75
2989,0.0,,,,,54.0,,,,,480,note_off,,95.0,54.0,95.0,410880,214.0
2990,0.0,,,,,39.0,,,,,0,note_on,,95.0,39.0,95.0,410880,214.0
2991,0.0,,,,,39.0,,,,,240,note_off,,95.0,39.0,95.0,411120,214.125
2992,0.0,,,,,39.0,,,,,240,note_on,,95.0,39.0,95.0,411360,214.25
2993,0.0,,,,,39.0,,,,,240,note_off,,95.0,39.0,95.0,411600,214.375
2994,0.0,,,,,39.0,,,,,0,note_on,,95.0,39.0,95.0,411600,214.375
2995,0.0,,,,,39.0,,,,,240,note_off,,95.0,39.0,95.0,411840,214.5
2996,0.0,,,,,51.0,,,,,0,note_on,,95.0,51.0,95.0,411840,214.5
2997,0.0,,,,,51.0,,,,,240,note_off,,95.0,51.0,95.0,412080,214.625
2998,0.0,,,,,52.0,,,,,0,note_on,,95.0,52.0,95.0,412080,214.625
2999,0.0,,,,,52.0,,,,,240,note_off,,95.0,52.0,95.0,412320,214.75
3000,0.0,,,,,56.0,,,,,0,note_on,,95.0,56.0,95.0,412320,214.75
3001,0.0,,,,,56.0,,,,,480,note_off,,95.0,56.0,95.0,412800,215.0
3002,0.0,,,,,55.0,,,,,0,note_on,,95.0,55.0,95.0,412800,215.0
3003,0.0,,,,,55.0,,,,,240,note_off,,95.0,55.0,95.0,413040,215.125
3004,0.0,,,,,54.0,,,,,0,note_on,,95.0,54.0,95.0,413040,215.125
3005,0.0,,,,,54.0,,,,,240,note_off,,95.0,54.0,95.0,413280,215.25
3006,0.0,,,,,53.0,,,,,0,note_on,,95.0,53.0,95.0,413280,215.25
3007,0.0,,,,,53.0,,,,,240,note_off,,95.0,53.0,95.0,413520,215.375
3008,0.0,,,,,50.0,,,,,0,note_on,,95.0,50.0,95.0,413520,215.375
3009,0.0,,,,,50.0,,,,,240,note_off,,95.0,50.0,95.0,413760,215.5
3010,0.0,,,,,49.0,,,,,0,note_on,,95.0,49.0,95.0,413760,215.5
3011,0.0,,,,,49.0,,,,,240,note_off,,95.0,49.0,95.0,414000,215.625
3012,0.0,,,,,48.0,,,,,0,note_on,,95.0,48.0,95.0,414000,215.625
3013,0.0,,,,,48.0,,,,,240,note_off,,95.0,48.0,95.0,414240,215.75
3014,0.0,,,,,57.0,,,,,0,note_on,,95.0,57.0,95.0,414240,215.75
3015,0.0,,,,,57.0,,,,,480,note_off,,95.0,57.0,95.0,414720,216.0
3016,0.0,,,,,39.0,,,,,0,note_on,,95.0,39.0,95.0,414720,216.0
3017,0.0,,,,,39.0,,,,,240,note_off,,95.0,39.0,95.0,414960,216.125
3018,0.0,,,,,39.0,,,,,240,note_on,,95.0,39.0,95.0,415200,216.25
3019,0.0,,,,,39.0,,,,,240,note_off,,95.0,39.0,95.0,415440,216.375
3020,0.0,,,,,39.0,,,,,0,note_on,,95.0,39.0,95.0,415440,216.375
3021,0.0,,,,,39.0,,,,,240,note_off,,95.0,39.0,95.0,415680,216.5
3022,0.0,,,,,51.0,,,,,0,note_on,,95.0,51.0,95.0,415680,216.5
3023,0.0,,,,,51.0,,,,,240,note_off,,95.0,51.0,95.0,415920,216.625
3024,0.0,,,,,52.0,,,,,0,note_on,,95.0,52.0,95.0,415920,216.625
3025,0.0,,,,,52.0,,,,,720,note_off,,95.0,52.0,95.0,416640,217.0
3026,0.0,,,,,39.0,,,,,0,note_on,,95.0,39.0,95.0,416640,217.0
3027,0.0,,,,,39.0,,,,,240,note_off,,95.0,39.0,95.0,416880,217.125
3028,0.0,,,,,39.0,,,,,240,note_on,,95.0,39.0,95.0,417120,217.25
3029,0.0,,,,,39.0,,,,,240,note_off,,95.0,39.0,95.0,417360,217.375
3030,0.0,,,,,39.0,,,,,0,note_on,,95.0,39.0,95.0,417360,217.375
3031,0.0,,,,,39.0,,,,,240,note_off,,95.0,39.0,95.0,417600,217.5
3032,0.0,,,,,51.0,,,,,0,note_on,,95.0,51.0,95.0,417600,217.5
3033,0.0,,,,,51.0,,,,,240,note_off,,95.0,51.0,95.0,417840,217.625
3034,0.0,,,,,52.0,,,,,0,note_on,,95.0,52.0,95.0,417840,217.625
3035,0.0,,,,,52.0,,,,,240,note_off,,95.0,52.0,95.0,418080,217.75
3036,0.0,,,,,54.0,,,,,0,note_on,,95.0,54.0,95.0,418080,217.75
3037,0.0,,,,,54.0,,,,,480,note_off,,95.0,54.0,95.0,418560,218.0
3038,0.0,,,,,39.0,,,,,0,note_on,,95.0,39.0,95.0,418560,218.0
3039,0.0,,,,,39.0,,,,,240,note_off,,95.0,39.0,95.0,418800,218.125
3040,0.0,,,,,39.0,,,,,240,note_on,,95.0,39.0,95.0,419040,218.25
3041,0.0,,,,,39.0,,,,,240,note_off,,95.0,39.0,95.0,419280,218.375
3042,0.0,,,,,39.0,,,,,0,note_on,,95.0,39.0,95.0,419280,218.375
3043,0.0,,,,,39.0,,,,,240,note_off,,95.0,39.0,95.0,419520,218.5
3044,0.0,,,,,51.0,,,,,0,note_on,,95.0,51.0,95.0,419520,218.5
3045,0.0,,,,,51.0,,,,,240,note_off,,95.0,51.0,95.0,419760,218.625
3046,0.0,,,,,52.0,,,,,0,note_on,,95.0,52.0,95.0,419760,218.625
3047,0.0,,,,,52.0,,,,,240,note_off,,95.0,52.0,95.0,420000,218.75
3048,0.0,,,,,56.0,,,,,0,note_on,,95.0,56.0,95.0,420000,218.75
3049,0.0,,,,,56.0,,,,,480,note_off,,95.0,56.0,95.0,420480,219.0
3050,0.0,,,,,55.0,,,,,0,note_on,,95.0,55.0,95.0,420480,219.0
3051,0.0,,,,,55.0,,,,,240,note_off,,95.0,55.0,95.0,420720,219.125
3052,0.0,,,,,54.0,,,,,0,note_on,,95.0,54.0,95.0,420720,219.125
3053,0.0,,,,,54.0,,,,,240,note_off,,95.0,54.0,95.0,420960,219.25
3054,0.0,,,,,53.0,,,,,0,note_on,,95.0,53.0,95.0,420960,219.25
3055,0.0,,,,,53.0,,,,,240,note_off,,95.0,53.0,95.0,421200,219.375
3056,0.0,,,,,50.0,,,,,0,note_on,,95.0,50.0,95.0,421200,219.375
3057,0.0,,,,,50.0,,,,,240,note_off,,95.0,50.0,95.0,421440,219.5
3058,0.0,,,,,49.0,,,,,0,note_on,,95.0,49.0,95.0,421440,219.5
3059,0.0,,,,,49.0,,,,,240,note_off,,95.0,49.0,95.0,421680,219.625
3060,0.0,,,,,47.0,,,,,0,note_on,,95.0,47.0,95.0,421680,219.625
3061,0.0,,,,,47.0,,,,,240,note_off,,95.0,47.0,95.0,421920,219.75
3062,0.0,,,,,46.0,,,,,0,note_on,,95.0,46.0,95.0,421920,219.75
3063,0.0,,,,,46.0,,,,,240,note_off,,95.0,46.0,95.0,422160,219.875
3064,0.0,,,,,45.0,,,,,0,note_on,,95.0,45.0,95.0,422160,219.875
3065,0.0,,,,,45.0,,,,,240,note_off,,95.0,45.0,95.0,422400,220.0
3066,0.0,,,,,39.0,,,,,0,note_on,,95.0,39.0,95.0,422400,220.0
3067,0.0,,,,,39.0,,,,,240,note_off,,95.0,39.0,95.0,422640,220.125
3068,0.0,,,,,39.0,,,,,240,note_on,,95.0,39.0,95.0,422880,220.25
3069,0.0,,,,,39.0,,,,,240,note_off,,95.0,39.0,95.0,423120,220.375
3070,0.0,,,,,39.0,,,,,0,note_on,,95.0,39.0,95.0,423120,220.375
3071,0.0,,,,,39.0,,,,,240,note_off,,95.0,39.0,95.0,423360,220.5
3072,0.0,,,,,51.0,,,,,0,note_on,,95.0,51.0,95.0,423360,220.5
3073,0.0,,,,,51.0,,,,,240,note_off,,95.0,51.0,95.0,423600,220.625
3074,0.0,,,,,52.0,,,,,0,note_on,,95.0,52.0,95.0,423600,220.625
3075,0.0,,,,,52.0,,,,,720,note_off,,95.0,52.0,95.0,424320,221.0
3076,0.0,,,,,39.0,,,,,0,note_on,,95.0,39.0,95.0,424320,221.0
3077,0.0,,,,,39.0,,,,,240,note_off,,95.0,39.0,95.0,424560,221.125
3078,0.0,,,,,39.0,,,,,240,note_on,,95.0,39.0,95.0,424800,221.25
3079,0.0,,,,,39.0,,,,,240,note_off,,95.0,39.0,95.0,425040,221.375
3080,0.0,,,,,39.0,,,,,0,note_on,,95.0,39.0,95.0,425040,221.375
3081,0.0,,,,,39.0,,,,,240,note_off,,95.0,39.0,95.0,425280,221.5
3082,0.0,,,,,51.0,,,,,0,note_on,,95.0,51.0,95.0,425280,221.5
3083,0.0,,,,,51.0,,,,,240,note_off,,95.0,51.0,95.0,425520,221.625
3084,0.0,,,,,52.0,,,,,0,note_on,,95.0,52.0,95.0,425520,221.625
3085,0.0,,,,,52.0,,,,,240,note_off,,95.0,52.0,95.0,425760,221.75
3086,0.0,,,,,54.0,,,,,0,note_on,,95.0,54.0,95.0,425760,221.75
3087,0.0,,,,,54.0,,,,,480,note_off,,95.0,54.0,95.0,426240,222.0
3088,0.0,,,,,39.0,,,,,0,note_on,,95.0,39.0,95.0,426240,222.0
3089,0.0,,,,,39.0,,,,,240,note_off,,95.0,39.0,95.0,426480,222.125
3090,0.0,,,,,39.0,,,,,240,note_on,,95.0,39.0,95.0,426720,222.25
3091,0.0,,,,,39.0,,,,,240,note_off,,95.0,39.0,95.0,426960,222.375
3092,0.0,,,,,39.0,,,,,0,note_on,,95.0,39.0,95.0,426960,222.375
3093,0.0,,,,,39.0,,,,,240,note_off,,95.0,39.0,95.0,427200,222.5
3094,0.0,,,,,51.0,,,,,0,note_on,,95.0,51.0,95.0,427200,222.5
3095,0.0,,,,,51.0,,,,,240,note_off,,95.0,51.0,95.0,427440,222.625
3096,0.0,,,,,52.0,,,,,0,note_on,,95.0,52.0,95.0,427440,222.625
3097,0.0,,,,,52.0,,,,,240,note_off,,95.0,52.0,95.0,427680,222.75
3098,0.0,,,,,56.0,,,,,0,note_on,,95.0,56.0,95.0,427680,222.75
3099,0.0,,,,,56.0,,,,,480,note_off,,95.0,56.0,95.0,428160,223.0
3100,0.0,,,,,55.0,,,,,0,note_on,,95.0,55.0,95.0,428160,223.0
3101,0.0,,,,,55.0,,,,,240,note_off,,95.0,55.0,95.0,428400,223.125
3102,0.0,,,,,54.0,,,,,0,note_on,,95.0,54.0,95.0,428400,223.125
3103,0.0,,,,,54.0,,,,,240,note_off,,95.0,54.0,95.0,428640,223.25
3104,0.0,,,,,53.0,,,,,0,note_on,,95.0,53.0,95.0,428640,223.25
3105,0.0,,,,,53.0,,,,,240,note_off,,95.0,53.0,95.0,428880,223.375
3106,0.0,,,,,50.0,,,,,0,note_on,,95.0,50.0,95.0,428880,223.375
3107,0.0,,,,,50.0,,,,,240,note_off,,95.0,50.0,95.0,429120,223.5
3108,0.0,,,,,49.0,,,,,0,note_on,,95.0,49.0,95.0,429120,223.5
3109,0.0,,,,,49.0,,,,,240,note_off,,95.0,49.0,95.0,429360,223.625
3110,0.0,,,,,47.0,,,,,0,note_on,,95.0,47.0,95.0,429360,223.625
3111,0.0,,,,,47.0,,,,,240,note_off,,95.0,47.0,95.0,429600,223.75
3112,0.0,,,,,46.0,,,,,0,note_on,,95.0,46.0,95.0,429600,223.75
3113,0.0,,,,,46.0,,,,,240,note_off,,95.0,46.0,95.0,429840,223.875
3114,0.0,,,,,45.0,,,,,0,note_on,,95.0,45.0,95.0,429840,223.875
3115,0.0,,,,,45.0,,,,,240,note_off,,95.0,45.0,95.0,430080,224.0
3116,0.0,,,,,55.0,,,,,0,note_on,,95.0,55.0,95.0,430080,224.0
3117,0.0,,,,,55.0,,,,,240,note_off,,95.0,55.0,95.0,430320,224.125
3118,0.0,,,,,54.0,,,,,0,note_on,,95.0,54.0,95.0,430320,224.125
3119,0.0,,,,,54.0,,,,,240,note_off,,95.0,54.0,95.0,430560,224.25
3120,0.0,,,,,53.0,,,,,0,note_on,,95.0,53.0,95.0,430560,224.25
3121,0.0,,,,,53.0,,,,,240,note_off,,95.0,53.0,95.0,430800,224.375
3122,0.0,,,,,49.0,,,,,0,note_on,,95.0,49.0,95.0,430800,224.375
3123,0.0,,,,,49.0,,,,,240,note_off,,95.0,49.0,95.0,431040,224.5
3124,0.0,,,,,48.0,,,,,0,note_on,,95.0,48.0,95.0,431040,224.5
3125,0.0,,,,,48.0,,,,,240,note_off,,95.0,48.0,95.0,431280,224.625
3126,0.0,,,,,47.0,,,,,0,note_on,,95.0,47.0,95.0,431280,224.625
3127,0.0,,,,,47.0,,,,,240,note_off,,95.0,47.0,95.0,431520,224.75
3128,0.0,,,,,42.0,,,,,0,note_on,,95.0,42.0,95.0,431520,224.75
3129,0.0,,,,,42.0,,,,,240,note_off,,95.0,42.0,95.0,431760,224.875
3130,0.0,,,,,41.0,,,,,0,note_on,,95.0,41.0,95.0,431760,224.875
3131,0.0,,,,,41.0,,,,,240,note_off,,95.0,41.0,95.0,432000,225.0
3132,0.0,,,,,46.0,,,,,0,note_on,,95.0,46.0,95.0,432000,225.0
3133,0.0,,,,,39.0,,,,,0,note_on,,95.0,39.0,95.0,432000,225.0
3134,0.0,,,,,46.0,,,,,480,note_off,,95.0,46.0,95.0,432480,225.25
3135,0.0,,,,,39.0,,,,,0,note_off,,95.0,39.0,95.0,432480,225.25
3136,,,,,,,,,,,0,end_of_track,,,,,432480,225.25
3137,2.0,,,,,,,0.0,,,0,pitchwheel,,,,,432480,225.25
3138,2.0,,7.0,,,,,,,,0,control_change,103.0,,,,432480,225.25
3139,2.0,,10.0,,,,,,,,0,control_change,103.0,,,,432480,225.25
3140,2.0,,93.0,,,,,,,,0,control_change,0.0,,,,432480,225.25
3141,2.0,,91.0,,,,,,,,0,control_change,0.0,,,,432480,225.25
3142,2.0,,95.0,,,,,,,,0,control_change,0.0,,,,432480,225.25
3143,2.0,,92.0,,,,,,,,0,control_change,0.0,,,,432480,225.25
3144,2.0,,11.0,,,,,,,,0,control_change,127.0,,,,432480,225.25
3145,2.0,,,,,,,,30.0,,0,program_change,,,,,432480,225.25
3146,3.0,,7.0,,,,,,,,0,control_change,103.0,,,,432480,225.25
3147,3.0,,10.0,,,,,,,,0,control_change,103.0,,,,432480,225.25
3148,3.0,,93.0,,,,,,,,0,control_change,0.0,,,,432480,225.25
3149,3.0,,91.0,,,,,,,,0,control_change,0.0,,,,432480,225.25
3150,3.0,,95.0,,,,,,,,0,control_change,0.0,,,,432480,225.25
3151,3.0,,92.0,,,,,,,,0,control_change,0.0,,,,432480,225.25
3152,3.0,,11.0,,,,,,,,0,control_change,127.0,,,,432480,225.25
3153,3.0,,,,,,,,30.0,,0,program_change,,,,,432480,225.25
3154,2.0,,,,,39.0,,,,,0,note_on,,95.0,39.0,95.0,432480,225.25
3155,2.0,,,,,39.0,,,,,240,note_off,,95.0,39.0,95.0,432720,225.375
3156,2.0,,,,,39.0,,,,,0,note_on,,95.0,39.0,95.0,432720,225.375
3157,2.0,,,,,39.0,,,,,240,note_off,,95.0,39.0,95.0,432960,225.5
3158,2.0,,,,,39.0,,,,,240,note_on,,95.0,39.0,95.0,433200,225.625
3159,3.0,,,,,49.0,,,,,180,note_on,,95.0,49.0,95.0,433380,225.71875
3160,2.0,,,,,39.0,,,,,60,note_off,,95.0,39.0,95.0,433440,225.75
3161,3.0,,,,,49.0,,,,,0,note_off,,95.0,49.0,95.0,433440,225.75
3162,3.0,,,,,51.0,,,,,0,note_on,,95.0,51.0,95.0,433440,225.75
3163,2.0,,,,,39.0,,,,,0,note_on,,95.0,39.0,95.0,433440,225.75
3164,3.0,,,,,51.0,,,,,480,note_off,,95.0,51.0,95.0,433920,226.0
3165,2.0,,,,,39.0,,,,,0,note_off,,95.0,39.0,95.0,433920,226.0
3166,2.0,,,,,39.0,,,,,0,note_on,,95.0,39.0,95.0,433920,226.0
3167,2.0,,,,,39.0,,,,,240,note_off,,95.0,39.0,95.0,434160,226.125
3168,2.0,,,,,39.0,,,,,0,note_on,,95.0,39.0,95.0,434160,226.125
3169,2.0,,,,,39.0,,,,,240,note_off,,95.0,39.0,95.0,434400,226.25
3170,2.0,,,,,39.0,,,,,240,note_on,,95.0,39.0,95.0,434640,226.375
3171,2.0,,,,,39.0,,,,,240,note_off,,95.0,39.0,95.0,434880,226.5
3172,2.0,,,,,59.0,,,,,0,note_on,,95.0,59.0,95.0,434880,226.5
3173,2.0,,,,,52.0,,,,,0,note_on,,95.0,52.0,95.0,434880,226.5
3174,2.0,,,,,59.0,,,,,480,note_off,,95.0,59.0,95.0,435360,226.75
3175,2.0,,,,,52.0,,,,,0,note_off,,95.0,52.0,95.0,435360,226.75
3176,2.0,,,,,39.0,,,,,0,note_on,,95.0,39.0,95.0,435360,226.75
3177,2.0,,,,,39.0,,,,,240,note_off,,95.0,39.0,95.0,435600,226.875
3178,2.0,,,,,39.0,,,,,0,note_on,,95.0,39.0,95.0,435600,226.875
3179,2.0,,,,,39.0,,,,,240,note_off,,95.0,39.0,95.0,435840,227.0
3180,2.0,,,,,57.0,,,,,0,note_on,,95.0,57.0,95.0,435840,227.0
3181,2.0,,,,,50.0,,,,,0,note_on,,95.0,50.0,95.0,435840,227.0
3182,2.0,,,,,57.0,,,,,480,note_off,,95.0,57.0,95.0,436320,227.25
3183,2.0,,,,,50.0,,,,,0,note_off,,95.0,50.0,95.0,436320,227.25
3184,2.0,,,,,39.0,,,,,0,note_on,,95.0,39.0,95.0,436320,227.25
3185,2.0,,,,,39.0,,,,,240,note_off,,95.0,39.0,95.0,436560,227.375
3186,2.0,,,,,39.0,,,,,0,note_on,,95.0,39.0,95.0,436560,227.375
3187,2.0,,,,,39.0,,,,,240,note_off,,95.0,39.0,95.0,436800,227.5
3188,2.0,,,,,39.0,,,,,240,note_on,,95.0,39.0,95.0,437040,227.625
3189,3.0,,,,,49.0,,,,,180,note_on,,95.0,49.0,95.0,437220,227.71875
3190,2.0,,,,,39.0,,,,,60,note_off,,95.0,39.0,95.0,437280,227.75
3191,3.0,,,,,49.0,,,,,0,note_off,,95.0,49.0,95.0,437280,227.75
3192,3.0,,,,,51.0,,,,,0,note_on,,95.0,51.0,95.0,437280,227.75
3193,2.0,,,,,39.0,,,,,0,note_on,,95.0,39.0,95.0,437280,227.75
3194,3.0,,,,,51.0,,,,,480,note_off,,95.0,51.0,95.0,437760,228.0
3195,2.0,,,,,39.0,,,,,0,note_off,,95.0,39.0,95.0,437760,228.0
3196,2.0,,,,,39.0,,,,,0,note_on,,95.0,39.0,95.0,437760,228.0
3197,2.0,,,,,39.0,,,,,240,note_off,,95.0,39.0,95.0,438000,228.125
3198,2.0,,,,,39.0,,,,,0,note_on,,95.0,39.0,95.0,438000,228.125
3199,2.0,,,,,39.0,,,,,240,note_off,,95.0,39.0,95.0,438240,228.25
3200,2.0,,,,,39.0,,,,,240,note_on,,95.0,39.0,95.0,438480,228.375
3201,2.0,,,,,39.0,,,,,240,note_off,,95.0,39.0,95.0,438720,228.5
3202,2.0,,,,,61.0,,,,,0,note_on,,95.0,61.0,95.0,438720,228.5
3203,2.0,,,,,54.0,,,,,0,note_on,,95.0,54.0,95.0,438720,228.5
3204,2.0,,,,,61.0,,,,,480,note_off,,95.0,61.0,95.0,439200,228.75
3205,2.0,,,,,54.0,,,,,0,note_off,,95.0,54.0,95.0,439200,228.75
3206,2.0,,,,,39.0,,,,,0,note_on,,95.0,39.0,95.0,439200,228.75
3207,2.0,,,,,39.0,,,,,240,note_off,,95.0,39.0,95.0,439440,228.875
3208,2.0,,,,,39.0,,,,,0,note_on,,95.0,39.0,95.0,439440,228.875
3209,2.0,,,,,39.0,,,,,240,note_off,,95.0,39.0,95.0,439680,229.0
3210,2.0,,,,,60.0,,,,,0,note_on,,95.0,60.0,95.0,439680,229.0
3211,2.0,,,,,53.0,,,,,0,note_on,,95.0,53.0,95.0,439680,229.0
3212,2.0,,,,,60.0,,,,,480,note_off,,95.0,60.0,95.0,440160,229.25
3213,2.0,,,,,53.0,,,,,0,note_off,,95.0,53.0,95.0,440160,229.25
3214,2.0,,,,,39.0,,,,,0,note_on,,95.0,39.0,95.0,440160,229.25
3215,2.0,,,,,39.0,,,,,240,note_off,,95.0,39.0,95.0,440400,229.375
3216,2.0,,,,,39.0,,,,,0,note_on,,95.0,39.0,95.0,440400,229.375
3217,2.0,,,,,39.0,,,,,240,note_off,,95.0,39.0,95.0,440640,229.5
3218,2.0,,,,,39.0,,,,,240,note_on,,95.0,39.0,95.0,440880,229.625
3219,3.0,,,,,49.0,,,,,180,note_on,,95.0,49.0,95.0,441060,229.71875
3220,2.0,,,,,39.0,,,,,60,note_off,,95.0,39.0,95.0,441120,229.75
3221,3.0,,,,,49.0,,,,,0,note_off,,95.0,49.0,95.0,441120,229.75
3222,3.0,,,,,51.0,,,,,0,note_on,,95.0,51.0,95.0,441120,229.75
3223,2.0,,,,,39.0,,,,,0,note_on,,95.0,39.0,95.0,441120,229.75
3224,3.0,,,,,51.0,,,,,480,note_off,,95.0,51.0,95.0,441600,230.0
3225,2.0,,,,,39.0,,,,,0,note_off,,95.0,39.0,95.0,441600,230.0
3226,2.0,,,,,39.0,,,,,0,note_on,,95.0,39.0,95.0,441600,230.0
3227,2.0,,,,,39.0,,,,,240,note_off,,95.0,39.0,95.0,441840,230.125
3228,2.0,,,,,39.0,,,,,0,note_on,,95.0,39.0,95.0,441840,230.125
3229,2.0,,,,,39.0,,,,,240,note_off,,95.0,39.0,95.0,442080,230.25
3230,2.0,,,,,39.0,,,,,240,note_on,,95.0,39.0,95.0,442320,230.375
3231,2.0,,,,,39.0,,,,,240,note_off,,95.0,39.0,95.0,442560,230.5
3232,2.0,,,,,59.0,,,,,0,note_on,,95.0,59.0,95.0,442560,230.5
3233,2.0,,,,,52.0,,,,,0,note_on,,95.0,52.0,95.0,442560,230.5
3234,2.0,,,,,59.0,,,,,480,note_off,,95.0,59.0,95.0,443040,230.75
3235,2.0,,,,,52.0,,,,,0,note_off,,95.0,52.0,95.0,443040,230.75
3236,2.0,,,,,39.0,,,,,0,note_on,,95.0,39.0,95.0,443040,230.75
3237,2.0,,,,,39.0,,,,,240,note_off,,95.0,39.0,95.0,443280,230.875
3238,2.0,,,,,39.0,,,,,0,note_on,,95.0,39.0,95.0,443280,230.875
3239,2.0,,,,,39.0,,,,,240,note_off,,95.0,39.0,95.0,443520,231.0
3240,2.0,,,,,57.0,,,,,0,note_on,,95.0,57.0,95.0,443520,231.0
3241,2.0,,,,,50.0,,,,,0,note_on,,95.0,50.0,95.0,443520,231.0
3242,2.0,,,,,57.0,,,,,480,note_off,,95.0,57.0,95.0,444000,231.25
3243,2.0,,,,,50.0,,,,,0,note_off,,95.0,50.0,95.0,444000,231.25
3244,2.0,,,,,39.0,,,,,0,note_on,,95.0,39.0,95.0,444000,231.25
3245,2.0,,,,,39.0,,,,,240,note_off,,95.0,39.0,95.0,444240,231.375
3246,2.0,,,,,39.0,,,,,0,note_on,,95.0,39.0,95.0,444240,231.375
3247,2.0,,,,,39.0,,,,,240,note_off,,95.0,39.0,95.0,444480,231.5
3248,2.0,,,,,39.0,,,,,240,note_on,,95.0,39.0,95.0,444720,231.625
3249,3.0,,,,,49.0,,,,,180,note_on,,95.0,49.0,95.0,444900,231.71875
3250,2.0,,,,,39.0,,,,,60,note_off,,95.0,39.0,95.0,444960,231.75
3251,3.0,,,,,49.0,,,,,0,note_off,,95.0,49.0,95.0,444960,231.75
3252,3.0,,,,,51.0,,,,,0,note_on,,95.0,51.0,95.0,444960,231.75
3253,2.0,,,,,39.0,,,,,0,note_on,,95.0,39.0,95.0,444960,231.75
3254,3.0,,,,,51.0,,,,,480,note_off,,95.0,51.0,95.0,445440,232.0
3255,2.0,,,,,39.0,,,,,0,note_off,,95.0,39.0,95.0,445440,232.0
3256,2.0,,,,,39.0,,,,,0,note_on,,95.0,39.0,95.0,445440,232.0
3257,2.0,,,,,39.0,,,,,240,note_off,,95.0,39.0,95.0,445680,232.125
3258,2.0,,,,,39.0,,,,,0,note_on,,95.0,39.0,95.0,445680,232.125
3259,2.0,,,,,39.0,,,,,240,note_off,,95.0,39.0,95.0,445920,232.25
3260,2.0,,,,,39.0,,,,,240,note_on,,95.0,39.0,95.0,446160,232.375
3261,2.0,,,,,39.0,,,,,240,note_off,,95.0,39.0,95.0,446400,232.5
3262,2.0,,,,,49.0,,,,,0,note_on,,95.0,49.0,95.0,446400,232.5
3263,2.0,,,,,42.0,,,,,0,note_on,,95.0,42.0,95.0,446400,232.5
3264,2.0,,,,,49.0,,,,,480,note_off,,95.0,49.0,95.0,446880,232.75
3265,2.0,,,,,42.0,,,,,0,note_off,,95.0,42.0,95.0,446880,232.75
3266,2.0,,,,,39.0,,,,,0,note_on,,95.0,39.0,95.0,446880,232.75
3267,2.0,,,,,39.0,,,,,240,note_off,,95.0,39.0,95.0,447120,232.875
3268,2.0,,,,,39.0,,,,,0,note_on,,95.0,39.0,95.0,447120,232.875
3269,2.0,,,,,39.0,,,,,240,note_off,,95.0,39.0,95.0,447360,233.0
3270,2.0,,,,,48.0,,,,,0,note_on,,95.0,48.0,95.0,447360,233.0
3271,2.0,,,,,41.0,,,,,0,note_on,,95.0,41.0,95.0,447360,233.0
3272,2.0,,,,,48.0,,,,,480,note_off,,95.0,48.0,95.0,447840,233.25
3273,2.0,,,,,41.0,,,,,0,note_off,,95.0,41.0,95.0,447840,233.25
3274,2.0,,,,,39.0,,,,,0,note_on,,95.0,39.0,95.0,447840,233.25
3275,2.0,,,,,39.0,,,,,240,note_off,,95.0,39.0,95.0,448080,233.375
3276,2.0,,,,,39.0,,,,,0,note_on,,95.0,39.0,95.0,448080,233.375
3277,2.0,,,,,39.0,,,,,240,note_off,,95.0,39.0,95.0,448320,233.5
3278,2.0,,,,,39.0,,,,,240,note_on,,95.0,39.0,95.0,448560,233.625
3279,3.0,,,,,49.0,,,,,180,note_on,,95.0,49.0,95.0,448740,233.71875
3280,2.0,,,,,39.0,,,,,60,note_off,,95.0,39.0,95.0,448800,233.75
3281,3.0,,,,,49.0,,,,,0,note_off,,95.0,49.0,95.0,448800,233.75
3282,3.0,,,,,51.0,,,,,0,note_on,,95.0,51.0,95.0,448800,233.75
3283,2.0,,,,,39.0,,,,,0,note_on,,95.0,39.0,95.0,448800,233.75
3284,3.0,,,,,51.0,,,,,480,note_off,,95.0,51.0,95.0,449280,234.0
3285,2.0,,,,,39.0,,,,,0,note_off,,95.0,39.0,95.0,449280,234.0
3286,2.0,,,,,39.0,,,,,0,note_on,,95.0,39.0,95.0,449280,234.0
3287,2.0,,,,,39.0,,,,,240,note_off,,95.0,39.0,95.0,449520,234.125
3288,2.0,,,,,39.0,,,,,0,note_on,,95.0,39.0,95.0,449520,234.125
3289,2.0,,,,,39.0,,,,,240,note_off,,95.0,39.0,95.0,449760,234.25
3290,2.0,,,,,39.0,,,,,240,note_on,,95.0,39.0,95.0,450000,234.375
3291,2.0,,,,,39.0,,,,,240,note_off,,95.0,39.0,95.0,450240,234.5
3292,2.0,,,,,59.0,,,,,0,note_on,,95.0,59.0,95.0,450240,234.5
3293,2.0,,,,,52.0,,,,,0,note_on,,95.0,52.0,95.0,450240,234.5
3294,2.0,,,,,59.0,,,,,480,note_off,,95.0,59.0,95.0,450720,234.75
3295,2.0,,,,,52.0,,,,,0,note_off,,95.0,52.0,95.0,450720,234.75
3296,2.0,,,,,39.0,,,,,0,note_on,,95.0,39.0,95.0,450720,234.75
3297,2.0,,,,,39.0,,,,,240,note_off,,95.0,39.0,95.0,450960,234.875
3298,2.0,,,,,39.0,,,,,0,note_on,,95.0,39.0,95.0,450960,234.875
3299,2.0,,,,,39.0,,,,,240,note_off,,95.0,39.0,95.0,451200,235.0
3300,2.0,,,,,57.0,,,,,0,note_on,,95.0,57.0,95.0,451200,235.0
3301,2.0,,,,,50.0,,,,,0,note_on,,95.0,50.0,95.0,451200,235.0
3302,2.0,,,,,57.0,,,,,480,note_off,,95.0,57.0,95.0,451680,235.25
3303,2.0,,,,,50.0,,,,,0,note_off,,95.0,50.0,95.0,451680,235.25
3304,2.0,,,,,39.0,,,,,0,note_on,,95.0,39.0,95.0,451680,235.25
3305,2.0,,,,,39.0,,,,,240,note_off,,95.0,39.0,95.0,451920,235.375
3306,2.0,,,,,39.0,,,,,0,note_on,,95.0,39.0,95.0,451920,235.375
3307,2.0,,,,,39.0,,,,,240,note_off,,95.0,39.0,95.0,452160,235.5
3308,2.0,,,,,39.0,,,,,240,note_on,,95.0,39.0,95.0,452400,235.625
3309,3.0,,,,,49.0,,,,,180,note_on,,95.0,49.0,95.0,452580,235.71875
3310,2.0,,,,,39.0,,,,,60,note_off,,95.0,39.0,95.0,452640,235.75
3311,3.0,,,,,49.0,,,,,0,note_off,,95.0,49.0,95.0,452640,235.75
3312,3.0,,,,,51.0,,,,,0,note_on,,95.0,51.0,95.0,452640,235.75
3313,2.0,,,,,39.0,,,,,0,note_on,,95.0,39.0,95.0,452640,235.75
3314,3.0,,,,,51.0,,,,,480,note_off,,95.0,51.0,95.0,453120,236.0
3315,2.0,,,,,39.0,,,,,0,note_off,,95.0,39.0,95.0,453120,236.0
3316,2.0,,,,,39.0,,,,,0,note_on,,95.0,39.0,95.0,453120,236.0
3317,2.0,,,,,39.0,,,,,240,note_off,,95.0,39.0,95.0,453360,236.125
3318,2.0,,,,,39.0,,,,,0,note_on,,95.0,39.0,95.0,453360,236.125
3319,2.0,,,,,39.0,,,,,240,note_off,,95.0,39.0,95.0,453600,236.25
3320,2.0,,,,,39.0,,,,,240,note_on,,95.0,39.0,95.0,453840,236.375
3321,2.0,,,,,39.0,,,,,240,note_off,,95.0,39.0,95.0,454080,236.5
3322,2.0,,,,,61.0,,,,,0,note_on,,95.0,61.0,95.0,454080,236.5
3323,2.0,,,,,54.0,,,,,0,note_on,,95.0,54.0,95.0,454080,236.5
3324,2.0,,,,,61.0,,,,,480,note_off,,95.0,61.0,95.0,454560,236.75
3325,2.0,,,,,54.0,,,,,0,note_off,,95.0,54.0,95.0,454560,236.75
3326,2.0,,,,,39.0,,,,,0,note_on,,95.0,39.0,95.0,454560,236.75
3327,2.0,,,,,39.0,,,,,240,note_off,,95.0,39.0,95.0,454800,236.875
3328,2.0,,,,,39.0,,,,,0,note_on,,95.0,39.0,95.0,454800,236.875
3329,2.0,,,,,39.0,,,,,240,note_off,,95.0,39.0,95.0,455040,237.0
3330,2.0,,,,,60.0,,,,,0,note_on,,95.0,60.0,95.0,455040,237.0
3331,2.0,,,,,53.0,,,,,0,note_on,,95.0,53.0,95.0,455040,237.0
3332,2.0,,,,,60.0,,,,,480,note_off,,95.0,60.0,95.0,455520,237.25
3333,2.0,,,,,53.0,,,,,0,note_off,,95.0,53.0,95.0,455520,237.25
3334,2.0,,,,,39.0,,,,,0,note_on,,95.0,39.0,95.0,455520,237.25
3335,2.0,,,,,39.0,,,,,240,note_off,,95.0,39.0,95.0,455760,237.375
3336,2.0,,,,,39.0,,,,,0,note_on,,95.0,39.0,95.0,455760,237.375
3337,2.0,,,,,39.0,,,,,240,note_off,,95.0,39.0,95.0,456000,237.5
3338,2.0,,,,,39.0,,,,,240,note_on,,95.0,39.0,95.0,456240,237.625
3339,3.0,,,,,49.0,,,,,180,note_on,,95.0,49.0,95.0,456420,237.71875
3340,2.0,,,,,39.0,,,,,60,note_off,,95.0,39.0,95.0,456480,237.75
3341,3.0,,,,,49.0,,,,,0,note_off,,95.0,49.0,95.0,456480,237.75
3342,3.0,,,,,51.0,,,,,0,note_on,,95.0,51.0,95.0,456480,237.75
3343,2.0,,,,,39.0,,,,,0,note_on,,95.0,39.0,95.0,456480,237.75
3344,3.0,,,,,51.0,,,,,480,note_off,,95.0,51.0,95.0,456960,238.0
3345,2.0,,,,,39.0,,,,,0,note_off,,95.0,39.0,95.0,456960,238.0
3346,2.0,,,,,39.0,,,,,0,note_on,,95.0,39.0,95.0,456960,238.0
3347,2.0,,,,,39.0,,,,,240,note_off,,95.0,39.0,95.0,457200,238.125
3348,2.0,,,,,39.0,,,,,0,note_on,,95.0,39.0,95.0,457200,238.125
3349,2.0,,,,,39.0,,,,,240,note_off,,95.0,39.0,95.0,457440,238.25
3350,2.0,,,,,39.0,,,,,240,note_on,,95.0,39.0,95.0,457680,238.375
3351,2.0,,,,,39.0,,,,,240,note_off,,95.0,39.0,95.0,457920,238.5
3352,2.0,,,,,59.0,,,,,0,note_on,,95.0,59.0,95.0,457920,238.5
3353,2.0,,,,,52.0,,,,,0,note_on,,95.0,52.0,95.0,457920,238.5
3354,2.0,,,,,59.0,,,,,480,note_off,,95.0,59.0,95.0,458400,238.75
3355,2.0,,,,,52.0,,,,,0,note_off,,95.0,52.0,95.0,458400,238.75
3356,2.0,,,,,39.0,,,,,0,note_on,,95.0,39.0,95.0,458400,238.75
3357,2.0,,,,,39.0,,,,,240,note_off,,95.0,39.0,95.0,458640,238.875
3358,2.0,,,,,39.0,,,,,0,note_on,,95.0,39.0,95.0,458640,238.875
3359,2.0,,,,,39.0,,,,,240,note_off,,95.0,39.0,95.0,458880,239.0
3360,2.0,,,,,57.0,,,,,0,note_on,,95.0,57.0,95.0,458880,239.0
3361,2.0,,,,,50.0,,,,,0,note_on,,95.0,50.0,95.0,458880,239.0
3362,2.0,,,,,57.0,,,,,480,note_off,,95.0,57.0,95.0,459360,239.25
3363,2.0,,,,,50.0,,,,,0,note_off,,95.0,50.0,95.0,459360,239.25
3364,2.0,,,,,39.0,,,,,0,note_on,,95.0,39.0,95.0,459360,239.25
3365,2.0,,,,,39.0,,,,,240,note_off,,95.0,39.0,95.0,459600,239.375
3366,2.0,,,,,39.0,,,,,0,note_on,,95.0,39.0,95.0,459600,239.375
3367,2.0,,,,,39.0,,,,,240,note_off,,95.0,39.0,95.0,459840,239.5
3368,2.0,,,,,39.0,,,,,240,note_on,,95.0,39.0,95.0,460080,239.625
3369,3.0,,,,,49.0,,,,,180,note_on,,95.0,49.0,95.0,460260,239.71875
3370,2.0,,,,,39.0,,,,,60,note_off,,95.0,39.0,95.0,460320,239.75
3371,3.0,,,,,49.0,,,,,0,note_off,,95.0,49.0,95.0,460320,239.75
3372,3.0,,,,,51.0,,,,,0,note_on,,95.0,51.0,95.0,460320,239.75
3373,2.0,,,,,39.0,,,,,0,note_on,,95.0,39.0,95.0,460320,239.75
3374,3.0,,,,,51.0,,,,,480,note_off,,95.0,51.0,95.0,460800,240.0
3375,2.0,,,,,39.0,,,,,0,note_off,,95.0,39.0,95.0,460800,240.0
3376,2.0,,,,,39.0,,,,,0,note_on,,95.0,39.0,95.0,460800,240.0
3377,2.0,,,,,39.0,,,,,240,note_off,,95.0,39.0,95.0,461040,240.125
3378,2.0,,,,,39.0,,,,,0,note_on,,95.0,39.0,95.0,461040,240.125
3379,2.0,,,,,39.0,,,,,240,note_off,,95.0,39.0,95.0,461280,240.25
3380,2.0,,,,,39.0,,,,,240,note_on,,95.0,39.0,95.0,461520,240.375
3381,2.0,,,,,39.0,,,,,240,note_off,,95.0,39.0,95.0,461760,240.5
3382,2.0,,,,,49.0,,,,,0,note_on,,95.0,49.0,95.0,461760,240.5
3383,2.0,,,,,42.0,,,,,0,note_on,,95.0,42.0,95.0,461760,240.5
3384,2.0,,,,,49.0,,,,,480,note_off,,95.0,49.0,95.0,462240,240.75
3385,2.0,,,,,42.0,,,,,0,note_off,,95.0,42.0,95.0,462240,240.75
3386,2.0,,,,,39.0,,,,,0,note_on,,95.0,39.0,95.0,462240,240.75
3387,2.0,,,,,39.0,,,,,240,note_off,,95.0,39.0,95.0,462480,240.875
3388,2.0,,,,,39.0,,,,,0,note_on,,95.0,39.0,95.0,462480,240.875
3389,2.0,,,,,39.0,,,,,240,note_off,,95.0,39.0,95.0,462720,241.0
3390,2.0,,,,,48.0,,,,,0,note_on,,95.0,48.0,95.0,462720,241.0
3391,2.0,,,,,41.0,,,,,0,note_on,,95.0,41.0,95.0,462720,241.0
3392,2.0,,,,,48.0,,,,,480,note_off,,95.0,48.0,95.0,463200,241.25
3393,2.0,,,,,41.0,,,,,0,note_off,,95.0,41.0,95.0,463200,241.25
3394,2.0,,,,,39.0,,,,,0,note_on,,95.0,39.0,95.0,463200,241.25
3395,2.0,,,,,39.0,,,,,240,note_off,,95.0,39.0,95.0,463440,241.375
3396,2.0,,,,,39.0,,,,,0,note_on,,95.0,39.0,95.0,463440,241.375
3397,2.0,,,,,39.0,,,,,240,note_off,,95.0,39.0,95.0,463680,241.5
3398,2.0,,,,,39.0,,,,,240,note_on,,95.0,39.0,95.0,463920,241.625
3399,3.0,,,,,49.0,,,,,180,note_on,,95.0,49.0,95.0,464100,241.71875
3400,2.0,,,,,39.0,,,,,60,note_off,,95.0,39.0,95.0,464160,241.75
3401,3.0,,,,,49.0,,,,,0,note_off,,95.0,49.0,95.0,464160,241.75
3402,3.0,,,,,51.0,,,,,0,note_on,,95.0,51.0,95.0,464160,241.75
3403,2.0,,,,,39.0,,,,,0,note_on,,95.0,39.0,95.0,464160,241.75
3404,3.0,,,,,51.0,,,,,480,note_off,,95.0,51.0,95.0,464640,242.0
3405,2.0,,,,,39.0,,,,,0,note_off,,95.0,39.0,95.0,464640,242.0
3406,2.0,,,,,39.0,,,,,0,note_on,,95.0,39.0,95.0,464640,242.0
3407,2.0,,,,,39.0,,,,,240,note_off,,95.0,39.0,95.0,464880,242.125
3408,2.0,,,,,39.0,,,,,0,note_on,,95.0,39.0,95.0,464880,242.125
3409,2.0,,,,,39.0,,,,,240,note_off,,95.0,39.0,95.0,465120,242.25
3410,2.0,,,,,39.0,,,,,240,note_on,,95.0,39.0,95.0,465360,242.375
3411,2.0,,,,,39.0,,,,,240,note_off,,95.0,39.0,95.0,465600,242.5
3412,2.0,,,,,59.0,,,,,0,note_on,,95.0,59.0,95.0,465600,242.5
3413,2.0,,,,,52.0,,,,,0,note_on,,95.0,52.0,95.0,465600,242.5
3414,2.0,,,,,59.0,,,,,480,note_off,,95.0,59.0,95.0,466080,242.75
3415,2.0,,,,,52.0,,,,,0,note_off,,95.0,52.0,95.0,466080,242.75
3416,2.0,,,,,39.0,,,,,0,note_on,,95.0,39.0,95.0,466080,242.75
3417,2.0,,,,,39.0,,,,,240,note_off,,95.0,39.0,95.0,466320,242.875
3418,2.0,,,,,39.0,,,,,0,note_on,,95.0,39.0,95.0,466320,242.875
3419,2.0,,,,,39.0,,,,,240,note_off,,95.0,39.0,95.0,466560,243.0
3420,2.0,,,,,57.0,,,,,0,note_on,,95.0,57.0,95.0,466560,243.0
3421,2.0,,,,,50.0,,,,,0,note_on,,95.0,50.0,95.0,466560,243.0
3422,2.0,,,,,57.0,,,,,480,note_off,,95.0,57.0,95.0,467040,243.25
3423,2.0,,,,,50.0,,,,,0,note_off,,95.0,50.0,95.0,467040,243.25
3424,2.0,,,,,39.0,,,,,0,note_on,,95.0,39.0,95.0,467040,243.25
3425,2.0,,,,,39.0,,,,,240,note_off,,95.0,39.0,95.0,467280,243.375
3426,2.0,,,,,39.0,,,,,0,note_on,,95.0,39.0,95.0,467280,243.375
3427,2.0,,,,,39.0,,,,,240,note_off,,95.0,39.0,95.0,467520,243.5
3428,2.0,,,,,39.0,,,,,240,note_on,,95.0,39.0,95.0,467760,243.625
3429,3.0,,,,,49.0,,,,,180,note_on,,95.0,49.0,95.0,467940,243.71875
3430,2.0,,,,,39.0,,,,,60,note_off,,95.0,39.0,95.0,468000,243.75
3431,3.0,,,,,49.0,,,,,0,note_off,,95.0,49.0,95.0,468000,243.75
3432,3.0,,,,,51.0,,,,,0,note_on,,95.0,51.0,95.0,468000,243.75
3433,2.0,,,,,39.0,,,,,0,note_on,,95.0,39.0,95.0,468000,243.75
3434,3.0,,,,,51.0,,,,,480,note_off,,95.0,51.0,95.0,468480,244.0
3435,2.0,,,,,39.0,,,,,0,note_off,,95.0,39.0,95.0,468480,244.0
3436,2.0,,,,,39.0,,,,,0,note_on,,95.0,39.0,95.0,468480,244.0
3437,2.0,,,,,39.0,,,,,240,note_off,,95.0,39.0,95.0,468720,244.125
3438,2.0,,,,,39.0,,,,,0,note_on,,95.0,39.0,95.0,468720,244.125
3439,2.0,,,,,39.0,,,,,240,note_off,,95.0,39.0,95.0,468960,244.25
3440,2.0,,,,,39.0,,,,,240,note_on,,95.0,39.0,95.0,469200,244.375
3441,2.0,,,,,39.0,,,,,240,note_off,,95.0,39.0,95.0,469440,244.5
3442,2.0,,,,,61.0,,,,,0,note_on,,95.0,61.0,95.0,469440,244.5
3443,2.0,,,,,54.0,,,,,0,note_on,,95.0,54.0,95.0,469440,244.5
3444,2.0,,,,,61.0,,,,,480,note_off,,95.0,61.0,95.0,469920,244.75
3445,2.0,,,,,54.0,,,,,0,note_off,,95.0,54.0,95.0,469920,244.75
3446,2.0,,,,,39.0,,,,,0,note_on,,95.0,39.0,95.0,469920,244.75
3447,2.0,,,,,39.0,,,,,240,note_off,,95.0,39.0,95.0,470160,244.875
3448,2.0,,,,,39.0,,,,,0,note_on,,95.0,39.0,95.0,470160,244.875
3449,2.0,,,,,39.0,,,,,240,note_off,,95.0,39.0,95.0,470400,245.0
3450,2.0,,,,,60.0,,,,,0,note_on,,95.0,60.0,95.0,470400,245.0
3451,2.0,,,,,53.0,,,,,0,note_on,,95.0,53.0,95.0,470400,245.0
3452,2.0,,,,,60.0,,,,,480,note_off,,95.0,60.0,95.0,470880,245.25
3453,2.0,,,,,53.0,,,,,0,note_off,,95.0,53.0,95.0,470880,245.25
3454,2.0,,,,,39.0,,,,,0,note_on,,95.0,39.0,95.0,470880,245.25
3455,2.0,,,,,39.0,,,,,240,note_off,,95.0,39.0,95.0,471120,245.375
3456,2.0,,,,,39.0,,,,,0,note_on,,95.0,39.0,95.0,471120,245.375
3457,2.0,,,,,39.0,,,,,240,note_off,,95.0,39.0,95.0,471360,245.5
3458,2.0,,,,,39.0,,,,,240,note_on,,95.0,39.0,95.0,471600,245.625
3459,3.0,,,,,49.0,,,,,180,note_on,,95.0,49.0,95.0,471780,245.71875
3460,2.0,,,,,39.0,,,,,60,note_off,,95.0,39.0,95.0,471840,245.75
3461,3.0,,,,,49.0,,,,,0,note_off,,95.0,49.0,95.0,471840,245.75
3462,3.0,,,,,51.0,,,,,0,note_on,,95.0,51.0,95.0,471840,245.75
3463,2.0,,,,,39.0,,,,,0,note_on,,95.0,39.0,95.0,471840,245.75
3464,3.0,,,,,51.0,,,,,480,note_off,,95.0,51.0,95.0,472320,246.0
3465,2.0,,,,,39.0,,,,,0,note_off,,95.0,39.0,95.0,472320,246.0
3466,2.0,,,,,39.0,,,,,0,note_on,,95.0,39.0,95.0,472320,246.0
3467,2.0,,,,,39.0,,,,,240,note_off,,95.0,39.0,95.0,472560,246.125
3468,2.0,,,,,39.0,,,,,0,note_on,,95.0,39.0,95.0,472560,246.125
3469,2.0,,,,,39.0,,,,,240,note_off,,95.0,39.0,95.0,472800,246.25
3470,2.0,,,,,39.0,,,,,240,note_on,,95.0,39.0,95.0,473040,246.375
3471,2.0,,,,,39.0,,,,,240,note_off,,95.0,39.0,95.0,473280,246.5
3472,2.0,,,,,59.0,,,,,0,note_on,,95.0,59.0,95.0,473280,246.5
3473,2.0,,,,,52.0,,,,,0,note_on,,95.0,52.0,95.0,473280,246.5
3474,2.0,,,,,59.0,,,,,480,note_off,,95.0,59.0,95.0,473760,246.75
3475,2.0,,,,,52.0,,,,,0,note_off,,95.0,52.0,95.0,473760,246.75
3476,2.0,,,,,39.0,,,,,0,note_on,,95.0,39.0,95.0,473760,246.75
3477,2.0,,,,,39.0,,,,,240,note_off,,95.0,39.0,95.0,474000,246.875
3478,2.0,,,,,39.0,,,,,0,note_on,,95.0,39.0,95.0,474000,246.875
3479,2.0,,,,,39.0,,,,,240,note_off,,95.0,39.0,95.0,474240,247.0
3480,2.0,,,,,57.0,,,,,0,note_on,,95.0,57.0,95.0,474240,247.0
3481,2.0,,,,,50.0,,,,,0,note_on,,95.0,50.0,95.0,474240,247.0
3482,2.0,,,,,57.0,,,,,480,note_off,,95.0,57.0,95.0,474720,247.25
3483,2.0,,,,,50.0,,,,,0,note_off,,95.0,50.0,95.0,474720,247.25
3484,2.0,,,,,39.0,,,,,0,note_on,,95.0,39.0,95.0,474720,247.25
3485,2.0,,,,,39.0,,,,,240,note_off,,95.0,39.0,95.0,474960,247.375
3486,2.0,,,,,39.0,,,,,0,note_on,,95.0,39.0,95.0,474960,247.375
3487,2.0,,,,,39.0,,,,,240,note_off,,95.0,39.0,95.0,475200,247.5
3488,2.0,,,,,39.0,,,,,240,note_on,,95.0,39.0,95.0,475440,247.625
3489,3.0,,,,,49.0,,,,,180,note_on,,95.0,49.0,95.0,475620,247.71875
3490,2.0,,,,,39.0,,,,,60,note_off,,95.0,39.0,95.0,475680,247.75
3491,3.0,,,,,49.0,,,,,0,note_off,,95.0,49.0,95.0,475680,247.75
3492,3.0,,,,,51.0,,,,,0,note_on,,95.0,51.0,95.0,475680,247.75
3493,2.0,,,,,39.0,,,,,0,note_on,,95.0,39.0,95.0,475680,247.75
3494,3.0,,,,,51.0,,,,,480,note_off,,95.0,51.0,95.0,476160,248.0
3495,2.0,,,,,39.0,,,,,0,note_off,,95.0,39.0,95.0,476160,248.0
3496,2.0,,,,,39.0,,,,,0,note_on,,95.0,39.0,95.0,476160,248.0
3497,2.0,,,,,39.0,,,,,240,note_off,,95.0,39.0,95.0,476400,248.125
3498,2.0,,,,,39.0,,,,,0,note_on,,95.0,39.0,95.0,476400,248.125
3499,2.0,,,,,39.0,,,,,240,note_off,,95.0,39.0,95.0,476640,248.25
3500,2.0,,,,,39.0,,,,,240,note_on,,95.0,39.0,95.0,476880,248.375
3501,2.0,,,,,39.0,,,,,240,note_off,,95.0,39.0,95.0,477120,248.5
3502,2.0,,,,,49.0,,,,,0,note_on,,95.0,49.0,95.0,477120,248.5
3503,2.0,,,,,42.0,,,,,0,note_on,,95.0,42.0,95.0,477120,248.5
3504,2.0,,,,,49.0,,,,,480,note_off,,95.0,49.0,95.0,477600,248.75
3505,2.0,,,,,42.0,,,,,0,note_off,,95.0,42.0,95.0,477600,248.75
3506,2.0,,,,,39.0,,,,,0,note_on,,95.0,39.0,95.0,477600,248.75
3507,2.0,,,,,39.0,,,,,240,note_off,,95.0,39.0,95.0,477840,248.875
3508,2.0,,,,,39.0,,,,,0,note_on,,95.0,39.0,95.0,477840,248.875
3509,2.0,,,,,39.0,,,,,240,note_off,,95.0,39.0,95.0,478080,249.0
3510,2.0,,,,,48.0,,,,,0,note_on,,95.0,48.0,95.0,478080,249.0
3511,2.0,,,,,41.0,,,,,0,note_on,,95.0,41.0,95.0,478080,249.0
3512,2.0,,,,,48.0,,,,,480,note_off,,95.0,48.0,95.0,478560,249.25
3513,2.0,,,,,41.0,,,,,0,note_off,,95.0,41.0,95.0,478560,249.25
3514,2.0,,,,,39.0,,,,,0,note_on,,95.0,39.0,95.0,478560,249.25
3515,2.0,,,,,39.0,,,,,240,note_off,,95.0,39.0,95.0,478800,249.375
3516,2.0,,,,,39.0,,,,,0,note_on,,95.0,39.0,95.0,478800,249.375
3517,2.0,,,,,39.0,,,,,240,note_off,,95.0,39.0,95.0,479040,249.5
3518,2.0,,,,,39.0,,,,,240,note_on,,95.0,39.0,95.0,479280,249.625
3519,3.0,,,,,49.0,,,,,180,note_on,,95.0,49.0,95.0,479460,249.71875
3520,2.0,,,,,39.0,,,,,60,note_off,,95.0,39.0,95.0,479520,249.75
3521,3.0,,,,,49.0,,,,,0,note_off,,95.0,49.0,95.0,479520,249.75
3522,3.0,,,,,51.0,,,,,0,note_on,,95.0,51.0,95.0,479520,249.75
3523,2.0,,,,,39.0,,,,,0,note_on,,95.0,39.0,95.0,479520,249.75
3524,3.0,,,,,51.0,,,,,480,note_off,,95.0,51.0,95.0,480000,250.0
3525,2.0,,,,,39.0,,,,,0,note_off,,95.0,39.0,95.0,480000,250.0
3526,2.0,,,,,39.0,,,,,0,note_on,,95.0,39.0,95.0,480000,250.0
3527,2.0,,,,,39.0,,,,,240,note_off,,95.0,39.0,95.0,480240,250.125
3528,2.0,,,,,39.0,,,,,0,note_on,,95.0,39.0,95.0,480240,250.125
3529,2.0,,,,,39.0,,,,,240,note_off,,95.0,39.0,95.0,480480,250.25
3530,2.0,,,,,39.0,,,,,240,note_on,,95.0,39.0,95.0,480720,250.375
3531,2.0,,,,,39.0,,,,,240,note_off,,95.0,39.0,95.0,480960,250.5
3532,2.0,,,,,59.0,,,,,0,note_on,,95.0,59.0,95.0,480960,250.5
3533,2.0,,,,,52.0,,,,,0,note_on,,95.0,52.0,95.0,480960,250.5
3534,2.0,,,,,59.0,,,,,480,note_off,,95.0,59.0,95.0,481440,250.75
3535,2.0,,,,,52.0,,,,,0,note_off,,95.0,52.0,95.0,481440,250.75
3536,2.0,,,,,39.0,,,,,0,note_on,,95.0,39.0,95.0,481440,250.75
3537,2.0,,,,,39.0,,,,,240,note_off,,95.0,39.0,95.0,481680,250.875
3538,2.0,,,,,39.0,,,,,0,note_on,,95.0,39.0,95.0,481680,250.875
3539,2.0,,,,,39.0,,,,,240,note_off,,95.0,39.0,95.0,481920,251.0
3540,2.0,,,,,57.0,,,,,0,note_on,,95.0,57.0,95.0,481920,251.0
3541,2.0,,,,,50.0,,,,,0,note_on,,95.0,50.0,95.0,481920,251.0
3542,2.0,,,,,57.0,,,,,480,note_off,,95.0,57.0,95.0,482400,251.25
3543,2.0,,,,,50.0,,,,,0,note_off,,95.0,50.0,95.0,482400,251.25
3544,2.0,,,,,39.0,,,,,0,note_on,,95.0,39.0,95.0,482400,251.25
3545,2.0,,,,,39.0,,,,,240,note_off,,95.0,39.0,95.0,482640,251.375
3546,2.0,,,,,39.0,,,,,0,note_on,,95.0,39.0,95.0,482640,251.375
3547,2.0,,,,,39.0,,,,,240,note_off,,95.0,39.0,95.0,482880,251.5
3548,2.0,,,,,39.0,,,,,240,note_on,,95.0,39.0,95.0,483120,251.625
3549,3.0,,,,,49.0,,,,,180,note_on,,95.0,49.0,95.0,483300,251.71875
3550,2.0,,,,,39.0,,,,,60,note_off,,95.0,39.0,95.0,483360,251.75
3551,3.0,,,,,49.0,,,,,0,note_off,,95.0,49.0,95.0,483360,251.75
3552,3.0,,,,,51.0,,,,,0,note_on,,95.0,51.0,95.0,483360,251.75
3553,2.0,,,,,39.0,,,,,0,note_on,,95.0,39.0,95.0,483360,251.75
3554,3.0,,,,,51.0,,,,,480,note_off,,95.0,51.0,95.0,483840,252.0
3555,2.0,,,,,39.0,,,,,0,note_off,,95.0,39.0,95.0,483840,252.0
3556,2.0,,,,,39.0,,,,,0,note_on,,95.0,39.0,95.0,483840,252.0
3557,2.0,,,,,39.0,,,,,240,note_off,,95.0,39.0,95.0,484080,252.125
3558,2.0,,,,,39.0,,,,,0,note_on,,95.0,39.0,95.0,484080,252.125
3559,2.0,,,,,39.0,,,,,240,note_off,,95.0,39.0,95.0,484320,252.25
3560,2.0,,,,,39.0,,,,,240,note_on,,95.0,39.0,95.0,484560,252.375
3561,2.0,,,,,39.0,,,,,240,note_off,,95.0,39.0,95.0,484800,252.5
3562,2.0,,,,,61.0,,,,,0,note_on,,95.0,61.0,95.0,484800,252.5
3563,2.0,,,,,54.0,,,,,0,note_on,,95.0,54.0,95.0,484800,252.5
3564,2.0,,,,,61.0,,,,,480,note_off,,95.0,61.0,95.0,485280,252.75
3565,2.0,,,,,54.0,,,,,0,note_off,,95.0,54.0,95.0,485280,252.75
3566,2.0,,,,,39.0,,,,,0,note_on,,95.0,39.0,95.0,485280,252.75
3567,2.0,,,,,39.0,,,,,240,note_off,,95.0,39.0,95.0,485520,252.875
3568,2.0,,,,,39.0,,,,,0,note_on,,95.0,39.0,95.0,485520,252.875
3569,2.0,,,,,39.0,,,,,240,note_off,,95.0,39.0,95.0,485760,253.0
3570,2.0,,,,,60.0,,,,,0,note_on,,95.0,60.0,95.0,485760,253.0
3571,2.0,,,,,53.0,,,,,0,note_on,,95.0,53.0,95.0,485760,253.0
3572,2.0,,,,,60.0,,,,,480,note_off,,95.0,60.0,95.0,486240,253.25
3573,2.0,,,,,53.0,,,,,0,note_off,,95.0,53.0,95.0,486240,253.25
3574,2.0,,,,,39.0,,,,,0,note_on,,95.0,39.0,95.0,486240,253.25
3575,2.0,,,,,39.0,,,,,240,note_off,,95.0,39.0,95.0,486480,253.375
3576,2.0,,,,,39.0,,,,,0,note_on,,95.0,39.0,95.0,486480,253.375
3577,2.0,,,,,39.0,,,,,240,note_off,,95.0,39.0,95.0,486720,253.5
3578,2.0,,,,,39.0,,,,,240,note_on,,95.0,39.0,95.0,486960,253.625
3579,3.0,,,,,49.0,,,,,180,note_on,,95.0,49.0,95.0,487140,253.71875
3580,2.0,,,,,39.0,,,,,60,note_off,,95.0,39.0,95.0,487200,253.75
3581,3.0,,,,,49.0,,,,,0,note_off,,95.0,49.0,95.0,487200,253.75
3582,3.0,,,,,51.0,,,,,0,note_on,,95.0,51.0,95.0,487200,253.75
3583,2.0,,,,,39.0,,,,,0,note_on,,95.0,39.0,95.0,487200,253.75
3584,3.0,,,,,51.0,,,,,480,note_off,,95.0,51.0,95.0,487680,254.0
3585,2.0,,,,,39.0,,,,,0,note_off,,95.0,39.0,95.0,487680,254.0
3586,2.0,,,,,39.0,,,,,0,note_on,,95.0,39.0,95.0,487680,254.0
3587,2.0,,,,,39.0,,,,,240,note_off,,95.0,39.0,95.0,487920,254.125
3588,2.0,,,,,39.0,,,,,0,note_on,,95.0,39.0,95.0,487920,254.125
3589,2.0,,,,,39.0,,,,,240,note_off,,95.0,39.0,95.0,488160,254.25
3590,2.0,,,,,39.0,,,,,240,note_on,,95.0,39.0,95.0,488400,254.375
3591,2.0,,,,,39.0,,,,,240,note_off,,95.0,39.0,95.0,488640,254.5
3592,2.0,,,,,59.0,,,,,0,note_on,,95.0,59.0,95.0,488640,254.5
3593,2.0,,,,,52.0,,,,,0,note_on,,95.0,52.0,95.0,488640,254.5
3594,2.0,,,,,59.0,,,,,480,note_off,,95.0,59.0,95.0,489120,254.75
3595,2.0,,,,,52.0,,,,,0,note_off,,95.0,52.0,95.0,489120,254.75
3596,2.0,,,,,39.0,,,,,0,note_on,,95.0,39.0,95.0,489120,254.75
3597,2.0,,,,,39.0,,,,,240,note_off,,95.0,39.0,95.0,489360,254.875
3598,2.0,,,,,39.0,,,,,0,note_on,,95.0,39.0,95.0,489360,254.875
3599,2.0,,,,,39.0,,,,,240,note_off,,95.0,39.0,95.0,489600,255.0
3600,2.0,,,,,57.0,,,,,0,note_on,,95.0,57.0,95.0,489600,255.0
3601,2.0,,,,,50.0,,,,,0,note_on,,95.0,50.0,95.0,489600,255.0
3602,2.0,,,,,57.0,,,,,480,note_off,,95.0,57.0,95.0,490080,255.25
3603,2.0,,,,,50.0,,,,,0,note_off,,95.0,50.0,95.0,490080,255.25
3604,2.0,,,,,39.0,,,,,0,note_on,,95.0,39.0,95.0,490080,255.25
3605,2.0,,,,,39.0,,,,,240,note_off,,95.0,39.0,95.0,490320,255.375
3606,2.0,,,,,39.0,,,,,0,note_on,,95.0,39.0,95.0,490320,255.375
3607,2.0,,,,,39.0,,,,,240,note_off,,95.0,39.0,95.0,490560,255.5
3608,2.0,,,,,39.0,,,,,240,note_on,,95.0,39.0,95.0,490800,255.625
3609,3.0,,,,,49.0,,,,,180,note_on,,95.0,49.0,95.0,490980,255.71875
3610,2.0,,,,,39.0,,,,,60,note_off,,95.0,39.0,95.0,491040,255.75
3611,3.0,,,,,49.0,,,,,0,note_off,,95.0,49.0,95.0,491040,255.75
3612,3.0,,,,,51.0,,,,,0,note_on,,95.0,51.0,95.0,491040,255.75
3613,2.0,,,,,39.0,,,,,0,note_on,,95.0,39.0,95.0,491040,255.75
3614,3.0,,,,,51.0,,,,,480,note_off,,95.0,51.0,95.0,491520,256.0
3615,2.0,,,,,39.0,,,,,0,note_off,,95.0,39.0,95.0,491520,256.0
3616,2.0,,,,,39.0,,,,,0,note_on,,95.0,39.0,95.0,491520,256.0
3617,2.0,,,,,39.0,,,,,240,note_off,,95.0,39.0,95.0,491760,256.125
3618,2.0,,,,,39.0,,,,,0,note_on,,95.0,39.0,95.0,491760,256.125
3619,2.0,,,,,39.0,,,,,240,note_off,,95.0,39.0,95.0,492000,256.25
3620,2.0,,,,,39.0,,,,,240,note_on,,95.0,39.0,95.0,492240,256.375
3621,2.0,,,,,39.0,,,,,240,note_off,,95.0,39.0,95.0,492480,256.5
3622,2.0,,,,,49.0,,,,,0,note_on,,95.0,49.0,95.0,492480,256.5
3623,2.0,,,,,42.0,,,,,0,note_on,,95.0,42.0,95.0,492480,256.5
3624,2.0,,,,,49.0,,,,,480,note_off,,95.0,49.0,95.0,492960,256.75
3625,2.0,,,,,42.0,,,,,0,note_off,,95.0,42.0,95.0,492960,256.75
3626,2.0,,,,,39.0,,,,,0,note_on,,95.0,39.0,95.0,492960,256.75
3627,2.0,,,,,39.0,,,,,240,note_off,,95.0,39.0,95.0,493200,256.875
3628,2.0,,,,,39.0,,,,,0,note_on,,95.0,39.0,95.0,493200,256.875
3629,2.0,,,,,39.0,,,,,240,note_off,,95.0,39.0,95.0,493440,257.0
3630,2.0,,,,,48.0,,,,,0,note_on,,95.0,48.0,95.0,493440,257.0
3631,2.0,,,,,41.0,,,,,0,note_on,,95.0,41.0,95.0,493440,257.0
3632,2.0,,,,,48.0,,,,,480,note_off,,95.0,48.0,95.0,493920,257.25
3633,2.0,,,,,41.0,,,,,0,note_off,,95.0,41.0,95.0,493920,257.25
3634,2.0,,,,,39.0,,,,,0,note_on,,95.0,39.0,95.0,493920,257.25
3635,2.0,,,,,39.0,,,,,240,note_off,,95.0,39.0,95.0,494160,257.375
3636,2.0,,,,,39.0,,,,,240,note_on,,95.0,39.0,95.0,494400,257.5
3637,2.0,,,,,39.0,,,,,240,note_off,,95.0,39.0,95.0,494640,257.625
3638,2.0,,,,,39.0,,,,,0,note_on,,95.0,39.0,95.0,494640,257.625
3639,3.0,,,,,49.0,,,,,180,note_on,,95.0,49.0,95.0,494820,257.71875
3640,2.0,,,,,39.0,,,,,60,note_off,,95.0,39.0,95.0,494880,257.75
3641,3.0,,,,,49.0,,,,,0,note_off,,95.0,49.0,95.0,494880,257.75
3642,3.0,,,,,51.0,,,,,0,note_on,,95.0,51.0,95.0,494880,257.75
3643,2.0,,,,,39.0,,,,,0,note_on,,95.0,39.0,95.0,494880,257.75
3644,3.0,,,,,51.0,,,,,960,note_off,,95.0,51.0,95.0,495840,258.25
3645,2.0,,,,,39.0,,,,,0,note_off,,95.0,39.0,95.0,495840,258.25
3646,2.0,,,,,39.0,,,,,0,note_on,,95.0,39.0,95.0,495840,258.25
3647,2.0,,,,,39.0,,,,,240,note_off,,95.0,39.0,95.0,496080,258.375
3648,2.0,,,,,39.0,,,,,240,note_on,,95.0,39.0,95.0,496320,258.5
3649,2.0,,,,,39.0,,,,,240,note_off,,95.0,39.0,95.0,496560,258.625
3650,2.0,,,,,39.0,,,,,0,note_on,,95.0,39.0,95.0,496560,258.625
3651,2.0,,,,,39.0,,,,,240,note_off,,95.0,39.0,95.0,496800,258.75
3652,2.0,,,,,59.0,,,,,0,note_on,,95.0,59.0,95.0,496800,258.75
3653,2.0,,,,,52.0,,,,,0,note_on,,95.0,52.0,95.0,496800,258.75
3654,2.0,,,,,59.0,,,,,240,note_off,,95.0,59.0,95.0,497040,258.875
3655,2.0,,,,,52.0,,,,,0,note_off,,95.0,52.0,95.0,497040,258.875
3656,2.0,,,,,58.0,,,,,0,note_on,,95.0,58.0,95.0,497040,258.875
3657,2.0,,,,,51.0,,,,,0,note_on,,95.0,51.0,95.0,497040,258.875
3658,2.0,,,,,58.0,,,,,240,note_off,,95.0,58.0,95.0,497280,259.0
3659,2.0,,,,,51.0,,,,,0,note_off,,95.0,51.0,95.0,497280,259.0
3660,2.0,,,,,57.0,,,,,0,note_on,,95.0,57.0,95.0,497280,259.0
3661,2.0,,,,,50.0,,,,,0,note_on,,95.0,50.0,95.0,497280,259.0
3662,2.0,,,,,57.0,,,,,480,note_off,,95.0,57.0,95.0,497760,259.25
3663,2.0,,,,,50.0,,,,,0,note_off,,95.0,50.0,95.0,497760,259.25
3664,2.0,,,,,39.0,,,,,0,note_on,,95.0,39.0,95.0,497760,259.25
3665,2.0,,,,,39.0,,,,,240,note_off,,95.0,39.0,95.0,498000,259.375
3666,2.0,,,,,39.0,,,,,240,note_on,,95.0,39.0,95.0,498240,259.5
3667,2.0,,,,,39.0,,,,,240,note_off,,95.0,39.0,95.0,498480,259.625
3668,2.0,,,,,39.0,,,,,0,note_on,,95.0,39.0,95.0,498480,259.625
3669,3.0,,,,,49.0,,,,,180,note_on,,95.0,49.0,95.0,498660,259.71875
3670,2.0,,,,,39.0,,,,,60,note_off,,95.0,39.0,95.0,498720,259.75
3671,3.0,,,,,49.0,,,,,0,note_off,,95.0,49.0,95.0,498720,259.75
3672,3.0,,,,,51.0,,,,,0,note_on,,95.0,51.0,95.0,498720,259.75
3673,2.0,,,,,39.0,,,,,0,note_on,,95.0,39.0,95.0,498720,259.75
3674,3.0,,,,,51.0,,,,,960,note_off,,95.0,51.0,95.0,499680,260.25
3675,2.0,,,,,39.0,,,,,0,note_off,,95.0,39.0,95.0,499680,260.25
3676,2.0,,,,,39.0,,,,,0,note_on,,95.0,39.0,95.0,499680,260.25
3677,2.0,,,,,39.0,,,,,240,note_off,,95.0,39.0,95.0,499920,260.375
3678,2.0,,,,,39.0,,,,,240,note_on,,95.0,39.0,95.0,500160,260.5
3679,2.0,,,,,39.0,,,,,240,note_off,,95.0,39.0,95.0,500400,260.625
3680,2.0,,,,,39.0,,,,,0,note_on,,95.0,39.0,95.0,500400,260.625
3681,2.0,,,,,39.0,,,,,240,note_off,,95.0,39.0,95.0,500640,260.75
3682,2.0,,,,,61.0,,,,,0,note_on,,95.0,61.0,95.0,500640,260.75
3683,2.0,,,,,54.0,,,,,0,note_on,,95.0,54.0,95.0,500640,260.75
3684,2.0,,,,,61.0,,,,,240,note_off,,95.0,61.0,95.0,500880,260.875
3685,2.0,,,,,54.0,,,,,0,note_off,,95.0,54.0,95.0,500880,260.875
3686,2.0,,,,,60.0,,,,,0,note_on,,95.0,60.0,95.0,500880,260.875
3687,2.0,,,,,53.0,,,,,0,note_on,,95.0,53.0,95.0,500880,260.875
3688,2.0,,,,,60.0,,,,,240,note_off,,95.0,60.0,95.0,501120,261.0
3689,2.0,,,,,53.0,,,,,0,note_off,,95.0,53.0,95.0,501120,261.0
3690,2.0,,,,,59.0,,,,,0,note_on,,95.0,59.0,95.0,501120,261.0
3691,2.0,,,,,52.0,,,,,0,note_on,,95.0,52.0,95.0,501120,261.0
3692,2.0,,,,,59.0,,,,,480,note_off,,95.0,59.0,95.0,501600,261.25
3693,2.0,,,,,52.0,,,,,0,note_off,,95.0,52.0,95.0,501600,261.25
3694,2.0,,,,,39.0,,,,,0,note_on,,95.0,39.0,95.0,501600,261.25
3695,2.0,,,,,39.0,,,,,240,note_off,,95.0,39.0,95.0,501840,261.375
3696,2.0,,,,,39.0,,,,,240,note_on,,95.0,39.0,95.0,502080,261.5
3697,2.0,,,,,39.0,,,,,240,note_off,,95.0,39.0,95.0,502320,261.625
3698,2.0,,,,,39.0,,,,,0,note_on,,95.0,39.0,95.0,502320,261.625
3699,3.0,,,,,49.0,,,,,180,note_on,,95.0,49.0,95.0,502500,261.71875
3700,2.0,,,,,39.0,,,,,60,note_off,,95.0,39.0,95.0,502560,261.75
3701,3.0,,,,,49.0,,,,,0,note_off,,95.0,49.0,95.0,502560,261.75
3702,3.0,,,,,51.0,,,,,0,note_on,,95.0,51.0,95.0,502560,261.75
3703,2.0,,,,,39.0,,,,,0,note_on,,95.0,39.0,95.0,502560,261.75
3704,3.0,,,,,51.0,,,,,960,note_off,,95.0,51.0,95.0,503520,262.25
3705,2.0,,,,,39.0,,,,,0,note_off,,95.0,39.0,95.0,503520,262.25
3706,2.0,,,,,39.0,,,,,0,note_on,,95.0,39.0,95.0,503520,262.25
3707,2.0,,,,,39.0,,,,,240,note_off,,95.0,39.0,95.0,503760,262.375
3708,2.0,,,,,39.0,,,,,240,note_on,,95.0,39.0,95.0,504000,262.5
3709,2.0,,,,,39.0,,,,,240,note_off,,95.0,39.0,95.0,504240,262.625
3710,2.0,,,,,39.0,,,,,0,note_on,,95.0,39.0,95.0,504240,262.625
3711,2.0,,,,,39.0,,,,,240,note_off,,95.0,39.0,95.0,504480,262.75
3712,2.0,,,,,59.0,,,,,0,note_on,,95.0,59.0,95.0,504480,262.75
3713,2.0,,,,,52.0,,,,,0,note_on,,95.0,52.0,95.0,504480,262.75
3714,2.0,,,,,59.0,,,,,240,note_off,,95.0,59.0,95.0,504720,262.875
3715,2.0,,,,,52.0,,,,,0,note_off,,95.0,52.0,95.0,504720,262.875
3716,2.0,,,,,58.0,,,,,0,note_on,,95.0,58.0,95.0,504720,262.875
3717,2.0,,,,,51.0,,,,,0,note_on,,95.0,51.0,95.0,504720,262.875
3718,2.0,,,,,58.0,,,,,240,note_off,,95.0,58.0,95.0,504960,263.0
3719,2.0,,,,,51.0,,,,,0,note_off,,95.0,51.0,95.0,504960,263.0
3720,2.0,,,,,57.0,,,,,0,note_on,,95.0,57.0,95.0,504960,263.0
3721,2.0,,,,,50.0,,,,,0,note_on,,95.0,50.0,95.0,504960,263.0
3722,2.0,,,,,57.0,,,,,480,note_off,,95.0,57.0,95.0,505440,263.25
3723,2.0,,,,,50.0,,,,,0,note_off,,95.0,50.0,95.0,505440,263.25
3724,2.0,,,,,39.0,,,,,0,note_on,,95.0,39.0,95.0,505440,263.25
3725,2.0,,,,,39.0,,,,,240,note_off,,95.0,39.0,95.0,505680,263.375
3726,2.0,,,,,39.0,,,,,240,note_on,,95.0,39.0,95.0,505920,263.5
3727,2.0,,,,,39.0,,,,,240,note_off,,95.0,39.0,95.0,506160,263.625
3728,2.0,,,,,39.0,,,,,0,note_on,,95.0,39.0,95.0,506160,263.625
3729,3.0,,,,,49.0,,,,,180,note_on,,95.0,49.0,95.0,506340,263.71875
3730,2.0,,,,,39.0,,,,,60,note_off,,95.0,39.0,95.0,506400,263.75
3731,3.0,,,,,49.0,,,,,0,note_off,,95.0,49.0,95.0,506400,263.75
3732,3.0,,,,,51.0,,,,,0,note_on,,95.0,51.0,95.0,506400,263.75
3733,2.0,,,,,39.0,,,,,0,note_on,,95.0,39.0,95.0,506400,263.75
3734,3.0,,,,,51.0,,,,,960,note_off,,95.0,51.0,95.0,507360,264.25
3735,2.0,,,,,39.0,,,,,0,note_off,,95.0,39.0,95.0,507360,264.25
3736,2.0,,,,,39.0,,,,,0,note_on,,95.0,39.0,95.0,507360,264.25
3737,2.0,,,,,39.0,,,,,240,note_off,,95.0,39.0,95.0,507600,264.375
3738,2.0,,,,,39.0,,,,,0,note_on,,95.0,39.0,95.0,507600,264.375
3739,2.0,,,,,39.0,,,,,240,note_off,,95.0,39.0,95.0,507840,264.5
3740,2.0,,,,,39.0,,,,,0,note_on,,95.0,39.0,95.0,507840,264.5
3741,2.0,,,,,39.0,,,,,240,note_off,,95.0,39.0,95.0,508080,264.625
3742,2.0,,,,,39.0,,,,,0,note_on,,95.0,39.0,95.0,508080,264.625
3743,2.0,,,,,39.0,,,,,240,note_off,,95.0,39.0,95.0,508320,264.75
3744,2.0,,,,,49.0,,,,,0,note_on,,95.0,49.0,95.0,508320,264.75
3745,2.0,,,,,42.0,,,,,0,note_on,,95.0,42.0,95.0,508320,264.75
3746,2.0,,,,,49.0,,,,,240,note_off,,95.0,49.0,95.0,508560,264.875
3747,2.0,,,,,42.0,,,,,0,note_off,,95.0,42.0,95.0,508560,264.875
3748,2.0,,,,,48.0,,,,,0,note_on,,95.0,48.0,95.0,508560,264.875
3749,2.0,,,,,41.0,,,,,0,note_on,,95.0,41.0,95.0,508560,264.875
3750,2.0,,,,,48.0,,,,,240,note_off,,95.0,48.0,95.0,508800,265.0
3751,2.0,,,,,41.0,,,,,0,note_off,,95.0,41.0,95.0,508800,265.0
3752,2.0,,,,,47.0,,,,,0,note_on,,95.0,47.0,95.0,508800,265.0
3753,2.0,,,,,40.0,,,,,0,note_on,,95.0,40.0,95.0,508800,265.0
3754,2.0,,,,,47.0,,,,,480,note_off,,95.0,47.0,95.0,509280,265.25
3755,2.0,,,,,40.0,,,,,0,note_off,,95.0,40.0,95.0,509280,265.25
3756,2.0,,,,,39.0,,,,,0,note_on,,95.0,39.0,95.0,509280,265.25
3757,2.0,,,,,39.0,,,,,240,note_off,,95.0,39.0,95.0,509520,265.375
3758,2.0,,,,,39.0,,,,,240,note_on,,95.0,39.0,95.0,509760,265.5
3759,2.0,,,,,39.0,,,,,240,note_off,,95.0,39.0,95.0,510000,265.625
3760,2.0,,,,,39.0,,,,,0,note_on,,95.0,39.0,95.0,510000,265.625
3761,3.0,,,,,49.0,,,,,180,note_on,,95.0,49.0,95.0,510180,265.71875
3762,2.0,,,,,39.0,,,,,60,note_off,,95.0,39.0,95.0,510240,265.75
3763,3.0,,,,,49.0,,,,,0,note_off,,95.0,49.0,95.0,510240,265.75
3764,3.0,,,,,51.0,,,,,0,note_on,,95.0,51.0,95.0,510240,265.75
3765,2.0,,,,,39.0,,,,,0,note_on,,95.0,39.0,95.0,510240,265.75
3766,3.0,,,,,51.0,,,,,960,note_off,,95.0,51.0,95.0,511200,266.25
3767,2.0,,,,,39.0,,,,,0,note_off,,95.0,39.0,95.0,511200,266.25
3768,2.0,,,,,39.0,,,,,0,note_on,,95.0,39.0,95.0,511200,266.25
3769,2.0,,,,,39.0,,,,,240,note_off,,95.0,39.0,95.0,511440,266.375
3770,2.0,,,,,39.0,,,,,240,note_on,,95.0,39.0,95.0,511680,266.5
3771,2.0,,,,,39.0,,,,,240,note_off,,95.0,39.0,95.0,511920,266.625
3772,2.0,,,,,39.0,,,,,0,note_on,,95.0,39.0,95.0,511920,266.625
3773,2.0,,,,,39.0,,,,,240,note_off,,95.0,39.0,95.0,512160,266.75
3774,2.0,,,,,59.0,,,,,0,note_on,,95.0,59.0,95.0,512160,266.75
3775,2.0,,,,,52.0,,,,,0,note_on,,95.0,52.0,95.0,512160,266.75
3776,2.0,,,,,59.0,,,,,240,note_off,,95.0,59.0,95.0,512400,266.875
3777,2.0,,,,,52.0,,,,,0,note_off,,95.0,52.0,95.0,512400,266.875
3778,2.0,,,,,58.0,,,,,0,note_on,,95.0,58.0,95.0,512400,266.875
3779,2.0,,,,,51.0,,,,,0,note_on,,95.0,51.0,95.0,512400,266.875
3780,2.0,,,,,58.0,,,,,240,note_off,,95.0,58.0,95.0,512640,267.0
3781,2.0,,,,,51.0,,,,,0,note_off,,95.0,51.0,95.0,512640,267.0
3782,2.0,,,,,57.0,,,,,0,note_on,,95.0,57.0,95.0,512640,267.0
3783,2.0,,,,,50.0,,,,,0,note_on,,95.0,50.0,95.0,512640,267.0
3784,2.0,,,,,57.0,,,,,480,note_off,,95.0,57.0,95.0,513120,267.25
3785,2.0,,,,,50.0,,,,,0,note_off,,95.0,50.0,95.0,513120,267.25
3786,2.0,,,,,39.0,,,,,0,note_on,,95.0,39.0,95.0,513120,267.25
3787,2.0,,,,,39.0,,,,,240,note_off,,95.0,39.0,95.0,513360,267.375
3788,2.0,,,,,39.0,,,,,240,note_on,,95.0,39.0,95.0,513600,267.5
3789,2.0,,,,,39.0,,,,,240,note_off,,95.0,39.0,95.0,513840,267.625
3790,2.0,,,,,39.0,,,,,0,note_on,,95.0,39.0,95.0,513840,267.625
3791,3.0,,,,,49.0,,,,,180,note_on,,95.0,49.0,95.0,514020,267.71875
3792,2.0,,,,,39.0,,,,,60,note_off,,95.0,39.0,95.0,514080,267.75
3793,3.0,,,,,49.0,,,,,0,note_off,,95.0,49.0,95.0,514080,267.75
3794,3.0,,,,,51.0,,,,,0,note_on,,95.0,51.0,95.0,514080,267.75
3795,2.0,,,,,39.0,,,,,0,note_on,,95.0,39.0,95.0,514080,267.75
3796,3.0,,,,,51.0,,,,,960,note_off,,95.0,51.0,95.0,515040,268.25
3797,2.0,,,,,39.0,,,,,0,note_off,,95.0,39.0,95.0,515040,268.25
3798,2.0,,,,,39.0,,,,,0,note_on,,95.0,39.0,95.0,515040,268.25
3799,2.0,,,,,39.0,,,,,240,note_off,,95.0,39.0,95.0,515280,268.375
3800,2.0,,,,,39.0,,,,,240,note_on,,95.0,39.0,95.0,515520,268.5
3801,2.0,,,,,39.0,,,,,240,note_off,,95.0,39.0,95.0,515760,268.625
3802,2.0,,,,,39.0,,,,,0,note_on,,95.0,39.0,95.0,515760,268.625
3803,2.0,,,,,39.0,,,,,240,note_off,,95.0,39.0,95.0,516000,268.75
3804,2.0,,,,,61.0,,,,,0,note_on,,95.0,61.0,95.0,516000,268.75
3805,2.0,,,,,54.0,,,,,0,note_on,,95.0,54.0,95.0,516000,268.75
3806,2.0,,,,,61.0,,,,,240,note_off,,95.0,61.0,95.0,516240,268.875
3807,2.0,,,,,54.0,,,,,0,note_off,,95.0,54.0,95.0,516240,268.875
3808,2.0,,,,,60.0,,,,,0,note_on,,95.0,60.0,95.0,516240,268.875
3809,2.0,,,,,53.0,,,,,0,note_on,,95.0,53.0,95.0,516240,268.875
3810,2.0,,,,,60.0,,,,,240,note_off,,95.0,60.0,95.0,516480,269.0
3811,2.0,,,,,53.0,,,,,0,note_off,,95.0,53.0,95.0,516480,269.0
3812,2.0,,,,,59.0,,,,,0,note_on,,95.0,59.0,95.0,516480,269.0
3813,2.0,,,,,52.0,,,,,0,note_on,,95.0,52.0,95.0,516480,269.0
3814,2.0,,,,,59.0,,,,,480,note_off,,95.0,59.0,95.0,516960,269.25
3815,2.0,,,,,52.0,,,,,0,note_off,,95.0,52.0,95.0,516960,269.25
3816,2.0,,,,,39.0,,,,,0,note_on,,95.0,39.0,95.0,516960,269.25
3817,2.0,,,,,39.0,,,,,240,note_off,,95.0,39.0,95.0,517200,269.375
3818,2.0,,,,,39.0,,,,,240,note_on,,95.0,39.0,95.0,517440,269.5
3819,2.0,,,,,39.0,,,,,240,note_off,,95.0,39.0,95.0,517680,269.625
3820,2.0,,,,,39.0,,,,,0,note_on,,95.0,39.0,95.0,517680,269.625
3821,3.0,,,,,49.0,,,,,180,note_on,,95.0,49.0,95.0,517860,269.71875
3822,2.0,,,,,39.0,,,,,60,note_off,,95.0,39.0,95.0,517920,269.75
3823,3.0,,,,,49.0,,,,,0,note_off,,95.0,49.0,95.0,517920,269.75
3824,3.0,,,,,51.0,,,,,0,note_on,,95.0,51.0,95.0,517920,269.75
3825,2.0,,,,,39.0,,,,,0,note_on,,95.0,39.0,95.0,517920,269.75
3826,3.0,,,,,51.0,,,,,960,note_off,,95.0,51.0,95.0,518880,270.25
3827,2.0,,,,,39.0,,,,,0,note_off,,95.0,39.0,95.0,518880,270.25
3828,2.0,,,,,39.0,,,,,0,note_on,,95.0,39.0,95.0,518880,270.25
3829,2.0,,,,,39.0,,,,,240,note_off,,95.0,39.0,95.0,519120,270.375
3830,2.0,,,,,39.0,,,,,240,note_on,,95.0,39.0,95.0,519360,270.5
3831,2.0,,,,,39.0,,,,,240,note_off,,95.0,39.0,95.0,519600,270.625
3832,2.0,,,,,39.0,,,,,0,note_on,,95.0,39.0,95.0,519600,270.625
3833,2.0,,,,,39.0,,,,,240,note_off,,95.0,39.0,95.0,519840,270.75
3834,2.0,,,,,59.0,,,,,0,note_on,,95.0,59.0,95.0,519840,270.75
3835,2.0,,,,,52.0,,,,,0,note_on,,95.0,52.0,95.0,519840,270.75
3836,2.0,,,,,59.0,,,,,240,note_off,,95.0,59.0,95.0,520080,270.875
3837,2.0,,,,,52.0,,,,,0,note_off,,95.0,52.0,95.0,520080,270.875
3838,2.0,,,,,58.0,,,,,0,note_on,,95.0,58.0,95.0,520080,270.875
3839,2.0,,,,,51.0,,,,,0,note_on,,95.0,51.0,95.0,520080,270.875
3840,2.0,,,,,58.0,,,,,240,note_off,,95.0,58.0,95.0,520320,271.0
3841,2.0,,,,,51.0,,,,,0,note_off,,95.0,51.0,95.0,520320,271.0
3842,2.0,,,,,57.0,,,,,0,note_on,,95.0,57.0,95.0,520320,271.0
3843,2.0,,,,,50.0,,,,,0,note_on,,95.0,50.0,95.0,520320,271.0
3844,2.0,,,,,57.0,,,,,480,note_off,,95.0,57.0,95.0,520800,271.25
3845,2.0,,,,,50.0,,,,,0,note_off,,95.0,50.0,95.0,520800,271.25
3846,2.0,,,,,39.0,,,,,0,note_on,,95.0,39.0,95.0,520800,271.25
3847,2.0,,,,,39.0,,,,,240,note_off,,95.0,39.0,95.0,521040,271.375
3848,2.0,,,,,39.0,,,,,240,note_on,,95.0,39.0,95.0,521280,271.5
3849,2.0,,,,,39.0,,,,,240,note_off,,95.0,39.0,95.0,521520,271.625
3850,2.0,,,,,39.0,,,,,0,note_on,,95.0,39.0,95.0,521520,271.625
3851,3.0,,,,,49.0,,,,,180,note_on,,95.0,49.0,95.0,521700,271.71875
3852,2.0,,,,,39.0,,,,,60,note_off,,95.0,39.0,95.0,521760,271.75
3853,3.0,,,,,49.0,,,,,0,note_off,,95.0,49.0,95.0,521760,271.75
3854,3.0,,,,,51.0,,,,,0,note_on,,95.0,51.0,95.0,521760,271.75
3855,2.0,,,,,39.0,,,,,0,note_on,,95.0,39.0,95.0,521760,271.75
3856,3.0,,,,,51.0,,,,,960,note_off,,95.0,51.0,95.0,522720,272.25
3857,2.0,,,,,39.0,,,,,0,note_off,,95.0,39.0,95.0,522720,272.25
3858,2.0,,,,,39.0,,,,,0,note_on,,95.0,39.0,95.0,522720,272.25
3859,2.0,,,,,39.0,,,,,240,note_off,,95.0,39.0,95.0,522960,272.375
3860,2.0,,,,,39.0,,,,,0,note_on,,95.0,39.0,95.0,522960,272.375
3861,2.0,,,,,39.0,,,,,240,note_off,,95.0,39.0,95.0,523200,272.5
3862,2.0,,,,,39.0,,,,,0,note_on,,95.0,39.0,95.0,523200,272.5
3863,2.0,,,,,39.0,,,,,240,note_off,,95.0,39.0,95.0,523440,272.625
3864,2.0,,,,,39.0,,,,,0,note_on,,95.0,39.0,95.0,523440,272.625
3865,2.0,,,,,39.0,,,,,240,note_off,,95.0,39.0,95.0,523680,272.75
3866,2.0,,,,,49.0,,,,,0,note_on,,95.0,49.0,95.0,523680,272.75
3867,2.0,,,,,42.0,,,,,0,note_on,,95.0,42.0,95.0,523680,272.75
3868,2.0,,,,,49.0,,,,,240,note_off,,95.0,49.0,95.0,523920,272.875
3869,2.0,,,,,42.0,,,,,0,note_off,,95.0,42.0,95.0,523920,272.875
3870,2.0,,,,,48.0,,,,,0,note_on,,95.0,48.0,95.0,523920,272.875
3871,2.0,,,,,41.0,,,,,0,note_on,,95.0,41.0,95.0,523920,272.875
3872,2.0,,,,,48.0,,,,,240,note_off,,95.0,48.0,95.0,524160,273.0
3873,2.0,,,,,41.0,,,,,0,note_off,,95.0,41.0,95.0,524160,273.0
3874,2.0,,,,,47.0,,,,,0,note_on,,95.0,47.0,95.0,524160,273.0
3875,2.0,,,,,40.0,,,,,0,note_on,,95.0,40.0,95.0,524160,273.0
3876,2.0,,,,,47.0,,,,,480,note_off,,95.0,47.0,95.0,524640,273.25
3877,2.0,,,,,40.0,,,,,0,note_off,,95.0,40.0,95.0,524640,273.25
3878,2.0,,,,,39.0,,,,,0,note_on,,95.0,39.0,95.0,524640,273.25
3879,2.0,,,,,39.0,,,,,240,note_off,,95.0,39.0,95.0,524880,273.375
3880,2.0,,,,,39.0,,,,,240,note_on,,95.0,39.0,95.0,525120,273.5
3881,2.0,,,,,39.0,,,,,240,note_off,,95.0,39.0,95.0,525360,273.625
3882,2.0,,,,,39.0,,,,,0,note_on,,95.0,39.0,95.0,525360,273.625
3883,3.0,,,,,49.0,,,,,180,note_on,,95.0,49.0,95.0,525540,273.71875
3884,2.0,,,,,39.0,,,,,60,note_off,,95.0,39.0,95.0,525600,273.75
3885,3.0,,,,,49.0,,,,,0,note_off,,95.0,49.0,95.0,525600,273.75
3886,3.0,,,,,51.0,,,,,0,note_on,,95.0,51.0,95.0,525600,273.75
3887,2.0,,,,,39.0,,,,,0,note_on,,95.0,39.0,95.0,525600,273.75
3888,3.0,,,,,51.0,,,,,960,note_off,,95.0,51.0,95.0,526560,274.25
3889,2.0,,,,,39.0,,,,,0,note_off,,95.0,39.0,95.0,526560,274.25
3890,2.0,,,,,39.0,,,,,0,note_on,,95.0,39.0,95.0,526560,274.25
3891,2.0,,,,,39.0,,,,,240,note_off,,95.0,39.0,95.0,526800,274.375
3892,2.0,,,,,39.0,,,,,240,note_on,,95.0,39.0,95.0,527040,274.5
3893,2.0,,,,,39.0,,,,,240,note_off,,95.0,39.0,95.0,527280,274.625
3894,2.0,,,,,39.0,,,,,0,note_on,,95.0,39.0,95.0,527280,274.625
3895,2.0,,,,,39.0,,,,,240,note_off,,95.0,39.0,95.0,527520,274.75
3896,2.0,,,,,59.0,,,,,0,note_on,,95.0,59.0,95.0,527520,274.75
3897,2.0,,,,,52.0,,,,,0,note_on,,95.0,52.0,95.0,527520,274.75
3898,2.0,,,,,59.0,,,,,240,note_off,,95.0,59.0,95.0,527760,274.875
3899,2.0,,,,,52.0,,,,,0,note_off,,95.0,52.0,95.0,527760,274.875
3900,2.0,,,,,58.0,,,,,0,note_on,,95.0,58.0,95.0,527760,274.875
3901,2.0,,,,,51.0,,,,,0,note_on,,95.0,51.0,95.0,527760,274.875
3902,2.0,,,,,58.0,,,,,240,note_off,,95.0,58.0,95.0,528000,275.0
3903,2.0,,,,,51.0,,,,,0,note_off,,95.0,51.0,95.0,528000,275.0
3904,2.0,,,,,57.0,,,,,0,note_on,,95.0,57.0,95.0,528000,275.0
3905,2.0,,,,,50.0,,,,,0,note_on,,95.0,50.0,95.0,528000,275.0
3906,2.0,,,,,57.0,,,,,480,note_off,,95.0,57.0,95.0,528480,275.25
3907,2.0,,,,,50.0,,,,,0,note_off,,95.0,50.0,95.0,528480,275.25
3908,2.0,,,,,39.0,,,,,0,note_on,,95.0,39.0,95.0,528480,275.25
3909,2.0,,,,,39.0,,,,,240,note_off,,95.0,39.0,95.0,528720,275.375
3910,2.0,,,,,39.0,,,,,240,note_on,,95.0,39.0,95.0,528960,275.5
3911,2.0,,,,,39.0,,,,,240,note_off,,95.0,39.0,95.0,529200,275.625
3912,2.0,,,,,39.0,,,,,0,note_on,,95.0,39.0,95.0,529200,275.625
3913,3.0,,,,,49.0,,,,,180,note_on,,95.0,49.0,95.0,529380,275.71875
3914,2.0,,,,,39.0,,,,,60,note_off,,95.0,39.0,95.0,529440,275.75
3915,3.0,,,,,49.0,,,,,0,note_off,,95.0,49.0,95.0,529440,275.75
3916,3.0,,,,,51.0,,,,,0,note_on,,95.0,51.0,95.0,529440,275.75
3917,2.0,,,,,39.0,,,,,0,note_on,,95.0,39.0,95.0,529440,275.75
3918,3.0,,,,,51.0,,,,,960,note_off,,95.0,51.0,95.0,530400,276.25
3919,2.0,,,,,39.0,,,,,0,note_off,,95.0,39.0,95.0,530400,276.25
3920,2.0,,,,,39.0,,,,,0,note_on,,95.0,39.0,95.0,530400,276.25
3921,2.0,,,,,39.0,,,,,240,note_off,,95.0,39.0,95.0,530640,276.375
3922,2.0,,,,,39.0,,,,,240,note_on,,95.0,39.0,95.0,530880,276.5
3923,2.0,,,,,39.0,,,,,240,note_off,,95.0,39.0,95.0,531120,276.625
3924,2.0,,,,,39.0,,,,,0,note_on,,95.0,39.0,95.0,531120,276.625
3925,2.0,,,,,39.0,,,,,240,note_off,,95.0,39.0,95.0,531360,276.75
3926,2.0,,,,,61.0,,,,,0,note_on,,95.0,61.0,95.0,531360,276.75
3927,2.0,,,,,54.0,,,,,0,note_on,,95.0,54.0,95.0,531360,276.75
3928,2.0,,,,,61.0,,,,,240,note_off,,95.0,61.0,95.0,531600,276.875
3929,2.0,,,,,54.0,,,,,0,note_off,,95.0,54.0,95.0,531600,276.875
3930,2.0,,,,,60.0,,,,,0,note_on,,95.0,60.0,95.0,531600,276.875
3931,2.0,,,,,53.0,,,,,0,note_on,,95.0,53.0,95.0,531600,276.875
3932,2.0,,,,,60.0,,,,,240,note_off,,95.0,60.0,95.0,531840,277.0
3933,2.0,,,,,53.0,,,,,0,note_off,,95.0,53.0,95.0,531840,277.0
3934,2.0,,,,,59.0,,,,,0,note_on,,95.0,59.0,95.0,531840,277.0
3935,2.0,,,,,52.0,,,,,0,note_on,,95.0,52.0,95.0,531840,277.0
3936,2.0,,,,,59.0,,,,,480,note_off,,95.0,59.0,95.0,532320,277.25
3937,2.0,,,,,52.0,,,,,0,note_off,,95.0,52.0,95.0,532320,277.25
3938,2.0,,,,,39.0,,,,,0,note_on,,95.0,39.0,95.0,532320,277.25
3939,2.0,,,,,39.0,,,,,240,note_off,,95.0,39.0,95.0,532560,277.375
3940,2.0,,,,,39.0,,,,,240,note_on,,95.0,39.0,95.0,532800,277.5
3941,2.0,,,,,39.0,,,,,240,note_off,,95.0,39.0,95.0,533040,277.625
3942,2.0,,,,,39.0,,,,,0,note_on,,95.0,39.0,95.0,533040,277.625
3943,3.0,,,,,49.0,,,,,180,note_on,,95.0,49.0,95.0,533220,277.71875
3944,2.0,,,,,39.0,,,,,60,note_off,,95.0,39.0,95.0,533280,277.75
3945,3.0,,,,,49.0,,,,,0,note_off,,95.0,49.0,95.0,533280,277.75
3946,3.0,,,,,51.0,,,,,0,note_on,,95.0,51.0,95.0,533280,277.75
3947,2.0,,,,,39.0,,,,,0,note_on,,95.0,39.0,95.0,533280,277.75
3948,3.0,,,,,51.0,,,,,960,note_off,,95.0,51.0,95.0,534240,278.25
3949,2.0,,,,,39.0,,,,,0,note_off,,95.0,39.0,95.0,534240,278.25
3950,2.0,,,,,39.0,,,,,0,note_on,,95.0,39.0,95.0,534240,278.25
3951,2.0,,,,,39.0,,,,,240,note_off,,95.0,39.0,95.0,534480,278.375
3952,2.0,,,,,39.0,,,,,240,note_on,,95.0,39.0,95.0,534720,278.5
3953,2.0,,,,,39.0,,,,,240,note_off,,95.0,39.0,95.0,534960,278.625
3954,2.0,,,,,39.0,,,,,0,note_on,,95.0,39.0,95.0,534960,278.625
3955,2.0,,,,,39.0,,,,,240,note_off,,95.0,39.0,95.0,535200,278.75
3956,2.0,,,,,59.0,,,,,0,note_on,,95.0,59.0,95.0,535200,278.75
3957,2.0,,,,,52.0,,,,,0,note_on,,95.0,52.0,95.0,535200,278.75
3958,2.0,,,,,59.0,,,,,240,note_off,,95.0,59.0,95.0,535440,278.875
3959,2.0,,,,,52.0,,,,,0,note_off,,95.0,52.0,95.0,535440,278.875
3960,2.0,,,,,58.0,,,,,0,note_on,,95.0,58.0,95.0,535440,278.875
3961,2.0,,,,,51.0,,,,,0,note_on,,95.0,51.0,95.0,535440,278.875
3962,2.0,,,,,58.0,,,,,240,note_off,,95.0,58.0,95.0,535680,279.0
3963,2.0,,,,,51.0,,,,,0,note_off,,95.0,51.0,95.0,535680,279.0
3964,2.0,,,,,57.0,,,,,0,note_on,,95.0,57.0,95.0,535680,279.0
3965,2.0,,,,,50.0,,,,,0,note_on,,95.0,50.0,95.0,535680,279.0
3966,2.0,,,,,57.0,,,,,480,note_off,,95.0,57.0,95.0,536160,279.25
3967,2.0,,,,,50.0,,,,,0,note_off,,95.0,50.0,95.0,536160,279.25
3968,2.0,,,,,39.0,,,,,0,note_on,,95.0,39.0,95.0,536160,279.25
3969,2.0,,,,,39.0,,,,,240,note_off,,95.0,39.0,95.0,536400,279.375
3970,2.0,,,,,39.0,,,,,240,note_on,,95.0,39.0,95.0,536640,279.5
3971,2.0,,,,,39.0,,,,,240,note_off,,95.0,39.0,95.0,536880,279.625
3972,2.0,,,,,39.0,,,,,0,note_on,,95.0,39.0,95.0,536880,279.625
3973,3.0,,,,,49.0,,,,,180,note_on,,95.0,49.0,95.0,537060,279.71875
3974,2.0,,,,,39.0,,,,,60,note_off,,95.0,39.0,95.0,537120,279.75
3975,3.0,,,,,49.0,,,,,0,note_off,,95.0,49.0,95.0,537120,279.75
3976,3.0,,,,,51.0,,,,,0,note_on,,95.0,51.0,95.0,537120,279.75
3977,2.0,,,,,39.0,,,,,0,note_on,,95.0,39.0,95.0,537120,279.75
3978,3.0,,,,,51.0,,,,,960,note_off,,95.0,51.0,95.0,538080,280.25
3979,2.0,,,,,39.0,,,,,0,note_off,,95.0,39.0,95.0,538080,280.25
3980,2.0,,,,,39.0,,,,,0,note_on,,95.0,39.0,95.0,538080,280.25
3981,2.0,,,,,39.0,,,,,240,note_off,,95.0,39.0,95.0,538320,280.375
3982,2.0,,,,,39.0,,,,,0,note_on,,95.0,39.0,95.0,538320,280.375
3983,2.0,,,,,39.0,,,,,240,note_off,,95.0,39.0,95.0,538560,280.5
3984,2.0,,,,,39.0,,,,,0,note_on,,95.0,39.0,95.0,538560,280.5
3985,2.0,,,,,39.0,,,,,240,note_off,,95.0,39.0,95.0,538800,280.625
3986,2.0,,,,,39.0,,,,,0,note_on,,95.0,39.0,95.0,538800,280.625
3987,2.0,,,,,39.0,,,,,240,note_off,,95.0,39.0,95.0,539040,280.75
3988,2.0,,,,,49.0,,,,,0,note_on,,95.0,49.0,95.0,539040,280.75
3989,2.0,,,,,42.0,,,,,0,note_on,,95.0,42.0,95.0,539040,280.75
3990,2.0,,,,,49.0,,,,,240,note_off,,95.0,49.0,95.0,539280,280.875
3991,2.0,,,,,42.0,,,,,0,note_off,,95.0,42.0,95.0,539280,280.875
3992,2.0,,,,,48.0,,,,,0,note_on,,95.0,48.0,95.0,539280,280.875
3993,2.0,,,,,41.0,,,,,0,note_on,,95.0,41.0,95.0,539280,280.875
3994,2.0,,,,,48.0,,,,,240,note_off,,95.0,48.0,95.0,539520,281.0
3995,2.0,,,,,41.0,,,,,0,note_off,,95.0,41.0,95.0,539520,281.0
3996,2.0,,,,,47.0,,,,,0,note_on,,95.0,47.0,95.0,539520,281.0
3997,2.0,,,,,40.0,,,,,0,note_on,,95.0,40.0,95.0,539520,281.0
3998,2.0,,,,,47.0,,,,,480,note_off,,95.0,47.0,95.0,540000,281.25
3999,2.0,,,,,40.0,,,,,0,note_off,,95.0,40.0,95.0,540000,281.25
4000,2.0,,,,,39.0,,,,,0,note_on,,95.0,39.0,95.0,540000,281.25
4001,2.0,,,,,39.0,,,,,240,note_off,,95.0,39.0,95.0,540240,281.375
4002,2.0,,,,,39.0,,,,,240,note_on,,95.0,39.0,95.0,540480,281.5
4003,2.0,,,,,39.0,,,,,240,note_off,,95.0,39.0,95.0,540720,281.625
4004,2.0,,,,,39.0,,,,,0,note_on,,95.0,39.0,95.0,540720,281.625
4005,3.0,,,,,49.0,,,,,180,note_on,,95.0,49.0,95.0,540900,281.71875
4006,2.0,,,,,39.0,,,,,60,note_off,,95.0,39.0,95.0,540960,281.75
4007,3.0,,,,,49.0,,,,,0,note_off,,95.0,49.0,95.0,540960,281.75
4008,3.0,,,,,51.0,,,,,0,note_on,,95.0,51.0,95.0,540960,281.75
4009,2.0,,,,,39.0,,,,,0,note_on,,95.0,39.0,95.0,540960,281.75
4010,3.0,,,,,51.0,,,,,960,note_off,,95.0,51.0,95.0,541920,282.25
4011,2.0,,,,,39.0,,,,,0,note_off,,95.0,39.0,95.0,541920,282.25
4012,2.0,,,,,39.0,,,,,0,note_on,,95.0,39.0,95.0,541920,282.25
4013,2.0,,,,,39.0,,,,,240,note_off,,95.0,39.0,95.0,542160,282.375
4014,2.0,,,,,39.0,,,,,240,note_on,,95.0,39.0,95.0,542400,282.5
4015,2.0,,,,,39.0,,,,,240,note_off,,95.0,39.0,95.0,542640,282.625
4016,2.0,,,,,39.0,,,,,0,note_on,,95.0,39.0,95.0,542640,282.625
4017,2.0,,,,,39.0,,,,,240,note_off,,95.0,39.0,95.0,542880,282.75
4018,2.0,,,,,59.0,,,,,0,note_on,,95.0,59.0,95.0,542880,282.75
4019,2.0,,,,,52.0,,,,,0,note_on,,95.0,52.0,95.0,542880,282.75
4020,2.0,,,,,59.0,,,,,240,note_off,,95.0,59.0,95.0,543120,282.875
4021,2.0,,,,,52.0,,,,,0,note_off,,95.0,52.0,95.0,543120,282.875
4022,2.0,,,,,58.0,,,,,0,note_on,,95.0,58.0,95.0,543120,282.875
4023,2.0,,,,,51.0,,,,,0,note_on,,95.0,51.0,95.0,543120,282.875
4024,2.0,,,,,58.0,,,,,240,note_off,,95.0,58.0,95.0,543360,283.0
4025,2.0,,,,,51.0,,,,,0,note_off,,95.0,51.0,95.0,543360,283.0
4026,2.0,,,,,57.0,,,,,0,note_on,,95.0,57.0,95.0,543360,283.0
4027,2.0,,,,,50.0,,,,,0,note_on,,95.0,50.0,95.0,543360,283.0
4028,2.0,,,,,57.0,,,,,480,note_off,,95.0,57.0,95.0,543840,283.25
4029,2.0,,,,,50.0,,,,,0,note_off,,95.0,50.0,95.0,543840,283.25
4030,2.0,,,,,39.0,,,,,0,note_on,,95.0,39.0,95.0,543840,283.25
4031,2.0,,,,,39.0,,,,,240,note_off,,95.0,39.0,95.0,544080,283.375
4032,2.0,,,,,39.0,,,,,240,note_on,,95.0,39.0,95.0,544320,283.5
4033,2.0,,,,,39.0,,,,,240,note_off,,95.0,39.0,95.0,544560,283.625
4034,2.0,,,,,39.0,,,,,0,note_on,,95.0,39.0,95.0,544560,283.625
4035,3.0,,,,,49.0,,,,,180,note_on,,95.0,49.0,95.0,544740,283.71875
4036,2.0,,,,,39.0,,,,,60,note_off,,95.0,39.0,95.0,544800,283.75
4037,3.0,,,,,49.0,,,,,0,note_off,,95.0,49.0,95.0,544800,283.75
4038,3.0,,,,,51.0,,,,,0,note_on,,95.0,51.0,95.0,544800,283.75
4039,2.0,,,,,39.0,,,,,0,note_on,,95.0,39.0,95.0,544800,283.75
4040,3.0,,,,,51.0,,,,,960,note_off,,95.0,51.0,95.0,545760,284.25
4041,2.0,,,,,39.0,,,,,0,note_off,,95.0,39.0,95.0,545760,284.25
4042,2.0,,,,,39.0,,,,,0,note_on,,95.0,39.0,95.0,545760,284.25
4043,2.0,,,,,39.0,,,,,240,note_off,,95.0,39.0,95.0,546000,284.375
4044,2.0,,,,,39.0,,,,,240,note_on,,95.0,39.0,95.0,546240,284.5
4045,2.0,,,,,39.0,,,,,240,note_off,,95.0,39.0,95.0,546480,284.625
4046,2.0,,,,,39.0,,,,,0,note_on,,95.0,39.0,95.0,546480,284.625
4047,2.0,,,,,39.0,,,,,240,note_off,,95.0,39.0,95.0,546720,284.75
4048,2.0,,,,,61.0,,,,,0,note_on,,95.0,61.0,95.0,546720,284.75
4049,2.0,,,,,54.0,,,,,0,note_on,,95.0,54.0,95.0,546720,284.75
4050,2.0,,,,,61.0,,,,,240,note_off,,95.0,61.0,95.0,546960,284.875
4051,2.0,,,,,54.0,,,,,0,note_off,,95.0,54.0,95.0,546960,284.875
4052,2.0,,,,,60.0,,,,,0,note_on,,95.0,60.0,95.0,546960,284.875
4053,2.0,,,,,53.0,,,,,0,note_on,,95.0,53.0,95.0,546960,284.875
4054,2.0,,,,,60.0,,,,,240,note_off,,95.0,60.0,95.0,547200,285.0
4055,2.0,,,,,53.0,,,,,0,note_off,,95.0,53.0,95.0,547200,285.0
4056,2.0,,,,,59.0,,,,,0,note_on,,95.0,59.0,95.0,547200,285.0
4057,2.0,,,,,52.0,,,,,0,note_on,,95.0,52.0,95.0,547200,285.0
4058,2.0,,,,,59.0,,,,,480,note_off,,95.0,59.0,95.0,547680,285.25
4059,2.0,,,,,52.0,,,,,0,note_off,,95.0,52.0,95.0,547680,285.25
4060,2.0,,,,,39.0,,,,,0,note_on,,95.0,39.0,95.0,547680,285.25
4061,2.0,,,,,39.0,,,,,240,note_off,,95.0,39.0,95.0,547920,285.375
4062,2.0,,,,,39.0,,,,,240,note_on,,95.0,39.0,95.0,548160,285.5
4063,2.0,,,,,39.0,,,,,240,note_off,,95.0,39.0,95.0,548400,285.625
4064,2.0,,,,,39.0,,,,,0,note_on,,95.0,39.0,95.0,548400,285.625
4065,3.0,,,,,49.0,,,,,180,note_on,,95.0,49.0,95.0,548580,285.71875
4066,2.0,,,,,39.0,,,,,60,note_off,,95.0,39.0,95.0,548640,285.75
4067,3.0,,,,,49.0,,,,,0,note_off,,95.0,49.0,95.0,548640,285.75
4068,3.0,,,,,51.0,,,,,0,note_on,,95.0,51.0,95.0,548640,285.75
4069,2.0,,,,,39.0,,,,,0,note_on,,95.0,39.0,95.0,548640,285.75
4070,3.0,,,,,51.0,,,,,960,note_off,,95.0,51.0,95.0,549600,286.25
4071,2.0,,,,,39.0,,,,,0,note_off,,95.0,39.0,95.0,549600,286.25
4072,2.0,,,,,39.0,,,,,0,note_on,,95.0,39.0,95.0,549600,286.25
4073,2.0,,,,,39.0,,,,,240,note_off,,95.0,39.0,95.0,549840,286.375
4074,2.0,,,,,39.0,,,,,240,note_on,,95.0,39.0,95.0,550080,286.5
4075,2.0,,,,,39.0,,,,,240,note_off,,95.0,39.0,95.0,550320,286.625
4076,2.0,,,,,39.0,,,,,0,note_on,,95.0,39.0,95.0,550320,286.625
4077,2.0,,,,,39.0,,,,,240,note_off,,95.0,39.0,95.0,550560,286.75
4078,2.0,,,,,59.0,,,,,0,note_on,,95.0,59.0,95.0,550560,286.75
4079,2.0,,,,,52.0,,,,,0,note_on,,95.0,52.0,95.0,550560,286.75
4080,2.0,,,,,59.0,,,,,240,note_off,,95.0,59.0,95.0,550800,286.875
4081,2.0,,,,,52.0,,,,,0,note_off,,95.0,52.0,95.0,550800,286.875
4082,2.0,,,,,58.0,,,,,0,note_on,,95.0,58.0,95.0,550800,286.875
4083,2.0,,,,,51.0,,,,,0,note_on,,95.0,51.0,95.0,550800,286.875
4084,2.0,,,,,58.0,,,,,240,note_off,,95.0,58.0,95.0,551040,287.0
4085,2.0,,,,,51.0,,,,,0,note_off,,95.0,51.0,95.0,551040,287.0
4086,2.0,,,,,57.0,,,,,0,note_on,,95.0,57.0,95.0,551040,287.0
4087,2.0,,,,,50.0,,,,,0,note_on,,95.0,50.0,95.0,551040,287.0
4088,2.0,,,,,57.0,,,,,480,note_off,,95.0,57.0,95.0,551520,287.25
4089,2.0,,,,,50.0,,,,,0,note_off,,95.0,50.0,95.0,551520,287.25
4090,2.0,,,,,39.0,,,,,0,note_on,,95.0,39.0,95.0,551520,287.25
4091,2.0,,,,,39.0,,,,,240,note_off,,95.0,39.0,95.0,551760,287.375
4092,2.0,,,,,39.0,,,,,240,note_on,,95.0,39.0,95.0,552000,287.5
4093,2.0,,,,,39.0,,,,,240,note_off,,95.0,39.0,95.0,552240,287.625
4094,2.0,,,,,39.0,,,,,0,note_on,,95.0,39.0,95.0,552240,287.625
4095,3.0,,,,,49.0,,,,,180,note_on,,95.0,49.0,95.0,552420,287.71875
4096,2.0,,,,,39.0,,,,,60,note_off,,95.0,39.0,95.0,552480,287.75
4097,3.0,,,,,49.0,,,,,0,note_off,,95.0,49.0,95.0,552480,287.75
4098,3.0,,,,,51.0,,,,,0,note_on,,95.0,51.0,95.0,552480,287.75
4099,2.0,,,,,39.0,,,,,0,note_on,,95.0,39.0,95.0,552480,287.75
4100,3.0,,,,,51.0,,,,,960,note_off,,95.0,51.0,95.0,553440,288.25
4101,2.0,,,,,39.0,,,,,0,note_off,,95.0,39.0,95.0,553440,288.25
4102,2.0,,,,,39.0,,,,,0,note_on,,95.0,39.0,95.0,553440,288.25
4103,2.0,,,,,39.0,,,,,240,note_off,,95.0,39.0,95.0,553680,288.375
4104,2.0,,,,,39.0,,,,,0,note_on,,95.0,39.0,95.0,553680,288.375
4105,2.0,,,,,39.0,,,,,240,note_off,,95.0,39.0,95.0,553920,288.5
4106,2.0,,,,,39.0,,,,,0,note_on,,95.0,39.0,95.0,553920,288.5
4107,2.0,,,,,39.0,,,,,240,note_off,,95.0,39.0,95.0,554160,288.625
4108,2.0,,,,,39.0,,,,,0,note_on,,95.0,39.0,95.0,554160,288.625
4109,2.0,,,,,39.0,,,,,240,note_off,,95.0,39.0,95.0,554400,288.75
4110,2.0,,,,,49.0,,,,,0,note_on,,95.0,49.0,95.0,554400,288.75
4111,2.0,,,,,42.0,,,,,0,note_on,,95.0,42.0,95.0,554400,288.75
4112,2.0,,,,,49.0,,,,,240,note_off,,95.0,49.0,95.0,554640,288.875
4113,2.0,,,,,42.0,,,,,0,note_off,,95.0,42.0,95.0,554640,288.875
4114,2.0,,,,,48.0,,,,,0,note_on,,95.0,48.0,95.0,554640,288.875
4115,2.0,,,,,41.0,,,,,0,note_on,,95.0,41.0,95.0,554640,288.875
4116,2.0,,,,,48.0,,,,,240,note_off,,95.0,48.0,95.0,554880,289.0
4117,2.0,,,,,41.0,,,,,0,note_off,,95.0,41.0,95.0,554880,289.0
4118,2.0,,,,,47.0,,,,,0,note_on,,95.0,47.0,95.0,554880,289.0
4119,2.0,,,,,40.0,,,,,0,note_on,,95.0,40.0,95.0,554880,289.0
4120,2.0,,,,,47.0,,,,,480,note_off,,95.0,47.0,95.0,555360,289.25
4121,2.0,,,,,40.0,,,,,0,note_off,,95.0,40.0,95.0,555360,289.25
4122,2.0,,,,,48.0,,,,,0,note_on,,95.0,48.0,95.0,555360,289.25
4123,2.0,,,,,41.0,,,,,0,note_on,,95.0,41.0,95.0,555360,289.25
4124,2.0,,,,,48.0,,,,,2880,note_off,,95.0,48.0,95.0,558240,290.75
4125,2.0,,,,,41.0,,,,,0,note_off,,95.0,41.0,95.0,558240,290.75
4126,2.0,,,,,49.0,,,,,0,note_on,,95.0,49.0,95.0,558240,290.75
4127,2.0,,,,,42.0,,,,,0,note_on,,95.0,42.0,95.0,558240,290.75
4128,2.0,,,,,49.0,,,,,960,note_off,,95.0,49.0,95.0,559200,291.25
4129,2.0,,,,,42.0,,,,,0,note_off,,95.0,42.0,95.0,559200,291.25
4130,2.0,,,,,39.0,,,,,0,note_on,,95.0,39.0,95.0,559200,291.25
4131,2.0,,,,,39.0,,,,,240,note_off,,95.0,39.0,95.0,559440,291.375
4132,2.0,,,,,39.0,,,,,0,note_on,,95.0,39.0,95.0,559440,291.375
4133,2.0,,,,,39.0,,,,,240,note_off,,95.0,39.0,95.0,559680,291.5
4134,2.0,,,,,39.0,,,,,0,note_on,,95.0,39.0,95.0,559680,291.5
4135,2.0,,,,,39.0,,,,,240,note_off,,95.0,39.0,95.0,559920,291.625
4136,2.0,,,,,39.0,,,,,0,note_on,,95.0,39.0,95.0,559920,291.625
4137,2.0,,,,,39.0,,,,,240,note_off,,95.0,39.0,95.0,560160,291.75
4138,2.0,,,,,39.0,,,,,0,note_on,,95.0,39.0,95.0,560160,291.75
4139,2.0,,,,,39.0,,,,,240,note_off,,95.0,39.0,95.0,560400,291.875
4140,2.0,,,,,39.0,,,,,0,note_on,,95.0,39.0,95.0,560400,291.875
4141,2.0,,,,,39.0,,,,,240,note_off,,95.0,39.0,95.0,560640,292.0
4142,2.0,,,,,39.0,,,,,0,note_on,,95.0,39.0,95.0,560640,292.0
4143,2.0,,,,,39.0,,,,,240,note_off,,95.0,39.0,95.0,560880,292.125
4144,2.0,,,,,39.0,,,,,0,note_on,,95.0,39.0,95.0,560880,292.125
4145,2.0,,,,,39.0,,,,,240,note_off,,95.0,39.0,95.0,561120,292.25
4146,2.0,,,,,39.0,,,,,0,note_on,,95.0,39.0,95.0,561120,292.25
4147,2.0,,,,,39.0,,,,,240,note_off,,95.0,39.0,95.0,561360,292.375
4148,2.0,,,,,39.0,,,,,0,note_on,,95.0,39.0,95.0,561360,292.375
4149,2.0,,,,,39.0,,,,,240,note_off,,95.0,39.0,95.0,561600,292.5
4150,2.0,,,,,49.0,,,,,0,note_on,,95.0,49.0,95.0,561600,292.5
4151,2.0,,,,,42.0,,,,,0,note_on,,95.0,42.0,95.0,561600,292.5
4152,2.0,,,,,49.0,,,,,480,note_off,,95.0,49.0,95.0,562080,292.75
4153,2.0,,,,,42.0,,,,,0,note_off,,95.0,42.0,95.0,562080,292.75
4154,2.0,,,,,39.0,,,,,0,note_on,,95.0,39.0,95.0,562080,292.75
4155,2.0,,,,,39.0,,,,,240,note_off,,95.0,39.0,95.0,562320,292.875
4156,2.0,,,,,39.0,,,,,0,note_on,,95.0,39.0,95.0,562320,292.875
4157,2.0,,,,,39.0,,,,,240,note_off,,95.0,39.0,95.0,562560,293.0
4158,2.0,,,,,49.0,,,,,0,note_on,,95.0,49.0,95.0,562560,293.0
4159,2.0,,,,,42.0,,,,,0,note_on,,95.0,42.0,95.0,562560,293.0
4160,2.0,,,,,49.0,,,,,480,note_off,,95.0,49.0,95.0,563040,293.25
4161,2.0,,,,,42.0,,,,,0,note_off,,95.0,42.0,95.0,563040,293.25
4162,2.0,,,,,48.0,,,,,0,note_on,,95.0,48.0,95.0,563040,293.25
4163,2.0,,,,,41.0,,,,,0,note_on,,95.0,41.0,95.0,563040,293.25
4164,2.0,,,,,48.0,,,,,2880,note_off,,95.0,48.0,95.0,565920,294.75
4165,2.0,,,,,41.0,,,,,0,note_off,,95.0,41.0,95.0,565920,294.75
4166,2.0,,,,,52.0,,,,,0,note_on,,95.0,52.0,95.0,565920,294.75
4167,2.0,,,,,45.0,,,,,0,note_on,,95.0,45.0,95.0,565920,294.75
4168,2.0,,,,,52.0,,,,,960,note_off,,95.0,52.0,95.0,566880,295.25
4169,2.0,,,,,45.0,,,,,0,note_off,,95.0,45.0,95.0,566880,295.25
4170,2.0,,,,,39.0,,,,,0,note_on,,95.0,39.0,95.0,566880,295.25
4171,2.0,,,,,39.0,,,,,240,note_off,,95.0,39.0,95.0,567120,295.375
4172,2.0,,,,,39.0,,,,,0,note_on,,95.0,39.0,95.0,567120,295.375
4173,2.0,,,,,39.0,,,,,240,note_off,,95.0,39.0,95.0,567360,295.5
4174,2.0,,,,,39.0,,,,,0,note_on,,95.0,39.0,95.0,567360,295.5
4175,2.0,,,,,39.0,,,,,240,note_off,,95.0,39.0,95.0,567600,295.625
4176,2.0,,,,,39.0,,,,,0,note_on,,95.0,39.0,95.0,567600,295.625
4177,2.0,,,,,39.0,,,,,240,note_off,,95.0,39.0,95.0,567840,295.75
4178,2.0,,,,,39.0,,,,,0,note_on,,95.0,39.0,95.0,567840,295.75
4179,2.0,,,,,39.0,,,,,240,note_off,,95.0,39.0,95.0,568080,295.875
4180,2.0,,,,,39.0,,,,,0,note_on,,95.0,39.0,95.0,568080,295.875
4181,2.0,,,,,39.0,,,,,240,note_off,,95.0,39.0,95.0,568320,296.0
4182,2.0,,,,,39.0,,,,,0,note_on,,95.0,39.0,95.0,568320,296.0
4183,2.0,,,,,39.0,,,,,240,note_off,,95.0,39.0,95.0,568560,296.125
4184,2.0,,,,,39.0,,,,,0,note_on,,95.0,39.0,95.0,568560,296.125
4185,2.0,,,,,39.0,,,,,240,note_off,,95.0,39.0,95.0,568800,296.25
4186,2.0,,,,,39.0,,,,,0,note_on,,95.0,39.0,95.0,568800,296.25
4187,2.0,,,,,39.0,,,,,240,note_off,,95.0,39.0,95.0,569040,296.375
4188,2.0,,,,,39.0,,,,,0,note_on,,95.0,39.0,95.0,569040,296.375
4189,2.0,,,,,39.0,,,,,240,note_off,,95.0,39.0,95.0,569280,296.5
4190,2.0,,,,,46.0,,,,,0,note_on,,95.0,46.0,95.0,569280,296.5
4191,2.0,,,,,39.0,,,,,0,note_on,,95.0,39.0,95.0,569280,296.5
4192,2.0,,,,,46.0,,,,,480,note_off,,95.0,46.0,95.0,569760,296.75
4193,2.0,,,,,39.0,,,,,0,note_off,,95.0,39.0,95.0,569760,296.75
4194,2.0,,,,,39.0,,,,,0,note_on,,95.0,39.0,95.0,569760,296.75
4195,2.0,,,,,39.0,,,,,240,note_off,,95.0,39.0,95.0,570000,296.875
4196,2.0,,,,,39.0,,,,,0,note_on,,95.0,39.0,95.0,570000,296.875
4197,2.0,,,,,39.0,,,,,240,note_off,,95.0,39.0,95.0,570240,297.0
4198,2.0,,,,,47.0,,,,,0,note_on,,95.0,47.0,95.0,570240,297.0
4199,2.0,,,,,40.0,,,,,0,note_on,,95.0,40.0,95.0,570240,297.0
4200,2.0,,,,,47.0,,,,,480,note_off,,95.0,47.0,95.0,570720,297.25
4201,2.0,,,,,40.0,,,,,0,note_off,,95.0,40.0,95.0,570720,297.25
4202,2.0,,,,,48.0,,,,,0,note_on,,95.0,48.0,95.0,570720,297.25
4203,2.0,,,,,41.0,,,,,0,note_on,,95.0,41.0,95.0,570720,297.25
4204,2.0,,,,,48.0,,,,,2880,note_off,,95.0,48.0,95.0,573600,298.75
4205,2.0,,,,,41.0,,,,,0,note_off,,95.0,41.0,95.0,573600,298.75
4206,2.0,,,,,49.0,,,,,0,note_on,,95.0,49.0,95.0,573600,298.75
4207,2.0,,,,,42.0,,,,,0,note_on,,95.0,42.0,95.0,573600,298.75
4208,2.0,,,,,49.0,,,,,960,note_off,,95.0,49.0,95.0,574560,299.25
4209,2.0,,,,,42.0,,,,,0,note_off,,95.0,42.0,95.0,574560,299.25
4210,2.0,,,,,39.0,,,,,0,note_on,,95.0,39.0,95.0,574560,299.25
4211,2.0,,,,,39.0,,,,,240,note_off,,95.0,39.0,95.0,574800,299.375
4212,2.0,,,,,39.0,,,,,0,note_on,,95.0,39.0,95.0,574800,299.375
4213,2.0,,,,,39.0,,,,,240,note_off,,95.0,39.0,95.0,575040,299.5
4214,2.0,,,,,39.0,,,,,0,note_on,,95.0,39.0,95.0,575040,299.5
4215,2.0,,,,,39.0,,,,,240,note_off,,95.0,39.0,95.0,575280,299.625
4216,2.0,,,,,39.0,,,,,0,note_on,,95.0,39.0,95.0,575280,299.625
4217,2.0,,,,,39.0,,,,,240,note_off,,95.0,39.0,95.0,575520,299.75
4218,2.0,,,,,39.0,,,,,0,note_on,,95.0,39.0,95.0,575520,299.75
4219,2.0,,,,,39.0,,,,,240,note_off,,95.0,39.0,95.0,575760,299.875
4220,2.0,,,,,39.0,,,,,0,note_on,,95.0,39.0,95.0,575760,299.875
4221,2.0,,,,,39.0,,,,,240,note_off,,95.0,39.0,95.0,576000,300.0
4222,2.0,,,,,39.0,,,,,0,note_on,,95.0,39.0,95.0,576000,300.0
4223,2.0,,,,,39.0,,,,,240,note_off,,95.0,39.0,95.0,576240,300.125
4224,2.0,,,,,39.0,,,,,0,note_on,,95.0,39.0,95.0,576240,300.125
4225,2.0,,,,,39.0,,,,,240,note_off,,95.0,39.0,95.0,576480,300.25
4226,2.0,,,,,39.0,,,,,0,note_on,,95.0,39.0,95.0,576480,300.25
4227,2.0,,,,,39.0,,,,,240,note_off,,95.0,39.0,95.0,576720,300.375
4228,2.0,,,,,39.0,,,,,0,note_on,,95.0,39.0,95.0,576720,300.375
4229,2.0,,,,,39.0,,,,,240,note_off,,95.0,39.0,95.0,576960,300.5
4230,2.0,,,,,49.0,,,,,0,note_on,,95.0,49.0,95.0,576960,300.5
4231,2.0,,,,,42.0,,,,,0,note_on,,95.0,42.0,95.0,576960,300.5
4232,2.0,,,,,49.0,,,,,480,note_off,,95.0,49.0,95.0,577440,300.75
4233,2.0,,,,,42.0,,,,,0,note_off,,95.0,42.0,95.0,577440,300.75
4234,2.0,,,,,39.0,,,,,0,note_on,,95.0,39.0,95.0,577440,300.75
4235,2.0,,,,,39.0,,,,,240,note_off,,95.0,39.0,95.0,577680,300.875
4236,2.0,,,,,39.0,,,,,0,note_on,,95.0,39.0,95.0,577680,300.875
4237,2.0,,,,,39.0,,,,,240,note_off,,95.0,39.0,95.0,577920,301.0
4238,2.0,,,,,49.0,,,,,0,note_on,,95.0,49.0,95.0,577920,301.0
4239,2.0,,,,,42.0,,,,,0,note_on,,95.0,42.0,95.0,577920,301.0
4240,2.0,,,,,49.0,,,,,480,note_off,,95.0,49.0,95.0,578400,301.25
4241,2.0,,,,,42.0,,,,,0,note_off,,95.0,42.0,95.0,578400,301.25
4242,2.0,,,,,48.0,,,,,0,note_on,,95.0,48.0,95.0,578400,301.25
4243,2.0,,,,,41.0,,,,,0,note_on,,95.0,41.0,95.0,578400,301.25
4244,2.0,,,,,48.0,,,,,1920,note_off,,95.0,48.0,95.0,580320,302.25
4245,2.0,,,,,41.0,,,,,0,note_off,,95.0,41.0,95.0,580320,302.25
4246,2.0,,,,,51.0,,,,,0,note_on,,95.0,51.0,95.0,580320,302.25
4247,2.0,,,,,44.0,,,,,0,note_on,,95.0,44.0,95.0,580320,302.25
4248,2.0,,,,,51.0,,,,,960,note_off,,95.0,51.0,95.0,581280,302.75
4249,2.0,,,,,44.0,,,,,0,note_off,,95.0,44.0,95.0,581280,302.75
4250,2.0,,,,,50.0,,,,,0,note_on,,95.0,50.0,95.0,581280,302.75
4251,2.0,,,,,43.0,,,,,0,note_on,,95.0,43.0,95.0,581280,302.75
4252,2.0,,,,,50.0,,,,,480,note_off,,95.0,50.0,95.0,581760,303.0
4253,2.0,,,,,43.0,,,,,0,note_off,,95.0,43.0,95.0,581760,303.0
4254,2.0,,,,,49.0,,,,,0,note_on,,95.0,49.0,95.0,581760,303.0
4255,2.0,,,,,42.0,,,,,0,note_on,,95.0,42.0,95.0,581760,303.0
4256,2.0,,,,,49.0,,,,,480,note_off,,95.0,49.0,95.0,582240,303.25
4257,2.0,,,,,42.0,,,,,0,note_off,,95.0,42.0,95.0,582240,303.25
4258,2.0,,,,,39.0,,,,,0,note_on,,95.0,39.0,95.0,582240,303.25
4259,2.0,,,,,39.0,,,,,240,note_off,,95.0,39.0,95.0,582480,303.375
4260,2.0,,,,,39.0,,,,,0,note_on,,95.0,39.0,95.0,582480,303.375
4261,2.0,,,,,39.0,,,,,240,note_off,,95.0,39.0,95.0,582720,303.5
4262,2.0,,,,,39.0,,,,,240,note_on,,95.0,39.0,95.0,582960,303.625
4263,3.0,,,,,49.0,,,,,180,note_on,,95.0,49.0,95.0,583140,303.71875
4264,2.0,,,,,39.0,,,,,60,note_off,,95.0,39.0,95.0,583200,303.75
4265,3.0,,,,,49.0,,,,,0,note_off,,95.0,49.0,95.0,583200,303.75
4266,3.0,,,,,51.0,,,,,0,note_on,,95.0,51.0,95.0,583200,303.75
4267,2.0,,,,,39.0,,,,,0,note_on,,95.0,39.0,95.0,583200,303.75
4268,3.0,,,,,51.0,,,,,480,note_off,,95.0,51.0,95.0,583680,304.0
4269,2.0,,,,,39.0,,,,,0,note_off,,95.0,39.0,95.0,583680,304.0
4270,2.0,,,,,39.0,,,,,0,note_on,,95.0,39.0,95.0,583680,304.0
4271,2.0,,,,,39.0,,,,,240,note_off,,95.0,39.0,95.0,583920,304.125
4272,2.0,,,,,39.0,,,,,0,note_on,,95.0,39.0,95.0,583920,304.125
4273,2.0,,,,,39.0,,,,,240,note_off,,95.0,39.0,95.0,584160,304.25
4274,2.0,,,,,39.0,,,,,240,note_on,,95.0,39.0,95.0,584400,304.375
4275,2.0,,,,,39.0,,,,,240,note_off,,95.0,39.0,95.0,584640,304.5
4276,2.0,,,,,59.0,,,,,0,note_on,,95.0,59.0,95.0,584640,304.5
4277,2.0,,,,,52.0,,,,,0,note_on,,95.0,52.0,95.0,584640,304.5
4278,2.0,,,,,59.0,,,,,480,note_off,,95.0,59.0,95.0,585120,304.75
4279,2.0,,,,,52.0,,,,,0,note_off,,95.0,52.0,95.0,585120,304.75
4280,2.0,,,,,39.0,,,,,0,note_on,,95.0,39.0,95.0,585120,304.75
4281,2.0,,,,,39.0,,,,,240,note_off,,95.0,39.0,95.0,585360,304.875
4282,2.0,,,,,39.0,,,,,0,note_on,,95.0,39.0,95.0,585360,304.875
4283,2.0,,,,,39.0,,,,,240,note_off,,95.0,39.0,95.0,585600,305.0
4284,2.0,,,,,57.0,,,,,0,note_on,,95.0,57.0,95.0,585600,305.0
4285,2.0,,,,,50.0,,,,,0,note_on,,95.0,50.0,95.0,585600,305.0
4286,2.0,,,,,57.0,,,,,480,note_off,,95.0,57.0,95.0,586080,305.25
4287,2.0,,,,,50.0,,,,,0,note_off,,95.0,50.0,95.0,586080,305.25
4288,2.0,,,,,39.0,,,,,0,note_on,,95.0,39.0,95.0,586080,305.25
4289,2.0,,,,,39.0,,,,,240,note_off,,95.0,39.0,95.0,586320,305.375
4290,2.0,,,,,39.0,,,,,0,note_on,,95.0,39.0,95.0,586320,305.375
4291,2.0,,,,,39.0,,,,,240,note_off,,95.0,39.0,95.0,586560,305.5
4292,2.0,,,,,39.0,,,,,240,note_on,,95.0,39.0,95.0,586800,305.625
4293,3.0,,,,,49.0,,,,,180,note_on,,95.0,49.0,95.0,586980,305.71875
4294,2.0,,,,,39.0,,,,,60,note_off,,95.0,39.0,95.0,587040,305.75
4295,3.0,,,,,49.0,,,,,0,note_off,,95.0,49.0,95.0,587040,305.75
4296,3.0,,,,,51.0,,,,,0,note_on,,95.0,51.0,95.0,587040,305.75
4297,2.0,,,,,39.0,,,,,0,note_on,,95.0,39.0,95.0,587040,305.75
4298,3.0,,,,,51.0,,,,,480,note_off,,95.0,51.0,95.0,587520,306.0
4299,2.0,,,,,39.0,,,,,0,note_off,,95.0,39.0,95.0,587520,306.0
4300,2.0,,,,,39.0,,,,,0,note_on,,95.0,39.0,95.0,587520,306.0
4301,2.0,,,,,39.0,,,,,240,note_off,,95.0,39.0,95.0,587760,306.125
4302,2.0,,,,,39.0,,,,,0,note_on,,95.0,39.0,95.0,587760,306.125
4303,2.0,,,,,39.0,,,,,240,note_off,,95.0,39.0,95.0,588000,306.25
4304,2.0,,,,,39.0,,,,,240,note_on,,95.0,39.0,95.0,588240,306.375
4305,2.0,,,,,39.0,,,,,240,note_off,,95.0,39.0,95.0,588480,306.5
4306,2.0,,,,,61.0,,,,,0,note_on,,95.0,61.0,95.0,588480,306.5
4307,2.0,,,,,54.0,,,,,0,note_on,,95.0,54.0,95.0,588480,306.5
4308,2.0,,,,,61.0,,,,,480,note_off,,95.0,61.0,95.0,588960,306.75
4309,2.0,,,,,54.0,,,,,0,note_off,,95.0,54.0,95.0,588960,306.75
4310,2.0,,,,,39.0,,,,,0,note_on,,95.0,39.0,95.0,588960,306.75
4311,2.0,,,,,39.0,,,,,240,note_off,,95.0,39.0,95.0,589200,306.875
4312,2.0,,,,,39.0,,,,,0,note_on,,95.0,39.0,95.0,589200,306.875
4313,2.0,,,,,39.0,,,,,240,note_off,,95.0,39.0,95.0,589440,307.0
4314,2.0,,,,,60.0,,,,,0,note_on,,95.0,60.0,95.0,589440,307.0
4315,2.0,,,,,53.0,,,,,0,note_on,,95.0,53.0,95.0,589440,307.0
4316,2.0,,,,,60.0,,,,,480,note_off,,95.0,60.0,95.0,589920,307.25
4317,2.0,,,,,53.0,,,,,0,note_off,,95.0,53.0,95.0,589920,307.25
4318,2.0,,,,,39.0,,,,,0,note_on,,95.0,39.0,95.0,589920,307.25
4319,2.0,,,,,39.0,,,,,240,note_off,,95.0,39.0,95.0,590160,307.375
4320,2.0,,,,,39.0,,,,,0,note_on,,95.0,39.0,95.0,590160,307.375
4321,2.0,,,,,39.0,,,,,240,note_off,,95.0,39.0,95.0,590400,307.5
4322,2.0,,,,,39.0,,,,,240,note_on,,95.0,39.0,95.0,590640,307.625
4323,3.0,,,,,49.0,,,,,180,note_on,,95.0,49.0,95.0,590820,307.71875
4324,2.0,,,,,39.0,,,,,60,note_off,,95.0,39.0,95.0,590880,307.75
4325,3.0,,,,,49.0,,,,,0,note_off,,95.0,49.0,95.0,590880,307.75
4326,3.0,,,,,51.0,,,,,0,note_on,,95.0,51.0,95.0,590880,307.75
4327,2.0,,,,,39.0,,,,,0,note_on,,95.0,39.0,95.0,590880,307.75
4328,3.0,,,,,51.0,,,,,480,note_off,,95.0,51.0,95.0,591360,308.0
4329,2.0,,,,,39.0,,,,,0,note_off,,95.0,39.0,95.0,591360,308.0
4330,2.0,,,,,39.0,,,,,0,note_on,,95.0,39.0,95.0,591360,308.0
4331,2.0,,,,,39.0,,,,,240,note_off,,95.0,39.0,95.0,591600,308.125
4332,2.0,,,,,39.0,,,,,0,note_on,,95.0,39.0,95.0,591600,308.125
4333,2.0,,,,,39.0,,,,,240,note_off,,95.0,39.0,95.0,591840,308.25
4334,2.0,,,,,39.0,,,,,240,note_on,,95.0,39.0,95.0,592080,308.375
4335,2.0,,,,,39.0,,,,,240,note_off,,95.0,39.0,95.0,592320,308.5
4336,2.0,,,,,59.0,,,,,0,note_on,,95.0,59.0,95.0,592320,308.5
4337,2.0,,,,,52.0,,,,,0,note_on,,95.0,52.0,95.0,592320,308.5
4338,2.0,,,,,59.0,,,,,480,note_off,,95.0,59.0,95.0,592800,308.75
4339,2.0,,,,,52.0,,,,,0,note_off,,95.0,52.0,95.0,592800,308.75
4340,2.0,,,,,39.0,,,,,0,note_on,,95.0,39.0,95.0,592800,308.75
4341,2.0,,,,,39.0,,,,,240,note_off,,95.0,39.0,95.0,593040,308.875
4342,2.0,,,,,39.0,,,,,0,note_on,,95.0,39.0,95.0,593040,308.875
4343,2.0,,,,,39.0,,,,,240,note_off,,95.0,39.0,95.0,593280,309.0
4344,2.0,,,,,57.0,,,,,0,note_on,,95.0,57.0,95.0,593280,309.0
4345,2.0,,,,,50.0,,,,,0,note_on,,95.0,50.0,95.0,593280,309.0
4346,2.0,,,,,57.0,,,,,480,note_off,,95.0,57.0,95.0,593760,309.25
4347,2.0,,,,,50.0,,,,,0,note_off,,95.0,50.0,95.0,593760,309.25
4348,2.0,,,,,39.0,,,,,0,note_on,,95.0,39.0,95.0,593760,309.25
4349,2.0,,,,,39.0,,,,,240,note_off,,95.0,39.0,95.0,594000,309.375
4350,2.0,,,,,39.0,,,,,0,note_on,,95.0,39.0,95.0,594000,309.375
4351,2.0,,,,,39.0,,,,,240,note_off,,95.0,39.0,95.0,594240,309.5
4352,2.0,,,,,39.0,,,,,240,note_on,,95.0,39.0,95.0,594480,309.625
4353,3.0,,,,,49.0,,,,,180,note_on,,95.0,49.0,95.0,594660,309.71875
4354,2.0,,,,,39.0,,,,,60,note_off,,95.0,39.0,95.0,594720,309.75
4355,3.0,,,,,49.0,,,,,0,note_off,,95.0,49.0,95.0,594720,309.75
4356,3.0,,,,,51.0,,,,,0,note_on,,95.0,51.0,95.0,594720,309.75
4357,2.0,,,,,39.0,,,,,0,note_on,,95.0,39.0,95.0,594720,309.75
4358,3.0,,,,,51.0,,,,,480,note_off,,95.0,51.0,95.0,595200,310.0
4359,2.0,,,,,39.0,,,,,0,note_off,,95.0,39.0,95.0,595200,310.0
4360,2.0,,,,,39.0,,,,,0,note_on,,95.0,39.0,95.0,595200,310.0
4361,2.0,,,,,39.0,,,,,240,note_off,,95.0,39.0,95.0,595440,310.125
4362,2.0,,,,,39.0,,,,,0,note_on,,95.0,39.0,95.0,595440,310.125
4363,2.0,,,,,39.0,,,,,240,note_off,,95.0,39.0,95.0,595680,310.25
4364,2.0,,,,,39.0,,,,,240,note_on,,95.0,39.0,95.0,595920,310.375
4365,2.0,,,,,39.0,,,,,240,note_off,,95.0,39.0,95.0,596160,310.5
4366,2.0,,,,,49.0,,,,,0,note_on,,95.0,49.0,95.0,596160,310.5
4367,2.0,,,,,42.0,,,,,0,note_on,,95.0,42.0,95.0,596160,310.5
4368,2.0,,,,,49.0,,,,,480,note_off,,95.0,49.0,95.0,596640,310.75
4369,2.0,,,,,42.0,,,,,0,note_off,,95.0,42.0,95.0,596640,310.75
4370,2.0,,,,,39.0,,,,,0,note_on,,95.0,39.0,95.0,596640,310.75
4371,2.0,,,,,39.0,,,,,240,note_off,,95.0,39.0,95.0,596880,310.875
4372,2.0,,,,,39.0,,,,,0,note_on,,95.0,39.0,95.0,596880,310.875
4373,2.0,,,,,39.0,,,,,240,note_off,,95.0,39.0,95.0,597120,311.0
4374,2.0,,,,,48.0,,,,,0,note_on,,95.0,48.0,95.0,597120,311.0
4375,2.0,,,,,41.0,,,,,0,note_on,,95.0,41.0,95.0,597120,311.0
4376,2.0,,,,,48.0,,,,,480,note_off,,95.0,48.0,95.0,597600,311.25
4377,2.0,,,,,41.0,,,,,0,note_off,,95.0,41.0,95.0,597600,311.25
4378,2.0,,,,,39.0,,,,,0,note_on,,95.0,39.0,95.0,597600,311.25
4379,2.0,,,,,39.0,,,,,240,note_off,,95.0,39.0,95.0,597840,311.375
4380,2.0,,,,,39.0,,,,,0,note_on,,95.0,39.0,95.0,597840,311.375
4381,2.0,,,,,39.0,,,,,240,note_off,,95.0,39.0,95.0,598080,311.5
4382,2.0,,,,,39.0,,,,,240,note_on,,95.0,39.0,95.0,598320,311.625
4383,3.0,,,,,49.0,,,,,180,note_on,,95.0,49.0,95.0,598500,311.71875
4384,2.0,,,,,39.0,,,,,60,note_off,,95.0,39.0,95.0,598560,311.75
4385,3.0,,,,,49.0,,,,,0,note_off,,95.0,49.0,95.0,598560,311.75
4386,3.0,,,,,51.0,,,,,0,note_on,,95.0,51.0,95.0,598560,311.75
4387,2.0,,,,,39.0,,,,,0,note_on,,95.0,39.0,95.0,598560,311.75
4388,3.0,,,,,51.0,,,,,480,note_off,,95.0,51.0,95.0,599040,312.0
4389,2.0,,,,,39.0,,,,,0,note_off,,95.0,39.0,95.0,599040,312.0
4390,2.0,,,,,39.0,,,,,0,note_on,,95.0,39.0,95.0,599040,312.0
4391,2.0,,,,,39.0,,,,,240,note_off,,95.0,39.0,95.0,599280,312.125
4392,2.0,,,,,39.0,,,,,0,note_on,,95.0,39.0,95.0,599280,312.125
4393,2.0,,,,,39.0,,,,,240,note_off,,95.0,39.0,95.0,599520,312.25
4394,2.0,,,,,39.0,,,,,240,note_on,,95.0,39.0,95.0,599760,312.375
4395,2.0,,,,,39.0,,,,,240,note_off,,95.0,39.0,95.0,600000,312.5
4396,2.0,,,,,59.0,,,,,0,note_on,,95.0,59.0,95.0,600000,312.5
4397,2.0,,,,,52.0,,,,,0,note_on,,95.0,52.0,95.0,600000,312.5
4398,2.0,,,,,59.0,,,,,480,note_off,,95.0,59.0,95.0,600480,312.75
4399,2.0,,,,,52.0,,,,,0,note_off,,95.0,52.0,95.0,600480,312.75
4400,2.0,,,,,39.0,,,,,0,note_on,,95.0,39.0,95.0,600480,312.75
4401,2.0,,,,,39.0,,,,,240,note_off,,95.0,39.0,95.0,600720,312.875
4402,2.0,,,,,39.0,,,,,0,note_on,,95.0,39.0,95.0,600720,312.875
4403,2.0,,,,,39.0,,,,,240,note_off,,95.0,39.0,95.0,600960,313.0
4404,2.0,,,,,57.0,,,,,0,note_on,,95.0,57.0,95.0,600960,313.0
4405,2.0,,,,,50.0,,,,,0,note_on,,95.0,50.0,95.0,600960,313.0
4406,2.0,,,,,57.0,,,,,480,note_off,,95.0,57.0,95.0,601440,313.25
4407,2.0,,,,,50.0,,,,,0,note_off,,95.0,50.0,95.0,601440,313.25
4408,2.0,,,,,39.0,,,,,0,note_on,,95.0,39.0,95.0,601440,313.25
4409,2.0,,,,,39.0,,,,,240,note_off,,95.0,39.0,95.0,601680,313.375
4410,2.0,,,,,39.0,,,,,0,note_on,,95.0,39.0,95.0,601680,313.375
4411,2.0,,,,,39.0,,,,,240,note_off,,95.0,39.0,95.0,601920,313.5
4412,2.0,,,,,39.0,,,,,240,note_on,,95.0,39.0,95.0,602160,313.625
4413,3.0,,,,,49.0,,,,,180,note_on,,95.0,49.0,95.0,602340,313.71875
4414,2.0,,,,,39.0,,,,,60,note_off,,95.0,39.0,95.0,602400,313.75
4415,3.0,,,,,49.0,,,,,0,note_off,,95.0,49.0,95.0,602400,313.75
4416,3.0,,,,,51.0,,,,,0,note_on,,95.0,51.0,95.0,602400,313.75
4417,2.0,,,,,39.0,,,,,0,note_on,,95.0,39.0,95.0,602400,313.75
4418,3.0,,,,,51.0,,,,,480,note_off,,95.0,51.0,95.0,602880,314.0
4419,2.0,,,,,39.0,,,,,0,note_off,,95.0,39.0,95.0,602880,314.0
4420,2.0,,,,,39.0,,,,,0,note_on,,95.0,39.0,95.0,602880,314.0
4421,2.0,,,,,39.0,,,,,240,note_off,,95.0,39.0,95.0,603120,314.125
4422,2.0,,,,,39.0,,,,,0,note_on,,95.0,39.0,95.0,603120,314.125
4423,2.0,,,,,39.0,,,,,240,note_off,,95.0,39.0,95.0,603360,314.25
4424,2.0,,,,,39.0,,,,,240,note_on,,95.0,39.0,95.0,603600,314.375
4425,2.0,,,,,39.0,,,,,240,note_off,,95.0,39.0,95.0,603840,314.5
4426,2.0,,,,,61.0,,,,,0,note_on,,95.0,61.0,95.0,603840,314.5
4427,2.0,,,,,54.0,,,,,0,note_on,,95.0,54.0,95.0,603840,314.5
4428,2.0,,,,,61.0,,,,,480,note_off,,95.0,61.0,95.0,604320,314.75
4429,2.0,,,,,54.0,,,,,0,note_off,,95.0,54.0,95.0,604320,314.75
4430,2.0,,,,,39.0,,,,,0,note_on,,95.0,39.0,95.0,604320,314.75
4431,2.0,,,,,39.0,,,,,240,note_off,,95.0,39.0,95.0,604560,314.875
4432,2.0,,,,,39.0,,,,,0,note_on,,95.0,39.0,95.0,604560,314.875
4433,2.0,,,,,39.0,,,,,240,note_off,,95.0,39.0,95.0,604800,315.0
4434,2.0,,,,,60.0,,,,,0,note_on,,95.0,60.0,95.0,604800,315.0
4435,2.0,,,,,53.0,,,,,0,note_on,,95.0,53.0,95.0,604800,315.0
4436,2.0,,,,,60.0,,,,,480,note_off,,95.0,60.0,95.0,605280,315.25
4437,2.0,,,,,53.0,,,,,0,note_off,,95.0,53.0,95.0,605280,315.25
4438,2.0,,,,,39.0,,,,,0,note_on,,95.0,39.0,95.0,605280,315.25
4439,2.0,,,,,39.0,,,,,240,note_off,,95.0,39.0,95.0,605520,315.375
4440,2.0,,,,,39.0,,,,,0,note_on,,95.0,39.0,95.0,605520,315.375
4441,2.0,,,,,39.0,,,,,240,note_off,,95.0,39.0,95.0,605760,315.5
4442,2.0,,,,,39.0,,,,,240,note_on,,95.0,39.0,95.0,606000,315.625
4443,3.0,,,,,49.0,,,,,180,note_on,,95.0,49.0,95.0,606180,315.71875
4444,2.0,,,,,39.0,,,,,60,note_off,,95.0,39.0,95.0,606240,315.75
4445,3.0,,,,,49.0,,,,,0,note_off,,95.0,49.0,95.0,606240,315.75
4446,3.0,,,,,51.0,,,,,0,note_on,,95.0,51.0,95.0,606240,315.75
4447,2.0,,,,,39.0,,,,,0,note_on,,95.0,39.0,95.0,606240,315.75
4448,3.0,,,,,51.0,,,,,480,note_off,,95.0,51.0,95.0,606720,316.0
4449,2.0,,,,,39.0,,,,,0,note_off,,95.0,39.0,95.0,606720,316.0
4450,2.0,,,,,39.0,,,,,0,note_on,,95.0,39.0,95.0,606720,316.0
4451,2.0,,,,,39.0,,,,,240,note_off,,95.0,39.0,95.0,606960,316.125
4452,2.0,,,,,39.0,,,,,0,note_on,,95.0,39.0,95.0,606960,316.125
4453,2.0,,,,,39.0,,,,,240,note_off,,95.0,39.0,95.0,607200,316.25
4454,2.0,,,,,39.0,,,,,240,note_on,,95.0,39.0,95.0,607440,316.375
4455,2.0,,,,,39.0,,,,,240,note_off,,95.0,39.0,95.0,607680,316.5
4456,2.0,,,,,59.0,,,,,0,note_on,,95.0,59.0,95.0,607680,316.5
4457,2.0,,,,,52.0,,,,,0,note_on,,95.0,52.0,95.0,607680,316.5
4458,2.0,,,,,59.0,,,,,480,note_off,,95.0,59.0,95.0,608160,316.75
4459,2.0,,,,,52.0,,,,,0,note_off,,95.0,52.0,95.0,608160,316.75
4460,2.0,,,,,39.0,,,,,0,note_on,,95.0,39.0,95.0,608160,316.75
4461,2.0,,,,,39.0,,,,,240,note_off,,95.0,39.0,95.0,608400,316.875
4462,2.0,,,,,39.0,,,,,0,note_on,,95.0,39.0,95.0,608400,316.875
4463,2.0,,,,,39.0,,,,,240,note_off,,95.0,39.0,95.0,608640,317.0
4464,2.0,,,,,57.0,,,,,0,note_on,,95.0,57.0,95.0,608640,317.0
4465,2.0,,,,,50.0,,,,,0,note_on,,95.0,50.0,95.0,608640,317.0
4466,2.0,,,,,57.0,,,,,480,note_off,,95.0,57.0,95.0,609120,317.25
4467,2.0,,,,,50.0,,,,,0,note_off,,95.0,50.0,95.0,609120,317.25
4468,2.0,,,,,39.0,,,,,0,note_on,,95.0,39.0,95.0,609120,317.25
4469,2.0,,,,,39.0,,,,,240,note_off,,95.0,39.0,95.0,609360,317.375
4470,2.0,,,,,39.0,,,,,0,note_on,,95.0,39.0,95.0,609360,317.375
4471,2.0,,,,,39.0,,,,,240,note_off,,95.0,39.0,95.0,609600,317.5
4472,2.0,,,,,39.0,,,,,240,note_on,,95.0,39.0,95.0,609840,317.625
4473,3.0,,,,,49.0,,,,,180,note_on,,95.0,49.0,95.0,610020,317.71875
4474,2.0,,,,,39.0,,,,,60,note_off,,95.0,39.0,95.0,610080,317.75
4475,3.0,,,,,49.0,,,,,0,note_off,,95.0,49.0,95.0,610080,317.75
4476,3.0,,,,,51.0,,,,,0,note_on,,95.0,51.0,95.0,610080,317.75
4477,2.0,,,,,39.0,,,,,0,note_on,,95.0,39.0,95.0,610080,317.75
4478,3.0,,,,,51.0,,,,,480,note_off,,95.0,51.0,95.0,610560,318.0
4479,2.0,,,,,39.0,,,,,0,note_off,,95.0,39.0,95.0,610560,318.0
4480,2.0,,,,,39.0,,,,,0,note_on,,95.0,39.0,95.0,610560,318.0
4481,2.0,,,,,39.0,,,,,240,note_off,,95.0,39.0,95.0,610800,318.125
4482,2.0,,,,,39.0,,,,,0,note_on,,95.0,39.0,95.0,610800,318.125
4483,2.0,,,,,39.0,,,,,240,note_off,,95.0,39.0,95.0,611040,318.25
4484,2.0,,,,,39.0,,,,,240,note_on,,95.0,39.0,95.0,611280,318.375
4485,2.0,,,,,39.0,,,,,240,note_off,,95.0,39.0,95.0,611520,318.5
4486,2.0,,,,,49.0,,,,,0,note_on,,95.0,49.0,95.0,611520,318.5
4487,2.0,,,,,42.0,,,,,0,note_on,,95.0,42.0,95.0,611520,318.5
4488,2.0,,,,,49.0,,,,,480,note_off,,95.0,49.0,95.0,612000,318.75
4489,2.0,,,,,42.0,,,,,0,note_off,,95.0,42.0,95.0,612000,318.75
4490,2.0,,,,,39.0,,,,,0,note_on,,95.0,39.0,95.0,612000,318.75
4491,2.0,,,,,39.0,,,,,240,note_off,,95.0,39.0,95.0,612240,318.875
4492,2.0,,,,,39.0,,,,,0,note_on,,95.0,39.0,95.0,612240,318.875
4493,2.0,,,,,39.0,,,,,240,note_off,,95.0,39.0,95.0,612480,319.0
4494,2.0,,,,,48.0,,,,,0,note_on,,95.0,48.0,95.0,612480,319.0
4495,2.0,,,,,41.0,,,,,0,note_on,,95.0,41.0,95.0,612480,319.0
4496,2.0,,,,,48.0,,,,,480,note_off,,95.0,48.0,95.0,612960,319.25
4497,2.0,,,,,41.0,,,,,0,note_off,,95.0,41.0,95.0,612960,319.25
4498,2.0,,,,,39.0,,,,,0,note_on,,95.0,39.0,95.0,612960,319.25
4499,2.0,,,,,39.0,,,,,240,note_off,,95.0,39.0,95.0,613200,319.375
4500,2.0,,,,,39.0,,,,,240,note_on,,95.0,39.0,95.0,613440,319.5
4501,2.0,,,,,39.0,,,,,240,note_off,,95.0,39.0,95.0,613680,319.625
4502,2.0,,,,,39.0,,,,,0,note_on,,95.0,39.0,95.0,613680,319.625
4503,3.0,,,,,49.0,,,,,180,note_on,,95.0,49.0,95.0,613860,319.71875
4504,2.0,,,,,39.0,,,,,60,note_off,,95.0,39.0,95.0,613920,319.75
4505,3.0,,,,,49.0,,,,,0,note_off,,95.0,49.0,95.0,613920,319.75
4506,3.0,,,,,51.0,,,,,0,note_on,,95.0,51.0,95.0,613920,319.75
4507,2.0,,,,,39.0,,,,,0,note_on,,95.0,39.0,95.0,613920,319.75
4508,3.0,,,,,51.0,,,,,960,note_off,,95.0,51.0,95.0,614880,320.25
4509,2.0,,,,,39.0,,,,,0,note_off,,95.0,39.0,95.0,614880,320.25
4510,2.0,,,,,39.0,,,,,0,note_on,,95.0,39.0,95.0,614880,320.25
4511,2.0,,,,,39.0,,,,,240,note_off,,95.0,39.0,95.0,615120,320.375
4512,2.0,,,,,39.0,,,,,240,note_on,,95.0,39.0,95.0,615360,320.5
4513,2.0,,,,,39.0,,,,,240,note_off,,95.0,39.0,95.0,615600,320.625
4514,2.0,,,,,39.0,,,,,0,note_on,,95.0,39.0,95.0,615600,320.625
4515,2.0,,,,,39.0,,,,,240,note_off,,95.0,39.0,95.0,615840,320.75
4516,2.0,,,,,59.0,,,,,0,note_on,,95.0,59.0,95.0,615840,320.75
4517,2.0,,,,,52.0,,,,,0,note_on,,95.0,52.0,95.0,615840,320.75
4518,2.0,,,,,59.0,,,,,240,note_off,,95.0,59.0,95.0,616080,320.875
4519,2.0,,,,,52.0,,,,,0,note_off,,95.0,52.0,95.0,616080,320.875
4520,2.0,,,,,58.0,,,,,0,note_on,,95.0,58.0,95.0,616080,320.875
4521,2.0,,,,,51.0,,,,,0,note_on,,95.0,51.0,95.0,616080,320.875
4522,2.0,,,,,58.0,,,,,240,note_off,,95.0,58.0,95.0,616320,321.0
4523,2.0,,,,,51.0,,,,,0,note_off,,95.0,51.0,95.0,616320,321.0
4524,2.0,,,,,57.0,,,,,0,note_on,,95.0,57.0,95.0,616320,321.0
4525,2.0,,,,,50.0,,,,,0,note_on,,95.0,50.0,95.0,616320,321.0
4526,2.0,,,,,57.0,,,,,480,note_off,,95.0,57.0,95.0,616800,321.25
4527,2.0,,,,,50.0,,,,,0,note_off,,95.0,50.0,95.0,616800,321.25
4528,2.0,,,,,39.0,,,,,0,note_on,,95.0,39.0,95.0,616800,321.25
4529,2.0,,,,,39.0,,,,,240,note_off,,95.0,39.0,95.0,617040,321.375
4530,2.0,,,,,39.0,,,,,240,note_on,,95.0,39.0,95.0,617280,321.5
4531,2.0,,,,,39.0,,,,,240,note_off,,95.0,39.0,95.0,617520,321.625
4532,2.0,,,,,39.0,,,,,0,note_on,,95.0,39.0,95.0,617520,321.625
4533,3.0,,,,,49.0,,,,,180,note_on,,95.0,49.0,95.0,617700,321.71875
4534,2.0,,,,,39.0,,,,,60,note_off,,95.0,39.0,95.0,617760,321.75
4535,3.0,,,,,49.0,,,,,0,note_off,,95.0,49.0,95.0,617760,321.75
4536,3.0,,,,,51.0,,,,,0,note_on,,95.0,51.0,95.0,617760,321.75
4537,2.0,,,,,39.0,,,,,0,note_on,,95.0,39.0,95.0,617760,321.75
4538,3.0,,,,,51.0,,,,,960,note_off,,95.0,51.0,95.0,618720,322.25
4539,2.0,,,,,39.0,,,,,0,note_off,,95.0,39.0,95.0,618720,322.25
4540,2.0,,,,,39.0,,,,,0,note_on,,95.0,39.0,95.0,618720,322.25
4541,2.0,,,,,39.0,,,,,240,note_off,,95.0,39.0,95.0,618960,322.375
4542,2.0,,,,,39.0,,,,,240,note_on,,95.0,39.0,95.0,619200,322.5
4543,2.0,,,,,39.0,,,,,240,note_off,,95.0,39.0,95.0,619440,322.625
4544,2.0,,,,,39.0,,,,,0,note_on,,95.0,39.0,95.0,619440,322.625
4545,2.0,,,,,39.0,,,,,240,note_off,,95.0,39.0,95.0,619680,322.75
4546,2.0,,,,,61.0,,,,,0,note_on,,95.0,61.0,95.0,619680,322.75
4547,2.0,,,,,54.0,,,,,0,note_on,,95.0,54.0,95.0,619680,322.75
4548,2.0,,,,,61.0,,,,,240,note_off,,95.0,61.0,95.0,619920,322.875
4549,2.0,,,,,54.0,,,,,0,note_off,,95.0,54.0,95.0,619920,322.875
4550,2.0,,,,,60.0,,,,,0,note_on,,95.0,60.0,95.0,619920,322.875
4551,2.0,,,,,53.0,,,,,0,note_on,,95.0,53.0,95.0,619920,322.875
4552,2.0,,,,,60.0,,,,,240,note_off,,95.0,60.0,95.0,620160,323.0
4553,2.0,,,,,53.0,,,,,0,note_off,,95.0,53.0,95.0,620160,323.0
4554,2.0,,,,,59.0,,,,,0,note_on,,95.0,59.0,95.0,620160,323.0
4555,2.0,,,,,52.0,,,,,0,note_on,,95.0,52.0,95.0,620160,323.0
4556,2.0,,,,,59.0,,,,,480,note_off,,95.0,59.0,95.0,620640,323.25
4557,2.0,,,,,52.0,,,,,0,note_off,,95.0,52.0,95.0,620640,323.25
4558,2.0,,,,,39.0,,,,,0,note_on,,95.0,39.0,95.0,620640,323.25
4559,2.0,,,,,39.0,,,,,240,note_off,,95.0,39.0,95.0,620880,323.375
4560,2.0,,,,,39.0,,,,,240,note_on,,95.0,39.0,95.0,621120,323.5
4561,2.0,,,,,39.0,,,,,240,note_off,,95.0,39.0,95.0,621360,323.625
4562,2.0,,,,,39.0,,,,,0,note_on,,95.0,39.0,95.0,621360,323.625
4563,3.0,,,,,49.0,,,,,180,note_on,,95.0,49.0,95.0,621540,323.71875
4564,2.0,,,,,39.0,,,,,60,note_off,,95.0,39.0,95.0,621600,323.75
4565,3.0,,,,,49.0,,,,,0,note_off,,95.0,49.0,95.0,621600,323.75
4566,3.0,,,,,51.0,,,,,0,note_on,,95.0,51.0,95.0,621600,323.75
4567,2.0,,,,,39.0,,,,,0,note_on,,95.0,39.0,95.0,621600,323.75
4568,3.0,,,,,51.0,,,,,960,note_off,,95.0,51.0,95.0,622560,324.25
4569,2.0,,,,,39.0,,,,,0,note_off,,95.0,39.0,95.0,622560,324.25
4570,2.0,,,,,39.0,,,,,0,note_on,,95.0,39.0,95.0,622560,324.25
4571,2.0,,,,,39.0,,,,,240,note_off,,95.0,39.0,95.0,622800,324.375
4572,2.0,,,,,39.0,,,,,240,note_on,,95.0,39.0,95.0,623040,324.5
4573,2.0,,,,,39.0,,,,,240,note_off,,95.0,39.0,95.0,623280,324.625
4574,2.0,,,,,39.0,,,,,0,note_on,,95.0,39.0,95.0,623280,324.625
4575,2.0,,,,,39.0,,,,,240,note_off,,95.0,39.0,95.0,623520,324.75
4576,2.0,,,,,59.0,,,,,0,note_on,,95.0,59.0,95.0,623520,324.75
4577,2.0,,,,,52.0,,,,,0,note_on,,95.0,52.0,95.0,623520,324.75
4578,2.0,,,,,59.0,,,,,240,note_off,,95.0,59.0,95.0,623760,324.875
4579,2.0,,,,,52.0,,,,,0,note_off,,95.0,52.0,95.0,623760,324.875
4580,2.0,,,,,58.0,,,,,0,note_on,,95.0,58.0,95.0,623760,324.875
4581,2.0,,,,,51.0,,,,,0,note_on,,95.0,51.0,95.0,623760,324.875
4582,2.0,,,,,58.0,,,,,240,note_off,,95.0,58.0,95.0,624000,325.0
4583,2.0,,,,,51.0,,,,,0,note_off,,95.0,51.0,95.0,624000,325.0
4584,2.0,,,,,57.0,,,,,0,note_on,,95.0,57.0,95.0,624000,325.0
4585,2.0,,,,,50.0,,,,,0,note_on,,95.0,50.0,95.0,624000,325.0
4586,2.0,,,,,57.0,,,,,480,note_off,,95.0,57.0,95.0,624480,325.25
4587,2.0,,,,,50.0,,,,,0,note_off,,95.0,50.0,95.0,624480,325.25
4588,2.0,,,,,39.0,,,,,0,note_on,,95.0,39.0,95.0,624480,325.25
4589,2.0,,,,,39.0,,,,,240,note_off,,95.0,39.0,95.0,624720,325.375
4590,2.0,,,,,39.0,,,,,240,note_on,,95.0,39.0,95.0,624960,325.5
4591,2.0,,,,,39.0,,,,,240,note_off,,95.0,39.0,95.0,625200,325.625
4592,2.0,,,,,39.0,,,,,0,note_on,,95.0,39.0,95.0,625200,325.625
4593,3.0,,,,,49.0,,,,,180,note_on,,95.0,49.0,95.0,625380,325.71875
4594,2.0,,,,,39.0,,,,,60,note_off,,95.0,39.0,95.0,625440,325.75
4595,3.0,,,,,49.0,,,,,0,note_off,,95.0,49.0,95.0,625440,325.75
4596,3.0,,,,,51.0,,,,,0,note_on,,95.0,51.0,95.0,625440,325.75
4597,2.0,,,,,39.0,,,,,0,note_on,,95.0,39.0,95.0,625440,325.75
4598,3.0,,,,,51.0,,,,,960,note_off,,95.0,51.0,95.0,626400,326.25
4599,2.0,,,,,39.0,,,,,0,note_off,,95.0,39.0,95.0,626400,326.25
4600,2.0,,,,,39.0,,,,,0,note_on,,95.0,39.0,95.0,626400,326.25
4601,2.0,,,,,39.0,,,,,240,note_off,,95.0,39.0,95.0,626640,326.375
4602,2.0,,,,,39.0,,,,,0,note_on,,95.0,39.0,95.0,626640,326.375
4603,2.0,,,,,39.0,,,,,240,note_off,,95.0,39.0,95.0,626880,326.5
4604,2.0,,,,,39.0,,,,,0,note_on,,95.0,39.0,95.0,626880,326.5
4605,2.0,,,,,39.0,,,,,240,note_off,,95.0,39.0,95.0,627120,326.625
4606,2.0,,,,,39.0,,,,,0,note_on,,95.0,39.0,95.0,627120,326.625
4607,2.0,,,,,39.0,,,,,240,note_off,,95.0,39.0,95.0,627360,326.75
4608,2.0,,,,,49.0,,,,,0,note_on,,95.0,49.0,95.0,627360,326.75
4609,2.0,,,,,42.0,,,,,0,note_on,,95.0,42.0,95.0,627360,326.75
4610,2.0,,,,,49.0,,,,,240,note_off,,95.0,49.0,95.0,627600,326.875
4611,2.0,,,,,42.0,,,,,0,note_off,,95.0,42.0,95.0,627600,326.875
4612,2.0,,,,,48.0,,,,,0,note_on,,95.0,48.0,95.0,627600,326.875
4613,2.0,,,,,41.0,,,,,0,note_on,,95.0,41.0,95.0,627600,326.875
4614,2.0,,,,,48.0,,,,,240,note_off,,95.0,48.0,95.0,627840,327.0
4615,2.0,,,,,41.0,,,,,0,note_off,,95.0,41.0,95.0,627840,327.0
4616,2.0,,,,,47.0,,,,,0,note_on,,95.0,47.0,95.0,627840,327.0
4617,2.0,,,,,40.0,,,,,0,note_on,,95.0,40.0,95.0,627840,327.0
4618,2.0,,,,,47.0,,,,,480,note_off,,95.0,47.0,95.0,628320,327.25
4619,2.0,,,,,40.0,,,,,0,note_off,,95.0,40.0,95.0,628320,327.25
4620,2.0,,,,,39.0,,,,,0,note_on,,95.0,39.0,95.0,628320,327.25
4621,2.0,,,,,39.0,,,,,240,note_off,,95.0,39.0,95.0,628560,327.375
4622,2.0,,,,,39.0,,,,,240,note_on,,95.0,39.0,95.0,628800,327.5
4623,2.0,,,,,39.0,,,,,240,note_off,,95.0,39.0,95.0,629040,327.625
4624,2.0,,,,,39.0,,,,,0,note_on,,95.0,39.0,95.0,629040,327.625
4625,3.0,,,,,49.0,,,,,180,note_on,,95.0,49.0,95.0,629220,327.71875
4626,2.0,,,,,39.0,,,,,60,note_off,,95.0,39.0,95.0,629280,327.75
4627,3.0,,,,,49.0,,,,,0,note_off,,95.0,49.0,95.0,629280,327.75
4628,3.0,,,,,51.0,,,,,0,note_on,,95.0,51.0,95.0,629280,327.75
4629,2.0,,,,,39.0,,,,,0,note_on,,95.0,39.0,95.0,629280,327.75
4630,3.0,,,,,51.0,,,,,960,note_off,,95.0,51.0,95.0,630240,328.25
4631,2.0,,,,,39.0,,,,,0,note_off,,95.0,39.0,95.0,630240,328.25
4632,2.0,,,,,39.0,,,,,0,note_on,,95.0,39.0,95.0,630240,328.25
4633,2.0,,,,,39.0,,,,,240,note_off,,95.0,39.0,95.0,630480,328.375
4634,2.0,,,,,39.0,,,,,240,note_on,,95.0,39.0,95.0,630720,328.5
4635,2.0,,,,,39.0,,,,,240,note_off,,95.0,39.0,95.0,630960,328.625
4636,2.0,,,,,39.0,,,,,0,note_on,,95.0,39.0,95.0,630960,328.625
4637,2.0,,,,,39.0,,,,,240,note_off,,95.0,39.0,95.0,631200,328.75
4638,2.0,,,,,59.0,,,,,0,note_on,,95.0,59.0,95.0,631200,328.75
4639,2.0,,,,,52.0,,,,,0,note_on,,95.0,52.0,95.0,631200,328.75
4640,2.0,,,,,59.0,,,,,240,note_off,,95.0,59.0,95.0,631440,328.875
4641,2.0,,,,,52.0,,,,,0,note_off,,95.0,52.0,95.0,631440,328.875
4642,2.0,,,,,58.0,,,,,0,note_on,,95.0,58.0,95.0,631440,328.875
4643,2.0,,,,,51.0,,,,,0,note_on,,95.0,51.0,95.0,631440,328.875
4644,2.0,,,,,58.0,,,,,240,note_off,,95.0,58.0,95.0,631680,329.0
4645,2.0,,,,,51.0,,,,,0,note_off,,95.0,51.0,95.0,631680,329.0
4646,2.0,,,,,57.0,,,,,0,note_on,,95.0,57.0,95.0,631680,329.0
4647,2.0,,,,,50.0,,,,,0,note_on,,95.0,50.0,95.0,631680,329.0
4648,2.0,,,,,57.0,,,,,480,note_off,,95.0,57.0,95.0,632160,329.25
4649,2.0,,,,,50.0,,,,,0,note_off,,95.0,50.0,95.0,632160,329.25
4650,2.0,,,,,39.0,,,,,0,note_on,,95.0,39.0,95.0,632160,329.25
4651,2.0,,,,,39.0,,,,,240,note_off,,95.0,39.0,95.0,632400,329.375
4652,2.0,,,,,39.0,,,,,240,note_on,,95.0,39.0,95.0,632640,329.5
4653,2.0,,,,,39.0,,,,,240,note_off,,95.0,39.0,95.0,632880,329.625
4654,2.0,,,,,39.0,,,,,0,note_on,,95.0,39.0,95.0,632880,329.625
4655,3.0,,,,,49.0,,,,,180,note_on,,95.0,49.0,95.0,633060,329.71875
4656,2.0,,,,,39.0,,,,,60,note_off,,95.0,39.0,95.0,633120,329.75
4657,3.0,,,,,49.0,,,,,0,note_off,,95.0,49.0,95.0,633120,329.75
4658,3.0,,,,,51.0,,,,,0,note_on,,95.0,51.0,95.0,633120,329.75
4659,2.0,,,,,39.0,,,,,0,note_on,,95.0,39.0,95.0,633120,329.75
4660,3.0,,,,,51.0,,,,,960,note_off,,95.0,51.0,95.0,634080,330.25
4661,2.0,,,,,39.0,,,,,0,note_off,,95.0,39.0,95.0,634080,330.25
4662,2.0,,,,,39.0,,,,,0,note_on,,95.0,39.0,95.0,634080,330.25
4663,2.0,,,,,39.0,,,,,240,note_off,,95.0,39.0,95.0,634320,330.375
4664,2.0,,,,,39.0,,,,,240,note_on,,95.0,39.0,95.0,634560,330.5
4665,2.0,,,,,39.0,,,,,240,note_off,,95.0,39.0,95.0,634800,330.625
4666,2.0,,,,,39.0,,,,,0,note_on,,95.0,39.0,95.0,634800,330.625
4667,2.0,,,,,39.0,,,,,240,note_off,,95.0,39.0,95.0,635040,330.75
4668,2.0,,,,,61.0,,,,,0,note_on,,95.0,61.0,95.0,635040,330.75
4669,2.0,,,,,54.0,,,,,0,note_on,,95.0,54.0,95.0,635040,330.75
4670,2.0,,,,,61.0,,,,,240,note_off,,95.0,61.0,95.0,635280,330.875
4671,2.0,,,,,54.0,,,,,0,note_off,,95.0,54.0,95.0,635280,330.875
4672,2.0,,,,,60.0,,,,,0,note_on,,95.0,60.0,95.0,635280,330.875
4673,2.0,,,,,53.0,,,,,0,note_on,,95.0,53.0,95.0,635280,330.875
4674,2.0,,,,,60.0,,,,,240,note_off,,95.0,60.0,95.0,635520,331.0
4675,2.0,,,,,53.0,,,,,0,note_off,,95.0,53.0,95.0,635520,331.0
4676,2.0,,,,,59.0,,,,,0,note_on,,95.0,59.0,95.0,635520,331.0
4677,2.0,,,,,52.0,,,,,0,note_on,,95.0,52.0,95.0,635520,331.0
4678,2.0,,,,,59.0,,,,,480,note_off,,95.0,59.0,95.0,636000,331.25
4679,2.0,,,,,52.0,,,,,0,note_off,,95.0,52.0,95.0,636000,331.25
4680,2.0,,,,,39.0,,,,,0,note_on,,95.0,39.0,95.0,636000,331.25
4681,2.0,,,,,39.0,,,,,240,note_off,,95.0,39.0,95.0,636240,331.375
4682,2.0,,,,,39.0,,,,,240,note_on,,95.0,39.0,95.0,636480,331.5
4683,2.0,,,,,39.0,,,,,240,note_off,,95.0,39.0,95.0,636720,331.625
4684,2.0,,,,,39.0,,,,,0,note_on,,95.0,39.0,95.0,636720,331.625
4685,3.0,,,,,49.0,,,,,180,note_on,,95.0,49.0,95.0,636900,331.71875
4686,2.0,,,,,39.0,,,,,60,note_off,,95.0,39.0,95.0,636960,331.75
4687,3.0,,,,,49.0,,,,,0,note_off,,95.0,49.0,95.0,636960,331.75
4688,3.0,,,,,51.0,,,,,0,note_on,,95.0,51.0,95.0,636960,331.75
4689,2.0,,,,,39.0,,,,,0,note_on,,95.0,39.0,95.0,636960,331.75
4690,3.0,,,,,51.0,,,,,960,note_off,,95.0,51.0,95.0,637920,332.25
4691,2.0,,,,,39.0,,,,,0,note_off,,95.0,39.0,95.0,637920,332.25
4692,2.0,,,,,39.0,,,,,0,note_on,,95.0,39.0,95.0,637920,332.25
4693,2.0,,,,,39.0,,,,,240,note_off,,95.0,39.0,95.0,638160,332.375
4694,2.0,,,,,39.0,,,,,240,note_on,,95.0,39.0,95.0,638400,332.5
4695,2.0,,,,,39.0,,,,,240,note_off,,95.0,39.0,95.0,638640,332.625
4696,2.0,,,,,39.0,,,,,0,note_on,,95.0,39.0,95.0,638640,332.625
4697,2.0,,,,,39.0,,,,,240,note_off,,95.0,39.0,95.0,638880,332.75
4698,2.0,,,,,59.0,,,,,0,note_on,,95.0,59.0,95.0,638880,332.75
4699,2.0,,,,,52.0,,,,,0,note_on,,95.0,52.0,95.0,638880,332.75
4700,2.0,,,,,59.0,,,,,240,note_off,,95.0,59.0,95.0,639120,332.875
4701,2.0,,,,,52.0,,,,,0,note_off,,95.0,52.0,95.0,639120,332.875
4702,2.0,,,,,58.0,,,,,0,note_on,,95.0,58.0,95.0,639120,332.875
4703,2.0,,,,,51.0,,,,,0,note_on,,95.0,51.0,95.0,639120,332.875
4704,2.0,,,,,58.0,,,,,240,note_off,,95.0,58.0,95.0,639360,333.0
4705,2.0,,,,,51.0,,,,,0,note_off,,95.0,51.0,95.0,639360,333.0
4706,2.0,,,,,57.0,,,,,0,note_on,,95.0,57.0,95.0,639360,333.0
4707,2.0,,,,,50.0,,,,,0,note_on,,95.0,50.0,95.0,639360,333.0
4708,2.0,,,,,57.0,,,,,480,note_off,,95.0,57.0,95.0,639840,333.25
4709,2.0,,,,,50.0,,,,,0,note_off,,95.0,50.0,95.0,639840,333.25
4710,2.0,,,,,39.0,,,,,0,note_on,,95.0,39.0,95.0,639840,333.25
4711,2.0,,,,,39.0,,,,,240,note_off,,95.0,39.0,95.0,640080,333.375
4712,2.0,,,,,39.0,,,,,240,note_on,,95.0,39.0,95.0,640320,333.5
4713,2.0,,,,,39.0,,,,,240,note_off,,95.0,39.0,95.0,640560,333.625
4714,2.0,,,,,39.0,,,,,0,note_on,,95.0,39.0,95.0,640560,333.625
4715,3.0,,,,,49.0,,,,,180,note_on,,95.0,49.0,95.0,640740,333.71875
4716,2.0,,,,,39.0,,,,,60,note_off,,95.0,39.0,95.0,640800,333.75
4717,3.0,,,,,49.0,,,,,0,note_off,,95.0,49.0,95.0,640800,333.75
4718,3.0,,,,,51.0,,,,,0,note_on,,95.0,51.0,95.0,640800,333.75
4719,2.0,,,,,39.0,,,,,0,note_on,,95.0,39.0,95.0,640800,333.75
4720,3.0,,,,,51.0,,,,,960,note_off,,95.0,51.0,95.0,641760,334.25
4721,2.0,,,,,39.0,,,,,0,note_off,,95.0,39.0,95.0,641760,334.25
4722,2.0,,,,,39.0,,,,,0,note_on,,95.0,39.0,95.0,641760,334.25
4723,2.0,,,,,39.0,,,,,240,note_off,,95.0,39.0,95.0,642000,334.375
4724,2.0,,,,,39.0,,,,,0,note_on,,95.0,39.0,95.0,642000,334.375
4725,2.0,,,,,39.0,,,,,240,note_off,,95.0,39.0,95.0,642240,334.5
4726,2.0,,,,,39.0,,,,,0,note_on,,95.0,39.0,95.0,642240,334.5
4727,2.0,,,,,39.0,,,,,240,note_off,,95.0,39.0,95.0,642480,334.625
4728,2.0,,,,,39.0,,,,,0,note_on,,95.0,39.0,95.0,642480,334.625
4729,2.0,,,,,39.0,,,,,240,note_off,,95.0,39.0,95.0,642720,334.75
4730,2.0,,,,,49.0,,,,,0,note_on,,95.0,49.0,95.0,642720,334.75
4731,2.0,,,,,42.0,,,,,0,note_on,,95.0,42.0,95.0,642720,334.75
4732,2.0,,,,,49.0,,,,,240,note_off,,95.0,49.0,95.0,642960,334.875
4733,2.0,,,,,42.0,,,,,0,note_off,,95.0,42.0,95.0,642960,334.875
4734,2.0,,,,,48.0,,,,,0,note_on,,95.0,48.0,95.0,642960,334.875
4735,2.0,,,,,41.0,,,,,0,note_on,,95.0,41.0,95.0,642960,334.875
4736,2.0,,,,,48.0,,,,,240,note_off,,95.0,48.0,95.0,643200,335.0
4737,2.0,,,,,41.0,,,,,0,note_off,,95.0,41.0,95.0,643200,335.0
4738,2.0,,,,,47.0,,,,,0,note_on,,95.0,47.0,95.0,643200,335.0
4739,2.0,,,,,40.0,,,,,0,note_on,,95.0,40.0,95.0,643200,335.0
4740,2.0,,,,,47.0,,,,,480,note_off,,95.0,47.0,95.0,643680,335.25
4741,2.0,,,,,40.0,,,,,0,note_off,,95.0,40.0,95.0,643680,335.25
4742,2.0,,,,,48.0,,,,,0,note_on,,95.0,48.0,95.0,643680,335.25
4743,2.0,,,,,41.0,,,,,0,note_on,,95.0,41.0,95.0,643680,335.25
4744,2.0,,,,,48.0,,,,,2880,note_off,,95.0,48.0,95.0,646560,336.75
4745,2.0,,,,,41.0,,,,,0,note_off,,95.0,41.0,95.0,646560,336.75
4746,2.0,,,,,49.0,,,,,0,note_on,,95.0,49.0,95.0,646560,336.75
4747,2.0,,,,,42.0,,,,,0,note_on,,95.0,42.0,95.0,646560,336.75
4748,2.0,,,,,49.0,,,,,960,note_off,,95.0,49.0,95.0,647520,337.25
4749,2.0,,,,,42.0,,,,,0,note_off,,95.0,42.0,95.0,647520,337.25
4750,2.0,,,,,39.0,,,,,0,note_on,,95.0,39.0,95.0,647520,337.25
4751,2.0,,,,,39.0,,,,,240,note_off,,95.0,39.0,95.0,647760,337.375
4752,2.0,,,,,39.0,,,,,0,note_on,,95.0,39.0,95.0,647760,337.375
4753,2.0,,,,,39.0,,,,,240,note_off,,95.0,39.0,95.0,648000,337.5
4754,2.0,,,,,39.0,,,,,0,note_on,,95.0,39.0,95.0,648000,337.5
4755,2.0,,,,,39.0,,,,,240,note_off,,95.0,39.0,95.0,648240,337.625
4756,2.0,,,,,39.0,,,,,0,note_on,,95.0,39.0,95.0,648240,337.625
4757,2.0,,,,,39.0,,,,,240,note_off,,95.0,39.0,95.0,648480,337.75
4758,2.0,,,,,39.0,,,,,0,note_on,,95.0,39.0,95.0,648480,337.75
4759,2.0,,,,,39.0,,,,,240,note_off,,95.0,39.0,95.0,648720,337.875
4760,2.0,,,,,39.0,,,,,0,note_on,,95.0,39.0,95.0,648720,337.875
4761,2.0,,,,,39.0,,,,,240,note_off,,95.0,39.0,95.0,648960,338.0
4762,2.0,,,,,39.0,,,,,0,note_on,,95.0,39.0,95.0,648960,338.0
4763,2.0,,,,,39.0,,,,,240,note_off,,95.0,39.0,95.0,649200,338.125
4764,2.0,,,,,39.0,,,,,0,note_on,,95.0,39.0,95.0,649200,338.125
4765,2.0,,,,,39.0,,,,,240,note_off,,95.0,39.0,95.0,649440,338.25
4766,2.0,,,,,39.0,,,,,0,note_on,,95.0,39.0,95.0,649440,338.25
4767,2.0,,,,,39.0,,,,,240,note_off,,95.0,39.0,95.0,649680,338.375
4768,2.0,,,,,39.0,,,,,0,note_on,,95.0,39.0,95.0,649680,338.375
4769,2.0,,,,,39.0,,,,,240,note_off,,95.0,39.0,95.0,649920,338.5
4770,2.0,,,,,49.0,,,,,0,note_on,,95.0,49.0,95.0,649920,338.5
4771,2.0,,,,,42.0,,,,,0,note_on,,95.0,42.0,95.0,649920,338.5
4772,2.0,,,,,49.0,,,,,480,note_off,,95.0,49.0,95.0,650400,338.75
4773,2.0,,,,,42.0,,,,,0,note_off,,95.0,42.0,95.0,650400,338.75
4774,2.0,,,,,39.0,,,,,0,note_on,,95.0,39.0,95.0,650400,338.75
4775,2.0,,,,,39.0,,,,,240,note_off,,95.0,39.0,95.0,650640,338.875
4776,2.0,,,,,39.0,,,,,0,note_on,,95.0,39.0,95.0,650640,338.875
4777,2.0,,,,,39.0,,,,,240,note_off,,95.0,39.0,95.0,650880,339.0
4778,2.0,,,,,49.0,,,,,0,note_on,,95.0,49.0,95.0,650880,339.0
4779,2.0,,,,,42.0,,,,,0,note_on,,95.0,42.0,95.0,650880,339.0
4780,2.0,,,,,49.0,,,,,480,note_off,,95.0,49.0,95.0,651360,339.25
4781,2.0,,,,,42.0,,,,,0,note_off,,95.0,42.0,95.0,651360,339.25
4782,2.0,,,,,48.0,,,,,0,note_on,,95.0,48.0,95.0,651360,339.25
4783,2.0,,,,,41.0,,,,,0,note_on,,95.0,41.0,95.0,651360,339.25
4784,2.0,,,,,48.0,,,,,2880,note_off,,95.0,48.0,95.0,654240,340.75
4785,2.0,,,,,41.0,,,,,0,note_off,,95.0,41.0,95.0,654240,340.75
4786,2.0,,,,,52.0,,,,,0,note_on,,95.0,52.0,95.0,654240,340.75
4787,2.0,,,,,45.0,,,,,0,note_on,,95.0,45.0,95.0,654240,340.75
4788,2.0,,,,,52.0,,,,,960,note_off,,95.0,52.0,95.0,655200,341.25
4789,2.0,,,,,45.0,,,,,0,note_off,,95.0,45.0,95.0,655200,341.25
4790,2.0,,,,,39.0,,,,,0,note_on,,95.0,39.0,95.0,655200,341.25
4791,2.0,,,,,39.0,,,,,240,note_off,,95.0,39.0,95.0,655440,341.375
4792,2.0,,,,,39.0,,,,,0,note_on,,95.0,39.0,95.0,655440,341.375
4793,2.0,,,,,39.0,,,,,240,note_off,,95.0,39.0,95.0,655680,341.5
4794,2.0,,,,,39.0,,,,,0,note_on,,95.0,39.0,95.0,655680,341.5
4795,2.0,,,,,39.0,,,,,240,note_off,,95.0,39.0,95.0,655920,341.625
4796,2.0,,,,,39.0,,,,,0,note_on,,95.0,39.0,95.0,655920,341.625
4797,2.0,,,,,39.0,,,,,240,note_off,,95.0,39.0,95.0,656160,341.75
4798,2.0,,,,,39.0,,,,,0,note_on,,95.0,39.0,95.0,656160,341.75
4799,2.0,,,,,39.0,,,,,240,note_off,,95.0,39.0,95.0,656400,341.875
4800,2.0,,,,,39.0,,,,,0,note_on,,95.0,39.0,95.0,656400,341.875
4801,2.0,,,,,39.0,,,,,240,note_off,,95.0,39.0,95.0,656640,342.0
4802,2.0,,,,,39.0,,,,,0,note_on,,95.0,39.0,95.0,656640,342.0
4803,2.0,,,,,39.0,,,,,240,note_off,,95.0,39.0,95.0,656880,342.125
4804,2.0,,,,,39.0,,,,,0,note_on,,95.0,39.0,95.0,656880,342.125
4805,2.0,,,,,39.0,,,,,240,note_off,,95.0,39.0,95.0,657120,342.25
4806,2.0,,,,,39.0,,,,,0,note_on,,95.0,39.0,95.0,657120,342.25
4807,2.0,,,,,39.0,,,,,240,note_off,,95.0,39.0,95.0,657360,342.375
4808,2.0,,,,,39.0,,,,,0,note_on,,95.0,39.0,95.0,657360,342.375
4809,2.0,,,,,39.0,,,,,240,note_off,,95.0,39.0,95.0,657600,342.5
4810,2.0,,,,,46.0,,,,,0,note_on,,95.0,46.0,95.0,657600,342.5
4811,2.0,,,,,39.0,,,,,0,note_on,,95.0,39.0,95.0,657600,342.5
4812,2.0,,,,,46.0,,,,,480,note_off,,95.0,46.0,95.0,658080,342.75
4813,2.0,,,,,39.0,,,,,0,note_off,,95.0,39.0,95.0,658080,342.75
4814,2.0,,,,,39.0,,,,,0,note_on,,95.0,39.0,95.0,658080,342.75
4815,2.0,,,,,39.0,,,,,240,note_off,,95.0,39.0,95.0,658320,342.875
4816,2.0,,,,,39.0,,,,,0,note_on,,95.0,39.0,95.0,658320,342.875
4817,2.0,,,,,39.0,,,,,240,note_off,,95.0,39.0,95.0,658560,343.0
4818,2.0,,,,,47.0,,,,,0,note_on,,95.0,47.0,95.0,658560,343.0
4819,2.0,,,,,40.0,,,,,0,note_on,,95.0,40.0,95.0,658560,343.0
4820,2.0,,,,,47.0,,,,,480,note_off,,95.0,47.0,95.0,659040,343.25
4821,2.0,,,,,40.0,,,,,0,note_off,,95.0,40.0,95.0,659040,343.25
4822,2.0,,,,,48.0,,,,,0,note_on,,95.0,48.0,95.0,659040,343.25
4823,2.0,,,,,41.0,,,,,0,note_on,,95.0,41.0,95.0,659040,343.25
4824,2.0,,,,,48.0,,,,,2880,note_off,,95.0,48.0,95.0,661920,344.75
4825,2.0,,,,,41.0,,,,,0,note_off,,95.0,41.0,95.0,661920,344.75
4826,2.0,,,,,49.0,,,,,0,note_on,,95.0,49.0,95.0,661920,344.75
4827,2.0,,,,,42.0,,,,,0,note_on,,95.0,42.0,95.0,661920,344.75
4828,2.0,,,,,49.0,,,,,960,note_off,,95.0,49.0,95.0,662880,345.25
4829,2.0,,,,,42.0,,,,,0,note_off,,95.0,42.0,95.0,662880,345.25
4830,2.0,,,,,39.0,,,,,0,note_on,,95.0,39.0,95.0,662880,345.25
4831,2.0,,,,,39.0,,,,,240,note_off,,95.0,39.0,95.0,663120,345.375
4832,2.0,,,,,39.0,,,,,0,note_on,,95.0,39.0,95.0,663120,345.375
4833,2.0,,,,,39.0,,,,,240,note_off,,95.0,39.0,95.0,663360,345.5
4834,2.0,,,,,39.0,,,,,0,note_on,,95.0,39.0,95.0,663360,345.5
4835,2.0,,,,,39.0,,,,,240,note_off,,95.0,39.0,95.0,663600,345.625
4836,2.0,,,,,39.0,,,,,0,note_on,,95.0,39.0,95.0,663600,345.625
4837,2.0,,,,,39.0,,,,,240,note_off,,95.0,39.0,95.0,663840,345.75
4838,2.0,,,,,39.0,,,,,0,note_on,,95.0,39.0,95.0,663840,345.75
4839,2.0,,,,,39.0,,,,,240,note_off,,95.0,39.0,95.0,664080,345.875
4840,2.0,,,,,39.0,,,,,0,note_on,,95.0,39.0,95.0,664080,345.875
4841,2.0,,,,,39.0,,,,,240,note_off,,95.0,39.0,95.0,664320,346.0
4842,2.0,,,,,39.0,,,,,0,note_on,,95.0,39.0,95.0,664320,346.0
4843,2.0,,,,,39.0,,,,,240,note_off,,95.0,39.0,95.0,664560,346.125
4844,2.0,,,,,39.0,,,,,0,note_on,,95.0,39.0,95.0,664560,346.125
4845,2.0,,,,,39.0,,,,,240,note_off,,95.0,39.0,95.0,664800,346.25
4846,2.0,,,,,39.0,,,,,0,note_on,,95.0,39.0,95.0,664800,346.25
4847,2.0,,,,,39.0,,,,,240,note_off,,95.0,39.0,95.0,665040,346.375
4848,2.0,,,,,39.0,,,,,0,note_on,,95.0,39.0,95.0,665040,346.375
4849,2.0,,,,,39.0,,,,,240,note_off,,95.0,39.0,95.0,665280,346.5
4850,2.0,,,,,49.0,,,,,0,note_on,,95.0,49.0,95.0,665280,346.5
4851,2.0,,,,,42.0,,,,,0,note_on,,95.0,42.0,95.0,665280,346.5
4852,2.0,,,,,49.0,,,,,480,note_off,,95.0,49.0,95.0,665760,346.75
4853,2.0,,,,,42.0,,,,,0,note_off,,95.0,42.0,95.0,665760,346.75
4854,2.0,,,,,39.0,,,,,0,note_on,,95.0,39.0,95.0,665760,346.75
4855,2.0,,,,,39.0,,,,,240,note_off,,95.0,39.0,95.0,666000,346.875
4856,2.0,,,,,39.0,,,,,0,note_on,,95.0,39.0,95.0,666000,346.875
4857,2.0,,,,,39.0,,,,,240,note_off,,95.0,39.0,95.0,666240,347.0
4858,2.0,,,,,49.0,,,,,0,note_on,,95.0,49.0,95.0,666240,347.0
4859,2.0,,,,,42.0,,,,,0,note_on,,95.0,42.0,95.0,666240,347.0
4860,2.0,,,,,49.0,,,,,480,note_off,,95.0,49.0,95.0,666720,347.25
4861,2.0,,,,,42.0,,,,,0,note_off,,95.0,42.0,95.0,666720,347.25
4862,2.0,,,,,48.0,,,,,0,note_on,,95.0,48.0,95.0,666720,347.25
4863,2.0,,,,,41.0,,,,,0,note_on,,95.0,41.0,95.0,666720,347.25
4864,2.0,,,,,48.0,,,,,2880,note_off,,95.0,48.0,95.0,669600,348.75
4865,2.0,,,,,41.0,,,,,0,note_off,,95.0,41.0,95.0,669600,348.75
4866,2.0,,,,,49.0,,,,,0,note_on,,95.0,49.0,95.0,669600,348.75
4867,2.0,,,,,42.0,,,,,0,note_on,,95.0,42.0,95.0,669600,348.75
4868,2.0,,,,,49.0,,,,,240,note_off,,95.0,49.0,95.0,669840,348.875
4869,2.0,,,,,42.0,,,,,0,note_off,,95.0,42.0,95.0,669840,348.875
4870,2.0,,,,,51.0,,,,,0,note_on,,95.0,51.0,95.0,669840,348.875
4871,2.0,,,,,44.0,,,,,0,note_on,,95.0,44.0,95.0,669840,348.875
4872,2.0,,,,,51.0,,,,,720,note_off,,95.0,51.0,95.0,670560,349.25
4873,2.0,,,,,44.0,,,,,0,note_off,,95.0,44.0,95.0,670560,349.25
4874,2.0,,,,,39.0,,,,,0,note_on,,95.0,39.0,95.0,670560,349.25
4875,2.0,,,,,39.0,,,,,240,note_off,,95.0,39.0,95.0,670800,349.375
4876,2.0,,,,,39.0,,,,,240,note_on,,95.0,39.0,95.0,671040,349.5
4877,2.0,,,,,39.0,,,,,240,note_off,,95.0,39.0,95.0,671280,349.625
4878,2.0,,,,,39.0,,,,,0,note_on,,95.0,39.0,95.0,671280,349.625
4879,2.0,,,,,39.0,,,,,240,note_off,,95.0,39.0,95.0,671520,349.75
4880,2.0,,,,,51.0,,,,,0,note_on,,95.0,51.0,95.0,671520,349.75
4881,2.0,,,,,51.0,,,,,240,note_off,,95.0,51.0,95.0,671760,349.875
4882,2.0,,,,,52.0,,,,,0,note_on,,95.0,52.0,95.0,671760,349.875
4883,2.0,,,,,52.0,,,,,720,note_off,,95.0,52.0,95.0,672480,350.25
4884,2.0,,,,,39.0,,,,,0,note_on,,95.0,39.0,95.0,672480,350.25
4885,2.0,,,,,39.0,,,,,240,note_off,,95.0,39.0,95.0,672720,350.375
4886,2.0,,,,,39.0,,,,,240,note_on,,95.0,39.0,95.0,672960,350.5
4887,2.0,,,,,39.0,,,,,240,note_off,,95.0,39.0,95.0,673200,350.625
4888,2.0,,,,,39.0,,,,,0,note_on,,95.0,39.0,95.0,673200,350.625
4889,2.0,,,,,39.0,,,,,240,note_off,,95.0,39.0,95.0,673440,350.75
4890,2.0,,,,,51.0,,,,,0,note_on,,95.0,51.0,95.0,673440,350.75
4891,2.0,,,,,51.0,,,,,240,note_off,,95.0,51.0,95.0,673680,350.875
4892,2.0,,,,,52.0,,,,,0,note_on,,95.0,52.0,95.0,673680,350.875
4893,2.0,,,,,52.0,,,,,240,note_off,,95.0,52.0,95.0,673920,351.0
4894,2.0,,,,,54.0,,,,,0,note_on,,95.0,54.0,95.0,673920,351.0
4895,2.0,,,,,54.0,,,,,480,note_off,,95.0,54.0,95.0,674400,351.25
4896,2.0,,,,,39.0,,,,,0,note_on,,95.0,39.0,95.0,674400,351.25
4897,2.0,,,,,39.0,,,,,240,note_off,,95.0,39.0,95.0,674640,351.375
4898,2.0,,,,,39.0,,,,,240,note_on,,95.0,39.0,95.0,674880,351.5
4899,2.0,,,,,39.0,,,,,240,note_off,,95.0,39.0,95.0,675120,351.625
4900,2.0,,,,,39.0,,,,,0,note_on,,95.0,39.0,95.0,675120,351.625
4901,2.0,,,,,39.0,,,,,240,note_off,,95.0,39.0,95.0,675360,351.75
4902,2.0,,,,,51.0,,,,,0,note_on,,95.0,51.0,95.0,675360,351.75
4903,2.0,,,,,51.0,,,,,240,note_off,,95.0,51.0,95.0,675600,351.875
4904,2.0,,,,,52.0,,,,,0,note_on,,95.0,52.0,95.0,675600,351.875
4905,2.0,,,,,52.0,,,,,240,note_off,,95.0,52.0,95.0,675840,352.0
4906,2.0,,,,,56.0,,,,,0,note_on,,95.0,56.0,95.0,675840,352.0
4907,2.0,,,,,56.0,,,,,480,note_off,,95.0,56.0,95.0,676320,352.25
4908,2.0,,,,,55.0,,,,,0,note_on,,95.0,55.0,95.0,676320,352.25
4909,2.0,,,,,55.0,,,,,240,note_off,,95.0,55.0,95.0,676560,352.375
4910,2.0,,,,,54.0,,,,,0,note_on,,95.0,54.0,95.0,676560,352.375
4911,2.0,,,,,54.0,,,,,240,note_off,,95.0,54.0,95.0,676800,352.5
4912,2.0,,,,,53.0,,,,,0,note_on,,95.0,53.0,95.0,676800,352.5
4913,2.0,,,,,53.0,,,,,240,note_off,,95.0,53.0,95.0,677040,352.625
4914,2.0,,,,,50.0,,,,,0,note_on,,95.0,50.0,95.0,677040,352.625
4915,2.0,,,,,50.0,,,,,240,note_off,,95.0,50.0,95.0,677280,352.75
4916,2.0,,,,,49.0,,,,,0,note_on,,95.0,49.0,95.0,677280,352.75
4917,2.0,,,,,49.0,,,,,240,note_off,,95.0,49.0,95.0,677520,352.875
4918,2.0,,,,,47.0,,,,,0,note_on,,95.0,47.0,95.0,677520,352.875
4919,2.0,,,,,47.0,,,,,240,note_off,,95.0,47.0,95.0,677760,353.0
4920,2.0,,,,,46.0,,,,,0,note_on,,95.0,46.0,95.0,677760,353.0
4921,2.0,,,,,46.0,,,,,240,note_off,,95.0,46.0,95.0,678000,353.125
4922,2.0,,,,,45.0,,,,,0,note_on,,95.0,45.0,95.0,678000,353.125
4923,2.0,,,,,45.0,,,,,240,note_off,,95.0,45.0,95.0,678240,353.25
4924,2.0,,,,,39.0,,,,,0,note_on,,95.0,39.0,95.0,678240,353.25
4925,2.0,,,,,39.0,,,,,240,note_off,,95.0,39.0,95.0,678480,353.375
4926,2.0,,,,,39.0,,,,,240,note_on,,95.0,39.0,95.0,678720,353.5
4927,2.0,,,,,39.0,,,,,240,note_off,,95.0,39.0,95.0,678960,353.625
4928,2.0,,,,,39.0,,,,,0,note_on,,95.0,39.0,95.0,678960,353.625
4929,2.0,,,,,39.0,,,,,240,note_off,,95.0,39.0,95.0,679200,353.75
4930,2.0,,,,,51.0,,,,,0,note_on,,95.0,51.0,95.0,679200,353.75
4931,2.0,,,,,51.0,,,,,240,note_off,,95.0,51.0,95.0,679440,353.875
4932,2.0,,,,,52.0,,,,,0,note_on,,95.0,52.0,95.0,679440,353.875
4933,2.0,,,,,52.0,,,,,720,note_off,,95.0,52.0,95.0,680160,354.25
4934,2.0,,,,,39.0,,,,,0,note_on,,95.0,39.0,95.0,680160,354.25
4935,2.0,,,,,39.0,,,,,240,note_off,,95.0,39.0,95.0,680400,354.375
4936,2.0,,,,,39.0,,,,,240,note_on,,95.0,39.0,95.0,680640,354.5
4937,2.0,,,,,39.0,,,,,240,note_off,,95.0,39.0,95.0,680880,354.625
4938,2.0,,,,,39.0,,,,,0,note_on,,95.0,39.0,95.0,680880,354.625
4939,2.0,,,,,39.0,,,,,240,note_off,,95.0,39.0,95.0,681120,354.75
4940,2.0,,,,,51.0,,,,,0,note_on,,95.0,51.0,95.0,681120,354.75
4941,2.0,,,,,51.0,,,,,240,note_off,,95.0,51.0,95.0,681360,354.875
4942,2.0,,,,,52.0,,,,,0,note_on,,95.0,52.0,95.0,681360,354.875
4943,2.0,,,,,52.0,,,,,240,note_off,,95.0,52.0,95.0,681600,355.0
4944,2.0,,,,,54.0,,,,,0,note_on,,95.0,54.0,95.0,681600,355.0
4945,2.0,,,,,54.0,,,,,480,note_off,,95.0,54.0,95.0,682080,355.25
4946,2.0,,,,,39.0,,,,,0,note_on,,95.0,39.0,95.0,682080,355.25
4947,2.0,,,,,39.0,,,,,240,note_off,,95.0,39.0,95.0,682320,355.375
4948,2.0,,,,,39.0,,,,,240,note_on,,95.0,39.0,95.0,682560,355.5
4949,2.0,,,,,39.0,,,,,240,note_off,,95.0,39.0,95.0,682800,355.625
4950,2.0,,,,,39.0,,,,,0,note_on,,95.0,39.0,95.0,682800,355.625
4951,2.0,,,,,39.0,,,,,240,note_off,,95.0,39.0,95.0,683040,355.75
4952,2.0,,,,,51.0,,,,,0,note_on,,95.0,51.0,95.0,683040,355.75
4953,2.0,,,,,51.0,,,,,240,note_off,,95.0,51.0,95.0,683280,355.875
4954,2.0,,,,,52.0,,,,,0,note_on,,95.0,52.0,95.0,683280,355.875
4955,2.0,,,,,52.0,,,,,240,note_off,,95.0,52.0,95.0,683520,356.0
4956,2.0,,,,,56.0,,,,,0,note_on,,95.0,56.0,95.0,683520,356.0
4957,2.0,,,,,56.0,,,,,480,note_off,,95.0,56.0,95.0,684000,356.25
4958,2.0,,,,,55.0,,,,,0,note_on,,95.0,55.0,95.0,684000,356.25
4959,2.0,,,,,55.0,,,,,240,note_off,,95.0,55.0,95.0,684240,356.375
4960,2.0,,,,,54.0,,,,,0,note_on,,95.0,54.0,95.0,684240,356.375
4961,2.0,,,,,54.0,,,,,240,note_off,,95.0,54.0,95.0,684480,356.5
4962,2.0,,,,,53.0,,,,,0,note_on,,95.0,53.0,95.0,684480,356.5
4963,2.0,,,,,53.0,,,,,240,note_off,,95.0,53.0,95.0,684720,356.625
4964,2.0,,,,,50.0,,,,,0,note_on,,95.0,50.0,95.0,684720,356.625
4965,2.0,,,,,50.0,,,,,240,note_off,,95.0,50.0,95.0,684960,356.75
4966,2.0,,,,,49.0,,,,,0,note_on,,95.0,49.0,95.0,684960,356.75
4967,2.0,,,,,49.0,,,,,240,note_off,,95.0,49.0,95.0,685200,356.875
4968,2.0,,,,,48.0,,,,,0,note_on,,95.0,48.0,95.0,685200,356.875
4969,2.0,,,,,48.0,,,,,240,note_off,,95.0,48.0,95.0,685440,357.0
4970,2.0,,,,,57.0,,,,,0,note_on,,95.0,57.0,95.0,685440,357.0
4971,2.0,,,,,57.0,,,,,480,note_off,,95.0,57.0,95.0,685920,357.25
4972,2.0,,,,,39.0,,,,,0,note_on,,95.0,39.0,95.0,685920,357.25
4973,2.0,,,,,39.0,,,,,240,note_off,,95.0,39.0,95.0,686160,357.375
4974,2.0,,,,,39.0,,,,,240,note_on,,95.0,39.0,95.0,686400,357.5
4975,2.0,,,,,39.0,,,,,240,note_off,,95.0,39.0,95.0,686640,357.625
4976,2.0,,,,,39.0,,,,,0,note_on,,95.0,39.0,95.0,686640,357.625
4977,2.0,,,,,39.0,,,,,240,note_off,,95.0,39.0,95.0,686880,357.75
4978,2.0,,,,,51.0,,,,,0,note_on,,95.0,51.0,95.0,686880,357.75
4979,2.0,,,,,51.0,,,,,240,note_off,,95.0,51.0,95.0,687120,357.875
4980,2.0,,,,,52.0,,,,,0,note_on,,95.0,52.0,95.0,687120,357.875
4981,2.0,,,,,52.0,,,,,720,note_off,,95.0,52.0,95.0,687840,358.25
4982,2.0,,,,,39.0,,,,,0,note_on,,95.0,39.0,95.0,687840,358.25
4983,2.0,,,,,39.0,,,,,240,note_off,,95.0,39.0,95.0,688080,358.375
4984,2.0,,,,,39.0,,,,,240,note_on,,95.0,39.0,95.0,688320,358.5
4985,2.0,,,,,39.0,,,,,240,note_off,,95.0,39.0,95.0,688560,358.625
4986,2.0,,,,,39.0,,,,,0,note_on,,95.0,39.0,95.0,688560,358.625
4987,2.0,,,,,39.0,,,,,240,note_off,,95.0,39.0,95.0,688800,358.75
4988,2.0,,,,,51.0,,,,,0,note_on,,95.0,51.0,95.0,688800,358.75
4989,2.0,,,,,51.0,,,,,240,note_off,,95.0,51.0,95.0,689040,358.875
4990,2.0,,,,,52.0,,,,,0,note_on,,95.0,52.0,95.0,689040,358.875
4991,2.0,,,,,52.0,,,,,240,note_off,,95.0,52.0,95.0,689280,359.0
4992,2.0,,,,,54.0,,,,,0,note_on,,95.0,54.0,95.0,689280,359.0
4993,2.0,,,,,54.0,,,,,480,note_off,,95.0,54.0,95.0,689760,359.25
4994,2.0,,,,,39.0,,,,,0,note_on,,95.0,39.0,95.0,689760,359.25
4995,2.0,,,,,39.0,,,,,240,note_off,,95.0,39.0,95.0,690000,359.375
4996,2.0,,,,,39.0,,,,,240,note_on,,95.0,39.0,95.0,690240,359.5
4997,2.0,,,,,39.0,,,,,240,note_off,,95.0,39.0,95.0,690480,359.625
4998,2.0,,,,,39.0,,,,,0,note_on,,95.0,39.0,95.0,690480,359.625
4999,2.0,,,,,39.0,,,,,240,note_off,,95.0,39.0,95.0,690720,359.75
5000,2.0,,,,,51.0,,,,,0,note_on,,95.0,51.0,95.0,690720,359.75
5001,2.0,,,,,51.0,,,,,240,note_off,,95.0,51.0,95.0,690960,359.875
5002,2.0,,,,,52.0,,,,,0,note_on,,95.0,52.0,95.0,690960,359.875
5003,2.0,,,,,52.0,,,,,240,note_off,,95.0,52.0,95.0,691200,360.0
5004,2.0,,,,,56.0,,,,,0,note_on,,95.0,56.0,95.0,691200,360.0
5005,2.0,,,,,56.0,,,,,480,note_off,,95.0,56.0,95.0,691680,360.25
5006,2.0,,,,,55.0,,,,,0,note_on,,95.0,55.0,95.0,691680,360.25
5007,2.0,,,,,55.0,,,,,240,note_off,,95.0,55.0,95.0,691920,360.375
5008,2.0,,,,,54.0,,,,,0,note_on,,95.0,54.0,95.0,691920,360.375
5009,2.0,,,,,54.0,,,,,240,note_off,,95.0,54.0,95.0,692160,360.5
5010,2.0,,,,,53.0,,,,,0,note_on,,95.0,53.0,95.0,692160,360.5
5011,2.0,,,,,53.0,,,,,240,note_off,,95.0,53.0,95.0,692400,360.625
5012,2.0,,,,,50.0,,,,,0,note_on,,95.0,50.0,95.0,692400,360.625
5013,2.0,,,,,50.0,,,,,240,note_off,,95.0,50.0,95.0,692640,360.75
5014,2.0,,,,,49.0,,,,,0,note_on,,95.0,49.0,95.0,692640,360.75
5015,2.0,,,,,49.0,,,,,240,note_off,,95.0,49.0,95.0,692880,360.875
5016,2.0,,,,,47.0,,,,,0,note_on,,95.0,47.0,95.0,692880,360.875
5017,2.0,,,,,47.0,,,,,240,note_off,,95.0,47.0,95.0,693120,361.0
5018,2.0,,,,,46.0,,,,,0,note_on,,95.0,46.0,95.0,693120,361.0
5019,2.0,,,,,46.0,,,,,240,note_off,,95.0,46.0,95.0,693360,361.125
5020,2.0,,,,,45.0,,,,,0,note_on,,95.0,45.0,95.0,693360,361.125
5021,2.0,,,,,45.0,,,,,240,note_off,,95.0,45.0,95.0,693600,361.25
5022,2.0,,,,,39.0,,,,,0,note_on,,95.0,39.0,95.0,693600,361.25
5023,2.0,,,,,39.0,,,,,240,note_off,,95.0,39.0,95.0,693840,361.375
5024,2.0,,,,,39.0,,,,,240,note_on,,95.0,39.0,95.0,694080,361.5
5025,2.0,,,,,39.0,,,,,240,note_off,,95.0,39.0,95.0,694320,361.625
5026,2.0,,,,,39.0,,,,,0,note_on,,95.0,39.0,95.0,694320,361.625
5027,2.0,,,,,39.0,,,,,240,note_off,,95.0,39.0,95.0,694560,361.75
5028,2.0,,,,,51.0,,,,,0,note_on,,95.0,51.0,95.0,694560,361.75
5029,2.0,,,,,51.0,,,,,240,note_off,,95.0,51.0,95.0,694800,361.875
5030,2.0,,,,,52.0,,,,,0,note_on,,95.0,52.0,95.0,694800,361.875
5031,2.0,,,,,52.0,,,,,720,note_off,,95.0,52.0,95.0,695520,362.25
5032,2.0,,,,,39.0,,,,,0,note_on,,95.0,39.0,95.0,695520,362.25
5033,2.0,,,,,39.0,,,,,240,note_off,,95.0,39.0,95.0,695760,362.375
5034,2.0,,,,,39.0,,,,,240,note_on,,95.0,39.0,95.0,696000,362.5
5035,2.0,,,,,39.0,,,,,240,note_off,,95.0,39.0,95.0,696240,362.625
5036,2.0,,,,,39.0,,,,,0,note_on,,95.0,39.0,95.0,696240,362.625
5037,2.0,,,,,39.0,,,,,240,note_off,,95.0,39.0,95.0,696480,362.75
5038,2.0,,,,,51.0,,,,,0,note_on,,95.0,51.0,95.0,696480,362.75
5039,2.0,,,,,51.0,,,,,240,note_off,,95.0,51.0,95.0,696720,362.875
5040,2.0,,,,,52.0,,,,,0,note_on,,95.0,52.0,95.0,696720,362.875
5041,2.0,,,,,52.0,,,,,240,note_off,,95.0,52.0,95.0,696960,363.0
5042,2.0,,,,,54.0,,,,,0,note_on,,95.0,54.0,95.0,696960,363.0
5043,2.0,,,,,54.0,,,,,480,note_off,,95.0,54.0,95.0,697440,363.25
5044,2.0,,,,,39.0,,,,,0,note_on,,95.0,39.0,95.0,697440,363.25
5045,2.0,,,,,39.0,,,,,240,note_off,,95.0,39.0,95.0,697680,363.375
5046,2.0,,,,,39.0,,,,,240,note_on,,95.0,39.0,95.0,697920,363.5
5047,2.0,,,,,39.0,,,,,240,note_off,,95.0,39.0,95.0,698160,363.625
5048,2.0,,,,,39.0,,,,,0,note_on,,95.0,39.0,95.0,698160,363.625
5049,2.0,,,,,39.0,,,,,240,note_off,,95.0,39.0,95.0,698400,363.75
5050,2.0,,,,,51.0,,,,,0,note_on,,95.0,51.0,95.0,698400,363.75
5051,2.0,,,,,51.0,,,,,240,note_off,,95.0,51.0,95.0,698640,363.875
5052,2.0,,,,,52.0,,,,,0,note_on,,95.0,52.0,95.0,698640,363.875
5053,2.0,,,,,52.0,,,,,240,note_off,,95.0,52.0,95.0,698880,364.0
5054,2.0,,,,,56.0,,,,,0,note_on,,95.0,56.0,95.0,698880,364.0
5055,2.0,,,,,56.0,,,,,480,note_off,,95.0,56.0,95.0,699360,364.25
5056,2.0,,,,,55.0,,,,,0,note_on,,95.0,55.0,95.0,699360,364.25
5057,2.0,,,,,55.0,,,,,240,note_off,,95.0,55.0,95.0,699600,364.375
5058,2.0,,,,,54.0,,,,,0,note_on,,95.0,54.0,95.0,699600,364.375
5059,2.0,,,,,54.0,,,,,240,note_off,,95.0,54.0,95.0,699840,364.5
5060,2.0,,,,,53.0,,,,,0,note_on,,95.0,53.0,95.0,699840,364.5
5061,2.0,,,,,53.0,,,,,240,note_off,,95.0,53.0,95.0,700080,364.625
5062,2.0,,,,,49.0,,,,,0,note_on,,95.0,49.0,95.0,700080,364.625
5063,2.0,,,,,49.0,,,,,240,note_off,,95.0,49.0,95.0,700320,364.75
5064,2.0,,,,,48.0,,,,,0,note_on,,95.0,48.0,95.0,700320,364.75
5065,2.0,,,,,48.0,,,,,240,note_off,,95.0,48.0,95.0,700560,364.875
5066,2.0,,,,,47.0,,,,,0,note_on,,95.0,47.0,95.0,700560,364.875
5067,2.0,,,,,47.0,,,,,240,note_off,,95.0,47.0,95.0,700800,365.0
5068,2.0,,,,,43.0,,,,,0,note_on,,95.0,43.0,95.0,700800,365.0
5069,2.0,,,,,43.0,,,,,240,note_off,,95.0,43.0,95.0,701040,365.125
5070,2.0,,,,,42.0,,,,,0,note_on,,95.0,42.0,95.0,701040,365.125
5071,2.0,,,,,42.0,,,,,240,note_off,,95.0,42.0,95.0,701280,365.25
5072,3.0,,,,,,,0.0,,,0,pitchwheel,,,,,701280,365.25
5073,3.0,,,,,79.0,,,,,0,note_on,,95.0,79.0,95.0,701280,365.25
5074,3.0,,,,,,,0.0,,,0,pitchwheel,,,,,701280,365.25
5075,3.0,,,,,75.0,,,,,0,note_on,,95.0,75.0,95.0,701280,365.25
5076,3.0,,,,,,,128.0,,,43,pitchwheel,,,,,701323,365.27239583333335
5077,3.0,,,,,,,256.0,,,43,pitchwheel,,,,,701366,365.29479166666664
5078,3.0,,,,,,,128.0,,,10,pitchwheel,,,,,701376,365.3
5079,3.0,,,,,,,384.0,,,33,pitchwheel,,,,,701409,365.3171875
5080,3.0,,,,,,,512.0,,,43,pitchwheel,,,,,701452,365.33958333333334
5081,3.0,,,,,,,256.0,,,20,pitchwheel,,,,,701472,365.35
5082,3.0,,,,,,,640.0,,,23,pitchwheel,,,,,701495,365.3619791666667
5083,3.0,,,,,,,768.0,,,43,pitchwheel,,,,,701538,365.384375
5084,3.0,,,,,,,384.0,,,30,pitchwheel,,,,,701568,365.4
5085,3.0,,,,,,,896.0,,,13,pitchwheel,,,,,701581,365.4067708333333
5086,3.0,,,,,,,1024.0,,,43,pitchwheel,,,,,701624,365.4291666666667
5087,3.0,,,,,,,512.0,,,40,pitchwheel,,,,,701664,365.45
5088,3.0,,,,,,,1152.0,,,3,pitchwheel,,,,,701667,365.4515625
5089,3.0,,,,,,,1280.0,,,43,pitchwheel,,,,,701710,365.4739583333333
5090,3.0,,,,,,,1408.0,,,43,pitchwheel,,,,,701753,365.49635416666666
5091,3.0,,,,,,,640.0,,,7,pitchwheel,,,,,701760,365.5
5092,3.0,,,,,,,640.0,,,0,pitchwheel,,,,,701760,365.5
5093,3.0,,,,,,,1408.0,,,0,pitchwheel,,,,,701760,365.5
5094,3.0,,,,,,,640.0,,,480,pitchwheel,,,,,702240,365.75
5095,3.0,,,,,,,0.0,,,0,pitchwheel,,,,,702240,365.75
5096,3.0,,,,,79.0,,,,,0,note_off,,95.0,79.0,95.0,702240,365.75
5097,3.0,,,,,,,1408.0,,,0,pitchwheel,,,,,702240,365.75
5098,3.0,,,,,,,0.0,,,0,pitchwheel,,,,,702240,365.75
5099,3.0,,,,,75.0,,,,,0,note_off,,95.0,75.0,95.0,702240,365.75
5100,3.0,,,,,,,0.0,,,0,pitchwheel,,,,,702240,365.75
5101,3.0,,,,,79.0,,,,,0,note_on,,95.0,79.0,95.0,702240,365.75
5102,3.0,,,,,,,0.0,,,0,pitchwheel,,,,,702240,365.75
5103,3.0,,,,,75.0,,,,,0,note_on,,95.0,75.0,95.0,702240,365.75
5104,3.0,,,,,,,128.0,,,43,pitchwheel,,,,,702283,365.77239583333335
5105,3.0,,,,,,,256.0,,,43,pitchwheel,,,,,702326,365.79479166666664
5106,3.0,,,,,,,128.0,,,10,pitchwheel,,,,,702336,365.8
5107,3.0,,,,,,,384.0,,,33,pitchwheel,,,,,702369,365.8171875
5108,3.0,,,,,,,512.0,,,43,pitchwheel,,,,,702412,365.83958333333334
5109,3.0,,,,,,,256.0,,,20,pitchwheel,,,,,702432,365.85
5110,3.0,,,,,,,640.0,,,23,pitchwheel,,,,,702455,365.8619791666667
5111,3.0,,,,,,,768.0,,,43,pitchwheel,,,,,702498,365.884375
5112,3.0,,,,,,,384.0,,,30,pitchwheel,,,,,702528,365.9
5113,3.0,,,,,,,896.0,,,13,pitchwheel,,,,,702541,365.9067708333333
5114,3.0,,,,,,,1024.0,,,43,pitchwheel,,,,,702584,365.9291666666667
5115,3.0,,,,,,,512.0,,,40,pitchwheel,,,,,702624,365.95
5116,3.0,,,,,,,1152.0,,,3,pitchwheel,,,,,702627,365.9515625
5117,3.0,,,,,,,1280.0,,,43,pitchwheel,,,,,702670,365.9739583333333
5118,3.0,,,,,,,1408.0,,,43,pitchwheel,,,,,702713,365.99635416666666
5119,3.0,,,,,,,640.0,,,7,pitchwheel,,,,,702720,366.0
5120,3.0,,,,,,,640.0,,,0,pitchwheel,,,,,702720,366.0
5121,3.0,,,,,,,1408.0,,,0,pitchwheel,,,,,702720,366.0
5122,3.0,,,,,,,640.0,,,480,pitchwheel,,,,,703200,366.25
5123,3.0,,,,,,,0.0,,,0,pitchwheel,,,,,703200,366.25
5124,3.0,,,,,79.0,,,,,0,note_off,,95.0,79.0,95.0,703200,366.25
5125,3.0,,,,,,,1408.0,,,0,pitchwheel,,,,,703200,366.25
5126,3.0,,,,,,,0.0,,,0,pitchwheel,,,,,703200,366.25
5127,3.0,,,,,75.0,,,,,0,note_off,,95.0,75.0,95.0,703200,366.25
5128,3.0,,,,,,,0.0,,,0,pitchwheel,,,,,703200,366.25
5129,3.0,,,,,79.0,,,,,0,note_on,,95.0,79.0,95.0,703200,366.25
5130,3.0,,,,,,,0.0,,,0,pitchwheel,,,,,703200,366.25
5131,3.0,,,,,75.0,,,,,0,note_on,,95.0,75.0,95.0,703200,366.25
5132,3.0,,,,,,,128.0,,,43,pitchwheel,,,,,703243,366.27239583333335
5133,3.0,,,,,,,256.0,,,43,pitchwheel,,,,,703286,366.29479166666664
5134,3.0,,,,,,,128.0,,,10,pitchwheel,,,,,703296,366.3
5135,3.0,,,,,,,384.0,,,33,pitchwheel,,,,,703329,366.3171875
5136,3.0,,,,,,,512.0,,,43,pitchwheel,,,,,703372,366.33958333333334
5137,3.0,,,,,,,256.0,,,20,pitchwheel,,,,,703392,366.35
5138,3.0,,,,,,,640.0,,,23,pitchwheel,,,,,703415,366.3619791666667
5139,3.0,,,,,,,768.0,,,43,pitchwheel,,,,,703458,366.384375
5140,3.0,,,,,,,384.0,,,30,pitchwheel,,,,,703488,366.4
5141,3.0,,,,,,,896.0,,,13,pitchwheel,,,,,703501,366.4067708333333
5142,3.0,,,,,,,1024.0,,,43,pitchwheel,,,,,703544,366.4291666666667
5143,3.0,,,,,,,512.0,,,40,pitchwheel,,,,,703584,366.45
5144,3.0,,,,,,,1152.0,,,3,pitchwheel,,,,,703587,366.4515625
5145,3.0,,,,,,,1280.0,,,43,pitchwheel,,,,,703630,366.4739583333333
5146,3.0,,,,,,,1408.0,,,43,pitchwheel,,,,,703673,366.49635416666666
5147,3.0,,,,,,,640.0,,,7,pitchwheel,,,,,703680,366.5
5148,3.0,,,,,,,640.0,,,0,pitchwheel,,,,,703680,366.5
5149,3.0,,,,,,,1408.0,,,0,pitchwheel,,,,,703680,366.5
5150,3.0,,,,,,,640.0,,,480,pitchwheel,,,,,704160,366.75
5151,3.0,,,,,,,0.0,,,0,pitchwheel,,,,,704160,366.75
5152,3.0,,,,,79.0,,,,,0,note_off,,95.0,79.0,95.0,704160,366.75
5153,3.0,,,,,,,1408.0,,,0,pitchwheel,,,,,704160,366.75
5154,3.0,,,,,,,0.0,,,0,pitchwheel,,,,,704160,366.75
5155,3.0,,,,,75.0,,,,,0,note_off,,95.0,75.0,95.0,704160,366.75
5156,3.0,,,,,,,0.0,,,0,pitchwheel,,,,,704160,366.75
5157,3.0,,,,,79.0,,,,,0,note_on,,95.0,79.0,95.0,704160,366.75
5158,3.0,,,,,,,0.0,,,0,pitchwheel,,,,,704160,366.75
5159,3.0,,,,,75.0,,,,,0,note_on,,95.0,75.0,95.0,704160,366.75
5160,3.0,,,,,,,128.0,,,43,pitchwheel,,,,,704203,366.77239583333335
5161,3.0,,,,,,,128.0,,,0,pitchwheel,,,,,704203,366.77239583333335
5162,3.0,,,,,,,256.0,,,43,pitchwheel,,,,,704246,366.79479166666664
5163,3.0,,,,,,,256.0,,,0,pitchwheel,,,,,704246,366.79479166666664
5164,3.0,,,,,,,384.0,,,43,pitchwheel,,,,,704289,366.8171875
5165,3.0,,,,,,,384.0,,,0,pitchwheel,,,,,704289,366.8171875
5166,3.0,,,,,,,512.0,,,43,pitchwheel,,,,,704332,366.83958333333334
5167,3.0,,,,,,,512.0,,,0,pitchwheel,,,,,704332,366.83958333333334
5168,3.0,,,,,,,640.0,,,43,pitchwheel,,,,,704375,366.8619791666667
5169,3.0,,,,,,,640.0,,,0,pitchwheel,,,,,704375,366.8619791666667
5170,3.0,,,,,,,768.0,,,43,pitchwheel,,,,,704418,366.884375
5171,3.0,,,,,,,768.0,,,0,pitchwheel,,,,,704418,366.884375
5172,3.0,,,,,,,896.0,,,43,pitchwheel,,,,,704461,366.9067708333333
5173,3.0,,,,,,,896.0,,,0,pitchwheel,,,,,704461,366.9067708333333
5174,3.0,,,,,,,1024.0,,,43,pitchwheel,,,,,704504,366.9291666666667
5175,3.0,,,,,,,1024.0,,,0,pitchwheel,,,,,704504,366.9291666666667
5176,3.0,,,,,,,1152.0,,,43,pitchwheel,,,,,704547,366.9515625
5177,3.0,,,,,,,1152.0,,,0,pitchwheel,,,,,704547,366.9515625
5178,3.0,,,,,,,1280.0,,,43,pitchwheel,,,,,704590,366.9739583333333
5179,3.0,,,,,,,1280.0,,,0,pitchwheel,,,,,704590,366.9739583333333
5180,3.0,,,,,,,1408.0,,,43,pitchwheel,,,,,704633,366.99635416666666
5181,3.0,,,,,,,1408.0,,,0,pitchwheel,,,,,704633,366.99635416666666
5182,3.0,,,,,,,1536.0,,,43,pitchwheel,,,,,704676,367.01875
5183,3.0,,,,,,,1536.0,,,0,pitchwheel,,,,,704676,367.01875
5184,3.0,,,,,,,1664.0,,,43,pitchwheel,,,,,704719,367.0411458333333
5185,3.0,,,,,,,1664.0,,,0,pitchwheel,,,,,704719,367.0411458333333
5186,3.0,,,,,,,1792.0,,,43,pitchwheel,,,,,704762,367.06354166666665
5187,3.0,,,,,,,1792.0,,,0,pitchwheel,,,,,704762,367.06354166666665
5188,3.0,,,,,,,1920.0,,,43,pitchwheel,,,,,704805,367.0859375
5189,3.0,,,,,,,1920.0,,,0,pitchwheel,,,,,704805,367.0859375
5190,3.0,,,,,,,2048.0,,,43,pitchwheel,,,,,704848,367.10833333333335
5191,3.0,,,,,,,2048.0,,,0,pitchwheel,,,,,704848,367.10833333333335
5192,3.0,,,,,,,2176.0,,,43,pitchwheel,,,,,704891,367.13072916666664
5193,3.0,,,,,,,2176.0,,,0,pitchwheel,,,,,704891,367.13072916666664
5194,3.0,,,,,,,2304.0,,,43,pitchwheel,,,,,704934,367.153125
5195,3.0,,,,,,,2304.0,,,0,pitchwheel,,,,,704934,367.153125
5196,3.0,,,,,,,2432.0,,,43,pitchwheel,,,,,704977,367.17552083333334
5197,3.0,,,,,,,2432.0,,,0,pitchwheel,,,,,704977,367.17552083333334
5198,3.0,,,,,,,2560.0,,,43,pitchwheel,,,,,705020,367.1979166666667
5199,3.0,,,,,,,2560.0,,,0,pitchwheel,,,,,705020,367.1979166666667
5200,3.0,,,,,,,2688.0,,,43,pitchwheel,,,,,705063,367.2203125
5201,3.0,,,,,,,2688.0,,,0,pitchwheel,,,,,705063,367.2203125
5202,3.0,,,,,,,2816.0,,,43,pitchwheel,,,,,705106,367.2427083333333
5203,3.0,,,,,,,2816.0,,,0,pitchwheel,,,,,705106,367.2427083333333
5204,3.0,,,,,,,2816.0,,,14,pitchwheel,,,,,705120,367.25
5205,3.0,,,,,,,2816.0,,,0,pitchwheel,,,,,705120,367.25
5206,3.0,,,,,,,2816.0,,,960,pitchwheel,,,,,706080,367.75
5207,3.0,,,,,,,0.0,,,0,pitchwheel,,,,,706080,367.75
5208,3.0,,,,,79.0,,,,,0,note_off,,95.0,79.0,95.0,706080,367.75
5209,3.0,,,,,,,2816.0,,,0,pitchwheel,,,,,706080,367.75
5210,3.0,,,,,,,0.0,,,0,pitchwheel,,,,,706080,367.75
5211,3.0,,,,,75.0,,,,,0,note_off,,95.0,75.0,95.0,706080,367.75
5212,3.0,,,,,,,0.0,,,0,pitchwheel,,,,,706080,367.75
5213,3.0,,,,,79.0,,,,,0,note_on,,95.0,79.0,95.0,706080,367.75
5214,3.0,,,,,,,0.0,,,0,pitchwheel,,,,,706080,367.75
5215,3.0,,,,,75.0,,,,,0,note_on,,95.0,75.0,95.0,706080,367.75
5216,3.0,,,,,,,128.0,,,21,pitchwheel,,,,,706101,367.7609375
5217,3.0,,,,,,,128.0,,,0,pitchwheel,,,,,706101,367.7609375
5218,3.0,,,,,,,256.0,,,21,pitchwheel,,,,,706122,367.771875
5219,3.0,,,,,,,256.0,,,0,pitchwheel,,,,,706122,367.771875
5220,3.0,,,,,,,384.0,,,21,pitchwheel,,,,,706143,367.7828125
5221,3.0,,,,,,,384.0,,,0,pitchwheel,,,,,706143,367.7828125
5222,3.0,,,,,,,512.0,,,21,pitchwheel,,,,,706164,367.79375
5223,3.0,,,,,,,512.0,,,0,pitchwheel,,,,,706164,367.79375
5224,3.0,,,,,,,640.0,,,21,pitchwheel,,,,,706185,367.8046875
5225,3.0,,,,,,,640.0,,,0,pitchwheel,,,,,706185,367.8046875
5226,3.0,,,,,,,768.0,,,21,pitchwheel,,,,,706206,367.815625
5227,3.0,,,,,,,768.0,,,0,pitchwheel,,,,,706206,367.815625
5228,3.0,,,,,,,896.0,,,21,pitchwheel,,,,,706227,367.8265625
5229,3.0,,,,,,,896.0,,,0,pitchwheel,,,,,706227,367.8265625
5230,3.0,,,,,,,1024.0,,,21,pitchwheel,,,,,706248,367.8375
5231,3.0,,,,,,,1024.0,,,0,pitchwheel,,,,,706248,367.8375
5232,3.0,,,,,,,1152.0,,,21,pitchwheel,,,,,706269,367.8484375
5233,3.0,,,,,,,1152.0,,,0,pitchwheel,,,,,706269,367.8484375
5234,3.0,,,,,,,1280.0,,,21,pitchwheel,,,,,706290,367.859375
5235,3.0,,,,,,,1280.0,,,0,pitchwheel,,,,,706290,367.859375
5236,3.0,,,,,,,1408.0,,,21,pitchwheel,,,,,706311,367.8703125
5237,3.0,,,,,,,1408.0,,,0,pitchwheel,,,,,706311,367.8703125
5238,3.0,,,,,,,1408.0,,,9,pitchwheel,,,,,706320,367.875
5239,3.0,,,,,,,1408.0,,,0,pitchwheel,,,,,706320,367.875
5240,3.0,,,,,,,1408.0,,,240,pitchwheel,,,,,706560,368.0
5241,3.0,,,,,,,0.0,,,0,pitchwheel,,,,,706560,368.0
5242,3.0,,,,,79.0,,,,,0,note_off,,95.0,79.0,95.0,706560,368.0
5243,3.0,,,,,,,1408.0,,,0,pitchwheel,,,,,706560,368.0
5244,3.0,,,,,,,0.0,,,0,pitchwheel,,,,,706560,368.0
5245,3.0,,,,,75.0,,,,,0,note_off,,95.0,75.0,95.0,706560,368.0
5246,3.0,,,,,,,0.0,,,0,pitchwheel,,,,,706560,368.0
5247,3.0,,,,,79.0,,,,,0,note_on,,95.0,79.0,95.0,706560,368.0
5248,3.0,,,,,,,0.0,,,0,pitchwheel,,,,,706560,368.0
5249,3.0,,,,,75.0,,,,,0,note_on,,95.0,75.0,95.0,706560,368.0
5250,3.0,,,,,,,-128.0,,,48,pitchwheel,,,,,706608,368.025
5251,3.0,,,,,,,-128.0,,,0,pitchwheel,,,,,706608,368.025
5252,3.0,,,,,,,-256.0,,,48,pitchwheel,,,,,706656,368.05
5253,3.0,,,,,,,-256.0,,,0,pitchwheel,,,,,706656,368.05
5254,3.0,,,,,,,-384.0,,,48,pitchwheel,,,,,706704,368.075
5255,3.0,,,,,,,-384.0,,,0,pitchwheel,,,,,706704,368.075
5256,3.0,,,,,,,-512.0,,,48,pitchwheel,,,,,706752,368.1
5257,3.0,,,,,,,-512.0,,,0,pitchwheel,,,,,706752,368.1
5258,3.0,,,,,,,-640.0,,,48,pitchwheel,,,,,706800,368.125
5259,3.0,,,,,,,-640.0,,,0,pitchwheel,,,,,706800,368.125
5260,3.0,,,,,,,-640.0,,,0,pitchwheel,,,,,706800,368.125
5261,3.0,,,,,,,-640.0,,,0,pitchwheel,,,,,706800,368.125
5262,3.0,,,,,,,-512.0,,,48,pitchwheel,,,,,706848,368.15
5263,3.0,,,,,,,-512.0,,,0,pitchwheel,,,,,706848,368.15
5264,3.0,,,,,,,-384.0,,,48,pitchwheel,,,,,706896,368.175
5265,3.0,,,,,,,-384.0,,,0,pitchwheel,,,,,706896,368.175
5266,3.0,,,,,,,-256.0,,,48,pitchwheel,,,,,706944,368.2
5267,3.0,,,,,,,-256.0,,,0,pitchwheel,,,,,706944,368.2
5268,3.0,,,,,,,-128.0,,,48,pitchwheel,,,,,706992,368.225
5269,3.0,,,,,,,-128.0,,,0,pitchwheel,,,,,706992,368.225
5270,3.0,,,,,,,0.0,,,48,pitchwheel,,,,,707040,368.25
5271,3.0,,,,,,,0.0,,,0,pitchwheel,,,,,707040,368.25
5272,3.0,,,,,,,0.0,,,0,pitchwheel,,,,,707040,368.25
5273,3.0,,,,,79.0,,,,,0,note_off,,95.0,79.0,95.0,707040,368.25
5274,3.0,,,,,,,0.0,,,0,pitchwheel,,,,,707040,368.25
5275,3.0,,,,,,,0.0,,,0,pitchwheel,,,,,707040,368.25
5276,3.0,,,,,,,0.0,,,0,pitchwheel,,,,,707040,368.25
5277,3.0,,,,,75.0,,,,,0,note_off,,95.0,75.0,95.0,707040,368.25
5278,3.0,,,,,,,0.0,,,0,pitchwheel,,,,,707040,368.25
5279,3.0,,,,,79.0,,,,,0,note_on,,95.0,79.0,95.0,707040,368.25
5280,3.0,,,,,,,0.0,,,0,pitchwheel,,,,,707040,368.25
5281,3.0,,,,,75.0,,,,,0,note_on,,95.0,75.0,95.0,707040,368.25
5282,3.0,,,,,,,128.0,,,21,pitchwheel,,,,,707061,368.2609375
5283,3.0,,,,,,,256.0,,,21,pitchwheel,,,,,707082,368.271875
5284,3.0,,,,,,,128.0,,,12,pitchwheel,,,,,707094,368.278125
5285,3.0,,,,,,,384.0,,,9,pitchwheel,,,,,707103,368.2828125
5286,3.0,,,,,,,512.0,,,21,pitchwheel,,,,,707124,368.29375
5287,3.0,,,,,,,640.0,,,21,pitchwheel,,,,,707145,368.3046875
5288,3.0,,,,,,,256.0,,,3,pitchwheel,,,,,707148,368.30625
5289,3.0,,,,,,,768.0,,,18,pitchwheel,,,,,707166,368.315625
5290,3.0,,,,,,,896.0,,,21,pitchwheel,,,,,707187,368.3265625
5291,3.0,,,,,,,384.0,,,15,pitchwheel,,,,,707202,368.334375
5292,3.0,,,,,,,1024.0,,,6,pitchwheel,,,,,707208,368.3375
5293,3.0,,,,,,,1152.0,,,21,pitchwheel,,,,,707229,368.3484375
5294,3.0,,,,,,,1280.0,,,21,pitchwheel,,,,,707250,368.359375
5295,3.0,,,,,,,512.0,,,6,pitchwheel,,,,,707256,368.3625
5296,3.0,,,,,,,1408.0,,,15,pitchwheel,,,,,707271,368.3703125
5297,3.0,,,,,,,1408.0,,,9,pitchwheel,,,,,707280,368.375
5298,3.0,,,,,,,640.0,,,30,pitchwheel,,,,,707310,368.390625
5299,3.0,,,,,,,768.0,,,54,pitchwheel,,,,,707364,368.41875
5300,3.0,,,,,,,896.0,,,54,pitchwheel,,,,,707418,368.446875
5301,3.0,,,,,,,1024.0,,,54,pitchwheel,,,,,707472,368.475
5302,3.0,,,,,,,1408.0,,,48,pitchwheel,,,,,707520,368.5
5303,3.0,,,,,,,0.0,,,0,pitchwheel,,,,,707520,368.5
5304,3.0,,,,,75.0,,,,,0,note_off,,95.0,75.0,95.0,707520,368.5
5305,3.0,,,,,,,1152.0,,,6,pitchwheel,,,,,707526,368.503125
5306,3.0,,,,,,,1280.0,,,54,pitchwheel,,,,,707580,368.53125
5307,3.0,,,,,,,1408.0,,,54,pitchwheel,,,,,707634,368.559375
5308,3.0,,,,,,,1408.0,,,6,pitchwheel,,,,,707640,368.5625
5309,3.0,,,,,,,1408.0,,,600,pitchwheel,,,,,708240,368.875
5310,3.0,,,,,,,0.0,,,0,pitchwheel,,,,,708240,368.875
5311,3.0,,,,,79.0,,,,,0,note_off,,95.0,79.0,95.0,708240,368.875
5312,2.0,,,,,51.0,,,,,0,note_on,,95.0,51.0,95.0,708240,368.875
5313,2.0,,,,,51.0,,,,,240,note_off,,95.0,51.0,95.0,708480,369.0
5314,2.0,,,,,54.0,,,,,0,note_on,,95.0,54.0,95.0,708480,369.0
5315,2.0,,,,,54.0,,,,,240,note_off,,95.0,54.0,95.0,708720,369.125
5316,2.0,,,,,51.0,,,,,0,note_on,,95.0,51.0,95.0,708720,369.125
5317,2.0,,,,,51.0,,,,,240,note_off,,95.0,51.0,95.0,708960,369.25
5318,2.0,,,,,54.0,,,,,0,note_on,,95.0,54.0,95.0,708960,369.25
5319,2.0,,,,,54.0,,,,,240,note_off,,95.0,54.0,95.0,709200,369.375
5320,2.0,,,,,56.0,,,,,0,note_on,,95.0,56.0,95.0,709200,369.375
5321,2.0,,,,,56.0,,,,,240,note_off,,95.0,56.0,95.0,709440,369.5
5322,2.0,,,,,59.0,,,,,0,note_on,,95.0,59.0,95.0,709440,369.5
5323,2.0,,,,,59.0,,,,,240,note_off,,95.0,59.0,95.0,709680,369.625
5324,2.0,,,,,56.0,,,,,0,note_on,,70.0,56.0,70.0,709680,369.625
5325,2.0,,,,,56.0,,,,,240,note_off,,70.0,56.0,70.0,709920,369.75
5326,2.0,,,,,59.0,,,,,0,note_on,,95.0,59.0,95.0,709920,369.75
5327,2.0,,,,,59.0,,,,,192,note_off,,95.0,59.0,95.0,710112,369.85
5328,2.0,,,,,56.0,,,,,0,note_on,,70.0,56.0,70.0,710112,369.85
5329,2.0,,,,,56.0,,,,,192,note_off,,70.0,56.0,70.0,710304,369.95
5330,2.0,,,,,61.0,,,,,0,note_on,,95.0,61.0,95.0,710304,369.95
5331,2.0,,,,,61.0,,,,,192,note_off,,95.0,61.0,95.0,710496,370.05
5332,2.0,,,,,62.0,,,,,0,note_on,,70.0,62.0,70.0,710496,370.05
5333,2.0,,,,,62.0,,,,,192,note_off,,70.0,62.0,70.0,710688,370.15
5334,2.0,,,,,63.0,,,,,0,note_on,,70.0,63.0,70.0,710688,370.15
5335,2.0,,,,,63.0,,,,,192,note_off,,70.0,63.0,70.0,710880,370.25
5336,2.0,,,,,61.0,,,,,0,note_on,,95.0,61.0,95.0,710880,370.25
5337,2.0,,,,,61.0,,,,,160,note_off,,95.0,61.0,95.0,711040,370.3333333333333
5338,2.0,,,,,62.0,,,,,0,note_on,,70.0,62.0,70.0,711040,370.3333333333333
5339,2.0,,,,,62.0,,,,,160,note_off,,70.0,62.0,70.0,711200,370.4166666666667
5340,2.0,,,,,63.0,,,,,0,note_on,,70.0,63.0,70.0,711200,370.4166666666667
5341,2.0,,,,,63.0,,,,,160,note_off,,70.0,63.0,70.0,711360,370.5
5342,2.0,,,,,66.0,,,,,0,note_on,,95.0,66.0,95.0,711360,370.5
5343,2.0,,,,,66.0,,,,,240,note_off,,95.0,66.0,95.0,711600,370.625
5344,2.0,,,,,68.0,,,,,0,note_on,,70.0,68.0,70.0,711600,370.625
5345,2.0,,,,,68.0,,,,,240,note_off,,70.0,68.0,70.0,711840,370.75
5346,3.0,,,,,,,0.0,,,0,pitchwheel,,,,,711840,370.75
5347,3.0,,,,,68.0,,,,,0,note_on,,95.0,68.0,95.0,711840,370.75
5348,3.0,,,,,,,128.0,,,7,pitchwheel,,,,,711847,370.75364583333334
5349,3.0,,,,,,,256.0,,,7,pitchwheel,,,,,711854,370.7572916666667
5350,3.0,,,,,,,384.0,,,7,pitchwheel,,,,,711861,370.7609375
5351,3.0,,,,,,,512.0,,,7,pitchwheel,,,,,711868,370.76458333333335
5352,3.0,,,,,,,640.0,,,7,pitchwheel,,,,,711875,370.7682291666667
5353,3.0,,,,,,,768.0,,,7,pitchwheel,,,,,711882,370.771875
5354,3.0,,,,,,,896.0,,,7,pitchwheel,,,,,711889,370.7755208333333
5355,3.0,,,,,,,1024.0,,,7,pitchwheel,,,,,711896,370.77916666666664
5356,3.0,,,,,,,1152.0,,,7,pitchwheel,,,,,711903,370.7828125
5357,3.0,,,,,,,1280.0,,,7,pitchwheel,,,,,711910,370.7864583333333
5358,3.0,,,,,,,1408.0,,,7,pitchwheel,,,,,711917,370.79010416666665
5359,3.0,,,,,,,1536.0,,,7,pitchwheel,,,,,711924,370.79375
5360,3.0,,,,,,,1664.0,,,7,pitchwheel,,,,,711931,370.7973958333333
5361,3.0,,,,,,,1792.0,,,7,pitchwheel,,,,,711938,370.80104166666666
5362,3.0,,,,,,,1920.0,,,7,pitchwheel,,,,,711945,370.8046875
5363,3.0,,,,,,,2048.0,,,7,pitchwheel,,,,,711952,370.80833333333334
5364,3.0,,,,,,,2048.0,,,8,pitchwheel,,,,,711960,370.8125
5365,3.0,,,,,,,2048.0,,,120,pitchwheel,,,,,712080,370.875
5366,3.0,,,,,,,1920.0,,,7,pitchwheel,,,,,712087,370.87864583333334
5367,3.0,,,,,,,1792.0,,,7,pitchwheel,,,,,712094,370.8822916666667
5368,3.0,,,,,,,1664.0,,,7,pitchwheel,,,,,712101,370.8859375
5369,3.0,,,,,,,1536.0,,,7,pitchwheel,,,,,712108,370.88958333333335
5370,3.0,,,,,,,1408.0,,,7,pitchwheel,,,,,712115,370.8932291666667
5371,3.0,,,,,,,1280.0,,,7,pitchwheel,,,,,712122,370.896875
5372,3.0,,,,,,,1152.0,,,7,pitchwheel,,,,,712129,370.9005208333333
5373,3.0,,,,,,,1024.0,,,7,pitchwheel,,,,,712136,370.90416666666664
5374,3.0,,,,,,,896.0,,,7,pitchwheel,,,,,712143,370.9078125
5375,3.0,,,,,,,768.0,,,7,pitchwheel,,,,,712150,370.9114583333333
5376,3.0,,,,,,,640.0,,,7,pitchwheel,,,,,712157,370.91510416666665
5377,3.0,,,,,,,512.0,,,7,pitchwheel,,,,,712164,370.91875
5378,3.0,,,,,,,384.0,,,7,pitchwheel,,,,,712171,370.9223958333333
5379,3.0,,,,,,,256.0,,,7,pitchwheel,,,,,712178,370.92604166666666
5380,3.0,,,,,,,128.0,,,7,pitchwheel,,,,,712185,370.9296875
5381,3.0,,,,,,,0.0,,,7,pitchwheel,,,,,712192,370.93333333333334
5382,3.0,,,,,,,0.0,,,8,pitchwheel,,,,,712200,370.9375
5383,3.0,,,,,,,0.0,,,120,pitchwheel,,,,,712320,371.0
5384,3.0,,,,,,,128.0,,,7,pitchwheel,,,,,712327,371.00364583333334
5385,3.0,,,,,,,256.0,,,7,pitchwheel,,,,,712334,371.0072916666667
5386,3.0,,,,,,,384.0,,,7,pitchwheel,,,,,712341,371.0109375
5387,3.0,,,,,,,512.0,,,7,pitchwheel,,,,,712348,371.01458333333335
5388,3.0,,,,,,,640.0,,,7,pitchwheel,,,,,712355,371.0182291666667
5389,3.0,,,,,,,768.0,,,7,pitchwheel,,,,,712362,371.021875
5390,3.0,,,,,,,896.0,,,7,pitchwheel,,,,,712369,371.0255208333333
5391,3.0,,,,,,,1024.0,,,7,pitchwheel,,,,,712376,371.02916666666664
5392,3.0,,,,,,,1152.0,,,7,pitchwheel,,,,,712383,371.0328125
5393,3.0,,,,,,,1280.0,,,7,pitchwheel,,,,,712390,371.0364583333333
5394,3.0,,,,,,,1408.0,,,7,pitchwheel,,,,,712397,371.04010416666665
5395,3.0,,,,,,,1536.0,,,7,pitchwheel,,,,,712404,371.04375
5396,3.0,,,,,,,1664.0,,,7,pitchwheel,,,,,712411,371.0473958333333
5397,3.0,,,,,,,1792.0,,,7,pitchwheel,,,,,712418,371.05104166666666
5398,3.0,,,,,,,1920.0,,,7,pitchwheel,,,,,712425,371.0546875
5399,3.0,,,,,,,2048.0,,,7,pitchwheel,,,,,712432,371.05833333333334
5400,3.0,,,,,,,2048.0,,,8,pitchwheel,,,,,712440,371.0625
5401,3.0,,,,,,,2048.0,,,120,pitchwheel,,,,,712560,371.125
5402,3.0,,,,,,,0.0,,,0,pitchwheel,,,,,712560,371.125
5403,3.0,,,,,68.0,,,,,0,note_off,,95.0,68.0,95.0,712560,371.125
5404,2.0,,,,,44.0,,,,,0,note_on,,95.0,44.0,95.0,712560,371.125
5405,2.0,,,,,44.0,,,,,55,note_off,,95.0,44.0,95.0,712615,371.1536458333333
5406,3.0,,,,,,,0.0,,,185,pitchwheel,,,,,712800,371.25
5407,3.0,,,,,68.0,,,,,0,note_on,,31.0,68.0,31.0,712800,371.25
5408,3.0,,,,,80.0,,,,,0,note_on,,95.0,80.0,95.0,712800,371.25
5409,3.0,,,,,,,128.0,,,32,pitchwheel,,,,,712832,371.26666666666665
5410,3.0,,,,,,,256.0,,,32,pitchwheel,,,,,712864,371.2833333333333
5411,3.0,,,,,,,384.0,,,32,pitchwheel,,,,,712896,371.3
5412,3.0,,,,,,,512.0,,,32,pitchwheel,,,,,712928,371.31666666666666
5413,3.0,,,,,,,640.0,,,32,pitchwheel,,,,,712960,371.3333333333333
5414,3.0,,,,,,,768.0,,,32,pitchwheel,,,,,712992,371.35
5415,3.0,,,,,,,896.0,,,32,pitchwheel,,,,,713024,371.3666666666667
5416,3.0,,,,,,,1024.0,,,32,pitchwheel,,,,,713056,371.3833333333333
5417,3.0,,,,,,,1152.0,,,32,pitchwheel,,,,,713088,371.4
5418,3.0,,,,,,,1280.0,,,32,pitchwheel,,,,,713120,371.4166666666667
5419,3.0,,,,,,,1408.0,,,32,pitchwheel,,,,,713152,371.43333333333334
5420,3.0,,,,,,,1408.0,,,8,pitchwheel,,,,,713160,371.4375
5421,3.0,,,,,,,1408.0,,,360,pitchwheel,,,,,713520,371.625
5422,3.0,,,,,,,1280.0,,,120,pitchwheel,,,,,713640,371.6875
5423,3.0,,,,,,,1152.0,,,120,pitchwheel,,,,,713760,371.75
5424,3.0,,,,,,,1024.0,,,120,pitchwheel,,,,,713880,371.8125
5425,3.0,,,,,,,896.0,,,120,pitchwheel,,,,,714000,371.875
5426,3.0,,,,,,,768.0,,,120,pitchwheel,,,,,714120,371.9375
5427,3.0,,,,,,,640.0,,,120,pitchwheel,,,,,714240,372.0
5428,3.0,,,,,,,640.0,,,0,pitchwheel,,,,,714240,372.0
5429,3.0,,,,,,,0.0,,,0,pitchwheel,,,,,714240,372.0
5430,3.0,,,,,68.0,,,,,0,note_off,,31.0,68.0,31.0,714240,372.0
5431,3.0,,,,,80.0,,,,,0,note_off,,95.0,80.0,95.0,714240,372.0
5432,3.0,,,,,,,0.0,,,0,pitchwheel,,,,,714240,372.0
5433,3.0,,,,,68.0,,,,,0,note_on,,95.0,68.0,95.0,714240,372.0
5434,3.0,,,,,,,128.0,,,30,pitchwheel,,,,,714270,372.015625
5435,3.0,,,,,,,256.0,,,30,pitchwheel,,,,,714300,372.03125
5436,3.0,,,,,,,384.0,,,30,pitchwheel,,,,,714330,372.046875
5437,3.0,,,,,,,512.0,,,30,pitchwheel,,,,,714360,372.0625
5438,3.0,,,,,,,640.0,,,30,pitchwheel,,,,,714390,372.078125
5439,3.0,,,,,,,768.0,,,30,pitchwheel,,,,,714420,372.09375
5440,3.0,,,,,,,896.0,,,30,pitchwheel,,,,,714450,372.109375
5441,3.0,,,,,,,1024.0,,,30,pitchwheel,,,,,714480,372.125
5442,3.0,,,,,,,1152.0,,,30,pitchwheel,,,,,714510,372.140625
5443,3.0,,,,,,,1280.0,,,30,pitchwheel,,,,,714540,372.15625
5444,3.0,,,,,,,1408.0,,,30,pitchwheel,,,,,714570,372.171875
5445,3.0,,,,,,,1536.0,,,30,pitchwheel,,,,,714600,372.1875
5446,3.0,,,,,,,1664.0,,,30,pitchwheel,,,,,714630,372.203125
5447,3.0,,,,,,,1792.0,,,30,pitchwheel,,,,,714660,372.21875
5448,3.0,,,,,,,1920.0,,,30,pitchwheel,,,,,714690,372.234375
5449,3.0,,,,,,,2048.0,,,30,pitchwheel,,,,,714720,372.25
5450,3.0,,,,,,,2048.0,,,0,pitchwheel,,,,,714720,372.25
5451,3.0,,,,,,,2048.0,,,480,pitchwheel,,,,,715200,372.5
5452,3.0,,,,,,,0.0,,,0,pitchwheel,,,,,715200,372.5
5453,3.0,,,,,68.0,,,,,0,note_off,,95.0,68.0,95.0,715200,372.5
5454,3.0,,,,,,,0.0,,,0,pitchwheel,,,,,715200,372.5
5455,3.0,,,,,49.0,,,,,0,note_on,,95.0,49.0,95.0,715200,372.5
5456,3.0,,,,,,,128.0,,,21,pitchwheel,,,,,715221,372.5109375
5457,3.0,,,,,,,256.0,,,21,pitchwheel,,,,,715242,372.521875
5458,3.0,,,,,,,384.0,,,21,pitchwheel,,,,,715263,372.5328125
5459,3.0,,,,,,,512.0,,,21,pitchwheel,,,,,715284,372.54375
5460,3.0,,,,,,,640.0,,,21,pitchwheel,,,,,715305,372.5546875
5461,3.0,,,,,,,768.0,,,21,pitchwheel,,,,,715326,372.565625
5462,3.0,,,,,,,896.0,,,21,pitchwheel,,,,,715347,372.5765625
5463,3.0,,,,,,,1024.0,,,21,pitchwheel,,,,,715368,372.5875
5464,3.0,,,,,,,1152.0,,,21,pitchwheel,,,,,715389,372.5984375
5465,3.0,,,,,,,1280.0,,,21,pitchwheel,,,,,715410,372.609375
5466,3.0,,,,,,,1408.0,,,21,pitchwheel,,,,,715431,372.6203125
5467,3.0,,,,,,,1408.0,,,9,pitchwheel,,,,,715440,372.625
5468,3.0,,,,,,,1408.0,,,240,pitchwheel,,,,,715680,372.75
5469,3.0,,,,,,,1280.0,,,21,pitchwheel,,,,,715701,372.7609375
5470,3.0,,,,,,,1152.0,,,21,pitchwheel,,,,,715722,372.771875
5471,3.0,,,,,,,1024.0,,,21,pitchwheel,,,,,715743,372.7828125
5472,3.0,,,,,,,896.0,,,21,pitchwheel,,,,,715764,372.79375
5473,3.0,,,,,,,768.0,,,21,pitchwheel,,,,,715785,372.8046875
5474,3.0,,,,,,,640.0,,,21,pitchwheel,,,,,715806,372.815625
5475,3.0,,,,,,,512.0,,,21,pitchwheel,,,,,715827,372.8265625
5476,3.0,,,,,,,384.0,,,21,pitchwheel,,,,,715848,372.8375
5477,3.0,,,,,,,256.0,,,21,pitchwheel,,,,,715869,372.8484375
5478,3.0,,,,,,,128.0,,,21,pitchwheel,,,,,715890,372.859375
5479,3.0,,,,,,,0.0,,,21,pitchwheel,,,,,715911,372.8703125
5480,3.0,,,,,,,0.0,,,9,pitchwheel,,,,,715920,372.875
5481,3.0,,,,,,,0.0,,,240,pitchwheel,,,,,716160,373.0
5482,3.0,,,,,,,128.0,,,21,pitchwheel,,,,,716181,373.0109375
5483,3.0,,,,,,,256.0,,,21,pitchwheel,,,,,716202,373.021875
5484,3.0,,,,,,,384.0,,,21,pitchwheel,,,,,716223,373.0328125
5485,3.0,,,,,,,512.0,,,21,pitchwheel,,,,,716244,373.04375
5486,3.0,,,,,,,640.0,,,21,pitchwheel,,,,,716265,373.0546875
5487,3.0,,,,,,,768.0,,,21,pitchwheel,,,,,716286,373.065625
5488,3.0,,,,,,,896.0,,,21,pitchwheel,,,,,716307,373.0765625
5489,3.0,,,,,,,1024.0,,,21,pitchwheel,,,,,716328,373.0875
5490,3.0,,,,,,,1152.0,,,21,pitchwheel,,,,,716349,373.0984375
5491,3.0,,,,,,,1280.0,,,21,pitchwheel,,,,,716370,373.109375
5492,3.0,,,,,,,1408.0,,,21,pitchwheel,,,,,716391,373.1203125
5493,3.0,,,,,,,1408.0,,,9,pitchwheel,,,,,716400,373.125
5494,3.0,,,,,,,1408.0,,,240,pitchwheel,,,,,716640,373.25
5495,3.0,,,,,,,0.0,,,0,pitchwheel,,,,,716640,373.25
5496,3.0,,,,,49.0,,,,,0,note_off,,95.0,49.0,95.0,716640,373.25
5497,2.0,,,,,39.0,,,,,0,note_on,,95.0,39.0,95.0,716640,373.25
5498,2.0,,,,,39.0,,,,,240,note_off,,95.0,39.0,95.0,716880,373.375
5499,2.0,,,,,42.0,,,,,0,note_on,,70.0,42.0,70.0,716880,373.375
5500,2.0,,,,,42.0,,,,,240,note_off,,70.0,42.0,70.0,717120,373.5
5501,2.0,,,,,44.0,,,,,0,note_on,,95.0,44.0,95.0,717120,373.5
5502,2.0,,,,,44.0,,,,,240,note_off,,95.0,44.0,95.0,717360,373.625
5503,2.0,,,,,46.0,,,,,0,note_on,,95.0,46.0,95.0,717360,373.625
5504,2.0,,,,,46.0,,,,,240,note_off,,95.0,46.0,95.0,717600,373.75
5505,2.0,,,,,44.0,,,,,0,note_on,,95.0,44.0,95.0,717600,373.75
5506,2.0,,,,,44.0,,,,,240,note_off,,95.0,44.0,95.0,717840,373.875
5507,2.0,,,,,46.0,,,,,0,note_on,,70.0,46.0,70.0,717840,373.875
5508,2.0,,,,,46.0,,,,,240,note_off,,70.0,46.0,70.0,718080,374.0
5509,2.0,,,,,49.0,,,,,0,note_on,,95.0,49.0,95.0,718080,374.0
5510,2.0,,,,,49.0,,,,,240,note_off,,95.0,49.0,95.0,718320,374.125
5511,2.0,,,,,51.0,,,,,0,note_on,,70.0,51.0,70.0,718320,374.125
5512,2.0,,,,,51.0,,,,,240,note_off,,70.0,51.0,70.0,718560,374.25
5513,2.0,,,,,46.0,,,,,0,note_on,,95.0,46.0,95.0,718560,374.25
5514,2.0,,,,,46.0,,,,,240,note_off,,95.0,46.0,95.0,718800,374.375
5515,2.0,,,,,49.0,,,,,0,note_on,,70.0,49.0,70.0,718800,374.375
5516,2.0,,,,,49.0,,,,,240,note_off,,70.0,49.0,70.0,719040,374.5
5517,2.0,,,,,52.0,,,,,0,note_on,,95.0,52.0,95.0,719040,374.5
5518,2.0,,,,,52.0,,,,,160,note_off,,95.0,52.0,95.0,719200,374.5833333333333
5519,2.0,,,,,53.0,,,,,0,note_on,,70.0,53.0,70.0,719200,374.5833333333333
5520,2.0,,,,,53.0,,,,,160,note_off,,70.0,53.0,70.0,719360,374.6666666666667
5521,2.0,,,,,56.0,,,,,0,note_on,,95.0,56.0,95.0,719360,374.6666666666667
5522,2.0,,,,,56.0,,,,,160,note_off,,95.0,56.0,95.0,719520,374.75
5523,2.0,,,,,51.0,,,,,0,note_on,,95.0,51.0,95.0,719520,374.75
5524,2.0,,,,,51.0,,,,,192,note_off,,95.0,51.0,95.0,719712,374.85
5525,2.0,,,,,53.0,,,,,0,note_on,,70.0,53.0,70.0,719712,374.85
5526,2.0,,,,,53.0,,,,,192,note_off,,70.0,53.0,70.0,719904,374.95
5527,2.0,,,,,56.0,,,,,0,note_on,,95.0,56.0,95.0,719904,374.95
5528,2.0,,,,,56.0,,,,,192,note_off,,95.0,56.0,95.0,720096,375.05
5529,2.0,,,,,57.0,,,,,0,note_on,,70.0,57.0,70.0,720096,375.05
5530,2.0,,,,,57.0,,,,,192,note_off,,70.0,57.0,70.0,720288,375.15
5531,2.0,,,,,58.0,,,,,0,note_on,,70.0,58.0,70.0,720288,375.15
5532,2.0,,,,,58.0,,,,,192,note_off,,70.0,58.0,70.0,720480,375.25
5533,2.0,,,,,56.0,,,,,0,note_on,,95.0,56.0,95.0,720480,375.25
5534,2.0,,,,,56.0,,,,,160,note_off,,95.0,56.0,95.0,720640,375.3333333333333
5535,2.0,,,,,57.0,,,,,0,note_on,,70.0,57.0,70.0,720640,375.3333333333333
5536,2.0,,,,,57.0,,,,,160,note_off,,70.0,57.0,70.0,720800,375.4166666666667
5537,2.0,,,,,58.0,,,,,0,note_on,,70.0,58.0,70.0,720800,375.4166666666667
5538,2.0,,,,,58.0,,,,,160,note_off,,70.0,58.0,70.0,720960,375.5
5539,2.0,,,,,56.0,,,,,0,note_on,,95.0,56.0,95.0,720960,375.5
5540,2.0,,,,,56.0,,,,,240,note_off,,95.0,56.0,95.0,721200,375.625
5541,3.0,,,,,,,0.0,,,0,pitchwheel,,,,,721200,375.625
5542,3.0,,,,,58.0,,,,,0,note_on,,31.0,58.0,31.0,721200,375.625
5543,3.0,,,,,70.0,,,,,0,note_on,,95.0,70.0,95.0,721200,375.625
5544,3.0,,,,,,,128.0,,,54,pitchwheel,,,,,721254,375.653125
5545,3.0,,,,,,,256.0,,,54,pitchwheel,,,,,721308,375.68125
5546,3.0,,,,,,,384.0,,,54,pitchwheel,,,,,721362,375.709375
5547,3.0,,,,,,,512.0,,,54,pitchwheel,,,,,721416,375.7375
5548,3.0,,,,,,,640.0,,,54,pitchwheel,,,,,721470,375.765625
5549,3.0,,,,,,,768.0,,,54,pitchwheel,,,,,721524,375.79375
5550,3.0,,,,,,,896.0,,,54,pitchwheel,,,,,721578,375.821875
5551,3.0,,,,,,,1024.0,,,54,pitchwheel,,,,,721632,375.85
5552,3.0,,,,,,,1152.0,,,54,pitchwheel,,,,,721686,375.878125
5553,3.0,,,,,,,1280.0,,,54,pitchwheel,,,,,721740,375.90625
5554,3.0,,,,,,,1408.0,,,54,pitchwheel,,,,,721794,375.934375
5555,3.0,,,,,,,1408.0,,,6,pitchwheel,,,,,721800,375.9375
5556,3.0,,,,,,,1408.0,,,600,pitchwheel,,,,,722400,376.25
5557,3.0,,,,,,,0.0,,,0,pitchwheel,,,,,722400,376.25
5558,3.0,,,,,58.0,,,,,0,note_off,,31.0,58.0,31.0,722400,376.25
5559,3.0,,,,,70.0,,,,,0,note_off,,95.0,70.0,95.0,722400,376.25
5560,2.0,,,,,58.0,,,,,0,note_on,,95.0,58.0,95.0,722400,376.25
5561,2.0,,,,,58.0,,,,,960,note_off,,95.0,58.0,95.0,723360,376.75
5562,2.0,,,,,44.0,,,,,0,note_on,,95.0,44.0,95.0,723360,376.75
5563,2.0,,,,,44.0,,,,,160,note_off,,95.0,44.0,95.0,723520,376.8333333333333
5564,2.0,,,,,46.0,,,,,0,note_on,,70.0,46.0,70.0,723520,376.8333333333333
5565,2.0,,,,,46.0,,,,,160,note_off,,70.0,46.0,70.0,723680,376.9166666666667
5566,2.0,,,,,48.0,,,,,0,note_on,,70.0,48.0,70.0,723680,376.9166666666667
5567,2.0,,,,,48.0,,,,,160,note_off,,70.0,48.0,70.0,723840,377.0
5568,2.0,,,,,44.0,,,,,0,note_on,,95.0,44.0,95.0,723840,377.0
5569,2.0,,,,,44.0,,,,,160,note_off,,95.0,44.0,95.0,724000,377.0833333333333
5570,2.0,,,,,46.0,,,,,0,note_on,,70.0,46.0,70.0,724000,377.0833333333333
5571,2.0,,,,,46.0,,,,,160,note_off,,70.0,46.0,70.0,724160,377.1666666666667
5572,2.0,,,,,48.0,,,,,0,note_on,,70.0,48.0,70.0,724160,377.1666666666667
5573,2.0,,,,,48.0,,,,,160,note_off,,70.0,48.0,70.0,724320,377.25
5574,2.0,,,,,46.0,,,,,0,note_on,,95.0,46.0,95.0,724320,377.25
5575,2.0,,,,,46.0,,,,,160,note_off,,95.0,46.0,95.0,724480,377.3333333333333
5576,2.0,,,,,48.0,,,,,0,note_on,,70.0,48.0,70.0,724480,377.3333333333333
5577,2.0,,,,,48.0,,,,,160,note_off,,70.0,48.0,70.0,724640,377.4166666666667
5578,2.0,,,,,49.0,,,,,0,note_on,,70.0,49.0,70.0,724640,377.4166666666667
5579,2.0,,,,,49.0,,,,,160,note_off,,70.0,49.0,70.0,724800,377.5
5580,2.0,,,,,46.0,,,,,0,note_on,,95.0,46.0,95.0,724800,377.5
5581,2.0,,,,,46.0,,,,,160,note_off,,95.0,46.0,95.0,724960,377.5833333333333
5582,2.0,,,,,48.0,,,,,0,note_on,,70.0,48.0,70.0,724960,377.5833333333333
5583,2.0,,,,,48.0,,,,,160,note_off,,70.0,48.0,70.0,725120,377.6666666666667
5584,2.0,,,,,49.0,,,,,0,note_on,,70.0,49.0,70.0,725120,377.6666666666667
5585,2.0,,,,,49.0,,,,,160,note_off,,70.0,49.0,70.0,725280,377.75
5586,2.0,,,,,51.0,,,,,0,note_on,,95.0,51.0,95.0,725280,377.75
5587,2.0,,,,,51.0,,,,,160,note_off,,95.0,51.0,95.0,725440,377.8333333333333
5588,2.0,,,,,53.0,,,,,0,note_on,,70.0,53.0,70.0,725440,377.8333333333333
5589,2.0,,,,,53.0,,,,,160,note_off,,70.0,53.0,70.0,725600,377.9166666666667
5590,2.0,,,,,53.0,,,,,0,note_on,,95.0,53.0,95.0,725600,377.9166666666667
5591,2.0,,,,,53.0,,,,,160,note_off,,95.0,53.0,95.0,725760,378.0
5592,2.0,,,,,56.0,,,,,0,note_on,,95.0,56.0,95.0,725760,378.0
5593,2.0,,,,,56.0,,,,,160,note_off,,95.0,56.0,95.0,725920,378.0833333333333
5594,2.0,,,,,58.0,,,,,0,note_on,,70.0,58.0,70.0,725920,378.0833333333333
5595,2.0,,,,,58.0,,,,,160,note_off,,70.0,58.0,70.0,726080,378.1666666666667
5596,2.0,,,,,60.0,,,,,0,note_on,,70.0,60.0,70.0,726080,378.1666666666667
5597,2.0,,,,,60.0,,,,,160,note_off,,70.0,60.0,70.0,726240,378.25
5598,2.0,,,,,58.0,,,,,0,note_on,,95.0,58.0,95.0,726240,378.25
5599,2.0,,,,,58.0,,,,,160,note_off,,95.0,58.0,95.0,726400,378.3333333333333
5600,2.0,,,,,60.0,,,,,0,note_on,,70.0,60.0,70.0,726400,378.3333333333333
5601,2.0,,,,,60.0,,,,,160,note_off,,70.0,60.0,70.0,726560,378.4166666666667
5602,2.0,,,,,61.0,,,,,0,note_on,,70.0,61.0,70.0,726560,378.4166666666667
5603,2.0,,,,,61.0,,,,,160,note_off,,70.0,61.0,70.0,726720,378.5
5604,2.0,,,,,58.0,,,,,0,note_on,,95.0,58.0,95.0,726720,378.5
5605,2.0,,,,,58.0,,,,,160,note_off,,95.0,58.0,95.0,726880,378.5833333333333
5606,2.0,,,,,60.0,,,,,0,note_on,,70.0,60.0,70.0,726880,378.5833333333333
5607,2.0,,,,,60.0,,,,,160,note_off,,70.0,60.0,70.0,727040,378.6666666666667
5608,2.0,,,,,61.0,,,,,0,note_on,,70.0,61.0,70.0,727040,378.6666666666667
5609,2.0,,,,,61.0,,,,,160,note_off,,70.0,61.0,70.0,727200,378.75
5610,2.0,,,,,63.0,,,,,0,note_on,,95.0,63.0,95.0,727200,378.75
5611,2.0,,,,,63.0,,,,,160,note_off,,95.0,63.0,95.0,727360,378.8333333333333
5612,2.0,,,,,65.0,,,,,0,note_on,,70.0,65.0,70.0,727360,378.8333333333333
5613,2.0,,,,,65.0,,,,,160,note_off,,70.0,65.0,70.0,727520,378.9166666666667
5614,3.0,,,,,63.0,,,,,0,note_on,,70.0,63.0,70.0,727520,378.9166666666667
5615,3.0,,,,,,,2048.0,,,160,pitchwheel,,,,,727680,379.0
5616,3.0,,,,,,,0.0,,,0,pitchwheel,,,,,727680,379.0
5617,3.0,,,,,63.0,,,,,0,note_off,,70.0,63.0,70.0,727680,379.0
5618,2.0,,,,,66.0,,,,,0,note_on,,95.0,66.0,95.0,727680,379.0
5619,2.0,,,,,66.0,,,,,160,note_off,,95.0,66.0,95.0,727840,379.0833333333333
5620,2.0,,,,,68.0,,,,,0,note_on,,70.0,68.0,70.0,727840,379.0833333333333
5621,2.0,,,,,68.0,,,,,160,note_off,,70.0,68.0,70.0,728000,379.1666666666667
5622,2.0,,,,,66.0,,,,,0,note_on,,70.0,66.0,70.0,728000,379.1666666666667
5623,2.0,,,,,66.0,,,,,160,note_off,,70.0,66.0,70.0,728160,379.25
5624,2.0,,,,,73.0,,,,,0,note_on,,95.0,73.0,95.0,728160,379.25
5625,3.0,,,,,,,0.0,,,0,pitchwheel,,,,,728160,379.25
5626,3.0,,,,,68.0,,,,,0,note_on,,95.0,68.0,95.0,728160,379.25
5627,3.0,,,,,,,128.0,,,43,pitchwheel,,,,,728203,379.27239583333335
5628,3.0,,,,,,,256.0,,,43,pitchwheel,,,,,728246,379.29479166666664
5629,3.0,,,,,,,384.0,,,43,pitchwheel,,,,,728289,379.3171875
5630,3.0,,,,,,,512.0,,,43,pitchwheel,,,,,728332,379.33958333333334
5631,3.0,,,,,,,640.0,,,43,pitchwheel,,,,,728375,379.3619791666667
5632,3.0,,,,,,,768.0,,,43,pitchwheel,,,,,728418,379.384375
5633,3.0,,,,,,,896.0,,,43,pitchwheel,,,,,728461,379.4067708333333
5634,3.0,,,,,,,1024.0,,,43,pitchwheel,,,,,728504,379.4291666666667
5635,3.0,,,,,,,1152.0,,,43,pitchwheel,,,,,728547,379.4515625
5636,3.0,,,,,,,1280.0,,,43,pitchwheel,,,,,728590,379.4739583333333
5637,3.0,,,,,,,1408.0,,,43,pitchwheel,,,,,728633,379.49635416666666
5638,3.0,,,,,,,1408.0,,,7,pitchwheel,,,,,728640,379.5
5639,3.0,,,,,,,1408.0,,,480,pitchwheel,,,,,729120,379.75
5640,3.0,,,,,,,1280.0,,,43,pitchwheel,,,,,729163,379.77239583333335
5641,3.0,,,,,,,1152.0,,,43,pitchwheel,,,,,729206,379.79479166666664
5642,3.0,,,,,,,1024.0,,,43,pitchwheel,,,,,729249,379.8171875
5643,3.0,,,,,,,896.0,,,43,pitchwheel,,,,,729292,379.83958333333334
5644,3.0,,,,,,,768.0,,,43,pitchwheel,,,,,729335,379.8619791666667
5645,3.0,,,,,,,640.0,,,43,pitchwheel,,,,,729378,379.884375
5646,3.0,,,,,,,512.0,,,43,pitchwheel,,,,,729421,379.9067708333333
5647,3.0,,,,,,,384.0,,,43,pitchwheel,,,,,729464,379.9291666666667
5648,3.0,,,,,,,256.0,,,43,pitchwheel,,,,,729507,379.9515625
5649,3.0,,,,,,,128.0,,,43,pitchwheel,,,,,729550,379.9739583333333
5650,3.0,,,,,,,0.0,,,43,pitchwheel,,,,,729593,379.99635416666666
5651,2.0,,,,,73.0,,,,,7,note_off,,95.0,73.0,95.0,729600,380.0
5652,3.0,,,,,,,0.0,,,0,pitchwheel,,,,,729600,380.0
5653,3.0,,,,,,,0.0,,,480,pitchwheel,,,,,730080,380.25
5654,3.0,,,,,,,0.0,,,0,pitchwheel,,,,,730080,380.25
5655,3.0,,,,,68.0,,,,,0,note_off,,95.0,68.0,95.0,730080,380.25
5656,3.0,,,,,,,0.0,,,0,pitchwheel,,,,,730080,380.25
5657,3.0,,,,,73.0,,,,,0,note_on,,95.0,73.0,95.0,730080,380.25
5658,3.0,,,,,,,0.0,,,0,pitchwheel,,,,,730080,380.25
5659,3.0,,,,,68.0,,,,,0,note_on,,95.0,68.0,95.0,730080,380.25
5660,3.0,,,,,,,128.0,,,87,pitchwheel,,,,,730167,380.2953125
5661,3.0,,,,,,,128.0,,,0,pitchwheel,,,,,730167,380.2953125
5662,3.0,,,,,,,256.0,,,87,pitchwheel,,,,,730254,380.340625
5663,3.0,,,,,,,256.0,,,0,pitchwheel,,,,,730254,380.340625
5664,3.0,,,,,,,384.0,,,87,pitchwheel,,,,,730341,380.3859375
5665,3.0,,,,,,,384.0,,,0,pitchwheel,,,,,730341,380.3859375
5666,3.0,,,,,,,512.0,,,87,pitchwheel,,,,,730428,380.43125
5667,3.0,,,,,,,512.0,,,0,pitchwheel,,,,,730428,380.43125
5668,3.0,,,,,,,640.0,,,87,pitchwheel,,,,,730515,380.4765625
5669,3.0,,,,,,,640.0,,,0,pitchwheel,,,,,730515,380.4765625
5670,3.0,,,,,,,768.0,,,87,pitchwheel,,,,,730602,380.521875
5671,3.0,,,,,,,768.0,,,0,pitchwheel,,,,,730602,380.521875
5672,3.0,,,,,,,896.0,,,87,pitchwheel,,,,,730689,380.5671875
5673,3.0,,,,,,,896.0,,,0,pitchwheel,,,,,730689,380.5671875
5674,3.0,,,,,,,1024.0,,,87,pitchwheel,,,,,730776,380.6125
5675,3.0,,,,,,,1024.0,,,0,pitchwheel,,,,,730776,380.6125
5676,3.0,,,,,,,1152.0,,,87,pitchwheel,,,,,730863,380.6578125
5677,3.0,,,,,,,1152.0,,,0,pitchwheel,,,,,730863,380.6578125
5678,3.0,,,,,,,1280.0,,,87,pitchwheel,,,,,730950,380.703125
5679,3.0,,,,,,,1280.0,,,0,pitchwheel,,,,,730950,380.703125
5680,3.0,,,,,,,1408.0,,,87,pitchwheel,,,,,731037,380.7484375
5681,3.0,,,,,,,1408.0,,,0,pitchwheel,,,,,731037,380.7484375
5682,3.0,,,,,,,1408.0,,,3,pitchwheel,,,,,731040,380.75
5683,3.0,,,,,,,1408.0,,,0,pitchwheel,,,,,731040,380.75
5684,3.0,,,,,,,1408.0,,,960,pitchwheel,,,,,732000,381.25
5685,3.0,,,,,,,0.0,,,0,pitchwheel,,,,,732000,381.25
5686,3.0,,,,,73.0,,,,,0,note_off,,95.0,73.0,95.0,732000,381.25
5687,3.0,,,,,,,1408.0,,,0,pitchwheel,,,,,732000,381.25
5688,3.0,,,,,,,0.0,,,0,pitchwheel,,,,,732000,381.25
5689,3.0,,,,,68.0,,,,,0,note_off,,95.0,68.0,95.0,732000,381.25
5690,3.0,,,,,,,0.0,,,0,pitchwheel,,,,,732000,381.25
5691,3.0,,,,,70.0,,,,,0,note_on,,95.0,70.0,95.0,732000,381.25
5692,3.0,,,,,,,128.0,,,48,pitchwheel,,,,,732048,381.275
5693,3.0,,,,,,,256.0,,,48,pitchwheel,,,,,732096,381.3
5694,3.0,,,,,,,384.0,,,48,pitchwheel,,,,,732144,381.325
5695,3.0,,,,,,,512.0,,,48,pitchwheel,,,,,732192,381.35
5696,3.0,,,,,,,640.0,,,48,pitchwheel,,,,,732240,381.375
5697,3.0,,,,,,,640.0,,,0,pitchwheel,,,,,732240,381.375
5698,3.0,,,,,,,640.0,,,240,pitchwheel,,,,,732480,381.5
5699,3.0,,,,,,,512.0,,,48,pitchwheel,,,,,732528,381.525
5700,3.0,,,,,,,384.0,,,48,pitchwheel,,,,,732576,381.55
5701,3.0,,,,,,,256.0,,,48,pitchwheel,,,,,732624,381.575
5702,3.0,,,,,,,128.0,,,48,pitchwheel,,,,,732672,381.6
5703,3.0,,,,,,,0.0,,,48,pitchwheel,,,,,732720,381.625
5704,3.0,,,,,,,0.0,,,0,pitchwheel,,,,,732720,381.625
5705,3.0,,,,,,,0.0,,,240,pitchwheel,,,,,732960,381.75
5706,3.0,,,,,,,0.0,,,0,pitchwheel,,,,,732960,381.75
5707,3.0,,,,,70.0,,,,,0,note_off,,95.0,70.0,95.0,732960,381.75
5708,2.0,,,,,54.0,,,,,0,note_on,,95.0,54.0,95.0,732960,381.75
5709,2.0,,,,,54.0,,,,,480,note_off,,95.0,54.0,95.0,733440,382.0
5710,3.0,,,,,,,0.0,,,0,pitchwheel,,,,,733440,382.0
5711,3.0,,,,,54.0,,,,,0,note_on,,95.0,54.0,95.0,733440,382.0
5712,3.0,,,,,,,128.0,,,10,pitchwheel,,,,,733450,382.0052083333333
5713,3.0,,,,,,,256.0,,,10,pitchwheel,,,,,733460,382.0104166666667
5714,3.0,,,,,,,384.0,,,10,pitchwheel,,,,,733470,382.015625
5715,3.0,,,,,,,512.0,,,10,pitchwheel,,,,,733480,382.0208333333333
5716,3.0,,,,,,,640.0,,,10,pitchwheel,,,,,733490,382.0260416666667
5717,3.0,,,,,,,768.0,,,10,pitchwheel,,,,,733500,382.03125
5718,3.0,,,,,,,896.0,,,10,pitchwheel,,,,,733510,382.0364583333333
5719,3.0,,,,,,,1024.0,,,10,pitchwheel,,,,,733520,382.0416666666667
5720,3.0,,,,,,,1152.0,,,10,pitchwheel,,,,,733530,382.046875
5721,3.0,,,,,,,1280.0,,,10,pitchwheel,,,,,733540,382.0520833333333
5722,3.0,,,,,,,1408.0,,,10,pitchwheel,,,,,733550,382.0572916666667
5723,3.0,,,,,,,1408.0,,,10,pitchwheel,,,,,733560,382.0625
5724,3.0,,,,,,,1408.0,,,120,pitchwheel,,,,,733680,382.125
5725,3.0,,,,,,,1280.0,,,10,pitchwheel,,,,,733690,382.1302083333333
5726,3.0,,,,,,,1152.0,,,10,pitchwheel,,,,,733700,382.1354166666667
5727,3.0,,,,,,,1024.0,,,10,pitchwheel,,,,,733710,382.140625
5728,3.0,,,,,,,896.0,,,10,pitchwheel,,,,,733720,382.1458333333333
5729,3.0,,,,,,,768.0,,,10,pitchwheel,,,,,733730,382.1510416666667
5730,3.0,,,,,,,640.0,,,10,pitchwheel,,,,,733740,382.15625
5731,3.0,,,,,,,512.0,,,10,pitchwheel,,,,,733750,382.1614583333333
5732,3.0,,,,,,,384.0,,,10,pitchwheel,,,,,733760,382.1666666666667
5733,3.0,,,,,,,256.0,,,10,pitchwheel,,,,,733770,382.171875
5734,3.0,,,,,,,128.0,,,10,pitchwheel,,,,,733780,382.1770833333333
5735,3.0,,,,,,,0.0,,,10,pitchwheel,,,,,733790,382.1822916666667
5736,3.0,,,,,,,0.0,,,10,pitchwheel,,,,,733800,382.1875
5737,3.0,,,,,,,0.0,,,120,pitchwheel,,,,,733920,382.25
5738,3.0,,,,,,,0.0,,,0,pitchwheel,,,,,733920,382.25
5739,3.0,,,,,54.0,,,,,0,note_off,,95.0,54.0,95.0,733920,382.25
5740,3.0,,,,,,,0.0,,,0,pitchwheel,,,,,733920,382.25
5741,3.0,,,,,54.0,,,,,0,note_on,,95.0,54.0,95.0,733920,382.25
5742,3.0,,,,,,,128.0,,,30,pitchwheel,,,,,733950,382.265625
5743,3.0,,,,,,,256.0,,,30,pitchwheel,,,,,733980,382.28125
5744,3.0,,,,,,,384.0,,,30,pitchwheel,,,,,734010,382.296875
5745,3.0,,,,,,,512.0,,,30,pitchwheel,,,,,734040,382.3125
5746,3.0,,,,,,,640.0,,,30,pitchwheel,,,,,734070,382.328125
5747,3.0,,,,,,,768.0,,,30,pitchwheel,,,,,734100,382.34375
5748,3.0,,,,,,,896.0,,,30,pitchwheel,,,,,734130,382.359375
5749,3.0,,,,,,,1024.0,,,30,pitchwheel,,,,,734160,382.375
5750,3.0,,,,,,,1152.0,,,30,pitchwheel,,,,,734190,382.390625
5751,3.0,,,,,,,1280.0,,,30,pitchwheel,,,,,734220,382.40625
5752,3.0,,,,,,,1408.0,,,30,pitchwheel,,,,,734250,382.421875
5753,3.0,,,,,,,1536.0,,,30,pitchwheel,,,,,734280,382.4375
5754,3.0,,,,,,,1664.0,,,30,pitchwheel,,,,,734310,382.453125
5755,3.0,,,,,,,1792.0,,,30,pitchwheel,,,,,734340,382.46875
5756,3.0,,,,,,,1920.0,,,30,pitchwheel,,,,,734370,382.484375
5757,3.0,,,,,,,2048.0,,,30,pitchwheel,,,,,734400,382.5
5758,3.0,,,,,,,2048.0,,,0,pitchwheel,,,,,734400,382.5
5759,3.0,,,,,,,1920.0,,,90,pitchwheel,,,,,734490,382.546875
5760,3.0,,,,,,,1792.0,,,90,pitchwheel,,,,,734580,382.59375
5761,3.0,,,,,,,1664.0,,,90,pitchwheel,,,,,734670,382.640625
5762,3.0,,,,,,,1536.0,,,90,pitchwheel,,,,,734760,382.6875
5763,3.0,,,,,,,1408.0,,,90,pitchwheel,,,,,734850,382.734375
5764,3.0,,,,,,,1280.0,,,90,pitchwheel,,,,,734940,382.78125
5765,3.0,,,,,,,1152.0,,,90,pitchwheel,,,,,735030,382.828125
5766,3.0,,,,,,,1024.0,,,90,pitchwheel,,,,,735120,382.875
5767,3.0,,,,,,,896.0,,,90,pitchwheel,,,,,735210,382.921875
5768,3.0,,,,,,,768.0,,,90,pitchwheel,,,,,735300,382.96875
5769,3.0,,,,,,,640.0,,,90,pitchwheel,,,,,735390,383.015625
5770,3.0,,,,,,,512.0,,,90,pitchwheel,,,,,735480,383.0625
5771,3.0,,,,,,,384.0,,,90,pitchwheel,,,,,735570,383.109375
5772,3.0,,,,,,,256.0,,,90,pitchwheel,,,,,735660,383.15625
5773,3.0,,,,,,,128.0,,,90,pitchwheel,,,,,735750,383.203125
5774,3.0,,,,,,,0.0,,,90,pitchwheel,,,,,735840,383.25
5775,3.0,,,,,,,0.0,,,0,pitchwheel,,,,,735840,383.25
5776,3.0,,,,,,,0.0,,,0,pitchwheel,,,,,735840,383.25
5777,3.0,,,,,54.0,,,,,0,note_off,,95.0,54.0,95.0,735840,383.25
5778,3.0,,,,,,,0.0,,,0,pitchwheel,,,,,735840,383.25
5779,3.0,,,,,71.0,,,,,0,note_on,,95.0,71.0,95.0,735840,383.25
5780,3.0,,,,,,,-128.0,,,26,pitchwheel,,,,,735866,383.26354166666664
5781,3.0,,,,,,,-256.0,,,26,pitchwheel,,,,,735892,383.27708333333334
5782,3.0,,,,,,,-384.0,,,26,pitchwheel,,,,,735918,383.290625
5783,3.0,,,,,,,-512.0,,,26,pitchwheel,,,,,735944,383.3041666666667
5784,3.0,,,,,,,-640.0,,,26,pitchwheel,,,,,735970,383.3177083333333
5785,3.0,,,,,,,-768.0,,,26,pitchwheel,,,,,735996,383.33125
5786,3.0,,,,,,,-896.0,,,26,pitchwheel,,,,,736022,383.34479166666665
5787,3.0,,,,,,,-1024.0,,,26,pitchwheel,,,,,736048,383.35833333333335
5788,3.0,,,,,,,-1152.0,,,26,pitchwheel,,,,,736074,383.371875
5789,3.0,,,,,,,-1280.0,,,26,pitchwheel,,,,,736100,383.3854166666667
5790,3.0,,,,,,,-1408.0,,,26,pitchwheel,,,,,736126,383.3989583333333
5791,3.0,,,,,,,-1536.0,,,26,pitchwheel,,,,,736152,383.4125
5792,3.0,,,,,,,-1664.0,,,26,pitchwheel,,,,,736178,383.42604166666666
5793,3.0,,,,,,,-1792.0,,,26,pitchwheel,,,,,736204,383.4395833333333
5794,3.0,,,,,,,-1920.0,,,26,pitchwheel,,,,,736230,383.453125
5795,3.0,,,,,,,-2048.0,,,26,pitchwheel,,,,,736256,383.46666666666664
5796,3.0,,,,,,,-2176.0,,,26,pitchwheel,,,,,736282,383.48020833333334
5797,3.0,,,,,,,-2304.0,,,26,pitchwheel,,,,,736308,383.49375
5798,3.0,,,,,,,-2432.0,,,26,pitchwheel,,,,,736334,383.5072916666667
5799,3.0,,,,,,,-2560.0,,,26,pitchwheel,,,,,736360,383.5208333333333
5800,3.0,,,,,,,-2688.0,,,26,pitchwheel,,,,,736386,383.534375
5801,3.0,,,,,,,-2816.0,,,26,pitchwheel,,,,,736412,383.54791666666665
5802,3.0,,,,,,,-2944.0,,,26,pitchwheel,,,,,736438,383.56145833333335
5803,3.0,,,,,,,-3072.0,,,26,pitchwheel,,,,,736464,383.575
5804,3.0,,,,,,,-3200.0,,,26,pitchwheel,,,,,736490,383.5885416666667
5805,3.0,,,,,,,-3328.0,,,26,pitchwheel,,,,,736516,383.6020833333333
5806,3.0,,,,,,,-3456.0,,,26,pitchwheel,,,,,736542,383.615625
5807,3.0,,,,,,,-3456.0,,,18,pitchwheel,,,,,736560,383.625
5808,3.0,,,,,,,-3328.0,,,26,pitchwheel,,,,,736586,383.63854166666664
5809,3.0,,,,,,,-3200.0,,,26,pitchwheel,,,,,736612,383.65208333333334
5810,3.0,,,,,,,-3072.0,,,26,pitchwheel,,,,,736638,383.665625
5811,3.0,,,,,,,-2944.0,,,26,pitchwheel,,,,,736664,383.6791666666667
5812,3.0,,,,,,,-2816.0,,,26,pitchwheel,,,,,736690,383.6927083333333
5813,3.0,,,,,,,-2688.0,,,26,pitchwheel,,,,,736716,383.70625
5814,3.0,,,,,,,-2560.0,,,26,pitchwheel,,,,,736742,383.71979166666665
5815,3.0,,,,,,,-2432.0,,,26,pitchwheel,,,,,736768,383.73333333333335
5816,3.0,,,,,,,-2304.0,,,26,pitchwheel,,,,,736794,383.746875
5817,3.0,,,,,,,-2176.0,,,26,pitchwheel,,,,,736820,383.7604166666667
5818,3.0,,,,,,,-2048.0,,,26,pitchwheel,,,,,736846,383.7739583333333
5819,3.0,,,,,,,-1920.0,,,26,pitchwheel,,,,,736872,383.7875
5820,3.0,,,,,,,-1792.0,,,26,pitchwheel,,,,,736898,383.80104166666666
5821,3.0,,,,,,,-1664.0,,,26,pitchwheel,,,,,736924,383.8145833333333
5822,3.0,,,,,,,-1536.0,,,26,pitchwheel,,,,,736950,383.828125
5823,3.0,,,,,,,-1408.0,,,26,pitchwheel,,,,,736976,383.84166666666664
5824,3.0,,,,,,,-1280.0,,,26,pitchwheel,,,,,737002,383.85520833333334
5825,3.0,,,,,,,-1152.0,,,26,pitchwheel,,,,,737028,383.86875
5826,3.0,,,,,,,-1024.0,,,26,pitchwheel,,,,,737054,383.8822916666667
5827,3.0,,,,,,,-896.0,,,26,pitchwheel,,,,,737080,383.8958333333333
5828,3.0,,,,,,,-768.0,,,26,pitchwheel,,,,,737106,383.909375
5829,3.0,,,,,,,-640.0,,,26,pitchwheel,,,,,737132,383.92291666666665
5830,3.0,,,,,,,-512.0,,,26,pitchwheel,,,,,737158,383.93645833333335
5831,3.0,,,,,,,-384.0,,,26,pitchwheel,,,,,737184,383.95
5832,3.0,,,,,,,-256.0,,,26,pitchwheel,,,,,737210,383.9635416666667
5833,3.0,,,,,,,-128.0,,,26,pitchwheel,,,,,737236,383.9770833333333
5834,3.0,,,,,,,0.0,,,26,pitchwheel,,,,,737262,383.990625
5835,3.0,,,,,,,0.0,,,18,pitchwheel,,,,,737280,384.0
5836,3.0,,,,,,,0.0,,,0,pitchwheel,,,,,737280,384.0
5837,3.0,,,,,71.0,,,,,0,note_off,,95.0,71.0,95.0,737280,384.0
5838,3.0,,,,,,,0.0,,,0,pitchwheel,,,,,737280,384.0
5839,3.0,,,,,54.0,,,,,0,note_on,,95.0,54.0,95.0,737280,384.0
5840,3.0,,,,,,,-128.0,,,44,pitchwheel,,,,,737324,384.0229166666667
5841,3.0,,,,,,,-256.0,,,44,pitchwheel,,,,,737368,384.04583333333335
5842,3.0,,,,,,,-384.0,,,44,pitchwheel,,,,,737412,384.06875
5843,3.0,,,,,,,-512.0,,,44,pitchwheel,,,,,737456,384.09166666666664
5844,3.0,,,,,,,-640.0,,,44,pitchwheel,,,,,737500,384.1145833333333
5845,3.0,,,,,,,-768.0,,,44,pitchwheel,,,,,737544,384.1375
5846,3.0,,,,,,,-896.0,,,44,pitchwheel,,,,,737588,384.16041666666666
5847,3.0,,,,,,,-1024.0,,,44,pitchwheel,,,,,737632,384.18333333333334
5848,3.0,,,,,,,-1152.0,,,44,pitchwheel,,,,,737676,384.20625
5849,3.0,,,,,,,-1280.0,,,44,pitchwheel,,,,,737720,384.2291666666667
5850,3.0,,,,,,,-1408.0,,,44,pitchwheel,,,,,737764,384.2520833333333
5851,3.0,,,,,,,-1536.0,,,44,pitchwheel,,,,,737808,384.275
5852,3.0,,,,,,,-1664.0,,,44,pitchwheel,,,,,737852,384.29791666666665
5853,3.0,,,,,,,-1792.0,,,44,pitchwheel,,,,,737896,384.3208333333333
5854,3.0,,,,,,,-1920.0,,,44,pitchwheel,,,,,737940,384.34375
5855,3.0,,,,,,,-2048.0,,,44,pitchwheel,,,,,737984,384.3666666666667
5856,3.0,,,,,,,-2176.0,,,44,pitchwheel,,,,,738028,384.38958333333335
5857,3.0,,,,,,,-2304.0,,,44,pitchwheel,,,,,738072,384.4125
5858,3.0,,,,,,,-2432.0,,,44,pitchwheel,,,,,738116,384.43541666666664
5859,3.0,,,,,,,-2560.0,,,44,pitchwheel,,,,,738160,384.4583333333333
5860,3.0,,,,,,,-2688.0,,,44,pitchwheel,,,,,738204,384.48125
5861,3.0,,,,,,,-2816.0,,,44,pitchwheel,,,,,738248,384.50416666666666
5862,3.0,,,,,,,-2944.0,,,44,pitchwheel,,,,,738292,384.52708333333334
5863,3.0,,,,,,,-3072.0,,,44,pitchwheel,,,,,738336,384.55
5864,3.0,,,,,,,-3200.0,,,44,pitchwheel,,,,,738380,384.5729166666667
5865,3.0,,,,,,,-3328.0,,,44,pitchwheel,,,,,738424,384.5958333333333
5866,3.0,,,,,,,-3456.0,,,44,pitchwheel,,,,,738468,384.61875
5867,3.0,,,,,,,-3456.0,,,12,pitchwheel,,,,,738480,384.625
5868,3.0,,,,,,,-3328.0,,,44,pitchwheel,,,,,738524,384.6479166666667
5869,3.0,,,,,,,-3200.0,,,44,pitchwheel,,,,,738568,384.67083333333335
5870,3.0,,,,,,,-3072.0,,,44,pitchwheel,,,,,738612,384.69375
5871,3.0,,,,,,,-2944.0,,,44,pitchwheel,,,,,738656,384.71666666666664
5872,3.0,,,,,,,-2816.0,,,44,pitchwheel,,,,,738700,384.7395833333333
5873,3.0,,,,,,,-2688.0,,,44,pitchwheel,,,,,738744,384.7625
5874,3.0,,,,,,,-2560.0,,,44,pitchwheel,,,,,738788,384.78541666666666
5875,3.0,,,,,,,-2432.0,,,44,pitchwheel,,,,,738832,384.80833333333334
5876,3.0,,,,,,,-2304.0,,,44,pitchwheel,,,,,738876,384.83125
5877,3.0,,,,,,,-2176.0,,,44,pitchwheel,,,,,738920,384.8541666666667
5878,3.0,,,,,,,-2048.0,,,44,pitchwheel,,,,,738964,384.8770833333333
5879,3.0,,,,,,,-1920.0,,,44,pitchwheel,,,,,739008,384.9
5880,3.0,,,,,,,-1792.0,,,44,pitchwheel,,,,,739052,384.92291666666665
5881,3.0,,,,,,,-1664.0,,,44,pitchwheel,,,,,739096,384.9458333333333
5882,3.0,,,,,,,-1536.0,,,44,pitchwheel,,,,,739140,384.96875
5883,3.0,,,,,,,-1408.0,,,44,pitchwheel,,,,,739184,384.9916666666667
5884,3.0,,,,,,,-1280.0,,,44,pitchwheel,,,,,739228,385.01458333333335
5885,3.0,,,,,,,-1152.0,,,44,pitchwheel,,,,,739272,385.0375
5886,3.0,,,,,,,-1024.0,,,44,pitchwheel,,,,,739316,385.06041666666664
5887,3.0,,,,,,,-896.0,,,44,pitchwheel,,,,,739360,385.0833333333333
5888,3.0,,,,,,,-768.0,,,44,pitchwheel,,,,,739404,385.10625
5889,3.0,,,,,,,-640.0,,,44,pitchwheel,,,,,739448,385.12916666666666
5890,3.0,,,,,,,-512.0,,,44,pitchwheel,,,,,739492,385.15208333333334
5891,3.0,,,,,,,-384.0,,,44,pitchwheel,,,,,739536,385.175
5892,3.0,,,,,,,-256.0,,,44,pitchwheel,,,,,739580,385.1979166666667
5893,3.0,,,,,,,-128.0,,,44,pitchwheel,,,,,739624,385.2208333333333
5894,3.0,,,,,,,0.0,,,44,pitchwheel,,,,,739668,385.24375
5895,3.0,,,,,,,0.0,,,12,pitchwheel,,,,,739680,385.25
5896,3.0,,,,,,,0.0,,,0,pitchwheel,,,,,739680,385.25
5897,3.0,,,,,54.0,,,,,0,note_off,,95.0,54.0,95.0,739680,385.25
5898,3.0,,,,,,,0.0,,,0,pitchwheel,,,,,739680,385.25
5899,3.0,,,,,61.0,,,,,0,note_on,,95.0,61.0,95.0,739680,385.25
5900,3.0,,,,,,,-128.0,,,2,pitchwheel,,,,,739682,385.25104166666665
5901,3.0,,,,,,,-256.0,,,2,pitchwheel,,,,,739684,385.2520833333333
5902,3.0,,,,,,,-384.0,,,2,pitchwheel,,,,,739686,385.253125
5903,3.0,,,,,,,-512.0,,,2,pitchwheel,,,,,739688,385.25416666666666
5904,3.0,,,,,,,-640.0,,,2,pitchwheel,,,,,739690,385.2552083333333
5905,3.0,,,,,,,-768.0,,,2,pitchwheel,,,,,739692,385.25625
5906,3.0,,,,,,,-896.0,,,2,pitchwheel,,,,,739694,385.2572916666667
5907,3.0,,,,,,,-1024.0,,,2,pitchwheel,,,,,739696,385.2583333333333
5908,3.0,,,,,,,-1152.0,,,2,pitchwheel,,,,,739698,385.259375
5909,3.0,,,,,,,-1280.0,,,2,pitchwheel,,,,,739700,385.2604166666667
5910,3.0,,,,,,,-1408.0,,,2,pitchwheel,,,,,739702,385.26145833333334
5911,3.0,,,,,,,-1536.0,,,2,pitchwheel,,,,,739704,385.2625
5912,3.0,,,,,,,-1664.0,,,2,pitchwheel,,,,,739706,385.26354166666664
5913,3.0,,,,,,,-1792.0,,,2,pitchwheel,,,,,739708,385.26458333333335
5914,3.0,,,,,,,-1920.0,,,2,pitchwheel,,,,,739710,385.265625
5915,3.0,,,,,,,-2048.0,,,2,pitchwheel,,,,,739712,385.26666666666665
5916,3.0,,,,,,,-2176.0,,,2,pitchwheel,,,,,739714,385.2677083333333
5917,3.0,,,,,,,-2304.0,,,2,pitchwheel,,,,,739716,385.26875
5918,3.0,,,,,,,-2432.0,,,2,pitchwheel,,,,,739718,385.26979166666666
5919,3.0,,,,,,,-2560.0,,,2,pitchwheel,,,,,739720,385.2708333333333
5920,3.0,,,,,,,-2688.0,,,2,pitchwheel,,,,,739722,385.271875
5921,3.0,,,,,,,-2816.0,,,2,pitchwheel,,,,,739724,385.2729166666667
5922,3.0,,,,,,,-2944.0,,,2,pitchwheel,,,,,739726,385.2739583333333
5923,3.0,,,,,,,-3072.0,,,2,pitchwheel,,,,,739728,385.275
5924,3.0,,,,,,,-3200.0,,,2,pitchwheel,,,,,739730,385.2760416666667
5925,3.0,,,,,,,-3328.0,,,2,pitchwheel,,,,,739732,385.27708333333334
5926,3.0,,,,,,,-3456.0,,,2,pitchwheel,,,,,739734,385.278125
5927,3.0,,,,,,,-3584.0,,,2,pitchwheel,,,,,739736,385.27916666666664
5928,3.0,,,,,,,-3712.0,,,2,pitchwheel,,,,,739738,385.28020833333335
5929,3.0,,,,,,,-3840.0,,,2,pitchwheel,,,,,739740,385.28125
5930,3.0,,,,,,,-3968.0,,,2,pitchwheel,,,,,739742,385.28229166666665
5931,3.0,,,,,,,-4096.0,,,2,pitchwheel,,,,,739744,385.2833333333333
5932,3.0,,,,,,,-4224.0,,,2,pitchwheel,,,,,739746,385.284375
5933,3.0,,,,,,,-4224.0,,,14,pitchwheel,,,,,739760,385.2916666666667
5934,3.0,,,,,,,-4096.0,,,2,pitchwheel,,,,,739762,385.29270833333334
5935,3.0,,,,,,,-3968.0,,,2,pitchwheel,,,,,739764,385.29375
5936,3.0,,,,,,,-3840.0,,,2,pitchwheel,,,,,739766,385.29479166666664
5937,3.0,,,,,,,-3712.0,,,2,pitchwheel,,,,,739768,385.29583333333335
5938,3.0,,,,,,,-3584.0,,,2,pitchwheel,,,,,739770,385.296875
5939,3.0,,,,,,,-3456.0,,,2,pitchwheel,,,,,739772,385.29791666666665
5940,3.0,,,,,,,-3328.0,,,2,pitchwheel,,,,,739774,385.2989583333333
5941,3.0,,,,,,,-3200.0,,,2,pitchwheel,,,,,739776,385.3
5942,3.0,,,,,,,-3072.0,,,2,pitchwheel,,,,,739778,385.30104166666666
5943,3.0,,,,,,,-2944.0,,,2,pitchwheel,,,,,739780,385.3020833333333
5944,3.0,,,,,,,-2816.0,,,2,pitchwheel,,,,,739782,385.303125
5945,3.0,,,,,,,-2688.0,,,2,pitchwheel,,,,,739784,385.3041666666667
5946,3.0,,,,,,,-2560.0,,,2,pitchwheel,,,,,739786,385.3052083333333
5947,3.0,,,,,,,-2432.0,,,2,pitchwheel,,,,,739788,385.30625
5948,3.0,,,,,,,-2304.0,,,2,pitchwheel,,,,,739790,385.3072916666667
5949,3.0,,,,,,,-2176.0,,,2,pitchwheel,,,,,739792,385.30833333333334
5950,3.0,,,,,,,-2048.0,,,2,pitchwheel,,,,,739794,385.309375
5951,3.0,,,,,,,-1920.0,,,2,pitchwheel,,,,,739796,385.31041666666664
5952,3.0,,,,,,,-1792.0,,,2,pitchwheel,,,,,739798,385.31145833333335
5953,3.0,,,,,,,-1664.0,,,2,pitchwheel,,,,,739800,385.3125
5954,3.0,,,,,,,-1536.0,,,2,pitchwheel,,,,,739802,385.31354166666665
5955,3.0,,,,,,,-1408.0,,,2,pitchwheel,,,,,739804,385.3145833333333
5956,3.0,,,,,,,-1280.0,,,2,pitchwheel,,,,,739806,385.315625
5957,3.0,,,,,,,-1152.0,,,2,pitchwheel,,,,,739808,385.31666666666666
5958,3.0,,,,,,,-1024.0,,,2,pitchwheel,,,,,739810,385.3177083333333
5959,3.0,,,,,,,-896.0,,,2,pitchwheel,,,,,739812,385.31875
5960,3.0,,,,,,,-768.0,,,2,pitchwheel,,,,,739814,385.3197916666667
5961,3.0,,,,,,,-640.0,,,2,pitchwheel,,,,,739816,385.3208333333333
5962,3.0,,,,,,,-512.0,,,2,pitchwheel,,,,,739818,385.321875
5963,3.0,,,,,,,-384.0,,,2,pitchwheel,,,,,739820,385.3229166666667
5964,3.0,,,,,,,-256.0,,,2,pitchwheel,,,,,739822,385.32395833333334
5965,3.0,,,,,,,-128.0,,,2,pitchwheel,,,,,739824,385.325
5966,3.0,,,,,,,0.0,,,2,pitchwheel,,,,,739826,385.32604166666664
5967,3.0,,,,,,,0.0,,,14,pitchwheel,,,,,739840,385.3333333333333
5968,3.0,,,,,,,0.0,,,0,pitchwheel,,,,,739840,385.3333333333333
5969,3.0,,,,,61.0,,,,,0,note_off,,95.0,61.0,95.0,739840,385.3333333333333
5970,2.0,,,,,59.0,,,,,0,note_on,,95.0,59.0,95.0,739840,385.3333333333333
5971,2.0,,,,,59.0,,,,,160,note_off,,95.0,59.0,95.0,740000,385.4166666666667
5972,3.0,,,,,,,0.0,,,0,pitchwheel,,,,,740000,385.4166666666667
5973,3.0,,,,,54.0,,,,,0,note_on,,95.0,54.0,95.0,740000,385.4166666666667
5974,3.0,,,,,,,-128.0,,,1,pitchwheel,,,,,740001,385.4171875
5975,3.0,,,,,,,-256.0,,,1,pitchwheel,,,,,740002,385.41770833333334
5976,3.0,,,,,,,-384.0,,,1,pitchwheel,,,,,740003,385.41822916666666
5977,3.0,,,,,,,-512.0,,,1,pitchwheel,,,,,740004,385.41875
5978,3.0,,,,,,,-640.0,,,1,pitchwheel,,,,,740005,385.4192708333333
5979,3.0,,,,,,,-768.0,,,1,pitchwheel,,,,,740006,385.41979166666664
5980,3.0,,,,,,,-896.0,,,1,pitchwheel,,,,,740007,385.4203125
5981,3.0,,,,,,,-1024.0,,,1,pitchwheel,,,,,740008,385.42083333333335
5982,3.0,,,,,,,-1152.0,,,1,pitchwheel,,,,,740009,385.4213541666667
5983,3.0,,,,,,,-1280.0,,,1,pitchwheel,,,,,740010,385.421875
5984,3.0,,,,,,,-1408.0,,,1,pitchwheel,,,,,740011,385.4223958333333
5985,3.0,,,,,,,-1536.0,,,1,pitchwheel,,,,,740012,385.42291666666665
5986,3.0,,,,,,,-1664.0,,,1,pitchwheel,,,,,740013,385.4234375
5987,3.0,,,,,,,-1792.0,,,1,pitchwheel,,,,,740014,385.4239583333333
5988,3.0,,,,,,,-1920.0,,,1,pitchwheel,,,,,740015,385.4244791666667
5989,3.0,,,,,,,-2048.0,,,1,pitchwheel,,,,,740016,385.425
5990,3.0,,,,,,,-2176.0,,,1,pitchwheel,,,,,740017,385.42552083333334
5991,3.0,,,,,,,-2304.0,,,1,pitchwheel,,,,,740018,385.42604166666666
5992,3.0,,,,,,,-2432.0,,,1,pitchwheel,,,,,740019,385.4265625
5993,3.0,,,,,,,-2560.0,,,1,pitchwheel,,,,,740020,385.4270833333333
5994,3.0,,,,,,,-2688.0,,,1,pitchwheel,,,,,740021,385.42760416666664
5995,3.0,,,,,,,-2816.0,,,1,pitchwheel,,,,,740022,385.428125
5996,3.0,,,,,,,-2944.0,,,1,pitchwheel,,,,,740023,385.42864583333335
5997,3.0,,,,,,,-3072.0,,,1,pitchwheel,,,,,740024,385.4291666666667
5998,3.0,,,,,,,-3200.0,,,1,pitchwheel,,,,,740025,385.4296875
5999,3.0,,,,,,,-3328.0,,,1,pitchwheel,,,,,740026,385.4302083333333
6000,3.0,,,,,,,-3456.0,,,1,pitchwheel,,,,,740027,385.43072916666665
6001,3.0,,,,,,,-3584.0,,,1,pitchwheel,,,,,740028,385.43125
6002,3.0,,,,,,,-3712.0,,,1,pitchwheel,,,,,740029,385.4317708333333
6003,3.0,,,,,,,-3840.0,,,1,pitchwheel,,,,,740030,385.4322916666667
6004,3.0,,,,,,,-3968.0,,,1,pitchwheel,,,,,740031,385.4328125
6005,3.0,,,,,,,-4096.0,,,1,pitchwheel,,,,,740032,385.43333333333334
6006,3.0,,,,,,,-4224.0,,,1,pitchwheel,,,,,740033,385.43385416666666
6007,3.0,,,,,,,-4352.0,,,1,pitchwheel,,,,,740034,385.434375
6008,3.0,,,,,,,-4480.0,,,1,pitchwheel,,,,,740035,385.4348958333333
6009,3.0,,,,,,,-4608.0,,,1,pitchwheel,,,,,740036,385.43541666666664
6010,3.0,,,,,,,-4736.0,,,1,pitchwheel,,,,,740037,385.4359375
6011,3.0,,,,,,,-4864.0,,,1,pitchwheel,,,,,740038,385.43645833333335
6012,3.0,,,,,,,-4992.0,,,1,pitchwheel,,,,,740039,385.4369791666667
6013,3.0,,,,,,,-5120.0,,,1,pitchwheel,,,,,740040,385.4375
6014,3.0,,,,,,,-5248.0,,,1,pitchwheel,,,,,740041,385.4380208333333
6015,3.0,,,,,,,-5376.0,,,1,pitchwheel,,,,,740042,385.43854166666665
6016,3.0,,,,,,,-5504.0,,,1,pitchwheel,,,,,740043,385.4390625
6017,3.0,,,,,,,-5632.0,,,1,pitchwheel,,,,,740044,385.4395833333333
6018,3.0,,,,,,,-5760.0,,,1,pitchwheel,,,,,740045,385.4401041666667
6019,3.0,,,,,,,-5888.0,,,1,pitchwheel,,,,,740046,385.440625
6020,3.0,,,,,,,-6016.0,,,1,pitchwheel,,,,,740047,385.44114583333334
6021,3.0,,,,,,,-6144.0,,,1,pitchwheel,,,,,740048,385.44166666666666
6022,3.0,,,,,,,-6272.0,,,1,pitchwheel,,,,,740049,385.4421875
6023,3.0,,,,,,,-6400.0,,,1,pitchwheel,,,,,740050,385.4427083333333
6024,3.0,,,,,,,-6528.0,,,1,pitchwheel,,,,,740051,385.44322916666664
6025,3.0,,,,,,,-6656.0,,,1,pitchwheel,,,,,740052,385.44375
6026,3.0,,,,,,,-6784.0,,,1,pitchwheel,,,,,740053,385.44427083333335
6027,3.0,,,,,,,-6912.0,,,1,pitchwheel,,,,,740054,385.4447916666667
6028,3.0,,,,,,,-7040.0,,,1,pitchwheel,,,,,740055,385.4453125
6029,3.0,,,,,,,-7040.0,,,25,pitchwheel,,,,,740080,385.4583333333333
6030,3.0,,,,,,,-6912.0,,,1,pitchwheel,,,,,740081,385.45885416666664
6031,3.0,,,,,,,-6784.0,,,1,pitchwheel,,,,,740082,385.459375
6032,3.0,,,,,,,-6656.0,,,1,pitchwheel,,,,,740083,385.45989583333335
6033,3.0,,,,,,,-6528.0,,,1,pitchwheel,,,,,740084,385.4604166666667
6034,3.0,,,,,,,-6400.0,,,1,pitchwheel,,,,,740085,385.4609375
6035,3.0,,,,,,,-6272.0,,,1,pitchwheel,,,,,740086,385.4614583333333
6036,3.0,,,,,,,-6144.0,,,1,pitchwheel,,,,,740087,385.46197916666665
6037,3.0,,,,,,,-6016.0,,,1,pitchwheel,,,,,740088,385.4625
6038,3.0,,,,,,,-5888.0,,,1,pitchwheel,,,,,740089,385.4630208333333
6039,3.0,,,,,,,-5760.0,,,1,pitchwheel,,,,,740090,385.4635416666667
6040,3.0,,,,,,,-5632.0,,,1,pitchwheel,,,,,740091,385.4640625
6041,3.0,,,,,,,-5504.0,,,1,pitchwheel,,,,,740092,385.46458333333334
6042,3.0,,,,,,,-5376.0,,,1,pitchwheel,,,,,740093,385.46510416666666
6043,3.0,,,,,,,-5248.0,,,1,pitchwheel,,,,,740094,385.465625
6044,3.0,,,,,,,-5120.0,,,1,pitchwheel,,,,,740095,385.4661458333333
6045,3.0,,,,,,,-4992.0,,,1,pitchwheel,,,,,740096,385.46666666666664
6046,3.0,,,,,,,-4864.0,,,1,pitchwheel,,,,,740097,385.4671875
6047,3.0,,,,,,,-4736.0,,,1,pitchwheel,,,,,740098,385.46770833333335
6048,3.0,,,,,,,-4608.0,,,1,pitchwheel,,,,,740099,385.4682291666667
6049,3.0,,,,,,,-4480.0,,,1,pitchwheel,,,,,740100,385.46875
6050,3.0,,,,,,,-4352.0,,,1,pitchwheel,,,,,740101,385.4692708333333
6051,3.0,,,,,,,-4224.0,,,1,pitchwheel,,,,,740102,385.46979166666665
6052,3.0,,,,,,,-4096.0,,,1,pitchwheel,,,,,740103,385.4703125
6053,3.0,,,,,,,-3968.0,,,1,pitchwheel,,,,,740104,385.4708333333333
6054,3.0,,,,,,,-3840.0,,,1,pitchwheel,,,,,740105,385.4713541666667
6055,3.0,,,,,,,-3712.0,,,1,pitchwheel,,,,,740106,385.471875
6056,3.0,,,,,,,-3584.0,,,1,pitchwheel,,,,,740107,385.47239583333334
6057,3.0,,,,,,,-3456.0,,,1,pitchwheel,,,,,740108,385.47291666666666
6058,3.0,,,,,,,-3328.0,,,1,pitchwheel,,,,,740109,385.4734375
6059,3.0,,,,,,,-3200.0,,,1,pitchwheel,,,,,740110,385.4739583333333
6060,3.0,,,,,,,-3072.0,,,1,pitchwheel,,,,,740111,385.47447916666664
6061,3.0,,,,,,,-2944.0,,,1,pitchwheel,,,,,740112,385.475
6062,3.0,,,,,,,-2816.0,,,1,pitchwheel,,,,,740113,385.47552083333335
6063,3.0,,,,,,,-2688.0,,,1,pitchwheel,,,,,740114,385.4760416666667
6064,3.0,,,,,,,-2560.0,,,1,pitchwheel,,,,,740115,385.4765625
6065,3.0,,,,,,,-2432.0,,,1,pitchwheel,,,,,740116,385.4770833333333
6066,3.0,,,,,,,-2304.0,,,1,pitchwheel,,,,,740117,385.47760416666665
6067,3.0,,,,,,,-2176.0,,,1,pitchwheel,,,,,740118,385.478125
6068,3.0,,,,,,,-2048.0,,,1,pitchwheel,,,,,740119,385.4786458333333
6069,3.0,,,,,,,-1920.0,,,1,pitchwheel,,,,,740120,385.4791666666667
6070,3.0,,,,,,,-1792.0,,,1,pitchwheel,,,,,740121,385.4796875
6071,3.0,,,,,,,-1664.0,,,1,pitchwheel,,,,,740122,385.48020833333334
6072,3.0,,,,,,,-1536.0,,,1,pitchwheel,,,,,740123,385.48072916666666
6073,3.0,,,,,,,-1408.0,,,1,pitchwheel,,,,,740124,385.48125
6074,3.0,,,,,,,-1280.0,,,1,pitchwheel,,,,,740125,385.4817708333333
6075,3.0,,,,,,,-1152.0,,,1,pitchwheel,,,,,740126,385.48229166666664
6076,3.0,,,,,,,-1024.0,,,1,pitchwheel,,,,,740127,385.4828125
6077,3.0,,,,,,,-896.0,,,1,pitchwheel,,,,,740128,385.48333333333335
6078,3.0,,,,,,,-768.0,,,1,pitchwheel,,,,,740129,385.4838541666667
6079,3.0,,,,,,,-640.0,,,1,pitchwheel,,,,,740130,385.484375
6080,3.0,,,,,,,-512.0,,,1,pitchwheel,,,,,740131,385.4848958333333
6081,3.0,,,,,,,-384.0,,,1,pitchwheel,,,,,740132,385.48541666666665
6082,3.0,,,,,,,-256.0,,,1,pitchwheel,,,,,740133,385.4859375
6083,3.0,,,,,,,-128.0,,,1,pitchwheel,,,,,740134,385.4864583333333
6084,3.0,,,,,,,0.0,,,1,pitchwheel,,,,,740135,385.4869791666667
6085,3.0,,,,,,,0.0,,,25,pitchwheel,,,,,740160,385.5
6086,3.0,,,,,,,0.0,,,0,pitchwheel,,,,,740160,385.5
6087,3.0,,,,,54.0,,,,,0,note_off,,95.0,54.0,95.0,740160,385.5
6088,2.0,,,,,61.0,,,,,0,note_on,,95.0,61.0,95.0,740160,385.5
6089,2.0,,,,,61.0,,,,,160,note_off,,95.0,61.0,95.0,740320,385.5833333333333
6090,3.0,,,,,,,0.0,,,0,pitchwheel,,,,,740320,385.5833333333333
6091,3.0,,,,,59.0,,,,,0,note_on,,95.0,59.0,95.0,740320,385.5833333333333
6092,3.0,,,,,,,-128.0,,,2,pitchwheel,,,,,740322,385.584375
6093,3.0,,,,,,,-256.0,,,2,pitchwheel,,,,,740324,385.5854166666667
6094,3.0,,,,,,,-384.0,,,2,pitchwheel,,,,,740326,385.5864583333333
6095,3.0,,,,,,,-512.0,,,2,pitchwheel,,,,,740328,385.5875
6096,3.0,,,,,,,-640.0,,,2,pitchwheel,,,,,740330,385.5885416666667
6097,3.0,,,,,,,-768.0,,,2,pitchwheel,,,,,740332,385.58958333333334
6098,3.0,,,,,,,-896.0,,,2,pitchwheel,,,,,740334,385.590625
6099,3.0,,,,,,,-1024.0,,,2,pitchwheel,,,,,740336,385.59166666666664
6100,3.0,,,,,,,-1152.0,,,2,pitchwheel,,,,,740338,385.59270833333335
6101,3.0,,,,,,,-1280.0,,,2,pitchwheel,,,,,740340,385.59375
6102,3.0,,,,,,,-1408.0,,,2,pitchwheel,,,,,740342,385.59479166666665
6103,3.0,,,,,,,-1536.0,,,2,pitchwheel,,,,,740344,385.5958333333333
6104,3.0,,,,,,,-1664.0,,,2,pitchwheel,,,,,740346,385.596875
6105,3.0,,,,,,,-1792.0,,,2,pitchwheel,,,,,740348,385.59791666666666
6106,3.0,,,,,,,-1920.0,,,2,pitchwheel,,,,,740350,385.5989583333333
6107,3.0,,,,,,,-2048.0,,,2,pitchwheel,,,,,740352,385.6
6108,3.0,,,,,,,-2176.0,,,2,pitchwheel,,,,,740354,385.6010416666667
6109,3.0,,,,,,,-2304.0,,,2,pitchwheel,,,,,740356,385.6020833333333
6110,3.0,,,,,,,-2432.0,,,2,pitchwheel,,,,,740358,385.603125
6111,3.0,,,,,,,-2560.0,,,2,pitchwheel,,,,,740360,385.6041666666667
6112,3.0,,,,,,,-2688.0,,,2,pitchwheel,,,,,740362,385.60520833333334
6113,3.0,,,,,,,-2816.0,,,2,pitchwheel,,,,,740364,385.60625
6114,3.0,,,,,,,-2944.0,,,2,pitchwheel,,,,,740366,385.60729166666664
6115,3.0,,,,,,,-3072.0,,,2,pitchwheel,,,,,740368,385.60833333333335
6116,3.0,,,,,,,-3200.0,,,2,pitchwheel,,,,,740370,385.609375
6117,3.0,,,,,,,-3328.0,,,2,pitchwheel,,,,,740372,385.61041666666665
6118,3.0,,,,,,,-3456.0,,,2,pitchwheel,,,,,740374,385.6114583333333
6119,3.0,,,,,,,-3584.0,,,2,pitchwheel,,,,,740376,385.6125
6120,3.0,,,,,,,-3712.0,,,2,pitchwheel,,,,,740378,385.61354166666666
6121,3.0,,,,,,,-3840.0,,,2,pitchwheel,,,,,740380,385.6145833333333
6122,3.0,,,,,,,-3968.0,,,2,pitchwheel,,,,,740382,385.615625
6123,3.0,,,,,,,-4096.0,,,2,pitchwheel,,,,,740384,385.6166666666667
6124,3.0,,,,,,,-4224.0,,,2,pitchwheel,,,,,740386,385.6177083333333
6125,3.0,,,,,,,-4224.0,,,14,pitchwheel,,,,,740400,385.625
6126,3.0,,,,,,,-4096.0,,,2,pitchwheel,,,,,740402,385.62604166666665
6127,3.0,,,,,,,-3968.0,,,2,pitchwheel,,,,,740404,385.6270833333333
6128,3.0,,,,,,,-3840.0,,,2,pitchwheel,,,,,740406,385.628125
6129,3.0,,,,,,,-3712.0,,,2,pitchwheel,,,,,740408,385.62916666666666
6130,3.0,,,,,,,-3584.0,,,2,pitchwheel,,,,,740410,385.6302083333333
6131,3.0,,,,,,,-3456.0,,,2,pitchwheel,,,,,740412,385.63125
6132,3.0,,,,,,,-3328.0,,,2,pitchwheel,,,,,740414,385.6322916666667
6133,3.0,,,,,,,-3200.0,,,2,pitchwheel,,,,,740416,385.6333333333333
6134,3.0,,,,,,,-3072.0,,,2,pitchwheel,,,,,740418,385.634375
6135,3.0,,,,,,,-2944.0,,,2,pitchwheel,,,,,740420,385.6354166666667
6136,3.0,,,,,,,-2816.0,,,2,pitchwheel,,,,,740422,385.63645833333334
6137,3.0,,,,,,,-2688.0,,,2,pitchwheel,,,,,740424,385.6375
6138,3.0,,,,,,,-2560.0,,,2,pitchwheel,,,,,740426,385.63854166666664
6139,3.0,,,,,,,-2432.0,,,2,pitchwheel,,,,,740428,385.63958333333335
6140,3.0,,,,,,,-2304.0,,,2,pitchwheel,,,,,740430,385.640625
6141,3.0,,,,,,,-2176.0,,,2,pitchwheel,,,,,740432,385.64166666666665
6142,3.0,,,,,,,-2048.0,,,2,pitchwheel,,,,,740434,385.6427083333333
6143,3.0,,,,,,,-1920.0,,,2,pitchwheel,,,,,740436,385.64375
6144,3.0,,,,,,,-1792.0,,,2,pitchwheel,,,,,740438,385.64479166666666
6145,3.0,,,,,,,-1664.0,,,2,pitchwheel,,,,,740440,385.6458333333333
6146,3.0,,,,,,,-1536.0,,,2,pitchwheel,,,,,740442,385.646875
6147,3.0,,,,,,,-1408.0,,,2,pitchwheel,,,,,740444,385.6479166666667
6148,3.0,,,,,,,-1280.0,,,2,pitchwheel,,,,,740446,385.6489583333333
6149,3.0,,,,,,,-1152.0,,,2,pitchwheel,,,,,740448,385.65
6150,3.0,,,,,,,-1024.0,,,2,pitchwheel,,,,,740450,385.6510416666667
6151,3.0,,,,,,,-896.0,,,2,pitchwheel,,,,,740452,385.65208333333334
6152,3.0,,,,,,,-768.0,,,2,pitchwheel,,,,,740454,385.653125
6153,3.0,,,,,,,-640.0,,,2,pitchwheel,,,,,740456,385.65416666666664
6154,3.0,,,,,,,-512.0,,,2,pitchwheel,,,,,740458,385.65520833333335
6155,3.0,,,,,,,-384.0,,,2,pitchwheel,,,,,740460,385.65625
6156,3.0,,,,,,,-256.0,,,2,pitchwheel,,,,,740462,385.65729166666665
6157,3.0,,,,,,,-128.0,,,2,pitchwheel,,,,,740464,385.6583333333333
6158,3.0,,,,,,,0.0,,,2,pitchwheel,,,,,740466,385.659375
6159,3.0,,,,,,,0.0,,,14,pitchwheel,,,,,740480,385.6666666666667
6160,3.0,,,,,,,0.0,,,0,pitchwheel,,,,,740480,385.6666666666667
6161,3.0,,,,,59.0,,,,,0,note_off,,95.0,59.0,95.0,740480,385.6666666666667
6162,2.0,,,,,54.0,,,,,0,note_on,,95.0,54.0,95.0,740480,385.6666666666667
6163,2.0,,,,,54.0,,,,,160,note_off,,95.0,54.0,95.0,740640,385.75
6164,3.0,,,,,,,0.0,,,0,pitchwheel,,,,,740640,385.75
6165,3.0,,,,,61.0,,,,,0,note_on,,95.0,61.0,95.0,740640,385.75
6166,3.0,,,,,,,-128.0,,,3,pitchwheel,,,,,740643,385.7515625
6167,3.0,,,,,,,-256.0,,,3,pitchwheel,,,,,740646,385.753125
6168,3.0,,,,,,,-384.0,,,3,pitchwheel,,,,,740649,385.7546875
6169,3.0,,,,,,,-512.0,,,3,pitchwheel,,,,,740652,385.75625
6170,3.0,,,,,,,-640.0,,,3,pitchwheel,,,,,740655,385.7578125
6171,3.0,,,,,,,-768.0,,,3,pitchwheel,,,,,740658,385.759375
6172,3.0,,,,,,,-896.0,,,3,pitchwheel,,,,,740661,385.7609375
6173,3.0,,,,,,,-1024.0,,,3,pitchwheel,,,,,740664,385.7625
6174,3.0,,,,,,,-1152.0,,,3,pitchwheel,,,,,740667,385.7640625
6175,3.0,,,,,,,-1280.0,,,3,pitchwheel,,,,,740670,385.765625
6176,3.0,,,,,,,-1408.0,,,3,pitchwheel,,,,,740673,385.7671875
6177,3.0,,,,,,,-1536.0,,,3,pitchwheel,,,,,740676,385.76875
6178,3.0,,,,,,,-1664.0,,,3,pitchwheel,,,,,740679,385.7703125
6179,3.0,,,,,,,-1792.0,,,3,pitchwheel,,,,,740682,385.771875
6180,3.0,,,,,,,-1920.0,,,3,pitchwheel,,,,,740685,385.7734375
6181,3.0,,,,,,,-2048.0,,,3,pitchwheel,,,,,740688,385.775
6182,3.0,,,,,,,-2176.0,,,3,pitchwheel,,,,,740691,385.7765625
6183,3.0,,,,,,,-2304.0,,,3,pitchwheel,,,,,740694,385.778125
6184,3.0,,,,,,,-2432.0,,,3,pitchwheel,,,,,740697,385.7796875
6185,3.0,,,,,,,-2560.0,,,3,pitchwheel,,,,,740700,385.78125
6186,3.0,,,,,,,-2688.0,,,3,pitchwheel,,,,,740703,385.7828125
6187,3.0,,,,,,,-2816.0,,,3,pitchwheel,,,,,740706,385.784375
6188,3.0,,,,,,,-2816.0,,,14,pitchwheel,,,,,740720,385.7916666666667
6189,3.0,,,,,,,-2688.0,,,3,pitchwheel,,,,,740723,385.79322916666666
6190,3.0,,,,,,,-2560.0,,,3,pitchwheel,,,,,740726,385.79479166666664
6191,3.0,,,,,,,-2432.0,,,3,pitchwheel,,,,,740729,385.7963541666667
6192,3.0,,,,,,,-2304.0,,,3,pitchwheel,,,,,740732,385.79791666666665
6193,3.0,,,,,,,-2176.0,,,3,pitchwheel,,,,,740735,385.7994791666667
6194,3.0,,,,,,,-2048.0,,,3,pitchwheel,,,,,740738,385.80104166666666
6195,3.0,,,,,,,-1920.0,,,3,pitchwheel,,,,,740741,385.80260416666664
6196,3.0,,,,,,,-1792.0,,,3,pitchwheel,,,,,740744,385.8041666666667
6197,3.0,,,,,,,-1664.0,,,3,pitchwheel,,,,,740747,385.80572916666665
6198,3.0,,,,,,,-1536.0,,,3,pitchwheel,,,,,740750,385.8072916666667
6199,3.0,,,,,,,-1408.0,,,3,pitchwheel,,,,,740753,385.80885416666666
6200,3.0,,,,,,,-1280.0,,,3,pitchwheel,,,,,740756,385.81041666666664
6201,3.0,,,,,,,-1152.0,,,3,pitchwheel,,,,,740759,385.8119791666667
6202,3.0,,,,,,,-1024.0,,,3,pitchwheel,,,,,740762,385.81354166666665
6203,3.0,,,,,,,-896.0,,,3,pitchwheel,,,,,740765,385.8151041666667
6204,3.0,,,,,,,-768.0,,,3,pitchwheel,,,,,740768,385.81666666666666
6205,3.0,,,,,,,-640.0,,,3,pitchwheel,,,,,740771,385.81822916666664
6206,3.0,,,,,,,-512.0,,,3,pitchwheel,,,,,740774,385.8197916666667
6207,3.0,,,,,,,-384.0,,,3,pitchwheel,,,,,740777,385.82135416666665
6208,3.0,,,,,,,-256.0,,,3,pitchwheel,,,,,740780,385.8229166666667
6209,3.0,,,,,,,-128.0,,,3,pitchwheel,,,,,740783,385.82447916666666
6210,3.0,,,,,,,0.0,,,3,pitchwheel,,,,,740786,385.82604166666664
6211,3.0,,,,,,,0.0,,,14,pitchwheel,,,,,740800,385.8333333333333
6212,3.0,,,,,,,0.0,,,0,pitchwheel,,,,,740800,385.8333333333333
6213,3.0,,,,,61.0,,,,,0,note_off,,95.0,61.0,95.0,740800,385.8333333333333
6214,3.0,,,,,,,0.0,,,0,pitchwheel,,,,,740800,385.8333333333333
6215,3.0,,,,,59.0,,,,,0,note_on,,95.0,59.0,95.0,740800,385.8333333333333
6216,3.0,,,,,,,-128.0,,,3,pitchwheel,,,,,740803,385.83489583333335
6217,3.0,,,,,,,-256.0,,,3,pitchwheel,,,,,740806,385.8364583333333
6218,3.0,,,,,,,-384.0,,,3,pitchwheel,,,,,740809,385.8380208333333
6219,3.0,,,,,,,-512.0,,,3,pitchwheel,,,,,740812,385.83958333333334
6220,3.0,,,,,,,-640.0,,,3,pitchwheel,,,,,740815,385.8411458333333
6221,3.0,,,,,,,-768.0,,,3,pitchwheel,,,,,740818,385.84270833333335
6222,3.0,,,,,,,-896.0,,,3,pitchwheel,,,,,740821,385.8442708333333
6223,3.0,,,,,,,-1024.0,,,3,pitchwheel,,,,,740824,385.8458333333333
6224,3.0,,,,,,,-1152.0,,,3,pitchwheel,,,,,740827,385.84739583333334
6225,3.0,,,,,,,-1280.0,,,3,pitchwheel,,,,,740830,385.8489583333333
6226,3.0,,,,,,,-1408.0,,,3,pitchwheel,,,,,740833,385.85052083333335
6227,3.0,,,,,,,-1536.0,,,3,pitchwheel,,,,,740836,385.8520833333333
6228,3.0,,,,,,,-1664.0,,,3,pitchwheel,,,,,740839,385.8536458333333
6229,3.0,,,,,,,-1792.0,,,3,pitchwheel,,,,,740842,385.85520833333334
6230,3.0,,,,,,,-1920.0,,,3,pitchwheel,,,,,740845,385.8567708333333
6231,3.0,,,,,,,-2048.0,,,3,pitchwheel,,,,,740848,385.85833333333335
6232,3.0,,,,,,,-2176.0,,,3,pitchwheel,,,,,740851,385.8598958333333
6233,3.0,,,,,,,-2304.0,,,3,pitchwheel,,,,,740854,385.8614583333333
6234,3.0,,,,,,,-2432.0,,,3,pitchwheel,,,,,740857,385.86302083333334
6235,3.0,,,,,,,-2560.0,,,3,pitchwheel,,,,,740860,385.8645833333333
6236,3.0,,,,,,,-2688.0,,,3,pitchwheel,,,,,740863,385.86614583333335
6237,3.0,,,,,,,-2816.0,,,3,pitchwheel,,,,,740866,385.8677083333333
6238,3.0,,,,,,,-2816.0,,,14,pitchwheel,,,,,740880,385.875
6239,3.0,,,,,,,-2688.0,,,3,pitchwheel,,,,,740883,385.8765625
6240,3.0,,,,,,,-2560.0,,,3,pitchwheel,,,,,740886,385.878125
6241,3.0,,,,,,,-2432.0,,,3,pitchwheel,,,,,740889,385.8796875
6242,3.0,,,,,,,-2304.0,,,3,pitchwheel,,,,,740892,385.88125
6243,3.0,,,,,,,-2176.0,,,3,pitchwheel,,,,,740895,385.8828125
6244,3.0,,,,,,,-2048.0,,,3,pitchwheel,,,,,740898,385.884375
6245,3.0,,,,,,,-1920.0,,,3,pitchwheel,,,,,740901,385.8859375
6246,3.0,,,,,,,-1792.0,,,3,pitchwheel,,,,,740904,385.8875
6247,3.0,,,,,,,-1664.0,,,3,pitchwheel,,,,,740907,385.8890625
6248,3.0,,,,,,,-1536.0,,,3,pitchwheel,,,,,740910,385.890625
6249,3.0,,,,,,,-1408.0,,,3,pitchwheel,,,,,740913,385.8921875
6250,3.0,,,,,,,-1280.0,,,3,pitchwheel,,,,,740916,385.89375
6251,3.0,,,,,,,-1152.0,,,3,pitchwheel,,,,,740919,385.8953125
6252,3.0,,,,,,,-1024.0,,,3,pitchwheel,,,,,740922,385.896875
6253,3.0,,,,,,,-896.0,,,3,pitchwheel,,,,,740925,385.8984375
6254,3.0,,,,,,,-768.0,,,3,pitchwheel,,,,,740928,385.9
6255,3.0,,,,,,,-640.0,,,3,pitchwheel,,,,,740931,385.9015625
6256,3.0,,,,,,,-512.0,,,3,pitchwheel,,,,,740934,385.903125
6257,3.0,,,,,,,-384.0,,,3,pitchwheel,,,,,740937,385.9046875
6258,3.0,,,,,,,-256.0,,,3,pitchwheel,,,,,740940,385.90625
6259,3.0,,,,,,,-128.0,,,3,pitchwheel,,,,,740943,385.9078125
6260,3.0,,,,,,,0.0,,,3,pitchwheel,,,,,740946,385.909375
6261,3.0,,,,,,,0.0,,,14,pitchwheel,,,,,740960,385.9166666666667
6262,3.0,,,,,,,0.0,,,0,pitchwheel,,,,,740960,385.9166666666667
6263,3.0,,,,,59.0,,,,,0,note_off,,95.0,59.0,95.0,740960,385.9166666666667
6264,3.0,,,,,,,0.0,,,0,pitchwheel,,,,,740960,385.9166666666667
6265,3.0,,,,,54.0,,,,,0,note_on,,95.0,54.0,95.0,740960,385.9166666666667
6266,3.0,,,,,,,-128.0,,,2,pitchwheel,,,,,740962,385.91770833333334
6267,3.0,,,,,,,-256.0,,,2,pitchwheel,,,,,740964,385.91875
6268,3.0,,,,,,,-384.0,,,2,pitchwheel,,,,,740966,385.91979166666664
6269,3.0,,,,,,,-512.0,,,2,pitchwheel,,,,,740968,385.92083333333335
6270,3.0,,,,,,,-640.0,,,2,pitchwheel,,,,,740970,385.921875
6271,3.0,,,,,,,-768.0,,,2,pitchwheel,,,,,740972,385.92291666666665
6272,3.0,,,,,,,-896.0,,,2,pitchwheel,,,,,740974,385.9239583333333
6273,3.0,,,,,,,-1024.0,,,2,pitchwheel,,,,,740976,385.925
6274,3.0,,,,,,,-1152.0,,,2,pitchwheel,,,,,740978,385.92604166666666
6275,3.0,,,,,,,-1280.0,,,2,pitchwheel,,,,,740980,385.9270833333333
6276,3.0,,,,,,,-1408.0,,,2,pitchwheel,,,,,740982,385.928125
6277,3.0,,,,,,,-1536.0,,,2,pitchwheel,,,,,740984,385.9291666666667
6278,3.0,,,,,,,-1664.0,,,2,pitchwheel,,,,,740986,385.9302083333333
6279,3.0,,,,,,,-1792.0,,,2,pitchwheel,,,,,740988,385.93125
6280,3.0,,,,,,,-1920.0,,,2,pitchwheel,,,,,740990,385.9322916666667
6281,3.0,,,,,,,-2048.0,,,2,pitchwheel,,,,,740992,385.93333333333334
6282,3.0,,,,,,,-2176.0,,,2,pitchwheel,,,,,740994,385.934375
6283,3.0,,,,,,,-2304.0,,,2,pitchwheel,,,,,740996,385.93541666666664
6284,3.0,,,,,,,-2432.0,,,2,pitchwheel,,,,,740998,385.93645833333335
6285,3.0,,,,,,,-2560.0,,,2,pitchwheel,,,,,741000,385.9375
6286,3.0,,,,,,,-2688.0,,,2,pitchwheel,,,,,741002,385.93854166666665
6287,3.0,,,,,,,-2816.0,,,2,pitchwheel,,,,,741004,385.9395833333333
6288,3.0,,,,,,,-2944.0,,,2,pitchwheel,,,,,741006,385.940625
6289,3.0,,,,,,,-3072.0,,,2,pitchwheel,,,,,741008,385.94166666666666
6290,3.0,,,,,,,-3200.0,,,2,pitchwheel,,,,,741010,385.9427083333333
6291,3.0,,,,,,,-3328.0,,,2,pitchwheel,,,,,741012,385.94375
6292,3.0,,,,,,,-3456.0,,,2,pitchwheel,,,,,741014,385.9447916666667
6293,3.0,,,,,,,-3584.0,,,2,pitchwheel,,,,,741016,385.9458333333333
6294,3.0,,,,,,,-3712.0,,,2,pitchwheel,,,,,741018,385.946875
6295,3.0,,,,,,,-3840.0,,,2,pitchwheel,,,,,741020,385.9479166666667
6296,3.0,,,,,,,-3968.0,,,2,pitchwheel,,,,,741022,385.94895833333334
6297,3.0,,,,,,,-4096.0,,,2,pitchwheel,,,,,741024,385.95
6298,3.0,,,,,,,-4224.0,,,2,pitchwheel,,,,,741026,385.95104166666664
6299,3.0,,,,,,,-4224.0,,,14,pitchwheel,,,,,741040,385.9583333333333
6300,3.0,,,,,,,-4096.0,,,2,pitchwheel,,,,,741042,385.959375
6301,3.0,,,,,,,-3968.0,,,2,pitchwheel,,,,,741044,385.9604166666667
6302,3.0,,,,,,,-3840.0,,,2,pitchwheel,,,,,741046,385.9614583333333
6303,3.0,,,,,,,-3712.0,,,2,pitchwheel,,,,,741048,385.9625
6304,3.0,,,,,,,-3584.0,,,2,pitchwheel,,,,,741050,385.9635416666667
6305,3.0,,,,,,,-3456.0,,,2,pitchwheel,,,,,741052,385.96458333333334
6306,3.0,,,,,,,-3328.0,,,2,pitchwheel,,,,,741054,385.965625
6307,3.0,,,,,,,-3200.0,,,2,pitchwheel,,,,,741056,385.96666666666664
6308,3.0,,,,,,,-3072.0,,,2,pitchwheel,,,,,741058,385.96770833333335
6309,3.0,,,,,,,-2944.0,,,2,pitchwheel,,,,,741060,385.96875
6310,3.0,,,,,,,-2816.0,,,2,pitchwheel,,,,,741062,385.96979166666665
6311,3.0,,,,,,,-2688.0,,,2,pitchwheel,,,,,741064,385.9708333333333
6312,3.0,,,,,,,-2560.0,,,2,pitchwheel,,,,,741066,385.971875
6313,3.0,,,,,,,-2432.0,,,2,pitchwheel,,,,,741068,385.97291666666666
6314,3.0,,,,,,,-2304.0,,,2,pitchwheel,,,,,741070,385.9739583333333
6315,3.0,,,,,,,-2176.0,,,2,pitchwheel,,,,,741072,385.975
6316,3.0,,,,,,,-2048.0,,,2,pitchwheel,,,,,741074,385.9760416666667
6317,3.0,,,,,,,-1920.0,,,2,pitchwheel,,,,,741076,385.9770833333333
6318,3.0,,,,,,,-1792.0,,,2,pitchwheel,,,,,741078,385.978125
6319,3.0,,,,,,,-1664.0,,,2,pitchwheel,,,,,741080,385.9791666666667
6320,3.0,,,,,,,-1536.0,,,2,pitchwheel,,,,,741082,385.98020833333334
6321,3.0,,,,,,,-1408.0,,,2,pitchwheel,,,,,741084,385.98125
6322,3.0,,,,,,,-1280.0,,,2,pitchwheel,,,,,741086,385.98229166666664
6323,3.0,,,,,,,-1152.0,,,2,pitchwheel,,,,,741088,385.98333333333335
6324,3.0,,,,,,,-1024.0,,,2,pitchwheel,,,,,741090,385.984375
6325,3.0,,,,,,,-896.0,,,2,pitchwheel,,,,,741092,385.98541666666665
6326,3.0,,,,,,,-768.0,,,2,pitchwheel,,,,,741094,385.9864583333333
6327,3.0,,,,,,,-640.0,,,2,pitchwheel,,,,,741096,385.9875
6328,3.0,,,,,,,-512.0,,,2,pitchwheel,,,,,741098,385.98854166666666
6329,3.0,,,,,,,-384.0,,,2,pitchwheel,,,,,741100,385.9895833333333
6330,3.0,,,,,,,-256.0,,,2,pitchwheel,,,,,741102,385.990625
6331,3.0,,,,,,,-128.0,,,2,pitchwheel,,,,,741104,385.9916666666667
6332,3.0,,,,,,,0.0,,,2,pitchwheel,,,,,741106,385.9927083333333
6333,3.0,,,,,,,0.0,,,14,pitchwheel,,,,,741120,386.0
6334,3.0,,,,,,,0.0,,,0,pitchwheel,,,,,741120,386.0
6335,3.0,,,,,54.0,,,,,0,note_off,,95.0,54.0,95.0,741120,386.0
6336,3.0,,,,,,,0.0,,,0,pitchwheel,,,,,741120,386.0
6337,3.0,,,,,61.0,,,,,0,note_on,,95.0,61.0,95.0,741120,386.0
6338,3.0,,,,,,,-128.0,,,2,pitchwheel,,,,,741122,386.00104166666665
6339,3.0,,,,,,,-256.0,,,2,pitchwheel,,,,,741124,386.0020833333333
6340,3.0,,,,,,,-384.0,,,2,pitchwheel,,,,,741126,386.003125
6341,3.0,,,,,,,-512.0,,,2,pitchwheel,,,,,741128,386.00416666666666
6342,3.0,,,,,,,-640.0,,,2,pitchwheel,,,,,741130,386.0052083333333
6343,3.0,,,,,,,-768.0,,,2,pitchwheel,,,,,741132,386.00625
6344,3.0,,,,,,,-896.0,,,2,pitchwheel,,,,,741134,386.0072916666667
6345,3.0,,,,,,,-1024.0,,,2,pitchwheel,,,,,741136,386.0083333333333
6346,3.0,,,,,,,-1152.0,,,2,pitchwheel,,,,,741138,386.009375
6347,3.0,,,,,,,-1280.0,,,2,pitchwheel,,,,,741140,386.0104166666667
6348,3.0,,,,,,,-1408.0,,,2,pitchwheel,,,,,741142,386.01145833333334
6349,3.0,,,,,,,-1536.0,,,2,pitchwheel,,,,,741144,386.0125
6350,3.0,,,,,,,-1664.0,,,2,pitchwheel,,,,,741146,386.01354166666664
6351,3.0,,,,,,,-1792.0,,,2,pitchwheel,,,,,741148,386.01458333333335
6352,3.0,,,,,,,-1920.0,,,2,pitchwheel,,,,,741150,386.015625
6353,3.0,,,,,,,-2048.0,,,2,pitchwheel,,,,,741152,386.01666666666665
6354,3.0,,,,,,,-2176.0,,,2,pitchwheel,,,,,741154,386.0177083333333
6355,3.0,,,,,,,-2304.0,,,2,pitchwheel,,,,,741156,386.01875
6356,3.0,,,,,,,-2432.0,,,2,pitchwheel,,,,,741158,386.01979166666666
6357,3.0,,,,,,,-2560.0,,,2,pitchwheel,,,,,741160,386.0208333333333
6358,3.0,,,,,,,-2688.0,,,2,pitchwheel,,,,,741162,386.021875
6359,3.0,,,,,,,-2816.0,,,2,pitchwheel,,,,,741164,386.0229166666667
6360,3.0,,,,,,,-2944.0,,,2,pitchwheel,,,,,741166,386.0239583333333
6361,3.0,,,,,,,-3072.0,,,2,pitchwheel,,,,,741168,386.025
6362,3.0,,,,,,,-3200.0,,,2,pitchwheel,,,,,741170,386.0260416666667
6363,3.0,,,,,,,-3328.0,,,2,pitchwheel,,,,,741172,386.02708333333334
6364,3.0,,,,,,,-3456.0,,,2,pitchwheel,,,,,741174,386.028125
6365,3.0,,,,,,,-3584.0,,,2,pitchwheel,,,,,741176,386.02916666666664
6366,3.0,,,,,,,-3712.0,,,2,pitchwheel,,,,,741178,386.03020833333335
6367,3.0,,,,,,,-3840.0,,,2,pitchwheel,,,,,741180,386.03125
6368,3.0,,,,,,,-3968.0,,,2,pitchwheel,,,,,741182,386.03229166666665
6369,3.0,,,,,,,-4096.0,,,2,pitchwheel,,,,,741184,386.0333333333333
6370,3.0,,,,,,,-4224.0,,,2,pitchwheel,,,,,741186,386.034375
6371,3.0,,,,,,,-4224.0,,,14,pitchwheel,,,,,741200,386.0416666666667
6372,3.0,,,,,,,-4096.0,,,2,pitchwheel,,,,,741202,386.04270833333334
6373,3.0,,,,,,,-3968.0,,,2,pitchwheel,,,,,741204,386.04375
6374,3.0,,,,,,,-3840.0,,,2,pitchwheel,,,,,741206,386.04479166666664
6375,3.0,,,,,,,-3712.0,,,2,pitchwheel,,,,,741208,386.04583333333335
6376,3.0,,,,,,,-3584.0,,,2,pitchwheel,,,,,741210,386.046875
6377,3.0,,,,,,,-3456.0,,,2,pitchwheel,,,,,741212,386.04791666666665
6378,3.0,,,,,,,-3328.0,,,2,pitchwheel,,,,,741214,386.0489583333333
6379,3.0,,,,,,,-3200.0,,,2,pitchwheel,,,,,741216,386.05
6380,3.0,,,,,,,-3072.0,,,2,pitchwheel,,,,,741218,386.05104166666666
6381,3.0,,,,,,,-2944.0,,,2,pitchwheel,,,,,741220,386.0520833333333
6382,3.0,,,,,,,-2816.0,,,2,pitchwheel,,,,,741222,386.053125
6383,3.0,,,,,,,-2688.0,,,2,pitchwheel,,,,,741224,386.0541666666667
6384,3.0,,,,,,,-2560.0,,,2,pitchwheel,,,,,741226,386.0552083333333
6385,3.0,,,,,,,-2432.0,,,2,pitchwheel,,,,,741228,386.05625
6386,3.0,,,,,,,-2304.0,,,2,pitchwheel,,,,,741230,386.0572916666667
6387,3.0,,,,,,,-2176.0,,,2,pitchwheel,,,,,741232,386.05833333333334
6388,3.0,,,,,,,-2048.0,,,2,pitchwheel,,,,,741234,386.059375
6389,3.0,,,,,,,-1920.0,,,2,pitchwheel,,,,,741236,386.06041666666664
6390,3.0,,,,,,,-1792.0,,,2,pitchwheel,,,,,741238,386.06145833333335
6391,3.0,,,,,,,-1664.0,,,2,pitchwheel,,,,,741240,386.0625
6392,3.0,,,,,,,-1536.0,,,2,pitchwheel,,,,,741242,386.06354166666665
6393,3.0,,,,,,,-1408.0,,,2,pitchwheel,,,,,741244,386.0645833333333
6394,3.0,,,,,,,-1280.0,,,2,pitchwheel,,,,,741246,386.065625
6395,3.0,,,,,,,-1152.0,,,2,pitchwheel,,,,,741248,386.06666666666666
6396,3.0,,,,,,,-1024.0,,,2,pitchwheel,,,,,741250,386.0677083333333
6397,3.0,,,,,,,-896.0,,,2,pitchwheel,,,,,741252,386.06875
6398,3.0,,,,,,,-768.0,,,2,pitchwheel,,,,,741254,386.0697916666667
6399,3.0,,,,,,,-640.0,,,2,pitchwheel,,,,,741256,386.0708333333333
6400,3.0,,,,,,,-512.0,,,2,pitchwheel,,,,,741258,386.071875
6401,3.0,,,,,,,-384.0,,,2,pitchwheel,,,,,741260,386.0729166666667
6402,3.0,,,,,,,-256.0,,,2,pitchwheel,,,,,741262,386.07395833333334
6403,3.0,,,,,,,-128.0,,,2,pitchwheel,,,,,741264,386.075
6404,3.0,,,,,,,0.0,,,2,pitchwheel,,,,,741266,386.07604166666664
6405,3.0,,,,,,,0.0,,,14,pitchwheel,,,,,741280,386.0833333333333
6406,3.0,,,,,,,0.0,,,0,pitchwheel,,,,,741280,386.0833333333333
6407,3.0,,,,,61.0,,,,,0,note_off,,95.0,61.0,95.0,741280,386.0833333333333
6408,2.0,,,,,59.0,,,,,0,note_on,,95.0,59.0,95.0,741280,386.0833333333333
6409,2.0,,,,,59.0,,,,,160,note_off,,95.0,59.0,95.0,741440,386.1666666666667
6410,2.0,,,,,54.0,,,,,0,note_on,,95.0,54.0,95.0,741440,386.1666666666667
6411,2.0,,,,,54.0,,,,,160,note_off,,95.0,54.0,95.0,741600,386.25
6412,2.0,,,,,61.0,,,,,0,note_on,,95.0,61.0,95.0,741600,386.25
6413,2.0,,,,,61.0,,,,,160,note_off,,95.0,61.0,95.0,741760,386.3333333333333
6414,3.0,,,,,,,0.0,,,0,pitchwheel,,,,,741760,386.3333333333333
6415,3.0,,,,,59.0,,,,,0,note_on,,95.0,59.0,95.0,741760,386.3333333333333
6416,3.0,,,,,,,-128.0,,,1,pitchwheel,,,,,741761,386.33385416666664
6417,3.0,,,,,,,-256.0,,,1,pitchwheel,,,,,741762,386.334375
6418,3.0,,,,,,,-384.0,,,1,pitchwheel,,,,,741763,386.33489583333335
6419,3.0,,,,,,,-512.0,,,1,pitchwheel,,,,,741764,386.3354166666667
6420,3.0,,,,,,,-640.0,,,1,pitchwheel,,,,,741765,386.3359375
6421,3.0,,,,,,,-768.0,,,1,pitchwheel,,,,,741766,386.3364583333333
6422,3.0,,,,,,,-896.0,,,1,pitchwheel,,,,,741767,386.33697916666665
6423,3.0,,,,,,,-1024.0,,,1,pitchwheel,,,,,741768,386.3375
6424,3.0,,,,,,,-1152.0,,,1,pitchwheel,,,,,741769,386.3380208333333
6425,3.0,,,,,,,-1280.0,,,1,pitchwheel,,,,,741770,386.3385416666667
6426,3.0,,,,,,,-1408.0,,,1,pitchwheel,,,,,741771,386.3390625
6427,3.0,,,,,,,-1536.0,,,1,pitchwheel,,,,,741772,386.33958333333334
6428,3.0,,,,,,,-1664.0,,,1,pitchwheel,,,,,741773,386.34010416666666
6429,3.0,,,,,,,-1792.0,,,1,pitchwheel,,,,,741774,386.340625
6430,3.0,,,,,,,-1920.0,,,1,pitchwheel,,,,,741775,386.3411458333333
6431,3.0,,,,,,,-2048.0,,,1,pitchwheel,,,,,741776,386.34166666666664
6432,3.0,,,,,,,-2176.0,,,1,pitchwheel,,,,,741777,386.3421875
6433,3.0,,,,,,,-2304.0,,,1,pitchwheel,,,,,741778,386.34270833333335
6434,3.0,,,,,,,-2432.0,,,1,pitchwheel,,,,,741779,386.3432291666667
6435,3.0,,,,,,,-2560.0,,,1,pitchwheel,,,,,741780,386.34375
6436,3.0,,,,,,,-2688.0,,,1,pitchwheel,,,,,741781,386.3442708333333
6437,3.0,,,,,,,-2816.0,,,1,pitchwheel,,,,,741782,386.34479166666665
6438,3.0,,,,,,,-2944.0,,,1,pitchwheel,,,,,741783,386.3453125
6439,3.0,,,,,,,-3072.0,,,1,pitchwheel,,,,,741784,386.3458333333333
6440,3.0,,,,,,,-3200.0,,,1,pitchwheel,,,,,741785,386.3463541666667
6441,3.0,,,,,,,-3328.0,,,1,pitchwheel,,,,,741786,386.346875
6442,3.0,,,,,,,-3456.0,,,1,pitchwheel,,,,,741787,386.34739583333334
6443,3.0,,,,,,,-3584.0,,,1,pitchwheel,,,,,741788,386.34791666666666
6444,3.0,,,,,,,-3712.0,,,1,pitchwheel,,,,,741789,386.3484375
6445,3.0,,,,,,,-3840.0,,,1,pitchwheel,,,,,741790,386.3489583333333
6446,3.0,,,,,,,-3968.0,,,1,pitchwheel,,,,,741791,386.34947916666664
6447,3.0,,,,,,,-4096.0,,,1,pitchwheel,,,,,741792,386.35
6448,3.0,,,,,,,-4224.0,,,1,pitchwheel,,,,,741793,386.35052083333335
6449,3.0,,,,,,,-4352.0,,,1,pitchwheel,,,,,741794,386.3510416666667
6450,3.0,,,,,,,-4480.0,,,1,pitchwheel,,,,,741795,386.3515625
6451,3.0,,,,,,,-4608.0,,,1,pitchwheel,,,,,741796,386.3520833333333
6452,3.0,,,,,,,-4736.0,,,1,pitchwheel,,,,,741797,386.35260416666665
6453,3.0,,,,,,,-4864.0,,,1,pitchwheel,,,,,741798,386.353125
6454,3.0,,,,,,,-4992.0,,,1,pitchwheel,,,,,741799,386.3536458333333
6455,3.0,,,,,,,-5120.0,,,1,pitchwheel,,,,,741800,386.3541666666667
6456,3.0,,,,,,,-5248.0,,,1,pitchwheel,,,,,741801,386.3546875
6457,3.0,,,,,,,-5376.0,,,1,pitchwheel,,,,,741802,386.35520833333334
6458,3.0,,,,,,,-5504.0,,,1,pitchwheel,,,,,741803,386.35572916666666
6459,3.0,,,,,,,-5632.0,,,1,pitchwheel,,,,,741804,386.35625
6460,3.0,,,,,,,-5760.0,,,1,pitchwheel,,,,,741805,386.3567708333333
6461,3.0,,,,,,,-5888.0,,,1,pitchwheel,,,,,741806,386.35729166666664
6462,3.0,,,,,,,-6016.0,,,1,pitchwheel,,,,,741807,386.3578125
6463,3.0,,,,,,,-6144.0,,,1,pitchwheel,,,,,741808,386.35833333333335
6464,3.0,,,,,,,-6272.0,,,1,pitchwheel,,,,,741809,386.3588541666667
6465,3.0,,,,,,,-6400.0,,,1,pitchwheel,,,,,741810,386.359375
6466,3.0,,,,,,,-6528.0,,,1,pitchwheel,,,,,741811,386.3598958333333
6467,3.0,,,,,,,-6656.0,,,1,pitchwheel,,,,,741812,386.36041666666665
6468,3.0,,,,,,,-6784.0,,,1,pitchwheel,,,,,741813,386.3609375
6469,3.0,,,,,,,-6912.0,,,1,pitchwheel,,,,,741814,386.3614583333333
6470,3.0,,,,,,,-7040.0,,,1,pitchwheel,,,,,741815,386.3619791666667
6471,3.0,,,,,,,-7040.0,,,25,pitchwheel,,,,,741840,386.375
6472,3.0,,,,,,,-6912.0,,,1,pitchwheel,,,,,741841,386.3755208333333
6473,3.0,,,,,,,-6784.0,,,1,pitchwheel,,,,,741842,386.37604166666665
6474,3.0,,,,,,,-6656.0,,,1,pitchwheel,,,,,741843,386.3765625
6475,3.0,,,,,,,-6528.0,,,1,pitchwheel,,,,,741844,386.3770833333333
6476,3.0,,,,,,,-6400.0,,,1,pitchwheel,,,,,741845,386.3776041666667
6477,3.0,,,,,,,-6272.0,,,1,pitchwheel,,,,,741846,386.378125
6478,3.0,,,,,,,-6144.0,,,1,pitchwheel,,,,,741847,386.37864583333334
6479,3.0,,,,,,,-6016.0,,,1,pitchwheel,,,,,741848,386.37916666666666
6480,3.0,,,,,,,-5888.0,,,1,pitchwheel,,,,,741849,386.3796875
6481,3.0,,,,,,,-5760.0,,,1,pitchwheel,,,,,741850,386.3802083333333
6482,3.0,,,,,,,-5632.0,,,1,pitchwheel,,,,,741851,386.38072916666664
6483,3.0,,,,,,,-5504.0,,,1,pitchwheel,,,,,741852,386.38125
6484,3.0,,,,,,,-5376.0,,,1,pitchwheel,,,,,741853,386.38177083333335
6485,3.0,,,,,,,-5248.0,,,1,pitchwheel,,,,,741854,386.3822916666667
6486,3.0,,,,,,,-5120.0,,,1,pitchwheel,,,,,741855,386.3828125
6487,3.0,,,,,,,-4992.0,,,1,pitchwheel,,,,,741856,386.3833333333333
6488,3.0,,,,,,,-4864.0,,,1,pitchwheel,,,,,741857,386.38385416666665
6489,3.0,,,,,,,-4736.0,,,1,pitchwheel,,,,,741858,386.384375
6490,3.0,,,,,,,-4608.0,,,1,pitchwheel,,,,,741859,386.3848958333333
6491,3.0,,,,,,,-4480.0,,,1,pitchwheel,,,,,741860,386.3854166666667
6492,3.0,,,,,,,-4352.0,,,1,pitchwheel,,,,,741861,386.3859375
6493,3.0,,,,,,,-4224.0,,,1,pitchwheel,,,,,741862,386.38645833333334
6494,3.0,,,,,,,-4096.0,,,1,pitchwheel,,,,,741863,386.38697916666666
6495,3.0,,,,,,,-3968.0,,,1,pitchwheel,,,,,741864,386.3875
6496,3.0,,,,,,,-3840.0,,,1,pitchwheel,,,,,741865,386.3880208333333
6497,3.0,,,,,,,-3712.0,,,1,pitchwheel,,,,,741866,386.38854166666664
6498,3.0,,,,,,,-3584.0,,,1,pitchwheel,,,,,741867,386.3890625
6499,3.0,,,,,,,-3456.0,,,1,pitchwheel,,,,,741868,386.38958333333335
6500,3.0,,,,,,,-3328.0,,,1,pitchwheel,,,,,741869,386.3901041666667
6501,3.0,,,,,,,-3200.0,,,1,pitchwheel,,,,,741870,386.390625
6502,3.0,,,,,,,-3072.0,,,1,pitchwheel,,,,,741871,386.3911458333333
6503,3.0,,,,,,,-2944.0,,,1,pitchwheel,,,,,741872,386.39166666666665
6504,3.0,,,,,,,-2816.0,,,1,pitchwheel,,,,,741873,386.3921875
6505,3.0,,,,,,,-2688.0,,,1,pitchwheel,,,,,741874,386.3927083333333
6506,3.0,,,,,,,-2560.0,,,1,pitchwheel,,,,,741875,386.3932291666667
6507,3.0,,,,,,,-2432.0,,,1,pitchwheel,,,,,741876,386.39375
6508,3.0,,,,,,,-2304.0,,,1,pitchwheel,,,,,741877,386.39427083333334
6509,3.0,,,,,,,-2176.0,,,1,pitchwheel,,,,,741878,386.39479166666666
6510,3.0,,,,,,,-2048.0,,,1,pitchwheel,,,,,741879,386.3953125
6511,3.0,,,,,,,-1920.0,,,1,pitchwheel,,,,,741880,386.3958333333333
6512,3.0,,,,,,,-1792.0,,,1,pitchwheel,,,,,741881,386.39635416666664
6513,3.0,,,,,,,-1664.0,,,1,pitchwheel,,,,,741882,386.396875
6514,3.0,,,,,,,-1536.0,,,1,pitchwheel,,,,,741883,386.39739583333335
6515,3.0,,,,,,,-1408.0,,,1,pitchwheel,,,,,741884,386.3979166666667
6516,3.0,,,,,,,-1280.0,,,1,pitchwheel,,,,,741885,386.3984375
6517,3.0,,,,,,,-1152.0,,,1,pitchwheel,,,,,741886,386.3989583333333
6518,3.0,,,,,,,-1024.0,,,1,pitchwheel,,,,,741887,386.39947916666665
6519,3.0,,,,,,,-896.0,,,1,pitchwheel,,,,,741888,386.4
6520,3.0,,,,,,,-768.0,,,1,pitchwheel,,,,,741889,386.4005208333333
6521,3.0,,,,,,,-640.0,,,1,pitchwheel,,,,,741890,386.4010416666667
6522,3.0,,,,,,,-512.0,,,1,pitchwheel,,,,,741891,386.4015625
6523,3.0,,,,,,,-384.0,,,1,pitchwheel,,,,,741892,386.40208333333334
6524,3.0,,,,,,,-256.0,,,1,pitchwheel,,,,,741893,386.40260416666666
6525,3.0,,,,,,,-128.0,,,1,pitchwheel,,,,,741894,386.403125
6526,3.0,,,,,,,0.0,,,1,pitchwheel,,,,,741895,386.4036458333333
6527,3.0,,,,,,,0.0,,,25,pitchwheel,,,,,741920,386.4166666666667
6528,3.0,,,,,,,0.0,,,0,pitchwheel,,,,,741920,386.4166666666667
6529,3.0,,,,,59.0,,,,,0,note_off,,95.0,59.0,95.0,741920,386.4166666666667
6530,2.0,,,,,54.0,,,,,0,note_on,,95.0,54.0,95.0,741920,386.4166666666667
6531,2.0,,,,,54.0,,,,,160,note_off,,95.0,54.0,95.0,742080,386.5
6532,2.0,,,,,61.0,,,,,0,note_on,,95.0,61.0,95.0,742080,386.5
6533,2.0,,,,,61.0,,,,,160,note_off,,95.0,61.0,95.0,742240,386.5833333333333
6534,3.0,,,,,,,0.0,,,0,pitchwheel,,,,,742240,386.5833333333333
6535,3.0,,,,,59.0,,,,,0,note_on,,95.0,59.0,95.0,742240,386.5833333333333
6536,3.0,,,,,,,-128.0,,,1,pitchwheel,,,,,742241,386.58385416666664
6537,3.0,,,,,,,-256.0,,,1,pitchwheel,,,,,742242,386.584375
6538,3.0,,,,,,,-384.0,,,1,pitchwheel,,,,,742243,386.58489583333335
6539,3.0,,,,,,,-512.0,,,1,pitchwheel,,,,,742244,386.5854166666667
6540,3.0,,,,,,,-640.0,,,1,pitchwheel,,,,,742245,386.5859375
6541,3.0,,,,,,,-768.0,,,1,pitchwheel,,,,,742246,386.5864583333333
6542,3.0,,,,,,,-896.0,,,1,pitchwheel,,,,,742247,386.58697916666665
6543,3.0,,,,,,,-1024.0,,,1,pitchwheel,,,,,742248,386.5875
6544,3.0,,,,,,,-1152.0,,,1,pitchwheel,,,,,742249,386.5880208333333
6545,3.0,,,,,,,-1280.0,,,1,pitchwheel,,,,,742250,386.5885416666667
6546,3.0,,,,,,,-1408.0,,,1,pitchwheel,,,,,742251,386.5890625
6547,3.0,,,,,,,-1536.0,,,1,pitchwheel,,,,,742252,386.58958333333334
6548,3.0,,,,,,,-1664.0,,,1,pitchwheel,,,,,742253,386.59010416666666
6549,3.0,,,,,,,-1792.0,,,1,pitchwheel,,,,,742254,386.590625
6550,3.0,,,,,,,-1920.0,,,1,pitchwheel,,,,,742255,386.5911458333333
6551,3.0,,,,,,,-2048.0,,,1,pitchwheel,,,,,742256,386.59166666666664
6552,3.0,,,,,,,-2176.0,,,1,pitchwheel,,,,,742257,386.5921875
6553,3.0,,,,,,,-2304.0,,,1,pitchwheel,,,,,742258,386.59270833333335
6554,3.0,,,,,,,-2432.0,,,1,pitchwheel,,,,,742259,386.5932291666667
6555,3.0,,,,,,,-2560.0,,,1,pitchwheel,,,,,742260,386.59375
6556,3.0,,,,,,,-2688.0,,,1,pitchwheel,,,,,742261,386.5942708333333
6557,3.0,,,,,,,-2816.0,,,1,pitchwheel,,,,,742262,386.59479166666665
6558,3.0,,,,,,,-2944.0,,,1,pitchwheel,,,,,742263,386.5953125
6559,3.0,,,,,,,-3072.0,,,1,pitchwheel,,,,,742264,386.5958333333333
6560,3.0,,,,,,,-3200.0,,,1,pitchwheel,,,,,742265,386.5963541666667
6561,3.0,,,,,,,-3328.0,,,1,pitchwheel,,,,,742266,386.596875
6562,3.0,,,,,,,-3456.0,,,1,pitchwheel,,,,,742267,386.59739583333334
6563,3.0,,,,,,,-3584.0,,,1,pitchwheel,,,,,742268,386.59791666666666
6564,3.0,,,,,,,-3712.0,,,1,pitchwheel,,,,,742269,386.5984375
6565,3.0,,,,,,,-3840.0,,,1,pitchwheel,,,,,742270,386.5989583333333
6566,3.0,,,,,,,-3968.0,,,1,pitchwheel,,,,,742271,386.59947916666664
6567,3.0,,,,,,,-4096.0,,,1,pitchwheel,,,,,742272,386.6
6568,3.0,,,,,,,-4224.0,,,1,pitchwheel,,,,,742273,386.60052083333335
6569,3.0,,,,,,,-4352.0,,,1,pitchwheel,,,,,742274,386.6010416666667
6570,3.0,,,,,,,-4480.0,,,1,pitchwheel,,,,,742275,386.6015625
6571,3.0,,,,,,,-4608.0,,,1,pitchwheel,,,,,742276,386.6020833333333
6572,3.0,,,,,,,-4736.0,,,1,pitchwheel,,,,,742277,386.60260416666665
6573,3.0,,,,,,,-4864.0,,,1,pitchwheel,,,,,742278,386.603125
6574,3.0,,,,,,,-4992.0,,,1,pitchwheel,,,,,742279,386.6036458333333
6575,3.0,,,,,,,-5120.0,,,1,pitchwheel,,,,,742280,386.6041666666667
6576,3.0,,,,,,,-5248.0,,,1,pitchwheel,,,,,742281,386.6046875
6577,3.0,,,,,,,-5376.0,,,1,pitchwheel,,,,,742282,386.60520833333334
6578,3.0,,,,,,,-5504.0,,,1,pitchwheel,,,,,742283,386.60572916666666
6579,3.0,,,,,,,-5632.0,,,1,pitchwheel,,,,,742284,386.60625
6580,3.0,,,,,,,-5760.0,,,1,pitchwheel,,,,,742285,386.6067708333333
6581,3.0,,,,,,,-5888.0,,,1,pitchwheel,,,,,742286,386.60729166666664
6582,3.0,,,,,,,-6016.0,,,1,pitchwheel,,,,,742287,386.6078125
6583,3.0,,,,,,,-6144.0,,,1,pitchwheel,,,,,742288,386.60833333333335
6584,3.0,,,,,,,-6272.0,,,1,pitchwheel,,,,,742289,386.6088541666667
6585,3.0,,,,,,,-6400.0,,,1,pitchwheel,,,,,742290,386.609375
6586,3.0,,,,,,,-6528.0,,,1,pitchwheel,,,,,742291,386.6098958333333
6587,3.0,,,,,,,-6656.0,,,1,pitchwheel,,,,,742292,386.61041666666665
6588,3.0,,,,,,,-6784.0,,,1,pitchwheel,,,,,742293,386.6109375
6589,3.0,,,,,,,-6912.0,,,1,pitchwheel,,,,,742294,386.6114583333333
6590,3.0,,,,,,,-7040.0,,,1,pitchwheel,,,,,742295,386.6119791666667
6591,3.0,,,,,,,-7040.0,,,25,pitchwheel,,,,,742320,386.625
6592,3.0,,,,,,,-6912.0,,,1,pitchwheel,,,,,742321,386.6255208333333
6593,3.0,,,,,,,-6784.0,,,1,pitchwheel,,,,,742322,386.62604166666665
6594,3.0,,,,,,,-6656.0,,,1,pitchwheel,,,,,742323,386.6265625
6595,3.0,,,,,,,-6528.0,,,1,pitchwheel,,,,,742324,386.6270833333333
6596,3.0,,,,,,,-6400.0,,,1,pitchwheel,,,,,742325,386.6276041666667
6597,3.0,,,,,,,-6272.0,,,1,pitchwheel,,,,,742326,386.628125
6598,3.0,,,,,,,-6144.0,,,1,pitchwheel,,,,,742327,386.62864583333334
6599,3.0,,,,,,,-6016.0,,,1,pitchwheel,,,,,742328,386.62916666666666
6600,3.0,,,,,,,-5888.0,,,1,pitchwheel,,,,,742329,386.6296875
6601,3.0,,,,,,,-5760.0,,,1,pitchwheel,,,,,742330,386.6302083333333
6602,3.0,,,,,,,-5632.0,,,1,pitchwheel,,,,,742331,386.63072916666664
6603,3.0,,,,,,,-5504.0,,,1,pitchwheel,,,,,742332,386.63125
6604,3.0,,,,,,,-5376.0,,,1,pitchwheel,,,,,742333,386.63177083333335
6605,3.0,,,,,,,-5248.0,,,1,pitchwheel,,,,,742334,386.6322916666667
6606,3.0,,,,,,,-5120.0,,,1,pitchwheel,,,,,742335,386.6328125
6607,3.0,,,,,,,-4992.0,,,1,pitchwheel,,,,,742336,386.6333333333333
6608,3.0,,,,,,,-4864.0,,,1,pitchwheel,,,,,742337,386.63385416666665
6609,3.0,,,,,,,-4736.0,,,1,pitchwheel,,,,,742338,386.634375
6610,3.0,,,,,,,-4608.0,,,1,pitchwheel,,,,,742339,386.6348958333333
6611,3.0,,,,,,,-4480.0,,,1,pitchwheel,,,,,742340,386.6354166666667
6612,3.0,,,,,,,-4352.0,,,1,pitchwheel,,,,,742341,386.6359375
6613,3.0,,,,,,,-4224.0,,,1,pitchwheel,,,,,742342,386.63645833333334
6614,3.0,,,,,,,-4096.0,,,1,pitchwheel,,,,,742343,386.63697916666666
6615,3.0,,,,,,,-3968.0,,,1,pitchwheel,,,,,742344,386.6375
6616,3.0,,,,,,,-3840.0,,,1,pitchwheel,,,,,742345,386.6380208333333
6617,3.0,,,,,,,-3712.0,,,1,pitchwheel,,,,,742346,386.63854166666664
6618,3.0,,,,,,,-3584.0,,,1,pitchwheel,,,,,742347,386.6390625
6619,3.0,,,,,,,-3456.0,,,1,pitchwheel,,,,,742348,386.63958333333335
6620,3.0,,,,,,,-3328.0,,,1,pitchwheel,,,,,742349,386.6401041666667
6621,3.0,,,,,,,-3200.0,,,1,pitchwheel,,,,,742350,386.640625
6622,3.0,,,,,,,-3072.0,,,1,pitchwheel,,,,,742351,386.6411458333333
6623,3.0,,,,,,,-2944.0,,,1,pitchwheel,,,,,742352,386.64166666666665
6624,3.0,,,,,,,-2816.0,,,1,pitchwheel,,,,,742353,386.6421875
6625,3.0,,,,,,,-2688.0,,,1,pitchwheel,,,,,742354,386.6427083333333
6626,3.0,,,,,,,-2560.0,,,1,pitchwheel,,,,,742355,386.6432291666667
6627,3.0,,,,,,,-2432.0,,,1,pitchwheel,,,,,742356,386.64375
6628,3.0,,,,,,,-2304.0,,,1,pitchwheel,,,,,742357,386.64427083333334
6629,3.0,,,,,,,-2176.0,,,1,pitchwheel,,,,,742358,386.64479166666666
6630,3.0,,,,,,,-2048.0,,,1,pitchwheel,,,,,742359,386.6453125
6631,3.0,,,,,,,-1920.0,,,1,pitchwheel,,,,,742360,386.6458333333333
6632,3.0,,,,,,,-1792.0,,,1,pitchwheel,,,,,742361,386.64635416666664
6633,3.0,,,,,,,-1664.0,,,1,pitchwheel,,,,,742362,386.646875
6634,3.0,,,,,,,-1536.0,,,1,pitchwheel,,,,,742363,386.64739583333335
6635,3.0,,,,,,,-1408.0,,,1,pitchwheel,,,,,742364,386.6479166666667
6636,3.0,,,,,,,-1280.0,,,1,pitchwheel,,,,,742365,386.6484375
6637,3.0,,,,,,,-1152.0,,,1,pitchwheel,,,,,742366,386.6489583333333
6638,3.0,,,,,,,-1024.0,,,1,pitchwheel,,,,,742367,386.64947916666665
6639,3.0,,,,,,,-896.0,,,1,pitchwheel,,,,,742368,386.65
6640,3.0,,,,,,,-768.0,,,1,pitchwheel,,,,,742369,386.6505208333333
6641,3.0,,,,,,,-640.0,,,1,pitchwheel,,,,,742370,386.6510416666667
6642,3.0,,,,,,,-512.0,,,1,pitchwheel,,,,,742371,386.6515625
6643,3.0,,,,,,,-384.0,,,1,pitchwheel,,,,,742372,386.65208333333334
6644,3.0,,,,,,,-256.0,,,1,pitchwheel,,,,,742373,386.65260416666666
6645,3.0,,,,,,,-128.0,,,1,pitchwheel,,,,,742374,386.653125
6646,3.0,,,,,,,0.0,,,1,pitchwheel,,,,,742375,386.6536458333333
6647,3.0,,,,,,,0.0,,,25,pitchwheel,,,,,742400,386.6666666666667
6648,3.0,,,,,,,0.0,,,0,pitchwheel,,,,,742400,386.6666666666667
6649,3.0,,,,,59.0,,,,,0,note_off,,95.0,59.0,95.0,742400,386.6666666666667
6650,2.0,,,,,54.0,,,,,0,note_on,,95.0,54.0,95.0,742400,386.6666666666667
6651,2.0,,,,,54.0,,,,,160,note_off,,95.0,54.0,95.0,742560,386.75
6652,2.0,,,,,61.0,,,,,0,note_on,,95.0,61.0,95.0,742560,386.75
6653,2.0,,,,,61.0,,,,,160,note_off,,95.0,61.0,95.0,742720,386.8333333333333
6654,2.0,,,,,59.0,,,,,0,note_on,,95.0,59.0,95.0,742720,386.8333333333333
6655,2.0,,,,,59.0,,,,,160,note_off,,95.0,59.0,95.0,742880,386.9166666666667
6656,3.0,,,,,,,0.0,,,0,pitchwheel,,,,,742880,386.9166666666667
6657,3.0,,,,,54.0,,,,,0,note_on,,95.0,54.0,95.0,742880,386.9166666666667
6658,3.0,,,,,,,-128.0,,,2,pitchwheel,,,,,742882,386.91770833333334
6659,3.0,,,,,,,-256.0,,,2,pitchwheel,,,,,742884,386.91875
6660,3.0,,,,,,,-384.0,,,2,pitchwheel,,,,,742886,386.91979166666664
6661,3.0,,,,,,,-512.0,,,2,pitchwheel,,,,,742888,386.92083333333335
6662,3.0,,,,,,,-640.0,,,2,pitchwheel,,,,,742890,386.921875
6663,3.0,,,,,,,-768.0,,,2,pitchwheel,,,,,742892,386.92291666666665
6664,3.0,,,,,,,-896.0,,,2,pitchwheel,,,,,742894,386.9239583333333
6665,3.0,,,,,,,-1024.0,,,2,pitchwheel,,,,,742896,386.925
6666,3.0,,,,,,,-1152.0,,,2,pitchwheel,,,,,742898,386.92604166666666
6667,3.0,,,,,,,-1280.0,,,2,pitchwheel,,,,,742900,386.9270833333333
6668,3.0,,,,,,,-1408.0,,,2,pitchwheel,,,,,742902,386.928125
6669,3.0,,,,,,,-1536.0,,,2,pitchwheel,,,,,742904,386.9291666666667
6670,3.0,,,,,,,-1664.0,,,2,pitchwheel,,,,,742906,386.9302083333333
6671,3.0,,,,,,,-1792.0,,,2,pitchwheel,,,,,742908,386.93125
6672,3.0,,,,,,,-1920.0,,,2,pitchwheel,,,,,742910,386.9322916666667
6673,3.0,,,,,,,-2048.0,,,2,pitchwheel,,,,,742912,386.93333333333334
6674,3.0,,,,,,,-2176.0,,,2,pitchwheel,,,,,742914,386.934375
6675,3.0,,,,,,,-2304.0,,,2,pitchwheel,,,,,742916,386.93541666666664
6676,3.0,,,,,,,-2432.0,,,2,pitchwheel,,,,,742918,386.93645833333335
6677,3.0,,,,,,,-2560.0,,,2,pitchwheel,,,,,742920,386.9375
6678,3.0,,,,,,,-2688.0,,,2,pitchwheel,,,,,742922,386.93854166666665
6679,3.0,,,,,,,-2816.0,,,2,pitchwheel,,,,,742924,386.9395833333333
6680,3.0,,,,,,,-2944.0,,,2,pitchwheel,,,,,742926,386.940625
6681,3.0,,,,,,,-3072.0,,,2,pitchwheel,,,,,742928,386.94166666666666
6682,3.0,,,,,,,-3200.0,,,2,pitchwheel,,,,,742930,386.9427083333333
6683,3.0,,,,,,,-3328.0,,,2,pitchwheel,,,,,742932,386.94375
6684,3.0,,,,,,,-3456.0,,,2,pitchwheel,,,,,742934,386.9447916666667
6685,3.0,,,,,,,-3584.0,,,2,pitchwheel,,,,,742936,386.9458333333333
6686,3.0,,,,,,,-3712.0,,,2,pitchwheel,,,,,742938,386.946875
6687,3.0,,,,,,,-3840.0,,,2,pitchwheel,,,,,742940,386.9479166666667
6688,3.0,,,,,,,-3968.0,,,2,pitchwheel,,,,,742942,386.94895833333334
6689,3.0,,,,,,,-4096.0,,,2,pitchwheel,,,,,742944,386.95
6690,3.0,,,,,,,-4224.0,,,2,pitchwheel,,,,,742946,386.95104166666664
6691,3.0,,,,,,,-4224.0,,,14,pitchwheel,,,,,742960,386.9583333333333
6692,3.0,,,,,,,-4096.0,,,2,pitchwheel,,,,,742962,386.959375
6693,3.0,,,,,,,-3968.0,,,2,pitchwheel,,,,,742964,386.9604166666667
6694,3.0,,,,,,,-3840.0,,,2,pitchwheel,,,,,742966,386.9614583333333
6695,3.0,,,,,,,-3712.0,,,2,pitchwheel,,,,,742968,386.9625
6696,3.0,,,,,,,-3584.0,,,2,pitchwheel,,,,,742970,386.9635416666667
6697,3.0,,,,,,,-3456.0,,,2,pitchwheel,,,,,742972,386.96458333333334
6698,3.0,,,,,,,-3328.0,,,2,pitchwheel,,,,,742974,386.965625
6699,3.0,,,,,,,-3200.0,,,2,pitchwheel,,,,,742976,386.96666666666664
6700,3.0,,,,,,,-3072.0,,,2,pitchwheel,,,,,742978,386.96770833333335
6701,3.0,,,,,,,-2944.0,,,2,pitchwheel,,,,,742980,386.96875
6702,3.0,,,,,,,-2816.0,,,2,pitchwheel,,,,,742982,386.96979166666665
6703,3.0,,,,,,,-2688.0,,,2,pitchwheel,,,,,742984,386.9708333333333
6704,3.0,,,,,,,-2560.0,,,2,pitchwheel,,,,,742986,386.971875
6705,3.0,,,,,,,-2432.0,,,2,pitchwheel,,,,,742988,386.97291666666666
6706,3.0,,,,,,,-2304.0,,,2,pitchwheel,,,,,742990,386.9739583333333
6707,3.0,,,,,,,-2176.0,,,2,pitchwheel,,,,,742992,386.975
6708,3.0,,,,,,,-2048.0,,,2,pitchwheel,,,,,742994,386.9760416666667
6709,3.0,,,,,,,-1920.0,,,2,pitchwheel,,,,,742996,386.9770833333333
6710,3.0,,,,,,,-1792.0,,,2,pitchwheel,,,,,742998,386.978125
6711,3.0,,,,,,,-1664.0,,,2,pitchwheel,,,,,743000,386.9791666666667
6712,3.0,,,,,,,-1536.0,,,2,pitchwheel,,,,,743002,386.98020833333334
6713,3.0,,,,,,,-1408.0,,,2,pitchwheel,,,,,743004,386.98125
6714,3.0,,,,,,,-1280.0,,,2,pitchwheel,,,,,743006,386.98229166666664
6715,3.0,,,,,,,-1152.0,,,2,pitchwheel,,,,,743008,386.98333333333335
6716,3.0,,,,,,,-1024.0,,,2,pitchwheel,,,,,743010,386.984375
6717,3.0,,,,,,,-896.0,,,2,pitchwheel,,,,,743012,386.98541666666665
6718,3.0,,,,,,,-768.0,,,2,pitchwheel,,,,,743014,386.9864583333333
6719,3.0,,,,,,,-640.0,,,2,pitchwheel,,,,,743016,386.9875
6720,3.0,,,,,,,-512.0,,,2,pitchwheel,,,,,743018,386.98854166666666
6721,3.0,,,,,,,-384.0,,,2,pitchwheel,,,,,743020,386.9895833333333
6722,3.0,,,,,,,-256.0,,,2,pitchwheel,,,,,743022,386.990625
6723,3.0,,,,,,,-128.0,,,2,pitchwheel,,,,,743024,386.9916666666667
6724,3.0,,,,,,,0.0,,,2,pitchwheel,,,,,743026,386.9927083333333
6725,3.0,,,,,,,0.0,,,14,pitchwheel,,,,,743040,387.0
6726,3.0,,,,,,,0.0,,,0,pitchwheel,,,,,743040,387.0
6727,3.0,,,,,54.0,,,,,0,note_off,,95.0,54.0,95.0,743040,387.0
6728,3.0,,,,,,,0.0,,,0,pitchwheel,,,,,743040,387.0
6729,3.0,,,,,61.0,,,,,0,note_on,,95.0,61.0,95.0,743040,387.0
6730,3.0,,,,,,,-128.0,,,1,pitchwheel,,,,,743041,387.0005208333333
6731,3.0,,,,,,,-256.0,,,1,pitchwheel,,,,,743042,387.00104166666665
6732,3.0,,,,,,,-384.0,,,1,pitchwheel,,,,,743043,387.0015625
6733,3.0,,,,,,,-512.0,,,1,pitchwheel,,,,,743044,387.0020833333333
6734,3.0,,,,,,,-640.0,,,1,pitchwheel,,,,,743045,387.0026041666667
6735,3.0,,,,,,,-768.0,,,1,pitchwheel,,,,,743046,387.003125
6736,3.0,,,,,,,-896.0,,,1,pitchwheel,,,,,743047,387.00364583333334
6737,3.0,,,,,,,-1024.0,,,1,pitchwheel,,,,,743048,387.00416666666666
6738,3.0,,,,,,,-1152.0,,,1,pitchwheel,,,,,743049,387.0046875
6739,3.0,,,,,,,-1280.0,,,1,pitchwheel,,,,,743050,387.0052083333333
6740,3.0,,,,,,,-1408.0,,,1,pitchwheel,,,,,743051,387.00572916666664
6741,3.0,,,,,,,-1536.0,,,1,pitchwheel,,,,,743052,387.00625
6742,3.0,,,,,,,-1664.0,,,1,pitchwheel,,,,,743053,387.00677083333335
6743,3.0,,,,,,,-1792.0,,,1,pitchwheel,,,,,743054,387.0072916666667
6744,3.0,,,,,,,-1920.0,,,1,pitchwheel,,,,,743055,387.0078125
6745,3.0,,,,,,,-2048.0,,,1,pitchwheel,,,,,743056,387.0083333333333
6746,3.0,,,,,,,-2176.0,,,1,pitchwheel,,,,,743057,387.00885416666665
6747,3.0,,,,,,,-2304.0,,,1,pitchwheel,,,,,743058,387.009375
6748,3.0,,,,,,,-2432.0,,,1,pitchwheel,,,,,743059,387.0098958333333
6749,3.0,,,,,,,-2560.0,,,1,pitchwheel,,,,,743060,387.0104166666667
6750,3.0,,,,,,,-2688.0,,,1,pitchwheel,,,,,743061,387.0109375
6751,3.0,,,,,,,-2816.0,,,1,pitchwheel,,,,,743062,387.01145833333334
6752,3.0,,,,,,,-2944.0,,,1,pitchwheel,,,,,743063,387.01197916666666
6753,3.0,,,,,,,-3072.0,,,1,pitchwheel,,,,,743064,387.0125
6754,3.0,,,,,,,-3200.0,,,1,pitchwheel,,,,,743065,387.0130208333333
6755,3.0,,,,,,,-3328.0,,,1,pitchwheel,,,,,743066,387.01354166666664
6756,3.0,,,,,,,-3456.0,,,1,pitchwheel,,,,,743067,387.0140625
6757,3.0,,,,,,,-3584.0,,,1,pitchwheel,,,,,743068,387.01458333333335
6758,3.0,,,,,,,-3712.0,,,1,pitchwheel,,,,,743069,387.0151041666667
6759,3.0,,,,,,,-3840.0,,,1,pitchwheel,,,,,743070,387.015625
6760,3.0,,,,,,,-3968.0,,,1,pitchwheel,,,,,743071,387.0161458333333
6761,3.0,,,,,,,-4096.0,,,1,pitchwheel,,,,,743072,387.01666666666665
6762,3.0,,,,,,,-4224.0,,,1,pitchwheel,,,,,743073,387.0171875
6763,3.0,,,,,,,-4352.0,,,1,pitchwheel,,,,,743074,387.0177083333333
6764,3.0,,,,,,,-4480.0,,,1,pitchwheel,,,,,743075,387.0182291666667
6765,3.0,,,,,,,-4608.0,,,1,pitchwheel,,,,,743076,387.01875
6766,3.0,,,,,,,-4736.0,,,1,pitchwheel,,,,,743077,387.01927083333334
6767,3.0,,,,,,,-4864.0,,,1,pitchwheel,,,,,743078,387.01979166666666
6768,3.0,,,,,,,-4992.0,,,1,pitchwheel,,,,,743079,387.0203125
6769,3.0,,,,,,,-5120.0,,,1,pitchwheel,,,,,743080,387.0208333333333
6770,3.0,,,,,,,-5248.0,,,1,pitchwheel,,,,,743081,387.02135416666664
6771,3.0,,,,,,,-5376.0,,,1,pitchwheel,,,,,743082,387.021875
6772,3.0,,,,,,,-5504.0,,,1,pitchwheel,,,,,743083,387.02239583333335
6773,3.0,,,,,,,-5632.0,,,1,pitchwheel,,,,,743084,387.0229166666667
6774,3.0,,,,,,,-5760.0,,,1,pitchwheel,,,,,743085,387.0234375
6775,3.0,,,,,,,-5888.0,,,1,pitchwheel,,,,,743086,387.0239583333333
6776,3.0,,,,,,,-6016.0,,,1,pitchwheel,,,,,743087,387.02447916666665
6777,3.0,,,,,,,-6144.0,,,1,pitchwheel,,,,,743088,387.025
6778,3.0,,,,,,,-6272.0,,,1,pitchwheel,,,,,743089,387.0255208333333
6779,3.0,,,,,,,-6400.0,,,1,pitchwheel,,,,,743090,387.0260416666667
6780,3.0,,,,,,,-6528.0,,,1,pitchwheel,,,,,743091,387.0265625
6781,3.0,,,,,,,-6656.0,,,1,pitchwheel,,,,,743092,387.02708333333334
6782,3.0,,,,,,,-6784.0,,,1,pitchwheel,,,,,743093,387.02760416666666
6783,3.0,,,,,,,-6912.0,,,1,pitchwheel,,,,,743094,387.028125
6784,3.0,,,,,,,-7040.0,,,1,pitchwheel,,,,,743095,387.0286458333333
6785,3.0,,,,,,,-7040.0,,,25,pitchwheel,,,,,743120,387.0416666666667
6786,3.0,,,,,,,-6912.0,,,1,pitchwheel,,,,,743121,387.0421875
6787,3.0,,,,,,,-6784.0,,,1,pitchwheel,,,,,743122,387.04270833333334
6788,3.0,,,,,,,-6656.0,,,1,pitchwheel,,,,,743123,387.04322916666666
6789,3.0,,,,,,,-6528.0,,,1,pitchwheel,,,,,743124,387.04375
6790,3.0,,,,,,,-6400.0,,,1,pitchwheel,,,,,743125,387.0442708333333
6791,3.0,,,,,,,-6272.0,,,1,pitchwheel,,,,,743126,387.04479166666664
6792,3.0,,,,,,,-6144.0,,,1,pitchwheel,,,,,743127,387.0453125
6793,3.0,,,,,,,-6016.0,,,1,pitchwheel,,,,,743128,387.04583333333335
6794,3.0,,,,,,,-5888.0,,,1,pitchwheel,,,,,743129,387.0463541666667
6795,3.0,,,,,,,-5760.0,,,1,pitchwheel,,,,,743130,387.046875
6796,3.0,,,,,,,-5632.0,,,1,pitchwheel,,,,,743131,387.0473958333333
6797,3.0,,,,,,,-5504.0,,,1,pitchwheel,,,,,743132,387.04791666666665
6798,3.0,,,,,,,-5376.0,,,1,pitchwheel,,,,,743133,387.0484375
6799,3.0,,,,,,,-5248.0,,,1,pitchwheel,,,,,743134,387.0489583333333
6800,3.0,,,,,,,-5120.0,,,1,pitchwheel,,,,,743135,387.0494791666667
6801,3.0,,,,,,,-4992.0,,,1,pitchwheel,,,,,743136,387.05
6802,3.0,,,,,,,-4864.0,,,1,pitchwheel,,,,,743137,387.05052083333334
6803,3.0,,,,,,,-4736.0,,,1,pitchwheel,,,,,743138,387.05104166666666
6804,3.0,,,,,,,-4608.0,,,1,pitchwheel,,,,,743139,387.0515625
6805,3.0,,,,,,,-4480.0,,,1,pitchwheel,,,,,743140,387.0520833333333
6806,3.0,,,,,,,-4352.0,,,1,pitchwheel,,,,,743141,387.05260416666664
6807,3.0,,,,,,,-4224.0,,,1,pitchwheel,,,,,743142,387.053125
6808,3.0,,,,,,,-4096.0,,,1,pitchwheel,,,,,743143,387.05364583333335
6809,3.0,,,,,,,-3968.0,,,1,pitchwheel,,,,,743144,387.0541666666667
6810,3.0,,,,,,,-3840.0,,,1,pitchwheel,,,,,743145,387.0546875
6811,3.0,,,,,,,-3712.0,,,1,pitchwheel,,,,,743146,387.0552083333333
6812,3.0,,,,,,,-3584.0,,,1,pitchwheel,,,,,743147,387.05572916666665
6813,3.0,,,,,,,-3456.0,,,1,pitchwheel,,,,,743148,387.05625
6814,3.0,,,,,,,-3328.0,,,1,pitchwheel,,,,,743149,387.0567708333333
6815,3.0,,,,,,,-3200.0,,,1,pitchwheel,,,,,743150,387.0572916666667
6816,3.0,,,,,,,-3072.0,,,1,pitchwheel,,,,,743151,387.0578125
6817,3.0,,,,,,,-2944.0,,,1,pitchwheel,,,,,743152,387.05833333333334
6818,3.0,,,,,,,-2816.0,,,1,pitchwheel,,,,,743153,387.05885416666666
6819,3.0,,,,,,,-2688.0,,,1,pitchwheel,,,,,743154,387.059375
6820,3.0,,,,,,,-2560.0,,,1,pitchwheel,,,,,743155,387.0598958333333
6821,3.0,,,,,,,-2432.0,,,1,pitchwheel,,,,,743156,387.06041666666664
6822,3.0,,,,,,,-2304.0,,,1,pitchwheel,,,,,743157,387.0609375
6823,3.0,,,,,,,-2176.0,,,1,pitchwheel,,,,,743158,387.06145833333335
6824,3.0,,,,,,,-2048.0,,,1,pitchwheel,,,,,743159,387.0619791666667
6825,3.0,,,,,,,-1920.0,,,1,pitchwheel,,,,,743160,387.0625
6826,3.0,,,,,,,-1792.0,,,1,pitchwheel,,,,,743161,387.0630208333333
6827,3.0,,,,,,,-1664.0,,,1,pitchwheel,,,,,743162,387.06354166666665
6828,3.0,,,,,,,-1536.0,,,1,pitchwheel,,,,,743163,387.0640625
6829,3.0,,,,,,,-1408.0,,,1,pitchwheel,,,,,743164,387.0645833333333
6830,3.0,,,,,,,-1280.0,,,1,pitchwheel,,,,,743165,387.0651041666667
6831,3.0,,,,,,,-1152.0,,,1,pitchwheel,,,,,743166,387.065625
6832,3.0,,,,,,,-1024.0,,,1,pitchwheel,,,,,743167,387.06614583333334
6833,3.0,,,,,,,-896.0,,,1,pitchwheel,,,,,743168,387.06666666666666
6834,3.0,,,,,,,-768.0,,,1,pitchwheel,,,,,743169,387.0671875
6835,3.0,,,,,,,-640.0,,,1,pitchwheel,,,,,743170,387.0677083333333
6836,3.0,,,,,,,-512.0,,,1,pitchwheel,,,,,743171,387.06822916666664
6837,3.0,,,,,,,-384.0,,,1,pitchwheel,,,,,743172,387.06875
6838,3.0,,,,,,,-256.0,,,1,pitchwheel,,,,,743173,387.06927083333335
6839,3.0,,,,,,,-128.0,,,1,pitchwheel,,,,,743174,387.0697916666667
6840,3.0,,,,,,,0.0,,,1,pitchwheel,,,,,743175,387.0703125
6841,3.0,,,,,,,0.0,,,25,pitchwheel,,,,,743200,387.0833333333333
6842,3.0,,,,,,,0.0,,,0,pitchwheel,,,,,743200,387.0833333333333
6843,3.0,,,,,61.0,,,,,0,note_off,,95.0,61.0,95.0,743200,387.0833333333333
6844,3.0,,,,,,,0.0,,,0,pitchwheel,,,,,743200,387.0833333333333
6845,3.0,,,,,59.0,,,,,0,note_on,,95.0,59.0,95.0,743200,387.0833333333333
6846,3.0,,,,,,,-128.0,,,1,pitchwheel,,,,,743201,387.08385416666664
6847,3.0,,,,,,,-256.0,,,1,pitchwheel,,,,,743202,387.084375
6848,3.0,,,,,,,-384.0,,,1,pitchwheel,,,,,743203,387.08489583333335
6849,3.0,,,,,,,-512.0,,,1,pitchwheel,,,,,743204,387.0854166666667
6850,3.0,,,,,,,-640.0,,,1,pitchwheel,,,,,743205,387.0859375
6851,3.0,,,,,,,-768.0,,,1,pitchwheel,,,,,743206,387.0864583333333
6852,3.0,,,,,,,-896.0,,,1,pitchwheel,,,,,743207,387.08697916666665
6853,3.0,,,,,,,-1024.0,,,1,pitchwheel,,,,,743208,387.0875
6854,3.0,,,,,,,-1152.0,,,1,pitchwheel,,,,,743209,387.0880208333333
6855,3.0,,,,,,,-1280.0,,,1,pitchwheel,,,,,743210,387.0885416666667
6856,3.0,,,,,,,-1408.0,,,1,pitchwheel,,,,,743211,387.0890625
6857,3.0,,,,,,,-1536.0,,,1,pitchwheel,,,,,743212,387.08958333333334
6858,3.0,,,,,,,-1664.0,,,1,pitchwheel,,,,,743213,387.09010416666666
6859,3.0,,,,,,,-1792.0,,,1,pitchwheel,,,,,743214,387.090625
6860,3.0,,,,,,,-1920.0,,,1,pitchwheel,,,,,743215,387.0911458333333
6861,3.0,,,,,,,-2048.0,,,1,pitchwheel,,,,,743216,387.09166666666664
6862,3.0,,,,,,,-2176.0,,,1,pitchwheel,,,,,743217,387.0921875
6863,3.0,,,,,,,-2304.0,,,1,pitchwheel,,,,,743218,387.09270833333335
6864,3.0,,,,,,,-2432.0,,,1,pitchwheel,,,,,743219,387.0932291666667
6865,3.0,,,,,,,-2560.0,,,1,pitchwheel,,,,,743220,387.09375
6866,3.0,,,,,,,-2688.0,,,1,pitchwheel,,,,,743221,387.0942708333333
6867,3.0,,,,,,,-2816.0,,,1,pitchwheel,,,,,743222,387.09479166666665
6868,3.0,,,,,,,-2944.0,,,1,pitchwheel,,,,,743223,387.0953125
6869,3.0,,,,,,,-3072.0,,,1,pitchwheel,,,,,743224,387.0958333333333
6870,3.0,,,,,,,-3200.0,,,1,pitchwheel,,,,,743225,387.0963541666667
6871,3.0,,,,,,,-3328.0,,,1,pitchwheel,,,,,743226,387.096875
6872,3.0,,,,,,,-3456.0,,,1,pitchwheel,,,,,743227,387.09739583333334
6873,3.0,,,,,,,-3584.0,,,1,pitchwheel,,,,,743228,387.09791666666666
6874,3.0,,,,,,,-3712.0,,,1,pitchwheel,,,,,743229,387.0984375
6875,3.0,,,,,,,-3840.0,,,1,pitchwheel,,,,,743230,387.0989583333333
6876,3.0,,,,,,,-3968.0,,,1,pitchwheel,,,,,743231,387.09947916666664
6877,3.0,,,,,,,-4096.0,,,1,pitchwheel,,,,,743232,387.1
6878,3.0,,,,,,,-4224.0,,,1,pitchwheel,,,,,743233,387.10052083333335
6879,3.0,,,,,,,-4352.0,,,1,pitchwheel,,,,,743234,387.1010416666667
6880,3.0,,,,,,,-4480.0,,,1,pitchwheel,,,,,743235,387.1015625
6881,3.0,,,,,,,-4608.0,,,1,pitchwheel,,,,,743236,387.1020833333333
6882,3.0,,,,,,,-4736.0,,,1,pitchwheel,,,,,743237,387.10260416666665
6883,3.0,,,,,,,-4864.0,,,1,pitchwheel,,,,,743238,387.103125
6884,3.0,,,,,,,-4992.0,,,1,pitchwheel,,,,,743239,387.1036458333333
6885,3.0,,,,,,,-5120.0,,,1,pitchwheel,,,,,743240,387.1041666666667
6886,3.0,,,,,,,-5248.0,,,1,pitchwheel,,,,,743241,387.1046875
6887,3.0,,,,,,,-5376.0,,,1,pitchwheel,,,,,743242,387.10520833333334
6888,3.0,,,,,,,-5504.0,,,1,pitchwheel,,,,,743243,387.10572916666666
6889,3.0,,,,,,,-5632.0,,,1,pitchwheel,,,,,743244,387.10625
6890,3.0,,,,,,,-5760.0,,,1,pitchwheel,,,,,743245,387.1067708333333
6891,3.0,,,,,,,-5888.0,,,1,pitchwheel,,,,,743246,387.10729166666664
6892,3.0,,,,,,,-6016.0,,,1,pitchwheel,,,,,743247,387.1078125
6893,3.0,,,,,,,-6144.0,,,1,pitchwheel,,,,,743248,387.10833333333335
6894,3.0,,,,,,,-6272.0,,,1,pitchwheel,,,,,743249,387.1088541666667
6895,3.0,,,,,,,-6400.0,,,1,pitchwheel,,,,,743250,387.109375
6896,3.0,,,,,,,-6528.0,,,1,pitchwheel,,,,,743251,387.1098958333333
6897,3.0,,,,,,,-6656.0,,,1,pitchwheel,,,,,743252,387.11041666666665
6898,3.0,,,,,,,-6784.0,,,1,pitchwheel,,,,,743253,387.1109375
6899,3.0,,,,,,,-6912.0,,,1,pitchwheel,,,,,743254,387.1114583333333
6900,3.0,,,,,,,-7040.0,,,1,pitchwheel,,,,,743255,387.1119791666667
6901,3.0,,,,,,,-7040.0,,,25,pitchwheel,,,,,743280,387.125
6902,3.0,,,,,,,-6912.0,,,1,pitchwheel,,,,,743281,387.1255208333333
6903,3.0,,,,,,,-6784.0,,,1,pitchwheel,,,,,743282,387.12604166666665
6904,3.0,,,,,,,-6656.0,,,1,pitchwheel,,,,,743283,387.1265625
6905,3.0,,,,,,,-6528.0,,,1,pitchwheel,,,,,743284,387.1270833333333
6906,3.0,,,,,,,-6400.0,,,1,pitchwheel,,,,,743285,387.1276041666667
6907,3.0,,,,,,,-6272.0,,,1,pitchwheel,,,,,743286,387.128125
6908,3.0,,,,,,,-6144.0,,,1,pitchwheel,,,,,743287,387.12864583333334
6909,3.0,,,,,,,-6016.0,,,1,pitchwheel,,,,,743288,387.12916666666666
6910,3.0,,,,,,,-5888.0,,,1,pitchwheel,,,,,743289,387.1296875
6911,3.0,,,,,,,-5760.0,,,1,pitchwheel,,,,,743290,387.1302083333333
6912,3.0,,,,,,,-5632.0,,,1,pitchwheel,,,,,743291,387.13072916666664
6913,3.0,,,,,,,-5504.0,,,1,pitchwheel,,,,,743292,387.13125
6914,3.0,,,,,,,-5376.0,,,1,pitchwheel,,,,,743293,387.13177083333335
6915,3.0,,,,,,,-5248.0,,,1,pitchwheel,,,,,743294,387.1322916666667
6916,3.0,,,,,,,-5120.0,,,1,pitchwheel,,,,,743295,387.1328125
6917,3.0,,,,,,,-4992.0,,,1,pitchwheel,,,,,743296,387.1333333333333
6918,3.0,,,,,,,-4864.0,,,1,pitchwheel,,,,,743297,387.13385416666665
6919,3.0,,,,,,,-4736.0,,,1,pitchwheel,,,,,743298,387.134375
6920,3.0,,,,,,,-4608.0,,,1,pitchwheel,,,,,743299,387.1348958333333
6921,3.0,,,,,,,-4480.0,,,1,pitchwheel,,,,,743300,387.1354166666667
6922,3.0,,,,,,,-4352.0,,,1,pitchwheel,,,,,743301,387.1359375
6923,3.0,,,,,,,-4224.0,,,1,pitchwheel,,,,,743302,387.13645833333334
6924,3.0,,,,,,,-4096.0,,,1,pitchwheel,,,,,743303,387.13697916666666
6925,3.0,,,,,,,-3968.0,,,1,pitchwheel,,,,,743304,387.1375
6926,3.0,,,,,,,-3840.0,,,1,pitchwheel,,,,,743305,387.1380208333333
6927,3.0,,,,,,,-3712.0,,,1,pitchwheel,,,,,743306,387.13854166666664
6928,3.0,,,,,,,-3584.0,,,1,pitchwheel,,,,,743307,387.1390625
6929,3.0,,,,,,,-3456.0,,,1,pitchwheel,,,,,743308,387.13958333333335
6930,3.0,,,,,,,-3328.0,,,1,pitchwheel,,,,,743309,387.1401041666667
6931,3.0,,,,,,,-3200.0,,,1,pitchwheel,,,,,743310,387.140625
6932,3.0,,,,,,,-3072.0,,,1,pitchwheel,,,,,743311,387.1411458333333
6933,3.0,,,,,,,-2944.0,,,1,pitchwheel,,,,,743312,387.14166666666665
6934,3.0,,,,,,,-2816.0,,,1,pitchwheel,,,,,743313,387.1421875
6935,3.0,,,,,,,-2688.0,,,1,pitchwheel,,,,,743314,387.1427083333333
6936,3.0,,,,,,,-2560.0,,,1,pitchwheel,,,,,743315,387.1432291666667
6937,3.0,,,,,,,-2432.0,,,1,pitchwheel,,,,,743316,387.14375
6938,3.0,,,,,,,-2304.0,,,1,pitchwheel,,,,,743317,387.14427083333334
6939,3.0,,,,,,,-2176.0,,,1,pitchwheel,,,,,743318,387.14479166666666
6940,3.0,,,,,,,-2048.0,,,1,pitchwheel,,,,,743319,387.1453125
6941,3.0,,,,,,,-1920.0,,,1,pitchwheel,,,,,743320,387.1458333333333
6942,3.0,,,,,,,-1792.0,,,1,pitchwheel,,,,,743321,387.14635416666664
6943,3.0,,,,,,,-1664.0,,,1,pitchwheel,,,,,743322,387.146875
6944,3.0,,,,,,,-1536.0,,,1,pitchwheel,,,,,743323,387.14739583333335
6945,3.0,,,,,,,-1408.0,,,1,pitchwheel,,,,,743324,387.1479166666667
6946,3.0,,,,,,,-1280.0,,,1,pitchwheel,,,,,743325,387.1484375
6947,3.0,,,,,,,-1152.0,,,1,pitchwheel,,,,,743326,387.1489583333333
6948,3.0,,,,,,,-1024.0,,,1,pitchwheel,,,,,743327,387.14947916666665
6949,3.0,,,,,,,-896.0,,,1,pitchwheel,,,,,743328,387.15
6950,3.0,,,,,,,-768.0,,,1,pitchwheel,,,,,743329,387.1505208333333
6951,3.0,,,,,,,-640.0,,,1,pitchwheel,,,,,743330,387.1510416666667
6952,3.0,,,,,,,-512.0,,,1,pitchwheel,,,,,743331,387.1515625
6953,3.0,,,,,,,-384.0,,,1,pitchwheel,,,,,743332,387.15208333333334
6954,3.0,,,,,,,-256.0,,,1,pitchwheel,,,,,743333,387.15260416666666
6955,3.0,,,,,,,-128.0,,,1,pitchwheel,,,,,743334,387.153125
6956,3.0,,,,,,,0.0,,,1,pitchwheel,,,,,743335,387.1536458333333
6957,3.0,,,,,,,0.0,,,25,pitchwheel,,,,,743360,387.1666666666667
6958,3.0,,,,,,,0.0,,,0,pitchwheel,,,,,743360,387.1666666666667
6959,3.0,,,,,59.0,,,,,0,note_off,,95.0,59.0,95.0,743360,387.1666666666667
6960,3.0,,,,,,,0.0,,,0,pitchwheel,,,,,743360,387.1666666666667
6961,3.0,,,,,54.0,,,,,0,note_on,,95.0,54.0,95.0,743360,387.1666666666667
6962,3.0,,,,,,,-128.0,,,1,pitchwheel,,,,,743361,387.1671875
6963,3.0,,,,,,,-256.0,,,1,pitchwheel,,,,,743362,387.16770833333334
6964,3.0,,,,,,,-384.0,,,1,pitchwheel,,,,,743363,387.16822916666666
6965,3.0,,,,,,,-512.0,,,1,pitchwheel,,,,,743364,387.16875
6966,3.0,,,,,,,-640.0,,,1,pitchwheel,,,,,743365,387.1692708333333
6967,3.0,,,,,,,-768.0,,,1,pitchwheel,,,,,743366,387.16979166666664
6968,3.0,,,,,,,-896.0,,,1,pitchwheel,,,,,743367,387.1703125
6969,3.0,,,,,,,-1024.0,,,1,pitchwheel,,,,,743368,387.17083333333335
6970,3.0,,,,,,,-1152.0,,,1,pitchwheel,,,,,743369,387.1713541666667
6971,3.0,,,,,,,-1280.0,,,1,pitchwheel,,,,,743370,387.171875
6972,3.0,,,,,,,-1408.0,,,1,pitchwheel,,,,,743371,387.1723958333333
6973,3.0,,,,,,,-1536.0,,,1,pitchwheel,,,,,743372,387.17291666666665
6974,3.0,,,,,,,-1664.0,,,1,pitchwheel,,,,,743373,387.1734375
6975,3.0,,,,,,,-1792.0,,,1,pitchwheel,,,,,743374,387.1739583333333
6976,3.0,,,,,,,-1920.0,,,1,pitchwheel,,,,,743375,387.1744791666667
6977,3.0,,,,,,,-2048.0,,,1,pitchwheel,,,,,743376,387.175
6978,3.0,,,,,,,-2176.0,,,1,pitchwheel,,,,,743377,387.17552083333334
6979,3.0,,,,,,,-2304.0,,,1,pitchwheel,,,,,743378,387.17604166666666
6980,3.0,,,,,,,-2432.0,,,1,pitchwheel,,,,,743379,387.1765625
6981,3.0,,,,,,,-2560.0,,,1,pitchwheel,,,,,743380,387.1770833333333
6982,3.0,,,,,,,-2688.0,,,1,pitchwheel,,,,,743381,387.17760416666664
6983,3.0,,,,,,,-2816.0,,,1,pitchwheel,,,,,743382,387.178125
6984,3.0,,,,,,,-2944.0,,,1,pitchwheel,,,,,743383,387.17864583333335
6985,3.0,,,,,,,-3072.0,,,1,pitchwheel,,,,,743384,387.1791666666667
6986,3.0,,,,,,,-3200.0,,,1,pitchwheel,,,,,743385,387.1796875
6987,3.0,,,,,,,-3328.0,,,1,pitchwheel,,,,,743386,387.1802083333333
6988,3.0,,,,,,,-3456.0,,,1,pitchwheel,,,,,743387,387.18072916666665
6989,3.0,,,,,,,-3584.0,,,1,pitchwheel,,,,,743388,387.18125
6990,3.0,,,,,,,-3712.0,,,1,pitchwheel,,,,,743389,387.1817708333333
6991,3.0,,,,,,,-3840.0,,,1,pitchwheel,,,,,743390,387.1822916666667
6992,3.0,,,,,,,-3968.0,,,1,pitchwheel,,,,,743391,387.1828125
6993,3.0,,,,,,,-4096.0,,,1,pitchwheel,,,,,743392,387.18333333333334
6994,3.0,,,,,,,-4224.0,,,1,pitchwheel,,,,,743393,387.18385416666666
6995,3.0,,,,,,,-4352.0,,,1,pitchwheel,,,,,743394,387.184375
6996,3.0,,,,,,,-4480.0,,,1,pitchwheel,,,,,743395,387.1848958333333
6997,3.0,,,,,,,-4608.0,,,1,pitchwheel,,,,,743396,387.18541666666664
6998,3.0,,,,,,,-4736.0,,,1,pitchwheel,,,,,743397,387.1859375
6999,3.0,,,,,,,-4864.0,,,1,pitchwheel,,,,,743398,387.18645833333335
7000,3.0,,,,,,,-4992.0,,,1,pitchwheel,,,,,743399,387.1869791666667
7001,3.0,,,,,,,-5120.0,,,1,pitchwheel,,,,,743400,387.1875
7002,3.0,,,,,,,-5248.0,,,1,pitchwheel,,,,,743401,387.1880208333333
7003,3.0,,,,,,,-5376.0,,,1,pitchwheel,,,,,743402,387.18854166666665
7004,3.0,,,,,,,-5504.0,,,1,pitchwheel,,,,,743403,387.1890625
7005,3.0,,,,,,,-5632.0,,,1,pitchwheel,,,,,743404,387.1895833333333
7006,3.0,,,,,,,-5760.0,,,1,pitchwheel,,,,,743405,387.1901041666667
7007,3.0,,,,,,,-5888.0,,,1,pitchwheel,,,,,743406,387.190625
7008,3.0,,,,,,,-6016.0,,,1,pitchwheel,,,,,743407,387.19114583333334
7009,3.0,,,,,,,-6144.0,,,1,pitchwheel,,,,,743408,387.19166666666666
7010,3.0,,,,,,,-6272.0,,,1,pitchwheel,,,,,743409,387.1921875
7011,3.0,,,,,,,-6400.0,,,1,pitchwheel,,,,,743410,387.1927083333333
7012,3.0,,,,,,,-6528.0,,,1,pitchwheel,,,,,743411,387.19322916666664
7013,3.0,,,,,,,-6656.0,,,1,pitchwheel,,,,,743412,387.19375
7014,3.0,,,,,,,-6784.0,,,1,pitchwheel,,,,,743413,387.19427083333335
7015,3.0,,,,,,,-6912.0,,,1,pitchwheel,,,,,743414,387.1947916666667
7016,3.0,,,,,,,-7040.0,,,1,pitchwheel,,,,,743415,387.1953125
7017,3.0,,,,,,,-7040.0,,,25,pitchwheel,,,,,743440,387.2083333333333
7018,3.0,,,,,,,-6912.0,,,1,pitchwheel,,,,,743441,387.20885416666664
7019,3.0,,,,,,,-6784.0,,,1,pitchwheel,,,,,743442,387.209375
7020,3.0,,,,,,,-6656.0,,,1,pitchwheel,,,,,743443,387.20989583333335
7021,3.0,,,,,,,-6528.0,,,1,pitchwheel,,,,,743444,387.2104166666667
7022,3.0,,,,,,,-6400.0,,,1,pitchwheel,,,,,743445,387.2109375
7023,3.0,,,,,,,-6272.0,,,1,pitchwheel,,,,,743446,387.2114583333333
7024,3.0,,,,,,,-6144.0,,,1,pitchwheel,,,,,743447,387.21197916666665
7025,3.0,,,,,,,-6016.0,,,1,pitchwheel,,,,,743448,387.2125
7026,3.0,,,,,,,-5888.0,,,1,pitchwheel,,,,,743449,387.2130208333333
7027,3.0,,,,,,,-5760.0,,,1,pitchwheel,,,,,743450,387.2135416666667
7028,3.0,,,,,,,-5632.0,,,1,pitchwheel,,,,,743451,387.2140625
7029,3.0,,,,,,,-5504.0,,,1,pitchwheel,,,,,743452,387.21458333333334
7030,3.0,,,,,,,-5376.0,,,1,pitchwheel,,,,,743453,387.21510416666666
7031,3.0,,,,,,,-5248.0,,,1,pitchwheel,,,,,743454,387.215625
7032,3.0,,,,,,,-5120.0,,,1,pitchwheel,,,,,743455,387.2161458333333
7033,3.0,,,,,,,-4992.0,,,1,pitchwheel,,,,,743456,387.21666666666664
7034,3.0,,,,,,,-4864.0,,,1,pitchwheel,,,,,743457,387.2171875
7035,3.0,,,,,,,-4736.0,,,1,pitchwheel,,,,,743458,387.21770833333335
7036,3.0,,,,,,,-4608.0,,,1,pitchwheel,,,,,743459,387.2182291666667
7037,3.0,,,,,,,-4480.0,,,1,pitchwheel,,,,,743460,387.21875
7038,3.0,,,,,,,-4352.0,,,1,pitchwheel,,,,,743461,387.2192708333333
7039,3.0,,,,,,,-4224.0,,,1,pitchwheel,,,,,743462,387.21979166666665
7040,3.0,,,,,,,-4096.0,,,1,pitchwheel,,,,,743463,387.2203125
7041,3.0,,,,,,,-3968.0,,,1,pitchwheel,,,,,743464,387.2208333333333
7042,3.0,,,,,,,-3840.0,,,1,pitchwheel,,,,,743465,387.2213541666667
7043,3.0,,,,,,,-3712.0,,,1,pitchwheel,,,,,743466,387.221875
7044,3.0,,,,,,,-3584.0,,,1,pitchwheel,,,,,743467,387.22239583333334
7045,3.0,,,,,,,-3456.0,,,1,pitchwheel,,,,,743468,387.22291666666666
7046,3.0,,,,,,,-3328.0,,,1,pitchwheel,,,,,743469,387.2234375
7047,3.0,,,,,,,-3200.0,,,1,pitchwheel,,,,,743470,387.2239583333333
7048,3.0,,,,,,,-3072.0,,,1,pitchwheel,,,,,743471,387.22447916666664
7049,3.0,,,,,,,-2944.0,,,1,pitchwheel,,,,,743472,387.225
7050,3.0,,,,,,,-2816.0,,,1,pitchwheel,,,,,743473,387.22552083333335
7051,3.0,,,,,,,-2688.0,,,1,pitchwheel,,,,,743474,387.2260416666667
7052,3.0,,,,,,,-2560.0,,,1,pitchwheel,,,,,743475,387.2265625
7053,3.0,,,,,,,-2432.0,,,1,pitchwheel,,,,,743476,387.2270833333333
7054,3.0,,,,,,,-2304.0,,,1,pitchwheel,,,,,743477,387.22760416666665
7055,3.0,,,,,,,-2176.0,,,1,pitchwheel,,,,,743478,387.228125
7056,3.0,,,,,,,-2048.0,,,1,pitchwheel,,,,,743479,387.2286458333333
7057,3.0,,,,,,,-1920.0,,,1,pitchwheel,,,,,743480,387.2291666666667
7058,3.0,,,,,,,-1792.0,,,1,pitchwheel,,,,,743481,387.2296875
7059,3.0,,,,,,,-1664.0,,,1,pitchwheel,,,,,743482,387.23020833333334
7060,3.0,,,,,,,-1536.0,,,1,pitchwheel,,,,,743483,387.23072916666666
7061,3.0,,,,,,,-1408.0,,,1,pitchwheel,,,,,743484,387.23125
7062,3.0,,,,,,,-1280.0,,,1,pitchwheel,,,,,743485,387.2317708333333
7063,3.0,,,,,,,-1152.0,,,1,pitchwheel,,,,,743486,387.23229166666664
7064,3.0,,,,,,,-1024.0,,,1,pitchwheel,,,,,743487,387.2328125
7065,3.0,,,,,,,-896.0,,,1,pitchwheel,,,,,743488,387.23333333333335
7066,3.0,,,,,,,-768.0,,,1,pitchwheel,,,,,743489,387.2338541666667
7067,3.0,,,,,,,-640.0,,,1,pitchwheel,,,,,743490,387.234375
7068,3.0,,,,,,,-512.0,,,1,pitchwheel,,,,,743491,387.2348958333333
7069,3.0,,,,,,,-384.0,,,1,pitchwheel,,,,,743492,387.23541666666665
7070,3.0,,,,,,,-256.0,,,1,pitchwheel,,,,,743493,387.2359375
7071,3.0,,,,,,,-128.0,,,1,pitchwheel,,,,,743494,387.2364583333333
7072,3.0,,,,,,,0.0,,,1,pitchwheel,,,,,743495,387.2369791666667
7073,3.0,,,,,,,0.0,,,25,pitchwheel,,,,,743520,387.25
7074,3.0,,,,,,,0.0,,,0,pitchwheel,,,,,743520,387.25
7075,3.0,,,,,54.0,,,,,0,note_off,,95.0,54.0,95.0,743520,387.25
7076,3.0,,,,,,,0.0,,,0,pitchwheel,,,,,743520,387.25
7077,3.0,,,,,54.0,,,,,0,note_on,,95.0,54.0,95.0,743520,387.25
7078,3.0,,,,,,,-128.0,,,17,pitchwheel,,,,,743537,387.25885416666665
7079,3.0,,,,,,,-256.0,,,17,pitchwheel,,,,,743554,387.2677083333333
7080,3.0,,,,,,,-384.0,,,17,pitchwheel,,,,,743571,387.2765625
7081,3.0,,,,,,,-512.0,,,17,pitchwheel,,,,,743588,387.28541666666666
7082,3.0,,,,,,,-640.0,,,17,pitchwheel,,,,,743605,387.2942708333333
7083,3.0,,,,,,,-768.0,,,17,pitchwheel,,,,,743622,387.303125
7084,3.0,,,,,,,-896.0,,,17,pitchwheel,,,,,743639,387.3119791666667
7085,3.0,,,,,,,-1024.0,,,17,pitchwheel,,,,,743656,387.3208333333333
7086,3.0,,,,,,,-1152.0,,,17,pitchwheel,,,,,743673,387.3296875
7087,3.0,,,,,,,-1280.0,,,17,pitchwheel,,,,,743690,387.3385416666667
7088,3.0,,,,,,,-1408.0,,,17,pitchwheel,,,,,743707,387.34739583333334
7089,3.0,,,,,,,-1536.0,,,17,pitchwheel,,,,,743724,387.35625
7090,3.0,,,,,,,-1664.0,,,17,pitchwheel,,,,,743741,387.36510416666664
7091,3.0,,,,,,,-1792.0,,,17,pitchwheel,,,,,743758,387.37395833333335
7092,3.0,,,,,,,-1920.0,,,17,pitchwheel,,,,,743775,387.3828125
7093,3.0,,,,,,,-2048.0,,,17,pitchwheel,,,,,743792,387.39166666666665
7094,3.0,,,,,,,-2176.0,,,17,pitchwheel,,,,,743809,387.4005208333333
7095,3.0,,,,,,,-2304.0,,,17,pitchwheel,,,,,743826,387.409375
7096,3.0,,,,,,,-2432.0,,,17,pitchwheel,,,,,743843,387.41822916666666
7097,3.0,,,,,,,-2560.0,,,17,pitchwheel,,,,,743860,387.4270833333333
7098,3.0,,,,,,,-2688.0,,,17,pitchwheel,,,,,743877,387.4359375
7099,3.0,,,,,,,-2816.0,,,17,pitchwheel,,,,,743894,387.4447916666667
7100,3.0,,,,,,,-2944.0,,,17,pitchwheel,,,,,743911,387.4536458333333
7101,3.0,,,,,,,-3072.0,,,17,pitchwheel,,,,,743928,387.4625
7102,3.0,,,,,,,-3200.0,,,17,pitchwheel,,,,,743945,387.4713541666667
7103,3.0,,,,,,,-3328.0,,,17,pitchwheel,,,,,743962,387.48020833333334
7104,3.0,,,,,,,-3456.0,,,17,pitchwheel,,,,,743979,387.4890625
7105,3.0,,,,,,,-3584.0,,,17,pitchwheel,,,,,743996,387.49791666666664
7106,3.0,,,,,,,-3712.0,,,17,pitchwheel,,,,,744013,387.50677083333335
7107,3.0,,,,,,,-3840.0,,,17,pitchwheel,,,,,744030,387.515625
7108,3.0,,,,,,,-3968.0,,,17,pitchwheel,,,,,744047,387.52447916666665
7109,3.0,,,,,,,-4096.0,,,17,pitchwheel,,,,,744064,387.5333333333333
7110,3.0,,,,,,,-4224.0,,,17,pitchwheel,,,,,744081,387.5421875
7111,3.0,,,,,,,-4352.0,,,17,pitchwheel,,,,,744098,387.55104166666666
7112,3.0,,,,,,,-4480.0,,,17,pitchwheel,,,,,744115,387.5598958333333
7113,3.0,,,,,,,-4608.0,,,17,pitchwheel,,,,,744132,387.56875
7114,3.0,,,,,,,-4736.0,,,17,pitchwheel,,,,,744149,387.5776041666667
7115,3.0,,,,,,,-4864.0,,,17,pitchwheel,,,,,744166,387.5864583333333
7116,3.0,,,,,,,-4992.0,,,17,pitchwheel,,,,,744183,387.5953125
7117,3.0,,,,,,,-5120.0,,,17,pitchwheel,,,,,744200,387.6041666666667
7118,3.0,,,,,,,-5248.0,,,17,pitchwheel,,,,,744217,387.61302083333334
7119,3.0,,,,,,,-5376.0,,,17,pitchwheel,,,,,744234,387.621875
7120,3.0,,,,,,,-5504.0,,,17,pitchwheel,,,,,744251,387.63072916666664
7121,3.0,,,,,,,-5632.0,,,17,pitchwheel,,,,,744268,387.63958333333335
7122,3.0,,,,,,,-5760.0,,,17,pitchwheel,,,,,744285,387.6484375
7123,3.0,,,,,,,-5888.0,,,17,pitchwheel,,,,,744302,387.65729166666665
7124,3.0,,,,,,,-6016.0,,,17,pitchwheel,,,,,744319,387.6661458333333
7125,3.0,,,,,,,-6144.0,,,17,pitchwheel,,,,,744336,387.675
7126,3.0,,,,,,,-6272.0,,,17,pitchwheel,,,,,744353,387.68385416666666
7127,3.0,,,,,,,-6400.0,,,17,pitchwheel,,,,,744370,387.6927083333333
7128,3.0,,,,,,,-6528.0,,,17,pitchwheel,,,,,744387,387.7015625
7129,3.0,,,,,,,-6656.0,,,17,pitchwheel,,,,,744404,387.7104166666667
7130,3.0,,,,,,,-6784.0,,,17,pitchwheel,,,,,744421,387.7192708333333
7131,3.0,,,,,,,-6912.0,,,17,pitchwheel,,,,,744438,387.728125
7132,3.0,,,,,,,-7040.0,,,17,pitchwheel,,,,,744455,387.7369791666667
7133,3.0,,,,,,,-7040.0,,,25,pitchwheel,,,,,744480,387.75
7134,3.0,,,,,,,-6912.0,,,17,pitchwheel,,,,,744497,387.75885416666665
7135,3.0,,,,,,,-6784.0,,,17,pitchwheel,,,,,744514,387.7677083333333
7136,3.0,,,,,,,-6656.0,,,17,pitchwheel,,,,,744531,387.7765625
7137,3.0,,,,,,,-6528.0,,,17,pitchwheel,,,,,744548,387.78541666666666
7138,3.0,,,,,,,-6400.0,,,17,pitchwheel,,,,,744565,387.7942708333333
7139,3.0,,,,,,,-6272.0,,,17,pitchwheel,,,,,744582,387.803125
7140,3.0,,,,,,,-6144.0,,,17,pitchwheel,,,,,744599,387.8119791666667
7141,3.0,,,,,,,-6016.0,,,17,pitchwheel,,,,,744616,387.8208333333333
7142,3.0,,,,,,,-5888.0,,,17,pitchwheel,,,,,744633,387.8296875
7143,3.0,,,,,,,-5760.0,,,17,pitchwheel,,,,,744650,387.8385416666667
7144,3.0,,,,,,,-5632.0,,,17,pitchwheel,,,,,744667,387.84739583333334
7145,3.0,,,,,,,-5504.0,,,17,pitchwheel,,,,,744684,387.85625
7146,3.0,,,,,,,-5376.0,,,17,pitchwheel,,,,,744701,387.86510416666664
7147,3.0,,,,,,,-5248.0,,,17,pitchwheel,,,,,744718,387.87395833333335
7148,3.0,,,,,,,-5120.0,,,17,pitchwheel,,,,,744735,387.8828125
7149,3.0,,,,,,,-4992.0,,,17,pitchwheel,,,,,744752,387.89166666666665
7150,3.0,,,,,,,-4864.0,,,17,pitchwheel,,,,,744769,387.9005208333333
7151,3.0,,,,,,,-4736.0,,,17,pitchwheel,,,,,744786,387.909375
7152,3.0,,,,,,,-4608.0,,,17,pitchwheel,,,,,744803,387.91822916666666
7153,3.0,,,,,,,-4480.0,,,17,pitchwheel,,,,,744820,387.9270833333333
7154,3.0,,,,,,,-4352.0,,,17,pitchwheel,,,,,744837,387.9359375
7155,3.0,,,,,,,-4224.0,,,17,pitchwheel,,,,,744854,387.9447916666667
7156,3.0,,,,,,,-4096.0,,,17,pitchwheel,,,,,744871,387.9536458333333
7157,3.0,,,,,,,-3968.0,,,17,pitchwheel,,,,,744888,387.9625
7158,3.0,,,,,,,-3840.0,,,17,pitchwheel,,,,,744905,387.9713541666667
7159,3.0,,,,,,,-3712.0,,,17,pitchwheel,,,,,744922,387.98020833333334
7160,3.0,,,,,,,-3584.0,,,17,pitchwheel,,,,,744939,387.9890625
7161,3.0,,,,,,,-3456.0,,,17,pitchwheel,,,,,744956,387.99791666666664
7162,3.0,,,,,,,-3328.0,,,17,pitchwheel,,,,,744973,388.00677083333335
7163,3.0,,,,,,,-3200.0,,,17,pitchwheel,,,,,744990,388.015625
7164,3.0,,,,,,,-3072.0,,,17,pitchwheel,,,,,745007,388.02447916666665
7165,3.0,,,,,,,-2944.0,,,17,pitchwheel,,,,,745024,388.0333333333333
7166,3.0,,,,,,,-2816.0,,,17,pitchwheel,,,,,745041,388.0421875
7167,3.0,,,,,,,-2688.0,,,17,pitchwheel,,,,,745058,388.05104166666666
7168,3.0,,,,,,,-2560.0,,,17,pitchwheel,,,,,745075,388.0598958333333
7169,3.0,,,,,,,-2432.0,,,17,pitchwheel,,,,,745092,388.06875
7170,3.0,,,,,,,-2304.0,,,17,pitchwheel,,,,,745109,388.0776041666667
7171,3.0,,,,,,,-2176.0,,,17,pitchwheel,,,,,745126,388.0864583333333
7172,3.0,,,,,,,-2048.0,,,17,pitchwheel,,,,,745143,388.0953125
7173,3.0,,,,,,,-1920.0,,,17,pitchwheel,,,,,745160,388.1041666666667
7174,3.0,,,,,,,-1792.0,,,17,pitchwheel,,,,,745177,388.11302083333334
7175,3.0,,,,,,,-1664.0,,,17,pitchwheel,,,,,745194,388.121875
7176,3.0,,,,,,,-1536.0,,,17,pitchwheel,,,,,745211,388.13072916666664
7177,3.0,,,,,,,-1408.0,,,17,pitchwheel,,,,,745228,388.13958333333335
7178,3.0,,,,,,,-1280.0,,,17,pitchwheel,,,,,745245,388.1484375
7179,3.0,,,,,,,-1152.0,,,17,pitchwheel,,,,,745262,388.15729166666665
7180,3.0,,,,,,,-1024.0,,,17,pitchwheel,,,,,745279,388.1661458333333
7181,3.0,,,,,,,-896.0,,,17,pitchwheel,,,,,745296,388.175
7182,3.0,,,,,,,-768.0,,,17,pitchwheel,,,,,745313,388.18385416666666
7183,3.0,,,,,,,-640.0,,,17,pitchwheel,,,,,745330,388.1927083333333
7184,3.0,,,,,,,-512.0,,,17,pitchwheel,,,,,745347,388.2015625
7185,3.0,,,,,,,-384.0,,,17,pitchwheel,,,,,745364,388.2104166666667
7186,3.0,,,,,,,-256.0,,,17,pitchwheel,,,,,745381,388.2192708333333
7187,3.0,,,,,,,-128.0,,,17,pitchwheel,,,,,745398,388.228125
7188,3.0,,,,,,,0.0,,,17,pitchwheel,,,,,745415,388.2369791666667
7189,3.0,,,,,,,0.0,,,25,pitchwheel,,,,,745440,388.25
7190,3.0,,,,,,,0.0,,,0,pitchwheel,,,,,745440,388.25
7191,3.0,,,,,54.0,,,,,0,note_off,,95.0,54.0,95.0,745440,388.25
7192,3.0,,,,,,,0.0,,,0,pitchwheel,,,,,745440,388.25
7193,3.0,,,,,72.0,,,,,0,note_on,,95.0,72.0,95.0,745440,388.25
7194,3.0,,,,,,,128.0,,,5,pitchwheel,,,,,745445,388.2526041666667
7195,3.0,,,,,,,256.0,,,5,pitchwheel,,,,,745450,388.2552083333333
7196,3.0,,,,,,,384.0,,,5,pitchwheel,,,,,745455,388.2578125
7197,3.0,,,,,,,512.0,,,5,pitchwheel,,,,,745460,388.2604166666667
7198,3.0,,,,,,,640.0,,,5,pitchwheel,,,,,745465,388.2630208333333
7199,3.0,,,,,,,768.0,,,5,pitchwheel,,,,,745470,388.265625
7200,3.0,,,,,,,896.0,,,5,pitchwheel,,,,,745475,388.2682291666667
7201,3.0,,,,,,,1024.0,,,5,pitchwheel,,,,,745480,388.2708333333333
7202,3.0,,,,,,,1152.0,,,5,pitchwheel,,,,,745485,388.2734375
7203,3.0,,,,,,,1280.0,,,5,pitchwheel,,,,,745490,388.2760416666667
7204,3.0,,,,,,,1408.0,,,5,pitchwheel,,,,,745495,388.2786458333333
7205,3.0,,,,,,,1408.0,,,5,pitchwheel,,,,,745500,388.28125
7206,3.0,,,,,,,1408.0,,,60,pitchwheel,,,,,745560,388.3125
7207,3.0,,,,,,,0.0,,,0,pitchwheel,,,,,745560,388.3125
7208,3.0,,,,,72.0,,,,,0,note_off,,95.0,72.0,95.0,745560,388.3125
7209,3.0,,,,,,,0.0,,,0,pitchwheel,,,,,745560,388.3125
7210,3.0,,,,,72.0,,,,,0,note_on,,95.0,72.0,95.0,745560,388.3125
7211,3.0,,,,,,,128.0,,,5,pitchwheel,,,,,745565,388.3151041666667
7212,3.0,,,,,,,256.0,,,5,pitchwheel,,,,,745570,388.3177083333333
7213,3.0,,,,,,,384.0,,,5,pitchwheel,,,,,745575,388.3203125
7214,3.0,,,,,,,512.0,,,5,pitchwheel,,,,,745580,388.3229166666667
7215,3.0,,,,,,,640.0,,,5,pitchwheel,,,,,745585,388.3255208333333
7216,3.0,,,,,,,768.0,,,5,pitchwheel,,,,,745590,388.328125
7217,3.0,,,,,,,896.0,,,5,pitchwheel,,,,,745595,388.3307291666667
7218,3.0,,,,,,,1024.0,,,5,pitchwheel,,,,,745600,388.3333333333333
7219,3.0,,,,,,,1152.0,,,5,pitchwheel,,,,,745605,388.3359375
7220,3.0,,,,,,,1280.0,,,5,pitchwheel,,,,,745610,388.3385416666667
7221,3.0,,,,,,,1408.0,,,5,pitchwheel,,,,,745615,388.3411458333333
7222,3.0,,,,,,,1408.0,,,5,pitchwheel,,,,,745620,388.34375
7223,3.0,,,,,,,1408.0,,,60,pitchwheel,,,,,745680,388.375
7224,3.0,,,,,,,0.0,,,0,pitchwheel,,,,,745680,388.375
7225,3.0,,,,,72.0,,,,,0,note_off,,95.0,72.0,95.0,745680,388.375
7226,3.0,,,,,,,0.0,,,0,pitchwheel,,,,,745680,388.375
7227,3.0,,,,,72.0,,,,,0,note_on,,95.0,72.0,95.0,745680,388.375
7228,3.0,,,,,,,128.0,,,5,pitchwheel,,,,,745685,388.3776041666667
7229,3.0,,,,,,,256.0,,,5,pitchwheel,,,,,745690,388.3802083333333
7230,3.0,,,,,,,384.0,,,5,pitchwheel,,,,,745695,388.3828125
7231,3.0,,,,,,,512.0,,,5,pitchwheel,,,,,745700,388.3854166666667
7232,3.0,,,,,,,640.0,,,5,pitchwheel,,,,,745705,388.3880208333333
7233,3.0,,,,,,,768.0,,,5,pitchwheel,,,,,745710,388.390625
7234,3.0,,,,,,,896.0,,,5,pitchwheel,,,,,745715,388.3932291666667
7235,3.0,,,,,,,1024.0,,,5,pitchwheel,,,,,745720,388.3958333333333
7236,3.0,,,,,,,1152.0,,,5,pitchwheel,,,,,745725,388.3984375
7237,3.0,,,,,,,1280.0,,,5,pitchwheel,,,,,745730,388.4010416666667
7238,3.0,,,,,,,1408.0,,,5,pitchwheel,,,,,745735,388.4036458333333
7239,3.0,,,,,,,1408.0,,,5,pitchwheel,,,,,745740,388.40625
7240,3.0,,,,,,,1408.0,,,60,pitchwheel,,,,,745800,388.4375
7241,3.0,,,,,,,0.0,,,0,pitchwheel,,,,,745800,388.4375
7242,3.0,,,,,72.0,,,,,0,note_off,,95.0,72.0,95.0,745800,388.4375
7243,3.0,,,,,,,0.0,,,0,pitchwheel,,,,,745800,388.4375
7244,3.0,,,,,72.0,,,,,0,note_on,,95.0,72.0,95.0,745800,388.4375
7245,3.0,,,,,,,128.0,,,5,pitchwheel,,,,,745805,388.4401041666667
7246,3.0,,,,,,,256.0,,,5,pitchwheel,,,,,745810,388.4427083333333
7247,3.0,,,,,,,384.0,,,5,pitchwheel,,,,,745815,388.4453125
7248,3.0,,,,,,,512.0,,,5,pitchwheel,,,,,745820,388.4479166666667
7249,3.0,,,,,,,640.0,,,5,pitchwheel,,,,,745825,388.4505208333333
7250,3.0,,,,,,,768.0,,,5,pitchwheel,,,,,745830,388.453125
7251,3.0,,,,,,,896.0,,,5,pitchwheel,,,,,745835,388.4557291666667
7252,3.0,,,,,,,1024.0,,,5,pitchwheel,,,,,745840,388.4583333333333
7253,3.0,,,,,,,1152.0,,,5,pitchwheel,,,,,745845,388.4609375
7254,3.0,,,,,,,1280.0,,,5,pitchwheel,,,,,745850,388.4635416666667
7255,3.0,,,,,,,1408.0,,,5,pitchwheel,,,,,745855,388.4661458333333
7256,3.0,,,,,,,1408.0,,,5,pitchwheel,,,,,745860,388.46875
7257,3.0,,,,,,,1408.0,,,60,pitchwheel,,,,,745920,388.5
7258,3.0,,,,,,,0.0,,,0,pitchwheel,,,,,745920,388.5
7259,3.0,,,,,72.0,,,,,0,note_off,,95.0,72.0,95.0,745920,388.5
7260,3.0,,,,,,,0.0,,,0,pitchwheel,,,,,745920,388.5
7261,3.0,,,,,72.0,,,,,0,note_on,,95.0,72.0,95.0,745920,388.5
7262,3.0,,,,,,,128.0,,,65,pitchwheel,,,,,745985,388.5338541666667
7263,3.0,,,,,,,256.0,,,65,pitchwheel,,,,,746050,388.5677083333333
7264,3.0,,,,,,,384.0,,,65,pitchwheel,,,,,746115,388.6015625
7265,3.0,,,,,,,512.0,,,65,pitchwheel,,,,,746180,388.6354166666667
7266,3.0,,,,,,,640.0,,,65,pitchwheel,,,,,746245,388.6692708333333
7267,3.0,,,,,,,768.0,,,65,pitchwheel,,,,,746310,388.703125
7268,3.0,,,,,,,896.0,,,65,pitchwheel,,,,,746375,388.7369791666667
7269,3.0,,,,,,,1024.0,,,65,pitchwheel,,,,,746440,388.7708333333333
7270,3.0,,,,,,,1152.0,,,65,pitchwheel,,,,,746505,388.8046875
7271,3.0,,,,,,,1280.0,,,65,pitchwheel,,,,,746570,388.8385416666667
7272,3.0,,,,,,,1408.0,,,65,pitchwheel,,,,,746635,388.8723958333333
7273,3.0,,,,,,,1408.0,,,5,pitchwheel,,,,,746640,388.875
7274,3.0,,,,,,,1408.0,,,720,pitchwheel,,,,,747360,389.25
7275,3.0,,,,,,,0.0,,,0,pitchwheel,,,,,747360,389.25
7276,3.0,,,,,72.0,,,,,0,note_off,,95.0,72.0,95.0,747360,389.25
7277,3.0,,,,,,,0.0,,,0,pitchwheel,,,,,747360,389.25
7278,3.0,,,,,39.0,,,,,0,note_on,,95.0,39.0,95.0,747360,389.25
7279,3.0,,,,,,,-128.0,,,14,pitchwheel,,,,,747374,389.2572916666667
7280,3.0,,,,,,,-256.0,,,14,pitchwheel,,,,,747388,389.26458333333335
7281,3.0,,,,,,,-384.0,,,14,pitchwheel,,,,,747402,389.271875
7282,3.0,,,,,,,-512.0,,,14,pitchwheel,,,,,747416,389.27916666666664
7283,3.0,,,,,,,-640.0,,,14,pitchwheel,,,,,747430,389.2864583333333
7284,3.0,,,,,,,-768.0,,,14,pitchwheel,,,,,747444,389.29375
7285,3.0,,,,,,,-896.0,,,14,pitchwheel,,,,,747458,389.30104166666666
7286,3.0,,,,,,,-1024.0,,,14,pitchwheel,,,,,747472,389.30833333333334
7287,3.0,,,,,,,-1152.0,,,14,pitchwheel,,,,,747486,389.315625
7288,3.0,,,,,,,-1280.0,,,14,pitchwheel,,,,,747500,389.3229166666667
7289,3.0,,,,,,,-1408.0,,,14,pitchwheel,,,,,747514,389.3302083333333
7290,3.0,,,,,,,-1536.0,,,14,pitchwheel,,,,,747528,389.3375
7291,3.0,,,,,,,-1664.0,,,14,pitchwheel,,,,,747542,389.34479166666665
7292,3.0,,,,,,,-1792.0,,,14,pitchwheel,,,,,747556,389.3520833333333
7293,3.0,,,,,,,-1920.0,,,14,pitchwheel,,,,,747570,389.359375
7294,3.0,,,,,,,-2048.0,,,14,pitchwheel,,,,,747584,389.3666666666667
7295,3.0,,,,,,,-2176.0,,,14,pitchwheel,,,,,747598,389.37395833333335
7296,3.0,,,,,,,-2304.0,,,14,pitchwheel,,,,,747612,389.38125
7297,3.0,,,,,,,-2432.0,,,14,pitchwheel,,,,,747626,389.38854166666664
7298,3.0,,,,,,,-2560.0,,,14,pitchwheel,,,,,747640,389.3958333333333
7299,3.0,,,,,,,-2688.0,,,14,pitchwheel,,,,,747654,389.403125
7300,3.0,,,,,,,-2816.0,,,14,pitchwheel,,,,,747668,389.41041666666666
7301,3.0,,,,,,,-2944.0,,,14,pitchwheel,,,,,747682,389.41770833333334
7302,3.0,,,,,,,-3072.0,,,14,pitchwheel,,,,,747696,389.425
7303,3.0,,,,,,,-3200.0,,,14,pitchwheel,,,,,747710,389.4322916666667
7304,3.0,,,,,,,-3328.0,,,14,pitchwheel,,,,,747724,389.4395833333333
7305,3.0,,,,,,,-3456.0,,,14,pitchwheel,,,,,747738,389.446875
7306,3.0,,,,,,,-3584.0,,,14,pitchwheel,,,,,747752,389.45416666666665
7307,3.0,,,,,,,-3712.0,,,14,pitchwheel,,,,,747766,389.4614583333333
7308,3.0,,,,,,,-3840.0,,,14,pitchwheel,,,,,747780,389.46875
7309,3.0,,,,,,,-3968.0,,,14,pitchwheel,,,,,747794,389.4760416666667
7310,3.0,,,,,,,-4096.0,,,14,pitchwheel,,,,,747808,389.48333333333335
7311,3.0,,,,,,,-4224.0,,,14,pitchwheel,,,,,747822,389.490625
7312,3.0,,,,,,,-4352.0,,,14,pitchwheel,,,,,747836,389.49791666666664
7313,3.0,,,,,,,-4480.0,,,14,pitchwheel,,,,,747850,389.5052083333333
7314,3.0,,,,,,,-4608.0,,,14,pitchwheel,,,,,747864,389.5125
7315,3.0,,,,,,,-4736.0,,,14,pitchwheel,,,,,747878,389.51979166666666
7316,3.0,,,,,,,-4864.0,,,14,pitchwheel,,,,,747892,389.52708333333334
7317,3.0,,,,,,,-4992.0,,,14,pitchwheel,,,,,747906,389.534375
7318,3.0,,,,,,,-5120.0,,,14,pitchwheel,,,,,747920,389.5416666666667
7319,3.0,,,,,,,-5248.0,,,14,pitchwheel,,,,,747934,389.5489583333333
7320,3.0,,,,,,,-5376.0,,,14,pitchwheel,,,,,747948,389.55625
7321,3.0,,,,,,,-5504.0,,,14,pitchwheel,,,,,747962,389.56354166666665
7322,3.0,,,,,,,-5632.0,,,14,pitchwheel,,,,,747976,389.5708333333333
7323,3.0,,,,,,,-5760.0,,,14,pitchwheel,,,,,747990,389.578125
7324,3.0,,,,,,,-5888.0,,,14,pitchwheel,,,,,748004,389.5854166666667
7325,3.0,,,,,,,-6016.0,,,14,pitchwheel,,,,,748018,389.59270833333335
7326,3.0,,,,,,,-6144.0,,,14,pitchwheel,,,,,748032,389.6
7327,3.0,,,,,,,-6272.0,,,14,pitchwheel,,,,,748046,389.60729166666664
7328,3.0,,,,,,,-6400.0,,,14,pitchwheel,,,,,748060,389.6145833333333
7329,3.0,,,,,,,-6528.0,,,14,pitchwheel,,,,,748074,389.621875
7330,3.0,,,,,,,-6656.0,,,14,pitchwheel,,,,,748088,389.62916666666666
7331,3.0,,,,,,,-6784.0,,,14,pitchwheel,,,,,748102,389.63645833333334
7332,3.0,,,,,,,-6912.0,,,14,pitchwheel,,,,,748116,389.64375
7333,3.0,,,,,,,-7040.0,,,14,pitchwheel,,,,,748130,389.6510416666667
7334,3.0,,,,,,,-7168.0,,,14,pitchwheel,,,,,748144,389.6583333333333
7335,3.0,,,,,,,-7296.0,,,14,pitchwheel,,,,,748158,389.665625
7336,3.0,,,,,,,-7424.0,,,14,pitchwheel,,,,,748172,389.67291666666665
7337,3.0,,,,,,,-7552.0,,,14,pitchwheel,,,,,748186,389.6802083333333
7338,3.0,,,,,,,-7680.0,,,14,pitchwheel,,,,,748200,389.6875
7339,3.0,,,,,,,-7808.0,,,14,pitchwheel,,,,,748214,389.6947916666667
7340,3.0,,,,,,,-7936.0,,,14,pitchwheel,,,,,748228,389.70208333333335
7341,3.0,,,,,,,-8064.0,,,14,pitchwheel,,,,,748242,389.709375
7342,3.0,,,,,,,-8192.0,,,14,pitchwheel,,,,,748256,389.71666666666664
7343,3.0,,,,,,,-8192.0,,,14,pitchwheel,,,,,748270,389.7239583333333
7344,3.0,,,,,,,-8192.0,,,14,pitchwheel,,,,,748284,389.73125
7345,3.0,,,,,,,-8192.0,,,36,pitchwheel,,,,,748320,389.75
7346,3.0,,,,,,,-8064.0,,,15,pitchwheel,,,,,748335,389.7578125
7347,3.0,,,,,,,-7936.0,,,15,pitchwheel,,,,,748350,389.765625
7348,3.0,,,,,,,-7808.0,,,15,pitchwheel,,,,,748365,389.7734375
7349,3.0,,,,,,,-7680.0,,,15,pitchwheel,,,,,748380,389.78125
7350,3.0,,,,,,,-7552.0,,,15,pitchwheel,,,,,748395,389.7890625
7351,3.0,,,,,,,-7424.0,,,15,pitchwheel,,,,,748410,389.796875
7352,3.0,,,,,,,-7296.0,,,15,pitchwheel,,,,,748425,389.8046875
7353,3.0,,,,,,,-7168.0,,,15,pitchwheel,,,,,748440,389.8125
7354,3.0,,,,,,,-7040.0,,,15,pitchwheel,,,,,748455,389.8203125
7355,3.0,,,,,,,-6912.0,,,15,pitchwheel,,,,,748470,389.828125
7356,3.0,,,,,,,-6784.0,,,15,pitchwheel,,,,,748485,389.8359375
7357,3.0,,,,,,,-6656.0,,,15,pitchwheel,,,,,748500,389.84375
7358,3.0,,,,,,,-6528.0,,,15,pitchwheel,,,,,748515,389.8515625
7359,3.0,,,,,,,-6400.0,,,15,pitchwheel,,,,,748530,389.859375
7360,3.0,,,,,,,-6272.0,,,15,pitchwheel,,,,,748545,389.8671875
7361,3.0,,,,,,,-6144.0,,,15,pitchwheel,,,,,748560,389.875
7362,3.0,,,,,,,-6016.0,,,15,pitchwheel,,,,,748575,389.8828125
7363,3.0,,,,,,,-5888.0,,,15,pitchwheel,,,,,748590,389.890625
7364,3.0,,,,,,,-5760.0,,,15,pitchwheel,,,,,748605,389.8984375
7365,3.0,,,,,,,-5632.0,,,15,pitchwheel,,,,,748620,389.90625
7366,3.0,,,,,,,-5504.0,,,15,pitchwheel,,,,,748635,389.9140625
7367,3.0,,,,,,,-5376.0,,,15,pitchwheel,,,,,748650,389.921875
7368,3.0,,,,,,,-5248.0,,,15,pitchwheel,,,,,748665,389.9296875
7369,3.0,,,,,,,-5120.0,,,15,pitchwheel,,,,,748680,389.9375
7370,3.0,,,,,,,-4992.0,,,15,pitchwheel,,,,,748695,389.9453125
7371,3.0,,,,,,,-4864.0,,,15,pitchwheel,,,,,748710,389.953125
7372,3.0,,,,,,,-4736.0,,,15,pitchwheel,,,,,748725,389.9609375
7373,3.0,,,,,,,-4608.0,,,15,pitchwheel,,,,,748740,389.96875
7374,3.0,,,,,,,-4480.0,,,15,pitchwheel,,,,,748755,389.9765625
7375,3.0,,,,,,,-4352.0,,,15,pitchwheel,,,,,748770,389.984375
7376,3.0,,,,,,,-4224.0,,,15,pitchwheel,,,,,748785,389.9921875
7377,3.0,,,,,,,-4096.0,,,15,pitchwheel,,,,,748800,390.0
7378,3.0,,,,,,,-3968.0,,,15,pitchwheel,,,,,748815,390.0078125
7379,3.0,,,,,,,-3840.0,,,15,pitchwheel,,,,,748830,390.015625
7380,3.0,,,,,,,-3712.0,,,15,pitchwheel,,,,,748845,390.0234375
7381,3.0,,,,,,,-3584.0,,,15,pitchwheel,,,,,748860,390.03125
7382,3.0,,,,,,,-3456.0,,,15,pitchwheel,,,,,748875,390.0390625
7383,3.0,,,,,,,-3328.0,,,15,pitchwheel,,,,,748890,390.046875
7384,3.0,,,,,,,-3200.0,,,15,pitchwheel,,,,,748905,390.0546875
7385,3.0,,,,,,,-3072.0,,,15,pitchwheel,,,,,748920,390.0625
7386,3.0,,,,,,,-2944.0,,,15,pitchwheel,,,,,748935,390.0703125
7387,3.0,,,,,,,-2816.0,,,15,pitchwheel,,,,,748950,390.078125
7388,3.0,,,,,,,-2688.0,,,15,pitchwheel,,,,,748965,390.0859375
7389,3.0,,,,,,,-2560.0,,,15,pitchwheel,,,,,748980,390.09375
7390,3.0,,,,,,,-2432.0,,,15,pitchwheel,,,,,748995,390.1015625
7391,3.0,,,,,,,-2304.0,,,15,pitchwheel,,,,,749010,390.109375
7392,3.0,,,,,,,-2176.0,,,15,pitchwheel,,,,,749025,390.1171875
7393,3.0,,,,,,,-2048.0,,,15,pitchwheel,,,,,749040,390.125
7394,3.0,,,,,,,-1920.0,,,15,pitchwheel,,,,,749055,390.1328125
7395,3.0,,,,,,,-1792.0,,,15,pitchwheel,,,,,749070,390.140625
7396,3.0,,,,,,,-1664.0,,,15,pitchwheel,,,,,749085,390.1484375
7397,3.0,,,,,,,-1536.0,,,15,pitchwheel,,,,,749100,390.15625
7398,3.0,,,,,,,-1408.0,,,15,pitchwheel,,,,,749115,390.1640625
7399,3.0,,,,,,,-1280.0,,,15,pitchwheel,,,,,749130,390.171875
7400,3.0,,,,,,,-1152.0,,,15,pitchwheel,,,,,749145,390.1796875
7401,3.0,,,,,,,-1024.0,,,15,pitchwheel,,,,,749160,390.1875
7402,3.0,,,,,,,-896.0,,,15,pitchwheel,,,,,749175,390.1953125
7403,3.0,,,,,,,-768.0,,,15,pitchwheel,,,,,749190,390.203125
7404,3.0,,,,,,,-640.0,,,15,pitchwheel,,,,,749205,390.2109375
7405,3.0,,,,,,,-512.0,,,15,pitchwheel,,,,,749220,390.21875
7406,3.0,,,,,,,-384.0,,,15,pitchwheel,,,,,749235,390.2265625
7407,3.0,,,,,,,-256.0,,,15,pitchwheel,,,,,749250,390.234375
7408,3.0,,,,,,,-128.0,,,15,pitchwheel,,,,,749265,390.2421875
7409,3.0,,,,,,,0.0,,,15,pitchwheel,,,,,749280,390.25
7410,3.0,,,,,,,0.0,,,0,pitchwheel,,,,,749280,390.25
7411,3.0,,,,,,,0.0,,,0,pitchwheel,,,,,749280,390.25
7412,3.0,,,,,39.0,,,,,0,note_off,,95.0,39.0,95.0,749280,390.25
7413,3.0,,,,,,,0.0,,,0,pitchwheel,,,,,749280,390.25
7414,3.0,,,,,59.0,,,,,0,note_on,,95.0,59.0,95.0,749280,390.25
7415,3.0,,,,,,,-128.0,,,43,pitchwheel,,,,,749323,390.27239583333335
7416,3.0,,,,,,,-256.0,,,43,pitchwheel,,,,,749366,390.29479166666664
7417,3.0,,,,,,,-384.0,,,43,pitchwheel,,,,,749409,390.3171875
7418,3.0,,,,,,,-512.0,,,43,pitchwheel,,,,,749452,390.33958333333334
7419,3.0,,,,,,,-640.0,,,43,pitchwheel,,,,,749495,390.3619791666667
7420,3.0,,,,,,,-768.0,,,43,pitchwheel,,,,,749538,390.384375
7421,3.0,,,,,,,-896.0,,,43,pitchwheel,,,,,749581,390.4067708333333
7422,3.0,,,,,,,-1024.0,,,43,pitchwheel,,,,,749624,390.4291666666667
7423,3.0,,,,,,,-1152.0,,,43,pitchwheel,,,,,749667,390.4515625
7424,3.0,,,,,,,-1280.0,,,43,pitchwheel,,,,,749710,390.4739583333333
7425,3.0,,,,,,,-1408.0,,,43,pitchwheel,,,,,749753,390.49635416666666
7426,3.0,,,,,,,-1536.0,,,43,pitchwheel,,,,,749796,390.51875
7427,3.0,,,,,,,-1664.0,,,43,pitchwheel,,,,,749839,390.5411458333333
7428,3.0,,,,,,,-1792.0,,,43,pitchwheel,,,,,749882,390.56354166666665
7429,3.0,,,,,,,-1920.0,,,43,pitchwheel,,,,,749925,390.5859375
7430,3.0,,,,,,,-2048.0,,,43,pitchwheel,,,,,749968,390.60833333333335
7431,3.0,,,,,,,-2176.0,,,43,pitchwheel,,,,,750011,390.63072916666664
7432,3.0,,,,,,,-2304.0,,,43,pitchwheel,,,,,750054,390.653125
7433,3.0,,,,,,,-2432.0,,,43,pitchwheel,,,,,750097,390.67552083333334
7434,3.0,,,,,,,-2560.0,,,43,pitchwheel,,,,,750140,390.6979166666667
7435,3.0,,,,,,,-2688.0,,,43,pitchwheel,,,,,750183,390.7203125
7436,3.0,,,,,,,-2816.0,,,43,pitchwheel,,,,,750226,390.7427083333333
7437,3.0,,,,,,,-2944.0,,,43,pitchwheel,,,,,750269,390.7651041666667
7438,3.0,,,,,,,-3072.0,,,43,pitchwheel,,,,,750312,390.7875
7439,3.0,,,,,,,-3200.0,,,43,pitchwheel,,,,,750355,390.8098958333333
7440,3.0,,,,,,,-3328.0,,,43,pitchwheel,,,,,750398,390.83229166666666
7441,3.0,,,,,,,-3456.0,,,43,pitchwheel,,,,,750441,390.8546875
7442,3.0,,,,,,,-3584.0,,,43,pitchwheel,,,,,750484,390.8770833333333
7443,3.0,,,,,,,-3712.0,,,43,pitchwheel,,,,,750527,390.89947916666665
7444,3.0,,,,,,,-3840.0,,,43,pitchwheel,,,,,750570,390.921875
7445,3.0,,,,,,,-3968.0,,,43,pitchwheel,,,,,750613,390.94427083333335
7446,3.0,,,,,,,-4096.0,,,43,pitchwheel,,,,,750656,390.96666666666664
7447,3.0,,,,,,,-4224.0,,,43,pitchwheel,,,,,750699,390.9890625
7448,3.0,,,,,,,-4352.0,,,43,pitchwheel,,,,,750742,391.01145833333334
7449,3.0,,,,,,,-4480.0,,,43,pitchwheel,,,,,750785,391.0338541666667
7450,3.0,,,,,,,-4608.0,,,43,pitchwheel,,,,,750828,391.05625
7451,3.0,,,,,,,-4736.0,,,43,pitchwheel,,,,,750871,391.0786458333333
7452,3.0,,,,,,,-4864.0,,,43,pitchwheel,,,,,750914,391.1010416666667
7453,3.0,,,,,,,-4992.0,,,43,pitchwheel,,,,,750957,391.1234375
7454,3.0,,,,,,,-5120.0,,,43,pitchwheel,,,,,751000,391.1458333333333
7455,3.0,,,,,,,-5248.0,,,43,pitchwheel,,,,,751043,391.16822916666666
7456,3.0,,,,,,,-5376.0,,,43,pitchwheel,,,,,751086,391.190625
7457,3.0,,,,,,,-5504.0,,,43,pitchwheel,,,,,751129,391.2130208333333
7458,3.0,,,,,,,-5632.0,,,43,pitchwheel,,,,,751172,391.23541666666665
7459,3.0,,,,,,,-5760.0,,,43,pitchwheel,,,,,751215,391.2578125
7460,3.0,,,,,,,-5888.0,,,43,pitchwheel,,,,,751258,391.28020833333335
7461,3.0,,,,,,,-6016.0,,,43,pitchwheel,,,,,751301,391.30260416666664
7462,3.0,,,,,,,-6144.0,,,43,pitchwheel,,,,,751344,391.325
7463,3.0,,,,,,,-6272.0,,,43,pitchwheel,,,,,751387,391.34739583333334
7464,3.0,,,,,,,-6400.0,,,43,pitchwheel,,,,,751430,391.3697916666667
7465,3.0,,,,,,,-6528.0,,,43,pitchwheel,,,,,751473,391.3921875
7466,3.0,,,,,,,-6656.0,,,43,pitchwheel,,,,,751516,391.4145833333333
7467,3.0,,,,,,,-6784.0,,,43,pitchwheel,,,,,751559,391.4369791666667
7468,3.0,,,,,,,-6912.0,,,43,pitchwheel,,,,,751602,391.459375
7469,3.0,,,,,,,-7040.0,,,43,pitchwheel,,,,,751645,391.4817708333333
7470,3.0,,,,,,,-7168.0,,,43,pitchwheel,,,,,751688,391.50416666666666
7471,3.0,,,,,,,-7296.0,,,43,pitchwheel,,,,,751731,391.5265625
7472,3.0,,,,,,,-7424.0,,,43,pitchwheel,,,,,751774,391.5489583333333
7473,3.0,,,,,,,-7552.0,,,43,pitchwheel,,,,,751817,391.57135416666665
7474,3.0,,,,,,,-7680.0,,,43,pitchwheel,,,,,751860,391.59375
7475,3.0,,,,,,,-7808.0,,,43,pitchwheel,,,,,751903,391.61614583333335
7476,3.0,,,,,,,-7936.0,,,43,pitchwheel,,,,,751946,391.63854166666664
7477,3.0,,,,,,,-8064.0,,,43,pitchwheel,,,,,751989,391.6609375
7478,3.0,,,,,,,-8192.0,,,43,pitchwheel,,,,,752032,391.68333333333334
7479,3.0,,,,,,,-8192.0,,,43,pitchwheel,,,,,752075,391.7057291666667
7480,3.0,,,,,,,-8192.0,,,43,pitchwheel,,,,,752118,391.728125
7481,3.0,,,,,,,-8192.0,,,42,pitchwheel,,,,,752160,391.75
7482,3.0,,,,,,,-8064.0,,,45,pitchwheel,,,,,752205,391.7734375
7483,3.0,,,,,,,-7936.0,,,45,pitchwheel,,,,,752250,391.796875
7484,3.0,,,,,,,-7808.0,,,45,pitchwheel,,,,,752295,391.8203125
7485,3.0,,,,,,,-7680.0,,,45,pitchwheel,,,,,752340,391.84375
7486,3.0,,,,,,,-7552.0,,,45,pitchwheel,,,,,752385,391.8671875
7487,3.0,,,,,,,-7424.0,,,45,pitchwheel,,,,,752430,391.890625
7488,3.0,,,,,,,-7296.0,,,45,pitchwheel,,,,,752475,391.9140625
7489,3.0,,,,,,,-7168.0,,,45,pitchwheel,,,,,752520,391.9375
7490,3.0,,,,,,,-7040.0,,,45,pitchwheel,,,,,752565,391.9609375
7491,3.0,,,,,,,-6912.0,,,45,pitchwheel,,,,,752610,391.984375
7492,3.0,,,,,,,-6784.0,,,45,pitchwheel,,,,,752655,392.0078125
7493,3.0,,,,,,,-6656.0,,,45,pitchwheel,,,,,752700,392.03125
7494,3.0,,,,,,,-6528.0,,,45,pitchwheel,,,,,752745,392.0546875
7495,3.0,,,,,,,-6400.0,,,45,pitchwheel,,,,,752790,392.078125
7496,3.0,,,,,,,-6272.0,,,45,pitchwheel,,,,,752835,392.1015625
7497,3.0,,,,,,,-6144.0,,,45,pitchwheel,,,,,752880,392.125
7498,3.0,,,,,,,-6016.0,,,45,pitchwheel,,,,,752925,392.1484375
7499,3.0,,,,,,,-5888.0,,,45,pitchwheel,,,,,752970,392.171875
7500,3.0,,,,,,,-5760.0,,,45,pitchwheel,,,,,753015,392.1953125
7501,3.0,,,,,,,-5632.0,,,45,pitchwheel,,,,,753060,392.21875
7502,3.0,,,,,,,-5504.0,,,45,pitchwheel,,,,,753105,392.2421875
7503,3.0,,,,,,,-5376.0,,,45,pitchwheel,,,,,753150,392.265625
7504,3.0,,,,,,,-5248.0,,,45,pitchwheel,,,,,753195,392.2890625
7505,3.0,,,,,,,-5120.0,,,45,pitchwheel,,,,,753240,392.3125
7506,3.0,,,,,,,-4992.0,,,45,pitchwheel,,,,,753285,392.3359375
7507,3.0,,,,,,,-4864.0,,,45,pitchwheel,,,,,753330,392.359375
7508,3.0,,,,,,,-4736.0,,,45,pitchwheel,,,,,753375,392.3828125
7509,3.0,,,,,,,-4608.0,,,45,pitchwheel,,,,,753420,392.40625
7510,3.0,,,,,,,-4480.0,,,45,pitchwheel,,,,,753465,392.4296875
7511,3.0,,,,,,,-4352.0,,,45,pitchwheel,,,,,753510,392.453125
7512,3.0,,,,,,,-4224.0,,,45,pitchwheel,,,,,753555,392.4765625
7513,3.0,,,,,,,-4096.0,,,45,pitchwheel,,,,,753600,392.5
7514,3.0,,,,,,,-3968.0,,,45,pitchwheel,,,,,753645,392.5234375
7515,3.0,,,,,,,-3840.0,,,45,pitchwheel,,,,,753690,392.546875
7516,3.0,,,,,,,-3712.0,,,45,pitchwheel,,,,,753735,392.5703125
7517,3.0,,,,,,,-3584.0,,,45,pitchwheel,,,,,753780,392.59375
7518,3.0,,,,,,,-3456.0,,,45,pitchwheel,,,,,753825,392.6171875
7519,3.0,,,,,,,-3328.0,,,45,pitchwheel,,,,,753870,392.640625
7520,3.0,,,,,,,-3200.0,,,45,pitchwheel,,,,,753915,392.6640625
7521,3.0,,,,,,,-3072.0,,,45,pitchwheel,,,,,753960,392.6875
7522,3.0,,,,,,,-2944.0,,,45,pitchwheel,,,,,754005,392.7109375
7523,3.0,,,,,,,-2816.0,,,45,pitchwheel,,,,,754050,392.734375
7524,3.0,,,,,,,-2688.0,,,45,pitchwheel,,,,,754095,392.7578125
7525,3.0,,,,,,,-2560.0,,,45,pitchwheel,,,,,754140,392.78125
7526,3.0,,,,,,,-2432.0,,,45,pitchwheel,,,,,754185,392.8046875
7527,3.0,,,,,,,-2304.0,,,45,pitchwheel,,,,,754230,392.828125
7528,3.0,,,,,,,-2176.0,,,45,pitchwheel,,,,,754275,392.8515625
7529,3.0,,,,,,,-2048.0,,,45,pitchwheel,,,,,754320,392.875
7530,3.0,,,,,,,-1920.0,,,45,pitchwheel,,,,,754365,392.8984375
7531,3.0,,,,,,,-1792.0,,,45,pitchwheel,,,,,754410,392.921875
7532,3.0,,,,,,,-1664.0,,,45,pitchwheel,,,,,754455,392.9453125
7533,3.0,,,,,,,-1536.0,,,45,pitchwheel,,,,,754500,392.96875
7534,3.0,,,,,,,-1408.0,,,45,pitchwheel,,,,,754545,392.9921875
7535,3.0,,,,,,,-1280.0,,,45,pitchwheel,,,,,754590,393.015625
7536,3.0,,,,,,,-1152.0,,,45,pitchwheel,,,,,754635,393.0390625
7537,3.0,,,,,,,-1024.0,,,45,pitchwheel,,,,,754680,393.0625
7538,3.0,,,,,,,-896.0,,,45,pitchwheel,,,,,754725,393.0859375
7539,3.0,,,,,,,-768.0,,,45,pitchwheel,,,,,754770,393.109375
7540,3.0,,,,,,,-640.0,,,45,pitchwheel,,,,,754815,393.1328125
7541,3.0,,,,,,,-512.0,,,45,pitchwheel,,,,,754860,393.15625
7542,3.0,,,,,,,-384.0,,,45,pitchwheel,,,,,754905,393.1796875
7543,3.0,,,,,,,-256.0,,,45,pitchwheel,,,,,754950,393.203125
7544,3.0,,,,,,,-128.0,,,45,pitchwheel,,,,,754995,393.2265625
7545,3.0,,,,,,,0.0,,,45,pitchwheel,,,,,755040,393.25
7546,3.0,,,,,,,0.0,,,0,pitchwheel,,,,,755040,393.25
7547,3.0,,,,,,,0.0,,,0,pitchwheel,,,,,755040,393.25
7548,3.0,,,,,59.0,,,,,0,note_off,,95.0,59.0,95.0,755040,393.25
7549,2.0,,,,,58.0,,,,,0,note_on,,95.0,58.0,95.0,755040,393.25
7550,2.0,,,,,58.0,,,,,55,note_off,,95.0,58.0,95.0,755095,393.2786458333333
7551,2.0,,,,,49.0,,,,,905,note_on,,95.0,49.0,95.0,756000,393.75
7552,2.0,,,,,44.0,,,,,0,note_on,,95.0,44.0,95.0,756000,393.75
7553,2.0,,,,,39.0,,,,,0,note_on,,95.0,39.0,95.0,756000,393.75
7554,2.0,,,,,49.0,,,,,55,note_off,,95.0,49.0,95.0,756055,393.7786458333333
7555,2.0,,,,,44.0,,,,,0,note_off,,95.0,44.0,95.0,756055,393.7786458333333
7556,2.0,,,,,39.0,,,,,0,note_off,,95.0,39.0,95.0,756055,393.7786458333333
7557,2.0,,,,,58.0,,,,,905,note_on,,95.0,58.0,95.0,756960,394.25
7558,2.0,,,,,58.0,,,,,55,note_off,,95.0,58.0,95.0,757015,394.2786458333333
7559,2.0,,,,,49.0,,,,,905,note_on,,95.0,49.0,95.0,757920,394.75
7560,2.0,,,,,44.0,,,,,0,note_on,,95.0,44.0,95.0,757920,394.75
7561,2.0,,,,,39.0,,,,,0,note_on,,95.0,39.0,95.0,757920,394.75
7562,2.0,,,,,49.0,,,,,55,note_off,,95.0,49.0,95.0,757975,394.7786458333333
7563,2.0,,,,,44.0,,,,,0,note_off,,95.0,44.0,95.0,757975,394.7786458333333
7564,2.0,,,,,39.0,,,,,0,note_off,,95.0,39.0,95.0,757975,394.7786458333333
7565,3.0,,,,,,,0.0,,,905,pitchwheel,,,,,758880,395.25
7566,3.0,,,,,61.0,,,,,0,note_on,,95.0,61.0,95.0,758880,395.25
7567,3.0,,,,,,,128.0,,,65,pitchwheel,,,,,758945,395.2838541666667
7568,3.0,,,,,,,256.0,,,65,pitchwheel,,,,,759010,395.3177083333333
7569,3.0,,,,,,,384.0,,,65,pitchwheel,,,,,759075,395.3515625
7570,3.0,,,,,,,512.0,,,65,pitchwheel,,,,,759140,395.3854166666667
7571,3.0,,,,,,,640.0,,,65,pitchwheel,,,,,759205,395.4192708333333
7572,3.0,,,,,,,768.0,,,65,pitchwheel,,,,,759270,395.453125
7573,3.0,,,,,,,896.0,,,65,pitchwheel,,,,,759335,395.4869791666667
7574,3.0,,,,,,,1024.0,,,65,pitchwheel,,,,,759400,395.5208333333333
7575,3.0,,,,,,,1152.0,,,65,pitchwheel,,,,,759465,395.5546875
7576,3.0,,,,,,,1280.0,,,65,pitchwheel,,,,,759530,395.5885416666667
7577,3.0,,,,,,,1408.0,,,65,pitchwheel,,,,,759595,395.6223958333333
7578,3.0,,,,,,,1408.0,,,5,pitchwheel,,,,,759600,395.625
7579,3.0,,,,,,,1408.0,,,720,pitchwheel,,,,,760320,396.0
7580,3.0,,,,,,,0.0,,,0,pitchwheel,,,,,760320,396.0
7581,3.0,,,,,61.0,,,,,0,note_off,,95.0,61.0,95.0,760320,396.0
7582,3.0,,,,,,,0.0,,,0,pitchwheel,,,,,760320,396.0
7583,3.0,,,,,61.0,,,,,0,note_on,,95.0,61.0,95.0,760320,396.0
7584,3.0,,,,,,,128.0,,,3,pitchwheel,,,,,760323,396.0015625
7585,3.0,,,,,,,256.0,,,3,pitchwheel,,,,,760326,396.003125
7586,3.0,,,,,,,384.0,,,3,pitchwheel,,,,,760329,396.0046875
7587,3.0,,,,,,,512.0,,,3,pitchwheel,,,,,760332,396.00625
7588,3.0,,,,,,,640.0,,,3,pitchwheel,,,,,760335,396.0078125
7589,3.0,,,,,,,768.0,,,3,pitchwheel,,,,,760338,396.009375
7590,3.0,,,,,,,896.0,,,3,pitchwheel,,,,,760341,396.0109375
7591,3.0,,,,,,,1024.0,,,3,pitchwheel,,,,,760344,396.0125
7592,3.0,,,,,,,1152.0,,,3,pitchwheel,,,,,760347,396.0140625
7593,3.0,,,,,,,1280.0,,,3,pitchwheel,,,,,760350,396.015625
7594,3.0,,,,,,,1408.0,,,3,pitchwheel,,,,,760353,396.0171875
7595,3.0,,,,,,,1408.0,,,7,pitchwheel,,,,,760360,396.0208333333333
7596,3.0,,,,,,,1408.0,,,40,pitchwheel,,,,,760400,396.0416666666667
7597,3.0,,,,,,,1280.0,,,3,pitchwheel,,,,,760403,396.04322916666666
7598,3.0,,,,,,,1152.0,,,3,pitchwheel,,,,,760406,396.04479166666664
7599,3.0,,,,,,,1024.0,,,3,pitchwheel,,,,,760409,396.0463541666667
7600,3.0,,,,,,,896.0,,,3,pitchwheel,,,,,760412,396.04791666666665
7601,3.0,,,,,,,768.0,,,3,pitchwheel,,,,,760415,396.0494791666667
7602,3.0,,,,,,,640.0,,,3,pitchwheel,,,,,760418,396.05104166666666
7603,3.0,,,,,,,512.0,,,3,pitchwheel,,,,,760421,396.05260416666664
7604,3.0,,,,,,,384.0,,,3,pitchwheel,,,,,760424,396.0541666666667
7605,3.0,,,,,,,256.0,,,3,pitchwheel,,,,,760427,396.05572916666665
7606,3.0,,,,,,,128.0,,,3,pitchwheel,,,,,760430,396.0572916666667
7607,3.0,,,,,,,0.0,,,3,pitchwheel,,,,,760433,396.05885416666666
7608,3.0,,,,,,,0.0,,,7,pitchwheel,,,,,760440,396.0625
7609,3.0,,,,,,,0.0,,,40,pitchwheel,,,,,760480,396.0833333333333
7610,3.0,,,,,,,0.0,,,0,pitchwheel,,,,,760480,396.0833333333333
7611,3.0,,,,,61.0,,,,,0,note_off,,95.0,61.0,95.0,760480,396.0833333333333
7612,2.0,,,,,61.0,,,,,0,note_on,,95.0,61.0,95.0,760480,396.0833333333333
7613,2.0,,,,,61.0,,,,,160,note_off,,95.0,61.0,95.0,760640,396.1666666666667
7614,2.0,,,,,59.0,,,,,0,note_on,,95.0,59.0,95.0,760640,396.1666666666667
7615,2.0,,,,,59.0,,,,,160,note_off,,95.0,59.0,95.0,760800,396.25
7616,3.0,,,,,,,0.0,,,0,pitchwheel,,,,,760800,396.25
7617,3.0,,,,,85.0,,,,,0,note_on,,95.0,85.0,95.0,760800,396.25
7618,3.0,,,,,,,128.0,,,87,pitchwheel,,,,,760887,396.2953125
7619,3.0,,,,,,,256.0,,,87,pitchwheel,,,,,760974,396.340625
7620,3.0,,,,,,,384.0,,,87,pitchwheel,,,,,761061,396.3859375
7621,3.0,,,,,,,512.0,,,87,pitchwheel,,,,,761148,396.43125
7622,3.0,,,,,,,640.0,,,87,pitchwheel,,,,,761235,396.4765625
7623,3.0,,,,,,,768.0,,,87,pitchwheel,,,,,761322,396.521875
7624,3.0,,,,,,,896.0,,,87,pitchwheel,,,,,761409,396.5671875
7625,3.0,,,,,,,1024.0,,,87,pitchwheel,,,,,761496,396.6125
7626,3.0,,,,,,,1152.0,,,87,pitchwheel,,,,,761583,396.6578125
7627,3.0,,,,,,,1280.0,,,87,pitchwheel,,,,,761670,396.703125
7628,3.0,,,,,,,1408.0,,,87,pitchwheel,,,,,761757,396.7484375
7629,3.0,,,,,,,1408.0,,,3,pitchwheel,,,,,761760,396.75
7630,3.0,,,,,,,1408.0,,,960,pitchwheel,,,,,762720,397.25
7631,3.0,,,,,,,0.0,,,0,pitchwheel,,,,,762720,397.25
7632,3.0,,,,,85.0,,,,,0,note_off,,95.0,85.0,95.0,762720,397.25
7633,2.0,,,,,48.0,,,,,0,note_on,,95.0,48.0,95.0,762720,397.25
7634,2.0,,,,,41.0,,,,,0,note_on,,95.0,41.0,95.0,762720,397.25
7635,2.0,,,,,48.0,,,,,2880,note_off,,95.0,48.0,95.0,765600,398.75
7636,2.0,,,,,41.0,,,,,0,note_off,,95.0,41.0,95.0,765600,398.75
7637,2.0,,,,,49.0,,,,,0,note_on,,95.0,49.0,95.0,765600,398.75
7638,2.0,,,,,42.0,,,,,0,note_on,,95.0,42.0,95.0,765600,398.75
7639,2.0,,,,,49.0,,,,,960,note_off,,95.0,49.0,95.0,766560,399.25
7640,2.0,,,,,42.0,,,,,0,note_off,,95.0,42.0,95.0,766560,399.25
7641,2.0,,,,,39.0,,,,,0,note_on,,95.0,39.0,95.0,766560,399.25
7642,2.0,,,,,39.0,,,,,240,note_off,,95.0,39.0,95.0,766800,399.375
7643,2.0,,,,,39.0,,,,,0,note_on,,95.0,39.0,95.0,766800,399.375
7644,2.0,,,,,39.0,,,,,240,note_off,,95.0,39.0,95.0,767040,399.5
7645,2.0,,,,,39.0,,,,,0,note_on,,95.0,39.0,95.0,767040,399.5
7646,2.0,,,,,39.0,,,,,240,note_off,,95.0,39.0,95.0,767280,399.625
7647,2.0,,,,,39.0,,,,,0,note_on,,95.0,39.0,95.0,767280,399.625
7648,2.0,,,,,39.0,,,,,240,note_off,,95.0,39.0,95.0,767520,399.75
7649,2.0,,,,,39.0,,,,,0,note_on,,95.0,39.0,95.0,767520,399.75
7650,2.0,,,,,39.0,,,,,240,note_off,,95.0,39.0,95.0,767760,399.875
7651,2.0,,,,,39.0,,,,,0,note_on,,95.0,39.0,95.0,767760,399.875
7652,2.0,,,,,39.0,,,,,240,note_off,,95.0,39.0,95.0,768000,400.0
7653,2.0,,,,,39.0,,,,,0,note_on,,95.0,39.0,95.0,768000,400.0
7654,2.0,,,,,39.0,,,,,240,note_off,,95.0,39.0,95.0,768240,400.125
7655,2.0,,,,,39.0,,,,,0,note_on,,95.0,39.0,95.0,768240,400.125
7656,2.0,,,,,39.0,,,,,240,note_off,,95.0,39.0,95.0,768480,400.25
7657,2.0,,,,,39.0,,,,,0,note_on,,95.0,39.0,95.0,768480,400.25
7658,2.0,,,,,39.0,,,,,240,note_off,,95.0,39.0,95.0,768720,400.375
7659,2.0,,,,,39.0,,,,,0,note_on,,95.0,39.0,95.0,768720,400.375
7660,2.0,,,,,39.0,,,,,240,note_off,,95.0,39.0,95.0,768960,400.5
7661,2.0,,,,,49.0,,,,,0,note_on,,95.0,49.0,95.0,768960,400.5
7662,2.0,,,,,42.0,,,,,0,note_on,,95.0,42.0,95.0,768960,400.5
7663,2.0,,,,,49.0,,,,,480,note_off,,95.0,49.0,95.0,769440,400.75
7664,2.0,,,,,42.0,,,,,0,note_off,,95.0,42.0,95.0,769440,400.75
7665,2.0,,,,,39.0,,,,,0,note_on,,95.0,39.0,95.0,769440,400.75
7666,2.0,,,,,39.0,,,,,240,note_off,,95.0,39.0,95.0,769680,400.875
7667,2.0,,,,,39.0,,,,,0,note_on,,95.0,39.0,95.0,769680,400.875
7668,2.0,,,,,39.0,,,,,240,note_off,,95.0,39.0,95.0,769920,401.0
7669,2.0,,,,,49.0,,,,,0,note_on,,95.0,49.0,95.0,769920,401.0
7670,2.0,,,,,42.0,,,,,0,note_on,,95.0,42.0,95.0,769920,401.0
7671,2.0,,,,,49.0,,,,,480,note_off,,95.0,49.0,95.0,770400,401.25
7672,2.0,,,,,42.0,,,,,0,note_off,,95.0,42.0,95.0,770400,401.25
7673,2.0,,,,,48.0,,,,,0,note_on,,95.0,48.0,95.0,770400,401.25
7674,2.0,,,,,41.0,,,,,0,note_on,,95.0,41.0,95.0,770400,401.25
7675,2.0,,,,,48.0,,,,,2880,note_off,,95.0,48.0,95.0,773280,402.75
7676,2.0,,,,,41.0,,,,,0,note_off,,95.0,41.0,95.0,773280,402.75
7677,2.0,,,,,52.0,,,,,0,note_on,,95.0,52.0,95.0,773280,402.75
7678,2.0,,,,,45.0,,,,,0,note_on,,95.0,45.0,95.0,773280,402.75
7679,2.0,,,,,52.0,,,,,960,note_off,,95.0,52.0,95.0,774240,403.25
7680,2.0,,,,,45.0,,,,,0,note_off,,95.0,45.0,95.0,774240,403.25
7681,2.0,,,,,39.0,,,,,0,note_on,,95.0,39.0,95.0,774240,403.25
7682,2.0,,,,,39.0,,,,,240,note_off,,95.0,39.0,95.0,774480,403.375
7683,2.0,,,,,39.0,,,,,0,note_on,,95.0,39.0,95.0,774480,403.375
7684,2.0,,,,,39.0,,,,,240,note_off,,95.0,39.0,95.0,774720,403.5
7685,2.0,,,,,39.0,,,,,0,note_on,,95.0,39.0,95.0,774720,403.5
7686,2.0,,,,,39.0,,,,,240,note_off,,95.0,39.0,95.0,774960,403.625
7687,2.0,,,,,39.0,,,,,0,note_on,,95.0,39.0,95.0,774960,403.625
7688,2.0,,,,,39.0,,,,,240,note_off,,95.0,39.0,95.0,775200,403.75
7689,2.0,,,,,39.0,,,,,0,note_on,,95.0,39.0,95.0,775200,403.75
7690,2.0,,,,,39.0,,,,,240,note_off,,95.0,39.0,95.0,775440,403.875
7691,2.0,,,,,39.0,,,,,0,note_on,,95.0,39.0,95.0,775440,403.875
7692,2.0,,,,,39.0,,,,,240,note_off,,95.0,39.0,95.0,775680,404.0
7693,2.0,,,,,39.0,,,,,0,note_on,,95.0,39.0,95.0,775680,404.0
7694,2.0,,,,,39.0,,,,,240,note_off,,95.0,39.0,95.0,775920,404.125
7695,2.0,,,,,39.0,,,,,0,note_on,,95.0,39.0,95.0,775920,404.125
7696,2.0,,,,,39.0,,,,,240,note_off,,95.0,39.0,95.0,776160,404.25
7697,2.0,,,,,39.0,,,,,0,note_on,,95.0,39.0,95.0,776160,404.25
7698,2.0,,,,,39.0,,,,,240,note_off,,95.0,39.0,95.0,776400,404.375
7699,2.0,,,,,39.0,,,,,0,note_on,,95.0,39.0,95.0,776400,404.375
7700,2.0,,,,,39.0,,,,,240,note_off,,95.0,39.0,95.0,776640,404.5
7701,2.0,,,,,46.0,,,,,0,note_on,,95.0,46.0,95.0,776640,404.5
7702,2.0,,,,,39.0,,,,,0,note_on,,95.0,39.0,95.0,776640,404.5
7703,2.0,,,,,46.0,,,,,480,note_off,,95.0,46.0,95.0,777120,404.75
7704,2.0,,,,,39.0,,,,,0,note_off,,95.0,39.0,95.0,777120,404.75
7705,2.0,,,,,39.0,,,,,0,note_on,,95.0,39.0,95.0,777120,404.75
7706,2.0,,,,,39.0,,,,,240,note_off,,95.0,39.0,95.0,777360,404.875
7707,2.0,,,,,39.0,,,,,0,note_on,,95.0,39.0,95.0,777360,404.875
7708,2.0,,,,,39.0,,,,,240,note_off,,95.0,39.0,95.0,777600,405.0
7709,2.0,,,,,47.0,,,,,0,note_on,,95.0,47.0,95.0,777600,405.0
7710,2.0,,,,,40.0,,,,,0,note_on,,95.0,40.0,95.0,777600,405.0
7711,2.0,,,,,47.0,,,,,480,note_off,,95.0,47.0,95.0,778080,405.25
7712,2.0,,,,,40.0,,,,,0,note_off,,95.0,40.0,95.0,778080,405.25
7713,2.0,,,,,48.0,,,,,0,note_on,,95.0,48.0,95.0,778080,405.25
7714,2.0,,,,,41.0,,,,,0,note_on,,95.0,41.0,95.0,778080,405.25
7715,2.0,,,,,48.0,,,,,2880,note_off,,95.0,48.0,95.0,780960,406.75
7716,2.0,,,,,41.0,,,,,0,note_off,,95.0,41.0,95.0,780960,406.75
7717,2.0,,,,,49.0,,,,,0,note_on,,95.0,49.0,95.0,780960,406.75
7718,2.0,,,,,42.0,,,,,0,note_on,,95.0,42.0,95.0,780960,406.75
7719,2.0,,,,,49.0,,,,,960,note_off,,95.0,49.0,95.0,781920,407.25
7720,2.0,,,,,42.0,,,,,0,note_off,,95.0,42.0,95.0,781920,407.25
7721,2.0,,,,,39.0,,,,,0,note_on,,95.0,39.0,95.0,781920,407.25
7722,2.0,,,,,39.0,,,,,240,note_off,,95.0,39.0,95.0,782160,407.375
7723,2.0,,,,,39.0,,,,,0,note_on,,95.0,39.0,95.0,782160,407.375
7724,2.0,,,,,39.0,,,,,240,note_off,,95.0,39.0,95.0,782400,407.5
7725,2.0,,,,,39.0,,,,,0,note_on,,95.0,39.0,95.0,782400,407.5
7726,2.0,,,,,39.0,,,,,240,note_off,,95.0,39.0,95.0,782640,407.625
7727,2.0,,,,,39.0,,,,,0,note_on,,95.0,39.0,95.0,782640,407.625
7728,2.0,,,,,39.0,,,,,240,note_off,,95.0,39.0,95.0,782880,407.75
7729,2.0,,,,,39.0,,,,,0,note_on,,95.0,39.0,95.0,782880,407.75
7730,2.0,,,,,39.0,,,,,240,note_off,,95.0,39.0,95.0,783120,407.875
7731,2.0,,,,,39.0,,,,,0,note_on,,95.0,39.0,95.0,783120,407.875
7732,2.0,,,,,39.0,,,,,240,note_off,,95.0,39.0,95.0,783360,408.0
7733,2.0,,,,,39.0,,,,,0,note_on,,95.0,39.0,95.0,783360,408.0
7734,2.0,,,,,39.0,,,,,240,note_off,,95.0,39.0,95.0,783600,408.125
7735,2.0,,,,,39.0,,,,,0,note_on,,95.0,39.0,95.0,783600,408.125
7736,2.0,,,,,39.0,,,,,240,note_off,,95.0,39.0,95.0,783840,408.25
7737,2.0,,,,,39.0,,,,,0,note_on,,95.0,39.0,95.0,783840,408.25
7738,2.0,,,,,39.0,,,,,240,note_off,,95.0,39.0,95.0,784080,408.375
7739,2.0,,,,,39.0,,,,,0,note_on,,95.0,39.0,95.0,784080,408.375
7740,2.0,,,,,39.0,,,,,240,note_off,,95.0,39.0,95.0,784320,408.5
7741,2.0,,,,,49.0,,,,,0,note_on,,95.0,49.0,95.0,784320,408.5
7742,2.0,,,,,42.0,,,,,0,note_on,,95.0,42.0,95.0,784320,408.5
7743,2.0,,,,,49.0,,,,,480,note_off,,95.0,49.0,95.0,784800,408.75
7744,2.0,,,,,42.0,,,,,0,note_off,,95.0,42.0,95.0,784800,408.75
7745,2.0,,,,,39.0,,,,,0,note_on,,95.0,39.0,95.0,784800,408.75
7746,2.0,,,,,39.0,,,,,240,note_off,,95.0,39.0,95.0,785040,408.875
7747,2.0,,,,,39.0,,,,,0,note_on,,95.0,39.0,95.0,785040,408.875
7748,2.0,,,,,39.0,,,,,240,note_off,,95.0,39.0,95.0,785280,409.0
7749,2.0,,,,,49.0,,,,,0,note_on,,95.0,49.0,95.0,785280,409.0
7750,2.0,,,,,42.0,,,,,0,note_on,,95.0,42.0,95.0,785280,409.0
7751,2.0,,,,,49.0,,,,,480,note_off,,95.0,49.0,95.0,785760,409.25
7752,2.0,,,,,42.0,,,,,0,note_off,,95.0,42.0,95.0,785760,409.25
7753,2.0,,,,,48.0,,,,,0,note_on,,95.0,48.0,95.0,785760,409.25
7754,2.0,,,,,41.0,,,,,0,note_on,,95.0,41.0,95.0,785760,409.25
7755,2.0,,,,,48.0,,,,,1920,note_off,,95.0,48.0,95.0,787680,410.25
7756,2.0,,,,,41.0,,,,,0,note_off,,95.0,41.0,95.0,787680,410.25
7757,2.0,,,,,51.0,,,,,0,note_on,,95.0,51.0,95.0,787680,410.25
7758,2.0,,,,,44.0,,,,,0,note_on,,95.0,44.0,95.0,787680,410.25
7759,2.0,,,,,51.0,,,,,960,note_off,,95.0,51.0,95.0,788640,410.75
7760,2.0,,,,,44.0,,,,,0,note_off,,95.0,44.0,95.0,788640,410.75
7761,2.0,,,,,50.0,,,,,0,note_on,,95.0,50.0,95.0,788640,410.75
7762,2.0,,,,,43.0,,,,,0,note_on,,95.0,43.0,95.0,788640,410.75
7763,2.0,,,,,50.0,,,,,480,note_off,,95.0,50.0,95.0,789120,411.0
7764,2.0,,,,,43.0,,,,,0,note_off,,95.0,43.0,95.0,789120,411.0
7765,2.0,,,,,49.0,,,,,0,note_on,,95.0,49.0,95.0,789120,411.0
7766,2.0,,,,,42.0,,,,,0,note_on,,95.0,42.0,95.0,789120,411.0
7767,2.0,,,,,49.0,,,,,480,note_off,,95.0,49.0,95.0,789600,411.25
7768,2.0,,,,,42.0,,,,,0,note_off,,95.0,42.0,95.0,789600,411.25
7769,2.0,,,,,39.0,,,,,0,note_on,,95.0,39.0,95.0,789600,411.25
7770,2.0,,,,,39.0,,,,,240,note_off,,95.0,39.0,95.0,789840,411.375
7771,2.0,,,,,39.0,,,,,0,note_on,,95.0,39.0,95.0,789840,411.375
7772,2.0,,,,,39.0,,,,,240,note_off,,95.0,39.0,95.0,790080,411.5
7773,2.0,,,,,39.0,,,,,240,note_on,,95.0,39.0,95.0,790320,411.625
7774,3.0,,,,,49.0,,,,,180,note_on,,95.0,49.0,95.0,790500,411.71875
7775,2.0,,,,,39.0,,,,,60,note_off,,95.0,39.0,95.0,790560,411.75
7776,3.0,,,,,49.0,,,,,0,note_off,,95.0,49.0,95.0,790560,411.75
7777,3.0,,,,,51.0,,,,,0,note_on,,95.0,51.0,95.0,790560,411.75
7778,2.0,,,,,39.0,,,,,0,note_on,,95.0,39.0,95.0,790560,411.75
7779,3.0,,,,,51.0,,,,,480,note_off,,95.0,51.0,95.0,791040,412.0
7780,2.0,,,,,39.0,,,,,0,note_off,,95.0,39.0,95.0,791040,412.0
7781,2.0,,,,,39.0,,,,,0,note_on,,95.0,39.0,95.0,791040,412.0
7782,2.0,,,,,39.0,,,,,240,note_off,,95.0,39.0,95.0,791280,412.125
7783,2.0,,,,,39.0,,,,,0,note_on,,95.0,39.0,95.0,791280,412.125
7784,2.0,,,,,39.0,,,,,240,note_off,,95.0,39.0,95.0,791520,412.25
7785,2.0,,,,,39.0,,,,,240,note_on,,95.0,39.0,95.0,791760,412.375
7786,2.0,,,,,39.0,,,,,240,note_off,,95.0,39.0,95.0,792000,412.5
7787,2.0,,,,,59.0,,,,,0,note_on,,95.0,59.0,95.0,792000,412.5
7788,2.0,,,,,52.0,,,,,0,note_on,,95.0,52.0,95.0,792000,412.5
7789,2.0,,,,,59.0,,,,,480,note_off,,95.0,59.0,95.0,792480,412.75
7790,2.0,,,,,52.0,,,,,0,note_off,,95.0,52.0,95.0,792480,412.75
7791,2.0,,,,,39.0,,,,,0,note_on,,95.0,39.0,95.0,792480,412.75
7792,2.0,,,,,39.0,,,,,240,note_off,,95.0,39.0,95.0,792720,412.875
7793,2.0,,,,,39.0,,,,,0,note_on,,95.0,39.0,95.0,792720,412.875
7794,2.0,,,,,39.0,,,,,240,note_off,,95.0,39.0,95.0,792960,413.0
7795,2.0,,,,,57.0,,,,,0,note_on,,95.0,57.0,95.0,792960,413.0
7796,2.0,,,,,50.0,,,,,0,note_on,,95.0,50.0,95.0,792960,413.0
7797,2.0,,,,,57.0,,,,,480,note_off,,95.0,57.0,95.0,793440,413.25
7798,2.0,,,,,50.0,,,,,0,note_off,,95.0,50.0,95.0,793440,413.25
7799,2.0,,,,,39.0,,,,,0,note_on,,95.0,39.0,95.0,793440,413.25
7800,2.0,,,,,39.0,,,,,240,note_off,,95.0,39.0,95.0,793680,413.375
7801,2.0,,,,,39.0,,,,,0,note_on,,95.0,39.0,95.0,793680,413.375
7802,2.0,,,,,39.0,,,,,240,note_off,,95.0,39.0,95.0,793920,413.5
7803,2.0,,,,,39.0,,,,,240,note_on,,95.0,39.0,95.0,794160,413.625
7804,3.0,,,,,49.0,,,,,180,note_on,,95.0,49.0,95.0,794340,413.71875
7805,2.0,,,,,39.0,,,,,60,note_off,,95.0,39.0,95.0,794400,413.75
7806,3.0,,,,,49.0,,,,,0,note_off,,95.0,49.0,95.0,794400,413.75
7807,3.0,,,,,51.0,,,,,0,note_on,,95.0,51.0,95.0,794400,413.75
7808,2.0,,,,,39.0,,,,,0,note_on,,95.0,39.0,95.0,794400,413.75
7809,3.0,,,,,51.0,,,,,480,note_off,,95.0,51.0,95.0,794880,414.0
7810,2.0,,,,,39.0,,,,,0,note_off,,95.0,39.0,95.0,794880,414.0
7811,2.0,,,,,39.0,,,,,0,note_on,,95.0,39.0,95.0,794880,414.0
7812,2.0,,,,,39.0,,,,,240,note_off,,95.0,39.0,95.0,795120,414.125
7813,2.0,,,,,39.0,,,,,0,note_on,,95.0,39.0,95.0,795120,414.125
7814,2.0,,,,,39.0,,,,,240,note_off,,95.0,39.0,95.0,795360,414.25
7815,2.0,,,,,39.0,,,,,240,note_on,,95.0,39.0,95.0,795600,414.375
7816,2.0,,,,,39.0,,,,,240,note_off,,95.0,39.0,95.0,795840,414.5
7817,2.0,,,,,61.0,,,,,0,note_on,,95.0,61.0,95.0,795840,414.5
7818,2.0,,,,,54.0,,,,,0,note_on,,95.0,54.0,95.0,795840,414.5
7819,2.0,,,,,61.0,,,,,480,note_off,,95.0,61.0,95.0,796320,414.75
7820,2.0,,,,,54.0,,,,,0,note_off,,95.0,54.0,95.0,796320,414.75
7821,2.0,,,,,39.0,,,,,0,note_on,,95.0,39.0,95.0,796320,414.75
7822,2.0,,,,,39.0,,,,,240,note_off,,95.0,39.0,95.0,796560,414.875
7823,2.0,,,,,39.0,,,,,0,note_on,,95.0,39.0,95.0,796560,414.875
7824,2.0,,,,,39.0,,,,,240,note_off,,95.0,39.0,95.0,796800,415.0
7825,2.0,,,,,60.0,,,,,0,note_on,,95.0,60.0,95.0,796800,415.0
7826,2.0,,,,,53.0,,,,,0,note_on,,95.0,53.0,95.0,796800,415.0
7827,2.0,,,,,60.0,,,,,480,note_off,,95.0,60.0,95.0,797280,415.25
7828,2.0,,,,,53.0,,,,,0,note_off,,95.0,53.0,95.0,797280,415.25
7829,2.0,,,,,39.0,,,,,0,note_on,,95.0,39.0,95.0,797280,415.25
7830,2.0,,,,,39.0,,,,,240,note_off,,95.0,39.0,95.0,797520,415.375
7831,2.0,,,,,39.0,,,,,0,note_on,,95.0,39.0,95.0,797520,415.375
7832,2.0,,,,,39.0,,,,,240,note_off,,95.0,39.0,95.0,797760,415.5
7833,2.0,,,,,39.0,,,,,240,note_on,,95.0,39.0,95.0,798000,415.625
7834,3.0,,,,,49.0,,,,,180,note_on,,95.0,49.0,95.0,798180,415.71875
7835,2.0,,,,,39.0,,,,,60,note_off,,95.0,39.0,95.0,798240,415.75
7836,3.0,,,,,49.0,,,,,0,note_off,,95.0,49.0,95.0,798240,415.75
7837,3.0,,,,,51.0,,,,,0,note_on,,95.0,51.0,95.0,798240,415.75
7838,2.0,,,,,39.0,,,,,0,note_on,,95.0,39.0,95.0,798240,415.75
7839,3.0,,,,,51.0,,,,,480,note_off,,95.0,51.0,95.0,798720,416.0
7840,2.0,,,,,39.0,,,,,0,note_off,,95.0,39.0,95.0,798720,416.0
7841,2.0,,,,,39.0,,,,,0,note_on,,95.0,39.0,95.0,798720,416.0
7842,2.0,,,,,39.0,,,,,240,note_off,,95.0,39.0,95.0,798960,416.125
7843,2.0,,,,,39.0,,,,,0,note_on,,95.0,39.0,95.0,798960,416.125
7844,2.0,,,,,39.0,,,,,240,note_off,,95.0,39.0,95.0,799200,416.25
7845,2.0,,,,,39.0,,,,,240,note_on,,95.0,39.0,95.0,799440,416.375
7846,2.0,,,,,39.0,,,,,240,note_off,,95.0,39.0,95.0,799680,416.5
7847,2.0,,,,,59.0,,,,,0,note_on,,95.0,59.0,95.0,799680,416.5
7848,2.0,,,,,52.0,,,,,0,note_on,,95.0,52.0,95.0,799680,416.5
7849,2.0,,,,,59.0,,,,,480,note_off,,95.0,59.0,95.0,800160,416.75
7850,2.0,,,,,52.0,,,,,0,note_off,,95.0,52.0,95.0,800160,416.75
7851,2.0,,,,,39.0,,,,,0,note_on,,95.0,39.0,95.0,800160,416.75
7852,2.0,,,,,39.0,,,,,240,note_off,,95.0,39.0,95.0,800400,416.875
7853,2.0,,,,,39.0,,,,,0,note_on,,95.0,39.0,95.0,800400,416.875
7854,2.0,,,,,39.0,,,,,240,note_off,,95.0,39.0,95.0,800640,417.0
7855,2.0,,,,,57.0,,,,,0,note_on,,95.0,57.0,95.0,800640,417.0
7856,2.0,,,,,50.0,,,,,0,note_on,,95.0,50.0,95.0,800640,417.0
7857,2.0,,,,,57.0,,,,,480,note_off,,95.0,57.0,95.0,801120,417.25
7858,2.0,,,,,50.0,,,,,0,note_off,,95.0,50.0,95.0,801120,417.25
7859,2.0,,,,,39.0,,,,,0,note_on,,95.0,39.0,95.0,801120,417.25
7860,2.0,,,,,39.0,,,,,240,note_off,,95.0,39.0,95.0,801360,417.375
7861,2.0,,,,,39.0,,,,,0,note_on,,95.0,39.0,95.0,801360,417.375
7862,2.0,,,,,39.0,,,,,240,note_off,,95.0,39.0,95.0,801600,417.5
7863,2.0,,,,,39.0,,,,,240,note_on,,95.0,39.0,95.0,801840,417.625
7864,3.0,,,,,49.0,,,,,180,note_on,,95.0,49.0,95.0,802020,417.71875
7865,2.0,,,,,39.0,,,,,60,note_off,,95.0,39.0,95.0,802080,417.75
7866,3.0,,,,,49.0,,,,,0,note_off,,95.0,49.0,95.0,802080,417.75
7867,3.0,,,,,51.0,,,,,0,note_on,,95.0,51.0,95.0,802080,417.75
7868,2.0,,,,,39.0,,,,,0,note_on,,95.0,39.0,95.0,802080,417.75
7869,3.0,,,,,51.0,,,,,480,note_off,,95.0,51.0,95.0,802560,418.0
7870,2.0,,,,,39.0,,,,,0,note_off,,95.0,39.0,95.0,802560,418.0
7871,2.0,,,,,39.0,,,,,0,note_on,,95.0,39.0,95.0,802560,418.0
7872,2.0,,,,,39.0,,,,,240,note_off,,95.0,39.0,95.0,802800,418.125
7873,2.0,,,,,39.0,,,,,0,note_on,,95.0,39.0,95.0,802800,418.125
7874,2.0,,,,,39.0,,,,,240,note_off,,95.0,39.0,95.0,803040,418.25
7875,2.0,,,,,39.0,,,,,240,note_on,,95.0,39.0,95.0,803280,418.375
7876,2.0,,,,,39.0,,,,,240,note_off,,95.0,39.0,95.0,803520,418.5
7877,2.0,,,,,49.0,,,,,0,note_on,,95.0,49.0,95.0,803520,418.5
7878,2.0,,,,,42.0,,,,,0,note_on,,95.0,42.0,95.0,803520,418.5
7879,2.0,,,,,49.0,,,,,480,note_off,,95.0,49.0,95.0,804000,418.75
7880,2.0,,,,,42.0,,,,,0,note_off,,95.0,42.0,95.0,804000,418.75
7881,2.0,,,,,39.0,,,,,0,note_on,,95.0,39.0,95.0,804000,418.75
7882,2.0,,,,,39.0,,,,,240,note_off,,95.0,39.0,95.0,804240,418.875
7883,2.0,,,,,39.0,,,,,0,note_on,,95.0,39.0,95.0,804240,418.875
7884,2.0,,,,,39.0,,,,,240,note_off,,95.0,39.0,95.0,804480,419.0
7885,2.0,,,,,47.0,,,,,0,note_on,,95.0,47.0,95.0,804480,419.0
7886,2.0,,,,,40.0,,,,,0,note_on,,95.0,40.0,95.0,804480,419.0
7887,2.0,,,,,47.0,,,,,480,note_off,,95.0,47.0,95.0,804960,419.25
7888,2.0,,,,,40.0,,,,,0,note_off,,95.0,40.0,95.0,804960,419.25
7889,2.0,,,,,48.0,,,,,0,note_on,,95.0,48.0,95.0,804960,419.25
7890,2.0,,,,,41.0,,,,,0,note_on,,95.0,41.0,95.0,804960,419.25
7891,2.0,,,,,48.0,,,,,2880,note_off,,95.0,48.0,95.0,807840,420.75
7892,2.0,,,,,41.0,,,,,0,note_off,,95.0,41.0,95.0,807840,420.75
7893,2.0,,,,,49.0,,,,,0,note_on,,95.0,49.0,95.0,807840,420.75
7894,2.0,,,,,42.0,,,,,0,note_on,,95.0,42.0,95.0,807840,420.75
7895,2.0,,,,,49.0,,,,,960,note_off,,95.0,49.0,95.0,808800,421.25
7896,2.0,,,,,42.0,,,,,0,note_off,,95.0,42.0,95.0,808800,421.25
7897,2.0,,,,,39.0,,,,,0,note_on,,95.0,39.0,95.0,808800,421.25
7898,2.0,,,,,39.0,,,,,240,note_off,,95.0,39.0,95.0,809040,421.375
7899,2.0,,,,,39.0,,,,,0,note_on,,95.0,39.0,95.0,809040,421.375
7900,2.0,,,,,39.0,,,,,240,note_off,,95.0,39.0,95.0,809280,421.5
7901,2.0,,,,,39.0,,,,,0,note_on,,95.0,39.0,95.0,809280,421.5
7902,2.0,,,,,39.0,,,,,240,note_off,,95.0,39.0,95.0,809520,421.625
7903,2.0,,,,,39.0,,,,,0,note_on,,95.0,39.0,95.0,809520,421.625
7904,2.0,,,,,39.0,,,,,240,note_off,,95.0,39.0,95.0,809760,421.75
7905,2.0,,,,,39.0,,,,,0,note_on,,95.0,39.0,95.0,809760,421.75
7906,2.0,,,,,39.0,,,,,240,note_off,,95.0,39.0,95.0,810000,421.875
7907,2.0,,,,,39.0,,,,,0,note_on,,95.0,39.0,95.0,810000,421.875
7908,2.0,,,,,39.0,,,,,240,note_off,,95.0,39.0,95.0,810240,422.0
7909,2.0,,,,,39.0,,,,,0,note_on,,95.0,39.0,95.0,810240,422.0
7910,2.0,,,,,39.0,,,,,240,note_off,,95.0,39.0,95.0,810480,422.125
7911,2.0,,,,,39.0,,,,,0,note_on,,95.0,39.0,95.0,810480,422.125
7912,2.0,,,,,39.0,,,,,240,note_off,,95.0,39.0,95.0,810720,422.25
7913,2.0,,,,,39.0,,,,,0,note_on,,95.0,39.0,95.0,810720,422.25
7914,2.0,,,,,39.0,,,,,240,note_off,,95.0,39.0,95.0,810960,422.375
7915,2.0,,,,,39.0,,,,,0,note_on,,95.0,39.0,95.0,810960,422.375
7916,2.0,,,,,39.0,,,,,240,note_off,,95.0,39.0,95.0,811200,422.5
7917,2.0,,,,,49.0,,,,,0,note_on,,95.0,49.0,95.0,811200,422.5
7918,2.0,,,,,42.0,,,,,0,note_on,,95.0,42.0,95.0,811200,422.5
7919,2.0,,,,,49.0,,,,,480,note_off,,95.0,49.0,95.0,811680,422.75
7920,2.0,,,,,42.0,,,,,0,note_off,,95.0,42.0,95.0,811680,422.75
7921,2.0,,,,,39.0,,,,,0,note_on,,95.0,39.0,95.0,811680,422.75
7922,2.0,,,,,39.0,,,,,240,note_off,,95.0,39.0,95.0,811920,422.875
7923,2.0,,,,,39.0,,,,,0,note_on,,95.0,39.0,95.0,811920,422.875
7924,2.0,,,,,39.0,,,,,240,note_off,,95.0,39.0,95.0,812160,423.0
7925,2.0,,,,,49.0,,,,,0,note_on,,95.0,49.0,95.0,812160,423.0
7926,2.0,,,,,42.0,,,,,0,note_on,,95.0,42.0,95.0,812160,423.0
7927,2.0,,,,,49.0,,,,,480,note_off,,95.0,49.0,95.0,812640,423.25
7928,2.0,,,,,42.0,,,,,0,note_off,,95.0,42.0,95.0,812640,423.25
7929,2.0,,,,,48.0,,,,,0,note_on,,95.0,48.0,95.0,812640,423.25
7930,2.0,,,,,41.0,,,,,0,note_on,,95.0,41.0,95.0,812640,423.25
7931,2.0,,,,,48.0,,,,,2880,note_off,,95.0,48.0,95.0,815520,424.75
7932,2.0,,,,,41.0,,,,,0,note_off,,95.0,41.0,95.0,815520,424.75
7933,2.0,,,,,52.0,,,,,0,note_on,,95.0,52.0,95.0,815520,424.75
7934,2.0,,,,,45.0,,,,,0,note_on,,95.0,45.0,95.0,815520,424.75
7935,2.0,,,,,52.0,,,,,960,note_off,,95.0,52.0,95.0,816480,425.25
7936,2.0,,,,,45.0,,,,,0,note_off,,95.0,45.0,95.0,816480,425.25
7937,2.0,,,,,39.0,,,,,0,note_on,,95.0,39.0,95.0,816480,425.25
7938,2.0,,,,,39.0,,,,,240,note_off,,95.0,39.0,95.0,816720,425.375
7939,2.0,,,,,39.0,,,,,0,note_on,,95.0,39.0,95.0,816720,425.375
7940,2.0,,,,,39.0,,,,,240,note_off,,95.0,39.0,95.0,816960,425.5
7941,2.0,,,,,39.0,,,,,0,note_on,,95.0,39.0,95.0,816960,425.5
7942,2.0,,,,,39.0,,,,,240,note_off,,95.0,39.0,95.0,817200,425.625
7943,2.0,,,,,39.0,,,,,0,note_on,,95.0,39.0,95.0,817200,425.625
7944,2.0,,,,,39.0,,,,,240,note_off,,95.0,39.0,95.0,817440,425.75
7945,2.0,,,,,39.0,,,,,0,note_on,,95.0,39.0,95.0,817440,425.75
7946,2.0,,,,,39.0,,,,,240,note_off,,95.0,39.0,95.0,817680,425.875
7947,2.0,,,,,39.0,,,,,0,note_on,,95.0,39.0,95.0,817680,425.875
7948,2.0,,,,,39.0,,,,,240,note_off,,95.0,39.0,95.0,817920,426.0
7949,2.0,,,,,39.0,,,,,0,note_on,,95.0,39.0,95.0,817920,426.0
7950,2.0,,,,,39.0,,,,,240,note_off,,95.0,39.0,95.0,818160,426.125
7951,2.0,,,,,39.0,,,,,0,note_on,,95.0,39.0,95.0,818160,426.125
7952,2.0,,,,,39.0,,,,,240,note_off,,95.0,39.0,95.0,818400,426.25
7953,2.0,,,,,39.0,,,,,0,note_on,,95.0,39.0,95.0,818400,426.25
7954,2.0,,,,,39.0,,,,,240,note_off,,95.0,39.0,95.0,818640,426.375
7955,2.0,,,,,39.0,,,,,0,note_on,,95.0,39.0,95.0,818640,426.375
7956,2.0,,,,,39.0,,,,,240,note_off,,95.0,39.0,95.0,818880,426.5
7957,2.0,,,,,46.0,,,,,0,note_on,,95.0,46.0,95.0,818880,426.5
7958,2.0,,,,,39.0,,,,,0,note_on,,95.0,39.0,95.0,818880,426.5
7959,2.0,,,,,46.0,,,,,480,note_off,,95.0,46.0,95.0,819360,426.75
7960,2.0,,,,,39.0,,,,,0,note_off,,95.0,39.0,95.0,819360,426.75
7961,2.0,,,,,39.0,,,,,0,note_on,,95.0,39.0,95.0,819360,426.75
7962,2.0,,,,,39.0,,,,,240,note_off,,95.0,39.0,95.0,819600,426.875
7963,2.0,,,,,39.0,,,,,0,note_on,,95.0,39.0,95.0,819600,426.875
7964,2.0,,,,,39.0,,,,,240,note_off,,95.0,39.0,95.0,819840,427.0
7965,2.0,,,,,47.0,,,,,0,note_on,,95.0,47.0,95.0,819840,427.0
7966,2.0,,,,,40.0,,,,,0,note_on,,95.0,40.0,95.0,819840,427.0
7967,2.0,,,,,47.0,,,,,480,note_off,,95.0,47.0,95.0,820320,427.25
7968,2.0,,,,,40.0,,,,,0,note_off,,95.0,40.0,95.0,820320,427.25
7969,2.0,,,,,48.0,,,,,0,note_on,,95.0,48.0,95.0,820320,427.25
7970,2.0,,,,,41.0,,,,,0,note_on,,95.0,41.0,95.0,820320,427.25
7971,2.0,,,,,48.0,,,,,2880,note_off,,95.0,48.0,95.0,823200,428.75
7972,2.0,,,,,41.0,,,,,0,note_off,,95.0,41.0,95.0,823200,428.75
7973,2.0,,,,,49.0,,,,,0,note_on,,95.0,49.0,95.0,823200,428.75
7974,2.0,,,,,42.0,,,,,0,note_on,,95.0,42.0,95.0,823200,428.75
7975,2.0,,,,,49.0,,,,,960,note_off,,95.0,49.0,95.0,824160,429.25
7976,2.0,,,,,42.0,,,,,0,note_off,,95.0,42.0,95.0,824160,429.25
7977,2.0,,,,,39.0,,,,,0,note_on,,95.0,39.0,95.0,824160,429.25
7978,2.0,,,,,39.0,,,,,240,note_off,,95.0,39.0,95.0,824400,429.375
7979,2.0,,,,,39.0,,,,,0,note_on,,95.0,39.0,95.0,824400,429.375
7980,2.0,,,,,39.0,,,,,240,note_off,,95.0,39.0,95.0,824640,429.5
7981,2.0,,,,,39.0,,,,,0,note_on,,95.0,39.0,95.0,824640,429.5
7982,2.0,,,,,39.0,,,,,240,note_off,,95.0,39.0,95.0,824880,429.625
7983,2.0,,,,,39.0,,,,,0,note_on,,95.0,39.0,95.0,824880,429.625
7984,2.0,,,,,39.0,,,,,240,note_off,,95.0,39.0,95.0,825120,429.75
7985,2.0,,,,,39.0,,,,,0,note_on,,95.0,39.0,95.0,825120,429.75
7986,2.0,,,,,39.0,,,,,240,note_off,,95.0,39.0,95.0,825360,429.875
7987,2.0,,,,,39.0,,,,,0,note_on,,95.0,39.0,95.0,825360,429.875
7988,2.0,,,,,39.0,,,,,240,note_off,,95.0,39.0,95.0,825600,430.0
7989,2.0,,,,,39.0,,,,,0,note_on,,95.0,39.0,95.0,825600,430.0
7990,2.0,,,,,39.0,,,,,240,note_off,,95.0,39.0,95.0,825840,430.125
7991,2.0,,,,,39.0,,,,,0,note_on,,95.0,39.0,95.0,825840,430.125
7992,2.0,,,,,39.0,,,,,240,note_off,,95.0,39.0,95.0,826080,430.25
7993,2.0,,,,,39.0,,,,,0,note_on,,95.0,39.0,95.0,826080,430.25
7994,2.0,,,,,39.0,,,,,240,note_off,,95.0,39.0,95.0,826320,430.375
7995,2.0,,,,,39.0,,,,,0,note_on,,95.0,39.0,95.0,826320,430.375
7996,2.0,,,,,39.0,,,,,240,note_off,,95.0,39.0,95.0,826560,430.5
7997,2.0,,,,,49.0,,,,,0,note_on,,95.0,49.0,95.0,826560,430.5
7998,2.0,,,,,42.0,,,,,0,note_on,,95.0,42.0,95.0,826560,430.5
7999,2.0,,,,,49.0,,,,,480,note_off,,95.0,49.0,95.0,827040,430.75
8000,2.0,,,,,42.0,,,,,0,note_off,,95.0,42.0,95.0,827040,430.75
8001,2.0,,,,,39.0,,,,,0,note_on,,95.0,39.0,95.0,827040,430.75
8002,2.0,,,,,39.0,,,,,240,note_off,,95.0,39.0,95.0,827280,430.875
8003,2.0,,,,,39.0,,,,,0,note_on,,95.0,39.0,95.0,827280,430.875
8004,2.0,,,,,39.0,,,,,240,note_off,,95.0,39.0,95.0,827520,431.0
8005,2.0,,,,,49.0,,,,,0,note_on,,95.0,49.0,95.0,827520,431.0
8006,2.0,,,,,42.0,,,,,0,note_on,,95.0,42.0,95.0,827520,431.0
8007,2.0,,,,,49.0,,,,,480,note_off,,95.0,49.0,95.0,828000,431.25
8008,2.0,,,,,42.0,,,,,0,note_off,,95.0,42.0,95.0,828000,431.25
8009,2.0,,,,,48.0,,,,,0,note_on,,95.0,48.0,95.0,828000,431.25
8010,2.0,,,,,41.0,,,,,0,note_on,,95.0,41.0,95.0,828000,431.25
8011,2.0,,,,,48.0,,,,,480,note_off,,95.0,48.0,95.0,828480,431.5
8012,2.0,,,,,41.0,,,,,0,note_off,,95.0,41.0,95.0,828480,431.5
8013,2.0,,,,,49.0,,,,,2400,note_on,,95.0,49.0,95.0,830880,432.75
8014,2.0,,,,,42.0,,,,,0,note_on,,95.0,42.0,95.0,830880,432.75
8015,2.0,,,,,49.0,,,,,240,note_off,,95.0,49.0,95.0,831120,432.875
8016,2.0,,,,,42.0,,,,,0,note_off,,95.0,42.0,95.0,831120,432.875
8017,2.0,,,,,51.0,,,,,0,note_on,,95.0,51.0,95.0,831120,432.875
8018,2.0,,,,,44.0,,,,,0,note_on,,95.0,44.0,95.0,831120,432.875
8019,2.0,,,,,51.0,,,,,720,note_off,,95.0,51.0,95.0,831840,433.25
8020,2.0,,,,,44.0,,,,,0,note_off,,95.0,44.0,95.0,831840,433.25
8021,2.0,,,,,39.0,,,,,0,note_on,,95.0,39.0,95.0,831840,433.25
8022,2.0,,,,,39.0,,,,,240,note_off,,95.0,39.0,95.0,832080,433.375
8023,2.0,,,,,39.0,,,,,240,note_on,,95.0,39.0,95.0,832320,433.5
8024,2.0,,,,,39.0,,,,,240,note_off,,95.0,39.0,95.0,832560,433.625
8025,2.0,,,,,39.0,,,,,0,note_on,,95.0,39.0,95.0,832560,433.625
8026,2.0,,,,,39.0,,,,,240,note_off,,95.0,39.0,95.0,832800,433.75
8027,2.0,,,,,51.0,,,,,0,note_on,,95.0,51.0,95.0,832800,433.75
8028,2.0,,,,,51.0,,,,,240,note_off,,95.0,51.0,95.0,833040,433.875
8029,2.0,,,,,52.0,,,,,0,note_on,,95.0,52.0,95.0,833040,433.875
8030,2.0,,,,,52.0,,,,,720,note_off,,95.0,52.0,95.0,833760,434.25
8031,2.0,,,,,39.0,,,,,0,note_on,,95.0,39.0,95.0,833760,434.25
8032,2.0,,,,,39.0,,,,,240,note_off,,95.0,39.0,95.0,834000,434.375
8033,2.0,,,,,39.0,,,,,240,note_on,,95.0,39.0,95.0,834240,434.5
8034,2.0,,,,,39.0,,,,,240,note_off,,95.0,39.0,95.0,834480,434.625
8035,2.0,,,,,39.0,,,,,0,note_on,,95.0,39.0,95.0,834480,434.625
8036,2.0,,,,,39.0,,,,,240,note_off,,95.0,39.0,95.0,834720,434.75
8037,2.0,,,,,51.0,,,,,0,note_on,,95.0,51.0,95.0,834720,434.75
8038,2.0,,,,,51.0,,,,,240,note_off,,95.0,51.0,95.0,834960,434.875
8039,2.0,,,,,52.0,,,,,0,note_on,,95.0,52.0,95.0,834960,434.875
8040,2.0,,,,,52.0,,,,,240,note_off,,95.0,52.0,95.0,835200,435.0
8041,2.0,,,,,54.0,,,,,0,note_on,,95.0,54.0,95.0,835200,435.0
8042,2.0,,,,,54.0,,,,,480,note_off,,95.0,54.0,95.0,835680,435.25
8043,2.0,,,,,39.0,,,,,0,note_on,,95.0,39.0,95.0,835680,435.25
8044,2.0,,,,,39.0,,,,,240,note_off,,95.0,39.0,95.0,835920,435.375
8045,2.0,,,,,39.0,,,,,240,note_on,,95.0,39.0,95.0,836160,435.5
8046,2.0,,,,,39.0,,,,,240,note_off,,95.0,39.0,95.0,836400,435.625
8047,2.0,,,,,39.0,,,,,0,note_on,,95.0,39.0,95.0,836400,435.625
8048,2.0,,,,,39.0,,,,,240,note_off,,95.0,39.0,95.0,836640,435.75
8049,2.0,,,,,51.0,,,,,0,note_on,,95.0,51.0,95.0,836640,435.75
8050,2.0,,,,,51.0,,,,,240,note_off,,95.0,51.0,95.0,836880,435.875
8051,2.0,,,,,52.0,,,,,0,note_on,,95.0,52.0,95.0,836880,435.875
8052,2.0,,,,,52.0,,,,,240,note_off,,95.0,52.0,95.0,837120,436.0
8053,2.0,,,,,56.0,,,,,0,note_on,,95.0,56.0,95.0,837120,436.0
8054,2.0,,,,,56.0,,,,,480,note_off,,95.0,56.0,95.0,837600,436.25
8055,2.0,,,,,55.0,,,,,0,note_on,,95.0,55.0,95.0,837600,436.25
8056,2.0,,,,,55.0,,,,,240,note_off,,95.0,55.0,95.0,837840,436.375
8057,2.0,,,,,54.0,,,,,0,note_on,,95.0,54.0,95.0,837840,436.375
8058,2.0,,,,,54.0,,,,,240,note_off,,95.0,54.0,95.0,838080,436.5
8059,2.0,,,,,53.0,,,,,0,note_on,,95.0,53.0,95.0,838080,436.5
8060,2.0,,,,,53.0,,,,,240,note_off,,95.0,53.0,95.0,838320,436.625
8061,2.0,,,,,50.0,,,,,0,note_on,,95.0,50.0,95.0,838320,436.625
8062,2.0,,,,,50.0,,,,,240,note_off,,95.0,50.0,95.0,838560,436.75
8063,2.0,,,,,49.0,,,,,0,note_on,,95.0,49.0,95.0,838560,436.75
8064,2.0,,,,,49.0,,,,,240,note_off,,95.0,49.0,95.0,838800,436.875
8065,2.0,,,,,47.0,,,,,0,note_on,,95.0,47.0,95.0,838800,436.875
8066,2.0,,,,,47.0,,,,,240,note_off,,95.0,47.0,95.0,839040,437.0
8067,2.0,,,,,46.0,,,,,0,note_on,,95.0,46.0,95.0,839040,437.0
8068,2.0,,,,,46.0,,,,,240,note_off,,95.0,46.0,95.0,839280,437.125
8069,2.0,,,,,45.0,,,,,0,note_on,,95.0,45.0,95.0,839280,437.125
8070,2.0,,,,,45.0,,,,,240,note_off,,95.0,45.0,95.0,839520,437.25
8071,2.0,,,,,39.0,,,,,0,note_on,,95.0,39.0,95.0,839520,437.25
8072,2.0,,,,,39.0,,,,,240,note_off,,95.0,39.0,95.0,839760,437.375
8073,2.0,,,,,39.0,,,,,240,note_on,,95.0,39.0,95.0,840000,437.5
8074,2.0,,,,,39.0,,,,,240,note_off,,95.0,39.0,95.0,840240,437.625
8075,2.0,,,,,39.0,,,,,0,note_on,,95.0,39.0,95.0,840240,437.625
8076,2.0,,,,,39.0,,,,,240,note_off,,95.0,39.0,95.0,840480,437.75
8077,2.0,,,,,51.0,,,,,0,note_on,,95.0,51.0,95.0,840480,437.75
8078,2.0,,,,,51.0,,,,,240,note_off,,95.0,51.0,95.0,840720,437.875
8079,2.0,,,,,52.0,,,,,0,note_on,,95.0,52.0,95.0,840720,437.875
8080,2.0,,,,,52.0,,,,,720,note_off,,95.0,52.0,95.0,841440,438.25
8081,2.0,,,,,39.0,,,,,0,note_on,,95.0,39.0,95.0,841440,438.25
8082,2.0,,,,,39.0,,,,,240,note_off,,95.0,39.0,95.0,841680,438.375
8083,2.0,,,,,39.0,,,,,240,note_on,,95.0,39.0,95.0,841920,438.5
8084,2.0,,,,,39.0,,,,,240,note_off,,95.0,39.0,95.0,842160,438.625
8085,2.0,,,,,39.0,,,,,0,note_on,,95.0,39.0,95.0,842160,438.625
8086,2.0,,,,,39.0,,,,,240,note_off,,95.0,39.0,95.0,842400,438.75
8087,2.0,,,,,51.0,,,,,0,note_on,,95.0,51.0,95.0,842400,438.75
8088,2.0,,,,,51.0,,,,,240,note_off,,95.0,51.0,95.0,842640,438.875
8089,2.0,,,,,52.0,,,,,0,note_on,,95.0,52.0,95.0,842640,438.875
8090,2.0,,,,,52.0,,,,,240,note_off,,95.0,52.0,95.0,842880,439.0
8091,2.0,,,,,54.0,,,,,0,note_on,,95.0,54.0,95.0,842880,439.0
8092,2.0,,,,,54.0,,,,,480,note_off,,95.0,54.0,95.0,843360,439.25
8093,2.0,,,,,39.0,,,,,0,note_on,,95.0,39.0,95.0,843360,439.25
8094,2.0,,,,,39.0,,,,,240,note_off,,95.0,39.0,95.0,843600,439.375
8095,2.0,,,,,39.0,,,,,240,note_on,,95.0,39.0,95.0,843840,439.5
8096,2.0,,,,,39.0,,,,,240,note_off,,95.0,39.0,95.0,844080,439.625
8097,2.0,,,,,39.0,,,,,0,note_on,,95.0,39.0,95.0,844080,439.625
8098,2.0,,,,,39.0,,,,,240,note_off,,95.0,39.0,95.0,844320,439.75
8099,2.0,,,,,51.0,,,,,0,note_on,,95.0,51.0,95.0,844320,439.75
8100,2.0,,,,,51.0,,,,,240,note_off,,95.0,51.0,95.0,844560,439.875
8101,2.0,,,,,52.0,,,,,0,note_on,,95.0,52.0,95.0,844560,439.875
8102,2.0,,,,,52.0,,,,,240,note_off,,95.0,52.0,95.0,844800,440.0
8103,2.0,,,,,56.0,,,,,0,note_on,,95.0,56.0,95.0,844800,440.0
8104,2.0,,,,,56.0,,,,,480,note_off,,95.0,56.0,95.0,845280,440.25
8105,2.0,,,,,55.0,,,,,0,note_on,,95.0,55.0,95.0,845280,440.25
8106,2.0,,,,,55.0,,,,,240,note_off,,95.0,55.0,95.0,845520,440.375
8107,2.0,,,,,54.0,,,,,0,note_on,,95.0,54.0,95.0,845520,440.375
8108,2.0,,,,,54.0,,,,,240,note_off,,95.0,54.0,95.0,845760,440.5
8109,2.0,,,,,53.0,,,,,0,note_on,,95.0,53.0,95.0,845760,440.5
8110,2.0,,,,,53.0,,,,,240,note_off,,95.0,53.0,95.0,846000,440.625
8111,2.0,,,,,50.0,,,,,0,note_on,,95.0,50.0,95.0,846000,440.625
8112,2.0,,,,,50.0,,,,,240,note_off,,95.0,50.0,95.0,846240,440.75
8113,2.0,,,,,49.0,,,,,0,note_on,,95.0,49.0,95.0,846240,440.75
8114,2.0,,,,,49.0,,,,,240,note_off,,95.0,49.0,95.0,846480,440.875
8115,2.0,,,,,48.0,,,,,0,note_on,,95.0,48.0,95.0,846480,440.875
8116,2.0,,,,,48.0,,,,,240,note_off,,95.0,48.0,95.0,846720,441.0
8117,2.0,,,,,57.0,,,,,0,note_on,,95.0,57.0,95.0,846720,441.0
8118,2.0,,,,,57.0,,,,,480,note_off,,95.0,57.0,95.0,847200,441.25
8119,2.0,,,,,39.0,,,,,0,note_on,,95.0,39.0,95.0,847200,441.25
8120,2.0,,,,,39.0,,,,,240,note_off,,95.0,39.0,95.0,847440,441.375
8121,2.0,,,,,39.0,,,,,240,note_on,,95.0,39.0,95.0,847680,441.5
8122,2.0,,,,,39.0,,,,,240,note_off,,95.0,39.0,95.0,847920,441.625
8123,2.0,,,,,39.0,,,,,0,note_on,,95.0,39.0,95.0,847920,441.625
8124,2.0,,,,,39.0,,,,,240,note_off,,95.0,39.0,95.0,848160,441.75
8125,2.0,,,,,51.0,,,,,0,note_on,,95.0,51.0,95.0,848160,441.75
8126,2.0,,,,,51.0,,,,,240,note_off,,95.0,51.0,95.0,848400,441.875
8127,2.0,,,,,52.0,,,,,0,note_on,,95.0,52.0,95.0,848400,441.875
8128,2.0,,,,,52.0,,,,,720,note_off,,95.0,52.0,95.0,849120,442.25
8129,2.0,,,,,39.0,,,,,0,note_on,,95.0,39.0,95.0,849120,442.25
8130,2.0,,,,,39.0,,,,,240,note_off,,95.0,39.0,95.0,849360,442.375
8131,2.0,,,,,39.0,,,,,240,note_on,,95.0,39.0,95.0,849600,442.5
8132,2.0,,,,,39.0,,,,,240,note_off,,95.0,39.0,95.0,849840,442.625
8133,2.0,,,,,39.0,,,,,0,note_on,,95.0,39.0,95.0,849840,442.625
8134,2.0,,,,,39.0,,,,,240,note_off,,95.0,39.0,95.0,850080,442.75
8135,2.0,,,,,51.0,,,,,0,note_on,,95.0,51.0,95.0,850080,442.75
8136,2.0,,,,,51.0,,,,,240,note_off,,95.0,51.0,95.0,850320,442.875
8137,2.0,,,,,52.0,,,,,0,note_on,,95.0,52.0,95.0,850320,442.875
8138,2.0,,,,,52.0,,,,,240,note_off,,95.0,52.0,95.0,850560,443.0
8139,2.0,,,,,54.0,,,,,0,note_on,,95.0,54.0,95.0,850560,443.0
8140,2.0,,,,,54.0,,,,,480,note_off,,95.0,54.0,95.0,851040,443.25
8141,2.0,,,,,39.0,,,,,0,note_on,,95.0,39.0,95.0,851040,443.25
8142,2.0,,,,,39.0,,,,,240,note_off,,95.0,39.0,95.0,851280,443.375
8143,2.0,,,,,39.0,,,,,240,note_on,,95.0,39.0,95.0,851520,443.5
8144,2.0,,,,,39.0,,,,,240,note_off,,95.0,39.0,95.0,851760,443.625
8145,2.0,,,,,39.0,,,,,0,note_on,,95.0,39.0,95.0,851760,443.625
8146,2.0,,,,,39.0,,,,,240,note_off,,95.0,39.0,95.0,852000,443.75
8147,2.0,,,,,51.0,,,,,0,note_on,,95.0,51.0,95.0,852000,443.75
8148,2.0,,,,,51.0,,,,,240,note_off,,95.0,51.0,95.0,852240,443.875
8149,2.0,,,,,52.0,,,,,0,note_on,,95.0,52.0,95.0,852240,443.875
8150,2.0,,,,,52.0,,,,,240,note_off,,95.0,52.0,95.0,852480,444.0
8151,2.0,,,,,56.0,,,,,0,note_on,,95.0,56.0,95.0,852480,444.0
8152,2.0,,,,,56.0,,,,,480,note_off,,95.0,56.0,95.0,852960,444.25
8153,2.0,,,,,55.0,,,,,0,note_on,,95.0,55.0,95.0,852960,444.25
8154,2.0,,,,,55.0,,,,,240,note_off,,95.0,55.0,95.0,853200,444.375
8155,2.0,,,,,54.0,,,,,0,note_on,,95.0,54.0,95.0,853200,444.375
8156,2.0,,,,,54.0,,,,,240,note_off,,95.0,54.0,95.0,853440,444.5
8157,2.0,,,,,53.0,,,,,0,note_on,,95.0,53.0,95.0,853440,444.5
8158,2.0,,,,,53.0,,,,,240,note_off,,95.0,53.0,95.0,853680,444.625
8159,2.0,,,,,50.0,,,,,0,note_on,,95.0,50.0,95.0,853680,444.625
8160,2.0,,,,,50.0,,,,,240,note_off,,95.0,50.0,95.0,853920,444.75
8161,2.0,,,,,49.0,,,,,0,note_on,,95.0,49.0,95.0,853920,444.75
8162,2.0,,,,,49.0,,,,,240,note_off,,95.0,49.0,95.0,854160,444.875
8163,2.0,,,,,47.0,,,,,0,note_on,,95.0,47.0,95.0,854160,444.875
8164,2.0,,,,,47.0,,,,,240,note_off,,95.0,47.0,95.0,854400,445.0
8165,2.0,,,,,46.0,,,,,0,note_on,,95.0,46.0,95.0,854400,445.0
8166,2.0,,,,,46.0,,,,,240,note_off,,95.0,46.0,95.0,854640,445.125
8167,2.0,,,,,45.0,,,,,0,note_on,,95.0,45.0,95.0,854640,445.125
8168,2.0,,,,,45.0,,,,,240,note_off,,95.0,45.0,95.0,854880,445.25
8169,2.0,,,,,39.0,,,,,0,note_on,,95.0,39.0,95.0,854880,445.25
8170,2.0,,,,,39.0,,,,,240,note_off,,95.0,39.0,95.0,855120,445.375
8171,2.0,,,,,39.0,,,,,240,note_on,,95.0,39.0,95.0,855360,445.5
8172,2.0,,,,,39.0,,,,,240,note_off,,95.0,39.0,95.0,855600,445.625
8173,2.0,,,,,39.0,,,,,0,note_on,,95.0,39.0,95.0,855600,445.625
8174,2.0,,,,,39.0,,,,,240,note_off,,95.0,39.0,95.0,855840,445.75
8175,2.0,,,,,51.0,,,,,0,note_on,,95.0,51.0,95.0,855840,445.75
8176,2.0,,,,,51.0,,,,,240,note_off,,95.0,51.0,95.0,856080,445.875
8177,2.0,,,,,52.0,,,,,0,note_on,,95.0,52.0,95.0,856080,445.875
8178,2.0,,,,,52.0,,,,,720,note_off,,95.0,52.0,95.0,856800,446.25
8179,2.0,,,,,39.0,,,,,0,note_on,,95.0,39.0,95.0,856800,446.25
8180,2.0,,,,,39.0,,,,,240,note_off,,95.0,39.0,95.0,857040,446.375
8181,2.0,,,,,39.0,,,,,240,note_on,,95.0,39.0,95.0,857280,446.5
8182,2.0,,,,,39.0,,,,,240,note_off,,95.0,39.0,95.0,857520,446.625
8183,2.0,,,,,39.0,,,,,0,note_on,,95.0,39.0,95.0,857520,446.625
8184,2.0,,,,,39.0,,,,,240,note_off,,95.0,39.0,95.0,857760,446.75
8185,2.0,,,,,51.0,,,,,0,note_on,,95.0,51.0,95.0,857760,446.75
8186,2.0,,,,,51.0,,,,,240,note_off,,95.0,51.0,95.0,858000,446.875
8187,2.0,,,,,52.0,,,,,0,note_on,,95.0,52.0,95.0,858000,446.875
8188,2.0,,,,,52.0,,,,,240,note_off,,95.0,52.0,95.0,858240,447.0
8189,2.0,,,,,54.0,,,,,0,note_on,,95.0,54.0,95.0,858240,447.0
8190,2.0,,,,,54.0,,,,,480,note_off,,95.0,54.0,95.0,858720,447.25
8191,2.0,,,,,39.0,,,,,0,note_on,,95.0,39.0,95.0,858720,447.25
8192,2.0,,,,,39.0,,,,,240,note_off,,95.0,39.0,95.0,858960,447.375
8193,2.0,,,,,39.0,,,,,240,note_on,,95.0,39.0,95.0,859200,447.5
8194,2.0,,,,,39.0,,,,,240,note_off,,95.0,39.0,95.0,859440,447.625
8195,2.0,,,,,39.0,,,,,0,note_on,,95.0,39.0,95.0,859440,447.625
8196,2.0,,,,,39.0,,,,,240,note_off,,95.0,39.0,95.0,859680,447.75
8197,2.0,,,,,51.0,,,,,0,note_on,,95.0,51.0,95.0,859680,447.75
8198,2.0,,,,,51.0,,,,,240,note_off,,95.0,51.0,95.0,859920,447.875
8199,2.0,,,,,52.0,,,,,0,note_on,,95.0,52.0,95.0,859920,447.875
8200,2.0,,,,,52.0,,,,,240,note_off,,95.0,52.0,95.0,860160,448.0
8201,2.0,,,,,56.0,,,,,0,note_on,,95.0,56.0,95.0,860160,448.0
8202,2.0,,,,,56.0,,,,,480,note_off,,95.0,56.0,95.0,860640,448.25
8203,2.0,,,,,55.0,,,,,0,note_on,,95.0,55.0,95.0,860640,448.25
8204,2.0,,,,,55.0,,,,,240,note_off,,95.0,55.0,95.0,860880,448.375
8205,2.0,,,,,54.0,,,,,0,note_on,,95.0,54.0,95.0,860880,448.375
8206,2.0,,,,,54.0,,,,,240,note_off,,95.0,54.0,95.0,861120,448.5
8207,2.0,,,,,53.0,,,,,0,note_on,,95.0,53.0,95.0,861120,448.5
8208,2.0,,,,,53.0,,,,,240,note_off,,95.0,53.0,95.0,861360,448.625
8209,2.0,,,,,50.0,,,,,0,note_on,,95.0,50.0,95.0,861360,448.625
8210,2.0,,,,,50.0,,,,,240,note_off,,95.0,50.0,95.0,861600,448.75
8211,2.0,,,,,49.0,,,,,0,note_on,,95.0,49.0,95.0,861600,448.75
8212,2.0,,,,,49.0,,,,,240,note_off,,95.0,49.0,95.0,861840,448.875
8213,2.0,,,,,47.0,,,,,0,note_on,,95.0,47.0,95.0,861840,448.875
8214,2.0,,,,,47.0,,,,,240,note_off,,95.0,47.0,95.0,862080,449.0
8215,2.0,,,,,46.0,,,,,0,note_on,,95.0,46.0,95.0,862080,449.0
8216,2.0,,,,,46.0,,,,,240,note_off,,95.0,46.0,95.0,862320,449.125
8217,2.0,,,,,45.0,,,,,0,note_on,,95.0,45.0,95.0,862320,449.125
8218,2.0,,,,,45.0,,,,,240,note_off,,95.0,45.0,95.0,862560,449.25
8219,2.0,,,,,55.0,,,,,0,note_on,,95.0,55.0,95.0,862560,449.25
8220,2.0,,,,,55.0,,,,,240,note_off,,95.0,55.0,95.0,862800,449.375
8221,2.0,,,,,54.0,,,,,0,note_on,,95.0,54.0,95.0,862800,449.375
8222,2.0,,,,,54.0,,,,,240,note_off,,95.0,54.0,95.0,863040,449.5
8223,2.0,,,,,53.0,,,,,0,note_on,,95.0,53.0,95.0,863040,449.5
8224,2.0,,,,,53.0,,,,,240,note_off,,95.0,53.0,95.0,863280,449.625
8225,2.0,,,,,49.0,,,,,0,note_on,,95.0,49.0,95.0,863280,449.625
8226,2.0,,,,,49.0,,,,,240,note_off,,95.0,49.0,95.0,863520,449.75
8227,2.0,,,,,48.0,,,,,0,note_on,,95.0,48.0,95.0,863520,449.75
8228,2.0,,,,,48.0,,,,,240,note_off,,95.0,48.0,95.0,863760,449.875
8229,2.0,,,,,47.0,,,,,0,note_on,,95.0,47.0,95.0,863760,449.875
8230,2.0,,,,,47.0,,,,,240,note_off,,95.0,47.0,95.0,864000,450.0
8231,2.0,,,,,42.0,,,,,0,note_on,,95.0,42.0,95.0,864000,450.0
8232,2.0,,,,,42.0,,,,,240,note_off,,95.0,42.0,95.0,864240,450.125
8233,2.0,,,,,41.0,,,,,0,note_on,,95.0,41.0,95.0,864240,450.125
8234,2.0,,,,,41.0,,,,,240,note_off,,95.0,41.0,95.0,864480,450.25
8235,2.0,,,,,46.0,,,,,0,note_on,,95.0,46.0,95.0,864480,450.25
8236,2.0,,,,,39.0,,,,,0,note_on,,95.0,39.0,95.0,864480,450.25
8237,2.0,,,,,46.0,,,,,480,note_off,,95.0,46.0,95.0,864960,450.5
8238,2.0,,,,,39.0,,,,,0,note_off,,95.0,39.0,95.0,864960,450.5
8239,,,,,,,,,,,0,end_of_track,,,,,864960,450.5
