0, 0, Header, 1, 3, 960
1, 0, Start_track
1, 0, Control_c, 0, 101, 0
1, 0, Control_c, 0, 100, 0
1, 0, Control_c, 0, 6, 12
1, 0, Control_c, 0, 38, 0
1, 0, Control_c, 1, 101, 0
1, 0, Control_c, 1, 100, 0
1, 0, Control_c, 1, 6, 12
1, 0, Control_c, 1, 38, 0
1, 0, Control_c, 2, 101, 0
1, 0, Control_c, 2, 100, 0
1, 0, Control_c, 2, 6, 12
1, 0, Control_c, 2, 38, 0
1, 0, Control_c, 3, 101, 0
1, 0, Control_c, 3, 100, 0
1, 0, Control_c, 3, 6, 12
1, 0, Control_c, 3, 38, 0
1, 0, Control_c, 4, 101, 0
1, 0, Control_c, 4, 100, 0
1, 0, Control_c, 4, 6, 12
1, 0, Control_c, 4, 38, 0
1, 0, Control_c, 5, 101, 0
1, 0, Control_c, 5, 100, 0
1, 0, Control_c, 5, 6, 12
1, 0, Control_c, 5, 38, 0
1, 0, Control_c, 6, 101, 0
1, 0, Control_c, 6, 100, 0
1, 0, Control_c, 6, 6, 12
1, 0, Control_c, 6, 38, 0
1, 0, Control_c, 7, 101, 0
1, 0, Control_c, 7, 100, 0
1, 0, Control_c, 7, 6, 12
1, 0, Control_c, 7, 38, 0
1, 0, Control_c, 8, 101, 0
1, 0, Control_c, 8, 100, 0
1, 0, Control_c, 8, 6, 12
1, 0, Control_c, 8, 38, 0
1, 0, Control_c, 9, 101, 0
1, 0, Control_c, 9, 100, 0
1, 0, Control_c, 9, 6, 12
1, 0, Control_c, 9, 38, 0
1, 0, Control_c, 10, 101, 0
1, 0, Control_c, 10, 100, 0
1, 0, Control_c, 10, 6, 12
1, 0, Control_c, 10, 38, 0
1, 0, Control_c, 11, 101, 0
1, 0, Control_c, 11, 100, 0
1, 0, Control_c, 11, 6, 12
1, 0, Control_c, 11, 38, 0
1, 0, Control_c, 12, 101, 0
1, 0, Control_c, 12, 100, 0
1, 0, Control_c, 12, 6, 12
1, 0, Control_c, 12, 38, 0
1, 0, Control_c, 13, 101, 0
1, 0, Control_c, 13, 100, 0
1, 0, Control_c, 13, 6, 12
1, 0, Control_c, 13, 38, 0
1, 0, Control_c, 14, 101, 0
1, 0, Control_c, 14, 100, 0
1, 0, Control_c, 14, 6, 12
1, 0, Control_c, 14, 38, 0
1, 0, Control_c, 15, 101, 0
1, 0, Control_c, 15, 100, 0
1, 0, Control_c, 15, 6, 12
1, 0, Control_c, 15, 38, 0
1, 0, Time_signature, 4, 2, 24, 8
1, 0, Tempo, 540540
1, 0, End_track
2, 0, Start_track
2, 0, Pitch_bend_c, 0, 8192
2, 0, Control_c, 0, 7, 103
2, 0, Control_c, 0, 10, 23
2, 0, Control_c, 0, 93, 0
2, 0, Control_c, 0, 91, 0
2, 0, Control_c, 0, 95, 0
2, 0, Control_c, 0, 92, 0
2, 0, Control_c, 0, 11, 127
2, 0, Program_c, 0, 30
2, 0, Control_c, 1, 7, 103
2, 0, Control_c, 1, 10, 23
2, 0, Control_c, 1, 93, 0
2, 0, Control_c, 1, 91, 0
2, 0, Control_c, 1, 95, 0
2, 0, Control_c, 1, 92, 0
2, 0, Control_c, 1, 11, 127
2, 0, Program_c, 1, 30
2, 0, Note_on_c, 0, 39, 95
2, 240, Note_off_c, 0, 39, 95
2, 240, Note_on_c, 0, 39, 95
2, 480, Note_off_c, 0, 39, 95
2, 720, Note_on_c, 0, 39, 95
2, 900, Note_on_c, 1, 49, 95
2, 960, Note_off_c, 0, 39, 95
2, 960, Note_off_c, 1, 49, 95
2, 960, Note_on_c, 1, 51, 95
2, 960, Note_on_c, 0, 39, 95
2, 1440, Note_off_c, 1, 51, 95
2, 1440, Note_off_c, 0, 39, 95
2, 1440, Note_on_c, 0, 39, 95
2, 1680, Note_off_c, 0, 39, 95
2, 1680, Note_on_c, 0, 39, 95
2, 1920, Note_off_c, 0, 39, 95
2, 2160, Note_on_c, 0, 39, 95
2, 2400, Note_off_c, 0, 39, 95
2, 2400, Note_on_c, 0, 59, 95
2, 2400, Note_on_c, 0, 52, 95
2, 2880, Note_off_c, 0, 59, 95
2, 2880, Note_off_c, 0, 52, 95
2, 2880, Note_on_c, 0, 39, 95
2, 3120, Note_off_c, 0, 39, 95
2, 3120, Note_on_c, 0, 39, 95
2, 3360, Note_off_c, 0, 39, 95
2, 3360, Note_on_c, 0, 57, 95
2, 3360, Note_on_c, 0, 50, 95
2, 3840, Note_off_c, 0, 57, 95
2, 3840, Note_off_c, 0, 50, 95
2, 3840, Note_on_c, 0, 39, 95
2, 4080, Note_off_c, 0, 39, 95
2, 4080, Note_on_c, 0, 39, 95
2, 4320, Note_off_c, 0, 39, 95
2, 4560, Note_on_c, 0, 39, 95
2, 4740, Note_on_c, 1, 49, 95
2, 4800, Note_off_c, 0, 39, 95
2, 4800, Note_off_c, 1, 49, 95
2, 4800, Note_on_c, 1, 51, 95
2, 4800, Note_on_c, 0, 39, 95
2, 5280, Note_off_c, 1, 51, 95
2, 5280, Note_off_c, 0, 39, 95
2, 5280, Note_on_c, 0, 39, 95
2, 5520, Note_off_c, 0, 39, 95
2, 5520, Note_on_c, 0, 39, 95
2, 5760, Note_off_c, 0, 39, 95
2, 6000, Note_on_c, 0, 39, 95
2, 6240, Note_off_c, 0, 39, 95
2, 6240, Note_on_c, 0, 61, 95
2, 6240, Note_on_c, 0, 54, 95
2, 6720, Note_off_c, 0, 61, 95
2, 6720, Note_off_c, 0, 54, 95
2, 6720, Note_on_c, 0, 39, 95
2, 6960, Note_off_c, 0, 39, 95
2, 6960, Note_on_c, 0, 39, 95
2, 7200, Note_off_c, 0, 39, 95
2, 7200, Note_on_c, 0, 60, 95
2, 7200, Note_on_c, 0, 53, 95
2, 7680, Note_off_c, 0, 60, 95
2, 7680, Note_off_c, 0, 53, 95
2, 7680, Note_on_c, 0, 39, 95
2, 7920, Note_off_c, 0, 39, 95
2, 7920, Note_on_c, 0, 39, 95
2, 8160, Note_off_c, 0, 39, 95
2, 8400, Note_on_c, 0, 39, 95
2, 8580, Note_on_c, 1, 49, 95
2, 8640, Note_off_c, 0, 39, 95
2, 8640, Note_off_c, 1, 49, 95
2, 8640, Note_on_c, 1, 51, 95
2, 8640, Note_on_c, 0, 39, 95
2, 9120, Note_off_c, 1, 51, 95
2, 9120, Note_off_c, 0, 39, 95
2, 9120, Note_on_c, 0, 39, 95
2, 9360, Note_off_c, 0, 39, 95
2, 9360, Note_on_c, 0, 39, 95
2, 9600, Note_off_c, 0, 39, 95
2, 9840, Note_on_c, 0, 39, 95
2, 10080, Note_off_c, 0, 39, 95
2, 10080, Note_on_c, 0, 59, 95
2, 10080, Note_on_c, 0, 52, 95
2, 10560, Note_off_c, 0, 59, 95
2, 10560, Note_off_c, 0, 52, 95
2, 10560, Note_on_c, 0, 39, 95
2, 10800, Note_off_c, 0, 39, 95
2, 10800, Note_on_c, 0, 39, 95
2, 11040, Note_off_c, 0, 39, 95
2, 11040, Note_on_c, 0, 57, 95
2, 11040, Note_on_c, 0, 50, 95
2, 11520, Note_off_c, 0, 57, 95
2, 11520, Note_off_c, 0, 50, 95
2, 11520, Note_on_c, 0, 39, 95
2, 11760, Note_off_c, 0, 39, 95
2, 11760, Note_on_c, 0, 39, 95
2, 12000, Note_off_c, 0, 39, 95
2, 12240, Note_on_c, 0, 39, 95
2, 12420, Note_on_c, 1, 49, 95
2, 12480, Note_off_c, 0, 39, 95
2, 12480, Note_off_c, 1, 49, 95
2, 12480, Note_on_c, 1, 51, 95
2, 12480, Note_on_c, 0, 39, 95
2, 12960, Note_off_c, 1, 51, 95
2, 12960, Note_off_c, 0, 39, 95
2, 12960, Note_on_c, 0, 39, 95
2, 13200, Note_off_c, 0, 39, 95
2, 13200, Note_on_c, 0, 39, 95
2, 13440, Note_off_c, 0, 39, 95
2, 13680, Note_on_c, 0, 39, 95
2, 13920, Note_off_c, 0, 39, 95
2, 13920, Note_on_c, 0, 49, 95
2, 13920, Note_on_c, 0, 42, 95
2, 14400, Note_off_c, 0, 49, 95
2, 14400, Note_off_c, 0, 42, 95
2, 14400, Note_on_c, 0, 39, 95
2, 14640, Note_off_c, 0, 39, 95
2, 14640, Note_on_c, 0, 39, 95
2, 14880, Note_off_c, 0, 39, 95
2, 14880, Note_on_c, 0, 48, 95
2, 14880, Note_on_c, 0, 41, 95
2, 15360, Note_off_c, 0, 48, 95
2, 15360, Note_off_c, 0, 41, 95
2, 15360, Note_on_c, 0, 39, 95
2, 15600, Note_off_c, 0, 39, 95
2, 15600, Note_on_c, 0, 39, 95
2, 15840, Note_off_c, 0, 39, 95
2, 16080, Note_on_c, 0, 39, 95
2, 16260, Note_on_c, 1, 49, 95
2, 16320, Note_off_c, 0, 39, 95
2, 16320, Note_off_c, 1, 49, 95
2, 16320, Note_on_c, 1, 51, 95
2, 16320, Note_on_c, 0, 39, 95
2, 16800, Note_off_c, 1, 51, 95
2, 16800, Note_off_c, 0, 39, 95
2, 16800, Note_on_c, 0, 39, 95
2, 17040, Note_off_c, 0, 39, 95
2, 17040, Note_on_c, 0, 39, 95
2, 17280, Note_off_c, 0, 39, 95
2, 17520, Note_on_c, 0, 39, 95
2, 17760, Note_off_c, 0, 39, 95
2, 17760, Note_on_c, 0, 59, 95
2, 17760, Note_on_c, 0, 52, 95
2, 18240, Note_off_c, 0, 59, 95
2, 18240, Note_off_c, 0, 52, 95
2, 18240, Note_on_c, 0, 39, 95
2, 18480, Note_off_c, 0, 39, 95
2, 18480, Note_on_c, 0, 39, 95
2, 18720, Note_off_c, 0, 39, 95
2, 18720, Note_on_c, 0, 57, 95
2, 18720, Note_on_c, 0, 50, 95
2, 19200, Note_off_c, 0, 57, 95
2, 19200, Note_off_c, 0, 50, 95
2, 19200, Note_on_c, 0, 39, 95
2, 19440, Note_off_c, 0, 39, 95
2, 19440, Note_on_c, 0, 39, 95
2, 19680, Note_off_c, 0, 39, 95
2, 19920, Note_on_c, 0, 39, 95
2, 20100, Note_on_c, 1, 49, 95
2, 20160, Note_off_c, 0, 39, 95
2, 20160, Note_off_c, 1, 49, 95
2, 20160, Note_on_c, 1, 51, 95
2, 20160, Note_on_c, 0, 39, 95
2, 20640, Note_off_c, 1, 51, 95
2, 20640, Note_off_c, 0, 39, 95
2, 20640, Note_on_c, 0, 39, 95
2, 20880, Note_off_c, 0, 39, 95
2, 20880, Note_on_c, 0, 39, 95
2, 21120, Note_off_c, 0, 39, 95
2, 21360, Note_on_c, 0, 39, 95
2, 21600, Note_off_c, 0, 39, 95
2, 21600, Note_on_c, 0, 61, 95
2, 21600, Note_on_c, 0, 54, 95
2, 22080, Note_off_c, 0, 61, 95
2, 22080, Note_off_c, 0, 54, 95
2, 22080, Note_on_c, 0, 39, 95
2, 22320, Note_off_c, 0, 39, 95
2, 22320, Note_on_c, 0, 39, 95
2, 22560, Note_off_c, 0, 39, 95
2, 22560, Note_on_c, 0, 60, 95
2, 22560, Note_on_c, 0, 53, 95
2, 23040, Note_off_c, 0, 60, 95
2, 23040, Note_off_c, 0, 53, 95
2, 23040, Note_on_c, 0, 39, 95
2, 23280, Note_off_c, 0, 39, 95
2, 23280, Note_on_c, 0, 39, 95
2, 23520, Note_off_c, 0, 39, 95
2, 23760, Note_on_c, 0, 39, 95
2, 23940, Note_on_c, 1, 49, 95
2, 24000, Note_off_c, 0, 39, 95
2, 24000, Note_off_c, 1, 49, 95
2, 24000, Note_on_c, 1, 51, 95
2, 24000, Note_on_c, 0, 39, 95
2, 24480, Note_off_c, 1, 51, 95
2, 24480, Note_off_c, 0, 39, 95
2, 24480, Note_on_c, 0, 39, 95
2, 24720, Note_off_c, 0, 39, 95
2, 24720, Note_on_c, 0, 39, 95
2, 24960, Note_off_c, 0, 39, 95
2, 25200, Note_on_c, 0, 39, 95
2, 25440, Note_off_c, 0, 39, 95
2, 25440, Note_on_c, 0, 59, 95
2, 25440, Note_on_c, 0, 52, 95
2, 25920, Note_off_c, 0, 59, 95
2, 25920, Note_off_c, 0, 52, 95
2, 25920, Note_on_c, 0, 39, 95
2, 26160, Note_off_c, 0, 39, 95
2, 26160, Note_on_c, 0, 39, 95
2, 26400, Note_off_c, 0, 39, 95
2, 26400, Note_on_c, 0, 57, 95
2, 26400, Note_on_c, 0, 50, 95
2, 26880, Note_off_c, 0, 57, 95
2, 26880, Note_off_c, 0, 50, 95
2, 26880, Note_on_c, 0, 39, 95
2, 27120, Note_off_c, 0, 39, 95
2, 27120, Note_on_c, 0, 39, 95
2, 27360, Note_off_c, 0, 39, 95
2, 27600, Note_on_c, 0, 39, 95
2, 27780, Note_on_c, 1, 49, 95
2, 27840, Note_off_c, 0, 39, 95
2, 27840, Note_off_c, 1, 49, 95
2, 27840, Note_on_c, 1, 51, 95
2, 27840, Note_on_c, 0, 39, 95
2, 28320, Note_off_c, 1, 51, 95
2, 28320, Note_off_c, 0, 39, 95
2, 28320, Note_on_c, 0, 39, 95
2, 28560, Note_off_c, 0, 39, 95
2, 28560, Note_on_c, 0, 39, 95
2, 28800, Note_off_c, 0, 39, 95
2, 29040, Note_on_c, 0, 39, 95
2, 29280, Note_off_c, 0, 39, 95
2, 29280, Note_on_c, 0, 49, 95
2, 29280, Note_on_c, 0, 42, 95
2, 29760, Note_off_c, 0, 49, 95
2, 29760, Note_off_c, 0, 42, 95
2, 29760, Note_on_c, 0, 39, 95
2, 30000, Note_off_c, 0, 39, 95
2, 30000, Note_on_c, 0, 39, 95
2, 30240, Note_off_c, 0, 39, 95
2, 30240, Note_on_c, 0, 48, 95
2, 30240, Note_on_c, 0, 41, 95
2, 30720, Note_off_c, 0, 48, 95
2, 30720, Note_off_c, 0, 41, 95
2, 30720, Note_on_c, 0, 39, 95
2, 30960, Note_off_c, 0, 39, 95
2, 30960, Note_on_c, 0, 39, 95
2, 31200, Note_off_c, 0, 39, 95
2, 31440, Note_on_c, 0, 39, 95
2, 31620, Note_on_c, 1, 49, 95
2, 31680, Note_off_c, 0, 39, 95
2, 31680, Note_off_c, 1, 49, 95
2, 31680, Note_on_c, 1, 51, 95
2, 31680, Note_on_c, 0, 39, 95
2, 32160, Note_off_c, 1, 51, 95
2, 32160, Note_off_c, 0, 39, 95
2, 32160, Note_on_c, 0, 39, 95
2, 32400, Note_off_c, 0, 39, 95
2, 32400, Note_on_c, 0, 39, 95
2, 32640, Note_off_c, 0, 39, 95
2, 32880, Note_on_c, 0, 39, 95
2, 33120, Note_off_c, 0, 39, 95
2, 33120, Note_on_c, 0, 59, 95
2, 33120, Note_on_c, 0, 52, 95
2, 33600, Note_off_c, 0, 59, 95
2, 33600, Note_off_c, 0, 52, 95
2, 33600, Note_on_c, 0, 39, 95
2, 33840, Note_off_c, 0, 39, 95
2, 33840, Note_on_c, 0, 39, 95
2, 34080, Note_off_c, 0, 39, 95
2, 34080, Note_on_c, 0, 57, 95
2, 34080, Note_on_c, 0, 50, 95
2, 34560, Note_off_c, 0, 57, 95
2, 34560, Note_off_c, 0, 50, 95
2, 34560, Note_on_c, 0, 39, 95
2, 34800, Note_off_c, 0, 39, 95
2, 34800, Note_on_c, 0, 39, 95
2, 35040, Note_off_c, 0, 39, 95
2, 35280, Note_on_c, 0, 39, 95
2, 35460, Note_on_c, 1, 49, 95
2, 35520, Note_off_c, 0, 39, 95
2, 35520, Note_off_c, 1, 49, 95
2, 35520, Note_on_c, 1, 51, 95
2, 35520, Note_on_c, 0, 39, 95
2, 36000, Note_off_c, 1, 51, 95
2, 36000, Note_off_c, 0, 39, 95
2, 36000, Note_on_c, 0, 39, 95
2, 36240, Note_off_c, 0, 39, 95
2, 36240, Note_on_c, 0, 39, 95
2, 36480, Note_off_c, 0, 39, 95
2, 36720, Note_on_c, 0, 39, 95
2, 36960, Note_off_c, 0, 39, 95
2, 36960, Note_on_c, 0, 61, 95
2, 36960, Note_on_c, 0, 54, 95
2, 37440, Note_off_c, 0, 61, 95
2, 37440, Note_off_c, 0, 54, 95
2, 37440, Note_on_c, 0, 39, 95
2, 37680, Note_off_c, 0, 39, 95
2, 37680, Note_on_c, 0, 39, 95
2, 37920, Note_off_c, 0, 39, 95
2, 37920, Note_on_c, 0, 60, 95
2, 37920, Note_on_c, 0, 53, 95
2, 38400, Note_off_c, 0, 60, 95
2, 38400, Note_off_c, 0, 53, 95
2, 38400, Note_on_c, 0, 39, 95
2, 38640, Note_off_c, 0, 39, 95
2, 38640, Note_on_c, 0, 39, 95
2, 38880, Note_off_c, 0, 39, 95
2, 39120, Note_on_c, 0, 39, 95
2, 39300, Note_on_c, 1, 49, 95
2, 39360, Note_off_c, 0, 39, 95
2, 39360, Note_off_c, 1, 49, 95
2, 39360, Note_on_c, 1, 51, 95
2, 39360, Note_on_c, 0, 39, 95
2, 39840, Note_off_c, 1, 51, 95
2, 39840, Note_off_c, 0, 39, 95
2, 39840, Note_on_c, 0, 39, 95
2, 40080, Note_off_c, 0, 39, 95
2, 40080, Note_on_c, 0, 39, 95
2, 40320, Note_off_c, 0, 39, 95
2, 40560, Note_on_c, 0, 39, 95
2, 40800, Note_off_c, 0, 39, 95
2, 40800, Note_on_c, 0, 59, 95
2, 40800, Note_on_c, 0, 52, 95
2, 41280, Note_off_c, 0, 59, 95
2, 41280, Note_off_c, 0, 52, 95
2, 41280, Note_on_c, 0, 39, 95
2, 41520, Note_off_c, 0, 39, 95
2, 41520, Note_on_c, 0, 39, 95
2, 41760, Note_off_c, 0, 39, 95
2, 41760, Note_on_c, 0, 57, 95
2, 41760, Note_on_c, 0, 50, 95
2, 42240, Note_off_c, 0, 57, 95
2, 42240, Note_off_c, 0, 50, 95
2, 42240, Note_on_c, 0, 39, 95
2, 42480, Note_off_c, 0, 39, 95
2, 42480, Note_on_c, 0, 39, 95
2, 42720, Note_off_c, 0, 39, 95
2, 42960, Note_on_c, 0, 39, 95
2, 43140, Note_on_c, 1, 49, 95
2, 43200, Note_off_c, 0, 39, 95
2, 43200, Note_off_c, 1, 49, 95
2, 43200, Note_on_c, 1, 51, 95
2, 43200, Note_on_c, 0, 39, 95
2, 43680, Note_off_c, 1, 51, 95
2, 43680, Note_off_c, 0, 39, 95
2, 43680, Note_on_c, 0, 39, 95
2, 43920, Note_off_c, 0, 39, 95
2, 43920, Note_on_c, 0, 39, 95
2, 44160, Note_off_c, 0, 39, 95
2, 44400, Note_on_c, 0, 39, 95
2, 44640, Note_off_c, 0, 39, 95
2, 44640, Note_on_c, 0, 49, 95
2, 44640, Note_on_c, 0, 42, 95
2, 45120, Note_off_c, 0, 49, 95
2, 45120, Note_off_c, 0, 42, 95
2, 45120, Note_on_c, 0, 39, 95
2, 45360, Note_off_c, 0, 39, 95
2, 45360, Note_on_c, 0, 39, 95
2, 45600, Note_off_c, 0, 39, 95
2, 45600, Note_on_c, 0, 48, 95
2, 45600, Note_on_c, 0, 41, 95
2, 46080, Note_off_c, 0, 48, 95
2, 46080, Note_off_c, 0, 41, 95
2, 46080, Note_on_c, 0, 39, 95
2, 46320, Note_off_c, 0, 39, 95
2, 46320, Note_on_c, 0, 39, 95
2, 46560, Note_off_c, 0, 39, 95
2, 46800, Note_on_c, 0, 39, 95
2, 46980, Note_on_c, 1, 49, 95
2, 47040, Note_off_c, 0, 39, 95
2, 47040, Note_off_c, 1, 49, 95
2, 47040, Note_on_c, 1, 51, 95
2, 47040, Note_on_c, 0, 39, 95
2, 47520, Note_off_c, 1, 51, 95
2, 47520, Note_off_c, 0, 39, 95
2, 47520, Note_on_c, 0, 39, 95
2, 47760, Note_off_c, 0, 39, 95
2, 47760, Note_on_c, 0, 39, 95
2, 48000, Note_off_c, 0, 39, 95
2, 48240, Note_on_c, 0, 39, 95
2, 48480, Note_off_c, 0, 39, 95
2, 48480, Note_on_c, 0, 59, 95
2, 48480, Note_on_c, 0, 52, 95
2, 48960, Note_off_c, 0, 59, 95
2, 48960, Note_off_c, 0, 52, 95
2, 48960, Note_on_c, 0, 39, 95
2, 49200, Note_off_c, 0, 39, 95
2, 49200, Note_on_c, 0, 39, 95
2, 49440, Note_off_c, 0, 39, 95
2, 49440, Note_on_c, 0, 57, 95
2, 49440, Note_on_c, 0, 50, 95
2, 49920, Note_off_c, 0, 57, 95
2, 49920, Note_off_c, 0, 50, 95
2, 49920, Note_on_c, 0, 39, 95
2, 50160, Note_off_c, 0, 39, 95
2, 50160, Note_on_c, 0, 39, 95
2, 50400, Note_off_c, 0, 39, 95
2, 50640, Note_on_c, 0, 39, 95
2, 50820, Note_on_c, 1, 49, 95
2, 50880, Note_off_c, 0, 39, 95
2, 50880, Note_off_c, 1, 49, 95
2, 50880, Note_on_c, 1, 51, 95
2, 50880, Note_on_c, 0, 39, 95
2, 51360, Note_off_c, 1, 51, 95
2, 51360, Note_off_c, 0, 39, 95
2, 51360, Note_on_c, 0, 39, 95
2, 51600, Note_off_c, 0, 39, 95
2, 51600, Note_on_c, 0, 39, 95
2, 51840, Note_off_c, 0, 39, 95
2, 52080, Note_on_c, 0, 39, 95
2, 52320, Note_off_c, 0, 39, 95
2, 52320, Note_on_c, 0, 61, 95
2, 52320, Note_on_c, 0, 54, 95
2, 52800, Note_off_c, 0, 61, 95
2, 52800, Note_off_c, 0, 54, 95
2, 52800, Note_on_c, 0, 39, 95
2, 53040, Note_off_c, 0, 39, 95
2, 53040, Note_on_c, 0, 39, 95
2, 53280, Note_off_c, 0, 39, 95
2, 53280, Note_on_c, 0, 60, 95
2, 53280, Note_on_c, 0, 53, 95
2, 53760, Note_off_c, 0, 60, 95
2, 53760, Note_off_c, 0, 53, 95
2, 53760, Note_on_c, 0, 39, 95
2, 54000, Note_off_c, 0, 39, 95
2, 54000, Note_on_c, 0, 39, 95
2, 54240, Note_off_c, 0, 39, 95
2, 54480, Note_on_c, 0, 39, 95
2, 54660, Note_on_c, 1, 49, 95
2, 54720, Note_off_c, 0, 39, 95
2, 54720, Note_off_c, 1, 49, 95
2, 54720, Note_on_c, 1, 51, 95
2, 54720, Note_on_c, 0, 39, 95
2, 55200, Note_off_c, 1, 51, 95
2, 55200, Note_off_c, 0, 39, 95
2, 55200, Note_on_c, 0, 39, 95
2, 55440, Note_off_c, 0, 39, 95
2, 55440, Note_on_c, 0, 39, 95
2, 55680, Note_off_c, 0, 39, 95
2, 55920, Note_on_c, 0, 39, 95
2, 56160, Note_off_c, 0, 39, 95
2, 56160, Note_on_c, 0, 59, 95
2, 56160, Note_on_c, 0, 52, 95
2, 56640, Note_off_c, 0, 59, 95
2, 56640, Note_off_c, 0, 52, 95
2, 56640, Note_on_c, 0, 39, 95
2, 56880, Note_off_c, 0, 39, 95
2, 56880, Note_on_c, 0, 39, 95
2, 57120, Note_off_c, 0, 39, 95
2, 57120, Note_on_c, 0, 57, 95
2, 57120, Note_on_c, 0, 50, 95
2, 57600, Note_off_c, 0, 57, 95
2, 57600, Note_off_c, 0, 50, 95
2, 57600, Note_on_c, 0, 39, 95
2, 57840, Note_off_c, 0, 39, 95
2, 57840, Note_on_c, 0, 39, 95
2, 58080, Note_off_c, 0, 39, 95
2, 58320, Note_on_c, 0, 39, 95
2, 58500, Note_on_c, 1, 49, 95
2, 58560, Note_off_c, 0, 39, 95
2, 58560, Note_off_c, 1, 49, 95
2, 58560, Note_on_c, 1, 51, 95
2, 58560, Note_on_c, 0, 39, 95
2, 59040, Note_off_c, 1, 51, 95
2, 59040, Note_off_c, 0, 39, 95
2, 59040, Note_on_c, 0, 39, 95
2, 59280, Note_off_c, 0, 39, 95
2, 59280, Note_on_c, 0, 39, 95
2, 59520, Note_off_c, 0, 39, 95
2, 59760, Note_on_c, 0, 39, 95
2, 60000, Note_off_c, 0, 39, 95
2, 60000, Note_on_c, 0, 49, 95
2, 60000, Note_on_c, 0, 42, 95
2, 60480, Note_off_c, 0, 49, 95
2, 60480, Note_off_c, 0, 42, 95
2, 60480, Note_on_c, 0, 39, 95
2, 60720, Note_off_c, 0, 39, 95
2, 60720, Note_on_c, 0, 39, 95
2, 60960, Note_off_c, 0, 39, 95
2, 60960, Note_on_c, 0, 48, 95
2, 60960, Note_on_c, 0, 41, 95
2, 61440, Note_off_c, 0, 48, 95
2, 61440, Note_off_c, 0, 41, 95
2, 61440, Note_on_c, 0, 39, 95
2, 61680, Note_off_c, 0, 39, 95
2, 61920, Note_on_c, 0, 39, 95
2, 62160, Note_off_c, 0, 39, 95
2, 62160, Note_on_c, 0, 39, 95
2, 62340, Note_on_c, 1, 49, 95
2, 62400, Note_off_c, 0, 39, 95
2, 62400, Note_off_c, 1, 49, 95
2, 62400, Note_on_c, 1, 51, 95
2, 62400, Note_on_c, 0, 39, 95
2, 63360, Note_off_c, 1, 51, 95
2, 63360, Note_off_c, 0, 39, 95
2, 63360, Note_on_c, 0, 39, 95
2, 63600, Note_off_c, 0, 39, 95
2, 63840, Note_on_c, 0, 39, 95
2, 64080, Note_off_c, 0, 39, 95
2, 64080, Note_on_c, 0, 39, 95
2, 64320, Note_off_c, 0, 39, 95
2, 64320, Note_on_c, 0, 59, 95
2, 64320, Note_on_c, 0, 52, 95
2, 64560, Note_off_c, 0, 59, 95
2, 64560, Note_off_c, 0, 52, 95
2, 64560, Note_on_c, 0, 58, 95
2, 64560, Note_on_c, 0, 51, 95
2, 64800, Note_off_c, 0, 58, 95
2, 64800, Note_off_c, 0, 51, 95
2, 64800, Note_on_c, 0, 57, 95
2, 64800, Note_on_c, 0, 50, 95
2, 65280, Note_off_c, 0, 57, 95
2, 65280, Note_off_c, 0, 50, 95
2, 65280, Note_on_c, 0, 39, 95
2, 65520, Note_off_c, 0, 39, 95
2, 65760, Note_on_c, 0, 39, 95
2, 66000, Note_off_c, 0, 39, 95
2, 66000, Note_on_c, 0, 39, 95
2, 66180, Note_on_c, 1, 49, 95
2, 66240, Note_off_c, 0, 39, 95
2, 66240, Note_off_c, 1, 49, 95
2, 66240, Note_on_c, 1, 51, 95
2, 66240, Note_on_c, 0, 39, 95
2, 67200, Note_off_c, 1, 51, 95
2, 67200, Note_off_c, 0, 39, 95
2, 67200, Note_on_c, 0, 39, 95
2, 67440, Note_off_c, 0, 39, 95
2, 67680, Note_on_c, 0, 39, 95
2, 67920, Note_off_c, 0, 39, 95
2, 67920, Note_on_c, 0, 39, 95
2, 68160, Note_off_c, 0, 39, 95
2, 68160, Note_on_c, 0, 61, 95
2, 68160, Note_on_c, 0, 54, 95
2, 68400, Note_off_c, 0, 61, 95
2, 68400, Note_off_c, 0, 54, 95
2, 68400, Note_on_c, 0, 60, 95
2, 68400, Note_on_c, 0, 53, 95
2, 68640, Note_off_c, 0, 60, 95
2, 68640, Note_off_c, 0, 53, 95
2, 68640, Note_on_c, 0, 59, 95
2, 68640, Note_on_c, 0, 52, 95
2, 69120, Note_off_c, 0, 59, 95
2, 69120, Note_off_c, 0, 52, 95
2, 69120, Note_on_c, 0, 39, 95
2, 69360, Note_off_c, 0, 39, 95
2, 69600, Note_on_c, 0, 39, 95
2, 69840, Note_off_c, 0, 39, 95
2, 69840, Note_on_c, 0, 39, 95
2, 70020, Note_on_c, 1, 49, 95
2, 70080, Note_off_c, 0, 39, 95
2, 70080, Note_off_c, 1, 49, 95
2, 70080, Note_on_c, 1, 51, 95
2, 70080, Note_on_c, 0, 39, 95
2, 71040, Note_off_c, 1, 51, 95
2, 71040, Note_off_c, 0, 39, 95
2, 71040, Note_on_c, 0, 39, 95
2, 71280, Note_off_c, 0, 39, 95
2, 71520, Note_on_c, 0, 39, 95
2, 71760, Note_off_c, 0, 39, 95
2, 71760, Note_on_c, 0, 39, 95
2, 72000, Note_off_c, 0, 39, 95
2, 72000, Note_on_c, 0, 59, 95
2, 72000, Note_on_c, 0, 52, 95
2, 72240, Note_off_c, 0, 59, 95
2, 72240, Note_off_c, 0, 52, 95
2, 72240, Note_on_c, 0, 58, 95
2, 72240, Note_on_c, 0, 51, 95
2, 72480, Note_off_c, 0, 58, 95
2, 72480, Note_off_c, 0, 51, 95
2, 72480, Note_on_c, 0, 57, 95
2, 72480, Note_on_c, 0, 50, 95
2, 72960, Note_off_c, 0, 57, 95
2, 72960, Note_off_c, 0, 50, 95
2, 72960, Note_on_c, 0, 39, 95
2, 73200, Note_off_c, 0, 39, 95
2, 73440, Note_on_c, 0, 39, 95
2, 73680, Note_off_c, 0, 39, 95
2, 73680, Note_on_c, 0, 39, 95
2, 73860, Note_on_c, 1, 49, 95
2, 73920, Note_off_c, 0, 39, 95
2, 73920, Note_off_c, 1, 49, 95
2, 73920, Note_on_c, 1, 51, 95
2, 73920, Note_on_c, 0, 39, 95
2, 74880, Note_off_c, 1, 51, 95
2, 74880, Note_off_c, 0, 39, 95
2, 74880, Note_on_c, 0, 39, 95
2, 75120, Note_off_c, 0, 39, 95
2, 75120, Note_on_c, 0, 39, 95
2, 75360, Note_off_c, 0, 39, 95
2, 75360, Note_on_c, 0, 39, 95
2, 75600, Note_off_c, 0, 39, 95
2, 75600, Note_on_c, 0, 39, 95
2, 75840, Note_off_c, 0, 39, 95
2, 75840, Note_on_c, 0, 49, 95
2, 75840, Note_on_c, 0, 42, 95
2, 76080, Note_off_c, 0, 49, 95
2, 76080, Note_off_c, 0, 42, 95
2, 76080, Note_on_c, 0, 48, 95
2, 76080, Note_on_c, 0, 41, 95
2, 76320, Note_off_c, 0, 48, 95
2, 76320, Note_off_c, 0, 41, 95
2, 76320, Note_on_c, 0, 47, 95
2, 76320, Note_on_c, 0, 40, 95
2, 76800, Note_off_c, 0, 47, 95
2, 76800, Note_off_c, 0, 40, 95
2, 76800, Note_on_c, 0, 39, 95
2, 77040, Note_off_c, 0, 39, 95
2, 77280, Note_on_c, 0, 39, 95
2, 77520, Note_off_c, 0, 39, 95
2, 77520, Note_on_c, 0, 39, 95
2, 77700, Note_on_c, 1, 49, 95
2, 77760, Note_off_c, 0, 39, 95
2, 77760, Note_off_c, 1, 49, 95
2, 77760, Note_on_c, 1, 51, 95
2, 77760, Note_on_c, 0, 39, 95
2, 78720, Note_off_c, 1, 51, 95
2, 78720, Note_off_c, 0, 39, 95
2, 78720, Note_on_c, 0, 39, 95
2, 78960, Note_off_c, 0, 39, 95
2, 79200, Note_on_c, 0, 39, 95
2, 79440, Note_off_c, 0, 39, 95
2, 79440, Note_on_c, 0, 39, 95
2, 79680, Note_off_c, 0, 39, 95
2, 79680, Note_on_c, 0, 59, 95
2, 79680, Note_on_c, 0, 52, 95
2, 79920, Note_off_c, 0, 59, 95
2, 79920, Note_off_c, 0, 52, 95
2, 79920, Note_on_c, 0, 58, 95
2, 79920, Note_on_c, 0, 51, 95
2, 80160, Note_off_c, 0, 58, 95
2, 80160, Note_off_c, 0, 51, 95
2, 80160, Note_on_c, 0, 57, 95
2, 80160, Note_on_c, 0, 50, 95
2, 80640, Note_off_c, 0, 57, 95
2, 80640, Note_off_c, 0, 50, 95
2, 80640, Note_on_c, 0, 39, 95
2, 80880, Note_off_c, 0, 39, 95
2, 81120, Note_on_c, 0, 39, 95
2, 81360, Note_off_c, 0, 39, 95
2, 81360, Note_on_c, 0, 39, 95
2, 81540, Note_on_c, 1, 49, 95
2, 81600, Note_off_c, 0, 39, 95
2, 81600, Note_off_c, 1, 49, 95
2, 81600, Note_on_c, 1, 51, 95
2, 81600, Note_on_c, 0, 39, 95
2, 82560, Note_off_c, 1, 51, 95
2, 82560, Note_off_c, 0, 39, 95
2, 82560, Note_on_c, 0, 39, 95
2, 82800, Note_off_c, 0, 39, 95
2, 83040, Note_on_c, 0, 39, 95
2, 83280, Note_off_c, 0, 39, 95
2, 83280, Note_on_c, 0, 39, 95
2, 83520, Note_off_c, 0, 39, 95
2, 83520, Note_on_c, 0, 61, 95
2, 83520, Note_on_c, 0, 54, 95
2, 83760, Note_off_c, 0, 61, 95
2, 83760, Note_off_c, 0, 54, 95
2, 83760, Note_on_c, 0, 60, 95
2, 83760, Note_on_c, 0, 53, 95
2, 84000, Note_off_c, 0, 60, 95
2, 84000, Note_off_c, 0, 53, 95
2, 84000, Note_on_c, 0, 59, 95
2, 84000, Note_on_c, 0, 52, 95
2, 84480, Note_off_c, 0, 59, 95
2, 84480, Note_off_c, 0, 52, 95
2, 84480, Note_on_c, 0, 39, 95
2, 84720, Note_off_c, 0, 39, 95
2, 84960, Note_on_c, 0, 39, 95
2, 85200, Note_off_c, 0, 39, 95
2, 85200, Note_on_c, 0, 39, 95
2, 85380, Note_on_c, 1, 49, 95
2, 85440, Note_off_c, 0, 39, 95
2, 85440, Note_off_c, 1, 49, 95
2, 85440, Note_on_c, 1, 51, 95
2, 85440, Note_on_c, 0, 39, 95
2, 86400, Note_off_c, 1, 51, 95
2, 86400, Note_off_c, 0, 39, 95
2, 86400, Note_on_c, 0, 39, 95
2, 86640, Note_off_c, 0, 39, 95
2, 86880, Note_on_c, 0, 39, 95
2, 87120, Note_off_c, 0, 39, 95
2, 87120, Note_on_c, 0, 39, 95
2, 87360, Note_off_c, 0, 39, 95
2, 87360, Note_on_c, 0, 59, 95
2, 87360, Note_on_c, 0, 52, 95
2, 87600, Note_off_c, 0, 59, 95
2, 87600, Note_off_c, 0, 52, 95
2, 87600, Note_on_c, 0, 58, 95
2, 87600, Note_on_c, 0, 51, 95
2, 87840, Note_off_c, 0, 58, 95
2, 87840, Note_off_c, 0, 51, 95
2, 87840, Note_on_c, 0, 57, 95
2, 87840, Note_on_c, 0, 50, 95
2, 88320, Note_off_c, 0, 57, 95
2, 88320, Note_off_c, 0, 50, 95
2, 88320, Note_on_c, 0, 39, 95
2, 88560, Note_off_c, 0, 39, 95
2, 88800, Note_on_c, 0, 39, 95
2, 89040, Note_off_c, 0, 39, 95
2, 89040, Note_on_c, 0, 39, 95
2, 89220, Note_on_c, 1, 49, 95
2, 89280, Note_off_c, 0, 39, 95
2, 89280, Note_off_c, 1, 49, 95
2, 89280, Note_on_c, 1, 51, 95
2, 89280, Note_on_c, 0, 39, 95
2, 90240, Note_off_c, 1, 51, 95
2, 90240, Note_off_c, 0, 39, 95
2, 90240, Note_on_c, 0, 39, 95
2, 90480, Note_off_c, 0, 39, 95
2, 90480, Note_on_c, 0, 39, 95
2, 90720, Note_off_c, 0, 39, 95
2, 90720, Note_on_c, 0, 39, 95
2, 90960, Note_off_c, 0, 39, 95
2, 90960, Note_on_c, 0, 39, 95
2, 91200, Note_off_c, 0, 39, 95
2, 91200, Note_on_c, 0, 49, 95
2, 91200, Note_on_c, 0, 42, 95
2, 91440, Note_off_c, 0, 49, 95
2, 91440, Note_off_c, 0, 42, 95
2, 91440, Note_on_c, 0, 48, 95
2, 91440, Note_on_c, 0, 41, 95
2, 91680, Note_off_c, 0, 48, 95
2, 91680, Note_off_c, 0, 41, 95
2, 91680, Note_on_c, 0, 47, 95
2, 91680, Note_on_c, 0, 40, 95
2, 92160, Note_off_c, 0, 47, 95
2, 92160, Note_off_c, 0, 40, 95
2, 92160, Note_on_c, 0, 39, 95
2, 92400, Note_off_c, 0, 39, 95
2, 92640, Note_on_c, 0, 39, 95
2, 92880, Note_off_c, 0, 39, 95
2, 92880, Note_on_c, 0, 39, 95
2, 93060, Note_on_c, 1, 49, 95
2, 93120, Note_off_c, 0, 39, 95
2, 93120, Note_off_c, 1, 49, 95
2, 93120, Note_on_c, 1, 51, 95
2, 93120, Note_on_c, 0, 39, 95
2, 94080, Note_off_c, 1, 51, 95
2, 94080, Note_off_c, 0, 39, 95
2, 94080, Note_on_c, 0, 39, 95
2, 94320, Note_off_c, 0, 39, 95
2, 94560, Note_on_c, 0, 39, 95
2, 94800, Note_off_c, 0, 39, 95
2, 94800, Note_on_c, 0, 39, 95
2, 95040, Note_off_c, 0, 39, 95
2, 95040, Note_on_c, 0, 59, 95
2, 95040, Note_on_c, 0, 52, 95
2, 95280, Note_off_c, 0, 59, 95
2, 95280, Note_off_c, 0, 52, 95
2, 95280, Note_on_c, 0, 58, 95
2, 95280, Note_on_c, 0, 51, 95
2, 95520, Note_off_c, 0, 58, 95
2, 95520, Note_off_c, 0, 51, 95
2, 95520, Note_on_c, 0, 57, 95
2, 95520, Note_on_c, 0, 50, 95
2, 96000, Note_off_c, 0, 57, 95
2, 96000, Note_off_c, 0, 50, 95
2, 96000, Note_on_c, 0, 39, 95
2, 96240, Note_off_c, 0, 39, 95
2, 96480, Note_on_c, 0, 39, 95
2, 96720, Note_off_c, 0, 39, 95
2, 96720, Note_on_c, 0, 39, 95
2, 96900, Note_on_c, 1, 49, 95
2, 96960, Note_off_c, 0, 39, 95
2, 96960, Note_off_c, 1, 49, 95
2, 96960, Note_on_c, 1, 51, 95
2, 96960, Note_on_c, 0, 39, 95
2, 97920, Note_off_c, 1, 51, 95
2, 97920, Note_off_c, 0, 39, 95
2, 97920, Note_on_c, 0, 39, 95
2, 98160, Note_off_c, 0, 39, 95
2, 98400, Note_on_c, 0, 39, 95
2, 98640, Note_off_c, 0, 39, 95
2, 98640, Note_on_c, 0, 39, 95
2, 98880, Note_off_c, 0, 39, 95
2, 98880, Note_on_c, 0, 61, 95
2, 98880, Note_on_c, 0, 54, 95
2, 99120, Note_off_c, 0, 61, 95
2, 99120, Note_off_c, 0, 54, 95
2, 99120, Note_on_c, 0, 60, 95
2, 99120, Note_on_c, 0, 53, 95
2, 99360, Note_off_c, 0, 60, 95
2, 99360, Note_off_c, 0, 53, 95
2, 99360, Note_on_c, 0, 59, 95
2, 99360, Note_on_c, 0, 52, 95
2, 99840, Note_off_c, 0, 59, 95
2, 99840, Note_off_c, 0, 52, 95
2, 99840, Note_on_c, 0, 39, 95
2, 100080, Note_off_c, 0, 39, 95
2, 100320, Note_on_c, 0, 39, 95
2, 100560, Note_off_c, 0, 39, 95
2, 100560, Note_on_c, 0, 39, 95
2, 100740, Note_on_c, 1, 49, 95
2, 100800, Note_off_c, 0, 39, 95
2, 100800, Note_off_c, 1, 49, 95
2, 100800, Note_on_c, 1, 51, 95
2, 100800, Note_on_c, 0, 39, 95
2, 101760, Note_off_c, 1, 51, 95
2, 101760, Note_off_c, 0, 39, 95
2, 101760, Note_on_c, 0, 39, 95
2, 102000, Note_off_c, 0, 39, 95
2, 102240, Note_on_c, 0, 39, 95
2, 102480, Note_off_c, 0, 39, 95
2, 102480, Note_on_c, 0, 39, 95
2, 102720, Note_off_c, 0, 39, 95
2, 102720, Note_on_c, 0, 59, 95
2, 102720, Note_on_c, 0, 52, 95
2, 102960, Note_off_c, 0, 59, 95
2, 102960, Note_off_c, 0, 52, 95
2, 102960, Note_on_c, 0, 58, 95
2, 102960, Note_on_c, 0, 51, 95
2, 103200, Note_off_c, 0, 58, 95
2, 103200, Note_off_c, 0, 51, 95
2, 103200, Note_on_c, 0, 57, 95
2, 103200, Note_on_c, 0, 50, 95
2, 103680, Note_off_c, 0, 57, 95
2, 103680, Note_off_c, 0, 50, 95
2, 103680, Note_on_c, 0, 39, 95
2, 103920, Note_off_c, 0, 39, 95
2, 104160, Note_on_c, 0, 39, 95
2, 104400, Note_off_c, 0, 39, 95
2, 104400, Note_on_c, 0, 39, 95
2, 104580, Note_on_c, 1, 49, 95
2, 104640, Note_off_c, 0, 39, 95
2, 104640, Note_off_c, 1, 49, 95
2, 104640, Note_on_c, 1, 51, 95
2, 104640, Note_on_c, 0, 39, 95
2, 105600, Note_off_c, 1, 51, 95
2, 105600, Note_off_c, 0, 39, 95
2, 105600, Note_on_c, 0, 39, 95
2, 105840, Note_off_c, 0, 39, 95
2, 105840, Note_on_c, 0, 39, 95
2, 106080, Note_off_c, 0, 39, 95
2, 106080, Note_on_c, 0, 39, 95
2, 106320, Note_off_c, 0, 39, 95
2, 106320, Note_on_c, 0, 39, 95
2, 106560, Note_off_c, 0, 39, 95
2, 106560, Note_on_c, 0, 49, 95
2, 106560, Note_on_c, 0, 42, 95
2, 106800, Note_off_c, 0, 49, 95
2, 106800, Note_off_c, 0, 42, 95
2, 106800, Note_on_c, 0, 48, 95
2, 106800, Note_on_c, 0, 41, 95
2, 107040, Note_off_c, 0, 48, 95
2, 107040, Note_off_c, 0, 41, 95
2, 107040, Note_on_c, 0, 47, 95
2, 107040, Note_on_c, 0, 40, 95
2, 107520, Note_off_c, 0, 47, 95
2, 107520, Note_off_c, 0, 40, 95
2, 107520, Note_on_c, 0, 39, 95
2, 107760, Note_off_c, 0, 39, 95
2, 108000, Note_on_c, 0, 39, 95
2, 108240, Note_off_c, 0, 39, 95
2, 108240, Note_on_c, 0, 39, 95
2, 108420, Note_on_c, 1, 49, 95
2, 108480, Note_off_c, 0, 39, 95
2, 108480, Note_off_c, 1, 49, 95
2, 108480, Note_on_c, 1, 51, 95
2, 108480, Note_on_c, 0, 39, 95
2, 109440, Note_off_c, 1, 51, 95
2, 109440, Note_off_c, 0, 39, 95
2, 109440, Note_on_c, 0, 39, 95
2, 109680, Note_off_c, 0, 39, 95
2, 109920, Note_on_c, 0, 39, 95
2, 110160, Note_off_c, 0, 39, 95
2, 110160, Note_on_c, 0, 39, 95
2, 110400, Note_off_c, 0, 39, 95
2, 110400, Note_on_c, 0, 59, 95
2, 110400, Note_on_c, 0, 52, 95
2, 110640, Note_off_c, 0, 59, 95
2, 110640, Note_off_c, 0, 52, 95
2, 110640, Note_on_c, 0, 58, 95
2, 110640, Note_on_c, 0, 51, 95
2, 110880, Note_off_c, 0, 58, 95
2, 110880, Note_off_c, 0, 51, 95
2, 110880, Note_on_c, 0, 57, 95
2, 110880, Note_on_c, 0, 50, 95
2, 111360, Note_off_c, 0, 57, 95
2, 111360, Note_off_c, 0, 50, 95
2, 111360, Note_on_c, 0, 39, 95
2, 111600, Note_off_c, 0, 39, 95
2, 111840, Note_on_c, 0, 39, 95
2, 112080, Note_off_c, 0, 39, 95
2, 112080, Note_on_c, 0, 39, 95
2, 112260, Note_on_c, 1, 49, 95
2, 112320, Note_off_c, 0, 39, 95
2, 112320, Note_off_c, 1, 49, 95
2, 112320, Note_on_c, 1, 51, 95
2, 112320, Note_on_c, 0, 39, 95
2, 113280, Note_off_c, 1, 51, 95
2, 113280, Note_off_c, 0, 39, 95
2, 113280, Note_on_c, 0, 39, 95
2, 113520, Note_off_c, 0, 39, 95
2, 113760, Note_on_c, 0, 39, 95
2, 114000, Note_off_c, 0, 39, 95
2, 114000, Note_on_c, 0, 39, 95
2, 114240, Note_off_c, 0, 39, 95
2, 114240, Note_on_c, 0, 61, 95
2, 114240, Note_on_c, 0, 54, 95
2, 114480, Note_off_c, 0, 61, 95
2, 114480, Note_off_c, 0, 54, 95
2, 114480, Note_on_c, 0, 60, 95
2, 114480, Note_on_c, 0, 53, 95
2, 114720, Note_off_c, 0, 60, 95
2, 114720, Note_off_c, 0, 53, 95
2, 114720, Note_on_c, 0, 59, 95
2, 114720, Note_on_c, 0, 52, 95
2, 115200, Note_off_c, 0, 59, 95
2, 115200, Note_off_c, 0, 52, 95
2, 115200, Note_on_c, 0, 39, 95
2, 115440, Note_off_c, 0, 39, 95
2, 115680, Note_on_c, 0, 39, 95
2, 115920, Note_off_c, 0, 39, 95
2, 115920, Note_on_c, 0, 39, 95
2, 116100, Note_on_c, 1, 49, 95
2, 116160, Note_off_c, 0, 39, 95
2, 116160, Note_off_c, 1, 49, 95
2, 116160, Note_on_c, 1, 51, 95
2, 116160, Note_on_c, 0, 39, 95
2, 117120, Note_off_c, 1, 51, 95
2, 117120, Note_off_c, 0, 39, 95
2, 117120, Note_on_c, 0, 39, 95
2, 117360, Note_off_c, 0, 39, 95
2, 117600, Note_on_c, 0, 39, 95
2, 117840, Note_off_c, 0, 39, 95
2, 117840, Note_on_c, 0, 39, 95
2, 118080, Note_off_c, 0, 39, 95
2, 118080, Note_on_c, 0, 59, 95
2, 118080, Note_on_c, 0, 52, 95
2, 118320, Note_off_c, 0, 59, 95
2, 118320, Note_off_c, 0, 52, 95
2, 118320, Note_on_c, 0, 58, 95
2, 118320, Note_on_c, 0, 51, 95
2, 118560, Note_off_c, 0, 58, 95
2, 118560, Note_off_c, 0, 51, 95
2, 118560, Note_on_c, 0, 57, 95
2, 118560, Note_on_c, 0, 50, 95
2, 119040, Note_off_c, 0, 57, 95
2, 119040, Note_off_c, 0, 50, 95
2, 119040, Note_on_c, 0, 39, 95
2, 119280, Note_off_c, 0, 39, 95
2, 119520, Note_on_c, 0, 39, 95
2, 119760, Note_off_c, 0, 39, 95
2, 119760, Note_on_c, 0, 39, 95
2, 119940, Note_on_c, 1, 49, 95
2, 120000, Note_off_c, 0, 39, 95
2, 120000, Note_off_c, 1, 49, 95
2, 120000, Note_on_c, 1, 51, 95
2, 120000, Note_on_c, 0, 39, 95
2, 120960, Note_off_c, 1, 51, 95
2, 120960, Note_off_c, 0, 39, 95
2, 120960, Note_on_c, 0, 39, 95
2, 121200, Note_off_c, 0, 39, 95
2, 121200, Note_on_c, 0, 39, 95
2, 121440, Note_off_c, 0, 39, 95
2, 121440, Note_on_c, 0, 39, 95
2, 121680, Note_off_c, 0, 39, 95
2, 121680, Note_on_c, 0, 39, 95
2, 121920, Note_off_c, 0, 39, 95
2, 121920, Note_on_c, 0, 49, 95
2, 121920, Note_on_c, 0, 42, 95
2, 122160, Note_off_c, 0, 49, 95
2, 122160, Note_off_c, 0, 42, 95
2, 122160, Note_on_c, 0, 48, 95
2, 122160, Note_on_c, 0, 41, 95
2, 122400, Note_off_c, 0, 48, 95
2, 122400, Note_off_c, 0, 41, 95
2, 122400, Note_on_c, 0, 47, 95
2, 122400, Note_on_c, 0, 40, 95
2, 122880, Note_off_c, 0, 47, 95
2, 122880, Note_off_c, 0, 40, 95
2, 122880, Note_on_c, 0, 48, 95
2, 122880, Note_on_c, 0, 41, 95
2, 125760, Note_off_c, 0, 48, 95
2, 125760, Note_off_c, 0, 41, 95
2, 125760, Note_on_c, 0, 49, 95
2, 125760, Note_on_c, 0, 42, 95
2, 126720, Note_off_c, 0, 49, 95
2, 126720, Note_off_c, 0, 42, 95
2, 126720, Note_on_c, 0, 39, 95
2, 126960, Note_off_c, 0, 39, 95
2, 126960, Note_on_c, 0, 39, 95
2, 127200, Note_off_c, 0, 39, 95
2, 127200, Note_on_c, 0, 39, 95
2, 127440, Note_off_c, 0, 39, 95
2, 127440, Note_on_c, 0, 39, 95
2, 127680, Note_off_c, 0, 39, 95
2, 127680, Note_on_c, 0, 39, 95
2, 127920, Note_off_c, 0, 39, 95
2, 127920, Note_on_c, 0, 39, 95
2, 128160, Note_off_c, 0, 39, 95
2, 128160, Note_on_c, 0, 39, 95
2, 128400, Note_off_c, 0, 39, 95
2, 128400, Note_on_c, 0, 39, 95
2, 128640, Note_off_c, 0, 39, 95
2, 128640, Note_on_c, 0, 39, 95
2, 128880, Note_off_c, 0, 39, 95
2, 128880, Note_on_c, 0, 39, 95
2, 129120, Note_off_c, 0, 39, 95
2, 129120, Note_on_c, 0, 49, 95
2, 129120, Note_on_c, 0, 42, 95
2, 129600, Note_off_c, 0, 49, 95
2, 129600, Note_off_c, 0, 42, 95
2, 129600, Note_on_c, 0, 39, 95
2, 129840, Note_off_c, 0, 39, 95
2, 129840, Note_on_c, 0, 39, 95
2, 130080, Note_off_c, 0, 39, 95
2, 130080, Note_on_c, 0, 49, 95
2, 130080, Note_on_c, 0, 42, 95
2, 130560, Note_off_c, 0, 49, 95
2, 130560, Note_off_c, 0, 42, 95
2, 130560, Note_on_c, 0, 48, 95
2, 130560, Note_on_c, 0, 41, 95
2, 133440, Note_off_c, 0, 48, 95
2, 133440, Note_off_c, 0, 41, 95
2, 133440, Note_on_c, 0, 52, 95
2, 133440, Note_on_c, 0, 45, 95
2, 134400, Note_off_c, 0, 52, 95
2, 134400, Note_off_c, 0, 45, 95
2, 134400, Note_on_c, 0, 39, 95
2, 134640, Note_off_c, 0, 39, 95
2, 134640, Note_on_c, 0, 39, 95
2, 134880, Note_off_c, 0, 39, 95
2, 134880, Note_on_c, 0, 39, 95
2, 135120, Note_off_c, 0, 39, 95
2, 135120, Note_on_c, 0, 39, 95
2, 135360, Note_off_c, 0, 39, 95
2, 135360, Note_on_c, 0, 39, 95
2, 135600, Note_off_c, 0, 39, 95
2, 135600, Note_on_c, 0, 39, 95
2, 135840, Note_off_c, 0, 39, 95
2, 135840, Note_on_c, 0, 39, 95
2, 136080, Note_off_c, 0, 39, 95
2, 136080, Note_on_c, 0, 39, 95
2, 136320, Note_off_c, 0, 39, 95
2, 136320, Note_on_c, 0, 39, 95
2, 136560, Note_off_c, 0, 39, 95
2, 136560, Note_on_c, 0, 39, 95
2, 136800, Note_off_c, 0, 39, 95
2, 136800, Note_on_c, 0, 46, 95
2, 136800, Note_on_c, 0, 39, 95
2, 137280, Note_off_c, 0, 46, 95
2, 137280, Note_off_c, 0, 39, 95
2, 137280, Note_on_c, 0, 39, 95
2, 137520, Note_off_c, 0, 39, 95
2, 137520, Note_on_c, 0, 39, 95
2, 137760, Note_off_c, 0, 39, 95
2, 137760, Note_on_c, 0, 47, 95
2, 137760, Note_on_c, 0, 40, 95
2, 138240, Note_off_c, 0, 47, 95
2, 138240, Note_off_c, 0, 40, 95
2, 138240, Note_on_c, 0, 48, 95
2, 138240, Note_on_c, 0, 41, 95
2, 141120, Note_off_c, 0, 48, 95
2, 141120, Note_off_c, 0, 41, 95
2, 141120, Note_on_c, 0, 49, 95
2, 141120, Note_on_c, 0, 42, 95
2, 142080, Note_off_c, 0, 49, 95
2, 142080, Note_off_c, 0, 42, 95
2, 142080, Note_on_c, 0, 39, 95
2, 142320, Note_off_c, 0, 39, 95
2, 142320, Note_on_c, 0, 39, 95
2, 142560, Note_off_c, 0, 39, 95
2, 142560, Note_on_c, 0, 39, 95
2, 142800, Note_off_c, 0, 39, 95
2, 142800, Note_on_c, 0, 39, 95
2, 143040, Note_off_c, 0, 39, 95
2, 143040, Note_on_c, 0, 39, 95
2, 143280, Note_off_c, 0, 39, 95
2, 143280, Note_on_c, 0, 39, 95
2, 143520, Note_off_c, 0, 39, 95
2, 143520, Note_on_c, 0, 39, 95
2, 143760, Note_off_c, 0, 39, 95
2, 143760, Note_on_c, 0, 39, 95
2, 144000, Note_off_c, 0, 39, 95
2, 144000, Note_on_c, 0, 39, 95
2, 144240, Note_off_c, 0, 39, 95
2, 144240, Note_on_c, 0, 39, 95
2, 144480, Note_off_c, 0, 39, 95
2, 144480, Note_on_c, 0, 49, 95
2, 144480, Note_on_c, 0, 42, 95
2, 144960, Note_off_c, 0, 49, 95
2, 144960, Note_off_c, 0, 42, 95
2, 144960, Note_on_c, 0, 39, 95
2, 145200, Note_off_c, 0, 39, 95
2, 145200, Note_on_c, 0, 39, 95
2, 145440, Note_off_c, 0, 39, 95
2, 145440, Note_on_c, 0, 49, 95
2, 145440, Note_on_c, 0, 42, 95
2, 145920, Note_off_c, 0, 49, 95
2, 145920, Note_off_c, 0, 42, 95
2, 145920, Note_on_c, 0, 48, 95
2, 145920, Note_on_c, 0, 41, 95
2, 147840, Note_off_c, 0, 48, 95
2, 147840, Note_off_c, 0, 41, 95
2, 147840, Note_on_c, 0, 51, 95
2, 147840, Note_on_c, 0, 44, 95
2, 148800, Note_off_c, 0, 51, 95
2, 148800, Note_off_c, 0, 44, 95
2, 148800, Note_on_c, 0, 50, 95
2, 148800, Note_on_c, 0, 43, 95
2, 149280, Note_off_c, 0, 50, 95
2, 149280, Note_off_c, 0, 43, 95
2, 149280, Note_on_c, 0, 49, 95
2, 149280, Note_on_c, 0, 42, 95
2, 149760, Note_off_c, 0, 49, 95
2, 149760, Note_off_c, 0, 42, 95
2, 149760, Note_on_c, 0, 39, 95
2, 150000, Note_off_c, 0, 39, 95
2, 150000, Note_on_c, 0, 39, 95
2, 150240, Note_off_c, 0, 39, 95
2, 150480, Note_on_c, 0, 39, 95
2, 150660, Note_on_c, 1, 49, 95
2, 150720, Note_off_c, 0, 39, 95
2, 150720, Note_off_c, 1, 49, 95
2, 150720, Note_on_c, 1, 51, 95
2, 150720, Note_on_c, 0, 39, 95
2, 151200, Note_off_c, 1, 51, 95
2, 151200, Note_off_c, 0, 39, 95
2, 151200, Note_on_c, 0, 39, 95
2, 151440, Note_off_c, 0, 39, 95
2, 151440, Note_on_c, 0, 39, 95
2, 151680, Note_off_c, 0, 39, 95
2, 151920, Note_on_c, 0, 39, 95
2, 152160, Note_off_c, 0, 39, 95
2, 152160, Note_on_c, 0, 59, 95
2, 152160, Note_on_c, 0, 52, 95
2, 152640, Note_off_c, 0, 59, 95
2, 152640, Note_off_c, 0, 52, 95
2, 152640, Note_on_c, 0, 39, 95
2, 152880, Note_off_c, 0, 39, 95
2, 152880, Note_on_c, 0, 39, 95
2, 153120, Note_off_c, 0, 39, 95
2, 153120, Note_on_c, 0, 57, 95
2, 153120, Note_on_c, 0, 50, 95
2, 153600, Note_off_c, 0, 57, 95
2, 153600, Note_off_c, 0, 50, 95
2, 153600, Note_on_c, 0, 39, 95
2, 153840, Note_off_c, 0, 39, 95
2, 153840, Note_on_c, 0, 39, 95
2, 154080, Note_off_c, 0, 39, 95
2, 154320, Note_on_c, 0, 39, 95
2, 154500, Note_on_c, 1, 49, 95
2, 154560, Note_off_c, 0, 39, 95
2, 154560, Note_off_c, 1, 49, 95
2, 154560, Note_on_c, 1, 51, 95
2, 154560, Note_on_c, 0, 39, 95
2, 155040, Note_off_c, 1, 51, 95
2, 155040, Note_off_c, 0, 39, 95
2, 155040, Note_on_c, 0, 39, 95
2, 155280, Note_off_c, 0, 39, 95
2, 155280, Note_on_c, 0, 39, 95
2, 155520, Note_off_c, 0, 39, 95
2, 155760, Note_on_c, 0, 39, 95
2, 156000, Note_off_c, 0, 39, 95
2, 156000, Note_on_c, 0, 61, 95
2, 156000, Note_on_c, 0, 54, 95
2, 156480, Note_off_c, 0, 61, 95
2, 156480, Note_off_c, 0, 54, 95
2, 156480, Note_on_c, 0, 39, 95
2, 156720, Note_off_c, 0, 39, 95
2, 156720, Note_on_c, 0, 39, 95
2, 156960, Note_off_c, 0, 39, 95
2, 156960, Note_on_c, 0, 60, 95
2, 156960, Note_on_c, 0, 53, 95
2, 157440, Note_off_c, 0, 60, 95
2, 157440, Note_off_c, 0, 53, 95
2, 157440, Note_on_c, 0, 39, 95
2, 157680, Note_off_c, 0, 39, 95
2, 157680, Note_on_c, 0, 39, 95
2, 157920, Note_off_c, 0, 39, 95
2, 158160, Note_on_c, 0, 39, 95
2, 158340, Note_on_c, 1, 49, 95
2, 158400, Note_off_c, 0, 39, 95
2, 158400, Note_off_c, 1, 49, 95
2, 158400, Note_on_c, 1, 51, 95
2, 158400, Note_on_c, 0, 39, 95
2, 158880, Note_off_c, 1, 51, 95
2, 158880, Note_off_c, 0, 39, 95
2, 158880, Note_on_c, 0, 39, 95
2, 159120, Note_off_c, 0, 39, 95
2, 159120, Note_on_c, 0, 39, 95
2, 159360, Note_off_c, 0, 39, 95
2, 159600, Note_on_c, 0, 39, 95
2, 159840, Note_off_c, 0, 39, 95
2, 159840, Note_on_c, 0, 59, 95
2, 159840, Note_on_c, 0, 52, 95
2, 160320, Note_off_c, 0, 59, 95
2, 160320, Note_off_c, 0, 52, 95
2, 160320, Note_on_c, 0, 39, 95
2, 160560, Note_off_c, 0, 39, 95
2, 160560, Note_on_c, 0, 39, 95
2, 160800, Note_off_c, 0, 39, 95
2, 160800, Note_on_c, 0, 57, 95
2, 160800, Note_on_c, 0, 50, 95
2, 161280, Note_off_c, 0, 57, 95
2, 161280, Note_off_c, 0, 50, 95
2, 161280, Note_on_c, 0, 39, 95
2, 161520, Note_off_c, 0, 39, 95
2, 161520, Note_on_c, 0, 39, 95
2, 161760, Note_off_c, 0, 39, 95
2, 162000, Note_on_c, 0, 39, 95
2, 162180, Note_on_c, 1, 49, 95
2, 162240, Note_off_c, 0, 39, 95
2, 162240, Note_off_c, 1, 49, 95
2, 162240, Note_on_c, 1, 51, 95
2, 162240, Note_on_c, 0, 39, 95
2, 162720, Note_off_c, 1, 51, 95
2, 162720, Note_off_c, 0, 39, 95
2, 162720, Note_on_c, 0, 39, 95
2, 162960, Note_off_c, 0, 39, 95
2, 162960, Note_on_c, 0, 39, 95
2, 163200, Note_off_c, 0, 39, 95
2, 163440, Note_on_c, 0, 39, 95
2, 163680, Note_off_c, 0, 39, 95
2, 163680, Note_on_c, 0, 49, 95
2, 163680, Note_on_c, 0, 42, 95
2, 164160, Note_off_c, 0, 49, 95
2, 164160, Note_off_c, 0, 42, 95
2, 164160, Note_on_c, 0, 39, 95
2, 164400, Note_off_c, 0, 39, 95
2, 164400, Note_on_c, 0, 39, 95
2, 164640, Note_off_c, 0, 39, 95
2, 164640, Note_on_c, 0, 48, 95
2, 164640, Note_on_c, 0, 41, 95
2, 165120, Note_off_c, 0, 48, 95
2, 165120, Note_off_c, 0, 41, 95
2, 165120, Note_on_c, 0, 39, 95
2, 165360, Note_off_c, 0, 39, 95
2, 165360, Note_on_c, 0, 39, 95
2, 165600, Note_off_c, 0, 39, 95
2, 165840, Note_on_c, 0, 39, 95
2, 166020, Note_on_c, 1, 49, 95
2, 166080, Note_off_c, 0, 39, 95
2, 166080, Note_off_c, 1, 49, 95
2, 166080, Note_on_c, 1, 51, 95
2, 166080, Note_on_c, 0, 39, 95
2, 166560, Note_off_c, 1, 51, 95
2, 166560, Note_off_c, 0, 39, 95
2, 166560, Note_on_c, 0, 39, 95
2, 166800, Note_off_c, 0, 39, 95
2, 166800, Note_on_c, 0, 39, 95
2, 167040, Note_off_c, 0, 39, 95
2, 167280, Note_on_c, 0, 39, 95
2, 167520, Note_off_c, 0, 39, 95
2, 167520, Note_on_c, 0, 59, 95
2, 167520, Note_on_c, 0, 52, 95
2, 168000, Note_off_c, 0, 59, 95
2, 168000, Note_off_c, 0, 52, 95
2, 168000, Note_on_c, 0, 39, 95
2, 168240, Note_off_c, 0, 39, 95
2, 168240, Note_on_c, 0, 39, 95
2, 168480, Note_off_c, 0, 39, 95
2, 168480, Note_on_c, 0, 57, 95
2, 168480, Note_on_c, 0, 50, 95
2, 168960, Note_off_c, 0, 57, 95
2, 168960, Note_off_c, 0, 50, 95
2, 168960, Note_on_c, 0, 39, 95
2, 169200, Note_off_c, 0, 39, 95
2, 169200, Note_on_c, 0, 39, 95
2, 169440, Note_off_c, 0, 39, 95
2, 169680, Note_on_c, 0, 39, 95
2, 169860, Note_on_c, 1, 49, 95
2, 169920, Note_off_c, 0, 39, 95
2, 169920, Note_off_c, 1, 49, 95
2, 169920, Note_on_c, 1, 51, 95
2, 169920, Note_on_c, 0, 39, 95
2, 170400, Note_off_c, 1, 51, 95
2, 170400, Note_off_c, 0, 39, 95
2, 170400, Note_on_c, 0, 39, 95
2, 170640, Note_off_c, 0, 39, 95
2, 170640, Note_on_c, 0, 39, 95
2, 170880, Note_off_c, 0, 39, 95
2, 171120, Note_on_c, 0, 39, 95
2, 171360, Note_off_c, 0, 39, 95
2, 171360, Note_on_c, 0, 61, 95
2, 171360, Note_on_c, 0, 54, 95
2, 171840, Note_off_c, 0, 61, 95
2, 171840, Note_off_c, 0, 54, 95
2, 171840, Note_on_c, 0, 39, 95
2, 172080, Note_off_c, 0, 39, 95
2, 172080, Note_on_c, 0, 39, 95
2, 172320, Note_off_c, 0, 39, 95
2, 172320, Note_on_c, 0, 60, 95
2, 172320, Note_on_c, 0, 53, 95
2, 172800, Note_off_c, 0, 60, 95
2, 172800, Note_off_c, 0, 53, 95
2, 172800, Note_on_c, 0, 39, 95
2, 173040, Note_off_c, 0, 39, 95
2, 173040, Note_on_c, 0, 39, 95
2, 173280, Note_off_c, 0, 39, 95
2, 173520, Note_on_c, 0, 39, 95
2, 173700, Note_on_c, 1, 49, 95
2, 173760, Note_off_c, 0, 39, 95
2, 173760, Note_off_c, 1, 49, 95
2, 173760, Note_on_c, 1, 51, 95
2, 173760, Note_on_c, 0, 39, 95
2, 174240, Note_off_c, 1, 51, 95
2, 174240, Note_off_c, 0, 39, 95
2, 174240, Note_on_c, 0, 39, 95
2, 174480, Note_off_c, 0, 39, 95
2, 174480, Note_on_c, 0, 39, 95
2, 174720, Note_off_c, 0, 39, 95
2, 174960, Note_on_c, 0, 39, 95
2, 175200, Note_off_c, 0, 39, 95
2, 175200, Note_on_c, 0, 59, 95
2, 175200, Note_on_c, 0, 52, 95
2, 175680, Note_off_c, 0, 59, 95
2, 175680, Note_off_c, 0, 52, 95
2, 175680, Note_on_c, 0, 39, 95
2, 175920, Note_off_c, 0, 39, 95
2, 175920, Note_on_c, 0, 39, 95
2, 176160, Note_off_c, 0, 39, 95
2, 176160, Note_on_c, 0, 57, 95
2, 176160, Note_on_c, 0, 50, 95
2, 176640, Note_off_c, 0, 57, 95
2, 176640, Note_off_c, 0, 50, 95
2, 176640, Note_on_c, 0, 39, 95
2, 176880, Note_off_c, 0, 39, 95
2, 176880, Note_on_c, 0, 39, 95
2, 177120, Note_off_c, 0, 39, 95
2, 177360, Note_on_c, 0, 39, 95
2, 177540, Note_on_c, 1, 49, 95
2, 177600, Note_off_c, 0, 39, 95
2, 177600, Note_off_c, 1, 49, 95
2, 177600, Note_on_c, 1, 51, 95
2, 177600, Note_on_c, 0, 39, 95
2, 178080, Note_off_c, 1, 51, 95
2, 178080, Note_off_c, 0, 39, 95
2, 178080, Note_on_c, 0, 39, 95
2, 178320, Note_off_c, 0, 39, 95
2, 178320, Note_on_c, 0, 39, 95
2, 178560, Note_off_c, 0, 39, 95
2, 178800, Note_on_c, 0, 39, 95
2, 179040, Note_off_c, 0, 39, 95
2, 179040, Note_on_c, 0, 49, 95
2, 179040, Note_on_c, 0, 42, 95
2, 179520, Note_off_c, 0, 49, 95
2, 179520, Note_off_c, 0, 42, 95
2, 179520, Note_on_c, 0, 39, 95
2, 179760, Note_off_c, 0, 39, 95
2, 179760, Note_on_c, 0, 39, 95
2, 180000, Note_off_c, 0, 39, 95
2, 180000, Note_on_c, 0, 48, 95
2, 180000, Note_on_c, 0, 41, 95
2, 180480, Note_off_c, 0, 48, 95
2, 180480, Note_off_c, 0, 41, 95
2, 180480, Note_on_c, 0, 39, 95
2, 180720, Note_off_c, 0, 39, 95
2, 180960, Note_on_c, 0, 39, 95
2, 181200, Note_off_c, 0, 39, 95
2, 181200, Note_on_c, 0, 39, 95
2, 181380, Note_on_c, 1, 49, 95
2, 181440, Note_off_c, 0, 39, 95
2, 181440, Note_off_c, 1, 49, 95
2, 181440, Note_on_c, 1, 51, 95
2, 181440, Note_on_c, 0, 39, 95
2, 182400, Note_off_c, 1, 51, 95
2, 182400, Note_off_c, 0, 39, 95
2, 182400, Note_on_c, 0, 39, 95
2, 182640, Note_off_c, 0, 39, 95
2, 182880, Note_on_c, 0, 39, 95
2, 183120, Note_off_c, 0, 39, 95
2, 183120, Note_on_c, 0, 39, 95
2, 183360, Note_off_c, 0, 39, 95
2, 183360, Note_on_c, 0, 59, 95
2, 183360, Note_on_c, 0, 52, 95
2, 183600, Note_off_c, 0, 59, 95
2, 183600, Note_off_c, 0, 52, 95
2, 183600, Note_on_c, 0, 58, 95
2, 183600, Note_on_c, 0, 51, 95
2, 183840, Note_off_c, 0, 58, 95
2, 183840, Note_off_c, 0, 51, 95
2, 183840, Note_on_c, 0, 57, 95
2, 183840, Note_on_c, 0, 50, 95
2, 184320, Note_off_c, 0, 57, 95
2, 184320, Note_off_c, 0, 50, 95
2, 184320, Note_on_c, 0, 39, 95
2, 184560, Note_off_c, 0, 39, 95
2, 184800, Note_on_c, 0, 39, 95
2, 185040, Note_off_c, 0, 39, 95
2, 185040, Note_on_c, 0, 39, 95
2, 185220, Note_on_c, 1, 49, 95
2, 185280, Note_off_c, 0, 39, 95
2, 185280, Note_off_c, 1, 49, 95
2, 185280, Note_on_c, 1, 51, 95
2, 185280, Note_on_c, 0, 39, 95
2, 186240, Note_off_c, 1, 51, 95
2, 186240, Note_off_c, 0, 39, 95
2, 186240, Note_on_c, 0, 39, 95
2, 186480, Note_off_c, 0, 39, 95
2, 186720, Note_on_c, 0, 39, 95
2, 186960, Note_off_c, 0, 39, 95
2, 186960, Note_on_c, 0, 39, 95
2, 187200, Note_off_c, 0, 39, 95
2, 187200, Note_on_c, 0, 61, 95
2, 187200, Note_on_c, 0, 54, 95
2, 187440, Note_off_c, 0, 61, 95
2, 187440, Note_off_c, 0, 54, 95
2, 187440, Note_on_c, 0, 60, 95
2, 187440, Note_on_c, 0, 53, 95
2, 187680, Note_off_c, 0, 60, 95
2, 187680, Note_off_c, 0, 53, 95
2, 187680, Note_on_c, 0, 59, 95
2, 187680, Note_on_c, 0, 52, 95
2, 188160, Note_off_c, 0, 59, 95
2, 188160, Note_off_c, 0, 52, 95
2, 188160, Note_on_c, 0, 39, 95
2, 188400, Note_off_c, 0, 39, 95
2, 188640, Note_on_c, 0, 39, 95
2, 188880, Note_off_c, 0, 39, 95
2, 188880, Note_on_c, 0, 39, 95
2, 189060, Note_on_c, 1, 49, 95
2, 189120, Note_off_c, 0, 39, 95
2, 189120, Note_off_c, 1, 49, 95
2, 189120, Note_on_c, 1, 51, 95
2, 189120, Note_on_c, 0, 39, 95
2, 190080, Note_off_c, 1, 51, 95
2, 190080, Note_off_c, 0, 39, 95
2, 190080, Note_on_c, 0, 39, 95
2, 190320, Note_off_c, 0, 39, 95
2, 190560, Note_on_c, 0, 39, 95
2, 190800, Note_off_c, 0, 39, 95
2, 190800, Note_on_c, 0, 39, 95
2, 191040, Note_off_c, 0, 39, 95
2, 191040, Note_on_c, 0, 59, 95
2, 191040, Note_on_c, 0, 52, 95
2, 191280, Note_off_c, 0, 59, 95
2, 191280, Note_off_c, 0, 52, 95
2, 191280, Note_on_c, 0, 58, 95
2, 191280, Note_on_c, 0, 51, 95
2, 191520, Note_off_c, 0, 58, 95
2, 191520, Note_off_c, 0, 51, 95
2, 191520, Note_on_c, 0, 57, 95
2, 191520, Note_on_c, 0, 50, 95
2, 192000, Note_off_c, 0, 57, 95
2, 192000, Note_off_c, 0, 50, 95
2, 192000, Note_on_c, 0, 39, 95
2, 192240, Note_off_c, 0, 39, 95
2, 192480, Note_on_c, 0, 39, 95
2, 192720, Note_off_c, 0, 39, 95
2, 192720, Note_on_c, 0, 39, 95
2, 192900, Note_on_c, 1, 49, 95
2, 192960, Note_off_c, 0, 39, 95
2, 192960, Note_off_c, 1, 49, 95
2, 192960, Note_on_c, 1, 51, 95
2, 192960, Note_on_c, 0, 39, 95
2, 193920, Note_off_c, 1, 51, 95
2, 193920, Note_off_c, 0, 39, 95
2, 193920, Note_on_c, 0, 39, 95
2, 194160, Note_off_c, 0, 39, 95
2, 194160, Note_on_c, 0, 39, 95
2, 194400, Note_off_c, 0, 39, 95
2, 194400, Note_on_c, 0, 39, 95
2, 194640, Note_off_c, 0, 39, 95
2, 194640, Note_on_c, 0, 39, 95
2, 194880, Note_off_c, 0, 39, 95
2, 194880, Note_on_c, 0, 49, 95
2, 194880, Note_on_c, 0, 42, 95
2, 195120, Note_off_c, 0, 49, 95
2, 195120, Note_off_c, 0, 42, 95
2, 195120, Note_on_c, 0, 48, 95
2, 195120, Note_on_c, 0, 41, 95
2, 195360, Note_off_c, 0, 48, 95
2, 195360, Note_off_c, 0, 41, 95
2, 195360, Note_on_c, 0, 47, 95
2, 195360, Note_on_c, 0, 40, 95
2, 195840, Note_off_c, 0, 47, 95
2, 195840, Note_off_c, 0, 40, 95
2, 195840, Note_on_c, 0, 39, 95
2, 196080, Note_off_c, 0, 39, 95
2, 196320, Note_on_c, 0, 39, 95
2, 196560, Note_off_c, 0, 39, 95
2, 196560, Note_on_c, 0, 39, 95
2, 196740, Note_on_c, 1, 49, 95
2, 196800, Note_off_c, 0, 39, 95
2, 196800, Note_off_c, 1, 49, 95
2, 196800, Note_on_c, 1, 51, 95
2, 196800, Note_on_c, 0, 39, 95
2, 197760, Note_off_c, 1, 51, 95
2, 197760, Note_off_c, 0, 39, 95
2, 197760, Note_on_c, 0, 39, 95
2, 198000, Note_off_c, 0, 39, 95
2, 198240, Note_on_c, 0, 39, 95
2, 198480, Note_off_c, 0, 39, 95
2, 198480, Note_on_c, 0, 39, 95
2, 198720, Note_off_c, 0, 39, 95
2, 198720, Note_on_c, 0, 59, 95
2, 198720, Note_on_c, 0, 52, 95
2, 198960, Note_off_c, 0, 59, 95
2, 198960, Note_off_c, 0, 52, 95
2, 198960, Note_on_c, 0, 58, 95
2, 198960, Note_on_c, 0, 51, 95
2, 199200, Note_off_c, 0, 58, 95
2, 199200, Note_off_c, 0, 51, 95
2, 199200, Note_on_c, 0, 57, 95
2, 199200, Note_on_c, 0, 50, 95
2, 199680, Note_off_c, 0, 57, 95
2, 199680, Note_off_c, 0, 50, 95
2, 199680, Note_on_c, 0, 39, 95
2, 199920, Note_off_c, 0, 39, 95
2, 200160, Note_on_c, 0, 39, 95
2, 200400, Note_off_c, 0, 39, 95
2, 200400, Note_on_c, 0, 39, 95
2, 200580, Note_on_c, 1, 49, 95
2, 200640, Note_off_c, 0, 39, 95
2, 200640, Note_off_c, 1, 49, 95
2, 200640, Note_on_c, 1, 51, 95
2, 200640, Note_on_c, 0, 39, 95
2, 201600, Note_off_c, 1, 51, 95
2, 201600, Note_off_c, 0, 39, 95
2, 201600, Note_on_c, 0, 39, 95
2, 201840, Note_off_c, 0, 39, 95
2, 202080, Note_on_c, 0, 39, 95
2, 202320, Note_off_c, 0, 39, 95
2, 202320, Note_on_c, 0, 39, 95
2, 202560, Note_off_c, 0, 39, 95
2, 202560, Note_on_c, 0, 61, 95
2, 202560, Note_on_c, 0, 54, 95
2, 202800, Note_off_c, 0, 61, 95
2, 202800, Note_off_c, 0, 54, 95
2, 202800, Note_on_c, 0, 60, 95
2, 202800, Note_on_c, 0, 53, 95
2, 203040, Note_off_c, 0, 60, 95
2, 203040, Note_off_c, 0, 53, 95
2, 203040, Note_on_c, 0, 59, 95
2, 203040, Note_on_c, 0, 52, 95
2, 203520, Note_off_c, 0, 59, 95
2, 203520, Note_off_c, 0, 52, 95
2, 203520, Note_on_c, 0, 39, 95
2, 203760, Note_off_c, 0, 39, 95
2, 204000, Note_on_c, 0, 39, 95
2, 204240, Note_off_c, 0, 39, 95
2, 204240, Note_on_c, 0, 39, 95
2, 204420, Note_on_c, 1, 49, 95
2, 204480, Note_off_c, 0, 39, 95
2, 204480, Note_off_c, 1, 49, 95
2, 204480, Note_on_c, 1, 51, 95
2, 204480, Note_on_c, 0, 39, 95
2, 205440, Note_off_c, 1, 51, 95
2, 205440, Note_off_c, 0, 39, 95
2, 205440, Note_on_c, 0, 39, 95
2, 205680, Note_off_c, 0, 39, 95
2, 205920, Note_on_c, 0, 39, 95
2, 206160, Note_off_c, 0, 39, 95
2, 206160, Note_on_c, 0, 39, 95
2, 206400, Note_off_c, 0, 39, 95
2, 206400, Note_on_c, 0, 59, 95
2, 206400, Note_on_c, 0, 52, 95
2, 206640, Note_off_c, 0, 59, 95
2, 206640, Note_off_c, 0, 52, 95
2, 206640, Note_on_c, 0, 58, 95
2, 206640, Note_on_c, 0, 51, 95
2, 206880, Note_off_c, 0, 58, 95
2, 206880, Note_off_c, 0, 51, 95
2, 206880, Note_on_c, 0, 57, 95
2, 206880, Note_on_c, 0, 50, 95
2, 207360, Note_off_c, 0, 57, 95
2, 207360, Note_off_c, 0, 50, 95
2, 207360, Note_on_c, 0, 39, 95
2, 207600, Note_off_c, 0, 39, 95
2, 207840, Note_on_c, 0, 39, 95
2, 208080, Note_off_c, 0, 39, 95
2, 208080, Note_on_c, 0, 39, 95
2, 208260, Note_on_c, 1, 49, 95
2, 208320, Note_off_c, 0, 39, 95
2, 208320, Note_off_c, 1, 49, 95
2, 208320, Note_on_c, 1, 51, 95
2, 208320, Note_on_c, 0, 39, 95
2, 209280, Note_off_c, 1, 51, 95
2, 209280, Note_off_c, 0, 39, 95
2, 209280, Note_on_c, 0, 39, 95
2, 209520, Note_off_c, 0, 39, 95
2, 209520, Note_on_c, 0, 39, 95
2, 209760, Note_off_c, 0, 39, 95
2, 209760, Note_on_c, 0, 39, 95
2, 210000, Note_off_c, 0, 39, 95
2, 210000, Note_on_c, 0, 39, 95
2, 210240, Note_off_c, 0, 39, 95
2, 210240, Note_on_c, 0, 49, 95
2, 210240, Note_on_c, 0, 42, 95
2, 210480, Note_off_c, 0, 49, 95
2, 210480, Note_off_c, 0, 42, 95
2, 210480, Note_on_c, 0, 48, 95
2, 210480, Note_on_c, 0, 41, 95
2, 210720, Note_off_c, 0, 48, 95
2, 210720, Note_off_c, 0, 41, 95
2, 210720, Note_on_c, 0, 47, 95
2, 210720, Note_on_c, 0, 40, 95
2, 211200, Note_off_c, 0, 47, 95
2, 211200, Note_off_c, 0, 40, 95
2, 211200, Note_on_c, 0, 48, 95
2, 211200, Note_on_c, 0, 41, 95
2, 214080, Note_off_c, 0, 48, 95
2, 214080, Note_off_c, 0, 41, 95
2, 214080, Note_on_c, 0, 49, 95
2, 214080, Note_on_c, 0, 42, 95
2, 215040, Note_off_c, 0, 49, 95
2, 215040, Note_off_c, 0, 42, 95
2, 215040, Note_on_c, 0, 39, 95
2, 215280, Note_off_c, 0, 39, 95
2, 215280, Note_on_c, 0, 39, 95
2, 215520, Note_off_c, 0, 39, 95
2, 215520, Note_on_c, 0, 39, 95
2, 215760, Note_off_c, 0, 39, 95
2, 215760, Note_on_c, 0, 39, 95
2, 216000, Note_off_c, 0, 39, 95
2, 216000, Note_on_c, 0, 39, 95
2, 216240, Note_off_c, 0, 39, 95
2, 216240, Note_on_c, 0, 39, 95
2, 216480, Note_off_c, 0, 39, 95
2, 216480, Note_on_c, 0, 39, 95
2, 216720, Note_off_c, 0, 39, 95
2, 216720, Note_on_c, 0, 39, 95
2, 216960, Note_off_c, 0, 39, 95
2, 216960, Note_on_c, 0, 39, 95
2, 217200, Note_off_c, 0, 39, 95
2, 217200, Note_on_c, 0, 39, 95
2, 217440, Note_off_c, 0, 39, 95
2, 217440, Note_on_c, 0, 49, 95
2, 217440, Note_on_c, 0, 42, 95
2, 217920, Note_off_c, 0, 49, 95
2, 217920, Note_off_c, 0, 42, 95
2, 217920, Note_on_c, 0, 39, 95
2, 218160, Note_off_c, 0, 39, 95
2, 218160, Note_on_c, 0, 39, 95
2, 218400, Note_off_c, 0, 39, 95
2, 218400, Note_on_c, 0, 49, 95
2, 218400, Note_on_c, 0, 42, 95
2, 218880, Note_off_c, 0, 49, 95
2, 218880, Note_off_c, 0, 42, 95
2, 218880, Note_on_c, 0, 48, 95
2, 218880, Note_on_c, 0, 41, 95
2, 221760, Note_off_c, 0, 48, 95
2, 221760, Note_off_c, 0, 41, 95
2, 221760, Note_on_c, 0, 52, 95
2, 221760, Note_on_c, 0, 45, 95
2, 222720, Note_off_c, 0, 52, 95
2, 222720, Note_off_c, 0, 45, 95
2, 222720, Note_on_c, 0, 39, 95
2, 222960, Note_off_c, 0, 39, 95
2, 222960, Note_on_c, 0, 39, 95
2, 223200, Note_off_c, 0, 39, 95
2, 223200, Note_on_c, 0, 39, 95
2, 223440, Note_off_c, 0, 39, 95
2, 223440, Note_on_c, 0, 39, 95
2, 223680, Note_off_c, 0, 39, 95
2, 223680, Note_on_c, 0, 39, 95
2, 223920, Note_off_c, 0, 39, 95
2, 223920, Note_on_c, 0, 39, 95
2, 224160, Note_off_c, 0, 39, 95
2, 224160, Note_on_c, 0, 39, 95
2, 224400, Note_off_c, 0, 39, 95
2, 224400, Note_on_c, 0, 39, 95
2, 224640, Note_off_c, 0, 39, 95
2, 224640, Note_on_c, 0, 39, 95
2, 224880, Note_off_c, 0, 39, 95
2, 224880, Note_on_c, 0, 39, 95
2, 225120, Note_off_c, 0, 39, 95
2, 225120, Note_on_c, 0, 46, 95
2, 225120, Note_on_c, 0, 39, 95
2, 225600, Note_off_c, 0, 46, 95
2, 225600, Note_off_c, 0, 39, 95
2, 225600, Note_on_c, 0, 39, 95
2, 225840, Note_off_c, 0, 39, 95
2, 225840, Note_on_c, 0, 39, 95
2, 226080, Note_off_c, 0, 39, 95
2, 226080, Note_on_c, 0, 47, 95
2, 226080, Note_on_c, 0, 40, 95
2, 226560, Note_off_c, 0, 47, 95
2, 226560, Note_off_c, 0, 40, 95
2, 226560, Note_on_c, 0, 48, 95
2, 226560, Note_on_c, 0, 41, 95
2, 229440, Note_off_c, 0, 48, 95
2, 229440, Note_off_c, 0, 41, 95
2, 229440, Note_on_c, 0, 49, 95
2, 229440, Note_on_c, 0, 42, 95
2, 230400, Note_off_c, 0, 49, 95
2, 230400, Note_off_c, 0, 42, 95
2, 230400, Note_on_c, 0, 39, 95
2, 230640, Note_off_c, 0, 39, 95
2, 230640, Note_on_c, 0, 39, 95
2, 230880, Note_off_c, 0, 39, 95
2, 230880, Note_on_c, 0, 39, 95
2, 231120, Note_off_c, 0, 39, 95
2, 231120, Note_on_c, 0, 39, 95
2, 231360, Note_off_c, 0, 39, 95
2, 231360, Note_on_c, 0, 39, 95
2, 231600, Note_off_c, 0, 39, 95
2, 231600, Note_on_c, 0, 39, 95
2, 231840, Note_off_c, 0, 39, 95
2, 231840, Note_on_c, 0, 39, 95
2, 232080, Note_off_c, 0, 39, 95
2, 232080, Note_on_c, 0, 39, 95
2, 232320, Note_off_c, 0, 39, 95
2, 232320, Note_on_c, 0, 39, 95
2, 232560, Note_off_c, 0, 39, 95
2, 232560, Note_on_c, 0, 39, 95
2, 232800, Note_off_c, 0, 39, 95
2, 232800, Note_on_c, 0, 49, 95
2, 232800, Note_on_c, 0, 42, 95
2, 233280, Note_off_c, 0, 49, 95
2, 233280, Note_off_c, 0, 42, 95
2, 233280, Note_on_c, 0, 39, 95
2, 233520, Note_off_c, 0, 39, 95
2, 233520, Note_on_c, 0, 39, 95
2, 233760, Note_off_c, 0, 39, 95
2, 233760, Note_on_c, 0, 49, 95
2, 233760, Note_on_c, 0, 42, 95
2, 234240, Note_off_c, 0, 49, 95
2, 234240, Note_off_c, 0, 42, 95
2, 234240, Note_on_c, 0, 48, 95
2, 234240, Note_on_c, 0, 41, 95
2, 237120, Note_off_c, 0, 48, 95
2, 237120, Note_off_c, 0, 41, 95
2, 237120, Note_on_c, 0, 49, 95
2, 237120, Note_on_c, 0, 42, 95
2, 237360, Note_off_c, 0, 49, 95
2, 237360, Note_off_c, 0, 42, 95
2, 237360, Note_on_c, 0, 51, 95
2, 237360, Note_on_c, 0, 44, 95
2, 238080, Note_off_c, 0, 51, 95
2, 238080, Note_off_c, 0, 44, 95
2, 238080, Note_on_c, 0, 39, 95
2, 238320, Note_off_c, 0, 39, 95
2, 238560, Note_on_c, 0, 39, 95
2, 238800, Note_off_c, 0, 39, 95
2, 238800, Note_on_c, 0, 39, 95
2, 239040, Note_off_c, 0, 39, 95
2, 239040, Note_on_c, 0, 51, 95
2, 239280, Note_off_c, 0, 51, 95
2, 239280, Note_on_c, 0, 52, 95
2, 240000, Note_off_c, 0, 52, 95
2, 240000, Note_on_c, 0, 39, 95
2, 240240, Note_off_c, 0, 39, 95
2, 240480, Note_on_c, 0, 39, 95
2, 240720, Note_off_c, 0, 39, 95
2, 240720, Note_on_c, 0, 39, 95
2, 240960, Note_off_c, 0, 39, 95
2, 240960, Note_on_c, 0, 51, 95
2, 241200, Note_off_c, 0, 51, 95
2, 241200, Note_on_c, 0, 52, 95
2, 241440, Note_off_c, 0, 52, 95
2, 241440, Note_on_c, 0, 54, 95
2, 241920, Note_off_c, 0, 54, 95
2, 241920, Note_on_c, 0, 39, 95
2, 242160, Note_off_c, 0, 39, 95
2, 242400, Note_on_c, 0, 39, 95
2, 242640, Note_off_c, 0, 39, 95
2, 242640, Note_on_c, 0, 39, 95
2, 242880, Note_off_c, 0, 39, 95
2, 242880, Note_on_c, 0, 51, 95
2, 243120, Note_off_c, 0, 51, 95
2, 243120, Note_on_c, 0, 52, 95
2, 243360, Note_off_c, 0, 52, 95
2, 243360, Note_on_c, 0, 56, 95
2, 243840, Note_off_c, 0, 56, 95
2, 243840, Note_on_c, 0, 55, 95
2, 244080, Note_off_c, 0, 55, 95
2, 244080, Note_on_c, 0, 54, 95
2, 244320, Note_off_c, 0, 54, 95
2, 244320, Note_on_c, 0, 53, 95
2, 244560, Note_off_c, 0, 53, 95
2, 244560, Note_on_c, 0, 50, 95
2, 244800, Note_off_c, 0, 50, 95
2, 244800, Note_on_c, 0, 49, 95
2, 245040, Note_off_c, 0, 49, 95
2, 245040, Note_on_c, 0, 47, 95
2, 245280, Note_off_c, 0, 47, 95
2, 245280, Note_on_c, 0, 46, 95
2, 245520, Note_off_c, 0, 46, 95
2, 245520, Note_on_c, 0, 45, 95
2, 245760, Note_off_c, 0, 45, 95
2, 245760, Note_on_c, 0, 39, 95
2, 246000, Note_off_c, 0, 39, 95
2, 246240, Note_on_c, 0, 39, 95
2, 246480, Note_off_c, 0, 39, 95
2, 246480, Note_on_c, 0, 39, 95
2, 246720, Note_off_c, 0, 39, 95
2, 246720, Note_on_c, 0, 51, 95
2, 246960, Note_off_c, 0, 51, 95
2, 246960, Note_on_c, 0, 52, 95
2, 247680, Note_off_c, 0, 52, 95
2, 247680, Note_on_c, 0, 39, 95
2, 247920, Note_off_c, 0, 39, 95
2, 248160, Note_on_c, 0, 39, 95
2, 248400, Note_off_c, 0, 39, 95
2, 248400, Note_on_c, 0, 39, 95
2, 248640, Note_off_c, 0, 39, 95
2, 248640, Note_on_c, 0, 51, 95
2, 248880, Note_off_c, 0, 51, 95
2, 248880, Note_on_c, 0, 52, 95
2, 249120, Note_off_c, 0, 52, 95
2, 249120, Note_on_c, 0, 54, 95
2, 249600, Note_off_c, 0, 54, 95
2, 249600, Note_on_c, 0, 39, 95
2, 249840, Note_off_c, 0, 39, 95
2, 250080, Note_on_c, 0, 39, 95
2, 250320, Note_off_c, 0, 39, 95
2, 250320, Note_on_c, 0, 39, 95
2, 250560, Note_off_c, 0, 39, 95
2, 250560, Note_on_c, 0, 51, 95
2, 250800, Note_off_c, 0, 51, 95
2, 250800, Note_on_c, 0, 52, 95
2, 251040, Note_off_c, 0, 52, 95
2, 251040, Note_on_c, 0, 56, 95
2, 251520, Note_off_c, 0, 56, 95
2, 251520, Note_on_c, 0, 55, 95
2, 251760, Note_off_c, 0, 55, 95
2, 251760, Note_on_c, 0, 54, 95
2, 252000, Note_off_c, 0, 54, 95
2, 252000, Note_on_c, 0, 53, 95
2, 252240, Note_off_c, 0, 53, 95
2, 252240, Note_on_c, 0, 50, 95
2, 252480, Note_off_c, 0, 50, 95
2, 252480, Note_on_c, 0, 49, 95
2, 252720, Note_off_c, 0, 49, 95
2, 252720, Note_on_c, 0, 48, 95
2, 252960, Note_off_c, 0, 48, 95
2, 252960, Note_on_c, 0, 57, 95
2, 253440, Note_off_c, 0, 57, 95
2, 253440, Note_on_c, 0, 39, 95
2, 253680, Note_off_c, 0, 39, 95
2, 253920, Note_on_c, 0, 39, 95
2, 254160, Note_off_c, 0, 39, 95
2, 254160, Note_on_c, 0, 39, 95
2, 254400, Note_off_c, 0, 39, 95
2, 254400, Note_on_c, 0, 51, 95
2, 254640, Note_off_c, 0, 51, 95
2, 254640, Note_on_c, 0, 52, 95
2, 255360, Note_off_c, 0, 52, 95
2, 255360, Note_on_c, 0, 39, 95
2, 255600, Note_off_c, 0, 39, 95
2, 255840, Note_on_c, 0, 39, 95
2, 256080, Note_off_c, 0, 39, 95
2, 256080, Note_on_c, 0, 39, 95
2, 256320, Note_off_c, 0, 39, 95
2, 256320, Note_on_c, 0, 51, 95
2, 256560, Note_off_c, 0, 51, 95
2, 256560, Note_on_c, 0, 52, 95
2, 256800, Note_off_c, 0, 52, 95
2, 256800, Note_on_c, 0, 54, 95
2, 257280, Note_off_c, 0, 54, 95
2, 257280, Note_on_c, 0, 39, 95
2, 257520, Note_off_c, 0, 39, 95
2, 257760, Note_on_c, 0, 39, 95
2, 258000, Note_off_c, 0, 39, 95
2, 258000, Note_on_c, 0, 39, 95
2, 258240, Note_off_c, 0, 39, 95
2, 258240, Note_on_c, 0, 51, 95
2, 258480, Note_off_c, 0, 51, 95
2, 258480, Note_on_c, 0, 52, 95
2, 258720, Note_off_c, 0, 52, 95
2, 258720, Note_on_c, 0, 56, 95
2, 259200, Note_off_c, 0, 56, 95
2, 259200, Note_on_c, 0, 55, 95
2, 259440, Note_off_c, 0, 55, 95
2, 259440, Note_on_c, 0, 54, 95
2, 259680, Note_off_c, 0, 54, 95
2, 259680, Note_on_c, 0, 53, 95
2, 259920, Note_off_c, 0, 53, 95
2, 259920, Note_on_c, 0, 50, 95
2, 260160, Note_off_c, 0, 50, 95
2, 260160, Note_on_c, 0, 49, 95
2, 260400, Note_off_c, 0, 49, 95
2, 260400, Note_on_c, 0, 47, 95
2, 260640, Note_off_c, 0, 47, 95
2, 260640, Note_on_c, 0, 46, 95
2, 260880, Note_off_c, 0, 46, 95
2, 260880, Note_on_c, 0, 45, 95
2, 261120, Note_off_c, 0, 45, 95
2, 261120, Note_on_c, 0, 39, 95
2, 261360, Note_off_c, 0, 39, 95
2, 261600, Note_on_c, 0, 39, 95
2, 261840, Note_off_c, 0, 39, 95
2, 261840, Note_on_c, 0, 39, 95
2, 262080, Note_off_c, 0, 39, 95
2, 262080, Note_on_c, 0, 51, 95
2, 262320, Note_off_c, 0, 51, 95
2, 262320, Note_on_c, 0, 52, 95
2, 263040, Note_off_c, 0, 52, 95
2, 263040, Note_on_c, 0, 39, 95
2, 263280, Note_off_c, 0, 39, 95
2, 263520, Note_on_c, 0, 39, 95
2, 263760, Note_off_c, 0, 39, 95
2, 263760, Note_on_c, 0, 39, 95
2, 264000, Note_off_c, 0, 39, 95
2, 264000, Note_on_c, 0, 51, 95
2, 264240, Note_off_c, 0, 51, 95
2, 264240, Note_on_c, 0, 52, 95
2, 264480, Note_off_c, 0, 52, 95
2, 264480, Note_on_c, 0, 54, 95
2, 264960, Note_off_c, 0, 54, 95
2, 264960, Note_on_c, 0, 39, 95
2, 265200, Note_off_c, 0, 39, 95
2, 265440, Note_on_c, 0, 39, 95
2, 265680, Note_off_c, 0, 39, 95
2, 265680, Note_on_c, 0, 39, 95
2, 265920, Note_off_c, 0, 39, 95
2, 265920, Note_on_c, 0, 51, 95
2, 266160, Note_off_c, 0, 51, 95
2, 266160, Note_on_c, 0, 52, 95
2, 266400, Note_off_c, 0, 52, 95
2, 266400, Note_on_c, 0, 56, 95
2, 266880, Note_off_c, 0, 56, 95
2, 266880, Note_on_c, 0, 55, 95
2, 267120, Note_off_c, 0, 55, 95
2, 267120, Note_on_c, 0, 54, 95
2, 267360, Note_off_c, 0, 54, 95
2, 267360, Note_on_c, 0, 53, 95
2, 267600, Note_off_c, 0, 53, 95
2, 267600, Note_on_c, 0, 49, 95
2, 267840, Note_off_c, 0, 49, 95
2, 267840, Note_on_c, 0, 48, 95
2, 268080, Note_off_c, 0, 48, 95
2, 268080, Note_on_c, 0, 47, 95
2, 268320, Note_off_c, 0, 47, 95
2, 268320, Note_on_c, 0, 43, 95
2, 268560, Note_off_c, 0, 43, 95
2, 268560, Note_on_c, 0, 42, 95
2, 268800, Note_off_c, 0, 42, 95
2, 268800, Note_on_c, 0, 48, 95
2, 268800, Note_on_c, 0, 41, 95
2, 269040, Note_off_c, 0, 48, 95
2, 269040, Note_off_c, 0, 41, 95
2, 269040, Note_on_c, 0, 41, 95
2, 269280, Note_off_c, 0, 41, 95
2, 269280, Note_on_c, 0, 41, 95
2, 269520, Note_off_c, 0, 41, 95
2, 269520, Note_on_c, 0, 41, 95
2, 269760, Note_off_c, 0, 41, 95
2, 269760, Note_on_c, 0, 41, 95
2, 270000, Note_off_c, 0, 41, 95
2, 270000, Note_on_c, 0, 41, 95
2, 270240, Note_off_c, 0, 41, 95
2, 270240, Note_on_c, 0, 41, 95
2, 270480, Note_off_c, 0, 41, 95
2, 270480, Note_on_c, 0, 41, 95
2, 270720, Note_off_c, 0, 41, 95
2, 270720, Note_on_c, 0, 48, 95
2, 270720, Note_on_c, 0, 39, 95
2, 270960, Note_off_c, 0, 48, 95
2, 270960, Note_off_c, 0, 39, 95
2, 270960, Note_on_c, 0, 41, 95
2, 271200, Note_off_c, 0, 41, 95
2, 271200, Note_on_c, 0, 41, 95
2, 271440, Note_off_c, 0, 41, 95
2, 271440, Note_on_c, 0, 41, 95
2, 271680, Note_off_c, 0, 41, 95
2, 271680, Note_on_c, 0, 41, 95
2, 271920, Note_off_c, 0, 41, 95
2, 271920, Note_on_c, 0, 41, 95
2, 272160, Note_off_c, 0, 41, 95
2, 272160, Note_on_c, 0, 41, 95
2, 272400, Note_off_c, 0, 41, 95
2, 272400, Note_on_c, 0, 41, 95
2, 272640, Note_off_c, 0, 41, 95
2, 272640, Note_on_c, 0, 41, 95
2, 272880, Note_off_c, 0, 41, 95
2, 272880, Note_on_c, 0, 41, 95
2, 273120, Note_off_c, 0, 41, 95
2, 273120, Note_on_c, 0, 41, 95
2, 273360, Note_off_c, 0, 41, 95
2, 273360, Note_on_c, 0, 41, 95
2, 273600, Note_off_c, 0, 41, 95
2, 273600, Note_on_c, 0, 41, 95
2, 273840, Note_off_c, 0, 41, 95
2, 273840, Note_on_c, 0, 41, 95
2, 274080, Note_off_c, 0, 41, 95
2, 274080, Note_on_c, 0, 41, 95
2, 274320, Note_off_c, 0, 41, 95
2, 274320, Note_on_c, 0, 41, 95
2, 274560, Note_off_c, 0, 41, 95
2, 274560, Note_on_c, 0, 48, 95
2, 274560, Note_on_c, 0, 39, 95
2, 274800, Note_off_c, 0, 48, 95
2, 274800, Note_off_c, 0, 39, 95
2, 274800, Note_on_c, 0, 41, 95
2, 275040, Note_off_c, 0, 41, 95
2, 275040, Note_on_c, 0, 41, 95
2, 275280, Note_off_c, 0, 41, 95
2, 275280, Note_on_c, 0, 41, 95
2, 275520, Note_off_c, 0, 41, 95
2, 275520, Note_on_c, 0, 41, 95
2, 275760, Note_off_c, 0, 41, 95
2, 275760, Note_on_c, 0, 41, 95
2, 276000, Note_off_c, 0, 41, 95
2, 276000, Note_on_c, 0, 52, 95
2, 276000, Note_on_c, 0, 45, 95
2, 276480, Note_off_c, 0, 52, 95
2, 276480, Note_off_c, 0, 45, 95
2, 276480, Note_on_c, 0, 48, 95
2, 276480, Note_on_c, 0, 41, 95
2, 276720, Note_off_c, 0, 48, 95
2, 276720, Note_off_c, 0, 41, 95
2, 276720, Note_on_c, 0, 41, 95
2, 276960, Note_off_c, 0, 41, 95
2, 276960, Note_on_c, 0, 41, 95
2, 277200, Note_off_c, 0, 41, 95
2, 277200, Note_on_c, 0, 41, 95
2, 277440, Note_off_c, 0, 41, 95
2, 277440, Note_on_c, 0, 41, 95
2, 277680, Note_off_c, 0, 41, 95
2, 277680, Note_on_c, 0, 41, 95
2, 277920, Note_off_c, 0, 41, 95
2, 277920, Note_on_c, 0, 41, 95
2, 278160, Note_off_c, 0, 41, 95
2, 278160, Note_on_c, 0, 41, 95
2, 278400, Note_off_c, 0, 41, 95
2, 278400, Note_on_c, 0, 48, 95
2, 278400, Note_on_c, 0, 39, 95
2, 278640, Note_off_c, 0, 48, 95
2, 278640, Note_off_c, 0, 39, 95
2, 278640, Note_on_c, 0, 41, 95
2, 278880, Note_off_c, 0, 41, 95
2, 278880, Note_on_c, 0, 41, 95
2, 279120, Note_off_c, 0, 41, 95
2, 279120, Note_on_c, 0, 41, 95
2, 279360, Note_off_c, 0, 41, 95
2, 279360, Note_on_c, 0, 41, 95
2, 279600, Note_off_c, 0, 41, 95
2, 279600, Note_on_c, 0, 41, 95
2, 279840, Note_off_c, 0, 41, 95
2, 279840, Note_on_c, 0, 41, 95
2, 280080, Note_off_c, 0, 41, 95
2, 280080, Note_on_c, 0, 41, 95
2, 280320, Note_off_c, 0, 41, 95
2, 280320, Note_on_c, 0, 41, 95
2, 280560, Note_off_c, 0, 41, 95
2, 280560, Note_on_c, 0, 41, 95
2, 280800, Note_off_c, 0, 41, 95
2, 280800, Note_on_c, 0, 41, 95
2, 281040, Note_off_c, 0, 41, 95
2, 281040, Note_on_c, 0, 41, 95
2, 281280, Note_off_c, 0, 41, 95
2, 281280, Note_on_c, 0, 41, 95
2, 281520, Note_off_c, 0, 41, 95
2, 281520, Note_on_c, 0, 41, 95
2, 281760, Note_off_c, 0, 41, 95
2, 281760, Note_on_c, 0, 41, 95
2, 282000, Note_off_c, 0, 41, 95
2, 282000, Note_on_c, 0, 41, 95
2, 282240, Note_off_c, 0, 41, 95
2, 282240, Note_on_c, 0, 48, 95
2, 282240, Note_on_c, 0, 39, 95
2, 282480, Note_off_c, 0, 48, 95
2, 282480, Note_off_c, 0, 39, 95
2, 282480, Note_on_c, 0, 41, 95
2, 282720, Note_off_c, 0, 41, 95
2, 282720, Note_on_c, 0, 41, 95
2, 282960, Note_off_c, 0, 41, 95
2, 282960, Note_on_c, 0, 41, 95
2, 283200, Note_off_c, 0, 41, 95
2, 283200, Note_on_c, 0, 41, 95
2, 283440, Note_off_c, 0, 41, 95
2, 283440, Note_on_c, 0, 41, 95
2, 283680, Note_off_c, 0, 41, 95
2, 283680, Note_on_c, 0, 49, 95
2, 283680, Note_on_c, 0, 42, 95
2, 284160, Note_off_c, 0, 49, 95
2, 284160, Note_off_c, 0, 42, 95
2, 284160, Note_on_c, 0, 48, 95
2, 284160, Note_on_c, 0, 41, 95
2, 284400, Note_off_c, 0, 48, 95
2, 284400, Note_off_c, 0, 41, 95
2, 284400, Note_on_c, 0, 41, 95
2, 284640, Note_off_c, 0, 41, 95
2, 284640, Note_on_c, 0, 41, 95
2, 284880, Note_off_c, 0, 41, 95
2, 284880, Note_on_c, 0, 41, 95
2, 285120, Note_off_c, 0, 41, 95
2, 285120, Note_on_c, 0, 41, 95
2, 285360, Note_off_c, 0, 41, 95
2, 285360, Note_on_c, 0, 41, 95
2, 285600, Note_off_c, 0, 41, 95
2, 285600, Note_on_c, 0, 41, 95
2, 285840, Note_off_c, 0, 41, 95
2, 285840, Note_on_c, 0, 41, 95
2, 286080, Note_off_c, 0, 41, 95
2, 286080, Note_on_c, 0, 48, 95
2, 286080, Note_on_c, 0, 39, 95
2, 286320, Note_off_c, 0, 48, 95
2, 286320, Note_off_c, 0, 39, 95
2, 286320, Note_on_c, 0, 41, 95
2, 286560, Note_off_c, 0, 41, 95
2, 286560, Note_on_c, 0, 41, 95
2, 286800, Note_off_c, 0, 41, 95
2, 286800, Note_on_c, 0, 41, 95
2, 287040, Note_off_c, 0, 41, 95
2, 287040, Note_on_c, 0, 41, 95
2, 287280, Note_off_c, 0, 41, 95
2, 287280, Note_on_c, 0, 41, 95
2, 287520, Note_off_c, 0, 41, 95
2, 287520, Note_on_c, 0, 41, 95
2, 287760, Note_off_c, 0, 41, 95
2, 287760, Note_on_c, 0, 41, 95
2, 288000, Note_off_c, 0, 41, 95
2, 288000, Note_on_c, 0, 41, 95
2, 288240, Note_off_c, 0, 41, 95
2, 288240, Note_on_c, 0, 41, 95
2, 288480, Note_off_c, 0, 41, 95
2, 288480, Note_on_c, 0, 41, 95
2, 288720, Note_off_c, 0, 41, 95
2, 288720, Note_on_c, 0, 41, 95
2, 288960, Note_off_c, 0, 41, 95
2, 288960, Note_on_c, 0, 41, 95
2, 289200, Note_off_c, 0, 41, 95
2, 289200, Note_on_c, 0, 41, 95
2, 289440, Note_off_c, 0, 41, 95
2, 289440, Note_on_c, 0, 41, 95
2, 289680, Note_off_c, 0, 41, 95
2, 289680, Note_on_c, 0, 41, 95
2, 289920, Note_off_c, 0, 41, 95
2, 289920, Note_on_c, 0, 48, 95
2, 289920, Note_on_c, 0, 39, 95
2, 290160, Note_off_c, 0, 48, 95
2, 290160, Note_off_c, 0, 39, 95
2, 290160, Note_on_c, 0, 41, 95
2, 290400, Note_off_c, 0, 41, 95
2, 290400, Note_on_c, 0, 41, 95
2, 290640, Note_off_c, 0, 41, 95
2, 290640, Note_on_c, 0, 41, 95
2, 290880, Note_off_c, 0, 41, 95
2, 290880, Note_on_c, 0, 41, 95
2, 291120, Note_off_c, 0, 41, 95
2, 291120, Note_on_c, 0, 41, 95
2, 291360, Note_off_c, 0, 41, 95
2, 291360, Note_on_c, 0, 52, 95
2, 291360, Note_on_c, 0, 45, 95
2, 291840, Note_off_c, 0, 52, 95
2, 291840, Note_off_c, 0, 45, 95
2, 291840, Note_on_c, 0, 48, 95
2, 291840, Note_on_c, 0, 41, 95
2, 292080, Note_off_c, 0, 48, 95
2, 292080, Note_off_c, 0, 41, 95
2, 292080, Note_on_c, 0, 41, 95
2, 292320, Note_off_c, 0, 41, 95
2, 292320, Note_on_c, 0, 41, 95
2, 292560, Note_off_c, 0, 41, 95
2, 292560, Note_on_c, 0, 41, 95
2, 292800, Note_off_c, 0, 41, 95
2, 292800, Note_on_c, 0, 41, 95
2, 293040, Note_off_c, 0, 41, 95
2, 293040, Note_on_c, 0, 41, 95
2, 293280, Note_off_c, 0, 41, 95
2, 293280, Note_on_c, 0, 41, 95
2, 293520, Note_off_c, 0, 41, 95
2, 293520, Note_on_c, 0, 41, 95
2, 293760, Note_off_c, 0, 41, 95
2, 293760, Note_on_c, 0, 48, 95
2, 293760, Note_on_c, 0, 39, 95
2, 294000, Note_off_c, 0, 48, 95
2, 294000, Note_off_c, 0, 39, 95
2, 294000, Note_on_c, 0, 41, 95
2, 294240, Note_off_c, 0, 41, 95
2, 294240, Note_on_c, 0, 41, 95
2, 294480, Note_off_c, 0, 41, 95
2, 294480, Note_on_c, 0, 41, 95
2, 294720, Note_off_c, 0, 41, 95
2, 294720, Note_on_c, 0, 41, 95
2, 294960, Note_off_c, 0, 41, 95
2, 294960, Note_on_c, 0, 41, 95
2, 295200, Note_off_c, 0, 41, 95
2, 295200, Note_on_c, 0, 41, 95
2, 295440, Note_off_c, 0, 41, 95
2, 295440, Note_on_c, 0, 41, 95
2, 295680, Note_off_c, 0, 41, 95
2, 295680, Note_on_c, 0, 41, 95
2, 295920, Note_off_c, 0, 41, 95
2, 295920, Note_on_c, 0, 41, 95
2, 296160, Note_off_c, 0, 41, 95
2, 296160, Note_on_c, 0, 41, 95
2, 296400, Note_off_c, 0, 41, 95
2, 296400, Note_on_c, 0, 41, 95
2, 296640, Note_off_c, 0, 41, 95
2, 296640, Note_on_c, 0, 41, 95
2, 296880, Note_off_c, 0, 41, 95
2, 296880, Note_on_c, 0, 41, 95
2, 297120, Note_off_c, 0, 41, 95
2, 297120, Note_on_c, 0, 41, 95
2, 297360, Note_off_c, 0, 41, 95
2, 297360, Note_on_c, 0, 41, 95
2, 297600, Note_off_c, 0, 41, 95
2, 297600, Note_on_c, 0, 48, 95
2, 297600, Note_on_c, 0, 39, 95
2, 297840, Note_off_c, 0, 48, 95
2, 297840, Note_off_c, 0, 39, 95
2, 297840, Note_on_c, 0, 41, 95
2, 298080, Note_off_c, 0, 41, 95
2, 298080, Note_on_c, 0, 41, 95
2, 298320, Note_off_c, 0, 41, 95
2, 298320, Note_on_c, 0, 41, 95
2, 298560, Note_off_c, 0, 41, 95
2, 298560, Note_on_c, 0, 49, 95
2, 298560, Note_on_c, 0, 42, 95
2, 299520, Note_off_c, 0, 49, 95
2, 299520, Note_off_c, 0, 42, 95
2, 299520, Note_on_c, 0, 44, 95
2, 299760, Note_off_c, 0, 44, 95
2, 299760, Note_on_c, 0, 44, 95
2, 300000, Note_off_c, 0, 44, 95
2, 300000, Note_on_c, 0, 44, 95
2, 300240, Note_off_c, 0, 44, 95
2, 300240, Note_on_c, 0, 44, 95
2, 300480, Note_off_c, 0, 44, 95
2, 300480, Note_on_c, 0, 44, 95
2, 300720, Note_off_c, 0, 44, 95
2, 300720, Note_on_c, 0, 44, 95
2, 300960, Note_off_c, 0, 44, 95
2, 300960, Note_on_c, 0, 44, 95
2, 301200, Note_off_c, 0, 44, 95
2, 301200, Note_on_c, 0, 44, 95
2, 301440, Note_off_c, 0, 44, 95
2, 301440, Note_on_c, 0, 42, 95
2, 301680, Note_off_c, 0, 42, 95
2, 301680, Note_on_c, 0, 44, 95
2, 301920, Note_off_c, 0, 44, 95
2, 301920, Note_on_c, 0, 44, 95
2, 302160, Note_off_c, 0, 44, 95
2, 302160, Note_on_c, 0, 44, 95
2, 302400, Note_off_c, 0, 44, 95
2, 302400, Note_on_c, 0, 44, 95
2, 302640, Note_off_c, 0, 44, 95
2, 302640, Note_on_c, 0, 44, 95
2, 302880, Note_off_c, 0, 44, 95
2, 302880, Note_on_c, 0, 44, 95
2, 303120, Note_off_c, 0, 44, 95
2, 303120, Note_on_c, 0, 44, 95
2, 303360, Note_off_c, 0, 44, 95
2, 303360, Note_on_c, 0, 44, 95
2, 303600, Note_off_c, 0, 44, 95
2, 303600, Note_on_c, 0, 44, 95
2, 303840, Note_off_c, 0, 44, 95
2, 303840, Note_on_c, 0, 44, 95
2, 304080, Note_off_c, 0, 44, 95
2, 304080, Note_on_c, 0, 44, 95
2, 304320, Note_off_c, 0, 44, 95
2, 304320, Note_on_c, 0, 44, 95
2, 304560, Note_off_c, 0, 44, 95
2, 304560, Note_on_c, 0, 44, 95
2, 304800, Note_off_c, 0, 44, 95
2, 304800, Note_on_c, 0, 44, 95
2, 305040, Note_off_c, 0, 44, 95
2, 305040, Note_on_c, 0, 44, 95
2, 305280, Note_off_c, 0, 44, 95
2, 305280, Note_on_c, 0, 42, 95
2, 305520, Note_off_c, 0, 42, 95
2, 305520, Note_on_c, 0, 44, 95
2, 305760, Note_off_c, 0, 44, 95
2, 305760, Note_on_c, 0, 44, 95
2, 306000, Note_off_c, 0, 44, 95
2, 306000, Note_on_c, 0, 44, 95
2, 306240, Note_off_c, 0, 44, 95
2, 306240, Note_on_c, 0, 44, 95
2, 306480, Note_off_c, 0, 44, 95
2, 306480, Note_on_c, 0, 44, 95
2, 306720, Note_off_c, 0, 44, 95
2, 306720, Note_on_c, 0, 55, 95
2, 306720, Note_on_c, 0, 48, 95
2, 307200, Note_off_c, 0, 55, 95
2, 307200, Note_off_c, 0, 48, 95
2, 307200, Note_on_c, 0, 44, 95
2, 307440, Note_off_c, 0, 44, 95
2, 307440, Note_on_c, 0, 44, 95
2, 307680, Note_off_c, 0, 44, 95
2, 307680, Note_on_c, 0, 44, 95
2, 307920, Note_off_c, 0, 44, 95
2, 307920, Note_on_c, 0, 44, 95
2, 308160, Note_off_c, 0, 44, 95
2, 308160, Note_on_c, 0, 44, 95
2, 308400, Note_off_c, 0, 44, 95
2, 308400, Note_on_c, 0, 44, 95
2, 308640, Note_off_c, 0, 44, 95
2, 308640, Note_on_c, 0, 44, 95
2, 308880, Note_off_c, 0, 44, 95
2, 308880, Note_on_c, 0, 44, 95
2, 309120, Note_off_c, 0, 44, 95
2, 309120, Note_on_c, 0, 42, 95
2, 309360, Note_off_c, 0, 42, 95
2, 309360, Note_on_c, 0, 44, 95
2, 309600, Note_off_c, 0, 44, 95
2, 309600, Note_on_c, 0, 44, 95
2, 309840, Note_off_c, 0, 44, 95
2, 309840, Note_on_c, 0, 44, 95
2, 310080, Note_off_c, 0, 44, 95
2, 310080, Note_on_c, 0, 44, 95
2, 310320, Note_off_c, 0, 44, 95
2, 310320, Note_on_c, 0, 44, 95
2, 310560, Note_off_c, 0, 44, 95
2, 310560, Note_on_c, 0, 44, 95
2, 310800, Note_off_c, 0, 44, 95
2, 310800, Note_on_c, 0, 44, 95
2, 311040, Note_off_c, 0, 44, 95
2, 311040, Note_on_c, 0, 44, 95
2, 311280, Note_off_c, 0, 44, 95
2, 311280, Note_on_c, 0, 44, 95
2, 311520, Note_off_c, 0, 44, 95
2, 311520, Note_on_c, 0, 44, 95
2, 311760, Note_off_c, 0, 44, 95
2, 311760, Note_on_c, 0, 44, 95
2, 312000, Note_off_c, 0, 44, 95
2, 312000, Note_on_c, 0, 44, 95
2, 312240, Note_off_c, 0, 44, 95
2, 312240, Note_on_c, 0, 44, 95
2, 312480, Note_off_c, 0, 44, 95
2, 312480, Note_on_c, 0, 44, 95
2, 312720, Note_off_c, 0, 44, 95
2, 312720, Note_on_c, 0, 44, 95
2, 312960, Note_off_c, 0, 44, 95
2, 312960, Note_on_c, 0, 42, 95
2, 313200, Note_off_c, 0, 42, 95
2, 313200, Note_on_c, 0, 44, 95
2, 313440, Note_off_c, 0, 44, 95
2, 313440, Note_on_c, 0, 44, 95
2, 313680, Note_off_c, 0, 44, 95
2, 313680, Note_on_c, 0, 44, 95
2, 313920, Note_off_c, 0, 44, 95
2, 313920, Note_on_c, 0, 44, 95
2, 314160, Note_off_c, 0, 44, 95
2, 314160, Note_on_c, 0, 44, 95
2, 314400, Note_off_c, 0, 44, 95
2, 314400, Note_on_c, 0, 52, 95
2, 314400, Note_on_c, 0, 45, 95
2, 314880, Note_off_c, 0, 52, 95
2, 314880, Note_off_c, 0, 45, 95
2, 314880, Note_on_c, 0, 44, 95
2, 315120, Note_off_c, 0, 44, 95
2, 315120, Note_on_c, 0, 44, 95
2, 315360, Note_off_c, 0, 44, 95
2, 315360, Note_on_c, 0, 44, 95
2, 315600, Note_off_c, 0, 44, 95
2, 315600, Note_on_c, 0, 44, 95
2, 315840, Note_off_c, 0, 44, 95
2, 315840, Note_on_c, 0, 44, 95
2, 316080, Note_off_c, 0, 44, 95
2, 316080, Note_on_c, 0, 44, 95
2, 316320, Note_off_c, 0, 44, 95
2, 316320, Note_on_c, 0, 44, 95
2, 316560, Note_off_c, 0, 44, 95
2, 316560, Note_on_c, 0, 44, 95
2, 316800, Note_off_c, 0, 44, 95
2, 316800, Note_on_c, 0, 42, 95
2, 317040, Note_off_c, 0, 42, 95
2, 317040, Note_on_c, 0, 44, 95
2, 317280, Note_off_c, 0, 44, 95
2, 317280, Note_on_c, 0, 44, 95
2, 317520, Note_off_c, 0, 44, 95
2, 317520, Note_on_c, 0, 44, 95
2, 317760, Note_off_c, 0, 44, 95
2, 317760, Note_on_c, 0, 44, 95
2, 318000, Note_off_c, 0, 44, 95
2, 318000, Note_on_c, 0, 44, 95
2, 318240, Note_off_c, 0, 44, 95
2, 318240, Note_on_c, 0, 44, 95
2, 318480, Note_off_c, 0, 44, 95
2, 318480, Note_on_c, 0, 44, 95
2, 318720, Note_off_c, 0, 44, 95
2, 318720, Note_on_c, 0, 44, 95
2, 318960, Note_off_c, 0, 44, 95
2, 318960, Note_on_c, 0, 44, 95
2, 319200, Note_off_c, 0, 44, 95
2, 319200, Note_on_c, 0, 44, 95
2, 319440, Note_off_c, 0, 44, 95
2, 319440, Note_on_c, 0, 44, 95
2, 319680, Note_off_c, 0, 44, 95
2, 319680, Note_on_c, 0, 44, 95
2, 319920, Note_off_c, 0, 44, 95
2, 319920, Note_on_c, 0, 44, 95
2, 320160, Note_off_c, 0, 44, 95
2, 320160, Note_on_c, 0, 44, 95
2, 320400, Note_off_c, 0, 44, 95
2, 320400, Note_on_c, 0, 44, 95
2, 320640, Note_off_c, 0, 44, 95
2, 320640, Note_on_c, 0, 42, 95
2, 320880, Note_off_c, 0, 42, 95
2, 320880, Note_on_c, 0, 44, 95
2, 321120, Note_off_c, 0, 44, 95
2, 321120, Note_on_c, 0, 44, 95
2, 321360, Note_off_c, 0, 44, 95
2, 321360, Note_on_c, 0, 44, 95
2, 321600, Note_off_c, 0, 44, 95
2, 321600, Note_on_c, 0, 44, 95
2, 321840, Note_off_c, 0, 44, 95
2, 321840, Note_on_c, 0, 44, 95
2, 322080, Note_off_c, 0, 44, 95
2, 322080, Note_on_c, 0, 55, 95
2, 322080, Note_on_c, 0, 48, 95
2, 322560, Note_off_c, 0, 55, 95
2, 322560, Note_off_c, 0, 48, 95
2, 322560, Note_on_c, 0, 44, 95
2, 322800, Note_off_c, 0, 44, 95
2, 322800, Note_on_c, 0, 44, 95
2, 323040, Note_off_c, 0, 44, 95
2, 323040, Note_on_c, 0, 44, 95
2, 323280, Note_off_c, 0, 44, 95
2, 323280, Note_on_c, 0, 44, 95
2, 323520, Note_off_c, 0, 44, 95
2, 323520, Note_on_c, 0, 44, 95
2, 323760, Note_off_c, 0, 44, 95
2, 323760, Note_on_c, 0, 44, 95
2, 324000, Note_off_c, 0, 44, 95
2, 324000, Note_on_c, 0, 44, 95
2, 324240, Note_off_c, 0, 44, 95
2, 324240, Note_on_c, 0, 44, 95
2, 324480, Note_off_c, 0, 44, 95
2, 324480, Note_on_c, 0, 42, 95
2, 324720, Note_off_c, 0, 42, 95
2, 324720, Note_on_c, 0, 44, 95
2, 324960, Note_off_c, 0, 44, 95
2, 324960, Note_on_c, 0, 44, 95
2, 325200, Note_off_c, 0, 44, 95
2, 325200, Note_on_c, 0, 44, 95
2, 325440, Note_off_c, 0, 44, 95
2, 325440, Note_on_c, 0, 44, 95
2, 325680, Note_off_c, 0, 44, 95
2, 325680, Note_on_c, 0, 44, 95
2, 325920, Note_off_c, 0, 44, 95
2, 325920, Note_on_c, 0, 44, 95
2, 326160, Note_off_c, 0, 44, 95
2, 326160, Note_on_c, 0, 44, 95
2, 326400, Note_off_c, 0, 44, 95
2, 326400, Note_on_c, 0, 44, 95
2, 326640, Note_off_c, 0, 44, 95
2, 326640, Note_on_c, 0, 44, 95
2, 326880, Note_off_c, 0, 44, 95
2, 326880, Note_on_c, 0, 44, 95
2, 327120, Note_off_c, 0, 44, 95
2, 327120, Note_on_c, 0, 44, 95
2, 327360, Note_off_c, 0, 44, 95
2, 327360, Note_on_c, 0, 44, 95
2, 327600, Note_off_c, 0, 44, 95
2, 327600, Note_on_c, 0, 44, 95
2, 327840, Note_off_c, 0, 44, 95
2, 327840, Note_on_c, 0, 44, 95
2, 328080, Note_off_c, 0, 44, 95
2, 328080, Note_on_c, 0, 44, 95
2, 328320, Note_off_c, 0, 44, 95
2, 328320, Note_on_c, 0, 42, 95
2, 328560, Note_off_c, 0, 42, 95
2, 328560, Note_on_c, 0, 44, 95
2, 328800, Note_off_c, 0, 44, 95
2, 328800, Note_on_c, 0, 44, 95
2, 329040, Note_off_c, 0, 44, 95
2, 329040, Note_on_c, 0, 44, 95
2, 329280, Note_off_c, 0, 44, 95
2, 329280, Note_on_c, 0, 52, 95
2, 329280, Note_on_c, 0, 45, 95
2, 330240, Note_off_c, 0, 52, 95
2, 330240, Note_off_c, 0, 45, 95
2, 330240, Note_on_c, 0, 48, 95
2, 330240, Note_on_c, 0, 41, 95
2, 333120, Note_off_c, 0, 48, 95
2, 333120, Note_off_c, 0, 41, 95
2, 333120, Note_on_c, 0, 49, 95
2, 333120, Note_on_c, 0, 42, 95
2, 334080, Note_off_c, 0, 49, 95
2, 334080, Note_off_c, 0, 42, 95
2, 334080, Note_on_c, 0, 39, 95
2, 334320, Note_off_c, 0, 39, 95
2, 334320, Note_on_c, 0, 39, 95
2, 334560, Note_off_c, 0, 39, 95
2, 334560, Note_on_c, 0, 39, 95
2, 334800, Note_off_c, 0, 39, 95
2, 334800, Note_on_c, 0, 39, 95
2, 335040, Note_off_c, 0, 39, 95
2, 335040, Note_on_c, 0, 39, 95
2, 335280, Note_off_c, 0, 39, 95
2, 335280, Note_on_c, 0, 39, 95
2, 335520, Note_off_c, 0, 39, 95
2, 335520, Note_on_c, 0, 39, 95
2, 335760, Note_off_c, 0, 39, 95
2, 335760, Note_on_c, 0, 39, 95
2, 336000, Note_off_c, 0, 39, 95
2, 336000, Note_on_c, 0, 39, 95
2, 336240, Note_off_c, 0, 39, 95
2, 336240, Note_on_c, 0, 39, 95
2, 336480, Note_off_c, 0, 39, 95
2, 336480, Note_on_c, 0, 49, 95
2, 336480, Note_on_c, 0, 42, 95
2, 336960, Note_off_c, 0, 49, 95
2, 336960, Note_off_c, 0, 42, 95
2, 336960, Note_on_c, 0, 39, 95
2, 337200, Note_off_c, 0, 39, 95
2, 337200, Note_on_c, 0, 39, 95
2, 337440, Note_off_c, 0, 39, 95
2, 337440, Note_on_c, 0, 49, 95
2, 337440, Note_on_c, 0, 42, 95
2, 337920, Note_off_c, 0, 49, 95
2, 337920, Note_off_c, 0, 42, 95
2, 337920, Note_on_c, 0, 48, 95
2, 337920, Note_on_c, 0, 41, 95
2, 340800, Note_off_c, 0, 48, 95
2, 340800, Note_off_c, 0, 41, 95
2, 340800, Note_on_c, 0, 52, 95
2, 340800, Note_on_c, 0, 45, 95
2, 341760, Note_off_c, 0, 52, 95
2, 341760, Note_off_c, 0, 45, 95
2, 341760, Note_on_c, 0, 39, 95
2, 342000, Note_off_c, 0, 39, 95
2, 342000, Note_on_c, 0, 39, 95
2, 342240, Note_off_c, 0, 39, 95
2, 342240, Note_on_c, 0, 39, 95
2, 342480, Note_off_c, 0, 39, 95
2, 342480, Note_on_c, 0, 39, 95
2, 342720, Note_off_c, 0, 39, 95
2, 342720, Note_on_c, 0, 39, 95
2, 342960, Note_off_c, 0, 39, 95
2, 342960, Note_on_c, 0, 39, 95
2, 343200, Note_off_c, 0, 39, 95
2, 343200, Note_on_c, 0, 39, 95
2, 343440, Note_off_c, 0, 39, 95
2, 343440, Note_on_c, 0, 39, 95
2, 343680, Note_off_c, 0, 39, 95
2, 343680, Note_on_c, 0, 39, 95
2, 343920, Note_off_c, 0, 39, 95
2, 343920, Note_on_c, 0, 39, 95
2, 344160, Note_off_c, 0, 39, 95
2, 344160, Note_on_c, 0, 46, 95
2, 344160, Note_on_c, 0, 39, 95
2, 344640, Note_off_c, 0, 46, 95
2, 344640, Note_off_c, 0, 39, 95
2, 344640, Note_on_c, 0, 39, 95
2, 344880, Note_off_c, 0, 39, 95
2, 344880, Note_on_c, 0, 39, 95
2, 345120, Note_off_c, 0, 39, 95
2, 345120, Note_on_c, 0, 47, 95
2, 345120, Note_on_c, 0, 40, 95
2, 345600, Note_off_c, 0, 47, 95
2, 345600, Note_off_c, 0, 40, 95
2, 345600, Note_on_c, 0, 48, 95
2, 345600, Note_on_c, 0, 41, 95
2, 348480, Note_off_c, 0, 48, 95
2, 348480, Note_off_c, 0, 41, 95
2, 348480, Note_on_c, 0, 49, 95
2, 348480, Note_on_c, 0, 42, 95
2, 349440, Note_off_c, 0, 49, 95
2, 349440, Note_off_c, 0, 42, 95
2, 349440, Note_on_c, 0, 39, 95
2, 349680, Note_off_c, 0, 39, 95
2, 349680, Note_on_c, 0, 39, 95
2, 349920, Note_off_c, 0, 39, 95
2, 349920, Note_on_c, 0, 39, 95
2, 350160, Note_off_c, 0, 39, 95
2, 350160, Note_on_c, 0, 39, 95
2, 350400, Note_off_c, 0, 39, 95
2, 350400, Note_on_c, 0, 39, 95
2, 350640, Note_off_c, 0, 39, 95
2, 350640, Note_on_c, 0, 39, 95
2, 350880, Note_off_c, 0, 39, 95
2, 350880, Note_on_c, 0, 39, 95
2, 351120, Note_off_c, 0, 39, 95
2, 351120, Note_on_c, 0, 39, 95
2, 351360, Note_off_c, 0, 39, 95
2, 351360, Note_on_c, 0, 39, 95
2, 351600, Note_off_c, 0, 39, 95
2, 351600, Note_on_c, 0, 39, 95
2, 351840, Note_off_c, 0, 39, 95
2, 351840, Note_on_c, 0, 49, 95
2, 351840, Note_on_c, 0, 42, 95
2, 352320, Note_off_c, 0, 49, 95
2, 352320, Note_off_c, 0, 42, 95
2, 352320, Note_on_c, 0, 39, 95
2, 352560, Note_off_c, 0, 39, 95
2, 352560, Note_on_c, 0, 39, 95
2, 352800, Note_off_c, 0, 39, 95
2, 352800, Note_on_c, 0, 49, 95
2, 352800, Note_on_c, 0, 42, 95
2, 353280, Note_off_c, 0, 49, 95
2, 353280, Note_off_c, 0, 42, 95
2, 353280, Note_on_c, 0, 48, 95
2, 353280, Note_on_c, 0, 41, 95
2, 355200, Note_off_c, 0, 48, 95
2, 355200, Note_off_c, 0, 41, 95
2, 355200, Note_on_c, 0, 51, 95
2, 355200, Note_on_c, 0, 44, 95
2, 356160, Note_off_c, 0, 51, 95
2, 356160, Note_off_c, 0, 44, 95
2, 356160, Note_on_c, 0, 50, 95
2, 356160, Note_on_c, 0, 43, 95
2, 356640, Note_off_c, 0, 50, 95
2, 356640, Note_off_c, 0, 43, 95
2, 356640, Note_on_c, 0, 49, 95
2, 356640, Note_on_c, 0, 42, 95
2, 357120, Note_off_c, 0, 49, 95
2, 357120, Note_off_c, 0, 42, 95
2, 357120, Note_on_c, 0, 39, 95
2, 357360, Note_off_c, 0, 39, 95
2, 357360, Note_on_c, 0, 39, 95
2, 357600, Note_off_c, 0, 39, 95
2, 357840, Note_on_c, 0, 39, 95
2, 358020, Note_on_c, 1, 49, 95
2, 358080, Note_off_c, 0, 39, 95
2, 358080, Note_off_c, 1, 49, 95
2, 358080, Note_on_c, 1, 51, 95
2, 358080, Note_on_c, 0, 39, 95
2, 358560, Note_off_c, 1, 51, 95
2, 358560, Note_off_c, 0, 39, 95
2, 358560, Note_on_c, 0, 39, 95
2, 358800, Note_off_c, 0, 39, 95
2, 358800, Note_on_c, 0, 39, 95
2, 359040, Note_off_c, 0, 39, 95
2, 359280, Note_on_c, 0, 39, 95
2, 359520, Note_off_c, 0, 39, 95
2, 359520, Note_on_c, 0, 59, 95
2, 359520, Note_on_c, 0, 52, 95
2, 360000, Note_off_c, 0, 59, 95
2, 360000, Note_off_c, 0, 52, 95
2, 360000, Note_on_c, 0, 39, 95
2, 360240, Note_off_c, 0, 39, 95
2, 360240, Note_on_c, 0, 39, 95
2, 360480, Note_off_c, 0, 39, 95
2, 360480, Note_on_c, 0, 57, 95
2, 360480, Note_on_c, 0, 50, 95
2, 360960, Note_off_c, 0, 57, 95
2, 360960, Note_off_c, 0, 50, 95
2, 360960, Note_on_c, 0, 39, 95
2, 361200, Note_off_c, 0, 39, 95
2, 361200, Note_on_c, 0, 39, 95
2, 361440, Note_off_c, 0, 39, 95
2, 361680, Note_on_c, 0, 39, 95
2, 361860, Note_on_c, 1, 49, 95
2, 361920, Note_off_c, 0, 39, 95
2, 361920, Note_off_c, 1, 49, 95
2, 361920, Note_on_c, 1, 51, 95
2, 361920, Note_on_c, 0, 39, 95
2, 362400, Note_off_c, 1, 51, 95
2, 362400, Note_off_c, 0, 39, 95
2, 362400, Note_on_c, 0, 39, 95
2, 362640, Note_off_c, 0, 39, 95
2, 362640, Note_on_c, 0, 39, 95
2, 362880, Note_off_c, 0, 39, 95
2, 363120, Note_on_c, 0, 39, 95
2, 363360, Note_off_c, 0, 39, 95
2, 363360, Note_on_c, 0, 61, 95
2, 363360, Note_on_c, 0, 54, 95
2, 363840, Note_off_c, 0, 61, 95
2, 363840, Note_off_c, 0, 54, 95
2, 363840, Note_on_c, 0, 39, 95
2, 364080, Note_off_c, 0, 39, 95
2, 364080, Note_on_c, 0, 39, 95
2, 364320, Note_off_c, 0, 39, 95
2, 364320, Note_on_c, 0, 60, 95
2, 364320, Note_on_c, 0, 53, 95
2, 364800, Note_off_c, 0, 60, 95
2, 364800, Note_off_c, 0, 53, 95
2, 364800, Note_on_c, 0, 39, 95
2, 365040, Note_off_c, 0, 39, 95
2, 365040, Note_on_c, 0, 39, 95
2, 365280, Note_off_c, 0, 39, 95
2, 365520, Note_on_c, 0, 39, 95
2, 365700, Note_on_c, 1, 49, 95
2, 365760, Note_off_c, 0, 39, 95
2, 365760, Note_off_c, 1, 49, 95
2, 365760, Note_on_c, 1, 51, 95
2, 365760, Note_on_c, 0, 39, 95
2, 366240, Note_off_c, 1, 51, 95
2, 366240, Note_off_c, 0, 39, 95
2, 366240, Note_on_c, 0, 39, 95
2, 366480, Note_off_c, 0, 39, 95
2, 366480, Note_on_c, 0, 39, 95
2, 366720, Note_off_c, 0, 39, 95
2, 366960, Note_on_c, 0, 39, 95
2, 367200, Note_off_c, 0, 39, 95
2, 367200, Note_on_c, 0, 59, 95
2, 367200, Note_on_c, 0, 52, 95
2, 367680, Note_off_c, 0, 59, 95
2, 367680, Note_off_c, 0, 52, 95
2, 367680, Note_on_c, 0, 39, 95
2, 367920, Note_off_c, 0, 39, 95
2, 367920, Note_on_c, 0, 39, 95
2, 368160, Note_off_c, 0, 39, 95
2, 368160, Note_on_c, 0, 57, 95
2, 368160, Note_on_c, 0, 50, 95
2, 368640, Note_off_c, 0, 57, 95
2, 368640, Note_off_c, 0, 50, 95
2, 368640, Note_on_c, 0, 39, 95
2, 368880, Note_off_c, 0, 39, 95
2, 368880, Note_on_c, 0, 39, 95
2, 369120, Note_off_c, 0, 39, 95
2, 369360, Note_on_c, 0, 39, 95
2, 369540, Note_on_c, 1, 49, 95
2, 369600, Note_off_c, 0, 39, 95
2, 369600, Note_off_c, 1, 49, 95
2, 369600, Note_on_c, 1, 51, 95
2, 369600, Note_on_c, 0, 39, 95
2, 370080, Note_off_c, 1, 51, 95
2, 370080, Note_off_c, 0, 39, 95
2, 370080, Note_on_c, 0, 39, 95
2, 370320, Note_off_c, 0, 39, 95
2, 370320, Note_on_c, 0, 39, 95
2, 370560, Note_off_c, 0, 39, 95
2, 370800, Note_on_c, 0, 39, 95
2, 371040, Note_off_c, 0, 39, 95
2, 371040, Note_on_c, 0, 49, 95
2, 371040, Note_on_c, 0, 42, 95
2, 371520, Note_off_c, 0, 49, 95
2, 371520, Note_off_c, 0, 42, 95
2, 371520, Note_on_c, 0, 39, 95
2, 371760, Note_off_c, 0, 39, 95
2, 371760, Note_on_c, 0, 39, 95
2, 372000, Note_off_c, 0, 39, 95
2, 372000, Note_on_c, 0, 47, 95
2, 372000, Note_on_c, 0, 40, 95
2, 372480, Note_off_c, 0, 47, 95
2, 372480, Note_off_c, 0, 40, 95
2, 372480, Note_on_c, 0, 48, 95
2, 372480, Note_on_c, 0, 41, 95
2, 375360, Note_off_c, 0, 48, 95
2, 375360, Note_off_c, 0, 41, 95
2, 375360, Note_on_c, 0, 49, 95
2, 375360, Note_on_c, 0, 42, 95
2, 376320, Note_off_c, 0, 49, 95
2, 376320, Note_off_c, 0, 42, 95
2, 376320, Note_on_c, 0, 39, 95
2, 376560, Note_off_c, 0, 39, 95
2, 376560, Note_on_c, 0, 39, 95
2, 376800, Note_off_c, 0, 39, 95
2, 376800, Note_on_c, 0, 39, 95
2, 377040, Note_off_c, 0, 39, 95
2, 377040, Note_on_c, 0, 39, 95
2, 377280, Note_off_c, 0, 39, 95
2, 377280, Note_on_c, 0, 39, 95
2, 377520, Note_off_c, 0, 39, 95
2, 377520, Note_on_c, 0, 39, 95
2, 377760, Note_off_c, 0, 39, 95
2, 377760, Note_on_c, 0, 39, 95
2, 378000, Note_off_c, 0, 39, 95
2, 378000, Note_on_c, 0, 39, 95
2, 378240, Note_off_c, 0, 39, 95
2, 378240, Note_on_c, 0, 39, 95
2, 378480, Note_off_c, 0, 39, 95
2, 378480, Note_on_c, 0, 39, 95
2, 378720, Note_off_c, 0, 39, 95
2, 378720, Note_on_c, 0, 49, 95
2, 378720, Note_on_c, 0, 42, 95
2, 379200, Note_off_c, 0, 49, 95
2, 379200, Note_off_c, 0, 42, 95
2, 379200, Note_on_c, 0, 39, 95
2, 379440, Note_off_c, 0, 39, 95
2, 379440, Note_on_c, 0, 39, 95
2, 379680, Note_off_c, 0, 39, 95
2, 379680, Note_on_c, 0, 49, 95
2, 379680, Note_on_c, 0, 42, 95
2, 380160, Note_off_c, 0, 49, 95
2, 380160, Note_off_c, 0, 42, 95
2, 380160, Note_on_c, 0, 48, 95
2, 380160, Note_on_c, 0, 41, 95
2, 383040, Note_off_c, 0, 48, 95
2, 383040, Note_off_c, 0, 41, 95
2, 383040, Note_on_c, 0, 52, 95
2, 383040, Note_on_c, 0, 45, 95
2, 384000, Note_off_c, 0, 52, 95
2, 384000, Note_off_c, 0, 45, 95
2, 384000, Note_on_c, 0, 39, 95
2, 384240, Note_off_c, 0, 39, 95
2, 384240, Note_on_c, 0, 39, 95
2, 384480, Note_off_c, 0, 39, 95
2, 384480, Note_on_c, 0, 39, 95
2, 384720, Note_off_c, 0, 39, 95
2, 384720, Note_on_c, 0, 39, 95
2, 384960, Note_off_c, 0, 39, 95
2, 384960, Note_on_c, 0, 39, 95
2, 385200, Note_off_c, 0, 39, 95
2, 385200, Note_on_c, 0, 39, 95
2, 385440, Note_off_c, 0, 39, 95
2, 385440, Note_on_c, 0, 39, 95
2, 385680, Note_off_c, 0, 39, 95
2, 385680, Note_on_c, 0, 39, 95
2, 385920, Note_off_c, 0, 39, 95
2, 385920, Note_on_c, 0, 39, 95
2, 386160, Note_off_c, 0, 39, 95
2, 386160, Note_on_c, 0, 39, 95
2, 386400, Note_off_c, 0, 39, 95
2, 386400, Note_on_c, 0, 46, 95
2, 386400, Note_on_c, 0, 39, 95
2, 386880, Note_off_c, 0, 46, 95
2, 386880, Note_off_c, 0, 39, 95
2, 386880, Note_on_c, 0, 39, 95
2, 387120, Note_off_c, 0, 39, 95
2, 387120, Note_on_c, 0, 39, 95
2, 387360, Note_off_c, 0, 39, 95
2, 387360, Note_on_c, 0, 47, 95
2, 387360, Note_on_c, 0, 40, 95
2, 387840, Note_off_c, 0, 47, 95
2, 387840, Note_off_c, 0, 40, 95
2, 387840, Note_on_c, 0, 48, 95
2, 387840, Note_on_c, 0, 41, 95
2, 390720, Note_off_c, 0, 48, 95
2, 390720, Note_off_c, 0, 41, 95
2, 390720, Note_on_c, 0, 49, 95
2, 390720, Note_on_c, 0, 42, 95
2, 391680, Note_off_c, 0, 49, 95
2, 391680, Note_off_c, 0, 42, 95
2, 391680, Note_on_c, 0, 39, 95
2, 391920, Note_off_c, 0, 39, 95
2, 391920, Note_on_c, 0, 39, 95
2, 392160, Note_off_c, 0, 39, 95
2, 392160, Note_on_c, 0, 39, 95
2, 392400, Note_off_c, 0, 39, 95
2, 392400, Note_on_c, 0, 39, 95
2, 392640, Note_off_c, 0, 39, 95
2, 392640, Note_on_c, 0, 39, 95
2, 392880, Note_off_c, 0, 39, 95
2, 392880, Note_on_c, 0, 39, 95
2, 393120, Note_off_c, 0, 39, 95
2, 393120, Note_on_c, 0, 39, 95
2, 393360, Note_off_c, 0, 39, 95
2, 393360, Note_on_c, 0, 39, 95
2, 393600, Note_off_c, 0, 39, 95
2, 393600, Note_on_c, 0, 39, 95
2, 393840, Note_off_c, 0, 39, 95
2, 393840, Note_on_c, 0, 39, 95
2, 394080, Note_off_c, 0, 39, 95
2, 394080, Note_on_c, 0, 49, 95
2, 394080, Note_on_c, 0, 42, 95
2, 394560, Note_off_c, 0, 49, 95
2, 394560, Note_off_c, 0, 42, 95
2, 394560, Note_on_c, 0, 39, 95
2, 394800, Note_off_c, 0, 39, 95
2, 394800, Note_on_c, 0, 39, 95
2, 395040, Note_off_c, 0, 39, 95
2, 395040, Note_on_c, 0, 49, 95
2, 395040, Note_on_c, 0, 42, 95
2, 395520, Note_off_c, 0, 49, 95
2, 395520, Note_off_c, 0, 42, 95
2, 395520, Note_on_c, 0, 48, 95
2, 395520, Note_on_c, 0, 41, 95
2, 396000, Note_off_c, 0, 48, 95
2, 396000, Note_off_c, 0, 41, 95
2, 398400, Note_on_c, 0, 49, 95
2, 398400, Note_on_c, 0, 42, 95
2, 398640, Note_off_c, 0, 49, 95
2, 398640, Note_off_c, 0, 42, 95
2, 398640, Note_on_c, 0, 51, 95
2, 398640, Note_on_c, 0, 44, 95
2, 399360, Note_off_c, 0, 51, 95
2, 399360, Note_off_c, 0, 44, 95
2, 399360, Note_on_c, 0, 39, 95
2, 399600, Note_off_c, 0, 39, 95
2, 399840, Note_on_c, 0, 39, 95
2, 400080, Note_off_c, 0, 39, 95
2, 400080, Note_on_c, 0, 39, 95
2, 400320, Note_off_c, 0, 39, 95
2, 400320, Note_on_c, 0, 51, 95
2, 400560, Note_off_c, 0, 51, 95
2, 400560, Note_on_c, 0, 52, 95
2, 401280, Note_off_c, 0, 52, 95
2, 401280, Note_on_c, 0, 39, 95
2, 401520, Note_off_c, 0, 39, 95
2, 401760, Note_on_c, 0, 39, 95
2, 402000, Note_off_c, 0, 39, 95
2, 402000, Note_on_c, 0, 39, 95
2, 402240, Note_off_c, 0, 39, 95
2, 402240, Note_on_c, 0, 51, 95
2, 402480, Note_off_c, 0, 51, 95
2, 402480, Note_on_c, 0, 52, 95
2, 402720, Note_off_c, 0, 52, 95
2, 402720, Note_on_c, 0, 54, 95
2, 403200, Note_off_c, 0, 54, 95
2, 403200, Note_on_c, 0, 39, 95
2, 403440, Note_off_c, 0, 39, 95
2, 403680, Note_on_c, 0, 39, 95
2, 403920, Note_off_c, 0, 39, 95
2, 403920, Note_on_c, 0, 39, 95
2, 404160, Note_off_c, 0, 39, 95
2, 404160, Note_on_c, 0, 51, 95
2, 404400, Note_off_c, 0, 51, 95
2, 404400, Note_on_c, 0, 52, 95
2, 404640, Note_off_c, 0, 52, 95
2, 404640, Note_on_c, 0, 56, 95
2, 405120, Note_off_c, 0, 56, 95
2, 405120, Note_on_c, 0, 55, 95
2, 405360, Note_off_c, 0, 55, 95
2, 405360, Note_on_c, 0, 54, 95
2, 405600, Note_off_c, 0, 54, 95
2, 405600, Note_on_c, 0, 53, 95
2, 405840, Note_off_c, 0, 53, 95
2, 405840, Note_on_c, 0, 50, 95
2, 406080, Note_off_c, 0, 50, 95
2, 406080, Note_on_c, 0, 49, 95
2, 406320, Note_off_c, 0, 49, 95
2, 406320, Note_on_c, 0, 47, 95
2, 406560, Note_off_c, 0, 47, 95
2, 406560, Note_on_c, 0, 46, 95
2, 406800, Note_off_c, 0, 46, 95
2, 406800, Note_on_c, 0, 45, 95
2, 407040, Note_off_c, 0, 45, 95
2, 407040, Note_on_c, 0, 39, 95
2, 407280, Note_off_c, 0, 39, 95
2, 407520, Note_on_c, 0, 39, 95
2, 407760, Note_off_c, 0, 39, 95
2, 407760, Note_on_c, 0, 39, 95
2, 408000, Note_off_c, 0, 39, 95
2, 408000, Note_on_c, 0, 51, 95
2, 408240, Note_off_c, 0, 51, 95
2, 408240, Note_on_c, 0, 52, 95
2, 408960, Note_off_c, 0, 52, 95
2, 408960, Note_on_c, 0, 39, 95
2, 409200, Note_off_c, 0, 39, 95
2, 409440, Note_on_c, 0, 39, 95
2, 409680, Note_off_c, 0, 39, 95
2, 409680, Note_on_c, 0, 39, 95
2, 409920, Note_off_c, 0, 39, 95
2, 409920, Note_on_c, 0, 51, 95
2, 410160, Note_off_c, 0, 51, 95
2, 410160, Note_on_c, 0, 52, 95
2, 410400, Note_off_c, 0, 52, 95
2, 410400, Note_on_c, 0, 54, 95
2, 410880, Note_off_c, 0, 54, 95
2, 410880, Note_on_c, 0, 39, 95
2, 411120, Note_off_c, 0, 39, 95
2, 411360, Note_on_c, 0, 39, 95
2, 411600, Note_off_c, 0, 39, 95
2, 411600, Note_on_c, 0, 39, 95
2, 411840, Note_off_c, 0, 39, 95
2, 411840, Note_on_c, 0, 51, 95
2, 412080, Note_off_c, 0, 51, 95
2, 412080, Note_on_c, 0, 52, 95
2, 412320, Note_off_c, 0, 52, 95
2, 412320, Note_on_c, 0, 56, 95
2, 412800, Note_off_c, 0, 56, 95
2, 412800, Note_on_c, 0, 55, 95
2, 413040, Note_off_c, 0, 55, 95
2, 413040, Note_on_c, 0, 54, 95
2, 413280, Note_off_c, 0, 54, 95
2, 413280, Note_on_c, 0, 53, 95
2, 413520, Note_off_c, 0, 53, 95
2, 413520, Note_on_c, 0, 50, 95
2, 413760, Note_off_c, 0, 50, 95
2, 413760, Note_on_c, 0, 49, 95
2, 414000, Note_off_c, 0, 49, 95
2, 414000, Note_on_c, 0, 48, 95
2, 414240, Note_off_c, 0, 48, 95
2, 414240, Note_on_c, 0, 57, 95
2, 414720, Note_off_c, 0, 57, 95
2, 414720, Note_on_c, 0, 39, 95
2, 414960, Note_off_c, 0, 39, 95
2, 415200, Note_on_c, 0, 39, 95
2, 415440, Note_off_c, 0, 39, 95
2, 415440, Note_on_c, 0, 39, 95
2, 415680, Note_off_c, 0, 39, 95
2, 415680, Note_on_c, 0, 51, 95
2, 415920, Note_off_c, 0, 51, 95
2, 415920, Note_on_c, 0, 52, 95
2, 416640, Note_off_c, 0, 52, 95
2, 416640, Note_on_c, 0, 39, 95
2, 416880, Note_off_c, 0, 39, 95
2, 417120, Note_on_c, 0, 39, 95
2, 417360, Note_off_c, 0, 39, 95
2, 417360, Note_on_c, 0, 39, 95
2, 417600, Note_off_c, 0, 39, 95
2, 417600, Note_on_c, 0, 51, 95
2, 417840, Note_off_c, 0, 51, 95
2, 417840, Note_on_c, 0, 52, 95
2, 418080, Note_off_c, 0, 52, 95
2, 418080, Note_on_c, 0, 54, 95
2, 418560, Note_off_c, 0, 54, 95
2, 418560, Note_on_c, 0, 39, 95
2, 418800, Note_off_c, 0, 39, 95
2, 419040, Note_on_c, 0, 39, 95
2, 419280, Note_off_c, 0, 39, 95
2, 419280, Note_on_c, 0, 39, 95
2, 419520, Note_off_c, 0, 39, 95
2, 419520, Note_on_c, 0, 51, 95
2, 419760, Note_off_c, 0, 51, 95
2, 419760, Note_on_c, 0, 52, 95
2, 420000, Note_off_c, 0, 52, 95
2, 420000, Note_on_c, 0, 56, 95
2, 420480, Note_off_c, 0, 56, 95
2, 420480, Note_on_c, 0, 55, 95
2, 420720, Note_off_c, 0, 55, 95
2, 420720, Note_on_c, 0, 54, 95
2, 420960, Note_off_c, 0, 54, 95
2, 420960, Note_on_c, 0, 53, 95
2, 421200, Note_off_c, 0, 53, 95
2, 421200, Note_on_c, 0, 50, 95
2, 421440, Note_off_c, 0, 50, 95
2, 421440, Note_on_c, 0, 49, 95
2, 421680, Note_off_c, 0, 49, 95
2, 421680, Note_on_c, 0, 47, 95
2, 421920, Note_off_c, 0, 47, 95
2, 421920, Note_on_c, 0, 46, 95
2, 422160, Note_off_c, 0, 46, 95
2, 422160, Note_on_c, 0, 45, 95
2, 422400, Note_off_c, 0, 45, 95
2, 422400, Note_on_c, 0, 39, 95
2, 422640, Note_off_c, 0, 39, 95
2, 422880, Note_on_c, 0, 39, 95
2, 423120, Note_off_c, 0, 39, 95
2, 423120, Note_on_c, 0, 39, 95
2, 423360, Note_off_c, 0, 39, 95
2, 423360, Note_on_c, 0, 51, 95
2, 423600, Note_off_c, 0, 51, 95
2, 423600, Note_on_c, 0, 52, 95
2, 424320, Note_off_c, 0, 52, 95
2, 424320, Note_on_c, 0, 39, 95
2, 424560, Note_off_c, 0, 39, 95
2, 424800, Note_on_c, 0, 39, 95
2, 425040, Note_off_c, 0, 39, 95
2, 425040, Note_on_c, 0, 39, 95
2, 425280, Note_off_c, 0, 39, 95
2, 425280, Note_on_c, 0, 51, 95
2, 425520, Note_off_c, 0, 51, 95
2, 425520, Note_on_c, 0, 52, 95
2, 425760, Note_off_c, 0, 52, 95
2, 425760, Note_on_c, 0, 54, 95
2, 426240, Note_off_c, 0, 54, 95
2, 426240, Note_on_c, 0, 39, 95
2, 426480, Note_off_c, 0, 39, 95
2, 426720, Note_on_c, 0, 39, 95
2, 426960, Note_off_c, 0, 39, 95
2, 426960, Note_on_c, 0, 39, 95
2, 427200, Note_off_c, 0, 39, 95
2, 427200, Note_on_c, 0, 51, 95
2, 427440, Note_off_c, 0, 51, 95
2, 427440, Note_on_c, 0, 52, 95
2, 427680, Note_off_c, 0, 52, 95
2, 427680, Note_on_c, 0, 56, 95
2, 428160, Note_off_c, 0, 56, 95
2, 428160, Note_on_c, 0, 55, 95
2, 428400, Note_off_c, 0, 55, 95
2, 428400, Note_on_c, 0, 54, 95
2, 428640, Note_off_c, 0, 54, 95
2, 428640, Note_on_c, 0, 53, 95
2, 428880, Note_off_c, 0, 53, 95
2, 428880, Note_on_c, 0, 50, 95
2, 429120, Note_off_c, 0, 50, 95
2, 429120, Note_on_c, 0, 49, 95
2, 429360, Note_off_c, 0, 49, 95
2, 429360, Note_on_c, 0, 47, 95
2, 429600, Note_off_c, 0, 47, 95
2, 429600, Note_on_c, 0, 46, 95
2, 429840, Note_off_c, 0, 46, 95
2, 429840, Note_on_c, 0, 45, 95
2, 430080, Note_off_c, 0, 45, 95
2, 430080, Note_on_c, 0, 55, 95
2, 430320, Note_off_c, 0, 55, 95
2, 430320, Note_on_c, 0, 54, 95
2, 430560, Note_off_c, 0, 54, 95
2, 430560, Note_on_c, 0, 53, 95
2, 430800, Note_off_c, 0, 53, 95
2, 430800, Note_on_c, 0, 49, 95
2, 431040, Note_off_c, 0, 49, 95
2, 431040, Note_on_c, 0, 48, 95
2, 431280, Note_off_c, 0, 48, 95
2, 431280, Note_on_c, 0, 47, 95
2, 431520, Note_off_c, 0, 47, 95
2, 431520, Note_on_c, 0, 42, 95
2, 431760, Note_off_c, 0, 42, 95
2, 431760, Note_on_c, 0, 41, 95
2, 432000, Note_off_c, 0, 41, 95
2, 432000, Note_on_c, 0, 46, 95
2, 432000, Note_on_c, 0, 39, 95
2, 432480, Note_off_c, 0, 46, 95
2, 432480, Note_off_c, 0, 39, 95
2, 432480, End_track
3, 0, Start_track
3, 0, Pitch_bend_c, 2, 8192
3, 0, Control_c, 2, 7, 103
3, 0, Control_c, 2, 10, 103
3, 0, Control_c, 2, 93, 0
3, 0, Control_c, 2, 91, 0
3, 0, Control_c, 2, 95, 0
3, 0, Control_c, 2, 92, 0
3, 0, Control_c, 2, 11, 127
3, 0, Program_c, 2, 30
3, 0, Control_c, 3, 7, 103
3, 0, Control_c, 3, 10, 103
3, 0, Control_c, 3, 93, 0
3, 0, Control_c, 3, 91, 0
3, 0, Control_c, 3, 95, 0
3, 0, Control_c, 3, 92, 0
3, 0, Control_c, 3, 11, 127
3, 0, Program_c, 3, 30
3, 0, Note_on_c, 2, 39, 95
3, 240, Note_off_c, 2, 39, 95
3, 240, Note_on_c, 2, 39, 95
3, 480, Note_off_c, 2, 39, 95
3, 720, Note_on_c, 2, 39, 95
3, 900, Note_on_c, 3, 49, 95
3, 960, Note_off_c, 2, 39, 95
3, 960, Note_off_c, 3, 49, 95
3, 960, Note_on_c, 3, 51, 95
3, 960, Note_on_c, 2, 39, 95
3, 1440, Note_off_c, 3, 51, 95
3, 1440, Note_off_c, 2, 39, 95
3, 1440, Note_on_c, 2, 39, 95
3, 1680, Note_off_c, 2, 39, 95
3, 1680, Note_on_c, 2, 39, 95
3, 1920, Note_off_c, 2, 39, 95
3, 2160, Note_on_c, 2, 39, 95
3, 2400, Note_off_c, 2, 39, 95
3, 2400, Note_on_c, 2, 59, 95
3, 2400, Note_on_c, 2, 52, 95
3, 2880, Note_off_c, 2, 59, 95
3, 2880, Note_off_c, 2, 52, 95
3, 2880, Note_on_c, 2, 39, 95
3, 3120, Note_off_c, 2, 39, 95
3, 3120, Note_on_c, 2, 39, 95
3, 3360, Note_off_c, 2, 39, 95
3, 3360, Note_on_c, 2, 57, 95
3, 3360, Note_on_c, 2, 50, 95
3, 3840, Note_off_c, 2, 57, 95
3, 3840, Note_off_c, 2, 50, 95
3, 3840, Note_on_c, 2, 39, 95
3, 4080, Note_off_c, 2, 39, 95
3, 4080, Note_on_c, 2, 39, 95
3, 4320, Note_off_c, 2, 39, 95
3, 4560, Note_on_c, 2, 39, 95
3, 4740, Note_on_c, 3, 49, 95
3, 4800, Note_off_c, 2, 39, 95
3, 4800, Note_off_c, 3, 49, 95
3, 4800, Note_on_c, 3, 51, 95
3, 4800, Note_on_c, 2, 39, 95
3, 5280, Note_off_c, 3, 51, 95
3, 5280, Note_off_c, 2, 39, 95
3, 5280, Note_on_c, 2, 39, 95
3, 5520, Note_off_c, 2, 39, 95
3, 5520, Note_on_c, 2, 39, 95
3, 5760, Note_off_c, 2, 39, 95
3, 6000, Note_on_c, 2, 39, 95
3, 6240, Note_off_c, 2, 39, 95
3, 6240, Note_on_c, 2, 61, 95
3, 6240, Note_on_c, 2, 54, 95
3, 6720, Note_off_c, 2, 61, 95
3, 6720, Note_off_c, 2, 54, 95
3, 6720, Note_on_c, 2, 39, 95
3, 6960, Note_off_c, 2, 39, 95
3, 6960, Note_on_c, 2, 39, 95
3, 7200, Note_off_c, 2, 39, 95
3, 7200, Note_on_c, 2, 60, 95
3, 7200, Note_on_c, 2, 53, 95
3, 7680, Note_off_c, 2, 60, 95
3, 7680, Note_off_c, 2, 53, 95
3, 7680, Note_on_c, 2, 39, 95
3, 7920, Note_off_c, 2, 39, 95
3, 7920, Note_on_c, 2, 39, 95
3, 8160, Note_off_c, 2, 39, 95
3, 8400, Note_on_c, 2, 39, 95
3, 8580, Note_on_c, 3, 49, 95
3, 8640, Note_off_c, 2, 39, 95
3, 8640, Note_off_c, 3, 49, 95
3, 8640, Note_on_c, 3, 51, 95
3, 8640, Note_on_c, 2, 39, 95
3, 9120, Note_off_c, 3, 51, 95
3, 9120, Note_off_c, 2, 39, 95
3, 9120, Note_on_c, 2, 39, 95
3, 9360, Note_off_c, 2, 39, 95
3, 9360, Note_on_c, 2, 39, 95
3, 9600, Note_off_c, 2, 39, 95
3, 9840, Note_on_c, 2, 39, 95
3, 10080, Note_off_c, 2, 39, 95
3, 10080, Note_on_c, 2, 59, 95
3, 10080, Note_on_c, 2, 52, 95
3, 10560, Note_off_c, 2, 59, 95
3, 10560, Note_off_c, 2, 52, 95
3, 10560, Note_on_c, 2, 39, 95
3, 10800, Note_off_c, 2, 39, 95
3, 10800, Note_on_c, 2, 39, 95
3, 11040, Note_off_c, 2, 39, 95
3, 11040, Note_on_c, 2, 57, 95
3, 11040, Note_on_c, 2, 50, 95
3, 11520, Note_off_c, 2, 57, 95
3, 11520, Note_off_c, 2, 50, 95
3, 11520, Note_on_c, 2, 39, 95
3, 11760, Note_off_c, 2, 39, 95
3, 11760, Note_on_c, 2, 39, 95
3, 12000, Note_off_c, 2, 39, 95
3, 12240, Note_on_c, 2, 39, 95
3, 12420, Note_on_c, 3, 49, 95
3, 12480, Note_off_c, 2, 39, 95
3, 12480, Note_off_c, 3, 49, 95
3, 12480, Note_on_c, 3, 51, 95
3, 12480, Note_on_c, 2, 39, 95
3, 12960, Note_off_c, 3, 51, 95
3, 12960, Note_off_c, 2, 39, 95
3, 12960, Note_on_c, 2, 39, 95
3, 13200, Note_off_c, 2, 39, 95
3, 13200, Note_on_c, 2, 39, 95
3, 13440, Note_off_c, 2, 39, 95
3, 13680, Note_on_c, 2, 39, 95
3, 13920, Note_off_c, 2, 39, 95
3, 13920, Note_on_c, 2, 49, 95
3, 13920, Note_on_c, 2, 42, 95
3, 14400, Note_off_c, 2, 49, 95
3, 14400, Note_off_c, 2, 42, 95
3, 14400, Note_on_c, 2, 39, 95
3, 14640, Note_off_c, 2, 39, 95
3, 14640, Note_on_c, 2, 39, 95
3, 14880, Note_off_c, 2, 39, 95
3, 14880, Note_on_c, 2, 48, 95
3, 14880, Note_on_c, 2, 41, 95
3, 15360, Note_off_c, 2, 48, 95
3, 15360, Note_off_c, 2, 41, 95
3, 15360, Note_on_c, 2, 39, 95
3, 15600, Note_off_c, 2, 39, 95
3, 15600, Note_on_c, 2, 39, 95
3, 15840, Note_off_c, 2, 39, 95
3, 16080, Note_on_c, 2, 39, 95
3, 16260, Note_on_c, 3, 49, 95
3, 16320, Note_off_c, 2, 39, 95
3, 16320, Note_off_c, 3, 49, 95
3, 16320, Note_on_c, 3, 51, 95
3, 16320, Note_on_c, 2, 39, 95
3, 16800, Note_off_c, 3, 51, 95
3, 16800, Note_off_c, 2, 39, 95
3, 16800, Note_on_c, 2, 39, 95
3, 17040, Note_off_c, 2, 39, 95
3, 17040, Note_on_c, 2, 39, 95
3, 17280, Note_off_c, 2, 39, 95
3, 17520, Note_on_c, 2, 39, 95
3, 17760, Note_off_c, 2, 39, 95
3, 17760, Note_on_c, 2, 59, 95
3, 17760, Note_on_c, 2, 52, 95
3, 18240, Note_off_c, 2, 59, 95
3, 18240, Note_off_c, 2, 52, 95
3, 18240, Note_on_c, 2, 39, 95
3, 18480, Note_off_c, 2, 39, 95
3, 18480, Note_on_c, 2, 39, 95
3, 18720, Note_off_c, 2, 39, 95
3, 18720, Note_on_c, 2, 57, 95
3, 18720, Note_on_c, 2, 50, 95
3, 19200, Note_off_c, 2, 57, 95
3, 19200, Note_off_c, 2, 50, 95
3, 19200, Note_on_c, 2, 39, 95
3, 19440, Note_off_c, 2, 39, 95
3, 19440, Note_on_c, 2, 39, 95
3, 19680, Note_off_c, 2, 39, 95
3, 19920, Note_on_c, 2, 39, 95
3, 20100, Note_on_c, 3, 49, 95
3, 20160, Note_off_c, 2, 39, 95
3, 20160, Note_off_c, 3, 49, 95
3, 20160, Note_on_c, 3, 51, 95
3, 20160, Note_on_c, 2, 39, 95
3, 20640, Note_off_c, 3, 51, 95
3, 20640, Note_off_c, 2, 39, 95
3, 20640, Note_on_c, 2, 39, 95
3, 20880, Note_off_c, 2, 39, 95
3, 20880, Note_on_c, 2, 39, 95
3, 21120, Note_off_c, 2, 39, 95
3, 21360, Note_on_c, 2, 39, 95
3, 21600, Note_off_c, 2, 39, 95
3, 21600, Note_on_c, 2, 61, 95
3, 21600, Note_on_c, 2, 54, 95
3, 22080, Note_off_c, 2, 61, 95
3, 22080, Note_off_c, 2, 54, 95
3, 22080, Note_on_c, 2, 39, 95
3, 22320, Note_off_c, 2, 39, 95
3, 22320, Note_on_c, 2, 39, 95
3, 22560, Note_off_c, 2, 39, 95
3, 22560, Note_on_c, 2, 60, 95
3, 22560, Note_on_c, 2, 53, 95
3, 23040, Note_off_c, 2, 60, 95
3, 23040, Note_off_c, 2, 53, 95
3, 23040, Note_on_c, 2, 39, 95
3, 23280, Note_off_c, 2, 39, 95
3, 23280, Note_on_c, 2, 39, 95
3, 23520, Note_off_c, 2, 39, 95
3, 23760, Note_on_c, 2, 39, 95
3, 23940, Note_on_c, 3, 49, 95
3, 24000, Note_off_c, 2, 39, 95
3, 24000, Note_off_c, 3, 49, 95
3, 24000, Note_on_c, 3, 51, 95
3, 24000, Note_on_c, 2, 39, 95
3, 24480, Note_off_c, 3, 51, 95
3, 24480, Note_off_c, 2, 39, 95
3, 24480, Note_on_c, 2, 39, 95
3, 24720, Note_off_c, 2, 39, 95
3, 24720, Note_on_c, 2, 39, 95
3, 24960, Note_off_c, 2, 39, 95
3, 25200, Note_on_c, 2, 39, 95
3, 25440, Note_off_c, 2, 39, 95
3, 25440, Note_on_c, 2, 59, 95
3, 25440, Note_on_c, 2, 52, 95
3, 25920, Note_off_c, 2, 59, 95
3, 25920, Note_off_c, 2, 52, 95
3, 25920, Note_on_c, 2, 39, 95
3, 26160, Note_off_c, 2, 39, 95
3, 26160, Note_on_c, 2, 39, 95
3, 26400, Note_off_c, 2, 39, 95
3, 26400, Note_on_c, 2, 57, 95
3, 26400, Note_on_c, 2, 50, 95
3, 26880, Note_off_c, 2, 57, 95
3, 26880, Note_off_c, 2, 50, 95
3, 26880, Note_on_c, 2, 39, 95
3, 27120, Note_off_c, 2, 39, 95
3, 27120, Note_on_c, 2, 39, 95
3, 27360, Note_off_c, 2, 39, 95
3, 27600, Note_on_c, 2, 39, 95
3, 27780, Note_on_c, 3, 49, 95
3, 27840, Note_off_c, 2, 39, 95
3, 27840, Note_off_c, 3, 49, 95
3, 27840, Note_on_c, 3, 51, 95
3, 27840, Note_on_c, 2, 39, 95
3, 28320, Note_off_c, 3, 51, 95
3, 28320, Note_off_c, 2, 39, 95
3, 28320, Note_on_c, 2, 39, 95
3, 28560, Note_off_c, 2, 39, 95
3, 28560, Note_on_c, 2, 39, 95
3, 28800, Note_off_c, 2, 39, 95
3, 29040, Note_on_c, 2, 39, 95
3, 29280, Note_off_c, 2, 39, 95
3, 29280, Note_on_c, 2, 49, 95
3, 29280, Note_on_c, 2, 42, 95
3, 29760, Note_off_c, 2, 49, 95
3, 29760, Note_off_c, 2, 42, 95
3, 29760, Note_on_c, 2, 39, 95
3, 30000, Note_off_c, 2, 39, 95
3, 30000, Note_on_c, 2, 39, 95
3, 30240, Note_off_c, 2, 39, 95
3, 30240, Note_on_c, 2, 48, 95
3, 30240, Note_on_c, 2, 41, 95
3, 30720, Note_off_c, 2, 48, 95
3, 30720, Note_off_c, 2, 41, 95
3, 30720, Note_on_c, 2, 39, 95
3, 30960, Note_off_c, 2, 39, 95
3, 30960, Note_on_c, 2, 39, 95
3, 31200, Note_off_c, 2, 39, 95
3, 31440, Note_on_c, 2, 39, 95
3, 31620, Note_on_c, 3, 49, 95
3, 31680, Note_off_c, 2, 39, 95
3, 31680, Note_off_c, 3, 49, 95
3, 31680, Note_on_c, 3, 51, 95
3, 31680, Note_on_c, 2, 39, 95
3, 32160, Note_off_c, 3, 51, 95
3, 32160, Note_off_c, 2, 39, 95
3, 32160, Note_on_c, 2, 39, 95
3, 32400, Note_off_c, 2, 39, 95
3, 32400, Note_on_c, 2, 39, 95
3, 32640, Note_off_c, 2, 39, 95
3, 32880, Note_on_c, 2, 39, 95
3, 33120, Note_off_c, 2, 39, 95
3, 33120, Note_on_c, 2, 59, 95
3, 33120, Note_on_c, 2, 52, 95
3, 33600, Note_off_c, 2, 59, 95
3, 33600, Note_off_c, 2, 52, 95
3, 33600, Note_on_c, 2, 39, 95
3, 33840, Note_off_c, 2, 39, 95
3, 33840, Note_on_c, 2, 39, 95
3, 34080, Note_off_c, 2, 39, 95
3, 34080, Note_on_c, 2, 57, 95
3, 34080, Note_on_c, 2, 50, 95
3, 34560, Note_off_c, 2, 57, 95
3, 34560, Note_off_c, 2, 50, 95
3, 34560, Note_on_c, 2, 39, 95
3, 34800, Note_off_c, 2, 39, 95
3, 34800, Note_on_c, 2, 39, 95
3, 35040, Note_off_c, 2, 39, 95
3, 35280, Note_on_c, 2, 39, 95
3, 35460, Note_on_c, 3, 49, 95
3, 35520, Note_off_c, 2, 39, 95
3, 35520, Note_off_c, 3, 49, 95
3, 35520, Note_on_c, 3, 51, 95
3, 35520, Note_on_c, 2, 39, 95
3, 36000, Note_off_c, 3, 51, 95
3, 36000, Note_off_c, 2, 39, 95
3, 36000, Note_on_c, 2, 39, 95
3, 36240, Note_off_c, 2, 39, 95
3, 36240, Note_on_c, 2, 39, 95
3, 36480, Note_off_c, 2, 39, 95
3, 36720, Note_on_c, 2, 39, 95
3, 36960, Note_off_c, 2, 39, 95
3, 36960, Note_on_c, 2, 61, 95
3, 36960, Note_on_c, 2, 54, 95
3, 37440, Note_off_c, 2, 61, 95
3, 37440, Note_off_c, 2, 54, 95
3, 37440, Note_on_c, 2, 39, 95
3, 37680, Note_off_c, 2, 39, 95
3, 37680, Note_on_c, 2, 39, 95
3, 37920, Note_off_c, 2, 39, 95
3, 37920, Note_on_c, 2, 60, 95
3, 37920, Note_on_c, 2, 53, 95
3, 38400, Note_off_c, 2, 60, 95
3, 38400, Note_off_c, 2, 53, 95
3, 38400, Note_on_c, 2, 39, 95
3, 38640, Note_off_c, 2, 39, 95
3, 38640, Note_on_c, 2, 39, 95
3, 38880, Note_off_c, 2, 39, 95
3, 39120, Note_on_c, 2, 39, 95
3, 39300, Note_on_c, 3, 49, 95
3, 39360, Note_off_c, 2, 39, 95
3, 39360, Note_off_c, 3, 49, 95
3, 39360, Note_on_c, 3, 51, 95
3, 39360, Note_on_c, 2, 39, 95
3, 39840, Note_off_c, 3, 51, 95
3, 39840, Note_off_c, 2, 39, 95
3, 39840, Note_on_c, 2, 39, 95
3, 40080, Note_off_c, 2, 39, 95
3, 40080, Note_on_c, 2, 39, 95
3, 40320, Note_off_c, 2, 39, 95
3, 40560, Note_on_c, 2, 39, 95
3, 40800, Note_off_c, 2, 39, 95
3, 40800, Note_on_c, 2, 59, 95
3, 40800, Note_on_c, 2, 52, 95
3, 41280, Note_off_c, 2, 59, 95
3, 41280, Note_off_c, 2, 52, 95
3, 41280, Note_on_c, 2, 39, 95
3, 41520, Note_off_c, 2, 39, 95
3, 41520, Note_on_c, 2, 39, 95
3, 41760, Note_off_c, 2, 39, 95
3, 41760, Note_on_c, 2, 57, 95
3, 41760, Note_on_c, 2, 50, 95
3, 42240, Note_off_c, 2, 57, 95
3, 42240, Note_off_c, 2, 50, 95
3, 42240, Note_on_c, 2, 39, 95
3, 42480, Note_off_c, 2, 39, 95
3, 42480, Note_on_c, 2, 39, 95
3, 42720, Note_off_c, 2, 39, 95
3, 42960, Note_on_c, 2, 39, 95
3, 43140, Note_on_c, 3, 49, 95
3, 43200, Note_off_c, 2, 39, 95
3, 43200, Note_off_c, 3, 49, 95
3, 43200, Note_on_c, 3, 51, 95
3, 43200, Note_on_c, 2, 39, 95
3, 43680, Note_off_c, 3, 51, 95
3, 43680, Note_off_c, 2, 39, 95
3, 43680, Note_on_c, 2, 39, 95
3, 43920, Note_off_c, 2, 39, 95
3, 43920, Note_on_c, 2, 39, 95
3, 44160, Note_off_c, 2, 39, 95
3, 44400, Note_on_c, 2, 39, 95
3, 44640, Note_off_c, 2, 39, 95
3, 44640, Note_on_c, 2, 49, 95
3, 44640, Note_on_c, 2, 42, 95
3, 45120, Note_off_c, 2, 49, 95
3, 45120, Note_off_c, 2, 42, 95
3, 45120, Note_on_c, 2, 39, 95
3, 45360, Note_off_c, 2, 39, 95
3, 45360, Note_on_c, 2, 39, 95
3, 45600, Note_off_c, 2, 39, 95
3, 45600, Note_on_c, 2, 48, 95
3, 45600, Note_on_c, 2, 41, 95
3, 46080, Note_off_c, 2, 48, 95
3, 46080, Note_off_c, 2, 41, 95
3, 46080, Note_on_c, 2, 39, 95
3, 46320, Note_off_c, 2, 39, 95
3, 46320, Note_on_c, 2, 39, 95
3, 46560, Note_off_c, 2, 39, 95
3, 46800, Note_on_c, 2, 39, 95
3, 46980, Note_on_c, 3, 49, 95
3, 47040, Note_off_c, 2, 39, 95
3, 47040, Note_off_c, 3, 49, 95
3, 47040, Note_on_c, 3, 51, 95
3, 47040, Note_on_c, 2, 39, 95
3, 47520, Note_off_c, 3, 51, 95
3, 47520, Note_off_c, 2, 39, 95
3, 47520, Note_on_c, 2, 39, 95
3, 47760, Note_off_c, 2, 39, 95
3, 47760, Note_on_c, 2, 39, 95
3, 48000, Note_off_c, 2, 39, 95
3, 48240, Note_on_c, 2, 39, 95
3, 48480, Note_off_c, 2, 39, 95
3, 48480, Note_on_c, 2, 59, 95
3, 48480, Note_on_c, 2, 52, 95
3, 48960, Note_off_c, 2, 59, 95
3, 48960, Note_off_c, 2, 52, 95
3, 48960, Note_on_c, 2, 39, 95
3, 49200, Note_off_c, 2, 39, 95
3, 49200, Note_on_c, 2, 39, 95
3, 49440, Note_off_c, 2, 39, 95
3, 49440, Note_on_c, 2, 57, 95
3, 49440, Note_on_c, 2, 50, 95
3, 49920, Note_off_c, 2, 57, 95
3, 49920, Note_off_c, 2, 50, 95
3, 49920, Note_on_c, 2, 39, 95
3, 50160, Note_off_c, 2, 39, 95
3, 50160, Note_on_c, 2, 39, 95
3, 50400, Note_off_c, 2, 39, 95
3, 50640, Note_on_c, 2, 39, 95
3, 50820, Note_on_c, 3, 49, 95
3, 50880, Note_off_c, 2, 39, 95
3, 50880, Note_off_c, 3, 49, 95
3, 50880, Note_on_c, 3, 51, 95
3, 50880, Note_on_c, 2, 39, 95
3, 51360, Note_off_c, 3, 51, 95
3, 51360, Note_off_c, 2, 39, 95
3, 51360, Note_on_c, 2, 39, 95
3, 51600, Note_off_c, 2, 39, 95
3, 51600, Note_on_c, 2, 39, 95
3, 51840, Note_off_c, 2, 39, 95
3, 52080, Note_on_c, 2, 39, 95
3, 52320, Note_off_c, 2, 39, 95
3, 52320, Note_on_c, 2, 61, 95
3, 52320, Note_on_c, 2, 54, 95
3, 52800, Note_off_c, 2, 61, 95
3, 52800, Note_off_c, 2, 54, 95
3, 52800, Note_on_c, 2, 39, 95
3, 53040, Note_off_c, 2, 39, 95
3, 53040, Note_on_c, 2, 39, 95
3, 53280, Note_off_c, 2, 39, 95
3, 53280, Note_on_c, 2, 60, 95
3, 53280, Note_on_c, 2, 53, 95
3, 53760, Note_off_c, 2, 60, 95
3, 53760, Note_off_c, 2, 53, 95
3, 53760, Note_on_c, 2, 39, 95
3, 54000, Note_off_c, 2, 39, 95
3, 54000, Note_on_c, 2, 39, 95
3, 54240, Note_off_c, 2, 39, 95
3, 54480, Note_on_c, 2, 39, 95
3, 54660, Note_on_c, 3, 49, 95
3, 54720, Note_off_c, 2, 39, 95
3, 54720, Note_off_c, 3, 49, 95
3, 54720, Note_on_c, 3, 51, 95
3, 54720, Note_on_c, 2, 39, 95
3, 55200, Note_off_c, 3, 51, 95
3, 55200, Note_off_c, 2, 39, 95
3, 55200, Note_on_c, 2, 39, 95
3, 55440, Note_off_c, 2, 39, 95
3, 55440, Note_on_c, 2, 39, 95
3, 55680, Note_off_c, 2, 39, 95
3, 55920, Note_on_c, 2, 39, 95
3, 56160, Note_off_c, 2, 39, 95
3, 56160, Note_on_c, 2, 59, 95
3, 56160, Note_on_c, 2, 52, 95
3, 56640, Note_off_c, 2, 59, 95
3, 56640, Note_off_c, 2, 52, 95
3, 56640, Note_on_c, 2, 39, 95
3, 56880, Note_off_c, 2, 39, 95
3, 56880, Note_on_c, 2, 39, 95
3, 57120, Note_off_c, 2, 39, 95
3, 57120, Note_on_c, 2, 57, 95
3, 57120, Note_on_c, 2, 50, 95
3, 57600, Note_off_c, 2, 57, 95
3, 57600, Note_off_c, 2, 50, 95
3, 57600, Note_on_c, 2, 39, 95
3, 57840, Note_off_c, 2, 39, 95
3, 57840, Note_on_c, 2, 39, 95
3, 58080, Note_off_c, 2, 39, 95
3, 58320, Note_on_c, 2, 39, 95
3, 58500, Note_on_c, 3, 49, 95
3, 58560, Note_off_c, 2, 39, 95
3, 58560, Note_off_c, 3, 49, 95
3, 58560, Note_on_c, 3, 51, 95
3, 58560, Note_on_c, 2, 39, 95
3, 59040, Note_off_c, 3, 51, 95
3, 59040, Note_off_c, 2, 39, 95
3, 59040, Note_on_c, 2, 39, 95
3, 59280, Note_off_c, 2, 39, 95
3, 59280, Note_on_c, 2, 39, 95
3, 59520, Note_off_c, 2, 39, 95
3, 59760, Note_on_c, 2, 39, 95
3, 60000, Note_off_c, 2, 39, 95
3, 60000, Note_on_c, 2, 49, 95
3, 60000, Note_on_c, 2, 42, 95
3, 60480, Note_off_c, 2, 49, 95
3, 60480, Note_off_c, 2, 42, 95
3, 60480, Note_on_c, 2, 39, 95
3, 60720, Note_off_c, 2, 39, 95
3, 60720, Note_on_c, 2, 39, 95
3, 60960, Note_off_c, 2, 39, 95
3, 60960, Note_on_c, 2, 48, 95
3, 60960, Note_on_c, 2, 41, 95
3, 61440, Note_off_c, 2, 48, 95
3, 61440, Note_off_c, 2, 41, 95
3, 61440, Note_on_c, 2, 39, 95
3, 61680, Note_off_c, 2, 39, 95
3, 61920, Note_on_c, 2, 39, 95
3, 62160, Note_off_c, 2, 39, 95
3, 62160, Note_on_c, 2, 39, 95
3, 62340, Note_on_c, 3, 49, 95
3, 62400, Note_off_c, 2, 39, 95
3, 62400, Note_off_c, 3, 49, 95
3, 62400, Note_on_c, 3, 51, 95
3, 62400, Note_on_c, 2, 39, 95
3, 63360, Note_off_c, 3, 51, 95
3, 63360, Note_off_c, 2, 39, 95
3, 63360, Note_on_c, 2, 39, 95
3, 63600, Note_off_c, 2, 39, 95
3, 63840, Note_on_c, 2, 39, 95
3, 64080, Note_off_c, 2, 39, 95
3, 64080, Note_on_c, 2, 39, 95
3, 64320, Note_off_c, 2, 39, 95
3, 64320, Note_on_c, 2, 59, 95
3, 64320, Note_on_c, 2, 52, 95
3, 64560, Note_off_c, 2, 59, 95
3, 64560, Note_off_c, 2, 52, 95
3, 64560, Note_on_c, 2, 58, 95
3, 64560, Note_on_c, 2, 51, 95
3, 64800, Note_off_c, 2, 58, 95
3, 64800, Note_off_c, 2, 51, 95
3, 64800, Note_on_c, 2, 57, 95
3, 64800, Note_on_c, 2, 50, 95
3, 65280, Note_off_c, 2, 57, 95
3, 65280, Note_off_c, 2, 50, 95
3, 65280, Note_on_c, 2, 39, 95
3, 65520, Note_off_c, 2, 39, 95
3, 65760, Note_on_c, 2, 39, 95
3, 66000, Note_off_c, 2, 39, 95
3, 66000, Note_on_c, 2, 39, 95
3, 66180, Note_on_c, 3, 49, 95
3, 66240, Note_off_c, 2, 39, 95
3, 66240, Note_off_c, 3, 49, 95
3, 66240, Note_on_c, 3, 51, 95
3, 66240, Note_on_c, 2, 39, 95
3, 67200, Note_off_c, 3, 51, 95
3, 67200, Note_off_c, 2, 39, 95
3, 67200, Note_on_c, 2, 39, 95
3, 67440, Note_off_c, 2, 39, 95
3, 67680, Note_on_c, 2, 39, 95
3, 67920, Note_off_c, 2, 39, 95
3, 67920, Note_on_c, 2, 39, 95
3, 68160, Note_off_c, 2, 39, 95
3, 68160, Note_on_c, 2, 61, 95
3, 68160, Note_on_c, 2, 54, 95
3, 68400, Note_off_c, 2, 61, 95
3, 68400, Note_off_c, 2, 54, 95
3, 68400, Note_on_c, 2, 60, 95
3, 68400, Note_on_c, 2, 53, 95
3, 68640, Note_off_c, 2, 60, 95
3, 68640, Note_off_c, 2, 53, 95
3, 68640, Note_on_c, 2, 59, 95
3, 68640, Note_on_c, 2, 52, 95
3, 69120, Note_off_c, 2, 59, 95
3, 69120, Note_off_c, 2, 52, 95
3, 69120, Note_on_c, 2, 39, 95
3, 69360, Note_off_c, 2, 39, 95
3, 69600, Note_on_c, 2, 39, 95
3, 69840, Note_off_c, 2, 39, 95
3, 69840, Note_on_c, 2, 39, 95
3, 70020, Note_on_c, 3, 49, 95
3, 70080, Note_off_c, 2, 39, 95
3, 70080, Note_off_c, 3, 49, 95
3, 70080, Note_on_c, 3, 51, 95
3, 70080, Note_on_c, 2, 39, 95
3, 71040, Note_off_c, 3, 51, 95
3, 71040, Note_off_c, 2, 39, 95
3, 71040, Note_on_c, 2, 39, 95
3, 71280, Note_off_c, 2, 39, 95
3, 71520, Note_on_c, 2, 39, 95
3, 71760, Note_off_c, 2, 39, 95
3, 71760, Note_on_c, 2, 39, 95
3, 72000, Note_off_c, 2, 39, 95
3, 72000, Note_on_c, 2, 59, 95
3, 72000, Note_on_c, 2, 52, 95
3, 72240, Note_off_c, 2, 59, 95
3, 72240, Note_off_c, 2, 52, 95
3, 72240, Note_on_c, 2, 58, 95
3, 72240, Note_on_c, 2, 51, 95
3, 72480, Note_off_c, 2, 58, 95
3, 72480, Note_off_c, 2, 51, 95
3, 72480, Note_on_c, 2, 57, 95
3, 72480, Note_on_c, 2, 50, 95
3, 72960, Note_off_c, 2, 57, 95
3, 72960, Note_off_c, 2, 50, 95
3, 72960, Note_on_c, 2, 39, 95
3, 73200, Note_off_c, 2, 39, 95
3, 73440, Note_on_c, 2, 39, 95
3, 73680, Note_off_c, 2, 39, 95
3, 73680, Note_on_c, 2, 39, 95
3, 73860, Note_on_c, 3, 49, 95
3, 73920, Note_off_c, 2, 39, 95
3, 73920, Note_off_c, 3, 49, 95
3, 73920, Note_on_c, 3, 51, 95
3, 73920, Note_on_c, 2, 39, 95
3, 74880, Note_off_c, 3, 51, 95
3, 74880, Note_off_c, 2, 39, 95
3, 74880, Note_on_c, 2, 39, 95
3, 75120, Note_off_c, 2, 39, 95
3, 75120, Note_on_c, 2, 39, 95
3, 75360, Note_off_c, 2, 39, 95
3, 75360, Note_on_c, 2, 39, 95
3, 75600, Note_off_c, 2, 39, 95
3, 75600, Note_on_c, 2, 39, 95
3, 75840, Note_off_c, 2, 39, 95
3, 75840, Note_on_c, 2, 49, 95
3, 75840, Note_on_c, 2, 42, 95
3, 76080, Note_off_c, 2, 49, 95
3, 76080, Note_off_c, 2, 42, 95
3, 76080, Note_on_c, 2, 48, 95
3, 76080, Note_on_c, 2, 41, 95
3, 76320, Note_off_c, 2, 48, 95
3, 76320, Note_off_c, 2, 41, 95
3, 76320, Note_on_c, 2, 47, 95
3, 76320, Note_on_c, 2, 40, 95
3, 76800, Note_off_c, 2, 47, 95
3, 76800, Note_off_c, 2, 40, 95
3, 76800, Note_on_c, 2, 39, 95
3, 77040, Note_off_c, 2, 39, 95
3, 77280, Note_on_c, 2, 39, 95
3, 77520, Note_off_c, 2, 39, 95
3, 77520, Note_on_c, 2, 39, 95
3, 77700, Note_on_c, 3, 49, 95
3, 77760, Note_off_c, 2, 39, 95
3, 77760, Note_off_c, 3, 49, 95
3, 77760, Note_on_c, 3, 51, 95
3, 77760, Note_on_c, 2, 39, 95
3, 78720, Note_off_c, 3, 51, 95
3, 78720, Note_off_c, 2, 39, 95
3, 78720, Note_on_c, 2, 39, 95
3, 78960, Note_off_c, 2, 39, 95
3, 79200, Note_on_c, 2, 39, 95
3, 79440, Note_off_c, 2, 39, 95
3, 79440, Note_on_c, 2, 39, 95
3, 79680, Note_off_c, 2, 39, 95
3, 79680, Note_on_c, 2, 59, 95
3, 79680, Note_on_c, 2, 52, 95
3, 79920, Note_off_c, 2, 59, 95
3, 79920, Note_off_c, 2, 52, 95
3, 79920, Note_on_c, 2, 58, 95
3, 79920, Note_on_c, 2, 51, 95
3, 80160, Note_off_c, 2, 58, 95
3, 80160, Note_off_c, 2, 51, 95
3, 80160, Note_on_c, 2, 57, 95
3, 80160, Note_on_c, 2, 50, 95
3, 80640, Note_off_c, 2, 57, 95
3, 80640, Note_off_c, 2, 50, 95
3, 80640, Note_on_c, 2, 39, 95
3, 80880, Note_off_c, 2, 39, 95
3, 81120, Note_on_c, 2, 39, 95
3, 81360, Note_off_c, 2, 39, 95
3, 81360, Note_on_c, 2, 39, 95
3, 81540, Note_on_c, 3, 49, 95
3, 81600, Note_off_c, 2, 39, 95
3, 81600, Note_off_c, 3, 49, 95
3, 81600, Note_on_c, 3, 51, 95
3, 81600, Note_on_c, 2, 39, 95
3, 82560, Note_off_c, 3, 51, 95
3, 82560, Note_off_c, 2, 39, 95
3, 82560, Note_on_c, 2, 39, 95
3, 82800, Note_off_c, 2, 39, 95
3, 83040, Note_on_c, 2, 39, 95
3, 83280, Note_off_c, 2, 39, 95
3, 83280, Note_on_c, 2, 39, 95
3, 83520, Note_off_c, 2, 39, 95
3, 83520, Note_on_c, 2, 61, 95
3, 83520, Note_on_c, 2, 54, 95
3, 83760, Note_off_c, 2, 61, 95
3, 83760, Note_off_c, 2, 54, 95
3, 83760, Note_on_c, 2, 60, 95
3, 83760, Note_on_c, 2, 53, 95
3, 84000, Note_off_c, 2, 60, 95
3, 84000, Note_off_c, 2, 53, 95
3, 84000, Note_on_c, 2, 59, 95
3, 84000, Note_on_c, 2, 52, 95
3, 84480, Note_off_c, 2, 59, 95
3, 84480, Note_off_c, 2, 52, 95
3, 84480, Note_on_c, 2, 39, 95
3, 84720, Note_off_c, 2, 39, 95
3, 84960, Note_on_c, 2, 39, 95
3, 85200, Note_off_c, 2, 39, 95
3, 85200, Note_on_c, 2, 39, 95
3, 85380, Note_on_c, 3, 49, 95
3, 85440, Note_off_c, 2, 39, 95
3, 85440, Note_off_c, 3, 49, 95
3, 85440, Note_on_c, 3, 51, 95
3, 85440, Note_on_c, 2, 39, 95
3, 86400, Note_off_c, 3, 51, 95
3, 86400, Note_off_c, 2, 39, 95
3, 86400, Note_on_c, 2, 39, 95
3, 86640, Note_off_c, 2, 39, 95
3, 86880, Note_on_c, 2, 39, 95
3, 87120, Note_off_c, 2, 39, 95
3, 87120, Note_on_c, 2, 39, 95
3, 87360, Note_off_c, 2, 39, 95
3, 87360, Note_on_c, 2, 59, 95
3, 87360, Note_on_c, 2, 52, 95
3, 87600, Note_off_c, 2, 59, 95
3, 87600, Note_off_c, 2, 52, 95
3, 87600, Note_on_c, 2, 58, 95
3, 87600, Note_on_c, 2, 51, 95
3, 87840, Note_off_c, 2, 58, 95
3, 87840, Note_off_c, 2, 51, 95
3, 87840, Note_on_c, 2, 57, 95
3, 87840, Note_on_c, 2, 50, 95
3, 88320, Note_off_c, 2, 57, 95
3, 88320, Note_off_c, 2, 50, 95
3, 88320, Note_on_c, 2, 39, 95
3, 88560, Note_off_c, 2, 39, 95
3, 88800, Note_on_c, 2, 39, 95
3, 89040, Note_off_c, 2, 39, 95
3, 89040, Note_on_c, 2, 39, 95
3, 89220, Note_on_c, 3, 49, 95
3, 89280, Note_off_c, 2, 39, 95
3, 89280, Note_off_c, 3, 49, 95
3, 89280, Note_on_c, 3, 51, 95
3, 89280, Note_on_c, 2, 39, 95
3, 90240, Note_off_c, 3, 51, 95
3, 90240, Note_off_c, 2, 39, 95
3, 90240, Note_on_c, 2, 39, 95
3, 90480, Note_off_c, 2, 39, 95
3, 90480, Note_on_c, 2, 39, 95
3, 90720, Note_off_c, 2, 39, 95
3, 90720, Note_on_c, 2, 39, 95
3, 90960, Note_off_c, 2, 39, 95
3, 90960, Note_on_c, 2, 39, 95
3, 91200, Note_off_c, 2, 39, 95
3, 91200, Note_on_c, 2, 49, 95
3, 91200, Note_on_c, 2, 42, 95
3, 91440, Note_off_c, 2, 49, 95
3, 91440, Note_off_c, 2, 42, 95
3, 91440, Note_on_c, 2, 48, 95
3, 91440, Note_on_c, 2, 41, 95
3, 91680, Note_off_c, 2, 48, 95
3, 91680, Note_off_c, 2, 41, 95
3, 91680, Note_on_c, 2, 47, 95
3, 91680, Note_on_c, 2, 40, 95
3, 92160, Note_off_c, 2, 47, 95
3, 92160, Note_off_c, 2, 40, 95
3, 92160, Note_on_c, 2, 39, 95
3, 92400, Note_off_c, 2, 39, 95
3, 92640, Note_on_c, 2, 39, 95
3, 92880, Note_off_c, 2, 39, 95
3, 92880, Note_on_c, 2, 39, 95
3, 93060, Note_on_c, 3, 49, 95
3, 93120, Note_off_c, 2, 39, 95
3, 93120, Note_off_c, 3, 49, 95
3, 93120, Note_on_c, 3, 51, 95
3, 93120, Note_on_c, 2, 39, 95
3, 94080, Note_off_c, 3, 51, 95
3, 94080, Note_off_c, 2, 39, 95
3, 94080, Note_on_c, 2, 39, 95
3, 94320, Note_off_c, 2, 39, 95
3, 94560, Note_on_c, 2, 39, 95
3, 94800, Note_off_c, 2, 39, 95
3, 94800, Note_on_c, 2, 39, 95
3, 95040, Note_off_c, 2, 39, 95
3, 95040, Note_on_c, 2, 59, 95
3, 95040, Note_on_c, 2, 52, 95
3, 95280, Note_off_c, 2, 59, 95
3, 95280, Note_off_c, 2, 52, 95
3, 95280, Note_on_c, 2, 58, 95
3, 95280, Note_on_c, 2, 51, 95
3, 95520, Note_off_c, 2, 58, 95
3, 95520, Note_off_c, 2, 51, 95
3, 95520, Note_on_c, 2, 57, 95
3, 95520, Note_on_c, 2, 50, 95
3, 96000, Note_off_c, 2, 57, 95
3, 96000, Note_off_c, 2, 50, 95
3, 96000, Note_on_c, 2, 39, 95
3, 96240, Note_off_c, 2, 39, 95
3, 96480, Note_on_c, 2, 39, 95
3, 96720, Note_off_c, 2, 39, 95
3, 96720, Note_on_c, 2, 39, 95
3, 96900, Note_on_c, 3, 49, 95
3, 96960, Note_off_c, 2, 39, 95
3, 96960, Note_off_c, 3, 49, 95
3, 96960, Note_on_c, 3, 51, 95
3, 96960, Note_on_c, 2, 39, 95
3, 97920, Note_off_c, 3, 51, 95
3, 97920, Note_off_c, 2, 39, 95
3, 97920, Note_on_c, 2, 39, 95
3, 98160, Note_off_c, 2, 39, 95
3, 98400, Note_on_c, 2, 39, 95
3, 98640, Note_off_c, 2, 39, 95
3, 98640, Note_on_c, 2, 39, 95
3, 98880, Note_off_c, 2, 39, 95
3, 98880, Note_on_c, 2, 61, 95
3, 98880, Note_on_c, 2, 54, 95
3, 99120, Note_off_c, 2, 61, 95
3, 99120, Note_off_c, 2, 54, 95
3, 99120, Note_on_c, 2, 60, 95
3, 99120, Note_on_c, 2, 53, 95
3, 99360, Note_off_c, 2, 60, 95
3, 99360, Note_off_c, 2, 53, 95
3, 99360, Note_on_c, 2, 59, 95
3, 99360, Note_on_c, 2, 52, 95
3, 99840, Note_off_c, 2, 59, 95
3, 99840, Note_off_c, 2, 52, 95
3, 99840, Note_on_c, 2, 39, 95
3, 100080, Note_off_c, 2, 39, 95
3, 100320, Note_on_c, 2, 39, 95
3, 100560, Note_off_c, 2, 39, 95
3, 100560, Note_on_c, 2, 39, 95
3, 100740, Note_on_c, 3, 49, 95
3, 100800, Note_off_c, 2, 39, 95
3, 100800, Note_off_c, 3, 49, 95
3, 100800, Note_on_c, 3, 51, 95
3, 100800, Note_on_c, 2, 39, 95
3, 101760, Note_off_c, 3, 51, 95
3, 101760, Note_off_c, 2, 39, 95
3, 101760, Note_on_c, 2, 39, 95
3, 102000, Note_off_c, 2, 39, 95
3, 102240, Note_on_c, 2, 39, 95
3, 102480, Note_off_c, 2, 39, 95
3, 102480, Note_on_c, 2, 39, 95
3, 102720, Note_off_c, 2, 39, 95
3, 102720, Note_on_c, 2, 59, 95
3, 102720, Note_on_c, 2, 52, 95
3, 102960, Note_off_c, 2, 59, 95
3, 102960, Note_off_c, 2, 52, 95
3, 102960, Note_on_c, 2, 58, 95
3, 102960, Note_on_c, 2, 51, 95
3, 103200, Note_off_c, 2, 58, 95
3, 103200, Note_off_c, 2, 51, 95
3, 103200, Note_on_c, 2, 57, 95
3, 103200, Note_on_c, 2, 50, 95
3, 103680, Note_off_c, 2, 57, 95
3, 103680, Note_off_c, 2, 50, 95
3, 103680, Note_on_c, 2, 39, 95
3, 103920, Note_off_c, 2, 39, 95
3, 104160, Note_on_c, 2, 39, 95
3, 104400, Note_off_c, 2, 39, 95
3, 104400, Note_on_c, 2, 39, 95
3, 104580, Note_on_c, 3, 49, 95
3, 104640, Note_off_c, 2, 39, 95
3, 104640, Note_off_c, 3, 49, 95
3, 104640, Note_on_c, 3, 51, 95
3, 104640, Note_on_c, 2, 39, 95
3, 105600, Note_off_c, 3, 51, 95
3, 105600, Note_off_c, 2, 39, 95
3, 105600, Note_on_c, 2, 39, 95
3, 105840, Note_off_c, 2, 39, 95
3, 105840, Note_on_c, 2, 39, 95
3, 106080, Note_off_c, 2, 39, 95
3, 106080, Note_on_c, 2, 39, 95
3, 106320, Note_off_c, 2, 39, 95
3, 106320, Note_on_c, 2, 39, 95
3, 106560, Note_off_c, 2, 39, 95
3, 106560, Note_on_c, 2, 49, 95
3, 106560, Note_on_c, 2, 42, 95
3, 106800, Note_off_c, 2, 49, 95
3, 106800, Note_off_c, 2, 42, 95
3, 106800, Note_on_c, 2, 48, 95
3, 106800, Note_on_c, 2, 41, 95
3, 107040, Note_off_c, 2, 48, 95
3, 107040, Note_off_c, 2, 41, 95
3, 107040, Note_on_c, 2, 47, 95
3, 107040, Note_on_c, 2, 40, 95
3, 107520, Note_off_c, 2, 47, 95
3, 107520, Note_off_c, 2, 40, 95
3, 107520, Note_on_c, 2, 39, 95
3, 107760, Note_off_c, 2, 39, 95
3, 108000, Note_on_c, 2, 39, 95
3, 108240, Note_off_c, 2, 39, 95
3, 108240, Note_on_c, 2, 39, 95
3, 108420, Note_on_c, 3, 49, 95
3, 108480, Note_off_c, 2, 39, 95
3, 108480, Note_off_c, 3, 49, 95
3, 108480, Note_on_c, 3, 51, 95
3, 108480, Note_on_c, 2, 39, 95
3, 109440, Note_off_c, 3, 51, 95
3, 109440, Note_off_c, 2, 39, 95
3, 109440, Note_on_c, 2, 39, 95
3, 109680, Note_off_c, 2, 39, 95
3, 109920, Note_on_c, 2, 39, 95
3, 110160, Note_off_c, 2, 39, 95
3, 110160, Note_on_c, 2, 39, 95
3, 110400, Note_off_c, 2, 39, 95
3, 110400, Note_on_c, 2, 59, 95
3, 110400, Note_on_c, 2, 52, 95
3, 110640, Note_off_c, 2, 59, 95
3, 110640, Note_off_c, 2, 52, 95
3, 110640, Note_on_c, 2, 58, 95
3, 110640, Note_on_c, 2, 51, 95
3, 110880, Note_off_c, 2, 58, 95
3, 110880, Note_off_c, 2, 51, 95
3, 110880, Note_on_c, 2, 57, 95
3, 110880, Note_on_c, 2, 50, 95
3, 111360, Note_off_c, 2, 57, 95
3, 111360, Note_off_c, 2, 50, 95
3, 111360, Note_on_c, 2, 39, 95
3, 111600, Note_off_c, 2, 39, 95
3, 111840, Note_on_c, 2, 39, 95
3, 112080, Note_off_c, 2, 39, 95
3, 112080, Note_on_c, 2, 39, 95
3, 112260, Note_on_c, 3, 49, 95
3, 112320, Note_off_c, 2, 39, 95
3, 112320, Note_off_c, 3, 49, 95
3, 112320, Note_on_c, 3, 51, 95
3, 112320, Note_on_c, 2, 39, 95
3, 113280, Note_off_c, 3, 51, 95
3, 113280, Note_off_c, 2, 39, 95
3, 113280, Note_on_c, 2, 39, 95
3, 113520, Note_off_c, 2, 39, 95
3, 113760, Note_on_c, 2, 39, 95
3, 114000, Note_off_c, 2, 39, 95
3, 114000, Note_on_c, 2, 39, 95
3, 114240, Note_off_c, 2, 39, 95
3, 114240, Note_on_c, 2, 61, 95
3, 114240, Note_on_c, 2, 54, 95
3, 114480, Note_off_c, 2, 61, 95
3, 114480, Note_off_c, 2, 54, 95
3, 114480, Note_on_c, 2, 60, 95
3, 114480, Note_on_c, 2, 53, 95
3, 114720, Note_off_c, 2, 60, 95
3, 114720, Note_off_c, 2, 53, 95
3, 114720, Note_on_c, 2, 59, 95
3, 114720, Note_on_c, 2, 52, 95
3, 115200, Note_off_c, 2, 59, 95
3, 115200, Note_off_c, 2, 52, 95
3, 115200, Note_on_c, 2, 39, 95
3, 115440, Note_off_c, 2, 39, 95
3, 115680, Note_on_c, 2, 39, 95
3, 115920, Note_off_c, 2, 39, 95
3, 115920, Note_on_c, 2, 39, 95
3, 116100, Note_on_c, 3, 49, 95
3, 116160, Note_off_c, 2, 39, 95
3, 116160, Note_off_c, 3, 49, 95
3, 116160, Note_on_c, 3, 51, 95
3, 116160, Note_on_c, 2, 39, 95
3, 117120, Note_off_c, 3, 51, 95
3, 117120, Note_off_c, 2, 39, 95
3, 117120, Note_on_c, 2, 39, 95
3, 117360, Note_off_c, 2, 39, 95
3, 117600, Note_on_c, 2, 39, 95
3, 117840, Note_off_c, 2, 39, 95
3, 117840, Note_on_c, 2, 39, 95
3, 118080, Note_off_c, 2, 39, 95
3, 118080, Note_on_c, 2, 59, 95
3, 118080, Note_on_c, 2, 52, 95
3, 118320, Note_off_c, 2, 59, 95
3, 118320, Note_off_c, 2, 52, 95
3, 118320, Note_on_c, 2, 58, 95
3, 118320, Note_on_c, 2, 51, 95
3, 118560, Note_off_c, 2, 58, 95
3, 118560, Note_off_c, 2, 51, 95
3, 118560, Note_on_c, 2, 57, 95
3, 118560, Note_on_c, 2, 50, 95
3, 119040, Note_off_c, 2, 57, 95
3, 119040, Note_off_c, 2, 50, 95
3, 119040, Note_on_c, 2, 39, 95
3, 119280, Note_off_c, 2, 39, 95
3, 119520, Note_on_c, 2, 39, 95
3, 119760, Note_off_c, 2, 39, 95
3, 119760, Note_on_c, 2, 39, 95
3, 119940, Note_on_c, 3, 49, 95
3, 120000, Note_off_c, 2, 39, 95
3, 120000, Note_off_c, 3, 49, 95
3, 120000, Note_on_c, 3, 51, 95
3, 120000, Note_on_c, 2, 39, 95
3, 120960, Note_off_c, 3, 51, 95
3, 120960, Note_off_c, 2, 39, 95
3, 120960, Note_on_c, 2, 39, 95
3, 121200, Note_off_c, 2, 39, 95
3, 121200, Note_on_c, 2, 39, 95
3, 121440, Note_off_c, 2, 39, 95
3, 121440, Note_on_c, 2, 39, 95
3, 121680, Note_off_c, 2, 39, 95
3, 121680, Note_on_c, 2, 39, 95
3, 121920, Note_off_c, 2, 39, 95
3, 121920, Note_on_c, 2, 49, 95
3, 121920, Note_on_c, 2, 42, 95
3, 122160, Note_off_c, 2, 49, 95
3, 122160, Note_off_c, 2, 42, 95
3, 122160, Note_on_c, 2, 48, 95
3, 122160, Note_on_c, 2, 41, 95
3, 122400, Note_off_c, 2, 48, 95
3, 122400, Note_off_c, 2, 41, 95
3, 122400, Note_on_c, 2, 47, 95
3, 122400, Note_on_c, 2, 40, 95
3, 122880, Note_off_c, 2, 47, 95
3, 122880, Note_off_c, 2, 40, 95
3, 122880, Note_on_c, 2, 48, 95
3, 122880, Note_on_c, 2, 41, 95
3, 125760, Note_off_c, 2, 48, 95
3, 125760, Note_off_c, 2, 41, 95
3, 125760, Note_on_c, 2, 49, 95
3, 125760, Note_on_c, 2, 42, 95
3, 126720, Note_off_c, 2, 49, 95
3, 126720, Note_off_c, 2, 42, 95
3, 126720, Note_on_c, 2, 39, 95
3, 126960, Note_off_c, 2, 39, 95
3, 126960, Note_on_c, 2, 39, 95
3, 127200, Note_off_c, 2, 39, 95
3, 127200, Note_on_c, 2, 39, 95
3, 127440, Note_off_c, 2, 39, 95
3, 127440, Note_on_c, 2, 39, 95
3, 127680, Note_off_c, 2, 39, 95
3, 127680, Note_on_c, 2, 39, 95
3, 127920, Note_off_c, 2, 39, 95
3, 127920, Note_on_c, 2, 39, 95
3, 128160, Note_off_c, 2, 39, 95
3, 128160, Note_on_c, 2, 39, 95
3, 128400, Note_off_c, 2, 39, 95
3, 128400, Note_on_c, 2, 39, 95
3, 128640, Note_off_c, 2, 39, 95
3, 128640, Note_on_c, 2, 39, 95
3, 128880, Note_off_c, 2, 39, 95
3, 128880, Note_on_c, 2, 39, 95
3, 129120, Note_off_c, 2, 39, 95
3, 129120, Note_on_c, 2, 49, 95
3, 129120, Note_on_c, 2, 42, 95
3, 129600, Note_off_c, 2, 49, 95
3, 129600, Note_off_c, 2, 42, 95
3, 129600, Note_on_c, 2, 39, 95
3, 129840, Note_off_c, 2, 39, 95
3, 129840, Note_on_c, 2, 39, 95
3, 130080, Note_off_c, 2, 39, 95
3, 130080, Note_on_c, 2, 49, 95
3, 130080, Note_on_c, 2, 42, 95
3, 130560, Note_off_c, 2, 49, 95
3, 130560, Note_off_c, 2, 42, 95
3, 130560, Note_on_c, 2, 48, 95
3, 130560, Note_on_c, 2, 41, 95
3, 133440, Note_off_c, 2, 48, 95
3, 133440, Note_off_c, 2, 41, 95
3, 133440, Note_on_c, 2, 52, 95
3, 133440, Note_on_c, 2, 45, 95
3, 134400, Note_off_c, 2, 52, 95
3, 134400, Note_off_c, 2, 45, 95
3, 134400, Note_on_c, 2, 39, 95
3, 134640, Note_off_c, 2, 39, 95
3, 134640, Note_on_c, 2, 39, 95
3, 134880, Note_off_c, 2, 39, 95
3, 134880, Note_on_c, 2, 39, 95
3, 135120, Note_off_c, 2, 39, 95
3, 135120, Note_on_c, 2, 39, 95
3, 135360, Note_off_c, 2, 39, 95
3, 135360, Note_on_c, 2, 39, 95
3, 135600, Note_off_c, 2, 39, 95
3, 135600, Note_on_c, 2, 39, 95
3, 135840, Note_off_c, 2, 39, 95
3, 135840, Note_on_c, 2, 39, 95
3, 136080, Note_off_c, 2, 39, 95
3, 136080, Note_on_c, 2, 39, 95
3, 136320, Note_off_c, 2, 39, 95
3, 136320, Note_on_c, 2, 39, 95
3, 136560, Note_off_c, 2, 39, 95
3, 136560, Note_on_c, 2, 39, 95
3, 136800, Note_off_c, 2, 39, 95
3, 136800, Note_on_c, 2, 46, 95
3, 136800, Note_on_c, 2, 39, 95
3, 137280, Note_off_c, 2, 46, 95
3, 137280, Note_off_c, 2, 39, 95
3, 137280, Note_on_c, 2, 39, 95
3, 137520, Note_off_c, 2, 39, 95
3, 137520, Note_on_c, 2, 39, 95
3, 137760, Note_off_c, 2, 39, 95
3, 137760, Note_on_c, 2, 47, 95
3, 137760, Note_on_c, 2, 40, 95
3, 138240, Note_off_c, 2, 47, 95
3, 138240, Note_off_c, 2, 40, 95
3, 138240, Note_on_c, 2, 48, 95
3, 138240, Note_on_c, 2, 41, 95
3, 141120, Note_off_c, 2, 48, 95
3, 141120, Note_off_c, 2, 41, 95
3, 141120, Note_on_c, 2, 49, 95
3, 141120, Note_on_c, 2, 42, 95
3, 142080, Note_off_c, 2, 49, 95
3, 142080, Note_off_c, 2, 42, 95
3, 142080, Note_on_c, 2, 39, 95
3, 142320, Note_off_c, 2, 39, 95
3, 142320, Note_on_c, 2, 39, 95
3, 142560, Note_off_c, 2, 39, 95
3, 142560, Note_on_c, 2, 39, 95
3, 142800, Note_off_c, 2, 39, 95
3, 142800, Note_on_c, 2, 39, 95
3, 143040, Note_off_c, 2, 39, 95
3, 143040, Note_on_c, 2, 39, 95
3, 143280, Note_off_c, 2, 39, 95
3, 143280, Note_on_c, 2, 39, 95
3, 143520, Note_off_c, 2, 39, 95
3, 143520, Note_on_c, 2, 39, 95
3, 143760, Note_off_c, 2, 39, 95
3, 143760, Note_on_c, 2, 39, 95
3, 144000, Note_off_c, 2, 39, 95
3, 144000, Note_on_c, 2, 39, 95
3, 144240, Note_off_c, 2, 39, 95
3, 144240, Note_on_c, 2, 39, 95
3, 144480, Note_off_c, 2, 39, 95
3, 144480, Note_on_c, 2, 49, 95
3, 144480, Note_on_c, 2, 42, 95
3, 144960, Note_off_c, 2, 49, 95
3, 144960, Note_off_c, 2, 42, 95
3, 144960, Note_on_c, 2, 39, 95
3, 145200, Note_off_c, 2, 39, 95
3, 145200, Note_on_c, 2, 39, 95
3, 145440, Note_off_c, 2, 39, 95
3, 145440, Note_on_c, 2, 49, 95
3, 145440, Note_on_c, 2, 42, 95
3, 145920, Note_off_c, 2, 49, 95
3, 145920, Note_off_c, 2, 42, 95
3, 145920, Note_on_c, 2, 48, 95
3, 145920, Note_on_c, 2, 41, 95
3, 147840, Note_off_c, 2, 48, 95
3, 147840, Note_off_c, 2, 41, 95
3, 147840, Note_on_c, 2, 51, 95
3, 147840, Note_on_c, 2, 44, 95
3, 148800, Note_off_c, 2, 51, 95
3, 148800, Note_off_c, 2, 44, 95
3, 148800, Note_on_c, 2, 50, 95
3, 148800, Note_on_c, 2, 43, 95
3, 149280, Note_off_c, 2, 50, 95
3, 149280, Note_off_c, 2, 43, 95
3, 149280, Note_on_c, 2, 49, 95
3, 149280, Note_on_c, 2, 42, 95
3, 149760, Note_off_c, 2, 49, 95
3, 149760, Note_off_c, 2, 42, 95
3, 149760, Note_on_c, 2, 39, 95
3, 150000, Note_off_c, 2, 39, 95
3, 150000, Note_on_c, 2, 39, 95
3, 150240, Note_off_c, 2, 39, 95
3, 150480, Note_on_c, 2, 39, 95
3, 150660, Note_on_c, 3, 49, 95
3, 150720, Note_off_c, 2, 39, 95
3, 150720, Note_off_c, 3, 49, 95
3, 150720, Note_on_c, 3, 51, 95
3, 150720, Note_on_c, 2, 39, 95
3, 151200, Note_off_c, 3, 51, 95
3, 151200, Note_off_c, 2, 39, 95
3, 151200, Note_on_c, 2, 39, 95
3, 151440, Note_off_c, 2, 39, 95
3, 151440, Note_on_c, 2, 39, 95
3, 151680, Note_off_c, 2, 39, 95
3, 151920, Note_on_c, 2, 39, 95
3, 152160, Note_off_c, 2, 39, 95
3, 152160, Note_on_c, 2, 59, 95
3, 152160, Note_on_c, 2, 52, 95
3, 152640, Note_off_c, 2, 59, 95
3, 152640, Note_off_c, 2, 52, 95
3, 152640, Note_on_c, 2, 39, 95
3, 152880, Note_off_c, 2, 39, 95
3, 152880, Note_on_c, 2, 39, 95
3, 153120, Note_off_c, 2, 39, 95
3, 153120, Note_on_c, 2, 57, 95
3, 153120, Note_on_c, 2, 50, 95
3, 153600, Note_off_c, 2, 57, 95
3, 153600, Note_off_c, 2, 50, 95
3, 153600, Note_on_c, 2, 39, 95
3, 153840, Note_off_c, 2, 39, 95
3, 153840, Note_on_c, 2, 39, 95
3, 154080, Note_off_c, 2, 39, 95
3, 154320, Note_on_c, 2, 39, 95
3, 154500, Note_on_c, 3, 49, 95
3, 154560, Note_off_c, 2, 39, 95
3, 154560, Note_off_c, 3, 49, 95
3, 154560, Note_on_c, 3, 51, 95
3, 154560, Note_on_c, 2, 39, 95
3, 155040, Note_off_c, 3, 51, 95
3, 155040, Note_off_c, 2, 39, 95
3, 155040, Note_on_c, 2, 39, 95
3, 155280, Note_off_c, 2, 39, 95
3, 155280, Note_on_c, 2, 39, 95
3, 155520, Note_off_c, 2, 39, 95
3, 155760, Note_on_c, 2, 39, 95
3, 156000, Note_off_c, 2, 39, 95
3, 156000, Note_on_c, 2, 61, 95
3, 156000, Note_on_c, 2, 54, 95
3, 156480, Note_off_c, 2, 61, 95
3, 156480, Note_off_c, 2, 54, 95
3, 156480, Note_on_c, 2, 39, 95
3, 156720, Note_off_c, 2, 39, 95
3, 156720, Note_on_c, 2, 39, 95
3, 156960, Note_off_c, 2, 39, 95
3, 156960, Note_on_c, 2, 60, 95
3, 156960, Note_on_c, 2, 53, 95
3, 157440, Note_off_c, 2, 60, 95
3, 157440, Note_off_c, 2, 53, 95
3, 157440, Note_on_c, 2, 39, 95
3, 157680, Note_off_c, 2, 39, 95
3, 157680, Note_on_c, 2, 39, 95
3, 157920, Note_off_c, 2, 39, 95
3, 158160, Note_on_c, 2, 39, 95
3, 158340, Note_on_c, 3, 49, 95
3, 158400, Note_off_c, 2, 39, 95
3, 158400, Note_off_c, 3, 49, 95
3, 158400, Note_on_c, 3, 51, 95
3, 158400, Note_on_c, 2, 39, 95
3, 158880, Note_off_c, 3, 51, 95
3, 158880, Note_off_c, 2, 39, 95
3, 158880, Note_on_c, 2, 39, 95
3, 159120, Note_off_c, 2, 39, 95
3, 159120, Note_on_c, 2, 39, 95
3, 159360, Note_off_c, 2, 39, 95
3, 159600, Note_on_c, 2, 39, 95
3, 159840, Note_off_c, 2, 39, 95
3, 159840, Note_on_c, 2, 59, 95
3, 159840, Note_on_c, 2, 52, 95
3, 160320, Note_off_c, 2, 59, 95
3, 160320, Note_off_c, 2, 52, 95
3, 160320, Note_on_c, 2, 39, 95
3, 160560, Note_off_c, 2, 39, 95
3, 160560, Note_on_c, 2, 39, 95
3, 160800, Note_off_c, 2, 39, 95
3, 160800, Note_on_c, 2, 57, 95
3, 160800, Note_on_c, 2, 50, 95
3, 161280, Note_off_c, 2, 57, 95
3, 161280, Note_off_c, 2, 50, 95
3, 161280, Note_on_c, 2, 39, 95
3, 161520, Note_off_c, 2, 39, 95
3, 161520, Note_on_c, 2, 39, 95
3, 161760, Note_off_c, 2, 39, 95
3, 162000, Note_on_c, 2, 39, 95
3, 162180, Note_on_c, 3, 49, 95
3, 162240, Note_off_c, 2, 39, 95
3, 162240, Note_off_c, 3, 49, 95
3, 162240, Note_on_c, 3, 51, 95
3, 162240, Note_on_c, 2, 39, 95
3, 162720, Note_off_c, 3, 51, 95
3, 162720, Note_off_c, 2, 39, 95
3, 162720, Note_on_c, 2, 39, 95
3, 162960, Note_off_c, 2, 39, 95
3, 162960, Note_on_c, 2, 39, 95
3, 163200, Note_off_c, 2, 39, 95
3, 163440, Note_on_c, 2, 39, 95
3, 163680, Note_off_c, 2, 39, 95
3, 163680, Note_on_c, 2, 49, 95
3, 163680, Note_on_c, 2, 42, 95
3, 164160, Note_off_c, 2, 49, 95
3, 164160, Note_off_c, 2, 42, 95
3, 164160, Note_on_c, 2, 39, 95
3, 164400, Note_off_c, 2, 39, 95
3, 164400, Note_on_c, 2, 39, 95
3, 164640, Note_off_c, 2, 39, 95
3, 164640, Note_on_c, 2, 48, 95
3, 164640, Note_on_c, 2, 41, 95
3, 165120, Note_off_c, 2, 48, 95
3, 165120, Note_off_c, 2, 41, 95
3, 165120, Note_on_c, 2, 39, 95
3, 165360, Note_off_c, 2, 39, 95
3, 165360, Note_on_c, 2, 39, 95
3, 165600, Note_off_c, 2, 39, 95
3, 165840, Note_on_c, 2, 39, 95
3, 166020, Note_on_c, 3, 49, 95
3, 166080, Note_off_c, 2, 39, 95
3, 166080, Note_off_c, 3, 49, 95
3, 166080, Note_on_c, 3, 51, 95
3, 166080, Note_on_c, 2, 39, 95
3, 166560, Note_off_c, 3, 51, 95
3, 166560, Note_off_c, 2, 39, 95
3, 166560, Note_on_c, 2, 39, 95
3, 166800, Note_off_c, 2, 39, 95
3, 166800, Note_on_c, 2, 39, 95
3, 167040, Note_off_c, 2, 39, 95
3, 167280, Note_on_c, 2, 39, 95
3, 167520, Note_off_c, 2, 39, 95
3, 167520, Note_on_c, 2, 59, 95
3, 167520, Note_on_c, 2, 52, 95
3, 168000, Note_off_c, 2, 59, 95
3, 168000, Note_off_c, 2, 52, 95
3, 168000, Note_on_c, 2, 39, 95
3, 168240, Note_off_c, 2, 39, 95
3, 168240, Note_on_c, 2, 39, 95
3, 168480, Note_off_c, 2, 39, 95
3, 168480, Note_on_c, 2, 57, 95
3, 168480, Note_on_c, 2, 50, 95
3, 168960, Note_off_c, 2, 57, 95
3, 168960, Note_off_c, 2, 50, 95
3, 168960, Note_on_c, 2, 39, 95
3, 169200, Note_off_c, 2, 39, 95
3, 169200, Note_on_c, 2, 39, 95
3, 169440, Note_off_c, 2, 39, 95
3, 169680, Note_on_c, 2, 39, 95
3, 169860, Note_on_c, 3, 49, 95
3, 169920, Note_off_c, 2, 39, 95
3, 169920, Note_off_c, 3, 49, 95
3, 169920, Note_on_c, 3, 51, 95
3, 169920, Note_on_c, 2, 39, 95
3, 170400, Note_off_c, 3, 51, 95
3, 170400, Note_off_c, 2, 39, 95
3, 170400, Note_on_c, 2, 39, 95
3, 170640, Note_off_c, 2, 39, 95
3, 170640, Note_on_c, 2, 39, 95
3, 170880, Note_off_c, 2, 39, 95
3, 171120, Note_on_c, 2, 39, 95
3, 171360, Note_off_c, 2, 39, 95
3, 171360, Note_on_c, 2, 61, 95
3, 171360, Note_on_c, 2, 54, 95
3, 171840, Note_off_c, 2, 61, 95
3, 171840, Note_off_c, 2, 54, 95
3, 171840, Note_on_c, 2, 39, 95
3, 172080, Note_off_c, 2, 39, 95
3, 172080, Note_on_c, 2, 39, 95
3, 172320, Note_off_c, 2, 39, 95
3, 172320, Note_on_c, 2, 60, 95
3, 172320, Note_on_c, 2, 53, 95
3, 172800, Note_off_c, 2, 60, 95
3, 172800, Note_off_c, 2, 53, 95
3, 172800, Note_on_c, 2, 39, 95
3, 173040, Note_off_c, 2, 39, 95
3, 173040, Note_on_c, 2, 39, 95
3, 173280, Note_off_c, 2, 39, 95
3, 173520, Note_on_c, 2, 39, 95
3, 173700, Note_on_c, 3, 49, 95
3, 173760, Note_off_c, 2, 39, 95
3, 173760, Note_off_c, 3, 49, 95
3, 173760, Note_on_c, 3, 51, 95
3, 173760, Note_on_c, 2, 39, 95
3, 174240, Note_off_c, 3, 51, 95
3, 174240, Note_off_c, 2, 39, 95
3, 174240, Note_on_c, 2, 39, 95
3, 174480, Note_off_c, 2, 39, 95
3, 174480, Note_on_c, 2, 39, 95
3, 174720, Note_off_c, 2, 39, 95
3, 174960, Note_on_c, 2, 39, 95
3, 175200, Note_off_c, 2, 39, 95
3, 175200, Note_on_c, 2, 59, 95
3, 175200, Note_on_c, 2, 52, 95
3, 175680, Note_off_c, 2, 59, 95
3, 175680, Note_off_c, 2, 52, 95
3, 175680, Note_on_c, 2, 39, 95
3, 175920, Note_off_c, 2, 39, 95
3, 175920, Note_on_c, 2, 39, 95
3, 176160, Note_off_c, 2, 39, 95
3, 176160, Note_on_c, 2, 57, 95
3, 176160, Note_on_c, 2, 50, 95
3, 176640, Note_off_c, 2, 57, 95
3, 176640, Note_off_c, 2, 50, 95
3, 176640, Note_on_c, 2, 39, 95
3, 176880, Note_off_c, 2, 39, 95
3, 176880, Note_on_c, 2, 39, 95
3, 177120, Note_off_c, 2, 39, 95
3, 177360, Note_on_c, 2, 39, 95
3, 177540, Note_on_c, 3, 49, 95
3, 177600, Note_off_c, 2, 39, 95
3, 177600, Note_off_c, 3, 49, 95
3, 177600, Note_on_c, 3, 51, 95
3, 177600, Note_on_c, 2, 39, 95
3, 178080, Note_off_c, 3, 51, 95
3, 178080, Note_off_c, 2, 39, 95
3, 178080, Note_on_c, 2, 39, 95
3, 178320, Note_off_c, 2, 39, 95
3, 178320, Note_on_c, 2, 39, 95
3, 178560, Note_off_c, 2, 39, 95
3, 178800, Note_on_c, 2, 39, 95
3, 179040, Note_off_c, 2, 39, 95
3, 179040, Note_on_c, 2, 49, 95
3, 179040, Note_on_c, 2, 42, 95
3, 179520, Note_off_c, 2, 49, 95
3, 179520, Note_off_c, 2, 42, 95
3, 179520, Note_on_c, 2, 39, 95
3, 179760, Note_off_c, 2, 39, 95
3, 179760, Note_on_c, 2, 39, 95
3, 180000, Note_off_c, 2, 39, 95
3, 180000, Note_on_c, 2, 48, 95
3, 180000, Note_on_c, 2, 41, 95
3, 180480, Note_off_c, 2, 48, 95
3, 180480, Note_off_c, 2, 41, 95
3, 180480, Note_on_c, 2, 39, 95
3, 180720, Note_off_c, 2, 39, 95
3, 180960, Note_on_c, 2, 39, 95
3, 181200, Note_off_c, 2, 39, 95
3, 181200, Note_on_c, 2, 39, 95
3, 181380, Note_on_c, 3, 49, 95
3, 181440, Note_off_c, 2, 39, 95
3, 181440, Note_off_c, 3, 49, 95
3, 181440, Note_on_c, 3, 51, 95
3, 181440, Note_on_c, 2, 39, 95
3, 182400, Note_off_c, 3, 51, 95
3, 182400, Note_off_c, 2, 39, 95
3, 182400, Note_on_c, 2, 39, 95
3, 182640, Note_off_c, 2, 39, 95
3, 182880, Note_on_c, 2, 39, 95
3, 183120, Note_off_c, 2, 39, 95
3, 183120, Note_on_c, 2, 39, 95
3, 183360, Note_off_c, 2, 39, 95
3, 183360, Note_on_c, 2, 59, 95
3, 183360, Note_on_c, 2, 52, 95
3, 183600, Note_off_c, 2, 59, 95
3, 183600, Note_off_c, 2, 52, 95
3, 183600, Note_on_c, 2, 58, 95
3, 183600, Note_on_c, 2, 51, 95
3, 183840, Note_off_c, 2, 58, 95
3, 183840, Note_off_c, 2, 51, 95
3, 183840, Note_on_c, 2, 57, 95
3, 183840, Note_on_c, 2, 50, 95
3, 184320, Note_off_c, 2, 57, 95
3, 184320, Note_off_c, 2, 50, 95
3, 184320, Note_on_c, 2, 39, 95
3, 184560, Note_off_c, 2, 39, 95
3, 184800, Note_on_c, 2, 39, 95
3, 185040, Note_off_c, 2, 39, 95
3, 185040, Note_on_c, 2, 39, 95
3, 185220, Note_on_c, 3, 49, 95
3, 185280, Note_off_c, 2, 39, 95
3, 185280, Note_off_c, 3, 49, 95
3, 185280, Note_on_c, 3, 51, 95
3, 185280, Note_on_c, 2, 39, 95
3, 186240, Note_off_c, 3, 51, 95
3, 186240, Note_off_c, 2, 39, 95
3, 186240, Note_on_c, 2, 39, 95
3, 186480, Note_off_c, 2, 39, 95
3, 186720, Note_on_c, 2, 39, 95
3, 186960, Note_off_c, 2, 39, 95
3, 186960, Note_on_c, 2, 39, 95
3, 187200, Note_off_c, 2, 39, 95
3, 187200, Note_on_c, 2, 61, 95
3, 187200, Note_on_c, 2, 54, 95
3, 187440, Note_off_c, 2, 61, 95
3, 187440, Note_off_c, 2, 54, 95
3, 187440, Note_on_c, 2, 60, 95
3, 187440, Note_on_c, 2, 53, 95
3, 187680, Note_off_c, 2, 60, 95
3, 187680, Note_off_c, 2, 53, 95
3, 187680, Note_on_c, 2, 59, 95
3, 187680, Note_on_c, 2, 52, 95
3, 188160, Note_off_c, 2, 59, 95
3, 188160, Note_off_c, 2, 52, 95
3, 188160, Note_on_c, 2, 39, 95
3, 188400, Note_off_c, 2, 39, 95
3, 188640, Note_on_c, 2, 39, 95
3, 188880, Note_off_c, 2, 39, 95
3, 188880, Note_on_c, 2, 39, 95
3, 189060, Note_on_c, 3, 49, 95
3, 189120, Note_off_c, 2, 39, 95
3, 189120, Note_off_c, 3, 49, 95
3, 189120, Note_on_c, 3, 51, 95
3, 189120, Note_on_c, 2, 39, 95
3, 190080, Note_off_c, 3, 51, 95
3, 190080, Note_off_c, 2, 39, 95
3, 190080, Note_on_c, 2, 39, 95
3, 190320, Note_off_c, 2, 39, 95
3, 190560, Note_on_c, 2, 39, 95
3, 190800, Note_off_c, 2, 39, 95
3, 190800, Note_on_c, 2, 39, 95
3, 191040, Note_off_c, 2, 39, 95
3, 191040, Note_on_c, 2, 59, 95
3, 191040, Note_on_c, 2, 52, 95
3, 191280, Note_off_c, 2, 59, 95
3, 191280, Note_off_c, 2, 52, 95
3, 191280, Note_on_c, 2, 58, 95
3, 191280, Note_on_c, 2, 51, 95
3, 191520, Note_off_c, 2, 58, 95
3, 191520, Note_off_c, 2, 51, 95
3, 191520, Note_on_c, 2, 57, 95
3, 191520, Note_on_c, 2, 50, 95
3, 192000, Note_off_c, 2, 57, 95
3, 192000, Note_off_c, 2, 50, 95
3, 192000, Note_on_c, 2, 39, 95
3, 192240, Note_off_c, 2, 39, 95
3, 192480, Note_on_c, 2, 39, 95
3, 192720, Note_off_c, 2, 39, 95
3, 192720, Note_on_c, 2, 39, 95
3, 192900, Note_on_c, 3, 49, 95
3, 192960, Note_off_c, 2, 39, 95
3, 192960, Note_off_c, 3, 49, 95
3, 192960, Note_on_c, 3, 51, 95
3, 192960, Note_on_c, 2, 39, 95
3, 193920, Note_off_c, 3, 51, 95
3, 193920, Note_off_c, 2, 39, 95
3, 193920, Note_on_c, 2, 39, 95
3, 194160, Note_off_c, 2, 39, 95
3, 194160, Note_on_c, 2, 39, 95
3, 194400, Note_off_c, 2, 39, 95
3, 194400, Note_on_c, 2, 39, 95
3, 194640, Note_off_c, 2, 39, 95
3, 194640, Note_on_c, 2, 39, 95
3, 194880, Note_off_c, 2, 39, 95
3, 194880, Note_on_c, 2, 49, 95
3, 194880, Note_on_c, 2, 42, 95
3, 195120, Note_off_c, 2, 49, 95
3, 195120, Note_off_c, 2, 42, 95
3, 195120, Note_on_c, 2, 48, 95
3, 195120, Note_on_c, 2, 41, 95
3, 195360, Note_off_c, 2, 48, 95
3, 195360, Note_off_c, 2, 41, 95
3, 195360, Note_on_c, 2, 47, 95
3, 195360, Note_on_c, 2, 40, 95
3, 195840, Note_off_c, 2, 47, 95
3, 195840, Note_off_c, 2, 40, 95
3, 195840, Note_on_c, 2, 39, 95
3, 196080, Note_off_c, 2, 39, 95
3, 196320, Note_on_c, 2, 39, 95
3, 196560, Note_off_c, 2, 39, 95
3, 196560, Note_on_c, 2, 39, 95
3, 196740, Note_on_c, 3, 49, 95
3, 196800, Note_off_c, 2, 39, 95
3, 196800, Note_off_c, 3, 49, 95
3, 196800, Note_on_c, 3, 51, 95
3, 196800, Note_on_c, 2, 39, 95
3, 197760, Note_off_c, 3, 51, 95
3, 197760, Note_off_c, 2, 39, 95
3, 197760, Note_on_c, 2, 39, 95
3, 198000, Note_off_c, 2, 39, 95
3, 198240, Note_on_c, 2, 39, 95
3, 198480, Note_off_c, 2, 39, 95
3, 198480, Note_on_c, 2, 39, 95
3, 198720, Note_off_c, 2, 39, 95
3, 198720, Note_on_c, 2, 59, 95
3, 198720, Note_on_c, 2, 52, 95
3, 198960, Note_off_c, 2, 59, 95
3, 198960, Note_off_c, 2, 52, 95
3, 198960, Note_on_c, 2, 58, 95
3, 198960, Note_on_c, 2, 51, 95
3, 199200, Note_off_c, 2, 58, 95
3, 199200, Note_off_c, 2, 51, 95
3, 199200, Note_on_c, 2, 57, 95
3, 199200, Note_on_c, 2, 50, 95
3, 199680, Note_off_c, 2, 57, 95
3, 199680, Note_off_c, 2, 50, 95
3, 199680, Note_on_c, 2, 39, 95
3, 199920, Note_off_c, 2, 39, 95
3, 200160, Note_on_c, 2, 39, 95
3, 200400, Note_off_c, 2, 39, 95
3, 200400, Note_on_c, 2, 39, 95
3, 200580, Note_on_c, 3, 49, 95
3, 200640, Note_off_c, 2, 39, 95
3, 200640, Note_off_c, 3, 49, 95
3, 200640, Note_on_c, 3, 51, 95
3, 200640, Note_on_c, 2, 39, 95
3, 201600, Note_off_c, 3, 51, 95
3, 201600, Note_off_c, 2, 39, 95
3, 201600, Note_on_c, 2, 39, 95
3, 201840, Note_off_c, 2, 39, 95
3, 202080, Note_on_c, 2, 39, 95
3, 202320, Note_off_c, 2, 39, 95
3, 202320, Note_on_c, 2, 39, 95
3, 202560, Note_off_c, 2, 39, 95
3, 202560, Note_on_c, 2, 61, 95
3, 202560, Note_on_c, 2, 54, 95
3, 202800, Note_off_c, 2, 61, 95
3, 202800, Note_off_c, 2, 54, 95
3, 202800, Note_on_c, 2, 60, 95
3, 202800, Note_on_c, 2, 53, 95
3, 203040, Note_off_c, 2, 60, 95
3, 203040, Note_off_c, 2, 53, 95
3, 203040, Note_on_c, 2, 59, 95
3, 203040, Note_on_c, 2, 52, 95
3, 203520, Note_off_c, 2, 59, 95
3, 203520, Note_off_c, 2, 52, 95
3, 203520, Note_on_c, 2, 39, 95
3, 203760, Note_off_c, 2, 39, 95
3, 204000, Note_on_c, 2, 39, 95
3, 204240, Note_off_c, 2, 39, 95
3, 204240, Note_on_c, 2, 39, 95
3, 204420, Note_on_c, 3, 49, 95
3, 204480, Note_off_c, 2, 39, 95
3, 204480, Note_off_c, 3, 49, 95
3, 204480, Note_on_c, 3, 51, 95
3, 204480, Note_on_c, 2, 39, 95
3, 205440, Note_off_c, 3, 51, 95
3, 205440, Note_off_c, 2, 39, 95
3, 205440, Note_on_c, 2, 39, 95
3, 205680, Note_off_c, 2, 39, 95
3, 205920, Note_on_c, 2, 39, 95
3, 206160, Note_off_c, 2, 39, 95
3, 206160, Note_on_c, 2, 39, 95
3, 206400, Note_off_c, 2, 39, 95
3, 206400, Note_on_c, 2, 59, 95
3, 206400, Note_on_c, 2, 52, 95
3, 206640, Note_off_c, 2, 59, 95
3, 206640, Note_off_c, 2, 52, 95
3, 206640, Note_on_c, 2, 58, 95
3, 206640, Note_on_c, 2, 51, 95
3, 206880, Note_off_c, 2, 58, 95
3, 206880, Note_off_c, 2, 51, 95
3, 206880, Note_on_c, 2, 57, 95
3, 206880, Note_on_c, 2, 50, 95
3, 207360, Note_off_c, 2, 57, 95
3, 207360, Note_off_c, 2, 50, 95
3, 207360, Note_on_c, 2, 39, 95
3, 207600, Note_off_c, 2, 39, 95
3, 207840, Note_on_c, 2, 39, 95
3, 208080, Note_off_c, 2, 39, 95
3, 208080, Note_on_c, 2, 39, 95
3, 208260, Note_on_c, 3, 49, 95
3, 208320, Note_off_c, 2, 39, 95
3, 208320, Note_off_c, 3, 49, 95
3, 208320, Note_on_c, 3, 51, 95
3, 208320, Note_on_c, 2, 39, 95
3, 209280, Note_off_c, 3, 51, 95
3, 209280, Note_off_c, 2, 39, 95
3, 209280, Note_on_c, 2, 39, 95
3, 209520, Note_off_c, 2, 39, 95
3, 209520, Note_on_c, 2, 39, 95
3, 209760, Note_off_c, 2, 39, 95
3, 209760, Note_on_c, 2, 39, 95
3, 210000, Note_off_c, 2, 39, 95
3, 210000, Note_on_c, 2, 39, 95
3, 210240, Note_off_c, 2, 39, 95
3, 210240, Note_on_c, 2, 49, 95
3, 210240, Note_on_c, 2, 42, 95
3, 210480, Note_off_c, 2, 49, 95
3, 210480, Note_off_c, 2, 42, 95
3, 210480, Note_on_c, 2, 48, 95
3, 210480, Note_on_c, 2, 41, 95
3, 210720, Note_off_c, 2, 48, 95
3, 210720, Note_off_c, 2, 41, 95
3, 210720, Note_on_c, 2, 47, 95
3, 210720, Note_on_c, 2, 40, 95
3, 211200, Note_off_c, 2, 47, 95
3, 211200, Note_off_c, 2, 40, 95
3, 211200, Note_on_c, 2, 48, 95
3, 211200, Note_on_c, 2, 41, 95
3, 214080, Note_off_c, 2, 48, 95
3, 214080, Note_off_c, 2, 41, 95
3, 214080, Note_on_c, 2, 49, 95
3, 214080, Note_on_c, 2, 42, 95
3, 215040, Note_off_c, 2, 49, 95
3, 215040, Note_off_c, 2, 42, 95
3, 215040, Note_on_c, 2, 39, 95
3, 215280, Note_off_c, 2, 39, 95
3, 215280, Note_on_c, 2, 39, 95
3, 215520, Note_off_c, 2, 39, 95
3, 215520, Note_on_c, 2, 39, 95
3, 215760, Note_off_c, 2, 39, 95
3, 215760, Note_on_c, 2, 39, 95
3, 216000, Note_off_c, 2, 39, 95
3, 216000, Note_on_c, 2, 39, 95
3, 216240, Note_off_c, 2, 39, 95
3, 216240, Note_on_c, 2, 39, 95
3, 216480, Note_off_c, 2, 39, 95
3, 216480, Note_on_c, 2, 39, 95
3, 216720, Note_off_c, 2, 39, 95
3, 216720, Note_on_c, 2, 39, 95
3, 216960, Note_off_c, 2, 39, 95
3, 216960, Note_on_c, 2, 39, 95
3, 217200, Note_off_c, 2, 39, 95
3, 217200, Note_on_c, 2, 39, 95
3, 217440, Note_off_c, 2, 39, 95
3, 217440, Note_on_c, 2, 49, 95
3, 217440, Note_on_c, 2, 42, 95
3, 217920, Note_off_c, 2, 49, 95
3, 217920, Note_off_c, 2, 42, 95
3, 217920, Note_on_c, 2, 39, 95
3, 218160, Note_off_c, 2, 39, 95
3, 218160, Note_on_c, 2, 39, 95
3, 218400, Note_off_c, 2, 39, 95
3, 218400, Note_on_c, 2, 49, 95
3, 218400, Note_on_c, 2, 42, 95
3, 218880, Note_off_c, 2, 49, 95
3, 218880, Note_off_c, 2, 42, 95
3, 218880, Note_on_c, 2, 48, 95
3, 218880, Note_on_c, 2, 41, 95
3, 221760, Note_off_c, 2, 48, 95
3, 221760, Note_off_c, 2, 41, 95
3, 221760, Note_on_c, 2, 52, 95
3, 221760, Note_on_c, 2, 45, 95
3, 222720, Note_off_c, 2, 52, 95
3, 222720, Note_off_c, 2, 45, 95
3, 222720, Note_on_c, 2, 39, 95
3, 222960, Note_off_c, 2, 39, 95
3, 222960, Note_on_c, 2, 39, 95
3, 223200, Note_off_c, 2, 39, 95
3, 223200, Note_on_c, 2, 39, 95
3, 223440, Note_off_c, 2, 39, 95
3, 223440, Note_on_c, 2, 39, 95
3, 223680, Note_off_c, 2, 39, 95
3, 223680, Note_on_c, 2, 39, 95
3, 223920, Note_off_c, 2, 39, 95
3, 223920, Note_on_c, 2, 39, 95
3, 224160, Note_off_c, 2, 39, 95
3, 224160, Note_on_c, 2, 39, 95
3, 224400, Note_off_c, 2, 39, 95
3, 224400, Note_on_c, 2, 39, 95
3, 224640, Note_off_c, 2, 39, 95
3, 224640, Note_on_c, 2, 39, 95
3, 224880, Note_off_c, 2, 39, 95
3, 224880, Note_on_c, 2, 39, 95
3, 225120, Note_off_c, 2, 39, 95
3, 225120, Note_on_c, 2, 46, 95
3, 225120, Note_on_c, 2, 39, 95
3, 225600, Note_off_c, 2, 46, 95
3, 225600, Note_off_c, 2, 39, 95
3, 225600, Note_on_c, 2, 39, 95
3, 225840, Note_off_c, 2, 39, 95
3, 225840, Note_on_c, 2, 39, 95
3, 226080, Note_off_c, 2, 39, 95
3, 226080, Note_on_c, 2, 47, 95
3, 226080, Note_on_c, 2, 40, 95
3, 226560, Note_off_c, 2, 47, 95
3, 226560, Note_off_c, 2, 40, 95
3, 226560, Note_on_c, 2, 48, 95
3, 226560, Note_on_c, 2, 41, 95
3, 229440, Note_off_c, 2, 48, 95
3, 229440, Note_off_c, 2, 41, 95
3, 229440, Note_on_c, 2, 49, 95
3, 229440, Note_on_c, 2, 42, 95
3, 230400, Note_off_c, 2, 49, 95
3, 230400, Note_off_c, 2, 42, 95
3, 230400, Note_on_c, 2, 39, 95
3, 230640, Note_off_c, 2, 39, 95
3, 230640, Note_on_c, 2, 39, 95
3, 230880, Note_off_c, 2, 39, 95
3, 230880, Note_on_c, 2, 39, 95
3, 231120, Note_off_c, 2, 39, 95
3, 231120, Note_on_c, 2, 39, 95
3, 231360, Note_off_c, 2, 39, 95
3, 231360, Note_on_c, 2, 39, 95
3, 231600, Note_off_c, 2, 39, 95
3, 231600, Note_on_c, 2, 39, 95
3, 231840, Note_off_c, 2, 39, 95
3, 231840, Note_on_c, 2, 39, 95
3, 232080, Note_off_c, 2, 39, 95
3, 232080, Note_on_c, 2, 39, 95
3, 232320, Note_off_c, 2, 39, 95
3, 232320, Note_on_c, 2, 39, 95
3, 232560, Note_off_c, 2, 39, 95
3, 232560, Note_on_c, 2, 39, 95
3, 232800, Note_off_c, 2, 39, 95
3, 232800, Note_on_c, 2, 49, 95
3, 232800, Note_on_c, 2, 42, 95
3, 233280, Note_off_c, 2, 49, 95
3, 233280, Note_off_c, 2, 42, 95
3, 233280, Note_on_c, 2, 39, 95
3, 233520, Note_off_c, 2, 39, 95
3, 233520, Note_on_c, 2, 39, 95
3, 233760, Note_off_c, 2, 39, 95
3, 233760, Note_on_c, 2, 49, 95
3, 233760, Note_on_c, 2, 42, 95
3, 234240, Note_off_c, 2, 49, 95
3, 234240, Note_off_c, 2, 42, 95
3, 234240, Note_on_c, 2, 48, 95
3, 234240, Note_on_c, 2, 41, 95
3, 237120, Note_off_c, 2, 48, 95
3, 237120, Note_off_c, 2, 41, 95
3, 237120, Note_on_c, 2, 49, 95
3, 237120, Note_on_c, 2, 42, 95
3, 237360, Note_off_c, 2, 49, 95
3, 237360, Note_off_c, 2, 42, 95
3, 237360, Note_on_c, 2, 51, 95
3, 237360, Note_on_c, 2, 44, 95
3, 238080, Note_off_c, 2, 51, 95
3, 238080, Note_off_c, 2, 44, 95
3, 238080, Note_on_c, 2, 39, 95
3, 238320, Note_off_c, 2, 39, 95
3, 238560, Note_on_c, 2, 39, 95
3, 238800, Note_off_c, 2, 39, 95
3, 238800, Note_on_c, 2, 39, 95
3, 239040, Note_off_c, 2, 39, 95
3, 239040, Note_on_c, 2, 51, 95
3, 239280, Note_off_c, 2, 51, 95
3, 239280, Note_on_c, 2, 52, 95
3, 240000, Note_off_c, 2, 52, 95
3, 240000, Note_on_c, 2, 39, 95
3, 240240, Note_off_c, 2, 39, 95
3, 240480, Note_on_c, 2, 39, 95
3, 240720, Note_off_c, 2, 39, 95
3, 240720, Note_on_c, 2, 39, 95
3, 240960, Note_off_c, 2, 39, 95
3, 240960, Note_on_c, 2, 51, 95
3, 241200, Note_off_c, 2, 51, 95
3, 241200, Note_on_c, 2, 52, 95
3, 241440, Note_off_c, 2, 52, 95
3, 241440, Note_on_c, 2, 54, 95
3, 241920, Note_off_c, 2, 54, 95
3, 241920, Note_on_c, 2, 39, 95
3, 242160, Note_off_c, 2, 39, 95
3, 242400, Note_on_c, 2, 39, 95
3, 242640, Note_off_c, 2, 39, 95
3, 242640, Note_on_c, 2, 39, 95
3, 242880, Note_off_c, 2, 39, 95
3, 242880, Note_on_c, 2, 51, 95
3, 243120, Note_off_c, 2, 51, 95
3, 243120, Note_on_c, 2, 52, 95
3, 243360, Note_off_c, 2, 52, 95
3, 243360, Note_on_c, 2, 56, 95
3, 243840, Note_off_c, 2, 56, 95
3, 243840, Note_on_c, 2, 55, 95
3, 244080, Note_off_c, 2, 55, 95
3, 244080, Note_on_c, 2, 54, 95
3, 244320, Note_off_c, 2, 54, 95
3, 244320, Note_on_c, 2, 53, 95
3, 244560, Note_off_c, 2, 53, 95
3, 244560, Note_on_c, 2, 50, 95
3, 244800, Note_off_c, 2, 50, 95
3, 244800, Note_on_c, 2, 49, 95
3, 245040, Note_off_c, 2, 49, 95
3, 245040, Note_on_c, 2, 47, 95
3, 245280, Note_off_c, 2, 47, 95
3, 245280, Note_on_c, 2, 46, 95
3, 245520, Note_off_c, 2, 46, 95
3, 245520, Note_on_c, 2, 45, 95
3, 245760, Note_off_c, 2, 45, 95
3, 245760, Note_on_c, 2, 39, 95
3, 246000, Note_off_c, 2, 39, 95
3, 246240, Note_on_c, 2, 39, 95
3, 246480, Note_off_c, 2, 39, 95
3, 246480, Note_on_c, 2, 39, 95
3, 246720, Note_off_c, 2, 39, 95
3, 246720, Note_on_c, 2, 51, 95
3, 246960, Note_off_c, 2, 51, 95
3, 246960, Note_on_c, 2, 52, 95
3, 247680, Note_off_c, 2, 52, 95
3, 247680, Note_on_c, 2, 39, 95
3, 247920, Note_off_c, 2, 39, 95
3, 248160, Note_on_c, 2, 39, 95
3, 248400, Note_off_c, 2, 39, 95
3, 248400, Note_on_c, 2, 39, 95
3, 248640, Note_off_c, 2, 39, 95
3, 248640, Note_on_c, 2, 51, 95
3, 248880, Note_off_c, 2, 51, 95
3, 248880, Note_on_c, 2, 52, 95
3, 249120, Note_off_c, 2, 52, 95
3, 249120, Note_on_c, 2, 54, 95
3, 249600, Note_off_c, 2, 54, 95
3, 249600, Note_on_c, 2, 39, 95
3, 249840, Note_off_c, 2, 39, 95
3, 250080, Note_on_c, 2, 39, 95
3, 250320, Note_off_c, 2, 39, 95
3, 250320, Note_on_c, 2, 39, 95
3, 250560, Note_off_c, 2, 39, 95
3, 250560, Note_on_c, 2, 51, 95
3, 250800, Note_off_c, 2, 51, 95
3, 250800, Note_on_c, 2, 52, 95
3, 251040, Note_off_c, 2, 52, 95
3, 251040, Note_on_c, 2, 56, 95
3, 251520, Note_off_c, 2, 56, 95
3, 251520, Note_on_c, 2, 55, 95
3, 251760, Note_off_c, 2, 55, 95
3, 251760, Note_on_c, 2, 54, 95
3, 252000, Note_off_c, 2, 54, 95
3, 252000, Note_on_c, 2, 53, 95
3, 252240, Note_off_c, 2, 53, 95
3, 252240, Note_on_c, 2, 50, 95
3, 252480, Note_off_c, 2, 50, 95
3, 252480, Note_on_c, 2, 49, 95
3, 252720, Note_off_c, 2, 49, 95
3, 252720, Note_on_c, 2, 48, 95
3, 252960, Note_off_c, 2, 48, 95
3, 252960, Note_on_c, 2, 57, 95
3, 253440, Note_off_c, 2, 57, 95
3, 253440, Note_on_c, 2, 39, 95
3, 253680, Note_off_c, 2, 39, 95
3, 253920, Note_on_c, 2, 39, 95
3, 254160, Note_off_c, 2, 39, 95
3, 254160, Note_on_c, 2, 39, 95
3, 254400, Note_off_c, 2, 39, 95
3, 254400, Note_on_c, 2, 51, 95
3, 254640, Note_off_c, 2, 51, 95
3, 254640, Note_on_c, 2, 52, 95
3, 255360, Note_off_c, 2, 52, 95
3, 255360, Note_on_c, 2, 39, 95
3, 255600, Note_off_c, 2, 39, 95
3, 255840, Note_on_c, 2, 39, 95
3, 256080, Note_off_c, 2, 39, 95
3, 256080, Note_on_c, 2, 39, 95
3, 256320, Note_off_c, 2, 39, 95
3, 256320, Note_on_c, 2, 51, 95
3, 256560, Note_off_c, 2, 51, 95
3, 256560, Note_on_c, 2, 52, 95
3, 256800, Note_off_c, 2, 52, 95
3, 256800, Note_on_c, 2, 54, 95
3, 257280, Note_off_c, 2, 54, 95
3, 257280, Note_on_c, 2, 39, 95
3, 257520, Note_off_c, 2, 39, 95
3, 257760, Note_on_c, 2, 39, 95
3, 258000, Note_off_c, 2, 39, 95
3, 258000, Note_on_c, 2, 39, 95
3, 258240, Note_off_c, 2, 39, 95
3, 258240, Note_on_c, 2, 51, 95
3, 258480, Note_off_c, 2, 51, 95
3, 258480, Note_on_c, 2, 52, 95
3, 258720, Note_off_c, 2, 52, 95
3, 258720, Note_on_c, 2, 56, 95
3, 259200, Note_off_c, 2, 56, 95
3, 259200, Note_on_c, 2, 55, 95
3, 259440, Note_off_c, 2, 55, 95
3, 259440, Note_on_c, 2, 54, 95
3, 259680, Note_off_c, 2, 54, 95
3, 259680, Note_on_c, 2, 53, 95
3, 259920, Note_off_c, 2, 53, 95
3, 259920, Note_on_c, 2, 50, 95
3, 260160, Note_off_c, 2, 50, 95
3, 260160, Note_on_c, 2, 49, 95
3, 260400, Note_off_c, 2, 49, 95
3, 260400, Note_on_c, 2, 47, 95
3, 260640, Note_off_c, 2, 47, 95
3, 260640, Note_on_c, 2, 46, 95
3, 260880, Note_off_c, 2, 46, 95
3, 260880, Note_on_c, 2, 45, 95
3, 261120, Note_off_c, 2, 45, 95
3, 261120, Note_on_c, 2, 39, 95
3, 261360, Note_off_c, 2, 39, 95
3, 261600, Note_on_c, 2, 39, 95
3, 261840, Note_off_c, 2, 39, 95
3, 261840, Note_on_c, 2, 39, 95
3, 262080, Note_off_c, 2, 39, 95
3, 262080, Note_on_c, 2, 51, 95
3, 262320, Note_off_c, 2, 51, 95
3, 262320, Note_on_c, 2, 52, 95
3, 263040, Note_off_c, 2, 52, 95
3, 263040, Note_on_c, 2, 39, 95
3, 263280, Note_off_c, 2, 39, 95
3, 263520, Note_on_c, 2, 39, 95
3, 263760, Note_off_c, 2, 39, 95
3, 263760, Note_on_c, 2, 39, 95
3, 264000, Note_off_c, 2, 39, 95
3, 264000, Note_on_c, 2, 51, 95
3, 264240, Note_off_c, 2, 51, 95
3, 264240, Note_on_c, 2, 52, 95
3, 264480, Note_off_c, 2, 52, 95
3, 264480, Note_on_c, 2, 54, 95
3, 264960, Note_off_c, 2, 54, 95
3, 264960, Note_on_c, 2, 39, 95
3, 265200, Note_off_c, 2, 39, 95
3, 265440, Note_on_c, 2, 39, 95
3, 265680, Note_off_c, 2, 39, 95
3, 265680, Note_on_c, 2, 39, 95
3, 265920, Note_off_c, 2, 39, 95
3, 265920, Note_on_c, 2, 51, 95
3, 266160, Note_off_c, 2, 51, 95
3, 266160, Note_on_c, 2, 52, 95
3, 266400, Note_off_c, 2, 52, 95
3, 266400, Note_on_c, 2, 56, 95
3, 266880, Note_off_c, 2, 56, 95
3, 266880, Note_on_c, 2, 55, 95
3, 267120, Note_off_c, 2, 55, 95
3, 267120, Note_on_c, 2, 54, 95
3, 267360, Note_off_c, 2, 54, 95
3, 267360, Note_on_c, 2, 53, 95
3, 267600, Note_off_c, 2, 53, 95
3, 267600, Note_on_c, 2, 49, 95
3, 267840, Note_off_c, 2, 49, 95
3, 267840, Note_on_c, 2, 48, 95
3, 268080, Note_off_c, 2, 48, 95
3, 268080, Note_on_c, 2, 47, 95
3, 268320, Note_off_c, 2, 47, 95
3, 268320, Note_on_c, 2, 43, 95
3, 268560, Note_off_c, 2, 43, 95
3, 268560, Note_on_c, 2, 42, 95
3, 268800, Note_off_c, 2, 42, 95
3, 268800, Pitch_bend_c, 3, 8192
3, 268800, Note_on_c, 3, 79, 95
3, 268800, Pitch_bend_c, 3, 8192
3, 268800, Note_on_c, 3, 75, 95
3, 268843, Pitch_bend_c, 3, 8320
3, 268886, Pitch_bend_c, 3, 8448
3, 268896, Pitch_bend_c, 3, 8320
3, 268929, Pitch_bend_c, 3, 8576
3, 268972, Pitch_bend_c, 3, 8704
3, 268992, Pitch_bend_c, 3, 8448
3, 269015, Pitch_bend_c, 3, 8832
3, 269058, Pitch_bend_c, 3, 8960
3, 269088, Pitch_bend_c, 3, 8576
3, 269101, Pitch_bend_c, 3, 9088
3, 269144, Pitch_bend_c, 3, 9216
3, 269184, Pitch_bend_c, 3, 8704
3, 269187, Pitch_bend_c, 3, 9344
3, 269230, Pitch_bend_c, 3, 9472
3, 269273, Pitch_bend_c, 3, 9600
3, 269280, Pitch_bend_c, 3, 8832
3, 269280, Pitch_bend_c, 3, 8832
3, 269280, Pitch_bend_c, 3, 9600
3, 269760, Pitch_bend_c, 3, 8832
3, 269760, Pitch_bend_c, 3, 8192
3, 269760, Note_off_c, 3, 79, 95
3, 269760, Pitch_bend_c, 3, 9600
3, 269760, Pitch_bend_c, 3, 8192
3, 269760, Note_off_c, 3, 75, 95
3, 269760, Pitch_bend_c, 3, 8192
3, 269760, Note_on_c, 3, 79, 95
3, 269760, Pitch_bend_c, 3, 8192
3, 269760, Note_on_c, 3, 75, 95
3, 269803, Pitch_bend_c, 3, 8320
3, 269846, Pitch_bend_c, 3, 8448
3, 269856, Pitch_bend_c, 3, 8320
3, 269889, Pitch_bend_c, 3, 8576
3, 269932, Pitch_bend_c, 3, 8704
3, 269952, Pitch_bend_c, 3, 8448
3, 269975, Pitch_bend_c, 3, 8832
3, 270018, Pitch_bend_c, 3, 8960
3, 270048, Pitch_bend_c, 3, 8576
3, 270061, Pitch_bend_c, 3, 9088
3, 270104, Pitch_bend_c, 3, 9216
3, 270144, Pitch_bend_c, 3, 8704
3, 270147, Pitch_bend_c, 3, 9344
3, 270190, Pitch_bend_c, 3, 9472
3, 270233, Pitch_bend_c, 3, 9600
3, 270240, Pitch_bend_c, 3, 8832
3, 270240, Pitch_bend_c, 3, 8832
3, 270240, Pitch_bend_c, 3, 9600
3, 270720, Pitch_bend_c, 3, 8832
3, 270720, Pitch_bend_c, 3, 8192
3, 270720, Note_off_c, 3, 79, 95
3, 270720, Pitch_bend_c, 3, 9600
3, 270720, Pitch_bend_c, 3, 8192
3, 270720, Note_off_c, 3, 75, 95
3, 270720, Pitch_bend_c, 3, 8192
3, 270720, Note_on_c, 3, 79, 95
3, 270720, Pitch_bend_c, 3, 8192
3, 270720, Note_on_c, 3, 75, 95
3, 270763, Pitch_bend_c, 3, 8320
3, 270806, Pitch_bend_c, 3, 8448
3, 270816, Pitch_bend_c, 3, 8320
3, 270849, Pitch_bend_c, 3, 8576
3, 270892, Pitch_bend_c, 3, 8704
3, 270912, Pitch_bend_c, 3, 8448
3, 270935, Pitch_bend_c, 3, 8832
3, 270978, Pitch_bend_c, 3, 8960
3, 271008, Pitch_bend_c, 3, 8576
3, 271021, Pitch_bend_c, 3, 9088
3, 271064, Pitch_bend_c, 3, 9216
3, 271104, Pitch_bend_c, 3, 8704
3, 271107, Pitch_bend_c, 3, 9344
3, 271150, Pitch_bend_c, 3, 9472
3, 271193, Pitch_bend_c, 3, 9600
3, 271200, Pitch_bend_c, 3, 8832
3, 271200, Pitch_bend_c, 3, 8832
3, 271200, Pitch_bend_c, 3, 9600
3, 271680, Pitch_bend_c, 3, 8832
3, 271680, Pitch_bend_c, 3, 8192
3, 271680, Note_off_c, 3, 79, 95
3, 271680, Pitch_bend_c, 3, 9600
3, 271680, Pitch_bend_c, 3, 8192
3, 271680, Note_off_c, 3, 75, 95
3, 271680, Pitch_bend_c, 3, 8192
3, 271680, Note_on_c, 3, 79, 95
3, 271680, Pitch_bend_c, 3, 8192
3, 271680, Note_on_c, 3, 75, 95
3, 271723, Pitch_bend_c, 3, 8320
3, 271723, Pitch_bend_c, 3, 8320
3, 271766, Pitch_bend_c, 3, 8448
3, 271766, Pitch_bend_c, 3, 8448
3, 271809, Pitch_bend_c, 3, 8576
3, 271809, Pitch_bend_c, 3, 8576
3, 271852, Pitch_bend_c, 3, 8704
3, 271852, Pitch_bend_c, 3, 8704
3, 271895, Pitch_bend_c, 3, 8832
3, 271895, Pitch_bend_c, 3, 8832
3, 271938, Pitch_bend_c, 3, 8960
3, 271938, Pitch_bend_c, 3, 8960
3, 271981, Pitch_bend_c, 3, 9088
3, 271981, Pitch_bend_c, 3, 9088
3, 272024, Pitch_bend_c, 3, 9216
3, 272024, Pitch_bend_c, 3, 9216
3, 272067, Pitch_bend_c, 3, 9344
3, 272067, Pitch_bend_c, 3, 9344
3, 272110, Pitch_bend_c, 3, 9472
3, 272110, Pitch_bend_c, 3, 9472
3, 272153, Pitch_bend_c, 3, 9600
3, 272153, Pitch_bend_c, 3, 9600
3, 272196, Pitch_bend_c, 3, 9728
3, 272196, Pitch_bend_c, 3, 9728
3, 272239, Pitch_bend_c, 3, 9856
3, 272239, Pitch_bend_c, 3, 9856
3, 272282, Pitch_bend_c, 3, 9984
3, 272282, Pitch_bend_c, 3, 9984
3, 272325, Pitch_bend_c, 3, 10112
3, 272325, Pitch_bend_c, 3, 10112
3, 272368, Pitch_bend_c, 3, 10240
3, 272368, Pitch_bend_c, 3, 10240
3, 272411, Pitch_bend_c, 3, 10368
3, 272411, Pitch_bend_c, 3, 10368
3, 272454, Pitch_bend_c, 3, 10496
3, 272454, Pitch_bend_c, 3, 10496
3, 272497, Pitch_bend_c, 3, 10624
3, 272497, Pitch_bend_c, 3, 10624
3, 272540, Pitch_bend_c, 3, 10752
3, 272540, Pitch_bend_c, 3, 10752
3, 272583, Pitch_bend_c, 3, 10880
3, 272583, Pitch_bend_c, 3, 10880
3, 272626, Pitch_bend_c, 3, 11008
3, 272626, Pitch_bend_c, 3, 11008
3, 272640, Pitch_bend_c, 3, 11008
3, 272640, Pitch_bend_c, 3, 11008
3, 273600, Pitch_bend_c, 3, 11008
3, 273600, Pitch_bend_c, 3, 8192
3, 273600, Note_off_c, 3, 79, 95
3, 273600, Pitch_bend_c, 3, 11008
3, 273600, Pitch_bend_c, 3, 8192
3, 273600, Note_off_c, 3, 75, 95
3, 273600, Pitch_bend_c, 3, 8192
3, 273600, Note_on_c, 3, 79, 95
3, 273600, Pitch_bend_c, 3, 8192
3, 273600, Note_on_c, 3, 75, 95
3, 273621, Pitch_bend_c, 3, 8320
3, 273621, Pitch_bend_c, 3, 8320
3, 273642, Pitch_bend_c, 3, 8448
3, 273642, Pitch_bend_c, 3, 8448
3, 273663, Pitch_bend_c, 3, 8576
3, 273663, Pitch_bend_c, 3, 8576
3, 273684, Pitch_bend_c, 3, 8704
3, 273684, Pitch_bend_c, 3, 8704
3, 273705, Pitch_bend_c, 3, 8832
3, 273705, Pitch_bend_c, 3, 8832
3, 273726, Pitch_bend_c, 3, 8960
3, 273726, Pitch_bend_c, 3, 8960
3, 273747, Pitch_bend_c, 3, 9088
3, 273747, Pitch_bend_c, 3, 9088
3, 273768, Pitch_bend_c, 3, 9216
3, 273768, Pitch_bend_c, 3, 9216
3, 273789, Pitch_bend_c, 3, 9344
3, 273789, Pitch_bend_c, 3, 9344
3, 273810, Pitch_bend_c, 3, 9472
3, 273810, Pitch_bend_c, 3, 9472
3, 273831, Pitch_bend_c, 3, 9600
3, 273831, Pitch_bend_c, 3, 9600
3, 273840, Pitch_bend_c, 3, 9600
3, 273840, Pitch_bend_c, 3, 9600
3, 274080, Pitch_bend_c, 3, 9600
3, 274080, Pitch_bend_c, 3, 8192
3, 274080, Note_off_c, 3, 79, 95
3, 274080, Pitch_bend_c, 3, 9600
3, 274080, Pitch_bend_c, 3, 8192
3, 274080, Note_off_c, 3, 75, 95
3, 274080, Pitch_bend_c, 3, 8192
3, 274080, Note_on_c, 3, 79, 95
3, 274080, Pitch_bend_c, 3, 8192
3, 274080, Note_on_c, 3, 75, 95
3, 274128, Pitch_bend_c, 3, 8064
3, 274128, Pitch_bend_c, 3, 8064
3, 274176, Pitch_bend_c, 3, 7936
3, 274176, Pitch_bend_c, 3, 7936
3, 274224, Pitch_bend_c, 3, 7808
3, 274224, Pitch_bend_c, 3, 7808
3, 274272, Pitch_bend_c, 3, 7680
3, 274272, Pitch_bend_c, 3, 7680
3, 274320, Pitch_bend_c, 3, 7552
3, 274320, Pitch_bend_c, 3, 7552
3, 274320, Pitch_bend_c, 3, 7552
3, 274320, Pitch_bend_c, 3, 7552
3, 274368, Pitch_bend_c, 3, 7680
3, 274368, Pitch_bend_c, 3, 7680
3, 274416, Pitch_bend_c, 3, 7808
3, 274416, Pitch_bend_c, 3, 7808
3, 274464, Pitch_bend_c, 3, 7936
3, 274464, Pitch_bend_c, 3, 7936
3, 274512, Pitch_bend_c, 3, 8064
3, 274512, Pitch_bend_c, 3, 8064
3, 274560, Pitch_bend_c, 3, 8192
3, 274560, Pitch_bend_c, 3, 8192
3, 274560, Pitch_bend_c, 3, 8192
3, 274560, Note_off_c, 3, 79, 95
3, 274560, Pitch_bend_c, 3, 8192
3, 274560, Pitch_bend_c, 3, 8192
3, 274560, Pitch_bend_c, 3, 8192
3, 274560, Note_off_c, 3, 75, 95
3, 274560, Pitch_bend_c, 3, 8192
3, 274560, Note_on_c, 3, 79, 95
3, 274560, Pitch_bend_c, 3, 8192
3, 274560, Note_on_c, 3, 75, 95
3, 274581, Pitch_bend_c, 3, 8320
3, 274602, Pitch_bend_c, 3, 8448
3, 274614, Pitch_bend_c, 3, 8320
3, 274623, Pitch_bend_c, 3, 8576
3, 274644, Pitch_bend_c, 3, 8704
3, 274665, Pitch_bend_c, 3, 8832
3, 274668, Pitch_bend_c, 3, 8448
3, 274686, Pitch_bend_c, 3, 8960
3, 274707, Pitch_bend_c, 3, 9088
3, 274722, Pitch_bend_c, 3, 8576
3, 274728, Pitch_bend_c, 3, 9216
3, 274749, Pitch_bend_c, 3, 9344
3, 274770, Pitch_bend_c, 3, 9472
3, 274776, Pitch_bend_c, 3, 8704
3, 274791, Pitch_bend_c, 3, 9600
3, 274800, Pitch_bend_c, 3, 9600
3, 274830, Pitch_bend_c, 3, 8832
3, 274884, Pitch_bend_c, 3, 8960
3, 274938, Pitch_bend_c, 3, 9088
3, 274992, Pitch_bend_c, 3, 9216
3, 275040, Pitch_bend_c, 3, 9600
3, 275040, Pitch_bend_c, 3, 8192
3, 275040, Note_off_c, 3, 75, 95
3, 275046, Pitch_bend_c, 3, 9344
3, 275100, Pitch_bend_c, 3, 9472
3, 275154, Pitch_bend_c, 3, 9600
3, 275160, Pitch_bend_c, 3, 9600
3, 275760, Pitch_bend_c, 3, 9600
3, 275760, Pitch_bend_c, 3, 8192
3, 275760, Note_off_c, 3, 79, 95
3, 275760, Note_on_c, 2, 51, 95
3, 276000, Note_off_c, 2, 51, 95
3, 276000, Note_on_c, 2, 54, 95
3, 276240, Note_off_c, 2, 54, 95
3, 276240, Note_on_c, 2, 51, 95
3, 276480, Note_off_c, 2, 51, 95
3, 276480, Note_on_c, 2, 54, 95
3, 276720, Note_off_c, 2, 54, 95
3, 276720, Note_on_c, 2, 56, 95
3, 276960, Note_off_c, 2, 56, 95
3, 276960, Note_on_c, 2, 59, 95
3, 277200, Note_off_c, 2, 59, 95
3, 277200, Note_on_c, 2, 56, 70
3, 277440, Note_off_c, 2, 56, 70
3, 277440, Note_on_c, 2, 59, 95
3, 277632, Note_off_c, 2, 59, 95
3, 277632, Note_on_c, 2, 56, 70
3, 277824, Note_off_c, 2, 56, 70
3, 277824, Note_on_c, 2, 61, 95
3, 278016, Note_off_c, 2, 61, 95
3, 278016, Note_on_c, 2, 62, 70
3, 278208, Note_off_c, 2, 62, 70
3, 278208, Note_on_c, 2, 63, 70
3, 278400, Note_off_c, 2, 63, 70
3, 278400, Note_on_c, 2, 61, 95
3, 278560, Note_off_c, 2, 61, 95
3, 278560, Note_on_c, 2, 62, 70
3, 278720, Note_off_c, 2, 62, 70
3, 278720, Note_on_c, 2, 63, 70
3, 278880, Note_off_c, 2, 63, 70
3, 278880, Note_on_c, 2, 66, 95
3, 279120, Note_off_c, 2, 66, 95
3, 279120, Note_on_c, 2, 68, 70
3, 279360, Note_off_c, 2, 68, 70
3, 279360, Pitch_bend_c, 3, 8192
3, 279360, Note_on_c, 3, 68, 95
3, 279367, Pitch_bend_c, 3, 8320
3, 279374, Pitch_bend_c, 3, 8448
3, 279381, Pitch_bend_c, 3, 8576
3, 279388, Pitch_bend_c, 3, 8704
3, 279395, Pitch_bend_c, 3, 8832
3, 279402, Pitch_bend_c, 3, 8960
3, 279409, Pitch_bend_c, 3, 9088
3, 279416, Pitch_bend_c, 3, 9216
3, 279423, Pitch_bend_c, 3, 9344
3, 279430, Pitch_bend_c, 3, 9472
3, 279437, Pitch_bend_c, 3, 9600
3, 279444, Pitch_bend_c, 3, 9728
3, 279451, Pitch_bend_c, 3, 9856
3, 279458, Pitch_bend_c, 3, 9984
3, 279465, Pitch_bend_c, 3, 10112
3, 279472, Pitch_bend_c, 3, 10240
3, 279480, Pitch_bend_c, 3, 10240
3, 279600, Pitch_bend_c, 3, 10240
3, 279607, Pitch_bend_c, 3, 10112
3, 279614, Pitch_bend_c, 3, 9984
3, 279621, Pitch_bend_c, 3, 9856
3, 279628, Pitch_bend_c, 3, 9728
3, 279635, Pitch_bend_c, 3, 9600
3, 279642, Pitch_bend_c, 3, 9472
3, 279649, Pitch_bend_c, 3, 9344
3, 279656, Pitch_bend_c, 3, 9216
3, 279663, Pitch_bend_c, 3, 9088
3, 279670, Pitch_bend_c, 3, 8960
3, 279677, Pitch_bend_c, 3, 8832
3, 279684, Pitch_bend_c, 3, 8704
3, 279691, Pitch_bend_c, 3, 8576
3, 279698, Pitch_bend_c, 3, 8448
3, 279705, Pitch_bend_c, 3, 8320
3, 279712, Pitch_bend_c, 3, 8192
3, 279720, Pitch_bend_c, 3, 8192
3, 279840, Pitch_bend_c, 3, 8192
3, 279847, Pitch_bend_c, 3, 8320
3, 279854, Pitch_bend_c, 3, 8448
3, 279861, Pitch_bend_c, 3, 8576
3, 279868, Pitch_bend_c, 3, 8704
3, 279875, Pitch_bend_c, 3, 8832
3, 279882, Pitch_bend_c, 3, 8960
3, 279889, Pitch_bend_c, 3, 9088
3, 279896, Pitch_bend_c, 3, 9216
3, 279903, Pitch_bend_c, 3, 9344
3, 279910, Pitch_bend_c, 3, 9472
3, 279917, Pitch_bend_c, 3, 9600
3, 279924, Pitch_bend_c, 3, 9728
3, 279931, Pitch_bend_c, 3, 9856
3, 279938, Pitch_bend_c, 3, 9984
3, 279945, Pitch_bend_c, 3, 10112
3, 279952, Pitch_bend_c, 3, 10240
3, 279960, Pitch_bend_c, 3, 10240
3, 280080, Pitch_bend_c, 3, 10240
3, 280080, Pitch_bend_c, 3, 8192
3, 280080, Note_off_c, 3, 68, 95
3, 280080, Note_on_c, 2, 44, 95
3, 280135, Note_off_c, 2, 44, 95
3, 280320, Pitch_bend_c, 3, 8192
3, 280320, Note_on_c, 3, 68, 31
3, 280320, Note_on_c, 3, 80, 95
3, 280352, Pitch_bend_c, 3, 8320
3, 280384, Pitch_bend_c, 3, 8448
3, 280416, Pitch_bend_c, 3, 8576
3, 280448, Pitch_bend_c, 3, 8704
3, 280480, Pitch_bend_c, 3, 8832
3, 280512, Pitch_bend_c, 3, 8960
3, 280544, Pitch_bend_c, 3, 9088
3, 280576, Pitch_bend_c, 3, 9216
3, 280608, Pitch_bend_c, 3, 9344
3, 280640, Pitch_bend_c, 3, 9472
3, 280672, Pitch_bend_c, 3, 9600
3, 280680, Pitch_bend_c, 3, 9600
3, 281040, Pitch_bend_c, 3, 9600
3, 281160, Pitch_bend_c, 3, 9472
3, 281280, Pitch_bend_c, 3, 9344
3, 281400, Pitch_bend_c, 3, 9216
3, 281520, Pitch_bend_c, 3, 9088
3, 281640, Pitch_bend_c, 3, 8960
3, 281760, Pitch_bend_c, 3, 8832
3, 281760, Pitch_bend_c, 3, 8832
3, 281760, Pitch_bend_c, 3, 8192
3, 281760, Note_off_c, 3, 68, 31
3, 281760, Note_off_c, 3, 80, 95
3, 281760, Pitch_bend_c, 3, 8192
3, 281760, Note_on_c, 3, 68, 95
3, 281790, Pitch_bend_c, 3, 8320
3, 281820, Pitch_bend_c, 3, 8448
3, 281850, Pitch_bend_c, 3, 8576
3, 281880, Pitch_bend_c, 3, 8704
3, 281910, Pitch_bend_c, 3, 8832
3, 281940, Pitch_bend_c, 3, 8960
3, 281970, Pitch_bend_c, 3, 9088
3, 282000, Pitch_bend_c, 3, 9216
3, 282030, Pitch_bend_c, 3, 9344
3, 282060, Pitch_bend_c, 3, 9472
3, 282090, Pitch_bend_c, 3, 9600
3, 282120, Pitch_bend_c, 3, 9728
3, 282150, Pitch_bend_c, 3, 9856
3, 282180, Pitch_bend_c, 3, 9984
3, 282210, Pitch_bend_c, 3, 10112
3, 282240, Pitch_bend_c, 3, 10240
3, 282240, Pitch_bend_c, 3, 10240
3, 282720, Pitch_bend_c, 3, 10240
3, 282720, Pitch_bend_c, 3, 8192
3, 282720, Note_off_c, 3, 68, 95
3, 282720, Pitch_bend_c, 3, 8192
3, 282720, Note_on_c, 3, 49, 95
3, 282741, Pitch_bend_c, 3, 8320
3, 282762, Pitch_bend_c, 3, 8448
3, 282783, Pitch_bend_c, 3, 8576
3, 282804, Pitch_bend_c, 3, 8704
3, 282825, Pitch_bend_c, 3, 8832
3, 282846, Pitch_bend_c, 3, 8960
3, 282867, Pitch_bend_c, 3, 9088
3, 282888, Pitch_bend_c, 3, 9216
3, 282909, Pitch_bend_c, 3, 9344
3, 282930, Pitch_bend_c, 3, 9472
3, 282951, Pitch_bend_c, 3, 9600
3, 282960, Pitch_bend_c, 3, 9600
3, 283200, Pitch_bend_c, 3, 9600
3, 283221, Pitch_bend_c, 3, 9472
3, 283242, Pitch_bend_c, 3, 9344
3, 283263, Pitch_bend_c, 3, 9216
3, 283284, Pitch_bend_c, 3, 9088
3, 283305, Pitch_bend_c, 3, 8960
3, 283326, Pitch_bend_c, 3, 8832
3, 283347, Pitch_bend_c, 3, 8704
3, 283368, Pitch_bend_c, 3, 8576
3, 283389, Pitch_bend_c, 3, 8448
3, 283410, Pitch_bend_c, 3, 8320
3, 283431, Pitch_bend_c, 3, 8192
3, 283440, Pitch_bend_c, 3, 8192
3, 283680, Pitch_bend_c, 3, 8192
3, 283701, Pitch_bend_c, 3, 8320
3, 283722, Pitch_bend_c, 3, 8448
3, 283743, Pitch_bend_c, 3, 8576
3, 283764, Pitch_bend_c, 3, 8704
3, 283785, Pitch_bend_c, 3, 8832
3, 283806, Pitch_bend_c, 3, 8960
3, 283827, Pitch_bend_c, 3, 9088
3, 283848, Pitch_bend_c, 3, 9216
3, 283869, Pitch_bend_c, 3, 9344
3, 283890, Pitch_bend_c, 3, 9472
3, 283911, Pitch_bend_c, 3, 9600
3, 283920, Pitch_bend_c, 3, 9600
3, 284160, Pitch_bend_c, 3, 9600
3, 284160, Pitch_bend_c, 3, 8192
3, 284160, Note_off_c, 3, 49, 95
3, 284160, Note_on_c, 2, 39, 95
3, 284400, Note_off_c, 2, 39, 95
3, 284400, Note_on_c, 2, 42, 70
3, 284640, Note_off_c, 2, 42, 70
3, 284640, Note_on_c, 2, 44, 95
3, 284880, Note_off_c, 2, 44, 95
3, 284880, Note_on_c, 2, 46, 95
3, 285120, Note_off_c, 2, 46, 95
3, 285120, Note_on_c, 2, 44, 95
3, 285360, Note_off_c, 2, 44, 95
3, 285360, Note_on_c, 2, 46, 70
3, 285600, Note_off_c, 2, 46, 70
3, 285600, Note_on_c, 2, 49, 95
3, 285840, Note_off_c, 2, 49, 95
3, 285840, Note_on_c, 2, 51, 70
3, 286080, Note_off_c, 2, 51, 70
3, 286080, Note_on_c, 2, 46, 95
3, 286320, Note_off_c, 2, 46, 95
3, 286320, Note_on_c, 2, 49, 70
3, 286560, Note_off_c, 2, 49, 70
3, 286560, Note_on_c, 2, 52, 95
3, 286720, Note_off_c, 2, 52, 95
3, 286720, Note_on_c, 2, 53, 70
3, 286880, Note_off_c, 2, 53, 70
3, 286880, Note_on_c, 2, 56, 95
3, 287040, Note_off_c, 2, 56, 95
3, 287040, Note_on_c, 2, 51, 95
3, 287232, Note_off_c, 2, 51, 95
3, 287232, Note_on_c, 2, 53, 70
3, 287424, Note_off_c, 2, 53, 70
3, 287424, Note_on_c, 2, 56, 95
3, 287616, Note_off_c, 2, 56, 95
3, 287616, Note_on_c, 2, 57, 70
3, 287808, Note_off_c, 2, 57, 70
3, 287808, Note_on_c, 2, 58, 70
3, 288000, Note_off_c, 2, 58, 70
3, 288000, Note_on_c, 2, 56, 95
3, 288160, Note_off_c, 2, 56, 95
3, 288160, Note_on_c, 2, 57, 70
3, 288320, Note_off_c, 2, 57, 70
3, 288320, Note_on_c, 2, 58, 70
3, 288480, Note_off_c, 2, 58, 70
3, 288480, Note_on_c, 2, 56, 95
3, 288720, Note_off_c, 2, 56, 95
3, 288720, Pitch_bend_c, 3, 8192
3, 288720, Note_on_c, 3, 58, 31
3, 288720, Note_on_c, 3, 70, 95
3, 288774, Pitch_bend_c, 3, 8320
3, 288828, Pitch_bend_c, 3, 8448
3, 288882, Pitch_bend_c, 3, 8576
3, 288936, Pitch_bend_c, 3, 8704
3, 288990, Pitch_bend_c, 3, 8832
3, 289044, Pitch_bend_c, 3, 8960
3, 289098, Pitch_bend_c, 3, 9088
3, 289152, Pitch_bend_c, 3, 9216
3, 289206, Pitch_bend_c, 3, 9344
3, 289260, Pitch_bend_c, 3, 9472
3, 289314, Pitch_bend_c, 3, 9600
3, 289320, Pitch_bend_c, 3, 9600
3, 289920, Pitch_bend_c, 3, 9600
3, 289920, Pitch_bend_c, 3, 8192
3, 289920, Note_off_c, 3, 58, 31
3, 289920, Note_off_c, 3, 70, 95
3, 289920, Note_on_c, 2, 58, 95
3, 290880, Note_off_c, 2, 58, 95
3, 290880, Note_on_c, 2, 44, 95
3, 291040, Note_off_c, 2, 44, 95
3, 291040, Note_on_c, 2, 46, 70
3, 291200, Note_off_c, 2, 46, 70
3, 291200, Note_on_c, 2, 48, 70
3, 291360, Note_off_c, 2, 48, 70
3, 291360, Note_on_c, 2, 44, 95
3, 291520, Note_off_c, 2, 44, 95
3, 291520, Note_on_c, 2, 46, 70
3, 291680, Note_off_c, 2, 46, 70
3, 291680, Note_on_c, 2, 48, 70
3, 291840, Note_off_c, 2, 48, 70
3, 291840, Note_on_c, 2, 46, 95
3, 292000, Note_off_c, 2, 46, 95
3, 292000, Note_on_c, 2, 48, 70
3, 292160, Note_off_c, 2, 48, 70
3, 292160, Note_on_c, 2, 49, 70
3, 292320, Note_off_c, 2, 49, 70
3, 292320, Note_on_c, 2, 46, 95
3, 292480, Note_off_c, 2, 46, 95
3, 292480, Note_on_c, 2, 48, 70
3, 292640, Note_off_c, 2, 48, 70
3, 292640, Note_on_c, 2, 49, 70
3, 292800, Note_off_c, 2, 49, 70
3, 292800, Note_on_c, 2, 51, 95
3, 292960, Note_off_c, 2, 51, 95
3, 292960, Note_on_c, 2, 53, 70
3, 293120, Note_off_c, 2, 53, 70
3, 293120, Note_on_c, 2, 53, 95
3, 293280, Note_off_c, 2, 53, 95
3, 293280, Note_on_c, 2, 56, 95
3, 293440, Note_off_c, 2, 56, 95
3, 293440, Note_on_c, 2, 58, 70
3, 293600, Note_off_c, 2, 58, 70
3, 293600, Note_on_c, 2, 60, 70
3, 293760, Note_off_c, 2, 60, 70
3, 293760, Note_on_c, 2, 58, 95
3, 293920, Note_off_c, 2, 58, 95
3, 293920, Note_on_c, 2, 60, 70
3, 294080, Note_off_c, 2, 60, 70
3, 294080, Note_on_c, 2, 61, 70
3, 294240, Note_off_c, 2, 61, 70
3, 294240, Note_on_c, 2, 58, 95
3, 294400, Note_off_c, 2, 58, 95
3, 294400, Note_on_c, 2, 60, 70
3, 294560, Note_off_c, 2, 60, 70
3, 294560, Note_on_c, 2, 61, 70
3, 294720, Note_off_c, 2, 61, 70
3, 294720, Note_on_c, 2, 63, 95
3, 294880, Note_off_c, 2, 63, 95
3, 294880, Note_on_c, 2, 65, 70
3, 295040, Note_off_c, 2, 65, 70
3, 295040, Note_on_c, 3, 63, 70
3, 295200, Pitch_bend_c, 3, 10240
3, 295200, Pitch_bend_c, 3, 8192
3, 295200, Note_off_c, 3, 63, 70
3, 295200, Note_on_c, 2, 66, 95
3, 295360, Note_off_c, 2, 66, 95
3, 295360, Note_on_c, 2, 68, 70
3, 295520, Note_off_c, 2, 68, 70
3, 295520, Note_on_c, 2, 66, 70
3, 295680, Note_off_c, 2, 66, 70
3, 295680, Note_on_c, 2, 73, 95
3, 295680, Pitch_bend_c, 3, 8192
3, 295680, Note_on_c, 3, 68, 95
3, 295723, Pitch_bend_c, 3, 8320
3, 295766, Pitch_bend_c, 3, 8448
3, 295809, Pitch_bend_c, 3, 8576
3, 295852, Pitch_bend_c, 3, 8704
3, 295895, Pitch_bend_c, 3, 8832
3, 295938, Pitch_bend_c, 3, 8960
3, 295981, Pitch_bend_c, 3, 9088
3, 296024, Pitch_bend_c, 3, 9216
3, 296067, Pitch_bend_c, 3, 9344
3, 296110, Pitch_bend_c, 3, 9472
3, 296153, Pitch_bend_c, 3, 9600
3, 296160, Pitch_bend_c, 3, 9600
3, 296640, Pitch_bend_c, 3, 9600
3, 296683, Pitch_bend_c, 3, 9472
3, 296726, Pitch_bend_c, 3, 9344
3, 296769, Pitch_bend_c, 3, 9216
3, 296812, Pitch_bend_c, 3, 9088
3, 296855, Pitch_bend_c, 3, 8960
3, 296898, Pitch_bend_c, 3, 8832
3, 296941, Pitch_bend_c, 3, 8704
3, 296984, Pitch_bend_c, 3, 8576
3, 297027, Pitch_bend_c, 3, 8448
3, 297070, Pitch_bend_c, 3, 8320
3, 297113, Pitch_bend_c, 3, 8192
3, 297120, Note_off_c, 2, 73, 95
3, 297120, Pitch_bend_c, 3, 8192
3, 297600, Pitch_bend_c, 3, 8192
3, 297600, Pitch_bend_c, 3, 8192
3, 297600, Note_off_c, 3, 68, 95
3, 297600, Pitch_bend_c, 3, 8192
3, 297600, Note_on_c, 3, 73, 95
3, 297600, Pitch_bend_c, 3, 8192
3, 297600, Note_on_c, 3, 68, 95
3, 297687, Pitch_bend_c, 3, 8320
3, 297687, Pitch_bend_c, 3, 8320
3, 297774, Pitch_bend_c, 3, 8448
3, 297774, Pitch_bend_c, 3, 8448
3, 297861, Pitch_bend_c, 3, 8576
3, 297861, Pitch_bend_c, 3, 8576
3, 297948, Pitch_bend_c, 3, 8704
3, 297948, Pitch_bend_c, 3, 8704
3, 298035, Pitch_bend_c, 3, 8832
3, 298035, Pitch_bend_c, 3, 8832
3, 298122, Pitch_bend_c, 3, 8960
3, 298122, Pitch_bend_c, 3, 8960
3, 298209, Pitch_bend_c, 3, 9088
3, 298209, Pitch_bend_c, 3, 9088
3, 298296, Pitch_bend_c, 3, 9216
3, 298296, Pitch_bend_c, 3, 9216
3, 298383, Pitch_bend_c, 3, 9344
3, 298383, Pitch_bend_c, 3, 9344
3, 298470, Pitch_bend_c, 3, 9472
3, 298470, Pitch_bend_c, 3, 9472
3, 298557, Pitch_bend_c, 3, 9600
3, 298557, Pitch_bend_c, 3, 9600
3, 298560, Pitch_bend_c, 3, 9600
3, 298560, Pitch_bend_c, 3, 9600
3, 299520, Pitch_bend_c, 3, 9600
3, 299520, Pitch_bend_c, 3, 8192
3, 299520, Note_off_c, 3, 73, 95
3, 299520, Pitch_bend_c, 3, 9600
3, 299520, Pitch_bend_c, 3, 8192
3, 299520, Note_off_c, 3, 68, 95
3, 299520, Pitch_bend_c, 3, 8192
3, 299520, Note_on_c, 3, 70, 95
3, 299568, Pitch_bend_c, 3, 8320
3, 299616, Pitch_bend_c, 3, 8448
3, 299664, Pitch_bend_c, 3, 8576
3, 299712, Pitch_bend_c, 3, 8704
3, 299760, Pitch_bend_c, 3, 8832
3, 299760, Pitch_bend_c, 3, 8832
3, 300000, Pitch_bend_c, 3, 8832
3, 300048, Pitch_bend_c, 3, 8704
3, 300096, Pitch_bend_c, 3, 8576
3, 300144, Pitch_bend_c, 3, 8448
3, 300192, Pitch_bend_c, 3, 8320
3, 300240, Pitch_bend_c, 3, 8192
3, 300240, Pitch_bend_c, 3, 8192
3, 300480, Pitch_bend_c, 3, 8192
3, 300480, Pitch_bend_c, 3, 8192
3, 300480, Note_off_c, 3, 70, 95
3, 300480, Note_on_c, 2, 54, 95
3, 300960, Note_off_c, 2, 54, 95
3, 300960, Pitch_bend_c, 3, 8192
3, 300960, Note_on_c, 3, 54, 95
3, 300970, Pitch_bend_c, 3, 8320
3, 300980, Pitch_bend_c, 3, 8448
3, 300990, Pitch_bend_c, 3, 8576
3, 301000, Pitch_bend_c, 3, 8704
3, 301010, Pitch_bend_c, 3, 8832
3, 301020, Pitch_bend_c, 3, 8960
3, 301030, Pitch_bend_c, 3, 9088
3, 301040, Pitch_bend_c, 3, 9216
3, 301050, Pitch_bend_c, 3, 9344
3, 301060, Pitch_bend_c, 3, 9472
3, 301070, Pitch_bend_c, 3, 9600
3, 301080, Pitch_bend_c, 3, 9600
3, 301200, Pitch_bend_c, 3, 9600
3, 301210, Pitch_bend_c, 3, 9472
3, 301220, Pitch_bend_c, 3, 9344
3, 301230, Pitch_bend_c, 3, 9216
3, 301240, Pitch_bend_c, 3, 9088
3, 301250, Pitch_bend_c, 3, 8960
3, 301260, Pitch_bend_c, 3, 8832
3, 301270, Pitch_bend_c, 3, 8704
3, 301280, Pitch_bend_c, 3, 8576
3, 301290, Pitch_bend_c, 3, 8448
3, 301300, Pitch_bend_c, 3, 8320
3, 301310, Pitch_bend_c, 3, 8192
3, 301320, Pitch_bend_c, 3, 8192
3, 301440, Pitch_bend_c, 3, 8192
3, 301440, Pitch_bend_c, 3, 8192
3, 301440, Note_off_c, 3, 54, 95
3, 301440, Pitch_bend_c, 3, 8192
3, 301440, Note_on_c, 3, 54, 95
3, 301470, Pitch_bend_c, 3, 8320
3, 301500, Pitch_bend_c, 3, 8448
3, 301530, Pitch_bend_c, 3, 8576
3, 301560, Pitch_bend_c, 3, 8704
3, 301590, Pitch_bend_c, 3, 8832
3, 301620, Pitch_bend_c, 3, 8960
3, 301650, Pitch_bend_c, 3, 9088
3, 301680, Pitch_bend_c, 3, 9216
3, 301710, Pitch_bend_c, 3, 9344
3, 301740, Pitch_bend_c, 3, 9472
3, 301770, Pitch_bend_c, 3, 9600
3, 301800, Pitch_bend_c, 3, 9728
3, 301830, Pitch_bend_c, 3, 9856
3, 301860, Pitch_bend_c, 3, 9984
3, 301890, Pitch_bend_c, 3, 10112
3, 301920, Pitch_bend_c, 3, 10240
3, 301920, Pitch_bend_c, 3, 10240
3, 302010, Pitch_bend_c, 3, 10112
3, 302100, Pitch_bend_c, 3, 9984
3, 302190, Pitch_bend_c, 3, 9856
3, 302280, Pitch_bend_c, 3, 9728
3, 302370, Pitch_bend_c, 3, 9600
3, 302460, Pitch_bend_c, 3, 9472
3, 302550, Pitch_bend_c, 3, 9344
3, 302640, Pitch_bend_c, 3, 9216
3, 302730, Pitch_bend_c, 3, 9088
3, 302820, Pitch_bend_c, 3, 8960
3, 302910, Pitch_bend_c, 3, 8832
3, 303000, Pitch_bend_c, 3, 8704
3, 303090, Pitch_bend_c, 3, 8576
3, 303180, Pitch_bend_c, 3, 8448
3, 303270, Pitch_bend_c, 3, 8320
3, 303360, Pitch_bend_c, 3, 8192
3, 303360, Pitch_bend_c, 3, 8192
3, 303360, Pitch_bend_c, 3, 8192
3, 303360, Note_off_c, 3, 54, 95
3, 303360, Pitch_bend_c, 3, 8192
3, 303360, Note_on_c, 3, 71, 95
3, 303386, Pitch_bend_c, 3, 8064
3, 303412, Pitch_bend_c, 3, 7936
3, 303438, Pitch_bend_c, 3, 7808
3, 303464, Pitch_bend_c, 3, 7680
3, 303490, Pitch_bend_c, 3, 7552
3, 303516, Pitch_bend_c, 3, 7424
3, 303542, Pitch_bend_c, 3, 7296
3, 303568, Pitch_bend_c, 3, 7168
3, 303594, Pitch_bend_c, 3, 7040
3, 303620, Pitch_bend_c, 3, 6912
3, 303646, Pitch_bend_c, 3, 6784
3, 303672, Pitch_bend_c, 3, 6656
3, 303698, Pitch_bend_c, 3, 6528
3, 303724, Pitch_bend_c, 3, 6400
3, 303750, Pitch_bend_c, 3, 6272
3, 303776, Pitch_bend_c, 3, 6144
3, 303802, Pitch_bend_c, 3, 6016
3, 303828, Pitch_bend_c, 3, 5888
3, 303854, Pitch_bend_c, 3, 5760
3, 303880, Pitch_bend_c, 3, 5632
3, 303906, Pitch_bend_c, 3, 5504
3, 303932, Pitch_bend_c, 3, 5376
3, 303958, Pitch_bend_c, 3, 5248
3, 303984, Pitch_bend_c, 3, 5120
3, 304010, Pitch_bend_c, 3, 4992
3, 304036, Pitch_bend_c, 3, 4864
3, 304062, Pitch_bend_c, 3, 4736
3, 304080, Pitch_bend_c, 3, 4736
3, 304106, Pitch_bend_c, 3, 4864
3, 304132, Pitch_bend_c, 3, 4992
3, 304158, Pitch_bend_c, 3, 5120
3, 304184, Pitch_bend_c, 3, 5248
3, 304210, Pitch_bend_c, 3, 5376
3, 304236, Pitch_bend_c, 3, 5504
3, 304262, Pitch_bend_c, 3, 5632
3, 304288, Pitch_bend_c, 3, 5760
3, 304314, Pitch_bend_c, 3, 5888
3, 304340, Pitch_bend_c, 3, 6016
3, 304366, Pitch_bend_c, 3, 6144
3, 304392, Pitch_bend_c, 3, 6272
3, 304418, Pitch_bend_c, 3, 6400
3, 304444, Pitch_bend_c, 3, 6528
3, 304470, Pitch_bend_c, 3, 6656
3, 304496, Pitch_bend_c, 3, 6784
3, 304522, Pitch_bend_c, 3, 6912
3, 304548, Pitch_bend_c, 3, 7040
3, 304574, Pitch_bend_c, 3, 7168
3, 304600, Pitch_bend_c, 3, 7296
3, 304626, Pitch_bend_c, 3, 7424
3, 304652, Pitch_bend_c, 3, 7552
3, 304678, Pitch_bend_c, 3, 7680
3, 304704, Pitch_bend_c, 3, 7808
3, 304730, Pitch_bend_c, 3, 7936
3, 304756, Pitch_bend_c, 3, 8064
3, 304782, Pitch_bend_c, 3, 8192
3, 304800, Pitch_bend_c, 3, 8192
3, 304800, Pitch_bend_c, 3, 8192
3, 304800, Note_off_c, 3, 71, 95
3, 304800, Pitch_bend_c, 3, 8192
3, 304800, Note_on_c, 3, 54, 95
3, 304844, Pitch_bend_c, 3, 8064
3, 304888, Pitch_bend_c, 3, 7936
3, 304932, Pitch_bend_c, 3, 7808
3, 304976, Pitch_bend_c, 3, 7680
3, 305020, Pitch_bend_c, 3, 7552
3, 305064, Pitch_bend_c, 3, 7424
3, 305108, Pitch_bend_c, 3, 7296
3, 305152, Pitch_bend_c, 3, 7168
3, 305196, Pitch_bend_c, 3, 7040
3, 305240, Pitch_bend_c, 3, 6912
3, 305284, Pitch_bend_c, 3, 6784
3, 305328, Pitch_bend_c, 3, 6656
3, 305372, Pitch_bend_c, 3, 6528
3, 305416, Pitch_bend_c, 3, 6400
3, 305460, Pitch_bend_c, 3, 6272
3, 305504, Pitch_bend_c, 3, 6144
3, 305548, Pitch_bend_c, 3, 6016
3, 305592, Pitch_bend_c, 3, 5888
3, 305636, Pitch_bend_c, 3, 5760
3, 305680, Pitch_bend_c, 3, 5632
3, 305724, Pitch_bend_c, 3, 5504
3, 305768, Pitch_bend_c, 3, 5376
3, 305812, Pitch_bend_c, 3, 5248
3, 305856, Pitch_bend_c, 3, 5120
3, 305900, Pitch_bend_c, 3, 4992
3, 305944, Pitch_bend_c, 3, 4864
3, 305988, Pitch_bend_c, 3, 4736
3, 306000, Pitch_bend_c, 3, 4736
3, 306044, Pitch_bend_c, 3, 4864
3, 306088, Pitch_bend_c, 3, 4992
3, 306132, Pitch_bend_c, 3, 5120
3, 306176, Pitch_bend_c, 3, 5248
3, 306220, Pitch_bend_c, 3, 5376
3, 306264, Pitch_bend_c, 3, 5504
3, 306308, Pitch_bend_c, 3, 5632
3, 306352, Pitch_bend_c, 3, 5760
3, 306396, Pitch_bend_c, 3, 5888
3, 306440, Pitch_bend_c, 3, 6016
3, 306484, Pitch_bend_c, 3, 6144
3, 306528, Pitch_bend_c, 3, 6272
3, 306572, Pitch_bend_c, 3, 6400
3, 306616, Pitch_bend_c, 3, 6528
3, 306660, Pitch_bend_c, 3, 6656
3, 306704, Pitch_bend_c, 3, 6784
3, 306748, Pitch_bend_c, 3, 6912
3, 306792, Pitch_bend_c, 3, 7040
3, 306836, Pitch_bend_c, 3, 7168
3, 306880, Pitch_bend_c, 3, 7296
3, 306924, Pitch_bend_c, 3, 7424
3, 306968, Pitch_bend_c, 3, 7552
3, 307012, Pitch_bend_c, 3, 7680
3, 307056, Pitch_bend_c, 3, 7808
3, 307100, Pitch_bend_c, 3, 7936
3, 307144, Pitch_bend_c, 3, 8064
3, 307188, Pitch_bend_c, 3, 8192
3, 307200, Pitch_bend_c, 3, 8192
3, 307200, Pitch_bend_c, 3, 8192
3, 307200, Note_off_c, 3, 54, 95
3, 307200, Pitch_bend_c, 3, 8192
3, 307200, Note_on_c, 3, 61, 95
3, 307202, Pitch_bend_c, 3, 8064
3, 307204, Pitch_bend_c, 3, 7936
3, 307206, Pitch_bend_c, 3, 7808
3, 307208, Pitch_bend_c, 3, 7680
3, 307210, Pitch_bend_c, 3, 7552
3, 307212, Pitch_bend_c, 3, 7424
3, 307214, Pitch_bend_c, 3, 7296
3, 307216, Pitch_bend_c, 3, 7168
3, 307218, Pitch_bend_c, 3, 7040
3, 307220, Pitch_bend_c, 3, 6912
3, 307222, Pitch_bend_c, 3, 6784
3, 307224, Pitch_bend_c, 3, 6656
3, 307226, Pitch_bend_c, 3, 6528
3, 307228, Pitch_bend_c, 3, 6400
3, 307230, Pitch_bend_c, 3, 6272
3, 307232, Pitch_bend_c, 3, 6144
3, 307234, Pitch_bend_c, 3, 6016
3, 307236, Pitch_bend_c, 3, 5888
3, 307238, Pitch_bend_c, 3, 5760
3, 307240, Pitch_bend_c, 3, 5632
3, 307242, Pitch_bend_c, 3, 5504
3, 307244, Pitch_bend_c, 3, 5376
3, 307246, Pitch_bend_c, 3, 5248
3, 307248, Pitch_bend_c, 3, 5120
3, 307250, Pitch_bend_c, 3, 4992
3, 307252, Pitch_bend_c, 3, 4864
3, 307254, Pitch_bend_c, 3, 4736
3, 307256, Pitch_bend_c, 3, 4608
3, 307258, Pitch_bend_c, 3, 4480
3, 307260, Pitch_bend_c, 3, 4352
3, 307262, Pitch_bend_c, 3, 4224
3, 307264, Pitch_bend_c, 3, 4096
3, 307266, Pitch_bend_c, 3, 3968
3, 307280, Pitch_bend_c, 3, 3968
3, 307282, Pitch_bend_c, 3, 4096
3, 307284, Pitch_bend_c, 3, 4224
3, 307286, Pitch_bend_c, 3, 4352
3, 307288, Pitch_bend_c, 3, 4480
3, 307290, Pitch_bend_c, 3, 4608
3, 307292, Pitch_bend_c, 3, 4736
3, 307294, Pitch_bend_c, 3, 4864
3, 307296, Pitch_bend_c, 3, 4992
3, 307298, Pitch_bend_c, 3, 5120
3, 307300, Pitch_bend_c, 3, 5248
3, 307302, Pitch_bend_c, 3, 5376
3, 307304, Pitch_bend_c, 3, 5504
3, 307306, Pitch_bend_c, 3, 5632
3, 307308, Pitch_bend_c, 3, 5760
3, 307310, Pitch_bend_c, 3, 5888
3, 307312, Pitch_bend_c, 3, 6016
3, 307314, Pitch_bend_c, 3, 6144
3, 307316, Pitch_bend_c, 3, 6272
3, 307318, Pitch_bend_c, 3, 6400
3, 307320, Pitch_bend_c, 3, 6528
3, 307322, Pitch_bend_c, 3, 6656
3, 307324, Pitch_bend_c, 3, 6784
3, 307326, Pitch_bend_c, 3, 6912
3, 307328, Pitch_bend_c, 3, 7040
3, 307330, Pitch_bend_c, 3, 7168
3, 307332, Pitch_bend_c, 3, 7296
3, 307334, Pitch_bend_c, 3, 7424
3, 307336, Pitch_bend_c, 3, 7552
3, 307338, Pitch_bend_c, 3, 7680
3, 307340, Pitch_bend_c, 3, 7808
3, 307342, Pitch_bend_c, 3, 7936
3, 307344, Pitch_bend_c, 3, 8064
3, 307346, Pitch_bend_c, 3, 8192
3, 307360, Pitch_bend_c, 3, 8192
3, 307360, Pitch_bend_c, 3, 8192
3, 307360, Note_off_c, 3, 61, 95
3, 307360, Note_on_c, 2, 59, 95
3, 307520, Note_off_c, 2, 59, 95
3, 307520, Pitch_bend_c, 3, 8192
3, 307520, Note_on_c, 3, 54, 95
3, 307521, Pitch_bend_c, 3, 8064
3, 307522, Pitch_bend_c, 3, 7936
3, 307523, Pitch_bend_c, 3, 7808
3, 307524, Pitch_bend_c, 3, 7680
3, 307525, Pitch_bend_c, 3, 7552
3, 307526, Pitch_bend_c, 3, 7424
3, 307527, Pitch_bend_c, 3, 7296
3, 307528, Pitch_bend_c, 3, 7168
3, 307529, Pitch_bend_c, 3, 7040
3, 307530, Pitch_bend_c, 3, 6912
3, 307531, Pitch_bend_c, 3, 6784
3, 307532, Pitch_bend_c, 3, 6656
3, 307533, Pitch_bend_c, 3, 6528
3, 307534, Pitch_bend_c, 3, 6400
3, 307535, Pitch_bend_c, 3, 6272
3, 307536, Pitch_bend_c, 3, 6144
3, 307537, Pitch_bend_c, 3, 6016
3, 307538, Pitch_bend_c, 3, 5888
3, 307539, Pitch_bend_c, 3, 5760
3, 307540, Pitch_bend_c, 3, 5632
3, 307541, Pitch_bend_c, 3, 5504
3, 307542, Pitch_bend_c, 3, 5376
3, 307543, Pitch_bend_c, 3, 5248
3, 307544, Pitch_bend_c, 3, 5120
3, 307545, Pitch_bend_c, 3, 4992
3, 307546, Pitch_bend_c, 3, 4864
3, 307547, Pitch_bend_c, 3, 4736
3, 307548, Pitch_bend_c, 3, 4608
3, 307549, Pitch_bend_c, 3, 4480
3, 307550, Pitch_bend_c, 3, 4352
3, 307551, Pitch_bend_c, 3, 4224
3, 307552, Pitch_bend_c, 3, 4096
3, 307553, Pitch_bend_c, 3, 3968
3, 307554, Pitch_bend_c, 3, 3840
3, 307555, Pitch_bend_c, 3, 3712
3, 307556, Pitch_bend_c, 3, 3584
3, 307557, Pitch_bend_c, 3, 3456
3, 307558, Pitch_bend_c, 3, 3328
3, 307559, Pitch_bend_c, 3, 3200
3, 307560, Pitch_bend_c, 3, 3072
3, 307561, Pitch_bend_c, 3, 2944
3, 307562, Pitch_bend_c, 3, 2816
3, 307563, Pitch_bend_c, 3, 2688
3, 307564, Pitch_bend_c, 3, 2560
3, 307565, Pitch_bend_c, 3, 2432
3, 307566, Pitch_bend_c, 3, 2304
3, 307567, Pitch_bend_c, 3, 2176
3, 307568, Pitch_bend_c, 3, 2048
3, 307569, Pitch_bend_c, 3, 1920
3, 307570, Pitch_bend_c, 3, 1792
3, 307571, Pitch_bend_c, 3, 1664
3, 307572, Pitch_bend_c, 3, 1536
3, 307573, Pitch_bend_c, 3, 1408
3, 307574, Pitch_bend_c, 3, 1280
3, 307575, Pitch_bend_c, 3, 1152
3, 307600, Pitch_bend_c, 3, 1152
3, 307601, Pitch_bend_c, 3, 1280
3, 307602, Pitch_bend_c, 3, 1408
3, 307603, Pitch_bend_c, 3, 1536
3, 307604, Pitch_bend_c, 3, 1664
3, 307605, Pitch_bend_c, 3, 1792
3, 307606, Pitch_bend_c, 3, 1920
3, 307607, Pitch_bend_c, 3, 2048
3, 307608, Pitch_bend_c, 3, 2176
3, 307609, Pitch_bend_c, 3, 2304
3, 307610, Pitch_bend_c, 3, 2432
3, 307611, Pitch_bend_c, 3, 2560
3, 307612, Pitch_bend_c, 3, 2688
3, 307613, Pitch_bend_c, 3, 2816
3, 307614, Pitch_bend_c, 3, 2944
3, 307615, Pitch_bend_c, 3, 3072
3, 307616, Pitch_bend_c, 3, 3200
3, 307617, Pitch_bend_c, 3, 3328
3, 307618, Pitch_bend_c, 3, 3456
3, 307619, Pitch_bend_c, 3, 3584
3, 307620, Pitch_bend_c, 3, 3712
3, 307621, Pitch_bend_c, 3, 3840
3, 307622, Pitch_bend_c, 3, 3968
3, 307623, Pitch_bend_c, 3, 4096
3, 307624, Pitch_bend_c, 3, 4224
3, 307625, Pitch_bend_c, 3, 4352
3, 307626, Pitch_bend_c, 3, 4480
3, 307627, Pitch_bend_c, 3, 4608
3, 307628, Pitch_bend_c, 3, 4736
3, 307629, Pitch_bend_c, 3, 4864
3, 307630, Pitch_bend_c, 3, 4992
3, 307631, Pitch_bend_c, 3, 5120
3, 307632, Pitch_bend_c, 3, 5248
3, 307633, Pitch_bend_c, 3, 5376
3, 307634, Pitch_bend_c, 3, 5504
3, 307635, Pitch_bend_c, 3, 5632
3, 307636, Pitch_bend_c, 3, 5760
3, 307637, Pitch_bend_c, 3, 5888
3, 307638, Pitch_bend_c, 3, 6016
3, 307639, Pitch_bend_c, 3, 6144
3, 307640, Pitch_bend_c, 3, 6272
3, 307641, Pitch_bend_c, 3, 6400
3, 307642, Pitch_bend_c, 3, 6528
3, 307643, Pitch_bend_c, 3, 6656
3, 307644, Pitch_bend_c, 3, 6784
3, 307645, Pitch_bend_c, 3, 6912
3, 307646, Pitch_bend_c, 3, 7040
3, 307647, Pitch_bend_c, 3, 7168
3, 307648, Pitch_bend_c, 3, 7296
3, 307649, Pitch_bend_c, 3, 7424
3, 307650, Pitch_bend_c, 3, 7552
3, 307651, Pitch_bend_c, 3, 7680
3, 307652, Pitch_bend_c, 3, 7808
3, 307653, Pitch_bend_c, 3, 7936
3, 307654, Pitch_bend_c, 3, 8064
3, 307655, Pitch_bend_c, 3, 8192
3, 307680, Pitch_bend_c, 3, 8192
3, 307680, Pitch_bend_c, 3, 8192
3, 307680, Note_off_c, 3, 54, 95
3, 307680, Note_on_c, 2, 61, 95
3, 307840, Note_off_c, 2, 61, 95
3, 307840, Pitch_bend_c, 3, 8192
3, 307840, Note_on_c, 3, 59, 95
3, 307842, Pitch_bend_c, 3, 8064
3, 307844, Pitch_bend_c, 3, 7936
3, 307846, Pitch_bend_c, 3, 7808
3, 307848, Pitch_bend_c, 3, 7680
3, 307850, Pitch_bend_c, 3, 7552
3, 307852, Pitch_bend_c, 3, 7424
3, 307854, Pitch_bend_c, 3, 7296
3, 307856, Pitch_bend_c, 3, 7168
3, 307858, Pitch_bend_c, 3, 7040
3, 307860, Pitch_bend_c, 3, 6912
3, 307862, Pitch_bend_c, 3, 6784
3, 307864, Pitch_bend_c, 3, 6656
3, 307866, Pitch_bend_c, 3, 6528
3, 307868, Pitch_bend_c, 3, 6400
3, 307870, Pitch_bend_c, 3, 6272
3, 307872, Pitch_bend_c, 3, 6144
3, 307874, Pitch_bend_c, 3, 6016
3, 307876, Pitch_bend_c, 3, 5888
3, 307878, Pitch_bend_c, 3, 5760
3, 307880, Pitch_bend_c, 3, 5632
3, 307882, Pitch_bend_c, 3, 5504
3, 307884, Pitch_bend_c, 3, 5376
3, 307886, Pitch_bend_c, 3, 5248
3, 307888, Pitch_bend_c, 3, 5120
3, 307890, Pitch_bend_c, 3, 4992
3, 307892, Pitch_bend_c, 3, 4864
3, 307894, Pitch_bend_c, 3, 4736
3, 307896, Pitch_bend_c, 3, 4608
3, 307898, Pitch_bend_c, 3, 4480
3, 307900, Pitch_bend_c, 3, 4352
3, 307902, Pitch_bend_c, 3, 4224
3, 307904, Pitch_bend_c, 3, 4096
3, 307906, Pitch_bend_c, 3, 3968
3, 307920, Pitch_bend_c, 3, 3968
3, 307922, Pitch_bend_c, 3, 4096
3, 307924, Pitch_bend_c, 3, 4224
3, 307926, Pitch_bend_c, 3, 4352
3, 307928, Pitch_bend_c, 3, 4480
3, 307930, Pitch_bend_c, 3, 4608
3, 307932, Pitch_bend_c, 3, 4736
3, 307934, Pitch_bend_c, 3, 4864
3, 307936, Pitch_bend_c, 3, 4992
3, 307938, Pitch_bend_c, 3, 5120
3, 307940, Pitch_bend_c, 3, 5248
3, 307942, Pitch_bend_c, 3, 5376
3, 307944, Pitch_bend_c, 3, 5504
3, 307946, Pitch_bend_c, 3, 5632
3, 307948, Pitch_bend_c, 3, 5760
3, 307950, Pitch_bend_c, 3, 5888
3, 307952, Pitch_bend_c, 3, 6016
3, 307954, Pitch_bend_c, 3, 6144
3, 307956, Pitch_bend_c, 3, 6272
3, 307958, Pitch_bend_c, 3, 6400
3, 307960, Pitch_bend_c, 3, 6528
3, 307962, Pitch_bend_c, 3, 6656
3, 307964, Pitch_bend_c, 3, 6784
3, 307966, Pitch_bend_c, 3, 6912
3, 307968, Pitch_bend_c, 3, 7040
3, 307970, Pitch_bend_c, 3, 7168
3, 307972, Pitch_bend_c, 3, 7296
3, 307974, Pitch_bend_c, 3, 7424
3, 307976, Pitch_bend_c, 3, 7552
3, 307978, Pitch_bend_c, 3, 7680
3, 307980, Pitch_bend_c, 3, 7808
3, 307982, Pitch_bend_c, 3, 7936
3, 307984, Pitch_bend_c, 3, 8064
3, 307986, Pitch_bend_c, 3, 8192
3, 308000, Pitch_bend_c, 3, 8192
3, 308000, Pitch_bend_c, 3, 8192
3, 308000, Note_off_c, 3, 59, 95
3, 308000, Note_on_c, 2, 54, 95
3, 308160, Note_off_c, 2, 54, 95
3, 308160, Pitch_bend_c, 3, 8192
3, 308160, Note_on_c, 3, 61, 95
3, 308163, Pitch_bend_c, 3, 8064
3, 308166, Pitch_bend_c, 3, 7936
3, 308169, Pitch_bend_c, 3, 7808
3, 308172, Pitch_bend_c, 3, 7680
3, 308175, Pitch_bend_c, 3, 7552
3, 308178, Pitch_bend_c, 3, 7424
3, 308181, Pitch_bend_c, 3, 7296
3, 308184, Pitch_bend_c, 3, 7168
3, 308187, Pitch_bend_c, 3, 7040
3, 308190, Pitch_bend_c, 3, 6912
3, 308193, Pitch_bend_c, 3, 6784
3, 308196, Pitch_bend_c, 3, 6656
3, 308199, Pitch_bend_c, 3, 6528
3, 308202, Pitch_bend_c, 3, 6400
3, 308205, Pitch_bend_c, 3, 6272
3, 308208, Pitch_bend_c, 3, 6144
3, 308211, Pitch_bend_c, 3, 6016
3, 308214, Pitch_bend_c, 3, 5888
3, 308217, Pitch_bend_c, 3, 5760
3, 308220, Pitch_bend_c, 3, 5632
3, 308223, Pitch_bend_c, 3, 5504
3, 308226, Pitch_bend_c, 3, 5376
3, 308240, Pitch_bend_c, 3, 5376
3, 308243, Pitch_bend_c, 3, 5504
3, 308246, Pitch_bend_c, 3, 5632
3, 308249, Pitch_bend_c, 3, 5760
3, 308252, Pitch_bend_c, 3, 5888
3, 308255, Pitch_bend_c, 3, 6016
3, 308258, Pitch_bend_c, 3, 6144
3, 308261, Pitch_bend_c, 3, 6272
3, 308264, Pitch_bend_c, 3, 6400
3, 308267, Pitch_bend_c, 3, 6528
3, 308270, Pitch_bend_c, 3, 6656
3, 308273, Pitch_bend_c, 3, 6784
3, 308276, Pitch_bend_c, 3, 6912
3, 308279, Pitch_bend_c, 3, 7040
3, 308282, Pitch_bend_c, 3, 7168
3, 308285, Pitch_bend_c, 3, 7296
3, 308288, Pitch_bend_c, 3, 7424
3, 308291, Pitch_bend_c, 3, 7552
3, 308294, Pitch_bend_c, 3, 7680
3, 308297, Pitch_bend_c, 3, 7808
3, 308300, Pitch_bend_c, 3, 7936
3, 308303, Pitch_bend_c, 3, 8064
3, 308306, Pitch_bend_c, 3, 8192
3, 308320, Pitch_bend_c, 3, 8192
3, 308320, Pitch_bend_c, 3, 8192
3, 308320, Note_off_c, 3, 61, 95
3, 308320, Pitch_bend_c, 3, 8192
3, 308320, Note_on_c, 3, 59, 95
3, 308323, Pitch_bend_c, 3, 8064
3, 308326, Pitch_bend_c, 3, 7936
3, 308329, Pitch_bend_c, 3, 7808
3, 308332, Pitch_bend_c, 3, 7680
3, 308335, Pitch_bend_c, 3, 7552
3, 308338, Pitch_bend_c, 3, 7424
3, 308341, Pitch_bend_c, 3, 7296
3, 308344, Pitch_bend_c, 3, 7168
3, 308347, Pitch_bend_c, 3, 7040
3, 308350, Pitch_bend_c, 3, 6912
3, 308353, Pitch_bend_c, 3, 6784
3, 308356, Pitch_bend_c, 3, 6656
3, 308359, Pitch_bend_c, 3, 6528
3, 308362, Pitch_bend_c, 3, 6400
3, 308365, Pitch_bend_c, 3, 6272
3, 308368, Pitch_bend_c, 3, 6144
3, 308371, Pitch_bend_c, 3, 6016
3, 308374, Pitch_bend_c, 3, 5888
3, 308377, Pitch_bend_c, 3, 5760
3, 308380, Pitch_bend_c, 3, 5632
3, 308383, Pitch_bend_c, 3, 5504
3, 308386, Pitch_bend_c, 3, 5376
3, 308400, Pitch_bend_c, 3, 5376
3, 308403, Pitch_bend_c, 3, 5504
3, 308406, Pitch_bend_c, 3, 5632
3, 308409, Pitch_bend_c, 3, 5760
3, 308412, Pitch_bend_c, 3, 5888
3, 308415, Pitch_bend_c, 3, 6016
3, 308418, Pitch_bend_c, 3, 6144
3, 308421, Pitch_bend_c, 3, 6272
3, 308424, Pitch_bend_c, 3, 6400
3, 308427, Pitch_bend_c, 3, 6528
3, 308430, Pitch_bend_c, 3, 6656
3, 308433, Pitch_bend_c, 3, 6784
3, 308436, Pitch_bend_c, 3, 6912
3, 308439, Pitch_bend_c, 3, 7040
3, 308442, Pitch_bend_c, 3, 7168
3, 308445, Pitch_bend_c, 3, 7296
3, 308448, Pitch_bend_c, 3, 7424
3, 308451, Pitch_bend_c, 3, 7552
3, 308454, Pitch_bend_c, 3, 7680
3, 308457, Pitch_bend_c, 3, 7808
3, 308460, Pitch_bend_c, 3, 7936
3, 308463, Pitch_bend_c, 3, 8064
3, 308466, Pitch_bend_c, 3, 8192
3, 308480, Pitch_bend_c, 3, 8192
3, 308480, Pitch_bend_c, 3, 8192
3, 308480, Note_off_c, 3, 59, 95
3, 308480, Pitch_bend_c, 3, 8192
3, 308480, Note_on_c, 3, 54, 95
3, 308482, Pitch_bend_c, 3, 8064
3, 308484, Pitch_bend_c, 3, 7936
3, 308486, Pitch_bend_c, 3, 7808
3, 308488, Pitch_bend_c, 3, 7680
3, 308490, Pitch_bend_c, 3, 7552
3, 308492, Pitch_bend_c, 3, 7424
3, 308494, Pitch_bend_c, 3, 7296
3, 308496, Pitch_bend_c, 3, 7168
3, 308498, Pitch_bend_c, 3, 7040
3, 308500, Pitch_bend_c, 3, 6912
3, 308502, Pitch_bend_c, 3, 6784
3, 308504, Pitch_bend_c, 3, 6656
3, 308506, Pitch_bend_c, 3, 6528
3, 308508, Pitch_bend_c, 3, 6400
3, 308510, Pitch_bend_c, 3, 6272
3, 308512, Pitch_bend_c, 3, 6144
3, 308514, Pitch_bend_c, 3, 6016
3, 308516, Pitch_bend_c, 3, 5888
3, 308518, Pitch_bend_c, 3, 5760
3, 308520, Pitch_bend_c, 3, 5632
3, 308522, Pitch_bend_c, 3, 5504
3, 308524, Pitch_bend_c, 3, 5376
3, 308526, Pitch_bend_c, 3, 5248
3, 308528, Pitch_bend_c, 3, 5120
3, 308530, Pitch_bend_c, 3, 4992
3, 308532, Pitch_bend_c, 3, 4864
3, 308534, Pitch_bend_c, 3, 4736
3, 308536, Pitch_bend_c, 3, 4608
3, 308538, Pitch_bend_c, 3, 4480
3, 308540, Pitch_bend_c, 3, 4352
3, 308542, Pitch_bend_c, 3, 4224
3, 308544, Pitch_bend_c, 3, 4096
3, 308546, Pitch_bend_c, 3, 3968
3, 308560, Pitch_bend_c, 3, 3968
3, 308562, Pitch_bend_c, 3, 4096
3, 308564, Pitch_bend_c, 3, 4224
3, 308566, Pitch_bend_c, 3, 4352
3, 308568, Pitch_bend_c, 3, 4480
3, 308570, Pitch_bend_c, 3, 4608
3, 308572, Pitch_bend_c, 3, 4736
3, 308574, Pitch_bend_c, 3, 4864
3, 308576, Pitch_bend_c, 3, 4992
3, 308578, Pitch_bend_c, 3, 5120
3, 308580, Pitch_bend_c, 3, 5248
3, 308582, Pitch_bend_c, 3, 5376
3, 308584, Pitch_bend_c, 3, 5504
3, 308586, Pitch_bend_c, 3, 5632
3, 308588, Pitch_bend_c, 3, 5760
3, 308590, Pitch_bend_c, 3, 5888
3, 308592, Pitch_bend_c, 3, 6016
3, 308594, Pitch_bend_c, 3, 6144
3, 308596, Pitch_bend_c, 3, 6272
3, 308598, Pitch_bend_c, 3, 6400
3, 308600, Pitch_bend_c, 3, 6528
3, 308602, Pitch_bend_c, 3, 6656
3, 308604, Pitch_bend_c, 3, 6784
3, 308606, Pitch_bend_c, 3, 6912
3, 308608, Pitch_bend_c, 3, 7040
3, 308610, Pitch_bend_c, 3, 7168
3, 308612, Pitch_bend_c, 3, 7296
3, 308614, Pitch_bend_c, 3, 7424
3, 308616, Pitch_bend_c, 3, 7552
3, 308618, Pitch_bend_c, 3, 7680
3, 308620, Pitch_bend_c, 3, 7808
3, 308622, Pitch_bend_c, 3, 7936
3, 308624, Pitch_bend_c, 3, 8064
3, 308626, Pitch_bend_c, 3, 8192
3, 308640, Pitch_bend_c, 3, 8192
3, 308640, Pitch_bend_c, 3, 8192
3, 308640, Note_off_c, 3, 54, 95
3, 308640, Pitch_bend_c, 3, 8192
3, 308640, Note_on_c, 3, 61, 95
3, 308642, Pitch_bend_c, 3, 8064
3, 308644, Pitch_bend_c, 3, 7936
3, 308646, Pitch_bend_c, 3, 7808
3, 308648, Pitch_bend_c, 3, 7680
3, 308650, Pitch_bend_c, 3, 7552
3, 308652, Pitch_bend_c, 3, 7424
3, 308654, Pitch_bend_c, 3, 7296
3, 308656, Pitch_bend_c, 3, 7168
3, 308658, Pitch_bend_c, 3, 7040
3, 308660, Pitch_bend_c, 3, 6912
3, 308662, Pitch_bend_c, 3, 6784
3, 308664, Pitch_bend_c, 3, 6656
3, 308666, Pitch_bend_c, 3, 6528
3, 308668, Pitch_bend_c, 3, 6400
3, 308670, Pitch_bend_c, 3, 6272
3, 308672, Pitch_bend_c, 3, 6144
3, 308674, Pitch_bend_c, 3, 6016
3, 308676, Pitch_bend_c, 3, 5888
3, 308678, Pitch_bend_c, 3, 5760
3, 308680, Pitch_bend_c, 3, 5632
3, 308682, Pitch_bend_c, 3, 5504
3, 308684, Pitch_bend_c, 3, 5376
3, 308686, Pitch_bend_c, 3, 5248
3, 308688, Pitch_bend_c, 3, 5120
3, 308690, Pitch_bend_c, 3, 4992
3, 308692, Pitch_bend_c, 3, 4864
3, 308694, Pitch_bend_c, 3, 4736
3, 308696, Pitch_bend_c, 3, 4608
3, 308698, Pitch_bend_c, 3, 4480
3, 308700, Pitch_bend_c, 3, 4352
3, 308702, Pitch_bend_c, 3, 4224
3, 308704, Pitch_bend_c, 3, 4096
3, 308706, Pitch_bend_c, 3, 3968
3, 308720, Pitch_bend_c, 3, 3968
3, 308722, Pitch_bend_c, 3, 4096
3, 308724, Pitch_bend_c, 3, 4224
3, 308726, Pitch_bend_c, 3, 4352
3, 308728, Pitch_bend_c, 3, 4480
3, 308730, Pitch_bend_c, 3, 4608
3, 308732, Pitch_bend_c, 3, 4736
3, 308734, Pitch_bend_c, 3, 4864
3, 308736, Pitch_bend_c, 3, 4992
3, 308738, Pitch_bend_c, 3, 5120
3, 308740, Pitch_bend_c, 3, 5248
3, 308742, Pitch_bend_c, 3, 5376
3, 308744, Pitch_bend_c, 3, 5504
3, 308746, Pitch_bend_c, 3, 5632
3, 308748, Pitch_bend_c, 3, 5760
3, 308750, Pitch_bend_c, 3, 5888
3, 308752, Pitch_bend_c, 3, 6016
3, 308754, Pitch_bend_c, 3, 6144
3, 308756, Pitch_bend_c, 3, 6272
3, 308758, Pitch_bend_c, 3, 6400
3, 308760, Pitch_bend_c, 3, 6528
3, 308762, Pitch_bend_c, 3, 6656
3, 308764, Pitch_bend_c, 3, 6784
3, 308766, Pitch_bend_c, 3, 6912
3, 308768, Pitch_bend_c, 3, 7040
3, 308770, Pitch_bend_c, 3, 7168
3, 308772, Pitch_bend_c, 3, 7296
3, 308774, Pitch_bend_c, 3, 7424
3, 308776, Pitch_bend_c, 3, 7552
3, 308778, Pitch_bend_c, 3, 7680
3, 308780, Pitch_bend_c, 3, 7808
3, 308782, Pitch_bend_c, 3, 7936
3, 308784, Pitch_bend_c, 3, 8064
3, 308786, Pitch_bend_c, 3, 8192
3, 308800, Pitch_bend_c, 3, 8192
3, 308800, Pitch_bend_c, 3, 8192
3, 308800, Note_off_c, 3, 61, 95
3, 308800, Note_on_c, 2, 59, 95
3, 308960, Note_off_c, 2, 59, 95
3, 308960, Note_on_c, 2, 54, 95
3, 309120, Note_off_c, 2, 54, 95
3, 309120, Note_on_c, 2, 61, 95
3, 309280, Note_off_c, 2, 61, 95
3, 309280, Pitch_bend_c, 3, 8192
3, 309280, Note_on_c, 3, 59, 95
3, 309281, Pitch_bend_c, 3, 8064
3, 309282, Pitch_bend_c, 3, 7936
3, 309283, Pitch_bend_c, 3, 7808
3, 309284, Pitch_bend_c, 3, 7680
3, 309285, Pitch_bend_c, 3, 7552
3, 309286, Pitch_bend_c, 3, 7424
3, 309287, Pitch_bend_c, 3, 7296
3, 309288, Pitch_bend_c, 3, 7168
3, 309289, Pitch_bend_c, 3, 7040
3, 309290, Pitch_bend_c, 3, 6912
3, 309291, Pitch_bend_c, 3, 6784
3, 309292, Pitch_bend_c, 3, 6656
3, 309293, Pitch_bend_c, 3, 6528
3, 309294, Pitch_bend_c, 3, 6400
3, 309295, Pitch_bend_c, 3, 6272
3, 309296, Pitch_bend_c, 3, 6144
3, 309297, Pitch_bend_c, 3, 6016
3, 309298, Pitch_bend_c, 3, 5888
3, 309299, Pitch_bend_c, 3, 5760
3, 309300, Pitch_bend_c, 3, 5632
3, 309301, Pitch_bend_c, 3, 5504
3, 309302, Pitch_bend_c, 3, 5376
3, 309303, Pitch_bend_c, 3, 5248
3, 309304, Pitch_bend_c, 3, 5120
3, 309305, Pitch_bend_c, 3, 4992
3, 309306, Pitch_bend_c, 3, 4864
3, 309307, Pitch_bend_c, 3, 4736
3, 309308, Pitch_bend_c, 3, 4608
3, 309309, Pitch_bend_c, 3, 4480
3, 309310, Pitch_bend_c, 3, 4352
3, 309311, Pitch_bend_c, 3, 4224
3, 309312, Pitch_bend_c, 3, 4096
3, 309313, Pitch_bend_c, 3, 3968
3, 309314, Pitch_bend_c, 3, 3840
3, 309315, Pitch_bend_c, 3, 3712
3, 309316, Pitch_bend_c, 3, 3584
3, 309317, Pitch_bend_c, 3, 3456
3, 309318, Pitch_bend_c, 3, 3328
3, 309319, Pitch_bend_c, 3, 3200
3, 309320, Pitch_bend_c, 3, 3072
3, 309321, Pitch_bend_c, 3, 2944
3, 309322, Pitch_bend_c, 3, 2816
3, 309323, Pitch_bend_c, 3, 2688
3, 309324, Pitch_bend_c, 3, 2560
3, 309325, Pitch_bend_c, 3, 2432
3, 309326, Pitch_bend_c, 3, 2304
3, 309327, Pitch_bend_c, 3, 2176
3, 309328, Pitch_bend_c, 3, 2048
3, 309329, Pitch_bend_c, 3, 1920
3, 309330, Pitch_bend_c, 3, 1792
3, 309331, Pitch_bend_c, 3, 1664
3, 309332, Pitch_bend_c, 3, 1536
3, 309333, Pitch_bend_c, 3, 1408
3, 309334, Pitch_bend_c, 3, 1280
3, 309335, Pitch_bend_c, 3, 1152
3, 309360, Pitch_bend_c, 3, 1152
3, 309361, Pitch_bend_c, 3, 1280
3, 309362, Pitch_bend_c, 3, 1408
3, 309363, Pitch_bend_c, 3, 1536
3, 309364, Pitch_bend_c, 3, 1664
3, 309365, Pitch_bend_c, 3, 1792
3, 309366, Pitch_bend_c, 3, 1920
3, 309367, Pitch_bend_c, 3, 2048
3, 309368, Pitch_bend_c, 3, 2176
3, 309369, Pitch_bend_c, 3, 2304
3, 309370, Pitch_bend_c, 3, 2432
3, 309371, Pitch_bend_c, 3, 2560
3, 309372, Pitch_bend_c, 3, 2688
3, 309373, Pitch_bend_c, 3, 2816
3, 309374, Pitch_bend_c, 3, 2944
3, 309375, Pitch_bend_c, 3, 3072
3, 309376, Pitch_bend_c, 3, 3200
3, 309377, Pitch_bend_c, 3, 3328
3, 309378, Pitch_bend_c, 3, 3456
3, 309379, Pitch_bend_c, 3, 3584
3, 309380, Pitch_bend_c, 3, 3712
3, 309381, Pitch_bend_c, 3, 3840
3, 309382, Pitch_bend_c, 3, 3968
3, 309383, Pitch_bend_c, 3, 4096
3, 309384, Pitch_bend_c, 3, 4224
3, 309385, Pitch_bend_c, 3, 4352
3, 309386, Pitch_bend_c, 3, 4480
3, 309387, Pitch_bend_c, 3, 4608
3, 309388, Pitch_bend_c, 3, 4736
3, 309389, Pitch_bend_c, 3, 4864
3, 309390, Pitch_bend_c, 3, 4992
3, 309391, Pitch_bend_c, 3, 5120
3, 309392, Pitch_bend_c, 3, 5248
3, 309393, Pitch_bend_c, 3, 5376
3, 309394, Pitch_bend_c, 3, 5504
3, 309395, Pitch_bend_c, 3, 5632
3, 309396, Pitch_bend_c, 3, 5760
3, 309397, Pitch_bend_c, 3, 5888
3, 309398, Pitch_bend_c, 3, 6016
3, 309399, Pitch_bend_c, 3, 6144
3, 309400, Pitch_bend_c, 3, 6272
3, 309401, Pitch_bend_c, 3, 6400
3, 309402, Pitch_bend_c, 3, 6528
3, 309403, Pitch_bend_c, 3, 6656
3, 309404, Pitch_bend_c, 3, 6784
3, 309405, Pitch_bend_c, 3, 6912
3, 309406, Pitch_bend_c, 3, 7040
3, 309407, Pitch_bend_c, 3, 7168
3, 309408, Pitch_bend_c, 3, 7296
3, 309409, Pitch_bend_c, 3, 7424
3, 309410, Pitch_bend_c, 3, 7552
3, 309411, Pitch_bend_c, 3, 7680
3, 309412, Pitch_bend_c, 3, 7808
3, 309413, Pitch_bend_c, 3, 7936
3, 309414, Pitch_bend_c, 3, 8064
3, 309415, Pitch_bend_c, 3, 8192
3, 309440, Pitch_bend_c, 3, 8192
3, 309440, Pitch_bend_c, 3, 8192
3, 309440, Note_off_c, 3, 59, 95
3, 309440, Note_on_c, 2, 54, 95
3, 309600, Note_off_c, 2, 54, 95
3, 309600, Note_on_c, 2, 61, 95
3, 309760, Note_off_c, 2, 61, 95
3, 309760, Pitch_bend_c, 3, 8192
3, 309760, Note_on_c, 3, 59, 95
3, 309761, Pitch_bend_c, 3, 8064
3, 309762, Pitch_bend_c, 3, 7936
3, 309763, Pitch_bend_c, 3, 7808
3, 309764, Pitch_bend_c, 3, 7680
3, 309765, Pitch_bend_c, 3, 7552
3, 309766, Pitch_bend_c, 3, 7424
3, 309767, Pitch_bend_c, 3, 7296
3, 309768, Pitch_bend_c, 3, 7168
3, 309769, Pitch_bend_c, 3, 7040
3, 309770, Pitch_bend_c, 3, 6912
3, 309771, Pitch_bend_c, 3, 6784
3, 309772, Pitch_bend_c, 3, 6656
3, 309773, Pitch_bend_c, 3, 6528
3, 309774, Pitch_bend_c, 3, 6400
3, 309775, Pitch_bend_c, 3, 6272
3, 309776, Pitch_bend_c, 3, 6144
3, 309777, Pitch_bend_c, 3, 6016
3, 309778, Pitch_bend_c, 3, 5888
3, 309779, Pitch_bend_c, 3, 5760
3, 309780, Pitch_bend_c, 3, 5632
3, 309781, Pitch_bend_c, 3, 5504
3, 309782, Pitch_bend_c, 3, 5376
3, 309783, Pitch_bend_c, 3, 5248
3, 309784, Pitch_bend_c, 3, 5120
3, 309785, Pitch_bend_c, 3, 4992
3, 309786, Pitch_bend_c, 3, 4864
3, 309787, Pitch_bend_c, 3, 4736
3, 309788, Pitch_bend_c, 3, 4608
3, 309789, Pitch_bend_c, 3, 4480
3, 309790, Pitch_bend_c, 3, 4352
3, 309791, Pitch_bend_c, 3, 4224
3, 309792, Pitch_bend_c, 3, 4096
3, 309793, Pitch_bend_c, 3, 3968
3, 309794, Pitch_bend_c, 3, 3840
3, 309795, Pitch_bend_c, 3, 3712
3, 309796, Pitch_bend_c, 3, 3584
3, 309797, Pitch_bend_c, 3, 3456
3, 309798, Pitch_bend_c, 3, 3328
3, 309799, Pitch_bend_c, 3, 3200
3, 309800, Pitch_bend_c, 3, 3072
3, 309801, Pitch_bend_c, 3, 2944
3, 309802, Pitch_bend_c, 3, 2816
3, 309803, Pitch_bend_c, 3, 2688
3, 309804, Pitch_bend_c, 3, 2560
3, 309805, Pitch_bend_c, 3, 2432
3, 309806, Pitch_bend_c, 3, 2304
3, 309807, Pitch_bend_c, 3, 2176
3, 309808, Pitch_bend_c, 3, 2048
3, 309809, Pitch_bend_c, 3, 1920
3, 309810, Pitch_bend_c, 3, 1792
3, 309811, Pitch_bend_c, 3, 1664
3, 309812, Pitch_bend_c, 3, 1536
3, 309813, Pitch_bend_c, 3, 1408
3, 309814, Pitch_bend_c, 3, 1280
3, 309815, Pitch_bend_c, 3, 1152
3, 309840, Pitch_bend_c, 3, 1152
3, 309841, Pitch_bend_c, 3, 1280
3, 309842, Pitch_bend_c, 3, 1408
3, 309843, Pitch_bend_c, 3, 1536
3, 309844, Pitch_bend_c, 3, 1664
3, 309845, Pitch_bend_c, 3, 1792
3, 309846, Pitch_bend_c, 3, 1920
3, 309847, Pitch_bend_c, 3, 2048
3, 309848, Pitch_bend_c, 3, 2176
3, 309849, Pitch_bend_c, 3, 2304
3, 309850, Pitch_bend_c, 3, 2432
3, 309851, Pitch_bend_c, 3, 2560
3, 309852, Pitch_bend_c, 3, 2688
3, 309853, Pitch_bend_c, 3, 2816
3, 309854, Pitch_bend_c, 3, 2944
3, 309855, Pitch_bend_c, 3, 3072
3, 309856, Pitch_bend_c, 3, 3200
3, 309857, Pitch_bend_c, 3, 3328
3, 309858, Pitch_bend_c, 3, 3456
3, 309859, Pitch_bend_c, 3, 3584
3, 309860, Pitch_bend_c, 3, 3712
3, 309861, Pitch_bend_c, 3, 3840
3, 309862, Pitch_bend_c, 3, 3968
3, 309863, Pitch_bend_c, 3, 4096
3, 309864, Pitch_bend_c, 3, 4224
3, 309865, Pitch_bend_c, 3, 4352
3, 309866, Pitch_bend_c, 3, 4480
3, 309867, Pitch_bend_c, 3, 4608
3, 309868, Pitch_bend_c, 3, 4736
3, 309869, Pitch_bend_c, 3, 4864
3, 309870, Pitch_bend_c, 3, 4992
3, 309871, Pitch_bend_c, 3, 5120
3, 309872, Pitch_bend_c, 3, 5248
3, 309873, Pitch_bend_c, 3, 5376
3, 309874, Pitch_bend_c, 3, 5504
3, 309875, Pitch_bend_c, 3, 5632
3, 309876, Pitch_bend_c, 3, 5760
3, 309877, Pitch_bend_c, 3, 5888
3, 309878, Pitch_bend_c, 3, 6016
3, 309879, Pitch_bend_c, 3, 6144
3, 309880, Pitch_bend_c, 3, 6272
3, 309881, Pitch_bend_c, 3, 6400
3, 309882, Pitch_bend_c, 3, 6528
3, 309883, Pitch_bend_c, 3, 6656
3, 309884, Pitch_bend_c, 3, 6784
3, 309885, Pitch_bend_c, 3, 6912
3, 309886, Pitch_bend_c, 3, 7040
3, 309887, Pitch_bend_c, 3, 7168
3, 309888, Pitch_bend_c, 3, 7296
3, 309889, Pitch_bend_c, 3, 7424
3, 309890, Pitch_bend_c, 3, 7552
3, 309891, Pitch_bend_c, 3, 7680
3, 309892, Pitch_bend_c, 3, 7808
3, 309893, Pitch_bend_c, 3, 7936
3, 309894, Pitch_bend_c, 3, 8064
3, 309895, Pitch_bend_c, 3, 8192
3, 309920, Pitch_bend_c, 3, 8192
3, 309920, Pitch_bend_c, 3, 8192
3, 309920, Note_off_c, 3, 59, 95
3, 309920, Note_on_c, 2, 54, 95
3, 310080, Note_off_c, 2, 54, 95
3, 310080, Note_on_c, 2, 61, 95
3, 310240, Note_off_c, 2, 61, 95
3, 310240, Note_on_c, 2, 59, 95
3, 310400, Note_off_c, 2, 59, 95
3, 310400, Pitch_bend_c, 3, 8192
3, 310400, Note_on_c, 3, 54, 95
3, 310402, Pitch_bend_c, 3, 8064
3, 310404, Pitch_bend_c, 3, 7936
3, 310406, Pitch_bend_c, 3, 7808
3, 310408, Pitch_bend_c, 3, 7680
3, 310410, Pitch_bend_c, 3, 7552
3, 310412, Pitch_bend_c, 3, 7424
3, 310414, Pitch_bend_c, 3, 7296
3, 310416, Pitch_bend_c, 3, 7168
3, 310418, Pitch_bend_c, 3, 7040
3, 310420, Pitch_bend_c, 3, 6912
3, 310422, Pitch_bend_c, 3, 6784
3, 310424, Pitch_bend_c, 3, 6656
3, 310426, Pitch_bend_c, 3, 6528
3, 310428, Pitch_bend_c, 3, 6400
3, 310430, Pitch_bend_c, 3, 6272
3, 310432, Pitch_bend_c, 3, 6144
3, 310434, Pitch_bend_c, 3, 6016
3, 310436, Pitch_bend_c, 3, 5888
3, 310438, Pitch_bend_c, 3, 5760
3, 310440, Pitch_bend_c, 3, 5632
3, 310442, Pitch_bend_c, 3, 5504
3, 310444, Pitch_bend_c, 3, 5376
3, 310446, Pitch_bend_c, 3, 5248
3, 310448, Pitch_bend_c, 3, 5120
3, 310450, Pitch_bend_c, 3, 4992
3, 310452, Pitch_bend_c, 3, 4864
3, 310454, Pitch_bend_c, 3, 4736
3, 310456, Pitch_bend_c, 3, 4608
3, 310458, Pitch_bend_c, 3, 4480
3, 310460, Pitch_bend_c, 3, 4352
3, 310462, Pitch_bend_c, 3, 4224
3, 310464, Pitch_bend_c, 3, 4096
3, 310466, Pitch_bend_c, 3, 3968
3, 310480, Pitch_bend_c, 3, 3968
3, 310482, Pitch_bend_c, 3, 4096
3, 310484, Pitch_bend_c, 3, 4224
3, 310486, Pitch_bend_c, 3, 4352
3, 310488, Pitch_bend_c, 3, 4480
3, 310490, Pitch_bend_c, 3, 4608
3, 310492, Pitch_bend_c, 3, 4736
3, 310494, Pitch_bend_c, 3, 4864
3, 310496, Pitch_bend_c, 3, 4992
3, 310498, Pitch_bend_c, 3, 5120
3, 310500, Pitch_bend_c, 3, 5248
3, 310502, Pitch_bend_c, 3, 5376
3, 310504, Pitch_bend_c, 3, 5504
3, 310506, Pitch_bend_c, 3, 5632
3, 310508, Pitch_bend_c, 3, 5760
3, 310510, Pitch_bend_c, 3, 5888
3, 310512, Pitch_bend_c, 3, 6016
3, 310514, Pitch_bend_c, 3, 6144
3, 310516, Pitch_bend_c, 3, 6272
3, 310518, Pitch_bend_c, 3, 6400
3, 310520, Pitch_bend_c, 3, 6528
3, 310522, Pitch_bend_c, 3, 6656
3, 310524, Pitch_bend_c, 3, 6784
3, 310526, Pitch_bend_c, 3, 6912
3, 310528, Pitch_bend_c, 3, 7040
3, 310530, Pitch_bend_c, 3, 7168
3, 310532, Pitch_bend_c, 3, 7296
3, 310534, Pitch_bend_c, 3, 7424
3, 310536, Pitch_bend_c, 3, 7552
3, 310538, Pitch_bend_c, 3, 7680
3, 310540, Pitch_bend_c, 3, 7808
3, 310542, Pitch_bend_c, 3, 7936
3, 310544, Pitch_bend_c, 3, 8064
3, 310546, Pitch_bend_c, 3, 8192
3, 310560, Pitch_bend_c, 3, 8192
3, 310560, Pitch_bend_c, 3, 8192
3, 310560, Note_off_c, 3, 54, 95
3, 310560, Pitch_bend_c, 3, 8192
3, 310560, Note_on_c, 3, 61, 95
3, 310561, Pitch_bend_c, 3, 8064
3, 310562, Pitch_bend_c, 3, 7936
3, 310563, Pitch_bend_c, 3, 7808
3, 310564, Pitch_bend_c, 3, 7680
3, 310565, Pitch_bend_c, 3, 7552
3, 310566, Pitch_bend_c, 3, 7424
3, 310567, Pitch_bend_c, 3, 7296
3, 310568, Pitch_bend_c, 3, 7168
3, 310569, Pitch_bend_c, 3, 7040
3, 310570, Pitch_bend_c, 3, 6912
3, 310571, Pitch_bend_c, 3, 6784
3, 310572, Pitch_bend_c, 3, 6656
3, 310573, Pitch_bend_c, 3, 6528
3, 310574, Pitch_bend_c, 3, 6400
3, 310575, Pitch_bend_c, 3, 6272
3, 310576, Pitch_bend_c, 3, 6144
3, 310577, Pitch_bend_c, 3, 6016
3, 310578, Pitch_bend_c, 3, 5888
3, 310579, Pitch_bend_c, 3, 5760
3, 310580, Pitch_bend_c, 3, 5632
3, 310581, Pitch_bend_c, 3, 5504
3, 310582, Pitch_bend_c, 3, 5376
3, 310583, Pitch_bend_c, 3, 5248
3, 310584, Pitch_bend_c, 3, 5120
3, 310585, Pitch_bend_c, 3, 4992
3, 310586, Pitch_bend_c, 3, 4864
3, 310587, Pitch_bend_c, 3, 4736
3, 310588, Pitch_bend_c, 3, 4608
3, 310589, Pitch_bend_c, 3, 4480
3, 310590, Pitch_bend_c, 3, 4352
3, 310591, Pitch_bend_c, 3, 4224
3, 310592, Pitch_bend_c, 3, 4096
3, 310593, Pitch_bend_c, 3, 3968
3, 310594, Pitch_bend_c, 3, 3840
3, 310595, Pitch_bend_c, 3, 3712
3, 310596, Pitch_bend_c, 3, 3584
3, 310597, Pitch_bend_c, 3, 3456
3, 310598, Pitch_bend_c, 3, 3328
3, 310599, Pitch_bend_c, 3, 3200
3, 310600, Pitch_bend_c, 3, 3072
3, 310601, Pitch_bend_c, 3, 2944
3, 310602, Pitch_bend_c, 3, 2816
3, 310603, Pitch_bend_c, 3, 2688
3, 310604, Pitch_bend_c, 3, 2560
3, 310605, Pitch_bend_c, 3, 2432
3, 310606, Pitch_bend_c, 3, 2304
3, 310607, Pitch_bend_c, 3, 2176
3, 310608, Pitch_bend_c, 3, 2048
3, 310609, Pitch_bend_c, 3, 1920
3, 310610, Pitch_bend_c, 3, 1792
3, 310611, Pitch_bend_c, 3, 1664
3, 310612, Pitch_bend_c, 3, 1536
3, 310613, Pitch_bend_c, 3, 1408
3, 310614, Pitch_bend_c, 3, 1280
3, 310615, Pitch_bend_c, 3, 1152
3, 310640, Pitch_bend_c, 3, 1152
3, 310641, Pitch_bend_c, 3, 1280
3, 310642, Pitch_bend_c, 3, 1408
3, 310643, Pitch_bend_c, 3, 1536
3, 310644, Pitch_bend_c, 3, 1664
3, 310645, Pitch_bend_c, 3, 1792
3, 310646, Pitch_bend_c, 3, 1920
3, 310647, Pitch_bend_c, 3, 2048
3, 310648, Pitch_bend_c, 3, 2176
3, 310649, Pitch_bend_c, 3, 2304
3, 310650, Pitch_bend_c, 3, 2432
3, 310651, Pitch_bend_c, 3, 2560
3, 310652, Pitch_bend_c, 3, 2688
3, 310653, Pitch_bend_c, 3, 2816
3, 310654, Pitch_bend_c, 3, 2944
3, 310655, Pitch_bend_c, 3, 3072
3, 310656, Pitch_bend_c, 3, 3200
3, 310657, Pitch_bend_c, 3, 3328
3, 310658, Pitch_bend_c, 3, 3456
3, 310659, Pitch_bend_c, 3, 3584
3, 310660, Pitch_bend_c, 3, 3712
3, 310661, Pitch_bend_c, 3, 3840
3, 310662, Pitch_bend_c, 3, 3968
3, 310663, Pitch_bend_c, 3, 4096
3, 310664, Pitch_bend_c, 3, 4224
3, 310665, Pitch_bend_c, 3, 4352
3, 310666, Pitch_bend_c, 3, 4480
3, 310667, Pitch_bend_c, 3, 4608
3, 310668, Pitch_bend_c, 3, 4736
3, 310669, Pitch_bend_c, 3, 4864
3, 310670, Pitch_bend_c, 3, 4992
3, 310671, Pitch_bend_c, 3, 5120
3, 310672, Pitch_bend_c, 3, 5248
3, 310673, Pitch_bend_c, 3, 5376
3, 310674, Pitch_bend_c, 3, 5504
3, 310675, Pitch_bend_c, 3, 5632
3, 310676, Pitch_bend_c, 3, 5760
3, 310677, Pitch_bend_c, 3, 5888
3, 310678, Pitch_bend_c, 3, 6016
3, 310679, Pitch_bend_c, 3, 6144
3, 310680, Pitch_bend_c, 3, 6272
3, 310681, Pitch_bend_c, 3, 6400
3, 310682, Pitch_bend_c, 3, 6528
3, 310683, Pitch_bend_c, 3, 6656
3, 310684, Pitch_bend_c, 3, 6784
3, 310685, Pitch_bend_c, 3, 6912
3, 310686, Pitch_bend_c, 3, 7040
3, 310687, Pitch_bend_c, 3, 7168
3, 310688, Pitch_bend_c, 3, 7296
3, 310689, Pitch_bend_c, 3, 7424
3, 310690, Pitch_bend_c, 3, 7552
3, 310691, Pitch_bend_c, 3, 7680
3, 310692, Pitch_bend_c, 3, 7808
3, 310693, Pitch_bend_c, 3, 7936
3, 310694, Pitch_bend_c, 3, 8064
3, 310695, Pitch_bend_c, 3, 8192
3, 310720, Pitch_bend_c, 3, 8192
3, 310720, Pitch_bend_c, 3, 8192
3, 310720, Note_off_c, 3, 61, 95
3, 310720, Pitch_bend_c, 3, 8192
3, 310720, Note_on_c, 3, 59, 95
3, 310721, Pitch_bend_c, 3, 8064
3, 310722, Pitch_bend_c, 3, 7936
3, 310723, Pitch_bend_c, 3, 7808
3, 310724, Pitch_bend_c, 3, 7680
3, 310725, Pitch_bend_c, 3, 7552
3, 310726, Pitch_bend_c, 3, 7424
3, 310727, Pitch_bend_c, 3, 7296
3, 310728, Pitch_bend_c, 3, 7168
3, 310729, Pitch_bend_c, 3, 7040
3, 310730, Pitch_bend_c, 3, 6912
3, 310731, Pitch_bend_c, 3, 6784
3, 310732, Pitch_bend_c, 3, 6656
3, 310733, Pitch_bend_c, 3, 6528
3, 310734, Pitch_bend_c, 3, 6400
3, 310735, Pitch_bend_c, 3, 6272
3, 310736, Pitch_bend_c, 3, 6144
3, 310737, Pitch_bend_c, 3, 6016
3, 310738, Pitch_bend_c, 3, 5888
3, 310739, Pitch_bend_c, 3, 5760
3, 310740, Pitch_bend_c, 3, 5632
3, 310741, Pitch_bend_c, 3, 5504
3, 310742, Pitch_bend_c, 3, 5376
3, 310743, Pitch_bend_c, 3, 5248
3, 310744, Pitch_bend_c, 3, 5120
3, 310745, Pitch_bend_c, 3, 4992
3, 310746, Pitch_bend_c, 3, 4864
3, 310747, Pitch_bend_c, 3, 4736
3, 310748, Pitch_bend_c, 3, 4608
3, 310749, Pitch_bend_c, 3, 4480
3, 310750, Pitch_bend_c, 3, 4352
3, 310751, Pitch_bend_c, 3, 4224
3, 310752, Pitch_bend_c, 3, 4096
3, 310753, Pitch_bend_c, 3, 3968
3, 310754, Pitch_bend_c, 3, 3840
3, 310755, Pitch_bend_c, 3, 3712
3, 310756, Pitch_bend_c, 3, 3584
3, 310757, Pitch_bend_c, 3, 3456
3, 310758, Pitch_bend_c, 3, 3328
3, 310759, Pitch_bend_c, 3, 3200
3, 310760, Pitch_bend_c, 3, 3072
3, 310761, Pitch_bend_c, 3, 2944
3, 310762, Pitch_bend_c, 3, 2816
3, 310763, Pitch_bend_c, 3, 2688
3, 310764, Pitch_bend_c, 3, 2560
3, 310765, Pitch_bend_c, 3, 2432
3, 310766, Pitch_bend_c, 3, 2304
3, 310767, Pitch_bend_c, 3, 2176
3, 310768, Pitch_bend_c, 3, 2048
3, 310769, Pitch_bend_c, 3, 1920
3, 310770, Pitch_bend_c, 3, 1792
3, 310771, Pitch_bend_c, 3, 1664
3, 310772, Pitch_bend_c, 3, 1536
3, 310773, Pitch_bend_c, 3, 1408
3, 310774, Pitch_bend_c, 3, 1280
3, 310775, Pitch_bend_c, 3, 1152
3, 310800, Pitch_bend_c, 3, 1152
3, 310801, Pitch_bend_c, 3, 1280
3, 310802, Pitch_bend_c, 3, 1408
3, 310803, Pitch_bend_c, 3, 1536
3, 310804, Pitch_bend_c, 3, 1664
3, 310805, Pitch_bend_c, 3, 1792
3, 310806, Pitch_bend_c, 3, 1920
3, 310807, Pitch_bend_c, 3, 2048
3, 310808, Pitch_bend_c, 3, 2176
3, 310809, Pitch_bend_c, 3, 2304
3, 310810, Pitch_bend_c, 3, 2432
3, 310811, Pitch_bend_c, 3, 2560
3, 310812, Pitch_bend_c, 3, 2688
3, 310813, Pitch_bend_c, 3, 2816
3, 310814, Pitch_bend_c, 3, 2944
3, 310815, Pitch_bend_c, 3, 3072
3, 310816, Pitch_bend_c, 3, 3200
3, 310817, Pitch_bend_c, 3, 3328
3, 310818, Pitch_bend_c, 3, 3456
3, 310819, Pitch_bend_c, 3, 3584
3, 310820, Pitch_bend_c, 3, 3712
3, 310821, Pitch_bend_c, 3, 3840
3, 310822, Pitch_bend_c, 3, 3968
3, 310823, Pitch_bend_c, 3, 4096
3, 310824, Pitch_bend_c, 3, 4224
3, 310825, Pitch_bend_c, 3, 4352
3, 310826, Pitch_bend_c, 3, 4480
3, 310827, Pitch_bend_c, 3, 4608
3, 310828, Pitch_bend_c, 3, 4736
3, 310829, Pitch_bend_c, 3, 4864
3, 310830, Pitch_bend_c, 3, 4992
3, 310831, Pitch_bend_c, 3, 5120
3, 310832, Pitch_bend_c, 3, 5248
3, 310833, Pitch_bend_c, 3, 5376
3, 310834, Pitch_bend_c, 3, 5504
3, 310835, Pitch_bend_c, 3, 5632
3, 310836, Pitch_bend_c, 3, 5760
3, 310837, Pitch_bend_c, 3, 5888
3, 310838, Pitch_bend_c, 3, 6016
3, 310839, Pitch_bend_c, 3, 6144
3, 310840, Pitch_bend_c, 3, 6272
3, 310841, Pitch_bend_c, 3, 6400
3, 310842, Pitch_bend_c, 3, 6528
3, 310843, Pitch_bend_c, 3, 6656
3, 310844, Pitch_bend_c, 3, 6784
3, 310845, Pitch_bend_c, 3, 6912
3, 310846, Pitch_bend_c, 3, 7040
3, 310847, Pitch_bend_c, 3, 7168
3, 310848, Pitch_bend_c, 3, 7296
3, 310849, Pitch_bend_c, 3, 7424
3, 310850, Pitch_bend_c, 3, 7552
3, 310851, Pitch_bend_c, 3, 7680
3, 310852, Pitch_bend_c, 3, 7808
3, 310853, Pitch_bend_c, 3, 7936
3, 310854, Pitch_bend_c, 3, 8064
3, 310855, Pitch_bend_c, 3, 8192
3, 310880, Pitch_bend_c, 3, 8192
3, 310880, Pitch_bend_c, 3, 8192
3, 310880, Note_off_c, 3, 59, 95
3, 310880, Pitch_bend_c, 3, 8192
3, 310880, Note_on_c, 3, 54, 95
3, 310881, Pitch_bend_c, 3, 8064
3, 310882, Pitch_bend_c, 3, 7936
3, 310883, Pitch_bend_c, 3, 7808
3, 310884, Pitch_bend_c, 3, 7680
3, 310885, Pitch_bend_c, 3, 7552
3, 310886, Pitch_bend_c, 3, 7424
3, 310887, Pitch_bend_c, 3, 7296
3, 310888, Pitch_bend_c, 3, 7168
3, 310889, Pitch_bend_c, 3, 7040
3, 310890, Pitch_bend_c, 3, 6912
3, 310891, Pitch_bend_c, 3, 6784
3, 310892, Pitch_bend_c, 3, 6656
3, 310893, Pitch_bend_c, 3, 6528
3, 310894, Pitch_bend_c, 3, 6400
3, 310895, Pitch_bend_c, 3, 6272
3, 310896, Pitch_bend_c, 3, 6144
3, 310897, Pitch_bend_c, 3, 6016
3, 310898, Pitch_bend_c, 3, 5888
3, 310899, Pitch_bend_c, 3, 5760
3, 310900, Pitch_bend_c, 3, 5632
3, 310901, Pitch_bend_c, 3, 5504
3, 310902, Pitch_bend_c, 3, 5376
3, 310903, Pitch_bend_c, 3, 5248
3, 310904, Pitch_bend_c, 3, 5120
3, 310905, Pitch_bend_c, 3, 4992
3, 310906, Pitch_bend_c, 3, 4864
3, 310907, Pitch_bend_c, 3, 4736
3, 310908, Pitch_bend_c, 3, 4608
3, 310909, Pitch_bend_c, 3, 4480
3, 310910, Pitch_bend_c, 3, 4352
3, 310911, Pitch_bend_c, 3, 4224
3, 310912, Pitch_bend_c, 3, 4096
3, 310913, Pitch_bend_c, 3, 3968
3, 310914, Pitch_bend_c, 3, 3840
3, 310915, Pitch_bend_c, 3, 3712
3, 310916, Pitch_bend_c, 3, 3584
3, 310917, Pitch_bend_c, 3, 3456
3, 310918, Pitch_bend_c, 3, 3328
3, 310919, Pitch_bend_c, 3, 3200
3, 310920, Pitch_bend_c, 3, 3072
3, 310921, Pitch_bend_c, 3, 2944
3, 310922, Pitch_bend_c, 3, 2816
3, 310923, Pitch_bend_c, 3, 2688
3, 310924, Pitch_bend_c, 3, 2560
3, 310925, Pitch_bend_c, 3, 2432
3, 310926, Pitch_bend_c, 3, 2304
3, 310927, Pitch_bend_c, 3, 2176
3, 310928, Pitch_bend_c, 3, 2048
3, 310929, Pitch_bend_c, 3, 1920
3, 310930, Pitch_bend_c, 3, 1792
3, 310931, Pitch_bend_c, 3, 1664
3, 310932, Pitch_bend_c, 3, 1536
3, 310933, Pitch_bend_c, 3, 1408
3, 310934, Pitch_bend_c, 3, 1280
3, 310935, Pitch_bend_c, 3, 1152
3, 310960, Pitch_bend_c, 3, 1152
3, 310961, Pitch_bend_c, 3, 1280
3, 310962, Pitch_bend_c, 3, 1408
3, 310963, Pitch_bend_c, 3, 1536
3, 310964, Pitch_bend_c, 3, 1664
3, 310965, Pitch_bend_c, 3, 1792
3, 310966, Pitch_bend_c, 3, 1920
3, 310967, Pitch_bend_c, 3, 2048
3, 310968, Pitch_bend_c, 3, 2176
3, 310969, Pitch_bend_c, 3, 2304
3, 310970, Pitch_bend_c, 3, 2432
3, 310971, Pitch_bend_c, 3, 2560
3, 310972, Pitch_bend_c, 3, 2688
3, 310973, Pitch_bend_c, 3, 2816
3, 310974, Pitch_bend_c, 3, 2944
3, 310975, Pitch_bend_c, 3, 3072
3, 310976, Pitch_bend_c, 3, 3200
3, 310977, Pitch_bend_c, 3, 3328
3, 310978, Pitch_bend_c, 3, 3456
3, 310979, Pitch_bend_c, 3, 3584
3, 310980, Pitch_bend_c, 3, 3712
3, 310981, Pitch_bend_c, 3, 3840
3, 310982, Pitch_bend_c, 3, 3968
3, 310983, Pitch_bend_c, 3, 4096
3, 310984, Pitch_bend_c, 3, 4224
3, 310985, Pitch_bend_c, 3, 4352
3, 310986, Pitch_bend_c, 3, 4480
3, 310987, Pitch_bend_c, 3, 4608
3, 310988, Pitch_bend_c, 3, 4736
3, 310989, Pitch_bend_c, 3, 4864
3, 310990, Pitch_bend_c, 3, 4992
3, 310991, Pitch_bend_c, 3, 5120
3, 310992, Pitch_bend_c, 3, 5248
3, 310993, Pitch_bend_c, 3, 5376
3, 310994, Pitch_bend_c, 3, 5504
3, 310995, Pitch_bend_c, 3, 5632
3, 310996, Pitch_bend_c, 3, 5760
3, 310997, Pitch_bend_c, 3, 5888
3, 310998, Pitch_bend_c, 3, 6016
3, 310999, Pitch_bend_c, 3, 6144
3, 311000, Pitch_bend_c, 3, 6272
3, 311001, Pitch_bend_c, 3, 6400
3, 311002, Pitch_bend_c, 3, 6528
3, 311003, Pitch_bend_c, 3, 6656
3, 311004, Pitch_bend_c, 3, 6784
3, 311005, Pitch_bend_c, 3, 6912
3, 311006, Pitch_bend_c, 3, 7040
3, 311007, Pitch_bend_c, 3, 7168
3, 311008, Pitch_bend_c, 3, 7296
3, 311009, Pitch_bend_c, 3, 7424
3, 311010, Pitch_bend_c, 3, 7552
3, 311011, Pitch_bend_c, 3, 7680
3, 311012, Pitch_bend_c, 3, 7808
3, 311013, Pitch_bend_c, 3, 7936
3, 311014, Pitch_bend_c, 3, 8064
3, 311015, Pitch_bend_c, 3, 8192
3, 311040, Pitch_bend_c, 3, 8192
3, 311040, Pitch_bend_c, 3, 8192
3, 311040, Note_off_c, 3, 54, 95
3, 311040, Pitch_bend_c, 3, 8192
3, 311040, Note_on_c, 3, 54, 95
3, 311057, Pitch_bend_c, 3, 8064
3, 311074, Pitch_bend_c, 3, 7936
3, 311091, Pitch_bend_c, 3, 7808
3, 311108, Pitch_bend_c, 3, 7680
3, 311125, Pitch_bend_c, 3, 7552
3, 311142, Pitch_bend_c, 3, 7424
3, 311159, Pitch_bend_c, 3, 7296
3, 311176, Pitch_bend_c, 3, 7168
3, 311193, Pitch_bend_c, 3, 7040
3, 311210, Pitch_bend_c, 3, 6912
3, 311227, Pitch_bend_c, 3, 6784
3, 311244, Pitch_bend_c, 3, 6656
3, 311261, Pitch_bend_c, 3, 6528
3, 311278, Pitch_bend_c, 3, 6400
3, 311295, Pitch_bend_c, 3, 6272
3, 311312, Pitch_bend_c, 3, 6144
3, 311329, Pitch_bend_c, 3, 6016
3, 311346, Pitch_bend_c, 3, 5888
3, 311363, Pitch_bend_c, 3, 5760
3, 311380, Pitch_bend_c, 3, 5632
3, 311397, Pitch_bend_c, 3, 5504
3, 311414, Pitch_bend_c, 3, 5376
3, 311431, Pitch_bend_c, 3, 5248
3, 311448, Pitch_bend_c, 3, 5120
3, 311465, Pitch_bend_c, 3, 4992
3, 311482, Pitch_bend_c, 3, 4864
3, 311499, Pitch_bend_c, 3, 4736
3, 311516, Pitch_bend_c, 3, 4608
3, 311533, Pitch_bend_c, 3, 4480
3, 311550, Pitch_bend_c, 3, 4352
3, 311567, Pitch_bend_c, 3, 4224
3, 311584, Pitch_bend_c, 3, 4096
3, 311601, Pitch_bend_c, 3, 3968
3, 311618, Pitch_bend_c, 3, 3840
3, 311635, Pitch_bend_c, 3, 3712
3, 311652, Pitch_bend_c, 3, 3584
3, 311669, Pitch_bend_c, 3, 3456
3, 311686, Pitch_bend_c, 3, 3328
3, 311703, Pitch_bend_c, 3, 3200
3, 311720, Pitch_bend_c, 3, 3072
3, 311737, Pitch_bend_c, 3, 2944
3, 311754, Pitch_bend_c, 3, 2816
3, 311771, Pitch_bend_c, 3, 2688
3, 311788, Pitch_bend_c, 3, 2560
3, 311805, Pitch_bend_c, 3, 2432
3, 311822, Pitch_bend_c, 3, 2304
3, 311839, Pitch_bend_c, 3, 2176
3, 311856, Pitch_bend_c, 3, 2048
3, 311873, Pitch_bend_c, 3, 1920
3, 311890, Pitch_bend_c, 3, 1792
3, 311907, Pitch_bend_c, 3, 1664
3, 311924, Pitch_bend_c, 3, 1536
3, 311941, Pitch_bend_c, 3, 1408
3, 311958, Pitch_bend_c, 3, 1280
3, 311975, Pitch_bend_c, 3, 1152
3, 312000, Pitch_bend_c, 3, 1152
3, 312017, Pitch_bend_c, 3, 1280
3, 312034, Pitch_bend_c, 3, 1408
3, 312051, Pitch_bend_c, 3, 1536
3, 312068, Pitch_bend_c, 3, 1664
3, 312085, Pitch_bend_c, 3, 1792
3, 312102, Pitch_bend_c, 3, 1920
3, 312119, Pitch_bend_c, 3, 2048
3, 312136, Pitch_bend_c, 3, 2176
3, 312153, Pitch_bend_c, 3, 2304
3, 312170, Pitch_bend_c, 3, 2432
3, 312187, Pitch_bend_c, 3, 2560
3, 312204, Pitch_bend_c, 3, 2688
3, 312221, Pitch_bend_c, 3, 2816
3, 312238, Pitch_bend_c, 3, 2944
3, 312255, Pitch_bend_c, 3, 3072
3, 312272, Pitch_bend_c, 3, 3200
3, 312289, Pitch_bend_c, 3, 3328
3, 312306, Pitch_bend_c, 3, 3456
3, 312323, Pitch_bend_c, 3, 3584
3, 312340, Pitch_bend_c, 3, 3712
3, 312357, Pitch_bend_c, 3, 3840
3, 312374, Pitch_bend_c, 3, 3968
3, 312391, Pitch_bend_c, 3, 4096
3, 312408, Pitch_bend_c, 3, 4224
3, 312425, Pitch_bend_c, 3, 4352
3, 312442, Pitch_bend_c, 3, 4480
3, 312459, Pitch_bend_c, 3, 4608
3, 312476, Pitch_bend_c, 3, 4736
3, 312493, Pitch_bend_c, 3, 4864
3, 312510, Pitch_bend_c, 3, 4992
3, 312527, Pitch_bend_c, 3, 5120
3, 312544, Pitch_bend_c, 3, 5248
3, 312561, Pitch_bend_c, 3, 5376
3, 312578, Pitch_bend_c, 3, 5504
3, 312595, Pitch_bend_c, 3, 5632
3, 312612, Pitch_bend_c, 3, 5760
3, 312629, Pitch_bend_c, 3, 5888
3, 312646, Pitch_bend_c, 3, 6016
3, 312663, Pitch_bend_c, 3, 6144
3, 312680, Pitch_bend_c, 3, 6272
3, 312697, Pitch_bend_c, 3, 6400
3, 312714, Pitch_bend_c, 3, 6528
3, 312731, Pitch_bend_c, 3, 6656
3, 312748, Pitch_bend_c, 3, 6784
3, 312765, Pitch_bend_c, 3, 6912
3, 312782, Pitch_bend_c, 3, 7040
3, 312799, Pitch_bend_c, 3, 7168
3, 312816, Pitch_bend_c, 3, 7296
3, 312833, Pitch_bend_c, 3, 7424
3, 312850, Pitch_bend_c, 3, 7552
3, 312867, Pitch_bend_c, 3, 7680
3, 312884, Pitch_bend_c, 3, 7808
3, 312901, Pitch_bend_c, 3, 7936
3, 312918, Pitch_bend_c, 3, 8064
3, 312935, Pitch_bend_c, 3, 8192
3, 312960, Pitch_bend_c, 3, 8192
3, 312960, Pitch_bend_c, 3, 8192
3, 312960, Note_off_c, 3, 54, 95
3, 312960, Pitch_bend_c, 3, 8192
3, 312960, Note_on_c, 3, 72, 95
3, 312965, Pitch_bend_c, 3, 8320
3, 312970, Pitch_bend_c, 3, 8448
3, 312975, Pitch_bend_c, 3, 8576
3, 312980, Pitch_bend_c, 3, 8704
3, 312985, Pitch_bend_c, 3, 8832
3, 312990, Pitch_bend_c, 3, 8960
3, 312995, Pitch_bend_c, 3, 9088
3, 313000, Pitch_bend_c, 3, 9216
3, 313005, Pitch_bend_c, 3, 9344
3, 313010, Pitch_bend_c, 3, 9472
3, 313015, Pitch_bend_c, 3, 9600
3, 313020, Pitch_bend_c, 3, 9600
3, 313080, Pitch_bend_c, 3, 9600
3, 313080, Pitch_bend_c, 3, 8192
3, 313080, Note_off_c, 3, 72, 95
3, 313080, Pitch_bend_c, 3, 8192
3, 313080, Note_on_c, 3, 72, 95
3, 313085, Pitch_bend_c, 3, 8320
3, 313090, Pitch_bend_c, 3, 8448
3, 313095, Pitch_bend_c, 3, 8576
3, 313100, Pitch_bend_c, 3, 8704
3, 313105, Pitch_bend_c, 3, 8832
3, 313110, Pitch_bend_c, 3, 8960
3, 313115, Pitch_bend_c, 3, 9088
3, 313120, Pitch_bend_c, 3, 9216
3, 313125, Pitch_bend_c, 3, 9344
3, 313130, Pitch_bend_c, 3, 9472
3, 313135, Pitch_bend_c, 3, 9600
3, 313140, Pitch_bend_c, 3, 9600
3, 313200, Pitch_bend_c, 3, 9600
3, 313200, Pitch_bend_c, 3, 8192
3, 313200, Note_off_c, 3, 72, 95
3, 313200, Pitch_bend_c, 3, 8192
3, 313200, Note_on_c, 3, 72, 95
3, 313205, Pitch_bend_c, 3, 8320
3, 313210, Pitch_bend_c, 3, 8448
3, 313215, Pitch_bend_c, 3, 8576
3, 313220, Pitch_bend_c, 3, 8704
3, 313225, Pitch_bend_c, 3, 8832
3, 313230, Pitch_bend_c, 3, 8960
3, 313235, Pitch_bend_c, 3, 9088
3, 313240, Pitch_bend_c, 3, 9216
3, 313245, Pitch_bend_c, 3, 9344
3, 313250, Pitch_bend_c, 3, 9472
3, 313255, Pitch_bend_c, 3, 9600
3, 313260, Pitch_bend_c, 3, 9600
3, 313320, Pitch_bend_c, 3, 9600
3, 313320, Pitch_bend_c, 3, 8192
3, 313320, Note_off_c, 3, 72, 95
3, 313320, Pitch_bend_c, 3, 8192
3, 313320, Note_on_c, 3, 72, 95
3, 313325, Pitch_bend_c, 3, 8320
3, 313330, Pitch_bend_c, 3, 8448
3, 313335, Pitch_bend_c, 3, 8576
3, 313340, Pitch_bend_c, 3, 8704
3, 313345, Pitch_bend_c, 3, 8832
3, 313350, Pitch_bend_c, 3, 8960
3, 313355, Pitch_bend_c, 3, 9088
3, 313360, Pitch_bend_c, 3, 9216
3, 313365, Pitch_bend_c, 3, 9344
3, 313370, Pitch_bend_c, 3, 9472
3, 313375, Pitch_bend_c, 3, 9600
3, 313380, Pitch_bend_c, 3, 9600
3, 313440, Pitch_bend_c, 3, 9600
3, 313440, Pitch_bend_c, 3, 8192
3, 313440, Note_off_c, 3, 72, 95
3, 313440, Pitch_bend_c, 3, 8192
3, 313440, Note_on_c, 3, 72, 95
3, 313505, Pitch_bend_c, 3, 8320
3, 313570, Pitch_bend_c, 3, 8448
3, 313635, Pitch_bend_c, 3, 8576
3, 313700, Pitch_bend_c, 3, 8704
3, 313765, Pitch_bend_c, 3, 8832
3, 313830, Pitch_bend_c, 3, 8960
3, 313895, Pitch_bend_c, 3, 9088
3, 313960, Pitch_bend_c, 3, 9216
3, 314025, Pitch_bend_c, 3, 9344
3, 314090, Pitch_bend_c, 3, 9472
3, 314155, Pitch_bend_c, 3, 9600
3, 314160, Pitch_bend_c, 3, 9600
3, 314880, Pitch_bend_c, 3, 9600
3, 314880, Pitch_bend_c, 3, 8192
3, 314880, Note_off_c, 3, 72, 95
3, 314880, Pitch_bend_c, 3, 8192
3, 314880, Note_on_c, 3, 39, 95
3, 314894, Pitch_bend_c, 3, 8064
3, 314908, Pitch_bend_c, 3, 7936
3, 314922, Pitch_bend_c, 3, 7808
3, 314936, Pitch_bend_c, 3, 7680
3, 314950, Pitch_bend_c, 3, 7552
3, 314964, Pitch_bend_c, 3, 7424
3, 314978, Pitch_bend_c, 3, 7296
3, 314992, Pitch_bend_c, 3, 7168
3, 315006, Pitch_bend_c, 3, 7040
3, 315020, Pitch_bend_c, 3, 6912
3, 315034, Pitch_bend_c, 3, 6784
3, 315048, Pitch_bend_c, 3, 6656
3, 315062, Pitch_bend_c, 3, 6528
3, 315076, Pitch_bend_c, 3, 6400
3, 315090, Pitch_bend_c, 3, 6272
3, 315104, Pitch_bend_c, 3, 6144
3, 315118, Pitch_bend_c, 3, 6016
3, 315132, Pitch_bend_c, 3, 5888
3, 315146, Pitch_bend_c, 3, 5760
3, 315160, Pitch_bend_c, 3, 5632
3, 315174, Pitch_bend_c, 3, 5504
3, 315188, Pitch_bend_c, 3, 5376
3, 315202, Pitch_bend_c, 3, 5248
3, 315216, Pitch_bend_c, 3, 5120
3, 315230, Pitch_bend_c, 3, 4992
3, 315244, Pitch_bend_c, 3, 4864
3, 315258, Pitch_bend_c, 3, 4736
3, 315272, Pitch_bend_c, 3, 4608
3, 315286, Pitch_bend_c, 3, 4480
3, 315300, Pitch_bend_c, 3, 4352
3, 315314, Pitch_bend_c, 3, 4224
3, 315328, Pitch_bend_c, 3, 4096
3, 315342, Pitch_bend_c, 3, 3968
3, 315356, Pitch_bend_c, 3, 3840
3, 315370, Pitch_bend_c, 3, 3712
3, 315384, Pitch_bend_c, 3, 3584
3, 315398, Pitch_bend_c, 3, 3456
3, 315412, Pitch_bend_c, 3, 3328
3, 315426, Pitch_bend_c, 3, 3200
3, 315440, Pitch_bend_c, 3, 3072
3, 315454, Pitch_bend_c, 3, 2944
3, 315468, Pitch_bend_c, 3, 2816
3, 315482, Pitch_bend_c, 3, 2688
3, 315496, Pitch_bend_c, 3, 2560
3, 315510, Pitch_bend_c, 3, 2432
3, 315524, Pitch_bend_c, 3, 2304
3, 315538, Pitch_bend_c, 3, 2176
3, 315552, Pitch_bend_c, 3, 2048
3, 315566, Pitch_bend_c, 3, 1920
3, 315580, Pitch_bend_c, 3, 1792
3, 315594, Pitch_bend_c, 3, 1664
3, 315608, Pitch_bend_c, 3, 1536
3, 315622, Pitch_bend_c, 3, 1408
3, 315636, Pitch_bend_c, 3, 1280
3, 315650, Pitch_bend_c, 3, 1152
3, 315664, Pitch_bend_c, 3, 1024
3, 315678, Pitch_bend_c, 3, 896
3, 315692, Pitch_bend_c, 3, 768
3, 315706, Pitch_bend_c, 3, 640
3, 315720, Pitch_bend_c, 3, 512
3, 315734, Pitch_bend_c, 3, 384
3, 315748, Pitch_bend_c, 3, 256
3, 315762, Pitch_bend_c, 3, 128
3, 315776, Pitch_bend_c, 3, 0
3, 315790, Pitch_bend_c, 3, 0
3, 315804, Pitch_bend_c, 3, 0
3, 315840, Pitch_bend_c, 3, 0
3, 315855, Pitch_bend_c, 3, 128
3, 315870, Pitch_bend_c, 3, 256
3, 315885, Pitch_bend_c, 3, 384
3, 315900, Pitch_bend_c, 3, 512
3, 315915, Pitch_bend_c, 3, 640
3, 315930, Pitch_bend_c, 3, 768
3, 315945, Pitch_bend_c, 3, 896
3, 315960, Pitch_bend_c, 3, 1024
3, 315975, Pitch_bend_c, 3, 1152
3, 315990, Pitch_bend_c, 3, 1280
3, 316005, Pitch_bend_c, 3, 1408
3, 316020, Pitch_bend_c, 3, 1536
3, 316035, Pitch_bend_c, 3, 1664
3, 316050, Pitch_bend_c, 3, 1792
3, 316065, Pitch_bend_c, 3, 1920
3, 316080, Pitch_bend_c, 3, 2048
3, 316095, Pitch_bend_c, 3, 2176
3, 316110, Pitch_bend_c, 3, 2304
3, 316125, Pitch_bend_c, 3, 2432
3, 316140, Pitch_bend_c, 3, 2560
3, 316155, Pitch_bend_c, 3, 2688
3, 316170, Pitch_bend_c, 3, 2816
3, 316185, Pitch_bend_c, 3, 2944
3, 316200, Pitch_bend_c, 3, 3072
3, 316215, Pitch_bend_c, 3, 3200
3, 316230, Pitch_bend_c, 3, 3328
3, 316245, Pitch_bend_c, 3, 3456
3, 316260, Pitch_bend_c, 3, 3584
3, 316275, Pitch_bend_c, 3, 3712
3, 316290, Pitch_bend_c, 3, 3840
3, 316305, Pitch_bend_c, 3, 3968
3, 316320, Pitch_bend_c, 3, 4096
3, 316335, Pitch_bend_c, 3, 4224
3, 316350, Pitch_bend_c, 3, 4352
3, 316365, Pitch_bend_c, 3, 4480
3, 316380, Pitch_bend_c, 3, 4608
3, 316395, Pitch_bend_c, 3, 4736
3, 316410, Pitch_bend_c, 3, 4864
3, 316425, Pitch_bend_c, 3, 4992
3, 316440, Pitch_bend_c, 3, 5120
3, 316455, Pitch_bend_c, 3, 5248
3, 316470, Pitch_bend_c, 3, 5376
3, 316485, Pitch_bend_c, 3, 5504
3, 316500, Pitch_bend_c, 3, 5632
3, 316515, Pitch_bend_c, 3, 5760
3, 316530, Pitch_bend_c, 3, 5888
3, 316545, Pitch_bend_c, 3, 6016
3, 316560, Pitch_bend_c, 3, 6144
3, 316575, Pitch_bend_c, 3, 6272
3, 316590, Pitch_bend_c, 3, 6400
3, 316605, Pitch_bend_c, 3, 6528
3, 316620, Pitch_bend_c, 3, 6656
3, 316635, Pitch_bend_c, 3, 6784
3, 316650, Pitch_bend_c, 3, 6912
3, 316665, Pitch_bend_c, 3, 7040
3, 316680, Pitch_bend_c, 3, 7168
3, 316695, Pitch_bend_c, 3, 7296
3, 316710, Pitch_bend_c, 3, 7424
3, 316725, Pitch_bend_c, 3, 7552
3, 316740, Pitch_bend_c, 3, 7680
3, 316755, Pitch_bend_c, 3, 7808
3, 316770, Pitch_bend_c, 3, 7936
3, 316785, Pitch_bend_c, 3, 8064
3, 316800, Pitch_bend_c, 3, 8192
3, 316800, Pitch_bend_c, 3, 8192
3, 316800, Pitch_bend_c, 3, 8192
3, 316800, Note_off_c, 3, 39, 95
3, 316800, Pitch_bend_c, 3, 8192
3, 316800, Note_on_c, 3, 59, 95
3, 316843, Pitch_bend_c, 3, 8064
3, 316886, Pitch_bend_c, 3, 7936
3, 316929, Pitch_bend_c, 3, 7808
3, 316972, Pitch_bend_c, 3, 7680
3, 317015, Pitch_bend_c, 3, 7552
3, 317058, Pitch_bend_c, 3, 7424
3, 317101, Pitch_bend_c, 3, 7296
3, 317144, Pitch_bend_c, 3, 7168
3, 317187, Pitch_bend_c, 3, 7040
3, 317230, Pitch_bend_c, 3, 6912
3, 317273, Pitch_bend_c, 3, 6784
3, 317316, Pitch_bend_c, 3, 6656
3, 317359, Pitch_bend_c, 3, 6528
3, 317402, Pitch_bend_c, 3, 6400
3, 317445, Pitch_bend_c, 3, 6272
3, 317488, Pitch_bend_c, 3, 6144
3, 317531, Pitch_bend_c, 3, 6016
3, 317574, Pitch_bend_c, 3, 5888
3, 317617, Pitch_bend_c, 3, 5760
3, 317660, Pitch_bend_c, 3, 5632
3, 317703, Pitch_bend_c, 3, 5504
3, 317746, Pitch_bend_c, 3, 5376
3, 317789, Pitch_bend_c, 3, 5248
3, 317832, Pitch_bend_c, 3, 5120
3, 317875, Pitch_bend_c, 3, 4992
3, 317918, Pitch_bend_c, 3, 4864
3, 317961, Pitch_bend_c, 3, 4736
3, 318004, Pitch_bend_c, 3, 4608
3, 318047, Pitch_bend_c, 3, 4480
3, 318090, Pitch_bend_c, 3, 4352
3, 318133, Pitch_bend_c, 3, 4224
3, 318176, Pitch_bend_c, 3, 4096
3, 318219, Pitch_bend_c, 3, 3968
3, 318262, Pitch_bend_c, 3, 3840
3, 318305, Pitch_bend_c, 3, 3712
3, 318348, Pitch_bend_c, 3, 3584
3, 318391, Pitch_bend_c, 3, 3456
3, 318434, Pitch_bend_c, 3, 3328
3, 318477, Pitch_bend_c, 3, 3200
3, 318520, Pitch_bend_c, 3, 3072
3, 318563, Pitch_bend_c, 3, 2944
3, 318606, Pitch_bend_c, 3, 2816
3, 318649, Pitch_bend_c, 3, 2688
3, 318692, Pitch_bend_c, 3, 2560
3, 318735, Pitch_bend_c, 3, 2432
3, 318778, Pitch_bend_c, 3, 2304
3, 318821, Pitch_bend_c, 3, 2176
3, 318864, Pitch_bend_c, 3, 2048
3, 318907, Pitch_bend_c, 3, 1920
3, 318950, Pitch_bend_c, 3, 1792
3, 318993, Pitch_bend_c, 3, 1664
3, 319036, Pitch_bend_c, 3, 1536
3, 319079, Pitch_bend_c, 3, 1408
3, 319122, Pitch_bend_c, 3, 1280
3, 319165, Pitch_bend_c, 3, 1152
3, 319208, Pitch_bend_c, 3, 1024
3, 319251, Pitch_bend_c, 3, 896
3, 319294, Pitch_bend_c, 3, 768
3, 319337, Pitch_bend_c, 3, 640
3, 319380, Pitch_bend_c, 3, 512
3, 319423, Pitch_bend_c, 3, 384
3, 319466, Pitch_bend_c, 3, 256
3, 319509, Pitch_bend_c, 3, 128
3, 319552, Pitch_bend_c, 3, 0
3, 319595, Pitch_bend_c, 3, 0
3, 319638, Pitch_bend_c, 3, 0
3, 319680, Pitch_bend_c, 3, 0
3, 319725, Pitch_bend_c, 3, 128
3, 319770, Pitch_bend_c, 3, 256
3, 319815, Pitch_bend_c, 3, 384
3, 319860, Pitch_bend_c, 3, 512
3, 319905, Pitch_bend_c, 3, 640
3, 319950, Pitch_bend_c, 3, 768
3, 319995, Pitch_bend_c, 3, 896
3, 320040, Pitch_bend_c, 3, 1024
3, 320085, Pitch_bend_c, 3, 1152
3, 320130, Pitch_bend_c, 3, 1280
3, 320175, Pitch_bend_c, 3, 1408
3, 320220, Pitch_bend_c, 3, 1536
3, 320265, Pitch_bend_c, 3, 1664
3, 320310, Pitch_bend_c, 3, 1792
3, 320355, Pitch_bend_c, 3, 1920
3, 320400, Pitch_bend_c, 3, 2048
3, 320445, Pitch_bend_c, 3, 2176
3, 320490, Pitch_bend_c, 3, 2304
3, 320535, Pitch_bend_c, 3, 2432
3, 320580, Pitch_bend_c, 3, 2560
3, 320625, Pitch_bend_c, 3, 2688
3, 320670, Pitch_bend_c, 3, 2816
3, 320715, Pitch_bend_c, 3, 2944
3, 320760, Pitch_bend_c, 3, 3072
3, 320805, Pitch_bend_c, 3, 3200
3, 320850, Pitch_bend_c, 3, 3328
3, 320895, Pitch_bend_c, 3, 3456
3, 320940, Pitch_bend_c, 3, 3584
3, 320985, Pitch_bend_c, 3, 3712
3, 321030, Pitch_bend_c, 3, 3840
3, 321075, Pitch_bend_c, 3, 3968
3, 321120, Pitch_bend_c, 3, 4096
3, 321165, Pitch_bend_c, 3, 4224
3, 321210, Pitch_bend_c, 3, 4352
3, 321255, Pitch_bend_c, 3, 4480
3, 321300, Pitch_bend_c, 3, 4608
3, 321345, Pitch_bend_c, 3, 4736
3, 321390, Pitch_bend_c, 3, 4864
3, 321435, Pitch_bend_c, 3, 4992
3, 321480, Pitch_bend_c, 3, 5120
3, 321525, Pitch_bend_c, 3, 5248
3, 321570, Pitch_bend_c, 3, 5376
3, 321615, Pitch_bend_c, 3, 5504
3, 321660, Pitch_bend_c, 3, 5632
3, 321705, Pitch_bend_c, 3, 5760
3, 321750, Pitch_bend_c, 3, 5888
3, 321795, Pitch_bend_c, 3, 6016
3, 321840, Pitch_bend_c, 3, 6144
3, 321885, Pitch_bend_c, 3, 6272
3, 321930, Pitch_bend_c, 3, 6400
3, 321975, Pitch_bend_c, 3, 6528
3, 322020, Pitch_bend_c, 3, 6656
3, 322065, Pitch_bend_c, 3, 6784
3, 322110, Pitch_bend_c, 3, 6912
3, 322155, Pitch_bend_c, 3, 7040
3, 322200, Pitch_bend_c, 3, 7168
3, 322245, Pitch_bend_c, 3, 7296
3, 322290, Pitch_bend_c, 3, 7424
3, 322335, Pitch_bend_c, 3, 7552
3, 322380, Pitch_bend_c, 3, 7680
3, 322425, Pitch_bend_c, 3, 7808
3, 322470, Pitch_bend_c, 3, 7936
3, 322515, Pitch_bend_c, 3, 8064
3, 322560, Pitch_bend_c, 3, 8192
3, 322560, Pitch_bend_c, 3, 8192
3, 322560, Pitch_bend_c, 3, 8192
3, 322560, Note_off_c, 3, 59, 95
3, 322560, Note_on_c, 2, 58, 95
3, 322615, Note_off_c, 2, 58, 95
3, 323520, Note_on_c, 2, 49, 95
3, 323520, Note_on_c, 2, 44, 95
3, 323520, Note_on_c, 2, 39, 95
3, 323575, Note_off_c, 2, 49, 95
3, 323575, Note_off_c, 2, 44, 95
3, 323575, Note_off_c, 2, 39, 95
3, 324480, Note_on_c, 2, 58, 95
3, 324535, Note_off_c, 2, 58, 95
3, 325440, Note_on_c, 2, 49, 95
3, 325440, Note_on_c, 2, 44, 95
3, 325440, Note_on_c, 2, 39, 95
3, 325495, Note_off_c, 2, 49, 95
3, 325495, Note_off_c, 2, 44, 95
3, 325495, Note_off_c, 2, 39, 95
3, 326400, Pitch_bend_c, 3, 8192
3, 326400, Note_on_c, 3, 61, 95
3, 326465, Pitch_bend_c, 3, 8320
3, 326530, Pitch_bend_c, 3, 8448
3, 326595, Pitch_bend_c, 3, 8576
3, 326660, Pitch_bend_c, 3, 8704
3, 326725, Pitch_bend_c, 3, 8832
3, 326790, Pitch_bend_c, 3, 8960
3, 326855, Pitch_bend_c, 3, 9088
3, 326920, Pitch_bend_c, 3, 9216
3, 326985, Pitch_bend_c, 3, 9344
3, 327050, Pitch_bend_c, 3, 9472
3, 327115, Pitch_bend_c, 3, 9600
3, 327120, Pitch_bend_c, 3, 9600
3, 327840, Pitch_bend_c, 3, 9600
3, 327840, Pitch_bend_c, 3, 8192
3, 327840, Note_off_c, 3, 61, 95
3, 327840, Pitch_bend_c, 3, 8192
3, 327840, Note_on_c, 3, 61, 95
3, 327843, Pitch_bend_c, 3, 8320
3, 327846, Pitch_bend_c, 3, 8448
3, 327849, Pitch_bend_c, 3, 8576
3, 327852, Pitch_bend_c, 3, 8704
3, 327855, Pitch_bend_c, 3, 8832
3, 327858, Pitch_bend_c, 3, 8960
3, 327861, Pitch_bend_c, 3, 9088
3, 327864, Pitch_bend_c, 3, 9216
3, 327867, Pitch_bend_c, 3, 9344
3, 327870, Pitch_bend_c, 3, 9472
3, 327873, Pitch_bend_c, 3, 9600
3, 327880, Pitch_bend_c, 3, 9600
3, 327920, Pitch_bend_c, 3, 9600
3, 327923, Pitch_bend_c, 3, 9472
3, 327926, Pitch_bend_c, 3, 9344
3, 327929, Pitch_bend_c, 3, 9216
3, 327932, Pitch_bend_c, 3, 9088
3, 327935, Pitch_bend_c, 3, 8960
3, 327938, Pitch_bend_c, 3, 8832
3, 327941, Pitch_bend_c, 3, 8704
3, 327944, Pitch_bend_c, 3, 8576
3, 327947, Pitch_bend_c, 3, 8448
3, 327950, Pitch_bend_c, 3, 8320
3, 327953, Pitch_bend_c, 3, 8192
3, 327960, Pitch_bend_c, 3, 8192
3, 328000, Pitch_bend_c, 3, 8192
3, 328000, Pitch_bend_c, 3, 8192
3, 328000, Note_off_c, 3, 61, 95
3, 328000, Note_on_c, 2, 61, 95
3, 328160, Note_off_c, 2, 61, 95
3, 328160, Note_on_c, 2, 59, 95
3, 328320, Note_off_c, 2, 59, 95
3, 328320, Pitch_bend_c, 3, 8192
3, 328320, Note_on_c, 3, 85, 95
3, 328407, Pitch_bend_c, 3, 8320
3, 328494, Pitch_bend_c, 3, 8448
3, 328581, Pitch_bend_c, 3, 8576
3, 328668, Pitch_bend_c, 3, 8704
3, 328755, Pitch_bend_c, 3, 8832
3, 328842, Pitch_bend_c, 3, 8960
3, 328929, Pitch_bend_c, 3, 9088
3, 329016, Pitch_bend_c, 3, 9216
3, 329103, Pitch_bend_c, 3, 9344
3, 329190, Pitch_bend_c, 3, 9472
3, 329277, Pitch_bend_c, 3, 9600
3, 329280, Pitch_bend_c, 3, 9600
3, 330240, Pitch_bend_c, 3, 9600
3, 330240, Pitch_bend_c, 3, 8192
3, 330240, Note_off_c, 3, 85, 95
3, 330240, Note_on_c, 2, 48, 95
3, 330240, Note_on_c, 2, 41, 95
3, 333120, Note_off_c, 2, 48, 95
3, 333120, Note_off_c, 2, 41, 95
3, 333120, Note_on_c, 2, 49, 95
3, 333120, Note_on_c, 2, 42, 95
3, 334080, Note_off_c, 2, 49, 95
3, 334080, Note_off_c, 2, 42, 95
3, 334080, Note_on_c, 2, 39, 95
3, 334320, Note_off_c, 2, 39, 95
3, 334320, Note_on_c, 2, 39, 95
3, 334560, Note_off_c, 2, 39, 95
3, 334560, Note_on_c, 2, 39, 95
3, 334800, Note_off_c, 2, 39, 95
3, 334800, Note_on_c, 2, 39, 95
3, 335040, Note_off_c, 2, 39, 95
3, 335040, Note_on_c, 2, 39, 95
3, 335280, Note_off_c, 2, 39, 95
3, 335280, Note_on_c, 2, 39, 95
3, 335520, Note_off_c, 2, 39, 95
3, 335520, Note_on_c, 2, 39, 95
3, 335760, Note_off_c, 2, 39, 95
3, 335760, Note_on_c, 2, 39, 95
3, 336000, Note_off_c, 2, 39, 95
3, 336000, Note_on_c, 2, 39, 95
3, 336240, Note_off_c, 2, 39, 95
3, 336240, Note_on_c, 2, 39, 95
3, 336480, Note_off_c, 2, 39, 95
3, 336480, Note_on_c, 2, 49, 95
3, 336480, Note_on_c, 2, 42, 95
3, 336960, Note_off_c, 2, 49, 95
3, 336960, Note_off_c, 2, 42, 95
3, 336960, Note_on_c, 2, 39, 95
3, 337200, Note_off_c, 2, 39, 95
3, 337200, Note_on_c, 2, 39, 95
3, 337440, Note_off_c, 2, 39, 95
3, 337440, Note_on_c, 2, 49, 95
3, 337440, Note_on_c, 2, 42, 95
3, 337920, Note_off_c, 2, 49, 95
3, 337920, Note_off_c, 2, 42, 95
3, 337920, Note_on_c, 2, 48, 95
3, 337920, Note_on_c, 2, 41, 95
3, 340800, Note_off_c, 2, 48, 95
3, 340800, Note_off_c, 2, 41, 95
3, 340800, Note_on_c, 2, 52, 95
3, 340800, Note_on_c, 2, 45, 95
3, 341760, Note_off_c, 2, 52, 95
3, 341760, Note_off_c, 2, 45, 95
3, 341760, Note_on_c, 2, 39, 95
3, 342000, Note_off_c, 2, 39, 95
3, 342000, Note_on_c, 2, 39, 95
3, 342240, Note_off_c, 2, 39, 95
3, 342240, Note_on_c, 2, 39, 95
3, 342480, Note_off_c, 2, 39, 95
3, 342480, Note_on_c, 2, 39, 95
3, 342720, Note_off_c, 2, 39, 95
3, 342720, Note_on_c, 2, 39, 95
3, 342960, Note_off_c, 2, 39, 95
3, 342960, Note_on_c, 2, 39, 95
3, 343200, Note_off_c, 2, 39, 95
3, 343200, Note_on_c, 2, 39, 95
3, 343440, Note_off_c, 2, 39, 95
3, 343440, Note_on_c, 2, 39, 95
3, 343680, Note_off_c, 2, 39, 95
3, 343680, Note_on_c, 2, 39, 95
3, 343920, Note_off_c, 2, 39, 95
3, 343920, Note_on_c, 2, 39, 95
3, 344160, Note_off_c, 2, 39, 95
3, 344160, Note_on_c, 2, 46, 95
3, 344160, Note_on_c, 2, 39, 95
3, 344640, Note_off_c, 2, 46, 95
3, 344640, Note_off_c, 2, 39, 95
3, 344640, Note_on_c, 2, 39, 95
3, 344880, Note_off_c, 2, 39, 95
3, 344880, Note_on_c, 2, 39, 95
3, 345120, Note_off_c, 2, 39, 95
3, 345120, Note_on_c, 2, 47, 95
3, 345120, Note_on_c, 2, 40, 95
3, 345600, Note_off_c, 2, 47, 95
3, 345600, Note_off_c, 2, 40, 95
3, 345600, Note_on_c, 2, 48, 95
3, 345600, Note_on_c, 2, 41, 95
3, 348480, Note_off_c, 2, 48, 95
3, 348480, Note_off_c, 2, 41, 95
3, 348480, Note_on_c, 2, 49, 95
3, 348480, Note_on_c, 2, 42, 95
3, 349440, Note_off_c, 2, 49, 95
3, 349440, Note_off_c, 2, 42, 95
3, 349440, Note_on_c, 2, 39, 95
3, 349680, Note_off_c, 2, 39, 95
3, 349680, Note_on_c, 2, 39, 95
3, 349920, Note_off_c, 2, 39, 95
3, 349920, Note_on_c, 2, 39, 95
3, 350160, Note_off_c, 2, 39, 95
3, 350160, Note_on_c, 2, 39, 95
3, 350400, Note_off_c, 2, 39, 95
3, 350400, Note_on_c, 2, 39, 95
3, 350640, Note_off_c, 2, 39, 95
3, 350640, Note_on_c, 2, 39, 95
3, 350880, Note_off_c, 2, 39, 95
3, 350880, Note_on_c, 2, 39, 95
3, 351120, Note_off_c, 2, 39, 95
3, 351120, Note_on_c, 2, 39, 95
3, 351360, Note_off_c, 2, 39, 95
3, 351360, Note_on_c, 2, 39, 95
3, 351600, Note_off_c, 2, 39, 95
3, 351600, Note_on_c, 2, 39, 95
3, 351840, Note_off_c, 2, 39, 95
3, 351840, Note_on_c, 2, 49, 95
3, 351840, Note_on_c, 2, 42, 95
3, 352320, Note_off_c, 2, 49, 95
3, 352320, Note_off_c, 2, 42, 95
3, 352320, Note_on_c, 2, 39, 95
3, 352560, Note_off_c, 2, 39, 95
3, 352560, Note_on_c, 2, 39, 95
3, 352800, Note_off_c, 2, 39, 95
3, 352800, Note_on_c, 2, 49, 95
3, 352800, Note_on_c, 2, 42, 95
3, 353280, Note_off_c, 2, 49, 95
3, 353280, Note_off_c, 2, 42, 95
3, 353280, Note_on_c, 2, 48, 95
3, 353280, Note_on_c, 2, 41, 95
3, 355200, Note_off_c, 2, 48, 95
3, 355200, Note_off_c, 2, 41, 95
3, 355200, Note_on_c, 2, 51, 95
3, 355200, Note_on_c, 2, 44, 95
3, 356160, Note_off_c, 2, 51, 95
3, 356160, Note_off_c, 2, 44, 95
3, 356160, Note_on_c, 2, 50, 95
3, 356160, Note_on_c, 2, 43, 95
3, 356640, Note_off_c, 2, 50, 95
3, 356640, Note_off_c, 2, 43, 95
3, 356640, Note_on_c, 2, 49, 95
3, 356640, Note_on_c, 2, 42, 95
3, 357120, Note_off_c, 2, 49, 95
3, 357120, Note_off_c, 2, 42, 95
3, 357120, Note_on_c, 2, 39, 95
3, 357360, Note_off_c, 2, 39, 95
3, 357360, Note_on_c, 2, 39, 95
3, 357600, Note_off_c, 2, 39, 95
3, 357840, Note_on_c, 2, 39, 95
3, 358020, Note_on_c, 3, 49, 95
3, 358080, Note_off_c, 2, 39, 95
3, 358080, Note_off_c, 3, 49, 95
3, 358080, Note_on_c, 3, 51, 95
3, 358080, Note_on_c, 2, 39, 95
3, 358560, Note_off_c, 3, 51, 95
3, 358560, Note_off_c, 2, 39, 95
3, 358560, Note_on_c, 2, 39, 95
3, 358800, Note_off_c, 2, 39, 95
3, 358800, Note_on_c, 2, 39, 95
3, 359040, Note_off_c, 2, 39, 95
3, 359280, Note_on_c, 2, 39, 95
3, 359520, Note_off_c, 2, 39, 95
3, 359520, Note_on_c, 2, 59, 95
3, 359520, Note_on_c, 2, 52, 95
3, 360000, Note_off_c, 2, 59, 95
3, 360000, Note_off_c, 2, 52, 95
3, 360000, Note_on_c, 2, 39, 95
3, 360240, Note_off_c, 2, 39, 95
3, 360240, Note_on_c, 2, 39, 95
3, 360480, Note_off_c, 2, 39, 95
3, 360480, Note_on_c, 2, 57, 95
3, 360480, Note_on_c, 2, 50, 95
3, 360960, Note_off_c, 2, 57, 95
3, 360960, Note_off_c, 2, 50, 95
3, 360960, Note_on_c, 2, 39, 95
3, 361200, Note_off_c, 2, 39, 95
3, 361200, Note_on_c, 2, 39, 95
3, 361440, Note_off_c, 2, 39, 95
3, 361680, Note_on_c, 2, 39, 95
3, 361860, Note_on_c, 3, 49, 95
3, 361920, Note_off_c, 2, 39, 95
3, 361920, Note_off_c, 3, 49, 95
3, 361920, Note_on_c, 3, 51, 95
3, 361920, Note_on_c, 2, 39, 95
3, 362400, Note_off_c, 3, 51, 95
3, 362400, Note_off_c, 2, 39, 95
3, 362400, Note_on_c, 2, 39, 95
3, 362640, Note_off_c, 2, 39, 95
3, 362640, Note_on_c, 2, 39, 95
3, 362880, Note_off_c, 2, 39, 95
3, 363120, Note_on_c, 2, 39, 95
3, 363360, Note_off_c, 2, 39, 95
3, 363360, Note_on_c, 2, 61, 95
3, 363360, Note_on_c, 2, 54, 95
3, 363840, Note_off_c, 2, 61, 95
3, 363840, Note_off_c, 2, 54, 95
3, 363840, Note_on_c, 2, 39, 95
3, 364080, Note_off_c, 2, 39, 95
3, 364080, Note_on_c, 2, 39, 95
3, 364320, Note_off_c, 2, 39, 95
3, 364320, Note_on_c, 2, 60, 95
3, 364320, Note_on_c, 2, 53, 95
3, 364800, Note_off_c, 2, 60, 95
3, 364800, Note_off_c, 2, 53, 95
3, 364800, Note_on_c, 2, 39, 95
3, 365040, Note_off_c, 2, 39, 95
3, 365040, Note_on_c, 2, 39, 95
3, 365280, Note_off_c, 2, 39, 95
3, 365520, Note_on_c, 2, 39, 95
3, 365700, Note_on_c, 3, 49, 95
3, 365760, Note_off_c, 2, 39, 95
3, 365760, Note_off_c, 3, 49, 95
3, 365760, Note_on_c, 3, 51, 95
3, 365760, Note_on_c, 2, 39, 95
3, 366240, Note_off_c, 3, 51, 95
3, 366240, Note_off_c, 2, 39, 95
3, 366240, Note_on_c, 2, 39, 95
3, 366480, Note_off_c, 2, 39, 95
3, 366480, Note_on_c, 2, 39, 95
3, 366720, Note_off_c, 2, 39, 95
3, 366960, Note_on_c, 2, 39, 95
3, 367200, Note_off_c, 2, 39, 95
3, 367200, Note_on_c, 2, 59, 95
3, 367200, Note_on_c, 2, 52, 95
3, 367680, Note_off_c, 2, 59, 95
3, 367680, Note_off_c, 2, 52, 95
3, 367680, Note_on_c, 2, 39, 95
3, 367920, Note_off_c, 2, 39, 95
3, 367920, Note_on_c, 2, 39, 95
3, 368160, Note_off_c, 2, 39, 95
3, 368160, Note_on_c, 2, 57, 95
3, 368160, Note_on_c, 2, 50, 95
3, 368640, Note_off_c, 2, 57, 95
3, 368640, Note_off_c, 2, 50, 95
3, 368640, Note_on_c, 2, 39, 95
3, 368880, Note_off_c, 2, 39, 95
3, 368880, Note_on_c, 2, 39, 95
3, 369120, Note_off_c, 2, 39, 95
3, 369360, Note_on_c, 2, 39, 95
3, 369540, Note_on_c, 3, 49, 95
3, 369600, Note_off_c, 2, 39, 95
3, 369600, Note_off_c, 3, 49, 95
3, 369600, Note_on_c, 3, 51, 95
3, 369600, Note_on_c, 2, 39, 95
3, 370080, Note_off_c, 3, 51, 95
3, 370080, Note_off_c, 2, 39, 95
3, 370080, Note_on_c, 2, 39, 95
3, 370320, Note_off_c, 2, 39, 95
3, 370320, Note_on_c, 2, 39, 95
3, 370560, Note_off_c, 2, 39, 95
3, 370800, Note_on_c, 2, 39, 95
3, 371040, Note_off_c, 2, 39, 95
3, 371040, Note_on_c, 2, 49, 95
3, 371040, Note_on_c, 2, 42, 95
3, 371520, Note_off_c, 2, 49, 95
3, 371520, Note_off_c, 2, 42, 95
3, 371520, Note_on_c, 2, 39, 95
3, 371760, Note_off_c, 2, 39, 95
3, 371760, Note_on_c, 2, 39, 95
3, 372000, Note_off_c, 2, 39, 95
3, 372000, Note_on_c, 2, 47, 95
3, 372000, Note_on_c, 2, 40, 95
3, 372480, Note_off_c, 2, 47, 95
3, 372480, Note_off_c, 2, 40, 95
3, 372480, Note_on_c, 2, 48, 95
3, 372480, Note_on_c, 2, 41, 95
3, 375360, Note_off_c, 2, 48, 95
3, 375360, Note_off_c, 2, 41, 95
3, 375360, Note_on_c, 2, 49, 95
3, 375360, Note_on_c, 2, 42, 95
3, 376320, Note_off_c, 2, 49, 95
3, 376320, Note_off_c, 2, 42, 95
3, 376320, Note_on_c, 2, 39, 95
3, 376560, Note_off_c, 2, 39, 95
3, 376560, Note_on_c, 2, 39, 95
3, 376800, Note_off_c, 2, 39, 95
3, 376800, Note_on_c, 2, 39, 95
3, 377040, Note_off_c, 2, 39, 95
3, 377040, Note_on_c, 2, 39, 95
3, 377280, Note_off_c, 2, 39, 95
3, 377280, Note_on_c, 2, 39, 95
3, 377520, Note_off_c, 2, 39, 95
3, 377520, Note_on_c, 2, 39, 95
3, 377760, Note_off_c, 2, 39, 95
3, 377760, Note_on_c, 2, 39, 95
3, 378000, Note_off_c, 2, 39, 95
3, 378000, Note_on_c, 2, 39, 95
3, 378240, Note_off_c, 2, 39, 95
3, 378240, Note_on_c, 2, 39, 95
3, 378480, Note_off_c, 2, 39, 95
3, 378480, Note_on_c, 2, 39, 95
3, 378720, Note_off_c, 2, 39, 95
3, 378720, Note_on_c, 2, 49, 95
3, 378720, Note_on_c, 2, 42, 95
3, 379200, Note_off_c, 2, 49, 95
3, 379200, Note_off_c, 2, 42, 95
3, 379200, Note_on_c, 2, 39, 95
3, 379440, Note_off_c, 2, 39, 95
3, 379440, Note_on_c, 2, 39, 95
3, 379680, Note_off_c, 2, 39, 95
3, 379680, Note_on_c, 2, 49, 95
3, 379680, Note_on_c, 2, 42, 95
3, 380160, Note_off_c, 2, 49, 95
3, 380160, Note_off_c, 2, 42, 95
3, 380160, Note_on_c, 2, 48, 95
3, 380160, Note_on_c, 2, 41, 95
3, 383040, Note_off_c, 2, 48, 95
3, 383040, Note_off_c, 2, 41, 95
3, 383040, Note_on_c, 2, 52, 95
3, 383040, Note_on_c, 2, 45, 95
3, 384000, Note_off_c, 2, 52, 95
3, 384000, Note_off_c, 2, 45, 95
3, 384000, Note_on_c, 2, 39, 95
3, 384240, Note_off_c, 2, 39, 95
3, 384240, Note_on_c, 2, 39, 95
3, 384480, Note_off_c, 2, 39, 95
3, 384480, Note_on_c, 2, 39, 95
3, 384720, Note_off_c, 2, 39, 95
3, 384720, Note_on_c, 2, 39, 95
3, 384960, Note_off_c, 2, 39, 95
3, 384960, Note_on_c, 2, 39, 95
3, 385200, Note_off_c, 2, 39, 95
3, 385200, Note_on_c, 2, 39, 95
3, 385440, Note_off_c, 2, 39, 95
3, 385440, Note_on_c, 2, 39, 95
3, 385680, Note_off_c, 2, 39, 95
3, 385680, Note_on_c, 2, 39, 95
3, 385920, Note_off_c, 2, 39, 95
3, 385920, Note_on_c, 2, 39, 95
3, 386160, Note_off_c, 2, 39, 95
3, 386160, Note_on_c, 2, 39, 95
3, 386400, Note_off_c, 2, 39, 95
3, 386400, Note_on_c, 2, 46, 95
3, 386400, Note_on_c, 2, 39, 95
3, 386880, Note_off_c, 2, 46, 95
3, 386880, Note_off_c, 2, 39, 95
3, 386880, Note_on_c, 2, 39, 95
3, 387120, Note_off_c, 2, 39, 95
3, 387120, Note_on_c, 2, 39, 95
3, 387360, Note_off_c, 2, 39, 95
3, 387360, Note_on_c, 2, 47, 95
3, 387360, Note_on_c, 2, 40, 95
3, 387840, Note_off_c, 2, 47, 95
3, 387840, Note_off_c, 2, 40, 95
3, 387840, Note_on_c, 2, 48, 95
3, 387840, Note_on_c, 2, 41, 95
3, 390720, Note_off_c, 2, 48, 95
3, 390720, Note_off_c, 2, 41, 95
3, 390720, Note_on_c, 2, 49, 95
3, 390720, Note_on_c, 2, 42, 95
3, 391680, Note_off_c, 2, 49, 95
3, 391680, Note_off_c, 2, 42, 95
3, 391680, Note_on_c, 2, 39, 95
3, 391920, Note_off_c, 2, 39, 95
3, 391920, Note_on_c, 2, 39, 95
3, 392160, Note_off_c, 2, 39, 95
3, 392160, Note_on_c, 2, 39, 95
3, 392400, Note_off_c, 2, 39, 95
3, 392400, Note_on_c, 2, 39, 95
3, 392640, Note_off_c, 2, 39, 95
3, 392640, Note_on_c, 2, 39, 95
3, 392880, Note_off_c, 2, 39, 95
3, 392880, Note_on_c, 2, 39, 95
3, 393120, Note_off_c, 2, 39, 95
3, 393120, Note_on_c, 2, 39, 95
3, 393360, Note_off_c, 2, 39, 95
3, 393360, Note_on_c, 2, 39, 95
3, 393600, Note_off_c, 2, 39, 95
3, 393600, Note_on_c, 2, 39, 95
3, 393840, Note_off_c, 2, 39, 95
3, 393840, Note_on_c, 2, 39, 95
3, 394080, Note_off_c, 2, 39, 95
3, 394080, Note_on_c, 2, 49, 95
3, 394080, Note_on_c, 2, 42, 95
3, 394560, Note_off_c, 2, 49, 95
3, 394560, Note_off_c, 2, 42, 95
3, 394560, Note_on_c, 2, 39, 95
3, 394800, Note_off_c, 2, 39, 95
3, 394800, Note_on_c, 2, 39, 95
3, 395040, Note_off_c, 2, 39, 95
3, 395040, Note_on_c, 2, 49, 95
3, 395040, Note_on_c, 2, 42, 95
3, 395520, Note_off_c, 2, 49, 95
3, 395520, Note_off_c, 2, 42, 95
3, 395520, Note_on_c, 2, 48, 95
3, 395520, Note_on_c, 2, 41, 95
3, 396000, Note_off_c, 2, 48, 95
3, 396000, Note_off_c, 2, 41, 95
3, 398400, Note_on_c, 2, 49, 95
3, 398400, Note_on_c, 2, 42, 95
3, 398640, Note_off_c, 2, 49, 95
3, 398640, Note_off_c, 2, 42, 95
3, 398640, Note_on_c, 2, 51, 95
3, 398640, Note_on_c, 2, 44, 95
3, 399360, Note_off_c, 2, 51, 95
3, 399360, Note_off_c, 2, 44, 95
3, 399360, Note_on_c, 2, 39, 95
3, 399600, Note_off_c, 2, 39, 95
3, 399840, Note_on_c, 2, 39, 95
3, 400080, Note_off_c, 2, 39, 95
3, 400080, Note_on_c, 2, 39, 95
3, 400320, Note_off_c, 2, 39, 95
3, 400320, Note_on_c, 2, 51, 95
3, 400560, Note_off_c, 2, 51, 95
3, 400560, Note_on_c, 2, 52, 95
3, 401280, Note_off_c, 2, 52, 95
3, 401280, Note_on_c, 2, 39, 95
3, 401520, Note_off_c, 2, 39, 95
3, 401760, Note_on_c, 2, 39, 95
3, 402000, Note_off_c, 2, 39, 95
3, 402000, Note_on_c, 2, 39, 95
3, 402240, Note_off_c, 2, 39, 95
3, 402240, Note_on_c, 2, 51, 95
3, 402480, Note_off_c, 2, 51, 95
3, 402480, Note_on_c, 2, 52, 95
3, 402720, Note_off_c, 2, 52, 95
3, 402720, Note_on_c, 2, 54, 95
3, 403200, Note_off_c, 2, 54, 95
3, 403200, Note_on_c, 2, 39, 95
3, 403440, Note_off_c, 2, 39, 95
3, 403680, Note_on_c, 2, 39, 95
3, 403920, Note_off_c, 2, 39, 95
3, 403920, Note_on_c, 2, 39, 95
3, 404160, Note_off_c, 2, 39, 95
3, 404160, Note_on_c, 2, 51, 95
3, 404400, Note_off_c, 2, 51, 95
3, 404400, Note_on_c, 2, 52, 95
3, 404640, Note_off_c, 2, 52, 95
3, 404640, Note_on_c, 2, 56, 95
3, 405120, Note_off_c, 2, 56, 95
3, 405120, Note_on_c, 2, 55, 95
3, 405360, Note_off_c, 2, 55, 95
3, 405360, Note_on_c, 2, 54, 95
3, 405600, Note_off_c, 2, 54, 95
3, 405600, Note_on_c, 2, 53, 95
3, 405840, Note_off_c, 2, 53, 95
3, 405840, Note_on_c, 2, 50, 95
3, 406080, Note_off_c, 2, 50, 95
3, 406080, Note_on_c, 2, 49, 95
3, 406320, Note_off_c, 2, 49, 95
3, 406320, Note_on_c, 2, 47, 95
3, 406560, Note_off_c, 2, 47, 95
3, 406560, Note_on_c, 2, 46, 95
3, 406800, Note_off_c, 2, 46, 95
3, 406800, Note_on_c, 2, 45, 95
3, 407040, Note_off_c, 2, 45, 95
3, 407040, Note_on_c, 2, 39, 95
3, 407280, Note_off_c, 2, 39, 95
3, 407520, Note_on_c, 2, 39, 95
3, 407760, Note_off_c, 2, 39, 95
3, 407760, Note_on_c, 2, 39, 95
3, 408000, Note_off_c, 2, 39, 95
3, 408000, Note_on_c, 2, 51, 95
3, 408240, Note_off_c, 2, 51, 95
3, 408240, Note_on_c, 2, 52, 95
3, 408960, Note_off_c, 2, 52, 95
3, 408960, Note_on_c, 2, 39, 95
3, 409200, Note_off_c, 2, 39, 95
3, 409440, Note_on_c, 2, 39, 95
3, 409680, Note_off_c, 2, 39, 95
3, 409680, Note_on_c, 2, 39, 95
3, 409920, Note_off_c, 2, 39, 95
3, 409920, Note_on_c, 2, 51, 95
3, 410160, Note_off_c, 2, 51, 95
3, 410160, Note_on_c, 2, 52, 95
3, 410400, Note_off_c, 2, 52, 95
3, 410400, Note_on_c, 2, 54, 95
3, 410880, Note_off_c, 2, 54, 95
3, 410880, Note_on_c, 2, 39, 95
3, 411120, Note_off_c, 2, 39, 95
3, 411360, Note_on_c, 2, 39, 95
3, 411600, Note_off_c, 2, 39, 95
3, 411600, Note_on_c, 2, 39, 95
3, 411840, Note_off_c, 2, 39, 95
3, 411840, Note_on_c, 2, 51, 95
3, 412080, Note_off_c, 2, 51, 95
3, 412080, Note_on_c, 2, 52, 95
3, 412320, Note_off_c, 2, 52, 95
3, 412320, Note_on_c, 2, 56, 95
3, 412800, Note_off_c, 2, 56, 95
3, 412800, Note_on_c, 2, 55, 95
3, 413040, Note_off_c, 2, 55, 95
3, 413040, Note_on_c, 2, 54, 95
3, 413280, Note_off_c, 2, 54, 95
3, 413280, Note_on_c, 2, 53, 95
3, 413520, Note_off_c, 2, 53, 95
3, 413520, Note_on_c, 2, 50, 95
3, 413760, Note_off_c, 2, 50, 95
3, 413760, Note_on_c, 2, 49, 95
3, 414000, Note_off_c, 2, 49, 95
3, 414000, Note_on_c, 2, 48, 95
3, 414240, Note_off_c, 2, 48, 95
3, 414240, Note_on_c, 2, 57, 95
3, 414720, Note_off_c, 2, 57, 95
3, 414720, Note_on_c, 2, 39, 95
3, 414960, Note_off_c, 2, 39, 95
3, 415200, Note_on_c, 2, 39, 95
3, 415440, Note_off_c, 2, 39, 95
3, 415440, Note_on_c, 2, 39, 95
3, 415680, Note_off_c, 2, 39, 95
3, 415680, Note_on_c, 2, 51, 95
3, 415920, Note_off_c, 2, 51, 95
3, 415920, Note_on_c, 2, 52, 95
3, 416640, Note_off_c, 2, 52, 95
3, 416640, Note_on_c, 2, 39, 95
3, 416880, Note_off_c, 2, 39, 95
3, 417120, Note_on_c, 2, 39, 95
3, 417360, Note_off_c, 2, 39, 95
3, 417360, Note_on_c, 2, 39, 95
3, 417600, Note_off_c, 2, 39, 95
3, 417600, Note_on_c, 2, 51, 95
3, 417840, Note_off_c, 2, 51, 95
3, 417840, Note_on_c, 2, 52, 95
3, 418080, Note_off_c, 2, 52, 95
3, 418080, Note_on_c, 2, 54, 95
3, 418560, Note_off_c, 2, 54, 95
3, 418560, Note_on_c, 2, 39, 95
3, 418800, Note_off_c, 2, 39, 95
3, 419040, Note_on_c, 2, 39, 95
3, 419280, Note_off_c, 2, 39, 95
3, 419280, Note_on_c, 2, 39, 95
3, 419520, Note_off_c, 2, 39, 95
3, 419520, Note_on_c, 2, 51, 95
3, 419760, Note_off_c, 2, 51, 95
3, 419760, Note_on_c, 2, 52, 95
3, 420000, Note_off_c, 2, 52, 95
3, 420000, Note_on_c, 2, 56, 95
3, 420480, Note_off_c, 2, 56, 95
3, 420480, Note_on_c, 2, 55, 95
3, 420720, Note_off_c, 2, 55, 95
3, 420720, Note_on_c, 2, 54, 95
3, 420960, Note_off_c, 2, 54, 95
3, 420960, Note_on_c, 2, 53, 95
3, 421200, Note_off_c, 2, 53, 95
3, 421200, Note_on_c, 2, 50, 95
3, 421440, Note_off_c, 2, 50, 95
3, 421440, Note_on_c, 2, 49, 95
3, 421680, Note_off_c, 2, 49, 95
3, 421680, Note_on_c, 2, 47, 95
3, 421920, Note_off_c, 2, 47, 95
3, 421920, Note_on_c, 2, 46, 95
3, 422160, Note_off_c, 2, 46, 95
3, 422160, Note_on_c, 2, 45, 95
3, 422400, Note_off_c, 2, 45, 95
3, 422400, Note_on_c, 2, 39, 95
3, 422640, Note_off_c, 2, 39, 95
3, 422880, Note_on_c, 2, 39, 95
3, 423120, Note_off_c, 2, 39, 95
3, 423120, Note_on_c, 2, 39, 95
3, 423360, Note_off_c, 2, 39, 95
3, 423360, Note_on_c, 2, 51, 95
3, 423600, Note_off_c, 2, 51, 95
3, 423600, Note_on_c, 2, 52, 95
3, 424320, Note_off_c, 2, 52, 95
3, 424320, Note_on_c, 2, 39, 95
3, 424560, Note_off_c, 2, 39, 95
3, 424800, Note_on_c, 2, 39, 95
3, 425040, Note_off_c, 2, 39, 95
3, 425040, Note_on_c, 2, 39, 95
3, 425280, Note_off_c, 2, 39, 95
3, 425280, Note_on_c, 2, 51, 95
3, 425520, Note_off_c, 2, 51, 95
3, 425520, Note_on_c, 2, 52, 95
3, 425760, Note_off_c, 2, 52, 95
3, 425760, Note_on_c, 2, 54, 95
3, 426240, Note_off_c, 2, 54, 95
3, 426240, Note_on_c, 2, 39, 95
3, 426480, Note_off_c, 2, 39, 95
3, 426720, Note_on_c, 2, 39, 95
3, 426960, Note_off_c, 2, 39, 95
3, 426960, Note_on_c, 2, 39, 95
3, 427200, Note_off_c, 2, 39, 95
3, 427200, Note_on_c, 2, 51, 95
3, 427440, Note_off_c, 2, 51, 95
3, 427440, Note_on_c, 2, 52, 95
3, 427680, Note_off_c, 2, 52, 95
3, 427680, Note_on_c, 2, 56, 95
3, 428160, Note_off_c, 2, 56, 95
3, 428160, Note_on_c, 2, 55, 95
3, 428400, Note_off_c, 2, 55, 95
3, 428400, Note_on_c, 2, 54, 95
3, 428640, Note_off_c, 2, 54, 95
3, 428640, Note_on_c, 2, 53, 95
3, 428880, Note_off_c, 2, 53, 95
3, 428880, Note_on_c, 2, 50, 95
3, 429120, Note_off_c, 2, 50, 95
3, 429120, Note_on_c, 2, 49, 95
3, 429360, Note_off_c, 2, 49, 95
3, 429360, Note_on_c, 2, 47, 95
3, 429600, Note_off_c, 2, 47, 95
3, 429600, Note_on_c, 2, 46, 95
3, 429840, Note_off_c, 2, 46, 95
3, 429840, Note_on_c, 2, 45, 95
3, 430080, Note_off_c, 2, 45, 95
3, 430080, Note_on_c, 2, 55, 95
3, 430320, Note_off_c, 2, 55, 95
3, 430320, Note_on_c, 2, 54, 95
3, 430560, Note_off_c, 2, 54, 95
3, 430560, Note_on_c, 2, 53, 95
3, 430800, Note_off_c, 2, 53, 95
3, 430800, Note_on_c, 2, 49, 95
3, 431040, Note_off_c, 2, 49, 95
3, 431040, Note_on_c, 2, 48, 95
3, 431280, Note_off_c, 2, 48, 95
3, 431280, Note_on_c, 2, 47, 95
3, 431520, Note_off_c, 2, 47, 95
3, 431520, Note_on_c, 2, 42, 95
3, 431760, Note_off_c, 2, 42, 95
3, 431760, Note_on_c, 2, 41, 95
3, 432000, Note_off_c, 2, 41, 95
3, 432000, Note_on_c, 2, 46, 95
3, 432000, Note_on_c, 2, 39, 95
3, 432480, Note_off_c, 2, 46, 95
3, 432480, Note_off_c, 2, 39, 95
3, 432480, End_track
0, 0, End_of_file